<?xml version="1.0" standalone="no"?>
<!DOCTYPE svg PUBLIC "-//W3C//DTD SVG 20010904//EN"
 "http://www.w3.org/TR/2001/REC-SVG-20010904/DTD/svg10.dtd">
<svg version="1.0" xmlns="http://www.w3.org/2000/svg"
 width="512.000000pt" height="512.000000pt" viewBox="0 0 512.000000 512.000000"
 preserveAspectRatio="xMidYMid meet">
<metadata>
Created by potrace 1.16, written by Peter Selinger 2001-2019
</metadata>
<g transform="translate(0.000000,512.000000) scale(0.100000,-0.100000)"
fill="#000000" stroke="none">
<path d="M744 5083 c4 -5 13 -8 19 -8 7 -1 11 -6 10 -13 -2 -7 2 -12 7 -12 16
0 11 27 -6 34 -22 8 -39 8 -30 -1z"/>
<path d="M3635 5040 c-3 -6 1 -7 9 -4 18 7 21 14 7 14 -6 0 -13 -4 -16 -10z"/>
<path d="M796 5023 c-6 -14 -5 -15 5 -6 7 7 10 15 7 18 -3 3 -9 -2 -12 -12z"/>
<path d="M822 4979 c-2 -19 2 -28 8 -24 12 7 14 55 2 55 -4 0 -9 -14 -10 -31z"/>
<path d="M858 4923 c7 -3 16 -2 19 1 4 3 -2 6 -13 5 -11 0 -14 -3 -6 -6z"/>
<path d="M908 4923 c7 -3 16 -2 19 1 4 3 -2 6 -13 5 -11 0 -14 -3 -6 -6z"/>
<path d="M2270 4920 c0 -5 5 -10 11 -10 5 0 7 5 4 10 -3 6 -8 10 -11 10 -2 0
-4 -4 -4 -10z"/>
<path d="M960 4880 c0 -5 5 -10 10 -10 6 0 10 5 10 10 0 6 -4 10 -10 10 -5 0
-10 -4 -10 -10z"/>
<path d="M975 4850 c-3 -5 -1 -10 4 -10 6 0 11 5 11 10 0 6 -2 10 -4 10 -3 0
-8 -4 -11 -10z"/>
<path d="M996 4822 c-2 -4 4 -8 14 -8 10 0 16 4 14 8 -3 4 -9 8 -14 8 -5 0
-11 -4 -14 -8z"/>
<path d="M1016 4784 c-5 -14 -4 -15 9 -4 17 14 19 20 6 20 -5 0 -12 -7 -15
-16z"/>
<path d="M1034 4769 c-4 -7 -3 -9 4 -5 5 3 13 0 15 -6 4 -9 6 -10 6 -1 1 17
-16 25 -25 12z"/>
<path d="M1066 4741 c-4 -6 -3 -11 2 -11 10 0 7 -54 -3 -71 -4 -5 -2 -9 4 -9
14 0 25 65 13 85 -6 12 -11 14 -16 6z"/>
<path d="M2360 4719 c0 -5 5 -7 10 -4 6 3 10 8 10 11 0 2 -4 4 -10 4 -5 0 -10
-5 -10 -11z"/>
<path d="M2558 4653 c7 -3 16 -2 19 1 4 3 -2 6 -13 5 -11 0 -14 -3 -6 -6z"/>
<path d="M1090 4640 c0 -5 7 -10 15 -10 8 0 15 5 15 10 0 6 -7 10 -15 10 -8 0
-15 -4 -15 -10z"/>
<path d="M1145 4624 c9 -9 19 -13 23 -10 3 4 0 11 -8 16 -24 15 -33 11 -15 -6z"/>
<path d="M1184 4606 c-19 -15 -19 -15 0 -12 11 2 22 8 24 14 5 16 0 15 -24 -2z"/>
<path d="M2598 4602 c-5 -18 -2 -22 15 -22 13 0 17 3 11 8 -6 4 -13 14 -16 22
-3 10 -6 8 -10 -8z"/>
<path d="M1220 4594 c0 -14 3 -14 15 -4 8 7 15 14 15 16 0 2 -7 4 -15 4 -8 0
-15 -7 -15 -16z"/>
<path d="M1250 4586 c0 -9 30 -14 35 -6 4 6 -3 10 -14 10 -12 0 -21 -2 -21 -4z"/>
<path d="M1298 4563 c6 -2 10 -9 6 -14 -3 -5 2 -9 10 -9 9 0 16 4 16 9 0 9
-25 22 -38 20 -4 0 -1 -3 6 -6z"/>
<path d="M1319 4512 c-13 -16 -13 -16 5 -2 18 14 19 13 13 -2 -3 -10 -2 -18 3
-18 12 0 13 27 1 34 -5 3 -15 -2 -22 -12z"/>
<path d="M2948 4513 c7 -3 16 -2 19 1 4 3 -2 6 -13 5 -11 0 -14 -3 -6 -6z"/>
<path d="M2698 4503 c7 -3 16 -2 19 1 4 3 -2 6 -13 5 -11 0 -14 -3 -6 -6z"/>
<path d="M1365 4448 c0 -17 7 -34 14 -36 10 -3 12 1 8 12 -4 10 -7 26 -7 37 0
10 -4 19 -8 19 -4 0 -7 -14 -7 -32z"/>
<path d="M2765 4452 c-3 -4 -191 -7 -416 -7 -282 0 -412 -4 -419 -11 -7 -7
-13 -63 -15 -135 -2 -68 -4 -128 -5 -134 -1 -5 -1 -12 0 -15 1 -3 4 -77 5
-165 4 -231 4 -229 12 -222 3 4 5 155 4 337 l-2 329 630 0 631 1 0 -335 0
-335 -77 0 c-43 0 -316 0 -608 0 -491 0 -655 -6 -535 -20 25 -3 115 -3 200 0
197 6 263 3 253 -13 -5 -9 -4 -9 8 0 17 13 54 15 257 13 93 -1 140 -5 136 -11
-3 -6 4 -5 15 3 18 11 23 11 31 -2 5 -8 10 -10 10 -4 0 16 232 16 242 0 6 -8
8 -7 8 2 0 6 11 12 24 12 30 0 56 24 57 53 0 12 2 31 4 41 2 11 1 24 -2 29 -3
6 -5 51 -4 101 2 50 2 98 2 106 -1 17 0 161 1 169 0 3 0 45 -1 93 -1 63 -5 91
-16 102 -13 13 -45 15 -203 13 -103 -2 -194 0 -203 4 -9 5 -20 5 -24 1z"/>
<path d="M4230 4450 c0 -5 5 -10 11 -10 5 0 7 5 4 10 -3 6 -8 10 -11 10 -2 0
-4 -4 -4 -10z"/>
<path d="M1397 4393 c-4 -3 -7 -11 -7 -17 0 -6 5 -5 12 2 6 6 9 14 7 17 -3 3
-9 2 -12 -2z"/>
<path d="M3363 4373 c9 -2 25 -2 35 0 9 3 1 5 -18 5 -19 0 -27 -2 -17 -5z"/>
<path d="M1400 4360 c-1 -3 -4 -18 -6 -34 -2 -20 0 -26 7 -19 6 6 9 21 6 34
-2 13 -5 22 -7 19z"/>
<path d="M3408 4318 c-3 -24 -2 -49 1 -55 4 -7 8 12 9 42 3 65 -4 73 -10 13z"/>
<path d="M3296 4335 c-3 -8 -1 -15 4 -15 6 0 10 7 10 15 0 8 -2 15 -4 15 -2 0
-6 -7 -10 -15z"/>
<path d="M3290 4300 c-9 -6 -10 -10 -3 -10 6 0 15 5 18 10 8 12 4 12 -15 0z"/>
<path d="M1390 4287 c0 -1 -4 -18 -10 -36 -5 -20 -6 -31 -1 -25 12 11 25 64
17 64 -3 0 -6 -1 -6 -3z"/>
<path d="M3325 4280 c-3 -5 2 -10 12 -10 11 0 24 -5 31 -12 9 -9 12 -7 12 10
0 17 -6 22 -24 22 -14 0 -28 -4 -31 -10z"/>
<path d="M3363 4228 c1 -9 -8 -12 -25 -10 -16 1 -28 -2 -28 -8 0 -5 16 -10 35
-10 28 0 35 4 35 20 0 11 -4 20 -10 20 -5 0 -9 -6 -7 -12z"/>
<path d="M1400 4209 c-12 -8 -10 -10 9 -5 14 3 31 0 38 -6 9 -8 13 -7 13 2 0
10 3 10 15 0 9 -7 15 -8 15 -2 0 22 -64 30 -90 11z"/>
<path d="M3402 4180 c-1 -17 2 -30 8 -30 6 0 9 11 7 25 -4 36 -12 38 -15 5z"/>
<path d="M3282 4168 c0 -13 -1 -27 -2 -33 -4 -17 0 -169 4 -164 8 9 15 219 7
219 -5 0 -9 -10 -9 -22z"/>
<path d="M479 4163 c-13 -16 -12 -17 4 -4 16 13 21 21 13 21 -2 0 -10 -8 -17
-17z"/>
<path d="M1525 4170 c3 -5 8 -10 11 -10 2 0 4 5 4 10 0 6 -5 10 -11 10 -5 0
-7 -4 -4 -10z"/>
<path d="M1075 4160 c-3 -5 -1 -10 4 -10 6 0 11 5 11 10 0 6 -2 10 -4 10 -3 0
-8 -4 -11 -10z"/>
<path d="M1585 4140 c3 -5 8 -10 11 -10 2 0 4 5 4 10 0 6 -5 10 -11 10 -5 0
-7 -4 -4 -10z"/>
<path d="M3330 4104 c0 -34 0 -34 48 -34 34 0 43 3 32 10 -8 5 -25 10 -37 10
-14 0 -23 6 -23 15 0 11 11 15 37 15 46 0 40 6 -14 13 l-43 5 0 -34z"/>
<path d="M2231 4114 c0 -11 3 -14 6 -6 3 7 2 16 -1 19 -3 4 -6 -2 -5 -13z"/>
<path d="M2887 4113 c-4 -3 -7 -11 -7 -17 0 -6 5 -5 12 2 6 6 9 14 7 17 -3 3
-9 2 -12 -2z"/>
<path d="M1625 4100 c-3 -5 -1 -10 4 -10 6 0 11 5 11 10 0 6 -2 10 -4 10 -3 0
-8 -4 -11 -10z"/>
<path d="M525 4090 c3 -5 8 -10 11 -10 2 0 4 5 4 10 0 6 -5 10 -11 10 -5 0 -7
-4 -4 -10z"/>
<path d="M580 4090 c0 -6 7 -10 15 -10 8 0 15 2 15 4 0 2 -7 6 -15 10 -8 3
-15 1 -15 -4z"/>
<path d="M1650 4085 c0 -5 5 -17 10 -25 5 -8 10 -10 10 -5 0 6 -5 17 -10 25
-5 8 -10 11 -10 5z"/>
<path d="M2881 4054 c0 -11 3 -14 6 -6 3 7 2 16 -1 19 -3 4 -6 -2 -5 -13z"/>
<path d="M3414 4048 c-5 -7 -9 -31 -10 -52 -1 -36 0 -38 12 -21 9 12 11 22 5
28 -6 6 -6 19 -1 33 10 26 6 32 -6 12z"/>
<path d="M675 4040 c-3 -6 1 -7 9 -4 18 7 21 14 7 14 -6 0 -13 -4 -16 -10z"/>
<path d="M1662 4021 c7 -9 13 -18 15 -20 1 -2 1 5 0 16 0 11 -7 20 -14 20 -10
0 -10 -4 -1 -16z"/>
<path d="M2586 4025 c-3 -8 -1 -15 4 -15 6 0 10 7 10 15 0 8 -2 15 -4 15 -2 0
-6 -7 -10 -15z"/>
<path d="M3330 4032 c0 -5 8 -13 17 -16 19 -8 40 8 24 18 -6 4 -11 2 -11 -5 0
-8 -4 -8 -15 1 -9 7 -15 8 -15 2z"/>
<path d="M795 3970 c-3 -5 -1 -10 4 -10 6 0 11 5 11 10 0 6 -2 10 -4 10 -3 0
-8 -4 -11 -10z"/>
<path d="M1691 3959 c12 -23 15 -23 22 -5 3 8 -2 16 -14 19 -16 4 -17 2 -8
-14z"/>
<path d="M3314 3969 c-3 -5 0 -9 6 -9 6 0 8 -4 5 -10 -3 -5 -1 -10 4 -10 6 0
11 5 11 10 0 25 19 6 23 -22 3 -30 4 -29 5 8 2 38 0 42 -23 42 -14 0 -28 -4
-31 -9z"/>
<path d="M3405 3939 c-4 -6 -5 -12 -2 -15 2 -3 7 2 10 11 7 17 1 20 -8 4z"/>
<path d="M1694 3906 c-9 -20 -9 -23 2 -19 8 3 14 14 14 24 0 25 -3 24 -16 -5z"/>
<path d="M3330 3900 c0 -11 4 -20 9 -20 5 0 7 9 4 20 -3 11 -7 20 -9 20 -2 0
-4 -9 -4 -20z"/>
<path d="M898 3903 c6 -2 9 -10 6 -15 -4 -7 -2 -8 5 -4 13 9 5 26 -12 25 -9 0
-8 -2 1 -6z"/>
<path d="M1385 3890 c-3 -5 -2 -10 4 -10 5 0 13 5 16 10 3 6 2 10 -4 10 -5 0
-13 -4 -16 -10z"/>
<path d="M1146 3882 c-3 -5 1 -9 9 -9 8 0 12 4 9 9 -3 4 -7 8 -9 8 -2 0 -6 -4
-9 -8z"/>
<path d="M3310 3860 c-9 -6 -10 -10 -3 -10 6 0 15 5 18 10 8 12 4 12 -15 0z"/>
<path d="M3238 3853 c7 -3 16 -2 19 1 4 3 -2 6 -13 5 -11 0 -14 -3 -6 -6z"/>
<path d="M1005 3810 c-3 -5 -2 -10 4 -10 5 0 13 5 16 10 3 6 2 10 -4 10 -5 0
-13 -4 -16 -10z"/>
<path d="M80 3715 c-11 -13 -10 -14 4 -9 9 3 16 10 16 15 0 13 -6 11 -20 -6z"/>
<path d="M126 3671 c-3 -5 1 -11 9 -14 9 -4 12 -1 8 9 -6 16 -10 17 -17 5z"/>
<path d="M200 3670 c-9 -6 -10 -10 -3 -10 6 0 15 5 18 10 8 12 4 12 -15 0z"/>
<path d="M1196 3643 c-6 -14 -5 -15 5 -6 7 7 10 15 7 18 -3 3 -9 -2 -12 -12z"/>
<path d="M380 3609 c0 -5 5 -7 10 -4 6 3 10 8 10 11 0 2 -4 4 -10 4 -5 0 -10
-5 -10 -11z"/>
<path d="M445 3610 c-8 -13 5 -13 25 0 13 8 13 10 -2 10 -9 0 -20 -4 -23 -10z"/>
<path d="M527 3583 c-4 -3 -7 -11 -7 -17 0 -6 5 -5 12 2 6 6 9 14 7 17 -3 3
-9 2 -12 -2z"/>
<path d="M570 3540 c-13 -8 -13 -10 2 -10 9 0 20 5 23 10 8 13 -5 13 -25 0z"/>
<path d="M625 3540 c-2 -3 12 -7 31 -8 19 -2 34 -1 34 2 0 7 -61 13 -65 6z"/>
<path d="M705 3531 c-3 -5 -2 -12 3 -15 5 -3 9 1 9 9 0 17 -3 19 -12 6z"/>
<path d="M735 3500 c-3 -5 -2 -10 4 -10 5 0 13 5 16 10 3 6 2 10 -4 10 -5 0
-13 -4 -16 -10z"/>
<path d="M810 3500 c-9 -6 -10 -10 -3 -10 6 0 15 5 18 10 8 12 4 12 -15 0z"/>
<path d="M1460 3500 c-9 -6 -10 -10 -3 -10 6 0 15 5 18 10 8 12 4 12 -15 0z"/>
<path d="M1973 3493 l-273 -3 0 -885 0 -885 845 0 845 0 0 888 0 889 -572 -1
c-315 0 -696 -1 -845 -3z m1397 -845 c-1 -453 -3 -842 -6 -865 l-6 -42 -819
-1 -819 0 0 865 0 865 825 0 825 0 0 -822z"/>
<path d="M2013 3053 c-10 -4 -13 -100 -13 -433 0 -332 3 -431 13 -437 22 -14
211 -3 223 13 8 10 35 14 102 14 99 0 122 10 122 56 0 57 -12 64 -115 64 l-95
0 0 45 0 44 62 3 c61 3 63 4 71 35 l10 32 90 0 c49 0 94 4 99 9 5 5 8 44 6 88
l-3 79 -68 3 c-80 3 -97 -6 -97 -54 l0 -34 -85 0 -85 0 0 40 0 40 48 0 c47 1
126 18 150 33 17 12 15 73 -4 92 -13 13 -34 16 -103 14 l-86 -2 -3 46 -3 45
100 4 c55 1 102 6 106 9 3 4 7 26 8 49 2 59 -16 70 -120 70 -70 0 -86 3 -103
20 -17 17 -33 20 -117 19 -54 0 -104 -3 -110 -6z m143 -23 c64 0 74 -2 74 -17
0 -16 11 -18 110 -15 l109 4 -1 -46 -1 -46 -103 0 -103 0 6 35 c4 23 2 35 -6
35 -8 0 -11 -43 -11 -141 0 -99 3 -138 11 -133 6 3 9 19 5 34 -7 35 -2 37 107
39 l87 2 0 -47 0 -47 -34 6 c-18 3 -38 1 -44 -5 -6 -6 -36 -9 -71 -6 l-61 4 0
-63 0 -63 105 0 105 0 0 45 0 45 65 0 65 0 0 -70 0 -70 -105 0 -105 0 0 -35 0
-35 -64 0 -65 0 -3 -95 c-2 -52 0 -95 5 -95 4 0 7 13 7 29 l0 30 100 3 100 3
0 -43 0 -44 -111 4 c-101 3 -110 2 -105 -14 4 -16 -5 -18 -84 -18 -49 0 -95
-3 -104 -6 -14 -6 -16 36 -16 421 l0 428 31 -7 c17 -3 65 -6 105 -6z"/>
<path d="M2054 2335 c-9 -23 3 -45 26 -45 16 0 20 7 20 30 0 23 -4 30 -20 30
-11 0 -23 -7 -26 -15z m36 -15 c0 -5 -5 -10 -11 -10 -5 0 -7 5 -4 10 3 6 8 10
11 10 2 0 4 -4 4 -10z"/>
<path d="M2822 3052 c-10 -7 -12 -101 -10 -438 l3 -429 120 0 120 0 7 40 c12
72 10 806 -3 821 -8 10 -39 14 -118 14 -58 0 -112 -4 -119 -8z m228 -214 c0
-112 -3 -301 -7 -420 l-6 -218 -104 0 -103 0 0 420 0 420 110 0 110 0 0 -202z"/>
<path d="M2862 2308 c2 -15 11 -24 26 -26 20 -3 23 0 20 20 -2 15 -11 24 -26
26 -20 3 -23 0 -20 -20z"/>
<path d="M835 3480 c-3 -5 -1 -10 4 -10 6 0 11 5 11 10 0 6 -2 10 -4 10 -3 0
-8 -4 -11 -10z"/>
<path d="M875 3480 c-8 -13 5 -13 25 0 13 8 13 10 -2 10 -9 0 -20 -4 -23 -10z"/>
<path d="M950 3449 c0 -5 5 -7 10 -4 6 3 10 8 10 11 0 2 -4 4 -10 4 -5 0 -10
-5 -10 -11z"/>
<path d="M1495 3440 c-2 -3 7 -6 21 -6 13 0 24 3 24 7 0 9 -40 8 -45 -1z"/>
<path d="M995 3430 c-3 -5 1 -10 9 -10 8 0 18 5 21 10 3 6 -1 10 -9 10 -8 0
-18 -4 -21 -10z"/>
<path d="M1525 3390 c-3 -5 -1 -10 4 -10 6 0 11 5 11 10 0 6 -2 10 -4 10 -3 0
-8 -4 -11 -10z"/>
<path d="M3421 3384 c0 -11 3 -14 6 -6 3 7 2 16 -1 19 -3 4 -6 -2 -5 -13z"/>
<path d="M1174 3375 c-18 -14 -18 -14 4 -8 12 3 22 9 22 14 0 12 -3 11 -26 -6z"/>
<path d="M1120 3369 c0 -5 5 -7 10 -4 6 3 10 8 10 11 0 2 -4 4 -10 4 -5 0 -10
-5 -10 -11z"/>
<path d="M1260 3350 c0 -5 5 -10 10 -10 6 0 10 5 10 10 0 6 -4 10 -10 10 -5 0
-10 -4 -10 -10z"/>
<path d="M1560 3350 c-13 -8 -13 -10 2 -10 9 0 20 5 23 10 8 13 -5 13 -25 0z"/>
<path d="M1595 3340 c-3 -6 1 -7 9 -4 18 7 21 14 7 14 -6 0 -13 -4 -16 -10z"/>
<path d="M1327 3319 c7 -7 15 -10 18 -7 3 3 -2 9 -12 12 -14 6 -15 5 -6 -5z"/>
<path d="M1630 3319 c0 -5 5 -7 10 -4 6 3 10 8 10 11 0 2 -4 4 -10 4 -5 0 -10
-5 -10 -11z"/>
<path d="M1402 3298 c5 -15 28 -23 28 -10 0 5 -7 13 -16 16 -10 4 -14 1 -12
-6z"/>
<path d="M3421 3284 c0 -11 3 -14 6 -6 3 7 2 16 -1 19 -3 4 -6 -2 -5 -13z"/>
<path d="M3422 3255 c4 -4 3 -16 -3 -26 -5 -11 -7 -19 -5 -19 3 0 10 9 16 19
7 15 7 22 -2 27 -7 4 -10 4 -6 -1z"/>
<path d="M1555 3240 c-3 -6 1 -7 9 -4 18 7 21 14 7 14 -6 0 -13 -4 -16 -10z"/>
<path d="M1475 3220 c-3 -6 1 -7 9 -4 18 7 21 14 7 14 -6 0 -13 -4 -16 -10z"/>
<path d="M3420 3190 c-6 -11 -7 -20 -2 -20 6 0 12 9 15 20 3 11 3 20 1 20 -2
0 -8 -9 -14 -20z"/>
<path d="M3416 3133 c-6 -14 -5 -15 5 -6 7 7 10 15 7 18 -3 3 -9 -2 -12 -12z"/>
<path d="M3420 3090 c0 -11 2 -20 4 -20 2 0 6 9 9 20 3 11 1 20 -4 20 -5 0 -9
-9 -9 -20z"/>
<path d="M120 3000 c-9 -6 -10 -10 -3 -10 6 0 15 5 18 10 8 12 4 12 -15 0z"/>
<path d="M1020 2953 c-14 -2 -32 -7 -40 -10 -8 -4 -18 -7 -22 -7 -7 -1 -52
-56 -46 -56 3 0 18 12 35 28 26 23 42 28 96 30 69 3 151 -13 142 -28 -3 -5 -1
-11 4 -14 5 -4 12 -2 16 3 7 12 -33 51 -54 52 -80 5 -110 6 -131 2z"/>
<path d="M3560 2935 c0 -9 6 -12 15 -9 8 4 12 10 9 15 -8 14 -24 10 -24 -6z"/>
<path d="M3415 2930 c-3 -5 -2 -10 4 -10 5 0 13 5 16 10 3 6 2 10 -4 10 -5 0
-13 -4 -16 -10z"/>
<path d="M3655 2920 c-3 -5 -1 -10 4 -10 6 0 11 5 11 10 0 6 -2 10 -4 10 -3 0
-8 -4 -11 -10z"/>
<path d="M3605 2909 c-4 -6 -5 -12 -2 -15 2 -3 7 2 10 11 7 17 1 20 -8 4z"/>
<path d="M3556 2896 c3 -9 11 -16 16 -16 13 0 5 23 -10 28 -7 2 -10 -2 -6 -12z"/>
<path d="M3681 2894 c0 -11 3 -14 6 -6 3 7 2 16 -1 19 -3 4 -6 -2 -5 -13z"/>
<path d="M883 2893 c-18 -6 -16 -23 2 -23 8 0 15 -8 15 -17 0 -14 3 -14 12 -5
9 9 10 15 2 20 -6 4 -13 12 -15 18 -2 6 -10 9 -16 7z"/>
<path d="M825 2850 c-8 -16 -15 -37 -14 -47 0 -14 3 -12 11 7 6 14 10 28 10
33 -1 4 2 7 7 7 5 0 11 7 15 15 10 27 -13 15 -29 -15z"/>
<path d="M947 2866 c-4 -10 0 -12 14 -9 10 3 16 9 13 14 -8 13 -21 11 -27 -5z"/>
<path d="M1060 2870 c-8 -5 -12 -12 -9 -15 4 -3 12 1 19 10 14 17 11 19 -10 5z"/>
<path d="M1215 2870 c-3 -5 -2 -10 4 -10 5 0 13 5 16 10 3 6 2 10 -4 10 -5 0
-13 -4 -16 -10z"/>
<path d="M3625 2870 c-3 -5 -1 -10 4 -10 6 0 11 5 11 10 0 6 -2 10 -4 10 -3 0
-8 -4 -11 -10z"/>
<path d="M1244 2859 c-3 -6 -2 -15 3 -20 5 -5 9 -1 10 11 2 22 -2 25 -13 9z"/>
<path d="M1090 2850 c-9 -6 -10 -10 -3 -10 6 0 15 5 18 10 8 12 4 12 -15 0z"/>
<path d="M3416 2854 c7 -3 10 -15 8 -27 -4 -21 -4 -21 5 -2 10 23 5 35 -12 34
-9 0 -9 -2 -1 -5z"/>
<path d="M3665 2851 c-3 -6 -11 -9 -16 -6 -5 4 -9 1 -9 -4 0 -13 10 -14 30 -1
8 5 12 12 8 15 -3 4 -9 1 -13 -4z"/>
<path d="M4398 2853 c-10 -2 -18 -9 -18 -14 0 -11 39 -2 55 12 9 9 -6 10 -37
2z"/>
<path d="M4453 2841 c0 -11 5 -17 9 -15 5 3 6 10 3 15 -4 5 1 9 9 9 8 0 17 -4
21 -9 3 -6 23 -9 44 -9 22 0 44 -3 49 -6 6 -3 13 -2 17 4 6 10 -11 13 -72 13
-18 0 -33 4 -33 8 0 5 -11 9 -24 9 -18 0 -24 -5 -23 -19z"/>
<path d="M852 2830 c-7 -11 -10 -20 -7 -20 3 0 15 9 27 20 16 14 18 20 7 20
-8 0 -20 -9 -27 -20z"/>
<path d="M1280 2830 c0 -5 4 -10 9 -10 6 0 13 5 16 10 3 6 -1 10 -9 10 -9 0
-16 -4 -16 -10z"/>
<path d="M1320 2821 c0 -17 18 -21 24 -6 3 9 0 15 -9 15 -8 0 -15 -4 -15 -9z"/>
<path d="M4335 2820 c4 -6 11 -8 16 -5 14 9 11 15 -7 15 -8 0 -12 -5 -9 -10z"/>
<path d="M4306 2803 c-6 -14 -5 -15 5 -6 7 7 10 15 7 18 -3 3 -9 -2 -12 -12z"/>
<path d="M775 2799 c-11 -17 1 -21 15 -4 8 9 8 15 2 15 -6 0 -14 -5 -17 -11z"/>
<path d="M4615 2799 c-9 -14 -2 -20 14 -10 8 6 9 11 3 15 -6 3 -14 1 -17 -5z"/>
<path d="M726 2774 c-10 -25 1 -29 14 -5 6 12 7 21 1 21 -5 0 -12 -7 -15 -16z"/>
<path d="M820 2775 c-7 -8 -8 -15 -2 -15 5 0 15 7 22 15 7 8 8 15 2 15 -5 0
-15 -7 -22 -15z"/>
<path d="M1141 2774 c0 -11 3 -14 6 -6 3 7 2 16 -1 19 -3 4 -6 -2 -5 -13z"/>
<path d="M1380 2768 c0 -19 2 -20 10 -8 13 19 13 30 0 30 -5 0 -10 -10 -10
-22z"/>
<path d="M4250 2764 c-22 -22 -23 -24 -6 -24 11 0 17 3 13 6 -3 4 4 15 16 25
12 10 18 18 12 18 -5 0 -21 -11 -35 -25z"/>
<path d="M4645 2781 c-3 -5 0 -13 6 -17 7 -4 9 -3 5 4 -3 5 0 13 6 15 9 4 10
6 1 6 -6 1 -14 -3 -18 -8z"/>
<path d="M109 2763 c-13 -16 -12 -17 4 -4 9 7 17 15 17 17 0 8 -8 3 -21 -13z"/>
<path d="M765 2761 c-7 -12 12 -24 25 -16 11 7 4 25 -10 25 -5 0 -11 -4 -15
-9z"/>
<path d="M724 2735 c-17 -13 -17 -14 -2 -15 9 0 20 5 23 11 11 17 0 20 -21 4z"/>
<path d="M1260 2741 c0 -7 -5 -9 -12 -5 -7 5 -8 3 -3 -5 5 -9 10 -10 18 -2 6
6 8 14 4 18 -4 3 -7 1 -7 -6z"/>
<path d="M1440 2740 c-12 -8 -11 -10 8 -10 12 0 22 5 22 10 0 13 -11 13 -30 0z"/>
<path d="M1505 2730 c-3 -5 -1 -10 4 -10 6 0 11 5 11 10 0 6 -2 10 -4 10 -3 0
-8 -4 -11 -10z"/>
<path d="M1194 2715 c-18 -14 -18 -14 4 -8 12 3 22 9 22 14 0 12 -3 11 -26 -6z"/>
<path d="M4712 2719 c2 -6 8 -10 13 -10 5 0 11 4 13 10 2 6 -4 11 -13 11 -9 0
-15 -5 -13 -11z"/>
<path d="M1290 2700 c0 -5 5 -10 10 -10 6 0 10 5 10 10 0 6 -4 10 -10 10 -5 0
-10 -4 -10 -10z"/>
<path d="M1324 2685 c-17 -13 -17 -14 -2 -15 9 0 20 5 23 11 11 17 0 20 -21 4z"/>
<path d="M1477 2693 c-4 -3 -7 -11 -7 -17 0 -6 5 -5 12 2 6 6 9 14 7 17 -3 3
-9 2 -12 -2z"/>
<path d="M1625 2690 c-3 -5 -1 -10 4 -10 6 0 11 5 11 10 0 6 -2 10 -4 10 -3 0
-8 -4 -11 -10z"/>
<path d="M4190 2690 c-8 -5 -12 -11 -10 -14 3 -2 14 2 24 10 22 15 10 19 -14
4z"/>
<path d="M3421 2664 c0 -11 3 -14 6 -6 3 7 2 16 -1 19 -3 4 -6 -2 -5 -13z"/>
<path d="M4761 2657 c-8 -10 -7 -14 4 -14 8 0 15 6 15 14 0 7 -2 13 -4 13 -2
0 -9 -6 -15 -13z"/>
<path d="M3421 2614 c0 -11 3 -14 6 -6 3 7 2 16 -1 19 -3 4 -6 -2 -5 -13z"/>
<path d="M4105 2610 c-3 -5 -2 -10 4 -10 5 0 13 5 16 10 3 6 2 10 -4 10 -5 0
-13 -4 -16 -10z"/>
<path d="M4804 2588 c3 -10 1 -20 -4 -23 -5 -3 -6 -13 -3 -22 5 -13 8 -12 15
6 5 14 4 29 -3 39 -10 16 -10 16 -5 0z"/>
<path d="M1560 2555 c-8 -9 -8 -15 -2 -15 12 0 26 19 19 26 -2 2 -10 -2 -17
-11z"/>
<path d="M1646 2562 c-3 -5 1 -9 9 -9 8 0 15 4 15 9 0 4 -4 8 -9 8 -6 0 -12
-4 -15 -8z"/>
<path d="M3966 2542 c-7 -12 7 -17 29 -12 6 2 22 2 37 1 15 -1 29 2 31 6 6 10
-54 10 -70 0 -6 -4 -13 -2 -15 5 -3 9 -6 9 -12 0z"/>
<path d="M4835 2520 c-3 -5 -1 -10 4 -10 6 0 11 5 11 10 0 6 -2 10 -4 10 -3 0
-8 -4 -11 -10z"/>
<path d="M4880 2519 c0 -5 5 -7 10 -4 6 3 10 8 10 11 0 2 -4 4 -10 4 -5 0 -10
-5 -10 -11z"/>
<path d="M4916 2522 c-6 -11 40 -9 50 1 4 4 -4 7 -19 7 -14 0 -28 -4 -31 -8z"/>
<path d="M3935 2510 c-3 -5 -1 -10 4 -10 6 0 11 5 11 10 0 6 -2 10 -4 10 -3 0
-8 -4 -11 -10z"/>
<path d="M846 2494 c-12 -31 3 -34 22 -4 10 16 10 20 -2 20 -8 0 -17 -7 -20
-16z"/>
<path d="M896 2495 c-6 -17 9 -21 20 -4 3 6 17 8 29 5 13 -3 27 -2 30 4 4 6
-9 10 -33 10 -26 0 -42 -5 -46 -15z"/>
<path d="M1000 2500 c9 -4 31 -5 50 0 34 8 33 8 -15 9 -34 0 -45 -3 -35 -9z"/>
<path d="M3788 2503 c-38 -6 -36 -21 2 -17 28 3 30 2 19 -17 -6 -12 -17 -18
-25 -15 -8 3 -14 -1 -14 -9 0 -8 -9 -19 -20 -25 -16 -9 -19 -8 -13 6 4 11 2
15 -4 11 -13 -8 -24 -47 -13 -47 4 0 24 11 44 25 21 14 41 23 45 21 3 -3 7 3
8 12 1 9 4 27 8 40 4 12 3 21 -1 21 -5 -1 -21 -4 -36 -6z"/>
<path d="M1260 2489 c0 -5 5 -7 10 -4 6 3 10 8 10 11 0 2 -4 4 -10 4 -5 0 -10
-5 -10 -11z"/>
<path d="M3727 2493 c-4 -3 -7 -16 -7 -27 1 -21 1 -21 15 -2 8 11 15 23 15 28
0 10 -14 11 -23 1z"/>
<path d="M5015 2480 c-3 -6 1 -7 9 -4 18 7 21 14 7 14 -6 0 -13 -4 -16 -10z"/>
<path d="M3895 2471 c-9 -16 9 -20 23 -5 10 12 10 14 -2 14 -8 0 -17 -4 -21
-9z"/>
<path d="M1030 2460 c-13 -8 -12 -10 3 -10 9 0 17 5 17 10 0 12 -1 12 -20 0z"/>
<path d="M1196 2455 c-11 -8 -15 -15 -9 -15 6 0 16 7 23 15 16 19 11 19 -14 0z"/>
<path d="M1145 2450 c-3 -5 -2 -10 4 -10 5 0 13 5 16 10 3 6 2 10 -4 10 -5 0
-13 -4 -16 -10z"/>
<path d="M1265 2450 c-3 -5 -2 -10 4 -10 5 0 13 5 16 10 3 6 2 10 -4 10 -5 0
-13 -4 -16 -10z"/>
<path d="M1375 2440 c-3 -5 -1 -10 4 -10 6 0 11 5 11 10 0 6 -2 10 -4 10 -3 0
-8 -4 -11 -10z"/>
<path d="M3870 2440 c0 -5 5 -10 10 -10 6 0 10 5 10 10 0 6 -4 10 -10 10 -5 0
-10 -4 -10 -10z"/>
<path d="M3820 2409 c-6 -11 -10 -27 -8 -35 2 -8 8 1 14 20 12 40 10 46 -6 15z"/>
<path d="M4940 2420 c-13 -8 -12 -10 3 -10 9 0 17 5 17 10 0 12 -1 12 -20 0z"/>
<path d="M5079 2403 c-13 -16 -12 -17 4 -4 9 7 17 15 17 17 0 8 -8 3 -21 -13z"/>
<path d="M4963 2395 c-9 -10 -6 -12 13 -12 13 0 27 4 31 10 4 6 0 8 -10 4 -9
-3 -17 -2 -19 3 -2 4 -8 2 -15 -5z"/>
<path d="M3422 2375 c4 -4 3 -14 -3 -22 -7 -8 -8 -13 -1 -13 15 0 23 28 9 36
-7 4 -9 4 -5 -1z"/>
<path d="M4486 2362 c-2 -4 -1 -14 4 -22 7 -11 9 -9 7 8 -1 24 -3 26 -11 14z"/>
<path d="M4730 2355 c-7 -9 -11 -18 -8 -20 3 -3 11 1 18 10 7 9 11 18 8 20 -3
3 -11 -1 -18 -10z"/>
<path d="M4802 2358 c2 -7 -5 -12 -14 -12 -10 1 -14 -4 -11 -12 4 -10 10 -11
24 -3 21 11 24 24 9 34 -6 4 -9 1 -8 -7z"/>
<path d="M4260 2339 c0 -5 5 -7 10 -4 6 3 10 8 10 11 0 2 -4 4 -10 4 -5 0 -10
-5 -10 -11z"/>
<path d="M3810 2319 c0 -5 5 -7 10 -4 6 3 10 8 10 11 0 2 -4 4 -10 4 -5 0 -10
-5 -10 -11z"/>
<path d="M4160 2319 c0 -5 5 -7 10 -4 6 3 10 8 10 11 0 2 -4 4 -10 4 -5 0 -10
-5 -10 -11z"/>
<path d="M3840 2290 c-8 -5 -12 -12 -9 -15 4 -3 12 1 19 10 14 17 11 19 -10 5z"/>
<path d="M4622 2265 c-11 -12 -10 -15 3 -15 8 0 15 7 15 15 0 18 -2 18 -18 0z"/>
<path d="M4568 2243 c7 -3 16 -2 19 1 4 3 -2 6 -13 5 -11 0 -14 -3 -6 -6z"/>
<path d="M4161 2214 c0 -11 3 -14 6 -6 3 7 2 16 -1 19 -3 4 -6 -2 -5 -13z"/>
<path d="M3417 2200 c-3 -11 -1 -20 4 -20 5 0 9 9 9 20 0 11 -2 20 -4 20 -2 0
-6 -9 -9 -20z"/>
<path d="M3905 2200 c-3 -5 -2 -10 4 -10 5 0 13 5 16 10 3 6 2 10 -4 10 -5 0
-13 -4 -16 -10z"/>
<path d="M3994 2178 c-3 -4 2 -8 10 -8 8 0 17 4 20 8 3 5 -2 9 -10 9 -8 0 -17
-4 -20 -9z"/>
<path d="M4140 2180 c-9 -6 -10 -10 -3 -10 6 0 15 5 18 10 8 12 4 12 -15 0z"/>
<path d="M3420 2070 c0 -5 5 -10 11 -10 5 0 7 5 4 10 -3 6 -8 10 -11 10 -2 0
-4 -4 -4 -10z"/>
<path d="M3417 1985 c-4 -8 -2 -17 2 -20 5 -2 11 4 14 15 6 23 -8 27 -16 5z"/>
<path d="M3505 1940 c-3 -6 1 -7 9 -4 18 7 21 14 7 14 -6 0 -13 -4 -16 -10z"/>
<path d="M4080 1908 c0 -4 4 -8 9 -8 6 0 12 4 15 8 3 5 -1 9 -9 9 -8 0 -15 -4
-15 -9z"/>
<path d="M3700 1899 c0 -5 5 -7 10 -4 6 3 10 8 10 11 0 2 -4 4 -10 4 -5 0 -10
-5 -10 -11z"/>
<path d="M3770 1899 c0 -5 5 -7 10 -4 6 3 10 8 10 11 0 2 -4 4 -10 4 -5 0 -10
-5 -10 -11z"/>
<path d="M3815 1900 c-3 -5 -1 -10 4 -10 6 0 11 5 11 10 0 6 -2 10 -4 10 -3 0
-8 -4 -11 -10z"/>
<path d="M3880 1889 c0 -5 5 -7 10 -4 6 3 10 8 10 11 0 2 -4 4 -10 4 -5 0 -10
-5 -10 -11z"/>
<path d="M3420 1830 c0 -5 5 -10 11 -10 5 0 7 5 4 10 -3 6 -8 10 -11 10 -2 0
-4 -4 -4 -10z"/>
<path d="M2110 1690 c-12 -8 -10 -10 8 -10 13 0 20 4 17 10 -7 12 -6 12 -25 0z"/>
<path d="M2721 1691 c-7 -5 -9 -11 -4 -14 5 -3 15 -2 22 2 7 5 9 11 4 14 -5 3
-15 2 -22 -2z"/>
<path d="M2760 1688 c0 -5 29 -8 65 -8 36 0 65 3 65 8 0 4 -29 7 -65 7 -36 0
-65 -3 -65 -7z"/>
<path d="M3366 1688 c3 -5 10 -6 15 -3 13 9 11 12 -6 12 -8 0 -12 -4 -9 -9z"/>
<path d="M3630 1689 c0 -5 5 -7 10 -4 6 3 10 8 10 11 0 2 -4 4 -10 4 -5 0 -10
-5 -10 -11z"/>
<path d="M1716 1673 c-6 -14 -5 -15 5 -6 7 7 10 15 7 18 -3 3 -9 -2 -12 -12z"/>
<path d="M1780 1680 c0 -5 7 -7 15 -4 8 4 15 8 15 10 0 2 -7 4 -15 4 -8 0 -15
-4 -15 -10z"/>
<path d="M1833 1683 c7 -7 129 -5 136 3 2 2 -29 4 -69 4 -40 0 -70 -3 -67 -7z"/>
<path d="M1988 1683 c7 -3 16 -2 19 1 4 3 -2 6 -13 5 -11 0 -14 -3 -6 -6z"/>
<path d="M2178 1683 c18 -2 45 -2 60 0 15 2 0 4 -33 4 -33 0 -45 -2 -27 -4z"/>
<path d="M2298 1683 c18 -2 45 -2 60 0 15 2 0 4 -33 4 -33 0 -45 -2 -27 -4z"/>
<path d="M2398 1683 c7 -3 16 -2 19 1 4 3 -2 6 -13 5 -11 0 -14 -3 -6 -6z"/>
<path d="M2433 1684 c7 -8 87 -7 95 0 3 3 -19 6 -48 6 -29 0 -51 -3 -47 -6z"/>
<path d="M2548 1683 c7 -3 16 -2 19 1 4 3 -2 6 -13 5 -11 0 -14 -3 -6 -6z"/>
<path d="M2608 1683 c17 -2 47 -2 65 0 17 2 3 4 -33 4 -36 0 -50 -2 -32 -4z"/>
<path d="M2908 1683 c6 -2 18 -2 25 0 6 3 1 5 -13 5 -14 0 -19 -2 -12 -5z"/>
<path d="M2958 1683 c7 -3 16 -2 19 1 4 3 -2 6 -13 5 -11 0 -14 -3 -6 -6z"/>
<path d="M3028 1683 c6 -2 18 -2 25 0 6 3 1 5 -13 5 -14 0 -19 -2 -12 -5z"/>
<path d="M3078 1683 c7 -3 16 -2 19 1 4 3 -2 6 -13 5 -11 0 -14 -3 -6 -6z"/>
<path d="M3118 1683 c7 -3 16 -2 19 1 4 3 -2 6 -13 5 -11 0 -14 -3 -6 -6z"/>
<path d="M3156 1682 c-3 -5 8 -6 25 -4 16 2 29 6 29 8 0 8 -49 4 -54 -4z"/>
<path d="M3220 1681 c0 -5 9 -7 20 -4 11 3 20 7 20 9 0 2 -9 4 -20 4 -11 0
-20 -4 -20 -9z"/>
<path d="M3283 1683 c9 -2 25 -2 35 0 9 3 1 5 -18 5 -19 0 -27 -2 -17 -5z"/>
<path d="M4436 1628 c3 -5 10 -6 15 -3 13 9 11 12 -6 12 -8 0 -12 -4 -9 -9z"/>
<path d="M1639 1593 c-13 -16 -12 -17 4 -4 9 7 17 15 17 17 0 8 -8 3 -21 -13z"/>
<path d="M1379 1543 c-13 -16 -12 -17 4 -4 9 7 17 15 17 17 0 8 -8 3 -21 -13z"/>
<path d="M3040 1530 c-9 -6 -10 -10 -3 -10 6 0 15 5 18 10 8 12 4 12 -15 0z"/>
<path d="M2115 1470 c-11 -4 -47 -6 -80 -4 -80 5 -115 -3 -115 -26 0 -10 -5
-22 -10 -25 -6 -4 -7 -11 -4 -17 4 -6 7 -152 6 -324 0 -182 4 -314 9 -314 5 0
9 145 9 345 l0 346 603 -6 c378 -4 613 -2 632 4 37 12 15 12 -575 13 -239 1
-439 4 -445 8 -5 4 -19 4 -30 0z"/>
<path d="M3174 1405 c-5 -30 1 -623 7 -645 0 -3 4 6 8 20 8 28 6 648 -2 657
-3 3 -9 -12 -13 -32z"/>
<path d="M2025 759 c-26 -6 -24 -7 18 -8 27 0 46 -5 43 -10 -4 -5 5 -4 19 2
14 7 25 15 25 19 0 8 -65 7 -105 -3z"/>
<path d="M2140 758 c0 -6 7 -8 15 -4 8 3 15 2 15 -3 0 -10 48 -2 55 9 3 5 -15
8 -40 8 -25 0 -45 -4 -45 -10z"/>
<path d="M2245 760 c-3 -5 3 -10 14 -10 12 0 21 5 21 10 0 6 -6 10 -14 10 -8
0 -18 -4 -21 -10z"/>
<path d="M2290 759 c0 -5 9 -9 20 -10 83 -3 115 0 117 8 3 7 -23 11 -67 11
-38 1 -70 -3 -70 -9z"/>
<path d="M2444 761 c-13 -13 3 -17 69 -15 39 2 75 3 80 3 4 1 7 5 7 10 0 8
-147 10 -156 2z"/>
<path d="M2610 757 c0 -9 11 -12 35 -9 19 2 35 8 35 13 0 5 -16 9 -35 9 -22 0
-35 -5 -35 -13z"/>
<path d="M2695 760 c5 -9 134 -3 144 6 2 2 -30 4 -73 4 -48 0 -75 -4 -71 -10z"/>
<path d="M2868 763 c7 -3 16 -2 19 1 4 3 -2 6 -13 5 -11 0 -14 -3 -6 -6z"/>
<path d="M2910 754 c0 -8 6 -11 15 -8 8 4 15 9 15 13 0 4 -7 8 -15 8 -8 0 -15
-6 -15 -13z"/>
<path d="M2960 756 c10 -10 120 -9 153 0 15 5 17 -2 17 -57 0 -74 9 -75 11 -1
2 36 6 52 16 52 7 0 13 5 13 10 0 7 -40 9 -109 8 -68 -2 -106 -7 -101 -12z"/>
<path d="M1948 753 c7 -3 16 -2 19 1 4 3 -2 6 -13 5 -11 0 -14 -3 -6 -6z"/>
<path d="M4899 733 c-13 -16 -12 -17 4 -4 9 7 17 15 17 17 0 8 -8 3 -21 -13z"/>
<path d="M479 403 c-13 -16 -12 -17 4 -4 16 13 21 21 13 21 -2 0 -10 -8 -17
-17z"/>
<path d="M1909 263 c-13 -16 -12 -17 4 -4 16 13 21 21 13 21 -2 0 -10 -8 -17
-17z"/>
</g>
</svg>
