<?xml version="1.0" standalone="no"?>
<!DOCTYPE svg PUBLIC "-//W3C//DTD SVG 20010904//EN"
 "http://www.w3.org/TR/2001/REC-SVG-20010904/DTD/svg10.dtd">
<svg version="1.0" xmlns="http://www.w3.org/2000/svg"
 width="512.000000pt" height="768.000000pt" viewBox="0 0 512.000000 768.000000"
 preserveAspectRatio="xMidYMid meet">
<metadata>
Created by potrace 1.16, written by Peter Selinger 2001-2019
</metadata>
<g transform="translate(0.000000,768.000000) scale(0.100000,-0.100000)"
fill="#000000" stroke="none">
<path d="M3241 7454 c0 -11 3 -14 6 -6 3 7 2 16 -1 19 -3 4 -6 -2 -5 -13z"/>
<path d="M3840 7080 c-9 -6 -10 -10 -3 -10 6 0 15 5 18 10 8 12 4 12 -15 0z"/>
<path d="M3368 7043 c7 -3 16 -2 19 1 4 3 -2 6 -13 5 -11 0 -14 -3 -6 -6z"/>
<path d="M3435 7030 c-3 -6 1 -7 9 -4 18 7 21 14 7 14 -6 0 -13 -4 -16 -10z"/>
<path d="M3470 7020 c0 -6 -4 -8 -10 -5 -6 3 -7 -1 -4 -10 4 -9 9 -12 13 -8 3
4 10 11 15 14 4 4 3 10 -3 13 -6 4 -11 2 -11 -4z"/>
<path d="M3835 7010 c3 -5 8 -10 11 -10 2 0 4 5 4 10 0 6 -5 10 -11 10 -5 0
-7 -4 -4 -10z"/>
<path d="M2944 6881 c0 -15 3 -17 13 -9 7 6 10 14 7 19 -9 15 -20 10 -20 -10z"/>
<path d="M2910 6869 c0 -5 5 -7 10 -4 6 3 10 8 10 11 0 2 -4 4 -10 4 -5 0 -10
-5 -10 -11z"/>
<path d="M3205 6809 c-4 -6 -5 -12 -2 -15 2 -3 7 2 10 11 7 17 1 20 -8 4z"/>
<path d="M3791 6714 c6 -7 16 -11 21 -8 11 7 3 17 -18 20 -12 2 -13 -1 -3 -12z"/>
<path d="M3800 6670 c0 -5 5 -10 11 -10 5 0 7 5 4 10 -3 6 -8 10 -11 10 -2 0
-4 -4 -4 -10z"/>
<path d="M2880 6560 c-8 -26 -7 -41 2 -32 6 6 8 16 5 24 -3 7 -6 11 -7 8z"/>
<path d="M3455 6550 c-3 -5 3 -10 14 -10 12 0 21 5 21 10 0 6 -6 10 -14 10 -8
0 -18 -4 -21 -10z"/>
<path d="M3245 6460 c3 -5 8 -10 11 -10 2 0 4 5 4 10 0 6 -5 10 -11 10 -5 0
-7 -4 -4 -10z"/>
<path d="M2830 6445 c-10 -12 -10 -15 4 -15 9 0 16 7 16 15 0 8 -2 15 -4 15
-2 0 -9 -7 -16 -15z"/>
<path d="M3785 6439 c-4 -6 -5 -12 -2 -15 2 -3 7 2 10 11 7 17 1 20 -8 4z"/>
<path d="M3239 6393 c-1 -21 -2 -69 -3 -108 0 -38 -4 -75 -8 -81 -4 -6 -4 -14
-1 -18 11 -10 11 -50 1 -63 -5 -7 -5 -14 2 -18 5 -3 10 -22 10 -41 0 -21 -4
-33 -10 -29 -5 3 -10 2 -10 -4 0 -5 6 -11 13 -14 9 -3 8 -8 -3 -22 -8 -10 -10
-16 -4 -12 15 9 15 -185 0 -195 -6 -4 14 -7 44 -6 30 0 44 3 30 5 -27 5 -52
23 -32 23 8 0 9 7 2 24 -5 13 -6 27 -3 30 4 3 5 30 4 59 -1 28 -3 134 -4 235
-1 100 -5 182 -10 182 -4 0 -3 9 3 19 6 12 6 22 1 25 -5 3 -7 15 -4 26 3 11 0
20 -6 20 -6 0 -11 -17 -12 -37z"/>
<path d="M2835 6410 c3 -5 8 -10 11 -10 2 0 4 5 4 10 0 6 -5 10 -11 10 -5 0
-7 -4 -4 -10z"/>
<path d="M3780 6400 c0 -5 5 -10 10 -10 6 0 10 5 10 10 0 6 -4 10 -10 10 -5 0
-10 -4 -10 -10z"/>
<path d="M3795 6370 c-3 -5 -1 -10 4 -10 6 0 11 5 11 10 0 6 -2 10 -4 10 -3 0
-8 -4 -11 -10z"/>
<path d="M3530 6160 c0 -5 5 -10 10 -10 6 0 10 5 10 10 0 6 -4 10 -10 10 -5 0
-10 -4 -10 -10z"/>
<path d="M3797 6163 c-9 -2 -15 -9 -12 -14 10 -15 32 -10 32 6 0 8 -1 14 -1
14 -1 -1 -9 -3 -19 -6z"/>
<path d="M3500 6136 c0 -9 40 -13 46 -5 3 5 -6 9 -20 9 -14 0 -26 -2 -26 -4z"/>
<path d="M3810 6110 c0 -5 5 -10 11 -10 5 0 7 5 4 10 -3 6 -8 10 -11 10 -2 0
-4 -4 -4 -10z"/>
<path d="M2770 6102 c0 -7 -4 -10 -10 -7 -5 3 -10 0 -10 -7 0 -8 -3 -9 -8 -3
-6 10 -20 11 -39 5 -5 -1 -11 -2 -15 -1 -12 2 -10 -17 2 -24 6 -3 10 -1 10 4
0 15 30 14 36 -2 8 -21 52 -19 64 2 13 25 13 34 -1 25 -6 -3 -15 0 -20 7 -7
11 -9 11 -9 1z m2 -34 c-7 -7 -12 -8 -12 -2 0 14 12 26 19 19 2 -3 -1 -11 -7
-17z"/>
<path d="M2620 6090 c-13 -8 -12 -10 3 -10 9 0 20 0 24 -1 4 0 9 4 11 10 5 14
-18 14 -38 1z"/>
<path d="M2538 6083 c12 -2 32 -2 45 0 12 2 2 4 -23 4 -25 0 -35 -2 -22 -4z"/>
<path d="M1350 5990 c0 -5 9 -10 21 -10 11 0 17 5 14 10 -3 6 -13 10 -21 10
-8 0 -14 -4 -14 -10z"/>
<path d="M2360 5934 c0 -8 5 -12 10 -9 6 4 8 11 5 16 -9 14 -15 11 -15 -7z"/>
<path d="M805 5890 c-3 -5 -1 -10 4 -10 6 0 11 5 11 10 0 6 -2 10 -4 10 -3 0
-8 -4 -11 -10z"/>
<path d="M2347 5869 c7 -7 15 -10 18 -7 3 3 -2 9 -12 12 -14 6 -15 5 -6 -5z"/>
<path d="M1638 5843 c7 -3 16 -2 19 1 4 3 -2 6 -13 5 -11 0 -14 -3 -6 -6z"/>
<path d="M2352 5824 c-1 -14 2 -23 8 -19 12 7 14 45 2 45 -4 0 -9 -11 -10 -26z"/>
<path d="M787 5815 c3 -8 9 -12 14 -9 12 7 11 11 -5 17 -10 4 -13 1 -9 -8z"/>
<path d="M1600 5819 c0 -5 5 -7 10 -4 6 3 10 8 10 11 0 2 -4 4 -10 4 -5 0 -10
-5 -10 -11z"/>
<path d="M1645 5810 c3 -5 8 -10 11 -10 2 0 4 5 4 10 0 6 -5 10 -11 10 -5 0
-7 -4 -4 -10z"/>
<path d="M0 5723 l0 -23 478 -1 c632 -1 831 -4 838 -12 4 -3 15 -2 25 4 12 6
19 6 19 0 0 -5 16 -9 35 -8 19 1 35 5 35 8 0 8 32 5 47 -4 6 -4 15 -2 18 3 5
8 89 9 273 6 266 -6 689 -7 727 -3 20 2 20 -4 21 -443 0 -279 5 -454 11 -470
7 -18 7 -35 -2 -60 -10 -27 -12 -184 -9 -680 3 -355 5 -763 6 -906 1 -199 4
-266 14 -279 13 -18 14 -18 34 0 20 18 20 25 17 929 -1 501 -5 920 -7 931 -3
11 0 20 7 20 6 0 14 3 18 7 4 4 13 1 21 -6 11 -12 218 -14 1201 -13 653 0
1211 3 1238 6 48 6 50 7 53 39 l3 34 -1268 -2 c-697 -1 -1272 -1 -1277 -1 -5
1 -3 7 3 15 14 16 14 745 1 819 -10 50 9 71 49 55 22 -8 2073 -5 2386 4 l100
3 3 28 3 29 -2560 -4 -2561 -3 0 -22z"/>
<path d="M3310 5646 c0 -2 7 -7 16 -10 8 -3 12 -2 9 4 -6 10 -25 14 -25 6z"/>
<path d="M610 5636 c0 -2 7 -7 16 -10 8 -3 12 -2 9 4 -6 10 -25 14 -25 6z"/>
<path d="M2448 5633 c7 -3 16 -2 19 1 4 3 -2 6 -13 5 -11 0 -14 -3 -6 -6z"/>
<path d="M107 4792 l-108 -3 3 -33 c2 -31 4 -33 27 -27 15 4 37 5 51 3 14 -3
99 -4 190 -3 91 0 217 1 280 0 1387 -6 1891 -5 1922 3 41 10 52 39 21 54 -17
7 -2138 13 -2386 6z"/>
<path d="M2910 4686 c0 -2 7 -7 16 -10 8 -3 12 -2 9 4 -6 10 -25 14 -25 6z"/>
<path d="M970 4165 c-7 -14 -10 -28 -7 -32 4 -3 7 -1 7 6 0 7 5 9 12 5 7 -4 8
-3 4 5 -4 7 2 15 16 20 28 10 46 5 53 -18 3 -10 12 -18 20 -18 11 0 12 5 3 21
-15 29 -28 36 -64 36 -23 0 -34 -7 -44 -25z"/>
<path d="M956 4111 c-5 -7 -1 -18 10 -26 23 -18 44 -20 22 -2 -9 6 -18 19 -20
27 -3 11 -6 11 -12 1z"/>
<path d="M1055 4080 c-3 -5 1 -10 10 -10 9 0 13 5 10 10 -3 6 -8 10 -10 10 -2
0 -7 -4 -10 -10z"/>
<path d="M1020 4050 c-12 -8 -9 -10 13 -10 15 0 27 5 27 10 0 13 -20 13 -40 0z"/>
<path d="M3815 3638 c-37 -21 -58 -71 -42 -103 27 -53 107 -74 140 -37 25 27
23 106 -3 132 -22 22 -64 26 -95 8z m63 -30 c16 -16 15 -59 -2 -81 -15 -19
-41 -14 -50 9 -3 9 -10 12 -16 9 -15 -9 -11 27 5 49 8 11 15 18 16 15 1 -2 2
-17 4 -34 4 -49 4 -50 14 -39 13 12 17 56 8 72 -10 15 5 16 21 0z"/>
<path d="M4836 3628 c-26 -37 -20 -89 14 -122 27 -27 32 -28 85 -21 49 6 59
11 76 38 20 34 26 87 8 87 -5 0 -8 -4 -5 -9 4 -5 2 -20 -3 -33 -9 -22 -10 -22
-12 7 -1 17 -1 35 0 40 1 16 -58 35 -107 35 -31 0 -45 -5 -56 -22z m50 -95
c-3 -8 -10 -11 -16 -8 -14 9 -13 62 3 88 11 20 12 19 15 -22 2 -24 1 -50 -2
-58z m70 51 c-3 -9 -6 -20 -6 -25 0 -21 -15 -7 -16 16 -1 16 3 25 13 25 10 0
13 -6 9 -16z"/>
<path d="M3050 3620 c0 -23 15 -27 23 -6 3 8 -1 17 -9 20 -9 4 -14 -1 -14 -14z"/>
<path d="M4001 3623 c-15 -12 -23 -34 -27 -68 -7 -59 4 -74 64 -82 32 -4 44
-1 65 20 38 34 38 97 1 126 -33 26 -75 27 -103 4z m71 -27 c19 -14 30 -57 19
-74 -3 -6 -19 -14 -35 -18 -21 -5 -27 -4 -22 4 5 8 2 10 -8 6 -22 -9 -22 53 1
78 19 21 23 22 45 4z"/>
<path d="M4176 3618 c-23 -32 -20 -91 4 -113 20 -19 100 -38 100 -24 0 4 -16
13 -35 20 -19 7 -35 19 -35 26 0 7 -7 13 -15 13 -12 0 -14 7 -9 28 10 40 21
50 58 50 l33 0 -10 -39 c-7 -31 -6 -44 7 -64 9 -14 21 -23 26 -20 6 4 10 1 10
-4 0 -6 20 -11 44 -11 24 0 64 -9 90 -21 50 -22 71 -20 104 12 30 27 31 108 2
134 -19 18 -29 9 -11 -10 14 -15 25 -59 13 -51 -6 4 -9 -5 -6 -24 4 -23 1 -30
-10 -30 -9 0 -16 -4 -16 -9 0 -17 -33 -21 -61 -9 -16 7 -29 17 -29 21 0 5 4 6
9 3 4 -3 26 2 49 10 38 15 40 18 39 56 -1 22 -8 43 -17 48 -13 9 -13 10 0 10
13 0 13 1 0 10 -22 14 -193 13 -208 -2 -9 -9 -15 -9 -24 0 -21 21 -85 15 -102
-10z m246 -34 c-5 -25 -14 -40 -26 -42 -15 -3 -17 2 -12 28 4 26 34 65 44 56
1 -2 -1 -21 -6 -42z m-72 -8 c0 -19 -3 -41 -6 -50 -7 -17 -44 -22 -44 -6 0 6
5 10 10 10 6 0 10 11 10 24 0 13 3 31 6 40 11 28 24 17 24 -18z m120 -41 c0
-8 -4 -15 -10 -15 -5 0 -7 7 -4 15 4 8 8 15 10 15 2 0 4 -7 4 -15z"/>
<path d="M4623 3624 c-19 -14 -23 -26 -23 -69 0 -59 11 -73 62 -81 48 -8 78
23 78 79 0 23 -7 50 -14 60 -19 25 -76 31 -103 11z m66 -33 c6 -10 8 -21 5
-23 -3 -3 2 -8 10 -11 11 -4 13 -1 10 11 -5 16 -5 16 5 0 17 -26 3 -46 -39
-53 -46 -8 -62 -1 -53 22 4 11 3 14 -5 9 -7 -4 -12 -2 -12 3 0 6 5 11 10 11 6
0 10 10 11 23 0 12 3 16 6 10 7 -18 23 -16 23 2 0 21 17 19 29 -4z"/>
<path d="M5071 3603 c-15 -53 -14 -67 8 -91 32 -38 40 -27 39 53 -1 64 -4 75
-19 75 -12 0 -21 -12 -28 -37z"/>
<path d="M2987 3616 c-23 -17 -32 -57 -11 -49 8 3 14 11 14 19 0 8 9 14 20 14
11 0 20 4 20 10 0 5 -7 6 -17 3 -11 -4 -14 -3 -9 5 9 15 5 15 -17 -2z"/>
<path d="M3081 3588 c0 -13 3 -17 6 -10 2 6 11 12 19 12 9 0 12 5 9 10 -12 19
-35 10 -34 -12z"/>
<path d="M3490 3580 c0 -5 5 -10 10 -10 6 0 10 5 10 10 0 6 -4 10 -10 10 -5 0
-10 -4 -10 -10z"/>
<path d="M3335 3561 c-40 -25 -68 -57 -60 -70 12 -20 30 -11 45 22 12 26 20
31 43 29 15 -1 27 2 27 7 0 13 29 2 49 -18 25 -25 13 -91 -15 -91 -8 0 -12 5
-9 10 3 6 1 10 -4 10 -15 0 -14 -15 3 -29 11 -9 23 -8 55 5 22 9 38 21 35 26
-4 6 -10 6 -17 -1 -18 -18 -22 -13 -21 31 2 57 -2 65 -38 77 -43 15 -58 14
-93 -8z"/>
<path d="M4211 3564 c0 -11 3 -14 6 -6 3 7 2 16 -1 19 -3 4 -6 -2 -5 -13z"/>
<path d="M3100 3562 c0 -7 -4 -11 -8 -8 -10 6 -9 -30 0 -40 11 -11 27 31 17
47 -6 10 -9 11 -9 1z"/>
<path d="M1307 3533 c-47 -53 -17 -123 53 -123 45 0 70 26 70 72 0 58 -85 93
-123 51z m87 -39 c7 -18 -14 -54 -32 -54 -7 0 -20 6 -28 14 -16 16 -19 40 -4
31 5 -3 7 0 4 9 -3 9 2 16 13 18 24 6 40 -1 47 -18z"/>
<path d="M2960 3541 c0 -6 5 -13 10 -16 6 -3 10 1 10 9 0 9 -4 16 -10 16 -5 0
-10 -4 -10 -9z"/>
<path d="M3520 3534 c0 -8 5 -12 10 -9 6 4 8 11 5 16 -9 14 -15 11 -15 -7z"/>
<path d="M2997 3533 c-10 -10 -8 -33 2 -33 6 0 9 9 8 20 -1 23 -1 22 -10 13z"/>
<path d="M3526 3495 c-3 -8 -1 -15 4 -15 6 0 10 7 10 15 0 8 -2 15 -4 15 -2 0
-6 -7 -10 -15z"/>
<path d="M3400 3491 c0 -6 4 -13 10 -16 6 -3 7 1 4 9 -7 18 -14 21 -14 7z"/>
<path d="M102 3478 c-6 -6 -30 -12 -52 -12 l-41 -1 -3 -67 c-1 -50 2 -69 12
-73 23 -9 80 -6 87 5 3 6 17 7 31 4 15 -4 34 0 50 11 24 15 26 21 21 68 -3 33
-11 55 -23 64 -22 16 -66 17 -82 1z m32 -29 c13 11 17 9 26 -14 15 -41 12 -55
-16 -65 -14 -6 -26 -10 -27 -10 -1 0 -3 11 -3 25 -1 14 -5 38 -8 53 -5 19 -4
23 3 13 8 -12 12 -12 25 -2z m-51 -74 c-7 -31 -21 -41 -36 -25 -9 9 -9 11 -1
7 7 -4 14 -1 16 6 7 17 -2 38 -13 31 -11 -6 -12 7 -2 32 6 16 8 15 23 -4 11
-13 15 -31 13 -47z"/>
<path d="M137 3405 c-4 -8 -2 -17 3 -20 6 -4 10 3 10 14 0 25 -6 27 -13 6z"/>
<path d="M636 3466 c-51 -50 -23 -136 43 -136 92 0 100 134 9 156 -21 4 -33 0
-52 -20z m68 -27 c-3 -6 0 -15 7 -20 12 -7 12 -9 0 -9 -8 0 -11 -6 -7 -15 8
-22 -20 -30 -39 -12 -19 20 -19 36 0 43 8 4 12 10 9 15 -3 5 4 9 16 9 13 0 19
-4 14 -11z"/>
<path d="M3158 3463 c7 -3 16 -2 19 1 4 3 -2 6 -13 5 -11 0 -14 -3 -6 -6z"/>
<path d="M3310 3455 c-14 -8 -32 -14 -41 -15 -24 0 -49 -33 -55 -71 -7 -44 24
-86 70 -95 44 -8 71 8 96 56 30 59 26 79 -25 122 -18 14 -23 15 -45 3z m58
-49 c8 -18 6 -31 -12 -62 -20 -35 -26 -39 -56 -36 -41 3 -38 0 -45 40 -3 20
-1 32 6 32 6 0 9 7 5 15 -5 14 9 20 40 16 7 -1 14 5 17 14 8 20 32 10 45 -19z"/>
<path d="M2063 3435 c0 -8 4 -12 9 -9 5 3 6 10 3 15 -9 13 -12 11 -12 -6z"/>
<path d="M447 3429 c-21 -12 -22 -25 -1 -33 8 -3 13 -2 10 2 -3 5 1 9 9 9 8 0
11 -5 8 -10 -3 -5 0 -8 7 -5 22 7 23 26 3 36 -12 7 -25 7 -36 1z"/>
<path d="M250 3421 c0 -6 4 -13 10 -16 6 -3 7 1 4 9 -7 18 -14 21 -14 7z"/>
<path d="M1917 3406 c-17 -18 -27 -22 -38 -15 -32 20 -119 1 -154 -35 -23 -22
-19 -73 6 -86 11 -7 23 -9 26 -6 3 3 12 -1 20 -9 20 -20 92 -19 115 2 12 11
37 17 69 17 65 1 94 31 85 86 -11 67 -85 94 -129 46z m80 -35 c9 -15 8 -23 -4
-41 -15 -22 -17 -22 -30 -5 -11 15 -13 16 -13 3 0 -10 -8 -15 -22 -14 -13 1
-34 -6 -47 -16 -44 -33 -100 -14 -84 28 10 29 24 35 73 29 35 -4 50 -1 70 15
31 25 42 25 57 1z m-240 -73 c-3 -7 -5 -2 -5 12 0 14 2 19 5 13 2 -7 2 -19 0
-25z"/>
<path d="M3155 3420 c-3 -5 -1 -10 4 -10 6 0 11 5 11 10 0 6 -2 10 -4 10 -3 0
-8 -4 -11 -10z"/>
<path d="M510 3413 c0 -4 7 -17 16 -28 14 -19 14 -19 11 5 -3 22 -27 43 -27
23z"/>
<path d="M400 3395 c0 -8 2 -15 4 -15 2 0 6 7 10 15 3 8 1 15 -4 15 -6 0 -10
-7 -10 -15z"/>
<path d="M1515 3400 c-27 -10 -42 -29 -50 -62 -6 -22 -1 -33 23 -58 38 -38 79
-40 116 -5 67 62 -3 160 -89 125z m63 -46 c5 -9 7 -26 5 -38 -4 -18 -10 -22
-30 -18 -32 6 -39 25 -16 51 21 25 29 26 41 5z"/>
<path d="M1646 3385 c9 -14 19 -24 21 -21 7 7 -16 46 -28 46 -5 0 -2 -11 7
-25z"/>
<path d="M2105 3398 c-11 -6 -22 -12 -23 -14 -8 -6 -20 -78 -15 -91 13 -34
105 -57 130 -32 9 9 21 8 48 -5 89 -43 172 44 114 118 -16 20 -29 26 -61 26
-25 0 -49 -7 -60 -17 -18 -16 -19 -15 -34 5 -17 24 -65 29 -99 10z m66 -40 c1
-7 1 -16 1 -20 -1 -3 5 -12 13 -18 11 -9 15 -10 15 -1 0 7 5 9 12 5 7 -5 9 -2
6 7 -4 11 1 14 23 13 16 -1 29 2 29 6 0 4 9 6 20 3 21 -6 29 -53 9 -53 -5 0
-7 -4 -4 -10 9 -15 -8 -12 -32 5 -23 16 -108 11 -97 -6 8 -13 -10 -11 -25 4
-11 10 -12 9 -6 -1 6 -11 3 -12 -14 -3 -21 12 -29 41 -11 41 6 0 10 6 10 14 0
23 49 36 51 14z"/>
<path d="M4575 3390 c-3 -5 1 -10 10 -10 9 0 13 5 10 10 -3 6 -8 10 -10 10 -2
0 -7 -4 -10 -10z"/>
<path d="M4852 3384 c-24 -17 -29 -55 -11 -101 19 -51 65 -58 106 -17 21 21
25 32 20 65 -3 22 -11 46 -17 54 -16 20 -70 19 -98 -1z m81 -28 c24 -18 14
-59 -18 -76 -30 -16 -55 -7 -56 20 -1 11 -2 26 -3 33 -6 34 43 49 77 23z"/>
<path d="M1040 3378 c0 -4 -9 -8 -20 -8 -14 0 -20 -6 -19 -22 0 -17 2 -19 7
-8 4 8 23 16 43 18 32 3 38 0 52 -29 15 -31 14 -34 -4 -47 -21 -14 -25 -32 -8
-32 5 0 7 5 4 10 -3 6 3 10 15 10 17 0 20 5 17 33 -5 46 -26 75 -59 79 -15 3
-28 1 -28 -4z"/>
<path d="M4546 3373 c-6 -14 -5 -15 5 -6 7 7 10 15 7 18 -3 3 -9 -2 -12 -12z"/>
<path d="M4615 3380 c3 -5 8 -10 11 -10 2 0 4 5 4 10 0 6 -5 10 -11 10 -5 0
-7 -4 -4 -10z"/>
<path d="M466 3364 c-4 -11 -13 -14 -29 -11 -18 5 -22 2 -23 -18 -2 -20 5 -26
35 -35 52 -14 56 -13 59 16 4 47 -28 83 -42 48z m22 -29 c-2 -25 -13 -30 -42
-19 -26 10 -18 22 11 16 21 -4 25 -2 20 12 -4 9 -2 16 3 16 5 0 9 -11 8 -25z"/>
<path d="M3905 3355 c-56 -56 -16 -145 65 -145 38 0 42 3 59 41 22 48 18 69
-16 104 -33 33 -76 33 -108 0z m98 -37 l21 -28 -20 -27 c-24 -32 -64 -39 -64
-11 0 16 -17 23 -42 19 -16 -2 -7 40 13 60 27 27 67 21 92 -13z"/>
<path d="M3916 3315 c-20 -15 -20 -15 0 -15 12 0 21 7 21 15 0 8 -1 15 -1 15
-1 0 -10 -7 -20 -15z"/>
<path d="M4060 3350 c11 -11 26 -20 33 -20 6 1 1 10 -12 20 -30 26 -47 26 -21
0z"/>
<path d="M4650 3361 c0 -5 7 -11 14 -14 10 -4 13 -1 9 9 -6 15 -23 19 -23 5z"/>
<path d="M381 3344 c0 -11 3 -14 6 -6 3 7 2 16 -1 19 -3 4 -6 -2 -5 -13z"/>
<path d="M2640 3339 c0 -5 5 -7 10 -4 6 3 10 8 10 11 0 2 -4 4 -10 4 -5 0 -10
-5 -10 -11z"/>
<path d="M2694 3341 c19 -7 19 -8 -3 -14 -13 -3 -20 -10 -17 -16 5 -7 13 -7
26 1 32 20 33 38 2 37 -23 0 -24 -2 -8 -8z"/>
<path d="M520 3325 c0 -8 5 -15 10 -15 6 0 10 7 10 15 0 8 -4 15 -10 15 -5 0
-10 -7 -10 -15z"/>
<path d="M976 3311 c-3 -5 2 -15 12 -22 15 -12 16 -12 5 2 -7 9 -10 19 -6 22
3 4 4 7 0 7 -3 0 -8 -4 -11 -9z"/>
<path d="M2635 3300 c3 -5 8 -10 11 -10 2 0 4 5 4 10 0 6 -5 10 -11 10 -5 0
-7 -4 -4 -10z"/>
<path d="M3542 3290 c-12 -12 -22 -25 -22 -30 0 -4 -3 -17 -6 -27 -4 -10 7 -2
23 17 26 29 37 35 76 36 33 1 52 -4 66 -18 12 -10 21 -14 21 -9 0 26 -45 51
-90 51 -33 0 -53 -6 -68 -20z"/>
<path d="M4093 3283 c1 -18 6 -28 10 -24 4 4 3 18 -2 32 -9 23 -9 22 -8 -8z"/>
<path d="M668 3283 c7 -3 16 -2 19 1 4 3 -2 6 -13 5 -11 0 -14 -3 -6 -6z"/>
<path d="M1010 3269 c0 -14 30 -38 47 -39 7 0 10 7 7 15 -4 8 -12 15 -20 15
-8 0 -14 5 -14 10 0 6 -4 10 -10 10 -5 0 -10 -5 -10 -11z"/>
<path d="M3415 3270 c-3 -6 1 -7 9 -4 18 7 21 14 7 14 -6 0 -13 -4 -16 -10z"/>
<path d="M4550 3261 c0 -6 4 -12 8 -15 5 -3 9 1 9 9 0 8 -4 15 -9 15 -4 0 -8
-4 -8 -9z"/>
<path d="M2046 3247 c3 -10 9 -15 12 -12 3 3 0 11 -7 18 -10 9 -11 8 -5 -6z"/>
<path d="M3563 3235 c-3 -9 -3 -18 -1 -21 3 -3 8 4 11 16 6 23 -1 27 -10 5z"/>
<path d="M3610 3239 c0 -5 5 -7 10 -4 6 3 10 8 10 11 0 2 -4 4 -10 4 -5 0 -10
-5 -10 -11z"/>
<path d="M4595 3240 c-3 -5 -1 -10 4 -10 6 0 11 5 11 10 0 6 -2 10 -4 10 -3 0
-8 -4 -11 -10z"/>
<path d="M2633 3224 c0 -16 15 -22 47 -18 14 1 31 3 38 3 6 1 12 5 12 10 0 5
-9 7 -20 4 -11 -3 -32 -1 -48 5 -22 8 -29 7 -29 -4z"/>
<path d="M3696 3231 c-4 -7 -5 -15 -2 -18 9 -9 19 4 14 18 -4 11 -6 11 -12 0z"/>
<path d="M2186 3223 c-7 -8 -12 -9 -39 -12 -19 -1 -35 -41 -28 -68 3 -13 14
-32 24 -43 31 -36 97 -12 116 42 10 28 9 36 -7 58 -19 26 -52 37 -66 23z m51
-40 c13 -19 14 -28 5 -31 -6 -2 -12 -10 -12 -17 0 -18 -43 -27 -72 -16 -13 6
-19 10 -14 10 5 1 3 8 -4 16 -9 11 -7 19 14 40 32 32 61 32 83 -2z"/>
<path d="M3537 3223 c-4 -3 -7 -16 -7 -28 0 -28 46 -54 90 -49 42 5 53 14 39
34 -9 12 -10 12 -5 -3 4 -14 2 -17 -12 -15 -9 2 -16 9 -15 14 1 6 -13 11 -32
11 -41 1 -58 11 -51 29 6 15 3 18 -7 7z"/>
<path d="M660 3192 c0 -14 11 -21 26 -15 8 3 11 9 8 14 -7 11 -34 12 -34 1z"/>
<path d="M716 3185 c4 -8 10 -12 15 -9 11 6 2 24 -11 24 -5 0 -7 -7 -4 -15z"/>
<path d="M1940 3196 c0 -2 7 -6 15 -10 8 -3 15 -1 15 4 0 6 -7 10 -15 10 -8 0
-15 -2 -15 -4z"/>
<path d="M950 3179 c0 -5 5 -7 10 -4 6 3 10 8 10 11 0 2 -4 4 -10 4 -5 0 -10
-5 -10 -11z"/>
<path d="M980 3180 c0 -6 7 -10 15 -10 8 0 15 2 15 4 0 2 -7 6 -15 10 -8 3
-15 1 -15 -4z"/>
<path d="M1188 3176 c-37 -27 -12 -107 28 -92 20 8 9 26 -17 26 -29 0 -26 46
4 54 41 11 55 6 65 -21 l10 -28 1 27 c1 43 -53 63 -91 34z"/>
<path d="M1078 3173 c7 -3 16 -2 19 1 4 3 -2 6 -13 5 -11 0 -14 -3 -6 -6z"/>
<path d="M1930 3118 c0 -3 9 -15 20 -28 11 -13 20 -19 20 -13 0 5 -9 18 -20
28 -11 10 -20 16 -20 13z"/>
<path d="M558 3073 c7 -3 16 -2 19 1 4 3 -2 6 -13 5 -11 0 -14 -3 -6 -6z"/>
<path d="M3396 3008 c3 -4 11 -5 19 -1 21 7 19 12 -4 10 -11 0 -18 -5 -15 -9z"/>
<path d="M328 2843 c7 -3 16 -2 19 1 4 3 -2 6 -13 5 -11 0 -14 -3 -6 -6z"/>
<path d="M413 2843 c9 -2 23 -2 30 0 6 3 -1 5 -18 5 -16 0 -22 -2 -12 -5z"/>
<path d="M518 2843 c23 -2 59 -2 80 0 20 2 1 4 -43 4 -44 0 -61 -2 -37 -4z"/>
<path d="M1427 2838 c-12 -10 -16 -31 -17 -93 -2 -113 -4 -106 28 -98 15 5
260 6 546 4 432 -3 520 -1 527 10 5 8 9 48 9 90 0 57 -4 80 -15 89 -12 10 -55
11 -183 6 -351 -13 -497 -15 -472 -7 16 6 -54 9 -191 10 -158 1 -220 -2 -232
-11z m1043 -86 c0 -11 -8 -22 -17 -24 -19 -5 -621 0 -711 5 -38 3 -55 0 -59
-10 -3 -7 -9 -13 -15 -13 -5 0 -6 5 -3 10 4 6 -25 10 -79 11 -47 1 -90 3 -96
4 -5 1 -13 3 -16 4 -4 0 -1 7 5 14 9 11 106 14 501 16 479 2 490 2 490 -17z"/>
<path d="M2594 2840 c-31 -12 -32 -16 -36 -105 -3 -93 3 -108 37 -95 13 5 555
10 1275 11 l1251 1 -2 43 c-2 39 -4 42 -28 38 -35 -5 -133 -3 -143 3 -4 3 -13
2 -19 -1 -15 -10 -139 -11 -139 -2 0 5 -4 5 -10 2 -5 -3 -62 -7 -125 -8 -63
-1 -115 -5 -115 -9 0 -5 -5 -8 -11 -8 -5 0 -7 6 -3 13 5 8 2 8 -9 -2 -14 -11
-17 -11 -17 0 0 11 -2 11 -10 -1 -8 -12 -12 -12 -18 -2 -7 9 -15 10 -35 3 -17
-7 -27 -7 -27 -1 0 6 -10 6 -26 0 -16 -7 -23 -7 -19 0 8 12 -8 13 -21 1 -5 -5
-37 -11 -72 -15 -48 -4 -61 -2 -55 7 5 8 2 8 -9 -1 -13 -11 -167 -13 -800 -11
-702 2 -784 4 -795 18 -15 19 -17 34 -3 26 6 -3 10 0 10 8 0 28 -31 27 972 31
240 0 432 -1 428 -4 -4 -3 125 -7 289 -9 163 -2 338 -4 389 -5 50 0 92 3 92 7
0 4 10 3 21 -4 15 -8 19 -8 15 0 -4 6 0 11 8 11 9 0 16 -5 16 -11 0 -8 4 -8
14 0 7 6 20 9 27 6 20 -6 190 -13 211 -7 14 3 17 14 16 43 l-1 39 -1251 -1
c-688 0 -1261 -4 -1272 -9z"/>
<path d="M333 2833 l-333 -3 0 -35 c0 -19 3 -36 8 -36 29 -5 52 -5 52 0 0 3
42 6 93 6 50 -1 104 2 120 6 15 5 25 4 22 -1 -3 -5 9 -7 27 -5 48 7 318 6 329
0 20 -13 7 -31 -23 -34 -18 -2 -167 -4 -330 -4 l-298 0 0 -33 0 -34 304 0
c166 0 330 -3 364 -6 l60 -7 -2 79 c-4 119 -3 114 -33 112 -16 -2 -178 -4
-360 -5z"/>
<path d="M1920 2600 c-311 -3 -571 -9 -577 -13 -22 -14 -15 -30 10 -23 14 3
33 -1 46 -10 12 -9 29 -13 39 -9 9 4 253 6 541 6 551 -2 540 -3 541 42 0 10
-7 16 -17 15 -10 -1 -272 -5 -583 -8z"/>
<path d="M0 2575 l0 -25 353 0 c286 1 355 3 371 15 42 32 9 35 -360 35 l-364
0 0 -25z"/>
<path d="M2552 2578 l3 -23 1283 -3 1282 -3 0 26 0 25 -1286 0 -1285 0 3 -22z"/>
<path d="M1121 2571 c-8 -6 -2 -10 19 -15 48 -9 108 -7 115 4 4 6 -14 9 -48 9
-30 -1 -59 1 -64 4 -5 3 -15 2 -22 -2z"/>
<path d="M813 2555 c0 -8 4 -12 9 -9 4 3 8 9 8 15 0 5 -4 9 -8 9 -5 0 -9 -7
-9 -15z"/>
<path d="M960 2563 c8 -3 20 -10 26 -14 7 -5 11 -3 11 6 0 10 -10 15 -26 14
-16 0 -20 -3 -11 -6z"/>
<path d="M1040 2560 c12 -8 11 -10 -7 -10 -13 0 -23 -4 -23 -10 0 -5 19 -2 43
7 56 22 57 23 11 23 -29 0 -35 -3 -24 -10z"/>
<path d="M1263 2551 c-15 -25 6 -23 31 2 16 16 16 17 -1 17 -10 0 -24 -9 -30
-19z"/>
<path d="M770 2540 c0 -5 5 -10 11 -10 5 0 7 5 4 10 -3 6 -8 10 -11 10 -2 0
-4 -4 -4 -10z"/>
<path d="M860 2545 c0 -8 29 -12 39 -5 9 5 4 8 -13 8 -14 0 -26 -2 -26 -3z"/>
<path d="M940 2546 c0 -2 7 -6 15 -10 8 -3 15 -1 15 4 0 6 -7 10 -15 10 -8 0
-15 -2 -15 -4z"/>
<path d="M1075 2540 c-3 -5 -1 -10 4 -10 6 0 11 5 11 10 0 6 -2 10 -4 10 -3 0
-8 -4 -11 -10z"/>
<path d="M1108 2543 c7 -3 16 -2 19 1 4 3 -2 6 -13 5 -11 0 -14 -3 -6 -6z"/>
<path d="M2506 2510 c-25 -23 -46 -47 -46 -52 0 -10 33 6 61 30 11 9 29 19 40
22 18 4 18 7 6 24 -13 18 -16 17 -61 -24z"/>
<path d="M724 2412 c-7 -5 -11 -288 -13 -944 l-3 -938 21 0 c12 0 23 0 26 0 3
0 7 425 10 945 6 903 5 945 -12 945 -10 0 -23 -4 -29 -8z"/>
<path d="M0 2388 c0 -15 7 -19 38 -18 20 1 47 -2 60 -5 17 -6 22 -3 23 11 0
15 2 16 7 4 8 -17 20 -19 39 -7 7 4 21 4 30 -1 10 -5 45 -8 78 -7 33 1 71 -1
85 -5 18 -5 31 -1 44 12 17 16 21 16 28 4 6 -11 27 -14 92 -12 47 2 90 0 96
-4 9 -6 12 -100 12 -369 0 -303 2 -361 14 -361 17 0 18 22 2 38 -8 8 -8 12 -1
12 7 0 10 33 9 100 0 55 1 100 4 100 3 0 6 119 8 265 l2 265 -107 -6 c-60 -3
-112 -5 -118 -4 -5 0 -108 2 -227 4 -207 3 -218 2 -218 -16z"/>
<path d="M819 2410 c0 -3 -2 -13 -4 -23 -3 -14 1 -16 17 -12 12 4 24 1 31 -8
14 -17 65 -28 73 -16 3 5 -5 9 -18 9 -17 0 -19 3 -9 9 7 5 21 7 30 6 9 -2 19
-4 24 -4 4 -1 7 -9 7 -18 0 -15 2 -15 9 -4 5 8 7 20 4 28 -3 7 0 13 6 13 6 0
11 -6 11 -13 0 -18 39 -40 53 -29 20 16 134 17 153 1 8 -6 14 -7 18 0 8 12 80
4 84 -9 6 -16 22 -12 22 5 0 11 11 15 36 15 29 0 35 -3 30 -16 -4 -10 -2 -14
6 -11 7 2 12 9 11 14 -4 19 97 19 109 0 6 -9 10 -9 18 3 7 12 13 13 28 3 15
-9 22 -9 31 0 8 8 11 6 11 -8 0 -18 1 -18 19 2 12 12 30 19 48 18 15 -1 57 -3
93 -4 42 -2 58 -5 46 -10 -13 -5 -16 -10 -9 -14 6 -4 18 0 26 8 27 26 43 17
38 -22 -1 -6 3 -15 10 -18 7 -5 9 4 7 26 -2 23 1 34 10 33 6 -1 23 -2 36 -2
20 -2 25 -9 30 -44 6 -37 9 -41 18 -24 8 14 8 24 0 37 -9 15 -8 19 9 24 11 4
27 1 35 -6 8 -7 31 -14 51 -16 30 -3 34 -2 24 10 -6 8 -26 18 -44 22 -26 7
-28 9 -11 12 12 2 39 -3 59 -11 20 -9 48 -13 60 -10 20 5 23 3 18 -14 -5 -20
27 -48 41 -35 9 10 7 25 -3 19 -9 -6 -25 23 -17 31 2 2 12 4 22 4 11 -1 61 -1
112 -2 l93 -1 -2 -31 c-2 -18 1 -38 5 -45 4 -7 5 -16 2 -19 -3 -3 -1 -14 5
-24 5 -10 12 -51 14 -91 7 -96 7 -98 16 -98 13 0 15 25 9 135 -4 61 -5 136 -3
168 l4 57 -489 -4 c-269 -3 -493 -6 -498 -7 -5 -1 -11 0 -14 1 -3 1 -148 3
-322 4 -208 1 -318 -2 -318 -9 0 -5 -5 -3 -10 5 -5 8 -10 13 -11 10z"/>
<path d="M2520 2400 c0 -5 5 -12 10 -15 6 -4 9 -22 8 -40 -1 -19 1 -37 5 -41
4 -4 1 -14 -6 -22 -8 -11 -8 -14 0 -9 6 4 13 2 15 -5 8 -23 27 3 26 36 -1 18
2 38 6 44 9 15 43 16 51 2 8 -12 45 -13 45 -1 0 5 59 9 132 10 115 1 135 -1
165 -19 39 -23 43 -24 43 -10 0 6 -7 10 -15 10 -8 0 -15 5 -15 10 0 13 47 13
55 0 3 -5 13 -6 21 -3 13 5 14 0 9 -31 -5 -22 -3 -36 3 -36 18 0 29 25 26 63
-3 41 9 48 27 16 8 -16 13 -18 19 -9 7 11 12 10 25 -3 9 -10 13 -17 8 -17 -4
0 0 -5 10 -11 9 -6 15 -14 12 -19 -3 -5 4 -12 16 -15 17 -6 18 -9 8 -16 -7 -4
-10 -11 -6 -15 13 -13 30 13 22 33 -5 10 -9 22 -9 26 -1 5 -9 14 -18 21 -10 7
-18 16 -18 20 0 4 -8 16 -19 27 -17 19 -34 20 -340 24 -188 3 -321 1 -321 -5z"/>
<path d="M3198 2383 c19 -30 75 -62 57 -34 -3 5 -1 12 5 16 5 3 10 0 10 -7 0
-10 2 -10 9 1 7 11 13 11 32 -2 18 -13 26 -14 37 -4 12 9 16 9 19 0 3 -9 12
-9 29 -2 33 12 91 12 99 -1 3 -5 13 -10 21 -10 8 0 13 3 10 8 -2 4 22 9 55 10
37 2 59 -1 59 -7 0 -6 5 -11 11 -11 5 0 7 5 4 10 -14 22 95 14 111 -8 10 -14
13 -13 23 6 9 17 18 20 44 17 17 -3 78 -5 135 -5 82 -1 102 -4 102 -16 0 -7 7
-14 16 -14 14 0 14 3 4 15 -11 13 -6 15 39 15 32 0 51 -4 51 -12 0 -6 8 -4 19
6 23 21 101 12 101 -11 0 -8 5 -11 10 -8 6 4 8 11 5 16 -4 5 -1 9 4 9 6 0 11
-6 11 -12 0 -9 2 -10 8 -2 4 7 31 14 60 16 48 4 55 2 62 -16 4 -12 6 -33 4
-48 -2 -16 1 -28 6 -28 6 0 10 3 11 8 7 82 4 77 42 86 23 5 29 3 37 -20 6 -14
8 -30 4 -35 -3 -5 0 -9 5 -9 6 0 11 13 11 29 0 20 6 30 20 34 25 6 62 -2 55
-13 -3 -5 -1 -11 5 -15 5 -3 10 0 10 8 0 16 51 30 74 21 8 -3 13 -17 12 -35
-1 -16 1 -29 6 -29 4 0 8 9 8 20 0 11 0 22 0 25 0 10 42 46 48 41 3 -3 2 -6
-2 -6 -4 0 5 -11 20 -25 21 -20 25 -28 16 -37 -17 -17 -15 -28 3 -22 9 4 15
19 15 35 0 31 4 33 66 30 23 -2 45 2 48 8 5 8 16 6 37 -4 16 -9 29 -12 29 -8
0 5 5 1 10 -7 8 -13 11 -12 23 4 8 12 19 16 26 11 9 -5 12 -2 9 11 -5 26 16
25 -723 24 -236 0 -606 1 -821 3 l-392 3 16 -23z"/>
<path d="M2265 2340 c3 -5 8 -10 11 -10 2 0 4 5 4 10 0 6 -5 10 -11 10 -5 0
-7 -4 -4 -10z"/>
<path d="M2932 2338 c2 -6 10 -14 16 -16 7 -2 10 2 6 12 -7 18 -28 22 -22 4z"/>
<path d="M3616 2337 c3 -10 9 -15 12 -12 3 3 0 11 -7 18 -10 9 -11 8 -5 -6z"/>
<path d="M3850 2346 c0 -2 9 -6 20 -9 11 -3 20 -1 20 4 0 5 -9 9 -20 9 -11 0
-20 -2 -20 -4z"/>
<path d="M2307 2333 c-3 -5 -1 -16 2 -26 6 -17 8 -17 20 -3 7 8 10 20 6 26 -7
12 -22 13 -28 3z"/>
<path d="M2855 2330 c-8 -13 5 -13 25 0 13 8 13 10 -2 10 -9 0 -20 -4 -23 -10z"/>
<path d="M4181 2314 c0 -11 3 -14 6 -6 3 7 2 16 -1 19 -3 4 -6 -2 -5 -13z"/>
<path d="M1824 2295 c-3 -14 -11 -22 -16 -19 -7 5 -7 1 -1 -11 6 -10 8 -27 5
-38 -4 -16 -2 -19 11 -14 13 5 21 -3 32 -29 8 -19 20 -41 27 -49 31 -34 36
-43 31 -49 -4 -3 -1 -6 6 -6 7 0 9 -5 5 -12 -4 -7 -4 -10 1 -6 5 5 19 -8 32
-27 13 -19 28 -35 34 -35 6 0 8 -3 6 -7 -2 -5 4 -16 15 -25 37 -36 19 10 -24
59 -23 26 -63 82 -90 123 -26 41 -54 82 -63 91 -8 9 -15 20 -15 25 0 5 4 3 9
-5 6 -10 9 -2 8 22 -1 43 -4 46 -13 12z"/>
<path d="M2640 2300 c0 -11 4 -20 10 -20 5 0 14 9 20 20 9 17 8 20 -10 20 -13
0 -20 -7 -20 -20z"/>
<path d="M2781 2304 c0 -11 3 -14 6 -6 3 7 2 16 -1 19 -3 4 -6 -2 -5 -13z"/>
<path d="M2040 2296 c0 -9 5 -16 10 -16 6 0 10 4 10 9 0 6 -4 13 -10 16 -5 3
-10 -1 -10 -9z"/>
<path d="M2906 2296 c7 -19 38 -22 32 -3 -3 6 -12 13 -21 15 -12 2 -15 -1 -11
-12z"/>
<path d="M3126 2301 c-6 -10 10 -25 38 -35 18 -6 18 -8 4 -23 -13 -12 -22 -13
-46 -5 -17 6 -33 8 -36 5 -10 -10 25 -35 41 -29 9 4 20 1 25 -6 6 -10 8 -9 8
3 0 9 9 23 21 30 l21 14 -27 28 c-29 28 -40 33 -49 18z"/>
<path d="M3764 2290 c1 -17 16 -31 16 -15 0 3 0 12 0 20 0 8 -4 15 -9 15 -4 0
-8 -9 -7 -20z"/>
<path d="M4066 2303 c-11 -11 -6 -23 9 -23 8 0 15 4 15 9 0 13 -16 22 -24 14z"/>
<path d="M4290 2303 c0 -14 19 -38 25 -32 8 8 -5 39 -16 39 -5 0 -9 -3 -9 -7z"/>
<path d="M2205 2286 c-17 -12 -17 -13 3 -11 26 2 37 11 24 19 -5 3 -17 -1 -27
-8z"/>
<path d="M3007 2293 c-12 -12 -7 -21 14 -26 17 -5 18 -3 7 11 -7 9 -13 18 -14
20 0 1 -4 -1 -7 -5z"/>
<path d="M1605 2280 c3 -5 8 -10 11 -10 2 0 4 5 4 10 0 6 -5 10 -11 10 -5 0
-7 -4 -4 -10z"/>
<path d="M2815 2280 c-3 -5 3 -10 15 -10 12 0 18 5 15 10 -3 6 -10 10 -15 10
-5 0 -12 -4 -15 -10z"/>
<path d="M4179 2277 c-3 -66 -1 -91 9 -95 6 -2 8 5 5 19 -5 17 -3 20 7 14 9
-5 11 -4 6 4 -4 6 -10 24 -12 38 -6 33 -14 43 -15 20z"/>
<path d="M4560 2275 c0 -9 5 -15 11 -13 6 2 11 8 11 13 0 5 -5 11 -11 13 -6 2
-11 -4 -11 -13z"/>
<path d="M4756 2281 c-4 -6 0 -11 11 -12 10 0 13 -3 6 -6 -16 -6 -17 -33 -3
-33 6 0 13 7 17 16 7 19 -21 51 -31 35z"/>
<path d="M4852 2278 c-11 -14 -5 -68 8 -68 16 0 18 29 4 41 -12 10 -12 14 -2
20 7 4 10 11 7 14 -4 3 -11 0 -17 -7z"/>
<path d="M4660 2271 c0 -5 6 -11 13 -14 9 -3 9 -9 0 -25 -11 -18 -10 -20 2
-16 20 8 20 64 0 64 -8 0 -15 -4 -15 -9z"/>
<path d="M2785 2260 c-4 -6 -3 -16 3 -22 6 -6 12 -6 17 2 4 6 3 16 -3 22 -6 6
-12 6 -17 -2z"/>
<path d="M2954 2258 c3 -10 -2 -21 -11 -26 -10 -6 -3 -8 23 -6 22 1 55 3 74 4
26 0 31 3 20 10 -8 5 -30 7 -48 4 -25 -5 -37 -2 -48 12 -14 17 -15 17 -10 2z"/>
<path d="M4067 2250 c-8 -30 -5 -56 9 -67 5 -4 6 -4 2 1 -4 5 -4 14 0 20 5 6
5 25 2 41 -7 30 -7 30 -13 5z"/>
<path d="M1966 2252 c-3 -6 1 -13 10 -16 23 -9 28 -2 10 13 -8 7 -17 8 -20 3z"/>
<path d="M2221 2244 c0 -11 3 -14 6 -6 3 7 2 16 -1 19 -3 4 -6 -2 -5 -13z"/>
<path d="M2652 2252 c-7 -5 -10 -16 -6 -25 7 -18 24 -23 24 -8 0 5 3 16 6 25
7 17 -3 20 -24 8z"/>
<path d="M4289 2239 c-8 -15 -8 -19 0 -15 6 4 11 2 11 -3 0 -6 -4 -11 -10 -11
-5 0 -10 -4 -10 -8 0 -5 7 -9 15 -9 8 0 12 4 9 9 -3 4 5 12 18 17 13 6 17 10
11 10 -7 1 -13 8 -13 16 0 22 -18 18 -31 -6z"/>
<path d="M4460 2251 c0 -6 5 -13 10 -16 6 -3 10 1 10 9 0 9 -4 16 -10 16 -5 0
-10 -4 -10 -9z"/>
<path d="M1295 2241 c-3 -5 -2 -12 3 -15 5 -3 9 1 9 9 0 17 -3 19 -12 6z"/>
<path d="M2032 2242 c-12 -2 -20 -8 -17 -13 8 -12 75 -12 75 0 0 11 -28 18
-58 13z"/>
<path d="M2534 2217 c1 -40 23 -45 37 -9 11 28 11 27 -17 36 -19 6 -21 3 -20
-27z"/>
<path d="M2850 2233 c0 -10 4 -25 10 -33 8 -12 10 -12 16 3 7 20 -1 47 -16 47
-5 0 -10 -8 -10 -17z"/>
<path d="M4565 2240 c3 -5 8 -10 11 -10 2 0 4 5 4 10 0 6 -5 10 -11 10 -5 0
-7 -4 -4 -10z"/>
<path d="M540 2235 c0 -5 5 -17 10 -25 5 -8 10 -10 10 -5 0 6 -5 17 -10 25 -5
8 -10 11 -10 5z"/>
<path d="M3230 2218 c0 -42 -169 -276 -241 -334 -42 -35 -201 -197 -280 -287
-61 -69 -75 -96 -40 -78 10 6 22 7 26 3 5 -4 5 -1 1 6 -5 9 3 24 23 44 17 17
31 34 31 39 0 5 73 81 163 170 89 88 161 165 160 170 -2 5 3 9 10 9 6 1 21 15
33 33 11 18 26 31 33 29 7 -1 10 2 6 7 -3 6 5 17 19 26 14 10 23 22 19 31 -3
8 0 14 6 14 6 0 10 6 9 13 -2 6 2 11 9 10 8 -2 10 4 6 14 -4 10 -2 14 4 10 5
-3 10 -1 11 6 0 11 3 25 14 66 1 7 -3 16 -9 18 -8 3 -13 -4 -13 -19z"/>
<path d="M3647 2229 c7 -7 15 -10 18 -7 3 3 -2 9 -12 12 -14 6 -15 5 -6 -5z"/>
<path d="M1588 2223 c7 -3 16 -2 19 1 4 3 -2 6 -13 5 -11 0 -14 -3 -6 -6z"/>
<path d="M1880 2216 c0 -16 37 -32 48 -21 7 7 -25 35 -40 35 -4 0 -8 -6 -8
-14z"/>
<path d="M3760 2215 c0 -8 5 -15 10 -15 6 0 10 7 10 15 0 8 -4 15 -10 15 -5 0
-10 -7 -10 -15z"/>
<path d="M3175 2210 c3 -5 13 -10 21 -10 8 0 14 5 14 10 0 6 -9 10 -21 10 -11
0 -17 -4 -14 -10z"/>
<path d="M4460 2204 c0 -8 5 -12 10 -9 6 3 10 10 10 16 0 5 -4 9 -10 9 -5 0
-10 -7 -10 -16z"/>
<path d="M4560 2211 c0 -6 4 -13 10 -16 6 -3 7 1 4 9 -7 18 -14 21 -14 7z"/>
<path d="M4764 2204 c2 -10 8 -20 15 -22 8 -3 12 3 9 14 -4 23 -27 31 -24 8z"/>
<path d="M3313 2195 c-15 -17 -17 -39 -3 -30 7 4 9 -12 6 -44 -2 -28 1 -51 5
-51 5 0 9 32 9 70 0 39 -1 70 -2 70 -2 -1 -9 -7 -15 -15z"/>
<path d="M3510 2199 c0 -15 18 -19 23 -6 3 8 -1 14 -9 14 -8 0 -14 -4 -14 -8z"/>
<path d="M1806 2192 c-3 -5 1 -9 9 -9 8 0 12 4 9 9 -3 4 -7 8 -9 8 -2 0 -6 -4
-9 -8z"/>
<path d="M4855 2190 c-3 -5 -1 -10 4 -10 6 0 11 5 11 10 0 6 -2 10 -4 10 -3 0
-8 -4 -11 -10z"/>
<path d="M3880 2179 c0 -5 5 -7 10 -4 6 3 10 8 10 11 0 2 -4 4 -10 4 -5 0 -10
-5 -10 -11z"/>
<path d="M521 2164 c0 -11 3 -14 6 -6 3 7 2 16 -1 19 -3 4 -6 -2 -5 -13z"/>
<path d="M1910 2173 c0 -18 85 -133 108 -147 11 -7 12 -4 3 12 -6 11 -15 22
-20 24 -5 1 -11 9 -13 17 -2 8 -11 23 -21 33 -10 11 -16 26 -13 34 3 8 -1 14
-9 14 -8 0 -15 5 -15 10 0 6 -4 10 -10 10 -5 0 -10 -3 -10 -7z"/>
<path d="M2765 2171 c-3 -5 -1 -12 5 -16 5 -3 10 1 10 9 0 18 -6 21 -15 7z"/>
<path d="M3160 2165 c0 -9 -7 -18 -15 -21 -8 -4 -15 -13 -15 -21 0 -8 -5 -11
-12 -7 -6 4 -8 3 -5 -4 10 -15 -3 -43 -16 -35 -6 3 -7 1 -3 -5 4 -7 1 -12 -7
-12 -25 0 -40 -25 -23 -39 11 -10 24 3 70 68 31 43 56 82 56 85 0 3 -7 6 -15
6 -8 0 -15 -7 -15 -15z"/>
<path d="M4670 2170 c0 -5 0 -12 0 -15 0 -12 14 -4 16 10 1 8 -2 15 -7 15 -5
0 -9 -4 -9 -10z"/>
<path d="M1805 2160 c-3 -6 1 -7 9 -4 18 7 21 14 7 14 -6 0 -13 -4 -16 -10z"/>
<path d="M2535 2128 c3 -36 -13 -71 -42 -95 -12 -9 -4 -11 34 -10 26 0 38 2
26 4 -23 4 -33 23 -12 23 6 0 9 7 5 15 -3 8 2 19 12 24 12 7 13 10 3 11 -11 0
-11 3 -1 15 7 9 10 19 6 22 -4 4 -11 1 -16 -7 -6 -10 -9 -8 -13 11 -2 13 -3 7
-2 -13z"/>
<path d="M2920 2159 c0 -11 21 -11 39 0 9 6 5 9 -13 9 -14 0 -26 -4 -26 -9z"/>
<path d="M4860 2160 c0 -5 5 -10 10 -10 6 0 10 5 10 10 0 6 -4 10 -10 10 -5 0
-10 -4 -10 -10z"/>
<path d="M3766 2147 c3 -10 9 -15 12 -12 3 3 0 11 -7 18 -10 9 -11 8 -5 -6z"/>
<path d="M4290 2152 c0 -15 11 -21 27 -15 12 5 12 7 1 14 -17 11 -28 11 -28 1z"/>
<path d="M4463 2147 c0 -8 6 -14 14 -14 9 0 10 4 2 14 -6 7 -12 13 -14 13 -1
0 -2 -6 -2 -13z"/>
<path d="M4770 2150 c0 -5 5 -10 10 -10 6 0 10 5 10 10 0 6 -4 10 -10 10 -5 0
-10 -4 -10 -10z"/>
<path d="M3500 2140 c0 -5 6 -10 14 -10 8 0 18 5 21 10 3 6 -3 10 -14 10 -12
0 -21 -4 -21 -10z"/>
<path d="M2195 2130 c-3 -5 -2 -10 4 -10 5 0 13 5 16 10 3 6 2 10 -4 10 -5 0
-13 -4 -16 -10z"/>
<path d="M4860 2130 c0 -5 5 -10 11 -10 5 0 7 5 4 10 -3 6 -8 10 -11 10 -2 0
-4 -4 -4 -10z"/>
<path d="M4779 2113 c-5 -34 -3 -93 3 -93 5 0 8 23 7 50 -2 44 -7 65 -10 43z"/>
<path d="M2925 2100 c-3 -6 1 -7 9 -4 18 7 21 14 7 14 -6 0 -13 -4 -16 -10z"/>
<path d="M4463 2095 c0 -8 4 -12 9 -9 5 3 6 10 3 15 -9 13 -12 11 -12 -6z"/>
<path d="M3890 2066 c0 -9 5 -16 10 -16 6 0 10 4 10 9 0 6 -4 13 -10 16 -5 3
-10 -1 -10 -9z"/>
<path d="M4864 2069 c-3 -6 -1 -16 5 -22 8 -8 11 -5 11 11 0 24 -5 28 -16 11z"/>
<path d="M4460 2059 c0 -5 5 -7 10 -4 6 3 10 8 10 11 0 2 -4 4 -10 4 -5 0 -10
-5 -10 -11z"/>
<path d="M2345 2050 c-3 -6 1 -7 9 -4 18 7 21 14 7 14 -6 0 -13 -4 -16 -10z"/>
<path d="M4060 2049 c0 -5 5 -7 10 -4 6 3 10 8 10 11 0 2 -4 4 -10 4 -5 0 -10
-5 -10 -11z"/>
<path d="M4300 2039 c0 -5 5 -7 10 -4 6 3 10 8 10 11 0 2 -4 4 -10 4 -5 0 -10
-5 -10 -11z"/>
<path d="M2240 2030 c-13 -8 -12 -10 3 -10 9 0 17 5 17 10 0 12 -1 12 -20 0z"/>
<path d="M2400 2030 c-13 -8 -12 -10 3 -10 9 0 17 5 17 10 0 12 -1 12 -20 0z"/>
<path d="M2308 2023 c7 -3 16 -2 19 1 4 3 -2 6 -13 5 -11 0 -14 -3 -6 -6z"/>
<path d="M3303 2012 c0 -10 7 -19 14 -19 17 0 16 5 -1 23 -13 12 -15 12 -13
-4z"/>
<path d="M3528 2023 c7 -3 16 -2 19 1 4 3 -2 6 -13 5 -11 0 -14 -3 -6 -6z"/>
<path d="M2064 1968 l39 -46 448 2 448 1 31 30 c16 16 30 32 30 37 0 5 -227 8
-504 7 -277 -1 -510 2 -517 7 -7 4 4 -13 25 -38z m339 1 c-16 -16 -295 -28
-310 -12 -7 6 -13 14 -13 17 0 5 321 14 329 8 3 -1 0 -7 -6 -13z m457 1 c-12
-8 -10 -10 8 -10 13 0 20 4 17 10 -4 6 22 9 72 8 69 -1 73 -2 33 -8 l-45 -7
40 -2 c27 -1 36 -4 26 -10 -7 -5 -52 -6 -100 -3 -47 3 -166 4 -263 3 -149 -3
-180 -1 -200 13 -21 15 -7 16 202 16 149 0 220 -4 210 -10z"/>
<path d="M4370 1990 c0 -5 5 -10 11 -10 5 0 7 5 4 10 -3 6 -8 10 -11 10 -2 0
-4 -4 -4 -10z"/>
<path d="M1828 1983 c6 -2 18 -2 25 0 6 3 1 5 -13 5 -14 0 -19 -2 -12 -5z"/>
<path d="M4055 1980 c3 -5 8 -10 11 -10 2 0 4 5 4 10 0 6 -5 10 -11 10 -5 0
-7 -4 -4 -10z"/>
<path d="M4776 1978 c3 -5 10 -6 15 -3 13 9 11 12 -6 12 -8 0 -12 -4 -9 -9z"/>
<path d="M3900 1959 c0 -5 5 -7 10 -4 6 3 10 8 10 11 0 2 -4 4 -10 4 -5 0 -10
-5 -10 -11z"/>
<path d="M4460 1950 c0 -5 5 -10 11 -10 5 0 7 5 4 10 -3 6 -8 10 -11 10 -2 0
-4 -4 -4 -10z"/>
<path d="M2043 1934 c0 -8 4 -14 9 -14 5 0 6 -5 2 -12 -4 -7 -3 -8 4 -4 8 4
16 -3 22 -18 5 -14 16 -26 24 -26 7 0 24 -13 37 -29 13 -16 27 -27 31 -25 10
6 -62 70 -75 66 -4 -1 -6 2 -3 7 3 5 -7 23 -22 39 -17 18 -29 25 -29 16z"/>
<path d="M3300 1940 c0 -6 7 -10 15 -10 8 0 15 2 15 4 0 2 -7 6 -15 10 -8 3
-15 1 -15 -4z"/>
<path d="M4463 1909 c-2 -23 3 -25 10 -4 4 8 3 16 -1 19 -4 3 -9 -4 -9 -15z"/>
<path d="M3175 1910 c-3 -5 -1 -10 4 -10 6 0 11 5 11 10 0 6 -2 10 -4 10 -3 0
-8 -4 -11 -10z"/>
<path d="M4637 1913 c-4 -3 -7 -11 -7 -17 0 -6 5 -5 12 2 6 6 9 14 7 17 -3 3
-9 2 -12 -2z"/>
<path d="M4780 1895 c0 -14 4 -25 9 -25 4 0 6 11 3 25 -2 14 -6 25 -8 25 -2 0
-4 -11 -4 -25z"/>
<path d="M2144 1880 c16 -19 71 -79 122 -132 79 -82 99 -98 124 -98 18 0 29 4
25 10 -3 6 -16 10 -29 10 -15 0 -54 31 -121 99 -54 55 -101 103 -104 108 -3 4
-15 15 -26 23 -12 9 -9 1 9 -20z"/>
<path d="M2701 1891 c-7 -5 -21 -6 -31 -4 -15 4 -18 1 -13 -16 5 -21 33 -30
33 -11 0 5 6 7 14 4 8 -3 25 0 37 7 23 12 23 12 4 20 -26 10 -28 10 -44 0z"/>
<path d="M2922 1868 c-22 -18 -77 -72 -122 -120 -53 -57 -90 -88 -104 -88 -17
0 -18 -2 -6 -10 19 -12 47 6 103 67 64 71 108 115 151 151 22 17 35 32 29 32
-6 0 -28 -15 -51 -32z"/>
<path d="M2548 1870 c12 -11 28 -20 36 -20 8 0 19 -7 24 -17 9 -14 11 -14 21
5 11 20 9 22 -19 22 -18 0 -33 6 -36 15 -4 8 -16 15 -27 15 l-21 0 22 -20z"/>
<path d="M2610 1886 c0 -2 7 -7 16 -10 8 -3 12 -2 9 4 -6 10 -25 14 -25 6z"/>
<path d="M4050 1870 c0 -5 7 -10 16 -10 8 0 12 5 9 10 -3 6 -10 10 -16 10 -5
0 -9 -4 -9 -10z"/>
<path d="M4463 1865 c-3 -9 -3 -18 -1 -21 3 -3 8 4 11 16 6 23 -1 27 -10 5z"/>
<path d="M2523 1826 c11 -8 25 -12 33 -9 18 7 16 9 -21 17 -28 6 -29 5 -12 -8z"/>
<path d="M2470 1820 c0 -5 7 -10 15 -10 8 0 15 5 15 10 0 6 -7 10 -15 10 -8 0
-15 -4 -15 -10z"/>
<path d="M4460 1810 c0 -11 4 -20 9 -20 6 0 9 9 8 20 -1 11 -5 20 -9 20 -4 0
-8 -9 -8 -20z"/>
<path d="M4785 1820 c3 -5 8 -10 11 -10 2 0 4 5 4 10 0 6 -5 10 -11 10 -5 0
-7 -4 -4 -10z"/>
<path d="M3300 1794 c0 -8 5 -12 10 -9 6 4 8 11 5 16 -9 14 -15 11 -15 -7z"/>
<path d="M4287 1789 c7 -7 15 -10 18 -7 3 3 -2 9 -12 12 -14 6 -15 5 -6 -5z"/>
<path d="M2171 1787 c2 -2 12 -9 22 -16 14 -11 17 -11 17 1 0 7 -10 14 -21 15
-12 1 -20 1 -18 0z"/>
<path d="M2617 1783 c-4 -3 -7 -11 -7 -17 0 -6 5 -5 12 2 6 6 9 14 7 17 -3 3
-9 2 -12 -2z"/>
<path d="M4460 1753 c0 -13 5 -23 10 -23 13 0 13 11 0 30 -8 12 -10 11 -10 -7z"/>
<path d="M2630 1740 c0 -5 5 -10 11 -10 5 0 7 5 4 10 -3 6 -8 10 -11 10 -2 0
-4 -4 -4 -10z"/>
<path d="M2625 1711 c-3 -5 -2 -12 3 -15 5 -3 9 1 9 9 0 17 -3 19 -12 6z"/>
<path d="M2440 1670 c0 -5 5 -10 10 -10 6 0 10 5 10 10 0 6 -4 10 -10 10 -5 0
-10 -4 -10 -10z"/>
<path d="M2620 1660 c0 -5 7 -10 16 -10 8 0 12 5 9 10 -3 6 -10 10 -16 10 -5
0 -9 -4 -9 -10z"/>
<path d="M2305 1650 c-3 -6 1 -7 9 -4 18 7 21 14 7 14 -6 0 -13 -4 -16 -10z"/>
<path d="M2480 1650 c0 -5 24 -10 54 -10 30 0 58 5 61 10 4 6 -17 10 -54 10
-34 0 -61 -4 -61 -10z"/>
<path d="M2357 1626 c-6 -15 1 -26 15 -26 11 0 10 27 -1 34 -5 3 -11 0 -14 -8z"/>
<path d="M4780 1630 c0 -5 5 -10 11 -10 5 0 7 5 4 10 -3 6 -8 10 -11 10 -2 0
-4 -4 -4 -10z"/>
<path d="M632 1580 c1 -22 6 -40 12 -40 7 0 10 15 8 40 -2 22 -8 40 -13 40 -5
0 -8 -18 -7 -40z"/>
<path d="M4470 1605 c0 -8 4 -15 10 -15 5 0 7 7 4 15 -4 8 -8 15 -10 15 -2 0
-4 -7 -4 -15z"/>
<path d="M2439 1575 c29 -19 59 -35 66 -35 7 0 15 -6 18 -12 3 -10 12 -10 43
1 53 18 110 54 95 59 -6 2 -18 -2 -27 -9 -8 -7 -36 -12 -62 -11 -26 0 -50 -5
-54 -11 -6 -9 -10 -9 -16 0 -7 11 -95 53 -110 53 -4 0 17 -16 47 -35z m103
-37 c-7 -7 -12 -8 -12 -2 0 6 3 14 7 17 3 4 9 5 12 2 2 -3 -1 -11 -7 -17z"/>
<path d="M2402 1563 c7 -18 16 -33 20 -33 13 0 9 13 -12 40 l-20 25 12 -32z"/>
<path d="M1082 1520 c-18 -4 -36 -11 -40 -14 -3 -4 -7 -95 -8 -204 -1 -108 -4
-333 -5 -499 l-4 -303 -512 0 c-411 0 -513 -3 -513 -13 0 -10 102 -13 508 -14
407 -2 508 -5 510 -15 2 -11 -92 -12 -508 -10 -354 3 -510 1 -510 -7 0 -7 119
-10 378 -11 207 0 418 -2 467 -4 50 -2 106 -4 126 -5 l37 -1 4 -58 c4 -64 36
-111 86 -131 115 -45 343 -37 443 15 50 25 52 21 46 -68 -3 -46 -8 -90 -12
-99 -3 -9 -27 -25 -53 -35 -41 -17 -75 -19 -264 -19 -197 1 -243 -3 -205 -18
6 -2 98 -3 202 -2 285 2 295 3 295 19 0 8 9 17 19 21 12 3 21 19 26 41 l6 35
224 -2 c124 -2 230 -6 236 -10 18 -11 1 -29 -29 -30 l-27 -1 25 -7 c14 -4 24
-13 23 -19 -4 -18 29 -52 49 -52 10 0 18 5 18 10 0 6 -9 10 -20 10 -21 0 -23
3 -24 64 -1 30 -5 40 -21 43 -11 2 -115 5 -231 5 l-211 1 3 140 c1 76 6 142 9
146 8 7 665 9 665 1 0 -3 34 -4 76 -2 57 3 74 1 69 -8 -4 -7 4 -4 18 5 15 9
31 14 37 10 5 -3 10 -1 10 4 0 8 -138 11 -445 11 -388 0 -445 2 -445 15 0 13
56 15 430 15 237 0 442 3 455 6 25 6 25 6 25 -70 0 -63 4 -80 20 -96 22 -22
26 -11 9 21 -7 14 -12 189 -14 522 -4 509 -9 579 -45 646 -20 38 -20 19 2 -54
19 -64 21 -106 25 -510 l5 -440 -458 3 -459 2 0 88 c0 48 -1 272 -3 499 l-2
412 -22 13 c-27 15 -441 22 -496 8z m482 -20 c18 -18 -51 -25 -244 -25 -179 0
-280 8 -267 22 21 20 490 24 511 3z m18 -60 c-5 -33 -6 -34 -13 -10 -5 16 -7
-7 -7 -60 1 -57 6 -92 16 -108 21 -32 10 -36 -29 -9 -34 23 -41 24 -214 22
-99 -1 -193 -5 -210 -9 -82 -20 -75 -29 -75 94 l0 110 73 -7 c99 -11 373 -8
422 4 22 5 41 9 41 9 1 -1 -1 -17 -4 -36z m-364 -192 c9 -9 21 -9 50 0 47 14
62 15 62 3 0 -5 -12 -12 -27 -15 -37 -9 -131 -17 -115 -10 18 9 15 24 -5 17
-11 -4 -14 -3 -9 5 9 15 29 15 44 0z m304 -6 c14 -14 -2 -20 -44 -15 -50 7
-52 32 -2 29 19 -2 40 -8 46 -14z m-367 -2 c3 -5 2 -10 -4 -10 -5 0 -13 5 -16
10 -3 6 -2 10 4 10 5 0 13 -4 16 -10z m-65 -15 c-7 -8 -20 -15 -28 -15 -13 0
-12 3 4 15 25 19 40 19 24 0z m335 -6 c5 -5 28 -9 52 -9 24 0 43 -5 43 -11 0
-7 -21 -8 -62 -4 -35 3 -79 7 -100 8 -20 1 -34 5 -32 9 3 5 -1 8 -8 8 -9 0 -9
3 2 11 17 11 90 3 105 -12z m141 -16 c-7 -7 -26 7 -26 19 0 6 6 6 15 -2 9 -7
13 -15 11 -17z m-426 2 c-7 -8 -16 -15 -21 -15 -5 0 -9 7 -9 15 0 9 9 15 21
15 18 0 19 -2 9 -15z m132 6 c14 8 23 8 31 0 8 -8 3 -11 -16 -11 -39 0 -55
-41 -21 -53 13 -5 22 -13 19 -17 -3 -5 -12 -7 -20 -3 -11 4 -15 -2 -14 -18 0
-13 3 -18 6 -11 2 6 13 12 24 12 18 0 18 -1 -1 -20 -12 -12 -18 -25 -15 -30 9
-15 25 -12 19 4 -7 19 16 32 27 15 4 -7 11 -10 15 -7 3 4 -1 14 -10 23 -27 27
-20 45 17 45 18 0 39 -6 45 -12 9 -9 15 -10 20 -2 4 6 27 15 52 21 40 10 33
11 -72 12 -80 1 -118 5 -118 12 0 8 43 10 150 7 83 -3 153 -7 155 -10 3 -3 -1
-11 -10 -18 -10 -8 -15 -9 -15 -1 0 6 -8 11 -17 11 -14 0 -18 -9 -19 -35 -1
-37 2 -40 26 -25 11 7 11 10 2 10 -7 0 -10 5 -7 10 4 6 15 8 25 5 12 -4 20 0
23 12 3 10 5 -67 6 -172 1 -104 6 -282 10 -395 5 -113 7 -220 4 -238 -12 -70
-116 -111 -284 -112 -124 0 -192 16 -236 56 l-35 33 5 228 c4 125 7 290 7 366
0 75 4 137 8 137 5 0 7 -24 6 -52 -3 -37 -1 -49 6 -38 13 19 10 111 -3 128 -5
7 -7 16 -3 20 4 4 12 -1 17 -11 12 -21 29 -22 29 -2 0 8 -4 15 -10 15 -5 0
-10 9 -10 20 0 14 -5 18 -17 13 -11 -4 -14 -3 -9 5 4 7 13 12 21 12 7 0 16 7
19 16 3 9 11 12 18 8 17 -11 98 -22 93 -13 -3 4 1 9 7 12 7 3 -5 4 -28 3 -36
-1 -40 1 -36 20 3 19 8 20 49 13 29 -6 52 -5 65 2z"/>
<path d="M1458 1493 c12 -2 30 -2 40 0 9 3 -1 5 -23 4 -22 0 -30 -2 -17 -4z"/>
<path d="M1076 1413 c-9 -59 -7 -151 4 -132 14 23 25 169 13 169 -6 0 -13 -17
-17 -37z"/>
<path d="M1500 1376 c0 -41 5 -78 10 -81 6 -4 10 23 10 74 0 47 -4 81 -10 81
-6 0 -10 -31 -10 -74z"/>
<path d="M1160 1369 c0 -44 4 -68 10 -64 6 3 10 35 10 71 0 36 -4 64 -10 64
-6 0 -10 -30 -10 -71z"/>
<path d="M1269 1418 c0 -7 -1 -34 -1 -60 -1 -36 -5 -48 -16 -48 -8 0 -13 -3
-9 -6 3 -3 15 -3 26 1 18 5 21 14 21 66 0 33 -4 59 -10 59 -5 0 -10 -6 -11
-12z"/>
<path d="M1451 1414 c0 -11 3 -14 6 -6 3 7 2 16 -1 19 -3 4 -6 -2 -5 -13z"/>
<path d="M1132 1404 c-1 -12 -4 -37 -7 -55 -5 -31 -5 -32 5 -9 6 13 9 38 7 55
-2 18 -4 21 -5 9z"/>
<path d="M1210 1340 c0 -13 11 -13 30 0 12 8 11 10 -7 10 -13 0 -23 -4 -23
-10z"/>
<path d="M1126 1139 c3 -6 1 -15 -7 -19 -10 -7 -7 -13 12 -29 29 -24 40 -26
33 -6 -4 8 -10 15 -15 15 -5 0 -9 11 -9 25 0 14 -5 25 -11 25 -5 0 -7 -5 -3
-11z"/>
<path d="M1183 1133 c-26 -5 -31 -23 -7 -23 10 0 14 -6 10 -15 -8 -22 3 -18
24 7 17 21 18 40 2 37 -4 -1 -17 -4 -29 -6z"/>
<path d="M1330 1120 c0 -5 5 -10 11 -10 5 0 7 5 4 10 -3 6 -8 10 -11 10 -2 0
-4 -4 -4 -10z"/>
<path d="M1456 1123 c-11 -3 -26 -11 -34 -19 -11 -12 -10 -14 7 -14 12 0 21 5
21 11 0 6 9 8 20 4 14 -5 20 -2 20 9 0 17 -2 17 -34 9z"/>
<path d="M1350 1100 c-13 -8 -12 -10 3 -10 9 0 17 5 17 10 0 12 -1 12 -20 0z"/>
<path d="M1215 1080 c-3 -5 1 -10 10 -10 9 0 13 5 10 10 -3 6 -8 10 -10 10 -2
0 -7 -4 -10 -10z"/>
<path d="M1523 1083 c-7 -2 -13 -11 -13 -19 0 -9 5 -12 10 -9 6 3 10 2 10 -4
0 -5 -6 -12 -12 -14 -7 -3 -2 -6 11 -6 18 -1 22 3 16 17 -4 9 -8 23 -8 30 0 6
-1 12 -1 11 -1 0 -7 -3 -13 -6z"/>
<path d="M1195 1040 c-3 -5 -1 -10 4 -10 6 0 11 5 11 10 0 6 -2 10 -4 10 -3 0
-8 -4 -11 -10z"/>
<path d="M1482 1030 c0 -14 2 -19 5 -12 2 6 2 18 0 25 -3 6 -5 1 -5 -13z"/>
<path d="M1240 1025 c0 -8 5 -15 10 -15 6 0 10 7 10 15 0 8 -4 15 -10 15 -5 0
-10 -7 -10 -15z"/>
<path d="M1340 1011 c0 -11 5 -23 10 -26 6 -4 7 -11 4 -17 -4 -6 -2 -8 3 -5 6
4 16 20 21 37 10 28 9 30 -14 30 -17 0 -24 -5 -24 -19z m30 0 c0 -6 -4 -12 -8
-15 -5 -3 -9 1 -9 9 0 8 4 15 9 15 4 0 8 -4 8 -9z"/>
<path d="M1407 1023 c-12 -11 -8 -23 7 -23 7 0 19 7 26 15 10 12 9 15 -7 15
-11 0 -23 -3 -26 -7z"/>
<path d="M1552 996 c1 -13 6 -22 10 -20 11 7 10 32 -2 39 -6 3 -9 -4 -8 -19z"/>
<path d="M1516 995 c4 -8 8 -15 10 -15 2 0 4 7 4 15 0 8 -4 15 -10 15 -5 0 -7
-7 -4 -15z"/>
<path d="M1470 987 c0 -8 7 -17 15 -21 8 -3 15 -2 15 3 0 5 -7 14 -15 21 -12
10 -15 10 -15 -3z"/>
<path d="M1110 966 c0 -8 5 -18 10 -21 6 -3 10 1 10 9 0 8 -4 18 -10 21 -5 3
-10 -1 -10 -9z"/>
<path d="M1466 952 c-4 -7 -4 -17 0 -24 4 -7 7 -52 5 -100 -1 -55 2 -88 9 -88
15 0 16 162 1 203 -5 14 -10 17 -15 9z"/>
<path d="M1232 941 c-11 -7 -11 -9 1 -14 9 -3 21 1 27 9 10 11 10 14 -1 14 -8
0 -20 -4 -27 -9z"/>
<path d="M1413 936 c-9 -10 -6 -17 10 -32 l22 -19 -23 -3 c-12 -2 -20 -8 -17
-13 9 -13 45 8 45 26 0 8 -4 15 -10 15 -5 0 -10 7 -10 16 0 8 5 12 10 9 6 -3
10 -1 10 4 0 15 -23 13 -37 -3z"/>
<path d="M1503 935 c-8 -22 6 -33 17 -15 13 20 12 30 0 30 -6 0 -13 -7 -17
-15z"/>
<path d="M1330 929 c0 -5 5 -7 10 -4 6 3 10 8 10 11 0 2 -4 4 -10 4 -5 0 -10
-5 -10 -11z"/>
<path d="M1120 910 c0 -19 3 -21 12 -12 9 9 9 15 0 24 -9 9 -12 7 -12 -12z"/>
<path d="M1085 880 c-3 -5 -1 -10 4 -10 6 0 11 5 11 10 0 6 -2 10 -4 10 -3 0
-8 -4 -11 -10z"/>
<path d="M1186 882 c-2 -4 -1 -14 3 -21 6 -10 10 -9 14 3 6 16 -8 32 -17 18z"/>
<path d="M1435 840 c-3 -5 -1 -10 4 -10 6 0 11 5 11 10 0 6 -2 10 -4 10 -3 0
-8 -4 -11 -10z"/>
<path d="M1270 820 c0 -6 7 -10 15 -10 8 0 15 2 15 4 0 2 -7 6 -15 10 -8 3
-15 1 -15 -4z"/>
<path d="M1125 790 c-3 -5 -1 -10 4 -10 6 0 11 5 11 10 0 6 -2 10 -4 10 -3 0
-8 -4 -11 -10z"/>
<path d="M1186 774 c-9 -24 -7 -54 4 -54 6 0 10 16 10 35 0 38 -4 44 -14 19z"/>
<path d="M1236 762 c8 -33 13 -42 23 -42 13 0 0 58 -15 64 -11 4 -13 -1 -8
-22z"/>
<path d="M1295 780 c-3 -5 -1 -10 4 -10 6 0 11 5 11 10 0 6 -2 10 -4 10 -3 0
-8 -4 -11 -10z"/>
<path d="M1093 725 c4 -33 21 -33 25 0 2 18 -1 25 -13 25 -11 0 -15 -7 -12
-25z"/>
<path d="M1345 730 c3 -5 8 -10 11 -10 2 0 4 5 4 10 0 6 -5 10 -11 10 -5 0 -7
-4 -4 -10z"/>
<path d="M1470 700 c0 -20 5 -30 15 -30 10 0 15 10 15 30 0 20 -5 30 -15 30
-10 0 -15 -10 -15 -30z"/>
<path d="M1531 714 c0 -11 3 -14 6 -6 3 7 2 16 -1 19 -3 4 -6 -2 -5 -13z"/>
<path d="M1170 684 c-6 -14 -10 -53 -9 -87 1 -58 2 -60 9 -22 12 60 20 135 14
135 -2 0 -9 -12 -14 -26z"/>
<path d="M1127 664 c-4 -4 -7 -14 -7 -23 0 -11 3 -12 11 -4 6 6 10 16 7 23 -2
6 -7 8 -11 4z"/>
<path d="M1082 640 c0 -14 2 -19 5 -12 2 6 2 18 0 25 -3 6 -5 1 -5 -13z"/>
<path d="M1510 620 c0 -22 2 -40 4 -40 2 0 6 18 8 40 2 22 0 40 -4 40 -5 0 -8
-18 -8 -40z"/>
<path d="M1464 638 c-4 -7 -3 -8 4 -4 16 9 15 -7 0 -22 -9 -9 -8 -12 5 -12 11
0 17 8 17 25 0 26 -14 33 -26 13z"/>
<path d="M1294 585 c3 -21 46 -35 46 -15 0 6 -5 8 -11 5 -6 -4 -16 1 -24 11
-13 18 -14 18 -11 -1z"/>
<path d="M1360 575 c0 -8 2 -15 4 -15 2 0 6 7 10 15 3 8 1 15 -4 15 -6 0 -10
-7 -10 -15z"/>
<path d="M1552 570 c0 -14 2 -19 5 -12 2 6 2 18 0 25 -3 6 -5 1 -5 -13z"/>
<path d="M1142 495 c0 -16 2 -22 5 -12 2 9 2 23 0 30 -3 6 -5 -1 -5 -18z"/>
<path d="M1549 468 c0 -29 -4 -75 -9 -103 -4 -27 -5 -54 -1 -58 4 -4 8 -2 9 5
1 7 4 33 7 58 12 105 13 140 4 145 -5 4 -9 -16 -10 -47z"/>
<path d="M1167 413 c-11 -10 -8 -43 3 -43 6 0 10 11 10 25 0 26 -2 29 -13 18z"/>
<path d="M1158 322 c-5 -38 7 -64 15 -32 3 12 2 32 -2 43 -7 19 -9 18 -13 -11z"/>
<path d="M630 1510 c0 -5 5 -10 10 -10 6 0 10 5 10 10 0 6 -4 10 -10 10 -5 0
-10 -4 -10 -10z"/>
<path d="M2587 1503 c-4 -3 -7 -11 -7 -17 0 -6 5 -5 12 2 6 6 9 14 7 17 -3 3
-9 2 -12 -2z"/>
<path d="M2612 1473 c-11 -22 -22 -71 -26 -118 -10 -127 -8 -997 3 -1008 5 -5
9 189 10 500 1 514 3 572 28 630 18 45 8 42 -15 -4z"/>
<path d="M2559 1486 c-6 -6 0 -259 7 -265 2 -2 4 43 5 100 0 57 2 111 3 119 4
19 -8 53 -15 46z"/>
<path d="M2657 1469 c7 -7 15 -10 18 -7 3 3 -2 9 -12 12 -14 6 -15 5 -6 -5z"/>
<path d="M635 1460 c3 -5 8 -10 11 -10 2 0 4 5 4 10 0 6 -5 10 -11 10 -5 0 -7
-4 -4 -10z"/>
<path d="M630 1411 c0 -6 4 -11 9 -11 5 0 12 -10 14 -22 4 -16 5 -14 4 6 -2
27 -27 52 -27 27z"/>
<path d="M2470 1351 c0 -12 5 -21 10 -21 6 0 10 6 10 14 0 8 -4 18 -10 21 -5
3 -10 -3 -10 -14z"/>
<path d="M2626 1354 c-4 -9 -4 -19 -1 -22 2 -3 7 3 11 12 4 9 4 19 1 22 -2 3
-7 -3 -11 -12z"/>
<path d="M636 1314 c-5 -14 -4 -15 9 -4 17 14 19 20 6 20 -5 0 -12 -7 -15 -16z"/>
<path d="M2481 1264 c0 -11 3 -14 6 -6 3 7 2 16 -1 19 -3 4 -6 -2 -5 -13z"/>
<path d="M4375 1270 c-3 -5 -1 -10 4 -10 6 0 11 5 11 10 0 6 -2 10 -4 10 -3 0
-8 -4 -11 -10z"/>
<path d="M645 1220 c3 -5 8 -10 11 -10 2 0 4 5 4 10 0 6 -5 10 -11 10 -5 0 -7
-4 -4 -10z"/>
<path d="M635 1025 c0 -25 3 -45 8 -45 4 0 5 -5 1 -12 -5 -7 -3 -8 5 -3 9 5 9
11 3 17 -7 7 -7 18 1 35 8 18 7 27 -4 38 -12 12 -14 8 -14 -30z"/>
<path d="M640 921 c0 -6 4 -13 10 -16 6 -3 7 1 4 9 -7 18 -14 21 -14 7z"/>
<path d="M640 846 c0 -8 4 -17 9 -20 5 -4 7 3 4 14 -6 23 -13 26 -13 6z"/>
<path d="M651 734 c0 -11 3 -14 6 -6 3 7 2 16 -1 19 -3 4 -6 -2 -5 -13z"/>
<path d="M2622 690 c0 -14 2 -19 5 -12 2 6 2 18 0 25 -3 6 -5 1 -5 -13z"/>
<path d="M646 545 c-3 -8 -1 -15 4 -15 6 0 10 7 10 15 0 8 -2 15 -4 15 -2 0
-6 -7 -10 -15z"/>
<path d="M2612 483 c3 -17 59 -18 988 -20 542 0 974 3 960 7 -15 5 79 9 225 9
341 0 335 0 335 11 0 7 -425 10 -1256 10 -1190 0 -1255 -1 -1252 -17z m425 -9
c-3 -3 -12 -4 -19 -1 -8 3 -5 6 6 6 11 1 17 -2 13 -5z m40 0 c-3 -3 -12 -4
-19 -1 -8 3 -5 6 6 6 11 1 17 -2 13 -5z m76 -1 c-13 -2 -33 -2 -45 0 -13 2 -3
4 22 4 25 0 35 -2 23 -4z m75 0 c-10 -2 -26 -2 -35 0 -10 3 -2 5 17 5 19 0 27
-2 18 -5z m49 1 c-3 -3 -12 -4 -19 -1 -8 3 -5 6 6 6 11 1 17 -2 13 -5z m86 -1
c-7 -2 -19 -2 -25 0 -7 3 -2 5 12 5 14 0 19 -2 13 -5z m375 0 c-38 -2 -98 -2
-135 0 -38 2 -7 3 67 3 74 0 105 -1 68 -3z m160 0 c-15 -2 -42 -2 -60 0 -18 2
-6 4 27 4 33 0 48 -2 33 -4z m59 1 c-3 -3 -12 -4 -19 -1 -8 3 -5 6 6 6 11 1
17 -2 13 -5z m191 -1 c-10 -2 -26 -2 -35 0 -10 3 -2 5 17 5 19 0 27 -2 18 -5z
m300 0 c-49 -2 -127 -2 -175 0 -49 1 -9 3 87 3 96 0 136 -2 88 -3z"/>
<path d="M3483 443 c-601 -2 -873 -6 -873 -14 0 -10 1073 -5 2060 10 l455 8
-385 -1 c-212 -1 -778 -2 -1257 -3z"/>
<path d="M1948 403 c7 -3 16 -2 19 1 4 3 -2 6 -13 5 -11 0 -14 -3 -6 -6z"/>
<path d="M2968 403 c7 -3 16 -2 19 1 4 3 -2 6 -13 5 -11 0 -14 -3 -6 -6z"/>
<path d="M4380 390 c0 -5 5 -10 11 -10 5 0 7 5 4 10 -3 6 -8 10 -11 10 -2 0
-4 -4 -4 -10z"/>
<path d="M4496 388 c3 -4 11 -5 19 -1 21 7 19 12 -4 10 -11 0 -18 -5 -15 -9z"/>
<path d="M4695 390 c-4 -6 3 -10 14 -10 25 0 27 6 6 13 -8 4 -17 2 -20 -3z"/>
<path d="M2048 383 c7 -3 16 -2 19 1 4 3 -2 6 -13 5 -11 0 -14 -3 -6 -6z"/>
<path d="M2868 383 c7 -3 16 -2 19 1 4 3 -2 6 -13 5 -11 0 -14 -3 -6 -6z"/>
<path d="M1740 370 c-13 -8 -12 -10 3 -10 9 0 17 5 17 10 0 12 -1 12 -20 0z"/>
<path d="M1810 370 c0 -5 5 -10 10 -10 6 0 10 5 10 10 0 6 -4 10 -10 10 -5 0
-10 -4 -10 -10z"/>
<path d="M1855 370 c3 -5 8 -10 11 -10 2 0 4 5 4 10 0 6 -5 10 -11 10 -5 0 -7
-4 -4 -10z"/>
<path d="M3990 369 c0 -5 5 -7 10 -4 6 3 10 8 10 11 0 2 -4 4 -10 4 -5 0 -10
-5 -10 -11z"/>
<path d="M4155 370 c3 -5 8 -10 11 -10 2 0 4 5 4 10 0 6 -5 10 -11 10 -5 0 -7
-4 -4 -10z"/>
<path d="M4185 370 c-4 -6 3 -10 14 -10 25 0 27 6 6 13 -8 4 -17 2 -20 -3z"/>
<path d="M4630 370 c0 -5 5 -10 11 -10 5 0 7 5 4 10 -3 6 -8 10 -11 10 -2 0
-4 -4 -4 -10z"/>
<path d="M4790 370 c0 -5 5 -10 10 -10 6 0 10 5 10 10 0 6 -4 10 -10 10 -5 0
-10 -4 -10 -10z"/>
<path d="M1910 366 c0 -2 14 -6 30 -8 17 -3 30 -1 30 4 0 4 -13 8 -30 8 -16 0
-30 -2 -30 -4z"/>
<path d="M4268 363 c7 -3 16 -2 19 1 4 3 -2 6 -13 5 -11 0 -14 -3 -6 -6z"/>
<path d="M2010 350 c25 -8 117 -13 109 -6 -2 2 -33 6 -69 9 -40 3 -56 2 -40
-3z"/>
<path d="M2635 350 c-3 -5 -1 -10 4 -10 6 0 11 5 11 10 0 6 -2 10 -4 10 -3 0
-8 -4 -11 -10z"/>
<path d="M2664 348 c-3 -5 16 -8 42 -8 26 0 45 3 41 6 -9 9 -78 11 -83 2z"/>
<path d="M2764 348 c-3 -4 13 -8 35 -8 23 0 41 2 41 4 0 8 -71 12 -76 4z"/>
<path d="M2940 351 c0 -5 9 -7 20 -4 11 3 20 7 20 9 0 2 -9 4 -20 4 -11 0 -20
-4 -20 -9z"/>
<path d="M3100 350 c0 -6 7 -10 15 -10 8 0 15 2 15 4 0 2 -7 6 -15 10 -8 3
-15 1 -15 -4z"/>
<path d="M3388 353 c12 -2 30 -2 40 0 9 3 -1 5 -23 4 -22 0 -30 -2 -17 -4z"/>
<path d="M3828 353 c6 -2 18 -2 25 0 6 3 1 5 -13 5 -14 0 -19 -2 -12 -5z"/>
<path d="M4343 353 c9 -2 25 -2 35 0 9 3 1 5 -18 5 -19 0 -27 -2 -17 -5z"/>
<path d="M4468 353 c6 -2 18 -2 25 0 6 3 1 5 -13 5 -14 0 -19 -2 -12 -5z"/>
<path d="M4958 353 c7 -3 16 -2 19 1 4 3 -2 6 -13 5 -11 0 -14 -3 -6 -6z"/>
<path d="M5000 350 c8 -5 20 -10 25 -10 6 0 3 5 -5 10 -8 5 -19 10 -25 10 -5
0 -3 -5 5 -10z"/>
<path d="M2566 341 c-4 -5 2 -14 11 -20 16 -9 16 -12 3 -21 -10 -6 -11 -10 -2
-10 7 0 12 -13 12 -30 0 -22 -5 -30 -17 -30 -29 0 -43 14 -38 38 4 23 -9 30
-20 11 -13 -19 4 -59 25 -59 12 0 20 -7 20 -17 0 -16 2 -16 10 -3 9 13 12 13
24 -2 20 -27 24 -22 15 25 -4 23 -5 53 -2 67 5 27 -29 70 -41 51z"/>
<path d="M2863 343 c9 -2 23 -2 30 0 6 3 -1 5 -18 5 -16 0 -22 -2 -12 -5z"/>
<path d="M2998 343 c6 -2 18 -2 25 0 6 3 1 5 -13 5 -14 0 -19 -2 -12 -5z"/>
<path d="M3158 343 c6 -2 18 -2 25 0 6 3 1 5 -13 5 -14 0 -19 -2 -12 -5z"/>
<path d="M3220 346 c0 -2 9 -6 20 -9 11 -3 18 -1 14 4 -5 9 -34 13 -34 5z"/>
<path d="M3888 343 c7 -3 16 -2 19 1 4 3 -2 6 -13 5 -11 0 -14 -3 -6 -6z"/>
<path d="M4105 340 c3 -5 10 -10 16 -10 5 0 9 5 9 10 0 6 -7 10 -16 10 -8 0
-12 -4 -9 -10z"/>
<path d="M4686 342 c-3 -5 1 -9 9 -9 8 0 15 4 15 9 0 4 -4 8 -9 8 -6 0 -12 -4
-15 -8z"/>
<path d="M4855 340 c3 -5 8 -10 11 -10 2 0 4 5 4 10 0 6 -5 10 -11 10 -5 0 -7
-4 -4 -10z"/>
<path d="M1708 333 c7 -3 16 -2 19 1 4 3 -2 6 -13 5 -11 0 -14 -3 -6 -6z"/>
<path d="M2218 333 c7 -3 16 -2 19 1 4 3 -2 6 -13 5 -11 0 -14 -3 -6 -6z"/>
<path d="M878 313 c7 -3 16 -2 19 1 4 3 -2 6 -13 5 -11 0 -14 -3 -6 -6z"/>
<path d="M1950 310 c-13 -8 -12 -10 3 -10 9 0 17 5 17 10 0 12 -1 12 -20 0z"/>
<path d="M1993 303 c9 -2 25 -2 35 0 9 3 1 5 -18 5 -19 0 -27 -2 -17 -5z"/>
<path d="M2078 303 c7 -3 16 -2 19 1 4 3 -2 6 -13 5 -11 0 -14 -3 -6 -6z"/>
<path d="M2449 294 c-7 -9 -6 -12 8 -9 10 2 21 4 26 4 4 1 7 5 7 9 0 13 -29
10 -41 -4z"/>
<path d="M4018 303 c7 -3 16 -2 19 1 4 3 -2 6 -13 5 -11 0 -14 -3 -6 -6z"/>
<path d="M4068 303 c6 -2 18 -2 25 0 6 3 1 5 -13 5 -14 0 -19 -2 -12 -5z"/>
<path d="M4820 306 c0 -2 7 -7 16 -10 8 -3 12 -2 9 4 -6 10 -25 14 -25 6z"/>
<path d="M3358 293 c6 -2 18 -2 25 0 6 3 1 5 -13 5 -14 0 -19 -2 -12 -5z"/>
<path d="M4448 293 c7 -3 16 -2 19 1 4 3 -2 6 -13 5 -11 0 -14 -3 -6 -6z"/>
<path d="M4760 288 c0 -4 4 -8 9 -8 6 0 12 4 15 8 3 5 -1 9 -9 9 -8 0 -15 -4
-15 -9z"/>
<path d="M5080 289 c0 -5 5 -7 10 -4 6 3 10 8 10 11 0 2 -4 4 -10 4 -5 0 -10
-5 -10 -11z"/>
<path d="M2274 280 c15 -5 52 -11 80 -13 29 -2 57 -6 62 -10 5 -3 10 3 10 14
0 21 -11 25 -21 9 -4 -6 -9 -8 -13 -6 -4 2 -38 6 -77 9 -48 4 -61 3 -41 -3z"/>
<path d="M2834 278 c-3 -4 2 -8 10 -8 8 0 17 4 20 8 3 5 -2 9 -10 9 -8 0 -17
-4 -20 -9z"/>
<path d="M2918 283 c6 -2 18 -2 25 0 6 3 1 5 -13 5 -14 0 -19 -2 -12 -5z"/>
<path d="M1650 268 c0 -5 28 -7 63 -7 67 1 60 6 -15 11 -27 2 -48 0 -48 -4z"/>
<path d="M2088 273 c12 -2 30 -2 40 0 9 3 -1 5 -23 4 -22 0 -30 -2 -17 -4z"/>
<path d="M2168 273 c6 -2 18 -2 25 0 6 3 1 5 -13 5 -14 0 -19 -2 -12 -5z"/>
<path d="M2477 261 c-4 -17 -3 -21 5 -13 5 5 8 16 6 23 -3 8 -7 3 -11 -10z"/>
<path d="M3850 269 c0 -5 5 -7 10 -4 6 3 10 8 10 11 0 2 -4 4 -10 4 -5 0 -10
-5 -10 -11z"/>
<path d="M4070 268 c0 -10 51 -10 67 0 6 4 -6 7 -28 7 -21 0 -39 -3 -39 -7z"/>
<path d="M1010 260 c-9 -6 -10 -10 -3 -10 7 0 11 -19 11 -55 0 -30 -4 -52 -9
-50 -4 3 -11 0 -14 -6 -4 -5 -13 -8 -21 -5 -7 3 -16 1 -19 -4 -4 -6 -11 -10
-17 -10 -7 0 -6 6 2 15 10 12 10 15 -4 15 -9 0 -16 -4 -16 -10 0 -5 -9 -10
-20 -10 -11 0 -20 -4 -20 -10 0 -5 -5 -10 -11 -10 -5 0 -8 4 -5 8 3 5 -10 9
-29 10 -41 2 -47 -15 -7 -21 15 -2 -5 -5 -45 -6 -84 -1 -104 -7 -96 -28 4 -9
8 -11 12 -4 6 9 259 35 329 33 20 0 23 4 18 22 -3 11 -6 49 -6 84 0 63 -3 69
-30 52z"/>
<path d="M1798 263 c12 -2 30 -2 40 0 9 3 -1 5 -23 4 -22 0 -30 -2 -17 -4z"/>
<path d="M2940 259 c-74 -5 -73 -5 32 -7 58 -1 115 -5 125 -9 10 -3 15 -3 11
2 -13 14 -89 20 -168 14z"/>
<path d="M3498 263 c7 -3 16 -2 19 1 4 3 -2 6 -13 5 -11 0 -14 -3 -6 -6z"/>
<path d="M3908 263 c6 -2 18 -2 25 0 6 3 1 5 -13 5 -14 0 -19 -2 -12 -5z"/>
<path d="M3973 263 c9 -2 23 -2 30 0 6 3 -1 5 -18 5 -16 0 -22 -2 -12 -5z"/>
<path d="M4190 260 c0 -5 5 -10 10 -10 6 0 10 5 10 10 0 6 -4 10 -10 10 -5 0
-10 -4 -10 -10z"/>
<path d="M4228 263 c7 -3 16 -2 19 1 4 3 -2 6 -13 5 -11 0 -14 -3 -6 -6z"/>
<path d="M4264 263 c9 -9 106 -10 106 -1 0 5 -25 8 -57 8 -31 0 -53 -3 -49 -7z"/>
<path d="M4398 263 c6 -2 18 -2 25 0 6 3 1 5 -13 5 -14 0 -19 -2 -12 -5z"/>
<path d="M4448 263 c6 -2 18 -2 25 0 6 3 1 5 -13 5 -14 0 -19 -2 -12 -5z"/>
<path d="M2235 250 c3 -5 8 -10 11 -10 2 0 4 5 4 10 0 6 -5 10 -11 10 -5 0 -7
-4 -4 -10z"/>
<path d="M2765 250 c3 -5 8 -10 11 -10 2 0 4 5 4 10 0 6 -5 10 -11 10 -5 0 -7
-4 -4 -10z"/>
<path d="M2800 250 c0 -5 10 -10 23 -10 18 0 19 2 7 10 -19 13 -30 13 -30 0z"/>
<path d="M4543 253 c9 -2 23 -2 30 0 6 3 -1 5 -18 5 -16 0 -22 -2 -12 -5z"/>
<path d="M1555 240 c-3 -5 -1 -10 4 -10 6 0 11 5 11 10 0 6 -2 10 -4 10 -3 0
-8 -4 -11 -10z"/>
<path d="M2320 240 c8 -5 20 -10 25 -10 6 0 3 5 -5 10 -8 5 -19 10 -25 10 -5
0 -3 -5 5 -10z"/>
<path d="M3130 239 c0 -5 5 -7 10 -4 6 3 10 8 10 11 0 2 -4 4 -10 4 -5 0 -10
-5 -10 -11z"/>
<path d="M3168 238 c6 -6 18 -8 28 -6 14 3 12 5 -9 10 -19 3 -25 2 -19 -4z"/>
<path d="M3233 228 c16 -10 157 -10 157 0 0 4 -38 7 -84 7 -46 0 -79 -3 -73
-7z"/>
<path d="M3400 230 c0 -9 166 -7 175 2 4 4 -34 6 -84 6 -50 0 -91 -4 -91 -8z"/>
<path d="M3808 233 c12 -2 30 -2 40 0 9 3 -1 5 -23 4 -22 0 -30 -2 -17 -4z"/>
<path d="M3978 233 c7 -3 16 -2 19 1 4 3 -2 6 -13 5 -11 0 -14 -3 -6 -6z"/>
<path d="M4080 236 c0 -2 7 -7 16 -10 8 -3 12 -2 9 4 -6 10 -25 14 -25 6z"/>
<path d="M2683 223 c9 -2 25 -2 35 0 9 3 1 5 -18 5 -19 0 -27 -2 -17 -5z"/>
<path d="M2750 218 c0 -5 6 -8 14 -5 7 3 17 2 22 -3 26 -23 164 -17 141 7 -5
4 -11 2 -15 -4 -7 -10 -36 -8 -134 11 -16 2 -28 0 -28 -6z"/>
<path d="M4163 223 c15 -2 37 -2 50 0 12 2 0 4 -28 4 -27 0 -38 -2 -22 -4z"/>
<path d="M4253 223 c9 -2 23 -2 30 0 6 3 -1 5 -18 5 -16 0 -22 -2 -12 -5z"/>
<path d="M4314 223 c10 -11 36 -12 36 -2 0 5 -10 9 -22 9 -12 0 -18 -3 -14 -7z"/>
<path d="M4495 220 c-16 -7 -17 -9 -3 -9 9 -1 20 4 23 9 7 11 7 11 -20 0z"/>
<path d="M827 209 c7 -7 15 -10 18 -7 3 3 -2 9 -12 12 -14 6 -15 5 -6 -5z"/>
<path d="M1500 210 c-13 -8 -13 -10 2 -10 9 0 20 5 23 10 8 13 -5 13 -25 0z"/>
<path d="M1875 211 c-3 -5 -1 -12 5 -16 5 -3 10 1 10 9 0 18 -6 21 -15 7z"/>
<path d="M2010 210 c-41 -7 -38 -8 30 -9 41 -1 92 -1 113 -1 27 1 37 -3 32
-11 -5 -8 -2 -8 11 -1 11 5 35 8 54 6 l35 -4 -30 10 c-39 13 -187 19 -245 10z"/>
<path d="M2435 209 c-16 -5 -66 -16 -110 -25 -103 -20 -173 -40 -202 -59 -26
-17 -30 -47 -9 -64 24 -20 125 -50 189 -56 74 -6 68 -3 -36 20 -43 10 -76 19
-74 21 4 4 202 -13 252 -23 49 -9 135 -9 319 0 116 5 147 10 185 29 31 15 47
30 49 45 5 34 -55 58 -209 87 -74 13 -143 27 -154 32 -18 6 -19 5 -4 -10 10
-11 61 -24 158 -40 131 -22 191 -43 191 -66 0 -15 -41 -38 -94 -51 -43 -11
-50 -10 -61 4 -7 10 -28 17 -51 18 -21 1 -31 3 -21 6 21 6 13 23 -11 23 -11 0
-18 -8 -19 -20 -1 -12 4 -20 15 -20 12 0 13 -3 4 -12 -8 -8 -56 -13 -145 -14
-72 -1 -109 0 -82 2 154 11 195 17 195 25 0 5 -16 9 -35 9 -19 0 -35 -4 -35
-8 0 -5 -21 -8 -47 -6 -27 2 -83 3 -125 4 -42 0 -80 5 -83 10 -4 7 2 9 18 5
14 -4 28 -2 31 4 11 17 -49 13 -92 -5 -27 -11 -53 -14 -96 -9 -41 4 -61 3 -66
-5 -6 -9 -13 -9 -26 -1 -16 9 -16 10 -3 11 9 0 22 6 28 14 10 12 6 13 -25 9
-25 -3 -34 -2 -30 6 13 21 61 39 146 56 163 32 220 47 220 56 0 11 -15 10 -55
-2z"/>
<path d="M3608 213 c12 -2 30 -2 40 0 9 3 -1 5 -23 4 -22 0 -30 -2 -17 -4z"/>
<path d="M3705 210 c-3 -5 -1 -10 4 -10 6 0 11 5 11 10 0 6 -2 10 -4 10 -3 0
-8 -4 -11 -10z"/>
<path d="M4438 213 c7 -3 16 -2 19 1 4 3 -2 6 -13 5 -11 0 -14 -3 -6 -6z"/>
<path d="M4538 213 c7 -3 16 -2 19 1 4 3 -2 6 -13 5 -11 0 -14 -3 -6 -6z"/>
<path d="M868 203 c7 -3 16 -2 19 1 4 3 -2 6 -13 5 -11 0 -14 -3 -6 -6z"/>
<path d="M920 200 c8 -5 22 -9 30 -9 10 0 8 3 -5 9 -27 12 -43 12 -25 0z"/>
<path d="M1060 200 c0 -5 5 -10 10 -10 6 0 10 5 10 10 0 6 -4 10 -10 10 -5 0
-10 -4 -10 -10z"/>
<path d="M1630 200 c0 -5 5 -10 11 -10 5 0 7 5 4 10 -3 6 -8 10 -11 10 -2 0
-4 -4 -4 -10z"/>
<path d="M1720 200 c-12 -8 -10 -10 8 -10 13 0 20 4 17 10 -7 12 -6 12 -25 0z"/>
<path d="M1808 198 c5 -5 16 -8 23 -6 8 3 3 7 -10 11 -17 4 -21 3 -13 -5z"/>
<path d="M1945 200 c-3 -5 -1 -10 4 -10 6 0 11 5 11 10 0 6 -2 10 -4 10 -3 0
-8 -4 -11 -10z"/>
<path d="M2500 199 c0 -6 -7 -17 -15 -26 -8 -8 -13 -19 -10 -24 4 -5 0 -9 -8
-9 -8 0 -20 -7 -27 -15 -16 -19 -11 -19 63 6 73 25 86 34 35 26 -29 -4 -36 -3
-31 9 3 8 11 14 19 14 8 0 11 6 8 15 -7 17 -34 21 -34 4z"/>
<path d="M3118 203 c12 -2 30 -2 40 0 9 3 -1 5 -23 4 -22 0 -30 -2 -17 -4z"/>
<path d="M3213 195 c28 -10 82 -15 188 -16 83 -1 153 2 156 5 4 3 -34 6 -83 7
-150 2 -238 6 -269 13 -23 5 -21 3 8 -9z"/>
<path d="M3750 199 c-22 -6 -20 -7 13 -8 38 -1 47 3 25 11 -7 3 -24 1 -38 -3z"/>
<path d="M4058 203 c7 -3 16 -2 19 1 4 3 -2 6 -13 5 -11 0 -14 -3 -6 -6z"/>
<path d="M1091 196 c2 -2 18 -6 34 -10 22 -5 26 -4 15 4 -14 9 -59 15 -49 6z"/>
<path d="M1448 193 c7 -3 16 -2 19 1 4 3 -2 6 -13 5 -11 0 -14 -3 -6 -6z"/>
<path d="M1668 193 c6 -2 18 -2 25 0 6 3 1 5 -13 5 -14 0 -19 -2 -12 -5z"/>
<path d="M3030 196 c0 -9 40 -13 46 -5 3 5 -6 9 -20 9 -14 0 -26 -2 -26 -4z"/>
<path d="M3818 193 c6 -2 18 -2 25 0 6 3 1 5 -13 5 -14 0 -19 -2 -12 -5z"/>
<path d="M4598 193 c7 -3 16 -2 19 1 4 3 -2 6 -13 5 -11 0 -14 -3 -6 -6z"/>
<path d="M4668 193 c7 -3 16 -2 19 1 4 3 -2 6 -13 5 -11 0 -14 -3 -6 -6z"/>
<path d="M1165 180 c3 -5 20 -10 36 -10 18 0 28 4 24 10 -3 6 -20 10 -36 10
-18 0 -28 -4 -24 -10z"/>
<path d="M1262 183 c-36 -7 -17 -20 24 -15 25 3 32 7 23 13 -8 5 -16 8 -19 7
-3 0 -15 -3 -28 -5z"/>
<path d="M1366 181 c-16 -3 -31 -11 -33 -18 -4 -10 18 -5 87 20 21 8 -17 6
-54 -2z"/>
<path d="M2940 180 c-8 -5 -10 -10 -5 -10 6 0 17 5 25 10 8 5 11 10 5 10 -5 0
-17 -5 -25 -10z"/>
<path d="M3603 183 c9 -2 25 -2 35 0 9 3 1 5 -18 5 -19 0 -27 -2 -17 -5z"/>
<path d="M3668 183 c6 -2 18 -2 25 0 6 3 1 5 -13 5 -14 0 -19 -2 -12 -5z"/>
<path d="M3978 183 c12 -2 32 -2 45 0 12 2 2 4 -23 4 -25 0 -35 -2 -22 -4z"/>
<path d="M273 173 c9 -2 23 -2 30 0 6 3 -1 5 -18 5 -16 0 -22 -2 -12 -5z"/>
<path d="M1555 170 c-3 -5 -25 -10 -48 -10 -28 -1 -37 -3 -27 -9 23 -13 90 -1
90 15 0 16 -6 18 -15 4z"/>
<path d="M3003 165 c0 -8 4 -12 9 -9 5 3 6 10 3 15 -9 13 -12 11 -12 -6z"/>
<path d="M4050 177 c3 -2 50 -8 105 -11 55 -4 97 -4 93 0 -4 3 -51 8 -105 11
-54 3 -96 3 -93 0z"/>
<path d="M4273 169 c-10 -4 36 -8 101 -8 66 -1 117 2 113 5 -8 9 -193 11 -214
3z"/>
<path d="M5023 173 c15 -2 37 -2 50 0 12 2 0 4 -28 4 -27 0 -38 -2 -22 -4z"/>
<path d="M675 161 c-2 -4 10 -8 26 -9 16 -1 29 -1 29 2 0 7 -50 13 -55 7z"/>
<path d="M2620 160 c0 -5 -9 -10 -21 -10 -13 0 -23 -8 -26 -21 -5 -18 -12 -20
-51 -17 -31 2 -47 -1 -50 -10 -3 -10 8 -12 44 -10 39 2 51 8 60 25 6 13 13 20
16 17 7 -6 88 -17 88 -11 0 2 -13 13 -30 25 -16 13 -30 18 -30 12z"/>
<path d="M3688 163 c7 -3 16 -2 19 1 4 3 -2 6 -13 5 -11 0 -14 -3 -6 -6z"/>
<path d="M3721 166 c8 -8 78 -10 85 -3 4 4 -14 7 -41 7 -27 0 -46 -2 -44 -4z"/>
<path d="M3838 163 c7 -3 16 -2 19 1 4 3 -2 6 -13 5 -11 0 -14 -3 -6 -6z"/>
<path d="M3920 160 c-12 -7 -10 -9 7 -7 12 0 19 5 17 9 -6 10 -6 10 -24 -2z"/>
<path d="M4508 163 c6 -2 18 -2 25 0 6 3 1 5 -13 5 -14 0 -19 -2 -12 -5z"/>
<path d="M4560 166 c0 -2 18 -6 40 -8 22 -2 40 0 40 4 0 5 -18 8 -40 8 -22 0
-40 -2 -40 -4z"/>
<path d="M4835 160 c3 -5 11 -10 16 -10 6 0 7 5 4 10 -3 6 -11 10 -16 10 -6 0
-7 -4 -4 -10z"/>
<path d="M770 156 c0 -8 48 -12 66 -5 13 5 7 8 -23 8 -24 1 -43 -1 -43 -3z"/>
<path d="M1094 152 c3 -5 2 -12 -3 -14 -4 -1 -11 -13 -15 -25 -6 -18 -4 -22 8
-17 8 3 23 1 33 -5 11 -6 13 -11 5 -11 -7 0 -11 -4 -8 -9 4 -5 39 -15 79 -21
116 -20 317 0 317 32 0 6 7 8 15 4 8 -3 22 -3 30 0 17 7 21 34 5 34 -5 0 -10
-7 -10 -16 0 -11 -6 -14 -22 -8 -13 4 -86 6 -163 5 -145 -3 -280 13 -269 31 4
6 26 8 55 4 31 -4 49 -3 49 4 0 5 -11 10 -24 10 -13 0 -38 3 -56 7 -22 4 -31
3 -26 -5z m198 -75 c64 -3 90 -16 37 -18 -73 -3 -125 3 -139 17 -13 13 -11 14
15 9 17 -3 56 -7 87 -8z m133 -7 c-11 -5 -27 -9 -35 -9 -9 0 -8 4 5 9 11 5 27
9 35 9 9 0 8 -4 -5 -9z"/>
<path d="M1413 153 c-18 -2 -33 -9 -33 -14 0 -15 73 -6 78 9 2 6 0 11 -5 10
-4 0 -23 -3 -40 -5z"/>
<path d="M1738 153 c6 -2 18 -2 25 0 6 3 1 5 -13 5 -14 0 -19 -2 -12 -5z"/>
<path d="M3100 150 c0 -5 14 -8 30 -8 35 1 32 9 -5 13 -14 2 -25 -1 -25 -5z"/>
<path d="M3293 153 c9 -2 23 -2 30 0 6 3 -1 5 -18 5 -16 0 -22 -2 -12 -5z"/>
<path d="M3998 153 c7 -3 16 -2 19 1 4 3 -2 6 -13 5 -11 0 -14 -3 -6 -6z"/>
<path d="M878 143 c7 -3 16 -2 19 1 4 3 -2 6 -13 5 -11 0 -14 -3 -6 -6z"/>
<path d="M1268 143 c7 -3 16 -2 19 1 4 3 -2 6 -13 5 -11 0 -14 -3 -6 -6z"/>
<path d="M2325 139 c-78 -19 -117 -30 -113 -34 6 -6 129 14 153 24 11 5 27 12
35 14 26 9 -34 5 -75 -4z"/>
<path d="M3398 143 c7 -3 16 -2 19 1 4 3 -2 6 -13 5 -11 0 -14 -3 -6 -6z"/>
<path d="M3434 138 c-4 -6 -2 -8 4 -4 6 3 13 3 16 -2 3 -5 49 -9 103 -11 54
-1 95 0 92 4 -4 3 -40 6 -80 7 -41 1 -86 5 -101 9 -17 5 -30 3 -34 -3z"/>
<path d="M595 130 c-3 -5 -1 -10 4 -10 6 0 11 5 11 10 0 6 -2 10 -4 10 -3 0
-8 -4 -11 -10z"/>
<path d="M3664 129 c-2 -4 12 -7 31 -7 19 0 35 3 35 7 0 8 -60 9 -66 0z"/>
<path d="M4174 128 c-6 -10 13 -9 46 2 23 8 22 8 -8 7 -19 -1 -36 -5 -38 -9z"/>
<path d="M4370 130 c0 -5 7 -10 16 -10 8 0 12 5 9 10 -3 6 -10 10 -16 10 -5 0
-9 -4 -9 -10z"/>
<path d="M4810 129 c0 -5 9 -9 20 -9 11 0 20 2 20 4 0 2 -9 6 -20 9 -11 3 -20
1 -20 -4z"/>
<path d="M4978 133 c7 -3 16 -2 19 1 4 3 -2 6 -13 5 -11 0 -14 -3 -6 -6z"/>
<path d="M650 120 c-13 -8 -12 -10 3 -10 9 0 17 5 17 10 0 12 -1 12 -20 0z"/>
<path d="M3018 90 c-3 -29 -9 -38 -40 -53 -41 -19 -53 -44 -15 -31 12 5 38 8
57 8 31 -1 32 0 12 9 -26 12 -28 22 -7 31 8 3 12 12 9 21 -4 9 -1 15 7 15 11
0 11 3 -1 10 -10 7 8 10 60 9 51 0 69 -3 55 -9 -18 -8 -18 -9 5 -8 14 0 67 -1
118 -2 51 -1 96 1 99 4 4 3 -27 7 -68 8 -41 0 -85 3 -99 5 -14 2 -62 7 -107
11 l-82 7 -3 -35z"/>
<path d="M3270 120 c0 -5 7 -10 16 -10 8 0 12 5 9 10 -3 6 -10 10 -16 10 -5 0
-9 -4 -9 -10z"/>
<path d="M3310 120 c0 -5 5 -10 10 -10 6 0 10 5 10 10 0 6 -4 10 -10 10 -5 0
-10 -4 -10 -10z"/>
<path d="M3340 120 c0 -5 17 -10 38 -9 30 0 33 2 17 9 -28 12 -55 12 -55 0z"/>
<path d="M3741 125 c3 -3 75 -7 160 -9 96 -3 135 -2 104 3 -59 10 -272 14
-264 6z"/>
<path d="M4675 120 c7 -12 52 -14 58 -2 3 4 -11 8 -30 10 -21 1 -32 -2 -28 -8z"/>
<path d="M238 113 c7 -3 16 -2 19 1 4 3 -2 6 -13 5 -11 0 -14 -3 -6 -6z"/>
<path d="M2590 113 c1 -26 20 -36 64 -31 54 6 65 13 48 30 -9 9 -12 9 -12 0 0
-8 -17 -12 -46 -12 -27 0 -43 4 -39 10 3 6 1 10 -4 10 -6 0 -11 -3 -11 -7z"/>
<path d="M2808 113 c6 -2 18 -2 25 0 6 3 1 5 -13 5 -14 0 -19 -2 -12 -5z"/>
<path d="M4755 110 c3 -5 8 -10 11 -10 2 0 4 5 4 10 0 6 -5 10 -11 10 -5 0 -7
-4 -4 -10z"/>
<path d="M2912 94 c-7 -8 -8 -14 -3 -14 10 0 25 19 20 25 -2 1 -10 -3 -17 -11z"/>
<path d="M3415 100 c-3 -6 1 -7 9 -4 18 7 21 14 7 14 -6 0 -13 -4 -16 -10z"/>
<path d="M4318 103 c6 -2 18 -2 25 0 6 3 1 5 -13 5 -14 0 -19 -2 -12 -5z"/>
<path d="M4408 103 c7 -3 16 -2 19 1 4 3 -2 6 -13 5 -11 0 -14 -3 -6 -6z"/>
<path d="M4458 103 c12 -2 30 -2 40 0 9 3 -1 5 -23 4 -22 0 -30 -2 -17 -4z"/>
<path d="M4528 103 c7 -3 16 -2 19 1 4 3 -2 6 -13 5 -11 0 -14 -3 -6 -6z"/>
<path d="M4573 103 c9 -2 23 -2 30 0 6 3 -1 5 -18 5 -16 0 -22 -2 -12 -5z"/>
<path d="M4628 103 c7 -3 16 -2 19 1 4 3 -2 6 -13 5 -11 0 -14 -3 -6 -6z"/>
<path d="M4800 102 c0 -5 7 -9 15 -9 8 0 12 4 9 9 -7 10 -24 10 -24 0z"/>
<path d="M4958 103 c6 -2 18 -2 25 0 6 3 1 5 -13 5 -14 0 -19 -2 -12 -5z"/>
<path d="M5025 100 c-3 -6 1 -7 9 -4 18 7 21 14 7 14 -6 0 -13 -4 -16 -10z"/>
<path d="M1705 90 c-18 -8 -17 -9 8 -9 16 -1 26 3 22 9 -3 6 -7 10 -8 9 -1 0
-11 -4 -22 -9z"/>
<path d="M3476 83 c-7 -17 5 -17 28 0 16 12 16 13 -3 13 -11 0 -23 -6 -25 -13z"/>
<path d="M3580 90 c8 -5 24 -9 35 -9 l20 0 -20 9 c-11 5 -27 9 -35 9 -13 1
-13 0 0 -9z"/>
<path d="M600 80 l-45 -7 40 -1 c22 0 49 3 60 8 23 10 9 10 -55 0z"/>
<path d="M1778 83 c7 -3 16 -2 19 1 4 3 -2 6 -13 5 -11 0 -14 -3 -6 -6z"/>
<path d="M1868 83 c7 -3 16 -2 19 1 4 3 -2 6 -13 5 -11 0 -14 -3 -6 -6z"/>
<path d="M3810 80 c-12 -8 -10 -10 8 -10 13 0 20 4 17 10 -7 12 -6 12 -25 0z"/>
<path d="M3850 79 c0 -5 5 -7 10 -4 6 3 10 8 10 11 0 2 -4 4 -10 4 -5 0 -10
-5 -10 -11z"/>
<path d="M498 73 c6 -2 18 -2 25 0 6 3 1 5 -13 5 -14 0 -19 -2 -12 -5z"/>
<path d="M1949 71 c12 -8 51 -4 51 5 0 2 -15 4 -32 4 -23 0 -29 -3 -19 -9z"/>
<path d="M3418 73 c7 -3 16 -2 19 1 4 3 -2 6 -13 5 -11 0 -14 -3 -6 -6z"/>
<path d="M3536 68 c7 -10 24 -10 24 0 0 5 -7 9 -15 9 -8 0 -12 -4 -9 -9z"/>
<path d="M4245 70 c3 -5 8 -10 11 -10 2 0 4 5 4 10 0 6 -5 10 -11 10 -5 0 -7
-4 -4 -10z"/>
<path d="M4400 69 c0 -5 5 -7 10 -4 6 3 10 8 10 11 0 2 -4 4 -10 4 -5 0 -10
-5 -10 -11z"/>
<path d="M4023 63 c-18 -2 -33 -9 -33 -15 0 -6 12 -8 30 -4 17 3 29 2 25 -3
-3 -5 5 -6 17 -3 19 5 20 7 5 10 -9 2 -15 8 -12 13 4 5 5 8 3 7 -2 0 -18 -3
-35 -5z"/>
<path d="M4521 63 c-1 -18 19 -27 32 -13 9 10 8 12 -5 7 -9 -3 -19 -1 -22 6
-3 9 -5 9 -5 0z"/>
<path d="M3613 53 c15 -2 39 -2 55 0 15 2 2 4 -28 4 -30 0 -43 -2 -27 -4z"/>
<path d="M3723 48 c15 -10 97 -10 97 0 0 4 -25 7 -55 7 -30 1 -49 -3 -42 -7z"/>
<path d="M3860 49 c-22 -6 -20 -7 13 -8 38 -1 47 3 25 11 -7 3 -24 1 -38 -3z"/>
<path d="M4578 53 c6 -2 18 -2 25 0 6 3 1 5 -13 5 -14 0 -19 -2 -12 -5z"/>
<path d="M4724 48 c10 -6 22 -6 26 -2 5 5 -3 10 -18 11 -22 1 -24 0 -8 -9z"/>
<path d="M510 42 c0 -5 7 -9 15 -9 8 0 15 4 15 9 0 4 -7 8 -15 8 -8 0 -15 -4
-15 -8z"/>
<path d="M578 43 c6 -2 18 -2 25 0 6 3 1 5 -13 5 -14 0 -19 -2 -12 -5z"/>
<path d="M1680 40 c-34 -7 -34 -7 13 -9 26 0 47 4 47 9 0 11 -8 11 -60 0z"/>
<path d="M1751 46 c7 -8 159 -9 166 -2 3 3 -33 6 -82 6 -49 0 -86 -2 -84 -4z"/>
<path d="M3064 42 c5 -8 265 -6 274 3 3 3 -59 5 -137 5 -78 0 -140 -4 -137 -8z"/>
<path d="M3365 40 c4 -6 11 -8 16 -5 14 9 11 15 -7 15 -8 0 -12 -5 -9 -10z"/>
<path d="M3435 41 c3 -6 34 -11 67 -11 76 0 72 5 -10 14 -44 5 -62 4 -57 -3z"/>
<path d="M3933 43 c9 -2 25 -2 35 0 9 3 1 5 -18 5 -19 0 -27 -2 -17 -5z"/>
<path d="M4110 40 c-10 -6 6 -9 52 -7 38 1 68 5 68 10 0 10 -102 8 -120 -3z"/>
<path d="M4348 43 c12 -2 30 -2 40 0 9 3 -1 5 -23 4 -22 0 -30 -2 -17 -4z"/>
<path d="M408 33 c6 -2 18 -2 25 0 6 3 1 5 -13 5 -14 0 -19 -2 -12 -5z"/>
<path d="M1598 33 c7 -3 16 -2 19 1 4 3 -2 6 -13 5 -11 0 -14 -3 -6 -6z"/>
<path d="M4258 33 c6 -2 18 -2 25 0 6 3 1 5 -13 5 -14 0 -19 -2 -12 -5z"/>
<path d="M3570 23 c0 -5 20 -9 45 -9 24 -1 42 3 39 7 -6 11 -84 12 -84 2z"/>
<path d="M808 13 c7 -3 16 -2 19 1 4 3 -2 6 -13 5 -11 0 -14 -3 -6 -6z"/>
<path d="M3188 13 c12 -2 32 -2 45 0 12 2 2 4 -23 4 -25 0 -35 -2 -22 -4z"/>
</g>
</svg>
