<?xml version="1.0" standalone="no"?>
<!DOCTYPE svg PUBLIC "-//W3C//DTD SVG 20010904//EN"
 "http://www.w3.org/TR/2001/REC-SVG-20010904/DTD/svg10.dtd">
<svg version="1.0" xmlns="http://www.w3.org/2000/svg"
 width="512.000000pt" height="512.000000pt" viewBox="0 0 512.000000 512.000000"
 preserveAspectRatio="xMidYMid meet">
<metadata>
Created by potrace 1.16, written by Peter Selinger 2001-2019
</metadata>
<g transform="translate(0.000000,512.000000) scale(0.100000,-0.100000)"
fill="#000000" stroke="none">
<path d="M1630 4172 c0 -5 500 -6 1110 -4 1017 4 1110 3 1110 -12 0 -13 11
-16 54 -16 30 0 58 5 61 10 4 6 -15 10 -49 10 -30 0 -58 5 -61 10 -8 12 -2225
14 -2225 2z"/>
<path d="M1598 4132 c-6 -21 -9 -22 -235 -25 l-228 -2 243 -3 c133 -1 242 1
241 6 0 4 -4 16 -8 26 -7 19 -8 19 -13 -2z"/>
<path d="M3974 4119 c-7 -12 7 -15 61 -18 33 -2 47 1 40 7 -12 12 -95 21 -101
11z"/>
<path d="M1100 4070 c-25 -6 -25 -6 5 -12 33 -7 44 -2 29 11 -5 4 -20 5 -34 1z"/>
<path d="M4074 4068 c-6 -9 -1 -11 43 -12 17 -1 29 2 27 5 -6 11 -64 16 -70 7z"/>
<path d="M1047 4021 c-3 -12 -1 -21 3 -21 14 0 19 15 11 29 -6 9 -10 7 -14 -8z"/>
<path d="M4140 4022 c0 -18 19 -24 37 -13 10 6 13 11 6 11 -6 0 -18 3 -27 6
-9 3 -16 1 -16 -4z"/>
<path d="M1008 4003 c7 -3 16 -2 19 1 4 3 -2 6 -13 5 -11 0 -14 -3 -6 -6z"/>
<path d="M4211 3968 c-1 -21 3 -26 15 -21 9 3 11 9 6 12 -5 3 -12 13 -15 21
-3 9 -6 4 -6 -12z"/>
<path d="M970 3966 c0 -8 -10 -17 -22 -19 -20 -4 -19 -4 5 -6 21 -1 27 4 27
19 0 11 -2 20 -5 20 -3 0 -5 -6 -5 -14z"/>
<path d="M907 3900 c-3 -11 -1 -20 4 -20 5 0 9 9 9 20 0 11 -2 20 -4 20 -2 0
-6 -9 -9 -20z"/>
<path d="M4255 3890 c3 -5 8 -10 11 -10 2 0 4 5 4 10 0 6 -5 10 -11 10 -5 0
-7 -4 -4 -10z"/>
<path d="M872 3820 c0 -14 2 -19 5 -12 2 6 2 18 0 25 -3 6 -5 1 -5 -13z"/>
<path d="M840 3748 c-6 -809 -7 -2506 -1 -2520 4 -11 9 561 10 1271 1 710 0
1291 -3 1291 -3 0 -6 -19 -6 -42z"/>
<path d="M1563 3483 c-3 -7 -18 -13 -34 -13 -22 0 -29 -5 -29 -20 0 -16 -7
-20 -30 -20 -28 0 -30 -3 -30 -35 0 -24 -5 -35 -15 -35 -13 0 -15 -91 -15
-755 0 -748 0 -755 20 -755 15 0 20 -7 20 -25 0 -18 5 -25 20 -25 13 0 20 -7
20 -20 0 -15 7 -20 25 -20 16 0 25 -6 25 -15 0 -13 124 -15 1060 -15 934 0
1061 2 1066 15 4 8 17 15 30 15 17 0 24 6 24 20 0 11 7 21 15 21 8 1 21 2 28
3 6 0 13 14 15 29 3 22 8 27 25 25 l22 -3 3 759 c2 672 0 758 -13 752 -11 -4
-15 2 -15 24 0 24 -4 30 -21 30 -12 0 -23 8 -26 20 -3 13 -14 20 -29 20 -14 0
-24 6 -24 14 0 11 -125 15 -766 21 -938 9 -1364 5 -1371 -12z m2117 -22 c0 -5
9 -12 19 -16 28 -9 81 -60 81 -78 0 -8 7 -17 15 -21 13 -5 15 -62 15 -428 0
-647 -10 -1038 -27 -1038 -7 0 -18 -11 -24 -24 -6 -13 -22 -29 -35 -35 -14 -6
-27 -18 -30 -26 -4 -8 -13 -15 -20 -15 -8 0 -17 -7 -20 -15 -5 -13 -130 -15
-1037 -15 -960 0 -1033 1 -1068 18 -23 10 -39 24 -39 35 0 10 -8 17 -20 17
-13 0 -20 7 -20 20 0 10 -9 24 -20 30 -20 11 -20 21 -20 739 0 617 2 730 14
734 8 3 17 19 21 36 5 22 12 31 27 31 11 0 22 8 25 20 3 13 14 20 29 20 12 0
26 5 29 10 8 13 2105 14 2105 1z"/>
<path d="M3028 3363 c23 -2 59 -2 80 0 20 2 1 4 -43 4 -44 0 -61 -2 -37 -4z"/>
<path d="M3258 3363 c39 -2 105 -2 145 0 39 1 7 3 -73 3 -80 0 -112 -2 -72 -3z"/>
<path d="M2938 3353 c6 -2 18 -2 25 0 6 3 1 5 -13 5 -14 0 -19 -2 -12 -5z"/>
<path d="M2895 3310 c-3 -5 -1 -10 4 -10 6 0 11 5 11 10 0 6 -2 10 -4 10 -3 0
-8 -4 -11 -10z"/>
<path d="M2959 3269 c-10 -6 -7 -9 14 -9 29 0 35 5 14 13 -8 3 -20 1 -28 -4z"/>
<path d="M3580 3224 c0 -10 14 -14 49 -14 l49 0 0 -630 0 -630 -65 0 c-60 0
-64 -1 -58 -20 6 -17 2 -20 -29 -20 -29 0 -36 4 -36 20 0 18 -7 20 -60 20
l-60 0 0 70 0 70 55 0 55 0 0 45 0 45 -55 0 -56 0 7 35 6 35 -61 0 -61 0 0 39
0 39 60 -5 60 -6 0 57 0 56 51 0 50 0 -3 42 -3 42 -53 -3 -53 -3 3 49 3 48 53
-3 52 -4 0 45 0 46 -56 -6 -57 -6 5 46 6 47 -35 0 c-34 0 -36 3 -47 53 -6 26
-5 27 33 27 37 0 40 2 43 33 3 31 4 32 56 35 l52 3 0 40 0 39 -54 0 -54 0 -4
55 -3 55 56 0 56 0 -3 51 c-3 69 -24 91 -24 26 0 -47 0 -47 -34 -47 -26 0 -35
5 -41 23 -6 18 -9 15 -15 -23 -10 -55 -12 -123 -4 -144 4 -11 19 -16 50 -16
37 0 44 -3 44 -20 0 -17 -7 -20 -40 -20 -36 0 -41 -3 -54 -35 -12 -27 -21 -35
-40 -35 -15 0 -26 -4 -26 -9 0 -5 -9 -11 -21 -14 -16 -4 -23 1 -31 23 -7 20
-18 31 -39 35 -36 8 -50 0 -18 -10 30 -10 90 -73 98 -104 7 -24 19 -34 54 -45
11 -4 17 -16 17 -35 0 -35 22 -51 69 -51 48 0 39 -26 -10 -33 -49 -6 -59 -18
-59 -69 0 -59 7 -68 56 -68 37 0 44 -3 44 -20 0 -17 -7 -20 -40 -20 -34 0 -42
-4 -50 -26 -6 -14 -10 -36 -10 -50 0 -21 -4 -24 -39 -24 -64 0 -71 -6 -71 -60
0 -54 7 -60 71 -60 34 0 39 -3 39 -22 0 -35 11 -45 55 -52 22 -3 41 -5 43 -6
1 0 2 -9 2 -20 0 -17 -7 -20 -44 -20 -31 0 -46 -5 -50 -16 -11 -28 -6 -140 6
-152 7 -7 33 -12 59 -12 38 0 48 -4 52 -20 4 -16 14 -20 51 -20 34 0 46 4 46
15 0 14 13 20 35 15 5 -1 29 1 52 5 l43 6 0 638 c0 499 -3 641 -12 648 -7 6
-34 13 -60 15 -37 4 -48 2 -48 -8z"/>
<path d="M2195 3220 l-140 -6 168 -2 c92 -1 167 0 167 2 0 9 -63 11 -195 6z"/>
<path d="M2483 3223 c10 -9 57 -10 57 -1 0 4 -14 8 -32 8 -17 0 -28 -3 -25 -7z"/>
<path d="M2553 3224 c9 -9 111 -11 184 -4 58 6 49 7 -61 8 -71 1 -126 -1 -123
-4z"/>
<path d="M3497 3218 c-7 -4 7 -8 31 -8 26 0 41 4 37 10 -7 11 -50 10 -68 -2z"/>
<path d="M1738 3213 c46 -2 118 -2 160 0 42 1 5 3 -83 3 -88 0 -123 -2 -77 -3z"/>
<path d="M2861 3198 c1 -16 3 -18 6 -6 2 9 14 19 26 21 18 4 17 5 -5 6 -23 1
-28 -3 -27 -21z"/>
<path d="M3000 3210 c-10 -6 46 -10 168 -10 120 0 181 3 177 10 -8 13 -325 13
-345 0z"/>
<path d="M2948 3155 c-12 -26 -12 -35 -3 -35 7 0 15 14 19 32 8 43 3 44 -16 3z"/>
<path d="M2790 3144 c0 -12 4 -14 13 -7 6 6 19 13 27 16 9 3 3 6 -12 6 -20 1
-28 -4 -28 -15z"/>
<path d="M2170 3103 c0 -5 100 -7 222 -5 364 4 393 8 76 10 -164 1 -298 -1
-298 -5z"/>
<path d="M2930 3083 c0 -5 7 -17 15 -27 14 -19 15 -19 15 7 0 17 -5 27 -15 27
-8 0 -15 -3 -15 -7z"/>
<path d="M2086 3072 c-2 -4 -1 -14 5 -22 7 -13 9 -12 9 2 0 10 10 18 28 21 26
4 25 4 -5 6 -17 0 -34 -3 -37 -7z"/>
<path d="M1997 3034 c-4 -4 -5 -10 -2 -14 5 -8 65 0 65 9 0 9 -55 13 -63 5z"/>
<path d="M2986 3021 c-5 -7 5 -11 29 -11 28 0 38 -5 45 -22 8 -22 9 -22 9 5 1
19 -4 27 -16 27 -10 0 -28 3 -39 6 -12 3 -25 1 -28 -5z"/>
<path d="M3551 3014 c0 -11 3 -14 6 -6 3 7 2 16 -1 19 -3 4 -6 -2 -5 -13z"/>
<path d="M1933 2985 c-10 -7 -14 -17 -10 -21 4 -5 11 -3 15 3 4 6 18 13 32 15
24 3 24 4 3 10 -12 3 -30 0 -40 -7z"/>
<path d="M3090 2960 c-12 -8 -9 -10 13 -10 19 0 30 -7 36 -22 l8 -22 6 23 c4
17 0 24 -19 32 -30 11 -26 11 -44 -1z"/>
<path d="M3551 2931 c-1 -35 2 -42 15 -37 9 3 27 6 40 6 13 0 24 5 24 11 0 6
-14 9 -32 7 -29 -3 -33 0 -39 27 -6 27 -7 25 -8 -14z"/>
<path d="M1840 2925 c-10 -12 -10 -19 -2 -27 9 -9 12 -9 12 0 0 7 15 18 33 26
l32 14 -31 1 c-17 1 -37 -6 -44 -14z"/>
<path d="M1534 2580 c0 -184 2 -260 3 -167 2 92 2 242 0 335 -1 92 -3 16 -3
-168z"/>
<path d="M1772 2868 c-7 -7 -12 -19 -12 -27 1 -14 2 -14 13 -1 7 9 23 21 37
27 l25 12 -25 0 c-15 1 -31 -4 -38 -11z"/>
<path d="M1700 2793 c0 -23 2 -25 13 -11 6 8 21 20 32 26 18 10 17 11 -12 12
-29 0 -33 -3 -33 -27z"/>
<path d="M1645 2750 c-3 -5 -5 -104 -4 -220 l1 -210 75 0 c42 0 72 4 69 9 -3
5 -23 7 -44 4 -20 -2 -48 0 -61 5 -24 9 -25 9 -29 185 -5 191 -1 223 26 230
13 4 12 5 -5 6 -12 0 -24 -3 -28 -9z"/>
<path d="M1852 2630 c-21 -9 -23 -15 -20 -82 l3 -73 215 0 215 0 0 75 0 75
-30 6 c-47 10 -357 9 -383 -1z m398 -80 l0 -60 -200 0 -200 0 0 60 0 60 200 0
200 0 0 -60z"/>
<path d="M2809 2634 c-20 -6 -29 -34 -29 -87 0 -79 -5 -77 225 -77 112 0 206
4 209 9 9 13 10 141 1 149 -8 8 -381 13 -406 6z m391 -84 l0 -60 -195 0 -195
0 0 60 0 60 195 0 195 0 0 -60z"/>
<path d="M2443 2402 c-6 -4 -13 -22 -15 -41 -4 -47 -26 -58 -78 -41 -39 13
-43 13 -56 -5 -16 -21 -10 -75 10 -87 6 -4 38 -8 70 -8 47 0 68 5 102 28 24
15 44 31 44 36 0 4 18 -8 40 -28 41 -36 42 -37 118 -34 l76 3 10 32 c13 49 -4
64 -73 60 l-56 -2 -5 45 -5 45 -85 3 c-47 1 -90 -1 -97 -6z m162 -51 c-6 -35
-4 -41 19 -57 25 -16 55 -15 99 2 16 6 18 2 15 -22 -3 -28 -5 -29 -60 -32 -55
-3 -59 -1 -103 39 -33 31 -50 40 -60 33 -7 -5 -30 -22 -50 -39 -32 -25 -47
-30 -94 -30 -56 0 -56 0 -59 33 -3 34 8 41 28 17 18 -22 63 -18 95 6 21 18 26
28 21 50 -6 30 -5 30 122 37 l34 2 -7 -39z"/>
<path d="M3390 2311 c-12 -23 -8 -27 48 -36 42 -7 42 -7 42 24 0 29 -2 31 -40
31 -29 0 -42 -5 -50 -19z"/>
<path d="M1809 2281 c-4 -32 -7 -35 -39 -36 -78 -2 -103 -5 -97 -12 12 -11
121 -2 135 11 8 7 12 26 10 42 -4 28 -4 28 -9 -5z"/>
<path d="M1534 2105 c0 -77 2 -107 3 -67 2 40 2 103 0 140 -2 37 -3 4 -3 -73z"/>
<path d="M1630 2170 c-11 -7 -12 -12 -4 -20 8 -8 13 -6 17 9 3 12 4 21 4 21
-1 0 -9 -5 -17 -10z"/>
<path d="M1631 2104 c0 -11 3 -14 6 -6 3 7 2 16 -1 19 -3 4 -6 -2 -5 -13z"/>
<path d="M1632 1995 c0 -16 2 -22 5 -12 2 9 2 23 0 30 -3 6 -5 -1 -5 -18z"/>
<path d="M1578 1943 c7 -3 16 -2 19 1 4 3 -2 6 -13 5 -11 0 -14 -3 -6 -6z"/>
<path d="M1618 1813 c23 -2 61 -2 85 0 23 2 4 4 -43 4 -47 0 -66 -2 -42 -4z"/>
<path d="M1768 1813 c12 -2 30 -2 40 0 9 3 -1 5 -23 4 -22 0 -30 -2 -17 -4z"/>
<path d="M1848 1813 c7 -3 16 -2 19 1 4 3 -2 6 -13 5 -11 0 -14 -3 -6 -6z"/>
<path d="M3870 3380 c0 -5 5 -10 10 -10 6 0 10 5 10 10 0 6 -4 10 -10 10 -5 0
-10 -4 -10 -10z"/>
<path d="M870 1181 c0 -6 5 -13 10 -16 6 -3 10 -14 10 -24 0 -22 26 -46 34
-33 3 6 -1 12 -9 16 -9 3 -15 18 -15 36 0 20 -5 30 -15 30 -8 0 -15 -4 -15 -9z"/>
<path d="M940 1101 c0 -11 5 -23 10 -26 6 -4 10 5 10 19 0 14 -4 26 -10 26 -5
0 -10 -9 -10 -19z"/>
<path d="M966 1049 c3 -5 14 -9 25 -9 10 0 19 -5 19 -12 0 -9 3 -9 12 0 15 15
10 19 -30 25 -18 3 -30 1 -26 -4z"/>
<path d="M1168 1023 c6 -2 18 -2 25 0 6 3 1 5 -13 5 -14 0 -19 -2 -12 -5z"/>
<path d="M1080 989 c0 -5 5 -7 10 -4 6 3 10 8 10 11 0 2 -4 4 -10 4 -5 0 -10
-5 -10 -11z"/>
<path d="M1281 984 c0 -11 3 -14 6 -6 3 7 2 16 -1 19 -3 4 -6 -2 -5 -13z"/>
</g>
</svg>
