<?xml version="1.0" standalone="no"?>
<!DOCTYPE svg PUBLIC "-//W3C//DTD SVG 20010904//EN"
 "http://www.w3.org/TR/2001/REC-SVG-20010904/DTD/svg10.dtd">
<svg version="1.0" xmlns="http://www.w3.org/2000/svg"
 width="512.000000pt" height="512.000000pt" viewBox="0 0 512.000000 512.000000"
 preserveAspectRatio="xMidYMid meet">
<metadata>
Created by potrace 1.16, written by Peter Selinger 2001-2019
</metadata>
<g transform="translate(0.000000,512.000000) scale(0.100000,-0.100000)"
fill="#000000" stroke="none">
<path d="M2627 4874 c-12 -12 4 -24 34 -24 19 0 29 5 29 15 0 15 -50 22 -63 9z"/>
<path d="M2387 4838 c-7 -5 10 -6 36 -4 27 2 51 7 54 10 8 8 -76 3 -90 -6z"/>
<path d="M2490 4839 c0 -5 5 -7 10 -4 6 3 10 8 10 11 0 2 -4 4 -10 4 -5 0 -10
-5 -10 -11z"/>
<path d="M3591 4633 c-33 -40 -38 -53 -20 -53 5 0 16 15 24 34 8 19 20 36 27
39 7 2 10 7 7 11 -4 4 -21 -10 -38 -31z"/>
<path d="M2645 4610 c-39 -4 -54 -9 -44 -13 22 -11 119 -4 120 8 1 12 -4 13
-76 5z"/>
<path d="M3400 4599 c0 -8 18 -9 57 -5 77 8 79 16 5 16 -39 0 -62 -4 -62 -11z"/>
<path d="M3108 4593 c6 -2 18 -2 25 0 6 3 1 5 -13 5 -14 0 -19 -2 -12 -5z"/>
<path d="M3173 4593 c15 -2 37 -2 50 0 12 2 0 4 -28 4 -27 0 -38 -2 -22 -4z"/>
<path d="M3298 4593 c12 -2 32 -2 45 0 12 2 2 4 -23 4 -25 0 -35 -2 -22 -4z"/>
<path d="M2818 4583 c12 -2 32 -2 45 0 12 2 2 4 -23 4 -25 0 -35 -2 -22 -4z"/>
<path d="M2428 4575 c-2 -2 -66 -6 -143 -10 -77 -4 -171 -13 -209 -21 -91 -19
-258 -62 -264 -69 -16 -15 15 -14 84 5 172 46 278 62 457 69 107 4 177 10 177
16 0 9 -93 18 -102 10z"/>
<path d="M2578 4563 c12 -2 32 -2 45 0 12 2 2 4 -23 4 -25 0 -35 -2 -22 -4z"/>
<path d="M1357 4543 c-20 -19 10 -23 188 -23 230 0 212 11 227 -144 5 -55 15
-130 23 -166 8 -36 17 -119 20 -185 3 -66 9 -133 12 -150 5 -26 7 -27 13 -10
4 11 3 72 -2 135 -4 63 -10 142 -12 174 -3 32 -9 62 -14 65 -5 3 -13 53 -17
111 -8 120 -27 177 -62 191 -28 10 -366 13 -376 2z"/>
<path d="M3306 4537 c-15 -11 -18 -27 -17 -93 1 -43 6 -117 12 -164 9 -75 16
-129 18 -152 1 -5 6 -8 11 -8 6 0 9 47 9 123 -1 67 -4 110 -6 94 -2 -15 -9
-25 -14 -22 -14 9 -11 168 4 188 10 13 40 16 192 19 107 3 179 8 178 13 -5 16
-365 18 -387 2z m21 -269 c-3 -7 -5 -2 -5 12 0 14 2 19 5 13 2 -7 2 -19 0 -25z"/>
<path d="M2530 4490 c0 -6 56 -10 149 -10 89 0 152 4 156 10 4 7 -48 10 -149
10 -97 0 -156 -4 -156 -10z"/>
<path d="M2900 4490 c0 -5 13 -10 29 -10 16 0 36 -3 45 -6 11 -4 16 -1 16 10
0 12 -10 16 -45 16 -25 0 -45 -4 -45 -10z"/>
<path d="M3047 4460 c38 -15 123 -24 123 -12 0 16 -27 22 -88 21 -44 0 -52 -2
-35 -9z"/>
<path d="M3206 4421 c5 -4 21 -11 37 -15 20 -5 27 -3 27 9 0 11 -11 15 -37 15
-22 0 -33 -4 -27 -9z"/>
<path d="M1335 4398 c-11 -7 -25 -17 -31 -23 -6 -6 -39 -31 -73 -55 -59 -42
-98 -73 -178 -138 -74 -61 -230 -228 -221 -237 5 -6 60 46 131 123 27 28 53
52 57 52 5 0 12 9 15 20 3 11 12 20 20 20 7 0 15 4 17 8 4 11 145 122 155 122
4 0 33 20 63 45 30 25 59 45 65 46 5 0 90 1 189 1 179 -1 211 3 200 19 -8 14
-385 11 -409 -3z"/>
<path d="M3348 4403 c-10 -2 -18 -8 -18 -13 0 -11 506 -18 522 -9 33 21 -20
27 -244 27 -134 0 -251 -2 -260 -5z"/>
<path d="M3246 4353 c-3 -10 -3 -36 0 -58 13 -97 15 -289 4 -386 -7 -57 -15
-126 -17 -154 l-5 -50 -115 -50 c-123 -53 -197 -109 -253 -190 -27 -39 -27
-42 -10 -53 14 -9 21 -7 36 10 19 21 19 21 -6 9 -23 -11 -24 -11 -6 3 14 11
23 13 32 5 8 -7 14 -7 19 1 3 5 0 10 -7 10 -8 1 -6 6 6 15 26 20 42 19 26 0
-11 -13 -10 -14 4 -9 9 3 16 10 16 15 0 5 5 9 10 9 6 0 52 25 103 57 51 31
111 67 134 80 l42 24 -3 79 c-1 58 1 81 11 84 15 6 18 46 4 46 -5 0 -5 16 0
38 10 42 12 404 3 451 -7 34 -20 41 -28 14z m-16 -683 c0 -11 -4 -20 -10 -20
-5 0 -52 -29 -104 -65 -83 -57 -111 -71 -151 -74 -5 -1 -3 -6 5 -12 13 -9 12
-10 -3 -5 -18 6 -46 -6 -79 -33 -37 -29 -16 -1 35 48 48 48 75 64 230 136 31
15 60 31 63 36 9 15 14 10 14 -11z"/>
<path d="M3737 4241 c-3 -11 -2 -22 1 -25 8 -9 32 14 32 30 0 21 -27 17 -33
-5z"/>
<path d="M962 4200 c1 -13 9 -25 16 -28 17 -5 15 23 -4 39 -14 11 -15 10 -12
-11z"/>
<path d="M3670 4115 c-15 -28 -10 -38 13 -29 18 6 30 32 21 45 -9 15 -20 10
-34 -16z"/>
<path d="M1555 4110 c-11 -17 5 -30 36 -30 22 0 29 5 29 20 0 15 -7 20 -29 20
-17 0 -33 -4 -36 -10z"/>
<path d="M3425 4111 c-9 -16 3 -31 26 -31 14 0 19 6 17 17 -4 20 -33 29 -43
14z"/>
<path d="M3982 4108 c-14 -14 -16 -38 -4 -38 12 0 32 23 32 37 0 16 -12 17
-28 1z"/>
<path d="M1041 4103 c0 -5 20 -24 44 -43 53 -42 61 -69 14 -44 -39 20 -36 -3
3 -25 23 -13 28 -13 42 2 16 15 13 20 -34 67 -46 46 -71 61 -69 43z"/>
<path d="M1035 4060 c-8 -13 4 -32 16 -25 12 8 12 35 0 35 -6 0 -13 -4 -16
-10z"/>
<path d="M3902 4004 c-23 -25 -50 -57 -59 -71 -17 -25 -17 -26 2 -15 11 6 36
31 55 56 19 25 43 48 53 51 20 7 23 25 5 25 -7 0 -32 -21 -56 -46z"/>
<path d="M1530 4006 c0 -2 11 -6 25 -8 14 -3 25 -1 25 3 0 5 -11 9 -25 9 -14
0 -25 -2 -25 -4z"/>
<path d="M1170 3975 c7 -8 17 -15 22 -15 6 0 5 7 -2 15 -7 8 -17 15 -22 15 -6
0 -5 -7 2 -15z"/>
<path d="M1452 3945 c-232 -73 -259 -379 -42 -473 71 -31 122 -36 185 -17 146
42 239 230 176 354 -55 106 -208 172 -319 136z m195 -50 c65 -37 83 -53 104
-100 19 -41 24 -124 10 -160 -5 -13 -8 3 -8 46 0 37 -5 75 -11 85 -8 14 -10 3
-5 -48 7 -90 -2 -132 -39 -174 -44 -50 -97 -74 -161 -74 -122 0 -225 71 -246
168 -11 55 -1 142 21 171 46 61 95 96 163 114 42 12 124 -2 172 -28z"/>
<path d="M1310 3630 c0 -5 13 -24 30 -42 l30 -33 -23 42 c-21 41 -37 55 -37
33z"/>
<path d="M3503 3944 c-55 -20 -131 -88 -154 -139 -40 -88 -11 -223 62 -290 49
-44 75 -54 163 -66 60 -8 75 -6 115 12 102 45 164 135 165 239 1 180 -178 305
-351 244z m215 -47 c87 -55 129 -131 119 -216 -12 -99 -82 -179 -193 -221 -16
-7 -23 -7 -19 0 4 6 -13 10 -42 10 -59 0 -141 38 -178 81 -34 41 -59 131 -51
186 11 80 44 121 141 172 29 15 58 21 105 21 57 0 73 -4 118 -33z"/>
<path d="M3387 3783 c-4 -3 -7 -18 -6 -32 1 -26 1 -25 10 3 9 31 7 41 -4 29z"/>
<path d="M3400 3600 c0 -5 5 -10 11 -10 5 0 7 5 4 10 -3 6 -8 10 -11 10 -2 0
-4 -4 -4 -10z"/>
<path d="M3670 3515 c-14 -8 -50 -15 -80 -15 -38 -1 -49 -4 -35 -9 35 -14 137
2 156 25 16 19 -7 19 -41 -1z"/>
<path d="M1155 3940 c3 -5 10 -10 16 -10 5 0 9 5 9 10 0 6 -7 10 -16 10 -8 0
-12 -4 -9 -10z"/>
<path d="M1220 3925 c13 -14 28 -25 33 -25 6 0 0 11 -13 25 -13 14 -28 25 -33
25 -6 0 0 -11 13 -25z"/>
<path d="M1325 3925 c-16 -14 -26 -25 -21 -25 4 0 21 11 38 25 16 14 26 25 21
25 -4 -1 -21 -12 -38 -25z"/>
<path d="M465 3900 c-75 -3 -118 -9 -115 -15 6 -12 168 -15 191 -4 9 5 21 3
27 -3 9 -9 15 -9 24 0 22 22 -6 27 -127 22z"/>
<path d="M648 3902 c-40 -5 -34 -22 7 -22 19 0 35 4 35 9 0 14 -11 17 -42 13z"/>
<path d="M758 3903 c-82 -5 -72 -23 12 -23 56 0 70 3 70 15 0 8 -6 14 -12 13
-7 -1 -39 -3 -70 -5z"/>
<path d="M3222 3890 c0 -14 2 -19 5 -12 2 6 2 18 0 25 -3 6 -5 1 -5 -13z"/>
<path d="M4134 3901 c-22 -22 12 -26 226 -25 209 1 253 4 238 19 -6 6 -458 12
-464 6z"/>
<path d="M4682 3902 c-46 -2 -72 -7 -70 -14 5 -13 151 -14 156 0 5 15 -7 17
-86 14z"/>
<path d="M1205 3890 c3 -5 8 -10 11 -10 2 0 4 5 4 10 0 6 -5 10 -11 10 -5 0
-7 -4 -4 -10z"/>
<path d="M1863 3868 c-9 -11 -10 -30 -2 -78 5 -35 7 -87 4 -115 l-7 -51 39
-12 c21 -7 67 -28 103 -47 36 -19 93 -48 128 -65 34 -17 62 -33 62 -36 0 -3
-7 -3 -16 0 -10 4 -14 2 -11 -6 5 -14 10 -14 41 -2 12 5 17 4 13 -3 -3 -5 9
-17 28 -26 26 -12 35 -13 35 -4 0 8 4 7 10 -3 7 -12 10 -12 10 -1 0 19 -41 65
-121 137 -55 49 -89 70 -171 104 -57 23 -106 45 -110 49 -4 4 -11 44 -15 90
-7 69 -10 81 -20 69z m117 -223 c82 -35 157 -81 219 -135 41 -35 35 -51 -7
-21 -17 12 -37 21 -45 21 -8 0 -34 15 -58 33 -24 18 -78 48 -119 66 -74 33
-93 47 -84 63 7 11 2 12 94 -27z"/>
<path d="M1903 3805 c0 -38 2 -53 4 -32 2 20 2 52 0 70 -2 17 -4 1 -4 -38z"/>
<path d="M3212 3775 c0 -16 2 -22 5 -12 2 9 2 23 0 30 -3 6 -5 -1 -5 -18z"/>
<path d="M778 3773 c-23 -28 -59 -95 -54 -100 8 -8 27 8 21 17 -3 5 3 14 13
19 19 10 49 67 40 76 -3 3 -11 -3 -20 -12z"/>
<path d="M1037 3754 c-11 -14 -16 -28 -12 -32 4 -4 12 0 18 9 7 8 20 18 30 22
10 4 15 11 12 17 -10 17 -29 11 -48 -16z"/>
<path d="M810 3722 c-8 -10 -21 -28 -28 -40 -10 -19 -10 -22 4 -22 8 0 12 5 9
10 -3 6 0 10 7 10 18 0 42 40 31 51 -5 5 -15 1 -23 -9z"/>
<path d="M2540 3706 c0 -42 8 -48 40 -31 23 12 23 14 6 21 -16 6 -17 8 -2 16
22 12 11 28 -20 28 -21 0 -24 -5 -24 -34z"/>
<path d="M2420 3724 c0 -14 63 -124 71 -124 5 0 6 -6 3 -14 -3 -9 9 -19 35
-29 55 -22 90 -8 106 42 4 13 3 21 -1 19 -5 -3 -18 3 -28 13 -11 11 -14 19 -8
19 7 0 12 5 12 11 0 6 -9 4 -21 -5 -12 -8 -27 -12 -34 -10 -7 3 -16 1 -19 -5
-4 -6 6 -8 26 -6 30 4 31 3 15 -9 -14 -11 -15 -15 -5 -19 7 -3 1 -6 -14 -6
-16 -1 -28 -6 -28 -12 0 -5 -5 -7 -10 -4 -8 5 -7 12 2 23 11 13 10 15 -4 9
-14 -5 -25 7 -50 53 -29 52 -48 74 -48 54z m190 -134 c0 -5 -2 -10 -4 -10 -3
0 -8 5 -11 10 -3 6 -1 10 4 10 6 0 11 -4 11 -10z"/>
<path d="M2670 3680 c-11 -21 -20 -44 -20 -50 0 -14 17 -13 23 3 3 6 12 29 21
50 22 49 2 48 -24 -3z"/>
<path d="M995 3702 c-3 -3 -5 -8 -5 -12 0 -11 177 -20 202 -10 18 7 8 9 -42
10 -36 0 -84 5 -107 9 -23 5 -45 6 -48 3z"/>
<path d="M954 3635 c-3 -14 -10 -25 -15 -25 -5 0 -9 -7 -9 -15 0 -9 6 -12 15
-9 8 4 15 12 15 19 0 7 7 15 15 19 19 7 20 36 0 36 -8 0 -17 -11 -21 -25z"/>
<path d="M1030 3620 c20 -13 80 -13 80 0 0 6 -21 10 -47 10 -35 0 -44 -3 -33
-10z"/>
<path d="M2426 3612 c-3 -6 -1 -14 5 -17 15 -10 25 3 12 16 -7 7 -13 7 -17 1z"/>
<path d="M655 3570 c-10 -22 -16 -43 -13 -46 6 -5 48 61 48 77 0 22 -18 6 -35
-31z"/>
<path d="M2668 3585 c-6 -14 -15 -25 -20 -25 -4 0 -8 -4 -8 -10 0 -21 19 -9
39 25 11 19 16 35 10 35 -5 0 -15 -11 -21 -25z"/>
<path d="M2388 3594 c-9 -8 12 -64 24 -64 13 0 6 63 -8 67 -5 2 -13 1 -16 -3z"/>
<path d="M2723 3568 c-32 -54 -35 -68 -15 -68 12 0 23 13 31 38 8 20 16 43 18
50 10 26 -16 11 -34 -20z"/>
<path d="M730 3580 c0 -13 11 -13 30 0 12 8 11 10 -7 10 -13 0 -23 -4 -23 -10z"/>
<path d="M2452 3538 c-6 -6 -12 -21 -12 -32 0 -20 0 -20 -14 0 -25 33 -28 8
-5 -40 12 -25 25 -48 29 -51 17 -10 38 7 33 26 -4 15 -2 18 11 13 9 -3 16 -18
16 -33 1 -40 23 -63 53 -56 22 6 25 4 20 -14 -3 -11 -8 -19 -12 -17 -12 8 -34
-11 -27 -23 13 -20 34 -11 50 22 8 17 24 46 36 62 11 17 20 40 20 52 0 12 5
25 11 29 8 5 10 -3 7 -25 -5 -37 9 -41 22 -7 5 13 15 26 22 29 7 3 -2 8 -19
12 -18 4 -33 14 -33 21 0 15 -12 17 -47 8 -25 -7 -31 -24 -9 -24 8 0 17 -4 21
-10 8 -14 -6 -61 -16 -54 -6 3 -7 14 -4 25 5 14 2 19 -13 19 -15 0 -19 -7 -18
-30 1 -16 4 -30 9 -30 4 0 7 -4 7 -10 0 -5 -11 -10 -25 -10 -14 0 -25 5 -25
10 0 6 5 10 10 10 6 0 10 12 10 26 0 14 -4 22 -10 19 -5 -3 -20 0 -32 7 -13 6
-31 11 -40 9 -14 -2 -18 5 -17 31 1 18 3 25 6 15 2 -9 9 -15 14 -12 5 3 17 1
28 -4 14 -8 22 -7 31 4 10 12 7 15 -15 21 -14 3 -29 4 -32 0 -3 -3 -11 1 -17
10 -9 12 -14 12 -24 2z m17 -107 c-1 -13 -2 -13 -6 2 -2 9 -9 15 -14 12 -5 -4
-9 1 -9 11 0 13 3 14 15 4 8 -7 14 -20 14 -29z"/>
<path d="M881 3527 c-6 -8 -8 -16 -5 -20 10 -9 34 4 34 19 0 18 -14 18 -29 1z"/>
<path d="M2560 3506 c0 -8 -12 -19 -27 -24 -24 -9 -25 -11 -6 -11 34 -1 53 9
53 30 0 10 -4 19 -10 19 -5 0 -10 -6 -10 -14z"/>
<path d="M612 3485 c-7 -14 -12 -33 -12 -42 0 -27 27 4 32 37 6 37 -5 39 -20
5z"/>
<path d="M1207 3468 c-19 -24 -47 -63 -63 -88 -16 -25 -35 -50 -43 -56 -12 -9
-11 -12 3 -17 11 -4 19 -1 23 10 8 20 88 141 110 166 9 9 14 20 11 23 -3 3
-21 -14 -41 -38z"/>
<path d="M1917 3503 c-7 -11 28 -143 53 -201 23 -54 58 -91 104 -110 26 -12
28 -11 21 5 -9 22 -27 73 -32 92 -3 11 -7 10 -18 -5 -8 -12 -10 -23 -4 -29 12
-12 12 -25 -1 -25 -14 0 -92 165 -88 188 3 19 6 20 27 9 13 -6 36 -34 51 -62
19 -36 38 -55 71 -72 24 -13 68 -48 97 -80 57 -61 85 -68 30 -7 -46 52 -72 74
-121 103 -39 24 -42 29 -43 70 -1 36 -6 49 -30 68 -30 24 -54 30 -54 13 0 -5
11 -12 25 -16 26 -6 52 -31 42 -40 -3 -4 -13 1 -22 10 -23 23 -71 47 -79 39
-3 -4 -6 -1 -6 5 0 5 -3 17 -6 25 -5 14 1 14 58 1 35 -8 74 -19 87 -24 25 -11
61 -5 61 10 0 5 -9 14 -21 21 -19 10 -20 9 -14 -13 7 -19 6 -21 -7 -11 -16 14
-121 43 -155 43 -12 0 -24 -3 -26 -7z"/>
<path d="M3109 3496 c-82 -18 -92 -23 -84 -44 4 -9 13 -32 20 -51 l13 -35 16
31 c8 17 23 38 31 47 14 14 14 16 1 16 -8 0 -23 -11 -33 -24 l-19 -23 -11 22
c-9 21 -7 24 21 28 17 3 49 10 70 15 50 13 56 9 56 -35 0 -53 -27 -103 -56
-103 -13 0 -24 -4 -24 -9 0 -5 -3 -18 -7 -28 -4 -12 0 -10 14 7 30 36 40 18
12 -22 -55 -77 -71 -86 -59 -34 4 19 6 37 3 40 -9 9 41 92 75 124 24 21 33 35
26 42 -10 10 -22 0 -106 -91 -18 -20 -49 -46 -68 -60 -70 -48 -133 -130 -110
-144 6 -3 14 4 19 17 5 13 24 37 43 54 53 49 120 92 104 66 -2 -4 -6 -30 -7
-57 -3 -48 -2 -50 21 -47 39 6 67 39 99 117 29 69 54 179 43 190 -8 7 -40 5
-103 -9z"/>
<path d="M673 3473 c-7 -15 -13 -32 -13 -37 1 -16 40 34 40 50 0 23 -14 16
-27 -13z"/>
<path d="M3835 3490 c3 -5 8 -10 11 -10 2 0 4 5 4 10 0 6 -5 10 -11 10 -5 0
-7 -4 -4 -10z"/>
<path d="M860 3480 c0 -5 9 -10 20 -10 11 0 20 5 20 10 0 6 -9 10 -20 10 -11
0 -20 -4 -20 -10z"/>
<path d="M1244 3448 c-15 -23 -39 -62 -55 -85 -16 -24 -25 -43 -20 -43 18 0
119 155 108 166 -3 3 -18 -14 -33 -38z"/>
<path d="M940 3470 c0 -13 46 -24 67 -16 15 6 15 8 3 16 -20 13 -70 13 -70 0z"/>
<path d="M3866 3458 c26 -44 37 -57 45 -52 13 8 -19 64 -37 64 -9 0 -12 -5 -8
-12z"/>
<path d="M2990 3440 c0 -5 7 -10 16 -10 8 0 12 5 9 10 -3 6 -10 10 -16 10 -5
0 -9 -4 -9 -10z"/>
<path d="M4423 3443 c-24 -9 -13 -25 13 -19 17 5 23 3 19 -4 -3 -5 1 -10 10
-10 9 0 13 5 10 10 -3 6 2 10 12 11 13 1 11 3 -7 9 -30 9 -41 10 -57 3z"/>
<path d="M4370 3430 c0 -5 4 -10 9 -10 6 0 13 5 16 10 3 6 -1 10 -9 10 -9 0
-16 -4 -16 -10z"/>
<path d="M2146 3422 c-18 -4 16 -28 111 -80 18 -10 21 -17 13 -27 -6 -7 -8
-20 -4 -29 4 -11 1 -16 -10 -16 -9 0 -16 8 -16 20 0 11 5 20 10 20 16 0 12 17
-6 24 -11 4 -15 2 -11 -8 7 -17 -18 -42 -27 -27 -4 5 -2 12 3 16 16 10 1 33
-35 54 -32 19 -34 19 -34 3 0 -10 -5 -23 -11 -29 -7 -7 -6 -12 5 -16 10 -4 13
-1 9 9 -3 7 0 14 7 14 18 0 50 -20 50 -31 0 -6 -4 -8 -9 -4 -17 10 -21 -12 -6
-25 8 -7 15 -9 15 -4 0 4 13 -5 30 -21 16 -15 27 -32 24 -36 -3 -5 -1 -16 4
-26 8 -13 13 -3 22 43 7 32 13 64 14 69 2 6 -17 25 -41 44 -40 31 -42 35 -26
47 10 7 13 14 8 14 -6 0 -16 -5 -23 -12 -9 -9 -16 -8 -29 3 -10 9 -26 14 -37
11z"/>
<path d="M2100 3410 c-8 -5 -11 -12 -7 -16 4 -4 13 -2 19 4 15 15 7 24 -12 12z"/>
<path d="M2905 3380 c-52 -41 -75 -50 -75 -27 0 8 -6 14 -12 14 -7 1 -28 7
-45 14 -29 12 -35 11 -50 -3 -15 -16 -15 -18 11 -28 20 -7 32 -7 41 0 9 8 15
8 20 0 3 -6 9 -8 13 -6 4 2 13 -2 19 -10 9 -8 9 -15 2 -19 -6 -4 -6 -11 -1
-18 5 -7 15 -29 22 -50 l12 -39 14 29 c8 15 38 49 67 76 30 27 43 44 30 40
-11 -5 -42 -27 -67 -50 -26 -24 -46 -36 -46 -28 0 23 102 126 118 120 8 -3 12
0 10 7 -8 25 -33 18 -83 -22z"/>
<path d="M816 3394 c-9 -23 -9 -23 27 -21 17 0 45 -3 61 -7 22 -7 28 -6 24 5
-2 8 -18 15 -34 17 -16 2 -33 8 -38 13 -15 14 -33 11 -40 -7z"/>
<path d="M2264 3382 c3 -18 18 -20 24 -4 1 5 -4 12 -12 15 -9 4 -13 0 -12 -11z"/>
<path d="M2324 3374 c-15 -12 -16 -17 -5 -21 10 -4 10 -7 1 -13 -7 -5 -1 -7
15 -7 14 0 29 6 32 14 3 8 13 11 24 8 14 -5 19 -1 19 14 0 17 -6 21 -33 21
-18 0 -42 -7 -53 -16z"/>
<path d="M1376 3373 c-9 -10 -7 -55 3 -49 12 8 21 45 11 51 -4 2 -10 2 -14 -2z"/>
<path d="M2490 3371 c0 -5 5 -13 10 -16 6 -3 10 -2 10 4 0 5 -4 13 -10 16 -5
3 -10 2 -10 -4z"/>
<path d="M548 3308 c-10 -34 -15 -64 -13 -66 11 -11 25 13 25 42 0 19 7 39 15
46 18 15 20 40 2 40 -7 0 -20 -27 -29 -62z"/>
<path d="M3694 3360 c-11 -4 -46 -11 -78 -15 -44 -6 -54 -10 -42 -19 26 -21
103 -244 142 -411 26 -112 26 -394 0 -515 -37 -176 -74 -286 -143 -423 -85
-171 -176 -293 -302 -404 -61 -54 -77 -73 -70 -86 11 -19 1 -47 -17 -47 -12 0
-20 27 -15 53 1 5 -3 6 -9 2 -18 -11 -7 -175 11 -175 30 0 282 258 362 370 74
103 190 331 231 450 43 127 77 281 81 375 4 87 4 89 -9 50 -8 -22 -15 -56 -15
-76 -1 -53 -45 -242 -79 -339 -43 -126 -139 -330 -154 -330 -4 0 -8 -4 -8 -9
0 -9 -48 -85 -72 -116 -5 -5 -27 -35 -50 -65 -50 -65 -251 -270 -266 -270 -11
0 -21 39 -14 58 2 7 10 12 17 12 17 0 34 30 28 47 -3 7 38 55 89 105 121 119
153 160 231 294 106 182 179 390 207 589 14 102 12 307 -5 405 -17 104 -25
132 -77 288 -23 67 -39 124 -37 126 2 2 21 6 41 10 l37 7 30 -98 c60 -193 89
-368 91 -535 0 -32 5 -58 10 -58 17 0 11 191 -10 313 -11 64 -36 171 -56 239
-19 67 -36 131 -38 143 -2 13 -10 19 -22 17 -11 -1 -40 -5 -66 -8 -28 -4 -48
-3 -48 3 0 12 115 37 129 28 6 -3 11 1 11 9 0 17 -14 19 -46 6z"/>
<path d="M1406 3351 c-3 -5 16 -12 42 -16 92 -14 112 -15 112 -2 0 8 -15 12
-42 12 -24 0 -57 3 -75 7 -18 4 -35 4 -37 -1z"/>
<path d="M2002 3340 c0 -14 2 -19 5 -12 2 6 2 18 0 25 -3 6 -5 1 -5 -13z"/>
<path d="M3940 3347 c0 -8 9 -22 19 -31 26 -23 39 -2 15 25 -20 22 -34 25 -34
6z"/>
<path d="M614 3333 c-3 -10 -13 -39 -24 -65 -14 -37 -15 -48 -5 -48 8 0 16 17
20 39 3 22 13 47 20 58 17 22 19 33 5 33 -6 0 -13 -8 -16 -17z"/>
<path d="M788 3330 c-22 -24 -3 -39 20 -16 11 10 13 19 6 26 -6 6 -15 3 -26
-10z"/>
<path d="M2415 3330 c-3 -5 3 -10 15 -10 12 0 18 5 15 10 -3 6 -10 10 -15 10
-5 0 -12 -4 -15 -10z"/>
<path d="M2666 3332 c-11 -2 -26 -10 -34 -18 -11 -12 -11 -14 2 -14 8 0 18 5
21 11 4 6 13 8 21 5 7 -3 16 -1 19 4 7 12 -6 17 -29 12z"/>
<path d="M2370 3318 c0 -9 6 -21 14 -25 8 -4 14 -17 13 -27 -1 -10 3 -21 10
-23 7 -3 10 4 6 19 -4 19 1 16 27 -15 18 -21 35 -36 37 -33 3 3 -7 20 -22 38
-19 22 -23 34 -15 36 17 6 54 -45 55 -72 0 -18 7 -21 49 -24 62 -4 96 4 96 23
0 8 5 15 10 15 6 0 10 9 10 20 0 10 9 24 20 30 16 9 20 8 20 -5 0 -8 7 -15 15
-15 8 0 15 -7 15 -14 0 -17 44 -68 52 -60 10 10 -37 83 -57 90 -18 5 -18 7 -2
11 19 5 22 18 7 28 -6 3 -13 0 -16 -8 -3 -9 -13 -13 -25 -10 -14 4 -25 -2 -36
-16 -13 -20 -23 -22 -88 -20 -54 1 -75 6 -80 16 -3 8 -3 18 -1 22 5 7 -47 6
-72 -1 -6 -2 -18 6 -26 17 -13 17 -15 18 -16 3z m244 -74 c31 -12 15 -19 -45
-19 -34 -1 -56 1 -50 3 6 2 9 8 5 13 -6 10 65 12 90 3z"/>
<path d="M2750 3319 c0 -5 5 -7 10 -4 6 3 10 8 10 11 0 2 -4 4 -10 4 -5 0 -10
-5 -10 -11z"/>
<path d="M2777 3304 c-16 -22 -16 -26 -2 -54 8 -16 20 -30 25 -30 16 0 12 20
-5 26 -18 7 -20 51 -3 56 6 2 9 9 7 15 -2 6 -12 0 -22 -13z"/>
<path d="M1383 3248 c-72 -249 -95 -395 -94 -588 0 -159 11 -240 51 -400 62
-245 173 -461 326 -634 52 -58 111 -117 130 -129 29 -18 34 -26 29 -47 -19
-79 -21 -75 41 -114 70 -43 82 -44 89 -8 4 15 13 50 21 77 7 28 11 60 8 73 -4
12 -4 22 -1 22 6 0 114 -65 133 -80 19 -17 31 -5 15 14 -10 12 -10 27 -2 68 7
29 17 55 22 59 8 5 8 9 0 13 -14 9 -41 -51 -41 -89 0 -29 -8 -31 -36 -9 -14
11 -16 17 -6 21 9 3 4 10 -13 19 -35 18 -40 18 -25 -1 9 -11 9 -15 1 -15 -6 0
-14 6 -17 14 -3 9 -12 12 -22 9 -25 -9 -31 -24 -25 -54 5 -28 -27 -86 -41 -72
-3 3 -6 -1 -6 -11 0 -9 5 -14 10 -11 12 8 13 -15 1 -34 -7 -11 -13 -11 -32 -1
-50 27 -66 45 -59 65 4 11 10 40 14 65 5 35 4 41 -4 27 -10 -15 -20 -9 -88 60
-143 144 -225 260 -299 422 -107 235 -147 415 -147 676 -1 224 15 329 90 583
15 52 31 63 63 43 11 -7 8 -30 -17 -127 -65 -249 -75 -330 -69 -534 4 -153 9
-203 30 -290 58 -234 155 -445 271 -584 44 -53 174 -186 181 -186 18 0 -5 32
-73 103 -112 118 -163 189 -225 313 -67 133 -99 221 -133 367 -32 139 -43 348
-24 493 12 102 70 352 95 417 8 20 15 39 15 41 0 2 -17 6 -37 9 -21 3 -47 8
-59 12 -18 6 -23 -1 -41 -67z"/>
<path d="M2510 3311 c0 -5 5 -13 10 -16 6 -3 10 -2 10 4 0 5 -4 13 -10 16 -5
3 -10 2 -10 -4z"/>
<path d="M1135 3299 c-10 -15 1 -23 20 -15 9 3 13 10 10 16 -8 13 -22 13 -30
-1z"/>
<path d="M766 3264 c-12 -12 -14 -20 -7 -27 15 -15 43 13 32 31 -6 11 -11 10
-25 -4z"/>
<path d="M1094 3229 c-10 -23 -23 -47 -29 -53 -11 -11 -45 -123 -70 -231 -7
-33 -16 -67 -19 -75 -5 -13 13 -15 119 -18 80 -1 125 1 125 8 0 5 -17 11 -37
11 -21 1 -69 3 -106 4 -38 2 -73 7 -78 12 -12 12 7 29 41 36 24 4 24 4 -4 6
-25 1 -28 4 -22 29 17 70 50 172 71 217 25 54 39 95 32 95 -2 0 -12 -19 -23
-41z"/>
<path d="M2350 3255 c10 -12 9 -15 -5 -15 -9 0 -15 -5 -13 -11 2 -6 8 -11 13
-11 6 0 17 -5 25 -11 13 -11 13 -10 1 6 -25 32 -6 27 33 -9 35 -32 66 -39 66
-14 0 9 -8 12 -26 9 -3 -1 -19 11 -34 26 -15 15 -32 27 -37 27 -4 0 -7 4 -5 9
1 5 -5 9 -14 9 -14 0 -14 -3 -4 -15z"/>
<path d="M2805 3260 c3 -5 8 -10 11 -10 2 0 4 5 4 10 0 6 -5 10 -11 10 -5 0
-7 -4 -4 -10z"/>
<path d="M2305 3220 c3 -5 8 -10 11 -10 2 0 4 5 4 10 0 6 -5 10 -11 10 -5 0
-7 -4 -4 -10z"/>
<path d="M2688 3216 c-10 -7 -18 -17 -18 -21 0 -4 7 -1 16 6 14 12 16 11 13
-6 -3 -14 -12 -20 -31 -20 -37 0 -46 -13 -14 -21 14 -3 23 -10 20 -15 -3 -5
-1 -9 5 -9 5 0 13 -10 17 -22 6 -20 7 -19 20 10 7 18 20 35 28 38 13 5 13 10
4 27 -11 21 -33 47 -40 47 -2 0 -11 -7 -20 -14z m42 -38 c0 -19 -18 -44 -25
-36 -4 3 0 15 7 27 15 24 18 26 18 9z"/>
<path d="M750 3206 c0 -8 -7 -17 -16 -20 -13 -5 -14 -9 -4 -22 15 -18 25 -9
34 29 4 16 2 27 -4 27 -5 0 -10 -6 -10 -14z"/>
<path d="M4020 3202 c0 -19 18 -42 32 -42 12 0 9 35 -4 48 -17 17 -28 15 -28
-6z"/>
<path d="M2156 3196 c3 -9 11 -16 16 -16 13 0 5 23 -10 28 -7 2 -10 -2 -6 -12z"/>
<path d="M510 3190 c0 -5 7 -7 15 -4 8 4 15 8 15 10 0 2 -7 4 -15 4 -8 0 -15
-4 -15 -10z"/>
<path d="M2126 3192 c-3 -6 -1 -14 5 -17 14 -9 20 -2 10 14 -6 8 -11 9 -15 3z"/>
<path d="M2350 3192 c0 -6 18 -30 40 -53 22 -23 40 -48 40 -54 0 -24 14 -24
27 2 7 14 11 28 8 31 -3 3 -5 -1 -5 -9 0 -8 -9 -1 -19 14 -12 18 -21 25 -26
18 -12 -21 -26 0 -20 30 4 19 3 29 -5 29 -7 0 -9 -7 -6 -17 6 -15 4 -15 -14 2
-11 10 -20 13 -20 7z"/>
<path d="M2940 3190 c-8 -5 -12 -12 -9 -15 4 -3 12 1 19 10 14 17 11 19 -10 5z"/>
<path d="M2980 3185 c-14 -16 -3 -20 19 -6 8 5 9 11 3 15 -5 3 -15 -1 -22 -9z"/>
<path d="M990 3171 c0 -10 42 -23 49 -15 7 6 -20 24 -36 24 -7 0 -13 -4 -13
-9z"/>
<path d="M3057 3174 c-3 -4 -3 -19 0 -35 3 -17 1 -29 -5 -29 -6 0 -13 10 -15
23 -3 12 -4 6 -4 -13 2 -30 5 -35 27 -35 23 0 25 4 28 48 2 35 0 47 -11 47 -7
0 -16 -3 -20 -6z"/>
<path d="M2074 3145 c-9 -35 19 -65 54 -60 39 5 39 5 14 15 -14 6 -25 21 -28
40 -8 37 -31 39 -40 5z"/>
<path d="M2783 3133 c-13 -19 -23 -39 -23 -44 0 -5 -6 -9 -12 -9 -7 0 -21 -26
-31 -58 -10 -31 -27 -68 -37 -82 -11 -14 -20 -29 -20 -34 0 -17 33 20 47 52 7
17 18 32 24 32 5 0 8 4 4 9 -8 13 30 83 60 111 25 23 32 45 18 53 -5 3 -18
-11 -30 -30z"/>
<path d="M3380 3163 c0 -5 21 -16 48 -24 26 -9 55 -19 65 -23 9 -5 17 -4 17 2
0 5 -19 16 -42 25 -67 24 -88 29 -88 20z"/>
<path d="M2335 3137 c4 -12 21 -35 37 -50 18 -17 28 -34 24 -43 -3 -8 -2 -13
3 -10 5 3 12 -2 15 -11 4 -9 1 -20 -6 -25 -13 -7 -11 -9 14 -12 6 0 13 -7 16
-15 3 -9 0 -11 -8 -6 -9 5 -11 4 -6 -3 7 -11 -6 -17 -27 -13 -5 1 -6 -3 -2 -9
3 -5 11 -10 17 -10 7 0 23 -10 37 -22 l25 -23 -22 32 c-31 44 -14 48 28 7 19
-19 41 -34 49 -34 11 0 10 4 -5 15 -22 16 -7 19 29 6 29 -11 79 -1 85 17 2 7
-1 12 -8 12 -6 0 -8 -5 -4 -11 8 -13 -78 -8 -110 6 -14 6 -17 5 -12 -3 4 -7 3
-12 -3 -12 -13 0 -44 45 -69 101 -11 26 -25 50 -31 53 -15 10 -14 29 2 20 7
-4 9 -3 4 2 -5 5 -14 9 -20 9 -7 0 -16 10 -22 22 -14 32 -39 40 -30 10z"/>
<path d="M2463 3135 c19 -17 29 -19 68 -14 26 4 63 4 83 -1 20 -4 36 -4 36 1
0 19 -47 31 -126 33 l-83 2 22 -21z"/>
<path d="M486 3123 c-3 -16 -8 -46 -12 -68 -4 -22 -11 -46 -17 -52 -7 -10 -3
-13 17 -13 14 0 26 5 26 10 0 6 -4 10 -9 10 -10 0 -2 71 8 80 9 7 8 60 -1 60
-3 0 -9 -12 -12 -27z"/>
<path d="M2160 3135 c0 -8 5 -15 10 -15 6 0 10 7 10 15 0 8 -4 15 -10 15 -5 0
-10 -7 -10 -15z"/>
<path d="M566 3126 c3 -9 11 -16 16 -16 13 0 5 23 -10 28 -7 2 -10 -2 -6 -12z"/>
<path d="M2949 3134 c-1 -5 -1 -13 0 -17 1 -5 -3 -6 -8 -3 -14 9 -40 -21 -37
-41 4 -27 31 -22 29 5 -2 12 2 22 7 22 6 0 10 -7 10 -15 0 -8 4 -15 10 -15 5
0 7 14 3 33 -6 34 -12 47 -14 31z"/>
<path d="M2980 3120 c-8 -14 -8 -26 -2 -32 6 -6 12 0 16 17 9 35 1 43 -14 15z"/>
<path d="M720 3109 c-13 -22 -5 -58 9 -43 14 15 22 64 12 64 -6 0 -15 -9 -21
-21z"/>
<path d="M2741 3114 c0 -11 3 -14 6 -6 3 7 2 16 -1 19 -3 4 -6 -2 -5 -13z"/>
<path d="M2194 3111 c3 -5 -1 -11 -9 -15 -8 -3 -15 -10 -15 -17 0 -6 7 -9 15
-5 8 3 14 2 13 -2 -1 -4 4 -20 11 -37 9 -23 14 -26 21 -15 6 9 5 17 -2 21 -8
5 -6 12 5 24 23 22 21 30 -8 43 -31 14 -38 15 -31 3z"/>
<path d="M2519 3099 c-6 -4 -9 -11 -5 -17 3 -5 -2 -9 -11 -8 -14 1 -18 -7 -18
-34 0 -43 28 -60 102 -60 82 0 111 53 58 106 -20 20 -34 24 -70 23 -25 -2 -50
-6 -56 -10z m66 -15 c45 11 53 -7 10 -21 l-40 -13 48 3 c27 1 47 -2 47 -8 0
-6 -28 -12 -62 -13 -84 -5 -87 -12 -5 -12 49 0 65 -3 62 -12 -3 -8 -21 -12
-48 -11 -23 1 -52 2 -64 2 -13 1 -23 7 -23 15 0 8 -6 17 -12 19 -10 4 -9 8 2
16 9 6 19 6 26 1 13 -12 26 -1 17 14 -4 6 -8 17 -9 24 -2 10 1 10 12 1 8 -6
25 -8 39 -5z"/>
<path d="M2325 3090 c3 -5 8 -10 11 -10 2 0 4 5 4 10 0 6 -5 10 -11 10 -5 0
-7 -4 -4 -10z"/>
<path d="M3009 3096 c0 -3 -1 -22 -1 -41 0 -59 2 -66 11 -61 13 9 23 -26 11
-38 -13 -13 -13 -39 0 -31 19 12 10 -6 -15 -29 -14 -13 -25 -27 -25 -32 1 -5
9 1 19 13 15 18 20 20 25 8 3 -8 11 -15 19 -15 7 0 37 -12 66 -26 29 -14 55
-23 58 -20 3 3 -17 15 -43 27 -81 37 -84 42 -85 133 -1 45 -4 71 -6 59 -2 -13
-9 -23 -14 -23 -6 0 -7 14 -4 34 4 20 2 36 -4 40 -6 4 -11 5 -12 2z"/>
<path d="M3457 3069 c-8 -19 -12 -38 -9 -43 3 -5 11 8 19 29 16 48 9 59 -10
14z"/>
<path d="M2128 3058 c-18 -14 -32 -164 -17 -174 10 -6 11 1 13 61 1 48 24 57
56 23 l22 -23 -4 25 c-2 18 -8 24 -22 22 -14 -3 -17 1 -12 13 5 13 2 15 -14
10 -23 -7 -24 -6 -10 29 11 30 10 31 -12 14z"/>
<path d="M3357 3056 c-4 -10 -5 -21 -2 -24 9 -9 17 6 13 25 -3 17 -4 17 -11
-1z"/>
<path d="M2290 3041 c-17 -34 -11 -58 23 -86 17 -15 55 -48 82 -74 57 -54 85
-69 85 -45 0 10 -6 14 -15 10 -8 -3 -14 -2 -14 2 3 21 -3 31 -16 26 -9 -4 -15
0 -15 9 0 8 -9 17 -20 20 -12 3 -20 14 -20 26 0 12 -4 22 -10 22 -17 2 -24 5
-52 19 -22 10 -26 16 -16 27 10 12 13 12 20 -1 11 -20 28 -21 28 -1 0 14 -15
19 -49 17 -10 0 -10 4 3 16 13 14 20 14 36 4 11 -7 20 -8 20 -4 0 8 -43 32
-55 32 -2 0 -9 -9 -15 -19z"/>
<path d="M2812 3048 c-18 -23 -52 -97 -52 -113 0 -11 -6 -15 -19 -10 -13 4
-24 -3 -36 -22 l-18 -28 27 24 c33 31 33 22 0 -46 -29 -58 -27 -87 2 -32 9 18
23 39 31 47 8 8 12 21 8 30 -4 12 -3 13 9 3 18 -15 51 4 82 46 30 41 34 59 20
78 -11 16 -13 14 -13 -15 0 -19 -7 -38 -16 -45 -9 -7 -17 -17 -17 -22 0 -15
-29 -37 -37 -29 -4 4 -3 10 2 14 6 4 11 13 13 21 3 12 0 12 -13 1 -13 -11 -15
-10 -10 1 3 8 15 19 28 24 12 6 23 19 25 30 3 18 1 17 -17 -5 -11 -14 -21 -19
-21 -12 0 7 11 23 25 36 14 13 25 26 25 30 0 10 -17 7 -28 -6z"/>
<path d="M2980 3043 c0 -10 -3 -36 -7 -57 -5 -31 -3 -37 7 -31 10 6 11 4 5
-11 -4 -10 -10 -31 -13 -46 -2 -16 -9 -28 -14 -28 -6 0 -8 14 -5 35 3 20 2 33
-3 30 -4 -3 -11 1 -13 7 -3 7 -6 -5 -6 -27 -1 -30 4 -43 19 -53 18 -11 21 -9
30 13 6 15 10 35 10 45 0 10 5 22 10 25 6 3 10 13 10 21 0 9 -5 12 -12 8 -8
-5 -9 5 -5 34 3 23 1 45 -4 48 -5 3 -9 -3 -9 -13z"/>
<path d="M4090 3036 c0 -28 17 -43 32 -28 7 7 6 17 -1 31 -16 28 -31 27 -31
-3z"/>
<path d="M701 3036 c-13 -15 -7 -36 9 -36 12 0 22 32 12 42 -5 5 -14 2 -21 -6z"/>
<path d="M2936 3025 c-4 -10 -2 -21 5 -25 8 -6 8 -9 0 -14 -6 -4 -16 3 -21 16
-9 20 -10 20 -4 -7 7 -37 7 -37 28 -29 17 7 20 26 7 58 -7 19 -8 19 -15 1z"/>
<path d="M4635 3020 c4 -6 11 -8 16 -5 14 9 11 15 -7 15 -8 0 -12 -5 -9 -10z"/>
<path d="M760 3010 c0 -5 4 -10 9 -10 6 0 13 5 16 10 3 6 -1 10 -9 10 -9 0
-16 -4 -16 -10z"/>
<path d="M972 3011 c-11 -7 -11 -9 2 -14 10 -4 16 -1 16 8 0 17 -1 17 -18 6z"/>
<path d="M3360 2984 c-7 -19 -13 -41 -14 -47 -1 -7 -5 -18 -9 -24 -5 -7 -4
-13 1 -13 11 0 29 37 37 78 6 31 18 41 29 23 3 -5 -1 -28 -9 -50 -8 -23 -10
-39 -5 -36 6 3 10 1 10 -6 0 -33 20 11 23 48 1 23 5 39 10 36 4 -2 7 0 7 5 0
12 -24 22 -50 22 -12 0 -22 -12 -30 -36z"/>
<path d="M530 3000 c0 -5 5 -10 10 -10 6 0 10 5 10 10 0 6 -4 10 -10 10 -5 0
-10 -4 -10 -10z"/>
<path d="M2360 2996 c0 -23 16 -27 17 -5 1 10 -2 19 -8 19 -5 0 -9 -6 -9 -14z"/>
<path d="M3465 2994 c-8 -9 -15 -25 -15 -37 0 -13 -7 -32 -15 -44 -10 -14 -11
-24 -5 -28 10 -6 21 13 38 70 6 19 15 29 26 29 20 -2 21 12 1 20 -8 3 -21 -2
-30 -10z"/>
<path d="M2217 2985 c-3 -6 4 -11 14 -11 11 0 19 5 19 11 0 7 -7 12 -15 12 -8
0 -16 -5 -18 -12z"/>
<path d="M685 2959 c-4 -11 -4 -23 0 -27 7 -7 25 17 25 36 0 20 -18 14 -25 -9z"/>
<path d="M527 2950 c-3 -13 0 -20 9 -20 15 0 19 26 5 34 -5 3 -11 -3 -14 -14z"/>
<path d="M2140 2951 c0 -12 9 -30 20 -41 11 -11 16 -20 10 -20 -21 0 -9 -20
15 -26 32 -8 33 -7 50 50 18 59 4 60 -21 1 -16 -40 -19 -43 -26 -24 -5 11 -6
25 -2 30 3 5 1 9 -5 9 -5 0 -12 -6 -14 -12 -3 -7 -6 -1 -6 14 -1 31 -21 49
-21 19z"/>
<path d="M2620 2960 c-13 -8 -12 -10 3 -10 9 0 17 5 17 10 0 12 -1 12 -20 0z"/>
<path d="M3536 2956 c3 -9 11 -16 16 -16 13 0 5 23 -10 28 -7 2 -10 -2 -6 -12z"/>
<path d="M4127 2815 c3 -88 7 -162 10 -164 2 -3 8 0 13 5 13 13 -3 274 -18
300 -9 14 -10 -21 -5 -141z"/>
<path d="M461 2941 c-10 -17 -9 -21 3 -21 20 0 27 13 16 29 -6 11 -10 9 -19
-8z"/>
<path d="M2550 2950 c0 -5 7 -7 15 -4 8 4 15 8 15 10 0 2 -7 4 -15 4 -8 0 -15
-4 -15 -10z"/>
<path d="M950 2930 c0 -5 5 -10 10 -10 6 0 10 5 10 10 0 6 -4 10 -10 10 -5 0
-10 -4 -10 -10z"/>
<path d="M4692 2800 c0 -162 10 -273 22 -247 5 9 6 34 2 55 -3 20 -6 93 -6
162 -1 69 -5 134 -10 145 -5 13 -8 -29 -8 -115z"/>
<path d="M675 2908 c-9 -29 -9 -47 0 -45 6 1 9 7 7 14 -2 7 2 13 8 13 5 0 10
7 10 15 0 18 -19 20 -25 3z"/>
<path d="M745 2909 c-10 -15 1 -23 20 -15 9 3 13 10 10 16 -8 13 -22 13 -30
-1z"/>
<path d="M1078 2913 c7 -3 16 -2 19 1 4 3 -2 6 -13 5 -11 0 -14 -3 -6 -6z"/>
<path d="M1123 2913 c9 -2 23 -2 30 0 6 3 -1 5 -18 5 -16 0 -22 -2 -12 -5z"/>
<path d="M423 2884 c-3 -9 -3 -130 0 -268 4 -138 7 -261 7 -273 0 -13 4 -23 8
-23 11 0 10 223 -1 231 -5 4 -5 76 0 174 7 153 3 203 -14 159z"/>
<path d="M470 2794 l0 -109 70 3 70 4 0 99 0 99 -54 0 c-30 0 -61 3 -70 6 -14
5 -16 -8 -16 -102z m118 36 c2 -19 1 -54 -3 -77 l-6 -43 -45 0 -44 0 0 81 0
80 48 -3 c46 -3 47 -4 50 -38z"/>
<path d="M3461 2884 c0 -11 3 -14 6 -6 3 7 2 16 -1 19 -3 4 -6 -2 -5 -13z"/>
<path d="M4537 2893 c-4 -3 -7 -53 -7 -110 l0 -103 70 0 70 0 0 110 0 110 -63
0 c-35 0 -67 -3 -70 -7z m104 -45 c1 -41 -3 -132 -6 -138 -2 -3 -22 -4 -44 -2
l-41 4 0 79 0 79 45 0 c40 0 45 -3 46 -22z"/>
<path d="M256 2882 c-8 -13 -18 -480 -11 -513 7 -29 8 -30 58 -27 l52 3 0 270
0 270 -47 3 c-25 2 -49 -1 -52 -6z m84 -267 l0 -255 -41 0 -42 0 6 68 c4 37 7
151 7 255 l0 187 35 0 35 0 0 -255z"/>
<path d="M2655 2880 c-3 -5 -1 -10 4 -10 6 0 11 5 11 10 0 6 -2 10 -4 10 -3 0
-8 -4 -11 -10z"/>
<path d="M3301 2858 c-11 -18 -29 -43 -41 -56 -12 -13 -19 -30 -16 -38 3 -9 1
-12 -4 -9 -6 3 -10 1 -10 -4 0 -6 -4 -11 -10 -11 -6 0 -6 9 0 25 5 14 6 25 1
25 -5 0 -14 -20 -21 -45 -15 -54 -4 -90 29 -92 24 -2 31 6 36 46 2 23 0 28
-11 24 -8 -3 -14 0 -14 6 0 6 5 11 10 11 6 0 10 11 10 25 0 15 6 25 15 25 8 0
12 6 9 14 -3 7 2 16 10 19 9 4 16 13 16 21 0 20 18 30 33 17 8 -6 18 -6 27 -1
11 7 8 11 -13 19 -37 14 -32 16 -56 -21z m-59 -142 c11 -8 15 -20 11 -34 -7
-28 -23 -29 -23 -2 0 11 -7 23 -15 26 -8 4 -15 10 -15 15 0 13 22 10 42 -5z"/>
<path d="M4507 2883 c-4 -3 -7 -11 -7 -17 0 -6 5 -5 12 2 6 6 9 14 7 17 -3 3
-9 2 -12 -2z"/>
<path d="M4775 2881 c-3 -2 -5 -128 -5 -278 l0 -274 53 3 52 3 3 273 c2 254 1
272 -15 273 -58 5 -84 5 -88 0z m83 -273 l-3 -253 -32 -3 -33 -3 0 255 0 256
35 0 35 0 -2 -252z"/>
<path d="M2515 2850 c-35 -37 -37 -77 -4 -124 33 -48 68 -60 107 -36 66 40 80
115 31 161 -43 40 -95 40 -134 -1z m89 -5 c3 -8 15 -15 26 -15 17 0 20 -6 20
-42 0 -38 -4 -46 -35 -65 -32 -21 -72 -22 -59 -2 3 5 -4 9 -15 9 -22 0 -30 20
-8 21 6 0 3 4 -8 9 -11 5 -14 9 -7 9 6 1 12 8 12 17 0 8 -4 12 -10 9 -5 -3
-10 -2 -10 2 0 13 38 34 45 23 3 -5 3 -23 0 -39 -3 -18 -1 -31 5 -31 5 0 10
16 10 35 0 19 5 35 11 35 5 0 7 5 4 10 -4 6 -11 8 -16 5 -10 -7 -12 8 -2 18
11 12 31 8 37 -8z"/>
<path d="M2587 2790 c4 -16 9 -18 24 -9 10 5 19 12 19 15 0 3 -4 3 -9 -1 -5
-3 -12 -1 -16 5 -11 17 -23 11 -18 -10z"/>
<path d="M2582 2745 c-10 -12 -10 -15 2 -15 7 0 16 7 20 15 7 19 -5 19 -22 0z"/>
<path d="M860 2860 c20 -13 100 -13 100 0 0 6 -26 10 -57 10 -41 0 -54 -3 -43
-10z"/>
<path d="M2049 2848 c-25 -26 -49 -79 -49 -105 1 -10 10 2 21 27 12 25 33 57
47 73 14 15 21 27 14 27 -6 0 -21 -10 -33 -22z"/>
<path d="M3390 2850 c0 -5 8 -10 18 -10 10 0 28 -7 40 -16 13 -9 26 -14 29
-11 6 7 -57 47 -74 47 -7 0 -13 -4 -13 -10z"/>
<path d="M2075 2818 c-33 -42 -72 -127 -50 -108 8 7 15 18 15 25 0 14 78 95
91 95 5 0 9 5 9 10 0 22 -41 8 -65 -22z"/>
<path d="M3330 2840 c-12 -7 -12 -12 -2 -22 9 -9 15 -9 24 0 16 16 -2 34 -22
22z"/>
<path d="M982 2820 c0 -14 2 -19 5 -12 2 6 2 18 0 25 -3 6 -5 1 -5 -13z"/>
<path d="M2237 2834 c-3 -4 -3 -19 0 -35 4 -22 -1 -39 -22 -69 -15 -22 -32
-37 -38 -33 -6 3 -7 1 -3 -6 11 -16 -85 -111 -112 -111 -21 0 -39 -17 -28 -27
9 -10 90 44 138 93 50 50 82 106 92 162 5 30 -9 44 -27 26z"/>
<path d="M2920 2828 c1 -37 21 -93 42 -115 22 -25 97 -64 148 -77 14 -3 -9 11
-50 31 -60 30 -74 42 -72 58 2 14 0 16 -6 7 -14 -20 -29 5 -37 61 -4 26 -11
47 -16 47 -5 0 -9 -6 -9 -12z"/>
<path d="M2997 2833 c-4 -3 5 -12 19 -20 33 -17 33 -17 27 7 -5 19 -33 27 -46
13z"/>
<path d="M3078 2827 c-29 -23 -29 -45 1 -67 16 -11 38 -20 49 -20 12 0 24 -5
27 -10 4 -6 11 -8 16 -5 12 8 11 35 -2 35 -5 0 -7 -6 -3 -12 4 -7 4 -10 -1 -6
-4 4 -13 18 -19 30 -6 12 -27 26 -46 31 -34 10 -34 10 -10 16 14 4 20 10 14
14 -6 3 -18 1 -26 -6z"/>
<path d="M663 2818 c0 -7 -4 -21 -8 -30 -5 -14 -2 -18 13 -18 14 0 19 6 17 18
-2 9 -4 23 -4 30 -1 6 -5 12 -9 12 -5 0 -9 -6 -9 -12z"/>
<path d="M956 2814 c-3 -9 -6 -34 -6 -56 l0 -41 -80 7 c-45 4 -80 3 -80 -2 0
-5 36 -13 80 -16 l80 -7 -6 -35 c-3 -21 -1 -34 5 -34 6 0 11 6 11 13 1 6 3 51
6 100 6 84 3 105 -10 71z"/>
<path d="M3368 2807 c-4 -21 -2 -22 18 -13 12 6 19 16 17 23 -8 21 -30 15 -35
-10z"/>
<path d="M2145 2810 c-3 -5 -2 -10 4 -10 5 0 13 5 16 10 3 6 2 10 -4 10 -5 0
-13 -4 -16 -10z"/>
<path d="M2170 2800 c-17 -19 -27 -36 -76 -127 -20 -35 -33 -67 -30 -70 3 -3
11 6 17 21 7 14 18 26 25 26 8 0 11 6 7 17 -4 9 -2 14 3 11 5 -4 16 -1 24 5
17 14 24 50 7 40 -7 -4 -8 0 -4 11 4 10 7 20 7 22 0 2 5 4 11 4 5 0 7 -5 3
-12 -4 -7 -3 -8 4 -4 6 4 9 13 5 21 -3 8 -1 15 5 15 12 0 24 28 14 33 -4 2
-14 -4 -22 -13z m-39 -113 c-8 -8 -11 -7 -11 4 0 20 13 34 18 19 3 -7 -1 -17
-7 -23z"/>
<path d="M3130 2812 c0 -4 13 -15 28 -24 26 -16 29 -16 39 2 15 24 6 32 -19
17 -16 -9 -22 -9 -25 1 -5 13 -23 17 -23 4z"/>
<path d="M2416 2788 c-4 -15 0 -27 11 -35 22 -17 27 -10 13 17 -8 15 -8 20 -1
16 6 -4 11 0 11 8 0 24 -27 19 -34 -6z"/>
<path d="M2972 2785 c11 -25 28 -34 28 -16 0 9 -28 41 -35 41 -3 0 1 -11 7
-25z"/>
<path d="M710 2785 c0 -8 5 -15 10 -15 6 0 10 7 10 15 0 8 -4 15 -10 15 -5 0
-10 -7 -10 -15z"/>
<path d="M2093 2761 c-27 -36 -49 -78 -121 -229 -18 -39 -27 -36 -11 4 20 51
29 88 20 78 -13 -13 -53 -135 -47 -142 3 -2 12 1 21 8 13 11 14 10 9 -4 -3 -9
-1 -16 5 -16 10 0 15 20 12 48 -2 14 25 16 34 2 4 -6 11 -7 17 -4 7 5 3 10
-10 15 -29 11 -28 37 3 61 13 10 24 22 23 26 -2 4 17 45 40 91 48 96 51 124 5
62z"/>
<path d="M3437 2793 c-10 -10 -8 -33 2 -33 6 0 9 9 8 20 -1 23 -1 22 -10 13z"/>
<path d="M2713 2783 c-21 -8 -15 -22 7 -16 11 3 20 9 20 14 0 10 -8 10 -27 2z"/>
<path d="M3023 2775 c-10 -11 -5 -18 25 -36 20 -13 41 -22 46 -20 4 1 5 -10 2
-24 -5 -18 -2 -25 8 -25 9 0 13 7 11 20 -5 24 -1 25 31 4 22 -15 24 -15 18 0
-3 9 -18 19 -33 23 -51 12 -101 42 -95 58 7 18 3 19 -13 0z"/>
<path d="M3313 2773 c9 -9 19 -14 23 -11 10 10 -6 28 -24 28 -15 0 -15 -1 1
-17z"/>
<path d="M797 2773 c-4 -3 -7 -10 -7 -14 0 -9 39 1 46 12 6 10 -29 12 -39 2z"/>
<path d="M3342 2740 c-8 -16 -10 -35 -6 -42 4 -7 4 -10 -1 -6 -4 4 -13 0 -20
-9 -13 -17 -8 -63 7 -63 5 0 6 5 2 11 -4 7 2 9 17 7 16 -2 24 -9 23 -21 -1 -9
2 -17 7 -17 5 0 9 8 9 17 0 13 3 14 12 5 15 -15 32 -16 23 -2 -3 6 0 10 7 11
7 1 -7 5 -31 10 -25 5 -52 15 -60 24 -14 13 -12 15 12 15 15 0 27 5 27 11 0 5
-4 8 -9 5 -5 -3 -11 3 -14 13 -6 26 14 33 52 18 17 -6 33 -8 37 -4 10 10 2 16
-24 20 -12 2 -28 9 -34 15 -17 17 -22 15 -36 -18z"/>
<path d="M2713 2749 c-13 -5 -23 -14 -23 -20 0 -8 4 -8 14 1 12 9 15 8 13 -8
0 -12 -6 -18 -14 -15 -7 3 -13 0 -13 -6 0 -6 7 -11 17 -11 14 0 15 -2 1 -17
-8 -10 -18 -27 -22 -38 l-7 -20 20 20 c11 11 22 29 24 40 2 11 7 28 11 37 13
30 4 46 -21 37z"/>
<path d="M3295 2750 c-4 -7 -2 -16 4 -20 9 -5 8 -10 -4 -20 -17 -14 -20 -40
-5 -40 6 0 10 8 10 18 0 10 5 23 11 29 7 7 8 17 1 28 -7 13 -11 14 -17 5z"/>
<path d="M2418 2730 c-8 -22 9 -60 27 -60 8 0 15 5 15 10 0 6 -4 10 -8 10 -5
0 -13 12 -18 28 -7 19 -11 23 -16 12z"/>
<path d="M3014 2715 c24 -18 39 -19 34 -3 -2 6 -15 13 -29 14 -23 4 -23 3 -5
-11z"/>
<path d="M1944 2706 c-3 -7 -4 -17 -3 -22 3 -13 -13 -48 -25 -56 -8 -6 -6 -11
4 -17 11 -8 18 -2 29 22 8 18 15 35 15 39 1 3 4 10 9 14 4 4 7 13 7 21 0 17
-29 17 -36 -1z"/>
<path d="M2510 2663 c11 -23 21 -55 21 -70 2 -24 2 -24 6 -5 3 16 11 22 30 22
15 0 23 3 19 8 -4 4 -18 7 -29 7 -12 0 -21 5 -20 11 1 5 -9 23 -22 40 l-25 29
20 -42z"/>
<path d="M3060 2690 c0 -5 5 -10 11 -10 5 0 7 5 4 10 -3 6 -8 10 -11 10 -2 0
-4 -4 -4 -10z"/>
<path d="M3395 2680 c-4 -6 -3 -16 3 -22 6 -6 12 -6 17 2 4 6 3 16 -3 22 -6 6
-12 6 -17 -2z"/>
<path d="M2743 2660 c1 -14 -2 -31 -7 -38 -5 -8 -14 -36 -21 -63 -10 -37 -10
-49 -2 -46 7 2 16 18 22 35 6 20 14 31 22 27 10 -3 11 0 4 13 -11 20 1 47 20
47 7 0 14 6 17 13 3 9 -3 11 -21 7 -19 -5 -26 -2 -30 12 -4 12 -5 10 -4 -7z"/>
<path d="M3141 2667 c-1 -10 7 -21 16 -24 15 -6 15 -7 -3 -14 -13 -5 -14 -8
-4 -8 8 -1 28 -8 43 -16 26 -13 28 -13 25 3 -2 10 -11 16 -21 14 -10 -2 -17 1
-16 5 3 21 -2 33 -15 33 -8 0 -17 6 -19 13 -3 7 -6 5 -6 -6z"/>
<path d="M1997 2663 c-4 -3 -7 -11 -7 -17 0 -6 5 -5 12 2 6 6 9 14 7 17 -3 3
-9 2 -12 -2z"/>
<path d="M2304 2662 c-6 -4 -19 -21 -29 -39 -15 -26 -16 -35 -6 -47 11 -13 15
-12 34 7 12 12 21 25 20 30 -2 4 3 7 11 7 24 0 30 22 11 37 -21 15 -26 16 -41
5z"/>
<path d="M2395 2625 c-6 -38 -3 -51 22 -92 16 -26 38 -69 48 -96 10 -26 20
-45 23 -43 10 11 -22 107 -44 131 -29 32 -30 35 -4 35 11 0 20 5 20 11 0 6 -9
8 -21 4 -13 -5 -25 -2 -30 6 -11 19 0 32 17 18 17 -14 18 -5 2 38 -16 45 -25
42 -33 -12z"/>
<path d="M450 2621 c0 -56 19 -71 91 -71 60 0 71 8 44 30 -8 7 -15 8 -15 3 0
-15 -90 -9 -100 6 -4 7 -5 22 -3 32 5 16 15 19 73 19 45 0 70 -4 73 -12 3 -7
6 -3 6 10 1 21 -2 22 -84 22 l-85 0 0 -39z"/>
<path d="M2366 2631 c-18 -35 -19 -41 -7 -41 11 0 36 59 28 66 -3 3 -13 -8
-21 -25z"/>
<path d="M2831 2625 c20 -32 24 -40 33 -67 3 -11 11 -15 20 -12 13 5 13 11 0
46 -18 52 -31 67 -53 65 -18 -1 -18 -2 0 -32z"/>
<path d="M3280 2650 c-13 -8 -12 -10 3 -10 9 0 17 5 17 10 0 12 -1 12 -20 0z"/>
<path d="M649 2643 c-3 -13 -6 -37 -8 -56 0 -10 -5 -15 -11 -12 -5 3 -10 0
-10 -9 0 -8 7 -13 18 -11 9 2 103 4 207 6 112 1 176 5 155 9 -48 10 -35 11
108 10 144 -1 169 17 30 22 -232 9 -459 8 -453 -2 3 -5 25 -10 48 -11 50 -1
40 -6 -25 -12 l-48 -5 6 39 c4 26 3 39 -5 39 -6 0 -12 -3 -12 -7z m198 -59
c-3 -3 -12 -4 -19 -1 -8 3 -5 6 6 6 11 1 17 -2 13 -5z m86 -1 c-13 -2 -35 -2
-50 0 -16 2 -5 4 22 4 28 0 40 -2 28 -4z"/>
<path d="M2445 2640 c3 -5 13 -10 21 -10 8 0 14 5 14 10 0 6 -9 10 -21 10 -11
0 -17 -4 -14 -10z"/>
<path d="M2622 2639 c-13 -5 -20 -13 -17 -19 7 -12 45 5 45 20 0 6 -1 10 -2 9
-2 0 -13 -4 -26 -10z"/>
<path d="M4480 2637 c-25 -5 -170 -11 -322 -14 -246 -3 -309 -10 -265 -26 8
-3 6 -10 -8 -21 -19 -14 -10 -15 120 -16 77 -1 222 -3 322 -5 180 -4 183 -3
172 16 -7 14 -16 18 -30 14 -21 -7 -36 16 -24 35 5 8 14 7 30 -4 21 -14 24
-14 29 0 11 30 28 2 23 -37 l-5 -39 76 0 77 0 0 55 0 55 -75 -1 c-41 -1 -95
-6 -120 -12z m170 -42 l0 -36 -52 3 c-42 2 -54 7 -56 21 -7 34 5 43 57 46 l51
2 0 -36z m-222 -14 c4 -11 -6 -12 -49 -7 -30 4 -144 7 -254 8 -110 1 -186 5
-170 8 17 3 129 6 249 6 177 -1 220 -4 224 -15z"/>
<path d="M2800 2626 c0 -9 5 -16 10 -16 6 0 10 4 10 9 0 6 -4 13 -10 16 -5 3
-10 -1 -10 -9z"/>
<path d="M3236 2615 c4 -8 8 -15 10 -15 2 0 4 7 4 15 0 8 -4 15 -10 15 -5 0
-7 -7 -4 -15z"/>
<path d="M3282 2622 c-10 -3 -10 -7 -1 -19 10 -12 10 -16 -1 -23 -21 -13 4
-38 46 -46 19 -3 34 -10 34 -15 0 -19 17 -8 29 18 8 18 9 29 1 37 -7 7 -10 3
-10 -13 0 -21 -3 -23 -32 -17 -41 8 -62 26 -48 40 7 7 14 6 22 -2 7 -7 18 -12
26 -12 18 0 10 25 -9 26 -8 1 -19 2 -26 3 -6 0 -13 7 -15 14 -2 8 -9 12 -16 9z"/>
<path d="M2474 2591 c3 -18 6 -44 6 -58 0 -13 4 -21 10 -18 11 7 2 86 -12 100
-7 7 -9 -1 -4 -24z"/>
<path d="M2780 2606 c0 -9 5 -16 10 -16 6 0 10 4 10 9 0 6 -4 13 -10 16 -5 3
-10 -1 -10 -9z"/>
<path d="M1252 2570 c0 -19 2 -27 5 -17 2 9 2 25 0 35 -3 9 -5 1 -5 -18z"/>
<path d="M1900 2583 c0 -10 -11 -40 -25 -68 -22 -45 -22 -51 -8 -62 13 -10 12
-15 -12 -38 -17 -18 -24 -33 -20 -44 6 -14 8 -13 15 6 5 12 17 26 27 31 15 9
16 15 6 41 -6 17 -8 29 -3 26 14 -9 39 52 27 64 -8 8 -7 11 2 11 7 0 10 4 7 9
-4 5 -1 11 6 13 6 2 8 10 4 16 -11 18 -26 15 -26 -5z"/>
<path d="M2600 2590 c0 -5 4 -10 9 -10 6 0 13 5 16 10 3 6 -1 10 -9 10 -9 0
-16 -4 -16 -10z"/>
<path d="M2687 2587 c-11 -29 -9 -43 4 -30 6 6 9 19 7 29 -3 18 -4 18 -11 1z"/>
<path d="M2555 2580 c3 -5 10 -10 16 -10 5 0 9 5 9 10 0 6 -7 10 -16 10 -8 0
-12 -4 -9 -10z"/>
<path d="M2790 2570 c0 -5 5 -10 11 -10 5 0 7 5 4 10 -3 6 -8 10 -11 10 -2 0
-4 -4 -4 -10z"/>
<path d="M2825 2570 c3 -5 8 -10 11 -10 2 0 4 5 4 10 0 6 -5 10 -11 10 -5 0
-7 -4 -4 -10z"/>
<path d="M3230 2574 c0 -16 17 -37 27 -33 6 2 2 13 -8 23 -11 11 -19 15 -19
10z"/>
<path d="M2235 2548 c-9 -26 12 -49 25 -28 14 22 12 37 -4 43 -9 4 -17 -2 -21
-15z"/>
<path d="M2320 2555 c0 -8 5 -15 10 -15 6 0 10 7 10 15 0 8 -4 15 -10 15 -5 0
-10 -7 -10 -15z"/>
<path d="M1118 2553 c18 -2 45 -2 60 0 15 2 0 4 -33 4 -33 0 -45 -2 -27 -4z"/>
<path d="M2910 2550 c0 -5 -10 -19 -22 -30 -16 -15 -18 -19 -6 -15 13 5 19 -2
28 -37 7 -24 16 -53 21 -66 5 -13 7 -28 4 -33 -4 -5 -1 -9 6 -9 6 0 9 -8 6
-20 -3 -10 1 -36 9 -57 18 -52 17 -163 -2 -253 -30 -135 -34 -146 -63 -190
-23 -34 -28 -51 -24 -77 4 -26 1 -38 -13 -49 -15 -12 -15 -15 -3 -11 9 3 22 0
29 -6 10 -9 12 -8 7 6 -8 22 6 22 24 0 12 -15 12 -16 -1 -8 -8 4 -4 -3 8 -17
15 -17 30 -56 43 -110 20 -90 25 -208 9 -208 -6 0 -8 -11 -4 -25 3 -14 3 -33
-1 -42 -6 -14 -10 -11 -16 17 -20 93 -45 162 -94 260 -30 59 -51 110 -48 114
4 3 -1 6 -10 6 -10 0 -17 -3 -17 -6 0 -3 25 -53 55 -109 36 -66 65 -137 80
-197 26 -99 54 -181 55 -160 0 6 4 12 10 12 6 0 6 -9 0 -26 -15 -39 -13 -44
25 -44 24 0 35 -5 35 -15 0 -8 -5 -15 -12 -15 -6 0 -3 -6 8 -14 10 -8 20 -13
22 -12 1 2 -11 56 -28 122 -16 65 -30 137 -30 161 0 57 -41 266 -53 274 -6 4
-7 28 -3 58 4 31 2 59 -4 71 -7 14 -7 20 0 20 5 0 10 7 10 16 0 12 -3 14 -13
6 -10 -9 -13 -5 -11 16 2 44 6 49 13 22 7 -20 9 -14 15 35 5 33 14 82 22 109
28 100 4 369 -41 457 -28 54 -14 50 73 -22 98 -81 184 -139 206 -139 8 0 16
-5 18 -12 2 -6 15 37 28 96 13 59 27 109 32 112 11 7 10 -33 -2 -76 -15 -57
-21 -100 -13 -100 5 0 15 37 24 83 15 73 15 84 1 100 -8 9 -18 17 -22 17 -8 0
-23 -54 -40 -142 -11 -55 -12 -57 -33 -46 -41 21 -102 66 -166 122 -70 61
-131 101 -131 86z m10 -775 c0 -14 -4 -25 -10 -25 -11 0 -14 33 -3 43 11 11
13 8 13 -18z m89 -512 c24 -93 25 -101 11 -87 -6 6 -17 41 -25 80 -27 125 -17
130 14 7z"/>
<path d="M2543 2540 c-39 -16 -47 -45 -33 -124 7 -39 14 -76 15 -82 4 -15 70
-23 90 -12 38 22 61 213 25 214 -8 0 -28 3 -45 7 -16 3 -40 2 -52 -3z m74 -28
c20 -13 26 -59 11 -92 -12 -29 -16 -31 -47 -26 -42 7 -51 19 -51 73 0 44 -2
42 65 51 6 1 15 -2 22 -6z m-26 -143 c11 -5 17 -14 14 -20 -6 -9 -55 -13 -55
-5 0 2 -3 11 -6 20 -7 19 17 22 47 5z"/>
<path d="M949 2538 c-5 -13 -5 -108 0 -108 4 0 12 -30 19 -67 6 -38 14 -82 17
-98 6 -27 4 -31 -18 -33 -13 -1 -35 -6 -48 -11 -18 -7 -12 -8 29 -6 29 1 55 4
57 6 2 2 -6 51 -17 109 -11 58 -20 129 -21 158 0 28 -4 52 -9 52 -4 0 -8 -1
-9 -2z"/>
<path d="M2086 2508 c1 -18 -3 -40 -7 -48 -4 -8 -19 -44 -32 -80 -15 -41 -32
-69 -46 -75 -21 -10 -38 -41 -27 -52 6 -7 52 43 72 80 22 40 73 195 66 201
-15 15 -27 3 -26 -26z"/>
<path d="M470 2424 l0 -109 67 1 67 1 0 101 1 102 -52 0 c-28 0 -58 3 -67 6
-14 5 -16 -8 -16 -102z m110 -4 l0 -80 -45 0 -45 0 0 80 0 80 45 0 45 0 0 -80z"/>
<path d="M1070 2520 c0 -5 5 -10 11 -10 5 0 7 5 4 10 -3 6 -8 10 -11 10 -2 0
-4 -4 -4 -10z"/>
<path d="M4700 2528 c-6 -31 -5 -228 1 -228 5 0 9 52 9 115 0 63 -2 115 -5
115 -3 0 -5 -1 -5 -2z"/>
<path d="M2282 2492 c-24 -64 -43 -133 -44 -162 -1 -18 -6 -30 -15 -30 -7 0
-13 -4 -13 -10 0 -5 7 -7 15 -4 12 5 15 -2 15 -30 0 -20 5 -36 10 -36 6 0 10
14 10 30 0 22 12 43 41 75 25 28 39 51 35 60 -3 8 -2 15 3 15 4 0 12 -15 18
-34 8 -27 8 -33 -2 -30 -7 3 -16 -4 -20 -15 -3 -11 -19 -34 -36 -52 -48 -51
-28 -56 24 -5 26 25 50 46 52 46 3 0 5 -9 5 -21 0 -11 5 -29 10 -39 6 -10 11
-32 12 -47 1 -15 6 -33 11 -40 13 -17 15 -73 4 -80 -6 -3 -16 2 -24 12 -7 11
-13 14 -13 8 0 -6 6 -16 14 -22 8 -6 20 -26 27 -43 l13 -32 8 30 c14 50 -16
202 -62 317 -25 60 -26 67 -10 67 12 0 21 -13 29 -44 16 -64 36 -76 36 -21 -1
36 -6 48 -30 67 -17 12 -33 27 -37 34 -4 6 -23 23 -42 37 l-34 26 -10 -27z
m51 -42 c3 -11 -1 -24 -7 -29 -7 -6 -11 -24 -8 -41 3 -25 1 -30 -15 -30 -31 0
-33 9 -14 59 10 25 16 52 14 59 -3 7 1 10 10 6 8 -3 17 -14 20 -24z m-43 -10
c0 -5 -5 -10 -11 -10 -5 0 -7 5 -4 10 3 6 8 10 11 10 2 0 4 -4 4 -10z m-29
-86 c-5 -16 -10 -21 -10 -12 -1 18 10 51 15 45 2 -1 -1 -16 -5 -33z"/>
<path d="M4130 2476 c0 -40 2 -44 21 -39 17 5 19 11 13 37 -13 63 -34 64 -34
2z"/>
<path d="M2206 2481 c-53 -102 -75 -355 -46 -528 12 -72 16 -83 34 -83 19 0
19 -1 -2 -20 -20 -19 -24 -27 -21 -46 0 -4 -4 -10 -10 -14 -8 -4 -6 -16 5 -38
11 -23 14 -44 9 -72 -4 -26 -3 -40 4 -40 6 0 11 16 11 36 0 19 6 42 14 50 13
12 15 10 21 -17 5 -21 10 -27 15 -19 4 6 3 30 -2 52 -5 22 -6 43 -3 46 3 3 5
0 5 -7 0 -7 9 -25 21 -39 l21 -27 -8 30 c-4 17 -11 35 -16 42 -6 7 -6 25 1 48
7 26 7 35 -2 33 -7 -1 -24 1 -38 5 -24 6 -28 14 -38 70 -15 89 -12 350 5 412
l13 50 -5 -45 c-3 -24 -2 -42 1 -39 6 6 28 92 38 146 8 43 -8 51 -27 14z m-2
-666 c-4 -8 -8 -15 -10 -15 -2 0 -4 7 -4 15 0 8 4 15 10 15 5 0 7 -7 4 -15z
m16 -40 c0 -8 -4 -15 -9 -15 -13 0 -22 16 -14 24 11 11 23 6 23 -9z"/>
<path d="M2783 2461 c-21 -28 -46 -53 -56 -56 -12 -4 -16 -13 -12 -25 3 -10
-1 -37 -10 -61 -8 -24 -14 -60 -14 -79 0 -29 5 -21 23 42 35 115 92 208 128
208 11 0 16 5 13 10 -13 21 -36 8 -72 -39z"/>
<path d="M4535 2410 l0 -100 68 0 67 0 0 100 0 100 -67 0 -68 0 0 -100z m113
8 l-3 -73 -43 -3 -42 -3 0 75 0 76 46 0 45 0 -3 -72z"/>
<path d="M650 2480 c0 -11 5 -20 10 -20 6 0 10 9 10 20 0 11 -4 20 -10 20 -5
0 -10 -9 -10 -20z"/>
<path d="M1005 2490 c-19 -8 -19 -9 2 -9 12 -1 25 4 28 9 7 12 -2 12 -30 0z"/>
<path d="M2047 2486 c-9 -7 -17 -18 -17 -25 0 -6 -5 -11 -11 -11 -6 0 -9 7 -6
15 6 15 -6 29 -16 18 -10 -10 11 -40 33 -46 14 -4 20 0 20 12 0 9 5 22 12 29
17 17 6 23 -15 8z"/>
<path d="M2687 2493 c-11 -11 -8 -31 6 -36 10 -4 13 2 9 19 -5 26 -6 27 -15
17z"/>
<path d="M855 2480 c-16 -7 -13 -9 17 -9 20 -1 40 4 43 9 7 12 -32 12 -60 0z"/>
<path d="M3331 2454 c-22 -85 -24 -97 -14 -91 11 7 37 116 30 124 -3 3 -10
-12 -16 -33z"/>
<path d="M2827 2474 c-4 -4 -7 -16 -7 -26 0 -11 -4 -16 -10 -13 -5 3 -10 -3
-10 -15 0 -12 -4 -19 -8 -16 -5 3 -9 0 -9 -7 0 -7 -19 -69 -42 -138 -22 -69
-41 -134 -41 -145 1 -10 16 26 35 81 30 89 55 131 55 93 0 -7 9 -19 20 -26 11
-7 20 -8 20 -3 0 6 -4 13 -10 16 -16 10 -12 65 4 65 25 0 39 -28 32 -69 -4
-29 -2 -40 9 -45 39 -15 46 95 12 188 -21 57 -35 74 -50 60z m38 -80 c3 -13 8
-36 11 -51 5 -26 5 -27 -14 -10 -10 9 -28 17 -39 17 -31 0 -37 29 -11 54 27
26 46 23 53 -10z"/>
<path d="M830 2440 c0 -6 17 -10 37 -10 43 0 39 9 -6 15 -17 2 -31 0 -31 -5z"/>
<path d="M1910 2434 c0 -8 5 -12 10 -9 6 3 10 10 10 16 0 5 -4 9 -10 9 -5 0
-10 -7 -10 -16z"/>
<path d="M647 2434 c-8 -8 1 -24 14 -24 5 0 9 7 9 15 0 15 -12 20 -23 9z"/>
<path d="M1934 2429 c-5 -9 -19 -22 -32 -28 -13 -7 -27 -23 -32 -37 -5 -13
-16 -24 -25 -24 -8 0 -16 -7 -16 -15 -1 -8 -2 -20 -3 -25 0 -6 -13 -26 -28
-44 -32 -40 -39 -103 -12 -113 9 -3 20 0 25 8 14 22 10 33 -6 19 -33 -28 -31
28 2 66 27 30 44 64 38 73 -3 5 2 11 10 15 19 7 28 -9 20 -34 -11 -35 14 -21
32 18 9 20 19 40 21 45 2 4 -3 7 -12 7 -9 0 -16 -8 -16 -20 0 -11 -5 -20 -11
-20 -5 0 -7 5 -4 10 3 6 1 10 -4 10 -7 0 -7 7 1 20 7 11 18 20 24 20 17 0 47
37 42 52 -3 9 -7 8 -14 -3z"/>
<path d="M2671 2424 c0 -11 3 -14 6 -6 3 7 2 16 -1 19 -3 4 -6 -2 -5 -13z"/>
<path d="M1957 2394 c-18 -25 -10 -33 11 -12 9 9 12 8 12 -5 0 -9 -4 -17 -10
-17 -5 0 -10 -7 -10 -15 0 -8 5 -15 11 -15 5 0 7 5 4 10 -3 6 0 10 8 10 17 0
21 56 4 63 -7 2 -20 -6 -30 -19z"/>
<path d="M830 2390 c0 -12 20 -12 75 -1 40 9 39 9 -17 10 -33 0 -58 -3 -58 -9z"/>
<path d="M4120 2371 c0 -16 -7 -56 -16 -88 -9 -32 -16 -65 -16 -73 -1 -8 -5
-21 -11 -27 -6 -9 -5 -13 5 -13 9 0 21 33 37 103 29 126 28 119 14 124 -9 3
-13 -6 -13 -26z"/>
<path d="M650 2360 c0 -5 4 -10 9 -10 5 0 8 -6 7 -12 0 -7 2 -14 7 -15 4 -2 7
-1 7 2 0 3 0 14 0 25 0 11 -7 20 -15 20 -8 0 -15 -4 -15 -10z"/>
<path d="M3301 2345 c-1 -18 17 -38 28 -31 16 10 13 29 -3 23 -8 -3 -17 -1
-20 6 -2 7 -5 8 -5 2z"/>
<path d="M4157 2343 c-11 -10 -8 -43 3 -43 6 0 10 11 10 25 0 26 -2 29 -13 18z"/>
<path d="M1935 2320 c-3 -5 -1 -18 4 -27 10 -17 10 -17 11 0 0 9 8 17 18 17
14 0 15 2 2 10 -19 12 -27 12 -35 0z"/>
<path d="M2460 2315 c-7 -40 -5 -84 3 -76 4 4 7 28 4 52 -2 24 -5 35 -7 24z"/>
<path d="M3260 2310 c0 -5 5 -10 11 -10 5 0 7 5 4 10 -3 6 -8 10 -11 10 -2 0
-4 -4 -4 -10z"/>
<path d="M662 2283 c5 -25 28 -28 28 -4 0 12 -6 21 -16 21 -9 0 -14 -7 -12
-17z"/>
<path d="M2545 2203 c-25 -54 -50 -106 -55 -115 -8 -13 -6 -16 5 -12 16 6 16
4 -7 -115 -24 -129 -36 -226 -27 -235 5 -6 9 -1 9 13 0 12 11 76 25 143 14 66
27 145 29 176 5 67 15 112 26 112 4 0 15 19 24 43 l18 42 18 -54 c16 -48 17
-59 4 -100 -16 -55 -18 -397 -2 -479 6 -32 20 -64 34 -80 27 -29 27 -27 -1 33
-26 57 -32 305 -12 478 l15 129 -28 59 -28 60 -47 -98z"/>
<path d="M450 2270 c0 -13 5 -18 15 -14 12 5 13 10 4 20 -15 19 -19 18 -19 -6z"/>
<path d="M1915 2270 c-8 -13 -1 -24 14 -19 6 3 7 10 2 18 -6 10 -10 10 -16 1z"/>
<path d="M3221 2273 c-1 -6 -4 -18 -7 -26 -6 -17 16 -28 45 -20 28 7 27 21 -1
19 -15 -1 -25 6 -30 19 -3 11 -6 15 -7 8z"/>
<path d="M3250 2270 c0 -5 5 -10 10 -10 6 0 10 5 10 10 0 6 -4 10 -10 10 -5 0
-10 -4 -10 -10z"/>
<path d="M2920 2261 c0 -5 5 -13 10 -16 6 -3 10 -2 10 4 0 5 -4 13 -10 16 -5
3 -10 2 -10 -4z"/>
<path d="M1880 2250 c0 -5 5 -10 10 -10 6 0 10 5 10 10 0 6 -4 10 -10 10 -5 0
-10 -4 -10 -10z"/>
<path d="M4674 2246 c-4 -10 -2 -22 4 -28 8 -8 13 -7 18 6 4 10 2 22 -4 28 -8
8 -13 7 -18 -6z"/>
<path d="M1841 2206 c-18 -61 -6 -326 20 -458 14 -72 18 -125 15 -212 -4 -100
-2 -117 12 -126 15 -8 15 -9 -2 -10 -15 0 -17 -3 -9 -11 6 -6 16 -8 22 -5 16
10 14 41 -3 56 -8 6 -13 17 -11 23 13 43 13 198 0 252 -9 33 -20 119 -26 190
-12 165 -12 160 -10 222 1 40 4 51 15 47 21 -8 25 -36 16 -111 -7 -57 -6 -74
10 -108 16 -33 18 -35 12 -10 -15 63 -1 243 19 256 10 6 16 2 21 -12 5 -11 13
-19 20 -17 17 6 22 28 6 28 -7 0 -19 9 -26 21 -13 20 -14 20 -27 2 -8 -10 -15
-26 -15 -35 0 -27 -20 -21 -20 5 0 13 -6 31 -13 41 -11 15 -14 12 -26 -28z"/>
<path d="M463 2222 c-2 -30 17 -92 28 -92 18 0 23 33 6 45 -10 7 -14 20 -11
32 4 12 0 22 -9 26 -8 3 -14 -1 -14 -11z"/>
<path d="M662 2228 c7 -19 38 -22 38 -4 0 10 -9 16 -21 16 -12 0 -19 -5 -17
-12z"/>
<path d="M2310 2229 c0 -5 5 -7 10 -4 6 3 10 8 10 11 0 2 -4 4 -10 4 -5 0 -10
-5 -10 -11z"/>
<path d="M1810 2220 c0 -5 5 -10 10 -10 6 0 10 5 10 10 0 6 -4 10 -10 10 -5 0
-10 -4 -10 -10z"/>
<path d="M2187 2223 c-4 -3 -7 -11 -7 -17 0 -6 5 -5 12 2 6 6 9 14 7 17 -3 3
-9 2 -12 -2z"/>
<path d="M3843 2218 c2 -7 9 -13 15 -12 7 1 57 2 112 3 59 0 100 5 100 11 0 6
-45 10 -116 10 -88 0 -115 -3 -111 -12z"/>
<path d="M4129 2204 c-11 -30 -3 -46 11 -24 10 16 13 50 5 50 -3 0 -10 -12
-16 -26z"/>
<path d="M610 2210 c0 -5 5 -10 10 -10 6 0 10 5 10 10 0 6 -4 10 -10 10 -5 0
-10 -4 -10 -10z"/>
<path d="M3257 2213 c-4 -3 -7 -11 -7 -17 0 -6 5 -5 12 2 6 6 9 14 7 17 -3 3
-9 2 -12 -2z"/>
<path d="M3286 2211 c-4 -6 -2 -26 5 -44 10 -28 9 -47 -4 -105 -17 -74 -70
-192 -87 -192 -5 0 -16 12 -24 28 -13 24 -15 25 -16 6 0 -26 32 -56 52 -49 27
11 60 -27 65 -77 7 -58 -10 -108 -59 -179 -21 -31 -38 -63 -38 -70 0 -8 8 -2
18 12 9 14 31 47 49 73 17 27 36 69 42 95 15 71 -9 151 -45 151 -18 0 -18 0
10 57 40 79 58 145 59 208 1 61 -14 108 -27 86z"/>
<path d="M860 2200 c-9 -6 -10 -10 -3 -10 6 0 15 5 18 10 8 12 4 12 -15 0z"/>
<path d="M2460 2181 c0 -16 5 -33 10 -36 6 -4 10 6 10 24 0 16 -4 33 -10 36
-6 4 -10 -6 -10 -24z"/>
<path d="M2888 2187 c-3 -15 1 -44 8 -65 7 -20 13 -45 14 -54 0 -25 17 -31 23
-8 3 11 1 18 -3 15 -7 -5 -17 31 -32 120 -3 16 -5 14 -10 -8z"/>
<path d="M3205 2173 c-4 -21 -18 -72 -32 -114 -17 -49 -23 -84 -18 -95 8 -20
9 -18 52 136 10 36 21 66 24 68 9 4 -1 42 -11 42 -4 0 -11 -17 -15 -37z"/>
<path d="M985 2178 c24 -80 38 -118 42 -114 3 3 -1 22 -8 43 -16 45 -16 47
-18 73 0 11 -6 20 -12 20 -6 0 -8 -9 -4 -22z"/>
<path d="M2756 2191 c-4 -7 -5 -15 -2 -18 9 -9 19 4 14 18 -4 11 -6 11 -12 0z"/>
<path d="M2857 2193 c-4 -3 -7 -13 -7 -22 1 -13 3 -13 11 2 11 19 8 33 -4 20z"/>
<path d="M605 2180 c-3 -5 3 -10 14 -10 12 0 21 5 21 10 0 6 -6 10 -14 10 -8
0 -18 -4 -21 -10z"/>
<path d="M676 2182 c-8 -13 11 -35 23 -28 16 10 14 36 -3 36 -8 0 -17 -4 -20
-8z"/>
<path d="M825 2180 c3 -5 8 -10 11 -10 2 0 4 5 4 10 0 6 -5 10 -11 10 -5 0 -7
-4 -4 -10z"/>
<path d="M1010 2182 c0 -4 4 -12 10 -18 5 -5 16 -27 25 -49 16 -41 15 -38 -2
48 -5 24 -33 40 -33 19z"/>
<path d="M2285 2169 c-4 -6 -3 -15 3 -21 6 -6 11 -4 15 6 7 18 -9 31 -18 15z"/>
<path d="M2781 2164 c0 -11 3 -14 6 -6 3 7 2 16 -1 19 -3 4 -6 -2 -5 -13z"/>
<path d="M2351 2154 c0 -11 3 -14 6 -6 3 7 2 16 -1 19 -3 4 -6 -2 -5 -13z"/>
<path d="M4650 2129 c0 -20 4 -29 9 -23 15 15 17 47 4 51 -9 3 -13 -6 -13 -28z"/>
<path d="M2815 2119 c-10 -19 -33 -55 -51 -82 -36 -50 -47 -89 -13 -47 11 14
34 49 51 79 l31 53 14 -26 c13 -25 11 -30 -32 -86 -25 -33 -52 -63 -60 -68
-12 -6 -7 -22 26 -86 23 -42 43 -75 46 -73 2 3 -12 37 -32 76 l-35 71 29 33
c17 17 41 45 54 62 l25 29 21 -46 c26 -57 26 -66 2 -92 -10 -12 -26 -34 -36
-51 -17 -29 -16 -28 14 5 68 75 67 66 12 180 l-49 103 -17 -34z"/>
<path d="M1920 2134 c0 -4 7 -15 15 -24 11 -12 12 -24 6 -51 -23 -85 -23 -156
-1 -261 12 -56 26 -116 31 -133 15 -52 3 60 -16 145 -16 73 -16 163 1 272 5
30 2 38 -15 47 -12 7 -21 9 -21 5z"/>
<path d="M2734 2115 c-3 -14 -10 -25 -15 -25 -12 0 -11 -41 1 -60 8 -12 10
-11 10 6 0 11 4 24 8 30 5 5 13 21 20 36 9 21 8 27 -3 32 -10 3 -17 -3 -21
-19z"/>
<path d="M4015 2043 c-39 -99 -156 -306 -207 -366 -16 -17 -47 -55 -70 -84
-24 -29 -49 -52 -55 -53 -16 0 -16 -10 -2 -30 9 -12 11 -13 16 -1 3 7 31 43
62 80 124 146 212 285 271 432 41 103 46 119 32 119 -5 0 -26 -44 -47 -97z"/>
<path d="M697 2123 c-12 -11 -8 -23 8 -23 8 0 15 7 15 15 0 16 -12 20 -23 8z"/>
<path d="M2202 2075 c0 -33 2 -54 5 -47 2 6 10 9 16 5 9 -5 9 -3 0 8 -6 8 -13
32 -16 54 -3 29 -4 24 -5 -20z"/>
<path d="M2267 2123 c-5 -7 -5 -13 0 -13 4 0 0 -5 -9 -11 -26 -14 -22 -39 5
-38 12 0 16 3 9 6 -10 4 -10 8 -2 18 7 8 10 22 8 32 -2 13 -6 15 -11 6z"/>
<path d="M2290 2124 c0 -10 42 -67 82 -111 21 -24 38 -37 38 -30 0 7 -14 26
-31 43 -17 16 -40 46 -52 67 -18 32 -37 48 -37 31z"/>
<path d="M4104 2093 c-32 -79 -114 -243 -154 -309 -41 -67 -155 -214 -219
-283 -18 -18 -30 -36 -27 -39 8 -7 111 100 140 146 13 21 38 54 55 73 35 37
91 129 141 229 52 104 99 220 89 220 -6 0 -17 -17 -25 -37z"/>
<path d="M640 2110 c0 -5 7 -10 15 -10 8 0 15 5 15 10 0 6 -7 10 -15 10 -8 0
-15 -4 -15 -10z"/>
<path d="M496 2073 c4 -21 13 -55 20 -77 8 -21 14 -47 14 -57 0 -11 4 -19 9
-19 19 0 21 18 6 46 -8 16 -15 43 -15 61 0 17 -4 35 -10 38 -5 3 -10 15 -10
26 0 10 -5 19 -10 19 -7 0 -8 -14 -4 -37z"/>
<path d="M955 2080 c-3 -5 -2 -10 4 -10 5 0 13 5 16 10 3 6 2 10 -4 10 -5 0
-13 -4 -16 -10z"/>
<path d="M3074 2078 c-4 -6 -2 -14 4 -16 22 -7 13 -32 -12 -32 -14 0 -28 -4
-31 -10 -3 -6 4 -10 17 -10 13 0 28 -4 35 -8 12 -8 40 -99 45 -147 2 -22 10
-32 29 -39 31 -10 63 -1 53 15 -5 8 -9 8 -14 -1 -15 -24 -48 7 -55 52 -7 43
-26 116 -41 152 -5 14 -4 17 4 12 15 -9 15 -1 2 25 -12 22 -25 24 -36 7z"/>
<path d="M4624 2066 c-8 -22 3 -33 18 -18 9 9 9 15 0 24 -9 9 -13 7 -18 -6z"/>
<path d="M650 2060 c0 -5 7 -10 15 -10 8 0 15 5 15 10 0 6 -7 10 -15 10 -8 0
-15 -4 -15 -10z"/>
<path d="M710 2060 c0 -5 7 -10 15 -10 8 0 15 5 15 10 0 6 -7 10 -15 10 -8 0
-15 -4 -15 -10z"/>
<path d="M1060 2052 c0 -5 7 -17 16 -28 14 -17 15 -17 10 -1 -3 10 -6 23 -6
28 0 5 -4 9 -10 9 -5 0 -10 -4 -10 -8z"/>
<path d="M1030 2030 c6 -11 15 -18 21 -14 6 4 6 11 -2 20 -17 21 -31 17 -19
-6z"/>
<path d="M2078 2033 c-83 -24 -106 -84 -82 -213 17 -88 15 -163 -6 -215 l-12
-30 -13 35 c-8 19 -14 31 -14 26 -1 -5 -8 -3 -16 4 -26 21 -18 -8 10 -38 29
-31 28 -44 -6 -53 -13 -4 -19 -8 -14 -10 17 -4 64 -5 60 -1 -2 2 4 23 14 45
29 68 33 113 21 226 -16 140 -5 171 71 205 62 27 54 39 -13 19z"/>
<path d="M2466 2035 c-9 -26 -7 -32 5 -12 6 10 9 21 6 23 -2 3 -7 -2 -11 -11z"/>
<path d="M727 2024 c-8 -8 1 -24 14 -24 5 0 9 7 9 15 0 15 -12 20 -23 9z"/>
<path d="M2240 2026 c0 -2 7 -9 15 -16 12 -10 15 -10 15 4 0 9 -7 16 -15 16
-8 0 -15 -2 -15 -4z"/>
<path d="M2576 2008 c-3 -13 -6 -31 -6 -41 0 -10 -9 -30 -20 -45 -23 -31 -42
-105 -59 -232 -13 -93 -28 -150 -40 -150 -12 0 -61 -51 -61 -62 0 -6 7 -8 15
-4 8 3 89 6 179 7 138 0 164 3 159 15 -3 8 -9 14 -14 14 -5 0 -9 5 -9 12 0 6
-6 19 -14 27 -8 9 -16 28 -18 43 -2 15 -7 30 -11 34 -13 13 -7 -43 7 -71 27
-51 18 -57 -80 -62 -49 -2 -108 -2 -131 2 l-42 6 29 27 c26 24 31 39 45 127
22 143 36 205 56 245 10 19 21 56 24 83 8 49 2 64 -9 25z"/>
<path d="M670 1995 c0 -9 6 -12 15 -9 8 4 15 10 15 15 0 5 -7 9 -15 9 -8 0
-15 -7 -15 -15z"/>
<path d="M2200 1948 c0 -38 4 -58 9 -52 17 17 18 114 1 114 -6 0 -10 -27 -10
-62z"/>
<path d="M885 1989 c-10 -14 -1 -21 19 -13 9 3 13 10 10 15 -7 12 -21 11 -29
-2z"/>
<path d="M2436 1947 c-17 -59 -22 -110 -7 -72 13 32 32 117 27 122 -2 3 -11
-20 -20 -50z"/>
<path d="M4600 1979 c0 -11 5 -17 10 -14 6 3 10 13 10 21 0 8 -4 14 -10 14 -5
0 -10 -9 -10 -21z"/>
<path d="M3085 1950 c10 -104 17 -144 36 -197 32 -93 27 -118 -32 -177 -34
-34 -57 -66 -65 -95 -16 -51 -17 -61 -6 -61 13 0 102 89 102 102 0 6 -14 -3
-31 -20 -17 -18 -35 -32 -40 -32 -15 0 4 34 43 75 l38 39 0 -33 c0 -21 4 -31
12 -29 8 3 11 24 9 60 -1 31 3 66 9 78 19 35 16 108 -5 128 -17 16 -17 16 -10
-3 5 -11 10 -38 12 -60 6 -70 -45 87 -53 164 -4 36 -11 75 -15 86 -6 13 -7 5
-4 -25z"/>
<path d="M735 1970 c-3 -5 -4 -10 -1 -10 2 0 11 -3 20 -6 11 -4 16 -1 16 10 0
18 -25 22 -35 6z"/>
<path d="M2354 1944 c7 -25 -12 -84 -25 -84 -4 0 -6 -11 -5 -24 1 -30 -1 -32
35 40 17 32 26 61 21 62 -6 2 -10 10 -10 18 0 8 -5 14 -11 14 -7 0 -9 -10 -5
-26z"/>
<path d="M698 1953 c7 -3 16 -2 19 1 4 3 -2 6 -13 5 -11 0 -14 -3 -6 -6z"/>
<path d="M1100 1953 c0 -7 -7 -13 -15 -13 -8 0 -15 -5 -15 -11 0 -7 9 -9 23
-5 20 5 29 -6 77 -91 29 -53 81 -132 114 -176 34 -44 65 -88 71 -98 5 -11 13
-19 17 -19 16 0 7 27 -14 46 -38 34 -137 173 -178 252 -44 83 -79 135 -80 115z"/>
<path d="M761 1926 c-9 -10 -9 -16 -1 -21 17 -10 37 12 24 25 -8 8 -15 6 -23
-4z"/>
<path d="M4577 1925 c-7 -16 8 -29 23 -20 10 6 2 35 -10 35 -4 0 -10 -7 -13
-15z"/>
<path d="M710 1894 c0 -17 22 -14 28 4 2 7 -3 12 -12 12 -9 0 -16 -7 -16 -16z"/>
<path d="M1096 1887 c3 -10 9 -15 12 -12 3 3 0 11 -7 18 -10 9 -11 8 -5 -6z"/>
<path d="M565 1858 c10 -46 32 -98 42 -98 4 0 14 4 21 9 11 6 10 9 -5 13 -12
3 -23 22 -33 56 -15 56 -36 72 -25 20z"/>
<path d="M780 1869 c0 -25 18 -45 30 -33 7 7 5 16 -10 29 -15 14 -20 15 -20 4z"/>
<path d="M4545 1839 c-10 -42 0 -46 19 -8 19 39 19 39 2 39 -8 0 -17 -14 -21
-31z"/>
<path d="M730 1825 c0 -17 9 -19 28 -6 11 7 10 10 -3 15 -23 9 -25 8 -25 -9z"/>
<path d="M1120 1820 c0 -5 9 -10 20 -10 11 0 20 5 20 10 0 6 -9 10 -20 10 -11
0 -20 -4 -20 -10z"/>
<path d="M810 1806 c0 -16 18 -31 27 -22 3 3 -2 12 -11 21 -14 14 -16 14 -16
1z"/>
<path d="M2950 1790 c0 -5 5 -10 11 -10 6 0 9 -6 6 -14 -3 -8 1 -22 10 -33 14
-17 14 -17 9 0 -3 10 -6 30 -6 43 0 15 -6 24 -15 24 -8 0 -15 -4 -15 -10z"/>
<path d="M2375 1758 c-5 -13 -3 -24 4 -26 6 -2 11 -12 11 -23 0 -24 17 -25 24
-1 3 9 3 0 0 -21 -3 -24 -1 -37 4 -33 15 9 24 -41 12 -64 -17 -32 -11 -47 10
-21 22 26 26 51 9 68 -6 6 -13 28 -16 49 -9 75 -44 117 -58 72z"/>
<path d="M1005 1755 c-16 -6 -46 -19 -66 -28 -19 -9 -54 -22 -77 -29 -43 -13
-60 -34 -19 -23 21 6 187 75 196 82 12 9 -8 8 -34 -2z"/>
<path d="M2715 1740 c-17 -33 -20 -60 -5 -60 6 0 10 6 10 14 0 8 7 16 15 20
16 6 21 56 5 56 -5 0 -16 -13 -25 -30z"/>
<path d="M4500 1740 c0 -24 15 -27 24 -4 9 22 8 24 -9 24 -8 0 -15 -9 -15 -20z"/>
<path d="M608 1744 c-8 -8 40 -104 53 -104 14 0 11 13 -8 40 -10 13 -17 33
-18 44 0 19 -16 31 -27 20z"/>
<path d="M790 1740 c0 -5 4 -10 9 -10 6 0 13 5 16 10 3 6 -1 10 -9 10 -9 0
-16 -4 -16 -10z"/>
<path d="M846 1725 c4 -8 10 -15 15 -15 5 0 9 7 9 15 0 8 -7 15 -15 15 -9 0
-12 -6 -9 -15z"/>
<path d="M998 1710 c-21 -11 -53 -31 -72 -44 -34 -23 -34 -23 -14 -40 11 -10
23 -15 26 -11 4 3 0 10 -7 14 -20 12 -8 25 54 60 30 17 55 33 55 36 0 7 0 7
-42 -15z"/>
<path d="M1200 1720 c0 -5 5 -10 11 -10 5 0 7 5 4 10 -3 6 -8 10 -11 10 -2 0
-4 -4 -4 -10z"/>
<path d="M2149 1718 c-5 -47 -3 -115 4 -111 4 2 7 -3 7 -11 0 -9 5 -16 11 -16
7 0 8 6 3 18 -5 9 -9 43 -9 75 0 31 -3 57 -7 57 -5 0 -9 -6 -9 -12z"/>
<path d="M2961 1705 c-2 -26 21 -85 31 -79 5 4 14 0 19 -7 7 -11 9 -9 9 6 0
11 -5 27 -10 35 -7 11 -10 11 -10 2 0 -7 -4 -10 -10 -7 -6 4 -5 13 2 25 7 11
9 23 5 27 -5 4 -12 1 -16 -6 -7 -11 -10 -11 -14 0 -3 8 -6 10 -6 4z"/>
<path d="M2307 1643 c-52 -104 -119 -264 -114 -270 4 -3 23 30 42 73 20 44 53
114 72 157 40 84 39 119 0 40z"/>
<path d="M3723 1647 c-29 -32 -58 -77 -50 -77 8 0 89 101 85 106 -3 2 -18 -11
-35 -29z"/>
<path d="M2117 1638 c-6 -41 5 -62 14 -28 10 37 10 60 0 60 -5 0 -11 -15 -14
-32z"/>
<path d="M2680 1658 c0 -7 11 -18 25 -25 29 -13 33 -3 7 20 -22 20 -32 21 -32
5z"/>
<path d="M4466 1663 c-9 -9 -7 -33 3 -33 12 0 22 28 12 34 -5 3 -11 3 -15 -1z"/>
<path d="M2360 1641 c10 -19 9 -25 -1 -32 -7 -4 -11 -10 -8 -13 3 -3 14 1 25
9 19 14 18 14 -5 37 l-23 23 12 -24z"/>
<path d="M2750 1648 c0 -9 5 -20 10 -23 13 -8 13 5 0 25 -8 13 -10 13 -10 -2z"/>
<path d="M3920 1646 c0 -10 -6 -13 -15 -10 -22 9 -18 -2 9 -29 23 -23 36 -25
36 -5 0 5 -5 6 -10 3 -7 -4 -9 2 -5 18 4 14 2 28 -4 31 -6 4 -11 0 -11 -8z"/>
<path d="M856 1632 c-3 -6 -1 -14 5 -17 15 -10 25 3 12 16 -7 7 -13 7 -17 1z"/>
<path d="M684 1616 c-7 -19 22 -85 41 -92 27 -11 31 7 8 26 -13 10 -23 23 -23
29 0 6 -6 11 -12 11 -8 1 -6 6 5 14 21 16 22 26 2 26 -9 0 -18 -6 -21 -14z"/>
<path d="M3160 1608 c0 -15 5 -30 10 -33 13 -8 13 25 0 45 -8 12 -10 9 -10
-12z"/>
<path d="M2735 1600 c-4 -7 -1 -16 6 -21 23 -14 32 -10 18 9 -7 9 -14 18 -15
20 -1 2 -5 -2 -9 -8z"/>
<path d="M890 1590 c-8 -5 -12 -11 -9 -14 3 -3 14 1 25 9 21 16 8 20 -16 5z"/>
<path d="M1312 1580 c7 -11 17 -20 22 -20 5 0 1 9 -9 20 -10 11 -20 20 -22 20
-2 0 2 -9 9 -20z"/>
<path d="M2994 1587 c3 -10 6 -39 6 -64 0 -26 3 -44 6 -40 11 11 6 99 -7 111
-9 8 -10 7 -5 -7z"/>
<path d="M950 1574 c0 -14 3 -14 15 -4 8 7 15 14 15 16 0 2 -7 4 -15 4 -8 0
-15 -7 -15 -16z"/>
<path d="M2200 1567 c0 -15 -3 -27 -7 -27 -5 0 -16 -20 -26 -43 -13 -32 -18
-74 -19 -153 -1 -60 -5 -120 -10 -134 -5 -16 -6 -6 -2 30 6 66 -2 61 -22 -11
-12 -49 -12 -55 3 -66 9 -7 31 -13 49 -13 18 0 35 -6 37 -12 3 -7 6 -3 6 8 1
12 3 37 6 55 4 33 4 33 -9 -6 -10 -27 -15 -33 -15 -18 -1 12 3 33 8 46 10 26
4 67 -9 67 -4 0 -10 -27 -13 -61 -5 -57 -11 -78 -21 -68 -8 8 16 174 26 180 5
4 3 9 -5 12 -23 9 -11 109 20 171 16 34 21 52 13 60 -7 7 -10 2 -10 -17z"/>
<path d="M2100 1561 c-12 -24 -13 -34 -1 -27 9 6 22 46 15 46 -2 0 -8 -9 -14
-19z"/>
<path d="M2327 1573 c-4 -3 -7 -13 -7 -22 1 -13 3 -13 11 2 11 19 8 33 -4 20z"/>
<path d="M920 1560 c-13 -8 -12 -10 3 -10 9 0 17 5 17 10 0 12 -1 12 -20 0z"/>
<path d="M3978 1563 c6 -2 12 -11 12 -19 0 -8 7 -14 15 -14 8 0 15 3 15 6 0
10 -33 33 -45 33 -5 0 -4 -3 3 -6z"/>
<path d="M4410 1554 c0 -9 5 -14 12 -12 18 6 21 28 4 28 -9 0 -16 -7 -16 -16z"/>
<path d="M2790 1553 c0 -6 4 -14 9 -17 12 -8 56 -137 85 -253 33 -129 44 -155
61 -140 9 9 9 24 -1 70 -16 76 -28 87 -20 17 5 -50 3 -46 -18 33 -37 136 -78
253 -98 279 -9 12 -18 18 -18 11z"/>
<path d="M3525 1550 c-10 -16 4 -30 29 -30 22 0 46 17 46 32 0 12 -68 10 -75
-2z"/>
<path d="M976 1543 c-11 -11 -6 -23 9 -23 8 0 15 4 15 9 0 13 -16 22 -24 14z"/>
<path d="M1400 1535 c-16 -19 0 -19 26 0 16 12 16 14 3 15 -9 0 -22 -7 -29
-15z"/>
<path d="M1312 1507 c-24 -25 -28 -37 -12 -37 6 0 10 5 10 11 0 7 8 18 17 25
10 7 15 15 12 18 -3 3 -15 -4 -27 -17z"/>
<path d="M2298 1508 c-7 -13 -24 -57 -38 -98 -15 -43 -31 -74 -38 -72 -7 1
-12 -5 -12 -13 0 -8 4 -15 8 -15 4 0 7 -17 5 -37 -2 -29 1 -23 16 27 10 36 32
102 48 148 31 83 34 100 11 60z"/>
<path d="M925 1510 c3 -5 13 -10 21 -10 8 0 14 5 14 10 0 6 -9 10 -21 10 -11
0 -17 -4 -14 -10z"/>
<path d="M4020 1510 c0 -5 5 -10 10 -10 6 0 10 5 10 10 0 6 -4 10 -10 10 -5 0
-10 -4 -10 -10z"/>
<path d="M2337 1438 c-43 -90 -52 -134 -31 -142 13 -5 14 0 9 24 -5 23 2 48
30 106 20 42 35 78 32 80 -3 3 -20 -28 -40 -68z"/>
<path d="M3490 1499 c0 -5 11 -9 25 -9 14 0 25 2 25 4 0 2 -11 6 -25 8 -14 3
-25 1 -25 -3z"/>
<path d="M740 1495 c0 -11 48 -81 64 -94 24 -20 29 -8 8 20 -9 13 -24 36 -31
52 -12 23 -41 39 -41 22z"/>
<path d="M1000 1490 c0 -5 7 -10 15 -10 8 0 15 5 15 10 0 6 -7 10 -15 10 -8 0
-15 -4 -15 -10z"/>
<path d="M2760 1489 c0 -8 7 -34 16 -59 9 -26 15 -75 15 -115 -1 -73 17 -175
30 -175 4 0 14 -3 23 -6 12 -5 14 1 9 30 -3 21 -1 42 6 49 6 8 8 17 4 20 -9 9
-32 -24 -33 -48 0 -12 -3 -16 -10 -9 -16 16 -15 114 1 126 11 7 11 11 2 15 -7
2 -13 15 -13 27 0 21 -37 146 -46 155 -2 2 -4 -2 -4 -10z"/>
<path d="M1452 1474 c-17 -19 -15 -22 13 -16 15 2 25 0 25 -7 0 -6 -5 -11 -12
-11 -9 0 -9 -3 0 -12 8 -8 15 -8 27 2 21 17 19 23 -13 41 -23 13 -30 13 -40 3z"/>
<path d="M968 1473 c-10 -2 -18 -9 -18 -14 0 -14 16 -11 30 6 7 8 11 14 9 14
-2 -1 -12 -3 -21 -6z"/>
<path d="M1030 1460 c0 -5 5 -10 10 -10 6 0 10 5 10 10 0 6 -4 10 -10 10 -5 0
-10 -4 -10 -10z"/>
<path d="M1215 1433 c-14 -15 -25 -32 -25 -36 0 -5 14 5 30 23 17 18 30 34 30
36 0 10 -11 2 -35 -23z"/>
<path d="M1275 1452 c-5 -4 -17 -16 -25 -26 -14 -18 -14 -19 7 -5 13 7 25 19
27 26 6 15 5 16 -9 5z"/>
<path d="M4075 1450 c3 -5 10 -10 16 -10 5 0 9 5 9 10 0 6 -7 10 -16 10 -8 0
-12 -4 -9 -10z"/>
<path d="M1053 1423 c-21 -8 -15 -22 7 -16 11 3 20 9 20 14 0 10 -8 10 -27 2z"/>
<path d="M4100 1426 c0 -2 7 -9 15 -16 12 -10 15 -10 15 4 0 9 -7 16 -15 16
-8 0 -15 -2 -15 -4z"/>
<path d="M1090 1394 c0 -6 7 -17 15 -24 21 -18 19 -35 -7 -48 -18 -8 -19 -11
-5 -11 19 -1 62 37 53 47 -3 3 -6 2 -6 -2 0 -4 -11 6 -25 21 -13 15 -25 23
-25 17z"/>
<path d="M2127 1387 c-11 -29 -9 -53 4 -40 6 6 9 21 7 34 -3 21 -4 22 -11 6z"/>
<path d="M1167 1383 c-4 -3 -7 -11 -7 -17 0 -6 5 -5 12 2 6 6 9 14 7 17 -3 3
-9 2 -12 -2z"/>
<path d="M1060 1370 c0 -5 5 -10 10 -10 6 0 10 5 10 10 0 6 -4 10 -10 10 -5 0
-10 -4 -10 -10z"/>
<path d="M3846 1361 c-4 -5 -2 -12 3 -15 5 -4 12 -2 15 3 4 5 2 12 -3 15 -5 4
-12 2 -15 -3z"/>
<path d="M1154 1328 l-29 -33 33 29 c17 17 32 31 32 33 0 8 -8 1 -36 -29z"/>
<path d="M1330 1355 c0 -2 10 -10 23 -16 20 -11 21 -11 8 4 -13 16 -31 23 -31
12z"/>
<path d="M3230 1335 c-17 -10 -20 -14 -9 -15 9 0 22 7 29 15 15 18 12 18 -20
0z"/>
<path d="M4180 1345 c0 -3 5 -15 10 -26 11 -20 40 -27 40 -9 0 6 -4 10 -9 10
-5 0 -17 7 -25 16 -9 8 -16 13 -16 9z"/>
<path d="M2323 1302 c-1 -21 -5 -64 -9 -97 -6 -50 -8 -56 -16 -36 -4 13 -10
22 -12 20 -9 -11 -14 -79 -5 -79 5 0 9 6 9 14 0 8 6 16 14 19 8 3 16 23 19 44
17 113 19 141 11 146 -5 3 -10 -11 -11 -31z"/>
<path d="M1395 1310 c3 -5 8 -10 11 -10 2 0 4 5 4 10 0 6 -5 10 -11 10 -5 0
-7 -4 -4 -10z"/>
<path d="M846 1283 c-3 -3 -3 -10 0 -14 7 -12 34 -11 34 0 0 11 -26 22 -34 14z"/>
<path d="M1578 1283 c7 -3 16 -2 19 1 4 3 -2 6 -13 5 -11 0 -14 -3 -6 -6z"/>
<path d="M1195 1270 c3 -5 8 -10 11 -10 2 0 4 5 4 10 0 6 -5 10 -11 10 -5 0
-7 -4 -4 -10z"/>
<path d="M1244 1236 c1 -18 4 -22 14 -14 9 8 9 14 1 24 -16 19 -17 18 -15 -10z"/>
<path d="M2252 1235 c0 -16 2 -22 5 -12 2 9 2 23 0 30 -3 6 -5 -1 -5 -18z"/>
<path d="M3942 1238 c5 -15 48 -24 48 -10 0 10 -23 22 -42 22 -5 0 -8 -6 -6
-12z"/>
<path d="M4125 1230 c-8 -12 20 -24 35 -15 6 3 8 11 5 16 -8 12 -32 12 -40 -1z"/>
<path d="M947 1223 c-13 -13 -7 -21 13 -16 11 3 17 9 14 14 -6 11 -18 12 -27
2z"/>
<path d="M1285 1209 c-9 -14 -2 -20 14 -10 8 6 9 11 3 15 -6 3 -14 1 -17 -5z"/>
<path d="M1702 1197 c-8 -10 2 -12 51 -13 34 0 51 1 37 4 -14 2 -29 8 -34 13
-14 13 -42 11 -54 -4z"/>
<path d="M1018 1173 c17 -7 -4 -33 -26 -33 -11 0 -13 -3 -5 -11 7 -7 20 -5 43
9 31 19 31 21 12 31 -11 6 -24 11 -29 10 -4 0 -2 -3 5 -6z"/>
<path d="M2242 1150 c0 -14 2 -19 5 -12 2 6 2 18 0 25 -3 6 -5 1 -5 -13z"/>
<path d="M2060 1097 c-14 -28 -26 -55 -28 -59 -2 -5 9 -8 25 -7 24 0 25 2 8 9
-17 6 -14 9 17 15 37 7 58 2 58 -16 0 -13 -28 -11 -32 3 -3 9 -6 9 -12 0 -5
-8 2 -16 19 -22 23 -9 25 -13 15 -25 -14 -16 -60 -21 -60 -6 0 5 12 12 28 14
21 4 19 5 -8 4 -19 -1 -40 2 -45 5 -6 3 -171 7 -368 9 l-357 4 -31 -33 c-39
-42 -32 -52 12 -15 l33 28 325 -3 c179 -2 328 -6 330 -7 1 -2 -1 -16 -6 -32
l-10 -28 -401 1 c-221 1 -402 -3 -402 -7 0 -5 7 -6 15 -3 8 3 19 3 24 -1 6 -3
157 -6 337 -5 324 1 428 -5 418 -21 -7 -12 -29 -11 571 -14 571 -3 615 -1 615
23 0 13 25 14 213 8 326 -10 479 -9 486 1 3 6 23 16 44 23 21 6 37 14 34 16
-7 7 -97 -9 -97 -17 0 -11 -124 -11 -449 -2 l-242 6 3 25 3 25 320 2 c176 2
327 5 335 8 8 3 24 8 35 11 11 2 -148 3 -353 1 -206 -2 -377 -6 -380 -10 -4
-3 0 -10 7 -14 7 -5 14 -26 15 -47 l1 -39 -390 4 c-214 2 -393 6 -398 8 -40
23 125 29 368 14 66 -4 122 -6 124 -4 3 2 -3 9 -13 16 -10 7 -18 28 -19 50
l-2 38 -220 -2 -220 -2 -8 49 c-5 27 -13 54 -19 59 -8 7 -9 3 -4 -15 27 -104
15 -192 -27 -205 -12 -3 -88 -9 -169 -12 l-147 -6 10 34 c6 19 13 42 16 52 3
10 8 16 12 15 3 -2 22 -12 42 -22 58 -29 84 -17 96 44 6 27 8 52 5 55 -3 3
-25 5 -50 5 -36 0 -43 3 -38 16 3 9 6 18 6 20 0 2 7 4 16 4 9 0 14 5 12 12 -9
26 -24 15 -48 -35z m357 -83 c-3 -3 -12 -4 -19 -1 -8 3 -5 6 6 6 11 1 17 -2
13 -5z m126 -1 c-13 -2 -33 -2 -45 0 -13 2 -3 4 22 4 25 0 35 -2 23 -4z m234
-39 c7 -10 13 -22 13 -27 0 -4 -42 -6 -92 -3 -51 3 -150 9 -220 12 -121 6
-153 15 -109 32 11 4 104 6 208 5 165 -2 189 -4 200 -19z"/>
<path d="M1099 1110 c13 -11 28 -20 35 -20 6 1 0 10 -13 20 -13 11 -28 20 -35
20 -6 -1 0 -10 13 -20z"/>
<path d="M2220 1123 c1 -16 28 -44 34 -34 3 5 -1 17 -10 25 -17 18 -24 20 -24
9z"/>
<path d="M2801 1105 c-1 -11 -4 -31 -7 -45 -5 -22 -4 -23 6 -7 6 10 9 30 7 45
-3 18 -5 20 -6 7z"/>
<path d="M2872 1098 c-7 -7 -12 -20 -12 -30 0 -21 49 -132 56 -125 2 2 -7 28
-21 58 -29 63 -30 72 -9 93 8 9 12 16 7 16 -5 0 -14 -5 -21 -12z"/>
<path d="M885 1089 c-10 -15 3 -25 16 -12 7 7 7 13 1 17 -6 3 -14 1 -17 -5z"/>
<path d="M2267 1084 c-3 -5 -10 -28 -17 -52 -6 -24 -14 -50 -17 -58 -3 -8 -1
-14 5 -14 5 0 15 21 22 48 8 26 17 49 21 52 4 3 4 12 0 19 -5 7 -11 9 -14 5z"/>
<path d="M3040 1083 c-65 -10 -67 -11 -68 -50 -2 -56 7 -65 64 -61 44 3 49 6
51 28 1 14 0 19 -3 13 -11 -25 -94 -11 -94 16 0 10 3 12 8 5 4 -6 26 -9 50 -6
33 3 42 8 38 19 -3 8 -6 21 -6 29 0 8 -3 13 -7 13 -5 -1 -19 -3 -33 -6z m27
-36 c9 -10 -38 -7 -62 3 -15 7 -11 8 17 6 21 -1 41 -6 45 -9z"/>
<path d="M1000 1044 c0 -11 5 -14 16 -10 9 3 23 6 32 7 14 0 13 2 -3 9 -31 13
-45 11 -45 -6z"/>
<path d="M2201 1037 c-1 -11 -8 -34 -17 -53 -9 -19 -14 -37 -11 -40 11 -11 44
72 36 92 -7 18 -8 18 -8 1z"/>
<path d="M2900 1038 c0 -9 5 -20 10 -23 13 -8 13 5 0 25 -8 13 -10 13 -10 -2z"/>
<path d="M1113 973 c9 -9 19 -14 23 -11 10 10 -6 28 -24 28 -15 0 -15 -1 1
-17z"/>
<path d="M3688 953 c6 -2 18 -2 25 0 6 3 1 5 -13 5 -14 0 -19 -2 -12 -5z"/>
<path d="M1475 739 c11 -6 35 -30 54 -55 l34 -45 336 2 c185 1 353 4 374 7 35
4 37 6 37 43 0 21 5 41 11 45 8 4 10 -8 8 -40 -3 -30 0 -46 7 -46 7 0 12 19
12 50 l0 50 -44 0 c-39 0 -44 -3 -44 -22 0 -34 -11 -68 -21 -68 -12 0 -11 47
1 71 8 15 7 19 -4 19 -9 0 -17 -17 -23 -47 -8 -49 -25 -61 -31 -23 -2 11 -8
20 -13 20 -5 0 -9 7 -9 15 0 9 7 15 16 13 10 -2 19 2 21 9 3 8 -91 11 -369 11
-252 0 -367 -3 -353 -9z m665 -29 c0 -8 -3 -24 -6 -35 -5 -19 -12 -20 -284
-17 l-279 3 -21 28 c-11 16 -20 32 -20 35 0 3 137 5 305 4 263 -3 305 -5 305
-18z m152 -11 c-6 -42 -22 -46 -22 -5 0 26 4 36 13 33 6 -2 10 -15 9 -28z
m-126 -36 c-10 -10 -19 5 -10 18 6 11 8 11 12 0 2 -7 1 -15 -2 -18z"/>
<path d="M2365 703 c0 -27 4 -51 9 -54 4 -4 34 -5 65 -3 31 1 116 3 189 4 93
1 134 5 137 13 2 7 6 29 9 50 l5 37 -55 0 c-50 0 -54 -2 -54 -24 0 -32 -10
-56 -22 -56 -7 0 -8 15 -4 40 6 38 5 40 -19 40 -19 0 -25 -5 -25 -22 0 -13 -7
-32 -15 -43 -15 -19 -15 -19 -31 4 -13 19 -23 22 -49 18 -27 -4 -32 -2 -28 11
3 14 13 16 49 14 27 -3 44 0 44 7 0 7 -35 11 -102 11 l-103 0 0 -47z m95 -6
c0 -37 -1 -38 -32 -35 -26 2 -34 8 -36 26 -6 38 5 51 38 49 28 -2 30 -5 30
-40z m240 3 c0 -22 -4 -40 -10 -40 -11 0 -14 63 -3 73 11 12 13 8 13 -33z
m-70 0 c0 -20 -5 -30 -15 -30 -8 0 -12 6 -10 15 3 8 7 22 10 30 7 25 15 17 15
-15z m112 0 c-5 -32 -19 -40 -28 -15 -8 20 2 45 19 45 9 0 12 -9 9 -30z m-202
-14 c0 -8 -13 -16 -30 -18 -35 -5 -40 9 -7 22 31 12 37 12 37 -4z"/>
<path d="M2425 700 c-3 -5 -1 -10 4 -10 6 0 11 5 11 10 0 6 -2 10 -4 10 -3 0
-8 -4 -11 -10z"/>
<path d="M2818 715 c2 -19 -1 -41 -7 -49 -14 -17 -4 -26 28 -26 24 1 24 2 9
14 -17 13 -25 36 -12 36 3 0 19 -11 36 -25 l30 -25 288 0 c159 0 295 -3 303
-6 10 -4 29 13 56 50 23 30 41 57 41 60 0 3 -152 5 -339 5 l-339 1 -5 -32 c-6
-40 8 -60 17 -25 3 14 13 28 22 31 10 4 149 3 311 0 l293 -7 -23 -30 -23 -29
-298 -2 -299 -1 -33 31 c-41 37 -43 48 -8 40 19 -5 25 -3 22 6 -3 7 -20 14
-39 16 -35 3 -35 3 -31 -33z"/>
<path d="M2365 435 c-3 -27 -8 -62 -11 -77 -5 -27 -4 -28 35 -28 23 0 44 0 47
0 3 0 7 28 10 62 2 35 8 64 14 66 25 9 6 20 -39 24 l-50 3 -6 -50z m59 7 c-1
-7 -2 -30 -2 -52 -2 -33 -6 -40 -22 -40 -17 0 -19 7 -18 48 0 26 2 50 4 54 7
11 39 2 38 -10z"/>
<path d="M2524 481 c-2 -2 -4 -26 -4 -52 0 -50 8 -61 44 -63 14 -1 20 -7 18
-19 -2 -13 4 -17 26 -17 15 0 34 6 41 13 10 10 12 6 9 -18 -2 -22 -8 -29 -20
-27 -10 2 -18 -3 -18 -12 0 -17 48 -17 54 1 3 7 6 49 7 93 l2 80 28 0 c19 0
29 5 29 15 0 11 -11 15 -40 15 l-40 0 0 -63 0 -64 -31 -1 -31 -1 4 61 3 61
-38 1 c-21 0 -41 -1 -43 -3z m56 -60 c0 -34 -3 -38 -20 -34 -15 4 -20 14 -20
39 0 27 4 34 20 34 17 0 20 -7 20 -39z"/>
<path d="M2700 345 c0 -43 4 -75 10 -75 6 0 10 24 10 53 0 28 3 62 6 75 5 16
2 22 -10 22 -13 0 -16 -13 -16 -75z"/>
<path d="M2471 348 c-1 -59 1 -68 17 -68 14 0 17 9 17 50 0 32 -4 50 -12 50
-6 0 -14 8 -16 18 -3 9 -5 -13 -6 -50z"/>
<path d="M2386 294 c-8 -22 -5 -24 22 -17 25 6 25 26 0 31 -9 2 -18 -5 -22
-14z"/>
<path d="M2525 290 c3 -5 24 -10 46 -10 21 0 39 5 39 10 0 6 -21 10 -46 10
-27 0 -43 -4 -39 -10z"/>
<path d="M2580 240 c0 -35 -15 -32 -22 5 -3 11 -6 2 -9 -21 -4 -38 -3 -41 21
-42 23 0 25 3 23 39 -1 50 -13 65 -13 19z"/>
</g>
</svg>
