<?xml version="1.0" standalone="no"?>
<!DOCTYPE svg PUBLIC "-//W3C//DTD SVG 20010904//EN"
 "http://www.w3.org/TR/2001/REC-SVG-20010904/DTD/svg10.dtd">
<svg version="1.0" xmlns="http://www.w3.org/2000/svg"
 width="512.000000pt" height="512.000000pt" viewBox="0 0 512.000000 512.000000"
 preserveAspectRatio="xMidYMid meet">
<metadata>
Created by potrace 1.16, written by Peter Selinger 2001-2019
</metadata>
<g transform="translate(0.000000,512.000000) scale(0.100000,-0.100000)"
fill="#000000" stroke="none">
<path d="M3384 4288 c4 -458 7 -837 8 -843 1 -5 5 116 8 270 8 422 -1 1405
-12 1405 -7 0 -8 -291 -4 -832z"/>
<path d="M655 4851 c-80 -24 -125 -45 -155 -71 -14 -12 -31 -25 -39 -29 -10
-6 0 -20 35 -53 l48 -46 36 24 c50 33 184 58 280 51 42 -2 64 -1 50 3 -67 21
-285 -1 -332 -34 -32 -23 -50 -20 -81 12 l-27 28 23 22 c27 25 103 60 172 78
68 18 237 18 310 -1 176 -45 323 -179 389 -355 71 -191 54 -418 -43 -566 -45
-69 -145 -169 -183 -183 -113 -42 -406 -56 -553 -26 -104 22 -149 47 -206 118
-171 213 -201 491 -78 727 50 96 93 144 123 138 19 -4 21 -1 18 24 l-4 28 -24
-25 c-13 -14 -28 -25 -34 -25 -5 0 -10 -4 -10 -9 0 -4 -15 -24 -33 -43 -18
-20 -47 -64 -64 -99 -121 -255 -73 -567 117 -760 36 -36 72 -66 80 -66 8 -1
42 -8 75 -18 94 -27 348 -32 472 -10 134 23 167 40 248 126 138 146 189 330
151 546 -16 92 -26 121 -75 221 -29 59 -125 164 -179 196 -77 45 -130 68 -184
81 -87 20 -247 18 -323 -4z"/>
<path d="M3915 4823 c-37 -10 -85 -69 -85 -105 0 -7 9 5 19 27 10 22 25 46 33
52 11 9 114 13 409 14 217 1 405 -1 419 -5 23 -7 24 -6 5 6 -15 10 -108 13
-400 15 -209 1 -389 -1 -400 -4z"/>
<path d="M2090 4774 c-11 -28 -13 -149 -4 -206 6 -32 11 -38 38 -43 17 -3 63
-1 103 4 56 7 83 17 126 45 96 64 192 86 279 66 57 -14 148 -55 148 -68 0 -20
80 -45 155 -50 101 -6 92 7 -12 19 -48 5 -87 15 -102 27 -22 16 -24 24 -22 88
1 38 8 78 16 90 15 24 59 34 150 34 l60 0 0 -562 0 -562 -35 -20 c-33 -19 -55
-21 -338 -24 -388 -5 -482 1 -523 35 l-29 25 4 337 c3 209 2 310 -3 266 -13
-105 -20 -579 -9 -598 8 -15 3 -17 -33 -17 -47 0 -49 -9 -3 -12 16 -1 43 -11
59 -22 29 -20 42 -21 450 -21 393 0 422 1 447 19 15 10 26 22 23 26 -3 5 -1
11 5 15 12 7 7 1106 -5 1125 -6 9 -33 11 -102 8 -86 -5 -97 -8 -121 -32 -22
-22 -27 -36 -30 -96 -2 -38 -6 -70 -7 -70 -2 0 -32 13 -67 30 -97 46 -194 42
-328 -14 -13 -6 -15 4 -12 64 2 38 1 81 -2 95 l-6 25 -130 0 -130 0 -10 -26z
m260 -90 l0 -95 -45 -20 c-24 -11 -79 -22 -123 -26 l-79 -6 -2 122 -2 121 125
0 126 0 0 -96z"/>
<path d="M2270 4709 c0 -24 23 -21 28 4 2 10 -3 17 -12 17 -10 0 -16 -9 -16
-21z"/>
<path d="M2180 4646 c0 -20 5 -26 21 -26 15 0 20 5 17 22 -5 34 -38 37 -38 4z"/>
<path d="M4060 4790 c0 -6 90 -10 250 -10 l250 0 97 -94 98 -94 3 -143 c5
-196 22 -205 22 -13 0 150 0 151 -29 190 -44 60 -147 154 -170 154 -11 0 -23
5 -26 10 -4 6 -98 10 -251 10 -156 0 -244 -4 -244 -10z"/>
<path d="M3893 4765 c-40 -28 -46 -73 -50 -432 -4 -300 -2 -345 12 -373 21
-41 165 -185 207 -206 27 -13 20 -4 -35 51 -37 37 -90 93 -118 125 l-50 58 1
292 c0 188 4 300 11 314 6 11 48 58 92 104 l82 82 -65 0 c-43 0 -73 -5 -87
-15z m77 -19 c-6 -8 -32 -35 -57 -61 l-46 -45 7 47 c7 55 25 73 74 73 29 0 33
-2 22 -14z"/>
<path d="M1110 4718 c-20 -33 -28 -66 -9 -38 19 29 39 70 34 70 -3 0 -14 -15
-25 -32z"/>
<path d="M948 4713 c7 -3 16 -2 19 1 4 3 -2 6 -13 5 -11 0 -14 -3 -6 -6z"/>
<path d="M988 4703 c7 -3 16 -2 19 1 4 3 -2 6 -13 5 -11 0 -14 -3 -6 -6z"/>
<path d="M755 4689 c-36 -6 -34 -6 18 -6 31 0 57 1 57 2 0 8 -40 10 -75 4z"/>
<path d="M1160 4670 c-12 -16 -18 -30 -13 -30 5 0 17 14 26 30 10 17 16 30 13
30 -2 0 -14 -13 -26 -30z"/>
<path d="M4837 4660 c9 -66 24 -107 17 -46 -3 27 -10 58 -14 70 -6 14 -7 6 -3
-24z"/>
<path d="M2904 4656 c-3 -9 -4 -23 0 -31 8 -22 36 -18 36 5 0 11 0 23 1 28 1
15 -31 13 -37 -2z"/>
<path d="M4287 4643 c-2 -5 -1 -19 4 -33 7 -23 7 -23 8 8 1 31 -3 40 -12 25z"/>
<path d="M488 4603 c-52 -57 -79 -102 -103 -171 -14 -40 -25 -77 -24 -84 0 -7
8 10 18 37 31 85 69 153 114 200 24 25 38 45 32 45 -6 0 -23 -12 -37 -27z"/>
<path d="M555 4620 c-3 -5 1 -10 10 -10 9 0 13 5 10 10 -3 6 -8 10 -10 10 -2
0 -7 -4 -10 -10z"/>
<path d="M1083 4613 c9 -9 23 -13 36 -8 32 10 25 21 -15 22 -32 1 -35 -1 -21
-14z"/>
<path d="M2535 4596 c-5 -2 -37 -9 -70 -16 -54 -11 -57 -14 -40 -26 21 -15 69
-17 100 -4 15 6 8 9 -29 9 -68 1 -51 12 23 15 34 1 62 6 64 11 2 10 -29 17
-48 11z"/>
<path d="M1164 4521 c20 -27 48 -74 62 -105 30 -66 39 -73 18 -14 -18 51 -84
156 -102 163 -8 3 2 -17 22 -44z"/>
<path d="M4555 4549 c-11 -17 1 -21 15 -4 8 9 8 15 2 15 -6 0 -14 -5 -17 -11z"/>
<path d="M2276 4494 c-14 -10 -23 -11 -33 -3 -15 13 -29 -12 -19 -36 4 -13 10
-14 26 -5 11 6 17 16 14 22 -5 8 3 9 26 4 19 -3 34 -7 35 -9 0 -1 8 -18 17
-38 10 -23 13 -41 7 -50 -5 -8 -9 -54 -9 -103 l0 -88 -27 7 c-15 3 -31 12 -35
18 -4 7 -8 58 -8 115 0 74 -3 101 -11 96 -8 -4 -10 -39 -7 -105 6 -121 14
-134 96 -142 46 -5 120 -21 217 -48 6 -1 50 10 98 25 84 26 89 29 122 79 32
49 34 57 37 154 4 128 -14 110 -22 -23 -5 -83 -8 -93 -38 -129 -26 -33 -45
-43 -109 -62 l-78 -23 -75 19 c-41 11 -88 21 -105 23 l-30 3 0 126 c0 111 -2
129 -19 148 -11 11 -25 21 -32 21 -7 0 -14 4 -16 9 -1 5 -12 3 -22 -5z"/>
<path d="M2545 4500 c-3 -5 -2 -10 4 -10 5 0 13 5 16 10 3 6 2 10 -4 10 -5 0
-13 -4 -16 -10z"/>
<path d="M725 4472 c-65 -30 -115 -105 -115 -172 0 -109 116 -210 225 -198
169 19 226 250 89 355 -48 36 -139 43 -199 15z m161 -21 c101 -62 123 -187 48
-271 -62 -68 -140 -77 -216 -24 -142 99 -76 312 97 314 22 0 54 -9 71 -19z"/>
<path d="M2701 4473 c-13 -15 -13 -16 7 -11 11 3 23 1 25 -6 3 -8 8 -8 17 1 7
6 9 16 6 22 -10 16 -39 13 -55 -6z"/>
<path d="M4208 4460 c-49 -26 -78 -69 -85 -128 -15 -126 73 -219 199 -210 134
10 208 145 146 268 -31 61 -83 90 -163 89 -40 0 -72 -6 -97 -19z m168 -16 c49
-23 82 -67 90 -119 18 -121 -119 -225 -225 -170 -40 20 -78 69 -92 115 -37
123 105 232 227 174z"/>
<path d="M2872 4410 c0 -14 2 -19 5 -12 2 6 2 18 0 25 -3 6 -5 1 -5 -13z"/>
<path d="M367 4303 c-4 -3 -7 -17 -7 -30 0 -29 36 -32 45 -3 10 31 -17 55 -38
33z"/>
<path d="M1232 4278 c2 -15 11 -24 26 -26 18 -3 22 1 22 22 0 21 -5 26 -26 26
-21 0 -25 -4 -22 -22z"/>
<path d="M4760 4128 l0 -151 -117 -120 c-65 -67 -104 -113 -88 -103 43 27 75
58 69 67 -3 5 -1 9 3 9 12 0 123 108 123 120 0 5 8 7 18 4 14 -5 15 -4 2 5
-10 7 -11 11 -2 11 9 0 12 38 12 155 0 97 -4 155 -10 155 -6 0 -10 -57 -10
-152z"/>
<path d="M381 4202 c-1 -16 55 -159 75 -192 23 -38 12 1 -26 90 -18 41 -36 84
-41 95 -4 11 -8 14 -8 7z"/>
<path d="M1244 4180 c-13 -43 -84 -174 -101 -187 -9 -7 -13 -16 -9 -20 4 -4
16 3 27 17 31 39 101 189 96 202 -3 8 -9 3 -13 -12z"/>
<path d="M4108 4173 c7 -3 16 -2 19 1 4 3 -2 6 -13 5 -11 0 -14 -3 -6 -6z"/>
<path d="M2360 4155 c0 -15 18 -40 24 -34 3 3 -1 14 -9 25 -8 10 -14 15 -15 9z"/>
<path d="M2705 4128 c-27 -11 -68 -23 -90 -27 -37 -7 -38 -8 -13 -13 27 -5
130 30 151 51 13 13 13 13 -48 -11z"/>
<path d="M4510 4131 c0 -5 5 -13 10 -16 6 -3 10 -2 10 4 0 5 -4 13 -10 16 -5
3 -10 2 -10 -4z"/>
<path d="M2400 4121 c0 -10 28 -17 105 -25 48 -5 49 -5 20 8 -38 17 -125 28
-125 17z"/>
<path d="M2537 4063 c-12 -11 -8 -23 8 -23 8 0 15 7 15 15 0 16 -12 20 -23 8z"/>
<path d="M3753 4025 c0 -27 2 -38 4 -22 2 15 2 37 0 50 -2 12 -4 0 -4 -28z"/>
<path d="M2347 3946 c-7 -18 1 -26 25 -26 22 0 24 26 2 34 -21 8 -21 8 -27 -8z"/>
<path d="M2450 3950 c-7 -4 -9 -13 -6 -19 10 -16 56 -14 56 3 0 16 -33 27 -50
16z"/>
<path d="M2672 3943 c4 -22 43 -25 43 -3 0 8 -11 16 -23 18 -19 3 -23 0 -20
-15z"/>
<path d="M2767 3953 c-11 -10 13 -32 29 -26 20 8 17 33 -4 33 -10 0 -22 -3
-25 -7z"/>
<path d="M3778 3944 c5 -11 14 -40 20 -65 6 -25 27 -70 47 -100 43 -66 46 -59
4 12 -16 28 -36 77 -43 107 -7 31 -18 58 -25 60 -9 3 -10 -1 -3 -14z"/>
<path d="M4318 3898 c-2 -35 -1 -70 4 -78 4 -8 8 19 8 63 0 42 -2 77 -4 77 -2
0 -6 -28 -8 -62z"/>
<path d="M2575 3940 c-8 -13 20 -24 41 -16 20 8 9 26 -16 26 -10 0 -22 -5 -25
-10z"/>
<path d="M1941 3845 c0 -55 4 -109 8 -120 7 -19 3 189 -4 210 -2 6 -3 -35 -4
-90z"/>
<path d="M4759 3763 c-13 -16 -12 -17 4 -4 16 13 21 21 13 21 -2 0 -10 -8 -17
-17z"/>
<path d="M3938 3733 c23 -2 61 -2 85 0 23 2 4 4 -43 4 -47 0 -66 -2 -42 -4z"/>
<path d="M4203 3733 c59 -2 155 -2 215 0 59 1 10 3 -108 3 -118 0 -167 -2
-107 -3z"/>
<path d="M4598 3733 c23 -2 59 -2 80 0 20 2 1 4 -43 4 -44 0 -61 -2 -37 -4z"/>
<path d="M1068 3413 c61 -2 163 -2 225 0 61 1 11 3 -113 3 -124 0 -174 -2
-112 -3z"/>
<path d="M1418 3413 c7 -3 16 -2 19 1 4 3 -2 6 -13 5 -11 0 -14 -3 -6 -6z"/>
<path d="M1658 3413 c6 -2 18 -2 25 0 6 3 1 5 -13 5 -14 0 -19 -2 -12 -5z"/>
<path d="M1710 2560 l0 -860 845 2 845 3 2 858 3 857 -847 0 -848 0 0 -860z
m1670 5 l0 -835 -825 0 -825 0 0 830 0 829 113 3 c61 2 433 4 825 5 l712 2 0
-834z"/>
<path d="M2234 2951 c-47 -29 -64 -59 -64 -115 0 -63 28 -108 84 -136 45 -21
90 -60 107 -92 8 -15 6 -18 -16 -18 -21 0 -25 -5 -25 -30 0 -27 3 -30 30 -30
24 0 30 4 30 22 0 17 11 9 57 -42 80 -88 202 -241 238 -297 36 -57 87 -93 129
-92 28 1 27 2 -13 13 -44 11 -111 74 -111 102 0 15 -141 194 -220 279 -31 33
-75 88 -98 122 -30 45 -51 64 -76 73 -19 6 -49 27 -66 46 -80 92 12 226 127
183 97 -37 114 -187 28 -243 -33 -22 -27 -31 9 -15 14 7 31 25 38 41 7 15 15
28 18 28 3 0 55 -55 115 -123 61 -67 163 -174 228 -239 64 -64 117 -123 117
-132 0 -8 5 -18 10 -21 6 -4 10 5 10 20 0 21 -26 52 -120 142 -66 64 -120 120
-120 124 0 5 6 9 14 9 22 0 29 33 11 46 -16 12 -55 8 -55 -6 0 -4 -33 27 -73
69 -131 135 -127 130 -127 188 0 41 -5 58 -27 84 -49 58 -131 76 -189 40z
m136 -391 c0 -5 -9 -10 -20 -10 -11 0 -20 5 -20 10 0 6 9 10 20 10 11 0 20 -4
20 -10z m335 0 c4 -6 -5 -10 -20 -10 -15 0 -24 4 -20 10 3 6 12 10 20 10 8 0
17 -4 20 -10z"/>
<path d="M2272 2843 c-13 -26 -4 -43 24 -43 29 0 41 24 24 45 -17 20 -37 19
-48 -2z m33 -13 c3 -5 1 -10 -4 -10 -6 0 -11 5 -11 10 0 6 2 10 4 10 3 0 8 -4
11 -10z"/>
<path d="M2122 2598 c-13 -13 -15 -37 -6 -62 4 -12 20 -16 53 -16 26 0 51 3
55 7 4 4 23 6 42 4 32 -2 34 -1 34 29 0 31 -2 32 -33 28 -20 -2 -39 2 -46 9
-15 16 -83 17 -99 1z m86 -35 c3 -21 -1 -23 -37 -23 -33 0 -41 4 -41 18 0 27
10 33 45 30 22 -2 31 -9 33 -25z m68 -11 c-22 -5 -30 3 -21 18 5 8 11 7 22 -2
15 -12 14 -13 -1 -16z"/>
<path d="M2816 2593 c-4 -4 -22 -6 -41 -5 -26 3 -35 -1 -40 -17 -3 -12 -4 -25
0 -31 3 -5 66 -9 146 -9 l140 0 -3 32 c-3 32 -3 32 -63 34 -33 1 -66 -3 -72
-9 -9 -7 -13 -7 -13 1 0 12 -42 15 -54 4z m42 -31 c2 -7 -6 -12 -17 -12 -21 0
-27 11 -14 24 9 9 26 2 31 -12z m80 1 c2 -8 -6 -13 -22 -13 -25 0 -33 10 -19
24 10 10 36 3 41 -11z m62 2 c0 -8 -9 -15 -20 -15 -20 0 -26 11 -13 23 12 13
33 7 33 -8z m-210 -5 c0 -5 -9 -10 -20 -10 -11 0 -20 5 -20 10 0 6 9 10 20 10
11 0 20 -4 20 -10z"/>
<path d="M2460 2568 c0 -3 9 -6 20 -5 11 1 20 5 20 9 0 3 -9 6 -20 5 -11 -1
-20 -5 -20 -9z"/>
<path d="M2528 2573 c12 -2 30 -2 40 0 9 3 -1 5 -23 4 -22 0 -30 -2 -17 -4z"/>
<path d="M2530 2540 c-30 -3 -50 -7 -45 -10 6 -3 35 -3 65 0 30 3 51 7 45 10
-5 3 -35 3 -65 0z"/>
<path d="M3425 3411 c6 -11 1680 -10 1691 2 4 4 -376 7 -845 7 -523 0 -850 -4
-846 -9z"/>
<path d="M4096 3154 c-32 -8 -89 -30 -128 -51 -134 -70 -219 -171 -272 -323
-28 -80 -30 -94 -30 -240 -1 -152 0 -156 32 -235 29 -72 111 -200 121 -190 2
3 -8 20 -22 38 -38 51 -67 105 -91 172 -17 50 -21 84 -21 205 0 160 8 202 61
315 64 138 212 254 369 290 91 22 264 21 350 0 75 -19 195 -72 195 -86 0 -5 7
-9 15 -9 8 0 23 -8 33 -17 11 -10 32 -29 49 -43 16 -14 4 0 -27 30 -113 111
-253 161 -454 159 -67 0 -147 -7 -180 -15z"/>
<path d="M616 3139 c-21 -5 -56 -23 -78 -41 -23 -18 -59 -34 -86 -39 -38 -7
-55 -18 -89 -54 -69 -76 -72 -91 -75 -510 -3 -364 -3 -371 19 -411 30 -56 94
-112 137 -118 20 -3 53 -9 73 -12 20 -3 42 -12 48 -21 17 -23 87 -33 235 -31
185 1 244 9 273 36 13 13 36 22 53 22 30 0 117 48 142 79 7 9 22 34 32 56 18
37 20 66 20 423 0 422 0 425 -63 490 -32 34 -79 52 -134 52 -22 0 -42 10 -65
31 -57 53 -82 59 -250 58 -84 -1 -170 -5 -192 -10z m329 -9 c56 -9 104 -33
112 -56 2 -6 -44 -8 -124 -6 -71 2 -193 -1 -271 -5 -79 -4 -146 -5 -148 -1
-11 17 79 61 139 68 95 11 225 11 292 0z m250 -105 c22 -11 53 -40 70 -63 l30
-44 0 -402 0 -403 -28 -36 c-43 -56 -93 -89 -148 -98 -34 -5 -56 -15 -69 -31
-18 -23 -21 -23 -233 -23 -209 0 -216 1 -239 22 -16 15 -44 25 -85 31 -74 10
-120 42 -160 110 l-28 47 3 370 4 370 25 57 c32 73 60 98 119 107 27 4 195 8
374 7 304 -1 328 -2 365 -21z"/>
<path d="M421 3007 c-31 -15 -71 -91 -70 -131 0 -25 4 -19 17 28 30 104 16
100 415 104 398 4 407 2 444 -67 13 -24 23 -37 23 -29 0 29 -46 83 -80 95 -50
17 -716 18 -749 0z"/>
<path d="M470 2967 c-24 -8 -35 -18 -35 -32 0 -29 47 -27 60 3 9 21 15 22 135
23 69 1 185 2 258 3 l134 1 -6 -33 c-3 -19 -1 -30 5 -27 5 4 9 15 9 25 0 10 5
22 10 25 34 21 -12 25 -262 24 -184 0 -284 -4 -308 -12z"/>
<path d="M1066 2954 c-9 -24 -7 -31 5 -11 12 21 78 21 86 0 3 -7 10 -10 15 -7
6 4 14 0 19 -7 6 -9 9 -10 9 -2 0 26 -32 43 -80 43 -34 0 -50 -4 -54 -16z"/>
<path d="M396 2928 c-3 -13 -5 -140 -4 -283 l2 -260 6 280 c3 154 4 281 4 283
-1 1 -4 -8 -8 -20z"/>
<path d="M934 2871 c-39 -11 -88 -27 -110 -37 -21 -9 -42 -16 -46 -16 -5 1 -8
-3 -8 -9 0 -6 7 -9 15 -5 101 38 197 60 269 59 88 -2 92 13 6 21 -37 4 -79 -1
-126 -13z"/>
<path d="M470 2849 c0 -5 5 -7 10 -4 6 3 10 8 10 11 0 2 -4 4 -10 4 -5 0 -10
-5 -10 -11z"/>
<path d="M745 2790 c-3 -5 -1 -10 4 -10 6 0 11 5 11 10 0 6 -2 10 -4 10 -3 0
-8 -4 -11 -10z"/>
<path d="M918 2763 c7 -3 16 -2 19 1 4 3 -2 6 -13 5 -11 0 -14 -3 -6 -6z"/>
<path d="M798 2753 c12 -2 32 -2 45 0 12 2 2 4 -23 4 -25 0 -35 -2 -22 -4z"/>
<path d="M572 2553 c-23 -15 -42 -33 -42 -39 0 -16 73 -44 115 -44 41 0 42 -3
15 -38 -27 -33 -15 -44 54 -50 52 -4 54 -3 49 17 -4 17 -13 21 -49 21 -41 0
-43 2 -33 19 19 30 4 51 -35 51 l-35 0 24 36 c41 60 9 73 -63 27z m40 -22
c-10 -18 -22 -27 -31 -23 -11 4 -8 11 13 29 35 30 39 29 18 -6z"/>
<path d="M800 2565 c0 -8 5 -15 10 -15 6 0 10 7 10 15 0 8 -4 15 -10 15 -5 0
-10 -7 -10 -15z"/>
<path d="M961 2552 c-8 -15 -5 -25 17 -51 27 -31 27 -32 71 -19 25 8 46 18 48
24 4 12 -52 46 -61 36 -4 -4 -6 0 -4 8 5 24 -58 26 -71 2z m70 -21 l21 -19
-22 -7 c-23 -7 -50 9 -50 31 0 20 27 17 51 -5z"/>
<path d="M915 2470 c-4 -6 6 -10 24 -10 16 0 33 5 36 10 4 6 -6 10 -24 10 -16
0 -33 -4 -36 -10z"/>
<path d="M820 2400 c0 -19 5 -21 63 -18 47 2 62 7 62 18 0 11 -15 16 -62 18
-58 3 -63 1 -63 -18z"/>
<path d="M502 2033 c37 -2 100 -2 140 0 40 1 10 3 -67 3 -77 0 -110 -1 -73 -3z"/>
<path d="M873 2033 c54 -2 139 -2 190 0 51 1 7 3 -98 3 -104 0 -146 -2 -92 -3z"/>
<path d="M4173 3009 c-69 -13 -174 -69 -229 -121 -173 -163 -177 -495 -8 -661
94 -92 195 -121 389 -114 194 7 293 50 368 159 100 146 112 345 31 515 -53
110 -145 179 -290 217 -65 17 -190 19 -261 5z m250 -24 c234 -61 364 -257 330
-498 -14 -96 -49 -173 -110 -238 -82 -88 -174 -119 -349 -119 -167 0 -273 38
-355 128 -112 121 -139 338 -62 501 50 106 182 206 303 230 72 14 181 12 243
-4z"/>
<path d="M4058 2617 c-26 -18 -48 -35 -48 -39 0 -14 61 -49 96 -55 36 -6 37
-5 29 18 -4 13 -10 43 -12 67 -3 23 -8 42 -12 41 -3 0 -27 -15 -53 -32z m48
-41 c9 -31 9 -33 -10 -28 -12 3 -29 11 -39 17 -17 12 -17 14 5 29 30 22 32 21
44 -18z"/>
<path d="M4483 2598 c-6 -24 -14 -53 -18 -65 -6 -19 -4 -23 15 -23 22 0 140
59 140 70 0 5 -112 60 -121 60 -3 0 -9 -19 -16 -42z m76 -12 c7 -8 -2 -18 -28
-33 l-38 -22 10 38 c8 30 14 37 28 34 10 -3 23 -10 28 -17z"/>
<path d="M4200 2531 c0 -36 12 -41 94 -41 70 0 83 3 93 20 7 10 9 21 5 23 -15
9 -192 8 -192 -2z m133 -18 c-13 -2 -33 -2 -45 0 -13 2 -3 4 22 4 25 0 35 -2
23 -4z"/>
<path d="M4263 2414 c-6 -16 15 -37 29 -28 4 3 8 14 8 25 0 23 -28 26 -37 3z"/>
<path d="M4796 2927 c3 -10 9 -15 12 -12 3 3 0 11 -7 18 -10 9 -11 8 -5 -6z"/>
<path d="M4860 2821 c0 -6 4 -13 10 -16 6 -3 7 1 4 9 -7 18 -14 21 -14 7z"/>
<path d="M4881 2768 c61 -114 48 -397 -25 -533 -38 -69 -124 -165 -175 -193
-94 -53 -126 -65 -215 -81 -82 -15 -267 -13 -351 3 -38 8 -71 13 -73 11 -9 -9
76 -27 164 -35 182 -18 345 12 470 85 166 97 274 324 260 546 -6 89 -39 219
-57 219 -6 0 -5 -9 2 -22z"/>
<path d="M158 1713 c12 -2 30 -2 40 0 9 3 -1 5 -23 4 -22 0 -30 -2 -17 -4z"/>
<path d="M238 1713 c7 -3 16 -2 19 1 4 3 -2 6 -13 5 -11 0 -14 -3 -6 -6z"/>
<path d="M3678 1693 c45 -2 119 -2 165 0 45 1 8 3 -83 3 -91 0 -128 -2 -82 -3z"/>
<path d="M4633 1693 c93 -2 241 -2 330 0 89 1 14 3 -168 3 -181 0 -254 -2
-162 -3z"/>
<path d="M2143 1460 c-87 -10 -152 -39 -176 -79 -16 -27 -17 -63 -17 -357 0
-180 2 -330 5 -332 3 -3 5 146 5 331 l0 337 28 30 c51 56 108 63 522 64 369 1
480 -7 558 -39 37 -16 43 -12 10 6 -59 32 -155 40 -508 44 -195 2 -387 0 -427
-5z"/>
<path d="M3991 1428 c-39 -20 -114 -87 -181 -160 -32 -36 -40 -51 -32 -61 12
-14 11 -65 -1 -85 -5 -7 -2 -12 7 -12 12 0 16 11 18 40 0 22 1 46 2 53 1 6 -5
11 -13 9 -40 -8 183 204 225 214 13 3 43 2 68 -4 24 -5 50 -5 58 -1 16 11 276
11 340 0 58 -9 163 -86 284 -206 65 -64 84 -90 94 -125 6 -25 27 -65 46 -90
45 -57 46 -65 42 -210 l-3 -121 -60 -58 c-33 -32 -105 -104 -160 -159 -55 -56
-124 -125 -154 -154 l-53 -53 -192 -3 -191 -4 -162 162 c-90 88 -163 168 -163
176 0 10 -6 13 -19 9 -25 -8 -88 63 -97 110 -3 19 -5 96 -2 170 2 95 1 130 -7
117 -6 -9 -10 -82 -10 -167 0 -144 1 -152 25 -185 32 -46 62 -70 78 -65 7 3
16 -3 19 -13 12 -32 307 -314 338 -323 36 -11 292 -11 357 0 38 6 57 17 96 57
28 27 91 90 142 139 51 50 103 104 116 120 12 17 37 39 53 50 54 36 71 92 68
235 l-3 125 -42 59 c-23 33 -42 67 -42 76 0 20 -77 131 -117 168 -50 46 -182
146 -221 167 -34 18 -56 20 -276 20 -212 1 -244 -1 -275 -17z"/>
<path d="M464 1381 c-55 -40 -170 -162 -178 -189 -4 -12 -10 -22 -14 -22 -4 0
-23 -14 -42 -30 l-35 -30 0 -310 0 -310 137 -135 137 -135 233 1 c128 0 283 4
343 7 l110 7 85 90 c47 49 105 109 130 132 l45 42 3 280 c2 154 -1 295 -6 313
-5 22 -24 45 -53 67 -24 18 -47 42 -52 53 -4 11 -47 60 -95 109 l-88 89 -310
0 -311 0 -39 -29z m741 -83 c47 -51 88 -103 92 -115 3 -13 11 -23 18 -23 20 0
66 -41 76 -69 6 -15 10 -144 10 -305 l0 -280 -32 -25 c-31 -24 -133 -128 -197
-201 l-30 -35 -331 -4 -330 -3 -136 135 -136 136 3 301 3 302 28 24 c15 13 32
24 36 24 4 0 7 -78 6 -172 0 -95 2 -234 5 -308 5 -105 7 -67 9 175 2 171 6
320 9 332 4 13 47 63 96 113 l89 90 313 0 312 0 87 -92z"/>
<path d="M460 1320 c0 -9 459 -3 469 6 2 2 -102 4 -232 4 -145 0 -237 -4 -237
-10z"/>
<path d="M413 1234 l-53 -52 2 -103 2 -104 5 95 6 95 56 53 56 52 304 1 c186
1 285 5 254 9 -27 5 -169 8 -315 7 l-265 0 -52 -53z"/>
<path d="M1110 1266 c0 -8 7 -12 18 -10 11 3 36 -14 70 -47 33 -33 52 -46 52
-35 0 9 -4 16 -8 16 -5 0 -32 20 -61 45 -55 47 -71 54 -71 31z"/>
<path d="M1301 1058 c1 -54 5 -98 10 -98 12 0 11 162 -1 180 -7 10 -10 -15 -9
-82z"/>
<path d="M749 1050 c-52 -7 -144 -44 -156 -63 -3 -4 19 4 49 20 49 26 60 28
156 26 108 -2 155 -12 210 -45 18 -11 35 -18 38 -15 3 3 -27 21 -68 40 -80 39
-141 49 -229 37z"/>
<path d="M1015 1029 c17 -12 56 -49 88 -81 44 -44 54 -51 40 -28 -20 35 -93
100 -133 119 -20 10 -19 8 5 -10z"/>
<path d="M748 1023 c7 -3 16 -2 19 1 4 3 -2 6 -13 5 -11 0 -14 -3 -6 -6z"/>
<path d="M680 1010 c-11 -8 -7 -9 15 -4 37 8 45 14 19 14 -10 0 -26 -5 -34
-10z"/>
<path d="M691 948 c-66 -25 -126 -83 -134 -129 -6 -30 4 -104 15 -114 2 -3 2
24 0 58 -4 57 -1 66 23 95 15 18 31 29 36 26 5 -3 8 0 7 7 -2 7 15 22 37 33
84 43 319 18 301 -31 -4 -8 0 -24 8 -34 16 -23 6 -88 -20 -126 -53 -82 -257
-82 -318 0 -12 16 -23 50 -26 80 -5 45 -7 49 -16 32 -6 -11 -14 -39 -18 -61
-8 -53 21 -99 84 -134 39 -22 58 -25 135 -25 81 0 95 3 138 28 60 36 86 87 87
169 0 54 -2 58 -41 91 -69 60 -196 75 -298 35z m-60 -243 c7 -13 3 -12 -10 5
-11 14 -21 30 -21 35 0 11 14 -7 31 -40z m324 -15 c-10 -11 -22 -20 -28 -20
-5 0 1 9 14 20 31 25 37 25 14 0z m-186 -36 c40 -8 47 -12 26 -13 -37 -1 -102
16 -110 29 -4 6 1 7 11 3 10 -4 43 -12 73 -19z m118 0 c-3 -3 -12 -4 -19 -1
-8 3 -5 6 6 6 11 1 17 -2 13 -5z"/>
<path d="M544 918 l-19 -23 23 19 c21 18 27 26 19 26 -2 0 -12 -10 -23 -22z"/>
<path d="M900 864 c-75 -53 -128 -53 -202 -2 -32 22 -48 23 -48 3 0 -8 3 -14
8 -13 4 0 34 -12 66 -27 55 -26 63 -27 104 -16 25 6 58 21 74 32 16 12 35 18
44 15 13 -5 13 -9 -1 -36 -20 -38 -50 -58 -106 -68 -86 -16 -166 15 -189 73
-7 17 -9 15 -9 -12 -2 -81 159 -121 265 -66 48 25 70 64 57 106 -11 39 -21 41
-63 11z"/>
<path d="M1047 819 c5 -33 -5 -99 -22 -154 -3 -11 1 -7 10 9 21 36 31 137 17
162 -9 15 -10 12 -5 -17z"/>
<path d="M580 681 c0 -6 4 -13 10 -16 6 -3 7 1 4 9 -7 18 -14 21 -14 7z"/>
<path d="M615 630 c10 -11 22 -20 27 -20 4 0 -1 9 -12 20 -11 11 -23 20 -27
20 -3 0 2 -9 12 -20z"/>
<path d="M733 563 c9 -2 23 -2 30 0 6 3 -1 5 -18 5 -16 0 -22 -2 -12 -5z"/>
<path d="M823 553 c9 -2 23 -2 30 0 6 3 -1 5 -18 5 -16 0 -22 -2 -12 -5z"/>
<path d="M1110 430 c0 -5 9 -10 20 -10 11 0 20 5 20 10 0 6 -9 10 -20 10 -11
0 -20 -4 -20 -10z"/>
<path d="M1122 387 c-12 -13 -22 -30 -22 -38 1 -15 50 35 50 52 0 13 -4 11
-28 -14z"/>
<path d="M434 368 c18 -25 56 -52 63 -44 9 8 -15 34 -48 50 -28 14 -29 14 -15
-6z"/>
<path d="M3995 1341 c-36 -21 -111 -104 -132 -144 -8 -16 -13 -40 -11 -54 3
-25 9 -21 113 68 164 141 136 131 340 123 129 -5 175 -4 175 5 0 8 -40 11
-132 12 -73 0 -153 2 -177 5 -53 6 -77 -9 -205 -125 -49 -44 -91 -79 -93 -77
-2 2 -1 15 3 30 7 30 121 146 143 146 11 0 10 -5 -5 -22 -13 -15 -7 -12 18 8
32 24 35 30 20 36 -25 10 -24 10 -57 -11z"/>
<path d="M4520 1340 c0 -5 4 -10 9 -10 5 0 31 -19 57 -43 27 -24 66 -53 86
-64 35 -20 37 -21 35 -3 -1 10 -5 16 -9 14 -4 -3 -8 -1 -8 4 0 6 -9 8 -19 5
-13 -3 -38 12 -80 51 -63 58 -71 63 -71 46z"/>
<path d="M2240 1326 c0 -2 7 -7 16 -10 8 -3 12 -2 9 4 -6 10 -25 14 -25 6z"/>
<path d="M1712 663 c-1 -448 1 -663 8 -663 11 0 11 851 0 1165 -3 88 -7 -138
-8 -502z"/>
<path d="M2305 1311 c-3 -6 3 -15 14 -20 15 -8 20 -7 25 5 3 9 6 18 6 20 0 8
-39 4 -45 -5z"/>
<path d="M2797 1303 c-12 -11 -8 -23 8 -23 8 0 15 7 15 15 0 16 -12 20 -23 8z"/>
<path d="M4115 1269 c-22 -41 -13 -48 14 -10 12 17 17 32 12 36 -6 3 -17 -8
-26 -26z"/>
<path d="M4240 1288 c0 -7 5 -20 10 -28 8 -12 10 -9 10 13 0 15 -4 27 -10 27
-5 0 -10 -6 -10 -12z"/>
<path d="M4367 1273 c-4 -3 -7 -11 -7 -17 0 -6 5 -5 12 2 6 6 9 14 7 17 -3 3
-9 2 -12 -2z"/>
<path d="M4482 1259 c2 -7 10 -15 17 -17 8 -3 12 1 9 9 -2 7 -10 15 -17 17 -8
3 -12 -1 -9 -9z"/>
<path d="M3388 1063 c-9 -446 -8 -1063 2 -1063 7 0 10 204 10 615 0 338 -2
615 -5 615 -2 0 -6 -75 -7 -167z"/>
<path d="M4019 1194 c-13 -15 -18 -25 -10 -22 13 4 49 48 39 48 -2 0 -15 -12
-29 -26z"/>
<path d="M4720 1207 c0 -9 6 -16 13 -14 6 1 11 -3 10 -10 -3 -14 25 -38 34
-29 4 4 -7 21 -25 39 -25 24 -32 28 -32 14z"/>
<path d="M2442 1185 c-29 -8 -61 -19 -72 -25 -10 -5 -41 -15 -69 -21 -54 -11
-55 -12 -41 -44 7 -16 9 -17 9 -3 1 10 14 21 34 27 17 5 66 22 107 36 65 24
86 27 165 23 76 -3 98 -8 143 -33 75 -41 77 -46 37 -87 -27 -27 -32 -37 -21
-41 10 -4 25 9 43 38 32 51 62 65 136 65 28 0 47 3 44 7 -10 10 -120 3 -133
-8 -9 -7 -37 3 -93 32 -71 37 -89 43 -158 46 -48 2 -98 -3 -131 -12z"/>
<path d="M4570 1186 c0 -2 7 -7 16 -10 8 -3 12 -2 9 4 -6 10 -25 14 -25 6z"/>
<path d="M4018 1153 c7 -3 16 -2 19 1 4 3 -2 6 -13 5 -11 0 -14 -3 -6 -6z"/>
<path d="M2549 1133 c-1 -4 -2 -15 -3 -23 -1 -9 -16 -17 -41 -21 l-40 -6 35
-1 c19 -1 40 2 46 6 16 11 24 41 14 47 -6 4 -11 3 -11 -2z"/>
<path d="M2130 918 c0 -111 2 -199 5 -196 3 3 6 85 6 183 0 98 3 183 5 190 3
7 15 10 27 8 12 -2 33 0 47 6 21 8 16 10 -32 10 l-58 1 0 -202z"/>
<path d="M3742 1088 c0 -60 -14 -173 -24 -185 -6 -7 -5 -14 2 -18 6 -3 7 -12
3 -18 -10 -15 -4 -179 6 -190 4 -4 11 61 14 145 4 84 10 186 13 226 5 49 3 72
-4 72 -6 0 -10 -15 -10 -32z"/>
<path d="M3853 1088 l-33 -23 0 -134 c0 -117 2 -132 16 -127 9 3 23 6 32 7 10
1 6 4 -8 8 -22 6 -25 13 -28 56 -3 41 0 52 20 67 l23 18 -22 0 c-20 0 -23 5
-23 40 0 30 7 48 31 75 36 41 35 43 -8 13z"/>
<path d="M4780 1095 c0 -4 10 -24 22 -44 18 -28 23 -32 26 -18 2 10 -8 30 -22
44 -14 14 -26 22 -26 18z"/>
<path d="M2991 899 c1 -101 5 -267 9 -369 5 -120 6 -57 2 180 -2 201 -6 367
-8 369 -2 2 -3 -79 -3 -180z"/>
<path d="M2271 1041 c-8 -5 -17 -18 -19 -28 -6 -23 -3 -202 4 -226 13 -43 89
-45 100 -2 l6 23 35 -24 c45 -30 94 -44 158 -44 148 1 278 45 290 98 9 45 21
165 17 185 -4 21 -45 23 -65 2 -9 -8 -18 -33 -21 -55 -21 -141 -11 -129 -133
-154 -74 -14 -111 -11 -205 18 -29 9 -50 11 -53 5 -4 -5 0 -11 7 -13 7 -2 46
-14 86 -27 67 -20 80 -21 140 -10 37 6 88 19 114 27 46 15 47 17 53 62 12 101
21 135 37 146 9 6 20 8 23 4 3 -3 0 -47 -6 -98 -8 -64 -18 -99 -30 -111 -26
-26 -111 -49 -211 -56 -92 -6 -150 7 -210 48 -23 17 -26 25 -23 66 1 27 6 69
10 94 7 41 5 48 -16 63 -26 18 -66 21 -88 7z m74 -31 c14 -16 15 -24 6 -51 -6
-18 -11 -65 -11 -106 0 -79 -10 -94 -49 -74 -17 10 -20 23 -23 103 -3 90 3
125 26 140 18 12 32 9 51 -12z"/>
<path d="M2661 990 c-21 -12 -5 -42 21 -38 12 2 23 8 25 15 6 16 -30 34 -46
23z"/>
<path d="M4165 979 c-16 -10 -25 -19 -19 -19 7 0 22 9 35 20 30 24 23 24 -16
-1z"/>
<path d="M4787 963 c-3 -5 3 -15 14 -22 18 -11 20 -10 17 5 -3 19 -23 30 -31
17z"/>
<path d="M4895 815 c0 -84 3 -151 8 -148 4 2 7 69 7 148 0 79 -3 146 -7 148
-5 3 -8 -64 -8 -148z"/>
<path d="M2605 899 c-4 -6 -5 -13 -2 -16 7 -7 27 6 27 18 0 12 -17 12 -25 -2z"/>
<path d="M4114 899 c-3 -6 -2 -14 2 -18 8 -8 106 -41 118 -41 14 0 4 32 -14
50 -22 22 -94 28 -106 9z m73 -15 c-3 -3 -12 -4 -19 -1 -8 3 -5 6 6 6 11 1 17
-2 13 -5z"/>
<path d="M4426 888 c-22 -31 -21 -52 2 -43 9 4 37 13 62 19 28 8 46 19 48 29
3 14 -5 17 -47 17 -40 0 -53 -4 -65 -22z"/>
<path d="M4800 831 c0 -6 5 -13 10 -16 6 -3 10 1 10 9 0 9 -4 16 -10 16 -5 0
-10 -4 -10 -9z"/>
<path d="M4094 788 c-12 -20 8 -48 34 -48 63 1 69 45 7 52 -20 2 -38 0 -41 -4z"/>
<path d="M4492 791 c-8 -5 -12 -17 -10 -27 4 -25 65 -33 74 -10 13 33 -32 58
-64 37z"/>
<path d="M4252 770 c-17 -28 -16 -30 18 -30 25 0 30 4 30 25 0 31 -29 34 -48
5z"/>
<path d="M4364 776 c-9 -22 4 -36 32 -36 21 0 25 4 22 23 -4 26 -45 37 -54 13z"/>
<path d="M4800 700 c0 -11 5 -20 10 -20 6 0 10 9 10 20 0 11 -4 20 -10 20 -5
0 -10 -9 -10 -20z"/>
<path d="M3820 691 c0 -11 4 -21 9 -21 18 0 21 18 6 30 -13 10 -15 9 -15 -9z"/>
<path d="M2130 655 c0 -8 4 -15 10 -15 5 0 7 7 4 15 -4 8 -8 15 -10 15 -2 0
-4 -7 -4 -15z"/>
<path d="M4808 634 c-5 -4 -8 -21 -8 -38 1 -26 2 -28 11 -13 11 19 8 63 -3 51z"/>
<path d="M3830 609 c0 -9 9 -24 20 -34 26 -23 26 -4 0 26 -15 18 -19 20 -20 8z"/>
<path d="M1955 540 c-7 -12 18 -18 40 -10 17 6 16 7 -8 12 -15 3 -30 2 -32 -2z"/>
<path d="M1947 452 c6 -81 11 -87 12 -15 1 34 -3 64 -7 67 -5 3 -7 -21 -5 -52z"/>
<path d="M3930 489 c0 -3 34 -38 76 -79 42 -41 75 -70 73 -65 -4 11 -149 151
-149 144z"/>
<path d="M4584 394 c-18 -14 -18 -15 4 -4 12 6 22 13 22 15 0 8 -5 6 -26 -11z"/>
<path d="M4150 380 c0 -5 5 -10 11 -10 5 0 7 5 4 10 -3 6 -8 10 -11 10 -2 0
-4 -4 -4 -10z"/>
<path d="M4325 360 c-18 -8 -17 -9 8 -9 15 -1 27 4 27 9 0 12 -8 12 -35 0z"/>
<path d="M4208 343 c12 -2 30 -2 40 0 9 3 -1 5 -23 4 -22 0 -30 -2 -17 -4z"/>
<path d="M4103 333 c9 -2 25 -2 35 0 9 3 1 5 -18 5 -19 0 -27 -2 -17 -5z"/>
<path d="M2991 304 c0 -11 3 -14 6 -6 3 7 2 16 -1 19 -3 4 -6 -2 -5 -13z"/>
<path d="M2403 243 c59 -2 154 -2 210 0 56 1 8 3 -108 3 -115 0 -161 -2 -102
-3z"/>
</g>
</svg>
