<?xml version="1.0" standalone="no"?>
<!DOCTYPE svg PUBLIC "-//W3C//DTD SVG 20010904//EN"
 "http://www.w3.org/TR/2001/REC-SVG-20010904/DTD/svg10.dtd">
<svg version="1.0" xmlns="http://www.w3.org/2000/svg"
 width="512.000000pt" height="512.000000pt" viewBox="0 0 512.000000 512.000000"
 preserveAspectRatio="xMidYMid meet">
<metadata>
Created by potrace 1.16, written by Peter Selinger 2001-2019
</metadata>
<g transform="translate(0.000000,512.000000) scale(0.100000,-0.100000)"
fill="#000000" stroke="none">
<path d="M1728 5068 c5 -95 9 -104 11 -25 0 42 -2 77 -6 77 -5 0 -7 -24 -5
-52z"/>
<path d="M2551 5014 c0 -83 3 -103 10 -84 10 24 5 177 -6 188 -3 3 -5 -44 -4
-104z"/>
<path d="M2580 5014 c0 -67 4 -103 10 -99 6 3 10 50 10 106 0 59 -4 99 -10 99
-6 0 -10 -42 -10 -106z"/>
<path d="M3383 5045 c0 -44 2 -61 4 -37 2 23 2 59 0 80 -2 20 -4 1 -4 -43z"/>
<path d="M1727 4944 c-8 -8 -5 -4654 3 -4824 l6 -125 2 117 c1 64 6 119 11
122 5 3 136 7 292 8 156 1 259 5 229 8 -30 4 -160 6 -287 4 l-233 -2 0 715 0
715 396 -6 c217 -4 401 -3 407 1 7 5 -172 10 -398 13 l-410 5 1 25 c1 14 2
197 3 408 l1 382 118 0 117 -1 62 -77 c114 -140 215 -248 280 -298 71 -56 109
-90 168 -151 81 -83 93 -83 178 1 37 38 88 76 114 88 53 23 118 80 139 120 8
15 24 38 36 52 39 42 58 66 58 73 0 8 63 86 119 146 l44 47 86 2 86 2 -83 3
c-71 3 -83 6 -78 19 3 9 6 22 6 30 0 10 13 14 47 14 60 0 50 10 -11 12 -43 0
-50 4 -89 52 -177 211 -198 239 -187 246 8 5 9 10 2 14 -6 3 -12 0 -15 -6 -3
-8 -18 3 -41 28 -20 23 -67 65 -104 93 -38 28 -97 85 -132 127 -80 94 -88 94
-191 -8 -41 -40 -103 -93 -138 -117 -35 -24 -77 -63 -95 -86 -39 -53 -90 -119
-189 -245 l-77 -100 -115 0 -115 0 0 380 0 380 388 -2 387 -3 6 -60 6 -60 1
57 c1 31 5 63 8 72 5 14 -36 16 -397 18 -329 3 -403 5 -401 16 3 18 1 1456 -2
1510 -4 45 -8 56 -19 46z m953 -1841 c54 -54 133 -132 177 -173 113 -107 329
-369 317 -385 -5 -7 -43 -51 -85 -98 -42 -47 -104 -123 -138 -169 -34 -46 -73
-97 -86 -115 -14 -17 -50 -43 -81 -58 -35 -16 -83 -53 -126 -96 -38 -38 -72
-69 -75 -69 -4 0 -50 42 -103 93 -53 50 -139 134 -192 185 -107 102 -298 315
-298 331 0 6 29 46 65 88 35 43 84 106 107 140 80 115 146 188 204 228 33 22
93 75 134 117 41 43 77 78 79 78 2 0 48 -44 101 -97z m-712 -550 l-3 -28 -99
-3 c-55 -1 -105 -1 -112 2 -7 2 -9 15 -7 30 l5 26 110 0 109 0 -3 -27z"/>
<path d="M2503 2911 c-47 -34 -58 -62 -50 -123 18 -135 175 -178 246 -68 14
22 11 20 -22 -7 -57 -49 -105 -55 -152 -18 -18 13 -16 13 19 -1 49 -19 87 -11
127 28 32 32 33 48 17 152 -5 28 -50 58 -99 63 -38 4 -50 0 -86 -26z m137 -7
c5 -5 -13 -7 -41 -6 -36 3 -59 -2 -87 -17 l-37 -22 34 32 c30 28 39 31 78 26
25 -2 49 -9 53 -13z m8 -44 c30 -28 30 -95 0 -127 -27 -29 -80 -30 -119 -2
-24 17 -29 27 -29 64 0 58 27 85 85 85 28 0 48 -7 63 -20z"/>
<path d="M2509 2507 c-37 -19 -47 -31 -61 -73 -20 -57 -22 -113 -7 -167 9 -34
14 -38 34 -33 12 3 36 1 53 -5 22 -7 46 -6 95 5 57 13 72 14 112 2 25 -8 52
-20 60 -26 22 -18 58 -8 75 22 14 27 14 28 -35 77 -56 57 -71 60 -29 6 27 -36
27 -38 9 -51 -12 -9 -14 -14 -5 -14 7 0 11 -2 9 -4 -8 -8 -103 16 -116 30 -11
11 -20 11 -54 -2 -46 -16 -146 -19 -168 -5 -19 13 -25 109 -9 141 23 44 77 72
126 67 54 -6 87 -35 118 -106 26 -58 30 -81 14 -81 -5 0 -10 -4 -10 -10 0 -17
29 -11 39 8 13 24 -5 95 -35 142 -64 101 -127 123 -215 77z"/>
<path d="M2374 2266 c-3 -8 -4 -29 -2 -48 3 -30 6 -33 37 -33 19 0 36 6 39 13
2 7 -6 12 -22 12 -29 0 -43 17 -27 33 6 6 11 17 11 24 0 17 -29 17 -36 -1z"/>
<path d="M2465 2200 c4 -6 11 -8 16 -5 14 9 11 15 -7 15 -8 0 -12 -5 -9 -10z"/>
<path d="M3367 4918 c-3 -18 -5 -374 -4 -791 l2 -757 -386 0 -385 0 4 -62 c5
-86 10 -96 11 -20 l1 62 375 0 375 0 0 -385 c0 -212 1 -583 1 -826 l0 -440
-268 -2 c-147 0 -318 -2 -378 -4 l-111 -4 2 -47 c1 -26 -2 -50 -8 -53 -20 -12
15 -49 47 -49 16 -1 48 -7 70 -15 21 -8 41 -12 44 -9 3 3 -4 7 -14 10 -11 3
-42 13 -70 22 l-50 17 0 55 0 55 368 3 367 2 2 -682 c2 -752 2 -751 10 -764 3
-5 7 -58 7 -119 1 -60 4 -111 7 -114 2 -2 4 1110 4 2472 0 1433 -4 2477 -9
2477 -5 0 -11 -15 -14 -32z"/>
<path d="M820 4889 c-83 -12 -162 -43 -238 -92 -97 -63 -135 -99 -191 -182
-57 -85 -89 -174 -98 -265 -8 -89 11 -67 26 30 12 78 69 216 79 191 3 -8 0
-17 -6 -19 -7 -2 -12 -12 -12 -23 0 -10 -4 -19 -8 -19 -8 0 -26 -64 -36 -130
-6 -39 0 -23 25 60 20 68 54 138 83 171 14 16 26 33 26 38 0 5 7 11 15 15 8 3
15 11 15 17 0 13 -30 -17 -69 -69 -13 -18 -26 -30 -29 -28 -8 8 36 71 72 104
35 32 53 41 41 22 -3 -5 -1 -10 5 -10 6 0 13 7 16 15 4 8 12 15 20 15 8 0 14
5 14 11 0 6 -7 8 -16 5 -9 -3 -12 -2 -9 5 4 5 15 7 26 4 11 -4 30 2 47 13 77
55 217 92 324 86 67 -4 236 -49 248 -66 7 -9 83 -42 93 -40 4 1 6 -1 5 -5 -5
-13 42 -54 53 -48 5 4 8 1 7 -7 -2 -7 3 -12 10 -10 8 1 11 -2 7 -7 -7 -12 30
-52 40 -43 3 4 3 -1 -1 -11 -3 -9 -1 -17 4 -17 6 0 16 -16 23 -35 7 -19 16
-35 19 -35 4 0 13 -19 20 -42 8 -24 17 -45 21 -48 8 -6 21 -79 24 -145 2 -27
7 -59 11 -70 13 -32 -23 -175 -65 -260 -37 -73 -140 -205 -161 -205 -5 0 1 11
13 25 64 71 75 84 70 88 -2 3 -27 -20 -56 -50 -45 -48 -149 -123 -181 -130 -6
-1 -38 -12 -71 -24 -71 -26 -209 -30 -295 -10 -74 18 -157 61 -224 116 -30 24
-61 42 -68 40 -17 -7 -80 75 -115 147 -31 63 -65 192 -52 196 17 7 9 21 -11
19 -24 -2 -25 -19 -4 -101 68 -263 300 -453 579 -473 289 -20 563 182 644 477
26 91 28 247 6 335 -44 174 -175 335 -335 414 -124 61 -247 80 -380 60z m267
-35 c-3 -3 -12 -4 -19 -1 -8 3 -5 6 6 6 11 1 17 -2 13 -5z m-417 -34 c-8 -5
-19 -10 -25 -10 -5 0 -3 5 5 10 8 5 20 10 25 10 6 0 3 -5 -5 -10z m-154 -1035
c9 -8 11 -15 6 -15 -5 0 -15 7 -22 15 -7 8 -9 15 -6 15 4 0 14 -7 22 -15z m44
-35 c8 -5 12 -11 10 -14 -3 -2 -14 2 -24 10 -22 15 -10 19 14 4z m615 -69 c-6
-5 -21 -11 -35 -15 -21 -5 -20 -3 5 9 35 17 42 18 30 6z m-65 -25 c0 -2 -7 -7
-16 -10 -8 -3 -12 -2 -9 4 6 10 25 14 25 6z"/>
<path d="M2673 4893 c15 -2 37 -2 50 0 12 2 0 4 -28 4 -27 0 -38 -2 -22 -4z"/>
<path d="M4100 4883 c-110 -18 -228 -83 -319 -174 -100 -101 -152 -196 -176
-324 -14 -70 -14 -79 2 -105 9 -16 27 -31 40 -35 34 -8 29 -28 -6 -23 -40 6
-50 -15 -41 -82 16 -118 95 -265 190 -358 139 -134 389 -197 585 -147 140 35
298 147 371 261 43 67 79 157 99 249 10 41 21 78 26 81 14 8 10 44 -5 44 -9 0
-17 25 -26 76 -21 135 -52 206 -133 311 -81 105 -201 184 -332 218 -55 14
-211 19 -275 8z m310 -66 c92 -35 131 -54 160 -76 44 -35 15 -32 -45 4 -32 19
-68 37 -79 40 -12 4 -30 10 -41 15 -54 23 -95 30 -171 30 -94 0 -171 -14 -228
-41 -22 -11 -44 -19 -49 -19 -13 0 -102 -69 -151 -118 -63 -61 -146 -246 -146
-322 0 -15 -7 -34 -16 -41 -15 -12 -16 -10 -11 26 6 48 36 156 47 170 7 10 23
61 25 80 0 6 5 12 10 14 18 7 36 41 29 53 -5 8 -2 9 9 5 16 -6 22 3 18 26 -1
5 3 6 8 3 5 -4 15 0 23 6 138 132 260 180 438 174 81 -3 120 -10 170 -29z m-4
-58 c179 -66 304 -216 341 -409 22 -117 21 -116 35 -102 17 17 68 15 68 -3 0
-22 -36 -38 -59 -25 -28 14 -31 13 -31 -16 0 -46 -31 -147 -63 -207 -41 -78
-148 -185 -219 -219 -125 -61 -295 -77 -420 -38 -315 97 -463 473 -305 774 64
124 203 230 340 262 87 19 236 12 313 -17z m264 -118 c0 -7 4 -10 9 -6 15 9
25 -15 12 -28 -9 -9 -11 -8 -5 6 3 10 3 17 -2 15 -15 -4 -93 73 -88 87 6 15
74 -54 74 -74z m109 -185 c0 -14 -2 -16 -6 -6 -3 8 -10 21 -16 28 -7 9 -6 11
7 6 9 -3 16 -16 15 -28z m30 -109 c7 -32 10 -61 7 -65 -14 -13 -24 16 -29 82
-6 78 3 71 22 -17z m9 -198 c-13 -69 -44 -145 -58 -141 -7 1 -10 -3 -7 -10 2
-7 -5 -26 -16 -41 -35 -51 -29 -20 12 60 23 43 41 85 41 92 0 23 23 91 30 91
4 0 3 -23 -2 -51z m-1185 -29 c4 -41 3 -56 -3 -40 -8 25 -14 117 -6 109 2 -2
6 -33 9 -69z m27 48 c1 -33 23 -113 36 -129 21 -26 28 -42 16 -35 -7 4 -12 3
-12 -3 0 -5 3 -11 8 -13 4 -1 18 -25 31 -51 52 -103 240 -235 356 -251 167
-23 246 -14 360 40 101 47 235 154 235 187 0 4 3 7 8 7 4 0 8 -12 8 -28 1 -15
-1 -21 -3 -14 -3 8 -33 -14 -79 -57 -80 -77 -160 -123 -257 -148 -78 -20 -275
-13 -322 11 -17 9 -36 16 -43 16 -22 0 -144 84 -194 132 -49 49 -118 149 -118
173 0 7 -4 16 -9 19 -7 5 -13 29 -36 149 -2 9 1 17 6 17 5 0 9 -10 9 -22z
m210 -418 c18 -15 19 -18 5 -11 -29 14 -105 81 -105 92 0 6 17 -6 38 -25 20
-19 48 -45 62 -56z"/>
<path d="M2521 4847 c-6 -8 -30 -17 -54 -21 -72 -11 -160 -45 -217 -82 -75
-49 -110 -67 -110 -54 0 5 -5 10 -11 10 -9 0 -4 -36 6 -48 1 -2 31 17 66 41
108 75 200 111 308 119 34 3 51 22 34 39 -6 6 -14 5 -22 -4z"/>
<path d="M2599 4852 c-1 -7 -2 -17 -3 -23 -1 -6 37 -22 84 -36 135 -38 240
-94 287 -153 11 -13 14 -13 23 0 12 19 13 33 1 26 -5 -3 -32 10 -60 29 -75 52
-109 70 -181 94 -80 27 -110 41 -132 60 -12 9 -18 10 -19 3z"/>
<path d="M2748 4833 c12 -2 32 -2 45 0 12 2 2 4 -23 4 -25 0 -35 -2 -22 -4z"/>
<path d="M2848 4833 c7 -3 16 -2 19 1 4 3 -2 6 -13 5 -11 0 -14 -3 -6 -6z"/>
<path d="M2888 4833 c6 -2 18 -2 25 0 6 3 1 5 -13 5 -14 0 -19 -2 -12 -5z"/>
<path d="M855 4799 c-75 -7 -122 -22 -205 -65 -72 -38 -170 -121 -170 -144 1
-10 10 -4 28 15 15 17 38 39 52 50 23 18 14 7 -57 -72 -6 -7 -18 -11 -25 -8
-24 9 -98 -155 -98 -216 0 -16 -4 -29 -9 -29 -16 0 -18 -106 -2 -120 12 -11
10 -15 -10 -23 -19 -8 -20 -11 -8 -14 10 -2 22 -23 29 -51 17 -68 62 -162 77
-162 7 0 12 -3 12 -7 -3 -20 2 -34 10 -29 12 8 34 -21 26 -34 -3 -5 1 -17 9
-26 9 -8 16 -12 16 -7 0 5 -5 14 -12 21 -9 9 -9 12 -1 12 7 0 14 -9 18 -19 3
-11 13 -22 21 -25 8 -3 12 -10 9 -16 -3 -5 0 -8 7 -5 7 3 18 -5 23 -17 14 -30
118 -85 197 -103 91 -20 169 -19 264 6 77 20 189 76 189 94 0 20 18 36 32 31
10 -4 13 -2 10 8 -4 10 -1 13 7 10 8 -3 24 9 37 28 13 18 26 35 30 38 14 10
58 98 52 104 -4 3 -1 6 5 6 7 0 12 8 12 18 0 10 5 23 11 29 14 14 19 161 8
238 -5 33 -10 77 -10 99 -1 27 -4 34 -11 25 -7 -10 -7 -7 -3 8 10 35 -50 138
-120 209 -59 59 -130 101 -213 124 -59 16 -172 26 -237 19z m211 -55 c66 -19
157 -74 214 -130 160 -156 196 -413 88 -616 -43 -81 -142 -172 -237 -217 -71
-33 -84 -36 -188 -39 -124 -5 -205 14 -285 64 -233 147 -319 426 -203 661 115
232 365 346 611 277z m89 -4 c3 -6 -1 -7 -9 -4 -18 7 -21 14 -7 14 6 0 13 -4
16 -10z m60 -29 c43 -28 81 -61 71 -61 -4 0 -25 13 -45 28 -20 16 -45 34 -56
40 -11 6 -15 12 -10 12 6 0 24 -9 40 -19z m100 -91 c16 -17 16 -20 3 -15 -9 4
-19 13 -22 21 -7 19 -2 18 19 -6z m35 -40 c0 -5 -2 -10 -4 -10 -3 0 -8 5 -11
10 -3 6 -1 10 4 10 6 0 11 -4 11 -10z m-729 -777 c13 -16 12 -17 -3 -4 -10 7
-18 15 -18 17 0 8 8 3 21 -13z m184 -73 c13 -5 14 -9 5 -9 -8 0 -24 4 -35 9
-13 5 -14 9 -5 9 8 0 24 -4 35 -9z m163 -17 c-27 -2 -69 -2 -95 0 -27 2 -5 3
47 3 52 0 74 -1 48 -3z"/>
<path d="M2454 4779 c-82 -17 -165 -54 -238 -104 -22 -15 -50 -31 -63 -36 -27
-10 -28 -18 -9 -45 14 -18 16 -18 48 15 77 79 212 141 308 141 43 0 50 3 50
19 0 11 -3 22 -7 24 -5 2 -45 -4 -89 -14z"/>
<path d="M2570 4778 c0 -23 4 -25 51 -27 57 -2 156 -32 209 -64 144 -86 260
-271 260 -412 0 -48 11 -63 30 -41 23 28 -15 165 -72 256 -15 25 -35 59 -44
75 -43 78 -203 178 -334 208 -36 8 -73 18 -82 22 -14 6 -18 2 -18 -17z"/>
<path d="M3026 4628 c-12 -29 -12 -36 5 -63 67 -112 89 -158 104 -220 10 -39
19 -76 21 -82 2 -7 14 -13 26 -13 20 1 21 2 7 13 -9 7 -28 52 -44 100 -15 48
-46 116 -67 150 -36 54 -40 66 -34 104 7 51 1 55 -18 11z"/>
<path d="M2070 4625 c6 -7 -5 -41 -29 -91 -22 -44 -51 -117 -66 -162 -16 -49
-33 -82 -41 -82 -17 0 -33 -28 -27 -50 3 -10 16 -23 29 -29 17 -7 24 -19 24
-38 0 -48 36 -158 79 -240 36 -70 41 -86 41 -148 0 -85 18 -77 21 10 2 50 -3
68 -28 110 -59 102 -92 193 -94 266 -2 42 -5 49 -31 60 -32 13 -38 39 -8 39
11 0 22 6 24 13 34 114 57 174 93 246 48 97 51 110 24 108 -13 -1 -17 -5 -11
-12z"/>
<path d="M2067 4493 c-44 -94 -90 -237 -79 -248 3 -3 13 -5 23 -5 13 0 19 12
24 53 10 71 39 155 75 216 26 45 31 81 11 81 -4 0 -28 -44 -54 -97z"/>
<path d="M246 4293 c-8 -9 -6 -94 3 -117 12 -30 23 -3 26 60 2 36 -1 54 -10
58 -7 2 -16 2 -19 -1z"/>
<path d="M3567 4284 c-9 -9 -9 -69 0 -77 14 -14 33 16 27 42 -8 31 -18 44 -27
35z"/>
<path d="M3173 4223 c-18 -3 -23 -11 -23 -36 0 -69 -59 -232 -105 -293 -28
-37 -30 -44 -12 -44 25 0 104 180 128 293 7 31 15 57 20 57 4 0 9 7 13 15 3 8
4 14 3 14 -1 -1 -12 -4 -24 -6z"/>
<path d="M298 4213 c7 -3 16 -2 19 1 4 3 -2 6 -13 5 -11 0 -14 -3 -6 -6z"/>
<path d="M2000 4177 c0 -47 26 -130 67 -212 62 -126 187 -233 330 -284 48 -17
96 -36 105 -41 24 -13 28 -13 28 4 0 24 20 29 34 10 13 -16 18 -16 107 15 246
85 385 218 433 416 23 93 24 119 4 123 -15 3 -18 -4 -18 -35 0 -60 -27 -150
-67 -223 -61 -113 -199 -212 -348 -250 -94 -24 -151 -25 -230 -5 -142 37 -274
136 -342 255 -33 58 -73 185 -73 232 0 18 -5 28 -15 28 -10 0 -15 -10 -15 -33z"/>
<path d="M1502 4175 c0 -16 2 -22 5 -12 2 9 2 23 0 30 -3 6 -5 -1 -5 -18z"/>
<path d="M4891 4184 c0 -11 3 -14 6 -6 3 7 2 16 -1 19 -3 4 -6 -2 -5 -13z"/>
<path d="M1480 4079 c0 -5 5 -7 10 -4 6 3 10 8 10 11 0 2 -4 4 -10 4 -5 0 -10
-5 -10 -11z"/>
<path d="M426 3897 c3 -10 9 -15 12 -12 3 3 0 11 -7 18 -10 9 -11 8 -5 -6z"/>
<path d="M475 3900 c3 -5 8 -10 11 -10 2 0 4 5 4 10 0 6 -5 10 -11 10 -5 0 -7
-4 -4 -10z"/>
<path d="M450 3871 c0 -7 9 -21 20 -33 11 -12 20 -18 20 -14 0 4 -9 19 -20 33
-11 14 -20 20 -20 14z"/>
<path d="M2980 3815 c-27 -29 -21 -31 21 -10 16 9 27 20 24 25 -10 15 -20 12
-45 -15z"/>
<path d="M1255 3820 c-3 -5 -1 -10 4 -10 6 0 11 5 11 10 0 6 -2 10 -4 10 -3 0
-8 -4 -11 -10z"/>
<path d="M2138 3778 c-3 -29 -1 -57 4 -62 5 -6 8 -2 8 10 0 10 5 26 10 34 8
12 15 10 42 -17 43 -40 145 -90 258 -126 8 -2 26 -28 40 -56 14 -28 28 -51 33
-51 11 0 9 9 -15 61 -20 42 -29 50 -73 65 -114 38 -212 93 -258 144 l-45 50
-4 -52z"/>
<path d="M2870 3741 c-30 -20 -82 -49 -115 -63 -33 -15 -76 -33 -97 -42 -20
-9 -42 -16 -50 -16 -10 0 -13 -23 -15 -93 l-2 -93 369 1 c204 0 370 3 370 8 0
4 -162 7 -360 7 l-360 0 0 73 0 74 99 42 c55 24 120 55 144 71 24 15 54 31 66
35 11 3 21 13 21 21 0 20 -7 17 -70 -25z"/>
<path d="M2540 3606 c0 -22 11 -46 21 -46 15 0 10 48 -6 54 -9 3 -15 0 -15 -8z"/>
<path d="M2148 3453 c-208 -2 -378 -7 -378 -11 0 -4 173 -7 385 -7 301 0 385
3 385 13 0 6 -3 11 -7 10 -5 -2 -178 -4 -385 -5z"/>
<path d="M4100 3165 c-85 -19 -192 -73 -259 -130 -94 -80 -172 -189 -155 -217
4 -7 3 -8 -4 -4 -7 4 -12 5 -12 3 0 -2 -9 -41 -20 -86 -12 -46 -18 -90 -15
-100 3 -10 -2 -32 -11 -50 -9 -18 -14 -34 -12 -36 2 -2 31 -1 66 2 59 6 62 7
62 32 0 41 27 136 57 199 36 78 138 177 228 222 l70 35 140 0 c160 0 192 -10
300 -92 102 -78 162 -176 190 -308 9 -44 21 -83 28 -87 7 -4 31 -8 55 -8 l42
0 0 66 c0 78 -33 184 -84 270 -76 128 -202 225 -361 279 -69 23 -224 28 -305
10z m255 -40 c85 -18 151 -45 215 -89 60 -40 130 -106 141 -131 5 -11 18 -34
28 -50 37 -61 82 -203 79 -247 -2 -30 -8 -43 -18 -43 -10 0 -21 27 -36 85 -24
91 -77 194 -134 257 -109 122 -310 190 -484 165 -76 -11 -216 -65 -216 -83 0
-5 -6 -9 -12 -9 -22 0 -122 -114 -155 -177 -18 -33 -40 -91 -48 -129 -23 -99
-24 -101 -45 -107 -26 -7 -25 0 5 119 25 95 80 224 97 224 4 0 8 5 8 11 0 14
76 90 115 114 66 42 103 60 175 81 89 27 182 30 285 9z"/>
<path d="M783 3155 c-169 -47 -333 -182 -411 -338 -23 -45 -46 -103 -52 -130
-9 -44 -4 -127 8 -127 3 0 29 8 59 18 40 13 53 22 53 37 1 75 67 203 144 281
100 100 207 144 351 144 223 0 397 -118 477 -325 19 -50 23 -79 23 -175 0
-115 0 -115 -42 -201 -69 -142 -194 -246 -333 -278 -58 -13 -182 -13 -240 0
-81 19 -167 67 -232 132 -74 73 -135 182 -144 254 -10 91 -15 113 -26 113 -6
0 -8 -10 -4 -25 7 -29 0 -32 -26 -8 -15 13 -23 14 -43 5 -22 -10 -25 -18 -25
-62 0 -66 40 -178 91 -257 226 -347 700 -390 977 -88 69 76 107 141 133 233
32 113 22 160 -30 133 -14 -8 -22 -8 -27 0 -9 15 23 39 52 39 12 0 25 7 28 16
8 20 -11 54 -29 54 -18 0 -19 -12 -3 -28 10 -10 10 -15 -2 -22 -28 -18 -42
-11 -39 18 2 15 0 32 -3 37 -3 6 -6 31 -6 55 1 61 -46 158 -111 232 -128 142
-332 213 -517 178 -137 -26 -243 -94 -329 -210 -36 -50 -95 -183 -95 -216 0
-22 -46 -61 -58 -50 -13 13 21 134 58 211 55 111 164 222 275 277 95 48 288
63 408 32 69 -17 156 -63 202 -106 17 -15 36 -28 43 -28 6 0 12 -5 12 -11 0
-6 18 -32 40 -58 22 -26 40 -53 40 -59 0 -7 3 -12 8 -12 7 0 46 -77 47 -95 0
-5 3 -14 7 -20 3 -5 9 -24 12 -42 7 -29 5 -31 -15 -26 -15 4 -20 3 -15 -5 4
-7 12 -12 18 -12 6 0 17 -8 24 -17 23 -33 29 13 10 91 -44 189 -191 349 -392
426 -76 30 -270 38 -351 15z m-395 -667 c6 -13 20 -50 31 -83 25 -78 68 -165
81 -165 6 0 14 -8 17 -17 6 -18 15 -27 87 -91 55 -50 166 -102 220 -105 25 -1
46 -4 46 -7 0 -12 167 6 238 26 81 23 167 76 221 137 9 10 27 31 39 45 34 39
80 138 88 189 3 24 9 42 12 39 3 -3 11 -1 19 5 10 9 13 4 13 -30 0 -45 -20
-121 -32 -121 -5 0 -8 -6 -8 -13 0 -32 -39 -87 -117 -164 -47 -46 -90 -83 -98
-83 -7 0 -15 -4 -17 -8 -5 -12 -116 -59 -171 -73 -80 -20 -239 -7 -322 26 -39
16 -85 38 -104 51 -19 13 -39 20 -44 17 -6 -3 -7 -1 -4 4 4 6 -4 18 -18 27
-14 9 -39 32 -56 51 -18 19 -36 32 -42 28 -6 -3 -7 -1 -3 5 4 6 -12 42 -34 79
-23 38 -44 80 -47 95 -3 15 -11 32 -19 39 -7 6 -10 17 -7 25 3 8 0 14 -6 14
-6 0 -11 17 -11 40 0 32 4 40 18 40 10 0 24 -10 30 -22z"/>
<path d="M4885 2608 c3 -18 9 -54 12 -80 4 -40 2 -48 -11 -48 -20 0 -21 -14
-2 -29 11 -10 17 -7 30 11 17 24 22 83 7 92 -4 3 -11 24 -15 46 -3 22 -11 40
-17 40 -7 0 -9 -11 -4 -32z"/>
<path d="M3576 2614 c-3 -9 -3 -20 0 -26 4 -6 1 -27 -6 -49 -10 -31 -10 -44 0
-68 22 -55 33 -36 25 48 -5 53 -3 81 4 85 16 10 14 26 -3 26 -8 0 -17 -7 -20
-16z"/>
<path d="M236 2594 c-22 -22 -20 -38 10 -90 18 -31 30 -42 37 -35 7 7 7 14 0
23 -17 22 -26 58 -13 58 6 0 8 -5 4 -11 -4 -7 -2 -10 5 -8 7 3 12 8 12 12 -1
4 -1 21 -1 37 0 23 -5 30 -19 30 -11 0 -27 -7 -35 -16z"/>
<path d="M1575 2601 c-3 -5 2 -11 10 -15 22 -8 18 -29 -10 -56 -14 -13 -25
-28 -25 -34 0 -5 18 8 40 29 22 21 40 44 40 50 0 15 -48 37 -55 26z"/>
<path d="M3715 2529 c-11 -4 -35 -8 -52 -8 -32 -1 -33 -2 -33 -45 0 -56 33
-164 73 -241 46 -88 156 -194 247 -239 102 -50 168 -66 279 -66 148 0 241 28
361 110 154 105 270 298 254 421 -6 47 -6 47 -52 53 -25 3 -46 5 -48 4 -1 -2
-10 -34 -20 -73 -10 -38 -23 -73 -28 -76 -5 -4 -6 -14 -3 -24 4 -9 3 -13 -3
-10 -5 3 -17 -9 -26 -27 -28 -55 -91 -124 -144 -158 -28 -18 -50 -37 -50 -42
0 -6 -7 -7 -16 -4 -8 3 -12 2 -9 -4 6 -10 -6 -14 -39 -10 -10 1 -15 -3 -12 -8
4 -6 -3 -8 -16 -4 -11 3 -19 1 -16 -4 4 -5 -13 -7 -38 -5 -34 2 -43 0 -39 -10
4 -10 -3 -14 -25 -13 -16 1 -51 2 -77 3 -38 2 -44 4 -28 11 14 7 8 8 -19 3
-30 -4 -37 -3 -31 7 5 9 4 11 -4 6 -15 -10 -98 22 -105 40 -3 8 -11 14 -17 14
-6 0 -44 33 -84 73 -82 83 -129 167 -148 268 -11 60 -14 65 -32 58z m-5 -81
c7 -29 16 -57 20 -63 3 -5 13 -26 20 -45 19 -49 45 -85 115 -158 124 -132 320
-190 490 -147 185 47 328 183 395 373 22 62 32 78 50 80 21 3 22 1 15 -30 -4
-18 -10 -49 -14 -68 -21 -98 -96 -214 -187 -287 -159 -129 -316 -169 -507
-128 -167 35 -315 155 -394 318 -39 80 -58 142 -48 157 4 7 1 16 -6 21 -12 8
-12 11 1 19 28 18 38 10 50 -42z m623 -395 c-7 -2 -19 -2 -25 0 -7 3 -2 5 12
5 14 0 19 -2 13 -5z"/>
<path d="M4891 2174 c0 -11 3 -14 6 -6 3 7 2 16 -1 19 -3 4 -6 -2 -5 -13z"/>
<path d="M4893 2045 c0 -27 2 -38 4 -22 2 15 2 37 0 50 -2 12 -4 0 -4 -28z"/>
<path d="M2611 1900 c-2 -3 -4 -36 -5 -75 l-2 -70 206 3 c339 4 371 8 83 10
l-272 2 -4 68 c-2 37 -5 65 -6 62z"/>
<path d="M2180 1770 l-355 -5 360 -5 c198 -3 362 -4 364 -2 23 13 -65 16 -369
12z"/>
<path d="M3203 1763 c9 -2 25 -2 35 0 9 3 1 5 -18 5 -19 0 -27 -2 -17 -5z"/>
<path d="M3278 1763 c12 -2 30 -2 40 0 9 3 -1 5 -23 4 -22 0 -30 -2 -17 -4z"/>
<path d="M2527 1567 c-2 -7 -29 -19 -58 -26 -63 -16 -119 -40 -190 -81 -50
-30 -69 -31 -69 -4 0 8 -4 14 -9 14 -7 0 -5 -36 5 -68 2 -8 20 0 51 24 64 49
157 91 237 106 69 13 75 18 52 37 -10 9 -15 8 -19 -2z"/>
<path d="M789 1519 c-97 -22 -209 -83 -290 -156 -85 -76 -179 -255 -179 -339
0 -22 4 -24 54 -24 42 0 55 4 60 18 3 9 10 24 15 32 5 8 22 41 37 74 16 32 57
89 92 127 117 126 274 177 440 143 98 -20 160 -53 243 -131 201 -190 214 -484
29 -686 -130 -142 -315 -199 -481 -147 -179 55 -327 211 -370 390 -7 30 -14
56 -15 58 -1 2 -16 5 -34 7 -18 2 -41 7 -51 10 -31 10 -26 -95 10 -193 97
-266 315 -421 598 -422 146 0 280 54 397 161 125 114 210 307 192 433 l-7 46
-45 0 c-42 0 -59 15 -29 26 10 4 11 11 5 22 -4 10 -18 49 -29 87 -12 39 -34
93 -50 120 -31 54 -117 155 -132 155 -5 0 -26 11 -47 25 -104 68 -287 100
-402 70 -57 -15 -170 -66 -170 -77 0 -5 -6 -8 -12 -8 -37 -1 -167 -178 -194
-265 -17 -52 -38 -71 -62 -56 -12 7 21 108 64 192 23 47 149 189 167 189 4 0
25 11 47 25 22 14 74 36 116 50 221 72 475 -10 626 -202 9 -12 14 -24 11 -27
-4 -3 -1 -6 6 -6 6 0 24 -28 40 -62 47 -104 53 -127 54 -190 1 -44 24 -52 29
-10 9 72 -46 223 -112 312 -78 105 -223 202 -342 230 -51 11 -228 11 -279 -1z
m711 -681 c0 -63 -26 -155 -61 -212 -10 -16 -15 -34 -12 -40 3 -6 2 -8 -2 -3
-5 4 -16 -3 -24 -16 -71 -107 -194 -196 -326 -237 -22 -7 -50 -17 -62 -23 -13
-6 -51 -7 -91 -4 -125 12 -253 63 -325 128 -18 16 -37 27 -44 25 -7 -3 -12 -1
-10 4 4 14 -64 81 -75 74 -6 -4 -8 -2 -4 4 3 6 2 13 -4 17 -6 4 -8 11 -5 16 4
5 0 9 -8 9 -7 0 -19 10 -25 23 -29 59 -50 116 -44 122 4 3 1 9 -5 13 -6 4 -15
35 -20 70 -10 61 -9 62 13 62 19 0 25 -9 39 -57 51 -176 159 -309 311 -385
l87 -43 126 1 c107 0 134 3 181 23 168 69 308 232 326 378 9 78 23 113 45 113
17 0 19 -7 19 -62z"/>
<path d="M2597 1508 c-3 -12 -4 -25 -2 -28 2 -4 34 -10 71 -13 126 -12 283
-113 363 -234 39 -59 70 -142 79 -211 l7 -54 25 20 c18 15 22 23 14 33 -6 8
-21 41 -34 74 -33 86 -120 214 -190 278 -65 60 -156 110 -235 128 -27 6 -58
15 -67 20 -24 12 -25 12 -31 -13z"/>
<path d="M4070 1511 c-90 -24 -159 -64 -237 -135 -77 -70 -124 -140 -159 -234
-23 -58 -26 -83 -26 -197 0 -120 2 -138 30 -218 34 -99 62 -144 146 -234 32
-35 53 -63 46 -63 -15 0 73 -60 115 -79 172 -77 392 -65 551 30 114 68 224
198 264 314 76 215 46 428 -84 606 -71 97 -199 182 -321 214 -80 21 -241 19
-325 -4z m-73 -57 c-3 -3 -12 -4 -19 -1 -8 3 -5 6 6 6 11 1 17 -2 13 -5z m428
-34 c366 -137 466 -593 191 -865 -174 -172 -406 -213 -613 -109 -135 68 -240
198 -278 344 -21 81 -15 228 13 313 32 98 120 208 219 273 92 60 151 74 303
69 79 -2 120 -8 165 -25z m-465 16 c0 -2 -7 -7 -16 -10 -8 -3 -12 -2 -9 4 6
10 25 14 25 6z m611 -73 c13 -16 12 -17 -3 -4 -17 13 -22 21 -14 21 2 0 10 -8
17 -17z m-878 -228 c-3 -9 -8 -14 -10 -11 -3 3 -2 9 2 15 9 16 15 13 8 -4z
m-6 -272 c-3 -10 -5 -4 -5 12 0 17 2 24 5 18 2 -7 2 -21 0 -30z m993 -276 c0
-2 -10 -12 -22 -23 l-23 -19 19 23 c18 21 26 27 26 19z m-70 -71 c0 -2 -8 -10
-17 -17 -16 -13 -17 -12 -4 4 13 16 21 21 21 13z m-612 -91 c29 -14 58 -25 66
-25 8 0 18 -5 22 -11 11 -18 -87 17 -128 46 -32 22 -19 19 40 -10z m487 -1
c-59 -44 -255 -75 -345 -55 -40 9 -37 10 30 5 92 -6 195 9 269 40 68 29 71 29
46 10z m-302 -101 c-13 -2 -33 -2 -45 0 -13 2 -3 4 22 4 25 0 35 -2 23 -4z
m140 0 c-7 -2 -21 -2 -30 0 -10 3 -4 5 12 5 17 0 24 -2 18 -5z"/>
<path d="M2470 1501 c-36 -10 -90 -30 -120 -45 -49 -25 -71 -39 -143 -97 -13
-11 -18 -22 -13 -34 6 -16 11 -14 44 17 76 72 170 116 270 125 57 5 62 8 62
29 0 29 -10 29 -100 5z"/>
<path d="M2770 1506 c0 -2 9 -6 20 -9 11 -3 18 -1 14 4 -5 9 -34 13 -34 5z"/>
<path d="M2870 1450 c26 -21 40 -25 40 -12 0 15 -16 27 -40 29 l-25 3 25 -20z"/>
<path d="M2950 1445 c0 -8 4 -15 10 -15 5 0 7 7 4 15 -4 8 -8 15 -10 15 -2 0
-4 -7 -4 -15z"/>
<path d="M2144 1412 c7 -27 -13 -79 -45 -118 -14 -17 -119 -232 -119 -243 0
-6 -10 -17 -22 -25 -12 -9 -20 -17 -17 -20 8 -8 49 14 49 26 1 42 117 265 167
319 20 21 22 30 14 51 -15 40 -35 47 -27 10z"/>
<path d="M2940 1401 c13 -25 27 -34 34 -22 10 16 -5 41 -25 41 -16 0 -18 -3
-9 -19z"/>
<path d="M3008 1372 c-14 -27 -12 -32 64 -147 43 -66 78 -117 78 -113 0 8 -63
119 -101 180 -22 34 -29 55 -26 77 6 38 2 39 -15 3z"/>
<path d="M2092 1202 c-34 -70 -69 -144 -77 -164 -13 -35 -13 -39 6 -48 25 -14
24 -30 -1 -30 -16 0 -18 -3 -11 -17 6 -10 19 -52 31 -93 23 -79 60 -155 115
-230 26 -36 32 -52 27 -79 -3 -25 -2 -32 8 -26 7 4 15 4 19 -1 17 -24 207
-118 275 -136 43 -11 47 -15 43 -37 -6 -28 1 -51 14 -51 14 0 11 90 -3 94 -7
2 -47 14 -88 27 -80 25 -240 123 -240 146 0 9 8 6 23 -8 68 -66 242 -146 304
-141 12 1 24 -2 27 -7 6 -9 197 38 234 58 13 7 26 11 28 8 7 -6 -103 -53 -173
-74 -59 -17 -63 -20 -63 -48 0 -38 16 -67 24 -45 3 8 6 26 8 39 3 21 16 29 93
56 87 30 186 80 193 97 2 4 10 8 18 8 9 0 14 -11 14 -32 1 -52 19 -10 22 47 1
37 8 54 30 79 42 44 86 110 105 154 12 29 63 203 63 216 0 2 -11 1 -25 -2 -22
-4 -25 -10 -25 -46 0 -112 -51 -217 -155 -322 -87 -87 -147 -123 -255 -150
-231 -59 -483 64 -593 289 -83 171 -61 372 58 533 17 22 20 35 14 47 -6 9 -13
17 -17 17 -4 0 -35 -58 -70 -128z m837 -678 c-7 -8 -26 -22 -43 -30 l-31 -15
35 30 c37 32 61 42 39 15z"/>
<path d="M3150 1095 c0 -5 5 -17 10 -25 5 -8 10 -10 10 -5 0 6 -5 17 -10 25
-5 8 -10 11 -10 5z"/>
<path d="M4893 1055 c0 -27 2 -38 4 -22 2 15 2 37 0 50 -2 12 -4 0 -4 -28z"/>
<path d="M3170 1035 c0 -18 21 -28 45 -23 12 2 8 8 -14 21 -27 16 -31 16 -31
2z"/>
<path d="M243 1023 c-7 -2 -13 -22 -13 -43 0 -20 6 -42 13 -48 6 -6 46 -13 87
-16 41 -3 91 -6 110 -8 30 -3 36 1 44 25 6 17 6 37 0 54 -9 27 -32 30 -26 3 8
-36 6 -63 -5 -67 -8 -3 -13 5 -13 21 0 16 -6 26 -15 26 -8 0 -15 -9 -15 -20 0
-19 -6 -20 -60 -19 -57 2 -59 3 -54 25 5 21 2 24 -20 24 -31 0 -35 20 -6 27
11 3 17 9 14 14 -6 10 -21 10 -41 2z"/>
<path d="M1545 1001 c-3 -5 -1 -12 5 -16 5 -3 10 -26 10 -51 0 -24 4 -44 9
-44 10 0 21 35 21 71 0 36 -30 63 -45 40z"/>
<path d="M4887 981 c-7 -29 -2 -239 6 -247 4 -4 7 54 7 129 0 76 -2 137 -4
137 -2 0 -6 -9 -9 -19z"/>
<path d="M1940 982 c0 -3 6 -13 14 -21 7 -9 21 -41 31 -71 20 -62 89 -210 119
-254 14 -21 20 -47 20 -89 l1 -59 13 33 c18 45 11 73 -43 165 -59 100 -115
235 -115 279 0 7 -9 15 -20 18 -11 3 -20 3 -20 -1z"/>
<path d="M3180 946 c0 -13 -14 -67 -31 -120 -29 -87 -56 -138 -136 -250 -16
-23 -22 -45 -21 -86 l0 -55 10 45 c12 57 24 82 69 150 51 78 75 127 94 195 24
89 36 119 53 133 14 10 12 12 -11 12 -22 0 -27 -5 -27 -24z"/>
<path d="M3586 910 c-13 -80 12 -176 67 -261 47 -72 51 -59 8 25 -35 68 -53
140 -64 251 -3 26 -4 24 -11 -15z"/>
<path d="M250 871 c0 -35 26 -62 36 -36 8 19 -11 65 -26 65 -5 0 -10 -13 -10
-29z"/>
<path d="M3620 890 c0 -5 5 -10 10 -10 6 0 10 5 10 10 0 6 -4 10 -10 10 -5 0
-10 -4 -10 -10z"/>
<path d="M4893 535 c0 -33 2 -45 4 -27 2 18 2 45 0 60 -2 15 -4 0 -4 -33z"/>
<path d="M4892 450 c0 -14 2 -19 5 -12 2 6 2 18 0 25 -3 6 -5 1 -5 -13z"/>
<path d="M2374 249 c-2 -3 34 -6 79 -6 84 -1 74 4 -21 9 -30 2 -56 0 -58 -3z"/>
<path d="M2612 255 c3 -4 172 -9 375 -12 202 -3 365 -2 361 2 -3 3 -172 9
-375 12 -202 3 -365 2 -361 -2z"/>
<path d="M2581 128 c-1 -79 3 -128 9 -128 12 0 12 193 0 230 -5 16 -8 -23 -9
-102z"/>
<path d="M2557 213 c-11 -11 -8 -213 3 -213 6 0 10 43 10 110 0 110 -1 116
-13 103z"/>
</g>
</svg>
