<?xml version="1.0" standalone="no"?>
<!DOCTYPE svg PUBLIC "-//W3C//DTD SVG 20010904//EN"
 "http://www.w3.org/TR/2001/REC-SVG-20010904/DTD/svg10.dtd">
<svg version="1.0" xmlns="http://www.w3.org/2000/svg"
 width="512.000000pt" height="512.000000pt" viewBox="0 0 512.000000 512.000000"
 preserveAspectRatio="xMidYMid meet">
<metadata>
Created by potrace 1.16, written by Peter Selinger 2001-2019
</metadata>
<g transform="translate(0.000000,512.000000) scale(0.100000,-0.100000)"
fill="#000000" stroke="none">
<path d="M2570 4735 c0 -9 -18 -35 -40 -59 -40 -43 -40 -44 -40 -125 l0 -81
53 0 54 0 -3 61 c-3 67 -6 74 -27 66 -11 -4 -12 -16 -7 -51 7 -50 5 -56 -21
-56 -20 0 -29 28 -29 95 0 45 3 52 30 67 17 9 30 24 30 33 0 8 4 15 9 15 11 0
21 -35 21 -72 0 -21 5 -28 19 -28 26 0 34 15 16 30 -7 6 -19 36 -26 66 -7 32
-18 54 -26 54 -7 0 -13 -7 -13 -15z"/>
<path d="M3022 4713 c-5 -10 -12 -35 -15 -55 -5 -35 -4 -37 26 -43 139 -29
359 -108 482 -174 182 -97 371 -225 442 -299 l32 -34 27 31 c14 17 32 31 40
31 16 0 19 16 5 25 -6 3 -25 -8 -44 -25 -20 -17 -37 -26 -39 -21 -6 17 -168
142 -275 212 -184 120 -475 249 -561 249 -14 0 -22 3 -18 7 8 8 -74 34 -86 27
-12 -8 -10 50 3 63 7 7 7 13 0 17 -5 4 -14 -1 -19 -11z"/>
<path d="M2218 4713 c6 -2 18 -2 25 0 6 3 1 5 -13 5 -14 0 -19 -2 -12 -5z"/>
<path d="M2288 4707 c-49 -7 -68 -14 -68 -25 0 -11 9 -13 40 -8 22 3 58 9 80
12 l40 7 0 -37 c0 -35 -1 -36 -37 -36 -21 -1 -57 -5 -80 -9 -52 -10 -63 0 -63
57 0 31 -4 42 -12 39 -9 -3 -12 -22 -9 -63 2 -32 4 -60 5 -61 3 -4 238 26 243
31 4 3 -1 6 -10 6 -14 0 -17 10 -17 50 0 57 7 55 -112 37z"/>
<path d="M3060 4701 c0 -5 -3 -16 -6 -25 -5 -12 0 -16 18 -16 35 0 284 -84
382 -128 148 -67 374 -212 491 -314 46 -41 65 -47 65 -23 0 8 -4 15 -9 15 -4
0 -24 14 -42 30 -19 17 -62 49 -96 71 -35 23 -63 43 -63 45 0 3 12 9 28 15
l27 11 -24 11 c-19 9 -26 8 -36 -6 -12 -16 -18 -14 -81 33 -89 68 -314 177
-494 240 -155 54 -160 55 -160 41z"/>
<path d="M2052 4680 c-37 -9 -54 -20 -30 -20 31 0 78 13 78 21 0 10 -2 10 -48
-1z"/>
<path d="M2700 4660 c0 -5 6 -10 13 -10 7 0 67 -7 132 -15 145 -18 138 -18
133 -3 -3 8 -44 17 -109 25 -131 15 -169 16 -169 3z"/>
<path d="M2055 4643 c-22 -8 -58 -17 -80 -19 l-40 -3 45 14 45 15 -59 -5 c-33
-3 -62 -8 -65 -10 -2 -3 6 -15 18 -27 23 -21 24 -21 100 -3 78 18 105 31 95
46 -7 12 -11 11 -59 -8z"/>
<path d="M2288 4643 c6 -2 18 -2 25 0 6 3 1 5 -13 5 -14 0 -19 -2 -12 -5z"/>
<path d="M1788 4603 c7 -3 16 -2 19 1 4 3 -2 6 -13 5 -11 0 -14 -3 -6 -6z"/>
<path d="M1785 4574 c-16 -7 -58 -21 -92 -31 -35 -10 -63 -21 -63 -24 0 -18
34 -15 101 7 40 13 81 24 91 24 20 0 25 25 6 33 -7 2 -26 -2 -43 -9z"/>
<path d="M2046 4566 c-50 -11 -88 -25 -85 -31 2 -5 9 -9 14 -8 126 29 195 49
195 55 0 12 -24 9 -124 -16z"/>
<path d="M1507 4524 c-12 -12 5 -59 27 -76 19 -15 19 -17 3 -23 -17 -7 -24
-35 -8 -35 5 0 14 -14 20 -30 9 -28 12 -29 31 -18 11 7 20 18 20 24 0 7 8 14
18 18 9 3 24 10 32 15 28 17 154 69 223 91 37 12 67 26 67 31 0 5 -1 9 -3 9
-17 0 -191 -66 -240 -91 -34 -18 -72 -37 -84 -43 -13 -6 -23 -15 -23 -19 0 -4
-9 -3 -20 3 -11 6 -20 15 -20 19 0 5 41 30 90 55 50 26 90 48 90 50 0 6 -80
-24 -122 -45 -22 -11 -41 -19 -42 -17 -1 2 -8 22 -16 46 -12 39 -27 51 -43 36z"/>
<path d="M1758 4513 c7 -3 16 -2 19 1 4 3 -2 6 -13 5 -11 0 -14 -3 -6 -6z"/>
<path d="M2708 4463 c7 -3 16 -2 19 1 4 3 -2 6 -13 5 -11 0 -14 -3 -6 -6z"/>
<path d="M2783 4453 c9 -2 25 -2 35 0 9 3 1 5 -18 5 -19 0 -27 -2 -17 -5z"/>
<path d="M2325 4417 c-44 -5 -84 -13 -90 -19 -7 -7 1 -9 25 -5 19 4 64 9 100
13 36 3 66 8 68 9 10 9 -34 10 -103 2z"/>
<path d="M1460 4414 c0 -3 14 -19 31 -37 29 -30 30 -31 24 -7 -4 13 -13 30
-21 37 -13 13 -34 18 -34 7z"/>
<path d="M1340 4369 c-25 -16 -53 -32 -62 -35 -10 -4 -18 -9 -18 -13 0 -3 -18
-17 -40 -31 -22 -14 -40 -28 -40 -32 0 -16 27 -13 50 4 42 32 148 98 175 108
28 11 25 31 -3 29 -9 0 -37 -14 -62 -30z"/>
<path d="M2195 4395 c-5 -2 -58 -18 -117 -36 -60 -18 -108 -37 -108 -42 0 -5
8 -6 18 -2 34 14 178 57 205 62 15 3 27 9 27 14 0 9 -7 10 -25 4z"/>
<path d="M1358 4314 c-45 -31 -90 -62 -99 -70 -21 -19 -35 -18 -19 1 11 13 10
14 -4 9 -10 -4 -15 -13 -12 -21 3 -8 6 -17 6 -19 0 -14 30 3 104 60 46 35 93
67 105 71 21 6 30 25 12 25 -5 0 -47 -25 -93 -56z"/>
<path d="M1449 4317 c-19 -17 -74 -62 -123 -100 -49 -38 -84 -72 -80 -78 4 -7
20 3 43 24 20 19 63 54 95 77 64 46 116 93 116 104 0 13 -16 4 -51 -27z"/>
<path d="M1935 4313 c-21 -6 -65 -33 -52 -33 13 0 77 29 77 34 0 4 -1 5 -2 5
-2 -1 -12 -4 -23 -6z"/>
<path d="M1765 4260 c3 -6 -4 -14 -17 -19 -13 -6 -19 -10 -14 -10 6 -1 2 -7
-9 -14 -10 -8 -15 -19 -11 -25 10 -16 16 -15 53 8 30 18 32 22 21 45 -6 14
-15 25 -20 25 -5 0 -6 -5 -3 -10z"/>
<path d="M1812 4248 c5 -15 28 -18 29 -3 0 6 -7 12 -17 13 -10 3 -15 -1 -12
-10z"/>
<path d="M1650 4212 c0 -19 19 -52 30 -52 16 0 12 16 -10 41 -11 14 -19 18
-20 11z"/>
<path d="M1090 4161 c0 -6 5 -13 10 -16 16 -10 12 -22 -10 -28 -26 -7 -25 -20
4 -54 19 -21 27 -25 36 -16 9 8 7 14 -9 22 -23 13 -25 19 -11 41 8 13 11 12
24 -5 12 -15 15 -16 16 -5 0 8 -11 27 -24 43 -24 28 -36 34 -36 18z"/>
<path d="M1600 4162 c0 -7 -11 -17 -25 -22 -22 -9 -24 -12 -13 -30 15 -23 56
-27 64 -6 3 8 -1 27 -10 43 -8 15 -15 22 -16 15z"/>
<path d="M1034 4119 c-24 -25 -26 -31 -14 -39 8 -5 18 -10 23 -10 17 0 5 -30
-13 -30 -11 0 -20 7 -20 15 0 8 -9 15 -19 15 -32 0 -34 -19 -4 -32 15 -7 30
-15 33 -19 3 -3 16 -12 29 -19 23 -12 23 -11 17 13 -3 15 -1 29 5 32 7 5 2 16
-13 32 l-23 25 23 18 c12 10 19 21 14 24 -5 3 -22 -8 -38 -25z"/>
<path d="M1465 4069 c-11 -17 1 -21 15 -4 8 9 8 15 2 15 -6 0 -14 -5 -17 -11z"/>
<path d="M1383 4002 c-66 -56 -213 -209 -213 -223 0 -5 5 -9 10 -9 6 0 10 4
10 9 0 11 215 231 226 231 5 0 15 9 22 20 18 30 9 25 -55 -28z"/>
<path d="M922 4028 c-8 -8 1 -16 41 -29 63 -22 67 -23 42 -6 -63 43 -71 47
-83 35z"/>
<path d="M507 3826 c152 -158 212 -214 234 -221 26 -9 31 -3 127 143 37 57 77
116 90 132 12 15 22 30 22 32 0 1 -126 4 -280 4 l-281 2 88 -92z m420 60 c6
-5 -163 -260 -174 -263 -13 -5 -274 257 -267 268 3 5 435 0 441 -5z"/>
<path d="M4120 3914 c0 -3 29 -45 64 -93 35 -47 85 -119 111 -158 26 -40 53
-73 61 -73 13 0 -36 78 -144 226 -29 40 -52 75 -52 78 0 3 106 6 235 6 129 0
235 -3 235 -7 0 -10 -159 -197 -171 -201 -5 -2 -9 -8 -9 -14 0 -6 -8 -17 -17
-24 -10 -7 -13 -14 -7 -14 16 0 34 18 131 130 50 58 98 111 107 119 9 7 16 16
16 20 0 4 -126 8 -280 10 -154 1 -280 -1 -280 -5z"/>
<path d="M3288 3872 c-42 -63 -68 -121 -58 -127 9 -6 90 130 90 153 0 19 -6
15 -32 -26z"/>
<path d="M2310 3866 c-106 -24 -250 -84 -345 -145 -22 -14 -41 -26 -43 -27 -2
-1 4 -16 12 -33 l16 -31 49 35 c27 19 53 35 60 35 6 0 11 4 11 9 0 23 288 111
364 111 14 0 27 4 30 9 7 11 -55 21 -69 11 -5 -4 -33 -10 -61 -14 -61 -8 -184
-48 -231 -76 -19 -11 -41 -20 -49 -20 -24 0 -11 23 14 27 13 1 33 9 45 17 53
34 284 95 307 81 6 -3 10 -2 10 4 0 5 10 12 23 14 12 2 -3 4 -33 5 -30 0 -80
-6 -110 -12z m-277 -142 c9 -9 -65 -64 -76 -57 -5 3 6 18 24 34 34 30 41 33
52 23z"/>
<path d="M2758 3864 c-3 -3 -4 -13 -1 -23 3 -13 24 -24 61 -36 201 -59 349
-128 471 -220 41 -32 81 -54 90 -52 14 4 13 5 -1 6 -10 0 -18 8 -18 16 0 8 -4
15 -10 15 -5 0 -20 10 -34 23 -39 36 -56 48 -56 41 0 -4 -8 3 -19 14 -10 12
-26 22 -35 22 -9 0 -16 5 -16 11 0 5 -4 7 -10 4 -5 -3 -10 -2 -10 4 0 6 -12
14 -26 17 -22 6 -24 8 -11 16 15 8 67 -18 110 -56 9 -9 20 -16 25 -16 9 0 58
-38 91 -71 34 -33 80 -63 87 -56 10 10 -189 177 -211 177 -3 0 -23 11 -44 25
-57 38 -194 93 -299 121 -96 24 -124 28 -134 18z m97 -33 c6 -3 19 -7 29 -8
10 -2 51 -15 90 -29 39 -14 87 -30 106 -36 43 -12 56 -23 30 -25 -11 -1 -20 3
-20 8 0 6 -4 8 -8 5 -4 -2 -28 4 -52 15 -24 11 -74 27 -112 35 -37 9 -70 20
-73 25 -4 5 -16 9 -28 9 -12 0 -29 5 -37 11 -11 7 -4 8 25 3 22 -4 45 -9 50
-13z"/>
<path d="M1950 3830 c0 -5 5 -10 11 -10 5 0 7 5 4 10 -3 6 -8 10 -11 10 -2 0
-4 -4 -4 -10z"/>
<path d="M1900 3741 c0 -5 5 -13 10 -16 6 -3 10 -2 10 4 0 5 -4 13 -10 16 -5
3 -10 2 -10 -4z"/>
<path d="M1045 3674 c-9 -23 -27 -47 -41 -54 -28 -16 -31 -27 -6 -34 24 -8 37
-3 34 12 -2 8 6 16 17 19 22 5 29 23 10 23 -5 0 -8 4 -4 10 3 5 12 7 19 4 23
-9 26 10 6 36 l-18 24 -17 -40z"/>
<path d="M1817 3616 c-75 -72 -90 -100 -47 -89 22 6 27 23 8 23 -7 0 -2 9 12
20 14 10 43 35 64 55 35 32 41 34 49 19 7 -13 4 -21 -14 -35 -13 -10 -19 -19
-13 -19 6 0 19 8 28 19 15 16 15 23 4 51 l-13 32 -78 -76z"/>
<path d="M2070 3675 c0 -12 5 -26 11 -32 8 -8 3 -18 -18 -37 -31 -29 -25 -34
12 -10 22 14 25 14 25 1 0 -8 7 -17 15 -20 16 -7 11 9 -24 78 -14 29 -20 34
-21 20z"/>
<path d="M649 3558 c-17 -35 -38 -71 -47 -80 -14 -16 -12 -19 20 -32 48 -20
56 -22 56 -13 1 4 17 37 37 73 20 36 35 70 32 77 -4 12 -47 -50 -69 -99 -6
-13 -19 -24 -30 -24 -22 0 -22 4 -3 38 38 71 54 111 45 117 -5 3 -23 -23 -41
-57z"/>
<path d="M4430 3611 c0 -5 29 -68 65 -139 36 -72 65 -136 65 -142 0 -27 -24 9
-81 123 -62 124 -75 145 -84 136 -3 -4 124 -265 140 -286 3 -5 55 22 52 27 -1
3 -33 69 -71 148 -61 125 -86 164 -86 133z"/>
<path d="M790 3575 c7 -8 16 -15 20 -15 18 0 524 -312 620 -382 21 -15 33 -19
41 -11 7 7 -6 21 -43 45 -70 46 -344 210 -388 233 -19 10 -62 35 -94 57 -114
76 -186 109 -156 73z"/>
<path d="M4290 3583 c-16 -7 -319 -182 -465 -269 -107 -65 -131 -82 -122 -90
3 -3 48 20 99 52 51 32 138 83 193 114 106 60 139 79 223 129 29 17 56 31 60
31 4 0 18 9 32 20 24 19 14 26 -20 13z"/>
<path d="M925 3570 c-3 -5 -1 -10 4 -10 6 0 11 5 11 10 0 6 -2 10 -4 10 -3 0
-8 -4 -11 -10z"/>
<path d="M1942 3559 c-35 -7 -69 -30 -39 -25 9 1 20 5 23 9 4 4 21 7 38 8 17
0 40 4 51 9 17 7 15 8 -10 7 -16 0 -45 -4 -63 -8z"/>
<path d="M957 3553 c-14 -13 -6 -31 15 -36 32 -9 42 2 22 24 -18 20 -27 23
-37 12z"/>
<path d="M2388 3523 c7 -3 16 -2 19 1 4 3 -2 6 -13 5 -11 0 -14 -3 -6 -6z"/>
<path d="M2528 3523 c12 -2 30 -2 40 0 9 3 -1 5 -23 4 -22 0 -30 -2 -17 -4z"/>
<path d="M2668 3523 c7 -3 16 -2 19 1 4 3 -2 6 -13 5 -11 0 -14 -3 -6 -6z"/>
<path d="M2708 3523 c6 -2 18 -2 25 0 6 3 1 5 -13 5 -14 0 -19 -2 -12 -5z"/>
<path d="M2758 3523 c7 -3 16 -2 19 1 4 3 -2 6 -13 5 -11 0 -14 -3 -6 -6z"/>
<path d="M2868 3523 c7 -3 16 -2 19 1 4 3 -2 6 -13 5 -11 0 -14 -3 -6 -6z"/>
<path d="M2948 3523 c7 -3 16 -2 19 1 4 3 -2 6 -13 5 -11 0 -14 -3 -6 -6z"/>
<path d="M3028 3523 c6 -2 18 -2 25 0 6 3 1 5 -13 5 -14 0 -19 -2 -12 -5z"/>
<path d="M2592 3500 c-574 -3 -875 -8 -880 -15 -4 -6 -35 -47 -69 -93 -86
-114 -171 -253 -209 -342 -43 -97 -83 -255 -91 -350 l-6 -75 -283 3 -283 3 8
-28 c8 -31 6 -67 -4 -98 -6 -20 -2 -20 274 -17 l279 3 6 -43 c21 -138 61 -268
122 -391 24 -50 41 -94 36 -97 -14 -13 -428 -255 -491 -288 -77 -40 -96 -60
-76 -81 8 -8 21 -11 32 -7 17 7 17 8 -1 22 -23 16 -24 15 39 46 28 13 86 44
130 69 234 134 304 174 343 201 24 17 44 28 46 26 87 -134 111 -169 134 -195
l27 -33 913 0 c702 -1 917 2 929 11 8 7 46 54 84 105 139 185 225 391 247 586
l7 63 267 0 c146 0 270 3 274 8 4 4 -5 7 -19 7 -15 0 -27 5 -27 11 0 5 -5 7
-11 3 -6 -4 -116 -6 -244 -5 -264 2 -258 4 -269 -76 -11 -73 -43 -202 -66
-261 -51 -132 -149 -292 -247 -402 l-26 -30 -901 2 -900 3 -74 100 c-75 104
-166 275 -201 381 -11 33 -27 101 -36 150 -9 49 -21 100 -26 112 l-9 24 -268
-3 -267 -4 -3 54 -3 54 259 -8 c175 -5 266 -4 279 3 16 9 22 30 32 107 32 243
117 429 323 701 l40 54 282 2 c556 4 1448 3 1455 -2 14 -11 110 -138 146 -195
89 -139 178 -377 205 -545 20 -125 17 -118 57 -126 20 -4 102 -4 182 -1 80 4
183 7 229 7 49 0 82 4 82 10 0 7 -84 10 -255 8 l-255 -3 -6 45 c-32 231 -115
456 -241 653 -53 83 -123 174 -138 179 -5 2 -403 1 -883 -2z"/>
<path d="M880 3358 c-64 -143 -147 -430 -138 -475 2 -10 14 25 27 77 27 113
80 273 127 385 38 90 37 85 25 85 -4 0 -23 -33 -41 -72z"/>
<path d="M842 3404 c-16 -31 -87 -222 -105 -284 -34 -118 -72 -397 -49 -360 5
8 12 47 16 87 8 94 54 269 111 428 25 70 44 132 42 138 -2 7 -8 3 -15 -9z"/>
<path d="M667 3393 c-4 -3 -7 -11 -7 -17 0 -6 5 -5 12 2 6 6 9 14 7 17 -3 3
-9 2 -12 -2z"/>
<path d="M3255 3390 l-70 -5 60 -7 c33 -3 87 -7 119 -7 49 -1 62 -5 75 -23
113 -154 216 -352 255 -490 14 -48 28 -121 32 -163 l7 -75 -62 0 -62 0 3 -67
3 -67 63 3 c61 2 63 2 58 -21 -3 -13 -12 -57 -20 -99 -28 -141 -89 -278 -193
-426 l-64 -93 -104 0 c-63 0 -105 -4 -105 -10 0 -6 41 -10 104 -10 120 0 108
-7 194 113 111 154 168 282 198 447 20 109 15 120 -57 120 l-49 0 0 45 0 45
50 0 c69 0 75 14 56 133 -27 167 -72 285 -166 437 -85 138 -139 209 -163 214
-42 9 -93 11 -162 6z"/>
<path d="M1699 3291 c-166 -227 -243 -405 -256 -592 l-6 -87 31 -7 c18 -3 46
-5 64 -3 33 3 33 3 36 -44 l3 -47 -63 -3 -63 -3 -3 -41 c-6 -84 75 -341 130
-414 19 -24 76 -109 119 -177 25 -39 47 -44 165 -42 137 2 126 19 -13 20
l-118 0 -63 96 c-35 52 -62 96 -60 97 2 2 43 29 91 60 48 31 85 61 82 66 -3 5
5 18 17 30 l23 21 5 415 5 414 55 76 c30 42 71 97 91 123 47 61 72 109 65 127
-4 11 -33 14 -135 14 l-130 0 -72 -99z m298 37 c-19 -24 -71 -94 -116 -156
l-82 -113 -4 -415 -4 -416 -23 -16 c-13 -9 -58 -48 -101 -85 -43 -38 -79 -68
-81 -66 -2 2 -19 43 -40 90 -38 91 -71 206 -82 290 -7 48 -6 50 17 48 13 -1
45 -1 72 -1 l47 2 0 71 0 71 -71 -4 -71 -4 7 66 c20 198 80 337 250 580 l70
99 123 1 123 0 -34 -42z"/>
<path d="M1660 3070 c0 -5 11 -12 25 -16 14 -3 25 -9 25 -13 0 -4 14 -15 30
-24 34 -20 40 -10 10 15 -19 17 -74 48 -85 48 -3 0 -5 -4 -5 -10z"/>
<path d="M1610 3063 c0 -10 96 -73 110 -73 5 0 10 -4 10 -8 0 -5 11 -14 25
-20 62 -28 -10 43 -77 77 -16 8 -28 18 -28 23 0 4 -9 8 -20 8 -11 0 -20 -3
-20 -7z"/>
<path d="M536 3304 c-20 -55 -25 -79 -17 -87 13 -13 11 -16 38 63 12 36 25 73
28 83 5 11 2 17 -7 17 -8 0 -25 -32 -42 -76z"/>
<path d="M608 3283 c-18 -51 -24 -81 -18 -87 6 -6 10 -7 10 -4 0 4 13 43 30
87 20 54 25 81 17 81 -6 0 -24 -35 -39 -77z"/>
<path d="M3191 3350 c-1 -8 13 -31 30 -50 17 -19 54 -68 81 -108 41 -61 50
-83 53 -125 2 -29 4 -262 5 -518 2 -424 0 -470 -16 -500 -9 -19 -20 -36 -24
-39 -4 -3 -16 -21 -26 -40 -11 -19 -29 -50 -42 -68 -13 -17 -18 -32 -12 -32 6
0 40 45 76 100 l65 100 -1 503 0 502 66 25 c73 27 92 42 39 30 -19 -4 -36 -5
-39 -3 -3 3 -19 -5 -35 -17 -29 -20 -32 -20 -38 -4 -10 27 -117 184 -152 224
-18 21 -30 29 -30 20z"/>
<path d="M578 3277 c-10 -23 -18 -49 -17 -57 0 -8 9 7 20 34 11 27 18 53 17
57 -2 5 -11 -10 -20 -34z"/>
<path d="M4596 3232 c-3 -5 6 -44 19 -87 14 -43 25 -85 25 -93 0 -32 -18 5
-40 86 -13 45 -27 82 -32 82 -12 0 -10 -10 17 -90 14 -40 25 -82 25 -92 0 -21
1 -21 33 -9 l25 10 -27 95 c-27 97 -35 114 -45 98z"/>
<path d="M576 3148 c-8 -19 -20 -55 -27 -81 -11 -45 -12 -46 -43 -40 -17 3
-33 7 -34 9 -2 1 3 26 11 55 9 29 14 56 11 61 -12 18 -21 5 -33 -44 -6 -29
-14 -62 -17 -74 -5 -18 0 -22 33 -27 21 -3 45 -8 54 -12 13 -5 19 7 33 57 9
35 22 76 28 91 16 41 1 46 -16 5z"/>
<path d="M3480 3072 c-41 -32 -77 -66 -79 -77 -3 -17 0 -17 27 5 17 14 55 45
86 70 51 42 66 60 49 60 -5 0 -42 -26 -83 -58z"/>
<path d="M1058 3065 c-3 -11 -9 -29 -13 -40 -3 -11 1 -7 10 8 9 16 15 33 12
40 -2 6 -6 3 -9 -8z"/>
<path d="M2093 3048 c-4 -7 -7 -95 -5 -195 l3 -183 -38 -1 c-21 -1 -49 0 -63
0 -42 3 -64 -21 -62 -68 2 -56 6 -61 50 -61 60 0 78 -9 96 -48 36 -75 169
-283 188 -293 10 -6 33 -9 51 -7 27 3 37 12 75 78 23 41 63 115 88 164 24 50
50 93 57 98 6 4 31 8 54 8 66 0 73 6 73 61 0 59 -14 69 -99 69 l-61 0 0 176
c0 102 -4 183 -10 195 -9 16 -22 19 -80 19 -44 0 -72 -4 -77 -12 -4 -7 -8
-134 -8 -283 0 -225 -3 -276 -16 -305 l-16 -35 -41 89 c-41 87 -44 106 -18
106 8 0 16 10 20 23 10 38 7 377 -4 398 -9 16 -22 19 -80 19 -44 0 -72 -4 -77
-12z m135 -22 c1 -3 2 -93 2 -200 l0 -195 -35 6 c-44 7 -44 0 0 -74 19 -33 51
-97 70 -143 18 -47 36 -78 38 -70 3 8 15 46 26 84 20 64 22 90 21 335 l0 266
60 0 60 0 2 -195 3 -195 83 0 82 0 0 -42 0 -43 -72 0 -73 0 -17 -53 c-9 -28
-47 -107 -85 -174 -64 -114 -70 -122 -96 -119 -25 3 -39 20 -113 142 -47 76
-90 154 -96 172 -12 32 -13 32 -78 32 l-65 0 0 43 0 42 85 -3 85 -4 -4 199 -3
198 58 -2 c33 0 60 -4 62 -7z"/>
<path d="M2710 3041 c-13 -25 -13 -77 0 -102 9 -16 22 -19 89 -19 l78 0 -31
-62 -31 -62 -3 -275 c-2 -151 -1 -285 3 -298 5 -23 9 -24 83 -21 l77 3 5 300
5 300 38 58 39 57 81 0 c127 0 128 1 125 74 l-3 61 -272 3 c-261 2 -273 2
-283 -17z m540 -46 l0 -45 -100 0 -100 0 -31 -42 c-66 -92 -64 -75 -61 -395
l3 -291 -61 -4 c-34 -1 -63 -2 -64 -1 -1 1 -1 128 0 281 1 262 3 282 23 328
12 27 36 66 53 88 l31 38 -107 -4 -106 -4 0 48 0 48 260 0 260 0 0 -45z"/>
<path d="M1031 2993 c-1 -6 -4 -20 -7 -30 -5 -17 -5 -17 6 0 6 10 9 23 6 30
-3 9 -5 9 -5 0z"/>
<path d="M3455 2980 c-3 -5 -1 -10 4 -10 6 0 11 5 11 10 0 6 -2 10 -4 10 -3 0
-8 -4 -11 -10z"/>
<path d="M426 2884 c-10 -52 -15 -98 -12 -102 4 -4 23 -7 42 -7 19 -1 34 -4
34 -8 0 -4 0 -29 0 -55 l0 -48 -60 4 c-50 4 -60 2 -60 -12 0 -13 11 -16 60
-16 33 0 60 -4 60 -8 0 -5 -25 -7 -55 -4 -34 3 -55 1 -55 -6 0 -6 52 -13 130
-17 l130 -8 0 -38 0 -38 -92 -3 c-62 -2 -93 -7 -96 -15 -4 -15 35 -16 141 -6
l67 6 0 58 0 59 -78 0 -77 0 7 123 c4 67 9 148 13 180 6 55 5 57 -17 57 -13 0
-18 -3 -12 -8 7 -5 10 -35 6 -89 l-5 -83 -29 0 c-29 0 -30 2 -24 33 3 17 8 52
12 77 4 25 11 51 17 58 7 9 4 12 -10 12 -17 0 -22 -14 -37 -96z"/>
<path d="M4617 2898 c2 -29 8 -91 11 -137 l7 -83 58 -2 c54 -1 57 0 57 22 0
23 -2 24 -49 17 l-49 -7 -6 69 c-14 145 -18 173 -26 173 -5 0 -6 -24 -3 -52z"/>
<path d="M4672 2903 c2 -35 -1 -47 -9 -45 -7 1 -13 -2 -13 -8 0 -5 12 -10 28
-10 27 0 27 1 24 55 -3 41 -8 55 -19 55 -12 0 -14 -10 -11 -47z"/>
<path d="M1006 2914 c-4 -9 -4 -19 -1 -22 2 -3 7 3 11 12 4 9 4 19 1 22 -2 3
-7 -3 -11 -12z"/>
<path d="M820 2881 c0 -5 33 -12 73 -15 39 -4 145 -18 235 -32 90 -13 173 -24
185 -23 49 2 -41 19 -232 43 -108 15 -211 28 -228 30 -18 3 -33 1 -33 -3z"/>
<path d="M568 2633 c12 -2 30 -2 40 0 9 3 -1 5 -23 4 -22 0 -30 -2 -17 -4z"/>
<path d="M3581 2624 c0 -11 3 -14 6 -6 3 7 2 16 -1 19 -3 4 -6 -2 -5 -13z"/>
<path d="M4390 2620 c0 -5 5 -10 11 -10 5 0 7 5 4 10 -3 6 -8 10 -11 10 -2 0
-4 -4 -4 -10z"/>
<path d="M4500 2613 c0 -9 22 -13 74 -13 102 0 107 18 6 22 -59 2 -80 0 -80
-9z"/>
<path d="M4588 2583 c-100 -4 -121 -23 -25 -23 76 0 137 10 137 21 0 5 -6 8
-12 7 -7 -1 -52 -4 -100 -5z"/>
<path d="M480 2570 c0 -6 30 -10 70 -10 40 0 70 4 70 10 0 6 -30 10 -70 10
-40 0 -70 -4 -70 -10z"/>
<path d="M4500 2530 c0 -6 40 -10 100 -10 60 0 100 4 100 10 0 6 -40 10 -100
10 -60 0 -100 -4 -100 -10z"/>
<path d="M4493 2488 c2 -7 9 -13 15 -12 7 1 53 2 102 3 52 0 90 5 90 11 0 6
-42 10 -106 10 -80 0 -105 -3 -101 -12z"/>
<path d="M668 2473 c7 -3 16 -2 19 1 4 3 -2 6 -13 5 -11 0 -14 -3 -6 -6z"/>
<path d="M664 2433 c2 -10 7 -52 11 -93 16 -172 71 -375 160 -590 13 -30 26
-64 30 -75 4 -11 9 -15 11 -9 3 6 -11 48 -29 95 -50 123 -113 322 -131 414
-14 73 -36 231 -36 262 0 7 -4 13 -9 13 -6 0 -8 -8 -7 -17z"/>
<path d="M380 2399 c0 -18 5 -20 52 -18 l53 3 6 -39 c4 -22 10 -68 14 -101 l7
-62 -36 -4 c-41 -5 -46 3 -46 67 0 24 -4 46 -9 50 -16 9 -18 -8 -9 -75 5 -36
9 -75 9 -87 1 -13 7 -23 16 -23 10 0 12 6 8 20 -5 17 -2 20 27 21 18 1 40 1
49 0 14 -2 14 9 3 106 -22 174 -16 163 -85 163 -53 0 -59 -2 -59 -21z"/>
<path d="M4650 2405 c0 -9 19 -14 55 -17 47 -2 55 0 55 14 0 15 -9 18 -55 17
-37 -1 -55 -6 -55 -14z"/>
<path d="M4685 2170 c-16 -91 -22 -110 -36 -110 -25 0 -29 11 -19 56 16 72 27
154 20 154 -4 0 -16 -42 -27 -92 -11 -51 -24 -100 -27 -109 -7 -17 17 -29 61
-29 18 0 24 10 38 73 22 97 30 167 18 167 -5 0 -18 -49 -28 -110z"/>
<path d="M3400 2240 c0 -6 21 -31 48 -57 26 -26 46 -53 44 -60 -2 -8 3 -10 13
-7 8 3 15 1 15 -5 0 -6 5 -11 10 -11 17 0 -4 30 -64 93 -57 58 -66 65 -66 47z"/>
<path d="M1790 2138 c1 -25 55 -122 70 -126 10 -2 11 -1 4 5 -17 12 -54 90
-54 113 0 11 -4 20 -10 20 -5 0 -10 -6 -10 -12z"/>
<path d="M518 2065 c-9 -9 36 -175 47 -175 13 0 13 2 -9 98 -18 77 -25 90 -38
77z"/>
<path d="M464 2013 c4 -16 12 -54 19 -86 9 -43 16 -57 27 -54 8 2 13 10 11 18
-1 8 -10 44 -19 82 -11 43 -21 67 -30 67 -10 0 -13 -7 -8 -27z"/>
<path d="M1876 1971 c24 -40 83 -108 84 -95 0 5 -8 19 -17 30 -10 10 -29 36
-43 56 -29 44 -49 51 -24 9z"/>
<path d="M4572 1934 c-6 -11 -23 -52 -37 -89 -24 -64 -85 -200 -121 -269 -10
-19 -11 -33 -5 -39 6 -6 15 4 25 28 9 21 16 39 16 41 0 2 7 12 15 21 8 10 14
20 13 23 -2 3 4 17 13 30 23 37 101 248 96 263 -2 7 -8 4 -15 -9z"/>
<path d="M4616 1940 c-3 -8 -21 -60 -39 -116 -31 -90 -91 -223 -128 -282 -16
-25 -4 -42 15 -21 47 47 182 390 166 418 -8 14 -9 14 -14 1z"/>
<path d="M3670 1885 c-8 -10 -9 -15 -1 -15 6 0 34 -15 63 -34 29 -18 63 -36
76 -40 12 -4 22 -11 22 -15 0 -7 43 -31 55 -31 17 0 -3 19 -46 45 -28 17 -56
35 -63 41 -12 12 -56 37 -68 40 -5 1 -13 2 -19 3 -5 0 -7 6 -4 11 9 15 -1 12
-15 -5z"/>
<path d="M597 1814 c-8 -8 26 -97 50 -132 23 -35 53 -101 53 -117 0 -15 28
-40 36 -33 3 3 -22 59 -55 124 -34 66 -61 127 -61 136 0 18 -14 31 -23 22z"/>
<path d="M530 1769 c0 -9 66 -148 74 -156 5 -5 56 22 56 29 0 14 -21 19 -35 8
-10 -9 -18 0 -39 46 -14 31 -26 63 -26 70 0 8 -7 14 -15 14 -8 0 -15 -5 -15
-11z"/>
<path d="M3900 1741 c0 -5 71 -50 158 -101 86 -50 164 -96 172 -101 8 -5 23
-12 33 -15 9 -4 17 -10 17 -15 0 -5 5 -9 10 -9 22 0 8 21 -27 40 -116 64 -154
86 -170 98 -23 16 -185 112 -190 112 -1 0 -3 -4 -3 -9z"/>
<path d="M1736 1659 c104 -108 307 -228 469 -279 123 -38 314 -65 289 -41 -5
5 -27 12 -49 15 -148 20 -241 44 -337 89 -29 13 -68 30 -87 38 -37 14 -153 89
-188 121 -12 12 -20 25 -16 31 3 6 1 7 -5 3 -13 -8 -64 34 -59 49 3 5 -9 11
-26 12 l-31 2 40 -40z"/>
<path d="M1770 1690 c0 -5 7 -10 16 -10 8 0 12 -5 9 -10 -4 -6 -2 -9 3 -8 6 2
31 -14 56 -34 24 -21 48 -38 51 -38 3 0 34 -19 68 -41 69 -46 168 -99 186 -99
6 0 11 -4 11 -10 0 -5 8 -10 18 -10 9 0 53 -11 97 -25 44 -14 91 -25 105 -25
14 0 41 -6 61 -13 20 -7 58 -10 85 -8 45 4 40 6 -72 26 -244 46 -404 118 -629
285 -41 30 -65 38 -65 20z"/>
<path d="M3325 1659 c-36 -37 -156 -119 -173 -119 -16 0 -15 -21 2 -43 13 -16
17 -15 77 19 72 40 110 68 181 131 45 40 47 43 23 43 -14 0 -25 -4 -25 -10 0
-5 -7 -10 -17 -10 -9 0 -14 -3 -10 -6 9 -9 -39 -50 -113 -98 -69 -45 -100 -60
-100 -48 1 9 27 28 108 76 34 21 62 42 62 48 0 6 10 19 22 29 14 12 16 19 7
18 -8 0 -27 -14 -44 -30z"/>
<path d="M863 1573 c-13 -2 -23 -9 -23 -14 0 -11 39 -2 55 12 9 9 7 10 -32 2z"/>
<path d="M987 1558 c-3 -9 1 -28 9 -43 13 -26 13 -27 -6 -22 -21 5 -25 0 -12
-21 7 -10 15 -9 42 4 28 14 31 19 18 28 -8 6 -22 24 -30 40 -11 21 -16 25 -21
14z"/>
<path d="M641 1541 c-10 -6 -10 -13 -2 -28 5 -11 7 -24 3 -28 -4 -4 0 -5 8 -3
8 3 14 11 12 18 -1 7 2 18 8 24 17 21 -4 33 -29 17z"/>
<path d="M795 1540 c-3 -5 1 -10 9 -10 8 0 18 5 21 10 3 6 -1 10 -9 10 -8 0
-18 -4 -21 -10z"/>
<path d="M4372 1530 c0 -14 2 -19 5 -12 2 6 2 18 0 25 -3 6 -5 1 -5 -13z"/>
<path d="M4338 1508 c-10 -10 -15 -18 -11 -18 4 0 -4 -12 -18 -27 -42 -47 -89
-111 -89 -122 0 -5 -3 -11 -7 -13 -5 -1 -31 -30 -59 -63 l-51 -60 296 0 296 0
-50 51 c-48 49 -167 181 -192 213 -19 25 -15 -1 4 -29 20 -29 56 -69 130 -148
29 -30 50 -59 47 -64 -3 -4 -111 -8 -240 -8 -195 0 -234 2 -234 14 0 8 4 16 8
18 4 2 23 25 42 52 19 28 41 57 48 65 40 49 62 80 62 88 0 5 9 19 21 31 25 27
22 46 -3 20z"/>
<path d="M730 1504 c-19 -8 -93 -73 -165 -144 -71 -71 -138 -135 -148 -142
-14 -11 9 -12 135 -10 84 2 212 -1 283 -6 72 -5 131 -8 133 -7 2 2 -10 22 -26
46 -30 44 -67 103 -138 216 l-39 61 -35 -14z m85 -105 c28 -45 62 -101 77
-125 15 -24 24 -44 20 -45 -23 -2 -436 2 -439 4 -1 2 32 37 75 79 42 41 96 95
119 121 40 43 65 58 88 50 6 -2 33 -40 60 -84z"/>
<path d="M1954 1427 c-6 -12 -23 -44 -38 -70 -15 -27 -26 -53 -24 -59 2 -5 15
12 28 38 13 27 32 61 42 76 20 28 22 38 11 38 -5 0 -13 -10 -19 -23z"/>
<path d="M1140 1364 c0 -8 5 -12 10 -9 6 4 8 11 5 16 -9 14 -15 11 -15 -7z"/>
<path d="M1865 1259 c-4 -6 -5 -12 -2 -15 2 -3 7 2 10 11 7 17 1 20 -8 4z"/>
<path d="M1840 1220 c0 -5 5 -10 11 -10 5 0 7 5 4 10 -3 6 -8 10 -11 10 -2 0
-4 -4 -4 -10z"/>
<path d="M1005 1150 c-16 -16 -38 -30 -48 -30 -16 0 -10 -10 28 -45 26 -25 45
-49 41 -52 -3 -4 -26 13 -50 36 -29 29 -50 42 -60 38 -21 -8 -20 -27 2 -27 9
0 37 -18 61 -40 49 -44 50 -44 103 15 28 30 36 55 19 55 -5 0 -12 -8 -16 -17
-5 -15 -11 -10 -28 22 -11 22 -20 48 -18 58 3 23 -1 22 -34 -13z m34 -56 c37
-63 23 -75 -23 -18 -23 29 -26 38 -15 45 8 5 15 9 16 9 0 0 10 -16 22 -36z"/>
<path d="M1756 1053 c-6 -14 -5 -15 5 -6 7 7 10 15 7 18 -3 3 -9 -2 -12 -12z"/>
<path d="M1601 1023 c-10 -22 -9 -29 4 -42 15 -15 18 -14 36 8 23 28 24 47 3
55 -25 10 -30 7 -43 -21z"/>
<path d="M3978 1005 c-27 -24 -48 -46 -48 -49 0 -17 30 -2 60 29 33 34 60 45
60 25 0 -5 -16 -22 -35 -37 -19 -15 -35 -34 -35 -40 0 -19 14 -16 36 8 10 12
31 28 47 35 l28 15 -30 29 c-16 17 -31 30 -33 30 -2 -1 -24 -20 -50 -45z"/>
<path d="M1220 1002 c0 -13 259 -194 272 -190 6 2 -33 35 -88 73 -54 38 -115
81 -135 97 -38 29 -49 34 -49 20z"/>
<path d="M1693 963 c-13 -27 -9 -44 6 -27 13 14 24 54 14 54 -4 0 -14 -12 -20
-27z"/>
<path d="M1192 962 c6 -15 171 -159 225 -196 29 -20 55 -32 58 -26 3 5 -16 23
-42 41 -27 18 -87 68 -135 111 -76 69 -117 95 -106 70z"/>
<path d="M1165 942 c-12 -12 -1 -24 78 -85 99 -77 126 -92 72 -40 -84 79 -145
130 -150 125z"/>
<path d="M3780 866 c-25 -18 -65 -45 -90 -58 -25 -14 -68 -39 -96 -55 -118
-70 -344 -157 -519 -198 -99 -24 -100 -24 -88 -36 7 -7 42 -3 115 15 227 54
441 144 616 258 53 35 105 67 115 71 19 7 19 28 1 34 -5 1 -29 -13 -54 -31z"/>
<path d="M3882 868 c-7 -7 -16 -13 -20 -13 -4 0 -32 -18 -62 -41 -185 -135
-510 -277 -725 -315 -82 -15 -77 -12 -70 -31 6 -14 20 -12 113 12 260 69 470
159 642 276 47 32 102 69 123 83 20 13 37 28 37 33 0 12 -24 10 -38 -4z"/>
<path d="M1410 820 c30 -22 59 -40 64 -40 5 0 -16 18 -47 40 -30 22 -59 40
-64 40 -4 0 17 -18 47 -40z"/>
<path d="M1514 778 c3 -25 30 -36 41 -18 8 13 -12 40 -31 40 -9 0 -13 -8 -10
-22z"/>
<path d="M1602 748 c-16 -16 -15 -28 3 -28 8 0 15 2 15 4 0 2 3 11 6 20 7 19
-7 21 -24 4z"/>
<path d="M1490 725 c0 -18 -26 -20 -33 -2 -3 9 -9 8 -22 -5 -20 -19 -14 -48
11 -48 8 0 24 10 33 22 l18 21 36 -27 c35 -27 36 -27 46 -7 9 16 8 22 -8 31
-11 5 -27 10 -35 10 -9 0 -16 5 -16 10 0 6 -7 10 -15 10 -8 0 -15 -7 -15 -15z"/>
<path d="M1645 730 c-4 -6 2 -13 12 -17 10 -4 65 -26 122 -49 58 -24 107 -41
110 -39 8 9 -12 21 -74 45 -33 13 -64 26 -70 30 -28 19 -95 39 -100 30z"/>
<path d="M1636 663 c-9 -21 4 -33 84 -76 107 -57 102 -58 138 16 2 4 -3 7 -10
7 -8 0 -52 16 -98 35 -96 40 -105 41 -114 18z m104 -37 c79 -32 112 -56 76
-56 -17 0 -176 77 -176 85 0 10 17 5 100 -29z"/>
<path d="M1510 650 c0 -13 48 -36 57 -26 9 8 -6 22 -34 31 -14 4 -23 2 -23 -5z"/>
<path d="M2564 643 c-18 -3 -20 -12 -23 -83 -1 -46 2 -81 9 -85 6 -4 10 19 10
69 0 66 2 75 20 81 18 6 29 27 13 24 -5 -1 -17 -4 -29 -6z"/>
<path d="M2617 644 c-4 -4 -7 -34 -7 -66 0 -45 -7 -72 -31 -119 -25 -51 -27
-60 -13 -57 24 4 54 85 64 168 8 61 3 89 -13 74z"/>
<path d="M1900 630 c0 -5 5 -10 11 -10 5 0 7 5 4 10 -3 6 -8 10 -11 10 -2 0
-4 -4 -4 -10z"/>
<path d="M2500 555 c0 -61 3 -85 13 -85 9 0 12 24 12 85 0 61 -3 85 -12 85
-10 0 -13 -24 -13 -85z"/>
<path d="M1927 593 c-19 -18 -1 -31 61 -42 37 -7 79 -15 94 -17 28 -6 45 -21
35 -31 -5 -5 -155 28 -188 42 -10 4 -19 0 -22 -9 -7 -17 -6 -17 98 -36 33 -6
73 -16 88 -22 33 -13 33 -13 42 35 7 35 6 37 -19 37 -33 0 -157 30 -172 41 -6
5 -14 6 -17 2z"/>
<path d="M2213 491 c-6 -25 -10 -47 -9 -48 1 -1 46 -3 101 -5 99 -3 100 -3 97
20 -2 13 2 29 8 37 15 18 -45 37 -125 40 l-61 2 -11 -46z m157 9 c0 -39 3 -38
-92 -25 -34 4 -46 10 -42 20 3 8 13 11 21 8 11 -4 14 -2 9 5 -5 9 9 12 48 12
49 0 56 -2 56 -20z m-77 -47 c-13 -2 -33 -2 -45 0 -13 2 -3 4 22 4 25 0 35 -2
23 -4z"/>
<path d="M2280 499 c0 -5 9 -9 20 -9 11 0 20 2 20 4 0 2 -9 6 -20 9 -11 3 -20
1 -20 -4z"/>
<path d="M2798 497 c-98 -8 -128 -13 -128 -24 0 -10 9 -13 33 -9 17 3 79 8
136 11 57 4 110 9 118 12 21 8 15 23 -9 21 -13 -1 -80 -6 -150 -11z"/>
</g>
</svg>
