<?xml version="1.0" standalone="no"?>
<!DOCTYPE svg PUBLIC "-//W3C//DTD SVG 20010904//EN"
 "http://www.w3.org/TR/2001/REC-SVG-20010904/DTD/svg10.dtd">
<svg version="1.0" xmlns="http://www.w3.org/2000/svg"
 width="512.000000pt" height="512.000000pt" viewBox="0 0 512.000000 512.000000"
 preserveAspectRatio="xMidYMid meet">
<metadata>
Created by potrace 1.16, written by Peter Selinger 2001-2019
</metadata>
<g transform="translate(0.000000,512.000000) scale(0.100000,-0.100000)"
fill="#000000" stroke="none">
<path d="M464 4938 c3 -100 5 -195 5 -210 1 -16 5 -28 11 -28 16 0 8 412 -8
418 -10 3 -12 -32 -8 -180z"/>
<path d="M574 4228 c5 -962 7 -1020 24 -1026 7 -2 9 14 5 53 -5 43 -3 59 8 66
11 7 12 11 1 17 -11 7 -13 179 -15 892 -2 700 -5 884 -15 888 -10 3 -11 -174
-8 -890z"/>
<path d="M690 4188 c0 -670 -3 -929 -11 -918 -9 12 -10 12 -5 -3 3 -10 6 -44
7 -75 1 -48 2 -52 9 -29 5 16 6 35 4 42 -3 7 -1 15 4 19 10 6 37 -148 28 -162
-3 -5 4 -18 16 -28 21 -19 21 -19 9 3 -6 12 -11 39 -11 60 0 21 -7 63 -15 93
-12 46 -14 170 -13 790 1 404 2 825 3 934 0 151 -3 200 -12 203 -10 4 -13
-186 -13 -929z"/>
<path d="M788 4044 c-2 -591 0 -1078 4 -1082 3 -4 8 -16 11 -27 3 -11 5 476 6
1083 1 722 -2 1102 -9 1102 -6 0 -11 -373 -12 -1076z"/>
<path d="M1039 4970 c-10 -296 -8 -2020 1 -2020 5 0 9 84 9 197 0 130 4 199
11 201 5 2 7 9 3 15 -5 7 -8 182 -9 390 0 207 3 373 6 367 4 -6 5 11 3 37 -1
26 -4 235 -5 463 -2 448 -11 608 -19 350z"/>
<path d="M3897 5073 c-43 -135 -63 -233 -47 -233 5 0 10 8 10 18 0 18 15 79
49 195 22 75 11 93 -12 20z"/>
<path d="M3992 5093 c-6 -16 -40 -104 -76 -196 -65 -168 -88 -246 -69 -234 6
4 13 19 16 35 6 30 140 375 157 405 8 13 7 17 -4 17 -8 0 -19 -12 -24 -27z"/>
<path d="M4500 4893 c0 -124 3 -223 7 -219 10 10 10 446 1 446 -5 0 -8 -102
-8 -227z"/>
<path d="M4057 4983 c-14 -16 -36 -50 -48 -78 -12 -27 -31 -70 -42 -95 -11
-25 -30 -72 -43 -105 -12 -33 -32 -81 -43 -107 -21 -47 -45 -147 -37 -156 3
-2 12 22 22 54 21 74 170 429 193 464 40 57 39 65 -2 23z"/>
<path d="M4080 4840 c0 -6 -11 -27 -25 -48 -13 -20 -55 -107 -93 -192 -38 -85
-79 -177 -91 -203 -12 -27 -21 -61 -19 -75 2 -22 9 -11 35 53 49 124 156 365
186 418 30 53 31 57 17 57 -5 0 -10 -5 -10 -10z"/>
<path d="M1080 4803 c2 -28 28 -113 29 -93 1 40 -11 100 -20 100 -5 0 -9 -3
-9 -7z"/>
<path d="M1226 4742 c-3 -6 -1 -14 5 -17 15 -10 25 3 12 16 -7 7 -13 7 -17 1z"/>
<path d="M465 4615 c0 -49 3 -65 14 -65 11 0 13 12 8 56 -8 80 -22 86 -22 9z"/>
<path d="M1116 4643 c9 -38 14 -42 14 -10 0 14 -5 29 -10 32 -7 4 -8 -3 -4
-22z"/>
<path d="M2530 4635 c-33 -19 -21 -19 21 0 19 8 27 14 19 14 -8 0 -26 -6 -40
-14z"/>
<path d="M4085 4639 c-4 -6 -5 -12 -2 -15 2 -3 7 2 10 11 7 17 1 20 -8 4z"/>
<path d="M4503 4585 c0 -38 2 -53 4 -32 2 20 2 52 0 70 -2 17 -4 1 -4 -38z"/>
<path d="M2601 4605 c-1 -30 0 -30 42 -25 l42 5 -37 3 c-29 2 -38 8 -41 25 -3
16 -5 14 -6 -8z"/>
<path d="M4226 4604 c-20 -19 -20 -25 -2 -18 8 3 17 12 20 20 7 18 1 18 -18
-2z"/>
<path d="M4060 4599 c0 -5 5 -7 10 -4 6 3 10 8 10 11 0 2 -4 4 -10 4 -5 0 -10
-5 -10 -11z"/>
<path d="M1131 4589 c-1 -9 13 -61 31 -115 30 -94 32 -109 36 -291 l4 -192 47
6 c42 5 48 3 58 -18 8 -17 12 -19 12 -8 1 25 -27 43 -64 42 -30 -1 -33 2 -38
36 -3 20 -4 77 -1 126 5 106 -6 192 -42 307 -32 103 -42 129 -43 107z"/>
<path d="M2505 4580 c6 -18 4 -22 -7 -17 -8 3 -21 1 -29 -4 -10 -6 -4 -9 19
-9 25 0 32 4 32 19 0 11 -5 23 -11 27 -8 4 -9 -1 -4 -16z"/>
<path d="M2435 4570 c-3 -5 -1 -10 4 -10 6 0 11 5 11 10 0 6 -2 10 -4 10 -3 0
-8 -4 -11 -10z"/>
<path d="M4131 4504 c-82 -103 -208 -365 -174 -364 4 0 30 42 56 93 44 84 47
103 4 26 -10 -17 -20 -29 -23 -26 -8 8 82 184 118 231 17 23 45 56 62 73 16
18 27 35 24 38 -3 3 -33 -29 -67 -71z m-150 -301 c-12 -20 -14 -14 -5 12 4 9
9 14 11 11 3 -2 0 -13 -6 -23z"/>
<path d="M4260 4565 c0 -8 2 -15 4 -15 2 0 6 7 10 15 3 8 1 15 -4 15 -6 0 -10
-7 -10 -15z"/>
<path d="M1245 4560 c-4 -6 -3 -16 3 -22 6 -6 12 -6 17 2 4 6 3 16 -3 22 -6 6
-12 6 -17 -2z"/>
<path d="M1337 4563 c-3 -5 -1 -17 4 -28 7 -17 8 -17 8 8 1 27 -4 34 -12 20z"/>
<path d="M4006 4487 c-72 -150 -129 -292 -130 -322 -1 -16 -5 -37 -8 -45 -45
-110 -70 -212 -70 -279 0 -40 3 -76 6 -79 3 -3 6 31 6 76 0 67 5 95 30 157 56
140 72 197 59 205 -6 4 -7 9 -3 11 9 4 54 90 54 103 0 7 86 203 100 228 12 21
13 28 3 28 -5 -1 -26 -38 -47 -83z m-119 -319 c-3 -8 -6 -5 -6 6 -1 11 2 17 5
13 3 -3 4 -12 1 -19z"/>
<path d="M1083 4490 c0 -36 2 -50 4 -32 2 17 2 47 0 65 -2 17 -4 3 -4 -33z"/>
<path d="M4220 4539 c0 -5 5 -7 10 -4 6 3 10 8 10 11 0 2 -4 4 -10 4 -5 0 -10
-5 -10 -11z"/>
<path d="M2688 4534 c-5 -4 -8 -20 -8 -36 0 -31 24 -48 43 -29 8 8 7 11 -5 11
-11 0 -18 10 -20 31 -2 17 -6 27 -10 23z"/>
<path d="M2382 4460 c-1 -42 -6 -80 -11 -85 -6 -6 -1 -14 14 -22 15 -6 27 -7
31 -2 3 5 -2 9 -10 9 -12 0 -16 17 -19 88 l-3 87 -2 -75z"/>
<path d="M2530 4523 c-5 -134 3 -570 11 -578 6 -6 9 86 9 283 -1 165 -6 294
-11 298 -5 3 -9 2 -9 -3z"/>
<path d="M4190 4520 c-9 -6 -10 -10 -3 -10 6 0 15 5 18 10 8 12 4 12 -15 0z"/>
<path d="M5050 4468 c-19 -35 -70 -126 -115 -203 -96 -164 -139 -244 -134
-250 3 -2 33 47 68 108 176 310 223 398 219 402 -3 3 -20 -23 -38 -57z"/>
<path d="M4502 4480 c0 -14 2 -19 5 -12 2 6 2 18 0 25 -3 6 -5 1 -5 -13z"/>
<path d="M4166 4481 c-4 -7 -5 -15 -2 -18 9 -9 19 4 14 18 -4 11 -6 11 -12 0z"/>
<path d="M2742 4400 c2 -38 7 -64 13 -61 6 1 9 6 8 10 -1 3 -4 28 -7 55 -7 72
-18 70 -14 -4z"/>
<path d="M4148 4443 c-20 -5 -22 -12 -10 -31 6 -9 12 -6 20 13 6 14 11 24 9
24 -1 -1 -10 -3 -19 -6z"/>
<path d="M4099 4400 c-6 -16 -15 -30 -20 -30 -5 0 -9 -4 -9 -10 0 -22 28 4 38
35 13 43 5 47 -9 5z"/>
<path d="M4503 4395 c0 -22 2 -30 4 -17 2 12 2 30 0 40 -3 9 -5 -1 -4 -23z"/>
<path d="M467 4414 c-4 -4 -7 -112 -7 -240 0 -199 2 -233 14 -228 12 5 15 41
15 207 0 197 -6 276 -22 261z"/>
<path d="M1090 4393 c0 -19 27 -120 40 -143 23 -42 18 -13 -10 70 -16 47 -29
80 -30 73z"/>
<path d="M1142 4370 c0 -14 2 -19 5 -12 2 6 2 18 0 25 -3 6 -5 1 -5 -13z"/>
<path d="M1330 4381 c0 -6 5 -13 10 -16 6 -3 10 1 10 9 0 9 -4 16 -10 16 -5 0
-10 -4 -10 -9z"/>
<path d="M4502 4325 c0 -16 2 -22 5 -12 2 9 2 23 0 30 -3 6 -5 -1 -5 -18z"/>
<path d="M1150 4321 c0 -6 4 -13 10 -16 6 -3 7 1 4 9 -7 18 -14 21 -14 7z"/>
<path d="M2320 4310 c0 -5 5 -10 11 -10 5 0 7 5 4 10 -3 6 -8 10 -11 10 -2 0
-4 -4 -4 -10z"/>
<path d="M2780 4296 c0 -14 5 -26 10 -26 6 0 10 9 10 19 0 11 -4 23 -10 26 -6
4 -10 -5 -10 -19z"/>
<path d="M4080 4305 c0 -8 2 -15 4 -15 2 0 6 7 10 15 3 8 1 15 -4 15 -6 0 -10
-7 -10 -15z"/>
<path d="M1082 4280 c0 -19 2 -27 5 -17 2 9 2 25 0 35 -3 9 -5 1 -5 -18z"/>
<path d="M4504 4130 c0 -80 2 -112 3 -72 2 39 2 105 0 145 -1 39 -3 7 -3 -73z"/>
<path d="M2307 4253 c-4 -3 -7 -11 -7 -17 0 -6 5 -5 12 2 6 6 9 14 7 17 -3 3
-9 2 -12 -2z"/>
<path d="M1081 4238 c-3 -24 23 -107 35 -112 14 -5 21 10 6 16 -4 2 -15 26
-24 53 -9 28 -17 47 -17 43z"/>
<path d="M1118 4200 c9 -21 18 -35 20 -30 3 9 -25 70 -33 70 -2 0 4 -18 13
-40z"/>
<path d="M3842 4215 c0 -16 2 -22 5 -12 2 9 2 23 0 30 -3 6 -5 -1 -5 -18z"/>
<path d="M2760 4185 c0 -25 5 -45 10 -45 6 0 10 18 10 39 0 33 4 40 23 44 16
3 13 5 -10 6 -33 1 -33 0 -33 -44z"/>
<path d="M2315 4125 c0 -47 3 -85 8 -85 4 0 7 24 7 54 0 29 3 68 6 85 5 23 3
31 -7 31 -11 0 -14 -20 -14 -85z"/>
<path d="M4211 4131 c-7 -5 -12 -14 -9 -21 2 -7 10 -4 22 9 19 21 12 28 -13
12z"/>
<path d="M1092 4075 c0 -16 2 -22 5 -12 2 9 2 23 0 30 -3 6 -5 -1 -5 -18z"/>
<path d="M2778 4094 c-5 -4 -8 -41 -8 -81 0 -71 1 -74 22 -71 12 2 23 9 26 16
2 7 -2 10 -12 6 -13 -5 -16 6 -18 66 -2 39 -6 68 -10 64z"/>
<path d="M4147 4077 c-12 -19 -12 -24 -2 -24 7 0 18 11 24 24 6 13 7 23 2 23
-5 0 -16 -10 -24 -23z"/>
<path d="M1116 4077 c3 -10 9 -15 12 -12 3 3 0 11 -7 18 -10 9 -11 8 -5 -6z"/>
<path d="M4255 4080 c-3 -5 -2 -10 4 -10 5 0 13 5 16 10 3 6 2 10 -4 10 -5 0
-13 -4 -16 -10z"/>
<path d="M4195 4049 c-12 -18 3 -22 20 -5 14 14 14 16 1 16 -8 0 -18 -5 -21
-11z"/>
<path d="M1106 4006 c5 -33 11 -43 20 -33 4 4 2 12 -3 19 -6 7 -13 20 -16 28
-2 8 -3 2 -1 -14z"/>
<path d="M5029 3913 c-2 -71 -2 -191 2 -268 4 -115 5 -92 7 128 1 147 0 267
-2 267 -2 0 -5 -57 -7 -127z"/>
<path d="M0 4020 c0 -5 5 -10 10 -10 6 0 10 5 10 10 0 6 -4 10 -10 10 -5 0
-10 -4 -10 -10z"/>
<path d="M2296 4009 c4 -13 6 -37 4 -54 -8 -70 0 -109 17 -91 4 4 2 16 -5 26
-9 15 -9 24 -1 38 13 21 5 87 -12 98 -8 4 -9 -1 -3 -17z"/>
<path d="M4165 4020 c-4 -7 -16 -10 -26 -7 -14 4 -21 -1 -25 -19 -3 -13 -11
-28 -18 -32 -17 -11 -38 -52 -26 -52 5 0 10 3 10 8 0 10 41 53 76 81 15 12 25
24 22 27 -4 3 -9 0 -13 -6z"/>
<path d="M3926 3983 c-6 -14 -5 -15 5 -6 7 7 10 15 7 18 -3 3 -9 -2 -12 -12z"/>
<path d="M41 3949 c2 -30 3 -35 6 -16 2 15 9 25 14 22 15 -10 10 12 -6 25 -13
11 -15 7 -14 -31z"/>
<path d="M4500 3693 c0 -157 3 -283 8 -279 4 4 7 133 7 287 0 153 -3 279 -7
279 -5 0 -8 -129 -8 -287z"/>
<path d="M4966 3965 c-3 -9 -5 -141 -4 -293 l2 -277 6 290 c3 160 4 291 4 293
-1 2 -4 -4 -8 -13z"/>
<path d="M1084 3825 c0 -82 2 -115 3 -72 2 43 2 110 0 150 -1 40 -3 5 -3 -78z"/>
<path d="M3901 3958 c0 -10 -5 -18 -9 -18 -5 0 -21 -37 -36 -82 -15 -46 -32
-92 -37 -103 -11 -24 -25 -94 -23 -115 1 -8 2 -37 3 -64 0 -27 4 -47 7 -43 4
3 6 37 5 74 -1 55 6 88 34 168 20 55 43 115 51 133 8 18 13 40 11 50 -4 16 -5
16 -6 0z"/>
<path d="M4758 3930 c-22 -39 -15 -39 12 0 12 17 18 30 13 30 -4 0 -16 -14
-25 -30z"/>
<path d="M80 3936 c0 -3 14 -20 31 -38 53 -57 57 -67 50 -146 -4 -41 -3 -75 0
-78 8 -4 19 56 19 106 l1 35 36 -40 c20 -22 65 -71 100 -109 59 -64 63 -71 65
-120 3 -89 4 -95 11 -102 4 -4 7 30 7 75 l0 81 -53 53 c-29 28 -99 105 -156
170 -96 109 -111 124 -111 113z"/>
<path d="M4906 3923 c-4 -9 -2 -21 4 -27 7 -7 10 -2 10 17 0 31 -5 34 -14 10z"/>
<path d="M465 3920 c-8 -13 6 -110 16 -110 12 0 11 107 0 115 -5 3 -12 1 -16
-5z"/>
<path d="M1310 3920 c0 -23 29 -131 44 -165 8 -16 24 -63 37 -102 13 -40 26
-73 30 -73 8 0 -9 57 -70 235 -22 66 -41 113 -41 105z"/>
<path d="M2801 3916 l-34 -12 -2 -82 c0 -45 2 -82 5 -82 3 0 12 5 20 10 10 6
11 10 3 10 -9 0 -13 20 -13 65 0 63 0 64 35 81 55 26 46 32 -14 10z"/>
<path d="M4848 3880 c-13 -92 -22 -450 -12 -450 5 0 9 42 8 92 0 51 4 152 8
223 10 149 7 222 -4 135z"/>
<path d="M2530 3885 c0 -19 4 -35 10 -35 5 0 9 16 8 35 -1 19 -5 35 -10 35 -4
0 -8 -16 -8 -35z"/>
<path d="M1372 3823 c17 -49 36 -92 41 -98 7 -7 7 -3 3 10 -4 11 -19 55 -33
98 -15 42 -30 77 -34 77 -5 0 6 -39 23 -87z"/>
<path d="M4280 3890 c-9 -6 -10 -10 -3 -10 6 0 15 5 18 10 8 12 4 12 -15 0z"/>
<path d="M4035 3879 c-4 -6 -5 -12 -2 -15 2 -3 7 2 10 11 7 17 1 20 -8 4z"/>
<path d="M4240 3870 c-9 -6 -10 -10 -3 -10 6 0 15 5 18 10 8 12 4 12 -15 0z"/>
<path d="M4786 3802 c-7 -76 -5 -104 9 -90 3 3 5 43 3 89 l-3 84 -9 -83z"/>
<path d="M41 3854 c0 -11 3 -14 6 -6 3 7 2 16 -1 19 -3 4 -6 -2 -5 -13z"/>
<path d="M2300 3826 c0 -14 5 -26 10 -26 6 0 10 9 10 19 0 11 -4 23 -10 26 -6
4 -10 -5 -10 -19z"/>
<path d="M3304 3835 c-17 -14 -15 -15 31 -9 65 8 130 -10 169 -47 17 -16 36
-29 41 -29 17 1 -58 61 -100 81 -48 23 -114 24 -141 4z"/>
<path d="M4137 3798 c-32 -34 -93 -126 -158 -239 -131 -225 -144 -250 -141
-269 2 -10 -1 -9 -9 3 -6 11 -10 50 -7 95 3 73 7 85 76 221 52 102 70 147 63
154 -10 10 -16 -2 -12 -25 0 -5 -3 -8 -8 -8 -14 0 -97 -155 -122 -226 -16 -45
-20 -78 -17 -141 3 -70 1 -83 -14 -86 -9 -3 -19 0 -21 7 -3 6 -9 0 -15 -14 -8
-20 -6 -26 6 -29 9 -2 21 4 27 13 14 18 25 11 25 -16 0 -35 15 -17 75 88 74
130 194 318 206 322 5 2 9 10 9 17 0 12 65 66 140 117 14 9 18 15 10 14 -8 -1
-35 -16 -59 -34 -23 -17 -50 -34 -60 -37 -9 -2 -31 -27 -50 -55 -40 -58 -53
-60 -19 -3 63 107 74 123 83 123 15 0 59 50 51 57 -4 4 -30 -18 -59 -49z"/>
<path d="M4897 3743 c-7 -112 -10 -479 -3 -472 5 6 18 579 13 579 -2 0 -7 -48
-10 -107z"/>
<path d="M2530 3751 c0 -50 4 -93 10 -96 6 -4 9 28 7 89 -1 53 -5 96 -9 96 -5
0 -8 -40 -8 -89z"/>
<path d="M50 3820 c0 -5 5 -10 11 -10 5 0 7 5 4 10 -3 6 -8 10 -11 10 -2 0 -4
-4 -4 -10z"/>
<path d="M127 3813 c-11 -10 -8 -63 3 -63 6 0 10 16 10 35 0 36 -2 40 -13 28z"/>
<path d="M3260 3805 c-11 -13 -10 -14 4 -9 9 3 16 10 16 15 0 13 -6 11 -20 -6z"/>
<path d="M3995 3809 c-4 -6 -5 -12 -2 -15 2 -3 7 2 10 11 7 17 1 20 -8 4z"/>
<path d="M2297 3758 c8 -42 10 -44 15 -15 2 13 -1 29 -9 35 -10 10 -11 6 -6
-20z"/>
<path d="M470 3780 c-1 -3 -4 -63 -7 -135 -3 -98 -1 -134 9 -148 11 -15 13 3
15 114 1 72 -2 141 -7 153 -5 11 -9 19 -10 16z"/>
<path d="M1570 3752 c0 -24 53 -83 88 -98 51 -21 65 -10 17 12 -38 18 -58 36
-90 79 -9 12 -14 15 -15 7z"/>
<path d="M216 3702 c2 -61 6 -69 14 -27 7 39 4 65 -9 65 -3 0 -6 -17 -5 -38z"/>
<path d="M2811 3701 c-1 -28 3 -41 8 -35 6 5 6 24 1 44 l-8 35 -1 -44z"/>
<path d="M3550 3730 c0 -5 5 -10 11 -10 5 0 7 5 4 10 -3 6 -8 10 -11 10 -2 0
-4 -4 -4 -10z"/>
<path d="M1420 3704 c0 -7 7 -27 15 -45 10 -24 14 -28 14 -14 0 21 -28 78 -29
59z"/>
<path d="M2302 3685 c0 -16 2 -22 5 -12 2 9 2 23 0 30 -3 6 -5 -1 -5 -18z"/>
<path d="M4781 3683 c0 -12 -4 -30 -7 -40 -5 -17 -5 -17 6 0 6 10 9 28 7 40
-4 22 -4 22 -6 0z"/>
<path d="M250 3651 c0 -22 5 -43 10 -46 6 -4 10 12 10 39 0 25 -4 46 -10 46
-5 0 -10 -18 -10 -39z"/>
<path d="M297 3643 c-12 -19 -11 -83 1 -83 4 0 9 20 10 45 1 43 -2 54 -11 38z"/>
<path d="M4303 3623 c-48 -23 -68 -43 -43 -43 6 0 10 4 10 8 0 9 60 35 78 33
6 -1 12 5 12 14 0 8 -1 15 -2 14 -2 0 -27 -12 -55 -26z"/>
<path d="M1065 3631 c-3 -6 -3 -16 0 -21 3 -6 6 -55 6 -109 0 -69 4 -108 14
-128 l15 -28 0 38 c0 23 -5 37 -12 37 -10 0 -9 3 1 9 7 5 11 17 7 27 -3 11 -8
55 -11 98 -5 83 -9 95 -20 77z"/>
<path d="M1725 3630 c3 -5 13 -10 20 -10 8 0 39 -11 69 -25 60 -27 82 -32 51
-12 -23 15 -123 57 -137 57 -5 0 -6 -4 -3 -10z"/>
<path d="M2476 3613 c11 -24 11 -82 0 -113 -7 -20 -6 -23 5 -12 18 17 39 15
55 -5 12 -17 13 -16 14 4 0 12 -4 24 -9 28 -9 5 -6 74 4 103 3 8 0 12 -7 10
-7 -3 -15 -15 -19 -29 l-6 -24 -8 28 c-4 15 -14 27 -22 27 -11 0 -13 -5 -7
-17z m44 -73 c0 -16 -4 -30 -9 -30 -5 0 -9 14 -9 30 1 17 5 30 10 30 4 0 8
-13 8 -30z"/>
<path d="M2571 3599 c-11 -33 3 -119 20 -119 12 0 11 5 -2 50 -9 30 -8 43 5
68 14 27 14 32 2 32 -8 0 -19 -14 -25 -31z"/>
<path d="M2703 3604 c-3 -8 -1 -20 6 -27 8 -8 11 -4 11 16 0 30 -7 35 -17 11z"/>
<path d="M333 3577 c-2 -19 4 -42 12 -53 14 -17 15 -15 11 31 -5 60 -4 55 -13
55 -5 0 -9 -15 -10 -33z"/>
<path d="M4777 3593 c-11 -11 -8 -163 3 -163 7 0 10 32 8 85 -1 47 -3 85 -3
85 -1 0 -5 -3 -8 -7z"/>
<path d="M1243 3540 c0 -30 2 -43 4 -27 2 15 2 39 0 55 -2 15 -4 2 -4 -28z"/>
<path d="M2775 3580 c-3 -5 -2 -10 4 -10 5 0 13 5 16 10 3 6 2 10 -4 10 -5 0
-13 -4 -16 -10z"/>
<path d="M1461 3564 c0 -11 3 -14 6 -6 3 7 2 16 -1 19 -3 4 -6 -2 -5 -13z"/>
<path d="M4188 3561 c-40 -25 -76 -74 -214 -284 -116 -176 -149 -233 -104
-178 11 13 20 20 20 17 0 -9 -31 -57 -47 -74 -7 -7 -13 -18 -13 -23 0 -26 24
2 86 99 113 177 207 304 249 335 22 16 67 43 100 59 33 17 55 33 49 35 -16 5
-64 -15 -64 -27 0 -6 -4 -8 -10 -5 -5 3 -10 19 -10 36 0 33 -5 34 -42 10z m32
-31 c0 -11 -8 -24 -17 -27 -10 -4 -21 -11 -25 -17 -11 -16 -21 0 -13 23 3 12
13 21 21 21 8 0 14 5 14 10 0 6 5 10 10 10 6 0 10 -9 10 -20z m-87 -71 c-26
-44 -48 -59 -26 -18 16 30 31 48 41 49 2 0 -5 -14 -15 -31z"/>
<path d="M4342 3564 c-7 -8 -8 -14 -3 -14 10 0 25 19 20 25 -2 1 -10 -3 -17
-11z"/>
<path d="M1420 3561 c0 -6 5 -13 10 -16 6 -3 10 1 10 9 0 9 -4 16 -10 16 -5 0
-10 -4 -10 -9z"/>
<path d="M2610 3549 c0 -5 5 -7 10 -4 6 3 10 8 10 11 0 2 -4 4 -10 4 -5 0 -10
-5 -10 -11z"/>
<path d="M2700 3550 c0 -5 5 -10 10 -10 6 0 10 5 10 10 0 6 -4 10 -10 10 -5 0
-10 -4 -10 -10z"/>
<path d="M1430 3522 c0 -6 -12 -12 -27 -14 -16 -2 -27 -8 -25 -16 1 -7 4 -43
7 -80 14 -207 16 -222 36 -222 19 0 26 24 10 34 -14 9 -19 40 -9 66 9 24 10
23 38 -25 16 -28 57 -105 91 -171 43 -84 67 -120 76 -117 12 5 11 8 -1 22 -8
9 -26 45 -41 81 -15 36 -33 72 -41 81 -8 8 -14 23 -14 32 0 9 -7 17 -15 17 -9
0 -15 9 -15 25 0 14 -7 28 -15 31 -8 4 -15 12 -15 20 0 7 -10 23 -22 34 -20
19 -24 19 -34 5 -10 -13 -11 -2 -8 50 2 36 -1 77 -6 90 -8 21 -7 25 11 25 20
0 37 25 25 37 -3 4 -6 1 -6 -5z"/>
<path d="M1141 3504 c0 -11 3 -14 6 -6 3 7 2 16 -1 19 -3 4 -6 -2 -5 -13z"/>
<path d="M1289 3511 c-8 -22 3 -141 12 -135 11 7 12 114 0 133 -5 8 -10 9 -12
2z"/>
<path d="M1330 3413 c-1 -98 -2 -105 -14 -78 l-13 30 1 -47 c1 -27 4 -48 9
-48 4 0 10 -1 15 -2 4 -2 10 17 13 42 l6 45 1 -42 c1 -24 7 -43 12 -43 13 0
13 41 -1 76 -5 16 -11 61 -11 101 -3 115 -18 85 -18 -34z"/>
<path d="M320 3506 c0 -2 8 -10 18 -17 15 -13 16 -12 3 4 -13 16 -21 21 -21
13z"/>
<path d="M1144 3451 c3 -18 6 -47 6 -63 0 -17 4 -27 10 -23 11 7 3 81 -12 105
-6 10 -8 4 -4 -19z"/>
<path d="M1122 3415 c-1 -34 30 -170 41 -181 14 -14 7 57 -8 79 -8 13 -19 47
-24 77 -5 33 -9 43 -9 25z"/>
<path d="M5031 3424 c0 -11 3 -14 6 -6 3 7 2 16 -1 19 -3 4 -6 -2 -5 -13z"/>
<path d="M1247 3393 c-9 -50 -7 -123 3 -123 6 0 10 31 10 75 0 78 -5 95 -13
48z"/>
<path d="M530 3385 c0 -8 5 -15 10 -15 6 0 10 7 10 15 0 8 -4 15 -10 15 -5 0
-10 -7 -10 -15z"/>
<path d="M4502 3370 c0 -14 2 -19 5 -12 2 6 2 18 0 25 -3 6 -5 1 -5 -13z"/>
<path d="M4777 3383 c-10 -10 -8 -85 2 -79 5 3 9 24 9 46 1 42 0 44 -11 33z"/>
<path d="M4350 3370 c-8 -5 -40 -20 -70 -33 -110 -49 -140 -80 -310 -322 -102
-144 -110 -157 -110 -169 0 -6 19 15 41 47 23 32 44 56 47 53 5 -6 -39 -69
-92 -132 -16 -19 -25 -38 -21 -42 4 -4 15 4 24 17 38 58 175 241 223 299 58
71 97 100 207 158 40 21 68 40 62 42 -7 2 -17 -1 -25 -7 -7 -6 -22 -12 -33
-14 -12 -2 -28 -9 -37 -16 -11 -9 -16 -10 -16 -2 0 6 -4 11 -10 11 -5 0 -10
-6 -10 -13 0 -13 -56 -67 -69 -67 -13 0 -77 -73 -148 -169 -2 -2 -6 -2 -9 1
-7 7 97 148 108 148 5 0 8 6 8 13 0 7 9 20 19 29 10 9 24 24 30 34 8 15 12 16
19 6 7 -11 11 -8 15 10 7 25 8 26 110 76 37 19 67 38 67 43 0 11 0 11 -20 -1z
m-374 -396 c-10 -14 -20 -23 -23 -20 -3 3 2 17 11 32 10 14 20 23 23 20 3 -3
-2 -17 -11 -32z"/>
<path d="M532 3303 c2 -31 9 -58 14 -60 6 -2 9 16 7 44 -1 27 -2 54 -2 61 -1
6 -6 12 -12 12 -7 0 -9 -20 -7 -57z"/>
<path d="M1079 3296 c-2 -25 1 -67 7 -93 10 -44 10 -40 6 42 -3 50 -6 91 -7
93 -2 2 -5 -17 -6 -42z"/>
<path d="M1485 3330 c-3 -5 -1 -10 4 -10 6 0 11 5 11 10 0 6 -2 10 -4 10 -3 0
-8 -4 -11 -10z"/>
<path d="M2767 3323 c-4 -3 -7 -20 -7 -38 0 -17 -5 -36 -12 -43 -7 -7 -8 -12
-2 -12 11 0 11 -40 0 -58 -4 -7 -1 -12 8 -12 11 0 16 19 22 80 6 70 9 80 26
80 18 0 19 -9 18 -207 -2 -260 -2 -253 11 -253 6 0 10 30 9 83 -1 45 0 89 4
97 3 8 7 35 8 60 3 43 5 45 38 51 l35 6 -42 2 -43 1 0 48 c0 26 -3 64 -6 85
-6 32 -10 37 -34 37 -15 0 -30 -3 -33 -7z"/>
<path d="M3517 3313 c-10 -9 -9 -43 2 -43 5 0 11 6 14 13 6 17 -7 40 -16 30z"/>
<path d="M4504 3305 c-4 -9 -4 -153 -2 -321 l4 -305 -40 -21 c-50 -25 -278
-177 -326 -217 -19 -16 -32 -32 -30 -35 3 -3 20 8 37 24 18 17 36 30 42 30 5
0 11 3 13 8 4 8 65 52 73 52 3 0 3 -6 -1 -12 -9 -15 8 -2 96 72 36 30 84 64
108 74 l42 19 0 324 c0 177 -2 323 -5 323 -3 0 -8 -7 -11 -15z"/>
<path d="M634 3245 c6 -88 16 -96 16 -12 0 36 -5 69 -10 72 -7 5 -9 -15 -6
-60z"/>
<path d="M1543 3294 c-7 -7 -13 -21 -13 -31 0 -16 1 -16 16 -1 9 8 14 22 12
31 -2 13 -5 13 -15 1z"/>
<path d="M2970 3294 l-35 -12 -3 -71 c-2 -44 1 -71 8 -71 6 0 10 27 10 65 0
56 3 65 18 65 10 0 24 6 30 12 10 10 14 10 21 0 4 -8 17 -12 27 -10 15 2 20
-4 22 -33 3 -36 3 -36 53 -37 29 0 47 3 44 9 -4 5 -22 9 -41 9 -29 0 -34 3
-34 24 0 42 -64 68 -120 50z"/>
<path d="M1116 3242 c3 -35 9 -73 14 -85 13 -32 11 -2 -6 78 l-14 70 6 -63z"/>
<path d="M2302 3300 c-9 -14 -12 -64 -13 -268 -1 -213 3 -263 16 -211 6 24 2
489 -3 479z"/>
<path d="M2385 3280 c3 -5 1 -10 -4 -10 -6 0 -11 -4 -11 -10 0 -5 7 -7 15 -4
17 7 21 34 4 34 -5 0 -7 -4 -4 -10z"/>
<path d="M2512 3160 c-1 -74 3 -153 8 -175 6 -29 8 -1 8 100 0 78 -3 156 -8
175 -5 24 -8 -8 -8 -100z"/>
<path d="M3585 3261 c-3 -2 -5 -10 -5 -18 0 -17 37 -17 43 0 4 9 7 9 14 0 5
-8 14 -9 23 -3 8 5 27 6 43 3 23 -5 29 -3 25 8 -3 10 -23 14 -72 14 -37 1 -69
-1 -71 -4z"/>
<path d="M1240 3251 c0 -6 5 -13 10 -16 6 -3 10 1 10 9 0 9 -4 16 -10 16 -5 0
-10 -4 -10 -9z"/>
<path d="M1360 3225 c0 -19 4 -35 8 -35 4 0 6 16 4 35 -2 19 -6 35 -8 35 -2 0
-4 -16 -4 -35z"/>
<path d="M2552 3235 c0 -16 2 -22 5 -12 2 9 2 23 0 30 -3 6 -5 -1 -5 -18z"/>
<path d="M2591 3238 c-1 -16 4 -28 9 -28 12 0 12 8 0 35 -8 18 -9 17 -9 -7z"/>
<path d="M3535 3252 c-5 -4 -11 -22 -11 -39 -3 -47 21 -42 34 7 10 40 2 51
-23 32z"/>
<path d="M1907 3230 c-3 -11 -2 -20 3 -20 12 0 21 28 11 35 -5 2 -11 -4 -14
-15z"/>
<path d="M1251 3204 c0 -11 3 -14 6 -6 3 7 2 16 -1 19 -3 4 -6 -2 -5 -13z"/>
<path d="M3490 3174 c-8 -19 -7 -31 2 -42 9 -11 9 -13 1 -9 -6 4 -15 2 -19 -4
-5 -9 0 -10 17 -6 13 4 27 7 30 7 10 0 18 40 8 40 -5 0 -9 -4 -9 -10 0 -5 -5
-10 -11 -10 -7 0 -10 12 -7 30 6 37 1 38 -12 4z"/>
<path d="M3171 3153 c-1 -42 0 -43 32 -42 29 1 30 2 7 8 -19 5 -27 16 -31 41
-6 35 -6 35 -8 -7z"/>
<path d="M1253 3140 c0 -25 2 -35 4 -22 2 12 2 32 0 45 -2 12 -4 2 -4 -23z"/>
<path d="M2012 3130 l-3 -50 50 0 51 0 0 -50 c0 -27 4 -50 9 -50 11 0 3 92 -8
103 -9 9 -33 15 -63 16 -14 1 -18 10 -18 41 0 57 -14 49 -18 -10z"/>
<path d="M3821 3164 c0 -11 3 -14 6 -6 3 7 2 16 -1 19 -3 4 -6 -2 -5 -13z"/>
<path d="M1296 3153 c-4 -9 -2 -21 4 -27 7 -7 10 -2 10 17 0 31 -5 34 -14 10z"/>
<path d="M1445 3139 c5 -35 134 -332 150 -347 14 -13 -7 42 -52 138 -25 52
-58 129 -74 170 -21 52 -28 64 -24 39z"/>
<path d="M2913 3085 c3 -60 21 -62 25 -2 2 37 0 47 -12 47 -12 0 -15 -10 -13
-45z"/>
<path d="M3821 3114 c0 -11 3 -14 6 -6 3 7 2 16 -1 19 -3 4 -6 -2 -5 -13z"/>
<path d="M275 2620 c0 -278 1 -391 2 -253 2 139 2 367 0 505 -1 139 -2 26 -2
-252z"/>
<path d="M1091 3104 c0 -11 3 -14 6 -6 3 7 2 16 -1 19 -3 4 -6 -2 -5 -13z"/>
<path d="M1294 3090 c1 -8 10 -16 20 -18 11 -3 16 0 11 7 -3 6 -10 9 -15 6 -5
-3 -10 0 -13 7 -2 8 -3 7 -3 -2z"/>
<path d="M1840 3099 c0 -5 5 -7 10 -4 6 3 10 8 10 11 0 2 -4 4 -10 4 -5 0 -10
-5 -10 -11z"/>
<path d="M1415 3080 c3 -5 8 -10 11 -10 2 0 4 5 4 10 0 6 -5 10 -11 10 -5 0
-7 -4 -4 -10z"/>
<path d="M3445 3080 c-3 -5 -1 -10 4 -10 6 0 11 5 11 10 0 6 -2 10 -4 10 -3 0
-8 -4 -11 -10z"/>
<path d="M401 2382 c0 -387 -3 -708 -6 -713 -4 -5 -1 -9 4 -9 7 0 11 31 11 83
0 45 3 357 7 693 4 428 3 616 -5 629 -7 14 -10 -177 -11 -683z"/>
<path d="M1265 3055 c8 -34 52 -135 58 -135 5 0 -52 152 -60 160 -2 3 -2 -9 2
-25z"/>
<path d="M3223 3010 c0 -41 2 -58 4 -37 2 20 2 54 0 75 -2 20 -4 3 -4 -38z"/>
<path d="M4290 3070 c-8 -5 -10 -10 -5 -10 6 0 17 5 25 10 8 5 11 10 5 10 -5
0 -17 -5 -25 -10z"/>
<path d="M3436 3039 c-10 -31 -16 -69 -12 -69 7 0 26 73 21 78 -3 3 -7 -1 -9
-9z"/>
<path d="M3460 3040 c0 -5 5 -10 10 -10 6 0 10 5 10 10 0 6 -4 10 -10 10 -5 0
-10 -4 -10 -10z"/>
<path d="M4226 3035 c-11 -8 -15 -15 -10 -15 6 0 19 7 30 15 10 8 15 14 9 14
-5 0 -19 -6 -29 -14z"/>
<path d="M1111 3014 c0 -11 3 -14 6 -6 3 7 2 16 -1 19 -3 4 -6 -2 -5 -13z"/>
<path d="M4139 2961 c-56 -61 -119 -143 -119 -155 0 -4 16 14 36 41 21 26 61
72 90 102 47 47 64 71 51 71 -2 0 -28 -26 -58 -59z"/>
<path d="M3450 2960 c-12 -23 2 -27 19 -6 8 9 8 16 2 20 -6 4 -15 -3 -21 -14z"/>
<path d="M480 2956 c-3 -2 -3 -96 0 -208 l4 -203 6 190 c5 173 2 234 -10 221z"/>
<path d="M2160 2917 l0 -47 38 1 c35 1 36 2 8 8 -25 5 -30 12 -34 41 -6 52
-12 50 -12 -3z"/>
<path d="M3564 2947 c-3 -9 -3 -25 1 -34 6 -16 8 -15 16 6 6 16 6 28 0 34 -7
7 -12 5 -17 -6z"/>
<path d="M3820 2950 c0 -5 5 -10 10 -10 6 0 10 5 10 10 0 6 -4 10 -10 10 -5 0
-10 -4 -10 -10z"/>
<path d="M1629 2944 c-2 -20 2 -81 8 -119 l6 -40 8 29 c5 18 4 35 -2 42 -6 7
-9 29 -8 48 2 19 0 38 -4 42 -4 4 -7 3 -8 -2z"/>
<path d="M2105 2920 c-3 -5 1 -10 9 -10 8 0 18 5 21 10 3 6 -1 10 -9 10 -8 0
-18 -4 -21 -10z"/>
<path d="M3829 2928 c-5 -9 -4 -56 1 -52 5 6 8 54 3 54 -2 0 -4 -1 -4 -2z"/>
<path d="M4165 2920 c-3 -5 -2 -10 4 -10 5 0 13 5 16 10 3 6 2 10 -4 10 -5 0
-13 -4 -16 -10z"/>
<path d="M1471 2905 c-1 -26 32 -150 52 -195 23 -50 21 -30 -7 64 -13 44 -29
97 -34 116 -6 20 -10 27 -11 15z"/>
<path d="M878 2876 c20 -19 39 -33 40 -31 5 5 -61 64 -70 65 -4 0 9 -15 30
-34z"/>
<path d="M1251 2884 c0 -11 3 -14 6 -6 3 7 2 16 -1 19 -3 4 -6 -2 -5 -13z"/>
<path d="M4090 2849 c-25 -27 -47 -55 -49 -62 -2 -7 -2 -10 1 -7 2 3 28 31 58
63 29 31 49 57 44 56 -5 0 -29 -23 -54 -50z"/>
<path d="M3436 2876 c6 -15 4 -17 -6 -11 -9 6 -11 4 -5 -4 5 -9 10 -10 18 -2
8 8 7 14 -2 24 -10 10 -11 8 -5 -7z"/>
<path d="M782 2850 c0 -19 2 -27 5 -17 2 9 2 25 0 35 -3 9 -5 1 -5 -18z"/>
<path d="M1290 2850 c0 -5 5 -10 11 -10 5 0 7 5 4 10 -3 6 -8 10 -11 10 -2 0
-4 -4 -4 -10z"/>
<path d="M1430 2843 c0 -4 5 -15 10 -23 8 -13 10 -13 10 2 0 9 -4 20 -10 23
-5 3 -10 3 -10 -2z"/>
<path d="M2250 2833 c0 -13 5 -23 10 -23 13 0 13 11 0 30 -8 12 -10 11 -10 -7z"/>
<path d="M817 2824 c-4 -4 -7 -17 -7 -28 1 -19 1 -20 11 -3 11 19 8 43 -4 31z"/>
<path d="M930 2826 c0 -2 7 -9 15 -16 9 -7 15 -8 15 -2 0 5 -7 12 -15 16 -8 3
-15 4 -15 2z"/>
<path d="M1297 2823 c-2 -5 -1 -19 4 -33 7 -23 7 -23 8 8 1 31 -3 40 -12 25z"/>
<path d="M3427 2813 c-4 -3 -7 -11 -7 -17 0 -6 5 -5 12 2 6 6 9 14 7 17 -3 3
-9 2 -12 -2z"/>
<path d="M781 2784 c0 -11 3 -14 6 -6 3 7 2 16 -1 19 -3 4 -6 -2 -5 -13z"/>
<path d="M3991 2777 c-13 -21 -12 -21 5 -5 10 10 16 20 13 22 -3 3 -11 -5 -18
-17z"/>
<path d="M2250 2760 c0 -16 4 -30 8 -30 5 0 7 14 4 30 -2 17 -6 30 -8 30 -2 0
-4 -13 -4 -30z"/>
<path d="M1460 2775 c0 -11 124 -244 128 -241 4 5 -116 246 -123 246 -3 0 -5
-2 -5 -5z"/>
<path d="M1631 2664 c0 -64 3 -114 6 -110 11 11 15 226 5 226 -6 0 -10 -48
-11 -116z"/>
<path d="M3990 2732 c-19 -26 -40 -51 -46 -57 -6 -5 -24 -28 -40 -50 -16 -22
-37 -46 -46 -53 -19 -14 -25 -38 -8 -27 16 10 180 216 180 226 0 14 -3 11 -40
-39z"/>
<path d="M811 2734 c0 -11 3 -14 6 -6 3 7 2 16 -1 19 -3 4 -6 -2 -5 -13z"/>
<path d="M3955 2736 c-6 -8 -20 -28 -33 -45 -13 -17 -21 -31 -19 -31 8 0 70
81 65 85 -2 2 -8 -2 -13 -9z"/>
<path d="M3833 2685 c0 -33 2 -45 4 -27 2 18 2 45 0 60 -2 15 -4 0 -4 -33z"/>
<path d="M4575 2720 c-5 -8 194 -3 204 6 2 2 -41 4 -97 4 -55 0 -103 -4 -107
-10z"/>
<path d="M1602 2650 c0 -14 2 -19 5 -12 2 6 2 18 0 25 -3 6 -5 1 -5 -13z"/>
<path d="M1241 2644 c0 -11 3 -14 6 -6 3 7 2 16 -1 19 -3 4 -6 -2 -5 -13z"/>
<path d="M1462 2598 c1 -56 10 -73 21 -44 3 8 -1 33 -8 57 l-14 44 1 -57z"/>
<path d="M3373 2638 c-12 -15 -24 -48 -18 -48 2 0 10 14 19 30 15 32 15 38 -1
18z"/>
<path d="M4135 2639 c-4 -6 -5 -12 -2 -15 2 -3 7 2 10 11 7 17 1 20 -8 4z"/>
<path d="M4508 2638 c-2 -7 -1 -29 3 -48 6 -34 6 -33 8 13 1 46 -3 59 -11 35z"/>
<path d="M4029 2573 c-13 -16 -12 -17 4 -4 9 7 17 15 17 17 0 8 -8 3 -21 -13z"/>
<path d="M4069 2573 c-13 -16 -12 -17 4 -4 9 7 17 15 17 17 0 8 -8 3 -21 -13z"/>
<path d="M3336 2565 c-9 -26 -7 -32 5 -12 6 10 9 21 6 23 -2 3 -7 -2 -11 -11z"/>
<path d="M840 2540 c0 -5 5 -10 11 -10 5 0 7 5 4 10 -3 6 -8 10 -11 10 -2 0
-4 -4 -4 -10z"/>
<path d="M1494 2530 c0 -11 6 -22 13 -24 14 -6 16 4 7 28 -9 22 -20 20 -20 -4z"/>
<path d="M1630 2523 c0 -13 5 -23 10 -23 13 0 13 11 0 30 -8 12 -10 11 -10 -7z"/>
<path d="M483 2495 c0 -22 2 -30 4 -17 2 12 2 30 0 40 -3 9 -5 -1 -4 -23z"/>
<path d="M1110 2511 c0 -6 4 -13 10 -16 6 -3 7 1 4 9 -7 18 -14 21 -14 7z"/>
<path d="M1251 2494 c0 -11 3 -14 6 -6 3 7 2 16 -1 19 -3 4 -6 -2 -5 -13z"/>
<path d="M3937 2473 c-16 -18 -25 -33 -20 -32 9 0 57 58 52 63 -2 2 -17 -12
-32 -31z"/>
<path d="M4510 2475 c0 -31 -6 -39 -52 -70 -75 -50 -133 -95 -122 -95 5 0 40
23 78 50 38 28 74 50 80 50 10 0 15 -116 5 -124 -2 -1 -22 -13 -43 -26 -111
-67 -495 -338 -416 -294 38 21 168 107 304 201 81 57 152 103 155 103 4 0 9
-159 10 -352 1 -194 4 -355 7 -357 2 -2 4 210 4 472 0 262 -2 477 -5 477 -3 0
-5 -16 -5 -35z"/>
<path d="M1500 2495 c0 -2 25 -48 56 -102 31 -54 58 -113 59 -131 4 -51 15
-50 15 1 0 26 -4 47 -9 47 -5 0 -13 10 -17 23 -4 12 -15 33 -25 46 -20 25 -25
46 -9 36 5 -3 -2 13 -15 36 -13 24 -31 44 -39 45 -9 1 -16 1 -16 -1z m44 -41
c3 -8 2 -12 -4 -9 -6 3 -10 10 -10 16 0 14 7 11 14 -7z"/>
<path d="M4236 2474 c-11 -8 -16 -14 -10 -14 13 0 39 18 34 24 -3 2 -14 -2
-24 -10z"/>
<path d="M4927 2480 c-127 -6 -140 -9 -160 -30 l-22 -23 25 15 c18 11 68 17
169 23 80 4 154 11 165 15 25 10 28 10 -177 0z"/>
<path d="M1826 2465 c4 -8 10 -12 15 -9 11 6 2 24 -11 24 -5 0 -7 -7 -4 -15z"/>
<path d="M3400 2469 c0 -5 5 -7 10 -4 6 3 10 8 10 11 0 2 -4 4 -10 4 -5 0 -10
-5 -10 -11z"/>
<path d="M3443 2465 c-3 -9 -3 -18 -1 -21 3 -3 8 4 11 16 6 23 -1 27 -10 5z"/>
<path d="M802 2450 c0 -14 2 -19 5 -12 2 6 2 18 0 25 -3 6 -5 1 -5 -13z"/>
<path d="M1146 2457 c3 -10 9 -15 12 -12 3 3 0 11 -7 18 -10 9 -11 8 -5 -6z"/>
<path d="M4728 2463 c7 -3 16 -2 19 1 4 3 -2 6 -13 5 -11 0 -14 -3 -6 -6z"/>
<path d="M2070 2453 c0 -5 5 -14 11 -20 7 -7 8 -22 1 -47 -8 -29 -8 -36 3 -36
19 0 23 8 26 60 3 40 1 45 -19 48 -12 2 -22 -1 -22 -5z"/>
<path d="M2144 2445 c3 -9 6 -34 6 -56 0 -33 3 -39 21 -39 14 0 18 4 12 13 -4
6 -8 30 -8 52 0 31 -4 41 -19 43 -14 3 -17 0 -12 -13z"/>
<path d="M2257 2408 c-2 -29 -3 -55 0 -58 2 -2 14 2 26 9 15 10 22 10 25 2 2
-6 10 -11 17 -11 10 0 12 11 8 43 -2 23 -7 48 -9 56 -8 25 -18 0 -15 -37 3
-44 -16 -33 -21 12 -5 51 -25 41 -31 -16z m20 -30 c-3 -8 -6 -5 -6 6 -1 11 2
17 5 13 3 -3 4 -12 1 -19z"/>
<path d="M2358 2454 c-8 -7 5 -104 14 -104 7 0 9 16 5 40 -3 22 -1 42 4 45 8
6 14 -11 22 -65 3 -14 5 -2 6 26 1 47 -1 52 -24 56 -13 3 -26 4 -27 2z"/>
<path d="M2450 2457 c-1 -1 -2 -26 -3 -54 -2 -35 2 -53 9 -53 17 0 23 98 7
105 -7 2 -13 3 -13 2z"/>
<path d="M2501 2405 c0 -30 5 -55 10 -55 5 0 9 9 9 20 0 11 5 20 10 20 6 0 10
-7 8 -16 -2 -10 2 -19 8 -21 15 -5 13 89 -1 99 -5 4 -18 8 -27 8 -13 0 -17
-10 -17 -55z m39 20 c0 -8 -4 -15 -10 -15 -5 0 -10 7 -10 15 0 8 5 15 10 15 6
0 10 -7 10 -15z"/>
<path d="M2577 2446 c-6 -19 5 -46 19 -46 8 0 14 -7 14 -15 0 -8 -4 -15 -10
-15 -5 0 -10 5 -10 11 0 5 -4 7 -10 4 -22 -14 -8 -30 26 -31 32 -1 35 1 30 20
-3 11 -6 24 -6 28 0 4 -9 10 -20 13 -29 9 -25 27 5 19 15 -4 25 -2 25 5 0 6
-3 12 -7 12 -35 6 -53 5 -56 -5z"/>
<path d="M2667 2453 c-11 -10 -8 -91 2 -98 17 -10 31 30 24 69 -5 35 -13 43
-26 29z m10 -75 c-3 -8 -6 -5 -6 6 -1 11 2 17 5 13 3 -3 4 -12 1 -19z"/>
<path d="M2713 2420 c3 -21 1 -40 -4 -42 -5 -2 -5 -9 0 -17 5 -7 13 -11 17 -8
12 7 4 107 -8 107 -7 0 -9 -16 -5 -40z"/>
<path d="M2757 2454 c-11 -11 -8 -92 3 -99 6 -4 10 6 11 22 l0 28 11 -25 c14
-34 20 -13 10 35 -7 38 -21 52 -35 39z"/>
<path d="M2810 2411 c0 -52 8 -65 34 -55 19 7 23 104 5 104 -8 0 -10 -14 -6
-40 3 -22 1 -43 -4 -46 -5 -3 -9 13 -9 35 0 22 -4 43 -10 46 -6 4 -10 -13 -10
-44z"/>
<path d="M2880 2458 c-1 -2 -2 -27 -3 -55 -2 -39 1 -53 11 -53 10 0 13 12 10
45 -2 25 0 45 3 45 4 0 12 -20 18 -45 10 -41 14 -45 42 -45 20 0 29 4 26 13
-2 6 -11 11 -21 9 -13 -2 -16 6 -16 40 l1 43 15 -27 c8 -16 19 -28 24 -28 6 0
10 -11 10 -25 0 -16 6 -25 15 -25 12 0 14 7 9 28 -9 37 -13 42 -30 42 -8 0
-14 4 -14 10 0 5 10 9 21 7 12 -1 24 4 26 11 3 8 -9 12 -41 12 -42 0 -46 -2
-46 -25 0 -14 -4 -25 -10 -25 -5 0 -10 11 -10 25 0 18 -5 25 -20 25 -11 0 -20
-1 -20 -2z"/>
<path d="M3107 2417 c-3 -24 -9 -51 -13 -60 -5 -15 2 -17 56 -17 38 0 59 4 55
10 -3 6 -26 10 -50 10 -46 0 -44 -4 -30 63 8 38 26 24 19 -16 l-5 -32 15 34
c22 46 20 51 -13 51 -26 0 -29 -4 -34 -43z"/>
<path d="M4647 2449 c-11 -6 -32 -8 -48 -5 -16 3 -29 1 -29 -4 0 -13 83 -13
96 -1 5 5 18 11 29 14 16 4 15 5 -5 6 -14 0 -33 -4 -43 -10z"/>
<path d="M1610 2440 c-17 -11 -8 -23 14 -18 9 2 12 8 8 15 -5 8 -13 9 -22 3z"/>
<path d="M1715 2440 c4 -6 11 -8 16 -5 14 9 11 15 -7 15 -8 0 -12 -5 -9 -10z"/>
<path d="M1768 2443 c7 -3 16 -2 19 1 4 3 -2 6 -13 5 -11 0 -14 -3 -6 -6z"/>
<path d="M2206 2404 c-7 -52 -3 -65 12 -37 15 27 18 76 6 80 -7 2 -14 -16 -18
-43z"/>
<path d="M2420 2422 c0 -17 4 -34 10 -37 6 -4 7 6 3 27 -8 44 -13 48 -13 10z"/>
<path d="M3380 2434 c0 -8 5 -12 10 -9 6 3 10 10 10 16 0 5 -4 9 -10 9 -5 0
-10 -7 -10 -16z"/>
<path d="M470 2430 c0 -5 7 -10 16 -10 8 0 12 5 9 10 -3 6 -10 10 -16 10 -5 0
-9 -4 -9 -10z"/>
<path d="M1847 2409 c4 -13 8 -18 11 -10 2 7 -1 18 -6 23 -8 8 -9 4 -5 -13z"/>
<path d="M3880 2415 c-7 -9 -11 -18 -8 -20 3 -3 11 1 18 10 7 9 11 18 8 20 -3
3 -11 -1 -18 -10z"/>
<path d="M4719 2413 c-13 -16 -12 -17 4 -4 16 13 21 21 13 21 -2 0 -10 -8 -17
-17z"/>
<path d="M3355 2390 c-3 -5 -1 -10 4 -10 6 0 11 5 11 10 0 6 -2 10 -4 10 -3 0
-8 -4 -11 -10z"/>
<path d="M4758 2393 c6 -2 18 -2 25 0 6 3 1 5 -13 5 -14 0 -19 -2 -12 -5z"/>
<path d="M4051 2354 c-19 -19 -30 -34 -24 -34 10 0 44 35 57 58 11 19 4 14
-33 -24z"/>
<path d="M4618 2357 c-28 -11 -38 -32 -38 -80 0 -17 4 -26 11 -22 5 4 9 21 7
38 -3 29 1 34 42 55 44 22 29 29 -22 9z"/>
<path d="M3050 2350 c0 -5 5 -10 11 -10 5 0 7 5 4 10 -3 6 -8 10 -11 10 -2 0
-4 -4 -4 -10z"/>
<path d="M3850 2350 c-8 -5 -12 -12 -9 -15 4 -3 12 1 19 10 14 17 11 19 -10 5z"/>
<path d="M1842 2315 c0 -16 2 -22 5 -12 2 9 2 23 0 30 -3 6 -5 -1 -5 -18z"/>
<path d="M3046 2293 c-6 -14 -5 -15 5 -6 7 7 10 15 7 18 -3 3 -9 -2 -12 -12z"/>
<path d="M3985 2292 c-11 -9 -27 -26 -35 -37 -8 -11 3 -4 23 14 33 31 42 42
35 41 -2 -1 -12 -8 -23 -18z"/>
<path d="M1682 2271 c-11 -7 -8 -17 13 -50 31 -46 35 -50 28 -21 -3 11 -9 20
-13 20 -16 0 -23 42 -9 51 8 5 10 9 4 9 -5 0 -16 -4 -23 -9z"/>
<path d="M3275 2270 c3 -5 8 -10 11 -10 2 0 4 5 4 10 0 6 -5 10 -11 10 -5 0
-7 -4 -4 -10z"/>
<path d="M3510 2259 c0 -5 11 -9 25 -9 14 0 25 2 25 4 0 2 -11 6 -25 8 -14 3
-25 1 -25 -3z"/>
<path d="M481 2244 c0 -11 3 -14 6 -6 3 7 2 16 -1 19 -3 4 -6 -2 -5 -13z"/>
<path d="M1500 2075 c4 -136 3 -165 -9 -167 -8 -2 14 -29 53 -65 64 -61 86
-74 86 -53 0 6 -5 10 -11 10 -5 0 -7 4 -4 10 3 6 -1 7 -9 4 -10 -4 -28 8 -51
33 -38 42 -37 35 -36 228 0 112 -5 165 -17 165 -4 0 -5 -74 -2 -165z"/>
<path d="M3405 2220 c-3 -5 -1 -10 4 -10 6 0 11 5 11 10 0 6 -2 10 -4 10 -3 0
-8 -4 -11 -10z"/>
<path d="M1841 2204 c0 -11 3 -14 6 -6 3 7 2 16 -1 19 -3 4 -6 -2 -5 -13z"/>
<path d="M3925 2200 c-10 -11 -16 -20 -13 -20 3 0 15 9 28 20 13 11 19 20 13
20 -5 0 -18 -9 -28 -20z"/>
<path d="M1602 2190 c0 -14 2 -19 5 -12 2 6 2 18 0 25 -3 6 -5 1 -5 -13z"/>
<path d="M3095 2202 c-55 -5 -70 -22 -19 -22 72 0 174 13 174 22 0 8 -57 8
-155 0z"/>
<path d="M3270 2195 c0 -8 7 -15 15 -15 8 0 15 7 15 15 0 8 -7 15 -15 15 -8 0
-15 -7 -15 -15z"/>
<path d="M1530 2181 c0 -5 5 -13 10 -16 6 -3 10 -2 10 4 0 5 -4 13 -10 16 -5
3 -10 2 -10 -4z"/>
<path d="M3876 2164 c-11 -8 -16 -14 -10 -14 13 0 39 18 34 24 -3 2 -14 -2
-24 -10z"/>
<path d="M1875 2133 c19 -44 25 -52 25 -30 0 9 -4 19 -10 22 -5 3 -10 15 -10
26 0 10 -5 19 -10 19 -6 0 -4 -16 5 -37z"/>
<path d="M1832 2125 c0 -16 2 -22 5 -12 2 9 2 23 0 30 -3 6 -5 -1 -5 -18z"/>
<path d="M3837 2143 c-4 -3 -7 -11 -7 -17 0 -6 5 -5 12 2 6 6 9 14 7 17 -3 3
-9 2 -12 -2z"/>
<path d="M3042 2120 c0 -14 2 -19 5 -12 2 6 2 18 0 25 -3 6 -5 1 -5 -13z"/>
<path d="M482 2100 c0 -19 2 -27 5 -17 2 9 2 25 0 35 -3 9 -5 1 -5 -18z"/>
<path d="M274 2005 c0 -60 1 -84 3 -52 2 32 2 81 0 110 -2 29 -3 3 -3 -58z"/>
<path d="M3895 2089 c-16 -10 -25 -19 -19 -19 7 0 22 9 35 20 30 24 23 24 -16
-1z"/>
<path d="M2032 2086 c-59 -15 -77 -26 -41 -26 27 0 128 26 137 34 9 10 -39 5
-96 -8z"/>
<path d="M1611 2074 c0 -11 3 -14 6 -6 3 7 2 16 -1 19 -3 4 -6 -2 -5 -13z"/>
<path d="M1833 2068 c-2 -18 0 -20 7 -8 12 18 13 30 2 30 -4 0 -9 -10 -9 -22z"/>
<path d="M3170 2060 l-25 -8 27 -1 c15 -1 30 4 33 9 7 11 0 11 -35 0z"/>
<path d="M3951 2054 c0 -11 3 -14 6 -6 3 7 2 16 -1 19 -3 4 -6 -2 -5 -13z"/>
<path d="M721 2044 c0 -11 3 -14 6 -6 3 7 2 16 -1 19 -3 4 -6 -2 -5 -13z"/>
<path d="M2065 2050 c-19 -8 -19 -9 2 -9 12 -1 25 4 28 9 7 12 -2 12 -30 0z"/>
<path d="M3070 2045 c0 -8 2 -15 4 -15 2 0 6 7 10 15 3 8 1 15 -4 15 -6 0 -10
-7 -10 -15z"/>
<path d="M3110 2045 c0 -8 2 -15 4 -15 2 0 6 7 10 15 3 8 1 15 -4 15 -6 0 -10
-7 -10 -15z"/>
<path d="M1918 2033 c7 -3 16 -2 19 1 4 3 -2 6 -13 5 -11 0 -14 -3 -6 -6z"/>
<path d="M1960 2030 c0 -7 14 -8 38 -4 51 9 53 14 4 14 -23 0 -42 -5 -42 -10z"/>
<path d="M0 2021 c0 -4 26 -15 58 -25 31 -10 64 -21 72 -24 8 -3 13 -3 10 1
-10 11 -140 56 -140 48z"/>
<path d="M3142 2010 c0 -14 2 -19 5 -12 2 6 2 18 0 25 -3 6 -5 1 -5 -13z"/>
<path d="M4991 2019 c-53 -16 -32 -18 34 -4 36 8 48 13 30 13 -16 0 -45 -4
-64 -9z"/>
<path d="M3065 2011 c-3 -5 -1 -12 5 -16 5 -3 10 1 10 9 0 18 -6 21 -15 7z"/>
<path d="M1830 1990 c0 -11 4 -20 9 -20 5 0 7 9 4 20 -3 11 -7 20 -9 20 -2 0
-4 -9 -4 -20z"/>
<path d="M3168 2003 c7 -3 16 -2 19 1 4 3 -2 6 -13 5 -11 0 -14 -3 -6 -6z"/>
<path d="M2490 1961 c-30 -32 -40 -50 -40 -76 0 -18 -5 -35 -12 -37 -18 -6
-20 -78 -2 -85 13 -5 12 -9 -5 -24 -11 -11 -25 -19 -31 -19 -5 0 -10 -4 -10
-9 0 -5 -9 -11 -20 -14 -11 -3 -22 -12 -25 -21 -3 -9 -8 -24 -12 -33 -3 -10
-7 -45 -8 -78 -3 -83 -15 -157 -29 -175 -9 -10 -12 -71 -11 -200 1 -191 5
-218 48 -282 16 -24 17 -36 9 -108 -14 -113 -14 -113 -142 -107 -58 2 -81 2
-52 0 29 -2 50 -8 48 -12 -3 -4 26 -7 64 -5 68 2 70 2 70 -22 0 -21 -5 -24
-37 -25 -21 -1 -49 -5 -63 -9 -19 -6 -9 -8 38 -9 59 -1 62 -2 62 -26 0 -14 -6
-25 -12 -26 -39 -2 -157 -6 -260 -8 -64 -2 -132 -7 -150 -11 -18 -5 66 -7 190
-5 122 1 225 -1 228 -6 3 -5 1 -9 -4 -9 -6 0 -12 -7 -16 -15 -3 -9 0 -15 10
-15 8 0 13 4 10 9 -8 12 9 17 66 20 45 2 46 2 43 -24 -1 -16 3 -29 11 -32 33
-12 -1 -19 -90 -18 -52 1 -101 -2 -108 -7 -15 -9 -8 -10 112 -8 82 1 85 0 97
-25 6 -14 8 -27 4 -29 -8 -5 -103 -8 -211 -7 -52 1 -70 4 -60 11 13 9 13 10 0
10 -22 0 -46 -18 -37 -27 4 -4 77 -7 162 -8 l155 0 0 -27 c0 -33 -3 -44 -11
-41 -3 1 -4 -20 -1 -48 l4 -49 -34 -1 -33 -2 35 -6 c19 -4 38 -5 43 -3 4 2 7
24 7 49 0 29 6 53 17 65 9 10 11 18 6 18 -6 0 -19 52 -29 115 -17 110 -19 115
-42 115 -23 0 -24 3 -20 45 7 59 -6 57 -28 -5 -25 -69 -48 -68 -40 3 3 28 11
112 17 184 11 118 10 135 -4 150 -8 10 -24 41 -35 69 -18 45 -20 67 -16 195 3
79 5 156 5 170 -1 16 5 29 15 33 11 4 14 14 9 35 -3 17 1 45 11 70 13 34 14
49 6 83 -9 35 -8 46 4 59 8 9 14 23 12 30 -2 7 6 15 18 17 29 4 90 71 98 107
l7 30 -19 -24 c-17 -21 -20 -22 -26 -6 -4 10 1 29 11 44 9 14 16 37 15 51 -2
30 47 87 84 96 33 9 85 -16 101 -47 24 -46 36 -84 34 -106 -2 -21 24 -83 35
-83 3 0 2 5 -2 11 -3 6 -6 33 -5 60 0 35 -7 62 -25 96 -39 72 -56 85 -113 91
-50 4 -53 3 -91 -37z"/>
<path d="M5088 1993 c7 -3 16 -2 19 1 4 3 -2 6 -13 5 -11 0 -14 -3 -6 -6z"/>
<path d="M4120 1981 c0 -5 -30 -28 -67 -52 -38 -24 -81 -56 -97 -71 -16 -16
-33 -28 -39 -28 -6 0 -6 -4 0 -12 6 -8 9 -100 7 -232 -2 -145 1 -215 7 -209 6
6 9 93 7 230 l-3 219 103 69 c90 60 124 95 92 95 -5 0 -10 -4 -10 -9z"/>
<path d="M5025 1985 c-5 -2 -36 -11 -68 -20 -32 -9 -57 -19 -54 -21 2 -3 42 7
88 20 46 14 75 25 64 25 -11 0 -24 -2 -30 -4z"/>
<path d="M3073 1973 c9 -2 23 -2 30 0 6 3 -1 5 -18 5 -16 0 -22 -2 -12 -5z"/>
<path d="M3418 1963 c7 -3 16 -2 19 1 4 3 -2 6 -13 5 -11 0 -14 -3 -6 -6z"/>
<path d="M3475 1960 c-19 -8 -19 -9 3 -9 12 -1 22 4 22 9 0 6 -1 10 -2 9 -2 0
-12 -4 -23 -9z"/>
<path d="M1840 1955 c0 -2 10 -10 23 -16 20 -11 21 -11 8 4 -13 16 -31 23 -31
12z"/>
<path d="M2570 1939 c0 -5 5 -7 10 -4 6 3 14 -4 19 -17 6 -13 10 -18 10 -11 2
21 -11 43 -25 43 -8 0 -14 -5 -14 -11z"/>
<path d="M3070 1939 c0 -5 9 -9 20 -9 11 0 20 2 20 4 0 2 -9 6 -20 9 -11 3
-20 1 -20 -4z"/>
<path d="M3166 1935 c4 -8 8 -15 10 -15 2 0 4 7 4 15 0 8 -4 15 -10 15 -5 0
-7 -7 -4 -15z"/>
<path d="M3290 1940 c0 -5 5 -10 10 -10 6 0 10 5 10 10 0 6 -4 10 -10 10 -5 0
-10 -4 -10 -10z"/>
<path d="M3520 1940 c0 -15 21 -23 32 -12 6 6 2 11 -11 15 -12 3 -21 1 -21 -3z"/>
<path d="M3390 1929 c0 -5 9 -9 20 -9 11 0 20 2 20 4 0 2 -9 6 -20 9 -11 3
-20 1 -20 -4z"/>
<path d="M781 1914 c0 -11 3 -14 6 -6 3 7 2 16 -1 19 -3 4 -6 -2 -5 -13z"/>
<path d="M3880 1920 c-24 -8 -23 -8 8 -9 20 -1 31 3 27 9 -3 6 -7 10 -8 9 -1
-1 -13 -5 -27 -9z"/>
<path d="M1830 1881 c0 -55 15 -59 17 -5 1 24 -2 44 -7 44 -6 0 -10 -18 -10
-39z"/>
<path d="M3455 1908 c11 -6 26 -18 33 -26 11 -14 12 -13 12 5 0 13 -8 23 -22
27 -35 9 -45 7 -23 -6z"/>
<path d="M1235 1890 c10 -34 27 -51 22 -22 -2 12 -9 28 -16 35 -11 10 -12 7
-6 -13z"/>
<path d="M3611 1901 c-10 -6 -10 -10 -1 -16 13 -8 24 -1 19 14 -3 6 -10 7 -18
2z"/>
<path d="M3765 1900 c-4 -7 8 -8 37 -4 57 9 61 14 10 14 -22 0 -44 -5 -47 -10z"/>
<path d="M3285 1890 c-19 -8 -19 -9 2 -9 12 -1 25 4 28 9 7 12 -2 12 -30 0z"/>
<path d="M25 1880 c3 -5 18 -10 32 -10 32 0 28 5 -10 14 -19 4 -26 3 -22 -4z"/>
<path d="M782 1510 c-1 -226 2 -379 7 -371 5 8 9 80 10 160 1 80 4 221 7 314
4 122 3 167 -6 167 -6 0 -9 3 -7 8 2 4 1 30 -2 57 -4 28 -8 -123 -9 -335z m15
188 c-3 -8 -6 -5 -6 6 -1 11 2 17 5 13 3 -3 4 -12 1 -19z"/>
<path d="M1592 1870 c0 -14 2 -19 5 -12 2 6 2 18 0 25 -3 6 -5 1 -5 -13z"/>
<path d="M3522 1879 c2 -8 14 -15 26 -17 12 -2 22 -8 22 -13 0 -5 7 -9 15 -9
22 0 37 -47 31 -102 -2 -26 0 -51 6 -54 6 -4 8 22 6 71 l-3 78 -54 30 c-34 19
-52 25 -49 16z"/>
<path d="M3660 1880 c0 -5 5 -10 11 -10 5 0 7 5 4 10 -3 6 -8 10 -11 10 -2 0
-4 -4 -4 -10z"/>
<path d="M711 1844 c0 -11 3 -14 6 -6 3 7 2 16 -1 19 -3 4 -6 -2 -5 -13z"/>
<path d="M3230 1848 c0 -14 9 -18 40 -18 30 0 40 4 40 16 0 10 -4 12 -12 7
-18 -11 -52 -10 -60 2 -4 6 -8 2 -8 -7z"/>
<path d="M1696 1837 c3 -10 9 -15 12 -12 3 3 0 11 -7 18 -10 9 -11 8 -5 -6z"/>
<path d="M2035 1840 c3 -5 8 -10 11 -10 2 0 4 5 4 10 0 6 -5 10 -11 10 -5 0
-7 -4 -4 -10z"/>
<path d="M3032 1838 c-7 -7 -12 -19 -12 -27 0 -11 5 -8 16 7 18 25 15 39 -4
20z"/>
<path d="M3120 1840 l-55 -7 68 -1 c39 -1 67 2 67 8 0 6 -6 9 -12 8 -7 -1 -38
-4 -68 -8z"/>
<path d="M1910 1831 c0 -6 4 -13 10 -16 6 -3 7 1 4 9 -7 18 -14 21 -14 7z"/>
<path d="M4133 1800 c0 -25 2 -35 4 -22 2 12 2 32 0 45 -2 12 -4 2 -4 -23z"/>
<path d="M3677 1823 c-4 -3 -6 -49 -5 -102 l1 -96 7 100 c7 107 7 108 -3 98z"/>
<path d="M712 1800 c0 -14 2 -19 5 -12 2 6 2 18 0 25 -3 6 -5 1 -5 -13z"/>
<path d="M1335 1800 c3 -4 14 -10 25 -13 11 -3 18 -2 15 3 -3 4 -14 10 -25 13
-11 3 -18 2 -15 -3z"/>
<path d="M590 1790 c8 -5 20 -10 25 -10 6 0 3 5 -5 10 -8 5 -19 10 -25 10 -5
0 -3 -5 5 -10z"/>
<path d="M2040 1780 c0 -5 -7 -7 -16 -3 -12 4 -15 2 -12 -8 8 -23 38 -23 38 0
0 12 -2 21 -5 21 -3 0 -5 -4 -5 -10z"/>
<path d="M640 1772 c8 -5 26 -13 40 -16 17 -5 20 -4 10 2 -8 5 -26 13 -40 16
-17 5 -20 4 -10 -2z"/>
<path d="M842 1775 c11 -11 178 -72 178 -65 0 4 -8 10 -17 13 -10 3 -49 17
-88 31 -72 27 -82 30 -73 21z"/>
<path d="M1439 1746 c29 -20 71 -52 94 -71 22 -19 45 -35 51 -35 23 1 -137
121 -181 136 -10 4 6 -10 36 -30z"/>
<path d="M1950 1771 c0 -5 7 -14 15 -21 16 -14 18 -10 9 14 -6 17 -24 22 -24
7z"/>
<path d="M2670 1760 c0 -18 43 -70 58 -70 15 0 22 -28 9 -34 -7 -3 0 -3 14 0
38 8 62 -19 53 -60 -4 -17 -7 -40 -6 -51 1 -11 2 -35 2 -52 -1 -18 7 -44 15
-57 11 -16 13 -26 6 -31 -16 -9 -13 -23 8 -41 17 -15 19 -33 20 -189 1 -95 -3
-183 -8 -196 -6 -18 -2 -46 16 -104 13 -44 34 -111 45 -150 26 -87 46 -127 58
-120 6 3 7 -1 4 -9 -3 -9 -1 -16 5 -16 17 0 13 31 -6 46 -14 10 -15 13 -4 14
11 0 8 6 -7 20 -23 21 -30 50 -12 50 6 0 10 5 10 11 0 5 -4 8 -9 4 -12 -7 -31
27 -31 56 0 12 8 27 17 34 15 11 15 13 -6 11 -20 -1 -27 7 -42 54 -12 34 -17
69 -13 91 3 20 6 114 6 209 1 168 0 174 -22 192 -12 10 -17 18 -10 18 12 0 10
41 -4 51 -4 4 -9 51 -11 105 -3 122 0 111 -32 128 -16 8 -49 34 -75 59 -34 31
-48 39 -48 27z"/>
<path d="M3290 1770 c0 -5 7 -10 15 -10 8 0 15 5 15 10 0 6 -7 10 -15 10 -8 0
-15 -4 -15 -10z"/>
<path d="M472 1748 c4 -12 132 -59 193 -71 26 -5 24 -3 -10 13 -23 10 -56 22
-75 25 -19 3 -39 9 -45 14 -5 4 -23 13 -38 19 -23 10 -28 10 -25 0z"/>
<path d="M1602 1730 c0 -14 2 -19 5 -12 2 6 2 18 0 25 -3 6 -5 1 -5 -13z"/>
<path d="M2135 1740 c3 -5 11 -10 16 -10 6 0 7 5 4 10 -3 6 -11 10 -16 10 -6
0 -7 -4 -4 -10z"/>
<path d="M4131 1724 c0 -11 3 -14 6 -6 3 7 2 16 -1 19 -3 4 -6 -2 -5 -13z"/>
<path d="M1841 1694 c0 -11 3 -14 6 -6 3 7 2 16 -1 19 -3 4 -6 -2 -5 -13z"/>
<path d="M3817 1691 c-28 -18 -52 -40 -29 -27 6 4 12 4 12 -1 0 -10 -52 -34
-59 -27 -3 3 1 9 9 14 12 8 12 10 2 10 -8 0 -16 -9 -19 -20 -6 -22 -23 -28
-23 -8 0 9 -3 9 -11 1 -7 -7 -9 -18 -6 -26 4 -12 19 -8 75 21 44 23 68 41 65
49 -3 7 2 13 10 13 9 0 19 5 22 10 10 16 -17 10 -48 -9z"/>
<path d="M1601 1684 c0 -11 3 -14 6 -6 3 7 2 16 -1 19 -3 4 -6 -2 -5 -13z"/>
<path d="M3150 1696 c0 -2 7 -7 16 -10 8 -3 12 -2 9 4 -6 10 -25 14 -25 6z"/>
<path d="M4132 1680 c0 -14 2 -19 5 -12 2 6 2 18 0 25 -3 6 -5 1 -5 -13z"/>
<path d="M2440 1675 c0 -8 5 -15 10 -15 6 0 10 7 10 15 0 8 -4 15 -10 15 -5 0
-10 -7 -10 -15z"/>
<path d="M2170 1660 c0 -11 2 -20 4 -20 2 0 6 9 9 20 3 11 1 20 -4 20 -5 0 -9
-9 -9 -20z"/>
<path d="M3268 1663 c-31 -36 -31 -46 0 -24 18 12 32 27 32 32 0 15 -16 11
-32 -8z"/>
<path d="M38 1663 c7 -3 16 -2 19 1 4 3 -2 6 -13 5 -11 0 -14 -3 -6 -6z"/>
<path d="M2980 1661 c0 -8 79 -3 89 5 2 2 -17 4 -42 4 -26 0 -47 -4 -47 -9z"/>
<path d="M90 1650 c14 -4 34 -8 45 -8 16 0 15 2 -5 8 -14 4 -34 8 -45 8 -16 0
-15 -2 5 -8z"/>
<path d="M3619 1653 c-1 -5 -1 -47 0 -95 l1 -87 -42 -3 -43 -3 48 -5 47 -5 0
102 c0 57 -2 103 -5 103 -3 0 -5 -3 -6 -7z"/>
<path d="M1946 1642 c-10 -17 12 -32 53 -36 24 -2 46 -7 50 -12 9 -13 71 -44
71 -36 0 4 -13 16 -30 25 -16 10 -35 23 -42 30 -29 28 -91 46 -102 29z m49
-12 c3 -5 1 -10 -4 -10 -6 0 -11 5 -11 10 0 6 2 10 4 10 3 0 8 -4 11 -10z"/>
<path d="M2435 1640 c-19 -8 -19 -9 2 -9 12 -1 25 4 28 9 7 12 -2 12 -30 0z"/>
<path d="M2673 1631 c-8 -12 -7 -22 2 -35 7 -9 16 -13 19 -7 3 5 0 12 -6 14
-10 4 -10 6 0 6 13 1 17 27 4 35 -4 2 -13 -3 -19 -13z"/>
<path d="M3903 1615 c0 -22 2 -30 4 -17 2 12 2 30 0 40 -3 9 -5 -1 -4 -23z"/>
<path d="M4132 1630 c0 -14 2 -19 5 -12 2 6 2 18 0 25 -3 6 -5 1 -5 -13z"/>
<path d="M168 1633 c7 -3 16 -2 19 1 4 3 -2 6 -13 5 -11 0 -14 -3 -6 -6z"/>
<path d="M208 1623 c7 -3 16 -2 19 1 4 3 -2 6 -13 5 -11 0 -14 -3 -6 -6z"/>
<path d="M2495 1620 c3 -5 8 -10 11 -10 2 0 4 5 4 10 0 6 -5 10 -11 10 -5 0
-7 -4 -4 -10z"/>
<path d="M2710 1607 c0 -14 6 -29 13 -33 6 -4 9 -4 5 1 -4 4 -3 14 2 20 7 9 6
16 -5 25 -13 11 -15 9 -15 -13z"/>
<path d="M3790 1589 c-91 -46 -112 -49 -106 -14 3 13 0 27 -5 30 -5 4 -9 -60
-9 -160 0 -121 3 -166 12 -163 10 4 11 47 4 202 -2 38 -1 39 63 68 113 50 131
60 131 69 0 13 -6 11 -90 -32z"/>
<path d="M260 1610 c34 -11 60 -11 35 0 -11 5 -29 8 -40 8 -16 0 -15 -2 5 -8z"/>
<path d="M2160 1604 c0 -8 5 -12 10 -9 6 3 10 10 10 16 0 5 -4 9 -10 9 -5 0
-10 -7 -10 -16z"/>
<path d="M2460 1605 c-10 -13 -9 -15 9 -15 11 0 21 4 21 9 0 18 -18 21 -30 6z"/>
<path d="M2380 1600 c0 -5 7 -7 15 -4 8 4 15 8 15 10 0 2 -7 4 -15 4 -8 0 -15
-4 -15 -10z"/>
<path d="M2425 1601 c-3 -6 -3 -11 2 -11 4 0 1 -5 -7 -10 -10 -7 -11 -10 -2
-10 7 0 15 7 19 15 7 19 -2 31 -12 16z"/>
<path d="M2520 1603 c0 -5 5 -15 10 -23 8 -12 10 -11 10 8 0 12 -4 22 -10 22
-5 0 -10 -3 -10 -7z"/>
<path d="M2644 1572 c-7 -5 -5 -17 8 -37 l18 -30 -2 33 c-3 36 -8 44 -24 34z"/>
<path d="M1840 1561 c0 -6 4 -13 10 -16 6 -3 7 1 4 9 -7 18 -14 21 -14 7z"/>
<path d="M2580 1560 c0 -5 7 -10 15 -10 8 0 15 5 15 10 0 6 -7 10 -15 10 -8 0
-15 -4 -15 -10z"/>
<path d="M3901 1554 c0 -11 3 -14 6 -6 3 7 2 16 -1 19 -3 4 -6 -2 -5 -13z"/>
<path d="M1490 1507 c0 -52 2 -57 34 -76 18 -12 41 -21 51 -21 10 0 -2 10 -26
23 -42 23 -44 26 -45 71 -2 67 -14 70 -14 3z"/>
<path d="M2540 1551 c0 -6 5 -13 10 -16 6 -3 10 1 10 9 0 9 -4 16 -10 16 -5 0
-10 -4 -10 -9z"/>
<path d="M3544 1534 c-17 -14 -17 -15 -1 -10 10 3 25 6 33 6 9 0 12 5 9 10 -9
14 -18 13 -41 -6z"/>
<path d="M2388 1518 c-5 -43 -4 -96 3 -92 4 2 7 27 7 54 -1 47 -6 66 -10 38z"/>
<path d="M2765 1520 c3 -5 8 -10 11 -10 2 0 4 5 4 10 0 6 -5 10 -11 10 -5 0
-7 -4 -4 -10z"/>
<path d="M2580 1501 c0 -5 6 -14 14 -20 15 -13 49 -4 40 11 -3 5 -12 7 -20 4
-8 -3 -14 -1 -14 4 0 6 -4 10 -10 10 -5 0 -10 -4 -10 -9z"/>
<path d="M2540 1478 c0 -9 5 -20 11 -23 17 -11 20 0 4 21 -13 17 -14 17 -15 2z"/>
<path d="M2758 1458 c-5 -28 -4 -29 9 -13 15 21 17 45 4 45 -5 0 -11 -14 -13
-32z"/>
<path d="M290 1463 c1 -20 19 -30 63 -36 41 -6 47 -4 47 12 0 13 -10 20 -37
25 -51 8 -73 8 -73 -1z"/>
<path d="M2090 1437 c0 -15 4 -27 9 -27 6 0 8 10 6 21 -6 33 -15 36 -15 6z"/>
<path d="M4590 1178 l0 -284 35 -1 c19 -1 35 4 35 10 0 6 -3 7 -6 4 -4 -3 -15
-2 -25 4 -18 9 -19 24 -17 267 l3 257 125 -2 c69 -1 140 -2 158 -2 l32 -1 0
-219 c0 -139 4 -222 10 -226 7 -4 9 72 8 231 l-3 238 -177 4 -178 4 0 -284z"/>
<path d="M4493 1434 c-3 -9 -3 -84 2 -168 12 -250 13 -351 4 -357 -5 -3 -4
-20 2 -40 14 -42 35 -65 25 -29 -3 14 -6 157 -6 318 0 194 -3 292 -10 292 -6
0 -13 -7 -17 -16z"/>
<path d="M2550 1430 c0 -5 7 -10 16 -10 8 0 12 5 9 10 -3 6 -10 10 -16 10 -5
0 -9 -4 -9 -10z"/>
<path d="M3620 1362 c-3 -46 -2 -86 2 -88 12 -7 13 9 8 91 l-5 80 -5 -83z"/>
<path d="M2401 1272 c-19 -86 -36 -163 -39 -170 -3 -8 1 -10 12 -6 9 4 14 9
12 12 -3 3 -1 11 5 19 9 10 8 13 -2 13 -11 0 -11 2 -2 8 7 4 17 30 23 58 13
67 18 91 32 152 7 32 8 56 2 62 -5 5 -22 -53 -43 -148z"/>
<path d="M2714 1380 c3 -33 17 -83 36 -125 27 -61 30 -65 24 -30 -3 22 -7 45
-8 51 -1 7 -7 18 -13 26 -7 8 -19 41 -27 73 l-15 60 3 -55z"/>
<path d="M2585 1400 c-17 -7 -15 -9 13 -9 17 -1 32 4 32 9 0 12 -17 12 -45 0z"/>
<path d="M381 1225 c3 -152 9 -213 21 -195 9 14 -4 370 -13 370 -7 0 -10 -60
-8 -175z"/>
<path d="M2755 1390 c3 -5 10 -10 16 -10 5 0 9 5 9 10 0 6 -7 10 -16 10 -8 0
-12 -4 -9 -10z"/>
<path d="M143 1325 c0 -33 2 -45 4 -27 2 18 2 45 0 60 -2 15 -4 0 -4 -33z"/>
<path d="M1582 1360 c0 -14 2 -19 5 -12 2 6 2 18 0 25 -3 6 -5 1 -5 -13z"/>
<path d="M460 1251 c0 -121 4 -151 22 -151 5 0 9 48 8 113 -1 61 -1 118 -1
125 1 13 29 16 55 6 13 -5 16 -25 16 -113 0 -105 -11 -156 -26 -118 -3 9 -14
17 -23 17 -13 0 -13 -2 -2 -9 7 -5 19 -35 25 -67 6 -31 16 -59 22 -61 13 -4
18 63 18 242 l1 130 -57 3 -58 3 0 -120z"/>
<path d="M1070 1360 c0 -4 15 -12 33 -18 l32 -12 -32 5 c-20 3 -33 -1 -36 -9
-6 -15 21 -26 66 -26 22 0 27 5 27 23 0 20 -7 25 -45 34 -25 6 -45 7 -45 3z"/>
<path d="M3890 1360 c0 -5 5 -10 11 -10 5 0 7 5 4 10 -3 6 -8 10 -11 10 -2 0
-4 -4 -4 -10z"/>
<path d="M2565 1350 c-3 -5 1 -10 10 -10 9 0 13 5 10 10 -3 6 -8 10 -10 10 -2
0 -7 -4 -10 -10z"/>
<path d="M2600 1350 c0 -5 6 -10 14 -10 8 0 18 5 21 10 3 6 -3 10 -14 10 -12
0 -21 -4 -21 -10z"/>
<path d="M1622 1320 c0 -14 2 -19 5 -12 2 6 2 18 0 25 -3 6 -5 1 -5 -13z"/>
<path d="M3845 1325 c-25 -12 -26 -14 -5 -9 28 7 60 23 45 23 -5 0 -23 -6 -40
-14z"/>
<path d="M1330 1320 c34 -11 60 -11 35 0 -11 5 -29 8 -40 8 -16 0 -15 -2 5 -8z"/>
<path d="M3967 1323 c-13 -3 -16 -10 -11 -21 4 -10 12 -39 19 -67 l13 -50 1
73 c1 39 0 71 -1 71 -2 -1 -11 -3 -21 -6z"/>
<path d="M2325 1310 c-3 -5 -2 -10 4 -10 5 0 13 5 16 10 3 6 2 10 -4 10 -5 0
-13 -4 -16 -10z"/>
<path d="M2471 1304 c0 -11 3 -14 6 -6 3 7 2 16 -1 19 -3 4 -6 -2 -5 -13z"/>
<path d="M1405 1300 c27 -12 43 -12 25 0 -8 5 -22 9 -30 9 -10 0 -8 -3 5 -9z"/>
<path d="M2512 1290 c0 -14 2 -19 5 -12 2 6 2 18 0 25 -3 6 -5 1 -5 -13z"/>
<path d="M2640 1302 c0 -12 19 -26 26 -19 2 2 -2 10 -11 17 -9 8 -15 8 -15 2z"/>
<path d="M2800 1300 c0 -5 5 -10 11 -10 5 0 7 5 4 10 -3 6 -8 10 -11 10 -2 0
-4 -4 -4 -10z"/>
<path d="M3888 1299 c-24 -9 -26 -14 -21 -42 8 -44 12 -45 19 -8 10 47 24 48
24 2 0 -23 5 -41 10 -41 6 0 10 15 10 34 0 19 3 41 6 50 7 18 -7 19 -48 5z"/>
<path d="M2570 1289 c0 -5 5 -7 10 -4 6 3 10 8 10 11 0 2 -4 4 -10 4 -5 0 -10
-5 -10 -11z"/>
<path d="M1495 1270 c28 -10 57 -18 65 -18 8 0 -7 8 -35 18 -27 10 -57 18 -65
18 -8 0 8 -8 35 -18z"/>
<path d="M3843 1225 c0 -38 2 -53 4 -32 2 20 2 52 0 70 -2 17 -4 1 -4 -38z"/>
<path d="M947 1274 c-4 -4 -7 -55 -7 -113 l0 -106 40 0 40 0 0 102 c0 57 1
106 3 111 3 9 -67 15 -76 6z m48 -202 c-3 -3 -11 0 -18 7 -17 17 -14 160 4
172 11 7 15 -8 17 -83 1 -50 0 -93 -3 -96z"/>
<path d="M2455 1215 c-4 -31 -5 -58 -2 -61 2 -3 8 20 12 51 3 31 4 59 2 62 -3
2 -9 -21 -12 -52z"/>
<path d="M2557 1264 c-12 -13 4 -24 34 -24 16 0 29 4 29 9 0 15 -18 22 -25 11
-5 -8 -11 -8 -19 -1 -7 6 -16 8 -19 5z"/>
<path d="M2630 1259 c0 -4 11 -6 25 -6 14 0 25 3 25 8 0 5 -11 8 -25 7 -14 -1
-25 -5 -25 -9z"/>
<path d="M3778 1259 c-20 -8 -28 -19 -32 -47 -9 -57 -10 -131 -3 -138 4 -4 7
12 7 36 0 54 19 110 38 110 7 0 10 -4 7 -10 -3 -5 -1 -10 4 -10 6 0 11 9 11
19 0 11 3 26 6 35 7 18 1 19 -38 5z"/>
<path d="M1240 1241 c0 -21 19 -31 61 -31 19 0 29 5 29 15 0 17 -7 20 -57 29
-28 5 -33 2 -33 -13z"/>
<path d="M3621 1244 c0 -11 3 -14 6 -6 3 7 2 16 -1 19 -3 4 -6 -2 -5 -13z"/>
<path d="M2512 1215 c0 -16 2 -22 5 -12 2 9 2 23 0 30 -3 6 -5 -1 -5 -18z"/>
<path d="M2670 1230 c0 -5 5 -10 10 -10 6 0 10 5 10 10 0 6 -4 10 -10 10 -5 0
-10 -4 -10 -10z"/>
<path d="M2585 1221 c-3 -5 -1 -12 5 -16 5 -3 10 -23 10 -43 0 -21 4 -32 8
-25 4 7 6 30 4 53 -4 38 -14 51 -27 31z"/>
<path d="M2640 1226 c0 -2 7 -17 15 -32 15 -29 22 -13 9 20 -5 14 -24 23 -24
12z"/>
<path d="M3305 1220 c-3 -5 -1 -10 4 -10 6 0 11 5 11 10 0 6 -2 10 -4 10 -3 0
-8 -4 -11 -10z"/>
<path d="M1656 1203 c-14 -14 -4 -22 37 -28 23 -3 55 -9 70 -12 24 -4 28 -2
25 13 -2 11 -14 19 -33 21 -16 1 -44 5 -62 7 -17 3 -34 2 -37 -1z"/>
<path d="M3625 1191 c-3 -5 -1 -12 5 -16 5 -3 10 1 10 9 0 18 -6 21 -15 7z"/>
<path d="M2781 1158 c-1 -16 4 -28 9 -28 12 0 12 8 0 35 -8 18 -9 17 -9 -7z"/>
<path d="M3881 1144 c0 -11 3 -14 6 -6 3 7 2 16 -1 19 -3 4 -6 -2 -5 -13z"/>
<path d="M1650 1066 c0 -51 4 -86 10 -86 6 0 10 33 10 79 0 44 -4 83 -10 86
-6 4 -10 -25 -10 -79z"/>
<path d="M3589 1143 c-33 -5 -62 -35 -57 -59 3 -16 4 -17 20 -1 9 9 21 17 26
17 6 0 13 6 15 13 3 6 6 1 7 -13 l2 -25 7 24 c4 14 12 26 18 28 9 3 11 -11 8
-49 -4 -39 -2 -46 4 -28 5 14 9 39 10 57 1 24 5 31 16 27 8 -4 15 -1 15 5 0
11 -37 12 -91 4z"/>
<path d="M1930 1130 c0 -5 5 -10 10 -10 6 0 10 5 10 10 0 6 -4 10 -10 10 -5 0
-10 -4 -10 -10z"/>
<path d="M4797 1133 c-4 -3 -7 -13 -7 -22 1 -13 3 -13 11 2 11 19 8 33 -4 20z"/>
<path d="M4832 1104 c-1 -15 2 -22 8 -19 12 7 13 32 2 39 -4 2 -9 -7 -10 -20z"/>
<path d="M791 1104 c0 -11 3 -14 6 -6 3 7 2 16 -1 19 -3 4 -6 -2 -5 -13z"/>
<path d="M1751 1045 c-3 -84 -2 -127 5 -134 9 -9 9 7 3 109 l-5 105 -3 -80z"/>
<path d="M1791 1049 c0 -42 2 -78 5 -81 8 -9 44 3 44 14 0 6 -7 8 -14 5 -15
-6 -17 1 -29 108 -2 17 -5 -4 -6 -46z"/>
<path d="M1940 1060 c0 -33 4 -49 10 -45 12 8 10 84 -2 91 -4 3 -8 -18 -8 -46z"/>
<path d="M2790 1090 c0 -5 7 -10 16 -10 8 0 12 5 9 10 -3 6 -10 10 -16 10 -5
0 -9 -4 -9 -10z"/>
<path d="M3422 1075 c0 -16 2 -22 5 -12 2 9 2 23 0 30 -3 6 -5 -1 -5 -18z"/>
<path d="M2365 1081 c-9 -16 -1 -91 10 -88 14 5 15 50 1 59 -8 6 -7 8 2 8 6 0
12 7 12 15 0 17 -16 20 -25 6z"/>
<path d="M4790 1079 c0 -5 5 -7 10 -4 6 3 10 8 10 11 0 2 -4 4 -10 4 -5 0 -10
-5 -10 -11z"/>
<path d="M483 1073 c-19 -7 -17 -73 2 -73 12 0 15 10 13 40 -1 22 -2 40 -2 39
-1 0 -7 -3 -13 -6z"/>
<path d="M791 1068 c0 -10 -6 -18 -13 -18 -9 0 -9 -3 0 -12 16 -16 25 -5 19
24 -3 14 -5 16 -6 6z"/>
<path d="M2326 1065 c-9 -26 -7 -32 5 -12 6 10 9 21 6 23 -2 3 -7 -2 -11 -11z"/>
<path d="M3314 1068 c-3 -4 15 -8 40 -8 25 0 46 2 46 4 0 8 -82 11 -86 4z"/>
<path d="M3820 1060 c-9 -17 -8 -20 9 -20 16 0 31 18 31 36 0 13 -31 1 -40
-16z"/>
<path d="M4732 1058 c-14 -14 -16 -38 -3 -38 5 0 11 11 13 25 6 29 6 29 -10
13z"/>
<path d="M4829 1050 c-14 -22 -24 -90 -13 -90 9 0 35 76 32 94 -3 19 -4 19
-19 -4z"/>
<path d="M194 1030 c57 -69 83 -97 97 -105 13 -9 -10 21 -71 91 -37 43 -61 55
-26 14z"/>
<path d="M4770 1055 c-1 -5 -3 -33 -5 -60 -4 -45 -3 -51 15 -51 11 0 20 4 20
8 0 4 -4 8 -9 8 -6 0 -7 15 -4 34 3 19 0 42 -6 52 -6 11 -11 15 -11 9z"/>
<path d="M4871 968 c1 -51 4 -104 8 -118 4 -14 7 28 7 93 0 64 -4 117 -8 117
-4 0 -8 -42 -7 -92z"/>
<path d="M3509 1028 c0 -13 -3 -53 -8 -90 -5 -50 -4 -68 5 -68 8 0 12 29 13
90 1 50 0 90 -3 90 -4 0 -6 -10 -7 -22z"/>
<path d="M2800 1026 c0 -8 5 -18 10 -21 6 -3 10 3 10 14 0 12 -4 21 -10 21 -5
0 -10 -6 -10 -14z"/>
<path d="M936 1021 c-9 -13 2 -17 52 -20 32 -1 43 2 40 11 -5 16 -84 23 -92 9z"/>
<path d="M1200 1020 c0 -5 12 -10 28 -10 33 0 57 -14 57 -34 0 -14 216 -177
225 -169 3 2 -2 9 -11 14 -32 17 -199 152 -195 156 6 6 46 -15 71 -37 28 -24
75 -53 75 -46 0 10 -104 82 -150 103 -57 27 -100 36 -100 23z"/>
<path d="M3298 1013 c7 -3 16 -2 19 1 4 3 -2 6 -13 5 -11 0 -14 -3 -6 -6z"/>
<path d="M3355 999 c5 -16 4 -19 -5 -14 -9 5 -11 4 -6 -3 7 -12 -13 -52 -26
-52 -5 0 -8 14 -8 30 0 17 -5 30 -10 30 -12 0 -3 -49 11 -64 5 -6 9 -21 9 -35
0 -35 10 -20 37 56 27 79 27 73 7 73 -11 0 -14 -6 -9 -21z"/>
<path d="M3770 1009 c0 -5 5 -7 10 -4 6 3 10 8 10 11 0 2 -4 4 -10 4 -5 0 -10
-5 -10 -11z"/>
<path d="M3988 1013 c7 -3 16 -2 19 1 4 3 -2 6 -13 5 -11 0 -14 -3 -6 -6z"/>
<path d="M890 999 c0 -20 105 -121 169 -164 37 -24 84 -62 106 -84 21 -23 46
-41 55 -40 10 0 7 5 -10 17 -14 9 -39 31 -56 48 -17 17 -57 49 -90 71 -32 22
-85 68 -116 101 -32 33 -58 56 -58 51z"/>
<path d="M1610 1000 c0 -5 5 -10 10 -10 6 0 10 5 10 10 0 6 -4 10 -10 10 -5 0
-10 -4 -10 -10z"/>
<path d="M4692 993 c-5 -10 -8 -48 -6 -85 1 -38 -1 -68 -4 -68 -4 0 -18 7 -30
16 -12 8 -22 12 -22 9 0 -13 26 -32 51 -37 l25 -4 -1 93 c0 51 -1 93 -2 93 -1
0 -6 -8 -11 -17z"/>
<path d="M835 990 c3 -5 11 -10 16 -10 6 0 7 5 4 10 -3 6 -11 10 -16 10 -6 0
-7 -4 -4 -10z"/>
<path d="M2672 980 c0 -14 2 -19 5 -12 2 6 2 18 0 25 -3 6 -5 1 -5 -13z"/>
<path d="M4727 980 c-3 -11 -1 -23 4 -26 5 -3 9 6 9 20 0 31 -6 34 -13 6z"/>
<path d="M1225 980 c-3 -5 1 -10 9 -10 9 0 16 5 16 10 0 6 -4 10 -9 10 -6 0
-13 -4 -16 -10z"/>
<path d="M3840 972 c-36 -14 -46 -23 -48 -45 -2 -15 1 -27 7 -27 5 0 11 12 13
27 2 22 12 29 53 44 28 10 43 18 35 18 -8 0 -35 -8 -60 -17z"/>
<path d="M500 970 c20 -13 43 -13 35 0 -3 6 -16 10 -28 10 -18 0 -19 -2 -7
-10z"/>
<path d="M998 973 c7 -3 16 -2 19 1 4 3 -2 6 -13 5 -11 0 -14 -3 -6 -6z"/>
<path d="M1055 965 c11 -8 35 -24 53 -37 18 -13 47 -34 63 -46 16 -13 34 -22
40 -20 6 2 -14 20 -44 41 -30 21 -63 47 -72 57 -10 11 -28 20 -39 20 -21 -1
-21 -1 -1 -15z"/>
<path d="M1160 971 c0 -5 14 -14 30 -21 17 -7 30 -16 30 -20 0 -4 7 -10 14
-13 26 -10 7 17 -27 41 -36 24 -47 27 -47 13z"/>
<path d="M2070 963 c0 -10 9 -26 20 -36 19 -16 20 -16 20 4 0 11 -4 18 -9 15
-5 -3 -8 2 -7 11 0 9 -5 18 -11 20 -8 3 -13 -3 -13 -14z"/>
<path d="M1884 910 c7 -59 30 -109 50 -110 4 0 1 11 -7 24 -9 13 -17 49 -19
81 -2 39 -8 60 -17 63 -11 4 -13 -7 -7 -58z"/>
<path d="M4906 937 c-8 -37 -8 -72 0 -65 4 5 10 35 13 71 1 4 8 7 16 7 8 0 15
4 15 8 0 4 -9 8 -19 8 -13 0 -21 -9 -25 -29z"/>
<path d="M574 951 c22 -36 189 -131 204 -116 5 4 -42 25 -58 25 -4 0 -30 17
-57 38 -54 43 -99 70 -89 53z"/>
<path d="M2370 940 c0 -11 2 -20 4 -20 2 0 6 9 9 20 3 11 1 20 -4 20 -5 0 -9
-9 -9 -20z"/>
<path d="M2967 953 c-4 -3 -7 -11 -7 -17 0 -6 5 -5 12 2 6 6 9 14 7 17 -3 3
-9 2 -12 -2z"/>
<path d="M1796 918 c4 -18 15 -42 25 -53 19 -19 19 -19 18 10 0 26 -2 27 -9
10 -7 -16 -9 -13 -15 23 -4 23 -11 42 -16 42 -5 0 -6 -15 -3 -32z"/>
<path d="M3396 941 c-3 -4 -8 -35 -10 -67 -6 -65 -1 -57 12 24 9 51 9 61 -2
43z"/>
<path d="M1715 920 c3 -5 8 -10 11 -10 2 0 4 5 4 10 0 6 -5 10 -11 10 -5 0 -7
-4 -4 -10z"/>
<path d="M3149 895 c-1 -19 -2 -39 -3 -45 -1 -5 4 -9 9 -7 6 1 10 7 11 12 0 6
4 18 9 28 8 20 0 47 -15 47 -5 0 -11 -16 -11 -35z"/>
<path d="M4940 919 c0 -5 5 -7 10 -4 6 3 10 8 10 11 0 2 -4 4 -10 4 -5 0 -10
-5 -10 -11z"/>
<path d="M1638 891 c9 -16 19 -28 21 -25 6 6 -21 54 -30 54 -5 0 0 -13 9 -29z"/>
<path d="M2140 905 c-13 -15 -7 -45 8 -45 16 0 34 29 28 45 -7 19 -20 19 -36
0z"/>
<path d="M1260 902 c0 -4 9 -13 20 -20 11 -7 20 -9 20 -4 0 4 -9 13 -20 20
-11 7 -20 9 -20 4z"/>
<path d="M1741 898 c2 -2 18 -14 34 -28 l30 -25 -24 28 c-14 15 -29 27 -34 27
-6 0 -8 -1 -6 -2z"/>
<path d="M3277 879 c4 -13 8 -18 11 -10 2 7 -1 18 -6 23 -8 8 -9 4 -5 -13z"/>
<path d="M4768 882 c-6 -23 1 -52 13 -52 10 0 9 59 -2 66 -4 2 -9 -4 -11 -14z"/>
<path d="M2090 880 c20 -13 33 -13 25 0 -3 6 -14 10 -23 10 -15 0 -15 -2 -2
-10z"/>
<path d="M3628 883 c7 -3 16 -2 19 1 4 3 -2 6 -13 5 -11 0 -14 -3 -6 -6z"/>
<path d="M3668 883 c7 -3 16 -2 19 1 4 3 -2 6 -13 5 -11 0 -14 -3 -6 -6z"/>
<path d="M4922 845 c-7 -25 -12 -62 -11 -83 1 -35 1 -35 9 -10 9 30 23 138 18
138 -2 0 -9 -20 -16 -45z"/>
<path d="M2041 864 c0 -11 3 -14 6 -6 3 7 2 16 -1 19 -3 4 -6 -2 -5 -13z"/>
<path d="M3228 863 c-3 -10 -2 -27 2 -38 6 -17 8 -16 14 9 4 16 3 33 -2 38 -6
6 -11 2 -14 -9z"/>
<path d="M3460 855 c0 -14 4 -25 9 -25 5 0 8 11 7 25 -1 33 -16 33 -16 0z"/>
<path d="M3543 873 c9 -2 23 -2 30 0 6 3 -1 5 -18 5 -16 0 -22 -2 -12 -5z"/>
<path d="M2935 859 c-4 -6 -5 -12 -2 -15 2 -3 7 2 10 11 7 17 1 20 -8 4z"/>
<path d="M3734 785 c0 -49 1 -71 3 -48 2 23 2 64 0 90 -2 26 -3 8 -3 -42z"/>
<path d="M2060 838 c0 -13 6 -18 17 -16 24 5 27 25 3 31 -15 4 -20 0 -20 -15z"/>
<path d="M4598 855 c-3 -5 12 -37 33 -69 22 -33 39 -53 39 -44 0 9 -4 19 -9
23 -5 3 -12 19 -16 35 -4 17 -13 30 -20 30 -7 0 -15 8 -17 18 -2 9 -6 13 -10
7z"/>
<path d="M2970 840 c0 -5 5 -10 10 -10 6 0 10 5 10 10 0 6 -4 10 -10 10 -5 0
-10 -4 -10 -10z"/>
<path d="M3285 840 c4 -6 11 -8 16 -5 13 9 11 -9 -3 -26 -7 -7 -4 -7 6 3 20
17 14 38 -10 38 -8 0 -12 -5 -9 -10z"/>
<path d="M4961 834 c0 -11 3 -14 6 -6 3 7 2 16 -1 19 -3 4 -6 -2 -5 -13z"/>
<path d="M1755 830 c3 -5 11 -10 16 -10 6 0 7 5 4 10 -3 6 -11 10 -16 10 -6 0
-7 -4 -4 -10z"/>
<path d="M3356 823 c-6 -14 -5 -15 5 -6 7 7 10 15 7 18 -3 3 -9 -2 -12 -12z"/>
<path d="M906 820 c6 -6 38 -16 72 -23 34 -7 72 -22 87 -35 35 -30 40 -28 14
7 -18 25 -32 31 -78 37 -31 4 -67 11 -81 16 -18 7 -22 6 -14 -2z"/>
<path d="M1325 810 c47 -20 139 -35 130 -20 -3 6 -19 10 -34 10 -15 0 -50 7
-77 15 -63 19 -69 18 -19 -5z"/>
<path d="M1716 817 c3 -10 9 -15 12 -12 3 3 0 11 -7 18 -10 9 -11 8 -5 -6z"/>
<path d="M4476 789 c-3 -18 -2 -37 3 -42 6 -6 8 -3 7 9 -2 11 1 25 7 32 7 9 7
16 0 23 -7 7 -12 0 -17 -22z"/>
<path d="M3143 785 c-6 -14 -7 -25 -2 -25 11 0 22 25 17 39 -1 6 -8 -1 -15
-14z"/>
<path d="M4690 808 c1 -14 49 -99 50 -87 0 25 -29 89 -40 89 -6 0 -10 -1 -10
-2z"/>
<path d="M1527 787 c3 -4 11 -6 18 -3 16 6 74 -29 81 -49 4 -8 10 -15 16 -15
15 0 -25 48 -52 61 -29 15 -71 19 -63 6z"/>
<path d="M710 780 c0 -5 14 -10 32 -10 36 0 35 4 -4 14 -17 4 -28 2 -28 -4z"/>
<path d="M3270 782 c0 -5 -9 -18 -20 -30 -12 -12 -17 -22 -12 -22 10 0 52 43
52 53 0 4 -4 7 -10 7 -5 0 -10 -4 -10 -8z"/>
<path d="M4560 784 c0 -12 62 -115 67 -111 2 3 -7 23 -21 46 -14 22 -26 45
-26 50 0 5 -4 13 -10 16 -5 3 -10 3 -10 -1z"/>
<path d="M4957 783 c-4 -3 -7 -11 -7 -17 0 -6 5 -5 12 2 6 6 9 14 7 17 -3 3
-9 2 -12 -2z"/>
<path d="M5075 780 c-3 -6 1 -7 9 -4 18 7 21 14 7 14 -6 0 -13 -4 -16 -10z"/>
<path d="M1785 770 c3 -5 8 -10 11 -10 2 0 4 5 4 10 0 6 -5 10 -11 10 -5 0 -7
-4 -4 -10z"/>
<path d="M1380 761 c0 -6 5 -13 10 -16 6 -3 10 1 10 9 0 9 -4 16 -10 16 -5 0
-10 -4 -10 -9z"/>
<path d="M1518 753 c7 -3 16 -2 19 1 4 3 -2 6 -13 5 -11 0 -14 -3 -6 -6z"/>
<path d="M2842 754 c3 -5 18 -48 32 -96 22 -72 30 -88 46 -88 11 0 20 5 20 11
0 5 -5 7 -12 3 -7 -5 -8 -3 -4 5 5 7 1 20 -6 29 -8 9 -25 43 -38 75 -12 31
-27 60 -33 64 -5 3 -8 2 -5 -3z"/>
<path d="M3630 753 c0 -5 -10 -15 -22 -21 -23 -11 -23 -11 -2 -11 20 -1 41 25
29 37 -3 3 -5 1 -5 -5z"/>
<path d="M3078 743 c7 -3 16 -2 19 1 4 3 -2 6 -13 5 -11 0 -14 -3 -6 -6z"/>
<path d="M5065 740 c-3 -6 1 -7 9 -4 18 7 21 14 7 14 -6 0 -13 -4 -16 -10z"/>
<path d="M1750 729 c0 -5 5 -7 10 -4 6 3 10 8 10 11 0 2 -4 4 -10 4 -5 0 -10
-5 -10 -11z"/>
<path d="M2063 733 c15 -2 39 -2 55 0 15 2 2 4 -28 4 -30 0 -43 -2 -27 -4z"/>
<path d="M3290 730 c-8 -5 -12 -12 -9 -15 4 -3 12 1 19 10 14 17 11 19 -10 5z"/>
<path d="M2700 705 c-4 -62 2 -140 11 -149 5 -6 9 -1 10 15 0 22 1 22 8 4 10
-25 5 -35 -17 -35 -23 0 -58 -180 -41 -211 8 -15 8 -28 -1 -49 -6 -16 -10 -37
-8 -47 3 -13 9 -7 22 22 10 23 15 50 11 65 -10 43 -12 81 -4 86 5 2 6 11 3 19
-6 14 29 39 39 29 3 -3 16 -3 29 2 l23 7 -23 8 c-12 5 -29 6 -37 3 -11 -5 -15
1 -15 25 l0 31 68 1 c84 2 207 15 167 18 -16 2 -67 2 -112 1 -81 -2 -83 -1
-84 22 0 12 -11 55 -24 93 -19 57 -23 64 -25 40z"/>
<path d="M4440 721 c0 -5 5 -13 10 -16 6 -3 10 -2 10 4 0 5 -4 13 -10 16 -5 3
-10 2 -10 -4z"/>
<path d="M4508 718 c5 -5 16 -8 23 -6 8 3 3 7 -10 11 -17 4 -21 3 -13 -5z"/>
<path d="M4998 716 c-10 -7 -18 -19 -18 -27 1 -9 6 -7 18 7 10 11 24 23 32 27
13 5 13 5 0 6 -8 0 -23 -6 -32 -13z"/>
<path d="M3068 713 c6 -2 18 -2 25 0 6 3 1 5 -13 5 -14 0 -19 -2 -12 -5z"/>
<path d="M3330 704 c35 -7 98 -9 94 -2 -3 5 -29 7 -57 7 -29 -1 -45 -3 -37 -5z"/>
<path d="M4088 703 c7 -3 16 -2 19 1 4 3 -2 6 -13 5 -11 0 -14 -3 -6 -6z"/>
<path d="M1498 693 c7 -3 16 -2 19 1 4 3 -2 6 -13 5 -11 0 -14 -3 -6 -6z"/>
<path d="M1910 690 c-32 -5 -33 -6 -10 -12 35 -8 132 -4 152 7 19 11 -80 14
-142 5z"/>
<path d="M3200 692 c0 -11 66 -13 92 -3 18 7 10 9 -34 9 -32 1 -58 -2 -58 -6z"/>
<path d="M3478 693 c12 -2 32 -2 45 0 12 2 2 4 -23 4 -25 0 -35 -2 -22 -4z"/>
<path d="M4692 680 c14 -22 24 -19 15 5 -4 8 -11 15 -17 15 -6 0 -6 -7 2 -20z"/>
<path d="M3368 683 c7 -3 16 -2 19 1 4 3 -2 6 -13 5 -11 0 -14 -3 -6 -6z"/>
<path d="M4430 680 c0 -12 8 -12 35 0 18 8 17 9 -7 9 -16 1 -28 -3 -28 -9z"/>
<path d="M1405 670 c-7 -12 158 -12 195 0 16 5 -15 8 -82 8 -60 1 -110 -3
-113 -8z"/>
<path d="M2998 673 c7 -3 16 -2 19 1 4 3 -2 6 -13 5 -11 0 -14 -3 -6 -6z"/>
<path d="M3120 660 c0 -5 14 -10 30 -10 17 0 30 5 30 10 0 6 -13 10 -30 10
-16 0 -30 -4 -30 -10z"/>
<path d="M4360 660 c-13 -8 -13 -10 2 -10 9 0 20 5 23 10 8 13 -5 13 -25 0z"/>
<path d="M1620 651 c-21 -6 -17 -8 26 -14 52 -6 122 4 94 14 -24 8 -93 8 -120
0z"/>
<path d="M4065 633 c-36 -22 -37 -24 -12 -18 16 3 38 15 50 25 28 27 11 24
-38 -7z"/>
<path d="M1820 635 c0 -12 8 -16 33 -13 17 2 32 8 32 13 0 6 -15 11 -32 13
-25 3 -33 -1 -33 -13z"/>
<path d="M4280 640 c17 -11 77 -14 67 -3 -4 3 -24 8 -45 10 -27 2 -33 1 -22
-7z"/>
<path d="M4400 633 c-29 -5 -52 -23 -29 -23 7 1 39 7 69 15 46 11 50 13 20 13
-19 0 -46 -3 -60 -5z"/>
<path d="M1258 621 c20 -12 -12 -23 -41 -12 -12 4 -61 2 -112 -5 l-90 -12 93
1 c50 1 92 -1 92 -5 0 -9 44 -1 130 23 l65 18 -75 0 c-45 0 -70 -3 -62 -8z"/>
<path d="M3285 620 c-4 -6 12 -10 39 -8 25 0 43 4 41 8 -7 11 -74 10 -80 0z"/>
<path d="M3383 623 c3 -5 32 -10 65 -11 32 -1 90 -6 128 -11 40 -5 73 -5 79 0
5 5 -5 10 -25 11 -19 0 -46 3 -60 4 -78 11 -192 15 -187 7z"/>
<path d="M4230 620 c0 -5 7 -7 15 -4 8 4 15 8 15 10 0 2 -7 4 -15 4 -8 0 -15
-4 -15 -10z"/>
<path d="M3130 609 c0 -5 5 -7 10 -4 6 3 10 8 10 11 0 2 -4 4 -10 4 -5 0 -10
-5 -10 -11z"/>
<path d="M3198 613 c12 -2 32 -2 45 0 12 2 2 4 -23 4 -25 0 -35 -2 -22 -4z"/>
<path d="M4195 610 c-3 -6 1 -7 9 -4 18 7 21 14 7 14 -6 0 -13 -4 -16 -10z"/>
<path d="M1431 606 c2 -2 46 -7 97 -10 63 -5 92 -4 92 3 0 7 -34 11 -97 11
-53 0 -94 -2 -92 -4z"/>
<path d="M1650 600 c-13 -8 -12 -10 3 -10 9 0 17 5 17 10 0 12 -1 12 -20 0z"/>
<path d="M3050 600 c-34 -7 -34 -7 13 -9 30 0 46 3 42 9 -3 6 -9 9 -13 9 -4
-1 -23 -5 -42 -9z"/>
<path d="M3983 603 c9 -2 23 -2 30 0 6 3 -1 5 -18 5 -16 0 -22 -2 -12 -5z"/>
<path d="M1319 582 c-28 -9 -85 -14 -159 -13 -78 0 -110 -2 -100 -9 18 -12
479 -10 486 2 3 4 -24 8 -60 8 -36 0 -67 4 -70 9 -10 16 -53 18 -97 3z"/>
<path d="M1788 593 c-83 -4 -108 -13 -72 -27 8 -3 13 -10 10 -15 -4 -5 2 -8
11 -6 10 2 34 4 53 6 33 2 33 2 -10 9 -43 6 -41 6 38 14 45 5 85 13 88 17 3 5
-3 8 -13 7 -10 -1 -57 -4 -105 -5z"/>
<path d="M2044 585 c25 -19 31 -19 46 0 11 13 7 15 -26 15 -36 -1 -38 -2 -20
-15z"/>
<path d="M3335 590 c-4 -6 9 -10 31 -10 42 0 42 4 2 14 -15 3 -30 2 -33 -4z"/>
<path d="M4118 593 c7 -3 16 -2 19 1 4 3 -2 6 -13 5 -11 0 -14 -3 -6 -6z"/>
<path d="M1943 582 c-8 -5 1 -8 22 -9 19 -1 38 3 41 8 6 11 -46 12 -63 1z"/>
<path d="M4423 583 c9 -2 23 -2 30 0 6 3 -1 5 -18 5 -16 0 -22 -2 -12 -5z"/>
<path d="M3518 573 c12 -2 32 -2 45 0 12 2 2 4 -23 4 -25 0 -35 -2 -22 -4z"/>
<path d="M3230 559 c0 -20 55 -22 725 -19 68 0 105 4 96 9 -8 5 -165 8 -351 6
-185 -1 -367 0 -403 4 -37 4 -67 4 -67 0z"/>
<path d="M1650 550 c0 -5 14 -10 31 -10 17 0 28 4 24 10 -3 6 -17 10 -31 10
-13 0 -24 -4 -24 -10z"/>
<path d="M2567 553 c-4 -6 -9 -94 -13 -196 -5 -181 -5 -184 15 -190 20 -5 21
-2 22 121 0 70 0 148 -1 174 -2 58 -14 106 -23 91z m4 -170 c-12 -20 -14 -14
-5 12 4 9 9 14 11 11 3 -2 0 -13 -6 -23z"/>
<path d="M2990 543 c0 -8 12 -13 28 -13 18 0 29 5 29 14 0 10 -10 14 -29 13
-15 -1 -28 -8 -28 -14z"/>
<path d="M3066 545 c7 -18 21 -19 27 -2 4 9 7 9 18 0 9 -9 16 -10 26 -2 9 8
13 8 13 0 0 -6 7 -11 15 -11 8 0 15 7 15 15 0 12 -13 15 -60 15 -49 0 -58 -3
-54 -15z"/>
<path d="M4358 548 c9 -9 15 -9 24 0 9 9 7 12 -12 12 -19 0 -21 -3 -12 -12z"/>
<path d="M685 529 c-23 -4 6 -6 70 -6 61 -1 124 3 140 7 36 9 -151 8 -210 -1z"/>
<path d="M1848 523 c7 -3 16 -2 19 1 4 3 -2 6 -13 5 -11 0 -14 -3 -6 -6z"/>
<path d="M2215 510 c-4 -6 7 -10 27 -10 25 0 29 3 18 10 -19 13 -37 13 -45 0z"/>
<path d="M1815 500 c-28 -7 -27 -8 13 -9 27 -1 41 3 37 9 -7 11 -7 11 -50 0z"/>
<path d="M4118 503 c18 -2 45 -2 60 0 15 2 0 4 -33 4 -33 0 -45 -2 -27 -4z"/>
<path d="M4355 500 c11 -5 65 -8 120 -8 l100 1 -70 7 c-102 11 -175 11 -150 0z"/>
<path d="M1690 490 c-19 -4 -73 -10 -119 -14 -101 -6 -119 -16 -31 -16 61 0
150 12 215 30 l30 8 -30 0 c-16 0 -46 -4 -65 -8z"/>
<path d="M1865 480 l-40 -18 38 0 c24 1 37 6 37 15 0 7 4 13 10 13 5 0 7 -7 4
-15 -5 -11 1 -15 21 -15 l28 0 -23 20 c-27 24 -24 24 -75 0z"/>
<path d="M1988 493 c17 -2 32 -8 32 -12 0 -4 16 -8 35 -9 19 -2 35 1 35 6 0
11 -61 22 -105 20 l-30 -1 33 -4z"/>
<path d="M2388 493 c7 -3 16 -2 19 1 4 3 -2 6 -13 5 -11 0 -14 -3 -6 -6z"/>
<path d="M2219 477 c5 -5 26 -7 47 -5 l39 3 -47 5 c-26 3 -43 1 -39 -3z"/>
<path d="M2335 480 c-4 -6 6 -10 22 -10 22 0 25 2 13 10 -19 12 -27 12 -35 0z"/>
<path d="M3139 477 c5 -5 30 -7 57 -5 l49 3 -57 5 c-31 3 -53 1 -49 -3z"/>
<path d="M3355 480 c-3 -5 -1 -10 4 -10 6 0 11 5 11 10 0 6 -2 10 -4 10 -3 0
-8 -4 -11 -10z"/>
<path d="M3855 480 c22 -4 58 -4 80 0 33 6 26 8 -40 8 -66 0 -73 -2 -40 -8z"/>
<path d="M3310 470 c19 -13 30 -13 30 0 0 6 -10 10 -22 10 -19 0 -20 -2 -8
-10z"/>
<path d="M3388 473 c6 -2 18 -2 25 0 6 3 1 5 -13 5 -14 0 -19 -2 -12 -5z"/>
<path d="M3453 468 c16 -10 157 -10 157 0 0 4 -38 7 -84 7 -46 0 -79 -3 -73
-7z"/>
<path d="M3663 473 c9 -2 25 -2 35 0 9 3 1 5 -18 5 -19 0 -27 -2 -17 -5z"/>
<path d="M3738 473 c12 -2 32 -2 45 0 12 2 2 4 -23 4 -25 0 -35 -2 -22 -4z"/>
<path d="M167 463 c18 -2 50 -2 70 0 21 2 7 4 -32 4 -38 0 -55 -2 -38 -4z"/>
<path d="M745 460 c3 -6 18 -8 32 -6 40 8 40 16 -1 16 -22 0 -35 -4 -31 -10z"/>
<path d="M1035 460 c3 -5 33 -10 66 -10 33 0 59 4 59 10 0 6 -29 10 -66 10
-41 0 -63 -4 -59 -10z"/>
<path d="M1790 459 c0 -6 -7 -9 -15 -6 -8 4 -17 2 -20 -3 -7 -11 9 -13 42 -4
13 4 20 10 17 15 -7 13 -24 11 -24 -2z"/>
<path d="M2790 460 c0 -5 7 -10 15 -10 8 0 15 5 15 10 0 6 -7 10 -15 10 -8 0
-15 -4 -15 -10z"/>
<path d="M3060 460 c0 -5 5 -10 10 -10 6 0 10 5 10 10 0 6 -4 10 -10 10 -5 0
-10 -4 -10 -10z"/>
<path d="M3110 459 c0 -5 5 -7 10 -4 6 3 10 8 10 11 0 2 -4 4 -10 4 -5 0 -10
-5 -10 -11z"/>
<path d="M3258 463 c6 -2 18 -2 25 0 6 3 1 5 -13 5 -14 0 -19 -2 -12 -5z"/>
<path d="M320 450 c-25 -4 -99 -13 -165 -20 -126 -14 -208 -35 -100 -25 114 9
317 34 322 38 10 10 -14 13 -57 7z"/>
<path d="M1429 453 c12 -4 12 -6 0 -14 -10 -6 -2 -9 23 -9 20 0 39 4 43 9 3 6
-3 9 -12 9 -10 0 -29 1 -43 4 -14 3 -19 3 -11 1z"/>
<path d="M2152 453 c-12 -2 -20 -8 -17 -13 3 -5 1 -11 -5 -15 -5 -3 -10 -1
-10 5 0 14 -52 9 -57 -5 -1 -5 15 -11 37 -12 22 0 40 2 40 6 0 4 19 8 42 9 49
2 50 3 37 22 -8 13 -10 13 -19 0 -6 -10 -10 -11 -10 -2 0 6 -3 11 -7 11 -5 -1
-18 -4 -31 -6z"/>
<path d="M1312 443 c-9 -3 -4 -10 13 -19 17 -9 33 -10 49 -4 13 5 27 6 32 2 4
-4 4 -1 0 6 -4 7 -17 10 -32 6 -13 -3 -30 -2 -37 4 -6 5 -18 7 -25 5z"/>
<path d="M2830 441 c0 -5 24 -10 53 -11 28 -1 85 -4 126 -7 40 -2 71 -1 68 4
-3 5 -27 8 -54 7 -26 0 -52 1 -57 4 -17 9 -136 12 -136 3z"/>
<path d="M3955 440 c-4 -6 8 -10 31 -10 40 0 39 12 -1 17 -13 2 -26 -1 -30 -7z"/>
<path d="M4360 440 c0 -6 42 -10 102 -10 56 0 99 2 97 4 -10 9 -199 15 -199 6z"/>
<path d="M1653 428 c-50 -9 -64 -20 -44 -32 9 -6 101 22 116 35 11 11 -1 10
-72 -3z"/>
<path d="M3568 433 c7 -3 16 -2 19 1 4 3 -2 6 -13 5 -11 0 -14 -3 -6 -6z"/>
<path d="M3622 426 c7 -8 15 -12 17 -11 5 6 -10 25 -20 25 -5 0 -4 -6 3 -14z"/>
<path d="M1993 420 c-31 -13 -29 -18 7 -16 35 2 67 26 35 25 -11 0 -30 -4 -42
-9z"/>
<path d="M3103 419 c11 -7 23 -7 35 0 14 9 11 10 -18 10 -29 0 -32 -1 -17 -10z"/>
<path d="M738 410 c13 -6 38 -6 60 -1 35 8 33 9 -23 9 -46 1 -55 -1 -37 -8z"/>
<path d="M956 411 c-3 -5 1 -11 9 -15 15 -6 29 7 18 18 -9 9 -21 8 -27 -3z"/>
<path d="M1250 408 c0 -4 11 -8 25 -8 14 0 25 4 25 10 0 5 -11 9 -25 8 -14 -1
-25 -6 -25 -10z"/>
<path d="M4150 410 c0 -5 5 -10 10 -10 6 0 10 5 10 10 0 6 -4 10 -10 10 -5 0
-10 -4 -10 -10z"/>
<path d="M1128 403 c-35 -9 -17 -21 20 -13 73 16 77 18 37 18 -22 0 -48 -2
-57 -5z"/>
<path d="M2248 403 c7 -3 16 -2 19 1 4 3 -2 6 -13 5 -11 0 -14 -3 -6 -6z"/>
<path d="M2356 398 c3 -5 10 -6 15 -3 13 9 11 12 -6 12 -8 0 -12 -4 -9 -9z"/>
<path d="M3958 403 c7 -3 16 -2 19 1 4 3 -2 6 -13 5 -11 0 -14 -3 -6 -6z"/>
<path d="M1465 390 c-11 -5 -33 -9 -50 -9 -37 -1 -109 -21 -102 -28 8 -8 227
29 227 39 0 10 -49 9 -75 -2z"/>
<path d="M2518 393 c7 -3 16 -2 19 1 4 3 -2 6 -13 5 -11 0 -14 -3 -6 -6z"/>
<path d="M4304 388 c-3 -5 34 -8 82 -8 48 0 84 3 81 6 -9 10 -158 11 -163 2z"/>
<path d="M1745 380 c-19 -8 -19 -9 3 -9 12 -1 22 4 22 9 0 6 -1 10 -2 9 -2 0
-12 -4 -23 -9z"/>
<path d="M1843 368 c-2 -5 35 -8 83 -8 48 0 85 3 81 6 -8 9 -158 10 -164 2z"/>
<path d="M2030 370 c-10 -6 5 -9 47 -7 35 1 63 5 63 10 0 10 -92 8 -110 -3z"/>
<path d="M2750 370 c-14 -4 17 -7 74 -8 55 -2 97 1 93 4 -9 9 -137 13 -167 4z"/>
<path d="M2934 368 c-3 -4 19 -8 48 -7 57 1 55 5 -5 11 -21 2 -40 0 -43 -4z"/>
<path d="M1535 359 c-4 -6 -5 -13 -2 -16 7 -7 27 6 27 18 0 12 -17 12 -25 -2z"/>
<path d="M1216 334 c-38 -13 -72 -21 -77 -19 -4 3 -27 1 -51 -5 -24 -5 -54
-11 -68 -13 -14 -2 -35 -8 -47 -15 -16 -9 -24 -9 -29 -1 -7 12 -84 6 -126 -10
-25 -9 255 -5 284 5 10 3 15 11 12 17 -5 8 -2 8 7 0 15 -15 43 -17 34 -3 -3 5
28 20 70 32 41 13 75 26 75 31 0 10 -6 9 -84 -19z"/>
<path d="M2615 350 c-3 -5 1 -10 10 -10 9 0 13 5 10 10 -3 6 -8 10 -10 10 -2
0 -7 -4 -10 -10z"/>
<path d="M3555 350 c-4 -6 9 -10 31 -10 42 0 42 4 2 14 -15 3 -30 2 -33 -4z"/>
<path d="M4580 350 c20 -13 63 -13 55 0 -3 6 -21 10 -38 10 -24 0 -28 -3 -17
-10z"/>
<path d="M3653 343 c9 -2 23 -2 30 0 6 3 -1 5 -18 5 -16 0 -22 -2 -12 -5z"/>
<path d="M1593 329 c7 -4 75 -10 152 -14 77 -3 184 -10 238 -13 53 -4 97 -5
97 -2 0 3 48 6 108 7 59 1 126 5 150 8 49 7 54 -4 17 -40 -30 -30 -65 -33 -72
-5 -3 11 -12 20 -20 20 -16 0 -10 -11 24 -48 17 -18 94 4 86 24 -4 10 4 14 23
15 21 1 23 3 10 6 -18 5 -18 6 4 23 23 18 22 18 -66 15 -178 -6 -489 -6 -506
0 -22 9 -261 12 -245 4z"/>
<path d="M4696 331 c5 -5 41 -11 79 -12 39 -1 85 -6 103 -10 45 -10 40 5 -7
19 -46 14 -189 16 -175 3z"/>
<path d="M2885 320 c-3 -5 -1 -10 4 -10 6 0 11 5 11 10 0 6 -2 10 -4 10 -3 0
-8 -4 -11 -10z"/>
<path d="M3308 323 c7 -3 16 -2 19 1 4 3 -2 6 -13 5 -11 0 -14 -3 -6 -6z"/>
<path d="M4920 320 c0 -5 7 -7 15 -4 8 4 15 8 15 10 0 2 -7 4 -15 4 -8 0 -15
-4 -15 -10z"/>
<path d="M1433 313 c9 -2 23 -2 30 0 6 3 -1 5 -18 5 -16 0 -22 -2 -12 -5z"/>
<path d="M2945 310 c-4 -6 -10 -8 -15 -5 -5 3 -11 1 -15 -5 -3 -5 1 -10 9 -10
9 0 16 -7 16 -16 0 -8 5 -12 10 -9 8 5 7 11 -1 21 -9 11 -7 14 9 14 38 0 71
-19 94 -54 27 -42 43 -48 23 -9 -8 15 -11 31 -8 36 4 6 -1 8 -10 4 -10 -4 -17
-1 -17 6 0 25 -82 48 -95 27z"/>
<path d="M3103 313 c9 -2 25 -2 35 0 9 3 1 5 -18 5 -19 0 -27 -2 -17 -5z"/>
<path d="M3488 303 c7 -3 16 -2 19 1 4 3 -2 6 -13 5 -11 0 -14 -3 -6 -6z"/>
<path d="M3540 300 c0 -5 12 -10 26 -10 14 0 23 4 19 10 -3 6 -15 10 -26 10
-10 0 -19 -4 -19 -10z"/>
<path d="M2200 290 c0 -5 9 -10 21 -10 11 0 17 5 14 10 -3 6 -13 10 -21 10 -8
0 -14 -4 -14 -10z"/>
<path d="M2795 290 c-3 -5 -2 -10 4 -10 5 0 13 5 16 10 3 6 2 10 -4 10 -5 0
-13 -4 -16 -10z"/>
<path d="M2835 290 c3 -5 11 -10 16 -10 6 0 7 5 4 10 -3 6 -11 10 -16 10 -6 0
-7 -4 -4 -10z"/>
<path d="M1593 283 c9 -2 23 -2 30 0 6 3 -1 5 -18 5 -16 0 -22 -2 -12 -5z"/>
<path d="M1703 283 c9 -2 25 -2 35 0 9 3 1 5 -18 5 -19 0 -27 -2 -17 -5z"/>
<path d="M1500 269 c0 -5 5 -7 10 -4 6 3 10 8 10 11 0 2 -4 4 -10 4 -5 0 -10
-5 -10 -11z"/>
<path d="M1815 270 c-33 -9 -32 -11 8 -16 18 -2 27 2 27 12 0 8 -1 13 -2 13
-2 -1 -16 -5 -33 -9z"/>
<path d="M1438 263 c6 -2 18 -2 25 0 6 3 1 5 -13 5 -14 0 -19 -2 -12 -5z"/>
<path d="M2755 260 c-19 -8 -19 -9 3 -9 12 -1 22 4 22 9 0 6 -1 10 -2 9 -2 0
-12 -4 -23 -9z"/>
<path d="M2790 260 c0 -5 7 -10 15 -10 9 0 14 -8 12 -22 -2 -22 1 -23 85 -25
48 -2 89 1 92 6 8 13 -23 18 -97 17 -64 -2 -67 -1 -67 21 0 16 -6 23 -20 23
-11 0 -20 -4 -20 -10z"/>
<path d="M2898 263 c7 -3 16 -2 19 1 4 3 -2 6 -13 5 -11 0 -14 -3 -6 -6z"/>
<path d="M3591 244 c0 -11 3 -14 6 -6 3 7 2 16 -1 19 -3 4 -6 -2 -5 -13z"/>
<path d="M5055 250 c3 -5 19 -10 36 -10 16 0 29 5 29 10 0 6 -16 10 -36 10
-21 0 -33 -4 -29 -10z"/>
<path d="M1030 239 c-70 -11 -190 -50 -190 -61 0 -5 9 -4 19 2 11 5 28 10 39
10 10 0 32 7 48 15 30 15 113 28 174 27 28 0 31 2 15 8 -24 10 -34 10 -105 -1z"/>
<path d="M1160 240 c0 -5 5 -10 10 -10 6 0 10 5 10 10 0 6 -4 10 -10 10 -5 0
-10 -4 -10 -10z"/>
<path d="M1198 243 c7 -3 16 -2 19 1 4 3 -2 6 -13 5 -11 0 -14 -3 -6 -6z"/>
<path d="M3528 243 c6 -2 18 -2 25 0 6 3 1 5 -13 5 -14 0 -19 -2 -12 -5z"/>
<path d="M1823 223 c9 -2 25 -2 35 0 9 3 1 5 -18 5 -19 0 -27 -2 -17 -5z"/>
<path d="M2125 221 l-30 -7 38 -5 c26 -4 37 -1 37 8 0 14 0 14 -45 4z"/>
<path d="M3020 210 c0 -5 7 -10 15 -10 8 0 15 5 15 10 0 6 -7 10 -15 10 -8 0
-15 -4 -15 -10z"/>
<path d="M3207 214 c-10 -11 -9 -26 2 -20 5 4 11 2 13 -3 1 -4 12 -5 23 0 19
7 19 8 -2 8 -12 1 -23 6 -25 12 -2 5 -7 7 -11 3z"/>
<path d="M1030 200 c0 -5 5 -10 10 -10 6 0 10 5 10 10 0 6 -4 10 -10 10 -5 0
-10 -4 -10 -10z"/>
<path d="M1330 200 c0 -5 4 -10 9 -10 6 0 13 5 16 10 3 6 -1 10 -9 10 -9 0
-16 -4 -16 -10z"/>
<path d="M2017 203 c-39 -3 -50 -9 -59 -29 -7 -14 -24 -28 -41 -32 -17 -4 -32
-13 -34 -19 -8 -22 70 14 81 38 12 25 30 34 53 25 11 -5 11 -9 1 -25 -9 -15
-15 -17 -21 -8 -6 8 -7 6 -3 -5 4 -13 -4 -22 -29 -34 -33 -15 -47 -34 -25 -34
6 0 10 5 10 10 0 6 4 9 9 8 10 -3 121 92 121 104 0 4 -3 7 -7 6 -5 -1 -30 -3
-56 -5z"/>
<path d="M2660 199 c0 -11 27 -12 34 -1 2 4 -4 9 -15 9 -10 1 -19 -2 -19 -8z"/>
<path d="M3120 200 l-35 -6 40 -9 c22 -4 46 -12 53 -18 18 -14 15 8 -4 27 -8
9 -16 15 -17 15 -1 -1 -18 -5 -37 -9z"/>
<path d="M990 189 c0 -5 5 -7 10 -4 6 3 10 8 10 11 0 2 -4 4 -10 4 -5 0 -10
-5 -10 -11z"/>
<path d="M1595 190 c-3 -5 -1 -10 4 -10 6 0 11 5 11 10 0 6 -2 10 -4 10 -3 0
-8 -4 -11 -10z"/>
<path d="M1850 191 c0 -6 10 -8 21 -6 33 6 36 15 6 15 -15 0 -27 -4 -27 -9z"/>
<path d="M1910 190 c0 -5 5 -10 11 -10 5 0 7 5 4 10 -3 6 -8 10 -11 10 -2 0
-4 -4 -4 -10z"/>
<path d="M2072 147 c-24 -32 -41 -61 -39 -64 3 -3 24 13 47 34 32 29 41 45 38
63 -3 23 -7 20 -46 -33z"/>
<path d="M3288 193 c7 -3 16 -2 19 1 4 3 -2 6 -13 5 -11 0 -14 -3 -6 -6z"/>
<path d="M3418 193 c6 -2 18 -2 25 0 6 3 1 5 -13 5 -14 0 -19 -2 -12 -5z"/>
<path d="M3493 193 c9 -2 23 -2 30 0 6 3 -1 5 -18 5 -16 0 -22 -2 -12 -5z"/>
<path d="M300 180 c0 -6 52 -10 136 -10 100 0 133 -3 128 -12 -5 -8 4 -9 32
-5 21 4 68 7 104 8 l65 1 -70 13 c-84 16 -395 20 -395 5z"/>
<path d="M948 183 c7 -3 16 -2 19 1 4 3 -2 6 -13 5 -11 0 -14 -3 -6 -6z"/>
<path d="M1428 183 c7 -3 16 -2 19 1 4 3 -2 6 -13 5 -11 0 -14 -3 -6 -6z"/>
<path d="M1780 179 c0 -5 5 -7 10 -4 6 3 10 8 10 11 0 2 -4 4 -10 4 -5 0 -10
-5 -10 -11z"/>
<path d="M2345 180 c4 -6 11 -8 16 -5 14 9 11 15 -7 15 -8 0 -12 -5 -9 -10z"/>
<path d="M1388 173 c7 -3 16 -2 19 1 4 3 -2 6 -13 5 -11 0 -14 -3 -6 -6z"/>
<path d="M1698 173 c7 -3 16 -2 19 1 4 3 -2 6 -13 5 -11 0 -14 -3 -6 -6z"/>
<path d="M2155 172 c-3 -3 -5 -9 -5 -14 0 -11 47 -10 54 1 6 9 -40 22 -49 13z"/>
<path d="M2650 170 c0 -5 7 -10 16 -10 8 0 12 5 9 10 -3 6 -10 10 -16 10 -5 0
-9 -4 -9 -10z"/>
<path d="M3060 168 c0 -4 9 -8 20 -8 11 0 20 4 20 8 0 4 -9 8 -20 8 -11 0 -20
-4 -20 -8z"/>
<path d="M3530 170 c-13 -8 -12 -10 3 -10 9 0 17 5 17 10 0 12 -1 12 -20 0z"/>
<path d="M990 158 c0 -11 32 -10 50 2 11 8 7 10 -17 8 -18 -1 -33 -6 -33 -10z"/>
<path d="M1338 163 c7 -3 16 -2 19 1 4 3 -2 6 -13 5 -11 0 -14 -3 -6 -6z"/>
<path d="M1480 160 c0 -12 57 -12 85 0 15 6 6 9 -32 9 -29 1 -53 -3 -53 -9z"/>
<path d="M2302 158 c2 -6 10 -14 16 -16 7 -2 10 2 6 12 -7 18 -28 22 -22 4z"/>
<path d="M2410 160 c0 -5 5 -10 11 -10 5 0 7 5 4 10 -3 6 -8 10 -11 10 -2 0
-4 -4 -4 -10z"/>
<path d="M2955 161 c-28 -7 -26 -8 18 -12 33 -3 47 -1 47 8 0 14 -17 15 -65 4z"/>
<path d="M3030 159 c0 -5 5 -7 10 -4 6 3 10 8 10 11 0 2 -4 4 -10 4 -5 0 -10
-5 -10 -11z"/>
<path d="M197 153 c24 -2 62 -2 85 0 24 2 5 4 -42 4 -47 0 -66 -2 -43 -4z"/>
<path d="M805 150 c-4 -6 3 -10 14 -10 25 0 27 6 6 13 -8 4 -17 2 -20 -3z"/>
<path d="M938 153 c7 -3 16 -2 19 1 4 3 -2 6 -13 5 -11 0 -14 -3 -6 -6z"/>
<path d="M1197 149 c8 -8 16 -8 30 0 16 9 14 10 -11 11 -22 0 -27 -3 -19 -11z"/>
<path d="M2761 156 c15 -13 50 -27 44 -17 -9 15 77 2 87 -13 5 -7 8 -5 8 6 0
9 6 19 13 21 6 3 -26 6 -72 6 -46 1 -82 -1 -80 -3z"/>
<path d="M3110 150 c0 -5 5 -10 10 -10 6 0 10 5 10 10 0 6 -4 10 -10 10 -5 0
-10 -4 -10 -10z"/>
<path d="M863 143 c9 -2 25 -2 35 0 9 3 1 5 -18 5 -19 0 -27 -2 -17 -5z"/>
<path d="M2455 139 c-4 -6 -5 -13 -2 -16 7 -7 27 6 27 18 0 12 -17 12 -25 -2z"/>
<path d="M2565 79 c6 -97 15 -100 15 -6 0 45 -4 77 -10 77 -6 0 -8 -28 -5 -71z"/>
<path d="M2410 130 c0 -5 7 -10 16 -10 8 0 12 5 9 10 -3 6 -10 10 -16 10 -5 0
-9 -4 -9 -10z"/>
<path d="M1416 121 c-3 -4 6 -6 19 -3 14 2 25 6 25 8 0 8 -39 4 -44 -5z"/>
<path d="M1991 86 l-24 -31 28 27 c16 15 27 29 24 31 -2 3 -15 -10 -28 -27z"/>
<path d="M2320 110 c0 -5 7 -10 16 -10 8 0 12 5 9 10 -3 6 -10 10 -16 10 -5 0
-9 -4 -9 -10z"/>
<path d="M1800 99 c0 -5 5 -7 10 -4 6 3 10 8 10 11 0 2 -4 4 -10 4 -5 0 -10
-5 -10 -11z"/>
<path d="M540 80 c-29 -6 -23 -8 33 -9 43 -1 66 3 62 9 -7 11 -42 11 -95 0z"/>
<path d="M1578 83 c7 -3 16 -2 19 1 4 3 -2 6 -13 5 -11 0 -14 -3 -6 -6z"/>
<path d="M2051 56 c-15 -16 -19 -26 -12 -31 7 -3 10 -2 9 4 -2 5 6 16 17 24
11 9 17 18 14 21 -3 3 -16 -5 -28 -18z"/>
<path d="M2440 45 c0 -8 4 -15 8 -15 5 0 9 7 9 15 0 8 -4 15 -9 15 -4 0 -8 -7
-8 -15z"/>
<path d="M390 40 c-8 -5 -10 -10 -5 -10 6 0 17 5 25 10 8 5 11 10 5 10 -5 0
-17 -5 -25 -10z"/>
<path d="M1178 33 c7 -3 16 -2 19 1 4 3 -2 6 -13 5 -11 0 -14 -3 -6 -6z"/>
<path d="M1928 33 c7 -3 16 -2 19 1 4 3 -2 6 -13 5 -11 0 -14 -3 -6 -6z"/>
</g>
</svg>
