<?xml version="1.0" standalone="no"?>
<!DOCTYPE svg PUBLIC "-//W3C//DTD SVG 20010904//EN"
 "http://www.w3.org/TR/2001/REC-SVG-20010904/DTD/svg10.dtd">
<svg version="1.0" xmlns="http://www.w3.org/2000/svg"
 width="512.000000pt" height="512.000000pt" viewBox="0 0 512.000000 512.000000"
 preserveAspectRatio="xMidYMid meet">
<metadata>
Created by potrace 1.16, written by Peter Selinger 2001-2019
</metadata>
<g transform="translate(0.000000,512.000000) scale(0.100000,-0.100000)"
fill="#000000" stroke="none">
<path d="M2347 4174 c-4 -4 -6 -145 -6 -313 2 -299 2 -302 11 -146 5 88 7 225
6 305 l-3 145 77 0 c74 0 77 -1 81 -25 3 -14 15 -64 28 -112 l23 -86 28 96
c15 54 27 104 28 112 0 12 14 14 80 12 l80 -4 1 -156 c1 -94 4 -145 9 -127 13
53 11 269 -3 289 -10 14 -26 16 -91 14 -89 -3 -87 -2 -112 -93 l-17 -60 -26
75 -26 75 -80 3 c-45 1 -84 0 -88 -4z"/>
<path d="M3020 4030 c-5 -10 -21 -90 -35 -177 -14 -87 -31 -192 -38 -233 -12
-66 -14 -92 -4 -79 3 4 65 338 80 434 l10 60 86 -4 c47 -1 87 -4 89 -6 2 -1 6
-95 9 -209 3 -113 8 -204 10 -202 7 7 5 385 -2 406 -7 23 -34 30 -122 30 -62
0 -74 -3 -83 -20z"/>
<path d="M1906 4024 c-14 -13 -16 -51 -16 -255 0 -158 3 -238 10 -234 6 4 10
97 10 246 l0 239 38 0 c20 0 60 3 87 6 l51 6 48 -246 c27 -135 52 -246 57
-246 12 0 12 3 -7 89 -8 41 -28 145 -45 230 -16 85 -34 160 -40 168 -17 20
-173 18 -193 -3z"/>
<path d="M2305 3528 c-27 -5 -132 -12 -232 -15 l-183 -5 0 -133 0 -132 -72
-73 -71 -73 -158 -1 -159 -1 0 -114 0 -113 -90 4 -90 4 0 -353 0 -353 91 0 90
0 -2 -126 -1 -126 88 -4 89 -5 72 -74 c63 -66 77 -75 108 -75 l35 0 0 -125 0
-125 100 0 100 0 0 115 c0 70 -4 115 -10 115 -6 0 -10 -42 -10 -105 l0 -105
-80 0 -80 0 0 109 c0 60 -3 116 -6 125 -4 10 -18 16 -39 16 -27 0 -44 12 -106
75 l-74 75 -82 3 -83 2 0 103 c0 75 -4 111 -16 134 -15 28 -16 71 -12 360 3
234 8 332 16 340 8 8 12 47 12 104 0 108 -5 104 133 104 l87 0 2 -42 c1 -43 1
-43 5 -7 3 28 9 38 26 42 12 2 30 8 40 12 16 7 17 -15 17 -380 l0 -387 32 -42
c18 -22 46 -57 63 -77 16 -20 38 -46 47 -57 11 -14 29 -22 49 -22 l30 0 -3
-165 -3 -165 110 0 110 0 -3 -295 -3 -294 72 -3 71 -3 2 -110 1 -110 228 -3
227 -2 0 570 0 570 155 0 155 0 0 -300 0 -300 45 0 44 0 -5 303 -6 302 62 75
c33 41 74 94 91 117 l29 42 0 378 0 379 -60 67 -60 68 0 134 0 133 -172 5
c-95 3 -200 10 -233 15 -75 13 -463 13 -530 0z m495 -19 c41 -6 152 -14 245
-17 l170 -7 5 -132 c5 -122 7 -133 30 -160 14 -16 40 -45 58 -66 l32 -38 0
-367 0 -368 -87 -111 -88 -112 -195 -3 -195 -3 -3 -567 -2 -568 -53 0 c-30 0
-122 3 -205 7 l-152 6 0 96 c0 53 -4 101 -8 107 -4 6 -38 15 -75 19 l-68 7 3
278 c2 153 -1 282 -5 287 -5 4 -54 10 -109 13 l-101 5 2 131 c3 166 -1 181
-48 194 -36 11 -78 55 -143 153 l-28 41 0 377 c0 427 -8 386 89 476 l46 43 0
127 0 128 180 7 c99 4 205 12 235 16 78 13 381 13 470 1z m-1394 -736 c-3 -42
-6 -190 -6 -329 l0 -253 -27 4 c-16 2 -45 4 -65 4 l-38 1 0 325 0 325 71 0 72
0 -7 -77z m1762 -953 l2 -290 -25 0 -25 0 0 274 c0 151 -3 281 -6 290 -5 12 0
16 22 16 l29 0 3 -290z"/>
<path d="M2740 2770 c-19 -4 -27 -8 -17 -9 23 -1 22 -6 -12 -49 -86 -108 -41
-288 87 -344 48 -22 160 -26 207 -8 76 29 135 126 135 223 0 68 -17 111 -65
162 l-34 35 -133 -1 c-73 -1 -149 -5 -168 -9z m317 -41 c46 -50 63 -90 63
-147 0 -61 -16 -103 -55 -150 -40 -48 -81 -66 -150 -65 -137 1 -226 84 -228
212 0 62 15 98 62 149 l30 32 125 0 126 0 27 -31z"/>
<path d="M1966 2463 c10 -16 37 -55 61 -88 24 -32 43 -63 43 -67 0 -4 145 -8
322 -8 177 0 319 2 316 5 -2 3 -130 6 -284 6 -153 1 -294 4 -312 7 -28 4 -43
18 -94 88 -57 80 -91 115 -52 57z"/>
<path d="M1860 2460 c-9 -6 -10 -10 -3 -10 6 0 15 5 18 10 8 12 4 12 -15 0z"/>
<path d="M1840 2378 c17 -24 44 -60 58 -80 15 -21 31 -38 35 -38 4 0 -20 36
-53 80 -33 44 -63 80 -66 80 -3 0 9 -19 26 -42z"/>
<path d="M2721 2274 c0 -11 3 -14 6 -6 3 7 2 16 -1 19 -3 4 -6 -2 -5 -13z"/>
<path d="M1945 2240 c3 -5 11 -10 16 -10 6 0 7 5 4 10 -3 6 -11 10 -16 10 -6
0 -7 -4 -4 -10z"/>
<path d="M2118 2242 c-76 -1 -138 -6 -138 -10 0 -11 711 -3 729 9 15 9 -193 9
-591 1z"/>
<path d="M2294 1890 c0 -96 2 -136 3 -87 2 48 2 126 0 175 -1 48 -3 8 -3 -88z"/>
<path d="M2262 1970 c0 -19 2 -27 5 -17 2 9 2 25 0 35 -3 9 -5 1 -5 -18z"/>
<path d="M2262 1905 c0 -16 2 -22 5 -12 2 9 2 23 0 30 -3 6 -5 -1 -5 -18z"/>
<path d="M2602 1660 c0 -19 2 -27 5 -17 2 9 2 25 0 35 -3 9 -5 1 -5 -18z"/>
<path d="M3408 3153 c7 -3 16 -2 19 1 4 3 -2 6 -13 5 -11 0 -14 -3 -6 -6z"/>
<path d="M3420 3081 l35 -6 5 -385 5 -385 3 393 2 392 -42 -1 -43 -2 35 -6z"/>
<path d="M3538 3083 c18 -2 45 -2 60 0 15 2 0 4 -33 4 -33 0 -45 -2 -27 -4z"/>
<path d="M3684 2995 c0 -55 1 -76 3 -47 2 29 2 74 0 100 -2 26 -3 2 -3 -53z"/>
<path d="M1672 2885 c0 -16 2 -22 5 -12 2 9 2 23 0 30 -3 6 -5 -1 -5 -18z"/>
<path d="M3692 2520 l-4 -350 91 0 91 0 0 350 0 350 -87 0 -88 0 -3 -350z
m152 3 l4 -323 -64 0 -64 0 0 325 0 326 60 -3 60 -3 4 -322z"/>
<path d="M3680 2046 l0 -105 -37 -4 -38 -4 43 -1 42 -2 0 110 c0 61 -2 110 -5
110 -3 0 -5 -47 -5 -104z"/>
<path d="M3393 1848 c-71 -74 -103 -115 -103 -132 0 -18 15 -33 65 -65 l65
-42 110 113 111 113 -45 40 c-24 22 -57 49 -73 61 l-28 20 -102 -108z m163 29
l48 -44 -92 -95 -93 -96 -54 32 c-30 17 -54 36 -52 42 2 14 178 204 188 204 4
0 29 -20 55 -43z"/>
<path d="M3292 1810 c0 -14 2 -19 5 -12 2 6 2 18 0 25 -3 6 -5 1 -5 -13z"/>
<path d="M1997 1762 c20 -13 170 -15 178 -3 4 8 -25 11 -92 11 -54 0 -92 -4
-86 -8z"/>
<path d="M3254 1611 c-22 -25 -43 -55 -47 -66 -7 -20 48 37 80 83 28 41 9 31
-33 -17z"/>
</g>
</svg>
