<?xml version="1.0" standalone="no"?>
<!DOCTYPE svg PUBLIC "-//W3C//DTD SVG 20010904//EN"
 "http://www.w3.org/TR/2001/REC-SVG-20010904/DTD/svg10.dtd">
<svg version="1.0" xmlns="http://www.w3.org/2000/svg"
 width="512.000000pt" height="768.000000pt" viewBox="0 0 512.000000 768.000000"
 preserveAspectRatio="xMidYMid meet">
<metadata>
Created by potrace 1.16, written by Peter Selinger 2001-2019
</metadata>
<g transform="translate(0.000000,768.000000) scale(0.100000,-0.100000)"
fill="#000000" stroke="none">
<path d="M0 3840 l0 -3840 2560 0 2560 0 0 3840 0 3840 -1262 0 -1261 0 6
-541 6 -541 -22 6 c-12 3 -25 6 -29 6 -5 0 -8 241 -8 535 l0 535 -1275 0
-1275 0 0 -3840z m2581 1442 c4 -136 7 -253 7 -259 -2 -146 1 -227 10 -266 10
-40 9 -54 -3 -77 -13 -25 -15 -126 -16 -687 -1 -362 -4 -669 -8 -683 -10 -33
-25 907 -18 1124 4 128 1 183 -9 224 -8 29 -12 57 -10 61 3 4 -2 20 -10 35
-19 38 -18 53 6 59 19 5 19 14 19 208 0 234 11 522 20 513 3 -3 9 -117 12
-252z m-451 63 c10 -25 -5 -55 -28 -55 -21 0 -50 36 -97 121 -29 50 -31 58
-17 62 19 4 129 -95 142 -128z m820 55 c1 12 3 11 11 -3 7 -12 15 -15 22 -9 7
5 19 9 29 9 15 0 15 -2 1 -24 -8 -12 -13 -24 -9 -24 3 -1 10 -2 16 -3 15 -2
36 -26 22 -26 -7 0 -12 -5 -12 -11 0 -5 5 -7 10 -4 6 3 10 1 10 -5 0 -7 7 -9
16 -6 13 5 15 2 11 -14 -3 -12 -1 -17 5 -14 6 4 7 -8 3 -30 -6 -27 -4 -36 7
-36 7 0 15 -9 16 -20 4 -46 6 -51 18 -46 8 3 11 -3 8 -19 -2 -14 2 -25 11 -29
10 -4 14 -14 11 -31 -3 -18 1 -28 15 -36 11 -5 16 -15 13 -21 -5 -7 -2 -9 9
-5 11 4 14 2 10 -9 -3 -7 0 -14 6 -14 8 0 7 -10 -3 -33 -9 -23 -10 -39 -4 -50
7 -13 5 -19 -6 -23 -9 -3 -16 -14 -16 -23 0 -14 2 -14 10 -1 8 12 10 11 10 -7
0 -13 5 -23 11 -23 6 0 8 -7 5 -16 -3 -8 -2 -12 4 -9 15 9 12 -26 -4 -57 -12
-22 -12 -30 0 -53 7 -14 9 -23 4 -20 -6 4 -10 1 -10 -4 0 -6 5 -11 10 -11 7 0
7 -6 0 -19 -7 -14 -7 -20 1 -23 9 -3 9 -10 0 -26 -6 -12 -16 -31 -21 -42 -6
-11 -11 -38 -12 -59 -1 -23 -6 -39 -12 -38 -6 1 -10 -10 -9 -26 1 -17 -4 -30
-12 -34 -8 -3 -12 -9 -9 -14 3 -5 10 -7 15 -4 5 4 9 1 9 -5 0 -7 -8 -9 -20 -5
-11 4 -20 3 -19 -2 1 -4 1 -16 0 -25 -1 -20 -21 -25 -21 -5 0 15 -77 81 -113
98 -22 10 -24 15 -18 53 3 22 6 70 6 106 0 64 0 65 -34 80 l-33 14 1 341 c2
357 0 405 -11 405 -4 0 -5 7 -1 16 4 12 9 10 24 -13 11 -16 19 -22 19 -13z
m-708 -398 l-3 -333 -41 -16 -41 -16 6 -65 c4 -36 15 -83 26 -104 13 -26 15
-38 6 -38 -6 0 -22 -9 -35 -20 -12 -11 -27 -17 -31 -14 -5 3 -9 0 -9 -7 0 -16
-13 -3 -16 16 -2 12 2 13 17 4 17 -9 19 -8 11 8 -25 49 -32 70 -28 90 3 13 -1
28 -7 35 -7 7 -12 20 -12 28 1 8 -3 21 -8 28 -5 6 -7 37 -5 67 4 45 2 55 -11
55 -9 0 -12 3 -6 8 15 10 16 28 5 57 -6 14 -6 24 -2 21 4 -2 8 11 8 30 0 19
-4 34 -10 34 -5 0 -1 7 10 16 10 8 14 13 8 10 -7 -3 -15 1 -18 10 -3 8 -2 13
3 10 4 -3 7 14 6 39 -1 31 3 46 13 50 8 3 12 8 9 12 -4 3 -1 13 6 21 9 13 9
14 0 8 -8 -4 -13 -1 -13 8 0 9 6 16 13 17 8 0 8 2 -2 6 -10 4 -10 7 -1 13 6 4
13 16 15 26 2 10 4 19 5 19 1 0 3 9 5 19 2 10 10 23 17 27 10 7 10 9 -2 9 -8
1 -5 5 8 11 17 6 22 14 17 28 -4 13 0 20 17 24 12 4 19 9 16 13 -9 8 16 34 33
34 7 0 10 3 6 6 -3 3 0 12 6 19 7 7 12 12 12 11 0 0 -1 -151 -3 -334z m938 38
c0 -5 -5 -10 -11 -10 -5 0 -7 5 -4 10 3 6 8 10 11 10 2 0 4 -4 4 -10z m30
-580 c0 -5 -5 -10 -11 -10 -5 0 -7 5 -4 10 3 6 8 10 11 10 2 0 4 -4 4 -10z"/>
</g>
</svg>
