<?xml version="1.0" standalone="no"?>
<!DOCTYPE svg PUBLIC "-//W3C//DTD SVG 20010904//EN"
 "http://www.w3.org/TR/2001/REC-SVG-20010904/DTD/svg10.dtd">
<svg version="1.0" xmlns="http://www.w3.org/2000/svg"
 width="512.000000pt" height="512.000000pt" viewBox="0 0 512.000000 512.000000"
 preserveAspectRatio="xMidYMid meet">
<metadata>
Created by potrace 1.16, written by Peter Selinger 2001-2019
</metadata>
<g transform="translate(0.000000,512.000000) scale(0.100000,-0.100000)"
fill="#000000" stroke="none">
<path d="M2493 4866 c3 -7 9 -231 13 -497 6 -460 13 -573 28 -489 3 19 7 232
9 473 2 344 -1 437 -10 437 -16 0 -16 2 -3 34 10 26 43 36 55 16 3 -5 6 -230
5 -500 0 -329 3 -490 10 -490 5 0 10 13 10 29 0 17 5 33 10 36 6 4 10 177 10
486 l0 479 -71 0 c-56 0 -70 -3 -66 -14z m124 -233 c-2 -16 -4 -3 -4 27 0 30
2 43 4 28 2 -16 2 -40 0 -55z"/>
<path d="M2780 4790 c0 -5 7 -10 16 -10 8 0 12 5 9 10 -3 6 -10 10 -16 10 -5
0 -9 -4 -9 -10z"/>
<path d="M2168 4783 c6 -2 18 -2 25 0 6 3 1 5 -13 5 -14 0 -19 -2 -12 -5z"/>
<path d="M1968 4753 c7 -3 16 -2 19 1 4 3 -2 6 -13 5 -11 0 -14 -3 -6 -6z"/>
<path d="M1938 4723 c7 -3 16 -2 19 1 4 3 -2 6 -13 5 -11 0 -14 -3 -6 -6z"/>
<path d="M1890 4690 c0 -5 5 -10 11 -10 5 0 7 5 4 10 -3 6 -8 10 -11 10 -2 0
-4 -4 -4 -10z"/>
<path d="M1715 4680 c-3 -5 -1 -10 4 -10 6 0 11 5 11 10 0 6 -2 10 -4 10 -3 0
-8 -4 -11 -10z"/>
<path d="M3552 4615 c-12 -14 -22 -28 -22 -32 0 -4 -20 -32 -43 -62 -60 -76
-99 -140 -92 -150 3 -5 30 -17 60 -26 31 -10 55 -24 55 -31 0 -8 9 -14 20 -14
11 0 20 6 20 14 0 7 7 20 16 27 9 7 20 22 25 34 9 21 31 57 39 65 22 22 68
132 53 128 -14 -4 -53 13 -53 22 0 5 -6 7 -14 4 -9 -3 -19 4 -26 17 -11 19
-10 21 4 16 10 -4 15 -3 11 3 -10 17 -30 11 -53 -15z m66 -54 c12 -11 22 -23
22 -28 0 -15 -39 -89 -82 -154 -17 -25 -68 -46 -68 -28 0 5 -7 9 -15 9 -24 0
-36 34 -20 56 8 11 15 26 15 35 0 9 17 34 38 57 20 22 43 48 50 56 17 21 32
20 60 -3z"/>
<path d="M1523 4596 c-34 -17 -64 -34 -67 -37 -6 -6 40 -99 73 -149 9 -14 26
-42 36 -62 21 -40 41 -47 75 -26 18 12 17 13 -12 23 -19 6 -41 25 -55 49 -14
21 -19 35 -11 31 7 -3 5 0 -5 8 -9 8 -22 30 -29 48 -6 19 -16 37 -21 40 -16
11 0 37 34 54 30 16 33 16 57 -2 28 -21 34 -29 62 -93 22 -48 41 -82 51 -90 3
-3 14 -18 23 -35 9 -16 25 -43 35 -60 35 -58 111 -193 160 -285 30 -57 44 -74
58 -72 14 3 15 1 6 -8 -14 -15 1 -56 29 -82 10 -9 19 -19 18 -22 0 -10 24 -46
32 -46 12 0 -9 54 -66 167 -31 62 -62 112 -68 110 -7 -1 -13 9 -13 23 -1 14
-7 34 -14 45 -13 20 -12 17 5 -32 3 -10 -4 -3 -16 16 -11 18 -19 40 -16 48 3
8 2 11 -3 8 -6 -3 -31 34 -57 82 -26 49 -51 90 -55 93 -4 3 -29 48 -54 100
-53 108 -105 190 -120 188 -5 0 -38 -15 -72 -32z m431 -572 c3 -8 2 -12 -4 -9
-6 3 -10 10 -10 16 0 14 7 11 14 -7z m26 -52 c0 -15 -2 -15 -10 -2 -13 20 -13
33 0 25 6 -3 10 -14 10 -23z"/>
<path d="M2708 4623 c6 -2 18 -2 25 0 6 3 1 5 -13 5 -14 0 -19 -2 -12 -5z"/>
<path d="M2985 4600 c-3 -5 1 -10 10 -10 9 0 13 5 10 10 -3 6 -8 10 -10 10 -2
0 -7 -4 -10 -10z"/>
<path d="M2118 4563 c7 -3 16 -2 19 1 4 3 -2 6 -13 5 -11 0 -14 -3 -6 -6z"/>
<path d="M3190 4549 c0 -5 5 -7 10 -4 6 3 10 8 10 11 0 2 -4 4 -10 4 -5 0 -10
-5 -10 -11z"/>
<path d="M2020 4540 c-9 -6 -10 -10 -3 -10 6 0 15 5 18 10 8 12 4 12 -15 0z"/>
<path d="M3328 4503 c7 -3 16 -2 19 1 4 3 -2 6 -13 5 -11 0 -14 -3 -6 -6z"/>
<path d="M3835 4390 c3 -5 8 -10 11 -10 2 0 4 5 4 10 0 6 -5 10 -11 10 -5 0
-7 -4 -4 -10z"/>
<path d="M3299 4238 c-83 -167 -230 -429 -243 -434 -6 -2 -40 5 -75 16 -90 28
-87 18 3 -12 l74 -26 25 22 c25 21 120 189 193 342 20 43 41 81 46 82 4 2 8 9
8 15 0 7 9 23 20 37 11 14 20 33 20 43 0 39 -23 11 -71 -85z"/>
<path d="M1712 4230 c0 -14 2 -19 5 -12 2 6 2 18 0 25 -3 6 -5 1 -5 -13z"/>
<path d="M3755 4240 c-3 -5 -1 -10 4 -10 6 0 11 5 11 10 0 6 -2 10 -4 10 -3 0
-8 -4 -11 -10z"/>
<path d="M1531 4202 c-107 -63 -123 -72 -136 -85 -6 -7 -27 -23 -45 -37 -118
-87 -271 -246 -340 -350 -8 -12 -27 -39 -41 -59 -14 -20 -32 -48 -38 -61 -11
-22 -9 -21 13 5 14 17 38 48 53 70 91 131 188 240 277 313 39 31 80 65 90 74
36 33 189 133 219 144 9 3 17 10 17 15 0 12 3 13 -69 -29z"/>
<path d="M4040 4230 c0 -5 5 -10 11 -10 5 0 7 5 4 10 -3 6 -8 10 -11 10 -2 0
-4 -4 -4 -10z"/>
<path d="M4095 4230 c3 -5 8 -10 11 -10 2 0 4 5 4 10 0 6 -5 10 -11 10 -5 0
-7 -4 -4 -10z"/>
<path d="M3574 4207 c11 -7 58 -38 105 -69 85 -56 103 -71 189 -149 24 -21 47
-39 52 -39 11 0 -53 63 -100 99 -35 26 -50 39 -105 85 -32 27 -137 86 -151 85
-5 0 0 -6 10 -12z"/>
<path d="M1730 4202 c0 -14 37 -58 44 -51 2 2 -7 18 -20 34 -13 17 -24 24 -24
17z"/>
<path d="M4000 4169 c0 -5 5 -7 10 -4 6 3 10 8 10 11 0 2 -4 4 -10 4 -5 0 -10
-5 -10 -11z"/>
<path d="M1791 4124 c0 -11 3 -14 6 -6 3 7 2 16 -1 19 -3 4 -6 -2 -5 -13z"/>
<path d="M3970 4131 c0 -5 7 -12 16 -15 24 -9 27 -7 10 9 -17 17 -26 19 -26 6z"/>
<path d="M4190 4100 c0 -5 5 -10 11 -10 5 0 7 5 4 10 -3 6 -8 10 -11 10 -2 0
-4 -4 -4 -10z"/>
<path d="M4125 4040 c3 -5 8 -10 11 -10 2 0 4 5 4 10 0 6 -5 10 -11 10 -5 0
-7 -4 -4 -10z"/>
<path d="M4190 4040 c-9 -6 -10 -10 -3 -10 6 0 15 5 18 10 8 12 4 12 -15 0z"/>
<path d="M4270 3985 c-11 -13 -10 -14 4 -9 9 3 16 10 16 15 0 13 -6 11 -20 -6z"/>
<path d="M1078 3983 c7 -3 16 -2 19 1 4 3 -2 6 -13 5 -11 0 -14 -3 -6 -6z"/>
<path d="M3981 3878 c33 -34 59 -66 59 -70 0 -5 7 -8 15 -8 12 0 12 3 -2 18
-10 10 -40 42 -66 70 -27 29 -52 52 -56 52 -5 0 18 -28 50 -62z"/>
<path d="M4341 3924 c0 -11 3 -14 6 -6 3 7 2 16 -1 19 -3 4 -6 -2 -5 -13z"/>
<path d="M4170 3920 c0 -5 5 -10 11 -10 5 0 7 5 4 10 -3 6 -8 10 -11 10 -2 0
-4 -4 -4 -10z"/>
<path d="M2329 3874 c-37 -7 -84 -20 -104 -28 -21 -9 -43 -16 -50 -16 -20 0
-88 -31 -81 -37 3 -3 32 3 63 15 89 32 130 43 233 62 72 14 84 18 50 18 -25 0
-75 -6 -111 -14z"/>
<path d="M2650 3880 c0 -5 15 -10 33 -10 24 0 28 3 17 10 -20 13 -50 13 -50 0z"/>
<path d="M790 3859 c0 -5 5 -7 10 -4 6 3 10 8 10 11 0 2 -4 4 -10 4 -5 0 -10
-5 -10 -11z"/>
<path d="M2371 3845 c-173 -38 -328 -95 -446 -165 -76 -45 -195 -131 -195
-142 0 -4 -4 -8 -10 -8 -34 0 -266 -292 -274 -345 -1 -9 -7 -20 -13 -23 -15
-10 -89 -194 -107 -267 -15 -63 -36 -199 -36 -241 0 -13 6 -24 13 -24 10 0 13
11 10 40 -2 22 0 40 5 40 5 0 9 20 9 45 2 86 50 250 108 363 19 38 35 73 35
77 0 10 76 119 137 196 29 36 78 88 110 115 31 27 65 57 75 67 10 9 23 17 28
17 6 0 10 4 10 8 0 4 26 23 58 42 31 19 59 38 62 41 3 4 59 28 125 54 104 41
263 82 388 100 20 3 37 10 37 15 0 14 -52 11 -129 -5z"/>
<path d="M2640 3841 c0 -11 5 -21 10 -21 6 0 10 5 10 11 0 20 152 4 167 -17 6
-9 25 -16 40 -16 29 0 121 -34 233 -86 58 -27 77 -39 128 -82 6 -6 12 -7 12
-3 0 4 4 3 8 -3 4 -5 29 -26 57 -45 134 -93 290 -280 364 -434 72 -153 89
-199 116 -330 9 -44 21 -104 27 -132 6 -29 16 -53 21 -53 25 0 -44 304 -95
420 -107 242 -260 434 -463 577 -179 127 -402 219 -552 230 -80 6 -83 5 -83
-16z"/>
<path d="M835 3840 c-3 -5 -1 -10 4 -10 6 0 11 5 11 10 0 6 -2 10 -4 10 -3 0
-8 -4 -11 -10z"/>
<path d="M2878 3843 c7 -3 16 -2 19 1 4 3 -2 6 -13 5 -11 0 -14 -3 -6 -6z"/>
<path d="M2798 3813 c7 -3 16 -2 19 1 4 3 -2 6 -13 5 -11 0 -14 -3 -6 -6z"/>
<path d="M600 3779 c0 -8 -16 -40 -36 -72 -20 -32 -34 -60 -33 -61 2 -2 59
-29 127 -60 109 -51 165 -65 148 -37 -3 5 0 11 8 14 8 3 21 19 29 35 22 44 4
68 -78 105 -39 18 -88 43 -110 57 -54 33 -55 34 -55 19z m82 -67 c18 -10 57
-31 86 -47 28 -15 52 -35 52 -43 0 -20 -29 -52 -47 -52 -16 0 -193 88 -193 96
0 3 8 19 17 35 20 34 40 36 85 11z"/>
<path d="M4082 3758 c13 -18 28 -37 33 -43 6 -7 19 -28 30 -48 11 -20 23 -37
26 -37 12 0 -2 37 -22 59 -10 11 -19 23 -19 26 0 10 -54 75 -63 75 -4 0 3 -15
15 -32z"/>
<path d="M4515 3772 c-6 -5 -30 -17 -55 -27 -25 -10 -52 -24 -60 -31 -8 -7
-28 -16 -45 -19 -43 -11 -100 -75 -66 -75 5 0 12 -8 14 -17 3 -11 5 -7 6 10 1
17 7 27 16 27 8 0 15 3 15 8 0 4 17 16 38 26 20 10 46 23 56 28 62 33 106 25
106 -18 0 -20 -9 -29 -47 -47 -27 -13 -61 -31 -77 -42 -15 -10 -47 -20 -70
-21 -25 -2 -40 -7 -38 -14 1 -7 -3 -18 -9 -26 -24 -30 25 -13 157 53 74 36
138 71 141 76 3 5 -1 13 -9 18 -8 5 -23 29 -32 54 -18 46 -24 52 -41 37z"/>
<path d="M2644 3757 c-3 -10 -4 -20 -2 -22 2 -3 42 -12 89 -20 114 -21 199
-49 294 -96 102 -51 258 -156 321 -217 90 -86 198 -251 263 -402 47 -109 44
-100 66 -195 9 -38 21 -78 26 -87 5 -10 9 -34 9 -53 0 -19 5 -35 11 -35 13 0
10 19 -19 160 -47 225 -174 453 -342 617 -133 128 -234 195 -415 274 -44 19
-206 59 -239 59 -23 0 -38 6 -45 18 -9 16 -10 16 -17 -1z"/>
<path d="M2593 3558 l2 -202 25 -12 c14 -6 66 -22 115 -34 97 -23 129 -36 217
-87 31 -18 65 -33 75 -33 36 0 223 199 223 236 0 13 -38 -21 -113 -100 l-112
-119 -55 35 c-73 46 -168 84 -271 106 -64 14 -83 21 -79 33 11 31 11 269 1
269 -6 0 -11 21 -11 49 0 28 -4 52 -9 56 -6 3 -9 -72 -8 -197z m24 -40 c-2
-18 -4 -6 -4 27 0 33 2 48 4 33 2 -15 2 -42 0 -60z"/>
<path d="M2352 3735 c-98 -18 -212 -53 -212 -66 0 -6 4 -7 10 -4 18 11 124 36
233 55 60 10 111 21 114 24 10 10 -67 5 -145 -9z"/>
<path d="M2516 3715 c-3 -9 -4 -92 -3 -185 l3 -170 -36 0 c-74 0 -229 -51
-323 -106 -32 -19 -59 -34 -61 -34 -1 0 -34 37 -72 82 -76 91 -133 148 -147
148 -5 0 -4 -7 3 -15 6 -8 9 -19 5 -25 -4 -6 -1 -9 7 -8 8 2 12 -4 10 -14 -2
-10 3 -18 11 -18 7 0 32 -21 55 -47 120 -139 124 -141 190 -99 80 50 267 116
331 116 48 0 51 11 51 201 0 161 -8 216 -24 174z"/>
<path d="M2395 3703 c-49 -7 -186 -43 -245 -64 -63 -23 -202 -90 -211 -102 -3
-4 -12 -5 -21 -2 -8 3 -21 -1 -28 -10 -7 -8 -18 -15 -24 -15 -7 0 -22 -11 -33
-24 -11 -13 -27 -26 -34 -28 -8 -3 -10 -9 -6 -14 4 -5 11 -4 15 2 4 5 25 20
46 33 28 16 41 19 46 10 4 -6 9 -7 11 -2 6 15 143 93 218 123 61 25 177 57
321 88 42 9 43 10 10 9 -19 0 -48 -2 -65 -4z"/>
<path d="M1791 3639 c-58 -44 -122 -103 -85 -78 26 17 135 99 149 110 6 6 6 9
0 9 -6 0 -34 -18 -64 -41z"/>
<path d="M3260 3677 c0 -3 12 -12 26 -22 15 -9 23 -12 20 -6 -7 11 -46 35 -46
28z"/>
<path d="M2106 3663 c-4 -5 -13 -8 -18 -8 -6 0 -13 -6 -16 -13 -3 -10 2 -10
22 -1 14 7 26 16 26 21 0 10 -4 10 -14 1z"/>
<path d="M2919 3634 c35 -14 66 -23 68 -20 5 5 -103 46 -120 45 -7 0 17 -11
52 -25z"/>
<path d="M1990 3599 c0 -5 5 -7 10 -4 6 3 10 8 10 11 0 2 -4 4 -10 4 -5 0 -10
-5 -10 -11z"/>
<path d="M3360 3606 c0 -2 8 -10 18 -17 15 -13 16 -12 3 4 -13 16 -21 21 -21
13z"/>
<path d="M1940 3570 c-9 -6 -10 -10 -3 -10 6 0 15 5 18 10 8 12 4 12 -15 0z"/>
<path d="M3410 3561 c0 -5 7 -12 16 -15 14 -5 15 -4 4 9 -14 17 -20 19 -20 6z"/>
<path d="M4217 3553 c-10 -10 -8 -25 2 -18 5 3 11 -2 13 -12 2 -12 -36 -36
-157 -98 -88 -45 -176 -91 -195 -102 -19 -11 -60 -34 -91 -52 -58 -33 -101
-71 -80 -71 7 0 35 15 64 33 71 46 177 103 348 188 79 40 146 73 148 75 2 2
-4 10 -13 19 -9 9 -16 23 -16 31 0 15 -12 19 -23 7z"/>
<path d="M836 3508 c3 -7 56 -37 117 -67 62 -30 166 -84 232 -119 66 -36 142
-77 170 -91 27 -14 54 -32 61 -40 7 -9 13 -10 17 -4 4 6 -13 24 -36 40 -40 29
-245 142 -353 196 -27 13 -81 40 -121 60 -76 39 -96 45 -87 25z"/>
<path d="M630 3489 c0 -5 5 -7 10 -4 6 3 10 8 10 11 0 2 -4 4 -10 4 -5 0 -10
-5 -10 -11z"/>
<path d="M3496 3479 c11 -15 44 -57 75 -95 30 -38 61 -78 67 -89 6 -11 12 -15
12 -8 0 6 -11 25 -25 41 -14 17 -25 34 -25 38 0 5 -28 38 -61 74 -34 36 -53
53 -43 39z"/>
<path d="M4530 3451 c0 -6 5 -13 10 -16 6 -3 10 1 10 9 0 9 -4 16 -10 16 -5 0
-10 -4 -10 -9z"/>
<path d="M4556 3407 c3 -10 9 -15 12 -12 3 3 0 11 -7 18 -10 9 -11 8 -5 -6z"/>
<path d="M4570 3360 c0 -5 5 -10 10 -10 6 0 10 5 10 10 0 6 -4 10 -10 10 -5 0
-10 -4 -10 -10z"/>
<path d="M520 3350 c0 -5 5 -10 11 -10 5 0 7 5 4 10 -3 6 -8 10 -11 10 -2 0
-4 -4 -4 -10z"/>
<path d="M4540 3350 c0 -5 5 -10 10 -10 6 0 10 5 10 10 0 6 -4 10 -10 10 -5 0
-10 -4 -10 -10z"/>
<path d="M560 3334 c0 -8 5 -12 10 -9 6 4 8 11 5 16 -9 14 -15 11 -15 -7z"/>
<path d="M1650 3289 c-23 -33 -40 -63 -37 -65 3 -3 -20 -56 -52 -118 -55 -107
-80 -177 -79 -221 0 -11 -7 -51 -15 -90 -19 -85 -27 -155 -17 -155 4 0 11 21
14 48 4 26 16 85 27 132 11 47 22 101 23 120 2 20 28 85 59 146 32 61 57 115
57 120 0 6 18 38 40 72 22 33 40 64 40 67 0 18 -23 -3 -60 -56z m-153 -391
c-3 -8 -6 -5 -6 6 -1 11 2 17 5 13 3 -3 4 -12 1 -19z"/>
<path d="M1746 3322 c12 -9 62 -70 113 -134 l92 -117 -40 -54 c-22 -29 -54
-83 -70 -119 -33 -72 -71 -210 -71 -257 l0 -31 -162 0 c-90 0 -169 -4 -176 -9
-24 -15 36 -18 197 -12 l154 6 17 85 c30 145 68 237 134 323 20 26 36 56 36
67 0 17 -52 88 -166 228 -22 26 -43 42 -57 42 l-22 0 21 -18z"/>
<path d="M3332 3302 c-87 -90 -182 -210 -182 -229 0 -9 14 -34 30 -57 52 -70
74 -108 102 -176 30 -71 58 -171 58 -206 0 -42 24 -49 174 -51 143 -2 200 3
192 16 -7 11 -80 16 -212 14 l-120 -1 -22 97 c-25 109 -87 244 -147 316 -33
41 -36 48 -23 63 8 9 56 65 106 124 51 58 92 109 92 112 0 14 -24 4 -48 -22z"/>
<path d="M1660 3235 c0 -8 2 -15 4 -15 2 0 6 7 10 15 3 8 1 15 -4 15 -6 0 -10
-7 -10 -15z"/>
<path d="M2380 3244 c-8 -1 -31 -5 -51 -9 -32 -5 -37 -10 -42 -38 -3 -17 -1
-70 4 -117 19 -170 110 -250 283 -250 145 0 233 87 243 241 5 72 -2 157 -13
146 -3 -3 -6 -47 -8 -98 -5 -142 -36 -200 -131 -245 -57 -27 -111 -30 -179
-10 -118 36 -166 107 -174 261 -4 87 -3 94 14 93 43 -1 232 14 269 22 30 6 10
8 -80 7 -66 0 -127 -2 -135 -3z"/>
<path d="M3448 3235 c-3 -4 5 -23 19 -43 87 -129 152 -288 188 -464 10 -48 21
-85 25 -83 8 5 -1 72 -20 145 -6 25 -13 56 -16 69 -9 44 -100 235 -140 296
-21 33 -41 66 -44 73 -3 7 -8 10 -12 7z"/>
<path d="M4600 3233 c0 -4 5 -15 10 -23 8 -13 10 -13 10 2 0 9 -4 20 -10 23
-5 3 -10 3 -10 -2z"/>
<path d="M2628 3223 c23 -2 61 -2 85 0 23 2 4 4 -43 4 -47 0 -66 -2 -42 -4z"/>
<path d="M2691 3196 c2 -2 22 -6 44 -10 29 -5 36 -4 25 3 -13 10 -79 16 -69 7z"/>
<path d="M455 3170 c-3 -5 -1 -10 4 -10 6 0 11 5 11 10 0 6 -2 10 -4 10 -3 0
-8 -4 -11 -10z"/>
<path d="M3709 3158 c5 -13 19 -45 31 -73 39 -88 79 -227 97 -337 20 -119 34
-146 21 -40 -16 137 -67 312 -124 424 -25 50 -40 65 -25 26z"/>
<path d="M4621 3170 c0 -8 4 -22 9 -30 12 -18 12 -2 0 25 -6 13 -9 15 -9 5z"/>
<path d="M510 3150 c0 -5 5 -10 10 -10 6 0 10 5 10 10 0 6 -4 10 -10 10 -5 0
-10 -4 -10 -10z"/>
<path d="M4671 3144 c0 -11 3 -14 6 -6 3 7 2 16 -1 19 -3 4 -6 -2 -5 -13z"/>
<path d="M1356 3059 c-15 -34 -25 -63 -23 -65 2 -2 16 24 30 58 15 34 25 63
23 65 -2 2 -15 -24 -30 -58z"/>
<path d="M460 2961 c0 -4 11 -6 25 -3 14 2 25 6 25 8 0 2 -11 4 -25 4 -14 0
-25 -4 -25 -9z"/>
<path d="M1291 2858 c-23 -102 -39 -228 -28 -217 4 3 9 30 13 60 3 29 14 98
25 153 11 54 18 100 16 102 -2 2 -14 -42 -26 -98z"/>
<path d="M4700 2879 c0 -5 9 -9 20 -9 11 0 20 2 20 4 0 2 -9 6 -20 9 -11 3
-20 1 -20 -4z"/>
<path d="M1438 2875 c-4 -4 -4 -13 -1 -21 3 -8 1 -20 -5 -27 -12 -15 -22 -147
-11 -147 5 0 9 12 9 28 0 15 4 43 10 62 7 24 6 36 -1 41 -8 5 -8 8 1 11 6 2
10 16 8 32 -1 15 -6 25 -10 21z"/>
<path d="M4698 2833 c7 -3 16 -2 19 1 4 3 -2 6 -13 5 -11 0 -14 -3 -6 -6z"/>
<path d="M1732 2760 c0 -14 2 -19 5 -12 2 6 2 18 0 25 -3 6 -5 1 -5 -13z"/>
<path d="M2077 2739 c-42 -22 -94 -95 -102 -143 -3 -17 -7 -43 -9 -59 -13 -78
63 -195 141 -216 65 -18 144 -13 193 12 55 27 85 71 100 144 31 147 -77 283
-225 282 -40 0 -73 -7 -98 -20z m153 -9 c49 -13 109 -66 131 -114 21 -46 25
-130 8 -173 -34 -91 -159 -138 -257 -98 -128 54 -162 218 -69 331 49 58 109
76 187 54z"/>
<path d="M2209 2651 c-34 -35 -36 -54 -9 -81 43 -43 120 -14 120 44 0 66 -61
86 -111 37z m79 -13 c16 -16 15 -23 -4 -42 -37 -38 -93 -3 -58 35 20 22 45 24
62 7z"/>
<path d="M2885 2749 c-43 -12 -102 -65 -127 -112 -43 -82 -23 -206 43 -276 70
-74 244 -69 316 10 51 56 72 180 43 254 -42 108 -156 159 -275 124z m135 -19
c72 -20 130 -109 130 -197 -1 -153 -155 -249 -290 -180 -96 48 -130 198 -67
292 51 76 140 109 227 85z"/>
<path d="M2879 2639 c-29 -29 -22 -70 15 -88 25 -12 31 -11 55 6 35 26 39 66
9 87 -30 22 -54 20 -79 -5z m55 -15 c20 -8 21 -28 2 -43 -18 -15 -46 -4 -46
18 0 29 14 37 44 25z"/>
<path d="M4730 2720 c0 -5 5 -10 11 -10 5 0 7 5 4 10 -3 6 -8 10 -11 10 -2 0
-4 -4 -4 -10z"/>
<path d="M1400 2650 c0 -11 2 -20 4 -20 2 0 6 9 9 20 3 11 1 20 -4 20 -5 0 -9
-9 -9 -20z"/>
<path d="M220 2548 l0 -68 498 0 c446 1 588 7 569 26 -2 3 -168 7 -368 9 -200
3 -429 7 -509 10 -144 5 -145 5 -146 28 l-1 24 261 6 c371 10 534 9 541 -3 10
-16 175 -11 210 6 17 8 23 12 14 10 -9 -2 -21 0 -27 6 -6 6 -198 11 -526 12
l-516 3 0 -69z m77 -54 c-3 -3 -12 -4 -19 -1 -8 3 -5 6 6 6 11 1 17 -2 13 -5z"/>
<path d="M4160 2613 c-182 -2 -308 -7 -314 -13 -7 -7 95 -11 295 -12 167 -1
275 -4 239 -8 -62 -6 -60 -7 36 -8 68 -1 104 2 113 11 11 10 12 9 6 -2 -6 -11
-4 -13 10 -7 10 4 84 8 163 9 144 2 145 2 148 -21 2 -12 -2 -24 -9 -27 -20 -6
-327 -16 -682 -21 -309 -5 -417 -15 -293 -27 29 -3 271 -6 538 -7 l485 -2 0
71 0 71 -215 -2 c-118 -2 -352 -4 -520 -5z m699 -109 c2 -2 -61 -3 -140 -2
-123 1 -132 3 -64 8 81 6 196 3 204 -6z"/>
<path d="M1431 2501 c-22 -14 78 -23 212 -19 l117 3 6 -35 c23 -151 69 -281
131 -373 19 -28 35 -54 36 -58 1 -4 -44 -57 -101 -118 -75 -81 -98 -111 -84
-111 22 0 56 31 127 116 27 32 55 63 62 67 23 14 14 64 -25 128 -51 86 -77
152 -102 262 -12 51 -24 103 -28 117 l-7 25 -165 2 c-91 2 -171 -1 -179 -6z"/>
<path d="M3363 2502 c-7 -4 -17 -32 -23 -60 -28 -148 -70 -260 -135 -358 -19
-29 -35 -62 -35 -73 0 -34 175 -221 207 -221 12 0 -5 23 -52 72 -39 40 -72 75
-75 78 -3 3 -18 20 -34 37 l-29 32 47 72 c58 91 101 203 123 317 l17 89 42 -5
c60 -6 274 8 274 19 0 11 -310 12 -327 1z"/>
<path d="M1300 2424 c0 -66 18 -150 56 -262 13 -41 22 -77 20 -80 -3 -3 -8 4
-12 14 -16 50 -27 81 -34 99 -16 37 -29 90 -40 165 -14 83 -35 135 -25 60 21
-153 62 -298 126 -437 16 -35 29 -66 29 -68 0 -3 -37 -23 -82 -46 -46 -23
-135 -70 -198 -104 -63 -34 -157 -84 -207 -110 -51 -26 -93 -51 -93 -54 0 -4
14 -12 32 -19 22 -8 28 -8 20 0 -17 17 -2 27 168 115 85 44 173 91 195 103 22
12 69 38 105 58 36 19 67 36 69 38 2 2 -1 21 -7 44 -14 56 1 50 28 -12 49
-115 185 -283 309 -382 136 -110 301 -196 466 -241 101 -28 239 -49 261 -41
30 12 2 24 -59 27 -126 6 -316 62 -447 132 -377 204 -606 555 -665 1020 -6 52
-15 41 -15 -19z m87 -376 c-3 -8 -6 -5 -6 6 -1 11 2 17 5 13 3 -3 4 -12 1 -19z"/>
<path d="M1410 2447 c0 -59 41 -244 72 -322 23 -58 72 -161 90 -189 7 -11 29
-45 48 -75 41 -65 80 -111 93 -111 5 0 3 9 -4 19 -126 176 -152 220 -212 366
-23 56 -44 145 -58 248 -7 48 -16 87 -21 87 -4 0 -8 -10 -8 -23z"/>
<path d="M3813 2463 c-8 -3 -13 -24 -13 -54 0 -56 -19 -148 -57 -269 -18 -59
-107 -240 -130 -265 -10 -11 -36 -46 -57 -78 -98 -149 -368 -366 -521 -418
-22 -7 -45 -16 -50 -20 -15 -11 -252 -68 -300 -72 -22 -2 -40 -9 -39 -16 3
-28 5 -30 27 -22 13 5 34 7 48 4 14 -2 41 0 60 6 33 11 33 11 -13 7 -70 -5
-50 9 34 24 40 7 106 23 146 37 69 22 201 81 212 93 3 3 22 14 43 25 81 42
290 230 343 308 16 23 31 44 34 47 6 5 38 54 55 82 5 9 29 48 52 85 47 76 85
184 113 318 19 96 33 185 28 184 -2 0 -9 -3 -15 -6z"/>
<path d="M1443 2440 c3 -14 11 -54 16 -90 18 -109 50 -210 98 -305 45 -90 117
-199 147 -224 27 -23 18 -4 -29 61 -93 125 -169 309 -205 498 -7 36 -17 70
-23 75 -6 7 -8 1 -4 -15z"/>
<path d="M3668 2440 c-4 -14 -9 -47 -12 -75 l-6 -50 15 45 c9 25 14 59 13 75
-3 29 -3 29 -10 5z"/>
<path d="M3696 2425 c-30 -145 -61 -253 -92 -320 -57 -123 -188 -331 -247
-392 -17 -18 -28 -33 -25 -33 15 0 110 107 154 173 26 39 55 83 65 97 21 32
70 128 68 135 0 4 6 16 13 28 15 22 48 125 68 207 6 25 10 68 8 95 l-3 50 -9
-40z"/>
<path d="M3847 2440 c-3 -14 -11 -56 -17 -95 -22 -143 -50 -228 -126 -391 -28
-60 -29 -64 -9 -64 8 0 19 -9 25 -20 6 -11 17 -20 25 -20 13 0 100 -43 250
-125 39 -21 106 -56 150 -78 44 -21 88 -48 97 -60 14 -18 19 -20 29 -9 18 17
13 21 -141 102 -74 40 -164 88 -199 108 -105 57 -195 102 -208 102 -24 0 -22
19 11 86 18 38 45 101 59 141 31 84 70 280 65 320 l-4 28 -7 -25z"/>
<path d="M2540 2430 c-28 -4 -36 -10 -38 -29 -5 -31 21 -51 63 -51 36 0 65 26
65 57 0 24 -32 32 -90 23z m70 -30 c0 -16 -41 -32 -66 -26 -13 4 -24 13 -24
21 0 11 12 15 45 15 25 0 45 -4 45 -10z"/>
<path d="M4747 2424 c-4 -4 -7 -14 -7 -23 0 -11 3 -12 11 -4 6 6 10 16 7 23
-2 6 -7 8 -11 4z"/>
<path d="M4783 2353 c9 -2 23 -2 30 0 6 3 -1 5 -18 5 -16 0 -22 -2 -12 -5z"/>
<path d="M2492 2320 c-104 -47 -212 -251 -212 -400 0 -21 4 -41 8 -44 4 -2 50
-12 101 -21 105 -18 271 -21 331 -5 22 5 58 15 80 20 32 9 40 15 40 34 0 37
-47 211 -71 261 -23 49 -90 129 -123 147 -40 22 -114 26 -154 8z m126 -24 c42
-22 98 -86 127 -144 21 -42 75 -223 75 -252 0 -8 -64 -18 -195 -30 -66 -6
-122 -4 -207 8 -115 15 -118 16 -118 41 0 43 32 154 60 211 75 148 173 211
258 166z"/>
<path d="M3632 2260 c0 -14 2 -19 5 -12 2 6 2 18 0 25 -3 6 -5 1 -5 -13z"/>
<path d="M421 2214 c0 -11 3 -14 6 -6 3 7 2 16 -1 19 -3 4 -6 -2 -5 -13z"/>
<path d="M430 2146 c0 -8 4 -17 9 -20 5 -4 7 3 4 14 -6 23 -13 26 -13 6z"/>
<path d="M4665 2120 c-4 -12 -5 -24 -2 -27 3 -2 8 5 12 17 4 12 5 24 2 27 -3
2 -8 -5 -12 -17z"/>
<path d="M348 2083 c6 -2 18 -2 25 0 6 3 1 5 -13 5 -14 0 -19 -2 -12 -5z"/>
<path d="M4648 2043 c7 -3 16 -2 19 1 4 3 -2 6 -13 5 -11 0 -14 -3 -6 -6z"/>
<path d="M3526 2003 c-6 -14 -5 -15 5 -6 7 7 10 15 7 18 -3 3 -9 -2 -12 -12z"/>
<path d="M4645 1990 c-4 -12 -5 -24 -2 -27 3 -2 8 5 12 17 4 12 5 24 2 27 -3
2 -8 -5 -12 -17z"/>
<path d="M4680 1996 c0 -2 7 -6 15 -10 8 -3 15 -1 15 4 0 6 -7 10 -15 10 -8 0
-15 -2 -15 -4z"/>
<path d="M485 1970 c3 -5 8 -10 11 -10 2 0 4 5 4 10 0 6 -5 10 -11 10 -5 0 -7
-4 -4 -10z"/>
<path d="M3493 1953 c-9 -16 -28 -41 -40 -57 -25 -30 -57 -86 -49 -86 5 0 89
117 105 148 17 31 5 28 -16 -5z"/>
<path d="M4670 1960 c0 -5 4 -10 9 -10 6 0 13 5 16 10 3 6 -1 10 -9 10 -9 0
-16 -4 -16 -10z"/>
<path d="M4627 1931 c-4 -17 -3 -21 5 -13 5 5 8 16 6 23 -3 8 -7 3 -11 -10z"/>
<path d="M506 1917 c3 -10 9 -15 12 -12 3 3 0 11 -7 18 -10 9 -11 8 -5 -6z"/>
<path d="M4655 1911 c-6 -11 9 -23 19 -14 9 9 7 23 -3 23 -6 0 -12 -4 -16 -9z"/>
<path d="M1991 1848 c-139 -148 -154 -168 -132 -168 8 0 137 129 183 184 l25
30 23 -22 c55 -51 237 -118 373 -138 l47 -6 0 -152 c0 -152 5 -196 21 -196 5
0 9 77 9 170 0 157 -2 172 -20 190 -11 11 -33 20 -49 20 -55 0 -222 50 -289
87 -109 59 -117 63 -125 63 -4 0 -33 -28 -66 -62z"/>
<path d="M2956 1860 c-83 -46 -172 -78 -281 -100 l-80 -16 -2 -187 c-2 -248
12 -252 27 -7 4 56 1 133 -4 156 -6 21 -3 24 22 24 78 0 297 76 370 129 l38
28 90 -99 c49 -55 91 -104 92 -109 5 -12 32 -11 32 1 0 6 -7 13 -15 16 -8 4
-15 11 -15 18 0 6 -36 51 -81 99 -55 60 -87 87 -102 86 -12 0 -53 -18 -91 -39z"/>
<path d="M3660 1870 c0 -5 -34 -54 -74 -109 -105 -139 -252 -266 -423 -366
-85 -49 -104 -63 -55 -42 173 77 385 256 514 431 58 80 66 96 48 96 -5 0 -10
-4 -10 -10z"/>
<path d="M4635 1840 c-3 -5 -1 -10 4 -10 6 0 11 5 11 10 0 6 -2 10 -4 10 -3 0
-8 -4 -11 -10z"/>
<path d="M4576 1785 c-9 -26 -7 -32 5 -12 6 10 9 21 6 23 -2 3 -7 -2 -11 -11z"/>
<path d="M570 1739 c0 -5 5 -7 10 -4 6 3 10 8 10 11 0 2 -4 4 -10 4 -5 0 -10
-5 -10 -11z"/>
<path d="M4540 1714 c0 -8 5 -12 10 -9 6 3 10 10 10 16 0 5 -4 9 -10 9 -5 0
-10 -7 -10 -16z"/>
<path d="M505 1710 c-3 -5 -2 -10 4 -10 5 0 13 5 16 10 3 6 2 10 -4 10 -5 0
-13 -4 -16 -10z"/>
<path d="M4580 1710 c0 -5 7 -10 16 -10 8 0 12 5 9 10 -3 6 -10 10 -16 10 -5
0 -9 -4 -9 -10z"/>
<path d="M586 1697 c3 -10 9 -15 12 -12 3 3 0 11 -7 18 -10 9 -11 8 -5 -6z"/>
<path d="M3298 1660 c-7 -11 -18 -20 -25 -20 -7 0 -57 -32 -112 -70 -118 -84
-177 -111 -308 -144 -54 -14 -111 -28 -128 -32 -38 -10 -46 -11 -67 -13 -12
-1 -15 -6 -11 -17 3 -9 9 -12 12 -7 3 4 11 8 16 8 68 4 273 60 355 98 51 24
123 68 128 80 2 4 8 7 13 7 15 0 128 90 139 111 14 25 4 25 -12 -1z"/>
<path d="M1810 1664 c1 -29 112 -110 230 -167 118 -58 207 -88 320 -108 57
-10 110 -21 117 -23 14 -6 28 10 16 17 -5 3 -53 13 -107 22 -170 29 -341 100
-483 202 -35 24 -63 40 -63 36 0 -4 -7 1 -15 11 -8 11 -15 16 -15 10z"/>
<path d="M4517 1663 c-4 -3 -7 -11 -7 -17 0 -6 5 -5 12 2 6 6 9 14 7 17 -3 3
-9 2 -12 -2z"/>
<path d="M605 1650 c3 -5 8 -10 11 -10 2 0 4 5 4 10 0 6 -5 10 -11 10 -5 0 -7
-4 -4 -10z"/>
<path d="M3173 1619 c-35 -22 -46 -37 -15 -20 22 13 58 40 52 41 -3 0 -20 -10
-37 -21z"/>
<path d="M4310 1565 c-7 -8 -8 -15 -3 -15 5 0 8 -13 5 -30 -5 -34 -10 -37 -27
-13 -11 14 -12 11 -8 -22 4 -42 33 -74 65 -75 9 0 23 -6 30 -13 22 -23 59 -39
74 -33 8 3 13 0 11 -7 -1 -7 9 -13 23 -15 20 -2 32 8 63 53 39 59 46 85 22 85
-8 0 -15 -4 -15 -10 0 -5 -5 -10 -11 -10 -6 0 -8 9 -4 20 3 11 2 20 -3 20 -6
0 -12 -5 -14 -11 -3 -9 -11 -8 -28 2 -14 7 -27 14 -30 15 -3 0 -13 4 -23 9
-10 4 -21 5 -24 1 -3 -3 3 -9 13 -13 10 -4 25 -13 32 -20 7 -7 23 -13 34 -13
12 0 18 -3 15 -7 -4 -3 -1 -14 7 -22 8 -9 12 -21 8 -26 -10 -15 -62 -36 -73
-30 -5 4 -9 2 -9 -4 0 -15 -85 45 -104 74 -9 13 -16 31 -16 40 0 19 41 36 56
24 8 -6 14 -4 18 7 5 12 13 14 38 9 18 -4 39 -12 46 -18 7 -5 15 -7 19 -4 6 7
-50 32 -126 56 -44 14 -46 14 -61 -4z"/>
<path d="M3025 1534 c-76 -37 -202 -76 -307 -95 -38 -7 -68 -16 -68 -21 0 -13
23 -10 164 27 126 32 189 57 269 105 49 30 20 22 -58 -16z"/>
<path d="M755 1550 c-4 -6 -46 -31 -93 -55 -134 -69 -132 -66 -88 -120 43 -52
58 -54 124 -22 26 13 73 32 105 41 55 17 68 28 47 41 -5 3 -10 17 -10 31 0 14
-5 34 -10 44 -7 13 -7 21 0 25 6 4 8 11 5 16 -8 12 -72 12 -80 -1z m50 -38
c14 -10 17 -50 5 -71 -5 -10 -31 -26 -57 -35 -26 -9 -56 -21 -65 -27 -25 -13
-77 -11 -92 4 -26 26 0 55 86 96 84 41 105 47 123 33z"/>
<path d="M2030 1554 c0 -18 245 -106 345 -123 39 -7 78 -14 88 -16 9 -2 17 0
17 4 0 3 -53 16 -117 29 -72 14 -159 39 -225 66 -60 24 -108 42 -108 40z"/>
<path d="M915 1520 c3 -5 8 -10 11 -10 2 0 4 5 4 10 0 6 -5 10 -11 10 -5 0 -7
-4 -4 -10z"/>
<path d="M4173 1491 c-30 -49 -134 -192 -162 -224 -49 -56 -222 -222 -252
-240 -16 -11 -29 -23 -29 -28 0 -13 6 -11 46 16 20 14 34 25 31 25 -3 0 44 46
105 103 86 79 129 129 193 222 74 109 101 155 91 155 -2 0 -12 -13 -23 -29z"/>
<path d="M940 1496 c0 -9 52 -96 61 -101 16 -11 9 8 -22 57 -28 43 -39 56 -39
44z"/>
<path d="M1827 1449 c7 -7 15 -10 18 -7 3 3 -2 9 -12 12 -14 6 -15 5 -6 -5z"/>
<path d="M1020 1375 c0 -36 267 -314 379 -393 36 -26 68 -50 69 -54 2 -5 8 -8
14 -8 5 0 25 -12 44 -26 19 -15 34 -22 34 -16 0 10 -52 52 -65 52 -3 0 -12 6
-20 13 -7 6 -43 35 -80 62 -62 47 -226 206 -293 285 -17 19 -42 49 -56 65 -14
17 -25 26 -26 20z"/>
<path d="M530 1340 c0 -6 7 -10 15 -10 8 0 15 2 15 4 0 2 -7 6 -15 10 -8 3
-15 1 -15 -4z"/>
<path d="M2050 1321 c0 -5 -7 -16 -15 -25 -27 -27 -152 -250 -256 -459 -42
-85 -43 -87 -30 -87 5 0 51 80 101 177 51 97 119 221 151 275 33 54 59 103 59
109 0 7 7 8 18 4 32 -13 104 -37 126 -42 68 -16 59 -9 -29 22 -106 37 -125 41
-125 26z"/>
<path d="M3018 1324 c-4 -3 -28 -12 -55 -19 -32 -9 -40 -13 -23 -14 35 -1 100
18 100 29 0 11 -13 13 -22 4z"/>
<path d="M3060 1299 c0 -5 11 -26 23 -47 37 -58 163 -290 234 -429 29 -57 48
-67 55 -29 3 15 1 23 -6 20 -13 -5 -47 50 -131 211 -32 61 -71 134 -87 164
-16 29 -27 60 -24 68 4 8 1 11 -5 8 -6 -4 -13 2 -16 13 -5 20 -43 38 -43 21z"/>
<path d="M2590 1268 c-1 -18 -1 -252 -2 -520 l-1 -488 -23 0 c-25 0 -40 15
-25 25 6 3 8 12 4 20 -3 10 1 15 12 15 13 0 15 4 8 13 -13 15 -11 -26 -18 467
-3 234 -8 436 -11 450 -15 71 -22 -48 -29 -500 -3 -272 -7 -497 -8 -500 -3 -8
10 -10 73 -10 l61 0 -4 483 c-3 265 -8 501 -12 525 -9 52 -25 65 -25 20z m27
-740 c-2 -24 -4 -7 -4 37 0 44 2 63 4 43 2 -21 2 -57 0 -80z m-90 -171 c-2
-23 -3 -1 -3 48 0 50 1 68 3 42 2 -26 2 -67 0 -90z m90 46 c-2 -16 -4 -3 -4
27 0 30 2 43 4 28 2 -16 2 -40 0 -55z"/>
<path d="M830 1280 c0 -5 5 -10 11 -10 5 0 7 5 4 10 -3 6 -8 10 -11 10 -2 0
-4 -4 -4 -10z"/>
<path d="M2828 1273 c7 -3 16 -2 19 1 4 3 -2 6 -13 5 -11 0 -14 -3 -6 -6z"/>
<path d="M2880 1270 c-11 -8 -7 -9 15 -4 37 8 45 14 19 14 -10 0 -26 -5 -34
-10z"/>
<path d="M4225 1260 c3 -5 8 -10 11 -10 2 0 4 5 4 10 0 6 -5 10 -11 10 -5 0
-7 -4 -4 -10z"/>
<path d="M2305 1249 c-4 -5 14 -9 41 -9 55 0 55 5 2 13 -21 3 -40 1 -43 -4z"/>
<path d="M2838 1253 c7 -3 16 -2 19 1 4 3 -2 6 -13 5 -11 0 -14 -3 -6 -6z"/>
<path d="M780 1230 c0 -5 5 -10 10 -10 6 0 10 5 10 10 0 6 -4 10 -10 10 -5 0
-10 -4 -10 -10z"/>
<path d="M2418 1229 c-8 -6 1 -9 25 -9 20 0 37 2 37 4 0 9 -50 12 -62 5z"/>
<path d="M2718 1233 c7 -3 16 -2 19 1 4 3 -2 6 -13 5 -11 0 -14 -3 -6 -6z"/>
<path d="M858 1143 c7 -3 16 -2 19 1 4 3 -2 6 -13 5 -11 0 -14 -3 -6 -6z"/>
<path d="M4240 1124 c0 -8 5 -12 10 -9 6 4 8 11 5 16 -9 14 -15 11 -15 -7z"/>
<path d="M4276 1055 c-3 -8 -1 -15 4 -15 6 0 10 7 10 15 0 8 -2 15 -4 15 -2 0
-6 -7 -10 -15z"/>
<path d="M1010 1046 c0 -2 8 -10 18 -17 15 -13 16 -12 3 4 -13 16 -21 21 -21
13z"/>
<path d="M1211 1004 c0 -11 3 -14 6 -6 3 7 2 16 -1 19 -3 4 -6 -2 -5 -13z"/>
<path d="M3970 1010 c0 -5 5 -10 10 -10 6 0 10 5 10 10 0 6 -4 10 -10 10 -5 0
-10 -4 -10 -10z"/>
<path d="M1050 1000 c0 -5 5 -10 10 -10 6 0 10 5 10 10 0 6 -4 10 -10 10 -5 0
-10 -4 -10 -10z"/>
<path d="M3940 980 c0 -5 7 -7 15 -4 8 4 15 8 15 10 0 2 -7 4 -15 4 -8 0 -15
-4 -15 -10z"/>
<path d="M1020 970 c-9 -6 -10 -10 -3 -10 6 0 15 5 18 10 8 12 4 12 -15 0z"/>
<path d="M1180 970 c0 -5 5 -10 10 -10 6 0 10 5 10 10 0 6 -4 10 -10 10 -5 0
-10 -4 -10 -10z"/>
<path d="M3655 953 c-22 -14 -42 -30 -45 -33 -3 -4 -18 -14 -35 -23 -16 -9
-25 -16 -20 -17 11 0 127 68 135 80 3 4 12 10 20 13 13 5 13 6 0 6 -9 1 -33
-11 -55 -26z"/>
<path d="M1110 950 c0 -5 5 -10 11 -10 5 0 7 5 4 10 -3 6 -8 10 -11 10 -2 0
-4 -4 -4 -10z"/>
<path d="M1130 920 c0 -5 5 -10 10 -10 6 0 10 5 10 10 0 6 -4 10 -10 10 -5 0
-10 -4 -10 -10z"/>
<path d="M3995 910 c-3 -5 -1 -10 4 -10 6 0 11 5 11 10 0 6 -2 10 -4 10 -3 0
-8 -4 -11 -10z"/>
<path d="M4060 910 c0 -5 7 -10 15 -10 8 0 15 5 15 10 0 6 -7 10 -15 10 -8 0
-15 -4 -15 -10z"/>
<path d="M3790 886 c0 -9 5 -16 10 -16 6 0 10 4 10 9 0 6 -4 13 -10 16 -5 3
-10 -1 -10 -9z"/>
<path d="M1055 870 c3 -5 8 -10 11 -10 2 0 4 5 4 10 0 6 -5 10 -11 10 -5 0 -7
-4 -4 -10z"/>
<path d="M1320 811 c0 -10 30 -24 37 -17 3 2 -5 9 -16 16 -12 6 -21 7 -21 1z"/>
<path d="M3505 791 c-3 -12 -12 -21 -18 -20 -23 3 -32 -1 -60 -25 -17 -14 -24
-27 -18 -31 6 -3 11 -14 11 -23 0 -14 45 -89 61 -102 4 -3 20 -27 36 -55 26
-44 34 -50 61 -49 16 1 51 16 77 34 43 29 45 33 31 49 -9 10 -16 25 -16 34 0
9 -3 16 -7 16 -22 -4 -32 3 -27 16 4 9 0 15 -9 15 -23 0 -32 -21 -13 -32 23
-13 20 -55 -4 -68 -11 -6 -25 -8 -30 -5 -6 3 -10 1 -10 -4 0 -23 -19 -10 -29
20 -6 17 -15 28 -20 25 -5 -4 -17 7 -25 24 -9 16 -23 43 -32 60 -21 40 -11 63
31 79 35 12 42 25 26 50 -7 11 -10 9 -16 -8z m145 -261 c-8 -5 -17 -7 -19 -4
-3 3 1 9 9 14 8 5 17 7 19 4 3 -3 -1 -9 -9 -14z"/>
<path d="M3552 773 c2 -26 8 -38 18 -38 10 0 14 -8 12 -21 -2 -13 4 -24 13
-28 13 -5 15 1 13 34 -1 22 -8 42 -16 45 -7 2 -11 9 -7 14 3 6 -4 15 -15 21
-20 11 -21 9 -18 -27z"/>
<path d="M1544 792 c-18 -12 -75 -122 -69 -132 3 -6 0 -10 -8 -10 -14 0 -47
-66 -47 -94 0 -13 126 -74 133 -65 2 2 15 27 29 54 44 89 72 135 79 135 8 0
39 57 39 72 0 4 -8 8 -17 8 -15 0 -16 2 -3 10 11 7 4 10 -27 10 -23 0 -45 -4
-48 -10 -4 -6 6 -8 23 -6 25 3 29 0 26 -19 -4 -40 -16 -70 -35 -86 -11 -9 -19
-23 -19 -32 0 -8 -7 -17 -15 -21 -8 -3 -15 -12 -15 -21 0 -8 -5 -15 -11 -15
-5 0 -8 -4 -5 -9 10 -15 -21 -32 -46 -26 -27 7 -53 41 -38 50 5 3 7 12 3 20
-3 8 0 15 6 15 6 0 11 14 11 30 0 20 5 30 15 30 9 0 12 6 9 15 -4 8 -1 15 5
15 6 0 11 7 11 15 0 8 4 15 10 15 14 0 33 41 23 51 -4 4 -13 5 -19 1z"/>
<path d="M1295 770 c-3 -5 -1 -10 4 -10 6 0 11 5 11 10 0 6 -2 10 -4 10 -3 0
-8 -4 -11 -10z"/>
<path d="M1280 731 c0 -5 5 -13 10 -16 6 -3 10 -2 10 4 0 5 -4 13 -10 16 -5 3
-10 2 -10 -4z"/>
<path d="M2065 560 c-3 -5 -1 -10 4 -10 6 0 11 5 11 10 0 6 -2 10 -4 10 -3 0
-8 -4 -11 -10z"/>
<path d="M3093 553 c-13 -2 -23 -8 -23 -13 0 -10 38 -1 46 11 3 5 4 8 2 8 -2
-1 -13 -4 -25 -6z"/>
<path d="M2195 540 c4 -6 11 -8 16 -5 14 9 11 15 -7 15 -8 0 -12 -5 -9 -10z"/>
<path d="M1978 533 c7 -3 16 -2 19 1 4 3 -2 6 -13 5 -11 0 -14 -3 -6 -6z"/>
<path d="M2030 520 c8 -5 22 -9 30 -9 10 0 8 3 -5 9 -27 12 -43 12 -25 0z"/>
<path d="M2380 509 c0 -11 4 -18 10 -14 5 3 7 12 3 20 -7 21 -13 19 -13 -6z"/>
<path d="M2838 503 c7 -3 16 -2 19 1 4 3 -2 6 -13 5 -11 0 -14 -3 -6 -6z"/>
<path d="M1885 470 c-3 -5 -1 -10 4 -10 6 0 11 5 11 10 0 6 -2 10 -4 10 -3 0
-8 -4 -11 -10z"/>
<path d="M3251 424 c0 -11 3 -14 6 -6 3 7 2 16 -1 19 -3 4 -6 -2 -5 -13z"/>
<path d="M2828 353 c7 -3 16 -2 19 1 4 3 -2 6 -13 5 -11 0 -14 -3 -6 -6z"/>
<path d="M2438 333 c7 -3 16 -2 19 1 4 3 -2 6 -13 5 -11 0 -14 -3 -6 -6z"/>
</g>
</svg>
