<?xml version="1.0" standalone="no"?>
<!DOCTYPE svg PUBLIC "-//W3C//DTD SVG 20010904//EN"
 "http://www.w3.org/TR/2001/REC-SVG-20010904/DTD/svg10.dtd">
<svg version="1.0" xmlns="http://www.w3.org/2000/svg"
 width="512.000000pt" height="768.000000pt" viewBox="0 0 512.000000 768.000000"
 preserveAspectRatio="xMidYMid meet">
<metadata>
Created by potrace 1.16, written by Peter Selinger 2001-2019
</metadata>
<g transform="translate(0.000000,768.000000) scale(0.100000,-0.100000)"
fill="#000000" stroke="none">
<path d="M2617 7523 c-4 -3 -7 -91 -7 -194 0 -164 2 -188 16 -193 10 -4 341
-6 738 -6 592 0 723 2 731 14 6 7 14 13 18 14 5 0 12 3 15 7 4 4 1 5 -6 3 -11
-2 -13 31 -12 163 0 91 -2 173 -6 182 -6 16 -61 17 -743 17 -406 0 -741 -3
-744 -7z m1463 -190 l0 -178 -720 0 -720 0 0 178 0 177 720 0 720 0 0 -177z"/>
<path d="M2661 7453 c2 -24 2 -24 6 -6 4 21 10 23 106 26 l102 3 -107 2 -108
2 1 -27z"/>
<path d="M2888 7473 c7 -3 16 -2 19 1 4 3 -2 6 -13 5 -11 0 -14 -3 -6 -6z"/>
<path d="M3013 7473 c43 -2 110 -2 150 0 40 1 5 3 -78 3 -82 0 -115 -2 -72 -3z"/>
<path d="M3258 7473 c12 -2 32 -2 45 0 12 2 2 4 -23 4 -25 0 -35 -2 -22 -4z"/>
<path d="M3363 7473 c15 -2 39 -2 55 0 15 2 2 4 -28 4 -30 0 -43 -2 -27 -4z"/>
<path d="M3583 7473 c71 -2 183 -2 250 0 67 1 10 3 -128 3 -137 0 -192 -2
-122 -3z"/>
<path d="M3978 7473 c12 -2 32 -2 45 0 12 2 2 4 -23 4 -25 0 -35 -2 -22 -4z"/>
<path d="M3175 7401 c-3 -5 -14 -7 -24 -4 -25 6 -33 -10 -21 -41 8 -21 15 -25
42 -23 29 2 33 6 35 34 3 30 -19 53 -32 34z m-15 -33 c0 -16 -3 -19 -11 -11
-6 6 -8 16 -5 22 11 17 16 13 16 -11z m26 -15 c-11 -11 -17 4 -9 23 7 18 8 18
11 1 2 -10 1 -21 -2 -24z"/>
<path d="M4051 7394 c0 -11 3 -14 6 -6 3 7 2 16 -1 19 -3 4 -6 -2 -5 -13z"/>
<path d="M2732 7365 c0 -33 1 -35 34 -32 38 2 38 2 24 27 -8 16 -7 19 10 17
11 -1 19 -6 19 -12 -3 -24 2 -35 16 -35 21 0 29 24 16 49 -21 39 -99 15 -84
-26 3 -7 -1 -13 -7 -13 -9 0 -11 10 -6 30 4 22 2 30 -8 30 -9 0 -14 -12 -14
-35z m112 0 c3 -8 1 -15 -4 -15 -6 0 -10 7 -10 15 0 8 2 15 4 15 2 0 6 -7 10
-15z"/>
<path d="M2864 7384 c3 -8 6 -24 6 -35 0 -10 7 -19 15 -19 11 0 14 7 9 24 -3
13 -1 27 5 30 6 4 12 2 12 -3 1 -6 3 -15 4 -21 1 -5 3 -14 4 -20 0 -5 6 -10
11 -10 6 0 8 10 4 24 -3 13 -1 27 5 30 7 5 11 -2 11 -17 0 -25 23 -42 42 -31
5 3 7 12 4 20 -3 7 -1 16 4 19 5 3 10 -5 12 -17 2 -15 10 -23 23 -23 13 0 19
6 17 17 -4 27 15 30 22 3 4 -14 13 -25 21 -25 17 0 20 16 5 25 -5 3 -10 14
-10 25 0 15 -8 18 -55 17 -51 -1 -55 -3 -55 -25 0 -13 -4 -21 -10 -17 -5 3 -7
12 -3 20 3 8 1 15 -3 16 -86 10 -106 9 -100 -7z m176 -16 c0 -18 -2 -20 -9 -8
-6 8 -7 18 -5 22 9 14 14 9 14 -14z"/>
<path d="M2662 7260 c0 -19 2 -27 5 -17 2 9 2 25 0 35 -3 9 -5 1 -5 -18z"/>
<path d="M2691 7264 c0 -11 3 -14 6 -6 3 7 2 16 -1 19 -3 4 -6 -2 -5 -13z"/>
<path d="M2660 7189 c0 -5 19 -9 42 -9 23 0 39 2 37 5 -9 8 -79 12 -79 4z"/>
<path d="M2803 7183 c9 -2 25 -2 35 0 9 3 1 5 -18 5 -19 0 -27 -2 -17 -5z"/>
<path d="M2868 7183 c6 -2 18 -2 25 0 6 3 1 5 -13 5 -14 0 -19 -2 -12 -5z"/>
<path d="M3098 7183 c46 -2 118 -2 160 0 42 1 5 3 -83 3 -88 0 -123 -2 -77 -3z"/>
<path d="M3528 7183 c83 -2 221 -2 305 0 83 1 15 3 -153 3 -168 0 -236 -2
-152 -3z"/>
<path d="M1515 7460 c-3 -5 -17 -10 -31 -10 -14 0 -22 -4 -19 -10 4 -6 -2 -7
-17 -1 -13 5 -59 8 -103 9 -85 0 -119 -15 -108 -46 5 -11 3 -13 -6 -7 -10 6
-11 3 -3 -11 5 -11 8 -29 7 -41 -1 -12 2 -20 6 -18 4 3 10 -2 13 -11 5 -12 18
-15 61 -12 30 1 55 0 55 -4 0 -4 6 -5 13 -3 29 11 163 12 176 1 11 -8 13 -8 7
2 -5 8 2 12 24 12 21 0 29 -4 24 -12 -5 -7 -3 -8 6 -3 8 5 59 9 114 10 101 1
101 2 99 26 -2 21 -1 22 8 6 5 -9 8 -21 5 -26 -5 -8 272 -7 280 2 9 8 54 -6
48 -15 -4 -6 4 -4 17 2 18 10 24 10 27 1 3 -9 7 -9 18 0 7 6 21 9 29 5 8 -3
15 0 15 7 0 7 3 8 8 2 4 -5 28 -10 54 -11 36 -1 45 2 41 13 -5 12 -7 12 -14 1
-6 -9 -9 -7 -9 10 0 26 3 27 24 6 9 -8 16 -11 16 -5 0 6 -8 15 -19 20 -18 10
-21 46 -5 72 4 7 3 10 -3 6 -6 -4 -13 0 -16 7 -5 11 -20 14 -62 10 -31 -2 -60
-6 -65 -9 -5 -3 -11 -1 -15 5 -6 10 -34 8 -74 -5 -11 -3 -22 -1 -26 5 -10 17
-63 12 -74 -7 -9 -17 -10 -17 -16 0 -10 23 -72 24 -77 0 -3 -14 -5 -15 -18 -2
-12 11 -51 14 -182 14 -91 0 -170 -4 -175 -8 -8 -9 -9 -12 -13 -49 -1 -13 -4
-17 -7 -10 -2 6 -9 12 -14 12 -6 0 -8 -4 -4 -9 3 -5 1 -12 -5 -16 -5 -3 -10 3
-10 14 0 12 6 21 13 21 7 0 13 9 13 19 0 11 -5 19 -11 18 -5 -1 -9 6 -9 16 2
19 -2 22 -11 7z m-177 -42 c19 -19 14 -30 -7 -18 -11 5 -26 10 -35 10 -20 0
-31 -37 -16 -55 18 -22 47 -18 55 8 6 19 8 20 12 4 10 -40 -50 -65 -77 -32
-40 48 24 127 68 83z m52 -43 c0 -30 -4 -55 -10 -55 -5 0 -10 25 -10 55 0 30
5 55 10 55 6 0 10 -25 10 -55z m52 33 c0 -13 0 -33 -1 -45 -1 -13 3 -23 9 -23
6 0 9 -4 6 -9 -3 -5 -17 -8 -31 -8 -14 0 -25 3 -25 8 0 5 5 9 10 9 6 0 10 20
10 45 0 45 19 65 22 23z m59 -26 c-2 -35 0 -42 16 -42 11 0 25 6 32 13 10 10
12 8 9 -8 -2 -16 -12 -20 -41 -21 l-37 -1 0 54 c0 39 4 53 12 51 8 -3 11 -20
9 -46z m379 -3 c0 -28 4 -39 15 -39 18 0 21 50 3 68 -6 6 -9 15 -5 18 9 9 37
-22 38 -43 1 -17 2 -17 6 0 2 9 8 17 13 17 18 0 -8 -56 -32 -69 -41 -23 -58
-9 -58 49 0 32 4 49 10 45 6 -3 10 -24 10 -46z m128 38 c15 -18 28 -102 15
-94 -6 4 -13 25 -17 48 -8 51 -21 43 -17 -11 1 -24 -2 -40 -8 -40 -12 0 -16
92 -4 103 10 10 19 8 31 -6z m100 -20 c3 -22 -1 -27 -18 -27 -13 0 -20 -5 -17
-12 2 -7 11 -12 21 -10 9 2 16 -2 16 -8 0 -20 -40 -10 -56 15 -15 23 -15 27 0
51 22 32 50 28 54 -9z m242 13 c0 -22 -14 -40 -32 -40 -11 0 -18 -5 -15 -12 2
-7 14 -12 26 -11 24 3 29 -15 6 -23 -25 -10 -45 16 -45 56 0 20 2 39 5 42 8 8
55 -3 55 -12z m-672 -13 c11 -57 -29 -91 -73 -63 -27 18 -33 54 -13 74 19 19
82 11 86 -11z m140 6 c10 -19 -3 -83 -16 -83 -10 0 -32 22 -32 32 0 4 6 5 14
2 8 -3 16 3 19 15 6 24 0 31 -28 31 -18 0 -22 -6 -23 -30 -1 -39 -8 -49 -32
-43 -15 4 -18 11 -13 34 3 17 0 35 -7 44 -11 13 -5 15 48 15 48 0 63 -4 70
-17z m412 -3 c6 -12 8 -31 4 -43 -5 -12 -7 -24 -7 -27 3 -13 -54 -7 -69 7 -21
19 -23 54 -6 71 20 20 66 15 78 -8z m40 -24 c0 -25 -4 -48 -10 -51 -6 -4 -10
13 -10 44 0 28 5 51 10 51 6 0 10 -20 10 -44z"/>
<path d="M2070 7395 c0 -9 6 -12 15 -9 8 4 12 10 9 15 -8 14 -24 10 -24 -6z"/>
<path d="M2305 7401 c-6 -11 9 -23 19 -14 9 9 7 23 -3 23 -6 0 -12 -4 -16 -9z"/>
<path d="M1613 7403 c-18 -7 -16 -50 3 -57 25 -10 33 -7 44 15 18 33 -10 58
-47 42z m27 -33 c0 -5 -2 -10 -4 -10 -3 0 -8 5 -11 10 -3 6 -1 10 4 10 6 0 11
-4 11 -10z"/>
<path d="M1722 7380 c1 -16 5 -30 10 -30 11 0 10 47 -1 55 -5 3 -9 -8 -9 -25z"/>
<path d="M2173 7403 c-15 -6 -17 -49 -3 -58 33 -20 65 26 38 53 -13 13 -16 13
-35 5z m27 -27 c0 -3 -4 -8 -10 -11 -5 -3 -10 -1 -10 4 0 6 5 11 10 11 6 0 10
-2 10 -4z"/>
<path d="M2430 7437 c-11 -9 -14 -26 -10 -69 3 -31 8 -59 12 -63 13 -13 47 15
51 43 4 24 4 23 3 -4 -2 -30 -1 -31 46 -33 43 -1 49 1 58 24 24 62 3 92 -65
96 -28 1 -57 6 -65 10 -8 4 -22 2 -30 -4z m30 -62 c-3 -25 -8 -46 -12 -45 -5
0 -8 2 -8 5 0 3 0 23 0 45 0 26 5 40 13 40 9 0 11 -12 7 -45z m97 37 c16 -10
25 -54 15 -70 -5 -8 -22 -12 -38 -10 -24 3 -29 8 -30 36 -2 39 25 62 53 44z"/>
<path d="M2525 7390 c-3 -5 3 -10 15 -10 12 0 18 5 15 10 -3 6 -10 10 -15 10
-5 0 -12 -4 -15 -10z"/>
<path d="M2523 7358 c2 -7 10 -13 17 -13 7 0 15 6 18 13 2 7 -5 12 -18 12 -13
0 -20 -5 -17 -12z"/>
<path d="M444 7098 c-5 -13 -8 -37 -6 -54 l3 -30 154 0 c95 1 157 -3 159 -9 3
-5 5 -5 5 2 1 7 8 10 16 7 8 -4 12 -11 8 -18 -4 -7 -1 -6 9 2 10 8 48 12 109
12 85 0 157 5 165 12 1 2 5 22 8 44 5 32 3 43 -8 47 -8 3 -149 6 -314 7 l-299
1 -9 -23z m56 -15 c0 -15 2 -15 19 1 11 10 25 15 30 11 15 -8 14 -55 0 -55 -6
0 -9 9 -6 20 3 11 1 20 -4 20 -5 0 -9 -8 -9 -18 0 -14 -8 -19 -35 -20 -30 -1
-35 2 -35 22 0 12 3 26 7 29 12 13 33 7 33 -10z m115 -17 c0 -32 -12 -41 -34
-27 -20 13 -6 63 17 59 11 -2 17 -13 17 -32z m102 21 c4 -6 -2 -8 -15 -5 -12
4 -22 5 -22 3 0 -2 -3 -10 -6 -19 -3 -9 -1 -16 6 -16 6 0 8 5 4 11 -4 7 -1 10
7 7 21 -7 17 -33 -6 -33 -14 0 -22 9 -26 30 l-7 30 -1 -27 c-1 -34 -21 -38
-21 -5 0 13 2 26 5 28 9 10 75 7 82 -4z m69 -13 c8 -33 -9 -52 -31 -34 -18 15
-20 46 -2 53 22 10 27 7 33 -19z m60 -1 c2 -35 -11 -49 -30 -34 -17 14 -21 42
-9 55 14 13 38 0 39 -21z m60 13 c7 -19 -14 -58 -29 -53 -14 4 -21 32 -13 53
7 18 35 18 42 0z m44 4 c0 -5 -6 -10 -12 -10 -9 0 -9 -3 1 -9 8 -5 11 -16 8
-25 -11 -28 -27 -17 -27 19 0 24 5 35 15 35 8 0 15 -4 15 -10z m70 -1 c0 -6
-7 -8 -16 -5 -12 5 -15 0 -12 -21 4 -35 -18 -41 -25 -6 -3 15 -3 31 0 35 7 12
53 9 53 -3z m40 1 c0 -5 -4 -10 -9 -10 -4 0 -6 -11 -3 -25 4 -24 -11 -35 -23
-15 -9 15 6 60 21 60 8 0 14 -4 14 -10z m-333 -62 c-3 -8 -6 -5 -6 6 -1 11 2
17 5 13 3 -3 4 -12 1 -19z"/>
<path d="M481 7064 c0 -11 3 -14 6 -6 3 7 2 16 -1 19 -3 4 -6 -2 -5 -13z"/>
<path d="M590 7058 c0 -19 2 -20 10 -8 13 19 13 30 0 30 -5 0 -10 -10 -10 -22z"/>
<path d="M761 7064 c0 -11 3 -14 6 -6 3 7 2 16 -1 19 -3 4 -6 -2 -5 -13z"/>
<path d="M810 7071 c0 -6 5 -13 10 -16 6 -3 10 1 10 9 0 9 -4 16 -10 16 -5 0
-10 -4 -10 -9z"/>
<path d="M877 7076 c-4 -10 -5 -21 -2 -24 9 -9 17 6 13 25 -3 17 -4 17 -11 -1z"/>
<path d="M1965 7110 c-3 -6 -11 -8 -16 -5 -5 3 -7 0 -4 -7 2 -7 6 -29 9 -48 3
-19 10 -36 16 -38 5 -2 7 -9 4 -14 -4 -7 -2 -8 5 -4 6 4 9 11 6 16 -3 5 15 9
39 8 31 0 43 -4 39 -12 -4 -7 -1 -6 8 1 18 15 91 14 82 0 -4 -6 -1 -7 8 -1 7
4 28 7 46 5 47 -4 72 13 71 50 -1 20 -4 26 -9 17 -7 -10 -9 -10 -9 0 0 6 -4
12 -10 12 -5 0 -10 -11 -10 -24 0 -36 -17 -41 -22 -6 -5 35 -2 40 28 40 13 0
25 4 28 9 4 5 -59 10 -148 10 -99 1 -157 -2 -161 -9z m55 -21 c0 -6 -7 -9 -15
-5 -10 4 -15 -1 -15 -16 0 -17 2 -18 15 -8 12 10 15 10 15 -4 0 -20 -39 -21
-46 -1 -4 8 -4 22 0 30 6 17 46 21 46 4z m60 -4 c10 -12 10 -18 0 -30 -16 -19
-39 -19 -46 0 -6 15 11 45 26 45 4 0 13 -7 20 -15z m36 -18 c1 -15 -4 -27 -10
-27 -6 0 -11 14 -12 30 -1 19 3 29 10 27 6 -2 11 -16 12 -30z m73 8 c2 -11 8
-23 13 -26 7 -4 6 -9 -1 -13 -7 -5 -17 6 -26 26 -14 32 -19 31 -16 -4 1 -10
-4 -18 -13 -18 -18 0 -19 4 -10 38 8 29 47 27 53 -3z m73 -37 c-7 -7 -12 -8
-12 -2 0 14 12 26 19 19 2 -3 -1 -11 -7 -17z"/>
<path d="M2050 7064 c0 -8 5 -12 10 -9 6 3 10 10 10 16 0 5 -4 9 -10 9 -5 0
-10 -7 -10 -16z"/>
<path d="M1944 6971 c-2 -2 -4 -116 -4 -253 l0 -248 648 0 647 1 -5 247 -5
247 -638 5 c-351 3 -641 3 -643 1z m1266 -249 l0 -227 -625 0 -625 0 0 225 0
225 625 2 625 1 0 -226z"/>
<path d="M1990 6913 c0 -5 264 -8 586 -8 l586 0 -1 -152 c-1 -84 2 -153 6
-153 4 0 9 72 9 160 l1 160 -593 0 c-327 0 -594 -3 -594 -7z"/>
<path d="M2013 6810 c0 -47 2 -66 4 -42 2 23 2 61 0 85 -2 23 -4 4 -4 -43z"/>
<path d="M1992 6688 l-2 -168 587 0 c322 0 584 3 580 6 -3 3 -264 6 -579 6
l-573 -1 -5 162 -6 162 -2 -167z"/>
<path d="M2012 6660 c0 -19 2 -27 5 -17 2 9 2 25 0 35 -3 9 -5 1 -5 -18z"/>
<path d="M3173 6555 c0 -22 2 -30 4 -17 2 12 2 30 0 40 -3 9 -5 -1 -4 -23z"/>
<path d="M435 6958 c-10 -28 -10 -478 0 -479 6 -1 288 -3 628 -4 l617 -1 -2
245 -3 246 -618 3 c-489 2 -619 0 -622 -10z m1225 -236 l0 -227 -602 0 -603 0
-3 227 -2 227 605 0 605 -1 0 -226z"/>
<path d="M480 6720 l0 -200 578 0 577 0 -3 200 -3 200 -574 0 -575 0 0 -200z
m1140 3 l0 -188 -543 -2 c-299 -1 -554 1 -566 4 -21 5 -22 8 -21 189 l2 184
564 0 564 0 0 -187z"/>
<path d="M3490 6963 c-1 -5 0 -113 0 -242 0 -162 -3 -237 -11 -247 -8 -10 -8
-14 0 -14 6 0 11 3 11 8 0 4 292 6 650 4 l649 -2 3 250 3 249 -652 1 c-359 0
-653 -3 -653 -7z m1280 -241 l0 -227 -630 0 -630 0 0 225 0 225 630 2 630 1 0
-226z"/>
<path d="M3540 6720 l0 -200 603 0 602 0 -3 200 -3 200 -599 0 -600 0 0 -200z
m1187 0 l2 -189 -589 -1 -590 -1 0 184 c0 101 2 186 4 188 3 2 267 5 588 6
l583 1 2 -188z"/>
<path d="M1048 6453 c7 -3 16 -2 19 1 4 3 -2 6 -13 5 -11 0 -14 -3 -6 -6z"/>
<path d="M439 6280 c-10 -7 -17 -540 -6 -540 4 0 7 -7 7 -15 0 -9 -6 -12 -17
-9 -12 4 -14 3 -6 -3 7 -5 12 -22 11 -38 0 -17 0 -153 1 -302 l1 -273 625 0
625 0 0 273 c0 205 3 276 13 286 9 11 9 13 0 7 -9 -5 -13 1 -13 18 0 14 -5 28
-10 31 -13 8 -3 25 13 21 7 -1 9 -1 5 1 -5 3 -8 126 -8 274 0 249 -1 269 -17
269 -210 4 -1217 3 -1224 0z m1221 -272 l0 -253 -603 0 -602 0 0 252 0 253
603 0 602 0 0 -252z m-2 -317 c3 -8 -180 -11 -602 -11 -333 0 -606 4 -606 8 0
5 3 12 8 16 12 12 1196 -1 1200 -13z m0 -316 l2 -255 -605 0 -606 0 1 254 c1
140 3 255 5 257 2 2 273 3 602 2 l598 -3 3 -255z"/>
<path d="M480 6010 l0 -230 48 2 47 1 -43 4 -42 4 2 215 3 214 562 3 563 2 3
-185 2 -185 3 193 2 192 -575 0 -575 0 0 -230z"/>
<path d="M1620 5816 c0 -15 -7 -26 -17 -29 -14 -4 -12 -5 5 -6 18 -1 22 4 22
29 0 17 -2 30 -5 30 -3 0 -5 -11 -5 -24z"/>
<path d="M614 5789 c-3 -5 21 -9 52 -9 32 0 55 2 53 4 -10 8 -100 13 -105 5z"/>
<path d="M1411 5796 c2 -2 22 -6 44 -9 27 -4 35 -3 25 3 -14 9 -79 15 -69 6z"/>
<path d="M878 5783 c17 -2 47 -2 65 0 17 2 3 4 -33 4 -36 0 -50 -2 -32 -4z"/>
<path d="M1257 5783 c18 -2 50 -2 70 0 21 2 7 4 -32 4 -38 0 -55 -2 -38 -4z"/>
<path d="M482 5378 l3 -233 2 227 3 228 563 -3 562 -2 3 -216 2 -217 -560 2
c-308 0 -560 -2 -560 -6 0 -6 1127 -17 1133 -11 1 1 1 105 -1 232 l-3 231
-574 0 -575 0 2 -232z"/>
<path d="M1368 5173 c6 -2 18 -2 25 0 6 3 1 5 -13 5 -14 0 -19 -2 -12 -5z"/>
<path d="M3490 6003 c0 -214 -3 -283 -12 -283 -9 0 -9 -3 0 -12 7 -7 12 -18
12 -26 0 -12 -3 -12 -17 -1 -16 12 -17 12 -6 -2 7 -9 9 -20 5 -24 -4 -5 -1 -5
6 -1 9 6 12 -52 12 -273 l0 -281 653 -2 652 -3 -3 105 c-9 381 -7 515 8 528 8
8 9 11 2 7 -10 -5 -12 48 -10 272 l3 278 -652 0 -653 0 0 -282z m1280 -3 l0
-260 -630 0 -630 0 0 260 0 260 630 0 630 0 0 -260z m-5 -305 c0 -20 -8 -20
-627 -23 l-628 -2 0 25 0 25 628 -2 c619 -3 627 -3 627 -23z m5 -312 l0 -263
-630 0 -630 0 0 263 0 262 630 0 630 0 0 -262z"/>
<path d="M3540 6001 c0 -129 2 -232 5 -230 2 3 5 105 6 227 l1 222 589 0 589
-1 3 -227 2 -227 3 237 2 237 -600 -2 -600 -2 0 -234z"/>
<path d="M4704 6010 c0 -102 2 -143 3 -92 2 50 2 134 0 185 -1 50 -3 9 -3 -93z"/>
<path d="M3573 5773 c9 -2 23 -2 30 0 6 3 -1 5 -18 5 -16 0 -22 -2 -12 -5z"/>
<path d="M3888 5773 c17 -2 47 -2 65 0 17 2 3 4 -33 4 -36 0 -50 -2 -32 -4z"/>
<path d="M4408 5773 c18 -2 45 -2 60 0 15 2 0 4 -33 4 -33 0 -45 -2 -27 -4z"/>
<path d="M4568 5773 c12 -2 30 -2 40 0 9 3 -1 5 -23 4 -22 0 -30 -2 -17 -4z"/>
<path d="M4643 5773 c9 -2 25 -2 35 0 9 3 1 5 -18 5 -19 0 -27 -2 -17 -5z"/>
<path d="M3540 5385 l0 -235 198 1 c108 1 301 5 427 9 188 6 152 7 -193 5
l-423 -2 1 199 c1 110 5 211 10 223 l9 23 568 -3 c312 -1 574 -3 581 -4 9 -1
12 -52 12 -221 l0 -219 -152 -4 -153 -3 158 -2 157 -2 0 235 0 235 -600 0
-600 0 0 -235z"/>
<path d="M4703 5505 c0 -27 2 -38 4 -22 2 15 2 37 0 50 -2 12 -4 0 -4 -28z"/>
<path d="M4373 5203 c31 -2 83 -2 115 0 31 2 5 3 -58 3 -63 0 -89 -1 -57 -3z"/>
<path d="M3893 5193 c15 -2 39 -2 55 0 15 2 2 4 -28 4 -30 0 -43 -2 -27 -4z"/>
<path d="M4608 5193 c12 -2 30 -2 40 0 9 3 -1 5 -23 4 -22 0 -30 -2 -17 -4z"/>
<path d="M4463 5173 c15 -2 39 -2 55 0 15 2 2 4 -28 4 -30 0 -43 -2 -27 -4z"/>
<path d="M1947 6273 c-4 -3 -7 -269 -7 -590 l0 -583 648 -2 647 -3 -5 590 -5
590 -636 3 c-349 1 -639 -1 -642 -5z m1263 -583 l0 -570 -625 0 -625 0 0 570
0 570 625 0 625 0 0 -570z"/>
<path d="M1992 6005 l3 -230 2 222 3 223 575 2 574 3 7 -25 c4 -14 8 -49 10
-79 6 -83 14 -74 12 12 -1 41 -6 73 -10 71 -5 -3 -8 0 -8 5 0 6 5 11 10 11 6
0 10 4 10 10 0 5 -224 8 -595 7 l-595 -2 2 -230z"/>
<path d="M3173 5950 c0 -36 2 -50 4 -32 2 17 2 47 0 65 -2 17 -4 3 -4 -33z"/>
<path d="M3173 5815 c0 -22 2 -30 4 -17 2 12 2 30 0 40 -3 9 -5 -1 -4 -23z"/>
<path d="M1984 5744 c3 -9 6 -32 6 -51 0 -20 3 -33 7 -29 4 4 6 23 4 42 l-3
35 209 -1 c584 -3 983 1 983 10 0 7 -209 10 -606 10 -549 0 -606 -2 -600 -16z"/>
<path d="M2905 5688 c-110 -4 -218 -9 -240 -12 -22 -2 46 -2 150 0 105 2 229
4 278 4 48 0 87 3 87 8 0 9 -25 9 -275 0z"/>
<path d="M2026 5682 c-4 -8 277 -5 299 3 6 2 -58 4 -142 4 -83 1 -154 -3 -157
-7z"/>
<path d="M2488 5673 c23 -2 61 -2 85 0 23 2 4 4 -43 4 -47 0 -66 -2 -42 -4z"/>
<path d="M3170 5663 c0 -10 -126 -13 -595 -13 -390 0 -595 -3 -595 -10 0 -12
1196 -14 1204 -2 2 4 1 14 -5 22 -6 10 -9 11 -9 3z"/>
<path d="M1992 5383 l-2 -233 588 2 c584 1 585 1 257 9 -181 5 -444 6 -582 4
l-253 -5 -3 227 -2 228 -3 -232z"/>
<path d="M3168 5563 c5 -83 9 -90 11 -20 0 37 -2 67 -7 67 -4 0 -6 -21 -4 -47z"/>
<path d="M3173 5410 c0 -36 2 -50 4 -32 2 17 2 47 0 65 -2 17 -4 3 -4 -33z"/>
<path d="M3153 5270 c0 -36 2 -50 4 -32 2 17 2 47 0 65 -2 17 -4 3 -4 -33z"/>
<path d="M2918 5203 c23 -2 59 -2 80 0 20 2 1 4 -43 4 -44 0 -61 -2 -37 -4z"/>
<path d="M2133 5193 c9 -2 25 -2 35 0 9 3 1 5 -18 5 -19 0 -27 -2 -17 -5z"/>
<path d="M2323 5193 c9 -2 23 -2 30 0 6 3 -1 5 -18 5 -16 0 -22 -2 -12 -5z"/>
<path d="M3171 5178 c-1 -16 4 -28 9 -28 12 0 12 8 0 35 -8 18 -9 17 -9 -7z"/>
<path d="M3461 5144 c0 -11 3 -14 6 -6 3 7 2 16 -1 19 -3 4 -6 -2 -5 -13z"/>
<path d="M845 5041 c-3 -6 -22 -9 -43 -7 -20 1 -49 -1 -64 -5 -17 -5 -28 -4
-28 2 0 6 -7 6 -19 -1 -25 -13 -34 -13 -25 1 4 8 -1 9 -17 3 -13 -5 -65 -8
-116 -9 -65 0 -96 -4 -105 -14 -11 -11 -11 -13 0 -6 10 5 13 0 11 -21 -2 -16
0 -34 4 -41 7 -11 143 -15 482 -13 111 0 115 2 115 56 0 39 -2 44 -23 44 -13
0 -28 5 -34 11 -8 8 -13 8 -17 0 -4 -6 -32 -11 -62 -11 -34 0 -53 4 -49 10 3
6 4 10 1 10 -3 0 -7 -4 -11 -9z m55 -63 c0 -24 -27 -35 -51 -20 -13 9 -19 8
-22 -1 -3 -7 -6 -1 -7 13 l-1 25 -10 -23 c-10 -27 -45 -26 -43 1 1 9 -2 17 -7
17 -5 0 -9 -8 -9 -17 0 -13 -3 -14 -12 -5 -8 8 -8 15 2 27 17 21 29 19 40 -7
l9 -23 7 23 c6 22 44 32 44 11 0 -6 7 -3 16 6 19 19 44 4 44 -27z m-420 2 c0
-21 -5 -30 -16 -30 -10 0 -12 4 -7 13 4 6 6 20 5 30 -2 9 2 17 7 17 6 0 11
-13 11 -30z m60 1 c0 -24 -8 -30 -31 -24 -21 6 -25 23 -8 40 15 15 39 5 39
-16z m126 12 c-4 -8 -6 -21 -6 -29 0 -8 -5 -14 -11 -14 -6 0 -8 9 -4 20 4 11
2 20 -4 20 -6 0 -11 -9 -11 -20 0 -11 -5 -20 -11 -20 -6 0 -8 9 -4 20 4 11 2
20 -4 20 -6 0 -11 -9 -11 -20 0 -21 -8 -24 -34 -14 -18 7 -22 41 -5 46 5 2 33
3 60 4 40 1 49 -2 45 -13z m54 -13 c0 -20 -5 -30 -15 -30 -18 0 -30 24 -21 45
10 28 36 17 36 -15z m235 0 c0 -16 -6 -26 -18 -28 -19 -4 -32 20 -23 44 9 25
41 13 41 -16z m36 18 c0 -10 2 -10 6 0 9 22 20 13 21 -18 1 -31 -17 -43 -19
-12 -1 16 -2 16 -6 0 -7 -29 -22 -20 -21 12 1 29 17 44 19 18z"/>
<path d="M865 4989 c-10 -15 3 -25 16 -12 7 7 7 13 1 17 -6 3 -14 1 -17 -5z"/>
<path d="M510 4980 c0 -5 5 -10 10 -10 6 0 10 5 10 10 0 6 -4 10 -10 10 -5 0
-10 -4 -10 -10z"/>
<path d="M570 4974 c0 -8 5 -12 10 -9 6 4 8 11 5 16 -9 14 -15 11 -15 -7z"/>
<path d="M690 4980 c0 -5 5 -10 10 -10 6 0 10 5 10 10 0 6 -4 10 -10 10 -5 0
-10 -4 -10 -10z"/>
<path d="M930 4981 c0 -25 6 -27 13 -6 4 8 2 17 -3 20 -6 4 -10 -3 -10 -14z"/>
<path d="M3843 5042 c7 -10 -15 -12 -243 -15 l-105 -2 4 -40 c1 -22 5 -43 7
-47 5 -8 418 -10 439 -2 8 4 12 11 9 16 -4 6 0 14 7 19 10 6 10 9 2 9 -7 0
-10 6 -7 13 7 19 -16 35 -57 40 -20 2 -42 8 -49 12 -8 5 -11 4 -7 -3z m-283
-43 c0 -5 -4 -7 -10 -4 -5 3 -10 2 -10 -3 0 -6 7 -13 16 -16 8 -3 13 -2 10 2
-6 10 11 38 18 31 3 -3 2 -16 -2 -30 -5 -17 -15 -25 -34 -26 -25 -2 -28 2 -28
28 0 22 5 29 20 29 11 0 20 -5 20 -11z m57 -9 c-3 -11 -1 -23 4 -26 5 -3 9 4
9 14 0 21 22 34 44 26 15 -6 10 -54 -6 -54 -6 0 -8 9 -5 20 3 11 1 20 -4 20
-5 0 -9 -7 -9 -15 0 -21 -27 -30 -45 -15 -11 9 -12 17 -4 31 13 25 23 24 16
-1z m108 10 c3 -5 1 -10 -6 -10 -6 0 -9 -8 -6 -20 3 -11 1 -20 -4 -20 -5 0 -9
14 -9 30 0 29 13 40 25 20z m51 -1 c4 -8 9 -8 17 0 18 18 36 12 43 -14 5 -20
9 -23 20 -14 11 9 14 8 14 -4 0 -22 -66 -21 -75 2 -6 15 -7 15 -16 -1 -11 -20
-44 -24 -54 -7 -7 10 21 49 36 49 4 0 11 -5 15 -11z m157 -19 c-8 -33 -12 -37
-23 -20 -6 8 -10 11 -10 5 0 -5 -5 -2 -11 8 -5 9 -19 17 -30 17 -11 0 -18 4
-15 8 2 4 25 8 50 8 43 0 45 -1 39 -26z"/>
<path d="M3745 4980 c-3 -5 -2 -10 4 -10 5 0 13 5 16 10 3 6 2 10 -4 10 -5 0
-13 -4 -16 -10z"/>
<path d="M2165 5032 c-2 -2 -50 -5 -107 -5 l-103 -2 -3 -42 c-3 -38 -1 -43 22
-49 28 -7 402 -1 409 6 2 3 7 20 10 37 5 25 2 35 -12 42 -18 10 -208 21 -216
13z m-155 -33 c0 -8 4 -8 15 1 19 16 35 4 35 -26 0 -26 -18 -31 -51 -14 -13 7
-19 7 -19 0 0 -5 -4 -10 -8 -10 -5 0 -9 14 -9 30 0 22 5 30 19 30 10 0 18 -5
18 -11z m86 -5 c-3 -9 -6 -23 -6 -32 -1 -15 -2 -15 -11 1 -12 21 -5 47 12 47
6 0 8 -7 5 -16z m52 -17 c2 -15 -1 -27 -6 -27 -6 0 -8 9 -5 20 3 11 0 20 -6
20 -6 0 -11 -10 -11 -22 0 -16 -3 -19 -11 -11 -8 8 -8 17 1 33 15 27 34 21 38
-13z m70 19 c-10 -7 -18 -21 -18 -30 0 -20 -26 -21 -34 -1 -10 27 5 45 38 45
28 -1 29 -2 14 -14z m60 2 c9 -9 12 -9 12 -1 0 7 16 11 40 10 34 -1 40 -4 40
-24 0 -12 -5 -25 -11 -29 -8 -4 -9 1 -4 17 l7 24 -21 -22 c-24 -25 -36 -28
-46 -13 -5 8 -11 7 -21 -1 -12 -10 -18 -9 -31 4 -13 13 -14 19 -3 31 15 19 22
20 38 4z"/>
<path d="M2030 4974 c0 -8 5 -12 10 -9 6 3 10 10 10 16 0 5 -4 9 -10 9 -5 0
-10 -7 -10 -16z"/>
<path d="M2250 4980 c0 -5 5 -10 10 -10 6 0 10 5 10 10 0 6 -4 10 -10 10 -5 0
-10 -4 -10 -10z"/>
<path d="M2300 4980 c0 -5 7 -10 15 -10 8 0 15 5 15 10 0 6 -7 10 -15 10 -8 0
-15 -4 -15 -10z"/>
<path d="M430 4778 c0 -2 -1 -330 -3 -730 l-2 -727 625 2 625 2 0 725 0 725
-622 3 c-343 1 -623 1 -623 0z m1229 -728 c2 -654 1 -712 -14 -706 -9 3 -282
6 -606 6 l-589 0 0 703 0 702 604 4 604 4 1 -713z"/>
<path d="M480 4050 l0 -680 575 0 575 0 0 680 0 680 -575 0 -575 0 0 -680z
m1140 2 l0 -668 -565 -2 -565 -2 0 670 0 670 565 0 565 0 0 -668z"/>
<path d="M1940 4055 c0 -399 1 -726 3 -727 1 -1 292 -5 647 -8 l645 -5 -5 730
-5 730 -642 3 -643 2 0 -725z m1270 -7 c0 -646 -1 -710 -16 -704 -8 3 -290 6
-625 6 l-609 0 0 703 0 702 625 1 624 1 1 -709z"/>
<path d="M1990 4050 l0 -680 593 0 592 0 0 680 0 680 -592 0 -593 0 0 -680z
m1150 658 c0 -4 6 -5 13 -3 9 4 12 -132 12 -660 l0 -665 -568 0 c-312 1 -574
3 -582 7 -13 4 -15 95 -15 667 l0 661 570 0 c314 1 570 -3 570 -7z"/>
<path d="M2968 4703 c6 -2 18 -2 25 0 6 3 1 5 -13 5 -14 0 -19 -2 -12 -5z"/>
<path d="M3141 4624 c0 -11 3 -14 6 -6 3 7 2 16 -1 19 -3 4 -6 -2 -5 -13z"/>
<path d="M3142 4580 c0 -14 2 -19 5 -12 2 6 2 18 0 25 -3 6 -5 1 -5 -13z"/>
<path d="M2012 4520 c0 -19 2 -27 5 -17 2 9 2 25 0 35 -3 9 -5 1 -5 -18z"/>
<path d="M3143 3510 c0 -25 2 -35 4 -22 2 12 2 32 0 45 -2 12 -4 2 -4 -23z"/>
<path d="M3142 3435 c0 -16 2 -22 5 -12 2 9 2 23 0 30 -3 6 -5 -1 -5 -18z"/>
<path d="M3489 4776 c-2 -2 -2 -330 1 -728 l5 -723 645 0 645 0 3 728 2 727
-648 0 c-357 0 -651 -2 -653 -4z m1281 -723 l0 -708 -627 3 -628 2 -3 703 -2
702 630 3 630 3 0 -708z"/>
<path d="M3538 4050 l2 -680 605 0 605 0 -1 33 c-2 30 -2 30 -6 5 l-4 -28
-595 0 -594 0 0 664 0 663 92 7 c120 8 188 8 188 -1 0 -5 100 -6 222 -3 123 3
324 5 448 5 l225 0 6 -75 5 -75 2 83 2 82 -602 0 -603 0 3 -680z"/>
<path d="M4701 4644 c0 -11 3 -14 6 -6 3 7 2 16 -1 19 -3 4 -6 -2 -5 -13z"/>
<path d="M4723 4450 c0 -25 2 -35 4 -22 2 12 2 32 0 45 -2 12 -4 2 -4 -23z"/>
<path d="M4712 4355 c0 -16 2 -22 5 -12 2 9 2 23 0 30 -3 6 -5 -1 -5 -18z"/>
<path d="M4721 3799 c1 -73 3 -87 10 -64 10 31 6 141 -5 152 -3 4 -6 -36 -5
-88z"/>
<path d="M4714 3560 c0 -80 2 -112 3 -72 2 39 2 105 0 145 -1 39 -3 7 -3 -73z"/>
<path d="M3461 4734 c0 -11 3 -14 6 -6 3 7 2 16 -1 19 -3 4 -6 -2 -5 -13z"/>
<path d="M439 3258 c-4 -74 -3 -96 3 -92 3 2 9 -2 11 -8 4 -10 6 -10 6 -1 1 9
8 10 26 3 15 -6 25 -6 25 0 0 5 12 5 28 1 15 -5 37 -4 50 0 13 5 21 5 18 1 -2
-4 10 -6 28 -4 24 3 33 9 32 20 -1 10 6 16 16 16 11 -1 15 3 11 10 -4 6 -6 19
-5 29 3 18 4 18 -153 21 -38 0 -76 5 -82 9 -8 5 -13 3 -14 -5z m58 -62 c-7
-17 -37 -22 -37 -6 0 6 5 10 11 10 8 0 9 4 0 13 -15 19 0 31 17 13 8 -8 12
-22 9 -30z m159 19 c-10 -8 -15 -18 -11 -24 3 -6 -1 -11 -9 -11 -9 0 -16 5
-16 12 0 9 -3 9 -12 0 -17 -17 -28 -15 -28 6 -1 15 -2 15 -15 -2 -15 -19 -15
-19 -15 4 0 13 -3 20 -7 16 -5 -4 -8 -12 -8 -17 0 -19 -18 -13 -21 8 -3 20 0
21 51 21 30 0 55 -5 55 -10 0 -5 10 -2 22 6 27 19 41 10 14 -9z"/>
<path d="M1959 3225 c0 -16 -2 -38 -4 -48 -2 -9 0 -15 5 -12 4 3 11 -2 14 -11
3 -9 11 -12 18 -8 7 4 44 9 84 10 39 2 75 4 80 5 20 3 35 -2 29 -10 -3 -5 0
-13 6 -17 8 -4 9 -3 5 4 -8 14 -9 13 59 16 28 1 56 -2 63 -7 7 -5 12 -6 12 0
0 11 80 11 98 0 8 -6 12 -4 10 5 -2 7 4 13 13 12 9 -1 16 4 17 10 1 6 5 26 8
44 8 39 38 35 -273 36 l-243 1 -1 -30z m339 -18 c3 -22 -1 -27 -18 -27 -13 0
-24 8 -27 20 -3 11 -10 17 -15 14 -5 -3 -7 -12 -4 -20 3 -7 1 -16 -3 -19 -10
-5 -21 18 -21 42 0 11 7 14 25 11 14 -3 28 -1 31 4 10 16 29 2 32 -25z m40 3
c-1 -16 -4 -30 -8 -30 -13 0 -18 38 -7 49 15 15 16 15 15 -19z m117 4 c0 -12
-7 -18 -17 -18 -10 1 -18 -4 -18 -12 0 -8 -5 -14 -11 -14 -6 0 -8 9 -4 20 4
11 2 20 -4 20 -6 0 -11 -7 -11 -15 0 -8 -9 -15 -20 -15 -13 0 -20 7 -20 18 0
28 15 37 62 36 35 -1 43 -5 43 -20z m-367 -11 c2 -13 -1 -23 -7 -23 -6 0 -12
10 -12 23 l-2 22 -4 -22 c-6 -29 -43 -31 -50 -3 -3 11 -9 17 -14 15 -4 -3 -6
-12 -2 -20 3 -8 0 -15 -6 -15 -6 0 -11 11 -11 24 0 23 3 25 53 23 46 -2 52 -5
55 -24z m72 1 c0 -20 -5 -24 -30 -24 -25 0 -30 4 -30 23 0 20 5 24 30 25 25 1
30 -3 30 -24z m36 1 c-1 -33 -16 -33 -16 0 0 14 4 25 9 25 5 0 8 -11 7 -25z"/>
<path d="M2270 3204 c0 -8 5 -12 10 -9 6 3 10 10 10 16 0 5 -4 9 -10 9 -5 0
-10 -7 -10 -16z"/>
<path d="M2371 3204 c0 -11 3 -14 6 -6 3 7 2 16 -1 19 -3 4 -6 -2 -5 -13z"/>
<path d="M2035 3209 c-4 -6 -5 -12 -2 -15 2 -3 7 2 10 11 7 17 1 20 -8 4z"/>
<path d="M2120 3199 c0 -5 5 -7 10 -4 6 3 10 8 10 11 0 2 -4 4 -10 4 -5 0 -10
-5 -10 -11z"/>
<path d="M2150 3150 c-9 -6 -10 -10 -3 -10 6 0 15 5 18 10 8 12 4 12 -15 0z"/>
<path d="M2108 3143 c7 -3 16 -2 19 1 4 3 -2 6 -13 5 -11 0 -14 -3 -6 -6z"/>
<path d="M440 3059 c0 -5 -3 -8 -7 -6 -10 7 -4 -306 5 -315 13 -13 1212 -10
1228 3 19 15 20 299 2 317 -16 16 -1228 18 -1228 1z m928 -159 l-3 -150 -458
0 -458 0 2 150 2 150 459 0 458 0 -2 -150z m287 0 l0 -150 -135 0 -135 0 0
150 0 150 135 0 135 0 0 -150z"/>
<path d="M484 2910 c0 -63 1 -89 3 -57 2 31 2 83 0 115 -2 31 -3 5 -3 -58z"/>
<path d="M1331 2794 c0 -11 3 -14 6 -6 3 7 2 16 -1 19 -3 4 -6 -2 -5 -13z"/>
<path d="M1947 3063 c-4 -3 -7 -62 -7 -130 l0 -123 38 0 c196 1 1177 -12 1181
-16 3 -2 -262 -3 -587 -2 -326 2 -592 0 -592 -4 0 -5 273 -8 608 -8 364 0 601
4 593 9 -11 7 -7 10 15 13 l29 3 0 130 0 130 -636 3 c-349 1 -639 -1 -642 -5z
m1263 -129 c0 -102 -2 -115 -16 -110 -9 3 -290 6 -625 6 l-610 0 2 110 1 110
624 0 624 0 0 -116z"/>
<path d="M1992 2938 l-2 -88 453 2 452 3 -447 2 -447 3 -4 83 -3 82 -2 -87z"/>
<path d="M2053 3013 c9 -2 25 -2 35 0 9 3 1 5 -18 5 -19 0 -27 -2 -17 -5z"/>
<path d="M2248 3013 c7 -3 16 -2 19 1 4 3 -2 6 -13 5 -11 0 -14 -3 -6 -6z"/>
<path d="M3170 2895 l0 -34 -57 -4 -58 -3 63 -2 62 -2 0 40 c0 22 -2 40 -5 40
-3 0 -5 -16 -5 -35z"/>
<path d="M2908 2853 c7 -3 16 -2 19 1 4 3 -2 6 -13 5 -11 0 -14 -3 -6 -6z"/>
<path d="M2948 2853 c7 -3 16 -2 19 1 4 3 -2 6 -13 5 -11 0 -14 -3 -6 -6z"/>
<path d="M2998 2853 c12 -2 30 -2 40 0 9 3 -1 5 -23 4 -22 0 -30 -2 -17 -4z"/>
<path d="M3497 3063 c-4 -3 -7 -82 -7 -175 0 -140 3 -170 15 -174 8 -4 12 -11
8 -18 -4 -7 -1 -6 9 2 12 10 149 12 632 12 339 0 621 2 626 5 11 7 14 313 4
339 -6 14 -72 16 -643 16 -351 0 -641 -3 -644 -7z m1270 -173 l-2 -160 -627 0
-628 0 0 160 0 160 629 0 629 0 -1 -160z"/>
<path d="M4733 2795 c0 -22 2 -30 4 -17 2 12 2 30 0 40 -3 9 -5 -1 -4 -23z"/>
<path d="M4273 2763 c9 -2 25 -2 35 0 9 3 1 5 -18 5 -19 0 -27 -2 -17 -5z"/>
<path d="M3568 2753 c18 -2 45 -2 60 0 15 2 0 4 -33 4 -33 0 -45 -2 -27 -4z"/>
<path d="M1944 2786 c-19 -49 -56 -48 1191 -48 95 0 95 0 95 27 0 14 -5 25
-10 25 -6 0 -10 -7 -8 -16 3 -14 -62 -15 -625 -17 -594 -2 -628 -1 -623 15 5
23 -12 34 -20 14z"/>
<path d="M429 2668 c-3 -17 -3 -128 1 -128 3 0 4 -112 2 -250 l-3 -249 27 -7
c15 -4 290 -5 612 -2 524 5 587 7 597 22 14 18 20 463 7 483 -5 8 -55 13 -152
15 l-145 3 3 37 c2 21 1 47 -3 58 -6 20 -13 20 -476 20 -258 0 -469 -1 -470
-2z m921 -58 l0 -40 -373 0 c-206 0 -408 -3 -450 -6 l-76 -7 1 47 1 46 448 0
449 0 0 -40z m20 -314 l0 -236 -450 0 c-247 0 -452 0 -455 0 -2 0 -7 105 -10
233 l-5 232 460 4 460 4 0 -237z m285 -1 l0 -235 -132 0 -133 0 0 235 0 235
133 0 132 0 0 -235z"/>
<path d="M480 2605 c0 -13 53 -15 420 -15 393 0 420 1 420 18 0 14 -2 15 -10
2 -6 -10 -10 -11 -10 -2 0 9 -89 12 -410 12 -358 0 -410 -2 -410 -15z m508 -2
c-86 -2 -230 -2 -320 0 -90 1 -19 3 157 3 176 0 249 -2 163 -3z m245 0 c-13
-2 -35 -2 -50 0 -16 2 -5 4 22 4 28 0 40 -2 28 -4z"/>
<path d="M480 2290 l0 -209 430 -1 430 0 0 210 c0 115 -3 210 -8 210 -4 0 -6
-89 -4 -199 l4 -198 -24 -5 c-39 -9 -555 -10 -691 -3 l-127 8 2 191 3 191 395
3 c217 1 402 4 410 6 8 2 -173 4 -402 5 l-418 1 0 -210z"/>
<path d="M733 2103 c20 -2 54 -2 75 0 20 2 3 4 -38 4 -41 0 -58 -2 -37 -4z"/>
<path d="M978 2103 c12 -2 32 -2 45 0 12 2 2 4 -23 4 -25 0 -35 -2 -22 -4z"/>
<path d="M1158 2103 c7 -3 16 -2 19 1 4 3 -2 6 -13 5 -11 0 -14 -3 -6 -6z"/>
<path d="M1947 2664 c-4 -4 -7 -148 -7 -321 l0 -313 645 0 646 0 -2 303 c0
167 -4 309 -8 315 -9 15 -619 22 -625 7 -3 -5 -5 -5 -5 2 -1 9 -80 12 -319 13
-175 0 -321 -3 -325 -6z m613 -54 l0 -30 -300 0 -300 0 0 30 0 30 300 0 300 0
0 -30z m650 5 c0 -19 -5 -25 -22 -24 -13 0 -17 3 -10 6 40 16 -29 20 -298 16
-268 -4 -300 -3 -300 11 0 14 35 16 315 16 l315 0 0 -25z m-297 -22 c-40 -2
-106 -2 -145 0 -40 1 -8 3 72 3 80 0 112 -2 73 -3z m235 2 c-9 -9 -158 -13
-158 -4 0 5 37 9 82 9 45 0 79 -2 76 -5z m62 -290 l0 -255 -622 2 -623 3 -3
253 -3 252 625 0 626 0 0 -255z"/>
<path d="M1990 2613 c0 -5 82 -7 182 -5 342 4 374 8 96 10 -153 1 -278 -1
-278 -5z"/>
<path d="M1990 2312 l0 -227 595 -3 595 -4 0 231 c0 162 -3 231 -11 231 -8 0
-10 -64 -8 -222 l4 -223 -572 0 c-375 0 -573 3 -573 10 0 6 -5 3 -10 -5 -6
-10 -10 58 -9 202 0 196 1 217 17 220 13 3 12 5 -5 10 l-23 6 0 -226z"/>
<path d="M3060 2530 c0 -6 16 -8 43 -4 58 9 59 14 4 14 -26 0 -47 -5 -47 -10z"/>
<path d="M2232 2523 c92 -2 245 -2 340 0 95 1 20 3 -167 3 -187 0 -265 -2
-173 -3z"/>
<path d="M2793 2523 c26 -2 68 -2 95 0 26 2 4 3 -48 3 -52 0 -74 -1 -47 -3z"/>
<path d="M2948 2523 c6 -2 18 -2 25 0 6 3 1 5 -13 5 -14 0 -19 -2 -12 -5z"/>
<path d="M3003 2523 c9 -2 23 -2 30 0 6 3 -1 5 -18 5 -16 0 -22 -2 -12 -5z"/>
<path d="M2013 2440 c0 -25 2 -35 4 -22 2 12 2 32 0 45 -2 12 -4 2 -4 -23z"/>
<path d="M2012 2340 c0 -14 2 -19 5 -12 2 6 2 18 0 25 -3 6 -5 1 -5 -13z"/>
<path d="M2013 2270 c0 -25 2 -35 4 -22 2 12 2 32 0 45 -2 12 -4 2 -4 -23z"/>
<path d="M3485 2358 c0 -197 4 -316 10 -320 6 -4 299 -8 653 -8 l642 0 -2 318
-3 317 -650 3 -650 2 0 -312z m1285 -8 l0 -300 -630 0 -630 0 0 300 0 300 630
0 630 0 0 -300z"/>
<path d="M3532 2615 c3 -3 273 -5 601 -5 471 0 596 -2 600 -12 3 -8 6 -6 6 5
1 16 -34 17 -606 17 -333 0 -604 -2 -601 -5z"/>
<path d="M3848 2593 c7 -3 16 -2 19 1 4 3 -2 6 -13 5 -11 0 -14 -3 -6 -6z"/>
<path d="M3534 2581 c-2 -2 -4 -8 -4 -13 0 -4 272 -8 605 -8 390 0 605 3 605
10 0 9 -1196 20 -1206 11z"/>
<path d="M3542 2313 l-2 -233 63 2 62 2 -57 3 -58 4 -3 227 -2 227 -3 -232z"/>
<path d="M4734 2400 c0 -80 2 -112 3 -72 2 39 2 105 0 145 -1 39 -3 7 -3 -73z"/>
<path d="M4728 2165 c3 -49 6 -92 8 -94 7 -8 2 124 -6 154 -4 17 -5 -10 -2
-60z"/>
<path d="M3938 2083 c133 -2 351 -2 485 0 133 1 24 2 -243 2 -267 0 -376 -1
-242 -2z"/>
<path d="M4685 2080 c27 -12 35 -12 35 0 0 6 -12 10 -27 9 -25 0 -26 -1 -8 -9z"/>
<path d="M770 1943 c0 -6 -61 -9 -157 -8 -87 0 -163 -3 -169 -7 -11 -8 -10
-57 1 -85 3 -10 60 -13 238 -13 196 0 237 2 247 15 7 8 9 15 4 15 -4 0 -3 5 3
11 7 7 8 20 3 34 -6 14 -4 27 3 36 10 11 9 11 -3 2 -19 -14 -140 -14 -157 0
-9 6 -13 6 -13 0z m-271 -45 c8 -20 10 -21 16 -5 8 20 31 23 38 5 4 -10 8 -10
15 1 11 16 42 8 42 -11 0 -7 -4 -19 -9 -27 -8 -12 -12 -12 -25 -2 -13 11 -19
11 -31 1 -12 -10 -18 -10 -30 0 -12 10 -19 10 -27 2 -20 -20 -26 -14 -23 21 3
39 3 37 15 37 6 0 15 -10 19 -22z m419 -17 c-3 -28 -37 -38 -46 -12 -3 9 2 11
19 7 13 -3 18 -3 10 0 -11 5 -11 8 0 16 10 6 7 7 -8 3 -24 -7 -33 10 -10 18
23 8 38 -5 35 -32z m-247 -1 c7 -25 7 -25 8 3 1 23 5 28 24 25 15 -2 21 -9 19
-20 -2 -10 2 -18 8 -18 5 0 10 9 10 20 0 15 7 20 25 20 20 0 24 -5 22 -22 -1
-13 -5 -25 -9 -28 -6 -5 -118 -5 -150 -1 -5 1 -8 13 -8 27 0 20 4 25 22 22 14
-2 25 -13 29 -28z m189 20 c0 -5 -7 -7 -15 -4 -11 5 -13 2 -9 -10 3 -9 10 -16
15 -16 5 0 9 -4 9 -9 0 -5 -12 -8 -27 -7 -49 5 -40 55 10 56 9 0 17 -4 17 -10z"/>
<path d="M520 1880 c0 -5 7 -10 15 -10 8 0 15 5 15 10 0 6 -7 10 -15 10 -8 0
-15 -4 -15 -10z"/>
<path d="M634 1889 c-3 -6 -1 -16 5 -22 8 -8 11 -5 11 11 0 24 -5 28 -16 11z"/>
<path d="M694 1889 c-3 -6 -1 -16 5 -22 8 -8 11 -5 11 11 0 24 -5 28 -16 11z"/>
<path d="M754 1889 c-3 -6 -1 -16 5 -22 8 -8 11 -5 11 11 0 24 -5 28 -16 11z"/>
<path d="M2000 1930 c-40 -4 -45 -8 -48 -32 -2 -15 2 -36 7 -47 11 -19 22 -20
270 -21 255 0 259 0 264 21 3 11 10 18 16 15 6 -4 3 7 -7 24 -25 43 -9 41
-285 40 -88 0 -162 1 -165 3 -4 1 -27 0 -52 -3z m21 -50 c4 -14 7 -18 8 -9 1
19 29 45 38 35 4 -3 -2 -13 -13 -21 -10 -8 -14 -15 -8 -15 6 0 17 6 23 14 6 8
21 16 31 19 17 4 20 0 20 -24 0 -16 -5 -29 -11 -29 -6 0 -8 9 -4 20 4 11 2 20
-4 20 -6 0 -11 -7 -11 -16 0 -8 -4 -12 -10 -9 -5 3 -10 2 -10 -3 0 -4 -21 -8
-47 -7 -48 1 -53 7 -44 51 3 16 36 -4 42 -26z m154 -1 c0 -15 -7 -25 -18 -27
-22 -4 -33 24 -17 43 18 21 35 13 35 -16z m55 22 c0 -5 -6 -12 -12 -15 -10 -5
-10 -7 0 -12 16 -8 15 -24 -2 -24 -17 0 -28 24 -20 45 7 16 34 21 34 6z m45
-1 c4 -7 13 -6 26 1 15 7 24 7 35 -2 16 -13 19 -39 4 -39 -5 0 -10 7 -10 15 0
8 -5 15 -11 15 -6 0 -8 -9 -4 -20 5 -15 2 -20 -10 -20 -12 0 -15 5 -11 18 6
16 5 16 -8 0 -26 -35 -64 -14 -44 25 10 19 24 22 33 7z m122 -1 c8 -8 13 -8
17 0 16 25 41 -4 30 -34 -8 -21 -34 -19 -34 3 -1 16 -1 16 -11 0 -16 -29 -39
-22 -39 12 0 31 17 39 37 19z m78 -21 c-1 -12 -6 -23 -11 -25 -5 -2 -9 9 -8
24 3 36 3 35 12 29 5 -3 8 -15 7 -28z"/>
<path d="M1990 1884 c0 -8 5 -12 10 -9 6 4 8 11 5 16 -9 14 -15 11 -15 -7z"/>
<path d="M2150 1875 c0 -8 2 -15 4 -15 2 0 6 7 10 15 3 8 1 15 -4 15 -6 0 -10
-7 -10 -15z"/>
<path d="M2250 1880 c0 -5 5 -10 10 -10 6 0 10 5 10 10 0 6 -4 10 -10 10 -5 0
-10 -4 -10 -10z"/>
<path d="M2370 1880 c0 -5 5 -10 10 -10 6 0 10 5 10 10 0 6 -4 10 -10 10 -5 0
-10 -4 -10 -10z"/>
<path d="M3758 1935 c-3 -3 -63 -6 -134 -8 l-129 -2 0 -47 c0 -55 -16 -50 165
-50 359 1 380 2 380 18 0 8 4 13 9 10 5 -3 11 1 15 9 3 8 0 14 -7 12 -7 -1
-11 6 -9 15 4 28 -27 36 -151 37 -65 0 -122 3 -126 6 -5 2 -10 2 -13 0z m-208
-35 c0 -5 -5 -10 -11 -10 -6 0 -8 -9 -4 -20 3 -11 2 -20 -3 -20 -11 0 -22 46
-14 55 9 9 32 5 32 -5z m185 0 c13 22 35 9 35 -20 l0 -29 -57 2 c-52 2 -58 4
-61 24 -3 17 0 21 12 17 9 -3 16 -1 16 5 0 7 8 8 25 1 15 -6 26 -6 30 0z m100
-10 c8 -24 -1 -40 -21 -40 -17 0 -28 24 -20 45 8 22 34 18 41 -5z m61 11 c18
15 34 2 34 -27 0 -19 -5 -24 -25 -24 -19 0 -25 5 -25 21 0 15 -5 19 -15 15 -8
-3 -15 -2 -15 3 0 15 14 21 24 11 6 -6 14 -6 22 1z m92 -23 c3 -24 0 -28 -22
-28 -22 0 -26 4 -26 31 0 26 3 30 23 27 16 -2 23 -11 25 -30z m38 16 c-3 -9
-6 -22 -6 -30 0 -8 -4 -14 -10 -14 -11 0 -14 43 -3 53 12 13 25 7 19 -9z
m-421 -19 c0 -11 -8 -21 -17 -23 -12 -2 -18 3 -18 15 0 14 -2 15 -9 4 -5 -8
-11 -9 -15 -3 -8 13 23 33 44 29 8 -1 15 -11 15 -22z m33 0 c0 -14 -6 -25 -13
-25 -8 0 -10 9 -7 25 2 14 8 25 12 25 4 0 8 -11 8 -25z m232 -15 c0 -5 -4 -10
-10 -10 -5 0 -10 5 -10 10 0 6 5 10 10 10 6 0 10 -4 10 -10z"/>
<path d="M3690 1875 c0 -8 4 -15 10 -15 5 0 7 7 4 15 -4 8 -8 15 -10 15 -2 0
-4 -7 -4 -15z"/>
<path d="M3737 1884 c-8 -8 1 -24 12 -24 4 0 8 7 8 15 0 16 -9 20 -20 9z"/>
<path d="M3805 1880 c-3 -5 -1 -10 4 -10 6 0 11 5 11 10 0 6 -2 10 -4 10 -3 0
-8 -4 -11 -10z"/>
<path d="M3900 1875 c0 -8 2 -15 4 -15 2 0 6 7 10 15 3 8 1 15 -4 15 -6 0 -10
-7 -10 -15z"/>
<path d="M3954 1889 c-3 -6 -1 -16 5 -22 8 -8 11 -5 11 11 0 24 -5 28 -16 11z"/>
<path d="M3580 1879 c0 -5 5 -7 10 -4 6 3 10 8 10 11 0 2 -4 4 -10 4 -5 0 -10
-5 -10 -11z"/>
<path d="M487 1782 c-26 -2 -45 -7 -42 -13 4 -5 2 -9 -3 -9 -9 0 -9 -26 2 -50
6 -13 77 -17 192 -11 18 1 23 38 8 59 -15 21 -66 33 -86 21 -7 -4 -15 -5 -18
-1 -3 4 -26 6 -53 4z m53 -35 c0 -4 6 -5 13 0 24 15 75 11 80 -7 4 -16 -4 -18
-62 -16 -36 1 -72 5 -78 9 -8 5 -13 4 -13 -2 0 -6 -4 -11 -10 -11 -5 0 -10 8
-10 19 0 15 7 18 40 17 22 0 40 -4 40 -9z"/>
<path d="M1946 1771 c-3 -4 -1 -13 4 -21 5 -8 5 -21 -1 -31 -12 -23 -4 -26 51
-24 25 2 55 -1 68 -6 13 -5 22 -5 22 1 0 6 8 10 18 10 15 0 15 -2 2 -11 -12
-8 -10 -10 9 -5 14 3 31 0 38 -6 10 -8 12 -7 8 3 -4 11 5 15 36 15 29 1 37 -1
28 -8 -11 -7 -9 -8 4 -4 10 3 28 6 39 6 35 0 10 14 -30 17 -110 9 -138 9 -149
1 -7 -6 -16 -4 -24 5 -10 11 -22 12 -46 5 -18 -5 -38 -6 -43 -3 -13 8 -13 45
0 45 6 0 10 -7 10 -16 0 -13 3 -14 13 -5 8 6 17 8 20 4 4 -3 14 0 23 7 12 11
17 11 23 1 5 -7 28 -12 62 -11 30 1 97 -1 149 -5 52 -4 92 -4 88 0 -6 7 -53
13 -111 14 -16 1 -26 5 -22 11 4 6 -2 7 -17 1 -13 -5 -33 -5 -45 0 -13 5 -23
5 -23 0 0 -5 -17 -4 -37 1 -34 9 -52 11 -95 8 -7 0 -25 1 -40 4 -16 2 -30 1
-32 -3z"/>
<path d="M3493 1759 c-7 -7 -9 -19 -3 -34 5 -13 6 -26 2 -31 -4 -4 -1 -4 6 0
7 4 12 2 12 -5 0 -10 3 -10 11 -2 7 7 22 8 38 4 14 -5 33 -6 41 -3 18 5 40 31
40 46 0 6 -6 4 -13 -4 -22 -27 -87 -20 -87 10 0 10 186 4 305 -9 124 -15 130
-11 20 14 -85 19 -357 30 -372 14z m40 -23 c6 -15 -1 -26 -15 -26 -4 0 -8 9
-8 20 0 23 15 27 23 6z"/>
<path d="M3654 1716 c-18 -20 -28 -40 -16 -32 7 4 12 1 13 -6 1 -7 5 -2 9 12
5 15 8 18 9 9 1 -9 8 -20 17 -23 9 -4 13 -2 8 5 -4 8 1 9 15 4 11 -3 21 -2 21
3 0 12 39 4 59 -12 11 -8 13 -8 8 1 -5 8 3 11 31 8 21 -2 45 1 53 6 11 7 10 9
-6 10 -11 1 -31 3 -45 4 -66 7 -118 8 -128 1 -6 -3 -17 0 -24 7 -10 10 -16 11
-24 3z"/>
<path d="M3896 1681 c-3 -4 6 -6 19 -3 14 2 25 6 25 8 0 8 -39 4 -44 -5z"/>
<path d="M1944 1581 c-2 -2 -4 -249 -4 -548 l0 -543 33 -2 c51 -2 55 -3 64
-12 4 -5 -9 -6 -31 -3 -23 4 -45 2 -53 -5 -17 -14 -17 -53 1 -67 17 -14 224
-18 236 -4 8 8 13 37 11 61 -1 8 -13 12 -34 10 -17 -1 -40 2 -49 8 -10 6 188
8 537 7 305 0 559 -4 565 -8 6 -4 14 -4 17 -1 4 3 2 6 -3 6 -5 0 -9 222 -9
547 l0 548 -638 5 c-351 3 -641 3 -643 1z m1264 -551 l2 -520 -625 0 -625 0 0
518 c0 285 2 521 4 523 2 2 283 3 623 2 l618 -2 3 -521z m-1118 -550 c0 -5 -4
-10 -10 -10 -5 0 -10 5 -10 10 0 6 5 10 10 10 6 0 10 -4 10 -10z m-17 -44 c5
-7 11 -5 18 7 6 9 15 15 20 12 5 -4 7 -10 4 -15 -3 -4 6 -7 20 -6 14 0 27 7
30 14 7 18 24 6 21 -16 -3 -15 -17 -17 -109 -19 -59 -2 -107 1 -107 6 0 5 -3
16 -6 25 -5 13 2 14 48 9 29 -3 56 -11 61 -17z"/>
<path d="M1990 1050 c0 -420 2 -480 15 -480 13 0 15 24 13 163 l-2 162 -6
-160 c-3 -93 -6 37 -7 309 l-1 468 24 -5 c13 -2 24 -1 24 3 0 4 19 4 43 -1 23
-4 275 -7 560 -6 l519 2 -9 -125 c-8 -130 -7 -766 3 -811 l5 -26 -513 -1
c-282 -1 -548 2 -590 6 -60 6 -78 5 -78 -5 0 -10 122 -12 596 -13 l597 0 -6
37 c-8 48 -9 654 -2 831 l6 132 -596 0 -595 0 0 -480z m1053 463 c-35 -2 -91
-2 -125 0 -35 2 -7 3 62 3 69 0 97 -1 63 -3z"/>
<path d="M3151 1474 c0 -11 3 -14 6 -6 3 7 2 16 -1 19 -3 4 -6 -2 -5 -13z"/>
<path d="M2014 1305 c0 -93 2 -133 3 -88 2 45 2 122 0 170 -1 48 -3 12 -3 -82z"/>
<path d="M2183 1463 c15 -2 39 -2 55 0 15 2 2 4 -28 4 -30 0 -43 -2 -27 -4z"/>
<path d="M3130 570 c0 -5 5 -10 10 -10 6 0 10 5 10 10 0 6 -4 10 -10 10 -5 0
-10 -4 -10 -10z"/>
<path d="M432 1039 l3 -544 35 -3 c19 -2 40 -8 45 -13 7 -7 0 -8 -19 -5 -16 3
-36 0 -45 -7 -19 -14 -21 -51 -5 -67 10 -10 243 -20 242 -10 0 3 1 7 2 10 9
24 6 48 -7 62 -18 20 -43 24 -43 7 0 -8 -4 -8 -14 0 -8 7 -30 11 -50 9 -19 -1
-38 1 -42 5 -13 13 805 8 829 -4 14 -8 22 -9 25 -1 2 6 54 11 140 11 95 1 139
5 144 14 10 17 8 1040 -2 1057 -7 12 -116 15 -624 18 l-616 4 2 -543z m946 4
c2 -300 7 -509 13 -511 48 -18 -48 -22 -466 -22 l-475 0 4 523 c2 287 4 522 5
522 0 0 207 -1 458 -2 l457 -3 4 -507z m272 -13 c1 -289 -2 -524 -5 -522 -3 1
-56 2 -117 2 l-113 0 5 510 c3 336 2 510 -5 511 -5 1 -13 1 -17 0 -5 0 -8 3
-8 9 0 7 176 18 253 15 4 0 7 -236 7 -525z m-253 348 c-3 -8 -6 -5 -6 6 -1 11
2 17 5 13 3 -3 4 -12 1 -19z m0 -685 c-1 -43 -3 -8 -3 77 0 85 2 120 3 78 2
-43 2 -113 0 -155z m-860 -247 c18 -3 35 -1 39 5 3 6 10 6 17 1 16 -12 49 -12
64 0 14 11 31 -17 18 -30 -3 -4 -54 -8 -111 -8 -103 -2 -104 -1 -104 22 0 20
4 24 23 20 12 -3 36 -7 54 -10z"/>
<path d="M480 1032 l0 -499 435 1 435 1 -6 205 c-4 113 -8 207 -10 209 -2 2
-4 -88 -4 -200 l0 -204 -420 0 -420 0 0 489 c0 458 1 488 17 475 11 -9 14 -10
9 -2 -5 10 81 12 406 12 l413 -1 -3 -211 c-2 -116 -1 -209 1 -207 2 3 7 101
10 218 l7 212 -435 0 -435 0 0 -498z"/>
<path d="M903 1503 c37 -2 97 -2 135 0 37 2 6 3 -68 3 -74 0 -105 -1 -67 -3z"/>
<path d="M1148 1503 c7 -3 16 -2 19 1 4 3 -2 6 -13 5 -11 0 -14 -3 -6 -6z"/>
<path d="M1193 1503 c9 -2 25 -2 35 0 9 3 1 5 -18 5 -19 0 -27 -2 -17 -5z"/>
<path d="M748 1493 c12 -2 30 -2 40 0 9 3 -1 5 -23 4 -22 0 -30 -2 -17 -4z"/>
<path d="M758 1463 c7 -3 16 -2 19 1 4 3 -2 6 -13 5 -11 0 -14 -3 -6 -6z"/>
<path d="M3484 1564 c3 -8 6 -254 6 -545 0 -464 2 -529 15 -529 8 0 15 -5 15
-10 0 -6 -8 -10 -17 -8 -10 2 -17 -3 -15 -10 1 -6 3 -27 5 -45 l2 -32 116 1
c64 1 122 4 128 8 6 4 11 16 11 26 0 10 6 21 13 23 7 3 5 6 -5 6 -10 1 -18 6
-18 11 0 6 -6 10 -14 10 -8 0 -17 4 -20 8 -3 5 239 8 537 8 l542 -1 0 545 0
545 -654 3 c-593 2 -653 1 -647 -14z m1286 -531 l0 -523 -630 0 -630 0 0 523
0 522 630 0 630 0 0 -522z m-1183 -556 c3 -4 -5 -7 -20 -7 -14 0 -28 4 -31 8
-5 9 41 8 51 -1z m93 3 c12 -8 9 -10 -13 -10 -16 0 -26 4 -22 10 8 12 16 12
35 0z m-57 -32 c40 1 47 -2 47 -19 0 -17 -7 -19 -80 -19 -79 0 -80 0 -80 26 0
24 2 25 33 18 17 -4 53 -7 80 -6z m107 -19 c0 -14 -7 -19 -25 -19 -18 0 -25 5
-25 19 0 11 6 21 13 24 20 7 37 -4 37 -24z"/>
<path d="M3536 1343 c0 -104 1 -329 2 -500 l2 -313 603 0 603 0 -6 42 -5 43
-3 -37 -3 -36 -507 -1 c-279 -1 -544 2 -590 5 l-83 7 3 475 3 474 203 -1 c112
-1 211 -5 220 -7 13 -5 14 -4 4 4 -9 6 125 8 372 6 332 -3 386 -1 386 12 0 12
-83 14 -603 14 l-602 0 1 -187z m907 170 c-13 -2 -33 -2 -45 0 -13 2 -3 4 22
4 25 0 35 -2 23 -4z m225 0 c-16 -2 -40 -2 -55 0 -16 2 -3 4 27 4 30 0 43 -2
28 -4z"/>
<path d="M4018 1493 c6 -2 18 -2 25 0 6 3 1 5 -13 5 -14 0 -19 -2 -12 -5z"/>
<path d="M4073 1493 c9 -2 25 -2 35 0 9 3 1 5 -18 5 -19 0 -27 -2 -17 -5z"/>
<path d="M4734 1360 c0 -74 1 -105 3 -67 2 37 2 97 0 135 -2 37 -3 6 -3 -68z"/>
<path d="M3948 1463 c7 -3 16 -2 19 1 4 3 -2 6 -13 5 -11 0 -14 -3 -6 -6z"/>
<path d="M4393 1463 c9 -2 25 -2 35 0 9 3 1 5 -18 5 -19 0 -27 -2 -17 -5z"/>
<path d="M4713 1325 c0 -22 2 -30 4 -17 2 12 2 30 0 40 -3 9 -5 -1 -4 -23z"/>
<path d="M4703 1235 c0 -27 2 -38 4 -22 2 15 2 37 0 50 -2 12 -4 0 -4 -28z"/>
<path d="M4715 1090 c3 -5 8 -10 11 -10 2 0 4 5 4 10 0 6 -5 10 -11 10 -5 0
-7 -4 -4 -10z"/>
<path d="M4692 1065 c0 -16 2 -22 5 -12 2 9 2 23 0 30 -3 6 -5 -1 -5 -18z"/>
<path d="M4724 895 c0 -99 2 -138 3 -87 2 51 2 132 0 180 -1 48 -3 6 -3 -93z"/>
<path d="M4711 694 c0 -11 3 -14 6 -6 3 7 2 16 -1 19 -3 4 -6 -2 -5 -13z"/>
<path d="M4732 665 c0 -16 2 -22 5 -12 2 9 2 23 0 30 -3 6 -5 -1 -5 -18z"/>
<path d="M4713 600 c0 -25 2 -35 4 -22 2 12 2 32 0 45 -2 12 -4 2 -4 -23z"/>
<path d="M4048 563 c7 -3 16 -2 19 1 4 3 -2 6 -13 5 -11 0 -14 -3 -6 -6z"/>
<path d="M413 1310 c0 -36 2 -50 4 -32 2 17 2 47 0 65 -2 17 -4 3 -4 -33z"/>
<path d="M411 714 c0 -11 3 -14 6 -6 3 7 2 16 -1 19 -3 4 -6 -2 -5 -13z"/>
<path d="M2433 453 c9 -2 25 -2 35 0 9 3 1 5 -18 5 -19 0 -27 -2 -17 -5z"/>
<path d="M3953 453 c9 -2 23 -2 30 0 6 3 -1 5 -18 5 -16 0 -22 -2 -12 -5z"/>
<path d="M4208 453 c7 -3 16 -2 19 1 4 3 -2 6 -13 5 -11 0 -14 -3 -6 -6z"/>
</g>
</svg>
