<?xml version="1.0" standalone="no"?>
<!DOCTYPE svg PUBLIC "-//W3C//DTD SVG 20010904//EN"
 "http://www.w3.org/TR/2001/REC-SVG-20010904/DTD/svg10.dtd">
<svg version="1.0" xmlns="http://www.w3.org/2000/svg"
 width="512.000000pt" height="512.000000pt" viewBox="0 0 512.000000 512.000000"
 preserveAspectRatio="xMidYMid meet">
<metadata>
Created by potrace 1.16, written by Peter Selinger 2001-2019
</metadata>
<g transform="translate(0.000000,512.000000) scale(0.100000,-0.100000)"
fill="#000000" stroke="none">
<path d="M289 4788 c-15 -27 -7 -1364 8 -1379 5 -5 191 -10 428 -11 l420 -3 3
-88 3 -87 -456 0 -455 1 -3 -691 -2 -690 459 0 460 1 -3 -58 c-1 -32 -4 -59
-5 -60 -1 -2 -186 -3 -412 -4 -225 0 -419 -5 -431 -10 l-23 -8 0 -680 c0 -374
3 -686 6 -695 6 -14 78 -16 719 -16 621 0 714 2 725 15 18 22 178 22 186 0 5
-13 86 -15 644 -15 558 0 639 2 644 15 8 22 161 22 173 0 8 -13 95 -15 718
-13 l710 3 3 694 c2 549 0 696 -10 703 -7 4 -223 8 -480 8 l-468 0 0 44 c0 24
-3 52 -6 60 -6 15 41 16 520 14 l526 -3 0 695 0 695 -526 -3 c-480 -2 -526 -1
-520 14 3 8 6 49 6 90 l0 74 478 2 477 3 0 700 0 700 -711 3 c-705 2 -712 2
-717 -18 -5 -18 -13 -20 -87 -20 -73 0 -82 2 -87 20 -5 20 -14 20 -644 20
-419 0 -639 -3 -639 -10 0 -7 218 -10 635 -10 l635 0 0 -685 0 -685 -630 0
-630 0 0 678 0 677 -105 -2 -106 -2 1 -675 0 -676 -705 0 -705 0 -2 681 c-2
374 -1 683 1 685 2 2 323 4 713 4 470 0 707 3 703 10 -4 7 -253 10 -715 10
l-709 0 -12 -22z m4501 -683 l0 -685 -700 0 -700 0 0 685 0 685 700 0 700 0 0
-685z m-2888 -24 c2 -368 7 -673 11 -678 10 -9 1214 -17 1265 -8 l32 6 0 674
0 675 80 0 80 0 0 -674 0 -674 23 -6 c12 -3 115 -6 230 -6 l207 0 0 -83 c0
-51 5 -88 12 -95 9 -9 138 -12 520 -12 l508 0 0 -670 0 -670 -504 0 c-277 0
-511 -3 -520 -6 -12 -5 -16 -21 -16 -70 l0 -64 -227 -2 -228 -3 -3 -678 -2
-678 -78 3 -77 3 -3 670 c-1 368 -6 673 -10 677 -5 5 -296 8 -647 8 -497 0
-641 -3 -647 -13 -4 -6 -8 -312 -8 -679 l0 -668 -80 0 -80 0 -2 678 -3 677
-282 3 -282 2 -3 68 -3 67 -452 3 -453 2 0 670 0 670 445 0 444 0 12 22 c6 12
9 41 6 67 -3 25 -3 58 0 74 l5 27 268 0 c148 0 275 3 284 6 14 6 16 75 16 680
l0 674 80 0 80 0 2 -669z m-182 -3068 l0 -688 -707 3 -708 2 0 680 0 680 270
3 c149 1 467 3 708 5 l437 2 0 -687z m1470 0 l0 -688 -630 0 -630 0 0 688 0
687 630 0 630 0 0 -687z m1600 1 l0 -684 -700 -2 -700 -3 0 688 0 688 700 -1
700 -2 0 -684z"/>
<path d="M3600 4120 l0 -440 505 0 505 0 0 424 c0 233 3 431 6 440 6 14 -43
16 -505 16 l-511 0 0 -440z m997 353 c-4 -38 -7 -227 -7 -420 l0 -353 -485 0
-485 0 0 420 0 420 491 0 492 0 -6 -67z"/>
<path d="M1485 3070 c-11 -4 -254 -9 -539 -9 -286 -1 -522 -4 -525 -7 -12 -11
-12 -983 -1 -1004 11 -20 20 -20 663 -18 l652 3 0 520 0 520 -115 2 c-63 1
-124 -2 -135 -7z m235 -514 l0 -502 -640 1 -640 0 0 493 0 492 535 0 c361 0
535 3 535 10 0 7 39 10 105 9 l105 -1 0 -502z"/>
<path d="M1490 2549 c0 -286 4 -468 9 -464 14 8 15 935 1 935 -7 0 -10 -153
-10 -471z"/>
<path d="M3375 3068 c-3 -7 -4 -242 -3 -523 l3 -510 642 -3 c402 -1 651 2 667
8 l26 10 0 489 c0 269 -3 496 -6 505 -6 14 -63 16 -544 16 -349 0 -541 4 -545
10 -10 15 -234 13 -240 -2z m680 -26 l630 -4 0 -489 0 -489 -490 0 c-269 0
-561 -3 -647 -7 l-158 -6 0 508 c0 479 1 507 18 499 9 -4 301 -9 647 -12z"/>
<path d="M3600 2550 c0 -307 3 -470 10 -470 7 0 10 163 10 470 0 307 -3 470
-10 470 -7 0 -10 -163 -10 -470z"/>
<path d="M2327 2913 c-4 -3 -7 -72 -7 -153 l0 -146 -42 -10 -43 -9 -3 -54 c-5
-84 2 -101 42 -101 40 0 45 -13 42 -103 -4 -99 2 -107 77 -107 36 0 68 5 75
12 8 8 12 46 12 105 l0 93 193 2 192 3 3 73 c2 52 -1 73 -10 77 -11 3 -257 14
-350 15 l-28 0 0 143 c0 98 -4 147 -12 155 -13 13 -130 17 -141 5z m127 -177
l-2 -156 197 0 196 0 -2 -57 -1 -58 -194 0 -193 0 -1 -105 -1 -105 -57 -3 -56
-3 0 106 0 105 -39 0 -39 0 -4 60 -3 60 43 0 42 0 0 158 0 157 58 -2 57 -1 -1
-156z"/>
<path d="M490 1450 c0 -3 -1 -203 -2 -445 l-3 -440 513 0 512 0 0 448 0 448
-510 -3 c-280 -2 -510 -5 -510 -8z m1000 -440 l0 -429 -492 3 -493 3 -2 421
-3 421 93 4 c50 1 273 4 495 5 l402 2 0 -430z"/>
<path d="M2150 1453 c0 -2 0 -201 0 -443 l0 -441 412 -2 413 -2 -2 445 -3 445
-410 0 c-225 0 -410 -1 -410 -2z m805 -443 l0 -425 -392 0 -393 0 0 427 0 427
393 -2 392 -2 0 -425z"/>
<path d="M3600 1010 l0 -445 505 0 505 0 0 432 c0 237 3 439 6 448 6 16 -29
17 -505 13 l-511 -3 0 -445z m992 423 c2 -4 2 -197 0 -428 l-4 -420 -484 0
-484 0 0 427 0 427 484 1 c267 0 486 -3 488 -7z"/>
<path d="M485 4120 l0 -440 513 0 512 0 0 440 0 440 -512 0 -513 0 0 -440z
m1005 0 l0 -420 -495 0 -495 0 1 413 c1 226 4 415 6 420 2 4 224 7 494 7 l489
0 0 -420z"/>
<path d="M2150 4120 l0 -440 413 0 412 0 0 440 0 440 -412 0 -413 0 0 -440z
m808 -2 l2 -418 -395 0 -395 0 0 420 0 420 393 -2 392 -3 3 -417z"/>
<path d="M4883 1755 c0 -38 2 -53 4 -32 2 20 2 52 0 70 -2 17 -4 1 -4 -38z"/>
</g>
</svg>
