<?xml version="1.0" standalone="no"?>
<!DOCTYPE svg PUBLIC "-//W3C//DTD SVG 20010904//EN"
 "http://www.w3.org/TR/2001/REC-SVG-20010904/DTD/svg10.dtd">
<svg version="1.0" xmlns="http://www.w3.org/2000/svg"
 width="512.000000pt" height="512.000000pt" viewBox="0 0 512.000000 512.000000"
 preserveAspectRatio="xMidYMid meet">
<metadata>
Created by potrace 1.16, written by Peter Selinger 2001-2019
</metadata>
<g transform="translate(0.000000,512.000000) scale(0.100000,-0.100000)"
fill="#000000" stroke="none">
<path d="M1880 4519 c-52 -48 -104 -96 -114 -108 -19 -21 -22 -21 -487 -21
-257 0 -474 -3 -483 -6 -15 -6 -16 -172 -15 -1793 1 -982 4 -1797 8 -1811 5
-19 14 -26 39 -28 l32 -3 0 -109 c0 -62 4 -111 10 -115 6 -4 10 36 10 112 l0
118 438 -3 437 -3 123 -119 c67 -66 119 -120 114 -121 -4 0 -244 0 -534 1
-357 1 -528 -2 -533 -10 -4 -7 160 -10 534 -10 349 0 542 4 546 10 4 6 207 10
573 11 312 1 577 4 589 7 12 4 73 57 135 117 l113 110 468 5 c401 4 469 7 477
20 11 18 12 3278 1 3415 -5 50 -9 -699 -9 -1662 l-2 -1753 -473 0 -472 0 -120
-120 -120 -120 -581 0 -581 0 -117 120 -118 120 -484 0 -484 0 0 1800 0 1800
477 0 476 0 61 58 c34 31 86 80 116 107 l55 50 594 -2 593 -3 113 -105 112
-105 471 0 471 0 3 -42 c2 -34 7 -43 25 -48 12 -3 37 -20 57 -38 20 -18 36
-28 36 -23 0 6 -22 29 -50 53 -36 31 -50 50 -50 68 0 15 -5 31 -12 38 -9 9
-129 12 -477 12 l-466 1 -110 104 c-60 58 -117 105 -125 105 -8 0 -280 1 -605
3 l-590 2 -95 -86z"/>
<path d="M2353 4553 c15 -2 37 -2 50 0 12 2 0 4 -28 4 -27 0 -38 -2 -22 -4z"/>
<path d="M2563 4553 c48 -2 126 -2 175 0 48 1 8 3 -88 3 -96 0 -136 -2 -87 -3z"/>
<path d="M2858 4553 c12 -2 30 -2 40 0 9 3 -1 5 -23 4 -22 0 -30 -2 -17 -4z"/>
<path d="M2988 4553 c23 -2 59 -2 80 0 20 2 1 4 -43 4 -44 0 -61 -2 -37 -4z"/>
<path d="M4480 4181 c0 -6 4 -13 10 -16 6 -3 7 1 4 9 -7 18 -14 21 -14 7z"/>
<path d="M1293 4098 c-3 -97 -8 -115 -38 -122 -34 -9 -31 -30 10 -74 l35 -37
31 35 c38 44 159 240 159 257 0 10 -25 13 -97 13 l-98 0 -2 -72z m167 45 c0
-5 -10 -24 -22 -43 -15 -24 -22 -30 -26 -20 -8 28 -32 39 -63 30 -26 -8 -29
-6 -29 16 0 23 3 24 70 24 39 0 70 -3 70 -7z m-67 -75 c4 -27 -3 -45 -40 -101
-43 -65 -46 -67 -67 -54 -26 17 -34 47 -12 47 20 0 36 31 36 69 0 30 13 41 25
21 3 -5 18 -10 33 -9 l27 1 -27 10 c-39 14 -37 48 3 48 11 0 18 -10 22 -32z"/>
<path d="M3620 4162 c0 -15 138 -229 188 -292 4 -6 82 81 82 92 0 4 -9 8 -20
8 -28 0 -40 37 -40 126 l0 74 -105 0 c-58 0 -105 -4 -105 -8z m191 -95 c3 -64
8 -88 22 -102 18 -17 18 -19 -2 -38 -11 -12 -22 -19 -24 -16 -33 42 -94 139
-87 139 4 0 10 -5 12 -12 3 -7 14 -9 31 -4 23 5 27 12 27 40 0 30 -4 34 -30
38 -34 5 -50 -7 -50 -36 -1 -21 -1 -21 -16 -1 -9 11 -22 32 -30 48 l-15 27 80
0 79 0 3 -83z m-42 24 c19 -12 6 -43 -16 -39 -21 4 -31 48 -11 48 7 0 19 -4
27 -9z"/>
<path d="M996 4135 c-25 -25 -21 -90 6 -109 12 -9 31 -16 41 -16 24 0 67 44
67 68 0 49 -81 89 -114 57z m83 -29 c17 -20 3 -63 -21 -70 -35 -9 -58 11 -58
49 0 33 2 35 34 35 18 0 39 -6 45 -14z"/>
<path d="M4060 4137 c-57 -29 -44 -117 18 -117 43 0 66 22 66 64 0 53 -37 77
-84 53z m58 -56 c-3 -31 -7 -36 -30 -39 -49 -6 -61 60 -14 78 34 12 47 1 44
-39z"/>
<path d="M4139 4013 c-13 -16 -12 -17 4 -4 9 7 17 15 17 17 0 8 -8 3 -21 -13z"/>
<path d="M2490 3983 c-66 -8 -161 -33 -243 -65 -45 -17 -84 -33 -86 -35 -6 -4
19 -120 50 -227 16 -56 29 -106 29 -113 0 -12 -67 -49 -75 -42 -7 8 -75 240
-81 279 l-6 39 -60 -37 c-79 -49 -250 -227 -320 -332 -125 -188 -189 -340
-222 -530 -17 -90 -19 -211 -4 -150 3 14 13 70 22 125 41 272 174 528 388 746
81 83 166 146 178 133 4 -5 13 -31 19 -59 22 -93 93 -309 137 -417 24 -59 44
-114 44 -122 0 -8 14 -25 31 -38 17 -13 54 -44 82 -69 68 -60 107 -89 119 -89
15 0 -120 124 -164 152 -21 13 -40 32 -44 43 -3 11 -28 76 -54 145 -68 179
-67 163 -19 178 23 7 42 12 43 10 2 -2 26 -61 55 -133 29 -71 58 -137 64 -145
7 -9 47 -44 90 -79 42 -35 77 -67 77 -72 0 -4 -9 -24 -21 -43 -12 -20 -17 -36
-12 -36 13 0 53 56 53 74 0 14 -101 113 -145 142 -22 14 -41 53 -118 244 -37
90 -114 358 -117 402 0 11 85 46 180 75 78 24 101 26 270 27 162 1 195 -2 266
-21 201 -56 345 -137 483 -273 148 -145 204 -228 285 -424 23 -56 65 -214 58
-220 -3 -3 -16 -6 -28 -6 -13 0 -50 -12 -81 -27 -67 -30 -87 -39 -127 -53 -34
-12 -208 -113 -228 -132 -7 -7 -39 -31 -70 -52 -63 -43 -368 -309 -381 -333
-16 -27 23 2 113 83 191 172 340 288 469 363 73 43 295 141 320 141 53 0 31
-26 -98 -115 -148 -103 -252 -182 -330 -254 -79 -73 -106 -110 -56 -77 13 9
31 16 40 16 8 0 15 8 15 18 0 10 24 39 54 65 76 66 164 137 170 137 8 0 99 63
118 82 10 10 21 18 26 18 4 0 22 14 41 30 40 35 51 37 52 10 1 -11 3 -24 4
-30 1 -5 3 -35 4 -66 1 -37 5 -53 12 -48 12 7 5 135 -12 219 -33 161 -116 362
-198 483 -91 135 -253 281 -404 365 -84 48 -251 103 -350 116 -75 11 -233 12
-307 4z"/>
<path d="M2011 3954 c0 -11 3 -14 6 -6 3 7 2 16 -1 19 -3 4 -6 -2 -5 -13z"/>
<path d="M977 3840 c-1 -3 0 -70 3 -149 l5 -143 98 100 c91 95 111 122 87 122
-5 0 -10 6 -10 13 0 6 -7 21 -16 32 -12 16 -30 21 -90 25 -42 3 -77 3 -77 0z
m145 -37 c33 -39 30 -51 -39 -123 -36 -39 -70 -70 -74 -70 -5 0 -9 47 -9 105
l0 105 53 0 c39 0 58 -5 69 -17z"/>
<path d="M1027 3784 c-13 -14 -7 -53 11 -62 10 -6 27 -6 40 -1 18 7 23 15 20
36 -2 23 -9 29 -33 31 -17 2 -34 0 -38 -4z m53 -29 c0 -18 -5 -25 -20 -25 -15
0 -20 7 -20 25 0 18 5 25 20 25 15 0 20 -7 20 -25z"/>
<path d="M4065 3843 l-80 -4 -24 -45 -24 -45 99 -100 c54 -54 101 -99 104 -99
3 0 7 68 8 150 2 83 2 149 0 148 -2 -1 -39 -4 -83 -5z m65 -87 c0 -35 -3 -84
-6 -109 l-7 -47 -73 75 c-41 42 -74 78 -74 81 0 3 7 18 15 34 15 29 19 30 80
30 l65 0 0 -64z"/>
<path d="M4033 3778 c-23 -27 -19 -52 9 -62 35 -12 60 7 56 43 -2 20 -9 27
-29 29 -14 2 -31 -3 -36 -10z m47 -29 c0 -12 -7 -19 -19 -19 -28 0 -37 21 -16
36 22 16 35 10 35 -17z"/>
<path d="M1320 3810 c-13 -9 -13 -11 0 -20 15 -10 25 0 18 20 -2 6 -8 6 -18 0z"/>
<path d="M4511 3564 c0 -11 3 -14 6 -6 3 7 2 16 -1 19 -3 4 -6 -2 -5 -13z"/>
<path d="M4511 3484 c0 -11 3 -14 6 -6 3 7 2 16 -1 19 -3 4 -6 -2 -5 -13z"/>
<path d="M4513 3425 c0 -22 2 -30 4 -17 2 12 2 30 0 40 -3 9 -5 -1 -4 -23z"/>
<path d="M2948 3429 c-38 -20 -82 -60 -153 -140 -72 -81 -90 -103 -134 -163
-25 -33 -60 -77 -79 -98 -19 -21 -32 -42 -28 -46 9 -9 57 44 161 179 123 158
210 242 275 267 47 18 50 21 25 21 -16 0 -47 -9 -67 -20z"/>
<path d="M3044 3422 c11 -18 -11 -52 -89 -132 -99 -103 -294 -333 -334 -394
-20 -31 73 68 154 164 39 46 118 134 178 197 105 112 127 150 95 169 -7 4 -8
3 -4 -4z"/>
<path d="M4514 2700 c0 -371 2 -605 5 -520 4 85 4 389 1 675 l-5 520 -1 -675z"/>
<path d="M1570 3018 c-11 -12 -20 -24 -21 -27 0 -3 -2 -14 -4 -24 -3 -17 6
-25 113 -99 120 -83 302 -258 268 -258 -23 0 -173 34 -201 46 -50 20 -165 3
-165 -26 0 -6 9 -6 26 0 33 13 119 13 142 0 9 -5 60 -16 112 -25 52 -8 106
-18 119 -21 22 -7 23 -5 11 17 -25 49 -246 254 -328 304 -45 28 -81 57 -82 66
0 28 36 52 67 44 34 -8 185 -100 268 -163 80 -61 282 -243 430 -386 101 -99
118 -119 109 -134 -19 -30 -48 -24 -160 32 -60 30 -134 66 -164 79 -30 14 -74
37 -97 52 -24 14 -43 23 -43 18 1 -14 93 -69 175 -103 44 -19 103 -48 130 -65
94 -59 153 -67 176 -24 17 33 -5 59 -248 290 -211 200 -358 314 -506 393 -80
42 -99 44 -127 14z"/>
<path d="M2520 2943 c0 -25 23 -62 44 -67 19 -5 20 -4 4 8 -10 7 -18 17 -18
23 0 14 -29 50 -30 36z"/>
<path d="M1324 2839 c-46 -23 -59 -65 -62 -207 -6 -221 29 -377 110 -489 19
-26 54 -86 78 -131 30 -58 51 -87 68 -93 30 -12 54 -8 59 7 2 7 -5 10 -20 7
-31 -6 -55 19 -92 95 -15 31 -45 82 -66 113 -92 136 -123 267 -117 484 4 140
14 176 55 194 20 9 30 8 54 -6 16 -10 29 -21 29 -25 0 -4 5 -8 10 -8 19 0 -9
39 -40 55 -33 17 -37 17 -66 4z"/>
<path d="M3812 2824 c-12 -8 -22 -22 -22 -31 0 -14 4 -13 23 5 28 26 34 27 55
5 25 -25 24 -336 -1 -440 -27 -112 -66 -207 -129 -311 -21 -34 -38 -66 -38
-70 0 -7 -54 -65 -99 -106 -12 -11 -21 -28 -21 -39 0 -40 -34 -90 -84 -122
-28 -18 -203 -183 -389 -367 -378 -376 -337 -348 -507 -347 -190 1 -147 -28
-507 338 -174 178 -332 343 -351 368 -19 24 -61 99 -93 166 -34 70 -57 108
-53 89 8 -47 67 -173 112 -241 39 -59 659 -697 698 -719 33 -18 246 -27 319
-13 l60 11 200 204 c266 270 458 452 523 494 53 33 91 90 92 135 0 10 20 37
45 59 79 72 199 301 235 449 26 104 38 362 21 426 -19 69 -47 87 -89 57z"/>
<path d="M1381 2772 c25 -42 45 -65 36 -42 -15 40 -33 70 -45 75 -8 3 -5 -10
9 -33z"/>
<path d="M3480 2659 c-25 -10 -74 -27 -110 -38 -36 -11 -54 -20 -40 -20 36 0
158 33 172 47 7 7 42 12 84 12 40 0 76 5 79 10 11 18 -136 10 -185 -11z"/>
<path d="M1441 2609 c1 -24 5 -71 9 -104 7 -47 7 -39 4 40 -5 98 -15 149 -13
64z"/>
<path d="M3633 2592 c-34 -34 -102 -176 -90 -188 8 -8 24 21 47 84 15 41 36
75 64 102 22 22 35 40 28 40 -6 0 -29 -17 -49 -38z"/>
<path d="M1564 2573 c7 -21 16 -56 20 -78 4 -22 18 -77 32 -121 20 -67 31 -88
64 -117 76 -70 119 -90 197 -95 l73 -5 0 33 c0 49 -26 93 -67 115 -56 30 -134
114 -171 183 l-33 62 31 -6 c57 -12 30 13 -30 28 -62 15 -75 12 -40 -10 11 -6
35 -42 54 -80 45 -88 96 -146 163 -184 52 -29 65 -46 79 -102 5 -23 4 -23 -48
-18 -96 9 -206 81 -239 157 -9 22 -27 84 -38 139 -12 54 -26 107 -32 117 -18
34 -29 20 -15 -18z"/>
<path d="M3445 2560 c-29 -7 -29 -8 -8 -15 l23 -7 -26 -47 c-37 -69 -98 -130
-160 -158 -30 -13 -54 -25 -54 -26 0 -1 -9 -27 -20 -57 -24 -65 -23 -63 -8
-58 7 3 17 24 23 49 10 40 16 47 70 76 71 37 129 98 173 181 42 79 43 76 -13
62z"/>
<path d="M1790 2488 c86 -137 124 -157 292 -158 64 0 124 3 133 6 11 5 -14 19
-77 45 -112 47 -142 63 -187 102 -43 37 -81 53 -148 61 l-53 7 40 -63z m108 0
c17 -13 52 -38 77 -56 25 -19 66 -40 90 -49 69 -23 57 -37 -29 -30 -93 7 -143
32 -190 95 -20 28 -36 52 -36 56 0 15 60 4 88 -16z"/>
<path d="M3230 2539 c-13 -6 -39 -21 -57 -35 -18 -13 -93 -54 -167 -90 -120
-59 -189 -104 -158 -104 6 0 14 5 17 11 4 6 67 39 140 74 160 76 333 187 225
144z"/>
<path d="M3355 2533 c-59 -7 -73 -13 -119 -51 -26 -22 -93 -58 -149 -82 -56
-23 -106 -46 -110 -50 -15 -14 175 -22 228 -10 79 18 114 47 165 137 32 56 35
64 23 62 -5 -1 -21 -4 -38 -6z m-25 -73 c-11 -22 -39 -52 -62 -67 -35 -24 -54
-28 -122 -31 l-81 -2 57 24 c51 22 145 79 158 96 7 9 31 18 53 19 16 1 16 -2
-3 -39z"/>
<path d="M1461 2404 c0 -11 3 -14 6 -6 3 7 2 16 -1 19 -3 4 -6 -2 -5 -13z"/>
<path d="M3679 2383 c-5 -14 -8 -30 -6 -36 1 -5 8 7 14 27 13 42 7 49 -8 9z"/>
<path d="M3499 2338 c-19 -29 -40 -58 -49 -65 -8 -6 -12 -14 -8 -18 9 -9 39
26 71 84 37 67 28 65 -14 -1z"/>
<path d="M2260 2321 c0 -5 5 -13 10 -16 6 -3 10 -2 10 4 0 5 -4 13 -10 16 -5
3 -10 2 -10 -4z"/>
<path d="M3508 2253 c7 -3 16 -2 19 1 4 3 -2 6 -13 5 -11 0 -14 -3 -6 -6z"/>
<path d="M3554 2229 c-72 -41 -154 -59 -269 -60 -86 -1 -95 -3 -67 -12 59 -18
229 5 306 42 35 18 70 38 76 46 16 19 15 19 -46 -16z"/>
<path d="M2513 2130 c0 -36 2 -50 4 -32 2 17 2 47 0 65 -2 17 -4 3 -4 -33z"/>
<path d="M4512 1985 c0 -16 2 -22 5 -12 2 9 2 23 0 30 -3 6 -5 -1 -5 -18z"/>
<path d="M2511 1954 c0 -11 3 -14 6 -6 3 7 2 16 -1 19 -3 4 -6 -2 -5 -13z"/>
<path d="M4513 1865 c0 -44 2 -61 4 -37 2 23 2 59 0 80 -2 20 -4 1 -4 -43z"/>
<path d="M2510 1889 c0 -24 -3 -54 -6 -66 -5 -18 -2 -23 11 -23 15 0 17 7 11
61 -7 74 -16 90 -16 28z"/>
<path d="M4511 1764 c0 -11 3 -14 6 -6 3 7 2 16 -1 19 -3 4 -6 -2 -5 -13z"/>
<path d="M2470 1746 c0 -2 7 -7 16 -10 8 -3 12 -2 9 4 -6 10 -25 14 -25 6z"/>
<path d="M2508 1553 c7 -3 16 -2 19 1 4 3 -2 6 -13 5 -11 0 -14 -3 -6 -6z"/>
<path d="M4070 1492 c-36 -35 -80 -81 -97 -102 l-33 -38 18 -40 17 -40 87 1
88 2 0 143 c0 78 -3 141 -7 140 -5 -1 -37 -30 -73 -66z m52 -92 c-1 -52 -3
-95 -5 -96 -1 -1 -31 -3 -66 -5 -62 -4 -65 -3 -72 23 -5 18 -2 34 9 49 l16 23
6 -23 c7 -32 31 -45 63 -37 22 5 27 12 27 37 0 33 -34 55 -58 36 -7 -5 -15 -8
-18 -5 -7 8 79 98 91 94 6 -2 9 -40 7 -96z m-42 -25 c0 -20 -5 -25 -25 -25
-27 0 -33 18 -13 38 20 20 38 14 38 -13z"/>
<path d="M977 1475 c-4 -43 -7 -107 -7 -143 0 -62 1 -64 23 -58 12 3 50 6 84
6 59 0 63 2 78 30 8 16 15 33 15 37 0 4 -42 53 -94 107 l-93 99 -6 -78z m163
-130 c0 -39 -12 -45 -79 -45 -64 0 -68 1 -65 23 1 12 3 58 3 101 l1 80 70 -73
c39 -41 70 -79 70 -86z"/>
<path d="M1031 1396 c-7 -8 -11 -25 -9 -38 2 -18 9 -23 32 -23 36 0 56 27 40
53 -14 22 -48 27 -63 8z m47 -23 c2 -14 -4 -22 -17 -26 -22 -5 -27 7 -15 38 8
21 28 14 32 -12z"/>
<path d="M2430 1535 c-31 -18 -16 -18 30 0 23 9 28 14 15 14 -11 0 -31 -6 -45
-14z"/>
<path d="M2635 1510 c-19 -8 -19 -9 3 -9 12 -1 22 4 22 9 0 6 -1 10 -2 9 -2 0
-12 -4 -23 -9z"/>
<path d="M2713 1499 c-7 -7 -58 -9 -147 -7 -75 2 -136 0 -136 -4 0 -5 -7 -8
-17 -8 -18 0 -87 -49 -80 -57 3 -2 25 6 49 19 40 22 54 23 223 23 170 0 182
-1 215 -22 19 -13 40 -23 45 -23 15 1 -35 40 -51 40 -8 0 -14 7 -14 16 0 10
-6 14 -14 11 -8 -3 -22 1 -33 8 -22 17 -26 18 -40 4z"/>
<path d="M2338 1379 c-27 -17 361 -28 451 -13 89 15 50 19 -186 19 -140 0
-259 -3 -265 -6z"/>
<path d="M3751 1163 c-34 -48 -77 -116 -96 -150 l-35 -63 35 0 c22 0 38 6 41
15 10 24 114 18 114 -6 0 -6 -22 -7 -52 -3 -37 5 -49 4 -44 -5 4 -6 29 -11 57
-11 l49 0 0 43 c0 23 5 58 10 77 7 23 7 36 0 38 -5 2 -10 11 -10 19 0 11 7 14
25 9 46 -12 42 38 -8 97 l-24 28 -62 -88z m83 21 c21 -21 20 -34 -3 -34 -10 0
-25 -10 -33 -21 -11 -18 -15 -19 -25 -7 -10 11 -8 21 7 46 22 36 32 39 54 16z
m-47 -91 c5 -13 -43 -30 -54 -19 -3 3 0 13 7 21 15 18 41 16 47 -2z m13 -65
c0 -28 -1 -28 -60 -28 -39 0 -60 -4 -60 -12 0 -6 -3 -9 -6 -5 -4 3 3 22 15 41
20 31 26 34 66 34 43 -1 45 -3 45 -30z"/>
<path d="M1261 1202 c-37 -48 -38 -56 -8 -69 17 -8 25 -25 35 -70 6 -32 12
-76 12 -96 l0 -37 95 1 c52 1 95 3 95 6 0 11 -167 271 -190 296 -4 5 -21 -10
-39 -31z m65 -67 c-5 -15 -9 -14 -38 6 -17 13 -26 25 -20 27 7 2 12 11 12 20
0 13 6 11 26 -10 17 -17 25 -32 20 -43z m9 -20 c11 0 21 -8 23 -17 3 -14 -3
-18 -26 -18 -24 0 -31 5 -34 25 -4 16 -1 22 6 17 6 -4 20 -7 31 -7z m73 -79
l20 -34 -49 -7 c-28 -4 -52 -5 -53 -4 -2 2 -6 18 -9 36 -7 33 -7 33 60 42 6 0
20 -14 31 -33z m38 -71 c17 -13 15 -14 -36 -15 -30 0 -66 -3 -80 -7 -22 -6
-23 -5 -12 10 13 15 37 22 88 26 11 0 29 -6 40 -14z"/>
<path d="M4051 1056 c-32 -34 -22 -66 27 -94 l39 -22 21 23 c29 30 28 62 -3
92 -31 32 -55 32 -84 1z m69 -16 c24 -24 25 -43 5 -60 -18 -15 -52 -4 -66 22
-8 15 -7 24 7 39 22 24 29 24 54 -1z"/>
<path d="M990 1055 c-30 -36 6 -115 52 -115 25 0 58 18 58 31 0 6 -7 6 -19 -1
-25 -13 -51 -13 -51 1 0 5 5 7 12 3 7 -4 8 -3 4 4 -4 7 -15 12 -25 12 -13 0
-18 8 -18 25 0 32 32 43 58 19 18 -16 18 -18 1 -30 -15 -12 -14 -13 12 -14 26
0 28 2 22 28 -4 15 -14 33 -23 40 -23 17 -68 15 -83 -3z"/>
<path d="M3713 503 c103 -2 271 -2 375 0 103 1 18 2 -188 2 -206 0 -291 -1
-187 -2z"/>
<path d="M2050 490 c8 -5 20 -10 25 -10 6 0 3 5 -5 10 -8 5 -19 10 -25 10 -5
0 -3 -5 5 -10z"/>
<path d="M3199 486 c-11 -11 -197 -15 -628 -16 -261 0 -472 -3 -469 -6 7 -6
1017 -6 1027 1 4 2 28 5 54 6 26 2 47 6 47 11 0 8 -23 11 -31 4z"/>
<path d="M3263 483 c15 -2 37 -2 50 0 12 2 0 4 -28 4 -27 0 -38 -2 -22 -4z"/>
</g>
</svg>
