<?xml version="1.0" standalone="no"?>
<!DOCTYPE svg PUBLIC "-//W3C//DTD SVG 20010904//EN"
 "http://www.w3.org/TR/2001/REC-SVG-20010904/DTD/svg10.dtd">
<svg version="1.0" xmlns="http://www.w3.org/2000/svg"
 width="512.000000pt" height="512.000000pt" viewBox="0 0 512.000000 512.000000"
 preserveAspectRatio="xMidYMid meet">
<metadata>
Created by potrace 1.16, written by Peter Selinger 2001-2019
</metadata>
<g transform="translate(0.000000,512.000000) scale(0.100000,-0.100000)"
fill="#000000" stroke="none">
<path d="M2328 4593 c17 -2 47 -2 65 0 17 2 3 4 -33 4 -36 0 -50 -2 -32 -4z"/>
<path d="M2218 4583 c7 -3 16 -2 19 1 4 3 -2 6 -13 5 -11 0 -14 -3 -6 -6z"/>
<path d="M2323 4543 c20 -2 54 -2 75 0 20 2 3 4 -38 4 -41 0 -58 -2 -37 -4z"/>
<path d="M3213 4373 c9 -2 23 -2 30 0 6 3 -1 5 -18 5 -16 0 -22 -2 -12 -5z"/>
<path d="M3338 4373 c12 -2 30 -2 40 0 9 3 -1 5 -23 4 -22 0 -30 -2 -17 -4z"/>
<path d="M3408 4373 c6 -2 18 -2 25 0 6 3 1 5 -13 5 -14 0 -19 -2 -12 -5z"/>
<path d="M3458 4373 c7 -3 16 -2 19 1 4 3 -2 6 -13 5 -11 0 -14 -3 -6 -6z"/>
<path d="M3538 4373 c28 -2 76 -2 105 0 28 2 5 3 -53 3 -58 0 -81 -1 -52 -3z"/>
<path d="M3713 4373 c9 -2 25 -2 35 0 9 3 1 5 -18 5 -19 0 -27 -2 -17 -5z"/>
<path d="M4038 4373 c34 -2 88 -2 120 0 31 2 3 3 -63 3 -66 0 -92 -1 -57 -3z"/>
<path d="M1980 4320 c-9 -6 -10 -10 -3 -10 6 0 15 5 18 10 8 12 4 12 -15 0z"/>
<path d="M1171 4262 c-29 -20 -48 -38 -41 -40 7 -3 15 0 19 4 3 5 23 20 43 34
21 14 38 28 38 33 0 9 4 11 -59 -31z"/>
<path d="M1905 4290 c-3 -6 1 -7 9 -4 18 7 21 14 7 14 -6 0 -13 -4 -16 -10z"/>
<path d="M1445 4270 c-3 -6 1 -7 9 -4 18 7 21 14 7 14 -6 0 -13 -4 -16 -10z"/>
<path d="M1415 4250 c-3 -5 -1 -10 4 -10 6 0 11 5 11 10 0 6 -2 10 -4 10 -3 0
-8 -4 -11 -10z"/>
<path d="M1825 4230 c3 -5 10 -10 16 -10 5 0 9 5 9 10 0 6 -7 10 -16 10 -8 0
-12 -4 -9 -10z"/>
<path d="M4411 4214 c0 -11 3 -14 6 -6 3 7 2 16 -1 19 -3 4 -6 -2 -5 -13z"/>
<path d="M883 4213 c31 -2 83 -2 115 0 31 2 5 3 -58 3 -63 0 -89 -1 -57 -3z"/>
<path d="M1705 4210 c-13 -6 -15 -9 -5 -9 8 0 22 4 30 9 18 12 2 12 -25 0z"/>
<path d="M1330 4195 c-7 -8 -9 -15 -6 -15 4 0 14 7 22 15 9 8 11 15 6 15 -5 0
-15 -7 -22 -15z"/>
<path d="M1080 4186 c0 -8 -7 -17 -16 -20 -9 -4 -14 -9 -11 -12 6 -7 56 27 57
39 0 4 -7 7 -15 7 -8 0 -15 -6 -15 -14z"/>
<path d="M1212 4106 c-112 -89 -109 -86 -91 -86 8 0 34 19 59 43 25 23 66 59
90 79 80 66 38 40 -58 -36z"/>
<path d="M3682 4164 c-14 -16 -5 -18 17 -5 7 5 9 11 5 14 -5 3 -15 -1 -22 -9z"/>
<path d="M1537 4154 c-6 -10 9 -42 16 -34 3 3 1 14 -3 24 -3 11 -9 15 -13 10z"/>
<path d="M1570 4140 c0 -5 4 -10 9 -10 6 0 13 5 16 10 3 6 -1 10 -9 10 -9 0
-16 -4 -16 -10z"/>
<path d="M1005 4115 c-26 -22 -27 -25 -10 -25 12 0 25 11 32 25 6 14 10 25 10
25 -1 -1 -15 -12 -32 -25z"/>
<path d="M3661 4109 c5 -10 16 -19 24 -19 23 0 18 14 -10 26 -23 11 -24 10
-14 -7z"/>
<path d="M2552 4099 c1 -13 8 -23 13 -21 15 3 12 35 -3 40 -9 3 -13 -3 -10
-19z"/>
<path d="M1565 4100 c-3 -5 3 -10 14 -10 11 0 23 5 26 10 3 6 -3 10 -14 10
-11 0 -23 -4 -26 -10z"/>
<path d="M1940 4090 c0 -5 5 -10 11 -10 5 0 7 5 4 10 -3 6 -8 10 -11 10 -2 0
-4 -4 -4 -10z"/>
<path d="M1441 4045 c-24 -19 -53 -45 -65 -58 -12 -13 -28 -26 -36 -29 -7 -2
-10 -9 -7 -15 5 -7 27 9 58 42 28 30 64 60 80 67 16 7 29 16 29 20 0 15 -15 8
-59 -27z"/>
<path d="M2507 4073 c-12 -11 -8 -23 8 -23 8 0 15 7 15 15 0 16 -12 20 -23 8z"/>
<path d="M4413 4040 c0 -25 2 -35 4 -22 2 12 2 32 0 45 -2 12 -4 2 -4 -23z"/>
<path d="M2020 4068 c0 -14 69 -117 98 -145 17 -17 32 -38 32 -46 0 -8 7 -20
15 -27 35 -29 -10 57 -57 108 -26 30 -48 57 -48 61 0 4 -9 18 -20 31 -11 13
-20 21 -20 18z"/>
<path d="M2600 4060 c0 -5 7 -10 15 -10 8 0 15 5 15 10 0 6 -7 10 -15 10 -8 0
-15 -4 -15 -10z"/>
<path d="M2440 4040 c0 -9 32 -30 46 -30 4 0 -1 9 -11 20 -19 21 -35 26 -35
10z"/>
<path d="M2650 4036 c0 -22 17 -28 24 -10 9 22 8 24 -9 24 -8 0 -15 -6 -15
-14z"/>
<path d="M2537 4024 c3 -9 15 -14 31 -12 39 5 37 25 -2 26 -28 1 -34 -2 -29
-14z"/>
<path d="M2000 4011 c0 -6 4 -12 9 -16 12 -7 51 -110 58 -150 6 -39 23 -57 23
-25 0 39 -28 121 -55 162 -25 38 -35 46 -35 29z"/>
<path d="M2625 4010 c3 -5 8 -10 11 -10 2 0 4 5 4 10 0 6 -5 10 -11 10 -5 0
-7 -4 -4 -10z"/>
<path d="M1085 4000 c-3 -6 1 -7 9 -4 18 7 21 14 7 14 -6 0 -13 -4 -16 -10z"/>
<path d="M2510 3980 c0 -30 23 -43 33 -17 3 6 6 2 6 -10 1 -12 -7 -26 -16 -32
-24 -13 -13 -21 15 -10 17 6 22 14 17 28 -3 11 1 24 12 32 15 12 16 12 10 -3
-3 -10 -2 -18 2 -18 5 0 7 -18 5 -41 -4 -28 -2 -39 6 -34 6 3 8 10 5 15 -3 4
1 10 7 13 10 3 10 7 2 18 -7 8 -8 23 -4 34 8 23 2 55 -11 55 -5 0 -9 -4 -9 -9
0 -15 -39 -19 -51 -5 -18 22 -29 16 -29 -16z"/>
<path d="M2687 3996 c-16 -13 -16 -14 -1 -20 20 -8 27 -3 22 18 -2 12 -6 13
-21 2z"/>
<path d="M2420 3980 c0 -11 -4 -20 -10 -20 -5 0 -6 8 -3 18 6 14 4 15 -9 4 -9
-7 -20 -12 -24 -11 -18 3 -74 -14 -74 -22 0 -12 27 -11 35 0 9 15 65 10 65 -6
0 -19 17 -16 23 5 2 9 8 25 12 35 4 10 3 17 -4 17 -6 0 -11 -9 -11 -20z"/>
<path d="M2455 3980 c3 -5 11 -10 16 -10 6 0 7 5 4 10 -3 6 -11 10 -16 10 -6
0 -7 -4 -4 -10z"/>
<path d="M4411 3974 c0 -11 3 -14 6 -6 3 7 2 16 -1 19 -3 4 -6 -2 -5 -13z"/>
<path d="M2635 3960 c-3 -5 -1 -10 4 -10 6 0 11 5 11 10 0 6 -2 10 -4 10 -3 0
-8 -4 -11 -10z"/>
<path d="M3010 3940 c-20 -19 -34 -46 -41 -80 -6 -27 -16 -50 -21 -50 -6 0 -9
-2 -6 -5 11 -11 38 8 38 27 0 14 5 18 15 14 8 -3 15 -1 15 4 0 6 -6 10 -14 10
-22 0 -7 45 26 79 39 40 29 41 -12 1z"/>
<path d="M3067 3923 c-15 -29 -27 -67 -26 -85 0 -31 1 -30 15 16 9 27 22 59
31 72 8 13 13 29 10 36 -2 7 -16 -10 -30 -39z"/>
<path d="M2446 3944 c-9 -24 -7 -28 9 -14 17 14 20 30 6 30 -5 0 -12 -7 -15
-16z"/>
<path d="M2670 3940 c0 -13 5 -18 15 -14 8 4 15 10 15 14 0 4 -7 10 -15 14
-10 4 -15 -1 -15 -14z"/>
<path d="M2746 3951 c-3 -5 15 -11 40 -13 25 -2 48 1 51 6 4 5 1 6 -5 2 -6 -3
-13 -2 -17 4 -8 12 -62 13 -69 1z"/>
<path d="M2871 3921 c-29 -56 -26 -65 4 -12 14 24 23 46 21 48 -3 3 -14 -13
-25 -36z"/>
<path d="M1105 3941 c-3 -5 -1 -12 5 -16 5 -3 10 1 10 9 0 18 -6 21 -15 7z"/>
<path d="M2280 3932 c0 -10 -5 -23 -12 -30 -7 -7 -8 -12 -4 -12 5 0 3 -6 -3
-14 -9 -10 -9 -16 -1 -21 6 -4 13 -5 16 -3 7 7 16 98 9 98 -3 0 -5 -8 -5 -18z"/>
<path d="M1665 3930 c-3 -5 -1 -10 4 -10 6 0 11 5 11 10 0 6 -2 10 -4 10 -3 0
-8 -4 -11 -10z"/>
<path d="M2488 3929 c-19 -11 -25 -39 -8 -39 6 0 10 4 10 9 0 5 7 17 16 25 17
18 8 21 -18 5z"/>
<path d="M3771 3921 c-18 -32 -13 -40 14 -28 14 7 24 18 23 26 -5 23 -26 24
-37 2z"/>
<path d="M1436 3879 c-21 -22 -36 -42 -33 -45 4 -4 87 74 87 82 0 13 -22 -1
-54 -37z"/>
<path d="M2784 3895 c1 -28 1 -28 25 -15 25 13 35 40 15 40 -10 0 -14 -6 -10
-15 7 -19 1 -19 -17 0 -13 12 -15 11 -13 -10z"/>
<path d="M1125 3900 c-3 -5 -1 -10 4 -10 6 0 11 5 11 10 0 6 -2 10 -4 10 -3 0
-8 -4 -11 -10z"/>
<path d="M2415 3890 c3 -5 10 -10 16 -10 5 0 9 5 9 10 0 6 -7 10 -16 10 -8 0
-12 -4 -9 -10z"/>
<path d="M2550 3885 c0 -8 -4 -15 -10 -15 -5 0 -10 5 -10 10 0 6 -7 10 -15 10
-26 0 -16 -18 14 -25 16 -3 32 -13 35 -22 5 -12 10 -13 18 -5 6 6 16 8 23 6 7
-3 16 -1 20 5 4 7 -6 11 -26 11 -26 0 -31 3 -26 20 3 13 0 20 -9 20 -8 0 -14
-7 -14 -15z"/>
<path d="M2630 3890 c0 -5 5 -10 10 -10 6 0 10 5 10 10 0 6 -4 10 -10 10 -5 0
-10 -4 -10 -10z"/>
<path d="M2676 3891 c-4 -5 -2 -12 3 -15 5 -4 12 -2 15 3 4 5 2 12 -3 15 -5 4
-12 2 -15 -3z"/>
<path d="M2740 3874 c0 -8 -4 -12 -10 -9 -5 3 -10 1 -10 -4 0 -6 -12 -11 -26
-11 -14 0 -23 -4 -19 -10 7 -12 45 -14 45 -2 0 4 10 12 22 17 26 12 36 35 14
35 -9 0 -16 -7 -16 -16z"/>
<path d="M2356 3865 c-3 -10 3 -12 24 -10 24 3 27 1 22 -17 -3 -14 -1 -19 6
-14 6 3 17 -2 24 -12 19 -27 53 -36 68 -17 10 12 10 15 -4 15 -9 0 -16 -5 -16
-10 0 -6 -8 -5 -20 2 -11 7 -20 16 -20 21 0 4 5 5 10 2 6 -3 10 -1 10 4 0 6
-6 11 -14 11 -8 0 -21 8 -28 18 -16 21 -54 26 -62 7z"/>
<path d="M2460 3862 c0 -5 11 -12 25 -14 14 -3 25 -1 25 3 0 5 -4 9 -9 9 -5 0
-16 3 -25 6 -9 3 -16 2 -16 -4z"/>
<path d="M2296 3844 c-9 -23 -7 -34 4 -34 6 0 10 6 10 14 0 8 5 16 12 18 8 3
6 7 -4 11 -10 3 -19 0 -22 -9z"/>
<path d="M2132 3833 c2 -10 11 -19 21 -21 16 -3 17 -1 5 17 -16 25 -31 27 -26
4z"/>
<path d="M2820 3844 c0 -7 -9 -14 -20 -17 -11 -3 -20 -10 -20 -16 0 -14 17
-14 25 -1 5 8 11 7 21 -1 20 -17 23 -8 7 21 -7 14 -13 20 -13 14z"/>
<path d="M1531 3826 c-8 -10 -9 -16 -2 -21 13 -7 51 12 51 25 0 15 -36 12 -49
-4z"/>
<path d="M2218 3833 c-5 -29 -2 -63 7 -63 5 0 11 16 12 35 1 19 -3 35 -8 35
-5 0 -10 -3 -11 -7z"/>
<path d="M2253 3820 c1 -11 7 -20 13 -20 7 0 10 8 7 20 -3 11 -9 20 -14 20 -4
0 -7 -9 -6 -20z"/>
<path d="M2625 3830 c-3 -5 -2 -10 4 -10 5 0 13 5 16 10 3 6 2 10 -4 10 -5 0
-13 -4 -16 -10z"/>
<path d="M2755 3830 c-3 -5 -1 -10 4 -10 6 0 11 5 11 10 0 6 -2 10 -4 10 -3 0
-8 -4 -11 -10z"/>
<path d="M2870 3826 c0 -9 5 -16 10 -16 6 0 10 4 10 9 0 6 -4 13 -10 16 -5 3
-10 -1 -10 -9z"/>
<path d="M3256 3833 c-11 -11 -6 -23 9 -23 8 0 15 4 15 9 0 13 -16 22 -24 14z"/>
<path d="M2320 3819 c0 -18 62 -70 77 -65 7 3 13 10 13 16 0 6 5 8 10 5 16
-10 11 1 -7 16 -9 8 -14 9 -10 3 4 -7 0 -15 -9 -18 -23 -9 -27 -8 -21 8 4 9
-2 17 -14 21 -10 4 -19 11 -19 16 0 5 -4 9 -10 9 -5 0 -10 -5 -10 -11z"/>
<path d="M2360 3819 c0 -5 5 -7 10 -4 6 3 10 8 10 11 0 2 -4 4 -10 4 -5 0 -10
-5 -10 -11z"/>
<path d="M2530 3803 c0 -17 6 -34 13 -37 6 -3 -3 -3 -20 0 -36 6 -57 -2 -47
-18 4 -7 9 -7 13 0 4 6 17 5 36 -4 22 -10 24 -13 8 -10 -29 5 -30 -15 -3 -32
17 -10 26 -10 50 3 17 9 30 21 30 28 -1 19 -24 44 -44 48 -11 2 -20 12 -22 22
-4 32 -14 32 -14 0z"/>
<path d="M2570 3807 c0 -13 8 -15 38 -10 45 7 54 13 19 13 -14 0 -32 3 -41 6
-10 4 -16 1 -16 -9z"/>
<path d="M2666 3812 c-3 -6 -1 -14 5 -17 15 -10 25 3 12 16 -7 7 -13 7 -17 1z"/>
<path d="M2900 3807 c0 -22 19 -42 39 -43 11 -1 18 3 15 7 -3 5 -12 9 -21 9
-9 0 -13 6 -10 14 3 8 -1 17 -9 20 -8 3 -14 0 -14 -7z"/>
<path d="M1374 3801 c3 -5 -3 -11 -14 -14 -11 -3 -20 -12 -20 -21 0 -22 8 -20
31 7 21 25 24 37 8 37 -5 0 -8 -4 -5 -9z"/>
<path d="M1454 3788 l-19 -23 23 19 c21 18 27 26 19 26 -2 0 -12 -10 -23 -22z"/>
<path d="M2703 3786 c-19 -21 -19 -25 -6 -30 14 -6 13 -10 -7 -31 -23 -24 -50
-24 -50 1 0 8 -4 14 -10 14 -15 0 -12 -16 5 -30 19 -16 20 -41 1 -34 -8 3 -17
1 -20 -4 -3 -6 1 -12 8 -15 8 -3 34 11 59 33 24 22 47 37 50 34 3 -3 3 4 0 16
-5 21 -3 22 28 16 l34 -6 -30 13 c-16 8 -31 10 -33 5 -2 -4 -11 -8 -20 -8 -12
0 -10 5 8 25 13 14 19 25 14 25 -6 0 -20 -11 -31 -24z"/>
<path d="M2751 3796 c-9 -11 -8 -15 5 -20 22 -8 24 -8 24 8 0 21 -16 28 -29
12z"/>
<path d="M1072 3791 c2 -7 7 -12 11 -12 12 1 9 15 -3 20 -7 2 -11 -2 -8 -8z"/>
<path d="M2970 3792 c0 -10 33 -42 43 -42 4 0 7 5 7 10 0 6 -7 10 -15 10 -8 0
-15 7 -15 15 0 8 -4 15 -10 15 -5 0 -10 -4 -10 -8z"/>
<path d="M1998 3783 c-25 -2 -51 -10 -57 -17 -9 -10 -1 -11 37 -6 32 6 55 4
73 -6 24 -12 27 -12 32 6 6 22 -1 31 -22 28 -9 -1 -37 -3 -63 -5z"/>
<path d="M2170 3780 c0 -5 5 -10 10 -10 6 0 10 -4 10 -10 0 -5 -6 -7 -14 -4
-7 3 -16 -2 -19 -10 -4 -9 -13 -13 -22 -10 -8 3 -15 1 -15 -5 0 -14 27 -15 35
-1 8 14 35 13 68 -2 26 -13 36 -28 18 -28 -5 0 -11 -7 -15 -15 -3 -9 0 -15 9
-15 8 0 15 8 15 18 0 14 2 15 10 2 5 -8 12 -11 16 -8 3 4 -1 14 -10 23 -9 9
-16 22 -16 30 0 16 38 27 43 11 2 -6 8 -8 12 -4 11 11 -4 28 -26 28 -11 0 -27
-7 -35 -15 -22 -21 -33 -19 -40 10 -6 24 -34 36 -34 15z"/>
<path d="M2877 3783 c-11 -11 -8 -30 6 -36 7 -3 12 4 12 19 0 24 -6 30 -18 17z"/>
<path d="M3040 3771 c0 -11 10 -27 22 -35 27 -19 39 -20 37 -3 -3 22 1 37 9
36 4 -1 18 0 32 1 24 2 24 3 -5 10 -16 4 -45 8 -62 9 -26 1 -33 -3 -33 -18z"/>
<path d="M2600 3770 c0 -5 5 -10 11 -10 5 0 7 5 4 10 -3 6 -8 10 -11 10 -2 0
-4 -4 -4 -10z"/>
<path d="M2807 3763 c-10 -9 -9 -23 2 -23 5 0 11 7 15 15 5 15 -5 20 -17 8z"/>
<path d="M1045 3750 c-3 -5 -2 -10 4 -10 5 0 13 5 16 10 3 6 2 10 -4 10 -5 0
-13 -4 -16 -10z"/>
<path d="M1418 3743 c-19 -23 -31 -43 -24 -43 2 0 14 14 26 30 23 33 22 40 -2
13z"/>
<path d="M2329 3747 c6 -8 7 -18 3 -23 -4 -4 1 -2 11 5 23 18 22 31 -4 31 -17
0 -19 -3 -10 -13z"/>
<path d="M2404 3746 c-3 -8 3 -23 13 -34 10 -11 25 -29 34 -41 l17 -22 4 30
c2 16 2 28 -2 26 -3 -2 -17 6 -30 17 -14 11 -18 16 -10 12 13 -7 13 -5 1 9
-16 21 -20 21 -27 3z"/>
<path d="M3150 3750 c0 -5 6 -10 14 -10 8 0 18 5 21 10 3 6 -3 10 -14 10 -12
0 -21 -4 -21 -10z"/>
<path d="M2002 3734 c9 -9 21 -13 27 -10 20 13 11 26 -16 26 -25 0 -26 -1 -11
-16z"/>
<path d="M2930 3739 c0 -5 -4 -7 -10 -4 -5 3 -10 -1 -10 -10 0 -13 4 -14 20
-5 21 11 27 30 10 30 -5 0 -10 -5 -10 -11z"/>
<path d="M3118 3743 c7 -3 16 -2 19 1 4 3 -2 6 -13 5 -11 0 -14 -3 -6 -6z"/>
<path d="M1911 3730 c-7 -4 -12 -12 -10 -18 3 -7 10 -6 22 3 20 14 9 29 -12
15z"/>
<path d="M2986 3733 c-3 -4 -6 -10 -6 -14 0 -10 28 -20 34 -11 5 9 -20 32 -28
25z"/>
<path d="M1015 3710 c-10 -11 -16 -22 -13 -25 3 -3 13 6 22 20 20 30 16 32 -9
5z"/>
<path d="M2850 3714 c-14 -9 -37 -34 -53 -56 -24 -34 -25 -38 -6 -28 11 6 27
9 34 6 10 -3 15 5 17 27 2 23 9 33 26 37 13 3 23 9 23 15 1 16 -14 15 -41 -1z"/>
<path d="M3110 3711 c0 -10 7 -21 15 -25 8 -3 15 -13 15 -22 0 -14 2 -15 17
-3 9 8 14 9 11 4 -4 -6 -3 -17 3 -25 6 -11 9 -6 9 18 0 19 -5 32 -13 32 -7 0
-18 9 -25 20 -15 25 -32 26 -32 1z"/>
<path d="M1973 3707 c-28 -12 -28 -19 -2 -48 15 -18 19 -20 15 -6 -3 11 0 20
9 23 16 6 20 30 8 37 -5 3 -18 0 -30 -6z"/>
<path d="M2286 3707 c3 -10 9 -15 12 -12 3 3 0 11 -7 18 -10 9 -11 8 -5 -6z"/>
<path d="M3041 3704 c0 -11 3 -14 6 -6 3 7 2 16 -1 19 -3 4 -6 -2 -5 -13z"/>
<path d="M1082 3696 c7 -8 15 -12 17 -11 5 6 -10 25 -20 25 -5 0 -4 -6 3 -14z"/>
<path d="M2190 3694 c0 -14 3 -14 15 -4 8 7 15 14 15 16 0 2 -7 4 -15 4 -8 0
-15 -7 -15 -16z"/>
<path d="M3210 3700 c0 -21 16 -44 23 -33 4 6 0 19 -8 29 -11 15 -14 16 -15 4z"/>
<path d="M781 3684 c0 -11 3 -14 6 -6 3 7 2 16 -1 19 -3 4 -6 -2 -5 -13z"/>
<path d="M1912 3673 c-26 -29 -27 -33 -7 -33 9 0 20 12 26 26 13 36 8 38 -19
7z"/>
<path d="M2039 3691 c-11 -4 -14 -12 -9 -26 7 -19 7 -19 19 4 15 26 12 31 -10
22z"/>
<path d="M2298 3679 c-16 -11 -28 -27 -28 -35 0 -20 14 -10 40 26 25 35 24 36
-12 9z"/>
<path d="M2349 3673 c-13 -16 -12 -17 4 -4 9 7 17 15 17 17 0 8 -8 3 -21 -13z"/>
<path d="M2380 3681 c0 -17 15 -19 28 -5 11 12 9 14 -8 14 -11 0 -20 -4 -20
-9z"/>
<path d="M2907 3676 c-4 -10 -5 -21 -2 -24 9 -9 17 6 13 25 -3 17 -4 17 -11
-1z"/>
<path d="M3070 3684 c0 -7 20 -45 32 -58 4 -6 18 -22 29 -36 12 -14 27 -36 34
-50 14 -27 75 -68 75 -51 0 6 -13 17 -29 26 -27 14 -42 35 -40 60 0 5 -8 12
-18 16 -10 4 -25 19 -33 35 -15 28 -50 69 -50 58z"/>
<path d="M1242 3660 c0 -14 2 -19 5 -12 2 6 2 18 0 25 -3 6 -5 1 -5 -13z"/>
<path d="M2487 3660 c-5 -21 0 -25 21 -11 10 6 10 10 -1 20 -12 9 -16 7 -20
-9z"/>
<path d="M2575 3670 c3 -5 8 -10 11 -10 2 0 4 5 4 10 0 6 -5 10 -11 10 -5 0
-7 -4 -4 -10z"/>
<path d="M962 3630 c-12 -22 -19 -40 -14 -40 5 0 18 18 31 40 12 22 19 40 14
40 -4 0 -18 -18 -31 -40z"/>
<path d="M1155 3646 c17 -13 32 -22 34 -20 5 5 -42 43 -54 44 -5 0 4 -11 20
-24z"/>
<path d="M3198 3664 c-5 -4 -8 -16 -8 -28 0 -14 3 -17 11 -9 6 6 9 19 7 28 -1
9 -6 13 -10 9z"/>
<path d="M1495 3650 c-3 -6 1 -7 9 -4 18 7 21 14 7 14 -6 0 -13 -4 -16 -10z"/>
<path d="M1315 3610 c-21 -22 -36 -43 -32 -46 4 -4 8 -5 10 -3 1 2 17 23 35
47 18 23 31 42 30 42 -2 0 -21 -18 -43 -40z"/>
<path d="M1936 3643 c-11 -11 -6 -23 9 -23 8 0 15 4 15 9 0 13 -16 22 -24 14z"/>
<path d="M2313 3643 c-9 -3 -8 -11 3 -29 9 -13 20 -22 24 -19 5 3 13 -3 19
-12 9 -15 10 -12 11 17 0 26 -3 31 -12 22 -17 -17 -31 -15 -25 3 7 16 -2 24
-20 18z"/>
<path d="M2390 3634 c0 -8 5 -12 10 -9 6 4 8 11 5 16 -9 14 -15 11 -15 -7z"/>
<path d="M2530 3640 c0 -5 5 -10 11 -10 5 0 7 5 4 10 -3 6 -8 10 -11 10 -2 0
-4 -4 -4 -10z"/>
<path d="M2600 3639 c-25 -3 -40 -7 -35 -8 6 -1 4 -5 -3 -10 -11 -6 -10 -10 4
-15 10 -4 15 -4 11 1 -5 4 13 12 40 18 58 13 46 23 -17 14z"/>
<path d="M2860 3640 c0 -5 5 -10 10 -10 6 0 10 5 10 10 0 6 -4 10 -10 10 -5 0
-10 -4 -10 -10z"/>
<path d="M1860 3619 c-17 -31 -7 -43 19 -22 14 11 21 25 17 31 -11 18 -24 14
-36 -9z"/>
<path d="M2000 3621 c-6 -12 -16 -21 -22 -21 -6 0 -5 7 3 18 13 15 12 16 -4 3
-12 -9 -14 -17 -7 -26 7 -8 -2 -23 -30 -50 -41 -40 -57 -37 -19 3 13 15 18 29
14 42 -7 21 -25 28 -25 10 0 -5 5 -10 10 -10 10 0 -26 -58 -43 -71 -8 -6 15
-19 33 -19 12 0 114 130 107 136 -3 3 -10 -4 -17 -15z"/>
<path d="M2417 3618 c-22 -23 -17 -32 13 -23 12 4 19 9 16 12 -3 4 2 12 12 19
16 12 16 13 -3 13 -11 0 -28 -10 -38 -21z"/>
<path d="M2674 3620 c0 -11 6 -20 12 -20 7 0 18 -16 24 -35 13 -40 35 -48 28
-10 -5 21 -2 25 13 20 11 -4 19 -2 19 4 0 11 -13 15 -37 12 -7 -1 -13 2 -13 8
0 5 6 11 13 14 6 2 9 8 4 12 -4 5 -14 0 -22 -11 -11 -15 -15 -16 -16 -4 -1 8
-1 18 0 23 0 4 -5 7 -12 7 -7 0 -13 -9 -13 -20z"/>
<path d="M2995 3630 c-3 -5 1 -10 9 -10 8 0 18 5 21 10 3 6 -1 10 -9 10 -8 0
-18 -4 -21 -10z"/>
<path d="M1050 3619 c0 -5 4 -8 9 -5 5 4 11 1 13 -6 2 -6 10 -8 16 -4 7 4 10
12 7 17 -8 13 -45 11 -45 -2z"/>
<path d="M1460 3615 c-7 -9 -11 -18 -8 -20 3 -3 11 1 18 10 7 9 11 18 8 20 -3
3 -11 -1 -18 -10z"/>
<path d="M2064 3614 c3 -8 6 -18 6 -20 0 -3 5 -2 10 1 15 9 12 22 -6 29 -12 5
-15 2 -10 -10z"/>
<path d="M2147 3624 c-4 -4 -2 -13 3 -20 8 -8 4 -26 -12 -60 -13 -27 -25 -51
-28 -54 -3 -3 -17 -23 -31 -45 -34 -52 -108 -127 -119 -120 -25 16 -59 -27
-40 -51 8 -9 2 -27 -27 -69 -35 -54 -36 -58 -19 -71 24 -17 16 -49 -26 -102
-18 -22 -60 -75 -93 -116 -68 -85 -98 -96 -103 -39 -3 26 0 32 12 27 9 -3 16
-1 16 5 0 6 -6 11 -14 11 -8 0 -20 2 -28 5 -16 6 -53 -57 -45 -77 3 -7 6 -3 6
9 1 13 7 22 14 20 6 -1 11 6 9 15 -1 9 3 20 9 24 9 5 10 -4 6 -33 -6 -35 -4
-41 13 -46 32 -8 37 -37 11 -59 -13 -10 -27 -15 -32 -12 -5 3 -9 -2 -9 -10 0
-8 5 -18 10 -21 6 -4 8 -11 5 -16 -4 -5 0 -9 8 -9 8 0 29 -27 46 -60 39 -72
41 -133 5 -138 -17 -2 -27 7 -44 43 -21 43 -55 85 -70 85 -8 0 -33 -116 -33
-154 0 -21 10 -37 34 -57 29 -23 31 -29 20 -43 -15 -18 -47 -21 -57 -5 -3 6 0
15 7 20 10 6 6 9 -13 9 -17 0 -28 -6 -31 -17 -4 -17 -5 -16 -12 1 -6 13 -3 23
9 32 10 7 15 17 11 23 -4 7 -10 7 -19 -2 -8 -6 -12 -15 -9 -19 2 -5 0 -8 -5
-8 -15 0 -1 -41 15 -47 8 -3 19 0 23 7 6 10 15 -2 31 -38 13 -29 26 -52 31
-52 4 0 8 -9 8 -20 0 -11 -4 -20 -9 -20 -23 0 -80 32 -94 52 -8 13 -31 40 -51
61 -36 37 -49 88 -26 102 6 4 1 18 -12 35 -21 29 -21 33 -8 97 7 38 19 83 27
101 13 32 13 35 -11 57 -31 29 -32 52 -6 148 26 98 36 124 52 130 7 3 4 6 -8
6 -24 1 -34 -18 -60 -119 -22 -87 -20 -148 8 -177 14 -15 18 -26 11 -35 -29
-39 -48 -178 -29 -213 6 -11 11 -31 12 -45 2 -66 7 -78 57 -132 50 -55 100
-84 142 -83 29 0 31 39 5 76 -12 16 -21 32 -19 33 2 2 14 9 27 15 31 16 29 59
-4 90 -23 22 -25 30 -19 70 13 95 20 98 54 26 15 -31 29 -47 48 -51 40 -10 58
7 61 59 3 49 -29 128 -69 168 l-21 21 21 14 c12 9 21 22 21 30 0 15 30 60 65
99 70 77 89 99 120 146 37 57 42 78 24 107 -9 15 -6 27 15 61 20 31 26 50 21
71 -5 25 -3 29 22 35 15 3 39 16 53 28 25 22 123 146 134 170 5 9 7 9 12 -1 3
-6 10 -10 15 -6 5 3 9 0 9 -5 0 -6 9 -11 19 -11 15 0 22 -12 31 -51 12 -49 24
-67 98 -148 l34 -36 -46 -14 c-25 -8 -48 -22 -51 -31 -9 -28 -69 -90 -88 -90
-10 0 -22 -12 -27 -26 -6 -14 -14 -22 -20 -19 -5 3 -32 -40 -59 -97 -53 -109
-75 -202 -87 -363 -7 -87 16 -245 38 -272 13 -16 12 -58 0 -78 -4 -5 -12 -32
-19 -60 -6 -27 -19 -75 -27 -105 -9 -30 -16 -84 -16 -120 0 -119 -20 -279 -45
-358 -14 -43 -30 -114 -36 -157 -6 -44 -12 -82 -14 -86 -2 -3 -7 -32 -10 -65
-4 -32 -8 -61 -11 -63 -2 -2 4 -16 13 -31 15 -25 14 -33 -2 -101 -10 -40 -19
-93 -19 -117 l-1 -43 -250 1 c-137 1 -302 1 -365 -1 -63 -2 38 -6 225 -10 187
-4 421 -10 521 -14 136 -6 186 -5 203 5 13 6 84 16 159 21 74 5 137 11 140 14
3 3 -52 2 -123 -2 -121 -6 -127 -5 -123 13 3 17 13 19 96 19 50 0 92 3 92 8 0
4 -41 7 -90 7 -85 0 -90 1 -81 18 5 10 11 29 13 43 2 13 9 34 16 46 13 24 37
316 27 341 -3 9 11 48 32 89 31 63 37 85 39 146 1 40 7 84 13 100 43 113 52
242 20 302 -18 34 -20 44 -10 77 7 21 16 38 21 38 12 0 37 88 45 159 4 30 11
66 17 80 12 34 44 173 52 233 4 28 2 63 -5 88 -19 61 -3 87 50 82 l41 -4 -6
-102 c-5 -94 -3 -111 31 -241 20 -77 40 -178 44 -225 4 -47 12 -93 18 -104 7
-14 6 -26 -4 -48 -8 -16 -17 -46 -20 -67 -6 -44 17 -169 46 -251 13 -37 16
-60 10 -72 -23 -42 3 -147 55 -222 18 -27 20 -43 17 -165 -1 -75 3 -160 9
-190 8 -43 7 -56 -2 -63 -9 -5 -6 -8 8 -8 16 0 23 -8 27 -27 3 -16 1 -33 -4
-39 -6 -8 -4 -14 6 -18 8 -3 15 -13 15 -21 0 -14 -13 -16 -95 -14 -52 2 -98 0
-101 -4 -4 -4 39 -7 95 -7 75 0 103 -3 107 -13 7 -18 5 -18 199 -21 102 -2
206 2 260 10 l90 13 -130 -5 c-71 -3 -152 -7 -180 -10 -63 -7 -216 12 -226 28
-4 6 -11 39 -14 72 -4 34 -15 69 -24 80 -14 15 -16 47 -17 207 -1 155 -3 192
-16 206 -48 55 -75 147 -57 196 10 29 9 43 -9 98 -46 136 -55 248 -26 298 16
28 17 34 4 64 -8 17 -13 55 -12 82 1 29 -11 95 -29 159 -54 197 -74 339 -48
348 8 3 10 19 5 50 -7 45 -7 45 -53 52 -70 9 -72 9 -90 -29 -15 -31 -15 -40
-3 -73 22 -61 10 -154 -38 -307 -11 -33 -22 -89 -26 -124 -5 -45 -18 -84 -47
-137 l-39 -75 20 -21 c46 -50 46 -153 -1 -296 -13 -39 -19 -75 -15 -95 9 -47
-30 -162 -71 -209 -11 -12 -12 -24 -5 -52 13 -44 -3 -297 -20 -329 -6 -12 -19
-56 -28 -97 -16 -74 -17 -75 -56 -87 -43 -13 -180 -16 -263 -6 l-53 6 6 75 c4
42 11 83 15 91 5 9 12 37 15 63 6 40 5 48 -8 48 -19 0 -19 4 0 100 8 41 19
104 24 140 5 36 21 97 35 135 13 39 25 84 25 102 0 17 4 34 8 37 5 3 12 83 16
178 5 142 10 180 26 213 11 23 20 58 20 78 0 49 18 57 23 10 3 -29 4 -24 5 17
0 30 5 89 11 130 6 41 10 82 11 90 0 33 -19 -14 -25 -63 -10 -69 -23 -48 -40
64 -23 153 7 366 72 499 48 99 52 104 71 88 13 -11 14 -9 8 15 -5 21 -2 29 11
34 9 4 19 1 21 -5 4 -14 22 -16 22 -2 0 15 90 131 107 137 8 3 23 -4 35 -16
27 -29 31 -23 19 31 -7 32 -25 60 -66 103 -30 33 -58 71 -60 85 -13 62 -21 75
-42 75 -31 1 -34 6 -37 65 -3 50 -15 77 -29 64z"/>
<path d="M2499 3619 c-10 -6 -7 -9 14 -9 29 0 35 5 14 13 -8 3 -20 1 -28 -4z"/>
<path d="M3209 3609 c-6 -12 -4 -21 6 -29 18 -15 38 -3 32 21 -3 10 0 20 7 23
6 2 1 3 -12 3 -13 -1 -28 -9 -33 -18z m26 -19 c3 -6 -1 -7 -9 -4 -18 7 -21 14
-7 14 6 0 13 -4 16 -10z"/>
<path d="M1210 3612 c0 -5 12 -14 26 -20 14 -7 23 -8 19 -2 -9 15 -45 32 -45
22z"/>
<path d="M2785 3611 c-6 -10 8 -16 29 -12 5 1 12 -3 16 -9 5 -8 9 -7 13 4 4
10 1 16 -7 16 -8 0 -21 3 -29 6 -8 3 -18 1 -22 -5z"/>
<path d="M2950 3600 c0 -11 -9 -25 -20 -32 -23 -15 -27 -30 -5 -22 18 7 19 -5
1 -28 -7 -10 -23 -18 -34 -18 -14 0 -20 -5 -16 -14 8 -20 -13 -90 -34 -116
-19 -23 -55 -19 -45 6 7 19 -11 18 -27 -2 -11 -13 -10 -16 8 -21 30 -7 28 -37
-4 -60 -21 -15 -26 -28 -27 -68 -2 -49 -1 -50 28 -52 17 -1 22 1 12 4 -23 6
-17 27 10 31 23 3 63 -43 63 -73 0 -9 13 -22 30 -28 21 -8 28 -16 25 -28 -3
-9 2 -22 12 -30 11 -9 14 -10 9 -2 -4 7 -3 20 2 29 7 13 11 12 25 -9 12 -19
13 -27 4 -30 -9 -3 -9 -8 2 -18 9 -9 11 -9 7 -1 -4 6 -3 12 3 12 10 0 23 -30
20 -46 -4 -23 2 -45 11 -39 18 11 60 -93 76 -192 26 -158 9 -420 -26 -398 -5
3 -10 33 -10 65 0 32 -4 62 -10 65 -11 7 -3 -176 10 -215 5 -14 11 -49 15 -79
3 -29 13 -64 21 -77 12 -17 18 -71 24 -216 9 -198 16 -243 51 -337 11 -30 24
-84 29 -120 6 -36 14 -91 20 -121 6 -30 8 -77 5 -105 l-5 -50 16 35 c14 30 15
45 5 105 -6 39 -16 101 -21 140 -6 38 -19 96 -30 128 -34 98 -49 198 -51 349
-1 79 -6 154 -12 168 -16 39 -16 42 -28 105 -6 33 -14 76 -20 95 -7 30 -6 37
11 50 13 10 25 41 36 95 29 142 1 372 -60 492 -19 38 -44 89 -56 115 -17 39
-30 53 -70 73 -28 14 -50 30 -50 36 0 6 -12 26 -26 45 -19 25 -34 34 -55 34
-36 0 -38 19 -4 48 14 12 25 29 25 37 0 8 6 15 13 15 17 0 53 65 62 113 4 22
13 37 21 37 8 0 19 11 25 23 6 13 17 24 24 24 8 0 12 -3 10 -7 -2 -3 4 -14 13
-22 9 -9 39 -48 66 -86 27 -38 65 -77 83 -87 18 -10 33 -25 33 -34 0 -9 8 -28
17 -41 10 -14 16 -35 15 -47 -2 -13 1 -23 7 -23 5 0 11 -10 13 -21 2 -12 13
-28 26 -37 21 -14 22 -13 16 4 -4 11 -16 29 -27 41 -12 13 -17 30 -14 42 3 12
-3 31 -14 45 -10 13 -19 35 -19 49 0 19 -7 26 -32 33 -22 7 -47 30 -84 79 -61
79 -114 174 -107 193 3 6 0 12 -6 12 -6 0 -11 -9 -11 -20z"/>
<path d="M3040 3605 c0 -9 9 -15 21 -15 18 0 19 2 9 15 -7 8 -16 15 -21 15 -5
0 -9 -7 -9 -15z"/>
<path d="M2032 3601 c-10 -6 -9 -10 7 -14 14 -3 21 0 21 9 0 16 -9 18 -28 5z"/>
<path d="M2642 3594 c10 -10 20 -15 24 -12 3 4 -5 12 -18 18 -22 12 -22 12 -6
-6z"/>
<path d="M3260 3595 c0 -8 7 -15 15 -15 8 0 15 4 15 9 0 5 -7 11 -15 15 -9 3
-15 0 -15 -9z"/>
<path d="M770 3580 c-9 -16 -8 -18 5 -14 8 4 15 12 15 20 0 20 -7 17 -20 -6z"/>
<path d="M1805 3576 c-14 -15 -20 -37 -22 -71 0 -27 -6 -51 -12 -53 -6 -2 -11
-10 -11 -18 0 -8 -7 -17 -15 -20 -8 -4 -15 -13 -15 -20 0 -8 -7 -17 -15 -20
-19 -8 -20 -24 -1 -24 8 0 28 21 45 47 17 25 45 55 62 65 17 11 29 21 27 24
-8 7 -38 -7 -38 -17 0 -5 -4 -9 -9 -9 -12 0 2 69 23 108 19 36 11 40 -19 8z"/>
<path d="M2450 3580 c-14 -11 -21 -20 -17 -20 5 0 20 9 34 20 14 11 22 20 17
20 -5 0 -20 -9 -34 -20z"/>
<path d="M2290 3580 c0 -5 7 -10 16 -10 8 0 12 5 9 10 -3 6 -10 10 -16 10 -5
0 -9 -4 -9 -10z"/>
<path d="M2382 3574 c1 -9 9 -19 16 -22 9 -3 13 2 10 14 -1 9 -9 19 -16 22 -9
3 -13 -2 -10 -14z"/>
<path d="M2512 3567 c-28 -30 -29 -46 -1 -21 12 10 24 18 28 18 3 -1 12 1 20
4 18 7 45 -11 49 -32 3 -14 -2 -17 -25 -14 -16 2 -28 -2 -28 -9 0 -6 -3 -14
-6 -17 -3 -3 -4 -19 -1 -35 4 -26 6 -28 25 -17 59 32 65 39 56 64 -5 13 -7 27
-4 32 8 13 -44 50 -70 50 -12 0 -31 -10 -43 -23z m86 -76 c11 -7 10 -10 -3
-15 -20 -7 -38 1 -30 15 7 11 16 11 33 0z"/>
<path d="M897 3518 c-19 -35 -47 -84 -61 -110 -27 -48 -35 -81 -16 -62 14 14
120 227 116 231 -2 2 -19 -24 -39 -59z"/>
<path d="M1409 3548 c-13 -17 -33 -40 -44 -50 -16 -15 -17 -18 -3 -13 15 6 51
47 72 83 14 23 -1 12 -25 -20z"/>
<path d="M3309 3539 c5 -33 3 -47 -8 -55 -13 -10 -13 -17 4 -53 24 -48 41 -55
22 -8 -8 19 -11 40 -6 52 12 31 10 69 -4 89 -12 16 -13 13 -8 -25z"/>
<path d="M2765 3550 c-3 -5 -1 -10 4 -10 6 0 11 5 11 10 0 6 -2 10 -4 10 -3 0
-8 -4 -11 -10z"/>
<path d="M3210 3551 c0 -6 4 -11 10 -11 5 0 21 -17 36 -37 20 -29 24 -32 19
-13 -8 24 -15 33 -48 59 -11 9 -17 10 -17 2z"/>
<path d="M2200 3535 c-11 -13 -8 -15 20 -15 19 0 31 1 29 3 -2 1 -11 8 -20 15
-13 10 -19 9 -29 -3z"/>
<path d="M2310 3535 c0 -8 5 -15 10 -15 6 0 10 7 10 15 0 8 -4 15 -10 15 -5 0
-10 -7 -10 -15z"/>
<path d="M2867 3531 c-3 -12 -1 -21 3 -21 15 0 23 21 12 32 -6 6 -11 2 -15
-11z"/>
<path d="M3955 3540 c-3 -5 1 -10 9 -10 9 0 16 5 16 10 0 6 -4 10 -9 10 -6 0
-13 -4 -16 -10z"/>
<path d="M2270 3530 c0 -5 7 -10 15 -10 8 0 15 5 15 10 0 6 -7 10 -15 10 -8 0
-15 -4 -15 -10z"/>
<path d="M1168 3473 c-46 -75 -98 -179 -98 -195 0 -7 24 33 54 89 29 56 63
115 75 132 12 17 18 31 13 31 -5 0 -25 -26 -44 -57z"/>
<path d="M1306 3509 c-11 -10 -17 -21 -14 -24 2 -3 15 6 28 20 27 29 14 33
-14 4z"/>
<path d="M1019 3500 c-36 -65 -86 -176 -82 -183 7 -12 23 3 23 22 0 18 33 87
64 133 10 15 16 33 14 40 -3 8 -10 4 -19 -12z"/>
<path d="M1240 3510 c0 -5 7 -10 15 -10 8 0 15 5 15 10 0 6 -7 10 -15 10 -8 0
-15 -4 -15 -10z"/>
<path d="M2416 3470 c68 -50 109 -69 121 -56 4 3 -1 6 -11 6 -34 0 -76 31 -92
68 -13 30 -17 34 -23 19 -6 -16 -8 -16 -26 -3 -11 9 -24 16 -29 16 -5 0 22
-23 60 -50z"/>
<path d="M2486 3511 c-9 -14 11 -58 29 -65 25 -9 27 -8 23 17 -2 16 -9 21 -23
19 -18 -2 -17 0 5 17 l25 21 -27 0 c-15 0 -29 -4 -32 -9z"/>
<path d="M2820 3510 c0 -5 5 -10 10 -10 6 0 10 5 10 10 0 6 -4 10 -10 10 -5 0
-10 -4 -10 -10z"/>
<path d="M2710 3501 c0 -6 -16 -29 -36 -51 -20 -22 -32 -40 -27 -40 5 0 17 10
28 22 47 54 55 67 45 73 -5 3 -10 1 -10 -4z"/>
<path d="M2006 3491 c-4 -7 -5 -15 -2 -18 9 -9 19 4 14 18 -4 11 -6 11 -12 0z"/>
<path d="M3095 3490 c3 -5 10 -10 16 -10 5 0 9 5 9 10 0 6 -7 10 -16 10 -8 0
-12 -4 -9 -10z"/>
<path d="M1217 3467 c-25 -39 -113 -218 -142 -292 -34 -85 -85 -261 -85 -292
0 -13 -3 -23 -7 -23 -5 0 -9 -10 -9 -22 -1 -13 -6 -47 -13 -77 -6 -29 -10 -68
-10 -85 1 -17 5 -5 10 29 4 33 15 85 23 115 9 30 32 113 52 183 19 71 51 165
70 208 42 98 110 237 125 256 7 7 10 16 7 19 -3 2 -12 -6 -21 -19z"/>
<path d="M3855 3470 c-8 -13 5 -13 25 0 13 8 13 10 -2 10 -9 0 -20 -4 -23 -10z"/>
<path d="M1226 3379 c-26 -50 -45 -93 -43 -95 2 -3 25 37 50 88 26 51 45 93
43 95 -2 2 -24 -38 -50 -88z"/>
<path d="M3110 3460 c0 -5 5 -10 10 -10 6 0 10 5 10 10 0 6 -4 10 -10 10 -5 0
-10 -4 -10 -10z"/>
<path d="M3157 3456 c-4 -10 -5 -21 -2 -24 9 -9 17 6 13 25 -3 17 -4 17 -11
-1z"/>
<path d="M3883 3448 c-24 -12 -29 -23 -14 -33 14 -8 61 16 61 32 0 15 -16 16
-47 1z"/>
<path d="M1897 3428 c-29 -21 -36 -48 -12 -48 8 0 15 5 15 11 0 5 6 7 13 3 6
-4 9 -3 4 1 -4 5 0 16 9 26 23 25 3 30 -29 7z m8 -18 c-3 -5 -11 -10 -16 -10
-6 0 -7 5 -4 10 3 6 11 10 16 10 6 0 7 -4 4 -10z"/>
<path d="M2285 3440 c-3 -5 1 -10 9 -10 8 0 18 5 21 10 3 6 -1 10 -9 10 -8 0
-18 -4 -21 -10z"/>
<path d="M2830 3430 c0 -5 4 -10 9 -10 6 0 13 5 16 10 3 6 -1 10 -9 10 -9 0
-16 -4 -16 -10z"/>
<path d="M3210 3433 c1 -14 40 -56 46 -50 3 3 -2 17 -13 31 -18 25 -33 34 -33
19z"/>
<path d="M3360 3393 c20 -38 26 -68 12 -59 -11 6 -47 -22 -38 -31 4 -4 11 -1
16 7 13 21 24 4 23 -34 -1 -45 183 -399 211 -404 25 -5 44 14 29 29 -6 6 -9
18 -6 25 3 8 0 14 -6 14 -6 0 -14 -14 -19 -31 -8 -31 -8 -31 -48 47 -22 44
-63 122 -91 174 -28 52 -54 105 -58 118 -10 35 11 26 25 -10 6 -18 16 -42 22
-53 26 -48 34 -61 44 -75 23 -30 64 -111 64 -125 0 -8 4 -15 9 -15 5 0 12 -12
16 -27 8 -28 8 -27 17 11 4 22 6 44 4 50 -2 6 -5 3 -5 -6 -1 -10 -6 -18 -12
-18 -7 0 -9 14 -5 38 8 51 -6 106 -27 110 -9 2 -17 -1 -17 -7 0 -6 7 -11 15
-11 8 0 15 -6 15 -14 0 -7 3 -28 6 -45 7 -33 -9 -44 -19 -13 -3 9 -22 46 -43
82 -68 121 -88 164 -76 168 19 6 14 33 -5 30 -13 -2 -17 5 -19 29 -2 35 -28
83 -44 83 -6 0 -1 -17 10 -37z"/>
<path d="M1800 3410 c0 -5 7 -10 15 -10 8 0 15 5 15 10 0 6 -7 10 -15 10 -8 0
-15 -4 -15 -10z"/>
<path d="M1356 3382 c-10 -19 -15 -36 -12 -39 3 -3 9 3 13 13 3 10 11 22 16
25 5 4 7 13 5 20 -3 9 -11 1 -22 -19z"/>
<path d="M3176 3401 c-4 -5 -2 -12 3 -15 5 -4 12 -2 15 3 4 5 2 12 -3 15 -5 4
-12 2 -15 -3z"/>
<path d="M2324 3387 c-8 -23 -1 -40 19 -43 21 -3 21 14 2 40 -13 17 -15 17
-21 3z"/>
<path d="M2598 3393 c7 -3 16 -2 19 1 4 3 -2 6 -13 5 -11 0 -14 -3 -6 -6z"/>
<path d="M2520 3369 c0 -5 7 -10 15 -10 8 -1 20 -2 25 -3 6 -1 11 3 13 9 1 5
-10 11 -25 12 -16 1 -28 -2 -28 -8z"/>
<path d="M2680 3360 c0 -5 5 -10 10 -10 6 0 10 5 10 10 0 6 -4 10 -10 10 -5 0
-10 -4 -10 -10z"/>
<path d="M1836 3337 c3 -10 9 -15 12 -12 3 3 0 11 -7 18 -10 9 -11 8 -5 -6z"/>
<path d="M2595 3340 c-3 -5 -1 -10 4 -10 6 0 11 5 11 10 0 6 -2 10 -4 10 -3 0
-8 -4 -11 -10z"/>
<path d="M1635 3330 c-3 -5 1 -10 9 -10 9 0 16 5 16 10 0 6 -4 10 -9 10 -6 0
-13 -4 -16 -10z"/>
<path d="M1693 3333 c-8 -3 -13 -22 -13 -48 0 -26 -6 -47 -15 -55 -12 -10 -15
-10 -15 3 0 8 -6 18 -12 20 -10 4 -10 8 2 16 8 5 18 7 22 5 4 -3 8 4 8 15 0
12 -4 21 -10 21 -5 0 -10 -7 -10 -15 0 -9 -6 -12 -17 -8 -10 4 -14 2 -10 -4 4
-6 3 -13 -1 -15 -5 -1 -12 -16 -15 -33 -5 -24 -4 -27 5 -14 10 14 13 14 28 2
18 -16 16 -21 -79 -187 -12 -21 -21 -40 -19 -42 6 -5 85 118 118 185 25 49 34
61 42 50 8 -11 9 -10 4 3 -3 10 1 30 9 45 8 15 15 33 15 39 0 14 -20 23 -37
17z m17 -49 c0 -8 -4 -12 -10 -9 -5 3 -10 10 -10 16 0 5 5 9 10 9 6 0 10 -7
10 -16z"/>
<path d="M1760 3309 c0 -11 5 -17 10 -14 6 3 10 13 10 21 0 8 -4 14 -10 14 -5
0 -10 -9 -10 -21z"/>
<path d="M2655 3320 c-3 -5 -3 -15 1 -21 6 -11 23 6 24 24 0 10 -18 9 -25 -3z"/>
<path d="M786 3305 c-3 -9 0 -15 9 -15 8 0 15 7 15 15 0 8 -4 15 -9 15 -5 0
-11 -7 -15 -15z"/>
<path d="M2441 3305 c0 -11 4 -29 9 -40 l9 -20 0 20 c0 11 -4 29 -9 40 l-9 20
0 -20z"/>
<path d="M3453 3313 c-19 -7 -16 -21 5 -19 13 1 16 -5 14 -26 -2 -20 2 -28 13
-28 8 0 15 -6 15 -14 0 -16 18 -31 27 -22 7 7 -46 116 -55 115 -4 0 -13 -3
-19 -6z"/>
<path d="M1592 3298 c-15 -15 -16 -48 -1 -48 5 0 7 5 4 10 -4 6 -1 18 6 26 15
18 7 28 -9 12z"/>
<path d="M2500 3294 c0 -8 10 -14 26 -14 28 0 25 15 -6 23 -13 3 -20 0 -20 -9z"/>
<path d="M2595 3300 c3 -5 8 -10 11 -10 2 0 4 5 4 10 0 6 -5 10 -11 10 -5 0
-7 -4 -4 -10z"/>
<path d="M2560 3274 c0 -14 3 -14 15 -4 8 7 15 14 15 16 0 2 -7 4 -15 4 -8 0
-15 -7 -15 -16z"/>
<path d="M3312 3278 c-7 -7 -12 -16 -12 -20 0 -15 15 -8 28 12 13 22 3 27 -16
8z"/>
<path d="M1787 3263 c3 -7 9 -13 14 -13 5 0 9 6 9 13 0 8 -6 14 -14 14 -8 0
-12 -6 -9 -14z"/>
<path d="M770 3259 c0 -5 5 -7 10 -4 6 3 10 8 10 11 0 2 -4 4 -10 4 -5 0 -10
-5 -10 -11z"/>
<path d="M2640 3254 c0 -8 5 -12 10 -9 6 4 8 11 5 16 -9 14 -15 11 -15 -7z"/>
<path d="M2692 3254 c-11 -12 -10 -14 3 -14 8 0 15 -1 15 -2 0 -2 -7 -25 -15
-52 -16 -52 -14 -71 4 -38 19 36 30 101 17 111 -7 6 -16 4 -24 -5z"/>
<path d="M3435 3260 c3 -5 10 -10 16 -10 5 0 9 5 9 10 0 6 -7 10 -16 10 -8 0
-12 -4 -9 -10z"/>
<path d="M1531 3218 c-12 -24 -30 -56 -39 -73 -17 -30 -24 -118 -9 -122 20 -7
24 1 17 39 -7 37 -4 52 22 103 16 33 33 64 39 70 11 11 12 25 1 25 -5 0 -18
-19 -31 -42z"/>
<path d="M1815 3250 c-7 -12 2 -30 16 -30 5 0 9 9 9 20 0 21 -15 27 -25 10z"/>
<path d="M2406 3233 c7 -31 12 -38 18 -32 7 7 -6 59 -15 59 -5 0 -6 -12 -3
-27z"/>
<path d="M2435 3210 c3 -79 3 -80 23 -80 12 0 13 3 5 8 -7 4 -11 17 -9 27 2
11 -2 38 -9 60 l-11 40 1 -55z"/>
<path d="M3260 3251 c0 -16 25 -30 39 -22 11 7 9 11 -7 20 -25 13 -32 14 -32
2z"/>
<path d="M1856 3234 c-4 -11 -1 -14 11 -12 9 2 18 9 21 16 6 18 -25 15 -32 -4z"/>
<path d="M765 3230 c3 -5 16 -10 28 -10 18 0 19 2 7 10 -20 13 -43 13 -35 0z"/>
<path d="M2568 3233 c6 -2 18 -2 25 0 6 3 1 5 -13 5 -14 0 -19 -2 -12 -5z"/>
<path d="M1752 3207 c-18 -42 -14 -68 4 -34 8 16 13 36 11 45 -3 13 -7 10 -15
-11z"/>
<path d="M825 3210 c3 -5 8 -10 11 -10 2 0 4 5 4 10 0 6 -5 10 -11 10 -5 0 -7
-4 -4 -10z"/>
<path d="M1375 3212 c-10 -11 -4 -32 9 -32 11 0 26 20 26 34 0 5 -30 3 -35 -2z"/>
<path d="M2538 3213 c-33 -8 -13 -53 23 -53 23 0 32 15 24 40 -6 20 -14 22
-47 13z"/>
<path d="M2596 3206 c7 -17 54 -23 54 -6 0 5 -7 7 -15 4 -8 -4 -22 -1 -30 6
-13 11 -14 10 -9 -4z"/>
<path d="M695 3200 c27 -12 43 -12 25 0 -8 5 -22 9 -30 9 -10 0 -8 -3 5 -9z"/>
<path d="M1420 3190 c0 -19 3 -21 12 -12 9 9 9 15 0 24 -9 9 -12 7 -12 -12z"/>
<path d="M1566 3203 c-11 -11 -6 -23 9 -23 9 0 18 -7 21 -15 8 -21 21 -19 27
4 3 13 0 18 -8 15 -7 -3 -19 2 -28 10 -8 8 -17 12 -21 9z"/>
<path d="M1686 3193 c-6 -14 -5 -15 5 -6 7 7 10 15 7 18 -3 3 -9 -2 -12 -12z"/>
<path d="M760 3192 c0 -6 -11 -63 -25 -128 -23 -110 -55 -336 -55 -393 0 -38
11 -17 16 31 14 132 63 427 79 475 2 7 0 15 -5 18 -6 4 -10 2 -10 -3z"/>
<path d="M940 3190 c0 -5 9 -10 20 -10 11 0 20 5 20 10 0 6 -9 10 -20 10 -11
0 -20 -4 -20 -10z"/>
<path d="M1812 3165 c-10 -21 -9 -25 3 -25 9 0 15 10 15 25 0 14 -2 25 -3 25
-2 0 -9 -11 -15 -25z"/>
<path d="M2335 3180 c3 -5 14 -10 23 -10 15 0 15 2 2 10 -20 13 -33 13 -25 0z"/>
<path d="M2485 3180 c4 -6 11 -8 16 -5 14 9 11 15 -7 15 -8 0 -12 -5 -9 -10z"/>
<path d="M3297 3184 c-8 -8 3 -34 14 -34 11 0 12 27 0 34 -4 3 -11 3 -14 0z"/>
<path d="M2406 3165 c-3 -8 -1 -15 4 -15 6 0 10 7 10 15 0 8 -2 15 -4 15 -2 0
-6 -7 -10 -15z"/>
<path d="M2656 3171 c-4 -7 -5 -15 -2 -18 9 -9 19 4 14 18 -4 11 -6 11 -12 0z"/>
<path d="M3530 3165 c0 -9 5 -15 11 -13 6 2 11 8 11 13 0 5 -5 11 -11 13 -6 2
-11 -4 -11 -13z"/>
<path d="M1660 3155 c-7 -9 -8 -15 -2 -15 5 0 12 7 16 15 3 8 4 15 2 15 -2 0
-9 -7 -16 -15z"/>
<path d="M2624 3154 c3 -8 -1 -22 -9 -31 -16 -15 -12 -33 7 -33 5 0 7 7 4 16
-5 13 -2 15 14 11 11 -3 23 -1 26 4 3 5 -2 9 -10 9 -9 0 -16 9 -16 20 0 11 -5
20 -11 20 -6 0 -8 -7 -5 -16z"/>
<path d="M621 3144 c0 -11 3 -14 6 -6 3 7 2 16 -1 19 -3 4 -6 -2 -5 -13z"/>
<path d="M815 3130 c-4 -17 -5 -34 -2 -36 2 -3 7 10 11 27 8 42 0 50 -9 9z"/>
<path d="M1540 3145 c-10 -12 -10 -15 4 -15 9 0 16 7 16 15 0 8 -2 15 -4 15
-2 0 -9 -7 -16 -15z"/>
<path d="M3580 3140 c0 -11 4 -20 9 -20 5 0 7 9 4 20 -3 11 -7 20 -9 20 -2 0
-4 -9 -4 -20z"/>
<path d="M2294 3141 c-2 -2 -4 -9 -4 -15 0 -6 5 -4 10 4 5 8 10 11 10 5 0 -5
14 -11 31 -12 26 -2 29 0 19 12 -11 13 -54 17 -66 6z"/>
<path d="M2781 3141 c-9 -6 -3 -10 18 -13 19 -3 31 0 31 7 0 13 -31 17 -49 6z"/>
<path d="M1575 3131 c3 -5 1 -12 -5 -16 -12 -7 -66 -121 -76 -159 -6 -26 -8
-27 -17 -10 -10 17 -12 15 -18 -16 -8 -39 9 -61 26 -34 6 9 20 32 33 51 12 19
20 38 17 43 -3 5 10 41 30 80 28 55 32 70 20 70 -9 0 -14 -4 -10 -9z"/>
<path d="M2402 3123 c-14 -26 -16 -45 -2 -23 7 11 11 9 20 -14 6 -16 13 -26
17 -22 3 3 1 16 -5 29 -6 12 -12 29 -15 37 -3 11 -6 10 -15 -7z"/>
<path d="M1635 3110 c-6 -11 -38 -66 -73 -121 -35 -56 -61 -103 -59 -105 3 -4
38 49 136 208 12 21 19 38 14 38 -4 0 -13 -9 -18 -20z"/>
<path d="M1781 3101 c-7 -15 -28 -45 -47 -65 -23 -24 -29 -36 -19 -36 9 0 18
7 21 15 4 8 12 15 20 15 8 0 14 8 14 19 0 10 11 30 24 44 13 14 21 28 18 31
-11 12 -20 5 -31 -23z"/>
<path d="M2726 3099 c-10 -49 -7 -56 9 -25 17 32 19 56 6 56 -5 0 -11 -14 -15
-31z"/>
<path d="M3207 3108 c8 -37 27 -78 35 -78 5 0 8 -6 8 -13 0 -8 16 -30 35 -50
19 -20 35 -40 35 -46 0 -5 18 -29 40 -52 27 -29 40 -52 40 -71 0 -17 7 -31 21
-38 25 -14 41 -3 16 11 -25 15 -22 55 6 64 20 7 19 8 -11 12 -29 4 -44 18
-109 106 -42 56 -83 119 -91 140 -16 40 -33 51 -25 15z"/>
<path d="M1096 3105 c-3 -9 -6 -24 -5 -33 0 -9 5 -4 10 12 9 32 6 48 -5 21z"/>
<path d="M2570 3110 c0 -5 5 -10 10 -10 6 0 10 5 10 10 0 6 -4 10 -10 10 -5 0
-10 -4 -10 -10z"/>
<path d="M2682 3113 c-6 -2 -10 -9 -7 -13 7 -11 35 -2 35 11 0 10 -8 10 -28 2z"/>
<path d="M3301 3104 c0 -11 3 -14 6 -6 3 7 2 16 -1 19 -3 4 -6 -2 -5 -13z"/>
<path d="M2260 3100 c0 -5 5 -10 10 -10 6 0 10 5 10 10 0 6 -4 10 -10 10 -5 0
-10 -4 -10 -10z"/>
<path d="M612 3075 c0 -16 2 -22 5 -12 2 9 2 23 0 30 -3 6 -5 -1 -5 -18z"/>
<path d="M1510 3089 c0 -5 5 -7 10 -4 6 3 10 8 10 11 0 2 -4 4 -10 4 -5 0 -10
-5 -10 -11z"/>
<path d="M2800 3090 c-13 -8 -12 -10 3 -10 9 0 17 5 17 10 0 12 -1 12 -20 0z"/>
<path d="M3320 3095 c0 -4 7 -19 15 -35 16 -31 35 -40 35 -17 -1 21 -50 72
-50 52z"/>
<path d="M3582 3060 c-2 -21 4 -32 19 -40 25 -14 41 -3 16 11 -9 6 -17 21 -17
34 0 35 -15 31 -18 -5z"/>
<path d="M2285 3043 c6 -26 25 -47 33 -38 7 6 -22 65 -32 65 -4 0 -5 -12 -1
-27z"/>
<path d="M2230 3050 c-12 -7 -10 -11 10 -18 14 -5 29 -7 35 -4 5 3 2 8 -5 10
-8 3 -17 9 -20 13 -3 4 -12 4 -20 -1z"/>
<path d="M2799 3033 c-12 -32 -12 -33 6 -33 8 0 12 6 9 13 -3 8 2 20 11 27 12
10 18 10 30 0 10 -9 15 -9 15 -1 0 12 -1 12 -38 16 -17 2 -26 -5 -33 -22z"/>
<path d="M925 3040 c3 -5 8 -10 11 -10 2 0 4 5 4 10 0 6 -5 10 -11 10 -5 0 -7
-4 -4 -10z"/>
<path d="M2500 3041 c0 -15 28 -33 64 -41 27 -6 36 -4 40 9 3 9 9 22 12 29 4
9 -10 12 -55 12 -34 0 -61 -4 -61 -9z"/>
<path d="M2893 3030 c2 -11 9 -26 15 -32 7 -7 12 -19 12 -27 0 -8 3 -12 6 -9
8 8 -17 88 -28 88 -4 0 -6 -9 -5 -20z"/>
<path d="M2430 3036 c0 -10 43 -77 46 -73 7 7 -26 77 -36 77 -6 0 -10 -2 -10
-4z"/>
<path d="M2827 3026 c-6 -16 2 -28 14 -20 12 7 11 34 0 34 -5 0 -11 -6 -14
-14z"/>
<path d="M783 3015 c-3 -9 -3 -18 -1 -21 3 -3 8 4 11 16 6 23 -1 27 -10 5z"/>
<path d="M1655 3000 c-9 -18 -14 -34 -11 -37 2 -3 12 9 21 27 9 18 14 34 11
37 -2 3 -12 -9 -21 -27z"/>
<path d="M2401 3010 c14 -31 19 -36 19 -24 0 6 -7 19 -16 30 -14 18 -14 18 -3
-6z"/>
<path d="M2670 3020 c0 -5 5 -10 11 -10 5 0 7 5 4 10 -3 6 -8 10 -11 10 -2 0
-4 -4 -4 -10z"/>
<path d="M3382 3018 c-19 -19 -14 -30 8 -18 11 6 25 8 30 5 6 -3 10 -4 10 -1
0 14 -38 24 -48 14z"/>
<path d="M3650 2995 c0 -8 4 -15 10 -15 5 0 7 7 4 15 -4 8 -8 15 -10 15 -2 0
-4 -7 -4 -15z"/>
<path d="M2240 2989 c0 -4 -2 -13 -5 -21 -4 -9 3 -13 20 -13 14 0 25 4 25 8 0
5 5 5 10 2 7 -4 6 -13 -1 -26 -5 -11 -7 -30 -4 -42 4 -15 3 -18 -3 -9 -7 11
-10 9 -15 -8 -4 -17 -2 -21 16 -18 20 3 22 10 25 67 3 54 1 63 -12 58 -9 -4
-16 -2 -16 3 0 5 -9 8 -20 7 -11 -1 -20 -4 -20 -8z"/>
<path d="M2670 2985 c0 -8 7 -15 16 -15 14 0 14 3 4 15 -7 8 -14 15 -16 15 -2
0 -4 -7 -4 -15z"/>
<path d="M2873 2988 c7 -19 -7 -25 -18 -9 -3 6 -15 9 -28 8 -25 -2 -53 -23
-36 -29 9 -3 41 -175 56 -300 3 -28 11 -49 20 -53 12 -4 14 0 8 17 -6 21 -18
81 -30 150 -3 19 1 28 13 31 15 4 15 5 1 6 -12 1 -20 18 -28 61 -7 33 -9 65
-5 71 3 6 0 15 -7 20 -11 7 -11 9 -1 9 7 0 25 -8 39 -17 15 -10 24 -13 20 -6
-4 7 0 16 8 21 15 8 15 10 -1 23 -16 12 -17 12 -11 -3z"/>
<path d="M2210 2969 c-7 -11 -10 -23 -7 -25 2 -2 9 7 15 21 14 30 7 33 -8 4z"/>
<path d="M2610 2980 c0 -5 5 -10 11 -10 5 0 7 5 4 10 -3 6 -8 10 -11 10 -2 0
-4 -4 -4 -10z"/>
<path d="M3420 2985 c0 -11 56 -95 63 -95 5 0 -1 15 -13 33 -12 17 -24 40 -27
50 -5 15 -23 25 -23 12z"/>
<path d="M771 2964 c0 -11 3 -14 6 -6 3 7 2 16 -1 19 -3 4 -6 -2 -5 -13z"/>
<path d="M2340 2961 c0 -12 5 -21 10 -21 6 0 10 6 10 14 0 8 -4 18 -10 21 -5
3 -10 -3 -10 -14z"/>
<path d="M1680 2948 c0 -17 2 -18 15 -8 8 7 15 14 15 15 0 2 -7 5 -15 9 -10 4
-15 -1 -15 -16z"/>
<path d="M2562 2963 c-18 -2 -30 -8 -27 -12 6 -10 53 -2 61 10 3 5 4 8 2 7 -2
0 -18 -3 -36 -5z"/>
<path d="M3660 2947 c0 -27 30 -120 37 -114 2 3 -3 31 -11 63 -8 31 -13 61
-10 66 3 4 0 8 -5 8 -6 0 -11 -10 -11 -23z"/>
<path d="M2485 2950 c-3 -5 -1 -10 4 -10 6 0 11 5 11 10 0 6 -2 10 -4 10 -3 0
-8 -4 -11 -10z"/>
<path d="M2615 2950 c-3 -5 -1 -10 4 -10 6 0 11 5 11 10 0 6 -2 10 -4 10 -3 0
-8 -4 -11 -10z"/>
<path d="M2910 2913 c43 -122 63 -145 23 -28 -13 41 -28 75 -32 75 -5 0 0 -21
9 -47z"/>
<path d="M2091 2927 c-16 -41 -13 -57 5 -24 8 16 13 34 11 40 -3 7 -10 -1 -16
-16z"/>
<path d="M2770 2941 c0 -6 -12 -30 -26 -52 -14 -22 -23 -46 -20 -52 2 -7 8 -2
11 11 4 12 11 22 15 22 11 0 34 69 26 77 -3 4 -6 1 -6 -6z"/>
<path d="M2371 2924 c0 -11 3 -14 6 -6 3 7 2 16 -1 19 -3 4 -6 -2 -5 -13z"/>
<path d="M3400 2928 c0 -18 18 -34 28 -24 3 4 -2 14 -11 23 -16 16 -17 16 -17
1z"/>
<path d="M2205 2900 c-4 -12 -5 -24 -2 -27 3 -2 8 5 12 17 4 12 5 24 2 27 -3
2 -8 -5 -12 -17z"/>
<path d="M3010 2905 c0 -8 5 -15 10 -15 6 0 10 7 10 15 0 8 -4 15 -10 15 -5 0
-10 -7 -10 -15z"/>
<path d="M3851 2904 c0 -11 3 -14 6 -6 3 7 2 16 -1 19 -3 4 -6 -2 -5 -13z"/>
<path d="M2160 2848 c-12 -29 -26 -80 -30 -113 -5 -33 -18 -102 -29 -152 -12
-51 -21 -98 -20 -105 2 -20 59 214 59 242 0 28 28 133 29 112 1 -15 21 -6 21
9 0 6 -4 7 -10 4 -13 -8 -13 1 1 27 6 11 9 22 6 24 -2 3 -14 -19 -27 -48z"/>
<path d="M2396 2885 c4 -8 8 -15 10 -15 2 0 4 7 4 15 0 8 -4 15 -10 15 -5 0
-7 -7 -4 -15z"/>
<path d="M2950 2888 c0 -7 5 -20 10 -28 8 -12 10 -11 10 7 0 12 -4 25 -10 28
-5 3 -10 0 -10 -7z"/>
<path d="M1445 2871 c-6 -11 9 -23 19 -14 9 9 7 23 -3 23 -6 0 -12 -4 -16 -9z"/>
<path d="M3480 2870 c0 -5 7 -10 15 -10 8 0 15 5 15 10 0 6 -7 10 -15 10 -8 0
-15 -4 -15 -10z"/>
<path d="M845 2859 c-4 -6 -5 -12 -3 -14 7 -7 48 7 48 16 0 13 -37 11 -45 -2z"/>
<path d="M917 2863 c-14 -14 -6 -20 19 -15 19 3 22 7 12 13 -16 11 -23 11 -31
2z"/>
<path d="M1473 2855 c-5 -8 -21 -16 -36 -17 -33 -3 -54 -22 -36 -33 6 -4 14
-4 18 1 3 5 13 10 21 12 20 4 68 52 53 52 -7 0 -16 -7 -20 -15z"/>
<path d="M752 2840 c0 -14 2 -19 5 -12 2 6 2 18 0 25 -3 6 -5 1 -5 -13z"/>
<path d="M1013 2845 c-3 -9 -3 -18 -1 -21 3 -3 8 4 11 16 6 23 -1 27 -10 5z"/>
<path d="M1080 2850 c0 -5 5 -10 10 -10 6 0 10 5 10 10 0 6 -4 10 -10 10 -5 0
-10 -4 -10 -10z"/>
<path d="M2441 2844 c0 -11 3 -14 6 -6 3 7 2 16 -1 19 -3 4 -6 -2 -5 -13z"/>
<path d="M3575 2850 c-3 -5 -1 -10 4 -10 6 0 11 5 11 10 0 6 -2 10 -4 10 -3 0
-8 -4 -11 -10z"/>
<path d="M1111 2846 c12 -10 59 -15 59 -6 0 5 -14 10 -32 10 -17 0 -29 -2 -27
-4z"/>
<path d="M1190 2840 c0 -5 5 -10 11 -10 5 0 7 5 4 10 -3 6 -8 10 -11 10 -2 0
-4 -4 -4 -10z"/>
<path d="M2265 2839 c-3 -4 2 -10 11 -13 14 -5 15 -15 10 -59 -4 -28 -9 -72
-11 -97 -4 -40 -4 -42 5 -15 6 17 13 66 16 111 6 71 5 81 -10 81 -9 0 -19 -4
-21 -8z"/>
<path d="M3020 2840 c0 -5 5 -10 10 -10 6 0 10 5 10 10 0 6 -4 10 -10 10 -5 0
-10 -4 -10 -10z"/>
<path d="M3628 2820 c32 -29 52 -38 52 -22 0 20 -30 46 -56 49 l-29 3 33 -30z"/>
<path d="M1557 2821 c-3 -14 -1 -18 9 -14 8 3 14 11 14 19 0 21 -17 17 -23 -5z"/>
<path d="M2093 2823 c1 -10 -9 -59 -22 -110 -12 -51 -21 -98 -19 -105 3 -7 15
30 27 82 28 117 32 150 20 150 -5 0 -8 -8 -6 -17z"/>
<path d="M2971 2830 c-1 -22 31 -174 39 -183 4 -4 1 24 -6 63 -16 84 -32 141
-33 120z"/>
<path d="M1081 2804 c0 -11 3 -14 6 -6 3 7 2 16 -1 19 -3 4 -6 -2 -5 -13z"/>
<path d="M2230 2812 c0 -4 -14 -13 -32 -20 -17 -6 -29 -14 -26 -18 8 -8 68 24
68 36 0 6 -2 10 -5 10 -3 0 -5 -4 -5 -8z"/>
<path d="M3530 2811 c0 -5 7 -11 14 -14 10 -4 13 -1 9 9 -6 15 -23 19 -23 5z"/>
<path d="M3694 2803 c6 -20 -14 -57 -33 -59 -6 -1 -14 -2 -18 -3 -3 0 1 -9 10
-18 18 -21 33 -76 42 -154 6 -48 4 -60 -11 -76 -12 -11 -20 -35 -21 -60 -2
-47 -27 -93 -52 -93 -9 -1 -25 -15 -36 -33 -11 -18 -25 -30 -30 -27 -6 3 -9 8
-7 13 6 20 -10 4 -18 -18 -8 -20 -16 -25 -45 -25 -28 0 -35 4 -35 20 0 11 4
20 9 20 5 0 22 18 38 40 28 39 50 54 39 25 -3 -8 -1 -15 4 -15 12 0 13 20 1
39 -7 10 -11 9 -22 -5 -8 -11 -24 -20 -37 -22 -31 -5 -39 24 -14 51 11 12 28
38 37 57 10 19 25 40 34 47 9 7 11 13 5 13 -15 0 -34 45 -34 80 0 29 -14 38
-35 22 -6 -4 -27 -33 -48 -64 -40 -62 -47 -67 -67 -43 -15 18 -7 66 21 129 21
49 34 62 44 46 3 -5 11 -10 18 -10 8 0 8 3 -1 12 -20 20 -15 40 8 33 12 -4 20
-2 20 4 0 6 -13 10 -29 9 -25 -2 -36 -12 -65 -62 -37 -63 -55 -139 -39 -165 6
-9 24 -17 41 -19 28 -3 35 3 69 54 28 43 39 52 41 38 2 -10 7 -30 13 -44 8
-21 4 -36 -21 -83 -18 -31 -36 -57 -41 -57 -18 0 -9 -49 11 -60 21 -11 17 -40
-6 -40 -14 0 -14 -37 1 -60 19 -30 133 12 162 60 9 16 22 30 29 30 22 0 45 39
51 89 3 28 12 56 19 62 17 14 19 140 4 169 -6 10 -11 30 -12 44 -1 13 -6 22
-10 20 -17 -11 -7 12 12 29 22 18 27 62 9 73 -7 4 -9 0 -5 -13z"/>
<path d="M1515 2799 c-9 -14 -2 -20 14 -10 8 6 9 11 3 15 -6 3 -14 1 -17 -5z"/>
<path d="M3871 2794 c0 -11 3 -14 6 -6 3 7 2 16 -1 19 -3 4 -6 -2 -5 -13z"/>
<path d="M995 2770 c-4 -17 -5 -34 -2 -36 2 -3 7 10 11 27 8 42 0 50 -9 9z"/>
<path d="M2332 2794 c20 -44 33 -64 40 -64 11 0 -18 56 -33 66 -6 4 -10 3 -7
-2z"/>
<path d="M2778 2779 c-10 -10 -18 -21 -18 -24 0 -9 49 29 50 38 0 12 -14 6
-32 -14z"/>
<path d="M2900 2793 c40 -8 45 -17 70 -119 13 -53 26 -92 28 -86 3 9 -6 47
-39 175 -9 35 -12 37 -47 36 -28 -1 -31 -3 -12 -6z"/>
<path d="M3021 2774 c0 -11 3 -14 6 -6 3 7 2 16 -1 19 -3 4 -6 -2 -5 -13z"/>
<path d="M3470 2780 c0 -5 3 -11 8 -11 35 -6 49 -4 49 7 0 10 -4 11 -13 3 -8
-7 -14 -7 -19 1 -8 13 -25 13 -25 0z"/>
<path d="M1587 2773 c-11 -10 -8 -43 3 -43 6 0 10 11 10 25 0 26 -2 29 -13 18z"/>
<path d="M741 2754 c0 -11 3 -14 6 -6 3 7 2 16 -1 19 -3 4 -6 -2 -5 -13z"/>
<path d="M1540 2750 c0 -5 7 -10 16 -10 8 0 12 5 9 10 -3 6 -10 10 -16 10 -5
0 -9 -4 -9 -10z"/>
<path d="M3466 2747 c3 -10 9 -15 12 -12 3 3 0 11 -7 18 -10 9 -11 8 -5 -6z"/>
<path d="M3520 2741 c0 -5 11 -13 25 -18 l26 -8 -20 -22 c-20 -21 -20 -22 -1
-20 11 1 20 6 20 12 0 5 3 21 7 34 5 21 3 23 -15 19 -12 -4 -22 -2 -22 3 0 5
-4 9 -10 9 -5 0 -10 -4 -10 -9z"/>
<path d="M1485 2730 c-3 -5 -1 -10 4 -10 6 0 11 5 11 10 0 6 -2 10 -4 10 -3 0
-8 -4 -11 -10z"/>
<path d="M1510 2725 c0 -8 7 -15 16 -15 14 0 14 3 4 15 -7 8 -14 15 -16 15 -2
0 -4 -7 -4 -15z"/>
<path d="M2813 2705 c0 -22 2 -30 4 -17 2 12 2 30 0 40 -3 9 -5 -1 -4 -23z"/>
<path d="M3490 2725 c0 -8 4 -15 10 -15 5 0 7 7 4 15 -4 8 -8 15 -10 15 -2 0
-4 -7 -4 -15z"/>
<path d="M2465 2720 c3 -5 8 -10 11 -10 2 0 4 5 4 10 0 6 -5 10 -11 10 -5 0
-7 -4 -4 -10z"/>
<path d="M4631 2714 c0 -11 3 -14 6 -6 3 7 2 16 -1 19 -3 4 -6 -2 -5 -13z"/>
<path d="M982 2700 c0 -14 2 -19 5 -12 2 6 2 18 0 25 -3 6 -5 1 -5 -13z"/>
<path d="M1600 2710 c0 -5 5 -10 10 -10 6 0 10 5 10 10 0 6 -4 10 -10 10 -5 0
-10 -4 -10 -10z"/>
<path d="M3047 2683 c11 -65 23 -94 18 -43 -2 25 -4 53 -4 63 -1 9 -5 17 -10
17 -6 0 -7 -17 -4 -37z"/>
<path d="M3590 2701 c-13 -26 -13 -31 5 -31 8 0 15 4 15 9 0 5 3 16 6 25 9 23
-13 20 -26 -3z"/>
<path d="M3882 2695 c0 -16 2 -22 5 -12 2 9 2 23 0 30 -3 6 -5 -1 -5 -18z"/>
<path d="M1062 2685 c0 -16 2 -22 5 -12 2 9 2 23 0 30 -3 6 -5 -1 -5 -18z"/>
<path d="M1211 2694 c0 -11 3 -14 6 -6 3 7 2 16 -1 19 -3 4 -6 -2 -5 -13z"/>
<path d="M1453 2697 c-9 -15 20 -27 34 -15 7 6 13 14 13 19 0 10 -40 7 -47 -4z"/>
<path d="M1510 2691 c0 -5 7 -11 15 -15 8 -3 15 -1 15 3 0 5 -7 11 -15 15 -8
3 -15 1 -15 -3z"/>
<path d="M2465 2690 c3 -5 8 -10 11 -10 2 0 4 5 4 10 0 6 -5 10 -11 10 -5 0
-7 -4 -4 -10z"/>
<path d="M3620 2690 c0 -6 7 -10 15 -10 8 0 15 2 15 4 0 2 -7 6 -15 10 -8 3
-15 1 -15 -4z"/>
<path d="M1640 2680 c0 -5 5 -10 10 -10 6 0 10 5 10 10 0 6 -4 10 -10 10 -5 0
-10 -4 -10 -10z"/>
<path d="M3453 2674 c0 -16 13 -19 21 -5 3 5 0 11 -7 14 -8 3 -14 -1 -14 -9z"/>
<path d="M732 2660 c0 -14 2 -19 5 -12 2 6 2 18 0 25 -3 6 -5 1 -5 -13z"/>
<path d="M972 2650 c0 -14 2 -19 5 -12 2 6 2 18 0 25 -3 6 -5 1 -5 -13z"/>
<path d="M1425 2650 c-3 -5 -1 -10 4 -10 6 0 11 5 11 10 0 6 -2 10 -4 10 -3 0
-8 -4 -11 -10z"/>
<path d="M3405 2650 c3 -5 14 -10 23 -10 15 0 15 2 2 10 -20 13 -33 13 -25 0z"/>
<path d="M3530 2639 c0 -5 5 -7 10 -4 6 3 10 8 10 11 0 2 -4 4 -10 4 -5 0 -10
-5 -10 -11z"/>
<path d="M4340 2642 c0 -4 9 -8 20 -9 11 -1 20 2 20 8 0 5 -9 9 -20 9 -11 0
-20 -4 -20 -8z"/>
<path d="M942 2620 c0 -14 2 -19 5 -12 2 6 2 18 0 25 -3 6 -5 1 -5 -13z"/>
<path d="M1521 2622 c-6 -12 -11 -27 -11 -34 1 -7 8 0 16 15 9 16 13 31 11 34
-3 2 -10 -4 -16 -15z"/>
<path d="M1650 2630 c0 -5 7 -10 16 -10 8 0 12 5 9 10 -3 6 -10 10 -16 10 -5
0 -9 -4 -9 -10z"/>
<path d="M2230 2630 c0 -5 7 -10 16 -10 8 0 13 -4 9 -9 -3 -5 -1 -12 5 -16 5
-3 10 1 10 9 0 8 -9 20 -20 26 -14 7 -20 7 -20 0z"/>
<path d="M3566 2631 c-3 -5 3 -11 13 -14 14 -3 18 -1 14 9 -6 16 -19 18 -27 5z"/>
<path d="M3881 2624 c0 -11 3 -14 6 -6 3 7 2 16 -1 19 -3 4 -6 -2 -5 -13z"/>
<path d="M2195 2620 c-3 -5 1 -10 10 -10 9 0 13 5 10 10 -3 6 -8 10 -10 10 -2
0 -7 -4 -10 -10z"/>
<path d="M3022 2610 c0 -14 2 -19 5 -12 2 6 2 18 0 25 -3 6 -5 1 -5 -13z"/>
<path d="M3395 2620 c3 -5 11 -10 16 -10 6 0 7 5 4 10 -3 6 -11 10 -16 10 -6
0 -7 -4 -4 -10z"/>
<path d="M4220 2620 c0 -6 16 -8 43 -4 58 9 59 14 4 14 -26 0 -47 -5 -47 -10z"/>
<path d="M1082 2605 c9 -9 88 -11 101 -3 7 4 -15 8 -47 8 -33 0 -57 -2 -54 -5z"/>
<path d="M1450 2600 c-8 -5 -11 -12 -8 -16 10 -9 38 3 38 16 0 12 -10 13 -30
0z"/>
<path d="M3525 2600 c3 -5 10 -10 16 -10 5 0 9 5 9 10 0 6 -7 10 -16 10 -8 0
-12 -4 -9 -10z"/>
<path d="M1405 2590 c3 -5 8 -10 11 -10 2 0 4 5 4 10 0 6 -5 10 -11 10 -5 0
-7 -4 -4 -10z"/>
<path d="M1650 2589 c0 -5 5 -7 10 -4 6 3 10 8 10 11 0 2 -4 4 -10 4 -5 0 -10
-5 -10 -11z"/>
<path d="M2032 2575 c0 -16 2 -22 5 -12 2 9 2 23 0 30 -3 6 -5 -1 -5 -18z"/>
<path d="M3375 2590 c3 -5 10 -10 16 -10 5 0 9 5 9 10 0 6 -7 10 -16 10 -8 0
-12 -4 -9 -10z"/>
<path d="M3591 2584 c0 -11 3 -14 6 -6 3 7 2 16 -1 19 -3 4 -6 -2 -5 -13z"/>
<path d="M3620 2590 c0 -5 9 -10 19 -10 11 0 23 -9 26 -20 3 -11 10 -20 15
-20 13 0 -1 33 -19 47 -19 15 -41 17 -41 3z"/>
<path d="M937 2577 c-3 -8 -4 -17 -1 -20 8 -8 54 5 48 14 -3 5 -10 6 -16 3 -6
-4 -14 -1 -18 6 -5 9 -9 8 -13 -3z"/>
<path d="M3072 2565 c0 -16 2 -22 5 -12 2 9 2 23 0 30 -3 6 -5 -1 -5 -18z"/>
<path d="M4365 2580 c-3 -5 1 -10 9 -10 9 0 16 5 16 10 0 6 -4 10 -9 10 -6 0
-13 -4 -16 -10z"/>
<path d="M790 2570 c0 -5 9 -10 21 -10 11 0 17 5 14 10 -3 6 -13 10 -21 10 -8
0 -14 -4 -14 -10z"/>
<path d="M1000 2565 c0 -13 4 -14 20 -5 11 6 20 13 20 15 0 3 -9 5 -20 5 -11
0 -20 -7 -20 -15z"/>
<path d="M2220 2571 c-33 -6 -34 -7 -11 -15 16 -6 28 -3 39 8 9 9 14 15 12 15
-3 -1 -21 -5 -40 -8z"/>
<path d="M2860 2565 c0 -8 4 -15 8 -15 5 0 9 7 9 15 0 8 -4 15 -9 15 -4 0 -8
-7 -8 -15z"/>
<path d="M2890 2570 c0 -5 9 -10 20 -10 11 0 20 5 20 10 0 6 -9 10 -20 10 -11
0 -20 -4 -20 -10z"/>
<path d="M860 2559 c0 -5 9 -9 20 -9 11 0 20 2 20 4 0 2 -9 6 -20 9 -11 3 -20
1 -20 -4z"/>
<path d="M3360 2555 c0 -8 5 -15 10 -15 6 0 10 7 10 15 0 8 -4 15 -10 15 -5 0
-10 -7 -10 -15z"/>
<path d="M3620 2561 c0 -5 5 -13 10 -16 6 -3 10 -2 10 4 0 5 -4 13 -10 16 -5
3 -10 2 -10 -4z"/>
<path d="M4330 2563 c0 -5 -25 -6 -56 -5 -34 3 -54 0 -51 -5 9 -14 110 -9 115
5 2 7 1 12 -2 12 -3 0 -6 -3 -6 -7z"/>
<path d="M1202 2540 c0 -14 2 -19 5 -12 2 6 2 18 0 25 -3 6 -5 1 -5 -13z"/>
<path d="M1390 2550 c0 -5 5 -10 10 -10 6 0 10 5 10 10 0 6 -4 10 -10 10 -5 0
-10 -4 -10 -10z"/>
<path d="M1430 2552 c0 -4 11 -9 26 -10 14 -1 23 2 19 8 -7 12 -45 14 -45 2z"/>
<path d="M1505 2550 c-3 -5 -1 -18 4 -27 9 -15 10 -14 9 10 -3 30 -4 32 -13
17z"/>
<path d="M3011 2544 c0 -11 3 -14 6 -6 3 7 2 16 -1 19 -3 4 -6 -2 -5 -13z"/>
<path d="M3585 2550 c-3 -5 1 -10 10 -10 9 0 13 5 10 10 -3 6 -8 10 -10 10 -2
0 -7 -4 -10 -10z"/>
<path d="M3553 2515 c0 -8 4 -12 9 -9 4 3 8 9 8 15 0 5 -4 9 -8 9 -5 0 -9 -7
-9 -15z"/>
<path d="M3877 2448 c-4 -45 -3 -86 1 -90 4 -4 9 33 10 82 2 50 1 90 -1 90 -2
0 -7 -37 -10 -82z"/>
<path d="M3577 2501 c-3 -12 -1 -21 3 -21 14 0 19 15 11 29 -6 9 -10 7 -14 -8z"/>
<path d="M935 2500 c-5 -8 33 -251 40 -258 7 -8 -1 80 -16 167 -14 82 -14 81
31 75 22 -3 40 -1 40 5 0 9 -89 20 -95 11z"/>
<path d="M811 2460 l1 -35 11 28 c10 24 16 27 54 27 24 0 43 4 43 9 0 6 -25 9
-55 8 l-55 -2 1 -35z"/>
<path d="M1040 2490 c0 -5 20 -10 45 -10 25 0 45 5 45 10 0 6 -20 10 -45 10
-25 0 -45 -4 -45 -10z"/>
<path d="M1160 2475 c1 -26 2 -28 11 -12 8 14 8 22 0 30 -8 8 -11 3 -11 -18z"/>
<path d="M1470 2476 c0 -14 5 -26 10 -26 6 0 10 9 10 19 0 11 -4 23 -10 26 -6
4 -10 -5 -10 -19z"/>
<path d="M3628 2455 c-3 -14 -1 -25 3 -25 5 0 9 11 9 25 0 14 -2 25 -4 25 -2
0 -6 -11 -8 -25z"/>
<path d="M3568 2462 c0 -4 -2 -11 -3 -17 -1 -5 -5 -18 -10 -28 -4 -10 -5 -21
-2 -24 4 -3 11 7 17 22 7 18 15 25 25 21 20 -7 19 -4 -5 17 -11 9 -21 13 -22
9z"/>
<path d="M3514 2448 c-3 -4 2 -8 10 -8 19 0 21 -11 4 -28 -8 -8 -8 -12 -1 -12
11 0 23 22 23 44 0 14 -28 17 -36 4z"/>
<path d="M4172 2435 c0 -16 2 -22 5 -12 2 9 2 23 0 30 -3 6 -5 -1 -5 -18z"/>
<path d="M2911 2434 c0 -11 3 -14 6 -6 3 7 2 16 -1 19 -3 4 -6 -2 -5 -13z"/>
<path d="M741 2369 c0 -35 4 -84 9 -109 5 -29 6 -9 2 60 -5 118 -12 147 -11
49z"/>
<path d="M688 2414 c-12 -19 23 -255 56 -374 2 -8 9 -34 15 -58 7 -23 14 -42
17 -42 5 0 -3 48 -21 120 -17 68 -42 213 -53 300 -4 36 -11 60 -14 54z"/>
<path d="M991 2404 c0 -11 3 -14 6 -6 3 7 2 16 -1 19 -3 4 -6 -2 -5 -13z"/>
<path d="M1436 2411 c-4 -7 -5 -15 -2 -18 9 -9 19 4 14 18 -4 11 -6 11 -12 0z"/>
<path d="M3490 2390 c-8 -5 -12 -12 -9 -15 4 -3 12 1 19 10 14 17 11 19 -10 5z"/>
<path d="M1001 2354 c1 -16 5 -40 9 -54 6 -17 7 -9 3 25 -6 56 -14 74 -12 29z"/>
<path d="M4161 2364 c0 -11 3 -14 6 -6 3 7 2 16 -1 19 -3 4 -6 -2 -5 -13z"/>
<path d="M1506 2343 c-4 -10 -4 -14 0 -10 4 4 14 1 22 -6 13 -10 14 -9 3 11
-14 27 -17 27 -25 5z"/>
<path d="M2104 2339 c-4 -8 3 -9 22 -5 44 9 95 -7 116 -35 18 -23 18 -33 9
-99 -5 -41 -6 -80 -2 -88 13 -23 24 148 12 180 -6 15 -24 34 -40 43 -35 17
-107 20 -117 4z"/>
<path d="M3552 2338 c-14 -14 -16 -28 -3 -28 5 0 11 9 14 20 6 23 5 24 -11 8z"/>
<path d="M2893 2328 c-13 -6 -23 -15 -23 -21 0 -5 6 -4 14 3 8 6 36 15 63 20
l48 8 -40 0 c-22 0 -50 -4 -62 -10z"/>
<path d="M1516 2306 c2 -6 14 -12 24 -13 25 -2 18 13 -9 20 -12 3 -18 0 -15
-7z"/>
<path d="M2380 2305 c0 -8 2 -15 4 -15 2 0 6 7 10 15 3 8 1 15 -4 15 -6 0 -10
-7 -10 -15z"/>
<path d="M4081 2304 c0 -11 3 -14 6 -6 3 7 2 16 -1 19 -3 4 -6 -2 -5 -13z"/>
<path d="M2831 2209 c0 -101 11 -180 21 -164 7 11 -9 246 -17 254 -3 2 -5 -38
-4 -90z"/>
<path d="M3483 2293 c-15 -5 -17 -23 -4 -23 5 0 11 7 15 15 3 8 4 15 3 14 -1
0 -8 -3 -14 -6z"/>
<path d="M2900 2280 c0 -5 5 -10 11 -10 5 0 7 5 4 10 -3 6 -8 10 -11 10 -2 0
-4 -4 -4 -10z"/>
<path d="M1022 2245 c0 -16 2 -22 5 -12 2 9 2 23 0 30 -3 6 -5 -1 -5 -18z"/>
<path d="M4142 2240 c0 -14 2 -19 5 -12 2 6 2 18 0 25 -3 6 -5 1 -5 -13z"/>
<path d="M2882 2230 c0 -14 2 -19 5 -12 2 6 2 18 0 25 -3 6 -5 1 -5 -13z"/>
<path d="M3042 2230 c0 -14 2 -19 5 -12 2 6 2 18 0 25 -3 6 -5 1 -5 -13z"/>
<path d="M3841 2224 c0 -11 3 -14 6 -6 3 7 2 16 -1 19 -3 4 -6 -2 -5 -13z"/>
<path d="M950 2220 l-25 -7 29 -4 c26 -4 30 -10 50 -89 25 -95 77 -225 113
-282 37 -61 35 -44 -6 35 -43 82 -70 156 -101 275 -12 45 -25 82 -29 81 -3 -1
-17 -4 -31 -9z"/>
<path d="M762 2185 c0 -16 2 -22 5 -12 2 9 2 23 0 30 -3 6 -5 -1 -5 -18z"/>
<path d="M840 2180 c0 -43 52 -242 61 -233 4 4 2 26 -5 48 -8 22 -22 76 -31
120 -17 83 -25 104 -25 65z"/>
<path d="M1036 2178 c8 -27 12 -33 19 -27 7 8 -7 49 -17 49 -5 0 -6 -10 -2
-22z"/>
<path d="M2096 2165 c-9 -46 7 -67 48 -63 23 2 33 10 40 31 14 39 -2 61 -46
65 -34 3 -36 1 -42 -33z m72 -2 c2 -7 -3 -13 -12 -13 -9 0 -16 4 -16 9 0 5 -8
12 -17 15 -10 2 -5 4 11 3 16 -1 31 -8 34 -14z m-20 -31 c2 -7 -2 -10 -12 -6
-9 3 -16 11 -16 16 0 13 23 5 28 -10z"/>
<path d="M2921 2186 c-17 -20 -10 -77 10 -89 9 -5 28 -7 42 -3 31 7 43 40 28
79 -8 21 -17 27 -40 27 -15 0 -34 -6 -40 -14z m64 -17 c4 -6 0 -9 -11 -7 -13
2 -18 -2 -16 -14 2 -10 -1 -18 -6 -18 -11 0 -22 36 -14 44 9 10 40 7 47 -5z
m5 -43 c0 -3 -4 -8 -10 -11 -5 -3 -10 -1 -10 4 0 6 5 11 10 11 6 0 10 -2 10
-4z"/>
<path d="M1122 2170 c0 -14 2 -19 5 -12 2 6 2 18 0 25 -3 6 -5 1 -5 -13z"/>
<path d="M3831 2174 c0 -11 3 -14 6 -6 3 7 2 16 -1 19 -3 4 -6 -2 -5 -13z"/>
<path d="M2027 2110 c-10 -29 -16 -79 -16 -114 l2 -61 7 65 c3 36 12 82 19
103 7 20 11 42 9 49 -2 6 -12 -13 -21 -42z"/>
<path d="M2290 2114 c0 -14 4 -23 9 -19 11 6 10 45 -1 45 -4 0 -8 -12 -8 -26z"/>
<path d="M4308 2130 c-3 -8 -11 -40 -18 -70 -32 -137 -92 -300 -161 -435 -97
-190 -159 -282 -278 -406 -88 -94 -125 -145 -58 -82 79 75 94 91 132 137 22
27 45 54 50 60 6 6 36 49 67 96 65 99 135 236 184 362 39 101 97 314 91 338
-3 13 -5 13 -9 0z"/>
<path d="M2735 2059 c0 -33 3 -59 8 -59 8 0 10 8 12 67 1 23 -3 44 -9 46 -7 3
-11 -16 -11 -54z"/>
<path d="M2776 2103 c-6 -14 -5 -15 5 -6 7 7 10 15 7 18 -3 3 -9 -2 -12 -12z"/>
<path d="M3057 2100 c6 -22 23 -38 23 -21 0 17 -12 41 -20 41 -5 0 -6 -9 -3
-20z"/>
<path d="M945 2089 c-10 -15 3 -25 16 -12 7 7 7 13 1 17 -6 3 -14 1 -17 -5z"/>
<path d="M2267 2065 c-29 -86 -37 -111 -36 -120 0 -5 11 19 25 54 13 36 23 69
21 75 -2 6 -6 2 -10 -9z"/>
<path d="M2336 2065 c-3 -9 1 -18 10 -22 15 -5 15 -7 0 -15 -9 -5 -16 -16 -16
-25 0 -11 6 -8 20 10 24 30 25 41 6 56 -11 9 -15 8 -20 -4z"/>
<path d="M2173 2064 c3 -4 -5 -21 -18 -39 -14 -17 -25 -35 -25 -39 0 -11 36
27 49 51 14 27 14 33 -1 33 -6 0 -9 -3 -5 -6z"/>
<path d="M2070 2046 c0 -8 10 -22 23 -31 21 -15 22 -14 28 7 3 15 0 25 -10 30
-26 11 -41 9 -41 -6z"/>
<path d="M2932 2035 c17 -15 26 -30 22 -39 -3 -9 -1 -16 5 -16 6 0 11 3 11 8
0 4 3 17 6 30 5 17 2 22 -14 22 -12 0 -24 5 -27 10 -3 6 -12 10 -18 10 -7 0 0
-11 15 -25z"/>
<path d="M2995 2050 c-7 -12 12 -40 27 -40 13 0 6 43 -9 47 -6 2 -14 -1 -18
-7z"/>
<path d="M3076 2018 c9 -57 14 -61 14 -10 0 22 -5 44 -10 47 -7 4 -8 -8 -4
-37z"/>
<path d="M960 2035 c0 -8 5 -15 10 -15 6 0 10 7 10 15 0 8 -4 15 -10 15 -5 0
-10 -7 -10 -15z"/>
<path d="M2790 2020 c0 -11 5 -20 10 -20 6 0 10 9 10 20 0 11 -4 20 -10 20 -5
0 -10 -9 -10 -20z"/>
<path d="M1080 2015 c0 -8 5 -15 10 -15 6 0 10 7 10 15 0 8 -4 15 -10 15 -5 0
-10 -7 -10 -15z"/>
<path d="M1470 2020 c0 -5 9 -10 20 -10 11 0 20 5 20 10 0 6 -9 10 -20 10 -11
0 -20 -4 -20 -10z"/>
<path d="M1290 2000 c0 -5 5 -10 11 -10 5 0 7 5 4 10 -3 6 -8 10 -11 10 -2 0
-4 -4 -4 -10z"/>
<path d="M1582 1958 c2 -15 11 -24 26 -26 25 -4 27 5 8 31 -19 24 -38 21 -34
-5z"/>
<path d="M1490 1960 c0 -19 24 -60 34 -59 24 2 60 17 45 18 -9 1 -20 12 -23
26 -5 18 -13 25 -31 25 -14 0 -25 -4 -25 -10z"/>
<path d="M2730 1945 c0 -8 5 -15 10 -15 6 0 10 7 10 15 0 8 -4 15 -10 15 -5 0
-10 -7 -10 -15z"/>
<path d="M1130 1940 c0 -16 61 -133 66 -127 2 2 -7 27 -21 55 -14 27 -25 55
-25 60 0 6 -4 14 -10 17 -5 3 -10 1 -10 -5z"/>
<path d="M1331 1930 c14 -31 19 -36 19 -24 0 6 -7 19 -16 30 -14 18 -14 18 -3
-6z"/>
<path d="M2355 1937 c-4 -10 -5 -21 -1 -24 10 -10 18 4 13 24 -4 17 -4 17 -12
0z"/>
<path d="M775 1919 c-9 -14 -2 -20 14 -10 8 6 9 11 3 15 -6 3 -14 1 -17 -5z"/>
<path d="M2003 1880 c0 -30 2 -43 4 -27 2 15 2 39 0 55 -2 15 -4 2 -4 -28z"/>
<path d="M2210 1889 c-7 -24 -14 -48 -17 -54 -4 -7 -2 -7 5 0 11 11 34 87 27
93 -2 2 -9 -16 -15 -39z"/>
<path d="M2740 1910 c0 -5 5 -10 10 -10 6 0 10 5 10 10 0 6 -4 10 -10 10 -5 0
-10 -4 -10 -10z"/>
<path d="M707 1894 c-3 -3 -1 -17 4 -31 5 -14 7 -28 4 -33 -7 -12 13 -23 26
-14 8 5 8 9 -1 14 -7 4 -13 22 -14 39 -1 30 -6 37 -19 25z"/>
<path d="M2325 1879 c-11 -17 1 -21 15 -4 8 9 8 15 2 15 -6 0 -14 -5 -17 -11z"/>
<path d="M2760 1881 c0 -5 5 -13 10 -16 6 -3 10 -2 10 4 0 5 -4 13 -10 16 -5
3 -10 2 -10 -4z"/>
<path d="M2881 1848 c-1 -27 3 -48 7 -48 4 0 6 17 4 38 -5 58 -10 62 -11 10z"/>
<path d="M775 1871 c-3 -5 -1 -12 4 -15 5 -3 11 1 15 9 6 16 -9 21 -19 6z"/>
<path d="M928 1873 c7 -3 16 -2 19 1 4 3 -2 6 -13 5 -11 0 -14 -3 -6 -6z"/>
<path d="M1050 1865 c-14 -16 -3 -20 19 -6 8 5 9 11 3 15 -5 3 -15 -1 -22 -9z"/>
<path d="M837 1823 c-4 -3 -7 -11 -7 -17 0 -6 5 -5 12 2 6 6 9 14 7 17 -3 3
-9 2 -12 -2z"/>
<path d="M955 1821 c-10 -17 12 -21 25 -6 10 12 10 15 -3 15 -9 0 -18 -4 -22
-9z"/>
<path d="M1078 1804 c-38 -20 -36 -28 2 -9 17 9 30 18 30 20 0 7 -1 6 -32 -11z"/>
<path d="M801 1784 c0 -11 3 -14 6 -6 3 7 2 16 -1 19 -3 4 -6 -2 -5 -13z"/>
<path d="M2000 1784 c0 -8 5 -12 10 -9 6 3 10 10 10 16 0 5 -4 9 -10 9 -5 0
-10 -7 -10 -16z"/>
<path d="M3086 1773 c10 -40 14 -41 14 -5 0 18 -5 32 -10 32 -6 0 -8 -11 -4
-27z"/>
<path d="M3881 1793 c-1 -6 -4 -20 -7 -30 -5 -17 -5 -17 6 0 6 10 9 23 6 30
-3 9 -5 9 -5 0z"/>
<path d="M983 1762 c-29 -14 -53 -29 -53 -34 0 -4 25 4 55 19 30 15 55 31 55
35 0 4 -1 7 -2 6 -2 0 -27 -12 -55 -26z"/>
<path d="M1212 1782 c8 -20 142 -201 146 -197 2 2 -16 30 -40 62 -24 32 -56
77 -72 101 -26 38 -43 55 -34 34z"/>
<path d="M877 1774 c-3 -5 1 -15 9 -22 16 -14 18 -5 5 17 -5 7 -11 9 -14 5z"/>
<path d="M1166 1770 c10 -18 86 -125 114 -160 11 -14 20 -20 20 -13 0 6 -5 15
-10 18 -6 3 -28 32 -50 63 -42 61 -87 117 -74 92z"/>
<path d="M1420 1770 c0 -5 5 -10 11 -10 5 0 7 5 4 10 -3 6 -8 10 -11 10 -2 0
-4 -4 -4 -10z"/>
<path d="M2183 1765 c-8 -22 6 -33 17 -15 13 20 12 30 0 30 -6 0 -13 -7 -17
-15z"/>
<path d="M2898 1773 c-2 -5 -1 -24 2 -43 l6 -35 5 38 c5 34 -4 59 -13 40z"/>
<path d="M2940 1771 c0 -6 4 -12 8 -15 5 -3 9 1 9 9 0 8 -4 15 -9 15 -4 0 -8
-4 -8 -9z"/>
<path d="M810 1757 c0 -19 102 -206 148 -267 46 -63 39 -42 -13 38 -24 38 -60
100 -79 138 -39 76 -56 103 -56 91z"/>
<path d="M3906 1745 c-9 -26 -7 -32 5 -12 6 10 9 21 6 23 -2 3 -7 -2 -11 -11z"/>
<path d="M2811 1688 c0 -27 4 -48 9 -48 11 0 11 21 0 65 -7 27 -8 25 -9 -17z"/>
<path d="M2301 1715 c-1 -5 -8 -41 -16 -79 -8 -38 -13 -71 -11 -73 7 -8 38
124 33 143 -2 10 -5 15 -6 9z"/>
<path d="M1991 1690 c0 -14 -4 -36 -7 -50 -5 -22 -4 -23 6 -7 6 9 9 32 7 50
-3 25 -4 26 -6 7z"/>
<path d="M900 1685 c0 -8 7 -15 16 -15 14 0 14 3 4 15 -7 8 -14 15 -16 15 -2
0 -4 -7 -4 -15z"/>
<path d="M2177 1693 c-4 -3 -7 -18 -6 -32 1 -26 1 -25 10 3 9 31 7 41 -4 29z"/>
<path d="M2767 1669 c4 -13 8 -18 11 -10 2 7 -1 18 -6 23 -8 8 -9 4 -5 -13z"/>
<path d="M3100 1655 c0 -19 4 -35 8 -35 4 0 6 16 4 35 -2 19 -6 35 -8 35 -2 0
-4 -16 -4 -35z"/>
<path d="M4450 1665 c-11 -13 -10 -14 4 -9 9 3 16 10 16 15 0 13 -6 11 -20 -6z"/>
<path d="M2921 1663 c-1 -6 4 -34 10 -61 l12 -49 45 13 c25 8 56 14 69 14 12
0 23 5 23 11 0 6 -8 8 -17 5 -27 -8 -107 -25 -108 -23 -1 1 -8 25 -17 52 -9
28 -17 45 -17 38z"/>
<path d="M1065 1650 c-3 -5 1 -10 10 -10 9 0 13 5 10 10 -3 6 -8 10 -10 10 -2
0 -7 -4 -10 -10z"/>
<path d="M1510 1646 c0 -2 7 -9 15 -16 9 -7 15 -8 15 -2 0 5 -7 12 -15 16 -8
3 -15 4 -15 2z"/>
<path d="M2155 1617 c-4 -10 -5 -21 -1 -24 10 -10 18 4 13 24 -4 17 -4 17 -12
0z"/>
<path d="M940 1613 c1 -14 55 -86 68 -91 7 -2 -2 19 -19 47 -29 46 -50 64 -49
44z"/>
<path d="M1030 1609 c0 -5 5 -7 10 -4 6 3 10 8 10 11 0 2 -4 4 -10 4 -5 0 -10
-5 -10 -11z"/>
<path d="M1966 1594 c-5 -12 -2 -15 9 -10 9 3 49 0 90 -6 71 -11 75 -13 76
-37 0 -24 1 -24 9 -6 16 37 10 41 -67 54 -43 7 -85 14 -94 17 -10 3 -19 -3
-23 -12z"/>
<path d="M2865 1575 c3 -22 5 -62 5 -89 0 -37 3 -47 11 -39 8 8 7 32 -4 90 -9
43 -14 60 -12 38z"/>
<path d="M3100 1603 c0 -24 22 -83 32 -83 6 0 7 7 3 18 -4 9 -10 27 -12 40 -5
21 -23 42 -23 25z"/>
<path d="M4421 1574 c0 -11 3 -14 6 -6 3 7 2 16 -1 19 -3 4 -6 -2 -5 -13z"/>
<path d="M1320 1549 c12 -16 24 -28 27 -25 7 6 -27 56 -39 56 -5 0 0 -14 12
-31z"/>
<path d="M1130 1568 c0 -3 9 -15 20 -28 11 -13 20 -19 20 -13 0 5 -9 18 -20
28 -11 10 -20 16 -20 13z"/>
<path d="M1380 1551 c6 -12 16 -21 23 -21 16 0 37 20 37 35 0 5 -5 2 -11 -8
-10 -17 -12 -17 -36 -2 -24 16 -24 16 -13 -4z"/>
<path d="M1956 1555 c-8 -23 -8 -35 3 -35 13 0 23 32 13 42 -6 6 -12 3 -16 -7z"/>
<path d="M2217 1497 c-5 -27 -6 -51 -3 -55 12 -12 17 7 14 54 l-3 49 -8 -48z"/>
<path d="M2967 1517 c-3 -8 -1 -20 4 -28 6 -10 9 -7 9 14 0 29 -5 35 -13 14z"/>
<path d="M1026 1498 c4 -7 29 -41 56 -74 26 -34 48 -69 48 -78 0 -18 16 -21
26 -5 4 7 0 16 -9 20 -8 5 -38 40 -67 79 -29 38 -54 70 -57 70 -2 0 -1 -6 3
-12z"/>
<path d="M1196 1488 c10 -14 21 -24 23 -22 3 3 -6 15 -18 27 l-24 22 19 -27z"/>
<path d="M1360 1500 c0 -5 5 -10 11 -10 5 0 7 5 4 10 -3 6 -8 10 -11 10 -2 0
-4 -4 -4 -10z"/>
<path d="M782 1480 c0 -14 2 -19 5 -12 2 6 2 18 0 25 -3 6 -5 1 -5 -13z"/>
<path d="M3686 1484 c-4 -9 -4 -19 -1 -22 2 -3 7 3 11 12 4 9 4 19 1 22 -2 3
-7 -3 -11 -12z"/>
<path d="M1265 1470 c-10 -11 -25 -20 -34 -20 -12 0 -12 -3 -3 -12 10 -10 18
-6 39 15 15 14 25 29 22 32 -3 3 -14 -4 -24 -15z"/>
<path d="M3885 1480 c3 -5 8 -10 11 -10 2 0 4 5 4 10 0 6 -5 10 -11 10 -5 0
-7 -4 -4 -10z"/>
<path d="M3909 1454 c-5 -15 -12 -32 -15 -38 -3 -6 4 0 15 13 12 13 21 29 21
37 0 22 -10 16 -21 -12z"/>
<path d="M1390 1463 c0 -5 28 -35 63 -65 34 -31 66 -60 71 -65 5 -4 7 -4 5 2
-7 17 -139 139 -139 128z"/>
<path d="M2967 1456 c-5 -14 3 -16 52 -16 33 0 67 -3 77 -7 12 -4 15 -2 12 8
-3 10 -22 14 -64 14 -32 0 -62 4 -65 8 -3 5 -9 2 -12 -7z"/>
<path d="M1980 1444 c0 -8 5 -12 10 -9 6 4 8 11 5 16 -9 14 -15 11 -15 -7z"/>
<path d="M2015 1451 c-6 -11 60 -9 71 2 4 4 -9 7 -29 7 -20 0 -38 -4 -42 -9z"/>
<path d="M2100 1451 c0 -5 7 -11 15 -15 9 -3 15 0 15 9 0 8 -7 15 -15 15 -8 0
-15 -4 -15 -9z"/>
<path d="M1000 1430 c0 -5 5 -10 11 -10 5 0 7 5 4 10 -3 6 -8 10 -11 10 -2 0
-4 -4 -4 -10z"/>
<path d="M3634 1388 c-16 -31 -16 -32 0 -19 23 19 40 51 27 51 -6 0 -18 -15
-27 -32z"/>
<path d="M2152 1390 c0 -14 2 -19 5 -12 2 6 2 18 0 25 -3 6 -5 1 -5 -13z"/>
<path d="M2940 1385 c0 -8 2 -15 4 -15 2 0 6 7 10 15 3 8 1 15 -4 15 -6 0 -10
-7 -10 -15z"/>
<path d="M3860 1375 c-7 -9 -11 -17 -9 -20 3 -2 10 5 17 15 14 24 10 26 -8 5z"/>
<path d="M1045 1370 c3 -5 8 -10 11 -10 2 0 4 5 4 10 0 6 -5 10 -11 10 -5 0
-7 -4 -4 -10z"/>
<path d="M3160 1354 c0 -8 5 -12 10 -9 6 3 10 10 10 16 0 5 -4 9 -10 9 -5 0
-10 -7 -10 -16z"/>
<path d="M1390 1313 c29 -27 63 -54 74 -62 12 -7 -8 14 -44 48 -36 33 -69 60
-74 61 -4 0 16 -21 44 -47z"/>
<path d="M1911 1329 c-13 -38 -13 -39 -2 -39 9 0 24 60 17 67 -2 2 -9 -10 -15
-28z"/>
<path d="M2210 1351 c0 -13 26 -32 33 -24 8 7 -11 33 -24 33 -5 0 -9 -4 -9 -9z"/>
<path d="M2863 1353 c-7 -3 -12 -14 -12 -26 1 -16 2 -18 6 -5 2 9 12 18 21 20
9 2 13 6 7 9 -5 4 -16 4 -22 2z"/>
<path d="M2015 1340 c3 -5 21 -10 40 -10 19 0 37 5 40 10 4 6 -12 10 -40 10
-28 0 -44 -4 -40 -10z"/>
<path d="M3010 1340 c0 -5 16 -10 35 -10 19 0 35 5 35 10 0 6 -16 10 -35 10
-19 0 -35 -4 -35 -10z"/>
<path d="M2943 1290 c0 -30 2 -43 4 -27 2 15 2 39 0 55 -2 15 -4 2 -4 -28z"/>
<path d="M1310 1319 c0 -5 5 -7 10 -4 6 3 10 8 10 11 0 2 -4 4 -10 4 -5 0 -10
-5 -10 -11z"/>
<path d="M3815 1319 c-4 -6 -5 -12 -2 -15 2 -3 7 2 10 11 7 17 1 20 -8 4z"/>
<path d="M1565 1301 c7 -12 111 -81 122 -81 7 0 -30 28 -86 64 -24 15 -40 23
-36 17z"/>
<path d="M2227 1297 c-4 -10 -7 -28 -6 -40 0 -21 1 -21 10 2 5 14 8 32 7 40
-3 13 -5 13 -11 -2z"/>
<path d="M2879 1303 c0 -5 -2 -16 -4 -25 -2 -10 1 -18 6 -18 5 0 9 11 9 25 0
22 -9 37 -11 18z"/>
<path d="M3176 1288 c8 -28 12 -33 20 -25 9 8 -6 47 -17 47 -6 0 -7 -10 -3
-22z"/>
<path d="M1120 1285 c7 -9 15 -13 17 -11 7 7 -7 26 -19 26 -6 0 -6 -6 2 -15z"/>
<path d="M2192 1270 c0 -19 2 -27 5 -17 2 9 2 25 0 35 -3 9 -5 1 -5 -18z"/>
<path d="M3515 1280 c-3 -5 -1 -10 4 -10 6 0 11 5 11 10 0 6 -2 10 -4 10 -3 0
-8 -4 -11 -10z"/>
<path d="M1896 1265 c-3 -9 0 -15 9 -15 9 0 12 6 9 15 -4 8 -7 15 -9 15 -2 0
-5 -7 -9 -15z"/>
<path d="M3752 1250 c-12 -12 -22 -24 -22 -27 0 -4 11 4 25 17 23 22 29 30 22
30 -2 0 -13 -9 -25 -20z"/>
<path d="M1235 1250 c3 -5 8 -10 11 -10 2 0 4 5 4 10 0 6 -5 10 -11 10 -5 0
-7 -4 -4 -10z"/>
<path d="M2080 1250 c-8 -5 -12 -12 -9 -15 4 -3 12 1 19 10 14 17 11 19 -10 5z"/>
<path d="M2132 1215 c-1 -27 2 -57 7 -64 6 -9 6 -22 0 -33 -6 -12 -6 -18 0
-18 6 0 12 -28 14 -62 2 -35 2 -22 1 27 -1 50 -7 115 -12 145 l-9 55 -1 -50z"/>
<path d="M2871 1234 c0 -11 3 -14 6 -6 3 7 2 16 -1 19 -3 4 -6 -2 -5 -13z"/>
<path d="M1500 1235 c0 -7 106 -75 117 -75 4 0 -16 15 -44 34 -72 47 -73 48
-73 41z"/>
<path d="M1968 1219 c9 -9 21 -14 25 -12 5 3 4 -4 -2 -15 -15 -28 -14 -32 8
-32 15 0 19 7 18 34 -1 31 -4 35 -34 38 -30 4 -31 3 -15 -13z"/>
<path d="M2970 1224 c0 -7 10 -9 25 -6 14 2 25 8 25 13 0 5 -11 8 -25 7 -14
-1 -25 -8 -25 -14z"/>
<path d="M3072 1228 c2 -6 10 -14 18 -16 7 -3 10 0 6 6 -3 6 4 12 16 15 16 3
13 5 -10 6 -22 1 -32 -3 -30 -11z"/>
<path d="M1190 1226 c0 -2 8 -10 18 -17 15 -13 16 -12 3 4 -13 16 -21 21 -21
13z"/>
<path d="M3098 1204 c-32 -17 -28 -41 7 -41 20 0 24 4 22 28 -1 16 -2 29 -2
29 0 -1 -12 -7 -27 -16z"/>
<path d="M3775 1211 c-3 -5 -1 -12 5 -16 5 -3 10 1 10 9 0 18 -6 21 -15 7z"/>
<path d="M1701 1206 c14 -15 82 -56 85 -53 5 5 -72 57 -82 57 -4 0 -5 -2 -3
-4z"/>
<path d="M2078 1185 c-6 -30 -3 -43 8 -33 3 4 4 19 2 35 l-3 28 -7 -30z"/>
<path d="M2221 1184 c0 -11 3 -14 6 -6 3 7 2 16 -1 19 -3 4 -6 -2 -5 -13z"/>
<path d="M2988 1193 c6 -2 12 -12 12 -21 0 -15 2 -15 10 -2 15 23 12 30 -12
29 -13 0 -17 -3 -10 -6z"/>
<path d="M1301 1186 c2 -2 15 -9 29 -15 24 -11 24 -11 6 3 -16 13 -49 24 -35
12z"/>
<path d="M1249 1167 c16 -20 91 -81 91 -74 0 2 -24 24 -52 48 -29 24 -47 36
-39 26z"/>
<path d="M2418 1173 c23 -2 59 -2 80 0 20 2 1 4 -43 4 -44 0 -61 -2 -37 -4z"/>
<path d="M3191 1158 c-1 -14 4 -28 9 -30 6 -2 17 -39 25 -82 19 -98 29 -111
22 -29 -6 67 -55 191 -56 141z"/>
<path d="M2943 1162 c-18 -11 -34 -60 -23 -67 6 -4 10 5 10 19 0 17 5 26 16
26 10 0 14 -5 10 -16 -3 -8 -2 -12 4 -9 9 6 9 40 -1 49 -2 3 -10 2 -16 -2z"/>
<path d="M1638 1143 c7 -3 16 -2 19 1 4 3 -2 6 -13 5 -11 0 -14 -3 -6 -6z"/>
<path d="M3063 1143 c-43 -2 -73 -8 -73 -15 0 -6 9 -8 23 -4 12 3 48 6 80 6
31 0 57 5 57 10 0 6 -3 9 -7 8 -5 -1 -41 -4 -80 -5z"/>
<path d="M1943 1133 c-24 -2 -43 -8 -43 -13 0 -8 18 -7 135 9 l60 9 -55 -1
c-30 0 -74 -2 -97 -4z"/>
<path d="M2191 1124 c0 -11 3 -14 6 -6 3 7 2 16 -1 19 -3 4 -6 -2 -5 -13z"/>
<path d="M1670 1126 c0 -2 7 -7 16 -10 8 -3 12 -2 9 4 -6 10 -25 14 -25 6z"/>
<path d="M3160 1121 c0 -6 5 -13 10 -16 6 -3 10 1 10 9 0 9 -4 16 -10 16 -5 0
-10 -4 -10 -9z"/>
<path d="M960 1103 c0 -4 10 -17 22 -30 12 -13 16 -23 10 -23 -7 0 -12 -5 -12
-11 0 -6 6 -9 14 -6 9 4 32 -11 55 -34 23 -21 44 -39 48 -39 4 0 -21 28 -55
61 -34 34 -62 68 -62 75 0 8 -4 14 -10 14 -5 0 -10 -3 -10 -7z"/>
<path d="M1710 1106 c0 -2 7 -7 16 -10 8 -3 12 -2 9 4 -6 10 -25 14 -25 6z"/>
<path d="M3515 1100 c-3 -6 1 -7 9 -4 18 7 21 14 7 14 -6 0 -13 -4 -16 -10z"/>
<path d="M2518 1083 c12 -2 30 -2 40 0 9 3 -1 5 -23 4 -22 0 -30 -2 -17 -4z"/>
<path d="M3395 1080 c-3 -5 -2 -10 4 -10 5 0 13 5 16 10 3 6 2 10 -4 10 -5 0
-13 -4 -16 -10z"/>
<path d="M1360 1070 c0 -5 5 -10 11 -10 5 0 7 5 4 10 -3 6 -8 10 -11 10 -2 0
-4 -4 -4 -10z"/>
<path d="M2040 1060 c0 -11 5 -20 10 -20 6 0 10 6 10 13 0 9 2 9 9 -1 7 -11
10 -10 15 3 9 24 8 25 -19 25 -18 0 -25 -5 -25 -20z"/>
<path d="M2393 1073 c9 -2 25 -2 35 0 9 3 1 5 -18 5 -19 0 -27 -2 -17 -5z"/>
<path d="M3325 1070 c-3 -5 1 -10 9 -10 9 0 16 5 16 10 0 6 -4 10 -9 10 -6 0
-13 -4 -16 -10z"/>
<path d="M3470 1070 c-9 -6 -10 -10 -3 -10 6 0 15 5 18 10 8 12 4 12 -15 0z"/>
<path d="M1620 1055 c14 -8 34 -14 45 -14 11 0 2 6 -20 14 -50 18 -57 18 -25
0z"/>
<path d="M1808 1063 c7 -3 16 -2 19 1 4 3 -2 6 -13 5 -11 0 -14 -3 -6 -6z"/>
<path d="M1940 1055 c0 -9 5 -15 11 -13 6 2 11 8 11 13 0 5 -5 11 -11 13 -6 2
-11 -4 -11 -13z"/>
<path d="M2911 1030 c0 -25 3 -51 8 -59 5 -8 7 5 4 35 -6 68 -11 77 -12 24z"/>
<path d="M3000 1060 c0 -5 12 -10 28 -10 21 0 24 2 12 10 -20 13 -40 13 -40 0z"/>
<path d="M3115 1059 c-4 -6 -5 -12 -2 -15 7 -7 37 7 37 17 0 13 -27 11 -35 -2z"/>
<path d="M2191 1044 c0 -11 3 -14 6 -6 3 7 2 16 -1 19 -3 4 -6 -2 -5 -13z"/>
<path d="M3784 1039 c-19 -22 -19 -22 3 -10 24 12 39 31 25 31 -5 0 -17 -10
-28 -21z"/>
<path d="M1400 1041 c0 -5 7 -12 16 -15 14 -5 15 -4 4 9 -14 17 -20 19 -20 6z"/>
<path d="M1718 1043 c7 -3 16 -2 19 1 4 3 -2 6 -13 5 -11 0 -14 -3 -6 -6z"/>
<path d="M1881 1034 c0 -11 3 -14 6 -6 3 7 2 16 -1 19 -3 4 -6 -2 -5 -13z"/>
<path d="M1608 1023 c7 -3 16 -2 19 1 4 3 -2 6 -13 5 -11 0 -14 -3 -6 -6z"/>
<path d="M2000 1020 c0 -7 13 -10 32 -8 29 3 33 0 39 -27 7 -33 21 -15 15 20
-2 16 -12 21 -44 23 -27 2 -42 -1 -42 -8z"/>
<path d="M3117 1024 c-10 -11 3 -24 23 -24 13 0 17 5 14 15 -6 15 -26 20 -37
9z"/>
<path d="M1930 1010 c0 -12 17 -12 45 0 17 7 15 9 -12 9 -18 1 -33 -3 -33 -9z"/>
<path d="M2468 1013 c23 -2 61 -2 85 0 23 2 4 4 -43 4 -47 0 -66 -2 -42 -4z"/>
<path d="M2653 1013 c9 -2 23 -2 30 0 6 3 -1 5 -18 5 -16 0 -22 -2 -12 -5z"/>
<path d="M2718 1013 c12 -2 30 -2 40 0 9 3 -1 5 -23 4 -22 0 -30 -2 -17 -4z"/>
<path d="M3000 1004 c0 -11 5 -14 16 -10 9 3 22 6 30 6 8 0 14 5 14 10 0 6
-13 10 -30 10 -21 0 -30 -5 -30 -16z"/>
<path d="M3715 994 c-22 -13 -35 -24 -30 -24 12 0 75 38 75 45 0 6 2 7 -45
-21z"/>
<path d="M1464 995 c11 -8 24 -15 30 -15 5 0 1 7 -10 15 -10 8 -23 14 -29 14
-5 0 -1 -6 9 -14z"/>
<path d="M2553 963 c9 -2 25 -2 35 0 9 3 1 5 -18 5 -19 0 -27 -2 -17 -5z"/>
<path d="M3463 944 c10 -10 138 -13 132 -3 -4 5 -36 9 -72 9 -37 0 -64 -3 -60
-6z"/>
<path d="M3700 943 c0 -12 58 -14 65 -3 4 6 -9 10 -29 10 -20 0 -36 -3 -36 -7z"/>
<path d="M3820 941 c0 -6 5 -13 12 -17 7 -4 8 -3 4 4 -5 8 41 12 166 15 l173
3 -177 2 c-106 1 -178 -2 -178 -7z"/>
<path d="M2386 931 c-4 -7 -5 -15 -2 -18 9 -9 19 4 14 18 -4 11 -6 11 -12 0z"/>
<path d="M3455 920 c-3 -6 1 -7 9 -4 18 7 21 14 7 14 -6 0 -13 -4 -16 -10z"/>
<path d="M2615 910 c3 -5 8 -10 11 -10 2 0 4 5 4 10 0 6 -5 10 -11 10 -5 0 -7
-4 -4 -10z"/>
<path d="M2868 853 c7 -3 16 -2 19 1 4 3 -2 6 -13 5 -11 0 -14 -3 -6 -6z"/>
<path d="M3560 819 c-22 -18 -22 -19 -3 -10 12 6 25 16 28 21 9 15 3 12 -25
-11z"/>
<path d="M3135 810 c3 -5 8 -10 11 -10 2 0 4 5 4 10 0 6 -5 10 -11 10 -5 0 -7
-4 -4 -10z"/>
</g>
</svg>
