<?xml version="1.0" standalone="no"?>
<!DOCTYPE svg PUBLIC "-//W3C//DTD SVG 20010904//EN"
 "http://www.w3.org/TR/2001/REC-SVG-20010904/DTD/svg10.dtd">
<svg version="1.0" xmlns="http://www.w3.org/2000/svg"
 width="512.000000pt" height="768.000000pt" viewBox="0 0 512.000000 768.000000"
 preserveAspectRatio="xMidYMid meet">
<metadata>
Created by potrace 1.16, written by Peter Selinger 2001-2019
</metadata>
<g transform="translate(0.000000,768.000000) scale(0.100000,-0.100000)"
fill="#000000" stroke="none">
<path d="M736 7628 c3 -5 10 -6 15 -3 13 9 11 12 -6 12 -8 0 -12 -4 -9 -9z"/>
<path d="M2208 7593 c7 -3 16 -2 19 1 4 3 -2 6 -13 5 -11 0 -14 -3 -6 -6z"/>
<path d="M2518 7443 c12 -2 30 -2 40 0 9 3 -1 5 -23 4 -22 0 -30 -2 -17 -4z"/>
<path d="M2588 7443 c7 -3 16 -2 19 1 4 3 -2 6 -13 5 -11 0 -14 -3 -6 -6z"/>
<path d="M1754 7388 c-3 -4 2 -8 10 -8 8 0 17 4 20 8 3 5 -2 9 -10 9 -8 0 -17
-4 -20 -9z"/>
<path d="M3038 7373 c6 -2 18 -2 25 0 6 3 1 5 -13 5 -14 0 -19 -2 -12 -5z"/>
<path d="M3138 7323 c7 -3 16 -2 19 1 4 3 -2 6 -13 5 -11 0 -14 -3 -6 -6z"/>
<path d="M3430 7236 c0 -2 7 -7 16 -10 8 -3 12 -2 9 4 -6 10 -25 14 -25 6z"/>
<path d="M706 7113 c-6 -14 -5 -15 5 -6 7 7 10 15 7 18 -3 3 -9 -2 -12 -12z"/>
<path d="M924 7078 l-19 -23 23 19 c21 18 27 26 19 26 -2 0 -12 -10 -23 -22z"/>
<path d="M2018 7063 c7 -3 16 -2 19 1 4 3 -2 6 -13 5 -11 0 -14 -3 -6 -6z"/>
<path d="M880 7050 c-9 -6 -10 -10 -3 -10 6 0 15 5 18 10 8 12 4 12 -15 0z"/>
<path d="M2200 6970 c-9 -6 -10 -10 -3 -10 6 0 15 5 18 10 8 12 4 12 -15 0z"/>
<path d="M2487 6923 c-15 -14 -5 -23 26 -23 18 0 39 -6 46 -12 11 -10 13 -10
7 0 -9 15 27 16 56 1 15 -8 19 -8 14 0 -10 15 17 14 32 -1 9 -9 12 -9 12 3 0
12 2 12 10 -1 9 -13 10 -13 10 0 0 13 1 13 10 0 6 -9 10 -10 10 -3 0 20 -15
23 -105 24 -52 1 -82 5 -73 10 10 7 9 9 -4 9 -10 0 -18 -4 -18 -10 0 -5 -8
-10 -17 -10 -15 0 -16 2 -3 10 8 5 10 10 4 10 -6 0 -14 -3 -17 -7z"/>
<path d="M2445 6910 c-3 -6 1 -7 9 -4 18 7 21 14 7 14 -6 0 -13 -4 -16 -10z"/>
<path d="M2738 6913 c6 -2 18 -2 25 0 6 3 1 5 -13 5 -14 0 -19 -2 -12 -5z"/>
<path d="M2820 6900 c8 -5 20 -10 25 -10 6 0 3 5 -5 10 -8 5 -19 10 -25 10 -5
0 -3 -5 5 -10z"/>
<path d="M2740 6890 c0 -5 12 -10 28 -9 24 0 25 1 7 9 -27 12 -35 12 -35 0z"/>
<path d="M2448 6875 c-2 -2 -38 -5 -81 -9 -94 -8 -236 -57 -282 -97 -18 -16
-36 -29 -40 -29 -3 0 -12 -6 -20 -12 -7 -7 -40 -33 -74 -57 -33 -24 -61 -49
-61 -56 0 -7 -6 -15 -14 -18 -24 -9 -41 51 -41 146 0 89 -13 111 -27 46 -8
-35 5 -149 21 -192 10 -25 -1 -47 -23 -47 -15 0 -114 -107 -121 -130 -4 -11
-10 -20 -15 -20 -4 0 -11 -11 -14 -25 -4 -14 -11 -25 -17 -25 -6 0 -8 -9 -4
-21 4 -12 3 -19 -2 -16 -5 3 -9 -2 -10 -11 -1 -9 -8 -39 -15 -65 -9 -35 -19
-49 -35 -53 -12 -4 -98 -4 -190 -2 -179 5 -211 12 -281 65 -29 21 -33 31 -30
58 4 33 -14 40 -26 9 -14 -38 38 -95 117 -128 75 -31 364 -99 379 -90 4 3 5
-3 1 -13 -6 -16 -5 -16 10 -4 24 20 21 5 -10 -45 -16 -24 -34 -43 -41 -44 -7
0 -10 -4 -7 -10 3 -5 -8 -30 -25 -56 -49 -70 -97 -181 -137 -316 -35 -119 -36
-129 -37 -288 -1 -140 3 -178 22 -253 29 -115 101 -300 159 -407 93 -171 215
-421 209 -428 -3 -2 2 -11 10 -19 8 -9 12 -23 9 -34 -4 -10 -2 -19 3 -19 14 0
21 -48 8 -54 -6 -2 -4 -5 6 -5 20 -1 35 -82 46 -251 l7 -115 -106 -46 c-149
-66 -270 -104 -390 -124 -274 -45 -352 -73 -454 -166 -65 -60 -126 -175 -152
-284 -27 -119 -29 -570 -4 -900 29 -376 59 -816 71 -1035 20 -366 10 -520 -49
-732 -27 -96 -42 -157 -43 -175 0 -5 -5 -19 -10 -33 -5 -14 -12 -45 -15 -70
-3 -25 -11 -71 -18 -102 -8 -34 -9 -60 -4 -64 11 -7 12 -3 39 136 12 63 41
192 65 286 63 250 69 302 62 564 -7 225 -38 725 -78 1240 -25 325 -23 737 5
870 35 167 130 291 278 365 71 34 118 46 319 79 112 18 243 59 385 121 57 25
104 45 106 45 4 0 1 -48 -13 -200 -30 -327 -183 -862 -359 -1260 -23 -52 -51
-131 -62 -174 -37 -146 -11 -359 58 -467 28 -46 144 -144 194 -165 63 -27 209
-47 232 -32 8 5 0 8 -22 9 -31 0 -50 3 -92 11 -7 2 -16 8 -20 13 -5 6 -8 5 -8
-4 0 -11 -3 -11 -15 -1 -8 7 -15 10 -15 6 0 -11 -82 27 -108 51 -14 12 -29 23
-34 23 -5 0 -7 4 -4 9 3 5 -4 11 -15 14 -14 4 -18 10 -13 19 4 7 4 10 0 6 -13
-11 -45 24 -39 41 4 9 2 12 -2 8 -11 -9 -39 46 -67 128 -26 80 -28 223 -3 328
10 42 21 77 24 77 4 0 7 10 8 22 1 11 6 24 10 27 4 3 9 11 10 16 1 6 26 66 56
135 45 103 115 294 123 335 1 6 18 66 39 135 20 69 38 132 40 140 2 8 19 78
39 155 19 77 39 160 44 185 l11 45 -2 -57 c-1 -31 0 -54 3 -51 3 2 10 -28 16
-69 17 -110 42 -220 80 -353 19 -66 37 -128 39 -138 6 -25 46 -159 56 -182 4
-11 13 -38 20 -60 6 -22 15 -49 20 -60 4 -11 29 -83 54 -160 96 -285 147 -424
300 -815 51 -129 106 -274 123 -321 l32 -86 0 -497 c0 -368 3 -497 11 -494 9
3 11 138 10 507 l-1 504 -54 146 c-30 80 -93 244 -140 363 -189 478 -412 1152
-491 1480 -47 196 -67 399 -58 583 l6 133 51 23 c194 91 269 221 270 470 l1
126 -36 39 c-84 94 -139 197 -188 354 -16 52 -30 87 -30 78 -1 -27 -46 -51
-82 -44 -18 3 -28 2 -24 -4 7 -11 29 -330 45 -643 15 -291 31 -327 24 -52 -3
116 -9 248 -13 295 -3 47 -6 140 -6 207 0 68 -3 123 -7 123 -5 0 -8 11 -8 25
0 18 5 25 19 25 11 0 26 3 34 6 11 4 19 -9 32 -53 23 -78 61 -167 92 -214 13
-21 22 -43 18 -48 -3 -6 0 -8 9 -5 8 3 17 -2 20 -13 3 -10 22 -35 41 -55 l35
-37 0 -98 c0 -231 -60 -350 -218 -436 l-51 -28 -5 33 c-3 18 -7 44 -9 58 -3
14 -5 -5 -6 -42 -2 -115 -16 -83 -29 65 -7 78 -21 177 -32 221 -10 43 -17 90
-14 105 2 14 0 46 -5 71 -10 43 -10 42 -6 -20 4 -64 4 -64 -10 -30 -7 19 -14
48 -14 63 -1 16 -5 26 -11 22 -6 -3 -10 4 -10 17 0 36 -34 193 -42 196 -5 2
-8 15 -8 30 0 14 -4 39 -10 56 -5 17 -21 69 -36 116 -15 47 -31 90 -36 95 -11
12 -3 -27 19 -94 8 -24 17 -56 19 -70 3 -14 11 -46 19 -71 22 -68 53 -181 59
-220 6 -33 4 -31 -18 15 -48 100 -76 168 -76 186 0 10 -11 49 -25 86 -14 37
-23 73 -20 81 2 7 1 11 -4 7 -23 -14 -104 269 -126 439 -8 66 -13 121 -10 124
2 2 7 -20 11 -49 11 -82 16 -44 6 46 -5 44 -6 89 -1 100 7 18 8 17 8 -6 1 -15
8 -43 16 -62 8 -20 15 -53 15 -74 0 -21 7 -58 15 -83 35 -109 72 -330 55 -330
-6 0 -10 8 -10 17 0 9 -3 14 -6 11 -5 -5 9 -67 24 -108 9 -26 21 73 16 140 -3
36 -14 103 -24 150 -34 152 -49 224 -55 265 -4 22 -11 43 -16 46 -6 3 -10 37
-11 76 -2 92 27 148 84 164 21 5 43 7 48 4 12 -7 12 3 0 30 -7 17 -9 17 -9 3
-1 -20 -16 -24 -26 -7 -25 39 10 298 51 382 14 30 14 31 -2 12 l-17 -20 8 20
c4 11 15 40 23 65 17 51 31 72 42 65 10 -6 1 -45 -11 -45 -5 0 -9 -4 -9 -9 0
-5 9 -7 20 -4 13 3 20 14 20 29 0 25 14 39 30 29 6 -4 6 -12 -2 -24 -8 -13 -8
-23 1 -37 11 -19 11 -19 9 0 -2 12 8 25 27 37 44 26 46 24 25 -27 -18 -40 -48
-135 -57 -174 -2 -8 -10 -67 -19 -130 -19 -145 -16 -273 7 -320 9 -19 19 -42
22 -50 4 -12 6 -11 6 3 1 10 -6 34 -15 55 -38 87 -5 434 53 545 8 16 16 37 18
47 2 10 11 30 20 44 15 22 25 26 66 26 42 0 49 -3 49 -20 0 -13 -7 -20 -20
-20 -11 0 -20 -4 -20 -10 0 -13 12 -13 44 0 14 5 26 16 26 24 0 9 6 13 14 10
24 -9 58 15 51 36 -4 13 7 28 40 56 49 40 102 101 107 125 3 15 82 59 106 59
7 0 20 7 28 15 18 17 64 20 64 4 0 -5 5 -7 11 -3 8 4 7 9 -2 15 -16 10 21 25
99 42 28 6 52 15 52 19 0 23 -153 -20 -302 -86 -37 -16 -153 -121 -125 -112
11 4 16 2 12 -5 -4 -6 -13 -8 -20 -5 -12 4 -34 -16 -75 -69 -9 -11 -10 -16 -2
-11 24 15 11 -12 -14 -29 -15 -10 -23 -12 -19 -4 6 9 3 11 -9 6 -39 -15 -35 8
11 55 84 88 127 128 172 160 46 32 191 98 217 98 8 0 14 4 14 8 0 5 30 13 68
19 50 8 78 7 109 -2 28 -9 41 -9 36 -2 -4 6 0 8 10 4 11 -4 17 -1 17 8 0 8 -3
14 -7 14 -19 -3 -27 2 -14 10 9 6 5 9 -15 9 -26 0 -27 -1 -9 -14 10 -8 16 -16
14 -19 -7 -7 -49 6 -49 16 0 4 -20 7 -45 6 -25 -1 -45 2 -45 6 0 4 -8 4 -17
-1 -10 -5 -34 -12 -52 -16 -71 -13 -111 -27 -106 -36 3 -6 -1 -7 -9 -4 -9 3
-16 1 -16 -6 0 -6 -4 -9 -8 -6 -24 14 -184 -119 -252 -209 -70 -91 -83 -103
-106 -94 -12 4 -39 4 -60 -1 -22 -4 -72 -8 -112 -9 l-74 0 7 26 c21 86 179
326 224 341 8 3 11 0 8 -5 -3 -5 -1 -26 5 -46 9 -29 14 -34 25 -26 9 8 13 8
13 1 0 -6 -4 -14 -10 -17 -6 -4 -4 -15 6 -30 l16 -25 34 45 c19 25 40 44 47
42 7 -1 11 4 9 11 -1 6 1 11 5 10 10 -2 71 32 92 52 20 19 94 55 141 69 19 6
80 11 135 12 l100 2 -55 19 c-48 16 -50 18 -17 14 21 -3 52 -12 69 -20 41 -21
46 -20 16 4 -35 27 -93 33 -158 15 l-55 -14 45 3 c25 2 54 0 65 -5 13 -5 -10
-8 -65 -7 -95 2 -125 -8 -238 -82 -33 -21 -62 -37 -65 -34 -2 2 -21 -13 -42
-33 -24 -23 -40 -33 -43 -25 -2 7 -8 9 -14 6 -22 -14 12 33 54 73 50 48 145
106 159 97 6 -3 18 1 27 9 9 9 20 16 25 16 4 0 24 5 45 11 20 5 59 10 85 10
30 0 46 4 42 10 -3 6 -16 10 -27 10 -12 0 -19 2 -16 5 2 3 38 0 79 -6 41 -6
84 -12 95 -13 12 -1 34 -12 49 -24 15 -12 33 -22 39 -22 6 0 4 5 -4 10 -10 6
-11 10 -2 10 19 0 14 25 -8 45 -24 21 -27 9 -4 -16 10 -11 12 -19 5 -24 -6 -3
-14 1 -17 9 -3 9 -10 13 -15 10 -5 -3 -6 2 -3 10 10 26 -108 88 -123 64 -3 -6
-1 -8 4 -5 11 7 98 -51 90 -60 -3 -3 -16 2 -29 11 -45 32 -158 20 -283 -30
-17 -7 -18 -6 -7 8 19 24 -114 -47 -175 -93 -29 -22 -60 -51 -69 -64 -20 -31
-26 -31 -41 1 -11 24 -9 28 19 53 163 139 340 217 519 228 116 7 139 -2 139
-53 0 -19 4 -33 9 -30 5 4 7 20 5 36 -7 43 26 53 151 47 170 -9 300 -61 448
-180 48 -39 87 -73 87 -77 0 -3 -4 -10 -9 -15 -21 -25 -111 -209 -111 -229 0
-31 28 -56 40 -36 5 8 3 19 -6 27 -20 20 -8 36 17 23 15 -8 19 -7 19 4 0 8 -8
19 -17 25 -10 5 -15 13 -11 17 4 4 14 1 23 -6 21 -18 32 -4 16 21 -7 12 -10
24 -7 27 3 3 6 0 6 -6 0 -7 5 -12 11 -12 7 0 9 10 7 24 -8 39 19 20 48 -33 28
-51 124 -189 124 -177 0 15 -34 73 -86 147 -63 89 -84 135 -58 125 14 -5 16
-1 11 29 -3 19 -2 35 2 35 14 0 136 -151 201 -248 34 -51 64 -91 66 -89 5 5
-53 116 -90 175 -29 45 -256 273 -266 267 -4 -2 -6 9 -5 26 1 16 -3 33 -8 36
-6 3 -7 1 -3 -5 4 -7 2 -12 -4 -12 -6 0 -8 -4 -5 -10 3 -6 -1 -7 -9 -4 -8 3
-18 14 -21 25 -4 11 -11 17 -16 14 -5 -4 -9 -1 -9 4 0 6 -3 10 -7 9 -15 -3
-43 14 -43 26 0 6 -12 16 -26 23 -22 10 -25 10 -20 -3 4 -11 0 -11 -18 3 -13
10 -23 20 -21 23 2 3 -9 5 -23 4 -15 -1 -32 3 -38 8 -7 5 -18 7 -25 6 -8 -2
-13 4 -11 12 2 8 1 12 -3 8 -4 -4 -19 -2 -33 3 -18 7 -28 6 -34 -3 -6 -11 -8
-11 -8 0 0 9 -5 10 -19 3 -10 -6 -21 -8 -24 -5 -3 3 -38 7 -79 8 -51 1 -78 -2
-90 -13 -16 -12 -20 -12 -37 3 -11 10 -25 15 -31 11 -6 -4 -16 -2 -23 3 -10 8
-42 12 -49 7z m-298 -200 c-7 -8 -17 -15 -22 -15 -6 0 -5 7 2 15 7 8 17 15 22
15 6 0 5 -7 -2 -15z m-20 -319 c0 -2 -8 -10 -17 -17 -16 -13 -17 -12 -4 4 13
16 21 21 21 13z m-120 -126 c0 -5 -5 -10 -11 -10 -5 0 -7 5 -4 10 3 6 8 10 11
10 2 0 4 -4 4 -10z m-450 -90 c0 -5 -6 -10 -14 -10 -8 0 -16 -5 -18 -12 -2 -6
-10 -8 -17 -4 -9 6 -9 11 0 22 13 16 49 19 49 4z m-41 -232 c-11 -40 -28 -125
-39 -188 -11 -63 -24 -117 -28 -120 -15 -11 -40 -67 -48 -105 -4 -22 -12 -43
-18 -47 -7 -5 -11 -61 -10 -170 1 -129 5 -181 22 -248 27 -109 82 -274 127
-381 19 -45 33 -84 31 -86 -12 -12 -137 254 -185 392 -101 295 -59 675 104
935 12 19 29 47 39 63 9 15 18 27 20 27 2 0 -5 -33 -15 -72z m-12 -220 c-3 -8
-6 -5 -6 6 -1 11 2 17 5 13 3 -3 4 -12 1 -19z m-10 -55 c-3 -10 -5 -4 -5 12 0
17 2 24 5 18 2 -7 2 -21 0 -30z"/>
<path d="M1392 5630 c0 -14 2 -19 5 -12 2 6 2 18 0 25 -3 6 -5 1 -5 -13z"/>
<path d="M1368 5505 c6 -34 18 -40 16 -7 0 14 -5 27 -11 29 -6 2 -8 -7 -5 -22z"/>
<path d="M1343 5375 c0 -33 2 -45 4 -27 2 18 2 45 0 60 -2 15 -4 0 -4 -33z"/>
<path d="M2188 6863 c7 -3 16 -2 19 1 4 3 -2 6 -13 5 -11 0 -14 -3 -6 -6z"/>
<path d="M1635 6840 c-3 -5 -1 -10 4 -10 6 0 11 5 11 10 0 6 -2 10 -4 10 -3 0
-8 -4 -11 -10z"/>
<path d="M2130 6841 c-82 -26 -270 -155 -270 -187 0 -17 5 -18 22 -1 57 55
135 112 201 147 42 23 77 44 77 46 0 2 -1 4 -2 3 -2 0 -14 -4 -28 -8z"/>
<path d="M1563 6797 c-18 -12 -33 -26 -33 -30 0 -4 16 4 35 19 19 14 35 28 35
30 0 6 -2 5 -37 -19z"/>
<path d="M2630 6772 c-24 -11 -36 -25 -38 -42 l-3 -25 18 22 c10 11 34 31 53
42 42 25 19 28 -30 3z"/>
<path d="M2490 6772 c0 -12 19 -26 26 -19 2 2 -2 10 -11 17 -9 8 -15 8 -15 2z"/>
<path d="M2246 6751 c-3 -4 6 -6 19 -3 14 2 25 6 25 8 0 8 -39 4 -44 -5z"/>
<path d="M2695 6753 c-32 -5 -78 -40 -69 -54 3 -5 44 -8 92 -8 63 1 76 4 47 8
-39 6 -39 7 -12 14 17 5 55 0 106 -13 44 -11 83 -20 88 -20 18 0 -25 20 -77
36 -30 9 -59 18 -65 19 -5 2 4 4 20 5 24 2 22 4 -15 10 -33 5 -47 4 -53 -6 -4
-7 -21 -15 -37 -19 -16 -4 -32 -11 -35 -16 -4 -5 -14 -9 -23 -8 -11 0 -9 4 8
10 20 8 22 12 10 20 -13 10 -13 10 0 6 9 -3 29 1 45 8 31 14 23 15 -30 8z"/>
<path d="M2866 6749 c3 -5 10 -7 15 -4 5 4 9 2 9 -3 0 -5 14 -12 30 -16 17 -3
36 -10 43 -16 28 -23 87 -59 87 -52 0 4 4 2 8 -4 4 -5 16 -17 28 -25 12 -8 43
-33 69 -56 45 -41 65 -52 65 -35 -1 9 -119 101 -157 122 -16 9 -47 28 -70 43
-24 15 -45 27 -47 27 -3 0 -17 5 -33 12 -39 15 -54 18 -47 7z"/>
<path d="M4090 6746 c0 -2 7 -7 16 -10 8 -3 12 -2 9 4 -6 10 -25 14 -25 6z"/>
<path d="M2196 6731 c-4 -5 3 -7 14 -4 23 6 26 13 6 13 -8 0 -17 -4 -20 -9z"/>
<path d="M3235 6679 c-4 -6 -5 -12 -2 -15 2 -3 7 2 10 11 7 17 1 20 -8 4z"/>
<path d="M2610 6669 c0 -5 5 -7 10 -4 6 3 10 8 10 11 0 2 -4 4 -10 4 -5 0 -10
-5 -10 -11z"/>
<path d="M2690 6663 c0 -6 -10 -14 -22 -18 -19 -7 -14 -9 27 -15 45 -6 46 -7
15 -10 -19 -1 -44 -2 -55 -2 -35 2 38 -16 115 -27 83 -12 246 -86 269 -123 7
-11 9 -19 4 -17 -4 2 -47 23 -95 47 -96 48 -157 63 -268 67 l-75 2 75 -6 c49
-4 66 -8 50 -12 -21 -5 -20 -6 10 -8 52 -2 143 -27 208 -58 55 -26 72 -35 139
-81 18 -12 35 -18 38 -12 3 5 -13 19 -36 30 -30 16 -38 25 -30 33 8 8 19 5 41
-11 31 -23 45 -28 36 -13 -4 5 -1 12 4 14 6 3 5 4 -2 3 -7 -1 -24 8 -37 21
-14 12 -45 29 -68 37 -24 8 -55 24 -70 35 -34 27 -20 27 18 0 16 -11 40 -22
53 -23 13 -1 37 -10 53 -20 l28 -17 -28 26 c-16 14 -33 23 -38 20 -5 -3 -35
11 -66 33 -74 50 -132 72 -213 82 -65 9 -65 9 20 5 58 -2 100 -10 133 -24 26
-11 47 -18 47 -16 0 8 84 -38 135 -75 38 -27 45 -36 31 -38 -14 -3 -16 -6 -6
-12 8 -5 21 -1 33 11 17 16 19 21 7 32 -10 9 -12 9 -6 0 4 -7 2 -13 -3 -13 -6
0 -11 5 -11 10 0 6 -9 10 -20 10 -11 0 -20 6 -20 13 0 15 -83 58 -180 92 -80
28 -240 47 -240 28z m159 -54 c21 -6 48 -20 62 -31 l24 -20 -25 14 c-25 14
-91 34 -140 41 -19 3 -17 5 9 6 18 0 50 -4 70 -10z m211 -139 c0 -5 -2 -10 -4
-10 -3 0 -8 5 -11 10 -3 6 -1 10 4 10 6 0 11 -4 11 -10z"/>
<path d="M2215 6604 c-34 -12 -73 -29 -86 -39 -19 -14 -20 -16 -4 -10 126 47
155 54 210 53 33 0 49 -2 35 -5 -14 -2 -45 -8 -70 -14 -25 -6 -53 -12 -63 -14
-10 -2 -45 -18 -78 -34 -33 -16 -66 -28 -73 -25 -8 3 -31 -9 -52 -27 -22 -18
-40 -34 -42 -35 -7 -5 -9 -54 -2 -54 4 0 18 11 31 25 13 13 33 25 44 25 14 0
16 3 7 9 -16 10 108 68 228 106 88 27 163 35 215 21 23 -7 27 -6 19 3 -6 6
-35 15 -65 18 -47 6 -50 8 -24 13 17 4 -14 6 -69 6 -72 -1 -115 -7 -161 -22z
m-175 -144 c-8 -6 -24 -16 -35 -22 -20 -11 -20 -11 -1 11 11 11 26 21 35 21
14 0 14 -2 1 -10z"/>
<path d="M2515 6620 c3 -5 10 -10 16 -10 5 0 9 5 9 10 0 6 -7 10 -16 10 -8 0
-12 -4 -9 -10z"/>
<path d="M2570 6619 c0 -5 5 -7 12 -3 7 4 8 3 4 -4 -14 -24 6 -34 25 -13 25
27 24 31 -11 31 -16 0 -30 -5 -30 -11z"/>
<path d="M2668 6533 c6 -2 18 -2 25 0 6 3 1 5 -13 5 -14 0 -19 -2 -12 -5z"/>
<path d="M2605 6522 c4 -4 16 -8 28 -9 32 -3 67 -9 112 -21 72 -18 106 -22
100 -12 -8 12 0 13 23 1 9 -5 33 -16 52 -25 19 -9 24 -13 10 -9 -14 4 -37 7
-52 8 -14 0 -24 4 -21 9 3 5 -2 4 -12 -1 -10 -6 -27 -8 -39 -5 -25 6 -20 -1
13 -18 19 -10 22 -10 16 1 -8 12 -7 12 44 -9 9 -3 12 -1 7 6 -9 15 -5 15 35
-3 56 -26 103 -56 117 -76 7 -10 18 -19 24 -19 6 0 5 7 -3 17 -12 14 -10 14
14 -1 31 -21 35 -28 10 -19 -11 3 -4 -9 16 -30 19 -20 37 -34 40 -31 3 4 -4
13 -16 21 -13 9 -23 20 -23 25 0 6 8 4 17 -3 14 -12 14 -10 -2 14 -26 40 -157
133 -223 157 -31 12 -77 23 -102 26 -101 9 -191 12 -185 6z m152 -18 c-3 -3
-12 -4 -19 -1 -8 3 -5 6 6 6 11 1 17 -2 13 -5z m61 -11 c-10 -2 -26 -2 -35 0
-10 3 -2 5 17 5 19 0 27 -2 18 -5z"/>
<path d="M1809 6493 c-13 -16 -12 -17 4 -4 9 7 17 15 17 17 0 8 -8 3 -21 -13z"/>
<path d="M2507 6502 c9 -5 -4 -18 -37 -37 -28 -16 -50 -33 -50 -38 0 -6 -10
-20 -22 -32 -55 -53 -92 -102 -113 -147 -12 -27 -29 -56 -38 -66 -22 -25 -47
-118 -46 -171 l1 -46 14 60 c8 33 19 80 25 105 5 24 14 47 19 50 4 3 24 37 44
75 20 39 36 65 36 59 0 -20 -63 -154 -72 -154 -4 0 -6 -10 -3 -23 4 -13 -1
-45 -11 -72 -17 -53 -14 -150 8 -230 6 -22 12 -44 13 -50 0 -5 6 -23 13 -38 7
-16 12 -33 12 -38 0 -5 4 -9 9 -9 9 0 34 -60 27 -67 -2 -2 -9 10 -15 28 -6 18
-14 30 -17 27 -8 -8 24 -68 36 -68 6 0 10 -10 10 -22 0 -19 2 -20 10 -8 8 13
10 12 10 -3 0 -27 46 -118 75 -149 48 -52 25 -42 -30 12 -62 62 -108 123 -110
148 -2 29 -48 158 -52 146 -2 -6 7 -42 21 -80 30 -83 25 -97 -8 -23 -30 64
-61 190 -78 314 -12 87 -12 89 -19 45 -16 -106 44 -313 127 -439 20 -31 62
-80 93 -109 53 -50 284 -222 299 -222 3 0 -14 21 -39 48 -25 26 -57 70 -71 97
-35 67 -78 175 -78 195 0 8 -9 34 -21 55 -19 37 -59 141 -59 154 0 8 49 -52
50 -61 0 -12 93 -97 100 -93 4 2 18 -7 31 -21 29 -31 174 -144 186 -144 4 0
22 -12 38 -25 27 -23 23 -22 -30 6 -33 18 -78 46 -100 61 -116 83 -154 113
-194 151 -38 36 -41 38 -23 11 42 -62 173 -163 301 -233 74 -41 117 -58 218
-86 l61 -18 79 28 c92 33 92 33 73 45 -18 11 -47 5 -116 -22 l-51 -21 -63 22
c-120 42 -252 149 -362 295 -34 45 -64 80 -68 79 -4 -1 -7 5 -6 15 0 9 -5 16
-12 14 -8 -1 -11 2 -6 9 3 6 2 14 -3 18 -22 13 -72 120 -92 194 -28 101 -26
119 4 35 21 -60 81 -184 95 -198 3 -3 25 -34 49 -70 58 -86 90 -120 107 -113
21 8 17 19 -17 55 l-30 33 16 -32 c19 -41 13 -42 -14 -4 -12 17 -18 36 -15 46
6 14 8 14 27 -2 18 -15 17 -13 -4 17 -13 19 -24 37 -25 40 -1 9 -15 45 -46
120 -17 41 -31 83 -32 93 -1 10 -9 22 -16 27 -7 5 -15 14 -16 22 -9 57 -25
132 -29 136 -3 3 -6 -12 -6 -34 -1 -33 -4 -27 -17 35 -11 57 -12 78 -3 92 6
10 11 30 11 45 0 14 9 33 20 42 13 12 17 21 11 31 -7 11 -10 9 -16 -8 -3 -11
-11 -21 -16 -21 -16 0 -39 -66 -39 -112 0 -92 63 -292 95 -305 9 -3 14 -12 11
-19 -3 -8 0 -13 7 -11 7 1 11 -7 9 -18 -2 -16 -1 -17 7 -5 9 13 11 13 11 -3 0
-18 1 -21 38 -96 14 -29 19 -49 13 -59 -7 -12 -12 -9 -26 19 -10 19 -40 68
-66 110 -53 82 -84 158 -104 254 -7 33 -13 51 -14 41 -1 -15 -4 -17 -12 -9
-15 15 -15 101 -1 115 7 7 12 23 12 38 l0 25 -14 -26 c-7 -15 -24 -57 -36 -94
-22 -65 -22 -75 -12 -211 5 -79 14 -149 18 -156 10 -15 11 -19 13 -50 1 -19 3
-21 12 -8 8 12 9 9 5 -10 -3 -14 1 -38 9 -54 8 -15 12 -32 9 -37 -3 -5 -1 -9
4 -9 6 0 8 -10 4 -22 -4 -16 -2 -19 8 -13 8 5 11 4 7 -2 -13 -22 54 -182 113
-268 74 -109 57 -109 -30 0 -32 41 -61 71 -66 67 -4 -4 -4 -2 0 5 4 7 -5 34
-19 60 -14 26 -24 40 -21 30 3 -10 2 -15 -4 -12 -6 3 -10 10 -10 16 0 5 -11
32 -25 61 -14 28 -25 60 -25 70 0 11 -4 17 -9 14 -14 -9 -27 14 -40 69 -7 28
-15 59 -18 70 -11 42 -14 221 -4 245 8 21 10 13 10 -43 1 -97 30 -320 43 -332
8 -7 9 -4 4 9 -11 31 -27 315 -22 401 5 99 49 217 96 260 11 10 20 23 20 29 0
6 24 27 54 46 53 34 62 50 28 50 -12 0 -13 -3 -5 -8z m-127 -297 c0 -8 -4 -15
-10 -15 -5 0 -7 7 -4 15 4 8 8 15 10 15 2 0 4 -7 4 -15z m23 -190 c8 -27 24
-72 36 -98 11 -26 16 -45 11 -42 -5 3 7 -20 28 -52 21 -32 42 -65 45 -73 8
-18 27 -47 47 -71 11 -14 16 -16 23 -6 6 8 7 7 4 -4 -3 -10 10 -32 34 -58 51
-53 41 -53 -16 0 -25 23 -45 36 -45 28 0 -7 -11 2 -25 21 -14 19 -29 36 -33
39 -38 27 -84 126 -110 241 -6 25 -17 74 -26 110 -8 36 -12 79 -8 95 5 26 7
23 13 -25 3 -30 13 -77 22 -105z m23 -208 c4 -15 3 -19 -4 -12 -5 6 -15 27
-22 48 -6 20 -15 35 -18 33 -4 -2 -7 6 -8 17 -1 12 -4 38 -8 57 -6 31 42 -84
60 -143z m285 -264 c13 -16 12 -17 -3 -4 -10 7 -18 15 -18 17 0 8 8 3 21 -13z
m-206 -163 c10 -11 16 -20 13 -20 -3 0 -13 9 -23 20 -10 11 -16 20 -13 20 3 0
13 -9 23 -20z"/>
<path d="M2575 6490 c-3 -5 0 -12 6 -16 8 -4 9 -3 5 4 -4 7 -3 12 3 12 5 0 13
-4 16 -10 9 -14 22 -12 22 3 0 13 -44 20 -52 7z"/>
<path d="M2647 6484 c3 -8 11 -14 19 -14 21 0 17 17 -5 23 -14 3 -18 1 -14 -9z"/>
<path d="M3330 6478 c0 -4 22 -32 49 -63 51 -58 148 -231 136 -243 -3 -4 -20
1 -36 10 -27 16 -29 16 -29 1 0 -14 -2 -14 -15 3 -10 14 -14 15 -15 5 0 -12
-3 -12 -12 -3 -16 16 -29 15 -22 -2 7 -19 -45 -14 -57 5 -6 11 -9 10 -14 -4
-6 -15 -9 -15 -28 -2 -25 17 -41 20 -32 5 3 -5 2 -10 -4 -10 -5 0 -13 5 -16
10 -10 16 -28 12 -22 -5 8 -20 -14 -31 -27 -13 -6 8 -29 19 -50 24 -21 5 -44
18 -50 29 -15 28 -55 65 -69 65 -8 0 -6 4 3 11 12 9 12 10 -4 5 -10 -4 -25 -1
-32 5 -17 14 -19 33 -2 23 7 -4 8 -3 4 5 -4 6 -12 9 -17 6 -10 -7 -52 19 -44
26 2 3 -4 5 -13 5 -9 1 -30 4 -47 8 -16 4 -41 9 -55 11 -14 1 -50 14 -80 28
-91 42 -110 40 -28 -2 42 -22 79 -45 83 -51 3 -6 10 -8 14 -5 5 2 19 -7 31
-20 13 -14 27 -25 32 -25 5 0 -5 13 -22 30 -16 16 -30 32 -30 35 0 10 45 -18
58 -37 7 -10 19 -18 25 -17 9 0 9 2 0 6 -19 7 -16 19 6 20 14 1 17 -3 14 -17
-3 -12 2 -20 15 -24 11 -4 23 -13 26 -21 3 -8 11 -15 17 -15 7 0 2 11 -11 25
-13 14 -21 27 -18 31 3 3 15 -8 27 -24 11 -16 18 -31 15 -34 -2 -3 11 -17 31
-32 19 -15 35 -23 35 -17 0 5 -12 19 -27 30 -16 11 -22 21 -15 21 18 0 112
-99 100 -106 -5 -3 -17 1 -27 10 -17 16 -19 15 -24 -3 -3 -11 -1 -22 4 -25 5
-2 4 -3 -3 -2 -7 2 -12 10 -10 19 1 8 -3 19 -9 23 -8 4 -9 3 -5 -4 21 -34 -36
3 -102 66 -8 7 -18 10 -23 7 -5 -4 -9 -2 -9 4 0 9 -122 91 -136 91 -4 0 33
-37 81 -82 93 -89 121 -128 104 -145 -8 -8 -7 -13 2 -18 8 -6 10 -4 4 6 -5 8
-4 11 1 6 5 -5 9 -14 9 -20 1 -7 6 -11 13 -9 7 1 12 -7 12 -17 0 -11 11 -33
25 -49 26 -31 33 -48 15 -37 -15 9 -12 -2 13 -47 30 -57 49 -78 60 -71 6 4 7
1 2 -6 -6 -11 43 -94 66 -111 6 -5 64 -109 102 -185 14 -29 21 -67 25 -145 5
-125 -14 -216 -57 -270 -15 -19 -42 -64 -60 -100 -41 -81 -65 -107 -110 -120
-59 -16 -163 -12 -227 10 -32 11 -67 20 -76 20 -26 0 -22 13 12 38 30 22 39
42 20 42 -13 0 -90 -74 -90 -87 0 -6 27 -21 59 -33 33 -12 89 -39 124 -59 78
-46 130 -66 135 -51 2 5 19 10 37 10 33 0 92 32 125 68 24 26 62 82 56 82 -3
0 6 21 19 46 14 26 25 53 25 60 0 8 5 14 11 14 6 0 8 -7 5 -16 -3 -8 -2 -12 4
-9 31 19 74 360 47 377 -9 6 -9 8 1 8 19 0 11 131 -13 225 -3 11 -9 45 -14 75
-15 87 -23 110 -34 103 -6 -3 -7 -1 -3 6 10 16 -3 73 -15 65 -6 -3 -10 0 -8 7
1 8 1 23 0 34 -1 18 -3 18 -11 3 -13 -21 -8 -64 12 -108 9 -19 14 -38 12 -42
-3 -5 -1 -8 5 -8 17 0 23 -40 9 -57 -7 -9 -8 -14 -2 -10 7 4 15 0 18 -9 9 -24
7 -28 -9 -14 -22 18 -18 -3 4 -27 11 -12 20 -29 20 -39 -1 -43 14 -123 22
-118 5 3 9 -2 9 -11 0 -9 -4 -13 -10 -10 -5 3 -10 -1 -10 -10 0 -9 5 -13 10
-10 6 3 10 -1 10 -10 0 -9 -4 -14 -9 -11 -8 5 -13 -60 -24 -281 -1 -25 -6 -38
-11 -33 -10 10 -10 36 3 150 15 138 13 228 -10 315 -11 44 -24 96 -28 115 -5
19 -19 62 -31 94 -12 32 -23 71 -23 85 0 14 -2 20 -4 14 -6 -16 -23 -17 -23
-2 0 5 -14 38 -31 72 -17 34 -35 73 -39 87 -4 14 -11 34 -15 45 -6 16 -5 18 5
8 7 -6 19 -9 26 -6 8 3 25 -6 39 -21 30 -33 39 -33 31 0 -6 21 -4 25 11 22 10
-2 20 -14 23 -28 6 -28 50 -103 57 -97 2 3 -8 31 -22 62 -14 32 -23 60 -21 62
4 4 9 0 46 -47 l20 -25 -5 30 c-6 29 -6 29 7 7 8 -12 24 -29 36 -38 l22 -15
-20 36 c-24 43 -26 63 -5 45 29 -24 70 -109 90 -185 32 -123 48 -279 37 -362
-6 -43 -9 -80 -6 -82 14 -14 19 27 18 157 0 166 -19 278 -59 366 -31 68 -44
123 -26 112 7 -5 10 -11 7 -14 -7 -6 43 -62 56 -62 14 0 9 26 -11 46 -18 20
-17 20 15 30 l33 11 31 -60 c17 -34 27 -63 21 -66 -6 -4 -4 -26 4 -59 8 -29
19 -87 25 -128 19 -137 10 -265 -14 -211 -3 6 -5 3 -3 -7 1 -13 13 -23 34 -28
85 -22 91 -119 28 -463 -8 -44 -21 -102 -30 -130 -8 -27 -15 -63 -14 -80 1
-16 -4 -68 -10 -115 -6 -46 -11 -124 -11 -173 0 -56 -4 -86 -10 -82 -5 3 -10
-2 -10 -12 0 -10 -20 -70 -44 -133 -24 -63 -46 -124 -50 -134 -3 -10 -9 -17
-11 -14 -3 2 7 51 22 109 15 57 27 133 28 169 10 320 17 397 46 507 29 111 53
247 52 291 -1 17 5 22 26 23 16 1 20 3 9 6 -10 2 -18 6 -18 8 0 2 7 39 15 82
18 92 17 83 6 83 -5 0 -15 -34 -22 -75 -10 -58 -16 -74 -27 -70 -10 3 -12 0
-9 -10 4 -8 -3 -54 -14 -102 -23 -102 -36 -186 -17 -113 7 26 13 38 15 28 3
-10 -7 -57 -20 -105 -36 -126 -46 -187 -46 -277 -1 -123 -20 -294 -61 -546
-19 -119 -38 -246 -60 -410 -9 -64 -16 -109 -19 -130 -1 -3 -5 1 -10 8 -9 14
-5 522 7 843 l7 196 -42 -5 c-38 -4 -44 -2 -52 19 l-9 24 -9 -25 c-5 -14 -27
-74 -47 -133 -41 -114 -87 -194 -157 -267 -41 -44 -42 -47 -47 -125 -9 -160
33 -305 113 -394 38 -42 187 -141 212 -141 27 0 11 -373 -23 -545 -82 -414
-284 -1051 -539 -1695 -62 -157 -129 -327 -149 -379 l-36 -93 0 -509 c0 -464
1 -509 16 -509 15 0 16 41 9 496 -6 433 -5 500 8 532 8 21 30 75 48 122 18 47
36 87 41 88 4 2 6 7 3 12 -4 7 32 102 55 142 6 10 10 24 10 32 0 7 7 19 15 26
8 7 12 16 9 21 -3 5 0 9 6 9 6 0 9 4 6 9 -6 9 29 117 60 186 10 22 18 42 19
45 0 3 13 39 29 80 60 160 85 229 116 323 17 53 36 95 41 92 5 -4 6 0 3 8 -7
20 46 188 57 181 5 -3 6 2 3 10 -3 8 3 44 14 78 67 210 164 586 183 705 6 43
15 92 19 108 8 28 8 28 9 5 2 -33 74 -353 105 -460 74 -260 105 -351 158 -469
11 -24 20 -52 21 -62 1 -10 4 -16 7 -14 3 2 11 -8 17 -23 7 -15 24 -54 39 -87
53 -119 80 -256 70 -348 -9 -77 -42 -179 -67 -206 -11 -11 -18 -24 -17 -29 5
-13 -84 -102 -119 -118 -18 -9 -38 -12 -45 -8 -10 6 -11 5 -1 -7 11 -13 7 -15
-27 -14 -21 1 -37 -2 -34 -7 3 -5 10 -5 16 -2 6 4 8 3 5 -3 -4 -6 -18 -9 -32
-8 -14 2 -28 -1 -31 -7 -4 -6 -10 -5 -15 3 -7 11 -9 10 -9 -3 0 -10 -5 -18
-11 -18 -5 0 -8 4 -5 9 8 12 -14 8 -39 -7 -17 -11 -10 -13 47 -9 136 9 303
121 355 236 69 156 70 328 4 506 -11 28 -40 95 -65 149 -117 251 -238 652
-296 981 -19 106 -40 425 -28 425 2 0 63 -24 135 -54 161 -67 313 -110 463
-131 284 -40 433 -175 482 -432 20 -105 17 -748 -5 -978 -41 -435 -72 -1058
-64 -1275 5 -144 9 -169 57 -355 28 -110 64 -263 79 -339 15 -77 33 -142 39
-144 7 -2 10 2 8 10 -3 7 -7 36 -10 63 -9 73 -36 194 -95 420 -50 189 -53 209
-58 355 -7 196 27 835 67 1290 30 333 28 829 -4 980 -21 101 -76 209 -137 270
-94 94 -184 133 -374 160 -152 22 -220 42 -405 117 -74 30 -141 57 -148 60
-14 6 -11 51 13 208 l14 90 -3 -115 c-2 -78 0 -105 6 -85 5 17 8 73 7 125 -1
142 0 162 11 155 6 -4 8 11 5 40 -3 40 -1 46 12 41 13 -5 14 -4 3 9 -9 11 -9
19 -2 28 6 7 47 100 92 207 45 107 88 205 96 217 24 37 105 243 130 328 33
114 44 194 44 321 0 218 -75 486 -202 718 -21 38 -36 72 -33 75 3 3 18 7 33 8
37 5 86 20 162 51 122 49 184 86 214 130 27 39 29 44 18 81 -13 42 -47 71 -84
71 -20 0 -18 -3 15 -25 45 -31 55 -63 32 -102 -42 -71 -147 -111 -314 -120
l-118 -6 -46 84 c-25 46 -69 111 -97 144 -67 77 -70 80 -70 73z m-419 -223
c15 -1 69 -62 69 -78 0 -10 4 -16 9 -13 5 3 12 -1 15 -10 3 -8 11 -12 17 -8 7
4 9 3 6 -3 -4 -6 0 -16 8 -23 8 -7 15 -22 15 -33 0 -11 3 -17 6 -14 4 4 20
-19 37 -51 16 -31 36 -64 43 -73 8 -8 14 -21 14 -27 0 -7 4 -12 8 -12 5 0 26
-36 46 -80 21 -44 40 -80 42 -80 13 0 -106 241 -133 268 -7 8 -23 35 -34 60
-12 26 -23 50 -26 55 -2 4 6 6 19 4 26 -4 27 -7 122 -207 64 -136 99 -258 110
-380 6 -59 5 -58 -26 70 -12 47 -29 96 -40 109 -10 13 -18 20 -18 16 0 -5 6
-16 14 -24 7 -9 16 -32 19 -51 5 -27 4 -31 -4 -17 -10 17 -57 142 -58 154 -1
9 -31 13 -31 4 0 -4 9 -16 20 -26 11 -10 20 -22 20 -27 0 -5 -11 4 -25 20 -15
18 -23 36 -19 46 4 9 -1 25 -10 35 -9 10 -13 21 -9 26 5 4 3 5 -4 1 -6 -3 -14
-2 -18 4 -4 6 -11 7 -17 4 -7 -4 -8 -2 -4 4 4 7 2 12 -4 12 -14 0 -51 62 -45
78 2 7 -7 32 -21 57 -13 25 -22 45 -18 45 4 0 0 8 -9 18 -10 10 -14 22 -10 25
3 4 1 7 -5 7 -7 0 -12 8 -12 17 0 10 -26 42 -57 71 -32 30 -47 48 -33 41 14
-7 28 -13 31 -14z m782 -108 c-3 -5 -7 -6 -10 -3 -3 3 -20 -1 -38 -8 -21 -9
-37 -10 -48 -4 -12 6 -17 5 -17 -3 0 -8 -5 -8 -16 2 -14 12 -15 14 0 19 25 8
135 6 129 -3z m-49 -237 c55 -108 108 -272 137 -420 18 -95 21 -137 16 -245
-5 -136 -39 -311 -76 -390 -96 -207 -126 -266 -129 -257 -2 6 2 21 9 34 8 13
14 25 14 28 1 3 7 19 14 35 7 17 14 69 15 117 1 51 7 93 13 99 9 9 11 -2 7
-47 -3 -50 -2 -54 6 -29 16 46 18 174 4 186 -10 8 -14 -3 -20 -50 -3 -33 -12
-62 -18 -64 -14 -5 -7 65 12 138 15 54 40 191 48 259 4 31 10 56 13 56 7 0 4
121 -4 167 -3 18 -6 36 -7 40 0 5 -11 17 -23 28 -17 16 -24 36 -29 90 -12 123
-40 275 -56 305 -13 24 -13 39 1 20 5 -8 29 -53 53 -100z m-510 -66 c3 -8 2
-12 -4 -9 -6 3 -10 10 -10 16 0 14 7 11 14 -7z m147 -687 c-8 -8 -11 -7 -11 4
0 20 13 34 18 19 3 -7 -1 -17 -7 -23z m-11 -31 c0 -8 -7 -16 -15 -20 -13 -4
-14 -2 -5 14 13 23 20 26 20 6z m47 -18 c-3 -7 -5 -2 -5 12 0 14 2 19 5 13 2
-7 2 -19 0 -25z m-162 -203 c-22 -19 -50 -35 -62 -35 -35 0 -35 16 0 18 18 2
43 13 57 27 13 14 29 25 35 25 5 -1 -8 -16 -30 -35z m-102 -14 c-6 -23 -34
-32 -71 -22 -34 9 -26 27 10 23 15 -2 36 1 45 7 10 6 19 11 20 11 0 0 -1 -9
-4 -19z m560 -194 c-8 -38 -27 -48 -21 -11 3 16 9 38 13 48 5 11 5 17 -1 14
-5 -4 -7 17 -5 50 l5 57 7 -65 c4 -36 5 -77 2 -93z m-298 43 c11 0 12 -52 8
-282 -3 -156 -5 -299 -4 -318 4 -106 7 -380 5 -380 -13 0 -89 51 -87 58 1 5
-5 9 -15 8 -9 0 -16 4 -15 11 2 8 -4 10 -14 6 -13 -5 -15 -2 -10 11 4 10 3 15
-3 11 -13 -8 -68 46 -93 92 -40 75 -57 152 -57 266 l0 108 32 27 c18 15 35 26
39 25 4 -1 6 5 5 15 0 9 5 16 11 15 7 -2 12 0 11 5 -4 13 48 92 56 85 4 -5 7
-3 6 2 -5 25 1 46 12 39 6 -4 8 -3 4 4 -5 9 12 66 55 181 6 15 14 21 25 17 9
-3 22 -6 29 -6z"/>
<path d="M3050 5986 c0 -14 34 -66 43 -66 5 0 -2 15 -14 33 -30 42 -29 42 -29
33z"/>
<path d="M3636 5877 c3 -10 9 -15 12 -12 3 3 0 11 -7 18 -10 9 -11 8 -5 -6z"/>
<path d="M3670 5795 c0 -5 5 -17 10 -25 5 -8 10 -10 10 -5 0 6 -5 17 -10 25
-5 8 -10 11 -10 5z"/>
<path d="M3682 5640 c0 -14 2 -19 5 -12 2 6 2 18 0 25 -3 6 -5 1 -5 -13z"/>
<path d="M3721 5584 c0 -11 3 -14 6 -6 3 7 2 16 -1 19 -3 4 -6 -2 -5 -13z"/>
<path d="M3750 5460 c0 -5 5 -10 10 -10 6 0 10 5 10 10 0 6 -4 10 -10 10 -5 0
-10 -4 -10 -10z"/>
<path d="M3749 5423 c-1 -10 -1 -43 -1 -73 0 -142 -32 -443 -55 -507 -4 -12
-3 -15 4 -8 23 22 70 270 75 390 4 115 -1 215 -12 215 -5 0 -10 -8 -11 -17z"/>
<path d="M3689 5120 c-4 -8 -5 -27 -3 -43 2 -19 -1 -25 -9 -21 -7 4 -3 -2 8
-13 11 -11 20 -20 21 -19 0 0 -2 26 -5 56 -3 30 -9 48 -12 40z"/>
<path d="M2758 6463 c7 -3 16 -2 19 1 4 3 -2 6 -13 5 -11 0 -14 -3 -6 -6z"/>
<path d="M1799 6389 c-94 -152 -109 -179 -100 -179 5 0 24 24 42 53 17 28 50
80 72 114 21 34 37 68 35 74 -2 7 -24 -21 -49 -62z"/>
<path d="M2525 6450 c4 -6 11 -8 16 -5 14 9 11 15 -7 15 -8 0 -12 -5 -9 -10z"/>
<path d="M2585 6451 c-3 -7 -2 -10 3 -9 5 2 19 -8 31 -21 12 -14 29 -26 39
-27 9 -1 26 -5 37 -9 17 -6 16 -5 -3 10 -13 9 -30 18 -37 19 -8 1 -25 12 -39
25 -16 15 -26 19 -31 12z"/>
<path d="M2725 6449 c8 -12 45 -28 94 -39 48 -12 25 4 -42 29 -32 12 -55 16
-52 10z"/>
<path d="M2345 6401 c-62 -40 -187 -161 -184 -177 4 -21 -2 -34 -16 -34 -8 0
-21 -13 -30 -30 -9 -16 -11 -30 -6 -30 5 0 12 11 15 25 4 14 11 25 16 25 5 0
-2 -30 -16 -67 -14 -38 -29 -81 -34 -98 -4 -16 -8 -25 -9 -20 -1 6 -24 -35
-52 -90 -29 -55 -66 -120 -83 -145 -33 -47 -86 -138 -86 -148 0 -13 133 195
176 276 26 48 52 93 58 101 6 8 31 63 56 122 49 119 122 215 212 280 26 19 47
37 48 42 0 10 1 11 -65 -32z"/>
<path d="M2563 6415 c0 -8 4 -12 9 -9 5 3 6 10 3 15 -9 13 -12 11 -12 -6z"/>
<path d="M2870 6412 c14 -12 32 -20 40 -20 40 3 52 -2 45 -19 -4 -13 -3 -15 5
-7 9 9 31 -7 87 -60 71 -67 103 -93 103 -83 0 10 -143 142 -151 140 -5 -2 -9
3 -9 10 0 6 -19 22 -42 35 -50 26 -66 28 -48 7 16 -19 6 -19 -28 1 l-27 16 25
-20z"/>
<path d="M1926 6401 c-16 -18 -13 -51 5 -51 5 0 9 -9 9 -20 0 -31 28 -24 32 8
3 28 -12 82 -23 82 -3 0 -13 -8 -23 -19z"/>
<path d="M2285 6409 c-11 -17 1 -21 15 -4 8 9 8 15 2 15 -6 0 -14 -5 -17 -11z"/>
<path d="M2527 6400 c-6 -24 8 -36 17 -14 8 22 7 34 -3 34 -5 0 -11 -9 -14
-20z"/>
<path d="M2600 6404 c0 -16 39 -44 54 -38 7 3 21 -2 30 -11 9 -9 20 -14 26
-10 6 4 7 -1 3 -11 -4 -11 -2 -15 4 -11 10 7 51 -34 96 -95 28 -38 34 -58 17
-58 -5 0 -10 3 -10 8 0 4 -13 7 -29 8 -28 1 -29 -1 -20 -25 6 -14 16 -30 23
-36 7 -5 24 -49 39 -96 36 -117 56 -149 167 -268 52 -57 99 -110 104 -119 5
-10 16 -23 23 -30 27 -27 13 12 -17 47 -16 19 -27 38 -24 42 2 5 -14 28 -37
51 -23 24 -53 59 -68 78 -14 19 -38 48 -53 63 -16 16 -28 33 -28 38 0 6 -4 7
-10 4 -6 -3 -7 1 -4 9 3 9 2 16 -3 16 -10 0 -39 90 -53 163 -7 36 -6 37 10 22
10 -9 21 -35 24 -58 4 -23 19 -66 33 -96 22 -44 28 -51 34 -35 8 19 9 17 13
-23 3 -26 16 -44 16 -22 0 8 8 -1 17 -20 10 -19 53 -73 98 -120 44 -47 93
-101 108 -119 15 -19 27 -30 27 -25 0 9 -18 38 -59 93 -14 19 -26 40 -26 45 0
6 -7 10 -15 10 -9 0 -14 9 -13 19 1 11 -16 46 -38 78 -21 33 -39 64 -39 69 0
5 -4 9 -8 9 -4 0 -16 20 -26 45 -11 25 -23 45 -28 45 -4 0 -8 -2 -8 -5 0 -11
107 -192 129 -218 12 -15 12 -17 0 -12 -8 3 -23 18 -34 34 -10 16 -23 27 -29
24 -5 -3 -6 -1 -2 5 3 6 0 14 -7 19 -7 4 -25 29 -41 56 -15 26 -31 45 -36 42
-5 -3 -12 11 -15 32 -4 21 -12 54 -19 73 -7 19 -11 41 -8 49 3 8 0 11 -7 7 -6
-4 -11 -2 -11 3 0 17 28 13 39 -6 9 -16 12 -16 21 -3 8 11 4 21 -16 38 -21 18
-29 20 -35 11 -6 -10 -12 -9 -28 5 -22 20 -29 42 -9 30 7 -4 8 -3 4 4 -4 7
-14 12 -22 12 -8 0 -14 7 -14 15 0 8 -4 15 -10 15 -5 0 -10 5 -10 10 0 6 -14
26 -30 44 -32 35 -110 73 -110 53 0 -6 -11 0 -25 13 -14 13 -25 19 -25 14z
m350 -558 c0 -6 -7 -1 -15 10 -8 10 -15 23 -15 28 0 6 7 1 15 -10 8 -10 15
-23 15 -28z"/>
<path d="M2230 6373 c-33 -27 -33 -27 -20 -3 l13 25 -24 -20 c-58 -49 -157
-165 -140 -165 5 0 40 28 78 63 37 34 84 74 103 89 19 15 32 30 28 33 -3 3
-20 -7 -38 -22z"/>
<path d="M1850 6338 c-42 -58 -65 -101 -50 -96 6 2 11 7 10 11 0 5 10 17 23
27 25 20 63 88 54 97 -3 3 -20 -15 -37 -39z"/>
<path d="M1732 6343 c-10 -16 -23 -35 -27 -43 -8 -13 -7 -13 9 -1 17 14 51 71
42 71 -3 0 -13 -12 -24 -27z"/>
<path d="M2551 6320 c-1 -26 2 -51 7 -54 5 -3 7 7 5 22 -2 15 4 6 13 -20 9
-27 20 -48 24 -48 5 0 1 21 -7 48 -8 26 -17 57 -20 70 -9 40 -19 32 -22 -18z"/>
<path d="M3240 6364 c0 -4 12 -19 28 -33 15 -14 45 -48 66 -74 21 -26 40 -46
43 -43 7 7 -87 124 -113 141 -13 9 -24 12 -24 9z"/>
<path d="M2684 6296 c14 -19 26 -38 26 -41 0 -8 27 -35 34 -35 9 0 -17 44 -32
53 -7 5 -17 20 -22 33 -5 13 -15 24 -21 24 -6 0 0 -15 15 -34z"/>
<path d="M2606 6305 c4 -8 11 -15 16 -15 6 0 5 6 -2 15 -7 8 -14 15 -16 15 -2
0 -1 -7 2 -15z"/>
<path d="M3220 6316 c0 -2 20 -26 45 -52 25 -27 45 -43 45 -37 0 15 -68 93
-81 93 -5 0 -9 -2 -9 -4z"/>
<path d="M1657 6275 c-9 -19 -15 -35 -12 -35 7 0 37 61 33 66 -3 2 -12 -12
-21 -31z"/>
<path d="M2502 6273 c14 -55 32 -68 23 -18 -8 45 -12 55 -25 55 -5 0 -4 -17 2
-37z"/>
<path d="M2754 6258 c18 -29 38 -54 45 -56 6 -2 -5 21 -26 52 -48 70 -64 74
-19 4z"/>
<path d="M2954 6266 c27 -25 51 -46 53 -46 10 0 -2 12 -49 50 l-53 43 49 -47z"/>
<path d="M2123 6232 c-39 -54 -44 -58 -75 -54 -30 3 -36 0 -57 -38 -23 -41
-21 -70 3 -37 14 18 32 24 21 7 -3 -5 -1 -10 5 -10 6 0 2 -14 -10 -31 -12 -16
-19 -33 -15 -37 4 -4 10 -1 12 6 3 7 16 26 30 42 19 24 21 30 9 30 -9 0 -16 5
-16 10 0 6 11 8 25 4 23 -6 27 -1 46 42 12 27 35 66 51 87 16 20 26 37 21 37
-4 0 -27 -27 -50 -58z"/>
<path d="M2642 6265 c0 -16 2 -22 5 -12 2 9 2 23 0 30 -3 6 -5 -1 -5 -18z"/>
<path d="M4496 6277 c3 -10 9 -15 12 -12 3 3 0 11 -7 18 -10 9 -11 8 -5 -6z"/>
<path d="M3200 6271 c0 -12 42 -42 48 -36 5 4 -36 45 -45 45 -1 0 -3 -4 -3 -9z"/>
<path d="M3417 6256 c10 -13 19 -23 21 -21 5 5 -22 45 -31 45 -4 0 0 -11 10
-24z"/>
<path d="M3165 6250 c3 -5 11 -10 16 -10 6 0 7 5 4 10 -3 6 -11 10 -16 10 -6
0 -7 -4 -4 -10z"/>
<path d="M2475 6240 c3 -5 8 -10 11 -10 2 0 4 5 4 10 0 6 -5 10 -11 10 -5 0
-7 -4 -4 -10z"/>
<path d="M2661 6234 c0 -11 3 -14 6 -6 3 7 2 16 -1 19 -3 4 -6 -2 -5 -13z"/>
<path d="M2213 6188 c4 -11 2 -15 -7 -12 -7 3 -16 -3 -20 -13 -20 -58 -23 -72
-15 -84 7 -11 9 -10 9 4 0 29 1 31 17 50 9 9 12 17 8 17 -5 0 0 6 11 14 16 13
17 17 5 28 -12 11 -13 10 -8 -4z"/>
<path d="M2726 6185 c-3 -8 -10 -14 -15 -13 -11 3 -13 -10 -6 -33 4 -11 13
-15 25 -12 12 3 20 0 20 -6 0 -7 -5 -9 -10 -6 -13 8 -1 -77 11 -86 5 -3 11
-27 13 -55 l5 -49 -11 48 c-6 26 -15 47 -20 47 -13 0 1 -88 19 -123 8 -16 13
-40 11 -55 -4 -37 -48 121 -49 179 -1 24 -5 55 -9 69 -7 22 -8 20 -10 -15 -2
-36 -3 -34 -11 20 -4 33 -6 68 -3 77 6 19 -27 19 -34 -1 -3 -8 -8 -6 -17 6 -7
10 -17 14 -21 10 -5 -4 -4 -11 2 -15 6 -4 15 -18 19 -32 7 -23 8 -24 15 -5 5
15 10 6 18 -35 6 -30 26 -105 46 -167 23 -73 36 -139 39 -187 3 -53 10 -83 25
-107 l21 -34 -3 56 c-1 30 -6 60 -9 66 -4 6 -6 87 -5 179 1 137 -2 176 -15
208 -10 21 -17 47 -17 57 0 23 -16 33 -24 14z m54 -505 c6 -11 8 -20 6 -20 -3
0 -10 9 -16 20 -6 11 -8 20 -6 20 3 0 10 -9 16 -20z"/>
<path d="M2517 6184 c-12 -12 -8 -61 6 -72 10 -9 12 -3 9 26 -5 50 -6 54 -15
46z"/>
<path d="M2570 6180 c0 -5 -7 -10 -15 -10 -20 0 -19 -15 2 -35 9 -10 18 -38
20 -64 7 -81 7 -81 17 -71 7 7 6 18 -3 33 -13 20 -13 21 1 9 10 -8 19 -38 23
-75 7 -63 35 -143 86 -254 45 -96 51 -115 37 -111 -7 3 -15 13 -16 24 -5 27
-15 35 -32 24 -11 -7 4 -27 70 -94 82 -84 123 -111 61 -40 -18 20 -43 59 -55
87 -94 210 -89 197 -110 257 -8 25 -18 65 -22 90 -3 25 -17 74 -30 109 -16 40
-22 67 -16 73 6 6 13 -2 17 -23 4 -18 18 -53 32 -78 14 -27 22 -36 19 -21 -3
14 -6 31 -6 38 0 7 -4 11 -9 7 -10 -6 -16 9 -27 68 -3 20 -10 37 -15 37 -5 0
-9 7 -9 15 0 8 -4 15 -10 15 -5 0 -10 -4 -10 -10z"/>
<path d="M1052 6160 c4 -12 -7 -15 -65 -15 -54 0 -71 -3 -74 -15 -4 -13 -3
-13 6 0 7 9 14 11 19 5 9 -13 32 -18 32 -7 0 5 14 9 30 9 17 0 30 -3 30 -7 0
-3 9 -6 20 -6 11 0 20 4 20 9 0 4 5 5 10 2 18 -11 62 -16 56 -7 -8 13 46 12
64 -1 13 -9 13 -8 0 6 -15 16 -84 32 -75 17 3 -4 -2 -10 -10 -14 -8 -3 -15 -1
-15 5 0 6 -4 8 -9 4 -5 -3 -17 3 -27 12 -13 14 -16 14 -12 3z"/>
<path d="M3895 6150 c-3 -5 -18 -10 -33 -11 l-27 0 24 -10 c30 -12 44 -8 47
14 3 19 -2 22 -11 7z"/>
<path d="M4170 6153 c0 -8 -26 -11 -92 -8 -101 3 -158 -2 -158 -16 0 -8 373
-10 398 -1 6 2 12 9 12 15 0 8 -3 8 -11 0 -7 -7 -23 -8 -46 -3 -19 5 -46 6
-61 4 -14 -3 -29 1 -33 8 -6 9 -9 9 -9 1z"/>
<path d="M806 6135 c22 -17 44 -19 44 -5 0 5 -6 7 -14 4 -8 -3 -17 -1 -21 5
-3 6 -11 11 -18 11 -6 0 -2 -7 9 -15z"/>
<path d="M875 6141 c-3 -5 0 -13 6 -17 7 -4 9 -3 5 4 -3 5 0 13 6 15 9 4 10 6
1 6 -6 1 -14 -3 -18 -8z"/>
<path d="M4475 6140 c-3 -5 -1 -10 4 -10 6 0 11 5 11 10 0 6 -2 10 -4 10 -3 0
-8 -4 -11 -10z"/>
<path d="M738 6133 c6 -2 18 -2 25 0 6 3 1 5 -13 5 -14 0 -19 -2 -12 -5z"/>
<path d="M1827 6133 c-13 -3 -17 -13 -15 -37 1 -19 -6 -44 -18 -62 -31 -44
-36 -54 -27 -54 12 0 64 96 56 104 -3 3 4 17 17 31 23 25 22 27 -13 18z"/>
<path d="M2251 6124 c0 -11 3 -14 6 -6 3 7 2 16 -1 19 -3 4 -6 -2 -5 -13z"/>
<path d="M3145 6130 c3 -5 8 -10 11 -10 2 0 4 5 4 10 0 6 -5 10 -11 10 -5 0
-7 -4 -4 -10z"/>
<path d="M3490 6126 c0 -9 5 -16 10 -16 6 0 10 4 10 9 0 6 -4 13 -10 16 -5 3
-10 -1 -10 -9z"/>
<path d="M1707 6113 c-4 -3 -7 -11 -7 -17 0 -6 5 -5 12 2 6 6 9 14 7 17 -3 3
-9 2 -12 -2z"/>
<path d="M2082 6090 c-7 -11 -8 -20 -3 -20 9 0 24 30 18 36 -1 2 -8 -6 -15
-16z"/>
<path d="M2791 6094 c0 -11 3 -14 6 -6 3 7 2 16 -1 19 -3 4 -6 -2 -5 -13z"/>
<path d="M2934 6083 c1 -14 8 -29 16 -31 13 -4 13 -3 2 11 -8 9 -11 21 -8 26
4 5 2 12 -2 15 -5 3 -9 -7 -8 -21z"/>
<path d="M3515 6100 c-3 -5 -1 -10 4 -10 6 0 11 5 11 10 0 6 -2 10 -4 10 -3 0
-8 -4 -11 -10z"/>
<path d="M1933 6082 c-3 -12 -9 -22 -14 -22 -31 0 -98 -123 -103 -187 0 -13
-4 -23 -8 -23 -9 0 -24 -58 -37 -145 -19 -128 -21 -155 -13 -155 4 0 8 -55 8
-122 -1 -68 2 -154 6 -193 9 -94 87 -319 105 -301 3 3 1 11 -4 18 -6 7 -20 45
-32 83 -23 71 -32 96 -53 140 -6 14 -8 28 -5 32 4 3 7 -1 7 -10 0 -9 4 -17 9
-17 5 0 2 28 -5 63 -7 34 -13 78 -13 97 1 25 5 16 15 -35 8 -38 17 -79 19 -90
3 -11 7 -36 9 -55 9 -68 59 -182 111 -250 31 -42 90 -80 125 -80 23 0 22 -2
-13 -26 -21 -14 -37 -27 -35 -29 2 -3 80 33 173 79 94 46 180 86 193 90 31 10
28 30 -14 76 -47 52 -55 45 -14 -11 l31 -43 -83 -18 c-179 -39 -228 -35 -290
25 -36 34 -118 149 -118 165 0 5 -9 17 -20 27 -11 10 -18 20 -15 23 3 3 0 11
-6 19 -19 22 -31 263 -16 316 8 27 -8 35 -26 12 -5 -6 -6 -1 -3 10 3 12 10 53
15 92 5 38 16 86 24 104 8 19 36 78 61 133 27 58 39 93 29 85 -14 -12 -16 -12
-11 1 19 47 19 53 1 27 -11 -15 -22 -25 -25 -21 -3 3 -6 -1 -5 -8 1 -33 -4
-49 -14 -43 -6 4 -8 14 -4 22 4 13 3 14 -10 3 -16 -13 -21 -35 -6 -26 5 3 12
-1 15 -10 3 -8 11 -12 17 -8 7 4 10 3 7 -2 -3 -5 -13 -27 -23 -49 -9 -22 -23
-53 -30 -69 -7 -15 -15 -24 -19 -18 -3 5 1 15 9 22 8 7 15 19 15 26 0 8 5 22
11 32 9 14 8 26 -5 51 -16 30 -16 34 0 64 9 18 22 42 28 55 6 12 18 24 27 27
19 6 45 52 35 62 -4 4 -9 -3 -13 -15z m-20 -157 c-3 -9 -8 -14 -10 -11 -3 3
-2 9 2 15 9 16 15 13 8 -4z m-75 -104 c-11 -25 -25 -52 -30 -58 -7 -9 -7 -13
1 -13 7 0 10 -8 7 -17 -3 -10 -8 -45 -11 -78 -3 -33 -10 -62 -15 -63 -6 -2 -8
-8 -5 -12 3 -5 1 -11 -5 -15 -15 -9 -12 27 4 48 10 13 12 27 6 48 -5 18 -5 27
1 24 5 -4 9 1 9 10 0 10 -5 13 -12 9 -9 -6 -9 -3 0 9 8 9 11 20 8 25 -3 5 3
36 14 68 32 95 30 90 39 75 5 -8 1 -32 -11 -60z m66 -797 c3 -8 2 -12 -4 -9
-6 3 -10 10 -10 16 0 14 7 11 14 -7z m76 -79 c12 8 13 -5 1 -24 -6 -10 -14 -5
-33 20 -39 53 -43 67 -9 31 17 -18 35 -30 41 -27z m54 -38 c14 -8 23 -17 19
-21 -6 -5 25 -2 81 9 16 3 17 2 5 -9 -17 -16 -99 -30 -99 -17 0 5 -9 12 -19
16 -19 6 -37 35 -22 35 5 0 20 -6 35 -13z"/>
<path d="M3160 6097 c0 -14 33 -67 42 -67 4 0 8 3 8 8 0 10 -49 69 -50 59z"/>
<path d="M3928 6093 c7 -3 16 -2 19 1 4 3 -2 6 -13 5 -11 0 -14 -3 -6 -6z"/>
<path d="M1860 6068 c-72 -85 -119 -177 -126 -250 -6 -62 10 -48 21 19 8 52
65 159 113 212 21 25 28 41 17 41 -3 0 -14 -10 -25 -22z"/>
<path d="M2531 6074 c0 -11 3 -14 6 -6 3 7 2 16 -1 19 -3 4 -6 -2 -5 -13z"/>
<path d="M1955 6050 c-17 -19 -11 -28 10 -12 10 7 19 32 12 32 -2 0 -12 -9
-22 -20z"/>
<path d="M2800 6056 c0 -9 7 -49 16 -88 19 -82 22 -154 12 -253 l-8 -70 15 60
c29 121 29 138 0 252 -28 110 -35 130 -35 99z"/>
<path d="M2045 6049 c-4 -6 -5 -12 -2 -15 2 -3 7 2 10 11 7 17 1 20 -8 4z"/>
<path d="M3360 6052 c0 -7 6 -27 13 -45 14 -33 41 -143 52 -209 3 -21 11 -38
16 -38 6 0 8 8 6 18 -3 9 -10 46 -17 82 -19 101 -70 241 -70 192z"/>
<path d="M1659 6046 c-1 -3 -2 -9 -4 -13 -12 -45 -16 -77 -27 -198 -6 -77 -11
-158 -10 -180 1 -33 -1 -37 -10 -21 -6 12 -8 47 -4 95 3 42 2 90 -3 106 -6 22
-9 -6 -10 -97 -1 -86 2 -128 10 -128 6 0 9 -8 6 -17 -3 -18 18 -73 29 -73 4 0
3 19 0 43 -4 23 -1 108 6 187 7 80 12 166 13 192 0 25 4 44 9 41 5 -3 6 0 4 8
-3 8 -1 22 3 31 6 10 5 19 -1 23 -5 3 -11 4 -11 1z"/>
<path d="M3470 6042 c0 -5 7 -28 15 -53 8 -24 19 -80 24 -124 l10 -80 -4 97
c-3 54 -11 113 -19 133 -14 33 -26 45 -26 27z"/>
<path d="M3518 6013 c5 -21 7 -23 10 -9 2 10 0 22 -6 28 -6 6 -7 0 -4 -19z"/>
<path d="M1607 5957 c-5 -43 -6 -81 -4 -84 9 -9 18 60 15 112 -3 47 -4 45 -11
-28z"/>
<path d="M2136 6014 c-22 -57 4 -224 51 -323 39 -83 141 -241 155 -241 4 0 -9
26 -31 58 -113 167 -179 353 -165 468 6 53 2 69 -10 38z"/>
<path d="M1960 6005 c-7 -9 -11 -18 -8 -20 3 -3 11 1 18 10 7 9 11 18 8 20 -3
3 -11 -1 -18 -10z"/>
<path d="M2023 5998 c-2 -16 1 -17 13 -8 17 15 17 17 1 23 -8 3 -14 -3 -14
-15z"/>
<path d="M3200 6006 c0 -8 4 -17 9 -20 5 -4 7 3 4 14 -6 23 -13 26 -13 6z"/>
<path d="M1990 5976 c-5 -13 -12 -25 -17 -27 -7 -4 -39 -64 -66 -124 -6 -15
-3 -14 12 5 10 13 17 28 15 32 -3 4 -1 8 5 8 5 0 12 9 16 19 3 11 16 32 27 47
12 15 23 35 23 46 2 25 -4 23 -15 -6z"/>
<path d="M3230 5991 c0 -6 5 -13 10 -16 6 -3 10 1 10 9 0 9 -4 16 -10 16 -5 0
-10 -4 -10 -9z"/>
<path d="M3315 5980 c3 -14 14 -54 25 -90 35 -126 39 -142 32 -158 -5 -15 -4
-15 11 -3 11 9 14 18 8 30 -7 13 -22 75 -25 103 -1 3 -4 10 -8 14 -5 4 -8 18
-8 30 0 13 -5 26 -10 29 -6 4 -8 11 -5 16 4 5 -1 19 -10 31 l-17 23 7 -25z"/>
<path d="M2645 5950 c11 -53 28 -74 20 -25 -4 22 -11 45 -17 50 -7 7 -8 -1 -3
-25z"/>
<path d="M1727 5933 c-18 -46 -31 -103 -23 -103 3 0 13 25 21 55 9 30 23 62
31 70 13 13 13 15 1 15 -8 0 -22 -17 -30 -37z"/>
<path d="M2102 5950 c-7 -12 -33 -60 -58 -107 -24 -47 -65 -108 -90 -136 -72
-81 -72 -99 1 -22 87 93 123 145 147 212 20 60 21 86 0 53z"/>
<path d="M2003 5936 c-13 -13 -23 -30 -23 -36 0 -7 -12 -29 -27 -48 -15 -20
-27 -44 -28 -56 -1 -11 -7 -22 -13 -24 -8 -2 -10 3 -6 15 6 16 5 16 -9 -2 -20
-24 -22 -39 -4 -29 6 4 5 -1 -4 -12 -19 -21 -72 -174 -64 -182 3 -3 5 0 5 7 0
7 4 9 10 6 5 -3 7 0 4 9 -7 18 46 125 87 177 17 22 32 45 33 52 1 6 12 32 25
57 24 48 42 90 38 90 -1 0 -12 -11 -24 -24z m-43 -120 c0 -2 -8 -10 -17 -17
-16 -13 -17 -12 -4 4 13 16 21 21 21 13z"/>
<path d="M2801 5875 c-1 -44 -4 -93 -6 -110 -3 -24 -2 -26 6 -13 5 10 8 59 6
110 l-3 93 -3 -80z"/>
<path d="M2336 5850 c8 -66 44 -211 60 -240 21 -40 17 -11 -21 132 -41 154
-47 170 -39 108z"/>
<path d="M2690 5876 c0 -8 4 -17 9 -20 5 -4 7 3 4 14 -6 23 -13 26 -13 6z"/>
<path d="M4556 5867 c3 -10 9 -15 12 -12 3 3 0 11 -7 18 -10 9 -11 8 -5 -6z"/>
<path d="M2100 5839 c-7 -17 -51 -72 -97 -121 -51 -56 -83 -99 -83 -112 1 -18
3 -17 17 9 9 17 50 66 93 111 42 44 82 94 88 112 14 41 -1 42 -18 1z"/>
<path d="M2884 5819 c3 -17 16 -52 28 -77 32 -70 36 -21 4 52 -27 62 -42 73
-32 25z"/>
<path d="M3572 5820 c0 -19 2 -27 5 -17 2 9 2 25 0 35 -3 9 -5 1 -5 -18z"/>
<path d="M2691 5834 c1 -19 48 -108 49 -92 0 9 -5 20 -10 23 -6 4 -8 15 -5 24
3 11 -3 25 -15 36 -11 10 -20 14 -19 9z"/>
<path d="M3280 5801 c0 -6 4 -13 10 -16 6 -3 7 1 4 9 -7 18 -14 21 -14 7z"/>
<path d="M3541 5755 c-2 -33 -4 -84 -3 -112 0 -29 -3 -55 -9 -58 -5 -4 -9 -11
-9 -18 0 -7 6 -5 15 4 13 12 15 37 12 130 -2 76 -4 94 -6 54z"/>
<path d="M2241 5774 c0 -11 3 -14 6 -6 3 7 2 16 -1 19 -3 4 -6 -2 -5 -13z"/>
<path d="M2099 5745 c-7 -16 -11 -34 -10 -39 3 -12 -31 -35 -54 -36 -15 -1
-16 -3 -5 -7 8 -3 18 -11 23 -17 4 -7 9 -3 13 12 4 12 11 22 16 22 5 0 6 -5 2
-12 -4 -6 -3 -8 4 -4 5 3 13 0 16 -6 4 -9 5 -8 4 2 -2 25 13 50 26 43 7 -4 7
-1 -1 9 -7 8 -10 17 -7 21 3 3 1 14 -4 24 -10 16 -12 15 -23 -12z"/>
<path d="M3422 5730 c0 -14 2 -19 5 -12 2 6 2 18 0 25 -3 6 -5 1 -5 -13z"/>
<path d="M3454 5674 c7 -55 12 -71 19 -59 5 9 6 29 3 43 -4 15 -9 38 -11 51
-2 13 -7 27 -12 32 -5 5 -4 -25 1 -67z"/>
<path d="M2861 5712 c-8 -18 -11 -35 -8 -38 3 -3 8 5 12 17 7 22 8 22 20 -7 8
-16 14 -22 14 -14 0 8 -6 28 -12 44 l-13 30 -13 -32z"/>
<path d="M1721 5670 l1 -65 10 54 c7 37 7 56 -1 64 -8 8 -11 -7 -10 -53z"/>
<path d="M2950 5690 c0 -5 5 -10 11 -10 5 0 7 5 4 10 -3 6 -8 10 -11 10 -2 0
-4 -4 -4 -10z"/>
<path d="M2115 5681 c-3 -5 0 -13 6 -16 5 -4 8 -14 5 -22 -4 -9 1 -17 14 -20
19 -5 20 -6 3 -19 -16 -12 -14 -13 17 -14 24 0 31 3 21 9 -8 5 -10 14 -6 21 5
9 4 11 -3 6 -7 -4 -12 -2 -12 4 0 6 -5 8 -12 4 -7 -4 -8 -3 -4 5 9 13 -2 51
-14 51 -5 0 -11 -4 -15 -9z"/>
<path d="M3385 5660 c-4 -17 -5 -34 -2 -36 3 -3 8 9 12 26 4 17 5 34 2 36 -3
3 -8 -9 -12 -26z"/>
<path d="M3040 5646 c0 -2 8 -10 18 -17 15 -13 16 -12 3 4 -13 16 -21 21 -21
13z"/>
<path d="M2811 5617 c0 -16 -5 -26 -11 -22 -6 4 -3 -10 7 -29 9 -20 17 -35 18
-33 1 1 -1 27 -5 57 -4 30 -8 42 -9 27z"/>
<path d="M3450 5530 c0 -37 -7 -76 -15 -90 -8 -14 -14 -32 -14 -40 0 -8 6 -4
12 10 6 14 14 27 17 30 14 13 28 60 20 65 -6 4 -7 17 -4 30 3 13 1 32 -5 42
-8 14 -11 4 -11 -47z"/>
<path d="M3821 5574 c0 -11 3 -14 6 -6 3 7 2 16 -1 19 -3 4 -6 -2 -5 -13z"/>
<path d="M2154 5573 c10 -11 37 -12 30 -2 -3 5 -12 9 -21 9 -9 0 -13 -3 -9 -7z"/>
<path d="M2852 5550 c0 -14 2 -19 5 -12 2 6 2 18 0 25 -3 6 -5 1 -5 -13z"/>
<path d="M1712 5525 c0 -16 2 -22 5 -12 2 9 2 23 0 30 -3 6 -5 -1 -5 -18z"/>
<path d="M2188 5532 c4 -11 1 -13 -9 -7 -10 6 -11 5 -3 -4 6 -7 19 -9 32 -4
21 8 21 8 -3 19 -20 10 -22 9 -17 -4z"/>
<path d="M2536 5537 c3 -10 9 -15 12 -12 3 3 0 11 -7 18 -10 9 -11 8 -5 -6z"/>
<path d="M4845 5540 c3 -5 8 -10 11 -10 2 0 4 5 4 10 0 6 -5 10 -11 10 -5 0
-7 -4 -4 -10z"/>
<path d="M1460 5530 c0 -29 23 -160 29 -160 3 0 12 4 20 9 11 7 12 20 1 75 -7
36 -15 66 -17 66 -6 0 5 -84 14 -106 3 -8 0 -14 -5 -14 -6 0 -14 32 -18 70 -3
39 -11 70 -15 70 -5 0 -9 -4 -9 -10z"/>
<path d="M4800 5531 c0 -6 4 -13 10 -16 6 -3 7 1 4 9 -7 18 -14 21 -14 7z"/>
<path d="M2564 5501 c0 -10 6 -18 13 -18 7 0 13 4 13 7 0 4 -6 12 -13 18 -10
8 -13 6 -13 -7z"/>
<path d="M2851 5503 c13 -18 40 -43 87 -84 35 -30 39 -15 5 18 -77 73 -123
106 -92 66z"/>
<path d="M2210 5499 c0 -6 4 -7 10 -4 5 3 22 -7 36 -22 l27 -28 -16 30 c-14
29 -57 46 -57 24z"/>
<path d="M4966 5497 c3 -10 9 -15 12 -12 3 3 0 11 -7 18 -10 9 -11 8 -5 -6z"/>
<path d="M2600 5489 c0 -5 5 -7 10 -4 6 3 10 8 10 11 0 2 -4 4 -10 4 -5 0 -10
-5 -10 -11z"/>
<path d="M2566 5455 c4 -8 12 -15 20 -15 19 0 18 16 -2 24 -22 9 -24 8 -18 -9z"/>
<path d="M2636 5452 c-3 -4 5 -9 16 -9 12 -1 25 -8 30 -15 8 -10 9 -10 6 1 -5
16 -45 34 -52 23z"/>
<path d="M2250 5440 c0 -6 7 -10 15 -10 8 0 15 2 15 4 0 2 -7 6 -15 10 -8 3
-15 1 -15 -4z"/>
<path d="M2290 5431 c0 -14 7 -25 20 -28 23 -6 26 -19 8 -26 -9 -4 -9 -6 1 -6
8 -1 23 -9 33 -18 14 -13 21 -14 30 -5 9 9 7 12 -10 12 -12 0 -22 6 -22 14 0
8 -10 23 -23 33 -13 10 -24 22 -24 26 -3 20 -13 18 -13 -2z"/>
<path d="M1940 5429 c0 -5 5 -7 10 -4 6 3 10 8 10 11 0 2 -4 4 -10 4 -5 0 -10
-5 -10 -11z"/>
<path d="M2705 5412 c-10 -10 -5 -19 10 -19 8 0 16 6 19 12 4 11 -19 17 -29 7z"/>
<path d="M2750 5394 c0 -8 5 -12 10 -9 6 4 8 11 5 16 -9 14 -15 11 -15 -7z"/>
<path d="M3018 5403 c6 -2 18 -2 25 0 6 3 1 5 -13 5 -14 0 -19 -2 -12 -5z"/>
<path d="M1965 5393 c-50 -7 -49 -20 1 -22 26 0 61 -9 78 -17 194 -102 286
-139 324 -129 15 4 21 2 17 -4 -3 -7 0 -8 9 -5 8 3 12 12 10 19 -3 8 -12 11
-19 9 -7 -3 -16 0 -20 5 -3 6 -11 8 -17 5 -7 -4 -8 -2 -4 4 4 7 2 12 -3 12 -6
0 -11 -7 -11 -17 0 -14 -2 -15 -17 -1 -10 8 -44 22 -76 31 -34 9 -81 33 -110
55 -83 63 -89 65 -162 55z"/>
<path d="M1711 5374 c0 -11 3 -14 6 -6 3 7 2 16 -1 19 -3 4 -6 -2 -5 -13z"/>
<path d="M2130 5386 c0 -2 7 -7 16 -10 8 -3 12 -2 9 4 -6 10 -25 14 -25 6z"/>
<path d="M2606 5377 c3 -10 9 -15 12 -12 3 3 0 11 -7 18 -10 9 -11 8 -5 -6z"/>
<path d="M2805 5369 c-4 -6 -5 -12 -2 -15 2 -3 7 2 10 11 7 17 1 20 -8 4z"/>
<path d="M3402 5360 c0 -14 2 -19 5 -12 2 6 2 18 0 25 -3 6 -5 1 -5 -13z"/>
<path d="M1504 5343 c3 -10 14 -58 25 -108 11 -49 33 -137 50 -194 37 -126 40
-147 24 -143 -16 3 -15 7 -3 -59 6 -30 11 -69 12 -86 1 -18 4 -33 8 -33 4 0 7
-12 8 -28 0 -15 13 -79 28 -142 14 -63 32 -142 39 -175 10 -49 13 -54 14 -25
0 19 -4 53 -9 75 -5 22 -11 84 -14 138 -4 55 -11 131 -17 170 -11 73 -65 293
-99 402 -10 33 -26 97 -36 143 -9 45 -21 82 -26 82 -5 0 -7 -8 -4 -17z m123
-525 c-3 -7 -5 -2 -5 12 0 14 2 19 5 13 2 -7 2 -19 0 -25z m20 -80 c-3 -8 -6
-5 -6 6 -1 11 2 17 5 13 3 -3 4 -12 1 -19z m26 -138 c4 -49 3 -63 -2 -40 -12
49 -21 160 -12 135 5 -11 11 -54 14 -95z"/>
<path d="M1536 5335 c10 -51 65 -237 81 -277 8 -21 19 -38 24 -38 10 0 5 17
-22 75 -9 22 -30 85 -44 140 -26 97 -52 164 -39 100z"/>
<path d="M2830 5350 c-13 -8 -12 -10 3 -10 9 0 17 5 17 10 0 12 -1 12 -20 0z"/>
<path d="M2171 5333 c7 -12 15 -20 18 -17 3 2 -3 12 -13 22 -17 16 -18 16 -5
-5z"/>
<path d="M2864 5328 c-3 -4 5 -5 17 -3 30 6 36 14 9 12 -12 -1 -24 -5 -26 -9z"/>
<path d="M1732 5305 c0 -16 2 -22 5 -12 2 9 2 23 0 30 -3 6 -5 -1 -5 -18z"/>
<path d="M2215 5321 c-3 -5 0 -13 7 -18 16 -10 42 -14 33 -5 -4 4 -12 7 -18 7
-7 1 -11 6 -9 13 2 14 -4 16 -13 3z"/>
<path d="M2945 5310 c-11 -4 -26 -5 -33 -2 -7 2 -21 -3 -31 -12 -37 -34 -194
-66 -176 -36 3 5 1 11 -4 14 -5 4 -8 -2 -7 -11 2 -9 8 -19 14 -21 7 -2 10 -8
6 -13 -3 -5 3 -9 13 -9 25 1 129 26 144 35 6 4 19 9 28 9 9 1 34 7 56 13 22 6
60 14 84 17 58 8 64 16 15 18 -21 0 -50 2 -64 3 -14 1 -34 -1 -45 -5z"/>
<path d="M2040 5304 c0 -2 9 -8 20 -14 11 -6 20 -7 20 -2 0 6 -9 12 -20 15
-11 3 -20 3 -20 1z"/>
<path d="M1900 5268 c0 -4 6 -8 13 -8 8 0 22 -8 31 -19 9 -10 28 -18 43 -18
l25 0 -28 22 c-29 24 -84 39 -84 23z"/>
<path d="M3158 5273 c7 -3 16 -2 19 1 4 3 -2 6 -13 5 -11 0 -14 -3 -6 -6z"/>
<path d="M3210 5270 c0 -5 5 -10 11 -10 5 0 7 5 4 10 -3 6 -8 10 -11 10 -2 0
-4 -4 -4 -10z"/>
<path d="M2570 5261 c0 -6 4 -13 10 -16 6 -3 7 1 4 9 -7 18 -14 21 -14 7z"/>
<path d="M3094 5263 c10 -10 46 -11 40 -1 -3 4 -15 8 -26 8 -12 0 -18 -3 -14
-7z"/>
<path d="M1995 5249 c11 -7 22 -15 25 -18 3 -4 30 -13 60 -20 30 -8 75 -25
101 -37 26 -13 53 -24 60 -24 49 0 -153 100 -215 106 -43 5 -48 3 -31 -7z"/>
<path d="M3165 5240 c-4 -6 5 -10 19 -10 14 0 26 5 26 10 0 6 -9 10 -19 10
-11 0 -23 -4 -26 -10z"/>
<path d="M3038 5233 c7 -3 16 -2 19 1 4 3 -2 6 -13 5 -11 0 -14 -3 -6 -6z"/>
<path d="M3065 5222 c-84 -20 -129 -40 -166 -73 -18 -16 -40 -31 -50 -34 -9
-3 -20 -12 -23 -21 -4 -10 5 -8 34 8 22 13 40 28 40 34 0 11 205 84 236 84 8
0 14 4 14 8 0 12 -15 11 -85 -6z"/>
<path d="M1729 5183 c4 -21 13 -47 20 -58 12 -20 12 -20 6 0 -4 11 -9 34 -12
50 -2 17 -8 34 -13 38 -4 5 -4 -9 -1 -30z"/>
<path d="M3120 5181 c0 -9 -9 -12 -25 -9 -14 3 -27 2 -30 -1 -2 -4 9 -8 25 -9
27 -2 49 13 36 25 -3 4 -6 1 -6 -6z"/>
<path d="M2985 5150 l-20 -9 20 0 c11 0 27 4 35 9 13 9 13 10 0 9 -8 0 -24 -4
-35 -9z"/>
<path d="M2280 5146 c0 -2 7 -6 15 -10 8 -3 15 -1 15 4 0 6 -7 10 -15 10 -8 0
-15 -2 -15 -4z"/>
<path d="M4521 5134 c0 -11 3 -14 6 -6 3 7 2 16 -1 19 -3 4 -6 -2 -5 -13z"/>
<path d="M1990 5130 c-13 -8 -12 -14 5 -46 32 -60 87 -94 153 -94 54 0 162 27
162 40 0 4 -18 19 -39 33 -37 25 -39 25 -44 6 -3 -12 -14 -19 -30 -19 -31 0
-37 8 -27 34 6 17 7 18 13 3 8 -20 27 -23 27 -3 0 8 -18 18 -41 24 -50 13 -63
-7 -29 -44 29 -29 13 -32 -24 -3 -30 24 -33 44 -8 54 15 7 14 9 -8 15 -36 11
-93 11 -110 0z m73 -53 c-3 -5 -9 -3 -14 4 -4 7 -5 17 -2 22 3 5 9 3 14 -4 4
-7 5 -17 2 -22z m31 -43 c5 -14 4 -15 -9 -4 -17 14 -19 20 -6 20 5 0 12 -7 15
-16z m119 -11 c-7 -2 -21 -2 -30 0 -10 3 -4 5 12 5 17 0 24 -2 18 -5z"/>
<path d="M3150 5130 c-8 -5 -18 -6 -22 -4 -4 3 -29 2 -54 -2 -32 -5 -44 -10
-40 -20 10 -25 -31 -51 -82 -52 -60 0 -66 4 -40 30 19 19 22 20 33 5 7 -9 15
-14 18 -10 4 3 7 0 7 -8 1 -9 8 -6 20 10 20 23 18 47 -3 34 -6 -4 -23 -6 -37
-5 -25 2 -55 -16 -113 -67 -28 -26 -34 -41 -16 -41 5 0 7 6 3 13 -6 10 -4 10
7 0 17 -16 33 -17 23 -1 -5 8 -2 9 10 5 10 -4 21 -7 24 -7 4 0 0 -5 -8 -10
-21 -14 110 -13 146 0 15 6 54 38 87 71 55 57 70 79 37 59z"/>
<path d="M3480 5082 c-30 -67 -36 -85 -17 -54 7 12 16 20 19 17 3 -3 11 15 18
40 18 64 9 63 -20 -3z"/>
<path d="M491 5094 c0 -11 3 -14 6 -6 3 7 2 16 -1 19 -3 4 -6 -2 -5 -13z"/>
<path d="M1762 5080 c0 -14 2 -19 5 -12 2 6 2 18 0 25 -3 6 -5 1 -5 -13z"/>
<path d="M1719 5085 c-7 -11 10 -80 17 -73 2 3 1 22 -4 44 -4 21 -10 34 -13
29z"/>
<path d="M2545 5040 c3 -5 11 -10 16 -10 6 0 7 5 4 10 -3 6 -11 10 -16 10 -6
0 -7 -4 -4 -10z"/>
<path d="M3330 5019 c0 -5 5 -7 10 -4 6 3 10 8 10 11 0 2 -4 4 -10 4 -5 0 -10
-5 -10 -11z"/>
<path d="M4962 5010 c0 -14 2 -19 5 -12 2 6 2 18 0 25 -3 6 -5 1 -5 -13z"/>
<path d="M1710 5000 c0 -4 7 -10 15 -14 8 -3 15 -15 15 -28 0 -16 3 -19 11
-11 15 15 2 50 -21 56 -11 3 -20 2 -20 -3z"/>
<path d="M2315 5000 c3 -5 8 -10 11 -10 2 0 4 5 4 10 0 6 -5 10 -11 10 -5 0
-7 -4 -4 -10z"/>
<path d="M2538 4842 c-3 -134 -7 -166 -19 -176 -13 -9 -14 -15 -5 -31 6 -11
12 -21 12 -23 5 -11 64 37 64 51 0 10 -4 16 -9 13 -5 -4 -10 58 -10 146 -1 93
-6 154 -12 156 -6 3 -6 8 0 16 8 9 7 13 -3 13 -11 0 -15 -34 -18 -165z"/>
<path d="M3821 4974 c0 -11 3 -14 6 -6 3 7 2 16 -1 19 -3 4 -6 -2 -5 -13z"/>
<path d="M3380 4960 c0 -11 7 -20 15 -20 13 0 14 4 5 20 -6 11 -13 20 -15 20
-3 0 -5 -9 -5 -20z"/>
<path d="M3251 4933 c-10 -26 -10 -27 4 -9 8 11 15 23 15 28 0 15 -7 8 -19
-19z"/>
<path d="M1482 4930 c0 -14 2 -19 5 -12 2 6 2 18 0 25 -3 6 -5 1 -5 -13z"/>
<path d="M2419 4933 c-13 -16 -12 -17 4 -4 16 13 21 21 13 21 -2 0 -10 -8 -17
-17z"/>
<path d="M3322 4910 c0 -19 2 -27 5 -17 2 9 2 25 0 35 -3 9 -5 1 -5 -18z"/>
<path d="M1793 4905 c0 -8 4 -12 9 -9 4 3 8 9 8 15 0 5 -4 9 -8 9 -5 0 -9 -7
-9 -15z"/>
<path d="M1556 4873 c9 -38 14 -42 14 -10 0 14 -5 29 -10 32 -7 4 -8 -3 -4
-22z"/>
<path d="M3220 4892 c0 -5 -16 -25 -35 -45 -20 -21 -32 -37 -27 -37 12 0 60
48 73 72 6 12 6 18 -1 18 -5 0 -10 -4 -10 -8z"/>
<path d="M3548 4884 c-5 -4 -8 -35 -7 -68 1 -56 2 -58 10 -28 11 38 8 108 -3
96z"/>
<path d="M2810 4869 c0 -5 9 -9 20 -9 11 0 20 2 20 4 0 2 -9 6 -20 9 -11 3
-20 1 -20 -4z"/>
<path d="M1790 4850 c0 -11 2 -20 4 -20 2 0 6 9 9 20 3 11 1 20 -4 20 -5 0 -9
-9 -9 -20z"/>
<path d="M1856 4855 c4 -8 10 -12 15 -9 11 6 2 24 -11 24 -5 0 -7 -7 -4 -15z"/>
<path d="M1920 4862 c0 -5 9 -20 19 -33 20 -24 20 -24 14 -2 -6 24 -33 53 -33
35z"/>
<path d="M2327 4856 c-4 -10 -1 -13 8 -9 8 3 12 9 9 14 -7 12 -11 11 -17 -5z"/>
<path d="M3472 4799 c-6 -24 -14 -69 -17 -99 -13 -124 -29 -212 -35 -194 -4
10 -10 -31 -14 -91 -3 -61 -9 -148 -13 -195 -3 -47 -3 -82 1 -79 10 10 14 38
26 191 6 78 14 146 17 151 3 5 9 36 13 70 5 34 16 109 25 166 17 111 16 153
-3 80z"/>
<path d="M1973 4805 c0 -8 9 -15 20 -15 11 0 18 1 16 3 -2 1 -11 8 -20 15 -13
9 -16 9 -16 -3z"/>
<path d="M4160 4801 c0 -6 4 -13 10 -16 6 -3 7 1 4 9 -7 18 -14 21 -14 7z"/>
<path d="M2116 4791 c-3 -5 0 -11 7 -14 8 -3 14 1 14 9 0 16 -13 19 -21 5z"/>
<path d="M1707 4773 c-2 -5 -3 -17 -2 -28 13 -92 22 -201 19 -207 -6 -10 45
-454 55 -480 7 -17 9 -4 9 47 -1 48 -3 62 -8 45 -5 -15 -8 15 -9 78 -1 57 -5
133 -11 170 -5 37 -11 114 -14 172 -2 58 -8 116 -14 130 -5 14 -8 35 -6 47 4
22 -11 41 -19 26z"/>
<path d="M3097 4769 c7 -7 15 -10 18 -7 3 3 -2 9 -12 12 -14 6 -15 5 -6 -5z"/>
<path d="M3390 4765 c0 -9 6 -12 15 -9 8 4 15 10 15 15 0 5 -7 9 -15 9 -8 0
-15 -7 -15 -15z"/>
<path d="M2065 4759 c-4 -6 -5 -12 -2 -15 2 -3 7 2 10 11 7 17 1 20 -8 4z"/>
<path d="M3060 4740 c0 -5 5 -10 11 -10 5 0 7 5 4 10 -3 6 -8 10 -11 10 -2 0
-4 -4 -4 -10z"/>
<path d="M3535 4738 c-13 -42 -25 -192 -16 -201 8 -8 11 4 12 39 2 56 3 72 13
132 7 38 1 59 -9 30z"/>
<path d="M3391 4682 c0 -34 2 -62 7 -62 4 0 6 -20 5 -45 -2 -27 1 -44 7 -40
11 7 6 152 -7 185 -9 21 -11 15 -12 -38z"/>
<path d="M2423 4668 c-24 -26 -30 -53 -13 -63 6 -3 10 1 10 9 0 9 5 16 10 16
6 0 10 -8 10 -17 0 -13 3 -14 11 -6 8 8 9 23 3 48 l-9 37 -22 -24z"/>
<path d="M2665 4653 c-10 -15 -36 -45 -59 -65 -22 -21 -33 -35 -23 -32 9 3 17
9 17 13 0 12 48 31 75 31 25 0 29 7 25 45 -3 34 -16 37 -35 8z"/>
<path d="M2725 4603 c-8 -53 -18 -76 -46 -107 -11 -11 -19 -28 -19 -38 0 -20
15 -24 25 -8 4 6 11 8 16 5 5 -4 9 1 9 10 0 9 5 13 10 10 6 -3 10 1 10 9 0 9
9 31 20 51 11 19 15 35 9 35 -5 0 -9 6 -8 13 4 29 -2 67 -10 67 -5 0 -12 -21
-16 -47z"/>
<path d="M282 4620 c0 -14 2 -19 5 -12 2 6 2 18 0 25 -3 6 -5 1 -5 -13z"/>
<path d="M2362 4610 c-6 -24 -6 -40 2 -49 8 -11 8 -13 -1 -7 -9 5 -11 2 -7 -8
3 -9 10 -13 15 -10 5 3 9 0 9 -6 0 -17 49 -62 60 -55 6 4 7 -1 3 -11 -5 -13
-3 -16 10 -11 9 3 17 3 17 -2 0 -11 -48 -24 -59 -16 -5 2 -14 -2 -20 -9 -7 -8
-23 -13 -36 -12 -16 2 -22 -1 -18 -10 6 -17 17 -17 73 0 54 16 241 14 283 -3
41 -16 73 -15 58 2 -6 8 -8 16 -6 19 3 3 -6 3 -21 0 -17 -3 -25 -1 -21 5 4 6
-3 8 -18 5 -14 -2 -31 1 -39 7 -10 9 -25 8 -61 -1 -47 -13 -47 -13 -76 20 -16
17 -35 32 -42 32 -18 0 -65 67 -82 117 l-13 38 -10 -35z"/>
<path d="M2475 4600 c3 -5 8 -10 11 -10 2 0 4 5 4 10 0 6 -5 10 -11 10 -5 0
-7 -4 -4 -10z"/>
<path d="M2500 4586 c0 -2 7 -6 15 -10 8 -3 15 -1 15 4 0 6 -7 10 -15 10 -8 0
-15 -2 -15 -4z"/>
<path d="M4641 4574 c0 -11 3 -14 6 -6 3 7 2 16 -1 19 -3 4 -6 -2 -5 -13z"/>
<path d="M3393 4475 c0 -27 2 -38 4 -22 2 15 2 37 0 50 -2 12 -4 0 -4 -28z"/>
<path d="M2340 4460 c-8 -5 -12 -12 -9 -15 4 -3 12 1 19 10 14 17 11 19 -10 5z"/>
<path d="M3710 4430 c0 -13 50 -70 62 -70 16 0 8 29 -11 35 -10 3 -21 15 -24
25 -5 20 -27 28 -27 10z"/>
<path d="M3379 4408 c-5 -12 -13 -215 -8 -210 7 8 20 212 13 212 -2 0 -5 -1
-5 -2z"/>
<path d="M2525 4370 c-3 -5 -2 -10 4 -10 5 0 13 5 16 10 3 6 2 10 -4 10 -5 0
-13 -4 -16 -10z"/>
<path d="M2807 4359 c7 -7 15 -10 18 -7 3 3 -2 9 -12 12 -14 6 -15 5 -6 -5z"/>
<path d="M192 4320 c0 -19 2 -27 5 -17 2 9 2 25 0 35 -3 9 -5 1 -5 -18z"/>
<path d="M2140 4334 c0 -10 48 -57 201 -200 20 -19 40 -34 45 -34 5 0 1 5 -9
11 -9 6 -15 14 -12 20 4 5 2 9 -4 9 -10 0 -22 11 -144 130 -42 41 -77 70 -77
64z"/>
<path d="M2378 4333 c7 -3 16 -2 19 1 4 3 -2 6 -13 5 -11 0 -14 -3 -6 -6z"/>
<path d="M2415 4329 c-8 -12 133 -52 162 -46 16 3 46 14 68 24 l40 18 -32 3
c-18 2 -40 -1 -48 -6 -10 -5 -51 -4 -101 3 -47 6 -87 8 -89 4z"/>
<path d="M2735 4329 c-4 -6 -5 -13 -2 -16 7 -7 27 6 27 18 0 12 -17 12 -25 -2z"/>
<path d="M2919 4297 c-136 -124 -161 -147 -167 -147 -4 0 -29 -23 -57 -50 -55
-55 -92 -66 -191 -58 -60 5 -54 -6 8 -16 49 -8 135 11 159 35 10 10 21 19 24
19 9 0 285 244 285 252 0 16 -16 7 -61 -35z"/>
<path d="M2706 4313 c-6 -14 -5 -15 5 -6 7 7 10 15 7 18 -3 3 -9 -2 -12 -12z"/>
<path d="M183 4210 c0 -25 2 -35 4 -22 2 12 2 32 0 45 -2 12 -4 2 -4 -23z"/>
<path d="M3496 4225 c-3 -9 -6 -22 -5 -28 0 -7 5 -1 10 12 5 13 8 26 5 28 -2
2 -6 -3 -10 -12z"/>
<path d="M4562 4170 c0 -14 2 -19 5 -12 2 6 2 18 0 25 -3 6 -5 1 -5 -13z"/>
<path d="M2071 4164 c0 -11 3 -14 6 -6 3 7 2 16 -1 19 -3 4 -6 -2 -5 -13z"/>
<path d="M3363 4130 c0 -30 2 -43 4 -27 2 15 2 39 0 55 -2 15 -4 2 -4 -28z"/>
<path d="M2433 4163 c-15 -3 -20 -9 -16 -19 4 -10 8 -12 12 -5 4 6 17 8 29 4
13 -3 19 -10 15 -17 -4 -6 0 -6 9 2 8 7 24 9 33 5 11 -4 16 -2 12 3 -3 6 8 8
29 6 19 -2 34 -8 34 -12 0 -4 7 -10 15 -14 11 -4 15 2 15 24 l0 30 -82 -1
c-46 -1 -93 -4 -105 -6z"/>
<path d="M2643 4128 c-2 -18 0 -20 7 -8 12 18 13 30 2 30 -4 0 -9 -10 -9 -22z"/>
<path d="M2434 4108 c-4 -7 -4 -10 1 -6 4 4 15 2 24 -5 14 -11 14 -10 2 6 -16
20 -18 21 -27 5z"/>
<path d="M2508 4103 c7 -3 16 -2 19 1 4 3 -2 6 -13 5 -11 0 -14 -3 -6 -6z"/>
<path d="M4992 3980 c0 -19 2 -27 5 -17 2 9 2 25 0 35 -3 9 -5 1 -5 -18z"/>
<path d="M1715 3940 c3 -5 8 -10 11 -10 2 0 4 5 4 10 0 6 -5 10 -11 10 -5 0
-7 -4 -4 -10z"/>
<path d="M4901 3654 c0 -11 3 -14 6 -6 3 7 2 16 -1 19 -3 4 -6 -2 -5 -13z"/>
<path d="M1483 3523 c9 -2 25 -2 35 0 9 3 1 5 -18 5 -19 0 -27 -2 -17 -5z"/>
<path d="M1600 3520 c0 -4 20 -11 43 -14 24 -4 56 -9 71 -12 15 -2 25 -1 22 4
-3 5 -20 9 -38 10 -18 1 -48 6 -65 11 -18 5 -33 6 -33 1z"/>
<path d="M3390 3509 c0 -5 5 -7 10 -4 6 3 10 8 10 11 0 2 -4 4 -10 4 -5 0 -10
-5 -10 -11z"/>
<path d="M3768 3508 c-2 -5 -15 -10 -29 -12 -13 -1 -29 -5 -35 -9 -6 -3 -55
-11 -110 -17 -161 -19 -174 -22 -174 -32 0 -5 -4 -6 -10 -3 -6 4 -10 -7 -10
-27 0 -21 3 -28 9 -20 4 8 19 11 34 8 15 -2 33 1 39 7 13 12 21 13 81 19 15 1
27 6 27 10 0 4 19 8 43 8 24 0 47 4 53 10 5 5 25 11 44 13 18 2 36 11 39 18 3
8 15 14 25 14 11 0 21 7 23 15 4 13 3 13 -6 0 -6 -8 -11 -10 -11 -4 0 13 -28
15 -32 2z"/>
<path d="M1248 3503 c7 -3 16 -2 19 1 4 3 -2 6 -13 5 -11 0 -14 -3 -6 -6z"/>
<path d="M1345 3482 c-18 -4 42 -24 110 -36 11 -2 40 -9 65 -16 25 -8 50 -14
55 -15 6 -1 12 -3 15 -4 8 -4 43 -11 68 -13 12 -1 22 -7 22 -13 1 -5 7 5 15
23 8 17 17 32 20 32 3 0 1 -9 -5 -20 -8 -16 -8 -24 3 -35 13 -12 15 -10 21 17
11 54 11 54 -60 48 -36 -3 -67 -4 -69 -1 -3 2 -19 5 -36 6 -17 2 -35 9 -40 16
-7 11 -9 11 -9 1 0 -8 -5 -10 -12 -5 -7 4 -22 6 -33 5 -16 -2 -17 -1 -5 7 11
8 -1 10 -45 9 -33 -1 -69 -4 -80 -6z"/>
<path d="M1295 3470 c-3 -5 -1 -10 4 -10 6 0 11 5 11 10 0 6 -2 10 -4 10 -3 0
-8 -4 -11 -10z"/>
<path d="M1820 3413 c0 -39 2 -44 15 -33 14 12 83 10 135 -4 23 -6 130 -17
173 -17 9 0 17 -4 17 -9 0 -4 9 -6 20 -3 13 4 27 -3 41 -18 11 -13 18 -19 15
-13 -3 6 1 11 8 11 8 0 11 -8 8 -20 -3 -14 -1 -18 6 -13 7 4 12 2 12 -3 0 -6
7 -11 15 -11 20 0 19 16 -1 24 -9 4 -14 13 -10 21 3 8 1 15 -5 15 -6 0 -7 6
-3 13 6 9 4 9 -8 -1 -13 -10 -18 -10 -24 -1 -4 8 -3 9 4 5 7 -4 12 -3 12 1 0
10 -78 33 -109 33 -11 0 -21 4 -23 9 -1 5 -23 13 -48 16 -62 9 -72 9 -94 0
-13 -6 -17 -5 -13 2 5 7 -5 10 -27 8 -19 -2 -44 2 -57 9 -58 29 -59 29 -59
-21z m205 -3 c3 -6 -1 -7 -9 -4 -18 7 -21 14 -7 14 6 0 13 -4 16 -10z"/>
<path d="M3284 3451 c6 -9 -217 -37 -231 -28 -5 3 -35 -1 -68 -8 -32 -8 -63
-11 -69 -8 -6 4 -2 -3 8 -15 18 -21 43 -31 32 -13 -3 5 3 11 14 14 26 7 31 -4
11 -23 -11 -10 -27 -13 -51 -9 -19 4 -26 7 -15 8 13 1 16 4 8 12 -6 6 -25 9
-42 7 -31 -3 -31 -4 -16 -23 9 -11 14 -15 11 -8 -4 6 -2 14 3 17 5 3 11 -2 13
-12 4 -14 16 -19 47 -20 22 -1 41 2 41 7 0 5 7 12 16 15 14 5 15 4 4 -9 -8
-10 -9 -15 -1 -15 6 0 11 4 11 9 0 11 19 9 39 -4 10 -5 16 -4 19 3 2 7 11 12
21 12 9 0 27 8 40 17 15 10 21 11 16 3 -7 -11 3 -12 47 -7 91 11 118 24 118
58 0 20 -5 29 -16 29 -8 0 -13 -4 -10 -9z m-221 -75 c-3 -4 -9 -2 -14 5 -6 11
-9 10 -15 -4 -3 -9 -10 -14 -15 -11 -14 8 -10 24 6 24 8 0 15 5 15 10 0 6 6 5
14 -2 8 -7 12 -17 9 -22z m152 24 c-3 -5 -18 -9 -33 -9 l-27 1 30 8 c17 4 31
8 33 9 2 0 0 -3 -3 -9z m-100 -10 c-27 -12 -43 -12 -25 0 8 5 22 9 30 9 10 0
8 -3 -5 -9z"/>
<path d="M4961 3404 c0 -11 3 -14 6 -6 3 7 2 16 -1 19 -3 4 -6 -2 -5 -13z"/>
<path d="M2138 3403 c6 -2 18 -2 25 0 6 3 1 5 -13 5 -14 0 -19 -2 -12 -5z"/>
<path d="M1360 3361 c0 -6 4 -13 10 -16 6 -3 7 1 4 9 -7 18 -14 21 -14 7z"/>
<path d="M3740 3330 c0 -5 5 -10 11 -10 5 0 7 5 4 10 -3 6 -8 10 -11 10 -2 0
-4 -4 -4 -10z"/>
<path d="M1091 3323 c-1 -8 -16 -11 -46 -9 -25 3 -48 0 -51 -6 -5 -7 2 -9 20
-4 28 7 34 -2 14 -23 -11 -11 -10 -14 0 -18 10 -4 10 -8 0 -21 -12 -14 -10
-14 10 -3 12 6 27 9 32 6 5 -3 18 -1 29 5 13 7 22 7 26 0 3 -5 11 -10 16 -10
13 0 7 21 -6 23 -17 1 -33 22 -38 48 -2 13 -5 19 -6 12z m-26 -23 c3 -5 1 -10
-4 -10 -6 0 -11 5 -11 10 0 6 2 10 4 10 3 0 8 -4 11 -10z"/>
<path d="M3999 3291 c-8 -10 -19 -25 -22 -35 -6 -16 -2 -18 43 -14 41 2 49 0
45 -12 -3 -8 6 -2 20 15 17 20 21 31 13 36 -7 4 -16 5 -20 3 -5 -3 -11 2 -14
11 -6 13 -8 14 -15 3 -7 -10 -9 -10 -9 0 0 17 -22 14 -41 -7z m31 -25 c0 -2
-7 -7 -16 -10 -8 -3 -12 -2 -9 4 6 10 25 14 25 6z"/>
<path d="M1835 3275 c22 -143 39 -235 44 -235 4 0 8 -15 9 -32 6 -73 157 -588
173 -588 5 0 1 19 -7 42 -8 23 -15 54 -16 68 -1 14 -8 33 -16 42 -7 9 -16 35
-19 57 -3 23 -9 41 -12 41 -4 0 -6 12 -6 28 1 15 -3 33 -9 40 -6 8 -12 24 -13
35 -4 23 -36 140 -54 194 -5 18 -11 52 -11 75 0 24 -3 36 -6 28 -4 -8 -11 19
-17 60 -6 41 -8 80 -4 85 3 6 -5 28 -18 50 -22 38 -23 39 -18 10z"/>
<path d="M3281 3280 c-7 -46 -7 -60 1 -52 5 5 8 22 5 38 -2 16 -5 22 -6 14z"/>
<path d="M3420 3272 c0 -14 6 -22 16 -22 14 0 15 3 3 18 -7 9 -15 19 -16 21
-2 2 -3 -5 -3 -17z"/>
<path d="M481 3264 c0 -11 3 -14 6 -6 3 7 2 16 -1 19 -3 4 -6 -2 -5 -13z"/>
<path d="M3498 3253 c7 -3 16 -2 19 1 4 3 -2 6 -13 5 -11 0 -14 -3 -6 -6z"/>
<path d="M3203 3237 c-18 -6 -33 -15 -33 -19 0 -4 7 -5 16 -1 9 3 28 6 42 7
14 1 27 7 28 14 1 7 0 8 -3 2 -2 -5 -9 -10 -14 -10 -6 0 -7 5 -4 10 3 6 5 9 3
9 -2 -1 -18 -7 -35 -12z"/>
<path d="M4094 3239 c-3 -6 -1 -16 5 -22 8 -8 11 -5 11 11 0 24 -5 28 -16 11z"/>
<path d="M1680 3210 c0 -16 2 -30 4 -30 2 0 6 14 8 30 3 17 1 30 -4 30 -4 0
-8 -13 -8 -30z"/>
<path d="M1890 3219 c0 -5 5 -7 10 -4 6 3 10 8 10 11 0 2 -4 4 -10 4 -5 0 -10
-5 -10 -11z"/>
<path d="M3271 3194 c0 -11 3 -14 6 -6 3 7 2 16 -1 19 -3 4 -6 -2 -5 -13z"/>
<path d="M1996 3192 c-3 -5 1 -9 9 -9 8 0 12 4 9 9 -3 4 -7 8 -9 8 -2 0 -6 -4
-9 -8z"/>
<path d="M3262 3150 c0 -14 2 -19 5 -12 2 6 2 18 0 25 -3 6 -5 1 -5 -13z"/>
<path d="M3445 3148 c18 -84 46 -192 50 -196 8 -9 6 15 -4 42 -6 13 -12 42
-15 63 -6 45 -25 113 -32 113 -2 0 -2 -10 1 -22z"/>
<path d="M722 3100 c0 -14 2 -19 5 -12 2 6 2 18 0 25 -3 6 -5 1 -5 -13z"/>
<path d="M2406 3077 c3 -10 9 -15 12 -12 3 3 0 11 -7 18 -10 9 -11 8 -5 -6z"/>
<path d="M2430 3067 c0 -2 6 -10 14 -16 11 -9 16 -9 22 1 4 7 4 10 -1 6 -4 -4
-14 -3 -22 3 -7 6 -13 9 -13 6z"/>
<path d="M712 3030 c0 -14 2 -19 5 -12 2 6 2 18 0 25 -3 6 -5 1 -5 -13z"/>
<path d="M703 2965 c0 -22 2 -30 4 -17 2 12 2 30 0 40 -3 9 -5 -1 -4 -23z"/>
<path d="M2770 2960 c0 -5 5 -10 11 -10 5 0 7 5 4 10 -3 6 -8 10 -11 10 -2 0
-4 -4 -4 -10z"/>
<path d="M1591 2859 c-7 -23 -15 -48 -18 -58 -4 -10 -3 -13 4 -6 11 12 36 95
30 101 -2 2 -9 -14 -16 -37z"/>
<path d="M3510 2886 c0 -8 4 -17 9 -20 5 -4 7 3 4 14 -6 23 -13 26 -13 6z"/>
<path d="M3537 2795 c3 -16 10 -39 14 -50 l8 -20 0 20 c0 11 -6 34 -14 50
l-14 30 6 -30z"/>
<path d="M1546 2705 c-9 -26 -7 -32 5 -12 6 10 9 21 6 23 -2 3 -7 -2 -11 -11z"/>
<path d="M3566 2695 c8 -37 14 -45 14 -19 0 10 -5 26 -10 34 -8 11 -9 7 -4
-15z"/>
<path d="M3959 2664 c0 -10 -2 -28 -4 -39 -12 -70 -14 -99 -6 -84 13 21 23 68
22 103 -2 34 -11 49 -12 20z"/>
<path d="M1151 2654 c0 -11 3 -14 6 -6 3 7 2 16 -1 19 -3 4 -6 -2 -5 -13z"/>
<path d="M3587 2653 c-3 -5 -1 -17 4 -28 6 -17 7 -16 6 8 -1 28 -3 32 -10 20z"/>
<path d="M1525 2639 c-4 -6 -5 -12 -2 -15 2 -3 7 2 10 11 7 17 1 20 -8 4z"/>
<path d="M1149 2620 c-7 -18 10 -101 23 -115 6 -6 7 -4 2 8 -3 9 -9 41 -13 70
-4 28 -9 45 -12 37z"/>
<path d="M1200 2584 c0 -27 4 -55 9 -62 5 -8 8 8 7 41 -1 31 -4 59 -9 63 -4 4
-7 -15 -7 -42z"/>
<path d="M3898 2590 c2 -22 8 -40 13 -40 5 0 9 18 9 40 0 26 -5 40 -13 40 -9
0 -11 -12 -9 -40z"/>
<path d="M1511 2603 c-1 -6 -4 -20 -7 -30 -5 -17 -5 -17 6 0 6 10 9 23 6 30
-3 9 -5 9 -5 0z"/>
<path d="M3607 2569 c4 -13 8 -18 11 -10 2 7 -1 18 -6 23 -8 8 -9 4 -5 -13z"/>
<path d="M3620 2535 c0 -5 5 -17 10 -25 5 -8 10 -10 10 -5 0 6 -5 17 -10 25
-5 8 -10 11 -10 5z"/>
<path d="M3050 2440 c0 -5 5 -10 10 -10 6 0 10 5 10 10 0 6 -4 10 -10 10 -5 0
-10 -4 -10 -10z"/>
<path d="M4005 2430 c3 -5 8 -10 11 -10 2 0 4 5 4 10 0 6 -5 10 -11 10 -5 0
-7 -4 -4 -10z"/>
<path d="M1120 2410 c-12 -8 -10 -10 8 -10 13 0 20 4 17 10 -7 12 -6 12 -25 0z"/>
<path d="M2061 2405 c1 -19 18 -51 18 -35 0 8 -4 22 -9 30 -5 8 -9 11 -9 5z"/>
<path d="M3972 2390 c0 -14 2 -19 5 -12 2 6 2 18 0 25 -3 6 -5 1 -5 -13z"/>
<path d="M3035 2390 c-3 -5 -1 -10 4 -10 6 0 11 5 11 10 0 6 -2 10 -4 10 -3 0
-8 -4 -11 -10z"/>
<path d="M1145 2370 c-3 -5 -1 -10 4 -10 6 0 11 5 11 10 0 6 -2 10 -4 10 -3 0
-8 -4 -11 -10z"/>
<path d="M2130 2350 c0 -5 5 -10 11 -10 5 0 7 5 4 10 -3 6 -8 10 -11 10 -2 0
-4 -4 -4 -10z"/>
<path d="M3025 2350 c-3 -6 1 -7 9 -4 18 7 21 14 7 14 -6 0 -13 -4 -16 -10z"/>
<path d="M3950 2350 c0 -5 7 -7 15 -4 8 4 15 8 15 10 0 2 -7 4 -15 4 -8 0 -15
-4 -15 -10z"/>
<path d="M2087 2326 c3 -13 11 -23 19 -23 9 0 11 4 4 12 -5 7 -7 14 -4 17 2 3
-1 8 -9 11 -10 4 -13 -1 -10 -17z"/>
<path d="M2985 2330 c-3 -5 -1 -10 4 -10 6 0 11 5 11 10 0 6 -2 10 -4 10 -3 0
-8 -4 -11 -10z"/>
<path d="M3020 2308 c-12 -22 -12 -22 6 -6 10 10 15 20 12 24 -4 3 -12 -5 -18
-18z"/>
<path d="M3710 2321 c0 -6 4 -13 10 -16 6 -3 7 1 4 9 -7 18 -14 21 -14 7z"/>
<path d="M1090 2309 c0 -5 5 -7 10 -4 6 3 10 8 10 11 0 2 -4 4 -10 4 -5 0 -10
-5 -10 -11z"/>
<path d="M1173 2298 c1 -16 5 -28 9 -28 10 0 9 9 -2 35 -8 17 -8 16 -7 -7z"/>
<path d="M2937 2314 c-4 -4 -3 -12 0 -17 4 -6 6 -30 6 -54 -1 -24 3 -43 8 -43
11 0 32 40 25 48 -3 3 -6 0 -6 -6 0 -23 -16 -11 -18 13 -1 17 3 25 15 25 18 0
8 15 -10 15 -7 1 -11 6 -9 13 2 13 -1 15 -11 6z"/>
<path d="M2173 2282 c0 -10 7 -19 13 -19 9 0 10 5 3 19 -5 10 -12 18 -14 18
-2 0 -3 -8 -2 -18z"/>
<path d="M1376 2273 c-6 -14 -5 -15 5 -6 7 7 10 15 7 18 -3 3 -9 -2 -12 -12z"/>
<path d="M2108 2263 c5 -21 7 -23 10 -9 2 10 0 22 -6 28 -6 6 -7 0 -4 -19z"/>
<path d="M2999 2278 c-7 -26 -5 -58 3 -58 6 0 8 11 6 25 -3 13 0 26 6 29 7 3
7 5 -1 5 -7 1 -13 0 -14 -1z"/>
<path d="M2147 2256 c-4 -10 -1 -16 8 -16 8 0 15 -5 15 -11 0 -5 5 -7 10 -4 6
3 10 11 10 16 0 6 -4 8 -9 4 -6 -3 -14 2 -19 11 -8 15 -10 15 -15 0z"/>
<path d="M2556 2258 c3 -4 9 -8 15 -8 5 0 9 4 9 8 0 5 -7 9 -15 9 -8 0 -12 -4
-9 -9z"/>
<path d="M2922 2225 c0 -16 2 -22 5 -12 2 9 2 23 0 30 -3 6 -5 -1 -5 -18z"/>
<path d="M2548 2233 c7 -3 16 -2 19 1 4 3 -2 6 -13 5 -11 0 -14 -3 -6 -6z"/>
<path d="M2123 2217 c4 -10 7 -20 7 -23 0 -2 6 -1 14 2 16 6 50 -42 36 -51 -6
-3 -10 -11 -10 -16 0 -6 4 -8 9 -5 5 4 12 0 14 -6 3 -7 3 5 0 27 -3 22 -5 45
-6 52 0 7 -4 10 -8 7 -5 -3 -21 3 -36 13 -26 17 -27 17 -20 0z"/>
<path d="M3766 2207 c3 -10 9 -15 12 -12 3 3 0 11 -7 18 -10 9 -11 8 -5 -6z"/>
<path d="M1345 2199 c-4 -6 -5 -12 -2 -15 2 -3 7 2 10 11 7 17 1 20 -8 4z"/>
<path d="M2555 2201 c-3 -5 -1 -12 5 -16 5 -3 10 1 10 9 0 18 -6 21 -15 7z"/>
<path d="M2970 2177 c-7 -17 -12 -36 -11 -40 1 -4 -3 -16 -8 -25 -6 -12 -6
-23 1 -33 8 -11 9 -11 5 3 -3 9 -3 18 1 20 4 2 15 24 24 50 19 53 7 77 -12 25z"/>
<path d="M2150 2181 c0 -7 -4 -10 -9 -7 -5 4 -4 -7 2 -24 12 -31 28 -22 21 13
-4 23 -14 36 -14 18z"/>
<path d="M2940 2180 c0 -5 -8 -7 -17 -3 -15 5 -16 3 -5 -8 6 -7 12 -24 12 -38
0 -19 3 -22 9 -12 5 8 7 20 4 27 -2 6 0 15 6 19 14 8 14 25 1 25 -5 0 -10 -4
-10 -10z"/>
<path d="M2550 2150 c-13 -8 -12 -10 3 -10 9 0 17 5 17 10 0 12 -1 12 -20 0z"/>
<path d="M2543 2112 c1 -12 6 -18 15 -15 7 3 10 9 5 12 -4 3 -11 10 -15 15 -4
4 -6 -1 -5 -12z"/>
<path d="M2167 2089 c4 -13 9 -17 15 -11 11 11 3 32 -12 32 -4 0 -6 -9 -3 -21z"/>
<path d="M2537 2063 c6 -16 8 -16 23 1 9 12 8 15 -8 13 -12 0 -18 -6 -15 -14z"/>
<path d="M2181 2055 c1 -19 18 -51 18 -35 0 8 -4 22 -9 30 -5 8 -9 11 -9 5z"/>
<path d="M2548 2038 c-7 -4 -9 -8 -5 -8 4 0 3 -9 -3 -19 -12 -24 6 -40 23 -21
9 10 9 14 0 17 -7 2 -9 11 -6 19 4 11 8 12 13 4 5 -8 9 -8 13 2 6 16 -15 20
-35 6z"/>
<path d="M2925 2039 c-4 -6 -5 -12 -2 -15 2 -3 7 2 10 11 7 17 1 20 -8 4z"/>
<path d="M2206 1977 c3 -10 9 -15 12 -12 3 3 0 11 -7 18 -10 9 -11 8 -5 -6z"/>
<path d="M2570 1946 c0 -20 4 -35 9 -31 5 3 7 18 5 32 -8 41 -14 41 -14 -1z"/>
<path d="M2530 1960 c0 -5 7 -10 16 -10 8 0 12 5 9 10 -3 6 -10 10 -16 10 -5
0 -9 -4 -9 -10z"/>
<path d="M2895 1960 c-3 -5 -1 -10 4 -10 6 0 11 5 11 10 0 6 -2 10 -4 10 -3 0
-8 -4 -11 -10z"/>
<path d="M2224 1936 c1 -8 5 -18 8 -22 4 -3 5 1 4 10 -1 8 -5 18 -8 22 -4 3
-5 -1 -4 -10z"/>
<path d="M2540 1929 c0 -5 5 -7 10 -4 6 3 10 8 10 11 0 2 -4 4 -10 4 -5 0 -10
-5 -10 -11z"/>
<path d="M2521 1914 c0 -11 3 -14 6 -6 3 7 2 16 -1 19 -3 4 -6 -2 -5 -13z"/>
<path d="M2881 1904 c0 -11 3 -14 6 -6 3 7 2 16 -1 19 -3 4 -6 -2 -5 -13z"/>
<path d="M2245 1880 c-3 -5 -1 -18 5 -27 11 -17 11 -16 5 1 -3 11 0 23 7 28 9
5 10 8 1 8 -6 0 -15 -4 -18 -10z"/>
<path d="M2520 1863 c0 -21 3 -24 9 -14 5 8 7 20 4 28 -8 21 -13 15 -13 -14z"/>
<path d="M2871 1873 c-1 -6 -4 -20 -7 -30 -5 -17 -5 -17 6 0 6 10 9 23 6 30
-3 9 -5 9 -5 0z"/>
<path d="M3739 1843 c-13 -16 -12 -17 4 -4 16 13 21 21 13 21 -2 0 -10 -8 -17
-17z"/>
<path d="M2260 1820 c0 -5 5 -10 11 -10 5 0 7 5 4 10 -3 6 -8 10 -11 10 -2 0
-4 -4 -4 -10z"/>
<path d="M2504 1813 c0 -10 -5 -17 -12 -15 -8 1 -12 -3 -10 -9 7 -20 -19 -104
-31 -101 -6 1 -10 -1 -9 -5 1 -5 -5 -28 -12 -53 -17 -55 -20 -80 -9 -80 4 0
14 19 21 43 7 23 19 48 28 55 13 11 13 12 0 6 -12 -6 -12 -4 1 12 9 10 14 25
12 32 -3 6 0 12 6 12 6 0 11 18 11 41 0 24 4 38 10 34 6 -3 10 3 10 14 0 10 6
22 13 24 6 3 2 6 -9 6 -15 1 -21 -5 -20 -16z"/>
<path d="M2581 1804 c0 -11 3 -14 6 -6 3 7 2 16 -1 19 -3 4 -6 -2 -5 -13z"/>
<path d="M2842 1804 c-7 -8 -8 -14 -3 -14 10 0 25 19 20 25 -2 1 -10 -3 -17
-11z"/>
<path d="M3643 1805 c0 -8 4 -12 9 -9 4 3 8 9 8 15 0 5 -4 9 -8 9 -5 0 -9 -7
-9 -15z"/>
<path d="M2279 1788 c7 -10 10 -18 6 -18 -4 0 -2 -6 4 -13 6 -8 9 -17 6 -20
-3 -4 -2 -5 2 -2 15 12 10 34 -10 52 -19 16 -20 16 -8 1z"/>
<path d="M2613 1793 c-7 -2 -13 -11 -13 -18 0 -8 6 -17 13 -21 6 -4 9 -4 5 1
-4 4 -3 16 3 26 5 11 8 19 7 18 -2 0 -9 -3 -15 -6z"/>
<path d="M1451 1774 c0 -11 3 -14 6 -6 3 7 2 16 -1 19 -3 4 -6 -2 -5 -13z"/>
<path d="M2038 1773 c7 -3 16 -2 19 1 4 3 -2 6 -13 5 -11 0 -14 -3 -6 -6z"/>
<path d="M2825 1771 c-3 -5 -2 -12 3 -15 5 -3 9 1 9 9 0 17 -3 19 -12 6z"/>
<path d="M1442 1724 c10 -10 20 -15 24 -12 3 4 -5 12 -18 18 -22 12 -22 12 -6
-6z"/>
<path d="M2811 1713 c-10 -26 -10 -27 4 -9 8 11 15 23 15 28 0 15 -7 8 -19
-19z"/>
<path d="M1570 1723 c0 -3 6 -11 14 -19 13 -12 15 -12 13 4 -1 15 -27 29 -27
15z"/>
<path d="M2610 1720 c0 -5 7 -10 15 -10 8 0 15 5 15 10 0 6 -7 10 -15 10 -8 0
-15 -4 -15 -10z"/>
<path d="M2626 1685 c-3 -8 2 -19 12 -24 11 -7 12 -11 4 -11 -22 0 -3 -20 19
-20 19 0 19 1 5 16 -9 8 -16 24 -16 35 0 22 -15 25 -24 4z"/>
<path d="M3410 1690 c0 -5 5 -10 11 -10 5 0 7 5 4 10 -3 6 -8 10 -11 10 -2 0
-4 -4 -4 -10z"/>
<path d="M3550 1670 c0 -5 5 -10 11 -10 5 0 7 5 4 10 -3 6 -8 10 -11 10 -2 0
-4 -4 -4 -10z"/>
<path d="M1680 1661 c0 -10 19 -25 25 -20 1 2 -3 10 -11 17 -8 7 -14 8 -14 3z"/>
<path d="M2876 1643 c-6 -14 -5 -15 5 -6 7 7 10 15 7 18 -3 3 -9 -2 -12 -12z"/>
<path d="M2040 1640 c-9 -6 -10 -10 -3 -10 6 0 15 5 18 10 8 12 4 12 -15 0z"/>
<path d="M2668 1603 c-3 -4 3 -16 14 -25 17 -17 18 -17 15 4 -4 22 -22 35 -29
21z"/>
<path d="M1405 1548 c4 -18 11 -39 15 -48 5 -8 27 -73 50 -145 49 -149 105
-292 219 -557 84 -197 113 -279 137 -391 25 -119 19 -148 -67 -319 -22 -45
-37 -83 -34 -86 7 -7 6 -9 64 108 29 58 50 98 48 89 -3 -9 1 -16 8 -16 10 0
11 5 4 18 -6 11 -5 27 1 44 5 14 10 47 10 71 0 49 -58 267 -92 345 -11 26 -17
53 -12 60 4 8 3 10 -4 5 -7 -4 -13 -2 -13 3 -3 21 -5 26 -32 85 -15 33 -26 64
-24 70 2 6 -2 16 -9 21 -7 6 -24 44 -39 85 -14 41 -33 86 -41 99 -9 12 -14 32
-11 42 3 10 1 17 -3 14 -7 -4 -47 95 -41 103 1 1 -6 16 -14 32 -8 16 -15 32
-15 35 2 51 -1 68 -10 55 -8 -13 -10 -12 -10 3 0 10 -11 38 -25 63 -14 25 -20
42 -14 38 15 -9 3 28 -23 72 -25 43 -32 43 -23 2z"/>
<path d="M3003 1573 c9 -2 23 -2 30 0 6 3 -1 5 -18 5 -16 0 -22 -2 -12 -5z"/>
<path d="M3721 1542 c-2 -74 -31 -192 -76 -313 -24 -64 -46 -138 -50 -165 -4
-27 -18 -93 -31 -147 -53 -216 -68 -408 -40 -512 7 -27 45 -113 84 -190 39
-77 77 -157 86 -177 8 -21 20 -38 26 -38 14 0 4 36 -21 72 -11 14 -19 31 -19
37 0 6 -11 29 -25 51 -14 22 -25 46 -25 54 0 8 -4 16 -8 18 -15 6 -69 122 -82
178 -22 89 -11 291 23 415 3 11 17 74 31 140 24 116 38 169 56 210 5 11 22 58
39 105 l29 85 0 -55 c0 -30 5 -104 11 -165 27 -265 33 -386 26 -540 -9 -184
-9 -202 -4 -307 2 -42 6 -75 10 -72 4 2 10 -15 13 -39 4 -23 8 -51 9 -63 2
-11 6 -24 9 -30 9 -15 21 -68 19 -82 -1 -6 5 -12 14 -12 8 0 15 2 15 4 0 3
-15 62 -32 133 l-33 128 3 279 c2 211 -2 347 -17 555 -32 419 -38 490 -40 443z"/>
<path d="M3158 1563 c6 -2 18 -2 25 0 6 3 1 5 -13 5 -14 0 -19 -2 -12 -5z"/>
<path d="M3692 1530 c-7 -11 -12 -29 -12 -40 0 -12 -4 -18 -10 -15 -5 3 -10
-3 -10 -13 0 -29 -29 -94 -39 -87 -5 3 -11 0 -13 -7 -2 -6 -15 -13 -28 -15
-14 -2 -31 -10 -39 -18 -12 -12 -8 -12 25 0 21 7 42 10 46 7 4 -4 1 -25 -7
-47 -8 -22 -14 -48 -15 -58 0 -11 -4 -15 -12 -11 -6 4 -8 3 -5 -3 8 -13 -18
-85 -28 -76 -4 5 -5 3 -2 -4 4 -6 -8 -44 -26 -85 -19 -40 -43 -93 -53 -118
-10 -25 -34 -74 -52 -110 -50 -98 -107 -237 -137 -335 -34 -111 -56 -235 -42
-235 6 0 8 -3 5 -6 -4 -3 0 -17 7 -31 7 -14 11 -31 9 -38 -3 -7 2 -15 11 -19
13 -5 15 -13 11 -34 -5 -18 -4 -23 3 -13 7 11 17 -3 41 -53 17 -38 34 -66 37
-62 3 3 -15 47 -39 98 -78 163 -80 180 -38 342 27 100 63 191 150 372 115 240
175 388 229 564 27 90 49 166 47 167 -1 1 -7 -7 -14 -17z"/>
<path d="M2377 1519 c7 -27 23 -34 23 -11 0 11 -6 22 -14 25 -10 4 -12 0 -9
-14z"/>
<path d="M2734 1528 c-9 -14 -18 -66 -11 -58 3 3 7 14 9 25 1 11 7 23 13 27 5
4 7 10 3 13 -3 4 -10 0 -14 -7z"/>
<path d="M1398 1355 c-3 -82 -11 -264 -19 -403 -10 -197 -10 -287 -2 -405 14
-188 3 -304 -52 -519 -6 -22 -4 -28 10 -28 9 0 14 4 10 9 -3 5 0 15 7 23 7 7
13 28 12 46 -1 17 3 32 8 32 5 0 7 4 4 8 -3 5 1 35 9 68 24 107 28 193 15 350
-12 132 -11 191 4 441 9 159 21 302 25 318 5 17 10 22 10 13 1 -9 4 -24 8 -34
4 -10 2 -15 -4 -11 -12 7 1 -88 15 -106 4 -7 8 -29 8 -49 -1 -23 4 -40 13 -43
8 -3 11 -15 9 -30 -3 -13 -1 -26 5 -28 9 -3 20 -72 42 -252 4 -27 8 -52 10
-55 13 -20 24 -213 16 -270 -13 -92 -34 -150 -53 -150 -5 0 -7 -4 -3 -9 6 -10
-28 -104 -35 -99 -3 2 -4 2 -4 0 1 -2 -13 -37 -32 -79 -18 -42 -30 -81 -27
-86 7 -11 2 -21 81 158 81 182 91 220 92 325 0 95 -54 468 -84 583 -25 94 -19
121 7 35 l16 -53 -4 52 c-2 28 -8 60 -13 70 -15 29 -30 65 -43 108 -7 22 -16
45 -20 50 -4 6 -10 37 -14 70 -14 114 -23 99 -27 -50z m59 -127 c-3 -8 -6 -5
-6 6 -1 11 2 17 5 13 3 -3 4 -12 1 -19z m21 -49 c-3 -8 -7 -3 -11 10 -4 17 -3
21 5 13 5 -5 8 -16 6 -23z"/>
<path d="M2405 1471 c-3 -5 -2 -12 3 -15 5 -3 9 1 9 9 0 17 -3 19 -12 6z"/>
<path d="M1476 1447 c3 -10 9 -15 12 -12 3 3 0 11 -7 18 -10 9 -11 8 -5 -6z"/>
<path d="M2697 1430 c-3 -11 -3 -20 -1 -20 2 0 8 9 14 20 6 11 7 20 2 20 -6 0
-12 -9 -15 -20z"/>
<path d="M2163 1427 c-4 -7 -24 -20 -43 -30 -29 -14 -31 -17 -12 -17 12 0 22
5 22 10 0 6 7 10 15 10 8 0 19 9 25 20 12 22 6 28 -7 7z"/>
<path d="M3290 1420 c0 -5 4 -10 9 -10 6 0 13 5 16 10 3 6 -1 10 -9 10 -9 0
-16 -4 -16 -10z"/>
<path d="M2420 1415 c0 -5 5 -17 10 -25 5 -8 10 -10 10 -5 0 6 -5 17 -10 25
-5 8 -10 11 -10 5z"/>
<path d="M2045 1370 c-3 -5 -15 -10 -25 -10 -17 0 -37 -17 -29 -24 2 -2 21 5
43 14 21 10 33 20 28 24 -6 3 -13 2 -17 -4z"/>
<path d="M3041 1364 c0 -11 3 -14 6 -6 3 7 2 16 -1 19 -3 4 -6 -2 -5 -13z"/>
<path d="M2076 1354 c-5 -14 -4 -15 9 -4 17 14 19 20 6 20 -5 0 -12 -7 -15
-16z"/>
<path d="M1525 1350 c-3 -5 -1 -10 4 -10 6 0 11 5 11 10 0 6 -2 10 -4 10 -3 0
-8 -4 -11 -10z"/>
<path d="M2166 1334 c-4 -9 -4 -19 -1 -22 2 -3 7 3 11 12 4 9 4 19 1 22 -2 3
-7 -3 -11 -12z"/>
<path d="M3082 1345 c6 -6 29 -12 51 -14 5 -1 6 -5 2 -10 -3 -5 0 -13 6 -17 8
-4 9 -3 5 4 -4 7 -1 12 8 12 8 0 17 -6 19 -12 3 -7 6 -8 6 -2 1 5 -6 19 -15
30 -8 10 -13 13 -9 7 3 -7 1 -13 -4 -13 -6 0 -11 4 -11 8 0 4 -14 9 -32 10
-18 2 -29 0 -26 -3z"/>
<path d="M1560 1336 c0 -2 7 -9 15 -16 9 -7 15 -8 15 -2 0 5 -7 12 -15 16 -8
3 -15 4 -15 2z"/>
<path d="M3235 1332 c-10 -11 95 -30 161 -30 35 0 64 5 64 10 0 6 -18 7 -44 4
-24 -4 -73 0 -109 8 -37 7 -69 11 -72 8z"/>
<path d="M1878 1323 c7 -3 16 -2 19 1 4 3 -2 6 -13 5 -11 0 -14 -3 -6 -6z"/>
<path d="M1944 1313 c1 -7 6 -16 11 -20 4 -4 5 -2 1 5 -7 11 5 17 27 13 5 -1
6 3 3 8 -9 14 -44 9 -42 -6z"/>
<path d="M3475 1320 c-3 -5 -1 -10 4 -10 6 0 11 5 11 10 0 6 -2 10 -4 10 -3 0
-8 -4 -11 -10z"/>
<path d="M1765 1308 c-33 -5 -70 -7 -83 -5 -13 3 -21 0 -19 -6 4 -12 103 -14
114 -4 3 4 18 7 32 7 14 0 33 5 41 10 19 12 2 12 -85 -2z"/>
<path d="M2465 1311 c-3 -5 -2 -12 3 -15 5 -3 9 1 9 9 0 17 -3 19 -12 6z"/>
<path d="M1625 1300 c3 -5 8 -10 11 -10 2 0 4 5 4 10 0 6 -5 10 -11 10 -5 0
-7 -4 -4 -10z"/>
<path d="M1910 1300 c0 -5 5 -10 10 -10 6 0 10 5 10 10 0 6 -4 10 -10 10 -5 0
-10 -4 -10 -10z"/>
<path d="M1875 1290 c-3 -6 1 -7 9 -4 18 7 21 14 7 14 -6 0 -13 -4 -16 -10z"/>
<path d="M1838 1273 c7 -3 16 -2 19 1 4 3 -2 6 -13 5 -11 0 -14 -3 -6 -6z"/>
<path d="M1910 1272 c0 -5 7 -9 15 -9 8 0 12 4 9 9 -3 4 -9 8 -15 8 -5 0 -9
-4 -9 -8z"/>
<path d="M2481 1275 c1 -19 18 -51 18 -35 0 8 -4 22 -9 30 -5 8 -9 11 -9 5z"/>
<path d="M3228 1263 c7 -3 16 -2 19 1 4 3 -2 6 -13 5 -11 0 -14 -3 -6 -6z"/>
<path d="M3365 1250 c3 -5 8 -10 11 -10 2 0 4 5 4 10 0 6 -5 10 -11 10 -5 0
-7 -4 -4 -10z"/>
<path d="M2614 1231 c0 -11 4 -17 8 -15 4 3 8 12 8 20 0 8 -4 14 -8 14 -4 0
-8 -9 -8 -19z"/>
<path d="M3240 1241 c0 -6 4 -13 10 -16 6 -3 7 1 4 9 -7 18 -14 21 -14 7z"/>
<path d="M1785 1210 c-3 -5 -1 -10 4 -10 6 0 11 5 11 10 0 6 -2 10 -4 10 -3 0
-8 -4 -11 -10z"/>
<path d="M1840 1205 c0 -8 4 -15 10 -15 5 0 7 7 4 15 -4 8 -8 15 -10 15 -2 0
-4 -7 -4 -15z"/>
<path d="M3300 1210 c0 -5 5 -10 11 -10 5 0 7 5 4 10 -3 6 -8 10 -11 10 -2 0
-4 -4 -4 -10z"/>
<path d="M2507 1189 c4 -15 8 -17 14 -8 8 14 3 29 -11 29 -4 0 -6 -9 -3 -21z"/>
<path d="M2601 1184 c0 -11 3 -14 6 -6 3 7 2 16 -1 19 -3 4 -6 -2 -5 -13z"/>
<path d="M1631 1174 c0 -11 3 -14 6 -6 3 7 2 16 -1 19 -3 4 -6 -2 -5 -13z"/>
<path d="M3501 1174 c0 -11 3 -14 6 -6 3 7 2 16 -1 19 -3 4 -6 -2 -5 -13z"/>
<path d="M30 1171 c0 -6 4 -13 10 -16 6 -3 7 1 4 9 -7 18 -14 21 -14 7z"/>
<path d="M2520 1151 c0 -6 4 -13 10 -16 6 -3 7 1 4 9 -7 18 -14 21 -14 7z"/>
<path d="M2580 1140 c-8 -26 -7 -41 2 -32 6 6 8 16 5 24 -3 7 -6 11 -7 8z"/>
<path d="M2550 1075 c0 -8 4 -15 10 -15 5 0 7 7 4 15 -4 8 -8 15 -10 15 -2 0
-4 -7 -4 -15z"/>
<path d="M1554 996 c1 -25 4 -40 7 -34 4 7 9 7 13 -1 4 -6 5 -15 2 -20 -3 -5
0 -11 8 -14 10 -4 12 0 9 14 -3 11 -9 22 -14 25 -5 3 -9 15 -9 27 0 12 -4 28
-8 34 -5 8 -8 -6 -8 -31z"/>
<path d="M1601 894 c0 -11 3 -14 6 -6 3 7 2 16 -1 19 -3 4 -6 -2 -5 -13z"/>
<path d="M1610 861 c0 -7 -4 -9 -10 -6 -10 6 -15 -9 -10 -30 1 -5 2 -18 3 -27
1 -10 5 -18 10 -18 5 0 7 -6 4 -14 -3 -8 -1 -16 5 -18 6 -2 11 -23 11 -46 0
-23 4 -42 9 -42 5 0 8 21 7 48 -1 26 2 56 6 67 5 16 5 17 -4 5 -8 -12 -13 -12
-23 -2 -6 6 -8 12 -2 12 5 0 3 4 -5 9 -12 8 -13 14 -3 37 7 14 10 29 7 32 -3
3 -5 0 -5 -7z"/>
<path d="M3485 859 c-4 -5 -4 -13 -1 -16 3 -4 6 0 7 8 0 8 4 6 9 -6 7 -16 9
-17 9 -3 1 21 -15 32 -24 17z"/>
<path d="M1627 819 c4 -13 8 -18 11 -10 2 7 -1 18 -6 23 -8 8 -9 4 -5 -13z"/>
<path d="M3470 815 c0 -8 2 -15 4 -15 2 0 6 7 10 15 3 8 1 15 -4 15 -6 0 -10
-7 -10 -15z"/>
<path d="M3445 750 c-9 -16 -12 -30 -7 -30 4 0 13 14 19 30 6 17 10 30 7 30
-2 0 -10 -13 -19 -30z"/>
<path d="M5039 723 c-13 -16 -12 -17 4 -4 16 13 21 21 13 21 -2 0 -10 -8 -17
-17z"/>
<path d="M3400 680 c-12 -17 -20 -36 -18 -42 2 -6 13 7 25 30 24 50 22 53 -7
12z"/>
<path d="M3456 685 c-9 -26 -7 -32 5 -12 6 10 9 21 6 23 -2 3 -7 -2 -11 -11z"/>
<path d="M1651 664 c0 -11 3 -14 6 -6 3 7 2 16 -1 19 -3 4 -6 -2 -5 -13z"/>
<path d="M1695 661 c-3 -5 -1 -12 5 -16 5 -3 10 1 10 9 0 18 -6 21 -15 7z"/>
<path d="M1650 630 c0 -5 5 -10 10 -10 6 0 10 5 10 10 0 6 -4 10 -10 10 -5 0
-10 -4 -10 -10z"/>
<path d="M3454 576 c1 -25 4 -39 8 -33 10 16 10 49 0 64 -5 8 -8 -6 -8 -31z"/>
<path d="M1643 596 c-10 -11 -9 -15 2 -20 10 -4 15 1 15 14 0 23 -1 24 -17 6z"/>
<path d="M1730 580 c0 -5 5 -10 10 -10 6 0 10 5 10 10 0 6 -4 10 -10 10 -5 0
-10 -4 -10 -10z"/>
<path d="M3350 575 c0 -8 2 -15 4 -15 2 0 6 7 10 15 3 8 1 15 -4 15 -6 0 -10
-7 -10 -15z"/>
<path d="M1660 549 c0 -5 5 -7 10 -4 6 3 10 8 10 11 0 2 -4 4 -10 4 -5 0 -10
-5 -10 -11z"/>
<path d="M3337 523 c-5 -26 -4 -26 9 -8 16 22 18 35 5 35 -5 0 -11 -12 -14
-27z"/>
<path d="M3446 504 c-9 -24 -7 -27 9 -10 17 17 19 26 6 26 -5 0 -12 -7 -15
-16z"/>
<path d="M3317 468 c-9 -31 -2 -33 11 -3 6 14 8 25 3 25 -5 0 -11 -10 -14 -22z"/>
<path d="M3450 399 c0 -5 5 -7 10 -4 6 3 10 8 10 11 0 2 -4 4 -10 4 -5 0 -10
-5 -10 -11z"/>
<path d="M3483 387 c-1 -12 3 -25 10 -29 9 -6 9 -8 0 -8 -7 0 -17 -9 -23 -20
-9 -16 -8 -18 5 -14 10 4 15 0 15 -14 0 -11 7 -25 15 -32 13 -11 13 -15 3 -21
-10 -7 -9 -9 5 -9 9 0 17 -7 17 -15 0 -8 9 -19 20 -25 13 -7 20 -21 20 -42 0
-17 3 -28 7 -25 10 11 32 -26 33 -54 0 -39 22 -74 48 -77 21 -3 15 12 -62 165
-91 183 -100 202 -97 220 1 6 -2 14 -7 17 -4 2 -9 -5 -9 -17z"/>
<path d="M1607 370 c-3 -11 -2 -20 3 -20 12 0 21 28 11 35 -5 2 -11 -4 -14
-15z"/>
<path d="M3995 370 c3 -5 8 -10 11 -10 2 0 4 5 4 10 0 6 -5 10 -11 10 -5 0 -7
-4 -4 -10z"/>
<path d="M3290 361 c0 -6 4 -13 10 -16 6 -3 7 1 4 9 -7 18 -14 21 -14 7z"/>
<path d="M1605 332 c-6 -4 -11 -17 -13 -30 -3 -21 -1 -22 17 -12 12 6 21 14
21 18 0 16 -16 31 -25 24z"/>
<path d="M1801 304 c0 -11 3 -14 6 -6 3 7 2 16 -1 19 -3 4 -6 -2 -5 -13z"/>
<path d="M3463 278 c-2 -16 1 -18 10 -9 7 7 8 14 1 21 -6 6 -10 2 -11 -12z"/>
<path d="M1556 236 c-10 -22 -20 -47 -22 -54 -1 -8 -10 -22 -19 -32 -9 -10
-14 -24 -10 -29 3 -6 1 -11 -4 -11 -6 0 -11 -6 -11 -14 0 -8 -7 -21 -15 -29
-7 -8 -17 -26 -21 -41 -5 -22 -3 -26 14 -26 15 0 22 9 27 30 4 16 11 32 16 35
5 4 9 17 9 31 0 14 4 23 9 20 5 -3 11 13 14 36 3 22 10 44 16 47 5 4 15 20 22
36 6 17 13 24 16 17 6 -14 23 -6 23 11 0 7 -10 13 -23 13 -17 1 -27 -8 -41
-40z"/>
<path d="M1640 234 c0 -8 5 -12 10 -9 6 4 8 11 5 16 -9 14 -15 11 -15 -7z"/>
<path d="M1777 225 c-4 -8 -3 -16 1 -19 4 -3 9 4 9 15 2 23 -3 25 -10 4z"/>
<path d="M1602 196 c1 -14 5 -23 9 -20 7 4 0 44 -7 44 -2 0 -3 -11 -2 -24z"/>
<path d="M3320 176 c0 -2 8 -10 18 -17 15 -13 16 -12 3 4 -13 16 -21 21 -21
13z"/>
<path d="M3535 110 c-3 -5 -1 -10 4 -10 6 0 11 5 11 10 0 6 -2 10 -4 10 -3 0
-8 -4 -11 -10z"/>
<path d="M1715 101 c-3 -5 -2 -12 3 -15 5 -3 9 1 9 9 0 17 -3 19 -12 6z"/>
<path d="M3541 64 c0 -11 3 -14 6 -6 3 7 2 16 -1 19 -3 4 -6 -2 -5 -13z"/>
<path d="M3575 10 c3 -5 8 -10 11 -10 2 0 4 5 4 10 0 6 -5 10 -11 10 -5 0 -7
-4 -4 -10z"/>
</g>
</svg>
