<?xml version="1.0" standalone="no"?>
<!DOCTYPE svg PUBLIC "-//W3C//DTD SVG 20010904//EN"
 "http://www.w3.org/TR/2001/REC-SVG-20010904/DTD/svg10.dtd">
<svg version="1.0" xmlns="http://www.w3.org/2000/svg"
 width="512.000000pt" height="512.000000pt" viewBox="0 0 512.000000 512.000000"
 preserveAspectRatio="xMidYMid meet">
<metadata>
Created by potrace 1.16, written by Peter Selinger 2001-2019
</metadata>
<g transform="translate(0.000000,512.000000) scale(0.100000,-0.100000)"
fill="#000000" stroke="none">
<path d="M1730 4299 l0 -821 45 40 c43 38 190 132 230 147 20 7 20 7 0 18 -11
7 -31 24 -46 39 -35 36 -38 73 -30 476 6 306 2 385 -14 299 -12 -63 -11 -767
1 -775 12 -8 38 -52 32 -56 -2 -2 -30 -18 -63 -36 -33 -18 -75 -44 -92 -57
l-33 -24 0 448 c1 246 -1 583 -4 748 -3 165 -5 317 -6 338 0 20 -4 37 -10 37
-7 0 -10 -280 -10 -821z"/>
<path d="M3369 5048 c0 -40 -2 -138 -4 -218 -1 -80 -3 -403 -4 -718 l-1 -573
-29 17 c-17 10 -27 22 -24 27 3 6 1 7 -4 4 -6 -4 -21 3 -35 16 -13 12 -28 23
-33 24 -6 2 -17 9 -26 17 -9 8 -27 17 -39 21 -20 6 -21 8 -5 26 10 10 22 17
28 16 6 -1 11 3 12 8 0 6 4 16 8 22 13 20 3 755 -11 778 -8 15 -11 -76 -11
-367 0 -427 3 -408 -64 -455 l-28 -20 48 -28 c64 -37 197 -130 213 -150 7 -8
16 -15 21 -15 5 0 9 356 9 820 0 540 -3 820 -10 820 -6 0 -10 -31 -11 -72z"/>
<path d="M3218 4953 c12 -2 30 -2 40 0 9 3 -1 5 -23 4 -22 0 -30 -2 -17 -4z"/>
<path d="M1998 4923 c12 -2 32 -2 45 0 12 2 2 4 -23 4 -25 0 -35 -2 -22 -4z"/>
<path d="M2097 4923 c18 -2 50 -2 70 0 21 2 7 4 -32 4 -38 0 -55 -2 -38 -4z"/>
<path d="M2223 4923 c9 -2 23 -2 30 0 6 3 -1 5 -18 5 -16 0 -22 -2 -12 -5z"/>
<path d="M2293 4923 c15 -2 37 -2 50 0 12 2 0 4 -28 4 -27 0 -38 -2 -22 -4z"/>
<path d="M908 4913 c7 -3 16 -2 19 1 4 3 -2 6 -13 5 -11 0 -14 -3 -6 -6z"/>
<path d="M1008 4913 c23 -2 59 -2 80 0 20 2 1 4 -43 4 -44 0 -61 -2 -37 -4z"/>
<path d="M2698 4893 c6 -2 18 -2 25 0 6 3 1 5 -13 5 -14 0 -19 -2 -12 -5z"/>
<path d="M2908 4893 c12 -2 32 -2 45 0 12 2 2 4 -23 4 -25 0 -35 -2 -22 -4z"/>
<path d="M235 4855 l-25 -24 0 -540 0 -539 31 -26 31 -26 603 0 604 0 21 22
c20 21 20 32 20 561 0 529 0 539 -21 568 l-20 29 -610 0 -610 0 -24 -25z
m1237 -12 c14 -16 16 -83 18 -533 2 -283 2 -524 1 -535 -3 -49 21 -47 -612
-50 l-594 -2 -27 25 -28 26 0 522 0 523 26 20 c26 21 35 21 614 21 546 0 588
-1 602 -17z"/>
<path d="M720 4736 c-25 -7 -64 -23 -88 -35 -23 -12 -48 -19 -54 -15 -6 4 -8
3 -5 -3 4 -6 -3 -17 -16 -25 -39 -26 -123 -115 -119 -127 2 -6 -3 -14 -12 -17
-9 -3 -14 -9 -11 -13 2 -5 -5 -32 -17 -62 -31 -79 -30 -240 2 -324 47 -122
127 -210 238 -263 77 -37 77 -37 212 -37 l135 0 83 40 83 40 -3 42 c-1 23 -4
41 -8 40 -3 -1 -25 16 -48 39 -38 36 -41 42 -27 54 14 11 23 7 63 -31 26 -24
50 -50 55 -56 4 -7 15 -13 22 -13 18 0 20 -16 3 -23 -10 -4 -10 -6 0 -6 8 -1
16 8 19 19 3 11 11 20 18 20 7 0 15 9 18 21 3 12 10 18 15 15 6 -4 8 3 4 16
-3 14 -1 19 6 14 6 -3 14 -1 18 5 4 8 3 9 -4 5 -15 -9 -15 -7 5 45 24 63 24
256 1 324 -10 28 -18 53 -18 58 0 4 -4 13 -10 20 -5 6 -28 35 -50 64 -21 28
-60 67 -84 86 -25 19 -42 37 -38 41 3 4 -2 4 -12 0 -15 -6 -17 -4 -11 6 5 8 4
11 -2 7 -6 -4 -33 3 -59 15 -61 27 -233 35 -304 14z m221 -16 c129 -24 254
-121 314 -244 68 -137 69 -275 3 -422 l-32 -72 -74 70 -74 70 -24 -23 c-36
-33 -30 -58 29 -117 51 -52 51 -54 32 -68 -105 -80 -272 -106 -409 -64 -234
73 -369 349 -283 582 75 207 296 330 518 288z"/>
<path d="M1027 4649 c7 -7 15 -10 18 -7 3 3 -2 9 -12 12 -14 6 -15 5 -6 -5z"/>
<path d="M751 4452 c-53 -26 -75 -64 -75 -125 0 -95 60 -157 152 -157 93 0
153 50 159 132 5 65 -17 113 -66 145 -42 28 -120 31 -170 5z m176 -48 c27 -31
33 -46 33 -85 0 -42 -5 -53 -34 -83 -88 -87 -226 -34 -226 88 0 36 6 52 30 80
35 39 55 46 120 41 38 -3 50 -9 77 -41z"/>
<path d="M782 4385 c-13 -7 -23 -16 -23 -21 0 -5 -2 -18 -5 -29 -14 -56 41
-111 100 -100 55 11 73 32 69 85 -4 64 -5 70 -15 64 -4 -3 -8 -1 -8 4 0 14
-93 12 -118 -3z m106 -17 c20 -20 15 -86 -7 -98 -26 -14 -74 -13 -89 2 -21 21
-15 75 10 92 27 19 69 21 86 4z"/>
<path d="M421 4324 c0 -11 3 -14 6 -6 3 7 2 16 -1 19 -3 4 -6 -2 -5 -13z"/>
<path d="M1066 3928 c3 -5 10 -6 15 -3 13 9 11 12 -6 12 -8 0 -12 -4 -9 -9z"/>
<path d="M1160 3944 c0 -15 13 -28 45 -47 l30 -18 -25 21 c-14 12 -31 29 -37
38 -7 9 -13 12 -13 6z"/>
<path d="M1322 3920 c7 -11 16 -20 20 -20 5 0 3 9 -4 20 -7 11 -16 20 -20 20
-5 0 -3 -9 4 -20z"/>
<path d="M1256 3911 c-3 -5 1 -12 10 -15 20 -8 29 -1 19 13 -8 13 -22 14 -29
2z"/>
<path d="M1160 3880 c0 -6 7 -10 15 -10 8 0 15 2 15 4 0 2 -7 6 -15 10 -8 3
-15 1 -15 -4z"/>
<path d="M1300 3875 c0 -8 2 -15 4 -15 2 0 11 -3 20 -6 23 -9 20 9 -4 24 -17
10 -20 10 -20 -3z"/>
<path d="M1356 3878 c4 -7 14 -21 22 -30 13 -16 13 -18 -2 -24 -9 -3 -32 -4
-51 -2 -40 5 -47 -8 -10 -18 14 -3 25 -11 25 -18 0 -8 2 -8 8 0 4 7 16 13 26
15 32 7 42 33 23 63 -17 26 -55 38 -41 14z"/>
<path d="M1202 3844 c10 -10 20 -15 24 -12 3 4 -5 12 -18 18 -22 12 -22 12 -6
-6z"/>
<path d="M3628 4849 l-26 -26 5 -534 5 -534 24 -22 25 -23 600 0 600 0 24 25
25 24 0 530 0 530 -23 26 -22 26 -605 2 -605 2 -27 -26z m1240 -19 l22 -21 0
-518 0 -517 -30 -23 -31 -22 -581 6 c-520 5 -584 7 -600 22 -17 15 -18 47 -18
536 0 470 2 522 17 539 15 17 47 18 608 18 581 0 592 0 613 -20z"/>
<path d="M3857 4633 c-10 -2 -22 -16 -28 -29 -5 -14 -9 -171 -9 -350 l0 -325
25 -24 24 -25 376 0 c373 0 406 3 428 34 13 19 7 712 -6 716 -22 5 -792 8
-810 3z m797 -54 c3 -17 6 -168 6 -335 0 -291 -1 -305 -20 -324 -19 -19 -33
-20 -387 -20 -327 0 -368 2 -385 17 -17 15 -18 39 -18 348 0 182 3 335 7 338
3 4 183 7 398 7 l393 0 6 -31z"/>
<path d="M4118 4270 l-3 -101 149 3 149 3 4 35 c2 19 1 63 -2 96 l-6 61 -144
2 -144 2 -3 -101z m272 -5 l0 -75 -125 0 -125 0 0 75 0 75 125 0 125 0 0 -75z"/>
<path d="M3938 3933 c7 -3 16 -2 19 1 4 3 -2 6 -13 5 -11 0 -14 -3 -6 -6z"/>
<path d="M4568 3933 c6 -2 18 -2 25 0 6 3 1 5 -13 5 -14 0 -19 -2 -12 -5z"/>
<path d="M4943 4700 c0 -25 2 -35 4 -22 2 12 2 32 0 45 -2 12 -4 2 -4 -23z"/>
<path d="M2034 4625 c-69 -41 -72 -52 -73 -226 -1 -85 -4 -224 -7 -309 -5
-147 -1 -186 12 -109 3 19 7 153 10 299 l4 265 34 33 c23 21 51 35 81 41 38 7
44 6 34 -5 -6 -8 -17 -14 -25 -14 -7 0 -19 -9 -27 -20 -11 -16 -13 -71 -9
-300 3 -205 2 -280 -7 -280 -16 0 -14 -82 4 -106 8 -12 11 -25 7 -29 -4 -3 -2
-6 3 -5 6 1 34 2 63 1 36 -1 51 -5 46 -12 -5 -8 -1 -8 14 0 27 14 35 14 26 -1
-6 -10 -4 -10 8 0 12 10 100 12 401 10 283 -1 389 1 400 10 7 7 16 10 18 7 3
-2 6 6 7 18 7 56 4 89 -7 96 -9 6 -11 63 -7 237 2 126 7 247 11 269 8 51 -13
80 -76 106 l-44 18 45 0 c57 1 123 -29 147 -65 19 -30 18 2 22 -536 2 -150 6
-238 12 -238 7 0 9 133 7 378 -3 373 -3 377 -26 409 -12 17 -39 42 -60 55
l-37 23 -485 3 -485 2 -41 -25z m359 -2 c-46 -2 -120 -2 -165 0 -46 1 -9 3 82
3 91 0 128 -2 83 -3z m375 0 c-21 -2 -57 -2 -80 0 -24 2 -7 4 37 4 44 0 63 -2
43 -4z m100 0 c-10 -2 -28 -2 -40 0 -13 2 -5 4 17 4 22 1 32 -1 23 -4z m108
-44 c53 -32 66 -57 53 -103 -6 -21 -11 -139 -12 -262 l-2 -223 -29 -30 -30
-31 -394 0 -394 0 -36 31 -35 31 -2 217 c-2 119 -6 241 -10 272 -6 51 -5 58
20 87 32 39 16 37 473 35 353 -2 364 -2 398 -24z m-865 -634 l31 -35 415 0
415 0 30 30 c34 35 34 35 42 14 6 -16 -9 -54 -28 -66 -6 -4 -214 -8 -463 -8
l-452 0 -15 22 c-15 21 -22 78 -11 78 3 0 19 -16 36 -35z"/>
<path d="M2265 4578 c77 -9 654 -3 664 7 2 3 -164 4 -370 4 -287 -1 -355 -4
-294 -11z"/>
<path d="M2131 4534 c-21 -27 -27 -44 -14 -44 15 0 73 52 68 61 -11 17 -33 9
-54 -17z"/>
<path d="M2749 4555 c-3 -2 -121 -5 -262 -5 -141 -1 -257 -5 -257 -9 0 -5 19
-7 43 -6 96 7 605 7 616 1 6 -4 11 -3 11 2 0 6 -7 13 -16 16 -18 7 -129 8
-135 1z"/>
<path d="M2920 4535 c0 -18 66 -52 77 -41 10 9 -43 56 -63 56 -8 0 -14 -7 -14
-15z"/>
<path d="M2360 4286 c0 -46 -3 -91 -6 -100 -5 -14 16 -16 193 -16 110 0 202 2
204 4 2 2 3 47 1 100 l-3 96 -195 0 -194 0 0 -84z m370 -13 l0 -73 -175 0
-175 0 0 70 0 69 128 3 c70 2 148 3 175 3 l47 0 0 -72z"/>
<path d="M1544 4205 c0 -55 1 -76 3 -47 2 29 2 74 0 100 -2 26 -3 2 -3 -53z"/>
<path d="M2013 3935 c0 -8 4 -15 9 -15 4 0 8 7 8 15 0 8 -4 15 -8 15 -5 0 -9
-7 -9 -15z"/>
<path d="M1953 3860 c0 -25 2 -35 4 -22 2 12 2 32 0 45 -2 12 -4 2 -4 -23z"/>
<path d="M1702 3775 c0 -16 2 -22 5 -12 2 9 2 23 0 30 -3 6 -5 -1 -5 -18z"/>
<path d="M3122 3743 c-6 -10 -13 -17 -16 -15 -3 1 -7 2 -8 2 -2 -1 -242 -1
-534 -1 -302 0 -536 -4 -545 -10 -8 -5 -9 -9 -4 -9 6 0 245 -1 533 -3 407 -2
528 0 541 10 10 7 21 10 23 7 3 -2 11 2 18 11 7 9 10 18 7 21 -3 3 -10 -3 -15
-13z"/>
<path d="M643 3673 c9 -2 23 -2 30 0 6 3 -1 5 -18 5 -16 0 -22 -2 -12 -5z"/>
<path d="M878 3673 c7 -3 16 -2 19 1 4 3 -2 6 -13 5 -11 0 -14 -3 -6 -6z"/>
<path d="M1008 3673 c46 -2 118 -2 160 0 42 1 5 3 -83 3 -88 0 -123 -2 -77 -3z"/>
<path d="M1258 3673 c6 -2 18 -2 25 0 6 3 1 5 -13 5 -14 0 -19 -2 -12 -5z"/>
<path d="M2160 3649 c155 -10 920 -7 913 4 -2 4 -237 6 -521 5 -365 -1 -480
-3 -392 -9z"/>
<path d="M1703 3570 c0 -41 2 -58 4 -37 2 20 2 54 0 75 -2 20 -4 3 -4 -38z"/>
<path d="M1303 3413 c9 -2 25 -2 35 0 9 3 1 5 -18 5 -19 0 -27 -2 -17 -5z"/>
<path d="M1428 3413 c12 -2 32 -2 45 0 12 2 2 4 -23 4 -25 0 -35 -2 -22 -4z"/>
<path d="M1803 3413 c15 -2 39 -2 55 0 15 2 2 4 -28 4 -30 0 -43 -2 -27 -4z"/>
<path d="M3088 3413 c7 -3 16 -2 19 1 4 3 -2 6 -13 5 -11 0 -14 -3 -6 -6z"/>
<path d="M3138 3413 c6 -2 18 -2 25 0 6 3 1 5 -13 5 -14 0 -19 -2 -12 -5z"/>
<path d="M3298 3413 c6 -2 18 -2 25 0 6 3 1 5 -13 5 -14 0 -19 -2 -12 -5z"/>
<path d="M4803 3413 c15 -2 37 -2 50 0 12 2 0 4 -28 4 -27 0 -38 -2 -22 -4z"/>
<path d="M4118 3403 c7 -3 16 -2 19 1 4 3 -2 6 -13 5 -11 0 -14 -3 -6 -6z"/>
<path d="M0 3370 c0 -7 254 -10 743 -10 565 0 746 -3 755 -12 9 -9 12 -197 12
-784 0 -689 -2 -774 -16 -788 -14 -14 -96 -16 -755 -16 -486 0 -739 -3 -739
-10 0 -16 1505 -14 1518 3 6 7 11 297 14 804 5 732 4 794 -12 808 -14 13 -111
15 -768 15 -495 0 -752 -3 -752 -10z"/>
<path d="M1730 2560 l0 -820 831 0 831 0 -5 818 c-4 449 -6 818 -7 820 0 1
-371 2 -825 2 l-825 0 0 -820z m1630 -5 l0 -795 -800 0 -800 0 0 795 0 795
800 0 800 0 0 -795z"/>
<path d="M2151 2977 c-17 -4 -36 -17 -42 -29 -9 -16 -12 -124 -11 -377 l1
-355 27 -23 27 -23 403 0 402 0 33 27 32 27 -5 352 c-6 407 -4 397 -93 409
-64 10 -735 2 -774 -8z m816 -39 l23 -21 0 -340 c0 -303 -2 -342 -17 -359 -15
-17 -41 -18 -415 -18 -385 0 -399 1 -418 20 -19 19 -20 33 -20 354 0 322 1
334 21 360 l20 26 392 0 c387 0 391 0 414 -22z"/>
<path d="M2159 2903 c-13 -16 -12 -17 4 -4 9 7 17 15 17 17 0 8 -8 3 -21 -13z"/>
<path d="M2152 2710 c0 -19 2 -27 5 -17 2 9 2 25 0 35 -3 9 -5 1 -5 -18z"/>
<path d="M2503 2673 c9 -2 25 -2 35 0 9 3 1 5 -18 5 -19 0 -27 -2 -17 -5z"/>
<path d="M2310 2581 l0 -59 55 -7 c50 -6 55 -9 55 -31 0 -24 0 -24 115 -26 63
-1 125 -2 138 -2 18 -1 23 5 25 32 3 33 4 34 48 30 l44 -3 0 62 0 63 -240 0
-240 0 0 -59z m435 33 c21 -5 25 -12 25 -40 0 -34 0 -34 -45 -34 -43 0 -46 -2
-51 -30 l-6 -30 -114 0 -114 0 0 30 c0 29 -1 30 -50 30 l-50 0 0 35 0 34 113
3 c61 2 147 4 189 6 43 1 89 0 103 -4z"/>
<path d="M2952 2415 c0 -16 2 -22 5 -12 2 9 2 23 0 30 -3 6 -5 -1 -5 -18z"/>
<path d="M2152 2380 c0 -19 2 -27 5 -17 2 9 2 25 0 35 -3 9 -5 1 -5 -18z"/>
<path d="M2930 2240 c-6 -11 -8 -20 -6 -20 3 0 10 9 16 20 6 11 8 20 6 20 -3
0 -10 -9 -16 -20z"/>
<path d="M2699 2115 c-5 -4 -136 -13 -231 -14 l-58 -1 0 -69 c0 -54 4 -70 16
-75 9 -3 74 -6 144 -6 157 0 155 -2 138 148 -2 24 -3 24 -9 17z m-183 -50 c3
-8 0 -30 -6 -50 -11 -32 -15 -36 -43 -33 -30 3 -32 5 -35 51 l-3 47 41 0 c26
0 43 -5 46 -15z m77 -19 c-1 -16 2 -37 7 -47 7 -12 6 -20 -1 -25 -18 -11 -29
18 -22 55 4 22 2 32 -4 28 -6 -4 -14 -22 -17 -42 -4 -19 -11 -37 -16 -40 -13
-8 -13 30 -1 53 5 9 12 25 15 35 10 31 41 16 39 -17z m97 19 c0 -17 -16 -20
-25 -5 -7 12 -25 4 -25 -11 0 -5 9 -9 20 -9 25 0 40 -48 19 -61 -22 -15 -53
-6 -57 16 -3 16 -1 18 9 8 17 -17 39 -16 39 1 0 8 -10 16 -22 18 -17 2 -24 11
-26 31 -3 25 -1 27 32 27 25 0 36 -4 36 -15z"/>
<path d="M2460 2030 c0 -20 5 -30 15 -30 10 0 15 10 15 30 0 20 -5 30 -15 30
-10 0 -15 -10 -15 -30z"/>
<path d="M3606 3361 c-15 -17 -16 -82 -16 -801 0 -713 2 -785 17 -802 15 -17
54 -18 765 -18 492 0 748 3 748 10 0 7 -253 10 -738 10 -703 0 -740 1 -755 18
-16 17 -17 86 -17 784 0 730 1 766 18 782 17 15 80 16 738 16 395 0 727 0 737
0 9 0 17 5 17 10 0 7 -256 10 -748 10 -717 0 -750 -1 -766 -19z"/>
<path d="M3543 3329 c-2 -23 3 -25 10 -4 4 8 3 16 -1 19 -4 3 -9 -4 -9 -15z"/>
<path d="M3412 3290 c0 -14 2 -19 5 -12 2 6 2 18 0 25 -3 6 -5 1 -5 -13z"/>
<path d="M1565 2570 c0 -404 1 -570 2 -368 2 203 2 533 0 736 -1 202 -2 36 -2
-368z"/>
<path d="M445 2971 c-11 -5 -28 -17 -38 -28 -16 -18 -18 -52 -21 -354 -3 -364
-1 -385 52 -409 16 -7 74 -11 152 -10 197 3 179 7 169 -42 -4 -24 -8 -75 -9
-114 0 -59 3 -73 18 -79 23 -10 72 -12 72 -2 0 4 7 7 16 7 9 0 12 -5 8 -12 -6
-10 -5 -10 8 -1 11 9 28 11 61 4 36 -6 49 -5 58 5 12 15 14 92 4 125 -4 12 -2
19 7 19 9 0 10 3 2 8 -6 4 -13 24 -16 45 l-4 37 126 0 c125 0 126 0 153 28
l27 28 0 340 c0 186 -3 348 -6 360 -3 11 -18 28 -34 37 -25 15 -70 17 -407 16
-208 0 -387 -4 -398 -8z m795 -37 c20 -20 21 -33 26 -351 l6 -330 -25 -29 -25
-28 -383 3 c-374 3 -385 3 -406 24 -23 20 -23 21 -23 347 0 314 1 328 20 353
26 33 17 32 442 32 339 0 348 -1 368 -21z m-375 -764 c13 -6 15 -9 5 -9 -8 0
-22 4 -30 9 -18 12 -2 12 25 0z m-63 -70 c-4 -43 -2 -50 13 -50 15 0 17 7 13
50 -4 35 -2 50 6 47 6 -2 12 -27 14 -55 3 -44 6 -52 23 -52 16 0 19 7 19 55 0
44 3 55 16 55 13 0 15 -10 12 -52 -2 -44 0 -53 15 -56 14 -3 17 5 17 52 0 31
5 56 10 56 8 0 15 -95 8 -117 -2 -5 -26 -6 -55 -5 l-53 4 0 -31 c0 -23 4 -29
15 -25 8 4 15 1 15 -5 0 -9 -23 -12 -107 -11 -9 0 -6 167 3 181 13 22 21 5 16
-41z m172 -113 c17 -26 -7 -44 -39 -29 -24 11 -24 12 -8 32 20 22 32 22 47 -3z"/>
<path d="M933 2923 c9 -2 23 -2 30 0 6 3 -1 5 -18 5 -16 0 -22 -2 -12 -5z"/>
<path d="M1000 2920 c8 -5 20 -10 25 -10 6 0 3 5 -5 10 -8 5 -19 10 -25 10 -5
0 -3 -5 5 -10z"/>
<path d="M1090 2924 c36 -8 100 -9 100 -2 0 5 -26 7 -57 7 -32 -1 -51 -3 -43
-5z"/>
<path d="M673 2913 c15 -2 39 -2 55 0 15 2 2 4 -28 4 -30 0 -43 -2 -27 -4z"/>
<path d="M778 2913 c7 -3 16 -2 19 1 4 3 -2 6 -13 5 -11 0 -14 -3 -6 -6z"/>
<path d="M833 2913 c15 -2 39 -2 55 0 15 2 2 4 -28 4 -30 0 -43 -2 -27 -4z"/>
<path d="M1220 2895 c0 -5 5 -17 10 -25 5 -8 10 -10 10 -5 0 6 -5 17 -10 25
-5 8 -10 11 -10 5z"/>
<path d="M1228 2809 c-2 -22 0 -43 4 -45 4 -3 8 15 8 40 0 57 -7 60 -12 5z"/>
<path d="M1232 2670 c0 -14 2 -19 5 -12 2 6 2 18 0 25 -3 6 -5 1 -5 -13z"/>
<path d="M600 2576 l0 -65 53 -3 c45 -3 52 -6 55 -25 3 -23 6 -23 138 -23
l134 0 0 25 c0 24 3 25 61 25 52 0 60 2 55 16 -3 9 -6 38 -6 65 l0 49 -245 0
-245 0 0 -64z m470 6 c0 -43 -12 -52 -77 -52 -28 0 -33 -3 -33 -25 l0 -25
-114 0 c-111 0 -115 1 -118 23 -2 18 -12 24 -55 31 -53 10 -53 10 -53 47 l0
37 225 1 225 2 0 -39z"/>
<path d="M1226 2273 c-6 -14 -5 -15 5 -6 7 7 10 15 7 18 -3 3 -9 -2 -12 -12z"/>
<path d="M800 2005 c0 -18 5 -25 19 -25 13 0 19 7 19 25 0 18 -6 25 -19 25
-14 0 -19 -7 -19 -25z"/>
<path d="M945 1980 c-3 -5 -1 -10 4 -10 6 0 11 5 11 10 0 6 -2 10 -4 10 -3 0
-8 -4 -11 -10z"/>
<path d="M3878 2965 c-15 -9 -32 -24 -38 -35 -11 -20 -14 -727 -4 -717 3 3 16
-6 29 -19 l24 -24 390 0 391 0 32 29 33 29 0 324 c1 303 -6 398 -27 398 -5 0
-7 4 -4 8 3 5 0 10 -7 12 -7 1 -187 4 -402 6 -331 3 -394 1 -417 -11z m808
-39 l24 -27 0 -326 c0 -322 0 -327 -22 -350 l-21 -23 -389 0 -388 0 -16 25
c-14 21 -16 66 -15 349 1 348 2 356 51 376 15 6 164 9 389 7 l364 -3 23 -28z"/>
<path d="M4470 2927 c3 -3 41 -7 84 -10 43 -3 74 -2 68 2 -12 7 -160 15 -152
8z"/>
<path d="M3881 2864 c0 -11 3 -14 6 -6 3 7 2 16 -1 19 -3 4 -6 -2 -5 -13z"/>
<path d="M3883 2750 c0 -47 2 -66 4 -42 2 23 2 61 0 85 -2 23 -4 4 -4 -43z"/>
<path d="M4368 2673 c7 -3 16 -2 19 1 4 3 -2 6 -13 5 -11 0 -14 -3 -6 -6z"/>
<path d="M3884 2505 c0 -88 2 -123 3 -77 2 46 2 118 0 160 -1 42 -3 5 -3 -83z"/>
<path d="M4030 2575 l0 -65 55 0 c54 0 55 0 55 -30 l0 -30 140 0 140 0 0 30
c0 30 1 30 55 30 l55 0 0 65 0 65 -250 0 -250 0 0 -65z m470 1 l0 -46 -50 0
c-47 0 -50 -2 -50 -25 l0 -25 -120 0 -120 0 0 25 c0 18 -6 25 -20 26 -11 1
-24 3 -30 4 -5 1 -19 3 -30 4 -16 1 -20 8 -20 39 l0 38 220 3 220 3 0 -46z"/>
<path d="M3882 2310 c0 -14 2 -19 5 -12 2 6 2 18 0 25 -3 6 -5 1 -5 -13z"/>
<path d="M3964 2228 c-2 -3 65 -6 148 -6 166 1 151 6 -30 10 -63 2 -116 0
-118 -4z"/>
<path d="M4368 2223 c6 -2 18 -2 25 0 6 3 1 5 -13 5 -14 0 -19 -2 -12 -5z"/>
<path d="M3411 2124 c0 -11 3 -14 6 -6 3 7 2 16 -1 19 -3 4 -6 -2 -5 -13z"/>
<path d="M3413 2060 c0 -25 2 -35 4 -22 2 12 2 32 0 45 -2 12 -4 2 -4 -23z"/>
<path d="M1562 1810 c0 -14 2 -19 5 -12 2 6 2 18 0 25 -3 6 -5 1 -5 -13z"/>
<path d="M18 1703 c12 -2 30 -2 40 0 9 3 -1 5 -23 4 -22 0 -30 -2 -17 -4z"/>
<path d="M158 1703 c7 -3 16 -2 19 1 4 3 -2 6 -13 5 -11 0 -14 -3 -6 -6z"/>
<path d="M200 1706 c0 -2 9 -6 20 -9 11 -3 18 -1 14 4 -5 9 -34 13 -34 5z"/>
<path d="M278 1703 c17 -2 47 -2 65 0 17 2 3 4 -33 4 -36 0 -50 -2 -32 -4z"/>
<path d="M488 1703 c46 -2 118 -2 160 0 42 1 5 3 -83 3 -88 0 -123 -2 -77 -3z"/>
<path d="M864 1703 c6 -7 429 -4 435 3 3 3 -95 4 -218 3 -122 -1 -220 -3 -217
-6z"/>
<path d="M1438 1703 c6 -2 18 -2 25 0 6 3 1 5 -13 5 -14 0 -19 -2 -12 -5z"/>
<path d="M1748 1703 c6 -2 18 -2 25 0 6 3 1 5 -13 5 -14 0 -19 -2 -12 -5z"/>
<path d="M1803 1703 c9 -2 25 -2 35 0 9 3 1 5 -18 5 -19 0 -27 -2 -17 -5z"/>
<path d="M1862 1705 c7 -8 1080 -11 1303 -5 105 3 -147 7 -559 8 -412 1 -747
0 -744 -3z"/>
<path d="M3368 1703 c7 -3 16 -2 19 1 4 3 -2 6 -13 5 -11 0 -14 -3 -6 -6z"/>
<path d="M3642 1705 c6 -7 709 -7 716 0 3 3 -158 5 -358 5 -200 0 -361 -2
-358 -5z"/>
<path d="M4468 1702 c-16 -7 437 -5 512 2 19 1 -84 3 -230 4 -146 0 -273 -2
-282 -6z"/>
<path d="M5028 1703 c7 -3 16 -2 19 1 4 3 -2 6 -13 5 -11 0 -14 -3 -6 -6z"/>
<path d="M5078 1703 c7 -3 16 -2 19 1 4 3 -2 6 -13 5 -11 0 -14 -3 -6 -6z"/>
<path d="M1730 760 c0 -605 3 -761 13 -758 9 4 13 164 15 746 1 465 6 742 12
742 5 0 29 -6 52 -14 24 -8 66 -18 93 -22 57 -8 99 -22 75 -25 -8 -1 -19 -1
-23 0 -5 1 -6 -2 -3 -7 3 -5 -5 -18 -18 -29 -21 -18 -25 -33 -31 -119 -9 -127
3 -676 14 -687 5 -5 7 -17 4 -26 -4 -9 -3 -13 1 -9 5 4 21 -6 36 -22 15 -16
31 -26 34 -23 3 3 11 1 18 -4 7 -6 26 -13 43 -17 16 -4 34 -13 38 -19 6 -8 7
-6 3 6 -3 9 -2 17 2 17 19 1 928 1 937 0 6 -1 -1 -6 -14 -11 -13 -5 -21 -12
-18 -16 4 -3 35 8 71 26 69 34 81 37 70 19 -5 -7 -3 -8 5 -4 7 5 10 10 7 13
-3 3 5 19 19 34 13 16 27 49 31 75 6 40 -1 672 -8 733 -3 26 -31 61 -62 78
-15 8 -9 11 35 17 30 4 73 14 95 22 32 12 47 13 63 5 21 -12 21 -14 22 -514 2
-865 4 -967 19 -967 7 0 9 251 8 748 l-3 747 -38 9 c-28 7 -55 5 -105 -8 -59
-15 -141 -17 -679 -21 -571 -4 -618 -3 -685 14 -40 11 -90 22 -110 25 l-38 7
0 -761z m1374 667 c22 -12 49 -35 60 -50 20 -27 21 -41 24 -401 3 -371 3 -373
-19 -400 -13 -16 -41 -37 -63 -47 -38 -17 -76 -19 -542 -19 l-501 0 -43 23
c-81 43 -81 41 -78 454 l3 362 34 35 c66 68 44 66 591 66 494 0 495 0 534 -23z"/>
<path d="M2143 1423 c9 -2 23 -2 30 0 6 3 -1 5 -18 5 -16 0 -22 -2 -12 -5z"/>
<path d="M2378 1423 c18 -2 45 -2 60 0 15 2 0 4 -33 4 -33 0 -45 -2 -27 -4z"/>
<path d="M2478 1423 c6 -2 18 -2 25 0 6 3 1 5 -13 5 -14 0 -19 -2 -12 -5z"/>
<path d="M3090 1390 c0 -5 5 -10 11 -10 5 0 7 5 4 10 -3 6 -8 10 -11 10 -2 0
-4 -4 -4 -10z"/>
<path d="M2430 1370 c0 -6 7 -10 15 -10 8 0 15 2 15 4 0 2 -7 6 -15 10 -8 3
-15 1 -15 -4z"/>
<path d="M2665 1370 c-4 -6 3 -10 14 -10 25 0 27 6 6 13 -8 4 -17 2 -20 -3z"/>
<path d="M2198 1363 c7 -3 16 -2 19 1 4 3 -2 6 -13 5 -11 0 -14 -3 -6 -6z"/>
<path d="M2238 1363 c7 -3 16 -2 19 1 4 3 -2 6 -13 5 -11 0 -14 -3 -6 -6z"/>
<path d="M2278 1363 c6 -2 18 -2 25 0 6 3 1 5 -13 5 -14 0 -19 -2 -12 -5z"/>
<path d="M2348 1363 c6 -2 18 -2 25 0 6 3 1 5 -13 5 -14 0 -19 -2 -12 -5z"/>
<path d="M2508 1363 c17 -2 47 -2 65 0 17 2 3 4 -33 4 -36 0 -50 -2 -32 -4z"/>
<path d="M2728 1363 c12 -2 30 -2 40 0 9 3 -1 5 -23 4 -22 0 -30 -2 -17 -4z"/>
<path d="M2323 1333 c9 -2 25 -2 35 0 9 3 1 5 -18 5 -19 0 -27 -2 -17 -5z"/>
<path d="M2463 1333 c32 -2 81 -2 110 0 29 2 3 3 -58 3 -60 0 -84 -1 -52 -3z"/>
<path d="M2468 1073 c34 -2 88 -2 120 0 31 2 3 3 -63 3 -66 0 -92 -1 -57 -3z"/>
<path d="M2678 1073 c6 -2 18 -2 25 0 6 3 1 5 -13 5 -14 0 -19 -2 -12 -5z"/>
<path d="M2360 943 l0 -98 195 0 195 0 0 98 0 97 -195 0 -195 0 0 -97z m370 2
l0 -75 -175 0 -175 0 0 75 0 75 175 0 175 0 0 -75z"/>
<path d="M2979 721 c-16 -16 -29 -39 -29 -51 0 -39 30 -81 72 -100 121 -54
196 104 78 165 -46 24 -88 19 -121 -14z m132 -20 c33 -34 37 -60 12 -90 -30
-35 -73 -37 -110 -4 -42 38 -48 63 -22 96 29 38 80 37 120 -2z"/>
<path d="M348 1493 c17 -2 47 -2 65 0 17 2 3 4 -33 4 -36 0 -50 -2 -32 -4z"/>
<path d="M877 1493 c18 -2 50 -2 70 0 21 2 7 4 -32 4 -38 0 -55 -2 -38 -4z"/>
<path d="M1038 1493 c12 -2 30 -2 40 0 9 3 -1 5 -23 4 -22 0 -30 -2 -17 -4z"/>
<path d="M1268 1493 c12 -2 32 -2 45 0 12 2 2 4 -23 4 -25 0 -35 -2 -22 -4z"/>
<path d="M231 1434 c-21 -26 -21 -35 -21 -576 0 -580 1 -595 45 -612 9 -3 288
-6 620 -6 l604 0 20 26 c21 26 21 35 21 589 l0 562 -23 21 -23 22 -611 0 -612
0 -20 -26z m1249 -21 c20 -26 20 -31 18 -569 -3 -517 -4 -543 -22 -563 -19
-21 -22 -21 -609 -21 l-590 0 -23 27 -24 28 0 536 c0 527 0 537 21 563 l20 26
594 0 594 0 21 -27z"/>
<path d="M570 1301 c-8 -5 -17 -8 -21 -5 -4 2 -10 -3 -13 -12 -3 -8 -11 -12
-17 -8 -8 4 -9 3 -5 -4 4 -7 3 -12 -1 -12 -5 0 -23 -20 -41 -45 l-31 -44 2
-188 c2 -183 3 -189 29 -238 14 -27 49 -74 76 -102 45 -48 48 -53 26 -53 -12
0 -27 7 -32 16 -5 8 -27 18 -49 21 -48 6 -89 -14 -118 -57 -11 -16 -22 -27
-26 -25 -9 6 8 -82 22 -108 21 -39 43 -62 64 -65 52 -7 97 -2 117 14 l23 16
-25 -6 c-14 -4 -41 -9 -60 -12 -27 -3 -24 -1 13 9 54 16 83 38 91 72 l6 24 28
-27 c15 -15 27 -30 25 -34 -4 -9 8 -16 40 -22 22 -4 28 0 31 17 5 26 3 68 -2
62 -5 -4 -42 39 -42 48 0 2 24 -4 54 -13 214 -71 447 14 537 195 23 47 24 61
27 249 4 243 4 241 -96 327 -13 11 -80 15 -317 17 -175 1 -306 -2 -315 -7z
m598 -25 c31 -16 84 -71 101 -103 7 -13 11 -86 11 -192 0 -150 -3 -177 -22
-228 -28 -76 -105 -153 -195 -196 -64 -30 -75 -32 -178 -32 -103 0 -114 2
-178 32 -85 40 -173 127 -213 210 -28 56 -29 63 -29 208 0 83 3 162 8 177 9
34 61 95 102 120 27 16 56 18 298 18 212 0 274 -3 295 -14z m-639 -692 c19
-16 37 -23 49 -20 14 5 34 -9 75 -53 56 -58 64 -71 51 -84 -9 -8 -78 65 -76
80 3 15 -35 36 -49 27 -6 -3 -8 -13 -5 -21 8 -21 -19 -80 -42 -92 -23 -12 -81
-15 -107 -5 -18 7 -55 74 -55 101 0 28 29 63 64 79 45 19 61 17 95 -12z"/>
<path d="M493 1085 c0 -22 2 -30 4 -17 2 12 2 30 0 40 -3 9 -5 -1 -4 -23z"/>
<path d="M805 1056 c-17 -7 -43 -28 -58 -45 -24 -29 -27 -41 -27 -106 0 -93 7
-98 140 -99 135 -1 140 3 140 113 0 98 -5 107 -73 136 -44 18 -82 19 -122 1z
m108 -20 c57 -23 67 -40 67 -115 0 -45 -5 -72 -13 -80 -16 -13 -124 -17 -184
-7 l-43 8 3 67 c3 67 25 111 54 111 7 0 13 4 13 9 0 9 21 16 58 20 7 0 27 -5
45 -13z"/>
<path d="M1208 579 c-10 -5 -18 -7 -18 -4 0 18 -49 -47 -54 -73 -8 -32 2 -104
13 -98 3 2 17 -11 31 -30 25 -34 40 -43 40 -24 0 6 16 10 36 10 28 0 44 8 70
34 40 40 44 76 15 137 -15 30 -16 37 -5 28 23 -19 44 -64 44 -94 0 -58 -39
-97 -117 -120 -13 -3 -23 -10 -23 -15 0 -6 10 -6 25 0 14 5 25 7 25 4 0 -4 7
-1 15 6 8 7 15 9 15 6 0 -22 60 40 75 76 16 41 16 44 -5 89 -15 32 -33 51 -56
63 -39 18 -100 21 -126 5z m103 -48 c85 -86 -35 -208 -123 -124 -21 20 -28 36
-28 65 0 83 91 118 151 59z"/>
<path d="M332 460 c7 -10 14 -18 15 -16 6 6 -9 36 -18 36 -5 0 -4 -9 3 -20z"/>
<path d="M3633 1376 l-28 -24 -2 -519 c-2 -533 0 -563 38 -583 11 -6 251 -10
613 -10 l594 0 31 26 31 26 0 532 0 533 -23 21 -23 22 -602 0 -601 0 -28 -24z
m1237 -18 c20 -17 20 -27 20 -520 0 -277 -3 -513 -6 -526 -14 -52 -18 -52
-637 -52 -499 0 -576 2 -595 16 l-22 15 0 523 c0 491 1 524 18 539 22 20 103
22 759 22 406 0 444 -1 463 -17z"/>
<path d="M3905 1233 c-28 -7 -75 -64 -75 -90 0 -13 -6 -23 -12 -23 -8 0 -9 -3
-3 -8 6 -4 10 -111 10 -283 0 -215 3 -282 14 -302 l13 -25 395 -2 c359 -1 397
1 414 16 18 16 19 37 19 333 l0 316 -23 27 c-13 15 -36 32 -51 38 -27 10 -661
13 -701 3z m721 -56 l34 -37 0 -292 c0 -161 -4 -299 -8 -306 -7 -9 -94 -12
-403 -10 l-394 3 -3 304 -2 305 27 29 c16 16 37 33 48 38 11 5 166 8 344 6
l323 -3 34 -37z"/>
<path d="M3905 1160 c-3 -5 -1 -10 4 -10 6 0 11 5 11 10 0 6 -2 10 -4 10 -3 0
-8 -4 -11 -10z"/>
<path d="M4120 879 l0 -99 145 0 145 0 0 94 0 93 -68 7 c-38 4 -103 6 -145 5
l-77 -2 0 -98z m270 -4 l0 -75 -125 0 -125 0 0 75 0 75 125 0 125 0 0 -75z"/>
<path d="M1552 1355 c0 -16 2 -22 5 -12 2 9 2 23 0 30 -3 6 -5 -1 -5 -18z"/>
<path d="M1552 1300 c0 -14 2 -19 5 -12 2 6 2 18 0 25 -3 6 -5 1 -5 -13z"/>
<path d="M3561 874 c0 -11 3 -14 6 -6 3 7 2 16 -1 19 -3 4 -6 -2 -5 -13z"/>
<path d="M2208 463 c7 -3 16 -2 19 1 4 3 -2 6 -13 5 -11 0 -14 -3 -6 -6z"/>
<path d="M2258 463 c7 -3 16 -2 19 1 4 3 -2 6 -13 5 -11 0 -14 -3 -6 -6z"/>
<path d="M2933 453 c9 -2 23 -2 30 0 6 3 -1 5 -18 5 -16 0 -22 -2 -12 -5z"/>
<path d="M2513 327 c-3 -5 -16 -7 -29 -4 -15 2 -30 -3 -40 -14 -10 -11 -13
-19 -7 -19 5 0 9 -20 8 -45 -1 -25 1 -43 3 -40 3 3 11 0 19 -7 15 -12 183 -18
183 -5 0 4 6 7 14 7 8 0 18 10 22 23 12 35 11 94 0 94 -6 0 -24 4 -41 8 -45
12 -125 13 -132 2z m101 -26 c3 -4 17 -6 31 -3 25 4 26 3 23 -39 -3 -41 -5
-44 -35 -47 -31 -3 -32 -2 -35 40 -2 36 -7 44 -25 46 -13 2 -23 -1 -23 -7 0
-6 7 -11 15 -11 8 0 15 -4 15 -10 0 -5 -7 -10 -15 -10 -9 0 -15 -9 -15 -25 0
-34 -17 -32 -21 3 -8 59 -1 72 41 72 21 0 41 -4 44 -9z m-112 -42 c2 -22 0
-43 -4 -45 -17 -11 -28 9 -28 47 0 55 27 54 32 -2z"/>
<path d="M2620 250 c0 -21 4 -28 14 -24 15 6 28 39 18 48 -15 16 -32 3 -32
-24z"/>
<path d="M2333 303 c9 -2 23 -2 30 0 6 3 -1 5 -18 5 -16 0 -22 -2 -12 -5z"/>
<path d="M3718 213 c7 -3 16 -2 19 1 4 3 -2 6 -13 5 -11 0 -14 -3 -6 -6z"/>
<path d="M3843 213 c53 -2 141 -2 195 0 53 1 9 3 -98 3 -107 0 -151 -2 -97 -3z"/>
<path d="M4553 213 c9 -2 23 -2 30 0 6 3 -1 5 -18 5 -16 0 -22 -2 -12 -5z"/>
<path d="M2988 163 c7 -3 16 -2 19 1 4 3 -2 6 -13 5 -11 0 -14 -3 -6 -6z"/>
</g>
</svg>
