<?xml version="1.0" standalone="no"?>
<!DOCTYPE svg PUBLIC "-//W3C//DTD SVG 20010904//EN"
 "http://www.w3.org/TR/2001/REC-SVG-20010904/DTD/svg10.dtd">
<svg version="1.0" xmlns="http://www.w3.org/2000/svg"
 width="512.000000pt" height="768.000000pt" viewBox="0 0 512.000000 768.000000"
 preserveAspectRatio="xMidYMid meet">
<metadata>
Created by potrace 1.16, written by Peter Selinger 2001-2019
</metadata>
<g transform="translate(0.000000,768.000000) scale(0.100000,-0.100000)"
fill="#000000" stroke="none">
<path d="M2230 6982 c-30 -15 -109 -49 -175 -76 -66 -27 -125 -54 -132 -60 -9
-8 -13 -288 -14 -1209 l-1 -1198 22 -19 c29 -25 31 -25 21 3 -9 23 -6 341 4
356 3 5 -1 11 -7 14 -9 3 -7 11 7 27 11 13 14 20 8 16 -10 -5 -13 3 -13 29 0
22 4 34 10 30 6 -3 10 -1 10 4 0 6 -5 11 -11 11 -7 0 -9 10 -4 28 14 54 14 63
3 56 -8 -5 -9 -1 -4 12 5 10 10 37 12 59 3 36 2 37 -5 10 -8 -27 -9 -25 -10
20 0 36 2 46 9 35 7 -11 9 -4 9 25 -1 35 -2 37 -9 15 -7 -23 -8 -23 -9 -3 -1
12 3 24 9 28 5 3 6 15 1 28 -5 12 -5 31 -1 42 4 11 8 106 10 210 1 105 3 233
4 285 0 52 5 101 10 109 6 9 5 12 0 8 -6 -3 -11 27 -12 74 -2 59 0 79 10 79
10 0 10 2 0 8 -9 7 -12 86 -10 364 2 196 0 354 -4 352 -4 -3 -6 8 -5 23 2 22
13 33 55 55 29 15 55 27 57 28 3 0 28 11 56 25 29 13 56 22 60 19 5 -3 9 -2 9
3 0 11 52 34 59 27 3 -3 7 -168 8 -367 0 -199 2 -412 3 -474 1 -61 -1 -116 -5
-123 -4 -7 -2 -15 4 -19 11 -7 9 -222 -3 -291 -2 -14 -7 -78 -11 -142 -4 -65
-10 -116 -13 -114 -4 2 -7 -21 -7 -52 -1 -81 -21 -314 -40 -462 -2 -14 -6 -62
-10 -108 -6 -69 -11 -87 -31 -107 -13 -13 -24 -35 -24 -49 0 -14 -4 -27 -10
-31 -5 -3 -7 -11 -4 -18 2 -7 -2 -31 -10 -54 -8 -23 -13 -43 -10 -45 2 -3 -12
-67 -32 -144 -20 -76 -38 -149 -41 -161 -3 -13 -9 -20 -14 -17 -5 3 -9 -3 -9
-12 0 -14 -3 -13 -20 6 -11 13 -20 20 -20 16 0 -14 -134 64 -152 89 -4 6 -8 6
-8 2 0 -4 -15 7 -34 25 -18 18 -49 46 -69 63 -19 16 -33 34 -30 40 4 5 3 7 -2
3 -9 -8 -82 68 -91 95 -3 9 -9 15 -13 12 -5 -2 -17 11 -27 30 -10 19 -22 35
-26 35 -5 0 -8 6 -8 14 0 8 -6 21 -13 28 -104 110 -205 458 -195 673 l3 70 58
1 c31 1 57 -1 57 -5 2 -124 14 -273 27 -321 3 -14 8 -34 10 -45 6 -35 46 -145
53 -145 4 0 13 -18 20 -40 7 -22 19 -40 27 -40 8 0 11 -5 7 -11 -3 -6 -2 -14
4 -18 6 -3 12 -13 14 -20 2 -8 10 -22 18 -32 32 -38 40 -49 40 -54 0 -3 39
-46 88 -96 48 -49 86 -92 83 -96 -4 -3 -1 -3 6 1 7 4 21 -2 33 -14 20 -20 60
-28 60 -12 0 5 -24 28 -52 52 -173 145 -262 277 -336 495 -40 116 -43 137 -51
308 l-6 142 -105 0 -105 0 -3 -89 c-3 -95 22 -304 38 -320 5 -5 10 -22 10 -37
0 -15 5 -31 10 -34 6 -3 10 -17 10 -30 0 -13 5 -27 10 -30 6 -3 10 -17 10 -30
0 -13 5 -27 10 -30 6 -3 10 -15 10 -26 0 -24 89 -199 101 -199 5 0 9 -7 9 -15
0 -9 7 -18 15 -21 8 -4 15 -11 15 -18 0 -7 16 -29 35 -49 19 -20 32 -37 28
-37 -4 0 38 -44 92 -97 87 -85 137 -123 290 -219 17 -10 36 -17 43 -16 17 4
15 -13 -8 -57 -10 -21 -16 -41 -13 -45 4 -3 0 -6 -7 -6 -7 0 -11 -2 -8 -6 3
-3 -3 -27 -13 -55 -11 -27 -19 -63 -19 -80 0 -64 96 -593 212 -1164 16 -82 32
-163 35 -180 3 -16 9 -37 13 -45 15 -28 39 -164 45 -255 3 -49 11 -130 17
-180 6 -49 12 -169 13 -265 5 -338 16 -664 21 -669 4 -3 4 185 1 419 -7 524
-24 747 -72 945 -19 77 -50 226 -70 330 -20 105 -54 280 -76 390 -42 211 -94
510 -109 629 -8 67 -7 75 21 139 85 192 124 320 175 570 13 66 24 121 24 123
0 2 9 11 19 21 16 15 23 50 40 203 11 102 23 214 26 250 3 36 12 139 20 230 8
91 21 255 30 365 9 109 19 204 24 210 4 5 7 51 7 100 -1 50 -2 294 -4 543 -2
514 7 472 -92 424z"/>
<path d="M2879 6833 c-2 -17 2 -600 7 -905 3 -190 1 -328 -4 -328 -5 0 -12 42
-16 93 -3 50 -10 106 -15 122 -13 43 -13 22 4 -180 8 -99 24 -304 35 -455 38
-511 38 -514 56 -527 12 -9 24 -52 40 -143 13 -73 37 -182 53 -243 26 -99 48
-157 136 -365 l22 -52 -29 -168 c-16 -92 -56 -309 -89 -482 -33 -173 -76 -398
-94 -500 -19 -102 -41 -204 -49 -227 -51 -144 -83 -500 -90 -1012 -5 -350 -3
-448 9 -355 4 37 19 647 16 698 -1 22 5 103 13 180 18 166 29 284 30 309 0 9
3 17 7 17 3 0 118 1 255 3 214 2 249 4 249 17 0 13 -36 15 -252 18 -139 1
-253 6 -253 10 0 4 4 12 9 17 13 15 58 196 81 330 35 198 37 212 79 415 40
196 100 528 121 672 8 56 8 83 0 98 -6 11 -8 20 -4 20 3 0 2 6 -4 13 -5 6 -15
32 -22 56 -6 24 -20 53 -31 64 -34 37 -23 59 49 96 162 83 415 313 483 440 9
18 24 40 33 50 9 10 16 20 16 24 0 3 13 29 29 56 66 111 119 333 122 511 l2
95 -109 0 -109 0 -6 -160 c-6 -136 -10 -170 -31 -225 -56 -149 -97 -217 -210
-349 -26 -31 -48 -61 -48 -68 0 -7 -8 -17 -17 -22 -16 -9 -15 -10 5 -11 12 0
25 7 29 16 3 8 12 13 20 10 8 -3 12 -2 9 2 -2 4 27 43 65 86 38 44 69 85 69
92 0 7 8 19 18 26 24 18 76 129 105 223 23 73 29 118 36 235 l6 105 58 3 59 3
-5 -118 c-5 -115 -8 -138 -22 -202 -3 -17 -7 -33 -7 -36 0 -11 -48 -137 -62
-163 -8 -15 -23 -43 -32 -62 -19 -41 -81 -137 -106 -164 -10 -11 -20 -27 -23
-35 -9 -28 -222 -225 -260 -241 -7 -3 -25 -15 -41 -28 -47 -37 -133 -91 -150
-94 -26 -5 -67 139 -119 416 -9 48 -25 105 -36 125 -15 29 -20 65 -24 151 -2
62 -6 115 -10 118 -12 12 -4 24 13 18 16 -6 16 -5 -1 8 -15 12 -18 32 -20 140
-1 76 -6 126 -12 126 -7 0 -7 3 0 8 12 8 15 53 3 46 -10 -7 -10 -1 2 31 7 17
7 24 0 20 -6 -3 -10 5 -10 19 0 13 6 27 13 29 9 4 8 6 -2 6 -11 1 -11 4 0 18
10 11 10 14 2 9 -16 -9 -16 -1 -3 25 6 10 7 19 3 19 -4 0 -8 18 -8 40 0 22 3
40 6 40 3 0 5 250 5 555 -2 461 0 555 12 555 7 0 10 5 7 10 -4 6 -10 8 -15 5
-4 -3 -8 17 -7 44 0 55 9 57 60 14 16 -13 33 -23 38 -23 5 0 8 -6 7 -12 -2 -7
4 -13 12 -13 8 0 21 -8 28 -18 7 -9 17 -15 22 -12 5 3 15 -4 24 -16 15 -21 90
-61 99 -53 2 3 14 -15 25 -40 21 -44 21 -53 19 -680 -2 -564 -1 -636 13 -637
13 0 13 -1 -1 -7 -20 -9 -20 -63 0 -79 28 -22 34 -14 29 42 -3 30 -1 52 3 49
4 -2 9 0 11 6 2 8 1 -326 -1 -438 -1 -15 -5 -21 -13 -16 -6 4 -8 3 -4 -4 3 -5
0 -13 -6 -16 -7 -3 -4 -4 6 -3 16 2 19 -5 21 -56 1 -40 -3 -60 -12 -66 -12 -6
-12 -9 0 -20 11 -8 13 -21 7 -46 -5 -24 -4 -33 3 -28 6 4 8 0 4 -10 -4 -11 -2
-14 8 -11 7 3 16 13 20 22 10 27 3 1991 -8 1997 -1 1 -23 17 -48 36 -50 36
-68 49 -110 77 -15 9 -53 35 -84 57 -32 22 -67 45 -78 52 -11 6 -22 15 -26 20
-3 5 -23 19 -44 31 -39 22 -66 28 -68 15z m398 -289 c-3 -3 -12 -4 -19 -1 -8
3 -5 6 6 6 11 1 17 -2 13 -5z m30 -526 c-3 -8 -6 -5 -6 6 -1 11 2 17 5 13 3
-3 4 -12 1 -19z m20 -254 c-3 -3 -12 -4 -19 -1 -8 3 -5 6 6 6 11 1 17 -2 13
-5z m3 -54 c0 -5 -5 -10 -11 -10 -5 0 -7 5 -4 10 3 6 8 10 11 10 2 0 4 -4 4
-10z m-2 -85 c-1 -30 -6 -55 -11 -55 -5 0 -6 24 -4 53 6 60 5 57 12 57 3 0 4
-25 3 -55z m-11 -147 c-2 -18 -4 -6 -4 27 0 33 2 48 4 33 2 -15 2 -42 0 -60z
m0 -60 c-3 -8 -6 -5 -6 6 -1 11 2 17 5 13 3 -3 4 -12 1 -19z m-7 -55 c-11 -17
-11 -17 -6 0 3 10 6 24 7 30 0 9 2 9 5 0 3 -7 0 -20 -6 -30z m8 -64 c-3 -8 -7
-3 -11 10 -4 17 -3 21 5 13 5 -5 8 -16 6 -23z m-21 -21 c-3 -8 -6 -5 -6 6 -1
11 2 17 5 13 3 -3 4 -12 1 -19z m-10 -113 c0 -8 -4 -12 -9 -9 -4 3 -8 9 -8 15
0 5 4 9 8 9 5 0 9 -7 9 -15z"/>
<path d="M3412 6442 c2 -11 46 -65 98 -119 52 -54 119 -125 147 -157 l53 -58
77 6 c43 3 360 5 706 6 512 0 627 2 627 13 0 8 -13 14 -32 16 -18 1 -332 2
-698 1 l-665 -1 -145 153 c-145 153 -175 178 -168 140z"/>
<path d="M2573 6020 c-102 -3 -186 -9 -191 -15 -15 -17 -52 -125 -43 -125 10
0 41 73 41 95 0 13 29 15 190 15 105 0 193 1 197 3 7 2 41 -90 41 -113 0 -8
-10 14 -23 50 -13 36 -24 58 -24 49 -1 -15 11 -52 39 -124 10 -26 13 -28 21
-13 6 12 3 39 -10 87 -24 86 -27 92 -48 84 -11 -4 -14 -3 -9 5 4 7 6 11 4 10
-2 -1 -85 -5 -185 -8z"/>
<path d="M2326 5810 c-3 -36 -17 -200 -31 -365 -54 -651 -68 -774 -88 -807 -8
-13 -20 -59 -27 -103 -6 -44 -20 -123 -30 -175 -19 -94 -20 -94 -16 -30 5 76
-7 48 -25 -60 -20 -118 -19 -152 1 -75 10 39 19 61 19 50 1 -23 -15 -90 -29
-120 -8 -18 -50 -228 -50 -250 0 -5 4 -5 9 1 14 14 37 109 93 388 27 138 54
269 59 291 24 105 39 215 54 385 8 102 22 264 30 360 36 414 46 552 42 563 -2
7 -7 -17 -11 -53z"/>
<path d="M2814 5725 c4 -49 13 -166 21 -260 8 -93 19 -258 25 -365 6 -107 15
-251 21 -320 12 -153 109 -693 145 -810 38 -122 61 -140 30 -22 -8 29 -17 87
-21 130 -10 121 -12 136 -24 177 -6 22 -22 93 -37 158 -14 65 -28 117 -30 115
-2 -2 10 -80 26 -173 29 -168 34 -202 26 -194 -4 4 -66 357 -66 378 0 7 5 9
10 6 15 -9 11 35 -5 70 l-14 30 4 -40 c4 -34 2 -32 -10 15 -8 30 -20 129 -25
220 -10 157 -38 554 -60 834 -5 71 -13 132 -16 135 -4 3 -3 -34 0 -84z m193
-1607 c-3 -7 -5 -2 -5 12 0 14 2 19 5 13 2 -7 2 -19 0 -25z"/>
<path d="M3493 5382 c-83 -2 -103 -6 -103 -17 0 -15 13 -17 75 -17 17 0 280 1
585 2 412 1 558 4 569 13 12 10 13 9 7 -1 -6 -10 -2 -13 15 -10 13 2 27 8 31
13 5 6 8 5 8 -2 0 -9 7 -10 23 -4 12 4 27 6 34 4 6 -2 14 1 18 6 4 7 -11 12
-42 13 -89 3 -1117 3 -1220 0z"/>
<path d="M4775 5370 c3 -5 10 -10 16 -10 5 0 9 5 9 10 0 6 -7 10 -16 10 -8 0
-12 -4 -9 -10z"/>
<path d="M2566 5351 c-11 -18 -21 -264 -21 -537 l0 -281 -40 -11 c-22 -6 -49
-18 -60 -26 -15 -11 -4 -10 40 5 32 11 72 19 87 17 22 -4 25 -2 17 9 -8 9 -12
140 -12 423 0 226 -2 410 -3 410 -2 0 -5 -4 -8 -9z"/>
<path d="M3250 5133 c0 -4 5 -15 10 -23 8 -13 10 -13 10 2 0 9 -4 20 -10 23
-5 3 -10 3 -10 -2z"/>
<path d="M3285 5110 c3 -5 8 -10 11 -10 2 0 4 5 4 10 0 6 -5 10 -11 10 -5 0
-7 -4 -4 -10z"/>
<path d="M3255 5080 c-3 -5 -1 -10 4 -10 6 0 11 5 11 10 0 6 -2 10 -4 10 -3 0
-8 -4 -11 -10z"/>
<path d="M3285 5069 c6 -33 15 -36 15 -6 0 15 -4 27 -9 27 -6 0 -8 -10 -6 -21z"/>
<path d="M3259 5048 c10 -13 10 -18 2 -18 -7 0 -9 -5 -6 -10 4 -6 11 -8 16 -5
8 5 11 -6 8 -32 0 -5 -7 -7 -15 -5 -8 2 -14 -1 -14 -5 0 -5 10 -9 23 -11 34
-2 34 42 0 76 -15 15 -21 19 -14 10z"/>
<path d="M3280 4901 c0 -5 5 -13 10 -16 6 -3 10 -2 10 4 0 5 -4 13 -10 16 -5
3 -10 2 -10 -4z"/>
<path d="M3550 4880 c-9 -6 -10 -10 -3 -10 6 0 15 5 18 10 8 12 4 12 -15 0z"/>
<path d="M3285 4850 c-3 -5 -1 -18 4 -27 9 -16 10 -14 11 10 0 28 -5 34 -15
17z"/>
<path d="M3530 4845 c-11 -13 -10 -14 4 -9 9 3 16 10 16 15 0 13 -6 11 -20 -6z"/>
<path d="M3510 4809 c0 -5 5 -7 10 -4 6 3 10 8 10 11 0 2 -4 4 -10 4 -5 0 -10
-5 -10 -11z"/>
<path d="M3292 4590 c0 -14 2 -19 5 -12 2 6 2 18 0 25 -3 6 -5 1 -5 -13z"/>
<path d="M1846 4573 c-6 -14 -5 -15 5 -6 7 7 10 15 7 18 -3 3 -9 -2 -12 -12z"/>
<path d="M3290 4506 c0 -2 7 -7 16 -10 8 -3 12 -2 9 4 -6 10 -25 14 -25 6z"/>
<path d="M2152 4480 c0 -14 2 -19 5 -12 2 6 2 18 0 25 -3 6 -5 1 -5 -13z"/>
<path d="M2489 4457 c-36 -24 -52 -69 -40 -115 l7 -27 110 0 109 0 3 56 c3 65
-8 83 -66 99 -56 15 -86 12 -123 -13z m169 -22 c3 -3 6 -27 6 -53 1 -35 -3
-47 -14 -47 -10 0 -16 12 -18 40 -2 31 -8 43 -26 51 -58 27 -126 -7 -126 -62
0 -13 -4 -24 -10 -24 -5 0 -10 11 -10 25 0 72 68 113 148 89 24 -7 47 -15 50
-19z m-106 -50 c-3 -18 -2 -18 18 3 24 25 46 25 44 -1 -3 -37 -6 -41 -14 -22
-8 19 -9 19 -9 -3 -1 -19 -5 -22 -21 -17 -11 4 -20 2 -20 -4 0 -6 -9 -11 -20
-11 -16 0 -20 7 -20 33 0 38 7 49 30 44 9 -1 14 -11 12 -22z"/>
<path d="M2642 4395 c0 -16 2 -22 5 -12 2 9 2 23 0 30 -3 6 -5 -1 -5 -18z"/>
<path d="M2142 4420 c0 -14 2 -19 5 -12 2 6 2 18 0 25 -3 6 -5 1 -5 -13z"/>
<path d="M2402 4252 c-13 -37 -40 -110 -59 -162 -37 -99 -41 -113 -42 -143 -1
-11 -6 -15 -13 -11 -6 4 -8 3 -4 -4 3 -6 1 -14 -5 -18 -8 -4 -7 -9 2 -15 11
-7 10 -9 -3 -9 -10 0 -18 -4 -18 -8 0 -5 6 -9 14 -9 9 0 24 29 39 71 23 66 71
195 114 308 12 32 14 51 8 57 -7 7 -18 -12 -33 -57z"/>
<path d="M2680 4301 c0 -10 45 -131 65 -176 8 -16 21 -52 30 -79 24 -73 84
-209 85 -190 0 6 -6 24 -13 40 -8 16 -45 116 -83 222 -37 105 -72 192 -76 192
-4 0 -8 -4 -8 -9z"/>
<path d="M2292 4070 c0 -14 2 -19 5 -12 2 6 2 18 0 25 -3 6 -5 1 -5 -13z"/>
<path d="M2031 4014 c0 -11 3 -14 6 -6 3 7 2 16 -1 19 -3 4 -6 -2 -5 -13z"/>
<path d="M2266 3995 c-9 -26 -7 -32 5 -12 6 10 9 21 6 23 -2 3 -7 -2 -11 -11z"/>
<path d="M2240 3935 c0 -8 2 -15 4 -15 2 0 6 7 10 15 3 8 1 15 -4 15 -6 0 -10
-7 -10 -15z"/>
<path d="M2227 3891 c-4 -17 -3 -21 5 -13 5 5 8 16 6 23 -3 8 -7 3 -11 -10z"/>
<path d="M2596 3895 c10 -8 23 -15 28 -15 6 0 1 7 -10 15 -10 8 -23 15 -28 15
-6 0 -1 -7 10 -15z"/>
<path d="M3346 3895 c-5 -13 98 -15 884 -15 784 0 890 2 890 15 0 13 -105 15
-884 15 -776 0 -885 -2 -890 -15z"/>
<path d="M1891 3864 c0 -11 3 -14 6 -6 3 7 2 16 -1 19 -3 4 -6 -2 -5 -13z"/>
<path d="M2119 3644 c25 -124 47 -221 49 -216 2 6 -2 37 -8 69 -6 32 -17 96
-25 143 -23 134 -46 230 -54 230 -4 0 13 -102 38 -226z"/>
<path d="M3027 3823 c-9 -26 -25 -93 -36 -148 -18 -87 -27 -135 -47 -255 -3
-14 -9 -49 -14 -79 -11 -59 -13 -87 -5 -80 2 3 18 86 35 184 32 186 47 258 74
359 20 71 14 86 -7 19z"/>
<path d="M2256 3845 c-19 -19 -19 -24 -6 -45 8 -12 10 -11 10 6 0 11 5 25 12
32 6 6 9 14 6 17 -3 3 -13 -1 -22 -10z"/>
<path d="M2482 3843 c-41 -20 -69 -54 -83 -104 -27 -89 58 -189 160 -189 89 0
155 71 153 162 -2 113 -125 183 -230 131z m159 -34 c36 -25 53 -70 46 -122 -4
-33 -14 -50 -48 -79 -49 -45 -91 -49 -150 -16 -96 54 -89 181 14 229 48 22 96
18 138 -12z"/>
<path d="M2495 3773 c-51 -55 -16 -154 53 -153 24 1 67 39 85 76 14 27 14 34
1 60 -20 37 -31 44 -76 44 -28 0 -44 -7 -63 -27z m101 -19 c22 -33 10 -72 -28
-93 -24 -14 -28 -14 -47 3 -25 23 -27 58 -5 91 22 33 59 33 80 -1z"/>
<path d="M2530 3751 c0 -5 5 -11 11 -13 6 -2 12 -16 12 -31 1 -15 7 -27 14
-27 16 0 -5 67 -24 74 -7 3 -13 1 -13 -3z"/>
<path d="M3057 3737 c-15 -67 -27 -131 -27 -141 0 -25 13 -12 17 17 2 12 8 46
14 74 6 29 9 54 8 55 -1 2 4 14 11 28 15 27 19 65 10 80 -4 6 -18 -45 -33
-113z"/>
<path d="M2040 3819 c5 -17 10 -52 11 -78 1 -25 6 -52 12 -58 5 -7 7 -19 4
-27 -3 -7 -1 -18 5 -24 6 -6 6 -12 -1 -16 -6 -4 -11 -12 -11 -17 0 -6 4 -8 8
-5 5 3 10 -20 11 -51 1 -30 6 -64 12 -74 5 -11 7 -24 4 -29 -3 -6 -2 -10 3
-10 6 0 13 -23 17 -51 5 -38 4 -54 -6 -61 -11 -8 -10 -9 3 -5 11 4 17 0 17
-11 1 -66 14 -173 23 -187 3 -5 9 -27 12 -49 4 -21 8 -41 10 -45 4 -6 9 -35
31 -180 14 -88 25 -128 25 -85 0 17 -14 108 -24 159 -2 12 -7 46 -11 78 -4 31
-12 57 -17 57 -5 0 -6 5 -3 10 4 6 2 34 -4 63 -6 28 -13 70 -16 92 -5 38 -36
211 -55 305 -5 25 -12 70 -15 100 -4 30 -8 62 -10 70 -2 8 -6 35 -9 60 -11 76
-17 100 -26 100 -5 0 -5 -14 0 -31z"/>
<path d="M2865 3805 c3 -22 10 -44 16 -50 6 -6 7 2 3 25 -10 52 -26 73 -19 25z"/>
<path d="M3135 3830 c3 -5 8 -10 11 -10 2 0 4 5 4 10 0 6 -5 10 -11 10 -5 0
-7 -4 -4 -10z"/>
<path d="M2226 3783 c-6 -14 -5 -15 5 -6 7 7 10 15 7 18 -3 3 -9 -2 -12 -12z"/>
<path d="M2744 3789 c-3 -6 -2 -15 3 -20 5 -5 9 -1 9 11 0 23 -2 24 -12 9z"/>
<path d="M2887 3713 c-8 -10 -34 -56 -56 -103 -34 -70 -43 -103 -52 -180 -15
-138 -13 -134 -101 -226 -44 -46 -75 -84 -67 -84 7 0 50 39 95 86 l81 85 6 97
c6 107 27 180 82 279 36 66 39 75 12 46z"/>
<path d="M2256 3631 c42 -97 64 -193 64 -287 0 -56 4 -77 20 -96 29 -38 160
-151 166 -145 3 3 -33 43 -80 89 l-86 83 0 55 c0 114 -63 335 -105 370 -7 6 2
-25 21 -69z"/>
<path d="M2760 3654 c0 -8 5 -12 10 -9 6 4 8 11 5 16 -9 14 -15 11 -15 -7z"/>
<path d="M2346 3633 c-6 -14 -5 -15 5 -6 7 7 10 15 7 18 -3 3 -9 -2 -12 -12z"/>
<path d="M2746 3615 c-3 -9 -11 -13 -17 -9 -8 5 -9 3 -4 -5 6 -10 11 -9 23 3
9 8 13 18 10 21 -3 3 -8 -1 -12 -10z"/>
<path d="M3011 3493 c-7 -43 -17 -98 -22 -123 -12 -57 -39 -239 -39 -262 0
-10 4 -18 9 -18 9 0 11 13 14 92 1 27 5 48 10 48 4 0 7 17 7 38 0 20 4 53 9
72 11 41 20 94 28 167 3 33 9 50 16 46 6 -3 7 -1 3 5 -15 25 -24 9 -35 -65z"/>
<path d="M2600 3500 c0 -5 5 -10 11 -10 5 0 7 5 4 10 -3 6 -8 10 -11 10 -2 0
-4 -4 -4 -10z"/>
<path d="M2552 3325 c0 -96 4 -175 7 -175 4 0 8 79 10 175 1 114 -1 175 -8
175 -7 0 -10 -62 -9 -175z"/>
<path d="M2170 3386 c0 -29 32 -197 37 -192 2 2 -3 48 -12 102 -17 96 -25 126
-25 90z"/>
<path d="M2116 3237 c3 -10 9 -15 12 -12 3 3 0 11 -7 18 -10 9 -11 8 -5 -6z"/>
<path d="M2912 3230 c0 -14 2 -19 5 -12 2 6 2 18 0 25 -3 6 -5 1 -5 -13z"/>
<path d="M2907 3193 c-4 -3 -7 -16 -6 -27 0 -19 1 -19 10 3 10 24 8 36 -4 24z"/>
<path d="M2107 3115 c-4 -8 -3 -16 1 -19 4 -3 9 4 9 15 2 23 -3 25 -10 4z"/>
<path d="M2212 3110 c0 -14 2 -19 5 -12 2 6 2 18 0 25 -3 6 -5 1 -5 -13z"/>
<path d="M2535 2650 c0 -263 3 -482 8 -486 6 -7 13 655 8 859 -1 55 2 87 9 87
10 0 12 -299 14 -1532 1 -219 5 -398 9 -398 8 0 6 1418 -3 1754 -5 179 -6 189
-25 192 -20 3 -20 -3 -20 -476z"/>
<path d="M2940 3070 c-2 -8 -4 -24 -5 -35 -1 -11 -5 -30 -9 -42 -4 -14 -3 -23
3 -23 11 0 26 82 18 102 -4 10 -6 9 -7 -2z"/>
<path d="M2919 2948 c-1 -18 -8 -64 -19 -127 -12 -68 -12 -71 1 -71 6 0 9 6 6
13 -3 7 -1 33 4 58 14 66 21 139 15 139 -3 0 -6 -6 -7 -12z"/>
<path d="M2261 2784 c0 -11 3 -14 6 -6 3 7 2 16 -1 19 -3 4 -6 -2 -5 -13z"/>
<path d="M2220 2716 c0 -8 5 -18 10 -21 6 -3 10 3 10 14 0 12 -4 21 -10 21 -5
0 -10 -6 -10 -14z"/>
<path d="M2225 2669 c-5 -8 -4 -10 3 -5 8 5 12 -5 12 -33 0 -22 4 -42 9 -45
11 -7 2 75 -9 87 -4 5 -11 3 -15 -4z"/>
<path d="M2250 2551 c0 -11 4 -22 9 -25 4 -3 6 6 3 19 -5 30 -12 33 -12 6z"/>
<path d="M0 2540 c0 -20 4 -20 740 -20 415 1 742 5 745 10 10 16 -12 20 -112
24 -60 3 -103 0 -111 -6 -9 -8 -16 -8 -24 0 -9 9 -174 12 -625 12 -608 0 -613
0 -613 -20z"/>
<path d="M2276 2402 c-2 -4 -1 -14 5 -22 7 -12 9 -10 9 8 0 23 -5 28 -14 14z"/>
<path d="M2792 2255 c0 -16 2 -22 5 -12 2 9 2 23 0 30 -3 6 -5 -1 -5 -18z"/>
<path d="M2334 2105 c0 -88 2 -123 3 -77 2 46 2 118 0 160 -1 42 -3 5 -3 -83z"/>
<path d="M2792 2180 c0 -14 2 -19 5 -12 2 6 2 18 0 25 -3 6 -5 1 -5 -13z"/>
<path d="M2530 1685 c0 -256 3 -465 8 -465 4 0 8 209 10 465 3 329 0 465 -7
465 -8 0 -11 -138 -11 -465z"/>
<path d="M2782 1990 l2 -125 5 115 c4 63 3 119 -1 125 -5 5 -7 -47 -6 -115z"/>
<path d="M2330 1890 c0 -29 3 -50 7 -46 7 7 5 87 -3 95 -2 2 -4 -20 -4 -49z"/>
<path d="M2781 1794 c0 -11 3 -14 6 -6 3 7 2 16 -1 19 -3 4 -6 -2 -5 -13z"/>
<path d="M2314 1485 c3 -159 5 -559 5 -887 1 -392 4 -598 11 -598 7 0 10 294
10 863 0 560 -4 857 -10 847 -5 -8 -10 -10 -10 -4 0 5 4 14 9 20 6 5 4 17 -5
29 -14 18 -15 -11 -10 -270z m13 183 c-3 -8 -6 -5 -6 6 -1 11 2 17 5 13 3 -3
4 -12 1 -19z"/>
<path d="M2780 880 c0 -580 3 -880 10 -880 7 0 10 280 11 818 0 449 2 843 4
874 2 42 -1 58 -11 62 -12 5 -14 -124 -14 -874z"/>
<path d="M2530 1200 c0 -5 7 -10 16 -10 8 0 12 5 9 10 -3 6 -10 10 -16 10 -5
0 -9 -4 -9 -10z"/>
</g>
</svg>
