<?xml version="1.0" standalone="no"?>
<!DOCTYPE svg PUBLIC "-//W3C//DTD SVG 20010904//EN"
 "http://www.w3.org/TR/2001/REC-SVG-20010904/DTD/svg10.dtd">
<svg version="1.0" xmlns="http://www.w3.org/2000/svg"
 width="512.000000pt" height="768.000000pt" viewBox="0 0 512.000000 768.000000"
 preserveAspectRatio="xMidYMid meet">
<metadata>
Created by potrace 1.16, written by Peter Selinger 2001-2019
</metadata>
<g transform="translate(0.000000,768.000000) scale(0.100000,-0.100000)"
fill="#000000" stroke="none">
<path d="M2547 7528 c-12 -259 -8 -7528 3 -7528 7 0 10 349 11 1018 0 559 2
1535 5 2167 4 1007 7 1156 20 1198 15 44 15 50 0 65 -14 16 -16 185 -18 1625
-2 884 -6 1607 -9 1607 -3 0 -9 -69 -12 -152z"/>
<path d="M4442 7560 c0 -19 2 -27 5 -17 2 9 2 25 0 35 -3 9 -5 1 -5 -18z"/>
<path d="M2600 7555 c-7 -9 -9 -19 -5 -23 4 -4 10 -1 12 6 8 20 39 14 50 -10
6 -13 40 -64 77 -115 36 -51 66 -95 66 -98 0 -4 13 -25 28 -48 16 -23 35 -58
42 -77 8 -19 24 -51 37 -70 13 -19 23 -41 23 -50 0 -8 11 -35 25 -59 14 -23
25 -52 25 -63 0 -11 9 -37 19 -57 23 -42 61 -146 92 -246 43 -141 59 -177 75
-164 23 19 29 2 16 -45 -12 -47 -9 -75 27 -250 12 -54 26 -135 31 -180 5 -44
19 -130 29 -189 11 -60 25 -163 31 -230 6 -67 15 -149 21 -182 5 -33 11 -149
11 -257 l1 -197 66 -29 67 -30 -7 -73 c-4 -41 -16 -114 -27 -164 -43 -187
-108 -618 -96 -637 3 -4 13 -8 24 -8 16 0 18 -8 15 -78 -2 -70 -6 -84 -34
-122 -33 -46 -36 -55 -21 -65 6 -3 10 -41 10 -84 0 -59 -4 -82 -16 -91 -13
-11 -14 -30 -8 -116 5 -86 4 -106 -10 -125 -12 -18 -16 -49 -16 -139 0 -63 -5
-207 -10 -320 -13 -306 -19 -727 -26 -1845 -3 -555 -8 -1013 -11 -1017 -2 -5
3 -8 11 -8 14 0 16 28 16 228 0 125 3 400 7 612 3 212 8 711 10 1110 l5 725
769 3 c423 1 769 6 769 10 0 5 -52 7 -116 5 -78 -2 -121 0 -130 8 -8 6 -14 7
-14 2 0 -6 -148 -8 -377 -7 -208 2 -497 3 -641 4 l-264 0 6 38 c5 34 10 135
22 450 2 68 9 133 15 143 6 11 9 65 7 126 -2 78 0 107 10 110 8 3 12 33 12 99
0 61 -4 93 -10 89 -14 -9 -12 1 3 17 36 38 50 75 54 142 2 40 9 73 16 78 8 5
6 8 -6 8 -10 0 -15 5 -12 11 4 6 -2 13 -14 16 -16 4 -21 13 -21 39 0 76 59
441 101 619 43 186 40 226 -20 243 -82 25 -81 21 -87 257 -3 115 -8 213 -11
217 -2 5 -6 36 -9 71 -7 98 -24 235 -40 322 -8 44 -19 116 -25 160 -5 44 -22
141 -36 215 -41 220 -43 234 -33 244 6 6 10 27 10 48 0 34 -3 38 -24 38 -22 0
-27 10 -55 98 -17 53 -36 111 -42 127 -6 17 -21 57 -33 90 -12 33 -29 74 -39
92 -9 18 -17 41 -17 52 0 12 -11 42 -25 68 -14 27 -46 93 -71 148 -25 55 -51
103 -56 106 -6 4 -7 12 -3 19 5 8 4 11 -2 7 -12 -8 -26 20 -18 34 4 5 -2 6
-11 2 -14 -5 -16 -3 -11 11 4 10 3 15 -3 11 -6 -3 -13 2 -17 12 -4 10 -9 20
-12 23 -21 18 -51 72 -45 82 4 6 3 8 -4 4 -6 -3 -13 3 -17 14 -3 11 -11 20
-17 20 -6 0 -9 3 -5 6 9 9 -31 44 -52 44 -10 0 -24 -7 -31 -15z"/>
<path d="M602 7515 c0 -16 2 -22 5 -12 2 9 2 23 0 30 -3 6 -5 -1 -5 -18z"/>
<path d="M2502 7518 c-7 -7 -12 -22 -12 -34 0 -29 -10 -55 -19 -50 -4 3 -8 -5
-8 -17 -1 -12 -7 -23 -13 -25 -5 -2 -10 -10 -10 -18 0 -8 -4 -14 -10 -14 -5 0
-10 -9 -10 -20 0 -11 -3 -20 -7 -20 -5 0 -13 -11 -20 -25 -8 -19 -8 -24 0 -19
7 3 4 -1 -5 -9 -10 -8 -15 -17 -11 -20 3 -4 1 -7 -5 -7 -7 0 -11 -3 -10 -7 1
-5 -13 -39 -30 -77 -18 -38 -32 -75 -32 -82 0 -8 -4 -14 -10 -14 -5 0 -10 -8
-10 -17 0 -10 -11 -40 -25 -67 -14 -27 -25 -56 -25 -63 0 -8 -4 -12 -9 -9 -5
4 -7 -2 -4 -13 3 -10 0 -22 -6 -25 -6 -4 -11 -18 -11 -32 0 -13 -4 -24 -8 -24
-5 0 -16 -26 -26 -57 -26 -88 -37 -113 -47 -107 -5 3 -6 -2 -3 -11 4 -8 -1
-30 -9 -48 -8 -17 -28 -75 -42 -127 -15 -52 -32 -101 -38 -108 -5 -7 -7 -15
-4 -18 3 -3 -4 -37 -15 -75 -11 -38 -18 -75 -15 -82 2 -7 -2 -29 -9 -50 -7
-20 -14 -41 -15 -45 -1 -4 -3 -11 -4 -17 -73 -256 -132 -751 -133 -1120 -1
-126 -1 -237 -2 -247 0 -14 -5 -15 -34 -6 -61 19 -70 8 -62 -75 3 -39 10 -99
15 -132 4 -33 14 -109 21 -170 6 -60 14 -117 17 -125 2 -8 7 -58 9 -110 3 -52
9 -111 14 -130 9 -37 30 -174 34 -219 3 -40 14 -51 53 -51 l35 0 -7 -37 c-4
-21 -10 -40 -14 -43 -4 -3 -8 -82 -9 -177 -1 -132 2 -175 12 -186 9 -9 11 -25
7 -51 -3 -20 -4 -109 -1 -196 5 -144 7 -161 25 -175 11 -9 13 -13 5 -9 -11 5
-12 4 -5 -4 6 -6 9 -32 7 -57 l-4 -45 -302 -1 c-600 -2 -1291 -8 -1311 -11
-11 -1 348 -5 798 -8 l819 -5 -1 -1337 c-1 -917 2 -1338 9 -1338 12 0 15 323
15 1797 0 1011 -1 1043 -19 1043 -17 0 -18 10 -14 205 2 145 0 205 -8 205 -7
0 -11 53 -11 170 0 118 3 170 11 170 7 0 11 21 11 53 l0 52 -39 5 c-37 5 -39
7 -43 45 -2 22 -13 99 -25 170 -11 72 -21 165 -21 208 -1 42 -4 77 -9 77 -4 0
-8 19 -8 43 0 23 -11 118 -25 211 -14 93 -25 182 -25 198 0 34 21 37 68 8 18
-11 33 -20 35 -20 1 0 2 132 2 293 1 254 4 322 28 526 29 244 70 473 112 625
13 49 22 93 19 97 -16 27 201 665 286 840 11 24 20 47 20 51 0 5 43 95 95 201
52 105 95 198 95 207 0 9 5 21 11 27 6 6 7 13 1 16 -5 4 -14 1 -20 -5z"/>
<path d="M602 7430 c0 -14 2 -19 5 -12 2 6 2 18 0 25 -3 6 -5 1 -5 -13z"/>
<path d="M663 7275 c0 -27 2 -38 4 -22 2 15 2 37 0 50 -2 12 -4 0 -4 -28z"/>
<path d="M594 7215 c0 -55 1 -76 3 -47 2 29 2 74 0 100 -2 26 -3 2 -3 -53z"/>
<path d="M632 7280 c0 -19 2 -27 5 -17 2 9 2 25 0 35 -3 9 -5 1 -5 -18z"/>
<path d="M2512 7270 c0 -14 2 -19 5 -12 2 6 2 18 0 25 -3 6 -5 1 -5 -13z"/>
<path d="M2513 7125 c0 -22 2 -30 4 -17 2 12 2 30 0 40 -3 9 -5 -1 -4 -23z"/>
<path d="M2515 6375 c0 -390 1 -552 2 -358 2 193 2 513 0 710 -1 197 -2 39 -2
-352z"/>
<path d="M661 6944 c0 -11 3 -14 6 -6 3 7 2 16 -1 19 -3 4 -6 -2 -5 -13z"/>
<path d="M732 6880 c0 -14 2 -19 5 -12 2 6 2 18 0 25 -3 6 -5 1 -5 -13z"/>
<path d="M662 6845 c0 -16 2 -22 5 -12 2 9 2 23 0 30 -3 6 -5 -1 -5 -18z"/>
<path d="M593 6755 c0 -44 2 -61 4 -37 2 23 2 59 0 80 -2 20 -4 1 -4 -43z"/>
<path d="M131 6794 c0 -11 3 -14 6 -6 3 7 2 16 -1 19 -3 4 -6 -2 -5 -13z"/>
<path d="M483 6760 c0 -30 2 -43 4 -27 2 15 2 39 0 55 -2 15 -4 2 -4 -28z"/>
<path d="M631 6784 c0 -11 3 -14 6 -6 3 7 2 16 -1 19 -3 4 -6 -2 -5 -13z"/>
<path d="M733 6760 c0 -25 2 -35 4 -22 2 12 2 32 0 45 -2 12 -4 2 -4 -23z"/>
<path d="M362 6745 c0 -16 2 -22 5 -12 2 9 2 23 0 30 -3 6 -5 -1 -5 -18z"/>
<path d="M131 6694 c0 -11 3 -14 6 -6 3 7 2 16 -1 19 -3 4 -6 -2 -5 -13z"/>
<path d="M363 6675 c0 -22 2 -30 4 -17 2 12 2 30 0 40 -3 9 -5 -1 -4 -23z"/>
<path d="M2594 6375 c0 -176 2 -247 3 -157 2 90 2 234 0 320 -1 86 -3 13 -3
-163z"/>
<path d="M361 6584 c0 -11 3 -14 6 -6 3 7 2 16 -1 19 -3 4 -6 -2 -5 -13z"/>
<path d="M592 6575 c0 -16 2 -22 5 -12 2 9 2 23 0 30 -3 6 -5 -1 -5 -18z"/>
<path d="M4922 6515 c0 -16 2 -22 5 -12 2 9 2 23 0 30 -3 6 -5 -1 -5 -18z"/>
<path d="M4921 6464 c0 -11 3 -14 6 -6 3 7 2 16 -1 19 -3 4 -6 -2 -5 -13z"/>
<path d="M362 6450 c0 -14 2 -19 5 -12 2 6 2 18 0 25 -3 6 -5 1 -5 -13z"/>
<path d="M281 6344 c0 -11 3 -14 6 -6 3 7 2 16 -1 19 -3 4 -6 -2 -5 -13z"/>
<path d="M4471 6304 c0 -11 3 -14 6 -6 3 7 2 16 -1 19 -3 4 -6 -2 -5 -13z"/>
<path d="M4933 6245 c0 -22 2 -30 4 -17 2 12 2 30 0 40 -3 9 -5 -1 -4 -23z"/>
<path d="M4473 6190 c0 -30 2 -43 4 -27 2 15 2 39 0 55 -2 15 -4 2 -4 -28z"/>
<path d="M621 6024 c0 -11 3 -14 6 -6 3 7 2 16 -1 19 -3 4 -6 -2 -5 -13z"/>
<path d="M2593 5995 c0 -22 2 -30 4 -17 2 12 2 30 0 40 -3 9 -5 -1 -4 -23z"/>
<path d="M594 5655 c0 -115 2 -161 3 -102 2 59 2 154 0 210 -1 56 -3 8 -3
-108z"/>
<path d="M733 5785 c0 -22 2 -30 4 -17 2 12 2 30 0 40 -3 9 -5 -1 -4 -23z"/>
<path d="M4484 5655 c0 -71 1 -99 3 -62 2 37 2 96 0 130 -2 34 -3 4 -3 -68z"/>
<path d="M4081 5574 c0 -11 3 -14 6 -6 3 7 2 16 -1 19 -3 4 -6 -2 -5 -13z"/>
<path d="M3283 5435 c0 -22 2 -30 4 -17 2 12 2 30 0 40 -3 9 -5 -1 -4 -23z"/>
<path d="M591 5424 c0 -11 3 -14 6 -6 3 7 2 16 -1 19 -3 4 -6 -2 -5 -13z"/>
<path d="M1902 5410 c0 -14 2 -19 5 -12 2 6 2 18 0 25 -3 6 -5 1 -5 -13z"/>
<path d="M394 5095 c0 -181 2 -257 3 -168 2 89 2 237 0 330 -1 92 -3 20 -3
-162z"/>
<path d="M4481 5404 c0 -11 3 -14 6 -6 3 7 2 16 -1 19 -3 4 -6 -2 -5 -13z"/>
<path d="M4571 5364 c0 -11 3 -14 6 -6 3 7 2 16 -1 19 -3 4 -6 -2 -5 -13z"/>
<path d="M593 5280 c0 -25 2 -35 4 -22 2 12 2 32 0 45 -2 12 -4 2 -4 -23z"/>
<path d="M2513 5240 c0 -47 2 -66 4 -42 2 23 2 61 0 85 -2 23 -4 4 -4 -43z"/>
<path d="M592 5210 c0 -14 2 -19 5 -12 2 6 2 18 0 25 -3 6 -5 1 -5 -13z"/>
<path d="M643 5150 c0 -25 2 -35 4 -22 2 12 2 32 0 45 -2 12 -4 2 -4 -23z"/>
<path d="M2513 5105 c0 -22 2 -30 4 -17 2 12 2 30 0 40 -3 9 -5 -1 -4 -23z"/>
<path d="M2513 4995 c0 -27 2 -38 4 -22 2 15 2 37 0 50 -2 12 -4 0 -4 -28z"/>
<path d="M1871 4994 c0 -11 3 -14 6 -6 3 7 2 16 -1 19 -3 4 -6 -2 -5 -13z"/>
<path d="M4951 4944 c0 -11 3 -14 6 -6 3 7 2 16 -1 19 -3 4 -6 -2 -5 -13z"/>
<path d="M601 4884 c0 -11 3 -14 6 -6 3 7 2 16 -1 19 -3 4 -6 -2 -5 -13z"/>
<path d="M4952 4795 c0 -16 2 -22 5 -12 2 9 2 23 0 30 -3 6 -5 -1 -5 -18z"/>
<path d="M603 4720 c0 -25 2 -35 4 -22 2 12 2 32 0 45 -2 12 -4 2 -4 -23z"/>
<path d="M4951 4744 c0 -11 3 -14 6 -6 3 7 2 16 -1 19 -3 4 -6 -2 -5 -13z"/>
<path d="M4941 4604 c0 -11 3 -14 6 -6 3 7 2 16 -1 19 -3 4 -6 -2 -5 -13z"/>
<path d="M4803 4475 c0 -22 2 -30 4 -17 2 12 2 30 0 40 -3 9 -5 -1 -4 -23z"/>
<path d="M2490 4470 c0 -5 5 -10 10 -10 6 0 10 5 10 10 0 6 -4 10 -10 10 -5 0
-10 -4 -10 -10z"/>
<path d="M2492 4420 c0 -14 2 -19 5 -12 2 6 2 18 0 25 -3 6 -5 1 -5 -13z"/>
<path d="M601 4414 c0 -11 3 -14 6 -6 3 7 2 16 -1 19 -3 4 -6 -2 -5 -13z"/>
<path d="M601 4374 c0 -11 3 -14 6 -6 3 7 2 16 -1 19 -3 4 -6 -2 -5 -13z"/>
<path d="M4112 4330 c0 -14 2 -19 5 -12 2 6 2 18 0 25 -3 6 -5 1 -5 -13z"/>
<path d="M2515 3530 c0 -377 1 -531 2 -342 2 188 2 496 0 685 -1 188 -2 34 -2
-343z"/>
<path d="M4804 4055 c0 -77 2 -107 3 -67 2 40 2 103 0 140 -2 37 -3 4 -3 -73z"/>
<path d="M2597 4163 c-4 -3 -6 -79 -5 -167 l2 -161 6 165 c6 183 6 172 -3 163z"/>
<path d="M362 4130 c0 -14 2 -19 5 -12 2 6 2 18 0 25 -3 6 -5 1 -5 -13z"/>
<path d="M4522 4100 c0 -14 2 -19 5 -12 2 6 2 18 0 25 -3 6 -5 1 -5 -13z"/>
<path d="M363 3985 c0 -33 2 -45 4 -27 2 18 2 45 0 60 -2 15 -4 0 -4 -33z"/>
<path d="M4481 4014 c0 -11 3 -14 6 -6 3 7 2 16 -1 19 -3 4 -6 -2 -5 -13z"/>
<path d="M4562 3920 c0 -19 2 -27 5 -17 2 9 2 25 0 35 -3 9 -5 1 -5 -18z"/>
<path d="M481 3924 c0 -11 3 -14 6 -6 3 7 2 16 -1 19 -3 4 -6 -2 -5 -13z"/>
<path d="M363 3825 c0 -38 2 -53 4 -32 2 20 2 52 0 70 -2 17 -4 1 -4 -38z"/>
<path d="M4952 3840 c0 -19 2 -27 5 -17 2 9 2 25 0 35 -3 9 -5 1 -5 -18z"/>
<path d="M4803 3800 c0 -30 2 -43 4 -27 2 15 2 39 0 55 -2 15 -4 2 -4 -28z"/>
<path d="M2594 3575 c0 -121 2 -169 3 -107 2 62 2 161 0 220 -1 59 -3 8 -3
-113z"/>
<path d="M3993 3480 c0 -36 2 -50 4 -32 2 17 2 47 0 65 -2 17 -4 3 -4 -33z"/>
<path d="M4953 3435 c0 -27 2 -38 4 -22 2 15 2 37 0 50 -2 12 -4 0 -4 -28z"/>
<path d="M482 3450 c0 -14 2 -19 5 -12 2 6 2 18 0 25 -3 6 -5 1 -5 -13z"/>
<path d="M4771 3404 c0 -11 3 -14 6 -6 3 7 2 16 -1 19 -3 4 -6 -2 -5 -13z"/>
<path d="M4773 3345 c0 -22 2 -30 4 -17 2 12 2 30 0 40 -3 9 -5 -1 -4 -23z"/>
<path d="M2590 3013 l0 -338 325 3 c179 1 325 6 325 11 0 5 -143 7 -320 5
l-321 -5 3 331 c2 181 0 330 -4 330 -5 0 -8 -152 -8 -337z"/>
<path d="M4952 3280 c0 -19 2 -27 5 -17 2 9 2 25 0 35 -3 9 -5 1 -5 -18z"/>
<path d="M4361 3224 c0 -11 3 -14 6 -6 3 7 2 16 -1 19 -3 4 -6 -2 -5 -13z"/>
<path d="M4561 2984 c0 -11 3 -14 6 -6 3 7 2 16 -1 19 -3 4 -6 -2 -5 -13z"/>
<path d="M4951 2894 c0 -11 3 -14 6 -6 3 7 2 16 -1 19 -3 4 -6 -2 -5 -13z"/>
<path d="M2512 2735 c0 -16 2 -22 5 -12 2 9 2 23 0 30 -3 6 -5 -1 -5 -18z"/>
<path d="M108 2693 c6 -2 18 -2 25 0 6 3 1 5 -13 5 -14 0 -19 -2 -12 -5z"/>
<path d="M158 2693 c7 -3 16 -2 19 1 4 3 -2 6 -13 5 -11 0 -14 -3 -6 -6z"/>
<path d="M285 2690 c-3 -5 -1 -10 4 -10 6 0 11 5 11 10 0 6 -2 10 -4 10 -3 0
-8 -4 -11 -10z"/>
<path d="M1993 2685 c2 -5 11 -9 20 -9 10 1 130 2 269 3 138 0 248 4 244 8
-11 11 -536 9 -533 -2z"/>
<path d="M5018 2693 c7 -3 16 -2 19 1 4 3 -2 6 -13 5 -11 0 -14 -3 -6 -6z"/>
<path d="M5073 2693 c9 -2 23 -2 30 0 6 3 -1 5 -18 5 -16 0 -22 -2 -12 -5z"/>
<path d="M38 2663 c23 -2 59 -2 80 0 20 2 1 4 -43 4 -44 0 -61 -2 -37 -4z"/>
<path d="M218 2663 c12 -2 30 -2 40 0 9 3 -1 5 -23 4 -22 0 -30 -2 -17 -4z"/>
<path d="M5003 2664 c7 -8 108 -7 115 1 3 3 -23 5 -58 5 -35 0 -60 -3 -57 -6z"/>
<path d="M333 2653 c15 -2 37 -2 50 0 12 2 0 4 -28 4 -27 0 -38 -2 -22 -4z"/>
<path d="M548 2653 c12 -2 30 -2 40 0 9 3 -1 5 -23 4 -22 0 -30 -2 -17 -4z"/>
<path d="M2158 2643 c7 -3 16 -2 19 1 4 3 -2 6 -13 5 -11 0 -14 -3 -6 -6z"/>
<path d="M2208 2643 c12 -2 32 -2 45 0 12 2 2 4 -23 4 -25 0 -35 -2 -22 -4z"/>
<path d="M2511 2634 c0 -11 3 -14 6 -6 3 7 2 16 -1 19 -3 4 -6 -2 -5 -13z"/>
<path d="M2594 2560 c0 -52 1 -74 3 -47 2 26 2 68 0 95 -2 26 -3 4 -3 -48z"/>
<path d="M2788 2643 c7 -3 16 -2 19 1 4 3 -2 6 -13 5 -11 0 -14 -3 -6 -6z"/>
<path d="M2858 2643 c7 -3 16 -2 19 1 4 3 -2 6 -13 5 -11 0 -14 -3 -6 -6z"/>
<path d="M2515 1355 c0 -687 1 -967 2 -622 2 346 2 908 0 1250 -1 342 -2 60
-2 -628z"/>
<path d="M2594 2260 c0 -113 2 -159 3 -102 2 56 2 148 0 205 -1 56 -3 10 -3
-103z"/>
<path d="M3221 2424 c0 -11 3 -14 6 -6 3 7 2 16 -1 19 -3 4 -6 -2 -5 -13z"/>
<path d="M2004 2005 c0 -137 2 -195 3 -128 2 67 2 179 0 250 -1 70 -3 16 -3
-122z"/>
<path d="M2005 1335 c0 -198 1 -280 2 -183 2 97 2 259 0 360 -1 101 -2 21 -2
-177z"/>
<path d="M2004 605 c0 -148 2 -211 3 -138 2 72 2 194 0 270 -1 76 -3 17 -3
-132z"/>
<path d="M2593 450 c0 -25 2 -35 4 -22 2 12 2 32 0 45 -2 12 -4 2 -4 -23z"/>
<path d="M2594 220 c0 -80 2 -112 3 -72 2 39 2 105 0 145 -1 39 -3 7 -3 -73z"/>
<path d="M2003 140 c0 -30 2 -43 4 -28 2 16 2 40 0 56 -2 15 -4 2 -4 -28z"/>
<path d="M2511 14 c0 -11 3 -14 6 -6 3 7 2 16 -1 19 -3 4 -6 -2 -5 -13z"/>
</g>
</svg>
