<?xml version="1.0" standalone="no"?>
<!DOCTYPE svg PUBLIC "-//W3C//DTD SVG 20010904//EN"
 "http://www.w3.org/TR/2001/REC-SVG-20010904/DTD/svg10.dtd">
<svg version="1.0" xmlns="http://www.w3.org/2000/svg"
 width="512.000000pt" height="512.000000pt" viewBox="0 0 512.000000 512.000000"
 preserveAspectRatio="xMidYMid meet">
<metadata>
Created by potrace 1.16, written by Peter Selinger 2001-2019
</metadata>
<g transform="translate(0.000000,512.000000) scale(0.100000,-0.100000)"
fill="#000000" stroke="none">
<path d="M2550 4506 c0 -338 3 -621 6 -630 3 -9 10 -13 15 -10 5 3 9 273 9
630 0 548 -2 624 -15 624 -13 0 -15 -75 -15 -614z"/>
<path d="M1376 5055 c3 -11 9 -31 12 -45 2 -14 10 -32 17 -40 7 -8 16 -26 20
-40 7 -25 123 -281 131 -289 2 -2 7 -2 10 1 6 6 -34 104 -89 218 -17 36 -31
67 -32 70 -11 37 -27 60 -37 54 -7 -4 -8 -3 -4 4 4 6 -3 28 -14 49 -12 21 -18
29 -14 18z"/>
<path d="M3733 4972 c-3 -12 -9 -22 -14 -22 -5 0 -9 -10 -9 -22 1 -19 5 -16
21 15 11 22 18 42 14 45 -3 3 -8 -4 -12 -16z"/>
<path d="M3663 4832 c-17 -37 -46 -98 -63 -137 -18 -38 -47 -101 -65 -140 -78
-164 -125 -267 -125 -271 0 -2 -58 -121 -130 -265 -71 -144 -130 -263 -130
-266 0 -11 20 10 33 35 70 134 317 634 317 640 0 5 20 49 43 98 24 49 52 107
62 129 9 22 31 69 47 104 38 80 59 141 50 141 -4 0 -21 -31 -39 -68z"/>
<path d="M465 4770 c-3 -5 -1 -10 4 -10 6 0 11 5 11 10 0 6 -2 10 -4 10 -3 0
-8 -4 -11 -10z"/>
<path d="M500 4749 c0 -5 5 -7 10 -4 6 3 10 8 10 11 0 2 -4 4 -10 4 -5 0 -10
-5 -10 -11z"/>
<path d="M540 4684 c0 -9 5 -14 12 -12 18 6 21 28 4 28 -9 0 -16 -7 -16 -16z"/>
<path d="M575 4639 c-4 -6 -4 -13 -1 -16 8 -8 36 5 36 17 0 13 -27 13 -35 -1z"/>
<path d="M626 4594 c-4 -9 -4 -19 -1 -22 6 -6 35 18 35 29 0 16 -28 10 -34 -7z"/>
<path d="M1550 4588 c-19 -12 -36 -22 -37 -23 -4 -2 86 -177 194 -377 l95
-177 31 6 c18 3 34 8 36 10 3 2 -9 34 -26 71 -110 240 -223 494 -223 502 0 17
-33 11 -70 -12z m76 -89 c59 -120 104 -217 104 -223 0 -3 14 -35 30 -71 17
-36 30 -71 30 -78 0 -7 7 -23 16 -35 8 -12 14 -27 12 -34 -2 -6 -15 11 -30 38
-14 27 -47 87 -73 134 -74 131 -155 293 -155 311 0 19 10 31 24 26 6 -2 25
-32 42 -68z"/>
<path d="M674 4535 c-4 -9 -4 -18 -2 -21 9 -8 39 8 35 19 -6 18 -27 20 -33 2z"/>
<path d="M727 4472 c-30 -32 -18 -43 17 -17 14 10 17 18 10 25 -7 7 -16 5 -27
-8z"/>
<path d="M785 4379 c-10 -15 1 -23 20 -15 9 3 13 10 10 16 -8 13 -22 13 -30
-1z"/>
<path d="M1322 4369 c2 -6 8 -10 13 -10 5 0 11 4 13 10 2 6 -4 11 -13 11 -9 0
-15 -5 -13 -11z"/>
<path d="M860 4310 c0 -5 9 -10 20 -10 11 0 20 5 20 10 0 6 -9 10 -20 10 -11
0 -20 -4 -20 -10z"/>
<path d="M943 4249 c-18 -12 -33 -24 -33 -28 0 -4 17 -23 38 -43 37 -35 142
-150 166 -184 12 -16 18 -16 40 -6 33 15 33 34 1 58 -14 10 -25 22 -25 27 0 7
-74 102 -135 173 l-20 24 -32 -21z m103 -96 c38 -42 63 -74 57 -69 -7 4 -13 3
-13 -3 0 -6 -7 -8 -15 -5 -8 4 -13 9 -11 13 3 4 -13 22 -35 40 -21 19 -39 40
-39 47 0 8 -6 13 -12 12 -7 -2 -14 7 -16 20 -6 37 13 25 84 -55z m77 -102 c3
-14 1 -18 -9 -14 -8 3 -14 11 -14 19 0 21 17 17 23 -5z"/>
<path d="M4010 4128 c-63 -66 -122 -132 -131 -145 -10 -14 -41 -50 -69 -79
-29 -30 -50 -58 -46 -62 5 -4 27 15 49 43 23 27 107 116 187 198 80 81 147
152 148 158 2 5 -2 9 -10 9 -7 0 -65 -55 -128 -122z"/>
<path d="M1960 4035 c0 -8 4 -15 10 -15 5 0 7 7 4 15 -4 8 -8 15 -10 15 -2 0
-4 -7 -4 -15z"/>
<path d="M1820 3988 c0 -6 47 -97 100 -192 24 -44 46 -74 48 -68 2 7 -9 34
-24 60 -15 26 -43 77 -61 113 -28 56 -63 104 -63 87z"/>
<path d="M1981 3970 c0 -8 4 -22 9 -30 12 -18 12 -2 0 25 -6 13 -9 15 -9 5z"/>
<path d="M540 3915 c7 -8 17 -15 23 -15 11 0 119 -87 179 -144 39 -37 75 -86
63 -86 -12 0 -125 93 -125 103 0 6 -3 8 -6 4 -3 -3 -21 10 -39 29 -21 22 -35
30 -38 22 -3 -8 -9 -3 -15 12 -17 43 -53 67 -96 66 -54 -1 -56 -21 -4 -45 48
-23 123 -74 181 -124 20 -17 43 -36 50 -42 76 -60 97 -75 105 -75 5 0 14 18
20 40 l10 40 -66 57 c-36 32 -70 63 -76 68 -42 39 -141 105 -158 105 -17 0
-18 -3 -8 -15z"/>
<path d="M4670 3892 c0 -5 -10 -14 -22 -19 -13 -6 -53 -33 -89 -59 -37 -27
-111 -80 -165 -119 -53 -38 -151 -109 -217 -157 -67 -49 -133 -94 -149 -100
-32 -14 -37 -28 -10 -28 24 0 56 21 233 151 279 205 321 236 367 276 20 18 41
33 45 33 5 0 15 7 23 15 14 13 14 15 0 15 -9 0 -16 -4 -16 -8z"/>
<path d="M2323 3829 c-171 -36 -312 -93 -441 -181 -96 -65 -114 -80 -193 -159
-167 -168 -324 -461 -353 -659 -7 -47 8 -38 18 11 5 26 42 134 83 239 22 56
94 185 112 200 3 3 20 25 36 50 17 25 35 50 40 56 6 6 24 28 40 49 41 50 46
56 84 85 19 14 43 35 54 48 11 12 25 22 31 22 6 0 28 15 49 34 42 36 111 76
133 76 8 0 14 4 14 9 0 5 8 11 18 14 9 3 51 17 92 32 173 61 230 70 420 70
177 -1 348 -32 468 -85 61 -27 77 -35 82 -41 3 -3 21 -13 40 -23 19 -9 55 -30
80 -46 25 -16 54 -29 65 -29 23 -1 -70 61 -180 120 -86 46 -231 93 -351 113
-126 21 -326 19 -441 -5z"/>
<path d="M1430 3830 c-12 -8 -10 -10 8 -10 13 0 20 4 17 10 -7 12 -6 12 -25 0z"/>
<path d="M1545 3830 c-8 -13 20 -24 36 -15 8 6 7 10 -2 16 -18 11 -26 11 -34
-1z"/>
<path d="M1340 3805 c14 -16 26 -32 28 -34 1 -2 4 -2 7 1 3 2 -10 18 -28 34
l-32 29 25 -30z"/>
<path d="M3663 3738 c-110 -113 -168 -178 -158 -178 4 0 32 26 62 58 79 82
196 212 191 212 -3 0 -46 -42 -95 -92z"/>
<path d="M2435 3723 c-56 -5 -166 -30 -238 -54 -109 -37 -307 -146 -307 -170
0 -5 -6 -9 -13 -9 -18 0 -178 -168 -232 -245 -79 -110 -177 -337 -191 -440 -2
-16 11 14 30 68 140 400 395 672 731 780 137 44 191 52 365 51 146 0 176 -3
265 -27 92 -24 303 -120 363 -163 12 -9 22 -12 22 -6 0 26 -172 120 -296 161
-157 53 -319 70 -499 54z"/>
<path d="M2551 3600 l2 -102 -144 -80 c-188 -104 -310 -181 -382 -241 l-59
-49 -51 58 c-97 108 -146 158 -151 154 -2 -3 19 -30 47 -61 29 -31 73 -81 99
-110 l47 -54 -36 -65 c-48 -90 -241 -420 -262 -448 -14 -21 -26 -23 -115 -28
l-98 -5 4 90 4 89 -58 6 c-32 4 -58 11 -58 16 0 6 -4 10 -9 10 -5 0 -12 -46
-16 -102 l-7 -103 -419 3 c-371 2 -419 1 -419 -13 0 -13 49 -15 419 -15 l418
0 7 -82 c10 -118 31 -211 77 -346 45 -130 74 -187 162 -312 53 -76 241 -280
258 -280 4 0 25 23 48 51 l40 51 -98 96 c-196 195 -330 463 -346 695 -4 45 -8
92 -11 105 -4 22 -3 22 100 22 l105 0 82 -133 c87 -140 217 -370 220 -390 2
-7 -17 -32 -42 -57 -74 -76 -141 -159 -137 -170 1 -5 33 25 70 67 108 126 115
133 123 133 4 0 24 -13 44 -28 69 -54 531 -332 550 -332 4 0 54 28 112 62 407
240 472 287 514 372 37 73 273 469 285 476 4 3 56 4 115 2 l108 -3 -6 -82
c-13 -182 -83 -371 -205 -551 -64 -96 -164 -208 -227 -255 -27 -21 -28 -24
-15 -45 8 -12 24 -37 35 -54 11 -18 23 -32 27 -32 16 0 209 200 262 273 148
201 239 451 253 693 6 119 -4 216 -39 377 -18 81 -24 97 -37 91 -9 -3 -34 -13
-57 -20 l-41 -15 18 -77 c17 -71 41 -270 34 -282 -2 -3 -53 -4 -113 -2 l-110
3 -86 142 c-103 173 -227 399 -224 409 2 4 39 44 83 90 44 46 87 92 94 103 8
11 -32 -26 -88 -83 l-103 -102 -56 51 c-65 58 -132 100 -359 225 l-163 89 0
97 c0 57 -4 99 -11 103 -7 5 -10 -25 -8 -95z m153 -206 c213 -116 328 -189
393 -251 13 -13 27 -23 31 -23 4 0 15 -17 24 -38 9 -20 28 -55 41 -77 13 -22
47 -84 75 -138 29 -54 79 -141 112 -193 63 -100 69 -117 46 -143 -16 -20 -141
-228 -227 -380 -54 -97 -74 -123 -132 -170 -63 -52 -486 -311 -509 -311 -12 0
-54 24 -278 158 -266 160 -286 175 -315 232 -26 52 -113 206 -157 277 -21 34
-38 65 -38 68 0 3 -8 18 -18 33 -10 15 -33 49 -50 75 l-32 48 23 42 c13 23 64
110 112 192 49 83 108 186 132 230 25 44 54 88 66 98 12 11 36 31 52 45 48 42
160 115 275 178 58 32 130 72 160 90 30 18 59 33 64 33 5 1 73 -33 150 -75z
m1049 -521 c29 -103 50 -291 42 -378 -19 -229 -96 -449 -228 -645 -28 -41 -97
-122 -153 -179 -102 -104 -103 -105 -124 -86 -11 10 -20 24 -20 32 0 8 38 52
84 98 131 131 246 317 304 490 68 202 78 452 27 653 -13 51 -13 54 8 62 39 15
44 11 60 -47z m-2325 -310 c-1 -193 12 -274 69 -418 67 -170 158 -311 280
-431 l84 -84 -17 -30 c-10 -16 -23 -30 -29 -30 -22 0 -138 116 -203 203 -129
172 -188 295 -241 502 -27 104 -40 247 -34 363 l6 92 43 0 44 0 -2 -167z"/>
<path d="M2533 3277 c-12 -6 -66 -39 -120 -73 -54 -33 -146 -90 -205 -126 -72
-44 -103 -69 -97 -75 10 -10 112 49 373 216 68 44 82 49 95 37 9 -7 81 -52
161 -101 80 -48 166 -103 193 -121 55 -39 63 -41 77 -14 9 16 8 18 -5 14 -9
-4 -53 18 -107 53 -51 33 -129 82 -173 108 -44 26 -96 59 -115 71 -40 27 -47
28 -77 11z"/>
<path d="M2550 3189 c0 -22 4 -38 8 -35 8 5 4 76 -4 76 -2 0 -4 -18 -4 -41z"/>
<path d="M2550 3000 c-1 -80 -3 -160 -6 -179 -4 -29 -2 -32 11 -21 13 11 16
37 14 145 -2 193 -17 235 -19 55z"/>
<path d="M2080 2979 c0 -12 -14 -47 -32 -78 -58 -105 -130 -226 -158 -266 -32
-48 -42 -82 -27 -93 7 -4 20 -20 30 -37 10 -16 39 -65 65 -108 26 -43 60 -102
75 -130 50 -91 97 -156 130 -181 77 -58 368 -226 392 -226 23 0 199 98 361
201 33 22 65 39 70 40 5 0 23 27 39 59 30 59 180 310 216 362 23 32 24 67 3
93 -21 27 -116 186 -155 259 -17 33 -38 66 -46 74 -8 8 -12 23 -10 33 3 12 0
19 -9 19 -29 0 -24 -28 19 -101 24 -41 79 -132 121 -203 l76 -128 -36 -57
c-129 -206 -214 -348 -214 -361 -1 -15 -54 -50 -265 -173 -66 -38 -127 -76
-136 -83 -8 -8 -22 -14 -29 -14 -15 0 -166 89 -327 193 l-92 59 -73 126 c-100
177 -167 285 -186 300 -14 11 -14 13 0 25 16 12 130 198 198 323 19 36 31 68
27 78 -9 23 -27 20 -27 -5z"/>
<path d="M2541 2764 c0 -11 3 -14 6 -6 3 7 2 16 -1 19 -3 4 -6 -2 -5 -13z"/>
<path d="M1927 2578 c-7 -4 98 -7 233 -7 135 0 241 2 235 4 -20 8 -457 10
-468 3z"/>
<path d="M2880 2582 c-131 -4 -116 -19 22 -21 135 -2 302 8 293 18 -7 6 -172
8 -315 3z"/>
<path d="M2580 2519 c0 -5 5 -7 10 -4 6 3 10 8 10 11 0 2 -4 4 -10 4 -5 0 -10
-5 -10 -11z"/>
<path d="M2535 2405 c2 -22 7 -143 11 -268 4 -126 9 -224 13 -219 10 17 -6
475 -18 502 -10 23 -11 21 -6 -15z"/>
<path d="M2571 2394 c0 -11 3 -14 6 -6 3 7 2 16 -1 19 -3 4 -6 -2 -5 -13z"/>
<path d="M900 3585 c0 -6 131 -109 165 -129 27 -16 26 -14 -8 17 -38 35 -157
120 -157 112z"/>
<path d="M3310 3575 c0 -8 -17 -32 -38 -54 l-37 -39 58 -52 c109 -98 245 -290
285 -402 9 -27 19 -48 23 -48 19 0 124 51 122 59 -8 33 -92 192 -143 270 -59
90 -234 281 -258 281 -7 0 -12 -7 -12 -15z m107 -107 c90 -93 189 -236 240
-347 19 -40 32 -75 31 -76 -12 -10 -49 -25 -61 -25 -9 0 -32 34 -54 78 -22 43
-56 103 -76 134 -44 66 -174 218 -187 218 -5 0 -14 8 -19 18 -8 14 -5 26 12
50 12 17 25 32 28 32 3 0 42 -37 86 -82z"/>
<path d="M1550 3576 c0 -2 8 -10 18 -17 15 -13 16 -12 3 4 -13 16 -21 21 -21
13z"/>
<path d="M3471 3527 c-13 -21 -12 -21 5 -5 10 10 16 20 13 22 -3 3 -11 -5 -18
-17z"/>
<path d="M2120 3471 c0 -6 4 -13 10 -16 6 -3 7 1 4 9 -7 18 -14 21 -14 7z"/>
<path d="M1106 3422 c62 -53 325 -233 335 -230 5 2 -41 36 -102 76 -61 40
-118 80 -127 88 -60 51 -91 74 -103 74 -8 0 -9 -3 -3 -8z"/>
<path d="M1610 3070 c0 -5 5 -10 11 -10 5 0 7 5 4 10 -3 6 -8 10 -11 10 -2 0
-4 -4 -4 -10z"/>
<path d="M0 2570 c0 -19 7 -20 128 -20 71 0 131 3 135 6 3 3 3 12 0 20 -4 11
-33 14 -134 14 -122 0 -129 -1 -129 -20z"/>
<path d="M3970 2573 c-68 -2 -129 -8 -134 -13 -7 -7 148 -9 444 -8 295 2 455
7 455 13 0 10 -490 15 -765 8z"/>
<path d="M4886 2533 c-3 -4 -6 -17 -6 -31 0 -20 4 -23 23 -18 12 3 66 6 120 6
90 0 97 1 97 20 0 18 -7 20 -57 21 -32 0 -83 2 -115 4 -31 2 -59 1 -62 -2z"/>
<path d="M933 2493 c9 -2 23 -2 30 0 6 3 -1 5 -18 5 -16 0 -22 -2 -12 -5z"/>
<path d="M1770 2170 c-25 -16 -74 -46 -110 -66 -35 -21 -59 -39 -53 -41 6 -2
26 6 46 19 19 13 67 41 106 63 39 22 71 43 71 48 0 12 -13 7 -60 -23z"/>
<path d="M3170 2003 c0 -5 19 -23 43 -42 l42 -34 -40 41 c-41 44 -45 47 -45
35z"/>
<path d="M3150 1977 c0 -10 70 -80 75 -75 3 2 -13 22 -35 43 -22 22 -40 36
-40 32z"/>
<path d="M1397 1905 c-25 -19 -50 -35 -56 -35 -5 0 -11 -3 -13 -7 -1 -5 -49
-39 -105 -76 -57 -38 -106 -73 -109 -79 -9 -14 0 -9 120 71 54 36 105 71 115
76 9 6 18 13 21 16 3 3 19 13 36 22 17 9 34 23 37 32 9 21 6 20 -46 -20z"/>
<path d="M3251 1863 c14 -16 40 -44 57 -63 18 -19 32 -30 32 -24 0 6 -23 34
-51 63 -55 54 -81 70 -38 24z"/>
<path d="M934 1617 c-65 -45 -139 -95 -164 -110 -25 -16 -76 -50 -115 -77 -38
-28 -94 -62 -122 -77 -54 -28 -66 -46 -37 -57 43 -16 89 6 194 95 30 25 93 74
140 108 47 34 92 68 100 74 8 7 45 34 83 61 65 46 81 66 54 66 -7 0 -67 -37
-133 -83z"/>
<path d="M1598 1607 c-21 -22 -38 -40 -38 -41 0 -4 -247 -262 -392 -409 -93
-93 -168 -173 -168 -178 0 -21 25 -5 78 53 31 33 83 89 116 122 135 141 205
216 276 295 41 46 98 108 127 137 29 29 50 55 46 57 -5 2 -25 -14 -45 -36z"/>
<path d="M3165 1605 c-53 -46 -192 -118 -290 -150 -92 -31 -288 -57 -378 -49
-60 5 -210 34 -272 53 -56 17 -188 81 -234 114 -63 45 -71 50 -71 39 0 -5 19
-22 43 -38 23 -16 44 -31 47 -34 9 -11 81 -50 90 -50 5 0 35 -12 66 -26 32
-14 112 -37 178 -51 108 -23 136 -25 261 -20 141 6 149 7 195 20 14 4 43 13
65 18 129 35 360 164 348 195 -6 17 -1 20 -48 -21z"/>
<path d="M2550 1525 c0 -57 4 -95 10 -95 6 0 10 38 10 95 0 57 -4 95 -10 95
-6 0 -10 -38 -10 -95z"/>
<path d="M3244 1542 c11 -34 -79 -93 -264 -174 -165 -72 -443 -100 -623 -63
-179 37 -345 103 -452 179 -52 37 -65 43 -65 27 0 -22 203 -131 320 -172 149
-53 217 -63 405 -63 167 0 187 2 279 28 159 45 323 122 415 194 l24 19 -23 23
c-21 21 -22 21 -16 2z"/>
<path d="M1899 1338 c-43 -91 -231 -466 -289 -573 -61 -113 -64 -119 -70 -125
-3 -3 -14 -21 -24 -40 -11 -19 -40 -66 -64 -103 -42 -65 -44 -69 -26 -82 38
-29 24 -51 212 335 269 552 319 660 303 660 -5 0 -24 -33 -42 -72z"/>
<path d="M1003 1323 c9 -2 23 -2 30 0 6 3 -1 5 -18 5 -16 0 -22 -2 -12 -5z"/>
<path d="M418 1233 c-42 -35 -42 -36 -13 -29 17 4 39 16 51 27 11 10 26 19 32
19 7 0 12 5 12 10 0 21 -40 8 -82 -27z"/>
<path d="M3860 1250 c0 -5 15 -26 33 -47 41 -47 246 -253 252 -253 3 0 5 8 5
17 0 16 -267 293 -282 293 -5 0 -8 -4 -8 -10z"/>
<path d="M2553 625 c1 -610 2 -625 20 -625 19 0 20 7 14 173 -7 256 -16 730
-17 915 0 92 -4 162 -9 162 -6 0 -9 -249 -8 -625z"/>
<path d="M3356 1067 c3 -10 9 -15 12 -12 3 3 0 11 -7 18 -10 9 -11 8 -5 -6z"/>
<path d="M3510 823 c0 -13 5 -23 10 -23 13 0 13 11 0 30 -8 12 -10 11 -10 -7z"/>
<path d="M3550 736 c0 -2 7 -9 15 -16 13 -11 14 -10 9 4 -5 14 -24 23 -24 12z"/>
<path d="M3590 681 c0 -6 4 -13 10 -16 6 -3 7 1 4 9 -7 18 -14 21 -14 7z"/>
<path d="M3630 609 c0 -12 52 -100 57 -96 2 3 -9 27 -26 53 -17 27 -31 46 -31
43z"/>
<path d="M1425 351 c-18 -30 -62 -152 -55 -156 8 -5 30 38 30 60 0 8 5 15 12
15 6 0 8 3 5 6 -3 4 -2 15 4 26 18 33 22 77 4 49z"/>
<path d="M1340 159 c0 -5 5 -7 10 -4 6 3 10 8 10 11 0 2 -4 4 -10 4 -5 0 -10
-5 -10 -11z"/>
</g>
</svg>
