<?xml version="1.0" standalone="no"?>
<!DOCTYPE svg PUBLIC "-//W3C//DTD SVG 20010904//EN"
 "http://www.w3.org/TR/2001/REC-SVG-20010904/DTD/svg10.dtd">
<svg version="1.0" xmlns="http://www.w3.org/2000/svg"
 width="512.000000pt" height="768.000000pt" viewBox="0 0 512.000000 768.000000"
 preserveAspectRatio="xMidYMid meet">
<metadata>
Created by potrace 1.16, written by Peter Selinger 2001-2019
</metadata>
<g transform="translate(0.000000,768.000000) scale(0.100000,-0.100000)"
fill="#000000" stroke="none">
<path d="M181 7664 c7 -9 24 -20 38 -25 l24 -10 -6 -197 c-4 -108 -3 -225 1
-259 10 -74 1 -71 -43 14 -16 32 -31 60 -32 62 -2 2 -6 2 -9 -2 -11 -11 17
-77 53 -124 l35 -45 -5 -3539 c-2 -2010 -1 -3539 4 -3539 5 0 10 138 10 308 1
169 2 312 4 317 1 6 3 1457 4 3225 l2 3215 25 -50 c28 -54 83 -134 121 -176
23 -25 24 -28 21 -212 -3 -203 -3 -201 -58 -172 -17 9 -30 11 -30 6 0 -13 58
-44 69 -37 7 5 23 -264 15 -272 -1 -2 -7 12 -13 32 -5 20 -28 67 -52 104 -49
79 -48 77 -55 70 -3 -3 12 -32 32 -64 21 -33 48 -83 60 -112 20 -51 22 -52 39
-36 15 16 17 33 11 148 l-5 131 97 -2 c128 -2 122 -2 122 -11 0 -5 -16 -27
-36 -51 -35 -41 -42 -70 -8 -37 9 9 18 15 20 13 2 -2 4 -1302 4 -2890 0 -1873
4 -2888 10 -2892 7 -4 10 1003 10 2895 0 2754 1 2940 25 2940 3 0 5 -1378 5
-3062 0 -1683 2 -3063 4 -3065 13 -14 17 809 14 3314 l-3 2832 43 12 c44 12
65 29 37 29 -8 0 -31 -7 -50 -14 l-35 -15 -2 72 -2 72 -3 -60 c-4 -77 -9 -91
-27 -76 -7 6 -16 8 -19 5 -3 -3 -11 -3 -17 1 -8 5 -6 11 5 19 18 13 33 122 15
111 -5 -3 -10 -28 -10 -54 0 -54 -15 -66 -93 -76 l-42 -6 32 15 c30 14 53 42
53 65 0 19 -19 12 -58 -23 -20 -19 -48 -36 -62 -37 -23 -4 -25 -1 -28 45 -3
41 -1 48 12 43 11 -5 16 0 16 12 0 11 3 27 7 36 5 14 2 16 -17 10 -20 -6 -22
-5 -17 16 4 13 7 61 7 107 l0 83 105 -91 c57 -50 107 -95 110 -100 3 -5 -9 -5
-27 1 -41 11 -111 12 -104 0 3 -4 37 -11 76 -14 l71 -6 137 -139 c205 -208
318 -270 629 -348 159 -39 316 -65 302 -50 -3 4 -44 13 -90 21 -133 23 -349
83 -414 115 -106 53 -155 118 -155 206 0 43 -16 44 -25 3 -10 -43 3 -119 20
-119 7 0 20 -6 28 -14 8 -8 31 -26 52 -40 69 -47 20 -27 -86 36 -83 48 -127
84 -215 173 -62 61 -119 125 -127 142 -19 37 -34 128 -41 252 -4 70 -10 99
-23 114 -10 10 -16 30 -15 44 3 23 1 25 -22 19 -18 -4 -26 -2 -26 6 0 9 -3 9
-10 -2 -18 -29 -23 0 -6 43 9 23 16 56 16 72 0 21 -9 5 -30 -54 -16 -46 -32
-86 -34 -88 -6 -6 -25 92 -28 146 -2 26 -9 46 -16 49 -10 3 -12 -4 -8 -29 3
-19 8 -51 11 -71 13 -99 74 -265 144 -394 16 -30 25 -54 20 -54 -5 0 -12 7
-15 15 -3 8 -51 51 -105 95 -113 93 -189 181 -248 290 l-41 75 0 260 -1 260
-24 28 c-26 30 -79 41 -54 11z m452 -714 c36 -20 45 -50 47 -160 0 -36 7 -92
14 -125 14 -56 14 -90 0 -49 -3 10 -30 73 -59 139 -62 140 -80 197 -71 220 5
14 9 15 21 5 8 -7 30 -20 48 -30z m12 30 c3 -5 -1 -10 -9 -10 -8 0 -18 5 -21
10 -3 6 1 10 9 10 8 0 18 -4 21 -10z m-198 -422 c-3 -8 -6 -5 -6 6 -1 11 2 17
5 13 3 -3 4 -12 1 -19z m113 -83 c-7 -8 -17 -15 -23 -15 -5 0 -2 9 8 20 21 23
35 19 15 -5z"/>
<path d="M610 6939 c0 -14 38 -44 46 -36 2 2 -7 14 -21 27 -17 16 -25 19 -25
9z"/>
<path d="M240 7674 c0 -26 67 -97 130 -136 44 -26 73 -52 78 -67 7 -20 10 -22
14 -9 9 23 -17 55 -77 93 -28 19 -73 55 -98 82 -26 26 -47 43 -47 37z"/>
<path d="M487 7666 c-4 -10 -1 -13 9 -9 15 6 19 23 5 23 -5 0 -11 -7 -14 -14z"/>
<path d="M546 7665 c-4 -11 -12 -29 -17 -40 -9 -19 -9 -18 -5 3 6 33 -2 27
-19 -14 -18 -43 -20 -82 -3 -46 6 12 15 22 19 22 13 0 41 60 36 78 -3 15 -5
14 -11 -3z"/>
<path d="M580 7675 c0 -3 23 -56 51 -118 41 -91 52 -128 60 -197 5 -47 12 -96
15 -110 3 -14 8 -45 9 -69 6 -77 66 -181 148 -256 111 -103 188 -136 412 -180
134 -26 244 -70 338 -133 23 -16 84 -50 134 -77 94 -49 122 -75 38 -36 -126
59 -309 67 -404 17 -66 -34 -81 -34 -81 3 0 16 5 31 12 33 7 3 8 10 3 17 -11
18 -34 -23 -35 -61 0 -23 -5 -28 -35 -34 -21 -4 -34 -11 -32 -18 5 -11 11 -12
37 -2 11 5 15 -2 16 -26 1 -51 32 -106 103 -181 67 -70 150 -127 186 -126 13
0 2 9 -30 26 -59 31 -99 62 -136 109 -15 19 -31 34 -36 32 -4 -2 -23 26 -41
62 -37 74 -40 123 -7 125 18 1 20 -5 22 -59 2 -58 18 -124 28 -114 3 3 0 29
-6 57 -26 122 15 163 171 169 147 6 255 -26 445 -134 61 -34 153 -84 205 -112
58 -31 95 -56 94 -66 -1 -8 4 -12 10 -10 6 2 21 -5 33 -16 12 -11 29 -20 37
-20 8 0 18 -4 21 -10 9 -15 25 -12 25 5 0 17 13 19 58 6 34 -10 40 -7 20 12
-15 14 -57 14 -83 0 -13 -8 -22 -6 -34 4 -42 38 -122 91 -200 133 -145 79
-268 181 -308 255 -10 19 -18 64 -21 119 -5 93 -22 102 -22 10 0 -66 23 -142
53 -174 13 -15 39 -44 57 -65 30 -36 29 -35 -16 8 -28 26 -53 45 -57 41 -8 -9
-198 127 -251 180 -53 53 -98 106 -90 106 4 0 -5 9 -19 20 -27 22 -105 175
-130 255 -18 60 -31 126 -52 260 -9 55 -20 104 -25 109 -13 13 -13 -7 -1 -54
5 -19 12 -57 16 -85 l7 -50 -51 70 c-28 38 -52 74 -54 80 -3 5 -8 7 -12 3 -4
-4 20 -45 53 -92 50 -70 63 -96 72 -148 16 -88 62 -201 120 -298 66 -110 109
-160 183 -216 99 -75 103 -87 7 -18 -77 55 -151 95 -162 88 -6 -4 -8 -3 -5 3
3 5 -20 27 -53 48 -32 21 -58 41 -57 44 1 3 -8 31 -20 61 -11 30 -25 64 -29
75 -7 20 -8 20 -11 -1 -2 -11 6 -42 19 -70 12 -27 24 -53 26 -59 3 -5 -24 17
-58 50 -64 62 -89 104 -91 152 0 24 -1 25 -8 8 -5 -11 -4 -30 0 -43 6 -16 6
-21 -2 -17 -16 11 -28 49 -17 56 6 4 7 17 2 30 l-8 24 -7 -25 c-14 -50 -9 13
6 69 12 47 12 55 -1 68 -8 9 -16 14 -17 12 -8 -12 -23 -88 -16 -84 4 3 7 -15
7 -40 -1 -28 -4 -41 -9 -33 -7 10 -9 9 -9 -4 0 -19 -10 -23 -25 -9 -6 4 -42
20 -82 35 -82 31 -148 75 -158 105 -6 20 -25 29 -25 12 0 -18 47 -77 78 -98
19 -12 70 -34 115 -48 45 -15 89 -33 98 -41 24 -21 35 -17 14 6 -10 11 -13 20
-8 20 14 0 37 -29 30 -36 -3 -4 4 -15 16 -26 20 -17 19 -17 -21 2 -23 11 -68
29 -100 39 -31 10 -66 22 -77 27 -18 7 -18 6 -7 -9 17 -20 100 -59 167 -77 37
-10 74 -33 143 -92 52 -43 112 -88 134 -99 52 -26 45 -32 -18 -14 -27 8 -102
26 -166 40 -65 15 -146 40 -180 58 -144 71 -277 258 -286 402 -9 149 45 239
202 336 l80 49 12 -48 c6 -26 14 -60 18 -75 l7 -28 -46 7 c-56 7 -59 -8 -5
-29 29 -11 40 -21 40 -36 0 -12 5 -21 10 -21 6 0 10 9 10 20 0 18 11 25 33 21
5 -1 6 11 3 26 -6 27 21 84 88 186 10 15 14 27 9 27 -14 0 -126 -187 -119
-198 3 -6 -1 -15 -9 -22 -12 -10 -13 -6 -9 22 3 19 -1 58 -10 88 -20 68 -20
67 7 73 12 4 31 13 42 22 l20 16 -20 -4 c-11 -3 -29 -8 -39 -13 -13 -5 -17 -4
-13 3 5 7 0 9 -13 6 -11 -3 -20 -9 -20 -13 0 -4 -33 -26 -72 -50 -139 -82
-185 -132 -210 -225 -7 -25 -16 -45 -21 -45 -4 0 -6 8 -3 18 9 28 -11 121 -39
177 -13 28 -33 71 -44 98 -11 26 -25 47 -30 47 -6 0 -11 -2 -11 -5z m239 -674
c25 -34 27 -40 9 -23 -13 12 -34 41 -47 65 -12 23 -16 33 -9 23 7 -10 28 -40
47 -65z"/>
<path d="M820 7613 c0 -48 3 -64 10 -53 13 20 13 120 0 120 -6 0 -10 -29 -10
-67z"/>
<path d="M1365 7669 c-4 -6 -5 -12 -2 -15 2 -3 7 2 10 11 7 17 1 20 -8 4z"/>
<path d="M1422 7667 c-6 -6 -21 -31 -34 -54 l-24 -43 -47 30 c-26 16 -47 27
-47 24 0 -14 80 -80 84 -70 3 7 5 7 5 -1 1 -6 -5 -18 -12 -25 -23 -24 -39
-140 -32 -225 12 -121 26 -133 19 -16 -5 88 -3 111 16 170 23 74 70 165 103
201 l20 22 -20 0 c-11 0 -25 -6 -31 -13z"/>
<path d="M2595 7669 c-4 -6 -4 -13 -1 -16 3 -4 6 -1 6 6 0 7 5 9 12 5 7 -4 8
-3 4 4 -9 15 -13 15 -21 1z"/>
<path d="M3707 7623 c71 -111 124 -265 110 -319 -3 -11 -5 -6 -6 14 -2 67 -88
277 -122 298 -15 9 -10 -6 12 -37 29 -41 74 -146 88 -204 15 -63 18 -302 5
-334 -8 -17 -9 1 -6 66 4 78 1 97 -18 139 -13 27 -24 56 -25 65 -2 18 -56 99
-80 119 -10 8 -19 10 -25 4 -12 -12 9 -53 60 -114 62 -75 84 -131 77 -205 -6
-61 -25 -131 -54 -193 -19 -44 -28 -34 -12 15 20 63 17 171 -8 226 -12 26 -26
47 -32 47 -20 0 -24 -69 -6 -115 16 -42 43 -66 31 -27 -9 29 -24 112 -19 112
2 0 8 -12 14 -27 14 -36 21 -205 8 -198 -5 4 -9 14 -9 23 0 10 -9 34 -20 55
-11 20 -20 49 -21 64 0 27 -1 27 -11 7 -8 -17 -5 -33 12 -70 37 -82 41 -112
20 -166 -21 -57 -85 -144 -149 -206 -59 -57 -171 -144 -171 -134 0 5 9 17 19
26 41 37 102 246 72 246 -6 0 -11 -10 -12 -22 -1 -22 -1 -22 -8 2 -7 24 -8 24
-18 5 -12 -23 -29 -143 -19 -134 6 6 13 42 15 77 2 22 21 13 21 -11 0 -46 -66
-162 -116 -205 -26 -22 -50 -40 -51 -38 -2 1 6 21 17 44 11 23 21 52 23 64 2
21 -2 23 -40 21 -23 -1 -75 -17 -117 -37 l-76 -34 32 61 c18 36 63 97 109 145
54 57 79 91 79 108 0 13 -2 24 -5 24 -2 0 -37 -41 -76 -91 -39 -49 -73 -88
-75 -86 -4 4 22 186 31 207 3 9 25 31 50 50 24 19 54 55 67 80 12 25 24 47 25
50 2 3 -10 6 -27 7 -24 2 -31 -3 -36 -21 -3 -13 -20 -38 -38 -55 l-32 -31 -24
75 c-13 42 -27 78 -30 80 -3 2 -5 -61 -4 -141 1 -79 -1 -144 -5 -144 -13 1
-72 80 -66 90 3 6 -1 7 -9 4 -24 -9 -20 -20 35 -86 l52 -62 -6 -68 c-7 -77
-38 -156 -88 -218 -39 -48 -51 -51 -38 -8 11 41 12 78 0 78 -4 0 -14 -21 -21
-47 -7 -27 -30 -84 -50 -129 -40 -86 -99 -146 -144 -146 -13 0 -23 -7 -23 -14
0 -17 1 -17 37 1 18 9 30 11 30 5 0 -16 78 28 113 64 18 18 44 57 59 87 14 30
37 66 50 80 46 52 277 144 241 97 -5 -7 -18 -35 -27 -61 -16 -41 -28 -55 -85
-91 -100 -66 -341 -199 -347 -193 -3 3 -26 -3 -51 -14 -25 -10 -49 -17 -53
-14 -5 3 -11 1 -15 -5 -11 -18 -32 -11 -39 13 -3 12 -8 63 -10 112 -2 50 0 77
3 60 4 -20 9 -26 14 -18 4 7 3 22 -3 33 -6 11 -9 28 -6 38 18 67 18 67 6 55
-7 -6 -16 -26 -20 -45 l-8 -33 -1 40 c-1 28 -4 36 -10 25 -6 -8 -7 -18 -5 -22
3 -4 1 -8 -4 -8 -17 0 -20 36 -6 69 7 17 18 31 24 31 6 0 10 8 8 18 -3 21 42
123 51 117 4 -2 6 9 5 23 0 15 2 29 6 32 7 5 60 161 60 176 0 17 -30 -21 -31
-40 0 -21 0 -21 -11 2 -6 12 -15 22 -19 22 -9 0 -1 -28 13 -46 5 -7 2 -27 -8
-49 -14 -35 -16 -36 -29 -19 -7 10 -11 23 -7 28 3 5 -2 6 -12 3 -10 -4 -20 -7
-23 -7 -3 0 6 -12 21 -26 29 -29 34 -49 11 -41 -8 4 -17 1 -21 -5 -5 -7 -2 -8
6 -3 8 5 11 3 8 -6 -3 -8 -11 -13 -17 -11 -7 1 -10 -2 -7 -7 6 -9 -22 -72 -37
-82 -5 -4 -8 -12 -5 -19 2 -8 13 1 26 21 12 19 22 30 22 26 0 -14 -22 -51 -38
-63 -8 -6 -16 -27 -17 -48 -1 -20 -5 -39 -7 -42 -7 -7 -20 45 -14 55 3 4 8 41
12 82 3 41 15 96 25 123 40 99 123 191 207 228 34 16 42 22 31 30 -11 8 -10 9
4 4 19 -6 61 12 110 46 16 11 26 22 24 24 -6 6 -159 -52 -198 -75 l-35 -21 4
34 c4 35 -11 76 -29 76 -6 0 -6 -7 1 -19 16 -31 12 -80 -9 -103 l-20 -20 -6
36 c-4 20 -11 36 -16 36 -12 0 -11 -22 0 -53 7 -19 5 -28 -10 -40 -18 -16 -19
-16 -19 0 0 22 -10 11 -15 -17 -6 -33 -25 -50 -25 -22 0 11 -5 33 -12 47 -13
30 4 81 24 69 7 -4 8 -3 4 5 -5 7 9 34 33 66 23 30 41 61 41 69 0 9 11 23 25
32 28 18 33 34 10 34 -8 0 -21 -15 -29 -33 -9 -17 -36 -57 -61 -87 -25 -30
-54 -73 -64 -95 l-20 -40 4 145 c3 91 1 139 -5 130 -5 -8 -13 -11 -17 -6 -4 4
0 13 9 20 13 9 18 30 20 69 2 32 6 57 11 57 5 0 5 -9 2 -20 -4 -11 -2 -20 4
-20 6 0 11 7 11 16 0 9 28 45 62 80 35 37 55 64 46 64 -8 0 -39 -25 -68 -56
-29 -30 -54 -54 -56 -52 -2 2 7 35 21 74 13 38 26 87 30 109 l6 40 -29 -33
-29 -32 -2 47 c-1 26 -6 52 -11 57 -13 13 -12 18 -15 -107 -2 -60 -6 -111 -10
-115 -5 -4 -6 3 -3 15 3 12 2 23 -3 25 -5 2 -10 21 -11 43 -1 43 -22 95 -38
95 -14 0 -12 -13 10 -72 11 -29 20 -60 20 -68 0 -8 7 -27 14 -42 8 -16 11 -28
6 -28 -5 0 -19 20 -31 45 -26 51 -59 88 -59 64 0 -8 14 -34 30 -58 50 -73 69
-171 22 -111 -48 61 -121 134 -128 127 -4 -3 30 -45 75 -92 44 -48 81 -93 81
-102 0 -9 -14 4 -31 28 -32 45 -107 119 -122 119 -5 0 19 -30 53 -67 34 -38
68 -79 75 -93 14 -28 28 -108 17 -94 -88 105 -133 172 -119 177 8 2 8 5 -1 11
-7 4 -12 2 -12 -3 0 -6 -8 -11 -17 -11 -14 0 -12 -4 7 -25 29 -30 20 -45 -9
-16 -30 30 -39 26 -11 -4 13 -14 29 -24 35 -21 6 2 24 -10 40 -27 23 -22 25
-27 9 -19 -57 30 -154 59 -154 47 0 -12 68 -45 93 -45 59 0 147 -115 155 -203
5 -49 4 -51 -13 -37 -10 8 -13 16 -6 18 13 4 -38 72 -94 124 -53 49 -59 28 -7
-25 23 -23 46 -55 51 -70 6 -16 15 -25 21 -22 5 3 10 0 10 -7 0 -7 9 -24 20
-38 11 -14 20 -31 20 -39 0 -21 -27 5 -45 43 -16 33 -37 46 -124 77 -30 10
-60 24 -67 30 -11 9 -14 8 -14 -4 0 -15 112 -77 138 -77 16 0 93 -91 108 -127
8 -17 15 -77 18 -131 2 -55 7 -105 11 -111 3 -7 1 -18 -5 -27 -8 -9 -11 -31
-8 -59 3 -25 2 -42 -3 -39 -5 3 -9 9 -9 14 0 4 -13 21 -28 38 -16 16 -39 44
-53 62 -13 17 -30 38 -36 45 -7 8 -13 17 -13 22 0 29 -182 185 -198 169 -8 -8
14 -31 61 -62 57 -38 97 -75 97 -90 0 -7 24 -41 52 -76 30 -35 51 -71 50 -81
-2 -9 7 -33 19 -53 17 -29 20 -45 16 -83 -4 -33 -1 -57 10 -77 8 -16 16 -45
16 -65 1 -21 5 -35 10 -32 12 7 8 46 -8 77 -18 34 -19 44 -3 28 20 -20 28 -14
28 25 0 20 2 34 5 31 7 -6 12 -30 26 -123 13 -79 22 -100 19 -40 -2 22 -2 54
0 70 l3 30 7 -35 c7 -34 7 -34 8 -5 0 17 -3 39 -7 49 -7 19 -8 18 -15 -5 -4
-13 -9 -19 -11 -14 -7 20 -11 135 -5 135 9 0 36 -65 45 -105 15 -65 15 -98 1
-127 -14 -27 -14 -29 5 -23 13 4 19 2 19 -9 0 -9 -8 -16 -17 -16 -13 0 -14 -3
-6 -8 23 -14 112 0 150 24 17 10 21 11 18 2 -3 -7 -19 -21 -35 -30 -32 -18
-41 -48 -14 -48 8 0 13 4 10 8 -11 19 10 31 39 23 l30 -9 -30 -2 c-19 -2 -23
-4 -12 -7 10 -3 32 0 49 6 37 13 49 7 19 -9 -29 -15 -74 -22 -141 -23 -30 0
-48 -2 -40 -5 8 -3 17 -9 20 -13 3 -4 26 -9 50 -11 36 -3 44 -7 42 -21 -2 -9
2 -17 9 -17 7 0 9 9 5 25 -5 19 -2 25 9 25 28 0 72 28 78 50 5 18 1 20 -51 20
l-56 0 69 43 c91 57 273 155 405 218 147 71 234 91 393 91 70 0 131 -2 134 -6
12 -11 18 -132 10 -176 -5 -25 -20 -60 -34 -78 -30 -40 -119 -108 -181 -138
-62 -31 -31 -31 34 0 70 32 174 133 212 204 33 62 51 136 34 146 -5 3 -12 -16
-16 -46 -7 -47 -30 -108 -42 -108 -2 0 0 10 7 21 6 12 10 55 9 98 -3 94 -2
101 10 101 6 0 8 -11 4 -27 -7 -26 -6 -27 10 -10 9 9 15 21 11 26 -3 6 6 18
20 27 13 9 22 20 19 25 -3 5 -20 -1 -37 -13 -29 -21 -47 -24 -202 -29 -134 -5
-183 -11 -234 -28 -35 -12 -66 -19 -68 -17 -2 2 12 9 33 16 55 18 180 80 259
127 66 40 417 167 429 156 2 -3 33 10 68 28 93 49 188 149 233 246 19 43 43
94 53 113 10 20 53 63 102 102 l84 68 14 -35 c12 -29 17 -33 28 -24 8 6 14 19
13 28 0 11 -2 12 -6 3 -3 -9 -10 -7 -24 9 -20 23 -24 39 -11 39 5 0 14 -10 21
-22 10 -20 11 -20 7 -3 -2 11 -7 27 -10 35 -12 30 52 108 124 151 37 22 76 49
85 59 10 11 22 20 27 20 4 0 8 -109 8 -242 0 -235 -1 -245 -24 -295 -57 -121
-138 -224 -253 -318 -37 -31 -94 -84 -127 -118 -32 -34 -55 -56 -51 -49 3 7 8
25 10 40 2 15 9 59 14 97 6 39 11 98 11 132 l0 62 38 11 c56 14 73 37 62 80
-11 46 -34 108 -43 116 -14 14 -7 -26 13 -76 25 -64 25 -77 0 -90 -11 -6 -20
-7 -19 -3 4 25 -5 23 -38 -8 -26 -24 -67 -46 -128 -68 -109 -39 -135 -52 -135
-64 0 -5 6 -7 13 -4 33 15 185 75 204 81 20 6 22 4 18 -26 -3 -18 -10 -82 -15
-143 -9 -87 -17 -119 -37 -155 -35 -60 -193 -222 -265 -271 -79 -54 -269 -139
-343 -153 -28 -6 -28 -5 5 8 180 74 195 83 232 132 37 48 42 64 21 71 -6 2
-13 -9 -16 -24 -3 -15 -20 -44 -37 -63 -32 -35 -28 -23 16 44 13 21 15 31 6
34 -7 2 -12 21 -12 42 0 40 -14 60 -32 42 -6 -6 -2 -27 12 -60 l22 -51 -28
-41 c-19 -26 -48 -49 -84 -66 -30 -14 -82 -39 -115 -55 -33 -16 -118 -45 -190
-64 -71 -19 -131 -40 -133 -45 -2 -6 -13 -10 -25 -11 -13 0 -16 -3 -9 -6 8 -3
24 0 35 6 12 6 103 32 202 57 169 43 323 97 418 146 77 39 143 96 278 238 74
78 180 182 237 232 l102 89 0 -185 0 -185 -32 10 c-41 11 -78 12 -78 0 0 -4
23 -11 51 -14 29 -4 53 -8 55 -10 2 -1 3 -66 4 -142 2 -219 3 -205 -23 -205
-26 0 -77 44 -77 66 0 17 -22 14 -27 -3 -4 -12 96 -93 115 -93 9 0 12 -676 12
-2770 l0 -2770 -25 -16 c-14 -9 -39 -38 -57 -65 -21 -33 -34 -45 -39 -37 -4 7
4 27 20 47 40 51 45 73 21 99 -25 27 -61 28 -83 4 -21 -23 -21 -46 -1 -77 19
-30 39 -34 24 -5 -9 16 -8 20 5 20 9 0 13 5 10 10 -4 6 -1 17 5 25 10 12 10
15 0 15 -6 0 -14 -9 -17 -20 -7 -26 -23 -26 -23 0 0 24 39 43 58 28 17 -15 15
-35 -9 -85 -21 -43 -22 -44 -41 -26 -11 10 -28 34 -38 53 -16 32 -18 80 -21
485 -2 248 -3 1567 -1 2932 l2 2482 46 -19 c52 -23 54 -23 54 -12 0 4 -27 21
-60 37 l-60 30 0 56 c0 83 9 117 29 112 24 -6 92 26 98 46 2 10 20 23 39 30
19 7 34 19 34 27 0 11 -4 12 -17 4 -10 -5 -30 -14 -45 -20 -17 -6 -26 -15 -22
-23 5 -15 -52 -46 -96 -52 -24 -3 -30 -23 -30 -96 0 -43 -2 -79 -4 -79 -2 0
-23 11 -47 24 -24 14 -47 22 -52 19 -5 -3 18 -21 52 -40 59 -33 61 -35 61 -76
0 -23 0 -1336 0 -2917 1 -1581 4 -2890 8 -2908 4 -17 29 -62 56 -98 26 -36 47
-66 45 -68 -168 -124 -240 -218 -238 -313 1 -35 2 -33 15 22 22 89 81 169 175
235 l56 39 16 -35 c9 -19 35 -54 57 -78 64 -69 55 -109 -30 -127 -39 -8 -64
-21 -89 -46 -43 -43 -32 -58 12 -15 20 19 51 35 82 43 68 16 85 33 85 85 0 23
3 44 8 46 30 14 85 92 93 130 11 57 24 5353 14 5751 -4 169 -9 306 -12 304 -2
-3 -4 -1344 -3 -2981 0 -2221 -3 -2994 -11 -3044 -10 -58 -17 -72 -58 -114
l-46 -47 -33 32 c-19 18 -40 45 -48 60 -17 31 -22 27 97 71 50 18 95 58 84 75
-11 19 -60 12 -95 -14 -41 -30 -21 -33 26 -4 19 11 38 17 44 14 19 -12 -8 -33
-81 -60 -38 -15 -71 -31 -75 -36 -3 -5 -10 -7 -15 -4 -14 9 36 99 75 133 l36
32 0 2820 c0 2408 2 2825 14 2848 8 15 26 38 40 51 14 14 26 29 26 34 0 12
-53 -41 -68 -68 -9 -16 -11 5 -12 93 0 61 3 111 8 110 12 -5 92 25 92 34 0 12
-13 10 -53 -7 -20 -8 -40 -15 -44 -15 -4 0 -7 95 -6 212 l3 212 29 30 c33 35
121 169 121 185 0 5 3 12 8 14 4 3 5 -1583 4 -3524 -3 -3073 -2 -3529 11
-3529 12 0 14 460 16 3547 1 2969 4 3550 15 3563 27 31 67 120 64 142 -2 18
-11 6 -40 -52 l-36 -75 -1 250 -1 250 36 25 c42 28 31 39 -15 15 -28 -14 -31
-14 -31 0 0 8 -4 15 -10 15 -5 0 -10 -7 -10 -15 0 -23 -57 -81 -108 -111 -26
-14 -59 -38 -74 -52 -33 -31 -33 -31 -8 44 28 85 26 107 -9 85 -9 -6 -11 -18
-6 -40 10 -47 -6 -37 -50 31 -21 33 -41 56 -43 50 -4 -13 25 -72 36 -72 26 0
54 -101 32 -115 -5 -3 -10 -13 -10 -21 0 -8 4 -12 10 -9 6 3 7 -1 3 -10 -5
-14 -8 -14 -15 -3 -6 9 -7 6 -3 -9 3 -13 2 -23 -2 -23 -11 0 -45 101 -37 109
8 8 23 -21 17 -35 -2 -6 0 -15 5 -18 5 -3 12 8 14 24 3 17 1 30 -4 30 -4 0 -8
7 -8 16 0 13 -2 13 -17 -2 -17 -16 -18 -15 -35 22 -27 59 -21 12 6 -54 13 -31
27 -71 30 -87 7 -32 1 -39 -136 -164 l-37 -34 5 49 c11 95 -51 217 -148 291
-66 51 -172 109 -217 118 -42 9 -35 -6 14 -29 l35 -17 -16 -37 c-9 -20 -20
-48 -26 -62 l-10 -25 -11 23 c-5 12 -14 22 -19 22 -11 0 -11 -1 17 -64 15 -33
31 -56 40 -56 10 0 15 7 13 17 -2 11 6 22 20 28 27 12 24 30 -6 31 -14 1 -23
-7 -27 -25 -7 -24 -8 -25 -15 -6 -4 11 -4 25 1 31 5 6 20 37 32 68 l24 57 75
-50 c90 -61 141 -115 174 -185 29 -62 29 -68 3 -192 -21 -101 -44 -163 -73
-199 -10 -12 -8 -1 7 30 31 63 51 147 42 177 -25 92 -73 173 -92 154 -2 -2 13
-32 33 -66 48 -82 53 -131 24 -213 -32 -88 -71 -140 -143 -190 -88 -63 -127
-81 -289 -133 -145 -47 -182 -64 -296 -137 -34 -22 -65 -38 -68 -35 -2 3 44
36 103 74 108 69 185 130 299 234 36 33 77 60 102 67 55 17 158 66 145 70 -5
2 -42 -10 -82 -26 -40 -16 -70 -24 -68 -18 5 16 36 31 134 68 97 36 127 57
153 110 27 51 12 50 -20 -1 -21 -33 -38 -45 -100 -71 -134 -55 -156 -67 -184
-104 -16 -20 -31 -34 -34 -31 -3 4 4 16 15 29 11 12 36 51 56 87 51 92 72 117
46 55 -11 -27 -24 -54 -30 -59 -5 -6 -9 -14 -9 -19 0 -16 29 14 45 46 19 37
29 127 15 127 -6 0 -10 -6 -10 -12 -1 -7 -20 -45 -43 -84 l-42 -72 0 73 c0 76
-7 97 -27 77 -12 -12 -13 -42 -3 -129 8 -61 7 -62 -29 -99 -20 -20 -36 -43
-36 -51 0 -7 -4 -13 -10 -13 -5 0 -10 21 -10 48 0 26 -5 54 -10 62 -9 14 -6
-47 5 -102 5 -29 -84 -109 -280 -250 -60 -43 -128 -92 -149 -108 -21 -17 -44
-30 -50 -30 -6 0 1 8 14 17 117 80 228 209 316 364 59 106 69 136 84 253 7 51
20 93 50 149 38 75 48 107 33 107 -9 -1 -63 -119 -63 -137 0 -7 -3 -13 -7 -13
-5 0 -9 28 -9 63 -3 108 -102 337 -146 337 -15 0 -12 -9 19 -57z m-1127 -139
c-19 -54 -29 -75 -26 -52 2 20 11 52 19 70 9 18 18 43 22 56 4 13 9 21 11 19
3 -2 -9 -44 -26 -93z m-10 41 c0 -5 -5 -3 -10 5 -5 8 -10 20 -10 25 0 6 5 3
10 -5 5 -8 10 -19 10 -25z m-30 -183 c-7 -13 -9 -8 -9 23 0 35 1 37 10 17 6
-15 5 -30 -1 -40z m1183 -14 l18 -33 -26 30 c-14 17 -31 39 -37 50 -10 19 -10
19 8 3 10 -9 27 -32 37 -50z m-1176 -40 c-3 -7 -5 -2 -5 12 0 14 2 19 5 13 2
-7 2 -19 0 -25z m1280 -40 c-3 -8 -6 -5 -6 6 -1 11 2 17 5 13 3 -3 4 -12 1
-19z m580 -25 c-3 -10 -5 -4 -5 12 0 17 2 24 5 18 2 -7 2 -21 0 -30z m-1864
-46 c-3 -23 -10 -49 -15 -57 -7 -11 -8 -8 -4 10 3 14 6 42 6 63 0 21 4 36 9
33 5 -3 7 -25 4 -49z m1464 -59 c-3 -8 -6 -5 -6 6 -1 11 2 17 5 13 3 -3 4 -12
1 -19z m-744 -79 c-18 -31 -92 -99 -108 -99 -7 0 115 129 123 130 2 0 -5 -14
-15 -31z m-120 -104 c-2 -11 -6 -42 -10 -68 -3 -26 -10 -50 -16 -54 -6 -4 -8
3 -4 18 3 13 9 60 13 104 6 60 10 72 14 50 4 -16 5 -39 3 -50z m-486 -37 c-24
-35 -52 -80 -62 -100 -30 -59 -30 -35 0 29 27 56 83 132 97 133 4 0 -12 -28
-35 -62z m-67 2 c1 -14 2 -34 1 -45 -2 -37 -21 7 -21 50 0 42 17 38 20 -5z
m1615 -15 c-35 -28 -105 -69 -105 -61 0 3 20 17 44 31 23 14 51 34 61 45 10
11 21 18 24 15 3 -3 -8 -17 -24 -30z m-1632 -58 c3 -8 1 -20 -4 -28 -6 -10 -9
-7 -9 14 0 29 5 35 13 14z m97 -128 c-7 -11 -14 -18 -17 -15 -3 3 0 12 7 21
18 21 23 19 10 -6z m-140 -214 c5 -80 4 -103 -2 -99 -3 2 -9 -2 -12 -8 -3 -7
-4 11 -2 40 2 42 -1 58 -20 84 -13 18 -24 41 -24 52 0 17 5 15 30 -14 16 -19
30 -44 30 -55z m790 1 c0 -2 -7 -7 -16 -10 -8 -3 -12 -2 -9 4 6 10 25 14 25 6z
m-358 -64 c-10 -15 -24 -41 -31 -59 -14 -34 -45 -66 -76 -77 -16 -5 -15 -2 6
16 31 27 69 81 69 98 0 16 34 59 43 53 4 -2 -1 -16 -11 -31z m-132 -152 c0 -5
-5 -10 -11 -10 -5 0 -7 5 -4 10 3 6 8 10 11 10 2 0 4 -4 4 -10z"/>
<path d="M3926 7672 c-2 -4 -1 -14 4 -22 7 -11 9 -9 7 8 -1 24 -3 26 -11 14z"/>
<path d="M4283 7624 c7 -77 17 -80 17 -6 0 38 -4 62 -11 62 -7 0 -9 -19 -6
-56z"/>
<path d="M4455 7670 c-3 -5 -1 -10 4 -10 6 0 11 5 11 10 0 6 -2 10 -4 10 -3 0
-8 -4 -11 -10z"/>
<path d="M4507 7604 c-16 -42 -30 -74 -33 -72 -2 2 3 28 11 58 19 69 18 75 0
60 -8 -7 -15 -27 -15 -44 0 -18 -11 -66 -25 -106 -27 -79 -31 -110 -15 -110 6
0 10 9 10 19 0 11 25 70 55 132 53 108 64 139 48 139 -5 0 -21 -34 -36 -76z"/>
<path d="M4645 7670 c4 -6 11 -8 16 -5 14 9 11 15 -7 15 -8 0 -12 -5 -9 -10z"/>
<path d="M4813 7661 c0 -11 5 -18 9 -15 4 3 5 11 1 19 -7 21 -12 19 -10 -4z"/>
<path d="M3970 7668 c0 -4 10 -26 22 -50 21 -40 23 -41 28 -18 4 14 2 27 -4
29 -6 2 -18 14 -28 25 -9 12 -17 18 -18 14z"/>
<path d="M1096 7653 c-12 -12 -5 -23 14 -23 11 0 20 4 20 9 0 11 -26 22 -34
14z"/>
<path d="M3842 7623 c-50 -35 -63 -55 -43 -67 5 -3 11 4 15 17 3 13 22 30 46
41 44 21 55 32 42 40 -4 2 -31 -12 -60 -31z"/>
<path d="M330 7641 c0 -6 4 -13 10 -16 6 -3 7 1 4 9 -7 18 -14 21 -14 7z"/>
<path d="M1246 7635 c4 -8 8 -15 10 -15 2 0 4 7 4 15 0 8 -4 15 -10 15 -5 0
-7 -7 -4 -15z"/>
<path d="M391 7624 c0 -11 3 -14 6 -6 3 7 2 16 -1 19 -3 4 -6 -2 -5 -13z"/>
<path d="M425 7623 c4 -10 22 -54 39 -98 17 -44 35 -87 41 -95 10 -16 12 -21
14 -46 1 -17 191 -210 191 -194 0 12 -45 63 -111 127 -65 62 -69 76 -48 173
11 52 7 92 -6 55 -3 -11 -11 -28 -16 -38 -6 -10 -7 -27 -4 -37 3 -10 2 -21 -3
-24 -5 -3 -20 27 -32 67 -13 39 -29 84 -37 100 -15 30 -40 39 -28 10z"/>
<path d="M4721 7624 c0 -11 3 -14 6 -6 3 7 2 16 -1 19 -3 4 -6 -2 -5 -13z"/>
<path d="M664 7603 c1 -17 5 -34 9 -37 4 -3 5 -3 2 0 -2 4 2 13 10 21 19 19
19 37 1 30 -8 -3 -17 -1 -19 6 -2 7 -4 -2 -3 -20z"/>
<path d="M556 7604 c-4 -9 -4 -19 -1 -22 2 -3 7 3 11 12 4 9 4 19 1 22 -2 3
-7 -3 -11 -12z"/>
<path d="M1416 7573 c-28 -49 -30 -70 -2 -28 9 14 23 36 32 50 9 14 12 25 6
25 -6 0 -22 -21 -36 -47z"/>
<path d="M367 7599 c7 -7 15 -10 18 -7 3 3 -2 9 -12 12 -14 6 -15 5 -6 -5z"/>
<path d="M1083 7595 c0 -8 4 -12 9 -9 4 3 8 9 8 15 0 5 -4 9 -8 9 -5 0 -9 -7
-9 -15z"/>
<path d="M4590 7576 c0 -9 5 -16 10 -16 6 0 10 4 10 9 0 6 -4 13 -10 16 -5 3
-10 -1 -10 -9z"/>
<path d="M2420 7560 c0 -5 5 -10 11 -10 5 0 7 5 4 10 -3 6 -8 10 -11 10 -2 0
-4 -4 -4 -10z"/>
<path d="M2663 7555 c0 -8 4 -12 9 -9 5 3 6 10 3 15 -9 13 -12 11 -12 -6z"/>
<path d="M608 7544 c-5 -4 -8 -19 -8 -34 0 -15 -11 -48 -25 -74 -28 -52 -29
-56 -16 -56 14 0 62 119 59 146 -2 14 -6 22 -10 18z"/>
<path d="M2470 7530 c6 -11 13 -20 16 -20 2 0 0 9 -6 20 -6 11 -13 20 -16 20
-2 0 0 -9 6 -20z"/>
<path d="M2635 7539 c-4 -6 -5 -12 -2 -15 2 -3 7 2 10 11 7 17 1 20 -8 4z"/>
<path d="M4816 7528 c-4 -15 -5 -31 -3 -36 3 -4 7 -92 8 -195 2 -103 6 -192
11 -199 9 -15 9 226 -1 362 -5 71 -9 88 -15 68z"/>
<path d="M187 7519 c6 -6 9 -19 6 -28 -4 -13 -3 -13 5 -2 12 16 5 41 -11 41
-8 0 -8 -3 0 -11z"/>
<path d="M4160 7519 c0 -5 5 -7 10 -4 6 3 10 8 10 11 0 2 -4 4 -10 4 -5 0 -10
-5 -10 -11z"/>
<path d="M1372 7481 c-6 -17 -9 -31 -6 -31 7 0 25 52 20 57 -2 2 -8 -10 -14
-26z"/>
<path d="M350 7481 c0 -6 4 -13 10 -16 6 -3 7 1 4 9 -7 18 -14 21 -14 7z"/>
<path d="M415 7460 c-7 -23 1 -40 19 -40 8 0 19 -6 25 -14 9 -11 8 -17 -7 -28
-16 -11 -19 -24 -17 -83 1 -38 12 -105 24 -148 25 -92 26 -98 5 -69 -15 21
-85 72 -100 72 -4 0 -1 -6 5 -14 8 -10 9 -15 1 -18 -24 -8 4 -37 60 -62 48
-22 60 -32 65 -57 4 -17 9 -28 12 -25 3 3 0 26 -5 53 -52 235 -59 297 -37 329
20 30 12 59 -21 81 -17 11 -21 18 -14 23 8 5 9 10 2 14 -6 3 -13 -3 -17 -14z
m15 -371 c19 -16 31 -29 25 -27 -21 7 -75 43 -75 51 0 14 16 7 50 -24z"/>
<path d="M2734 7458 c-12 -14 -13 -18 -3 -10 9 6 18 10 21 7 2 -3 5 2 5 10 0
19 0 19 -23 -7z"/>
<path d="M193 7435 c0 -22 2 -30 4 -17 2 12 2 30 0 40 -3 9 -5 -1 -4 -23z"/>
<path d="M792 7443 c-8 -15 -32 -134 -32 -156 0 -4 7 -7 16 -7 9 0 14 6 11 13
-2 6 1 47 8 90 7 42 11 77 9 77 -2 0 -7 -8 -12 -17z"/>
<path d="M4000 7456 c0 -2 7 -7 16 -10 8 -3 12 -2 9 4 -6 10 -25 14 -25 6z"/>
<path d="M4676 7431 c-20 -22 -21 -35 -11 -132 6 -60 -10 -161 -41 -263 -4
-12 -2 -16 5 -12 21 13 11 -9 -16 -34 -21 -20 -24 -21 -16 -5 13 24 45 187 38
194 -11 10 -19 -13 -26 -74 -7 -58 -27 -117 -143 -420 -47 -123 0 -49 55 86
66 161 95 214 127 229 25 11 25 13 9 24 -17 13 -23 36 -9 36 4 0 8 10 9 23 3
34 35 181 42 193 3 6 21 32 39 59 32 50 38 65 24 65 -4 0 -21 -22 -37 -49 -29
-51 -52 -61 -35 -16 6 17 6 25 -1 25 -6 0 -9 15 -7 33 2 25 7 31 22 29 11 -2
17 1 14 9 -7 21 -23 21 -42 0z"/>
<path d="M4125 7430 c-3 -5 1 -10 10 -10 9 0 13 5 10 10 -3 6 -8 10 -10 10 -2
0 -7 -4 -10 -10z"/>
<path d="M4335 7420 c5 -15 3 -20 -3 -16 -7 4 -8 -4 -2 -25 5 -18 7 -36 4 -41
-3 -4 2 -15 10 -24 9 -8 16 -27 17 -42 l1 -27 8 28 c6 21 3 41 -11 74 -22 50
-23 57 -10 49 5 -4 7 3 4 14 -3 11 -10 23 -15 26 -6 4 -7 -2 -3 -16z"/>
<path d="M2665 7410 c-10 -11 -23 -20 -29 -20 -7 0 -20 -15 -31 -32 -16 -28
-16 -31 -2 -19 23 18 21 8 -4 -31 -17 -28 -19 -29 -14 -8 4 14 4 21 -1 17 -5
-5 -9 -39 -10 -75 0 -37 -3 -98 -7 -137 l-7 -70 18 55 c26 78 62 127 142 190
37 30 71 61 74 68 6 15 -8 8 -38 -17 -16 -13 -18 -13 -11 -1 4 8 15 23 22 32
8 9 13 25 11 35 -3 14 -8 11 -22 -15 -9 -19 -43 -59 -74 -90 -31 -31 -62 -66
-69 -77 -12 -20 -12 -20 -12 1 -1 11 10 31 24 44 25 24 32 40 17 40 -5 0 -15
-12 -22 -27 -7 -16 -15 -23 -17 -16 -6 16 22 69 63 120 19 23 34 44 34 47 0
12 -18 5 -35 -14z m-33 -52 c-7 -7 -12 -8 -12 -2 0 14 12 26 19 19 2 -3 -1
-11 -7 -17z m-32 -182 c0 -3 -4 -8 -10 -11 -5 -3 -10 -1 -10 4 0 6 5 11 10 11
6 0 10 -2 10 -4z"/>
<path d="M490 7400 c0 -11 4 -20 9 -20 5 0 7 9 4 20 -3 11 -7 20 -9 20 -2 0
-4 -9 -4 -20z"/>
<path d="M1421 7340 c-62 -96 -75 -136 -67 -204 6 -54 43 -173 56 -181 4 -3
-3 30 -17 73 -38 119 -31 174 36 284 69 112 62 137 -8 28z"/>
<path d="M4120 7395 c0 -16 16 -20 24 -6 3 5 -1 11 -9 15 -9 3 -15 0 -15 -9z"/>
<path d="M4792 7390 c0 -14 2 -19 5 -12 2 6 2 18 0 25 -3 6 -5 1 -5 -13z"/>
<path d="M370 7385 c0 -11 11 -33 25 -50 31 -39 31 -21 0 30 -18 29 -25 35
-25 20z"/>
<path d="M2800 7391 c0 -6 4 -13 10 -16 6 -3 7 1 4 9 -7 18 -14 21 -14 7z"/>
<path d="M201 7383 c-1 -6 -4 -20 -7 -30 -5 -17 -5 -17 6 0 6 10 9 23 6 30 -3
9 -5 9 -5 0z"/>
<path d="M4470 7370 c0 -5 5 -10 11 -10 5 0 7 5 4 10 -3 6 -8 10 -11 10 -2 0
-4 -4 -4 -10z"/>
<path d="M2657 7343 c-24 -32 -18 -35 11 -7 13 12 19 24 15 27 -4 3 -16 -6
-26 -20z"/>
<path d="M501 7348 c2 -21 17 -64 18 -51 1 7 8 10 16 7 22 -9 18 4 -10 32 -14
14 -25 19 -24 12z"/>
<path d="M832 7333 c-12 -17 -22 -35 -22 -40 0 -4 -12 -25 -26 -46 -14 -21
-24 -45 -22 -54 2 -10 23 17 51 65 48 81 61 134 19 75z"/>
<path d="M472 7321 c-1 -19 3 -31 14 -35 12 -5 15 -2 10 10 -3 8 -6 24 -6 35
0 30 -16 22 -18 -10z"/>
<path d="M193 7314 c-3 -8 -1 -25 5 -37 9 -19 10 -18 10 16 -1 40 -5 46 -15
21z"/>
<path d="M100 7221 c0 -6 5 -13 10 -16 6 -3 10 1 10 9 0 9 -4 16 -10 16 -5 0
-10 -4 -10 -9z"/>
<path d="M617 7219 c7 -7 15 -10 18 -7 3 3 -2 9 -12 12 -14 6 -15 5 -6 -5z"/>
<path d="M1011 7191 c-1 -48 30 -126 54 -135 18 -7 19 3 1 27 -7 9 -11 28 -8
42 2 15 0 25 -7 25 -6 0 -11 6 -11 13 -1 6 -7 26 -15 42 l-13 30 -1 -44z"/>
<path d="M2285 7220 c-3 -5 -1 -10 4 -10 6 0 11 5 11 10 0 6 -2 10 -4 10 -3 0
-8 -4 -11 -10z"/>
<path d="M647 7177 c-3 -8 1 -14 8 -14 7 0 11 6 8 14 -3 7 -6 13 -8 13 -2 0
-5 -6 -8 -13z"/>
<path d="M1483 7168 c-33 -64 -42 -87 -47 -133 l-6 -50 19 63 c28 90 30 93 25
40 -3 -45 7 -70 21 -48 10 16 17 150 8 150 -5 0 -14 -10 -20 -22z"/>
<path d="M1941 7178 c1 -30 45 -162 54 -165 11 -3 61 105 52 113 -11 11 -24
-6 -31 -36 -6 -33 -26 -32 -26 0 0 27 -30 100 -41 100 -5 0 -9 -6 -8 -12z"/>
<path d="M1392 7155 c0 -16 2 -22 5 -12 2 9 2 23 0 30 -3 6 -5 -1 -5 -18z"/>
<path d="M2635 7170 c-3 -5 1 -10 10 -10 9 0 13 5 10 10 -3 6 -8 10 -10 10 -2
0 -7 -4 -10 -10z"/>
<path d="M3846 7142 c-3 -20 -9 -48 -12 -62 l-5 -25 14 25 c20 34 30 87 19 94
-5 3 -12 -11 -16 -32z"/>
<path d="M2775 7130 c-24 -54 -12 -63 14 -11 23 45 25 51 13 51 -5 0 -17 -18
-27 -40z"/>
<path d="M2820 7152 c0 -9 -10 -33 -23 -52 -27 -41 -39 -70 -29 -70 11 0 72
105 72 124 0 9 -4 16 -10 16 -5 0 -10 -8 -10 -18z"/>
<path d="M4219 7153 c-13 -16 -12 -17 4 -4 9 7 17 15 17 17 0 8 -8 3 -21 -13z"/>
<path d="M786 7135 c6 -35 19 -51 28 -37 3 6 0 16 -7 24 -8 7 -17 20 -20 28
-4 8 -5 2 -1 -15z"/>
<path d="M1070 7127 c0 -20 4 -38 9 -42 6 -3 7 10 4 32 -8 50 -13 55 -13 10z"/>
<path d="M4564 7140 c0 -13 4 -16 10 -10 7 7 7 13 0 20 -6 6 -10 3 -10 -10z"/>
<path d="M4704 7114 c-49 -33 -49 -33 -41 -40 3 -3 22 6 43 20 21 14 40 23 43
20 9 -9 -52 -54 -71 -54 -10 0 -18 -4 -18 -10 0 -5 9 -10 20 -10 20 0 100 72
100 90 0 18 -37 10 -76 -16z"/>
<path d="M1155 7087 c-4 -10 -5 -21 -1 -24 10 -10 18 4 13 24 -4 17 -4 17 -12
0z"/>
<path d="M1928 7040 c34 -33 62 -64 62 -68 2 -60 21 -194 29 -208 5 -11 18
-44 27 -74 9 -30 19 -62 22 -70 2 -8 -9 5 -25 30 -32 47 -57 72 -133 130 -25
19 -46 38 -48 42 -2 4 -12 8 -21 8 -27 0 -32 11 -16 33 15 21 11 92 -5 110 -8
9 -30 -45 -30 -74 0 -28 -15 -23 -30 9 -7 15 -15 22 -17 15 -3 -7 10 -33 28
-58 29 -40 53 -59 182 -144 21 -13 50 -42 65 -63 15 -22 39 -55 55 -75 39 -52
33 -60 -14 -19 -49 41 -135 74 -152 57 -7 -7 -5 -12 9 -16 137 -45 208 -97
254 -187 l30 -62 -2 47 c-2 26 -6 47 -9 47 -16 0 -86 121 -110 193 -35 101
-36 137 -4 204 13 29 20 55 15 58 -11 7 -50 -56 -50 -81 0 -11 -4 -25 -9 -32
-5 -9 -11 25 -15 87 -7 98 -7 101 18 128 14 15 26 35 26 43 -1 9 -11 3 -29
-17 -34 -40 -42 -41 -64 -4 -16 28 -74 71 -93 71 -5 0 19 -27 54 -60z m-122
-168 c-15 -15 -15 -15 -4 10 7 15 15 23 17 17 2 -6 -4 -18 -13 -27z"/>
<path d="M2680 7090 c0 -5 5 -10 11 -10 5 0 7 5 4 10 -3 6 -8 10 -11 10 -2 0
-4 -4 -4 -10z"/>
<path d="M186 7077 c3 -10 9 -15 12 -12 3 3 0 11 -7 18 -10 9 -11 8 -5 -6z"/>
<path d="M1521 7075 c-1 -11 -8 -31 -17 -43 -8 -12 -11 -22 -6 -22 13 0 35 56
29 72 -3 7 -6 4 -6 -7z"/>
<path d="M3852 7065 c-6 -14 -7 -25 -2 -25 9 0 25 39 18 46 -3 2 -10 -7 -16
-21z"/>
<path d="M617 7061 c-4 -17 -3 -21 5 -13 5 5 8 16 6 23 -3 8 -7 3 -11 -10z"/>
<path d="M3050 7041 c0 -6 4 -13 10 -16 6 -3 7 1 4 9 -7 18 -14 21 -14 7z"/>
<path d="M1456 7005 c-4 -14 -11 -25 -16 -25 -18 0 -11 -68 11 -107 30 -54 45
-66 20 -16 -24 49 -26 88 -6 123 16 29 19 50 6 50 -5 0 -12 -11 -15 -25z"/>
<path d="M2303 7014 c0 -8 8 -16 17 -19 9 -3 25 -31 35 -62 11 -33 21 -50 23
-40 2 10 -3 35 -11 55 -8 20 -15 41 -15 46 -1 4 -12 14 -25 21 -19 10 -24 10
-24 -1z"/>
<path d="M3955 7010 c-3 -5 -1 -10 4 -10 6 0 11 5 11 10 0 6 -2 10 -4 10 -3 0
-8 -4 -11 -10z"/>
<path d="M195 6988 c-2 -7 -3 -455 -2 -995 1 -539 0 -980 -3 -978 -3 2 -6
-130 -7 -294 -1 -182 2 -285 8 -266 6 21 6 13 2 -25 -9 -68 -11 -4112 -3
-4195 3 -33 6 475 7 1130 0 655 2 1447 5 1760 3 337 2 451 -2 280 -4 -171 -5
-83 -2 215 9 798 9 871 0 876 -4 3 -7 51 -6 107 l2 102 5 -105 c4 -58 6 459 6
1147 0 689 -1 1253 -3 1253 -1 0 -5 -6 -7 -12z m2 -2830 c-2 -13 -4 -5 -4 17
-1 22 1 32 4 23 2 -10 2 -28 0 -40z"/>
<path d="M2865 6991 c-3 -5 -2 -12 3 -15 5 -3 9 1 9 9 0 17 -3 19 -12 6z"/>
<path d="M3852 6980 c0 -14 2 -19 5 -12 2 6 2 18 0 25 -3 6 -5 1 -5 -13z"/>
<path d="M2635 6980 c-3 -5 -1 -10 4 -10 6 0 11 5 11 10 0 6 -2 10 -4 10 -3 0
-8 -4 -11 -10z"/>
<path d="M4655 6981 c-3 -5 -2 -12 3 -15 5 -3 9 1 9 9 0 17 -3 19 -12 6z"/>
<path d="M2414 6943 c-9 -21 -18 -55 -21 -77 l-6 -38 -25 32 c-24 31 -135 110
-154 110 -20 0 -4 -19 51 -58 58 -41 140 -129 156 -167 7 -17 9 -18 12 -3 2 9
-3 30 -12 47 -17 33 -9 96 20 152 18 33 18 39 5 39 -5 0 -17 -17 -26 -37z"/>
<path d="M4345 6959 c-4 -6 -5 -12 -2 -15 2 -3 7 2 10 11 7 17 1 20 -8 4z"/>
<path d="M4706 6958 c3 -5 10 -6 15 -3 13 9 11 12 -6 12 -8 0 -12 -4 -9 -9z"/>
<path d="M3056 6952 c-4 -7 0 -24 9 -38 22 -34 29 -24 12 17 -9 23 -16 29 -21
21z"/>
<path d="M1310 6940 c0 -4 9 -10 21 -13 12 -3 19 -1 17 5 -5 13 -38 20 -38 8z"/>
<path d="M2770 6940 c0 -5 5 -10 10 -10 6 0 10 5 10 10 0 6 -4 10 -10 10 -5 0
-10 -4 -10 -10z"/>
<path d="M742 6930 c-39 -9 -46 -15 -37 -30 5 -8 14 -7 31 4 13 9 39 16 59 16
19 0 35 5 35 10 0 11 -40 12 -88 0z"/>
<path d="M2966 6922 c-2 -4 2 -16 10 -27 8 -10 14 -14 14 -8 0 7 -5 15 -10 18
-6 4 -8 11 -5 16 4 5 4 9 1 9 -3 0 -7 -3 -10 -8z"/>
<path d="M1331 6905 c1 -19 18 -51 18 -35 0 8 -4 22 -9 30 -5 8 -9 11 -9 5z"/>
<path d="M740 6893 c0 -10 100 -33 144 -33 43 0 21 17 -31 23 -26 3 -63 9 -80
13 -19 4 -33 2 -33 -3z"/>
<path d="M2450 6885 c15 -19 1 -68 -17 -61 -11 5 -13 1 -8 -17 4 -12 11 -26
15 -31 5 -5 4 -20 -1 -33 -8 -21 -3 -34 31 -82 22 -31 40 -65 40 -74 0 -20 16
-23 19 -4 10 67 7 88 -16 122 -14 20 -22 39 -20 42 3 2 12 -8 21 -24 20 -36
20 -23 1 24 -14 32 -14 38 0 53 13 15 13 17 0 17 -8 0 -15 -5 -15 -11 0 -6 -5
-4 -10 4 -7 11 -10 6 -11 -20 0 -29 -2 -31 -9 -15 -9 22 -2 84 12 101 6 8 0
13 -17 16 -19 4 -23 2 -15 -7z m25 -154 c6 -10 17 -31 26 -47 36 -64 29 -75
-10 -16 -23 34 -41 67 -41 72 0 16 15 11 25 -9z"/>
<path d="M2787 6869 c-8 -9 -18 -27 -22 -40 -7 -23 -7 -23 12 -6 11 9 22 14
26 11 3 -4 4 6 1 21 -4 23 -3 26 9 17 10 -9 14 -9 14 1 0 19 -23 17 -40 -4z"/>
<path d="M2250 6876 c0 -3 9 -10 20 -16 11 -6 20 -8 20 -6 0 3 -9 10 -20 16
-11 6 -20 8 -20 6z"/>
<path d="M2907 6861 c-2 -10 0 -25 5 -32 8 -11 9 -10 4 4 -3 9 -1 17 4 17 6 0
10 7 10 15 0 21 -17 19 -23 -4z"/>
<path d="M4590 6870 c0 -5 5 -10 10 -10 6 0 10 5 10 10 0 6 -4 10 -10 10 -5 0
-10 -4 -10 -10z"/>
<path d="M336 6855 c4 -8 11 -15 16 -15 6 0 5 6 -2 15 -7 8 -14 15 -16 15 -2
0 -1 -7 2 -15z"/>
<path d="M740 6862 c0 -12 19 -26 26 -19 2 2 -2 10 -11 17 -9 8 -15 8 -15 2z"/>
<path d="M2666 6853 c-6 -14 -5 -15 5 -6 7 7 10 15 7 18 -3 3 -9 -2 -12 -12z"/>
<path d="M2986 6853 c-6 -14 -5 -15 5 -6 7 7 10 15 7 18 -3 3 -9 -2 -12 -12z"/>
<path d="M813 6813 c2 -44 0 -48 -23 -48 -18 0 -26 -6 -28 -22 -2 -13 1 -23 7
-23 6 0 11 4 11 10 0 5 9 14 20 20 18 10 21 7 26 -20 7 -34 19 -39 28 -12 3 9
8 22 11 28 4 7 -2 11 -12 10 -18 -1 -19 4 -22 77 -1 15 -5 27 -10 27 -5 0 -9
-21 -8 -47z"/>
<path d="M1723 6834 c1 -17 7 -31 14 -31 8 0 9 6 4 16 -5 9 -11 23 -14 31 -3
8 -4 1 -4 -16z"/>
<path d="M4770 6840 c0 -5 5 -10 10 -10 6 0 10 5 10 10 0 6 -4 10 -10 10 -5 0
-10 -4 -10 -10z"/>
<path d="M4823 6645 c-1 -110 3 -209 7 -220 10 -24 10 143 0 305 -6 105 -7 98
-7 -85z"/>
<path d="M344 6818 c-4 -5 -3 -12 0 -15 3 -4 6 -1 6 6 0 7 4 10 9 6 5 -3 12
-2 15 3 3 5 -2 9 -10 9 -8 0 -17 -4 -20 -9z"/>
<path d="M756 6813 c-6 -14 -5 -15 5 -6 7 7 10 15 7 18 -3 3 -9 -2 -12 -12z"/>
<path d="M3041 6814 c0 -11 3 -14 6 -6 3 7 2 16 -1 19 -3 4 -6 -2 -5 -13z"/>
<path d="M4570 6819 c0 -5 5 -7 10 -4 6 3 10 8 10 11 0 2 -4 4 -10 4 -5 0 -10
-5 -10 -11z"/>
<path d="M776 6804 c-5 -14 -4 -15 9 -4 17 14 19 20 6 20 -5 0 -12 -7 -15 -16z"/>
<path d="M2805 6762 c-21 -34 -42 -62 -46 -62 -12 0 -30 36 -21 44 3 4 -1 4
-11 0 -23 -8 -22 -14 9 -47 14 -16 24 -29 23 -31 -41 -26 -81 -62 -97 -88 -26
-44 -36 -78 -23 -78 6 0 11 10 11 21 0 24 76 103 109 114 11 3 21 12 21 18 0
7 9 1 20 -13 24 -30 25 -79 5 -146 -18 -61 -18 -74 0 -51 7 11 16 38 20 60 4
23 9 51 12 62 6 19 6 18 14 -3 5 -13 6 -35 3 -48 -3 -13 -2 -24 4 -24 16 0 21
52 7 74 -7 12 -16 36 -20 54 -4 18 -13 32 -21 32 -8 0 -14 5 -14 10 0 6 4 10
9 10 15 0 109 78 127 105 27 41 10 39 -33 -5 -23 -22 -46 -40 -53 -40 -10 0
-10 3 0 15 10 13 11 18 1 28 -10 9 -11 8 -6 -5 4 -11 2 -18 -4 -18 -6 0 -11
-8 -11 -18 0 -10 -14 -29 -31 -41 -27 -20 -30 -21 -27 -5 2 10 13 23 24 29 11
6 19 15 17 22 -2 6 3 23 12 37 9 14 15 31 13 38 -2 6 -22 -16 -43 -50z"/>
<path d="M4177 6809 c7 -7 15 -10 18 -7 3 3 -2 9 -12 12 -14 6 -15 5 -6 -5z"/>
<path d="M899 6799 c-9 -6 8 -9 50 -9 35 0 62 2 60 5 -10 9 -96 13 -110 4z"/>
<path d="M2766 6783 c-6 -14 -9 -15 -15 -4 -5 8 -11 9 -15 3 -3 -5 1 -13 10
-16 11 -4 14 -13 11 -28 -9 -34 12 -6 22 30 10 33 -2 45 -13 15z"/>
<path d="M4266 6791 c-4 -6 -3 -19 3 -28 9 -17 10 -17 17 0 8 21 -10 45 -20
28z"/>
<path d="M1660 6783 c1 -5 22 -51 48 -103 35 -70 58 -103 91 -130 36 -28 42
-31 32 -12 -6 12 -16 22 -22 22 -15 0 -88 118 -101 164 -6 23 -16 47 -21 54
-10 13 -27 16 -27 5z"/>
<path d="M1756 6778 c-11 -35 -13 -58 -7 -58 4 0 12 16 18 35 7 21 7 35 2 35
-5 0 -11 -6 -13 -12z"/>
<path d="M2215 6780 c3 -5 8 -10 11 -10 2 0 4 5 4 10 0 6 -5 10 -11 10 -5 0
-7 -4 -4 -10z"/>
<path d="M4208 6760 c-28 -31 -37 -73 -17 -85 12 -8 49 32 49 54 0 12 -6 9
-21 -9 -15 -18 -19 -20 -15 -7 3 10 6 23 6 28 0 5 7 9 15 9 8 0 15 9 15 20 0
25 0 25 -32 -10z"/>
<path d="M1717 6757 c-3 -8 -1 -20 4 -28 6 -10 9 -7 9 14 0 29 -5 35 -13 14z"/>
<path d="M2617 6751 c-4 -17 -3 -21 5 -13 5 5 8 16 6 23 -3 8 -7 3 -11 -10z"/>
<path d="M1590 6746 c0 -2 7 -7 16 -10 8 -3 12 -2 9 4 -6 10 -25 14 -25 6z"/>
<path d="M4290 6728 c0 -16 3 -18 14 -9 11 9 15 8 20 -5 5 -13 9 -15 18 -6 15
15 1 31 -30 37 -17 3 -22 -1 -22 -17z"/>
<path d="M2310 6731 c0 -6 -7 -11 -15 -11 -8 0 -15 -4 -15 -10 0 -5 9 -10 20
-10 19 0 20 -7 20 -95 0 -88 -1 -95 -20 -95 -11 0 -22 1 -24 3 -2 1 -14 -7
-26 -18 l-23 -20 6 20 c3 11 8 36 11 55 3 19 19 55 35 79 17 25 27 49 24 54
-7 12 -53 -58 -66 -102 l-11 -36 -8 59 c-7 56 -21 86 -33 74 -3 -3 2 -34 11
-69 9 -35 17 -70 16 -76 -7 -98 -1 -185 13 -199 8 -8 15 -18 15 -21 0 -6 -22
10 -55 40 -11 10 -36 27 -55 37 -21 12 -28 19 -18 20 26 0 11 27 -25 45 l-32
15 28 -25 c36 -32 16 -33 -26 -1 -42 31 -97 59 -97 48 0 -9 54 -49 181 -133
47 -31 92 -63 100 -71 33 -33 111 -79 141 -84 25 -4 29 -3 18 5 -8 6 -10 11
-5 11 6 0 16 -5 23 -12 9 -9 12 -8 12 5 0 11 -12 18 -37 23 -53 9 -72 20 -120
70 -42 42 -49 62 -44 124 2 27 36 59 62 60 24 0 46 -30 54 -73 4 -20 11 -40
16 -43 5 -3 9 -10 9 -17 0 -6 -16 12 -35 40 -29 43 -73 84 -76 71 -5 -21 -12
-78 -11 -97 0 -44 17 -40 18 5 2 53 8 62 29 44 13 -11 13 -15 3 -22 -10 -7
-10 -9 2 -5 17 4 54 -38 46 -52 -4 -5 6 -24 21 -43 15 -18 28 -35 30 -37 2 -2
6 -1 10 2 3 4 -6 21 -22 37 -16 17 -25 30 -19 30 5 0 33 -27 63 -60 30 -33 58
-57 63 -54 5 3 2 14 -6 23 -9 10 -16 24 -16 31 0 7 -3 10 -7 7 -9 -9 -44 23
-37 35 3 4 0 7 -6 6 -7 -2 -15 4 -19 12 -5 8 -13 24 -18 35 -6 12 -14 36 -18
55 -4 19 -12 41 -19 49 -7 9 -11 61 -11 139 0 91 -3 126 -12 129 -7 3 -13 0
-13 -6z"/>
<path d="M1633 6715 c0 -8 4 -12 9 -9 4 3 8 9 8 15 0 5 -4 9 -8 9 -5 0 -9 -7
-9 -15z"/>
<path d="M2961 6714 c0 -11 3 -14 6 -6 3 7 2 16 -1 19 -3 4 -6 -2 -5 -13z"/>
<path d="M3235 6720 c3 -5 8 -10 11 -10 2 0 4 5 4 10 0 6 -5 10 -11 10 -5 0
-7 -4 -4 -10z"/>
<path d="M4373 6715 c0 -8 4 -12 9 -9 5 3 6 10 3 15 -9 13 -12 11 -12 -6z"/>
<path d="M490 6710 c0 -5 5 -10 11 -10 5 0 7 5 4 10 -3 6 -8 10 -11 10 -2 0
-4 -4 -4 -10z"/>
<path d="M732 6685 c0 -16 2 -22 5 -12 2 9 2 23 0 30 -3 6 -5 -1 -5 -18z"/>
<path d="M1760 6710 c-8 -23 -5 -46 12 -81 10 -22 22 -39 25 -36 2 3 -1 16 -8
29 -7 12 -16 39 -20 58 -4 19 -8 33 -9 30z"/>
<path d="M1006 6678 c-7 -29 23 -72 53 -76 28 -4 28 22 -1 65 -27 38 -43 42
-52 11z m42 -33 c11 -24 10 -25 -8 -15 -11 6 -20 17 -20 25 0 23 16 17 28 -10z"/>
<path d="M3830 6686 c0 -2 7 -7 16 -10 8 -3 12 -2 9 4 -6 10 -25 14 -25 6z"/>
<path d="M4105 6670 c-13 -15 -15 -24 -8 -31 8 -8 14 -5 22 10 17 31 30 26 25
-9 -6 -33 11 -42 19 -10 14 54 -23 79 -58 40z"/>
<path d="M1223 6665 c0 -8 4 -12 9 -9 5 3 6 10 3 15 -9 13 -12 11 -12 -6z"/>
<path d="M1945 6670 c3 -5 8 -10 11 -10 2 0 4 5 4 10 0 6 -5 10 -11 10 -5 0
-7 -4 -4 -10z"/>
<path d="M3800 6671 c0 -6 4 -13 10 -16 6 -3 7 1 4 9 -7 18 -14 21 -14 7z"/>
<path d="M2123 6653 c0 -9 4 -10 14 -2 7 6 13 12 13 14 0 1 -6 2 -13 2 -8 0
-14 -6 -14 -14z"/>
<path d="M2883 6655 c0 -6 6 -12 12 -12 6 0 12 6 12 12 0 6 -6 12 -12 12 -6 0
-12 -6 -12 -12z"/>
<path d="M1390 6642 c23 -14 80 -23 80 -12 0 6 -6 10 -14 10 -7 0 -29 3 -47 6
-23 4 -29 2 -19 -4z"/>
<path d="M1269 6626 c10 -12 6 -13 -29 -9 -24 3 -40 2 -40 -4 0 -13 134 -37
220 -39 36 -1 94 -4 130 -7 71 -7 57 -1 -70 28 -41 10 -81 20 -87 22 -7 3 -13
0 -13 -6 0 -6 11 -11 24 -11 14 0 27 -4 30 -8 7 -11 -109 5 -135 18 -10 6 -19
15 -19 20 0 6 -5 10 -11 10 -8 0 -8 -4 0 -14z"/>
<path d="M3790 6603 c-41 -13 -104 -27 -140 -30 -36 -3 -72 -10 -80 -15 -29
-18 145 3 235 29 122 34 140 42 95 41 -19 0 -69 -11 -110 -25z"/>
<path d="M1500 6610 c36 -11 52 -11 45 0 -3 6 -21 10 -38 9 -31 -1 -31 -1 -7
-9z"/>
<path d="M2755 6601 c-3 -6 -12 -8 -18 -5 -7 4 -9 4 -5 0 9 -10 -28 -50 -39
-43 -4 3 -8 -20 -8 -51 0 -32 -3 -68 -8 -82 -7 -24 -7 -24 4 -2 7 12 16 22 21
22 4 0 8 23 8 51 0 43 5 55 30 81 17 17 29 32 26 35 -2 2 -7 -1 -11 -6z"/>
<path d="M2176 6560 c-4 -25 -1 -51 8 -72 l14 -33 1 40 c1 29 -2 36 -9 25 -7
-10 -8 0 -4 33 8 57 -1 63 -10 7z"/>
<path d="M2410 6593 c0 -6 3 -14 8 -17 4 -2 8 -35 8 -73 1 -42 0 -51 -3 -23
-2 25 -9 50 -15 55 -7 7 -9 -6 -5 -43 l6 -53 -19 23 c-11 13 -19 20 -20 16 0
-13 62 -143 72 -149 6 -4 7 -12 3 -19 -5 -9 -4 -11 3 -6 7 4 12 2 12 -5 0 -7
2 -10 5 -7 3 3 -1 24 -9 46 -9 25 -11 42 -5 42 5 0 11 -6 13 -12 22 -79 31
-104 38 -113 5 -5 5 6 2 25 -4 19 -11 39 -15 45 -5 5 -9 18 -9 29 0 11 -9 30
-21 42 -13 14 -19 31 -16 46 4 22 5 21 18 -9 7 -18 16 -33 20 -33 12 0 -2 37
-21 58 -12 12 -20 38 -21 67 -2 40 -28 101 -29 68z"/>
<path d="M2875 6590 c-3 -5 -1 -10 4 -10 6 0 11 5 11 10 0 6 -2 10 -4 10 -3 0
-8 -4 -11 -10z"/>
<path d="M3214 6567 c-34 -20 -244 -209 -244 -220 0 -12 14 -1 130 103 52 47
109 95 125 107 32 24 24 31 -11 10z"/>
<path d="M3920 6569 c0 -5 5 -7 10 -4 6 3 10 8 10 11 0 2 -4 4 -10 4 -5 0 -10
-5 -10 -11z"/>
<path d="M2360 6546 c0 -2 7 -7 16 -10 8 -3 12 -2 9 4 -6 10 -25 14 -25 6z"/>
<path d="M2769 6521 c-15 -15 -69 -113 -75 -136 -16 -59 -16 -60 -4 -45 10 13
11 12 6 -3 -3 -10 -6 -21 -6 -25 0 -3 -6 2 -13 12 -12 16 -13 14 -12 -13 0
-18 5 -31 12 -31 7 0 13 -7 13 -16 0 -8 5 -12 10 -9 14 9 12 -9 -2 -24 -11
-10 -10 -11 4 -6 10 4 20 15 23 26 4 10 13 19 20 19 8 0 19 9 25 19 15 30 12
38 -6 13 -21 -30 -38 -28 -18 3 9 14 21 25 28 25 6 0 21 18 34 40 12 22 30 40
38 40 10 0 14 6 11 15 -7 17 37 55 65 55 18 0 18 1 4 16 -15 14 -18 14 -43 -5
-46 -33 -136 -141 -163 -193 -11 -23 -16 -26 -28 -15 -13 11 -13 12 0 15 9 2
25 29 36 60 11 31 26 73 33 92 6 19 17 45 22 57 13 29 7 35 -14 14z"/>
<path d="M1315 6520 c-3 -5 -1 -10 4 -10 6 0 11 5 11 10 0 6 -2 10 -4 10 -3 0
-8 -4 -11 -10z"/>
<path d="M475 6509 c-4 -6 -5 -12 -2 -15 2 -3 7 2 10 11 7 17 1 20 -8 4z"/>
<path d="M4637 6513 c-4 -3 -7 -17 -7 -30 0 -17 6 -23 21 -23 15 0 19 4 15 16
-3 9 -6 22 -6 30 0 15 -12 19 -23 7z"/>
<path d="M723 6491 c1 -11 6 -17 14 -14 10 4 11 9 2 19 -15 19 -18 18 -16 -5z"/>
<path d="M2036 6495 c10 -8 23 -15 28 -15 6 0 1 7 -10 15 -10 8 -23 15 -28 15
-6 0 -1 -7 10 -15z"/>
<path d="M4411 6490 c-9 -5 -11 -15 -6 -26 6 -17 8 -17 16 5 11 28 9 33 -10
21z"/>
<path d="M3635 6448 c2 -18 3 -39 4 -46 1 -7 6 -10 11 -7 6 3 8 18 5 33 -4 21
-2 19 9 -8 21 -50 19 -78 -8 -135 -29 -63 -90 -124 -164 -163 -70 -37 -248
-100 -321 -112 -67 -12 -357 -152 -356 -173 0 -8 -58 -46 -63 -41 -6 5 76 120
134 189 60 71 143 137 201 162 20 8 63 19 96 24 65 11 157 46 157 60 0 11 -2
11 -74 -1 -32 -5 -81 -21 -108 -35 -28 -15 -47 -21 -43 -15 9 14 102 83 140
103 46 24 91 64 82 73 -4 4 -20 -4 -35 -18 -15 -14 -37 -31 -50 -37 -23 -12
-23 -11 -17 26 3 21 8 48 11 61 2 12 0 22 -5 22 -5 0 -13 -21 -17 -47 -7 -47
-31 -109 -40 -100 -2 2 3 32 12 66 8 35 14 65 11 67 -2 2 -15 -6 -29 -18 -17
-15 -34 -50 -49 -98 -13 -41 -27 -81 -32 -88 -6 -7 -41 -35 -79 -63 l-69 -50
31 54 c32 56 37 77 19 77 -5 0 -17 -17 -25 -37 -25 -66 -48 -107 -88 -160 -21
-29 -40 -53 -43 -53 -5 0 16 39 39 73 11 15 23 52 27 82 9 64 -3 76 -13 14 -8
-49 -124 -276 -172 -336 -19 -22 -39 -54 -45 -70 l-12 -28 -8 45 c-5 25 -14
57 -20 72 -14 35 -2 56 17 31 13 -16 13 -14 1 12 -8 17 -18 49 -22 73 -10 59
-22 52 -18 -11 3 -36 -2 -67 -15 -98 -14 -33 -19 -67 -19 -139 0 -53 -3 -102
-8 -110 -12 -20 -5 -133 10 -148 3 -3 5 0 5 7 0 7 5 9 10 6 6 -3 10 -2 10 4 0
5 -4 13 -10 16 -13 8 -13 101 0 126 7 12 7 26 2 37 -6 10 -6 50 -1 96 12 109
20 114 42 30 12 -45 11 -52 -9 -88 -12 -22 -20 -44 -18 -51 3 -6 0 -23 -5 -38
-6 -14 -6 -29 -2 -32 5 -3 5 -20 1 -39 -7 -33 -5 -46 9 -46 3 0 7 26 9 58 4
74 17 115 59 179 62 94 124 133 213 133 42 0 319 -38 331 -46 4 -2 6 -10 3
-18 -3 -7 -1 -31 5 -54 5 -27 5 -42 -1 -42 -5 0 -6 -4 -3 -10 3 -5 15 -10 26
-10 20 0 20 18 -2 78 -18 48 -12 51 49 26 58 -24 97 -31 88 -15 -3 4 -45 23
-93 40 -101 36 -405 83 -444 69 -12 -5 -27 -7 -33 -5 -12 4 287 151 327 161
40 10 33 -1 -10 -14 -21 -7 -62 -28 -91 -47 -29 -19 -75 -44 -104 -57 l-51
-23 134 -2 c74 -1 145 -4 159 -7 25 -5 25 -5 5 11 -17 14 -37 16 -123 12 -57
-3 -100 -2 -97 1 10 10 96 59 145 83 24 12 65 23 90 25 25 1 69 7 99 13 30 6
57 7 60 3 3 -5 27 -12 54 -15 52 -7 100 -28 135 -60 16 -15 22 -33 23 -66 l2
-46 6 40 c7 43 21 47 54 18 24 -23 33 -9 13 22 -9 14 -26 25 -38 25 -12 0 -36
11 -54 25 -37 28 -73 44 -124 55 -35 8 -35 8 -5 9 43 1 188 -35 235 -59 44
-22 50 -24 50 -11 0 15 -118 60 -188 72 -117 19 -145 20 -231 4 -46 -9 -86
-14 -89 -11 -2 3 1 7 9 10 8 2 54 16 104 31 173 52 273 118 335 220 27 46 34
68 34 109 0 55 -26 116 -48 116 -9 0 -13 -10 -11 -32z m-455 -107 c0 -6 -4
-13 -10 -16 -5 -3 -10 1 -10 9 0 9 5 16 10 16 6 0 10 -4 10 -9z m-31 -96 c-26
-43 -37 -40 -15 4 9 16 16 38 16 48 1 17 1 17 10 1 8 -12 4 -26 -11 -53z"/>
<path d="M2893 6453 c-13 -8 -23 -20 -23 -26 0 -5 8 -3 18 6 10 10 21 15 24
12 2 -3 5 2 5 10 0 8 -1 15 -1 14 -1 0 -11 -7 -23 -16z"/>
<path d="M1505 6448 c-3 -7 -6 -29 -7 -48 -2 -26 1 -35 15 -38 14 -3 17 4 17
42 0 44 -15 71 -25 44z"/>
<path d="M3733 6435 c-3 -9 -3 -18 -1 -21 3 -3 8 4 11 16 6 23 -1 27 -10 5z"/>
<path d="M3763 6410 c0 -25 2 -35 4 -22 2 12 2 32 0 45 -2 12 -4 2 -4 -23z"/>
<path d="M1461 6407 c-50 -81 -6 -184 116 -268 23 -16 65 -35 95 -44 184 -50
328 -87 358 -91 19 -2 37 -8 40 -13 3 -4 20 -16 38 -25 17 -9 32 -18 32 -20 0
-1 -26 5 -57 15 -87 26 -185 46 -316 65 -101 14 -132 15 -205 5 -112 -16 -172
-31 -172 -43 0 -6 10 -7 23 -4 12 4 63 14 112 23 79 14 105 15 210 3 66 -7
141 -15 167 -17 52 -5 56 -23 6 -23 -57 0 -213 -42 -280 -76 -64 -32 -68 -33
-102 -19 -44 19 -47 19 -40 0 4 -8 14 -15 24 -15 36 0 28 -16 -20 -43 -50 -28
-66 -44 -56 -54 3 -3 24 6 46 21 68 45 187 114 209 121 38 12 22 -4 -29 -30
-27 -14 -50 -26 -50 -28 0 -1 -9 -26 -20 -54 -11 -29 -16 -53 -12 -53 5 0 19
24 33 53 14 29 31 52 39 52 9 0 29 13 45 28 44 41 72 54 165 73 100 20 178 15
275 -18 71 -24 199 -88 191 -95 -4 -4 -43 5 -127 29 -20 6 -68 9 -106 6 -57
-3 -78 -9 -109 -31 -21 -15 -53 -38 -70 -50 -18 -12 -40 -27 -50 -33 -33 -20
-8 -26 32 -9 35 15 136 44 158 45 5 0 3 -6 -3 -14 -7 -8 -11 -27 -9 -43 4 -26
5 -25 17 15 10 35 19 46 48 59 54 22 136 28 189 13 91 -26 203 -168 220 -280
6 -35 9 -40 15 -25 9 20 9 20 7 0 -2 -11 1 -26 5 -32 5 -8 4 -13 -2 -13 -6 0
-11 -4 -11 -10 0 -5 6 -10 14 -10 39 0 -12 159 -84 260 -53 75 -90 147 -90
177 0 28 52 121 78 139 12 8 22 20 22 26 0 6 8 17 18 24 10 8 12 13 4 14 -6 0
-28 -18 -48 -40 -20 -22 -41 -40 -47 -40 -6 0 4 16 23 35 25 25 29 35 17 35
-9 0 -20 -7 -25 -16 -5 -9 -20 -18 -33 -19 -36 -4 -36 -4 -43 -22 -6 -15 -4
-15 14 2 25 23 39 12 21 -17 -8 -12 -16 -44 -20 -71 l-6 -49 -35 54 c-19 29
-40 53 -46 53 -18 0 -83 68 -77 80 4 5 3 7 -1 4 -11 -11 -141 72 -172 110 -24
29 -29 44 -30 96 -1 61 -8 85 -23 85 -11 0 -3 -108 10 -132 9 -18 8 -18 -10
-8 -12 6 -21 14 -21 18 0 4 -13 15 -30 24 -24 14 -31 27 -41 77 -7 34 -17 61
-21 61 -9 0 -1 -59 13 -97 8 -21 6 -22 -37 -19 -24 2 -48 7 -52 11 -4 4 10 5
31 2 22 -3 35 -2 32 4 -4 5 -39 9 -78 8 l-72 0 40 -18 c22 -10 62 -21 90 -25
60 -9 94 -26 159 -77 56 -45 44 -50 -32 -14 -54 25 -132 34 -132 15 0 -5 9
-10 20 -10 10 0 34 -6 52 -14 18 -8 58 -19 88 -26 94 -21 163 -65 271 -174 55
-55 111 -120 125 -145 27 -49 28 -50 -52 26 -19 17 -63 45 -99 62 -36 17 -65
35 -65 41 0 5 -6 10 -14 10 -26 0 -29 20 -6 40 25 22 10 36 -19 18 -16 -10
-30 -10 -68 1 -26 8 -58 14 -70 14 -13 -1 -23 3 -23 8 0 5 -12 9 -26 9 -45 0
-159 23 -166 34 -4 6 -24 11 -45 13 -80 5 -176 65 -223 140 -34 53 -38 95 -15
150 20 48 13 53 -14 10z m614 -592 c-66 -18 -122 -30 -125 -28 -8 7 43 42 75
52 17 5 62 9 100 9 l70 0 -120 -33z"/>
<path d="M3344 6402 c-39 -21 -98 -71 -92 -77 3 -3 22 8 44 25 39 30 60 38 49
20 -11 -18 2 -10 35 20 26 24 28 30 14 30 -11 -1 -33 -9 -50 -18z"/>
<path d="M2875 6400 c-3 -5 -2 -10 4 -10 5 0 13 5 16 10 3 6 2 10 -4 10 -5 0
-13 -4 -16 -10z"/>
<path d="M1880 6390 c0 -5 5 -10 11 -10 5 0 7 5 4 10 -3 6 -8 10 -11 10 -2 0
-4 -4 -4 -10z"/>
<path d="M2047 6389 c7 -7 15 -10 18 -7 3 3 -2 9 -12 12 -14 6 -15 5 -6 -5z"/>
<path d="M816 6378 c3 -4 9 -8 15 -8 5 0 9 4 9 8 0 5 -7 9 -15 9 -8 0 -12 -4
-9 -9z"/>
<path d="M4842 6370 c0 -14 2 -19 5 -12 2 6 2 18 0 25 -3 6 -5 1 -5 -13z"/>
<path d="M2838 6373 c7 -3 16 -2 19 1 4 3 -2 6 -13 5 -11 0 -14 -3 -6 -6z"/>
<path d="M4419 5518 c-1 -475 -1 -1155 0 -1511 0 -357 1 -1328 1 -2159 0 -831
3 -1509 6 -1506 8 9 10 6038 2 6038 -5 0 -9 -388 -9 -862z"/>
<path d="M4765 6370 c-3 -5 -1 -10 4 -10 6 0 11 5 11 10 0 6 -2 10 -4 10 -3 0
-8 -4 -11 -10z"/>
<path d="M1371 6354 c0 -11 3 -14 6 -6 3 7 2 16 -1 19 -3 4 -6 -2 -5 -13z"/>
<path d="M1890 6363 c0 -5 9 -19 20 -33 11 -14 20 -33 20 -42 0 -10 5 -18 11
-18 6 0 7 8 3 23 -5 12 -8 36 -7 52 1 23 0 26 -6 11 -7 -18 -8 -18 -14 -3 -6
17 -27 24 -27 10z"/>
<path d="M3389 6353 c-13 -16 -12 -17 4 -4 16 13 21 21 13 21 -2 0 -10 -8 -17
-17z"/>
<path d="M3635 6360 c3 -5 8 -10 11 -10 2 0 4 5 4 10 0 6 -5 10 -11 10 -5 0
-7 -4 -4 -10z"/>
<path d="M2281 6334 c0 -11 3 -14 6 -6 3 7 2 16 -1 19 -3 4 -6 -2 -5 -13z"/>
<path d="M4278 6343 c7 -3 16 -2 19 1 4 3 -2 6 -13 5 -11 0 -14 -3 -6 -6z"/>
<path d="M3623 6329 c3 -9 0 -22 -6 -28 -6 -6 -8 -13 -5 -17 12 -12 27 31 16
47 -8 12 -9 11 -5 -2z"/>
<path d="M2323 6312 c10 -10 14 -22 10 -25 -3 -4 4 -7 16 -7 l23 0 -23 25
c-27 28 -51 35 -26 7z"/>
<path d="M2554 6292 c3 -24 7 -46 10 -49 12 -13 12 4 0 47 l-14 45 4 -43z"/>
<path d="M2797 6323 c-4 -3 -7 -11 -7 -17 0 -6 5 -5 12 2 6 6 9 14 7 17 -3 3
-9 2 -12 -2z"/>
<path d="M4308 6317 c-7 -7 -44 -39 -82 -71 -62 -52 -72 -57 -102 -51 -21 3
-34 2 -34 -5 0 -10 19 -14 55 -10 11 1 36 12 55 25 52 35 147 124 133 125 -6
0 -18 -6 -25 -13z"/>
<path d="M284 6190 c0 -69 1 -97 3 -62 2 34 2 90 0 125 -2 34 -3 6 -3 -63z"/>
<path d="M3560 6306 c0 -1 5 -18 11 -35 7 -20 15 -29 21 -23 10 10 -10 62 -24
62 -4 0 -8 -2 -8 -4z"/>
<path d="M584 6283 c-3 -10 -12 -33 -20 -51 -16 -38 -17 -42 -6 -42 8 0 28 43
38 83 7 29 -3 38 -12 10z"/>
<path d="M1256 6288 c3 -5 10 -6 15 -3 13 9 11 12 -6 12 -8 0 -12 -4 -9 -9z"/>
<path d="M3715 6290 c3 -5 8 -10 11 -10 2 0 4 5 4 10 0 6 -5 10 -11 10 -5 0
-7 -4 -4 -10z"/>
<path d="M2780 6279 c0 -5 5 -7 10 -4 6 3 10 8 10 11 0 2 -4 4 -10 4 -5 0 -10
-5 -10 -11z"/>
<path d="M302 6260 c0 -14 2 -19 5 -12 2 6 2 18 0 25 -3 6 -5 1 -5 -13z"/>
<path d="M2997 6269 c7 -7 15 -10 18 -7 3 3 -2 9 -12 12 -14 6 -15 5 -6 -5z"/>
<path d="M1220 6250 c0 -5 5 -10 11 -10 5 0 7 5 4 10 -3 6 -8 10 -11 10 -2 0
-4 -4 -4 -10z"/>
<path d="M2410 6250 c0 -6 7 -10 15 -10 8 0 15 2 15 4 0 2 -7 6 -15 10 -8 3
-15 1 -15 -4z"/>
<path d="M2955 6239 c-4 -6 -5 -12 -2 -15 2 -3 7 2 10 11 7 17 1 20 -8 4z"/>
<path d="M470 6220 c0 -11 4 -20 9 -20 5 0 7 9 4 20 -3 11 -7 20 -9 20 -2 0
-4 -9 -4 -20z"/>
<path d="M3556 6227 c3 -10 9 -15 12 -12 3 3 0 11 -7 18 -10 9 -11 8 -5 -6z"/>
<path d="M2510 6220 c0 -5 5 -10 10 -10 6 0 10 5 10 10 0 6 -4 10 -10 10 -5 0
-10 -4 -10 -10z"/>
<path d="M2560 6220 c0 -5 5 -10 10 -10 6 0 10 5 10 10 0 6 -4 10 -10 10 -5 0
-10 -4 -10 -10z"/>
<path d="M2110 6199 c0 -25 37 -89 51 -89 13 0 12 4 -11 43 -11 19 -18 42 -14
51 4 11 1 16 -10 16 -10 0 -16 -8 -16 -21z"/>
<path d="M2160 6211 c0 -5 -3 -18 -6 -28 -4 -12 -3 -14 3 -6 6 9 13 2 22 -25
8 -20 17 -39 20 -42 3 -3 17 -27 30 -55 13 -27 26 -45 28 -38 2 6 -3 25 -11
42 -9 16 -16 35 -16 42 0 20 42 49 74 50 21 1 25 3 11 6 -10 3 -30 12 -43 21
-23 15 -24 15 -18 -4 4 -13 0 -23 -14 -31 -16 -11 -22 -9 -39 14 -12 14 -21
34 -21 44 0 11 -4 19 -10 19 -5 0 -10 -4 -10 -9z"/>
<path d="M2890 6216 c0 -2 8 -10 18 -17 15 -13 16 -12 3 4 -13 16 -21 21 -21
13z"/>
<path d="M4300 6200 c0 -5 5 -10 11 -10 5 0 7 5 4 10 -3 6 -8 10 -11 10 -2 0
-4 -4 -4 -10z"/>
<path d="M306 6187 c3 -10 9 -15 12 -12 3 3 0 11 -7 18 -10 9 -11 8 -5 -6z"/>
<path d="M1051 6177 c-9 -12 -8 -16 3 -20 19 -7 32 11 19 24 -6 6 -14 5 -22
-4z"/>
<path d="M452 6145 l-32 -35 0 -2796 c0 -1537 -2 -2799 -4 -2803 -3 -4 7 -17
23 -29 38 -28 91 -110 91 -140 0 -34 -32 -82 -80 -121 -38 -30 -41 -36 -38
-74 3 -37 7 -44 40 -60 l38 -19 -48 -25 c-57 -30 -72 -43 -49 -43 9 0 38 13
64 30 59 38 79 38 120 -2 38 -37 58 -30 22 8 -27 30 -77 54 -112 54 -31 0 -57
29 -57 63 0 18 16 42 55 81 30 30 55 62 55 70 0 39 67 -3 143 -89 57 -65 87
-124 87 -175 0 -22 5 -40 10 -40 16 0 11 72 -9 116 -25 55 -132 178 -178 204
-25 14 -44 35 -55 62 -18 40 -18 41 2 23 11 -10 17 -22 14 -26 -3 -5 -1 -9 4
-9 20 0 72 71 72 98 -1 35 -24 65 -47 60 -14 -2 -19 -14 -21 -57 -2 -35 0 -51
7 -46 6 3 11 27 11 52 0 39 2 44 15 33 21 -18 19 -63 -5 -93 -24 -30 -21 -31
-107 48 l-43 40 1 122 c1 90 4 121 12 116 7 -3 24 -15 40 -25 15 -11 33 -18
40 -15 6 2 -12 19 -40 38 l-53 34 0 2636 0 2637 25 6 c29 7 75 71 75 103 0 38
-50 31 -88 -12z m67 -7 c-28 -55 -79 -89 -79 -53 0 18 59 74 78 75 10 0 10 -5
1 -22z"/>
<path d="M4613 6164 c-8 -22 9 -48 35 -52 29 -4 41 37 16 55 -24 18 -43 16
-51 -3z m42 -14 c3 -5 -1 -10 -10 -10 -9 0 -13 5 -10 10 3 6 8 10 10 10 2 0 7
-4 10 -10z"/>
<path d="M346 6158 c3 -4 9 -8 15 -8 5 0 9 4 9 8 0 5 -7 9 -15 9 -8 0 -12 -4
-9 -9z"/>
<path d="M2703 6155 c-17 -19 -16 -25 2 -25 8 0 15 9 15 20 0 23 -1 24 -17 5z"/>
<path d="M4230 6160 c0 -10 14 -14 39 -10 13 1 13 -1 1 -15 -12 -14 -12 -18 1
-26 8 -5 23 -9 34 -9 19 1 19 1 1 15 -22 16 -15 48 9 39 8 -3 15 -1 15 5 0 7
-20 11 -50 11 -27 0 -50 -4 -50 -10z"/>
<path d="M313 6105 c0 -33 2 -45 4 -27 2 18 2 45 0 60 -2 15 -4 0 -4 -33z"/>
<path d="M3965 6150 c-3 -5 -1 -10 4 -10 6 0 11 5 11 10 0 6 -2 10 -4 10 -3 0
-8 -4 -11 -10z"/>
<path d="M4080 6153 c-8 -2 -60 -22 -115 -43 -131 -51 -155 -56 -320 -70 -183
-15 -195 -17 -103 -19 162 -2 272 17 413 72 137 54 205 64 254 37 18 -9 26 -9
35 1 8 9 7 11 -6 6 -9 -3 -19 0 -22 9 -4 10 -22 14 -63 13 -32 0 -65 -3 -73
-6z"/>
<path d="M2320 6134 c-14 -7 -33 -14 -42 -14 -10 0 -18 -7 -18 -15 0 -16 7
-18 53 -17 22 1 27 -3 23 -15 -5 -13 -4 -13 8 -4 7 6 22 9 32 5 16 -5 17 -4 4
6 -13 9 -12 11 5 9 11 -1 27 -1 35 0 13 1 13 2 0 11 -8 5 -40 7 -70 5 -51 -5
-53 -4 -20 6 19 6 49 8 67 6 18 -3 35 -2 38 2 2 5 14 11 25 14 16 4 20 2 15
-12 -4 -15 0 -17 24 -13 19 3 31 11 35 26 5 21 5 21 -10 1 -14 -19 -16 -19
-28 -2 -9 12 -22 16 -42 12 -87 -13 -118 -15 -104 -5 22 15 -1 10 -30 -6z"/>
<path d="M2620 6130 c0 -11 5 -20 10 -20 6 0 9 6 8 13 -2 7 6 11 20 9 12 -2
22 2 22 7 0 6 -13 11 -30 11 -23 0 -30 -4 -30 -20z"/>
<path d="M3396 6128 c3 -5 10 -6 15 -3 13 9 11 12 -6 12 -8 0 -12 -4 -9 -9z"/>
<path d="M361 6114 c0 -11 3 -14 6 -6 3 7 2 16 -1 19 -3 4 -6 -2 -5 -13z"/>
<path d="M2578 6113 c7 -3 16 -2 19 1 4 3 -2 6 -13 5 -11 0 -14 -3 -6 -6z"/>
<path d="M1995 6100 c-3 -6 1 -7 9 -4 18 7 21 14 7 14 -6 0 -13 -4 -16 -10z"/>
<path d="M2527 6095 c-9 -11 -33 -37 -52 -59 -80 -87 -90 -160 -38 -266 18
-36 44 -78 57 -95 l25 -30 1 54 c0 37 -9 77 -27 123 -48 117 -50 75 -3 -56 33
-91 19 -98 -25 -12 -44 87 -50 137 -20 183 l18 27 26 -53 c15 -28 29 -49 32
-46 25 24 39 -98 20 -165 -5 -19 -13 -46 -17 -60 -4 -15 -3 -22 2 -17 5 5 14
-10 21 -35 11 -43 12 -43 11 -8 -1 19 2 46 6 59 6 17 5 22 -4 16 -9 -5 -10 -3
-2 11 14 28 23 96 11 89 -5 -4 -9 1 -9 9 0 9 5 16 11 16 8 0 9 14 4 48 -4 26
-7 86 -7 133 1 78 -1 88 -18 92 -15 4 -26 -6 -47 -39 -15 -24 -34 -44 -41 -44
-7 0 -15 -7 -18 -15 -4 -8 -11 -15 -17 -15 -5 0 -3 8 6 18 10 10 14 22 10 26
-5 4 -3 6 4 4 7 -1 30 21 52 51 23 29 41 49 41 43 0 -16 33 -24 42 -10 12 20
10 34 -4 20 -17 -17 -26 -15 -30 5 -3 16 -5 16 -21 -2z m25 -101 c-3 -26 -7
-32 -14 -23 -6 9 -7 3 -3 -19 4 -19 8 -44 10 -57 2 -23 1 -23 -20 -7 -13 9
-21 20 -19 24 2 3 -1 8 -7 10 -14 5 18 78 33 78 6 0 8 11 6 25 -4 18 -2 23 6
15 7 -5 10 -25 8 -46z"/>
<path d="M3071 6097 c-8 -10 -7 -14 2 -14 8 0 14 6 14 14 0 7 -1 13 -2 13 -2
0 -8 -6 -14 -13z"/>
<path d="M2650 6091 c0 -5 9 -13 21 -16 14 -5 19 -13 16 -25 -3 -12 6 -31 24
-51 16 -18 29 -35 29 -37 0 -7 -32 20 -52 43 -10 11 -17 17 -18 14 0 -13 31
-67 50 -84 20 -18 25 -49 14 -79 -3 -9 -10 -13 -15 -10 -5 3 -8 -6 -7 -20 1
-13 6 -22 10 -20 15 10 39 79 35 101 -2 12 0 20 4 17 17 -10 8 21 -25 89 -17
37 -35 65 -38 62 -3 -3 -11 1 -18 10 -14 17 -30 20 -30 6z"/>
<path d="M3800 6090 c-8 -5 -10 -10 -5 -10 6 0 17 5 25 10 8 5 11 10 5 10 -5
0 -17 -5 -25 -10z"/>
<path d="M2610 6087 c0 -2 13 -18 29 -36 25 -28 29 -30 35 -14 4 9 4 14 0 11
-3 -4 -16 4 -29 18 -20 21 -35 30 -35 21z"/>
<path d="M1179 6058 c-9 -19 -9 -21 2 -10 8 7 44 12 94 13 89 1 63 16 -32 18
-45 1 -54 -2 -64 -21z"/>
<path d="M3267 6069 c7 -7 15 -10 18 -7 3 3 -2 9 -12 12 -14 6 -15 5 -6 -5z"/>
<path d="M2309 6051 c6 -10 7 -22 3 -26 -4 -5 -2 -5 5 -2 13 8 6 47 -9 47 -5
0 -4 -8 1 -19z"/>
<path d="M2737 6048 c11 -13 28 -34 38 -48 l17 -25 -7 30 c-3 17 -16 38 -28
47 -31 25 -44 22 -20 -4z"/>
<path d="M3932 6063 c-12 -2 -20 -9 -17 -14 9 -14 39 -11 61 6 19 14 19 14 -1
13 -11 0 -30 -3 -43 -5z"/>
<path d="M281 6044 c0 -11 3 -14 6 -6 3 7 2 16 -1 19 -3 4 -6 -2 -5 -13z"/>
<path d="M1410 6050 c-47 -5 -112 -17 -144 -29 -33 -12 -81 -21 -108 -21 -30
0 -47 -4 -43 -10 3 -5 20 -10 36 -10 18 0 28 -4 24 -10 -4 -6 -14 -9 -23 -6
-19 6 -59 -20 -49 -31 4 -3 16 2 27 12 11 10 20 13 20 7 0 -6 -4 -13 -9 -16
-13 -8 -21 -45 -11 -51 5 -3 16 9 25 27 9 18 21 40 28 49 19 25 164 67 257 75
89 7 156 23 90 22 -19 -1 -73 -4 -120 -8z"/>
<path d="M2587 6054 c-10 -18 -8 -192 3 -199 8 -5 11 10 11 47 0 29 1 72 3 95
3 42 -7 73 -17 57z"/>
<path d="M1140 6039 c0 -5 5 -7 10 -4 6 3 10 8 10 11 0 2 -4 4 -10 4 -5 0 -10
-5 -10 -11z"/>
<path d="M2620 6026 c0 -15 7 -29 15 -33 26 -9 29 4 6 33 l-21 27 0 -27z"/>
<path d="M321 6035 c-2 -5 -2 -55 0 -110 6 -225 3 -4907 -3 -4990 -7 -90 -7
-90 6 -36 18 71 20 262 15 1661 -4 1136 -4 1701 -2 2740 1 470 -6 775 -16 735z"/>
<path d="M3881 6031 c-11 -7 -10 -13 5 -35 11 -14 26 -25 34 -23 17 3 27 47
11 47 -6 0 -11 -4 -11 -10 0 -5 -5 -10 -11 -10 -6 0 -9 9 -6 20 6 22 0 25 -22
11z"/>
<path d="M2286 6015 c4 -8 8 -15 10 -15 2 0 4 7 4 15 0 8 -4 15 -10 15 -5 0
-7 -7 -4 -15z"/>
<path d="M3039 6016 c-2 -2 -20 -7 -40 -10 -50 -8 -67 -15 -73 -32 -3 -9 -10
-12 -16 -9 -5 3 -10 1 -10 -4 0 -14 5 -14 30 -1 11 6 29 15 40 20 11 6 28 10
37 10 10 1 32 7 48 15 25 11 26 14 9 14 -11 1 -23 -1 -25 -3z"/>
<path d="M2641 5973 c-1 -7 8 -40 20 -74 14 -39 19 -75 17 -102 -3 -23 -3 -33
-1 -23 4 15 7 16 13 6 20 -32 -1 100 -24 150 -14 30 -25 49 -25 43z"/>
<path d="M2660 5971 c0 -6 5 -13 10 -16 6 -3 10 1 10 9 0 9 -4 16 -10 16 -5 0
-10 -4 -10 -9z"/>
<path d="M3328 5973 c7 -3 16 -2 19 1 4 3 -2 6 -13 5 -11 0 -14 -3 -6 -6z"/>
<path d="M473 5925 c0 -22 2 -30 4 -17 2 12 2 30 0 40 -3 9 -5 -1 -4 -23z"/>
<path d="M1219 5943 c-12 -16 -12 -17 2 -6 12 10 18 10 29 0 12 -10 12 -9 1 6
-7 9 -15 17 -16 17 -1 0 -9 -8 -16 -17z"/>
<path d="M3170 5943 c-42 -5 -61 -20 -22 -17 15 1 64 3 110 3 53 1 81 5 77 11
-6 10 -93 11 -165 3z"/>
<path d="M2869 5923 c-13 -17 -13 -17 6 -3 11 8 22 16 24 17 2 2 0 3 -6 3 -6
0 -17 -8 -24 -17z"/>
<path d="M2712 5885 c0 -16 2 -22 5 -12 2 9 2 23 0 30 -3 6 -5 -1 -5 -18z"/>
<path d="M4345 5900 c4 -6 11 -8 16 -5 14 9 11 15 -7 15 -8 0 -12 -5 -9 -10z"/>
<path d="M790 5880 c0 -5 7 -10 15 -10 8 0 15 5 15 10 0 6 -7 10 -15 10 -8 0
-15 -4 -15 -10z"/>
<path d="M1185 5880 c3 -5 8 -10 11 -10 2 0 4 5 4 10 0 6 -5 10 -11 10 -5 0
-7 -4 -4 -10z"/>
<path d="M3600 5877 c0 -3 7 -24 15 -47 8 -23 15 -55 15 -71 0 -16 5 -29 10
-29 15 0 12 40 -6 93 -13 38 -34 72 -34 54z"/>
<path d="M1896 5832 c-3 -5 1 -9 9 -9 8 0 12 4 9 9 -3 4 -7 8 -9 8 -2 0 -6 -4
-9 -8z"/>
<path d="M3250 5810 c8 -5 22 -10 30 -10 13 0 13 1 0 10 -8 5 -22 10 -30 10
-13 0 -13 -1 0 -10z"/>
<path d="M2532 5760 c0 -14 2 -19 5 -12 2 6 2 18 0 25 -3 6 -5 1 -5 -13z"/>
<path d="M3182 5725 c45 -61 63 -67 28 -10 -25 41 -48 65 -60 65 -5 0 9 -25
32 -55z"/>
<path d="M2323 5757 c4 -13 35 -18 42 -7 3 4 -7 10 -21 13 -14 2 -23 0 -21 -6z"/>
<path d="M1958 5753 c-28 -4 -65 -48 -102 -120 -24 -48 -2 -40 35 12 18 25 34
45 36 45 3 0 1 -15 -3 -32 -6 -28 -5 -31 8 -20 13 10 68 106 68 118 0 2 -3 3
-7 3 -5 -1 -20 -4 -35 -6z m-3 -33 c-10 -11 -20 -18 -23 -15 -7 6 18 35 31 35
5 0 2 -9 -8 -20z"/>
<path d="M4602 5748 c6 -18 28 -21 28 -4 0 9 -7 16 -16 16 -9 0 -14 -5 -12
-12z"/>
<path d="M2759 5722 c-13 -14 -17 -21 -8 -14 9 6 18 10 21 7 3 -3 11 1 17 9
22 27 -6 26 -30 -2z"/>
<path d="M3272 5730 c3 -8 15 -43 28 -77 20 -55 40 -82 40 -53 0 22 -42 119
-57 132 -14 11 -16 11 -11 -2z"/>
<path d="M4922 5700 c0 -19 2 -27 5 -17 2 9 2 25 0 35 -3 9 -5 1 -5 -18z"/>
<path d="M2811 5681 c-10 -17 -9 -21 3 -21 20 0 31 19 18 32 -7 7 -14 3 -21
-11z"/>
<path d="M292 5665 c0 -16 2 -22 5 -12 2 9 2 23 0 30 -3 6 -5 -1 -5 -18z"/>
<path d="M2220 5649 c0 -14 78 -61 90 -54 6 4 10 11 8 17 -5 13 -98 49 -98 37z"/>
<path d="M2367 5649 c7 -7 15 -10 18 -7 3 3 -2 9 -12 12 -14 6 -15 5 -6 -5z"/>
<path d="M2435 5641 c4 -9 10 -35 14 -59 5 -23 20 -60 35 -82 14 -22 26 -44
26 -49 0 -5 7 -14 15 -21 13 -11 13 -15 3 -21 -7 -5 -8 -9 -2 -9 20 0 24 14 9
36 -8 13 -12 30 -9 38 3 9 2 16 -3 16 -17 0 -78 144 -68 160 2 4 -3 7 -11 7
-9 0 -13 -6 -9 -16z"/>
<path d="M2856 5635 c-52 -14 -106 -55 -74 -55 9 0 19 4 22 9 3 4 33 16 66 25
33 9 60 21 60 27 0 12 -13 11 -74 -6z"/>
<path d="M2693 5613 c-3 -10 -18 -45 -33 -78 -28 -63 -38 -125 -20 -125 6 0 8
5 4 11 -4 7 -1 10 7 7 17 -6 28 5 58 62 14 25 32 57 40 71 9 16 11 33 7 45 -7
15 -9 16 -13 4 -4 -14 -46 -99 -69 -140 -6 -11 -15 -16 -22 -11 -9 5 -5 14 12
30 14 13 22 29 19 36 -5 16 25 85 38 85 5 0 9 5 9 10 0 17 -30 11 -37 -7z"/>
<path d="M2385 5572 c18 -26 45 -60 60 -76 27 -29 33 -42 13 -30 -7 4 -8 3 -4
-4 11 -17 -9 -15 -24 3 -17 21 -146 59 -168 50 -13 -6 -6 -10 25 -16 45 -8
148 -53 175 -76 9 -8 22 -12 27 -8 6 3 11 0 11 -8 0 -16 -35 -12 -46 4 -9 15
-134 10 -169 -7 -36 -17 -92 -81 -80 -92 4 -4 16 4 27 17 39 49 79 71 129 71
53 0 79 -7 79 -22 0 -6 -13 -8 -32 -5 -18 3 -27 3 -20 0 11 -4 10 -8 -2 -22
-8 -9 -16 -23 -18 -31 -2 -8 -10 -21 -18 -28 -13 -12 -11 -13 10 -8 14 4 45
11 70 16 25 5 55 12 68 16 14 4 22 2 22 -5 0 -7 -5 -9 -11 -6 -6 4 -22 -4 -36
-16 -30 -29 -67 -98 -53 -100 5 -1 16 -2 23 -3 6 -1 15 -5 19 -11 4 -5 8 0 8
11 0 12 7 34 14 50 8 15 13 30 11 34 -2 3 8 7 23 8 27 2 57 22 34 22 -7 0 -12
7 -12 15 0 9 -9 15 -22 15 -23 1 -23 1 -3 16 19 14 19 14 -5 10 -14 -2 -24 -9
-22 -16 2 -8 -5 -11 -19 -7 -12 3 -35 -1 -51 -9 -17 -9 -32 -13 -36 -10 -9 10
30 35 66 42 33 6 41 18 20 28 -7 3 0 4 15 1 26 -5 28 -4 25 22 -2 15 -9 29
-15 29 -7 1 -18 2 -24 3 -5 0 -8 5 -4 11 3 5 13 6 22 3 21 -8 12 7 -57 96 -61
79 -99 98 -45 23z m75 -357 c-13 -14 -26 -23 -28 -20 -3 3 5 16 18 30 13 14
26 23 28 20 3 -3 -5 -16 -18 -30z"/>
<path d="M2335 5570 c3 -5 8 -10 11 -10 2 0 4 5 4 10 0 6 -5 10 -11 10 -5 0
-7 -4 -4 -10z"/>
<path d="M493 5534 c-7 -19 2 -28 22 -21 19 8 19 23 0 31 -9 3 -18 -1 -22 -10z"/>
<path d="M2753 5505 c-21 -19 -41 -35 -45 -35 -5 0 -8 -5 -8 -10 0 -6 21 5 46
25 26 19 51 35 55 35 5 0 9 5 9 10 0 18 -19 10 -57 -25z"/>
<path d="M281 5514 c0 -11 3 -14 6 -6 3 7 2 16 -1 19 -3 4 -6 -2 -5 -13z"/>
<path d="M471 5484 c0 -11 3 -14 6 -6 3 7 2 16 -1 19 -3 4 -6 -2 -5 -13z"/>
<path d="M2843 5493 c9 -2 23 -2 30 0 6 3 -1 5 -18 5 -16 0 -22 -2 -12 -5z"/>
<path d="M2870 5478 c-14 -4 -60 -14 -102 -24 -43 -9 -75 -21 -72 -26 3 -5 -3
-12 -15 -15 -24 -6 -29 -23 -6 -23 16 0 67 21 75 31 15 19 110 40 172 37 37
-1 69 0 72 3 10 10 -98 25 -124 17z"/>
<path d="M2160 5456 c0 -25 27 -44 54 -39 32 6 33 17 4 37 -28 20 -58 21 -58
2z"/>
<path d="M2334 5456 c11 -9 25 -16 32 -16 7 0 21 -3 31 -6 10 -3 7 1 -7 9 -14
8 -36 18 -50 21 -24 7 -24 6 -6 -8z"/>
<path d="M2997 5443 c-4 -3 -7 -15 -7 -25 0 -13 8 -18 29 -18 37 0 50 19 26
37 -21 14 -38 17 -48 6z"/>
<path d="M2748 5404 c-32 -15 -58 -33 -58 -40 0 -8 -5 -14 -11 -14 -5 0 -8 4
-4 9 3 5 1 12 -5 16 -5 3 -12 -6 -16 -20 -3 -13 -9 -23 -13 -21 -4 3 -13 1
-21 -5 -11 -6 -9 -9 11 -9 14 0 58 -16 97 -36 43 -22 78 -34 88 -30 24 9 6 25
-33 30 -17 3 -53 16 -79 31 l-49 26 44 -6 c25 -4 51 -14 59 -21 7 -8 23 -14
35 -14 22 1 22 1 2 16 -11 8 -19 20 -17 25 1 5 -6 9 -15 9 -10 0 -26 7 -36 14
-17 13 -16 15 15 25 18 5 50 13 71 17 79 14 178 -54 193 -132 4 -24 10 -32 17
-25 7 7 1 28 -19 68 -24 47 -37 62 -74 80 -73 36 -116 38 -182 7z"/>
<path d="M281 5404 c0 -11 3 -14 6 -6 3 7 2 16 -1 19 -3 4 -6 -2 -5 -13z"/>
<path d="M2630 5385 c0 -8 5 -15 10 -15 6 0 10 7 10 15 0 8 -4 15 -10 15 -5 0
-10 -7 -10 -15z"/>
<path d="M2565 5380 c-3 -5 -2 -10 4 -10 5 0 13 5 16 10 3 6 2 10 -4 10 -5 0
-13 -4 -16 -10z"/>
<path d="M3068 5383 c7 -3 16 -2 19 1 4 3 -2 6 -13 5 -11 0 -14 -3 -6 -6z"/>
<path d="M2066 5364 c-3 -8 1 -31 9 -50 15 -37 31 -47 22 -13 -4 14 2 27 18
41 14 12 22 25 19 30 -9 14 -62 9 -68 -8z"/>
<path d="M2165 5354 c-27 -29 -41 -62 -30 -72 8 -8 23 15 32 48 3 14 13 30 22
37 9 7 12 13 8 13 -4 0 -19 -12 -32 -26z"/>
<path d="M2998 5373 c7 -3 16 -2 19 1 4 3 -2 6 -13 5 -11 0 -14 -3 -6 -6z"/>
<path d="M3044 5347 c10 -7 28 -22 39 -34 21 -23 47 -31 47 -14 0 5 -4 21 -10
35 -8 23 -15 26 -52 25 -37 0 -41 -2 -24 -12z"/>
<path d="M2561 5308 c-2 -52 -14 -108 -23 -108 -7 0 -7 -4 0 -12 22 -27 25
-172 7 -255 -10 -43 -18 -112 -18 -153 0 -62 -2 -70 -10 -45 -5 17 -25 65 -44
108 l-35 78 46 97 c52 111 62 142 47 142 -6 0 -11 -8 -11 -19 0 -10 -12 -40
-27 -67 -14 -27 -36 -69 -48 -94 l-22 -45 -8 44 c-7 44 5 67 30 55 5 -3 2 1
-8 9 -16 14 -15 17 18 65 19 29 35 54 35 56 0 3 11 22 25 42 27 40 33 68 13
61 -7 -2 -12 -12 -10 -22 2 -9 -1 -14 -7 -11 -5 3 -14 -8 -20 -26 -6 -18 -31
-58 -56 -88 -53 -64 -58 -102 -24 -180 12 -27 19 -57 15 -65 -3 -9 -2 -14 3
-11 11 7 129 -244 137 -293 6 -35 4 -40 -9 -35 -12 4 -11 -2 5 -35 11 -23 25
-41 30 -41 6 0 5 6 -2 15 -9 11 -9 15 -1 15 14 0 61 48 61 62 0 5 10 22 22 38
12 16 19 33 15 36 -8 9 -44 -31 -52 -57 -8 -25 -25 -24 -25 1 0 11 5 20 10 20
6 0 10 5 10 11 0 6 -7 9 -15 5 -27 -10 -17 28 32 125 26 52 50 111 53 133 l5
39 57 -47 c60 -48 66 -62 86 -171 l10 -50 1 46 c0 25 -5 66 -12 90 l-14 45 59
-4 c48 -4 58 -2 58 12 0 13 -8 15 -47 10 -27 -3 -56 -7 -65 -8 -9 -2 -29 10
-45 27 -26 28 -27 29 -6 24 13 -3 27 1 34 9 8 10 8 14 0 14 -6 0 -11 -3 -11
-7 0 -16 -56 -7 -90 14 -19 12 -52 42 -73 68 l-39 46 34 -21 c18 -11 48 -20
66 -20 38 0 132 37 132 52 0 6 -8 7 -17 4 -9 -4 -44 -10 -77 -14 -60 -6 -61
-7 -21 -13 l40 -6 -38 -2 c-79 -2 -140 49 -153 127 -8 51 4 174 17 167 5 -4 9
4 9 17 0 18 -2 20 -10 8 -6 -10 -10 -11 -10 -2 0 22 -18 13 -19 -10z m40 -284
c10 -26 33 -64 49 -84 40 -51 39 -90 -4 -162 -19 -31 -43 -80 -53 -108 -17
-49 -18 -50 -24 -23 -11 48 -10 170 1 153 5 -8 10 -40 10 -70 0 -36 4 -50 9
-40 5 9 4 54 -4 110 -7 52 -13 84 -14 70 -1 -14 -6 -32 -11 -40 -22 -33 -9 33
16 86 17 37 23 59 16 67 -9 11 -22 87 -15 87 2 0 13 -21 24 -46z m-24 -81 c-3
-10 -5 -4 -5 12 0 17 2 24 5 18 2 -7 2 -21 0 -30z m-30 -165 c-3 -7 -5 -2 -5
12 0 14 2 19 5 13 2 -7 2 -19 0 -25z m59 -236 c4 -21 3 -32 -5 -32 -6 0 -11 4
-11 9 0 5 -3 24 -6 42 -5 25 -4 31 4 24 7 -6 15 -25 18 -43z"/>
<path d="M2256 5302 c5 -4 12 -11 15 -15 3 -5 9 -2 12 5 3 9 -3 14 -15 15 -11
1 -16 -1 -12 -5z"/>
<path d="M2607 5296 c-4 -10 -3 -24 1 -30 5 -6 14 -40 21 -76 14 -75 30 -120
42 -120 12 0 11 5 -7 48 -8 20 -18 55 -20 77 -3 22 -8 49 -11 60 -5 18 -4 18
11 6 23 -19 29 -9 15 23 -14 30 -29 34 -30 9 0 -16 -1 -16 -8 1 -7 18 -8 19
-14 2z"/>
<path d="M2283 5240 c-36 -21 -43 -44 -17 -54 29 -11 40 -6 57 28 23 50 11 58
-40 26z"/>
<path d="M4923 5180 c0 -41 2 -58 4 -37 2 20 2 54 0 75 -2 20 -4 3 -4 -38z"/>
<path d="M2650 5231 c0 -5 7 -14 15 -21 16 -14 18 -10 9 14 -6 17 -24 22 -24
7z"/>
<path d="M2587 5208 c-4 -12 -4 -24 -2 -27 3 -2 5 1 5 8 0 7 5 9 10 6 6 -3 10
1 10 9 0 25 -17 27 -23 4z"/>
<path d="M284 5020 c0 -107 2 -151 3 -97 2 53 2 141 0 195 -1 53 -3 9 -3 -98z"/>
<path d="M473 5140 c0 -41 2 -58 4 -37 2 20 2 54 0 75 -2 20 -4 3 -4 -38z"/>
<path d="M1971 5176 c-8 -10 -8 -16 2 -25 16 -13 27 -5 27 21 0 21 -13 23 -29
4z"/>
<path d="M2022 5150 c-6 -11 -12 -25 -12 -31 0 -18 27 8 33 31 7 26 -5 26 -21
0z"/>
<path d="M2698 5165 c-15 -15 6 -45 31 -45 36 0 59 16 45 30 -13 13 -67 23
-76 15z m42 -25 c0 -5 -4 -10 -10 -10 -5 0 -10 5 -10 10 0 6 5 10 10 10 6 0
10 -4 10 -10z"/>
<path d="M4632 5156 c1 -10 8 -17 13 -17 15 1 12 24 -3 29 -9 3 -13 -2 -10
-12z"/>
<path d="M2928 5139 c-24 -13 -23 -32 2 -54 27 -24 51 -6 29 21 -8 10 -9 15
-2 11 17 -10 28 13 12 24 -17 11 -20 11 -41 -2z"/>
<path d="M2611 5084 c0 -11 3 -14 6 -6 3 7 2 16 -1 19 -3 4 -6 -2 -5 -13z"/>
<path d="M492 5050 c0 -14 2 -19 5 -12 2 6 2 18 0 25 -3 6 -5 1 -5 -13z"/>
<path d="M2160 5030 c12 -23 49 -40 86 -40 13 0 51 -14 84 -30 33 -17 60 -26
60 -21 0 13 -130 78 -173 86 -20 4 -40 11 -43 16 -11 19 -24 8 -14 -11z"/>
<path d="M2860 5036 c0 -8 4 -17 9 -20 5 -4 7 3 4 14 -6 23 -13 26 -13 6z"/>
<path d="M4922 4970 c0 -19 2 -27 5 -17 2 9 2 25 0 35 -3 9 -5 1 -5 -18z"/>
<path d="M2210 4961 c0 -17 46 -38 98 -44 29 -3 67 -13 83 -21 16 -8 29 -11
29 -6 0 16 -28 30 -91 45 -35 9 -72 20 -81 25 -22 12 -38 13 -38 1z"/>
<path d="M2492 4945 c-17 -37 -14 -45 4 -12 9 16 14 31 11 33 -2 2 -9 -7 -15
-21z"/>
<path d="M491 4944 c0 -11 3 -14 6 -6 3 7 2 16 -1 19 -3 4 -6 -2 -5 -13z"/>
<path d="M4923 4890 c0 -25 2 -35 4 -22 2 12 2 32 0 45 -2 12 -4 2 -4 -23z"/>
<path d="M492 4895 c0 -16 2 -22 5 -12 2 9 2 23 0 30 -3 6 -5 -1 -5 -18z"/>
<path d="M2867 4873 c-15 -14 -6 -24 20 -21 34 4 43 28 11 28 -14 0 -28 -3
-31 -7z"/>
<path d="M2727 4825 c3 -27 7 -75 7 -105 2 -55 6 -65 28 -58 13 5 1 79 -27
168 l-15 45 7 -50z"/>
<path d="M471 4844 c0 -11 3 -14 6 -6 3 7 2 16 -1 19 -3 4 -6 -2 -5 -13z"/>
<path d="M4923 4790 c0 -30 2 -43 4 -27 2 15 2 39 0 55 -2 15 -4 2 -4 -28z"/>
<path d="M282 4795 c0 -16 2 -22 5 -12 2 9 2 23 0 30 -3 6 -5 -1 -5 -18z"/>
<path d="M472 4790 c0 -14 2 -19 5 -12 2 6 2 18 0 25 -3 6 -5 1 -5 -13z"/>
<path d="M2295 4790 c-7 -11 5 -18 66 -36 62 -19 147 -94 174 -154 10 -22 20
-38 22 -36 7 7 -33 92 -60 128 -13 18 -22 40 -20 48 4 12 3 12 -5 1 -8 -11
-14 -11 -38 3 -48 26 -134 55 -139 46z"/>
<path d="M493 4745 c0 -27 2 -38 4 -22 2 15 2 37 0 50 -2 12 -4 0 -4 -28z"/>
<path d="M4731 4764 c0 -11 3 -14 6 -6 3 7 2 16 -1 19 -3 4 -6 -2 -5 -13z"/>
<path d="M2910 4745 c0 -8 4 -15 9 -15 5 0 13 -9 16 -21 6 -19 52 -45 62 -35
12 11 -12 49 -40 67 -38 23 -47 24 -47 4z"/>
<path d="M2307 4739 c7 -7 15 -10 18 -7 3 3 -2 9 -12 12 -14 6 -15 5 -6 -5z"/>
<path d="M2881 4734 c0 -11 3 -14 6 -6 3 7 2 16 -1 19 -3 4 -6 -2 -5 -13z"/>
<path d="M4731 4724 c0 -11 3 -14 6 -6 3 7 2 16 -1 19 -3 4 -6 -2 -5 -13z"/>
<path d="M2357 4719 c7 -7 15 -10 18 -7 3 3 -2 9 -12 12 -14 6 -15 5 -6 -5z"/>
<path d="M4923 4695 c0 -22 2 -30 4 -17 2 12 2 30 0 40 -3 9 -5 -1 -4 -23z"/>
<path d="M4640 4701 c0 -5 5 -13 10 -16 6 -3 10 -2 10 4 0 5 -4 13 -10 16 -5
3 -10 2 -10 -4z"/>
<path d="M471 4684 c0 -11 3 -14 6 -6 3 7 2 16 -1 19 -3 4 -6 -2 -5 -13z"/>
<path d="M2247 4679 c-14 -8 -16 -14 -6 -25 15 -18 19 -18 54 11 l30 25 -30 0
c-16 0 -38 -5 -48 -11z"/>
<path d="M2668 4683 c7 -3 16 -2 19 1 4 3 -2 6 -13 5 -11 0 -14 -3 -6 -6z"/>
<path d="M281 4644 c0 -11 3 -14 6 -6 3 7 2 16 -1 19 -3 4 -6 -2 -5 -13z"/>
<path d="M2385 4651 c-3 -5 11 -15 31 -21 19 -7 54 -30 76 -51 42 -40 57 -45
40 -12 -24 43 -133 106 -147 84z"/>
<path d="M472 4630 c0 -14 2 -19 5 -12 2 6 2 18 0 25 -3 6 -5 1 -5 -13z"/>
<path d="M2835 4619 c-4 -6 -5 -12 -2 -15 2 -3 7 2 10 11 7 17 1 20 -8 4z"/>
<path d="M291 4604 c0 -11 3 -14 6 -6 3 7 2 16 -1 19 -3 4 -6 -2 -5 -13z"/>
<path d="M2696 4602 c-3 -9 -17 -35 -30 -57 -13 -22 -31 -52 -39 -66 l-14 -27
38 0 c22 -1 39 3 39 8 0 5 17 18 38 29 20 10 50 33 66 50 28 29 28 31 9 31
-12 0 -49 -23 -83 -51 -33 -28 -64 -48 -68 -45 -3 4 -2 10 3 14 24 17 68 119
56 127 -5 2 -11 -3 -15 -13z"/>
<path d="M2377 4584 c-19 -19 57 -104 109 -122 57 -18 75 35 28 79 l-26 24 18
-38 c14 -29 15 -40 6 -49 -9 -9 -12 -8 -12 5 0 21 -39 77 -54 77 -5 0 0 -10
11 -22 44 -50 32 -50 -17 0 -56 56 -54 55 -63 46z m54 -61 c13 -16 12 -17 -3
-4 -10 7 -18 15 -18 17 0 8 8 3 21 -13z"/>
<path d="M4925 3730 c0 -470 1 -663 2 -428 2 236 2 620 0 855 -1 236 -2 43 -2
-427z"/>
<path d="M2715 4560 c-3 -5 -2 -10 4 -10 5 0 13 5 16 10 3 6 2 10 -4 10 -5 0
-13 -4 -16 -10z"/>
<path d="M492 4520 c0 -19 2 -27 5 -17 2 9 2 25 0 35 -3 9 -5 1 -5 -18z"/>
<path d="M4641 4534 c0 -11 3 -14 6 -6 3 7 2 16 -1 19 -3 4 -6 -2 -5 -13z"/>
<path d="M284 4445 c0 -55 1 -76 3 -47 2 29 2 74 0 100 -2 26 -3 2 -3 -53z"/>
<path d="M2340 4512 c0 -17 59 -64 70 -57 7 4 15 3 19 -2 9 -15 55 -28 47 -14
-6 10 -122 81 -132 81 -2 0 -4 -4 -4 -8z"/>
<path d="M4641 4494 c0 -11 3 -14 6 -6 3 7 2 16 -1 19 -3 4 -6 -2 -5 -13z"/>
<path d="M2745 4480 c-3 -5 -15 -10 -26 -10 -10 0 -19 -4 -19 -10 0 -14 10
-12 50 10 21 11 28 19 18 20 -9 0 -20 -4 -23 -10z"/>
<path d="M2721 4441 c-19 -3 -36 -12 -39 -19 -3 -11 0 -12 18 -2 12 7 38 9 59
6 24 -4 29 -3 16 3 l-20 8 20 5 20 6 -20 0 c-11 -1 -35 -3 -54 -7z"/>
<path d="M2831 4424 c-34 -24 -75 -32 -85 -15 -7 11 -46 2 -46 -10 0 -5 6 -9
13 -10 6 0 3 -4 -8 -9 -14 -6 -16 -9 -5 -10 52 -5 70 -5 70 2 0 4 11 8 24 8
24 0 86 44 86 61 0 14 -12 10 -49 -17z"/>
<path d="M463 4375 c0 -38 2 -53 4 -32 2 20 2 52 0 70 -2 17 -4 1 -4 -38z"/>
<path d="M2230 4429 c0 -16 54 -44 119 -60 60 -15 63 -18 36 -23 -71 -15 -134
-37 -145 -51 -19 -23 -6 -28 27 -12 15 8 41 17 58 21 16 4 33 13 37 19 3 6 29
11 57 11 28 0 51 1 51 3 0 1 -17 12 -37 22 -30 16 -33 20 -14 18 16 -1 26 5
32 21 11 28 -14 40 -69 33 -30 -3 -33 -5 -17 -11 11 -4 30 -6 43 -4 12 3 22 0
22 -6 0 -16 -90 -11 -147 9 -29 10 -53 14 -53 10z"/>
<path d="M491 4394 c0 -11 3 -14 6 -6 3 7 2 16 -1 19 -3 4 -6 -2 -5 -13z"/>
<path d="M2653 4383 c4 -29 15 -40 47 -52 17 -5 28 -6 25 -1 -3 5 18 8 50 7
30 -2 55 1 55 5 0 4 -36 8 -80 8 -73 0 -80 2 -80 19 0 11 -5 23 -10 26 -6 3
-9 -2 -7 -12z"/>
<path d="M2885 4370 c3 -5 8 -10 11 -10 2 0 4 5 4 10 0 6 -5 10 -11 10 -5 0
-7 -4 -4 -10z"/>
<path d="M281 4314 c0 -11 3 -14 6 -6 3 7 2 16 -1 19 -3 4 -6 -2 -5 -13z"/>
<path d="M2650 4309 c0 -11 10 -30 23 -42 13 -12 15 -16 5 -8 -16 12 -18 12
-18 -1 0 -15 43 -58 86 -85 17 -11 15 -12 -11 -6 -16 3 -32 10 -34 16 -2 5
-16 23 -30 40 -15 18 -31 41 -35 51 -3 10 -9 16 -12 13 -11 -11 30 -82 65
-115 40 -37 74 -39 79 -4 2 12 -2 22 -8 22 -6 0 -9 4 -6 9 3 5 -6 16 -20 26
-16 10 -23 22 -20 31 3 8 2 13 -2 10 -8 -5 -42 28 -42 40 0 4 11 -1 25 -10 29
-19 145 -34 145 -19 0 6 -28 16 -62 22 -35 7 -78 16 -95 21 -29 7 -33 6 -33
-11z"/>
<path d="M2810 4320 l-35 -7 30 -3 c17 -2 35 -4 42 -4 16 -2 29 -16 15 -16 -7
0 -12 -4 -12 -10 0 -5 11 -10 25 -10 18 0 25 5 25 20 0 18 -28 42 -47 39 -4
-1 -24 -5 -43 -9z"/>
<path d="M4590 4315 c0 -8 7 -15 16 -15 14 0 14 3 4 15 -7 8 -14 15 -16 15 -2
0 -4 -7 -4 -15z"/>
<path d="M2385 4313 c-29 -7 -43 -23 -19 -23 30 0 64 11 64 21 0 9 -12 10 -45
2z"/>
<path d="M2400 4278 c-54 -25 -62 -32 -45 -38 18 -7 19 -8 3 -15 -10 -4 -18
-11 -18 -16 0 -18 37 -8 77 21 l42 31 -3 -27 c-2 -15 -18 -45 -35 -66 -18 -21
-26 -38 -19 -38 19 1 68 47 68 65 0 8 4 15 9 15 12 0 34 56 28 72 -3 7 -6 3
-6 -8 -1 -12 -8 -27 -16 -34 -13 -10 -15 -9 -15 9 0 13 -7 21 -17 22 -14 0
-13 2 5 9 20 9 32 31 15 29 -5 0 -37 -14 -73 -31z"/>
<path d="M462 4275 c0 -16 2 -22 5 -12 2 9 2 23 0 30 -3 6 -5 -1 -5 -18z"/>
<path d="M2579 4261 c-8 -17 -17 -31 -21 -31 -4 0 -6 -41 -6 -91 1 -55 4 -85
10 -77 4 7 8 27 7 43 -2 64 5 67 12 5 4 -36 11 -90 14 -120 4 -30 4 -52 0 -48
-5 5 -11 45 -14 101 -1 10 -18 -7 -52 -53 -32 -43 -41 -68 -32 -83 8 -12 9
-16 12 -39 1 -7 9 7 17 32 9 25 24 54 35 65 19 19 19 19 19 0 0 -43 -32 -121
-61 -151 -19 -20 -56 -40 -100 -55 -38 -13 -69 -27 -69 -31 0 -22 98 10 147
48 18 14 33 23 33 20 0 -20 -144 -287 -167 -308 -15 -15 -59 -41 -97 -58 -37
-17 -66 -33 -63 -36 5 -5 87 28 130 52 l29 16 -17 -32 c-24 -46 -55 -176 -55
-229 0 -25 12 -88 26 -141 34 -125 35 -128 41 -112 3 7 -5 45 -18 85 -35 113
-39 153 -23 242 15 78 88 255 106 255 4 0 8 -15 8 -32 0 -45 19 -108 32 -108
5 0 8 6 5 14 -38 98 -32 150 30 277 25 52 56 122 68 157 l22 63 6 -69 c10
-107 65 -196 154 -248 24 -14 41 -29 38 -33 -2 -5 3 -15 13 -22 15 -13 16 -12
3 4 -11 13 -11 17 -1 17 15 0 -15 27 -77 70 -29 20 -53 50 -75 92 -32 63 -32
63 -33 223 -1 113 -6 180 -18 228 -20 79 -21 97 -7 97 6 0 10 -15 10 -34 0
-19 4 -37 9 -40 14 -9 79 -216 82 -261 1 -22 2 -60 1 -85 l-2 -45 -20 25 c-11
14 -20 30 -20 36 0 10 -30 30 -30 21 0 -2 14 -30 30 -62 17 -32 30 -67 30 -77
0 -10 4 -18 8 -18 10 0 32 149 27 176 -14 70 -15 88 -4 77 6 -6 13 -26 15 -44
2 -18 9 -38 14 -43 15 -15 13 17 -2 34 -7 7 5 -1 27 -19 50 -40 165 -104 165
-91 0 5 -28 24 -62 42 -108 57 -166 135 -215 287 -14 47 -34 100 -43 119 l-17
35 -14 -32z m-15 -263 c-19 -37 -54 -76 -54 -61 0 6 7 16 16 24 8 7 22 25 30
41 8 15 17 28 20 28 2 0 -3 -14 -12 -32z"/>
<path d="M2506 4227 c-13 -28 -33 -61 -45 -71 -11 -11 -21 -24 -21 -30 0 -6 9
0 20 14 l19 25 -11 -37 c-6 -21 -18 -38 -26 -38 -11 0 -12 -3 -3 -14 10 -11
10 -20 1 -37 -10 -17 -9 -23 1 -30 11 -6 10 -9 -4 -15 -12 -4 -14 -10 -8 -18
5 -6 10 -30 9 -52 -1 -60 13 -147 22 -137 4 4 3 45 -3 90 -10 82 -10 83 19
124 50 70 64 103 64 143 0 42 -11 43 -15 2 -5 -39 -16 -69 -41 -106 -16 -24
-24 -29 -24 -17 0 26 27 87 39 87 6 0 11 5 11 11 0 5 -5 7 -11 3 -13 -8 -1 38
11 46 5 3 11 22 15 43 4 20 14 41 22 46 13 7 13 9 -1 14 -13 5 -22 -5 -40 -46z"/>
<path d="M281 4254 c0 -11 3 -14 6 -6 3 7 2 16 -1 19 -3 4 -6 -2 -5 -13z"/>
<path d="M550 4260 c0 -5 7 -10 15 -10 8 0 15 5 15 10 0 6 -7 10 -15 10 -8 0
-15 -4 -15 -10z"/>
<path d="M282 4210 c0 -14 2 -19 5 -12 2 6 2 18 0 25 -3 6 -5 1 -5 -13z"/>
<path d="M2407 4204 c-15 -13 -24 -24 -19 -24 14 0 58 37 52 43 -3 3 -18 -6
-33 -19z"/>
<path d="M4641 4174 c0 -11 3 -14 6 -6 3 7 2 16 -1 19 -3 4 -6 -2 -5 -13z"/>
<path d="M4635 4140 c-3 -5 -1 -10 4 -10 6 0 11 5 11 10 0 6 -2 10 -4 10 -3 0
-8 -4 -11 -10z"/>
<path d="M2297 4133 c-15 -15 -6 -33 17 -33 21 0 56 22 56 36 0 7 -66 5 -73
-3z"/>
<path d="M2720 4106 c0 -2 8 -10 18 -17 15 -13 16 -12 3 4 -13 16 -21 21 -21
13z"/>
<path d="M2692 4071 c4 -13 55 -45 92 -56 19 -5 19 -6 0 -20 -18 -13 -16 -14
24 -15 30 0 42 4 42 14 0 19 -20 32 -20 14 0 -8 -5 -6 -11 5 -5 9 -16 17 -24
17 -18 0 -87 32 -98 45 -5 6 -7 5 -5 -4z"/>
<path d="M4951 4064 c0 -11 3 -14 6 -6 3 7 2 16 -1 19 -3 4 -6 -2 -5 -13z"/>
<path d="M282 4020 c0 -14 2 -19 5 -12 2 6 2 18 0 25 -3 6 -5 1 -5 -13z"/>
<path d="M2506 3993 c-6 -14 -5 -15 5 -6 7 7 10 15 7 18 -3 3 -9 -2 -12 -12z"/>
<path d="M2360 3915 c-7 -9 -11 -18 -8 -21 8 -8 58 18 52 27 -8 14 -30 10 -44
-6z"/>
<path d="M3321 3884 c0 -11 3 -14 6 -6 3 7 2 16 -1 19 -3 4 -6 -2 -5 -13z"/>
<path d="M2392 3878 c-7 -7 -32 -11 -57 -9 -26 1 -45 -2 -45 -9 0 -10 12 -14
43 -11 25 3 21 -8 -8 -19 -27 -10 -34 -30 -11 -30 19 0 108 77 98 84 -5 3 -14
0 -20 -6z"/>
<path d="M2760 3873 c0 -5 20 -53 45 -106 25 -53 42 -103 39 -112 -4 -10 0
-15 14 -15 24 0 70 -35 60 -45 -4 -4 -19 0 -33 9 -26 17 -26 17 -15 -3 9 -19
23 -26 33 -18 2 1 11 -4 20 -11 22 -19 33 4 13 27 -9 10 -16 23 -16 29 0 6
-14 21 -31 35 -20 15 -44 55 -70 112 -38 86 -59 121 -59 98z"/>
<path d="M282 3850 c0 -14 2 -19 5 -12 2 6 2 18 0 25 -3 6 -5 1 -5 -13z"/>
<path d="M2567 3775 c-11 -73 -33 -164 -53 -210 -15 -36 -19 -95 -6 -95 13 0
52 105 53 145 1 42 16 111 18 85 3 -41 70 -150 128 -207 34 -35 74 -81 89
-103 15 -22 31 -40 35 -40 13 0 11 7 -7 35 -17 26 -7 34 14 13 9 -9 15 -9 24
0 16 16 4 25 -32 25 -63 0 -230 204 -230 281 0 15 -4 25 -9 21 -6 -3 -11 19
-13 52 l-3 58 -8 -60z m-31 -221 c-8 -21 -15 -31 -15 -22 -1 21 18 72 24 66 3
-3 -1 -22 -9 -44z"/>
<path d="M2835 3808 c8 -21 90 -68 118 -68 33 0 43 16 18 29 -25 14 -34 14
-26 1 11 -18 -21 -10 -56 13 -55 37 -59 39 -54 25z"/>
<path d="M201 3724 c0 -11 3 -14 6 -6 3 7 2 16 -1 19 -3 4 -6 -2 -5 -13z"/>
<path d="M4642 3695 c0 -16 2 -22 5 -12 2 9 2 23 0 30 -3 6 -5 -1 -5 -18z"/>
<path d="M2379 3673 c-13 -16 -12 -17 4 -4 9 7 17 15 17 17 0 8 -8 3 -21 -13z"/>
<path d="M2420 3650 c-35 -30 -35 -39 0 -20 16 9 48 51 38 50 -2 0 -19 -14
-38 -30z"/>
<path d="M2230 3655 c-17 -21 -8 -27 24 -19 21 5 24 9 15 20 -15 18 -24 18
-39 -1z"/>
<path d="M282 3640 c0 -14 2 -19 5 -12 2 6 2 18 0 25 -3 6 -5 1 -5 -13z"/>
<path d="M2573 3631 c7 -34 -18 -147 -40 -180 -11 -18 -12 -25 -3 -31 8 -5 8
-9 -3 -13 -9 -3 -17 2 -20 14 -3 10 -11 19 -19 19 -9 0 -9 -3 -2 -8 31 -20 25
-52 -25 -135 -32 -52 -51 -94 -51 -112 l1 -30 21 40 c11 22 29 50 40 62 11 12
17 26 14 32 -4 5 -2 12 4 16 29 18 -9 -118 -52 -189 -26 -43 -28 -53 -18 -74
l11 -26 24 28 c13 15 26 40 29 54 11 59 27 212 23 219 -2 4 -1 17 4 28 4 12 8
-21 8 -85 1 -71 8 -129 21 -180 32 -118 49 -259 39 -313 -9 -50 -50 -124 -82
-146 -20 -15 -52 -79 -43 -89 11 -11 45 31 81 100 20 38 39 68 41 66 2 -2 -3
-28 -10 -58 -13 -60 -59 -145 -81 -154 -18 -7 -42 -54 -47 -91 -5 -49 16 -40
24 9 7 49 14 66 28 66 5 0 7 -13 4 -30 -4 -18 -2 -30 4 -30 5 0 13 15 16 33 3
17 14 54 25 81 l18 49 8 -124 c8 -144 -1 -178 -61 -240 -20 -20 -34 -44 -32
-53 4 -23 97 104 110 151 7 25 7 71 -1 142 -6 67 -7 123 -1 151 5 25 10 81 11
125 l2 80 8 -80 c11 -123 19 -165 44 -230 13 -33 26 -70 30 -82 7 -24 35 -32
35 -11 0 6 -14 36 -32 67 -38 68 -47 104 -58 251 -10 137 -32 268 -54 329 -19
51 -19 54 -6 46 5 -3 2 11 -7 32 -21 48 -21 248 0 290 7 16 12 37 10 48 -3 16
-2 17 6 5 6 -8 11 -30 11 -48 0 -42 35 -200 56 -252 12 -30 19 -38 25 -28 6 9
9 2 9 -19 0 -18 5 -33 10 -33 20 0 23 33 7 62 -15 25 -15 31 0 65 23 56 12
109 -46 223 -44 88 -51 110 -51 161 0 37 -4 59 -11 59 -7 0 -9 -11 -6 -29z
m107 -351 c0 -25 -5 -52 -10 -60 -7 -12 -10 -8 -10 15 0 31 -45 182 -60 200
-5 6 -11 28 -15 50 -5 33 3 23 44 -60 38 -76 50 -111 51 -145z m-55 44 c25
-91 32 -136 17 -119 -7 9 -17 47 -49 195 -13 59 10 5 32 -76z m-151 -211 c-6
-22 -43 -72 -44 -58 0 11 37 75 44 75 2 0 2 -8 0 -17z"/>
<path d="M4647 3628 c-7 -42 -9 -164 -3 -158 5 6 16 190 11 190 -1 0 -5 -15
-8 -32z"/>
<path d="M492 3615 c0 -16 2 -22 5 -12 2 9 2 23 0 30 -3 6 -5 -1 -5 -18z"/>
<path d="M2253 3623 c-13 -2 -23 -9 -23 -14 0 -15 53 -7 58 9 2 6 0 11 -5 11
-4 -1 -18 -4 -30 -6z"/>
<path d="M2800 3599 c0 -11 5 -17 10 -14 6 3 10 13 10 21 0 8 -4 14 -10 14 -5
0 -10 -9 -10 -21z"/>
<path d="M2501 3594 c0 -11 3 -14 6 -6 3 7 2 16 -1 19 -3 4 -6 -2 -5 -13z"/>
<path d="M2986 3593 c-6 -14 -5 -15 5 -6 7 7 10 15 7 18 -3 3 -9 -2 -12 -12z"/>
<path d="M2690 3580 c0 -5 5 -10 11 -10 5 0 7 5 4 10 -3 6 -8 10 -11 10 -2 0
-4 -4 -4 -10z"/>
<path d="M282 3520 c0 -19 2 -27 5 -17 2 9 2 25 0 35 -3 9 -5 1 -5 -18z"/>
<path d="M2829 3533 c-13 -16 -12 -17 4 -4 16 13 21 21 13 21 -2 0 -10 -8 -17
-17z"/>
<path d="M2645 3494 c6 -32 31 -84 40 -84 2 0 -5 27 -17 60 -22 67 -34 79 -23
24z"/>
<path d="M2750 3516 c0 -8 7 -21 15 -30 9 -8 15 -19 15 -23 -1 -4 2 -9 7 -10
21 -7 10 43 -13 60 -20 15 -24 15 -24 3z"/>
<path d="M471 3504 c0 -11 3 -14 6 -6 3 7 2 16 -1 19 -3 4 -6 -2 -5 -13z"/>
<path d="M2326 3508 c3 -5 10 -6 15 -3 13 9 11 12 -6 12 -8 0 -12 -4 -9 -9z"/>
<path d="M2406 3463 c-3 -16 -2 -41 3 -58 8 -26 9 -23 10 28 1 62 -4 73 -13
30z"/>
<path d="M4643 3415 c0 -27 2 -38 4 -22 2 15 2 37 0 50 -2 12 -4 0 -4 -28z"/>
<path d="M472 3410 c0 -14 2 -19 5 -12 2 6 2 18 0 25 -3 6 -5 1 -5 -13z"/>
<path d="M2557 3371 c-4 -19 -5 -36 -2 -39 10 -11 16 7 13 40 l-3 33 -8 -34z"/>
<path d="M2690 3384 c0 -21 98 -182 113 -183 15 -2 6 17 -38 80 -25 35 -52 78
-60 94 -12 25 -14 26 -15 9z"/>
<path d="M283 3325 c0 -27 2 -38 4 -22 2 15 2 37 0 50 -2 12 -4 0 -4 -28z"/>
<path d="M492 3350 c0 -14 2 -19 5 -12 2 6 2 18 0 25 -3 6 -5 1 -5 -13z"/>
<path d="M2899 3350 c25 -22 41 -26 41 -10 0 11 -33 30 -52 30 -7 -1 -3 -9 11
-20z"/>
<path d="M2180 3350 c0 -5 11 -10 24 -10 20 0 23 -4 19 -22 l-5 -23 19 21 c10
12 27 26 38 32 16 9 10 11 -37 12 -32 0 -58 -4 -58 -10z"/>
<path d="M2825 3320 c3 -5 8 -10 11 -10 2 0 4 5 4 10 0 6 -5 10 -11 10 -5 0
-7 -4 -4 -10z"/>
<path d="M2841 3284 c0 -11 3 -14 6 -6 3 7 2 16 -1 19 -3 4 -6 -2 -5 -13z"/>
<path d="M362 3270 c0 -14 2 -19 5 -12 2 6 2 18 0 25 -3 6 -5 1 -5 -13z"/>
<path d="M2216 3281 c-3 -5 1 -11 9 -14 9 -4 12 -1 8 9 -6 16 -10 17 -17 5z"/>
<path d="M281 3254 c0 -11 3 -14 6 -6 3 7 2 16 -1 19 -3 4 -6 -2 -5 -13z"/>
<path d="M4653 3200 c0 -25 2 -35 4 -22 2 12 2 32 0 45 -2 12 -4 2 -4 -23z"/>
<path d="M491 3204 c0 -11 3 -14 6 -6 3 7 2 16 -1 19 -3 4 -6 -2 -5 -13z"/>
<path d="M2224 3200 c-21 -8 -54 -46 -54 -62 0 -19 31 -6 40 16 11 29 26 40
36 25 5 -8 9 -7 15 2 15 26 -1 34 -37 19z"/>
<path d="M2325 3159 c3 -31 11 -72 20 -90 19 -45 18 -30 -6 66 -18 77 -19 78
-14 24z"/>
<path d="M2897 3203 c-12 -11 -8 -23 8 -23 8 0 15 7 15 15 0 16 -12 20 -23 8z"/>
<path d="M2776 3173 c-6 -14 -5 -15 5 -6 7 7 10 15 7 18 -3 3 -9 -2 -12 -12z"/>
<path d="M2256 3133 c-6 -14 -5 -15 5 -6 7 7 10 15 7 18 -3 3 -9 -2 -12 -12z"/>
<path d="M2830 3115 c0 -15 38 -40 47 -31 7 7 -26 46 -39 46 -4 0 -8 -7 -8
-15z"/>
<path d="M362 3085 c0 -16 2 -22 5 -12 2 9 2 23 0 30 -3 6 -5 -1 -5 -18z"/>
<path d="M2511 3075 c-7 -187 -18 -252 -55 -337 -23 -52 -3 -56 27 -6 27 48
82 216 73 225 -3 3 -8 0 -10 -8 -3 -8 -14 -43 -26 -79 -11 -36 -18 -51 -15
-35 9 44 18 226 12 255 -3 18 -5 13 -6 -15z"/>
<path d="M2820 3071 c0 -11 5 -23 10 -26 6 -3 10 3 10 14 0 11 -4 23 -10 26
-5 3 -10 -3 -10 -14z"/>
<path d="M2571 3076 c-2 -24 55 -100 105 -141 86 -69 84 -54 -3 33 -43 42 -84
86 -90 97 -7 11 -12 16 -12 11z"/>
<path d="M282 3050 c0 -14 2 -19 5 -12 2 6 2 18 0 25 -3 6 -5 1 -5 -13z"/>
<path d="M4653 3015 c0 -27 2 -38 4 -22 2 15 2 37 0 50 -2 12 -4 0 -4 -28z"/>
<path d="M471 3024 c0 -11 3 -14 6 -6 3 7 2 16 -1 19 -3 4 -6 -2 -5 -13z"/>
<path d="M282 2980 c0 -19 2 -27 5 -17 2 9 2 25 0 35 -3 9 -5 1 -5 -18z"/>
<path d="M2600 2970 c0 -16 117 -130 134 -130 6 0 -7 17 -29 37 -22 21 -55 53
-72 72 -18 19 -33 28 -33 21z"/>
<path d="M4651 2944 c0 -11 3 -14 6 -6 3 7 2 16 -1 19 -3 4 -6 -2 -5 -13z"/>
<path d="M284 2810 c0 -74 1 -105 3 -67 2 37 2 97 0 135 -2 37 -3 6 -3 -68z"/>
<path d="M471 2914 c0 -11 3 -14 6 -6 3 7 2 16 -1 19 -3 4 -6 -2 -5 -13z"/>
<path d="M2625 2890 c4 -14 21 -59 37 -100 28 -70 35 -92 37 -113 1 -5 9 -6
20 -2 20 6 31 -16 31 -62 0 -13 5 -23 10 -23 6 0 10 15 10 33 0 23 -14 51 -48
98 -26 36 -54 86 -61 110 -7 24 -20 53 -28 64 -14 19 -15 19 -8 -5z"/>
<path d="M472 2865 c0 -16 2 -22 5 -12 2 9 2 23 0 30 -3 6 -5 -1 -5 -18z"/>
<path d="M2396 2845 c-9 -26 -7 -32 5 -12 6 10 9 21 6 23 -2 3 -7 -2 -11 -11z"/>
<path d="M2426 2812 c-23 -29 -33 -48 -25 -51 13 -4 45 31 60 68 15 38 6 33
-35 -17z"/>
<path d="M4923 2800 c0 -30 2 -43 4 -27 2 15 2 39 0 55 -2 15 -4 2 -4 -28z"/>
<path d="M2773 2815 c30 -28 47 -32 47 -11 0 18 -16 29 -49 32 l-25 3 27 -24z"/>
<path d="M2747 2789 c7 -7 15 -10 18 -7 3 3 -2 9 -12 12 -14 6 -15 5 -6 -5z"/>
<path d="M471 2764 c0 -11 3 -14 6 -6 3 7 2 16 -1 19 -3 4 -6 -2 -5 -13z"/>
<path d="M2641 2734 c0 -11 3 -14 6 -6 3 7 2 16 -1 19 -3 4 -6 -2 -5 -13z"/>
<path d="M4923 2670 c0 -41 2 -58 4 -37 2 20 2 54 0 75 -2 20 -4 3 -4 -38z"/>
<path d="M471 2694 c0 -11 3 -14 6 -6 3 7 2 16 -1 19 -3 4 -6 -2 -5 -13z"/>
<path d="M281 2654 c0 -11 3 -14 6 -6 3 7 2 16 -1 19 -3 4 -6 -2 -5 -13z"/>
<path d="M472 2630 c0 -19 2 -27 5 -17 2 9 2 25 0 35 -3 9 -5 1 -5 -18z"/>
<path d="M2596 2494 c3 -122 7 -152 30 -215 15 -41 33 -84 42 -97 13 -20 13
-24 -2 -35 -15 -11 -15 -13 3 -29 15 -13 21 -14 25 -3 7 19 -2 50 -39 135 -27
61 -35 97 -44 195 -18 193 -20 198 -15 49z"/>
<path d="M4652 2568 c-1 -25 -5 -55 -8 -65 -5 -17 -5 -17 6 0 6 9 9 39 7 65
l-3 47 -2 -47z"/>
<path d="M4924 2390 c0 -107 2 -151 3 -97 2 53 2 141 0 195 -1 53 -3 9 -3 -98z"/>
<path d="M281 2554 c0 -11 3 -14 6 -6 3 7 2 16 -1 19 -3 4 -6 -2 -5 -13z"/>
<path d="M2415 2550 c-3 -5 -1 -10 4 -10 6 0 11 5 11 10 0 6 -2 10 -4 10 -3 0
-8 -4 -11 -10z"/>
<path d="M473 2460 c0 -30 2 -43 4 -27 2 15 2 39 0 55 -2 15 -4 2 -4 -28z"/>
<path d="M2640 2415 c0 -8 4 -15 10 -15 5 0 7 7 4 15 -4 8 -8 15 -10 15 -2 0
-4 -7 -4 -15z"/>
<path d="M4646 2184 c3 -131 8 -241 11 -244 3 -3 3 102 1 233 -3 130 -8 240
-12 244 -4 4 -4 -101 0 -233z"/>
<path d="M294 2300 c0 -52 1 -74 3 -47 2 26 2 68 0 95 -2 26 -3 4 -3 -48z"/>
<path d="M472 2370 c0 -14 2 -19 5 -12 2 6 2 18 0 25 -3 6 -5 1 -5 -13z"/>
<path d="M2515 2330 c3 -5 8 -10 11 -10 2 0 4 5 4 10 0 6 -5 10 -11 10 -5 0
-7 -4 -4 -10z"/>
<path d="M2510 2300 c0 -5 5 -10 11 -10 5 0 7 5 4 10 -3 6 -8 10 -11 10 -2 0
-4 -4 -4 -10z"/>
<path d="M2590 2256 c0 -123 -24 -207 -73 -262 -11 -14 -15 -24 -8 -28 9 -6
22 9 49 59 9 16 11 7 12 -48 0 -56 -5 -78 -30 -127 -30 -58 -37 -90 -22 -90 4
0 18 30 32 68 l25 67 5 -95 c4 -63 14 -118 30 -165 l25 -70 3 39 c2 22 -1 49
-6 60 -21 43 -32 90 -32 135 -1 25 -5 65 -9 89 -9 44 2 60 13 19 7 -28 43 -77
57 -77 5 0 9 7 9 15 0 8 -4 15 -10 15 -5 0 -23 21 -40 48 -34 54 -38 104 -19
270 8 72 9 104 1 118 -9 15 -11 8 -12 -40z"/>
<path d="M472 2230 c0 -14 2 -19 5 -12 2 6 2 18 0 25 -3 6 -5 1 -5 -13z"/>
<path d="M2563 2210 c-5 -25 -7 -49 -4 -55 6 -12 23 64 18 85 -2 8 -8 -5 -14
-30z"/>
<path d="M374 2125 c0 -49 1 -71 3 -48 2 23 2 64 0 90 -2 26 -3 8 -3 -42z"/>
<path d="M281 2154 c0 -11 3 -14 6 -6 3 7 2 16 -1 19 -3 4 -6 -2 -5 -13z"/>
<path d="M471 2144 c0 -11 3 -14 6 -6 3 7 2 16 -1 19 -3 4 -6 -2 -5 -13z"/>
<path d="M2515 2111 c-15 -30 -13 -51 4 -51 9 0 23 71 16 78 -2 2 -11 -10 -20
-27z"/>
<path d="M2631 2068 c-1 -46 3 -78 9 -78 12 0 12 107 0 135 -6 14 -9 -5 -9
-57z"/>
<path d="M2552 2105 c0 -16 2 -22 5 -12 2 9 2 23 0 30 -3 6 -5 -1 -5 -18z"/>
<path d="M282 2100 c0 -14 2 -19 5 -12 2 6 2 18 0 25 -3 6 -5 1 -5 -13z"/>
<path d="M4923 2080 c0 -25 2 -35 4 -22 2 12 2 32 0 45 -2 12 -4 2 -4 -23z"/>
<path d="M2699 2083 c-13 -16 -12 -17 4 -4 16 13 21 21 13 21 -2 0 -10 -8 -17
-17z"/>
<path d="M473 2015 c0 -27 2 -38 4 -22 2 15 2 37 0 50 -2 12 -4 0 -4 -28z"/>
<path d="M293 2005 c0 -27 2 -38 4 -22 2 15 2 37 0 50 -2 12 -4 0 -4 -28z"/>
<path d="M2673 2015 c0 -22 2 -30 4 -17 2 12 2 30 0 40 -3 9 -5 -1 -4 -23z"/>
<path d="M362 2005 c0 -16 2 -22 5 -12 2 9 2 23 0 30 -3 6 -5 -1 -5 -18z"/>
<path d="M4922 2000 c0 -14 2 -19 5 -12 2 6 2 18 0 25 -3 6 -5 1 -5 -13z"/>
<path d="M352 1935 c0 -16 2 -22 5 -12 2 9 2 23 0 30 -3 6 -5 -1 -5 -18z"/>
<path d="M472 1885 c0 -16 2 -22 5 -12 2 9 2 23 0 30 -3 6 -5 -1 -5 -18z"/>
<path d="M4648 1905 c-7 -7 0 -427 7 -433 3 -3 5 94 5 216 0 122 -1 222 -3
222 -2 0 -6 -2 -9 -5z"/>
<path d="M352 1880 c0 -14 2 -19 5 -12 2 6 2 18 0 25 -3 6 -5 1 -5 -13z"/>
<path d="M358 1798 c5 -95 9 -104 11 -25 0 42 -2 77 -6 77 -5 0 -7 -24 -5 -52z"/>
<path d="M473 1790 c0 -36 2 -50 4 -32 2 17 2 47 0 65 -2 17 -4 3 -4 -33z"/>
<path d="M203 1755 c0 -22 2 -30 4 -17 2 12 2 30 0 40 -3 9 -5 -1 -4 -23z"/>
<path d="M4923 1745 c0 -22 2 -30 4 -17 2 12 2 30 0 40 -3 9 -5 -1 -4 -23z"/>
<path d="M2543 1677 c-24 -36 -38 -67 -30 -67 7 0 67 85 67 94 0 15 -17 3 -37
-27z"/>
<path d="M2497 1693 c-4 -3 -7 -11 -7 -17 0 -6 5 -5 12 2 6 6 9 14 7 17 -3 3
-9 2 -12 -2z"/>
<path d="M4924 1425 c0 -154 2 -216 3 -137 2 79 2 205 0 280 -1 75 -3 11 -3
-143z"/>
<path d="M2568 1626 c-5 -27 -8 -135 -8 -240 l0 -192 -30 -47 c-16 -26 -30
-51 -30 -56 0 -4 13 -25 30 -47 16 -21 30 -47 30 -56 0 -9 5 -20 10 -23 6 -4
10 5 10 20 0 15 14 46 30 71 l31 44 -28 37 -28 36 -5 251 c-3 166 -8 234 -12
202z m26 -487 l27 -41 -26 -38 -27 -39 -24 28 c-29 35 -30 48 -4 81 11 14 20
31 20 38 0 19 5 15 34 -29z"/>
<path d="M2552 1104 c-7 -14 -8 -23 -2 -19 5 3 10 -1 10 -9 0 -9 5 -16 10 -16
6 0 8 13 5 32 -8 42 -10 43 -23 12z"/>
<path d="M473 1550 c0 -41 2 -58 4 -37 2 20 2 54 0 75 -2 20 -4 3 -4 -38z"/>
<path d="M372 1510 c0 -14 2 -19 5 -12 2 6 2 18 0 25 -3 6 -5 1 -5 -13z"/>
<path d="M293 1465 c0 -33 2 -45 4 -27 2 18 2 45 0 60 -2 15 -4 0 -4 -33z"/>
<path d="M2526 1441 c-11 -12 -16 -24 -12 -28 9 -9 39 22 34 37 -2 7 -10 4
-22 -9z"/>
<path d="M4646 1447 c3 -10 9 -15 12 -12 3 3 0 11 -7 18 -10 9 -11 8 -5 -6z"/>
<path d="M2592 1420 c1 -16 5 -30 10 -30 4 0 8 4 8 10 0 5 7 7 15 4 21 -8 19
9 -3 29 -26 24 -31 21 -30 -13z"/>
<path d="M4651 1404 c0 -11 3 -14 6 -6 3 7 2 16 -1 19 -3 4 -6 -2 -5 -13z"/>
<path d="M291 1384 c0 -11 3 -14 6 -6 3 7 2 16 -1 19 -3 4 -6 -2 -5 -13z"/>
<path d="M472 1370 c0 -14 2 -19 5 -12 2 6 2 18 0 25 -3 6 -5 1 -5 -13z"/>
<path d="M291 1344 c0 -11 3 -14 6 -6 3 7 2 16 -1 19 -3 4 -6 -2 -5 -13z"/>
<path d="M4648 1143 c-2 -115 -1 -264 2 -333 4 -80 7 -6 8 208 1 182 0 332 -3
332 -2 0 -6 -93 -7 -207z"/>
<path d="M361 1294 c0 -11 3 -14 6 -6 3 7 2 16 -1 19 -3 4 -6 -2 -5 -13z"/>
<path d="M520 1154 c0 -9 5 -14 12 -12 18 6 21 28 4 28 -9 0 -16 -7 -16 -16z"/>
<path d="M570 1160 c0 -5 5 -10 11 -10 5 0 7 5 4 10 -3 6 -8 10 -11 10 -2 0
-4 -4 -4 -10z"/>
<path d="M4924 1040 c0 -58 1 -81 3 -52 2 28 2 76 0 105 -2 28 -3 5 -3 -53z"/>
<path d="M2456 1061 c-3 -5 1 -14 9 -21 10 -9 15 -9 15 -1 0 6 -5 11 -11 11
-5 0 -7 5 -4 10 3 6 4 10 1 10 -3 0 -7 -4 -10 -9z"/>
<path d="M472 960 c0 -14 2 -19 5 -12 2 6 2 18 0 25 -3 6 -5 1 -5 -13z"/>
<path d="M4923 865 c0 -38 2 -53 4 -32 2 20 2 52 0 70 -2 17 -4 1 -4 -38z"/>
<path d="M341 851 c1 -41 5 -61 15 -65 8 -3 14 -1 14 4 0 6 -4 10 -10 10 -6 0
-7 22 -4 55 4 37 3 55 -5 55 -6 0 -10 -23 -10 -59z"/>
<path d="M300 660 c0 -102 5 -192 10 -200 6 -10 10 47 10 170 0 102 -5 192
-10 200 -6 10 -10 -47 -10 -170z"/>
<path d="M4921 714 c0 -11 3 -14 6 -6 3 7 2 16 -1 19 -3 4 -6 -2 -5 -13z"/>
<path d="M470 686 c0 -8 4 -17 9 -20 5 -4 7 3 4 14 -6 23 -13 26 -13 6z"/>
<path d="M4653 635 c0 -22 2 -30 4 -17 2 12 2 30 0 40 -3 9 -5 -1 -4 -23z"/>
<path d="M471 554 c0 -11 3 -14 6 -6 3 7 2 16 -1 19 -3 4 -6 -2 -5 -13z"/>
<path d="M540 560 c-9 -6 -10 -10 -3 -10 6 0 15 5 18 10 8 12 4 12 -15 0z"/>
<path d="M2546 552 c-3 -5 1 -9 9 -9 8 0 12 4 9 9 -3 4 -7 8 -9 8 -2 0 -6 -4
-9 -8z"/>
<path d="M4656 545 c-3 -8 -1 -15 4 -15 6 0 10 7 10 15 0 8 -2 15 -4 15 -2 0
-6 -7 -10 -15z"/>
<path d="M653 490 c0 -30 2 -43 4 -27 2 15 2 39 0 55 -2 15 -4 2 -4 -28z"/>
<path d="M2540 476 c0 -40 -5 -43 -31 -20 -10 9 -23 13 -30 9 -8 -6 -5 -13 12
-27 l24 -18 -22 -19 c-13 -11 -23 -22 -23 -25 0 -12 28 -6 40 9 18 22 32 7 25
-26 -8 -36 11 -40 25 -5 12 33 30 42 30 17 0 -25 25 -28 34 -5 8 22 8 26 -4
19 -22 -13 -23 28 -2 46 32 25 27 32 -19 24 -40 -7 -41 -7 -37 21 2 15 -2 29
-9 31 -9 3 -13 -7 -13 -31z m40 -66 c-9 -17 -30 -28 -30 -16 0 2 -3 11 -6 20
-5 12 0 16 20 16 24 0 25 -2 16 -20z"/>
<path d="M356 467 c-16 -12 -16 -13 2 -13 10 0 19 6 19 13 0 7 -1 13 -2 13 -1
0 -9 -6 -19 -13z"/>
<path d="M4718 473 c7 -3 16 -2 19 1 4 3 -2 6 -13 5 -11 0 -14 -3 -6 -6z"/>
<path d="M414 446 c0 -13 4 -22 9 -19 10 6 9 31 -2 37 -5 3 -8 -5 -7 -18z"/>
<path d="M4452 420 c1 -17 5 -29 10 -28 5 2 9 7 9 11 -1 4 -1 16 -1 27 0 11
-4 20 -9 20 -5 0 -9 -14 -9 -30z"/>
<path d="M320 431 c0 -18 66 -61 131 -86 71 -28 69 -28 69 -17 0 5 -31 21 -69
36 -37 15 -79 38 -91 51 -24 26 -40 32 -40 16z"/>
<path d="M4640 400 c0 -5 5 -10 11 -10 5 0 7 5 4 10 -3 6 -8 10 -11 10 -2 0
-4 -4 -4 -10z"/>
<path d="M313 362 c9 -53 35 -96 70 -117 23 -14 31 -15 40 -5 9 10 9 11 -1 6
-22 -13 -80 56 -88 103 -4 23 -11 44 -17 48 -7 4 -8 -8 -4 -35z"/>
<path d="M4461 370 c1 -22 17 -67 18 -52 1 7 6 10 11 7 16 -10 11 8 -10 35
-12 16 -19 19 -19 10z"/>
<path d="M652 346 c1 -14 5 -23 9 -20 7 4 0 44 -7 44 -2 0 -3 -11 -2 -24z"/>
<path d="M4496 362 c-3 -5 1 -9 9 -9 8 0 12 4 9 9 -3 4 -7 8 -9 8 -2 0 -6 -4
-9 -8z"/>
<path d="M4751 350 c-1 -15 -6 -31 -13 -38 -6 -6 -10 -13 -7 -15 12 -10 34 31
28 53 l-7 25 -1 -25z"/>
<path d="M580 350 c0 -5 7 -10 15 -10 8 0 15 5 15 10 0 6 -7 10 -15 10 -8 0
-15 -4 -15 -10z"/>
<path d="M4433 333 c-7 -2 -13 -16 -13 -29 0 -13 -3 -23 -7 -21 -5 1 -9 -1
-10 -5 -2 -5 -1 -8 2 -8 3 0 10 0 15 0 6 0 10 6 10 14 0 8 6 17 13 19 9 4 8 6
-2 6 -11 1 -11 4 -1 16 13 16 13 16 -7 8z"/>
<path d="M4832 320 c0 -14 2 -19 5 -12 2 6 2 18 0 25 -3 6 -5 1 -5 -13z"/>
<path d="M455 300 c-3 -6 1 -7 9 -4 18 7 21 14 7 14 -6 0 -13 -4 -16 -10z"/>
<path d="M4671 296 c-9 -10 -7 -17 6 -27 16 -13 17 -12 4 4 -12 16 -9 22 12
18 5 -1 6 3 2 9 -8 13 -10 13 -24 -4z"/>
<path d="M560 290 c0 -5 5 -10 11 -10 5 0 7 5 4 10 -3 6 -8 10 -11 10 -2 0 -4
-4 -4 -10z"/>
<path d="M303 255 c0 -22 2 -30 4 -17 2 12 2 30 0 40 -3 9 -5 -1 -4 -23z"/>
<path d="M4557 270 c3 -11 7 -20 9 -20 2 0 4 9 4 20 0 11 -4 20 -9 20 -5 0 -7
-9 -4 -20z"/>
<path d="M430 276 c0 -2 7 -7 16 -10 8 -3 12 -2 9 4 -6 10 -25 14 -25 6z"/>
<path d="M4502 238 c-7 -7 -12 -16 -12 -22 0 -5 6 -2 13 9 9 11 19 15 27 10 9
-5 11 -4 6 3 -9 15 -19 15 -34 0z"/>
<path d="M2213 233 c65 -2 168 -2 230 0 62 1 9 3 -118 3 -126 0 -177 -2 -112
-3z"/>
<path d="M2682 233 c70 -2 187 -2 260 0 73 1 16 3 -127 3 -143 0 -203 -2 -133
-3z"/>
<path d="M4833 190 c0 -30 2 -43 4 -27 2 15 2 39 0 55 -2 15 -4 2 -4 -28z"/>
<path d="M630 201 c0 -7 9 -24 20 -38 11 -14 20 -33 20 -42 1 -14 2 -14 14 2
29 38 46 10 46 -75 0 -27 5 -48 10 -48 16 0 12 75 -6 120 -15 36 -21 42 -40
39 -3 -1 -19 12 -35 27 -16 15 -29 22 -29 15z"/>
<path d="M2020 200 c0 -7 185 -10 535 -10 350 0 535 3 535 10 0 7 -185 10
-535 10 -350 0 -535 -3 -535 -10z"/>
<path d="M590 189 c0 -5 5 -7 10 -4 6 3 10 8 10 11 0 2 -4 4 -10 4 -5 0 -10
-5 -10 -11z"/>
<path d="M4458 179 c-14 -19 -19 -21 -26 -10 -8 11 -13 8 -27 -13 -37 -56 -59
-156 -35 -156 11 0 51 83 49 103 0 7 -9 -6 -20 -28 -14 -30 -19 -35 -19 -18 0
30 31 93 46 93 6 0 15 -8 19 -17 5 -15 9 -12 21 16 18 44 13 61 -8 30z"/>
<path d="M182 140 c0 -19 2 -27 5 -17 2 9 2 25 0 35 -3 9 -5 1 -5 -18z"/>
<path d="M455 161 c-3 -5 -2 -12 3 -15 5 -3 9 1 9 9 0 17 -3 19 -12 6z"/>
<path d="M2053 163 c9 -2 23 -2 30 0 6 3 -1 5 -18 5 -16 0 -22 -2 -12 -5z"/>
<path d="M2127 163 c18 -2 50 -2 70 0 21 2 7 4 -32 4 -38 0 -55 -2 -38 -4z"/>
<path d="M2248 163 c6 -2 18 -2 25 0 6 3 1 5 -13 5 -14 0 -19 -2 -12 -5z"/>
<path d="M2298 163 c6 -2 18 -2 25 0 6 3 1 5 -13 5 -14 0 -19 -2 -12 -5z"/>
<path d="M2370 161 c0 -5 9 -7 20 -4 11 3 20 7 20 9 0 2 -9 4 -20 4 -11 0 -20
-4 -20 -9z"/>
<path d="M2468 163 c7 -3 16 -2 19 1 4 3 -2 6 -13 5 -11 0 -14 -3 -6 -6z"/>
<path d="M2628 163 c7 -3 16 -2 19 1 4 3 -2 6 -13 5 -11 0 -14 -3 -6 -6z"/>
<path d="M2687 153 c6 -16 11 -16 28 1 12 12 11 14 -9 12 -14 0 -22 -6 -19
-13z"/>
<path d="M4490 125 c1 -26 2 -28 11 -12 8 14 8 22 0 30 -8 8 -11 3 -11 -18z"/>
<path d="M4731 134 c0 -11 3 -14 6 -6 3 7 2 16 -1 19 -3 4 -6 -2 -5 -13z"/>
<path d="M585 120 c3 -5 8 -10 11 -10 2 0 4 5 4 10 0 6 -5 10 -11 10 -5 0 -7
-4 -4 -10z"/>
<path d="M2414 94 c-18 -14 -18 -15 4 -4 12 6 22 13 22 15 0 8 -5 6 -26 -11z"/>
<path d="M2566 102 c-3 -5 1 -12 9 -16 18 -6 45 2 45 15 0 13 -18 11 -23 -3
-4 -10 -8 -10 -15 1 -6 8 -12 9 -16 3z"/>
<path d="M2744 94 c-18 -14 -18 -15 4 -4 12 6 22 13 22 15 0 8 -5 6 -26 -11z"/>
<path d="M4457 93 c-4 -3 -7 -11 -7 -17 0 -6 5 -5 12 2 6 6 9 14 7 17 -3 3 -9
2 -12 -2z"/>
<path d="M4510 90 c0 -6 -4 -8 -10 -5 -5 3 -10 -1 -10 -9 0 -9 -5 -16 -12 -16
-6 0 -9 -3 -5 -6 3 -4 18 3 32 14 15 12 21 23 15 27 -5 3 -10 1 -10 -5z"/>
<path d="M684 79 c-3 -6 -1 -15 6 -19 6 -4 13 -19 13 -34 3 -35 17 -33 17 3 0
17 -6 31 -16 35 -8 3 -12 10 -9 16 3 5 4 10 1 10 -3 0 -8 -5 -12 -11z"/>
<path d="M4822 70 c0 -14 2 -19 5 -12 2 6 2 18 0 25 -3 6 -5 1 -5 -13z"/>
<path d="M2645 70 c-4 -6 -10 -8 -15 -5 -5 3 -12 -4 -15 -16 -8 -25 2 -39 11
-15 3 9 11 16 16 16 6 0 8 -6 5 -13 -3 -8 -2 -20 3 -27 5 -8 9 1 12 24 4 37
-5 56 -17 36z"/>
<path d="M2230 48 c0 -41 14 -50 39 -27 27 26 23 43 -12 47 -22 3 -27 -1 -27
-20z m40 -9 c0 -5 -4 -9 -10 -9 -5 0 -10 7 -10 16 0 8 5 12 10 9 6 -3 10 -10
10 -16z"/>
<path d="M2310 40 c0 -17 5 -30 10 -30 6 0 10 13 10 30 0 17 -4 30 -10 30 -5
0 -10 -13 -10 -30z"/>
<path d="M2355 59 c-4 -5 -4 -22 0 -37 4 -15 10 -21 12 -14 3 6 11 12 18 12
13 0 27 35 17 44 -9 10 -40 7 -47 -5z m35 -19 c0 -5 -4 -10 -10 -10 -5 0 -10
5 -10 10 0 6 5 10 10 10 6 0 10 -4 10 -10z"/>
<path d="M2449 65 c-10 -45 10 -66 22 -22 5 20 4 27 -7 27 -8 0 -14 -2 -15 -5z"/>
<path d="M2516 48 c-3 -12 -1 -28 3 -36 7 -12 9 -11 14 3 4 9 11 13 17 10 6
-3 10 4 10 17 0 31 -36 35 -44 6z"/>
<path d="M2707 63 c-9 -9 -9 -43 1 -43 4 0 12 11 19 25 9 19 8 25 -1 25 -7 0
-16 -3 -19 -7z"/>
<path d="M2779 48 c-1 -17 -2 -19 -6 -5 -5 21 -10 21 -28 3 -12 -12 -11 -15 8
-20 38 -10 47 -7 47 19 0 31 -20 33 -21 3z"/>
<path d="M2829 68 c0 -2 -2 -15 -4 -30 -3 -25 -2 -26 26 -18 16 5 31 5 34 0
10 -17 35 2 35 26 0 31 -39 34 -47 4 -6 -24 -29 -21 -25 4 2 9 -2 16 -8 16 -5
0 -10 -1 -11 -2z m74 -33 c-7 -21 -13 -19 -13 6 0 11 4 18 10 14 5 -3 7 -12 3
-20z"/>
<path d="M4620 56 c0 -6 91 -56 101 -56 25 0 4 23 -37 40 -45 20 -64 24 -64
16z"/>
<path d="M2198 25 c-3 -14 -1 -25 3 -25 5 0 9 11 9 25 0 32 -6 32 -12 0z"/>
<path d="M512 18 c6 -18 25 -21 31 -5 3 8 -3 13 -15 14 -10 1 -18 -3 -16 -9z"/>
<path d="M645 21 c-3 -5 -1 -12 5 -16 5 -3 10 1 10 9 0 18 -6 21 -15 7z"/>
<path d="M4580 14 l-25 -14 28 3 c15 2 28 7 28 11 1 14 -6 14 -31 0z"/>
<path d="M476 8 c3 -4 9 -8 15 -8 5 0 9 4 9 8 0 5 -7 9 -15 9 -8 0 -12 -4 -9
-9z"/>
<path d="M4635 10 c-3 -5 1 -10 10 -10 9 0 13 5 10 10 -3 6 -8 10 -10 10 -2 0
-7 -4 -10 -10z"/>
<path d="M4765 10 c3 -5 8 -10 11 -10 2 0 4 5 4 10 0 6 -5 10 -11 10 -5 0 -7
-4 -4 -10z"/>
</g>
</svg>
