<?xml version="1.0" standalone="no"?>
<!DOCTYPE svg PUBLIC "-//W3C//DTD SVG 20010904//EN"
 "http://www.w3.org/TR/2001/REC-SVG-20010904/DTD/svg10.dtd">
<svg version="1.0" xmlns="http://www.w3.org/2000/svg"
 width="512.000000pt" height="512.000000pt" viewBox="0 0 512.000000 512.000000"
 preserveAspectRatio="xMidYMid meet">
<metadata>
Created by potrace 1.16, written by Peter Selinger 2001-2019
</metadata>
<g transform="translate(0.000000,512.000000) scale(0.100000,-0.100000)"
fill="#000000" stroke="none">
<path d="M2163 4623 c75 -2 199 -2 275 0 75 1 13 3 -138 3 -151 0 -213 -2
-137 -3z"/>
<path d="M1958 4603 c7 -3 16 -2 19 1 4 3 -2 6 -13 5 -11 0 -14 -3 -6 -6z"/>
<path d="M1998 4593 c7 -3 16 -2 19 1 4 3 -2 6 -13 5 -11 0 -14 -3 -6 -6z"/>
<path d="M2088 4593 c7 -3 16 -2 19 1 4 3 -2 6 -13 5 -11 0 -14 -3 -6 -6z"/>
<path d="M2573 4588 c-2 -5 65 -7 149 -6 154 2 138 5 -45 10 -55 2 -101 0
-104 -4z"/>
<path d="M2913 4583 c-13 -2 -23 -9 -23 -14 0 -11 1 -11 37 1 20 8 39 8 59 0
27 -9 28 -9 10 5 -19 15 -39 17 -83 8z"/>
<path d="M2153 4553 c82 -2 212 -2 290 0 78 1 12 3 -148 3 -159 0 -223 -2
-142 -3z"/>
<path d="M2847 4513 c-2 -5 -1 -19 3 -33 6 -24 7 -24 11 8 5 29 -4 44 -14 25z"/>
<path d="M2926 4504 c-3 -9 -4 -20 0 -25 7 -12 51 -11 59 1 4 7 -2 9 -19 4
-19 -5 -26 -2 -26 9 0 8 6 18 13 20 7 4 6 6 -4 6 -9 1 -20 -6 -23 -15z"/>
<path d="M2950 4410 l-45 -7 47 -1 c26 -1 50 3 53 8 3 6 3 9 -2 8 -4 0 -28 -4
-53 -8z"/>
<path d="M2318 4403 c7 -3 16 -2 19 1 4 3 -2 6 -13 5 -11 0 -14 -3 -6 -6z"/>
<path d="M2368 4403 c12 -2 32 -2 45 0 12 2 2 4 -23 4 -25 0 -35 -2 -22 -4z"/>
<path d="M2228 4303 c7 -3 16 -2 19 1 4 3 -2 6 -13 5 -11 0 -14 -3 -6 -6z"/>
<path d="M2318 4303 c34 -2 88 -2 120 0 31 2 3 3 -63 3 -66 0 -92 -1 -57 -3z"/>
<path d="M2508 4303 c6 -2 18 -2 25 0 6 3 1 5 -13 5 -14 0 -19 -2 -12 -5z"/>
<path d="M1958 4293 c7 -3 16 -2 19 1 4 3 -2 6 -13 5 -11 0 -14 -3 -6 -6z"/>
<path d="M1881 4200 c14 -31 19 -36 19 -24 0 6 -7 19 -16 30 -14 18 -14 18 -3
-6z"/>
<path d="M1915 4140 c4 -14 14 -32 22 -40 12 -12 11 -7 -2 20 -22 45 -29 52
-20 20z"/>
<path d="M2375 3956 c-100 -15 -273 -60 -289 -76 -6 -6 -16 -4 -30 8 -17 15
-19 15 -13 0 4 -12 -9 -23 -59 -47 -74 -35 -80 -53 -39 -113 14 -20 25 -41 25
-45 0 -4 -30 -26 -66 -47 -36 -22 -78 -52 -94 -68 -32 -31 -24 -35 -99 47
l-45 48 -45 -49 c-52 -57 -133 -172 -180 -255 l-31 -56 24 4 c16 3 22 10 20
21 -5 18 112 203 164 262 18 19 32 38 32 43 0 4 7 7 15 7 8 0 15 -3 15 -7 0
-5 18 -26 40 -48 21 -22 39 -45 40 -51 0 -5 -14 -23 -31 -40 -26 -24 -123
-139 -172 -205 -71 -93 -148 -283 -184 -447 -21 -100 -21 -319 0 -423 24 -120
142 -348 247 -479 19 -24 62 -72 94 -107 l60 -63 -39 -40 c-22 -22 -45 -40
-53 -40 -20 0 -82 66 -151 161 -76 104 -82 111 -88 106 -11 -12 128 -196 201
-267 l36 -34 53 52 c29 29 55 52 58 52 3 0 24 -17 46 -37 22 -21 87 -67 145
-103 59 -36 104 -69 101 -74 -4 -5 -1 -6 5 -3 15 10 42 -3 42 -19 0 -23 -26
-27 -60 -9 -35 18 -49 15 -26 -5 26 -20 77 -18 90 5 6 11 11 21 12 22 0 1 38
-7 85 -18 46 -11 116 -26 154 -33 l70 -12 5 -149 c5 -129 6 -137 8 -55 2 52 4
125 5 161 l2 67 -60 6 c-95 10 -275 56 -336 87 -274 137 -497 382 -640 703
-128 288 -61 712 160 1009 108 145 199 236 303 304 54 35 98 67 98 71 0 4 -16
31 -36 60 -20 29 -35 54 -33 55 2 2 47 22 99 44 165 70 368 113 540 113 198 0
433 -56 607 -144 l41 -21 -28 -62 -28 -62 53 -30 c29 -17 56 -35 60 -41 8 -13
25 -13 25 0 0 5 -25 26 -55 46 -30 20 -55 38 -55 40 0 1 9 24 20 50 11 26 18
54 15 64 -11 35 -239 124 -398 155 -112 22 -339 28 -452 11z"/>
<path d="M3419 3684 c-57 -57 -105 -106 -107 -108 -1 -2 34 -38 78 -82 131
-128 236 -280 306 -446 72 -170 83 -571 20 -754 -59 -176 -124 -276 -295 -456
-173 -183 -443 -308 -743 -343 l-58 -6 1 -167 2 -167 9 135 c4 74 7 145 5 157
-4 20 1 23 42 28 89 11 288 63 374 98 96 39 247 123 247 138 0 21 27 5 100
-61 43 -39 84 -70 93 -70 18 0 48 43 51 76 2 14 19 42 38 62 19 20 44 50 56
66 l21 28 -38 37 c-21 20 -36 42 -34 49 3 8 -4 20 -16 28 -26 19 -27 38 -2 63
11 11 27 31 36 45 l17 26 60 -32 c58 -31 61 -31 72 -13 6 10 35 61 64 112 l52
93 0 291 c0 200 -3 290 -11 287 -7 -2 -10 -96 -10 -286 l1 -282 -46 -88 c-61
-114 -65 -118 -103 -102 -51 21 -55 33 -28 87 52 103 86 217 98 323 11 103 8
370 -5 401 -5 11 3 18 31 27 l38 11 -36 -5 -35 -4 -18 75 c-16 69 -73 196
-128 288 l-23 39 30 24 c17 13 32 24 35 24 3 0 12 -12 21 -28 9 -15 44 -72 78
-127 33 -55 61 -105 61 -112 0 -6 4 -13 9 -15 5 -1 11 -51 14 -110 5 -108 5
-108 -19 -108 -12 0 -26 -4 -29 -10 -4 -6 9 -10 32 -10 l38 0 -4 121 -3 120
-82 133 c-44 74 -88 144 -97 157 l-16 23 -43 -34 -43 -34 -16 24 c-9 14 -28
39 -43 56 l-28 31 70 68 c39 37 70 70 70 73 0 4 -34 47 -75 96 -41 49 -72 93
-69 98 11 17 34 6 69 -34 21 -24 30 -32 21 -18 -9 14 -25 42 -34 62 l-18 37
-105 -105z m81 -2 c0 -4 23 -31 50 -60 28 -29 50 -59 50 -65 0 -7 -26 -37 -57
-67 l-58 -55 -73 71 -72 72 61 65 c52 55 65 64 81 56 10 -5 18 -13 18 -17z
m58 -1764 c7 -7 12 -19 12 -28 0 -8 13 -32 30 -52 l30 -36 -71 -76 c-39 -42
-74 -76 -79 -76 -4 0 -31 21 -59 48 l-52 47 48 52 c26 29 64 70 83 92 39 45
41 46 58 29z m-121 -252 l43 -40 25 24 c28 26 47 20 23 -7 -8 -10 -18 -26 -21
-36 -5 -12 -11 -15 -21 -10 -26 15 -136 124 -136 135 0 12 22 -4 87 -66z"/>
<path d="M2483 3646 c0 -7 6 -13 14 -13 7 0 13 4 13 8 0 4 -6 9 -13 12 -8 3
-14 0 -14 -7z"/>
<path d="M2570 3634 c-12 -31 -12 -34 -1 -34 5 0 11 14 13 30 6 37 1 38 -12 4z"/>
<path d="M3600 3651 c0 -6 4 -11 9 -11 5 0 12 -8 15 -17 3 -11 4 -8 3 6 -2 24
-27 44 -27 22z"/>
<path d="M2560 3565 c0 -14 4 -25 10 -25 5 0 9 11 8 25 -1 14 -6 25 -10 25 -4
0 -8 -11 -8 -25z"/>
<path d="M2744 3553 c11 -11 96 -15 96 -5 0 6 -23 10 -51 10 -28 1 -49 -2 -45
-5z"/>
<path d="M2388 3543 c7 -3 16 -2 19 1 4 3 -2 6 -13 5 -11 0 -14 -3 -6 -6z"/>
<path d="M2433 3543 c9 -2 25 -2 35 0 9 3 1 5 -18 5 -19 0 -27 -2 -17 -5z"/>
<path d="M2890 3430 c0 -77 4 -119 10 -115 12 8 12 223 -1 230 -5 4 -9 -42 -9
-115z"/>
<path d="M2245 3530 c3 -5 8 -10 11 -10 2 0 4 5 4 10 0 6 -5 10 -11 10 -5 0
-7 -4 -4 -10z"/>
<path d="M2945 3520 c-4 -6 -1 -10 5 -10 9 0 11 -28 8 -95 -1 -52 0 -95 5 -95
4 0 7 31 7 69 0 38 3 82 6 98 4 22 2 32 -10 36 -8 3 -18 2 -21 -3z"/>
<path d="M1820 3503 c0 -15 19 -37 26 -31 3 4 -1 14 -10 23 -9 9 -16 13 -16 8z"/>
<path d="M2055 3490 c-3 -5 -1 -10 4 -10 6 0 11 5 11 10 0 6 -2 10 -4 10 -3 0
-8 -4 -11 -10z"/>
<path d="M2320 3479 c0 -5 5 -7 10 -4 6 3 10 8 10 11 0 2 -4 4 -10 4 -5 0 -10
-5 -10 -11z"/>
<path d="M1985 3461 c-3 -5 -1 -12 4 -15 5 -3 11 1 15 9 6 16 -9 21 -19 6z"/>
<path d="M2320 3383 l0 -63 75 0 75 0 0 59 0 59 -75 4 -75 3 0 -62z m128 -5
l-3 -43 -50 0 -50 0 -3 43 -3 42 56 0 56 0 -3 -42z"/>
<path d="M1855 3400 c-10 -11 -27 -20 -39 -20 -15 0 -17 -3 -9 -11 9 -9 19 -6
42 10 17 13 31 27 31 32 0 13 -5 11 -25 -11z"/>
<path d="M1983 3209 l2 -111 65 6 c36 3 100 6 143 6 l77 0 0 105 0 105 -145 0
-145 0 3 -111z m251 95 c13 -5 16 -23 16 -90 l0 -83 -32 -5 c-18 -3 -73 -5
-123 -3 l-90 2 -3 79 c-2 44 -1 85 2 93 4 10 32 13 110 13 57 0 111 -3 120 -6z"/>
<path d="M3480 3249 c-30 -22 -62 -45 -70 -49 -13 -8 -12 -15 9 -52 13 -24 44
-83 69 -131 33 -63 48 -85 56 -77 8 8 7 14 -5 20 -9 5 -30 41 -48 79 -18 39
-37 73 -42 76 -5 4 -16 19 -24 34 -12 24 -12 31 -1 46 7 10 22 19 33 20 20 1
72 39 87 63 13 22 -8 12 -64 -29z"/>
<path d="M1380 3248 c-53 -86 -110 -217 -120 -278 -17 -102 -25 -512 -12 -608
7 -46 25 -114 41 -154 47 -110 141 -258 141 -220 0 6 -11 24 -25 40 -14 17
-25 33 -25 36 0 4 -10 23 -23 44 -32 51 -76 164 -88 226 -10 54 -13 409 -3
536 3 41 12 102 20 135 13 56 57 157 77 180 4 6 16 24 26 41 16 26 24 30 52
28 32 -4 32 -3 7 5 -14 5 -31 12 -37 15 -6 4 -20 -8 -31 -26z"/>
<path d="M2890 3205 l0 -55 40 0 40 0 0 55 0 55 -40 0 -40 0 0 -55z m58 2 c3
-32 0 -37 -17 -37 -17 0 -21 6 -21 33 0 61 33 63 38 4z"/>
<path d="M1828 3173 c-19 -23 -31 -43 -24 -43 2 0 14 14 26 30 23 33 22 40 -2
13z"/>
<path d="M3492 3168 c-17 -17 -15 -27 11 -62 18 -23 71 -115 83 -144 3 -6 94
42 94 50 0 11 -7 10 -41 -8 -41 -21 -54 -14 -83 44 -13 26 -32 54 -40 61 -19
16 -21 42 -4 59 7 7 8 12 2 12 -6 0 -15 -5 -22 -12z"/>
<path d="M3301 3153 c-7 -8 -11 -16 -8 -19 2 -2 10 2 17 11 17 20 9 27 -9 8z"/>
<path d="M1618 3116 c4 -27 6 -28 13 -11 11 29 11 32 -4 38 -10 4 -12 -3 -9
-27z"/>
<path d="M2315 3121 c-3 -2 -5 -15 -5 -28 0 -20 -5 -23 -35 -23 -32 0 -35 -2
-35 -30 l0 -30 115 0 115 0 0 61 0 60 -75 -2 c-42 -2 -78 -5 -80 -8z m135 -51
l0 -40 -95 0 c-52 0 -95 4 -95 9 0 5 12 11 27 13 19 2 32 12 41 31 12 25 18
27 68 27 l54 0 0 -40z"/>
<path d="M1759 3078 c-19 -24 -38 -46 -43 -50 -6 -4 -7 -10 -2 -15 4 -4 12 1
18 12 7 11 26 35 44 53 18 17 28 34 24 37 -5 3 -23 -14 -41 -37z"/>
<path d="M2794 3092 c-17 -15 -44 -37 -60 -49 -29 -22 -29 -22 -4 -18 14 2 46
4 73 4 l47 1 0 45 c0 53 -11 56 -56 17z m36 -27 c0 -21 -5 -25 -28 -25 -41 0
-46 11 -15 32 37 24 43 23 43 -7z"/>
<path d="M2900 3076 c0 -41 2 -44 30 -48 30 -5 30 -4 30 44 0 47 -1 48 -30 48
-29 0 -30 -2 -30 -44z m42 -6 c-3 -29 -7 -34 -21 -25 -6 3 -11 17 -11 31 0 19
5 25 18 22 11 -3 16 -12 14 -28z"/>
<path d="M1820 3096 c0 -2 7 -7 16 -10 8 -3 12 -2 9 4 -6 10 -25 14 -25 6z"/>
<path d="M3340 3039 c12 -23 24 -39 26 -36 5 5 -35 77 -42 77 -3 0 5 -18 16
-41z"/>
<path d="M1882 3048 c7 -15 15 -23 17 -17 2 6 -4 18 -13 27 -15 15 -15 15 -4
-10z"/>
<path d="M2490 3028 c0 -10 18 -12 83 -10 119 4 135 9 35 11 -47 0 -93 4 -102
7 -10 4 -16 1 -16 -8z"/>
<path d="M1942 2960 c0 -19 2 -27 5 -17 2 9 2 25 0 35 -3 9 -5 1 -5 -18z"/>
<path d="M3346 2968 c-25 -9 -27 -14 -22 -40 3 -17 6 -41 6 -55 0 -20 3 -23
22 -17 55 17 91 36 80 43 -6 4 -18 23 -27 44 -17 40 -17 40 -59 25z m42 -20
c7 -7 12 -23 12 -36 0 -22 -8 -28 -46 -36 -4 0 -11 12 -15 28 -12 45 20 73 49
44z"/>
<path d="M3685 2943 c8 -31 13 -39 20 -31 9 9 -6 58 -17 58 -6 0 -7 -11 -3
-27z"/>
<path d="M2592 2933 c-5 -10 -6 -29 -1 -43 6 -23 7 -22 8 9 1 31 3 33 29 26
26 -6 26 -6 7 9 -26 20 -32 20 -43 -1z"/>
<path d="M2825 2936 c-118 -29 -214 -108 -270 -218 -33 -66 -34 -74 -30 -146
3 -55 2 -70 -5 -52 -7 19 -8 15 -4 -20 13 -97 115 -235 211 -284 131 -66 240
-70 345 -14 73 39 161 131 196 205 23 50 27 71 27 153 0 83 -3 102 -28 151
-54 111 -180 206 -301 228 -71 13 -76 13 -141 -3z m229 -46 c71 -34 160 -121
193 -188 23 -47 27 -69 28 -137 0 -73 -3 -88 -37 -156 -73 -147 -185 -230
-308 -228 l-65 2 66 7 c60 7 178 54 166 66 -2 3 -20 -4 -38 -15 -19 -11 -50
-22 -69 -26 -57 -9 -161 -12 -166 -4 -3 5 -11 6 -19 3 -8 -3 -40 9 -72 27 -32
19 -62 34 -68 34 -5 1 -9 6 -7 13 1 7 -5 12 -15 12 -9 0 -13 3 -10 7 4 3 -2
13 -13 20 -11 8 -32 38 -47 66 -16 33 -20 47 -10 39 14 -12 15 -11 4 12 -6 13
-14 21 -17 16 -3 -4 -5 34 -5 86 -1 52 3 88 7 81 5 -7 6 -1 3 13 -7 29 41 129
78 165 90 85 169 116 287 111 64 -2 97 -8 134 -26z"/>
<path d="M2841 2886 c2 -2 38 -6 79 -9 44 -3 67 -2 55 3 -19 8 -143 14 -134 6z"/>
<path d="M2848 2781 c-102 -21 -177 -107 -186 -216 -6 -70 11 -117 59 -166
128 -131 327 -102 394 56 48 115 -3 258 -110 305 -50 23 -109 30 -157 21z
m140 -36 c136 -57 168 -235 63 -348 -53 -57 -128 -76 -208 -52 -59 18 -126 76
-148 129 -41 98 6 215 110 269 39 21 135 21 183 2z"/>
<path d="M2878 2733 c7 -3 16 -2 19 1 4 3 -2 6 -13 5 -11 0 -14 -3 -6 -6z"/>
<path d="M2777 2689 c-20 -17 -37 -36 -37 -42 0 -7 5 -4 11 5 5 10 27 29 47
43 20 14 32 25 27 25 -6 0 -27 -14 -48 -31z"/>
<path d="M3069 2623 c22 -45 27 -97 12 -135 -14 -38 -89 -106 -134 -122 -35
-12 -38 -15 -16 -15 31 -1 97 44 133 92 45 59 47 146 5 197 -20 25 -20 25 0
-17z"/>
<path d="M2725 2619 c-4 -6 -5 -12 -2 -15 2 -3 7 2 10 11 7 17 1 20 -8 4z"/>
<path d="M2878 2599 c-26 -15 -24 -75 3 -89 32 -18 70 -4 67 23 -2 12 -7 28
-11 35 -5 7 -3 12 5 12 8 1 6 6 -6 15 -23 17 -34 18 -58 4z"/>
<path d="M2711 2542 c-1 -24 24 -92 34 -92 3 0 1 9 -5 19 -5 11 -14 37 -19 58
-6 24 -9 30 -10 15z"/>
<path d="M2878 2353 c7 -3 16 -2 19 1 4 3 -2 6 -13 5 -11 0 -14 -3 -6 -6z"/>
<path d="M3578 2933 c7 -3 16 -2 19 1 4 3 -2 6 -13 5 -11 0 -14 -3 -6 -6z"/>
<path d="M1931 2874 c0 -11 3 -14 6 -6 3 7 2 16 -1 19 -3 4 -6 -2 -5 -13z"/>
<path d="M1885 2870 c-3 -5 1 -10 10 -10 9 0 13 5 10 10 -3 6 -8 10 -10 10 -2
0 -7 -4 -10 -10z"/>
<path d="M2518 2853 c-26 -4 -28 -8 -28 -49 0 -28 4 -43 10 -39 6 3 10 22 10
41 0 34 7 39 57 37 7 -1 10 3 7 8 -5 9 -8 9 -56 2z"/>
<path d="M1930 2840 c0 -5 0 -13 1 -16 1 -12 -26 -24 -58 -24 -35 0 -53 16
-26 23 14 4 13 5 -4 6 -22 1 -54 -42 -52 -71 0 -7 4 -3 9 10 8 20 16 22 75 22
l65 0 0 30 c0 17 -2 30 -5 30 -3 0 -5 -4 -5 -10z"/>
<path d="M1960 2813 c0 -9 49 -12 200 -10 147 1 200 5 200 14 0 9 -51 11 -200
10 -149 -2 -200 -5 -200 -14z"/>
<path d="M3423 2793 c-29 -9 -53 -21 -53 -29 0 -10 6 -9 30 2 16 9 42 17 57
18 15 2 29 8 31 15 5 14 0 13 -65 -6z"/>
<path d="M2490 2709 c0 -47 9 -47 16 -1 3 17 0 33 -6 37 -6 4 -10 -9 -10 -36z"/>
<path d="M3465 2739 c-11 -4 -34 -8 -52 -8 -17 -1 -35 -6 -39 -12 -9 -14 96
-3 110 11 14 14 4 19 -19 9z"/>
<path d="M1870 2710 c0 -28 2 -30 40 -30 38 0 40 2 40 30 0 28 -2 30 -40 30
-38 0 -40 -2 -40 -30z m50 6 c0 -2 -7 -6 -15 -10 -8 -3 -15 -1 -15 4 0 6 7 10
15 10 8 0 15 -2 15 -4z"/>
<path d="M1457 2723 c-2 -4 0 -19 6 -33 l10 -25 5 24 c4 24 -12 50 -21 34z"/>
<path d="M878 2693 c34 -2 88 -2 120 0 31 2 3 3 -63 3 -66 0 -92 -1 -57 -3z"/>
<path d="M1138 2683 c18 -2 45 -2 60 0 15 2 0 4 -33 4 -33 0 -45 -2 -27 -4z"/>
<path d="M1666 2668 c-2 -10 0 -18 5 -18 5 0 9 5 9 10 0 6 16 10 35 8 19 -1
37 1 40 4 4 3 -14 8 -39 9 -36 3 -46 1 -50 -13z"/>
<path d="M1575 2650 c28 -4 57 -3 65 1 9 5 -11 8 -50 7 l-65 -1 50 -7z"/>
<path d="M3438 2653 l-38 -4 0 -52 c0 -29 -3 -74 -6 -102 l-6 -50 46 -2 46 -1
0 109 c0 60 -1 108 -2 107 -2 -1 -20 -3 -40 -5z m22 -108 c0 -85 0 -85 -26
-85 -25 0 -26 1 -20 58 3 31 5 69 5 85 1 20 6 27 21 27 18 0 20 -7 20 -85z"/>
<path d="M350 2632 c23 -17 128 -24 210 -14 74 9 74 9 -57 11 -72 0 -140 4
-150 7 -15 5 -15 4 -3 -4z"/>
<path d="M810 2575 c35 -36 67 -65 69 -65 3 0 -24 29 -59 65 -35 36 -67 65
-69 65 -3 0 24 -29 59 -65z"/>
<path d="M1667 2633 c-4 -3 -7 -34 -7 -67 l0 -62 40 4 c29 3 40 9 40 21 0 12
-2 13 -9 3 -4 -8 -19 -12 -32 -10 -22 3 -24 7 -22 61 2 58 1 62 -10 50z"/>
<path d="M1731 2624 c0 -11 3 -14 6 -6 3 7 2 16 -1 19 -3 4 -6 -2 -5 -13z"/>
<path d="M1003 2623 c43 -2 110 -2 150 0 40 1 5 3 -78 3 -82 0 -115 -2 -72 -3z"/>
<path d="M1870 2580 c0 -39 1 -40 35 -40 34 0 35 1 35 40 0 39 -1 40 -35 40
-34 0 -35 -1 -35 -40z m50 5 c0 -8 -7 -15 -15 -15 -8 0 -15 7 -15 15 0 8 7 15
15 15 8 0 15 -7 15 -15z"/>
<path d="M2498 2577 c4 -14 7 -16 13 -5 12 19 11 25 -5 25 -8 0 -11 -8 -8 -20z"/>
<path d="M1455 2561 c-3 -6 -14 -8 -24 -6 -11 2 -21 -2 -24 -8 -3 -8 8 -13 34
-13 32 -1 39 2 39 17 0 20 -15 26 -25 10z"/>
<path d="M1778 2535 c-3 -14 -1 -25 3 -25 5 0 9 11 9 25 0 14 -2 25 -4 25 -2
0 -6 -11 -8 -25z"/>
<path d="M838 2483 c7 -3 16 -2 19 1 4 3 -2 6 -13 5 -11 0 -14 -3 -6 -6z"/>
<path d="M988 2483 c46 -2 118 -2 160 0 42 1 5 3 -83 3 -88 0 -123 -2 -77 -3z"/>
<path d="M578 2473 c18 -2 45 -2 60 0 15 2 0 4 -33 4 -33 0 -45 -2 -27 -4z"/>
<path d="M1870 2450 c0 -28 2 -30 40 -30 38 0 40 2 40 30 0 28 -2 30 -40 30
-38 0 -40 -2 -40 -30z m45 0 c3 -5 -1 -10 -9 -10 -9 0 -16 5 -16 10 0 6 4 10
9 10 6 0 13 -4 16 -10z"/>
<path d="M1760 2450 c6 -11 13 -20 16 -20 2 0 0 9 -6 20 -6 11 -13 20 -16 20
-2 0 0 -9 6 -20z"/>
<path d="M2491 2341 c0 -46 1 -82 3 -80 8 8 12 105 5 134 -4 20 -7 2 -8 -54z"/>
<path d="M1791 2390 c14 -31 19 -36 19 -24 0 6 -7 19 -16 30 -14 18 -14 18 -3
-6z"/>
<path d="M1883 2363 c-29 -2 -53 -8 -53 -12 0 -4 23 -6 50 -3 46 4 50 3 50
-17 0 -11 5 -21 10 -21 6 0 10 14 10 30 0 17 -3 29 -7 28 -5 -1 -32 -3 -60 -5z"/>
<path d="M1972 2343 c2 -12 14 -19 37 -21 18 -2 31 0 28 5 -3 4 66 7 154 5
102 -2 159 1 159 7 0 6 -67 11 -175 13 -159 3 -198 -1 -162 -15 7 -3 5 -6 -5
-6 -10 -1 -18 6 -18 14 0 8 -5 15 -11 15 -6 0 -9 -8 -7 -17z"/>
<path d="M1815 2320 c-3 -6 1 -7 9 -4 18 7 21 14 7 14 -6 0 -13 -4 -16 -10z"/>
<path d="M1850 2318 c0 -4 14 -8 30 -8 17 0 30 2 30 4 0 2 -13 6 -30 8 -16 3
-30 1 -30 -4z"/>
<path d="M3445 2280 c-3 -5 -1 -10 4 -10 6 0 11 5 11 10 0 6 -2 10 -4 10 -3 0
-8 -4 -11 -10z"/>
<path d="M1716 2251 c-3 -5 5 -33 18 -62 21 -48 24 -51 31 -30 4 12 4 25 1 28
-3 4 -6 0 -6 -8 -1 -8 -9 2 -20 21 -13 25 -15 39 -8 48 7 8 7 12 0 12 -6 0
-13 -4 -16 -9z"/>
<path d="M2587 2253 c-5 -8 9 -53 16 -53 2 0 2 14 -1 30 -4 31 -8 36 -15 23z"/>
<path d="M2492 2220 c0 -19 2 -27 5 -17 2 9 2 25 0 35 -3 9 -5 1 -5 -18z"/>
<path d="M3300 2220 c0 -5 13 -11 29 -15 16 -3 37 -15 47 -26 16 -18 16 -20 0
-38 -10 -11 -16 -25 -14 -32 2 -7 14 7 27 30 12 24 21 44 19 45 -19 13 -108
43 -108 36z"/>
<path d="M2318 2203 l-66 -4 -4 -52 c-2 -29 -4 -53 -3 -54 0 -1 49 1 108 4
l108 6 -3 51 c-3 51 -3 51 -38 52 -19 0 -65 -1 -102 -3z m117 -52 l0 -34 -82
-4 -83 -5 0 42 0 41 83 -3 82 -3 0 -34z"/>
<path d="M2680 2144 c0 -19 17 -31 64 -47 71 -24 86 -23 85 11 0 26 -1 26 -9
5 -5 -13 -13 -23 -18 -23 -24 0 -98 32 -109 47 -7 9 -13 13 -13 7z"/>
<path d="M3327 2139 c7 -7 15 -10 18 -7 3 3 -2 9 -12 12 -14 6 -15 5 -6 -5z"/>
<path d="M1796 2127 c3 -10 9 -15 12 -12 3 3 0 11 -7 18 -10 9 -11 8 -5 -6z"/>
<path d="M1902 2136 c8 -10 -45 -92 -64 -99 -7 -2 -10 -8 -5 -13 4 -4 21 8 37
27 16 19 36 42 44 51 13 15 13 18 -2 30 -9 7 -14 9 -10 4z"/>
<path d="M2890 1894 l0 -184 28 6 c46 11 52 22 50 88 l-1 61 -6 -59 c-4 -40
-11 -62 -23 -70 -9 -5 -19 -8 -22 -6 -2 3 -6 78 -8 168 l-3 162 39 0 c49 0 44
6 -11 13 l-43 5 0 -184z"/>
<path d="M3339 2063 c-13 -16 -12 -17 4 -4 16 13 21 21 13 21 -2 0 -10 -8 -17
-17z"/>
<path d="M2047 2052 l-57 -3 0 -138 0 -138 75 -32 c103 -43 172 -58 188 -42 8
8 13 63 15 174 l4 162 -44 13 c-24 7 -62 12 -84 10 -22 -2 -66 -4 -97 -6z
m171 -23 c36 -12 40 -32 37 -169 -3 -156 -2 -150 -28 -150 -24 0 -138 37 -189
60 l-28 13 0 122 c0 67 3 125 7 128 10 11 167 8 201 -4z"/>
<path d="M2962 1970 c-2 -36 2 -60 8 -60 6 0 10 26 10 60 0 33 -4 60 -8 60 -4
0 -9 -27 -10 -60z"/>
<path d="M3070 2020 c0 -5 7 -7 15 -4 8 4 15 8 15 10 0 2 -7 4 -15 4 -8 0 -15
-4 -15 -10z"/>
<path d="M3126 1943 c-6 -14 -5 -15 5 -6 7 7 10 15 7 18 -3 3 -9 -2 -12 -12z"/>
<path d="M2327 1883 c-2 -21 -2 -40 2 -43 3 -3 36 -4 74 -2 l67 4 0 39 0 39
-69 0 -69 0 -5 -37z m123 -9 c0 -24 -2 -25 -52 -22 -46 3 -53 6 -56 25 -3 20
2 22 45 25 60 4 63 2 63 -28z"/>
<path d="M1867 1851 c-4 -17 -3 -21 5 -13 5 5 8 16 6 23 -3 8 -7 3 -11 -10z"/>
<path d="M3056 1845 c-3 -8 -1 -15 4 -15 13 0 22 18 11 24 -5 3 -11 -1 -15 -9z"/>
<path d="M2329 1755 c-3 -6 -5 -19 -5 -30 1 -18 9 -20 74 -23 l72 -3 0 30 c0
24 -4 29 -16 24 -12 -5 -13 -7 -2 -14 24 -15 -7 -30 -58 -27 -42 3 -49 6 -54
28 -3 14 -8 20 -11 15z"/>
<path d="M2785 1710 l-30 -8 27 -1 c15 0 30 4 33 9 3 6 5 9 3 9 -2 -1 -16 -5
-33 -9z"/>
<path d="M2518 1483 c17 -2 47 -2 65 0 17 2 3 4 -33 4 -36 0 -50 -2 -32 -4z"/>
<path d="M1379 1420 c-140 -5 -169 -14 -169 -50 0 -9 -9 -27 -20 -40 -28 -32
-25 -38 4 -11 14 13 26 35 28 50 3 25 6 26 78 32 41 4 236 7 433 8 l357 1 1
-87 2 -88 8 65 c9 77 4 116 -19 125 -17 6 -476 3 -703 -5z"/>
<path d="M1183 1264 c5 -6 34 -9 105 -13 12 0 22 -7 22 -16 0 -8 4 -15 9 -15
4 0 6 11 3 25 -4 24 -8 25 -75 25 -39 0 -68 -3 -64 -6z"/>
<path d="M1344 1222 c5 -8 691 -5 726 2 8 2 -153 4 -358 5 -205 0 -371 -3
-368 -7z"/>
<path d="M1008 1191 c-26 -4 -50 -10 -54 -14 -4 -4 6 -5 22 -2 16 2 101 7 188
9 87 3 161 8 164 11 7 7 -263 4 -320 -4z"/>
<path d="M1010 1144 c35 -7 210 -9 210 -2 0 4 -51 7 -112 7 -62 -1 -106 -3
-98 -5z"/>
<path d="M950 1108 c0 -5 51 -7 113 -6 115 1 101 5 -36 10 -42 2 -77 0 -77 -4z"/>
<path d="M2622 964 c-1 -83 -5 -259 -9 -392 l-6 -241 -71 -4 -71 -3 71 -2 c47
-1 75 2 81 10 8 10 23 383 23 586 l0 34 60 -4 c33 -1 60 0 60 5 0 4 -29 7 -65
7 l-64 0 -4 78 c-1 42 -4 9 -5 -74z"/>
<path d="M921 1074 c0 -11 3 -14 6 -6 3 7 2 16 -1 19 -3 4 -6 -2 -5 -13z"/>
<path d="M965 1041 c11 -5 47 -10 79 -13 51 -4 57 -3 41 9 -11 8 -43 13 -79
12 -41 0 -54 -3 -41 -8z"/>
<path d="M1078 983 c7 -3 16 -2 19 1 4 3 -2 6 -13 5 -11 0 -14 -3 -6 -6z"/>
<path d="M1135 962 c9 -9 87 -11 672 -11 l633 -1 -1 -301 c-1 -165 2 -303 5
-306 3 -4 7 90 7 208 1 118 2 258 3 311 l1 97 -662 3 c-364 2 -660 2 -658 0z"/>
<path d="M2842 838 l2 -123 3 118 4 117 49 0 50 0 1 -182 c2 -215 7 -201 11
30 l3 162 -62 0 -63 0 2 -122z"/>
<path d="M3102 940 c0 -14 2 -19 5 -12 2 6 2 18 0 25 -3 6 -5 1 -5 -13z"/>
<path d="M3101 744 c0 -11 3 -14 6 -6 3 7 2 16 -1 19 -3 4 -6 -2 -5 -13z"/>
<path d="M3103 615 c0 -22 2 -30 4 -17 2 12 2 30 0 40 -3 9 -5 -1 -4 -23z"/>
<path d="M2951 564 c0 -11 3 -14 6 -6 3 7 2 16 -1 19 -3 4 -6 -2 -5 -13z"/>
<path d="M3028 533 c6 -2 18 -2 25 0 6 3 1 5 -13 5 -14 0 -19 -2 -12 -5z"/>
</g>
</svg>
