<?xml version="1.0" standalone="no"?>
<!DOCTYPE svg PUBLIC "-//W3C//DTD SVG 20010904//EN"
 "http://www.w3.org/TR/2001/REC-SVG-20010904/DTD/svg10.dtd">
<svg version="1.0" xmlns="http://www.w3.org/2000/svg"
 width="512.000000pt" height="768.000000pt" viewBox="0 0 512.000000 768.000000"
 preserveAspectRatio="xMidYMid meet">
<metadata>
Created by potrace 1.16, written by Peter Selinger 2001-2019
</metadata>
<g transform="translate(0.000000,768.000000) scale(0.100000,-0.100000)"
fill="#000000" stroke="none">
<path d="M4291 7420 c0 -143 4 -262 9 -265 4 -3 8 114 9 260 1 174 -2 265 -8
265 -7 0 -10 -90 -10 -260z"/>
<path d="M4874 7639 c-33 -22 -117 -80 -189 -129 -71 -48 -168 -120 -214 -159
-46 -40 -91 -76 -99 -80 -14 -8 -16 -131 -18 -1117 -1 -610 -3 -1224 -3 -1364
-2 -387 -2 -420 7 -420 4 0 9 91 11 202 1 111 4 205 7 209 2 4 5 556 6 1228 1
671 5 1226 10 1233 9 14 8 25 10 -1392 1 -547 5 -1004 9 -1015 4 -11 8 533 8
1208 0 675 3 1232 6 1237 3 4 13 6 23 3 13 -3 22 4 30 22 7 14 17 23 22 20 6
-3 10 -1 10 4 0 6 7 11 15 11 14 0 15 -44 11 -387 -5 -390 -5 -451 -1 -598 3
-117 4 -1212 1 -1405 -1 -91 -6 -174 -11 -184 -7 -16 -5 -18 10 -13 15 6 16 5
5 -8 -14 -17 -5 -34 10 -19 7 7 9 463 8 1332 l-3 1321 24 18 c13 10 28 17 33
15 5 -1 7 2 4 7 -4 5 3 12 14 16 11 3 26 12 32 18 22 20 73 52 81 49 4 -1 7 2
7 7 0 5 11 12 25 15 14 4 23 11 20 16 -3 6 -1 11 4 11 6 1 16 3 21 4 6 1 17 3
26 4 10 1 14 7 10 17 -3 8 -2 12 4 9 6 -3 10 1 10 9 0 9 6 13 14 10 8 -3 17 0
22 7 5 8 3 10 -6 4 -9 -5 -11 -4 -6 3 4 7 13 12 20 12 8 0 21 11 30 25 25 38
-1 32 -70 -16z"/>
<path d="M5035 7653 c-8 -12 -32 -27 -52 -33 -47 -12 -76 -30 -53 -30 13 0 13
-2 0 -9 -8 -6 -18 -7 -24 -4 -5 4 -6 1 -1 -7 6 -10 4 -12 -11 -6 -10 4 -15 4
-12 0 7 -7 -142 -109 -154 -106 -5 1 -8 -3 -8 -10 0 -6 -3 -8 -6 -5 -4 4 -14
-2 -24 -13 -9 -10 -23 -20 -31 -22 -39 -8 -39 -3 -44 -1010 -3 -535 -2 -983 1
-995 19 -71 24 45 24 603 l0 614 21 0 c18 0 233 121 412 233 43 26 60 47 39
47 -4 0 -54 -27 -110 -60 -55 -33 -104 -60 -107 -60 -4 0 -13 -7 -22 -16 -9
-8 -22 -13 -30 -10 -8 3 -11 2 -8 -3 3 -5 -4 -12 -15 -16 -11 -3 -20 -11 -20
-17 0 -5 -7 -7 -16 -4 -8 3 -13 2 -10 -3 3 -5 -10 -16 -29 -25 -19 -9 -41 -23
-50 -32 -18 -18 -55 -10 -55 12 0 8 20 24 45 35 24 11 47 24 51 30 3 6 13 8
21 5 8 -3 12 -2 9 3 -7 11 69 53 79 43 5 -4 5 -2 2 4 -8 14 20 27 35 17 7 -3
8 -1 4 5 -4 7 4 17 21 24 15 7 31 17 34 22 4 5 12 5 18 2 6 -4 11 0 11 8 0 9
7 16 15 16 22 0 28 3 53 25 13 11 28 20 33 20 5 0 14 6 18 14 5 7 13 11 18 8
5 -3 10 3 10 14 1 10 0 19 -2 19 -7 0 -351 -203 -407 -240 l-58 -38 0 331 0
332 83 55 c45 30 145 94 222 143 174 111 183 118 132 115 -26 -2 -42 -10 -52
-25z"/>
<path d="M4990 7650 c-13 -8 -12 -10 3 -10 9 0 17 5 17 10 0 12 -1 12 -20 0z"/>
<path d="M3558 7473 c6 -2 18 -2 25 0 6 3 1 5 -13 5 -14 0 -19 -2 -12 -5z"/>
<path d="M4535 7471 c-6 -6 -22 -16 -37 -24 -15 -8 -24 -18 -19 -25 4 -7 18 1
40 24 19 19 32 34 29 34 -2 0 -8 -4 -13 -9z"/>
<path d="M3728 7463 c6 -2 18 -2 25 0 6 3 1 5 -13 5 -14 0 -19 -2 -12 -5z"/>
<path d="M3168 6806 c-1 -339 -2 -626 -2 -638 -1 -13 6 -24 14 -26 13 -2 15
74 15 634 0 501 -3 638 -12 641 -10 4 -13 -124 -15 -611z"/>
<path d="M4440 7405 c-7 -8 -9 -15 -6 -15 4 0 14 7 22 15 9 8 11 15 6 15 -5 0
-15 -7 -22 -15z"/>
<path d="M3628 7383 c6 -2 18 -2 25 0 6 3 1 5 -13 5 -14 0 -19 -2 -12 -5z"/>
<path d="M3798 7333 c6 -2 18 -2 25 0 6 3 1 5 -13 5 -14 0 -19 -2 -12 -5z"/>
<path d="M4343 7333 c-18 -7 -16 -23 3 -23 8 0 13 4 10 9 -4 5 0 12 6 14 7 3
9 5 3 5 -5 0 -16 -2 -22 -5z"/>
<path d="M4444 6553 c2 -395 4 -958 5 -1250 1 -352 4 -533 11 -533 7 0 10 412
9 1250 -1 1043 -3 1250 -14 1250 -12 0 -13 -120 -11 -717z"/>
<path d="M3119 6823 c-1 -203 -2 -406 -2 -453 0 -157 3 -230 11 -230 4 0 8
236 8 525 1 291 -2 525 -7 525 -5 0 -10 -165 -10 -367z"/>
<path d="M3230 6676 c0 -300 -4 -525 -9 -540 -6 -13 -30 -40 -55 -58 -46 -33
-59 -58 -31 -58 14 0 19 12 16 33 -1 7 15 11 32 8 5 -1 6 3 2 9 -3 5 1 10 9
10 42 0 44 21 51 578 5 378 3 532 -4 532 -8 0 -11 -153 -11 -514z"/>
<path d="M4241 7141 c-8 -5 -9 -11 -3 -15 5 -3 12 1 16 9 6 17 6 18 -13 6z"/>
<path d="M1252 6954 c-116 -123 -180 -210 -191 -262 -14 -69 -3 -93 63 -128
32 -17 62 -37 66 -45 5 -7 12 -10 16 -6 12 12 -23 42 -76 67 -74 35 -80 92
-19 184 41 61 227 256 245 256 30 0 15 -55 -27 -95 -51 -50 -128 -167 -141
-213 -18 -64 -2 -119 50 -175 59 -63 93 -77 184 -77 90 0 130 21 158 83 39 84
21 170 -50 239 -57 55 -97 66 -176 49 -53 -12 -114 -52 -114 -74 0 -6 12 1 28
15 85 82 241 58 291 -45 40 -82 18 -206 -42 -239 -32 -18 -166 -14 -204 5 -44
23 -102 94 -109 134 -15 80 29 174 131 279 56 58 64 63 117 69 32 4 64 5 72 2
8 -3 16 -28 20 -61 9 -71 27 -74 19 -3 -7 72 -30 91 -100 83 -28 -3 -58 -9
-66 -12 -11 -4 -16 2 -19 23 -6 54 -35 42 -126 -53z"/>
<path d="M2208 6993 c6 -2 18 -2 25 0 6 3 1 5 -13 5 -14 0 -19 -2 -12 -5z"/>
<path d="M5015 6970 c-3 -5 -1 -10 4 -10 6 0 11 5 11 10 0 6 -2 10 -4 10 -3 0
-8 -4 -11 -10z"/>
<path d="M4980 6949 c0 -5 5 -7 10 -4 6 3 10 8 10 11 0 2 -4 4 -10 4 -5 0 -10
-5 -10 -11z"/>
<path d="M2663 6943 c9 -2 23 -2 30 0 6 3 -1 5 -18 5 -16 0 -22 -2 -12 -5z"/>
<path d="M1383 6914 c-7 -3 -2 -14 13 -30 27 -26 40 -32 27 -11 -4 6 -8 18 -8
26 0 16 -14 22 -32 15z"/>
<path d="M4593 6800 c0 -30 2 -43 4 -27 2 15 2 39 0 55 -2 15 -4 2 -4 -28z"/>
<path d="M4910 6819 c0 -5 5 -7 10 -4 6 3 10 8 10 11 0 2 -4 4 -10 4 -5 0 -10
-5 -10 -11z"/>
<path d="M1590 6810 c0 -6 8 -25 17 -43 9 -18 16 -35 15 -39 -1 -5 7 -8 17 -8
18 0 18 3 -6 45 -25 46 -43 65 -43 45z"/>
<path d="M1445 6787 c11 -6 35 -27 53 -45 34 -32 34 -33 30 -103 -3 -63 -7
-74 -31 -95 -23 -20 -39 -24 -91 -24 -68 0 -83 7 -121 59 -28 40 -32 79 -10
121 22 42 53 60 107 60 66 0 106 -36 117 -105 8 -48 9 -49 10 -12 2 88 -68
149 -153 133 -76 -14 -129 -93 -107 -158 17 -51 73 -106 116 -114 85 -16 145
10 171 73 38 88 1 184 -81 212 -25 9 -27 8 -10 -2z"/>
<path d="M1343 6730 c-38 -23 -53 -48 -53 -90 0 -43 14 -65 49 -80 75 -31 144
19 139 99 -3 42 -6 46 -48 67 -55 28 -48 28 -87 4z m88 -17 c58 -34 36 -138
-31 -144 -55 -5 -68 1 -85 37 -14 30 -15 41 -4 65 23 57 68 72 120 42z"/>
<path d="M1349 6669 c-10 -10 -19 -25 -18 -31 0 -10 2 -10 6 0 2 6 9 10 14 6
5 -3 9 0 9 6 0 6 12 8 30 5 37 -6 39 6 4 22 -21 10 -28 9 -45 -8z"/>
<path d="M1402 6624 c-8 -8 -22 -12 -32 -9 -10 3 -21 2 -24 -3 -3 -6 7 -12 22
-15 26 -5 62 15 62 35 0 12 -13 9 -28 -8z"/>
<path d="M1225 6726 c-3 -9 -7 -23 -10 -31 -2 -8 -2 -15 1 -15 7 0 25 52 20
58 -3 3 -8 -3 -11 -12z"/>
<path d="M1126 6708 c3 -5 10 -6 15 -3 13 9 11 12 -6 12 -8 0 -12 -4 -9 -9z"/>
<path d="M4000 6464 c-91 -53 -244 -142 -340 -197 -96 -55 -218 -126 -270
-157 -52 -31 -234 -137 -404 -234 -169 -97 -325 -188 -346 -201 -36 -23 -58
-45 -45 -45 6 0 90 45 150 81 17 10 41 24 55 32 105 59 333 190 418 241 57 33
115 68 130 77 15 9 134 77 266 153 131 75 251 145 266 156 16 11 30 20 33 20
3 0 44 22 90 49 47 27 89 46 93 43 4 -4 4 -2 1 4 -6 11 26 28 46 25 4 -1 7 4
7 9 0 6 9 10 20 10 11 0 20 7 20 15 0 8 -6 15 -12 15 -7 0 -87 -43 -178 -96z"/>
<path d="M514 6537 c3 -10 6 -39 6 -63 0 -37 3 -44 20 -44 18 0 20 7 20 60 0
56 -10 75 -26 49 -4 -8 -9 -7 -16 2 -7 11 -8 9 -4 -4z m23 -79 c-2 -13 -4 -3
-4 22 0 25 2 35 4 23 2 -13 2 -33 0 -45z"/>
<path d="M458 6484 c-3 -60 -1 -65 22 -55 23 9 21 111 -2 111 -13 0 -17 -12
-20 -56z"/>
<path d="M4285 6530 c-8 -13 -1 -24 14 -19 6 3 7 10 2 18 -6 10 -10 10 -16 1z"/>
<path d="M4189 6511 c-7 -18 -136 -106 -279 -189 -80 -47 -172 -101 -205 -120
-33 -19 -103 -59 -155 -87 -52 -29 -151 -85 -220 -125 -69 -40 -150 -86 -180
-103 -30 -16 -66 -38 -80 -47 -14 -10 -45 -28 -70 -40 -25 -12 -47 -25 -50
-29 -3 -3 -18 -13 -35 -21 -16 -8 -70 -38 -118 -67 -49 -29 -90 -53 -92 -53
-2 0 -24 -13 -48 -30 -25 -16 -50 -30 -56 -30 -6 0 -11 -4 -11 -10 0 -5 5 -10
10 -10 6 0 21 -12 34 -26 l22 -26 43 22 c24 12 73 41 110 64 36 23 111 66 166
95 55 30 105 57 110 61 6 4 35 21 65 37 30 17 78 43 105 58 28 15 79 43 115
63 83 45 428 239 545 307 50 29 142 80 206 114 64 33 122 68 129 76 9 11 9 23
-2 56 -14 41 -52 80 -59 60z m21 -65 c0 -13 6 -27 13 -29 6 -3 0 -6 -15 -6
-27 -1 -41 -20 -15 -22 6 0 1 -4 -11 -10 -13 -5 -29 -6 -34 -2 -7 3 -8 1 -4
-5 7 -12 -42 -42 -69 -42 -8 0 -15 -4 -15 -10 0 -5 -7 -10 -15 -10 -8 0 -15
-4 -15 -10 0 -5 -9 -10 -20 -10 -11 0 -20 -3 -20 -7 0 -9 -48 -33 -66 -33 -6
0 -14 -6 -17 -14 -3 -8 -23 -20 -44 -26 -21 -7 -49 -24 -63 -37 -14 -14 -32
-22 -42 -20 -9 3 -16 1 -15 -4 1 -5 -20 -22 -48 -37 -27 -15 -52 -30 -55 -33
-3 -3 -34 -21 -70 -40 -36 -19 -67 -36 -70 -39 -3 -3 -30 -18 -60 -34 -84 -44
-170 -90 -220 -118 -25 -14 -51 -23 -59 -20 -8 3 -11 0 -7 -7 4 -6 2 -9 -7 -5
-8 3 -17 -2 -21 -11 -3 -9 -10 -13 -16 -10 -5 3 -10 -1 -10 -9 0 -9 -9 -16
-20 -16 -11 0 -20 -4 -20 -8 0 -14 -51 -33 -71 -27 -11 4 -19 2 -19 -4 0 -6 6
-11 13 -11 6 0 -4 -8 -23 -17 -19 -10 -36 -21 -38 -25 -2 -4 -8 -8 -14 -8 -6
0 -48 -22 -94 -50 -46 -27 -93 -50 -104 -50 -12 0 -19 -4 -16 -9 7 -12 -13
-19 -36 -13 -15 4 -15 5 0 23 9 10 27 19 39 19 13 0 23 3 23 8 0 14 70 54 85
48 9 -3 15 0 15 9 0 8 5 15 11 15 6 0 17 7 26 16 9 8 22 13 30 10 8 -3 11 -2
8 4 -3 5 7 17 22 27 15 10 31 21 34 26 4 5 17 6 30 2 21 -7 22 -6 10 9 -12 14
-10 16 13 16 14 0 26 5 26 10 0 6 7 10 15 10 8 0 15 5 15 10 0 6 9 10 20 10
11 0 20 3 20 8 0 10 167 104 190 107 3 0 17 9 32 18 14 10 36 19 47 20 12 1
21 7 21 14 0 18 35 34 56 26 13 -5 16 -3 11 10 -3 9 -2 17 4 17 6 0 24 9 40
21 16 11 37 18 45 15 8 -3 13 -2 9 3 -6 10 49 41 72 41 8 0 11 5 8 10 -3 6 3
10 14 10 12 0 21 4 21 8 0 5 12 15 28 23 15 8 47 26 71 41 24 15 47 25 51 23
5 -3 10 2 14 10 3 8 12 15 19 15 8 0 20 6 27 14 6 8 21 16 33 18 12 2 21 10
19 17 -2 8 3 11 12 8 8 -3 20 1 27 9 7 9 20 12 32 8 16 -5 19 -3 14 10 -4 9
-2 16 4 16 6 0 36 18 66 40 31 22 61 37 67 33 6 -3 8 -3 4 2 -11 12 11 35 33
35 13 0 19 -7 19 -24z"/>
<path d="M3523 6055 c0 -8 4 -12 9 -9 5 3 6 10 3 15 -9 13 -12 11 -12 -6z"/>
<path d="M1170 6491 c0 -10 58 -23 71 -15 5 3 7 10 4 15 -8 11 -75 12 -75 0z"/>
<path d="M3718 6433 c7 -3 16 -2 19 1 4 3 -2 6 -13 5 -11 0 -14 -3 -6 -6z"/>
<path d="M2512 5408 l3 -943 30 3 c17 2 31 5 32 5 7 7 6 1056 -1 1054 -15 -5
-18 -82 -18 -569 0 -279 -3 -468 -9 -468 -13 0 -14 162 -6 812 1 107 -2 168
-8 168 -5 0 -4 4 3 9 11 6 11 16 3 47 -14 49 -14 77 -1 69 6 -3 10 1 10 10 0
9 4 14 9 11 19 -12 24 68 25 397 l1 337 -37 0 -38 0 2 -942z m47 660 c-1 -145
-5 -285 -9 -313 -4 -29 -8 78 -8 256 -1 272 1 319 15 319 2 0 2 -118 2 -262z"/>
<path d="M3546 6323 c-6 -14 -5 -15 5 -6 7 7 10 15 7 18 -3 3 -9 -2 -12 -12z"/>
<path d="M3515 6310 c3 -5 8 -10 11 -10 2 0 4 5 4 10 0 6 -5 10 -11 10 -5 0
-7 -4 -4 -10z"/>
<path d="M4270 6253 c-14 -9 -28 -22 -32 -27 -4 -6 -11 -11 -15 -11 -4 -1 -18
-6 -30 -13 -13 -7 -23 -10 -23 -7 0 4 -7 -1 -16 -10 -9 -9 -23 -14 -31 -11 -8
3 -12 2 -9 -3 3 -5 -1 -12 -10 -15 -10 -4 -13 -2 -9 7 4 6 0 4 -8 -6 -8 -10
-24 -19 -35 -20 -11 0 -19 -4 -17 -8 3 -3 -20 -17 -50 -30 -30 -13 -55 -27
-55 -31 0 -5 -7 -8 -16 -8 -9 0 -28 -8 -42 -17 -51 -33 -67 -43 -92 -54 -68
-31 -110 -55 -110 -62 0 -5 -4 -6 -9 -2 -6 3 -14 -1 -18 -10 -5 -8 -19 -16
-31 -18 -13 -2 -31 -10 -40 -18 -9 -8 -32 -21 -50 -30 -18 -9 -33 -19 -33 -23
2 -18 0 -20 -9 -6 -7 11 -10 11 -10 2 0 -8 -5 -10 -12 -6 -7 4 -10 4 -6 -1 4
-4 -14 -18 -41 -30 -26 -13 -58 -31 -69 -41 -12 -10 -27 -19 -34 -20 -7 -1
-37 -16 -66 -33 -29 -17 -59 -31 -67 -31 -8 0 -15 -3 -15 -8 0 -4 -18 -15 -40
-25 -22 -9 -40 -21 -40 -27 0 -5 -3 -9 -7 -8 -12 2 -47 -14 -58 -28 -5 -6 -27
-17 -47 -24 -21 -6 -38 -14 -38 -17 0 -3 7 -3 15 1 8 3 15 1 15 -4 0 -9 38 7
50 21 3 3 39 23 80 45 41 21 77 41 80 44 3 4 50 31 105 59 164 86 259 139 272
150 7 6 19 11 27 11 8 0 16 4 18 9 2 5 59 37 128 71 69 34 132 68 140 75 8 7
80 46 160 87 203 105 290 156 290 171 0 11 -14 8 -40 -10z"/>
<path d="M2461 6244 c0 -11 3 -14 6 -6 3 7 2 16 -1 19 -3 4 -6 -2 -5 -13z"/>
<path d="M4054 6244 c-18 -14 -18 -14 6 -3 31 14 36 19 24 19 -6 0 -19 -7 -30
-16z"/>
<path d="M4005 6210 c-3 -6 1 -7 9 -4 18 7 21 14 7 14 -6 0 -13 -4 -16 -10z"/>
<path d="M3895 6160 c-3 -5 -1 -10 4 -10 6 0 11 5 11 10 0 6 -2 10 -4 10 -3 0
-8 -4 -11 -10z"/>
<path d="M3852 6134 c-10 -12 -10 -14 2 -14 17 0 30 16 19 23 -5 3 -14 -1 -21
-9z"/>
<path d="M3810 6110 c-8 -5 -12 -12 -9 -15 4 -3 12 1 19 10 14 17 11 19 -10 5z"/>
<path d="M4691 6074 c0 -11 3 -14 6 -6 3 7 2 16 -1 19 -3 4 -6 -2 -5 -13z"/>
<path d="M3096 6055 c-9 -26 -7 -32 5 -12 6 10 9 21 6 23 -2 3 -7 -2 -11 -11z"/>
<path d="M3685 6040 c-3 -5 -2 -10 4 -10 5 0 13 5 16 10 3 6 2 10 -4 10 -5 0
-13 -4 -16 -10z"/>
<path d="M4311 5984 c0 -11 3 -14 6 -6 3 7 2 16 -1 19 -3 4 -6 -2 -5 -13z"/>
<path d="M3560 5969 c0 -5 5 -7 10 -4 6 3 10 8 10 11 0 2 -4 4 -10 4 -5 0 -10
-5 -10 -11z"/>
<path d="M3480 5920 c-8 -5 -10 -10 -5 -10 6 0 17 5 25 10 8 5 11 10 5 10 -5
0 -17 -5 -25 -10z"/>
<path d="M4312 5885 c0 -16 2 -22 5 -12 2 9 2 23 0 30 -3 6 -5 -1 -5 -18z"/>
<path d="M620 5890 c0 -5 5 -10 11 -10 5 0 7 5 4 10 -3 6 -8 10 -11 10 -2 0
-4 -4 -4 -10z"/>
<path d="M4592 5800 c0 -14 2 -19 5 -12 2 6 2 18 0 25 -3 6 -5 1 -5 -13z"/>
<path d="M3249 5793 c-13 -16 -12 -17 4 -4 16 13 21 21 13 21 -2 0 -10 -8 -17
-17z"/>
<path d="M2622 5750 c0 -14 2 -19 5 -12 2 6 2 18 0 25 -3 6 -5 1 -5 -13z"/>
<path d="M3155 5740 c-16 -11 -25 -20 -20 -20 10 0 64 39 55 40 -3 0 -18 -9
-35 -20z"/>
<path d="M5040 5709 c-129 -60 -309 -139 -318 -139 -5 0 -17 -9 -27 -20 -10
-11 -13 -20 -7 -20 6 0 13 4 16 9 3 4 20 11 37 15 17 3 59 19 93 35 33 16 79
37 101 46 110 48 185 87 185 95 0 14 -8 12 -80 -21z"/>
<path d="M3090 5710 c-9 -6 -10 -10 -3 -10 6 0 15 5 18 10 8 12 4 12 -15 0z"/>
<path d="M5060 5607 c-30 -17 -127 -65 -215 -107 -204 -96 -202 -95 -188 -112
6 -7 9 -56 8 -116 -1 -99 -1 -102 19 -96 51 15 436 189 436 197 0 5 -12 6 -27
2 -16 -4 -34 -8 -41 -9 -8 -1 -17 -8 -21 -14 -4 -7 -17 -14 -29 -17 -12 -2
-32 -11 -44 -19 -12 -9 -30 -16 -40 -16 -10 0 -18 -4 -18 -10 0 -5 -5 -10 -10
-10 -6 0 -26 -7 -46 -15 -19 -8 -36 -14 -39 -15 -3 0 -28 -12 -57 -25 -29 -13
-53 -23 -54 -22 -8 9 -11 175 -3 188 5 10 23 21 41 24 18 4 43 14 55 22 13 9
23 12 23 8 0 -3 7 1 16 10 9 9 24 13 32 10 9 -3 13 -3 9 1 -9 10 62 46 75 38
6 -4 9 -3 5 2 -3 5 35 29 84 53 64 32 89 49 89 63 0 10 -1 17 -2 17 -2 -1 -28
-15 -58 -32z"/>
<path d="M579 5583 c-9 -2 -19 -18 -23 -35 -9 -45 -7 -70 4 -63 6 3 10 15 10
25 0 10 6 21 13 23 9 4 9 6 0 6 -9 1 -8 7 4 21 13 15 20 17 30 8 8 -6 11 -18
8 -25 -7 -19 5 -63 17 -63 5 0 9 12 8 28 -4 52 -1 58 16 34 15 -22 41 -32 28
-10 -5 7 -1 9 13 6 13 -3 20 0 20 9 0 11 -8 13 -28 9 -18 -3 -32 1 -43 13 -16
18 -41 22 -77 14z"/>
<path d="M517 5573 c-12 -11 -8 -113 4 -113 6 0 8 8 4 19 -3 10 -1 37 4 60 8
38 4 51 -12 34z"/>
<path d="M696 5505 c-17 -13 -18 -15 -2 -21 20 -8 29 -1 24 20 -3 13 -6 13
-22 1z"/>
<path d="M2883 5498 c-2 -5 9 -8 26 -8 16 0 32 4 35 8 2 4 -9 8 -26 7 -16 0
-32 -3 -35 -7z"/>
<path d="M4310 5495 c0 -8 2 -15 4 -15 2 0 6 7 10 15 3 8 1 15 -4 15 -6 0 -10
-7 -10 -15z"/>
<path d="M2706 5491 c-3 -4 23 -19 57 -33 34 -14 195 -80 357 -147 162 -67
351 -145 420 -173 210 -86 312 -129 370 -156 78 -35 392 -172 397 -172 1 0 3
6 3 13 0 7 -72 43 -161 81 -88 37 -197 85 -242 106 -45 21 -161 70 -257 108
-263 105 -618 251 -680 279 -131 60 -258 105 -264 94z"/>
<path d="M597 5464 c-4 -4 -7 -14 -7 -23 0 -11 3 -12 11 -4 6 6 10 16 7 23 -2
6 -7 8 -11 4z"/>
<path d="M4592 5450 c0 -14 2 -19 5 -12 2 6 2 18 0 25 -3 6 -5 1 -5 -13z"/>
<path d="M4010 5456 c0 -2 7 -7 16 -10 8 -3 12 -2 9 4 -6 10 -25 14 -25 6z"/>
<path d="M4310 5434 c0 -8 5 -12 10 -9 6 4 8 11 5 16 -9 14 -15 11 -15 -7z"/>
<path d="M4592 5390 c0 -14 2 -19 5 -12 2 6 2 18 0 25 -3 6 -5 1 -5 -13z"/>
<path d="M450 5376 c0 -2 8 -10 18 -17 15 -13 16 -12 3 4 -13 16 -21 21 -21
13z"/>
<path d="M4317 5341 c-4 -17 -3 -21 5 -13 5 5 8 16 6 23 -3 8 -7 3 -11 -10z"/>
<path d="M2622 5320 c0 -14 2 -19 5 -12 2 6 2 18 0 25 -3 6 -5 1 -5 -13z"/>
<path d="M4622 5255 c0 -16 2 -22 5 -12 2 9 2 23 0 30 -3 6 -5 -1 -5 -18z"/>
<path d="M4593 5235 c0 -22 2 -30 4 -17 2 12 2 30 0 40 -3 9 -5 -1 -4 -23z"/>
<path d="M380 5250 c0 -5 5 -10 11 -10 5 0 7 5 4 10 -3 6 -8 10 -11 10 -2 0
-4 -4 -4 -10z"/>
<path d="M2245 5230 c-3 -5 1 -10 10 -10 9 0 13 5 10 10 -3 6 -8 10 -10 10 -2
0 -7 -4 -10 -10z"/>
<path d="M4260 5222 c-19 -10 -55 -26 -80 -36 -120 -47 -300 -131 -300 -139 0
-5 8 -6 18 -2 9 4 26 9 37 12 11 3 34 11 52 19 17 8 36 14 42 14 6 0 11 4 11
8 0 4 17 14 38 21 40 14 57 21 175 75 42 20 77 38 77 41 0 10 -36 4 -70 -13z"/>
<path d="M4918 5203 c7 -3 16 -2 19 1 4 3 -2 6 -13 5 -11 0 -14 -3 -6 -6z"/>
<path d="M4321 5184 c0 -11 3 -14 6 -6 3 7 2 16 -1 19 -3 4 -6 -2 -5 -13z"/>
<path d="M4840 5170 c-8 -5 -10 -10 -5 -10 6 0 17 5 25 10 8 5 11 10 5 10 -5
0 -17 -5 -25 -10z"/>
<path d="M4620 5133 c-1 -75 0 -438 1 -438 0 0 2 -30 3 -67 1 -37 5 -71 9 -75
4 -4 7 134 7 305 -1 189 -5 312 -11 312 -5 0 -9 -17 -9 -37z"/>
<path d="M1445 5150 c-3 -5 -1 -10 4 -10 6 0 11 5 11 10 0 6 -2 10 -4 10 -3 0
-8 -4 -11 -10z"/>
<path d="M4321 5074 c0 -11 3 -14 6 -6 3 7 2 16 -1 19 -3 4 -6 -2 -5 -13z"/>
<path d="M3138 5033 c7 -3 16 -2 19 1 4 3 -2 6 -13 5 -11 0 -14 -3 -6 -6z"/>
<path d="M4880 5030 c0 -5 5 -10 11 -10 5 0 7 5 4 10 -3 6 -8 10 -11 10 -2 0
-4 -4 -4 -10z"/>
<path d="M453 5023 c-20 -4 -22 -10 -21 -54 1 -48 10 -69 22 -50 4 5 2 12 -3
16 -6 3 -7 15 -2 28 4 12 6 28 4 35 -3 6 2 12 10 12 17 0 30 -60 16 -74 -14
-15 -11 -26 6 -26 12 0 15 13 15 60 0 62 0 62 -47 53z"/>
<path d="M518 4973 c-5 -67 -4 -68 19 -59 11 5 13 10 7 14 -14 9 -17 82 -4 82
6 0 10 5 10 10 0 6 -6 10 -14 10 -10 0 -15 -17 -18 -57z"/>
<path d="M590 4970 c0 -5 7 -10 15 -10 8 0 15 5 15 10 0 6 -7 10 -15 10 -8 0
-15 -4 -15 -10z"/>
<path d="M4311 4914 c0 -11 3 -14 6 -6 3 7 2 16 -1 19 -3 4 -6 -2 -5 -13z"/>
<path d="M618 4875 c-3 -14 -1 -25 3 -25 5 0 9 11 9 25 0 14 -2 25 -4 25 -2 0
-6 -11 -8 -25z"/>
<path d="M3510 4870 c0 -5 4 -10 9 -10 6 0 13 5 16 10 3 6 -1 10 -9 10 -9 0
-16 -4 -16 -10z"/>
<path d="M4590 4831 c0 -6 4 -13 10 -16 6 -3 7 1 4 9 -7 18 -14 21 -14 7z"/>
<path d="M4400 4795 c0 -8 5 -15 10 -15 6 0 10 7 10 15 0 8 -4 15 -10 15 -5 0
-10 -7 -10 -15z"/>
<path d="M1218 4793 c7 -3 16 -2 19 1 4 3 -2 6 -13 5 -11 0 -14 -3 -6 -6z"/>
<path d="M4590 4783 c0 -13 5 -23 10 -23 13 0 13 11 0 30 -8 12 -10 11 -10 -7z"/>
<path d="M4290 4750 c0 -22 4 -40 8 -40 4 0 8 18 8 40 0 22 -3 40 -8 40 -4 0
-8 -18 -8 -40z"/>
<path d="M4471 4760 c-9 -5 -8 -9 5 -14 9 -4 21 -3 26 2 12 12 -15 23 -31 12z"/>
<path d="M5040 4690 c-9 -6 -10 -10 -3 -10 6 0 15 5 18 10 8 12 4 12 -15 0z"/>
<path d="M4995 4670 c-3 -6 1 -7 9 -4 18 7 21 14 7 14 -6 0 -13 -4 -16 -10z"/>
<path d="M4940 4650 c-8 -5 -10 -10 -5 -10 6 0 17 5 25 10 8 5 11 10 5 10 -5
0 -17 -5 -25 -10z"/>
<path d="M3208 4633 c7 -3 16 -2 19 1 4 3 -2 6 -13 5 -11 0 -14 -3 -6 -6z"/>
<path d="M4880 4630 c-8 -5 -12 -12 -9 -15 4 -3 12 1 19 10 14 17 11 19 -10 5z"/>
<path d="M4595 4600 c3 -5 8 -10 11 -10 2 0 4 5 4 10 0 6 -5 10 -11 10 -5 0
-7 -4 -4 -10z"/>
<path d="M4625 4530 c-3 -5 -1 -10 4 -10 6 0 11 5 11 10 0 6 -2 10 -4 10 -3 0
-8 -4 -11 -10z"/>
<path d="M2848 4443 c7 -3 16 -2 19 1 4 3 -2 6 -13 5 -11 0 -14 -3 -6 -6z"/>
<path d="M738 4423 c7 -3 16 -2 19 1 4 3 -2 6 -13 5 -11 0 -14 -3 -6 -6z"/>
<path d="M3746 4387 c3 -10 9 -15 12 -12 3 3 0 11 -7 18 -10 9 -11 8 -5 -6z"/>
<path d="M4350 4341 c0 -25 6 -27 13 -6 4 8 2 17 -3 20 -6 4 -10 -3 -10 -14z"/>
<path d="M2848 4283 c7 -3 16 -2 19 1 4 3 -2 6 -13 5 -11 0 -14 -3 -6 -6z"/>
<path d="M2578 4233 c7 -3 16 -2 19 1 4 3 -2 6 -13 5 -11 0 -14 -3 -6 -6z"/>
<path d="M4350 4230 c0 -5 5 -10 11 -10 5 0 7 5 4 10 -3 6 -8 10 -11 10 -2 0
-4 -4 -4 -10z"/>
<path d="M4735 4130 c-3 -6 1 -7 9 -4 18 7 21 14 7 14 -6 0 -13 -4 -16 -10z"/>
<path d="M2605 4109 c-1199 -3 -2185 -7 -2192 -9 -14 -4 -13 38 -16 -1903 l-1
-1337 -121 -1 c-66 0 -138 -2 -160 -3 -22 -2 -57 -4 -77 -5 -21 0 -38 -5 -38
-10 0 -5 92 -8 215 -8 l215 2 0 1614 c0 888 3 1618 8 1623 4 4 982 7 2173 6
l2164 -3 0 -1771 c-1 -1464 -3 -1775 -14 -1788 -12 -15 -198 -16 -2160 -16
-1657 0 -2150 3 -2159 12 -8 8 -12 58 -12 160 l0 148 -122 -1 c-68 -1 -166 -4
-218 -8 -136 -10 -70 -21 140 -24 l165 -2 0 -137 c0 -75 4 -134 8 -131 5 3 7
-3 5 -12 -2 -11 4 -19 17 -21 23 -4 3005 -9 3823 -6 l532 2 10 25 c14 37 15
3588 1 3593 -6 2 -9 8 -5 13 3 5 4 8 2 7 -2 -2 -984 -6 -2183 -9z"/>
<path d="M473 4028 c-4 -7 -9 -730 -10 -1605 -2 -1257 0 -1593 10 -1593 9 0
11 332 9 1572 -1 865 0 1583 3 1596 l5 22 2105 0 2105 0 0 -1746 c0 -1161 3
-1743 10 -1739 11 7 15 3461 4 3489 -6 15 -202 16 -2119 16 -1680 0 -2115 -3
-2122 -12z"/>
<path d="M280 4014 c0 0 9 -11 19 -23 l19 -22 -2 25 c-1 17 -7 24 -18 23 -10
-1 -18 -2 -18 -3z"/>
<path d="M2308 3983 c12 -2 32 -2 45 0 12 2 2 4 -23 4 -25 0 -35 -2 -22 -4z"/>
<path d="M2388 3983 c7 -3 16 -2 19 1 4 3 -2 6 -13 5 -11 0 -14 -3 -6 -6z"/>
<path d="M291 3954 c0 -11 3 -14 6 -6 3 7 2 16 -1 19 -3 4 -6 -2 -5 -13z"/>
<path d="M5040 3920 c-8 -26 -7 -41 2 -32 6 6 8 16 5 24 -3 7 -6 11 -7 8z"/>
<path d="M710 2445 l0 -1465 1890 0 1890 0 0 1465 0 1465 -1890 0 -1890 0 0
-1465z m3760 3 l0 -1448 -1870 0 -1870 0 0 1449 0 1449 1870 -1 1870 -2 0
-1447z"/>
<path d="M3428 3863 c7 -3 16 -2 19 1 4 3 -2 6 -13 5 -11 0 -14 -3 -6 -6z"/>
<path d="M3738 3863 c7 -3 16 -2 19 1 4 3 -2 6 -13 5 -11 0 -14 -3 -6 -6z"/>
<path d="M3724 3528 c-3 -5 -2 -13 2 -20 4 -6 3 -8 -3 -5 -11 7 -52 -86 -51
-114 1 -15 -38 -77 -57 -91 -5 -4 -13 -4 -17 -2 -4 3 -8 0 -8 -6 0 -6 -5 -8
-12 -4 -7 4 -8 3 -4 -4 4 -6 14 -8 23 -5 11 5 14 3 8 -6 -16 -27 45 22 71 56
24 31 25 37 13 59 -9 18 -10 27 -1 36 8 8 9 5 5 -11 -3 -12 -1 -21 6 -21 6 0
11 -8 11 -18 0 -25 -37 -99 -52 -105 -10 -4 -10 -6 0 -6 10 -1 10 -5 0 -21 -8
-13 -24 -20 -44 -20 -29 0 -32 4 -44 48 -22 84 -23 89 -11 72 9 -13 11 -12 12
5 0 15 5 11 15 -14 11 -23 18 -31 25 -24 7 7 0 34 -23 84 -19 41 -41 89 -49
107 l-14 32 -142 0 -143 0 0 -170 0 -170 130 0 130 0 0 40 0 40 -90 0 c-83 0
-90 1 -90 20 0 18 7 20 80 20 l80 0 0 45 0 45 -72 -2 -73 -1 65 -7 65 -7 -77
-1 c-77 -2 -78 -2 -78 23 0 20 -5 25 -25 25 -14 0 -25 5 -25 11 0 8 15 10 46
5 26 -3 82 -6 125 -6 73 0 79 -2 79 -20 0 -11 12 -67 26 -123 l25 -102 60 -1
c49 0 59 3 59 17 0 9 25 67 55 128 50 101 58 112 77 105 17 -5 20 -3 15 11 -4
9 -7 29 -7 45 0 26 -3 28 -46 32 -25 2 -48 0 -50 -4z m-224 -44 c0 -11 -22
-14 -120 -14 -93 0 -120 3 -120 13 0 8 2 16 4 18 2 2 56 3 120 1 93 -3 116 -6
116 -18z m290 6 c0 -11 -5 -20 -10 -20 -6 0 -18 -16 -27 -35 -17 -35 -41 -50
-28 -17 3 9 12 34 18 55 13 41 47 53 47 17z m-237 -100 c3 -11 2 -20 -3 -20
-4 0 -10 11 -12 25 -6 29 7 25 15 -5z m-268 -1 c0 -8 4 -20 9 -28 5 -8 8 -35
7 -59 -1 -28 4 -49 11 -54 7 -4 43 -8 81 -8 38 0 67 -4 67 -10 0 -6 -40 -10
-100 -10 l-100 0 1 96 c1 67 4 94 12 91 7 -2 12 -10 12 -18z m165 -41 c0 -8
-131 -15 -136 -7 -2 3 -2 8 0 10 7 7 136 4 136 -3z"/>
<path d="M1012 3488 c2 -34 7 -43 21 -42 9 0 69 1 133 2 l115 2 -3 38 -3 37
-133 3 -133 3 3 -43z m238 -1 c0 -9 -24 -12 -97 -10 -138 4 -146 23 -10 23 80
0 107 -3 107 -13z"/>
<path d="M1307 3363 l2 -167 47 -2 46 -2 -6 52 c-3 28 -6 104 -6 169 l0 117
-42 0 -43 0 2 -167z m53 -3 c0 -118 -2 -140 -15 -140 -13 0 -15 22 -15 140 0
118 2 140 15 140 13 0 15 -22 15 -140z"/>
<path d="M1476 3433 c-11 -175 -10 -237 2 -241 9 -3 12 39 12 157 0 101 4 161
10 161 6 0 10 -58 10 -154 l0 -155 116 -3 c64 -2 117 -1 119 2 2 3 5 23 6 45
l4 40 -83 -3 -82 -4 0 126 0 126 -54 0 -53 0 -7 -97z m84 -17 c0 -112 9 -156
30 -156 9 0 20 -3 24 -7 4 -4 29 -8 56 -8 28 0 50 -4 50 -8 0 -9 -155 -18
-176 -10 -11 4 -14 36 -14 144 0 119 2 138 15 133 12 -5 15 -24 15 -88z"/>
<path d="M1873 3503 c-6 -16 -34 -80 -62 -143 -28 -63 -51 -125 -51 -137 0
-21 5 -23 54 -23 l53 0 9 41 9 41 53 2 52 3 17 -48 c17 -47 19 -49 53 -45 34
3 35 4 32 42 -2 22 -19 77 -39 124 -19 47 -42 104 -51 128 -16 42 -17 42 -67
42 -46 0 -52 -3 -62 -27z m116 -60 c7 -21 26 -65 42 -98 37 -76 47 -125 27
-125 -13 0 -44 73 -36 84 2 2 -4 12 -13 22 -8 11 -21 38 -27 61 -7 22 -21 52
-32 65 l-19 23 -18 -25 c-10 -14 -18 -29 -18 -33 0 -4 -4 -11 -10 -15 -5 -4
-11 -25 -13 -47 -1 -21 -7 -44 -12 -49 -6 -6 -10 -25 -10 -43 0 -30 -3 -33
-30 -33 -32 0 -43 26 -15 36 8 4 15 16 15 28 0 17 2 18 10 6 8 -12 10 -9 10
13 0 16 4 26 10 22 8 -5 13 30 10 70 -1 3 8 17 20 32 11 14 20 34 20 44 0 22
39 30 60 12 9 -7 22 -29 29 -50z m-41 -30 c5 -16 13 -36 17 -45 6 -16 1 -18
-35 -18 -41 0 -42 1 -27 18 10 10 17 31 17 45 0 35 15 35 28 0z m42 -92 c0 -5
-25 -9 -55 -10 -30 -1 -55 2 -55 6 0 5 25 9 55 10 30 0 55 -2 55 -6z"/>
<path d="M2110 3366 l0 -164 45 -4 45 -3 0 167 0 168 -45 0 -45 0 0 -164z m64
118 c3 -9 6 -72 6 -140 0 -117 -1 -124 -20 -124 -19 0 -20 7 -20 140 0 113 3
140 14 140 8 0 17 -7 20 -16z"/>
<path d="M2254 3514 c3 -9 6 -84 6 -167 l0 -152 112 2 c62 1 114 4 116 7 1 3
2 25 2 47 l0 42 -74 -5 -74 -5 1 36 c1 20 0 75 -1 124 l-2 87 -46 0 c-38 0
-45 -3 -40 -16z m66 -133 l0 -120 48 -8 c26 -4 59 -6 75 -5 19 2 27 -1 27 -12
0 -13 -15 -16 -95 -16 l-95 0 0 140 c0 133 1 140 20 140 19 0 20 -7 20 -119z"/>
<path d="M2368 3233 c7 -3 16 -2 19 1 4 3 -2 6 -13 5 -11 0 -14 -3 -6 -6z"/>
<path d="M2720 3520 c0 -5 5 -10 11 -10 7 0 10 -49 7 -157 l-3 -158 45 -3 45
-3 0 171 0 170 -52 0 c-29 0 -53 -4 -53 -10z m80 -160 c0 -133 -1 -140 -20
-140 -19 0 -20 7 -20 140 0 133 1 140 20 140 19 0 20 -7 20 -140z"/>
<path d="M2880 3376 c0 -85 -3 -161 -6 -170 -5 -13 2 -16 40 -16 l46 0 0 113
0 112 28 -53 c15 -29 44 -75 65 -103 20 -27 37 -54 37 -60 0 -5 23 -9 51 -9
l51 0 -3 170 -4 170 -42 0 -43 0 0 -100 c0 -55 -4 -100 -9 -100 -5 0 -14 14
-21 31 -7 17 -30 58 -52 90 -21 33 -38 64 -38 69 0 6 -22 10 -50 10 l-50 0 0
-154z m280 -11 l0 -145 -25 0 c-14 0 -25 6 -25 13 0 7 -11 24 -25 39 -33 36
-32 49 4 42 35 -7 41 9 41 119 0 62 3 77 15 77 13 0 15 -23 15 -145z m-161 57
c28 -43 51 -84 51 -92 0 -8 -16 10 -35 40 -24 38 -41 54 -53 52 -27 -6 -32
-22 -32 -114 0 -73 -3 -88 -16 -88 -13 0 -15 12 -10 78 2 42 5 105 5 140 1 89
23 85 90 -16z"/>
<path d="M3845 3508 c4 -13 24 -61 45 -108 22 -47 47 -111 57 -142 l18 -56 63
-4 c52 -2 62 0 62 13 0 20 59 168 100 251 17 33 30 62 30 65 0 2 -28 3 -62 1
l-61 -3 -19 -54 c-23 -69 -16 -79 8 -12 10 28 20 49 22 47 4 -4 -33 -110 -63
-181 l-17 -40 -35 95 c-19 52 -39 107 -45 123 -9 24 -15 27 -60 27 -46 0 -49
-1 -43 -22z m75 -23 c0 -8 4 -23 9 -33 16 -29 58 -126 65 -149 5 -16 15 -23
31 -23 28 0 47 32 86 144 21 61 41 88 55 74 4 -5 -2 -21 -52 -133 -9 -22 -25
-62 -34 -90 -15 -49 -17 -50 -54 -50 -38 0 -39 0 -61 65 -21 64 -56 148 -75
182 -14 25 -13 28 10 28 11 0 20 -7 20 -15z"/>
<path d="M4046 3383 c-6 -14 -5 -15 5 -6 7 7 10 15 7 18 -3 3 -9 -2 -12 -12z"/>
<path d="M1020 3290 l0 -100 125 0 125 0 0 41 0 41 -80 -4 -80 -3 0 29 0 28
80 -4 80 -3 0 37 0 36 -125 1 -125 1 0 -100z m64 21 c-8 -61 6 -71 95 -71 34
0 61 -4 61 -10 0 -6 -38 -10 -95 -10 l-95 0 0 64 c0 61 5 72 33 75 4 1 5 -21
1 -48z m41 31 c-3 -3 -11 0 -18 7 -9 10 -8 11 6 5 10 -3 15 -9 12 -12z m101 6
c4 -5 -14 -8 -39 -8 -26 0 -47 4 -47 9 0 10 75 9 86 -1z"/>
<path d="M2713 3320 c0 -25 2 -35 4 -22 2 12 2 32 0 45 -2 12 -4 2 -4 -23z"/>
<path d="M1432 3220 c0 -14 2 -19 5 -12 2 6 2 18 0 25 -3 6 -5 1 -5 -13z"/>
<path d="M2712 3210 c0 -14 2 -19 5 -12 2 6 2 18 0 25 -3 6 -5 1 -5 -13z"/>
<path d="M2148 2795 c2 -14 6 -25 8 -25 2 0 4 11 4 25 0 14 -4 25 -9 25 -4 0
-6 -11 -3 -25z"/>
<path d="M2189 2811 c0 -3 0 -43 1 -88 l1 -83 -35 0 -36 0 0 85 c0 84 0 85
-25 85 -25 0 -25 0 -25 -92 0 -142 -2 -138 90 -138 l78 0 6 31 c3 17 6 69 6
114 l0 83 -30 4 c-16 3 -30 2 -31 -1z m-92 -118 c-2 -21 -4 -6 -4 32 0 39 2
55 4 38 2 -18 2 -50 0 -70z m120 -35 c-2 -13 -4 -3 -4 22 0 25 2 35 4 23 2
-13 2 -33 0 -45z m-102 -38 c3 -5 1 -10 -4 -10 -6 0 -11 5 -11 10 0 6 2 10 4
10 3 0 8 -4 11 -10z"/>
<path d="M2388 2812 l-88 -3 0 -30 0 -31 75 4 c60 3 74 1 70 -10 -3 -8 -5 -36
-5 -64 l0 -50 -52 4 c-51 3 -53 2 -56 -24 l-3 -28 86 0 86 0 -3 117 c-2 68 -7
117 -13 118 -5 0 -49 -1 -97 -3z m-13 -32 c4 -6 -5 -10 -19 -10 -14 0 -26 5
-26 10 0 6 9 10 19 10 11 0 23 -4 26 -10z m75 0 c0 -4 -13 -7 -30 -7 -16 0
-30 4 -30 9 0 4 14 7 30 6 17 -1 30 -5 30 -8z m30 -59 c0 -60 -12 -45 -14 18
-1 27 2 44 6 38 4 -7 8 -32 8 -56z m0 -61 c0 -5 -4 -10 -10 -10 -5 0 -10 5
-10 10 0 6 5 10 10 10 6 0 10 -4 10 -10z"/>
<path d="M3729 2812 c-75 -3 -77 -3 -82 -31 -3 -16 -2 -45 4 -65 10 -35 11
-36 59 -36 46 0 50 -2 50 -25 0 -22 -4 -24 -57 -27 -49 -3 -56 -6 -59 -25 -4
-22 -2 -23 86 -23 l90 0 -1 93 c-2 146 0 143 -90 139z m65 -61 c3 -20 6 -59 6
-88 0 -63 -20 -83 -21 -21 -3 129 -9 141 -64 136 -25 -2 -45 0 -45 5 0 4 27 7
59 6 l59 -2 6 -36z m-44 -11 c0 -16 -7 -20 -35 -20 -22 0 -35 5 -35 13 0 20
10 27 42 27 21 0 28 -5 28 -20z m-3 -136 c-3 -3 -12 -4 -19 -1 -8 3 -5 6 6 6
11 1 17 -2 13 -5z"/>
<path d="M3860 2696 l0 -126 33 0 32 0 0 80 c0 57 -4 80 -12 80 -9 0 -13 -21
-14 -67 l-1 -68 -9 45 c-11 50 -3 150 12 150 8 0 13 -15 10 -32 0 -5 8 -17 19
-28 21 -21 26 -40 10 -40 -10 0 -6 -19 13 -57 11 -24 31 -30 42 -13 3 5 11 38
16 72 6 35 14 65 20 66 5 2 9 10 9 18 0 8 5 14 10 14 6 0 10 -37 10 -92 -1
-71 -3 -89 -11 -75 -6 11 -9 32 -5 48 3 15 2 31 -3 33 -8 5 -21 -63 -21 -111
0 -21 4 -24 33 -21 l32 3 1 118 2 117 -38 0 c-36 0 -38 -2 -44 -39 -3 -22 -11
-43 -17 -47 -15 -9 -41 19 -53 58 -9 27 -17 34 -43 36 l-33 3 0 -125z m124 -2
c12 -5 13 -10 5 -26 -8 -15 -13 -17 -24 -8 -8 6 -11 18 -8 26 6 16 6 16 27 8z"/>
<path d="M1019 2771 c0 -20 -1 -55 -3 -78 l-2 -43 78 0 c64 0 78 3 78 16 0 8
4 13 9 10 13 -9 31 41 31 89 l0 44 -95 -1 -95 -1 -1 -36z m75 8 c-27 -6 -45
-17 -52 -32 -11 -22 -11 -22 -7 3 2 14 4 28 4 33 1 4 22 7 49 6 l47 -1 -41 -9z
m100 -5 c4 -10 1 -14 -6 -12 -15 5 -23 28 -10 28 5 0 13 -7 16 -16z m-24 -25
c0 -5 5 -7 10 -4 13 8 2 -44 -13 -63 -15 -18 -124 -14 -132 6 -3 10 0 12 10 8
12 -4 15 2 15 29 l0 35 55 0 c32 0 55 -4 55 -11z"/>
<path d="M1080 2710 c0 -5 16 -10 35 -10 19 0 35 5 35 10 0 6 -16 10 -35 10
-19 0 -35 -4 -35 -10z"/>
<path d="M1834 2794 c3 -9 6 -62 6 -118 l0 -103 30 1 30 1 -1 60 c-2 102 -16
133 -19 40 -2 -104 -17 -70 -18 40 0 44 3 74 5 66 4 -10 7 -10 13 -1 5 8 13 2
23 -19 9 -17 11 -29 6 -26 -13 8 -12 3 11 -57 23 -61 62 -108 90 -108 19 0 20
7 20 120 l0 120 -28 0 -27 0 5 -70 c3 -40 1 -75 -4 -80 -7 -7 -6 -10 2 -10 14
0 20 25 25 95 2 28 3 8 3 -43 -1 -56 -5 -91 -11 -90 -5 2 -9 9 -9 16 1 6 -3
12 -10 12 -13 0 -40 39 -32 48 3 3 6 0 6 -6 0 -7 4 -12 10 -12 12 0 5 20 -29
87 -25 50 -28 53 -65 53 -31 0 -37 -3 -32 -16z m101 -84 c3 -5 1 -10 -4 -10
-6 0 -11 5 -11 10 0 6 2 10 4 10 3 0 8 -4 11 -10z"/>
<path d="M2558 2753 c-3 -50 -6 -58 -22 -55 -11 2 -16 -1 -13 -10 2 -7 10 -12
16 -10 7 1 11 -16 11 -46 0 -27 2 -51 5 -54 3 -2 19 -2 36 0 31 5 31 5 25 49
-5 38 -3 43 12 41 11 -2 15 2 12 12 -2 8 -5 41 -5 73 l0 57 -37 0 -37 0 -3
-57z m47 -8 c1 -19 -2 -35 -7 -35 -4 0 -7 -3 -7 -7 5 -28 -3 -83 -10 -79 -8 5
-4 125 5 155 7 22 16 5 19 -34z"/>
<path d="M2670 2731 c0 -45 5 -83 10 -86 6 -4 8 -15 5 -25 -3 -10 -1 -21 5
-25 6 -4 10 4 10 19 0 14 5 28 10 31 6 3 10 42 10 86 0 78 0 79 -25 79 -25 0
-25 -1 -25 -79z"/>
<path d="M2740 2775 c0 -19 5 -35 10 -35 6 0 10 5 10 10 0 6 14 10 30 10 l30
0 -2 -80 c-2 -53 -6 -80 -14 -80 -15 0 -26 28 -14 35 5 3 2 18 -6 33 -7 15
-14 33 -14 40 0 6 -8 12 -19 12 -20 0 -20 -9 0 -100 10 -45 11 -46 49 -47 37
-2 40 0 40 26 0 15 5 32 12 39 7 7 13 47 15 92 l3 80 -65 0 -65 0 0 -35z"/>
<path d="M2900 2744 c0 -60 2 -65 19 -59 32 10 33 -12 1 -43 -16 -17 -30 -38
-30 -46 0 -24 34 -19 60 9 13 14 26 25 30 25 4 0 12 -11 18 -25 9 -20 19 -25
46 -25 33 0 34 1 27 28 -4 15 -16 28 -27 30 -36 7 -37 21 -5 57 24 27 31 45
31 75 0 37 -2 40 -29 40 -24 0 -28 -3 -24 -22 4 -24 -30 -88 -47 -88 -5 0 -10
24 -10 55 0 54 0 55 -30 55 l-30 0 0 -66z m38 1 c1 -25 -3 -45 -8 -45 -6 0
-10 20 -10 45 0 25 4 45 9 45 5 0 9 -20 9 -45z m109 13 c-3 -8 -6 -5 -6 6 -1
11 2 17 5 13 3 -3 4 -12 1 -19z m-53 -92 c-3 -8 -14 -16 -25 -19 -16 -4 -17
-2 -8 14 11 22 41 26 33 5z m46 -56 c0 -5 -2 -10 -4 -10 -3 0 -8 5 -11 10 -3
6 -1 10 4 10 6 0 11 -4 11 -10z"/>
<path d="M3104 2788 c3 -13 6 -45 6 -73 l0 -50 60 3 c55 4 60 2 60 -17 0 -19
-6 -21 -59 -21 -57 0 -59 -1 -57 -25 1 -25 2 -25 89 -25 l87 0 0 46 c0 41 2
45 21 39 17 -6 20 -3 17 17 -2 14 -11 24 -24 26 -19 3 -20 8 -16 52 l5 50 -98
0 c-96 0 -97 0 -91 -22z m155 -25 c-1 -17 -3 -21 -6 -10 -4 14 -16 17 -64 17
-33 0 -59 4 -59 10 0 6 28 10 65 10 65 0 65 0 64 -27z m-19 -27 c0 -10 -15
-15 -50 -18 -42 -2 -50 0 -50 15 0 14 9 17 50 17 36 0 50 -4 50 -14z m-80 -40
c0 -11 -19 -15 -25 -6 -3 5 1 10 9 10 9 0 16 -2 16 -4z m107 -8 c10 -16 4 -60
-9 -73 -7 -7 -9 2 -6 28 4 40 4 40 -62 50 -14 3 -4 5 22 6 28 0 50 -4 55 -11z"/>
<path d="M3450 2798 c0 -7 -3 -23 -6 -36 -6 -21 -4 -22 20 -18 82 18 78 18 74
-6 -2 -17 -11 -24 -30 -26 -39 -5 -37 -32 2 -32 34 0 50 -24 31 -43 -7 -7 -35
-12 -64 -12 -41 0 -52 -4 -55 -17 -4 -21 39 -31 118 -26 l55 3 3 113 3 112
-76 0 c-53 0 -75 -4 -75 -12z m100 -18 c0 -5 -5 -10 -11 -10 -5 0 -7 5 -4 10
3 6 8 10 11 10 2 0 4 -4 4 -10z m29 -80 c-1 -49 -5 -90 -9 -90 -4 0 -8 41 -9
90 -1 59 2 90 9 90 7 0 10 -31 9 -90z"/>
<path d="M1236 2792 c-3 -5 1 -17 8 -27 12 -17 13 -17 11 3 -2 26 -11 37 -19
24z"/>
<path d="M1289 2798 c0 -2 -3 -14 -5 -28 -2 -13 -8 -27 -12 -30 -14 -9 -8 -85
8 -97 18 -15 40 -17 40 -3 0 6 -9 10 -20 10 -16 0 -19 5 -15 28 2 15 7 44 10
65 5 29 10 37 27 37 17 0 18 -2 8 -15 -9 -10 -9 -15 -1 -15 6 0 14 0 18 0 4 0
8 11 10 25 3 23 0 25 -32 25 -19 0 -35 -1 -36 -2z"/>
<path d="M1414 2785 c11 -8 28 -13 38 -9 16 5 18 -1 17 -61 -1 -36 1 -69 5
-72 3 -3 6 14 6 38 0 24 3 61 6 82 l7 37 -49 0 c-45 -1 -48 -2 -30 -15z"/>
<path d="M1403 2715 c0 -27 2 -38 4 -22 2 15 2 37 0 50 -2 12 -4 0 -4 -28z"/>
<path d="M1430 2685 c0 -27 3 -45 7 -41 7 7 5 77 -2 85 -3 2 -5 -17 -5 -44z"/>
<path d="M1230 2709 c0 -8 -3 -31 -6 -51 -5 -29 -3 -38 8 -38 10 0 14 12 13
44 0 25 -4 48 -8 52 -4 4 -7 1 -7 -7z"/>
<path d="M3440 2694 c0 -8 5 -12 10 -9 6 4 8 11 5 16 -9 14 -15 11 -15 -7z"/>
<path d="M1332 2669 c22 -9 26 -14 19 -32 -4 -12 -6 -28 -4 -34 3 -9 -6 -13
-26 -13 -17 0 -31 -4 -31 -9 0 -4 18 -8 39 -8 39 0 39 0 34 33 -4 24 -2 34 7
34 9 0 7 6 -5 20 -10 11 -28 20 -39 19 -18 0 -17 -2 6 -10z"/>
<path d="M1684 2672 c-6 -4 -15 -18 -19 -31 -5 -16 -4 -21 4 -17 16 10 14 -3
-3 -20 -8 -8 -24 -14 -35 -14 -12 0 -21 -4 -21 -10 0 -15 50 -12 66 5 34 34
41 108 8 87z"/>
<path d="M1497 2650 c-3 -11 -3 -20 -1 -20 2 0 8 9 14 20 6 11 7 20 2 20 -6 0
-12 -9 -15 -20z"/>
<path d="M3435 2660 c-3 -5 1 -10 10 -10 9 0 13 5 10 10 -3 6 -8 10 -10 10 -2
0 -7 -4 -10 -10z"/>
<path d="M1400 2632 c0 -15 -5 -33 -11 -39 -7 -7 -6 -12 5 -16 13 -5 16 2 16
38 0 25 -2 45 -5 45 -3 0 -5 -13 -5 -28z"/>
<path d="M3350 2620 c0 -44 25 -58 32 -17 6 33 -2 57 -18 57 -10 0 -14 -12
-14 -40z"/>
<path d="M1020 2601 l0 -30 105 0 c66 1 105 5 105 11 0 7 -14 8 -36 5 -30 -5
-34 -3 -30 11 4 13 0 18 -15 19 -14 1 -19 -3 -15 -12 7 -19 -22 -26 -64 -16
l-35 9 32 1 c17 1 35 6 38 11 4 6 -5 10 -22 9 -15 -1 -36 2 -45 6 -15 6 -18 2
-18 -24z"/>
<path d="M1430 2630 c-1 -3 -3 -17 -4 -32 -2 -26 1 -28 36 -28 34 0 38 3 38
25 0 14 -4 25 -10 25 -5 0 -10 -7 -10 -15 0 -9 -9 -15 -22 -14 -13 0 -17 3
-10 6 6 2 12 9 12 14 0 6 -4 8 -9 5 -5 -4 -12 0 -14 6 -3 7 -6 11 -7 8z"/>
<path d="M1610 2620 c0 -5 5 -10 10 -10 6 0 10 5 10 10 0 6 -4 10 -10 10 -5 0
-10 -4 -10 -10z"/>
<path d="M1185 2610 c3 -5 8 -10 11 -10 2 0 4 5 4 10 0 6 -5 10 -11 10 -5 0
-7 -4 -4 -10z"/>
<path d="M1721 2584 c0 -11 3 -14 6 -6 3 7 2 16 -1 19 -3 4 -6 -2 -5 -13z"/>
<path d="M1005 2380 c9 -14 3195 -14 3195 0 0 7 -540 10 -1601 10 -1064 0
-1598 -3 -1594 -10z"/>
<path d="M1068 2253 c7 -3 16 -2 19 1 4 3 -2 6 -13 5 -11 0 -14 -3 -6 -6z"/>
<path d="M1102 2221 c-7 -4 -29 -6 -50 -4 l-37 3 0 -68 0 -67 60 6 c33 3 64 2
70 -2 19 -18 23 -7 22 61 -2 76 -17 99 -17 25 0 -28 -5 -46 -12 -47 -7 0 -24
-2 -38 -3 -14 -2 -33 -6 -42 -10 -15 -6 -17 -1 -14 42 4 60 3 58 19 45 13 -11
67 -5 67 9 0 13 -15 18 -28 10z"/>
<path d="M1220 2175 c0 -30 -4 -55 -8 -55 -13 0 -47 -68 -39 -76 4 -4 -1 -13
-11 -20 -16 -13 -16 -13 0 -14 18 0 35 41 29 69 -1 7 2 10 7 7 5 -3 14 5 20
17 14 29 23 127 11 127 -5 0 -9 -25 -9 -55z"/>
<path d="M1273 2222 c-18 -3 -22 -11 -25 -59 -3 -50 -1 -56 20 -64 15 -6 22
-17 22 -34 0 -14 5 -25 10 -25 23 0 4 67 -21 73 -14 4 -19 14 -19 39 0 42 10
58 35 53 11 -2 22 -4 25 -4 8 -1 6 -75 -3 -88 -4 -6 -2 -13 5 -16 17 -5 48 3
48 14 0 5 -7 6 -16 2 -14 -5 -15 2 -12 53 3 57 2 59 -22 59 -14 0 -35 -1 -47
-3z"/>
<path d="M1470 2218 c0 -5 8 -8 18 -8 13 0 14 -2 3 -9 -14 -9 -5 -18 19 -17 8
1 16 10 18 22 3 18 -2 21 -27 20 -17 -1 -31 -4 -31 -8z"/>
<path d="M1618 2223 l-38 -4 0 -64 c0 -35 -5 -67 -10 -70 -18 -11 -1 -23 25
-17 24 4 25 8 25 68 0 63 0 64 28 65 15 0 34 2 43 4 13 2 14 -6 8 -58 -8 -66
-6 -77 16 -77 15 0 25 107 13 139 -6 18 -32 21 -110 14z m-8 -63 c0 -27 -4
-50 -10 -50 -11 0 -14 83 -3 93 12 12 13 8 13 -43z m-5 -70 c-3 -5 -11 -10
-16 -10 -6 0 -7 5 -4 10 3 6 11 10 16 10 6 0 7 -4 4 -10z"/>
<path d="M1780 2220 c0 -5 5 -10 10 -10 6 0 10 5 10 10 0 6 -4 10 -10 10 -5 0
-10 -4 -10 -10z"/>
<path d="M1811 2219 c1 -8 1 -58 0 -111 -1 -91 -2 -98 -21 -98 -11 0 -20 -3
-20 -7 0 -5 416 -7 926 -5 669 1 923 5 918 13 -5 8 -256 10 -899 6 l-893 -6 5
103 c4 74 2 105 -6 111 -8 4 -12 2 -10 -6z"/>
<path d="M1854 2214 c-18 -14 -16 -15 26 -10 l45 5 1 -51 c1 -28 7 -53 13 -58
7 -4 -10 -5 -37 -2 -30 2 -52 0 -56 -7 -8 -12 -6 -12 67 -16 l47 -2 0 78 0 79
-43 0 c-24 0 -52 -7 -63 -16z m93 -31 c-3 -10 -5 -4 -5 12 0 17 2 24 5 18 2
-7 2 -21 0 -30z m0 -55 c-3 -7 -5 -2 -5 12 0 14 2 19 5 13 2 -7 2 -19 0 -25z"/>
<path d="M1403 2182 c-2 -20 -5 -52 -8 -71 -6 -30 -4 -33 12 -26 10 4 28 7 41
6 29 -1 29 17 0 21 -20 3 -22 8 -19 56 2 38 -1 52 -11 52 -8 0 -14 -14 -15
-38z"/>
<path d="M1440 2200 c0 -5 7 -10 16 -10 8 0 12 5 9 10 -3 6 -10 10 -16 10 -5
0 -9 -4 -9 -10z"/>
<path d="M1778 2138 c-4 -68 -2 -80 12 -58 9 14 7 106 -2 116 -4 3 -8 -23 -10
-58z"/>
<path d="M1650 2165 c0 -8 2 -15 4 -15 2 0 6 7 10 15 3 8 1 15 -4 15 -6 0 -10
-7 -10 -15z"/>
<path d="M1885 2155 c0 -14 3 -25 8 -25 4 0 7 11 7 25 0 14 -3 25 -7 25 -5 0
-8 -11 -8 -25z"/>
<path d="M1486 2163 c-12 -12 -6 -25 9 -19 9 3 15 0 15 -9 0 -8 -5 -14 -11
-12 -6 1 -14 -4 -16 -11 -4 -11 -1 -12 16 -3 24 13 28 46 7 54 -8 3 -17 3 -20
0z"/>
<path d="M1290 2150 c0 -5 5 -10 11 -10 5 0 7 5 4 10 -3 6 -8 10 -11 10 -2 0
-4 -4 -4 -10z"/>
<path d="M1515 2089 c-4 -6 -1 -15 6 -20 21 -13 31 -11 27 8 -4 20 -24 28 -33
12z"/>
<path d="M1647 2080 c3 -11 2 -31 -1 -44 -6 -24 -10 -25 -79 -24 -39 1 -77 5
-84 10 -7 5 -14 5 -18 -2 -3 -6 -10 -8 -15 -5 -5 3 -11 1 -14 -4 -4 -6 54 -10
145 -10 97 -1 148 2 144 8 -3 6 -20 8 -37 4 -30 -6 -31 -5 -24 23 4 16 9 37
12 47 4 12 0 17 -14 17 -15 0 -19 -5 -15 -20z"/>
<path d="M1474 2076 c-10 -27 2 -43 14 -19 8 14 9 24 2 28 -6 3 -13 -1 -16 -9z"/>
<path d="M1103 2063 c-7 -3 -13 -13 -13 -24 0 -14 -7 -19 -30 -19 -16 0 -30
-4 -30 -10 0 -8 23 -8 73 -1 4 0 7 8 7 17 0 8 5 12 10 9 6 -3 10 1 10 9 0 18
-10 25 -27 19z"/>
<path d="M1230 2055 c0 -8 2 -15 4 -15 2 0 6 7 10 15 3 8 1 15 -4 15 -6 0 -10
-7 -10 -15z"/>
<path d="M1030 2049 c0 -5 5 -7 10 -4 6 3 10 8 10 11 0 2 -4 4 -10 4 -5 0 -10
-5 -10 -11z"/>
<path d="M1700 2045 c0 -8 4 -15 10 -15 5 0 7 7 4 15 -4 8 -8 15 -10 15 -2 0
-4 -7 -4 -15z"/>
<path d="M1980 2044 c0 -8 5 -12 10 -9 6 4 8 11 5 16 -9 14 -15 11 -15 -7z"/>
<path d="M2135 2050 c-3 -5 -1 -10 4 -10 6 0 11 5 11 10 0 6 -2 10 -4 10 -3 0
-8 -4 -11 -10z"/>
<path d="M2248 2043 c6 -2 18 -2 25 0 6 3 1 5 -13 5 -14 0 -19 -2 -12 -5z"/>
<path d="M2693 2043 c9 -2 23 -2 30 0 6 3 -1 5 -18 5 -16 0 -22 -2 -12 -5z"/>
<path d="M2853 2043 c9 -2 23 -2 30 0 6 3 -1 5 -18 5 -16 0 -22 -2 -12 -5z"/>
<path d="M2958 2043 c7 -3 16 -2 19 1 4 3 -2 6 -13 5 -11 0 -14 -3 -6 -6z"/>
<path d="M3118 2043 c7 -3 16 -2 19 1 4 3 -2 6 -13 5 -11 0 -14 -3 -6 -6z"/>
<path d="M3158 2043 c7 -3 16 -2 19 1 4 3 -2 6 -13 5 -11 0 -14 -3 -6 -6z"/>
<path d="M3238 2043 c6 -2 18 -2 25 0 6 3 1 5 -13 5 -14 0 -19 -2 -12 -5z"/>
<path d="M1275 2021 c-4 -7 -20 -9 -42 -5 -28 5 -35 4 -31 -7 3 -9 18 -13 49
-10 50 3 57 7 42 22 -8 8 -13 8 -18 0z"/>
<path d="M1120 2010 c0 -5 5 -10 10 -10 6 0 10 5 10 10 0 6 -4 10 -10 10 -5 0
-10 -4 -10 -10z"/>
<path d="M2048 1963 c7 -3 16 -2 19 1 4 3 -2 6 -13 5 -11 0 -14 -3 -6 -6z"/>
<path d="M2635 1710 c3 -5 8 -10 11 -10 2 0 4 5 4 10 0 6 -5 10 -11 10 -5 0
-7 -4 -4 -10z"/>
<path d="M1023 1686 c-4 -5 -1 -12 5 -14 7 -2 10 -7 7 -12 -3 -5 9 -7 27 -5
18 2 39 4 46 4 6 1 12 10 12 21 0 23 -15 27 -24 5 -3 -8 -11 -15 -18 -15 -10
0 -10 2 1 9 9 6 4 10 -18 13 -18 3 -35 0 -38 -6z"/>
<path d="M2730 1673 c1 -26 2 -27 14 -10 10 12 25 17 50 15 42 -3 50 -28 9
-28 -20 0 -24 -3 -16 -11 6 -6 21 -8 33 -4 16 5 20 13 18 33 -3 25 -7 27 -55
30 -52 3 -53 3 -53 -25z"/>
<path d="M2350 1680 c-179 -3 -316 -8 -305 -11 38 -11 645 -11 645 0 0 5 -3
11 -7 13 -5 2 -154 1 -333 -2z"/>
<path d="M1195 1670 c-8 -12 81 -12 110 0 14 6 2 9 -42 9 -34 1 -65 -3 -68 -9z"/>
<path d="M1334 1672 c11 -10 416 -11 416 -1 0 6 -83 9 -211 9 -116 -1 -208 -4
-205 -8z"/>
<path d="M1933 1673 c9 -2 23 -2 30 0 6 3 -1 5 -18 5 -16 0 -22 -2 -12 -5z"/>
<path d="M2757 1653 c-10 -9 -9 -23 1 -23 5 0 9 7 9 15 0 17 -1 18 -10 8z"/>
<path d="M1063 1522 c-52 -3 -53 -4 -54 -35 0 -18 -2 -51 -5 -74 l-4 -43 59 0
c58 0 60 1 66 30 9 41 -8 60 -56 60 -39 0 -46 6 -31 25 10 14 55 12 60 -3 6
-20 19 -13 24 13 6 31 6 31 -59 27z m47 -99 c-1 -18 -18 -28 -52 -30 -32 -2
-38 1 -38 17 0 17 7 20 45 20 25 0 45 -3 45 -7z"/>
<path d="M1449 1488 c-1 -21 -2 -44 -3 -50 -1 -9 16 -13 49 -14 69 -2 67 -2
54 -25 -9 -18 -17 -21 -50 -16 -41 5 -63 -7 -30 -18 36 -11 83 -1 98 21 16 25
14 126 -2 134 -14 7 -19 -48 -6 -64 9 -11 1 -13 -39 -11 -28 2 -49 7 -48 12 2
4 15 7 31 7 15 -1 27 2 27 7 0 5 -10 9 -22 9 -28 0 -62 19 -38 21 8 1 23 2 32
3 34 2 22 20 -14 21 -37 2 -38 1 -39 -37z"/>
<path d="M1774 1519 c-9 -16 2 -22 21 -11 15 8 16 10 1 15 -8 3 -18 2 -22 -4z"/>
<path d="M2950 1519 c0 -5 5 -7 10 -4 6 3 10 8 10 11 0 2 -4 4 -10 4 -5 0 -10
-5 -10 -11z"/>
<path d="M1150 1500 c0 -16 7 -20 38 -20 21 0 43 -5 50 -12 6 -6 15 -8 19 -4
5 4 0 13 -9 20 -13 10 -15 15 -6 24 9 9 0 12 -40 12 -45 0 -52 -3 -52 -20z
m40 0 c0 -5 -2 -10 -4 -10 -3 0 -8 5 -11 10 -3 6 -1 10 4 10 6 0 11 -4 11 -10z
m25 0 c3 -5 1 -10 -4 -10 -6 0 -11 5 -11 10 0 6 2 10 4 10 3 0 8 -4 11 -10z"/>
<path d="M1281 1446 c0 -53 4 -76 14 -80 7 -2 16 2 19 10 3 8 1 14 -3 14 -5 0
-11 24 -13 54 -1 30 0 52 5 49 4 -2 7 0 7 6 0 6 7 8 15 5 20 -8 19 -48 -1 -68
-14 -15 -14 -16 0 -16 9 0 16 -7 16 -15 0 -18 47 -38 68 -30 20 7 6 20 -21 20
-16 0 -23 7 -25 24 -3 21 -1 23 27 19 20 -3 30 -1 28 6 -2 6 -18 10 -36 8 -25
-2 -31 2 -31 18 0 24 27 37 43 21 17 -17 27 -13 27 9 0 18 -7 20 -69 20 l-70
0 0 -74z"/>
<path d="M1820 1509 c0 -5 5 -7 10 -4 6 3 10 8 10 11 0 2 -4 4 -10 4 -5 0 -10
-5 -10 -11z"/>
<path d="M1851 1504 c0 -11 3 -14 6 -6 3 7 2 16 -1 19 -3 4 -6 -2 -5 -13z"/>
<path d="M1770 1480 c0 -5 7 -10 15 -10 8 0 15 5 15 10 0 6 -7 10 -15 10 -8 0
-15 -4 -15 -10z"/>
<path d="M2257 1483 c-2 -5 -5 -25 -6 -45 -1 -28 2 -38 14 -38 11 0 15 11 15
39 0 37 -13 62 -23 44z"/>
<path d="M2306 1483 c-3 -4 -6 -24 -6 -45 0 -27 4 -38 15 -38 10 0 13 9 10 32
-2 18 1 35 6 39 7 4 5 8 -4 12 -8 3 -18 3 -21 0z"/>
<path d="M2352 1444 c0 -40 2 -44 24 -44 19 0 24 5 24 25 0 16 -6 25 -15 25
-8 0 -15 4 -15 9 0 5 11 9 24 9 21 0 25 -6 28 -32 2 -25 8 -32 29 -34 22 -3
27 2 31 22 4 22 2 26 -18 26 -13 0 -24 5 -24 11 0 6 9 9 20 6 13 -3 20 0 20 8
0 10 -17 13 -64 13 l-64 -1 0 -43z m109 -17 c-1 -12 -15 -9 -19 4 -3 6 1 10 8
8 6 -3 11 -8 11 -12z"/>
<path d="M2500 1445 c0 -40 3 -45 22 -45 17 0 19 3 10 12 -7 7 -12 27 -12 45
0 18 -4 33 -10 33 -5 0 -10 -20 -10 -45z"/>
<path d="M2560 1445 c0 -45 0 -45 35 -45 39 0 48 17 13 22 -19 2 -22 8 -20 36
3 24 0 32 -12 32 -12 0 -16 -11 -16 -45z"/>
<path d="M2657 1483 c-10 -16 -11 -73 -2 -75 6 -2 11 12 13 30 4 43 22 41 22
-3 0 -19 5 -35 10 -35 6 0 10 20 10 45 0 41 -2 45 -24 45 -14 0 -27 -3 -29 -7z"/>
<path d="M2732 1442 l0 -48 34 4 c33 4 34 6 34 48 0 43 -1 44 -34 44 -34 0
-34 0 -34 -48z m53 18 c3 -5 -3 -10 -14 -10 -12 0 -21 5 -21 10 0 6 6 10 14
10 8 0 18 -4 21 -10z m-4 -35 c-1 -15 -24 -12 -29 3 -3 9 2 13 12 10 10 -1 17
-7 17 -13z"/>
<path d="M2819 1443 c4 -51 21 -58 21 -8 0 24 5 35 15 35 10 0 15 -11 15 -35
0 -19 5 -35 10 -35 6 0 10 13 10 29 0 16 3 36 6 45 5 12 -3 14 -38 13 l-43 -1
4 -43z"/>
<path d="M2924 1482 c-7 -4 -10 -18 -9 -32 1 -14 3 -31 4 -37 0 -7 8 -13 17
-13 13 0 14 3 5 13 -6 8 -9 16 -7 18 2 2 6 16 10 32 6 27 1 33 -20 19z"/>
<path d="M2968 1447 c-3 -23 -4 -43 -4 -44 1 0 19 -3 41 -5 l39 -3 0 45 c0 45
-1 45 -36 47 -35 2 -36 1 -40 -40z m62 13 c0 -5 -9 -10 -20 -10 -11 0 -20 5
-20 10 0 6 9 10 20 10 11 0 20 -4 20 -10z m-6 -41 c-8 -14 -34 -10 -34 5 0 9
7 12 20 9 11 -3 17 -9 14 -14z"/>
<path d="M3127 1483 c-4 -3 -7 -24 -7 -45 0 -34 3 -38 24 -38 21 0 25 5 29 38
l4 37 1 -37 c2 -35 4 -38 32 -38 26 0 30 3 30 29 0 16 3 36 6 45 5 14 -3 16
-53 16 -33 0 -63 -3 -66 -7z m33 -23 c0 -5 -4 -10 -10 -10 -5 0 -10 5 -10 10
0 6 5 10 10 10 6 0 10 -4 10 -10z m60 -18 c0 -19 -5 -29 -15 -29 -10 0 -15 10
-15 29 0 18 5 28 15 28 10 0 15 -10 15 -28z m-66 -23 c-3 -5 -10 -7 -15 -3 -5
3 -7 10 -3 15 3 5 10 7 15 3 5 -3 7 -10 3 -15z"/>
<path d="M3260 1477 c0 -7 5 -18 12 -25 8 -8 8 -15 -1 -26 -9 -10 -9 -16 -1
-21 14 -9 17 -5 20 20 5 43 0 65 -15 65 -8 0 -15 -6 -15 -13z"/>
<path d="M3312 1443 c2 -27 7 -48 12 -48 5 0 10 21 11 48 1 34 -2 47 -12 47
-11 0 -13 -12 -11 -47z"/>
<path d="M3350 1445 c0 -25 5 -45 10 -45 6 0 10 15 10 34 0 19 5 38 10 41 6 4
10 -10 10 -34 0 -37 3 -41 24 -41 13 0 31 -3 40 -6 10 -4 16 -1 16 9 0 10 -9
14 -30 13 -16 0 -29 3 -27 9 1 5 14 8 28 7 21 -3 27 2 31 22 3 14 3 28 0 31
-3 3 -32 5 -64 5 l-58 0 0 -45z m105 15 c4 -6 -5 -10 -19 -10 -14 0 -26 5 -26
10 0 6 9 10 19 10 11 0 23 -4 26 -10z"/>
<path d="M3490 1439 c0 -43 3 -50 16 -45 9 3 22 6 30 6 8 0 14 5 14 11 0 6 -9
8 -20 4 -11 -4 -20 -2 -20 4 0 6 9 11 20 11 11 0 20 5 20 10 0 6 -9 10 -20 10
-11 0 -20 5 -20 11 0 6 9 9 20 6 11 -3 20 0 21 6 1 7 4 1 9 -13 4 -14 5 -36 2
-49 -3 -17 -1 -22 9 -19 8 3 14 23 15 51 l2 47 -49 0 -49 0 0 -51z"/>
<path d="M3600 1440 c0 -27 5 -50 10 -50 6 0 10 15 10 34 0 19 3 41 6 50 4 11
1 16 -10 16 -13 0 -16 -11 -16 -50z"/>
<path d="M1832 1460 c0 -14 2 -19 5 -12 2 6 2 18 0 25 -3 6 -5 1 -5 -13z"/>
<path d="M1851 1453 c0 -19 -8 -36 -18 -42 -17 -10 -17 -10 0 -11 22 0 30 19
24 57 -4 27 -4 27 -6 -4z"/>
<path d="M2210 1441 c0 -22 5 -43 10 -46 6 -3 10 -3 11 2 7 76 6 83 -7 83 -10
0 -14 -12 -14 -39z"/>
<path d="M1890 1459 c0 -5 5 -7 10 -4 6 3 10 8 10 11 0 2 -4 4 -10 4 -5 0 -10
-5 -10 -11z"/>
<path d="M1150 1434 c0 -12 11 -14 55 -12 72 4 72 22 0 25 -44 2 -55 0 -55
-13z"/>
<path d="M1766 1434 c-2 -6 -2 -15 1 -18 7 -6 33 12 33 24 0 12 -29 7 -34 -6z"/>
<path d="M1150 1381 c0 -12 0 -12 65 -13 64 -1 56 14 -10 19 -35 3 -55 0 -55
-6z"/>
<path d="M1100 1286 c0 -2 9 -6 20 -9 11 -3 18 -1 14 4 -5 9 -34 13 -34 5z"/>
<path d="M1034 1252 c-33 -3 -31 2 -25 -84 1 -5 12 -8 26 -8 27 0 34 17 10 26
-20 8 -19 30 1 38 36 14 44 7 44 -39 0 -35 -4 -47 -21 -56 -15 -8 -24 -8 -32
0 -17 17 -27 13 -27 -9 0 -16 7 -20 33 -20 18 0 38 5 45 12 9 9 12 9 12 0 0
-7 5 -12 10 -12 7 0 10 27 8 72 -3 67 -5 72 -28 77 -14 4 -39 5 -56 3z"/>
<path d="M1162 1200 c0 -31 -3 -67 -6 -78 -7 -20 -4 -22 29 -22 25 0 35 4 33
13 -3 6 -10 12 -16 12 -7 0 -12 3 -12 8 0 4 0 28 0 53 0 37 3 45 15 40 8 -3
15 -1 15 4 0 6 1 13 3 16 1 4 -12 8 -29 9 l-32 2 0 -57z"/>
<path d="M1242 1180 l-2 -80 30 0 30 0 0 80 c0 47 -4 80 -10 80 -6 0 -10 -28
-10 -64 0 -64 -13 -95 -23 -56 -3 11 -2 22 2 24 11 7 6 89 -5 93 -7 2 -11 -27
-12 -77z"/>
<path d="M1507 1252 c-5 -7 -17 -10 -28 -7 -17 6 -19 1 -21 -49 -1 -31 -2 -64
-2 -73 -1 -13 7 -18 28 -18 15 -1 30 4 33 11 8 21 -2 150 -10 136z m-10 -74
c-2 -62 -22 -64 -22 -3 -1 45 2 55 15 55 6 0 9 -24 7 -52z"/>
<path d="M1766 1253 c-3 -3 -6 -18 -6 -33 0 -37 -11 -45 -30 -20 -15 20 -16
18 -14 -32 2 -71 0 -68 33 -68 l29 0 4 76 c3 72 -1 92 -16 77z m-8 -105 c-5
-32 -28 -35 -28 -4 0 17 5 26 16 26 10 0 14 -7 12 -22z"/>
<path d="M1814 1236 c3 -12 6 -27 6 -33 0 -7 5 -13 11 -13 6 0 8 9 4 20 -3 11
-2 20 4 20 5 0 17 3 26 6 15 6 16 -1 13 -65 -2 -52 0 -71 10 -71 13 0 18 149
5 151 -5 1 -25 2 -46 3 -35 3 -38 1 -33 -18z"/>
<path d="M2103 1246 c4 -10 7 -35 7 -56 0 -33 3 -37 20 -33 15 4 20 0 20 -16
0 -11 -4 -21 -10 -21 -5 0 -10 5 -10 10 0 6 -4 10 -9 10 -5 0 -7 -9 -4 -20 3
-13 14 -20 29 -20 23 0 24 3 24 75 0 67 -2 75 -19 75 -11 0 -27 3 -37 7 -14 5
-16 3 -11 -11z m41 -49 c-3 -15 -10 -24 -15 -21 -11 6 -12 48 -2 58 13 12 24
-11 17 -37z"/>
<path d="M2205 1248 c-2 -7 -5 -43 -7 -81 -3 -58 -1 -67 15 -67 15 0 17 10 17
80 0 48 -4 80 -10 80 -6 0 -13 -6 -15 -12z"/>
<path d="M1322 1193 c1 -89 3 -92 54 -91 42 0 44 2 44 29 0 16 -4 29 -10 29
-5 0 -10 -9 -10 -21 0 -30 -44 -22 -48 9 -3 19 1 22 32 22 35 0 36 1 36 40 0
36 -2 40 -25 40 -14 0 -25 -4 -25 -10 0 -5 7 -10 15 -10 26 0 17 -37 -10 -42
-23 -5 -25 -2 -25 28 0 23 -5 34 -15 34 -11 0 -14 -13 -13 -57z"/>
<path d="M1542 1210 c1 -38 2 -39 42 -42 29 -2 42 -8 44 -20 3 -15 -4 -18 -32
-18 -25 0 -36 4 -36 15 0 8 -4 15 -10 15 -15 0 -12 -50 3 -52 6 -1 31 -2 54
-3 l42 -2 0 74 0 73 -54 0 -55 0 2 -40z m88 -6 c0 -9 -11 -14 -34 -14 -29 0
-33 3 -31 23 1 12 3 23 4 24 5 8 61 -22 61 -33z"/>
<path d="M1673 1175 c-1 -43 2 -75 7 -75 9 0 15 77 10 123 -1 15 3 17 19 12
12 -4 21 -2 21 4 0 6 -12 11 -27 11 -28 0 -28 0 -30 -75z"/>
<path d="M2000 1175 c0 -66 2 -75 18 -75 16 0 17 8 14 65 -3 51 -1 65 10 65 8
0 19 -5 26 -12 9 -9 12 -7 12 10 0 19 -5 22 -40 22 l-40 0 0 -75z"/>
<path d="M1950 1236 c0 -2 7 -9 15 -16 9 -7 15 -8 15 -2 0 5 -7 12 -15 16 -8
3 -15 4 -15 2z"/>
<path d="M2040 1180 c0 -5 12 -10 26 -10 14 0 23 4 19 10 -3 6 -15 10 -26 10
-10 0 -19 -4 -19 -10z"/>
<path d="M1971 1154 c0 -11 3 -14 6 -6 3 7 2 16 -1 19 -3 4 -6 -2 -5 -13z"/>
<path d="M1800 1141 c0 -25 14 -41 36 -41 28 0 31 17 7 36 -21 16 -43 18 -43
5z"/>
<path d="M2050 1126 c0 -8 4 -17 9 -20 10 -7 23 19 14 28 -11 11 -23 6 -23 -8z"/>
<path d="M2086 1091 c-3 -5 1 -11 9 -14 9 -4 12 -1 8 9 -6 16 -10 17 -17 5z"/>
<path d="M4741 3884 c0 -11 3 -14 6 -6 3 7 2 16 -1 19 -3 4 -6 -2 -5 -13z"/>
<path d="M4812 3835 c0 -16 2 -22 5 -12 2 9 2 23 0 30 -3 6 -5 -1 -5 -18z"/>
<path d="M5035 3850 c-3 -5 -1 -10 4 -10 6 0 11 5 11 10 0 6 -2 10 -4 10 -3 0
-8 -4 -11 -10z"/>
<path d="M4811 3774 c0 -11 3 -14 6 -6 3 7 2 16 -1 19 -3 4 -6 -2 -5 -13z"/>
<path d="M512 3720 c0 -14 2 -19 5 -12 2 6 2 18 0 25 -3 6 -5 1 -5 -13z"/>
<path d="M4837 3720 c-3 -11 -1 -23 4 -26 5 -3 9 6 9 20 0 31 -6 34 -13 6z"/>
<path d="M4962 3700 c0 -19 2 -27 5 -17 2 9 2 25 0 35 -3 9 -5 1 -5 -18z"/>
<path d="M5042 3680 c0 -19 2 -27 5 -17 2 9 2 25 0 35 -3 9 -5 1 -5 -18z"/>
<path d="M511 3594 c0 -11 3 -14 6 -6 3 7 2 16 -1 19 -3 4 -6 -2 -5 -13z"/>
<path d="M512 3550 c0 -14 2 -19 5 -12 2 6 2 18 0 25 -3 6 -5 1 -5 -13z"/>
<path d="M5041 3524 c0 -11 3 -14 6 -6 3 7 2 16 -1 19 -3 4 -6 -2 -5 -13z"/>
<path d="M4834 3504 c-1 -13 2 -21 7 -18 11 6 12 31 2 37 -5 3 -9 -6 -9 -19z"/>
<path d="M5081 3494 c0 -11 3 -14 6 -6 3 7 2 16 -1 19 -3 4 -6 -2 -5 -13z"/>
<path d="M511 3484 c0 -11 3 -14 6 -6 3 7 2 16 -1 19 -3 4 -6 -2 -5 -13z"/>
<path d="M4835 3460 c3 -5 8 -10 11 -10 2 0 4 5 4 10 0 6 -5 10 -11 10 -5 0
-7 -4 -4 -10z"/>
<path d="M4962 3450 c0 -14 2 -19 5 -12 2 6 2 18 0 25 -3 6 -5 1 -5 -13z"/>
<path d="M511 3434 c0 -11 3 -14 6 -6 3 7 2 16 -1 19 -3 4 -6 -2 -5 -13z"/>
<path d="M4961 3404 c0 -11 3 -14 6 -6 3 7 2 16 -1 19 -3 4 -6 -2 -5 -13z"/>
<path d="M4841 3384 c0 -11 3 -14 6 -6 3 7 2 16 -1 19 -3 4 -6 -2 -5 -13z"/>
<path d="M4991 3344 c0 -11 3 -14 6 -6 3 7 2 16 -1 19 -3 4 -6 -2 -5 -13z"/>
<path d="M4831 3315 c0 -35 1 -37 10 -17 6 15 5 30 -1 40 -7 13 -9 8 -9 -23z"/>
<path d="M4812 3210 c0 -19 2 -27 5 -17 2 9 2 25 0 35 -3 9 -5 1 -5 -18z"/>
<path d="M4842 3210 c0 -14 2 -19 5 -12 2 6 2 18 0 25 -3 6 -5 1 -5 -13z"/>
<path d="M140 3179 c0 -5 5 -7 10 -4 6 3 10 8 10 11 0 2 -4 4 -10 4 -5 0 -10
-5 -10 -11z"/>
<path d="M4832 3140 c0 -19 2 -27 5 -17 2 9 2 25 0 35 -3 9 -5 1 -5 -18z"/>
<path d="M4866 3097 c3 -10 9 -15 12 -12 3 3 0 11 -7 18 -10 9 -11 8 -5 -6z"/>
<path d="M4812 3080 c0 -14 2 -19 5 -12 2 6 2 18 0 25 -3 6 -5 1 -5 -13z"/>
<path d="M5081 3084 c0 -11 3 -14 6 -6 3 7 2 16 -1 19 -3 4 -6 -2 -5 -13z"/>
<path d="M4832 3050 c0 -14 2 -19 5 -12 2 6 2 18 0 25 -3 6 -5 1 -5 -13z"/>
<path d="M4811 3034 c0 -11 3 -14 6 -6 3 7 2 16 -1 19 -3 4 -6 -2 -5 -13z"/>
<path d="M4830 2939 c0 -11 4 -18 10 -14 5 3 7 12 3 20 -7 21 -13 19 -13 -6z"/>
<path d="M71 2934 c0 -11 3 -14 6 -6 3 7 2 16 -1 19 -3 4 -6 -2 -5 -13z"/>
<path d="M4942 2900 c0 -14 2 -19 5 -12 2 6 2 18 0 25 -3 6 -5 1 -5 -13z"/>
<path d="M4834 2829 c-1 -44 1 -77 4 -75 8 8 11 131 4 143 -4 7 -8 -24 -8 -68z"/>
<path d="M101 2814 c0 -11 3 -14 6 -6 3 7 2 16 -1 19 -3 4 -6 -2 -5 -13z"/>
<path d="M301 2814 c0 -11 3 -14 6 -6 3 7 2 16 -1 19 -3 4 -6 -2 -5 -13z"/>
<path d="M4831 2724 c0 -11 3 -14 6 -6 3 7 2 16 -1 19 -3 4 -6 -2 -5 -13z"/>
<path d="M4832 2620 c0 -19 2 -27 5 -17 2 9 2 25 0 35 -3 9 -5 1 -5 -18z"/>
<path d="M4831 2484 c0 -11 3 -14 6 -6 3 7 2 16 -1 19 -3 4 -6 -2 -5 -13z"/>
<path d="M655 2470 c-3 -5 -1 -10 4 -10 6 0 11 5 11 10 0 6 -2 10 -4 10 -3 0
-8 -4 -11 -10z"/>
<path d="M4833 2410 c0 -25 2 -35 4 -22 2 12 2 32 0 45 -2 12 -4 2 -4 -23z"/>
<path d="M655 2400 c3 -5 8 -10 11 -10 2 0 4 5 4 10 0 6 -5 10 -11 10 -5 0 -7
-4 -4 -10z"/>
<path d="M4832 2335 c0 -16 2 -22 5 -12 2 9 2 23 0 30 -3 6 -5 -1 -5 -18z"/>
<path d="M4827 2283 c-4 -3 -6 -236 -6 -517 1 -310 5 -489 10 -456 7 46 11
980 4 980 -1 0 -5 -3 -8 -7z"/>
<path d="M231 2174 c0 -11 3 -14 6 -6 3 7 2 16 -1 19 -3 4 -6 -2 -5 -13z"/>
<path d="M260 2160 c0 -5 5 -10 11 -10 5 0 7 5 4 10 -3 6 -8 10 -11 10 -2 0
-4 -4 -4 -10z"/>
<path d="M655 2150 c-3 -5 -1 -10 4 -10 6 0 11 5 11 10 0 6 -2 10 -4 10 -3 0
-8 -4 -11 -10z"/>
<path d="M655 2050 c3 -5 8 -10 11 -10 2 0 4 5 4 10 0 6 -5 10 -11 10 -5 0 -7
-4 -4 -10z"/>
<path d="M655 1961 c-3 -5 -2 -12 3 -15 5 -3 9 1 9 9 0 17 -3 19 -12 6z"/>
<path d="M512 1855 c0 -16 2 -22 5 -12 2 9 2 23 0 30 -3 6 -5 -1 -5 -18z"/>
<path d="M655 1790 c-3 -5 -1 -10 4 -10 6 0 11 5 11 10 0 6 -2 10 -4 10 -3 0
-8 -4 -11 -10z"/>
<path d="M231 1694 c0 -11 3 -14 6 -6 3 7 2 16 -1 19 -3 4 -6 -2 -5 -13z"/>
<path d="M655 1680 c3 -5 8 -10 11 -10 2 0 4 5 4 10 0 6 -5 10 -11 10 -5 0 -7
-4 -4 -10z"/>
<path d="M657 1639 c4 -13 8 -18 11 -10 2 7 -1 18 -6 23 -8 8 -9 4 -5 -13z"/>
<path d="M512 1130 c0 -14 2 -19 5 -12 2 6 2 18 0 25 -3 6 -5 1 -5 -13z"/>
<path d="M362 1110 c0 -14 2 -19 5 -12 2 6 2 18 0 25 -3 6 -5 1 -5 -13z"/>
<path d="M511 1034 c0 -11 3 -14 6 -6 3 7 2 16 -1 19 -3 4 -6 -2 -5 -13z"/>
<path d="M4831 974 c0 -11 3 -14 6 -6 3 7 2 16 -1 19 -3 4 -6 -2 -5 -13z"/>
<path d="M1428 943 c6 -2 18 -2 25 0 6 3 1 5 -13 5 -14 0 -19 -2 -12 -5z"/>
<path d="M2068 943 c7 -3 16 -2 19 1 4 3 -2 6 -13 5 -11 0 -14 -3 -6 -6z"/>
<path d="M2108 943 c7 -3 16 -2 19 1 4 3 -2 6 -13 5 -11 0 -14 -3 -6 -6z"/>
<path d="M2508 943 c7 -3 16 -2 19 1 4 3 -2 6 -13 5 -11 0 -14 -3 -6 -6z"/>
<path d="M1737 755 l2 -150 855 -3 856 -2 0 152 0 153 -858 0 -857 0 2 -150z
m782 111 c9 -7 12 -7 8 0 -4 7 131 11 449 12 l455 1 -2 -125 -1 -124 -369 0
c-203 1 -375 -2 -381 -6 -7 -4 -13 -3 -15 2 -2 5 -99 7 -240 4 -153 -3 -241
-1 -245 5 -5 7 -8 7 -8 0 0 -6 -73 -9 -205 -7 l-205 3 0 125 0 125 373 -2
c259 -1 376 -5 386 -13z"/>
<path d="M2048 828 c-2 -7 -4 -40 -4 -73 l1 -60 65 1 65 0 3 72 3 72 -64 0
c-43 0 -66 -4 -69 -12z m95 -27 c4 0 7 -5 7 -10 0 -11 -70 -20 -76 -9 -12 19
18 28 69 19z m0 -67 c-7 -18 -64 -16 -71 4 -2 8 9 12 37 12 32 0 39 -3 34 -16z"/>
<path d="M2194 824 c3 -9 6 -40 6 -69 l0 -53 70 -4 c79 -3 80 -3 80 71 0 45 2
48 23 44 22 -4 23 -8 19 -64 -4 -55 -3 -59 18 -59 20 0 21 4 19 57 -3 57 -3
57 26 58 20 0 31 6 33 17 3 16 -11 17 -148 17 -134 1 -151 -1 -146 -15z m106
-54 c0 -38 -2 -40 -30 -40 -28 0 -30 2 -30 40 0 38 2 40 30 40 28 0 30 -2 30
-40z"/>
<path d="M2260 770 c0 -5 5 -10 11 -10 5 0 7 5 4 10 -3 6 -8 10 -11 10 -2 0
-4 -4 -4 -10z"/>
<path d="M2529 808 c0 -18 -2 -50 -4 -70 -4 -38 -4 -38 34 -38 21 0 52 -3 69
-6 30 -6 31 -6 30 36 l0 41 -37 -3 c-33 -3 -36 -1 -33 22 2 14 9 31 14 38 8 9
1 12 -31 12 -40 0 -41 -1 -42 -32z m41 0 c0 -7 -5 -20 -10 -28 -8 -12 -10 -9
-10 13 0 15 5 27 10 27 6 0 10 -6 10 -12z m30 -71 c0 -8 -11 -12 -27 -11 -36
3 -35 2 -28 14 9 15 55 12 55 -3z"/>
<path d="M2666 773 c4 -38 9 -70 11 -73 2 -2 34 -5 71 -5 l67 0 3 73 3 72 -81
0 -81 0 7 -67z m36 -15 c2 -21 1 -38 -3 -38 -8 0 -17 89 -9 97 5 5 7 -2 12
-59z m72 43 c3 -5 3 -23 0 -40 -5 -24 -12 -31 -30 -31 -15 0 -24 6 -24 15 0 9
7 15 16 13 10 -2 19 3 22 11 3 10 -1 12 -17 8 -16 -4 -21 -1 -21 14 0 13 7 19
24 19 14 0 27 -4 30 -9z"/>
<path d="M2832 818 c2 -13 6 -22 11 -20 4 1 27 2 52 2 35 0 45 4 45 17 0 9 3
14 6 10 4 -3 7 -31 7 -62 0 -31 -3 -59 -7 -62 -3 -4 -6 2 -6 11 0 15 -7 17
-40 13 -29 -3 -40 -1 -40 9 0 10 13 14 40 14 29 0 40 4 40 15 0 11 -12 15 -50
15 -49 0 -50 -1 -50 -29 0 -16 -3 -37 -6 -45 -6 -15 7 -16 122 -14 113 3 129
5 132 21 3 14 -5 17 -53 17 -41 0 -55 3 -52 13 2 8 23 11 61 10 73 -3 73 20 0
25 -27 2 -53 8 -59 14 -7 7 9 9 53 5 60 -5 62 -4 62 19 l0 24 -136 0 c-135 0
-135 0 -132 -22z"/>
<path d="M3412 780 c0 -14 2 -19 5 -12 2 6 2 18 0 25 -3 6 -5 1 -5 -13z"/>
<path d="M3412 720 c0 -14 2 -19 5 -12 2 6 2 18 0 25 -3 6 -5 1 -5 -13z"/>
<path d="M40 880 c-9 -6 -10 -10 -3 -10 6 0 15 5 18 10 8 12 4 12 -15 0z"/>
<path d="M460 706 c0 -104 7 -166 19 -166 3 0 6 61 6 135 0 101 -3 135 -12
135 -10 0 -13 -27 -13 -104z"/>
<path d="M4637 573 l-37 -38 -398 -5 -397 -5 402 -3 403 -2 36 35 c19 19 34
40 32 45 -2 6 -20 -7 -41 -27z"/>
<path d="M505 531 c6 -11 45 -10 45 1 0 4 -12 8 -26 8 -14 0 -23 -4 -19 -9z"/>
<path d="M933 523 c126 -2 328 -2 450 0 122 1 20 2 -228 2 -247 0 -347 -1
-222 -2z"/>
<path d="M4658 523 c7 -3 16 -2 19 1 4 3 -2 6 -13 5 -11 0 -14 -3 -6 -6z"/>
<path d="M1968 203 c6 -2 18 -2 25 0 6 3 1 5 -13 5 -14 0 -19 -2 -12 -5z"/>
</g>
</svg>
