<?xml version="1.0" standalone="no"?>
<!DOCTYPE svg PUBLIC "-//W3C//DTD SVG 20010904//EN"
 "http://www.w3.org/TR/2001/REC-SVG-20010904/DTD/svg10.dtd">
<svg version="1.0" xmlns="http://www.w3.org/2000/svg"
 width="512.000000pt" height="512.000000pt" viewBox="0 0 512.000000 512.000000"
 preserveAspectRatio="xMidYMid meet">
<metadata>
Created by potrace 1.16, written by Peter Selinger 2001-2019
</metadata>
<g transform="translate(0.000000,512.000000) scale(0.100000,-0.100000)"
fill="#000000" stroke="none">
<path d="M230 5111 c8 -6 18 -7 22 -5 4 3 8 0 8 -6 0 -18 53 -70 63 -63 6 4 7
1 2 -6 -6 -11 24 -51 40 -51 15 0 -1 26 -51 80 -35 37 -65 60 -78 60 -17 0
-18 -2 -6 -9z"/>
<path d="M1093 5103 c8 -10 93 -171 187 -358 217 -428 221 -437 226 -432 7 7
-308 651 -373 765 -14 23 -32 42 -41 42 -14 0 -14 -2 1 -17z"/>
<path d="M1320 5112 c0 -5 6 -22 14 -38 27 -56 123 -289 141 -344 10 -30 43
-109 73 -175 30 -66 73 -163 97 -215 23 -52 75 -162 114 -245 40 -82 81 -169
93 -193 11 -24 22 -41 25 -38 3 3 -2 21 -11 40 -9 19 -16 37 -16 41 0 4 -25
60 -56 124 -48 98 -95 199 -134 286 -5 11 -24 54 -43 95 -36 80 -97 231 -171
420 -59 154 -104 250 -116 250 -6 0 -10 -4 -10 -8z"/>
<path d="M1892 5100 c0 -14 2 -19 5 -12 2 6 2 18 0 25 -3 6 -5 1 -5 -13z"/>
<path d="M1972 5085 c0 -22 4 -53 8 -70 7 -27 8 -28 8 -5 0 14 -3 45 -7 70
l-8 45 -1 -40z"/>
<path d="M2161 5104 c0 -11 3 -14 6 -6 3 7 2 16 -1 19 -3 4 -6 -2 -5 -13z"/>
<path d="M2343 5098 c3 -13 8 -93 12 -178 3 -85 8 -184 10 -220 5 -65 31 -490
39 -630 3 -41 9 -155 14 -253 5 -98 13 -181 17 -185 7 -6 1 213 -10 403 -8
121 -33 623 -40 770 -11 267 -16 315 -32 315 -11 0 -14 -7 -10 -22z"/>
<path d="M2495 4998 c2 -68 10 -323 16 -568 6 -245 15 -465 20 -490 5 -30 7 3
4 100 -2 80 -7 300 -10 490 -7 424 -14 590 -26 590 -5 0 -7 -51 -4 -122z"/>
<path d="M2574 4985 c0 -77 2 -107 3 -67 2 40 2 103 0 140 -2 37 -3 4 -3 -73z"/>
<path d="M2602 4843 c-2 -396 -14 -897 -21 -903 -3 -3 -7 -189 -8 -415 -1
-323 1 -377 7 -255 27 491 51 1850 33 1850 -6 0 -10 -102 -11 -277z"/>
<path d="M2786 4998 c-17 -327 -36 -804 -34 -898 1 -105 1 -105 8 40 4 80 13
280 19 445 7 165 16 353 19 418 4 64 4 117 1 117 -3 0 -9 -55 -13 -122z"/>
<path d="M2896 4979 c-10 -77 -16 -142 -14 -144 3 -3 10 39 17 93 7 53 16 113
20 133 5 21 5 42 2 48 -4 5 -15 -53 -25 -130z"/>
<path d="M2975 5043 c-3 -43 -11 -114 -16 -158 -5 -44 -9 -116 -9 -160 -1 -44
-7 -109 -15 -145 -8 -36 -14 -90 -13 -120 1 -52 2 -53 5 -10 2 25 10 80 18
124 8 43 15 109 15 147 0 37 7 120 15 184 19 144 24 215 14 215 -4 0 -10 -35
-14 -77z"/>
<path d="M3027 5113 c-7 -12 -39 -281 -35 -293 2 -6 12 59 24 144 11 86 19
156 17 156 -1 0 -4 -3 -6 -7z"/>
<path d="M3081 5043 c-36 -221 -60 -402 -60 -438 1 -22 14 48 30 155 16 107
35 228 44 269 17 85 18 91 7 91 -5 0 -14 -35 -21 -77z"/>
<path d="M3272 5038 c-30 -118 -27 -135 4 -24 13 49 23 94 21 100 -2 6 -13
-29 -25 -76z"/>
<path d="M3326 5094 c-4 -14 -5 -29 -2 -31 3 -3 8 7 12 21 3 15 4 29 1 32 -2
3 -8 -7 -11 -22z"/>
<path d="M3460 4972 c-24 -81 -77 -248 -117 -371 -41 -123 -72 -229 -70 -235
5 -14 247 719 247 747 0 4 -3 7 -7 7 -5 0 -28 -67 -53 -148z"/>
<path d="M3536 5073 c-47 -159 -135 -429 -180 -558 -58 -164 -72 -215 -59
-215 10 0 170 478 268 798 4 13 2 22 -4 22 -6 0 -17 -21 -25 -47z"/>
<path d="M3763 5093 c-6 -16 -27 -66 -46 -113 -20 -47 -55 -132 -77 -190 -23
-58 -50 -123 -59 -145 -10 -22 -35 -85 -56 -140 -21 -55 -42 -106 -48 -113 -7
-9 -7 -16 0 -23 14 -14 18 -6 87 166 30 77 96 239 145 359 50 121 91 221 91
223 0 2 -6 3 -13 3 -6 0 -17 -12 -24 -27z"/>
<path d="M3973 5017 c-53 -102 -135 -258 -197 -372 -18 -33 -51 -94 -73 -135
-22 -41 -59 -110 -83 -154 -23 -43 -37 -75 -31 -72 6 4 11 5 11 3 0 -8 -35
-73 -62 -116 -15 -25 -28 -53 -28 -62 0 -10 -4 -19 -8 -21 -4 -1 -21 -30 -37
-63 -16 -33 -41 -81 -57 -106 -15 -25 -28 -52 -28 -60 0 -8 10 4 21 26 12 22
36 65 54 96 18 30 47 87 65 125 18 38 44 86 58 106 13 21 25 50 26 65 1 16 19
60 40 98 22 39 73 131 114 205 110 197 284 540 275 540 -4 0 -32 -46 -60 -103z"/>
<path d="M4109 5052 c-89 -168 -145 -273 -187 -347 -24 -44 -65 -118 -90 -165
-26 -47 -50 -89 -54 -95 -22 -26 -82 -138 -170 -315 -53 -107 -112 -219 -132
-247 -20 -29 -36 -58 -36 -65 0 -29 87 119 179 302 98 197 125 246 191 355 20
33 53 94 75 135 21 41 53 98 70 125 49 78 207 385 198 385 -4 0 -24 -30 -44
-68z"/>
<path d="M4688 5076 c-18 -24 -52 -66 -75 -93 -57 -67 -261 -316 -412 -503
-47 -58 -88 -107 -91 -110 -3 -3 -63 -75 -134 -160 -71 -85 -138 -166 -150
-180 -50 -57 -125 -160 -131 -180 -3 -11 -10 -20 -14 -20 -4 0 -29 -30 -56
-67 -27 -38 -56 -73 -64 -79 -7 -6 -12 -16 -10 -23 3 -7 18 6 34 28 115 154
242 314 389 489 94 112 185 221 201 241 64 81 119 148 160 196 23 28 78 93
121 145 43 52 97 118 119 145 23 28 65 79 94 115 28 36 58 73 66 83 12 14 12
17 1 17 -7 0 -29 -20 -48 -44z"/>
<path d="M4830 5110 c0 -5 -7 -18 -16 -27 -56 -63 -84 -96 -124 -143 -25 -30
-52 -61 -60 -70 -15 -15 -100 -116 -130 -153 -8 -10 -25 -30 -37 -43 -13 -14
-23 -30 -23 -35 0 -6 -4 -8 -9 -4 -6 3 -15 -4 -21 -15 -6 -11 -7 -20 -2 -20
12 0 86 79 202 215 56 66 125 146 153 179 29 32 54 63 56 69 2 6 15 21 29 34
24 22 24 23 3 23 -11 0 -21 -4 -21 -10z"/>
<path d="M3708 5065 c-9 -25 -12 -45 -8 -45 8 0 33 80 27 86 -2 3 -11 -16 -19
-41z"/>
<path d="M750 5096 c0 -8 82 -126 91 -132 22 -13 16 4 -24 69 -23 37 -47 67
-54 67 -7 0 -13 -2 -13 -4z"/>
<path d="M3191 5084 c0 -11 3 -14 6 -6 3 7 2 16 -1 19 -3 4 -6 -2 -5 -13z"/>
<path d="M2072 5070 c0 -14 2 -19 5 -12 2 6 2 18 0 25 -3 6 -5 1 -5 -13z"/>
<path d="M3221 5074 c0 -11 3 -14 6 -6 3 7 2 16 -1 19 -3 4 -6 -2 -5 -13z"/>
<path d="M4318 5037 c-34 -51 -87 -148 -74 -136 3 3 30 45 61 94 60 95 70 129
13 42z"/>
<path d="M490 5076 c0 -2 7 -9 15 -16 9 -7 15 -8 15 -2 0 5 -7 12 -15 16 -8 3
-15 4 -15 2z"/>
<path d="M1390 5076 c0 -2 7 -9 15 -16 13 -11 14 -10 9 4 -5 14 -24 23 -24 12z"/>
<path d="M1661 5054 c0 -11 3 -14 6 -6 3 7 2 16 -1 19 -3 4 -6 -2 -5 -13z"/>
<path d="M3807 5050 c-3 -11 -1 -20 4 -20 5 0 9 9 9 20 0 11 -2 20 -4 20 -2 0
-6 -9 -9 -20z"/>
<path d="M1812 5040 c0 -14 2 -19 5 -12 2 6 2 18 0 25 -3 6 -5 1 -5 -13z"/>
<path d="M3171 5014 c-18 -71 -24 -99 -18 -94 7 7 37 123 32 128 -2 2 -8 -13
-14 -34z"/>
<path d="M3311 5034 c0 -11 3 -14 6 -6 3 7 2 16 -1 19 -3 4 -6 -2 -5 -13z"/>
<path d="M3886 5033 c-6 -14 -5 -15 5 -6 7 7 10 15 7 18 -3 3 -9 -2 -12 -12z"/>
<path d="M3222 4963 c-11 -43 -30 -109 -41 -147 -11 -38 -19 -71 -17 -73 4 -5
49 138 71 226 9 35 14 65 12 67 -2 3 -14 -30 -25 -73z"/>
<path d="M3371 5018 c-16 -43 -22 -68 -18 -68 3 0 12 20 20 45 16 45 14 65 -2
23z"/>
<path d="M4440 5010 c-12 -16 -18 -30 -13 -30 4 0 16 14 25 30 22 39 15 39
-12 0z"/>
<path d="M1420 5020 c1 -8 8 -26 16 -40 l15 -25 -6 30 c-7 33 -25 59 -25 35z"/>
<path d="M1671 5014 c0 -11 3 -14 6 -6 3 7 2 16 -1 19 -3 4 -6 -2 -5 -13z"/>
<path d="M2081 5014 c0 -11 3 -14 6 -6 3 7 2 16 -1 19 -3 4 -6 -2 -5 -13z"/>
<path d="M2111 5004 c0 -11 3 -14 6 -6 3 7 2 16 -1 19 -3 4 -6 -2 -5 -13z"/>
<path d="M3131 5004 c0 -11 3 -14 6 -6 3 7 2 16 -1 19 -3 4 -6 -2 -5 -13z"/>
<path d="M2222 4985 c0 -16 2 -22 5 -12 2 9 2 23 0 30 -3 6 -5 -1 -5 -18z"/>
<path d="M3282 4938 c-12 -39 -20 -73 -18 -76 3 -2 14 28 26 68 12 40 20 74
17 76 -2 2 -14 -28 -25 -68z"/>
<path d="M3862 4985 c-17 -37 -14 -45 4 -12 9 16 14 31 11 33 -2 2 -9 -7 -15
-21z"/>
<path d="M1917 4958 c8 -44 13 -48 13 -10 0 17 -4 34 -10 37 -6 4 -7 -6 -3
-27z"/>
<path d="M2840 4973 c0 -10 -3 -43 -6 -73 -4 -30 -3 -52 1 -48 9 8 19 138 11
138 -3 0 -6 -8 -6 -17z"/>
<path d="M1992 4955 c0 -16 4 -43 8 -60 l8 -30 0 30 c0 17 -4 44 -8 60 l-8 30
0 -30z"/>
<path d="M2091 4964 c0 -11 3 -14 6 -6 3 7 2 16 -1 19 -3 4 -6 -2 -5 -13z"/>
<path d="M3121 4973 c-1 -6 -4 -20 -7 -30 -5 -17 -5 -17 6 0 6 10 9 23 6 30
-3 9 -5 9 -5 0z"/>
<path d="M370 4964 c0 -10 67 -92 115 -140 58 -58 157 -165 255 -274 145 -162
284 -302 288 -290 2 5 -25 41 -60 78 -36 37 -109 117 -164 177 -54 61 -103
115 -109 121 -5 6 -72 75 -147 152 -76 78 -138 146 -138 151 0 6 -9 15 -20 21
-11 6 -20 8 -20 4z"/>
<path d="M2185 4925 c2 -16 7 -81 11 -142 4 -62 9 -113 13 -113 9 0 -8 230
-19 260 -9 24 -10 23 -5 -5z"/>
<path d="M450 4931 c0 -6 4 -13 10 -16 6 -3 7 1 4 9 -7 18 -14 21 -14 7z"/>
<path d="M870 4934 c0 -15 84 -146 96 -151 14 -5 114 -157 114 -173 0 -6 -5
-10 -11 -10 -5 0 -8 -4 -4 -10 3 -5 11 -7 18 -5 7 3 42 -42 81 -102 39 -58 72
-101 74 -95 2 6 -19 44 -46 84 -27 40 -79 123 -116 185 -36 62 -72 116 -80
120 -13 8 -54 68 -87 127 -15 29 -39 46 -39 30z"/>
<path d="M4377 4922 c-19 -20 -23 -37 -7 -27 10 6 33 45 27 45 -2 0 -11 -8
-20 -18z"/>
<path d="M2101 4914 c0 -11 3 -14 6 -6 3 7 2 16 -1 19 -3 4 -6 -2 -5 -13z"/>
<path d="M3831 4904 c0 -11 3 -14 6 -6 3 7 2 16 -1 19 -3 4 -6 -2 -5 -13z"/>
<path d="M3135 4870 c-4 -23 -5 -43 -2 -46 2 -3 7 14 11 37 4 23 5 44 2 46 -2
2 -7 -14 -11 -37z"/>
<path d="M486 4888 c12 -22 47 -58 56 -58 5 0 -3 11 -17 25 -14 14 -25 30 -25
35 0 6 -5 10 -11 10 -5 0 -7 -6 -3 -12z"/>
<path d="M2105 4880 c3 -5 8 -10 11 -10 2 0 4 5 4 10 0 6 -5 10 -11 10 -5 0
-7 -4 -4 -10z"/>
<path d="M3316 4875 c-3 -9 -6 -24 -5 -33 0 -9 5 -4 10 12 9 32 6 48 -5 21z"/>
<path d="M4209 4853 c-12 -21 -37 -56 -55 -78 -17 -22 -39 -53 -49 -70 -16
-28 -16 -28 14 5 40 45 124 170 118 176 -3 3 -15 -12 -28 -33z"/>
<path d="M3810 4869 c0 -5 5 -7 10 -4 6 3 10 8 10 11 0 2 -4 4 -10 4 -5 0 -10
-5 -10 -11z"/>
<path d="M4340 4869 c0 -5 5 -7 10 -4 6 3 10 8 10 11 0 2 -4 4 -10 4 -5 0 -10
-5 -10 -11z"/>
<path d="M1481 4854 c0 -11 3 -14 6 -6 3 7 2 16 -1 19 -3 4 -6 -2 -5 -13z"/>
<path d="M1942 4835 c0 -16 2 -22 5 -12 2 9 2 23 0 30 -3 6 -5 -1 -5 -18z"/>
<path d="M2116 4799 c9 -100 24 -152 19 -64 -2 39 -9 84 -14 100 -8 23 -9 15
-5 -36z"/>
<path d="M2231 4844 c0 -11 3 -14 6 -6 3 7 2 16 -1 19 -3 4 -6 -2 -5 -13z"/>
<path d="M2012 4820 c0 -19 2 -27 5 -17 2 9 2 25 0 35 -3 9 -5 1 -5 -18z"/>
<path d="M3227 4763 c-36 -121 -47 -166 -42 -171 2 -2 9 16 15 39 6 24 22 82
36 128 14 45 23 85 21 87 -2 2 -16 -35 -30 -83z"/>
<path d="M4301 4819 c-13 -17 -21 -32 -19 -35 3 -2 17 11 32 31 15 19 23 35
19 34 -4 0 -19 -14 -32 -30z"/>
<path d="M3206 4815 c-3 -9 -6 -22 -5 -28 0 -7 5 -1 10 12 5 13 8 26 5 28 -2
2 -6 -3 -10 -12z"/>
<path d="M4078 4788 c-14 -24 -53 -92 -87 -153 -75 -133 -261 -424 -317 -497
-44 -57 -108 -167 -101 -174 2 -2 17 20 32 48 33 61 61 100 126 178 52 62 182
267 182 287 0 7 3 13 7 13 6 0 27 35 119 200 52 93 72 133 68 136 -3 3 -16
-14 -29 -38z"/>
<path d="M1507 4773 c9 -26 18 -42 21 -35 4 12 -24 82 -33 82 -2 0 3 -21 12
-47z"/>
<path d="M2872 4790 c0 -19 2 -27 5 -17 2 9 2 25 0 35 -3 9 -5 1 -5 -18z"/>
<path d="M3296 4805 c-3 -9 -6 -22 -5 -28 0 -7 5 -1 10 12 5 13 8 26 5 28 -2
2 -6 -3 -10 -12z"/>
<path d="M1957 4755 c5 -49 10 -63 16 -54 2 2 -2 27 -9 54 l-13 50 6 -50z"/>
<path d="M2996 4759 c-13 -79 -26 -222 -21 -227 3 -3 5 -1 5 4 0 5 7 63 15
129 7 66 12 121 10 123 -2 2 -6 -11 -9 -29z"/>
<path d="M2022 4745 c0 -16 2 -22 5 -12 2 9 2 23 0 30 -3 6 -5 -1 -5 -18z"/>
<path d="M3321 4758 c0 -9 -4 -25 -7 -35 -5 -17 -5 -17 6 0 6 10 9 25 7 35 -4
15 -5 15 -6 0z"/>
<path d="M2823 4710 c0 -30 2 -43 4 -27 2 15 2 39 0 55 -2 15 -4 2 -4 -28z"/>
<path d="M3905 4749 c-4 -6 -5 -12 -2 -15 2 -3 7 2 10 11 7 17 1 20 -8 4z"/>
<path d="M1240 4739 c0 -5 5 -7 10 -4 6 3 10 8 10 11 0 2 -4 4 -10 4 -5 0 -10
-5 -10 -11z"/>
<path d="M3216 4599 c-56 -179 -60 -196 -52 -188 10 10 107 321 102 326 -3 3
-25 -60 -50 -138z"/>
<path d="M4230 4725 c-7 -9 -8 -15 -2 -15 5 0 12 7 16 15 3 8 4 15 2 15 -2 0
-9 -7 -16 -15z"/>
<path d="M650 4727 c0 -2 14 -16 31 -33 16 -16 28 -22 24 -14 -5 13 -55 56
-55 47z"/>
<path d="M1207 4723 c-12 -12 -7 -22 8 -17 8 4 15 10 15 15 0 11 -14 12 -23 2z"/>
<path d="M3181 4714 c0 -11 3 -14 6 -6 3 7 2 16 -1 19 -3 4 -6 -2 -5 -13z"/>
<path d="M3151 4704 c0 -11 3 -14 6 -6 3 7 2 16 -1 19 -3 4 -6 -2 -5 -13z"/>
<path d="M2032 4685 c0 -16 2 -22 5 -12 2 9 2 23 0 30 -3 6 -5 -1 -5 -18z"/>
<path d="M3301 4684 c0 -11 3 -14 6 -6 3 7 2 16 -1 19 -3 4 -6 -2 -5 -13z"/>
<path d="M3935 4669 c-8 -19 -20 -41 -25 -49 -6 -8 -26 -44 -47 -80 -20 -36
-49 -87 -64 -115 -16 -27 -28 -57 -28 -65 0 -8 4 -5 9 8 5 12 18 32 29 43 11
12 25 35 32 53 7 17 16 33 19 36 12 10 100 193 95 198 -2 3 -12 -10 -20 -29z"/>
<path d="M1972 4665 c0 -16 2 -22 5 -12 2 9 2 23 0 30 -3 6 -5 -1 -5 -18z"/>
<path d="M2852 4665 c0 -16 2 -22 5 -12 2 9 2 23 0 30 -3 6 -5 -1 -5 -18z"/>
<path d="M3111 4674 c0 -11 3 -14 6 -6 3 7 2 16 -1 19 -3 4 -6 -2 -5 -13z"/>
<path d="M3163 4644 c-6 -27 -10 -51 -8 -52 6 -6 27 78 23 90 -2 6 -9 -11 -15
-38z"/>
<path d="M1250 4620 c32 -64 50 -82 26 -27 -28 67 -39 87 -48 87 -4 0 5 -27
22 -60z"/>
<path d="M1771 4664 c0 -11 3 -14 6 -6 3 7 2 16 -1 19 -3 4 -6 -2 -5 -13z"/>
<path d="M3641 4664 c0 -11 3 -14 6 -6 3 7 2 16 -1 19 -3 4 -6 -2 -5 -13z"/>
<path d="M4247 4646 c-19 -29 -14 -35 10 -11 8 8 13 20 11 26 -2 7 -12 0 -21
-15z"/>
<path d="M1213 4620 c36 -68 69 -121 73 -117 5 4 -55 110 -81 142 -8 11 -5 0
8 -25z"/>
<path d="M2141 4603 c4 -32 8 -67 8 -77 1 -11 4 -17 7 -13 8 8 -6 147 -15 147
-4 0 -4 -26 0 -57z"/>
<path d="M2213 4625 c0 -22 2 -30 4 -17 2 12 2 30 0 40 -3 9 -5 -1 -4 -23z"/>
<path d="M3286 4634 c-4 -14 -5 -28 -3 -31 3 -2 8 8 11 23 4 14 5 28 3 31 -3
2 -8 -8 -11 -23z"/>
<path d="M3826 4643 c-6 -14 -5 -15 5 -6 7 7 10 15 7 18 -3 3 -9 -2 -12 -12z"/>
<path d="M2040 4615 c0 -19 4 -35 8 -35 4 0 6 16 4 35 -2 19 -6 35 -8 35 -2 0
-4 -16 -4 -35z"/>
<path d="M4031 4627 c-13 -21 -12 -21 5 -5 10 10 16 20 13 22 -3 3 -11 -5 -18
-17z"/>
<path d="M1781 4624 c0 -11 3 -14 6 -6 3 7 2 16 -1 19 -3 4 -6 -2 -5 -13z"/>
<path d="M2812 4610 c0 -19 2 -27 5 -17 2 9 2 25 0 35 -3 9 -5 1 -5 -18z"/>
<path d="M1981 4599 c1 -19 5 -47 10 -64 5 -20 6 -11 3 30 -6 65 -15 89 -13
34z"/>
<path d="M3765 4514 c-68 -143 -68 -152 0 -21 31 60 55 113 53 118 -2 5 -25
-39 -53 -97z"/>
<path d="M1596 4590 c4 -14 7 -31 7 -38 0 -8 4 -9 10 -3 5 5 2 20 -7 37 -15
27 -16 27 -10 4z"/>
<path d="M2251 4594 c0 -11 3 -14 6 -6 3 7 2 16 -1 19 -3 4 -6 -2 -5 -13z"/>
<path d="M2842 4590 c0 -14 2 -19 5 -12 2 6 2 18 0 25 -3 6 -5 1 -5 -13z"/>
<path d="M4335 4543 c-65 -72 -58 -63 -155 -178 -47 -55 -87 -102 -90 -105 -3
-3 -30 -34 -59 -70 -30 -36 -72 -82 -93 -103 -21 -22 -43 -48 -49 -58 -5 -11
-15 -16 -21 -13 -7 4 -8 3 -4 -4 3 -6 -2 -16 -13 -22 -12 -6 -18 -16 -14 -26
3 -9 0 -14 -7 -12 -8 2 -18 -6 -24 -17 -13 -25 -201 -250 -235 -282 -26 -25
-26 -39 -1 -20 8 7 49 50 90 97 41 47 80 90 86 96 6 7 39 47 75 89 35 43 100
119 144 169 44 51 97 112 118 136 60 71 121 142 132 154 6 6 44 52 85 101 41
50 78 93 83 96 5 4 8 11 6 17 -2 5 -26 -15 -54 -45z"/>
<path d="M2216 4543 c3 -21 9 -65 14 -98 8 -53 8 -50 3 25 -3 47 -5 91 -6 98
0 6 -4 12 -8 12 -4 0 -5 -17 -3 -37z"/>
<path d="M3141 4564 c0 -11 3 -14 6 -6 3 7 2 16 -1 19 -3 4 -6 -2 -5 -13z"/>
<path d="M3515 4569 c-4 -6 -5 -12 -2 -15 2 -3 7 2 10 11 7 17 1 20 -8 4z"/>
<path d="M2052 4550 c0 -14 2 -19 5 -12 2 6 2 18 0 25 -3 6 -5 1 -5 -13z"/>
<path d="M1901 4544 c0 -11 3 -14 6 -6 3 7 2 16 -1 19 -3 4 -6 -2 -5 -13z"/>
<path d="M2803 4520 c0 -25 2 -35 4 -22 2 12 2 32 0 45 -2 12 -4 2 -4 -23z"/>
<path d="M3013 4510 c0 -30 2 -43 4 -27 2 15 2 39 0 55 -2 15 -4 2 -4 -28z"/>
<path d="M4182 4540 c-7 -11 -8 -20 -3 -20 9 0 24 30 18 36 -1 2 -8 -6 -15
-16z"/>
<path d="M1302 4525 c6 -14 15 -25 20 -25 5 0 1 11 -8 25 -9 14 -18 25 -20 25
-2 0 2 -11 8 -25z"/>
<path d="M2833 4515 c0 -22 2 -30 4 -17 2 12 2 30 0 40 -3 9 -5 -1 -4 -23z"/>
<path d="M3161 4534 c0 -11 3 -14 6 -6 3 7 2 16 -1 19 -3 4 -6 -2 -5 -13z"/>
<path d="M1621 4533 c0 -4 4 -17 9 -28 8 -19 9 -19 9 2 1 12 -3 25 -9 28 -5 3
-10 3 -9 -2z"/>
<path d="M3625 4530 c-3 -5 -1 -10 4 -10 6 0 11 5 11 10 0 6 -2 10 -4 10 -3 0
-8 -4 -11 -10z"/>
<path d="M2062 4495 c0 -16 2 -22 5 -12 2 9 2 23 0 30 -3 6 -5 -1 -5 -18z"/>
<path d="M2955 4440 c-4 -45 -5 -83 -2 -86 3 -3 8 31 12 76 4 45 5 83 2 86 -3
3 -8 -31 -12 -76z"/>
<path d="M2981 4504 c0 -11 3 -14 6 -6 3 7 2 16 -1 19 -3 4 -6 -2 -5 -13z"/>
<path d="M3251 4504 c0 -11 3 -14 6 -6 3 7 2 16 -1 19 -3 4 -6 -2 -5 -13z"/>
<path d="M4349 4503 c-13 -16 -12 -17 4 -4 16 13 21 21 13 21 -2 0 -10 -8 -17
-17z"/>
<path d="M3151 4494 c0 -11 3 -14 6 -6 3 7 2 16 -1 19 -3 4 -6 -2 -5 -13z"/>
<path d="M2002 4480 c0 -14 2 -19 5 -12 2 6 2 18 0 25 -3 6 -5 1 -5 -13z"/>
<path d="M2150 4491 c0 -5 5 -13 10 -16 6 -3 10 -2 10 4 0 5 -4 13 -10 16 -5
3 -10 2 -10 -4z"/>
<path d="M1338 4448 c38 -58 114 -200 143 -268 12 -30 26 -59 31 -65 14 -15
-27 95 -57 155 -37 76 -128 220 -138 220 -4 0 5 -19 21 -42z"/>
<path d="M2670 4480 c0 -5 5 -10 11 -10 5 0 7 5 4 10 -3 6 -8 10 -11 10 -2 0
-4 -4 -4 -10z"/>
<path d="M2715 4480 c4 -6 11 -8 16 -5 14 9 11 15 -7 15 -8 0 -12 -5 -9 -10z"/>
<path d="M3588 4452 c-39 -86 -56 -132 -50 -132 10 0 74 149 70 160 -2 5 -11
-8 -20 -28z"/>
<path d="M3236 4463 c-6 -14 -5 -15 5 -6 7 7 10 15 7 18 -3 3 -9 -2 -12 -12z"/>
<path d="M3112 4450 c0 -14 2 -19 5 -12 2 6 2 18 0 25 -3 6 -5 1 -5 -13z"/>
<path d="M2070 4435 c0 -14 4 -25 9 -25 4 0 6 11 3 25 -2 14 -6 25 -8 25 -2 0
-4 -11 -4 -25z"/>
<path d="M2863 4415 c0 -27 2 -38 4 -22 2 15 2 37 0 50 -2 12 -4 0 -4 -28z"/>
<path d="M4073 4448 c-6 -7 -16 -24 -23 -38 l-13 -25 22 20 c27 24 46 55 33
55 -5 0 -14 -6 -19 -12z"/>
<path d="M1675 4433 c4 -10 10 -26 12 -35 3 -10 9 -18 14 -18 12 0 11 17 -1
25 -5 3 -10 15 -10 26 0 10 -5 19 -11 19 -7 0 -8 -7 -4 -17z"/>
<path d="M3000 4444 c0 -8 -10 -70 -35 -209 -4 -21 -1 -18 8 10 17 52 41 195
33 202 -3 4 -6 2 -6 -3z"/>
<path d="M3461 4434 c0 -11 3 -14 6 -6 3 7 2 16 -1 19 -3 4 -6 -2 -5 -13z"/>
<path d="M2810 4429 c0 -5 5 -7 10 -4 6 3 10 8 10 11 0 2 -4 4 -10 4 -5 0 -10
-5 -10 -11z"/>
<path d="M1143 4417 c6 -15 229 -342 257 -377 11 -14 39 -51 61 -83 23 -32 43
-56 46 -53 3 2 -28 51 -69 108 -40 57 -120 174 -178 260 -58 87 -109 158 -114
158 -4 0 -6 -6 -3 -13z"/>
<path d="M5035 4375 c-39 -30 -94 -74 -124 -97 -29 -24 -63 -50 -75 -58 -61
-42 -133 -96 -147 -112 -9 -10 -21 -18 -27 -18 -6 0 -16 -9 -22 -20 -6 -11
-15 -18 -19 -15 -9 5 -29 -14 -29 -28 0 -5 -3 -11 -6 -14 -3 -4 -6 -2 -6 4 0
8 -8 8 -25 0 -26 -13 -35 -30 -10 -21 8 4 15 1 15 -4 0 -6 -10 -12 -22 -14
-13 -2 -18 -6 -13 -10 15 -9 96 44 91 59 -3 7 0 10 7 7 7 -2 26 9 44 26 18 16
36 30 42 30 5 0 11 3 13 8 2 4 41 36 88 71 114 86 162 123 178 139 8 7 30 25
50 40 21 15 39 29 42 33 3 3 13 8 23 12 16 6 25 37 9 37 -4 0 -39 -25 -77 -55z"/>
<path d="M2081 4384 c0 -11 3 -14 6 -6 3 7 2 16 -1 19 -3 4 -6 -2 -5 -13z"/>
<path d="M3151 4384 c0 -11 3 -14 6 -6 3 7 2 16 -1 19 -3 4 -6 -2 -5 -13z"/>
<path d="M0 4383 c0 -5 24 -23 53 -42 28 -19 69 -46 90 -59 20 -14 40 -22 43
-19 3 3 -7 13 -23 23 -46 28 -108 69 -113 74 -12 12 -50 29 -50 23z"/>
<path d="M2913 4355 c0 -22 2 -30 4 -17 2 12 2 30 0 40 -3 9 -5 -1 -4 -23z"/>
<path d="M3445 4380 c-3 -5 -1 -10 4 -10 6 0 11 5 11 10 0 6 -2 10 -4 10 -3 0
-8 -4 -11 -10z"/>
<path d="M1250 4375 c0 -5 5 -17 10 -25 5 -8 10 -10 10 -5 0 6 -5 17 -10 25
-5 8 -10 11 -10 5z"/>
<path d="M1326 4372 c-3 -6 0 -14 7 -19 8 -4 33 -42 55 -83 23 -41 42 -69 42
-63 0 18 -43 103 -52 103 -4 0 -8 6 -8 13 -1 20 -36 61 -44 49z"/>
<path d="M2242 4355 c0 -16 2 -22 5 -12 2 9 2 23 0 30 -3 6 -5 -1 -5 -18z"/>
<path d="M3642 4337 c-12 -23 -22 -46 -22 -52 0 -5 12 12 26 39 14 26 24 49
22 51 -2 2 -14 -15 -26 -38z"/>
<path d="M1710 4350 c0 -5 5 -10 10 -10 6 0 10 5 10 10 0 6 -4 10 -10 10 -5 0
-10 -4 -10 -10z"/>
<path d="M2032 4340 c0 -14 2 -19 5 -12 2 6 2 18 0 25 -3 6 -5 1 -5 -13z"/>
<path d="M2180 4334 c0 -16 5 -36 10 -44 6 -10 7 -2 3 25 -7 49 -13 58 -13 19z"/>
<path d="M3061 4344 c0 -11 3 -14 6 -6 3 7 2 16 -1 19 -3 4 -6 -2 -5 -13z"/>
<path d="M3135 4348 c-22 -69 -44 -152 -41 -156 3 -2 9 13 15 34 6 22 17 60
25 87 8 26 13 47 10 47 -2 0 -6 -6 -9 -12z"/>
<path d="M3680 4339 c-7 -11 -10 -23 -7 -25 2 -2 9 7 15 21 14 30 7 33 -8 4z"/>
<path d="M2853 4310 c0 -25 2 -35 4 -22 2 12 2 32 0 45 -2 12 -4 2 -4 -23z"/>
<path d="M3261 4334 c0 -11 3 -14 6 -6 3 7 2 16 -1 19 -3 4 -6 -2 -5 -13z"/>
<path d="M3507 4343 c-4 -3 -7 -11 -7 -17 0 -6 5 -5 12 2 6 6 9 14 7 17 -3 3
-9 2 -12 -2z"/>
<path d="M2942 4310 c0 -19 2 -27 5 -17 2 9 2 25 0 35 -3 9 -5 1 -5 -18z"/>
<path d="M2803 4255 c0 -44 2 -61 4 -37 2 23 2 59 0 80 -2 20 -4 1 -4 -43z"/>
<path d="M2882 4305 c0 -16 2 -22 5 -12 2 9 2 23 0 30 -3 6 -5 -1 -5 -18z"/>
<path d="M3225 4319 c-4 -6 -5 -12 -2 -15 2 -3 7 2 10 11 7 17 1 20 -8 4z"/>
<path d="M3051 4304 c0 -11 3 -14 6 -6 3 7 2 16 -1 19 -3 4 -6 -2 -5 -13z"/>
<path d="M3342 4292 c-20 -54 -21 -62 -9 -62 7 0 4 -5 -5 -11 -10 -5 -18 -18
-18 -27 0 -9 -12 -48 -26 -87 -14 -38 -30 -86 -34 -105 -5 -19 -20 -66 -35
-104 -14 -38 -24 -76 -22 -85 3 -13 5 -12 12 4 4 11 30 70 58 130 60 131 126
322 120 346 -8 29 -30 30 -41 1z m-21 -165 c-8 -8 -11 -7 -11 4 0 20 13 34 18
19 3 -7 -1 -17 -7 -23z m-35 -74 c-14 -26 -25 -45 -26 -41 0 12 43 98 48 94 2
-2 -8 -26 -22 -53z"/>
<path d="M1290 4298 c0 -14 91 -160 97 -154 2 1 -19 40 -47 86 -27 46 -50 76
-50 68z"/>
<path d="M1750 4287 c0 -14 5 -29 10 -32 7 -4 8 3 4 22 -9 38 -14 42 -14 10z"/>
<path d="M3725 4299 c-4 -6 -5 -12 -2 -15 2 -3 7 2 10 11 7 17 1 20 -8 4z"/>
<path d="M1516 4280 c3 -14 10 -29 15 -34 14 -16 10 6 -7 34 l-15 25 7 -25z"/>
<path d="M390 4279 c0 -5 5 -7 10 -4 6 3 10 8 10 11 0 2 -4 4 -10 4 -5 0 -10
-5 -10 -11z"/>
<path d="M3211 4283 c-1 -6 -4 -20 -7 -30 -5 -17 -5 -17 6 0 6 10 9 23 6 30
-3 9 -5 9 -5 0z"/>
<path d="M3280 4275 c-8 -9 -8 -15 -2 -15 12 0 26 19 19 26 -2 2 -10 -2 -17
-11z"/>
<path d="M5000 4206 c-63 -45 -162 -115 -219 -156 -110 -78 -126 -111 -19 -39
35 23 65 45 68 49 7 8 195 141 242 171 33 21 54 46 46 55 -2 1 -55 -34 -118
-80z"/>
<path d="M450 4240 c19 -16 43 -36 53 -45 10 -9 21 -14 25 -11 3 3 3 7 1 9 -2
1 -25 19 -51 40 -55 44 -79 50 -28 7z"/>
<path d="M2045 4260 c3 -5 8 -10 11 -10 2 0 4 5 4 10 0 6 -5 10 -11 10 -5 0
-7 -4 -4 -10z"/>
<path d="M951 4252 c-24 -8 -10 -23 17 -18 22 5 35 -1 69 -35 24 -22 47 -38
53 -34 5 3 8 0 5 -7 -4 -14 52 -64 62 -54 4 4 -9 23 -28 44 -20 20 -47 52 -62
70 -15 19 -27 30 -27 26 0 -4 7 -16 17 -26 27 -30 -1 -20 -31 11 -26 27 -45
33 -75 23z"/>
<path d="M3517 4248 c-3 -7 -17 -39 -31 -70 -14 -32 -23 -58 -20 -58 8 0 67
130 61 136 -2 3 -7 -1 -10 -8z"/>
<path d="M3940 4240 c-6 -11 -8 -20 -6 -20 3 0 10 9 16 20 6 11 8 20 6 20 -3
0 -10 -9 -16 -20z"/>
<path d="M2052 4220 c0 -14 2 -19 5 -12 2 6 2 18 0 25 -3 6 -5 1 -5 -13z"/>
<path d="M970 4220 c0 -5 5 -10 10 -10 6 0 10 5 10 10 0 6 -4 10 -10 10 -5 0
-10 -4 -10 -10z"/>
<path d="M2853 4195 c0 -22 2 -30 4 -17 2 12 2 30 0 40 -3 9 -5 -1 -4 -23z"/>
<path d="M1815 4210 c3 -5 8 -10 11 -10 2 0 4 5 4 10 0 6 -5 10 -11 10 -5 0
-7 -4 -4 -10z"/>
<path d="M200 4206 c0 -2 24 -19 53 -37 106 -66 289 -168 272 -152 -27 26 -87
64 -145 93 -36 18 -66 36 -68 41 -2 5 -8 9 -13 9 -5 0 -27 11 -49 25 -39 24
-50 29 -50 21z"/>
<path d="M1550 4200 c0 -8 11 -39 25 -67 30 -65 25 -68 -11 -8 -28 48 -34 54
-34 31 0 -8 21 -42 48 -75 26 -33 67 -96 92 -138 42 -74 59 -98 88 -128 7 -8
16 -24 21 -37 6 -13 10 -17 10 -8 1 9 -20 49 -46 90 -26 41 -79 138 -120 215
-40 77 -73 133 -73 125z"/>
<path d="M1912 4190 c0 -14 2 -19 5 -12 2 6 2 18 0 25 -3 6 -5 1 -5 -13z"/>
<path d="M4399 4193 c-13 -16 -12 -17 4 -4 16 13 21 21 13 21 -2 0 -10 -8 -17
-17z"/>
<path d="M4625 4163 c-28 -25 -83 -76 -123 -112 -41 -36 -88 -79 -105 -95 -18
-16 -34 -30 -37 -30 -3 -1 -4 -5 -2 -9 1 -5 -1 -6 -6 -3 -5 3 -27 -13 -51 -35
-24 -23 -47 -37 -54 -33 -7 4 -9 4 -5 -1 4 -4 2 -17 -4 -28 -10 -19 -8 -19 19
3 17 14 40 32 53 40 12 8 48 36 79 62 31 26 60 48 64 48 5 0 6 4 2 9 -8 15 15
25 28 12 14 -14 27 -14 27 0 0 5 -4 7 -10 4 -5 -3 -10 0 -10 7 0 7 44 54 97
105 54 50 95 94 93 97 -3 2 -28 -16 -55 -41z"/>
<path d="M1001 4183 c8 -9 28 -30 44 -48 153 -159 371 -391 415 -440 73 -81
280 -293 280 -287 0 4 -95 113 -145 168 -5 6 -55 60 -110 120 -248 269 -475
503 -489 504 -5 0 -2 -7 5 -17z"/>
<path d="M1441 4190 c0 -8 6 -24 14 -34 19 -25 19 -9 0 24 -8 14 -14 19 -14
10z"/>
<path d="M2952 4180 c0 -14 2 -19 5 -12 2 6 2 18 0 25 -3 6 -5 1 -5 -13z"/>
<path d="M3121 4184 c0 -11 3 -14 6 -6 3 7 2 16 -1 19 -3 4 -6 -2 -5 -13z"/>
<path d="M3405 4189 c-4 -6 -5 -12 -2 -15 2 -3 7 2 10 11 7 17 1 20 -8 4z"/>
<path d="M1831 4174 c0 -11 3 -14 6 -6 3 7 2 16 -1 19 -3 4 -6 -2 -5 -13z"/>
<path d="M3855 4179 c-4 -6 -5 -12 -2 -15 2 -3 7 2 10 11 7 17 1 20 -8 4z"/>
<path d="M2900 4143 c0 -16 -3 -53 -6 -83 -4 -30 -4 -52 0 -49 9 8 20 159 12
159 -3 0 -6 -12 -6 -27z"/>
<path d="M3727 4163 c-4 -3 -7 -11 -7 -17 0 -6 5 -5 12 2 6 6 9 14 7 17 -3 3
-9 2 -12 -2z"/>
<path d="M4359 4153 c-13 -16 -12 -17 4 -4 16 13 21 21 13 21 -2 0 -10 -8 -17
-17z"/>
<path d="M3167 4131 c-4 -17 -3 -21 5 -13 5 5 8 16 6 23 -3 8 -7 3 -11 -10z"/>
<path d="M3826 4135 c-3 -8 -1 -15 3 -15 5 0 11 7 15 15 3 8 1 15 -3 15 -5 0
-11 -7 -15 -15z"/>
<path d="M1934 4120 c3 -14 6 -34 6 -44 0 -15 3 -17 11 -9 9 9 8 20 -5 45 -14
26 -16 28 -12 8z"/>
<path d="M2941 4124 c0 -11 3 -14 6 -6 3 7 2 16 -1 19 -3 4 -6 -2 -5 -13z"/>
<path d="M3695 4117 c-25 -29 -26 -40 -2 -18 15 14 27 26 27 28 0 7 -16 1 -25
-10z"/>
<path d="M4325 4120 c-3 -5 -1 -10 4 -10 6 0 11 5 11 10 0 6 -2 10 -4 10 -3 0
-8 -4 -11 -10z"/>
<path d="M1220 4113 c0 -5 39 -57 86 -118 115 -149 114 -148 114 -157 0 -4 4
-8 9 -8 20 0 -6 50 -76 142 -89 119 -134 165 -133 141z"/>
<path d="M1445 4093 c10 -16 26 -37 36 -48 16 -18 110 -173 161 -265 61 -110
81 -141 85 -137 4 5 -17 57 -36 87 -5 8 -26 49 -47 90 -47 93 -77 141 -145
230 -52 68 -89 97 -54 43z"/>
<path d="M230 4100 c0 -5 5 -10 10 -10 6 0 10 5 10 10 0 6 -4 10 -10 10 -5 0
-10 -4 -10 -10z"/>
<path d="M3420 4079 c-6 -11 -10 -25 -8 -30 2 -5 8 4 15 21 13 34 9 40 -7 9z"/>
<path d="M3061 4074 c0 -11 3 -14 6 -6 3 7 2 16 -1 19 -3 4 -6 -2 -5 -13z"/>
<path d="M2215 4071 c-3 -5 -1 -12 5 -16 5 -3 10 1 10 9 0 18 -6 21 -15 7z"/>
<path d="M2840 4061 c0 -11 4 -22 9 -25 4 -3 6 6 3 19 -5 30 -12 33 -12 6z"/>
<path d="M2931 4064 c0 -11 3 -14 6 -6 3 7 2 16 -1 19 -3 4 -6 -2 -5 -13z"/>
<path d="M285 4060 c3 -5 10 -10 16 -10 5 0 9 5 9 10 0 6 -7 10 -16 10 -8 0
-12 -4 -9 -10z"/>
<path d="M641 4057 c24 -18 89 -71 187 -151 46 -37 86 -65 90 -62 3 4 2 10 -4
14 -5 4 -67 53 -138 110 -70 56 -133 102 -140 102 -6 0 -4 -6 5 -13z"/>
<path d="M3650 4055 c-7 -9 -10 -18 -7 -21 3 -3 10 4 17 15 13 25 8 27 -10 6z"/>
<path d="M1958 4041 c-5 -17 -2 -29 10 -40 9 -9 17 -29 17 -46 0 -20 5 -29 13
-27 9 2 11 -4 7 -18 -4 -14 -2 -20 8 -20 8 0 18 -14 22 -32 4 -18 9 -35 10
-38 1 -3 6 -21 12 -40 15 -53 85 -222 100 -245 7 -11 13 -30 13 -42 0 -13 5
-23 10 -23 6 0 10 1 10 3 0 10 -34 103 -39 107 -3 3 -19 43 -35 90 -57 169
-100 270 -114 265 -10 -4 -12 2 -7 24 4 19 1 33 -9 43 -8 8 -16 26 -18 39 l-3
24 -7 -24z"/>
<path d="M4390 4045 c-7 -9 -8 -15 -2 -15 5 0 12 7 16 15 3 8 4 15 2 15 -2 0
-9 -7 -16 -15z"/>
<path d="M320 4040 c0 -6 7 -13 16 -17 9 -3 67 -40 128 -81 61 -42 145 -98
186 -126 41 -27 103 -72 138 -99 35 -27 66 -46 69 -43 4 3 4 8 2 10 -26 23
-338 237 -468 321 -25 16 -47 33 -49 37 -5 12 -22 10 -22 -2z"/>
<path d="M1586 4037 c3 -10 9 -15 12 -12 3 3 0 11 -7 18 -10 9 -11 8 -5 -6z"/>
<path d="M2782 4025 c0 -16 2 -22 5 -12 2 9 2 23 0 30 -3 6 -5 -1 -5 -18z"/>
<path d="M3051 4034 c0 -11 3 -14 6 -6 3 7 2 16 -1 19 -3 4 -6 -2 -5 -13z"/>
<path d="M2842 3995 c0 -16 2 -22 5 -12 2 9 2 23 0 30 -3 6 -5 -1 -5 -18z"/>
<path d="M460 4001 c0 -8 42 -38 265 -188 44 -30 92 -66 108 -81 18 -17 31
-22 37 -16 7 7 -18 30 -73 68 -45 32 -136 96 -201 142 -117 83 -136 93 -136
75z"/>
<path d="M2875 3950 c-4 -28 -5 -53 -2 -56 2 -3 7 19 11 47 4 28 5 53 3 56 -3
2 -8 -19 -12 -47z"/>
<path d="M3071 3984 c0 -11 3 -14 6 -6 3 7 2 16 -1 19 -3 4 -6 -2 -5 -13z"/>
<path d="M4186 3991 c-4 -7 -5 -15 -2 -18 9 -9 19 4 14 18 -4 11 -6 11 -12 0z"/>
<path d="M2783 3955 c0 -22 2 -30 4 -17 2 12 2 30 0 40 -3 9 -5 -1 -4 -23z"/>
<path d="M3334 3936 c-12 -25 -17 -43 -13 -40 14 8 41 64 37 75 -2 6 -13 -10
-24 -35z"/>
<path d="M4969 3959 c-23 -19 -23 -20 -2 -10 12 6 25 16 28 21 10 16 -1 12
-26 -11z"/>
<path d="M3675 3918 c-22 -29 -59 -77 -83 -107 -41 -51 -78 -111 -68 -111 2 0
41 51 87 113 46 61 89 118 96 125 12 12 18 32 10 32 -2 0 -21 -24 -42 -52z"/>
<path d="M3637 3916 c-14 -26 -24 -46 -21 -46 7 0 56 82 51 86 -3 3 -16 -15
-30 -40z"/>
<path d="M4201 3947 c-1 -10 -12 -30 -26 -45 -14 -15 -25 -31 -25 -37 1 -5 8
-1 18 10 9 11 24 27 33 35 11 10 13 22 8 35 -7 18 -8 18 -8 2z"/>
<path d="M4750 3937 c-19 -12 -41 -27 -48 -34 -7 -7 -18 -13 -24 -13 -6 0 -9
-3 -6 -6 7 -6 89 35 99 50 4 5 12 5 18 2 6 -4 11 0 11 8 0 20 -7 19 -50 -7z"/>
<path d="M3288 3928 c-26 -32 -23 -57 2 -28 11 13 20 29 20 37 0 17 -2 17 -22
-9z"/>
<path d="M4460 3918 c-19 -16 -60 -43 -90 -61 -30 -17 -59 -35 -65 -39 -5 -5
-35 -28 -66 -51 -31 -23 -96 -73 -144 -111 -47 -37 -89 -65 -92 -62 -8 8 0 16
99 96 50 40 82 73 82 83 -1 11 4 16 14 15 9 -2 18 5 20 15 4 18 3 18 -22 2
-14 -10 -24 -21 -21 -25 3 -4 -11 -21 -31 -36 -82 -64 -144 -119 -144 -126 0
-4 -22 -22 -48 -40 -26 -18 -121 -91 -210 -162 -137 -110 -161 -133 -156 -150
4 -12 8 -22 9 -24 3 -4 36 22 69 54 31 30 123 104 129 104 11 0 187 127 187
135 0 8 -277 -187 -320 -225 -24 -22 -48 -40 -52 -40 -13 0 2 25 24 39 11 7
71 52 132 100 61 48 134 103 163 123 29 20 49 38 46 42 -4 3 -2 6 3 7 5 0 21
2 36 3 15 1 40 13 55 27 15 15 39 35 52 45 13 11 28 24 35 29 6 6 27 22 46 35
19 13 38 29 42 34 4 6 10 7 14 3 4 -4 -1 -17 -12 -29 -19 -22 -19 -23 1 -8 11
8 24 21 28 27 4 7 28 24 52 39 45 26 64 45 24 24 -11 -7 -23 -9 -26 -6 -4 3
11 13 32 22 26 10 40 12 44 5 5 -7 20 1 42 20 24 22 26 25 5 10 -16 -12 -34
-21 -40 -21 -11 1 -6 5 68 66 21 18 34 34 29 37 -4 3 -24 -8 -43 -25z m-150
-128 c0 -5 -5 -10 -11 -10 -5 0 -7 5 -4 10 3 6 8 10 11 10 2 0 4 -4 4 -10z"/>
<path d="M3560 3929 c0 -5 5 -7 10 -4 6 3 10 8 10 11 0 2 -4 4 -10 4 -5 0 -10
-5 -10 -11z"/>
<path d="M4908 3924 c-38 -20 -36 -28 2 -9 17 9 30 18 30 20 0 7 -1 6 -32 -11z"/>
<path d="M2941 3914 c0 -11 3 -14 6 -6 3 7 2 16 -1 19 -3 4 -6 -2 -5 -13z"/>
<path d="M680 3916 c0 -2 7 -9 15 -16 9 -7 15 -8 15 -2 0 5 -7 12 -15 16 -8 3
-15 4 -15 2z"/>
<path d="M3539 3893 c-13 -16 -12 -17 4 -4 9 7 17 15 17 17 0 8 -8 3 -21 -13z"/>
<path d="M3845 3899 c-4 -6 -5 -12 -2 -15 2 -3 7 2 10 11 7 17 1 20 -8 4z"/>
<path d="M4495 3899 c-11 -17 1 -21 15 -4 8 9 8 15 2 15 -6 0 -14 -5 -17 -11z"/>
<path d="M4840 3890 c0 -5 5 -10 10 -10 6 0 10 5 10 10 0 6 -4 10 -10 10 -5 0
-10 -4 -10 -10z"/>
<path d="M2531 3874 c0 -11 3 -14 6 -6 3 7 2 16 -1 19 -3 4 -6 -2 -5 -13z"/>
<path d="M2772 3860 c0 -14 2 -19 5 -12 2 6 2 18 0 25 -3 6 -5 1 -5 -13z"/>
<path d="M2861 3864 c0 -11 3 -14 6 -6 3 7 2 16 -1 19 -3 4 -6 -2 -5 -13z"/>
<path d="M3021 3864 c0 -11 3 -14 6 -6 3 7 2 16 -1 19 -3 4 -6 -2 -5 -13z"/>
<path d="M4633 3864 c-3 -8 -1 -20 6 -27 8 -8 11 -4 11 16 0 30 -7 35 -17 11z"/>
<path d="M3817 3850 c-3 -11 -1 -20 4 -20 5 0 9 2 9 4 0 2 3 11 6 20 3 9 2 16
-4 16 -5 0 -12 -9 -15 -20z"/>
<path d="M3253 3848 c-4 -7 -17 -33 -29 -58 -11 -25 -40 -75 -62 -113 -23 -37
-42 -70 -42 -72 0 -13 31 -3 37 13 4 9 16 33 28 52 67 109 106 190 91 190 -8
0 -18 -6 -23 -12z"/>
<path d="M2811 3834 c0 -11 3 -14 6 -6 3 7 2 16 -1 19 -3 4 -6 -2 -5 -13z"/>
<path d="M4045 3770 c-44 -43 -78 -81 -75 -84 4 -3 39 28 80 69 40 41 77 75
82 75 4 0 8 5 8 10 0 19 -15 8 -95 -70z"/>
<path d="M2842 3775 c-17 -99 -49 -274 -56 -310 -6 -26 -5 -27 4 -7 13 31 72
350 68 371 -2 9 -9 -15 -16 -54z"/>
<path d="M4605 3830 c-3 -5 -1 -10 4 -10 6 0 11 5 11 10 0 6 -2 10 -4 10 -3 0
-8 -4 -11 -10z"/>
<path d="M3350 3819 c0 -5 5 -7 10 -4 6 3 10 8 10 11 0 2 -4 4 -10 4 -5 0 -10
-5 -10 -11z"/>
<path d="M3492 3796 c-12 -18 -22 -36 -22 -41 0 -4 11 9 25 30 15 20 25 39 23
41 -2 1 -13 -12 -26 -30z"/>
<path d="M1440 3815 c0 -5 20 -32 45 -60 24 -27 44 -45 44 -40 0 6 -20 33 -44
60 -25 28 -45 46 -45 40z"/>
<path d="M1665 3810 c3 -5 8 -10 11 -10 2 0 4 5 4 10 0 6 -5 10 -11 10 -5 0
-7 -4 -4 -10z"/>
<path d="M4540 3797 c-14 -12 -37 -30 -50 -40 -16 -11 -9 -10 18 5 42 22 84
58 66 58 -5 0 -20 -11 -34 -23z"/>
<path d="M1905 3801 c-3 -5 -1 -12 5 -16 5 -3 10 1 10 9 0 18 -6 21 -15 7z"/>
<path d="M2802 3770 c0 -14 2 -19 5 -12 2 6 2 18 0 25 -3 6 -5 1 -5 -13z"/>
<path d="M3803 3760 c-7 -10 -9 -21 -5 -24 4 -2 12 7 19 20 13 29 3 32 -14 4z"/>
<path d="M2986 3744 c-4 -14 -5 -28 -3 -31 3 -2 8 8 11 23 4 14 5 28 3 31 -3
2 -8 -8 -11 -23z"/>
<path d="M4460 3712 c-159 -97 -263 -168 -315 -216 -47 -43 -74 -59 -59 -35 8
14 -50 -16 -63 -33 -14 -17 -13 -49 1 -41 6 3 25 17 43 29 17 13 36 24 42 24
6 0 15 9 21 20 6 11 17 20 25 20 7 0 15 4 17 8 4 10 210 154 311 217 76 48 97
65 80 65 -4 0 -51 -26 -103 -58z m-400 -287 c-12 -13 -27 -22 -33 -18 -6 4 -1
14 12 25 34 26 48 22 21 -7z"/>
<path d="M1935 3750 c-3 -5 -1 -10 4 -10 6 0 11 5 11 10 0 6 -2 10 -4 10 -3 0
-8 -4 -11 -10z"/>
<path d="M1811 3734 c0 -11 3 -14 6 -6 3 7 2 16 -1 19 -3 4 -6 -2 -5 -13z"/>
<path d="M2951 3734 c0 -11 3 -14 6 -6 3 7 2 16 -1 19 -3 4 -6 -2 -5 -13z"/>
<path d="M3384 3736 c-12 -13 -51 -85 -41 -76 3 3 18 23 32 44 26 38 31 55 9
32z"/>
<path d="M1012 3731 c2 -5 107 -86 233 -182 127 -95 232 -175 235 -178 14 -17
109 -91 116 -91 5 0 -3 10 -17 23 -15 12 -66 55 -113 96 -98 84 -437 341 -449
341 -5 0 -7 -4 -5 -9z"/>
<path d="M2791 3735 c-1 -5 -8 -53 -16 -105 -8 -52 -14 -108 -14 -125 0 -16 9
26 20 95 10 69 17 130 15 135 -3 7 -5 7 -5 0z"/>
<path d="M4424 3718 l-19 -21 28 18 c28 18 33 25 19 25 -5 0 -17 -10 -28 -22z"/>
<path d="M935 3695 c22 -19 44 -35 50 -35 13 0 -67 69 -80 69 -5 1 8 -15 30
-34z"/>
<path d="M1620 3712 c0 -5 9 -12 21 -15 13 -3 19 -1 16 6 -5 15 -37 22 -37 9z"/>
<path d="M1950 3709 c0 -5 5 -7 10 -4 6 3 10 8 10 11 0 2 -4 4 -10 4 -5 0 -10
-5 -10 -11z"/>
<path d="M4260 3695 c-19 -13 -39 -24 -44 -24 -13 -1 -101 -58 -161 -104 -27
-21 -83 -63 -122 -94 -73 -55 -97 -81 -45 -47 15 9 59 41 97 69 84 62 286 195
296 195 3 0 12 7 19 15 18 22 0 17 -40 -10z"/>
<path d="M1542 3701 c2 -4 20 -28 40 -52 21 -24 68 -80 104 -124 57 -69 431
-455 440 -455 20 0 -21 48 -168 197 -211 214 -194 196 -239 251 -21 25 -36 49
-33 54 3 5 0 7 -7 6 -7 -2 -13 2 -14 7 0 6 -26 37 -58 68 -54 54 -73 68 -65
48z"/>
<path d="M2941 3694 c0 -11 3 -14 6 -6 3 7 2 16 -1 19 -3 4 -6 -2 -5 -13z"/>
<path d="M3025 3700 c-3 -5 -1 -10 4 -10 6 0 11 5 11 10 0 6 -2 10 -4 10 -3 0
-8 -4 -11 -10z"/>
<path d="M3431 3687 c-13 -21 -12 -21 5 -5 10 10 16 20 13 22 -3 3 -11 -5 -18
-17z"/>
<path d="M1021 3674 c13 -14 60 -56 104 -92 44 -37 82 -69 85 -72 3 -3 23 -19
45 -36 22 -16 82 -62 133 -101 51 -40 97 -73 101 -73 4 0 16 -8 27 -18 10 -10
48 -38 84 -62 36 -24 97 -69 135 -100 102 -82 294 -221 314 -226 9 -3 5 3 -9
13 -56 41 -267 207 -295 231 -17 15 -45 39 -63 55 -19 15 -31 27 -28 27 3 0
-4 11 -16 25 -15 18 -25 22 -34 14 -8 -6 -14 -6 -18 0 -3 5 -34 28 -68 52 -34
23 -67 46 -72 51 -6 5 -72 54 -146 110 -74 55 -168 129 -209 164 -75 64 -115
86 -70 38z"/>
<path d="M2971 3684 c0 -11 3 -14 6 -6 3 7 2 16 -1 19 -3 4 -6 -2 -5 -13z"/>
<path d="M1630 3681 c0 -5 5 -13 10 -16 6 -3 10 -2 10 4 0 5 -4 13 -10 16 -5
3 -10 2 -10 -4z"/>
<path d="M3243 3678 c-6 -7 -16 -24 -23 -38 -12 -25 -12 -25 7 -5 18 18 37 55
29 55 -2 0 -8 -6 -13 -12z"/>
<path d="M3383 3663 c-9 -16 -22 -34 -27 -42 -8 -11 -8 -13 0 -8 13 7 56 77
49 77 -3 0 -12 -12 -22 -27z"/>
<path d="M3016 3669 c-2 -8 -32 -90 -65 -183 -34 -93 -60 -171 -58 -173 4 -3
64 150 112 286 14 41 23 76 21 79 -3 3 -8 -1 -10 -9z"/>
<path d="M3493 3633 c-18 -24 -33 -48 -33 -54 0 -5 -4 -7 -10 -4 -5 3 -10 0
-10 -8 0 -8 -16 -35 -35 -61 -20 -25 -32 -46 -27 -46 12 0 158 208 150 214 -2
2 -18 -17 -35 -41z"/>
<path d="M2931 3654 c0 -11 3 -14 6 -6 3 7 2 16 -1 19 -3 4 -6 -2 -5 -13z"/>
<path d="M1000 3654 c0 -8 57 -58 131 -114 47 -36 44 -32 -21 30 -74 70 -110
97 -110 84z"/>
<path d="M3403 3645 c-3 -9 -3 -18 -1 -21 3 -3 8 4 11 16 6 23 -1 27 -10 5z"/>
<path d="M3307 3621 c-9 -16 -17 -33 -17 -38 0 -4 9 7 21 26 11 18 18 35 17
37 -2 2 -12 -10 -21 -25z"/>
<path d="M3899 3613 c-18 -20 -25 -31 -14 -23 38 29 70 60 59 60 -5 0 -26 -17
-45 -37z"/>
<path d="M2886 3509 c-21 -66 -36 -122 -34 -125 3 -2 22 50 42 117 21 66 36
122 34 125 -3 2 -22 -50 -42 -117z"/>
<path d="M3445 3620 c-3 -5 -1 -10 4 -10 6 0 11 5 11 10 0 6 -2 10 -4 10 -3 0
-8 -4 -11 -10z"/>
<path d="M3675 3620 c3 -5 8 -10 11 -10 2 0 4 5 4 10 0 6 -5 10 -11 10 -5 0
-7 -4 -4 -10z"/>
<path d="M2430 3604 c0 -8 5 -12 10 -9 6 4 8 11 5 16 -9 14 -15 11 -15 -7z"/>
<path d="M3425 3589 c-4 -6 -5 -12 -2 -15 2 -3 7 2 10 11 7 17 1 20 -8 4z"/>
<path d="M4329 3573 c-13 -16 -12 -17 4 -4 9 7 17 15 17 17 0 8 -8 3 -21 -13z"/>
<path d="M80 3570 c0 -5 5 -10 11 -10 5 0 7 5 4 10 -3 6 -8 10 -11 10 -2 0 -4
-4 -4 -10z"/>
<path d="M830 3560 c38 -30 111 -72 116 -67 6 5 -118 87 -132 87 -5 0 2 -9 16
-20z"/>
<path d="M2438 3555 c2 -14 6 -25 8 -25 2 0 4 11 4 25 0 14 -4 25 -9 25 -4 0
-6 -11 -3 -25z"/>
<path d="M3180 3569 c0 -5 5 -7 10 -4 6 3 10 8 10 11 0 2 -4 4 -10 4 -5 0 -10
-5 -10 -11z"/>
<path d="M3261 3547 c-13 -21 -12 -21 5 -5 10 10 16 20 13 22 -3 3 -11 -5 -18
-17z"/>
<path d="M3782 3511 c-39 -32 -83 -68 -99 -79 -15 -11 -25 -23 -22 -26 5 -5
199 150 199 160 0 9 -11 1 -78 -55z"/>
<path d="M3216 3533 c-6 -14 -5 -15 5 -6 7 7 10 15 7 18 -3 3 -9 -2 -12 -12z"/>
<path d="M3346 3523 c-6 -14 -5 -15 5 -6 7 7 10 15 7 18 -3 3 -9 -2 -12 -12z"/>
<path d="M3367 3503 c-11 -13 -17 -26 -14 -29 2 -3 12 7 21 22 23 33 17 39 -7
7z"/>
<path d="M3565 3510 c-10 -11 -15 -20 -11 -20 11 0 39 30 34 36 -3 2 -13 -5
-23 -16z"/>
<path d="M2442 3500 c0 -14 2 -19 5 -12 2 6 2 18 0 25 -3 6 -5 1 -5 -13z"/>
<path d="M3975 3460 c-49 -32 -93 -62 -98 -67 -4 -4 -15 -17 -25 -28 -9 -11
-30 -27 -47 -35 -25 -12 -149 -86 -164 -97 -2 -2 -2 -6 1 -9 3 -3 39 16 78 41
40 26 80 49 89 53 9 3 36 22 61 42 25 20 79 60 120 89 87 62 98 71 85 71 -6 0
-50 -27 -100 -60z"/>
<path d="M3061 3444 c-33 -70 -38 -89 -21 -79 12 7 70 119 70 135 0 28 -21 3
-49 -56z"/>
<path d="M3196 3493 c-6 -14 -5 -15 5 -6 7 7 10 15 7 18 -3 3 -9 -2 -12 -12z"/>
<path d="M3452 3485 c-6 -14 -10 -25 -8 -25 2 0 11 11 20 25 9 14 13 25 8 25
-5 0 -14 -11 -20 -25z"/>
<path d="M4401 3494 c0 -11 3 -14 6 -6 3 7 2 16 -1 19 -3 4 -6 -2 -5 -13z"/>
<path d="M988 3478 c6 -7 28 -22 49 -33 21 -10 45 -24 53 -30 18 -14 50 -26
50 -20 0 8 -139 95 -151 95 -8 0 -8 -4 -1 -12z"/>
<path d="M1530 3486 c0 -2 7 -9 15 -16 9 -7 15 -8 15 -2 0 5 -7 12 -15 16 -8
3 -15 4 -15 2z"/>
<path d="M2752 3450 c0 -14 2 -19 5 -12 2 6 2 18 0 25 -3 6 -5 1 -5 -13z"/>
<path d="M3246 3453 c-6 -14 -5 -15 5 -6 7 7 10 15 7 18 -3 3 -9 -2 -12 -12z"/>
<path d="M2187 3440 c7 -25 23 -37 23 -17 0 8 -6 20 -14 26 -12 10 -13 8 -9
-9z"/>
<path d="M3276 3443 c-6 -14 -5 -15 5 -6 7 7 10 15 7 18 -3 3 -9 -2 -12 -12z"/>
<path d="M3310 3440 c-6 -11 -8 -20 -6 -20 3 0 10 9 16 20 6 11 8 20 6 20 -3
0 -10 -9 -16 -20z"/>
<path d="M3459 3438 c-12 -23 -12 -23 10 -4 23 21 26 26 11 26 -5 0 -15 -10
-21 -22z"/>
<path d="M4305 3439 c-4 -6 -5 -12 -2 -15 2 -3 7 2 10 11 7 17 1 20 -8 4z"/>
<path d="M1190 3436 c0 -2 7 -7 16 -10 8 -3 12 -2 9 4 -6 10 -25 14 -25 6z"/>
<path d="M2756 3366 c-9 -36 -16 -73 -15 -83 0 -10 9 18 20 61 11 43 18 81 15
83 -2 2 -11 -25 -20 -61z"/>
<path d="M3316 3403 c-14 -15 -23 -29 -21 -31 4 -4 20 10 44 41 21 27 5 20
-23 -10z"/>
<path d="M3286 3274 c-81 -81 -145 -148 -143 -150 2 -3 71 60 153 140 81 80
146 147 143 150 -3 3 -71 -60 -153 -140z"/>
<path d="M3968 3387 c-15 -12 -45 -35 -68 -50 -23 -16 -40 -30 -38 -33 6 -6
67 25 88 45 9 9 25 21 35 26 10 6 16 16 14 22 -3 7 -14 3 -31 -10z"/>
<path d="M4381 3394 c0 -11 3 -14 6 -6 3 7 2 16 -1 19 -3 4 -6 -2 -5 -13z"/>
<path d="M1250 3390 c0 -5 5 -10 10 -10 6 0 10 5 10 10 0 6 -4 10 -10 10 -5 0
-10 -4 -10 -10z"/>
<path d="M3200 3379 c-7 -11 -10 -23 -7 -25 2 -2 9 7 15 21 14 30 7 33 -8 4z"/>
<path d="M3628 3386 c-19 -14 -23 -26 -10 -26 4 0 13 9 20 20 14 23 13 24 -10
6z"/>
<path d="M1290 3382 c0 -5 11 -17 25 -26 14 -9 25 -12 25 -6 0 5 -4 10 -9 10
-5 0 -17 7 -25 16 -9 8 -16 11 -16 6z"/>
<path d="M2812 3338 c-6 -23 -9 -44 -7 -46 2 -2 9 15 15 38 6 23 9 44 7 46 -2
3 -9 -14 -15 -38z"/>
<path d="M4405 3370 c-3 -6 1 -7 9 -4 18 7 21 14 7 14 -6 0 -13 -4 -16 -10z"/>
<path d="M2250 3355 c0 -8 4 -15 10 -15 5 0 7 7 4 15 -4 8 -8 15 -10 15 -2 0
-4 -7 -4 -15z"/>
<path d="M2851 3354 c0 -11 3 -14 6 -6 3 7 2 16 -1 19 -3 4 -6 -2 -5 -13z"/>
<path d="M3230 3345 c-13 -14 -21 -27 -18 -31 3 -3 16 9 28 25 26 37 22 40
-10 6z"/>
<path d="M2978 3295 c-20 -38 -51 -97 -70 -130 -69 -122 -60 -131 12 -10 69
118 102 184 97 198 -2 7 -20 -19 -39 -58z"/>
<path d="M4200 3350 c0 -5 5 -10 10 -10 6 0 10 5 10 10 0 6 -4 10 -10 10 -5 0
-10 -4 -10 -10z"/>
<path d="M1350 3342 c0 -4 18 -18 40 -30 52 -27 52 -14 0 16 -22 12 -40 19
-40 14z"/>
<path d="M3254 3328 l-19 -23 23 19 c21 18 27 26 19 26 -2 0 -12 -10 -23 -22z"/>
<path d="M4398 3333 c-10 -2 -18 -8 -18 -13 0 -4 9 -6 20 -3 11 3 20 9 20 14
0 5 -1 8 -2 8 -2 -1 -11 -3 -20 -6z"/>
<path d="M2272 3310 c0 -14 2 -19 5 -12 2 6 2 18 0 25 -3 6 -5 1 -5 -13z"/>
<path d="M2826 3268 c-11 -34 -24 -74 -31 -88 -22 -44 -27 -78 -6 -37 26 49
64 164 59 178 -2 6 -12 -18 -22 -53z"/>
<path d="M3500 3315 c0 -9 5 -15 11 -13 6 2 11 8 11 13 0 5 -5 11 -11 13 -6 2
-11 -4 -11 -13z"/>
<path d="M3800 3292 c-25 -14 -46 -30 -48 -34 -2 -4 -9 -8 -16 -8 -7 0 -21 -9
-31 -20 -9 -10 -20 -18 -24 -17 -9 3 -125 -74 -186 -123 -27 -22 -72 -53 -100
-68 -83 -47 -99 -56 -115 -72 -8 -8 -22 -16 -30 -18 -8 -2 -22 -10 -30 -18
-12 -12 -12 -14 0 -14 24 0 89 35 90 48 0 6 7 12 16 12 18 0 87 39 92 52 2 5
13 13 25 19 21 10 21 10 3 -5 -11 -9 -16 -16 -10 -16 12 1 50 30 38 30 -5 0 6
10 24 21 17 12 32 24 32 28 0 4 15 12 33 19 17 7 50 28 72 47 22 19 43 35 47
35 3 0 13 6 20 13 7 7 43 35 81 62 58 43 74 56 65 55 -2 -1 -23 -13 -48 -28z"/>
<path d="M1141 3305 c8 -8 99 -55 99 -51 0 7 -80 56 -91 56 -7 0 -10 -2 -8 -5z"/>
<path d="M5060 3298 c-14 -5 -52 -18 -85 -28 -58 -17 -225 -69 -735 -227 -135
-41 -250 -76 -257 -77 -7 -1 -16 -6 -20 -10 -15 -16 129 25 487 135 52 17 124
38 160 48 185 53 510 157 510 164 0 10 -30 8 -60 -5z"/>
<path d="M1670 3290 c0 -5 5 -10 11 -10 5 0 7 5 4 10 -3 6 -8 10 -11 10 -2 0
-4 -4 -4 -10z"/>
<path d="M4286 3291 c-4 -5 1 -8 9 -7 21 3 31 16 12 16 -9 0 -18 -4 -21 -9z"/>
<path d="M4660 3289 c0 -5 5 -7 10 -4 6 3 10 8 10 11 0 2 -4 4 -10 4 -5 0 -10
-5 -10 -11z"/>
<path d="M775 3273 c2 -10 4 -20 4 -23 2 -7 21 23 21 33 0 4 -6 7 -14 7 -8 0
-13 -8 -11 -17z"/>
<path d="M2875 3270 c-4 -12 -5 -24 -2 -27 3 -2 8 5 12 17 4 12 5 24 2 27 -3
2 -8 -5 -12 -17z"/>
<path d="M3180 3271 c0 -11 -6 -22 -12 -24 -8 -4 -9 -6 -2 -6 7 -1 19 10 28
24 14 22 15 25 1 25 -8 0 -15 -9 -15 -19z"/>
<path d="M4606 3273 c-6 -14 -5 -15 5 -6 7 7 10 15 7 18 -3 3 -9 -2 -12 -12z"/>
<path d="M4236 3265 c-3 -8 -1 -15 4 -15 13 0 22 18 11 24 -5 3 -11 -1 -15 -9z"/>
<path d="M815 3260 c-3 -5 -1 -10 4 -10 6 0 11 5 11 10 0 6 -2 10 -4 10 -3 0
-8 -4 -11 -10z"/>
<path d="M3808 3254 c-16 -8 -28 -17 -28 -19 0 -10 16 -4 40 15 30 23 25 25
-12 4z"/>
<path d="M1456 3252 c15 -14 166 -108 202 -126 60 -31 32 -8 -60 50 -51 31
-100 63 -109 71 -17 14 -50 19 -33 5z"/>
<path d="M2732 3230 c0 -19 2 -27 5 -17 2 9 2 25 0 35 -3 9 -5 1 -5 -18z"/>
<path d="M3520 3235 c-7 -14 -20 -25 -29 -25 -9 0 -23 -5 -31 -11 -12 -9 -12
-10 4 -5 16 6 17 4 6 -9 -7 -8 -19 -15 -27 -15 -8 0 -12 -4 -9 -9 4 -5 -3 -7
-14 -4 -23 6 -26 -3 -6 -22 11 -11 21 -6 61 31 26 24 57 46 67 50 11 3 18 13
16 22 -5 25 -23 24 -38 -3z"/>
<path d="M5015 3229 c-49 -16 -184 -56 -300 -90 -115 -34 -271 -81 -345 -104
-237 -76 -293 -92 -390 -116 -102 -25 -106 -26 -98 -35 7 -6 90 14 268 67 74
22 173 51 220 65 47 14 92 29 101 33 8 5 58 21 111 35 52 14 115 33 139 42 24
9 71 22 104 30 102 25 295 87 295 96 0 11 -2 10 -105 -23z"/>
<path d="M4135 3230 c-8 -13 5 -13 25 0 13 8 13 10 -2 10 -9 0 -20 -4 -23 -10z"/>
<path d="M0 3206 c0 -9 2 -16 5 -16 3 0 106 -25 228 -56 122 -31 226 -56 231
-57 6 -1 12 6 14 16 2 11 -3 17 -16 17 -16 0 -380 87 -444 106 -12 4 -18 0
-18 -10z"/>
<path d="M963 3203 c9 -9 19 -14 23 -11 10 10 -6 28 -24 28 -15 0 -15 -1 1
-17z"/>
<path d="M3748 3212 c-1 -4 -29 -23 -60 -42 -32 -18 -56 -35 -54 -37 5 -5 124
65 131 77 3 6 2 10 -4 10 -5 0 -11 -3 -13 -8z"/>
<path d="M4075 3201 c-187 -82 -255 -115 -255 -124 0 -4 21 4 48 17 26 14 90
43 142 66 52 23 99 46 105 51 12 12 7 11 -40 -10z"/>
<path d="M1430 3200 c0 -5 5 -10 11 -10 5 0 7 5 4 10 -3 6 -8 10 -11 10 -2 0
-4 -4 -4 -10z"/>
<path d="M1350 3180 c0 -5 5 -10 10 -10 6 0 10 5 10 10 0 6 -4 10 -10 10 -5 0
-10 -4 -10 -10z"/>
<path d="M2722 3170 c0 -14 2 -19 5 -12 2 6 2 18 0 25 -3 6 -5 1 -5 -13z"/>
<path d="M1040 3176 c0 -2 7 -9 15 -16 12 -10 15 -10 15 4 0 9 -7 16 -15 16
-8 0 -15 -2 -15 -4z"/>
<path d="M4373 3173 c-15 -5 -17 -23 -4 -23 5 0 11 7 15 15 3 8 4 15 3 14 -1
0 -8 -3 -14 -6z"/>
<path d="M4175 3150 c-3 -5 -1 -10 4 -10 6 0 11 5 11 10 0 6 -2 10 -4 10 -3 0
-8 -4 -11 -10z"/>
<path d="M4330 3150 c0 -5 5 -10 11 -10 5 0 7 5 4 10 -3 6 -8 10 -11 10 -2 0
-4 -4 -4 -10z"/>
<path d="M5050 3149 c-14 -6 -248 -66 -520 -135 -272 -68 -499 -126 -505 -129
-32 -15 109 17 385 85 552 138 737 188 690 189 -14 0 -36 -5 -50 -10z"/>
<path d="M1115 3140 c-8 -13 5 -13 25 0 13 8 13 10 -2 10 -9 0 -20 -4 -23 -10z"/>
<path d="M3300 3123 c-21 -22 -22 -24 -4 -15 23 12 51 42 38 41 -5 0 -20 -12
-34 -26z"/>
<path d="M2993 3072 c-61 -67 -163 -185 -238 -276 -22 -27 -48 -58 -58 -70 -9
-11 -28 -33 -40 -47 -13 -14 -31 -36 -40 -49 l-16 -24 -21 25 c-12 13 -34 38
-48 54 -15 17 -52 59 -82 95 -30 35 -62 72 -70 80 -25 27 -62 71 -130 155 -77
95 -100 118 -107 111 -6 -6 33 -56 173 -221 184 -215 275 -320 282 -322 4 -1
61 64 127 144 66 80 145 173 175 207 149 168 171 194 162 200 -4 2 -35 -26
-69 -62z"/>
<path d="M1180 3119 c0 -5 5 -7 10 -4 6 3 10 8 10 11 0 2 -4 4 -10 4 -5 0 -10
-5 -10 -11z"/>
<path d="M3495 3120 c-3 -5 -1 -10 4 -10 6 0 11 5 11 10 0 6 -2 10 -4 10 -3 0
-8 -4 -11 -10z"/>
<path d="M1206 3111 c-3 -5 0 -14 8 -20 10 -9 15 -8 19 3 9 22 -15 37 -27 17z"/>
<path d="M2825 3073 c-29 -69 -29 -74 0 -20 14 27 25 53 23 58 -2 5 -12 -12
-23 -38z"/>
<path d="M562 3098 c3 -7 42 -23 89 -35 187 -48 671 -174 769 -201 120 -33
183 -45 175 -32 -3 4 -40 16 -82 25 -43 9 -112 28 -153 42 -41 13 -142 43
-225 65 -242 65 -559 148 -568 148 -5 0 -7 -6 -5 -12z"/>
<path d="M1700 3107 c0 -3 12 -12 26 -22 15 -9 23 -12 20 -6 -7 11 -46 35 -46
28z"/>
<path d="M3590 3100 c-9 -6 -10 -10 -3 -10 6 0 15 5 18 10 8 12 4 12 -15 0z"/>
<path d="M1270 3087 c0 -13 135 -65 144 -56 3 3 -28 19 -69 37 -49 20 -75 26
-75 19z"/>
<path d="M4010 3079 c0 -5 5 -7 10 -4 6 3 10 8 10 11 0 2 -4 4 -10 4 -5 0 -10
-5 -10 -11z"/>
<path d="M4175 3080 c3 -5 8 -10 11 -10 2 0 4 5 4 10 0 6 -5 10 -11 10 -5 0
-7 -4 -4 -10z"/>
<path d="M1630 3073 c1 -5 20 -17 43 -29 23 -11 92 -47 154 -79 62 -33 115
-57 118 -53 3 3 -18 17 -47 31 -29 15 -98 51 -153 82 -100 55 -115 61 -115 48z"/>
<path d="M4130 3069 c0 -5 5 -7 10 -4 6 3 10 8 10 11 0 2 -4 4 -10 4 -5 0 -10
-5 -10 -11z"/>
<path d="M2082 3056 c7 -8 15 -12 17 -11 5 6 -10 25 -20 25 -5 0 -4 -6 3 -14z"/>
<path d="M3790 3059 c0 -5 5 -7 10 -4 6 3 10 8 10 11 0 2 -4 4 -10 4 -5 0 -10
-5 -10 -11z"/>
<path d="M1095 3039 c4 -5 16 -9 27 -9 26 0 19 9 -11 15 -12 2 -19 0 -16 -6z"/>
<path d="M365 3031 c6 -4 71 -20 145 -34 74 -14 234 -47 355 -72 121 -25 224
-45 229 -45 26 0 -9 11 -94 30 -52 12 -135 30 -185 41 -133 31 -169 38 -290
59 -60 11 -123 22 -140 25 -17 3 -25 2 -20 -4z"/>
<path d="M1150 3026 c0 -2 9 -6 20 -9 11 -3 18 -1 14 4 -5 9 -34 13 -34 5z"/>
<path d="M1239 2990 c24 -11 49 -19 55 -16 12 4 -30 23 -72 32 -17 3 -11 -2
17 -16z"/>
<path d="M3035 2999 c-11 -16 -1 -19 13 -3 7 8 8 14 3 14 -5 0 -13 -5 -16 -11z"/>
<path d="M165 2990 c3 -5 27 -10 53 -9 38 1 42 2 22 9 -37 12 -82 12 -75 0z"/>
<path d="M380 2960 c0 -5 17 -10 38 -9 33 1 34 2 12 9 -36 11 -50 11 -50 0z"/>
<path d="M1310 2965 c0 -8 73 -36 78 -30 3 2 -11 12 -31 20 -39 16 -47 18 -47
10z"/>
<path d="M3560 2949 c0 -5 5 -7 10 -4 6 3 10 8 10 11 0 2 -4 4 -10 4 -5 0 -10
-5 -10 -11z"/>
<path d="M15 2941 c11 -4 54 -11 95 -15 94 -8 310 -35 330 -41 14 -4 284 -45
298 -45 3 0 2 4 -4 9 -5 5 -137 28 -294 50 -299 41 -460 58 -425 42z"/>
<path d="M461 2946 c2 -2 27 -6 54 -10 34 -4 45 -3 35 4 -14 9 -99 15 -89 6z"/>
<path d="M3898 2933 c-8 -10 -4 -11 21 -2 17 6 31 12 31 14 0 9 -42 -1 -52
-12z"/>
<path d="M575 2930 c3 -5 25 -10 48 -9 36 1 38 2 17 9 -36 12 -72 12 -65 0z"/>
<path d="M3090 2925 c-10 -12 -10 -15 3 -15 8 0 17 7 21 15 3 8 2 15 -3 15 -5
0 -14 -7 -21 -15z"/>
<path d="M5055 2935 c-5 -2 -32 -6 -58 -10 -27 -4 -46 -9 -43 -12 8 -9 166 8
166 18 0 9 -44 11 -65 4z"/>
<path d="M3795 2920 c-19 -8 -19 -9 3 -9 12 -1 22 4 22 9 0 6 -1 10 -2 9 -2 0
-12 -4 -23 -9z"/>
<path d="M685 2911 c11 -5 42 -9 68 -9 26 -1 52 -4 57 -7 6 -4 10 -2 10 3 0 9
-81 22 -130 21 -23 0 -23 -1 -5 -8z"/>
<path d="M1430 2911 c0 -5 38 -21 85 -35 47 -15 93 -30 103 -33 9 -3 15 -4 12
0 -10 11 -200 76 -200 68z"/>
<path d="M3755 2910 c-3 -5 -1 -10 4 -10 6 0 11 5 11 10 0 6 -2 10 -4 10 -3 0
-8 -4 -11 -10z"/>
<path d="M4880 2900 c-23 -7 -23 -8 -3 -9 12 -1 25 4 28 9 3 6 5 10 3 9 -2 -1
-14 -5 -28 -9z"/>
<path d="M830 2890 c0 -5 5 -10 10 -10 6 0 10 5 10 10 0 6 -4 10 -10 10 -5 0
-10 -4 -10 -10z"/>
<path d="M3705 2890 c-8 -13 5 -13 25 0 13 8 13 10 -2 10 -9 0 -20 -4 -23 -10z"/>
<path d="M4915 2888 c-22 -5 -49 -7 -60 -4 -18 5 -80 -3 -282 -35 -40 -7 -73
-16 -73 -21 0 -5 12 -7 28 -4 85 18 235 37 248 32 8 -3 13 -2 10 2 -3 5 23 9
57 10 70 2 137 15 122 23 -6 3 -28 2 -50 -3z"/>
<path d="M860 2886 c0 -2 15 -6 34 -8 19 -2 32 0 30 4 -5 8 -64 12 -64 4z"/>
<path d="M2976 2883 c-11 -11 -6 -23 9 -23 8 0 15 4 15 9 0 13 -16 22 -24 14z"/>
<path d="M3995 2880 c-3 -5 -1 -10 4 -10 6 0 11 5 11 10 0 6 -2 10 -4 10 -3 0
-8 -4 -11 -10z"/>
<path d="M3430 2870 c0 -5 5 -10 10 -10 6 0 10 5 10 10 0 6 -4 10 -10 10 -5 0
-10 -4 -10 -10z"/>
<path d="M3815 2870 l-30 -8 33 -1 c17 0 32 4 32 9 0 6 -1 9 -2 9 -2 -1 -16
-5 -33 -9z"/>
<path d="M1005 2861 c31 -9 102 -14 94 -7 -2 2 -31 6 -64 9 -39 4 -50 3 -30
-2z"/>
<path d="M1139 2861 c11 -7 10 -10 -5 -14 -10 -3 -2 -3 19 0 21 3 37 1 37 -5
0 -5 26 -13 57 -17 31 -4 67 -11 79 -16 14 -5 26 -4 29 1 5 9 -18 19 -58 26
-22 3 -99 19 -147 29 -17 4 -21 3 -11 -4z"/>
<path d="M3610 2860 c0 -13 11 -13 30 0 12 8 11 10 -7 10 -13 0 -23 -4 -23
-10z"/>
<path d="M3923 2863 c-13 -2 -23 -8 -23 -13 0 -5 15 -4 33 2 52 18 47 22 -10
11z"/>
<path d="M167 2837 c-6 -16 -8 -16 318 -47 110 -11 308 -31 440 -45 259 -29
377 -36 370 -25 -2 4 -39 10 -82 13 -43 3 -177 17 -298 32 -121 14 -330 37
-465 51 -135 13 -252 27 -261 30 -9 2 -19 -2 -22 -9z"/>
<path d="M3170 2840 c0 -5 4 -10 9 -10 6 0 13 5 16 10 3 6 -1 10 -9 10 -9 0
-16 -4 -16 -10z"/>
<path d="M3823 2843 c-24 -2 -43 -8 -43 -13 0 -11 71 -1 85 11 5 5 7 8 5 7 -3
-1 -24 -3 -47 -5z"/>
<path d="M785 2830 c3 -5 26 -10 51 -10 24 0 44 5 44 10 0 6 -23 10 -51 10
-31 0 -48 -4 -44 -10z"/>
<path d="M4205 2830 c-3 -5 -2 -10 4 -10 5 0 13 5 16 10 3 6 2 10 -4 10 -5 0
-13 -4 -16 -10z"/>
<path d="M1680 2810 c0 -5 7 -10 16 -10 8 0 12 5 9 10 -3 6 -10 10 -16 10 -5
0 -9 -4 -9 -10z"/>
<path d="M3230 2790 c-13 -8 -12 -10 3 -10 9 0 17 5 17 10 0 12 -1 12 -20 0z"/>
<path d="M3495 2790 c-3 -5 -1 -10 4 -10 6 0 11 5 11 10 0 6 -2 10 -4 10 -3 0
-8 -4 -11 -10z"/>
<path d="M3528 2793 c7 -3 16 -2 19 1 4 3 -2 6 -13 5 -11 0 -14 -3 -6 -6z"/>
<path d="M3460 2780 c-9 -6 -10 -10 -3 -10 6 0 15 5 18 10 8 12 4 12 -15 0z"/>
<path d="M3875 2780 c-3 -5 1 -10 9 -10 9 0 16 5 16 10 0 6 -4 10 -9 10 -6 0
-13 -4 -16 -10z"/>
<path d="M5088 2743 c6 -2 18 -2 25 0 6 3 1 5 -13 5 -14 0 -19 -2 -12 -5z"/>
<path d="M4978 2733 c18 -2 45 -2 60 0 15 2 0 4 -33 4 -33 0 -45 -2 -27 -4z"/>
<path d="M4818 2723 c6 -2 18 -2 25 0 6 3 1 5 -13 5 -14 0 -19 -2 -12 -5z"/>
<path d="M4878 2723 c6 -2 18 -2 25 0 6 3 1 5 -13 5 -14 0 -19 -2 -12 -5z"/>
<path d="M1318 2713 c7 -3 16 -2 19 1 4 3 -2 6 -13 5 -11 0 -14 -3 -6 -6z"/>
<path d="M1356 2708 c3 -4 42 -7 87 -7 94 1 85 6 -20 11 -39 2 -69 0 -67 -4z"/>
<path d="M3738 2713 c6 -2 18 -2 25 0 6 3 1 5 -13 5 -14 0 -19 -2 -12 -5z"/>
<path d="M3785 2710 c-3 -5 -1 -10 4 -10 6 0 11 5 11 10 0 6 -2 10 -4 10 -3 0
-8 -4 -11 -10z"/>
<path d="M4768 2713 c7 -3 16 -2 19 1 4 3 -2 6 -13 5 -11 0 -14 -3 -6 -6z"/>
<path d="M1840 2703 c0 -15 120 -27 133 -14 8 8 1 11 -23 11 -19 0 -52 3 -72
6 -23 4 -38 3 -38 -3z"/>
<path d="M3310 2700 c0 -5 4 -10 9 -10 6 0 13 5 16 10 3 6 -1 10 -9 10 -9 0
-16 -4 -16 -10z"/>
<path d="M3638 2703 c12 -2 30 -2 40 0 9 3 -1 5 -23 4 -22 0 -30 -2 -17 -4z"/>
<path d="M3563 2693 c9 -2 25 -2 35 0 9 3 1 5 -18 5 -19 0 -27 -2 -17 -5z"/>
<path d="M4925 2683 c-55 -2 -104 -9 -110 -15 -7 -8 4 -9 39 -4 27 3 98 6 157
6 66 0 109 4 109 10 0 6 -21 9 -47 8 -27 -1 -93 -4 -148 -5z"/>
<path d="M1510 2655 c0 -15 52 -21 135 -15 37 2 42 7 27 22 -9 9 -12 9 -12 0
0 -7 -7 -12 -15 -12 -8 0 -15 5 -15 10 0 6 -27 10 -60 10 -47 0 -60 -3 -60
-15z m93 -2 c-7 -2 -21 -2 -30 0 -10 3 -4 5 12 5 17 0 24 -2 18 -5z"/>
<path d="M1710 2651 c0 -11 26 -22 34 -14 3 3 3 10 0 14 -7 12 -34 11 -34 0z"/>
<path d="M3678 2643 c18 -2 45 -2 60 0 15 2 0 4 -33 4 -33 0 -45 -2 -27 -4z"/>
<path d="M498 2610 c-43 -3 -83 -11 -90 -18 -16 -16 -2 -28 16 -13 8 6 18 11
22 10 5 -2 71 1 147 5 76 5 312 12 525 16 l387 7 -465 0 c-256 0 -500 -3 -542
-7z"/>
<path d="M48 2593 c28 -2 76 -2 105 0 28 2 5 3 -53 3 -58 0 -81 -1 -52 -3z"/>
<path d="M235 2589 c-22 -5 -84 -9 -137 -10 -54 0 -98 -5 -98 -10 0 -5 35 -9
78 -9 47 0 83 -5 90 -12 9 -9 12 -9 12 0 0 7 12 12 28 12 21 0 24 -2 12 -10
-12 -8 -11 -10 7 -10 12 0 24 6 26 13 4 10 6 10 6 0 2 -25 31 -13 31 11 0 32
-6 34 -55 25z"/>
<path d="M3067 2589 c-163 -3 -300 -8 -303 -12 -15 -14 111 -20 346 -14 141 3
246 1 235 -3 -17 -7 -15 -9 12 -9 17 -1 35 4 39 11 5 8 2 9 -9 5 -10 -3 -17
-2 -17 3 0 12 407 12 435 0 12 -5 -62 -9 -187 -9 -162 -1 -206 -4 -203 -13 4
-10 63 -11 273 -6 346 9 358 10 354 26 -1 6 4 12 10 12 7 0 162 0 345 0 208 0
334 3 338 9 6 11 -1125 11 -1668 0z"/>
<path d="M650 2579 c-27 -4 9 -7 89 -7 74 -1 132 0 130 2 -8 7 -174 11 -219 5z"/>
<path d="M910 2578 c14 -5 101 -8 198 -5 94 2 172 1 172 -2 0 -9 -49 -10 -402
-13 -174 -2 -311 0 -305 5 16 10 -114 4 -130 -6 -7 -5 -13 -11 -13 -15 0 -11
1316 -4 1483 8 81 5 225 10 320 10 94 0 178 4 185 9 25 15 -253 21 -898 20
-415 -1 -626 -5 -610 -11z m839 -3 c-3 -2 -57 -9 -120 -16 -81 -8 -122 -8
-135 -1 -14 8 7 10 80 10 53 0 100 3 103 6 4 3 22 6 41 6 20 0 33 -2 31 -5z
m96 -15 c-72 -5 -88 -4 -81 8 2 4 37 5 78 2 l73 -4 -70 -6z m-1302 -7 c-7 -2
-19 -2 -25 0 -7 3 -2 5 12 5 14 0 19 -2 13 -5z"/>
<path d="M2554 2518 c-37 -39 -201 -239 -326 -399 -61 -76 -62 -96 -3 -35 25
26 45 51 45 55 0 3 15 22 33 41 18 19 48 55 67 80 19 25 44 53 55 62 11 10 17
17 12 18 -4 0 7 16 25 36 18 20 31 37 29 37 -2 1 22 30 54 64 64 70 56 71 115
-7 14 -18 36 -45 50 -60 14 -15 34 -39 45 -55 17 -24 56 -72 90 -112 6 -6 26
-31 45 -54 42 -52 98 -109 107 -109 3 0 -1 8 -9 18 -8 9 -53 64 -99 121 -46
57 -110 136 -142 175 -32 39 -74 92 -95 118 -20 26 -42 47 -47 48 -6 0 -29
-19 -51 -42z"/>
<path d="M4072 2550 c2 -5 135 -12 321 -15 286 -6 317 -5 317 9 0 14 -34 16
-321 16 -198 0 -319 -4 -317 -10z"/>
<path d="M1971 2509 c-13 -11 -17 -19 -10 -19 19 1 52 27 42 33 -4 3 -19 -3
-32 -14z"/>
<path d="M878 2503 c12 -2 30 -2 40 0 9 3 -1 5 -23 4 -22 0 -30 -2 -17 -4z"/>
<path d="M940 2498 c0 -11 26 -14 110 -14 143 1 140 19 -3 23 -83 3 -107 1
-107 -9z"/>
<path d="M1860 2480 c0 -5 7 -7 15 -4 8 4 15 8 15 10 0 2 -7 4 -15 4 -8 0 -15
-4 -15 -10z"/>
<path d="M3173 2483 c-24 -2 -43 -9 -43 -14 0 -6 4 -8 8 -5 5 3 60 6 123 7 63
1 125 5 139 10 26 7 -149 9 -227 2z"/>
<path d="M4805 2480 c-4 -7 50 -10 154 -10 101 0 161 4 161 10 0 6 -58 10
-154 10 -93 0 -157 -4 -161 -10z"/>
<path d="M1868 2433 c7 -3 16 -2 19 1 4 3 -2 6 -13 5 -11 0 -14 -3 -6 -6z"/>
<path d="M1765 2410 c-19 -8 -19 -9 2 -9 12 -1 25 4 28 9 7 12 -2 12 -30 0z"/>
<path d="M4475 2410 c-7 -12 27 -22 37 -12 6 6 1 12 -11 15 -12 3 -23 2 -26
-3z"/>
<path d="M1605 2395 c-22 -7 -102 -32 -177 -56 -76 -23 -136 -44 -134 -46 4
-4 368 106 375 113 8 8 -24 2 -64 -11z"/>
<path d="M2050 2400 c0 -5 7 -10 15 -10 8 0 15 5 15 10 0 6 -7 10 -15 10 -8 0
-15 -4 -15 -10z"/>
<path d="M4750 2394 c0 -8 5 -12 10 -9 6 3 10 10 10 16 0 5 -4 9 -10 9 -5 0
-10 -7 -10 -16z"/>
<path d="M645 2391 c-3 -5 2 -11 10 -15 8 -3 17 -1 20 3 3 5 -2 11 -10 15 -8
3 -17 1 -20 -3z"/>
<path d="M895 2390 l-30 -8 30 -1 c17 0 37 4 45 9 13 9 13 10 0 9 -8 -1 -28
-5 -45 -9z"/>
<path d="M825 2380 c-3 -5 1 -10 9 -10 9 0 16 5 16 10 0 6 -4 10 -9 10 -6 0
-13 -4 -16 -10z"/>
<path d="M1330 2350 c-58 -15 -175 -42 -260 -59 -85 -18 -207 -45 -270 -60
-63 -16 -168 -39 -232 -51 -65 -13 -116 -26 -113 -28 6 -7 276 49 770 159 96
21 250 67 225 67 -8 0 -62 -12 -120 -28z"/>
<path d="M3850 2370 c0 -5 7 -10 16 -10 8 0 12 5 9 10 -3 6 -10 10 -16 10 -5
0 -9 -4 -9 -10z"/>
<path d="M1960 2360 c0 -5 7 -10 15 -10 8 0 15 5 15 10 0 6 -7 10 -15 10 -8 0
-15 -4 -15 -10z"/>
<path d="M2074 2357 c-6 -7 -25 -23 -42 -36 -18 -13 -30 -26 -28 -28 5 -6 96
59 96 69 0 12 -13 9 -26 -5z"/>
<path d="M1608 2353 c7 -3 16 -2 19 1 4 3 -2 6 -13 5 -11 0 -14 -3 -6 -6z"/>
<path d="M1498 2316 c-102 -41 -111 -53 -12 -15 44 17 85 31 92 32 6 0 12 4
12 9 0 11 -6 10 -92 -26z"/>
<path d="M3395 2320 c3 -5 11 -10 16 -10 6 0 7 5 4 10 -3 6 -11 10 -16 10 -6
0 -7 -4 -4 -10z"/>
<path d="M1860 2310 c0 -5 6 -10 14 -10 8 0 18 5 21 10 3 6 -3 10 -14 10 -12
0 -21 -4 -21 -10z"/>
<path d="M783 2284 c0 -18 2 -22 8 -13 11 18 11 39 0 39 -5 0 -8 -12 -8 -26z"/>
<path d="M3440 2300 c8 -5 22 -9 30 -9 10 0 8 3 -5 9 -27 12 -43 12 -25 0z"/>
<path d="M3520 2300 c0 -5 9 -10 20 -10 12 0 146 -29 298 -64 152 -36 340 -77
417 -91 77 -15 199 -40 270 -56 146 -33 207 -46 415 -90 80 -16 153 -32 164
-36 12 -3 17 -1 14 8 -4 13 -478 118 -903 199 -27 5 -193 41 -367 80 -175 38
-320 70 -323 70 -3 0 -5 -4 -5 -10z"/>
<path d="M3835 2300 c-3 -5 -1 -10 4 -10 6 0 11 5 11 10 0 6 -2 10 -4 10 -3 0
-8 -4 -11 -10z"/>
<path d="M1240 2280 c0 -5 7 -7 15 -4 8 4 15 8 15 10 0 2 -7 4 -15 4 -8 0 -15
-4 -15 -10z"/>
<path d="M3498 2278 c5 -5 16 -8 23 -6 8 3 3 7 -10 11 -17 4 -21 3 -13 -5z"/>
<path d="M1065 2249 c-218 -48 -436 -102 -431 -106 2 -3 66 10 143 27 76 17
205 47 286 65 82 18 151 36 155 39 9 9 -14 6 -153 -25z"/>
<path d="M1685 2239 c-192 -84 -424 -193 -420 -198 4 -4 132 47 150 60 6 4 33
16 60 27 28 11 88 38 135 60 47 22 102 47 123 56 34 16 47 26 30 26 -5 0 -39
-14 -78 -31z"/>
<path d="M1345 2250 c-3 -6 1 -7 9 -4 18 7 21 14 7 14 -6 0 -13 -4 -16 -10z"/>
<path d="M1260 2220 c-45 -24 -28 -24 25 0 22 10 33 19 25 19 -8 0 -31 -8 -50
-19z"/>
<path d="M3140 2232 c0 -4 10 -12 23 -18 12 -6 90 -46 173 -89 84 -42 156 -76
160 -74 5 2 -73 45 -173 96 -101 51 -183 89 -183 85z"/>
<path d="M1820 2169 c-52 -33 -115 -72 -139 -87 -108 -67 -741 -500 -741 -507
0 -7 72 26 109 50 20 14 101 70 181 126 254 177 608 409 683 447 28 15 36 32
15 32 -7 -1 -56 -28 -108 -61z"/>
<path d="M160 2209 c-99 -15 -160 -30 -160 -40 0 -5 10 -7 23 -4 25 6 208 35
220 35 4 0 7 5 7 10 0 11 -12 11 -90 -1z"/>
<path d="M1098 2193 c6 -2 18 -2 25 0 6 3 1 5 -13 5 -14 0 -19 -2 -12 -5z"/>
<path d="M945 2159 c-153 -43 -237 -67 -270 -78 -41 -13 -9 -14 35 -1 19 6
109 31 200 56 91 25 167 48 169 50 10 10 -41 0 -134 -27z"/>
<path d="M1760 2180 c-9 -6 -10 -10 -3 -10 6 0 15 5 18 10 8 12 4 12 -15 0z"/>
<path d="M1879 2125 c-52 -35 -98 -68 -104 -72 -5 -5 -28 -19 -50 -33 -35 -21
-185 -130 -359 -261 -149 -113 -247 -184 -311 -226 -38 -26 -72 -50 -75 -53
-3 -3 -21 -17 -40 -30 -19 -14 -44 -32 -54 -42 -10 -9 -24 -14 -30 -11 -6 3
-8 3 -4 -2 4 -4 -10 -19 -30 -32 -87 -59 -242 -190 -242 -205 0 -16 16 -6 65
39 60 56 416 323 463 347 17 9 32 21 32 27 0 6 5 7 11 3 6 -3 25 7 42 24 27
25 126 101 231 177 15 11 37 28 49 39 28 24 223 162 355 251 57 39 116 79 132
90 28 19 38 35 22 35 -4 0 -51 -29 -103 -65z"/>
<path d="M3498 2183 c6 -2 18 -2 25 0 6 3 1 5 -13 5 -14 0 -19 -2 -12 -5z"/>
<path d="M1390 2155 c-71 -27 -345 -109 -397 -120 -35 -7 -55 -25 -28 -25 8 0
30 6 48 13 18 8 49 17 71 21 51 10 329 102 364 120 40 22 16 18 -58 -9z"/>
<path d="M3555 2170 c27 -12 43 -12 25 0 -8 5 -22 9 -30 9 -10 0 -8 -3 5 -9z"/>
<path d="M230 2160 c-8 -4 -26 -13 -40 -18 -22 -10 -21 -10 10 -5 42 7 66 18
54 25 -5 3 -16 2 -24 -2z"/>
<path d="M2491 2154 c0 -11 3 -14 6 -6 3 7 2 16 -1 19 -3 4 -6 -2 -5 -13z"/>
<path d="M418 2143 c7 -3 16 -2 19 1 4 3 -2 6 -13 5 -11 0 -14 -3 -6 -6z"/>
<path d="M3160 2141 c0 -5 7 -12 16 -15 14 -5 15 -4 4 9 -14 17 -20 19 -20 6z"/>
<path d="M4488 2143 c6 -2 18 -2 25 0 6 3 1 5 -13 5 -14 0 -19 -2 -12 -5z"/>
<path d="M145 2130 c-3 -5 -1 -10 4 -10 6 0 11 5 11 10 0 6 -2 10 -4 10 -3 0
-8 -4 -11 -10z"/>
<path d="M378 2133 c7 -3 16 -2 19 1 4 3 -2 6 -13 5 -11 0 -14 -3 -6 -6z"/>
<path d="M588 2133 c6 -2 18 -2 25 0 6 3 1 5 -13 5 -14 0 -19 -2 -12 -5z"/>
<path d="M4538 2133 c7 -3 16 -2 19 1 4 3 -2 6 -13 5 -11 0 -14 -3 -6 -6z"/>
<path d="M492 2118 c-24 -5 -42 -12 -39 -15 6 -5 117 16 117 23 0 6 -29 3 -78
-8z"/>
<path d="M4578 2123 c6 -2 18 -2 25 0 6 3 1 5 -13 5 -14 0 -19 -2 -12 -5z"/>
<path d="M4185 2110 c3 -5 10 -10 16 -10 5 0 9 5 9 10 0 6 -7 10 -16 10 -8 0
-12 -4 -9 -10z"/>
<path d="M1624 2099 c-17 -5 -37 -16 -44 -24 -7 -8 -16 -15 -21 -15 -10 0
-202 -111 -209 -121 -3 -4 -18 -12 -33 -18 -15 -6 -27 -15 -27 -20 0 -10 128
58 220 117 30 19 80 48 110 63 57 29 58 34 4 18z"/>
<path d="M2119 2093 c-13 -16 -12 -17 4 -4 9 7 17 15 17 17 0 8 -8 3 -21 -13z"/>
<path d="M4678 2103 c7 -3 16 -2 19 1 4 3 -2 6 -13 5 -11 0 -14 -3 -6 -6z"/>
<path d="M418 2093 c7 -3 16 -2 19 1 4 3 -2 6 -13 5 -11 0 -14 -3 -6 -6z"/>
<path d="M973 2093 c-7 -2 -13 -9 -13 -14 0 -14 26 -10 40 6 10 12 10 15 -1
14 -8 0 -20 -3 -26 -6z"/>
<path d="M2860 2091 c0 -7 11 -29 25 -49 14 -20 25 -40 25 -44 0 -22 44 -98
56 -98 8 0 14 4 14 8 0 13 -63 127 -72 130 -4 2 -8 9 -8 16 0 7 -9 21 -20 31
-12 11 -20 13 -20 6z"/>
<path d="M368 2083 c6 -2 18 -2 25 0 6 3 1 5 -13 5 -14 0 -19 -2 -12 -5z"/>
<path d="M245 2070 l-30 -8 27 -1 c15 0 30 4 33 9 3 6 5 9 3 9 -2 -1 -16 -5
-33 -9z"/>
<path d="M303 2073 c9 -2 25 -2 35 0 9 3 1 5 -18 5 -19 0 -27 -2 -17 -5z"/>
<path d="M930 2071 c-11 -7 -340 -106 -582 -177 -10 -3 -18 -10 -18 -15 0 -6
3 -8 8 -5 4 2 142 43 307 90 164 48 301 89 303 91 10 10 -5 23 -18 16z"/>
<path d="M595 2060 c-19 -8 -19 -9 2 -9 12 -1 25 4 28 9 7 12 -2 12 -30 0z"/>
<path d="M3036 2018 c21 -29 52 -71 70 -93 63 -79 67 -120 5 -50 -18 20 -31
29 -31 21 0 -8 3 -16 8 -18 4 -1 20 -20 35 -40 28 -37 50 -47 62 -28 15 25
-143 260 -176 260 -6 0 6 -24 27 -52z"/>
<path d="M2370 2055 c0 -2 -7 -30 -15 -62 -9 -32 -26 -123 -40 -203 -13 -80
-27 -161 -31 -180 -4 -19 -4 -33 -1 -30 3 3 22 91 41 195 20 105 42 211 50
238 8 26 10 47 5 47 -5 0 -9 -2 -9 -5z"/>
<path d="M3274 2051 c4 -6 39 -31 79 -57 40 -25 81 -56 92 -68 26 -29 149
-122 186 -142 42 -21 157 -96 200 -130 20 -16 47 -36 59 -44 12 -8 61 -44 109
-80 95 -70 186 -136 296 -214 39 -28 75 -56 80 -62 14 -17 55 -28 55 -15 0 6
-5 11 -11 11 -6 0 -34 19 -63 43 -30 23 -104 78 -165 122 -61 44 -169 122
-239 173 -70 52 -160 115 -201 140 -149 95 -237 155 -291 201 -80 69 -202 149
-186 122z"/>
<path d="M520 2040 c-13 -9 -13 -10 0 -10 8 0 22 5 30 10 13 9 13 10 0 10 -8
0 -22 -5 -30 -10z"/>
<path d="M1150 2032 c-75 -20 -212 -73 -205 -80 2 -3 25 3 50 12 24 10 46 16
48 14 2 -2 10 2 18 8 14 10 58 25 137 44 23 6 42 13 42 15 0 8 -20 5 -90 -13z"/>
<path d="M2268 2035 c-31 -51 -46 -85 -39 -85 13 0 53 68 49 82 -3 7 -7 8 -10
3z"/>
<path d="M440 2020 c-23 -7 -23 -8 -3 -9 12 -1 25 4 28 9 3 6 5 10 3 9 -2 -1
-14 -5 -28 -9z"/>
<path d="M1185 2001 c-27 -10 -72 -28 -100 -41 -129 -59 -174 -78 -221 -94
-28 -9 -51 -23 -51 -30 0 -8 8 -11 19 -8 10 2 18 8 18 12 0 4 10 10 23 13 40
10 110 38 192 77 44 21 98 44 120 51 38 12 81 40 60 38 -6 0 -32 -8 -60 -18z"/>
<path d="M2010 2000 c-14 -10 -22 -21 -19 -24 3 -3 16 5 29 19 28 30 24 32
-10 5z"/>
<path d="M2484 1930 c0 -52 1 -74 3 -47 2 26 2 68 0 95 -2 26 -3 4 -3 -48z"/>
<path d="M4236 2002 c-2 -4 -1 -14 3 -21 6 -10 10 -9 14 3 6 16 -8 32 -17 18z"/>
<path d="M904 1985 c-3 -8 -22 -19 -42 -26 -53 -17 -141 -59 -147 -70 -9 -14
6 -11 50 10 22 11 70 34 108 51 37 17 65 36 62 41 -9 14 -25 11 -31 -6z"/>
<path d="M270 1980 c0 -5 5 -10 10 -10 6 0 10 5 10 10 0 6 -4 10 -10 10 -5 0
-10 -4 -10 -10z"/>
<path d="M1952 1945 c-31 -36 -27 -46 4 -12 14 16 24 30 22 33 -3 2 -14 -7
-26 -21z"/>
<path d="M2025 1949 c-4 -6 -5 -12 -2 -15 2 -3 7 2 10 11 7 17 1 20 -8 4z"/>
<path d="M2391 1944 c0 -11 3 -14 6 -6 3 7 2 16 -1 19 -3 4 -6 -2 -5 -13z"/>
<path d="M3540 1940 c0 -5 51 -40 113 -78 158 -98 185 -113 192 -102 4 6 2 10
-3 10 -7 0 -105 58 -269 159 -18 11 -33 16 -33 11z"/>
<path d="M2880 1923 c0 -26 16 -47 29 -39 15 10 14 25 -3 42 -19 19 -26 18
-26 -3z"/>
<path d="M3208 1863 c39 -43 91 -100 115 -126 25 -27 48 -61 52 -75 6 -25 8
-25 19 -10 12 16 15 15 36 -10 13 -15 48 -54 78 -86 30 -33 107 -130 173 -217
109 -145 162 -210 330 -409 34 -41 92 -115 127 -165 36 -49 66 -92 68 -94 2
-2 11 -1 20 3 15 6 15 9 -5 27 -12 11 -32 37 -45 57 -13 20 -50 69 -83 107
-32 39 -110 133 -173 210 -63 77 -117 142 -121 145 -3 3 -50 64 -104 135 -128
169 -135 177 -353 398 -190 191 -260 249 -134 110z"/>
<path d="M1650 1912 c-62 -41 -180 -135 -180 -143 0 -5 -6 -9 -12 -9 -13 0
-120 -98 -148 -135 -14 -19 -14 -19 5 -5 11 8 38 33 61 55 22 22 53 49 68 60
16 11 40 30 55 42 14 12 64 52 109 88 78 60 100 86 42 47z"/>
<path d="M2762 1905 c0 -16 2 -22 5 -12 2 9 2 23 0 30 -3 6 -5 -1 -5 -18z"/>
<path d="M3042 1914 c-10 -11 -1 -36 49 -136 33 -68 82 -161 109 -208 26 -47
73 -132 105 -190 65 -119 94 -157 107 -138 6 10 8 10 8 1 0 -7 5 -13 10 -13
19 0 10 21 -14 30 -15 6 -40 39 -71 97 -93 171 -108 199 -146 265 -22 36 -39
69 -39 71 0 2 -23 46 -51 97 -30 55 -49 100 -46 111 6 24 -4 31 -21 13z"/>
<path d="M2381 1904 c0 -11 3 -14 6 -6 3 7 2 16 -1 19 -3 4 -6 -2 -5 -13z"/>
<path d="M1972 1885 c-6 -14 -10 -25 -8 -25 2 0 11 11 20 25 9 14 13 25 8 25
-5 0 -14 -11 -20 -25z"/>
<path d="M2227 1887 c-9 -6 -26 -39 -38 -72 -11 -33 -25 -64 -30 -69 -5 -6 -9
-16 -9 -24 0 -24 26 4 49 51 59 128 62 140 28 114z"/>
<path d="M1834 1828 c-67 -70 -95 -110 -45 -63 35 32 116 125 109 125 -3 0
-31 -28 -64 -62z"/>
<path d="M215 1850 c-44 -16 -89 -29 -100 -30 -11 0 -36 -10 -55 -21 -19 -11
-26 -17 -15 -14 28 9 139 43 205 62 30 9 59 20 65 25 16 14 -16 7 -100 -22z"/>
<path d="M1217 1859 c-22 -11 -37 -23 -34 -25 6 -7 63 22 72 36 8 13 7 13 -38
-11z"/>
<path d="M2915 1871 c-3 -6 1 -21 9 -33 22 -31 20 -45 -6 -44 -17 1 -24 -5
-26 -21 -4 -27 5 -29 30 -6 19 17 20 16 39 -7 11 -14 27 -51 36 -82 17 -62 23
-67 44 -42 10 13 10 19 0 36 -24 39 -54 93 -74 133 -29 59 -44 78 -52 66z"/>
<path d="M2372 1840 c0 -14 2 -19 5 -12 2 6 2 18 0 25 -3 6 -5 1 -5 -13z"/>
<path d="M649 1840 c-9 -5 -49 -20 -90 -34 -86 -29 -137 -48 -274 -104 -190
-78 -240 -101 -218 -102 12 0 24 4 28 9 3 5 20 13 38 16 17 4 46 13 62 20 17
7 50 20 75 30 59 23 75 29 140 58 30 13 98 39 150 57 52 18 99 37 104 41 14
13 3 19 -15 9z"/>
<path d="M705 1804 c-44 -19 -99 -44 -122 -54 -24 -11 -47 -20 -53 -20 -5 0
-10 -4 -10 -10 0 -5 -6 -10 -14 -10 -8 0 -16 -7 -20 -15 -3 -8 -3 -15 -1 -15
15 0 85 34 85 41 0 5 9 9 19 9 11 0 22 4 25 9 6 9 117 51 127 48 4 -1 16 6 26
16 11 9 23 14 26 10 4 -3 7 1 7 10 0 22 -1 22 -95 -19z"/>
<path d="M2606 1809 c-11 -58 -7 -1179 5 -1179 7 0 10 177 7 605 -2 333 -4
605 -4 605 -1 0 -4 -14 -8 -31z"/>
<path d="M1122 1806 c-55 -29 -79 -52 -38 -36 40 15 86 43 86 52 0 10 4 11
-48 -16z"/>
<path d="M2473 1765 c0 -27 2 -38 4 -22 2 15 2 37 0 50 -2 12 -4 0 -4 -28z"/>
<path d="M1079 1725 c-63 -42 -116 -81 -118 -87 -6 -18 220 129 234 152 11 17
0 11 -116 -65z"/>
<path d="M2362 1770 c0 -19 2 -27 5 -17 2 9 2 25 0 35 -3 9 -5 1 -5 -18z"/>
<path d="M2641 1764 c0 -11 3 -14 6 -6 3 7 2 16 -1 19 -3 4 -6 -2 -5 -13z"/>
<path d="M924 1744 c9 -36 21 -48 36 -39 8 5 6 13 -7 27 -10 11 -17 23 -15 26
2 4 -2 8 -9 11 -8 2 -10 -5 -5 -25z"/>
<path d="M870 1736 c-8 -8 -51 -33 -95 -56 -44 -23 -86 -48 -92 -57 -7 -9 -16
-14 -19 -10 -3 3 -22 -4 -42 -16 -21 -11 -63 -35 -96 -53 -52 -28 -55 -32 -30
-32 16 0 45 10 64 22 19 11 51 30 71 41 19 11 78 44 131 73 106 60 162 101
138 102 -9 0 -22 -6 -30 -14z"/>
<path d="M1010 1739 c0 -5 5 -7 10 -4 6 3 10 8 10 11 0 2 -4 4 -10 4 -5 0 -10
-5 -10 -11z"/>
<path d="M3687 1729 c6 -8 26 -23 45 -33 21 -13 29 -14 21 -5 -6 8 -26 23 -45
33 -21 13 -29 14 -21 5z"/>
<path d="M1735 1717 c-24 -27 -112 -144 -128 -170 -10 -15 -22 -25 -26 -23 -5
3 -17 -4 -27 -17 l-19 -22 23 19 c12 11 22 15 22 10 -1 -11 -43 -60 -56 -65
-5 -2 -30 -26 -54 -54 -25 -27 -36 -42 -24 -32 31 26 41 21 14 -8 -12 -13 -27
-22 -31 -19 -5 3 -9 -2 -9 -11 0 -10 -5 -13 -12 -9 -7 4 -10 4 -6 -1 7 -7 -12
-31 -106 -135 -18 -19 -48 -55 -67 -80 -39 -50 -65 -82 -129 -155 -58 -67 -74
-88 -84 -105 -11 -21 73 68 120 127 21 26 44 53 49 59 6 6 26 31 46 55 88 106
112 134 181 210 40 44 72 85 70 91 -4 14 18 39 28 33 5 -3 33 27 64 67 155
205 186 248 179 248 -4 -1 -13 -6 -18 -13z"/>
<path d="M1999 1672 c-18 -31 -38 -66 -42 -77 -4 -11 -16 -28 -25 -38 -14 -15
-14 -20 -2 -27 18 -11 31 -3 23 15 -3 8 -1 15 5 15 21 0 99 155 83 164 -4 3
-23 -21 -42 -52z"/>
<path d="M2351 1713 c0 -12 -4 -30 -7 -40 -5 -17 -5 -17 6 0 6 10 9 28 7 40
-4 22 -4 22 -6 0z"/>
<path d="M3206 1717 c3 -10 9 -15 12 -12 3 3 0 11 -7 18 -10 9 -11 8 -5 -6z"/>
<path d="M3905 1720 c3 -5 11 -10 16 -10 6 0 7 5 4 10 -3 6 -11 10 -16 10 -6
0 -7 -4 -4 -10z"/>
<path d="M2166 1668 c-33 -75 -86 -226 -86 -246 0 -25 16 -2 30 43 7 22 30 86
52 143 42 109 45 153 4 60z"/>
<path d="M2473 1635 c0 -44 2 -61 4 -37 2 23 2 59 0 80 -2 20 -4 1 -4 -43z"/>
<path d="M2644 1540 c0 -96 2 -136 3 -87 2 48 2 126 0 175 -1 48 -3 8 -3 -88z"/>
<path d="M4150 1690 c0 -5 5 -10 10 -10 6 0 10 5 10 10 0 6 -4 10 -10 10 -5 0
-10 -4 -10 -10z"/>
<path d="M3970 1680 c0 -5 5 -10 11 -10 5 0 7 5 4 10 -3 6 -8 10 -11 10 -2 0
-4 -4 -4 -10z"/>
<path d="M400 1655 c-13 -16 -3 -20 24 -9 9 3 13 10 10 15 -8 13 -20 11 -34
-6z"/>
<path d="M1514 1649 c-19 -22 -19 -22 4 -10 12 6 22 16 22 21 0 15 -5 12 -26
-11z"/>
<path d="M3096 1638 c15 -49 65 -138 74 -133 12 7 -7 54 -44 113 -29 46 -41
54 -30 20z"/>
<path d="M4020 1656 c0 -2 7 -9 15 -16 9 -7 15 -8 15 -2 0 5 -7 12 -15 16 -8
3 -15 4 -15 2z"/>
<path d="M1729 1633 c-13 -16 -12 -17 4 -4 9 7 17 15 17 17 0 8 -8 3 -21 -13z"/>
<path d="M295 1630 c-3 -6 1 -7 9 -4 18 7 21 14 7 14 -6 0 -13 -4 -16 -10z"/>
<path d="M337 1624 c-16 -9 -27 -17 -25 -20 7 -6 68 19 68 28 0 11 -11 9 -43
-8z"/>
<path d="M250 1610 c0 -5 4 -10 9 -10 6 0 13 5 16 10 3 6 -1 10 -9 10 -9 0
-16 -4 -16 -10z"/>
<path d="M1857 1558 c-19 -35 -56 -110 -82 -168 -26 -58 -60 -133 -75 -167
-16 -35 -25 -63 -21 -63 10 0 41 34 41 44 0 14 90 217 141 319 54 107 51 134
-4 35z"/>
<path d="M4400 1610 c0 -5 5 -10 11 -10 5 0 7 5 4 10 -3 6 -8 10 -11 10 -2 0
-4 -4 -4 -10z"/>
<path d="M1223 1588 c-18 -13 -35 -29 -38 -36 -6 -15 44 18 65 43 17 21 10 19
-27 -7z"/>
<path d="M4120 1601 c0 -5 5 -13 10 -16 6 -3 10 -2 10 4 0 5 -4 13 -10 16 -5
3 -10 2 -10 -4z"/>
<path d="M4446 1585 c4 -8 10 -12 15 -9 11 6 2 24 -11 24 -5 0 -7 -7 -4 -15z"/>
<path d="M180 1580 c0 -5 4 -10 9 -10 6 0 13 5 16 10 3 6 -1 10 -9 10 -9 0
-16 -4 -16 -10z"/>
<path d="M2831 1574 c0 -11 3 -14 6 -6 3 7 2 16 -1 19 -3 4 -6 -2 -5 -13z"/>
<path d="M230 1570 c0 -5 7 -7 15 -4 8 4 15 8 15 10 0 2 -7 4 -15 4 -8 0 -15
-4 -15 -10z"/>
<path d="M1430 1565 c-11 -13 -10 -14 4 -9 9 3 16 10 16 15 0 13 -6 11 -20 -6z"/>
<path d="M845 1535 c-22 -19 -43 -35 -48 -35 -9 0 -195 -127 -219 -149 -9 -9
-24 -22 -33 -30 -9 -7 -14 -15 -11 -18 2 -3 28 13 58 34 29 22 116 81 193 132
165 110 154 101 124 101 -13 -1 -42 -16 -64 -35z"/>
<path d="M3825 1560 c3 -5 8 -10 11 -10 2 0 4 5 4 10 0 6 -5 10 -11 10 -5 0
-7 -4 -4 -10z"/>
<path d="M3885 1515 c63 -55 95 -77 95 -66 0 6 -4 11 -10 11 -5 0 -32 20 -60
45 -28 25 -54 45 -58 45 -4 0 11 -16 33 -35z"/>
<path d="M2321 1524 c0 -11 3 -14 6 -6 3 7 2 16 -1 19 -3 4 -6 -2 -5 -13z"/>
<path d="M2842 1510 c0 -19 2 -27 5 -17 2 9 2 25 0 35 -3 9 -5 1 -5 -18z"/>
<path d="M1154 1508 l-19 -23 23 19 c21 18 27 26 19 26 -2 0 -12 -10 -23 -22z"/>
<path d="M1639 1513 c-13 -16 -12 -17 4 -4 9 7 17 15 17 17 0 8 -8 3 -21 -13z"/>
<path d="M1080 1505 c-7 -9 -11 -18 -8 -20 3 -3 11 1 18 10 7 9 11 18 8 20 -3
3 -11 -1 -18 -10z"/>
<path d="M440 1500 c-8 -5 -11 -12 -7 -16 4 -4 13 -2 19 4 15 15 7 24 -12 12z"/>
<path d="M1300 1499 c0 -5 5 -7 10 -4 6 3 10 8 10 11 0 2 -4 4 -10 4 -5 0 -10
-5 -10 -11z"/>
<path d="M1497 1480 c-8 -11 -43 -53 -78 -92 -35 -39 -72 -81 -82 -92 -10 -12
-51 -55 -91 -96 -154 -160 -216 -229 -216 -242 0 -7 12 1 27 17 14 17 60 66
102 110 194 205 366 403 358 411 -3 3 -12 -4 -20 -16z"/>
<path d="M1115 1480 c-3 -5 -1 -10 4 -10 6 0 11 5 11 10 0 6 -2 10 -4 10 -3 0
-8 -4 -11 -10z"/>
<path d="M970 1418 c-41 -34 -84 -70 -94 -80 -11 -10 -35 -28 -53 -41 -33 -22
-46 -51 -18 -41 8 4 13 10 10 14 -3 5 1 10 9 12 13 3 115 86 210 170 61 54 9
26 -64 -34z"/>
<path d="M2311 1464 c0 -11 3 -14 6 -6 3 7 2 16 -1 19 -3 4 -6 -2 -5 -13z"/>
<path d="M4285 1459 c-10 -15 3 -25 16 -12 7 7 7 13 1 17 -6 3 -14 1 -17 -5z"/>
<path d="M1075 1440 c-3 -5 -1 -10 4 -10 6 0 11 5 11 10 0 6 -2 10 -4 10 -3 0
-8 -4 -11 -10z"/>
<path d="M3136 1441 c-4 -5 5 -40 20 -78 14 -37 39 -110 55 -160 15 -51 34
-103 40 -115 l12 -22 9 24 c5 14 5 26 -1 29 -5 4 -13 20 -17 36 -4 17 -10 35
-14 40 -4 6 -10 19 -12 30 -3 11 -9 29 -14 39 -5 14 -4 17 4 12 7 -4 12 -2 12
4 0 6 -7 13 -15 16 -8 4 -15 16 -15 29 0 12 -6 28 -14 35 -8 6 -16 28 -18 47
-3 36 -20 54 -32 34z"/>
<path d="M3916 1435 c-9 -26 -7 -32 5 -12 6 10 9 21 6 23 -2 3 -7 -2 -11 -11z"/>
<path d="M3420 1437 c0 -12 142 -269 146 -264 2 2 -5 21 -15 43 -27 54 -131
231 -131 221z"/>
<path d="M3741 1424 c0 -11 3 -14 6 -6 3 7 2 16 -1 19 -3 4 -6 -2 -5 -13z"/>
<path d="M815 1420 c-3 -6 1 -7 9 -4 18 7 21 14 7 14 -6 0 -13 -4 -16 -10z"/>
<path d="M285 1410 c-3 -6 1 -7 9 -4 18 7 21 14 7 14 -6 0 -13 -4 -16 -10z"/>
<path d="M2902 1395 c0 -16 2 -22 5 -12 2 9 2 23 0 30 -3 6 -5 -1 -5 -18z"/>
<path d="M2858 1365 c2 -25 7 -45 11 -45 3 0 5 20 3 45 -2 25 -7 45 -11 45 -3
0 -5 -20 -3 -45z"/>
<path d="M4836 1394 c-8 -20 0 -32 14 -18 5 5 5 15 1 22 -6 11 -10 10 -15 -4z"/>
<path d="M305 1390 c-3 -5 -1 -10 4 -10 6 0 11 5 11 10 0 6 -2 10 -4 10 -3 0
-8 -4 -11 -10z"/>
<path d="M1004 1378 l-19 -23 23 19 c21 18 27 26 19 26 -2 0 -12 -10 -23 -22z"/>
<path d="M1885 1315 c-35 -79 -51 -106 -89 -145 -20 -21 -63 -96 -146 -256
-40 -76 -78 -145 -83 -152 -30 -38 -381 -762 -370 -762 7 0 13 3 13 8 0 4 11
20 25 36 13 16 22 32 19 37 -5 8 110 248 124 259 4 3 8 12 10 20 4 18 102 213
111 220 3 3 8 14 9 25 6 32 66 135 79 135 7 0 10 7 6 17 -4 10 -2 14 5 9 6 -3
14 -1 18 5 4 8 3 9 -4 5 -7 -4 -12 -1 -12 6 0 18 12 33 33 41 9 3 17 12 17 19
0 9 -3 9 -11 -2 -9 -13 -10 -13 -6 0 2 8 10 15 18 15 8 0 48 67 95 160 45 87
89 168 99 180 18 21 95 180 95 196 0 28 -21 -1 -55 -76z m-195 -395 c0 -5 -5
-10 -11 -10 -5 0 -7 5 -4 10 3 6 8 10 11 10 2 0 4 -4 4 -10z"/>
<path d="M3865 1380 c-3 -5 -2 -10 4 -10 5 0 13 5 16 10 3 6 2 10 -4 10 -5 0
-13 -4 -16 -10z"/>
<path d="M4870 1369 c0 -5 5 -7 10 -4 6 3 10 8 10 11 0 2 -4 4 -10 4 -5 0 -10
-5 -10 -11z"/>
<path d="M3810 1362 c0 -5 9 -17 20 -27 11 -10 20 -15 20 -12 0 4 -9 16 -20
27 -11 11 -20 16 -20 12z"/>
<path d="M2912 1325 c0 -16 2 -22 5 -12 2 9 2 23 0 30 -3 6 -5 -1 -5 -18z"/>
<path d="M515 1330 c3 -5 8 -10 11 -10 2 0 4 5 4 10 0 6 -5 10 -11 10 -5 0 -7
-4 -4 -10z"/>
<path d="M3655 1307 c10 -15 20 -25 23 -22 3 3 -5 16 -17 28 l-23 22 17 -28z"/>
<path d="M1615 1300 c-3 -5 -1 -10 4 -10 6 0 11 5 11 10 0 6 -2 10 -4 10 -3 0
-8 -4 -11 -10z"/>
<path d="M2873 1275 c0 -22 2 -30 4 -17 2 12 2 30 0 40 -3 9 -5 -1 -4 -23z"/>
<path d="M2922 1270 c-1 -14 3 -43 7 -65 6 -26 9 -31 9 -15 1 14 -3 43 -7 65
-6 26 -9 31 -9 15z"/>
<path d="M3290 1261 c-9 -18 -9 -29 0 -50 11 -25 12 -25 26 -6 18 24 18 36 0
60 -13 18 -14 18 -26 -4z"/>
<path d="M3907 1259 c7 -7 15 -10 18 -7 3 3 -2 9 -12 12 -14 6 -15 5 -6 -5z"/>
<path d="M3350 1257 c0 -16 47 -124 116 -263 41 -84 74 -154 74 -157 0 -3 32
-72 71 -154 39 -81 125 -267 191 -413 66 -146 122 -267 124 -269 1 -1 7 -1 12
0 11 4 -18 72 -151 359 -49 107 -131 285 -182 395 -148 322 -255 532 -255 502z"/>
<path d="M755 1240 c-3 -5 1 -10 9 -10 9 0 16 5 16 10 0 6 -4 10 -9 10 -6 0
-13 -4 -16 -10z"/>
<path d="M3570 1241 c0 -5 5 -13 10 -16 6 -3 10 -2 10 4 0 5 -4 13 -10 16 -5
3 -10 2 -10 -4z"/>
<path d="M1400 1225 c-7 -9 -11 -17 -9 -20 3 -2 10 5 17 15 14 24 10 26 -8 5z"/>
<path d="M707 1205 c-14 -14 -31 -25 -37 -25 -5 0 -10 -4 -10 -8 0 -4 -15 -16
-32 -27 -18 -10 -44 -30 -58 -43 -14 -13 -44 -37 -67 -53 -24 -17 -43 -34 -43
-39 0 -18 14 -10 60 31 25 22 61 52 80 67 19 15 41 33 48 40 7 6 16 12 20 12
12 0 77 59 71 64 -3 3 -17 -6 -32 -19z"/>
<path d="M2882 1210 c0 -14 2 -19 5 -12 2 6 2 18 0 25 -3 6 -5 1 -5 -13z"/>
<path d="M3940 1220 c0 -5 5 -10 10 -10 6 0 10 5 10 10 0 6 -4 10 -10 10 -5 0
-10 -4 -10 -10z"/>
<path d="M4440 1220 c0 -5 19 -22 43 -38 23 -17 58 -44 77 -60 19 -17 46 -37
59 -44 13 -7 40 -28 59 -45 20 -18 44 -36 55 -39 11 -3 29 -14 41 -24 11 -11
32 -28 45 -39 27 -24 43 -27 35 -8 -2 7 -38 35 -79 62 -41 28 -75 53 -75 58 0
4 -5 7 -10 7 -6 0 -22 10 -35 23 -43 40 -198 157 -208 157 -4 0 -7 -4 -7 -10z"/>
<path d="M1740 1202 c-12 -4 -14 -32 -2 -32 13 0 62 25 62 31 0 7 -41 7 -60 1z"/>
<path d="M3590 1201 c0 -5 5 -13 10 -16 6 -3 10 -2 10 4 0 5 -4 13 -10 16 -5
3 -10 2 -10 -4z"/>
<path d="M1359 1173 c-13 -16 -12 -17 4 -4 16 13 21 21 13 21 -2 0 -10 -8 -17
-17z"/>
<path d="M3329 1168 c17 -44 43 -89 48 -85 2 3 -7 28 -21 56 -27 52 -43 69
-27 29z"/>
<path d="M3620 1162 c0 -5 7 -15 15 -22 8 -7 15 -8 15 -2 0 5 -7 15 -15 22 -8
7 -15 8 -15 2z"/>
<path d="M3660 1170 c-13 -36 -5 -65 36 -126 24 -36 44 -68 44 -71 0 -3 18
-31 40 -62 83 -115 230 -345 230 -358 0 -7 4 -13 9 -13 5 0 23 -23 41 -50 18
-28 35 -48 38 -46 3 3 -16 37 -41 76 -26 38 -47 72 -47 74 0 2 -48 75 -106
162 -170 254 -227 347 -235 384 -3 19 -8 33 -9 30z"/>
<path d="M2942 1140 c0 -14 2 -19 5 -12 2 6 2 18 0 25 -3 6 -5 1 -5 -13z"/>
<path d="M3570 1152 c0 -12 39 -82 46 -82 4 0 -34 80 -42 89 -2 2 -4 -1 -4 -7z"/>
<path d="M1307 1114 c-16 -19 -25 -34 -19 -34 5 0 22 16 36 35 35 45 20 44
-17 -1z"/>
<path d="M445 1119 c-4 -6 -5 -12 -2 -15 2 -3 7 2 10 11 7 17 1 20 -8 4z"/>
<path d="M2952 1080 c0 -14 2 -19 5 -12 2 6 2 18 0 25 -3 6 -5 1 -5 -13z"/>
<path d="M405 1080 c-3 -5 -1 -10 4 -10 6 0 11 5 11 10 0 6 -2 10 -4 10 -3 0
-8 -4 -11 -10z"/>
<path d="M2802 1065 c0 -16 2 -22 5 -12 2 9 2 23 0 30 -3 6 -5 -1 -5 -18z"/>
<path d="M1260 1055 c-7 -9 -8 -15 -2 -15 5 0 12 7 16 15 3 8 4 15 2 15 -2 0
-9 -7 -16 -15z"/>
<path d="M346 1045 c-3 -8 -1 -15 4 -15 13 0 22 18 11 24 -5 3 -11 -1 -15 -9z"/>
<path d="M1943 1045 c-3 -9 -3 -18 -1 -21 3 -3 8 4 11 16 6 23 -1 27 -10 5z"/>
<path d="M3634 1016 c11 -24 23 -42 25 -40 5 5 -27 72 -38 78 -5 3 1 -14 13
-38z"/>
<path d="M2962 1020 c0 -14 2 -19 5 -12 2 6 2 18 0 25 -3 6 -5 1 -5 -13z"/>
<path d="M3315 1030 c3 -5 8 -10 11 -10 2 0 4 5 4 10 0 6 -5 10 -11 10 -5 0
-7 -4 -4 -10z"/>
<path d="M314 1022 c3 -5 -6 -16 -19 -26 -65 -49 -62 -45 -42 -46 9 0 17 4 17
10 0 5 14 16 30 25 29 15 42 45 19 45 -5 0 -8 -4 -5 -8z"/>
<path d="M1229 1013 c-13 -16 -12 -17 4 -4 9 7 17 15 17 17 0 8 -8 3 -21 -13z"/>
<path d="M3402 1022 c26 -60 111 -223 114 -219 6 6 -103 227 -112 227 -3 0 -4
-3 -2 -8z"/>
<path d="M1087 972 c-20 -21 -37 -41 -37 -46 0 -4 6 -1 13 6 6 8 25 28 41 46
41 45 28 40 -17 -6z"/>
<path d="M2861 994 c0 -11 3 -14 6 -6 3 7 2 16 -1 19 -3 4 -6 -2 -5 -13z"/>
<path d="M431 976 c-8 -9 -8 -16 -2 -20 6 -4 15 3 21 14 12 23 -2 27 -19 6z"/>
<path d="M1200 983 c0 -5 -18 -28 -40 -51 -43 -47 -47 -54 -27 -46 18 8 90
104 78 104 -6 0 -11 -3 -11 -7z"/>
<path d="M2971 974 c0 -11 3 -14 6 -6 3 7 2 16 -1 19 -3 4 -6 -2 -5 -13z"/>
<path d="M2922 950 c0 -14 2 -19 5 -12 2 6 2 18 0 25 -3 6 -5 1 -5 -13z"/>
<path d="M3351 944 c0 -11 3 -14 6 -6 3 7 2 16 -1 19 -3 4 -6 -2 -5 -13z"/>
<path d="M3600 957 c0 -8 134 -248 220 -392 26 -44 84 -152 130 -240 122 -237
172 -327 177 -321 3 2 -6 24 -20 48 -13 24 -56 104 -95 178 -109 210 -201 379
-212 390 -3 3 -10 14 -16 25 -70 129 -99 179 -166 290 -10 17 -18 26 -18 22z"/>
<path d="M189 922 c-19 -16 -41 -31 -49 -34 -9 -3 -10 -7 -3 -11 6 -4 21 3 34
14 13 12 33 27 43 35 11 7 17 16 14 19 -3 4 -21 -7 -39 -23z"/>
<path d="M395 939 c-4 -6 -5 -13 -2 -16 7 -7 27 6 27 18 0 12 -17 12 -25 -2z"/>
<path d="M3660 945 c0 -13 58 -113 114 -195 28 -41 65 -101 81 -132 17 -32 33
-58 37 -58 8 0 -42 95 -81 154 -14 21 -54 84 -88 139 -35 55 -63 97 -63 92z"/>
<path d="M2871 904 c0 -11 3 -14 6 -6 3 7 2 16 -1 19 -3 4 -6 -2 -5 -13z"/>
<path d="M2992 880 c0 -14 2 -19 5 -12 2 6 2 18 0 25 -3 6 -5 1 -5 -13z"/>
<path d="M4896 865 c62 -56 65 -57 72 -50 4 4 -4 15 -18 24 -13 9 -34 26 -47
39 -12 12 -28 22 -34 22 -7 0 5 -16 27 -35z"/>
<path d="M1087 842 c-15 -15 -27 -32 -27 -38 0 -5 14 6 30 25 28 32 34 41 27
41 -2 0 -15 -13 -30 -28z"/>
<path d="M2871 854 c0 -11 3 -14 6 -6 3 7 2 16 -1 19 -3 4 -6 -2 -5 -13z"/>
<path d="M95 850 c-3 -5 -2 -10 4 -10 5 0 13 5 16 10 3 6 2 10 -4 10 -5 0 -13
-4 -16 -10z"/>
<path d="M2943 815 c0 -22 2 -30 4 -17 2 12 2 30 0 40 -3 9 -5 -1 -4 -23z"/>
<path d="M3003 795 c0 -33 2 -45 4 -27 2 18 2 45 0 60 -2 15 -4 0 -4 -33z"/>
<path d="M1558 618 c-58 -117 -123 -249 -143 -293 -21 -44 -44 -92 -51 -107
-63 -120 -98 -198 -91 -204 3 -3 13 10 22 28 39 76 155 309 155 312 0 3 218
453 227 469 2 4 0 7 -4 7 -5 0 -56 -96 -115 -212z"/>
<path d="M4977 796 c-4 -10 -1 -13 9 -9 7 3 14 9 14 14 0 14 -17 10 -23 -5z"/>
<path d="M5 779 c-4 -6 -5 -12 -2 -15 2 -3 7 2 10 11 7 17 1 20 -8 4z"/>
<path d="M1035 779 c-4 -6 -5 -12 -2 -15 2 -3 7 2 10 11 7 17 1 20 -8 4z"/>
<path d="M5007 784 c-4 -4 1 -13 11 -20 21 -16 35 -18 30 -3 -2 6 -7 10 -12 9
-5 -1 -12 3 -16 9 -3 6 -9 8 -13 5z"/>
<path d="M2953 715 c0 -27 2 -38 4 -22 2 15 2 37 0 50 -2 12 -4 0 -4 -28z"/>
<path d="M5070 729 c0 -5 5 -7 10 -4 6 3 10 8 10 11 0 2 -4 4 -10 4 -5 0 -10
-5 -10 -11z"/>
<path d="M3012 695 c0 -16 2 -22 5 -12 2 9 2 23 0 30 -3 6 -5 -1 -5 -18z"/>
<path d="M3478 695 c2 -14 8 -25 12 -25 10 0 1 38 -10 45 -4 2 -5 -7 -2 -20z"/>
<path d="M5100 705 c0 -5 5 -17 10 -25 5 -8 10 -10 10 -5 0 6 -5 17 -10 25 -5
8 -10 11 -10 5z"/>
<path d="M4287 656 c-3 -7 8 -27 25 -42 16 -16 51 -56 76 -89 25 -33 49 -62
52 -65 3 -3 17 -21 32 -40 15 -19 37 -47 50 -62 13 -15 37 -43 53 -63 17 -21
38 -47 49 -59 10 -11 30 -37 45 -56 40 -53 60 -74 66 -68 3 3 -1 13 -10 21 -8
9 -15 20 -15 25 0 6 -4 12 -9 14 -5 1 -37 39 -72 83 -34 44 -66 82 -71 83 -4
2 -8 8 -8 13 0 8 -26 41 -134 169 -11 14 -41 51 -65 83 -51 67 -57 72 -64 53z"/>
<path d="M2963 615 c0 -27 2 -38 4 -22 2 15 2 37 0 50 -2 12 -4 0 -4 -28z"/>
<path d="M3022 620 c0 -14 2 -19 5 -12 2 6 2 18 0 25 -3 6 -5 1 -5 -13z"/>
<path d="M3500 631 c0 -5 5 -13 10 -16 6 -3 10 -2 10 4 0 5 -4 13 -10 16 -5 3
-10 2 -10 -4z"/>
<path d="M2600 598 c0 -19 2 -20 10 -8 13 19 13 30 0 30 -5 0 -10 -10 -10 -22z"/>
<path d="M3520 586 c0 -8 5 -18 10 -21 6 -3 10 1 10 9 0 8 -4 18 -10 21 -5 3
-10 -1 -10 -9z"/>
<path d="M4320 578 c0 -10 32 -68 41 -73 17 -11 9 11 -16 45 -14 19 -25 31
-25 28z"/>
<path d="M2211 554 c0 -11 3 -14 6 -6 3 7 2 16 -1 19 -3 4 -6 -2 -5 -13z"/>
<path d="M3032 540 c0 -14 2 -19 5 -12 2 6 2 18 0 25 -3 6 -5 1 -5 -13z"/>
<path d="M3540 540 c0 -5 5 -10 11 -10 5 0 7 5 4 10 -3 6 -8 10 -11 10 -2 0
-4 -4 -4 -10z"/>
<path d="M3900 545 c0 -5 9 -23 20 -40 11 -16 20 -25 20 -20 0 6 -9 24 -20 40
-11 17 -20 26 -20 20z"/>
<path d="M3640 506 c0 -11 70 -149 70 -139 0 13 -60 143 -66 143 -2 0 -4 -2
-4 -4z"/>
<path d="M2202 465 c0 -16 2 -22 5 -12 2 9 2 23 0 30 -3 6 -5 -1 -5 -18z"/>
<path d="M3571 464 c0 -11 3 -14 6 -6 3 7 2 16 -1 19 -3 4 -6 -2 -5 -13z"/>
<path d="M1127 463 c-4 -3 -7 -11 -7 -17 0 -6 5 -5 12 2 6 6 9 14 7 17 -3 3
-9 2 -12 -2z"/>
<path d="M3950 464 c0 -12 38 -74 46 -74 3 0 -5 17 -17 38 -28 46 -29 47 -29
36z"/>
<path d="M4395 460 c-3 -5 -1 -10 4 -10 6 0 11 5 11 10 0 6 -2 10 -4 10 -3 0
-8 -4 -11 -10z"/>
<path d="M4416 425 c4 -8 11 -15 16 -15 6 0 5 6 -2 15 -7 8 -14 15 -16 15 -2
0 -1 -7 2 -15z"/>
<path d="M4100 422 c0 -4 5 -13 11 -19 7 -7 27 -38 45 -70 18 -32 34 -52 34
-45 0 16 -72 141 -82 142 -5 0 -8 -4 -8 -8z"/>
<path d="M3601 370 c15 -45 24 -54 15 -15 -4 17 -12 34 -17 40 -5 5 -4 -6 2
-25z"/>
<path d="M2186 375 c-3 -9 -5 -29 -5 -43 1 -20 3 -17 9 13 8 43 7 57 -4 30z"/>
<path d="M4010 364 c0 -6 7 -19 15 -30 8 -10 14 -14 14 -9 0 6 -6 19 -14 29
-8 11 -15 15 -15 10z"/>
<path d="M3721 335 c0 -5 6 -21 14 -35 8 -14 14 -20 14 -15 0 6 -6 21 -14 35
-8 14 -14 21 -14 15z"/>
<path d="M3631 294 c0 -11 3 -14 6 -6 3 7 2 16 -1 19 -3 4 -6 -2 -5 -13z"/>
<path d="M4040 300 c0 -5 5 -10 11 -10 5 0 7 5 4 10 -3 6 -8 10 -11 10 -2 0
-4 -4 -4 -10z"/>
<path d="M2546 275 c4 -8 7 -15 9 -15 2 0 5 7 9 15 3 9 0 15 -9 15 -9 0 -12
-6 -9 -15z"/>
<path d="M2588 260 c2 -16 6 -30 8 -30 2 0 4 14 4 30 0 17 -4 30 -8 30 -5 0
-7 -13 -4 -30z"/>
<path d="M3750 263 c1 -11 50 -90 50 -80 0 11 -39 87 -45 87 -3 0 -5 -3 -5 -7z"/>
<path d="M4065 260 c3 -5 8 -10 11 -10 2 0 4 5 4 10 0 6 -5 10 -11 10 -5 0 -7
-4 -4 -10z"/>
<path d="M3022 220 c0 -14 2 -19 5 -12 2 6 2 18 0 25 -3 6 -5 1 -5 -13z"/>
<path d="M4100 207 c0 -10 91 -167 97 -167 5 0 -76 150 -88 165 -5 5 -9 6 -9
2z"/>
<path d="M4232 198 c-14 -14 -16 -28 -3 -28 9 0 24 30 18 36 -2 2 -9 -2 -15
-8z"/>
<path d="M3032 140 c0 -19 2 -27 5 -17 2 9 2 25 0 35 -3 9 -5 1 -5 -18z"/>
<path d="M3832 105 c18 -35 34 -63 36 -61 4 5 -56 126 -63 126 -3 0 10 -29 27
-65z"/>
<path d="M4260 164 c0 -13 71 -126 76 -121 3 2 -11 30 -30 62 -39 64 -46 73
-46 59z"/>
<path d="M2591 134 c0 -11 3 -14 6 -6 3 7 2 16 -1 19 -3 4 -6 -2 -5 -13z"/>
<path d="M2551 124 c0 -11 3 -14 6 -6 3 7 2 16 -1 19 -3 4 -6 -2 -5 -13z"/>
<path d="M2591 84 c0 -11 3 -14 6 -6 3 7 2 16 -1 19 -3 4 -6 -2 -5 -13z"/>
<path d="M3043 50 c0 -30 2 -43 4 -28 2 16 2 40 0 55 -2 16 -4 3 -4 -27z"/>
<path d="M3113 65 c0 -22 2 -30 4 -17 2 12 2 30 0 40 -3 9 -5 -1 -4 -23z"/>
<path d="M4740 92 c0 -5 7 -13 16 -16 10 -4 14 -1 12 6 -5 15 -28 23 -28 10z"/>
<path d="M2541 14 c0 -11 3 -14 6 -6 3 7 2 16 -1 19 -3 4 -6 -2 -5 -13z"/>
<path d="M3870 21 c0 -5 5 -13 10 -16 6 -3 10 -2 10 4 0 5 -4 13 -10 16 -5 3
-10 2 -10 -4z"/>
<path d="M4200 21 c0 -6 4 -13 10 -16 6 -3 7 1 4 9 -7 18 -14 21 -14 7z"/>
<path d="M4828 3 c7 -3 16 -2 19 1 4 3 -2 6 -13 5 -11 0 -14 -3 -6 -6z"/>
</g>
</svg>
