<?xml version="1.0" standalone="no"?>
<!DOCTYPE svg PUBLIC "-//W3C//DTD SVG 20010904//EN"
 "http://www.w3.org/TR/2001/REC-SVG-20010904/DTD/svg10.dtd">
<svg version="1.0" xmlns="http://www.w3.org/2000/svg"
 width="512.000000pt" height="512.000000pt" viewBox="0 0 512.000000 512.000000"
 preserveAspectRatio="xMidYMid meet">
<metadata>
Created by potrace 1.16, written by Peter Selinger 2001-2019
</metadata>
<g transform="translate(0.000000,512.000000) scale(0.100000,-0.100000)"
fill="#000000" stroke="none">
<path d="M2548 4333 c-2 -630 -6 -794 -16 -818 -10 -23 -15 -125 -18 -425 -2
-233 0 -381 5 -360 5 19 11 194 15 389 5 330 14 424 31 345 11 -49 14 -56 25
-49 13 8 13 75 0 75 -7 0 -10 278 -10 815 0 709 -2 815 -15 815 -12 0 -15
-104 -17 -787z"/>
<path d="M3794 5088 c-25 -38 -110 -218 -104 -218 9 0 123 221 117 227 -3 2
-9 -2 -13 -9z"/>
<path d="M1170 5075 c0 -8 4 -15 10 -15 5 0 7 7 4 15 -4 8 -8 15 -10 15 -2 0
-4 -7 -4 -15z"/>
<path d="M1176 4999 c-9 -11 -16 -23 -16 -27 0 -15 25 -62 33 -62 4 0 7 -4 7
-9 0 -6 16 -36 35 -68 19 -32 35 -67 35 -79 0 -30 8 -34 37 -21 23 10 28 9 41
-11 16 -25 32 -29 32 -8 0 12 -110 216 -147 272 -20 31 -37 35 -57 13z m88
-127 c25 -39 47 -82 51 -94 8 -29 -88 120 -108 167 -14 35 10 3 57 -73z"/>
<path d="M2382 4865 c0 -51 2 -73 8 -60 4 12 4 48 0 80 l-7 60 -1 -80z"/>
<path d="M2972 4885 c0 -16 2 -22 5 -12 2 9 2 23 0 30 -3 6 -5 -1 -5 -18z"/>
<path d="M4509 4873 c-32 -39 -44 -57 -32 -50 13 8 57 67 50 67 -2 0 -10 -8
-18 -17z"/>
<path d="M3910 4830 c0 -5 5 -10 10 -10 6 0 10 5 10 10 0 6 -4 10 -10 10 -5 0
-10 -4 -10 -10z"/>
<path d="M3640 4800 c0 -16 4 -30 9 -30 5 0 11 14 13 30 3 20 0 30 -9 30 -8 0
-13 -12 -13 -30z"/>
<path d="M3990 4819 c0 -5 5 -7 10 -4 6 3 10 8 10 11 0 2 -4 4 -10 4 -5 0 -10
-5 -10 -11z"/>
<path d="M1750 4805 c0 -9 6 -12 15 -9 8 4 12 10 9 15 -8 14 -24 10 -24 -6z"/>
<path d="M3691 4794 c0 -11 3 -14 6 -6 3 7 2 16 -1 19 -3 4 -6 -2 -5 -13z"/>
<path d="M4427 4775 c-15 -19 -25 -35 -21 -35 7 0 28 25 45 53 15 27 7 20 -24
-18z"/>
<path d="M2960 4771 c0 -11 5 -23 10 -26 6 -4 10 5 10 19 0 14 -4 26 -10 26
-5 0 -10 -9 -10 -19z"/>
<path d="M4107 4770 c-9 -13 -14 -26 -12 -29 9 -8 38 26 33 40 -3 8 -10 5 -21
-11z"/>
<path d="M1750 4675 c0 -78 3 -95 15 -95 12 0 15 17 15 95 0 78 -3 95 -15 95
-12 0 -15 -17 -15 -95z"/>
<path d="M2379 4745 c-2 -27 -2 -67 0 -133 1 -13 5 -20 11 -17 12 7 12 132 0
160 -8 17 -9 16 -11 -10z"/>
<path d="M3897 4753 c-12 -12 -7 -22 8 -17 8 4 15 10 15 15 0 11 -14 12 -23 2z"/>
<path d="M3363 4710 c0 -25 2 -35 4 -22 2 12 2 32 0 45 -2 12 -4 2 -4 -23z"/>
<path d="M3650 4725 c-7 -16 -16 -38 -21 -47 -6 -12 -5 -16 4 -12 16 6 40 60
34 76 -2 7 -10 0 -17 -17z"/>
<path d="M4360 4699 c-33 -41 -46 -64 -32 -55 17 10 74 86 65 86 -4 0 -19 -14
-33 -31z"/>
<path d="M3872 4708 c-7 -7 -12 -17 -12 -24 0 -7 -6 -14 -12 -17 -10 -3 -10
-7 -1 -17 8 -9 15 -4 28 24 18 39 17 54 -3 34z"/>
<path d="M1367 4668 c-8 -29 0 -58 14 -58 11 0 11 37 0 65 -7 18 -8 17 -14 -7z"/>
<path d="M3577 4514 c2 -97 5 -179 7 -181 3 -3 10 -2 16 2 9 5 11 56 8 179 -3
141 -6 171 -18 174 -13 2 -15 -23 -13 -174z"/>
<path d="M4027 4647 c-26 -31 -35 -57 -19 -57 8 0 55 80 50 86 -3 2 -16 -11
-31 -29z"/>
<path d="M3730 4658 c0 -5 18 -8 40 -8 22 0 40 4 40 9 0 5 -18 8 -40 8 -22 -1
-40 -5 -40 -9z"/>
<path d="M3690 4650 c0 -5 5 -10 10 -10 6 0 10 5 10 10 0 6 -4 10 -10 10 -5 0
-10 -4 -10 -10z"/>
<path d="M4290 4614 c0 -8 5 -12 10 -9 6 3 10 10 10 16 0 5 -4 9 -10 9 -5 0
-10 -7 -10 -16z"/>
<path d="M3870 4610 c0 -5 5 -10 10 -10 6 0 10 5 10 10 0 6 -4 10 -10 10 -5 0
-10 -4 -10 -10z"/>
<path d="M3347 4594 c-11 -11 -8 -794 3 -794 5 0 11 4 14 9 9 14 7 786 -2 789
-4 1 -11 -1 -15 -4z"/>
<path d="M4158 4467 c-59 -67 -116 -133 -128 -147 -11 -14 -30 -35 -42 -48
-11 -12 -18 -25 -15 -28 3 -4 25 15 49 42 24 27 66 73 93 104 61 66 149 170
159 188 4 6 4 12 -1 12 -4 0 -56 -55 -115 -123z"/>
<path d="M1367 4573 c-18 -17 -2 -24 50 -22 l56 3 28 -48 c32 -56 56 -83 65
-73 4 4 2 17 -5 29 -41 76 -51 91 -68 103 -18 15 -114 21 -126 8z"/>
<path d="M3871 4568 c-1 -10 -5 -18 -11 -18 -5 0 -10 -6 -10 -14 0 -8 -10 -16
-22 -18 l-23 -3 -3 -327 c-2 -308 -1 -328 15 -328 17 0 18 19 15 310 -3 285
-1 312 15 335 10 13 24 25 31 25 14 0 14 7 2 35 -7 17 -9 17 -9 3z"/>
<path d="M3648 4523 c-7 -82 -9 -658 -3 -651 8 8 19 698 12 698 -3 0 -7 -21
-9 -47z"/>
<path d="M1753 4552 c-22 -3 -22 -6 -25 -183 -2 -99 1 -187 5 -195 10 -18 41
-18 56 0 14 17 10 361 -4 374 -6 4 -20 6 -32 4z"/>
<path d="M2052 4525 c0 -16 2 -22 5 -12 2 9 2 23 0 30 -3 6 -5 -1 -5 -18z"/>
<path d="M1970 4519 c0 -11 4 -18 10 -14 5 3 7 12 3 20 -7 21 -13 19 -13 -6z"/>
<path d="M665 4500 c-3 -5 -1 -10 4 -10 6 0 11 5 11 10 0 6 -2 10 -4 10 -3 0
-8 -4 -11 -10z"/>
<path d="M706 4465 c-23 -34 -12 -45 16 -17 16 15 19 25 12 32 -8 8 -16 3 -28
-15z"/>
<path d="M4056 4454 c-9 -8 -16 -23 -16 -32 1 -14 5 -12 20 7 30 35 26 56 -4
25z"/>
<path d="M2051 4434 c0 -11 3 -14 6 -6 3 7 2 16 -1 19 -3 4 -6 -2 -5 -13z"/>
<path d="M1522 4407 c-14 -16 11 -57 34 -57 8 0 14 -7 14 -16 0 -30 25 -7 28
26 3 27 1 32 -13 26 -12 -4 -18 0 -22 14 -6 23 -25 26 -41 7z"/>
<path d="M3580 4246 c0 -43 4 -76 10 -76 23 0 25 140 3 148 -10 3 -13 -16 -13
-72z"/>
<path d="M1590 4258 c0 -15 5 -30 11 -33 19 -12 21 2 5 32 l-15 28 -1 -27z"/>
<path d="M4670 4214 c-41 -36 -92 -76 -112 -90 -21 -13 -38 -29 -38 -34 0 -15
18 -12 38 8 11 9 39 33 63 52 67 54 145 129 134 130 -5 0 -44 -30 -85 -66z"/>
<path d="M4866 4245 c-11 -8 -17 -17 -14 -20 2 -3 13 4 23 15 21 23 18 25 -9
5z"/>
<path d="M940 4210 c0 -13 5 -20 13 -17 6 2 12 10 12 17 0 7 -6 15 -12 18 -8
2 -13 -5 -13 -18z"/>
<path d="M4800 4201 c-14 -9 -26 -19 -28 -23 -2 -5 -8 -8 -13 -8 -5 0 -17 -6
-26 -14 -55 -44 -232 -190 -253 -209 -14 -13 -43 -36 -65 -52 -22 -17 -41 -33
-43 -37 -2 -5 -8 -8 -13 -8 -5 0 -33 -16 -62 -35 -42 -29 -47 -35 -28 -35 21
0 101 53 109 72 2 5 9 8 16 8 7 0 33 17 57 38 24 20 66 55 93 77 27 22 60 49
72 60 12 11 37 32 55 45 18 14 37 30 43 35 6 6 20 17 32 25 66 47 114 101 54
61z"/>
<path d="M1560 4195 c0 -3 4 -15 10 -25 7 -13 6 -21 -5 -30 -8 -7 -15 -18 -15
-24 0 -19 47 -59 59 -51 17 10 13 43 -5 53 -10 6 -17 23 -18 42 -1 19 -7 35
-13 38 -7 2 -13 1 -13 -3z"/>
<path d="M3583 4003 c1 -95 6 -159 12 -160 6 -2 9 42 9 117 -2 183 -3 200 -13
200 -5 0 -9 -67 -8 -157z"/>
<path d="M1017 4144 c-15 -15 -5 -31 63 -103 66 -69 72 -73 95 -63 25 12 25
12 -56 89 -87 83 -92 87 -102 77z"/>
<path d="M196 4123 c-6 -14 -5 -15 5 -6 7 7 10 15 7 18 -3 3 -9 -2 -12 -12z"/>
<path d="M160 4100 c0 -5 5 -10 11 -10 5 0 7 5 4 10 -3 6 -8 10 -11 10 -2 0
-4 -4 -4 -10z"/>
<path d="M1732 4050 c0 -19 2 -27 5 -17 2 9 2 25 0 35 -3 9 -5 1 -5 -18z"/>
<path d="M3262 4050 c0 -14 2 -19 5 -12 2 6 2 18 0 25 -3 6 -5 1 -5 -13z"/>
<path d="M3861 4054 c0 -11 3 -14 6 -6 3 7 2 16 -1 19 -3 4 -6 -2 -5 -13z"/>
<path d="M321 4034 c0 -11 3 -14 6 -6 3 7 2 16 -1 19 -3 4 -6 -2 -5 -13z"/>
<path d="M3862 4000 c0 -19 2 -27 5 -17 2 9 2 25 0 35 -3 9 -5 1 -5 -18z"/>
<path d="M340 4016 c0 -2 7 -6 15 -10 8 -3 15 -1 15 4 0 6 -7 10 -15 10 -8 0
-15 -2 -15 -4z"/>
<path d="M1567 4004 c-11 -19 -12 -117 0 -121 7 -3 13 15 15 49 4 51 -4 90
-15 72z"/>
<path d="M386 3986 c8 -20 52 -48 64 -41 15 9 4 21 -32 39 -38 19 -39 20 -32
2z"/>
<path d="M1721 3984 c0 -11 3 -14 6 -6 3 7 2 16 -1 19 -3 4 -6 -2 -5 -13z"/>
<path d="M3254 3986 c-8 -21 -1 -66 11 -69 6 -1 11 17 13 41 3 41 -12 59 -24
28z"/>
<path d="M4427 3974 c-13 -13 -7 -24 14 -24 11 0 19 5 17 12 -5 14 -22 21 -31
12z"/>
<path d="M3862 3930 c0 -14 2 -19 5 -12 2 6 2 18 0 25 -3 6 -5 1 -5 -13z"/>
<path d="M1710 3902 c0 -22 4 -43 9 -46 5 -4 7 12 4 36 -8 57 -13 61 -13 10z"/>
<path d="M4369 3921 c-13 -11 -19 -20 -13 -21 15 0 50 27 43 34 -3 4 -17 -2
-30 -13z"/>
<path d="M4780 3919 c0 -5 5 -7 10 -4 6 3 10 8 10 11 0 2 -4 4 -10 4 -5 0 -10
-5 -10 -11z"/>
<path d="M1230 3912 c0 -8 30 -42 150 -169 22 -24 44 -43 49 -43 5 0 12 -8 15
-17 3 -10 20 -34 38 -53 98 -106 328 -353 374 -400 29 -30 67 -72 85 -92 27
-33 59 -50 59 -32 0 3 -39 49 -87 102 -89 98 -107 116 -363 390 -78 83 -149
152 -156 152 -8 0 -14 9 -14 19 0 11 -30 48 -66 83 -67 65 -84 77 -84 60z"/>
<path d="M4161 3889 c-18 -16 -31 -33 -27 -36 7 -7 86 46 86 58 0 18 -27 8
-59 -22z"/>
<path d="M470 3901 c0 -13 23 -29 34 -25 12 5 44 -15 170 -105 42 -29 76 -57
76 -62 0 -5 32 -9 70 -9 39 0 70 4 70 8 0 8 -50 47 -136 108 -23 16 -58 42
-79 58 -33 27 -44 30 -121 31 -46 1 -84 -1 -84 -4z m186 -51 c21 -16 66 -49
99 -72 42 -30 55 -43 43 -46 -16 -3 -172 102 -199 134 -21 26 15 16 57 -16z"/>
<path d="M4643 3886 c-15 -13 -25 -28 -20 -32 4 -4 21 7 37 24 34 38 23 43
-17 8z"/>
<path d="M4728 3887 c-20 -12 -85 -57 -144 -99 -59 -43 -116 -78 -125 -78 -26
0 -32 -18 -9 -25 21 -7 23 -5 209 133 96 72 120 93 109 92 -2 0 -20 -10 -40
-23z"/>
<path d="M3253 3808 c5 -59 27 -62 27 -4 0 35 -4 46 -16 46 -12 0 -14 -9 -11
-42z"/>
<path d="M4573 3829 c-18 -12 -33 -25 -33 -30 0 -6 16 2 35 17 30 23 41 34 33
34 -2 0 -18 -10 -35 -21z"/>
<path d="M1556 3831 c-9 -14 4 -41 19 -41 15 0 24 19 18 38 -5 14 -29 16 -37
3z"/>
<path d="M1730 3827 c0 -13 25 -47 34 -47 10 0 -1 33 -16 47 -16 14 -18 14
-18 0z"/>
<path d="M4498 3775 c-15 -13 -24 -25 -22 -28 3 -3 17 6 31 19 34 31 26 39 -9
9z"/>
<path d="M918 3753 c6 -2 18 -2 25 0 6 3 1 5 -13 5 -14 0 -19 -2 -12 -5z"/>
<path d="M970 3721 l-25 -7 22 -12 c26 -14 113 -16 113 -2 0 25 -57 36 -110
21z"/>
<path d="M3990 3723 c-42 -4 -100 -41 -100 -65 0 -18 31 -6 41 16 10 21 15 23
35 14 17 -8 32 -7 61 5 30 12 69 14 191 10 155 -5 222 0 222 17 0 10 -350 11
-450 3z"/>
<path d="M4086 3665 c4 -9 1 -15 -7 -15 -11 0 -11 -2 0 -12 11 -10 14 -10 18
0 3 6 10 12 17 12 7 0 21 7 32 15 18 13 16 14 -23 15 -34 0 -41 -3 -37 -15z"/>
<path d="M3237 3653 c-4 -3 -7 -11 -7 -17 0 -6 5 -5 12 2 6 6 9 14 7 17 -3 3
-9 2 -12 -2z"/>
<path d="M1040 3640 c0 -5 19 -22 42 -37 24 -14 83 -60 133 -102 174 -147 184
-154 191 -136 4 11 -2 22 -17 33 -23 16 -118 92 -248 199 -60 49 -101 67 -101
43z"/>
<path d="M1200 3601 c0 -10 19 -25 25 -20 1 2 -3 10 -11 17 -8 7 -14 8 -14 3z"/>
<path d="M3399 3423 c-96 -103 -187 -201 -204 -219 -90 -96 -132 -159 -97
-147 21 8 214 201 302 303 36 41 95 106 132 145 64 66 84 105 55 105 -8 0 -92
-84 -188 -187z"/>
<path d="M3940 3530 c-36 -27 -105 -79 -154 -117 -49 -37 -103 -76 -120 -86
-17 -10 -40 -27 -51 -38 -18 -18 -18 -19 -1 -19 10 0 30 9 44 20 15 11 56 43
92 70 36 27 101 74 145 104 44 30 96 68 115 85 60 52 4 37 -70 -19z"/>
<path d="M3100 3499 c0 -5 5 -7 10 -4 6 3 10 8 10 11 0 2 -4 4 -10 4 -5 0 -10
-5 -10 -11z"/>
<path d="M2614 3398 c3 -13 6 -27 6 -31 0 -5 4 -6 9 -2 5 3 12 -4 16 -15 3
-11 11 -20 17 -20 5 0 18 -10 29 -22 16 -20 18 -21 19 -5 0 10 -4 15 -10 12
-5 -3 -10 1 -10 9 0 9 -4 16 -10 16 -5 0 -10 7 -10 15 0 8 -9 20 -20 27 -11 7
-20 18 -20 25 0 7 -5 13 -11 13 -7 0 -9 -9 -5 -22z"/>
<path d="M3870 3393 c0 -28 14 -29 40 -3 26 26 26 27 -10 27 -25 0 -30 -4 -30
-24z"/>
<path d="M3755 3313 c-44 -30 -100 -69 -125 -87 -25 -17 -56 -37 -70 -44 -14
-7 -36 -21 -50 -32 -20 -15 -22 -21 -13 -31 10 -10 17 -9 35 8 13 11 50 38 83
60 143 94 245 167 245 175 0 17 -28 4 -105 -49z"/>
<path d="M1460 3352 c0 -4 18 -25 39 -46 53 -52 77 -38 25 15 -35 36 -64 50
-64 31z"/>
<path d="M2720 3265 c0 -8 3 -15 8 -15 4 0 16 -14 27 -30 19 -29 45 -40 45
-20 0 6 -9 19 -20 30 -11 11 -24 20 -30 20 -5 0 -10 7 -10 15 0 8 -4 15 -10
15 -5 0 -10 -7 -10 -15z"/>
<path d="M2960 3270 c0 -5 5 -10 10 -10 6 0 10 5 10 10 0 6 -4 10 -10 10 -5 0
-10 -4 -10 -10z"/>
<path d="M2870 3240 c0 -5 5 -10 10 -10 6 0 10 5 10 10 0 6 -4 10 -10 10 -5 0
-10 -4 -10 -10z"/>
<path d="M3509 3220 l-24 -19 26 -1 c14 0 34 9 44 20 18 19 17 20 -2 20 -12 0
-31 -9 -44 -20z"/>
<path d="M1485 3221 c-3 -5 -1 -12 5 -16 5 -3 10 1 10 9 0 18 -6 21 -15 7z"/>
<path d="M1430 3211 c0 -5 7 -11 15 -15 9 -3 15 0 15 9 0 8 -7 15 -15 15 -8 0
-15 -4 -15 -9z"/>
<path d="M3698 3202 c-15 -10 -30 -23 -33 -29 -6 -18 -2 -17 40 17 41 32 37
38 -7 12z"/>
<path d="M2585 2885 c0 -172 3 -308 7 -302 10 16 10 604 1 610 -5 3 -8 -136
-8 -308z"/>
<path d="M2805 3180 c-3 -5 -1 -10 4 -10 6 0 11 5 11 10 0 6 -2 10 -4 10 -3 0
-8 -4 -11 -10z"/>
<path d="M2836 3164 c-7 -17 9 -44 26 -44 5 0 3 7 -6 15 -8 9 -13 22 -10 30 4
8 4 15 1 15 -3 0 -8 -7 -11 -16z"/>
<path d="M2977 3173 c-4 -3 -7 -11 -7 -17 0 -6 5 -5 12 2 6 6 9 14 7 17 -3 3
-9 2 -12 -2z"/>
<path d="M3006 3154 c-5 -14 -4 -15 9 -4 17 14 19 20 6 20 -5 0 -12 -7 -15
-16z"/>
<path d="M3615 3140 c-10 -11 -23 -20 -30 -20 -7 0 -20 -9 -30 -20 -18 -20
-18 -21 1 -13 29 12 94 57 94 66 0 13 -17 7 -35 -13z"/>
<path d="M2791 3074 c0 -11 3 -14 6 -6 3 7 2 16 -1 19 -3 4 -6 -2 -5 -13z"/>
<path d="M3265 2960 c-13 -6 -15 -9 -5 -9 8 0 22 4 30 9 18 12 2 12 -25 0z"/>
<path d="M3198 2943 c6 -2 18 -2 25 0 6 3 1 5 -13 5 -14 0 -19 -2 -12 -5z"/>
<path d="M3580 2940 c-8 -5 -11 -12 -7 -16 4 -4 13 -2 19 4 15 15 7 24 -12 12z"/>
<path d="M3268 2913 c7 -3 16 -2 19 1 4 3 -2 6 -13 5 -11 0 -14 -3 -6 -6z"/>
<path d="M2262 2828 c3 -7 13 -15 22 -16 12 -3 17 1 14 10 -3 7 -13 15 -22 16
-12 3 -17 -1 -14 -10z"/>
<path d="M3170 2820 c0 -6 7 -10 15 -10 8 0 15 2 15 4 0 2 -7 6 -15 10 -8 3
-15 1 -15 -4z"/>
<path d="M3210 2783 c0 -8 23 -28 145 -130 75 -62 73 -71 -10 -59 -40 7 -122
58 -152 96 -6 8 -15 12 -19 7 -4 -4 -5 -8 -3 -9 2 -2 30 -27 61 -57 l57 -54
108 -13 c79 -9 327 -13 916 -13 711 -1 807 1 807 14 0 13 -99 15 -830 15 -657
0 -830 3 -830 13 -1 13 -178 158 -195 159 -5 0 -16 9 -23 19 -13 19 -32 26
-32 12z"/>
<path d="M3110 2750 c0 -5 5 -10 11 -10 5 0 7 5 4 10 -3 6 -8 10 -11 10 -2 0
-4 -4 -4 -10z"/>
<path d="M3140 2720 c0 -6 7 -10 15 -10 8 0 15 2 15 4 0 2 -7 6 -15 10 -8 3
-15 1 -15 -4z"/>
<path d="M1693 2631 c-67 -4 -125 -10 -129 -14 -4 -4 35 -7 87 -7 52 0 132 -4
179 -9 71 -8 459 -21 634 -21 l49 0 -5 -362 c-2 -200 -1 -374 2 -388 9 -33 23
427 18 607 -1 78 -7 146 -13 151 -5 6 -84 13 -175 16 -339 12 -455 19 -472 27
-9 5 -25 8 -35 7 -10 -1 -73 -4 -140 -7z"/>
<path d="M0 2565 c0 -14 99 -15 903 -14 l902 1 28 -41 c16 -23 33 -41 38 -41
5 0 9 -6 9 -14 0 -7 7 -20 16 -27 9 -7 20 -24 25 -36 5 -13 20 -28 34 -33 17
-6 24 -14 19 -22 -4 -7 -4 -10 0 -6 4 3 40 -27 80 -68 40 -41 78 -74 83 -74 6
0 13 -9 16 -20 3 -11 10 -20 16 -20 26 0 19 9 -178 215 -135 142 -178 190
-179 200 -1 7 -313 11 -907 13 -807 2 -905 0 -905 -13z"/>
<path d="M2605 2560 c-11 -5 38 -6 115 -3 74 3 137 7 139 9 9 8 -235 2 -254
-6z"/>
<path d="M1938 2553 c7 -3 16 -2 19 1 4 3 -2 6 -13 5 -11 0 -14 -3 -6 -6z"/>
<path d="M2961 2556 c2 -3 45 -7 94 -10 66 -3 78 -2 45 4 -48 9 -146 13 -139
6z"/>
<path d="M2910 2546 c0 -2 7 -7 16 -10 8 -3 12 -2 9 4 -6 10 -25 14 -25 6z"/>
<path d="M3158 2543 c6 -2 18 -2 25 0 6 3 1 5 -13 5 -14 0 -19 -2 -12 -5z"/>
<path d="M3238 2543 c7 -3 16 -2 19 1 4 3 -2 6 -13 5 -11 0 -14 -3 -6 -6z"/>
<path d="M3347 2523 c4 -11 15 -14 42 -9 20 3 49 6 65 6 55 0 18 12 -47 15
-55 2 -65 0 -60 -12z"/>
<path d="M3317 2503 c-19 -18 -224 -30 -592 -35 l-130 -2 110 -6 c190 -12 503
-5 563 12 49 14 91 38 66 38 -6 0 -14 -3 -17 -7z"/>
<path d="M2588 2423 c-3 -10 -6 -177 -7 -372 -1 -194 -6 -362 -10 -373 -6 -18
-8 -18 -21 6 -7 14 -17 26 -22 26 -4 0 -8 7 -8 15 0 8 -7 15 -15 15 -8 0 -15
4 -15 9 0 6 -20 31 -45 58 -48 51 -56 73 -27 74 10 0 12 3 5 6 -7 2 -13 9 -13
14 0 5 -9 18 -21 30 -20 20 -22 20 -38 4 -12 -13 -13 -19 -3 -22 6 -3 12 -10
12 -17 0 -11 92 -133 110 -146 4 -3 27 -30 51 -60 l44 -55 -5 -818 c-4 -732
-3 -817 10 -817 14 0 16 54 17 472 1 260 5 809 9 1221 4 411 4 747 2 747 -3 0
-8 -8 -10 -17z m-206 -510 c21 -19 23 -33 6 -33 -7 0 -18 11 -25 25 -13 29 -7
32 19 8z"/>
<path d="M2855 2300 c-10 -17 12 -37 25 -24 8 8 6 15 -4 23 -10 9 -16 9 -21 1z"/>
<path d="M2177 2143 c-4 -3 4 -14 19 -23 14 -10 25 -21 23 -26 -1 -5 9 -15 22
-21 22 -11 22 -13 4 -13 l-20 -1 20 -15 c11 -8 20 -19 20 -24 0 -4 10 -17 23
-28 12 -11 22 -23 22 -29 0 -5 9 -9 20 -9 34 0 29 8 -72 118 -16 16 -28 31
-28 34 0 7 -34 44 -41 44 -3 0 -9 -3 -12 -7z"/>
<path d="M2045 2093 c-22 -25 -49 -56 -60 -68 -48 -55 -165 -185 -220 -245
-33 -36 -105 -114 -160 -175 -55 -60 -119 -129 -143 -153 -39 -39 -47 -62 -21
-62 5 0 45 37 87 83 43 45 150 159 238 252 202 215 294 319 294 333 0 6 4 12
9 14 8 2 26 69 19 67 -2 0 -21 -21 -43 -46z"/>
<path d="M1506 2042 c-21 -14 -34 -28 -28 -30 6 -2 19 4 29 12 10 9 27 22 38
30 35 26 2 16 -39 -12z"/>
<path d="M3080 2019 c0 -18 47 -62 54 -50 3 4 -8 21 -24 36 -21 20 -30 24 -30
14z"/>
<path d="M1514 1968 c-16 -12 -31 -25 -34 -28 -3 -3 -30 -22 -60 -42 -196
-133 -265 -186 -256 -196 4 -4 27 10 131 82 22 15 91 61 153 102 61 41 112 81
112 89 0 21 -12 19 -46 -7z"/>
<path d="M1400 1970 c0 -5 5 -10 11 -10 5 0 7 5 4 10 -3 6 -8 10 -11 10 -2 0
-4 -4 -4 -10z"/>
<path d="M1360 1940 c0 -5 4 -10 9 -10 6 0 13 5 16 10 3 6 -1 10 -9 10 -9 0
-16 -4 -16 -10z"/>
<path d="M1303 1908 c-18 -11 -33 -24 -33 -29 0 -12 17 -11 25 2 4 5 18 14 31
19 13 5 24 14 24 20 0 14 -10 12 -47 -12z"/>
<path d="M3192 1910 c7 -21 421 -440 435 -440 8 0 13 4 11 9 -1 5 -98 106
-215 225 -186 190 -243 241 -231 206z"/>
<path d="M3585 1911 c-3 -5 7 -16 22 -23 16 -8 55 -29 88 -47 55 -29 57 -30
30 -6 -16 14 -40 31 -51 38 -12 7 -35 20 -52 29 -17 10 -33 14 -37 9z"/>
<path d="M1515 1888 c-11 -11 -58 -49 -105 -84 -47 -35 -103 -77 -125 -94 -22
-16 -49 -36 -60 -44 -11 -8 -17 -18 -13 -22 9 -8 89 43 192 123 39 31 92 71
119 90 26 19 47 39 47 44 0 16 -35 8 -55 -13z"/>
<path d="M1240 1855 c-8 -9 -8 -15 -2 -15 12 0 26 19 19 26 -2 2 -10 -2 -17
-11z"/>
<path d="M2105 1859 c-4 -6 -5 -12 -2 -15 2 -3 7 2 10 11 7 17 1 20 -8 4z"/>
<path d="M2460 1848 c0 -7 5 -20 10 -28 8 -12 10 -9 10 13 0 15 -4 27 -10 27
-5 0 -10 -6 -10 -12z"/>
<path d="M2085 1819 c-4 -6 -5 -12 -2 -15 2 -3 7 2 10 11 7 17 1 20 -8 4z"/>
<path d="M3555 1820 c3 -5 8 -10 11 -10 2 0 4 5 4 10 0 6 -5 10 -11 10 -5 0
-7 -4 -4 -10z"/>
<path d="M2125 1799 c-4 -6 -5 -12 -2 -15 2 -3 7 2 10 11 7 17 1 20 -8 4z"/>
<path d="M3795 1780 c3 -5 8 -10 11 -10 2 0 4 5 4 10 0 6 -5 10 -11 10 -5 0
-7 -4 -4 -10z"/>
<path d="M3771 1676 c-10 -12 -8 -16 10 -21 12 -4 66 -39 119 -79 53 -39 124
-88 156 -108 32 -21 67 -43 76 -50 28 -20 35 2 8 24 -20 15 -115 82 -244 170
-10 7 -38 28 -62 46 -49 37 -48 36 -63 18z"/>
<path d="M3795 1564 c17 -14 40 -33 53 -42 12 -9 39 -32 60 -49 38 -33 57 -40
66 -24 3 5 -13 21 -37 37 -23 15 -64 45 -90 66 -55 43 -102 54 -52 12z"/>
<path d="M2122 1550 c0 -14 2 -19 5 -12 2 6 2 18 0 25 -3 6 -5 1 -5 -13z"/>
<path d="M1208 1459 c-21 -12 -24 -49 -5 -49 14 0 57 41 57 53 0 10 -32 8 -52
-4z"/>
<path d="M1752 1345 c0 -83 -4 -130 -12 -140 -17 -20 -8 -50 15 -50 16 0 20 7
21 40 0 22 2 87 4 145 3 131 3 130 -14 130 -12 0 -15 -22 -14 -125z"/>
<path d="M1600 1444 c0 -8 5 -12 10 -9 6 3 10 10 10 16 0 5 -4 9 -10 9 -5 0
-10 -7 -10 -16z"/>
<path d="M657 1426 c-16 -13 -55 -38 -88 -57 -32 -19 -59 -37 -59 -40 0 -4 16
-19 36 -34 31 -24 39 -26 58 -15 33 17 106 86 106 99 0 21 -25 11 -59 -24 -36
-36 -67 -52 -79 -40 -7 7 39 47 78 67 14 7 28 17 31 21 3 5 34 3 67 -3 43 -9
70 -9 89 -2 16 5 89 10 162 11 122 2 161 9 161 30 0 3 -107 7 -238 8 -232 1
-238 1 -265 -21z"/>
<path d="M3860 1370 c-11 -7 -12 -12 -3 -21 13 -13 33 -4 33 17 0 16 -9 18
-30 4z"/>
<path d="M3960 1372 c0 -2 5 -12 10 -22 9 -16 18 -19 53 -15 23 3 122 7 219 9
165 2 212 8 177 21 -15 5 -459 12 -459 7z"/>
<path d="M1324 1305 c-21 -25 -47 -48 -56 -51 -20 -6 -24 -29 -7 -39 12 -8 44
19 101 88 33 39 37 47 21 47 -11 0 -37 -20 -59 -45z"/>
<path d="M3346 943 c2 -225 3 -413 4 -420 0 -7 6 -10 13 -7 11 4 13 41 10 177
-2 95 -3 281 -3 415 0 201 -2 242 -14 242 -12 0 -14 -63 -10 -407z"/>
<path d="M1592 1328 c-15 -15 -16 -45 -1 -54 18 -10 42 21 34 45 -7 24 -16 26
-33 9z"/>
<path d="M860 1300 c-19 -16 -41 -30 -47 -30 -14 0 -17 -13 -7 -23 13 -13 114
53 114 75 0 16 -26 7 -60 -22z"/>
<path d="M4260 1296 c0 -2 7 -6 15 -10 8 -3 15 -1 15 4 0 6 -7 10 -15 10 -8 0
-15 -2 -15 -4z"/>
<path d="M4454 1286 c23 -18 36 -20 36 -6 0 6 -4 10 -9 10 -5 0 -18 3 -28 6
-16 5 -16 4 1 -10z"/>
<path d="M3587 1273 c-8 -16 1 -97 12 -101 14 -5 15 94 2 103 -5 3 -12 2 -14
-2z"/>
<path d="M443 1227 c-66 -44 -76 -61 -43 -72 21 -7 50 7 93 45 12 11 31 25 41
33 21 16 14 37 -12 37 -9 -1 -45 -20 -79 -43z"/>
<path d="M3799 1263 c0 -4 1 -57 2 -118 2 -60 3 -194 3 -297 1 -178 4 -206 23
-195 4 3 6 141 3 308 -4 229 -8 303 -17 307 -7 2 -13 0 -14 -5z"/>
<path d="M4130 1251 c13 -25 33 -28 28 -4 -2 10 -11 19 -21 21 -16 3 -17 1 -7
-17z"/>
<path d="M4190 1261 c0 -5 5 -13 10 -16 6 -3 10 -2 10 4 0 5 -4 13 -10 16 -5
3 -10 2 -10 -4z"/>
<path d="M1588 1173 c-4 -68 2 -106 16 -92 5 5 8 59 7 122 -2 76 -18 54 -23
-30z"/>
<path d="M4540 1246 c0 -2 7 -7 16 -10 8 -3 12 -2 9 4 -6 10 -25 14 -25 6z"/>
<path d="M4348 1233 c7 -3 16 -2 19 1 4 3 -2 6 -13 5 -11 0 -14 -3 -6 -6z"/>
<path d="M760 1216 c0 -9 7 -16 16 -16 17 0 14 22 -4 28 -7 2 -12 -3 -12 -12z"/>
<path d="M4585 1220 c3 -5 8 -10 11 -10 2 0 4 5 4 10 0 6 -5 10 -11 10 -5 0
-7 -4 -4 -10z"/>
<path d="M3642 1150 l1 -75 7 55 c4 30 3 64 -1 75 -5 12 -7 -10 -7 -55z"/>
<path d="M1157 1133 c-31 -32 -64 -68 -72 -80 -9 -13 -22 -23 -30 -23 -20 0
-29 -20 -16 -33 8 -8 29 8 80 63 61 66 110 130 98 130 -2 0 -29 -26 -60 -57z"/>
<path d="M660 1140 c0 -5 6 -10 14 -10 8 0 18 5 21 10 3 6 -3 10 -14 10 -12 0
-21 -4 -21 -10z"/>
<path d="M3590 1124 c0 -8 5 -12 10 -9 6 4 8 11 5 16 -9 14 -15 11 -15 -7z"/>
<path d="M1762 1108 c-16 -16 -17 -594 -1 -604 6 -3 15 0 20 7 11 18 12 596 1
603 -5 3 -14 0 -20 -6z"/>
<path d="M287 1099 c-9 -6 -15 -14 -12 -20 3 -5 0 -6 -7 -4 -17 7 -98 -52 -98
-71 0 -22 13 -17 61 20 23 19 47 32 51 30 4 -3 8 0 8 5 0 6 7 11 15 11 8 0 15
9 15 20 0 22 -7 24 -33 9z"/>
<path d="M330 1099 c0 -5 5 -7 10 -4 6 3 10 8 10 11 0 2 -4 4 -10 4 -5 0 -10
-5 -10 -11z"/>
<path d="M3590 1059 c0 -38 24 -35 28 4 2 19 -1 27 -12 27 -11 0 -16 -10 -16
-31z"/>
<path d="M4400 1080 c0 -5 5 -10 11 -10 5 0 7 5 4 10 -3 6 -8 10 -11 10 -2 0
-4 -4 -4 -10z"/>
<path d="M1580 1035 c-17 -21 -5 -45 23 -45 30 0 50 22 41 44 -8 20 -47 21
-64 1z"/>
<path d="M3642 1030 c0 -14 2 -19 5 -12 2 6 2 18 0 25 -3 6 -5 1 -5 -13z"/>
<path d="M3600 973 c0 -42 11 -38 16 7 2 16 -1 30 -6 30 -6 0 -10 -16 -10 -37z"/>
<path d="M483 993 c-18 -7 -16 -23 2 -23 8 0 15 7 15 15 0 8 -1 15 -2 14 -2 0
-9 -3 -15 -6z"/>
<path d="M1587 953 c-2 -5 -1 -34 1 -65 3 -41 8 -58 18 -58 11 0 14 16 14 65
0 50 -3 65 -14 65 -8 0 -16 -3 -19 -7z"/>
<path d="M155 930 c4 -6 11 -8 16 -5 14 9 11 15 -7 15 -8 0 -12 -5 -9 -10z"/>
<path d="M405 930 c-3 -5 1 -10 9 -10 9 0 16 5 16 10 0 6 -4 10 -9 10 -6 0
-13 -4 -16 -10z"/>
<path d="M3595 911 c-8 -27 11 -54 21 -28 3 9 1 24 -4 33 -9 16 -10 15 -17 -5z"/>
<path d="M3599 858 c-7 -13 -4 -318 2 -318 5 0 9 17 10 38 0 20 3 89 5 153 4
78 2 119 -5 124 -6 3 -12 5 -12 3z"/>
<path d="M1543 791 c-35 -29 -28 -70 8 -51 45 25 66 70 32 70 -10 -1 -28 -9
-40 -19z"/>
<path d="M1515 700 c4 -6 11 -8 16 -5 14 9 11 15 -7 15 -8 0 -12 -5 -9 -10z"/>
<path d="M3950 650 c0 -5 5 -10 11 -10 5 0 7 5 4 10 -3 6 -8 10 -11 10 -2 0
-4 -4 -4 -10z"/>
<path d="M1415 611 c-46 -5 -61 -10 -63 -23 -3 -16 5 -18 64 -18 52 0 70 4 80
18 18 23 17 32 -3 30 -10 -1 -45 -4 -78 -7z"/>
<path d="M3850 608 c0 -9 5 -20 10 -23 13 -8 13 5 0 25 -8 13 -10 13 -10 -2z"/>
<path d="M3795 560 c3 -5 8 -10 11 -10 2 0 4 5 4 10 0 6 -5 10 -11 10 -5 0 -7
-4 -4 -10z"/>
<path d="M4010 540 c0 -5 5 -10 10 -10 6 0 10 5 10 10 0 6 -4 10 -10 10 -5 0
-10 -4 -10 -10z"/>
<path d="M3598 513 c7 -3 16 -2 19 1 4 3 -2 6 -13 5 -11 0 -14 -3 -6 -6z"/>
<path d="M3351 460 c0 -33 1 -34 10 -11 6 16 6 28 -1 35 -7 7 -10 -1 -9 -24z"/>
<path d="M1329 447 c-6 -14 -7 -31 -1 -46 l9 -24 21 21 c29 29 30 72 2 72 -12
0 -25 -10 -31 -23z"/>
<path d="M1769 438 c0 -13 -1 -38 -2 -56 -1 -19 1 -36 5 -39 5 -2 8 23 8 56 0
34 -2 61 -5 61 -3 0 -5 -10 -6 -22z"/>
<path d="M3607 434 c-10 -10 -9 -42 2 -48 5 -3 11 0 14 7 6 16 -7 50 -16 41z"/>
<path d="M3350 396 c0 -31 6 -34 13 -6 3 11 1 23 -4 26 -5 3 -9 -6 -9 -20z"/>
<path d="M1290 341 c-1 -14 -9 -44 -20 -66 -18 -39 -18 -61 1 -50 5 4 9 15 9
26 0 10 3 19 8 19 8 0 39 56 44 79 2 8 -6 14 -19 16 -18 1 -23 -4 -23 -24z"/>
<path d="M1220 259 c0 -5 5 -7 10 -4 6 3 10 8 10 11 0 2 -4 4 -10 4 -5 0 -10
-5 -10 -11z"/>
<path d="M1179 216 c-16 -20 -15 -23 5 -58 25 -44 41 -50 32 -10 -4 15 -10 41
-14 58 -7 32 -7 32 -23 10z"/>
<path d="M1230 194 c-6 -15 -8 -29 -6 -31 8 -8 23 6 29 27 8 31 -12 35 -23 4z"/>
</g>
</svg>
