<?xml version="1.0" standalone="no"?>
<!DOCTYPE svg PUBLIC "-//W3C//DTD SVG 20010904//EN"
 "http://www.w3.org/TR/2001/REC-SVG-20010904/DTD/svg10.dtd">
<svg version="1.0" xmlns="http://www.w3.org/2000/svg"
 width="512.000000pt" height="768.000000pt" viewBox="0 0 512.000000 768.000000"
 preserveAspectRatio="xMidYMid meet">
<metadata>
Created by potrace 1.16, written by Peter Selinger 2001-2019
</metadata>
<g transform="translate(0.000000,768.000000) scale(0.100000,-0.100000)"
fill="#000000" stroke="none">
<path d="M2945 6708 c-8 -1101 -3 -3862 7 -3865 4 -2 9 1086 10 2417 2 1331 0
2420 -3 2420 -4 0 -10 -438 -14 -972z"/>
<path d="M3071 7398 c1 -158 5 -272 9 -258 12 38 12 540 0 540 -6 0 -10 -100
-9 -282z"/>
<path d="M3661 7664 c0 -11 3 -14 6 -6 3 7 2 16 -1 19 -3 4 -6 -2 -5 -13z"/>
<path d="M3812 7210 c-7 -1550 -6 -2768 1 -2761 9 9 15 2858 6 3086 -3 89 -6
-42 -7 -325z"/>
<path d="M3972 7560 c-8 -299 -8 -2921 0 -2926 4 -3 8 -2 8 3 0 4 1 341 3 748
l2 740 398 1 c219 1 401 5 404 8 4 3 -47 6 -113 7 -65 1 -126 2 -134 3 -8 2
-138 3 -287 4 l-273 2 -3 768 c-1 422 -4 711 -5 642z"/>
<path d="M1050 7591 c0 -33 4 -62 9 -65 4 -3 8 24 8 59 -1 36 -5 65 -9 65 -4
0 -8 -27 -8 -59z"/>
<path d="M3650 7629 c0 -5 5 -7 10 -4 6 3 10 8 10 11 0 2 -4 4 -10 4 -5 0 -10
-5 -10 -11z"/>
<path d="M3681 7625 c-1 -11 -4 -31 -7 -45 -5 -22 -4 -23 6 -7 6 10 9 30 7 45
-3 18 -5 20 -6 7z"/>
<path d="M3752 7600 c0 -14 2 -19 5 -12 2 6 2 18 0 25 -3 6 -5 1 -5 -13z"/>
<path d="M3651 7495 c-3 -193 -9 -1160 -11 -1679 -2 -479 -2 -480 19 -483 24
-3 28 15 6 24 -14 5 -15 77 -8 667 4 363 8 777 8 918 l0 257 37 -6 c27 -4 39
-2 42 8 13 42 14 68 3 83 -10 14 -12 9 -9 -29 l4 -45 -42 0 -43 0 5 158 c3 86
2 177 -2 202 -6 35 -8 17 -9 -75z"/>
<path d="M1831 7524 c0 -11 3 -14 6 -6 3 7 2 16 -1 19 -3 4 -6 -2 -5 -13z"/>
<path d="M3744 7515 c-1 -14 2 -25 7 -25 5 0 9 11 9 25 0 33 -15 33 -16 0z"/>
<path d="M4120 7057 l0 -487 40 0 c23 0 40 5 40 11 0 7 -11 9 -30 6 l-30 -6 0
122 c-1 219 -12 832 -16 836 -2 2 -4 -215 -4 -482z"/>
<path d="M2322 7505 c0 -16 2 -22 5 -12 2 9 2 23 0 30 -3 6 -5 -1 -5 -18z"/>
<path d="M1050 7494 c0 -8 5 -12 10 -9 6 3 10 10 10 16 0 5 -4 9 -10 9 -5 0
-10 -7 -10 -16z"/>
<path d="M3708 7464 c-16 -40 -24 -168 -10 -146 5 8 10 37 10 65 0 29 5 65 12
81 6 16 9 31 7 33 -3 2 -11 -13 -19 -33z"/>
<path d="M1831 7474 c0 -11 3 -14 6 -6 3 7 2 16 -1 19 -3 4 -6 -2 -5 -13z"/>
<path d="M1056 7447 c-9 -36 -8 -1332 1 -1330 8 3 18 1353 10 1353 -3 0 -7
-10 -11 -23z"/>
<path d="M2322 7440 c0 -14 2 -19 5 -12 2 6 2 18 0 25 -3 6 -5 1 -5 -13z"/>
<path d="M2392 7431 c13 -21 28 -19 28 5 0 8 -9 14 -20 14 -17 0 -19 -3 -8
-19z"/>
<path d="M2319 7274 c-1 -76 -3 -184 -5 -239 -4 -116 -7 -1577 -5 -2389 1
-307 0 -561 -3 -563 -3 -3 -1 -16 5 -30 7 -18 5 -28 -6 -39 -18 -19 -19 -25
-2 -19 11 5 14 -100 17 -594 0 -24 3 -42 6 -39 7 7 5 4040 -1 4047 -3 2 -6
-58 -6 -135z"/>
<path d="M1831 5440 c-1 -1081 -2 -2003 -2 -2050 -1 -204 6 -164 11 65 7 361
8 3589 0 3785 -3 91 -7 -719 -9 -1800z"/>
<path d="M3850 7385 c0 -8 4 -15 10 -15 5 0 7 7 4 15 -4 8 -8 15 -10 15 -2 0
-4 -7 -4 -15z"/>
<path d="M2406 7381 c-4 -7 -5 -15 -2 -18 9 -9 19 4 14 18 -4 11 -6 11 -12 0z"/>
<path d="M3850 7327 c0 -20 3 -38 8 -40 9 -6 9 59 -1 69 -4 4 -7 -9 -7 -29z"/>
<path d="M2404 7335 c-4 -8 -4 -24 -1 -35 3 -13 0 -20 -10 -20 -8 0 -11 -4 -8
-10 3 -5 12 -10 20 -10 10 0 13 13 12 45 -2 48 -4 53 -13 30z"/>
<path d="M3188 7265 c-2 -19 0 -35 4 -35 4 0 8 16 8 35 0 19 -2 35 -4 35 -2 0
-6 -16 -8 -35z"/>
<path d="M3690 7285 c0 -8 5 -15 10 -15 6 0 10 7 10 15 0 8 -4 15 -10 15 -5 0
-10 -7 -10 -15z"/>
<path d="M1380 7260 c0 -5 5 -10 11 -10 5 0 7 5 4 10 -3 6 -8 10 -11 10 -2 0
-4 -4 -4 -10z"/>
<path d="M3680 7250 c0 -5 5 -10 10 -10 6 0 10 5 10 10 0 6 -4 10 -10 10 -5 0
-10 -4 -10 -10z"/>
<path d="M1382 7210 c0 -14 2 -19 5 -12 2 6 2 18 0 25 -3 6 -5 1 -5 -13z"/>
<path d="M3176 7181 c-8 -13 -9 -1089 -1 -1251 3 -69 7 -165 9 -213 3 -90 11
-117 21 -76 3 13 4 366 3 783 -2 564 -6 760 -15 763 -6 2 -14 0 -17 -6z m11
-623 c-3 -7 -5 -2 -5 12 0 14 2 19 5 13 2 -7 2 -19 0 -25z"/>
<path d="M3245 7180 c-4 -6 -4 -507 -2 -1113 5 -1057 6 -1102 23 -1102 18 0
19 31 19 745 0 961 -5 1429 -15 1435 -4 3 -6 14 -3 25 6 21 -11 28 -22 10z
m22 -952 c-3 -8 -6 -5 -6 6 -1 11 2 17 5 13 3 -3 4 -12 1 -19z m0 -170 c-3 -8
-6 -5 -6 6 -1 11 2 17 5 13 3 -3 4 -12 1 -19z m0 -100 c-2 -18 -4 -6 -4 27 0
33 2 48 4 33 2 -15 2 -42 0 -60z m0 -100 c-3 -8 -6 -5 -6 6 -1 11 2 17 5 13 3
-3 4 -12 1 -19z"/>
<path d="M3714 6963 c1 -117 4 -213 9 -213 9 0 7 246 -3 350 -4 50 -6 4 -6
-137z"/>
<path d="M3097 7054 c-10 -150 -9 -1614 1 -1614 25 0 30 48 31 276 0 131 3
401 6 599 6 415 -4 836 -21 842 -7 2 -13 -33 -17 -103z"/>
<path d="M945 7140 c-3 -5 -1 -10 4 -10 6 0 11 5 11 10 0 6 -2 10 -4 10 -3 0
-8 -4 -11 -10z"/>
<path d="M3857 7078 c-19 -77 -20 -88 -8 -88 10 0 35 123 29 142 -3 7 -12 -18
-21 -54z"/>
<path d="M2411 7114 c0 -11 3 -14 6 -6 3 7 2 16 -1 19 -3 4 -6 -2 -5 -13z"/>
<path d="M601 7094 c0 -11 3 -14 6 -6 3 7 2 16 -1 19 -3 4 -6 -2 -5 -13z"/>
<path d="M930 7100 c0 -5 7 -10 16 -10 8 0 12 5 9 10 -3 6 -10 10 -16 10 -5 0
-9 -4 -9 -10z"/>
<path d="M3693 6990 c0 -25 2 -35 4 -22 2 12 2 32 0 45 -2 12 -4 2 -4 -23z"/>
<path d="M600 6982 c0 -5 9 -8 20 -7 29 2 33 10 5 13 -14 1 -25 -2 -25 -6z"/>
<path d="M935 6980 c-3 -5 -1 -10 4 -10 6 0 11 5 11 10 0 6 -2 10 -4 10 -3 0
-8 -4 -11 -10z"/>
<path d="M3753 6958 c-2 -18 0 -20 7 -8 12 18 13 30 2 30 -4 0 -9 -10 -9 -22z"/>
<path d="M3847 6958 c-9 -33 -9 -2523 0 -2514 8 7 17 2536 9 2536 -2 0 -6 -10
-9 -22z"/>
<path d="M2410 6953 c0 -13 5 -23 10 -23 13 0 13 11 0 30 -8 12 -10 11 -10 -7z"/>
<path d="M685 6950 c3 -5 8 -10 11 -10 2 0 4 5 4 10 0 6 -5 10 -11 10 -5 0 -7
-4 -4 -10z"/>
<path d="M810 6940 c0 -5 5 -10 11 -10 5 0 7 5 4 10 -3 6 -8 10 -11 10 -2 0
-4 -4 -4 -10z"/>
<path d="M3692 6920 c0 -14 2 -19 5 -12 2 6 2 18 0 25 -3 6 -5 1 -5 -13z"/>
<path d="M625 6910 c-3 -5 1 -10 9 -10 9 0 16 5 16 10 0 6 -4 10 -9 10 -6 0
-13 -4 -16 -10z"/>
<path d="M515 6879 c-11 -17 1 -21 15 -4 8 9 8 15 2 15 -6 0 -14 -5 -17 -11z"/>
<path d="M1740 6880 c0 -5 7 -10 15 -10 8 0 15 5 15 10 0 6 -7 10 -15 10 -8 0
-15 -4 -15 -10z"/>
<path d="M3693 6850 c0 -25 2 -35 4 -22 2 12 2 32 0 45 -2 12 -4 2 -4 -23z"/>
<path d="M670 6871 c0 -6 4 -13 10 -16 6 -3 7 1 4 9 -7 18 -14 21 -14 7z"/>
<path d="M2025 6863 c-41 -21 -74 -52 -93 -88 -16 -31 -19 -117 -14 -412 l2
-133 30 0 30 0 1 228 c1 125 4 240 8 257 8 37 62 75 108 75 25 0 43 -8 64 -29
l29 -29 0 -255 0 -254 31 1 31 1 -2 268 c-1 303 -4 315 -73 361 -47 30 -105
34 -152 9z m68 -16 c6 5 23 6 37 2 14 -4 19 -7 13 -8 -7 -1 -13 -8 -13 -15 0
-11 -11 -15 -39 -13 -28 1 -48 -6 -75 -26 -20 -16 -37 -24 -37 -20 -1 4 -5 -5
-9 -22 -4 -16 -9 -133 -10 -260 -1 -159 -5 -221 -11 -200 -5 17 -8 127 -6 245
3 222 10 260 45 260 13 0 14 2 3 9 -8 5 -9 11 -3 15 6 3 13 2 17 -4 10 -16 25
-1 18 17 -4 10 -2 14 4 10 6 -4 14 0 17 9 5 13 9 14 21 4 10 -8 19 -9 28 -3z
m87 -26 c0 -5 -6 -12 -12 -15 -7 -4 -3 -4 9 -2 14 2 20 0 17 -9 -3 -7 -14 -11
-25 -8 -21 6 -21 6 -13 27 7 17 24 22 24 7z m35 -61 c1 -11 -2 -20 -7 -20 -4
0 -8 12 -8 27 0 30 13 24 15 -7z m15 -70 c0 -5 -5 -10 -11 -10 -5 0 -7 5 -4
10 3 6 8 10 11 10 2 0 4 -4 4 -10z m-13 -367 c-2 -21 -4 -6 -4 32 0 39 2 55 4
38 2 -18 2 -50 0 -70z"/>
<path d="M2050 6829 c0 -5 5 -7 10 -4 6 3 10 8 10 11 0 2 -4 4 -10 4 -5 0 -10
-5 -10 -11z"/>
<path d="M2416 6865 c4 -8 8 -15 10 -15 2 0 4 7 4 15 0 8 -4 15 -10 15 -5 0
-7 -7 -4 -15z"/>
<path d="M940 6860 c0 -5 5 -10 10 -10 6 0 10 5 10 10 0 6 -4 10 -10 10 -5 0
-10 -4 -10 -10z"/>
<path d="M1735 6840 c3 -5 11 -10 16 -10 6 0 7 5 4 10 -3 6 -11 10 -16 10 -6
0 -7 -4 -4 -10z"/>
<path d="M4188 6843 c-9 -2 -19 -10 -21 -17 -4 -11 0 -11 19 -2 13 6 24 14 24
19 0 4 -1 6 -2 6 -2 -1 -10 -3 -20 -6z"/>
<path d="M1736 6811 c-4 -7 -5 -15 -2 -18 9 -9 19 4 14 18 -4 11 -6 11 -12 0z"/>
<path d="M1635 6800 c-3 -5 1 -10 10 -10 9 0 13 5 10 10 -3 6 -8 10 -10 10 -2
0 -7 -4 -10 -10z"/>
<path d="M3757 6803 c-3 -5 -6 -132 -7 -283 -4 -428 -2 -540 8 -540 4 0 7 170
8 378 1 208 4 395 8 415 6 33 -4 51 -17 30z"/>
<path d="M935 6780 c-3 -5 1 -10 9 -10 9 0 16 5 16 10 0 6 -4 10 -9 10 -6 0
-13 -4 -16 -10z"/>
<path d="M3691 6774 c0 -11 3 -14 6 -6 3 7 2 16 -1 19 -3 4 -6 -2 -5 -13z"/>
<path d="M4468 6783 c7 -3 16 -2 19 1 4 3 -2 6 -13 5 -11 0 -14 -3 -6 -6z"/>
<path d="M1748 6748 c9 -9 15 -9 24 0 9 9 7 12 -12 12 -19 0 -21 -3 -12 -12z"/>
<path d="M1690 6740 c0 -13 11 -13 30 0 12 8 11 10 -7 10 -13 0 -23 -4 -23
-10z"/>
<path d="M3702 6728 c-15 -19 -19 -70 -5 -75 7 -3 10 3 6 15 -2 11 0 30 7 42
13 25 8 37 -8 18z"/>
<path d="M1255 6671 c-6 -11 9 -23 19 -14 9 9 7 23 -3 23 -6 0 -12 -4 -16 -9z"/>
<path d="M1585 6669 c-4 -6 -5 -13 -2 -16 7 -7 27 6 27 18 0 12 -17 12 -25 -2z"/>
<path d="M3328 6658 c9 -9 15 -9 24 0 9 9 7 12 -12 12 -19 0 -21 -3 -12 -12z"/>
<path d="M1302 6640 c0 -14 2 -19 5 -12 2 6 2 18 0 25 -3 6 -5 1 -5 -13z"/>
<path d="M3695 6608 c-4 -18 -9 -136 -12 -262 -4 -202 -2 -231 12 -238 8 -5
13 -12 11 -16 -9 -15 -9 -147 0 -147 5 0 10 47 11 105 1 73 -1 100 -8 90 -7
-10 -9 67 -6 243 2 141 2 257 1 257 -1 0 -5 -15 -9 -32z"/>
<path d="M578 6623 c7 -3 16 -2 19 1 4 3 -2 6 -13 5 -11 0 -14 -3 -6 -6z"/>
<path d="M3329 6558 c-9 -165 1 -1423 11 -1426 12 -4 14 1466 1 1486 -5 8 -10
-15 -12 -60z"/>
<path d="M1301 6594 c0 -11 3 -14 6 -6 3 7 2 16 -1 19 -3 4 -6 -2 -5 -13z"/>
<path d="M1742 6599 c2 -6 8 -10 13 -10 5 0 11 4 13 10 2 6 -4 11 -13 11 -9 0
-15 -5 -13 -11z"/>
<path d="M1263 6545 c0 -33 2 -45 4 -27 2 18 2 45 0 60 -2 15 -4 0 -4 -33z"/>
<path d="M4483 6563 c15 -2 39 -2 55 0 15 2 2 4 -28 4 -30 0 -43 -2 -27 -4z"/>
<path d="M1736 6552 c-3 -5 1 -9 9 -9 8 0 12 4 9 9 -3 4 -7 8 -9 8 -2 0 -6 -4
-9 -8z"/>
<path d="M1570 6535 c0 -8 2 -15 4 -15 2 0 6 7 10 15 3 8 1 15 -4 15 -6 0 -10
-7 -10 -15z"/>
<path d="M3528 6543 c7 -3 16 -2 19 1 4 3 -2 6 -13 5 -11 0 -14 -3 -6 -6z"/>
<path d="M1301 6504 c0 -11 3 -14 6 -6 3 7 2 16 -1 19 -3 4 -6 -2 -5 -13z"/>
<path d="M1735 6509 c-10 -15 3 -25 16 -12 7 7 7 13 1 17 -6 3 -14 1 -17 -5z"/>
<path d="M3495 6510 c-12 -4 10 -8 54 -9 41 -1 72 2 68 5 -9 10 -98 13 -122 4z"/>
<path d="M4305 6500 c10 -11 20 -18 23 -16 5 6 -23 36 -34 36 -4 0 1 -9 11
-20z"/>
<path d="M4340 6472 c0 -5 7 -15 15 -22 8 -7 15 -9 15 -6 0 4 -7 14 -15 22 -8
9 -15 11 -15 6z"/>
<path d="M1300 6454 c0 -8 5 -12 10 -9 6 3 10 10 10 16 0 5 -4 9 -10 9 -5 0
-10 -7 -10 -16z"/>
<path d="M1736 6458 c3 -4 9 -8 15 -8 5 0 9 4 9 8 0 5 -7 9 -15 9 -8 0 -12 -4
-9 -9z"/>
<path d="M2400 6450 c0 -5 7 -10 16 -10 8 0 12 5 9 10 -3 6 -10 10 -16 10 -5
0 -9 -4 -9 -10z"/>
<path d="M2480 6426 c0 -20 6 -25 35 -28 39 -4 43 2 18 24 -33 28 -53 30 -53
4z"/>
<path d="M1737 6426 c-6 -15 1 -26 15 -26 11 0 10 27 -1 34 -5 3 -11 0 -14 -8z"/>
<path d="M2400 6420 c0 -5 7 -10 15 -10 8 0 15 5 15 10 0 6 -7 10 -15 10 -8 0
-15 -4 -15 -10z"/>
<path d="M3782 6380 c0 -14 2 -19 5 -12 2 6 2 18 0 25 -3 6 -5 1 -5 -13z"/>
<path d="M4430 6390 c0 -5 5 -10 11 -10 5 0 7 5 4 10 -3 6 -8 10 -11 10 -2 0
-4 -4 -4 -10z"/>
<path d="M1253 6355 c0 -19 4 -35 9 -35 4 0 8 16 8 35 0 19 -4 35 -8 35 -5 0
-9 -16 -9 -35z"/>
<path d="M2402 6379 c2 -6 8 -10 13 -10 5 0 11 4 13 10 2 6 -4 11 -13 11 -9 0
-15 -5 -13 -11z"/>
<path d="M2485 6382 c-12 -13 -3 -22 23 -22 l27 -1 -25 -15 -25 -14 30 2 c22
2 31 9 33 24 2 17 -3 22 -28 26 -16 3 -32 2 -35 0z"/>
<path d="M1740 6365 c0 -8 2 -15 4 -15 2 0 6 7 10 15 3 8 1 15 -4 15 -6 0 -10
-7 -10 -15z"/>
<path d="M2400 6325 c0 -8 7 -15 15 -15 8 0 15 7 15 15 0 8 -7 15 -15 15 -8 0
-15 -7 -15 -15z"/>
<path d="M1740 6321 c0 -6 5 -13 10 -16 6 -3 10 1 10 9 0 9 -4 16 -10 16 -5 0
-10 -4 -10 -9z"/>
<path d="M3782 6310 c0 -14 2 -19 5 -12 2 6 2 18 0 25 -3 6 -5 1 -5 -13z"/>
<path d="M2512 6313 c-38 -5 -33 -22 6 -24 l27 -1 -29 -7 c-17 -3 -29 -9 -28
-13 3 -10 7 -11 40 -4 20 5 27 13 28 31 1 14 -1 24 -5 23 -3 0 -21 -3 -39 -5z"/>
<path d="M3536 6311 c-10 -15 10 -22 36 -12 12 6 18 10 11 10 -6 1 -18 4 -26
7 -8 3 -18 1 -21 -5z"/>
<path d="M3495 6300 c-3 -5 -1 -10 4 -10 6 0 11 5 11 10 0 6 -2 10 -4 10 -3 0
-8 -4 -11 -10z"/>
<path d="M1750 6270 c-7 -13 -7 -26 -2 -37 7 -12 10 -8 14 21 5 41 3 44 -12
16z"/>
<path d="M2400 6275 c0 -8 7 -15 15 -15 8 0 15 7 15 15 0 8 -7 15 -15 15 -8 0
-15 -7 -15 -15z"/>
<path d="M4103 6283 c9 -2 23 -2 30 0 6 3 -1 5 -18 5 -16 0 -22 -2 -12 -5z"/>
<path d="M4208 6283 c23 -2 59 -2 80 0 20 2 1 4 -43 4 -44 0 -61 -2 -37 -4z"/>
<path d="M4338 6282 c12 -8 72 -4 72 4 0 2 -19 4 -42 4 -26 0 -38 -4 -30 -8z"/>
<path d="M2513 6243 c-13 -2 -23 -9 -23 -14 0 -15 63 -6 68 9 4 12 -4 13 -45
5z"/>
<path d="M2400 6230 c0 -5 7 -10 15 -10 8 0 15 5 15 10 0 6 -7 10 -15 10 -8 0
-15 -4 -15 -10z"/>
<path d="M292 6190 c0 -19 2 -27 5 -17 2 9 2 25 0 35 -3 9 -5 1 -5 -18z"/>
<path d="M1742 6180 c-1 -16 2 -30 7 -30 5 0 9 14 9 30 -1 17 -4 30 -7 30 -4
0 -8 -13 -9 -30z"/>
<path d="M2518 6203 c-16 -2 -28 -9 -28 -14 0 -5 12 -7 28 -3 18 5 24 3 17 -4
-5 -5 -19 -12 -30 -15 -16 -4 -15 -5 6 -6 14 0 30 4 37 11 13 13 16 39 5 37
-5 -1 -20 -4 -35 -6z"/>
<path d="M1962 6192 l-53 -3 3 -358 3 -358 28 -37 c41 -53 130 -110 160 -102
37 9 102 66 129 111 23 39 23 45 23 310 0 149 -2 272 -5 275 -3 3 -16 20 -29
38 -12 17 -29 32 -37 32 -20 0 -18 -10 7 -36 14 -15 23 -39 24 -64 2 -38 2
-40 -12 -21 -8 12 -13 29 -11 38 2 10 -4 18 -12 19 -36 3 -40 5 -40 20 0 9 5
12 13 8 7 -4 8 -3 4 2 -5 5 -19 9 -30 9 -16 0 -21 6 -20 21 2 17 -2 20 -27 16
-31 -4 -38 6 -18 26 9 9 8 12 -6 12 -9 0 -14 -4 -11 -10 3 -5 -1 -10 -9 -10
-8 0 -18 5 -21 10 -3 6 -16 10 -27 10 -12 0 -18 3 -14 7 4 4 40 8 79 10 67 2
155 18 132 24 -15 3 -163 4 -223 1z m-2 -355 c1 -177 3 -334 4 -349 3 -29 16
-52 16 -28 0 11 4 11 16 -2 28 -28 6 -40 -24 -13 l-27 25 -2 350 c0 193 3 348
7 345 5 -3 10 -151 10 -328z m130 225 c25 -19 57 -49 72 -66 l27 -31 1 -214
c0 -195 -2 -218 -20 -256 -19 -39 -53 -65 -84 -65 -26 0 -95 70 -101 103 -3
18 -6 161 -8 319 l-2 287 35 -21 c19 -12 55 -37 80 -56z m134 -128 c3 -8 2
-12 -4 -9 -6 3 -10 10 -10 16 0 14 7 11 14 -7z m3 -131 c-2 -21 -4 -6 -4 32 0
39 2 55 4 38 2 -18 2 -50 0 -70z m0 -185 c-3 -8 -6 -5 -6 6 -1 11 2 17 5 13 3
-3 4 -12 1 -19z m-20 -139 c-6 -53 -67 -114 -106 -104 -22 6 -23 5 -10 -11 13
-16 12 -16 -9 -5 -34 18 -24 45 20 52 25 4 35 2 32 -5 -3 -6 1 -3 9 7 8 9 22
17 31 17 11 0 16 7 15 18 -2 19 11 72 18 72 3 0 3 -18 0 -41z m-163 -52 c7 -7
10 -20 7 -30 -6 -16 -8 -16 -26 -3 -13 10 -15 15 -6 16 7 0 11 6 7 15 -7 18 1
19 18 2z"/>
<path d="M2215 6181 c1 -9 -2 -22 -8 -28 -5 -7 -6 -13 -1 -14 5 0 0 -4 -11 -9
-15 -6 -9 -9 27 -9 l47 -1 -1 39 c0 37 -2 40 -28 39 -20 -1 -27 -6 -25 -17z
m27 -33 c-6 -6 -15 -8 -19 -4 -4 4 -1 11 7 16 19 12 27 3 12 -12z"/>
<path d="M2403 6180 c-1 -11 4 -20 13 -20 8 0 14 9 14 20 0 11 -6 20 -13 20
-7 0 -13 -9 -14 -20z"/>
<path d="M1240 6166 c0 -9 5 -16 10 -16 6 0 10 4 10 9 0 6 -4 13 -10 16 -5 3
-10 -1 -10 -9z"/>
<path d="M1290 6160 c0 -5 5 -10 10 -10 6 0 10 5 10 10 0 6 -4 10 -10 10 -5 0
-10 -4 -10 -10z"/>
<path d="M3475 6159 c-31 -4 -22 -6 44 -10 45 -2 88 -1 93 2 15 9 -88 15 -137
8z"/>
<path d="M2515 6149 c-37 -6 -31 -13 8 -10 9 1 17 -3 17 -8 0 -6 -11 -11 -24
-11 -14 0 -28 -4 -31 -10 -4 -6 8 -10 28 -10 30 0 35 4 40 28 3 15 5 27 4 27
-1 1 -20 -2 -42 -6z"/>
<path d="M3408 6153 c7 -3 16 -2 19 1 4 3 -2 6 -13 5 -11 0 -14 -3 -6 -6z"/>
<path d="M2650 6140 c-40 -3 1 -6 105 -5 101 0 150 3 120 7 -59 7 -134 7 -225
-2z"/>
<path d="M2150 6130 c0 -5 5 -10 11 -10 5 0 7 5 4 10 -3 6 -8 10 -11 10 -2 0
-4 -4 -4 -10z"/>
<path d="M2406 6125 c4 -9 1 -15 -7 -15 -10 0 -10 -3 -2 -11 6 -6 16 -8 22 -5
16 10 13 46 -4 46 -9 0 -12 -6 -9 -15z"/>
<path d="M3488 6133 c7 -3 16 -2 19 1 4 3 -2 6 -13 5 -11 0 -14 -3 -6 -6z"/>
<path d="M2783 6123 c9 -2 25 -2 35 0 9 3 1 5 -18 5 -19 0 -27 -2 -17 -5z"/>
<path d="M1310 6067 c-5 -56 -4 -57 20 -56 16 1 19 3 8 6 -13 3 -18 17 -20 56
l-3 52 -5 -58z"/>
<path d="M1737 6114 c-8 -8 1 -24 14 -24 5 0 9 7 9 15 0 15 -12 20 -23 9z"/>
<path d="M2723 6113 c9 -2 23 -2 30 0 6 3 -1 5 -18 5 -16 0 -22 -2 -12 -5z"/>
<path d="M3398 6113 c6 -2 18 -2 25 0 6 3 1 5 -13 5 -14 0 -19 -2 -12 -5z"/>
<path d="M2600 6100 c-12 -8 -11 -10 5 -9 11 1 34 5 50 9 l30 8 -35 1 c-19 0
-42 -4 -50 -9z"/>
<path d="M2868 6103 c12 -2 30 -2 40 0 9 3 -1 5 -23 4 -22 0 -30 -2 -17 -4z"/>
<path d="M3448 6103 c6 -2 18 -2 25 0 6 3 1 5 -13 5 -14 0 -19 -2 -12 -5z"/>
<path d="M2763 6093 c15 -2 39 -2 55 0 15 2 2 4 -28 4 -30 0 -43 -2 -27 -4z"/>
<path d="M1067 6083 c-11 -10 -8 -43 3 -43 6 0 10 11 10 25 0 26 -2 29 -13 18z"/>
<path d="M2523 6083 c-41 -5 -44 -30 -4 -30 20 0 31 6 34 19 3 10 4 17 4 16
-1 0 -17 -3 -34 -5z"/>
<path d="M2397 6073 c-13 -12 -7 -23 13 -23 11 0 20 7 20 15 0 15 -21 21 -33
8z"/>
<path d="M2713 6072 c-35 -2 -63 -6 -63 -10 0 -10 132 -3 143 7 4 4 2 7 -5 7
-7 -1 -41 -2 -75 -4z"/>
<path d="M2816 6069 c6 -10 104 -6 104 3 0 5 -24 8 -54 6 -30 -1 -52 -6 -50
-9z"/>
<path d="M1743 6058 c2 -51 10 -49 -184 -48 -99 1 -183 -1 -187 -4 -3 -4 82
-5 188 -4 l195 3 2 33 c2 17 -1 32 -6 32 -5 0 -9 -6 -8 -12z"/>
<path d="M2610 6060 c0 -5 5 -10 10 -10 6 0 10 5 10 10 0 6 -4 10 -10 10 -5 0
-10 -4 -10 -10z"/>
<path d="M2890 6017 c0 -20 4 -37 10 -37 5 0 7 14 3 33 -8 45 -13 47 -13 4z"/>
<path d="M2490 6019 c0 -13 8 -17 30 -17 17 1 30 7 30 13 0 7 -13 15 -30 17
-24 4 -30 1 -30 -13z"/>
<path d="M2400 6010 c0 -13 5 -17 14 -14 24 9 28 34 6 34 -13 0 -20 -7 -20
-20z"/>
<path d="M120 6010 c0 -5 7 -10 16 -10 8 0 12 5 9 10 -3 6 -10 10 -16 10 -5 0
-9 -4 -9 -10z"/>
<path d="M1040 6010 c25 -4 49 -4 55 1 5 5 -13 8 -45 8 l-55 -2 45 -7z"/>
<path d="M2815 6000 c-3 -5 -1 -10 4 -10 6 0 11 5 11 10 0 6 -2 10 -4 10 -3 0
-8 -4 -11 -10z"/>
<path d="M1146 5991 c-4 -5 -2 -12 3 -15 5 -4 12 -2 15 3 4 5 2 12 -3 15 -5 4
-12 2 -15 -3z"/>
<path d="M1070 5943 c0 -31 -5 -53 -11 -53 -5 0 -7 -5 -4 -11 4 -5 11 -9 17
-7 13 5 18 92 7 110 -5 8 -9 -7 -9 -39z"/>
<path d="M2405 5967 c-13 -10 -15 -16 -6 -21 17 -11 41 0 41 19 0 19 -11 19
-35 2z"/>
<path d="M2483 5965 c0 -10 11 -15 34 -15 38 0 44 15 11 24 -35 9 -45 7 -45
-9z"/>
<path d="M1405 5960 c-3 -5 -1 -10 4 -10 6 0 11 5 11 10 0 6 -2 10 -4 10 -3 0
-8 -4 -11 -10z"/>
<path d="M2583 5957 c-7 -11 312 -7 329 5 8 5 -54 7 -155 6 -93 -2 -171 -7
-174 -11z"/>
<path d="M3749 5951 c-9 -10 -22 -20 -29 -23 -8 -2 -10 -23 -5 -76 4 -39 11
-69 16 -67 7 5 6 32 -6 108 -3 18 0 27 9 27 17 0 39 26 34 40 -2 6 -10 2 -19
-9z"/>
<path d="M2405 5919 c-4 -6 -4 -13 -1 -16 8 -8 36 5 36 17 0 13 -27 13 -35 -1z"/>
<path d="M2486 5914 c-3 -7 8 -13 30 -16 26 -3 34 0 34 12 0 18 -57 22 -64 4z"/>
<path d="M1575 5910 l-180 -6 198 -2 c130 -1 196 1 192 8 -3 6 -12 9 -18 8 -7
-1 -93 -5 -192 -8z"/>
<path d="M1328 5903 c12 -2 30 -2 40 0 9 3 -1 5 -23 4 -22 0 -30 -2 -17 -4z"/>
<path d="M90 5890 c0 -5 5 -10 10 -10 6 0 10 5 10 10 0 6 -4 10 -10 10 -5 0
-10 -4 -10 -10z"/>
<path d="M800 5890 c0 -5 5 -10 10 -10 6 0 10 5 10 10 0 6 -4 10 -10 10 -5 0
-10 -4 -10 -10z"/>
<path d="M2573 5870 c3 -39 16 -39 15 0 -1 17 -5 30 -9 30 -5 0 -7 -13 -6 -30z"/>
<path d="M1115 5880 c3 -5 11 -10 16 -10 6 0 7 5 4 10 -3 6 -11 10 -16 10 -6
0 -7 -4 -4 -10z"/>
<path d="M280 5870 c0 -5 5 -10 10 -10 6 0 10 5 10 10 0 6 -4 10 -10 10 -5 0
-10 -4 -10 -10z"/>
<path d="M1296 5871 c-6 -9 482 -7 491 2 4 5 -104 7 -240 6 -136 -1 -249 -5
-251 -8z"/>
<path d="M2400 5861 c0 -24 34 -22 38 2 2 12 -3 17 -17 17 -14 0 -21 -6 -21
-19z"/>
<path d="M2485 5870 c-9 -15 -7 -16 38 -23 28 -4 37 -2 37 9 0 8 -9 14 -19 14
-11 0 -26 3 -34 6 -8 3 -18 0 -22 -6z"/>
<path d="M548 5863 c6 -2 18 -2 25 0 6 3 1 5 -13 5 -14 0 -19 -2 -12 -5z"/>
<path d="M1067 5846 c-3 -8 -2 -18 3 -21 13 -8 24 15 12 27 -6 6 -11 4 -15 -6z"/>
<path d="M1515 5839 c-39 -6 -39 -6 13 -8 28 0 52 3 52 7 0 10 -9 10 -65 1z"/>
<path d="M1605 5839 c-3 -4 21 -10 53 -13 31 -4 65 -9 75 -12 11 -4 17 0 17
11 0 10 -6 15 -12 13 -7 -3 -39 -2 -71 2 -32 3 -60 3 -62 -1z"/>
<path d="M3681 5789 c0 -34 3 -58 7 -54 9 9 9 115 0 115 -3 0 -7 -28 -7 -61z"/>
<path d="M1418 5833 c7 -3 16 -2 19 1 4 3 -2 6 -13 5 -11 0 -14 -3 -6 -6z"/>
<path d="M2482 5801 c3 -36 6 -38 24 -13 12 16 14 16 30 0 14 -13 15 -21 7
-29 -6 -6 -9 -18 -6 -25 3 -10 -2 -14 -18 -14 -19 0 -21 2 -9 10 13 9 13 11 0
19 -26 18 -27 12 -21 -151 1 -11 6 -15 15 -12 8 3 24 1 35 -6 21 -11 21 -9 21
115 l0 125 -24 0 c-13 0 -32 3 -40 6 -13 5 -16 0 -14 -25z m63 -111 c0 -8 -10
-16 -22 -18 -22 -3 -32 16 -16 32 12 11 38 2 38 -14z m-1 -49 c10 -15 -5 -41
-23 -41 -30 0 -18 49 11 50 4 0 9 -4 12 -9z"/>
<path d="M2400 5800 c0 -13 7 -20 20 -20 13 0 20 7 20 20 0 13 -7 20 -20 20
-13 0 -20 -7 -20 -20z"/>
<path d="M2400 5740 c0 -13 7 -20 20 -20 13 0 20 7 20 20 0 13 -7 20 -20 20
-13 0 -20 -7 -20 -20z"/>
<path d="M4065 5750 c4 -6 11 -8 16 -5 14 9 11 15 -7 15 -8 0 -12 -5 -9 -10z"/>
<path d="M4108 5753 c6 -2 18 -2 25 0 6 3 1 5 -13 5 -14 0 -19 -2 -12 -5z"/>
<path d="M4203 5727 c-3 -4 12 -5 34 -1 51 9 56 16 9 12 -20 -1 -40 -6 -43
-11z"/>
<path d="M1068 5703 c7 -3 16 -2 19 1 4 3 -2 6 -13 5 -11 0 -14 -3 -6 -6z"/>
<path d="M3695 5700 c3 -5 8 -10 11 -10 2 0 4 5 4 10 0 6 -5 10 -11 10 -5 0
-7 -4 -4 -10z"/>
<path d="M2400 5684 c0 -9 7 -14 17 -12 25 5 28 28 4 28 -12 0 -21 -6 -21 -16z"/>
<path d="M1075 5613 c9 -91 15 -92 15 -5 0 45 -4 72 -11 72 -7 0 -8 -22 -4
-67z"/>
<path d="M770 5661 c0 -5 5 -13 10 -16 6 -3 10 -2 10 4 0 5 -4 13 -10 16 -5 3
-10 2 -10 -4z"/>
<path d="M1308 5589 c-2 -45 0 -83 5 -86 4 -2 7 34 7 81 0 47 -2 86 -4 86 -3
0 -6 -36 -8 -81z"/>
<path d="M2396 5641 c-7 -11 22 -23 35 -15 5 3 9 9 9 15 0 12 -37 12 -44 0z"/>
<path d="M1748 5478 c4 -248 8 -266 10 -40 1 111 -1 202 -5 202 -5 0 -7 -73
-5 -162z"/>
<path d="M2405 5599 c-4 -6 -4 -13 -1 -16 8 -8 36 5 36 17 0 13 -27 13 -35 -1z"/>
<path d="M212 5545 c0 -16 2 -22 5 -12 2 9 2 23 0 30 -3 6 -5 -1 -5 -18z"/>
<path d="M2488 5545 c5 -26 16 -32 27 -15 8 13 35 13 35 -1 0 -6 -13 -16 -30
-22 -35 -13 -52 -42 -19 -34 25 7 49 -1 49 -15 0 -6 -13 -8 -29 -6 -23 3 -31
0 -34 -14 -4 -15 0 -18 22 -16 14 1 32 -1 39 -6 9 -5 12 10 12 64 0 48 -4 72
-12 74 -7 3 -25 7 -39 10 -24 5 -26 3 -21 -19z"/>
<path d="M2400 5544 c0 -9 7 -14 17 -12 25 5 28 28 4 28 -12 0 -21 -6 -21 -16z"/>
<path d="M621 5504 c0 -11 3 -14 6 -6 3 7 2 16 -1 19 -3 4 -6 -2 -5 -13z"/>
<path d="M1080 5504 c0 -8 5 -12 10 -9 6 4 8 11 5 16 -9 14 -15 11 -15 -7z"/>
<path d="M985 5500 c-3 -5 -1 -10 4 -10 6 0 11 5 11 10 0 6 -2 10 -4 10 -3 0
-8 -4 -11 -10z"/>
<path d="M2400 5495 c0 -8 9 -15 20 -15 11 0 20 7 20 15 0 8 -9 15 -20 15 -11
0 -20 -7 -20 -15z"/>
<path d="M3738 5503 c-21 -5 -41 -63 -43 -124 -1 -25 -4 -49 -7 -55 -6 -11 -2
-73 6 -81 3 -4 6 5 7 18 6 153 26 238 57 232 6 -2 12 2 12 7 0 10 -3 11 -32 3z"/>
<path d="M523 5455 c0 -27 2 -38 4 -22 2 15 2 37 0 50 -2 12 -4 0 -4 -28z"/>
<path d="M3144 5459 c-3 -6 -3 -13 0 -16 3 -4 6 -1 6 6 0 7 5 9 10 6 6 -3 10
-22 10 -41 0 -19 7 -51 15 -71 13 -31 13 -34 0 -23 -13 11 -15 7 -15 -26 0
-51 33 -214 43 -214 5 0 6 35 2 78 -4 42 -7 98 -9 124 -1 26 -5 50 -8 54 -4 3
-4 21 -1 40 8 51 -33 115 -53 83z"/>
<path d="M2400 5450 c0 -5 9 -10 20 -10 11 0 20 5 20 10 0 6 -9 10 -20 10 -11
0 -20 -4 -20 -10z"/>
<path d="M3735 5430 c-3 -5 -1 -10 4 -10 6 0 11 5 11 10 0 6 -2 10 -4 10 -3 0
-8 -4 -11 -10z"/>
<path d="M3096 5418 c3 -5 10 -6 15 -3 13 9 11 12 -6 12 -8 0 -12 -4 -9 -9z"/>
<path d="M4501 5420 c-7 -40 -6 -129 2 -115 4 8 6 41 4 73 -2 31 -4 50 -6 42z"/>
<path d="M1911 5404 c0 -11 3 -14 6 -6 3 7 2 16 -1 19 -3 4 -6 -2 -5 -13z"/>
<path d="M2404 5409 c-7 -12 15 -31 28 -23 4 3 8 12 8 20 0 17 -26 19 -36 3z"/>
<path d="M3727 5388 c-3 -12 -2 -29 3 -37 7 -12 9 -6 10 22 0 42 -5 48 -13 15z"/>
<path d="M2490 5391 c0 -6 10 -11 23 -12 21 -1 21 -1 -2 -8 -36 -10 -36 -27 1
-38 32 -11 32 -11 6 -12 -43 -2 -44 -21 -2 -21 40 0 37 -16 -4 -22 -33 -5 -22
-21 15 -22 31 -1 32 -1 31 46 0 45 -1 48 -24 42 -15 -4 -24 -2 -24 5 0 6 12
11 26 11 19 0 25 5 22 18 -4 19 -68 31 -68 13z"/>
<path d="M3757 5322 c-9 -31 -17 -61 -17 -67 0 -15 50 95 50 111 0 32 -16 10
-33 -44z"/>
<path d="M2407 5364 c-14 -14 -7 -35 11 -32 9 2 17 10 17 17 0 16 -18 25 -28
15z"/>
<path d="M3115 5340 c-3 -5 -1 -10 4 -10 6 0 11 5 11 10 0 6 -2 10 -4 10 -3 0
-8 -4 -11 -10z"/>
<path d="M516 5321 c-4 -7 -5 -15 -2 -18 9 -9 19 4 14 18 -4 11 -6 11 -12 0z"/>
<path d="M2413 5313 c-21 -7 -15 -33 7 -33 11 0 20 6 20 14 0 18 -11 25 -27
19z"/>
<path d="M3650 5320 c-1 -6 -7 -142 -12 -275 -2 -67 0 -90 10 -89 6 1 35 2 62
3 29 0 50 6 50 12 0 8 -17 9 -55 4 l-55 -6 0 32 c0 23 9 40 36 65 19 19 44 34
55 34 10 0 19 5 19 10 0 23 -58 -2 -87 -38 -7 -9 -14 -14 -16 -11 -2 2 0 51 3
109 4 58 3 116 -1 130 -4 14 -8 23 -9 20z"/>
<path d="M510 5266 c0 -15 4 -25 9 -22 10 7 9 31 -2 42 -4 4 -7 -5 -7 -20z"/>
<path d="M2270 5280 c0 -5 5 -10 11 -10 5 0 7 5 4 10 -3 6 -8 10 -11 10 -2 0
-4 -4 -4 -10z"/>
<path d="M1301 5254 c0 -11 3 -14 6 -6 3 7 2 16 -1 19 -3 4 -6 -2 -5 -13z"/>
<path d="M2400 5244 c0 -9 7 -14 17 -12 25 5 28 28 4 28 -12 0 -21 -6 -21 -16z"/>
<path d="M2065 5228 c-47 -24 -111 -82 -130 -118 -8 -16 -14 -76 -16 -173 -2
-82 -7 -151 -11 -154 -14 -8 -8 -40 10 -56 26 -23 36 -21 28 6 -7 23 -8 239
-1 316 6 67 101 170 145 156 10 -3 22 0 28 8 15 17 92 10 92 -9 0 -10 -12 -14
-39 -14 -22 0 -43 -4 -46 -10 -3 -6 4 -10 17 -10 13 0 47 -3 76 -6 51 -7 52
-6 52 19 0 62 -120 89 -205 45z"/>
<path d="M4115 5240 c-3 -5 -1 -10 4 -10 6 0 11 5 11 10 0 6 -2 10 -4 10 -3 0
-8 -4 -11 -10z"/>
<path d="M2508 5233 c-31 -8 -19 -23 18 -23 24 0 34 4 32 13 -5 13 -24 17 -50
10z"/>
<path d="M3700 5223 c0 -4 -7 -30 -15 -56 -11 -36 -11 -47 -2 -44 6 2 11 10 9
17 -1 7 1 17 6 24 14 18 21 55 11 62 -5 3 -9 2 -9 -3z"/>
<path d="M4490 5210 c0 -5 5 -10 11 -10 5 0 7 5 4 10 -3 6 -8 10 -11 10 -2 0
-4 -4 -4 -10z"/>
<path d="M2400 5194 c0 -9 7 -14 17 -12 25 5 28 28 4 28 -12 0 -21 -6 -21 -16z"/>
<path d="M4123 5203 c64 -2 170 -2 235 0 64 1 11 3 -118 3 -129 0 -182 -2
-117 -3z"/>
<path d="M2489 5178 c-7 -64 -6 -66 27 -66 34 0 47 20 37 58 -4 14 -14 20 -34
20 -16 0 -30 -6 -30 -12z m61 -28 c0 -5 -13 -10 -30 -10 -16 0 -30 5 -30 10 0
6 14 10 30 10 17 0 30 -4 30 -10z"/>
<path d="M512 5160 c0 -14 2 -19 5 -12 2 6 2 18 0 25 -3 6 -5 1 -5 -13z"/>
<path d="M1910 5169 c0 -5 5 -7 10 -4 6 3 10 8 10 11 0 2 -4 4 -10 4 -5 0 -10
-5 -10 -11z"/>
<path d="M4500 5156 c0 -31 6 -34 13 -6 3 11 1 23 -4 26 -5 3 -9 -6 -9 -20z"/>
<path d="M2017 5154 c-3 -3 -4 -11 -1 -18 3 -7 -4 -21 -16 -31 -21 -19 -29 -8
-8 13 9 9 9 12 0 12 -22 0 -27 -54 -27 -277 0 -144 -4 -222 -10 -220 -5 2 -12
16 -15 32 -6 36 -30 46 -30 12 0 -43 164 -340 300 -542 70 -104 78 -108 69
-36 -5 33 -17 74 -27 93 -11 18 -34 60 -52 93 -19 33 -36 62 -39 65 -7 6 -27
42 -113 209 l-70 134 7 181 c7 185 13 212 54 243 20 14 43 -5 106 -92 53 -72
80 -92 101 -74 18 15 11 40 -27 97 -16 24 -29 46 -29 50 0 4 -11 18 -25 30
-32 30 -57 24 -27 -6 20 -20 21 -59 1 -47 -4 3 -6 12 -3 19 3 9 -3 17 -16 21
-12 4 -19 12 -17 19 4 9 -7 12 -39 10 -26 -2 -42 1 -39 7 7 10 2 12 -8 3z
m183 -100 c0 -2 -7 -4 -15 -4 -8 0 -15 4 -15 10 0 5 7 7 15 4 8 -4 15 -8 15
-10z m10 -60 c0 -3 -7 -1 -15 6 -8 7 -15 17 -15 22 0 5 7 3 15 -6 8 -8 15 -18
15 -22z m-200 -426 c0 -26 -24 -17 -28 10 -2 12 -8 22 -13 22 -6 0 -7 5 -4 11
10 15 45 -19 45 -43z m33 -55 c6 -16 16 -32 22 -36 5 -4 -1 -7 -15 -5 -16 2
-25 9 -25 20 0 9 -4 20 -8 24 -10 11 -9 24 3 24 6 0 16 -12 23 -27z m39 -68
c4 -5 8 -20 8 -32 0 -15 5 -21 14 -17 14 5 26 -24 25 -61 0 -19 -1 -18 -11 3
-6 12 -15 22 -21 22 -5 0 -3 8 4 17 8 9 9 14 3 10 -14 -8 -38 18 -30 32 4 5
-3 12 -14 16 -11 4 -18 11 -15 16 7 11 27 8 37 -6z m83 -145 c20 -38 19 -43
-4 -28 -10 6 -18 22 -18 35 0 30 3 29 22 -7z m45 -94 c0 -28 -13 -11 -16 21
-2 21 -1 24 6 13 5 -8 10 -24 10 -34z m40 -54 c0 -15 -2 -15 -10 -2 -13 20
-13 33 0 25 6 -3 10 -14 10 -23z"/>
<path d="M2400 5151 c0 -5 9 -11 19 -14 14 -3 18 -1 14 9 -6 15 -33 19 -33 5z"/>
<path d="M512 5100 c0 -19 2 -27 5 -17 2 9 2 25 0 35 -3 9 -5 1 -5 -18z"/>
<path d="M2400 5111 c0 -18 18 -21 30 -6 10 13 9 15 -9 15 -11 0 -21 -4 -21
-9z"/>
<path d="M3324 5107 c-3 -8 -4 -49 -2 -93 l3 -79 80 -5 80 -5 5 -403 c3 -277
8 -405 16 -410 6 -4 13 -12 15 -19 3 -9 10 -8 29 2 l25 14 -26 1 c-15 0 -30 7
-33 16 -3 9 -6 190 -6 402 0 223 -4 393 -10 402 -6 10 -32 16 -84 18 l-76 4
-1 67 c-1 36 -1 74 0 84 3 20 -7 23 -15 4z"/>
<path d="M2508 5083 c-10 -2 -18 -11 -18 -20 0 -10 6 -13 16 -9 9 3 22 6 30 6
8 0 14 7 14 15 0 15 -9 17 -42 8z"/>
<path d="M3752 5078 c-14 -14 -16 -28 -3 -28 5 0 11 9 14 20 6 23 5 24 -11 8z"/>
<path d="M2395 5070 c-4 -6 5 -10 20 -10 15 0 24 4 20 10 -3 6 -12 10 -20 10
-8 0 -17 -4 -20 -10z"/>
<path d="M4500 5061 c0 -6 5 -13 10 -16 6 -3 10 1 10 9 0 9 -4 16 -10 16 -5 0
-10 -4 -10 -9z"/>
<path d="M3180 5039 c0 -5 4 -8 9 -4 5 3 12 1 16 -5 3 -5 1 -10 -4 -10 -6 0
-11 -7 -11 -15 0 -8 7 -15 15 -15 20 0 20 46 -1 54 -21 8 -24 8 -24 -5z"/>
<path d="M2400 5020 c0 -23 25 -27 33 -6 7 16 -1 26 -20 26 -7 0 -13 -9 -13
-20z"/>
<path d="M2518 5033 c-16 -3 -28 -11 -28 -19 0 -11 7 -13 28 -8 34 9 42 13 42
25 0 5 -3 8 -7 8 -5 -1 -20 -4 -35 -6z"/>
<path d="M3725 5030 c-3 -5 3 -10 14 -10 12 0 21 5 21 10 0 6 -6 10 -14 10 -8
0 -18 -4 -21 -10z"/>
<path d="M2580 5015 c0 -8 5 -15 10 -15 6 0 10 7 10 15 0 8 -4 15 -10 15 -5 0
-10 -7 -10 -15z"/>
<path d="M510 5005 c0 -8 4 -15 10 -15 5 0 7 7 4 15 -4 8 -8 15 -10 15 -2 0
-4 -7 -4 -15z"/>
<path d="M1775 4990 c-3 -5 -1 -10 4 -10 6 0 11 5 11 10 0 6 -2 10 -4 10 -3 0
-8 -4 -11 -10z"/>
<path d="M4500 4986 c0 -8 5 -18 10 -21 6 -3 10 3 10 14 0 12 -4 21 -10 21 -5
0 -10 -6 -10 -14z"/>
<path d="M2523 4983 c-44 -6 -42 -23 2 -23 24 0 35 5 35 15 0 8 -1 14 -2 13
-2 0 -18 -3 -35 -5z"/>
<path d="M2400 4960 c0 -13 7 -20 20 -20 13 0 20 7 20 20 0 13 -7 20 -20 20
-13 0 -20 -7 -20 -20z"/>
<path d="M3190 4955 c0 -14 4 -25 8 -25 5 0 10 -24 11 -52 1 -29 5 -56 9 -60
4 -4 6 31 4 77 -3 65 -7 85 -18 85 -8 0 -14 -10 -14 -25z"/>
<path d="M1350 4965 c29 -7 439 -12 435 -5 -2 4 -104 7 -227 8 -123 0 -216 -1
-208 -3z"/>
<path d="M2585 4960 c3 -5 10 -10 16 -10 5 0 9 5 9 10 0 6 -7 10 -16 10 -8 0
-12 -4 -9 -10z"/>
<path d="M2545 4940 c-4 -6 -16 -10 -28 -8 -14 2 -23 -3 -25 -15 -3 -14 2 -17
25 -15 20 2 28 -1 28 -12 0 -9 -11 -16 -27 -18 -16 -2 -28 -9 -28 -16 0 -20
12 -27 26 -15 8 7 14 7 19 -1 14 -23 23 -7 27 50 3 57 -3 73 -17 50z"/>
<path d="M3638 4635 c-2 -168 0 -305 3 -305 6 0 19 330 19 502 0 63 -4 108
-10 108 -6 0 -10 -116 -12 -305z"/>
<path d="M4501 4924 c0 -11 3 -14 6 -6 3 7 2 16 -1 19 -3 4 -6 -2 -5 -13z"/>
<path d="M2407 4914 c-13 -13 -7 -24 14 -24 11 0 19 5 17 12 -5 14 -22 21 -31
12z"/>
<path d="M3437 4899 c7 -7 15 -10 18 -7 3 3 -2 9 -12 12 -14 6 -15 5 -6 -5z"/>
<path d="M510 4854 c0 -16 5 -36 10 -44 8 -11 9 -5 6 23 -4 46 -16 62 -16 21z"/>
<path d="M2400 4855 c0 -8 9 -15 20 -15 11 0 20 7 20 15 0 8 -9 15 -20 15 -11
0 -20 -7 -20 -15z"/>
<path d="M286 4817 c3 -10 9 -15 12 -12 3 3 0 11 -7 18 -10 9 -11 8 -5 -6z"/>
<path d="M2400 4799 c0 -14 5 -19 17 -17 26 5 29 38 4 38 -15 0 -21 -6 -21
-21z"/>
<path d="M2490 4803 c0 -8 13 -13 35 -13 47 0 47 25 0 26 -23 0 -35 -4 -35
-13z"/>
<path d="M3252 4778 c3 -7 15 -15 29 -18 l24 -6 6 -510 c3 -290 10 -518 16
-527 6 -12 8 -2 6 35 -1 29 -3 211 -3 403 0 193 -3 409 -7 482 l-6 132 -30 11
c-38 13 -40 13 -35 -2z"/>
<path d="M2490 4754 c0 -11 6 -15 19 -11 10 2 26 0 35 -5 12 -7 16 -5 16 12 0
16 -6 20 -35 20 -26 0 -35 -4 -35 -16z"/>
<path d="M2402 4743 c2 -10 10 -18 18 -18 22 0 18 29 -3 33 -14 3 -18 -1 -15
-15z"/>
<path d="M4280 4740 c0 -5 5 -10 10 -10 6 0 10 5 10 10 0 6 -4 10 -10 10 -5 0
-10 -4 -10 -10z"/>
<path d="M2490 4695 c0 -18 4 -23 15 -19 8 4 15 15 15 25 0 10 -7 19 -15 19
-9 0 -15 -9 -15 -25z"/>
<path d="M2537 4713 c-13 -12 -7 -33 8 -33 8 0 15 9 15 20 0 20 -11 26 -23 13z"/>
<path d="M4065 4700 c3 -5 8 -10 11 -10 2 0 4 5 4 10 0 6 -5 10 -11 10 -5 0
-7 -4 -4 -10z"/>
<path d="M4501 4694 c0 -11 3 -14 6 -6 3 7 2 16 -1 19 -3 4 -6 -2 -5 -13z"/>
<path d="M1430 4686 c0 -17 14 -29 23 -20 8 8 -3 34 -14 34 -5 0 -9 -6 -9 -14z"/>
<path d="M1570 4679 c0 -10 59 -8 66 2 2 4 -12 7 -31 7 -19 0 -35 -4 -35 -9z"/>
<path d="M1683 4683 c15 -2 39 -2 55 0 15 2 2 4 -28 4 -30 0 -43 -2 -27 -4z"/>
<path d="M2400 4675 c0 -8 6 -15 14 -15 8 0 16 7 20 15 4 10 -1 15 -14 15 -11
0 -20 -7 -20 -15z"/>
<path d="M4348 4683 c6 -2 18 -2 25 0 6 3 1 5 -13 5 -14 0 -19 -2 -12 -5z"/>
<path d="M4625 4680 c-3 -5 -2 -10 4 -10 5 0 13 5 16 10 3 6 2 10 -4 10 -5 0
-13 -4 -16 -10z"/>
<path d="M4710 4678 c0 -4 4 -8 9 -8 6 0 12 4 15 8 3 5 -1 9 -9 9 -8 0 -15 -4
-15 -9z"/>
<path d="M4785 4680 c-3 -5 1 -10 10 -10 9 0 13 5 10 10 -3 6 -8 10 -10 10 -2
0 -7 -4 -10 -10z"/>
<path d="M4830 4680 c-9 -6 -10 -10 -3 -10 6 0 15 5 18 10 8 12 4 12 -15 0z"/>
<path d="M3045 4670 c-3 -6 1 -13 10 -16 21 -9 26 -2 10 13 -9 8 -16 9 -20 3z"/>
<path d="M4933 4673 c9 -2 23 -2 30 0 6 3 -1 5 -18 5 -16 0 -22 -2 -12 -5z"/>
<path d="M4998 4673 c6 -2 18 -2 25 0 6 3 1 5 -13 5 -14 0 -19 -2 -12 -5z"/>
<path d="M4135 4660 c-3 -6 5 -10 19 -10 14 0 28 5 31 10 3 6 -5 10 -19 10
-14 0 -28 -4 -31 -10z"/>
<path d="M512 4630 c0 -19 2 -27 5 -17 2 9 2 25 0 35 -3 9 -5 1 -5 -18z"/>
<path d="M2490 4626 l0 -31 19 24 18 24 6 -23 c7 -27 27 -17 27 14 0 19 -5 22
-35 22 -32 0 -35 -2 -35 -30z"/>
<path d="M3709 4643 c0 -10 -1 -37 -3 -60 -1 -24 1 -43 6 -43 4 0 8 27 8 60 0
33 -2 60 -5 60 -3 0 -5 -8 -6 -17z"/>
<path d="M1593 4643 c26 -2 68 -2 95 0 26 2 4 3 -48 3 -52 0 -74 -1 -47 -3z"/>
<path d="M1746 4623 c10 -40 14 -41 14 -5 0 18 -5 32 -10 32 -6 0 -8 -11 -4
-27z"/>
<path d="M2405 4640 c-3 -5 3 -10 15 -10 12 0 18 5 15 10 -3 6 -10 10 -15 10
-5 0 -12 -4 -15 -10z"/>
<path d="M1511 4631 c-10 -7 -10 -10 -1 -16 6 -4 16 -3 22 3 13 13 -4 23 -21
13z"/>
<path d="M5025 4631 c-3 -6 -3 -11 2 -11 4 0 1 -5 -7 -10 -10 -7 -11 -10 -2
-10 7 0 15 7 19 15 7 19 -2 31 -12 16z"/>
<path d="M4122 4600 c0 -19 2 -27 5 -17 2 9 2 25 0 35 -3 9 -5 1 -5 -18z"/>
<path d="M4622 4615 c-7 -8 -9 -15 -4 -15 5 0 15 7 22 15 16 19 -1 19 -18 0z"/>
<path d="M4708 4623 c7 -3 16 -2 19 1 4 3 -2 6 -13 5 -11 0 -14 -3 -6 -6z"/>
<path d="M4867 4609 c-4 -16 -3 -18 9 -8 7 6 11 15 8 20 -8 13 -11 11 -17 -12z"/>
<path d="M2400 4610 c0 -5 9 -10 21 -10 11 0 17 5 14 10 -3 6 -13 10 -21 10
-8 0 -14 -4 -14 -10z"/>
<path d="M4768 4613 c7 -3 16 -2 19 1 4 3 -2 6 -13 5 -11 0 -14 -3 -6 -6z"/>
<path d="M1646 4601 c-3 -4 11 -8 30 -9 19 -1 39 -4 44 -7 6 -3 7 0 5 7 -6 14
-72 21 -79 9z"/>
<path d="M4958 4603 c7 -3 16 -2 19 1 4 3 -2 6 -13 5 -11 0 -14 -3 -6 -6z"/>
<path d="M2490 4567 c0 -21 4 -23 31 -19 24 4 30 1 27 -9 -3 -8 -11 -15 -19
-15 -8 -1 -19 -2 -25 -3 -7 0 -14 -14 -16 -30 -4 -29 -3 -30 34 -29 21 0 38 4
39 9 0 5 1 27 1 49 0 62 -1 63 -21 57 -10 -2 -26 0 -35 5 -13 7 -16 4 -16 -15z
m58 -69 c-3 -7 -15 -15 -28 -16 -21 -3 -22 -2 -11 12 16 19 44 21 39 4z"/>
<path d="M285 4570 c-3 -5 -1 -10 4 -10 6 0 11 5 11 10 0 6 -2 10 -4 10 -3 0
-8 -4 -11 -10z"/>
<path d="M2400 4560 c0 -13 5 -17 14 -14 24 9 28 34 6 34 -13 0 -20 -7 -20
-20z"/>
<path d="M3960 4556 c0 -8 5 -18 10 -21 6 -3 10 1 10 9 0 8 -4 18 -10 21 -5 3
-10 -1 -10 -9z"/>
<path d="M513 4525 c0 -22 2 -30 4 -17 2 12 2 30 0 40 -3 9 -5 -1 -4 -23z"/>
<path d="M1625 4551 c-13 -5 -5 -8 28 -8 26 -1 47 3 47 8 0 11 -47 11 -75 0z"/>
<path d="M1710 4550 c0 -5 5 -10 10 -10 6 0 10 5 10 10 0 6 -4 10 -10 10 -5 0
-10 -4 -10 -10z"/>
<path d="M3755 4550 c-3 -5 1 -10 9 -10 9 0 16 5 16 10 0 6 -4 10 -9 10 -6 0
-13 -4 -16 -10z"/>
<path d="M4605 4550 c-3 -5 -1 -10 4 -10 6 0 11 5 11 10 0 6 -2 10 -4 10 -3 0
-8 -4 -11 -10z"/>
<path d="M1747 4493 c6 -78 13 -80 13 -5 0 34 -4 62 -9 62 -5 0 -7 -26 -4 -57z"/>
<path d="M1907 4525 c-4 -8 -2 -17 3 -20 6 -4 10 3 10 14 0 25 -6 27 -13 6z"/>
<path d="M2413 4523 c-18 -6 -16 -23 1 -23 17 0 30 16 19 23 -5 2 -14 2 -20 0z"/>
<path d="M1580 4512 c0 -14 11 -21 26 -15 8 3 11 9 8 14 -7 11 -34 12 -34 1z"/>
<path d="M3690 4511 c0 -6 5 -13 10 -16 6 -3 10 1 10 9 0 9 -4 16 -10 16 -5 0
-10 -4 -10 -9z"/>
<path d="M3765 4500 c-3 -5 -1 -10 4 -10 6 0 11 5 11 10 0 6 -2 10 -4 10 -3 0
-8 -4 -11 -10z"/>
<path d="M3985 4501 c-3 -6 -1 -11 4 -11 6 0 11 -7 11 -15 0 -8 5 -15 10 -15
14 0 12 11 -4 33 -9 12 -16 14 -21 8z"/>
<path d="M2400 4473 c0 -7 7 -13 15 -13 8 0 15 6 15 13 0 8 -7 14 -15 14 -8 0
-15 -6 -15 -14z"/>
<path d="M3681 4473 c-1 -24 13 -31 25 -11 4 6 3 8 -4 4 -6 -3 -13 2 -15 11
-4 14 -5 13 -6 -4z"/>
<path d="M3750 4444 c-6 -14 -10 -50 -10 -80 0 -41 -4 -54 -15 -54 -22 0 -18
-15 4 -17 16 -1 19 8 25 69 3 38 11 78 17 89 7 13 6 19 -1 19 -6 0 -15 -12
-20 -26z"/>
<path d="M4120 4462 c0 -11 261 -12 280 -1 9 5 -46 9 -132 9 -82 0 -148 -4
-148 -8z"/>
<path d="M4428 4463 c6 -2 18 -2 25 0 6 3 1 5 -13 5 -14 0 -19 -2 -12 -5z"/>
<path d="M4500 4466 c0 -9 30 -14 35 -6 4 6 -3 10 -14 10 -12 0 -21 -2 -21 -4z"/>
<path d="M4562 4461 c-8 -5 0 -7 22 -7 19 1 32 4 29 8 -6 10 -35 10 -51 -1z"/>
<path d="M4660 4458 c0 -5 11 -8 25 -8 14 0 25 4 25 9 0 5 -11 8 -25 7 -14 0
-25 -4 -25 -8z"/>
<path d="M4770 4460 c-10 -7 11 -10 68 -10 53 0 81 4 77 10 -8 13 -125 13
-145 0z"/>
<path d="M2400 4425 c0 -8 7 -15 15 -15 8 0 15 7 15 15 0 8 -7 15 -15 15 -8 0
-15 -7 -15 -15z"/>
<path d="M3686 4413 c-6 -14 -5 -15 5 -6 7 7 10 15 7 18 -3 3 -9 -2 -12 -12z"/>
<path d="M4269 4428 c-6 -12 -4 -48 2 -48 5 0 9 11 9 25 0 21 -6 33 -11 23z"/>
<path d="M3788 4413 c-2 -5 -1 -26 3 -48 6 -37 6 -38 8 -8 0 17 4 38 7 47 6
16 -11 23 -18 9z"/>
<path d="M511 4394 c0 -11 3 -14 6 -6 3 7 2 16 -1 19 -3 4 -6 -2 -5 -13z"/>
<path d="M2400 4380 c0 -5 6 -10 14 -10 8 0 18 5 21 10 3 6 -3 10 -14 10 -12
0 -21 -4 -21 -10z"/>
<path d="M3672 4370 c0 -14 2 -19 5 -12 2 6 2 18 0 25 -3 6 -5 1 -5 -13z"/>
<path d="M2486 4363 c-9 -23 1 -28 18 -10 13 13 13 16 2 20 -8 3 -17 -1 -20
-10z"/>
<path d="M2543 4373 c-13 -5 -7 -33 7 -33 11 0 21 28 12 33 -4 3 -12 2 -19 0z"/>
<path d="M3890 4364 c0 -8 5 -12 10 -9 6 3 10 10 10 16 0 5 -4 9 -10 9 -5 0
-10 -7 -10 -16z"/>
<path d="M281 4344 c0 -11 3 -14 6 -6 3 7 2 16 -1 19 -3 4 -6 -2 -5 -13z"/>
<path d="M3700 4340 c0 -5 5 -10 11 -10 5 0 7 5 4 10 -3 6 -8 10 -11 10 -2 0
-4 -4 -4 -10z"/>
<path d="M2400 4325 c0 -8 7 -15 15 -15 8 0 15 7 15 15 0 8 -7 15 -15 15 -8 0
-15 -7 -15 -15z"/>
<path d="M3600 4330 c0 -5 5 -10 10 -10 6 0 10 5 10 10 0 6 -4 10 -10 10 -5 0
-10 -4 -10 -10z"/>
<path d="M4090 4319 c0 -5 5 -7 10 -4 6 3 10 8 10 11 0 2 -4 4 -10 4 -5 0 -10
-5 -10 -11z"/>
<path d="M4154 4318 c-6 -9 64 -3 73 6 4 4 -10 6 -31 4 -20 -1 -39 -6 -42 -10z"/>
<path d="M4470 4320 l-35 -7 38 -2 c20 0 37 4 37 9 0 6 -1 9 -2 9 -2 -1 -19
-5 -38 -9z"/>
<path d="M4585 4320 c-8 -13 5 -13 25 0 13 8 13 10 -2 10 -9 0 -20 -4 -23 -10z"/>
<path d="M4648 4323 c7 -3 16 -2 19 1 4 3 -2 6 -13 5 -11 0 -14 -3 -6 -6z"/>
<path d="M4680 4320 c0 -5 4 -10 9 -10 6 0 13 5 16 10 3 6 -1 10 -9 10 -9 0
-16 -4 -16 -10z"/>
<path d="M4730 4321 c0 -10 26 -9 36 2 4 4 -2 7 -14 7 -12 0 -22 -4 -22 -9z"/>
<path d="M4790 4321 c0 -5 9 -7 20 -4 11 3 20 7 20 9 0 2 -9 4 -20 4 -11 0
-20 -4 -20 -9z"/>
<path d="M4848 4323 c6 -2 18 -2 25 0 6 3 1 5 -13 5 -14 0 -19 -2 -12 -5z"/>
<path d="M4953 4323 c9 -2 23 -2 30 0 6 3 -1 5 -18 5 -16 0 -22 -2 -12 -5z"/>
<path d="M5038 4323 c18 -2 45 -2 60 0 15 2 0 4 -33 4 -33 0 -45 -2 -27 -4z"/>
<path d="M2498 4313 c7 -3 16 -2 19 1 4 3 -2 6 -13 5 -11 0 -14 -3 -6 -6z"/>
<path d="M2530 4316 c0 -9 30 -14 35 -6 4 6 -3 10 -14 10 -12 0 -21 -2 -21 -4z"/>
<path d="M3640 4285 c0 -18 -3 -40 -6 -49 -3 -9 -1 -16 5 -16 6 0 11 16 11 35
0 21 6 37 16 43 14 8 13 10 -5 15 -18 4 -21 1 -21 -28z"/>
<path d="M3948 4313 c7 -3 16 -2 19 1 4 3 -2 6 -13 5 -11 0 -14 -3 -6 -6z"/>
<path d="M4048 4313 c7 -3 16 -2 19 1 4 3 -2 6 -13 5 -11 0 -14 -3 -6 -6z"/>
<path d="M4398 4313 c7 -3 16 -2 19 1 4 3 -2 6 -13 5 -11 0 -14 -3 -6 -6z"/>
<path d="M2508 4283 c12 -2 30 -2 40 0 9 3 -1 5 -23 4 -22 0 -30 -2 -17 -4z"/>
<path d="M2402 4268 c7 -19 38 -22 38 -4 0 10 -9 16 -21 16 -12 0 -19 -5 -17
-12z"/>
<path d="M3738 4215 c-1 -37 0 -74 3 -83 4 -9 8 18 10 61 2 44 1 81 -3 83 -3
2 -8 -25 -10 -61z"/>
<path d="M1323 4220 c0 -25 2 -35 4 -22 2 12 2 32 0 45 -2 12 -4 2 -4 -23z"/>
<path d="M2490 4250 c0 -5 7 -10 16 -10 8 0 12 5 9 10 -3 6 -10 10 -16 10 -5
0 -9 -4 -9 -10z"/>
<path d="M2535 4240 c3 -5 12 -7 20 -3 21 7 19 13 -6 13 -11 0 -18 -4 -14 -10z"/>
<path d="M2400 4220 c0 -12 37 -14 44 -2 2 4 -6 9 -20 10 -13 1 -24 -3 -24 -8z"/>
<path d="M2486 4217 c3 -10 9 -15 12 -12 3 3 0 11 -7 18 -10 9 -11 8 -5 -6z"/>
<path d="M3947 4223 c-4 -3 -7 -13 -7 -21 0 -18 13 -7 16 13 2 17 1 18 -9 8z"/>
<path d="M2530 4200 c0 -5 5 -10 10 -10 6 0 10 5 10 10 0 6 -4 10 -10 10 -5 0
-10 -4 -10 -10z"/>
<path d="M3590 4175 c-20 -21 -28 -35 -19 -34 15 0 65 57 57 64 -2 3 -20 -11
-38 -30z"/>
<path d="M2410 4190 c-12 -8 -11 -10 8 -10 12 0 22 5 22 10 0 13 -11 13 -30 0z"/>
<path d="M2488 4183 c7 -3 16 -2 19 1 4 3 -2 6 -13 5 -11 0 -14 -3 -6 -6z"/>
<path d="M1740 4151 c0 -17 5 -31 10 -31 6 0 10 11 10 24 0 14 -4 28 -10 31
-6 4 -10 -7 -10 -24z"/>
<path d="M1322 4150 c0 -14 2 -19 5 -12 2 6 2 18 0 25 -3 6 -5 1 -5 -13z"/>
<path d="M3927 4164 c-4 -4 -7 -17 -7 -28 1 -19 1 -20 11 -3 11 19 8 43 -4 31z"/>
<path d="M1271 4134 c0 -11 3 -14 6 -6 3 7 2 16 -1 19 -3 4 -6 -2 -5 -13z"/>
<path d="M2406 4134 c-9 -22 -8 -23 14 -17 11 3 20 12 20 19 0 19 -26 18 -34
-2z"/>
<path d="M2540 4140 c0 -5 4 -10 9 -10 6 0 13 5 16 10 3 6 -1 10 -9 10 -9 0
-16 -4 -16 -10z"/>
<path d="M3590 4105 c0 -9 5 -15 11 -13 6 2 11 8 11 13 0 5 -5 11 -11 13 -6 2
-11 -4 -11 -13z"/>
<path d="M2406 4084 c-4 -9 1 -14 14 -14 23 0 27 15 6 23 -8 3 -17 -1 -20 -9z"/>
<path d="M3740 4085 c0 -9 5 -15 11 -13 6 2 11 8 11 13 0 5 -5 11 -11 13 -6 2
-11 -4 -11 -13z"/>
<path d="M2487 4075 c-4 -8 3 -10 19 -7 29 5 30 8 5 15 -11 3 -22 -1 -24 -8z"/>
<path d="M2545 4080 c-3 -5 -1 -10 4 -10 6 0 11 5 11 10 0 6 -2 10 -4 10 -3 0
-8 -4 -11 -10z"/>
<path d="M3590 4049 c0 -11 5 -17 10 -14 6 3 10 13 10 21 0 8 -4 14 -10 14 -5
0 -10 -9 -10 -21z"/>
<path d="M1730 4050 c0 -5 7 -10 15 -10 8 0 15 5 15 10 0 6 -7 10 -15 10 -8 0
-15 -4 -15 -10z"/>
<path d="M3470 4050 c0 -5 5 -10 11 -10 5 0 7 5 4 10 -3 6 -8 10 -11 10 -2 0
-4 -4 -4 -10z"/>
<path d="M3510 4030 c0 -16 5 -30 10 -30 6 0 10 14 10 30 0 17 -4 30 -10 30
-5 0 -10 -13 -10 -30z"/>
<path d="M3737 4040 c-7 -28 1 -46 14 -33 6 6 6 19 1 33 l-9 24 -6 -24z"/>
<path d="M1678 4043 c7 -3 16 -2 19 1 4 3 -2 6 -13 5 -11 0 -14 -3 -6 -6z"/>
<path d="M2407 4030 c6 -22 18 -26 29 -9 3 6 0 15 -7 20 -22 14 -28 11 -22
-11z"/>
<path d="M281 4014 c0 -11 3 -14 6 -6 3 7 2 16 -1 19 -3 4 -6 -2 -5 -13z"/>
<path d="M2255 4020 c-3 -5 -1 -10 4 -10 6 0 11 5 11 10 0 6 -2 10 -4 10 -3 0
-8 -4 -11 -10z"/>
<path d="M3905 4020 c-3 -5 1 -10 9 -10 9 0 16 5 16 10 0 6 -4 10 -9 10 -6 0
-13 -4 -16 -10z"/>
<path d="M1430 4012 c1 -11 26 -42 35 -42 4 0 2 6 -4 13 -6 8 -8 16 -5 19 2 3
-2 8 -11 11 -8 4 -15 3 -15 -1z"/>
<path d="M3575 4010 c-3 -5 3 -10 14 -10 12 0 21 5 21 10 0 6 -6 10 -14 10 -8
0 -18 -4 -21 -10z"/>
<path d="M2495 4001 c-3 -6 12 -10 35 -9 22 0 40 4 40 9 0 12 -67 12 -75 0z"/>
<path d="M2410 3975 c12 -15 30 -12 30 6 0 5 -10 9 -21 9 -18 0 -19 -2 -9 -15z"/>
<path d="M3453 3965 c-9 -26 4 -28 26 -6 21 21 21 21 1 21 -11 0 -23 -7 -27
-15z"/>
<path d="M2520 3959 c0 -5 -4 -8 -9 -4 -5 3 -12 1 -16 -5 -4 -6 4 -10 18 -10
14 0 27 7 31 15 3 9 0 15 -9 15 -8 0 -15 -5 -15 -11z"/>
<path d="M3620 3955 c-10 -12 -10 -15 3 -15 19 0 31 16 18 24 -5 3 -14 -1 -21
-9z"/>
<path d="M2415 3930 c4 -6 11 -8 16 -5 14 9 11 15 -7 15 -8 0 -12 -5 -9 -10z"/>
<path d="M1690 3923 c0 -5 4 -14 9 -21 7 -11 9 -11 14 1 3 8 3 18 0 21 -9 8
-23 7 -23 -1z"/>
<path d="M3750 3792 c0 -78 0 -144 0 -147 0 -3 3 -6 8 -7 12 -5 15 273 3 285
-8 8 -11 -30 -11 -131z"/>
<path d="M3830 3920 c0 -5 5 -10 10 -10 6 0 10 5 10 10 0 6 -4 10 -10 10 -5 0
-10 -4 -10 -10z"/>
<path d="M4660 3923 c0 -5 5 -15 10 -23 8 -12 10 -11 10 8 0 12 -4 22 -10 22
-5 0 -10 -3 -10 -7z"/>
<path d="M2513 3913 c-24 -5 -38 -29 -21 -39 6 -4 8 -3 4 4 -8 14 28 25 54 17
15 -5 18 -3 14 9 -6 16 -11 17 -51 9z"/>
<path d="M4604 3566 c0 -195 4 -352 8 -350 11 7 10 704 -1 704 -4 0 -8 -159
-7 -354z"/>
<path d="M4908 3580 c-2 -187 0 -340 5 -340 4 0 7 24 7 53 0 28 3 181 6 340 4
201 3 287 -5 287 -7 0 -11 -107 -13 -340z"/>
<path d="M4990 3509 c0 -268 3 -408 10 -404 12 7 9 815 -2 815 -5 0 -8 -185
-8 -411z"/>
<path d="M1740 3900 c0 -5 5 -10 10 -10 6 0 10 5 10 10 0 6 -4 10 -10 10 -5 0
-10 -4 -10 -10z"/>
<path d="M3447 3903 c-4 -3 -7 -13 -7 -21 0 -12 3 -12 15 -2 8 7 15 16 15 21
0 11 -14 12 -23 2z"/>
<path d="M1505 3889 c-10 -15 3 -25 16 -12 7 7 7 13 1 17 -6 3 -14 1 -17 -5z"/>
<path d="M2410 3890 c0 -5 7 -10 15 -10 8 0 15 5 15 10 0 6 -7 10 -15 10 -8 0
-15 -4 -15 -10z"/>
<path d="M3610 3889 c0 -5 5 -7 10 -4 6 3 10 8 10 11 0 2 -4 4 -10 4 -5 0 -10
-5 -10 -11z"/>
<path d="M4050 3880 c0 -11 5 -20 10 -20 6 0 10 9 10 20 0 11 -4 20 -10 20 -5
0 -10 -9 -10 -20z"/>
<path d="M1580 3870 c0 -6 27 -10 63 -10 36 0 57 4 49 9 -19 12 -112 13 -112
1z"/>
<path d="M3900 3870 c-18 -12 -2 -12 25 0 13 6 15 9 5 9 -8 0 -22 -4 -30 -9z"/>
<path d="M2503 3863 c-7 -3 -13 -12 -13 -21 0 -12 3 -13 11 -5 12 12 39 6 50
-10 4 -5 9 -5 13 2 4 6 2 11 -4 11 -6 0 -8 4 -5 10 4 6 -1 7 -10 3 -10 -3 -20
-1 -24 4 -3 6 -12 8 -18 6z"/>
<path d="M2412 3844 c4 -21 22 -23 26 -1 2 10 -3 17 -13 17 -10 0 -15 -6 -13
-16z"/>
<path d="M3425 3840 c-3 -5 1 -10 9 -10 9 0 16 5 16 10 0 6 -4 10 -9 10 -6 0
-13 -4 -16 -10z"/>
<path d="M4025 3829 c-10 -15 3 -25 16 -12 7 7 7 13 1 17 -6 3 -14 1 -17 -5z"/>
<path d="M3189 3813 c-3 -16 3 -108 7 -112 2 -2 4 23 4 57 0 34 -2 62 -5 62
-3 0 -6 -3 -6 -7z"/>
<path d="M3390 3800 c0 -11 0 -23 -1 -27 0 -4 4 -9 9 -11 5 -1 9 11 9 28 0 16
-4 30 -9 30 -4 0 -8 -9 -8 -20z"/>
<path d="M2540 3795 c0 -8 4 -15 9 -15 5 0 11 7 15 15 3 9 0 15 -9 15 -8 0
-15 -7 -15 -15z"/>
<path d="M2410 3790 c0 -5 9 -10 21 -10 11 0 17 5 14 10 -3 6 -13 10 -21 10
-8 0 -14 -4 -14 -10z"/>
<path d="M2498 3783 c7 -3 16 -2 19 1 4 3 -2 6 -13 5 -11 0 -14 -3 -6 -6z"/>
<path d="M3495 3780 c-3 -5 -1 -10 4 -10 6 0 11 5 11 10 0 6 -2 10 -4 10 -3 0
-8 -4 -11 -10z"/>
<path d="M3530 3549 c0 -134 4 -249 8 -255 11 -17 53 -24 97 -16 39 7 38 7
-25 12 l-65 5 0 242 c0 133 -3 245 -7 249 -5 4 -8 -103 -8 -237z"/>
<path d="M3920 3780 c0 -5 5 -10 10 -10 6 0 10 5 10 10 0 6 -4 10 -10 10 -5 0
-10 -4 -10 -10z"/>
<path d="M3440 3770 c0 -5 5 -10 10 -10 6 0 10 5 10 10 0 6 -4 10 -10 10 -5 0
-10 -4 -10 -10z"/>
<path d="M1630 3766 c0 -9 30 -14 35 -6 4 6 -3 10 -14 10 -12 0 -21 -2 -21 -4z"/>
<path d="M1680 3758 c0 -4 23 -8 52 -8 28 0 49 2 47 5 -9 8 -99 11 -99 3z"/>
<path d="M4660 3749 c0 -5 5 -7 10 -4 6 3 10 8 10 11 0 2 -4 4 -10 4 -5 0 -10
-5 -10 -11z"/>
<path d="M2413 3738 c2 -7 10 -13 17 -13 7 0 15 6 18 13 2 7 -5 12 -18 12 -13
0 -20 -5 -17 -12z"/>
<path d="M1490 3730 c0 -5 5 -10 10 -10 6 0 10 5 10 10 0 6 -4 10 -10 10 -5 0
-10 -4 -10 -10z"/>
<path d="M2557 3733 c-4 -3 -7 -11 -7 -17 0 -6 5 -5 12 2 6 6 9 14 7 17 -3 3
-9 2 -12 -2z"/>
<path d="M3905 3730 c-3 -5 -1 -10 4 -10 6 0 11 5 11 10 0 6 -2 10 -4 10 -3 0
-8 -4 -11 -10z"/>
<path d="M4662 3676 c-1 -32 2 -56 5 -52 9 9 10 67 2 91 -4 12 -7 -4 -7 -39z"/>
<path d="M1630 3691 c0 -6 8 -11 18 -12 9 0 29 -3 44 -5 14 -2 29 0 33 6 4 6
-7 10 -29 10 -19 0 -41 3 -50 6 -9 3 -16 1 -16 -5z"/>
<path d="M2405 3680 c-3 -5 3 -10 14 -10 12 0 21 5 21 10 0 6 -6 10 -14 10 -8
0 -18 -4 -21 -10z"/>
<path d="M2497 3677 c-11 -29 -9 -43 4 -30 6 6 9 19 7 29 -3 18 -4 18 -11 1z"/>
<path d="M3324 3626 c-1 -41 1 -53 7 -36 10 34 11 88 2 93 -5 3 -8 -23 -9 -57z"/>
<path d="M3377 3684 c-4 -4 -7 -14 -7 -23 0 -11 3 -12 11 -4 6 6 10 16 7 23
-2 6 -7 8 -11 4z"/>
<path d="M2520 3670 c0 -5 9 -10 20 -10 11 0 20 5 20 10 0 6 -9 10 -20 10 -11
0 -20 -4 -20 -10z"/>
<path d="M3182 3650 c0 -14 2 -19 5 -12 2 6 2 18 0 25 -3 6 -5 1 -5 -13z"/>
<path d="M4155 3660 c3 -5 8 -10 11 -10 2 0 4 5 4 10 0 6 -5 10 -11 10 -5 0
-7 -4 -4 -10z"/>
<path d="M5081 3654 c0 -11 3 -14 6 -6 3 7 2 16 -1 19 -3 4 -6 -2 -5 -13z"/>
<path d="M1481 3644 c0 -11 3 -14 6 -6 3 7 2 16 -1 19 -3 4 -6 -2 -5 -13z"/>
<path d="M2405 3640 c-3 -5 3 -10 14 -10 12 0 21 5 21 10 0 6 -6 10 -14 10 -8
0 -18 -4 -21 -10z"/>
<path d="M3380 3630 c0 -5 5 -10 11 -10 5 0 7 5 4 10 -3 6 -8 10 -11 10 -2 0
-4 -4 -4 -10z"/>
<path d="M3824 3615 c8 -8 21 -15 28 -15 8 1 6 6 -6 15 -26 20 -42 19 -22 0z"/>
<path d="M1376 3607 c3 -10 9 -15 12 -12 3 3 0 11 -7 18 -10 9 -11 8 -5 -6z"/>
<path d="M2506 3608 c2 -3 -2 -9 -8 -11 -7 -3 5 -4 27 -2 45 3 50 20 6 20 -16
0 -27 -3 -25 -7z"/>
<path d="M2405 3600 c3 -5 15 -10 26 -10 10 0 19 5 19 10 0 6 -12 10 -26 10
-14 0 -23 -4 -19 -10z"/>
<path d="M3460 3598 c0 -4 14 -8 32 -8 17 0 28 3 24 7 -10 10 -56 11 -56 1z"/>
<path d="M5082 3585 c0 -16 2 -22 5 -12 2 9 2 23 0 30 -3 6 -5 -1 -5 -18z"/>
<path d="M1640 3590 c0 -5 9 -10 21 -10 11 0 17 5 14 10 -3 6 -13 10 -21 10
-8 0 -14 -4 -14 -10z"/>
<path d="M3573 3593 c9 -2 25 -2 35 0 9 3 1 5 -18 5 -19 0 -27 -2 -17 -5z"/>
<path d="M3755 3589 c-10 -15 1 -23 20 -15 9 3 13 10 10 16 -8 13 -22 13 -30
-1z"/>
<path d="M4661 3538 c1 -68 6 -61 11 15 2 26 0 47 -4 47 -5 0 -7 -28 -7 -62z"/>
<path d="M4021 3574 c0 -11 3 -14 6 -6 3 7 2 16 -1 19 -3 4 -6 -2 -5 -13z"/>
<path d="M1480 3555 c0 -15 4 -24 10 -20 6 3 10 12 10 20 0 8 -4 17 -10 20 -6
4 -10 -5 -10 -20z"/>
<path d="M2547 3563 c-4 -3 -17 -7 -29 -8 -12 -1 -23 -6 -25 -12 -4 -12 55 -4
63 9 7 11 0 21 -9 11z"/>
<path d="M3960 3395 c0 -108 4 -175 10 -175 6 0 9 66 7 175 -1 96 -5 175 -9
175 -5 0 -8 -79 -8 -175z"/>
<path d="M2410 3550 c0 -5 9 -10 21 -10 11 0 17 5 14 10 -3 6 -13 10 -21 10
-8 0 -14 -4 -14 -10z"/>
<path d="M3317 3546 c-4 -10 -5 -21 -2 -24 9 -9 17 6 13 25 -3 17 -4 17 -11
-1z"/>
<path d="M5082 3530 c0 -14 2 -19 5 -12 2 6 2 18 0 25 -3 6 -5 1 -5 -13z"/>
<path d="M1668 3533 c6 -2 18 -2 25 0 6 3 1 5 -13 5 -14 0 -19 -2 -12 -5z"/>
<path d="M3756 3525 c-3 -9 -6 -24 -6 -33 0 -15 1 -15 16 0 12 11 13 21 7 33
-9 16 -10 16 -17 0z"/>
<path d="M2523 3513 c-46 -6 -41 -22 5 -20 23 1 39 7 39 15 0 6 -3 11 -6 10
-3 0 -21 -3 -38 -5z"/>
<path d="M1470 3496 c7 -7 14 -6 21 1 9 9 7 12 -9 10 -14 -1 -18 -5 -12 -11z"/>
<path d="M1660 3500 c0 -5 7 -10 16 -10 8 0 12 5 9 10 -3 6 -10 10 -16 10 -5
0 -9 -4 -9 -10z"/>
<path d="M2410 3495 c0 -9 9 -15 21 -15 18 0 19 2 9 15 -7 8 -16 15 -21 15 -5
0 -9 -7 -9 -15z"/>
<path d="M4022 3480 c0 -14 2 -19 5 -12 2 6 2 18 0 25 -3 6 -5 1 -5 -13z"/>
<path d="M3150 3469 c0 -5 5 -7 10 -4 6 3 10 8 10 11 0 2 -4 4 -10 4 -5 0 -10
-5 -10 -11z"/>
<path d="M3333 3410 c0 -41 2 -58 4 -37 2 20 2 54 0 75 -2 20 -4 3 -4 -38z"/>
<path d="M2513 3463 c-13 -2 -23 -9 -23 -14 0 -11 39 -2 55 12 9 9 7 10 -32 2z"/>
<path d="M3750 3454 c0 -8 5 -12 10 -9 6 3 10 10 10 16 0 5 -4 9 -10 9 -5 0
-10 -7 -10 -16z"/>
<path d="M4650 3466 c0 -2 7 -7 16 -10 8 -3 12 -2 9 4 -6 10 -25 14 -25 6z"/>
<path d="M5080 3305 c0 -93 3 -166 6 -163 7 8 8 317 0 325 -3 4 -6 -69 -6
-162z"/>
<path d="M1175 3450 c3 -5 8 -10 11 -10 2 0 4 5 4 10 0 6 -5 10 -11 10 -5 0
-7 -4 -4 -10z"/>
<path d="M2555 3450 c-3 -5 -1 -10 4 -10 6 0 11 5 11 10 0 6 -2 10 -4 10 -3 0
-8 -4 -11 -10z"/>
<path d="M3478 3453 c6 -2 18 -2 25 0 6 3 1 5 -13 5 -14 0 -19 -2 -12 -5z"/>
<path d="M3794 3452 c4 -7 2 -12 -3 -12 -6 0 -11 -4 -11 -10 0 -5 7 -10 15
-10 18 0 20 26 3 36 -7 4 -8 3 -4 -4z"/>
<path d="M2410 3440 c0 -5 6 -10 14 -10 8 0 18 5 21 10 3 6 -3 10 -14 10 -12
0 -21 -4 -21 -10z"/>
<path d="M3604 3438 c-10 -15 1 -19 26 -10 l24 9 -22 5 c-12 4 -25 2 -28 -4z"/>
<path d="M3705 3440 c-19 -8 -19 -9 3 -9 12 -1 22 4 22 9 0 6 -1 10 -2 9 -2 0
-12 -4 -23 -9z"/>
<path d="M4023 3415 c0 -22 2 -30 4 -17 2 12 2 30 0 40 -3 9 -5 -1 -4 -23z"/>
<path d="M1485 3420 c3 -5 8 -10 11 -10 2 0 4 5 4 10 0 6 -5 10 -11 10 -5 0
-7 -4 -4 -10z"/>
<path d="M3150 3395 c0 -19 4 -35 8 -35 4 0 6 16 4 35 -2 19 -6 35 -8 35 -2 0
-4 -16 -4 -35z"/>
<path d="M4662 3405 c0 -16 2 -22 5 -12 2 9 2 23 0 30 -3 6 -5 -1 -5 -18z"/>
<path d="M1578 3413 c7 -3 16 -2 19 1 4 3 -2 6 -13 5 -11 0 -14 -3 -6 -6z"/>
<path d="M1655 3410 c-3 -5 3 -10 14 -10 12 0 21 5 21 10 0 6 -6 10 -14 10 -8
0 -18 -4 -21 -10z"/>
<path d="M2510 3410 c-22 -7 -21 -8 12 -9 20 -1 39 3 42 7 6 10 -22 11 -54 2z"/>
<path d="M2405 3400 c3 -5 15 -10 26 -10 10 0 19 5 19 10 0 6 -12 10 -26 10
-14 0 -23 -4 -19 -10z"/>
<path d="M1455 3360 c3 -5 8 -10 11 -10 2 0 4 5 4 10 0 6 -5 10 -11 10 -5 0
-7 -4 -4 -10z"/>
<path d="M2410 3360 c0 -5 9 -10 21 -10 11 0 17 5 14 10 -3 6 -13 10 -21 10
-8 0 -14 -4 -14 -10z"/>
<path d="M2505 3360 c-8 -13 15 -13 35 0 12 8 11 10 -7 10 -12 0 -25 -4 -28
-10z"/>
<path d="M3850 3351 c0 -6 17 -7 38 -4 51 8 53 13 4 13 -23 0 -42 -4 -42 -9z"/>
<path d="M4660 3351 c0 -6 4 -13 10 -16 6 -3 7 1 4 9 -7 18 -14 21 -14 7z"/>
<path d="M2321 3238 c1 -62 5 -147 8 -188 5 -52 7 -17 7 112 -1 104 -4 188 -8
188 -5 0 -7 -51 -7 -112z"/>
<path d="M3152 3320 c0 -14 2 -19 5 -12 2 6 2 18 0 25 -3 6 -5 1 -5 -13z"/>
<path d="M4022 3310 c0 -19 2 -27 5 -17 2 9 2 25 0 35 -3 9 -5 1 -5 -18z"/>
<path d="M2417 3314 c-4 -4 -4 -10 -1 -15 6 -10 34 0 34 12 0 10 -24 12 -33 3z"/>
<path d="M4672 3295 c0 -16 2 -22 5 -12 2 9 2 23 0 30 -3 6 -5 -1 -5 -18z"/>
<path d="M2485 3300 c-8 -13 5 -13 25 0 13 8 13 10 -2 10 -9 0 -20 -4 -23 -10z"/>
<path d="M3310 3283 c0 -30 9 -27 15 6 2 11 0 21 -6 21 -5 0 -9 -12 -9 -27z"/>
<path d="M1572 3280 c0 -14 2 -19 5 -12 2 6 2 18 0 25 -3 6 -5 1 -5 -13z"/>
<path d="M3152 3270 c0 -14 2 -19 5 -12 2 6 2 18 0 25 -3 6 -5 1 -5 -13z"/>
<path d="M1715 3270 c-4 -6 7 -10 24 -10 17 0 31 5 31 10 0 6 -11 10 -24 10
-14 0 -28 -4 -31 -10z"/>
<path d="M4751 3253 c0 -25 1 -26 9 -8 12 27 12 35 0 35 -5 0 -10 -12 -9 -27z"/>
<path d="M2410 3261 c0 -10 30 -24 37 -17 3 3 2 9 -2 15 -8 13 -35 15 -35 2z"/>
<path d="M4670 3241 c0 -12 5 -21 10 -21 6 0 10 6 10 14 0 8 -4 18 -10 21 -5
3 -10 -3 -10 -14z"/>
<path d="M1675 3240 c-3 -5 -1 -10 4 -10 6 0 11 5 11 10 0 6 -2 10 -4 10 -3 0
-8 -4 -11 -10z"/>
<path d="M3335 3240 c-3 -5 -1 -10 4 -10 6 0 11 5 11 10 0 6 -2 10 -4 10 -3 0
-8 -4 -11 -10z"/>
<path d="M3601 3234 c0 -11 3 -14 6 -6 3 7 2 16 -1 19 -3 4 -6 -2 -5 -13z"/>
<path d="M4715 3231 c-3 -5 -1 -12 5 -16 5 -3 10 1 10 9 0 18 -6 21 -15 7z"/>
<path d="M1560 3184 c0 -26 3 -44 7 -41 9 10 11 77 1 83 -4 3 -8 -16 -8 -42z"/>
<path d="M1673 3199 c-1 -10 2 -19 8 -19 11 0 12 27 1 34 -4 2 -9 -4 -9 -15z"/>
<path d="M3152 3200 c0 -14 2 -19 5 -12 2 6 2 18 0 25 -3 6 -5 1 -5 -13z"/>
<path d="M3332 3030 c2 -126 7 -193 13 -190 6 3 9 8 8 12 -2 4 -5 86 -7 183
-3 97 -8 180 -11 183 -4 4 -5 -81 -3 -188z"/>
<path d="M4740 3201 c-7 -15 -7 -21 0 -21 12 0 25 28 17 36 -3 3 -10 -4 -17
-15z"/>
<path d="M2252 3185 c0 -16 2 -22 5 -12 2 9 2 23 0 30 -3 6 -5 -1 -5 -18z"/>
<path d="M3587 3204 c-4 -4 -7 -14 -7 -23 0 -11 3 -12 11 -4 6 6 10 16 7 23
-2 6 -7 8 -11 4z"/>
<path d="M4600 3189 c0 -5 5 -7 10 -4 6 3 10 8 10 11 0 2 -4 4 -10 4 -5 0 -10
-5 -10 -11z"/>
<path d="M1820 3166 c0 -14 5 -28 10 -31 6 -3 10 5 10 19 0 14 -4 28 -10 31
-6 3 -10 -5 -10 -19z"/>
<path d="M2410 3175 c0 -8 9 -15 20 -15 11 0 20 5 20 11 0 5 -4 7 -10 4 -5 -3
-10 -1 -10 4 0 6 -4 11 -10 11 -5 0 -10 -7 -10 -15z"/>
<path d="M3542 3159 c-12 -18 -11 -20 5 -17 10 2 19 11 21 21 5 23 -10 21 -26
-4z"/>
<path d="M4020 3159 c0 -5 5 -7 10 -4 6 3 10 8 10 11 0 2 -4 4 -10 4 -5 0 -10
-5 -10 -11z"/>
<path d="M1708 3153 c7 -3 16 -2 19 1 4 3 -2 6 -13 5 -11 0 -14 -3 -6 -6z"/>
<path d="M3150 3151 c0 -5 5 -13 10 -16 6 -3 10 -2 10 4 0 5 -4 13 -10 16 -5
3 -10 2 -10 -4z"/>
<path d="M1690 3130 c0 -5 5 -10 10 -10 6 0 10 5 10 10 0 6 -4 10 -10 10 -5 0
-10 -4 -10 -10z"/>
<path d="M2405 3120 c-3 -5 3 -10 14 -10 12 0 21 5 21 10 0 6 -6 10 -14 10 -8
0 -18 -4 -21 -10z"/>
<path d="M4286 3121 c-4 -5 -2 -12 3 -15 5 -4 12 -2 15 3 4 5 2 12 -3 15 -5 4
-12 2 -15 -3z"/>
<path d="M4320 3085 c-24 -24 -42 -47 -39 -50 3 -2 27 18 54 45 27 28 45 50
39 50 -5 0 -30 -20 -54 -45z"/>
<path d="M4395 3047 c0 -45 -2 -97 -6 -114 -5 -25 -3 -33 7 -33 11 0 14 22 14
109 0 61 -3 112 -8 115 -4 2 -7 -32 -7 -77z"/>
<path d="M4528 3123 c7 -3 16 -2 19 1 4 3 -2 6 -13 5 -11 0 -14 -3 -6 -6z"/>
<path d="M4783 3123 c20 -2 54 -2 75 0 20 2 3 4 -38 4 -41 0 -58 -2 -37 -4z"/>
<path d="M1821 3104 c0 -11 3 -14 6 -6 3 7 2 16 -1 19 -3 4 -6 -2 -5 -13z"/>
<path d="M3291 3104 c0 -11 3 -14 6 -6 3 7 2 16 -1 19 -3 4 -6 -2 -5 -13z"/>
<path d="M3380 3110 c-12 -8 -10 -10 8 -10 13 0 20 4 17 10 -7 12 -6 12 -25 0z"/>
<path d="M3430 3100 c0 -5 5 -10 10 -10 6 0 10 5 10 10 0 6 -4 10 -10 10 -5 0
-10 -4 -10 -10z"/>
<path d="M3740 3100 c-11 -7 -7 -10 18 -10 17 0 32 5 32 10 0 13 -30 13 -50 0z"/>
<path d="M4705 3100 c-121 -3 -225 -8 -231 -12 -16 -10 -19 -213 -4 -203 6 4
10 14 9 23 -1 10 -1 50 0 90 1 69 2 73 29 83 17 7 73 8 159 4 l133 -7 -3 -118
c-1 -65 2 -112 6 -104 5 8 7 64 5 124 l-3 109 70 3 c39 2 66 5 60 8 -5 3 -109
3 -230 0z"/>
<path d="M3645 3090 c4 -6 11 -8 16 -5 14 9 11 15 -7 15 -8 0 -12 -5 -9 -10z"/>
<path d="M2406 3076 c3 -8 13 -12 25 -9 23 6 15 23 -11 23 -12 0 -17 -5 -14
-14z"/>
<path d="M5020 3079 c0 -10 90 -8 96 3 3 5 -17 8 -45 7 -28 -1 -51 -6 -51 -10z"/>
<path d="M3376 3055 c-3 -9 0 -15 9 -15 8 0 15 7 15 15 0 8 -4 15 -9 15 -5 0
-11 -7 -15 -15z"/>
<path d="M1692 3040 c0 -14 2 -19 5 -12 2 6 2 18 0 25 -3 6 -5 1 -5 -13z"/>
<path d="M850 2979 c0 -11 5 -17 10 -14 6 3 10 13 10 21 0 8 -4 14 -10 14 -5
0 -10 -9 -10 -21z"/>
<path d="M935 2980 c-3 -5 -2 -17 3 -26 8 -14 10 -14 15 5 5 22 -7 38 -18 21z"/>
<path d="M1483 2975 c0 -8 4 -12 9 -9 5 3 6 10 3 15 -9 13 -12 11 -12 -6z"/>
<path d="M1832 2960 c0 -19 2 -27 5 -17 2 9 2 25 0 35 -3 9 -5 1 -5 -18z"/>
<path d="M2332 2950 c0 -14 2 -19 5 -12 2 6 2 18 0 25 -3 6 -5 1 -5 -13z"/>
<path d="M3403 2955 c-3 -9 -3 -18 -1 -21 3 -3 8 4 11 16 6 23 -1 27 -10 5z"/>
<path d="M3805 2961 c-6 -11 9 -23 19 -14 9 9 7 23 -3 23 -6 0 -12 -4 -16 -9z"/>
<path d="M1080 2941 c0 -14 5 -19 15 -14 17 6 15 25 -3 31 -7 2 -12 -5 -12
-17z"/>
<path d="M1250 2951 c0 -6 5 -13 10 -16 6 -3 10 1 10 9 0 9 -4 16 -10 16 -5 0
-10 -4 -10 -9z"/>
<path d="M4025 2951 c-3 -5 -1 -12 4 -15 5 -3 7 -16 3 -28 -3 -12 -1 -19 4
-15 13 7 17 67 5 67 -6 0 -12 -4 -16 -9z"/>
<path d="M3183 2910 c0 -25 2 -35 4 -22 2 12 2 32 0 45 -2 12 -4 2 -4 -23z"/>
<path d="M3970 2900 c0 -27 3 -50 8 -50 4 0 7 23 7 50 1 28 -3 50 -7 50 -4 0
-8 -22 -8 -50z"/>
<path d="M4101 2946 c10 -8 89 -13 89 -5 0 5 -21 9 -47 9 -25 0 -44 -2 -42 -4z"/>
<path d="M4279 2939 c-10 -6 -7 -9 14 -9 29 0 35 5 14 13 -8 3 -20 1 -28 -4z"/>
<path d="M4301 2903 c-48 -47 -47 -55 2 -21 34 23 57 47 57 60 0 15 -15 5 -59
-39z"/>
<path d="M4770 2909 c0 -24 4 -38 10 -34 6 3 10 22 10 41 0 19 -4 34 -10 34
-5 0 -10 -18 -10 -41z"/>
<path d="M656 2925 c-9 -26 -7 -32 5 -12 6 10 9 21 6 23 -2 3 -7 -2 -11 -11z"/>
<path d="M750 2895 c0 -27 2 -46 4 -44 8 8 10 78 3 85 -4 4 -7 -14 -7 -41z"/>
<path d="M1458 2923 c-3 -13 -2 -26 4 -29 14 -9 16 -2 8 26 -6 25 -6 25 -12 3z"/>
<path d="M610 2889 c0 -24 4 -38 10 -34 6 3 10 22 10 41 0 19 -4 34 -10 34 -5
0 -10 -18 -10 -41z"/>
<path d="M897 2923 c-4 -3 -7 -20 -7 -36 0 -17 3 -27 8 -23 5 6 11 66 6 66 0
0 -4 -3 -7 -7z"/>
<path d="M925 2910 c3 -5 10 -10 16 -10 5 0 9 5 9 10 0 6 -7 10 -16 10 -8 0
-12 -4 -9 -10z"/>
<path d="M960 2910 c0 -5 7 -10 16 -10 8 0 12 5 9 10 -3 6 -10 10 -16 10 -5 0
-9 -4 -9 -10z"/>
<path d="M1190 2886 c0 -20 5 -36 10 -36 6 0 10 13 10 29 0 17 -4 33 -10 36
-6 4 -10 -8 -10 -29z"/>
<path d="M1295 2910 c3 -5 8 -10 11 -10 2 0 4 5 4 10 0 6 -5 10 -11 10 -5 0
-7 -4 -4 -10z"/>
<path d="M1382 2915 c3 -3 16 -8 28 -10 12 -2 20 -1 16 2 -4 4 -16 8 -28 10
-12 2 -19 1 -16 -2z"/>
<path d="M1538 2907 c-12 -29 -10 -73 3 -60 6 6 9 26 7 44 -2 26 -5 30 -10 16z"/>
<path d="M3771 2904 c0 -11 3 -14 6 -6 3 7 2 16 -1 19 -3 4 -6 -2 -5 -13z"/>
<path d="M3801 2888 c-12 -33 -9 -44 7 -34 6 3 9 14 7 24 -1 9 2 23 8 30 6 8
6 12 -1 12 -5 0 -15 -14 -21 -32z"/>
<path d="M4170 2902 c0 -10 -5 -23 -12 -30 -9 -9 -8 -12 4 -12 10 0 17 11 20
30 3 17 1 30 -4 30 -4 0 -8 -8 -8 -18z"/>
<path d="M2331 2894 c0 -11 3 -14 6 -6 3 7 2 16 -1 19 -3 4 -6 -2 -5 -13z"/>
<path d="M1030 2880 c0 -11 5 -20 10 -20 6 0 10 9 10 20 0 11 -4 20 -10 20 -5
0 -10 -9 -10 -20z"/>
<path d="M1370 2874 c0 -14 4 -23 10 -19 6 3 10 15 10 26 0 10 -4 19 -10 19
-5 0 -10 -12 -10 -26z"/>
<path d="M4110 2879 c0 -11 4 -18 10 -14 5 3 7 12 3 20 -7 21 -13 19 -13 -6z"/>
<path d="M931 2874 c0 -11 3 -14 6 -6 3 7 2 16 -1 19 -3 4 -6 -2 -5 -13z"/>
<path d="M1070 2874 c0 -8 5 -12 10 -9 6 4 8 11 5 16 -9 14 -15 11 -15 -7z"/>
<path d="M1230 2881 c0 -6 4 -13 10 -16 6 -3 7 1 4 9 -7 18 -14 21 -14 7z"/>
<path d="M3580 2870 c0 -5 6 -10 14 -10 8 0 18 5 21 10 3 6 -3 10 -14 10 -12
0 -21 -4 -21 -10z"/>
<path d="M3848 2859 c-8 -5 8 -9 39 -9 28 0 55 5 58 10 8 12 -78 11 -97 -1z"/>
<path d="M4010 2860 c0 -13 30 -13 50 0 11 7 7 10 -17 10 -18 0 -33 -4 -33
-10z"/>
<path d="M4210 2860 c-13 -8 -12 -10 3 -10 9 0 17 5 17 10 0 12 -1 12 -20 0z"/>
<path d="M4450 2859 c0 -6 -7 -9 -15 -5 -8 3 -15 1 -15 -4 0 -6 11 -10 25 -10
16 0 25 6 25 15 0 8 -4 15 -10 15 -5 0 -10 -5 -10 -11z"/>
<path d="M3688 2853 c7 -3 16 -2 19 1 4 3 -2 6 -13 5 -11 0 -14 -3 -6 -6z"/>
<path d="M0 2839 c0 -5 17 -9 38 -9 20 0 433 -2 917 -4 692 -4 786 -3 440 4
-730 13 -1395 18 -1395 9z"/>
<path d="M2668 2843 c7 -3 16 -2 19 1 4 3 -2 6 -13 5 -11 0 -14 -3 -6 -6z"/>
<path d="M3248 2843 c7 -3 16 -2 19 1 4 3 -2 6 -13 5 -11 0 -14 -3 -6 -6z"/>
<path d="M3378 2843 c7 -3 16 -2 19 1 4 3 -2 6 -13 5 -11 0 -14 -3 -6 -6z"/>
<path d="M3463 2843 c15 -2 37 -2 50 0 12 2 0 4 -28 4 -27 0 -38 -2 -22 -4z"/>
<path d="M5058 2843 c6 -2 18 -2 25 0 6 3 1 5 -13 5 -14 0 -19 -2 -12 -5z"/>
<path d="M5105 2840 c-3 -5 -1 -10 4 -10 6 0 11 5 11 10 0 6 -2 10 -4 10 -3 0
-8 -4 -11 -10z"/>
<path d="M1835 2808 c-88 -4 -178 -9 -200 -10 -22 -2 753 -3 1723 -4 969 0
1762 3 1762 8 0 10 -227 11 -1860 12 -696 1 -1337 -2 -1425 -6z"/>
<path d="M626 2789 c5 -9 31 -6 40 4 4 4 -4 6 -19 5 -14 -1 -24 -5 -21 -9z"/>
<path d="M878 2783 c6 -2 18 -2 25 0 6 3 1 5 -13 5 -14 0 -19 -2 -12 -5z"/>
<path d="M0 2716 c0 -8 6 -16 13 -19 6 -2 1158 -5 2560 -6 2294 -2 2547 -1
2547 13 0 17 -46 18 -3587 24 -1311 2 -1533 0 -1533 -12z"/>
<path d="M1224 2632 c-33 -27 -130 -135 -118 -131 21 7 166 149 153 149 -8 0
-23 -8 -35 -18z"/>
<path d="M2375 2630 c-37 -7 -36 -7 18 -7 36 0 54 3 45 8 -7 5 -15 8 -18 7 -3
0 -23 -4 -45 -8z"/>
<path d="M2946 2628 c-12 -26 -4 -2024 9 -2037 7 -7 9 211 7 652 -4 1162 -7
1403 -16 1385z"/>
<path d="M1320 2583 c-24 -27 -82 -87 -129 -135 -47 -48 -82 -90 -79 -93 5 -5
161 146 226 220 21 24 41 38 57 38 14 0 25 3 25 8 0 5 -13 9 -28 9 -21 0 -40
-12 -72 -47z"/>
<path d="M1450 2626 c0 -2 7 -7 16 -10 8 -3 12 -2 9 4 -6 10 -25 14 -25 6z"/>
<path d="M1510 2620 c0 -12 37 -14 44 -2 2 4 -6 9 -20 10 -13 1 -24 -3 -24 -8z"/>
<path d="M1823 2618 c-2 -5 32 -8 76 -8 45 -1 120 -1 168 -1 48 -1 89 3 90 8
4 10 -327 11 -334 1z"/>
<path d="M2680 2620 c0 -5 5 -10 11 -10 5 0 7 5 4 10 -3 6 -8 10 -11 10 -2 0
-4 -4 -4 -10z"/>
<path d="M2855 2620 c-3 -5 1 -10 10 -10 9 0 13 5 10 10 -3 6 -8 10 -10 10 -2
0 -7 -4 -10 -10z"/>
<path d="M3010 2620 c0 -5 5 -10 11 -10 5 0 7 5 4 10 -3 6 -8 10 -11 10 -2 0
-4 -4 -4 -10z"/>
<path d="M3077 2624 c-7 -7 -6 -1648 0 -1801 3 -51 7 -93 11 -93 7 0 7 1889
-1 1896 -2 2 -6 1 -10 -2z"/>
<path d="M3501 2440 c0 -123 3 -189 9 -185 13 8 13 362 1 370 -6 3 -10 -71
-10 -185z"/>
<path d="M155 2610 c120 -6 758 -12 938 -10 10 0 16 4 12 9 -3 6 -231 9 -558
9 -378 -1 -502 -3 -392 -8z"/>
<path d="M1139 2607 c7 -7 14 -8 21 -1 6 6 2 10 -12 11 -16 2 -18 -1 -9 -10z"/>
<path d="M2180 2610 c8 -5 24 -10 35 -10 17 0 17 2 5 10 -8 5 -24 10 -35 10
-17 0 -17 -2 -5 -10z"/>
<path d="M3128 2613 c6 -2 18 -2 25 0 6 3 1 5 -13 5 -14 0 -19 -2 -12 -5z"/>
<path d="M3210 1780 c0 -541 3 -840 10 -840 6 0 10 300 10 840 0 560 -3 840
-10 840 -7 0 -10 -281 -10 -840z"/>
<path d="M3261 2604 c0 -11 3 -14 6 -6 3 7 2 16 -1 19 -3 4 -6 -2 -5 -13z"/>
<path d="M3301 1763 c0 -472 5 -878 9 -903 4 -25 8 361 9 858 1 610 -2 902 -9
902 -7 0 -10 -277 -9 -857z"/>
<path d="M3409 2613 c0 -4 -2 -18 -5 -30 -3 -18 1 -23 19 -23 15 0 18 3 9 8
-7 5 -10 16 -7 24 4 9 2 19 -4 23 -6 3 -11 3 -12 -2z"/>
<path d="M3920 2510 c0 -62 2 -111 4 -109 7 7 9 209 2 216 -3 4 -6 -45 -6
-107z"/>
<path d="M4897 2613 c-4 -3 -7 -12 -7 -20 0 -10 25 -13 118 -11 l117 2 -100 3
c-73 3 -103 7 -111 18 -6 8 -14 12 -17 8z"/>
<path d="M3634 2603 c7 -7 87 -5 95 3 2 2 -20 4 -49 4 -29 0 -50 -3 -46 -7z"/>
<path d="M3893 2570 c0 -25 2 -35 4 -22 2 12 2 32 0 45 -2 12 -4 2 -4 -23z"/>
<path d="M4050 2596 c0 -9 7 -12 20 -9 11 3 20 9 20 14 0 5 -9 9 -20 9 -11 0
-20 -6 -20 -14z"/>
<path d="M4368 2603 c84 -2 219 -2 300 0 81 1 12 3 -153 3 -165 0 -231 -2
-147 -3z"/>
<path d="M1235 2591 c-3 -5 -2 -12 3 -15 5 -3 9 1 9 9 0 17 -3 19 -12 6z"/>
<path d="M1820 2543 c0 -25 3 -43 6 -40 10 10 12 87 3 87 -5 0 -9 -21 -9 -47z"/>
<path d="M1126 2561 c-3 -5 -246 -6 -566 -3 -404 4 -560 2 -560 -6 0 -8 159
-12 553 -14 514 -3 553 -2 572 15 11 9 16 17 13 17 -4 0 -9 -4 -12 -9z"/>
<path d="M2190 2556 c0 -8 5 -18 10 -21 6 -3 10 3 10 14 0 12 -4 21 -10 21 -5
0 -10 -6 -10 -14z"/>
<path d="M3635 2559 c-4 -6 -5 -12 -2 -15 2 -3 7 2 10 11 7 17 1 20 -8 4z"/>
<path d="M1186 2534 c-6 -15 -4 -15 11 -3 10 7 20 15 22 16 2 2 -3 3 -11 3 -9
0 -19 -7 -22 -16z"/>
<path d="M3405 2541 c-6 -11 9 -23 19 -14 9 9 7 23 -3 23 -6 0 -12 -4 -16 -9z"/>
<path d="M3633 2480 c0 -30 2 -43 4 -27 2 15 2 39 0 55 -2 15 -4 2 -4 -28z"/>
<path d="M1945 2507 c-4 -10 -5 -21 -1 -24 10 -10 18 4 13 24 -4 17 -4 17 -12
0z"/>
<path d="M3673 2485 c0 -22 2 -30 4 -17 2 12 2 30 0 40 -3 9 -5 -1 -4 -23z"/>
<path d="M3893 2485 c0 -22 2 -30 4 -17 2 12 2 30 0 40 -3 9 -5 -1 -4 -23z"/>
<path d="M2195 2499 c-10 -15 3 -25 16 -12 7 7 7 13 1 17 -6 3 -14 1 -17 -5z"/>
<path d="M3341 2494 c0 -11 3 -14 6 -6 3 7 2 16 -1 19 -3 4 -6 -2 -5 -13z"/>
<path d="M3410 2500 c0 -5 4 -10 9 -10 6 0 13 5 16 10 3 6 -1 10 -9 10 -9 0
-16 -4 -16 -10z"/>
<path d="M1390 2480 c0 -5 5 -10 10 -10 6 0 10 5 10 10 0 6 -4 10 -10 10 -5 0
-10 -4 -10 -10z"/>
<path d="M1820 2205 c0 -157 3 -285 8 -285 4 0 7 128 7 285 0 157 -3 285 -7
285 -5 0 -8 -128 -8 -285z"/>
<path d="M3405 2470 c-3 -5 1 -10 10 -10 9 0 13 5 10 10 -3 6 -8 10 -10 10 -2
0 -7 -4 -10 -10z"/>
<path d="M5018 2463 c7 -3 16 -2 19 1 4 3 -2 6 -13 5 -11 0 -14 -3 -6 -6z"/>
<path d="M1940 2450 c0 -5 5 -10 10 -10 6 0 10 5 10 10 0 6 -4 10 -10 10 -5 0
-10 -4 -10 -10z"/>
<path d="M2200 2441 c-7 -15 -7 -21 0 -21 12 0 25 28 17 36 -3 3 -10 -4 -17
-15z"/>
<path d="M0 2440 c0 -14 1046 -14 1055 0 4 7 -173 10 -524 10 -347 0 -531 -3
-531 -10z"/>
<path d="M3011 2424 c0 -11 3 -14 6 -6 3 7 2 16 -1 19 -3 4 -6 -2 -5 -13z"/>
<path d="M3405 2430 c3 -5 10 -10 16 -10 5 0 9 5 9 10 0 6 -7 10 -16 10 -8 0
-12 -4 -9 -10z"/>
<path d="M3891 2424 c0 -11 3 -14 6 -6 3 7 2 16 -1 19 -3 4 -6 -2 -5 -13z"/>
<path d="M4940 2431 c0 -6 10 -11 23 -11 12 -1 52 -3 90 -6 45 -4 67 -2 67 5
0 7 -23 11 -59 11 -32 0 -73 3 -90 6 -20 4 -31 3 -31 -5z"/>
<path d="M1370 2419 c0 -5 5 -7 10 -4 6 3 10 8 10 11 0 2 -4 4 -10 4 -5 0 -10
-5 -10 -11z"/>
<path d="M3630 2409 c0 -5 5 -7 10 -4 6 3 10 8 10 11 0 2 -4 4 -10 4 -5 0 -10
-5 -10 -11z"/>
<path d="M1940 2400 c0 -5 4 -10 9 -10 6 0 13 5 16 10 3 6 -1 10 -9 10 -9 0
-16 -4 -16 -10z"/>
<path d="M3405 2400 c-3 -5 1 -10 9 -10 8 0 18 5 21 10 3 6 -1 10 -9 10 -8 0
-18 -4 -21 -10z"/>
<path d="M4894 2398 c-10 -16 2 -18 21 -5 16 12 16 14 1 14 -9 0 -19 -4 -22
-9z"/>
<path d="M1725 2390 c-3 -5 3 -10 15 -10 12 0 18 5 15 10 -3 6 -10 10 -15 10
-5 0 -12 -4 -15 -10z"/>
<path d="M2197 2376 c-4 -10 -5 -21 -2 -24 9 -9 17 6 13 25 -3 17 -4 17 -11
-1z"/>
<path d="M4045 2370 c-3 -5 1 -10 9 -10 9 0 16 5 16 10 0 6 -4 10 -9 10 -6 0
-13 -4 -16 -10z"/>
<path d="M1944 2359 c-3 -6 -1 -16 5 -22 8 -8 11 -5 11 11 0 24 -5 28 -16 11z"/>
<path d="M3400 2360 c0 -5 7 -10 15 -10 8 0 15 5 15 10 0 6 -7 10 -15 10 -8 0
-15 -4 -15 -10z"/>
<path d="M3882 2340 c0 -14 2 -19 5 -12 2 6 2 18 0 25 -3 6 -5 1 -5 -13z"/>
<path d="M4678 2343 c7 -3 16 -2 19 1 4 3 -2 6 -13 5 -11 0 -14 -3 -6 -6z"/>
<path d="M3405 2320 c3 -5 10 -10 16 -10 5 0 9 5 9 10 0 6 -7 10 -16 10 -8 0
-12 -4 -9 -10z"/>
<path d="M4050 2306 c0 -14 0 -136 0 -271 0 -135 0 -252 0 -262 0 -9 3 -13 7
-9 11 11 14 554 3 561 -6 3 -10 -5 -10 -19z"/>
<path d="M1944 2309 c-3 -6 -1 -16 5 -22 8 -8 11 -5 11 11 0 24 -5 28 -16 11z"/>
<path d="M2190 2310 c0 -5 5 -10 10 -10 6 0 10 5 10 10 0 6 -4 10 -10 10 -5 0
-10 -4 -10 -10z"/>
<path d="M3720 2309 c0 -7 10 -9 25 -5 15 4 25 2 25 -4 0 -6 5 -8 10 -5 21 13
9 25 -25 25 -19 0 -35 -5 -35 -11z"/>
<path d="M2190 2270 c0 -5 5 -10 10 -10 6 0 10 5 10 10 0 6 -4 10 -10 10 -5 0
-10 -4 -10 -10z"/>
<path d="M2425 2270 c3 -5 8 -10 11 -10 2 0 4 5 4 10 0 6 -5 10 -11 10 -5 0
-7 -4 -4 -10z"/>
<path d="M3405 2270 c3 -5 10 -10 16 -10 5 0 9 5 9 10 0 6 -7 10 -16 10 -8 0
-12 -4 -9 -10z"/>
<path d="M1940 2251 c0 -6 5 -13 10 -16 6 -3 10 1 10 9 0 9 -4 16 -10 16 -5 0
-10 -4 -10 -9z"/>
<path d="M2333 2200 c0 -36 2 -50 4 -32 2 17 2 47 0 65 -2 17 -4 3 -4 -33z"/>
<path d="M3627 2227 c-11 -14 -14 -23 -6 -26 17 -5 45 27 34 38 -7 7 -16 2
-28 -12z"/>
<path d="M418 2223 c12 -2 32 -2 45 0 12 2 2 4 -23 4 -25 0 -35 -2 -22 -4z"/>
<path d="M563 2223 c9 -2 25 -2 35 0 9 3 1 5 -18 5 -19 0 -27 -2 -17 -5z"/>
<path d="M653 2223 c9 -2 23 -2 30 0 6 3 -1 5 -18 5 -16 0 -22 -2 -12 -5z"/>
<path d="M701 2225 c3 -3 212 -7 465 -10 252 -3 482 -8 511 -10 29 -2 55 -1
58 4 2 5 -28 11 -68 14 -100 6 -972 9 -966 2z"/>
<path d="M2196 2213 c-4 -9 -2 -21 4 -27 7 -7 10 -2 10 17 0 31 -5 34 -14 10z"/>
<path d="M3410 2220 c0 -5 5 -10 10 -10 6 0 10 5 10 10 0 6 -4 10 -10 10 -5 0
-10 -4 -10 -10z"/>
<path d="M4297 2223 c-11 -10 -8 -43 3 -43 6 0 10 11 10 25 0 26 -2 29 -13 18z"/>
<path d="M1945 2211 c-3 -5 -1 -12 5 -16 5 -3 10 1 10 9 0 18 -6 21 -15 7z"/>
<path d="M4410 2200 c0 -5 7 -10 15 -10 8 0 15 5 15 10 0 6 -7 10 -15 10 -8 0
-15 -4 -15 -10z"/>
<path d="M4845 2200 c-3 -5 3 -10 14 -10 12 0 21 5 21 10 0 6 -6 10 -14 10 -8
0 -18 -4 -21 -10z"/>
<path d="M3538 2180 c-16 -12 -25 -30 -25 -45 0 -25 0 -25 14 -5 8 11 11 25 8
30 -3 6 2 10 12 10 11 0 28 7 39 15 19 14 19 14 -2 15 -12 0 -33 -9 -46 -20z"/>
<path d="M3410 2181 c0 -6 5 -13 10 -16 6 -3 10 1 10 9 0 9 -4 16 -10 16 -5 0
-10 -4 -10 -9z"/>
<path d="M1948 2118 c4 -84 12 -87 12 -5 0 37 -3 67 -8 67 -4 0 -6 -28 -4 -62z"/>
<path d="M2196 2151 c-4 -5 -2 -12 3 -15 5 -4 12 -2 15 3 4 5 2 12 -3 15 -5 4
-12 2 -15 -3z"/>
<path d="M3407 2130 c3 -11 9 -20 14 -20 5 0 9 9 9 20 0 11 -6 20 -14 20 -9 0
-12 -7 -9 -20z"/>
<path d="M3568 2143 c-7 -17 3 -1093 10 -1093 4 0 7 241 7 535 0 298 -4 535
-9 535 -5 0 -3 7 4 15 8 9 9 15 2 15 -6 0 -12 -3 -14 -7z"/>
<path d="M2331 2114 c0 -11 3 -14 6 -6 3 7 2 16 -1 19 -3 4 -6 -2 -5 -13z"/>
<path d="M2200 2085 c1 -26 2 -28 11 -12 8 14 8 22 0 30 -8 8 -11 3 -11 -18z"/>
<path d="M3410 2086 c0 -8 5 -18 10 -21 6 -3 10 3 10 14 0 12 -4 21 -10 21 -5
0 -10 -6 -10 -14z"/>
<path d="M3510 1734 c0 -247 3 -363 10 -359 14 8 13 725 -1 725 -5 0 -9 -148
-9 -366z"/>
<path d="M2334 2005 c0 -49 1 -71 3 -48 2 23 2 64 0 90 -2 26 -3 8 -3 -42z"/>
<path d="M4277 2053 c-4 -3 -7 -11 -7 -17 0 -6 5 -5 12 2 6 6 9 14 7 17 -3 3
-9 2 -12 -2z"/>
<path d="M4986 2051 c-4 -5 -2 -12 3 -15 5 -4 12 -2 15 3 4 5 2 12 -3 15 -5 4
-12 2 -15 -3z"/>
<path d="M3410 2035 c0 -8 5 -15 10 -15 6 0 10 7 10 15 0 8 -4 15 -10 15 -5 0
-10 -7 -10 -15z"/>
<path d="M2197 2025 c-4 -8 -2 -17 3 -20 6 -4 10 3 10 14 0 25 -6 27 -13 6z"/>
<path d="M3121 2024 c0 -11 3 -14 6 -6 3 7 2 16 -1 19 -3 4 -6 -2 -5 -13z"/>
<path d="M1945 2011 c-3 -5 -1 -12 5 -16 5 -3 10 1 10 9 0 18 -6 21 -15 7z"/>
<path d="M3410 1991 c0 -6 5 -13 10 -16 6 -3 10 1 10 9 0 9 -4 16 -10 16 -5 0
-10 -4 -10 -9z"/>
<path d="M1940 1970 c0 -5 7 -10 16 -10 8 0 12 5 9 10 -3 6 -10 10 -16 10 -5
0 -9 -4 -9 -10z"/>
<path d="M2200 1950 c0 -11 0 -22 0 -25 0 -3 3 -6 7 -7 3 -2 7 9 7 25 1 15 -2
27 -6 27 -4 0 -8 -9 -8 -20z"/>
<path d="M3415 1941 c-6 -11 9 -23 19 -14 9 9 7 23 -3 23 -6 0 -12 -4 -16 -9z"/>
<path d="M1945 1920 c3 -5 10 -10 16 -10 5 0 9 5 9 10 0 6 -7 10 -16 10 -8 0
-12 -4 -9 -10z"/>
<path d="M3153 1895 c0 -22 2 -30 4 -17 2 12 2 30 0 40 -3 9 -5 -1 -4 -23z"/>
<path d="M1823 1654 c-1 -141 0 -254 3 -251 10 9 17 507 8 507 -5 0 -10 -115
-11 -256z"/>
<path d="M2334 1815 c0 -55 1 -76 3 -47 2 29 2 74 0 100 -2 26 -3 2 -3 -53z"/>
<path d="M3412 1899 c2 -6 8 -10 13 -10 5 0 11 4 13 10 2 6 -4 11 -13 11 -9 0
-15 -5 -13 -11z"/>
<path d="M1950 1880 c0 -5 5 -10 10 -10 6 0 10 5 10 10 0 6 -4 10 -10 10 -5 0
-10 -4 -10 -10z"/>
<path d="M3770 1876 c0 -9 5 -16 10 -16 6 0 10 4 10 9 0 6 -4 13 -10 16 -5 3
-10 -1 -10 -9z"/>
<path d="M4615 1881 c-3 -5 -1 -12 4 -15 5 -3 11 1 15 9 6 16 -9 21 -19 6z"/>
<path d="M2194 1869 c-3 -6 -1 -16 5 -22 8 -8 11 -5 11 11 0 24 -5 28 -16 11z"/>
<path d="M3414 1845 c4 -24 13 -27 19 -5 3 13 0 20 -8 20 -7 0 -12 -7 -11 -15z"/>
<path d="M1950 1829 c0 -5 5 -7 10 -4 6 3 10 8 10 11 0 2 -4 4 -10 4 -5 0 -10
-5 -10 -11z"/>
<path d="M3790 1830 c0 -5 5 -10 10 -10 6 0 10 5 10 10 0 6 -4 10 -10 10 -5 0
-10 -4 -10 -10z"/>
<path d="M3824 1833 c11 -11 46 -14 46 -3 0 6 -12 10 -27 10 -14 0 -23 -3 -19
-7z"/>
<path d="M3910 1820 c0 -5 5 -10 11 -10 5 0 7 5 4 10 -3 6 -8 10 -11 10 -2 0
-4 -4 -4 -10z"/>
<path d="M3413 1795 c0 -8 4 -15 9 -15 4 0 8 7 8 15 0 8 -4 15 -8 15 -5 0 -9
-7 -9 -15z"/>
<path d="M2196 1785 c-3 -8 -1 -15 4 -15 13 0 22 18 11 24 -5 3 -11 -1 -15 -9z"/>
<path d="M3802 1788 c3 -7 15 -14 29 -16 24 -4 24 -3 4 12 -24 19 -38 20 -33
4z"/>
<path d="M3860 1760 c0 -5 7 -10 15 -10 8 0 15 -3 15 -7 0 -16 47 -29 88 -25
23 2 42 7 42 11 0 4 -17 5 -39 3 -25 -3 -52 3 -80 17 -22 12 -41 17 -41 11z"/>
<path d="M3410 1745 c0 -8 5 -15 10 -15 6 0 10 7 10 15 0 8 -4 15 -10 15 -5 0
-10 -7 -10 -15z"/>
<path d="M4040 1735 c-10 -12 -10 -15 4 -15 9 0 16 7 16 15 0 8 -2 15 -4 15
-2 0 -9 -7 -16 -15z"/>
<path d="M4438 1733 c7 -3 16 -2 19 1 4 3 -2 6 -13 5 -11 0 -14 -3 -6 -6z"/>
<path d="M2200 1710 c0 -5 5 -10 11 -10 5 0 7 5 4 10 -3 6 -8 10 -11 10 -2 0
-4 -4 -4 -10z"/>
<path d="M2332 1685 c0 -16 2 -22 5 -12 2 9 2 23 0 30 -3 6 -5 -1 -5 -18z"/>
<path d="M3410 1695 c0 -9 5 -15 11 -13 6 2 11 8 11 13 0 5 -5 11 -11 13 -6 2
-11 -4 -11 -13z"/>
<path d="M4000 1690 c-8 -5 -12 -12 -9 -15 4 -3 12 1 19 10 14 17 11 19 -10 5z"/>
<path d="M3950 1675 c0 -16 16 -20 24 -6 3 5 -1 11 -9 15 -9 3 -15 0 -15 -9z"/>
<path d="M3408 1657 c7 -8 9 -17 5 -20 -3 -4 -1 -7 5 -7 18 0 14 27 -4 34 -13
5 -14 4 -6 -7z"/>
<path d="M2195 1641 c-3 -5 -1 -12 4 -15 5 -3 11 1 15 9 6 16 -9 21 -19 6z"/>
<path d="M2200 1600 c0 -5 5 -10 11 -10 5 0 7 5 4 10 -3 6 -8 10 -11 10 -2 0
-4 -4 -4 -10z"/>
<path d="M3410 1590 c0 -5 5 -10 10 -10 6 0 10 5 10 10 0 6 -4 10 -10 10 -5 0
-10 -4 -10 -10z"/>
<path d="M3416 1558 c3 -5 10 -6 15 -3 13 9 11 12 -6 12 -8 0 -12 -4 -9 -9z"/>
<path d="M2200 1550 c0 -5 5 -10 10 -10 6 0 10 5 10 10 0 6 -4 10 -10 10 -5 0
-10 -4 -10 -10z"/>
<path d="M3415 1530 c3 -5 8 -10 11 -10 2 0 4 5 4 10 0 6 -5 10 -11 10 -5 0
-7 -4 -4 -10z"/>
<path d="M1348 1523 c29 -2 74 -2 100 0 26 2 2 3 -53 3 -55 0 -76 -1 -47 -3z"/>
<path d="M1518 1523 c12 -2 32 -2 45 0 12 2 2 4 -23 4 -25 0 -35 -2 -22 -4z"/>
<path d="M1638 1523 c6 -2 18 -2 25 0 6 3 1 5 -13 5 -14 0 -19 -2 -12 -5z"/>
<path d="M1726 1503 c10 -40 15 -42 12 -5 -1 18 -6 32 -10 32 -5 0 -5 -12 -2
-27z"/>
<path d="M2197 1491 c-3 -12 -1 -21 3 -21 14 0 19 15 11 29 -6 9 -10 7 -14 -8z"/>
<path d="M3405 1500 c3 -5 10 -10 16 -10 5 0 9 5 9 10 0 6 -7 10 -16 10 -8 0
-12 -4 -9 -10z"/>
<path d="M3410 1470 c0 -5 5 -10 10 -10 6 0 10 5 10 10 0 6 -4 10 -10 10 -5 0
-10 -4 -10 -10z"/>
<path d="M1598 1443 c18 -2 45 -2 60 0 15 2 0 4 -33 4 -33 0 -45 -2 -27 -4z"/>
<path d="M2196 1435 c-3 -8 -1 -17 3 -20 5 -3 11 2 15 10 3 8 1 17 -3 20 -5 3
-11 -2 -15 -10z"/>
<path d="M1183 1433 c9 -2 23 -2 30 0 6 3 -1 5 -18 5 -16 0 -22 -2 -12 -5z"/>
<path d="M3031 1424 c0 -11 3 -14 6 -6 3 7 2 16 -1 19 -3 4 -6 -2 -5 -13z"/>
<path d="M3341 1414 c0 -11 3 -14 6 -6 3 7 2 16 -1 19 -3 4 -6 -2 -5 -13z"/>
<path d="M3416 1405 c-3 -8 -1 -15 4 -15 6 0 10 7 10 15 0 8 -2 15 -4 15 -2 0
-6 -7 -10 -15z"/>
<path d="M1716 1401 c-19 -7 -19 -8 2 -13 15 -4 22 -2 22 8 0 8 -1 14 -2 13
-2 0 -12 -4 -22 -8z"/>
<path d="M1004 1382 c5 -8 66 -4 66 4 0 2 -16 4 -36 4 -19 0 -33 -4 -30 -8z"/>
<path d="M1085 1380 c3 -5 12 -7 20 -3 21 7 19 13 -6 13 -11 0 -18 -4 -14 -10z"/>
<path d="M1198 1383 c12 -2 30 -2 40 0 9 3 -1 5 -23 4 -22 0 -30 -2 -17 -4z"/>
<path d="M1293 1383 c9 -2 25 -2 35 0 9 3 1 5 -18 5 -19 0 -27 -2 -17 -5z"/>
<path d="M1820 1353 c0 -24 5 -43 10 -43 13 0 13 50 0 70 -7 11 -10 4 -10 -27z"/>
<path d="M2195 1371 c-3 -5 -1 -12 5 -16 5 -3 10 1 10 9 0 18 -6 21 -15 7z"/>
<path d="M1032 1345 c7 -7 97 -9 105 -2 3 4 -20 7 -52 7 -32 0 -56 -2 -53 -5z"/>
<path d="M1726 1335 c-3 -8 -1 -15 4 -15 6 0 10 7 10 15 0 8 -2 15 -4 15 -2 0
-6 -7 -10 -15z"/>
<path d="M1163 1333 c9 -2 25 -2 35 0 9 3 1 5 -18 5 -19 0 -27 -2 -17 -5z"/>
<path d="M1220 1336 c0 -8 61 -12 66 -4 3 4 -11 8 -30 8 -20 0 -36 -2 -36 -4z"/>
<path d="M1308 1333 c7 -3 16 -2 19 1 4 3 -2 6 -13 5 -11 0 -14 -3 -6 -6z"/>
<path d="M1350 1329 c0 -5 5 -7 10 -4 6 3 10 8 10 11 0 2 -4 4 -10 4 -5 0 -10
-5 -10 -11z"/>
<path d="M1393 1323 c9 -2 23 -2 30 0 6 3 -1 5 -18 5 -16 0 -22 -2 -12 -5z"/>
<path d="M1468 1323 c7 -3 16 -2 19 1 4 3 -2 6 -13 5 -11 0 -14 -3 -6 -6z"/>
<path d="M1598 1323 c6 -2 18 -2 25 0 6 3 1 5 -13 5 -14 0 -19 -2 -12 -5z"/>
<path d="M1658 1323 c7 -3 16 -2 19 1 4 3 -2 6 -13 5 -11 0 -14 -3 -6 -6z"/>
<path d="M2196 1311 c-4 -7 -5 -15 -2 -18 9 -9 19 4 14 18 -4 11 -6 11 -12 0z"/>
<path d="M3436 1295 c4 -8 10 -15 15 -15 5 0 9 7 9 15 0 8 -7 15 -15 15 -9 0
-12 -6 -9 -15z"/>
<path d="M1568 1283 c7 -3 16 -2 19 1 4 3 -2 6 -13 5 -11 0 -14 -3 -6 -6z"/>
<path d="M1193 1273 c9 -2 23 -2 30 0 6 3 -1 5 -18 5 -16 0 -22 -2 -12 -5z"/>
<path d="M1725 1271 c-3 -5 -2 -12 3 -15 5 -3 9 1 9 9 0 17 -3 19 -12 6z"/>
<path d="M1045 1260 c3 -5 10 -10 16 -10 5 0 9 5 9 10 0 6 -7 10 -16 10 -8 0
-12 -4 -9 -10z"/>
<path d="M1821 1254 c0 -11 3 -14 6 -6 3 7 2 16 -1 19 -3 4 -6 -2 -5 -13z"/>
<path d="M2200 1255 c0 -8 5 -15 10 -15 6 0 10 7 10 15 0 8 -4 15 -10 15 -5 0
-10 -7 -10 -15z"/>
<path d="M3517 1094 c2 -81 5 -149 8 -152 3 -3 5 63 5 146 0 84 -3 152 -7 152
-5 0 -7 -66 -6 -146z"/>
<path d="M1820 1210 c0 -19 3 -21 12 -12 9 9 9 15 0 24 -9 9 -12 7 -12 -12z"/>
<path d="M2195 1201 c-3 -5 -1 -12 4 -15 5 -3 11 1 15 9 6 16 -9 21 -19 6z"/>
<path d="M2590 1159 c0 -5 5 -7 10 -4 6 3 10 8 10 11 0 2 -4 4 -10 4 -5 0 -10
-5 -10 -11z"/>
<path d="M1826 1152 c-2 -4 -1 -14 4 -22 7 -11 9 -9 7 8 -1 24 -3 26 -11 14z"/>
<path d="M2630 1149 c0 -8 7 -24 15 -35 11 -15 14 -16 15 -3 0 8 -7 24 -15 35
-11 15 -14 16 -15 3z"/>
<path d="M2195 1121 c-3 -5 -1 -12 5 -16 5 -3 10 1 10 9 0 18 -6 21 -15 7z"/>
<path d="M2555 1120 c-3 -5 -4 -10 -1 -10 4 0 -7 -14 -23 -30 -20 -22 -27 -37
-23 -55 6 -33 22 -32 22 2 0 14 11 41 25 59 14 18 25 35 25 38 0 10 -18 7 -25
-4z"/>
<path d="M3750 1121 c0 -10 26 -9 36 2 4 4 -2 7 -14 7 -12 0 -22 -4 -22 -9z"/>
<path d="M1825 1099 c-4 -6 -5 -12 -2 -15 2 -3 7 2 10 11 7 17 1 20 -8 4z"/>
<path d="M2665 1090 c-3 -5 1 -10 10 -10 9 0 13 5 10 10 -3 6 -8 10 -10 10 -2
0 -7 -4 -10 -10z"/>
<path d="M2190 1070 c0 -5 5 -10 10 -10 6 0 10 5 10 10 0 6 -4 10 -10 10 -5 0
-10 -4 -10 -10z"/>
<path d="M1820 1028 c0 -23 2 -39 5 -37 8 9 12 79 4 79 -5 0 -9 -19 -9 -42z"/>
<path d="M2670 1046 c0 -13 -8 -14 -45 -9 -31 4 -45 2 -45 -6 0 -6 10 -11 23
-11 12 0 31 -3 42 -6 22 -5 53 30 35 41 -6 3 -10 -1 -10 -9z"/>
<path d="M2196 1041 c-4 -7 -5 -15 -2 -18 9 -9 19 4 14 18 -4 11 -6 11 -12 0z"/>
<path d="M2690 1006 c0 -9 5 -16 10 -16 6 0 10 4 10 9 0 6 -4 13 -10 16 -5 3
-10 -1 -10 -9z"/>
<path d="M2535 1000 c-3 -5 -3 -15 1 -22 4 -7 3 -8 -4 -4 -8 5 -12 -3 -12 -23
0 -17 -5 -31 -11 -31 -5 0 -7 -4 -4 -10 3 -5 1 -10 -5 -10 -7 0 -9 -7 -6 -16
3 -8 1 -24 -4 -34 -14 -26 -20 -80 -9 -80 5 0 9 -8 9 -17 0 -15 2 -15 9 -4 5
8 7 20 4 27 -6 15 22 132 43 183 8 18 14 37 14 42 0 12 -17 11 -25 -1z"/>
<path d="M1055 990 c-3 -5 3 -10 14 -10 12 0 21 5 21 10 0 6 -6 10 -14 10 -8
0 -18 -4 -21 -10z"/>
<path d="M2605 990 c-7 -12 19 -24 37 -17 7 3 3 6 -10 6 -13 1 -20 5 -17 11 3
6 4 10 1 10 -3 0 -8 -5 -11 -10z"/>
<path d="M3583 965 c0 -22 2 -30 4 -17 2 12 2 30 0 40 -3 9 -5 -1 -4 -23z"/>
<path d="M1820 960 c0 -11 2 -20 4 -20 2 0 6 9 9 20 3 11 1 20 -4 20 -5 0 -9
-9 -9 -20z"/>
<path d="M2709 966 c6 -8 13 -27 16 -42 2 -16 9 -53 14 -83 15 -73 14 -78 -10
-84 -14 -4 -18 -10 -13 -19 4 -8 3 -10 -2 -5 -5 5 -14 43 -21 85 l-11 77 4
-125 c3 -101 1 -122 -9 -107 -10 15 -14 3 -22 -75 -10 -86 -9 -125 2 -115 2 3
6 18 8 33 2 16 7 45 11 64 3 19 6 43 6 52 0 9 6 22 14 29 8 6 14 23 14 38 1
30 17 54 44 64 16 6 18 14 12 50 -4 23 -10 65 -13 92 -5 48 -25 85 -46 85 -5
0 -4 -6 2 -14z"/>
<path d="M2331 954 c0 -11 3 -14 6 -6 3 7 2 16 -1 19 -3 4 -6 -2 -5 -13z"/>
<path d="M2200 944 c0 -8 5 -12 10 -9 6 3 10 10 10 16 0 5 -4 9 -10 9 -5 0
-10 -7 -10 -16z"/>
<path d="M1660 939 c0 -5 5 -7 10 -4 6 3 10 8 10 11 0 2 -4 4 -10 4 -5 0 -10
-5 -10 -11z"/>
<path d="M2611 934 c0 -11 3 -14 6 -6 3 7 2 16 -1 19 -3 4 -6 -2 -5 -13z"/>
<path d="M2640 919 c0 -18 2 -19 15 -9 12 10 15 10 15 0 0 -8 2 -11 5 -8 3 3
3 13 -1 22 -9 23 -34 20 -34 -5z"/>
<path d="M1820 905 c0 -14 2 -25 4 -25 2 0 6 11 8 25 3 14 1 25 -3 25 -5 0 -9
-11 -9 -25z"/>
<path d="M3200 910 c0 -5 7 -10 16 -10 8 0 12 5 9 10 -3 6 -10 10 -16 10 -5 0
-9 -4 -9 -10z"/>
<path d="M2577 903 c-10 -9 -8 -43 2 -43 5 0 11 11 13 25 5 24 -2 32 -15 18z"/>
<path d="M2766 888 c3 -5 10 -6 15 -3 13 9 11 12 -6 12 -8 0 -12 -4 -9 -9z"/>
<path d="M2641 874 c0 -11 3 -14 6 -6 3 7 2 16 -1 19 -3 4 -6 -2 -5 -13z"/>
<path d="M3200 881 c0 -5 5 -13 10 -16 6 -3 10 -2 10 4 0 5 -4 13 -10 16 -5 3
-10 2 -10 -4z"/>
<path d="M2542 801 c-21 -40 -22 -85 -6 -176 3 -16 7 -46 8 -65 4 -35 26 -56
26 -24 0 10 -7 61 -16 114 -14 86 -14 99 0 140 19 57 14 62 -12 11z"/>
<path d="M2632 828 c-14 -14 -16 -88 -2 -88 5 0 7 17 4 37 -3 23 0 39 8 44 7
4 10 10 7 13 -3 3 -11 0 -17 -6z"/>
<path d="M2721 804 c0 -11 3 -14 6 -6 3 7 2 16 -1 19 -3 4 -6 -2 -5 -13z"/>
<path d="M908 793 c7 -3 16 -2 19 1 4 3 -2 6 -13 5 -11 0 -14 -3 -6 -6z"/>
<path d="M2576 771 c-4 -7 -5 -15 -2 -18 9 -9 19 4 14 18 -4 11 -6 11 -12 0z"/>
<path d="M148 763 c12 -2 30 -2 40 0 9 3 -1 5 -23 4 -22 0 -30 -2 -17 -4z"/>
<path d="M313 763 c9 -2 25 -2 35 0 9 3 1 5 -18 5 -19 0 -27 -2 -17 -5z"/>
<path d="M818 763 c6 -2 18 -2 25 0 6 3 1 5 -13 5 -14 0 -19 -2 -12 -5z"/>
<path d="M888 763 c7 -3 16 -2 19 1 4 3 -2 6 -13 5 -11 0 -14 -3 -6 -6z"/>
<path d="M925 760 c3 -5 12 -7 20 -3 21 7 19 13 -6 13 -11 0 -18 -4 -14 -10z"/>
<path d="M995 760 c-3 -5 -2 -10 4 -10 5 0 13 5 16 10 3 6 2 10 -4 10 -5 0
-13 -4 -16 -10z"/>
<path d="M1030 760 c0 -13 11 -13 30 0 12 8 11 10 -7 10 -13 0 -23 -4 -23 -10z"/>
<path d="M2326 753 c-6 -14 -5 -15 5 -6 7 7 10 15 7 18 -3 3 -9 -2 -12 -12z"/>
<path d="M558 743 c7 -3 16 -2 19 1 4 3 -2 6 -13 5 -11 0 -14 -3 -6 -6z"/>
<path d="M3246 725 c-3 -8 -1 -17 3 -20 5 -3 11 2 15 10 3 8 1 17 -3 20 -5 3
-11 -2 -15 -10z"/>
<path d="M870 719 c0 -5 5 -7 10 -4 6 3 10 8 10 11 0 2 -4 4 -10 4 -5 0 -10
-5 -10 -11z"/>
<path d="M915 719 c-3 -3 39 -7 93 -7 53 -1 93 1 87 3 -21 7 -176 11 -180 4z"/>
<path d="M2606 713 c-21 -53 -18 -238 4 -273 7 -12 12 -12 21 -3 9 9 9 16 -2
29 -10 13 -14 48 -13 141 0 67 -1 123 -2 123 -1 0 -5 -8 -8 -17z"/>
<path d="M1160 708 c0 -10 40 -9 65 2 15 6 9 8 -22 7 -24 -1 -43 -5 -43 -9z"/>
<path d="M2642 700 c0 -14 2 -19 5 -12 2 6 2 18 0 25 -3 6 -5 1 -5 -13z"/>
<path d="M3080 704 c0 -8 5 -12 10 -9 6 4 8 11 5 16 -9 14 -15 11 -15 -7z"/>
<path d="M3423 695 c0 -8 4 -12 9 -9 5 3 6 10 3 15 -9 13 -12 11 -12 -6z"/>
<path d="M3085 670 c-3 -5 -1 -10 4 -10 6 0 11 5 11 10 0 6 -2 10 -4 10 -3 0
-8 -4 -11 -10z"/>
<path d="M3230 634 c0 -8 5 -12 10 -9 6 3 10 10 10 16 0 5 -4 9 -10 9 -5 0
-10 -7 -10 -16z"/>
<path d="M3420 640 c0 -5 5 -10 10 -10 6 0 10 5 10 10 0 6 -4 10 -10 10 -5 0
-10 -4 -10 -10z"/>
<path d="M2320 630 c0 -5 5 -10 10 -10 6 0 10 5 10 10 0 6 -4 10 -10 10 -5 0
-10 -4 -10 -10z"/>
<path d="M2538 488 c9 -9 15 -9 24 0 9 9 7 12 -12 12 -19 0 -21 -3 -12 -12z"/>
<path d="M2540 445 l0 -25 -752 -1 c-944 0 -938 0 -938 -9 0 -4 15 -8 33 -8
17 0 34 -1 37 -2 3 -1 43 -2 90 -3 47 -2 91 -6 99 -11 9 -6 12 -5 8 0 -4 7
124 9 346 8 729 -5 837 -7 837 -17 0 -5 7 -4 16 4 11 9 17 10 22 2 5 -8 86
-11 272 -8 315 3 872 14 1023 19 76 3 107 1 107 -7 0 -8 3 -8 8 -2 4 6 105 10
266 10 170 0 261 4 263 10 2 6 -6 11 -17 11 -11 0 -20 -4 -20 -8 0 -5 -8 -4
-19 1 -11 7 -284 10 -747 10 -401 0 -771 1 -823 1 l-93 0 6 25 c5 18 2 25 -9
25 -9 0 -15 -9 -15 -25z"/>
<path d="M2700 460 c0 -5 5 -10 11 -10 5 0 7 5 4 10 -3 6 -8 10 -11 10 -2 0
-4 -4 -4 -10z"/>
<path d="M2793 453 c9 -2 25 -2 35 0 9 3 1 5 -18 5 -19 0 -27 -2 -17 -5z"/>
<path d="M2858 453 c7 -3 16 -2 19 1 4 3 -2 6 -13 5 -11 0 -14 -3 -6 -6z"/>
<path d="M4406 423 c-10 -10 -7 -35 4 -28 6 4 8 11 5 16 -8 12 1 11 25 -3 16
-10 42 -5 29 6 -10 8 -57 15 -63 9z"/>
<path d="M706 413 c5 -5 12 -12 16 -18 4 -6 8 -2 8 8 0 9 -7 17 -17 17 -9 0
-12 -3 -7 -7z"/>
<path d="M745 410 c-3 -6 1 -7 9 -4 18 7 21 14 7 14 -6 0 -13 -4 -16 -10z"/>
<path d="M815 409 c-4 -6 -5 -13 -2 -16 7 -7 27 6 27 18 0 12 -17 12 -25 -2z"/>
<path d="M4290 405 c0 -9 9 -15 23 -15 14 0 24 6 24 15 0 9 -10 15 -24 15 -14
0 -23 -6 -23 -15z"/>
<path d="M4352 408 c6 -18 25 -21 31 -5 3 8 -3 13 -15 14 -10 1 -18 -3 -16 -9z"/>
<path d="M640 399 c0 -5 5 -7 10 -4 6 3 10 8 10 11 0 2 -4 4 -10 4 -5 0 -10
-5 -10 -11z"/>
<path d="M2405 310 c-3 -6 1 -7 9 -4 18 7 21 14 7 14 -6 0 -13 -4 -16 -10z"/>
<path d="M2460 310 c0 -5 5 -10 11 -10 5 0 7 5 4 10 -3 6 -8 10 -11 10 -2 0
-4 -4 -4 -10z"/>
<path d="M2610 305 c0 -8 5 -15 10 -15 6 0 10 7 10 15 0 8 -4 15 -10 15 -5 0
-10 -7 -10 -15z"/>
<path d="M2720 313 c0 -10 57 -9 67 0 3 4 -10 7 -30 7 -20 0 -37 -3 -37 -7z"/>
<path d="M2158 303 c7 -3 16 -2 19 1 4 3 -2 6 -13 5 -11 0 -14 -3 -6 -6z"/>
<path d="M2510 300 c18 -12 47 -13 53 -2 3 4 -11 8 -31 9 -27 2 -33 0 -22 -7z"/>
<path d="M2436 268 c3 -5 10 -6 15 -3 13 9 11 12 -6 12 -8 0 -12 -4 -9 -9z"/>
<path d="M2478 273 c7 -3 16 -2 19 1 4 3 -2 6 -13 5 -11 0 -14 -3 -6 -6z"/>
<path d="M2614 243 c2 -21 6 -37 10 -35 3 1 6 4 6 7 0 3 0 19 0 35 0 17 -4 30
-10 30 -5 0 -8 -17 -6 -37z"/>
<path d="M2390 209 c0 -5 11 -9 25 -9 14 0 25 2 25 4 0 2 -11 6 -25 8 -14 3
-25 1 -25 -3z"/>
<path d="M2070 200 c0 -5 5 -10 11 -10 5 0 7 5 4 10 -3 6 -8 10 -11 10 -2 0
-4 -4 -4 -10z"/>
<path d="M2120 200 c8 -5 20 -10 25 -10 6 0 3 5 -5 10 -8 5 -19 10 -25 10 -5
0 -3 -5 5 -10z"/>
<path d="M2278 203 c6 -2 18 -2 25 0 6 3 1 5 -13 5 -14 0 -19 -2 -12 -5z"/>
<path d="M3428 193 c7 -3 16 -2 19 1 4 3 -2 6 -13 5 -11 0 -14 -3 -6 -6z"/>
<path d="M2620 159 c0 -5 5 -7 10 -4 6 3 10 8 10 11 0 2 -4 4 -10 4 -5 0 -10
-5 -10 -11z"/>
<path d="M3310 122 c0 -5 7 -9 15 -9 8 0 12 4 9 9 -7 10 -24 10 -24 0z"/>
<path d="M2278 113 c7 -3 16 -2 19 1 4 3 -2 6 -13 5 -11 0 -14 -3 -6 -6z"/>
<path d="M2353 113 c9 -2 25 -2 35 0 9 3 1 5 -18 5 -19 0 -27 -2 -17 -5z"/>
<path d="M2838 113 c7 -3 16 -2 19 1 4 3 -2 6 -13 5 -11 0 -14 -3 -6 -6z"/>
<path d="M2928 113 c7 -3 16 -2 19 1 4 3 -2 6 -13 5 -11 0 -14 -3 -6 -6z"/>
</g>
</svg>
