<?xml version="1.0" standalone="no"?>
<!DOCTYPE svg PUBLIC "-//W3C//DTD SVG 20010904//EN"
 "http://www.w3.org/TR/2001/REC-SVG-20010904/DTD/svg10.dtd">
<svg version="1.0" xmlns="http://www.w3.org/2000/svg"
 width="512.000000pt" height="512.000000pt" viewBox="0 0 512.000000 512.000000"
 preserveAspectRatio="xMidYMid meet">
<metadata>
Created by potrace 1.16, written by Peter Selinger 2001-2019
</metadata>
<g transform="translate(0.000000,512.000000) scale(0.100000,-0.100000)"
fill="#000000" stroke="none">
<path d="M648 4963 c17 -2 47 -2 65 0 17 2 3 4 -33 4 -36 0 -50 -2 -32 -4z"/>
<path d="M3884 4785 c0 -55 1 -76 3 -47 2 29 2 74 0 100 -2 26 -3 2 -3 -53z"/>
<path d="M718 4853 c7 -3 16 -2 19 1 4 3 -2 6 -13 5 -11 0 -14 -3 -6 -6z"/>
<path d="M658 4783 c12 -2 32 -2 45 0 12 2 2 4 -23 4 -25 0 -35 -2 -22 -4z"/>
<path d="M740 4780 c0 -5 5 -10 11 -10 5 0 7 5 4 10 -3 6 -8 10 -11 10 -2 0
-4 -4 -4 -10z"/>
<path d="M708 4683 c6 -2 18 -2 25 0 6 3 1 5 -13 5 -14 0 -19 -2 -12 -5z"/>
<path d="M3882 4640 c0 -14 2 -19 5 -12 2 6 2 18 0 25 -3 6 -5 1 -5 -13z"/>
<path d="M2402 4630 c0 -14 2 -19 5 -12 2 6 2 18 0 25 -3 6 -5 1 -5 -13z"/>
<path d="M2468 4643 c23 -2 61 -2 85 0 23 2 4 4 -43 4 -47 0 -66 -2 -42 -4z"/>
<path d="M603 4623 c26 -2 67 -2 90 0 23 2 2 3 -48 3 -49 0 -68 -1 -42 -3z"/>
<path d="M2468 4583 c29 -2 74 -2 100 0 26 2 2 3 -53 3 -55 0 -76 -1 -47 -3z"/>
<path d="M1780 4550 l-575 -5 599 -2 c329 -1 596 1 592 4 -9 9 38 9 -616 3z"/>
<path d="M2448 4553 c17 -2 47 -2 65 0 17 2 3 4 -33 4 -36 0 -50 -2 -32 -4z"/>
<path d="M2568 4543 c6 -2 18 -2 25 0 6 3 1 5 -13 5 -14 0 -19 -2 -12 -5z"/>
<path d="M3078 4533 c12 -2 32 -2 45 0 12 2 2 4 -23 4 -25 0 -35 -2 -22 -4z"/>
<path d="M3173 4533 c15 -2 39 -2 55 0 15 2 2 4 -28 4 -30 0 -43 -2 -27 -4z"/>
<path d="M3268 4533 c7 -3 16 -2 19 1 4 3 -2 6 -13 5 -11 0 -14 -3 -6 -6z"/>
<path d="M2933 4513 c9 -2 23 -2 30 0 6 3 -1 5 -18 5 -16 0 -22 -2 -12 -5z"/>
<path d="M2619 4478 c-3 -15 -25 -18 -174 -22 -218 -7 -227 -10 -241 -67 -9
-38 -14 -44 -40 -47 -91 -10 -433 -126 -449 -153 -11 -17 20 -9 110 30 107 46
235 85 328 101 l67 12 0 37 c0 64 -7 63 267 68 182 4 252 3 257 -6 4 -6 36
-11 79 -11 93 0 111 -6 125 -38 7 -15 26 -52 42 -82 l31 -54 120 -43 c151 -53
227 -94 326 -178 43 -36 84 -63 91 -60 7 3 11 1 8 -4 -3 -4 12 -22 34 -40 42
-33 71 -43 31 -11 -13 11 -19 20 -14 20 6 0 18 -9 28 -20 10 -11 14 -20 10
-20 -5 0 4 -14 20 -30 16 -17 35 -28 43 -25 7 2 11 1 8 -4 -3 -5 26 -42 65
-82 94 -99 224 -260 249 -309 14 -27 25 -38 35 -34 8 4 15 11 15 16 0 6 -7 4
-17 -3 -15 -13 -16 -11 -11 13 3 17 1 26 -6 25 -6 -1 -10 6 -8 16 2 10 -3 17
-12 17 -10 0 -13 6 -9 17 4 11 3 14 -5 9 -7 -4 -12 -1 -12 8 0 9 -7 16 -16 16
-14 0 -15 2 -3 17 12 15 12 16 -3 11 -10 -4 -19 -1 -22 8 -9 24 -7 31 4 14 5
-8 10 -10 10 -4 0 16 -25 35 -35 26 -5 -4 -5 -2 -1 5 7 12 -34 68 -137 190
-28 34 -108 110 -177 168 -69 59 -141 129 -160 157 -34 50 -66 76 -54 44 3 -9
1 -16 -5 -16 -6 0 -11 -10 -10 -22 0 -16 2 -18 6 -8 11 29 27 29 41 0 8 -16
64 -70 125 -121 117 -97 237 -208 237 -220 0 -4 -8 -6 -17 -5 -10 2 -18 9 -18
17 0 8 -4 16 -10 18 -5 3 -18 15 -28 28 -34 43 -198 163 -223 163 -9 0 -12 5
-8 12 4 7 3 8 -4 4 -6 -3 -31 14 -56 39 -25 25 -50 45 -56 45 -5 0 -10 15 -10
33 0 44 -16 97 -39 127 -31 39 -34 17 -6 -35 25 -47 33 -95 16 -95 -4 0 -37
13 -72 28 -67 30 -101 44 -109 46 -3 1 -35 13 -71 26 -62 22 -69 28 -93 75
-37 69 -52 95 -63 106 -5 5 -47 12 -93 15 -47 3 -93 10 -102 15 -9 5 -39 9
-67 9 -39 0 -50 4 -53 18 -4 16 -5 16 -9 0z m1226 -734 c49 -47 77 -91 64
-100 -8 -4 -9 -3 -5 4 4 7 2 12 -4 12 -13 0 -52 45 -50 56 1 4 -5 11 -14 16
-9 5 -16 16 -16 24 0 8 -4 13 -9 9 -5 -3 -12 -1 -15 4 -13 20 21 3 49 -25z
m95 -108 c0 -3 -4 -8 -10 -11 -5 -3 -10 -1 -10 4 0 6 5 11 10 11 6 0 10 -2 10
-4z"/>
<path d="M3860 3706 c0 -2 8 -10 18 -17 15 -13 16 -12 3 4 -13 16 -21 21 -21
13z"/>
<path d="M3870 4476 c0 -2 7 -6 15 -10 8 -3 15 -1 15 4 0 6 -7 10 -15 10 -8 0
-15 -2 -15 -4z"/>
<path d="M791 4386 c7 -6 412 -16 667 -16 l242 0 33 -46 c17 -26 37 -54 44
-63 6 -9 14 -13 18 -9 7 7 -44 87 -77 120 -17 17 -44 18 -475 18 -251 0 -454
-2 -452 -4z"/>
<path d="M3320 4358 c-23 -38 -25 -51 -7 -46 6 3 14 13 15 24 2 10 7 22 10 26
4 4 230 9 502 13 272 3 496 8 499 10 2 3 -221 5 -497 5 l-502 0 -20 -32z"/>
<path d="M745 4360 c-3 -5 -2 -10 4 -10 5 0 13 5 16 10 3 6 2 10 -4 10 -5 0
-13 -4 -16 -10z"/>
<path d="M4385 4350 c10 -11 20 -20 23 -20 3 0 -3 9 -13 20 -10 11 -20 20 -23
20 -3 0 3 -9 13 -20z"/>
<path d="M717 4333 c-12 -11 -8 -496 4 -513 7 -11 9 64 7 252 -2 148 -3 268
-4 268 0 0 -4 -3 -7 -7z"/>
<path d="M2206 4283 c3 -16 7 -33 9 -40 2 -7 -37 -21 -106 -37 -117 -28 -218
-62 -234 -79 -7 -7 -5 -8 6 -4 88 30 199 62 269 77 80 16 85 19 82 41 -5 47
-13 69 -22 69 -6 0 -8 -12 -4 -27z"/>
<path d="M4406 4288 c-3 -13 -6 -90 -6 -172 0 -131 2 -147 16 -142 9 3 23 6
32 7 10 1 6 4 -8 8 -23 6 -25 12 -27 64 -1 32 3 57 8 57 6 0 7 5 3 12 -5 7 -7
52 -5 100 3 88 -1 108 -13 66z"/>
<path d="M965 4259 c4 -5 12 -9 20 -9 8 0 16 -4 20 -9 3 -6 -15 -3 -41 6 l-46
16 -36 -36 c-27 -28 -36 -45 -36 -71 0 -19 -4 -32 -8 -30 -24 15 12 -54 44
-82 30 -28 62 -37 103 -30 38 7 90 56 99 92 9 35 -10 97 -37 122 -24 23 -92
49 -82 31z m-48 -25 c-16 -9 -27 -18 -24 -21 3 -2 14 0 25 6 26 14 79 14 87 1
9 -15 27 -12 20 3 -4 6 5 -1 19 -16 14 -15 26 -36 26 -45 0 -10 -7 -3 -17 16
-8 18 -18 31 -20 28 -3 -2 3 -18 11 -35 47 -91 -75 -164 -153 -92 -38 35 -42
24 -5 -13 39 -38 97 -39 148 -4 23 17 27 18 17 4 -19 -23 -65 -46 -93 -46 -31
0 -86 35 -99 63 -8 17 -6 34 6 67 9 25 17 51 19 59 3 16 35 41 50 41 6 -1 -2
-8 -17 -16z"/>
<path d="M1623 4204 c-3 -8 -2 -19 3 -24 5 -5 10 1 10 16 2 27 -4 31 -13 8z"/>
<path d="M3565 4210 c-3 -5 1 -10 10 -10 16 0 146 -96 153 -113 2 -4 8 -5 12
-2 5 3 19 -8 31 -24 12 -17 26 -28 30 -26 8 5 69 -51 69 -63 0 -4 9 -13 20
-20 11 -7 20 -8 20 -4 0 10 -117 122 -128 122 -4 0 -18 10 -32 23 -32 29 -166
127 -173 127 -3 0 -9 -4 -12 -10z"/>
<path d="M1358 4096 l-97 -92 34 -33 c32 -30 38 -51 15 -51 -10 0 -34 22 -55
52 -14 22 -15 21 -55 -20 -37 -37 -40 -44 -27 -57 9 -8 25 -27 38 -42 13 -17
23 -23 26 -16 5 13 211 195 243 215 17 11 16 14 -8 50 -23 35 -27 37 -41 23
-14 -13 -14 -17 3 -32 18 -17 18 -17 6 7 l-13 25 27 -24 c30 -28 34 -43 9 -34
-11 4 -14 3 -9 -5 13 -22 -11 -12 -27 11 -9 12 -16 17 -16 11 -1 -6 6 -17 14
-24 18 -15 20 -35 3 -24 -7 4 -8 3 -4 -4 7 -11 -32 -38 -47 -34 -5 1 -6 -2 -3
-6 3 -5 -4 -18 -15 -28 -19 -17 -21 -17 -48 12 l-28 29 92 85 c87 80 106 101
88 100 -5 -1 -52 -43 -105 -94z m-94 -164 c23 -25 25 -30 12 -41 -13 -11 -20
-8 -41 16 -14 15 -23 21 -20 12 8 -21 -20 -46 -28 -25 -6 14 27 66 42 66 4 0
20 -13 35 -28z m-22 -74 c-9 -9 -12 -9 -12 1 0 7 -5 9 -12 5 -10 -6 -10 -5 -1
8 7 8 11 17 9 20 -1 3 4 -1 13 -8 12 -11 13 -16 3 -26z"/>
<path d="M2770 4169 c0 -9 -3 -31 -6 -48 -5 -24 -3 -31 9 -31 12 0 14 8 10 41
l-6 42 52 -5 c29 -3 49 -2 44 2 -4 5 -29 10 -55 12 -39 2 -48 0 -48 -13z"/>
<path d="M3540 4180 c-9 -6 -10 -10 -3 -10 6 0 15 5 18 10 8 12 4 12 -15 0z"/>
<path d="M1560 4166 c0 -19 22 -56 30 -51 5 3 10 2 10 -4 0 -5 3 -18 6 -28 3
-10 -10 -2 -31 20 -20 21 -39 36 -41 34 -10 -9 68 -76 82 -70 20 8 17 41 -5
53 -11 5 -23 19 -26 30 -5 17 -25 29 -25 16z"/>
<path d="M1590 4161 c0 -5 5 -13 10 -16 6 -3 10 -2 10 4 0 5 -4 13 -10 16 -5
3 -10 2 -10 -4z"/>
<path d="M2888 4148 c-2 -13 -13 -27 -25 -33 -27 -12 -33 -65 -8 -65 8 0 15 6
15 13 0 7 9 29 20 50 22 40 25 57 11 57 -5 0 -11 -10 -13 -22z"/>
<path d="M3580 4149 c101 -82 162 -140 155 -147 -2 -3 -24 13 -47 34 -53 49
-112 94 -123 94 -4 0 14 -16 41 -36 27 -21 66 -53 86 -73 28 -26 41 -32 49
-24 9 9 7 16 -5 29 -9 9 -15 19 -12 21 7 8 60 -36 62 -51 3 -22 47 -62 52 -47
3 9 7 9 18 0 16 -13 19 -33 4 -24 -5 3 -10 -2 -10 -11 0 -15 -4 -14 -27 7 -58
52 -76 60 -28 13 l50 -49 24 24 23 24 -23 18 c-13 10 -27 15 -32 12 -11 -7
-48 27 -41 38 3 5 -32 36 -78 69 -46 33 -94 69 -108 80 -14 11 -32 20 -40 20
-10 -1 -7 -7 10 -21z m115 -74 c17 -14 21 -21 10 -16 -11 6 -33 22 -50 37 -16
14 -21 21 -10 15 11 -5 34 -22 50 -36z"/>
<path d="M4011 4154 c0 -11 3 -14 6 -6 3 7 2 16 -1 19 -3 4 -6 -2 -5 -13z"/>
<path d="M1770 4145 c7 -8 17 -15 22 -15 6 0 5 7 -2 15 -7 8 -17 15 -22 15 -6
0 -5 -7 2 -15z"/>
<path d="M2290 4144 c0 -12 3 -14 13 -6 16 14 59 12 69 -3 5 -6 8 -3 8 8 0 14
-9 17 -45 17 -35 0 -45 -4 -45 -16z"/>
<path d="M4148 4153 c7 -3 16 -2 19 1 4 3 -2 6 -13 5 -11 0 -14 -3 -6 -6z"/>
<path d="M2530 4136 c0 -17 42 -16 48 2 2 7 -6 12 -22 12 -15 0 -26 -6 -26
-14z"/>
<path d="M1810 4113 c0 -13 5 -23 10 -23 13 0 13 11 0 30 -8 12 -10 11 -10 -7z"/>
<path d="M2332 4118 c-7 -7 -12 -18 -12 -25 0 -7 -8 -13 -18 -13 -31 0 -301
-77 -317 -90 -15 -12 -20 -4 -16 23 0 4 -4 7 -9 7 -16 0 -12 -36 5 -50 13 -11
18 -10 28 2 28 36 359 107 497 108 l56 0 -4 -35 c-3 -28 -1 -35 13 -35 14 0
16 7 13 35 l-4 35 100 -4 c71 -2 82 -2 36 3 -57 6 -61 7 -30 13 19 3 -40 4
-131 2 -91 -2 -174 -6 -184 -10 -15 -6 -17 -4 -11 19 7 30 5 32 -12 15z"/>
<path d="M4440 4118 c0 -4 19 -8 42 -8 23 0 38 3 34 7 -10 10 -76 11 -76 1z"/>
<path d="M4968 4123 c28 -2 76 -2 105 0 28 2 5 3 -53 3 -58 0 -81 -1 -52 -3z"/>
<path d="M2810 4109 c0 -5 5 -7 10 -4 6 3 10 8 10 11 0 2 -4 4 -10 4 -5 0 -10
-5 -10 -11z"/>
<path d="M4578 4113 c29 -2 74 -2 100 0 26 2 2 3 -53 3 -55 0 -76 -1 -47 -3z"/>
<path d="M4743 4113 c9 -2 23 -2 30 0 6 3 -1 5 -18 5 -16 0 -22 -2 -12 -5z"/>
<path d="M2206 4091 c-4 -5 3 -7 14 -4 23 6 26 13 6 13 -8 0 -17 -4 -20 -9z"/>
<path d="M1897 4084 c-3 -3 -3 -12 -1 -19 3 -7 -4 -15 -16 -18 -13 -3 -23 0
-27 9 -3 8 -9 11 -15 8 -5 -3 -4 -11 3 -20 7 -9 8 -14 1 -14 -6 0 -14 5 -17
10 -8 13 -25 13 -25 1 0 -5 8 -11 18 -14 15 -4 15 -5 -2 -12 -13 -6 -21 -4
-24 3 -2 7 -8 12 -14 12 -7 0 -6 -5 1 -14 10 -12 8 -17 -8 -25 -29 -16 -38
-13 -15 4 10 8 17 15 14 15 -36 8 -41 7 -36 -6 7 -17 -6 -18 -23 -1 -10 10
-11 9 -6 -5 4 -9 14 -18 23 -20 12 -2 6 -10 -21 -27 l-38 -23 -25 23 c-14 13
-24 17 -24 10 0 -8 -6 -11 -17 -7 -15 6 -15 4 2 -14 21 -24 29 -26 21 -5 -4
12 -2 13 14 3 17 -11 18 -14 5 -27 -13 -13 -19 -11 -52 19 l-38 35 33 -36 c46
-50 23 -63 -25 -14 -46 47 -52 41 -7 -9 31 -33 39 -66 12 -50 -7 4 -8 -2 -3
-17 7 -21 6 -22 -9 -10 -23 19 -31 7 -13 -19 l15 -22 13 24 c7 12 13 26 14 29
1 20 170 133 267 179 37 18 71 27 82 24 15 -5 18 -3 13 11 -4 9 -7 21 -7 26 0
5 -5 9 -11 9 -6 0 -8 -8 -5 -17 6 -17 5 -17 -7 -1 -8 10 -17 15 -20 12z"/>
<path d="M1386 4065 c4 -8 11 -15 16 -15 6 0 5 6 -2 15 -7 8 -14 15 -16 15 -2
0 -1 -7 2 -15z"/>
<path d="M1860 4070 c0 -5 5 -10 10 -10 6 0 10 5 10 10 0 6 -4 10 -10 10 -5 0
-10 -4 -10 -10z"/>
<path d="M3010 4041 c69 -21 154 -49 188 -64 109 -45 318 -179 361 -231 8 -9
50 -48 95 -88 81 -71 81 -71 -19 28 -197 196 -372 300 -625 370 -137 38 -137
26 0 -15z"/>
<path d="M2788 4063 c6 -2 18 -2 25 0 6 3 1 5 -13 5 -14 0 -19 -2 -12 -5z"/>
<path d="M2905 4040 c11 -5 27 -9 35 -9 9 0 8 4 -5 9 -11 5 -27 9 -35 9 -9 0
-8 -4 5 -9z"/>
<path d="M1326 4011 c-10 -11 -13 -21 -7 -25 5 -4 12 -2 16 4 4 6 10 8 15 5 9
-5 8 21 -1 30 -3 3 -14 -3 -23 -14z m24 5 c0 -2 -8 -10 -17 -17 -16 -13 -17
-12 -4 4 13 16 21 21 21 13z"/>
<path d="M3407 4023 c-4 -3 -7 -11 -7 -17 0 -6 5 -5 12 2 6 6 9 14 7 17 -3 3
-9 2 -12 -2z"/>
<path d="M3005 4009 c17 -6 77 -29 133 -50 57 -21 133 -57 169 -80 36 -22 63
-36 59 -31 -21 35 -267 148 -361 166 l-30 6 30 -11z"/>
<path d="M3431 3983 c-8 -18 -9 -29 -1 -37 6 -6 10 -6 11 0 0 5 2 21 4 37 5
34 1 34 -14 0z"/>
<path d="M1110 3990 c0 -5 5 -10 10 -10 6 0 10 5 10 10 0 6 -4 10 -10 10 -5 0
-10 -4 -10 -10z"/>
<path d="M4143 3993 c9 -2 23 -2 30 0 6 3 -1 5 -18 5 -16 0 -22 -2 -12 -5z"/>
<path d="M4548 3993 c6 -2 18 -2 25 0 6 3 1 5 -13 5 -14 0 -19 -2 -12 -5z"/>
<path d="M1680 3981 c0 -5 5 -13 10 -16 6 -3 10 -2 10 4 0 5 -4 13 -10 16 -5
3 -10 2 -10 -4z"/>
<path d="M1650 3965 c7 -8 17 -15 22 -15 6 0 5 7 -2 15 -7 8 -17 15 -22 15 -6
0 -5 -7 2 -15z"/>
<path d="M2355 3966 c-76 -15 -194 -54 -320 -107 -227 -95 -386 -213 -529
-394 -83 -104 -106 -139 -106 -157 1 -7 8 1 17 17 30 56 140 190 216 262 148
141 352 253 615 339 143 46 394 54 585 18 90 -17 303 -90 391 -134 33 -17 60
-30 60 -30 1 0 2 9 3 21 2 18 -2 20 -23 15 -19 -5 -24 -3 -18 5 4 8 3 9 -5 5
-6 -4 -17 -3 -24 2 -22 17 -290 110 -367 127 -102 23 -400 29 -495 11z"/>
<path d="M4127 3953 c-4 -3 -7 -11 -7 -17 0 -6 5 -5 12 2 6 6 9 14 7 17 -3 3
-9 2 -12 -2z"/>
<path d="M4400 3850 c0 -62 2 -111 4 -109 7 7 9 209 2 216 -3 4 -6 -45 -6
-107z"/>
<path d="M1910 3935 c-29 -17 -44 -19 -36 -6 4 5 -3 7 -14 4 -11 -3 -20 -9
-20 -14 0 -5 7 -6 15 -3 30 12 14 -5 -35 -36 -46 -30 -81 -33 -63 -6 4 7 0 3
-11 -9 -10 -11 -21 -20 -25 -20 -10 0 -121 -89 -116 -93 2 -3 22 10 45 28 23
18 43 30 46 27 3 -2 -14 -19 -38 -37 -24 -18 -79 -69 -122 -114 -44 -45 -83
-80 -88 -78 -4 1 -7 -1 -6 -5 2 -8 -50 -94 -62 -103 -4 -3 -12 -15 -19 -28 -7
-12 -15 -21 -19 -18 -4 2 -7 -7 -7 -20 0 -29 11 -31 20 -4 13 41 130 188 224
280 92 91 209 177 320 235 28 15 51 29 51 31 0 7 -15 3 -40 -11z m-170 -105
c-30 -24 -41 -25 -34 -5 4 8 10 13 14 10 5 -3 11 -1 15 5 3 5 12 10 18 10 7 0
1 -9 -13 -20z"/>
<path d="M3450 3943 c0 -6 15 -22 33 -34 17 -13 37 -28 44 -34 110 -98 232
-212 232 -218 1 -13 61 -73 61 -62 0 6 -8 18 -17 27 -114 109 -214 219 -194
213 21 -6 22 -5 10 8 -10 10 -18 12 -26 5 -8 -7 -19 -3 -35 12 -13 12 -39 34
-58 48 -19 15 -38 31 -42 37 -5 6 -8 6 -8 -2z"/>
<path d="M4165 3930 c-3 -5 1 -10 10 -10 9 0 13 5 10 10 -3 6 -8 10 -10 10 -2
0 -7 -4 -10 -10z"/>
<path d="M2538 3923 c28 -2 76 -2 105 0 28 2 5 3 -53 3 -58 0 -81 -1 -52 -3z"/>
<path d="M1515 3895 c17 -14 35 -25 40 -25 6 1 -3 12 -20 25 -16 14 -34 25
-40 25 -5 -1 4 -12 20 -25z"/>
<path d="M2403 3913 c15 -2 37 -2 50 0 12 2 0 4 -28 4 -27 0 -38 -2 -22 -4z"/>
<path d="M3930 3910 c0 -6 -5 -8 -10 -5 -6 3 -13 -1 -16 -9 -3 -9 -10 -13 -15
-10 -25 15 -3 -17 39 -59 43 -42 50 -46 62 -32 11 13 10 14 -4 9 -12 -4 -27 5
-50 32 -33 38 -40 71 -8 36 9 -10 13 -11 7 -3 -12 17 -11 21 5 31 9 5 9 9 1
14 -6 4 -11 2 -11 -4z"/>
<path d="M4125 3910 c3 -5 8 -10 11 -10 2 0 4 5 4 10 0 6 -5 10 -11 10 -5 0
-7 -4 -4 -10z"/>
<path d="M4620 3906 c0 -2 7 -6 15 -10 8 -3 15 -1 15 4 0 6 -7 10 -15 10 -8 0
-15 -2 -15 -4z"/>
<path d="M1472 3888 c2 -6 10 -14 16 -16 7 -2 10 2 6 12 -7 18 -28 22 -22 4z"/>
<path d="M1783 3885 c0 -8 4 -12 9 -9 5 3 6 10 3 15 -9 13 -12 11 -12 -6z"/>
<path d="M2296 3889 c-60 -10 -226 -60 -226 -68 0 -3 3 -16 6 -28 8 -31 22
-29 19 2 -3 22 3 26 53 40 112 30 128 34 165 40 l37 6 0 -41 c0 -35 -3 -40
-22 -41 -13 0 -62 -10 -110 -23 l-88 -22 0 22 c0 13 -4 25 -9 28 -4 3 -6 -5
-4 -17 4 -25 -6 -44 -26 -49 -8 -2 -39 -15 -69 -30 -30 -16 -59 -25 -65 -21
-6 3 -7 1 -3 -5 3 -6 -3 -16 -14 -22 -11 -6 -20 -8 -20 -5 0 4 -7 -1 -16 -9
-8 -9 -20 -13 -26 -10 -7 4 -8 2 -4 -4 4 -7 3 -12 -3 -12 -13 0 -141 -101
-141 -112 0 -4 -10 -8 -22 -8 -19 0 -20 -2 -8 -10 13 -8 12 -10 -3 -10 -9 0
-16 -3 -15 -7 2 -5 -14 -25 -35 -45 -21 -21 -34 -38 -30 -38 4 0 0 -5 -10 -11
-9 -5 -24 -25 -31 -44 -8 -18 -24 -43 -35 -54 -12 -12 -22 -24 -23 -28 -2 -5
-6 -7 -10 -6 -5 2 -8 -4 -8 -12 0 -22 -41 -75 -53 -68 -5 3 -6 -3 -3 -15 4
-11 2 -23 -4 -27 -5 -3 -10 -14 -10 -23 -1 -28 -35 -66 -51 -56 -8 5 -23 7
-34 5 -16 -2 -17 0 -7 12 10 12 10 16 -2 20 -15 6 -30 -18 -21 -33 3 -5 26
-12 50 -16 25 -3 45 -10 45 -15 0 -5 -4 -9 -9 -9 -5 0 -11 -12 -14 -27 -3 -16
-10 -40 -16 -54 -9 -25 -12 -26 -44 -16 -33 11 -35 13 -30 47 8 47 18 58 51
53 22 -3 21 -1 -8 10 -24 8 -37 9 -41 2 -4 -5 -19 -62 -34 -125 -34 -143 -36
-150 -29 -75 3 33 2 56 -3 52 -10 -11 -4 -423 7 -451 7 -17 9 -18 9 -3 1 9 6
18 11 18 6 1 15 2 22 3 6 0 13 7 15 13 3 9 -4 11 -26 7 l-31 -6 0 101 c0 98 1
101 24 107 39 9 46 -2 46 -80 0 -39 5 -77 10 -82 6 -6 14 -44 19 -83 7 -70 7
-73 -16 -82 -12 -4 -30 -6 -38 -3 -11 5 -15 -1 -15 -22 0 -41 -10 -24 -30 53
-10 37 -19 61 -19 53 -1 -9 7 -47 18 -85 10 -39 24 -96 30 -128 14 -64 165
-375 206 -422 14 -17 25 -33 25 -36 0 -4 8 -10 17 -13 14 -6 13 -2 -4 16 -41
43 -194 335 -227 431 -29 87 -16 83 18 -5 31 -82 77 -158 95 -158 9 0 24 -38
22 -55 -1 -13 68 -80 91 -88 9 -3 19 0 22 9 4 10 -2 14 -20 14 -21 0 -25 4
-21 19 3 13 1 18 -8 14 -16 -6 -55 14 -55 28 0 6 6 6 19 0 16 -9 18 -8 14 8
-3 12 -11 17 -19 14 -10 -4 -12 0 -7 13 4 11 3 15 -4 11 -6 -4 -14 0 -17 9 -3
8 -2 13 3 10 5 -3 14 1 21 9 15 18 40 3 40 -24 0 -9 9 -27 20 -41 11 -14 20
-29 20 -33 0 -8 9 -21 40 -56 8 -9 21 -29 29 -44 8 -15 18 -27 23 -27 19 0 7
-39 -14 -46 -33 -11 -50 -6 -76 24 -20 23 -19 21 3 -15 l27 -42 55 25 c31 13
57 24 59 24 2 0 -16 26 -41 58 -77 99 -183 298 -220 414 -69 213 -71 494 -6
699 60 187 245 467 377 570 160 125 317 206 481 246 l113 28 0 53 c0 35 -4 52
-12 51 -7 -1 -35 -5 -62 -10z m-958 -991 c32 -32 -1 -71 -48 -58 -18 4 -24 12
-22 26 8 41 44 58 70 32z m-54 -77 c3 -4 17 -6 31 -3 23 4 25 1 24 -29 -2 -67
-14 -134 -22 -121 -5 6 -19 12 -32 12 -18 0 -26 8 -34 33 -7 19 -10 40 -7 48
2 8 7 26 10 42 6 27 20 35 30 18z m82 -516 c9 -23 -15 -75 -32 -68 -8 3 -14 3
-14 0 0 -3 7 -7 15 -11 9 -3 20 4 29 21 l13 26 18 -54 c10 -30 28 -78 41 -106
23 -53 23 -53 3 -64 -16 -8 -25 -7 -38 5 -10 9 -20 14 -23 11 -7 -7 -44 68
-69 140 -32 94 -33 103 -12 108 37 10 64 7 69 -8z"/>
<path d="M1280 2859 c0 -5 5 -7 10 -4 6 3 10 8 10 11 0 2 -4 4 -10 4 -5 0 -10
-5 -10 -11z"/>
<path d="M1310 2859 c0 -5 5 -7 10 -4 6 3 10 8 10 11 0 2 -4 4 -10 4 -5 0 -10
-5 -10 -11z"/>
<path d="M1305 2290 c-3 -5 -2 -17 3 -26 8 -14 10 -14 22 1 7 8 10 18 6 22 -3
3 -6 1 -6 -5 0 -7 -5 -12 -11 -12 -6 0 -9 7 -5 15 6 17 0 20 -9 5z"/>
<path d="M1390 2091 c0 -5 11 -8 24 -7 13 0 22 4 19 9 -6 10 -43 9 -43 -2z"/>
<path d="M2915 3890 c11 -5 27 -9 35 -9 9 0 8 4 -5 9 -11 5 -27 9 -35 9 -9 0
-8 -4 5 -9z"/>
<path d="M4160 3890 c0 -5 5 -10 10 -10 6 0 10 5 10 10 0 6 -4 10 -10 10 -5 0
-10 -4 -10 -10z"/>
<path d="M2776 3853 c-11 -68 -10 -70 42 -76 39 -5 149 -37 215 -62 9 -4 17
-3 17 3 0 9 -50 26 -183 62 -37 10 -71 20 -75 22 -8 4 -8 35 2 66 4 12 3 22
-2 22 -5 0 -12 -17 -16 -37z"/>
<path d="M1433 3867 c4 -10 7 -21 7 -23 0 -2 6 -4 13 -4 8 0 14 7 14 15 0 8
-3 13 -5 10 -3 -3 -12 1 -20 8 -13 10 -15 9 -9 -6z"/>
<path d="M2810 3859 c0 -5 4 -7 10 -4 5 3 47 -6 92 -20 46 -15 88 -28 93 -29
6 -2 27 -10 47 -20 46 -20 72 -21 38 -1 -33 19 -234 85 -260 85 -11 0 -20 -5
-20 -11z"/>
<path d="M3970 3862 c0 -5 7 -15 15 -22 8 -7 15 -8 15 -2 0 5 -7 15 -15 22 -8
7 -15 8 -15 2z"/>
<path d="M1486 3838 c-18 -20 -18 -21 18 -56 26 -27 36 -32 36 -20 0 9 -5 20
-10 23 -6 4 -8 10 -5 15 3 4 -4 6 -15 3 -33 -9 -22 24 15 45 l20 11 -20 0
c-11 0 -28 -10 -39 -21z"/>
<path d="M1405 3826 c20 -30 25 -32 25 -11 0 8 -9 19 -21 25 -20 11 -20 11 -4
-14z"/>
<path d="M1357 3833 c-4 -3 0 -17 8 -30 21 -31 9 -50 -16 -27 -11 9 -22 15
-25 12 -3 -3 15 -23 40 -43 42 -34 51 -55 25 -55 -6 0 -7 5 -4 10 3 6 2 10 -3
10 -11 0 -26 -30 -23 -46 0 -6 -5 -17 -13 -23 -12 -10 -26 -5 -73 24 -40 25
-51 30 -36 14 21 -21 21 -23 5 -36 -9 -8 -11 -12 -4 -8 7 4 21 4 30 0 16 -6
16 -7 -1 -16 -13 -8 -25 -6 -45 7 l-27 17 25 -27 c35 -38 59 -51 54 -28 -6 25
23 59 38 44 14 -14 2 -39 -39 -87 -14 -16 -22 -24 -18 -16 6 9 4 12 -4 7 -6
-4 -10 -13 -9 -19 1 -7 -12 -37 -30 -68 -17 -31 -32 -61 -32 -66 0 -6 -11 -27
-25 -47 -13 -20 -22 -36 -20 -36 3 0 -6 -22 -20 -49 -41 -82 -94 -233 -115
-327 -18 -85 -23 -204 -8 -204 4 0 5 29 2 65 -4 42 -2 65 5 65 6 0 8 7 5 15
-4 8 -2 15 2 15 5 0 9 19 10 42 0 23 5 43 11 45 6 2 8 13 5 25 -4 18 -2 20 16
16 12 -4 25 -2 28 3 3 5 2 9 -3 8 -27 -5 -31 2 -21 40 8 31 14 39 29 36 10 -2
22 1 25 7 5 7 0 9 -14 6 -12 -4 -22 -2 -22 3 0 17 44 98 51 93 4 -2 5 4 3 14
-4 15 99 242 110 242 2 0 4 -11 4 -25 0 -14 -5 -22 -11 -18 -5 3 -8 0 -6 -6 8
-23 20 -16 42 24 12 22 26 43 32 47 5 4 0 6 -12 6 -14 -2 -20 -8 -18 -20 4
-20 -10 -25 -20 -7 -4 5 6 29 22 52 35 52 141 184 153 192 5 3 7 13 4 23 -4
13 -1 11 14 -5 19 -21 32 -21 32 0 0 6 -3 7 -7 4 -8 -8 -33 25 -27 35 3 5 14
8 24 8 13 0 17 5 14 15 -9 22 -31 18 -37 -6 -3 -12 -10 -18 -15 -15 -5 3 -12
-4 -16 -16 -4 -18 -8 -20 -17 -11 -9 9 -9 16 1 28 11 13 10 19 -9 36 -12 11
-19 24 -16 30 7 10 2 12 -8 2z"/>
<path d="M2805 3820 c3 -5 8 -10 11 -10 2 0 4 5 4 10 0 6 -5 10 -11 10 -5 0
-7 -4 -4 -10z"/>
<path d="M740 3815 c0 -6 9 -17 20 -25 11 -8 20 -20 20 -27 0 -7 4 -13 9 -13
15 0 33 -57 27 -90 -5 -37 -32 -70 -56 -70 -26 0 -40 -21 -40 -60 0 -20 -4
-40 -10 -46 -10 -10 -103 -232 -125 -299 -18 -54 -75 -284 -75 -302 0 -8 10
-23 23 -33 27 -22 17 -28 -58 -33 -47 -3 -46 -4 14 -5 l63 -2 -4 -50 c-3 -28
-1 -53 4 -56 4 -3 8 32 8 76 0 74 -2 82 -20 87 -12 3 -19 11 -16 17 2 6 19 72
37 146 29 121 108 338 161 444 12 24 18 49 14 66 -5 25 -2 29 30 34 41 8 62
36 70 99 6 45 5 47 -45 99 -28 29 -51 48 -51 43z"/>
<path d="M1977 3786 c-161 -70 -305 -177 -439 -325 -54 -60 -78 -115 -54 -125
6 -2 3 -5 -7 -5 -14 -1 -17 4 -12 19 10 30 -1 24 -25 -16 -12 -19 -19 -38 -15
-42 4 -4 10 -1 12 6 6 17 42 15 49 -3 4 -8 1 -21 -5 -29 -6 -7 -8 -16 -4 -20
4 -4 1 -11 -7 -16 -11 -7 -11 -10 -2 -10 17 0 35 49 28 81 -3 15 1 35 10 47 8
12 10 23 5 27 -6 3 -8 12 -5 20 4 8 10 13 14 10 5 -3 12 0 16 6 5 8 3 9 -7 3
-8 -4 12 17 44 48 31 31 57 62 57 69 0 7 3 9 7 6 3 -4 29 15 57 41 81 77 261
192 299 192 8 0 20 7 27 15 7 8 16 13 20 10 4 -3 10 2 14 10 3 8 4 15 3 15 -1
0 -37 -16 -80 -34z"/>
<path d="M3930 3795 c13 -14 26 -25 28 -25 3 0 -5 11 -18 25 -13 14 -26 25
-28 25 -3 0 5 -11 18 -25z"/>
<path d="M4011 3815 c0 -14 28 -50 34 -43 3 3 -3 16 -14 29 -11 13 -20 20 -20
14z"/>
<path d="M3420 3807 c0 -3 12 -12 26 -22 15 -9 23 -12 20 -6 -7 11 -46 35 -46
28z"/>
<path d="M1777 3775 c3 -8 9 -12 14 -9 12 7 11 11 -5 17 -10 4 -13 1 -9 -8z"/>
<path d="M3327 3769 c7 -7 15 -10 18 -7 3 3 -2 9 -12 12 -14 6 -15 5 -6 -5z"/>
<path d="M3680 3767 c0 -2 15 -16 33 -33 l32 -29 -29 33 c-28 30 -36 37 -36
29z"/>
<path d="M3979 3757 c11 -13 17 -15 28 -6 7 7 11 15 7 18 -4 3 -9 0 -11 -7 -4
-10 -8 -10 -21 0 -15 12 -16 11 -3 -5z"/>
<path d="M997 3663 c-57 -86 -117 -192 -117 -208 0 -19 20 3 44 48 48 89 148
248 153 243 3 -3 -4 -22 -15 -43 -47 -90 -57 -108 -64 -113 -3 -3 -8 -12 -10
-19 -2 -8 -9 -21 -16 -30 -27 -33 -60 -90 -55 -95 7 -6 54 65 118 176 46 81
65 104 65 78 0 -10 -5 -19 -94 -172 -31 -53 -56 -99 -56 -102 0 -16 18 -2 29
22 12 25 31 56 121 193 l37 56 -32 32 c-18 17 -35 31 -37 31 -3 0 -35 -44 -71
-97z"/>
<path d="M3096 3751 c-3 -4 -10 -20 -15 -34 -10 -25 -8 -28 32 -48 57 -29 181
-113 241 -163 28 -22 53 -41 57 -41 13 0 99 -105 144 -175 24 -36 67 -114 96
-175 30 -60 55 -112 56 -113 1 -2 10 1 20 8 15 9 15 11 1 6 -13 -4 -20 4 -29
32 -6 20 -15 41 -20 47 -5 5 -9 19 -9 31 0 12 -7 25 -16 28 -13 5 -14 9 -4 20
14 17 50 17 50 -1 0 -6 4 -14 10 -18 5 -3 5 7 -2 25 -8 26 -15 31 -32 26 -11
-3 -25 -6 -29 -6 -5 0 -5 -5 -1 -12 4 -7 3 -8 -4 -4 -18 11 -14 22 13 34 41
19 51 15 70 -28 18 -41 41 -67 28 -33 -36 95 -155 256 -251 342 -31 28 -65 59
-75 68 -17 16 -19 16 -41 -10 -13 -15 -26 -24 -29 -21 -9 10 4 34 18 34 37 0
15 24 -83 88 -91 60 -167 102 -186 102 -3 0 -7 -4 -10 -9z m62 -43 c2 -4 7 -6
12 -3 4 2 15 -4 25 -15 10 -11 22 -20 27 -20 13 0 128 -79 128 -88 0 -4 -5
-14 -10 -22 -8 -12 -14 -10 -42 15 -41 37 -94 75 -106 75 -5 0 -22 12 -37 28
-16 15 -25 21 -21 15 5 -9 2 -11 -7 -7 -8 3 -17 14 -20 25 -4 16 -1 18 21 12
15 -3 29 -10 30 -15z m248 -192 c-1 -41 -2 -43 -18 -29 -16 14 -16 18 -2 44 8
16 16 29 18 29 2 0 3 -20 2 -44z m38 5 c7 -10 -22 -37 -30 -28 -9 8 3 37 15
37 5 0 12 -4 15 -9z m39 -31 c6 -22 -17 -48 -28 -30 -8 12 3 50 15 50 4 0 10
-9 13 -20z m27 -55 c-18 -19 -26 -22 -37 -13 -12 9 -9 15 14 34 37 30 55 13
23 -21z m60 -28 c0 -5 -4 -6 -9 -2 -5 3 -12 1 -16 -4 -3 -6 5 -8 17 -6 18 3
30 -5 51 -35 19 -26 24 -40 15 -41 -7 0 -1 -5 13 -10 14 -5 31 -21 38 -36 10
-22 9 -25 -4 -19 -9 3 -13 2 -10 -4 7 -11 -44 -34 -53 -25 -3 3 1 5 9 5 9 0 5
8 -11 21 -14 11 -18 18 -10 14 11 -5 10 -3 -2 7 -15 13 -15 15 0 26 16 11 16
11 0 6 -12 -4 -28 5 -48 26 -30 32 -41 58 -18 44 7 -4 8 -3 4 5 -4 6 -11 9
-16 6 -19 -12 -18 14 1 39 20 25 22 26 35 9 7 -10 14 -22 14 -26z"/>
<path d="M3596 3357 c3 -10 9 -15 12 -12 3 3 0 11 -7 18 -10 9 -11 8 -5 -6z"/>
<path d="M3625 3281 c-3 -6 3 -9 14 -8 11 0 17 5 15 9 -7 11 -22 10 -29 -1z"/>
<path d="M3365 3741 c5 -25 -3 -26 -29 -6 -11 8 -24 15 -30 15 -5 0 10 -13 35
-29 24 -17 58 -40 74 -51 24 -18 23 -16 -5 9 -19 18 -35 40 -35 50 0 11 -3 23
-7 27 -4 3 -6 -3 -3 -15z"/>
<path d="M1325 3730 c10 -11 16 -22 13 -25 -9 -9 -38 7 -38 21 0 8 -4 14 -10
14 -17 0 -11 -15 13 -38 l24 -22 18 20 c18 20 18 21 -1 35 -28 21 -40 18 -19
-5z"/>
<path d="M3500 3746 c0 -2 8 -10 18 -17 15 -13 16 -12 3 4 -13 16 -21 21 -21
13z"/>
<path d="M4044 3725 c-7 -30 -12 -31 -30 -7 -7 9 -14 12 -14 5 0 -6 4 -15 10
-18 5 -3 33 -39 61 -80 28 -41 55 -73 59 -70 9 6 42 -64 35 -75 -3 -6 8 -2 24
8 33 18 37 27 21 37 -6 4 -9 1 -8 -6 2 -6 -3 -14 -11 -16 -8 -4 -12 0 -9 8 5
15 -26 66 -51 85 -8 7 -11 16 -6 24 5 9 4 11 -3 6 -11 -6 -16 6 -13 27 0 4 -2
6 -6 5 -5 -2 -8 0 -8 3 0 3 -8 13 -17 23 -21 20 -25 51 -5 40 8 -5 8 -2 -2 9
-18 22 -19 22 -27 -8z m51 -96 c21 -33 35 -62 33 -64 -5 -5 -88 117 -88 128 0
17 20 -6 55 -64z m75 -103 c0 -12 -5 -7 -19 24 -11 24 -11 24 3 6 9 -11 16
-24 16 -30z"/>
<path d="M3393 3725 c0 -8 4 -12 9 -9 5 3 16 0 25 -8 12 -9 15 -9 9 -1 -12 22
-43 34 -43 18z"/>
<path d="M2332 3711 c-40 -10 -75 -21 -79 -25 -10 -9 13 -7 44 5 15 6 66 16
113 24 64 10 74 13 40 13 -25 0 -78 -8 -118 -17z"/>
<path d="M4400 3608 c0 -126 -1 -122 86 -258 26 -41 67 -156 66 -185 -1 -17 0
-18 8 -4 13 22 -34 167 -61 192 -10 10 -19 23 -19 30 0 7 -13 34 -29 59 -28
43 -30 55 -33 157 l-3 111 355 2 c195 1 335 3 310 5 -25 1 -188 4 -363 5
l-317 3 0 -117z"/>
<path d="M1270 3689 c43 -34 58 -40 66 -27 4 7 4 10 -1 6 -4 -4 -22 4 -40 17
-38 30 -61 33 -25 4z"/>
<path d="M3540 3706 c0 -2 8 -10 18 -17 15 -13 16 -12 3 4 -13 16 -21 21 -21
13z"/>
<path d="M3450 3697 c0 -2 19 -19 43 -37 23 -19 36 -26 28 -17 -15 19 -71 61
-71 54z"/>
<path d="M3990 3685 c0 -4 10 -20 23 -35 12 -15 28 -36 35 -46 7 -11 3 0 -10
24 -21 41 -48 73 -48 57z"/>
<path d="M2218 3673 c7 -3 16 -2 19 1 4 3 -2 6 -13 5 -11 0 -14 -3 -6 -6z"/>
<path d="M2180 3660 c-9 -6 -10 -10 -3 -10 6 0 15 5 18 10 8 12 4 12 -15 0z"/>
<path d="M1415 3651 c-3 -5 -1 -12 5 -16 5 -3 10 1 10 9 0 18 -6 21 -15 7z"/>
<path d="M2138 3643 c7 -3 16 -2 19 1 4 3 -2 6 -13 5 -11 0 -14 -3 -6 -6z"/>
<path d="M3450 3645 c1 -5 19 -28 42 -50 43 -41 34 -23 -14 30 -16 16 -28 26
-28 20z"/>
<path d="M3655 3620 c10 -11 20 -20 23 -20 3 0 -3 9 -13 20 -10 11 -20 20 -23
20 -3 0 3 -9 13 -20z"/>
<path d="M1386 3621 c-3 -5 1 -11 9 -15 8 -3 15 -1 15 4 0 13 -18 22 -24 11z"/>
<path d="M3540 3624 c0 -5 19 -28 43 -50 23 -22 68 -69 101 -104 32 -36 49
-51 38 -35 -30 44 -181 202 -182 189z"/>
<path d="M2015 3590 c-16 -11 -36 -18 -43 -15 -7 3 -10 0 -7 -5 3 -6 9 -10 13
-10 11 0 88 49 77 50 -5 0 -23 -9 -40 -20z"/>
<path d="M2506 3601 c-14 -22 7 -40 45 -39 31 0 39 4 39 19 0 13 -7 19 -22 19
-17 0 -19 -3 -10 -9 11 -7 11 -9 -2 -14 -9 -4 -16 -2 -16 4 0 6 -5 7 -12 3 -8
-5 -9 -2 -5 9 7 18 -8 24 -17 8z"/>
<path d="M2083 3573 c9 -47 26 -83 38 -83 7 0 8 7 4 18 -5 9 -8 25 -9 34 0 9
-3 15 -7 12 -9 -5 -21 25 -13 37 3 5 0 9 -7 9 -7 0 -10 -10 -6 -27z"/>
<path d="M3860 3598 c0 -15 35 -48 50 -47 13 0 13 1 0 6 -8 4 -22 16 -32 27
-9 12 -17 18 -18 14z"/>
<path d="M3698 3563 c11 -16 30 -37 43 -48 13 -11 6 1 -15 28 -42 51 -59 64
-28 20z"/>
<path d="M4070 3584 c0 -5 12 -22 26 -39 l26 -30 -23 35 c-29 45 -29 45 -29
34z"/>
<path d="M1197 3570 c6 -7 24 -14 39 -16 34 -3 19 12 -21 22 -24 5 -28 4 -18
-6z"/>
<path d="M3835 3560 c10 -11 20 -18 23 -15 7 6 -18 35 -31 35 -5 0 -2 -9 8
-20z"/>
<path d="M1326 3558 c7 -11 34 -10 34 1 0 6 -9 9 -19 8 -11 0 -17 -5 -15 -9z"/>
<path d="M1180 3554 c0 -8 32 -33 43 -34 5 0 5 4 2 10 -8 13 -45 33 -45 24z"/>
<path d="M3556 3518 c17 -18 39 -46 49 -63 17 -28 145 -187 169 -210 18 -18
-17 31 -92 126 -40 52 -87 113 -105 136 -17 23 -36 42 -41 43 -6 0 4 -15 20
-32z"/>
<path d="M1700 3531 c0 -6 4 -12 8 -15 5 -3 9 1 9 9 0 8 -4 15 -9 15 -4 0 -8
-4 -8 -9z"/>
<path d="M3910 3530 c0 -5 16 -27 35 -49 19 -21 35 -44 35 -50 0 -6 5 -11 10
-11 18 0 11 17 -31 69 -42 52 -49 58 -49 41z"/>
<path d="M1175 3520 c3 -5 0 -10 -7 -10 -8 -1 -6 -6 6 -15 22 -17 40 -20 32
-6 -4 5 -1 11 5 13 6 2 -1 9 -16 16 -14 7 -23 8 -20 2z"/>
<path d="M1295 3519 c-4 -6 -5 -12 -2 -15 7 -7 37 7 37 17 0 13 -27 11 -35 -2z"/>
<path d="M1660 3519 c0 -5 -5 -7 -12 -3 -7 4 -8 3 -4 -4 4 -6 13 -9 21 -6 8 4
12 10 9 15 -7 12 -14 11 -14 -2z"/>
<path d="M2502 3520 c-40 -3 -78 -12 -85 -19 -10 -10 -6 -11 18 -4 17 4 74 8
128 8 53 0 97 3 97 8 0 4 -8 8 -17 8 -10 1 -29 2 -43 3 -14 1 -58 -1 -98 -4z"/>
<path d="M2738 3523 c7 -3 16 -2 19 1 4 3 -2 6 -13 5 -11 0 -14 -3 -6 -6z"/>
<path d="M2678 3508 c5 -5 16 -8 23 -6 8 3 3 7 -10 11 -17 4 -21 3 -13 -5z"/>
<path d="M1848 3492 c-16 -9 -28 -20 -28 -25 0 -5 14 1 30 13 17 12 30 23 30
26 0 6 -2 5 -32 -14z"/>
<path d="M3885 3500 c-4 -6 -11 -8 -16 -5 -5 3 -6 -1 -2 -10 3 -10 8 -13 12
-6 8 12 25 2 33 -20 4 -10 1 -16 -8 -16 -8 0 -14 4 -14 9 0 5 -5 6 -10 3 -6
-4 -19 -1 -28 6 -13 10 -12 8 2 -9 11 -12 21 -20 24 -17 3 3 13 -2 22 -10 15
-14 19 -14 30 -1 10 13 8 22 -10 51 -24 38 -26 40 -35 25z"/>
<path d="M1345 3490 c-3 -5 -2 -10 4 -10 5 0 13 5 16 10 3 6 2 10 -4 10 -5 0
-13 -4 -16 -10z"/>
<path d="M3790 3443 c17 -27 42 -61 56 -78 14 -16 2 5 -26 48 -55 84 -77 106
-30 30z"/>
<path d="M1146 3472 c-3 -3 2 -11 12 -19 15 -13 15 -14 -10 -10 -33 5 -35 2
-7 -13 17 -9 23 -8 35 7 7 10 14 21 14 24 0 9 -37 18 -44 11z"/>
<path d="M2408 3471 c-64 -15 -118 -144 -65 -156 12 -3 115 -6 230 -7 l207 -3
10 35 c9 30 6 41 -22 87 l-32 53 -151 -1 c-82 -1 -162 -4 -177 -8z m313 -11
c45 -24 14 -30 -168 -30 -122 0 -184 3 -177 10 25 25 305 41 345 20z m33 -69
c11 -13 15 -27 11 -40 -6 -20 -13 -21 -205 -21 -184 0 -200 1 -209 19 -8 14
-5 23 10 40 19 20 29 21 198 21 163 0 179 -2 195 -19z"/>
<path d="M1590 3435 c0 -8 4 -15 10 -15 5 0 7 7 4 15 -4 8 -8 15 -10 15 -2 0
-4 -7 -4 -15z"/>
<path d="M1096 3421 c-6 -9 8 -24 34 -35 8 -3 0 -4 -18 -1 -20 3 -31 1 -27 -5
3 -6 15 -10 26 -10 11 0 18 -4 14 -10 -4 -6 -15 -6 -30 0 -32 12 -32 7 0 -14
25 -16 25 -16 42 18 9 19 20 33 25 30 4 -3 8 -3 8 0 0 5 -54 36 -64 36 -3 0
-7 -4 -10 -9z m29 -11 c3 -6 -1 -7 -9 -4 -18 7 -21 14 -7 14 6 0 13 -4 16 -10z"/>
<path d="M3924 3399 c-13 -25 -12 -28 1 -23 8 4 15 1 15 -6 0 -6 5 -8 10 -5 6
3 10 1 10 -5 0 -6 4 -9 9 -6 4 3 6 -6 3 -19 -2 -14 -8 -22 -13 -19 -5 3 -9 0
-9 -5 0 -15 16 -14 33 4 8 8 17 11 21 8 3 -4 6 -3 6 1 0 11 -22 49 -37 65 -8
7 -12 19 -10 26 10 25 -25 10 -39 -16z m39 -13 c4 -10 1 -13 -9 -9 -15 6 -19
23 -5 23 5 0 11 -7 14 -14z"/>
<path d="M4005 3410 c-3 -5 -5 -10 -3 -11 29 -7 36 -5 31 7 -6 16 -19 18 -28
4z"/>
<path d="M940 3386 c0 -15 4 -25 9 -22 10 7 9 31 -2 42 -4 4 -7 -5 -7 -20z"/>
<path d="M3751 3401 c-8 -5 -9 -11 -3 -15 5 -3 12 1 16 9 6 17 6 18 -13 6z"/>
<path d="M825 3380 c-3 -5 -4 -10 0 -10 3 0 -10 -29 -30 -65 -19 -36 -35 -69
-35 -74 0 -12 69 -31 76 -20 3 5 -1 9 -8 9 -22 0 -52 26 -44 38 4 6 14 8 22 5
13 -5 13 -7 2 -14 -10 -7 -10 -9 0 -9 12 0 50 81 42 90 -2 3 -10 4 -17 2 -17
-4 -16 3 2 21 13 13 21 13 60 2 52 -16 60 -10 13 9 -57 23 -76 27 -83 16z m15
-66 c0 -15 -22 -44 -31 -39 -11 7 7 45 21 45 6 0 10 -3 10 -6z"/>
<path d="M1207 3376 c-3 -8 -2 -18 3 -21 13 -8 24 15 12 27 -6 6 -11 4 -15 -6z"/>
<path d="M1387 3374 c3 -8 0 -21 -7 -29 -6 -8 -10 -20 -8 -27 3 -7 12 3 21 21
20 41 20 38 3 44 -10 4 -13 1 -9 -9z"/>
<path d="M1682 3332 c-52 -53 -72 -78 -72 -87 0 -4 -10 -15 -22 -26 -20 -16
-21 -20 -8 -29 14 -9 13 -11 -19 -14 -22 -2 -24 -21 -4 -38 23 -20 63 -32 63
-19 0 5 -9 13 -20 16 -11 3 -20 11 -20 16 0 12 50 87 99 149 58 72 64 80 57
80 -3 0 -27 -22 -54 -48z m-117 -172 c3 -5 1 -10 -4 -10 -6 0 -11 5 -11 10 0
6 2 10 4 10 3 0 8 -4 11 -10z"/>
<path d="M3768 3374 c-7 -6 -6 -8 40 -64 16 -19 27 -42 24 -50 -2 -8 3 -5 13
8 15 21 15 24 -5 52 -20 27 -39 43 -25 20 3 -5 2 -10 -4 -10 -6 0 -16 11 -24
25 -7 14 -16 23 -19 19z m82 -86 c0 -6 -7 -5 -15 2 -8 7 -15 17 -15 22 0 6 7
5 15 -2 8 -7 15 -17 15 -22z"/>
<path d="M4036 3323 c63 -140 119 -304 129 -380 2 -15 5 -30 6 -33 3 -8 6 -33
8 -77 1 -36 3 -41 22 -36 15 4 17 8 8 14 -7 4 -14 25 -14 46 -1 21 -11 72 -23
113 -11 41 -27 98 -34 126 -18 65 -111 284 -120 284 -4 0 4 -26 18 -57z"/>
<path d="M1315 3353 c-5 -13 -9 -14 -12 -5 -4 10 -9 8 -19 -5 -16 -22 -19 -42
-3 -26 6 6 17 9 24 7 7 -3 15 5 18 17 8 29 2 36 -8 12z"/>
<path d="M1337 3348 c-8 -28 -2 -34 17 -19 8 7 12 19 9 27 -8 21 -20 17 -26
-8z"/>
<path d="M1527 3353 c-10 -19 -16 -62 -9 -67 4 -2 9 5 9 17 1 12 9 27 18 33 8
6 15 14 15 18 0 9 -28 8 -33 -1z"/>
<path d="M4070 3351 c0 -6 4 -13 10 -16 6 -3 7 1 4 9 -7 18 -14 21 -14 7z"/>
<path d="M1074 3325 c22 -17 40 -20 32 -6 -3 5 -16 11 -28 14 -22 6 -22 5 -4
-8z"/>
<path d="M3325 3284 c-31 -28 -33 -32 -9 -16 28 19 62 52 53 52 -2 0 -22 -16
-44 -36z"/>
<path d="M3477 3314 c-7 -7 18 -75 44 -119 16 -27 19 -40 11 -43 -13 -4 -17
-32 -4 -32 4 0 14 6 21 13 10 9 12 9 7 0 -4 -7 7 -40 25 -74 23 -46 33 -59 40
-48 5 8 9 23 9 34 0 14 -3 16 -9 7 -11 -18 -22 -2 -50 73 -13 33 -27 68 -32
77 -5 10 -9 27 -9 39 0 21 -44 82 -53 73z"/>
<path d="M4090 3314 c0 -6 7 -19 16 -30 14 -18 14 -18 3 6 -14 31 -19 36 -19
24z"/>
<path d="M1073 3296 c24 -19 21 -24 -10 -19 -27 3 -28 3 -4 -7 30 -13 58 5 40
26 -6 8 -19 14 -28 14 -14 -1 -14 -2 2 -14z"/>
<path d="M1166 3293 c-6 -14 -5 -15 5 -6 7 7 10 15 7 18 -3 3 -9 -2 -12 -12z"/>
<path d="M1289 3279 c-12 -17 -35 -54 -50 -83 -36 -64 -38 -53 -3 15 14 28 23
54 20 57 -8 8 -9 7 -48 -88 -42 -98 -56 -144 -38 -120 9 12 10 12 6 -5 -18
-66 -36 -158 -33 -162 3 -2 10 20 17 49 30 124 73 234 120 303 35 53 42 65 36
65 -2 0 -15 -14 -27 -31z m-93 -175 c-8 -21 -15 -34 -15 -28 -1 15 20 76 25
71 2 -2 -2 -21 -10 -43z"/>
<path d="M4009 3303 c0 -5 -2 -18 -3 -30 -2 -15 2 -19 12 -15 10 3 13 0 10 -9
-3 -8 1 -20 9 -27 7 -8 11 -18 8 -23 -4 -5 -1 -9 5 -9 7 0 9 -8 5 -20 -5 -15
-3 -18 10 -14 18 7 15 20 -21 102 -21 48 -33 63 -35 45z"/>
<path d="M1346 3193 c-48 -99 -107 -261 -105 -291 0 -10 15 28 33 83 18 55 53
145 79 199 26 55 46 101 44 103 -2 2 -25 -41 -51 -94z"/>
<path d="M2380 3283 c0 -38 80 -87 103 -64 8 8 4 11 -13 11 -13 0 -39 14 -57
32 -18 18 -33 27 -33 21z"/>
<path d="M1400 3246 c-5 -15 -17 -40 -25 -56 -15 -29 -15 -30 6 -30 15 0 19 4
15 16 -3 8 -2 12 4 9 6 -3 10 -4 10 -1 0 2 3 13 6 23 5 15 4 15 -5 3 -8 -11
-11 -11 -11 -2 0 7 12 17 26 22 27 11 28 33 1 38 -11 2 -21 -6 -27 -22z"/>
<path d="M2675 3257 c-9 -4 -13 -12 -10 -18 4 -5 -15 -9 -44 -9 -30 0 -51 -4
-51 -11 0 -10 55 -6 104 8 15 4 16 7 5 14 -10 6 -6 9 13 9 15 0 29 4 32 8 6
10 -30 10 -49 -1z"/>
<path d="M1030 3255 c0 -9 44 -23 54 -17 5 3 1 9 -10 13 -23 9 -44 11 -44 4z"/>
<path d="M4126 3240 c4 -14 15 -41 26 -60 13 -25 17 -28 12 -10 -4 14 -15 41
-26 60 -13 25 -17 28 -12 10z"/>
<path d="M2512 3177 c1 -55 2 -61 5 -24 3 33 8 47 19 47 7 0 14 5 14 11 0 5
-4 7 -10 4 -5 -3 -7 0 -4 8 3 8 -2 17 -10 20 -14 6 -16 -4 -14 -66z"/>
<path d="M3850 3239 c0 -8 7 -24 15 -35 19 -25 19 -14 0 22 -8 16 -15 22 -15
13z"/>
<path d="M3915 3167 c18 -40 44 -107 56 -150 13 -42 26 -77 30 -77 13 0 -44
167 -85 248 -39 77 -40 63 -1 -21z"/>
<path d="M1005 3220 c3 -5 15 -10 25 -10 10 0 22 -4 25 -10 9 -14 25 -12 23 3
-3 13 -30 24 -61 26 -10 1 -15 -3 -12 -9z"/>
<path d="M3566 3190 c15 -22 28 -40 30 -40 9 0 -31 70 -43 74 -7 3 -1 -13 13
-34z"/>
<path d="M4000 3221 c0 -6 4 -13 10 -16 6 -3 7 1 4 9 -7 18 -14 21 -14 7z"/>
<path d="M984 3191 c4 -5 1 -11 -6 -13 -6 -2 6 -12 27 -22 31 -15 39 -16 46
-5 13 20 11 29 -6 30 -28 3 -33 4 -41 12 -10 10 -26 9 -20 -2z m61 -29 c-3 -3
-11 0 -18 7 -9 10 -8 11 6 5 10 -3 15 -9 12 -12z"/>
<path d="M3901 3140 c11 -21 17 -45 13 -51 -5 -8 -3 -9 5 -5 8 5 11 3 9 -5 -2
-12 10 -61 52 -209 9 -33 9 -33 4 10 -3 25 -15 73 -26 108 -11 34 -21 72 -23
85 -4 33 -36 107 -46 107 -5 0 1 -18 12 -40z"/>
<path d="M2571 3154 c0 -11 3 -14 6 -6 3 7 2 16 -1 19 -3 4 -6 -2 -5 -13z"/>
<path d="M1342 3125 c-14 -31 -15 -35 -3 -35 5 0 12 11 15 24 5 19 11 23 28
20 21 -4 22 -4 3 5 -29 14 -31 13 -43 -14z"/>
<path d="M4031 3134 c0 -11 3 -14 6 -6 3 7 2 16 -1 19 -3 4 -6 -2 -5 -13z"/>
<path d="M4067 3143 c-12 -12 -7 -22 8 -17 8 4 15 10 15 15 0 11 -14 12 -23 2z"/>
<path d="M973 3133 c8 -13 67 -23 67 -11 0 4 -6 8 -12 8 -7 0 -24 3 -37 7 -16
4 -22 2 -18 -4z"/>
<path d="M3604 3127 c3 -10 6 -27 6 -38 0 -10 5 -19 10 -19 15 0 12 34 -6 56
-14 17 -15 17 -10 1z"/>
<path d="M4172 3135 c0 -5 6 -26 13 -45 7 -19 14 -28 14 -20 0 8 -6 29 -14 45
-7 17 -13 26 -13 20z"/>
<path d="M4560 3124 c0 -8 5 -12 10 -9 6 4 8 11 5 16 -9 14 -15 11 -15 -7z"/>
<path d="M746 3075 c-9 -33 -20 -67 -22 -75 -10 -28 -44 -202 -44 -221 0 -15
7 -19 40 -19 40 0 40 0 40 38 0 37 22 182 36 236 6 25 5 28 -10 23 -10 -4 -20
-7 -22 -7 -2 0 -4 -12 -4 -27 -1 -38 -36 -242 -43 -249 -21 -21 -20 20 0 123
28 136 26 129 42 167 7 16 10 39 8 50 -2 13 -10 -1 -21 -39z"/>
<path d="M1251 3114 c0 -11 3 -14 6 -6 3 7 2 16 -1 19 -3 4 -6 -2 -5 -13z"/>
<path d="M1366 3105 c4 -8 8 -15 10 -15 2 0 4 7 4 15 0 8 -4 15 -10 15 -5 0
-7 -7 -4 -15z"/>
<path d="M964 3102 c4 -7 18 -12 32 -12 15 0 23 -4 19 -11 -4 -5 -21 -8 -38
-5 l-32 6 34 -16 c37 -17 36 -17 45 14 5 15 3 22 -6 22 -7 0 -24 3 -37 7 -17
4 -22 3 -17 -5z"/>
<path d="M3781 3090 c14 -31 19 -36 19 -24 0 6 -7 19 -16 30 -14 18 -14 18 -3
-6z"/>
<path d="M4080 3095 c-7 -9 -10 -18 -6 -22 3 -3 6 -1 6 5 0 7 5 12 10 12 7 0
7 -7 0 -20 -14 -25 -5 -41 18 -33 15 6 15 5 3 -10 -15 -19 -7 -37 10 -20 7 7
6 25 -3 56 -13 51 -19 55 -38 32z m22 -47 c-7 -7 -12 -8 -12 -2 0 6 3 14 7 17
3 4 9 5 12 2 2 -3 -1 -11 -7 -17z"/>
<path d="M1525 3090 c-3 -5 -3 -10 2 -10 4 0 3 -4 -3 -8 -20 -13 -72 -166 -89
-265 -21 -120 -17 -358 9 -452 33 -119 68 -220 79 -230 16 -13 41 -54 50 -80
6 -16 3 -15 -13 5 -11 14 -20 31 -20 38 0 14 -20 17 -20 2 0 -11 29 -60 40
-70 4 -3 9 -13 13 -23 4 -10 11 -15 17 -12 5 3 8 0 5 -7 -8 -21 147 -214 165
-206 3 2 26 26 50 53 l44 50 -47 -44 -47 -45 -26 25 c-27 25 -119 169 -146
229 -42 93 -57 130 -76 190 -12 36 -24 83 -28 105 -7 36 -8 37 -14 15 -4 -18
-11 2 -23 71 -9 52 -16 108 -16 125 1 16 6 -2 13 -41 10 -65 11 -56 10 117 0
103 3 185 7 182 9 -5 19 41 22 97 1 21 5 35 8 34 3 -2 15 26 26 63 12 37 25
75 28 85 8 18 -9 24 -20 7z m-58 -232 c-3 -8 -6 -5 -6 6 -1 11 2 17 5 13 3 -3
4 -12 1 -19z"/>
<path d="M2365 3056 c-101 -49 -200 -157 -233 -255 -19 -53 -7 -48 22 11 40
81 55 103 67 100 6 -1 8 2 5 7 -4 5 -2 12 3 16 5 3 14 -2 18 -10 8 -14 12 -13
28 5 15 17 16 20 3 15 -35 -14 -26 15 14 47 55 42 100 68 152 84 32 10 35 13
16 13 -14 1 -57 -14 -95 -33z"/>
<path d="M2598 3073 c6 -2 18 -2 25 0 6 3 1 5 -13 5 -14 0 -19 -2 -12 -5z"/>
<path d="M1222 3031 c-7 -21 -12 -45 -11 -52 0 -8 7 8 15 35 9 26 13 50 11 52
-2 2 -9 -13 -15 -35z"/>
<path d="M2657 3055 c-4 -8 -3 -16 1 -19 4 -3 9 4 9 15 2 23 -3 25 -10 4z"/>
<path d="M2700 3056 c0 -2 7 -7 16 -10 8 -3 12 -2 9 4 -6 10 -25 14 -25 6z"/>
<path d="M2620 3034 c0 -13 -11 -15 -65 -12 -47 2 -65 0 -65 -9 0 -9 21 -13
70 -13 68 0 70 1 70 25 0 14 -2 25 -5 25 -3 0 -5 -7 -5 -16z"/>
<path d="M3806 3037 c3 -10 9 -15 12 -12 3 3 0 11 -7 18 -10 9 -11 8 -5 -6z"/>
<path d="M4201 3040 c0 -8 4 -24 9 -35 5 -13 9 -14 9 -5 0 8 -4 24 -9 35 -5
13 -9 14 -9 5z"/>
<path d="M4573 3013 c4 -21 9 -64 13 -95 l7 -58 -57 0 -56 0 0 -230 0 -230 51
0 52 0 -6 -79 c-6 -78 -6 -79 18 -85 30 -8 30 -19 10 -116 -8 -40 -12 -77 -8
-83 9 -15 21 37 29 131 6 69 5 73 -14 79 -19 5 -22 14 -24 81 l-3 76 -42 9
c-49 9 -44 -13 -44 197 0 55 0 129 1 165 l0 65 33 0 c63 0 70 14 62 118 -4 51
-12 92 -17 92 -7 0 -8 -15 -5 -37z"/>
<path d="M951 3036 c12 -10 59 -15 59 -6 0 5 -14 10 -32 10 -17 0 -29 -2 -27
-4z"/>
<path d="M1141 3004 c-5 -22 -15 -59 -21 -84 -16 -60 -40 -216 -40 -262 0 -34
-2 -37 -32 -41 l-33 -4 33 -1 32 -2 0 -60 c0 -33 -4 -60 -10 -60 -5 0 -10 -5
-10 -11 0 -6 8 -8 18 -5 16 5 20 -3 31 -59 37 -204 147 -484 224 -569 29 -34
19 -8 -23 55 -75 113 -123 239 -181 474 -21 88 -39 176 -39 196 l0 36 45 -7
c25 -4 45 -4 45 0 0 4 -18 10 -41 13 -22 3 -43 8 -46 11 -9 9 24 242 47 330
12 43 19 81 16 83 -3 3 -9 -12 -15 -33z"/>
<path d="M2753 3025 c0 -7 6 -11 12 -9 7 3 18 -2 25 -11 13 -16 30 -20 30 -7
0 4 -15 14 -34 23 -25 13 -33 14 -33 4z"/>
<path d="M2716 3022 c-3 -5 1 -9 9 -9 8 0 12 4 9 9 -3 4 -7 8 -9 8 -2 0 -6 -4
-9 -8z"/>
<path d="M933 3013 c8 -13 67 -23 67 -11 0 4 -6 8 -12 8 -7 0 -24 3 -37 7 -16
4 -22 2 -18 -4z"/>
<path d="M3828 3015 c-3 -4 4 -37 17 -75 38 -111 47 -199 43 -404 -2 -140 -6
-190 -15 -194 -7 -2 -13 -16 -13 -30 0 -34 -62 -217 -96 -284 -20 -40 -28 -48
-36 -37 -8 12 -9 11 -5 -2 3 -8 -2 -26 -9 -40 l-15 -24 6 25 c5 21 4 22 -5 7
-6 -9 -9 -21 -6 -26 4 -5 3 -16 0 -25 -5 -12 -11 -13 -24 -6 -24 13 -35 -3
-15 -20 8 -7 15 -17 15 -22 0 -6 -6 -6 -14 1 -12 10 -13 9 -9 -7 6 -25 -11
-36 -35 -23 -20 11 -23 56 -5 56 6 0 15 3 19 8 4 4 0 7 -8 7 -13 0 -14 4 -5
24 7 13 14 23 18 21 3 -2 6 2 6 9 0 8 9 34 21 60 16 32 26 44 37 40 8 -4 15
-1 15 5 0 6 -7 11 -15 11 -12 0 -12 8 5 50 25 64 68 215 75 266 3 21 5 119 5
216 -1 161 1 177 17 181 12 3 10 5 -8 6 l-26 1 0 -202 c0 -187 -2 -211 -26
-300 -58 -217 -160 -410 -305 -576 -57 -65 -63 -76 -48 -84 10 -5 20 -18 24
-29 7 -17 15 -11 67 42 33 34 54 59 48 55 -7 -4 -13 -2 -13 3 0 6 5 11 11 11
6 0 3 7 -5 15 -13 13 -13 20 -3 38 6 12 15 24 18 27 4 3 16 21 28 40 14 24 21
29 21 17 0 -11 9 -21 20 -24 11 -3 20 -10 20 -15 0 -6 -6 -8 -14 -5 -8 3 -20
-1 -26 -9 -10 -11 -9 -14 4 -14 10 0 14 -5 11 -10 -4 -6 -19 -9 -33 -8 -20 2
-26 -1 -23 -12 2 -8 4 -21 4 -27 1 -23 14 -14 60 40 125 146 222 341 277 556
16 65 20 111 20 253 0 95 -5 200 -10 233 -12 77 -54 218 -62 210z m-258 -1275
c0 -5 -2 -10 -4 -10 -3 0 -8 5 -11 10 -3 6 -1 10 4 10 6 0 11 -4 11 -10z m-70
-28 c-6 -2 -10 -9 -10 -15 -1 -12 -55 -77 -64 -77 -3 0 -6 7 -8 16 -4 22 74
107 84 91 4 -7 3 -13 -2 -15z"/>
<path d="M2645 3000 c-4 -6 -5 -10 -3 -11 2 0 12 -2 22 -4 63 -12 185 -133
221 -218 14 -35 34 -55 21 -22 -4 11 5 16 34 21 22 4 40 11 40 16 0 6 -16 7
-37 4 -37 -6 -39 -5 -68 41 -36 58 -73 94 -140 137 -61 40 -83 48 -90 36z"/>
<path d="M3522 3005 c0 -5 6 -26 13 -45 7 -19 14 -28 14 -20 0 8 -6 29 -14 45
-7 17 -13 26 -13 20z"/>
<path d="M2410 2978 c-61 -30 -156 -126 -181 -184 -12 -26 -24 -73 -27 -106
-5 -65 -15 -65 -37 3 -12 34 -14 37 -10 12 3 -18 8 -46 11 -62 5 -26 2 -31
-30 -46 -20 -10 -39 -21 -42 -26 -3 -5 15 1 40 13 25 12 46 26 46 30 0 4 5 8
10 8 6 0 10 -9 10 -20 0 -29 38 -124 66 -166 21 -30 22 -35 7 -30 -10 4 -2
-10 19 -30 29 -30 40 -35 51 -26 8 7 16 11 18 9 2 -1 -15 15 -38 36 -61 55
-95 132 -101 226 -5 95 7 139 59 220 42 64 116 122 173 137 14 3 23 10 20 15
-8 13 -14 12 -64 -13z m-90 -610 c0 -6 -7 -5 -15 2 -8 7 -15 17 -15 22 0 6 7
5 15 -2 8 -7 15 -17 15 -22z"/>
<path d="M925 2980 c3 -5 18 -11 33 -11 24 -1 23 -3 -8 -9 l-35 -7 35 -3 35
-3 -35 -7 c-31 -7 -32 -7 -7 -9 15 0 30 -2 34 -3 4 -2 10 9 14 23 6 24 3 28
-23 33 -42 8 -50 8 -43 -4z"/>
<path d="M2830 2982 c0 -7 5 -12 11 -12 5 0 7 -6 3 -12 -4 -7 -4 -10 1 -6 4 4
16 -3 26 -15 10 -12 18 -17 19 -11 0 5 -13 23 -30 39 -16 16 -30 23 -30 17z"/>
<path d="M3710 2988 c0 -2 9 -32 20 -66 11 -35 20 -75 20 -88 0 -22 4 -24 55
-24 30 0 55 4 55 10 0 5 -13 7 -29 4 -16 -3 -32 -1 -35 5 -4 5 -13 8 -21 4
-20 -7 -19 11 1 31 14 15 14 16 -3 16 -15 0 -22 12 -32 50 -7 27 -17 52 -22
56 -5 3 -9 4 -9 2z"/>
<path d="M4105 2980 c-3 -5 1 -10 9 -10 9 0 16 5 16 10 0 6 -4 10 -9 10 -6 0
-13 -4 -16 -10z"/>
<path d="M2620 2970 c0 -5 5 -10 11 -10 5 0 7 5 4 10 -3 6 -8 10 -11 10 -2 0
-4 -4 -4 -10z"/>
<path d="M3620 2976 c0 -4 4 -15 9 -24 17 -32 49 -216 55 -312 3 -52 2 -131
-3 -175 -6 -44 -12 -100 -15 -125 -4 -30 -1 -23 9 20 22 102 28 236 16 342
-12 109 -45 256 -61 272 -5 5 -10 7 -10 2z"/>
<path d="M4221 2970 c0 -8 4 -24 9 -35 5 -13 9 -14 9 -5 0 8 -4 24 -9 35 -5
13 -9 14 -9 5z"/>
<path d="M2487 2955 c-4 -8 -2 -17 3 -20 6 -4 10 3 10 14 0 25 -6 27 -13 6z"/>
<path d="M4125 2913 c8 -55 11 -61 26 -46 8 8 8 13 0 17 -6 4 -11 23 -11 42 0
19 -5 34 -11 34 -8 0 -9 -15 -4 -47z"/>
<path d="M4310 2956 c0 -2 7 -7 16 -10 8 -3 12 -2 9 4 -6 10 -25 14 -25 6z"/>
<path d="M2621 2930 c-1 -13 -13 -16 -63 -14 -49 1 -52 0 -13 -3 27 -2 54 -8
60 -13 17 -14 33 3 24 25 -5 14 -8 15 -8 5z"/>
<path d="M3701 2924 c0 -11 3 -14 6 -6 3 7 2 16 -1 19 -3 4 -6 -2 -5 -13z"/>
<path d="M3570 2920 c0 -13 11 -13 30 0 12 8 11 10 -7 10 -13 0 -23 -4 -23
-10z"/>
<path d="M2900 2908 c0 -8 9 -23 20 -33 11 -10 20 -24 20 -32 0 -7 5 -13 10
-13 14 0 13 5 -16 47 -32 48 -34 49 -34 31z"/>
<path d="M3070 2899 c-25 -12 -40 -23 -33 -26 6 -2 25 3 42 11 16 9 44 16 61
16 18 0 29 4 25 10 -10 16 -46 11 -95 -11z"/>
<path d="M3818 2913 c7 -3 16 -2 19 1 4 3 -2 6 -13 5 -11 0 -14 -3 -6 -6z"/>
<path d="M4001 2915 c1 -19 18 -51 18 -35 0 8 -4 22 -9 30 -5 8 -9 11 -9 5z"/>
<path d="M938 2903 c45 -6 40 -20 -5 -17 -23 2 -28 1 -13 -3 14 -3 30 -9 36
-14 14 -11 24 -1 24 23 0 14 -7 18 -37 16 -37 -1 -37 -1 -5 -5z"/>
<path d="M1946 2902 c-3 -5 21 -12 55 -16 49 -6 62 -11 69 -29 8 -21 9 -21 9
4 1 23 -4 27 -41 33 -24 4 -53 9 -64 12 -12 3 -24 1 -28 -4z"/>
<path d="M3552 2895 c0 -11 4 -31 8 -45 6 -20 8 -21 8 -5 0 11 -4 31 -8 45 -6
20 -8 21 -8 5z"/>
<path d="M2668 2893 c7 -3 16 -2 19 1 4 3 -2 6 -13 5 -11 0 -14 -3 -6 -6z"/>
<path d="M2202 2878 c-15 -15 -15 -28 -1 -28 5 0 8 4 5 9 -4 5 0 11 6 14 7 2
10 7 7 10 -3 4 -11 1 -17 -5z"/>
<path d="M3820 2875 c7 -9 15 -13 17 -11 7 7 -7 26 -19 26 -6 0 -6 -6 2 -15z"/>
<path d="M1914 2855 c-9 -13 -17 -36 -18 -49 0 -13 -5 -22 -10 -18 -5 3 -6 -2
-3 -12 4 -9 0 -59 -8 -109 -16 -104 -11 -142 29 -231 15 -32 25 -63 24 -68 -2
-6 -14 13 -28 41 -13 28 -27 51 -31 51 -4 0 9 -36 29 -81 l37 -81 62 4 c48 3
66 9 78 23 16 22 20 75 5 75 -5 0 -7 -6 -4 -14 3 -7 -5 -26 -18 -41 -18 -20
-36 -28 -71 -32 -31 -4 -47 -2 -47 6 0 6 16 11 38 11 65 0 67 3 52 130 -12
108 -10 206 9 345 5 33 8 60 7 61 -1 1 -27 4 -58 8 -54 6 -59 4 -74 -19z m86
-5 c3 -1 9 -2 14 -1 4 1 5 -20 2 -46 -14 -123 -18 -292 -7 -362 9 -60 9 -76
-1 -83 -23 -15 -51 -4 -58 22 -4 14 -17 48 -30 75 -29 62 -36 134 -21 217 16
92 40 170 51 163 6 -4 10 0 10 9 0 12 17 15 40 6z"/>
<path d="M2445 2870 c-8 -13 5 -13 25 0 13 8 13 10 -2 10 -9 0 -20 -4 -23 -10z"/>
<path d="M3090 2868 c-19 -6 -36 -12 -38 -14 -2 -1 6 -33 18 -71 30 -99 37
-237 15 -343 -17 -87 -41 -148 -31 -80 l6 35 -14 -35 c-20 -49 -20 -50 14 -50
21 0 28 4 24 14 -4 11 4 13 39 9 l44 -5 29 83 c22 64 33 84 47 83 15 -2 17 9
16 95 -1 55 -4 83 -8 66 -11 -53 -35 -37 -43 30 -4 32 -13 74 -19 93 -8 25 -8
37 0 45 8 8 11 3 11 -18 0 -15 3 -25 7 -21 4 3 15 -17 24 -46 17 -50 18 -51
13 -13 -3 22 -18 65 -32 95 -23 47 -31 55 -57 57 -16 1 -46 -3 -65 -9z m67
-45 c6 -21 19 -75 28 -121 13 -58 24 -86 37 -93 13 -7 18 -21 18 -49 0 -22 -4
-40 -10 -40 -11 0 -41 -58 -60 -117 -12 -39 -16 -43 -45 -43 l-33 0 14 63 c18
84 17 236 -2 322 -9 39 -16 76 -17 84 -2 12 18 23 53 30 3 1 10 -16 17 -36z
m20 15 c-3 -8 -6 -5 -6 6 -1 11 2 17 5 13 3 -3 4 -12 1 -19z"/>
<path d="M1126 2809 c-4 -33 -5 -63 -3 -66 3 -2 8 23 12 57 4 34 5 63 2 66 -2
3 -7 -23 -11 -57z"/>
<path d="M2465 2841 c-56 -25 -111 -90 -129 -152 -27 -89 -16 -142 41 -209
139 -162 402 -64 403 151 0 99 -60 188 -149 218 -50 16 -120 13 -166 -8z m190
-36 c94 -54 129 -171 79 -267 -34 -65 -126 -121 -192 -117 -69 5 -160 68 -184
129 -14 35 -11 110 6 151 20 49 87 116 122 124 16 4 34 8 39 10 23 7 93 -9
130 -30z"/>
<path d="M2471 2766 c-52 -27 -80 -73 -81 -134 0 -49 23 -106 51 -126 10 -7
17 -16 14 -19 -3 -4 -2 -5 2 -2 3 3 11 1 17 -4 37 -29 131 -18 179 20 69 54
79 176 21 240 -46 51 -133 62 -203 25z m149 -17 c47 -27 70 -66 70 -121 0 -82
-57 -138 -140 -138 -54 0 -97 26 -121 72 -38 73 -12 154 61 190 46 24 84 23
130 -3z"/>
<path d="M2497 2700 c-78 -62 -7 -197 83 -160 38 16 50 37 50 88 0 81 -72 120
-133 72z m97 -12 c7 -13 17 -35 20 -51 18 -78 -82 -118 -119 -47 -21 41 -19
67 10 95 31 31 70 32 89 3z"/>
<path d="M2568 2673 c7 -3 16 -2 19 1 4 3 -2 6 -13 5 -11 0 -14 -3 -6 -6z"/>
<path d="M2550 2640 c0 -5 5 -10 10 -10 6 0 10 5 10 10 0 6 -4 10 -10 10 -5 0
-10 -4 -10 -10z"/>
<path d="M928 2843 c44 -6 41 -23 -5 -23 -44 0 -41 -5 10 -13 34 -5 37 -4 37
19 0 21 -4 24 -37 22 -37 -1 -37 -1 -5 -5z"/>
<path d="M2367 2801 c-42 -47 -79 -133 -63 -148 3 -3 6 2 6 13 1 33 40 108 78
147 20 20 33 37 30 37 -3 0 -26 -22 -51 -49z"/>
<path d="M2736 2833 c-6 -14 -5 -15 5 -6 7 7 10 15 7 18 -3 3 -9 -2 -12 -12z"/>
<path d="M4136 2839 c4 -7 7 -25 6 -40 0 -16 4 -29 9 -29 9 0 13 16 9 35 -1 5
-2 18 -3 27 -1 10 -7 18 -15 18 -7 0 -10 -5 -6 -11z"/>
<path d="M2175 2829 c-11 -17 1 -21 15 -4 8 9 8 15 2 15 -6 0 -14 -5 -17 -11z"/>
<path d="M4023 2805 c0 -22 2 -30 4 -17 2 12 2 30 0 40 -3 9 -5 -1 -4 -23z"/>
<path d="M3992 2805 c0 -16 2 -22 5 -12 2 9 2 23 0 30 -3 6 -5 -1 -5 -18z"/>
<path d="M2950 2810 c0 -5 5 -10 10 -10 6 0 10 5 10 10 0 6 -4 10 -10 10 -5 0
-10 -4 -10 -10z"/>
<path d="M3572 2805 c-1 -11 3 -38 7 -60 7 -34 9 -35 9 -10 0 35 -15 101 -16
70z"/>
<path d="M4112 2800 c0 -14 2 -19 5 -12 2 6 2 18 0 25 -3 6 -5 1 -5 -13z"/>
<path d="M313 2803 c20 -2 54 -2 75 0 20 2 3 4 -38 4 -41 0 -58 -2 -37 -4z"/>
<path d="M2081 2784 c0 -11 3 -14 6 -6 3 7 2 16 -1 19 -3 4 -6 -2 -5 -13z"/>
<path d="M910 2780 c36 -12 60 -12 60 0 0 6 -19 10 -42 9 -37 -1 -39 -2 -18
-9z"/>
<path d="M3835 2780 c3 -5 10 -10 16 -10 5 0 9 5 9 10 0 6 -7 10 -16 10 -8 0
-12 -4 -9 -10z"/>
<path d="M4216 2765 c-9 -26 -7 -32 5 -12 6 10 9 21 6 23 -2 3 -7 -2 -11 -11z"/>
<path d="M301 2754 c0 -11 3 -14 6 -6 3 7 2 16 -1 19 -3 4 -6 -2 -5 -13z"/>
<path d="M2867 2745 c4 -16 8 -70 8 -120 0 -81 -3 -95 -29 -139 -71 -121 -152
-175 -275 -183 -70 -5 -85 -3 -136 21 -67 30 -57 8 11 -24 39 -19 44 -26 44
-54 0 -18 3 -53 6 -77 l6 -44 59 3 c53 3 59 6 59 25 0 12 3 40 7 62 3 23 2 36
-3 32 -5 -5 -9 -16 -10 -25 -1 -10 -2 -29 -3 -44 -1 -27 -4 -28 -50 -28 l-48
0 -7 53 c-10 87 -14 82 63 83 72 1 131 23 177 66 14 12 24 16 28 9 4 -5 14 -7
22 -4 11 4 12 8 4 13 -8 5 0 23 25 59 21 29 44 69 51 89 10 30 16 36 36 34 31
-5 34 -10 21 -31 -10 -16 -9 -18 6 -14 13 3 17 11 14 24 -4 15 0 19 18 19 19
0 21 2 9 10 -8 5 -31 10 -51 10 l-37 0 -4 90 c-2 54 -9 95 -17 103 -10 10 -11
6 -4 -18z"/>
<path d="M4001 2713 c-1 -35 3 -63 8 -63 4 0 6 24 4 53 -7 77 -11 81 -12 10z"/>
<path d="M4182 2746 c1 -13 6 -22 10 -20 11 7 10 32 -2 39 -6 3 -9 -4 -8 -19z"/>
<path d="M910 2749 c0 -5 11 -9 25 -9 33 0 33 15 0 16 -14 1 -25 -2 -25 -7z"/>
<path d="M1214 2600 c0 -91 2 -128 3 -82 2 45 2 119 0 165 -1 45 -3 8 -3 -83z"/>
<path d="M4152 2740 c0 -14 2 -19 5 -12 2 6 2 18 0 25 -3 6 -5 1 -5 -13z"/>
<path d="M820 2739 c0 -3 24 -9 54 -13 30 -3 61 -9 70 -12 9 -3 16 -2 16 3 0
5 -31 14 -70 19 -38 5 -70 7 -70 3z"/>
<path d="M2121 2739 c-1 -8 -13 -20 -28 -26 -16 -6 -21 -11 -12 -12 23 -2 53
24 46 40 -4 11 -6 11 -6 -2z"/>
<path d="M2931 2740 c0 -8 7 -49 14 -90 l14 -75 -3 71 c-2 39 -8 79 -14 90 -8
13 -11 15 -11 4z"/>
<path d="M3260 2743 c0 -5 21 -8 47 -8 45 0 48 -2 54 -30 l7 -30 1 33 c1 27 5
32 26 32 14 0 25 -6 26 -12 6 -96 4 -216 -4 -225 -5 -7 -18 -13 -28 -13 -15 0
-19 8 -21 43 -1 40 -1 40 -5 7 -5 -41 -12 -46 -68 -55 -46 -6 -48 -10 -87
-112 -20 -53 -23 -56 -88 -66 -14 -3 -4 -5 21 -6 57 -1 69 11 100 100 l23 67
68 7 c38 3 77 3 88 0 19 -6 20 -1 20 134 l0 141 -90 0 c-49 0 -90 -3 -90 -7z"/>
<path d="M154 2645 c0 -55 1 -76 3 -47 2 29 2 74 0 100 -2 26 -3 2 -3 -53z"/>
<path d="M276 2706 c-23 -36 -20 -44 5 -12 12 15 19 29 16 32 -2 2 -12 -7 -21
-20z"/>
<path d="M1113 2695 c0 -22 2 -30 4 -17 2 12 2 30 0 40 -3 9 -5 -1 -4 -23z"/>
<path d="M1753 2717 l-63 -11 0 -112 0 -112 78 -4 c42 -2 79 -3 80 -1 13 7
-49 25 -91 26 l-52 2 0 87 c0 47 3 89 6 92 3 3 28 9 54 12 27 3 60 12 75 19
l25 14 -25 -1 c-14 -1 -53 -6 -87 -11z"/>
<path d="M1173 2670 c0 -30 2 -43 4 -27 2 15 2 39 0 55 -2 15 -4 2 -4 -28z"/>
<path d="M4156 2673 c9 -51 14 -54 14 -10 0 20 -5 39 -11 42 -7 5 -8 -5 -3
-32z"/>
<path d="M835 2690 c-19 -8 -19 -9 2 -9 12 -1 25 4 28 9 7 12 -2 12 -30 0z"/>
<path d="M890 2691 c0 -5 12 -11 27 -13 14 -2 28 -9 31 -15 3 -10 -15 -13 -65
-14 -66 -1 -67 -2 -23 -10 25 -4 57 -8 73 -8 24 -1 27 3 27 32 0 29 -3 32 -35
34 -19 2 -35 -1 -35 -6z"/>
<path d="M4188 2665 c5 -44 22 -57 22 -16 0 17 0 34 1 39 0 4 -6 8 -14 10 -9
2 -12 -7 -9 -33z"/>
<path d="M550 2678 c0 -3 18 -9 40 -13 l40 -7 1 -96 c0 -54 2 -107 5 -119 3
-20 -2 -24 -37 -29 l-41 -7 4 -70 c3 -69 2 -71 -22 -77 -23 -6 -25 -10 -23
-66 2 -99 88 -385 124 -414 3 -3 21 -36 40 -75 l34 -70 -3 -397 c-3 -417 -3
-424 42 -460 19 -16 62 -18 507 -18 543 0 501 -6 534 73 22 53 -1 47 -27 -8
l-22 -45 -475 -2 c-415 -3 -480 -1 -506 13 l-30 15 -5 430 -5 429 -61 115
c-33 63 -72 153 -87 200 -29 92 -60 247 -51 261 3 5 19 9 35 9 l30 0 -6 48
c-3 26 -9 59 -11 75 -5 26 -4 27 41 27 39 0 46 3 41 16 -3 9 -6 71 -6 139 l0
123 -50 4 c-28 1 -50 0 -50 -4z"/>
<path d="M2059 2668 c-2 -13 -1 -43 2 -68 5 -41 6 -39 7 23 2 67 -2 87 -9 45z"/>
<path d="M3591 2594 c-2 -144 -52 -367 -102 -452 -11 -21 -14 -29 -6 -19 8 9
20 17 27 17 7 0 10 6 7 14 -3 7 -2 17 3 22 9 10 44 127 59 199 20 94 29 210
22 260 -8 45 -8 41 -10 -41z"/>
<path d="M253 2610 c0 -30 2 -43 4 -27 2 15 2 39 0 55 -2 15 -4 2 -4 -28z"/>
<path d="M4131 2644 c0 -11 3 -14 6 -6 3 7 2 16 -1 19 -3 4 -6 -2 -5 -13z"/>
<path d="M1270 2640 c-13 -8 -12 -10 3 -10 9 0 17 5 17 10 0 12 -1 12 -20 0z"/>
<path d="M4010 2581 c0 -26 -2 -77 -5 -112 -4 -55 -3 -58 5 -24 5 22 9 70 9
108 1 61 12 86 24 55 3 -8 6 -6 6 5 1 11 -6 17 -19 17 -17 0 -20 -7 -20 -49z"/>
<path d="M923 2613 c-41 -5 -43 -23 -3 -23 44 0 37 -20 -7 -22 l-38 -1 35 -5
35 -5 -30 -7 -30 -8 28 -1 c15 0 27 -6 27 -12 0 -7 -10 -9 -25 -7 -14 3 -25 2
-25 -3 0 -4 12 -9 28 -11 46 -5 30 -23 -28 -29 l-55 -6 58 -1 c42 -2 57 -6 55
-14 -3 -7 -17 -14 -31 -16 -15 -2 -27 -7 -27 -12 0 -5 14 -7 30 -3 25 5 30 2
30 -14 0 -16 -11 -22 -57 -31 l-58 -11 57 3 c69 3 87 -17 30 -32 l-37 -10 40
-1 c40 -2 40 -2 15 -16 l-25 -14 31 -1 31 0 -9 58 c-4 31 -9 103 -9 160 -1 56
-3 101 -3 100 -1 0 -16 -3 -33 -5z"/>
<path d="M1265 2610 c-18 -8 -17 -9 8 -9 16 -1 26 3 22 9 -3 6 -7 10 -8 9 -1
0 -11 -4 -22 -9z"/>
<path d="M3938 2613 c7 -3 16 -2 19 1 4 3 -2 6 -13 5 -11 0 -14 -3 -6 -6z"/>
<path d="M4163 2580 c0 -16 4 -30 9 -30 4 0 8 14 8 30 0 17 -4 30 -8 30 -5 0
-9 -13 -9 -30z"/>
<path d="M4190 2580 c0 -23 4 -30 20 -30 24 0 26 13 5 34 -13 13 -13 15 3 19
13 4 11 5 -5 6 -19 1 -23 -4 -23 -29z"/>
<path d="M810 2574 c0 -8 10 -14 25 -14 15 0 25 6 25 14 0 8 -10 14 -25 14
-15 0 -25 -6 -25 -14z"/>
<path d="M1250 2570 c0 -5 9 -9 20 -7 31 5 36 17 7 17 -15 0 -27 -4 -27 -10z"/>
<path d="M3640 2560 c0 -5 5 -10 11 -10 5 0 7 5 4 10 -3 6 -8 10 -11 10 -2 0
-4 -4 -4 -10z"/>
<path d="M2141 2544 c-1 -12 6 -28 16 -35 15 -13 15 -12 6 6 -6 11 -13 27 -16
35 -4 10 -6 8 -6 -6z"/>
<path d="M4288 2543 c7 -3 16 -2 19 1 4 3 -2 6 -13 5 -11 0 -14 -3 -6 -6z"/>
<path d="M1261 2509 c-1 -22 3 -26 23 -26 18 0 22 4 19 18 -3 11 -10 19 -15
19 -5 0 -6 -4 -3 -10 3 -5 2 -10 -4 -10 -5 0 -12 8 -14 18 -3 11 -5 8 -6 -9z"/>
<path d="M2079 2492 c5 -34 6 -35 9 -8 2 16 0 32 -5 37 -5 5 -7 -7 -4 -29z"/>
<path d="M258 2148 c1 -205 3 -465 5 -578 1 -113 3 55 5 373 1 317 -1 577 -5
577 -5 0 -7 -168 -5 -372z"/>
<path d="M1172 2485 c0 -16 2 -22 5 -12 2 9 2 23 0 30 -3 6 -5 -1 -5 -18z"/>
<path d="M2903 2460 c-10 -18 -40 -63 -67 -99 -30 -42 -38 -57 -21 -41 41 37
121 157 112 167 -4 3 -14 -9 -24 -27z"/>
<path d="M3005 2466 c30 -26 51 -34 40 -16 -3 6 -21 17 -38 26 l-32 15 30 -25z"/>
<path d="M2199 2462 c12 -22 51 -58 51 -46 -1 10 -46 64 -55 64 -3 0 -1 -8 4
-18z"/>
<path d="M4170 2452 c0 -17 6 -32 15 -36 11 -4 15 1 15 19 0 14 0 28 1 33 0 4
-7 8 -15 10 -12 3 -16 -5 -16 -26z"/>
<path d="M4130 2461 c0 -17 18 -21 24 -6 3 9 0 15 -9 15 -8 0 -15 -4 -15 -9z"/>
<path d="M1079 2456 c-6 -7 14 -130 36 -218 26 -103 114 -329 136 -352 17 -18
9 6 -30 93 -66 147 -112 308 -133 459 -2 13 -6 21 -9 18z"/>
<path d="M1722 2454 c11 -11 98 -33 98 -25 0 5 -20 14 -44 20 -50 12 -62 14
-54 5z"/>
<path d="M4033 2425 c0 -22 2 -30 4 -17 2 12 2 30 0 40 -3 9 -5 -1 -4 -23z"/>
<path d="M2090 2438 c0 -9 5 -20 10 -23 13 -8 13 5 0 25 -8 13 -10 13 -10 -2z"/>
<path d="M4242 2430 c0 -14 2 -19 5 -12 2 6 2 18 0 25 -3 6 -5 1 -5 -13z"/>
<path d="M845 2430 c-3 -5 3 -10 14 -10 12 0 21 5 21 10 0 6 -6 10 -14 10 -8
0 -18 -4 -21 -10z"/>
<path d="M2969 2408 c-63 -85 -135 -150 -208 -186 -42 -21 -87 -42 -101 -46
-14 -4 -20 -10 -13 -12 25 -11 197 80 248 131 27 26 105 128 105 136 0 15 -6
11 -31 -23z"/>
<path d="M1192 2410 c0 -14 2 -19 5 -12 2 6 2 18 0 25 -3 6 -5 1 -5 -13z"/>
<path d="M1462 2405 c0 -16 2 -22 5 -12 2 9 2 23 0 30 -3 6 -5 -1 -5 -18z"/>
<path d="M2131 2425 c-1 -20 37 -71 94 -127 55 -54 174 -123 245 -143 43 -12
9 10 -55 35 -113 44 -189 107 -267 220 -9 14 -17 21 -17 15z"/>
<path d="M3813 2423 c9 -2 25 -2 35 0 9 3 1 5 -18 5 -19 0 -27 -2 -17 -5z"/>
<path d="M4117 2323 c-10 -54 -31 -138 -47 -187 -16 -48 -26 -95 -23 -104 8
-19 33 65 77 263 29 127 28 125 18 125 -4 0 -15 -44 -25 -97z"/>
<path d="M3845 2400 c-3 -5 -1 -10 4 -10 6 0 11 5 11 10 0 6 -2 10 -4 10 -3 0
-8 -4 -11 -10z"/>
<path d="M3990 2376 c0 -13 -11 -67 -25 -120 -32 -121 -32 -147 0 -41 25 83
42 185 31 185 -3 0 -6 -11 -6 -24z"/>
<path d="M4231 2348 c-1 -29 0 -50 2 -48 8 9 15 100 8 100 -4 0 -8 -24 -10
-52z"/>
<path d="M2110 2378 c0 -9 18 -39 40 -67 94 -119 173 -175 309 -220 65 -21 90
-20 68 3 -8 9 -14 10 -18 3 -4 -6 -15 -7 -25 -2 -11 5 -21 9 -24 9 -32 7 -133
52 -149 67 -11 10 -24 19 -28 19 -12 0 -98 93 -95 102 1 4 -3 8 -8 8 -6 0 -24
21 -40 47 -17 26 -30 40 -30 31z"/>
<path d="M2595 2380 c-13 -6 -15 -9 -5 -9 8 0 22 4 30 9 18 12 2 12 -25 0z"/>
<path d="M4169 2373 c0 -10 -2 -37 -5 -60 -3 -29 -1 -43 7 -43 6 0 9 6 6 14
-3 7 1 23 9 35 10 13 11 21 4 21 -7 0 -9 8 -5 19 3 11 1 22 -5 26 -5 3 -10 -2
-11 -12z"/>
<path d="M2490 2376 c0 -7 60 -12 70 -6 6 4 -7 7 -30 8 -22 1 -40 0 -40 -2z"/>
<path d="M3842 2355 c0 -16 2 -22 5 -12 2 9 2 23 0 30 -3 6 -5 -1 -5 -18z"/>
<path d="M4022 2350 c0 -14 2 -19 5 -12 2 6 2 18 0 25 -3 6 -5 1 -5 -13z"/>
<path d="M163 2310 c0 -25 2 -35 4 -22 2 12 2 32 0 45 -2 12 -4 2 -4 -23z"/>
<path d="M755 2303 c9 -63 14 -73 37 -73 14 0 18 5 14 16 -3 9 -9 33 -12 54
-4 27 -12 40 -26 43 -19 5 -20 2 -13 -40z"/>
<path d="M1211 2340 c0 -8 4 -24 9 -35 5 -13 9 -14 9 -5 0 8 -4 24 -9 35 -5
13 -9 14 -9 5z"/>
<path d="M4262 2310 c0 -14 2 -19 5 -12 2 6 2 18 0 25 -3 6 -5 1 -5 -13z"/>
<path d="M4001 2258 c-7 -35 -20 -81 -30 -103 -10 -22 -26 -57 -36 -79 -14
-32 -15 -40 -4 -47 19 -12 42 -11 34 1 -4 6 -11 8 -16 5 -14 -9 -12 0 25 99
30 81 54 186 43 186 -2 0 -10 -28 -16 -62z"/>
<path d="M943 2283 c15 -2 27 -8 27 -13 0 -5 -12 -11 -27 -13 l-28 -4 28 -2
c15 0 27 -5 27 -10 0 -5 -10 -7 -22 -3 -14 3 -19 2 -14 -6 4 -7 20 -12 35 -12
27 0 28 1 17 35 -9 30 -15 35 -41 34 l-30 -2 28 -4z"/>
<path d="M3636 2244 c-9 -26 -14 -49 -12 -51 2 -2 11 17 20 43 9 26 14 49 12
51 -2 2 -11 -17 -20 -43z"/>
<path d="M4222 2270 c0 -14 2 -19 5 -12 2 6 2 18 0 25 -3 6 -5 1 -5 -13z"/>
<path d="M1232 2260 c0 -14 2 -19 5 -12 2 6 2 18 0 25 -3 6 -5 1 -5 -13z"/>
<path d="M4252 2250 c0 -14 2 -19 5 -12 2 6 2 18 0 25 -3 6 -5 1 -5 -13z"/>
<path d="M4150 2250 c0 -5 5 -10 10 -10 6 0 10 5 10 10 0 6 -4 10 -10 10 -5 0
-10 -4 -10 -10z"/>
<path d="M4186 2219 c-8 -42 0 -50 9 -9 4 17 5 34 2 36 -2 3 -7 -10 -11 -27z"/>
<path d="M4146 2215 c3 -8 -1 -28 -9 -45 -9 -16 -11 -30 -6 -30 9 0 18 18 33
68 6 16 3 22 -8 22 -9 0 -13 -6 -10 -15z"/>
<path d="M807 2213 c-12 -11 -8 -23 7 -23 7 0 19 -14 26 -30 7 -17 15 -29 17
-27 5 6 -30 87 -38 87 -3 0 -9 -3 -12 -7z"/>
<path d="M1025 2210 c3 -5 8 -10 11 -10 2 0 4 5 4 10 0 6 -5 10 -11 10 -5 0
-7 -4 -4 -10z"/>
<path d="M945 2199 c-16 -7 -14 -9 13 -6 17 2 32 0 32 -5 0 -4 -12 -9 -27 -9
-27 -2 -27 -2 -3 -6 40 -7 48 -23 13 -23 -18 0 -34 -4 -37 -8 -2 -4 11 -6 30
-4 28 4 35 0 43 -19 7 -20 5 -26 -18 -37 l-26 -13 28 6 c23 5 29 1 37 -20 13
-34 13 -38 -3 -32 -8 3 -20 1 -28 -4 -10 -6 -5 -9 18 -9 17 0 35 -4 38 -10 3
-5 -3 -10 -14 -10 -11 0 -22 -4 -25 -8 -3 -5 8 -6 25 -4 28 4 42 -12 17 -21
-7 -2 -3 -3 8 -1 13 2 24 -2 28 -11 4 -11 -2 -15 -22 -16 -17 -1 -20 -3 -9 -6
9 -2 15 -9 12 -14 -3 -5 1 -6 9 -3 24 9 27 34 8 62 -22 34 -72 142 -72 158 0
2 9 4 20 4 11 0 20 5 20 11 0 7 -9 9 -24 5 -21 -5 -25 -2 -30 29 -7 37 -22 43
-61 24z"/>
<path d="M4923 2160 c0 -25 2 -35 4 -22 2 12 2 32 0 45 -2 12 -4 2 -4 -23z"/>
<path d="M1030 2180 c-13 -8 -12 -10 3 -10 9 0 17 5 17 10 0 12 -1 12 -20 0z"/>
<path d="M3602 2160 c-7 -11 -12 -25 -12 -32 1 -7 8 0 16 15 18 33 14 46 -4
17z"/>
<path d="M1600 2130 c-8 -5 -11 -12 -7 -17 5 -4 12 -1 17 7 8 12 10 12 16 -3
9 -24 23 -21 17 3 -6 22 -20 25 -43 10z"/>
<path d="M958 2113 c6 -2 18 -2 25 0 6 3 1 5 -13 5 -14 0 -19 -2 -12 -5z"/>
<path d="M4109 2081 c-15 -35 -15 -40 -2 -45 23 -9 26 -7 13 9 -11 13 -10 14
5 9 12 -5 16 -4 12 3 -4 6 -3 23 3 37 16 44 -13 31 -31 -13z"/>
<path d="M4155 2063 c-14 -51 -36 -116 -60 -178 -6 -14 -5 -17 3 -10 15 14 92
245 82 245 -5 0 -16 -26 -25 -57z"/>
<path d="M1050 2100 c0 -5 4 -10 9 -10 6 0 13 5 16 10 3 6 -1 10 -9 10 -9 0
-16 -4 -16 -10z"/>
<path d="M2600 2101 c0 -5 -12 -12 -27 -14 -27 -4 -27 -4 3 -6 20 0 34 5 38
14 3 8 1 15 -4 15 -6 0 -10 -4 -10 -9z"/>
<path d="M3539 2026 c-45 -88 -123 -201 -193 -282 -40 -45 -91 -83 -223 -167
-32 -20 -40 -31 -36 -46 3 -12 9 -18 14 -15 5 3 7 10 4 15 -3 5 1 6 9 3 8 -3
28 2 46 11 25 13 29 19 20 30 -7 9 -8 15 0 20 14 9 32 -4 24 -17 -20 -32 72
38 146 112 98 97 174 195 164 212 -4 6 -3 8 3 5 15 -9 64 74 57 96 -4 14 -3
17 6 12 9 -6 11 -4 5 5 -5 8 -1 18 10 27 14 10 15 13 4 14 -8 0 -4 4 9 10 26
10 23 24 -7 32 -17 4 -27 -9 -62 -77z m31 -35 c0 -5 -7 -11 -14 -14 -10 -4
-13 -1 -9 9 6 15 23 19 23 5z m-70 -101 c0 -5 -5 -10 -11 -10 -5 0 -7 5 -4 10
3 6 8 10 11 10 2 0 4 -4 4 -10z m-185 -220 c-10 -11 -23 -20 -29 -20 -6 0 0 9
14 20 32 25 38 25 15 0z m-63 -45 c0 -14 -29 -31 -38 -22 -9 8 16 39 28 35 5
-2 10 -8 10 -13z m-82 -53 c0 -16 -48 -33 -56 -20 -4 6 -3 8 3 5 6 -4 13 0 17
8 6 16 36 21 36 7z"/>
<path d="M3460 2091 c0 -9 30 -24 36 -18 2 1 -6 8 -16 15 -11 7 -20 8 -20 3z"/>
<path d="M3755 2070 c3 -5 8 -10 11 -10 2 0 4 5 4 10 0 6 -5 10 -11 10 -5 0
-7 -4 -4 -10z"/>
<path d="M1065 2060 c-3 -5 3 -10 15 -10 12 0 18 5 15 10 -3 6 -10 10 -15 10
-5 0 -12 -4 -15 -10z"/>
<path d="M2510 2023 c0 -21 -3 -55 -6 -75 l-7 -38 -74 0 c-57 0 -75 -3 -80
-15 -7 -20 6 -33 16 -16 6 9 29 12 80 9 58 -2 71 0 72 12 0 8 3 46 8 83 4 38
4 70 -1 73 -4 3 -8 -12 -8 -33z"/>
<path d="M973 2043 c9 -2 25 -2 35 0 9 3 1 5 -18 5 -19 0 -27 -2 -17 -5z"/>
<path d="M3806 2025 c-9 -26 -7 -32 5 -12 6 10 9 21 6 23 -2 3 -7 -2 -11 -11z"/>
<path d="M1080 2020 c0 -5 4 -10 9 -10 6 0 13 5 16 10 3 6 -1 10 -9 10 -9 0
-16 -4 -16 -10z"/>
<path d="M4090 2011 c0 -12 -4 -21 -8 -21 -14 0 -10 -29 5 -34 7 -3 13 -2 14
2 0 4 3 19 5 34 2 14 0 29 -6 33 -5 3 -10 -3 -10 -14z"/>
<path d="M4177 1968 c-9 -28 -12 -47 -8 -42 11 12 34 84 29 89 -2 3 -12 -18
-21 -47z"/>
<path d="M4545 1915 c-21 -58 -35 -109 -32 -112 4 -3 11 7 17 23 6 16 24 64
40 106 33 86 34 88 21 88 -4 0 -25 -47 -46 -105z"/>
<path d="M4026 1994 c1 -6 -4 -23 -11 -38 -8 -14 -11 -26 -6 -26 4 0 14 16 23
35 8 19 12 32 8 30 -5 -3 -10 -2 -13 2 -2 5 -3 3 -1 -3z"/>
<path d="M3896 1985 c-8 -23 -8 -35 3 -35 13 0 23 32 13 42 -6 6 -12 3 -16 -7z"/>
<path d="M1326 1964 c-4 -9 -4 -19 -1 -22 3 -3 5 1 5 9 0 8 18 -21 39 -64 21
-42 50 -92 63 -110 71 -92 217 -243 290 -298 74 -56 230 -138 314 -166 50 -17
38 11 -15 36 -26 12 -38 15 -27 6 11 -8 24 -15 30 -15 5 0 7 -3 3 -6 -3 -4
-36 6 -72 21 -58 25 -63 29 -47 41 16 13 16 14 -2 7 -14 -5 -17 -3 -11 7 5 9
4 11 -4 6 -6 -4 -9 -12 -6 -17 9 -13 -2 -11 -36 6 -16 9 -27 21 -23 26 4 8 9
7 15 -2 7 -11 9 -11 9 2 0 9 -7 19 -15 23 -9 3 -15 0 -15 -9 0 -16 -12 -20
-23 -8 -4 3 -2 12 4 19 7 9 -1 20 -35 43 -50 35 -48 33 -141 121 -38 36 -60
54 -50 40 37 -46 120 -125 168 -159 45 -33 58 -51 36 -51 -5 0 -8 4 -5 8 3 5
-1 9 -9 9 -23 0 -135 102 -235 215 -67 75 -109 134 -144 200 -57 110 -52 103
-60 82z"/>
<path d="M2560 1954 c0 -9 -8 -23 -17 -30 -16 -12 -16 -12 5 -7 15 4 22 13 22
29 0 13 -2 24 -5 24 -3 0 -5 -7 -5 -16z"/>
<path d="M152 1935 c0 -16 2 -22 5 -12 2 9 2 23 0 30 -3 6 -5 -1 -5 -18z"/>
<path d="M1015 1950 c-3 -5 -1 -10 4 -10 6 0 11 5 11 10 0 6 -2 10 -4 10 -3 0
-8 -4 -11 -10z"/>
<path d="M3777 1953 c-4 -3 -7 -15 -7 -26 0 -25 9 -17 15 12 4 22 2 25 -8 14z"/>
<path d="M4051 1923 c-10 -21 -9 -28 1 -35 9 -5 16 0 22 17 6 14 15 25 20 25
11 0 -14 20 -25 20 -3 0 -11 -12 -18 -27z"/>
<path d="M3875 1930 c-8 -13 5 -13 25 0 13 8 13 10 -2 10 -9 0 -20 -4 -23 -10z"/>
<path d="M1130 1927 c0 -5 13 -27 28 -50 16 -23 32 -49 35 -57 4 -8 16 -30 27
-48 l20 -33 -22 -19 c-13 -11 -18 -19 -12 -20 6 0 17 7 24 15 10 12 16 13 24
5 8 -8 6 -15 -8 -26 -11 -7 -16 -17 -12 -21 4 -5 14 0 21 10 9 13 15 15 20 7
4 -7 2 -17 -4 -23 -18 -18 -13 -29 8 -17 32 17 36 12 12 -14 l-23 -24 21 -7
c12 -3 21 -11 21 -18 0 -8 3 -8 12 1 19 19 32 14 17 -5 -13 -16 -12 -17 4 -4
10 8 17 9 17 3 0 -6 -8 -16 -17 -21 -10 -6 -13 -11 -6 -11 6 0 14 4 18 10 3 5
12 7 20 4 8 -4 12 -10 9 -15 -3 -5 -9 -7 -14 -4 -5 3 -12 0 -16 -6 -5 -8 -3
-9 6 -4 10 6 12 4 7 -8 -8 -22 2 -22 20 1 8 9 11 11 7 3 -5 -9 -3 -12 4 -7 7
4 12 2 12 -4 0 -6 -7 -13 -15 -16 -8 -4 -12 -10 -9 -15 3 -5 14 -4 26 2 27 14
45 -3 24 -23 -13 -14 -11 -19 19 -48 l33 -32 12 23 c7 13 9 21 5 17 -4 -4 -16
3 -26 15 -10 12 -18 16 -19 10 0 -15 -20 -18 -20 -4 0 17 32 21 46 6 18 -18
24 -18 44 -5 13 9 13 12 -4 25 -12 9 -16 20 -12 31 6 15 9 15 24 -7 9 -13 17
-36 18 -51 1 -15 6 -34 12 -41 7 -8 8 -18 4 -22 -4 -5 -1 -5 5 -1 7 4 22 -2
35 -13 12 -12 24 -19 27 -16 2 3 -4 12 -15 20 -16 12 -16 14 -3 15 9 0 22 -7
29 -15 7 -8 17 -15 22 -15 6 0 0 9 -13 20 -29 24 -18 26 19 4 24 -14 24 -14
-3 7 -45 36 -128 112 -143 132 -11 14 -17 15 -28 6 -18 -15 -18 -33 1 -49 8
-7 15 -18 15 -24 0 -6 -11 1 -23 15 -13 14 -28 24 -33 22 -6 -2 -26 14 -43 36
-18 22 -43 51 -54 65 -91 104 -160 212 -151 238 4 12 1 16 -8 13 -19 -8 -46
41 -31 56 8 8 17 4 33 -13 l22 -23 -16 33 c-19 37 -24 39 -42 15 -12 -17 -14
-17 -28 2 -8 11 -16 16 -16 12z m194 -319 c-3 -4 -11 -5 -20 -1 -11 4 -12 8
-3 20 10 11 14 11 20 1 4 -6 6 -15 3 -20z m312 -206 c-3 -3 -15 3 -26 13 -22
20 -28 8 -7 -14 10 -11 8 -12 -9 -3 -27 14 -41 44 -16 35 14 -5 14 -3 -3 17
-14 18 -8 15 23 -9 24 -18 40 -36 38 -39z m-156 17 c0 -6 -4 -7 -10 -4 -5 3
-10 11 -10 16 0 6 5 7 10 4 6 -3 10 -11 10 -16z"/>
<path d="M1331 1904 c0 -11 3 -14 6 -6 3 7 2 16 -1 19 -3 4 -6 -2 -5 -13z"/>
<path d="M3850 1911 c0 -8 -8 -11 -20 -8 -11 3 -18 1 -14 -4 3 -5 11 -9 19 -9
16 0 30 18 21 27 -3 4 -6 1 -6 -6z"/>
<path d="M3897 1888 c-41 -117 -207 -382 -233 -373 -7 2 -10 -4 -6 -18 5 -21
6 -21 21 3 9 14 28 38 42 55 39 45 103 143 134 205 30 60 67 160 59 160 -3 0
-11 -15 -17 -32z"/>
<path d="M750 1900 c0 -13 11 -13 30 0 12 8 11 10 -7 10 -13 0 -23 -4 -23 -10z"/>
<path d="M2575 1900 c-4 -6 28 -10 90 -10 62 0 94 4 90 10 -3 6 -44 10 -90 10
-46 0 -87 -4 -90 -10z"/>
<path d="M3988 1898 c9 -9 15 -9 24 0 9 9 7 12 -12 12 -19 0 -21 -3 -12 -12z"/>
<path d="M154 1605 c0 -165 2 -234 3 -153 2 81 2 216 0 300 -1 84 -3 18 -3
-147z"/>
<path d="M1099 1881 l-24 -20 25 5 c20 5 22 3 10 -5 -13 -9 -12 -11 5 -12 11
0 14 -3 8 -6 -7 -2 -13 -9 -13 -14 0 -6 8 -5 20 1 19 10 19 12 5 27 -9 8 -14
22 -11 29 7 19 3 18 -25 -5z"/>
<path d="M4146 1875 c-3 -9 -6 -22 -5 -28 0 -7 5 -1 10 12 5 13 8 26 5 28 -2
2 -6 -3 -10 -12z"/>
<path d="M3230 1876 c0 -2 8 -10 18 -17 15 -13 16 -12 3 4 -13 16 -21 21 -21
13z"/>
<path d="M3727 1793 c-26 -43 -37 -66 -25 -51 24 29 82 128 75 128 -2 0 -25
-35 -50 -77z"/>
<path d="M3795 1840 c-17 -33 -19 -44 -6 -36 10 6 33 66 26 66 -3 0 -11 -13
-20 -30z"/>
<path d="M3997 1802 c-19 -38 -57 -102 -84 -143 -64 -99 -70 -110 -36 -72 47
55 171 268 161 279 -3 2 -21 -26 -41 -64z"/>
<path d="M777 1830 c20 -34 31 -37 59 -15 18 15 18 16 -6 14 -46 -2 -57 0 -41
10 7 5 23 6 35 4 17 -4 18 -3 6 6 -8 6 -28 11 -43 11 l-28 0 18 -30z"/>
<path d="M1250 1855 c1 -6 7 -21 16 -35 l15 -25 -7 25 c-7 26 -24 52 -24 35z"/>
<path d="M1485 1849 c-4 -6 -5 -12 -2 -15 2 -3 7 2 10 11 7 17 1 20 -8 4z"/>
<path d="M3615 1850 c3 -5 8 -10 11 -10 2 0 4 5 4 10 0 6 -5 10 -11 10 -5 0
-7 -4 -4 -10z"/>
<path d="M4090 1851 c0 -5 5 -13 10 -16 6 -3 10 -2 10 4 0 5 -4 13 -10 16 -5
3 -10 2 -10 -4z"/>
<path d="M4203 1803 c-11 -32 -23 -67 -27 -78 -4 -11 6 5 22 35 16 30 26 61
24 69 -4 9 -1 12 6 7 8 -5 10 -2 6 8 -3 9 -7 16 -9 16 -1 0 -11 -26 -22 -57z"/>
<path d="M2311 1841 c-13 -8 -10 -19 15 -68 l30 -58 193 -5 c217 -6 205 -9
240 72 20 47 20 48 1 58 -24 13 -459 13 -479 1z m454 -32 c5 -14 2 -25 -6 -30
-8 -5 -10 -9 -5 -9 5 0 1 -9 -9 -20 -17 -18 -31 -20 -181 -20 -89 0 -170 3
-179 6 -18 7 -45 54 -45 79 0 13 27 15 209 15 205 0 210 0 216 -21z"/>
<path d="M4215 1755 c-30 -69 -40 -83 -51 -74 -10 8 -14 8 -14 0 0 -6 5 -11
10 -11 6 0 10 -4 10 -10 0 -5 -6 -8 -12 -6 -7 1 -10 1 -5 -1 12 -7 8 -23 -5
-19 -7 1 -10 1 -5 -1 12 -7 8 -23 -5 -19 -7 1 -10 1 -5 -1 15 -9 6 -22 -10
-17 -12 4 -14 3 -6 -3 13 -9 -93 -176 -161 -253 -135 -153 -407 -403 -471
-432 -21 -9 -25 -17 -20 -36 15 -58 27 -57 132 14 250 170 426 353 555 579 25
44 22 43 -20 -10 -4 -5 -11 -18 -14 -27 -14 -34 -59 -99 -67 -94 -4 3 -21 -9
-37 -27 l-29 -32 33 29 c94 86 -24 -64 -141 -177 -114 -111 -345 -287 -377
-287 -24 0 -3 20 116 110 215 163 226 172 220 177 -5 5 -42 -23 -125 -93 -95
-80 -231 -173 -237 -162 -4 7 -2 14 4 16 7 2 52 34 101 72 49 37 92 65 96 62
4 -4 5 -2 3 5 -2 6 2 12 7 13 14 4 123 88 132 103 4 6 -10 -1 -31 -17 -51 -39
-54 -28 -5 20 l40 39 20 -24 20 -24 22 23 c21 24 21 24 0 6 -12 -10 -24 -13
-27 -8 -3 6 1 13 9 16 8 3 14 11 13 18 -2 7 3 12 10 10 8 -1 11 2 7 8 -7 11
-19 6 -47 -18 -39 -33 -15 7 31 52 47 46 49 47 49 21 0 -18 -5 -25 -14 -21 -7
3 -16 1 -19 -3 -3 -5 2 -12 11 -15 10 -4 14 -12 10 -22 -6 -14 -4 -15 9 -4 13
11 13 15 3 21 -7 5 -10 9 -5 10 4 1 12 3 17 4 6 1 15 3 21 4 6 0 8 8 5 17 -4
11 10 34 41 68 49 54 138 186 125 186 -4 0 -25 -29 -47 -65 -22 -35 -43 -64
-47 -65 -13 0 -22 24 -10 28 7 2 12 10 12 17 0 8 8 19 18 24 9 6 13 11 9 11
-4 0 10 26 32 58 49 73 170 311 161 317 -4 2 -24 -34 -45 -80z m-185 -386 c0
-5 -21 -32 -46 -59 -26 -28 -41 -50 -35 -50 7 0 9 -5 6 -11 -10 -15 -16 -6
-20 28 -3 28 27 73 48 73 6 0 2 -10 -9 -22 l-19 -23 22 19 c13 10 20 23 17 28
-7 12 16 39 27 32 5 -3 9 -10 9 -15z m-160 -183 c0 -2 -7 -7 -16 -10 -8 -3
-12 -2 -9 4 6 10 25 14 25 6z m-130 -89 c0 -2 -12 -14 -27 -28 l-28 -24 24 28
c23 25 31 32 31 24z"/>
<path d="M1135 1814 c-20 -15 -20 -16 4 -12 14 2 26 9 29 16 5 16 -9 15 -33
-4z"/>
<path d="M4113 1784 c-12 -24 -19 -44 -15 -44 8 0 45 80 40 86 -2 1 -13 -17
-25 -42z"/>
<path d="M4281 1802 c-1 -16 -92 -205 -121 -252 l-22 -35 23 25 c30 33 132
247 126 262 -4 10 -6 10 -6 0z"/>
<path d="M1160 1785 c-24 -14 -24 -14 -3 -15 12 0 25 5 28 11 11 17 2 18 -25
4z"/>
<path d="M1358 1793 c7 -3 16 -2 19 1 4 3 -2 6 -13 5 -11 0 -14 -3 -6 -6z"/>
<path d="M4446 1710 l-46 -90 0 -404 c0 -354 -2 -407 -16 -420 -14 -14 -75
-16 -527 -16 -551 1 -551 1 -547 52 3 38 1 50 -10 43 -15 -9 -12 -48 6 -73 8
-12 12 -22 7 -23 -4 0 2 -4 15 -9 20 -9 459 -16 492 -8 11 2 17 -11 21 -52 l6
-55 1 53 c2 57 -5 52 80 55 l27 1 5 -124 6 -125 2 122 2 122 201 3 201 3 25
30 26 30 -7 386 -7 386 27 59 c16 32 30 61 34 64 15 14 38 70 30 75 -5 3 -29
-35 -54 -85z"/>
<path d="M3316 1777 c3 -10 9 -15 12 -12 3 3 0 11 -7 18 -10 9 -11 8 -5 -6z"/>
<path d="M810 1776 c0 -42 253 -416 281 -416 5 0 -27 47 -71 104 -44 57 -80
106 -80 110 0 3 -15 26 -32 52 -58 82 -77 119 -72 137 4 11 0 17 -10 17 -9 0
-16 -2 -16 -4z"/>
<path d="M1322 1731 c18 -27 35 -47 37 -45 3 2 -4 17 -15 32 -11 15 -23 35
-27 45 -3 9 -11 17 -17 17 -5 0 4 -22 22 -49z"/>
<path d="M3760 1758 c-12 -22 -12 -22 6 -6 10 10 15 20 12 24 -4 3 -12 -5 -18
-18z"/>
<path d="M1184 1755 c-18 -14 -18 -14 9 -15 15 0 27 4 27 9 0 18 -17 20 -36 6z"/>
<path d="M4761 1754 c0 -11 3 -14 6 -6 3 7 2 16 -1 19 -3 4 -6 -2 -5 -13z"/>
<path d="M858 1741 c8 -4 14 -12 15 -17 2 -20 40 -74 48 -68 5 3 8 2 7 -3 -2
-4 12 -35 31 -67 22 -40 35 -55 41 -46 6 10 9 10 16 -1 4 -7 3 -14 -4 -17 -6
-2 7 -28 31 -62 30 -42 47 -58 59 -54 9 3 19 0 23 -5 3 -7 0 -8 -9 -5 -9 3
-16 1 -16 -4 0 -18 17 -22 29 -8 10 12 -3 33 -64 108 -42 51 -81 93 -87 93 -6
0 -13 6 -16 14 -3 10 0 11 9 5 10 -6 10 -2 -2 16 -9 14 -22 35 -29 47 -8 11
-20 19 -27 16 -7 -3 -13 2 -13 10 0 8 8 18 17 21 22 9 6 22 -37 30 -21 3 -30
3 -22 -3z m142 -182 c0 -6 -4 -7 -10 -4 -5 3 -10 11 -10 16 0 6 5 7 10 4 6 -3
10 -11 10 -16z m81 -107 c11 -13 18 -27 15 -30 -7 -6 -28 20 -59 72 l-19 31
22 -25 c12 -14 31 -36 41 -48z"/>
<path d="M978 1732 c-16 -10 -28 -20 -28 -24 0 -11 59 15 64 29 7 17 -2 15
-36 -5z"/>
<path d="M1639 1737 c6 -8 7 -18 3 -22 -4 -5 -2 -5 5 -1 7 3 14 -2 18 -14 3
-11 13 -20 21 -20 8 0 14 -4 14 -9 0 -5 9 -13 20 -16 11 -4 18 -10 15 -15 -5
-8 42 -44 60 -45 6 -1 9 -6 8 -13 -3 -11 9 -16 29 -13 4 0 4 -7 1 -16 -4 -11
-3 -14 5 -9 7 4 12 2 12 -4 0 -7 6 -10 13 -7 7 3 19 -4 25 -14 7 -10 16 -18
21 -16 11 3 123 -54 133 -68 5 -7 8 -7 8 0 0 6 7 2 14 -8 10 -12 16 -15 21 -7
9 14 11 12 -55 45 -94 47 -216 131 -304 210 -78 69 -115 95 -87 62z"/>
<path d="M3991 1704 c-6 -14 -8 -30 -4 -36 4 -8 0 -9 -12 -4 -15 5 -16 4 -6
-8 10 -11 9 -19 -1 -35 -15 -24 -30 -28 -22 -6 4 8 10 15 16 15 5 0 6 5 3 11
-11 17 -37 -28 -30 -51 5 -16 3 -19 -11 -13 -13 5 -15 2 -9 -18 4 -17 3 -20
-3 -10 -6 8 -15 10 -23 6 -9 -6 -6 -11 11 -17 12 -5 24 -7 25 -6 0 2 18 27 39
55 21 29 35 57 31 63 -3 5 -2 10 4 10 9 0 41 50 41 62 0 2 -8 4 -19 5 -11 1
-23 -9 -30 -23z m19 -24 c0 -5 -4 -10 -10 -10 -5 0 -10 5 -10 10 0 6 5 10 10
10 6 0 10 -4 10 -10z"/>
<path d="M4013 1619 c-75 -115 -83 -140 -10 -37 50 72 90 139 85 143 -2 1 -35
-46 -75 -106z"/>
<path d="M4762 1710 c0 -14 2 -19 5 -12 2 6 2 18 0 25 -3 6 -5 1 -5 -13z"/>
<path d="M1040 1710 c0 -5 4 -10 9 -10 6 0 13 5 16 10 3 6 -1 10 -9 10 -9 0
-16 -4 -16 -10z"/>
<path d="M1460 1714 c0 -6 21 -30 48 -54 l47 -45 -45 50 c-25 27 -46 52 -47
54 -2 2 -3 0 -3 -5z"/>
<path d="M3233 1708 c-13 -6 -23 -15 -23 -20 0 -5 11 -1 25 8 37 24 35 30 -2
12z"/>
<path d="M3701 1655 c-23 -35 -41 -68 -41 -72 0 -12 17 10 39 50 12 21 29 49
37 63 9 13 14 24 11 24 -3 0 -24 -29 -46 -65z"/>
<path d="M1000 1695 c-7 -8 -22 -16 -34 -16 -16 -1 -17 -2 -4 -6 21 -5 75 22
61 30 -6 4 -16 0 -23 -8z"/>
<path d="M3639 1668 c-19 -24 -26 -37 -16 -29 20 16 61 71 54 71 -3 0 -20 -19
-38 -42z"/>
<path d="M1040 1669 c-19 -10 -28 -18 -19 -19 8 0 19 4 25 9 5 5 18 11 29 13
11 2 15 6 10 10 -6 3 -26 -2 -45 -13z"/>
<path d="M1609 1663 c16 -31 58 -65 66 -54 3 6 -1 11 -10 11 -9 0 -24 13 -33
30 -18 31 -40 43 -23 13z"/>
<path d="M1890 1665 c7 -8 17 -15 22 -15 5 0 26 -11 46 -25 20 -14 41 -25 47
-25 5 0 -18 18 -53 40 -68 43 -82 49 -62 25z"/>
<path d="M2422 1675 c4 -5 25 -11 45 -14 35 -6 38 -9 35 -35 -4 -28 -2 -29 28
-22 18 3 43 6 55 6 16 0 24 7 27 25 6 30 -11 34 -19 5 -7 -27 -58 -28 -72 -1
-6 10 -7 21 -4 25 3 3 -3 6 -14 6 -11 0 -36 3 -54 6 -19 4 -31 3 -27 -1z"/>
<path d="M4260 1659 c-7 -11 -10 -23 -7 -25 2 -2 9 7 15 21 14 30 7 33 -8 4z"/>
<path d="M1370 1661 c0 -6 4 -13 10 -16 6 -3 7 1 4 9 -7 18 -14 21 -14 7z"/>
<path d="M3498 1615 c-32 -25 -58 -48 -58 -51 0 -6 40 23 90 65 53 46 32 37
-32 -14z"/>
<path d="M1075 1640 c-3 -5 1 -10 9 -10 8 0 18 5 21 10 3 6 -1 10 -9 10 -8 0
-18 -4 -21 -10z"/>
<path d="M3840 1620 c-6 -11 -8 -20 -6 -20 3 0 10 9 16 20 6 11 8 20 6 20 -3
0 -10 -9 -16 -20z"/>
<path d="M1024 1615 c-10 -8 -14 -15 -8 -15 5 0 19 7 30 15 10 8 14 15 8 15
-5 0 -19 -7 -30 -15z"/>
<path d="M3280 1559 c-66 -60 -74 -76 -37 -70 5 1 6 -3 2 -9 -15 -24 8 -29 38
-8 66 46 116 92 110 101 -3 5 -10 2 -15 -8 -9 -15 -11 -15 -25 5 -12 17 -12
24 -2 36 6 8 10 16 8 18 -2 2 -38 -27 -79 -65z m54 -6 c-4 -16 -14 -35 -22
-43 -14 -13 -15 -13 -3 2 13 17 -1 34 -19 23 -5 -3 -10 -3 -10 2 0 6 42 37 58
42 1 1 -1 -11 -4 -26z m-46 -50 c-4 -24 -23 -27 -25 -3 -1 12 4 20 13 20 9 0
14 -7 12 -17z"/>
<path d="M1105 1610 c3 -5 8 -10 11 -10 2 0 4 5 4 10 0 6 -5 10 -11 10 -5 0
-7 -4 -4 -10z"/>
<path d="M1685 1591 c-6 -11 9 -23 19 -14 9 9 7 23 -3 23 -6 0 -12 -4 -16 -9z"/>
<path d="M3545 1584 c-11 -8 -18 -18 -17 -22 16 -32 24 -42 33 -42 6 0 8 7 5
15 -3 8 -9 22 -13 32 -4 10 -2 14 4 10 5 -3 10 0 10 8 0 8 -1 15 -1 15 -1 0
-10 -7 -21 -16z"/>
<path d="M1145 1580 c-16 -4 -23 -8 -14 -9 9 0 24 -10 34 -21 10 -11 23 -20
29 -20 6 0 3 7 -8 15 -11 8 -16 21 -13 30 4 8 5 14 4 14 -1 -1 -15 -5 -32 -9z"/>
<path d="M2017 1565 c-10 -14 -13 -25 -7 -25 6 0 13 7 16 15 4 8 13 15 21 15
8 0 11 5 8 10 -9 15 -18 12 -38 -15z"/>
<path d="M3717 1483 c-58 -60 -136 -130 -171 -158 -36 -27 -65 -54 -66 -58 -1
-22 253 207 334 301 44 51 4 15 -97 -85z"/>
<path d="M4086 1573 c-6 -14 -5 -15 5 -6 7 7 10 15 7 18 -3 3 -9 -2 -12 -12z"/>
<path d="M1038 1573 c6 -2 18 -2 25 0 6 3 1 5 -13 5 -14 0 -19 -2 -12 -5z"/>
<path d="M1716 1571 c-7 -10 22 -37 30 -28 9 8 -3 37 -15 37 -5 0 -12 -4 -15
-9z"/>
<path d="M2140 1570 c-12 -8 -10 -10 8 -10 13 0 20 4 17 10 -7 12 -6 12 -25 0z"/>
<path d="M3643 1558 c-23 -30 -24 -41 -2 -21 12 12 20 25 17 28 -3 3 -10 0
-15 -7z"/>
<path d="M4203 1558 c-15 -20 -25 -38 -20 -38 3 0 12 11 21 25 17 26 16 35 -1
13z"/>
<path d="M1065 1540 c-3 -5 1 -10 9 -10 8 0 18 5 21 10 3 6 -1 10 -9 10 -8 0
-18 -4 -21 -10z"/>
<path d="M1213 1535 c0 -8 4 -12 9 -9 4 3 8 9 8 15 0 5 -4 9 -8 9 -5 0 -9 -7
-9 -15z"/>
<path d="M1771 1536 c-12 -14 -14 -12 140 -108 59 -36 71 -36 29 2 -18 16 -37
27 -41 24 -5 -3 -9 0 -9 6 0 6 -4 9 -9 5 -5 -3 -12 4 -16 15 -5 15 -12 19 -27
14 -17 -5 -19 -3 -13 18 6 19 5 21 -6 11 -19 -19 -32 -16 -26 7 6 23 -5 26
-22 6z"/>
<path d="M3397 1525 c-15 -14 -24 -25 -19 -25 5 0 19 11 32 25 30 32 23 32
-13 0z"/>
<path d="M4060 1535 c-7 -9 -10 -18 -7 -21 3 -3 10 4 17 15 13 25 8 27 -10 6z"/>
<path d="M3485 1530 c-3 -5 -1 -10 4 -10 6 0 11 5 11 10 0 6 -2 10 -4 10 -3 0
-8 -4 -11 -10z"/>
<path d="M3843 1524 c-15 -16 -16 -24 -4 -24 8 0 24 30 19 35 -2 2 -9 -3 -15
-11z"/>
<path d="M2250 1509 c41 -10 107 -21 145 -23 39 -3 57 -3 40 0 -16 3 -78 14
-136 24 -130 24 -148 24 -49 -1z"/>
<path d="M1105 1500 c-3 -5 -1 -10 4 -10 6 0 11 5 11 10 0 6 -2 10 -4 10 -3 0
-8 -4 -11 -10z"/>
<path d="M3555 1484 c-16 -13 -24 -24 -17 -24 12 0 56 39 50 45 -1 2 -16 -8
-33 -21z"/>
<path d="M3878 1498 c0 -7 -2 -17 -2 -23 -4 -21 -31 -61 -74 -107 -25 -27 -42
-51 -39 -55 4 -3 22 11 40 32 19 21 37 34 40 29 3 -6 -9 -25 -27 -44 -18 -19
-40 -47 -50 -62 -10 -15 -23 -25 -29 -21 -5 3 -7 1 -4 -4 6 -10 -18 -38 -32
-38 -3 0 -5 -3 -4 -6 1 -3 -12 -19 -30 -36 -44 -40 -223 -180 -239 -186 -7 -2
-11 -7 -8 -10 6 -7 130 84 219 162 64 55 301 318 301 333 0 20 -18 4 -48 -43
-23 -35 -37 -48 -44 -41 -7 7 3 27 30 63 29 38 37 56 29 61 -17 11 -27 10 -29
-4z"/>
<path d="M2478 1493 c6 -2 18 -2 25 0 6 3 1 5 -13 5 -14 0 -19 -2 -12 -5z"/>
<path d="M2778 1493 c7 -3 16 -2 19 1 4 3 -2 6 -13 5 -11 0 -14 -3 -6 -6z"/>
<path d="M1235 1470 c-10 -11 -14 -20 -9 -20 12 1 44 25 44 34 0 12 -17 6 -35
-14z"/>
<path d="M2683 1483 c15 -2 37 -2 50 0 12 2 0 4 -28 4 -27 0 -38 -2 -22 -4z"/>
<path d="M2513 1473 c26 -2 68 -2 95 0 26 2 4 3 -48 3 -52 0 -74 -1 -47 -3z"/>
<path d="M3179 1473 c-1 -5 -1 -12 0 -16 1 -5 -3 -6 -8 -3 -5 3 -42 -12 -83
-33 -63 -34 -179 -75 -270 -95 -19 -4 -26 -11 -22 -21 4 -8 1 -15 -5 -15 -6 0
-11 8 -12 18 -1 11 -4 9 -9 -8 -13 -42 -12 -60 5 -53 9 3 14 10 12 16 -6 19
43 55 85 62 53 9 167 49 213 75 33 19 41 16 36 -13 -1 -5 3 -5 9 -2 6 4 9 13
6 20 -2 7 1 16 9 19 8 3 15 1 17 -5 4 -13 68 13 68 28 0 18 -10 16 -26 -4 -12
-16 -13 -15 -8 10 2 15 0 27 -6 27 -5 0 -11 -3 -11 -7z"/>
<path d="M3415 1447 c-22 -18 -52 -40 -65 -50 -24 -17 -24 -17 8 0 31 17 113
83 102 82 -3 0 -23 -15 -45 -32z"/>
<path d="M3594 1464 c6 -16 -25 -49 -101 -107 -48 -36 -59 -60 -13 -27 43 30
140 121 140 130 0 4 -7 11 -16 14 -12 5 -15 2 -10 -10z"/>
<path d="M1270 1445 c-17 -21 -9 -27 13 -10 10 7 14 16 9 19 -5 3 -15 -1 -22
-9z"/>
<path d="M3975 1439 c-4 -6 -5 -12 -2 -15 2 -3 7 2 10 11 7 17 1 20 -8 4z"/>
<path d="M4821 1434 c0 -11 3 -14 6 -6 3 7 2 16 -1 19 -3 4 -6 -2 -5 -13z"/>
<path d="M1861 1424 c0 -11 3 -14 6 -6 3 7 2 16 -1 19 -3 4 -6 -2 -5 -13z"/>
<path d="M3750 1385 c-30 -30 -51 -55 -46 -55 8 0 71 61 95 93 25 32 5 17 -49
-38z"/>
<path d="M1280 1410 c-10 -19 -10 -20 9 -8 22 13 28 28 11 28 -5 0 -14 -9 -20
-20z"/>
<path d="M1527 1423 c-4 -3 -7 -11 -7 -17 0 -6 5 -5 12 2 6 6 9 14 7 17 -3 3
-9 2 -12 -2z"/>
<path d="M790 1360 c0 -46 4 -62 16 -67 8 -3 20 -1 26 5 8 8 5 9 -11 5 -16 -4
-20 -2 -15 10 3 9 10 15 16 14 14 -3 17 23 7 48 -7 17 -8 16 -8 -8 -1 -16 -5
-26 -9 -23 -12 7 -6 61 7 59 6 -2 11 2 11 7 0 6 -9 10 -20 10 -18 0 -20 -7
-20 -60z"/>
<path d="M2865 1410 c-13 -6 -15 -9 -5 -9 8 0 22 4 30 9 18 12 2 12 -25 0z"/>
<path d="M1312 1390 c-7 -11 -8 -20 -3 -20 6 0 13 5 16 10 4 6 12 7 18 3 7 -4
6 0 -2 10 -16 21 -14 21 -29 -3z"/>
<path d="M1985 1400 c-3 -5 -1 -10 4 -10 6 0 11 5 11 10 0 6 -2 10 -4 10 -3 0
-8 -4 -11 -10z"/>
<path d="M3194 1398 c-10 -16 2 -18 21 -5 16 12 16 14 1 14 -9 0 -19 -4 -22
-9z"/>
<path d="M1925 1390 c-3 -5 -1 -10 4 -10 6 0 11 5 11 10 0 6 -2 10 -4 10 -3 0
-8 -4 -11 -10z"/>
<path d="M2740 1385 c-45 -9 -54 -13 -30 -13 19 0 58 6 85 13 63 16 30 16 -55
0z"/>
<path d="M1500 1375 c-7 -9 -11 -18 -8 -20 3 -3 11 1 18 10 7 9 11 18 8 20 -3
3 -11 -1 -18 -10z"/>
<path d="M2097 1383 c-9 -9 -9 -53 1 -53 4 0 7 14 8 30 1 32 1 33 -9 23z"/>
<path d="M2190 1374 c39 -18 132 -45 137 -40 4 4 -152 56 -164 56 -4 -1 8 -8
27 -16z"/>
<path d="M1130 1363 c-14 -9 -27 -18 -29 -19 -1 -1 0 -7 4 -13 4 -7 17 -3 36
11 46 34 36 53 -11 21z"/>
<path d="M2035 1365 c30 -13 50 -11 41 4 -3 4 -20 8 -38 8 l-33 1 30 -13z"/>
<path d="M2413 1373 c9 -2 23 -2 30 0 6 3 -1 5 -18 5 -16 0 -22 -2 -12 -5z"/>
<path d="M3222 1329 c-51 -27 -88 -49 -82 -49 14 0 139 64 165 84 31 24 17 18
-83 -35z"/>
<path d="M1340 1355 c-10 -12 -10 -18 -2 -26 7 -5 10 -6 7 -2 -3 3 2 15 12 25
9 10 11 18 6 18 -6 0 -16 -7 -23 -15z"/>
<path d="M1715 1361 c6 -11 4 -13 -11 -8 -15 6 -14 3 5 -13 13 -11 21 -23 18
-27 -4 -3 -13 0 -22 7 -13 11 -15 9 -14 -11 0 -13 3 -18 6 -11 7 18 23 4 23
-21 1 -20 2 -20 11 -4 5 9 7 23 3 29 -5 7 6 4 23 -7 17 -11 32 -23 32 -27 2
-21 0 -28 -10 -28 -5 0 -8 3 -6 8 3 4 -1 13 -9 20 -12 11 -15 10 -20 -3 -4 -9
-4 -19 0 -22 3 -4 6 0 6 8 0 8 8 1 19 -14 l18 -28 13 32 c12 27 11 32 -3 40
-27 16 -78 61 -73 66 5 5 86 -46 103 -65 6 -8 14 -9 17 -4 3 6 -15 23 -41 38
-27 15 -59 34 -73 43 -19 13 -22 13 -15 2z"/>
<path d="M2308 1363 c7 -3 16 -2 19 1 4 3 -2 6 -13 5 -11 0 -14 -3 -6 -6z"/>
<path d="M2543 1363 c15 -2 39 -2 55 0 15 2 2 4 -28 4 -30 0 -43 -2 -27 -4z"/>
<path d="M3110 1354 l-25 -15 25 7 c14 3 32 10 40 15 13 7 13 8 0 8 -8 0 -26
-6 -40 -15z"/>
<path d="M3419 1353 c-13 -17 -13 -17 6 -3 11 8 22 16 24 17 2 2 0 3 -6 3 -6
0 -17 -8 -24 -17z"/>
<path d="M1182 1348 c5 -15 28 -23 28 -10 0 5 -7 13 -16 16 -10 4 -14 1 -12
-6z"/>
<path d="M2358 1353 c12 -2 32 -2 45 0 12 2 2 4 -23 4 -25 0 -35 -2 -22 -4z"/>
<path d="M2748 1353 c7 -3 16 -2 19 1 4 3 -2 6 -13 5 -11 0 -14 -3 -6 -6z"/>
<path d="M678 1343 c7 -3 16 -2 19 1 4 3 -2 6 -13 5 -11 0 -14 -3 -6 -6z"/>
<path d="M1370 1335 c-7 -9 -11 -18 -8 -20 3 -3 11 1 18 10 7 9 11 18 8 20 -3
3 -11 -1 -18 -10z"/>
<path d="M1657 1334 c6 -15 23 -19 23 -5 0 5 -7 11 -14 14 -10 4 -13 1 -9 -9z"/>
<path d="M2508 1343 c39 -2 105 -2 145 0 39 1 7 3 -73 3 -80 0 -112 -2 -72 -3z"/>
<path d="M463 1333 c9 -2 23 -2 30 0 6 3 -1 5 -18 5 -16 0 -22 -2 -12 -5z"/>
<path d="M518 1333 c7 -3 16 -2 19 1 4 3 -2 6 -13 5 -11 0 -14 -3 -6 -6z"/>
<path d="M2354 1314 c13 -29 26 -31 26 -5 0 10 -8 21 -18 23 -17 5 -17 2 -8
-18z"/>
<path d="M3295 1289 c-49 -27 -87 -48 -82 -49 11 0 187 89 187 95 0 9 -14 3
-105 -46z"/>
<path d="M1385 1310 c-20 -22 -8 -28 14 -7 11 10 11 8 1 -13 l-13 -25 22 19
c12 11 18 22 14 25 -5 4 -11 10 -14 14 -3 4 -14 -2 -24 -13z"/>
<path d="M1575 1319 c-4 -6 -5 -12 -4 -13 2 -2 27 -18 54 -36 28 -19 52 -37
53 -42 2 -4 10 -8 18 -8 9 0 12 -5 8 -12 -4 -6 -3 -8 3 -5 6 4 21 -3 34 -14
31 -27 119 -72 127 -65 3 3 0 6 -7 6 -7 0 -9 5 -6 10 4 6 12 7 18 4 8 -4 7 -2
-1 7 -10 11 -14 11 -21 1 -6 -10 -16 -9 -44 8 -21 12 -37 25 -37 29 0 4 -15
15 -32 25 -96 55 -147 92 -143 104 5 15 -11 16 -20 1z"/>
<path d="M2087 1313 c-10 -10 -8 -23 4 -23 5 0 8 4 5 9 -4 5 0 12 6 14 7 3 8
6 2 6 -6 1 -14 -2 -17 -6z"/>
<path d="M3400 1289 c-75 -65 -376 -188 -530 -218 -58 -11 -121 -22 -140 -24
-35 -4 -35 -4 5 -5 61 -3 191 23 285 57 206 73 417 178 417 207 0 8 -1 14 -1
14 -1 -1 -17 -14 -36 -31z"/>
<path d="M3670 1310 c-9 -6 -10 -10 -3 -10 6 0 15 5 18 10 8 12 4 12 -15 0z"/>
<path d="M1240 1298 c0 -6 10 -19 21 -29 14 -12 19 -24 15 -36 -7 -17 -6 -17
9 -2 15 15 14 18 -14 47 -17 17 -31 26 -31 20z"/>
<path d="M2957 1299 c-9 -5 -22 -7 -27 -4 -6 3 -10 1 -10 -4 0 -15 23 -14 56
4 16 8 22 15 14 15 -8 0 -23 -5 -33 -11z"/>
<path d="M3734 1295 c5 -13 -5 -20 -26 -16 -5 0 -8 -6 -8 -15 0 -10 -5 -14
-15 -10 -11 4 -15 0 -13 -12 2 -10 -3 -16 -10 -14 -8 1 -11 -2 -6 -9 5 -9 2
-10 -9 -6 -12 4 -14 2 -10 -10 5 -12 3 -14 -7 -8 -9 6 -11 4 -5 -5 6 -10 4
-12 -8 -7 -9 3 -19 2 -22 -4 -4 -5 -10 -7 -15 -4 -4 3 -11 -2 -14 -11 -3 -8
-10 -12 -16 -9 -5 3 -10 2 -10 -3 0 -5 -10 -12 -22 -15 -17 -5 -19 -9 -10 -20
14 -17 6 -28 -14 -20 -8 3 -14 1 -12 -5 2 -5 -1 -9 -7 -9 -5 1 -9 8 -8 15 1
12 -11 4 -72 -52 -16 -14 18 5 37 22 9 7 22 11 28 7 7 -4 -4 -15 -27 -27 -47
-25 -46 -24 -38 -38 4 -7 10 -8 14 -3 3 5 38 31 76 58 72 51 173 132 212 171
12 12 32 29 44 37 12 9 18 20 14 26 -10 17 -28 13 -21 -4z m-124 -119 c0 -2
-18 -19 -41 -37 -30 -24 -43 -29 -52 -20 -8 8 -7 11 4 11 8 0 30 11 49 25 38
26 40 27 40 21z"/>
<path d="M2248 1293 c7 -3 16 -2 19 1 4 3 -2 6 -13 5 -11 0 -14 -3 -6 -6z"/>
<path d="M1431 1268 c-11 -30 -4 -36 14 -12 17 23 19 34 5 34 -6 0 -14 -10
-19 -22z"/>
<path d="M1841 1240 c-15 -22 -32 -36 -37 -32 -5 4 -3 0 4 -9 6 -9 9 -18 6
-21 -2 -3 1 -8 9 -11 10 -4 13 1 9 19 -8 46 12 54 68 27 71 -34 277 -101 330
-107 32 -4 20 1 -40 18 -108 30 -210 67 -280 99 -50 24 -52 27 -30 35 19 7 21
10 6 15 -11 5 -24 -5 -45 -33z"/>
<path d="M2150 1276 c0 -2 7 -7 16 -10 8 -3 12 -2 9 4 -6 10 -25 14 -25 6z"/>
<path d="M2352 1267 c-9 -11 -10 -17 -2 -22 15 -9 23 -1 18 21 -3 15 -4 16
-16 1z"/>
<path d="M2875 1270 c-8 -13 5 -13 25 0 13 8 13 10 -2 10 -9 0 -20 -4 -23 -10z"/>
<path d="M2248 1263 c6 -2 18 -2 25 0 6 3 1 5 -13 5 -14 0 -19 -2 -12 -5z"/>
<path d="M2819 1254 c-8 -9 -5 -11 11 -7 25 7 35 20 14 20 -8 0 -19 -6 -25
-13z"/>
<path d="M3426 1249 c5 -22 5 -23 -9 -6 -9 11 -18 14 -21 8 -4 -5 -2 -13 4
-16 16 -10 -3 -29 -57 -60 -24 -15 -42 -29 -39 -32 4 -4 106 62 145 94 3 2 -3
11 -12 20 -15 15 -16 14 -11 -8z"/>
<path d="M1910 1255 c0 -20 171 -80 302 -105 55 -11 104 -22 108 -25 5 -3 11
-2 14 3 3 5 -39 17 -92 26 -107 20 -239 60 -290 88 -34 19 -42 21 -42 13z"/>
<path d="M1462 1230 c-7 -11 -8 -20 -2 -20 5 0 14 9 20 20 6 11 7 20 3 20 -5
0 -14 -9 -21 -20z"/>
<path d="M2158 1243 c7 -3 16 -2 19 1 4 3 -2 6 -13 5 -11 0 -14 -3 -6 -6z"/>
<path d="M2985 1229 c-54 -22 -75 -36 -35 -24 37 12 107 44 95 44 -5 0 -32 -9
-60 -20z"/>
<path d="M4822 1225 c0 -16 2 -22 5 -12 2 9 2 23 0 30 -3 6 -5 -1 -5 -18z"/>
<path d="M1235 1209 c45 -50 193 -199 164 -165 -13 16 -37 44 -54 61 -16 17
-49 52 -72 77 -23 25 -47 49 -55 53 -7 5 1 -7 17 -26z"/>
<path d="M1303 1224 c-3 -8 0 -21 6 -27 9 -9 11 -7 5 8 -7 19 -6 19 12 3 18
-17 18 -18 -1 -34 -18 -15 -17 -15 8 0 27 17 36 10 17 -12 -5 -7 -2 -5 7 3 16
14 15 17 -15 45 -27 24 -34 27 -39 14z"/>
<path d="M2198 1233 c7 -3 16 -2 19 1 4 3 -2 6 -13 5 -11 0 -14 -3 -6 -6z"/>
<path d="M3065 1190 c-66 -27 -127 -50 -135 -51 -9 0 -11 -2 -3 -5 11 -5 273
93 273 102 0 8 -16 2 -135 -46z"/>
<path d="M3580 1230 c-9 -6 -10 -10 -3 -10 6 0 15 5 18 10 8 12 4 12 -15 0z"/>
<path d="M1496 1214 c-9 -24 -7 -28 9 -14 17 14 20 30 6 30 -5 0 -12 -7 -15
-16z"/>
<path d="M2238 1223 c7 -3 16 -2 19 1 4 3 -2 6 -13 5 -11 0 -14 -3 -6 -6z"/>
<path d="M3330 1207 c-19 -13 -51 -30 -70 -37 -19 -8 -39 -20 -43 -27 -5 -7
-13 -10 -19 -7 -7 4 -8 2 -4 -4 4 -7 11 -12 16 -12 11 0 160 99 160 106 0 7
-4 5 -40 -19z"/>
<path d="M2278 1213 c7 -3 16 -2 19 1 4 3 -2 6 -13 5 -11 0 -14 -3 -6 -6z"/>
<path d="M1526 1193 c-11 -27 11 -40 32 -19 16 18 16 18 -5 7 -15 -8 -23 -8
-23 -1 0 5 5 10 10 10 6 0 10 5 10 10 0 16 -17 11 -24 -7z"/>
<path d="M2330 1200 c25 -8 117 -13 109 -6 -2 2 -33 6 -69 9 -39 3 -55 2 -40
-3z"/>
<path d="M2708 1193 c7 -3 16 -2 19 1 4 3 -2 6 -13 5 -11 0 -14 -3 -6 -6z"/>
<path d="M1840 1185 c0 -2 20 -14 45 -25 25 -11 45 -27 45 -35 0 -8 5 -15 11
-15 5 0 8 4 5 9 -4 5 -1 11 6 13 7 3 -14 17 -46 31 -61 28 -66 30 -66 22z"/>
<path d="M2468 1183 c12 -2 32 -2 45 0 12 2 2 4 -23 4 -25 0 -35 -2 -22 -4z"/>
<path d="M2542 1150 c-2 -31 1 -40 14 -40 13 0 15 7 12 35 -4 33 -2 34 32 38
31 3 30 4 -11 5 l-45 2 -2 -40z"/>
<path d="M1575 1160 c-10 -11 -16 -22 -13 -25 3 -3 13 4 23 15 10 11 16 22 13
25 -3 3 -13 -4 -23 -15z"/>
<path d="M1376 1154 c-3 -8 -2 -12 4 -9 13 8 49 -25 43 -40 -2 -7 0 -16 6 -20
7 -4 8 1 4 12 -6 16 -5 17 11 4 17 -14 17 -16 0 -28 -14 -10 -21 -10 -33 0
-14 11 -15 10 -1 -8 8 -11 15 -21 16 -23 0 -1 13 7 28 19 l27 21 -23 25 c-13
14 -35 33 -49 44 -24 16 -28 17 -33 3z"/>
<path d="M1609 1157 c-3 -18 -6 -24 -18 -45 -19 -36 -6 -37 19 -2 17 23 20 34
11 43 -6 6 -12 8 -12 4z"/>
<path d="M2788 1153 c7 -3 16 -2 19 1 4 3 -2 6 -13 5 -11 0 -14 -3 -6 -6z"/>
<path d="M930 1137 c-105 -36 -104 -188 3 -240 33 -17 42 -17 79 -5 85 26 117
132 61 199 -24 28 -78 60 -100 58 -4 0 -24 -5 -43 -12z m33 -19 c-41 -9 -93
-55 -93 -81 0 -7 9 2 19 19 19 31 50 48 108 58 28 5 34 1 52 -28 31 -49 28
-101 -8 -137 -40 -40 -79 -39 -127 4 -37 31 -37 31 -19 4 34 -52 93 -63 148
-26 l32 21 -28 -26 c-19 -17 -39 -26 -62 -26 -75 0 -120 47 -120 123 0 42 4
52 33 78 24 22 42 29 70 28 l37 -1 -42 -10z"/>
<path d="M931 1052 c-6 -12 -11 -27 -11 -34 0 -7 7 0 15 16 9 16 13 31 11 33
-2 3 -9 -4 -15 -15z"/>
<path d="M1004 1051 c10 -11 15 -25 10 -32 -4 -8 -3 -10 4 -5 17 10 15 43 -4
50 -26 10 -28 7 -10 -13z"/>
<path d="M977 1030 c3 -11 7 -20 9 -20 2 0 4 9 4 20 0 11 -4 20 -9 20 -5 0 -7
-9 -4 -20z"/>
<path d="M4821 1134 c0 -11 3 -14 6 -6 3 7 2 16 -1 19 -3 4 -6 -2 -5 -13z"/>
<path d="M1631 1110 c-5 -16 -8 -30 -6 -30 2 0 10 14 19 30 8 17 11 30 6 30
-4 0 -13 -13 -19 -30z"/>
<path d="M1887 1125 c-4 -8 -2 -17 3 -20 6 -4 10 -4 10 -1 0 2 3 11 6 20 3 9
2 16 -4 16 -5 0 -12 -7 -15 -15z"/>
<path d="M2628 1133 c12 -2 32 -2 45 0 12 2 2 4 -23 4 -25 0 -35 -2 -22 -4z"/>
<path d="M1964 1105 c-3 -14 -11 -25 -18 -25 -6 0 -4 -5 4 -10 16 -10 22 -3
34 38 5 13 3 22 -3 22 -6 0 -13 -11 -17 -25z"/>
<path d="M2840 1115 c-25 -7 -36 -13 -25 -13 11 0 38 5 60 13 52 17 24 17 -35
0z"/>
<path d="M3154 1115 c-10 -8 -30 -15 -42 -15 -15 0 -26 -7 -29 -20 -6 -22 -19
-26 -25 -8 -3 8 -12 9 -36 0 -18 -6 -39 -9 -47 -6 -10 4 -15 0 -15 -11 0 -13
5 -15 23 -8 12 4 41 7 64 7 34 -1 43 2 48 20 6 17 8 18 12 4 3 -14 9 -15 35
-6 22 8 26 13 16 19 -10 7 -9 9 5 9 9 0 17 7 17 15 0 19 -1 19 -26 0z"/>
<path d="M1400 1111 c0 -7 -5 -9 -12 -5 -7 5 -8 3 -3 -5 5 -9 10 -10 18 -2 6
6 8 14 4 18 -4 3 -7 1 -7 -6z"/>
<path d="M1639 1070 c-15 -28 -23 -50 -18 -50 5 0 18 18 29 40 22 44 41 53 33
18 -4 -22 -4 -23 11 -4 22 27 20 13 -4 -34 -11 -22 -20 -43 -20 -47 0 -15 23
17 40 55 l18 39 -28 17 c-16 9 -30 16 -32 16 -1 0 -15 -23 -29 -50z"/>
<path d="M2004 1095 c-1 -14 2 -25 7 -25 5 0 9 4 9 9 0 5 3 16 6 25 4 10 1 16
-7 16 -8 0 -15 -11 -15 -25z"/>
<path d="M3220 1110 c-13 -8 -13 -10 2 -10 9 0 20 5 23 10 8 13 -5 13 -25 0z"/>
<path d="M3335 1110 c-3 -5 -1 -10 4 -10 6 0 11 5 11 10 0 6 -2 10 -4 10 -3 0
-8 -4 -11 -10z"/>
<path d="M2037 1090 c-3 -11 -1 -23 4 -26 5 -3 9 2 9 10 0 9 7 16 16 16 11 0
15 -6 11 -20 -3 -11 -2 -20 3 -20 4 0 10 9 13 21 4 15 -1 22 -19 30 -33 12
-31 12 -37 -11z"/>
<path d="M2288 1093 c7 -3 16 -2 19 1 4 3 -2 6 -13 5 -11 0 -14 -3 -6 -6z"/>
<path d="M2635 1089 c-49 -5 -142 -6 -205 -4 -104 4 -109 3 -50 -6 66 -10 286
-4 370 11 40 7 41 7 10 7 -19 0 -75 -4 -125 -8z"/>
<path d="M3265 1085 c-16 -7 -23 -14 -14 -14 8 -1 24 6 35 14 24 18 18 18 -21
0z"/>
<path d="M2110 1065 c0 -14 5 -25 11 -25 6 0 9 7 5 15 -3 9 0 15 8 15 8 0 17
-10 20 -22 7 -22 7 -22 15 -3 10 24 5 30 -31 39 -25 6 -28 4 -28 -19z"/>
<path d="M1737 1074 c-9 -15 -35 -94 -31 -94 8 0 45 82 41 93 -2 7 -6 7 -10 1z"/>
<path d="M1741 1018 c-27 -65 -20 -75 8 -12 24 54 39 55 16 1 -21 -52 -17 -70
5 -22 23 49 24 71 6 78 -9 4 -21 -11 -35 -45z"/>
<path d="M2303 1035 c0 -22 2 -30 4 -17 2 12 2 30 0 40 -3 9 -5 -1 -4 -23z"/>
<path d="M2194 1043 c4 -25 26 -28 26 -4 0 12 -6 21 -14 21 -8 0 -13 -8 -12
-17z"/>
<path d="M3170 1050 c-13 -8 -13 -10 2 -10 9 0 20 5 23 10 8 13 -5 13 -25 0z"/>
<path d="M2230 1035 c0 -8 4 -15 9 -15 5 0 16 -3 25 -6 12 -5 16 0 15 17 0 13
-3 18 -6 12 -2 -7 -9 -13 -14 -13 -6 0 -7 5 -4 10 3 6 -1 10 -9 10 -9 0 -16
-7 -16 -15z"/>
<path d="M2330 1024 c0 -15 6 -24 16 -24 10 0 14 6 10 15 -3 10 1 15 13 15 14
0 18 -5 14 -20 -3 -11 0 -20 6 -20 6 0 11 -4 11 -10 0 -5 -6 -7 -13 -4 -8 3
-14 -1 -15 -8 -1 -7 -4 -26 -7 -43 -5 -23 -4 -26 4 -15 6 8 11 23 11 33 0 9 6
17 14 17 11 0 32 69 23 76 -1 1 -21 4 -44 7 -40 5 -43 4 -43 -19z"/>
<path d="M2880 1027 c0 -20 4 -23 34 -19 33 4 34 4 15 23 -26 26 -49 24 -49
-4z"/>
<path d="M3005 1040 c-3 -5 1 -10 9 -10 8 0 18 5 21 10 3 6 -1 10 -9 10 -8 0
-18 -4 -21 -10z"/>
<path d="M2433 1034 c7 -7 199 -5 206 2 2 2 -44 4 -104 4 -60 0 -105 -3 -102
-6z"/>
<path d="M2650 1016 c0 -31 34 -29 38 2 3 17 -2 22 -17 22 -16 0 -21 -6 -21
-24z"/>
<path d="M2788 1026 c-88 -15 -96 -25 -10 -14 37 5 71 14 77 19 5 5 7 8 5 8
-3 -1 -35 -7 -72 -13z"/>
<path d="M3115 1030 c-3 -5 -17 -10 -31 -10 -13 0 -24 -4 -24 -9 0 -6 15 -5
38 1 42 11 66 28 40 28 -9 0 -20 -4 -23 -10z"/>
<path d="M4012 1010 c0 -14 2 -19 5 -12 2 6 2 18 0 25 -3 6 -5 1 -5 -13z"/>
<path d="M2118 1013 c7 -3 16 -2 19 1 4 3 -2 6 -13 5 -11 0 -14 -3 -6 -6z"/>
<path d="M2195 1000 c-3 -5 -1 -10 4 -10 6 0 11 5 11 10 0 6 -2 10 -4 10 -3 0
-8 -4 -11 -10z"/>
<path d="M2478 1003 c29 -2 74 -2 100 0 26 2 2 3 -53 3 -55 0 -76 -1 -47 -3z"/>
<path d="M3315 988 c-62 -33 -151 -68 -250 -98 l-90 -27 -17 -54 c-9 -30 -19
-66 -22 -80 -7 -31 -34 -38 -206 -48 -58 -3 -104 -9 -102 -13 1 -5 2 -61 2
-125 0 -64 2 -114 4 -112 2 2 6 50 10 107 3 57 8 107 11 112 9 15 95 13 95 -2
0 -7 5 -6 13 4 8 10 37 18 82 22 86 8 100 21 123 107 l17 64 120 41 c126 43
161 56 209 80 16 8 31 12 34 10 8 -8 -7 -54 -22 -69 -8 -8 -11 -19 -6 -27 10
-16 35 30 49 89 10 48 5 50 -54 19z"/>
<path d="M1197 993 c-4 -3 -7 -19 -7 -35 0 -23 4 -28 23 -27 16 0 18 2 7 7
-24 11 -23 39 2 45 30 8 43 -6 29 -32 -10 -18 -9 -21 8 -21 16 0 19 6 16 28
-2 15 -4 30 -4 35 -1 9 -65 10 -74 0z"/>
<path d="M1300 965 l0 -35 60 0 c57 0 60 1 50 19 -5 11 -7 27 -4 35 5 13 -3
16 -50 16 l-56 0 0 -35z m90 0 c0 -22 -4 -25 -39 -25 -34 0 -38 3 -38 25 0 22
4 25 38 25 35 0 39 -3 39 -25z"/>
<path d="M1421 990 c0 -8 4 -24 9 -35 5 -13 9 -14 9 -5 0 8 -4 24 -9 35 -5 13
-9 14 -9 5z"/>
<path d="M2230 991 c0 -6 5 -13 10 -16 6 -3 10 1 10 9 0 9 -4 16 -10 16 -5 0
-10 -4 -10 -9z"/>
<path d="M2818 993 c7 -3 16 -2 19 1 4 3 -2 6 -13 5 -11 0 -14 -3 -6 -6z"/>
<path d="M2938 993 c7 -3 16 -2 19 1 4 3 -2 6 -13 5 -11 0 -14 -3 -6 -6z"/>
<path d="M3010 989 c0 -5 5 -7 10 -4 6 3 10 8 10 11 0 2 -4 4 -10 4 -5 0 -10
-5 -10 -11z"/>
<path d="M1779 955 c-17 -35 -16 -35 12 -56 24 -17 29 -18 29 -5 0 8 -8 19
-17 25 -14 7 -15 12 -5 23 6 8 9 18 6 21 -9 9 24 2 71 -16 22 -8 85 -31 140
-51 113 -41 142 -66 171 -153 18 -53 34 -69 34 -35 0 25 -54 134 -76 154 -10
9 -57 30 -104 46 -47 17 -115 42 -153 56 -37 14 -73 26 -80 26 -6 -1 -19 -16
-28 -35z"/>
<path d="M2290 980 c0 -5 14 -10 32 -10 36 0 35 4 -4 14 -17 4 -28 2 -28 -4z"/>
<path d="M2728 983 c12 -2 32 -2 45 0 12 2 2 4 -23 4 -25 0 -35 -2 -22 -4z"/>
<path d="M2955 974 c-23 -10 -25 -13 -10 -13 21 -1 53 15 45 22 -3 2 -18 -2
-35 -9z"/>
<path d="M4901 974 c0 -11 3 -14 6 -6 3 7 2 16 -1 19 -3 4 -6 -2 -5 -13z"/>
<path d="M2483 973 c26 -2 67 -2 90 0 23 2 2 3 -48 3 -49 0 -68 -1 -42 -3z"/>
<path d="M2678 973 c7 -3 16 -2 19 1 4 3 -2 6 -13 5 -11 0 -14 -3 -6 -6z"/>
<path d="M2877 973 c-14 -13 -7 -23 16 -22 21 0 21 1 2 8 l-20 8 20 5 c13 4
15 6 4 7 -9 0 -19 -2 -22 -6z"/>
<path d="M2640 940 c0 -16 2 -30 4 -30 2 0 6 14 8 30 3 17 1 30 -4 30 -4 0 -8
-13 -8 -30z"/>
<path d="M2680 940 c0 -11 4 -20 9 -20 5 0 7 9 4 20 -3 11 -7 20 -9 20 -2 0
-4 -9 -4 -20z"/>
<path d="M3106 853 c-9 -9 -7 -33 3 -33 12 0 22 28 12 34 -5 3 -11 3 -15 -1z"/>
<path d="M2233 684 c5 -5 32 -11 60 -14 50 -5 52 -6 58 -40 l6 -35 2 33 c1 35
17 41 65 22 22 -8 26 -16 26 -49 0 -22 5 -52 11 -68 6 -15 14 -46 19 -68 7
-38 8 -38 9 -8 1 17 -3 43 -8 56 -5 14 -11 54 -13 91 -2 49 -7 67 -18 70 -32
9 -225 18 -217 10z"/>
<path d="M2484 661 c5 -8 116 -4 125 5 2 2 -26 4 -63 4 -37 0 -65 -4 -62 -9z"/>
<path d="M3882 650 c0 -14 2 -19 5 -12 2 6 2 18 0 25 -3 6 -5 1 -5 -13z"/>
<path d="M3801 634 c0 -11 3 -14 6 -6 3 7 2 16 -1 19 -3 4 -6 -2 -5 -13z"/>
<path d="M3841 634 c0 -11 3 -14 6 -6 3 7 2 16 -1 19 -3 4 -6 -2 -5 -13z"/>
<path d="M3883 570 c0 -30 2 -43 4 -27 2 15 2 39 0 55 -2 15 -4 2 -4 -28z"/>
<path d="M2114 598 c-12 -19 -15 -48 -5 -48 5 0 11 12 14 28 6 31 3 39 -9 20z"/>
<path d="M3798 570 c-2 -22 0 -40 4 -40 5 0 8 18 8 40 0 22 -2 40 -4 40 -2 0
-6 -18 -8 -40z"/>
<path d="M1488 583 c7 -3 16 -2 19 1 4 3 -2 6 -13 5 -11 0 -14 -3 -6 -6z"/>
<path d="M1528 583 c7 -3 16 -2 19 1 4 3 -2 6 -13 5 -11 0 -14 -3 -6 -6z"/>
<path d="M2351 574 c0 -11 3 -14 6 -6 3 7 2 16 -1 19 -3 4 -6 -2 -5 -13z"/>
<path d="M3840 559 c0 -16 4 -28 9 -25 8 5 3 56 -5 56 -2 0 -4 -14 -4 -31z"/>
<path d="M2018 553 c6 -2 18 -2 25 0 6 3 1 5 -13 5 -14 0 -19 -2 -12 -5z"/>
<path d="M3964 290 c0 -118 2 -167 3 -108 2 60 2 156 0 215 -1 60 -3 11 -3
-107z"/>
<path d="M3848 418 c5 -108 10 -115 11 -15 0 48 -3 87 -7 87 -4 0 -6 -33 -4
-72z"/>
<path d="M3798 323 c4 -299 8 -327 10 -85 1 133 -1 242 -5 242 -5 0 -7 -71 -5
-157z"/>
<path d="M2496 408 c3 -5 35 -8 71 -8 37 0 63 3 59 7 -9 10 -136 10 -130 1z"/>
<path d="M2525 380 c-15 -7 -10 -9 23 -9 23 -1 42 4 42 9 0 12 -37 12 -65 0z"/>
<path d="M2512 340 c0 -14 2 -19 5 -12 2 6 2 18 0 25 -3 6 -5 1 -5 -13z"/>
<path d="M2602 335 c0 -16 2 -22 5 -12 2 9 2 23 0 30 -3 6 -5 -1 -5 -18z"/>
<path d="M2532 305 c10 -11 48 -14 53 -4 4 5 -8 9 -26 9 -18 0 -30 -2 -27 -5z"/>
<path d="M3844 265 c0 -19 4 -35 8 -35 4 0 8 16 8 35 0 19 -4 35 -8 35 -4 0
-8 -16 -8 -35z"/>
<path d="M2540 132 c0 -73 3 -132 8 -132 9 0 8 247 -1 256 -4 4 -7 -52 -7
-124z"/>
<path d="M2592 220 c0 -14 2 -19 5 -12 2 6 2 18 0 25 -3 6 -5 1 -5 -13z"/>
<path d="M3849 183 c-1 -21 -3 -55 -4 -75 -2 -21 0 -38 4 -38 4 0 9 34 10 75
1 41 0 75 -3 75 -4 0 -6 -17 -7 -37z"/>
<path d="M308 163 c106 -2 277 -2 380 0 103 1 16 2 -193 2 -209 0 -293 -1
-187 -2z"/>
<path d="M898 163 c12 -2 32 -2 45 0 12 2 2 4 -23 4 -25 0 -35 -2 -22 -4z"/>
<path d="M3893 105 c0 -27 2 -38 4 -22 2 15 2 37 0 50 -2 12 -4 0 -4 -28z"/>
<path d="M365 53 c131 -6 655 -8 633 -1 -13 3 -174 6 -358 5 -184 0 -308 -2
-275 -4z"/>
<path d="M2601 14 c0 -11 3 -14 6 -6 3 7 2 16 -1 19 -3 4 -6 -2 -5 -13z"/>
</g>
</svg>
