<?xml version="1.0" standalone="no"?>
<!DOCTYPE svg PUBLIC "-//W3C//DTD SVG 20010904//EN"
 "http://www.w3.org/TR/2001/REC-SVG-20010904/DTD/svg10.dtd">
<svg version="1.0" xmlns="http://www.w3.org/2000/svg"
 width="512.000000pt" height="512.000000pt" viewBox="0 0 512.000000 512.000000"
 preserveAspectRatio="xMidYMid meet">
<metadata>
Created by potrace 1.16, written by Peter Selinger 2001-2019
</metadata>
<g transform="translate(0.000000,512.000000) scale(0.100000,-0.100000)"
fill="#000000" stroke="none">
<path d="M2493 4653 c9 -2 25 -2 35 0 9 3 1 5 -18 5 -19 0 -27 -2 -17 -5z"/>
<path d="M2158 4623 c6 -2 18 -2 25 0 6 3 1 5 -13 5 -14 0 -19 -2 -12 -5z"/>
<path d="M2108 4613 c7 -3 16 -2 19 1 4 3 -2 6 -13 5 -11 0 -14 -3 -6 -6z"/>
<path d="M1397 4597 c-3 -9 1 -18 9 -21 16 -6 18 2 5 22 -7 11 -9 11 -14 -1z"/>
<path d="M2058 4603 c7 -3 16 -2 19 1 4 3 -2 6 -13 5 -11 0 -14 -3 -6 -6z"/>
<path d="M3780 4600 c20 -13 33 -13 25 0 -3 6 -14 10 -23 10 -15 0 -15 -2 -2
-10z"/>
<path d="M3693 4547 c-29 -18 -90 -60 -137 -94 -92 -68 -113 -78 -75 -35 l24
27 -30 -26 c-17 -14 -66 -58 -110 -99 -44 -40 -102 -91 -130 -112 -77 -61
-322 -295 -376 -360 -110 -133 -51 -78 309 284 37 37 68 65 70 63 3 -2 -19
-30 -47 -63 -80 -92 -59 -86 32 9 45 47 109 107 142 135 33 27 62 51 65 54 23
23 245 180 255 180 11 0 -92 -187 -214 -390 -138 -229 -292 -529 -285 -556 6
-21 86 -74 112 -74 26 0 37 12 51 55 7 22 47 108 90 190 l77 150 104 53 c58
29 96 51 85 48 -33 -8 -185 -72 -195 -82 -18 -18 -190 -366 -190 -385 0 -25 0
-25 -62 13 -29 17 -54 32 -55 33 -7 4 211 410 302 560 104 174 250 443 243
450 -2 2 -26 -11 -55 -28z m-233 -161 c0 -3 -15 -14 -32 -26 l-33 -22 30 26
c31 27 35 29 35 22z"/>
<path d="M1450 4567 c0 -33 128 -287 283 -564 83 -148 217 -405 217 -416 0 -2
-27 -21 -60 -41 -33 -21 -60 -41 -60 -47 0 -15 10 -11 77 29 59 35 63 39 57
67 -8 41 -93 217 -165 342 -33 56 -59 104 -59 107 0 2 -28 53 -62 113 -68 120
-162 305 -173 341 -6 22 -5 23 17 12 28 -15 93 -67 169 -135 31 -27 76 -66
100 -85 24 -19 77 -68 117 -108 39 -40 72 -70 72 -66 0 3 -16 29 -36 58 l-36
51 48 -51 c27 -28 63 -66 79 -85 30 -34 93 -91 175 -159 23 -19 66 -63 96 -98
30 -35 54 -60 54 -55 0 20 -47 81 -108 142 -120 118 -380 361 -388 361 -4 0 1
-9 11 -20 17 -18 17 -20 2 -14 -15 6 -21 17 -14 28 3 7 -40 51 -127 130 -44
39 -72 59 -62 45 9 -15 41 -46 71 -70 50 -40 66 -59 48 -59 -10 0 -63 43 -123
99 -87 83 -220 172 -220 148z m376 -261 c20 -21 17 -28 -6 -14 -11 7 -20 16
-20 20 0 12 10 9 26 -6z"/>
<path d="M2018 4403 c7 -3 16 -2 19 1 4 3 -2 6 -13 5 -11 0 -14 -3 -6 -6z"/>
<path d="M2938 4393 c7 -3 16 -2 19 1 4 3 -2 6 -13 5 -11 0 -14 -3 -6 -6z"/>
<path d="M2115 4366 c-108 -27 -196 -55 -210 -67 -12 -12 -8 -11 50 7 28 8 59
17 70 19 86 18 195 49 195 56 0 11 5 12 -105 -15z"/>
<path d="M2730 4220 c0 -5 7 -7 15 -4 8 4 15 8 15 10 0 2 -7 4 -15 4 -8 0 -15
-4 -15 -10z"/>
<path d="M2720 4185 c0 -8 4 -15 10 -15 5 0 7 7 4 15 -4 8 -8 15 -10 15 -2 0
-4 -7 -4 -15z"/>
<path d="M1058 4155 c-9 -9 4 -65 14 -59 13 8 150 -134 183 -190 15 -26 33
-73 40 -104 25 -114 87 -245 134 -285 17 -14 56 -35 86 -46 63 -24 195 -40
195 -24 0 6 -34 13 -76 17 -82 8 -169 41 -205 79 -32 33 -87 156 -109 243 -21
87 -65 159 -146 241 -30 31 -53 58 -50 60 5 5 95 -21 138 -41 18 -8 65 -28
103 -44 131 -56 200 -90 223 -112 16 -15 22 -17 22 -6 0 21 -42 48 -166 106
-60 28 -121 57 -136 65 -15 7 -65 25 -111 39 -47 15 -96 35 -110 46 -13 11
-26 17 -29 15z"/>
<path d="M4065 4109 c-33 -19 -52 -24 -56 -17 -5 8 -23 5 -59 -10 -29 -12 -63
-22 -76 -22 -12 0 -25 -4 -28 -9 -4 -5 3 -7 14 -4 11 3 20 1 20 -5 0 -5 -55
-33 -122 -61 -179 -76 -218 -104 -266 -191 -50 -89 -111 -220 -116 -245 l-6
-30 11 29 c12 29 50 104 111 216 53 97 87 123 243 190 44 19 84 38 90 42 5 4
16 8 26 8 9 0 28 9 43 21 14 11 26 18 26 14 0 -3 14 1 30 10 17 9 30 13 30 9
0 -4 7 -1 15 6 10 8 15 9 15 2 0 -6 -26 -40 -59 -74 -70 -76 -77 -88 -102
-184 -22 -83 -65 -179 -104 -230 -33 -43 -75 -64 -195 -100 -102 -30 -106 -31
-98 -39 8 -8 153 33 213 60 93 41 165 153 209 328 8 31 22 70 33 86 25 39 147
167 172 181 19 10 21 8 21 -22 0 -18 -9 -53 -20 -77 -27 -58 -50 -151 -49
-192 1 -27 4 -22 14 26 8 33 27 96 43 140 33 91 45 145 34 160 -4 7 -25 1 -57
-16z"/>
<path d="M2523 4090 c0 -25 2 -35 4 -22 2 12 2 32 0 45 -2 12 -4 2 -4 -23z"/>
<path d="M1048 4028 c3 -18 7 -27 9 -20 6 16 23 5 23 -14 0 -9 -5 -12 -12 -8
-7 4 -4 -3 7 -15 11 -13 28 -42 38 -64 l17 -42 -6 35 c-8 45 -62 160 -75 160
-3 0 -3 -15 -1 -32z"/>
<path d="M2522 4020 c0 -14 2 -19 5 -12 2 6 2 18 0 25 -3 6 -5 1 -5 -13z"/>
<path d="M3805 4029 c-11 -5 -33 -13 -49 -19 -16 -6 -27 -13 -24 -16 6 -5 98
33 98 41 0 6 0 6 -25 -6z"/>
<path d="M1473 4003 c3 -4 44 -28 91 -53 47 -25 86 -51 86 -58 0 -7 11 -37 24
-65 115 -246 134 -292 126 -295 -6 -2 -10 -12 -10 -23 0 -20 0 -20 21 -1 l20
20 -24 58 c-14 33 -50 112 -80 176 -30 65 -57 127 -60 138 -3 13 -32 32 -84
56 -43 20 -86 41 -97 46 -10 6 -16 6 -13 1z"/>
<path d="M1081 3900 c0 -19 4 -42 9 -50 8 -12 10 -11 9 5 -1 11 -5 34 -9 50
l-8 30 -1 -35z"/>
<path d="M4065 3785 c-4 -25 -5 -48 -2 -51 3 -3 9 15 12 41 4 25 5 48 2 51 -3
3 -9 -15 -12 -41z"/>
<path d="M1093 3796 c0 -14 3 -26 8 -26 11 0 11 21 0 39 -6 9 -8 5 -8 -13z"/>
<path d="M2433 3793 c-18 -2 -33 -9 -33 -14 0 -5 17 -7 38 -4 20 2 70 7 111
10 41 2 76 7 79 10 6 6 -145 4 -195 -2z"/>
<path d="M2680 3790 c0 -5 15 -10 33 -9 27 0 29 2 12 9 -28 12 -45 12 -45 0z"/>
<path d="M1660 3756 c0 -2 7 -9 15 -16 13 -11 14 -10 9 4 -5 14 -24 23 -24 12z"/>
<path d="M2701 3741 l-23 -18 31 5 c18 2 31 10 31 18 0 19 -10 17 -39 -5z"/>
<path d="M4000 3719 c-25 -20 -25 -20 -2 -14 24 7 25 1 6 -90 -2 -11 5 -2 15
20 19 40 28 105 14 105 -5 0 -19 -10 -33 -21z"/>
<path d="M1120 3716 c0 -8 7 -17 16 -20 30 -11 37 -6 19 14 -21 23 -35 26 -35
6z"/>
<path d="M1100 3691 c0 -6 4 -12 9 -15 4 -3 7 -18 5 -33 -4 -27 -3 -28 5 -3 4
14 4 33 -1 43 -10 19 -18 22 -18 8z"/>
<path d="M1700 3691 c0 -14 73 -152 77 -147 2 2 -10 31 -27 64 -16 32 -30 64
-30 70 0 6 -4 14 -10 17 -5 3 -10 2 -10 -4z"/>
<path d="M2750 3690 c-9 -6 -10 -10 -3 -10 6 0 15 5 18 10 8 12 4 12 -15 0z"/>
<path d="M2383 3683 c9 -2 25 -2 35 0 9 3 1 5 -18 5 -19 0 -27 -2 -17 -5z"/>
<path d="M1121 3585 c0 -18 12 -52 32 -85 17 -30 39 -68 47 -85 18 -38 50 -81
50 -68 0 5 -11 30 -25 54 -14 24 -30 55 -37 69 -7 14 -22 41 -34 61 -12 20
-24 47 -27 60 -4 21 -4 20 -6 -6z"/>
<path d="M4012 3549 c-7 -23 -11 -44 -8 -46 6 -7 36 52 36 72 0 29 -15 15 -28
-26z"/>
<path d="M1121 3500 c-2 -10 27 -97 45 -132 16 -34 35 -51 33 -30 0 10 -77
168 -78 162z"/>
<path d="M4004 3397 c-49 -90 -65 -127 -56 -127 10 0 107 188 101 195 -3 2
-23 -28 -45 -68z"/>
<path d="M3930 3424 c-5 -16 -15 -37 -20 -46 -6 -10 -6 -18 -2 -18 12 0 47 79
39 86 -4 4 -11 -6 -17 -22z"/>
<path d="M3794 3428 c-3 -4 4 -8 15 -8 11 0 22 4 26 9 3 6 -4 9 -16 8 -11 -1
-23 -5 -25 -9z"/>
<path d="M1660 3335 c-24 -24 -42 -47 -39 -50 3 -2 27 18 54 45 27 28 45 50
39 50 -5 0 -30 -20 -54 -45z"/>
<path d="M2564 3297 c7 -24 28 -66 45 -93 35 -53 108 -113 108 -89 0 8 -4 12
-8 10 -14 -9 -90 88 -119 152 -16 35 -32 63 -34 63 -3 0 1 -20 8 -43z"/>
<path d="M1154 3309 c-7 -12 13 -43 51 -81 44 -44 50 -33 11 21 -20 26 -33 50
-30 53 3 3 -2 8 -10 11 -9 4 -18 2 -22 -4z"/>
<path d="M2828 3313 c7 -3 16 -2 19 1 4 3 -2 6 -13 5 -11 0 -14 -3 -6 -6z"/>
<path d="M1284 3301 c7 -11 46 -35 46 -28 0 3 -12 12 -26 22 -15 9 -23 12 -20
6z"/>
<path d="M3866 3294 c-5 -14 -4 -15 9 -4 17 14 19 20 6 20 -5 0 -12 -7 -15
-16z"/>
<path d="M2308 3295 c-2 -2 -19 -6 -38 -9 -19 -3 -81 -19 -137 -36 -56 -16
-107 -30 -114 -30 -6 0 -49 -18 -95 -40 -47 -22 -86 -40 -89 -40 -11 0 -94
-62 -121 -92 -51 -54 -125 -168 -162 -246 -18 -41 -32 -76 -29 -78 2 -2 12 15
23 38 58 134 143 243 254 327 95 71 152 94 335 132 151 31 200 43 228 54 22 9
22 -2 -2 -65 -20 -53 -16 -63 12 -29 16 18 27 93 16 103 -5 5 -77 14 -81 11z"/>
<path d="M1415 3280 c3 -5 14 -10 23 -10 15 0 15 2 2 10 -20 13 -33 13 -25 0z"/>
<path d="M2456 3268 c-9 -12 -16 -29 -16 -36 0 -8 -6 -12 -15 -9 -8 4 -17 1
-21 -5 -4 -7 -3 -8 4 -4 21 13 13 -5 -10 -25 -13 -10 -18 -18 -11 -19 15 0 60
46 79 83 19 36 12 46 -10 15z"/>
<path d="M1505 3271 l-50 -7 54 -4 c34 -3 60 0 70 7 18 14 13 14 -74 4z"/>
<path d="M3621 3271 c-44 -5 -52 -8 -40 -18 10 -8 20 -9 29 -3 8 6 25 10 37
10 12 0 25 5 28 10 3 6 5 9 3 8 -2 -1 -27 -4 -57 -7z"/>
<path d="M3788 3263 c7 -3 16 -2 19 1 4 3 -2 6 -13 5 -11 0 -14 -3 -6 -6z"/>
<path d="M2774 3230 c4 -19 12 -60 18 -90 6 -30 15 -59 20 -64 15 -18 8 -27
-14 -21 -14 5 -6 -5 20 -25 50 -36 60 -34 39 7 -19 35 -66 190 -61 196 3 2 -3
10 -12 18 -15 12 -16 10 -10 -21z"/>
<path d="M3920 3249 c0 -5 5 -7 10 -4 6 3 10 8 10 11 0 2 -4 4 -10 4 -5 0 -10
-5 -10 -11z"/>
<path d="M2531 3241 c-2 -29 -95 -153 -154 -204 -45 -40 -107 -76 -229 -134
-186 -90 -246 -128 -332 -209 l-60 -55 -4 -92 -5 -91 -18 35 c-10 19 -18 31
-19 28 0 -10 44 -108 122 -271 65 -136 70 -153 75 -230 8 -104 26 -135 122
-203 40 -27 101 -71 137 -97 35 -27 78 -55 95 -63 16 -9 57 -34 91 -55 48 -32
70 -40 102 -38 l41 1 -40 6 c-39 6 -107 44 -149 82 -11 11 -24 19 -28 19 -13
0 -228 144 -268 179 -19 17 -38 31 -42 31 -5 0 -9 21 -9 48 -1 29 -4 36 -6 20
-9 -57 -20 -25 -25 66 -5 93 -7 98 -77 244 -76 160 -92 215 -84 301 7 81 8 83
40 70 15 -6 53 -13 83 -17 l55 -7 7 -48 c8 -60 73 -166 113 -187 51 -25 206
-16 189 12 -5 8 -2 9 10 5 10 -4 24 -1 32 7 50 50 -47 200 -164 253 -51 24
-175 51 -237 53 l-30 1 43 39 c37 33 222 131 385 204 39 18 160 131 213 200
l30 39 47 -66 c26 -37 64 -79 85 -94 20 -16 39 -31 40 -35 2 -5 7 -8 12 -8 5
0 30 -13 57 -30 26 -16 95 -46 152 -65 134 -47 261 -112 311 -161 17 -17 20
-24 10 -25 -18 -1 -59 -6 -120 -14 -73 -11 -182 -61 -222 -103 -82 -85 -110
-159 -69 -181 14 -8 20 -7 25 4 3 9 0 15 -9 15 -25 0 -17 25 30 89 52 70 113
113 194 137 74 21 201 30 229 15 25 -13 37 0 19 21 -24 30 -151 120 -217 153
-36 18 -113 50 -170 70 -114 39 -184 76 -260 136 -58 46 -125 133 -138 180 -6
19 -11 28 -11 20z m-511 -586 c39 -8 87 -23 108 -34 48 -25 124 -105 150 -157
l21 -41 -22 -11 c-88 -41 -135 -46 -187 -20 -35 18 -53 37 -82 87 -22 39 -38
80 -40 105 l-3 41 -75 8 c-93 9 -113 16 -85 27 32 14 138 11 215 -5z"/>
<path d="M2966 3241 c10 -10 132 -61 146 -61 8 0 58 -31 190 -118 90 -59 189
-151 228 -212 33 -51 50 -68 29 -27 -22 40 -90 137 -97 137 -4 1 -29 21 -57
46 -59 54 -123 97 -220 149 -38 21 -81 44 -95 51 -14 8 -42 17 -63 20 -20 4
-40 11 -43 15 -3 5 -10 9 -17 9 -7 0 -7 -3 -1 -9z"/>
<path d="M2815 3231 c-7 -12 35 -28 90 -37 36 -5 46 -4 40 5 -4 7 -9 10 -12 7
-3 -2 -17 0 -32 6 -50 20 -81 26 -86 19z"/>
<path d="M1342 3203 c-29 -13 -50 -29 -46 -34 9 -15 39 -2 75 32 17 16 30 29
28 28 -2 0 -28 -12 -57 -26z"/>
<path d="M3316 3176 c56 -29 139 -79 185 -110 45 -32 76 -49 68 -40 -19 24
-62 63 -70 64 -4 0 -31 16 -60 36 -29 19 -78 46 -108 60 -31 14 -64 29 -73 35
-10 5 -23 9 -30 9 -7 0 33 -24 88 -54z"/>
<path d="M3930 3199 c-17 -30 -6 -34 14 -4 9 14 12 25 7 25 -6 0 -15 -9 -21
-21z"/>
<path d="M1373 3173 c9 -2 23 -2 30 0 6 3 -1 5 -18 5 -16 0 -22 -2 -12 -5z"/>
<path d="M1465 3160 l-30 -8 27 -1 c15 0 30 4 33 9 3 6 5 9 3 9 -2 -1 -16 -5
-33 -9z"/>
<path d="M3888 3125 c-10 -19 -14 -35 -10 -35 5 0 16 16 25 35 9 19 13 35 9
35 -4 0 -15 -16 -24 -35z"/>
<path d="M1699 3112 c-81 -95 -173 -263 -220 -400 -78 -231 -59 -470 56 -698
57 -113 110 -170 199 -215 37 -19 85 -49 107 -68 21 -19 80 -52 131 -73 51
-21 101 -43 110 -48 10 -6 26 -10 36 -10 10 0 22 -4 28 -9 5 -5 34 -16 64 -26
30 -9 65 -23 76 -31 20 -12 21 -15 8 -65 -8 -29 -16 -61 -20 -71 -3 -12 0 -18
9 -18 9 0 14 8 13 17 -3 21 18 93 35 121 7 12 11 23 9 25 -3 2 -72 27 -155 56
-82 30 -190 74 -240 100 -116 61 -258 155 -292 195 -18 21 -24 25 -20 11 6
-16 3 -15 -13 5 -38 47 -120 225 -140 303 -26 105 -37 251 -20 272 8 10 11 30
7 57 -4 30 -3 38 5 27 7 -10 8 -3 4 26 -3 22 -2 35 2 28 4 -6 14 9 24 38 9 27
14 49 12 49 -3 0 -10 -14 -16 -31 -6 -16 -12 -28 -14 -26 -6 5 39 132 73 207
17 36 60 109 97 163 37 55 66 101 64 103 -2 2 -11 -4 -19 -14z"/>
<path d="M3678 3123 c6 -2 18 -2 25 0 6 3 1 5 -13 5 -14 0 -19 -2 -12 -5z"/>
<path d="M3730 3115 c7 -8 23 -15 36 -15 13 0 24 -5 24 -11 0 -5 5 -7 10 -4
25 15 7 27 -63 41 -15 3 -17 1 -7 -11z"/>
<path d="M1277 3103 c-4 -3 -7 -31 -7 -62 0 -41 6 -63 21 -81 l20 -25 -12 25
c-7 14 -12 53 -11 88 3 62 1 68 -11 55z"/>
<path d="M3650 3073 c0 -7 17 -50 39 -95 21 -46 42 -94 46 -108 4 -14 11 -29
15 -35 15 -22 60 -164 74 -235 29 -147 40 -284 27 -352 -23 -123 -57 -203
-133 -315 -15 -23 -28 -49 -28 -58 0 -9 -36 -53 -80 -98 -44 -44 -78 -82 -77
-84 2 -1 35 29 75 67 105 101 193 244 242 394 48 147 18 443 -67 656 -60 150
-132 294 -133 263z"/>
<path d="M3844 3065 c-19 -14 -19 -14 2 -15 12 0 24 7 28 15 7 19 -5 19 -30 0z"/>
<path d="M1446 3018 c-171 -293 -235 -618 -164 -846 31 -102 131 -284 168
-307 16 -10 -1 26 -41 85 -100 148 -129 244 -129 423 0 201 34 336 134 538 49
97 70 149 60 149 -2 0 -14 -19 -28 -42z"/>
<path d="M3450 3053 c0 -5 17 -32 38 -60 86 -113 177 -345 168 -423 -4 -29 -3
-38 3 -25 12 28 25 -156 16 -226 -14 -115 -120 -374 -152 -374 -6 0 -15 -4
-20 -9 -5 -5 -2 -6 6 -1 9 5 12 4 10 -4 -3 -7 -8 -11 -11 -9 -4 2 -22 -11 -40
-28 -53 -49 -152 -111 -261 -164 -56 -28 -91 -47 -77 -44 46 12 265 122 335
169 79 52 147 162 200 320 48 142 45 342 -7 515 -35 115 -128 301 -170 339
-21 18 -38 29 -38 24z"/>
<path d="M3827 2980 c-8 -22 -13 -40 -11 -40 7 0 36 71 31 76 -2 2 -11 -14
-20 -36z"/>
<path d="M2093 2920 c-68 -32 -123 -61 -123 -64 0 -5 154 64 225 102 81 43 16
19 -102 -38z"/>
<path d="M2860 2961 c8 -5 49 -20 90 -34 41 -14 84 -28 95 -32 18 -6 19 -6 2
5 -17 11 -184 70 -196 70 -3 0 1 -5 9 -9z"/>
<path d="M1326 2917 c3 -10 9 -15 12 -12 3 3 0 11 -7 18 -10 9 -11 8 -5 -6z"/>
<path d="M441 2904 c0 -11 3 -14 6 -6 3 7 2 16 -1 19 -3 4 -6 -2 -5 -13z"/>
<path d="M1322 2858 c-10 -30 -10 -31 3 -14 13 17 21 46 12 46 -1 0 -8 -15
-15 -32z"/>
<path d="M3149 2845 c46 -25 102 -59 125 -77 67 -51 74 -53 24 -6 -25 25 -84
63 -131 86 -112 56 -124 53 -18 -3z"/>
<path d="M1894 2812 c-116 -75 -203 -182 -204 -249 0 -43 18 -31 22 15 3 26
15 63 28 82 25 38 127 127 184 161 32 18 43 29 33 29 -2 0 -30 -17 -63 -38z"/>
<path d="M1259 2758 c-23 -35 -73 -100 -111 -144 -108 -129 -188 -187 -314
-230 -108 -36 -156 -20 -174 58 -6 27 -9 30 -15 15 -4 -10 0 -47 9 -85 12 -51
24 -73 49 -95 89 -78 152 -101 232 -81 l50 12 -62 -6 c-75 -6 -118 11 -180 71
-51 49 -58 82 -15 73 39 -9 134 19 217 62 107 56 258 210 318 325 25 48 44 87
42 87 -2 0 -23 -28 -46 -62z"/>
<path d="M421 2704 c0 -11 3 -14 6 -6 3 7 2 16 -1 19 -3 4 -6 -2 -5 -13z"/>
<path d="M3361 2653 c9 -11 14 -43 14 -99 0 -45 3 -80 8 -77 11 7 8 152 -3
174 -6 10 -16 19 -22 19 -6 0 -5 -6 3 -17z"/>
<path d="M3416 2645 c14 -45 16 -96 5 -127 -9 -24 -9 -30 0 -21 20 20 23 95 5
133 -9 19 -14 26 -10 15z"/>
<path d="M3295 2635 c-5 -2 -35 -5 -65 -7 l-55 -3 -6 -45 c-6 -55 -37 -116
-82 -164 -32 -33 -39 -36 -91 -36 -47 0 -61 4 -82 25 -31 31 -34 31 -34 2 0
-32 36 -47 115 -47 58 0 68 3 100 31 48 42 84 105 91 162 6 45 8 46 48 52 93
14 106 18 100 26 -5 9 -21 11 -39 4z"/>
<path d="M3899 2596 c12 -16 21 -33 21 -37 0 -11 64 -112 83 -130 20 -21 118
-183 161 -268 72 -140 104 -299 81 -401 l-7 -34 -28 61 c-29 64 -103 146 -156
173 -16 8 -31 17 -34 20 -3 3 -26 18 -52 33 -26 15 -53 34 -62 42 -8 8 -17 12
-20 7 -2 -4 48 -43 112 -86 68 -45 132 -96 152 -122 41 -51 73 -137 67 -177
-2 -17 1 -26 7 -24 18 6 35 50 48 124 28 166 -55 380 -261 673 -45 63 -93 129
-107 145 -25 30 -25 30 -5 1z"/>
<path d="M1802 2506 c2 -27 18 -37 18 -11 0 8 0 18 1 22 0 4 -4 9 -10 11 -6 2
-10 -7 -9 -22z"/>
<path d="M3304 2507 c11 -8 16 -19 12 -25 -4 -7 -2 -12 3 -12 6 0 11 7 11 15
0 8 1 18 3 22 1 3 -9 8 -23 10 -23 3 -23 3 -6 -10z"/>
<path d="M1202 2456 c-17 -37 -15 -45 4 -18 8 12 14 27 12 33 -2 6 -9 -1 -16
-15z"/>
<path d="M3372 2424 c-7 -14 -16 -23 -21 -20 -5 3 -8 -6 -8 -21 0 -14 -8 -32
-17 -38 -9 -7 -16 -17 -16 -23 0 -11 -16 -43 -68 -132 -15 -24 -28 -51 -31
-60 -8 -31 -12 -202 -5 -218 5 -10 10 26 14 88 3 68 11 116 21 135 9 17 37 68
62 115 59 109 99 200 88 200 -4 0 -13 -12 -19 -26z"/>
<path d="M1150 2372 c-14 -20 -34 -45 -45 -54 -11 -10 -15 -17 -8 -18 12 0 83
86 83 101 0 14 -4 11 -30 -29z"/>
<path d="M1175 2280 c-9 -10 -55 -44 -101 -75 -88 -59 -114 -84 -41 -42 77 46
151 98 165 118 17 25 0 25 -23 -1z"/>
<path d="M1059 2273 c-13 -16 -12 -17 4 -4 9 7 17 15 17 17 0 8 -8 3 -21 -13z"/>
<path d="M1860 2284 c0 -5 4 -14 10 -20 5 -5 21 -32 35 -59 14 -28 25 -45 25
-38 0 13 -46 101 -61 118 -6 5 -9 5 -9 -1z"/>
<path d="M4461 2244 c0 -11 3 -14 6 -6 3 7 2 16 -1 19 -3 4 -6 -2 -5 -13z"/>
<path d="M990 2219 c0 -5 5 -7 10 -4 6 3 10 8 10 11 0 2 -4 4 -10 4 -5 0 -10
-5 -10 -11z"/>
<path d="M770 2190 c19 -11 40 -19 45 -19 6 0 -6 8 -25 19 -19 11 -39 19 -45
19 -5 0 6 -8 25 -19z"/>
<path d="M838 2163 c7 -3 16 -2 19 1 4 3 -2 6 -13 5 -11 0 -14 -3 -6 -6z"/>
<path d="M918 2163 c7 -3 16 -2 19 1 4 3 -2 6 -13 5 -11 0 -14 -3 -6 -6z"/>
<path d="M2420 2141 c-5 -11 -10 -26 -10 -34 0 -17 41 -53 90 -80 17 -9 30
-23 28 -30 -5 -15 -113 -69 -185 -93 -29 -10 -53 -21 -53 -26 0 -20 60 -2 183
56 76 36 78 38 75 69 -2 27 -11 36 -52 58 -49 27 -72 52 -62 67 9 15 253 12
266 -3 13 -16 -4 -31 -74 -65 -44 -22 -51 -29 -51 -55 0 -27 7 -34 80 -72 44
-23 101 -48 128 -54 43 -12 47 -15 47 -43 0 -22 3 -27 11 -19 24 24 1 59 -48
78 -27 10 -83 35 -126 57 -90 45 -91 53 -7 95 49 25 55 32 58 62 2 20 -2 37
-10 42 -7 5 -72 9 -145 9 -121 0 -133 -2 -143 -19z"/>
<path d="M938 2098 c-101 -126 -170 -268 -192 -396 -4 -20 -2 -31 4 -27 6 3
10 17 10 30 0 51 112 279 154 314 9 7 13 17 10 22 -3 5 9 27 27 50 17 22 29
42 26 45 -2 3 -20 -14 -39 -38z"/>
<path d="M4631 1988 c-12 -51 -33 -113 -46 -139 -57 -112 -224 -206 -431 -240
-63 -11 -77 -10 -139 9 -78 24 -98 21 -39 -5 62 -27 177 -29 274 -4 95 25 211
79 259 122 19 16 36 28 38 25 2 -2 -10 -24 -27 -49 -92 -136 -281 -237 -446
-237 -47 0 -64 -3 -54 -10 27 -17 161 -4 231 22 176 65 292 177 353 340 23 60
62 246 53 254 -2 2 -13 -38 -26 -88z"/>
<path d="M3261 1993 c-16 -58 -12 -75 5 -19 9 26 13 50 10 53 -2 3 -9 -12 -15
-34z"/>
<path d="M3914 1965 c22 -17 40 -20 32 -6 -3 5 -16 11 -28 14 -22 6 -22 5 -4
-8z"/>
<path d="M3819 1960 c-8 -20 15 -128 30 -143 10 -9 10 -6 1 18 -6 16 -15 55
-18 85 -4 30 -10 48 -13 40z"/>
<path d="M3961 1946 c2 -2 15 -9 29 -15 24 -11 24 -11 6 3 -16 13 -49 24 -35
12z"/>
<path d="M2475 1907 c-106 -54 -178 -79 -187 -65 -5 9 -8 7 -8 -6 0 -16 6 -18
39 -13 21 2 73 21 116 41 42 20 80 36 84 36 5 0 13 -10 19 -22 10 -21 11 -20
11 14 1 20 -2 39 -6 41 -5 3 -35 -9 -68 -26z"/>
<path d="M2570 1911 c0 -35 15 -49 23 -22 4 17 14 15 106 -31 56 -28 104 -48
108 -44 3 3 4 8 2 9 -8 7 -229 117 -234 117 -3 0 -5 -13 -5 -29z"/>
<path d="M3130 1857 c-25 -24 -64 -56 -87 -72 -24 -15 -43 -30 -43 -32 0 -8
84 46 133 84 26 21 47 43 47 50 0 18 1 18 -50 -30z"/>
<path d="M1825 1869 c-52 -21 -78 -39 -57 -39 15 0 122 47 122 54 0 9 -11 6
-65 -15z"/>
<path d="M3255 1872 c46 -27 85 -42 85 -34 0 9 -85 52 -103 52 -6 0 2 -8 18
-18z"/>
<path d="M883 1807 c-45 -68 -51 -79 -78 -135 -14 -29 -25 -61 -25 -72 0 -10
-4 -22 -10 -25 -6 -4 -10 13 -11 42 0 42 -1 45 -10 23 -6 -14 -8 -60 -5 -105
4 -56 3 -73 -4 -57 -17 41 -14 231 6 307 4 16 3 17 -5 4 -16 -25 -32 -184 -25
-242 14 -107 86 -252 155 -312 14 -13 9 0 -15 33 -76 106 -99 223 -65 329 23
69 65 158 94 198 29 40 37 55 31 55 -3 0 -18 -19 -33 -43z"/>
<path d="M1465 1840 c3 -5 8 -10 11 -10 2 0 4 5 4 10 0 6 -5 10 -11 10 -5 0
-7 -4 -4 -10z"/>
<path d="M4142 1794 c16 -27 19 -47 16 -90 -3 -30 -1 -49 3 -42 23 35 3 150
-27 162 -8 3 -5 -8 8 -30z"/>
<path d="M1490 1811 c0 -19 141 -154 200 -193 61 -39 174 -98 234 -122 34 -14
37 -14 26 -1 -7 8 -18 15 -24 15 -18 0 -157 74 -232 123 -68 44 -121 92 -176
157 -16 18 -28 27 -28 21z"/>
<path d="M3116 1795 c-11 -8 -15 -15 -9 -15 6 0 16 7 23 15 16 19 11 19 -14 0z"/>
<path d="M952 1753 c-56 -123 -73 -389 -34 -535 27 -99 68 -183 106 -215 45
-38 154 -88 224 -103 72 -15 167 -9 227 15 33 12 35 14 10 10 -166 -28 -268
-15 -377 48 -72 41 -109 88 -147 183 -46 118 -60 325 -30 439 10 39 20 86 22
105 2 19 9 46 16 58 7 13 11 28 9 34 -2 5 -14 -12 -26 -39z"/>
<path d="M2503 1749 c-18 -5 -33 -11 -33 -12 0 -1 35 -2 78 -2 42 0 88 -4 102
-9 16 -5 22 -5 15 2 -11 10 -95 33 -117 31 -7 0 -28 -5 -45 -10z"/>
<path d="M1455 1726 c10 -14 19 -26 22 -26 7 0 -17 39 -28 46 -6 3 -3 -5 6
-20z"/>
<path d="M2965 1740 c-3 -5 -2 -10 4 -10 5 0 13 5 16 10 3 6 2 10 -4 10 -5 0
-13 -4 -16 -10z"/>
<path d="M3320 1740 c-9 -6 -10 -10 -3 -10 6 0 15 5 18 10 8 12 4 12 -15 0z"/>
<path d="M3274 1720 c-22 -21 -316 -130 -453 -167 -9 -2 -11 -12 -7 -31 3 -15
9 -51 12 -79 4 -29 8 -53 9 -53 16 0 159 41 185 54 19 9 26 14 15 11 -106 -31
-169 -45 -176 -38 -4 4 -11 31 -15 60 -8 60 -25 48 161 114 150 53 303 123
289 132 -6 3 -15 2 -20 -3z"/>
<path d="M3916 1704 c22 -32 99 -72 156 -79 42 -5 42 -5 -10 10 -69 20 -106
39 -130 70 -26 33 -37 32 -16 -1z"/>
<path d="M2906 1700 c-21 -11 -52 -30 -70 -43 -17 -13 -41 -27 -53 -31 -13 -4
-23 -11 -23 -16 0 -5 -8 -11 -17 -13 -15 -4 -14 -5 3 -6 11 0 49 17 83 39 33
22 79 49 101 60 22 11 40 23 40 25 0 10 -26 4 -64 -15z"/>
<path d="M3499 1673 c-13 -16 -12 -17 4 -4 16 13 21 21 13 21 -2 0 -10 -8 -17
-17z"/>
<path d="M1529 1642 c13 -24 85 -84 169 -140 85 -57 69 -31 -21 33 -45 32 -84
61 -87 64 -3 3 -20 20 -39 36 -29 26 -32 27 -22 7z"/>
<path d="M3408 1623 c-10 -2 -18 -9 -18 -14 0 -6 8 -5 20 1 11 6 20 13 20 15
0 3 -1 4 -2 4 -2 -1 -11 -3 -20 -6z"/>
<path d="M3317 1578 c-32 -17 -56 -32 -54 -35 7 -6 117 50 117 59 0 10 6 12
-63 -24z"/>
<path d="M2508 1593 c7 -3 16 -2 19 1 4 3 -2 6 -13 5 -11 0 -14 -3 -6 -6z"/>
<path d="M2548 1593 c7 -3 16 -2 19 1 4 3 -2 6 -13 5 -11 0 -14 -3 -6 -6z"/>
<path d="M3469 1574 c-7 -8 -36 -31 -66 -51 -55 -36 -73 -64 -25 -39 36 19
130 105 116 106 -6 0 -17 -7 -25 -16z"/>
<path d="M2663 1563 c9 -2 23 -2 30 0 6 3 -1 5 -18 5 -16 0 -22 -2 -12 -5z"/>
<path d="M3220 1530 c-8 -5 -10 -10 -5 -10 6 0 17 5 25 10 8 5 11 10 5 10 -5
0 -17 -5 -25 -10z"/>
<path d="M3669 1519 c13 -10 28 -19 35 -19 6 0 3 5 -7 11 -9 6 -15 14 -13 18
3 4 -5 8 -17 8 -22 2 -22 2 2 -18z"/>
<path d="M2349 1502 c-43 -30 -47 -117 -8 -194 11 -21 18 -42 15 -46 -3 -5 4
-13 15 -20 27 -17 25 -2 -12 76 -24 53 -30 76 -26 111 7 64 23 76 86 62 64
-14 183 -14 276 -1 62 9 71 9 82 -7 15 -19 17 -6 4 16 -13 20 -404 23 -432 3z"/>
<path d="M3128 1492 c-84 -33 -81 -41 4 -11 68 24 73 27 67 33 -2 2 -34 -8
-71 -22z"/>
<path d="M3740 1507 c15 -16 175 -67 193 -61 12 4 17 2 13 -4 -4 -7 3 -10 19
-8 54 6 37 21 -35 30 -19 3 -60 12 -90 21 -75 22 -106 29 -100 22z"/>
<path d="M3599 1473 c0 -16 -2 -36 -4 -45 -2 -10 1 -20 6 -24 5 -3 9 18 9 45
0 52 -9 73 -11 24z"/>
<path d="M1970 1481 c0 -7 82 -32 88 -26 2 1 -17 10 -42 18 -26 9 -46 12 -46
8z"/>
<path d="M3362 1451 c-7 -4 13 -15 43 -24 122 -37 142 -73 144 -257 0 -68 4
-127 9 -132 4 -4 6 32 4 80 -5 128 5 96 17 -53 6 -72 16 -177 22 -235 7 -58 9
-130 5 -161 l-7 -56 -64 -2 c-54 -1 -67 2 -84 21 l-21 22 0 -32 0 -32 76 0
c41 0 84 5 94 10 29 16 34 83 16 252 -8 84 -18 196 -21 248 -7 106 -27 206
-50 250 -8 16 -31 41 -50 55 -39 30 -116 57 -133 46z"/>
<path d="M1730 1443 c-87 -30 -133 -74 -158 -153 -13 -38 -42 -439 -41 -555 1
-130 16 -113 22 25 4 74 13 221 21 325 13 174 16 194 41 237 32 57 64 84 116
98 22 6 39 15 39 20 0 11 -16 12 -40 3z"/>
<path d="M2080 1446 c0 -2 7 -6 15 -10 8 -3 15 -1 15 4 0 6 -7 10 -15 10 -8 0
-15 -2 -15 -4z"/>
<path d="M2131 1426 c12 -10 60 -16 54 -6 -3 5 -18 10 -32 10 -15 0 -24 -2
-22 -4z"/>
<path d="M2200 1406 c0 -2 11 -6 25 -8 13 -3 22 -1 19 3 -5 9 -44 13 -44 5z"/>
<path d="M3889 1393 c-13 -15 -12 -15 9 -4 23 12 28 21 13 21 -5 0 -15 -7 -22
-17z"/>
<path d="M3115 1374 c-22 -8 -47 -17 -55 -21 -8 -3 -17 -7 -20 -8 -3 -1 -16
-6 -30 -12 -14 -5 -67 -23 -118 -38 -50 -16 -90 -30 -88 -33 3 -2 20 1 38 6
220 68 328 105 328 113 0 12 -6 11 -55 -7z"/>
<path d="M3334 1377 c-38 -22 -70 -52 -89 -82 -15 -23 -9 -20 26 15 51 51 108
74 159 63 24 -4 31 -3 26 5 -9 16 -95 15 -122 -1z"/>
<path d="M1171 1343 l-22 -38 26 28 c14 15 25 32 25 38 0 17 -8 9 -29 -28z"/>
<path d="M1984 1360 c28 -11 84 -29 125 -41 42 -11 106 -30 143 -40 36 -10 72
-19 80 -18 20 1 -124 48 -148 49 -12 0 -61 16 -108 35 -48 19 -99 35 -114 35
-22 -1 -18 -5 22 -20z"/>
<path d="M2772 1315 c-39 -79 -40 -88 -8 -74 14 7 22 17 20 24 -3 7 4 31 15
54 22 43 26 61 13 61 -4 0 -22 -29 -40 -65z"/>
<path d="M3470 1370 c0 -5 5 -10 10 -10 6 0 10 5 10 10 0 6 -4 10 -10 10 -5 0
-10 -4 -10 -10z"/>
<path d="M1944 1338 c31 -108 36 -137 27 -159 -7 -18 -10 -20 -10 -6 -1 27
-36 89 -66 117 -24 22 -23 19 9 -30 20 -30 38 -68 42 -85 7 -39 -2 -492 -11
-527 -6 -23 -12 -27 -53 -30 -73 -5 -98 1 -110 25 -10 20 -11 18 -11 -16 l-1
-38 85 2 c59 2 90 7 98 17 7 9 14 92 19 241 4 125 12 247 17 271 6 25 11 65
11 88 0 53 -27 152 -42 152 -6 0 -8 -9 -4 -22z"/>
<path d="M3178 1354 c-4 -6 -13 -42 -19 -81 -10 -59 -9 -78 5 -127 11 -36 20
-128 27 -259 6 -127 16 -220 25 -249 l16 -48 83 0 c77 0 83 1 89 22 10 38 7
43 -13 22 -24 -26 -111 -32 -134 -9 -9 8 -19 41 -23 72 -4 32 -8 65 -9 73 -1
8 -5 26 -8 40 -3 14 -8 104 -11 200 -4 132 -2 184 8 213 8 20 12 37 10 37 -9
0 -34 -61 -36 -88 -1 -17 -6 -28 -10 -26 -11 7 -10 74 3 133 11 52 9 95 -3 75z"/>
<path d="M3830 1315 c-7 -9 -8 -15 -2 -15 5 0 12 7 16 15 3 8 4 15 2 15 -2 0
-9 -7 -16 -15z"/>
<path d="M3060 1280 c-13 -32 -84 -95 -165 -150 -27 -18 -54 -38 -60 -45 -10
-11 -90 -82 -136 -119 -38 -32 -102 -66 -123 -66 -30 0 -145 76 -252 167 -27
23 -87 72 -134 109 -47 36 -93 80 -102 98 -16 29 -17 29 -18 7 0 -27 36 -65
175 -182 104 -88 233 -182 288 -210 50 -26 78 -17 179 58 182 137 352 292 367
334 13 38 -3 38 -19 -1z"/>
<path d="M2640 1199 c-30 -5 -89 -7 -130 -4 -59 4 -71 3 -56 -6 24 -15 221 -8
238 9 6 6 10 11 8 11 -3 -1 -30 -5 -60 -10z"/>
<path d="M2010 1119 c0 -8 9 -20 20 -27 12 -7 25 -24 30 -38 6 -14 14 -23 18
-20 4 2 23 -11 42 -31 40 -40 227 -182 313 -237 51 -33 57 -40 57 -70 0 -42
-9 -68 -21 -60 -5 3 -9 1 -9 -5 0 -9 31 -31 44 -31 3 0 6 34 6 75 0 74 0 75
-32 91 -45 22 -279 199 -358 270 -107 96 -110 99 -110 83z"/>
<path d="M3109 1113 c-13 -9 -64 -53 -114 -97 -98 -87 -265 -214 -326 -249
l-39 -22 0 -73 c0 -45 4 -71 10 -67 5 3 65 15 132 26 146 24 216 41 321 76 77
27 79 28 73 56 -3 16 -6 40 -6 53 0 13 -5 24 -11 24 -8 0 -9 -14 -5 -43 8 -51
-1 -62 -54 -70 -19 -3 -69 -14 -110 -26 -41 -11 -128 -30 -194 -42 -98 -18
-120 -19 -127 -8 -11 18 -3 83 10 87 14 5 188 128 227 161 17 14 55 46 85 71
116 98 203 194 128 143z"/>
<path d="M3573 895 c0 -22 2 -30 4 -17 2 12 2 30 0 40 -3 9 -5 -1 -4 -23z"/>
<path d="M2048 880 c-2 -22 0 -40 4 -40 5 0 8 18 8 40 0 22 -2 40 -4 40 -2 0
-6 -18 -8 -40z"/>
<path d="M1648 859 c2 -16 8 -29 12 -29 9 0 1 48 -9 55 -4 2 -5 -9 -3 -26z"/>
<path d="M3142 870 c0 -14 2 -19 5 -12 2 6 2 18 0 25 -3 6 -5 1 -5 -13z"/>
<path d="M3570 812 c0 -23 5 -42 10 -42 7 0 8 14 4 38 -9 51 -14 53 -14 4z"/>
<path d="M2016 701 c13 -14 105 -37 200 -51 43 -6 105 -15 137 -20 32 -5 68
-5 80 -1 25 10 9 13 -148 31 -49 6 -127 20 -173 30 -95 23 -110 24 -96 11z"/>
<path d="M1560 662 c0 -5 7 -13 16 -16 10 -4 14 -1 12 6 -5 15 -28 23 -28 10z"/>
<path d="M1720 640 c-11 -21 -18 -22 -74 -17 -64 5 -86 2 -86 -14 0 -5 38 -9
84 -9 82 0 84 1 90 26 9 34 1 42 -14 14z"/>
<path d="M3555 644 c-18 -14 -18 -14 2 -14 23 0 39 15 26 23 -5 3 -17 -1 -28
-9z"/>
<path d="M2502 520 c0 -14 2 -19 5 -12 2 6 2 18 0 25 -3 6 -5 1 -5 -13z"/>
</g>
</svg>
