<?xml version="1.0" standalone="no"?>
<!DOCTYPE svg PUBLIC "-//W3C//DTD SVG 20010904//EN"
 "http://www.w3.org/TR/2001/REC-SVG-20010904/DTD/svg10.dtd">
<svg version="1.0" xmlns="http://www.w3.org/2000/svg"
 width="512.000000pt" height="512.000000pt" viewBox="0 0 512.000000 512.000000"
 preserveAspectRatio="xMidYMid meet">
<metadata>
Created by potrace 1.16, written by Peter Selinger 2001-2019
</metadata>
<g transform="translate(0.000000,512.000000) scale(0.100000,-0.100000)"
fill="#000000" stroke="none">
<path d="M2439 4629 c-9 -5 19 -9 75 -9 49 0 87 3 84 6 -10 9 -144 12 -159 3z"/>
<path d="M2288 4613 c6 -2 18 -2 25 0 6 3 1 5 -13 5 -14 0 -19 -2 -12 -5z"/>
<path d="M2325 4590 c-27 -10 192 -9 224 1 16 5 -17 8 -89 7 -63 0 -124 -4
-135 -8z"/>
<path d="M2215 4580 c-3 -6 1 -7 9 -4 18 7 21 14 7 14 -6 0 -13 -4 -16 -10z"/>
<path d="M2613 4583 c9 -2 23 -2 30 0 6 3 -1 5 -18 5 -16 0 -22 -2 -12 -5z"/>
<path d="M2813 4583 c9 -2 25 -2 35 0 9 3 1 5 -18 5 -19 0 -27 -2 -17 -5z"/>
<path d="M2040 4550 c-12 -8 -11 -10 8 -10 12 0 22 5 22 10 0 13 -11 13 -30 0z"/>
<path d="M2300 4550 c-60 -13 -25 -15 84 -5 52 4 76 3 72 -4 -7 -11 58 -4 83
9 18 9 -194 9 -239 0z"/>
<path d="M2610 4544 c30 -7 56 -11 59 -8 2 2 -2 5 -10 6 -8 1 11 4 41 8 45 5
37 6 -45 7 l-100 0 55 -13z"/>
<path d="M2815 4550 c-3 -5 -1 -10 4 -10 6 0 11 5 11 10 0 6 -2 10 -4 10 -3 0
-8 -4 -11 -10z"/>
<path d="M2164 4539 c-2 -4 7 -9 21 -11 13 -3 22 -2 20 3 -3 4 3 10 12 12 10
3 3 4 -15 4 -19 -1 -35 -4 -38 -8z"/>
<path d="M1970 4530 c-20 -6 -21 -8 -5 -8 11 0 29 3 40 8 25 11 -1 11 -35 0z"/>
<path d="M2240 4529 c0 -5 5 -7 10 -4 6 3 10 8 10 11 0 2 -4 4 -10 4 -5 0 -10
-5 -10 -11z"/>
<path d="M2873 4533 c9 -2 25 -2 35 0 9 3 1 5 -18 5 -19 0 -27 -2 -17 -5z"/>
<path d="M3010 4536 c0 -9 40 -13 46 -5 3 5 -6 9 -20 9 -14 0 -26 -2 -26 -4z"/>
<path d="M2363 4513 c9 -2 25 -2 35 0 9 3 1 5 -18 5 -19 0 -27 -2 -17 -5z"/>
<path d="M2720 4508 c0 -5 21 -8 47 -8 25 0 44 3 40 6 -9 9 -87 10 -87 2z"/>
<path d="M2048 4503 c6 -2 18 -2 25 0 6 3 1 5 -13 5 -14 0 -19 -2 -12 -5z"/>
<path d="M2255 4500 c-27 -7 -27 -8 -5 -8 14 0 36 4 50 8 20 6 21 8 5 8 -11 0
-33 -4 -50 -8z"/>
<path d="M2510 4502 c15 -9 71 -17 200 -27 43 -4 60 -2 50 4 -9 5 -53 12 -99
15 -45 3 -102 9 -124 12 -29 3 -37 2 -27 -4z"/>
<path d="M2826 4501 c5 -6 24 -6 44 -1 l35 8 -44 1 c-28 1 -41 -3 -35 -8z"/>
<path d="M2913 4503 c10 -10 80 -12 96 -3 9 5 -7 8 -43 9 -32 0 -56 -2 -53 -6z"/>
<path d="M3130 4506 c0 -9 30 -14 35 -6 4 6 -3 10 -14 10 -12 0 -21 -2 -21 -4z"/>
<path d="M2008 4493 c7 -3 16 -2 19 1 4 3 -2 6 -13 5 -11 0 -14 -3 -6 -6z"/>
<path d="M3050 4485 c0 -8 6 -15 14 -15 22 0 28 17 10 24 -22 9 -24 8 -24 -9z"/>
<path d="M2200 4480 c0 -5 7 -10 16 -10 8 0 12 5 9 10 -3 6 -10 10 -16 10 -5
0 -9 -4 -9 -10z"/>
<path d="M2045 4470 c-7 -11 9 -11 45 0 24 8 24 8 -7 9 -17 1 -35 -3 -38 -9z"/>
<path d="M2968 4463 c6 -2 18 -2 25 0 6 3 1 5 -13 5 -14 0 -19 -2 -12 -5z"/>
<path d="M3218 4463 c7 -3 16 -2 19 1 4 3 -2 6 -13 5 -11 0 -14 -3 -6 -6z"/>
<path d="M1907 4443 c-19 -11 -17 -11 18 -6 22 3 44 9 49 13 13 12 -43 6 -67
-7z"/>
<path d="M3120 4450 c0 -6 7 -10 15 -10 8 0 15 2 15 4 0 2 -7 6 -15 10 -8 3
-15 1 -15 -4z"/>
<path d="M2898 4443 c7 -3 16 -2 19 1 4 3 -2 6 -13 5 -11 0 -14 -3 -6 -6z"/>
<path d="M3048 4443 c12 -2 30 -2 40 0 9 3 -1 5 -23 4 -22 0 -30 -2 -17 -4z"/>
<path d="M1822 4435 c10 -11 48 -14 48 -4 0 5 -12 9 -27 9 -14 0 -24 -2 -21
-5z"/>
<path d="M2025 4430 c-3 -5 -1 -10 4 -10 6 0 11 5 11 10 0 6 -2 10 -4 10 -3 0
-8 -4 -11 -10z"/>
<path d="M2155 4430 l-30 -8 32 -1 c17 0 35 4 38 9 7 11 3 11 -40 0z"/>
<path d="M3200 4430 c14 -4 36 -8 50 -8 l25 0 -25 8 c-14 4 -36 8 -50 8 l-25
0 25 -8z"/>
<path d="M3289 4417 c5 -5 21 -7 37 -5 27 3 26 4 -8 9 -22 3 -34 1 -29 -4z"/>
<path d="M1778 4413 c6 -2 18 -2 25 0 6 3 1 5 -13 5 -14 0 -19 -2 -12 -5z"/>
<path d="M3128 4413 c12 -2 30 -2 40 0 9 3 -1 5 -23 4 -22 0 -30 -2 -17 -4z"/>
<path d="M1805 4385 c-31 -11 -34 -14 -15 -14 14 0 39 6 55 14 38 17 13 17
-40 0z"/>
<path d="M3224 4391 c3 -5 17 -8 32 -8 18 0 22 2 13 8 -18 11 -52 11 -45 0z"/>
<path d="M1890 4380 c-22 -7 -21 -8 13 -9 20 -1 37 4 37 9 0 11 -14 11 -50 0z"/>
<path d="M3010 4380 c0 -5 7 -10 16 -10 8 0 12 5 9 10 -3 6 -10 10 -16 10 -5
0 -9 -4 -9 -10z"/>
<path d="M3290 4382 c0 -4 10 -9 22 -9 18 -2 20 0 8 7 -18 12 -30 13 -30 2z"/>
<path d="M1670 4360 c-9 -6 -10 -10 -3 -10 6 0 15 5 18 10 8 12 4 12 -15 0z"/>
<path d="M3485 4360 c-3 -5 -1 -10 4 -10 6 0 11 5 11 10 0 6 -2 10 -4 10 -3 0
-8 -4 -11 -10z"/>
<path d="M1550 4339 c0 -5 5 -7 10 -4 6 3 10 8 10 11 0 2 -4 4 -10 4 -5 0 -10
-5 -10 -11z"/>
<path d="M1619 4329 l-24 -20 28 17 c15 9 27 18 27 20 0 8 -8 4 -31 -17z"/>
<path d="M1725 4340 c-3 -5 -1 -10 4 -10 6 0 11 5 11 10 0 6 -2 10 -4 10 -3 0
-8 -4 -11 -10z"/>
<path d="M3125 4340 c-3 -5 3 -10 15 -10 12 0 18 5 15 10 -3 6 -10 10 -15 10
-5 0 -12 -4 -15 -10z"/>
<path d="M3275 4341 c3 -6 22 -11 42 -11 44 0 41 5 -10 14 -27 5 -37 4 -32 -3z"/>
<path d="M1798 4333 c7 -3 16 -2 19 1 4 3 -2 6 -13 5 -11 0 -14 -3 -6 -6z"/>
<path d="M3548 4333 c7 -3 16 -2 19 1 4 3 -2 6 -13 5 -11 0 -14 -3 -6 -6z"/>
<path d="M3223 4319 c9 -6 15 -14 12 -20 -3 -5 1 -6 9 -3 13 5 13 8 1 20 -7 8
-20 14 -27 14 -8 0 -6 -5 5 -11z"/>
<path d="M3450 4326 c0 -2 7 -6 15 -10 8 -3 15 -1 15 4 0 6 -7 10 -15 10 -8 0
-15 -2 -15 -4z"/>
<path d="M3500 4320 c0 -5 4 -10 9 -10 6 0 13 5 16 10 3 6 -1 10 -9 10 -9 0
-16 -4 -16 -10z"/>
<path d="M1735 4310 c-3 -5 -1 -10 4 -10 6 0 11 5 11 10 0 6 -2 10 -4 10 -3 0
-8 -4 -11 -10z"/>
<path d="M1937 4309 c8 -8 16 -8 30 0 16 9 14 10 -11 11 -22 0 -27 -3 -19 -11z"/>
<path d="M3400 4312 c0 -13 47 -28 57 -18 4 3 -3 6 -13 6 -11 0 -25 5 -32 12
-9 9 -12 9 -12 0z"/>
<path d="M1550 4300 c0 -5 7 -7 15 -4 8 4 15 8 15 10 0 2 -7 4 -15 4 -8 0 -15
-4 -15 -10z"/>
<path d="M1635 4269 c-39 -24 -21 -24 25 1 19 11 28 19 20 19 -8 0 -28 -9 -45
-20z"/>
<path d="M3540 4270 c0 -5 5 -10 10 -10 6 0 10 5 10 10 0 6 -4 10 -10 10 -5 0
-10 -4 -10 -10z"/>
<path d="M1525 4260 c-3 -5 -2 -10 4 -10 5 0 13 5 16 10 3 6 2 10 -4 10 -5 0
-13 -4 -16 -10z"/>
<path d="M3356 4254 c-9 -22 3 -32 14 -14 12 19 12 30 1 30 -5 0 -12 -7 -15
-16z"/>
<path d="M1820 4250 c0 -5 7 -10 15 -10 8 0 15 5 15 10 0 6 -7 10 -15 10 -8 0
-15 -4 -15 -10z"/>
<path d="M3320 4250 c0 -5 5 -10 10 -10 6 0 10 5 10 10 0 6 -4 10 -10 10 -5 0
-10 -4 -10 -10z"/>
<path d="M1550 4230 c-13 -8 -12 -10 3 -10 9 0 17 5 17 10 0 12 -1 12 -20 0z"/>
<path d="M3555 4230 c3 -5 14 -10 23 -10 15 0 15 2 2 10 -20 13 -33 13 -25 0z"/>
<path d="M3660 4230 c0 -5 5 -10 11 -10 5 0 7 5 4 10 -3 6 -8 10 -11 10 -2 0
-4 -4 -4 -10z"/>
<path d="M1405 4220 c-3 -5 -1 -10 4 -10 6 0 11 5 11 10 0 6 -2 10 -4 10 -3 0
-8 -4 -11 -10z"/>
<path d="M1695 4210 c-18 -8 -17 -9 7 -9 15 -1 30 4 33 9 7 12 -12 12 -40 0z"/>
<path d="M3460 4200 c0 -5 16 -10 35 -10 19 0 35 5 35 10 0 6 -16 10 -35 10
-19 0 -35 -4 -35 -10z"/>
<path d="M1355 4190 c-3 -5 -2 -10 4 -10 5 0 13 5 16 10 3 6 2 10 -4 10 -5 0
-13 -4 -16 -10z"/>
<path d="M1440 4190 c-13 -8 -13 -10 2 -10 9 0 20 5 23 10 8 13 -5 13 -25 0z"/>
<path d="M3630 4190 c19 -13 30 -13 30 0 0 6 -10 10 -22 10 -19 0 -20 -2 -8
-10z"/>
<path d="M3678 4183 c7 -3 16 -2 19 1 4 3 -2 6 -13 5 -11 0 -14 -3 -6 -6z"/>
<path d="M1329 4143 c-13 -15 -12 -15 9 -4 23 12 28 21 13 21 -5 0 -15 -7 -22
-17z"/>
<path d="M3625 4150 c3 -5 11 -10 16 -10 6 0 7 5 4 10 -3 6 -11 10 -16 10 -6
0 -7 -4 -4 -10z"/>
<path d="M3425 4130 c-3 -5 3 -10 15 -10 12 0 18 5 15 10 -3 6 -10 10 -15 10
-5 0 -12 -4 -15 -10z"/>
<path d="M1568 4118 c17 -8 26 -8 34 0 9 9 4 12 -22 11 -33 0 -34 -1 -12 -11z"/>
<path d="M1355 4110 c-3 -6 1 -7 9 -4 18 7 21 14 7 14 -6 0 -13 -4 -16 -10z"/>
<path d="M3745 3934 c-148 -121 -308 -260 -475 -415 -571 -529 -757 -699 -762
-699 -2 0 -55 51 -118 113 -111 107 -288 275 -560 528 -170 159 -423 379 -435
379 -12 0 -7 -5 185 -172 85 -74 162 -143 169 -154 8 -10 -5 -1 -30 22 -24 22
-73 65 -109 94 -120 101 -230 202 -225 210 6 9 -213 192 -225 188 -11 -4 132
-243 240 -403 180 -266 352 -484 653 -828 119 -136 217 -250 217 -252 0 -3
-42 -39 -92 -81 -51 -42 -95 -81 -97 -86 -12 -33 165 101 195 147 22 33 23 31
-194 277 -247 280 -414 488 -583 723 -124 173 -270 405 -255 405 3 0 20 -15
39 -32 18 -18 64 -60 102 -93 38 -33 92 -80 120 -105 77 -68 165 -143 193
-165 14 -11 54 -45 87 -75 34 -30 97 -86 141 -125 100 -88 207 -190 402 -380
84 -82 162 -151 173 -153 20 -4 92 56 269 222 173 163 344 320 410 376 28 24
211 194 275 255 22 22 59 55 81 72 40 33 124 104 179 152 41 35 95 73 95 67 0
-13 -135 -229 -248 -396 -252 -374 -386 -542 -642 -803 -109 -112 -166 -178
-168 -194 -3 -20 13 -41 85 -111 48 -47 106 -98 127 -114 54 -39 82 -36 31 4
-54 43 -225 210 -225 219 0 5 68 77 151 161 240 243 360 388 566 683 157 225
403 615 403 639 0 15 -22 -1 -145 -100z"/>
<path d="M4140 3819 c0 -5 5 -7 10 -4 6 3 10 8 10 11 0 2 -4 4 -10 4 -5 0 -10
-5 -10 -11z"/>
<path d="M4410 3499 c0 -5 5 -7 10 -4 6 3 10 8 10 11 0 2 -4 4 -10 4 -5 0 -10
-5 -10 -11z"/>
<path d="M4530 3319 c0 -5 5 -7 10 -4 6 3 10 8 10 11 0 2 -4 4 -10 4 -5 0 -10
-5 -10 -11z"/>
<path d="M1930 2706 c0 -29 -134 -354 -236 -573 -206 -442 -314 -685 -314
-707 0 -18 64 109 149 296 94 207 122 268 191 413 63 134 121 265 125 285 3
16 50 135 85 215 16 37 23 46 30 35 5 -8 7 -25 3 -37 -4 -18 -1 -23 13 -23 10
0 28 -10 41 -22 21 -20 23 -20 17 -3 -6 15 0 13 29 -10 20 -16 34 -31 32 -34
-3 -2 -14 4 -25 14 -11 10 -20 14 -20 9 0 -10 50 -54 62 -54 14 0 9 -16 -14
-45 -20 -26 -34 -65 -24 -65 2 0 23 23 46 50 l42 51 -113 109 c-62 61 -114
110 -116 110 -2 0 -3 -6 -3 -14z m95 -104 c-7 -7 -45 29 -45 41 0 6 11 0 25
-13 14 -13 23 -26 20 -28z"/>
<path d="M3124 2708 c-2 -7 -51 -53 -109 -103 -57 -49 -104 -94 -104 -98 -2
-18 124 -190 127 -175 2 9 -18 48 -43 87 -26 38 -45 74 -44 80 5 14 150 141
161 141 10 0 103 -191 181 -372 26 -58 71 -157 100 -220 30 -62 67 -142 83
-178 15 -36 46 -99 67 -140 22 -41 64 -122 93 -180 98 -190 45 -50 -76 200
-105 219 -280 595 -280 604 0 2 -12 30 -27 62 -15 33 -27 70 -29 84 -2 32 -77
220 -87 220 -4 0 -10 -6 -13 -12z m36 -75 c38 -81 61 -136 57 -139 -4 -4 -90
153 -95 174 -2 6 1 12 6 12 5 0 20 -21 32 -47z"/>
<path d="M2445 2294 c-99 -94 -252 -237 -375 -348 -25 -23 -67 -59 -95 -81
-68 -54 -77 -63 -71 -74 6 -10 -6 -21 -209 -195 -82 -71 -162 -139 -177 -152
-34 -30 -38 -30 -30 -1 5 19 3 20 -10 9 -18 -15 -30 -62 -15 -62 30 0 699 593
990 879 122 119 128 124 142 104 14 -20 492 -477 636 -609 130 -118 321 -294
386 -356 34 -32 64 -58 67 -58 7 0 -64 153 -77 165 -7 7 -8 4 -3 -8 3 -11 9
-31 13 -45 l6 -27 -39 34 c-21 19 -82 75 -134 125 -53 50 -122 115 -155 144
-86 77 -332 311 -556 529 -98 95 -144 133 -160 133 -17 0 -59 -34 -134 -106z"/>
<path d="M1806 1726 c-93 -78 -219 -196 -209 -196 5 0 71 54 148 121 166 142
162 139 149 139 -6 0 -45 -29 -88 -64z"/>
<path d="M1560 1510 c-9 -6 -10 -10 -3 -10 6 0 15 5 18 10 8 12 4 12 -15 0z"/>
</g>
</svg>
