<?xml version="1.0" standalone="no"?>
<!DOCTYPE svg PUBLIC "-//W3C//DTD SVG 20010904//EN"
 "http://www.w3.org/TR/2001/REC-SVG-20010904/DTD/svg10.dtd">
<svg version="1.0" xmlns="http://www.w3.org/2000/svg"
 width="512.000000pt" height="512.000000pt" viewBox="0 0 512.000000 512.000000"
 preserveAspectRatio="xMidYMid meet">
<metadata>
Created by potrace 1.16, written by Peter Selinger 2001-2019
</metadata>
<g transform="translate(0.000000,512.000000) scale(0.100000,-0.100000)"
fill="#000000" stroke="none">
<path d="M3005 4728 c-2 -7 -9 -30 -15 -51 -10 -31 -14 -36 -26 -26 -15 12
-44 6 -44 -11 0 -5 22 -10 48 -10 48 0 48 0 65 47 14 37 15 48 5 55 -18 11
-28 10 -33 -4z"/>
<path d="M2283 4703 c-17 -3 -23 -11 -23 -29 0 -21 4 -24 28 -21 21 3 28 10
30 30 2 15 0 26 -5 26 -4 -1 -18 -4 -30 -6z"/>
<path d="M2344 4694 c3 -9 6 -20 6 -25 0 -5 9 -9 20 -9 15 0 20 7 20 25 0 20
-5 25 -26 25 -20 0 -25 -4 -20 -16z"/>
<path d="M3073 4660 l-22 -50 30 0 c22 0 29 5 29 19 0 11 5 23 10 26 6 3 10
17 10 31 0 44 -33 29 -57 -26z"/>
<path d="M3160 4697 c0 -7 -9 -30 -20 -52 -22 -43 -22 -42 4 -47 23 -4 54 44
55 85 1 21 -4 27 -19 27 -11 0 -20 -6 -20 -13z m13 -42 c-3 -9 -8 -14 -10 -11
-3 3 -2 9 2 15 9 16 15 13 8 -4z"/>
<path d="M2201 4687 c-6 -8 -7 -18 -3 -23 4 -5 -3 -1 -15 10 -26 21 -43 14
-36 -15 5 -16 12 -19 42 -17 31 3 36 7 39 31 4 29 -9 35 -27 14z"/>
<path d="M2097 4684 c-4 -4 -7 -18 -7 -31 0 -17 6 -23 21 -23 16 0 20 5 17 27
-3 26 -18 39 -31 27z"/>
<path d="M3214 4639 c-26 -52 -26 -66 0 -56 21 8 69 84 61 96 -14 23 -36 9
-61 -40z"/>
<path d="M2020 4645 c0 -38 13 -44 44 -22 16 12 17 16 5 35 -8 12 -22 22 -31
22 -14 0 -18 -8 -18 -35z m40 6 c0 -6 -4 -13 -10 -16 -5 -3 -10 1 -10 9 0 9 5
16 10 16 6 0 10 -4 10 -9z"/>
<path d="M3344 4655 c-3 -8 -3 -18 0 -23 3 -5 -3 -17 -14 -27 -18 -16 -20 -16
-20 -2 0 9 5 19 10 22 14 9 12 25 -3 25 -13 0 -37 -39 -37 -59 0 -5 14 -11 31
-13 27 -4 32 0 50 33 10 21 19 43 19 49 0 15 -30 12 -36 -5z"/>
<path d="M1958 4653 c-10 -2 -18 -8 -18 -11 0 -4 -3 -17 -6 -29 -6 -21 -4 -23
27 -17 44 8 49 14 38 42 -9 22 -11 23 -41 15z"/>
<path d="M1868 4629 c-10 -5 -18 -22 -18 -36 0 -21 3 -24 23 -19 12 3 27 6 33
6 6 0 9 13 6 30 -4 31 -15 36 -44 19z"/>
<path d="M3397 4610 l-18 -30 25 0 c37 0 56 10 56 31 0 10 -4 19 -9 19 -5 0
-15 2 -23 5 -8 3 -21 -7 -31 -25z m33 -4 c0 -3 -4 -8 -10 -11 -5 -3 -10 -1
-10 4 0 6 5 11 10 11 6 0 10 -2 10 -4z"/>
<path d="M1817 4614 c-4 -4 -7 -16 -7 -26 0 -10 -4 -18 -10 -18 -5 0 -7 6 -4
14 6 17 -14 32 -26 20 -5 -5 -6 -22 -3 -37 4 -23 9 -26 27 -21 36 11 51 31 40
54 -5 12 -13 18 -17 14z"/>
<path d="M3564 4608 c-15 -24 -54 -99 -54 -104 0 -16 43 1 56 22 15 22 15 27
3 35 -11 7 -9 9 7 9 22 0 39 24 28 41 -8 13 -32 11 -40 -3z"/>
<path d="M1698 4583 c-21 -5 -21 -4 -8 -37 6 -16 17 -26 29 -26 26 0 34 15 27
46 -6 24 -14 26 -48 17z m32 -33 c0 -5 -4 -10 -10 -10 -5 0 -10 5 -10 10 0 6
5 10 10 10 6 0 10 -4 10 -10z"/>
<path d="M2263 4566 c-61 -8 -73 -13 -73 -28 0 -20 8 -21 99 -12 50 6 61 10
61 25 0 25 -5 26 -87 15z"/>
<path d="M1605 4560 c-6 -10 35 -90 46 -90 4 0 12 6 18 14 9 11 7 22 -10 50
-21 35 -42 46 -54 26z"/>
<path d="M3611 4537 c-26 -43 -27 -57 -2 -57 23 0 63 47 59 69 -6 29 -35 23
-57 -12z m29 -11 c0 -2 -8 -10 -17 -17 -16 -13 -17 -12 -4 4 13 16 21 21 21
13z"/>
<path d="M2122 4553 c-17 -3 -22 -10 -20 -26 2 -18 9 -21 33 -19 17 2 31 5 32
6 5 4 -10 46 -16 45 -3 -1 -16 -4 -29 -6z"/>
<path d="M2810 4535 c0 -21 4 -24 36 -21 32 3 53 18 54 37 0 3 -20 6 -45 7
-41 0 -45 -2 -45 -23z"/>
<path d="M3020 4541 c0 -13 10 -20 30 -24 32 -7 60 0 60 14 0 11 -10 15 -57
23 -27 5 -33 2 -33 -13z"/>
<path d="M3394 4552 c-17 -11 -36 -51 -29 -62 11 -17 22 -11 43 22 25 39 17
61 -14 40z"/>
<path d="M1291 4513 c12 -21 31 -47 41 -59 26 -29 23 -39 -18 -63 -19 -12 -32
-25 -29 -31 6 -9 52 14 66 33 4 5 10 4 14 -2 9 -16 -13 -41 -36 -41 -11 0 -19
-7 -19 -15 0 -22 -17 -18 -23 5 -6 22 -27 27 -27 7 0 -16 32 -47 47 -47 6 0
22 13 36 29 14 17 27 28 30 25 7 -7 67 24 67 34 0 5 -12 33 -26 62 -14 30 -30
65 -35 77 -7 20 -16 23 -60 23 l-51 0 23 -37z m75 -18 c3 -14 11 -25 16 -25 6
0 7 -7 4 -15 -3 -9 1 -18 9 -21 9 -4 13 -15 11 -27 -3 -12 -5 -26 -5 -30 -1
-5 -8 -1 -17 7 -8 9 -13 20 -10 25 3 5 -2 19 -12 32 -20 28 -42 66 -42 74 0 3
9 5 20 5 13 0 22 -9 26 -25z"/>
<path d="M1490 4537 c0 -20 30 -57 46 -57 16 0 18 23 4 51 -12 21 -50 26 -50
6z"/>
<path d="M2918 4543 c-25 -6 -22 -30 5 -37 50 -13 95 2 71 24 -12 11 -56 18
-76 13z"/>
<path d="M3296 4528 c-23 -37 -29 -68 -14 -68 13 0 48 59 48 80 0 18 -19 10
-34 -12z"/>
<path d="M2030 4515 c0 -27 3 -28 36 -19 30 8 20 44 -12 44 -19 0 -24 -5 -24
-25z"/>
<path d="M3132 4528 c-17 -17 -15 -48 3 -48 14 0 35 29 35 49 0 15 -23 14 -38
-1z"/>
<path d="M3690 4499 c-28 -39 -29 -44 -13 -50 24 -9 31 -4 48 38 24 56 2 63
-35 12z"/>
<path d="M1978 4523 c-28 -7 -23 -43 5 -43 13 0 26 3 29 6 7 7 -2 44 -11 43
-3 -1 -14 -3 -23 -6z"/>
<path d="M1899 4508 c-11 -38 -8 -49 13 -46 31 4 39 48 9 48 -12 0 -21 -1 -22
-2z"/>
<path d="M1824 4475 c-8 -19 3 -35 25 -35 24 0 30 8 24 31 -6 22 -41 26 -49 4z"/>
<path d="M3792 4454 c-18 -27 -21 -39 -12 -48 8 -8 18 -4 36 18 25 28 29 56 9
63 -5 1 -21 -13 -33 -33z"/>
<path d="M720 4427 l5 -53 205 -200 c238 -230 459 -437 472 -443 5 -1 30 -25
56 -52 26 -27 51 -49 56 -49 5 0 -20 30 -55 68 -72 76 -85 92 -200 247 -44 61
-90 119 -100 131 -10 11 -19 26 -19 33 0 8 -37 55 -83 105 -123 134 -186 214
-193 241 -6 24 -10 25 -78 25 l-71 0 5 -53z m144 -10 c19 -42 123 -173 203
-256 24 -24 43 -48 43 -52 0 -5 4 -9 10 -9 5 0 7 -6 4 -14 -3 -8 6 -25 20 -37
14 -13 26 -26 26 -30 0 -5 11 -20 25 -35 37 -40 22 -42 -22 -4 -69 60 -408
393 -407 399 1 3 15 5 32 3 17 -2 33 1 36 7 8 13 -55 25 -83 16 -18 -5 -21 -2
-21 24 l0 31 58 0 57 -1 19 -42z"/>
<path d="M4264 4441 c-8 -18 -51 -77 -97 -130 -118 -136 -197 -234 -197 -243
0 -4 11 -8 25 -8 17 0 28 -7 33 -21 7 -18 27 -2 178 143 93 91 177 169 186
174 11 6 17 25 19 63 l3 53 -68 2 -68 1 -14 -34z m133 -26 l2 -40 -14 33 c-10
20 -22 32 -34 32 -29 0 -51 -11 -51 -25 0 -7 -7 -16 -16 -19 -9 -4 -14 -9 -11
-12 3 -4 19 3 35 15 38 26 49 26 57 0 6 -18 -8 -37 -82 -108 -200 -193 -231
-221 -252 -221 -11 0 -21 3 -21 6 0 6 39 65 50 74 6 5 108 126 125 148 6 7 24
27 40 45 17 17 32 41 33 52 2 11 7 22 11 25 4 3 10 13 14 23 6 15 16 18 59 15
l53 -3 2 -40z"/>
<path d="M1548 4464 c-7 -7 2 -44 11 -44 17 1 31 18 25 33 -6 17 -25 22 -36
11z"/>
<path d="M1752 4462 c-15 -10 -5 -42 13 -42 32 0 45 12 34 31 -10 20 -26 24
-47 11z"/>
<path d="M3331 4447 c-15 -15 -14 -37 2 -37 14 0 37 19 37 31 0 13 -28 17 -39
6z"/>
<path d="M3452 4431 c-26 -35 -28 -51 -7 -51 21 0 57 38 53 57 -5 27 -23 25
-46 -6z m28 -11 c0 -5 -4 -10 -10 -10 -5 0 -10 5 -10 10 0 6 5 10 10 10 6 0
10 -4 10 -10z"/>
<path d="M3851 4414 c-24 -30 -27 -49 -9 -60 13 -8 68 51 68 73 0 23 -38 14
-59 -13z m26 -20 c-3 -3 -12 -4 -19 -1 -8 3 -5 6 6 6 11 1 17 -2 13 -5z"/>
<path d="M1670 4409 c0 -15 4 -19 16 -15 9 3 20 6 26 6 6 0 6 6 -2 15 -18 22
-40 18 -40 -6z"/>
<path d="M3552 4418 c-7 -7 -12 -19 -12 -28 0 -22 36 -54 50 -45 9 6 9 10 -1
16 -11 7 -12 12 -1 29 6 11 12 24 12 30 0 14 -33 13 -48 -2z"/>
<path d="M3621 4394 c-16 -20 -18 -30 -10 -45 13 -26 31 -14 23 16 -3 12 -1
26 5 29 7 5 11 -2 11 -15 0 -18 2 -19 15 -9 20 16 19 36 -1 44 -22 8 -20 9
-43 -20z"/>
<path d="M3917 4378 c-18 -31 -18 -33 0 -46 16 -11 21 -10 40 15 27 33 29 49
7 57 -25 10 -28 8 -47 -26z m42 -1 c-2 -1 -12 -9 -22 -16 -15 -12 -17 -12 -11
3 3 9 13 16 22 16 8 0 13 -1 11 -3z"/>
<path d="M2185 4390 c-3 -6 1 -7 9 -4 11 4 16 0 16 -10 0 -9 5 -16 11 -16 6 0
8 7 5 16 -3 9 -6 18 -6 20 0 8 -29 4 -35 -6z"/>
<path d="M1586 4368 c-34 -18 -37 -21 -24 -35 14 -13 19 -13 47 1 29 16 40 39
24 49 -5 3 -25 -4 -47 -15z"/>
<path d="M1702 4376 c-19 -10 -21 -15 -10 -23 10 -8 18 -8 32 3 27 20 8 37
-22 20z"/>
<path d="M2125 4381 c-3 -5 -21 -8 -39 -6 -29 2 -35 -1 -39 -21 -3 -16 0 -24
9 -24 8 0 14 4 14 9 0 12 49 28 77 26 14 -1 19 3 16 12 -6 15 -29 17 -38 4z"/>
<path d="M3305 4379 c-4 -6 -5 -13 -2 -16 7 -7 27 6 27 18 0 12 -17 12 -25 -2z"/>
<path d="M3692 4368 c-20 -20 -14 -40 11 -36 14 2 22 10 22 22 0 24 -16 31
-33 14z"/>
<path d="M3455 4361 c-3 -5 -1 -12 5 -16 5 -3 10 1 10 9 0 18 -6 21 -15 7z"/>
<path d="M1508 4329 c-16 -9 -26 -49 -12 -49 5 0 45 19 52 25 5 4 -10 35 -17
35 -3 0 -14 -5 -23 -11z"/>
<path d="M1205 4320 c-16 -26 49 -88 72 -68 19 15 16 24 -14 53 -29 26 -48 31
-58 15z m48 -50 c-7 -8 -22 24 -16 34 4 5 10 1 13 -10 4 -10 6 -21 3 -24z"/>
<path d="M3812 4308 c5 -15 28 -18 29 -3 0 6 -7 12 -17 13 -10 3 -15 -1 -12
-10z"/>
<path d="M3865 4300 c-4 -6 -3 -14 0 -20 9 -15 35 -12 35 4 0 17 -27 29 -35
16z"/>
<path d="M1431 4291 c-16 -10 -8 -41 11 -41 7 0 19 4 27 9 12 8 12 12 2 25
-15 18 -21 19 -40 7z"/>
<path d="M3660 4293 c0 -5 5 -15 10 -23 9 -13 11 -13 19 0 5 8 7 18 5 22 -6
10 -34 11 -34 1z"/>
<path d="M1918 4283 c7 -3 16 -2 19 1 4 3 -2 6 -13 5 -11 0 -14 -3 -6 -6z"/>
<path d="M3766 4261 c-17 -19 -22 -51 -8 -51 12 0 42 34 42 48 0 20 -17 22
-34 3z"/>
<path d="M1835 4263 c-10 -3 -29 -12 -42 -20 -12 -8 -27 -12 -32 -8 -6 3 -19
-3 -31 -15 -11 -11 -33 -20 -50 -20 -23 0 -30 -4 -30 -20 0 -11 3 -20 6 -20 8
0 48 22 54 29 5 6 51 21 138 44 23 6 41 16 39 22 -4 12 -24 15 -52 8z"/>
<path d="M1354 4235 c-10 -25 10 -39 36 -25 26 14 22 34 -8 38 -13 2 -25 -3
-28 -13z"/>
<path d="M3585 4230 c-9 -14 0 -23 26 -27 15 -2 20 2 17 14 -4 21 -33 29 -43
13z"/>
<path d="M3840 4215 c0 -27 9 -32 28 -13 8 8 9 15 1 25 -17 20 -29 15 -29 -12z"/>
<path d="M3652 4197 c-7 -8 -7 -18 -2 -27 8 -13 11 -12 24 5 22 30 1 50 -22
22z"/>
<path d="M1301 4186 c-8 -10 -8 -16 2 -24 17 -14 42 2 34 22 -8 20 -21 20 -36
2z"/>
<path d="M3710 4161 c0 -11 5 -23 10 -26 6 -3 10 3 10 14 0 11 -4 23 -10 26
-5 3 -10 -3 -10 -14z"/>
<path d="M1251 4147 c-6 -8 -8 -17 -4 -20 3 -4 -3 -7 -15 -7 -22 0 -31 -24
-13 -34 13 -8 74 51 66 64 -8 14 -20 13 -34 -3z"/>
<path d="M1540 4140 c0 -5 5 -10 10 -10 6 0 10 5 10 10 0 6 -4 10 -10 10 -5 0
-10 -4 -10 -10z"/>
<path d="M1583 4130 c-37 -17 -44 -35 -10 -25 23 7 54 32 46 38 -2 1 -19 -4
-36 -13z"/>
<path d="M1920 4135 c0 -5 5 -17 10 -25 5 -8 10 -10 10 -5 0 6 -5 17 -10 25
-5 8 -10 11 -10 5z"/>
<path d="M3656 4131 c-6 -10 10 -25 37 -34 9 -4 17 -13 17 -22 0 -8 5 -15 10
-15 15 0 12 28 -6 55 -16 25 -48 33 -58 16z"/>
<path d="M3743 4129 c-16 -16 -5 -39 19 -39 18 0 19 2 7 16 -10 13 -10 17 2
25 12 7 12 9 -1 9 -9 0 -21 -5 -27 -11z"/>
<path d="M3800 4085 c-10 -12 -8 -18 11 -35 29 -24 38 -25 46 -4 3 9 -3 23
-15 35 -25 23 -26 23 -42 4z"/>
<path d="M1358 4083 c-21 -5 -22 -29 -3 -63 13 -23 14 -24 21 -6 5 12 3 21 -4
24 -7 2 -12 11 -12 20 0 15 2 15 10 2 8 -12 10 -11 10 8 0 12 -1 21 -2 21 -2
-1 -11 -3 -20 -6z"/>
<path d="M1940 4066 c0 -8 5 -18 10 -21 6 -3 10 1 10 9 0 8 -4 18 -10 21 -5 3
-10 -1 -10 -9z"/>
<path d="M1285 4050 c-17 -19 -17 -20 15 -50 38 -35 40 -36 40 -11 0 10 -7 22
-16 25 -11 4 -14 13 -10 31 8 30 -4 32 -29 5z"/>
<path d="M3881 4038 c-75 -91 -126 -159 -138 -183 -8 -16 -29 -45 -46 -62 -17
-18 -27 -33 -21 -33 20 0 224 246 224 271 0 22 -5 24 -19 7z"/>
<path d="M1960 4023 c0 -4 5 -15 10 -23 8 -13 10 -13 10 2 0 9 -4 20 -10 23
-5 3 -10 3 -10 -2z"/>
<path d="M2385 3905 c-148 -28 -335 -114 -482 -223 -87 -65 -198 -180 -285
-293 -54 -71 -163 -267 -153 -277 2 -2 -2 -11 -10 -18 -19 -20 -67 -179 -70
-234 -1 -25 -8 -61 -14 -80 -12 -38 -15 -118 -5 -144 10 -27 24 -18 24 17 0
112 66 354 141 516 17 36 36 77 42 91 7 14 20 32 29 41 10 9 18 24 18 33 0 10
5 14 10 11 6 -3 10 -1 10 5 0 32 168 216 265 291 27 21 55 43 62 49 7 5 17 10
23 10 5 0 10 4 10 9 0 5 8 11 18 15 9 3 42 19 72 36 151 85 247 116 411 130
139 13 263 1 394 -36 77 -22 128 -44 276 -120 14 -8 36 -25 49 -39 13 -14 27
-25 31 -25 4 0 33 -24 65 -52 140 -129 166 -161 158 -193 -6 -24 22 -95 37
-95 5 0 9 -4 9 -10 0 -5 17 -38 38 -72 96 -159 165 -352 196 -548 9 -51 18
-96 22 -99 3 -3 194 -6 425 -6 l419 0 0 -40 0 -40 -406 -2 c-385 -2 -408 -3
-425 -21 -16 -18 -31 -98 -44 -232 -5 -54 -46 -178 -91 -277 -54 -120 -153
-259 -233 -327 -14 -12 -45 -39 -70 -61 -55 -48 -146 -116 -181 -135 -14 -7
-27 -16 -30 -20 -3 -4 -30 -19 -60 -33 -220 -101 -265 -111 -490 -111 -161 0
-195 2 -265 22 -189 53 -353 138 -469 242 -203 183 -291 303 -389 530 -30 70
-75 254 -85 348 -7 74 7 72 -464 72 l-418 0 0 40 0 40 430 0 c237 0 430 4 430
8 0 15 -179 22 -542 22 l-348 0 0 -70 0 -69 440 2 440 2 0 -36 c0 -129 87
-407 172 -548 92 -152 258 -330 399 -427 294 -203 658 -267 974 -172 149 45
337 151 460 259 91 80 76 81 158 -7 41 -44 104 -114 141 -156 62 -72 86 -91
86 -69 0 11 -123 151 -217 248 l-70 72 40 38 c54 52 157 212 201 309 64 144
105 304 108 425 l2 69 420 2 420 3 0 63 1 63 -409 -1 c-225 0 -419 -3 -432 -6
-19 -5 -22 -3 -17 14 6 26 -14 156 -54 340 -3 12 -12 22 -19 22 -9 0 -14 11
-14 29 0 44 -133 294 -188 353 l-26 28 22 23 c12 13 22 25 22 28 0 10 -131
142 -190 190 -36 29 -76 64 -90 76 -67 62 -298 159 -448 189 -91 17 -320 17
-417 -1z m-978 -997 c-3 -8 -6 -5 -6 6 -1 11 2 17 5 13 3 -3 4 -12 1 -19z"/>
<path d="M410 3895 c0 -5 19 -23 43 -40 23 -16 60 -46 83 -67 40 -36 41 -37
132 -39 89 -3 92 -3 92 -26 0 -20 5 -23 41 -23 33 0 40 3 35 16 -3 9 -6 19 -6
24 0 5 -20 12 -45 16 -34 5 -45 11 -45 24 0 10 6 21 13 23 9 4 9 8 -2 15 -21
15 -40 4 -33 -20 7 -27 -15 -38 -63 -32 -73 10 -100 26 -97 55 1 4 -14 10 -33
13 -19 4 -35 12 -35 18 0 7 23 9 75 4 68 -6 75 -5 75 11 0 15 2 14 16 -5 8
-12 23 -22 32 -22 15 1 15 2 -1 11 -12 7 -16 17 -12 30 5 16 1 19 -25 19 -20
0 -30 -5 -28 -12 2 -7 -2 -13 -7 -13 -5 0 -9 5 -7 12 2 8 -27 13 -98 15 -62 2
-100 -1 -100 -7z m138 -22 c-16 -2 -40 -2 -55 0 -16 2 -3 4 27 4 30 0 43 -2
28 -4z m246 -139 c9 -3 14 -10 11 -15 -7 -10 -35 0 -35 12 0 11 3 11 24 3z"/>
<path d="M4605 3870 c4 -19 9 -37 11 -39 2 -2 26 11 53 30 27 19 48 36 46 38
-2 2 -29 4 -60 5 l-56 1 6 -35z m42 4 c-3 -3 -12 -4 -19 -1 -8 3 -5 6 6 6 11
1 17 -2 13 -5z"/>
<path d="M690 3892 c0 -4 7 -18 16 -30 13 -18 25 -22 72 -22 56 0 57 0 58 30
l1 30 -73 0 c-41 0 -74 -3 -74 -8z m60 -34 c0 -5 -7 -8 -15 -8 -15 0 -20 21
-8 33 7 7 23 -11 23 -25z m17 0 c-3 -7 -5 -2 -5 12 0 14 2 19 5 13 2 -7 2 -19
0 -25z m53 1 c0 -5 -7 -9 -15 -9 -8 0 -15 7 -15 15 0 9 6 12 15 9 8 -4 15 -10
15 -15z"/>
<path d="M859 3895 c-1 -3 -1 -17 -2 -32 -1 -25 2 -27 44 -28 59 -1 69 3 69
30 0 29 -18 42 -33 25 -9 -10 -9 -14 1 -17 24 -9 11 -19 -28 -21 -30 -2 -40 1
-40 13 0 8 5 15 10 15 6 0 10 -4 10 -10 0 -5 7 -10 15 -10 8 0 15 9 15 20 0
16 -7 20 -30 20 -16 0 -30 -2 -31 -5z"/>
<path d="M999 3889 c-7 -4 -14 -16 -16 -27 -2 -14 5 -22 24 -27 28 -7 37 -1
47 31 5 17 2 22 -18 26 -14 3 -30 2 -37 -3z m21 -29 c0 -5 -2 -10 -4 -10 -3 0
-8 5 -11 10 -3 6 -1 10 4 10 6 0 11 -4 11 -10z"/>
<path d="M3955 3887 c-8 -18 32 -77 52 -77 21 0 14 22 -17 59 -24 28 -30 31
-35 18z"/>
<path d="M4100 3896 c0 -3 4 -16 9 -30 9 -21 16 -24 55 -24 25 0 50 -3 55 -6
11 -7 16 -1 25 37 6 25 4 27 -28 27 -25 0 -35 -5 -39 -20 -3 -11 -10 -20 -15
-20 -6 0 -8 9 -5 20 5 17 0 20 -26 20 -17 0 -31 -2 -31 -4z m120 -21 c0 -8 -4
-15 -10 -15 -5 0 -10 7 -10 15 0 8 5 15 10 15 6 0 10 -7 10 -15z"/>
<path d="M4260 3870 c0 -17 5 -30 13 -31 6 0 23 -2 37 -3 38 -5 50 4 50 35 0
28 -2 29 -50 29 -49 0 -50 -1 -50 -30z m80 0 c0 -11 -30 -21 -41 -14 -20 12
-9 31 16 26 14 -2 25 -8 25 -12z"/>
<path d="M4380 3870 c0 -26 4 -30 28 -30 25 0 29 4 30 30 1 27 -3 30 -29 30
-26 0 -29 -3 -29 -30z m37 -6 c-9 -9 -28 6 -21 18 4 6 10 6 17 -1 6 -6 8 -13
4 -17z"/>
<path d="M4450 3870 c0 -25 4 -30 24 -30 17 0 25 7 28 25 6 30 2 35 -29 35
-19 0 -23 -5 -23 -30z m40 1 c0 -6 -4 -13 -10 -16 -5 -3 -10 1 -10 9 0 9 5 16
10 16 6 0 10 -4 10 -9z"/>
<path d="M4518 3871 c-4 -27 -2 -30 31 -34 37 -5 61 6 42 17 -6 4 -11 16 -11
27 0 14 -7 19 -29 19 -24 0 -29 -5 -33 -29z"/>
<path d="M2037 3839 c4 -13 8 -18 11 -10 2 7 -1 18 -6 23 -8 8 -9 4 -5 -13z"/>
<path d="M2406 3795 c-253 -53 -505 -222 -691 -465 -98 -129 -190 -331 -231
-510 -28 -125 -32 -215 -8 -224 30 -12 220 -7 236 7 10 7 20 43 28 96 21 152
97 330 184 431 63 73 166 166 219 198 195 117 400 156 608 116 46 -9 91 -17
99 -18 8 0 20 -7 25 -13 6 -7 34 -15 63 -18 29 -3 63 -12 75 -20 12 -8 16 -15
10 -15 -7 0 -14 4 -18 9 -3 6 -14 9 -25 8 -23 -1 -22 -2 52 -50 31 -20 65 -37
75 -37 24 0 192 167 200 199 8 33 -3 47 -88 113 -112 87 -220 139 -374 178
-107 28 -340 36 -439 15z m467 -49 c132 -39 212 -80 313 -156 51 -39 97 -70
103 -70 19 0 13 -8 -48 -70 -33 -33 -76 -80 -97 -105 -38 -47 -54 -56 -54 -29
0 34 -127 118 -165 108 -15 -4 -24 0 -28 10 -4 9 -13 13 -22 10 -8 -3 -15 -2
-15 3 0 9 -109 28 -221 39 -38 3 -105 1 -155 -7 -49 -6 -99 -13 -111 -13 -13
-1 -23 -4 -23 -7 0 -3 -7 -6 -15 -7 -8 -1 -22 -3 -30 -4 -8 -1 -16 -7 -19 -13
-2 -7 -22 -16 -43 -20 -21 -5 -41 -9 -45 -10 -5 -2 -11 -3 -16 -4 -4 0 -21
-13 -37 -28 -16 -16 -31 -26 -33 -24 -8 8 -91 -63 -85 -72 3 -6 1 -7 -6 -3
-15 9 -119 -98 -170 -174 -50 -75 -95 -166 -108 -220 -7 -25 -17 -65 -23 -90
-6 -25 -12 -73 -13 -107 l-2 -63 -75 0 c-41 0 -92 -3 -112 -6 l-36 -6 4 43
c33 290 154 564 339 767 107 117 298 252 430 302 129 50 193 60 370 56 138 -3
172 -7 248 -30z m174 -402 c-3 -3 -12 -4 -19 -1 -8 3 -5 6 6 6 11 1 17 -2 13
-5z"/>
<path d="M4016 3785 c-18 -14 -16 -45 3 -45 12 0 41 46 34 54 -9 9 -16 7 -37
-9z"/>
<path d="M4235 3770 c-9 -15 28 -60 45 -54 12 4 13 3 3 -7 -20 -20 -15 -29 17
-29 31 0 41 16 15 26 -8 4 -15 16 -15 28 0 15 -9 27 -25 34 -31 14 -32 15 -40
2z"/>
<path d="M4435 3772 c-3 -3 -5 -20 -5 -39 0 -31 2 -33 33 -33 25 0 42 9 70 38
l37 38 -64 1 c-36 0 -68 -2 -71 -5z m63 -24 c-7 -20 -48 -23 -48 -4 0 11 9 16
26 16 16 0 24 -5 22 -12z"/>
<path d="M860 3750 c-25 -16 1 -45 43 -48 28 -2 38 1 47 18 11 21 6 40 -11 40
-5 0 -9 -10 -10 -22 l0 -23 -9 23 c-10 23 -35 28 -60 12z m40 -20 c0 -5 -7
-10 -15 -10 -8 0 -15 5 -15 10 0 6 7 10 15 10 8 0 15 -4 15 -10z"/>
<path d="M1057 3753 c-4 -3 -7 -17 -7 -30 0 -19 5 -23 30 -23 27 0 30 3 30 30
0 25 -4 30 -23 30 -13 0 -27 -3 -30 -7z m30 -28 c0 -8 -4 -15 -9 -15 -4 0 -8
7 -8 15 0 8 4 15 8 15 5 0 9 -7 9 -15z"/>
<path d="M4055 3747 c-15 -11 -16 -17 -6 -36 15 -27 45 -24 49 5 4 30 -20 47
-43 31z"/>
<path d="M987 3744 c-4 -4 -7 -16 -7 -26 0 -13 8 -18 31 -18 26 0 30 3 27 23
-3 22 -36 36 -51 21z m33 -14 c0 -5 -4 -10 -10 -10 -5 0 -10 5 -10 10 0 6 5
10 10 10 6 0 10 -4 10 -10z"/>
<path d="M3640 3728 c-12 -22 -12 -22 6 -6 10 10 15 20 12 24 -4 3 -12 -5 -18
-18z"/>
<path d="M612 3723 c3 -15 14 -19 66 -21 48 -2 62 0 62 11 0 11 -10 13 -44 10
-24 -3 -53 0 -65 7 -20 10 -22 9 -19 -7z"/>
<path d="M4086 3673 c-6 -15 48 -103 63 -103 5 0 15 7 22 16 11 14 10 19 -8
33 -11 10 -23 27 -27 38 -8 26 -42 37 -50 16z"/>
<path d="M4337 3653 c-11 -11 -8 -40 6 -51 10 -9 12 -4 9 23 -4 37 -5 39 -15
28z"/>
<path d="M765 3620 c-3 -5 1 -10 9 -10 9 0 19 0 23 -1 4 0 9 4 11 10 5 14 -35
14 -43 1z"/>
<path d="M750 3592 c0 -5 6 -15 14 -21 10 -9 16 -8 26 4 7 9 8 15 2 15 -6 0
-17 3 -26 6 -9 3 -16 2 -16 -4z"/>
<path d="M4385 3579 c-4 -6 3 -18 15 -26 14 -10 20 -22 17 -35 -4 -14 0 -22
14 -25 12 -4 19 -14 19 -29 0 -14 7 -27 15 -30 8 -4 15 -14 15 -24 0 -24 18
-36 33 -21 8 8 5 17 -11 34 -12 13 -22 31 -22 40 0 9 -4 17 -10 17 -5 0 -10 6
-10 14 0 8 -6 21 -13 28 -7 7 -18 25 -24 41 -13 28 -27 34 -38 16z"/>
<path d="M1560 3570 c0 -5 5 -10 11 -10 5 0 7 5 4 10 -3 6 -8 10 -11 10 -2 0
-4 -4 -4 -10z"/>
<path d="M4345 3569 c-4 -6 -5 -13 -2 -16 7 -7 27 6 27 18 0 12 -17 12 -25 -2z"/>
<path d="M735 3560 c3 -5 11 -10 16 -10 6 0 7 5 4 10 -3 6 -11 10 -16 10 -6 0
-7 -4 -4 -10z"/>
<path d="M670 3541 c-12 -24 -13 -41 -2 -41 8 0 32 43 32 55 0 13 -21 3 -30
-14z"/>
<path d="M4177 3542 c-7 -10 4 -62 12 -62 10 1 41 27 41 35 0 4 -7 4 -16 1
-12 -4 -14 -1 -9 14 4 14 2 20 -9 20 -8 0 -17 -3 -19 -8z"/>
<path d="M715 3520 c-15 -16 -16 -23 -6 -33 10 -9 15 -8 27 7 29 40 12 62 -21
26z"/>
<path d="M890 3519 c0 -5 5 -7 10 -4 6 3 10 8 10 11 0 2 -4 4 -10 4 -5 0 -10
-5 -10 -11z"/>
<path d="M1615 3510 c10 -11 20 -20 23 -20 3 0 -3 9 -13 20 -10 11 -20 20 -23
20 -3 0 3 -9 13 -20z"/>
<path d="M4360 3520 c0 -5 7 -10 15 -10 8 0 15 5 15 10 0 6 -7 10 -15 10 -8 0
-15 -4 -15 -10z"/>
<path d="M4372 3483 c-10 -4 -10 -8 -1 -19 13 -15 39 -19 39 -5 0 14 -24 29
-38 24z"/>
<path d="M622 3455 c-15 -33 -15 -35 2 -35 12 0 25 28 26 53 0 17 -18 5 -28
-18z"/>
<path d="M667 3440 c-17 -32 -8 -40 17 -14 18 18 20 30 7 39 -5 3 -16 -8 -24
-25z"/>
<path d="M4413 3423 c-14 -5 -18 -29 -5 -36 4 -3 15 3 25 13 13 13 15 19 5 22
-7 3 -19 3 -25 1z"/>
<path d="M4540 3420 c0 -13 28 -25 38 -16 3 4 0 11 -8 16 -20 13 -30 12 -30 0z"/>
<path d="M626 3369 c-17 -29 -17 -29 7 -29 29 0 40 19 23 42 -11 15 -14 14
-30 -13z"/>
<path d="M575 3380 c-8 -13 4 -32 16 -25 12 8 12 35 0 35 -6 0 -13 -4 -16 -10z"/>
<path d="M4442 3379 c2 -7 10 -15 17 -17 8 -3 12 1 9 9 -2 7 -10 15 -17 17 -8
3 -12 -1 -9 -9z"/>
<path d="M4480 3341 c0 -12 5 -21 10 -21 6 0 10 6 10 14 0 8 -4 18 -10 21 -5
3 -10 -3 -10 -14z"/>
<path d="M4570 3349 c0 -6 7 -17 15 -25 8 -8 12 -21 9 -29 -4 -8 -2 -15 4 -15
14 0 21 45 10 64 -10 18 -38 22 -38 5z"/>
<path d="M3365 3331 c-52 -32 -145 -137 -145 -164 0 -13 14 -43 31 -66 55 -77
129 -216 129 -243 0 -8 5 -19 12 -26 7 -7 9 -12 6 -12 -4 0 -1 -21 7 -47 7
-27 15 -68 17 -93 3 -31 8 -46 20 -48 27 -5 28 23 3 135 -29 127 -91 262 -162
349 l-47 58 93 88 c88 83 102 110 36 69z"/>
<path d="M4520 3342 c0 -15 28 -47 35 -40 11 11 -5 48 -21 48 -8 0 -14 -4 -14
-8z"/>
<path d="M543 3315 c-3 -9 -3 -19 1 -22 7 -7 36 16 36 28 0 15 -30 10 -37 -6z"/>
<path d="M3424 3316 c-4 -11 2 -32 15 -54 45 -76 151 -300 170 -361 19 -57 38
-143 55 -243 l7 -38 -84 0 c-100 0 -155 -9 -135 -21 7 -5 57 -9 111 -9 85 0
100 3 118 21 11 11 18 28 15 37 -2 9 -7 38 -11 64 -7 51 -56 230 -77 281 -19
45 -148 299 -164 321 -12 18 -14 18 -20 2z"/>
<path d="M4300 3315 c-27 -16 -164 -78 -194 -89 -10 -3 -16 -9 -13 -12 5 -5
57 14 145 53 19 8 52 20 75 27 42 12 63 36 30 36 -10 0 -29 -7 -43 -15z"/>
<path d="M576 3273 c-16 -38 -21 -43 -27 -27 -7 18 -7 18 -14 0 -5 -11 -3 -21
6 -27 21 -13 33 -6 43 29 5 18 13 32 17 32 5 0 9 9 9 20 0 33 -14 22 -34 -27z"/>
<path d="M791 3301 c-10 -17 -9 -21 3 -21 20 0 31 19 18 32 -7 7 -14 3 -21
-11z"/>
<path d="M625 3289 c-4 -6 -5 -13 -2 -16 7 -7 27 6 27 18 0 12 -17 12 -25 -2z"/>
<path d="M4550 3276 c0 -9 7 -16 16 -16 9 0 14 5 12 12 -6 18 -28 21 -28 4z"/>
<path d="M4609 3273 c-1 -5 -1 -16 0 -25 2 -20 -25 -25 -31 -6 -3 7 -7 8 -11
2 -3 -5 -2 -16 3 -24 7 -11 13 -11 39 0 39 16 46 27 31 45 -13 16 -29 20 -31
8z"/>
<path d="M774 3256 c-8 -22 3 -33 18 -18 9 9 9 15 0 24 -9 9 -13 7 -18 -6z"/>
<path d="M602 3218 c7 -19 38 -22 38 -4 0 10 -9 16 -21 16 -12 0 -19 -5 -17
-12z"/>
<path d="M757 3213 c-13 -12 -7 -33 8 -33 8 0 15 9 15 20 0 20 -11 26 -23 13z"/>
<path d="M4375 3204 c4 -11 10 -31 13 -46 4 -27 12 -34 24 -23 9 9 -19 79 -33
84 -8 2 -10 -2 -4 -15z"/>
<path d="M4520 3204 c0 -9 7 -14 17 -12 25 5 28 28 4 28 -12 0 -21 -6 -21 -16z"/>
<path d="M4586 3193 c-7 -8 12 -43 24 -43 15 0 12 37 -4 43 -8 3 -17 3 -20 0z"/>
<path d="M1435 3180 c3 -5 8 -10 11 -10 2 0 4 5 4 10 0 6 -5 10 -11 10 -5 0
-7 -4 -4 -10z"/>
<path d="M4646 3183 c-11 -11 -6 -23 9 -23 8 0 15 4 15 9 0 13 -16 22 -24 14z"/>
<path d="M490 3164 c0 -10 6 -14 15 -11 8 4 17 1 21 -5 4 -7 9 -6 15 3 15 23
10 29 -21 29 -21 0 -30 -5 -30 -16z"/>
<path d="M740 3160 c0 -5 5 -10 10 -10 6 0 10 5 10 10 0 6 -4 10 -10 10 -5 0
-10 -4 -10 -10z"/>
<path d="M4544 3159 c-8 -14 11 -33 25 -25 6 4 11 11 11 16 0 13 -29 20 -36 9z"/>
<path d="M574 3149 c-7 -12 15 -31 28 -23 4 3 8 12 8 20 0 17 -26 19 -36 3z"/>
<path d="M3910 3135 c-14 -8 -20 -14 -15 -14 6 0 21 6 35 14 14 8 21 14 15 14
-5 0 -21 -6 -35 -14z"/>
<path d="M722 3108 c-18 -48 3 -62 23 -15 18 44 18 47 2 47 -7 0 -18 -14 -25
-32z"/>
<path d="M4402 3104 c1 -9 9 -19 16 -22 9 -3 13 2 10 14 -1 9 -9 19 -16 22 -9
3 -13 -2 -10 -14z"/>
<path d="M4633 3104 c-8 -21 13 -42 28 -27 13 13 5 43 -11 43 -6 0 -13 -7 -17
-16z"/>
<path d="M470 3090 c-9 -16 -8 -22 4 -26 21 -8 36 3 36 27 0 25 -26 25 -40 -1z"/>
<path d="M3835 3100 c-3 -6 1 -7 9 -4 18 7 21 14 7 14 -6 0 -13 -4 -16 -10z"/>
<path d="M4557 3104 c-8 -9 11 -44 24 -44 6 0 9 10 7 22 -3 22 -19 34 -31 22z"/>
<path d="M557 3093 c-12 -11 -7 -33 7 -33 12 0 26 20 26 36 0 7 -26 5 -33 -3z"/>
<path d="M4417 3040 c3 -11 9 -17 14 -14 14 8 10 34 -5 34 -9 0 -12 -7 -9 -20z"/>
<path d="M4644 3049 c-3 -6 -2 -15 2 -19 12 -12 38 5 30 19 -9 14 -23 14 -32
0z"/>
<path d="M700 3034 c-9 -10 -10 -18 -3 -25 8 -8 14 -5 22 9 13 25 -2 38 -19
16z"/>
<path d="M445 3019 c-8 -12 -6 -15 21 -23 16 -5 23 -2 27 14 4 16 0 20 -18 20
-13 0 -27 -5 -30 -11z"/>
<path d="M4580 3010 c0 -13 7 -20 20 -20 13 0 20 7 20 20 0 13 -7 20 -20 20
-13 0 -20 -7 -20 -20z"/>
<path d="M516 3004 c-9 -23 -8 -24 13 -24 19 0 35 23 24 34 -12 11 -31 6 -37
-10z"/>
<path d="M4430 2986 c0 -24 16 -43 27 -32 8 8 -6 56 -17 56 -6 0 -10 -11 -10
-24z"/>
<path d="M4672 2988 c-20 -20 -15 -58 8 -58 15 0 20 7 20 29 0 34 -12 45 -28
29z"/>
<path d="M680 2958 c0 -12 -3 -34 -7 -47 -4 -17 -2 -22 7 -19 7 2 14 15 16 28
1 14 4 31 6 39 1 7 -3 16 -9 18 -8 3 -13 -4 -13 -19z"/>
<path d="M437 2963 c-3 -5 -8 -39 -12 -78 -4 -38 -12 -76 -17 -82 -8 -10 -4
-13 15 -13 23 0 25 4 32 75 4 41 11 77 16 81 5 3 9 9 9 15 0 11 -37 12 -43 2z"/>
<path d="M4590 2945 c0 -14 6 -25 13 -25 20 0 25 9 20 31 -8 28 -33 24 -33 -6z"/>
<path d="M504 2944 c4 -26 33 -37 39 -14 6 22 0 30 -24 30 -10 0 -16 -7 -15
-16z"/>
<path d="M4445 2930 c-4 -6 -3 -16 3 -22 6 -6 12 -6 17 2 4 6 3 16 -3 22 -6 6
-12 6 -17 -2z"/>
<path d="M4688 2903 c-25 -6 -23 -33 2 -33 13 0 20 7 20 20 0 11 -1 19 -2 19
-2 -1 -11 -3 -20 -6z"/>
<path d="M500 2887 c0 -8 7 -18 16 -21 11 -4 14 -1 12 11 -4 21 -28 30 -28 10z"/>
<path d="M4597 2894 c-11 -11 5 -34 23 -34 13 0 17 5 13 20 -5 19 -23 26 -36
14z"/>
<path d="M4450 2871 c0 -10 6 -21 14 -24 19 -7 25 0 19 24 -7 25 -33 25 -33 0z"/>
<path d="M666 2873 c-12 -12 -6 -43 9 -43 8 0 15 9 15 19 0 21 -13 34 -24 24z"/>
<path d="M496 2853 c-13 -13 -6 -63 9 -63 10 0 15 10 15 29 0 30 -12 46 -24
34z"/>
<path d="M4697 2854 c-15 -15 -7 -45 11 -42 9 2 17 12 17 22 0 20 -16 31 -28
20z"/>
<path d="M4605 2830 c-3 -6 1 -13 10 -16 19 -8 30 0 20 15 -8 14 -22 14 -30 1z"/>
<path d="M4484 2773 c5 -66 5 -63 15 -63 15 0 8 103 -7 108 -9 3 -11 -9 -8
-45z"/>
<path d="M653 2790 c-1 -11 4 -20 13 -20 8 0 14 9 14 20 0 11 -6 20 -13 20 -7
0 -13 -9 -14 -20z"/>
<path d="M4610 2785 c0 -17 2 -18 24 -9 18 7 12 24 -10 24 -8 0 -14 -7 -14
-15z"/>
<path d="M477 2762 c-2 -4 -5 -24 -6 -44 -2 -30 1 -38 14 -38 13 0 16 7 13 30
-3 17 -1 30 4 30 4 0 8 4 8 9 0 11 -28 23 -33 13z"/>
<path d="M420 2735 c0 -14 0 -28 -1 -32 0 -4 4 -9 9 -11 5 -1 12 13 14 33 3
24 0 35 -9 35 -7 0 -13 -11 -13 -25z"/>
<path d="M4620 2730 c0 -24 4 -30 21 -30 15 0 19 4 15 16 -3 9 -6 19 -6 24 0
4 -7 10 -15 14 -11 4 -15 -2 -15 -24z"/>
<path d="M4700 2725 c0 -16 6 -25 15 -25 9 0 15 9 15 25 0 16 -6 25 -15 25 -9
0 -15 -9 -15 -25z"/>
<path d="M2584 2654 c3 -9 6 -18 6 -20 0 -11 17 -2 28 16 11 18 10 20 -14 20
-20 0 -25 -4 -20 -16z"/>
<path d="M4730 2558 l0 -68 195 0 c123 0 195 4 195 10 0 6 -67 10 -180 10
l-180 0 0 40 0 40 168 2 c92 0 173 1 180 1 6 -1 12 8 12 19 0 19 -6 20 -195
16 l-195 -3 0 -67z"/>
<path d="M0 2605 c0 -13 27 -15 180 -15 l180 0 0 -40 0 -40 -180 0 c-153 0
-180 -2 -180 -15 0 -13 28 -15 190 -15 l190 0 0 54 c0 30 3 61 6 70 5 14 -15
16 -190 16 -168 0 -196 -2 -196 -15z"/>
<path d="M2586 2565 c-4 -11 2 -15 21 -15 21 0 24 2 13 15 -7 8 -16 15 -20 15
-4 0 -10 -7 -14 -15z"/>
<path d="M1524 2512 c-46 -3 -53 -6 -63 -31 -25 -58 37 -307 111 -455 66 -131
168 -263 168 -217 0 5 -28 51 -62 102 -115 176 -160 301 -192 534 l-5 40 108
0 108 0 15 -85 c9 -47 28 -112 43 -145 16 -33 29 -64 30 -70 4 -15 59 -107 94
-155 17 -24 31 -48 31 -53 0 -6 -34 -45 -75 -88 -70 -72 -88 -99 -65 -99 12 0
141 134 156 162 15 27 8 52 -31 113 -17 28 -39 62 -48 77 -29 47 -89 201 -109
278 -19 78 -27 89 -68 91 -66 4 -99 4 -146 1z"/>
<path d="M3461 2507 c-31 -16 -35 -26 -55 -122 -20 -99 -21 -101 -41 -150 -42
-100 -92 -188 -136 -238 -38 -42 -31 -65 39 -141 77 -83 109 -106 131 -99 22
8 51 39 44 47 -4 3 -1 6 5 6 6 0 30 28 53 63 24 34 45 64 49 67 15 12 99 202
120 270 29 100 30 103 37 191 5 69 4 78 -16 98 -18 18 -32 21 -113 21 -54 0
-103 -6 -117 -13z m225 -39 c-3 -13 -8 -50 -11 -82 -9 -79 -46 -219 -75 -281
-34 -71 -106 -190 -157 -258 -23 -31 -43 -62 -43 -68 0 -17 -11 -8 -98 83 -65
66 -80 88 -69 95 22 13 105 131 128 182 60 135 108 298 94 320 -15 25 11 31
121 31 113 0 114 0 110 -22z"/>
<path d="M4606 2452 c-14 -14 -5 -50 14 -55 13 -3 20 0 20 8 0 7 3 20 6 28 5
14 -29 31 -40 19z"/>
<path d="M413 2423 c-7 -3 -13 -16 -13 -29 0 -17 6 -24 20 -24 15 0 20 7 20
24 0 27 -8 36 -27 29z"/>
<path d="M500 2400 c0 -23 4 -30 20 -30 16 0 20 7 20 30 0 23 -4 30 -20 30
-16 0 -20 -7 -20 -30z"/>
<path d="M4490 2411 c0 -6 9 -11 19 -11 11 0 22 -8 24 -17 4 -14 5 -12 6 5 0
12 -3 22 -8 22 -5 0 -16 3 -25 6 -9 3 -16 1 -16 -5z"/>
<path d="M4692 2398 c-18 -18 -14 -28 12 -28 13 0 26 6 29 14 10 26 -19 36
-41 14z"/>
<path d="M4594 2355 c-9 -23 3 -45 26 -45 25 0 28 45 4 54 -22 8 -24 8 -30 -9z"/>
<path d="M4738 2353 c6 -2 18 -2 25 0 6 3 1 5 -13 5 -14 0 -19 -2 -12 -5z"/>
<path d="M410 2326 c0 -14 5 -28 10 -31 7 -4 7 -11 2 -18 -16 -20 -7 -62 13
-66 16 -3 17 2 12 50 -4 30 -7 62 -7 72 0 9 -7 17 -15 17 -9 0 -15 -9 -15 -24z"/>
<path d="M508 2328 c5 -22 19 -38 35 -38 4 0 7 14 7 30 0 25 -4 30 -24 30 -20
0 -23 -4 -18 -22z"/>
<path d="M4690 2325 c10 -12 10 -18 0 -30 -9 -11 -10 -19 -3 -26 8 -8 7 -19
-3 -37 -9 -18 -10 -31 -3 -44 16 -29 27 -21 33 25 17 134 18 127 -11 127 -21
0 -24 -2 -13 -15z"/>
<path d="M4596 2278 c-16 -52 -15 -66 4 -71 12 -3 20 0 20 8 0 7 3 27 6 44 5
25 3 31 -10 31 -9 0 -18 -6 -20 -12z"/>
<path d="M533 2273 c-22 -8 -15 -43 7 -43 13 0 20 7 20 19 0 22 -9 30 -27 24z"/>
<path d="M685 2198 c8 -36 12 -44 20 -36 8 8 -7 68 -17 68 -6 0 -7 -14 -3 -32z"/>
<path d="M542 2183 c5 -25 28 -28 28 -4 0 12 -6 21 -16 21 -9 0 -14 -7 -12
-17z"/>
<path d="M493 2183 c-21 -8 -16 -50 6 -56 26 -6 28 -3 23 33 -4 30 -7 32 -29
23z"/>
<path d="M4577 2173 c-12 -11 -7 -41 7 -46 19 -7 26 1 26 30 0 22 -19 31 -33
16z"/>
<path d="M4657 2131 c-6 -24 0 -31 25 -31 14 0 19 6 16 22 -4 29 -34 36 -41 9z"/>
<path d="M703 2108 c1 -17 8 -33 16 -36 10 -3 12 1 8 19 -4 13 -7 30 -7 37 0
6 -4 12 -9 12 -5 0 -9 -14 -8 -32z"/>
<path d="M455 2090 c-10 -15 4 -30 21 -23 9 3 20 0 25 -8 14 -22 10 -49 -6
-49 -8 0 -15 -7 -15 -15 0 -18 2 -18 35 -3 27 12 33 43 12 68 -17 22 -65 41
-72 30z"/>
<path d="M4565 2080 c-4 -7 -3 -16 3 -22 14 -14 45 -2 40 15 -6 16 -34 21 -43
7z"/>
<path d="M4637 2056 c-7 -18 1 -26 25 -26 11 0 18 7 18 20 0 23 -35 28 -43 6z"/>
<path d="M727 2040 c-3 -14 -2 -29 3 -34 16 -16 23 1 13 31 l-9 27 -7 -24z"/>
<path d="M1162 1992 c-46 -20 -79 -38 -74 -40 8 -2 66 20 157 63 67 31 -6 11
-83 -23z"/>
<path d="M4625 1989 c-4 -5 -4 -20 -1 -32 6 -26 -2 -41 -27 -50 -22 -8 -13
-27 13 -27 13 0 22 9 26 28 4 15 14 37 21 49 8 12 12 27 8 33 -8 13 -32 13
-40 -1z"/>
<path d="M751 1975 c-1 -29 10 -65 20 -65 13 0 10 20 -6 55 -10 23 -14 26 -14
10z"/>
<path d="M530 1946 c0 -24 23 -41 41 -30 15 9 10 33 -10 44 -28 14 -31 13 -31
-14z"/>
<path d="M1025 1935 c-16 -8 -78 -35 -137 -61 -59 -26 -105 -51 -102 -55 2 -4
28 5 57 19 28 15 88 43 132 62 77 32 110 51 90 49 -6 0 -23 -7 -40 -14z"/>
<path d="M4060 1929 c0 -5 5 -7 10 -4 6 3 10 8 10 11 0 2 -4 4 -10 4 -5 0 -10
-5 -10 -11z"/>
<path d="M520 1875 c0 -8 6 -15 14 -15 8 0 16 7 20 15 4 10 -1 15 -14 15 -11
0 -20 -7 -20 -15z"/>
<path d="M575 1874 c4 -11 7 -31 6 -46 -1 -19 4 -28 13 -28 24 0 29 20 12 39
-9 10 -16 24 -14 31 2 7 -3 15 -11 18 -11 3 -12 0 -6 -14z"/>
<path d="M4026 1873 c-6 -14 -5 -15 5 -6 7 7 10 15 7 18 -3 3 -9 -2 -12 -12z"/>
<path d="M3100 1863 c-14 -10 -27 -20 -30 -23 -3 -3 -18 -12 -35 -20 -16 -8
-32 -17 -35 -20 -5 -5 -24 -16 -70 -40 -50 -26 -60 -30 -80 -30 -11 0 -20 -4
-20 -10 0 -5 -11 -10 -25 -10 -14 0 -25 -5 -25 -11 0 -6 -12 -8 -30 -6 -18 3
-34 0 -41 -9 -13 -16 -33 -19 -24 -4 3 6 0 10 -9 10 -8 0 -17 -6 -20 -12 -5
-10 -7 -10 -12 0 -9 18 -34 15 -34 -5 0 -13 -3 -14 -8 -6 -5 7 -22 15 -40 17
-17 2 -29 -1 -26 -5 3 -5 1 -9 -5 -9 -5 0 -13 5 -17 11 -4 7 -9 8 -13 1 -8
-13 -160 16 -182 34 -9 8 -19 11 -23 7 -4 -4 -4 0 -1 8 5 13 0 16 -22 15 -18
-1 -27 4 -25 12 1 8 -2 10 -8 7 -12 -7 -120 54 -120 67 0 4 -6 8 -14 8 -8 0
-16 7 -20 15 -7 18 -65 20 -86 2 -55 -46 -140 -148 -140 -169 0 -29 39 -68
131 -131 147 -102 235 -139 403 -172 127 -25 329 -17 441 18 213 66 465 217
489 293 7 23 -13 55 -78 124 -56 60 -102 73 -146 43z m140 -80 c59 -62 70 -79
58 -87 -8 -6 -41 -32 -74 -57 -134 -104 -289 -183 -433 -220 -59 -15 -106 -19
-211 -18 -74 0 -140 5 -146 10 -7 5 -16 9 -20 8 -15 -4 -85 12 -169 37 -85 25
-204 92 -270 152 -22 21 -53 47 -70 59 l-30 22 80 80 c73 74 105 96 105 72 0
-19 132 -103 213 -137 188 -76 380 -85 556 -25 102 34 194 82 274 142 28 22
54 39 58 39 3 0 39 -35 79 -77z m-650 -118 c0 -2 -9 -3 -19 -2 -11 0 -18 5
-15 9 4 6 34 0 34 -7z"/>
<path d="M4545 1846 c-15 -11 -17 -18 -9 -26 8 -8 14 -7 23 4 20 24 9 39 -14
22z"/>
<path d="M1114 1824 c-18 -14 -18 -15 4 -4 12 6 22 13 22 15 0 8 -5 6 -26 -11z"/>
<path d="M4587 1834 c-13 -14 -7 -32 11 -30 9 2 17 9 17 16 0 15 -18 24 -28
14z"/>
<path d="M1015 1779 c-27 -16 -60 -33 -72 -39 -13 -5 -23 -14 -23 -20 0 -6 26
4 58 22 96 54 118 68 102 67 -8 -1 -37 -14 -65 -30z"/>
<path d="M4501 1776 c-9 -10 -9 -16 -1 -21 17 -10 37 12 24 25 -8 8 -15 6 -23
-4z"/>
<path d="M623 1773 c-25 -5 -27 -11 -13 -33 7 -12 13 -12 27 -4 18 11 31 45
16 43 -4 -1 -18 -4 -30 -6z"/>
<path d="M4551 1761 c-11 -20 -5 -31 16 -31 7 0 13 11 13 25 0 29 -15 33 -29
6z"/>
<path d="M544 1759 c-8 -14 11 -33 25 -25 6 4 11 11 11 16 0 13 -29 20 -36 9z"/>
<path d="M2328 1718 c5 -5 16 -8 23 -6 8 3 3 7 -10 11 -17 4 -21 3 -13 -5z"/>
<path d="M4475 1720 c-7 -12 2 -30 16 -30 5 0 9 9 9 20 0 21 -15 27 -25 10z"/>
<path d="M571 1711 c-17 -11 -8 -27 19 -34 25 -6 36 9 20 28 -14 17 -20 18
-39 6z"/>
<path d="M636 1713 c-7 -8 6 -43 14 -38 5 3 11 -8 15 -24 3 -16 13 -35 21 -42
8 -6 14 -24 14 -40 0 -22 5 -29 20 -29 27 0 26 27 -2 50 -23 19 -23 19 -3 34
19 14 19 15 -12 26 -35 13 -41 28 -21 48 7 7 10 12 8 13 -23 4 -51 5 -54 2z"/>
<path d="M868 1702 c-16 -10 -28 -23 -28 -30 0 -10 9 -8 32 7 54 34 50 55 -4
23z"/>
<path d="M4517 1680 c-17 -29 -17 -30 0 -30 20 0 47 36 38 50 -10 17 -20 11
-38 -20z"/>
<path d="M4440 1656 c0 -15 24 -28 34 -19 13 14 5 33 -14 33 -11 0 -20 -6 -20
-14z"/>
<path d="M616 1645 c-6 -16 21 -48 34 -40 10 6 -9 55 -21 55 -4 0 -9 -7 -13
-15z"/>
<path d="M907 1641 c-3 -12 0 -24 7 -29 7 -4 15 -15 19 -24 3 -10 13 -18 22
-18 19 0 20 19 0 26 -8 4 -15 12 -15 18 0 7 -6 20 -13 31 -13 17 -14 17 -20
-4z"/>
<path d="M1619 1583 c-106 -111 -209 -233 -209 -250 0 -14 4 -13 24 7 20 22
193 213 250 278 15 17 16 22 5 22 -8 0 -40 -26 -70 -57z"/>
<path d="M4405 1600 c-8 -12 20 -24 35 -15 5 3 10 10 10 16 0 12 -37 12 -45
-1z"/>
<path d="M4470 1595 c-10 -12 -9 -16 3 -21 20 -7 37 3 37 22 0 18 -24 18 -40
-1z"/>
<path d="M970 1538 c0 -15 6 -31 14 -35 7 -4 18 -18 25 -30 13 -26 31 -30 31
-8 0 8 -9 19 -20 25 -11 6 -19 14 -16 18 2 4 -4 19 -15 32 l-19 25 0 -27z"/>
<path d="M4390 1540 c0 -11 -7 -23 -15 -26 -22 -9 -18 -17 12 -32 18 -8 30 -9
37 -2 9 9 -4 15 -26 11 -5 0 -8 6 -8 14 0 8 6 15 13 15 6 0 19 5 27 10 13 9
13 11 0 20 -24 16 -40 12 -40 -10z"/>
<path d="M4325 1470 c-13 -14 -15 -24 -8 -31 14 -14 43 0 43 21 0 28 -15 32
-35 10z"/>
<path d="M1044 1436 c-6 -16 11 -46 27 -46 13 0 10 23 -6 44 -13 17 -15 18
-21 2z"/>
<path d="M4101 1437 c-13 -16 -5 -27 21 -27 21 0 23 13 4 29 -10 8 -16 8 -25
-2z"/>
<path d="M790 1394 c6 -14 10 -36 10 -50 0 -21 4 -24 40 -24 32 0 40 4 40 19
0 25 -25 45 -50 38 -16 -4 -20 0 -20 19 0 14 -6 24 -15 24 -11 0 -12 -5 -5
-26z m63 -39 c7 -18 -9 -29 -30 -21 -12 5 -13 9 -3 21 16 19 26 19 33 0z"/>
<path d="M4453 1384 c-2 -7 -3 -25 -1 -41 3 -28 4 -28 77 -31 66 -3 73 -1 61
13 -7 8 -19 15 -26 15 -8 0 -19 11 -25 24 -13 27 -77 42 -86 20z m65 -34 c11
-18 10 -20 -11 -20 -31 0 -39 9 -24 26 16 18 20 17 35 -6z"/>
<path d="M590 1367 c-14 -12 -37 -30 -50 -39 -25 -17 -24 -17 43 -17 l68 -1
-3 37 c-4 45 -23 52 -58 20z m40 -22 c0 -8 -7 -15 -15 -15 -16 0 -20 12 -8 23
11 12 23 8 23 -8z"/>
<path d="M912 1350 c1 -26 5 -30 30 -30 15 0 28 5 28 11 0 6 -8 8 -19 4 -16
-5 -19 -1 -18 15 1 20 17 29 17 10 0 -15 17 -12 24 5 4 12 -3 15 -29 15 -31 0
-34 -2 -33 -30z"/>
<path d="M986 1354 c-9 -33 -5 -36 33 -32 24 2 29 6 21 18 -9 13 -11 13 -19 0
-12 -18 -26 -7 -18 14 4 9 13 13 22 10 8 -3 15 -1 15 5 0 6 -11 11 -24 11 -17
0 -26 -7 -30 -26z"/>
<path d="M1070 1368 c0 -19 32 -48 53 -48 11 0 17 8 17 25 0 18 -5 25 -19 25
-11 0 -26 3 -35 6 -10 4 -16 1 -16 -8z"/>
<path d="M4018 1368 c-9 -7 -19 -24 -23 -37 -7 -21 -5 -23 16 -18 13 4 30 7
37 7 6 0 12 5 12 11 0 6 -9 9 -20 6 -11 -3 -23 -1 -26 4 -5 9 9 13 35 10 15
-3 11 21 -5 26 -5 2 -17 -2 -26 -9z"/>
<path d="M4082 1348 c2 -18 7 -33 12 -33 5 0 10 15 11 33 2 22 -2 32 -12 32
-10 0 -13 -9 -11 -32z"/>
<path d="M4120 1350 c0 -29 1 -30 50 -30 46 0 50 2 50 24 0 16 -7 27 -20 31
-22 7 -53 -11 -45 -25 3 -5 1 -11 -5 -15 -6 -4 -10 5 -10 19 0 14 -4 26 -10
26 -5 0 -10 -13 -10 -30z m78 -8 c2 -7 -3 -12 -12 -12 -9 0 -16 7 -16 16 0 17
22 14 28 -4z"/>
<path d="M4263 1373 c-13 -2 -23 -8 -23 -13 0 -5 -3 -15 -6 -24 -11 -29 51
-21 64 8 10 22 7 38 -7 35 -3 -1 -16 -4 -28 -6z m11 -28 c-6 -16 -24 -21 -24
-7 0 11 11 22 21 22 5 0 6 -7 3 -15z"/>
<path d="M2035 1293 c-8 -20 -13 -38 -10 -41 3 -3 5 -3 5 0 0 3 7 22 15 42 8
20 13 36 10 36 -2 0 -12 -16 -20 -37z"/>
<path d="M3820 1312 c0 -7 -7 -12 -15 -12 -8 0 -15 -4 -15 -8 0 -19 263 -323
441 -509 78 -81 78 -81 120 -76 33 5 45 2 55 -12 19 -25 22 -18 15 35 -6 43
-15 54 -180 213 -143 139 -266 249 -403 365 -12 10 -18 11 -18 4z m136 -136
c43 -41 98 -92 120 -113 96 -88 324 -318 324 -325 0 -4 -20 -8 -43 -8 -39 0
-48 5 -81 43 -21 23 -68 74 -105 112 -36 39 -91 100 -121 135 -30 36 -72 82
-93 103 -21 21 -35 42 -32 48 4 5 2 8 -3 7 -10 -3 -62 51 -62 65 0 18 22 2 96
-67z"/>
<path d="M1301 1269 c-45 -55 -220 -199 -241 -199 -8 0 -86 -74 -173 -164
-136 -142 -157 -169 -157 -196 0 -27 2 -31 15 -20 12 10 59 10 90 -1 6 -2 28
16 50 41 22 25 86 95 142 156 57 61 103 116 103 121 0 5 -11 15 -25 21 -26 12
-33 4 -13 -16 11 -11 -13 -41 -132 -163 -8 -9 -37 -40 -64 -69 -39 -41 -59
-55 -90 -61 -76 -14 -76 -13 152 226 48 50 92 89 99 87 7 -2 13 4 13 13 0 8 5
15 10 15 6 0 10 -4 10 -10 0 -17 39 -11 58 8 41 44 188 206 194 216 10 14 10
36 1 36 -5 0 -23 -19 -42 -41z m-161 -193 c0 -2 -7 -7 -16 -10 -8 -3 -12 -2
-9 4 6 10 25 14 25 6z"/>
<path d="M460 1245 c-13 -13 -31 -27 -42 -31 -45 -14 -8 -19 121 -16 l138 3
-6 32 c-7 34 -28 40 -23 7 2 -15 -3 -20 -17 -20 -12 0 -21 5 -21 10 0 6 5 10
10 10 6 0 10 5 10 10 0 6 -8 10 -18 10 -11 0 -18 -7 -18 -17 1 -22 -1 -23 -70
-23 -37 0 -53 4 -49 11 4 6 28 9 53 8 56 -4 68 16 15 25 -56 9 -57 8 -83 -19z"/>
<path d="M848 1262 c-12 -2 -18 -13 -18 -33 0 -24 4 -29 24 -29 20 0 23 5 22
29 -2 35 -5 39 -28 33z"/>
<path d="M4201 1248 c-7 -20 -51 -34 -51 -16 0 4 7 8 15 8 8 0 15 5 15 10 0
14 -33 13 -48 -2 -7 -7 -12 -20 -12 -29 0 -14 10 -17 60 -17 52 0 60 3 60 18
0 11 5 22 10 25 15 9 2 25 -21 25 -11 0 -23 -9 -28 -22z m29 -18 c0 -5 -2 -10
-4 -10 -3 0 -8 5 -11 10 -3 6 -1 10 4 10 6 0 11 -4 11 -10z"/>
<path d="M4483 1263 c-43 -3 -53 -8 -53 -22 0 -24 -8 -30 -31 -24 -20 6 -28
25 -8 21 6 -2 13 2 16 8 2 6 -9 11 -28 12 -26 1 -30 -3 -26 -18 3 -11 -1 -21
-10 -24 -10 -4 -13 -2 -10 8 7 17 -11 36 -33 36 -15 0 -46 -47 -37 -56 6 -6
469 -6 475 0 3 3 0 6 -7 6 -6 0 -23 11 -36 24 -20 20 -37 26 -92 29 -38 2 -92
2 -120 0z m173 -34 c3 -5 -44 -9 -107 -9 -119 0 -139 12 -36 20 74 6 135 1
143 -11z m-336 1 c0 -5 -7 -10 -15 -10 -8 0 -15 5 -15 10 0 6 7 10 15 10 8 0
15 -4 15 -10z"/>
<path d="M689 1233 c4 -16 16 -30 26 -32 14 -2 17 2 12 18 -3 12 -1 21 4 21 5
0 9 5 9 10 0 6 -13 10 -29 10 -27 0 -29 -2 -22 -27z"/>
<path d="M753 1230 c-2 -27 1 -30 27 -30 17 0 30 5 30 10 0 6 -9 10 -20 10
-11 0 -20 5 -20 10 0 6 9 10 20 10 11 0 20 5 20 10 0 6 -12 10 -27 10 -24 0
-28 -4 -30 -30z"/>
<path d="M900 1226 c0 -24 4 -26 41 -26 32 0 39 3 31 13 -6 6 -10 17 -9 22 1
6 -13 11 -30 13 -30 3 -33 1 -33 -22z"/>
<path d="M1994 1198 c-6 -18 -15 -42 -19 -53 -5 -13 -5 -17 2 -10 14 14 44 95
35 95 -4 0 -12 -15 -18 -32z"/>
<path d="M2603 1095 c0 -27 2 -38 4 -22 2 15 2 37 0 50 -2 12 -4 0 -4 -28z"/>
<path d="M3870 1085 c0 -17 -16 -20 -25 -5 -11 17 -37 -18 -30 -40 8 -25 21
-25 42 0 10 11 23 20 29 20 7 0 15 7 18 16 9 23 8 24 -14 24 -11 0 -20 -7 -20
-15z m-15 -25 c3 -5 2 -10 -4 -10 -5 0 -13 5 -16 10 -3 6 -2 10 4 10 5 0 13
-4 16 -10z"/>
<path d="M1946 1075 c-3 -9 -6 -22 -5 -28 0 -7 5 -1 10 12 5 13 8 26 5 28 -2
2 -6 -3 -10 -12z"/>
<path d="M1244 1019 c-18 -20 -18 -21 1 -35 27 -20 35 -18 35 11 0 14 0 28 1
32 1 17 -19 12 -37 -8z"/>
<path d="M3281 1014 c0 -11 3 -14 6 -6 3 7 2 16 -1 19 -3 4 -6 -2 -5 -13z"/>
<path d="M3752 1008 c-22 -22 -7 -58 18 -43 8 5 7 12 -2 22 -10 13 -9 14 12
11 13 -1 25 3 27 10 6 16 -39 16 -55 0z"/>
<path d="M1306 975 c-18 -14 -16 -45 3 -45 11 0 31 32 31 49 0 15 -11 13 -34
-4z"/>
<path d="M3290 969 c0 -5 5 -7 10 -4 6 3 10 8 10 11 0 2 -4 4 -10 4 -5 0 -10
-5 -10 -11z"/>
<path d="M3321 964 c0 -11 3 -14 6 -6 3 7 2 16 -1 19 -3 4 -6 -2 -5 -13z"/>
<path d="M3687 963 c-4 -3 -7 -19 -7 -34 0 -24 -4 -28 -32 -31 -25 -2 -34 -8
-36 -25 -2 -13 0 -23 5 -23 7 0 72 40 92 56 2 2 -2 11 -9 19 -12 14 -10 15 13
10 31 -8 35 2 10 21 -21 15 -27 17 -36 7z"/>
<path d="M3924 956 c-22 -17 -11 -35 13 -20 19 12 29 34 16 34 -5 0 -18 -6
-29 -14z"/>
<path d="M1344 937 c-8 -22 11 -46 26 -31 7 7 5 17 -4 30 -14 18 -15 18 -22 1z"/>
<path d="M1885 930 c-4 -12 -5 -24 -2 -27 3 -2 8 5 12 17 4 12 5 24 2 27 -3 2
-8 -5 -12 -17z"/>
<path d="M1401 916 c-13 -14 -20 -29 -16 -35 12 -21 30 -11 41 24 13 41 6 44
-25 11z"/>
<path d="M2613 905 c0 -22 2 -30 4 -17 2 12 2 30 0 40 -3 9 -5 -1 -4 -23z"/>
<path d="M3245 930 c-3 -6 1 -7 9 -4 18 7 21 14 7 14 -6 0 -13 -4 -16 -10z"/>
<path d="M3200 920 c-8 -5 -10 -10 -5 -10 6 0 17 5 25 10 8 5 11 10 5 10 -5 0
-17 -5 -25 -10z"/>
<path d="M3118 893 c6 -2 18 -2 25 0 6 3 1 5 -13 5 -14 0 -19 -2 -12 -5z"/>
<path d="M3075 880 c-3 -6 1 -7 9 -4 18 7 21 14 7 14 -6 0 -13 -4 -16 -10z"/>
<path d="M3783 874 c-7 -18 11 -39 26 -30 17 11 13 46 -4 46 -9 0 -18 -7 -22
-16z"/>
<path d="M1440 870 c-12 -7 -12 -13 -4 -27 14 -23 28 -22 32 1 5 24 -10 37
-28 26z"/>
<path d="M3558 863 c-19 -22 -13 -43 12 -43 23 0 32 23 16 45 -11 15 -13 15
-28 -2z"/>
<path d="M3890 854 c-11 -12 -10 -18 3 -31 20 -20 35 -10 17 12 -8 10 -9 15
-1 15 6 0 11 -4 11 -10 0 -5 5 -10 10 -10 16 0 11 27 -6 34 -21 8 -20 8 -34
-10z"/>
<path d="M1487 843 c-15 -14 -6 -40 21 -60 l28 -21 11 29 c7 17 8 31 2 35 -5
3 -12 -2 -15 -10 -9 -25 -24 -19 -24 9 0 24 -10 32 -23 18z"/>
<path d="M1340 830 c0 -12 42 -31 50 -23 6 5 -30 33 -42 33 -4 0 -8 -5 -8 -10z"/>
<path d="M3493 832 c-12 -8 -7 -52 6 -52 4 0 16 6 26 14 16 12 17 16 6 30 -15
18 -21 19 -38 8z"/>
<path d="M3835 820 c-11 -17 4 -60 21 -60 24 0 28 30 7 52 -15 14 -23 17 -28
8z"/>
<path d="M3946 803 l-19 -25 37 -36 36 -36 21 23 22 23 -39 38 -39 39 -19 -26z
m55 -24 c11 -18 11 -29 0 -29 -5 0 -16 11 -24 24 -15 22 -15 24 -1 22 9 -1 20
-9 25 -17z"/>
<path d="M3720 805 c-15 -18 -5 -35 21 -35 14 0 19 7 19 25 0 28 -21 33 -40
10z m30 -9 c0 -3 -4 -8 -10 -11 -5 -3 -10 -1 -10 4 0 6 5 11 10 11 6 0 10 -2
10 -4z"/>
<path d="M1724 801 c4 -6 2 -9 -7 -5 -8 3 -18 -6 -26 -22 -13 -30 -5 -47 12
-23 7 8 20 18 30 22 20 8 19 28 -3 35 -7 3 -10 0 -6 -7z"/>
<path d="M1570 780 c-8 -14 -8 -26 -2 -32 6 -6 12 0 16 17 9 35 1 43 -14 15z"/>
<path d="M1625 770 c-22 -23 -26 -33 -17 -42 9 -9 15 -8 27 8 45 57 37 83 -10
34z"/>
<path d="M3445 790 c-3 -5 -1 -10 4 -10 6 0 11 5 11 10 0 6 -2 10 -4 10 -3 0
-8 -4 -11 -10z"/>
<path d="M1835 760 c-3 -5 -12 -7 -20 -3 -9 3 -15 -1 -15 -11 0 -23 37 -20 50
4 11 20 -3 30 -15 10z"/>
<path d="M3134 757 c-15 -18 -6 -37 18 -37 14 0 19 6 16 22 -4 25 -19 32 -34
15z"/>
<path d="M3362 759 c-20 -7 -21 -12 -12 -30 10 -18 14 -19 33 -6 41 27 26 53
-21 36z"/>
<path d="M3593 760 c-16 -6 -23 -18 -23 -35 0 -14 -5 -25 -11 -25 -6 0 -8 7
-5 16 4 12 0 15 -17 12 -26 -4 -37 -45 -13 -54 21 -8 56 14 56 36 0 13 5 18
15 14 18 -7 45 12 45 32 0 16 -15 17 -47 4z"/>
<path d="M3881 741 l-23 -18 30 -21 c55 -40 84 -24 49 26 -26 37 -25 37 -56
13z m47 -29 c5 -17 -13 -15 -27 2 -10 12 -9 14 5 12 10 -2 20 -8 22 -14z"/>
<path d="M3090 741 c0 -5 -6 -9 -12 -8 -46 1 -68 -4 -68 -18 0 -12 7 -14 28
-11 15 2 37 5 50 5 15 1 22 7 22 21 0 11 -4 20 -10 20 -5 0 -10 -4 -10 -9z"/>
<path d="M3288 729 c-10 -5 -18 -17 -18 -24 0 -17 27 -20 49 -6 8 5 11 16 8
25 -7 18 -15 19 -39 5z"/>
<path d="M3789 721 l-23 -18 38 -36 c41 -39 69 -40 64 0 -3 22 -23 34 -23 14
0 -5 -4 -13 -9 -18 -5 -4 -6 -3 -2 4 3 6 2 14 -2 17 -5 3 -7 17 -4 31 5 30 -7
32 -39 6z"/>
<path d="M1412 659 c-26 -33 -48 -64 -49 -67 -3 -9 149 -52 160 -45 11 6 49
84 44 89 -2 3 -27 7 -56 11 -55 6 -58 9 -36 39 19 25 19 34 0 34 -8 0 -36 -27
-63 -61z m41 -22 c3 -7 19 -12 41 -11 44 2 50 -5 26 -36 -16 -21 -21 -23 -45
-12 -14 7 -37 12 -50 12 -29 0 -30 3 -9 35 18 28 29 31 37 12z"/>
<path d="M2978 715 c-2 -3 -19 -7 -37 -9 -33 -4 -48 -12 -39 -21 11 -11 98 8
98 21 0 14 -12 19 -22 9z"/>
<path d="M3237 714 c-11 -11 -8 -44 3 -44 15 0 24 30 13 41 -5 5 -12 6 -16 3z"/>
<path d="M1521 696 c-9 -11 -5 -16 20 -25 45 -15 56 -14 62 9 3 13 0 20 -9 20
-8 0 -14 -4 -14 -10 0 -5 -7 -10 -15 -10 -9 0 -12 6 -9 15 8 19 -19 20 -35 1z"/>
<path d="M2110 706 c0 -2 7 -6 15 -10 8 -3 15 -1 15 4 0 6 -7 10 -15 10 -8 0
-15 -2 -15 -4z"/>
<path d="M2860 686 c0 -9 7 -16 16 -16 17 0 14 22 -4 28 -7 2 -12 -3 -12 -12z"/>
<path d="M3164 686 c-3 -9 -4 -23 0 -31 4 -12 10 -13 31 -3 26 12 36 34 10 24
-8 -3 -14 0 -12 6 3 17 -22 21 -29 4z"/>
<path d="M3453 689 c-14 -14 11 -59 32 -59 20 0 38 27 24 35 -6 4 -15 1 -20
-6 -4 -7 -11 -10 -15 -6 -4 4 -2 13 4 19 7 7 12 16 12 20 0 12 -24 10 -37 -3z"/>
<path d="M1661 666 c-16 -19 -6 -36 20 -36 15 0 20 6 17 22 -4 27 -21 33 -37
14z"/>
<path d="M3703 658 c-28 -13 -29 -29 -4 -52 13 -12 27 -15 45 -10 31 7 31 8 9
45 -19 32 -19 32 -50 17z m35 -44 c-10 -10 -28 6 -28 24 0 15 1 15 17 -1 9 -9
14 -19 11 -23z"/>
<path d="M1825 639 c-11 -16 17 -39 50 -42 20 -1 30 3 33 15 3 15 -2 18 -60
34 -9 3 -19 0 -23 -7z"/>
<path d="M3316 637 c-17 -12 -17 -16 -2 -50 17 -42 32 -46 70 -16 31 24 33 40
8 62 -22 20 -52 22 -76 4z m54 -37 c0 -10 -5 -22 -10 -25 -13 -8 -24 20 -16
41 8 20 26 9 26 -16z"/>
<path d="M3626 631 c-3 -5 4 -20 15 -35 14 -18 16 -26 7 -26 -7 0 -19 14 -26
30 -8 17 -20 30 -28 30 -22 0 -17 -21 13 -52 29 -30 70 -37 79 -13 7 17 -51
80 -60 66z"/>
<path d="M1725 609 c-4 -5 -4 -21 -1 -35 5 -17 2 -26 -9 -30 -22 -9 -19 -24 5
-24 13 0 20 7 20 18 0 10 4 22 9 28 5 5 12 19 16 32 5 18 2 22 -14 22 -11 0
-23 -5 -26 -11z"/>
<path d="M1931 597 c-9 -23 7 -33 52 -36 30 -2 20 36 -13 48 -28 9 -32 8 -39
-12z"/>
<path d="M3238 597 c-16 -6 -28 -16 -28 -21 0 -23 18 -38 41 -34 20 2 24 9 24
36 0 17 -2 32 -5 31 -3 -1 -17 -6 -32 -12z m16 -32 c-4 -8 -10 -12 -15 -9 -11
6 -2 24 11 24 5 0 7 -7 4 -15z"/>
<path d="M3517 604 c-3 -4 4 -25 16 -48 12 -22 23 -42 23 -44 4 -9 54 12 54
23 0 20 -21 30 -30 15 -6 -9 -9 -10 -15 0 -4 7 -2 16 5 20 11 7 10 11 -3 24
-16 16 -39 21 -50 10z"/>
<path d="M2022 578 c-20 -20 -14 -25 35 -37 42 -11 49 -10 60 5 12 16 9 19
-34 31 -27 6 -48 12 -48 13 -1 0 -6 -5 -13 -12z"/>
<path d="M3146 564 c-9 -8 -16 -20 -16 -25 0 -5 -4 -9 -9 -9 -5 0 -7 9 -4 20
5 18 2 19 -18 12 -26 -10 -32 -21 -20 -40 7 -11 18 -11 65 -1 56 14 66 25 44
47 -16 16 -23 15 -42 -4z"/>
<path d="M2147 546 c-7 -18 15 -32 32 -22 5 3 11 2 13 -3 1 -5 33 -10 71 -13
64 -4 67 -3 67 19 0 21 -4 23 -52 23 -29 0 -69 3 -89 6 -28 5 -37 2 -42 -10z"/>
<path d="M3023 553 c-15 -3 -23 -12 -23 -24 0 -14 7 -19 30 -19 25 0 30 4 30
25 0 14 -3 24 -7 24 -5 -1 -18 -4 -30 -6z"/>
<path d="M3397 553 c-13 -12 -7 -24 9 -21 10 2 18 -4 19 -14 2 -12 -3 -17 -16
-15 -10 2 -22 6 -25 10 -4 4 -14 7 -23 7 -10 0 -12 -3 -5 -8 6 -4 14 -15 17
-26 5 -12 12 -16 25 -11 9 4 27 10 40 12 21 5 32 33 13 33 -5 0 -11 9 -14 20
-5 19 -27 27 -40 13z"/>
<path d="M2867 543 c-44 -4 -47 -6 -41 -26 9 -29 8 -29 38 -21 15 3 26 13 26
23 1 14 2 14 14 -1 7 -10 25 -18 40 -18 21 0 26 5 26 25 0 27 5 26 -103 18z"/>
<path d="M1872 515 c-16 -34 -15 -35 8 -35 13 0 24 10 30 26 13 33 13 34 -8
34 -11 0 -24 -11 -30 -25z"/>
<path d="M2383 532 c-21 -2 -33 -9 -33 -18 0 -19 66 -19 73 1 8 18 0 21 -40
17z"/>
<path d="M2680 510 c0 -11 2 -20 4 -20 2 0 6 9 9 20 3 11 1 20 -4 20 -5 0 -9
-9 -9 -20z"/>
<path d="M2748 523 c7 -3 16 -2 19 1 4 3 -2 6 -13 5 -11 0 -14 -3 -6 -6z"/>
<path d="M1947 513 c-4 -3 -7 -15 -7 -25 0 -12 7 -18 24 -18 24 0 41 23 30 41
-6 10 -38 12 -47 2z"/>
<path d="M3303 506 c-26 -12 -29 -26 -11 -44 13 -13 44 -16 51 -4 7 10 -4 62
-12 61 -3 -1 -16 -6 -28 -13z m24 -21 c-4 -8 -11 -15 -17 -15 -7 0 -7 6 0 21
13 23 26 19 17 -6z"/>
<path d="M2015 489 c-8 -23 -7 -24 20 -33 14 -4 24 0 33 14 11 18 9 21 -13 30
-34 13 -33 13 -40 -11z"/>
<path d="M3210 482 c-8 -3 -25 -17 -37 -31 -19 -21 -23 -23 -23 -8 0 9 -6 17
-14 17 -9 0 -12 -8 -8 -25 6 -31 37 -33 53 -3 11 20 12 21 25 4 19 -27 54 -12
54 23 0 27 -17 35 -50 23z m30 -22 c0 -5 -7 -10 -16 -10 -8 0 -12 5 -9 10 3 6
10 10 16 10 5 0 9 -4 9 -10z"/>
<path d="M2135 468 c-12 -37 -9 -53 10 -53 15 0 21 8 23 33 2 24 -1 32 -13 32
-8 0 -18 -6 -20 -12z"/>
<path d="M3027 442 c-9 -13 5 -62 17 -62 26 1 39 18 32 44 -6 25 -38 37 -49
18z m33 -28 c0 -8 -5 -12 -10 -9 -6 4 -8 11 -5 16 9 14 15 11 15 -7z"/>
<path d="M2990 407 c0 -8 7 -18 16 -21 11 -4 14 -1 12 11 -4 21 -28 30 -28 10z"/>
</g>
</svg>
