<?xml version="1.0" standalone="no"?>
<!DOCTYPE svg PUBLIC "-//W3C//DTD SVG 20010904//EN"
 "http://www.w3.org/TR/2001/REC-SVG-20010904/DTD/svg10.dtd">
<svg version="1.0" xmlns="http://www.w3.org/2000/svg"
 width="512.000000pt" height="512.000000pt" viewBox="0 0 512.000000 512.000000"
 preserveAspectRatio="xMidYMid meet">
<metadata>
Created by potrace 1.16, written by Peter Selinger 2001-2019
</metadata>
<g transform="translate(0.000000,512.000000) scale(0.100000,-0.100000)"
fill="#000000" stroke="none">
<path d="M2522 4278 l5 -843 -409 0 -409 0 3 -420 3 -420 -857 3 c-576 1 -858
-1 -858 -8 0 -5 3 -10 8 -10 4 0 563 -3 1242 -6 679 -3 1250 -7 1268 -8 l32
-1 -2 825 c-2 454 -2 1029 -1 1278 1 404 0 452 -14 452 -14 0 -15 -83 -11
-842z m16 -1285 l3 -413 -400 0 -401 0 -2 415 -3 415 400 -2 400 -3 3 -412z"/>
<path d="M2579 4263 c-2 -1168 1 -1698 9 -1696 4 0 575 4 1270 8 709 5 1262
12 1262 17 0 5 -371 7 -855 6 l-855 -3 0 423 0 422 -406 0 -406 0 2 678 c3
900 2 1002 -10 1002 -7 0 -10 -293 -11 -857z m809 -1263 l-3 -420 -395 2 -395
3 -3 412 -2 413 377 3 c208 1 388 3 401 5 l23 2 -3 -420z"/>
<path d="M2320 4758 c-47 -13 -81 -40 -115 -89 l-29 -41 38 -35 c37 -34 39
-35 111 -31 79 4 109 18 148 70 28 38 16 93 -26 118 -35 22 -72 24 -127 8z
m114 -29 c71 -55 -9 -149 -126 -149 -57 1 -81 13 -92 46 -5 16 3 31 33 62 60
61 137 78 185 41z"/>
<path d="M2685 4759 c-34 -19 -45 -41 -45 -85 0 -35 5 -47 35 -73 43 -38 69
-45 145 -39 48 3 64 9 84 31 14 15 32 27 41 27 30 0 -62 106 -108 125 -54 22
-127 28 -152 14z m113 -24 c46 -14 122 -73 122 -95 0 -4 -12 -19 -26 -34 -23
-22 -35 -26 -86 -26 -93 0 -147 36 -148 98 0 26 6 36 33 52 39 24 40 24 105 5z"/>
<path d="M3050 4621 c0 -8 54 -41 69 -41 23 0 9 16 -29 32 -22 9 -40 13 -40 9z"/>
<path d="M2060 4610 c-13 -9 -13 -10 0 -10 8 0 22 5 30 10 13 9 13 10 0 10 -8
0 -22 -5 -30 -10z"/>
<path d="M2110 4600 c0 -5 7 -10 15 -10 8 0 15 5 15 10 0 6 -7 10 -15 10 -8 0
-15 -4 -15 -10z"/>
<path d="M1995 4590 c-3 -5 3 -10 14 -10 12 0 21 5 21 10 0 6 -6 10 -14 10 -8
0 -18 -4 -21 -10z"/>
<path d="M3010 4571 c0 -5 7 -14 16 -22 13 -10 17 -10 24 1 5 8 6 18 4 22 -7
11 -44 10 -44 -1z"/>
<path d="M2064 4559 c-3 -6 -2 -15 4 -21 6 -6 11 -2 15 11 5 22 -7 29 -19 10z"/>
<path d="M2160 4534 c-9 -10 -10 -18 -3 -25 8 -8 13 -7 17 0 4 6 1 11 -6 12
-7 0 -4 4 6 8 12 5 15 10 9 14 -6 4 -16 0 -23 -9z"/>
<path d="M2210 4534 c0 -8 5 -12 10 -9 6 4 8 11 5 16 -9 14 -15 11 -15 -7z"/>
<path d="M2940 4528 c0 -17 3 -19 9 -10 7 11 9 11 14 -2 7 -17 37 -22 37 -6 0
5 -6 7 -14 4 -9 -3 -17 3 -21 15 -9 28 -25 27 -25 -1z"/>
<path d="M3100 4540 c0 -5 10 -10 23 -10 18 0 19 2 7 10 -19 13 -30 13 -30 0z"/>
<path d="M1985 4530 c-3 -5 1 -10 9 -10 9 0 16 5 16 10 0 6 -4 10 -9 10 -6 0
-13 -4 -16 -10z"/>
<path d="M2880 4525 c0 -8 5 -15 10 -15 6 0 10 7 10 15 0 8 -4 15 -10 15 -5 0
-10 -7 -10 -15z"/>
<path d="M2182 4470 c-7 -11 -10 -20 -6 -20 7 0 34 27 34 34 0 13 -16 5 -28
-14z"/>
<path d="M2141 4454 c0 -11 3 -14 6 -6 3 7 2 16 -1 19 -3 4 -6 -2 -5 -13z"/>
<path d="M2916 4455 c-3 -8 -1 -15 4 -15 6 0 10 7 10 15 0 8 -2 15 -4 15 -2 0
-6 -7 -10 -15z"/>
<path d="M1021 4254 c0 -11 3 -14 6 -6 3 7 2 16 -1 19 -3 4 -6 -2 -5 -13z"/>
<path d="M1131 4244 c0 -11 3 -14 6 -6 3 7 2 16 -1 19 -3 4 -6 -2 -5 -13z"/>
<path d="M3980 4150 c0 -5 5 -10 10 -10 6 0 10 5 10 10 0 6 -4 10 -10 10 -5 0
-10 -4 -10 -10z"/>
<path d="M3860 4119 c0 -5 5 -7 10 -4 6 3 10 8 10 11 0 2 -4 4 -10 4 -5 0 -10
-5 -10 -11z"/>
<path d="M960 4106 c0 -9 30 -14 35 -6 4 6 -3 10 -14 10 -12 0 -21 -2 -21 -4z"/>
<path d="M4212 4050 c0 -14 2 -19 5 -12 2 6 2 18 0 25 -3 6 -5 1 -5 -13z"/>
<path d="M4165 4000 c3 -5 8 -10 11 -10 2 0 4 5 4 10 0 6 -5 10 -11 10 -5 0
-7 -4 -4 -10z"/>
<path d="M1711 3864 c0 -11 3 -14 6 -6 3 7 2 16 -1 19 -3 4 -6 -2 -5 -13z"/>
<path d="M3155 3638 c-10 -40 -24 -87 -32 -105 -17 -42 -16 -55 2 -22 16 29
58 189 52 196 -3 2 -13 -29 -22 -69z"/>
<path d="M3233 3636 c-13 -41 -26 -82 -29 -93 -4 -15 -4 -15 4 -3 17 26 54
139 50 155 -2 8 -13 -19 -25 -59z"/>
<path d="M1451 3684 c4 -12 69 -90 111 -135 15 -16 44 -53 63 -82 19 -28 35
-47 35 -41 0 6 -13 29 -29 51 -16 23 -27 44 -24 47 4 3 1 6 -5 6 -7 0 -12 6
-12 13 0 6 -33 44 -72 82 -39 39 -69 65 -67 59z"/>
<path d="M1962 3660 c0 -14 2 -19 5 -12 2 6 2 18 0 25 -3 6 -5 1 -5 -13z"/>
<path d="M3605 3623 c-28 -32 -61 -67 -74 -78 -59 -48 -58 -47 -34 -40 19 5
22 3 16 -12 -3 -10 28 25 70 77 68 83 85 110 74 110 -2 0 -25 -26 -52 -57z"/>
<path d="M1790 3655 c0 -10 40 -75 47 -75 2 0 -6 17 -18 38 -28 45 -29 47 -29
37z"/>
<path d="M3306 3633 c-6 -14 -5 -15 5 -6 7 7 10 15 7 18 -3 3 -9 -2 -12 -12z"/>
<path d="M1906 3597 c3 -10 9 -15 12 -12 3 3 0 11 -7 18 -10 9 -11 8 -5 -6z"/>
<path d="M1921 3514 c0 -11 3 -14 6 -6 3 7 2 16 -1 19 -3 4 -6 -2 -5 -13z"/>
<path d="M1950 3521 c0 -5 5 -13 10 -16 6 -3 10 -2 10 4 0 5 -4 13 -10 16 -5
3 -10 2 -10 -4z"/>
<path d="M3182 3495 c-17 -37 -14 -45 4 -12 9 16 14 31 11 33 -2 2 -9 -7 -15
-21z"/>
<path d="M1890 3490 c6 -11 12 -20 14 -20 2 0 2 9 -1 20 -3 11 -9 20 -15 20
-5 0 -4 -9 2 -20z"/>
<path d="M1970 3481 c0 -6 4 -13 10 -16 6 -3 7 1 4 9 -7 18 -14 21 -14 7z"/>
<path d="M1020 3440 c-13 -9 -13 -10 0 -10 8 0 22 5 30 10 13 9 13 10 0 10 -8
0 -22 -5 -30 -10z"/>
<path d="M978 3433 c7 -3 16 -2 19 1 4 3 -2 6 -13 5 -11 0 -14 -3 -6 -6z"/>
<path d="M1670 3385 c0 -5 5 -17 10 -25 5 -8 10 -10 10 -5 0 6 -5 17 -10 25
-5 8 -10 11 -10 5z"/>
<path d="M1681 3324 c0 -11 3 -14 6 -6 3 7 2 16 -1 19 -3 4 -6 -2 -5 -13z"/>
<path d="M1630 3266 c0 -3 14 -14 30 -26 17 -12 30 -17 30 -11 0 6 -13 17 -30
26 -16 9 -30 13 -30 11z"/>
<path d="M3454 3224 c-18 -14 -18 -15 4 -4 12 6 22 13 22 15 0 8 -5 6 -26 -11z"/>
<path d="M3596 3225 c-11 -8 -15 -15 -9 -15 6 0 16 7 23 15 16 19 11 19 -14 0z"/>
<path d="M3620 3210 c-9 -6 -10 -10 -3 -10 6 0 15 5 18 10 8 12 4 12 -15 0z"/>
<path d="M3575 3180 c-3 -6 1 -7 9 -4 18 7 21 14 7 14 -6 0 -13 -4 -16 -10z"/>
<path d="M1408 3163 c7 -3 16 -2 19 1 4 3 -2 6 -13 5 -11 0 -14 -3 -6 -6z"/>
<path d="M1480 3152 c8 -5 26 -13 40 -16 17 -5 20 -4 10 2 -8 5 -26 13 -40 16
-17 5 -20 4 -10 -2z"/>
<path d="M3526 3148 c3 -4 9 -8 15 -8 5 0 9 4 9 8 0 5 -7 9 -15 9 -8 0 -12 -4
-9 -9z"/>
<path d="M1634 3129 c14 -11 33 -30 41 -42 14 -20 15 -21 15 -2 0 12 -15 29
-35 43 -43 28 -56 29 -21 1z"/>
<path d="M3648 3143 c7 -3 16 -2 19 1 4 3 -2 6 -13 5 -11 0 -14 -3 -6 -6z"/>
<path d="M3456 3074 c-24 -23 -19 -27 9 -8 14 9 25 18 25 20 0 10 -20 3 -34
-12z"/>
<path d="M677 3073 c-4 -3 -7 -11 -7 -17 0 -6 5 -5 12 2 6 6 9 14 7 17 -3 3
-9 2 -12 -2z"/>
<path d="M1640 3066 c0 -2 11 -11 25 -20 14 -9 25 -13 25 -8 0 5 -11 14 -25
20 -14 6 -25 10 -25 8z"/>
<path d="M4530 3035 c0 -8 5 -15 10 -15 6 0 10 7 10 15 0 8 -4 15 -10 15 -5 0
-10 -7 -10 -15z"/>
<path d="M590 3025 c0 -18 19 -40 26 -32 4 4 0 15 -9 24 -9 10 -17 13 -17 8z"/>
<path d="M4597 3014 c-8 -8 1 -24 14 -24 5 0 9 7 9 15 0 15 -12 20 -23 9z"/>
<path d="M505 2999 c-10 -15 1 -23 20 -15 9 3 13 10 10 16 -8 13 -22 13 -30
-1z"/>
<path d="M4445 3001 c-3 -5 -1 -12 5 -16 5 -3 10 1 10 9 0 18 -6 21 -15 7z"/>
<path d="M665 2980 c4 -6 11 -8 16 -5 14 9 11 15 -7 15 -8 0 -12 -5 -9 -10z"/>
<path d="M4510 2971 c0 -6 5 -11 11 -11 8 0 7 -6 -2 -17 -12 -14 -12 -16 1
-11 18 6 20 40 3 46 -7 2 -13 -1 -13 -7z"/>
<path d="M585 2960 c-7 -12 2 -30 16 -30 5 0 9 9 9 20 0 21 -15 27 -25 10z"/>
<path d="M4611 2947 c78 -60 103 -93 93 -124 -5 -17 -5 -17 6 0 6 9 8 27 5 38
-11 35 -75 99 -99 99 -18 -1 -19 -2 -5 -13z"/>
<path d="M465 2924 c-25 -27 -65 -106 -65 -126 1 -7 10 7 21 32 24 50 66 100
86 100 7 0 13 5 13 10 0 19 -31 10 -55 -16z"/>
<path d="M4440 2940 c0 -5 5 -10 11 -10 5 0 7 5 4 10 -3 6 -8 10 -11 10 -2 0
-4 -4 -4 -10z"/>
<path d="M655 2919 c-11 -17 1 -21 15 -4 8 9 8 15 2 15 -6 0 -14 -5 -17 -11z"/>
<path d="M605 2910 c-3 -5 1 -10 10 -10 9 0 13 5 10 10 -3 6 -8 10 -10 10 -2
0 -7 -4 -10 -10z"/>
<path d="M4485 2910 c3 -5 12 -7 20 -3 21 7 19 13 -6 13 -11 0 -18 -4 -14 -10z"/>
<path d="M4575 2899 c-4 -5 -9 -29 -11 -52 l-3 -42 13 35 c7 19 11 38 9 43 -2
4 -1 7 2 7 13 0 65 -65 65 -81 0 -9 6 -22 14 -28 8 -7 18 -26 21 -42 4 -16 11
-29 15 -29 10 0 6 14 -23 80 -44 99 -83 141 -102 109z"/>
<path d="M518 2883 c-20 -22 -48 -90 -47 -112 0 -9 10 5 22 31 12 26 32 55 44
66 13 10 20 22 16 26 -10 10 -19 7 -35 -11z"/>
<path d="M559 2863 c-7 -10 -9 -15 -4 -10 4 4 17 -1 28 -10 19 -18 20 -17 7 7
-7 14 -14 26 -15 28 -1 1 -8 -6 -16 -15z"/>
<path d="M4723 2785 c0 -22 2 -30 4 -17 2 12 2 30 0 40 -3 9 -5 -1 -4 -23z"/>
<path d="M392 2760 c0 -14 2 -19 5 -12 2 6 2 18 0 25 -3 6 -5 1 -5 -13z"/>
<path d="M400 2693 c0 -16 40 -73 51 -73 12 0 11 2 -16 47 -19 31 -35 43 -35
26z"/>
<path d="M4690 2684 c0 -10 -7 -26 -17 -36 -9 -10 -13 -21 -9 -26 9 -8 46 34
46 54 0 7 -4 16 -10 19 -5 3 -10 -2 -10 -11z"/>
<path d="M0 2533 c0 -11 159 -13 853 -11 l854 3 6 -283 c3 -156 3 -346 0 -422
l-6 -139 406 5 407 6 1 -98 c0 -55 0 -435 -1 -846 -1 -619 1 -748 12 -748 11
0 14 217 16 1270 l3 1270 -423 2 c-1352 7 -2128 4 -2128 -9z m2535 -416 l0
-407 -340 0 c-187 -1 -366 -3 -397 -7 l-58 -5 0 410 c0 377 1 411 17 414 9 2
188 3 397 2 l381 0 0 -407z"/>
<path d="M2990 2542 l-415 -2 0 -378 c3 -1820 5 -2164 18 -2159 9 3 11 179 9
847 l-3 843 405 -6 406 -6 0 422 0 422 855 -3 c691 -2 855 0 855 11 0 10 -165
12 -857 12 -472 0 -1045 -1 -1273 -3z m395 -425 c0 -264 -4 -407 -10 -407 -30
-1 -725 2 -750 3 l-30 2 -3 406 -2 406 397 -1 398 -1 0 -408z"/>
<path d="M447 2489 c-19 -11 -52 -77 -43 -86 2 -2 7 5 11 16 3 11 23 34 43 51
35 29 27 41 -11 19z"/>
<path d="M595 2486 c11 -9 28 -27 39 -39 l18 -22 -14 24 c-8 14 -25 31 -39 39
-23 14 -23 13 -4 -2z"/>
<path d="M4507 2472 c-38 -40 -34 -52 6 -15 17 17 39 33 47 36 10 4 9 6 -6 6
-11 1 -32 -12 -47 -27z"/>
<path d="M4670 2475 c35 -26 40 -28 40 -20 0 10 -45 45 -59 45 -8 0 0 -11 19
-25z"/>
<path d="M391 2374 c0 -11 3 -14 6 -6 3 7 2 16 -1 19 -3 4 -6 -2 -5 -13z"/>
<path d="M4668 2329 c-10 -5 -18 -15 -18 -22 -1 -18 -44 -64 -67 -71 -24 -8
-26 -36 -3 -36 18 0 48 35 89 103 25 40 25 41 -1 26z"/>
<path d="M450 2322 c0 -4 17 -32 38 -62 38 -55 68 -70 82 -40 4 8 12 25 18 37
16 30 15 37 -2 21 -8 -8 -15 -23 -17 -33 -6 -28 -35 -26 -50 3 -15 28 -69 86
-69 74z"/>
<path d="M4721 2300 c0 -14 -10 -40 -22 -59 -11 -18 -18 -35 -16 -38 11 -11
48 69 44 94 -4 27 -4 27 -6 3z"/>
<path d="M4550 2250 c0 -5 5 -10 11 -10 5 0 7 5 4 10 -3 6 -8 10 -11 10 -2 0
-4 -4 -4 -10z"/>
<path d="M655 2190 c3 -5 13 -10 21 -10 8 0 12 5 9 10 -3 6 -13 10 -21 10 -8
0 -12 -4 -9 -10z"/>
<path d="M4430 2190 c0 -5 7 -10 15 -10 8 0 15 5 15 10 0 6 -7 10 -15 10 -8 0
-15 -4 -15 -10z"/>
<path d="M4507 2165 c-5 -10 0 -15 14 -15 12 0 19 5 17 12 -6 18 -25 20 -31 3z"/>
<path d="M585 2161 c-10 -17 12 -21 25 -6 10 12 10 15 -3 15 -9 0 -18 -4 -22
-9z"/>
<path d="M4613 2153 c-13 -2 -23 -8 -23 -12 0 -5 11 -6 25 -3 14 2 25 8 25 13
0 5 -1 8 -2 8 -2 -1 -13 -4 -25 -6z"/>
<path d="M495 2140 c3 -5 13 -10 21 -10 8 0 12 5 9 10 -3 6 -13 10 -21 10 -8
0 -12 -4 -9 -10z"/>
<path d="M4441 2134 c-12 -14 -11 -16 4 -12 10 1 20 9 23 16 5 17 -10 15 -27
-4z"/>
<path d="M660 2130 c0 -5 6 -10 14 -10 8 0 23 -3 33 -6 10 -3 7 2 -7 10 -30
18 -40 20 -40 6z"/>
<path d="M4407 2113 c-4 -3 -7 -11 -7 -17 0 -6 5 -5 12 2 6 6 9 14 7 17 -3 3
-9 2 -12 -2z"/>
<path d="M502 2078 c6 -18 28 -21 28 -4 0 9 -7 16 -16 16 -9 0 -14 -5 -12 -12z"/>
<path d="M586 2082 c-2 -4 -1 -14 4 -22 8 -13 11 -13 22 -1 11 11 11 13 -1 6
-11 -6 -13 -4 -8 8 6 17 -7 24 -17 9z"/>
<path d="M4500 2070 c0 -11 5 -20 11 -20 6 0 8 7 5 16 -3 8 -2 12 3 9 5 -3 12
-1 16 5 3 5 -3 10 -14 10 -14 0 -21 -6 -21 -20z"/>
<path d="M4592 2078 c6 -18 28 -21 28 -4 0 9 -7 16 -16 16 -9 0 -14 -5 -12
-12z"/>
<path d="M3430 2065 c0 -8 5 -15 12 -15 6 0 23 -10 37 -22 14 -13 10 -6 -8 15
-39 42 -41 43 -41 22z"/>
<path d="M4436 2054 c-8 -21 -8 -24 3 -24 12 0 22 28 12 35 -5 3 -12 -2 -15
-11z"/>
<path d="M670 2044 c0 -8 5 -12 10 -9 6 3 10 10 10 16 0 5 -4 9 -10 9 -5 0
-10 -7 -10 -16z"/>
<path d="M4526 2033 c-6 -14 -5 -15 5 -6 7 7 10 15 7 18 -3 3 -9 -2 -12 -12z"/>
<path d="M1595 1974 c-44 -30 -87 -60 -95 -67 -9 -7 -40 -25 -70 -40 -30 -15
-47 -27 -39 -27 19 1 84 34 141 73 26 17 72 48 103 66 30 19 55 39 55 43 0 14
-12 7 -95 -48z"/>
<path d="M3454 2012 c8 -13 66 -56 66 -49 0 3 -17 17 -37 33 -20 15 -33 23
-29 16z"/>
<path d="M1652 1963 c-18 -8 -31 -18 -28 -20 5 -5 66 25 66 32 0 7 -1 7 -38
-12z"/>
<path d="M3460 1976 c0 -2 8 -10 18 -17 15 -13 16 -12 3 4 -13 16 -21 21 -21
13z"/>
<path d="M1659 1911 c11 -7 8 -13 -13 -26 -36 -24 -25 -31 13 -9 35 21 38 29
15 38 -23 9 -31 7 -15 -3z"/>
<path d="M3431 1904 c0 -11 3 -14 6 -6 3 7 2 16 -1 19 -3 4 -6 -2 -5 -13z"/>
<path d="M3720 1916 c0 -2 11 -6 25 -8 13 -3 22 -1 19 3 -5 9 -44 13 -44 5z"/>
<path d="M3788 1903 c7 -3 16 -2 19 1 4 3 -2 6 -13 5 -11 0 -14 -3 -6 -6z"/>
<path d="M3500 1860 c30 -16 64 -29 75 -28 19 0 19 1 1 5 -10 3 -38 16 -62 29
-24 13 -49 24 -56 24 -7 -1 12 -14 42 -30z"/>
<path d="M3674 1865 c27 -14 51 -23 53 -22 4 5 -77 47 -90 46 -7 0 10 -11 37
-24z"/>
<path d="M1558 1853 c7 -3 16 -2 19 1 4 3 -2 6 -13 5 -11 0 -14 -3 -6 -6z"/>
<path d="M1510 1833 c-22 -11 -22 -13 -5 -12 11 0 29 4 39 8 15 6 16 9 5 13
-8 2 -25 -1 -39 -9z"/>
<path d="M1653 1817 c-17 -7 -35 -16 -40 -21 -5 -5 0 -6 10 -3 11 4 30 10 43
13 13 3 24 10 24 15 0 5 -1 9 -2 8 -2 0 -17 -6 -35 -12z"/>
<path d="M3610 1822 c8 -5 26 -13 40 -16 17 -5 20 -4 10 2 -8 5 -26 13 -40 16
-17 5 -20 4 -10 -2z"/>
<path d="M1418 1794 c-27 -8 -48 -17 -48 -19 0 -7 62 7 95 21 40 18 12 16 -47
-2z"/>
<path d="M1550 1780 c-18 -12 -2 -12 25 0 13 6 15 9 5 9 -8 0 -22 -4 -30 -9z"/>
<path d="M3578 1763 c7 -3 16 -2 19 1 4 3 -2 6 -13 5 -11 0 -14 -3 -6 -6z"/>
<path d="M1662 1707 c-11 -25 -64 -100 -117 -166 -54 -67 -95 -124 -92 -127 2
-3 46 46 96 108 87 108 151 212 138 224 -3 3 -14 -15 -25 -39z"/>
<path d="M1338 1723 c7 -3 16 -2 19 1 4 3 -2 6 -13 5 -11 0 -14 -3 -6 -6z"/>
<path d="M3430 1720 c0 -8 12 -33 28 -56 28 -43 38 -55 87 -107 17 -17 52 -58
78 -90 26 -33 47 -55 47 -50 0 12 -63 95 -116 153 -61 66 -89 101 -107 135 -9
17 -16 23 -17 15z"/>
<path d="M1265 1710 c-27 -7 -28 -8 -5 -8 14 0 34 3 45 8 25 11 2 11 -40 0z"/>
<path d="M1038 1703 c12 -2 30 -2 40 0 9 3 -1 5 -23 4 -22 0 -30 -2 -17 -4z"/>
<path d="M3808 1703 c7 -3 16 -2 19 1 4 3 -2 6 -13 5 -11 0 -14 -3 -6 -6z"/>
<path d="M1842 1614 c-13 -26 -21 -48 -19 -51 2 -2 10 10 17 27 7 17 21 35 31
41 22 11 25 29 6 29 -7 0 -23 -21 -35 -46z"/>
<path d="M2000 1651 c0 -7 -4 -10 -8 -7 -9 5 -66 -83 -77 -119 -7 -20 -6 -20
9 -1 9 11 16 26 16 34 0 7 5 10 12 6 6 -4 8 -3 4 4 -3 6 8 27 25 47 17 20 29
39 25 42 -3 3 -6 1 -6 -6z"/>
<path d="M3114 1577 c23 -46 48 -109 55 -140 7 -31 16 -59 21 -62 5 -3 0 27
-11 67 -22 79 -84 218 -98 218 -5 0 10 -37 33 -83z"/>
<path d="M3146 1647 c3 -10 9 -15 12 -12 3 3 0 11 -7 18 -10 9 -11 8 -5 -6z"/>
<path d="M3179 1645 c17 -33 31 -51 31 -40 0 6 -10 21 -21 35 -13 17 -17 18
-10 5z"/>
<path d="M3140 1600 c6 -11 13 -20 16 -20 2 0 0 9 -6 20 -6 11 -13 20 -16 20
-2 0 0 -9 6 -20z"/>
<path d="M3170 1611 c0 -6 4 -13 10 -16 6 -3 7 1 4 9 -7 18 -14 21 -14 7z"/>
<path d="M1849 1543 c-46 -70 -66 -108 -49 -98 6 3 10 11 10 17 0 6 15 31 34
57 33 46 60 91 53 91 -2 0 -23 -30 -48 -67z"/>
<path d="M1991 1556 c-25 -59 -62 -198 -56 -204 2 -2 9 16 15 39 6 24 24 82
40 129 33 97 33 117 1 36z"/>
<path d="M3267 1500 c10 -11 19 -20 21 -20 1 0 -2 9 -8 20 -6 11 -15 20 -20
20 -6 0 -2 -9 7 -20z"/>
<path d="M3232 1457 c6 -23 15 -46 21 -52 7 -7 8 -3 3 10 -4 11 -10 32 -13 48
-3 15 -9 30 -13 32 -4 3 -3 -14 2 -38z"/>
<path d="M1876 1459 c-8 -19 -17 -52 -20 -74 -5 -32 -3 -29 10 15 9 30 20 61
26 68 6 7 8 15 5 19 -4 3 -13 -9 -21 -28z"/>
<path d="M3300 1466 c0 -4 10 -20 21 -36 12 -15 30 -52 41 -82 14 -38 18 -43
14 -19 -7 39 -44 117 -63 133 -7 6 -13 7 -13 4z"/>
<path d="M1160 1450 c-8 -5 -10 -10 -5 -10 6 0 17 5 25 10 8 5 11 10 5 10 -5
0 -17 -5 -25 -10z"/>
<path d="M1771 1394 c0 -11 3 -14 6 -6 3 7 2 16 -1 19 -3 4 -6 -2 -5 -13z"/>
<path d="M1755 1359 c-4 -6 -5 -12 -2 -15 2 -3 7 2 10 11 7 17 1 20 -8 4z"/>
<path d="M1055 1330 c-3 -6 1 -7 9 -4 18 7 21 14 7 14 -6 0 -13 -4 -16 -10z"/>
<path d="M1842 1320 c0 -14 2 -19 5 -12 2 6 2 18 0 25 -3 6 -5 1 -5 -13z"/>
<path d="M1741 1314 c0 -11 3 -14 6 -6 3 7 2 16 -1 19 -3 4 -6 -2 -5 -13z"/>
<path d="M989 1283 c-13 -16 -12 -17 4 -4 9 7 17 15 17 17 0 8 -8 3 -21 -13z"/>
<path d="M1726 1275 c-3 -9 -6 -22 -5 -28 0 -7 5 -1 10 12 5 13 8 26 5 28 -2
2 -6 -3 -10 -12z"/>
<path d="M3383 1230 c0 -36 2 -50 4 -32 2 17 2 47 0 65 -2 17 -4 3 -4 -33z"/>
<path d="M946 1225 c-9 -26 -7 -32 5 -12 6 10 9 21 6 23 -2 3 -7 -2 -11 -11z"/>
<path d="M1712 1200 c0 -14 2 -19 5 -12 2 6 2 18 0 25 -3 6 -5 1 -5 -13z"/>
<path d="M4237 1139 c4 -13 8 -18 11 -10 2 7 -1 18 -6 23 -8 8 -9 4 -5 -13z"/>
<path d="M945 1120 c3 -5 8 -10 11 -10 2 0 4 5 4 10 0 6 -5 10 -11 10 -5 0 -7
-4 -4 -10z"/>
<path d="M3383 1080 c0 -25 2 -35 4 -22 2 12 2 32 0 45 -2 12 -4 2 -4 -23z"/>
<path d="M4181 1094 c0 -11 3 -14 6 -6 3 7 2 16 -1 19 -3 4 -6 -2 -5 -13z"/>
<path d="M4084 1029 c-4 -8 -3 -10 4 -5 6 4 25 0 42 -9 16 -8 30 -11 30 -6 0
5 -8 11 -17 14 -10 2 -25 8 -34 12 -10 3 -20 1 -25 -6z"/>
<path d="M1016 1004 c-22 -21 -20 -27 4 -12 11 7 20 16 20 20 0 12 -7 10 -24
-8z"/>
<path d="M4035 1010 c-3 -5 -1 -10 4 -10 6 0 11 5 11 10 0 6 -2 10 -4 10 -3 0
-8 -4 -11 -10z"/>
<path d="M4075 990 c-3 -5 1 -10 10 -10 9 0 13 5 10 10 -3 6 -8 10 -10 10 -2
0 -7 -4 -10 -10z"/>
<path d="M1090 973 c0 -5 5 -15 10 -23 8 -12 10 -11 10 8 0 12 -4 22 -10 22
-5 0 -10 -3 -10 -7z"/>
<path d="M1050 959 c0 -5 5 -7 10 -4 6 3 10 8 10 11 0 2 -4 4 -10 4 -5 0 -10
-5 -10 -11z"/>
<path d="M2147 650 c-3 -11 -3 -20 -1 -20 2 0 8 9 14 20 6 11 7 20 2 20 -6 0
-12 -9 -15 -20z"/>
<path d="M2969 626 c9 -18 18 -32 20 -30 6 5 -20 64 -29 64 -4 0 0 -15 9 -34z"/>
<path d="M2215 640 c-3 -5 -1 -10 4 -10 6 0 11 5 11 10 0 6 -2 10 -4 10 -3 0
-8 -4 -11 -10z"/>
<path d="M2880 630 c0 -5 5 -10 10 -10 6 0 10 5 10 10 0 6 -4 10 -10 10 -5 0
-10 -4 -10 -10z"/>
<path d="M2130 601 c0 -25 6 -27 13 -6 4 8 2 17 -3 20 -6 4 -10 -3 -10 -14z"/>
<path d="M2160 576 c0 -9 5 -16 10 -16 6 0 10 4 10 9 0 6 -4 13 -10 16 -5 3
-10 -1 -10 -9z"/>
<path d="M2936 559 c-7 -34 7 -59 31 -59 11 0 8 6 -8 19 -22 18 -22 19 -6 45
14 21 15 26 3 26 -7 0 -16 -14 -20 -31z"/>
<path d="M3115 570 c-3 -5 -2 -10 4 -10 5 0 13 5 16 10 3 6 2 10 -4 10 -5 0
-13 -4 -16 -10z"/>
<path d="M1975 560 c3 -5 11 -10 16 -10 6 0 7 5 4 10 -3 6 -11 10 -16 10 -6 0
-7 -4 -4 -10z"/>
<path d="M2065 560 c-8 -13 4 -32 16 -25 12 8 12 35 0 35 -6 0 -13 -4 -16 -10z"/>
<path d="M2885 560 c-19 -8 -19 -9 3 -9 12 -1 22 4 22 9 0 6 -1 10 -2 9 -2 0
-12 -4 -23 -9z"/>
<path d="M3025 560 c-3 -5 1 -10 10 -10 9 0 13 5 10 10 -3 6 -8 10 -10 10 -2
0 -7 -4 -10 -10z"/>
<path d="M2271 531 c-14 -4 -26 -12 -29 -20 -3 -10 0 -11 16 -2 45 24 146 3
178 -37 36 -46 39 -84 9 -121 -43 -50 -107 -36 -191 43 -47 45 -48 48 -29 101
l7 20 -17 -20 c-39 -47 -38 -52 10 -104 52 -56 118 -91 171 -91 51 0 94 44 94
97 0 97 -110 165 -219 134z"/>
<path d="M3007 526 c-4 -10 -1 -13 9 -9 7 3 14 9 14 14 0 14 -17 10 -23 -5z"/>
<path d="M1985 520 c3 -5 10 -10 16 -10 5 0 9 5 9 10 0 6 -7 10 -16 10 -8 0
-12 -4 -9 -10z"/>
<path d="M2703 510 c-41 -25 -60 -55 -69 -107 -6 -38 -3 -45 24 -73 23 -22 40
-30 67 -30 59 0 149 55 195 120 l21 29 -21 21 c-11 11 -23 20 -27 20 -4 0 -2
-5 5 -12 19 -19 15 -34 -18 -72 -35 -39 -118 -86 -153 -86 -38 0 -67 35 -67
80 0 60 31 88 120 110 l75 18 -60 1 c-43 1 -69 -5 -92 -19z"/>
<path d="M3100 520 c0 -5 4 -10 9 -10 6 0 13 5 16 10 3 6 -1 10 -9 10 -9 0
-16 -4 -16 -10z"/>
<path d="M2120 503 c0 -17 12 -16 36 2 18 14 18 14 -8 13 -16 -1 -28 -8 -28
-15z"/>
<path d="M2040 502 c0 -5 11 -19 25 -32 14 -13 25 -18 25 -12 0 7 -4 12 -9 12
-5 0 -13 9 -16 20 -6 19 -25 28 -25 12z"/>
<path d="M3045 470 c-10 -11 -13 -20 -8 -20 13 0 38 29 31 35 -3 3 -13 -4 -23
-15z"/>
<path d="M2146 451 c-3 -4 1 -17 8 -27 13 -17 14 -17 9 9 -6 29 -9 32 -17 18z"/>
</g>
</svg>
