<?xml version="1.0" standalone="no"?>
<!DOCTYPE svg PUBLIC "-//W3C//DTD SVG 20010904//EN"
 "http://www.w3.org/TR/2001/REC-SVG-20010904/DTD/svg10.dtd">
<svg version="1.0" xmlns="http://www.w3.org/2000/svg"
 width="512.000000pt" height="512.000000pt" viewBox="0 0 512.000000 512.000000"
 preserveAspectRatio="xMidYMid meet">
<metadata>
Created by potrace 1.16, written by Peter Selinger 2001-2019
</metadata>
<g transform="translate(0.000000,512.000000) scale(0.100000,-0.100000)"
fill="#000000" stroke="none">
<path d="M1018 5113 c7 -3 16 -2 19 1 4 3 -2 6 -13 5 -11 0 -14 -3 -6 -6z"/>
<path d="M2718 5113 c7 -3 16 -2 19 1 4 3 -2 6 -13 5 -11 0 -14 -3 -6 -6z"/>
<path d="M600 5089 c0 -5 5 -7 10 -4 6 3 10 8 10 11 0 2 -4 4 -10 4 -5 0 -10
-5 -10 -11z"/>
<path d="M790 5086 c0 -22 17 -28 24 -10 9 22 8 24 -9 24 -8 0 -15 -6 -15 -14z"/>
<path d="M416 5074 c-17 -16 -21 -34 -8 -34 13 0 52 30 52 41 0 14 -27 11 -44
-7z"/>
<path d="M300 5065 c0 -9 5 -15 11 -13 6 2 11 8 11 13 0 5 -5 11 -11 13 -6 2
-11 -4 -11 -13z"/>
<path d="M530 5064 c0 -10 6 -14 15 -10 8 3 15 1 15 -4 0 -5 9 -14 20 -20 14
-7 20 -7 20 0 0 5 -7 10 -15 10 -14 0 -19 12 -16 33 0 4 -8 7 -19 7 -12 0 -20
-7 -20 -16z"/>
<path d="M748 5073 c-14 -2 -31 -10 -36 -16 -18 -21 35 -17 54 4 9 10 15 18
13 18 -2 -1 -16 -4 -31 -6z"/>
<path d="M951 5065 c-14 -7 -19 -15 -13 -19 6 -3 13 -2 17 4 4 6 10 8 14 6 4
-3 13 -1 20 3 23 15 -13 20 -38 6z"/>
<path d="M655 5060 c-3 -5 -1 -10 4 -10 6 0 11 5 11 10 0 6 -2 10 -4 10 -3 0
-8 -4 -11 -10z"/>
<path d="M880 5060 c0 -5 5 -10 11 -10 5 0 7 5 4 10 -3 6 -8 10 -11 10 -2 0
-4 -4 -4 -10z"/>
<path d="M490 5039 c0 -5 5 -7 10 -4 6 3 10 8 10 11 0 2 -4 4 -10 4 -5 0 -10
-5 -10 -11z"/>
<path d="M2827 5034 c3 -7 9 -14 14 -14 14 0 10 17 -5 23 -10 4 -13 1 -9 -9z"/>
<path d="M156 5005 c-9 -35 -9 -39 2 -43 11 -3 33 53 25 62 -12 12 -21 5 -27
-19z"/>
<path d="M235 5010 c-3 -5 -2 -10 4 -10 5 0 13 5 16 10 3 6 2 10 -4 10 -5 0
-13 -4 -16 -10z"/>
<path d="M860 5009 c0 -5 5 -7 10 -4 6 3 10 8 10 11 0 2 -4 4 -10 4 -5 0 -10
-5 -10 -11z"/>
<path d="M2772 5004 c10 -10 20 -15 24 -12 3 4 -5 12 -18 18 -22 12 -22 12 -6
-6z"/>
<path d="M800 4978 c-19 -11 -36 -24 -38 -29 -2 -5 -10 -9 -17 -9 -8 0 -17 -4
-20 -10 -16 -26 35 -6 75 30 51 44 51 48 0 18z"/>
<path d="M2880 4992 c0 -9 140 -102 154 -102 19 0 1 19 -34 34 -22 10 -40 22
-40 27 0 5 -5 9 -11 9 -6 0 -24 9 -40 21 -16 11 -29 16 -29 11z"/>
<path d="M470 4975 c-16 -19 -3 -40 16 -24 15 13 19 39 5 39 -5 0 -14 -7 -21
-15z"/>
<path d="M671 4981 c-7 -5 -10 -14 -6 -20 5 -9 10 -9 21 0 26 22 14 38 -15 20z"/>
<path d="M578 4957 c-36 -20 -52 -47 -25 -43 16 2 77 48 77 58 0 12 -10 9 -52
-15z"/>
<path d="M378 4953 c-20 -5 -25 -33 -5 -33 6 0 23 9 37 20 23 18 23 19 5 19
-11 -1 -28 -3 -37 -6z"/>
<path d="M2840 4941 c0 -4 11 -13 25 -19 14 -6 25 -8 25 -3 0 4 -11 13 -25 19
-14 6 -25 8 -25 3z"/>
<path d="M266 4925 c-3 -8 -17 -20 -31 -25 -14 -5 -25 -14 -25 -20 0 -7 7 -7
22 1 12 7 31 13 43 14 11 1 23 3 28 4 4 0 7 10 7 21 0 24 -35 28 -44 5z"/>
<path d="M477 4903 c-10 -9 -9 -23 2 -23 5 0 11 7 15 15 5 15 -5 20 -17 8z"/>
<path d="M2900 4904 c0 -12 63 -52 94 -60 15 -3 29 -10 32 -15 7 -12 24 -11
24 1 0 6 -5 10 -10 10 -14 0 -76 30 -112 54 -16 10 -28 14 -28 10z"/>
<path d="M73 4892 c-8 -5 -9 -13 -3 -22 7 -12 12 -12 22 -2 14 14 -1 35 -19
24z"/>
<path d="M3050 4894 c1 -11 150 -75 150 -65 0 18 -52 53 -82 55 -18 2 -41 6
-50 10 -10 5 -18 4 -18 0z"/>
<path d="M400 4880 c0 -5 5 -10 10 -10 6 0 10 5 10 10 0 6 -4 10 -10 10 -5 0
-10 -4 -10 -10z"/>
<path d="M3210 4886 c0 -14 29 -63 45 -76 10 -8 19 -10 25 -4 6 6 -6 24 -30
48 -22 21 -40 36 -40 32z"/>
<path d="M345 4869 c-4 -6 -4 -13 -1 -16 8 -8 36 5 36 17 0 13 -27 13 -35 -1z"/>
<path d="M577 4869 c-34 -19 -16 -26 56 -21 92 6 124 21 41 20 -33 -1 -65 1
-70 4 -5 4 -17 2 -27 -3z"/>
<path d="M3071 4816 c2 -2 37 -18 77 -34 39 -17 93 -47 118 -67 26 -19 56 -35
67 -35 18 0 17 2 -6 20 -14 11 -29 20 -33 20 -4 0 -18 9 -30 21 -23 21 -155
79 -182 79 -8 0 -13 -2 -11 -4z"/>
<path d="M446 4774 c-13 -34 23 -47 51 -18 14 13 14 17 2 25 -22 14 -46 11
-53 -7z"/>
<path d="M200 4770 c0 -5 9 -10 20 -10 11 0 20 5 20 10 0 6 -9 10 -20 10 -11
0 -20 -4 -20 -10z"/>
<path d="M3486 4725 c33 -28 44 -31 44 -11 0 8 -14 19 -31 25 -45 15 -46 14
-13 -14z"/>
<path d="M559 4712 c-32 -37 -10 -53 31 -22 23 17 23 18 3 28 -15 9 -23 7 -34
-6z"/>
<path d="M3375 4720 c3 -5 8 -10 11 -10 2 0 4 5 4 10 0 6 -5 10 -11 10 -5 0
-7 -4 -4 -10z"/>
<path d="M115 4670 c-3 -5 1 -10 10 -10 9 0 13 5 10 10 -3 6 -8 10 -10 10 -2
0 -7 -4 -10 -10z"/>
<path d="M3570 4661 c0 -24 18 -37 32 -23 8 8 6 15 -5 26 -21 21 -27 20 -27
-3z"/>
<path d="M4060 4660 c0 -5 5 -10 10 -10 6 0 10 5 10 10 0 6 -4 10 -10 10 -5 0
-10 -4 -10 -10z"/>
<path d="M3405 4650 c3 -5 11 -10 16 -10 6 0 7 5 4 10 -3 6 -11 10 -16 10 -6
0 -7 -4 -4 -10z"/>
<path d="M610 4635 c0 -8 -4 -15 -10 -15 -5 0 -10 -8 -10 -17 1 -16 2 -16 18
2 9 11 25 19 35 17 10 -2 17 3 17 12 0 10 -9 16 -25 16 -16 0 -25 -6 -25 -15z"/>
<path d="M3270 4641 c0 -13 8 -17 48 -26 38 -8 43 7 7 23 -31 14 -55 15 -55 3z"/>
<path d="M702 4628 c-15 -15 -16 -28 -2 -28 6 0 10 6 10 14 0 8 6 17 13 19 6
3 7 6 2 6 -6 1 -16 -4 -23 -11z"/>
<path d="M3475 4620 c3 -5 15 -10 26 -10 11 0 17 5 14 10 -3 6 -15 10 -26 10
-11 0 -17 -4 -14 -10z"/>
<path d="M790 4609 c0 -5 5 -7 10 -4 6 3 10 8 10 11 0 2 -4 4 -10 4 -5 0 -10
-5 -10 -11z"/>
<path d="M4295 4610 c3 -5 11 -10 16 -10 6 0 7 5 4 10 -3 6 -11 10 -16 10 -6
0 -7 -4 -4 -10z"/>
<path d="M340 4594 c0 -8 5 -12 10 -9 6 3 10 10 10 16 0 5 -4 9 -10 9 -5 0
-10 -7 -10 -16z"/>
<path d="M2516 4584 c-85 -20 -198 -84 -299 -169 -49 -41 -96 -77 -105 -80
-52 -17 -68 -100 -39 -205 47 -168 72 -240 117 -340 25 -55 38 -97 36 -119 -2
-30 -1 -31 11 -15 22 30 15 70 -26 151 -46 93 -131 369 -131 428 0 56 34 95
75 87 21 -4 26 -2 20 8 -19 31 206 187 326 225 85 26 107 26 169 -6 75 -38
165 -165 229 -325 54 -136 215 -484 247 -533 31 -47 47 -61 104 -88 80 -39 96
-60 143 -195 17 -52 43 -108 57 -126 73 -95 63 -88 115 -74 25 7 50 10 55 7
10 -6 83 55 76 63 -3 2 -20 -7 -38 -21 -18 -14 -44 -25 -58 -25 -14 1 -37 -2
-51 -6 -22 -6 -30 -3 -47 21 -37 52 -78 137 -103 213 -30 93 -81 149 -157 174
-29 10 -52 22 -52 26 0 5 -12 26 -26 47 -24 35 -104 195 -104 208 0 3 -25 60
-55 127 -31 67 -54 127 -51 135 3 8 2 12 -3 9 -4 -3 -13 5 -18 17 -76 163
-124 248 -167 294 -80 88 -148 112 -250 87z"/>
<path d="M465 4580 c-3 -5 -2 -10 4 -10 5 0 13 5 16 10 3 6 2 10 -4 10 -5 0
-13 -4 -16 -10z"/>
<path d="M1111 4574 c0 -11 3 -14 6 -6 3 7 2 16 -1 19 -3 4 -6 -2 -5 -13z"/>
<path d="M1458 4573 c7 -3 16 -2 19 1 4 3 -2 6 -13 5 -11 0 -14 -3 -6 -6z"/>
<path d="M3214 4565 c-15 -11 -16 -14 -4 -15 21 0 44 16 33 23 -6 4 -19 0 -29
-8z"/>
<path d="M3405 4559 c-4 -6 -5 -12 -3 -14 7 -7 48 7 48 16 0 13 -37 11 -45 -2z"/>
<path d="M3480 4560 c0 -5 6 -10 14 -10 7 0 19 -7 26 -15 16 -19 30 -19 30 -1
0 17 -5 21 -42 30 -17 4 -28 2 -28 -4z"/>
<path d="M705 4552 c-10 -7 -35 -48 -35 -57 0 -2 7 -2 15 1 8 4 15 15 15 26 0
10 4 17 9 13 5 -3 12 -1 15 4 8 12 -7 22 -19 13z"/>
<path d="M3120 4550 c-8 -5 -10 -10 -5 -10 6 0 17 5 25 10 8 5 11 10 5 10 -5
0 -17 -5 -25 -10z"/>
<path d="M3595 4550 c-3 -5 1 -13 10 -16 22 -9 29 1 11 15 -10 8 -16 9 -21 1z"/>
<path d="M416 4541 c-12 -5 -15 -10 -9 -14 6 -4 16 0 23 8 14 17 13 17 -14 6z"/>
<path d="M4225 4540 c3 -5 10 -10 16 -10 5 0 9 5 9 10 0 6 -7 10 -16 10 -8 0
-12 -4 -9 -10z"/>
<path d="M86 4524 c-11 -8 -30 -14 -43 -14 -18 0 -22 -5 -21 -25 2 -23 18 -37
18 -15 0 6 8 10 18 10 21 0 56 34 51 49 -3 5 -12 4 -23 -5z"/>
<path d="M520 4530 c0 -5 -3 -9 -7 -9 -23 4 -33 -3 -33 -21 0 -11 7 -20 15
-20 8 0 15 5 15 11 0 6 10 10 23 9 40 -4 57 0 57 11 0 7 -10 9 -25 5 -19 -5
-23 -3 -19 9 4 10 0 15 -10 15 -9 0 -16 -4 -16 -10z"/>
<path d="M3325 4530 l-30 -8 27 -1 c15 0 30 4 33 9 3 6 5 9 3 9 -2 -1 -16 -5
-33 -9z"/>
<path d="M257 4492 c-18 -19 -25 -35 -21 -46 5 -13 9 -14 20 -5 8 6 14 18 14
25 0 13 13 19 34 15 5 -1 16 1 24 4 11 4 12 8 2 20 -19 23 -43 18 -73 -13z"/>
<path d="M410 4486 c0 -8 5 -18 10 -21 6 -3 10 1 10 9 0 8 -4 18 -10 21 -5 3
-10 -1 -10 -9z"/>
<path d="M780 4490 c-9 -6 -10 -10 -3 -10 6 0 15 5 18 10 8 12 4 12 -15 0z"/>
<path d="M3068 4493 c6 -2 18 -2 25 0 6 3 1 5 -13 5 -14 0 -19 -2 -12 -5z"/>
<path d="M3128 4493 c7 -3 16 -2 19 1 4 3 -2 6 -13 5 -11 0 -14 -3 -6 -6z"/>
<path d="M3680 4485 c0 -8 7 -15 15 -15 8 0 15 7 15 15 0 8 -7 15 -15 15 -8 0
-15 -7 -15 -15z"/>
<path d="M3850 4490 c0 -5 9 -10 20 -10 11 0 20 5 20 10 0 6 -9 10 -20 10 -11
0 -20 -4 -20 -10z"/>
<path d="M590 4480 c0 -5 7 -10 16 -10 8 0 12 5 9 10 -3 6 -10 10 -16 10 -5 0
-9 -4 -9 -10z"/>
<path d="M200 4460 c0 -5 5 -10 10 -10 6 0 10 5 10 10 0 6 -4 10 -10 10 -5 0
-10 -4 -10 -10z"/>
<path d="M333 4454 c-3 -8 1 -23 10 -31 13 -13 19 -14 31 -3 20 16 20 36 0 44
-25 9 -34 7 -41 -10z"/>
<path d="M1047 4424 c-10 -13 -17 -26 -17 -29 0 -3 -18 -20 -41 -38 -45 -34
-60 -57 -37 -57 15 0 48 34 48 50 0 5 13 17 29 26 17 10 32 29 36 42 8 33 3
35 -18 6z"/>
<path d="M1116 4428 c-17 -24 -14 -33 7 -25 16 6 30 47 17 47 -5 0 -16 -10
-24 -22z"/>
<path d="M3650 4440 c0 -5 5 -10 10 -10 6 0 10 5 10 10 0 6 -4 10 -10 10 -5 0
-10 -4 -10 -10z"/>
<path d="M4030 4435 c0 -8 5 -15 10 -15 6 0 10 7 10 15 0 8 -4 15 -10 15 -5 0
-10 -7 -10 -15z"/>
<path d="M670 4430 c0 -5 5 -10 10 -10 6 0 10 -10 10 -22 0 -12 3 -19 6 -15 9
9 -5 57 -16 57 -6 0 -10 -4 -10 -10z"/>
<path d="M260 4420 c0 -5 5 -10 10 -10 6 0 10 5 10 10 0 6 -4 10 -10 10 -5 0
-10 -4 -10 -10z"/>
<path d="M1750 4410 c0 -6 7 -10 15 -10 8 0 15 2 15 4 0 2 -7 6 -15 10 -8 3
-15 1 -15 -4z"/>
<path d="M580 4393 c-8 -3 -19 -12 -23 -19 -4 -8 -16 -14 -25 -15 -9 0 -1 -5
18 -11 30 -8 37 -7 52 12 29 36 20 49 -22 33z"/>
<path d="M3635 4380 c3 -5 15 -10 26 -10 10 0 19 5 19 10 0 6 -12 10 -26 10
-14 0 -23 -4 -19 -10z"/>
<path d="M490 4368 c0 -11 -21 -27 -59 -45 -62 -29 -83 -57 -49 -66 13 -4 22
2 30 19 13 28 23 31 32 9 4 -13 10 -14 26 -5 11 6 20 17 20 25 0 8 5 15 10 15
13 0 13 30 0 50 -8 13 -10 13 -10 -2z"/>
<path d="M802 4363 c-11 -20 0 -43 20 -43 11 0 10 31 -1 49 -7 11 -11 10 -19
-6z"/>
<path d="M3547 4363 c-13 -12 -7 -33 8 -33 8 0 15 9 15 20 0 20 -11 26 -23 13z"/>
<path d="M661 4353 c0 -7 -11 -21 -22 -32 -12 -11 -19 -26 -16 -35 4 -9 -1
-20 -11 -25 -28 -16 -5 -24 27 -10 34 15 39 29 30 79 -3 19 -7 30 -8 23z"/>
<path d="M680 4345 c0 -9 6 -12 15 -9 8 4 15 7 15 9 0 2 -7 5 -15 9 -9 3 -15
0 -15 -9z"/>
<path d="M880 4330 c-22 -30 -18 -45 9 -42 33 3 35 6 19 36 -13 26 -14 26 -28
6z"/>
<path d="M1042 4325 c-18 -19 -20 -24 -7 -29 11 -4 19 3 26 21 13 34 8 36 -19
8z"/>
<path d="M3322 4333 c2 -12 14 -19 33 -21 l30 -3 -25 20 c-31 25 -42 26 -38 4z"/>
<path d="M4170 4341 c0 -18 18 -21 30 -6 10 13 9 15 -9 15 -11 0 -21 -4 -21
-9z"/>
<path d="M170 4325 c0 -8 7 -15 15 -15 8 0 15 7 15 15 0 8 -7 15 -15 15 -8 0
-15 -7 -15 -15z"/>
<path d="M1837 4329 c7 -7 15 -10 18 -7 3 3 -2 9 -12 12 -14 6 -15 5 -6 -5z"/>
<path d="M4006 4310 c-15 -5 -16 -9 -7 -14 7 -5 18 -3 24 3 14 14 6 20 -17 11z"/>
<path d="M531 4301 c-19 -12 -6 -43 16 -39 10 2 19 11 21 21 3 12 -1 15 -14
10 -12 -4 -15 -3 -10 5 9 14 6 15 -13 3z"/>
<path d="M775 4291 c-13 -16 -15 -25 -8 -32 8 -8 14 -5 23 10 17 32 7 46 -15
22z"/>
<path d="M3446 4298 c3 -4 14 -8 25 -8 11 0 18 4 14 9 -3 6 -14 9 -25 8 -10
-1 -16 -5 -14 -9z"/>
<path d="M4100 4280 c0 -15 7 -20 26 -20 27 0 25 14 -7 30 -16 9 -19 7 -19
-10z"/>
<path d="M2255 4270 c10 -11 20 -20 23 -20 3 0 -3 9 -13 20 -10 11 -20 20 -23
20 -3 0 3 -9 13 -20z"/>
<path d="M3285 4270 c3 -5 11 -10 16 -10 6 0 7 5 4 10 -3 6 -11 10 -16 10 -6
0 -7 -4 -4 -10z"/>
<path d="M3333 4258 c0 -7 -4 -21 -8 -30 -5 -13 -2 -18 10 -18 19 0 44 27 45
48 0 6 -10 12 -23 12 -13 0 -24 -6 -24 -12z"/>
<path d="M966 4253 c-9 -10 -12 -10 -86 -12 -52 -1 -60 -4 -60 -20 0 -24 54
-39 75 -21 8 7 20 10 27 7 20 -7 33 -6 31 4 -2 5 2 9 7 9 6 0 10 6 10 14 0 8
6 17 13 19 6 3 7 6 1 6 -6 1 -14 -2 -18 -6z"/>
<path d="M3754 4249 c-3 -6 -2 -15 4 -21 13 -13 32 -2 32 18 0 16 -26 19 -36
3z"/>
<path d="M3230 4234 c0 -8 9 -14 20 -14 11 0 20 4 20 9 0 5 -9 11 -20 14 -13
3 -20 0 -20 -9z"/>
<path d="M3018 4225 c13 -9 26 -14 29 -11 8 8 3 12 -27 21 l-25 7 23 -17z"/>
<path d="M483 4222 c-31 -5 -50 -30 -29 -38 24 -9 66 4 66 21 0 18 -9 22 -37
17z"/>
<path d="M3562 4210 c-10 -17 -10 -21 3 -26 17 -7 49 21 40 36 -10 16 -29 12
-43 -10z"/>
<path d="M2270 4210 c0 -5 5 -10 10 -10 6 0 10 5 10 10 0 6 -4 10 -10 10 -5 0
-10 -4 -10 -10z"/>
<path d="M3671 4200 c-30 -26 -22 -34 24 -26 27 5 35 12 33 24 -5 24 -29 25
-57 2z"/>
<path d="M4390 4210 c-12 -8 -12 -10 3 -16 22 -8 50 3 42 16 -8 12 -25 13 -45
0z"/>
<path d="M400 4195 c0 -16 16 -20 24 -6 3 5 -1 11 -9 15 -9 3 -15 0 -15 -9z"/>
<path d="M674 4199 c-3 -5 6 -9 20 -9 14 0 26 -5 26 -11 0 -6 14 -9 33 -7 20
2 32 8 32 18 0 11 -13 15 -53 16 -29 1 -55 -2 -58 -7z"/>
<path d="M3150 4196 c0 -10 9 -16 21 -16 24 0 21 23 -4 28 -10 2 -17 -3 -17
-12z"/>
<path d="M550 4174 l-25 -26 30 2 c55 4 67 1 62 -14 -4 -9 2 -17 13 -21 27 -9
40 2 40 30 0 20 -5 23 -27 22 -19 -1 -28 3 -28 13 0 26 -39 23 -65 -6z"/>
<path d="M3463 4193 c-32 -6 -29 -23 5 -23 37 0 60 15 37 24 -9 3 -17 5 -18 5
-1 -1 -12 -4 -24 -6z"/>
<path d="M4185 4177 c-13 -11 -15 -16 -6 -22 8 -4 21 1 34 14 17 16 18 21 6
21 -8 0 -23 -6 -34 -13z"/>
<path d="M708 4136 c-6 -15 -8 -29 -5 -32 9 -9 37 15 37 32 0 25 -20 25 -32 0z"/>
<path d="M2271 4144 c0 -11 3 -14 6 -6 3 7 2 16 -1 19 -3 4 -6 -2 -5 -13z"/>
<path d="M3045 4150 c-6 -11 44 -34 53 -25 3 3 0 5 -6 5 -7 0 -12 7 -12 15 0
17 -25 20 -35 5z"/>
<path d="M3638 4132 c-10 -2 -18 -8 -18 -13 0 -15 57 -15 73 1 10 9 -30 18
-55 12z"/>
<path d="M3723 4133 c-18 -6 -16 -23 1 -23 17 0 30 16 19 23 -5 2 -14 2 -20 0z"/>
<path d="M4100 4130 c0 -13 18 -22 24 -11 3 5 -1 11 -9 15 -8 3 -15 1 -15 -4z"/>
<path d="M3135 4120 c3 -5 13 -10 21 -10 8 0 14 5 14 10 0 6 -9 10 -21 10 -11
0 -17 -4 -14 -10z"/>
<path d="M3398 4117 c-40 -16 -34 -29 10 -22 56 10 72 15 72 26 0 12 -48 10
-82 -4z"/>
<path d="M250 4110 c0 -5 5 -10 10 -10 6 0 10 5 10 10 0 6 -4 10 -10 10 -5 0
-10 -4 -10 -10z"/>
<path d="M871 4106 c-9 -10 -9 -16 -1 -21 17 -10 37 12 24 25 -8 8 -15 6 -23
-4z"/>
<path d="M2260 4110 c0 -5 5 -10 11 -10 5 0 7 5 4 10 -3 6 -8 10 -11 10 -2 0
-4 -4 -4 -10z"/>
<path d="M980 4099 c0 -5 5 -7 10 -4 6 3 10 8 10 11 0 2 -4 4 -10 4 -5 0 -10
-5 -10 -11z"/>
<path d="M2345 4099 c-4 -6 -5 -12 -2 -15 2 -3 7 2 10 11 7 17 1 20 -8 4z"/>
<path d="M3825 4100 c3 -5 8 -10 11 -10 2 0 4 5 4 10 0 6 -5 10 -11 10 -5 0
-7 -4 -4 -10z"/>
<path d="M206 4085 c4 -8 8 -15 10 -15 2 0 4 7 4 15 0 8 -4 15 -10 15 -5 0 -7
-7 -4 -15z"/>
<path d="M541 4086 c-10 -12 -8 -17 10 -26 17 -10 24 -9 36 3 9 8 12 20 9 26
-10 16 -41 14 -55 -3z"/>
<path d="M773 4093 c-23 -9 -14 -33 12 -33 18 0 25 5 25 20 0 19 -12 24 -37
13z"/>
<path d="M3162 4078 c2 -15 11 -24 26 -26 27 -4 28 2 2 28 -26 26 -32 25 -28
-2z"/>
<path d="M3540 4085 c-14 -16 -10 -18 14 -9 9 3 16 10 16 15 0 14 -16 11 -30
-6z"/>
<path d="M4200 4089 c0 -5 5 -7 10 -4 6 3 10 8 10 11 0 2 -4 4 -10 4 -5 0 -10
-5 -10 -11z"/>
<path d="M120 4064 c-6 -14 -8 -30 -4 -35 8 -14 31 -11 38 6 3 8 13 15 23 15
15 1 15 4 -6 20 -31 26 -40 25 -51 -6z"/>
<path d="M2260 4071 c0 -11 5 -23 10 -26 6 -3 10 3 10 14 0 11 -4 23 -10 26
-5 3 -10 -3 -10 -14z"/>
<path d="M2297 4084 c-4 -4 4 -21 16 -38 13 -17 26 -38 29 -45 3 -12 6 -12 11
2 3 9 2 17 -3 17 -5 0 -18 16 -28 35 -10 20 -21 33 -25 29z"/>
<path d="M3956 4082 c-2 -4 -1 -14 4 -22 7 -11 12 -12 21 -3 6 6 8 16 5 22 -8
13 -23 14 -30 3z"/>
<path d="M420 4071 c0 -16 31 -41 51 -41 24 0 25 18 2 36 -21 15 -53 18 -53 5z"/>
<path d="M2380 4076 c0 -9 30 -14 35 -6 4 6 -3 10 -14 10 -12 0 -21 -2 -21 -4z"/>
<path d="M4231 4064 c0 -11 3 -14 6 -6 3 7 2 16 -1 19 -3 4 -6 -2 -5 -13z"/>
<path d="M3695 4060 c-8 -13 13 -40 31 -40 17 0 18 22 2 38 -15 15 -25 15 -33
2z"/>
<path d="M4880 4045 c-13 -14 -19 -25 -13 -25 6 0 18 11 27 25 9 14 15 25 13
25 -2 0 -14 -11 -27 -25z"/>
<path d="M643 4049 c-13 -4 -23 -13 -23 -19 0 -11 17 -13 64 -10 16 1 32 -3
36 -10 4 -6 20 -10 36 -8 l29 3 -31 17 c-17 10 -34 15 -37 12 -3 -3 -16 1 -29
9 -16 10 -30 12 -45 6z"/>
<path d="M3364 4045 c-4 -8 -10 -12 -15 -9 -5 3 -9 0 -9 -5 0 -6 9 -11 20 -11
13 0 20 7 20 20 0 24 -8 26 -16 5z"/>
<path d="M25 4040 c3 -5 8 -10 11 -10 2 0 4 5 4 10 0 6 -5 10 -11 10 -5 0 -7
-4 -4 -10z"/>
<path d="M270 4035 c-10 -13 -9 -15 9 -15 11 0 21 4 21 9 0 18 -18 21 -30 6z"/>
<path d="M321 4014 c0 -11 3 -14 6 -6 3 7 2 16 -1 19 -3 4 -6 -2 -5 -13z"/>
<path d="M3108 4023 c6 -2 18 -2 25 0 6 3 1 5 -13 5 -14 0 -19 -2 -12 -5z"/>
<path d="M380 4001 c0 -12 3 -21 8 -21 4 0 17 -3 30 -6 27 -8 32 20 5 30 -10
3 -24 9 -30 12 -8 4 -13 -2 -13 -15z"/>
<path d="M850 4010 c0 -5 5 -10 10 -10 6 0 10 5 10 10 0 6 -4 10 -10 10 -5 0
-10 -4 -10 -10z"/>
<path d="M3790 4005 c0 -8 4 -15 9 -15 5 0 11 7 15 15 3 9 0 15 -9 15 -8 0
-15 -7 -15 -15z"/>
<path d="M4130 4010 c0 -5 5 -10 11 -10 5 0 7 5 4 10 -3 6 -8 10 -11 10 -2 0
-4 -4 -4 -10z"/>
<path d="M3233 4003 c-10 -3 -10 -9 0 -24 17 -27 35 -24 29 6 -4 25 -7 27 -29
18z"/>
<path d="M3879 4008 c-8 -15 -4 -48 5 -45 14 5 21 47 7 47 -6 0 -12 -1 -12 -2z"/>
<path d="M527 3993 c-21 -3 -27 -9 -23 -20 3 -8 6 -20 6 -26 0 -7 9 -1 20 13
15 20 21 23 31 13 7 -7 22 -13 34 -13 19 1 19 1 -4 20 -13 11 -26 19 -30 19
-3 -1 -19 -4 -34 -6z"/>
<path d="M2302 3953 c-6 -26 -8 -50 -6 -53 11 -11 41 43 36 66 -8 42 -20 36
-30 -13z"/>
<path d="M3955 3989 c-10 -14 -1 -21 19 -13 9 3 13 10 10 15 -7 12 -21 11 -29
-2z"/>
<path d="M4250 3989 c0 -5 5 -7 10 -4 6 3 10 8 10 11 0 2 -4 4 -10 4 -5 0 -10
-5 -10 -11z"/>
<path d="M4288 3983 c7 -3 16 -2 19 1 4 3 -2 6 -13 5 -11 0 -14 -3 -6 -6z"/>
<path d="M3330 3970 c0 -5 5 -10 10 -10 6 0 10 5 10 10 0 6 -4 10 -10 10 -5 0
-10 -4 -10 -10z"/>
<path d="M4040 3970 c0 -5 5 -10 10 -10 6 0 10 5 10 10 0 6 -4 10 -10 10 -5 0
-10 -4 -10 -10z"/>
<path d="M167 3943 c-8 -44 35 -55 48 -12 8 24 -1 39 -24 39 -12 0 -20 -9 -24
-27z"/>
<path d="M648 3963 c7 -3 16 -2 19 1 4 3 -2 6 -13 5 -11 0 -14 -3 -6 -6z"/>
<path d="M4750 3928 c-130 -117 -621 -468 -656 -468 -19 0 -106 -26 -157 -47
-20 -9 -51 -16 -68 -15 -40 1 -29 -11 14 -15 20 -1 43 5 60 18 16 12 31 18 34
15 3 -3 13 -1 23 4 36 19 28 -4 -11 -33 -119 -88 65 16 272 153 159 105 499
367 538 414 25 30 -4 15 -49 -26z m-680 -492 c0 -2 -7 -7 -16 -10 -8 -3 -12
-2 -9 4 6 10 25 14 25 6z"/>
<path d="M45 3939 c5 -27 10 -32 36 -36 11 -2 22 4 25 12 9 21 -14 45 -42 45
-18 0 -22 -5 -19 -21z"/>
<path d="M4912 3930 c-6 -11 -12 -22 -12 -25 0 -11 20 6 30 26 14 25 -2 25
-18 -1z"/>
<path d="M279 3926 c16 -19 55 -22 49 -3 -3 6 -17 14 -33 15 -25 3 -27 2 -16
-12z"/>
<path d="M3770 3924 c0 -9 5 -14 12 -12 18 6 21 28 4 28 -9 0 -16 -7 -16 -16z"/>
<path d="M4355 3924 c9 -9 19 -13 23 -10 3 4 0 11 -8 16 -24 15 -33 11 -15 -6z"/>
<path d="M370 3910 c-9 -6 -7 -11 8 -19 29 -15 39 -14 44 7 4 12 -1 17 -17 18
-13 1 -28 -2 -35 -6z"/>
<path d="M3835 3889 c-4 -6 -5 -13 -2 -16 7 -7 27 6 27 18 0 12 -17 12 -25 -2z"/>
<path d="M4840 3842 c-62 -75 -70 -94 -24 -52 39 35 45 43 46 57 1 5 8 13 16
19 8 6 13 15 11 21 -2 6 -24 -14 -49 -45z"/>
<path d="M30 3870 c-8 -16 -6 -21 11 -31 27 -14 43 5 28 33 -13 23 -26 23 -39
-2z"/>
<path d="M2310 3887 c0 -2 16 -21 36 -42 19 -22 54 -68 77 -103 43 -65 50 -68
98 -48 23 10 59 -30 59 -65 0 -26 -13 -35 -140 -97 -4 -1 -37 34 -75 78 -39
44 -73 80 -77 80 -4 0 -16 -13 -28 -30 -22 -31 -13 -41 13 -15 13 13 22 6 73
-56 60 -71 94 -91 123 -71 36 26 71 42 71 33 0 -6 -11 -16 -24 -23 -13 -7 -49
-32 -80 -56 -56 -43 -69 -61 -102 -154 -9 -27 -20 -48 -25 -48 -11 0 -40 -56
-33 -63 7 -7 -52 -135 -72 -154 -17 -18 -18 -93 -2 -148 11 -38 14 -152 4
-163 -3 -2 1 -16 8 -31 13 -27 20 -87 21 -182 0 -49 -4 -62 -32 -97 -38 -47
-38 -49 -18 -72 12 -13 13 -23 5 -44 -11 -30 1 -69 15 -46 4 7 2 16 -6 21 -10
6 -11 9 -1 9 6 0 12 7 12 16 0 8 4 12 10 9 14 -9 -1 28 -17 40 -7 6 -10 19 -7
33 9 32 26 27 18 -5 -5 -22 -4 -25 6 -17 6 7 12 28 13 47 0 20 5 34 9 31 7 -5
12 8 10 27 0 3 3 22 8 42 4 21 4 37 -1 37 -5 0 -9 14 -9 30 0 17 5 30 10 30 6
0 10 5 10 11 0 6 -7 9 -15 5 -20 -7 -20 39 0 74 13 22 14 23 14 5 1 -11 -3
-27 -9 -35 -6 -9 -5 -17 2 -21 12 -8 20 -185 9 -204 -3 -5 -6 -16 -6 -25 -4
-40 -38 -176 -47 -181 -5 -3 6 -26 24 -50 19 -24 40 -59 47 -76 12 -30 37 -49
25 -20 -7 19 77 73 159 100 9 4 17 11 17 17 0 13 -34 5 -67 -16 -28 -18 -47
-18 -40 0 10 25 -38 15 -50 -10 -9 -19 -8 -24 3 -24 8 0 13 3 12 8 -2 4 1 8 7
10 18 6 17 -18 -2 -25 -10 -4 -24 -13 -31 -20 -15 -14 -36 -18 -28 -4 3 4 -1
17 -9 27 -8 10 -15 30 -15 43 0 20 -2 21 -15 11 -17 -14 -18 -11 -4 50 12 57
17 80 22 102 2 10 6 20 9 24 4 3 7 115 6 248 0 182 -2 233 -10 209 -6 -18 -19
-35 -30 -39 -27 -8 -35 3 -15 23 14 14 14 19 2 43 -22 43 -29 124 -14 159 17
38 36 40 42 4 2 -18 5 -11 6 19 1 62 12 86 60 142 23 26 41 49 41 52 0 11 -40
-23 -51 -43 -16 -30 -32 -30 -24 0 10 31 44 66 85 87 54 28 113 87 106 106 -3
8 -6 22 -6 29 0 7 -8 16 -17 18 -10 3 -2 4 18 3 30 -3 39 2 52 23 17 29 17 30
17 66 0 14 5 25 10 25 6 0 8 -11 4 -25 -4 -15 -2 -25 5 -25 6 0 12 9 12 20 1
11 2 23 3 28 16 66 16 69 -10 115 -14 26 -29 46 -32 44 -4 -2 -20 -9 -36 -17
-26 -14 -29 -13 -47 10 -10 14 -23 30 -29 37 -15 18 -12 23 9 23 11 0 23 5 27
11 5 9 -3 10 -30 5 -28 -5 -36 -4 -36 7 0 8 -7 18 -17 21 -14 6 -14 8 3 21 18
13 17 14 -12 15 -19 0 -34 6 -38 15 -4 12 -26 22 -26 12z m213 -398 c-4 -13
-9 -17 -15 -11 -11 11 -3 32 12 32 4 0 6 -9 3 -21z m-89 -61 c-6 -10 -4 -10 7
0 19 17 32 15 25 -5 -4 -9 -2 -19 4 -23 7 -5 6 -11 -5 -20 -13 -11 -15 -9 -15
9 0 11 -5 21 -11 21 -7 0 -9 -11 -6 -27 5 -28 -16 -62 -28 -43 -3 6 1 13 10
16 24 9 -3 25 -30 18 -16 -4 -14 0 9 19 16 14 25 30 22 36 -4 6 0 11 9 11 10
0 14 -5 9 -12z m-46 -90 c-4 -29 -25 -35 -22 -6 3 29 2 28 15 28 6 0 9 -10 7
-22z m-108 -540 c0 -7 -11 -30 -24 -52 -22 -35 -25 -36 -31 -17 -4 13 1 33 12
51 17 30 43 41 43 18z"/>
<path d="M4420 3871 c0 -5 9 -7 20 -4 11 3 20 7 20 9 0 2 -9 4 -20 4 -11 0
-20 -4 -20 -9z"/>
<path d="M160 3831 c0 -5 9 -11 20 -14 24 -6 27 8 4 17 -21 8 -24 8 -24 -3z"/>
<path d="M510 3819 c0 -5 5 -7 10 -4 6 3 10 8 10 11 0 2 -4 4 -10 4 -5 0 -10
-5 -10 -11z"/>
<path d="M436 3805 c4 -8 8 -15 10 -15 2 0 4 7 4 15 0 8 -4 15 -10 15 -5 0 -7
-7 -4 -15z"/>
<path d="M4890 3790 c0 -5 5 -10 10 -10 6 0 10 5 10 10 0 6 -4 10 -10 10 -5 0
-10 -4 -10 -10z"/>
<path d="M85 3770 c-11 -18 15 -40 47 -40 29 0 30 1 16 23 -17 24 -52 34 -63
17z"/>
<path d="M4025 3700 c3 -5 15 -10 26 -10 11 0 17 5 14 10 -3 6 -15 10 -26 10
-11 0 -17 -4 -14 -10z"/>
<path d="M120 3690 c-12 -7 -10 -13 9 -34 19 -20 27 -23 41 -14 13 9 22 6 40
-12 l22 -22 28 28 c15 16 25 33 23 38 -3 4 -8 3 -12 -2 -8 -13 -84 -10 -103 5
-25 19 -34 22 -48 13z"/>
<path d="M2630 3660 c0 -5 4 -10 9 -10 6 0 13 5 16 10 3 6 -1 10 -9 10 -9 0
-16 -4 -16 -10z"/>
<path d="M450 3625 c-11 -13 -10 -14 4 -9 9 3 16 10 16 15 0 13 -6 11 -20 -6z"/>
<path d="M894 3606 c9 -58 66 -159 99 -174 36 -17 42 -11 17 16 -11 12 -20 26
-20 32 0 5 -3 10 -8 10 -4 0 -14 15 -21 33 -8 17 -28 52 -44 77 l-28 45 5 -39z"/>
<path d="M3040 3633 c0 -5 27 -9 60 -10 35 -1 58 3 55 8 -7 11 -115 12 -115 2z"/>
<path d="M522 3618 c2 -6 10 -14 16 -16 7 -2 10 2 6 12 -7 18 -28 22 -22 4z"/>
<path d="M296 3581 c-3 -4 1 -16 8 -27 11 -15 17 -16 28 -6 19 15 28 6 28 -30
0 -23 4 -29 18 -26 10 2 16 11 14 23 -2 11 -3 28 -3 37 0 9 -7 22 -15 29 -13
10 -17 10 -25 -2 -6 -10 -9 -10 -9 -1 0 14 -36 17 -44 3z"/>
<path d="M461 3564 c-33 -41 -28 -54 12 -33 25 14 37 28 37 47 0 21 -28 13
-49 -14z"/>
<path d="M789 3543 c-13 -27 -23 -52 -23 -58 -1 -5 -9 -13 -18 -17 -19 -8 -25
-28 -8 -28 18 0 55 43 78 91 26 54 27 59 7 59 -8 0 -24 -21 -36 -47z"/>
<path d="M2740 3580 c0 -5 5 -10 10 -10 6 0 10 5 10 10 0 6 -4 10 -10 10 -5 0
-10 -4 -10 -10z"/>
<path d="M557 3556 c-5 -14 10 -36 25 -36 4 0 8 11 8 25 0 27 -24 35 -33 11z"/>
<path d="M2595 3561 c-6 -11 9 -23 19 -14 9 9 7 23 -3 23 -6 0 -12 -4 -16 -9z"/>
<path d="M2645 3540 c-8 -13 15 -13 35 0 12 8 11 10 -7 10 -12 0 -25 -4 -28
-10z"/>
<path d="M2721 3536 c-8 -10 -9 -16 -1 -21 5 -3 13 1 16 10 9 22 -1 29 -15 11z"/>
<path d="M2595 3520 c-3 -5 -1 -10 4 -10 6 0 11 5 11 10 0 6 -2 10 -4 10 -3 0
-8 -4 -11 -10z"/>
<path d="M575 3489 c-7 -18 9 -74 21 -74 16 0 16 61 0 74 -13 11 -17 11 -21 0z"/>
<path d="M2700 3490 c-8 -5 -25 -10 -37 -10 -13 0 -23 -5 -23 -11 0 -7 9 -9
23 -5 12 3 27 6 33 6 7 0 14 7 18 15 6 18 6 18 -14 5z"/>
<path d="M3128 3493 c7 -3 16 -2 19 1 4 3 -2 6 -13 5 -11 0 -14 -3 -6 -6z"/>
<path d="M2558 3478 c9 -9 15 -9 24 0 9 9 7 12 -12 12 -19 0 -21 -3 -12 -12z"/>
<path d="M4693 3462 c0 -12 5 -22 9 -22 11 0 10 12 -2 30 -7 12 -9 10 -7 -8z"/>
<path d="M4850 3450 c-19 -17 -26 -26 -15 -21 30 16 71 51 60 51 -6 0 -26 -14
-45 -30z"/>
<path d="M2575 3448 c-26 -20 -50 -24 -39 -6 4 7 3 8 -4 4 -9 -5 -9 -13 -2
-27 13 -24 5 -39 -21 -39 -10 0 -19 -5 -19 -11 0 -6 7 -8 16 -5 9 3 25 6 36 6
12 0 18 3 15 7 -8 7 39 33 60 33 8 0 21 7 29 15 20 20 15 19 -41 -5 -54 -23
-55 -23 -55 -10 0 6 18 18 40 27 22 10 40 20 40 24 0 12 -33 5 -55 -13z"/>
<path d="M2689 3434 c-12 -14 -11 -16 5 -13 11 2 21 10 24 17 5 17 -13 15 -29
-4z"/>
<path d="M2490 3430 c0 -5 5 -10 10 -10 6 0 10 5 10 10 0 6 -4 10 -10 10 -5 0
-10 -4 -10 -10z"/>
<path d="M3008 3423 c6 -2 18 -2 25 0 6 3 1 5 -13 5 -14 0 -19 -2 -12 -5z"/>
<path d="M2697 3386 c-4 -9 0 -13 11 -12 9 2 18 8 20 14 5 17 -25 15 -31 -2z"/>
<path d="M2760 3393 c0 -9 81 -55 87 -50 4 4 -73 57 -82 57 -3 0 -5 -3 -5 -7z"/>
<path d="M543 3378 c-24 -11 -29 -33 -14 -57 11 -17 33 -10 37 11 1 8 5 25 9
37 7 23 1 25 -32 9z"/>
<path d="M2875 3380 c3 -5 21 -10 38 -9 31 1 31 1 7 9 -36 11 -52 11 -45 0z"/>
<path d="M1011 3358 c-9 -25 -3 -68 10 -68 5 0 9 20 9 45 0 49 -6 57 -19 23z"/>
<path d="M2622 3368 c-15 -15 -15 -28 0 -28 6 0 8 3 5 7 -4 3 -2 12 4 20 14
16 7 17 -9 1z"/>
<path d="M3760 3310 c-84 -76 -91 -109 -8 -36 29 25 58 46 65 46 7 0 10 6 7
14 -6 17 12 31 21 16 7 -12 25 -4 25 11 0 6 -5 7 -11 3 -6 -3 -14 -2 -18 4 -4
6 -37 -18 -81 -58z"/>
<path d="M710 3350 c0 -11 4 -20 9 -20 11 0 22 26 14 34 -12 12 -23 5 -23 -14z"/>
<path d="M1156 3330 c-5 -19 -10 -37 -11 -40 -1 -3 -5 -17 -9 -32 -5 -16 -12
-28 -17 -28 -5 0 -9 -9 -9 -20 0 -11 -4 -20 -10 -20 -5 0 -10 -14 -10 -31 0
-18 4 -28 10 -24 6 4 8 10 5 14 -2 5 4 16 15 26 14 13 17 22 10 30 -8 9 -5 14
8 17 23 6 42 68 33 110 l-7 33 -8 -35z"/>
<path d="M2565 3350 c-4 -6 -11 -8 -16 -4 -5 3 -16 0 -24 -6 -11 -9 -15 -9
-15 -1 0 6 -7 11 -15 11 -8 0 -15 -7 -15 -16 0 -14 8 -16 46 -11 46 5 99 37
62 37 -9 0 -20 -5 -23 -10z"/>
<path d="M2998 3353 c7 -3 16 -2 19 1 4 3 -2 6 -13 5 -11 0 -14 -3 -6 -6z"/>
<path d="M2726 3334 c-14 -37 1 -47 21 -15 10 15 9 20 -2 24 -7 3 -16 -1 -19
-9z"/>
<path d="M3038 3343 c7 -3 16 -2 19 1 4 3 -2 6 -13 5 -11 0 -14 -3 -6 -6z"/>
<path d="M1230 3328 c0 -26 21 -88 34 -100 7 -7 13 -17 13 -23 1 -5 6 -11 11
-13 12 -4 0 57 -23 111 -15 36 -35 50 -35 25z"/>
<path d="M2665 3331 c-6 -5 -27 -14 -49 -21 -49 -16 -119 -83 -91 -88 21 -5
39 19 22 30 -7 4 4 5 23 2 26 -3 42 1 60 15 14 12 20 21 13 21 -6 0 -15 -4
-18 -10 -3 -5 -16 -10 -28 -10 -15 0 -5 9 33 29 30 16 59 27 64 24 5 -4 6 -1
2 5 -9 14 -19 15 -31 3z"/>
<path d="M2874 3326 c11 -9 24 -16 30 -16 12 0 7 5 -24 19 -24 11 -24 11 -6
-3z"/>
<path d="M2918 3328 c14 -18 80 -44 88 -35 3 3 -12 11 -33 17 -21 7 -45 18
-53 24 -13 9 -13 9 -2 -6z"/>
<path d="M3078 3333 c7 -3 16 -2 19 1 4 3 -2 6 -13 5 -11 0 -14 -3 -6 -6z"/>
<path d="M2426 3283 c-20 -21 -36 -42 -36 -47 0 -5 -10 -23 -23 -40 -12 -17
-28 -43 -34 -57 -14 -33 -28 -127 -18 -116 5 4 9 15 10 25 4 35 17 72 27 72 5
0 6 -10 3 -21 -5 -15 -4 -19 5 -14 7 4 9 18 5 35 -5 21 -1 34 15 50 11 11 18
25 15 31 -4 5 -3 9 2 8 24 -4 30 4 27 32 -2 16 0 27 5 24 6 -3 17 5 25 17 9
12 19 19 22 15 9 -8 -23 -57 -37 -57 -6 0 -8 -7 -5 -17 4 -10 -3 -26 -20 -44
-14 -15 -23 -32 -19 -39 4 -6 1 -17 -5 -25 -7 -8 -10 -20 -8 -27 3 -8 11 0 21
17 8 17 34 48 56 70 22 22 38 41 35 44 -2 3 -25 -15 -49 -39 -54 -53 -61 -42
-7 13 25 26 31 36 17 31 -14 -5 -11 2 12 22 26 24 30 33 23 52 -13 30 -23 28
-64 -15z"/>
<path d="M711 3284 c0 -11 3 -14 6 -6 3 7 2 16 -1 19 -3 4 -6 -2 -5 -13z"/>
<path d="M2508 3293 c7 -3 16 -2 19 1 4 3 -2 6 -13 5 -11 0 -14 -3 -6 -6z"/>
<path d="M545 3273 c-4 -12 1 -24 15 -35 41 -33 61 -15 29 26 -24 30 -34 33
-44 9z"/>
<path d="M2655 3270 c-4 -6 -45 -29 -91 -52 -47 -22 -96 -54 -110 -71 -32 -38
-76 -125 -71 -140 2 -7 13 6 24 28 21 39 147 154 232 210 22 15 41 29 41 31 0
8 -19 3 -25 -6z"/>
<path d="M2726 3265 c-3 -9 0 -15 9 -15 8 0 15 7 15 15 0 8 -4 15 -9 15 -5 0
-11 -7 -15 -15z"/>
<path d="M2495 3250 c-10 -11 -13 -20 -7 -20 6 0 16 9 22 20 6 11 9 20 7 20
-2 0 -12 -9 -22 -20z"/>
<path d="M1010 3246 c0 -8 4 -17 9 -21 6 -3 9 4 8 15 -1 23 -17 28 -17 6z"/>
<path d="M2914 3244 c3 -8 1 -25 -5 -36 -8 -16 -8 -19 2 -16 17 6 24 68 8 68
-6 0 -8 -7 -5 -16z"/>
<path d="M2756 3241 c-12 -5 -15 -10 -9 -14 6 -4 16 0 23 8 14 17 13 17 -14 6z"/>
<path d="M3030 3240 c0 -8 5 -22 10 -30 9 -13 10 -13 10 0 0 8 -5 22 -10 30
-9 13 -10 13 -10 0z"/>
<path d="M4606 3196 c-9 -21 -15 -40 -13 -42 8 -9 38 48 34 64 -3 12 -9 5 -21
-22z"/>
<path d="M640 3197 c0 -7 4 -18 9 -26 8 -12 14 -13 35 -3 37 17 32 37 -9 39
-21 1 -35 -3 -35 -10z"/>
<path d="M1010 3192 c0 -12 4 -22 9 -22 10 0 9 26 -2 36 -4 4 -7 -2 -7 -14z"/>
<path d="M2740 3195 c0 -8 4 -15 9 -15 5 0 11 7 15 15 3 9 0 15 -9 15 -8 0
-15 -7 -15 -15z"/>
<path d="M3625 3190 c-3 -5 -1 -10 4 -10 6 0 11 5 11 10 0 6 -2 10 -4 10 -3 0
-8 -4 -11 -10z"/>
<path d="M3633 3163 c-18 -21 -33 -44 -33 -52 0 -8 14 4 31 27 17 23 35 42 40
42 5 0 9 5 9 10 0 18 -15 10 -47 -27z"/>
<path d="M1311 3174 c0 -11 3 -14 6 -6 3 7 2 16 -1 19 -3 4 -6 -2 -5 -13z"/>
<path d="M1285 3170 c3 -5 8 -10 11 -10 2 0 4 5 4 10 0 6 -5 10 -11 10 -5 0
-7 -4 -4 -10z"/>
<path d="M2770 3167 c1 -15 24 -47 36 -47 4 0 3 5 -3 11 -6 6 -9 17 -7 24 3 7
-2 15 -10 18 -9 4 -16 1 -16 -6z"/>
<path d="M2917 3174 c-4 -4 -7 -14 -7 -23 0 -11 3 -12 11 -4 6 6 10 16 7 23
-2 6 -7 8 -11 4z"/>
<path d="M3067 3161 c7 -28 42 -63 55 -55 7 4 3 11 -10 18 -21 11 -22 13 -22
41 0 8 -6 15 -14 15 -9 0 -12 -7 -9 -19z"/>
<path d="M1555 3140 c-16 -7 -17 -9 -3 -9 9 -1 20 4 23 9 7 11 7 11 -20 0z"/>
<path d="M1024 3133 c4 -7 2 -13 -3 -13 -18 0 -13 -26 9 -45 16 -15 21 -15 33
-4 22 23 27 47 11 53 -8 3 -14 0 -14 -6 0 -6 -10 -3 -22 8 -12 10 -18 13 -14
7z"/>
<path d="M1301 3103 c-1 -24 4 -33 20 -38 30 -10 37 4 13 24 -11 9 -23 23 -27
31 -3 8 -6 1 -6 -17z"/>
<path d="M668 3113 c-23 -6 -23 -20 1 -32 21 -12 31 -5 31 21 0 18 -2 19 -32
11z"/>
<path d="M2926 3107 c3 -9 1 -25 -5 -36 -6 -11 -7 -22 -2 -25 5 -3 11 8 15 24
8 44 8 44 -3 48 -6 2 -8 -3 -5 -11z"/>
<path d="M2816 3086 c3 -9 11 -16 16 -16 13 0 5 23 -10 28 -7 2 -10 -2 -6 -12z"/>
<path d="M2960 3090 c0 -5 5 -10 10 -10 6 0 10 5 10 10 0 6 -4 10 -10 10 -5 0
-10 -4 -10 -10z"/>
<path d="M3560 3092 c0 -5 7 -15 15 -22 8 -7 15 -8 15 -2 0 5 -7 15 -15 22 -8
7 -15 8 -15 2z"/>
<path d="M3130 3080 c0 -6 7 -13 16 -17 8 -3 13 -12 10 -19 -3 -8 1 -14 9 -14
20 0 19 15 -2 40 -19 22 -33 26 -33 10z"/>
<path d="M465 3070 c3 -5 8 -10 11 -10 2 0 4 5 4 10 0 6 -5 10 -11 10 -5 0 -7
-4 -4 -10z"/>
<path d="M2340 3060 c0 -5 5 -10 10 -10 6 0 10 5 10 10 0 6 -4 10 -10 10 -5 0
-10 -4 -10 -10z"/>
<path d="M2951 3054 c0 -11 3 -14 6 -6 3 7 2 16 -1 19 -3 4 -6 -2 -5 -13z"/>
<path d="M507 3020 c7 -25 23 -37 23 -17 0 8 -6 20 -14 26 -12 10 -13 8 -9 -9z"/>
<path d="M670 3030 c-12 -7 -12 -13 -4 -27 15 -24 28 -19 32 12 4 27 -4 31
-28 15z"/>
<path d="M2534 3018 l-19 -21 28 18 c28 18 33 25 19 25 -5 0 -17 -10 -28 -22z"/>
<path d="M3180 3010 c0 -5 4 -10 9 -10 6 0 13 5 16 10 3 6 -1 10 -9 10 -9 0
-16 -4 -16 -10z"/>
<path d="M2311 2978 c2 -28 2 -29 6 -8 3 14 10 28 17 32 7 5 5 8 -6 8 -14 0
-18 -8 -17 -32z"/>
<path d="M3230 2992 c0 -12 19 -26 26 -19 2 2 -2 10 -11 17 -9 8 -15 8 -15 2z"/>
<path d="M2270 2970 c0 -11 4 -20 9 -20 5 0 7 9 4 20 -3 11 -7 20 -9 20 -2 0
-4 -9 -4 -20z"/>
<path d="M532 2960 c0 -14 2 -19 5 -12 2 6 2 18 0 25 -3 6 -5 1 -5 -13z"/>
<path d="M2367 2973 c-4 -3 -7 -13 -7 -22 1 -13 3 -13 11 2 11 19 8 33 -4 20z"/>
<path d="M3195 2970 c3 -5 10 -10 16 -10 5 0 9 5 9 10 0 6 -7 10 -16 10 -8 0
-12 -4 -9 -10z"/>
<path d="M4565 2950 c-17 -7 -15 -9 12 -9 17 -1 35 4 38 9 7 12 -22 12 -50 0z"/>
<path d="M3470 2936 c0 -13 56 -143 75 -176 12 -19 27 -50 34 -67 8 -18 17
-33 22 -33 11 0 12 27 2 32 -10 4 -56 100 -83 171 -17 46 -50 94 -50 73z"/>
<path d="M4498 2924 c-16 -8 -28 -17 -28 -19 0 -6 52 16 65 27 15 13 -7 9 -37
-8z"/>
<path d="M684 2914 c3 -9 6 -18 6 -20 0 -2 5 -4 10 -4 6 0 10 9 10 20 0 12 -7
20 -16 20 -11 0 -14 -5 -10 -16z"/>
<path d="M3236 2922 c-3 -6 -1 -14 5 -17 15 -10 25 3 12 16 -7 7 -13 7 -17 1z"/>
<path d="M3555 2910 c3 -5 11 -10 16 -10 6 0 7 5 4 10 -3 6 -11 10 -16 10 -6
0 -7 -4 -4 -10z"/>
<path d="M2385 2892 c6 -5 26 -12 45 -16 21 -4 31 -3 25 3 -6 5 -26 12 -45 16
-23 5 -32 4 -25 -3z"/>
<path d="M3122 2858 c-5 -7 -23 -40 -40 -73 -16 -33 -41 -71 -55 -84 -20 -18
-25 -30 -20 -52 4 -22 2 -29 -10 -29 -9 0 -23 -14 -31 -32 -20 -39 -20 -38 4
-38 21 0 28 -19 8 -21 -7 -1 -20 -2 -28 -3 -30 -2 -34 -49 -9 -101 13 -28 30
-50 38 -50 7 0 26 -22 40 -50 15 -27 32 -59 38 -70 6 -11 19 -41 28 -68 9 -26
23 -54 31 -62 8 -8 13 -18 12 -22 -3 -13 23 -87 38 -103 7 -8 15 -27 17 -41 7
-39 76 -263 93 -305 11 -27 18 -34 27 -25 18 18 56 13 69 -9 7 -11 21 -20 31
-20 10 0 31 -9 46 -21 22 -16 36 -19 60 -14 37 8 42 14 34 43 -7 29 -25 28
-21 0 4 -32 -36 -36 -73 -9 -15 12 -34 21 -42 21 -8 0 -22 9 -32 20 -11 12
-31 20 -51 20 -33 0 -34 1 -58 83 -14 45 -35 118 -47 162 -12 44 -25 85 -29
90 -5 6 -17 37 -29 70 -11 33 -30 80 -42 104 -12 25 -22 50 -23 56 -4 25 -90
165 -105 170 -19 6 -41 50 -41 82 0 16 8 27 26 33 23 9 25 14 20 45 -6 28 -3
36 14 45 11 6 20 21 20 33 0 12 15 45 33 72 19 28 40 65 48 83 8 17 17 32 20
32 3 0 11 -19 17 -42 19 -74 46 -141 85 -206 20 -34 40 -75 43 -90 10 -41 34
-83 44 -77 14 9 -73 212 -97 228 -7 4 -13 17 -13 28 0 11 -7 33 -15 48 -8 16
-22 58 -31 95 -17 67 -24 76 -42 54z"/>
<path d="M2540 2841 c8 -5 35 -12 60 -15 29 -4 38 -3 25 3 -30 12 -103 23 -85
12z"/>
<path d="M2451 2822 c-7 -13 -10 -28 -7 -35 2 -7 5 -5 5 5 1 9 6 18 13 20 6 2
9 11 6 18 -3 11 -8 9 -17 -8z"/>
<path d="M4345 2803 c-35 -38 -53 -73 -60 -119 -6 -40 2 -55 40 -84 16 -13 16
-10 -4 18 -29 42 -24 88 17 146 51 73 54 89 7 39z"/>
<path d="M2520 2789 c-17 -30 -6 -34 14 -4 9 14 12 25 7 25 -6 0 -15 -9 -21
-21z"/>
<path d="M2460 2781 c0 -5 9 -11 20 -14 13 -3 20 0 20 9 0 8 -9 14 -20 14 -11
0 -20 -4 -20 -9z"/>
<path d="M990 2770 c0 -5 7 -10 15 -10 8 0 15 5 15 10 0 6 -7 10 -15 10 -8 0
-15 -4 -15 -10z"/>
<path d="M2554 2748 c-3 -4 11 -8 30 -8 20 0 36 4 36 8 0 5 -14 9 -30 9 -17 0
-33 -4 -36 -9z"/>
<path d="M3331 2736 c-10 -12 -8 -13 8 -9 12 3 21 9 21 14 0 14 -16 11 -29 -5z"/>
<path d="M5009 2698 c-65 -10 -133 -47 -117 -64 7 -7 76 23 88 37 3 4 19 10
37 13 35 8 53 -7 26 -23 -17 -10 -17 -10 0 -11 9 0 17 4 17 9 0 5 9 13 20 16
22 7 28 36 8 34 -7 -1 -43 -6 -79 -11z"/>
<path d="M2488 2688 c9 -9 15 -9 24 0 9 9 7 12 -12 12 -19 0 -21 -3 -12 -12z"/>
<path d="M3635 2680 c4 -6 11 -8 16 -5 14 9 11 15 -7 15 -8 0 -12 -5 -9 -10z"/>
<path d="M2458 2668 c10 -10 8 -16 -10 -30 -19 -14 -20 -18 -6 -18 10 0 22 9
28 19 13 26 13 28 -7 36 -15 5 -16 4 -5 -7z"/>
<path d="M2535 2670 c4 -6 11 -8 16 -5 14 9 11 15 -7 15 -8 0 -12 -5 -9 -10z"/>
<path d="M3570 2646 c0 -14 5 -26 10 -26 6 0 10 9 10 19 0 11 -4 23 -10 26 -6
4 -10 -5 -10 -19z"/>
<path d="M3670 2661 c0 -12 23 -31 37 -31 21 0 15 14 -12 27 -14 6 -25 8 -25
4z"/>
<path d="M2565 2650 c3 -5 13 -10 21 -10 8 0 12 5 9 10 -3 6 -13 10 -21 10 -8
0 -12 -4 -9 -10z"/>
<path d="M3355 2630 c-3 -6 1 -7 9 -4 18 7 21 14 7 14 -6 0 -13 -4 -16 -10z"/>
<path d="M3667 2588 c-8 -30 0 -36 18 -12 18 24 19 34 1 34 -7 0 -16 -10 -19
-22z"/>
<path d="M2500 2590 c0 -5 6 -10 14 -10 8 0 18 5 21 10 3 6 -3 10 -14 10 -12
0 -21 -4 -21 -10z"/>
<path d="M4085 2587 c-112 -38 -201 -110 -247 -201 -29 -58 -31 -68 -34 -201
-3 -97 -1 -131 6 -111 5 16 9 63 8 105 0 42 3 94 7 116 10 54 51 135 84 163
14 13 37 33 50 44 13 11 53 34 87 49 78 36 166 39 232 9 47 -21 48 -9 1 15
-41 22 -145 28 -194 12z"/>
<path d="M3365 2580 c-3 -5 -1 -10 4 -10 6 0 11 5 11 10 0 6 -2 10 -4 10 -3 0
-8 -4 -11 -10z"/>
<path d="M2568 2558 c9 -9 15 -9 24 0 9 9 7 12 -12 12 -19 0 -21 -3 -12 -12z"/>
<path d="M3700 2555 c0 -9 6 -12 15 -9 8 4 12 10 9 15 -8 14 -24 10 -24 -6z"/>
<path d="M3420 2539 c-10 -18 -9 -20 7 -17 10 2 19 11 21 21 5 24 -15 21 -28
-4z"/>
<path d="M2460 2495 c-8 -9 -8 -15 -2 -15 12 0 26 19 19 26 -2 2 -10 -2 -17
-11z"/>
<path d="M4851 2469 c-46 -44 -47 -55 -6 -45 18 5 25 12 21 21 -3 8 -1 15 4
15 10 0 34 39 28 45 -2 3 -23 -14 -47 -36z"/>
<path d="M2513 2493 c-15 -5 -17 -23 -4 -23 5 0 11 7 15 15 3 8 4 15 3 14 -1
0 -8 -3 -14 -6z"/>
<path d="M3560 2479 c0 -11 5 -17 10 -14 6 3 10 13 10 21 0 8 -4 14 -10 14 -5
0 -10 -9 -10 -21z"/>
<path d="M4935 2490 c-3 -5 1 -10 9 -10 9 0 16 5 16 10 0 6 -4 10 -9 10 -6 0
-13 -4 -16 -10z"/>
<path d="M5035 2482 c-11 -2 -24 -8 -29 -12 -5 -5 1 -6 13 -3 16 4 21 1 21
-15 0 -11 -6 -23 -12 -25 -10 -4 -10 -6 0 -6 7 -1 16 7 19 17 4 9 11 20 17 24
16 11 -5 25 -29 20z"/>
<path d="M2540 2465 c0 -8 5 -15 10 -15 6 0 10 7 10 15 0 8 -4 15 -10 15 -5 0
-10 -7 -10 -15z"/>
<path d="M3731 2464 c0 -11 3 -14 6 -6 3 7 2 16 -1 19 -3 4 -6 -2 -5 -13z"/>
<path d="M2417 2444 c-10 -13 -13 -24 -8 -24 10 0 36 39 29 45 -2 2 -11 -8
-21 -21z"/>
<path d="M3541 2444 c0 -11 3 -14 6 -6 3 7 2 16 -1 19 -3 4 -6 -2 -5 -13z"/>
<path d="M3700 2445 c0 -8 4 -15 10 -15 5 0 7 7 4 15 -4 8 -8 15 -10 15 -2 0
-4 -7 -4 -15z"/>
<path d="M4760 2430 c-6 -11 -17 -20 -25 -20 -8 0 -15 -4 -15 -10 0 -13 17
-13 25 0 4 6 10 8 15 5 8 -5 30 24 30 39 0 14 -20 4 -30 -14z"/>
<path d="M3564 2429 c-3 -6 -1 -16 5 -22 8 -8 11 -5 11 11 0 24 -5 28 -16 11z"/>
<path d="M3250 2410 c0 -6 7 -10 15 -10 8 0 15 2 15 4 0 2 -7 6 -15 10 -8 3
-15 1 -15 -4z"/>
<path d="M4970 2409 c0 -5 5 -7 10 -4 6 3 10 8 10 11 0 2 -4 4 -10 4 -5 0 -10
-5 -10 -11z"/>
<path d="M3700 2396 c0 -15 18 -31 26 -23 7 7 -7 37 -17 37 -5 0 -9 -6 -9 -14z"/>
<path d="M2530 2390 c0 -5 5 -10 11 -10 5 0 7 5 4 10 -3 6 -8 10 -11 10 -2 0
-4 -4 -4 -10z"/>
<path d="M3530 2378 c0 -15 5 -30 10 -33 13 -8 13 25 0 45 -8 12 -10 9 -10
-12z"/>
<path d="M2482 2381 c4 -13 18 -16 19 -4 0 4 -5 9 -11 12 -7 2 -11 -2 -8 -8z"/>
<path d="M3210 2380 c0 -5 5 -10 10 -10 6 0 10 5 10 10 0 6 -4 10 -10 10 -5 0
-10 -4 -10 -10z"/>
<path d="M3290 2381 c0 -5 -10 -11 -22 -13 -27 -4 -45 -56 -22 -65 20 -8 32 6
14 17 -11 7 -11 11 -1 24 10 12 17 14 27 5 20 -17 43 -4 37 20 -5 21 -33 30
-33 12z"/>
<path d="M4787 2373 c-10 -10 -8 -43 2 -43 9 0 21 24 21 41 0 11 -14 12 -23 2z"/>
<path d="M3570 2360 c0 -5 5 -10 10 -10 6 0 10 5 10 10 0 6 -4 10 -10 10 -5 0
-10 -4 -10 -10z"/>
<path d="M2156 2337 c-3 -14 -3 -32 0 -40 3 -8 -2 -22 -11 -31 -14 -13 -15
-19 -5 -31 10 -12 9 -15 -4 -15 -10 0 -14 -4 -11 -10 14 -23 35 -9 35 23 0 17
5 50 10 72 10 43 -3 73 -14 32z"/>
<path d="M3782 2340 c0 -14 2 -19 5 -12 2 6 2 18 0 25 -3 6 -5 1 -5 -13z"/>
<path d="M2107 2343 c-7 -12 4 -73 14 -73 4 0 5 17 2 38 -7 42 -9 47 -16 35z"/>
<path d="M2287 2344 c-4 -4 -7 -19 -6 -33 l0 -26 10 24 c10 26 8 47 -4 35z"/>
<path d="M3752 2325 c0 -16 2 -22 5 -12 2 9 2 23 0 30 -3 6 -5 -1 -5 -18z"/>
<path d="M4940 2342 c0 -12 19 -26 26 -19 2 2 -2 10 -11 17 -9 8 -15 8 -15 2z"/>
<path d="M3710 2335 c-1 -33 54 -372 61 -380 13 -13 3 99 -23 245 -17 99 -37
168 -38 135z"/>
<path d="M2476 2315 c-3 -9 0 -15 9 -15 16 0 20 16 6 24 -5 3 -11 -1 -15 -9z"/>
<path d="M3430 2324 c0 -6 7 -19 15 -30 8 -10 14 -14 14 -9 0 6 -6 19 -14 29
-8 11 -15 15 -15 10z"/>
<path d="M3520 2316 c0 -9 5 -16 10 -16 6 0 10 4 10 9 0 6 -4 13 -10 16 -5 3
-10 -1 -10 -9z"/>
<path d="M3590 2316 c-6 -9 -10 -21 -8 -28 3 -8 9 -4 17 10 15 28 9 39 -9 18z"/>
<path d="M2782 2301 c-12 -7 -11 -14 2 -40 20 -38 16 -46 -29 -61 -41 -14 -51
-9 -58 26 -3 20 1 28 19 36 35 16 30 29 -6 17 -25 -9 -30 -16 -30 -45 0 -19 5
-34 10 -34 19 0 10 -15 -17 -27 -18 -9 -30 -9 -39 -3 -17 15 -24 64 -11 72 7
4 8 8 2 8 -30 0 -35 -16 -19 -63 9 -26 20 -47 25 -47 5 0 26 9 46 20 21 11 43
20 50 20 6 0 34 10 62 23 49 21 65 37 39 37 -15 0 -40 49 -32 61 7 11 3 11
-14 0z"/>
<path d="M2872 2280 c12 -17 31 -30 42 -29 20 0 20 1 -1 9 -12 5 -27 18 -33
29 -6 12 -15 21 -21 21 -5 0 0 -13 13 -30z"/>
<path d="M4736 2295 c-9 -26 -7 -32 5 -12 6 10 9 21 6 23 -2 3 -7 -2 -11 -11z"/>
<path d="M2405 2290 c3 -5 10 -10 16 -10 5 0 9 5 9 10 0 6 -7 10 -16 10 -8 0
-12 -4 -9 -10z"/>
<path d="M2356 2271 c-16 -17 -16 -19 1 -23 13 -4 18 1 19 19 2 28 2 28 -20 4z"/>
<path d="M3217 2255 c4 -19 16 -27 59 -40 42 -12 54 -20 54 -35 0 -11 7 -20
15 -20 8 0 15 -7 15 -15 0 -8 -4 -15 -8 -15 -5 0 -9 -6 -9 -12 0 -7 -3 -28 -8
-47 -11 -51 10 -30 30 28 15 46 15 52 0 81 -17 33 -66 60 -110 60 -27 0 -32 9
-13 28 9 9 7 12 -9 12 -16 0 -19 -5 -16 -25z"/>
<path d="M3761 2255 c1 -16 5 -41 9 -55 7 -22 8 -20 9 15 0 22 -4 47 -9 55 -7
11 -9 8 -9 -15z"/>
<path d="M2477 2263 c-4 -3 -7 -11 -7 -17 0 -6 5 -5 12 2 6 6 9 14 7 17 -3 3
-9 2 -12 -2z"/>
<path d="M2646 2253 c-6 -14 -5 -15 5 -6 7 7 10 15 7 18 -3 3 -9 -2 -12 -12z"/>
<path d="M3540 2255 c-8 -9 -8 -15 -2 -15 12 0 26 19 19 26 -2 2 -10 -2 -17
-11z"/>
<path d="M2106 2245 c-3 -9 -6 -22 -5 -28 0 -7 5 -1 10 12 5 13 8 26 5 28 -2
2 -6 -3 -10 -12z"/>
<path d="M2527 2229 c-27 -20 -36 -49 -17 -49 6 0 10 9 10 20 0 11 6 20 14 20
8 0 18 5 21 11 13 20 -2 19 -28 -2z"/>
<path d="M3550 2200 c-8 -16 -8 -18 4 -14 17 6 30 34 16 34 -5 0 -14 -9 -20
-20z"/>
<path d="M3617 2213 c-4 -3 -7 -11 -7 -17 0 -6 5 -5 12 2 6 6 9 14 7 17 -3 3
-9 2 -12 -2z"/>
<path d="M2077 2145 c-29 -59 -34 -80 -14 -55 7 8 18 15 25 16 47 4 47 4 32
14 -9 5 -19 5 -27 -2 -10 -8 -13 -7 -13 4 0 23 30 58 44 52 8 -3 17 -1 21 5 3
6 2 11 -4 11 -5 0 -15 2 -23 5 -9 4 -23 -14 -41 -50z"/>
<path d="M4912 2170 c0 -19 2 -27 5 -17 2 9 2 25 0 35 -3 9 -5 1 -5 -18z"/>
<path d="M2230 2146 c0 -13 -3 -33 -6 -43 -5 -15 -4 -16 6 -3 9 12 11 -3 7
-65 l-5 -80 14 60 c13 60 9 155 -7 155 -5 0 -9 -11 -9 -24z"/>
<path d="M3570 2160 c0 -5 4 -10 9 -10 6 0 13 5 16 10 3 6 -1 10 -9 10 -9 0
-16 -4 -16 -10z"/>
<path d="M2105 2150 c-3 -5 3 -10 14 -10 12 0 21 5 21 10 0 6 -6 10 -14 10 -8
0 -18 -4 -21 -10z"/>
<path d="M2513 2140 c2 -21 7 -25 31 -23 16 1 34 7 40 13 8 9 1 10 -26 5 -30
-6 -37 -4 -41 12 -4 12 -5 9 -4 -7z"/>
<path d="M3430 2148 c0 -8 -13 -35 -30 -59 -36 -53 -39 -75 -5 -36 l24 27 15
-27 c15 -27 15 -26 13 34 -1 34 -6 65 -10 69 -4 4 -7 1 -7 -8z"/>
<path d="M2715 2120 c20 -22 31 -20 22 5 -4 8 -14 15 -23 15 -16 0 -16 -2 1
-20z"/>
<path d="M4700 2116 c0 -9 5 -16 10 -16 6 0 10 4 10 9 0 6 -4 13 -10 16 -5 3
-10 -1 -10 -9z"/>
<path d="M3467 2079 c7 -23 12 -44 9 -46 -2 -3 4 -13 15 -24 10 -10 19 -28 19
-38 0 -10 7 -21 15 -25 23 -8 18 11 -22 96 -39 84 -60 104 -36 37z"/>
<path d="M2763 2103 c-17 -6 -16 -23 1 -23 8 0 16 7 20 15 6 15 1 17 -21 8z"/>
<path d="M3592 2090 c-6 -10 -8 -21 -3 -24 5 -3 11 4 14 16 8 29 4 32 -11 8z"/>
<path d="M2805 2090 c4 -6 11 -8 16 -5 14 9 11 15 -7 15 -8 0 -12 -5 -9 -10z"/>
<path d="M2070 2070 c-7 -14 -7 -20 0 -20 5 0 10 5 10 10 0 6 10 15 23 20 l22
9 -22 0 c-13 1 -27 -8 -33 -19z"/>
<path d="M2840 2071 c-15 -29 -12 -33 10 -14 21 19 26 33 10 33 -5 0 -14 -9
-20 -19z"/>
<path d="M3627 2069 c-4 -16 -3 -18 9 -8 16 13 19 29 5 29 -5 0 -11 -9 -14
-21z"/>
<path d="M2028 2048 c-52 -81 -25 -84 81 -11 2 2 2 6 -1 9 -9 9 -65 -24 -72
-42 -4 -9 -9 -15 -11 -12 -3 3 2 21 10 41 17 42 14 48 -7 15z"/>
<path d="M2211 2015 c-7 -33 -24 -87 -38 -120 -39 -93 -54 -157 -42 -172 14
-16 2 -110 -18 -142 -14 -22 -14 -25 1 -36 10 -7 16 -26 16 -48 0 -35 -1 -36
-30 -30 -16 3 -30 1 -30 -4 0 -16 31 -53 46 -53 8 0 14 -10 14 -25 0 -18 -5
-25 -20 -25 -20 0 -26 -11 -13 -23 3 -4 11 -3 17 2 8 7 10 -16 8 -79 -5 -105
12 -374 33 -555 9 -71 18 -179 21 -240 3 -60 9 -114 13 -120 5 -5 7 -32 5 -58
-2 -34 0 -47 9 -44 15 5 13 37 -26 377 -29 252 -32 301 -32 585 0 329 5 380
56 668 30 164 36 260 10 142z m-44 -207 c-3 -8 -6 -5 -6 6 -1 11 2 17 5 13 3
-3 4 -12 1 -19z m-10 -65 c-3 -10 -5 -2 -5 17 0 19 2 27 5 18 2 -10 2 -26 0
-35z m-16 -180 c-12 -20 -14 -14 -5 12 4 9 9 14 11 11 3 -2 0 -13 -6 -23z
m-11 -129 c0 -12 -4 -12 -20 -2 -11 7 -20 16 -20 19 0 4 9 5 20 2 11 -3 20
-12 20 -19z"/>
<path d="M2880 2050 c0 -5 7 -10 15 -10 8 0 15 5 15 10 0 6 -7 10 -15 10 -8 0
-15 -4 -15 -10z"/>
<path d="M4355 2034 c-62 -36 -360 -144 -398 -144 -20 0 -42 -8 -57 -22 -22
-21 -23 -21 -36 -3 -13 18 -14 17 -14 -7 0 -38 24 -41 66 -7 21 16 44 27 51
24 30 -11 460 164 436 178 -4 2 -26 -6 -48 -19z"/>
<path d="M4600 2050 c0 -5 7 -10 15 -10 8 0 15 5 15 10 0 6 -7 10 -15 10 -8 0
-15 -4 -15 -10z"/>
<path d="M2945 2040 c-8 -12 23 -45 33 -36 3 4 0 11 -8 17 -13 8 -13 10 0 19
13 8 13 10 -2 10 -9 0 -20 -5 -23 -10z"/>
<path d="M4660 2040 c0 -5 5 -10 10 -10 6 0 10 5 10 10 0 6 -4 10 -10 10 -5 0
-10 -4 -10 -10z"/>
<path d="M4778 2043 c6 -2 18 -2 25 0 6 3 1 5 -13 5 -14 0 -19 -2 -12 -5z"/>
<path d="M2300 2016 c0 -20 88 -368 95 -374 3 -3 5 -1 5 5 0 11 -61 275 -79
341 -12 42 -21 55 -21 28z"/>
<path d="M4880 2022 c0 -13 53 -23 65 -11 5 6 4 9 -5 9 -8 0 -25 3 -37 6 -13
4 -23 2 -23 -4z"/>
<path d="M3010 2010 c0 -5 4 -10 9 -10 6 0 13 5 16 10 3 6 -1 10 -9 10 -9 0
-16 -4 -16 -10z"/>
<path d="M3065 2000 c3 -5 11 -10 16 -10 6 0 7 5 4 10 -3 6 -11 10 -16 10 -6
0 -7 -4 -4 -10z"/>
<path d="M3660 1995 c0 -8 2 -15 4 -15 2 0 6 7 10 15 3 8 1 15 -4 15 -6 0 -10
-7 -10 -15z"/>
<path d="M4957 1981 c-4 -17 -2 -18 13 -9 14 9 32 8 74 -2 73 -17 83 -6 13 14
-72 21 -94 20 -100 -3z"/>
<path d="M3110 1970 c0 -5 5 -10 11 -10 5 0 7 5 4 10 -3 6 -8 10 -11 10 -2 0
-4 -4 -4 -10z"/>
<path d="M3615 1970 c-3 -5 -1 -10 4 -10 6 0 11 5 11 10 0 6 -2 10 -4 10 -3 0
-8 -4 -11 -10z"/>
<path d="M2004 1962 c-6 -4 -30 -36 -54 -72 -24 -36 -45 -67 -47 -70 -2 -2
-13 2 -25 9 -18 11 -20 11 -14 -4 3 -9 6 -19 6 -21 0 -2 8 -4 18 -4 9 0 28 16
41 35 13 19 28 35 34 35 18 0 81 44 69 48 -7 2 -10 8 -7 13 4 5 -1 6 -9 3 -9
-3 -16 -1 -16 5 0 6 11 11 24 11 14 0 28 5 31 10 7 12 -35 13 -51 2z m-4 -57
c-27 -14 -36 -13 -25 4 3 6 16 11 28 11 21 -1 21 -1 -3 -15z"/>
<path d="M4680 1954 c0 -8 5 -12 10 -9 6 3 10 10 10 16 0 5 -4 9 -10 9 -5 0
-10 -7 -10 -16z"/>
<path d="M2496 1933 c13 -58 57 -184 62 -178 5 5 -7 49 -41 148 -21 60 -32 75
-21 30z"/>
<path d="M2401 1939 c-1 -19 34 -143 78 -274 41 -124 39 -87 -3 49 -19 61 -44
140 -55 176 -11 36 -20 58 -20 49z"/>
<path d="M3640 1930 c-19 -15 -21 -20 -9 -20 16 0 46 27 38 35 -2 2 -15 -5
-29 -15z"/>
<path d="M2202 1771 c-13 -95 -22 -174 -20 -177 7 -6 50 311 46 332 -1 10 -14
-60 -26 -155z"/>
<path d="M2263 1880 c0 -36 2 -50 4 -32 2 17 2 47 0 65 -2 17 -4 3 -4 -33z"/>
<path d="M3780 1928 c0 -18 18 -34 28 -24 3 4 -2 14 -11 23 -16 16 -17 16 -17
1z"/>
<path d="M3513 1917 c17 -14 52 -100 58 -142 2 -11 -7 -39 -19 -62 -12 -24
-18 -43 -12 -43 5 0 12 11 16 25 3 14 15 32 27 40 20 14 20 14 -7 99 -15 47
-31 86 -36 86 -4 0 -17 3 -27 6 -17 5 -17 5 0 -9z"/>
<path d="M4670 1910 c0 -5 5 -10 10 -10 6 0 10 5 10 10 0 6 -4 10 -10 10 -5 0
-10 -4 -10 -10z"/>
<path d="M4775 1870 c0 -27 1 -28 13 -13 13 18 12 35 -4 40 -5 2 -9 -11 -9
-27z"/>
<path d="M3790 1881 c0 -11 29 -35 35 -29 10 9 -7 38 -21 38 -8 0 -14 -4 -14
-9z"/>
<path d="M3663 1865 c-7 -8 -9 -16 -5 -19 4 -3 13 4 20 15 14 22 3 25 -15 4z"/>
<path d="M4378 1863 c7 -3 16 -2 19 1 4 3 -2 6 -13 5 -11 0 -14 -3 -6 -6z"/>
<path d="M4258 1826 c-86 -38 -185 -91 -206 -112 -7 -8 -22 -19 -33 -25 -11
-5 -17 -14 -14 -19 3 -5 1 -11 -5 -15 -16 -10 -12 -25 5 -19 8 4 15 11 15 18
1 27 137 116 242 157 52 20 100 49 83 49 -6 0 -45 -15 -87 -34z"/>
<path d="M1950 1840 c-19 -10 -21 -62 -3 -67 8 -3 11 6 10 23 -1 15 4 29 12
32 8 2 11 0 8 -6 -8 -12 20 -38 30 -28 4 4 3 10 -3 14 -6 4 -13 15 -17 25 -7
19 -15 21 -37 7z"/>
<path d="M4640 1813 c0 -26 1 -26 15 -7 19 25 19 34 0 34 -10 0 -15 -10 -15
-27z"/>
<path d="M2242 1800 c0 -14 2 -19 5 -12 2 6 2 18 0 25 -3 6 -5 1 -5 -13z"/>
<path d="M2272 1785 c0 -16 2 -22 5 -12 2 9 2 23 0 30 -3 6 -5 -1 -5 -18z"/>
<path d="M4751 1778 c0 -28 2 -30 9 -13 12 28 12 45 0 45 -5 0 -10 -15 -9 -32z"/>
<path d="M1875 1780 c-3 -5 -1 -10 4 -10 6 0 11 5 11 10 0 6 -2 10 -4 10 -3 0
-8 -4 -11 -10z"/>
<path d="M3665 1770 c-3 -5 -2 -10 4 -10 5 0 13 5 16 10 3 6 2 10 -4 10 -5 0
-13 -4 -16 -10z"/>
<path d="M2075 1760 c3 -5 8 -10 11 -10 2 0 4 5 4 10 0 6 -5 10 -11 10 -5 0
-7 -4 -4 -10z"/>
<path d="M3710 1755 c-11 -13 -10 -14 4 -9 9 3 16 10 16 15 0 13 -6 11 -20 -6z"/>
<path d="M1854 1713 c-10 -27 -26 -60 -36 -75 -20 -29 -22 -38 -9 -38 5 0 16
16 25 35 9 19 21 35 26 35 5 0 7 6 4 14 -3 8 -1 17 5 20 6 4 8 13 4 21 -3 9 1
15 11 15 9 0 16 5 16 10 0 6 -6 10 -14 10 -8 0 -22 -21 -32 -47z"/>
<path d="M2252 1735 c0 -16 2 -22 5 -12 2 9 2 23 0 30 -3 6 -5 -1 -5 -18z"/>
<path d="M2282 1720 c0 -19 2 -27 5 -17 2 9 2 25 0 35 -3 9 -5 1 -5 -18z"/>
<path d="M3660 1730 c0 -5 4 -10 9 -10 6 0 13 5 16 10 3 6 -1 10 -9 10 -9 0
-16 -4 -16 -10z"/>
<path d="M4742 1719 c1 -12 8 -24 15 -26 7 -3 9 3 6 17 -8 29 -25 37 -21 9z"/>
<path d="M1952 1714 c-7 -8 -11 -25 -9 -37 l4 -22 8 23 c4 12 11 22 16 22 5 0
9 7 9 15 0 19 -11 19 -28 -1z"/>
<path d="M4900 1700 c0 -5 5 -10 10 -10 6 0 10 5 10 10 0 6 -4 10 -10 10 -5 0
-10 -4 -10 -10z"/>
<path d="M3810 1686 c0 -9 5 -16 10 -16 6 0 10 4 10 9 0 6 -4 13 -10 16 -5 3
-10 -1 -10 -9z"/>
<path d="M2299 1674 c-8 -10 -9 -15 -2 -11 7 4 16 0 22 -10 8 -14 10 -15 11
-3 0 8 -4 21 -9 28 -6 10 -11 9 -22 -4z"/>
<path d="M3700 1660 c0 -5 5 -10 11 -10 5 0 7 5 4 10 -3 6 -8 10 -11 10 -2 0
-4 -4 -4 -10z"/>
<path d="M3750 1660 c0 -5 5 -10 10 -10 6 0 10 5 10 10 0 6 -4 10 -10 10 -5 0
-10 -4 -10 -10z"/>
<path d="M3937 1650 c-9 -11 -23 -20 -31 -20 -7 0 -19 -7 -26 -15 -10 -13 -10
-19 4 -33 17 -20 22 -47 7 -37 -18 11 -21 -15 -10 -80 12 -62 11 -66 -9 -88
-30 -32 -29 -57 1 -29 24 23 57 29 57 11 0 -5 5 -7 11 -3 8 5 5 12 -8 23 -27
21 -50 135 -32 157 6 8 9 27 6 43 -5 26 -2 32 25 45 17 9 34 13 38 11 5 -3 6
4 3 15 -7 25 -14 25 -36 0z"/>
<path d="M4732 1650 c0 -14 2 -19 5 -12 2 6 2 18 0 25 -3 6 -5 1 -5 -13z"/>
<path d="M1963 1653 c-19 -7 -16 -53 2 -53 8 0 18 0 22 -1 4 0 9 4 11 10 2 6
-7 11 -20 12 l-23 0 23 11 c37 18 23 37 -15 21z"/>
<path d="M2236 1599 c-4 -28 -5 -53 -3 -56 3 -2 8 19 12 47 4 28 5 53 2 56 -2
3 -7 -19 -11 -47z"/>
<path d="M2297 1643 c-13 -12 -7 -51 9 -64 15 -12 16 -11 9 11 -5 14 -9 33 -9
43 0 19 0 19 -9 10z"/>
<path d="M1866 1601 c-9 -16 -16 -40 -16 -52 0 -18 2 -19 15 -9 8 7 14 18 13
24 -1 6 2 21 6 34 12 36 0 38 -18 3z"/>
<path d="M2320 1601 c0 -6 5 -13 11 -17 8 -5 7 -9 -1 -14 -13 -8 -7 -40 8 -40
7 0 8 22 3 68 -1 14 -21 17 -21 3z"/>
<path d="M2371 1593 c-1 -31 18 -123 31 -150 10 -20 38 -22 38 -1 0 5 -4 7 -9
3 -16 -9 -32 30 -19 43 9 9 9 12 0 12 -7 0 -12 12 -12 28 -1 15 -7 41 -15 57
-12 26 -13 27 -14 8z"/>
<path d="M4526 1591 c-4 -5 -2 -12 3 -15 5 -4 12 -2 15 3 4 5 2 12 -3 15 -5 4
-12 2 -15 -3z"/>
<path d="M1966 1582 c-8 -13 -4 -62 5 -62 10 0 18 54 9 63 -4 5 -10 4 -14 -1z"/>
<path d="M3835 1580 c-3 -5 -1 -10 4 -10 6 0 11 5 11 10 0 6 -2 10 -4 10 -3 0
-8 -4 -11 -10z"/>
<path d="M1800 1570 c0 -5 5 -10 11 -10 5 0 7 5 4 10 -3 6 -8 10 -11 10 -2 0
-4 -4 -4 -10z"/>
<path d="M2261 1564 c0 -11 3 -14 6 -6 3 7 2 16 -1 19 -3 4 -6 -2 -5 -13z"/>
<path d="M4877 1561 c-5 -22 1 -33 14 -25 12 7 12 44 0 44 -5 0 -11 -9 -14
-19z"/>
<path d="M2280 1556 c0 -8 5 -18 10 -21 6 -3 10 3 10 14 0 12 -4 21 -10 21 -5
0 -10 -6 -10 -14z"/>
<path d="M2517 1549 c4 -13 8 -18 11 -10 2 7 -1 18 -6 23 -8 8 -9 4 -5 -13z"/>
<path d="M3420 1560 c0 -5 5 -10 10 -10 6 0 10 5 10 10 0 6 -4 10 -10 10 -5 0
-10 -4 -10 -10z"/>
<path d="M4221 1561 c-9 -6 -10 -10 -2 -15 14 -9 69 2 76 15 8 11 -55 12 -74
0z"/>
<path d="M2171 1544 c0 -11 3 -14 6 -6 3 7 2 16 -1 19 -3 4 -6 -2 -5 -13z"/>
<path d="M3525 1550 c-3 -5 -2 -10 4 -10 5 0 16 -3 25 -6 11 -4 16 -1 16 10 0
18 -35 22 -45 6z"/>
<path d="M4476 1553 c-4 -5 -39 -8 -78 -8 -49 0 -73 -4 -76 -13 -3 -10 11 -11
65 -6 98 10 97 10 101 22 4 14 -1 16 -12 5z"/>
<path d="M4580 1544 c0 -8 5 -14 10 -14 11 0 4 -11 -32 -51 -17 -18 -17 -19 2
-19 11 0 23 8 27 18 3 9 15 24 26 33 22 18 17 34 -13 42 -13 3 -20 0 -20 -9z"/>
<path d="M2260 1520 c13 -23 20 -26 20 -6 0 8 -7 16 -15 20 -13 4 -14 2 -5
-14z"/>
<path d="M4516 1518 c-28 -16 -17 -27 14 -17 31 11 40 26 16 26 -8 0 -22 -4
-30 -9z"/>
<path d="M1840 1491 c0 -16 -3 -36 -6 -45 -5 -12 0 -16 17 -16 13 0 20 4 14 8
-11 8 -13 41 -2 58 3 6 4 14 0 18 -14 14 -23 5 -23 -23z"/>
<path d="M2220 1505 c0 -8 2 -15 4 -15 2 0 6 7 10 15 3 8 1 15 -4 15 -6 0 -10
-7 -10 -15z"/>
<path d="M2297 1500 c-3 -11 -2 -20 3 -20 4 0 11 -12 14 -26 10 -40 18 -22 10
25 -7 44 -18 53 -27 21z"/>
<path d="M2349 1504 c-6 -32 -3 -84 4 -84 5 0 5 -10 1 -22 -6 -20 -5 -21 9 -9
9 7 14 18 10 24 -3 6 -7 27 -7 48 -1 34 -14 66 -17 43z"/>
<path d="M3530 1501 c0 -5 5 -13 10 -16 6 -3 10 -2 10 4 0 5 -4 13 -10 16 -5
3 -10 2 -10 -4z"/>
<path d="M4190 1506 c0 -2 7 -7 16 -10 8 -3 12 -2 9 4 -6 10 -25 14 -25 6z"/>
<path d="M4661 1473 c-7 -21 -15 -44 -17 -50 -3 -7 -2 -13 3 -13 12 0 50 74
45 88 -7 22 -19 12 -31 -25z"/>
<path d="M2226 1469 c-10 -17 -15 -33 -12 -36 3 -4 7 -4 9 -2 24 41 36 69 30
69 -5 0 -17 -14 -27 -31z"/>
<path d="M4315 1490 c-3 -5 -1 -10 4 -10 6 0 11 5 11 10 0 6 -2 10 -4 10 -3 0
-8 -4 -11 -10z"/>
<path d="M4412 1492 c-7 -2 -12 -8 -12 -13 0 -12 57 -12 64 0 6 10 -33 20 -52
13z"/>
<path d="M2267 1463 c-4 -3 -7 -18 -7 -32 l1 -26 14 25 c8 14 14 28 15 33 0 9
-14 9 -23 0z"/>
<path d="M4488 1463 c7 -3 16 -2 19 1 4 3 -2 6 -13 5 -11 0 -14 -3 -6 -6z"/>
<path d="M1406 1453 c-11 -11 -6 -23 9 -23 8 0 15 4 15 9 0 13 -16 22 -24 14z"/>
<path d="M1990 1440 c0 -5 5 -10 10 -10 6 0 10 5 10 10 0 6 -4 10 -10 10 -5 0
-10 -4 -10 -10z"/>
<path d="M2282 1406 c-24 -54 -27 -76 -11 -76 6 0 9 7 6 14 -3 8 1 30 10 48
l17 32 9 -28 c7 -21 6 -30 -4 -37 -7 -4 -11 -10 -8 -13 2 -3 9 -2 15 2 14 9
29 66 15 58 -5 -3 -13 6 -19 21 l-9 28 -21 -49z"/>
<path d="M3325 1438 c2 -7 31 -97 65 -200 34 -103 65 -190 70 -193 12 -7 7 14
-24 100 -13 39 -32 97 -42 130 -9 33 -22 78 -29 100 -7 22 -10 41 -5 43 4 2
24 -4 44 -12 29 -12 36 -20 36 -43 l0 -28 15 29 c9 16 14 30 13 30 -19 10
-108 46 -125 51 -16 5 -22 3 -18 -7z"/>
<path d="M4852 1414 c0 -25 3 -33 9 -23 11 18 12 59 0 59 -5 0 -9 -16 -9 -36z"/>
<path d="M1836 1404 c-9 -22 -8 -24 9 -24 8 0 15 9 15 20 0 24 -15 27 -24 4z"/>
<path d="M2236 1401 c-4 -7 -5 -15 -2 -18 9 -9 19 4 14 18 -4 11 -6 11 -12 0z"/>
<path d="M2417 1404 c-3 -4 1 -13 9 -21 18 -18 27 -13 18 11 -6 17 -16 20 -27
10z"/>
<path d="M1110 1376 c6 -8 18 -12 26 -9 22 8 16 18 -12 21 -22 2 -24 0 -14
-12z"/>
<path d="M1168 1383 c7 -3 16 -2 19 1 4 3 -2 6 -13 5 -11 0 -14 -3 -6 -6z"/>
<path d="M1985 1380 c3 -5 10 -10 16 -10 5 0 9 5 9 10 0 6 -7 10 -16 10 -8 0
-12 -4 -9 -10z"/>
<path d="M2357 1363 c-10 -9 -9 -23 2 -23 5 0 11 7 15 15 5 15 -5 20 -17 8z"/>
<path d="M4840 1359 c0 -5 5 -7 10 -4 6 3 10 8 10 11 0 2 -4 4 -10 4 -5 0 -10
-5 -10 -11z"/>
<path d="M1810 1350 c0 -5 9 -10 20 -10 11 0 20 5 20 10 0 6 -9 10 -20 10 -11
0 -20 -4 -20 -10z"/>
<path d="M1890 1340 c0 -11 5 -20 11 -20 6 0 9 -6 6 -12 -2 -7 0 -22 5 -33 6
-14 7 -8 4 22 -2 22 1 46 7 52 8 8 5 11 -11 11 -15 0 -22 -6 -22 -20z"/>
<path d="M2430 1348 c0 -9 5 -20 11 -23 17 -11 20 0 4 21 -13 17 -14 17 -15 2z"/>
<path d="M4250 1350 c0 -5 7 -10 16 -10 8 0 12 5 9 10 -3 6 -10 10 -16 10 -5
0 -9 -4 -9 -10z"/>
<path d="M2228 1344 c-5 -4 -8 -16 -8 -28 0 -14 3 -17 11 -9 6 6 9 19 7 28 -1
9 -6 13 -10 9z"/>
<path d="M3952 1330 c2 -19 11 -26 36 -31 37 -8 44 8 7 17 -14 3 -30 14 -35
23 -9 13 -10 12 -8 -9z"/>
<path d="M2035 1330 c3 -5 8 -10 11 -10 2 0 4 5 4 10 0 6 -5 10 -11 10 -5 0
-7 -4 -4 -10z"/>
<path d="M3513 1333 c-24 -2 -43 -8 -43 -13 0 -5 22 -7 48 -4 l49 4 13 -40 c8
-23 18 -44 23 -47 7 -4 7 1 3 13 -5 10 -10 36 -13 57 -4 26 -10 36 -22 35 -9
-1 -35 -3 -58 -5z"/>
<path d="M3805 1330 c-3 -5 -1 -10 4 -10 6 0 11 5 11 10 0 6 -2 10 -4 10 -3 0
-8 -4 -11 -10z"/>
<path d="M3887 1333 c-13 -12 -7 -23 11 -22 10 0 12 3 4 6 -6 2 -10 9 -6 14 6
10 0 12 -9 2z"/>
<path d="M1970 1290 c24 -22 49 -40 56 -40 15 0 -19 37 -59 63 -44 29 -43 19
3 -23z"/>
<path d="M2320 1320 c-20 -12 -5 -24 16 -12 9 5 12 12 7 15 -5 3 -15 2 -23 -3z"/>
<path d="M1827 1300 c-9 -11 -17 -28 -17 -36 0 -12 6 -9 21 10 25 31 22 55 -4
26z"/>
<path d="M2059 1310 c-5 -28 -4 -50 2 -50 13 0 20 33 9 44 -5 5 -10 8 -11 6z"/>
<path d="M2310 1280 c0 -11 30 -21 41 -14 17 10 9 22 -16 22 -14 0 -25 -4 -25
-8z"/>
<path d="M4045 1280 c3 -5 11 -10 16 -10 6 0 7 5 4 10 -3 6 -11 10 -16 10 -6
0 -7 -4 -4 -10z"/>
<path d="M3980 1270 c20 -13 33 -13 25 0 -3 6 -14 10 -23 10 -15 0 -15 -2 -2
-10z"/>
<path d="M1837 1240 c-3 -11 0 -23 5 -27 7 -3 8 -1 4 5 -4 7 -2 12 3 12 6 0
11 7 11 15 0 22 -17 18 -23 -5z"/>
<path d="M4020 1255 c0 -5 89 -45 99 -45 8 1 -81 49 -91 50 -5 0 -8 -2 -8 -5z"/>
<path d="M4464 1249 c-3 -6 -1 -16 5 -22 8 -8 11 -5 11 11 0 24 -5 28 -16 11z"/>
<path d="M1725 1199 c-78 -54 -99 -81 -33 -44 50 29 115 82 108 88 -3 2 -36
-18 -75 -44z"/>
<path d="M1917 1231 c-3 -12 1 -22 9 -25 17 -7 18 -38 2 -54 -9 -9 -7 -12 10
-12 17 0 22 -6 23 -27 0 -16 4 -37 9 -48 7 -16 8 -12 6 15 -3 36 -19 92 -41
143 -11 26 -13 26 -18 8z"/>
<path d="M2270 1240 c0 -5 5 -10 10 -10 6 0 10 5 10 10 0 6 -4 10 -10 10 -5 0
-10 -4 -10 -10z"/>
<path d="M2322 1230 c0 -14 2 -19 5 -12 2 6 2 18 0 25 -3 6 -5 1 -5 -13z"/>
<path d="M3690 1233 c0 -10 5 -25 10 -33 7 -11 10 -7 10 18 0 17 -4 32 -10 32
-5 0 -10 -8 -10 -17z"/>
<path d="M4133 1233 c9 -9 19 -14 23 -11 10 10 -6 28 -24 28 -15 0 -15 -1 1
-17z"/>
<path d="M3740 1235 c-2 -16 -8 -38 -19 -72 -13 -46 3 -41 21 5 9 22 12 46 7
57 -4 11 -8 16 -9 10z"/>
<path d="M4695 1230 c-3 -5 1 -10 10 -10 9 0 13 5 10 10 -3 6 -8 10 -10 10 -2
0 -7 -4 -10 -10z"/>
<path d="M2350 1221 c0 -5 7 -14 15 -21 16 -14 18 -10 9 14 -6 17 -24 22 -24
7z"/>
<path d="M3782 1188 c1 -69 17 -93 17 -26 1 31 -3 59 -8 63 -6 3 -9 -13 -9
-37z"/>
<path d="M2267 1214 c-3 -5 3 -15 13 -22 12 -7 21 -8 25 -2 3 6 0 10 -9 10 -8
0 -16 5 -18 12 -3 7 -7 8 -11 2z"/>
<path d="M2530 1200 c6 -11 13 -20 16 -20 2 0 0 9 -6 20 -6 11 -13 20 -16 20
-2 0 0 -9 6 -20z"/>
<path d="M3620 1211 c0 -6 5 -13 10 -16 6 -3 10 1 10 9 0 9 -4 16 -10 16 -5 0
-10 -4 -10 -9z"/>
<path d="M4375 1209 c-4 -6 -14 -8 -22 -5 -17 7 -63 -3 -63 -14 0 -9 56 -6 88
5 12 4 22 11 22 16 0 12 -17 11 -25 -2z"/>
<path d="M4625 1213 c-29 -7 -41 -21 -23 -28 9 -4 31 3 49 14 34 21 24 26 -26
14z"/>
<path d="M4150 1191 c24 -20 40 -26 40 -16 0 2 -15 12 -32 20 l-33 16 25 -20z"/>
<path d="M1860 1185 c0 -8 4 -15 10 -15 5 0 7 7 4 15 -4 8 -8 15 -10 15 -2 0
-4 -7 -4 -15z"/>
<path d="M2414 1185 c16 -9 32 -13 35 -10 8 9 -21 25 -44 25 -16 0 -14 -3 9
-15z"/>
<path d="M4550 1183 c0 -12 -4 -25 -10 -28 -12 -7 -13 -25 -2 -25 5 0 17 6 27
14 17 12 17 14 2 37 -17 23 -17 23 -17 2z"/>
<path d="M4796 1193 c-12 -12 -5 -23 14 -23 11 0 20 4 20 9 0 11 -26 22 -34
14z"/>
<path d="M2230 1170 c0 -11 4 -20 8 -20 4 0 8 9 9 20 1 11 -2 20 -8 20 -5 0
-9 -9 -9 -20z"/>
<path d="M2318 1174 c-7 -8 -21 -24 -31 -36 -23 -24 -16 -34 13 -18 12 6 19
18 16 25 -2 7 2 19 9 25 12 10 16 9 21 -4 3 -9 10 -13 15 -10 5 3 15 -8 22
-24 9 -22 15 -27 23 -18 8 9 2 20 -27 44 -44 37 -44 37 -61 16z"/>
<path d="M3856 1174 c-3 -9 -6 -23 -6 -32 0 -13 5 -11 19 8 19 23 19 40 1 40
-4 0 -11 -7 -14 -16z"/>
<path d="M4750 1180 c0 -5 4 -10 9 -10 6 0 13 5 16 10 3 6 -1 10 -9 10 -9 0
-16 -4 -16 -10z"/>
<path d="M3640 1166 c0 -8 5 -18 10 -21 6 -3 10 1 10 9 0 8 -4 18 -10 21 -5 3
-10 -1 -10 -9z"/>
<path d="M1870 1152 c0 -12 19 -26 26 -19 2 2 -2 10 -11 17 -9 8 -15 8 -15 2z"/>
<path d="M4401 1147 c-6 -8 -8 -17 -4 -20 12 -13 28 -7 41 13 11 17 10 20 -7
20 -10 0 -24 -6 -30 -13z"/>
<path d="M3903 1143 c-24 -9 -13 -20 17 -15 18 3 35 -2 45 -12 9 -9 24 -16 33
-16 11 0 7 7 -13 19 -36 22 -65 31 -82 24z"/>
<path d="M4248 1138 c5 -5 16 -8 23 -6 8 3 3 7 -10 11 -17 4 -21 3 -13 -5z"/>
<path d="M4330 1141 c0 -6 5 -13 10 -16 6 -3 10 1 10 9 0 9 -4 16 -10 16 -5 0
-10 -4 -10 -9z"/>
<path d="M1690 1130 c0 -5 4 -10 9 -10 6 0 13 5 16 10 3 6 -1 10 -9 10 -9 0
-16 -4 -16 -10z"/>
<path d="M2450 1120 c19 -13 30 -13 30 0 0 6 -10 10 -22 10 -19 0 -20 -2 -8
-10z"/>
<path d="M4906 1121 c-4 -5 -2 -12 3 -15 5 -4 12 -2 15 3 4 5 2 12 -3 15 -5 4
-12 2 -15 -3z"/>
<path d="M1890 1101 c0 -5 5 -13 10 -16 6 -3 10 -2 10 4 0 5 -4 13 -10 16 -5
3 -10 2 -10 -4z"/>
<path d="M2358 1103 c-2 -5 -1 -26 3 -48 l6 -40 2 48 c1 44 -3 57 -11 40z"/>
<path d="M2275 1080 c-3 -11 -10 -20 -14 -20 -4 0 -8 -17 -9 -37 -3 -42 6 -38
24 10 6 17 15 40 19 50 4 10 3 17 -3 17 -6 0 -14 -9 -17 -20z"/>
<path d="M3810 1090 c0 -5 7 -10 15 -10 8 0 15 5 15 10 0 6 -7 10 -15 10 -8 0
-15 -4 -15 -10z"/>
<path d="M4360 1090 c0 -5 4 -10 9 -10 5 0 18 -3 28 -7 17 -6 17 -6 1 10 -18
19 -38 22 -38 7z"/>
<path d="M4046 1075 c10 -8 25 -15 33 -15 11 0 9 4 -5 15 -10 8 -25 15 -33 15
-11 0 -9 -4 5 -15z"/>
<path d="M4112 1044 c10 -10 20 -15 24 -12 3 4 -5 12 -18 18 -22 12 -22 12 -6
-6z"/>
<path d="M2386 1034 c-4 -10 -1 -14 6 -12 15 5 23 28 10 28 -5 0 -13 -7 -16
-16z"/>
<path d="M333 1033 c-61 -8 -33 -22 35 -18 74 4 106 -1 96 -17 -13 -21 20 -27
39 -7 18 19 18 19 47 -3 31 -25 39 -44 15 -34 -20 7 -75 -4 -75 -15 0 -10 71
-6 88 5 11 7 54 -52 72 -99 5 -14 14 -25 20 -25 18 0 -51 123 -94 168 -40 41
-76 55 -76 30 0 -7 -5 -5 -11 5 -10 17 -67 21 -156 10z"/>
<path d="M1925 1030 c3 -5 8 -10 11 -10 2 0 4 5 4 10 0 6 -5 10 -11 10 -5 0
-7 -4 -4 -10z"/>
<path d="M4605 1030 c-3 -5 -1 -10 4 -10 6 0 11 5 11 10 0 6 -2 10 -4 10 -3 0
-8 -4 -11 -10z"/>
<path d="M230 1020 c-22 -7 -21 -8 13 -9 23 -1 36 3 32 9 -7 11 -10 11 -45 0z"/>
<path d="M3476 1005 c4 -16 13 -41 20 -55 l14 -25 -6 30 c-4 17 -13 41 -20 55
l-14 25 6 -30z"/>
<path d="M4155 1020 c3 -5 11 -10 16 -10 6 0 7 5 4 10 -3 6 -11 10 -16 10 -6
0 -7 -4 -4 -10z"/>
<path d="M2375 988 c-8 -40 -12 -202 -4 -228 4 -16 8 8 9 65 3 116 5 135 14
163 4 13 3 22 -3 22 -6 0 -13 -10 -16 -22z"/>
<path d="M4195 1000 c3 -5 13 -10 21 -10 8 0 12 5 9 10 -3 6 -13 10 -21 10 -8
0 -12 -4 -9 -10z"/>
<path d="M408 993 c7 -3 16 -2 19 1 4 3 -2 6 -13 5 -11 0 -14 -3 -6 -6z"/>
<path d="M4520 989 c0 -5 5 -7 10 -4 6 3 10 8 10 11 0 2 -4 4 -10 4 -5 0 -10
-5 -10 -11z"/>
<path d="M240 980 c0 -5 12 -10 26 -10 14 0 23 4 19 10 -3 6 -15 10 -26 10
-10 0 -19 -4 -19 -10z"/>
<path d="M345 980 c-3 -5 -1 -10 4 -10 6 0 11 5 11 10 0 6 -2 10 -4 10 -3 0
-8 -4 -11 -10z"/>
<path d="M370 972 c0 -12 35 -22 75 -22 21 1 26 3 15 9 -24 14 -90 23 -90 13z"/>
<path d="M4252 968 c-7 -7 -12 -20 -12 -30 0 -12 -5 -16 -17 -12 -15 5 -16 4
-3 -5 13 -10 11 -15 -12 -36 -16 -13 -36 -28 -45 -34 -10 -5 -15 -13 -11 -17
10 -9 78 37 78 53 0 7 9 18 20 25 11 7 20 18 20 25 0 7 7 13 15 13 20 0 19 16
-1 24 -20 8 -18 8 -32 -6z"/>
<path d="M4010 941 c0 -5 7 -11 15 -15 8 -3 15 -1 15 3 0 5 -7 11 -15 15 -8 3
-15 1 -15 -3z"/>
<path d="M4561 936 c-8 -9 -11 -19 -7 -23 9 -9 29 13 24 27 -2 8 -8 7 -17 -4z"/>
<path d="M4399 872 c-53 -115 -45 -140 9 -31 15 30 37 59 50 65 l23 11 -23 7
c-13 3 -25 6 -28 6 -3 0 -17 -26 -31 -58z"/>
<path d="M3790 905 c0 -8 5 -15 10 -15 6 0 10 7 10 15 0 8 -4 15 -10 15 -5 0
-10 -7 -10 -15z"/>
<path d="M4170 898 c0 -4 4 -8 9 -8 6 0 12 4 15 8 3 5 -1 9 -9 9 -8 0 -15 -4
-15 -9z"/>
<path d="M3645 888 c-16 -5 -40 -14 -52 -20 -12 -6 -29 -8 -37 -5 -19 8 -20 3
-4 -40 13 -35 34 -47 25 -13 -5 21 29 50 60 50 19 1 53 22 53 34 0 8 -8 7 -45
-6z"/>
<path d="M4660 879 c0 -5 5 -7 10 -4 6 3 10 8 10 11 0 2 -4 4 -10 4 -5 0 -10
-5 -10 -11z"/>
<path d="M3912 861 c-11 -7 -11 -9 2 -14 10 -4 16 -1 16 8 0 17 -1 17 -18 6z"/>
<path d="M610 848 c0 -9 5 -20 11 -23 17 -11 18 -2 3 19 -12 17 -14 17 -14 4z"/>
<path d="M3806 845 c-9 -26 -7 -32 5 -12 6 10 9 21 6 23 -2 3 -7 -2 -11 -11z"/>
<path d="M3730 820 c0 -5 4 -10 9 -10 6 0 13 5 16 10 3 6 -1 10 -9 10 -9 0
-16 -4 -16 -10z"/>
<path d="M4103 803 c-3 -10 -8 -22 -11 -26 -2 -5 5 -3 17 5 12 7 21 18 21 25
0 19 -20 16 -27 -4z"/>
<path d="M3843 786 c-20 -9 -31 -26 -18 -26 12 0 55 24 55 32 0 10 -8 9 -37
-6z"/>
<path d="M620 780 c0 -5 4 -10 9 -10 6 0 13 5 16 10 3 6 -1 10 -9 10 -9 0 -16
-4 -16 -10z"/>
<path d="M680 789 c0 -4 9 -26 20 -50 16 -36 20 -39 20 -19 0 21 -39 88 -40
69z"/>
<path d="M3630 780 c-8 -5 -23 -7 -32 -4 -23 7 -23 -8 2 -48 18 -29 26 -31 21
-4 -1 5 7 15 19 23 11 8 20 21 20 29 0 16 -9 18 -30 4z"/>
<path d="M3710 781 c0 -5 7 -14 15 -21 16 -14 18 -10 9 14 -6 17 -24 22 -24 7z"/>
<path d="M4141 764 c-13 -13 -29 -24 -37 -24 -8 0 -14 -5 -14 -10 0 -6 -12
-15 -27 -21 -18 -7 -23 -13 -15 -16 8 -3 19 0 25 6 6 6 19 11 29 11 10 0 18 5
18 11 0 5 14 15 30 20 17 6 30 17 30 24 0 24 -15 24 -39 -1z"/>
<path d="M4310 769 c0 -5 5 -7 10 -4 6 3 10 8 10 11 0 2 -4 4 -10 4 -5 0 -10
-5 -10 -11z"/>
<path d="M4450 770 c0 -5 5 -10 11 -10 5 0 7 5 4 10 -3 6 -8 10 -11 10 -2 0
-4 -4 -4 -10z"/>
<path d="M4520 770 c-8 -5 -12 -12 -9 -15 4 -3 12 1 19 10 14 17 11 19 -10 5z"/>
<path d="M551 746 c-10 -12 -8 -13 9 -9 25 7 37 23 17 23 -8 0 -20 -6 -26 -14z"/>
<path d="M3760 749 c0 -5 5 -7 10 -4 6 3 10 8 10 11 0 2 -4 4 -10 4 -5 0 -10
-5 -10 -11z"/>
<path d="M3700 730 c0 -5 5 -10 10 -10 6 0 10 5 10 10 0 6 -4 10 -10 10 -5 0
-10 -4 -10 -10z"/>
<path d="M3981 726 c-19 -23 4 -28 24 -6 15 17 16 20 3 20 -9 0 -21 -6 -27
-14z"/>
<path d="M4276 719 c-15 -15 -16 -19 -5 -19 16 0 39 19 39 32 0 13 -14 8 -34
-13z"/>
<path d="M4371 731 c-8 -5 -9 -11 -3 -15 14 -8 43 4 36 15 -7 11 -15 11 -33 0z"/>
<path d="M2300 721 c0 -6 5 -13 10 -16 6 -3 10 1 10 9 0 9 -4 16 -10 16 -5 0
-10 -4 -10 -9z"/>
<path d="M3787 711 c-24 -16 -26 -19 -11 -25 17 -6 54 18 54 36 0 13 -12 10
-43 -11z"/>
<path d="M2360 690 c0 -5 5 -10 10 -10 6 0 10 5 10 10 0 6 -4 10 -10 10 -5 0
-10 -4 -10 -10z"/>
<path d="M2321 674 c0 -11 3 -14 6 -6 3 7 2 16 -1 19 -3 4 -6 -2 -5 -13z"/>
<path d="M3730 679 c0 -5 5 -7 10 -4 6 3 10 8 10 11 0 2 -4 4 -10 4 -5 0 -10
-5 -10 -11z"/>
<path d="M3900 675 c0 -10 3 -15 7 -12 3 4 12 2 20 -5 10 -8 17 -8 25 0 9 9 7
12 -8 12 -11 0 -25 5 -32 12 -9 9 -12 8 -12 -7z"/>
<path d="M4124 671 c-17 -9 -44 -27 -60 -39 -42 -31 -7 -29 40 3 20 14 41 25
45 25 5 0 14 7 21 15 17 20 -4 18 -46 -4z"/>
<path d="M3638 674 c-7 -7 24 -64 35 -64 4 0 7 8 7 18 0 20 -33 56 -42 46z"/>
<path d="M4216 667 c-11 -8 -15 -17 -10 -20 14 -8 37 8 33 22 -3 8 -10 8 -23
-2z"/>
<path d="M4285 658 l-20 -20 25 4 c14 2 26 11 28 21 4 22 -8 21 -33 -5z"/>
<path d="M4365 670 c3 -5 8 -10 11 -10 2 0 4 5 4 10 0 6 -5 10 -11 10 -5 0 -7
-4 -4 -10z"/>
<path d="M620 661 c0 -5 5 -13 10 -16 6 -3 10 -2 10 4 0 5 -4 13 -10 16 -5 3
-10 2 -10 -4z"/>
<path d="M730 639 c0 -9 7 -30 15 -45 8 -16 15 -37 15 -46 0 -9 5 -20 10 -23
6 -3 10 -17 10 -31 0 -13 5 -24 10 -24 13 0 14 -5 -14 78 -29 83 -45 116 -46
91z"/>
<path d="M3700 640 c0 -5 4 -10 9 -10 6 0 13 5 16 10 3 6 -1 10 -9 10 -9 0
-16 -4 -16 -10z"/>
<path d="M2330 600 c0 -19 3 -21 12 -12 9 9 9 15 0 24 -9 9 -12 7 -12 -12z"/>
<path d="M3976 595 c5 -11 11 -12 25 -4 26 13 24 19 -6 19 -17 0 -23 -4 -19
-15z"/>
<path d="M4203 602 c-13 -2 -23 -10 -23 -18 0 -11 4 -12 19 -5 10 6 21 8 23 5
3 -2 10 2 16 9 13 15 8 16 -35 9z"/>
<path d="M2365 590 c-3 -5 -1 -10 4 -10 6 0 11 5 11 10 0 6 -2 10 -4 10 -3 0
-8 -4 -11 -10z"/>
<path d="M4343 583 c3 -13 1 -23 -4 -23 -5 0 -9 -4 -9 -10 0 -18 19 -10 25 11
4 12 2 26 -5 33 -10 8 -12 6 -7 -11z"/>
<path d="M2055 570 c-3 -5 3 -10 15 -10 12 0 18 5 15 10 -3 6 -10 10 -15 10
-5 0 -12 -4 -15 -10z"/>
<path d="M3685 570 c3 -5 8 -10 11 -10 2 0 4 5 4 10 0 6 -5 10 -11 10 -5 0 -7
-4 -4 -10z"/>
<path d="M3865 570 c-4 -6 -23 -10 -43 -10 -20 0 -56 -2 -80 -6 -41 -6 -42 -7
-26 -25 12 -14 21 -16 29 -9 7 6 17 10 21 9 5 -1 16 0 24 4 16 6 83 18 115 20
12 1 20 -4 20 -13 0 -9 -7 -14 -18 -12 -10 2 -24 -1 -30 -6 -7 -5 -38 -15 -70
-22 -32 -7 -56 -17 -55 -20 2 -4 20 -26 40 -49 37 -39 58 -48 92 -35 30 12 17
26 -18 20 -29 -6 -37 -3 -50 16 -9 12 -16 27 -16 33 0 10 58 34 95 39 69 10
146 31 156 43 17 20 4 27 -30 15 -23 -8 -45 -7 -86 4 -67 17 -62 16 -70 4z"/>
<path d="M670 561 c0 -5 5 -13 10 -16 6 -3 10 -2 10 4 0 5 -4 13 -10 16 -5 3
-10 2 -10 -4z"/>
<path d="M1933 538 c2 -7 11 -11 18 -9 8 2 22 3 32 3 9 0 17 3 17 9 0 5 -16 9
-36 9 -24 0 -34 -4 -31 -12z"/>
<path d="M4210 539 c-20 -8 -22 -12 -10 -19 9 -6 20 -4 29 3 8 7 16 11 18 10
1 -2 3 0 4 4 1 12 -14 12 -41 2z"/>
<path d="M2070 518 c0 -8 6 -21 14 -27 11 -10 14 -9 12 4 -1 8 -8 21 -14 27
-9 9 -12 8 -12 -4z"/>
<path d="M2350 511 c0 -12 5 -21 10 -21 6 0 10 6 10 14 0 8 -4 18 -10 21 -5 3
-10 -3 -10 -14z"/>
<path d="M4154 515 c-4 -8 -12 -15 -19 -15 -7 0 -15 -7 -19 -15 -4 -10 1 -15
15 -15 12 0 23 8 26 20 3 11 9 20 14 20 5 0 9 5 9 10 0 16 -20 12 -26 -5z"/>
<path d="M1984 505 c11 -8 27 -15 35 -15 13 1 12 4 -3 15 -11 8 -27 15 -35 15
-13 -1 -12 -4 3 -15z"/>
<path d="M4272 508 c6 -18 28 -21 28 -4 0 9 -7 16 -16 16 -9 0 -14 -5 -12 -12z"/>
<path d="M720 500 c0 -5 5 -10 10 -10 6 0 10 5 10 10 0 6 -4 10 -10 10 -5 0
-10 -4 -10 -10z"/>
<path d="M2390 490 c0 -13 11 -13 30 0 12 8 11 10 -7 10 -13 0 -23 -4 -23 -10z"/>
<path d="M4206 491 c-3 -5 3 -11 14 -14 21 -5 32 1 24 14 -7 12 -31 11 -38 0z"/>
<path d="M3866 466 c-17 -8 -24 -16 -18 -20 7 -4 22 -1 34 6 13 7 29 11 36 10
6 -2 20 2 30 7 26 16 -46 13 -82 -3z"/>
<path d="M0 466 c0 -11 62 -68 67 -62 4 4 -7 20 -24 36 -30 28 -43 36 -43 26z"/>
<path d="M750 459 c0 -5 5 -7 10 -4 6 3 10 8 10 11 0 2 -4 4 -10 4 -5 0 -10
-5 -10 -11z"/>
<path d="M1090 455 c0 -8 7 -15 15 -15 8 0 15 7 15 15 0 8 -7 15 -15 15 -8 0
-15 -7 -15 -15z"/>
<path d="M4055 458 c-16 -6 -40 -9 -53 -9 -12 0 -33 -9 -47 -21 -27 -24 -34
-51 -10 -42 8 4 15 12 15 20 0 13 23 19 63 16 9 -1 17 3 17 8 0 6 9 10 19 10
11 0 23 5 26 11 10 16 3 17 -30 7z"/>
<path d="M350 450 c0 -5 5 -10 11 -10 5 0 7 5 4 10 -3 6 -8 10 -11 10 -2 0 -4
-4 -4 -10z"/>
<path d="M1875 450 c7 -12 52 -14 59 -2 2 4 -11 9 -30 10 -23 2 -33 -1 -29 -8z"/>
<path d="M800 441 c0 -5 5 -13 10 -16 6 -3 10 -2 10 4 0 5 -4 13 -10 16 -5 3
-10 2 -10 -4z"/>
<path d="M2352 438 c2 -6 10 -14 16 -16 7 -2 10 2 6 12 -7 18 -28 22 -22 4z"/>
<path d="M2108 390 c15 -27 33 -50 40 -50 17 0 15 7 -9 41 -11 16 -17 29 -13
29 3 0 1 7 -6 15 -7 8 -19 15 -26 15 -10 0 -6 -14 14 -50z"/>
<path d="M4135 430 c-3 -5 -15 -10 -26 -10 -27 0 -24 -17 5 -22 15 -3 27 0 30
8 3 8 19 14 36 14 18 0 29 4 25 10 -3 6 -19 10 -35 10 -16 0 -32 -4 -35 -10z"/>
<path d="M1344 415 c-26 -19 -11 -31 16 -12 12 8 17 17 12 21 -5 3 -18 -1 -28
-9z"/>
<path d="M745 410 c3 -5 10 -10 16 -10 5 0 9 5 9 10 0 6 -7 10 -16 10 -8 0
-12 -4 -9 -10z"/>
<path d="M1630 375 c52 -53 64 -57 46 -13 -10 23 -25 36 -52 45 l-39 14 45
-46z"/>
<path d="M4340 415 c0 -13 53 -26 64 -15 6 6 6 10 1 11 -6 0 -22 3 -37 5 -16
3 -28 2 -28 -1z"/>
<path d="M85 390 c3 -5 15 -10 26 -10 10 0 19 5 19 10 0 6 -12 10 -26 10 -14
0 -23 -4 -19 -10z"/>
<path d="M831 374 c0 -11 3 -14 6 -6 3 7 2 16 -1 19 -3 4 -6 -2 -5 -13z"/>
<path d="M1880 379 c-34 -6 -33 -6 13 -8 46 -1 59 3 35 11 -7 2 -29 1 -48 -3z"/>
<path d="M2037 370 c3 -11 9 -22 13 -25 5 -3 6 4 3 15 -3 11 -9 22 -13 25 -5
3 -6 -4 -3 -15z"/>
<path d="M4273 378 c2 -7 10 -13 17 -13 7 0 15 6 18 13 2 7 -5 12 -18 12 -13
0 -20 -5 -17 -12z"/>
<path d="M767 360 c6 -22 23 -38 23 -21 0 17 -12 41 -20 41 -5 0 -6 -9 -3 -20z"/>
<path d="M2558 373 c12 -2 32 -2 45 0 12 2 2 4 -23 4 -25 0 -35 -2 -22 -4z"/>
<path d="M4015 370 c-3 -6 1 -7 9 -4 18 7 21 14 7 14 -6 0 -13 -4 -16 -10z"/>
<path d="M4220 369 c0 -5 5 -7 10 -4 6 3 10 8 10 11 0 2 -4 4 -10 4 -5 0 -10
-5 -10 -11z"/>
<path d="M3950 360 c0 -5 7 -10 15 -10 8 0 15 5 15 10 0 6 -7 10 -15 10 -8 0
-15 -4 -15 -10z"/>
<path d="M150 352 c0 -10 40 -42 93 -75 15 -10 27 -15 27 -13 0 10 -55 56 -67
56 -7 0 -13 4 -13 10 0 5 -9 14 -20 20 -11 6 -20 7 -20 2z"/>
<path d="M1270 352 c0 -4 -10 -12 -22 -17 -22 -10 -37 -35 -20 -35 11 0 62 43
62 53 0 4 -4 7 -10 7 -5 0 -10 -3 -10 -8z"/>
<path d="M1357 354 c-4 -4 -4 -10 -2 -14 6 -10 45 0 45 11 0 10 -33 12 -43 3z"/>
<path d="M1540 350 c0 -5 5 -10 10 -10 6 0 10 5 10 10 0 6 -4 10 -10 10 -5 0
-10 -4 -10 -10z"/>
<path d="M4162 348 c6 -18 65 -31 86 -19 14 8 9 10 -20 11 -21 0 -38 5 -38 10
0 6 -7 10 -16 10 -9 0 -14 -5 -12 -12z"/>
<path d="M391 332 c-7 -13 -11 -26 -8 -28 8 -8 29 25 25 38 -3 8 -9 4 -17 -10z"/>
<path d="M845 340 c-3 -5 -1 -10 4 -10 6 0 11 5 11 10 0 6 -2 10 -4 10 -3 0
-8 -4 -11 -10z"/>
<path d="M4076 335 c-3 -8 -17 -15 -31 -15 -14 0 -25 -5 -25 -11 0 -7 11 -9
31 -5 32 6 62 29 52 40 -10 10 -21 7 -27 -9z"/>
<path d="M1527 319 c-9 -6 -17 -18 -17 -27 0 -14 4 -13 22 6 24 24 22 36 -5
21z"/>
<path d="M1590 326 c0 -2 7 -6 15 -10 8 -3 15 -1 15 4 0 6 -7 10 -15 10 -8 0
-15 -2 -15 -4z"/>
<path d="M1840 317 c0 -21 42 -32 67 -18 16 9 14 10 -12 11 -17 0 -36 5 -43
12 -9 9 -12 8 -12 -5z"/>
<path d="M2389 325 c-9 -8 3 -75 12 -70 4 3 6 19 4 36 -4 33 -9 42 -16 34z"/>
<path d="M3955 320 c-9 -15 -1 -23 21 -18 15 3 16 4 1 16 -11 9 -17 10 -22 2z"/>
<path d="M1726 305 c25 -19 34 -19 34 0 0 10 -10 15 -27 15 -26 0 -26 -1 -7
-15z"/>
<path d="M860 298 c0 -12 106 -88 134 -96 14 -5 -40 47 -85 81 -40 30 -49 33
-49 15z"/>
<path d="M1630 301 c0 -5 7 -12 16 -15 14 -5 15 -4 4 9 -14 17 -20 19 -20 6z"/>
<path d="M802 283 c2 -10 11 -19 21 -21 24 -5 21 15 -4 28 -18 10 -20 9 -17
-7z"/>
<path d="M1948 292 c-10 -2 -15 -9 -11 -17 4 -11 10 -12 25 -4 19 10 41 1 59
-25 4 -4 10 -3 14 4 4 6 3 16 -2 21 -13 13 -65 26 -85 21z"/>
<path d="M2070 281 c0 -12 6 -21 16 -21 9 0 14 7 12 17 -5 25 -28 28 -28 4z"/>
<path d="M2495 285 c17 -7 48 -16 70 -19 27 -4 19 0 -25 14 -75 22 -88 24 -45
5z"/>
<path d="M1480 269 c0 -5 5 -7 10 -4 6 3 10 8 10 11 0 2 -4 4 -10 4 -5 0 -10
-5 -10 -11z"/>
<path d="M2140 270 c0 -5 5 -10 11 -10 7 0 9 -10 5 -25 -7 -26 0 -31 22 -17 9
7 10 15 3 35 -10 26 -41 38 -41 17z"/>
<path d="M280 252 c0 -4 12 -16 27 -27 14 -11 32 -26 39 -32 7 -7 17 -13 21
-13 5 0 25 -12 44 -26 19 -14 42 -30 52 -35 16 -9 17 -8 5 11 -7 11 -21 23
-30 26 -10 3 -18 10 -18 15 0 5 -5 9 -11 9 -12 0 -103 60 -107 72 -5 10 -22
11 -22 0z"/>
<path d="M1240 245 c-7 -9 -11 -18 -8 -20 3 -3 11 1 18 10 7 9 11 18 8 20 -3
3 -11 -1 -18 -10z"/>
<path d="M1680 248 c0 -18 18 -34 28 -24 3 4 -2 14 -11 23 -16 16 -17 16 -17
1z"/>
<path d="M1847 249 c-10 -6 -34 -8 -53 -5 -22 5 -34 3 -34 -4 0 -12 9 -16 64
-25 32 -5 38 -4 33 9 -5 11 1 18 21 22 45 10 48 12 17 13 -16 0 -38 -4 -48
-10z"/>
<path d="M1540 240 c-12 -8 -11 -10 7 -10 12 0 25 5 28 10 8 13 -15 13 -35 0z"/>
<path d="M2077 233 c-12 -11 -8 -23 8 -23 19 0 19 -13 -1 -51 -20 -39 -12 -47
22 -24 24 15 25 19 12 29 -13 9 -13 13 -2 24 11 10 11 16 1 32 -12 20 -28 25
-40 13z"/>
<path d="M1170 220 c0 -5 5 -10 10 -10 6 0 10 5 10 10 0 6 -4 10 -10 10 -5 0
-10 -4 -10 -10z"/>
<path d="M2190 205 c-14 -27 -13 -31 10 -37 17 -3 20 1 20 37 0 32 -13 32 -30
0z"/>
<path d="M930 215 c0 -12 44 -54 52 -49 5 3 -3 17 -17 30 -26 24 -35 29 -35
19z"/>
<path d="M1430 210 c0 -5 5 -10 10 -10 6 0 10 5 10 10 0 6 -4 10 -10 10 -5 0
-10 -4 -10 -10z"/>
<path d="M2030 205 c-6 -8 -32 -17 -56 -21 -51 -7 -62 -34 -15 -34 16 0 31 -6
34 -12 3 -8 9 -1 16 15 6 15 14 27 18 26 21 -3 33 2 33 15 0 22 -16 28 -30 11z"/>
<path d="M440 202 c0 -10 68 -38 83 -34 4 1 7 -6 7 -15 0 -15 1 -15 13 2 10
12 22 16 40 13 15 -3 27 -2 27 1 0 4 -28 12 -62 18 -35 6 -73 14 -85 18 -14 4
-23 3 -23 -3z"/>
<path d="M1396 192 c-3 -5 1 -9 9 -9 8 0 15 4 15 9 0 4 -4 8 -9 8 -6 0 -12 -4
-15 -8z"/>
<path d="M1000 185 c0 -2 10 -13 22 -25 12 -11 16 -20 10 -20 -7 0 -12 -5 -12
-11 0 -6 6 -9 13 -6 16 5 84 -48 92 -73 3 -10 19 -26 36 -34 35 -17 40 -5 5
14 -14 7 -22 18 -19 26 3 8 0 14 -6 14 -6 0 -38 27 -70 60 -54 55 -71 68 -71
55z"/>
<path d="M1215 180 c-3 -5 1 -10 9 -10 9 0 16 5 16 10 0 6 -4 10 -9 10 -6 0
-13 -4 -16 -10z"/>
<path d="M1555 183 c-58 -7 -75 -14 -75 -29 0 -10 6 -13 18 -10 9 3 40 10 67
15 42 8 52 7 62 -6 11 -15 13 -15 19 0 13 34 -7 41 -91 30z"/>
<path d="M1690 181 c0 -26 15 -41 39 -41 20 0 22 3 11 9 -8 6 -17 8 -21 5 -4
-2 -11 1 -15 7 -3 6 0 15 7 20 11 7 10 9 -3 9 -10 0 -18 -4 -18 -9z"/>
<path d="M1805 180 c-3 -5 1 -10 9 -10 9 0 16 5 16 10 0 6 -4 10 -9 10 -6 0
-13 -4 -16 -10z"/>
<path d="M1300 156 c0 -8 5 -18 10 -21 6 -3 10 3 10 14 0 12 -4 21 -10 21 -5
0 -10 -6 -10 -14z"/>
<path d="M2565 160 c3 -5 11 -10 16 -10 6 0 7 5 4 10 -3 6 -11 10 -16 10 -6 0
-7 -4 -4 -10z"/>
<path d="M1865 150 c-3 -5 -14 -10 -23 -10 -9 0 -29 -7 -44 -14 -16 -8 -36
-15 -45 -15 -25 0 -93 -24 -93 -33 0 -5 9 -8 20 -9 57 -3 65 -2 62 11 -2 9 5
11 28 7 22 -5 30 -3 30 8 0 8 7 15 15 15 8 0 15 -5 15 -11 0 -6 14 1 31 15 17
14 35 26 40 26 5 0 9 5 9 10 0 6 -9 10 -19 10 -11 0 -23 -4 -26 -10z"/>
<path d="M2160 150 c0 -5 7 -10 15 -10 8 0 15 5 15 10 0 6 -7 10 -15 10 -8 0
-15 -4 -15 -10z"/>
<path d="M1195 130 c-8 -13 20 -24 36 -15 8 6 7 10 -2 16 -18 11 -26 11 -34
-1z"/>
<path d="M2030 125 c-10 -12 -10 -15 3 -15 19 0 31 16 18 24 -5 3 -14 -1 -21
-9z"/>
<path d="M498 105 c3 -20 7 -23 18 -14 10 8 22 3 53 -21 22 -18 44 -29 50 -26
5 4 12 2 16 -4 3 -5 11 -10 17 -10 7 0 6 6 -2 15 -7 8 -18 15 -25 15 -6 0 -20
9 -30 20 -10 11 -26 20 -35 20 -9 0 -25 7 -36 15 -27 20 -32 19 -26 -10z"/>
<path d="M1337 124 c-3 -4 0 -12 7 -20 11 -10 21 -10 54 -1 22 7 44 16 48 20
12 11 -33 8 -61 -5 -21 -9 -28 -9 -34 0 -4 7 -10 9 -14 6z"/>
<path d="M2137 123 c-10 -9 -9 -23 2 -23 5 0 11 7 15 15 5 15 -5 20 -17 8z"/>
<path d="M2205 107 c4 -13 7 -32 9 -42 2 -10 8 -21 15 -23 8 -3 10 4 6 20 -3
12 -7 33 -8 46 0 12 -7 22 -14 22 -9 0 -11 -8 -8 -23z"/>
<path d="M1465 110 c3 -5 15 -10 25 -10 25 0 109 -40 132 -63 19 -18 54 -24
43 -7 -3 6 -13 10 -22 10 -9 0 -13 6 -9 15 3 8 3 22 -1 31 -5 13 -7 13 -14 2
-7 -10 -12 -11 -29 0 -11 6 -29 12 -39 12 -11 0 -23 5 -26 10 -3 6 -20 10 -36
10 -18 0 -28 -4 -24 -10z"/>
<path d="M1932 88 c-4 -4 -23 -9 -42 -11 -19 -2 -42 -7 -50 -10 -8 -3 -27 -8
-42 -11 -39 -9 -36 -32 5 -31 17 0 35 -4 38 -8 4 -5 15 -7 25 -4 17 4 17 6 -3
12 -13 4 -23 11 -23 15 0 11 30 21 41 14 6 -3 17 0 25 7 13 10 17 10 25 -2 7
-11 9 -11 9 0 0 9 8 11 25 7 19 -5 25 -2 25 10 0 10 5 14 15 11 8 -4 17 -2 20
4 7 11 -82 8 -93 -3z m-107 -48 c3 -5 -1 -10 -10 -10 -9 0 -13 5 -10 10 3 6 8
10 10 10 2 0 7 -4 10 -10z"/>
<path d="M2041 69 c-18 -16 -31 -33 -27 -36 3 -3 14 4 25 15 10 12 23 22 30
22 6 0 11 7 11 15 0 20 0 20 -39 -16z"/>
<path d="M2147 64 c-4 -22 -3 -23 24 -8 35 18 36 20 5 26 -19 4 -25 0 -29 -18z"/>
<path d="M320 56 c0 -9 5 -16 10 -16 6 0 10 4 10 9 0 6 -4 13 -10 16 -5 3 -10
-1 -10 -9z"/>
<path d="M1293 60 c-13 -5 -23 -12 -23 -15 0 -11 37 -4 56 10 22 17 4 20 -33
5z"/>
<path d="M1180 45 c7 -8 20 -15 28 -15 13 0 12 3 -4 15 -25 19 -40 19 -24 0z"/>
<path d="M2100 50 c-13 -8 -12 -12 5 -29 14 -15 24 -18 35 -11 13 8 12 10 -2
10 -16 0 -23 11 -19 33 1 9 -1 9 -19 -3z"/>
<path d="M1323 33 c-7 -2 -13 -8 -13 -13 0 -10 38 -1 46 11 6 10 -13 11 -33 2z"/>
<path d="M1730 20 c6 -11 13 -20 15 -20 3 0 5 9 5 20 0 11 -7 20 -15 20 -13 0
-14 -4 -5 -20z"/>
<path d="M2041 33 c-1 -18 19 -27 32 -13 9 10 8 12 -5 7 -9 -3 -19 -1 -22 6
-3 9 -5 9 -5 0z"/>
<path d="M2160 30 c0 -5 4 -10 9 -10 6 0 13 5 16 10 3 6 -1 10 -9 10 -9 0 -16
-4 -16 -10z"/>
<path d="M370 16 c0 -9 5 -16 10 -16 6 0 10 4 10 9 0 6 -4 13 -10 16 -5 3 -10
-1 -10 -9z"/>
<path d="M1926 15 c-3 -9 0 -15 9 -15 8 0 15 7 15 15 0 8 -4 15 -9 15 -5 0
-11 -7 -15 -15z"/>
<path d="M1220 9 c0 -5 5 -7 10 -4 6 3 10 8 10 11 0 2 -4 4 -10 4 -5 0 -10 -5
-10 -11z"/>
<path d="M1430 10 l-25 -8 28 -1 c15 -1 27 4 27 9 0 6 -1 10 -2 9 -2 -1 -14
-5 -28 -9z"/>
<path d="M1490 10 c0 -5 4 -10 9 -10 6 0 13 5 16 10 3 6 -1 10 -9 10 -9 0 -16
-4 -16 -10z"/>
<path d="M1585 10 c4 -6 11 -8 16 -5 14 9 11 15 -7 15 -8 0 -12 -5 -9 -10z"/>
<path d="M1680 10 c0 -5 5 -10 10 -10 6 0 10 5 10 10 0 6 -4 10 -10 10 -5 0
-10 -4 -10 -10z"/>
<path d="M1980 9 c0 -5 5 -7 10 -4 6 3 10 8 10 11 0 2 -4 4 -10 4 -5 0 -10 -5
-10 -11z"/>
<path d="M2195 10 c-3 -5 -2 -10 4 -10 5 0 13 5 16 10 3 6 2 10 -4 10 -5 0
-13 -4 -16 -10z"/>
</g>
</svg>
