<?xml version="1.0" standalone="no"?>
<!DOCTYPE svg PUBLIC "-//W3C//DTD SVG 20010904//EN"
 "http://www.w3.org/TR/2001/REC-SVG-20010904/DTD/svg10.dtd">
<svg version="1.0" xmlns="http://www.w3.org/2000/svg"
 width="512.000000pt" height="768.000000pt" viewBox="0 0 512.000000 768.000000"
 preserveAspectRatio="xMidYMid meet">
<metadata>
Created by potrace 1.16, written by Peter Selinger 2001-2019
</metadata>
<g transform="translate(0.000000,768.000000) scale(0.100000,-0.100000)"
fill="#000000" stroke="none">
<path d="M2349 7608 c-2 -340 3 -664 10 -677 7 -10 9 -10 13 1 5 11 4 720 0
741 -1 4 -6 7 -12 7 -6 0 -10 -31 -11 -72z"/>
<path d="M2671 7658 c-10 -26 -5 -41 11 -32 6 4 8 2 4 -4 -6 -10 -11 -101 -6
-112 2 -3 4 -147 6 -320 2 -173 4 -317 5 -320 8 -19 15 175 17 468 3 305 1
342 -13 342 -9 0 -19 -10 -24 -22z"/>
<path d="M1800 7590 c0 -5 5 -10 10 -10 6 0 10 5 10 10 0 6 -4 10 -10 10 -5 0
-10 -4 -10 -10z"/>
<path d="M1772 7565 c4 -18 1 -25 -11 -26 -10 0 -12 -2 -3 -6 15 -6 16 -35 0
-51 -9 -9 -8 -12 5 -12 16 0 16 -4 2 -45 -4 -11 -6 -113 -5 -226 l1 -205 -69
-150 c-38 -82 -91 -203 -116 -269 -26 -66 -68 -163 -94 -215 -25 -52 -45 -98
-44 -103 1 -4 -4 -23 -12 -42 -8 -19 -13 -35 -11 -35 3 0 0 -12 -6 -26 -5 -15
-12 -43 -15 -63 l-5 -36 14 30 c8 17 22 55 32 85 22 66 161 364 292 624 l96
189 -7 256 c-3 141 -7 264 -7 274 0 13 -5 17 -16 12 -14 -5 -14 -3 2 15 17 19
17 20 0 20 -11 0 -15 5 -11 15 3 8 0 15 -5 15 -7 0 -9 -11 -7 -25z"/>
<path d="M3195 7580 c-3 -5 -1 -10 4 -10 6 0 11 5 11 10 0 6 -2 10 -4 10 -3 0
-8 -4 -11 -10z"/>
<path d="M3191 7518 c0 -22 1 -22 9 -3 9 22 11 20 15 -12 1 -13 -4 -23 -15
-26 -15 -4 -16 -48 -19 -524 -2 -365 1 -523 8 -528 14 -8 14 -55 0 -55 -22 0
-3 -33 21 -37 14 -1 20 0 14 4 -16 12 -15 273 2 273 14 0 14 -106 0 -129 -6
-9 -5 -12 1 -8 12 8 12 -181 0 -200 -4 -6 -3 -14 3 -18 5 -3 10 -11 10 -16 0
-6 -6 -7 -12 -3 -10 6 -10 5 -1 -7 16 -21 21 -129 6 -129 -7 0 -13 -5 -13 -11
0 -5 5 -7 10 -4 6 3 10 -3 10 -14 0 -12 5 -21 10 -21 6 0 10 105 11 293 0 555
-2 852 -7 887 -3 19 -6 65 -8 102 -1 37 -5 70 -9 74 -11 11 -8 26 3 19 6 -3
10 1 10 9 0 8 -5 18 -10 21 -6 4 -9 23 -8 43 3 32 0 37 -19 40 -18 3 -23 -1
-22 -20z m22 -95 c-10 -26 -19 -12 -15 19 4 28 6 30 12 13 4 -11 5 -26 3 -32z
m7 -33 c0 -5 -5 -10 -11 -10 -5 0 -7 5 -4 10 3 6 8 10 11 10 2 0 4 -4 4 -10z
m8 -333 c2 -72 4 -201 5 -285 2 -101 -1 -151 -8 -149 -6 2 -11 108 -12 298 -2
162 1 288 5 281 5 -7 9 -72 10 -145z"/>
<path d="M1930 7419 c0 -5 5 -7 10 -4 6 3 10 8 10 11 0 2 -4 4 -10 4 -5 0 -10
-5 -10 -11z"/>
<path d="M2650 7345 c0 -8 4 -15 10 -15 5 0 7 7 4 15 -4 8 -8 15 -10 15 -2 0
-4 -7 -4 -15z"/>
<path d="M2651 7284 c0 -11 3 -14 6 -6 3 7 2 16 -1 19 -3 4 -6 -2 -5 -13z"/>
<path d="M2166 6973 c-6 -14 -5 -15 5 -6 7 7 10 15 7 18 -3 3 -9 -2 -12 -12z"/>
<path d="M1810 6903 c-6 -38 -6 -452 0 -533 6 -69 8 -47 9 110 1 107 2 248 3
313 1 107 -4 154 -12 110z"/>
<path d="M1545 6900 c3 -5 8 -10 11 -10 2 0 4 5 4 10 0 6 -5 10 -11 10 -5 0
-7 -4 -4 -10z"/>
<path d="M2362 6865 c4 -4 3 -14 -4 -22 -8 -11 -8 -17 2 -26 10 -10 12 -9 7 4
-3 9 -1 21 5 27 6 6 5 12 -4 17 -7 5 -10 5 -6 0z"/>
<path d="M2680 6850 c0 -5 5 -10 11 -10 5 0 7 5 4 10 -3 6 -8 10 -11 10 -2 0
-4 -4 -4 -10z"/>
<path d="M2036 6813 c-6 -14 -5 -15 5 -6 7 7 10 15 7 18 -3 3 -9 -2 -12 -12z"/>
<path d="M1755 6781 c-3 -6 0 -11 7 -11 7 0 2 -9 -11 -19 -13 -10 -19 -21 -14
-24 6 -4 9 -19 7 -34 -3 -23 -6 -755 -5 -925 1 -27 4 -48 9 -48 4 0 8 53 9
118 1 64 4 243 7 397 11 563 11 577 -9 546z"/>
<path d="M3811 6774 c0 -11 3 -14 6 -6 3 7 2 16 -1 19 -3 4 -6 -2 -5 -13z"/>
<path d="M1490 6769 c0 -5 5 -7 10 -4 6 3 10 8 10 11 0 2 -4 4 -10 4 -5 0 -10
-5 -10 -11z"/>
<path d="M1297 6757 c-3 -8 -1 -20 4 -28 6 -10 9 -7 9 14 0 29 -5 35 -13 14z"/>
<path d="M3810 6721 c0 -6 4 -13 10 -16 6 -3 7 1 4 9 -7 18 -14 21 -14 7z"/>
<path d="M1297 6680 c-3 -11 -1 -20 4 -20 5 0 9 9 9 20 0 11 -2 20 -4 20 -2 0
-6 -9 -9 -20z"/>
<path d="M3810 6655 c0 -8 2 -15 4 -15 2 0 6 7 10 15 3 8 1 15 -4 15 -6 0 -10
-7 -10 -15z"/>
<path d="M1289 6418 c0 -128 -1 -662 -2 -1186 l-2 -953 91 2 c81 2 95 0 120
-19 16 -13 61 -46 99 -75 l70 -52 132 -5 133 -5 -53 -43 c-50 -41 -54 -43
-104 -38 -76 9 -103 21 -103 49 0 16 -19 37 -70 75 -38 29 -70 49 -70 44 0 -5
14 -18 30 -30 31 -23 40 -44 18 -41 -7 1 -28 -2 -46 -6 -30 -7 -32 -9 -18 -23
14 -14 17 -14 33 0 30 25 53 29 84 13 23 -13 28 -19 20 -33 -5 -9 -15 -17 -23
-18 -7 0 -21 -2 -31 -2 -10 -1 -15 -7 -12 -12 3 -6 17 -7 30 -4 13 3 39 1 58
-5 19 -7 60 -16 92 -21 32 -5 61 -13 64 -17 19 -25 301 -227 301 -215 0 4 -10
15 -23 24 -41 31 -153 112 -216 158 -53 38 -60 46 -45 55 40 24 137 101 133
107 -6 8 30 46 66 70 17 12 11 4 -15 -20 -25 -23 -41 -41 -37 -42 14 0 97 72
92 80 -2 4 5 16 18 26 l22 19 -19 -22 c-29 -35 -6 -26 39 14 27 24 33 33 19
29 -20 -6 -21 -2 -27 130 -4 76 -7 247 -7 381 l0 245 42 -31 c42 -31 68 -39
68 -22 0 5 -12 17 -27 26 -16 10 -40 29 -55 43 l-28 26 0 310 1 311 92 83 c51
45 144 131 207 192 l115 109 115 -112 c63 -62 152 -147 198 -190 l82 -78 0
-721 -1 -722 72 -53 c39 -29 92 -74 118 -99 73 -74 160 -120 175 -95 4 5 -7
12 -22 16 -28 6 -142 72 -142 82 0 2 89 3 198 2 176 -2 200 -1 225 16 15 10
25 20 22 23 -3 3 -19 -4 -35 -17 -17 -12 -30 -17 -30 -12 0 12 69 68 140 113
30 19 77 49 104 67 50 32 101 42 93 19 -2 -7 -11 -12 -20 -10 -10 2 -15 -2
-12 -10 3 -8 -27 -35 -73 -67 -42 -30 -149 -107 -237 -170 -88 -64 -178 -128
-200 -143 -63 -44 -129 -91 -161 -116 -16 -12 -38 -29 -49 -38 -45 -34 31 9
105 61 215 149 429 302 545 388 l130 97 3 -192 c2 -181 1 -194 -17 -208 -11
-8 -21 -25 -23 -37 -2 -16 -62 -64 -213 -169 -415 -290 -569 -395 -592 -400
-30 -8 -30 -24 0 -24 17 0 28 -11 44 -43 32 -66 68 -103 162 -167 47 -32 176
-124 286 -204 272 -197 305 -220 311 -214 7 8 -7 38 -19 38 -6 0 -17 7 -26 15
-9 8 -28 25 -42 39 -14 13 -36 27 -47 31 -12 3 -20 10 -18 14 3 4 -1 8 -8 8
-11 0 -72 38 -86 53 -3 3 -21 17 -40 30 -19 13 -43 33 -53 44 -10 12 -16 15
-12 8 4 -7 -13 2 -38 20 -24 18 -42 36 -40 41 3 4 1 6 -4 5 -12 -3 -113 62
-113 73 0 5 -3 8 -7 7 -11 -4 -134 82 -155 107 -10 11 -17 25 -18 31 0 6 -10
24 -21 39 l-22 27 27 26 c19 20 30 24 41 17 222 -154 241 -165 275 -165 69 1
68 -4 69 222 l1 157 170 -6 170 -6 0 140 c0 136 1 140 25 161 14 12 25 31 25
43 0 11 4 18 9 15 11 -7 30 39 32 79 0 17 1 101 0 188 l-1 158 -39 17 -40 17
-4 135 c-2 74 -4 387 -4 695 0 975 -4 1325 -14 1325 -6 0 -10 -26 -9 -57 1
-32 1 -483 2 -1003 0 -520 1 -976 1 -1015 1 -41 -2 -70 -8 -70 -11 -1 -63 -33
-83 -52 -8 -7 -18 -11 -23 -8 -5 4 -9 1 -9 -6 0 -7 -3 -9 -6 -6 -4 3 -25 -9
-47 -28 -22 -19 -47 -35 -54 -35 -7 0 -13 -3 -13 -8 0 -4 -9 -13 -21 -20 -15
-10 -19 -10 -14 -1 5 8 4 10 -3 5 -7 -4 -12 -12 -12 -17 0 -6 -7 -18 -16 -26
-13 -13 -44 -16 -174 -17 -165 -1 -161 -2 -236 48 -55 37 -66 49 -52 58 8 5 3
6 -12 3 -19 -5 -31 0 -48 20 -21 24 -22 34 -22 190 0 91 4 165 9 165 4 0 22
-5 40 -11 l31 -11 0 -141 c0 -77 2 -138 5 -135 3 3 6 66 8 141 2 150 -1 158
-66 172 l-27 7 0 539 1 539 -92 87 c-165 158 -229 224 -229 235 0 6 -3 8 -6 5
-4 -4 -21 8 -38 26 -24 25 -37 31 -57 27 -17 -3 -91 -67 -195 -166 -93 -89
-184 -174 -202 -190 l-33 -29 1 -723 c0 -490 -3 -721 -10 -717 -5 3 -10 2 -10
-3 0 -5 -19 -23 -43 -40 -23 -17 -59 -47 -81 -66 l-39 -34 -114 0 c-82 0 -118
4 -127 14 -8 7 -17 10 -21 6 -4 -4 -17 5 -28 19 -27 33 -123 100 -131 92 -3
-4 -6 1 -6 10 0 14 -13 15 -95 12 l-95 -5 -1 823 c0 452 -1 863 -1 912 0 50 0
128 0 175 2 244 -2 440 -10 440 -4 0 -8 -105 -9 -232z m2520 -2723 c1 -103 -1
-115 -16 -116 -10 0 -37 -2 -61 -4 -30 -2 -40 0 -35 8 4 8 2 8 -9 0 -8 -7 -17
-11 -19 -8 -3 2 -45 5 -93 7 l-88 2 28 23 c16 13 35 23 42 23 6 0 12 5 12 12
0 6 3 9 6 5 3 -3 18 5 32 18 14 13 29 22 34 19 4 -3 8 0 8 5 0 6 8 11 17 11 9
0 13 3 10 6 -5 5 111 97 129 104 1 0 2 -52 3 -115z m-342 -299 c1 -89 -2 -167
-6 -175 -11 -17 -71 -17 -81 -1 -4 7 -11 12 -16 12 -20 1 -34 11 -34 24 0 8
-3 13 -7 12 -5 -1 -21 6 -38 17 -16 10 -49 30 -71 45 l-42 26 31 25 c17 13 37
23 45 21 8 -2 11 1 7 7 -3 6 0 11 7 11 7 0 19 9 26 20 7 11 18 20 25 20 7 0
25 11 40 26 16 14 33 22 40 18 6 -4 9 -4 5 0 -8 9 39 53 56 53 7 0 12 -53 13
-161z"/>
<path d="M3810 6582 c0 -29 4 -52 10 -52 6 0 7 19 3 48 -8 64 -13 66 -13 4z"/>
<path d="M3355 6460 c3 -5 8 -10 11 -10 2 0 4 5 4 10 0 6 -5 10 -11 10 -5 0
-7 -4 -4 -10z"/>
<path d="M3181 6404 c0 -11 3 -14 6 -6 3 7 2 16 -1 19 -3 4 -6 -2 -5 -13z"/>
<path d="M3193 6313 c-20 -7 -15 -22 6 -20 11 0 17 6 14 14 -3 7 -6 13 -7 12
0 0 -7 -3 -13 -6z"/>
<path d="M1605 6289 c-4 -6 -5 -12 -2 -15 2 -3 7 2 10 11 7 17 1 20 -8 4z"/>
<path d="M1812 6255 c0 -16 2 -22 5 -12 2 9 2 23 0 30 -3 6 -5 -1 -5 -18z"/>
<path d="M3201 6264 c0 -11 3 -14 6 -6 3 7 2 16 -1 19 -3 4 -6 -2 -5 -13z"/>
<path d="M1807 6200 c-3 -11 -1 -20 4 -20 5 0 9 9 9 20 0 11 -2 20 -4 20 -2 0
-6 -9 -9 -20z"/>
<path d="M3196 6211 c-3 -5 1 -11 9 -14 9 -4 12 -1 8 9 -6 16 -10 17 -17 5z"/>
<path d="M2530 6053 c-5 -548 3 -2540 10 -2547 6 -6 15 -4 25 4 15 13 16 115
10 1274 -5 813 -11 1265 -17 1274 -15 17 -28 15 -28 -5z"/>
<path d="M3237 6034 c-8 -8 1 -24 14 -24 5 0 9 7 9 15 0 15 -12 20 -23 9z"/>
<path d="M3234 5994 c3 -8 6 -21 6 -27 0 -7 4 -6 10 3 14 21 12 27 -6 34 -12
5 -15 2 -10 -10z"/>
<path d="M1366 5973 c-6 -14 -5 -15 5 -6 7 7 10 15 7 18 -3 3 -9 -2 -12 -12z"/>
<path d="M3720 5961 c0 -6 4 -13 10 -16 6 -3 7 1 4 9 -7 18 -14 21 -14 7z"/>
<path d="M3245 5920 c3 -5 8 -10 11 -10 2 0 4 5 4 10 0 6 -5 10 -11 10 -5 0
-7 -4 -4 -10z"/>
<path d="M4542 5860 c0 -14 2 -19 5 -12 2 6 2 18 0 25 -3 6 -5 1 -5 -13z"/>
<path d="M4608 5795 c-6 -30 -3 -43 8 -33 3 4 4 19 2 35 l-3 28 -7 -30z"/>
<path d="M3240 5799 c0 -5 5 -7 10 -4 6 3 10 8 10 11 0 2 -4 4 -10 4 -5 0 -10
-5 -10 -11z"/>
<path d="M2236 5751 c-4 -7 -5 -15 -2 -18 9 -9 19 4 14 18 -4 11 -6 11 -12 0z"/>
<path d="M4481 5744 c0 -11 3 -14 6 -6 3 7 2 16 -1 19 -3 4 -6 -2 -5 -13z"/>
<path d="M2230 5381 c0 -218 4 -341 10 -341 13 0 13 667 0 675 -7 4 -10 -113
-10 -334z"/>
<path d="M4608 5662 c5 -75 12 -81 11 -8 -1 31 -5 58 -8 61 -4 2 -5 -22 -3
-53z"/>
<path d="M1740 5639 c0 -40 2 -70 5 -67 10 10 13 128 4 134 -5 3 -9 -27 -9
-67z"/>
<path d="M431 5684 c0 -11 3 -14 6 -6 3 7 2 16 -1 19 -3 4 -6 -2 -5 -13z"/>
<path d="M4531 5684 c0 -11 3 -14 6 -6 3 7 2 16 -1 19 -3 4 -6 -2 -5 -13z"/>
<path d="M4532 5630 c0 -19 2 -27 5 -17 2 9 2 25 0 35 -3 9 -5 1 -5 -18z"/>
<path d="M4391 5634 c0 -11 3 -14 6 -6 3 7 2 16 -1 19 -3 4 -6 -2 -5 -13z"/>
<path d="M2701 5624 c0 -11 3 -14 6 -6 3 7 2 16 -1 19 -3 4 -6 -2 -5 -13z"/>
<path d="M495 5621 c-3 -5 -1 -12 5 -16 5 -3 10 1 10 9 0 18 -6 21 -15 7z"/>
<path d="M422 5590 c0 -19 2 -27 5 -17 2 9 2 25 0 35 -3 9 -5 1 -5 -18z"/>
<path d="M4391 5594 c0 -11 3 -14 6 -6 3 7 2 16 -1 19 -3 4 -6 -2 -5 -13z"/>
<path d="M1451 5584 c0 -11 3 -14 6 -6 3 7 2 16 -1 19 -3 4 -6 -2 -5 -13z"/>
<path d="M4603 4903 c0 -706 3 -823 17 -823 5 0 8 119 7 265 -1 146 -6 265
-10 265 -5 0 -5 10 -2 21 4 12 7 108 7 213 -1 105 -1 316 -2 469 0 152 -4 277
-8 277 -5 0 -9 -309 -9 -687z"/>
<path d="M490 5569 c0 -5 5 -7 10 -4 6 3 10 8 10 11 0 2 -4 4 -10 4 -5 0 -10
-5 -10 -11z"/>
<path d="M2701 5564 c0 -11 3 -14 6 -6 3 7 2 16 -1 19 -3 4 -6 -2 -5 -13z"/>
<path d="M4482 5560 c0 -14 2 -19 5 -12 2 6 2 18 0 25 -3 6 -5 1 -5 -13z"/>
<path d="M1741 5544 c0 -11 3 -14 6 -6 3 7 2 16 -1 19 -3 4 -6 -2 -5 -13z"/>
<path d="M488 5448 c-7 -206 -6 -874 1 -893 4 -10 9 209 10 488 1 279 0 507
-3 507 -2 0 -6 -46 -8 -102z"/>
<path d="M408 5378 c-7 -296 -4 -964 2 -888 4 41 8 291 9 554 1 264 4 483 7
488 3 4 1 8 -5 8 -6 0 -11 -62 -13 -162z"/>
<path d="M4532 5515 c0 -16 2 -22 5 -12 2 9 2 23 0 30 -3 6 -5 -1 -5 -18z"/>
<path d="M342 5480 c0 -14 2 -19 5 -12 2 6 2 18 0 25 -3 6 -5 1 -5 -13z"/>
<path d="M611 5474 c0 -11 3 -14 6 -6 3 7 2 16 -1 19 -3 4 -6 -2 -5 -13z"/>
<path d="M343 5405 c0 -27 2 -38 4 -22 2 15 2 37 0 50 -2 12 -4 0 -4 -28z"/>
<path d="M4401 5414 c0 -11 3 -14 6 -6 3 7 2 16 -1 19 -3 4 -6 -2 -5 -13z"/>
<path d="M4492 5410 c0 -14 2 -19 5 -12 2 6 2 18 0 25 -3 6 -5 1 -5 -13z"/>
<path d="M1819 5403 c-1 -4 0 -12 1 -18 1 -5 3 -136 5 -290 4 -337 7 -387 14
-285 3 41 6 192 6 334 0 199 -3 260 -12 263 -7 3 -14 1 -14 -4z"/>
<path d="M4530 5400 c0 -5 5 -10 10 -10 6 0 10 5 10 10 0 6 -4 10 -10 10 -5 0
-10 -4 -10 -10z"/>
<path d="M4401 5364 c0 -11 3 -14 6 -6 3 7 2 16 -1 19 -3 4 -6 -2 -5 -13z"/>
<path d="M4492 5355 c0 -16 2 -22 5 -12 2 9 2 23 0 30 -3 6 -5 -1 -5 -18z"/>
<path d="M4534 5359 c-3 -6 -1 -16 5 -22 8 -8 11 -5 11 11 0 24 -5 28 -16 11z"/>
<path d="M4682 5335 c0 -16 2 -22 5 -12 2 9 2 23 0 30 -3 6 -5 -1 -5 -18z"/>
<path d="M572 5295 c0 -16 2 -22 5 -12 2 9 2 23 0 30 -3 6 -5 -1 -5 -18z"/>
<path d="M4490 5147 c0 -97 4 -177 8 -177 8 0 4 340 -4 349 -2 2 -4 -75 -4
-172z"/>
<path d="M4540 5318 c-9 -65 -16 -967 -8 -962 4 3 8 -17 10 -43 2 -27 4 189 6
480 1 290 0 527 -3 527 -3 0 -5 -1 -5 -2z"/>
<path d="M4681 5284 c0 -11 3 -14 6 -6 3 7 2 16 -1 19 -3 4 -6 -2 -5 -13z"/>
<path d="M4682 5240 c0 -14 2 -19 5 -12 2 6 2 18 0 25 -3 6 -5 1 -5 -13z"/>
<path d="M562 5170 c0 -14 2 -19 5 -12 2 6 2 18 0 25 -3 6 -5 1 -5 -13z"/>
<path d="M4682 5165 c0 -16 2 -22 5 -12 2 9 2 23 0 30 -3 6 -5 -1 -5 -18z"/>
<path d="M333 5065 c0 -22 2 -30 4 -17 2 12 2 30 0 40 -3 9 -5 -1 -4 -23z"/>
<path d="M558 5065 c-2 -19 0 -35 4 -35 4 0 8 16 8 35 0 19 -2 35 -4 35 -2 0
-6 -16 -8 -35z"/>
<path d="M4743 5060 c0 -25 2 -35 4 -22 2 12 2 32 0 45 -2 12 -4 2 -4 -23z"/>
<path d="M332 4990 c0 -19 2 -27 5 -17 2 9 2 25 0 35 -3 9 -5 1 -5 -18z"/>
<path d="M559 4998 c0 -13 -2 -38 -3 -56 -2 -18 -1 -34 3 -36 3 -3 8 22 9 55
2 32 1 59 -2 59 -3 0 -6 -10 -7 -22z"/>
<path d="M2228 4630 c-2 -187 0 -340 5 -340 4 0 7 48 7 108 0 59 3 212 5 340
4 150 2 232 -5 232 -6 0 -10 -124 -12 -340z"/>
<path d="M4490 4931 c0 -17 4 -31 9 -31 5 0 9 11 9 25 0 14 -4 28 -9 31 -5 3
-9 -9 -9 -25z"/>
<path d="M329 4918 c0 -18 -2 -46 -3 -61 -1 -15 1 -32 4 -37 4 -6 7 21 8 60 1
38 0 70 -3 70 -3 0 -5 -15 -6 -32z"/>
<path d="M4041 4924 c0 -11 3 -14 6 -6 3 7 2 16 -1 19 -3 4 -6 -2 -5 -13z"/>
<path d="M4741 4914 c0 -11 3 -14 6 -6 3 7 2 16 -1 19 -3 4 -6 -2 -5 -13z"/>
<path d="M4490 4862 c0 -18 4 -32 8 -32 9 0 8 47 -1 57 -4 3 -7 -8 -7 -25z"/>
<path d="M4742 4865 c0 -16 2 -22 5 -12 2 9 2 23 0 30 -3 6 -5 -1 -5 -18z"/>
<path d="M4682 4855 c0 -16 2 -22 5 -12 2 9 2 23 0 30 -3 6 -5 -1 -5 -18z"/>
<path d="M550 4835 c0 -14 2 -25 4 -25 2 0 6 11 8 25 3 14 1 25 -3 25 -5 0 -9
-11 -9 -25z"/>
<path d="M4073 4805 c0 -22 2 -30 4 -17 2 12 2 30 0 40 -3 9 -5 -1 -4 -23z"/>
<path d="M4736 4814 c-3 -9 -2 -23 4 -32 7 -14 9 -10 10 16 0 35 -5 41 -14 16z"/>
<path d="M4678 4766 c-7 -39 -4 -55 8 -44 3 3 4 23 2 44 l-3 39 -7 -39z"/>
<path d="M4111 4764 c0 -11 3 -14 6 -6 3 7 2 16 -1 19 -3 4 -6 -2 -5 -13z"/>
<path d="M4491 4764 c0 -11 3 -14 6 -6 3 7 2 16 -1 19 -3 4 -6 -2 -5 -13z"/>
<path d="M4742 4730 c0 -19 2 -27 5 -17 2 9 2 25 0 35 -3 9 -5 1 -5 -18z"/>
<path d="M331 4734 c0 -11 3 -14 6 -6 3 7 2 16 -1 19 -3 4 -6 -2 -5 -13z"/>
<path d="M1833 4675 c0 -33 2 -45 4 -27 2 18 2 45 0 60 -2 15 -4 0 -4 -33z"/>
<path d="M331 4694 c0 -11 3 -14 6 -6 3 7 2 16 -1 19 -3 4 -6 -2 -5 -13z"/>
<path d="M4743 4630 c0 -36 2 -50 4 -32 2 17 2 47 0 65 -2 17 -4 3 -4 -33z"/>
<path d="M4675 4660 c2 -31 15 -37 15 -7 0 15 -4 27 -8 27 -5 0 -8 -9 -7 -20z"/>
<path d="M4812 4655 c0 -16 2 -22 5 -12 2 9 2 23 0 30 -3 6 -5 -1 -5 -18z"/>
<path d="M5001 4664 c0 -11 3 -14 6 -6 3 7 2 16 -1 19 -3 4 -6 -2 -5 -13z"/>
<path d="M272 4630 c0 -14 2 -19 5 -12 2 6 2 18 0 25 -3 6 -5 1 -5 -13z"/>
<path d="M2901 4624 c0 -11 3 -14 6 -6 3 7 2 16 -1 19 -3 4 -6 -2 -5 -13z"/>
<path d="M4452 4610 c0 -14 2 -19 5 -12 2 6 2 18 0 25 -3 6 -5 1 -5 -13z"/>
<path d="M331 4594 c0 -11 3 -14 6 -6 3 7 2 16 -1 19 -3 4 -6 -2 -5 -13z"/>
<path d="M552 4590 c0 -14 2 -19 5 -12 2 6 2 18 0 25 -3 6 -5 1 -5 -13z"/>
<path d="M4811 4574 c0 -11 3 -14 6 -6 3 7 2 16 -1 19 -3 4 -6 -2 -5 -13z"/>
<path d="M333 4535 c0 -22 2 -30 4 -17 2 12 2 30 0 40 -3 9 -5 -1 -4 -23z"/>
<path d="M4455 4550 c3 -5 8 -10 11 -10 2 0 4 5 4 10 0 6 -5 10 -11 10 -5 0
-7 -4 -4 -10z"/>
<path d="M4811 4534 c0 -11 3 -14 6 -6 3 7 2 16 -1 19 -3 4 -6 -2 -5 -13z"/>
<path d="M4670 4515 c0 -8 4 -15 10 -15 5 0 7 7 4 15 -4 8 -8 15 -10 15 -2 0
-4 -7 -4 -15z"/>
<path d="M4812 4480 c0 -19 2 -27 5 -17 2 9 2 25 0 35 -3 9 -5 1 -5 -18z"/>
<path d="M4461 4484 c0 -11 3 -14 6 -6 3 7 2 16 -1 19 -3 4 -6 -2 -5 -13z"/>
<path d="M332 4460 c0 -19 2 -27 5 -17 2 9 2 25 0 35 -3 9 -5 1 -5 -18z"/>
<path d="M4670 4480 c0 -5 5 -10 10 -10 6 0 10 5 10 10 0 6 -4 10 -10 10 -5 0
-10 -4 -10 -10z"/>
<path d="M4111 4444 c0 -11 3 -14 6 -6 3 7 2 16 -1 19 -3 4 -6 -2 -5 -13z"/>
<path d="M4261 4444 c0 -11 3 -14 6 -6 3 7 2 16 -1 19 -3 4 -6 -2 -5 -13z"/>
<path d="M4450 4446 c0 -8 5 -18 10 -21 6 -3 10 3 10 14 0 12 -4 21 -10 21 -5
0 -10 -6 -10 -14z"/>
<path d="M4742 4430 c0 -14 2 -19 5 -12 2 6 2 18 0 25 -3 6 -5 1 -5 -13z"/>
<path d="M4742 4380 c0 -14 2 -19 5 -12 2 6 2 18 0 25 -3 6 -5 1 -5 -13z"/>
<path d="M2902 4370 c0 -14 2 -19 5 -12 2 6 2 18 0 25 -3 6 -5 1 -5 -13z"/>
<path d="M397 4373 c-2 -5 2 -19 9 -33 l14 -25 0 33 c0 29 -13 43 -23 25z"/>
<path d="M4812 4360 c0 -14 2 -19 5 -12 2 6 2 18 0 25 -3 6 -5 1 -5 -13z"/>
<path d="M4742 4315 c0 -16 2 -22 5 -12 2 9 2 23 0 30 -3 6 -5 -1 -5 -18z"/>
<path d="M3043 4315 c0 -8 4 -12 9 -9 4 3 8 9 8 15 0 5 -4 9 -8 9 -5 0 -9 -7
-9 -15z"/>
<path d="M402 4285 c0 -16 2 -22 5 -12 2 9 2 23 0 30 -3 6 -5 -1 -5 -18z"/>
<path d="M1196 4301 c-2 -3 -4 -51 -5 -106 0 -55 -4 -154 -7 -221 l-7 -121 29
-20 c16 -11 39 -24 52 -27 12 -4 23 -15 23 -24 4 -54 7 -128 8 -207 l1 -91 90
-52 c85 -50 90 -55 90 -87 0 -28 8 -40 50 -77 28 -23 72 -54 98 -68 43 -23 45
-25 22 -28 -14 -2 -39 -15 -57 -28 -17 -13 -36 -24 -42 -24 -6 0 -11 -4 -11
-10 0 -5 -5 -10 -11 -10 -7 0 -21 -9 -33 -21 -18 -18 -121 -93 -191 -139 -13
-8 -38 -26 -56 -39 -18 -14 -29 -19 -24 -11 5 8 4 11 -3 6 -15 -9 -21 -49 -25
-170 -3 -85 -1 -101 14 -115 18 -17 16 -61 -3 -61 -5 0 -21 -11 -36 -25 -15
-14 -32 -25 -38 -25 -6 0 -17 -7 -24 -15 -19 -23 -7 -18 57 20 32 19 64 35 71
35 8 0 12 16 12 45 0 39 -3 45 -21 45 -19 0 -20 3 -13 43 5 23 9 75 9 114 0
47 4 74 12 77 6 3 74 49 150 102 242 172 278 196 300 205 25 9 260 166 267
177 5 8 -46 44 -324 232 -85 58 -191 132 -235 165 -44 32 -102 73 -130 90
l-50 30 6 205 c7 240 6 229 22 209 7 -9 64 -53 127 -99 63 -45 166 -121 228
-168 62 -47 114 -83 117 -80 3 3 -49 47 -116 99 -67 52 -130 102 -140 112 -11
9 -19 14 -19 10 0 -3 -10 3 -22 14 -13 11 -56 42 -97 69 -40 27 -68 50 -62 52
6 2 11 7 11 11 0 9 -59 10 -64 2z m128 -563 c-4 -7 -2 -8 5 -4 14 9 43 -12 35
-25 -3 -5 1 -6 8 -4 7 3 27 -6 43 -20 17 -13 59 -44 95 -68 160 -107 255 -172
260 -178 3 -3 15 -12 28 -18 13 -7 31 -19 40 -27 9 -7 26 -20 36 -27 21 -15
13 -42 -10 -33 -8 3 -13 1 -11 -5 1 -5 -16 -19 -37 -32 -22 -12 -51 -33 -65
-46 -14 -12 -39 -30 -54 -37 -25 -13 -30 -13 -55 4 -15 10 -35 22 -45 25 -10
4 -15 12 -12 17 4 6 3 10 -2 9 -18 -3 -31 2 -52 20 -13 11 -27 21 -32 23 -5 2
-11 20 -12 41 -4 41 -20 58 -79 83 -21 9 -38 20 -38 24 0 4 -13 13 -30 20
l-30 12 0 135 c0 88 3 132 10 128 6 -4 7 -11 4 -17z"/>
<path d="M1365 3650 c-3 -5 1 -10 9 -10 8 0 18 5 21 10 3 6 -1 10 -9 10 -8 0
-18 -4 -21 -10z"/>
<path d="M1420 3639 c0 -5 5 -7 10 -4 6 3 10 8 10 11 0 2 -4 4 -10 4 -5 0 -10
-5 -10 -11z"/>
<path d="M2677 4284 c-4 -4 -7 -23 -6 -43 l1 -36 9 33 c11 36 9 58 -4 46z"/>
<path d="M323 4210 c0 -30 2 -43 4 -27 2 15 2 39 0 55 -2 15 -4 2 -4 -28z"/>
<path d="M2211 4244 c0 -11 3 -14 6 -6 3 7 2 16 -1 19 -3 4 -6 -2 -5 -13z"/>
<path d="M400 4239 c0 -5 5 -7 10 -4 6 3 10 8 10 11 0 2 -4 4 -10 4 -5 0 -10
-5 -10 -11z"/>
<path d="M4543 4180 c0 -36 2 -50 4 -32 2 17 2 47 0 65 -2 17 -4 3 -4 -33z"/>
<path d="M4693 4140 c0 -25 2 -35 4 -22 2 12 2 32 0 45 -2 12 -4 2 -4 -23z"/>
<path d="M403 4120 c0 -30 2 -43 4 -27 2 15 2 39 0 55 -2 15 -4 2 -4 -28z"/>
<path d="M4482 4140 c0 -19 2 -27 5 -17 2 9 2 25 0 35 -3 9 -5 1 -5 -18z"/>
<path d="M4741 4114 c0 -11 3 -14 6 -6 3 7 2 16 -1 19 -3 4 -6 -2 -5 -13z"/>
<path d="M483 4080 c0 -25 2 -35 4 -22 2 12 2 32 0 45 -2 12 -4 2 -4 -23z"/>
<path d="M2650 4069 c0 -18 2 -19 15 -9 15 12 12 30 -6 30 -5 0 -9 -10 -9 -21z"/>
<path d="M3405 4074 c-16 -8 -52 -37 -80 -63 -57 -54 -224 -176 -465 -339
-187 -127 -220 -151 -204 -152 7 0 40 20 75 44 35 25 98 66 139 92 119 76 329
223 404 284 117 94 136 107 166 120 17 7 30 16 30 21 0 14 -32 10 -65 -7z"/>
<path d="M4483 4065 c0 -8 4 -12 9 -9 4 3 8 9 8 15 0 5 -4 9 -8 9 -5 0 -9 -7
-9 -15z"/>
<path d="M4611 3938 c-1 -72 1 -129 4 -127 8 9 13 259 5 259 -4 0 -8 -59 -9
-132z"/>
<path d="M404 3955 c0 -60 1 -84 3 -52 2 32 2 81 0 110 -2 29 -3 3 -3 -58z"/>
<path d="M4551 4024 c0 -11 3 -14 6 -6 3 7 2 16 -1 19 -3 4 -6 -2 -5 -13z"/>
<path d="M482 3989 c-2 -21 -1 -39 2 -39 7 0 13 71 6 75 -3 2 -7 -14 -8 -36z"/>
<path d="M2795 4020 c-3 -5 -1 -10 4 -10 6 0 11 5 11 10 0 6 -2 10 -4 10 -3 0
-8 -4 -11 -10z"/>
<path d="M2650 4004 c0 -8 5 -12 10 -9 6 4 8 11 5 16 -9 14 -15 11 -15 -7z"/>
<path d="M4480 3986 c0 -19 3 -37 8 -40 4 -2 6 13 4 35 -5 48 -12 51 -12 5z"/>
<path d="M2730 3973 c-51 -39 -100 -90 -100 -103 0 -5 17 7 38 28 20 20 54 52
76 70 52 45 42 48 -14 5z"/>
<path d="M1743 3994 c8 -9 47 -13 51 -6 2 4 -9 8 -25 8 -17 1 -28 0 -26 -2z"/>
<path d="M1819 3973 c12 -24 49 -48 59 -39 3 3 0 6 -7 6 -6 0 -24 12 -38 28
-21 22 -24 23 -14 5z"/>
<path d="M4361 3974 c0 -11 3 -14 6 -6 3 7 2 16 -1 19 -3 4 -6 -2 -5 -13z"/>
<path d="M4544 3929 c0 -21 3 -39 8 -39 10 0 11 67 1 73 -5 3 -8 -13 -9 -34z"/>
<path d="M1761 3946 c-9 -11 27 -40 196 -157 255 -177 232 -164 240 -143 4 10
2 19 -3 21 -11 4 -330 224 -385 266 -30 23 -38 25 -48 13z"/>
<path d="M4486 3915 c4 -8 8 -15 10 -15 2 0 4 7 4 15 0 8 -4 15 -10 15 -5 0
-7 -7 -4 -15z"/>
<path d="M1720 3911 c0 -5 17 -21 38 -37 20 -15 40 -32 43 -37 4 -5 9 -5 12 0
6 10 -55 63 -73 63 -6 0 -8 5 -5 10 3 6 1 10 -4 10 -6 0 -11 -4 -11 -9z"/>
<path d="M1920 3890 c8 -5 20 -10 25 -10 6 0 3 5 -5 10 -8 5 -19 10 -25 10 -5
0 -3 -5 5 -10z"/>
<path d="M4481 3874 c0 -11 3 -14 6 -6 3 7 2 16 -1 19 -3 4 -6 -2 -5 -13z"/>
<path d="M478 3873 c-2 -5 -1 -26 3 -48 l7 -40 -1 48 c-1 47 -2 54 -9 40z"/>
<path d="M4543 3858 c-2 -18 0 -20 7 -8 12 18 13 30 2 30 -4 0 -9 -10 -9 -22z"/>
<path d="M2657 3853 c-12 -11 -8 -23 8 -23 8 0 15 7 15 15 0 16 -12 20 -23 8z"/>
<path d="M1820 3820 c0 -9 7 -11 26 -9 3 0 14 -9 23 -20 10 -12 23 -21 30 -21
6 0 11 -4 11 -10 0 -5 5 -10 10 -10 23 0 7 22 -37 50 -50 32 -63 36 -63 20z"/>
<path d="M4482 3810 c0 -14 2 -19 5 -12 2 6 2 18 0 25 -3 6 -5 1 -5 -13z"/>
<path d="M4546 3813 c-6 -14 -5 -15 5 -6 7 7 10 15 7 18 -3 3 -9 -2 -12 -12z"/>
<path d="M2140 3780 c0 -5 3 -9 8 -8 4 1 22 -6 41 -16 18 -10 30 -13 27 -7 -6
8 -63 41 -73 41 -1 0 -3 -4 -3 -10z"/>
<path d="M2130 3756 c0 -2 8 -10 18 -17 15 -13 16 -12 3 4 -13 16 -21 21 -21
13z"/>
<path d="M1940 3740 c0 -5 10 -10 22 -10 12 0 18 -3 15 -7 -10 -9 31 -35 43
-28 6 4 -6 17 -25 31 -38 26 -55 30 -55 14z"/>
<path d="M4551 3694 c0 -11 3 -14 6 -6 3 7 2 16 -1 19 -3 4 -6 -2 -5 -13z"/>
<path d="M2050 3656 c0 -2 9 -6 20 -9 11 -3 18 -1 14 4 -5 9 -34 13 -34 5z"/>
<path d="M4613 3645 c-3 -9 -3 -18 -1 -21 3 -3 8 4 11 16 6 23 -1 27 -10 5z"/>
<path d="M2121 3624 c0 -11 3 -14 6 -6 3 7 2 16 -1 19 -3 4 -6 -2 -5 -13z"/>
<path d="M2200 3600 c0 -5 7 -7 15 -4 8 4 15 8 15 10 0 2 -7 4 -15 4 -8 0 -15
-4 -15 -10z"/>
<path d="M991 3554 c0 -11 3 -14 6 -6 3 7 2 16 -1 19 -3 4 -6 -2 -5 -13z"/>
<path d="M4540 3559 c0 -5 5 -7 10 -4 6 3 10 8 10 11 0 2 -4 4 -10 4 -5 0 -10
-5 -10 -11z"/>
<path d="M2615 3500 c-3 -6 1 -7 9 -4 18 7 21 14 7 14 -6 0 -13 -4 -16 -10z"/>
<path d="M2555 3480 c-19 -8 -19 -9 2 -9 12 -1 25 4 28 9 7 12 -2 12 -30 0z"/>
<path d="M4547 3471 c-4 -17 -3 -21 5 -13 5 5 8 16 6 23 -3 8 -7 3 -11 -10z"/>
<path d="M2528 3443 c6 -2 18 -2 25 0 6 3 1 5 -13 5 -14 0 -19 -2 -12 -5z"/>
<path d="M3768 3373 c6 -2 18 -2 25 0 6 3 1 5 -13 5 -14 0 -19 -2 -12 -5z"/>
<path d="M3913 3373 c9 -2 25 -2 35 0 9 3 1 5 -18 5 -19 0 -27 -2 -17 -5z"/>
<path d="M4028 3373 c7 -3 16 -2 19 1 4 3 -2 6 -13 5 -11 0 -14 -3 -6 -6z"/>
<path d="M4105 3370 c3 -5 8 -10 11 -10 2 0 4 5 4 10 0 6 -5 10 -11 10 -5 0
-7 -4 -4 -10z"/>
<path d="M4150 3370 c0 -5 5 -10 11 -10 5 0 7 5 4 10 -3 6 -8 10 -11 10 -2 0
-4 -4 -4 -10z"/>
<path d="M4227 3373 c-4 -3 -7 -16 -6 -27 0 -19 1 -19 10 3 10 24 8 36 -4 24z"/>
<path d="M3510 3326 c0 -14 5 -26 11 -26 5 0 8 4 5 9 -3 4 6 6 19 3 14 -2 25
-8 25 -11 0 -8 3 -9 73 -15 26 -2 47 -1 47 3 0 3 -33 15 -73 27 -39 11 -80 24
-89 29 -15 6 -18 2 -18 -19z"/>
<path d="M2951 3330 c-8 -20 -4 -170 4 -170 6 0 9 26 7 62 -3 68 -8 116 -11
108z"/>
<path d="M2144 3241 c6 -71 4 -80 -11 -84 -10 -3 0 -5 22 -6 24 0 35 3 27 8
-8 4 -15 38 -19 80 l-6 73 29 -4 29 -3 1 -75 c1 -73 2 -75 28 -78 14 -2 26 2
26 8 0 6 -8 10 -17 8 -15 -3 -18 6 -20 62 -2 51 1 68 14 78 14 10 6 12 -47 12
l-63 0 7 -79z"/>
<path d="M2280 3235 c0 -71 3 -85 16 -85 11 0 14 5 10 16 -3 9 -6 47 -6 85 0
39 -4 69 -10 69 -6 0 -10 -35 -10 -85z"/>
<path d="M2333 3235 c0 -47 3 -85 8 -85 5 0 9 36 9 80 0 47 4 80 10 80 6 0 10
-22 10 -49 0 -52 16 -111 31 -111 5 0 9 8 9 18 0 9 3 47 6 85 5 47 3 67 -5 67
-7 0 -11 -22 -12 -57 0 -49 -2 -54 -10 -33 -6 13 -9 38 -7 55 3 26 -1 30 -22
33 -25 3 -25 2 -27 -83z"/>
<path d="M2430 3273 c0 -64 11 -123 22 -123 5 0 7 38 6 85 -2 60 -7 85 -15 85
-9 0 -13 -16 -13 -47z"/>
<path d="M2474 3274 c3 -26 7 -65 7 -88 2 -38 2 -38 8 13 8 64 3 121 -11 121
-7 0 -8 -17 -4 -46z"/>
<path d="M2515 3245 c-8 -84 5 -128 17 -55 10 65 9 130 -1 130 -5 0 -12 -34
-16 -75z"/>
<path d="M2560 3272 c0 -26 -4 -52 -9 -57 -15 -15 -2 -65 15 -58 8 3 14 9 14
15 0 5 -5 6 -11 3 -9 -6 -5 97 6 133 3 6 0 12 -5 12 -6 0 -10 -22 -10 -48z"/>
<path d="M2598 3258 c4 -95 9 -110 35 -106 20 3 22 9 25 76 2 54 6 72 17 72 8
0 17 5 20 10 4 6 -14 10 -47 10 l-53 0 3 -62z m48 -20 c-4 -35 -10 -65 -12
-68 -12 -11 -24 29 -24 78 0 46 2 52 21 52 20 0 21 -3 15 -62z"/>
<path d="M2710 3270 c0 -49 0 -50 31 -50 26 0 29 2 19 14 -6 8 -18 12 -25 10
-10 -4 -13 3 -13 25 1 35 18 43 19 9 1 -22 2 -20 15 22 10 30 24 -14 24 -77 0
-34 4 -64 9 -68 9 -5 5 121 -5 153 -2 6 -19 12 -39 12 l-35 0 0 -50z"/>
<path d="M2808 3308 c7 -7 12 -40 12 -79 0 -37 5 -71 10 -74 11 -7 13 68 4
128 -5 24 -12 37 -22 37 -13 0 -13 -3 -4 -12z"/>
<path d="M2864 3304 c3 -9 6 -47 6 -85 0 -43 4 -69 11 -69 7 0 9 29 7 85 -2
63 -6 85 -17 85 -8 0 -11 -6 -7 -16z"/>
<path d="M2909 3242 c-2 -46 -1 -86 3 -88 13 -8 15 12 8 91 l-6 80 -5 -83z"/>
<path d="M2673 3220 c0 -41 2 -58 4 -37 2 20 2 54 0 75 -2 20 -4 3 -4 -38z"/>
<path d="M4113 3245 c0 -27 2 -38 4 -22 2 15 2 37 0 50 -2 12 -4 0 -4 -28z"/>
<path d="M3127 3259 c7 -7 15 -10 18 -7 3 3 -2 9 -12 12 -14 6 -15 5 -6 -5z"/>
<path d="M2180 3240 c0 -5 5 -10 10 -10 6 0 10 5 10 10 0 6 -4 10 -10 10 -5 0
-10 -4 -10 -10z"/>
<path d="M4351 3224 c0 -11 3 -14 6 -6 3 7 2 16 -1 19 -3 4 -6 -2 -5 -13z"/>
<path d="M3580 3209 c0 -5 5 -7 10 -4 6 3 10 8 10 11 0 2 -4 4 -10 4 -5 0 -10
-5 -10 -11z"/>
<path d="M2702 3185 c0 -16 2 -22 5 -12 2 9 2 23 0 30 -3 6 -5 -1 -5 -18z"/>
<path d="M2720 3185 c0 -23 24 -45 35 -33 7 6 -18 58 -27 58 -5 0 -8 -11 -8
-25z"/>
<path d="M1980 3185 c-14 -16 -3 -20 19 -6 8 5 9 11 3 15 -5 3 -15 -1 -22 -9z"/>
<path d="M3492 3178 c-14 -14 2 -38 27 -38 14 1 13 3 -3 15 -10 7 -15 18 -11
24 8 14 2 14 -13 -1z"/>
<path d="M3360 3150 c0 -5 5 -10 11 -10 5 0 7 5 4 10 -3 6 -8 10 -11 10 -2 0
-4 -4 -4 -10z"/>
<path d="M4347 3139 c4 -13 8 -18 11 -10 2 7 -1 18 -6 23 -8 8 -9 4 -5 -13z"/>
<path d="M3548 3123 c7 -3 16 -2 19 1 4 3 -2 6 -13 5 -11 0 -14 -3 -6 -6z"/>
<path d="M4280 3080 c0 -5 5 -10 11 -10 5 0 7 5 4 10 -3 6 -8 10 -11 10 -2 0
-4 -4 -4 -10z"/>
<path d="M4351 3064 c0 -11 3 -14 6 -6 3 7 2 16 -1 19 -3 4 -6 -2 -5 -13z"/>
<path d="M1750 3040 c-9 -6 -10 -10 -3 -10 6 0 15 5 18 10 8 12 4 12 -15 0z"/>
<path d="M1855 3040 c-3 -5 -1 -10 4 -10 6 0 11 5 11 10 0 6 -2 10 -4 10 -3 0
-8 -4 -11 -10z"/>
<path d="M1654 2977 c-92 -63 -444 -319 -444 -323 0 -13 32 6 151 91 155 109
174 123 208 151 14 11 56 41 94 68 37 26 67 49 67 52 0 9 -18 0 -76 -39z"/>
<path d="M4347 2995 c3 -8 9 -12 14 -9 12 7 11 11 -5 17 -10 4 -13 1 -9 -8z"/>
<path d="M1790 2989 c0 -5 5 -7 10 -4 6 3 10 8 10 11 0 2 -4 4 -10 4 -5 0 -10
-5 -10 -11z"/>
<path d="M1733 2956 c-129 -97 -373 -276 -405 -297 -36 -23 -38 -26 -38 -81
l0 -57 -90 -62 c-49 -34 -88 -64 -86 -67 7 -7 42 7 62 26 38 36 112 81 119 74
5 -4 5 -1 1 6 -4 6 -2 12 3 12 7 0 11 24 11 59 0 51 3 61 20 66 11 3 20 10 20
15 0 5 9 11 19 15 11 3 59 37 108 76 113 90 127 101 154 119 12 8 32 25 45 38
13 12 27 22 31 22 12 1 78 59 72 64 -2 2 -23 -10 -46 -28z"/>
<path d="M4350 2900 c-9 -6 -10 -10 -3 -10 6 0 15 5 18 10 8 12 4 12 -15 0z"/>
<path d="M3820 2885 c0 -8 2 -15 4 -15 2 0 6 7 10 15 3 8 1 15 -4 15 -6 0 -10
-7 -10 -15z"/>
<path d="M2910 2862 c0 -6 21 -25 48 -43 302 -205 445 -299 449 -295 15 15
-25 47 -233 186 -222 149 -264 173 -264 152z"/>
<path d="M3860 2758 c0 -95 3 -117 15 -122 14 -5 15 -35 13 -220 -1 -145 -6
-212 -13 -208 -30 18 -171 115 -175 120 -3 4 -44 33 -92 65 -86 58 -88 60 -88
99 0 23 -4 37 -10 33 -5 -3 -10 -25 -10 -48 0 -40 2 -44 58 -79 170 -109 338
-230 349 -253 18 -33 21 -32 19 9 0 19 -4 32 -8 30 -13 -8 -14 33 -10 238 4
177 3 210 -11 231 -11 18 -15 48 -15 111 0 53 -4 92 -11 99 -8 8 -11 -19 -11
-105z"/>
<path d="M2536 2821 c-13 -82 -7 -2341 6 -2518 2 -20 17 -15 17 5 1 9 5 73 10
142 10 150 13 2308 3 2364 -9 53 -28 56 -36 7z m21 -1488 c-3 -10 -5 -2 -5 17
0 19 2 27 5 18 2 -10 2 -26 0 -35z m0 -100 c-2 -16 -4 -3 -4 27 0 30 2 43 4
28 2 -16 2 -40 0 -55z m0 -105 c-3 -7 -5 -2 -5 12 0 14 2 19 5 13 2 -7 2 -19
0 -25z"/>
<path d="M3787 2845 c-4 -8 -2 -17 2 -20 5 -2 11 4 14 15 6 23 -8 27 -16 5z"/>
<path d="M2120 2823 c-14 -6 -80 -52 -90 -64 -21 -24 -143 -98 -153 -93 -7 4
-9 3 -4 -1 7 -9 -20 -45 -34 -45 -4 0 -19 -10 -32 -22 -13 -13 -53 -44 -90
-70 -64 -45 -82 -68 -54 -68 6 0 64 42 128 93 101 81 277 218 334 261 21 16
20 18 -5 9z"/>
<path d="M2868 2823 c7 -3 16 -2 19 1 4 3 -2 6 -13 5 -11 0 -14 -3 -6 -6z"/>
<path d="M3105 2800 c10 -11 20 -20 22 -20 2 0 -2 9 -9 20 -7 11 -17 20 -22
20 -5 0 -1 -9 9 -20z"/>
<path d="M2940 2786 c0 -2 7 -9 15 -16 9 -7 15 -8 15 -2 0 5 -7 12 -15 16 -8
3 -15 4 -15 2z"/>
<path d="M3150 2776 c0 -2 8 -10 18 -17 15 -13 16 -12 3 4 -13 16 -21 21 -21
13z"/>
<path d="M2987 2749 c7 -7 15 -10 18 -7 3 3 -2 9 -12 12 -14 6 -15 5 -6 -5z"/>
<path d="M2453 2690 c1 -22 4 -40 7 -40 10 0 11 68 1 75 -6 3 -9 -11 -8 -35z"/>
<path d="M3020 2726 c0 -2 7 -7 16 -10 8 -3 12 -2 9 4 -6 10 -25 14 -25 6z"/>
<path d="M3060 2701 c0 -5 5 -13 10 -16 6 -3 10 -2 10 4 0 5 -4 13 -10 16 -5
3 -10 2 -10 -4z"/>
<path d="M3307 2685 c3 -8 9 -12 14 -9 12 7 11 11 -5 17 -10 4 -13 1 -9 -8z"/>
<path d="M3111 2656 c-9 -10 -8 -15 2 -19 8 -3 13 3 13 14 0 23 0 23 -15 5z"/>
<path d="M3345 2651 c-3 -5 0 -13 6 -17 7 -4 9 -3 5 4 -3 5 0 13 6 15 9 4 10
6 1 6 -6 1 -14 -3 -18 -8z"/>
<path d="M3155 2620 c-3 -5 1 -10 9 -10 9 0 16 -4 16 -10 0 -5 5 -10 11 -10 6
0 17 -7 25 -15 17 -16 34 -20 34 -7 0 4 -16 16 -35 26 -19 11 -35 23 -35 28 0
11 -17 10 -25 -2z"/>
<path d="M3748 2623 c7 -3 16 -2 19 1 4 3 -2 6 -13 5 -11 0 -14 -3 -6 -6z"/>
<path d="M2450 2586 c0 -20 2 -36 4 -36 8 0 12 61 4 66 -4 3 -8 -11 -8 -30z"/>
<path d="M2401 2603 c0 -6 -4 -20 -7 -30 -5 -14 -4 -15 5 -7 7 7 11 20 8 30
-3 11 -5 14 -6 7z"/>
<path d="M3686 2594 c-6 -15 -4 -15 11 -3 10 7 20 15 22 16 2 2 -3 3 -11 3 -9
0 -19 -7 -22 -16z"/>
<path d="M2481 2564 c0 -11 3 -14 6 -6 3 7 2 16 -1 19 -3 4 -6 -2 -5 -13z"/>
<path d="M3280 2552 c0 -4 10 -14 21 -22 12 -8 27 -21 35 -27 15 -15 24 -17
24 -4 0 4 -18 20 -40 35 -22 14 -40 23 -40 18z"/>
<path d="M2440 2519 c0 -5 5 -7 10 -4 6 3 10 8 10 11 0 2 -4 4 -10 4 -5 0 -10
-5 -10 -11z"/>
<path d="M3391 2489 c18 -11 39 -11 39 0 0 5 -12 9 -26 9 -18 0 -22 -3 -13 -9z"/>
<path d="M2440 2480 c0 -5 5 -10 10 -10 6 0 10 5 10 10 0 6 -4 10 -10 10 -5 0
-10 -4 -10 -10z"/>
<path d="M3304 2475 c8 -8 18 -15 22 -15 3 0 1 7 -6 15 -7 8 -17 15 -22 15 -5
0 -3 -7 6 -15z"/>
<path d="M1060 2454 c0 -8 5 -12 10 -9 6 3 10 10 10 16 0 5 -4 9 -10 9 -5 0
-10 -7 -10 -16z"/>
<path d="M2441 2414 c0 -27 4 -71 9 -99 6 -36 7 -23 3 45 -6 101 -14 136 -12
54z"/>
<path d="M1035 2440 c-3 -5 -1 -10 4 -10 6 0 11 5 11 10 0 6 -2 10 -4 10 -3 0
-8 -4 -11 -10z"/>
<path d="M1618 2402 c-26 -20 -107 -74 -180 -119 -73 -46 -137 -86 -143 -90
-7 -5 -8 -160 -5 -448 3 -242 8 -433 11 -425 4 9 7 204 8 435 2 416 4 446 35
428 5 -3 6 -2 3 4 -5 8 64 49 86 51 5 0 14 8 21 18 8 11 18 14 26 9 8 -5 11
-4 7 2 -9 14 70 66 85 57 7 -4 8 -3 4 4 -7 11 6 17 27 13 5 -1 6 2 3 7 -2 4
11 16 30 27 19 10 34 22 34 27 0 10 49 -1 65 -14 49 -41 59 -48 64 -48 3 0 17
-10 31 -23 39 -36 62 -46 82 -36 13 7 23 5 36 -8 11 -10 32 -27 47 -38 16 -11
44 -35 64 -52 20 -18 39 -33 44 -33 4 0 7 -81 7 -180 0 -137 -3 -180 -12 -180
-8 0 -9 -3 -3 -8 6 -4 11 -105 11 -267 2 -346 8 -583 17 -619 5 -16 9 -143 11
-282 1 -140 6 -257 9 -261 4 -3 7 116 7 265 0 150 2 272 5 272 2 0 15 -10 28
-23 12 -12 56 -51 97 -87 40 -36 84 -75 97 -87 13 -13 28 -23 34 -23 6 0 7 -4
4 -10 -3 -5 0 -10 7 -10 7 0 26 -12 41 -26 16 -14 31 -23 35 -19 4 4 -9 21
-28 38 -78 70 -179 158 -251 218 l-75 64 -7 260 c-4 143 -7 422 -7 621 l0 360
-94 76 c-71 58 -99 75 -117 71 -17 -3 -44 10 -94 48 -70 51 -123 80 -147 78
-7 0 -34 -17 -60 -37z"/>
<path d="M3270 2417 c-14 -6 -27 -15 -30 -18 -8 -12 -274 -211 -288 -216 -10
-4 -12 -137 -12 -649 l1 -644 -38 -33 c-188 -163 -304 -272 -295 -275 6 -2 22
7 35 20 30 29 79 71 142 123 27 22 71 61 99 87 27 27 50 48 51 48 1 0 0 -137
-2 -305 -3 -207 0 -305 7 -305 6 0 10 43 10 118 0 64 3 205 7 312 3 107 7 482
7 833 l1 638 24 19 c14 10 32 15 40 12 9 -3 13 -2 9 3 -7 8 11 31 26 32 5 1
13 8 18 17 5 9 14 13 20 10 6 -4 8 -3 5 3 -4 5 6 16 21 24 15 8 34 22 43 31 9
10 21 18 28 18 6 0 11 3 11 8 0 4 16 20 36 36 31 24 49 30 104 34 55 3 71 1
88 -14 12 -10 19 -21 16 -26 -3 -5 -2 -8 3 -7 21 4 34 -2 27 -13 -5 -7 -2 -9
8 -6 8 3 29 -7 47 -23 18 -15 41 -31 52 -34 10 -4 19 -10 19 -15 0 -4 9 -10
21 -13 13 -4 18 -10 13 -18 -4 -8 -3 -10 5 -5 13 8 44 -12 37 -23 -3 -4 5 -8
17 -8 12 -1 23 -7 25 -13 2 -5 9 -10 16 -10 7 0 25 -11 39 -24 l25 -23 2 -274
c0 -151 2 -292 3 -314 1 -22 -2 -46 -8 -54 -8 -11 -7 -13 3 -7 11 7 13 -5 10
-58 -1 -36 0 -66 5 -66 8 0 8 -17 7 433 0 233 3 347 10 347 5 0 10 -4 10 -9 0
-5 9 -13 20 -16 12 -4 17 -11 13 -18 -4 -7 1 -6 10 2 10 8 16 15 15 16 -2 1
-71 45 -154 98 -83 53 -189 125 -235 160 -84 62 -85 63 -154 64 -39 1 -81 -4
-95 -10z"/>
<path d="M1570 2409 c0 -5 5 -7 10 -4 6 3 10 8 10 11 0 2 -4 4 -10 4 -5 0 -10
-5 -10 -11z"/>
<path d="M2481 2404 c0 -11 3 -14 6 -6 3 7 2 16 -1 19 -3 4 -6 -2 -5 -13z"/>
<path d="M2911 2374 c0 -11 3 -14 6 -6 3 7 2 16 -1 19 -3 4 -6 -2 -5 -13z"/>
<path d="M1080 2370 c-8 -5 -11 -12 -7 -16 4 -4 15 0 24 9 18 18 8 23 -17 7z"/>
<path d="M2483 2332 c1 -28 5 -48 9 -46 8 5 4 82 -5 90 -3 4 -5 -16 -4 -44z"/>
<path d="M1490 2359 c0 -5 5 -7 10 -4 6 3 10 8 10 11 0 2 -4 4 -10 4 -5 0 -10
-5 -10 -11z"/>
<path d="M1006 2320 c-22 -17 -35 -30 -29 -30 6 0 16 7 23 15 6 8 15 14 18 13
19 -2 30 3 36 17 8 22 -4 18 -48 -15z"/>
<path d="M2212 2300 c0 -19 2 -27 5 -17 2 9 2 25 0 35 -3 9 -5 1 -5 -18z"/>
<path d="M2445 2250 c3 -5 8 -10 11 -10 2 0 4 5 4 10 0 6 -5 10 -11 10 -5 0
-7 -4 -4 -10z"/>
<path d="M2484 2235 c0 -14 4 -25 9 -25 10 0 9 38 -2 44 -5 3 -8 -5 -7 -19z"/>
<path d="M2215 1655 c0 -319 1 -451 2 -293 2 158 2 419 0 580 -1 161 -2 32 -2
-287z"/>
<path d="M2451 2214 c0 -11 3 -14 6 -6 3 7 2 16 -1 19 -3 4 -6 -2 -5 -13z"/>
<path d="M2491 2184 c0 -11 3 -14 6 -6 3 7 2 16 -1 19 -3 4 -6 -2 -5 -13z"/>
<path d="M2492 2130 c0 -19 2 -27 5 -17 2 9 2 25 0 35 -3 9 -5 1 -5 -18z"/>
<path d="M2492 1955 c0 -16 2 -22 5 -12 2 9 2 23 0 30 -3 6 -5 -1 -5 -18z"/>
<path d="M3636 1815 c-9 -26 -7 -32 5 -12 6 10 9 21 6 23 -2 3 -7 -2 -11 -11z"/>
<path d="M4221 1564 c0 -11 3 -14 6 -6 3 7 2 16 -1 19 -3 4 -6 -2 -5 -13z"/>
<path d="M1190 1480 c0 -5 5 -10 11 -10 5 0 7 5 4 10 -3 6 -8 10 -11 10 -2 0
-4 -4 -4 -10z"/>
<path d="M1765 1410 c3 -5 8 -10 11 -10 2 0 4 5 4 10 0 6 -5 10 -11 10 -5 0
-7 -4 -4 -10z"/>
<path d="M1290 1249 c0 -5 5 -7 10 -4 6 3 10 8 10 11 0 2 -4 4 -10 4 -5 0 -10
-5 -10 -11z"/>
<path d="M3796 1155 c-3 -8 -1 -15 4 -15 6 0 10 7 10 15 0 8 -2 15 -4 15 -2 0
-6 -7 -10 -15z"/>
<path d="M3760 930 c-8 -5 -12 -12 -9 -15 4 -3 12 1 19 10 14 17 11 19 -10 5z"/>
<path d="M1450 826 c0 -2 7 -7 16 -10 8 -3 12 -2 9 4 -6 10 -25 14 -25 6z"/>
<path d="M1178 683 c7 -3 16 -2 19 1 4 3 -2 6 -13 5 -11 0 -14 -3 -6 -6z"/>
<path d="M1530 670 c0 -5 5 -10 11 -10 5 0 7 5 4 10 -3 6 -8 10 -11 10 -2 0
-4 -4 -4 -10z"/>
<path d="M2028 393 c7 -3 16 -2 19 1 4 3 -2 6 -13 5 -11 0 -14 -3 -6 -6z"/>
<path d="M2143 305 c0 -22 2 -30 4 -17 2 12 2 30 0 40 -3 9 -5 -1 -4 -23z"/>
<path d="M2536 272 c-3 -5 1 -9 9 -9 8 0 15 4 15 9 0 4 -4 8 -9 8 -6 0 -12 -4
-15 -8z"/>
<path d="M3148 263 c7 -3 16 -2 19 1 4 3 -2 6 -13 5 -11 0 -14 -3 -6 -6z"/>
<path d="M2543 235 c0 -8 4 -12 9 -9 4 3 8 9 8 15 0 5 -4 9 -8 9 -5 0 -9 -7
-9 -15z"/>
<path d="M2930 215 c0 -8 5 -15 10 -15 6 0 10 7 10 15 0 8 -4 15 -10 15 -5 0
-10 -7 -10 -15z"/>
<path d="M2938 173 c7 -3 16 -2 19 1 4 3 -2 6 -13 5 -11 0 -14 -3 -6 -6z"/>
</g>
</svg>
