<?xml version="1.0" standalone="no"?>
<!DOCTYPE svg PUBLIC "-//W3C//DTD SVG 20010904//EN"
 "http://www.w3.org/TR/2001/REC-SVG-20010904/DTD/svg10.dtd">
<svg version="1.0" xmlns="http://www.w3.org/2000/svg"
 width="512.000000pt" height="768.000000pt" viewBox="0 0 512.000000 768.000000"
 preserveAspectRatio="xMidYMid meet">
<metadata>
Created by potrace 1.16, written by Peter Selinger 2001-2019
</metadata>
<g transform="translate(0.000000,768.000000) scale(0.100000,-0.100000)"
fill="#000000" stroke="none">
<path d="M2560 7375 l0 -305 -1062 -3 -1063 -2 1073 -3 1072 -2 0 310 c0 200
-4 310 -10 310 -6 0 -10 -108 -10 -305z"/>
<path d="M3733 7672 c1 -4 -23 -30 -53 -56 -102 -90 -171 -173 -198 -241 -17
-44 -31 -115 -22 -115 4 0 10 -18 14 -41 8 -48 31 -97 57 -120 11 -9 19 -19
19 -23 0 -3 -214 -5 -475 -4 -261 2 -475 0 -475 -4 0 -5 303 -7 673 -6 369 1
596 4 502 5 -103 2 -179 7 -192 15 -53 27 -104 146 -96 222 9 87 92 196 241
318 17 15 32 31 32 37 0 5 8 12 18 14 9 3 2 5 -15 6 -18 0 -32 -3 -30 -7z"/>
<path d="M3810 7669 c0 -6 47 -59 105 -117 154 -156 160 -167 160 -271 0 -79
-2 -90 -30 -131 -17 -24 -46 -55 -64 -67 l-34 -23 419 2 419 3 -390 5 c-350 4
-388 7 -367 20 12 8 22 20 22 27 0 7 3 13 8 13 10 0 32 50 32 71 0 10 5 21 10
24 17 11 11 92 -11 151 -18 48 -41 76 -136 171 -63 62 -112 117 -109 121 2 4
-4 9 -15 9 -10 1 -19 -3 -19 -8z"/>
<path d="M13 7063 c9 -2 23 -2 30 0 6 3 -1 5 -18 5 -17 0 -22 -2 -12 -5z"/>
<path d="M68 7063 c6 -2 18 -2 25 0 6 3 1 5 -13 5 -14 0 -19 -2 -12 -5z"/>
<path d="M148 7063 c7 -3 16 -2 19 1 4 3 -2 6 -13 5 -11 0 -14 -3 -6 -6z"/>
<path d="M268 7063 c7 -3 16 -2 19 1 4 3 -2 6 -13 5 -11 0 -14 -3 -6 -6z"/>
<path d="M318 7063 c12 -2 30 -2 40 0 9 3 -1 5 -23 4 -22 0 -30 -2 -17 -4z"/>
<path d="M393 7063 c9 -2 23 -2 30 0 6 3 -1 5 -18 5 -16 0 -22 -2 -12 -5z"/>
<path d="M4893 7063 c20 -2 54 -2 75 0 20 2 3 4 -38 4 -41 0 -58 -2 -37 -4z"/>
<path d="M5053 7063 c15 -2 37 -2 50 0 12 2 0 4 -28 4 -27 0 -38 -2 -22 -4z"/>
<path d="M3 7028 c3 -10 49 -12 200 -9 l197 3 2 -83 2 -84 5 85 c3 47 5 88 3
93 -2 4 -96 7 -208 7 -160 0 -205 -3 -201 -12z"/>
<path d="M430 6308 c0 -479 3 -728 10 -728 6 0 10 38 11 93 0 50 2 146 4 212
2 66 3 346 4 623 l1 502 1051 0 1051 0 -6 -57 c-3 -32 -5 -704 -6 -1493 l0
-1435 -1060 0 -1060 0 -1 680 c-1 374 -5 664 -9 645 -10 -50 -15 -1044 -15
-3105 l0 -1800 128 -3 c70 -1 127 -7 127 -11 0 -10 -69 -191 -125 -331 -38
-94 -40 -100 -25 -100 12 0 19 18 115 270 l71 185 849 3 c468 2 892 0 943 -3
l92 -7 0 -224 c0 -143 4 -224 10 -224 6 0 10 80 10 220 l0 220 1093 2 1092 3
3 3297 2 3297 -2180 -2 -2180 -2 0 -727z m4298 702 l42 0 0 -1492 0 -1493
-1095 0 -1095 0 0 1491 c0 820 2 1493 4 1495 2 2 476 3 1053 2 576 -2 1067 -3
1091 -3z m-2173 -3207 l0 -196 -125 -102 c-184 -150 -572 -462 -839 -674 -322
-255 -612 -487 -763 -610 l-128 -103 -2 -827 -3 -826 -139 -3 -138 -3 6 1773
c3 975 6 1773 6 1773 0 0 478 -1 1063 -3 l1062 -4 0 -195z m2215 -1570 l0
-1773 -1085 -2 c-597 -2 -1090 -1 -1095 0 -7 3 -10 535 -10 1570 1 1234 3
1564 13 1552 17 -22 176 -130 351 -239 39 -24 74 -49 78 -55 4 -6 8 -7 8 -2 0
5 10 0 23 -11 12 -11 40 -30 62 -43 22 -13 42 -27 45 -30 11 -13 99 -70 109
-70 6 0 11 -4 11 -8 0 -4 15 -16 33 -27 17 -10 38 -25 45 -32 7 -7 20 -13 28
-13 8 0 14 -4 14 -9 0 -4 20 -19 45 -32 25 -13 45 -27 45 -31 0 -5 6 -8 13 -8
7 0 22 -8 33 -17 10 -10 31 -24 47 -32 15 -8 27 -18 27 -23 0 -4 5 -8 11 -8 6
0 61 -33 123 -73 61 -41 145 -96 186 -122 41 -26 77 -51 80 -56 3 -5 21 -15
40 -23 20 -8 47 -25 61 -38 15 -12 33 -24 40 -26 8 -2 29 -15 47 -28 17 -14
32 -22 32 -19 0 3 6 0 14 -7 8 -7 12 -16 9 -20 -2 -4 4 -5 13 -1 12 4 15 3 10
-6 -4 -6 -4 -10 1 -9 4 2 36 -15 70 -37 l62 -40 -2 -230 c-3 -389 4 -1049 12
-1070 5 -11 7 281 6 648 l-3 669 -98 66 c-55 36 -292 191 -529 345 -236 154
-607 396 -822 540 l-393 260 0 196 0 196 1095 0 1095 0 0 -1772z m-2218 -251
l3 -1502 -917 0 -918 0 0 810 0 810 26 23 c14 12 28 21 30 19 2 -1 28 20 57
48 28 27 58 50 65 50 6 0 12 4 12 9 0 13 90 77 102 73 5 -1 7 1 4 6 -4 7 66
74 78 73 3 0 16 9 29 22 24 24 140 116 166 132 9 6 23 17 31 25 24 24 98 80
106 80 4 0 12 6 18 13 10 13 170 141 246 199 19 14 49 38 65 52 17 15 55 46
85 69 30 23 65 52 77 64 12 12 40 34 60 50 21 15 52 40 68 56 17 15 36 25 43
22 7 -3 11 -1 8 4 -3 5 9 19 26 32 17 13 37 30 44 37 7 6 15 12 18 12 3 0 25
18 48 40 24 22 49 38 56 35 6 -2 12 1 12 7 0 11 23 34 80 77 19 14 48 39 64
54 16 15 36 25 44 22 10 -4 12 0 8 11 -4 12 -2 15 9 10 9 -3 15 0 15 8 0 8 6
16 13 19 8 2 13 -8 14 -32 2 -20 4 -712 5 -1539z"/>
<path d="M3705 6722 c-36 -17 -94 -72 -95 -90 -1 -4 -5 -26 -9 -50 -10 -53 2
-117 30 -155 19 -26 20 -34 9 -71 -11 -39 -9 -84 5 -106 4 -6 1 -19 -6 -28 -8
-10 -8 -13 -1 -7 9 8 27 -3 67 -42 61 -57 97 -70 168 -59 46 7 102 38 90 50
-4 4 0 4 9 1 9 -4 19 -2 23 4 3 6 -1 11 -10 11 -13 0 -13 5 5 40 22 44 26 70
9 70 -7 0 -5 10 5 25 15 23 15 25 -4 35 -11 6 -17 16 -14 22 4 6 3 8 -3 5 -6
-4 -18 2 -28 13 -10 11 -14 20 -8 20 21 0 57 84 54 130 -4 83 -44 160 -93 176
-10 3 -16 8 -14 12 2 4 -30 8 -72 10 -58 2 -87 -2 -117 -16z m162 -17 c21 -9
46 -23 56 -33 30 -27 57 -88 57 -128 0 -43 -40 -118 -72 -135 l-22 -12 26 -13
c14 -7 33 -24 42 -38 18 -28 22 -101 6 -111 -6 -4 -7 -11 -4 -17 5 -7 2 -8 -5
-3 -8 4 -20 -1 -32 -14 -11 -11 -32 -23 -47 -27 -15 -3 -38 -10 -52 -15 -20
-7 -15 -8 22 -5 45 3 104 36 90 50 -3 4 2 4 11 0 17 -6 17 -7 0 -26 -10 -11
-25 -24 -34 -28 -44 -24 -129 -21 -129 5 0 7 -11 16 -24 19 -13 3 -40 24 -60
46 -30 34 -36 47 -36 85 0 32 6 51 21 66 l21 21 -30 31 c-41 44 -52 69 -52
116 0 76 34 130 105 162 49 23 94 24 142 4z"/>
<path d="M3720 6400 c0 -6 31 -10 74 -10 41 0 78 5 81 10 4 6 -23 10 -74 10
-47 0 -81 -4 -81 -10z"/>
<path d="M3747 6348 c-7 -4 -4 -7 8 -8 11 0 31 -1 45 -2 48 -4 100 2 100 11 0
11 -135 10 -153 -1z"/>
<path d="M4023 6306 c9 -7 17 -19 17 -27 0 -12 2 -12 9 0 10 15 -12 40 -34 40
-5 0 -2 -6 8 -13z"/>
<path d="M2600 6209 c0 -5 5 -7 10 -4 6 3 10 8 10 11 0 2 -4 4 -10 4 -5 0 -10
-5 -10 -11z"/>
<path d="M4016 6204 c-8 -20 -8 -24 2 -24 4 0 8 9 9 20 2 24 -3 26 -11 4z"/>
<path d="M2600 5389 c0 -5 5 -7 10 -4 6 3 10 8 10 11 0 2 -4 4 -10 4 -5 0 -10
-5 -10 -11z"/>
<path d="M3323 5163 c9 -2 23 -2 30 0 6 3 -1 5 -18 5 -16 0 -22 -2 -12 -5z"/>
<path d="M3448 5163 c12 -2 32 -2 45 0 12 2 2 4 -23 4 -25 0 -35 -2 -22 -4z"/>
<path d="M3908 5163 c23 -2 59 -2 80 0 20 2 1 4 -43 4 -44 0 -61 -2 -37 -4z"/>
<path d="M4083 5163 c31 -2 83 -2 115 0 31 2 5 3 -58 3 -63 0 -89 -1 -57 -3z"/>
<path d="M4413 5163 c15 -2 39 -2 55 0 15 2 2 4 -28 4 -30 0 -43 -2 -27 -4z"/>
<path d="M4588 5163 c23 -2 59 -2 80 0 20 2 1 4 -43 4 -44 0 -61 -2 -37 -4z"/>
<path d="M2600 4920 c0 -5 5 -10 11 -10 5 0 7 5 4 10 -3 6 -8 10 -11 10 -2 0
-4 -4 -4 -10z"/>
<path d="M2602 4360 c0 -14 2 -19 5 -12 2 6 2 18 0 25 -3 6 -5 1 -5 -13z"/>
<path d="M449 2818 c0 -640 0 -1188 -1 -1218 0 -30 0 -292 1 -582 l1 -528 73
2 72 2 -67 3 -68 4 0 1734 0 1734 28 4 c25 4 25 4 -5 6 l-33 1 -1 -1162z"/>
<path d="M733 3973 c15 -2 39 -2 55 0 15 2 2 4 -28 4 -30 0 -43 -2 -27 -4z"/>
<path d="M918 3973 c7 -3 16 -2 19 1 4 3 -2 6 -13 5 -11 0 -14 -3 -6 -6z"/>
<path d="M1278 3973 c7 -3 16 -2 19 1 4 3 -2 6 -13 5 -11 0 -14 -3 -6 -6z"/>
<path d="M1458 3973 c17 -2 47 -2 65 0 17 2 3 4 -33 4 -36 0 -50 -2 -32 -4z"/>
<path d="M1638 3973 c29 -2 74 -2 100 0 26 2 2 3 -53 3 -55 0 -76 -1 -47 -3z"/>
<path d="M1888 3973 c34 -2 88 -2 120 0 31 2 3 3 -63 3 -66 0 -92 -1 -57 -3z"/>
<path d="M2108 3973 c23 -2 61 -2 85 0 23 2 4 4 -43 4 -47 0 -66 -2 -42 -4z"/>
<path d="M2308 3973 c18 -2 45 -2 60 0 15 2 0 4 -33 4 -33 0 -45 -2 -27 -4z"/>
<path d="M2408 3973 c7 -3 16 -2 19 1 4 3 -2 6 -13 5 -11 0 -14 -3 -6 -6z"/>
<path d="M2477 3973 l42 -4 4 -52 3 -52 2 58 2 57 -47 -2 -48 -1 42 -4z"/>
<path d="M2519 3768 c0 -51 -2 -101 -4 -110 -2 -10 1 -20 6 -24 5 -3 9 43 9
110 0 64 -2 116 -5 116 -3 0 -5 -42 -6 -92z"/>
<path d="M2140 3320 c-8 -5 -12 -12 -9 -15 4 -3 12 1 19 10 14 17 11 19 -10 5z"/>
<path d="M2085 3291 c-3 -5 -2 -12 3 -15 5 -3 9 1 9 9 0 17 -3 19 -12 6z"/>
<path d="M1893 3125 c0 -8 4 -12 9 -9 5 3 6 10 3 15 -9 13 -12 11 -12 -6z"/>
<path d="M1770 3020 c-9 -6 -10 -10 -3 -10 6 0 15 5 18 10 8 12 4 12 -15 0z"/>
<path d="M1720 2980 c0 -5 -7 -10 -15 -10 -8 0 -15 -5 -15 -11 0 -5 -5 -7 -12
-3 -7 4 -8 3 -4 -4 4 -7 -3 -16 -17 -21 -14 -6 -28 -14 -31 -20 -10 -16 46 17
84 49 19 16 29 30 23 30 -7 0 -13 -4 -13 -10z"/>
<path d="M1559 2855 c-15 -8 -29 -21 -33 -30 -3 -8 -12 -15 -21 -15 -8 0 -15
-5 -15 -11 0 -5 -6 -7 -12 -3 -7 4 -10 4 -6 -1 4 -4 0 -14 -10 -22 -16 -13
-15 -13 3 -4 12 5 37 24 57 43 21 18 45 38 55 45 25 16 13 15 -18 -2z"/>
<path d="M1425 2750 c-3 -5 -1 -10 4 -10 6 0 11 5 11 10 0 6 -2 10 -4 10 -3 0
-8 -4 -11 -10z"/>
<path d="M1355 2690 c-3 -6 1 -7 9 -4 18 7 21 14 7 14 -6 0 -13 -4 -16 -10z"/>
<path d="M1296 2643 c-6 -14 -5 -15 5 -6 7 7 10 15 7 18 -3 3 -9 -2 -12 -12z"/>
<path d="M1210 2580 c-8 -5 -10 -10 -5 -10 6 0 17 5 25 10 8 5 11 10 5 10 -5
0 -17 -5 -25 -10z"/>
<path d="M705 2181 c-3 -5 -2 -12 3 -15 5 -3 9 1 9 9 0 17 -3 19 -12 6z"/>
<path d="M661 1454 c0 -11 3 -14 6 -6 3 7 2 16 -1 19 -3 4 -6 -2 -5 -13z"/>
<path d="M662 1060 c0 -14 2 -19 5 -12 2 6 2 18 0 25 -3 6 -5 1 -5 -13z"/>
<path d="M661 704 c0 -11 3 -14 6 -6 3 7 2 16 -1 19 -3 4 -6 -2 -5 -13z"/>
<path d="M662 635 c0 -16 2 -22 5 -12 2 9 2 23 0 30 -3 6 -5 -1 -5 -18z"/>
<path d="M661 534 c0 -11 3 -14 6 -6 3 7 2 16 -1 19 -3 4 -6 -2 -5 -13z"/>
<path d="M623 493 c9 -2 25 -2 35 0 9 3 1 5 -18 5 -19 0 -27 -2 -17 -5z"/>
<path d="M2604 3972 c5 -8 66 -4 66 4 0 2 -16 4 -36 4 -19 0 -33 -4 -30 -8z"/>
<path d="M2708 3973 c6 -2 18 -2 25 0 6 3 1 5 -13 5 -14 0 -19 -2 -12 -5z"/>
<path d="M2888 3973 c61 -2 163 -2 225 0 61 1 11 3 -113 3 -124 0 -174 -2
-112 -3z"/>
<path d="M3292 3973 c37 -2 100 -2 140 0 40 1 10 3 -67 3 -77 0 -110 -1 -73
-3z"/>
<path d="M3558 3973 c28 -2 76 -2 105 0 28 2 5 3 -53 3 -58 0 -81 -1 -52 -3z"/>
<path d="M3743 3973 c15 -2 39 -2 55 0 15 2 2 4 -28 4 -30 0 -43 -2 -27 -4z"/>
<path d="M4277 3973 l452 -3 4 -33 c4 -31 4 -31 5 6 l2 37 -457 -2 -458 -3
452 -2z"/>
<path d="M2603 3894 c0 -17 2 -22 7 -13 5 6 6 18 3 26 -8 19 -10 16 -10 -13z"/>
<path d="M2601 3814 c0 -11 3 -14 6 -6 3 7 2 16 -1 19 -3 4 -6 -2 -5 -13z"/>
<path d="M4178 3813 c6 -2 18 -2 25 0 6 3 1 5 -13 5 -14 0 -19 -2 -12 -5z"/>
<path d="M4732 3790 c0 -19 2 -27 5 -17 2 9 2 25 0 35 -3 9 -5 1 -5 -18z"/>
<path d="M2603 3735 c0 -27 2 -38 4 -22 2 15 2 37 0 50 -2 12 -4 0 -4 -28z"/>
<path d="M4733 3615 c0 -38 2 -53 4 -32 2 20 2 52 0 70 -2 17 -4 1 -4 -38z"/>
<path d="M2605 3630 c3 -5 8 -10 11 -10 2 0 4 5 4 10 0 6 -5 10 -11 10 -5 0
-7 -4 -4 -10z"/>
<path d="M2667 3589 c7 -7 15 -10 18 -7 3 3 -2 9 -12 12 -14 6 -15 5 -6 -5z"/>
<path d="M2701 3567 c2 -1 13 -9 24 -17 19 -14 19 -14 6 3 -7 9 -18 17 -24 17
-6 0 -8 -1 -6 -3z"/>
<path d="M2773 3520 c14 -11 28 -20 32 -20 4 0 -4 9 -18 20 -14 11 -28 20 -32
20 -4 0 4 -9 18 -20z"/>
<path d="M2820 3486 c0 -2 7 -7 16 -10 8 -3 12 -2 9 4 -6 10 -25 14 -25 6z"/>
<path d="M4733 3445 c0 -27 2 -38 4 -22 2 15 2 37 0 50 -2 12 -4 0 -4 -28z"/>
<path d="M2881 3447 c21 -18 99 -67 99 -63 0 7 -86 66 -96 66 -4 0 -5 -2 -3
-3z"/>
<path d="M4731 3374 c0 -11 3 -14 6 -6 3 7 2 16 -1 19 -3 4 -6 -2 -5 -13z"/>
<path d="M2991 3377 c2 -1 13 -9 24 -17 19 -14 19 -14 6 3 -7 9 -18 17 -24 17
-6 0 -8 -1 -6 -3z"/>
<path d="M2604 3175 c0 -99 2 -138 3 -87 2 51 2 132 0 180 -1 48 -3 6 -3 -93z"/>
<path d="M4731 3334 c0 -11 3 -14 6 -6 3 7 2 16 -1 19 -3 4 -6 -2 -5 -13z"/>
<path d="M3060 3326 c0 -2 7 -7 16 -10 8 -3 12 -2 9 4 -6 10 -25 14 -25 6z"/>
<path d="M4731 3072 c1 -133 5 -240 8 -236 7 7 2 466 -6 474 -2 2 -3 -105 -2
-238z"/>
<path d="M3120 3291 c0 -5 7 -12 16 -15 14 -5 15 -4 4 9 -14 17 -20 19 -20 6z"/>
<path d="M3181 3247 c2 -1 13 -9 24 -17 19 -14 19 -14 6 3 -7 9 -18 17 -24 17
-6 0 -8 -1 -6 -3z"/>
<path d="M3230 3215 c0 -2 10 -10 23 -16 20 -11 21 -11 8 4 -13 16 -31 23 -31
12z"/>
<path d="M3487 3049 c7 -7 15 -10 18 -7 3 3 -2 9 -12 12 -14 6 -15 5 -6 -5z"/>
<path d="M2605 1875 c0 -610 1 -859 2 -552 2 307 2 807 0 1110 -1 304 -2 53
-2 -558z"/>
<path d="M4735 2791 c-3 -5 -2 -12 3 -15 5 -3 9 1 9 9 0 17 -3 19 -12 6z"/>
<path d="M4742 2685 c0 -16 2 -22 5 -12 2 9 2 23 0 30 -3 6 -5 -1 -5 -18z"/>
<path d="M4739 2648 c-5 -14 -2 -93 3 -101 4 -7 8 14 8 46 0 31 -2 57 -5 57
-3 0 -5 -1 -6 -2z"/>
<path d="M4731 2434 c0 -11 3 -14 6 -6 3 7 2 16 -1 19 -3 4 -6 -2 -5 -13z"/>
<path d="M4730 2340 c0 -22 2 -40 4 -40 2 0 6 18 8 40 2 22 0 40 -4 40 -5 0
-8 -18 -8 -40z"/>
<path d="M4732 2270 c0 -14 2 -19 5 -12 2 6 2 18 0 25 -3 6 -5 1 -5 -13z"/>
<path d="M4731 2114 c0 -11 3 -14 6 -6 3 7 2 16 -1 19 -3 4 -6 -2 -5 -13z"/>
<path d="M4731 2014 c0 -11 3 -14 6 -6 3 7 2 16 -1 19 -3 4 -6 -2 -5 -13z"/>
<path d="M4731 1634 c0 -11 3 -14 6 -6 3 7 2 16 -1 19 -3 4 -6 -2 -5 -13z"/>
<path d="M4735 1340 c-3 -5 -1 -10 4 -10 6 0 11 5 11 10 0 6 -2 10 -4 10 -3 0
-8 -4 -11 -10z"/>
<path d="M4743 1220 c0 -41 2 -58 4 -37 2 20 2 54 0 75 -2 20 -4 3 -4 -38z"/>
<path d="M4737 1128 c-2 -7 -1 -22 3 -33 6 -16 8 -13 7 13 0 35 -2 39 -10 20z"/>
<path d="M4422 1025 c0 -16 2 -22 5 -12 2 9 2 23 0 30 -3 6 -5 -1 -5 -18z"/>
<path d="M4741 984 c0 -11 3 -14 6 -6 3 7 2 16 -1 19 -3 4 -6 -2 -5 -13z"/>
<path d="M4423 950 c0 -25 2 -35 4 -22 2 12 2 32 0 45 -2 12 -4 2 -4 -23z"/>
<path d="M4737 930 c-3 -11 -1 -23 4 -26 5 -3 9 6 9 20 0 31 -6 34 -13 6z"/>
<path d="M4423 860 c0 -25 2 -35 4 -22 2 12 2 32 0 45 -2 12 -4 2 -4 -23z"/>
<path d="M4738 804 c-1 -36 0 -71 4 -78 4 -6 8 24 8 67 0 42 -2 77 -4 77 -2 0
-6 -30 -8 -66z"/>
<path d="M2602 670 c0 -19 2 -27 5 -17 2 9 2 25 0 35 -3 9 -5 1 -5 -18z"/>
<path d="M4523 493 c15 -2 37 -2 50 0 12 2 0 4 -28 4 -27 0 -38 -2 -22 -4z"/>
<path d="M4628 493 c12 -2 32 -2 45 0 12 2 2 4 -23 4 -25 0 -35 -2 -22 -4z"/>
<path d="M4807 7034 c-4 -4 -5 -10 -3 -13 7 -10 316 -1 316 9 0 11 -303 14
-313 4z"/>
<path d="M4814 6795 c0 -49 1 -71 3 -48 2 23 2 64 0 90 -2 26 -3 8 -3 -42z"/>
<path d="M404 6635 c0 -121 2 -169 3 -107 2 62 2 161 0 220 -1 59 -3 8 -3
-113z"/>
<path d="M4813 6600 c0 -41 2 -58 4 -37 2 20 2 54 0 75 -2 20 -4 3 -4 -38z"/>
<path d="M4811 6504 c0 -11 3 -14 6 -6 3 7 2 16 -1 19 -3 4 -6 -2 -5 -13z"/>
<path d="M4811 6464 c0 -11 3 -14 6 -6 3 7 2 16 -1 19 -3 4 -6 -2 -5 -13z"/>
<path d="M403 6345 c0 -38 2 -53 4 -32 2 20 2 52 0 70 -2 17 -4 1 -4 -38z"/>
<path d="M402 6215 c0 -16 2 -22 5 -12 2 9 2 23 0 30 -3 6 -5 -1 -5 -18z"/>
<path d="M788 6203 c7 -3 16 -2 19 1 4 3 -2 6 -13 5 -11 0 -14 -3 -6 -6z"/>
<path d="M402 6160 c0 -14 2 -19 5 -12 2 6 2 18 0 25 -3 6 -5 1 -5 -13z"/>
<path d="M2388 6173 c7 -3 16 -2 19 1 4 3 -2 6 -13 5 -11 0 -14 -3 -6 -6z"/>
<path d="M402 6080 c0 -14 2 -19 5 -12 2 6 2 18 0 25 -3 6 -5 1 -5 -13z"/>
<path d="M608 6013 c7 -3 16 -2 19 1 4 3 -2 6 -13 5 -11 0 -14 -3 -6 -6z"/>
<path d="M421 5414 c0 -11 3 -14 6 -6 3 7 2 16 -1 19 -3 4 -6 -2 -5 -13z"/>
<path d="M453 4090 c0 -30 2 -43 4 -27 2 15 2 39 0 55 -2 15 -4 2 -4 -28z"/>
<path d="M298 3993 c6 -2 18 -2 25 0 6 3 1 5 -13 5 -14 0 -19 -2 -12 -5z"/>
<path d="M346 3988 c3 -4 14 -8 25 -8 10 0 19 4 19 8 0 4 -11 8 -24 8 -14 0
-22 -4 -20 -8z"/>
<path d="M4818 3993 c12 -2 30 -2 40 0 9 3 -1 5 -23 4 -22 0 -30 -2 -17 -4z"/>
<path d="M718 423 c7 -3 16 -2 19 1 4 3 -2 6 -13 5 -11 0 -14 -3 -6 -6z"/>
<path d="M1197 423 c248 -2 658 -2 910 0 252 1 49 2 -452 2 -500 0 -707 -1
-458 -2z"/>
<path d="M691 369 c-6 -18 -9 -34 -7 -36 2 -2 9 10 15 28 6 18 9 34 7 36 -2 2
-9 -10 -15 -28z"/>
<path d="M2554 205 c0 -104 2 -146 3 -92 2 54 2 139 0 190 -1 51 -3 7 -3 -98z"/>
<path d="M591 104 c-12 -25 -20 -51 -18 -57 2 -7 10 6 17 28 7 22 17 46 23 53
5 7 8 15 5 18 -3 2 -15 -16 -27 -42z"/>
</g>
</svg>
