<?xml version="1.0" standalone="no"?>
<!DOCTYPE svg PUBLIC "-//W3C//DTD SVG 20010904//EN"
 "http://www.w3.org/TR/2001/REC-SVG-20010904/DTD/svg10.dtd">
<svg version="1.0" xmlns="http://www.w3.org/2000/svg"
 width="512.000000pt" height="768.000000pt" viewBox="0 0 512.000000 768.000000"
 preserveAspectRatio="xMidYMid meet">
<metadata>
Created by potrace 1.16, written by Peter Selinger 2001-2019
</metadata>
<g transform="translate(0.000000,768.000000) scale(0.100000,-0.100000)"
fill="#000000" stroke="none">
<path d="M0 7395 l0 -285 320 0 320 0 0 -970 0 -970 700 0 700 0 -1 738 c0
405 0 842 0 970 l1 232 1304 0 1305 0 6 -42 c4 -24 5 -63 3 -88 l-3 -45 -62
-3 -63 -3 0 -879 0 -880 65 0 65 0 0 -57 0 -58 230 -3 230 -3 0 1315 0 1316
-2560 0 -2560 0 0 -285z m671 208 c-4 -28 -6 -32 -9 -15 -3 22 3 52 11 52 1 0
1 -17 -2 -37z m77 25 c14 -14 16 -44 4 -52 -4 -2 -8 8 -7 22 0 18 -5 27 -15
27 -10 0 -15 -10 -15 -27 1 -16 -3 -28 -7 -28 -12 0 -9 45 4 58 7 7 15 12 18
12 3 0 11 -5 18 -12z m1076 3 c3 -5 -6 -8 -20 -8 -19 0 -22 2 -13 8 18 11 26
11 33 0z m82 -3 c5 -7 2 -9 -8 -5 -24 9 -30 -4 -10 -19 16 -12 15 -13 -5 -14
-16 0 -23 6 -23 19 0 27 33 41 46 19z m101 -40 c-2 -13 -4 -5 -4 17 -1 22 1
32 4 23 2 -10 2 -28 0 -40z m63 42 c0 -5 -5 -9 -12 -7 -7 1 -15 -11 -19 -28
l-7 -30 -1 32 c-1 28 8 40 32 42 4 1 7 -3 7 -9z m-1240 -15 c0 -8 -2 -15 -4
-15 -2 0 -6 7 -10 15 -3 8 -1 15 4 15 6 0 10 -7 10 -15z m90 11 c0 -2 -9 -6
-20 -9 -11 -3 -20 -1 -20 4 0 5 9 9 20 9 11 0 20 -2 20 -4z m50 -6 c0 -5 -2
-10 -4 -10 -3 0 -8 5 -11 10 -3 6 -1 10 4 10 6 0 11 -4 11 -10z m110 -20 c0
-16 -2 -30 -4 -30 -2 0 -6 14 -8 30 -3 17 -1 30 4 30 4 0 8 -13 8 -30z m30 -2
c0 -36 -10 -32 -14 6 -2 14 1 26 5 26 5 0 9 -14 9 -32z m30 22 c0 -5 -2 -10
-4 -10 -3 0 -8 5 -11 10 -3 6 -1 10 4 10 6 0 11 -4 11 -10z m27 -37 c-3 -10
-5 -2 -5 17 0 19 2 27 5 18 2 -10 2 -26 0 -35z m28 18 c0 -16 -3 -27 -7 -24
-5 2 -8 15 -8 29 0 13 3 24 8 24 4 0 7 -13 7 -29z m143 -4 c2 -15 -1 -27 -6
-27 -6 0 -8 9 -5 21 4 12 0 25 -8 31 -12 8 -11 9 1 5 8 -2 16 -16 18 -30z m92
24 c0 -5 -9 -7 -20 -4 -11 3 -20 7 -20 9 0 2 9 4 20 4 11 0 20 -4 20 -9z m48
2 c-9 -2 -19 -16 -21 -31 -4 -24 -4 -24 -6 6 -1 27 2 32 22 31 15 -1 17 -3 5
-6z m58 -15 c-1 -26 32 -38 45 -16 7 10 9 9 9 -4 0 -12 -8 -18 -24 -18 -28 0
-51 24 -42 45 8 21 13 19 12 -7z m51 16 c-3 -3 -12 -4 -19 -1 -8 3 -5 6 6 6
11 1 17 -2 13 -5z m54 -1 c-19 -4 -21 -7 -10 -15 12 -8 12 -9 0 -6 -28 8 -24
28 6 27 26 -2 26 -2 4 -6z m50 -20 c-8 -15 -10 -15 -11 -2 0 17 10 32 18 25 2
-3 -1 -13 -7 -23z m59 17 c0 -5 -7 -7 -15 -4 -8 4 -15 8 -15 10 0 2 7 4 15 4
8 0 15 -4 15 -10z m178 -20 c-1 -16 -6 -30 -11 -30 -5 0 -6 7 -3 16 3 9 6 22
6 30 0 8 2 14 5 14 3 0 4 -13 3 -30z m49 8 c-3 -8 -6 -5 -6 6 -1 11 2 17 5 13
3 -3 4 -12 1 -19z m-1041 -23 c-3 -8 -11 -15 -18 -14 -10 0 -10 2 0 6 6 2 12
14 13 26 0 12 3 16 6 9 3 -7 2 -19 -1 -27z m372 -1 c-3 -14 -5 -12 -10 9 -3
19 -2 25 4 19 6 -6 8 -18 6 -28z m-32 8 c-15 -3 -16 -6 -5 -13 9 -6 10 -9 2
-9 -6 0 -15 5 -18 10 -10 16 4 30 23 22 15 -6 15 -7 -2 -10z m218 -15 c7 -6 6
-7 -4 -4 -8 2 -16 12 -17 23 -2 13 -1 15 4 4 3 -8 11 -19 17 -23z m308 3 c15
0 18 4 13 18 -5 14 -4 15 6 5 10 -10 10 -16 2 -24 -15 -15 -48 -7 -49 11 0 9
1 10 3 3 3 -7 14 -13 25 -13z m158 20 c0 -5 -2 -10 -4 -10 -3 0 -8 5 -11 10
-3 6 -1 10 4 10 6 0 11 -4 11 -10z m113 -5 c4 -8 1 -17 -6 -21 -7 -4 -9 -4 -5
1 4 4 3 14 -3 22 -7 8 -8 13 -1 13 5 0 12 -7 15 -15z m-1206 -17 c-3 -8 -6 -5
-6 6 -1 11 2 17 5 13 3 -3 4 -12 1 -19z m30 7 c0 -8 -4 -15 -9 -15 -4 0 -8 7
-8 15 0 8 4 15 8 15 5 0 9 -7 9 -15z m531 -2 c2 -8 -5 -13 -20 -12 -20 1 -21
2 -3 7 l20 5 -20 8 c-19 8 -19 9 -1 6 11 -1 21 -8 24 -14z m247 -5 c6 -4 2 -8
-7 -8 -10 0 -18 7 -18 17 0 9 3 12 8 7 4 -5 12 -12 17 -16z m32 0 c-3 -8 -6
-5 -6 6 -1 11 2 17 5 13 3 -3 4 -12 1 -19z m-567 2 c0 -5 -5 -10 -11 -10 -5 0
-7 5 -4 10 3 6 8 10 11 10 2 0 4 -4 4 -10z m-97 -7 c-7 -2 -21 -2 -30 0 -10 3
-4 5 12 5 17 0 24 -2 18 -5z m-67 -479 c-9 -9 -29 -32 -44 -52 -40 -54 -49
-62 -64 -57 -20 8 -48 63 -48 96 l0 29 86 0 c78 0 84 -1 70 -16z m416 -135
c-2 -13 -10 -31 -18 -40 -8 -8 -14 -30 -14 -47 0 -50 -49 -82 -105 -68 -53 13
-15 90 79 158 45 33 62 32 58 -3z m-447 -99 c-6 -10 -55 0 -55 11 0 4 8 13 18
18 13 8 20 6 29 -6 7 -9 10 -19 8 -23z m764 -106 c7 -6 -49 -85 -57 -80 -5 3
-19 -18 -31 -45 -13 -27 -29 -48 -35 -46 -14 5 -37 87 -30 109 7 23 38 32 64
18 17 -9 22 -7 30 15 6 15 10 31 10 36 0 9 37 3 49 -7z"/>
<path d="M2200 6950 c0 -27 3 -30 29 -28 20 1 32 9 36 23 6 19 7 19 15 -5 4
-14 9 -18 9 -10 1 13 2 13 11 0 13 -20 23 -6 15 21 -6 17 -9 19 -16 8 -7 -12
-9 -12 -9 0 0 7 -6 11 -15 7 -8 -3 -15 -1 -15 4 0 6 -8 10 -17 10 -17 -1 -17
-1 0 -11 14 -8 16 -14 6 -25 -13 -16 -39 -19 -39 -5 0 5 8 12 18 14 16 4 16 5
-1 6 -10 0 -15 6 -12 11 3 6 1 10 -4 10 -6 0 -11 -14 -11 -30z"/>
<path d="M2360 6949 c0 -16 4 -29 9 -29 5 0 7 9 4 20 -3 11 -1 20 5 20 6 0 13
-10 15 -22 4 -21 4 -20 6 3 1 19 -5 28 -19 32 -17 4 -20 0 -20 -24z"/>
<path d="M2487 6973 c-4 -3 -7 -17 -7 -30 0 -18 5 -23 23 -22 16 1 18 2 5 6
-16 4 -16 6 -3 19 8 9 15 20 15 25 0 10 -23 12 -33 2z m23 -7 c0 -3 -4 -8 -10
-11 -5 -3 -10 -1 -10 4 0 6 5 11 10 11 6 0 10 -2 10 -4z"/>
<path d="M2727 6973 c-4 -3 -7 -17 -7 -30 0 -16 6 -23 18 -22 11 0 12 2 4 6
-10 4 -9 8 3 17 15 10 15 14 2 24 -7 6 -17 9 -20 5z"/>
<path d="M2777 6973 c-4 -3 -7 -18 -6 -32 0 -14 3 -20 6 -12 4 11 7 11 14 0 4
-7 11 -11 14 -7 3 3 -1 13 -10 21 -17 17 -20 32 -5 22 6 -3 10 -1 10 4 0 12
-13 14 -23 4z"/>
<path d="M2846 6972 c-9 -14 6 -52 20 -52 17 0 27 17 15 24 -5 4 -12 0 -14 -6
-3 -7 -6 -3 -6 10 -1 15 3 21 11 16 7 -4 8 -3 4 4 -8 14 -23 16 -30 4z"/>
<path d="M2962 6951 c1 -17 6 -31 10 -31 12 0 10 48 -2 55 -6 4 -10 -5 -8 -24z"/>
<path d="M3010 6970 c0 -5 5 -10 11 -10 5 0 7 5 4 10 -3 6 -8 10 -11 10 -2 0
-4 -4 -4 -10z"/>
<path d="M3044 6966 c-3 -8 -4 -23 -1 -33 3 -12 6 -7 7 12 l2 30 8 -30 8 -30
1 33 c1 32 -15 44 -25 18z"/>
<path d="M3101 6968 c-1 -9 -4 -25 -7 -35 -5 -15 -4 -15 5 -3 9 12 11 13 11 1
0 -8 2 -12 5 -10 2 3 0 18 -4 35 -5 16 -10 21 -10 12z"/>
<path d="M2330 6943 c0 -21 3 -24 9 -14 5 8 7 20 4 28 -8 21 -13 15 -13 -14z"/>
<path d="M2421 6943 c0 -16 3 -22 6 -15 2 6 9 12 14 12 6 0 7 -4 4 -10 -3 -5
-1 -10 4 -10 6 0 11 11 11 25 0 18 -5 25 -20 25 -15 0 -20 -6 -19 -27z"/>
<path d="M2562 6945 c0 -16 2 -22 5 -12 2 9 2 23 0 30 -3 6 -5 -1 -5 -18z"/>
<path d="M2603 6958 c-17 -23 -25 -44 -9 -24 14 17 16 18 16 3 0 -9 4 -17 9
-17 5 0 7 10 4 23 -4 18 -3 19 6 7 9 -13 11 -13 11 3 0 20 -23 23 -37 5z"/>
<path d="M2656 6954 c-3 -9 -4 -20 0 -25 14 -23 57 2 47 27 -7 19 -39 18 -47
-2z m34 -9 c0 -8 -7 -15 -15 -15 -9 0 -12 6 -9 15 4 8 10 15 15 15 5 0 9 -7 9
-15z"/>
<path d="M2896 6961 c-12 -18 6 -41 30 -39 19 2 24 8 23 28 0 25 0 25 -9 3
-12 -28 -34 -31 -27 -3 5 20 -7 28 -17 11z"/>
<path d="M2991 6954 c0 -11 3 -14 6 -6 3 7 2 16 -1 19 -3 4 -6 -2 -5 -13z"/>
<path d="M3011 6934 c0 -11 3 -14 6 -6 3 7 2 16 -1 19 -3 4 -6 -2 -5 -13z"/>
<path d="M2208 6795 c-3 -14 -1 -25 3 -25 5 0 9 6 9 13 0 8 4 7 10 -3 5 -8 10
-10 10 -5 -1 6 -7 18 -14 28 -13 16 -14 16 -18 -8z"/>
<path d="M2257 6806 c-4 -10 -1 -13 8 -9 8 3 12 9 9 14 -7 12 -11 11 -17 -5z"/>
<path d="M2595 6810 c-3 -5 -2 -17 3 -26 8 -14 10 -12 14 10 5 26 -5 35 -17
16z"/>
<path d="M2630 6795 c0 -14 2 -25 4 -25 2 0 6 11 8 25 3 14 1 25 -3 25 -5 0
-9 -11 -9 -25z"/>
<path d="M2812 6795 c0 -16 2 -22 5 -12 2 9 2 23 0 30 -3 6 -5 -1 -5 -18z"/>
<path d="M2913 6813 c-7 -3 -13 -14 -12 -26 0 -22 0 -22 10 1 5 13 14 20 20
17 6 -4 8 -14 5 -22 -3 -8 -1 -11 4 -8 25 16 2 48 -27 38z"/>
<path d="M2970 6810 c0 -5 5 -10 10 -10 6 0 10 5 10 10 0 6 -4 10 -10 10 -5 0
-10 -4 -10 -10z"/>
<path d="M3016 6803 c-4 -9 -1 -21 5 -27 9 -8 10 -8 5 2 -4 7 -2 19 4 27 7 9
8 15 2 15 -5 0 -13 -8 -16 -17z"/>
<path d="M3132 6795 c0 -16 2 -22 5 -12 2 9 2 23 0 30 -3 6 -5 -1 -5 -18z"/>
<path d="M3154 6805 c-3 -8 -3 -19 1 -25 11 -18 25 -11 25 15 0 27 -17 34 -26
10z m13 -17 c-3 -8 -6 -5 -6 6 -1 11 2 17 5 13 3 -3 4 -12 1 -19z"/>
<path d="M2295 6800 c-8 -14 3 -30 21 -30 8 0 14 9 14 20 0 21 -24 28 -35 10z
m25 -10 c0 -5 -5 -10 -11 -10 -5 0 -7 5 -4 10 3 6 8 10 11 10 2 0 4 -4 4 -10z"/>
<path d="M2397 6795 c-4 -8 -2 -17 3 -20 6 -4 10 3 10 14 0 25 -6 27 -13 6z"/>
<path d="M2424 6790 c0 -13 4 -16 10 -10 7 7 7 13 0 20 -6 6 -10 3 -10 -10z"/>
<path d="M2451 6788 c1 -18 2 -19 6 -5 2 9 9 15 14 12 5 -4 9 -1 9 4 0 6 -7
11 -15 11 -9 0 -15 -9 -14 -22z"/>
<path d="M2502 6790 c0 -14 2 -19 5 -12 2 6 2 18 0 25 -3 6 -5 1 -5 -13z"/>
<path d="M2520 6788 c0 -10 5 -18 11 -18 5 0 8 4 4 9 -3 5 -1 12 4 15 5 4 12
-2 14 -11 4 -14 5 -13 6 4 1 16 -4 21 -19 20 -12 -1 -20 -8 -20 -19z"/>
<path d="M2656 6795 c-9 -26 -7 -32 5 -12 6 10 9 21 6 23 -2 3 -7 -2 -11 -11z"/>
<path d="M2686 6794 c-20 -20 -21 -19 17 -21 17 0 26 1 20 4 -7 2 -13 9 -13
14 0 14 28 11 33 -3 3 -8 6 -6 6 5 1 22 -41 23 -63 1z"/>
<path d="M2782 6790 c0 -14 2 -19 5 -12 2 6 2 18 0 25 -3 6 -5 1 -5 -13z"/>
<path d="M2838 6805 c-13 -13 4 -35 28 -35 17 0 24 6 24 20 0 11 -4 20 -10 20
-5 0 -7 -7 -4 -15 4 -9 0 -15 -9 -15 -9 0 -17 7 -19 16 -2 9 -6 13 -10 9z"/>
<path d="M3062 6790 c0 -14 2 -19 5 -12 2 6 2 18 0 25 -3 6 -5 1 -5 -13z"/>
<path d="M2341 6784 c0 -11 3 -14 6 -6 3 7 2 16 -1 19 -3 4 -6 -2 -5 -13z"/>
<path d="M2761 6784 c0 -11 3 -14 6 -6 3 7 2 16 -1 19 -3 4 -6 -2 -5 -13z"/>
<path d="M3080 6780 c0 -6 7 -10 15 -10 8 0 15 2 15 4 0 2 -7 6 -15 10 -8 3
-15 1 -15 -4z"/>
<path d="M3281 6654 c0 -11 3 -14 6 -6 3 7 2 16 -1 19 -3 4 -6 -2 -5 -13z"/>
<path d="M2491 6414 c0 -11 3 -14 6 -6 3 7 2 16 -1 19 -3 4 -6 -2 -5 -13z"/>
<path d="M3651 6414 c0 -11 3 -14 6 -6 3 7 2 16 -1 19 -3 4 -6 -2 -5 -13z"/>
<path d="M3721 6414 c0 -11 3 -14 6 -6 3 7 2 16 -1 19 -3 4 -6 -2 -5 -13z"/>
<path d="M2225 6060 c2 -27 15 -38 15 -12 0 11 -4 23 -8 26 -5 3 -8 -4 -7 -14z"/>
<path d="M2202 6045 c0 -16 2 -22 5 -12 2 9 2 23 0 30 -3 6 -5 -1 -5 -18z"/>
<path d="M2257 6063 c-4 -3 -7 -13 -7 -22 1 -13 3 -13 11 2 11 19 8 33 -4 20z"/>
<path d="M2308 6063 c6 -2 12 -9 12 -14 0 -6 -4 -7 -10 -4 -6 4 -7 -1 -3 -11
5 -15 7 -15 15 0 10 18 3 36 -15 35 -9 0 -9 -2 1 -6z"/>
<path d="M2344 6055 c-3 -8 -4 -20 -1 -27 3 -7 6 -3 6 10 1 12 5 22 10 22 5 0
12 -10 14 -22 4 -20 4 -19 6 5 1 29 -25 39 -35 12z"/>
<path d="M2410 6060 c0 -5 5 -10 10 -10 6 0 10 5 10 10 0 6 -4 10 -10 10 -5 0
-10 -4 -10 -10z"/>
<path d="M2461 6062 c0 -7 -5 -10 -11 -7 -6 3 -10 -4 -10 -17 0 -18 2 -20 9
-9 7 11 13 12 23 3 11 -9 14 -6 15 11 2 16 0 18 -6 8 -7 -11 -10 -10 -14 5 -2
10 -5 13 -6 6z"/>
<path d="M2500 6046 c0 -31 6 -34 13 -6 3 11 1 23 -4 26 -5 3 -9 -6 -9 -20z"/>
<path d="M2534 6055 c-16 -13 -17 -16 -4 -25 21 -14 34 -7 38 18 4 26 -7 28
-34 7z m22 -22 c-4 -4 -12 -1 -19 7 -9 10 -9 11 1 6 7 -4 12 -2 13 6 0 11 2
11 6 0 3 -7 2 -16 -1 -19z"/>
<path d="M2603 6054 c-8 -21 13 -42 28 -27 13 13 5 43 -11 43 -6 0 -13 -7 -17
-16z m27 -9 c0 -8 -4 -15 -10 -15 -5 0 -10 7 -10 15 0 8 5 15 10 15 6 0 10 -7
10 -15z"/>
<path d="M2657 6057 c-2 -6 2 -18 9 -25 8 -7 14 -8 14 -3 0 5 3 16 6 25 4 10
1 16 -9 16 -8 0 -17 -6 -20 -13z"/>
<path d="M2714 6055 c-6 -15 2 -35 14 -35 4 0 13 4 21 9 12 8 12 12 2 25 -17
20 -30 20 -37 1z m22 -22 c-10 -10 -19 5 -10 18 6 11 8 11 12 0 2 -7 1 -15 -2
-18z"/>
<path d="M2772 6045 c0 -16 2 -22 5 -12 2 9 2 23 0 30 -3 6 -5 -1 -5 -18z"/>
<path d="M2830 6050 c0 -22 -16 -27 -23 -7 -2 7 -3 6 -3 -3 2 -23 28 -18 37 8
5 13 5 22 -1 22 -6 0 -10 -9 -10 -20z"/>
<path d="M2871 6047 c-1 -32 22 -33 26 -1 3 18 2 18 -6 -1 -8 -19 -9 -18 -13
5 -5 24 -5 24 -7 -3z"/>
<path d="M2276 6051 c-4 -7 -5 -15 -2 -18 9 -9 19 4 14 18 -4 11 -6 11 -12 0z"/>
<path d="M2915 6049 c-11 -16 -1 -19 13 -3 7 8 8 14 3 14 -5 0 -13 -5 -16 -11z"/>
<path d="M2943 6045 c-17 -19 -16 -25 2 -25 8 0 15 9 15 20 0 23 -1 24 -17 5z"/>
<path d="M2981 6044 c0 -11 3 -14 6 -6 3 7 2 16 -1 19 -3 4 -6 -2 -5 -13z"/>
<path d="M3000 6038 c0 -22 13 -23 33 -3 12 11 17 12 20 2 4 -8 6 -6 6 4 1 11
-8 16 -29 16 -22 0 -30 -5 -30 -19z"/>
<path d="M2207 5923 c-10 -10 -8 -43 2 -43 5 0 8 8 7 18 -2 9 4 20 13 24 14 6
14 7 0 7 -9 1 -19 -2 -22 -6z"/>
<path d="M3182 5905 c0 -16 2 -22 5 -12 2 9 2 23 0 30 -3 6 -5 -1 -5 -18z"/>
<path d="M3216 5913 c-4 -9 -1 -21 5 -27 9 -8 10 -7 4 3 -4 7 -2 16 5 21 8 5
8 10 2 14 -5 3 -13 -2 -16 -11z"/>
<path d="M3317 5923 c-9 -9 -9 -43 1 -43 4 0 7 11 7 25 0 14 0 25 -1 25 0 0
-4 -3 -7 -7z"/>
<path d="M2255 5911 c-3 -5 -1 -12 4 -15 5 -4 12 0 14 6 3 7 6 4 6 -7 1 -17 3
-17 11 -5 5 8 10 18 10 23 0 10 -38 9 -45 -2z"/>
<path d="M2335 5910 c3 -5 8 -10 11 -10 2 0 4 5 4 10 0 6 -5 10 -11 10 -5 0
-7 -4 -4 -10z"/>
<path d="M2366 5905 c-3 -8 -1 -15 4 -15 6 0 10 5 10 11 0 5 5 7 10 4 6 -3 10
-1 10 4 0 17 -27 13 -34 -4z"/>
<path d="M2425 5909 c-4 -6 -4 -13 -1 -16 3 -4 6 0 7 8 0 8 4 6 9 -6 8 -19 9
-19 9 3 1 23 -13 30 -24 11z"/>
<path d="M2460 5900 c0 -11 5 -20 11 -20 5 0 7 5 3 11 -3 6 0 15 7 20 11 7 10
9 -3 9 -11 0 -18 -8 -18 -20z"/>
<path d="M2517 5914 c-6 -10 9 -42 16 -34 3 3 1 14 -3 24 -3 11 -9 15 -13 10z"/>
<path d="M2607 5900 c3 -11 7 -20 9 -20 2 0 4 9 4 20 0 11 -4 20 -9 20 -5 0
-7 -9 -4 -20z"/>
<path d="M2650 5900 c0 -11 2 -20 4 -20 2 0 6 9 9 20 3 11 1 20 -4 20 -5 0 -9
-9 -9 -20z"/>
<path d="M2775 5909 c-4 -5 -1 -8 7 -7 7 2 12 -3 10 -10 -1 -8 2 -11 8 -7 5 3
10 10 10 15 0 12 -29 20 -35 9z"/>
<path d="M2945 5911 c-3 -5 -1 -12 4 -15 5 -3 11 1 15 9 6 16 -9 21 -19 6z"/>
<path d="M3002 5900 c0 -14 2 -19 5 -12 2 6 2 18 0 25 -3 6 -5 1 -5 -13z"/>
<path d="M3132 5900 c0 -14 2 -19 5 -12 2 6 2 18 0 25 -3 6 -5 1 -5 -13z"/>
<path d="M3277 5914 c-3 -3 -3 -13 0 -21 5 -12 7 -12 14 -1 15 23 4 40 -14 22z"/>
<path d="M2550 5894 c0 -8 5 -12 10 -9 6 3 10 10 10 16 0 5 -4 9 -10 9 -5 0
-10 -7 -10 -16z"/>
<path d="M2581 5894 c0 -11 3 -14 6 -6 3 7 2 16 -1 19 -3 4 -6 -2 -5 -13z"/>
<path d="M2681 5894 c0 -11 3 -14 6 -6 3 7 2 16 -1 19 -3 4 -6 -2 -5 -13z"/>
<path d="M2700 5901 c0 -6 4 -13 10 -16 6 -3 7 1 4 9 -7 18 -14 21 -14 7z"/>
<path d="M2881 5894 c0 -11 3 -14 6 -6 3 7 2 16 -1 19 -3 4 -6 -2 -5 -13z"/>
<path d="M3021 5894 c0 -11 3 -14 6 -6 3 7 2 16 -1 19 -3 4 -6 -2 -5 -13z"/>
<path d="M3050 5901 c0 -6 4 -13 10 -16 6 -3 7 1 4 9 -7 18 -14 21 -14 7z"/>
<path d="M3092 5899 c2 -6 8 -10 13 -10 5 0 11 4 13 10 2 6 -4 11 -13 11 -9 0
-15 -5 -13 -11z"/>
<path d="M3250 5901 c0 -6 4 -13 10 -16 6 -3 7 1 4 9 -7 18 -14 21 -14 7z"/>
<path d="M2477 5263 c-10 -9 -9 -53 1 -53 4 0 8 14 8 30 2 32 1 34 -9 23z"/>
<path d="M2852 5240 c0 -19 2 -27 5 -17 2 9 2 25 0 35 -3 9 -5 1 -5 -18z"/>
<path d="M2200 5235 c0 -14 5 -25 11 -25 5 0 7 5 3 12 -7 11 -5 11 45 -10 9
-3 12 -1 7 6 -3 6 -2 13 4 17 5 3 10 -1 10 -9 0 -9 9 -16 20 -16 15 0 20 6 19
28 -2 23 -2 24 -6 5 -7 -36 -30 -26 -24 10 2 11 -6 9 -22 -7 -15 -15 -61 -10
-51 5 3 5 0 9 -5 9 -6 0 -11 -11 -11 -25z"/>
<path d="M2403 5253 c-7 -2 -13 -14 -12 -26 l0 -22 11 23 c14 27 32 29 25 2
-3 -11 -1 -20 4 -20 5 0 9 11 9 25 0 24 -11 29 -37 18z"/>
<path d="M2504 5234 c-1 -13 2 -21 7 -18 11 6 12 31 2 37 -5 3 -9 -6 -9 -19z"/>
<path d="M2537 5253 c-4 -3 -7 -16 -6 -27 0 -19 1 -19 10 3 10 24 8 36 -4 24z"/>
<path d="M2578 5254 c-4 -3 -4 -13 -1 -22 5 -11 3 -13 -7 -7 -8 5 -11 4 -6 -3
3 -5 20 -10 38 -9 24 2 32 7 35 25 2 18 -1 23 -14 20 -9 -2 -18 -9 -19 -16 -1
-7 0 -8 3 -2 7 15 20 12 20 -5 0 -22 -26 -18 -35 5 -4 12 -11 18 -14 14z"/>
<path d="M2671 5233 l1 -28 7 25 8 25 5 -25 c4 -22 5 -23 13 -6 5 12 3 21 -6
27 -23 14 -29 10 -28 -18z"/>
<path d="M2722 5235 c0 -16 2 -22 5 -12 2 9 2 23 0 30 -3 6 -5 -1 -5 -18z"/>
<path d="M2747 5253 c-10 -9 -9 -43 1 -43 4 0 8 11 8 25 0 28 0 28 -9 18z"/>
<path d="M2770 5235 c0 -24 2 -27 11 -15 8 11 12 12 16 3 2 -7 12 -13 21 -12
11 0 12 2 5 6 -16 6 -17 33 -1 33 6 0 8 3 5 6 -4 4 -14 1 -23 -6 -13 -12 -17
-11 -25 1 -6 10 -9 6 -9 -16z"/>
<path d="M2874 5246 c-6 -16 2 -36 16 -36 4 0 6 9 3 20 -5 20 11 28 20 10 3
-6 4 -5 3 2 -4 19 -35 22 -42 4z"/>
<path d="M2930 5250 c0 -5 7 -7 15 -4 8 4 15 8 15 10 0 2 -7 4 -15 4 -8 0 -15
-4 -15 -10z"/>
<path d="M2337 5243 c-10 -9 -9 -33 1 -33 4 0 8 9 9 20 2 21 0 24 -10 13z"/>
<path d="M2360 5232 c0 -12 4 -22 9 -22 10 0 9 26 -2 36 -4 4 -7 -2 -7 -14z"/>
<path d="M2930 5220 c0 -6 7 -10 15 -10 8 0 15 2 15 4 0 2 -7 6 -15 10 -8 3
-15 1 -15 -4z"/>
<path d="M2203 5095 c-3 -9 -3 -18 -1 -21 3 -3 8 4 11 16 6 23 -1 27 -10 5z"/>
<path d="M2251 5084 c0 -11 3 -14 6 -6 3 7 2 16 -1 19 -3 4 -6 -2 -5 -13z"/>
<path d="M2901 4954 c0 -11 3 -14 6 -6 3 7 2 16 -1 19 -3 4 -6 -2 -5 -13z"/>
<path d="M3101 4954 c0 -11 3 -14 6 -6 3 7 2 16 -1 19 -3 4 -6 -2 -5 -13z"/>
<path d="M2315 4819 c-4 -6 -5 -12 -2 -15 2 -3 7 2 10 11 7 17 1 20 -8 4z"/>
<path d="M2182 4502 c-22 -3 -24 -8 -20 -52 l3 -47 -95 -6 c-52 -3 -389 -3
-747 0 l-653 6 0 -627 0 -626 455 0 c357 0 455 3 455 13 0 6 -31 46 -68 87
-37 41 -89 103 -115 136 l-46 61 75 7 c112 10 155 -17 213 -132 12 -23 19 -47
16 -52 -11 -18 129 82 174 124 24 23 56 59 72 80 l29 39 85 1 c97 2 97 2 183
-114 23 -30 53 -69 67 -86 14 -18 28 -49 31 -70 l5 -39 -15 40 c-9 22 -16 41
-16 43 -1 12 -29 -6 -69 -43 l-49 -46 -37 43 c-20 24 -46 62 -58 86 -12 23
-24 42 -28 42 -16 0 -63 -46 -75 -74 -7 -17 -26 -46 -42 -65 l-29 -35 -41 17
c-52 21 -57 21 -75 2 -26 -26 -10 -52 36 -59 23 -3 644 -9 1380 -13 l1337 -6
0 -794 0 -793 -1160 0 -1161 0 1 -392 c0 -216 1 -433 0 -481 l0 -88 -875 3
-876 3 3 -35 3 -35 2098 -3 2097 -2 0 -260 0 -260 235 0 235 0 0 2235 0 2235
-229 0 c-222 0 -229 1 -234 20 l-5 21 -1224 -3 c-673 -2 -1234 -4 -1246 -6z
m2452 -38 c3 -9 6 -49 6 -90 l0 -74 -54 0 -55 0 -5 53 c-5 42 -3 111 3 125 1
1 23 2 50 2 35 0 51 -4 55 -16z m-2841 -171 c31 -33 40 -37 94 -41 43 -3 69 0
92 12 42 22 47 8 28 -86 -31 -148 -81 -239 -195 -358 -37 -38 -53 -48 -69 -44
-39 10 -36 34 7 71 22 19 38 39 35 43 -3 5 6 21 21 35 14 14 25 27 23 29 -21
13 -67 26 -94 26 -19 0 -35 5 -35 10 0 6 9 10 20 10 11 0 20 5 20 12 0 6 10
22 23 36 l22 24 -26 -7 c-20 -5 -33 -1 -53 18 -14 14 -24 31 -21 38 6 18 13
84 14 132 1 36 28 77 51 77 5 0 25 -17 43 -37z m-163 -83 c9 -22 9 -37 1 -61
-16 -47 -14 -84 9 -122 18 -31 19 -35 4 -41 -41 -16 -79 -6 -104 27 -75 96
-106 162 -94 199 5 17 32 23 125 26 43 2 48 0 59 -28z m40 -100 c0 -5 -4 -10
-10 -10 -5 0 -10 5 -10 10 0 6 5 10 10 10 6 0 10 -4 10 -10z m577 -912 c-3 -8
-6 -5 -6 6 -1 11 2 17 5 13 3 -3 4 -12 1 -19z"/>
<path d="M4375 3050 c-4 -6 -1 -25 5 -44 9 -27 15 -32 34 -29 23 5 36 27 36
66 0 21 -14 22 -35 1 -12 -13 -13 -19 -4 -30 7 -8 9 -18 5 -21 -12 -12 -27 20
-21 45 5 22 -8 31 -20 12z"/>
<path d="M787 3043 c-4 -3 -7 -17 -7 -30 0 -18 5 -23 25 -23 14 0 28 7 31 15
11 27 -30 58 -49 38z m28 -13 c3 -5 1 -10 -4 -10 -6 0 -11 5 -11 10 0 6 2 10
4 10 3 0 8 -4 11 -10z m2 -26 c-3 -3 -12 -4 -19 -1 -8 3 -5 6 6 6 11 1 17 -2
13 -5z"/>
<path d="M1200 3043 c-8 -3 -18 -11 -22 -17 -6 -8 -11 -6 -18 4 -8 13 -12 13
-27 -3 -24 -24 -7 -34 56 -35 25 0 40 2 34 5 -7 2 -13 13 -13 23 0 14 6 17 23
13 18 -4 19 -3 7 6 -17 12 -18 12 -40 4z"/>
<path d="M1276 3023 c9 -38 14 -42 14 -10 0 14 -5 29 -10 32 -7 4 -8 -3 -4
-22z"/>
<path d="M2227 3043 c-4 -3 -7 -19 -7 -34 0 -27 1 -28 60 -27 36 1 60 6 60 12
0 7 3 7 8 -1 7 -11 32 -14 110 -13 16 0 21 4 16 13 -6 9 -4 9 7 1 8 -6 26 -11
41 -12 15 -1 31 -3 35 -4 16 -4 53 14 54 25 0 7 5 1 10 -13 12 -28 27 -14 24
23 -1 19 -7 22 -42 21 -23 -1 -48 -4 -56 -7 -9 -3 -17 -3 -19 1 -2 4 -59 5
-128 2 -90 -4 -131 -2 -146 8 -11 6 -24 9 -27 5z"/>
<path d="M3106 3043 c-3 -3 -60 -7 -127 -8 -89 -2 -124 -6 -131 -16 -8 -11 -9
-10 -4 4 4 14 0 17 -23 15 -21 -1 -27 -6 -24 -18 3 -10 -1 -8 -11 5 -14 16
-20 17 -36 7 -12 -7 -21 -8 -25 -2 -7 12 -45 14 -46 3 0 -5 -2 -16 -4 -26 -5
-24 29 -41 47 -23 11 11 16 11 27 -1 9 -11 16 -11 26 -3 10 8 20 8 33 1 13 -7
23 -7 32 2 10 9 11 9 5 -1 -6 -11 -3 -12 12 -3 14 7 23 7 31 -1 8 -8 15 -8 26
1 9 7 16 8 20 2 4 -5 26 -7 51 -5 30 4 45 1 45 -6 0 -20 45 -6 55 17 12 28 45
38 45 14 0 -26 6 -28 55 -21 25 4 45 4 45 1 0 -4 17 -6 38 -5 20 1 60 3 88 3
47 1 52 3 56 26 3 14 0 28 -6 33 -13 9 -243 8 -253 -1 -3 -4 -13 -2 -23 3 -10
5 -20 7 -24 3z m-399 -33 c-1 -11 -5 -20 -9 -20 -10 0 -10 4 -2 24 8 22 13 20
11 -4z"/>
<path d="M863 3033 c-7 -2 -13 -13 -13 -24 0 -15 7 -19 34 -19 28 0 35 4 39
23 4 22 4 22 6 -2 1 -20 3 -21 16 -11 10 9 15 9 15 1 0 -6 5 -11 10 -11 6 0
10 11 10 25 0 14 -4 25 -10 25 -5 0 -10 -5 -10 -11 0 -8 -4 -8 -14 0 -17 14
-49 3 -42 -15 3 -8 1 -14 -4 -14 -6 0 -10 9 -10 20 0 20 -5 23 -27 13z m13
-30 c-10 -10 -19 5 -10 18 6 11 8 11 12 0 2 -7 1 -15 -2 -18z"/>
<path d="M1002 3028 c-6 -6 -8 -17 -5 -24 8 -22 39 -16 52 9 l12 22 -5 -22
c-2 -13 0 -23 5 -23 5 0 9 7 9 15 0 8 0 18 0 22 0 12 -57 12 -68 1z m22 -13
c3 -8 1 -15 -4 -15 -6 0 -10 7 -10 15 0 8 2 15 4 15 2 0 6 -7 10 -15z"/>
<path d="M1098 3015 c2 -14 6 -25 8 -25 2 0 4 11 4 25 0 14 -4 25 -9 25 -4 0
-6 -11 -3 -25z"/>
<path d="M816 2873 c-4 -9 -4 -14 0 -10 4 4 14 1 23 -6 14 -11 15 -10 1 8 -8
11 -15 21 -16 23 -1 2 -5 -5 -8 -15z"/>
<path d="M850 2875 c14 -17 30 -20 30 -4 0 5 -4 7 -10 4 -5 -3 -10 -1 -10 4 0
6 -5 11 -11 11 -8 0 -8 -5 1 -15z"/>
<path d="M890 2879 c0 -5 4 -8 9 -5 5 4 12 0 14 -6 3 -8 6 -6 6 5 1 9 -6 17
-14 17 -8 0 -15 -5 -15 -11z"/>
<path d="M940 2882 c0 -5 7 -9 15 -9 8 0 12 4 9 9 -3 4 -9 8 -15 8 -5 0 -9 -4
-9 -8z"/>
<path d="M981 2874 c0 -11 3 -14 6 -6 3 7 2 16 -1 19 -3 4 -6 -2 -5 -13z"/>
<path d="M1061 2874 c0 -11 3 -14 6 -6 3 7 2 16 -1 19 -3 4 -6 -2 -5 -13z"/>
<path d="M1081 2873 c0 -13 2 -14 6 -4 5 11 7 11 14 0 7 -11 9 -10 9 4 0 9 -7
17 -15 17 -8 0 -15 -8 -14 -17z"/>
<path d="M2222 2865 c0 -16 2 -22 5 -12 2 9 2 23 0 30 -3 6 -5 -1 -5 -18z"/>
<path d="M2396 2883 c-3 -3 -28 -6 -56 -6 -35 1 -50 -3 -50 -12 0 -8 5 -17 10
-20 6 -3 10 0 10 7 0 10 2 10 9 -1 7 -11 10 -10 14 5 4 16 5 17 6 2 0 -10 5
-18 11 -18 5 0 7 8 4 18 -5 14 -4 14 6 -2 10 -15 14 -16 21 -5 6 10 9 11 9 2
0 -7 7 -13 15 -13 8 0 15 9 15 19 0 21 -13 34 -24 24z"/>
<path d="M2448 2885 c-3 -3 -3 -16 0 -28 6 -22 6 -22 12 2 5 23 6 23 23 7 12
-12 17 -14 17 -4 0 11 2 11 9 0 4 -8 10 -13 12 -12 2 1 13 -2 23 -6 12 -5 21
-3 24 4 2 8 9 9 22 2 13 -7 21 -7 25 0 5 8 11 7 21 -1 19 -15 39 2 30 26 -4
12 -10 14 -25 5 -13 -7 -22 -7 -26 0 -4 6 -11 7 -18 3 -12 -7 -76 -6 -117 3
-14 2 -29 2 -32 -1z"/>
<path d="M2707 2884 c-4 -4 -7 -15 -7 -25 0 -14 7 -18 30 -16 16 1 30 7 30 12
0 6 4 4 9 -4 11 -16 31 -6 31 16 0 12 -7 14 -34 10 -18 -3 -38 -1 -43 4 -5 5
-12 6 -16 3z"/>
<path d="M2833 2883 c-7 -3 -13 -14 -13 -24 0 -16 6 -20 27 -17 16 2 29 10 31
19 3 17 -23 29 -45 22z"/>
<path d="M2890 2864 c0 -19 6 -20 90 -21 89 -1 111 6 92 30 -11 13 -61 15 -80
3 -7 -4 -12 -4 -12 1 0 4 -20 8 -45 8 -39 0 -45 -3 -45 -21z"/>
<path d="M3176 2882 c-2 -1 -21 -4 -42 -5 -27 -1 -39 -7 -39 -17 0 -14 56 -21
145 -20 8 0 25 0 38 0 18 0 23 5 20 22 -3 20 -9 22 -61 23 -32 0 -59 -1 -61
-3z"/>
<path d="M3315 2872 c-11 -28 12 -34 120 -32 11 0 39 0 63 0 38 -1 42 1 42 24
l0 25 -110 -2 c-81 -1 -111 -5 -115 -15z"/>
<path d="M2243 2861 c1 -21 37 -22 37 -1 0 9 -9 16 -19 17 -13 1 -19 -4 -18
-16z"/>
<path d="M4129 2795 c-1 -5 -1 -13 0 -17 0 -4 -24 -6 -54 -5 -30 1 -55 6 -55
11 0 5 -8 2 -17 -6 -19 -17 -47 -13 -37 4 5 7 2 8 -5 3 -23 -13 -82 -15 -75
-2 5 9 3 8 -7 0 -7 -7 -17 -13 -22 -13 -4 0 -5 6 -1 13 5 8 2 8 -9 -2 -11 -9
-17 -10 -17 -2 0 6 -4 11 -10 11 -5 0 -10 -6 -10 -14 0 -11 -7 -13 -27 -8 -16
4 -48 6 -73 5 -115 -7 -186 -3 -209 11 -10 6 -12 5 -7 -2 5 -8 0 -12 -13 -12
-15 0 -21 -6 -21 -24 l0 -24 163 0 c110 0 164 4 169 12 6 8 8 7 8 -1 0 -10 36
-13 148 -13 81 1 221 0 311 -1 138 -2 166 0 175 13 11 18 0 52 -14 43 -5 -3
-10 0 -10 7 0 9 -3 9 -10 -2 -9 -13 -11 -13 -20 0 -5 8 -10 10 -10 4 0 -17
-38 -24 -53 -10 -12 12 -57 17 -57 6 0 -4 -13 -6 -30 -6 -16 0 -30 4 -30 10 0
7 -3 8 -8 1 -10 -15 -35 -12 -49 5 -7 8 -13 11 -14 5z"/>
<path d="M3086 2773 c-9 -9 -8 -53 2 -53 4 0 14 4 22 9 8 6 18 7 22 5 5 -3 74
-7 154 -8 102 -2 148 1 154 10 21 25 -16 32 -165 30 -82 -1 -157 2 -166 6 -9
4 -19 4 -23 1z"/>
<path d="M891 2754 c0 -11 3 -14 6 -6 3 7 2 16 -1 19 -3 4 -6 -2 -5 -13z"/>
<path d="M1038 2763 c7 -3 16 -2 19 1 4 3 -2 6 -13 5 -11 0 -14 -3 -6 -6z"/>
<path d="M1075 2759 c-11 -16 -1 -19 13 -3 7 8 8 14 3 14 -5 0 -13 -5 -16 -11z"/>
<path d="M2210 2760 c0 -5 5 -10 10 -10 6 0 10 5 10 10 0 6 -4 10 -10 10 -5 0
-10 -4 -10 -10z"/>
<path d="M2277 2758 c-6 -4 -15 -4 -19 -2 -4 3 -18 -2 -30 -10 -24 -17 -24
-17 10 -21 12 -1 22 2 22 7 0 5 5 6 10 3 6 -3 10 0 10 7 0 10 2 10 9 -1 6 -9
29 -14 64 -15 47 -1 55 2 54 17 -1 10 -10 17 -22 18 -11 0 -37 1 -58 2 -22 1
-44 -1 -50 -5z"/>
<path d="M2432 2759 c-13 -5 -20 -13 -17 -19 4 -6 11 -7 17 -4 6 4 14 0 19 -7
6 -10 9 -6 9 14 0 15 -1 27 -2 26 -2 0 -13 -4 -26 -10z"/>
<path d="M2544 2758 c-3 -4 -12 -4 -21 -1 -10 4 -14 2 -10 -4 3 -5 0 -10 -8
-10 -8 0 -12 4 -9 9 3 4 -2 8 -10 8 -21 0 -20 -17 2 -29 22 -12 72 -9 72 4 0
6 5 3 10 -5 8 -13 11 -13 22 -1 10 10 10 12 1 7 -7 -4 -13 -2 -13 3 0 6 5 11
10 11 6 0 10 4 10 9 0 10 -50 9 -56 -1z"/>
<path d="M2758 2753 c-5 -7 -7 -17 -4 -22 8 -13 139 -11 148 2 4 7 11 7 20 -1
8 -6 40 -10 73 -9 53 2 60 4 60 22 0 18 -7 20 -60 22 -33 1 -66 -3 -72 -9 -7
-6 -13 -6 -13 -1 0 14 -140 10 -152 -4z"/>
<path d="M2620 2740 c0 -14 7 -20 21 -20 13 0 18 4 13 13 -5 8 -2 8 9 -2 14
-11 17 -11 17 0 0 11 2 11 10 -1 9 -13 12 -13 24 3 14 18 14 18 19 0 4 -14 5
-14 6 5 1 20 -3 22 -59 22 -53 0 -60 -2 -60 -20z"/>
<path d="M4116 2682 c-4 -3 -51 -7 -105 -8 -109 -1 -126 -6 -112 -33 9 -16 25
-18 148 -17 76 1 143 5 150 9 6 4 15 2 19 -5 5 -8 10 -6 15 8 6 15 8 16 8 2 1
-10 8 -15 19 -13 9 2 25 4 34 4 10 1 16 9 15 20 0 11 -4 19 -7 19 -3 0 -12 0
-20 1 -12 1 -12 3 -2 9 7 5 -6 8 -33 8 -25 -1 -45 -5 -45 -10 0 -5 -8 -2 -17
5 -11 10 -14 10 -9 2 9 -15 -8 -17 -33 -3 -10 5 -21 6 -25 2z"/>
<path d="M3344 2671 c-2 -3 -32 -3 -65 -2 -54 2 -60 0 -57 -16 3 -15 13 -18
61 -18 31 0 57 -2 57 -5 0 -4 200 -5 251 -1 23 1 33 41 11 41 -10 0 -70 1
-135 3 -65 1 -121 0 -123 -2z"/>
<path d="M3638 2669 c-5 -4 -8 -14 -6 -24 2 -16 13 -18 72 -17 41 0 72 6 76
13 6 8 9 8 12 -2 3 -9 21 -14 50 -14 40 -1 46 2 42 18 -2 11 -6 22 -9 25 -7 7
-225 8 -237 1z"/>
<path d="M2212 2651 c4 -20 58 -28 69 -9 7 10 9 10 9 1 0 -18 48 -16 66 1 8 8
14 16 14 18 0 2 -36 3 -80 4 -69 1 -80 -1 -78 -15z"/>
<path d="M2371 2649 c-10 -17 -8 -19 23 -19 19 0 37 6 39 13 4 9 6 8 6 -2 1
-11 4 -11 16 -1 8 7 15 8 15 3 0 -12 30 -11 49 2 9 5 12 4 8 -2 -4 -6 4 -10
18 -10 14 0 25 5 25 11 0 7 3 7 8 1 9 -13 35 -19 28 -6 -4 5 -1 13 5 17 7 4 9
3 5 -4 -3 -6 -1 -14 5 -18 6 -3 15 0 20 7 6 10 9 11 9 2 0 -7 5 -13 11 -13 5
0 7 6 3 13 -5 8 -2 8 9 -2 14 -11 17 -11 17 0 0 9 3 10 8 3 7 -11 78 -18 93
-8 4 2 6 11 3 19 -5 11 -44 13 -208 13 -186 -1 -204 -2 -215 -19z"/>
<path d="M2816 2663 c-3 -4 -6 -12 -6 -18 0 -15 77 -17 104 -3 14 7 16 7 11
-2 -5 -8 -1 -11 11 -8 11 2 19 10 19 18 0 12 -15 15 -66 17 -37 1 -69 -1 -73
-4z"/>
<path d="M2975 2661 c-10 -18 15 -29 68 -29 49 0 57 3 57 19 0 17 -7 19 -60
18 -33 -1 -62 -5 -65 -8z"/>
<path d="M3115 2660 c-11 -18 5 -29 43 -27 26 1 38 7 40 20 3 14 -4 17 -37 17
-22 0 -43 -4 -46 -10z"/>
<path d="M2482 2578 c-6 -6 -8 -17 -5 -24 8 -20 23 -17 17 4 -5 16 -5 16 9 0
15 -19 43 -25 32 -8 -3 6 -1 10 4 10 6 0 11 -5 11 -11 0 -8 5 -8 15 1 10 9 15
9 15 1 0 -6 5 -11 10 -11 6 0 10 8 10 18 0 15 -9 19 -46 21 -26 0 -50 3 -54 6
-4 2 -12 -1 -18 -7z"/>
<path d="M2622 2581 c-14 -8 -6 -41 10 -41 5 0 7 4 3 9 -3 5 -1 12 5 16 5 3
10 -2 10 -12 0 -14 2 -15 9 -4 5 8 11 9 15 3 8 -13 86 -11 86 2 0 6 5 4 10 -4
9 -13 11 -13 20 0 6 9 10 10 10 3 0 -13 70 -16 90 -3 32 20 -6 29 -119 28 -65
0 -122 2 -128 5 -5 3 -15 2 -21 -2z"/>
<path d="M2920 2580 c-24 -15 -4 -34 38 -37 32 -2 42 1 42 13 0 14 2 14 15 1
10 -10 37 -15 90 -15 66 0 76 2 73 16 -3 14 -19 17 -108 19 -57 1 -112 4 -121
6 -9 3 -22 1 -29 -3z"/>
<path d="M2210 2566 c0 -8 4 -17 8 -20 4 -2 8 4 8 15 0 10 -4 19 -8 19 -4 0
-8 -6 -8 -14z"/>
<path d="M2243 2559 c-1 -11 3 -19 8 -19 6 0 7 5 4 11 -4 6 3 5 14 -3 18 -11
23 -11 30 1 7 11 9 11 14 0 4 -9 6 -7 7 6 l1 20 10 -20 c9 -20 9 -20 6 0 -1
13 -11 20 -29 22 -21 1 -26 -2 -21 -15 4 -14 3 -14 -5 -3 -15 22 -38 21 -39 0z"/>
<path d="M2350 2566 c0 -8 4 -17 8 -20 4 -2 8 4 8 15 0 10 -4 19 -8 19 -4 0
-8 -6 -8 -14z"/>
<path d="M2380 2560 c0 -9 7 -17 15 -17 8 0 15 5 15 11 0 6 5 4 10 -4 8 -12
11 -13 19 -1 7 11 9 11 14 0 3 -8 6 -4 6 9 1 20 -3 23 -39 20 -29 -1 -40 -6
-40 -18z"/>
<path d="M781 2474 c0 -11 3 -14 6 -6 3 7 2 16 -1 19 -3 4 -6 -2 -5 -13z"/>
<path d="M817 2477 c-3 -8 1 -14 8 -14 7 0 11 6 8 14 -3 7 -6 13 -8 13 -2 0
-5 -6 -8 -13z"/>
<path d="M891 2474 c0 -11 3 -14 6 -6 3 7 2 16 -1 19 -3 4 -6 -2 -5 -13z"/>
<path d="M917 2483 c-10 -10 -8 -23 4 -23 5 0 8 4 5 9 -4 5 0 12 6 14 7 3 8 6
2 6 -6 1 -14 -2 -17 -6z"/>
<path d="M1010 2481 c0 -5 5 -13 10 -16 6 -3 10 -2 10 4 0 5 -4 13 -10 16 -5
3 -10 2 -10 -4z"/>
<path d="M1055 2479 c-4 -6 -5 -12 -2 -15 2 -3 7 2 10 11 7 17 1 20 -8 4z"/>
<path d="M1101 2474 c0 -11 3 -14 6 -6 3 7 2 16 -1 19 -3 4 -6 -2 -5 -13z"/>
<path d="M1261 2474 c0 -11 3 -14 6 -6 3 7 2 16 -1 19 -3 4 -6 -2 -5 -13z"/>
<path d="M1285 2481 c-3 -5 -1 -12 5 -16 5 -3 10 1 10 9 0 18 -6 21 -15 7z"/>
<path d="M2221 2467 c0 -21 1 -21 9 -2 7 17 9 17 9 3 1 -13 8 -17 26 -16 14 1
25 7 25 13 0 6 3 6 8 -1 4 -6 27 -11 52 -10 33 1 46 5 48 17 4 21 -30 20 -40
-1 -5 -12 -7 -12 -7 3 -1 20 -12 22 -29 5 -7 -7 -12 -8 -12 -2 0 6 -20 11 -45
12 -40 0 -45 -2 -44 -21z"/>
<path d="M2412 2470 c0 -14 2 -19 5 -12 2 6 2 18 0 25 -3 6 -5 1 -5 -13z"/>
<path d="M2443 2483 c-7 -2 -13 -9 -13 -15 0 -7 5 -6 14 1 11 10 15 8 19 -6 4
-14 5 -13 6 5 1 22 -3 25 -26 15z"/>
<path d="M956 2468 c3 -5 10 -6 15 -3 13 9 11 12 -6 12 -8 0 -12 -4 -9 -9z"/>
<path d="M2888 2329 c-5 -14 -131 -20 -140 -6 -4 7 -11 7 -21 -2 -12 -9 -17
-9 -23 0 -5 9 -10 6 -15 -9 -17 -45 -8 -48 154 -46 186 1 174 -1 172 27 -2 20
-7 22 -53 22 -36 0 -52 4 -52 12 0 16 -17 17 -22 2z"/>
<path d="M2221 2293 c1 -21 3 -30 6 -20 5 19 19 23 25 5 6 -16 108 -18 115 -2
4 11 8 11 20 -1 21 -21 33 -19 34 8 1 19 2 19 6 3 4 -15 7 -16 14 -5 7 12 9
11 9 -2 0 -12 11 -16 45 -15 28 0 45 4 45 12 0 14 28 26 42 18 6 -4 5 -10 -3
-15 -21 -12 -3 -22 19 -10 12 7 22 7 29 0 14 -14 43 0 43 21 0 29 -25 43 -44
25 -9 -9 -16 -12 -16 -6 0 5 -18 8 -40 7 -22 -2 -43 1 -46 5 -3 5 -16 2 -29
-7 -13 -8 -26 -11 -29 -6 -7 11 -66 9 -85 -2 -9 -6 -12 -5 -7 2 8 13 -73 5
-90 -9 -8 -6 -13 -3 -17 11 -3 12 -13 20 -26 20 -18 0 -21 -6 -20 -37z m186
-15 c-3 -8 -6 -5 -6 6 -1 11 2 17 5 13 3 -3 4 -12 1 -19z"/>
<path d="M819 2283 c-7 -10 -9 -15 -5 -11 5 4 14 4 20 -2 8 -6 12 -3 13 11 2
24 -10 25 -28 2z"/>
<path d="M869 2282 c-13 -15 -12 -16 4 -3 15 12 17 11 18 -5 0 -11 3 -13 6 -7
3 10 10 10 25 2 11 -6 22 -8 26 -5 3 3 0 6 -6 6 -7 0 -9 7 -5 18 5 13 3 15 -7
5 -9 -8 -19 -9 -30 -3 -13 7 -22 5 -31 -8z"/>
<path d="M1018 2281 c4 -10 0 -13 -16 -9 -12 4 -20 2 -17 -3 4 -5 17 -8 30 -7
13 1 22 4 20 7 -3 2 2 9 10 15 13 9 11 11 -9 11 -16 0 -22 -4 -18 -14z"/>
<path d="M1143 2285 c-3 -9 -3 -18 -1 -21 3 -3 8 4 11 16 6 23 -1 27 -10 5z"/>
<path d="M1225 2289 c-4 -6 -4 -13 -1 -16 3 -4 6 0 7 8 0 8 4 6 9 -6 8 -19 9
-19 9 3 1 23 -13 30 -24 11z"/>
<path d="M1264 2289 c-3 -6 -1 -16 5 -22 8 -8 11 -5 11 11 0 24 -5 28 -16 11z"/>
<path d="M1292 2280 c0 -14 2 -19 5 -12 2 6 2 18 0 25 -3 6 -5 1 -5 -13z"/>
<path d="M1365 2289 c-4 -6 -5 -12 -2 -15 2 -3 7 2 10 11 7 17 1 20 -8 4z"/>
<path d="M1391 2284 c0 -11 3 -14 6 -6 3 7 2 16 -1 19 -3 4 -6 -2 -5 -13z"/>
<path d="M1410 2285 c0 -8 2 -15 4 -15 2 0 6 7 10 15 3 8 1 15 -4 15 -6 0 -10
-7 -10 -15z"/>
<path d="M1461 2284 c0 -11 3 -14 6 -6 3 7 2 16 -1 19 -3 4 -6 -2 -5 -13z"/>
<path d="M1501 2283 c0 -12 2 -14 6 -4 5 11 7 11 15 0 8 -12 9 -12 6 0 -6 22
-28 25 -27 4z"/>
<path d="M3347 2184 c-3 -3 -110 -7 -237 -8 -189 -2 -233 -5 -242 -17 -8 -12
-9 -12 -5 1 4 14 -19 15 -190 14 -106 -1 -196 -4 -199 -6 -2 -3 -2 -12 1 -20
5 -11 23 -14 93 -11 48 2 88 8 90 13 2 6 10 3 18 -5 17 -17 98 -12 122 8 13 9
14 9 8 0 -4 -7 -2 -13 3 -13 6 0 11 6 11 13 1 8 4 7 9 -3 9 -15 32 -15 266 -9
6 0 67 -2 137 -4 79 -2 124 1 121 7 -4 5 -1 6 7 1 20 -12 160 -14 160 -2 0 6
4 6 13 0 6 -6 86 -11 176 -12 147 -2 163 0 157 14 -3 9 -6 20 -6 25 0 8 -89
12 -227 10 -40 0 -81 -1 -90 0 -94 0 -158 -2 -165 -6 -4 -3 -8 0 -8 5 0 12
-13 15 -23 5z m-837 -28 c0 -3 -4 -8 -10 -11 -5 -3 -10 -1 -10 4 0 6 5 11 10
11 6 0 10 -2 10 -4z"/>
<path d="M783 2164 c-3 -8 -1 -20 5 -26 8 -8 9 -5 5 11 -3 12 -1 21 6 21 6 0
11 -7 11 -16 0 -8 4 -13 9 -10 5 4 12 0 14 -6 4 -10 6 -10 6 0 1 7 6 10 11 7
6 -3 10 1 10 11 0 11 -6 15 -20 11 -11 -3 -23 -1 -26 4 -8 14 -24 11 -31 -7z"/>
<path d="M2220 2160 c0 -15 10 -18 65 -19 51 -1 65 2 65 14 0 8 -3 15 -7 15
-117 8 -123 8 -123 -10z"/>
<path d="M2364 2171 c-14 -14 -1 -31 24 -30 15 1 33 0 41 -2 8 -2 16 3 18 12
3 13 -5 18 -37 21 -23 2 -43 2 -46 -1z"/>
<path d="M870 2157 c0 -8 7 -14 15 -14 8 0 15 6 15 14 0 7 -7 13 -15 13 -8 0
-15 -6 -15 -13z"/>
<path d="M911 2154 c0 -11 3 -14 6 -6 3 7 2 16 -1 19 -3 4 -6 -2 -5 -13z"/>
<path d="M942 2153 c5 -25 71 -25 76 0 5 23 -35 23 -41 0 -4 -17 -5 -17 -6 0
0 9 -8 17 -17 17 -9 0 -14 -7 -12 -17z"/>
<path d="M1052 2150 c0 -14 2 -19 5 -12 2 6 2 18 0 25 -3 6 -5 1 -5 -13z"/>
<path d="M1086 2161 c-8 -12 21 -34 34 -26 17 11 11 35 -9 35 -11 0 -22 -4
-25 -9z m34 -11 c0 -5 -4 -10 -10 -10 -5 0 -10 5 -10 10 0 6 5 10 10 10 6 0
10 -4 10 -10z"/>
<path d="M1144 2159 c-3 -6 -2 -15 3 -20 5 -5 9 -1 9 11 0 23 -2 24 -12 9z"/>
<path d="M1171 2154 c0 -11 3 -14 6 -6 3 7 2 16 -1 19 -3 4 -6 -2 -5 -13z"/>
<path d="M1241 2154 c0 -11 3 -14 6 -6 3 7 2 16 -1 19 -3 4 -6 -2 -5 -13z"/>
<path d="M1271 2154 c0 -11 3 -14 6 -6 3 7 2 16 -1 19 -3 4 -6 -2 -5 -13z"/>
<path d="M1290 2161 c0 -5 5 -13 10 -16 6 -3 10 -2 10 4 0 5 -4 13 -10 16 -5
3 -10 2 -10 -4z"/>
<path d="M1331 2154 c0 -11 3 -14 6 -6 3 7 2 16 -1 19 -3 4 -6 -2 -5 -13z"/>
<path d="M1360 2155 c0 -8 2 -15 4 -15 2 0 6 7 10 15 3 8 1 15 -4 15 -6 0 -10
-7 -10 -15z"/>
<path d="M1396 2161 c-4 -7 -5 -15 -2 -18 9 -9 19 4 14 18 -4 11 -6 11 -12 0z"/>
<path d="M1420 2161 c0 -6 4 -13 10 -16 6 -3 7 1 4 9 -7 18 -14 21 -14 7z"/>
<path d="M1451 2154 c0 -11 3 -14 6 -6 3 7 2 16 -1 19 -3 4 -6 -2 -5 -13z"/>
<path d="M1485 2161 c-3 -5 -1 -12 5 -16 5 -3 10 1 10 9 0 18 -6 21 -15 7z"/>
<path d="M1516 2155 c4 -8 8 -15 10 -15 2 0 4 7 4 15 0 8 -4 15 -10 15 -5 0
-7 -7 -4 -15z"/>
<path d="M1540 2155 c0 -8 2 -15 4 -15 2 0 6 7 10 15 3 8 1 15 -4 15 -6 0 -10
-7 -10 -15z"/>
<path d="M1571 2154 c0 -11 3 -14 6 -6 3 7 2 16 -1 19 -3 4 -6 -2 -5 -13z"/>
<path d="M1591 2154 c0 -11 3 -14 6 -6 3 7 2 16 -1 19 -3 4 -6 -2 -5 -13z"/>
<path d="M1641 2154 c0 -11 3 -14 6 -6 3 7 2 16 -1 19 -3 4 -6 -2 -5 -13z"/>
<path d="M2907 2063 c-3 -2 -48 -4 -101 -4 -88 1 -96 -1 -96 -18 0 -16 7 -20
40 -19 23 0 40 5 40 12 0 7 3 7 8 1 4 -5 36 -10 72 -10 52 0 65 3 68 16 3 16
-21 33 -31 22z"/>
<path d="M2965 2061 c-3 -2 -5 -13 -5 -23 0 -15 6 -19 28 -16 15 1 30 7 34 13
5 6 8 5 8 -2 0 -7 5 -13 10 -13 15 0 12 40 -2 41 -7 0 -26 2 -41 3 -15 1 -30
0 -32 -3z"/>
<path d="M3387 2063 c-2 -2 -49 -4 -105 -5 -83 -1 -102 -4 -105 -17 -4 -13 -5
-13 -6 1 -2 25 -93 21 -97 -4 -2 -13 5 -18 22 -18 13 0 24 6 24 13 0 8 3 9 8
1 5 -7 147 -11 458 -12 l452 -1 4 23 c4 22 4 22 -124 21 -107 0 -128 -2 -128
-15 -1 -13 -2 -13 -9 0 -8 12 -33 15 -143 13 -73 -1 -135 -3 -138 -4 -3 -1 -9
-1 -14 0 -24 5 -96 8 -99 4z"/>
<path d="M4059 2054 c-12 -14 -1 -46 13 -38 6 4 14 0 19 -7 7 -12 9 -12 9 0 0
7 6 11 15 8 8 -4 17 -2 20 4 4 5 11 6 17 3 6 -4 24 -7 39 -6 19 0 29 -4 29
-13 0 -17 -33 -37 -46 -27 -5 4 -6 3 -1 -2 14 -18 7 -27 -15 -20 -13 4 -26 12
-30 18 -6 8 -11 6 -18 -4 -5 -8 -10 -12 -10 -8 0 4 -10 4 -22 -1 -24 -9 -51
-4 -44 8 3 4 -4 7 -14 7 -10 0 -17 -3 -15 -7 2 -3 -18 -7 -46 -8 -38 -1 -49 2
-43 11 6 10 4 11 -7 1 -16 -16 -79 -17 -79 -2 0 8 -4 8 -14 -1 -10 -8 -53 -11
-133 -9 -86 2 -118 -1 -117 -9 1 -7 2 -16 3 -22 0 -6 98 -10 269 -9 147 0 272
0 277 -1 27 -6 47 1 42 14 -4 10 -1 13 9 9 7 -3 14 -9 14 -13 0 -8 52 -12 148
-11 33 1 52 -3 52 -10 0 -7 9 -2 20 11 21 24 18 40 -7 40 -13 0 -14 2 -2 18
12 15 12 16 -2 5 -9 -7 -20 -9 -24 -5 -5 4 -5 2 -2 -4 9 -15 -82 -18 -99 -3
-10 8 -14 8 -14 0 0 -6 -7 -11 -15 -11 -8 0 -15 5 -15 11 0 5 4 8 9 5 5 -4 8
5 7 18 -3 21 1 23 30 23 33 -1 33 -2 19 -24 -9 -13 -12 -23 -7 -23 5 0 15 11
22 25 7 14 17 25 21 25 5 0 4 11 -2 24 -11 23 -14 24 -131 23 -78 -1 -122 -5
-129 -13z"/>
<path d="M2222 2040 c0 -14 2 -19 5 -12 2 6 2 18 0 25 -3 6 -5 1 -5 -13z"/>
<path d="M2240 2037 c0 -19 29 -20 42 -2 5 6 8 5 8 -2 0 -7 9 -13 20 -13 11 0
20 6 20 13 0 8 4 7 10 -3 8 -13 10 -12 10 3 0 18 -4 20 -67 21 -35 1 -43 -2
-43 -17z"/>
<path d="M2360 2040 c0 -11 5 -20 11 -20 5 0 7 4 4 10 -3 6 1 7 9 4 11 -4 16
0 16 10 0 9 -8 16 -20 16 -13 0 -20 -7 -20 -20z"/>
<path d="M2410 2040 c0 -11 2 -20 4 -20 2 0 6 9 9 20 3 11 1 20 -4 20 -5 0 -9
-9 -9 -20z"/>
<path d="M2435 2049 c-4 -5 -3 -14 1 -20 4 -8 9 -7 15 2 5 8 9 9 9 3 0 -14
143 -14 152 0 5 7 8 7 8 -1 0 -7 5 -13 11 -13 5 0 8 4 4 9 -3 5 -1 12 4 15 5
4 12 -2 14 -11 4 -15 5 -14 6 3 1 20 -4 21 -109 22 -60 0 -112 -4 -115 -9z"/>
<path d="M2670 2040 c0 -11 7 -20 15 -20 8 0 15 9 15 20 0 11 -7 20 -15 20 -8
0 -15 -9 -15 -20z"/>
<path d="M783 2025 c-3 -9 -3 -19 1 -22 3 -4 6 1 6 10 0 8 6 18 13 20 9 4 9 6
-1 6 -7 1 -15 -6 -19 -14z"/>
<path d="M1020 2020 c0 -11 2 -20 4 -20 2 0 6 9 9 20 3 11 1 20 -4 20 -5 0 -9
-9 -9 -20z"/>
<path d="M1222 2020 c0 -14 2 -19 5 -12 2 6 2 18 0 25 -3 6 -5 1 -5 -13z"/>
<path d="M1463 2025 c-3 -9 -3 -18 -1 -21 3 -3 8 4 11 16 6 23 -1 27 -10 5z"/>
<path d="M1500 2030 c-13 -8 -12 -10 3 -10 9 0 17 5 17 10 0 12 -1 12 -20 0z"/>
<path d="M812 2017 c-8 -10 -6 -13 7 -13 10 0 18 6 18 13 0 7 -4 13 -7 13 -4
0 -12 -6 -18 -13z"/>
<path d="M857 2023 c-4 -3 -7 -11 -7 -17 0 -6 5 -5 12 2 6 6 9 14 7 17 -3 3
-9 2 -12 -2z"/>
<path d="M880 2015 c0 -8 2 -15 4 -15 2 0 6 7 10 15 3 8 1 15 -4 15 -6 0 -10
-7 -10 -15z"/>
<path d="M910 2013 c0 -10 4 -14 8 -8 4 6 11 13 16 18 5 4 2 7 -7 7 -10 0 -17
-8 -17 -17z"/>
<path d="M951 2014 c0 -11 3 -14 6 -6 3 7 2 16 -1 19 -3 4 -6 -2 -5 -13z"/>
<path d="M970 2015 c0 -8 4 -15 10 -15 5 0 7 7 4 15 -4 8 -8 15 -10 15 -2 0
-4 -7 -4 -15z"/>
<path d="M1001 2014 c0 -11 3 -14 6 -6 3 7 2 16 -1 19 -3 4 -6 -2 -5 -13z"/>
<path d="M1051 2014 c0 -11 3 -14 6 -6 3 7 2 16 -1 19 -3 4 -6 -2 -5 -13z"/>
<path d="M1091 2014 c0 -11 3 -14 6 -6 3 7 2 16 -1 19 -3 4 -6 -2 -5 -13z"/>
<path d="M1131 2014 c0 -11 3 -14 6 -6 3 7 2 16 -1 19 -3 4 -6 -2 -5 -13z"/>
<path d="M1151 2014 c0 -11 3 -14 6 -6 3 7 2 16 -1 19 -3 4 -6 -2 -5 -13z"/>
<path d="M1176 2015 c4 -8 8 -15 10 -15 2 0 4 7 4 15 0 8 -4 15 -10 15 -5 0
-7 -7 -4 -15z"/>
<path d="M1251 2014 c0 -11 3 -14 6 -6 3 7 2 16 -1 19 -3 4 -6 -2 -5 -13z"/>
<path d="M1340 2014 c0 -8 5 -12 10 -9 6 4 8 11 5 16 -9 14 -15 11 -15 -7z"/>
<path d="M1371 2014 c0 -11 3 -14 6 -6 3 7 2 16 -1 19 -3 4 -6 -2 -5 -13z"/>
<path d="M1391 2013 c0 -11 3 -13 6 -5 2 6 9 10 14 6 5 -3 9 0 9 5 0 6 -7 11
-15 11 -8 0 -15 -8 -14 -17z"/>
<path d="M1433 2015 c0 -8 4 -12 9 -9 4 3 8 9 8 15 0 5 -4 9 -8 9 -5 0 -9 -7
-9 -15z"/>
<path d="M1526 2015 c-3 -8 -1 -15 4 -15 6 0 10 7 10 15 0 8 -2 15 -4 15 -2 0
-6 -7 -10 -15z"/>
<path d="M1551 2014 c0 -11 3 -14 6 -6 3 7 2 16 -1 19 -3 4 -6 -2 -5 -13z"/>
<path d="M1576 2015 c4 -8 8 -15 10 -15 2 0 4 7 4 15 0 8 -4 15 -10 15 -5 0
-7 -7 -4 -15z"/>
<path d="M3948 1973 c7 -3 16 -2 19 1 4 3 -2 6 -13 5 -11 0 -14 -3 -6 -6z"/>
<path d="M2353 1963 c-7 -3 -13 -14 -12 -26 0 -21 1 -21 9 -2 7 17 9 17 9 3 1
-21 41 -25 41 -5 0 9 3 8 9 -2 7 -11 9 -11 14 0 4 10 6 10 6 2 1 -7 6 -13 12
-13 5 0 7 5 3 11 -3 6 -1 15 6 19 7 4 -5 8 -29 8 -22 0 -44 3 -48 5 -5 2 -14
2 -20 0z"/>
<path d="M2482 1957 c-17 -21 0 -35 41 -34 26 1 37 5 37 16 0 11 4 10 16 -5
10 -13 17 -15 20 -7 4 10 10 10 25 0 16 -10 21 -9 28 2 6 9 11 10 15 2 9 -13
56 -10 56 4 0 6 3 6 8 -1 4 -6 23 -11 42 -11 19 0 38 5 42 11 5 8 8 7 8 -1 0
-8 13 -13 30 -13 20 0 30 5 30 15 0 8 4 15 10 15 5 0 7 -6 4 -14 -5 -12 32
-14 246 -14 209 0 252 3 257 14 3 8 4 17 2 19 -13 13 -610 7 -626 -7 -9 -7
-13 -7 -13 0 0 8 -41 11 -124 10 -68 0 -128 2 -133 5 -6 4 -15 1 -21 -6z m208
-17 c0 -5 -5 -10 -11 -10 -5 0 -7 5 -4 10 3 6 8 10 11 10 2 0 4 -4 4 -10z m65
0 c3 -5 1 -10 -4 -10 -6 0 -11 5 -11 10 0 6 2 10 4 10 3 0 8 -4 11 -10z"/>
<path d="M2221 1936 c0 -20 1 -20 9 -1 8 18 9 18 9 2 1 -19 30 -20 43 -2 5 6
8 5 8 -2 0 -7 7 -13 15 -13 9 0 15 9 14 23 0 21 -1 21 -9 2 -7 -16 -9 -17 -9
-3 -1 13 -10 17 -41 16 -34 0 -40 -3 -39 -22z"/>
<path d="M3415 1950 c-12 -19 5 -27 62 -29 53 -1 72 8 73 32 0 11 -128 8 -135
-3z"/>
<path d="M830 1925 c0 -8 2 -15 4 -15 2 0 6 7 10 15 3 8 1 15 -4 15 -6 0 -10
-7 -10 -15z"/>
<path d="M3878 1879 c-9 -5 -27 -8 -40 -7 -17 2 -23 -2 -23 -17 0 -19 7 -20
116 -21 63 0 120 -4 127 -8 7 -4 17 -4 24 0 14 9 55 9 115 1 29 -4 47 -2 56 7
11 11 16 11 32 0 11 -9 24 -10 34 -5 8 5 23 6 31 1 9 -5 22 -5 29 -1 7 5 22 6
32 4 31 -9 69 6 69 26 0 17 -11 18 -146 17 -80 -1 -148 2 -150 6 -2 3 -12 5
-22 3 -9 -2 -30 -4 -46 -4 -22 -1 -27 -5 -22 -18 5 -16 4 -16 -6 -3 -10 12
-33 15 -93 15 -44 0 -85 3 -90 7 -6 3 -18 2 -27 -3z"/>
<path d="M2880 1865 c-19 -23 7 -32 89 -31 71 1 84 4 87 18 2 14 -10 17 -83
20 -50 2 -88 -1 -93 -7z"/>
<path d="M3079 1858 c-5 -10 -6 -19 -2 -20 23 -5 93 -2 93 4 0 4 7 5 15 2 9
-4 15 0 15 9 0 24 -109 28 -121 5z"/>
<path d="M3222 1855 c3 -18 11 -20 76 -20 42 0 72 4 72 10 0 7 3 7 8 0 10 -14
123 -15 115 -1 -4 6 1 5 10 -3 14 -11 17 -11 17 0 0 11 2 11 10 -1 8 -12 10
-12 10 -1 0 10 4 11 13 3 7 -6 59 -9 122 -9 96 2 110 4 113 20 2 9 -2 18 -10
18 -57 5 -76 3 -95 -8 -16 -9 -23 -9 -25 -1 -3 8 -66 12 -221 12 -212 1 -218
0 -215 -19z"/>
<path d="M2228 1863 c6 -3 10 -8 7 -13 -3 -4 4 -10 15 -13 14 -4 20 0 20 11 0
14 2 14 9 3 5 -8 14 -10 21 -6 9 5 11 4 6 -3 -4 -7 -2 -12 3 -12 6 0 11 8 11
18 0 15 -9 18 -52 19 -29 0 -47 -1 -40 -4z"/>
<path d="M2333 1853 c-3 -8 -3 -17 1 -20 3 -4 6 2 6 13 1 19 1 19 15 0 15 -20
15 -20 15 0 0 15 2 16 10 4 10 -17 91 -21 102 -5 5 6 8 6 8 -1 0 -11 46 -11
58 0 3 4 0 12 -6 18 -9 9 -12 8 -12 -7 -1 -18 -2 -18 -10 -3 -9 14 -25 17 -96
16 -62 -1 -87 -5 -91 -15z"/>
<path d="M2564 1858 c-10 -15 17 -28 51 -23 17 2 33 4 38 4 4 1 7 7 7 14 0 17
-87 21 -96 5z"/>
<path d="M2670 1856 c0 -8 7 -16 15 -20 10 -4 15 1 15 14 0 11 -7 20 -15 20
-8 0 -15 -6 -15 -14z"/>
<path d="M2719 1854 c-13 -16 -13 -16 64 -18 31 -1 57 1 57 6 0 4 7 5 15 2 11
-5 13 -2 9 10 -8 21 -127 21 -145 0z"/>
<path d="M2815 1782 c-49 -7 -65 -13 -65 -24 0 -6 3 -8 7 -5 3 4 13 2 20 -5
11 -9 16 -9 22 1 9 14 20 14 39 -1 8 -8 12 -7 12 3 0 11 2 11 10 -1 7 -12 15
-13 40 -3 16 6 28 8 25 3 -3 -4 6 -7 20 -6 14 0 25 5 25 9 0 5 5 5 11 1 6 -3
31 -8 55 -11 46 -4 58 9 26 26 -18 10 -206 20 -247 13z"/>
<path d="M2221 1757 c0 -21 1 -21 9 -2 l9 20 0 -20 c1 -17 3 -17 11 -5 6 10
10 11 10 3 0 -7 4 -13 8 -13 4 0 8 8 8 19 0 13 -8 18 -28 19 -23 1 -28 -4 -27
-21z"/>
<path d="M2290 1760 c0 -11 5 -20 11 -20 5 0 7 5 4 10 -3 6 -1 10 4 10 6 0 11
5 11 10 0 6 -7 10 -15 10 -8 0 -15 -9 -15 -20z"/>
<path d="M2332 1760 c0 -14 2 -19 5 -12 2 6 2 18 0 25 -3 6 -5 1 -5 -13z"/>
<path d="M2352 1764 c4 -19 58 -29 58 -11 0 7 4 6 10 -3 8 -13 10 -12 10 3 0
17 1 17 16 3 21 -22 44 -20 44 3 0 16 -7 19 -49 18 -31 -1 -47 -5 -44 -12 3
-5 0 -4 -8 3 -19 17 -41 15 -37 -4z"/>
<path d="M2516 1765 c-3 -8 -1 -17 4 -20 6 -4 10 1 10 9 0 9 5 16 11 16 6 0 9
-6 6 -13 -3 -8 1 -14 9 -14 8 0 14 5 14 10 0 5 7 4 15 -3 12 -10 15 -9 15 6 0
16 2 17 10 4 8 -13 10 -13 10 2 0 13 -10 16 -49 16 -34 1 -51 -4 -55 -13z"/>
<path d="M2650 1765 c0 -21 20 -29 21 -8 0 14 2 15 7 3 10 -21 42 -22 43 -1 0
12 2 12 9 -4 8 -20 9 -19 9 1 1 19 -5 22 -44 22 -32 1 -45 -3 -45 -13z"/>
<path d="M787 1433 c-4 -3 -7 -17 -7 -30 0 -21 4 -23 50 -23 33 0 50 4 50 13
0 9 2 9 9 -1 11 -18 35 -11 43 13 6 19 6 18 7 -2 1 -13 6 -23 12 -23 6 0 9 10
7 23 -3 20 -8 22 -68 20 -48 -1 -68 -6 -77 -19 -12 -16 -13 -16 -13 5 0 12 4
19 10 16 6 -3 10 -1 10 4 0 12 -23 15 -33 4z"/>
<path d="M1126 1433 c-3 -4 -6 -17 -6 -30 0 -16 6 -23 20 -23 14 0 20 7 20 24
0 23 -22 41 -34 29z"/>
<path d="M970 1405 c0 -17 5 -25 13 -22 6 2 12 12 12 22 0 10 -6 20 -12 23 -8
2 -13 -6 -13 -23z"/>
<path d="M1016 1422 c-12 -20 6 -42 34 -42 22 0 29 5 32 25 4 19 1 25 -13 25
-10 0 -21 -5 -25 -11 -5 -8 -9 -8 -14 1 -5 8 -10 9 -14 2z"/>
<path d="M1170 1405 c0 -22 5 -25 33 -25 17 0 42 -3 55 -6 19 -5 22 -2 23 22
l1 29 8 -25 8 -25 1 28 c1 21 -4 27 -19 27 -11 0 -20 -5 -20 -11 0 -8 -4 -8
-14 0 -12 10 -15 8 -19 -11 l-4 -23 -2 23 c-1 16 -7 22 -26 22 -20 0 -25 -5
-25 -25z m34 0 c-4 -8 -8 -15 -10 -15 -2 0 -4 7 -4 15 0 8 4 15 10 15 5 0 7
-7 4 -15z"/>
<path d="M1310 1405 c0 -16 6 -25 15 -25 9 0 15 9 15 25 0 16 -6 25 -15 25 -9
0 -15 -9 -15 -25z"/>
<path d="M790 1290 c0 -11 2 -20 4 -20 2 0 6 9 9 20 3 11 1 20 -4 20 -5 0 -9
-9 -9 -20z"/>
<path d="M831 1301 c-22 -14 -4 -29 34 -29 28 0 35 4 35 19 0 10 -5 19 -11 19
-6 0 -9 -7 -5 -15 3 -8 1 -15 -3 -15 -5 0 -11 7 -15 15 -6 17 -15 19 -35 6z"/>
<path d="M915 1302 c-3 -3 -5 -10 -5 -16 0 -6 5 -4 10 4 8 12 10 12 11 -5 0
-11 3 -14 6 -8 3 9 10 10 24 3 13 -7 19 -7 19 0 0 5 1 13 3 16 3 8 -60 14 -68
6z"/>
<path d="M1010 1298 c-13 -5 -18 -12 -14 -20 6 -9 9 -9 12 0 2 7 8 12 13 12 6
0 7 -4 4 -10 -3 -5 -2 -10 4 -10 5 0 12 6 14 13 4 10 6 10 6 0 1 -7 6 -13 12
-13 5 0 7 5 3 12 -4 7 -3 8 4 4 21 -13 51 -15 58 -4 4 6 10 5 15 -3 7 -11 9
-10 9 4 0 10 5 15 10 12 6 -4 7 -12 3 -18 -4 -7 2 -5 12 3 10 8 16 10 12 4 -4
-7 2 -11 17 -11 17 0 23 4 21 16 -2 9 -4 18 -4 21 -1 3 -6 -2 -11 -10 -5 -8
-10 -10 -10 -4 0 10 -51 11 -68 0 -6 -3 -13 0 -15 6 -4 10 -6 10 -6 0 -1 -7
-6 -10 -12 -7 -16 11 -65 12 -89 3z"/>
<path d="M1237 1296 c-6 -14 0 -26 14 -26 8 0 6 26 -3 35 -3 3 -8 -1 -11 -9z"/>
<path d="M1270 1295 c-7 -8 -7 -15 -1 -19 5 -3 12 0 14 6 4 10 6 10 6 1 1 -17
18 -16 24 1 7 19 -29 28 -43 11z"/>
<path d="M1425 1293 c-9 -9 -15 -10 -15 -3 0 15 -52 9 -57 -6 -4 -12 52 -14
72 -3 6 3 20 4 33 3 27 -2 29 12 2 19 -11 3 -27 -1 -35 -10z"/>
<path d="M1326 1285 c-3 -8 -1 -15 4 -15 6 0 10 7 10 15 0 8 -2 15 -4 15 -2 0
-6 -7 -10 -15z"/>
<path d="M1490 1291 c0 -6 5 -13 10 -16 6 -3 10 1 10 9 0 9 -4 16 -10 16 -5 0
-10 -4 -10 -9z"/>
<path d="M1521 1284 c0 -11 3 -14 6 -6 3 7 2 16 -1 19 -3 4 -6 -2 -5 -13z"/>
<path d="M1540 1285 c0 -8 2 -15 4 -15 2 0 6 7 10 15 3 8 1 15 -4 15 -6 0 -10
-7 -10 -15z"/>
<path d="M787 1203 c-10 -10 -8 -33 3 -33 5 0 7 7 4 15 -4 8 -1 15 5 15 6 0
11 -6 11 -13 0 -8 19 -13 60 -14 33 -1 58 2 55 7 -3 5 -1 11 5 15 5 3 10 -2
10 -12 0 -15 2 -16 10 -3 15 24 -6 33 -34 15 -25 -17 -26 -17 -19 1 7 18 6 18
-20 1 -14 -9 -30 -17 -34 -17 -4 0 -1 4 7 10 8 5 11 12 7 16 -3 4 -13 1 -21
-5 -10 -8 -16 -9 -21 -1 -7 12 -19 13 -28 3z"/>
<path d="M972 1190 c0 -14 2 -19 5 -12 2 6 2 18 0 25 -3 6 -5 1 -5 -13z"/>
<path d="M1005 1201 c-9 -16 3 -31 26 -31 14 0 19 6 17 17 -4 20 -33 29 -43
14z m35 -11 c0 -5 -7 -10 -15 -10 -8 0 -15 5 -15 10 0 6 7 10 15 10 8 0 15 -4
15 -10z"/>
<path d="M1067 1203 c-10 -10 -8 -33 3 -33 5 0 7 7 4 15 -4 8 -1 15 5 15 6 0
11 -8 11 -17 0 -14 2 -15 9 -4 6 9 11 10 15 3 8 -13 36 -4 36 10 0 7 -5 6 -14
-1 -10 -9 -16 -8 -26 4 -13 16 -32 20 -43 8z"/>
<path d="M1160 1199 c0 -5 5 -7 10 -4 6 3 10 8 10 11 0 2 -4 4 -10 4 -5 0 -10
-5 -10 -11z"/>
<path d="M1195 1197 c-12 -10 -14 -16 -7 -21 7 -4 12 -1 12 6 0 9 3 9 10 -2 8
-12 10 -11 10 8 0 26 -1 26 -25 9z"/>
<path d="M1235 1200 c-8 -13 3 -30 18 -29 8 0 8 2 -1 6 -10 4 -10 8 -1 19 8 9
8 14 1 14 -6 0 -14 -4 -17 -10z"/>
<path d="M1275 1200 c-3 -5 -4 -14 -1 -19 7 -10 73 -9 75 2 4 22 -2 27 -33 27
-19 0 -38 -4 -41 -10z"/>
<path d="M1372 1190 c0 -14 2 -19 5 -12 2 6 2 18 0 25 -3 6 -5 1 -5 -13z"/>
<path d="M1390 1196 c0 -9 5 -16 10 -16 6 0 10 4 10 9 0 6 -4 13 -10 16 -5 3
-10 -1 -10 -9z"/>
<path d="M1417 1194 c3 -9 9 -12 12 -7 3 4 10 11 15 16 5 4 0 7 -12 7 -15 0
-20 -4 -15 -16z"/>
<path d="M783 1075 c-3 -9 -3 -18 -1 -21 3 -3 8 4 11 16 6 23 -1 27 -10 5z"/>
<path d="M835 1080 c-3 -5 -1 -10 4 -10 6 0 11 5 11 10 0 6 -2 10 -4 10 -3 0
-8 -4 -11 -10z"/>
<path d="M856 1074 c-3 -9 -6 -17 -6 -18 0 -2 18 -3 41 -3 22 0 35 3 28 7 -8
5 -6 11 7 19 13 7 14 10 5 11 -8 0 -20 -8 -27 -17 -13 -17 -13 -17 -14 1 0 20
0 20 -15 0 -13 -16 -14 -16 -9 -1 8 21 -2 23 -10 1z"/>
<path d="M947 1071 c-4 -17 -3 -21 5 -13 5 5 8 16 6 23 -3 8 -7 3 -11 -10z"/>
<path d="M975 1080 c-3 -5 -1 -10 4 -10 6 0 11 5 11 10 0 6 -2 10 -4 10 -3 0
-8 -4 -11 -10z"/>
<path d="M1023 1075 c-3 -9 -3 -18 -1 -21 3 -3 8 4 11 16 6 23 -1 27 -10 5z"/>
<path d="M1084 999 c-3 -5 4 -9 16 -9 14 0 19 -4 14 -12 -4 -7 -4 -10 1 -6 4
4 14 3 21 -3 9 -8 11 -5 7 9 -5 21 -49 36 -59 21z"/>
<path d="M1273 995 c-8 -23 4 -30 52 -30 33 0 41 3 37 14 -3 9 -1 12 6 7 7 -4
12 -2 12 3 0 17 -27 13 -34 -4 -6 -17 -26 -20 -26 -4 0 5 5 7 10 4 6 -3 10 -1
10 4 0 6 -10 9 -22 7 -13 -2 -22 -9 -20 -16 1 -6 -2 -9 -7 -5 -6 3 -8 12 -4
20 3 8 2 15 -1 15 -4 0 -9 -7 -13 -15z"/>
<path d="M785 989 c-11 -16 -1 -19 13 -3 7 8 8 14 3 14 -5 0 -13 -5 -16 -11z"/>
<path d="M820 985 c-10 -12 -10 -15 4 -15 9 0 16 6 16 13 0 8 4 7 10 -3 8 -13
10 -12 10 3 0 21 -23 22 -40 2z"/>
<path d="M891 984 c0 -11 3 -14 6 -6 3 7 2 16 -1 19 -3 4 -6 -2 -5 -13z"/>
<path d="M910 988 c0 -6 3 -8 7 -5 3 4 12 2 19 -4 8 -7 14 -7 19 1 3 6 11 8
16 5 5 -4 9 -1 9 4 0 15 -27 14 -33 -1 -4 -10 -6 -10 -6 0 -1 15 -31 16 -31 0z"/>
<path d="M990 985 c0 -8 2 -15 4 -15 2 0 6 7 10 15 3 8 1 15 -4 15 -6 0 -10
-7 -10 -15z"/>
<path d="M1020 985 c-9 -10 -9 -15 -1 -15 6 0 11 4 11 9 0 5 8 12 18 14 14 4
14 5 1 6 -9 0 -22 -6 -29 -14z"/>
<path d="M1155 990 c3 -5 8 -10 11 -10 2 0 4 5 4 10 0 6 -5 10 -11 10 -5 0 -7
-4 -4 -10z"/>
<path d="M1181 984 c0 -11 3 -14 6 -6 3 7 2 16 -1 19 -3 4 -6 -2 -5 -13z"/>
<path d="M1201 983 c0 -13 2 -14 6 -4 5 11 7 11 14 0 7 -11 9 -10 9 4 0 9 -7
17 -15 17 -8 0 -15 -8 -14 -17z"/>
<path d="M1386 983 c-4 -9 -4 -18 -1 -21 2 -3 8 3 11 12 5 12 9 14 14 6 5 -9
9 -8 13 2 3 8 -2 14 -13 15 -10 1 -21 -5 -24 -14z"/>
<path d="M1437 981 c-8 -10 -8 -13 0 -8 6 4 13 4 16 0 2 -5 2 -2 1 5 -5 17 7
15 22 -5 13 -17 13 -17 14 0 0 9 5 17 11 17 6 0 9 -6 6 -13 -3 -9 3 -13 17
-13 22 1 43 23 31 34 -3 4 -10 0 -15 -8 -7 -10 -10 -11 -10 -3 0 18 -77 13
-93 -6z"/>
<path d="M1572 983 c3 -19 28 -31 28 -13 0 6 -4 8 -10 5 -5 -3 -10 -2 -10 4 0
5 6 12 13 14 7 3 4 6 -6 6 -12 1 -17 -5 -15 -16z"/>
<path d="M783 885 c-3 -9 -3 -18 -1 -21 3 -3 8 4 11 16 6 23 -1 27 -10 5z"/>
<path d="M940 890 c-13 -8 -12 -10 3 -10 9 0 17 5 17 10 0 12 -1 12 -20 0z"/>
<path d="M1052 880 c0 -14 2 -19 5 -12 2 6 2 18 0 25 -3 6 -5 1 -5 -13z"/>
<path d="M881 874 c0 -11 3 -14 6 -6 3 7 2 16 -1 19 -3 4 -6 -2 -5 -13z"/>
<path d="M905 879 c-4 -6 -5 -12 -2 -15 2 -3 7 2 10 11 7 17 1 20 -8 4z"/>
<path d="M970 881 c0 -6 4 -13 10 -16 6 -3 7 1 4 9 -7 18 -14 21 -14 7z"/>
<path d="M1005 879 c-4 -6 -4 -13 -1 -16 3 -4 6 -1 6 5 0 6 8 13 18 15 15 4
15 5 0 6 -9 0 -20 -4 -23 -10z"/>
<path d="M1110 875 c0 -8 4 -15 10 -15 5 0 7 7 4 15 -4 8 -8 15 -10 15 -2 0
-4 -7 -4 -15z"/>
<path d="M1136 875 c4 -8 7 -15 9 -15 2 0 5 7 9 15 3 9 0 15 -9 15 -9 0 -12
-6 -9 -15z"/>
<path d="M1176 873 c-6 -14 -5 -15 5 -6 7 7 10 15 7 18 -3 3 -9 -2 -12 -12z"/>
<path d="M1201 874 c0 -11 3 -14 6 -6 3 7 2 16 -1 19 -3 4 -6 -2 -5 -13z"/>
<path d="M1220 881 c0 -6 4 -13 10 -16 6 -3 7 1 4 9 -7 18 -14 21 -14 7z"/>
<path d="M1251 877 c-1 -21 21 -18 27 4 3 12 2 12 -6 0 -8 -11 -10 -11 -15 0
-4 10 -6 8 -6 -4z"/>
<path d="M1301 874 c0 -11 3 -14 6 -6 3 7 2 16 -1 19 -3 4 -6 -2 -5 -13z"/>
<path d="M1320 875 c0 -8 2 -15 4 -15 2 0 6 7 10 15 3 8 1 15 -4 15 -6 0 -10
-7 -10 -15z"/>
<path d="M1351 874 c0 -11 3 -14 6 -6 3 7 2 16 -1 19 -3 4 -6 -2 -5 -13z"/>
<path d="M970 781 c0 -5 7 -12 16 -15 14 -5 15 -4 4 9 -14 17 -20 19 -20 6z"/>
<path d="M1072 778 c-7 -7 -12 -17 -12 -22 0 -6 4 -5 9 3 6 10 13 10 29 2 15
-8 22 -8 25 2 4 9 6 9 6 0 1 -7 5 -13 11 -13 5 0 7 7 3 15 -3 9 -13 15 -22 13
-9 -1 -21 1 -27 4 -6 4 -16 2 -22 -4z"/>
<path d="M1186 783 c-3 -3 -6 -12 -6 -20 0 -15 48 -15 69 1 11 8 13 8 7 -1
-10 -17 2 -16 19 0 11 12 7 14 -27 15 -22 1 -43 4 -48 7 -4 2 -10 2 -14 -2z"/>
<path d="M1320 771 c0 -25 6 -27 13 -6 4 8 2 17 -3 20 -6 4 -10 -3 -10 -14z"/>
<path d="M1369 773 c0 -11 -3 -13 -6 -5 -2 6 -9 10 -14 6 -15 -9 -10 -20 11
-21 14 -1 20 4 20 18 0 24 -10 25 -11 2z"/>
<path d="M1426 774 c-8 -20 -8 -24 2 -24 4 0 8 9 9 20 2 24 -3 26 -11 4z"/>
<path d="M800 776 c0 -2 8 -10 18 -17 15 -13 16 -12 3 4 -13 16 -21 21 -21 13z"/>
<path d="M870 769 c0 -5 5 -7 10 -4 6 3 10 8 10 11 0 2 -4 4 -10 4 -5 0 -10
-5 -10 -11z"/>
<path d="M901 764 c0 -11 3 -14 6 -6 3 7 2 16 -1 19 -3 4 -6 -2 -5 -13z"/>
<path d="M922 760 c0 -14 2 -19 5 -12 2 6 2 18 0 25 -3 6 -5 1 -5 -13z"/>
<path d="M940 765 c0 -8 4 -15 10 -15 5 0 7 7 4 15 -4 8 -8 15 -10 15 -2 0 -4
-7 -4 -15z"/>
<path d="M1010 765 c0 -8 2 -15 4 -15 2 0 6 7 10 15 3 8 1 15 -4 15 -6 0 -10
-7 -10 -15z"/>
<path d="M1301 764 c0 -11 3 -14 6 -6 3 7 2 16 -1 19 -3 4 -6 -2 -5 -13z"/>
<path d="M1390 765 c0 -8 4 -15 9 -15 5 0 11 7 15 15 3 9 0 15 -9 15 -8 0 -15
-7 -15 -15z"/>
<path d="M826 665 c-3 -8 -1 -15 4 -15 6 0 10 7 10 15 0 8 -2 15 -4 15 -2 0
-6 -7 -10 -15z"/>
<path d="M857 673 c-10 -9 -9 -23 1 -23 5 0 9 7 9 15 0 17 -1 18 -10 8z"/>
<path d="M901 664 c0 -11 3 -14 6 -6 3 7 2 16 -1 19 -3 4 -6 -2 -5 -13z"/>
<path d="M950 666 c0 -8 4 -18 10 -21 6 -3 7 1 4 9 -4 11 0 16 11 16 9 0 13
-4 10 -10 -3 -5 -1 -10 4 -10 6 0 11 5 11 11 0 5 5 7 10 4 6 -3 10 -1 10 4 0
6 -16 11 -35 11 -24 0 -35 -5 -35 -14z"/>
<path d="M1034 669 c-3 -6 -1 -16 6 -22 10 -9 12 -8 7 6 -7 19 9 24 16 5 3 -8
6 -6 6 5 1 19 -24 23 -35 6z"/>
<path d="M1086 673 c5 -5 12 -12 16 -18 4 -6 8 -2 8 8 0 9 -7 17 -17 17 -9 0
-12 -3 -7 -7z"/>
<path d="M1160 671 c0 -6 4 -13 10 -16 6 -3 7 1 4 9 -7 18 -14 21 -14 7z"/>
<path d="M1217 673 c-4 -3 -7 -11 -7 -17 0 -7 3 -7 8 0 4 7 16 14 27 17 19 5
19 5 -1 6 -11 0 -24 -2 -27 -6z"/>
<path d="M1266 665 c-3 -8 -1 -15 4 -15 6 0 10 4 10 9 0 5 8 12 18 14 13 4 12
5 -4 6 -12 0 -24 -6 -28 -14z"/>
<path d="M665 436 c-2 -6 -5 -107 -8 -223 l-4 -213 768 0 769 0 0 226 0 225
-761 -2 c-522 -2 -762 -6 -764 -13z"/>
<path d="M4060 374 c-124 -54 -182 -211 -120 -324 l25 -45 180 0 180 0 23 45
c44 89 23 208 -49 277 -65 61 -162 80 -239 47z"/>
<path d="M2367 303 c-11 -10 -8 -51 4 -59 6 -3 16 -1 22 6 9 9 8 11 -3 8 -9
-2 -15 4 -15 17 0 14 6 19 19 17 11 -2 15 1 11 7 -7 12 -28 14 -38 4z"/>
<path d="M2661 284 c0 -11 3 -14 6 -6 3 7 2 16 -1 19 -3 4 -6 -2 -5 -13z"/>
<path d="M2707 280 c3 -11 0 -20 -6 -20 -6 0 -11 8 -12 18 0 13 -2 14 -6 2 -3
-8 -11 -18 -17 -22 -6 -4 4 -8 22 -8 25 0 32 4 32 19 0 11 -4 22 -9 25 -5 4
-7 -3 -4 -14z"/>
<path d="M2750 275 c0 -14 4 -25 9 -25 5 0 7 10 3 22 -4 16 -2 19 8 13 9 -5
11 -4 6 3 -12 20 -26 13 -26 -13z"/>
<path d="M2865 290 c-11 -4 -26 -5 -32 -3 -7 3 -13 -2 -13 -11 0 -9 -5 -16
-11 -16 -6 0 -9 7 -5 15 3 8 1 15 -3 15 -12 0 -22 -28 -13 -34 13 -8 72 -4 66
5 -2 4 0 10 6 14 5 3 10 -2 10 -11 0 -13 3 -15 11 -7 18 18 7 41 -16 33z"/>
<path d="M2922 275 c0 -16 2 -22 5 -12 2 9 2 23 0 30 -3 6 -5 -1 -5 -18z"/>
<path d="M3050 275 c0 -14 2 -25 4 -25 2 0 6 11 8 25 3 14 1 25 -3 25 -5 0 -9
-11 -9 -25z"/>
<path d="M3177 284 c2 -6 14 -17 26 -23 13 -7 15 -10 4 -6 -11 3 -16 1 -12 -6
11 -17 28 -4 32 24 3 24 1 26 -25 24 -17 -1 -28 -7 -25 -13z"/>
<path d="M2417 275 c-4 -8 -2 -17 3 -20 6 -4 10 2 11 12 0 16 1 16 9 -2 8 -19
9 -19 9 3 1 25 -24 31 -32 7z"/>
<path d="M2460 270 c0 -19 3 -21 12 -12 9 9 9 15 0 24 -9 9 -12 7 -12 -12z"/>
<path d="M2491 268 c0 -22 1 -22 9 -3 7 17 9 17 9 3 1 -27 31 -22 31 5 0 18
-2 19 -10 7 -6 -10 -10 -11 -10 -2 0 6 -7 12 -15 12 -9 0 -15 -9 -14 -22z"/>
<path d="M2557 283 c-4 -3 -7 -16 -6 -27 0 -19 1 -19 10 3 10 24 8 36 -4 24z"/>
<path d="M2580 270 c0 -11 2 -20 4 -20 2 0 6 9 9 20 3 11 1 20 -4 20 -5 0 -9
-9 -9 -20z"/>
<path d="M2610 281 c0 -5 -3 -17 -7 -27 -4 -11 -3 -15 4 -11 14 9 24 47 12 47
-5 0 -9 -4 -9 -9z"/>
<path d="M2943 270 c-2 -24 51 -21 55 3 3 14 -2 17 -25 15 -19 -1 -29 -8 -30
-18z m47 0 c0 -5 -4 -10 -10 -10 -5 0 -10 5 -10 10 0 6 5 10 10 10 6 0 10 -4
10 -10z"/>
<path d="M3017 283 c-11 -10 -8 -33 4 -33 5 0 7 5 3 11 -3 6 0 15 7 20 8 5 9
9 3 9 -6 0 -14 -3 -17 -7z"/>
<path d="M3077 270 c-3 -11 -2 -20 3 -20 4 0 10 9 13 20 3 11 2 20 -3 20 -4 0
-10 -9 -13 -20z"/>
<path d="M3123 283 c-7 -2 -13 -12 -13 -21 0 -13 2 -14 9 -4 6 11 10 10 15 -4
6 -16 8 -16 23 -2 25 26 2 46 -34 31z"/>
<path d="M2361 134 c0 -11 3 -14 6 -6 3 7 2 16 -1 19 -3 4 -6 -2 -5 -13z"/>
</g>
</svg>
