<?xml version="1.0" standalone="no"?>
<!DOCTYPE svg PUBLIC "-//W3C//DTD SVG 20010904//EN"
 "http://www.w3.org/TR/2001/REC-SVG-20010904/DTD/svg10.dtd">
<svg version="1.0" xmlns="http://www.w3.org/2000/svg"
 width="512.000000pt" height="512.000000pt" viewBox="0 0 512.000000 512.000000"
 preserveAspectRatio="xMidYMid meet">
<metadata>
Created by potrace 1.16, written by Peter Selinger 2001-2019
</metadata>
<g transform="translate(0.000000,512.000000) scale(0.100000,-0.100000)"
fill="#000000" stroke="none">
<path d="M2515 4040 c-11 -5 -103 -39 -205 -76 -102 -36 -188 -68 -191 -70
-12 -7 39 -149 53 -148 7 1 98 27 203 57 l189 56 187 -55 c103 -30 193 -54
201 -54 7 0 25 32 40 71 l26 71 -36 15 c-78 33 -407 143 -427 142 -11 0 -29
-4 -40 -9z m457 -158 c14 -14 -9 -91 -28 -99 -7 -3 -77 14 -156 37 -240 71
-207 70 -413 10 -99 -28 -184 -52 -189 -53 -9 -2 -50 92 -43 99 6 6 378 141
402 146 22 5 409 -122 427 -140z"/>
<path d="M2961 3608 c1 -142 14 -123 18 25 1 62 -2 97 -8 97 -7 0 -11 -43 -10
-122z"/>
<path d="M2144 3683 c3 -21 6 -73 6 -115 0 -45 4 -78 10 -78 11 0 13 97 4 178
-4 28 -11 52 -17 52 -6 0 -7 -15 -3 -37z"/>
<path d="M1687 3463 c-10 -9 -8 -1745 1 -1761 7 -10 189 -12 878 -10 l869 3 3
868 c1 587 -1 874 -8 888 -10 19 -29 19 -874 19 -474 0 -866 -3 -869 -7z
m1722 -26 c8 -10 9 -248 4 -868 l-6 -854 -848 0 -848 0 -5 29 c-8 38 -7 1655
0 1684 l6 22 843 0 c691 0 845 -2 854 -13z"/>
<path d="M715 3415 c-65 -30 -107 -85 -123 -160 -15 -68 -16 -1334 -2 -1402
14 -62 56 -114 115 -142 44 -20 57 -21 499 -21 293 0 457 4 461 10 4 7 -150
10 -455 10 -433 0 -463 1 -498 19 -47 24 -77 56 -97 103 -13 33 -15 126 -15
715 0 423 4 692 10 714 15 54 51 101 95 126 40 23 42 23 498 23 298 0 457 3
457 10 0 7 -159 10 -457 10 -371 -1 -464 -3 -488 -15z"/>
<path d="M3460 3420 c0 -7 160 -10 460 -10 439 0 463 -1 499 -20 48 -24 78
-60 91 -111 7 -24 9 -286 8 -747 l-3 -709 -28 -36 c-56 -74 -38 -72 -559 -75
-291 -2 -468 -6 -468 -12 0 -14 854 -13 919 1 68 14 112 46 138 99 l22 45 -2
720 -2 720 -28 48 c-20 34 -41 54 -77 72 l-49 25 -461 0 c-300 0 -460 -3 -460
-10z"/>
<path d="M2150 1550 c0 -73 4 -120 10 -120 6 0 10 47 10 120 0 73 -4 120 -10
120 -6 0 -10 -47 -10 -120z"/>
<path d="M2950 1519 c0 -97 4 -148 10 -144 6 4 10 65 10 151 0 89 -4 144 -10
144 -6 0 -10 -57 -10 -151z"/>
<path d="M2124 1342 l-30 -68 70 -63 c138 -124 405 -351 413 -351 9 0 156 119
315 254 l105 90 -34 74 c-19 41 -32 81 -29 89 5 11 2 13 -11 8 -122 -48 -341
-125 -356 -125 -11 0 -106 36 -212 80 -106 44 -194 80 -196 80 -2 0 -18 -31
-35 -68z m271 -58 c89 -37 153 -58 175 -57 19 1 102 27 184 57 82 31 153 53
156 49 4 -5 18 -34 31 -66 l23 -58 -49 -42 c-110 -95 -330 -277 -335 -277 -15
0 -441 372 -448 391 -2 4 6 28 17 53 l20 46 43 -19 c24 -10 106 -44 183 -77z"/>
</g>
</svg>
