<?xml version="1.0" standalone="no"?>
<!DOCTYPE svg PUBLIC "-//W3C//DTD SVG 20010904//EN"
 "http://www.w3.org/TR/2001/REC-SVG-20010904/DTD/svg10.dtd">
<svg version="1.0" xmlns="http://www.w3.org/2000/svg"
 width="512.000000pt" height="768.000000pt" viewBox="0 0 512.000000 768.000000"
 preserveAspectRatio="xMidYMid meet">
<metadata>
Created by potrace 1.16, written by Peter Selinger 2001-2019
</metadata>
<g transform="translate(0.000000,768.000000) scale(0.100000,-0.100000)"
fill="#000000" stroke="none">
<path d="M420 4073 l0 -3608 2140 2 c1177 1 2140 5 2140 8 0 6288 -1 7205 -10
7205 -7 0 -10 -1199 -10 -3596 l0 -3595 -2117 1 -2118 0 -3 3595 c-1 2385 -5
3595 -12 3595 -7 0 -10 -1212 -10 -3607z"/>
<path d="M620 7558 c0 -68 4 -129 8 -135 11 -17 1814 -24 1830 -7 5 6 12 19
14 30 2 13 16 21 46 27 51 10 61 4 44 -24 -11 -17 -10 -20 5 -17 10 2 17 -2
15 -9 -1 -7 2 -13 8 -13 5 0 17 -15 26 -32 10 -18 22 -37 29 -43 16 -14 65
-93 65 -105 0 -5 4 -10 9 -10 5 0 20 -17 32 -37 13 -21 29 -42 36 -46 7 -4 13
-13 13 -18 0 -7 -382 -9 -1170 -7 -775 2 -1170 0 -1170 -7 0 -6 34 -9 89 -7
87 4 90 3 93 -20 l3 -23 550 5 550 5 -550 3 c-366 1 -546 5 -539 12 7 7 660
11 1911 13 1618 2 1904 0 1915 -12 11 -12 10 -13 -2 -6 -12 7 -13 6 -3 -7 7
-8 10 -18 6 -21 -3 -4 -869 -7 -1923 -7 l-1917 0 -7 -1752 c-7 -1730 -5 -4491
2 -4680 2 -54 7 -98 10 -98 4 0 6 498 4 1107 l-2 1108 1905 0 1905 0 0 -855
c0 -776 7 -1348 16 -1359 2 -2 6 -2 9 0 5 6 5 1068 -1 1674 -2 248 0 480 4
517 5 37 5 65 2 63 -9 -5 -2 2364 7 2377 4 7 1 8 -6 3 -10 -6 -11 -3 -2 13 6
12 11 25 10 29 -1 4 -1 437 0 961 l1 953 80 -2 c45 -1 84 1 87 5 3 3 -125 6
-285 6 l-291 0 2 148 2 147 195 5 195 5 3 133 c2 103 0 132 -11 132 -10 0 -13
-28 -12 -122 l0 -123 -197 2 -198 3 0 -160 0 -160 -623 0 -623 0 -54 83 c-30
45 -84 126 -122 180 -37 53 -64 97 -60 97 4 0 49 45 100 100 92 98 93 100 63
100 -17 0 -31 -5 -31 -11 0 -6 -12 -23 -27 -38 -16 -15 -52 -53 -81 -85 -30
-32 -56 -55 -58 -53 -3 3 -21 1 -40 -3 -24 -6 -38 -4 -48 6 -8 7 -16 10 -20 7
-3 -4 -6 -2 -6 3 0 5 12 17 28 28 34 23 112 116 112 133 0 21 -15 15 -32 -14
-9 -16 -40 -52 -69 -82 l-53 -53 -46 49 c-67 74 -85 97 -82 106 1 4 -12 7 -30
7 l-31 0 73 -77 c40 -43 88 -93 107 -111 19 -19 32 -40 29 -47 -4 -11 -157
-14 -905 -15 l-901 -1 0 126 c0 77 -4 125 -10 125 -6 0 -10 -47 -10 -122z
m2670 -537 c443 0 882 2 975 2 l170 2 6 -85 5 -85 2 88 c1 48 6 87 11 87 4 0
7 -271 6 -602 -2 -580 -1 -586 4 -148 l6 455 1 -415 c1 -228 -1 -572 -5 -765
-3 -192 -3 -351 2 -353 4 -2 7 -8 7 -13 0 -5 -762 -9 -1916 -9 l-1917 0 6 923
c4 507 6 924 7 926 0 2 411 1 913 -3 501 -3 1274 -6 1717 -5z m1170 -3066 l0
-1215 -1902 0 -1903 0 -2 1210 -3 1210 1903 3 c1046 1 1903 3 1905 5 1 1 2
-545 2 -1213z m27 -2272 c-3 -10 -5 -2 -5 17 0 19 2 27 5 18 2 -10 2 -26 0
-35z"/>
<path d="M759 6904 c-1 -13 -2 -30 -3 -36 -1 -7 1 -26 4 -43 6 -31 25 -37 64
-20 12 5 21 5 23 -1 2 -5 34 -8 72 -6 40 1 72 -2 76 -8 8 -12 52 -13 59 -1 3
5 122 9 263 9 142 0 297 1 344 2 48 2 92 -1 99 -5 9 -6 11 -4 4 6 -14 24 -16
51 -2 43 9 -5 8 -2 -1 9 -8 10 -15 27 -16 40 -1 12 -3 25 -4 29 0 4 -13 3 -28
-1 -31 -8 -100 -6 -151 4 -20 5 -38 3 -47 -5 -8 -7 -21 -10 -29 -7 -8 3 -17 3
-20 -1 -10 -9 -89 -11 -101 -2 -14 11 -101 20 -110 12 -4 -4 -25 -8 -48 -9
-199 -8 -280 -6 -272 7 4 6 -6 10 -24 10 -16 0 -33 -5 -37 -11 -3 -6 -17 -8
-33 -4 -62 17 -81 14 -82 -11z m201 -29 c12 14 15 14 29 1 8 -9 11 -19 7 -23
-4 -4 -11 -1 -16 7 -8 13 -10 12 -10 -2 0 -10 7 -18 17 -18 13 0 14 -3 5 -12
-8 -8 -15 -8 -27 2 -10 8 -19 10 -23 4 -6 -8 -25 -10 -58 -5 -13 1 -16 51 -3
51 4 0 10 -10 12 -22 3 -14 5 -8 6 15 l1 38 24 -26 c21 -22 25 -23 36 -10z
m342 -33 c6 -7 8 -16 4 -20 -4 -4 -13 1 -20 11 -16 21 -32 22 -44 1 -5 -9 -18
-14 -28 -12 -14 2 -20 13 -22 43 -4 42 10 40 23 -4 5 -16 4 -21 -4 -17 -6 4
-11 5 -11 2 0 -3 4 -7 9 -10 11 -7 44 22 62 54 l14 25 3 -30 c2 -16 9 -36 14
-43z m260 43 c-4 -21 -8 -24 -29 -18 -19 4 -24 2 -21 -8 3 -8 13 -13 22 -13 9
1 16 -4 16 -12 0 -23 -36 -16 -48 9 l-11 22 -7 -22 c-10 -34 -21 -28 -16 8 4
24 9 30 23 26 11 -3 21 -1 24 4 3 4 12 6 20 2 11 -4 13 -1 9 11 -4 10 -1 16 9
16 10 0 13 -8 9 -25z m-748 9 c20 -8 21 -44 1 -44 -8 0 -15 -7 -15 -15 0 -8
-4 -15 -10 -15 -5 0 -10 18 -10 40 0 40 5 45 34 34z m528 -35 c-5 -47 -15 -43
-19 7 -1 21 3 34 10 34 9 0 11 -13 9 -41z m388 26 c0 -8 -5 -15 -12 -15 -9 0
-9 -3 0 -12 20 -20 14 -40 -10 -36 -16 2 -22 9 -20 21 2 9 -2 17 -8 17 -5 0
-10 -9 -10 -20 0 -13 -7 -20 -20 -20 -11 0 -20 7 -20 15 0 8 -4 15 -10 15 -5
0 -10 -7 -10 -15 0 -17 -35 -21 -45 -5 -11 18 6 50 26 50 10 0 19 -5 19 -11 0
-6 9 -4 22 5 16 12 25 13 35 4 11 -9 18 -7 31 5 20 21 32 22 32 2z m-870 -31
c0 -21 -4 -33 -10 -29 -17 10 -11 65 7 65 2 0 3 -16 3 -36z m186 11 c9 -22 -4
-65 -20 -65 -8 0 -13 14 -14 40 -1 30 2 40 13 40 9 0 18 -7 21 -15z m134 3 c0
-4 -4 -8 -10 -8 -5 0 -10 -5 -10 -11 0 -5 5 -7 10 -4 6 3 10 0 10 -8 0 -24
-48 -18 -53 7 -3 20 -4 20 -15 -4 -10 -24 -11 -24 -11 -2 -1 22 -11 28 -24 15
-4 -3 -2 -12 4 -20 9 -10 8 -13 -5 -13 -15 0 -23 39 -11 52 9 9 115 5 115 -4z
m190 -19 c0 -10 -4 -19 -10 -19 -5 0 -10 12 -10 26 0 14 4 23 10 19 6 -3 10
-15 10 -26z m36 9 c-3 -13 -6 -26 -6 -30 0 -5 -4 -8 -8 -8 -5 0 -8 14 -8 30 0
19 5 30 14 30 10 0 13 -7 8 -22z m50 0 c-3 -13 -6 -26 -6 -30 0 -5 -7 -8 -15
-8 -10 0 -15 10 -15 30 0 24 4 30 21 30 17 0 20 -4 15 -22z"/>
<path d="M910 6855 c0 -8 5 -15 10 -15 6 0 10 7 10 15 0 8 -4 15 -10 15 -5 0
-10 -7 -10 -15z"/>
<path d="M800 6870 c0 -5 5 -10 10 -10 6 0 10 5 10 10 0 6 -4 10 -10 10 -5 0
-10 -4 -10 -10z"/>
<path d="M1580 6849 c0 -11 5 -17 10 -14 6 3 10 13 10 21 0 8 -4 14 -10 14 -5
0 -10 -9 -10 -21z"/>
<path d="M1640 6856 c0 -8 4 -17 9 -21 6 -3 9 4 8 15 -1 23 -17 28 -17 6z"/>
<path d="M1020 6855 c0 -8 5 -15 10 -15 6 0 10 7 10 15 0 8 -4 15 -10 15 -5 0
-10 -7 -10 -15z"/>
<path d="M1141 6844 c0 -11 3 -14 6 -6 3 7 2 16 -1 19 -3 4 -6 -2 -5 -13z"/>
<path d="M1430 6854 c0 -8 5 -12 10 -9 6 4 8 11 5 16 -9 14 -15 11 -15 -7z"/>
<path d="M2246 6822 c-23 -5 -21 -63 4 -92 11 -13 20 -18 20 -12 0 7 23 9 68
6 96 -7 105 -6 128 9 7 4 17 0 24 -8 10 -12 16 -13 27 -3 11 9 16 9 24 -3 6
-10 9 -11 9 -1 0 7 4 11 8 8 15 -9 63 -15 58 -7 -7 11 336 8 353 -3 9 -6 12
-5 8 1 -4 7 31 10 105 10 92 0 113 2 123 16 13 18 9 63 -6 73 -5 3 -125 5
-267 4 -141 -1 -261 -1 -267 -1 -109 5 -177 6 -180 1 -2 -3 -52 -3 -113 0 -60
3 -117 4 -126 2z m308 -34 c29 2 36 -1 36 -16 0 -21 -40 -28 -52 -9 -6 9 -8 9
-8 0 0 -7 -9 -13 -20 -13 -14 0 -20 7 -20 23 0 29 11 42 21 25 4 -7 24 -11 43
-10z m-86 -2 c2 -3 1 -13 -2 -23 -6 -14 -9 -15 -15 -4 -7 10 -10 10 -16 1 -6
-9 -10 -9 -16 1 -6 10 -9 11 -9 2 0 -7 -11 -13 -25 -13 -14 0 -25 6 -26 13 0
10 -2 10 -6 0 -2 -7 -16 -13 -29 -13 -13 0 -24 6 -24 13 0 8 -4 7 -10 -3 -8
-12 -10 -10 -11 10 -2 24 -2 24 -6 3 -5 -27 -23 -31 -23 -5 0 10 2 21 4 23 6
6 208 1 214 -5z m152 -11 c0 -14 -4 -25 -10 -25 -5 0 -10 11 -10 25 0 14 5 25
10 25 6 0 10 -11 10 -25z m82 11 c3 2 26 6 52 8 43 3 46 2 46 -20 0 -27 -20
-33 -21 -6 0 16 -1 16 -8 -1 -8 -22 -21 -24 -32 -5 -5 8 -9 9 -9 2 0 -16 -80
-16 -80 -1 0 7 -4 6 -10 -3 -8 -12 -10 -10 -10 8 0 13 4 21 9 17 5 -3 12 -1
16 5 4 7 12 7 24 0 10 -5 21 -7 23 -4z m188 -17 c0 -20 -15 -26 -25 -9 -9 15
3 43 15 35 5 -3 10 -15 10 -26z m62 14 c14 -13 18 -13 18 -2 0 11 22 14 110
14 105 0 111 -1 108 -20 -4 -25 -59 -29 -70 -5 -5 12 -7 12 -7 -2 -1 -21 -41
-25 -41 -5 0 9 -3 8 -9 -2 -7 -11 -11 -10 -21 5 -10 16 -11 16 -6 2 3 -10 1
-18 -4 -18 -6 0 -10 6 -10 13 0 8 -3 7 -10 -3 -7 -12 -15 -13 -40 -3 -23 8
-30 8 -31 0 0 -8 -2 -8 -6 1 -2 6 -9 12 -14 12 -6 0 -7 -4 -4 -10 3 -5 1 -10
-4 -10 -15 0 -14 37 2 43 19 8 19 8 39 -10z m-99 -14 c6 -22 -3 -25 -22 -6
-11 10 -13 10 -7 0 4 -7 2 -13 -3 -13 -6 0 -11 8 -11 18 0 25 37 26 43 1z"/>
<path d="M4441 6814 c0 -11 3 -14 6 -6 3 7 2 16 -1 19 -3 4 -6 -2 -5 -13z"/>
<path d="M2148 6788 c-7 -43 1 -59 30 -54 15 2 31 5 35 5 5 1 7 16 5 34 -3 28
-7 32 -34 35 -26 3 -32 -1 -36 -20z m47 -16 c0 -18 -20 -15 -23 4 -3 10 1 15
10 12 7 -3 13 -10 13 -16z"/>
<path d="M1064 6691 c-2 -2 -72 -4 -156 -5 -166 -1 -160 2 -148 -60 l5 -29
233 0 c128 0 235 -4 238 -9 3 -4 -3 -8 -13 -9 -36 -1 -232 0 -240 2 -4 1 -12
1 -18 0 -5 -1 -54 -2 -107 -1 l-98 1 0 -39 c0 -23 6 -45 15 -52 9 -8 15 -8 15
-2 0 7 10 8 29 2 16 -4 33 -4 38 1 5 5 20 2 36 -6 15 -8 25 -10 22 -6 -7 12
19 21 33 12 6 -4 39 -4 72 -1 33 3 66 2 72 -2 7 -4 18 -2 26 4 8 7 16 8 23 1
5 -5 29 -8 53 -6 33 3 43 1 43 -11 0 -12 -35 -14 -237 -14 -130 1 -242 -2
-249 -6 -8 -6 -9 -12 -2 -20 6 -7 8 -15 5 -19 -3 -3 -1 -14 4 -24 8 -14 21
-18 61 -17 33 1 48 -2 44 -9 -4 -6 -1 -7 7 -2 20 12 148 16 155 5 4 -6 13 -7
24 -1 23 13 53 -4 31 -18 -8 -5 -18 -7 -23 -4 -5 3 -75 6 -156 7 l-148 1 5
-40 c2 -22 6 -42 9 -45 2 -2 143 -5 313 -7 177 -1 316 -6 326 -11 12 -7 21 -6
30 2 7 8 37 12 78 11 38 -1 70 3 73 9 11 17 10 66 0 59 -6 -4 -8 0 -4 9 4 12
1 14 -13 11 -10 -3 -27 0 -37 6 -16 10 -16 11 7 10 14 -1 27 0 30 0 4 2 97 5
303 10 27 1 28 3 25 45 l-3 45 -180 -3 c-118 -2 -185 1 -194 8 -11 8 -13 8 -8
0 5 -8 -29 -11 -117 -12 -69 0 -129 -3 -134 -6 -6 -3 -12 1 -16 9 -3 8 -1 15
5 15 6 0 7 5 4 10 -9 14 8 13 23 -2 9 -9 12 -9 12 1 0 7 4 10 9 7 4 -3 35 -6
67 -7 32 -1 65 -7 73 -13 12 -9 13 -8 6 3 -6 11 -1 13 24 9 26 -4 32 -1 36 16
8 34 1 83 -12 83 -7 0 -10 -3 -8 -6 2 -4 -42 -5 -98 -4 -56 2 -111 3 -121 3
-11 0 -16 3 -12 7 4 4 70 8 146 9 103 1 138 -1 133 -10 -5 -8 -3 -8 8 0 9 7
71 11 179 10 l165 -1 0 37 c0 20 -3 34 -7 32 -4 -2 -9 0 -13 6 -6 9 -101 27
-119 21 -29 -8 -174 -6 -169 3 3 5 1 6 -5 2 -10 -6 -195 -8 -410 -3 -52 1 -95
0 -98 -2z m-194 -33 c19 -1 41 1 48 6 6 4 12 4 12 -1 0 -4 29 -7 65 -6 57 2
65 0 65 -17 0 -17 -9 -18 -112 -17 -63 1 -116 6 -120 12 -5 6 -8 5 -8 -2 0 -7
-9 -13 -20 -13 -15 0 -20 7 -20 26 0 23 3 25 28 20 15 -3 43 -6 62 -8z m303
-1 c27 -1 51 1 53 5 11 17 24 7 24 -17 0 -27 -18 -33 -38 -13 -7 7 -12 8 -12
2 0 -6 -27 -11 -60 -12 -58 -1 -60 -1 -60 24 0 23 3 25 23 20 12 -4 44 -8 70
-9z m354 -1 c7 -3 13 -1 13 5 0 6 7 6 20 -1 11 -6 20 -17 20 -25 0 -8 -9 -15
-20 -15 -11 0 -20 5 -20 11 0 8 -4 8 -12 1 -16 -12 -246 -13 -254 -1 -17 28 6
34 121 32 65 -1 124 -4 132 -7z m166 2 c36 -2 47 -6 47 -19 0 -18 -31 -22 -42
-5 -6 8 -8 8 -8 0 0 -18 -85 -12 -86 6 -1 24 6 31 25 25 10 -3 39 -6 64 -7z
m74 -8 c-3 -11 -1 -20 4 -20 5 0 9 9 9 19 0 17 4 18 30 11 17 -5 34 -9 38 -9
4 0 8 -6 10 -13 2 -9 -13 -14 -53 -15 -52 -2 -55 -1 -55 23 0 13 5 24 11 24 6
0 9 -9 6 -20z m-867 -102 c0 -4 -6 -8 -12 -8 -9 0 -8 -3 2 -10 8 -5 12 -12 8
-15 -3 -3 -13 1 -21 9 -11 12 -16 13 -20 3 -2 -6 -16 -12 -31 -12 -21 -1 -26
3 -23 17 7 25 -2 22 -13 -4 -9 -23 -9 -22 -9 3 -1 25 1 26 59 25 33 0 60 -4
60 -8z m77 4 c6 -1 13 -8 16 -14 2 -7 3 -6 2 4 -2 12 6 16 32 16 29 0 34 -3
31 -21 -3 -20 -9 -22 -58 -20 -30 1 -57 2 -60 3 -3 1 -9 3 -15 4 -10 1 -15 9
-15 24 0 7 30 8 67 4z m277 -14 c5 -23 -11 -33 -29 -18 -8 7 -15 7 -19 1 -4
-6 -18 -6 -36 -1 -37 11 -40 10 -62 -1 -19 -10 -33 4 -25 24 3 8 31 12 85 12
69 0 82 -2 86 -17z m234 -6 c3 -17 -2 -21 -28 -20 -17 1 -35 8 -40 17 -8 14
-9 14 -10 -1 0 -10 -4 -18 -10 -18 -5 0 -10 5 -10 11 0 8 -4 8 -12 2 -15 -11
-93 -12 -103 -1 -4 4 -5 13 -3 20 4 10 33 13 109 12 98 -1 104 -2 107 -22z
m-678 -90 c0 -4 24 -7 53 -6 28 1 60 -3 71 -8 11 -6 16 -6 13 0 -4 5 18 9 55
8 50 -1 62 -4 64 -18 2 -13 -5 -18 -22 -18 -13 0 -24 6 -24 13 0 8 -4 7 -10
-3 -9 -13 -10 -13 -10 0 0 13 -1 13 -10 0 -9 -13 -11 -13 -20 0 -5 8 -10 10
-10 4 0 -8 -29 -11 -90 -11 -77 0 -90 3 -90 17 0 9 3 20 7 23 9 9 23 9 23 -1z
m959 -19 c0 -25 -1 -26 -9 -8 -6 15 -9 16 -9 4 -1 -11 -11 -16 -31 -17 -23 0
-30 4 -30 19 0 21 24 26 36 8 5 -8 10 -6 16 5 14 25 28 19 27 -11z m102 -1 c7
-18 5 -22 -11 -22 -11 0 -20 6 -21 13 0 8 -2 8 -6 -2 -5 -11 -7 -11 -14 0 -6
10 -9 11 -9 2 0 -7 -7 -13 -15 -13 -17 0 -21 36 -5 42 5 2 24 3 42 2 23 -1 34
-7 39 -22z m-643 -3 c3 -14 -8 -16 -70 -15 -40 0 -72 4 -70 9 1 4 2 11 2 16 0
4 30 8 67 7 54 -1 68 -4 71 -17z m32 1 c0 -11 -4 -20 -9 -20 -5 0 -11 9 -14
20 -3 13 0 20 9 20 8 0 14 -9 14 -20z m230 7 c0 -7 4 -7 12 1 18 18 38 14 38
-7 0 -20 -26 -36 -34 -22 -3 5 -19 7 -36 5 -19 -2 -30 1 -30 9 0 8 -4 7 -10
-3 -9 -13 -11 -13 -20 0 -6 10 -10 11 -10 3 0 -9 -19 -13 -59 -13 -56 0 -79 9
-67 28 7 12 216 12 216 -1z m100 1 c0 -10 2 -10 8 -1 4 6 24 11 45 11 30 0 37
-4 37 -19 0 -14 -7 -19 -25 -19 -14 0 -25 5 -25 10 0 6 -4 10 -10 10 -5 0 -7
-6 -4 -14 4 -11 -2 -12 -26 -7 -17 3 -31 9 -31 14 1 4 1 12 1 17 0 6 7 10 15
10 8 0 15 -6 15 -12z m-357 -65 c-6 -15 -63 -14 -63 1 0 7 -3 7 -8 -1 -9 -14
-62 -12 -62 3 0 7 24 11 69 10 48 -1 67 -4 64 -13z m100 8 c9 -1 17 -5 17 -10
0 -12 -93 -7 -97 6 -3 7 8 10 29 8 18 -2 41 -3 51 -4z m137 -4 c0 -15 -92 -18
-107 -4 -4 5 6 7 22 5 24 -4 57 1 83 11 1 1 2 -5 2 -12z m37 -13 c-9 -9 -28 6
-21 18 4 6 10 6 17 -1 6 -6 8 -13 4 -17z m-664 -26 c21 2 26 -1 21 -10 -6 -10
-5 -10 7 -1 18 14 92 14 101 0 6 -9 8 -9 8 0 0 7 15 12 38 11 30 0 38 -4 39
-19 1 -10 -2 -21 -8 -24 -5 -4 -9 2 -9 12 0 15 -2 16 -10 3 -9 -13 -10 -13
-10 0 0 13 -1 13 -10 0 -8 -13 -10 -12 -11 5 -1 14 -2 16 -6 4 -2 -10 -17 -16
-41 -18 -20 -1 -52 -3 -71 -4 -18 -2 -39 3 -46 10 -9 8 -16 9 -20 3 -10 -17
-35 -11 -35 8 0 23 10 33 24 25 6 -4 23 -6 39 -5z m293 1 c16 4 40 4 53 -1 13
-5 28 -5 35 0 14 11 68 4 77 -10 5 -7 8 -7 13 0 4 6 44 11 92 11 77 0 85 -1
80 -17 -5 -15 -5 -15 6 -1 23 28 47 30 71 6 l22 -22 -54 -3 c-37 -2 -57 1 -62
10 -7 11 -9 11 -9 0 0 -7 -5 -10 -10 -7 -6 4 -8 11 -5 16 4 5 1 9 -5 9 -6 0
-10 -6 -9 -12 3 -17 -11 -48 -21 -48 -4 0 -7 8 -6 17 1 14 -7 16 -49 14 -27
-1 -58 -4 -67 -7 -12 -4 -19 2 -24 20 -6 26 -27 26 -22 1 2 -8 -1 -13 -7 -12
-5 1 -9 6 -7 10 1 4 -7 3 -18 -3 -11 -6 -45 -12 -75 -14 -51 -3 -55 -1 -55 19
0 25 11 40 20 25 4 -6 17 -7 36 -1z"/>
<path d="M790 6639 c0 -5 5 -7 10 -4 6 3 10 8 10 11 0 2 -4 4 -10 4 -5 0 -10
-5 -10 -11z"/>
<path d="M790 6309 c0 -5 5 -7 10 -4 6 3 10 8 10 11 0 2 -4 4 -10 4 -5 0 -10
-5 -10 -11z"/>
<path d="M895 6310 c-3 -5 -1 -10 4 -10 6 0 11 5 11 10 0 6 -2 10 -4 10 -3 0
-8 -4 -11 -10z"/>
<path d="M1090 6310 c0 -5 5 -10 11 -10 5 0 7 5 4 10 -3 6 -8 10 -11 10 -2 0
-4 -4 -4 -10z"/>
<path d="M1330 6310 c0 -5 5 -10 11 -10 5 0 7 5 4 10 -3 6 -8 10 -11 10 -2 0
-4 -4 -4 -10z"/>
<path d="M2232 6664 c-2 -18 4 -39 13 -47 19 -20 19 -27 -1 -27 -12 0 -15 -9
-12 -47 l3 -47 52 1 c29 1 57 4 63 8 5 3 10 1 10 -5 0 -6 5 -8 13 -3 6 4 23 8
38 9 20 1 25 -3 25 -23 0 -17 -4 -22 -15 -17 -24 9 -185 4 -191 -6 -4 -6 -18
-6 -37 -1 -17 5 -34 7 -37 3 -10 -9 -7 -74 3 -67 5 3 12 1 16 -5 10 -17 45 8
46 33 1 18 3 16 10 -8 l8 -30 242 0 c132 0 246 -3 252 -7 13 -8 10 -8 -293
-11 l-205 -2 -3 -36 c-2 -25 3 -40 18 -54 11 -10 20 -13 20 -7 0 7 5 12 11 12
5 0 7 -5 3 -12 -5 -7 -3 -8 7 -2 17 10 232 16 225 6 -2 -4 4 -8 14 -8 10 0 16
4 13 9 -3 5 4 6 15 3 11 -4 23 -2 27 4 3 6 11 7 18 3 6 -3 32 -5 58 -4 26 1
57 -3 68 -9 14 -7 21 -7 21 0 0 5 5 10 11 10 5 0 7 -4 4 -10 -4 -6 2 -7 17 -1
30 11 441 12 479 1 16 -5 29 -6 29 -2 0 4 31 8 70 8 49 1 68 -2 63 -10 -4 -6
0 -5 9 2 17 14 88 13 88 -1 0 -4 6 -5 13 0 20 12 169 14 161 2 -4 -8 0 -7 15
0 16 9 21 9 21 -1 0 -9 2 -10 8 -2 4 8 41 12 104 11 53 -1 95 -4 92 -8 -2 -4
10 -3 28 1 35 10 78 10 78 0 0 -3 11 -6 25 -6 14 0 25 3 25 6 0 3 45 6 99 5
55 -1 99 1 99 4 0 4 1 8 2 11 1 3 3 15 4 28 5 41 -17 47 -187 49 -87 1 -162 4
-165 7 -9 10 -47 7 -58 -4 -8 -8 -19 -7 -39 0 -15 6 -35 8 -44 5 -9 -2 -187
-5 -396 -6 -532 -1 -629 0 -621 8 11 11 269 11 284 0 6 -5 12 -6 12 -1 0 5 77
9 172 9 l171 0 2 32 c1 18 -2 38 -5 44 -4 6 -39 11 -84 12 -42 0 -80 5 -83 10
-3 5 -8 5 -12 -1 -4 -7 -12 -8 -21 -2 -8 5 -12 12 -8 15 10 11 58 13 58 3 0
-5 4 -6 10 -3 5 3 42 8 82 10 108 7 200 16 216 23 10 3 13 1 8 -6 -5 -8 -2
-10 8 -6 9 3 16 10 16 16 0 5 -41 8 -102 6 -101 -3 -102 -3 -108 22 -4 19 -14
27 -40 31 -31 6 -30 7 12 6 27 0 46 -5 45 -11 -1 -7 30 -12 86 -12 52 -1 93
-7 102 -14 8 -7 15 -8 15 -2 0 15 -28 35 -39 28 -5 -4 -12 -2 -16 4 -6 10 332
9 350 -2 6 -3 19 -4 30 -2 61 10 115 12 110 4 -3 -6 1 -7 9 -4 10 4 16 1 16
-7 0 -11 2 -11 9 0 6 10 28 15 64 15 54 1 54 1 50 31 -8 70 6 66 -216 66 -111
0 -211 0 -222 1 -11 0 -36 0 -55 -2 -19 -1 -149 -1 -289 -1 -140 1 -256 -1
-259 -3 -2 -3 -12 -1 -22 4 -10 5 -20 7 -22 4 -6 -5 -489 -6 -739 -1 l-145 2
-2 -31z m39 3 c-1 -4 -1 -17 -1 -29 0 -28 -13 -15 -18 18 -2 16 1 25 8 22 6
-2 11 -7 11 -11z m1429 -29 c0 -4 -3 -8 -7 -9 -5 0 -18 -2 -30 -5 -14 -2 -23
1 -23 9 0 8 -4 7 -10 -3 -9 -13 -10 -13 -10 0 0 13 -1 13 -10 0 -9 -13 -11
-13 -20 0 -5 8 -10 10 -10 3 0 -17 -110 -14 -117 4 -10 25 10 30 84 24 51 -4
74 -3 77 5 3 9 14 8 40 -4 20 -9 36 -20 36 -24z m-1386 21 c-4 -8 -1 -8 12 -1
29 15 88 9 92 -10 3 -17 -24 -32 -33 -18 -4 7 -13 6 -26 0 -10 -6 -19 -7 -19
-2 0 5 -13 8 -30 6 -31 -4 -44 19 -17 29 21 9 28 7 21 -4z m264 -14 c-3 -18
-11 -20 -71 -20 -69 0 -83 5 -74 28 3 8 30 12 76 12 66 0 72 -2 69 -20z m429
10 c7 -2 15 0 17 4 7 10 56 2 74 -12 8 -6 12 -6 12 1 0 5 16 12 35 14 28 3 34
1 30 -10 -4 -12 -3 -13 10 -2 8 7 15 9 15 6 0 -4 5 -4 12 0 18 12 58 11 58 -1
0 -5 5 -3 10 5 6 9 10 11 10 3 0 -7 6 -11 13 -8 6 2 40 6 75 9 59 5 62 4 62
-18 0 -21 -4 -23 -67 -23 -41 -1 -71 4 -75 11 -5 7 -8 6 -8 -4 0 -13 -1 -13
-10 0 -5 8 -10 11 -10 5 0 -16 -154 -13 -173 4 -15 11 -17 11 -17 -2 0 -11 -9
-15 -30 -15 -16 1 -30 6 -30 12 0 6 -5 4 -10 -4 -9 -13 -11 -13 -20 0 -6 10
-10 11 -10 3 0 -17 -23 -12 -32 7 -5 12 -7 12 -7 -2 -1 -21 -41 -25 -42 -5 0
9 -2 9 -5 0 -3 -7 -11 -10 -17 -8 -28 9 -77 13 -77 5 0 -11 -64 -7 -72 5 -5 7
-8 7 -8 0 0 -9 -42 -11 -107 -6 -7 1 -13 9 -13 19 0 16 15 17 197 15 109 -2
203 -5 210 -8z m723 7 c0 -4 23 -7 50 -6 43 2 50 0 50 -17 0 -21 -29 -27 -31
-6 0 9 -2 9 -6 -1 -4 -10 -8 -10 -19 -1 -8 6 -14 7 -14 2 0 -5 -10 -9 -22 -8
-15 1 -24 9 -26 23 -2 12 1 22 7 22 6 0 11 -4 11 -8z m170 -19 c0 -8 -4 -11
-10 -8 -5 3 -10 1 -10 -4 0 -19 -20 -12 -21 7 0 14 -2 14 -9 -3 -8 -18 -9 -18
-9 6 -1 23 2 25 29 21 17 -2 30 -10 30 -19z m168 15 c43 -1 52 -5 52 -20 0
-20 -20 -25 -21 -5 0 10 -2 10 -6 0 -2 -7 -11 -13 -19 -13 -8 0 -14 6 -15 13
0 10 -2 10 -6 0 -7 -19 -23 -16 -24 5 0 14 -2 14 -9 -3 -6 -13 -9 -15 -9 -5
-1 10 -4 11 -9 3 -4 -6 -25 -13 -47 -15 -36 -3 -40 0 -43 21 -3 20 0 23 17 18
12 -3 23 -2 26 3 2 4 17 6 32 4 16 -2 52 -5 81 -6z m98 -1 c9 3 14 -2 14 -16
0 -22 -19 -30 -21 -8 0 10 -2 10 -6 0 -7 -19 -23 -15 -23 5 0 22 13 38 18 23
2 -5 10 -7 18 -4z m-1809 -60 c3 -4 -10 -7 -30 -7 -20 0 -37 3 -37 8 0 9 57 8
67 -1z m122 -2 c2 -3 -21 -4 -52 -4 -31 1 -54 5 -52 10 5 8 95 3 104 -6z m121
5 c0 -5 -7 -10 -15 -10 -8 0 -15 5 -15 10 0 6 7 10 15 10 8 0 15 -4 15 -10z
m41 -8 c-7 -2 -18 1 -23 6 -8 8 -4 9 13 5 13 -4 18 -8 10 -11z m168 2 c2 -2
-15 -4 -38 -4 -23 0 -40 4 -37 9 6 8 66 4 75 -5z m221 0 c0 -2 -21 -3 -47 -2
-30 0 -41 3 -29 7 18 7 76 3 76 -5z m86 4 c3 -3 -13 -7 -34 -10 -24 -2 -38 1
-36 7 4 10 60 13 70 3z m346 -2 c7 4 8 2 4 -4 -4 -6 -13 -9 -21 -6 -8 4 -12
11 -8 17 5 8 8 7 11 -1 2 -7 9 -9 14 -6z m-939 -3 c-7 -2 -19 -2 -25 0 -7 3
-2 5 12 5 14 0 19 -2 13 -5z m324 1 c-3 -3 -12 -4 -19 -1 -8 3 -5 6 6 6 11 1
17 -2 13 -5z m326 -1 c-7 -2 -19 -2 -25 0 -7 3 -2 5 12 5 14 0 19 -2 13 -5z
m70 0 c-7 -2 -21 -2 -30 0 -10 3 -4 5 12 5 17 0 24 -2 18 -5z m44 1 c-3 -3
-12 -4 -19 -1 -8 3 -5 6 6 6 11 1 17 -2 13 -5z m223 2 c0 -3 -4 -8 -10 -11 -5
-3 -10 -1 -10 4 0 6 5 11 10 11 6 0 10 -2 10 -4z m40 -4 c0 -5 -7 -9 -15 -9
-8 0 -12 4 -9 9 3 4 9 8 15 8 5 0 9 -4 9 -8z m-1028 -36 c5 -8 8 -8 8 0 0 18
60 13 61 -5 1 -14 2 -14 6 0 5 20 93 26 93 6 0 -8 3 -9 8 -1 4 6 26 10 49 10
34 0 41 -3 40 -18 -1 -20 -17 -25 -17 -5 0 9 -3 8 -9 -2 -5 -7 -13 -11 -19 -7
-6 3 -13 3 -15 -1 -4 -7 -59 -9 -77 -3 -3 1 -48 2 -100 1 -62 0 -97 4 -102 12
-6 9 -8 9 -8 0 0 -7 -9 -13 -20 -13 -11 0 -20 6 -21 13 0 8 -2 8 -6 -2 -5 -11
-7 -11 -14 0 -6 10 -9 11 -9 2 0 -7 -9 -13 -20 -13 -11 0 -20 6 -20 13 0 8 -3
9 -8 1 -4 -6 -22 -14 -39 -17 -30 -6 -33 -4 -33 17 0 23 1 23 133 22 80 0 135
-4 139 -10z m528 1 c0 -6 5 -5 13 0 6 5 31 10 55 11 45 1 56 -14 27 -38 -9 -8
-15 -9 -15 -2 0 6 -9 9 -20 7 -11 -2 -20 0 -20 6 0 5 -5 9 -11 9 -5 0 -8 -4
-5 -9 8 -13 -48 -10 -56 3 -5 7 -8 7 -8 -3 0 -11 -3 -11 -17 0 -11 10 -14 10
-9 2 4 -7 2 -13 -3 -13 -6 0 -11 6 -11 13 0 9 -2 9 -8 0 -9 -15 -80 -24 -88
-11 -3 5 -11 5 -17 1 -26 -18 -76 0 -58 20 11 15 251 17 251 4z m170 2 c0 -6
-7 -9 -15 -5 -8 3 -15 1 -15 -4 0 -15 30 -12 36 4 8 22 142 17 155 -6 9 -16 5
-18 -23 -19 -18 0 -48 -1 -67 -2 -20 -1 -36 3 -39 11 -3 8 -7 10 -11 4 -3 -6
-18 -13 -32 -17 -21 -5 -27 -2 -32 14 -2 11 -2 22 1 25 10 10 42 6 42 -5z
m-354 -62 c3 -3 17 -2 30 3 16 6 24 6 24 -1 0 -6 5 -7 11 -3 17 10 99 11 99 1
0 -4 4 -6 10 -2 17 11 130 11 134 0 3 -6 9 -4 15 5 9 12 11 11 11 -8 0 -22 -2
-22 -112 -21 -62 0 -117 0 -123 -1 -31 -4 -154 -2 -163 4 -6 3 -13 3 -16 -2
-4 -6 -45 -8 -66 -2 -3 0 -67 1 -142 1 -104 -1 -137 2 -135 12 1 6 5 14 9 17
9 7 407 5 414 -3z m367 -59 c14 12 173 11 170 0 -2 -5 -3 -12 -3 -17 0 -13
-197 -14 -205 -1 -4 6 -1 18 7 27 12 15 13 15 16 -1 3 -12 7 -14 15 -8z m-815
-11 c3 -16 -6 -18 -82 -16 -73 1 -86 4 -86 18 0 15 11 17 82 16 70 -1 83 -4
86 -18z m87 5 c-5 -13 -3 -13 11 -1 18 15 53 19 60 7 3 -4 10 -6 15 -2 5 3 54
6 109 7 83 2 100 -1 101 -13 0 -10 3 -8 9 5 8 19 9 19 9 -2 1 -21 -4 -23 -44
-23 -29 0 -45 4 -45 13 0 9 -2 9 -8 0 -11 -17 -282 -16 -282 1 0 19 7 23 40
23 23 0 29 -4 25 -15z m387 -6 c5 -7 8 -7 8 2 0 7 13 12 30 12 30 0 40 -13 19
-26 -6 -3 -15 0 -20 7 -6 10 -9 11 -9 2 0 -9 -16 -13 -45 -13 -32 0 -45 4 -45
14 0 26 45 27 62 2z m111 7 c7 19 37 12 37 -9 0 -9 -12 -14 -35 -14 -22 0 -35
5 -35 13 0 22 14 29 20 11 6 -16 7 -16 13 -1z m77 -3 c0 -11 -7 -20 -15 -20
-15 0 -21 21 -8 33 12 13 23 7 23 -13z m103 -1 c4 -13 -4 -16 -44 -16 -33 0
-49 4 -49 13 0 25 87 28 93 3z m-983 -5 c0 -17 -22 -14 -28 4 -2 7 3 12 12 12
9 0 16 -7 16 -16z m1411 -87 c9 9 16 9 25 2 8 -7 14 -7 19 1 4 7 12 7 25 0 11
-6 21 -6 24 -1 6 9 72 8 82 -1 2 -3 1 -13 -3 -23 -6 -18 -7 -18 -14 1 -6 14
-8 15 -8 3 -1 -18 -32 -22 -43 -5 -5 7 -8 6 -8 -4 0 -13 -1 -13 -10 0 -6 10
-10 11 -10 3 0 -20 -20 -15 -21 5 0 14 -2 14 -9 -3 -5 -11 -9 -14 -9 -7 -1 6
-6 12 -12 12 -5 0 -8 -4 -5 -8 3 -5 -13 -9 -34 -10 -36 -2 -40 1 -40 21 0 32
11 40 26 19 10 -13 15 -14 25 -5z m233 -9 c12 20 56 15 56 -7 0 -17 -7 -20
-50 -19 -46 0 -50 2 -50 23 0 30 23 38 30 11 4 -15 8 -17 14 -8z m82 23 c-8
-12 57 -19 83 -9 17 6 21 3 22 -15 1 -15 3 -17 6 -6 5 19 51 29 82 17 12 -4
21 -3 21 1 0 5 15 6 33 2 17 -3 47 -6 65 -5 21 2 32 -2 32 -11 0 -21 -19 -28
-37 -13 -12 9 -15 9 -9 1 4 -7 2 -13 -3 -13 -6 0 -11 6 -12 13 0 10 -2 10 -6
0 -7 -20 -43 -16 -44 5 -1 16 -2 16 -6 0 -5 -21 -23 -24 -24 -5 0 10 -2 10 -6
0 -2 -7 -11 -13 -19 -13 -8 0 -14 6 -15 13 0 10 -2 10 -6 0 -7 -18 -52 -16
-59 2 -5 13 -10 12 -34 -5 -16 -11 -31 -16 -34 -11 -3 5 -15 7 -26 4 -17 -5
-20 0 -20 26 0 17 5 31 11 31 5 0 8 -4 5 -9z m-1606 -11 c19 -1 40 -1 45 0 6
1 26 2 45 1 19 0 81 -1 138 -1 95 0 102 -1 102 -20 0 -15 -6 -19 -26 -18 -15
2 -29 9 -32 16 -4 11 -6 11 -13 0 -7 -10 -9 -11 -9 0 0 7 -4 11 -10 7 -5 -3
-7 -12 -3 -20 7 -20 -6 -19 -29 2 -10 9 -18 11 -18 6 0 -13 -32 -12 -42 2 -5
6 -8 5 -8 -4 0 -11 -3 -11 -15 -1 -11 9 -15 9 -15 1 0 -17 -44 -9 -52 9 -6 13
-7 13 -7 -1 -1 -13 -11 -16 -48 -14 -27 1 -54 -2 -60 -8 -10 -7 -13 -2 -13 22
0 26 3 31 18 27 9 -3 33 -6 52 -6z m753 -1 c172 0 317 0 322 1 24 5 35 -1 35
-20 0 -25 -20 -27 -21 -2 -1 14 -2 14 -6 1 -5 -22 -183 -25 -183 -3 0 8 -4 14
-10 14 -5 0 -10 -7 -10 -15 0 -21 -30 -19 -31 3 0 14 -2 14 -7 2 -5 -11 -23
-15 -65 -15 -40 0 -61 4 -67 15 -8 13 -10 12 -10 -2 0 -10 -4 -18 -10 -18 -5
0 -14 8 -19 18 -10 16 -10 16 -11 0 0 -10 -4 -18 -10 -18 -5 0 -10 8 -11 18 0
14 -2 14 -9 -3 -6 -13 -9 -15 -9 -5 -1 10 -4 11 -9 4 -12 -17 -85 -14 -99 4
-11 16 -12 15 -13 -3 l-1 -20 -9 20 c-7 15 -9 16 -9 4 -1 -12 -11 -17 -41 -17
-32 -1 -40 3 -40 18 0 18 18 31 33 23 4 -2 148 -4 320 -4z m417 -14 c0 -24
-20 -27 -21 -3 l-2 23 -4 -22 c-2 -13 -9 -23 -14 -23 -14 0 -11 38 4 43 18 6
37 -3 37 -18z m-788 -7 c-5 -21 -6 -21 -13 -2 -7 16 -8 17 -8 2 -1 -25 -21
-23 -21 2 0 14 7 20 24 20 20 0 23 -4 18 -22z m838 4 c0 -24 -8 -32 -26 -25
-22 8 -17 43 6 43 13 0 20 -7 20 -18z"/>
<path d="M3410 6639 c0 -5 5 -7 10 -4 6 3 10 8 10 11 0 2 -4 4 -10 4 -5 0 -10
-5 -10 -11z"/>
<path d="M3570 6320 c0 -5 5 -10 11 -10 5 0 7 5 4 10 -3 6 -8 10 -11 10 -2 0
-4 -4 -4 -10z"/>
<path d="M3811 6324 c0 -11 3 -14 6 -6 3 7 2 16 -1 19 -3 4 -6 -2 -5 -13z"/>
<path d="M3510 6320 c0 -5 5 -10 10 -10 6 0 10 5 10 10 0 6 -4 10 -10 10 -5 0
-10 -4 -10 -10z"/>
<path d="M2157 6683 c-4 -3 -7 -19 -7 -34 0 -19 6 -30 20 -34 38 -12 59 27 35
65 -7 11 -38 13 -48 3z m38 -43 c-5 -8 -11 -8 -17 -2 -6 6 -7 16 -3 22 5 8 11
8 17 2 6 -6 7 -16 3 -22z"/>
<path d="M2152 6546 c3 -27 7 -31 34 -34 31 -3 32 -2 25 30 -6 27 -12 33 -34
34 -25 1 -28 -2 -25 -30z m38 -1 c0 -8 -4 -15 -10 -15 -5 0 -10 7 -10 15 0 8
5 15 10 15 6 0 10 -7 10 -15z"/>
<path d="M4441 6564 c0 -11 3 -14 6 -6 3 7 2 16 -1 19 -3 4 -6 -2 -5 -13z"/>
<path d="M2163 6363 c-7 -3 -13 -20 -13 -38 0 -27 4 -33 26 -38 16 -3 28 0 31
9 7 18 0 55 -11 54 -5 -1 -12 3 -15 8 -3 5 -12 7 -18 5z m27 -38 c0 -8 -4 -15
-10 -15 -5 0 -10 7 -10 15 0 8 5 15 10 15 6 0 10 -7 10 -15z"/>
<path d="M758 6094 c-12 -12 -9 -92 3 -100 14 -8 517 -6 531 2 15 10 3 87 -15
93 -9 3 -83 5 -164 3 -204 -3 -241 -3 -298 4 -27 3 -53 2 -57 -2z m56 -37 c8
-12 7 -21 -6 -33 -20 -20 -38 -11 -38 20 0 39 23 46 44 13z m458 -12 c6 -28
-8 -43 -24 -27 -12 12 -2 65 11 58 5 -3 11 -17 13 -31z m-308 -15 c3 0 6 9 6
20 0 22 20 26 38 8 9 -9 12 -9 12 1 0 7 4 10 9 7 10 -7 2 -56 -10 -56 -5 0 -9
6 -9 14 0 8 -7 16 -15 20 -10 4 -15 -1 -15 -14 0 -15 -6 -19 -25 -18 -19 2
-25 8 -26 28 0 23 -1 23 -8 5 -5 -11 -7 -23 -4 -27 2 -5 -1 -8 -6 -8 -15 0
-14 47 2 53 6 3 19 -4 29 -14 9 -10 19 -19 22 -19z m116 19 c0 -6 -5 -7 -11
-3 -7 4 -10 2 -8 -5 7 -20 23 -14 31 11 6 20 7 19 5 -7 -1 -20 -8 -31 -21 -33
-24 -5 -37 17 -25 40 10 18 29 16 29 -3z m92 12 c5 -1 6 -11 4 -23 -4 -32 -36
-36 -43 -7 -6 22 -7 22 -14 3 -7 -17 -8 -16 -8 6 -1 26 3 27 61 21z m56 -27
c-4 -25 -32 -24 -36 0 -4 21 18 40 31 27 5 -5 7 -17 5 -27z m-364 14 c-5 -9
-2 -9 9 1 15 12 17 11 17 -11 0 -20 -5 -24 -27 -23 -21 0 -29 6 -31 23 -3 17
2 22 18 22 14 0 19 -4 14 -12z"/>
<path d="M1146 6045 c-3 -8 -1 -15 4 -15 6 0 10 7 10 15 0 8 -2 15 -4 15 -2 0
-6 -7 -10 -15z"/>
<path d="M1200 6034 c0 -8 5 -12 10 -9 6 4 8 11 5 16 -9 14 -15 11 -15 -7z"/>
<path d="M2745 6091 l-109 -6 -1 -30 c-2 -57 6 -62 99 -64 55 -1 87 2 91 10 6
8 10 7 16 -2 6 -10 9 -8 9 9 0 15 -4 21 -12 17 -7 -4 -2 2 12 13 14 12 21 24
17 28 -4 4 -7 2 -7 -4 0 -7 -4 -12 -10 -12 -6 0 -6 9 0 25 5 14 8 24 7 23 -1
-1 -51 -4 -112 -7z m-50 -31 c4 -6 13 -5 24 2 26 16 51 4 44 -22 -8 -32 -33
-37 -54 -12 -22 27 -29 28 -29 1 0 -11 -4 -17 -10 -14 -16 10 -12 55 4 55 8 0
18 -4 21 -10z m109 -1 c4 6 12 11 19 11 8 0 8 -3 -1 -12 -7 -7 -12 -20 -12
-31 0 -10 -5 -15 -10 -12 -6 4 -8 12 -4 18 3 7 -2 3 -10 -7 -13 -17 -16 -17
-16 -4 0 29 12 51 20 38 5 -9 9 -9 14 -1z"/>
<path d="M2730 6050 c-12 -7 -12 -12 -3 -21 10 -10 14 -9 19 5 8 22 2 27 -16
16z"/>
<path d="M2871 6014 c0 -11 3 -14 6 -6 3 7 2 16 -1 19 -3 4 -6 -2 -5 -13z"/>
<path d="M1355 5932 c-2 -2 -136 -3 -299 -3 -222 0 -297 -3 -303 -12 -9 -15
-4 -58 9 -74 9 -11 5 -16 -12 -15 -5 0 -5 -51 0 -73 1 -5 2 -12 1 -15 -1 -3
-1 -57 -1 -120 1 -63 1 -134 0 -156 0 -30 4 -43 16 -48 9 -3 162 -6 340 -7
178 0 326 -5 329 -9 3 -5 16 -5 31 0 14 6 126 10 249 10 203 0 225 2 233 18
12 21 0 57 -19 57 -10 0 -13 10 -11 31 2 18 -3 38 -11 45 -11 12 0 14 77 11
111 -4 199 -2 205 4 2 2 9 0 15 -5 18 -14 48 -22 41 -11 -7 12 -9 12 122 10
89 -1 103 1 111 17 6 10 11 20 13 23 8 16 -25 50 -49 50 -41 0 -55 14 -50 48
3 19 0 30 -6 29 -10 -2 -10 13 -1 70 3 16 0 20 -12 16 -10 -4 -14 -2 -10 4 4
6 -3 9 -16 8 -20 -3 -22 1 -19 31 7 62 -1 65 -197 65 -97 0 -183 0 -191 0 -8
1 -85 1 -170 0 -85 0 -213 1 -283 2 -71 1 -130 1 -132 -1z m245 -42 c0 -23 -4
-30 -20 -30 -11 0 -20 6 -20 13 0 7 -3 8 -8 2 -11 -16 -54 -18 -63 -3 -7 10
-9 10 -9 1 0 -16 -36 -17 -45 -3 -12 20 13 36 52 33 21 -2 48 -3 61 -3 12 0
22 -6 23 -13 0 -6 4 -2 9 11 13 30 20 28 20 -8z m-790 14 c0 -15 -22 -44 -31
-39 -18 12 -10 45 11 45 11 0 20 -3 20 -6z m332 -12 c6 -6 7 -16 2 -23 -5 -9
-9 -8 -15 7 -5 13 -8 14 -8 4 -1 -10 -13 -16 -36 -17 -28 -1 -35 2 -35 16 0
10 2 20 5 23 9 9 76 1 87 -10z m191 -12 c4 -16 0 -20 -19 -20 -13 0 -24 6 -24
13 0 8 -4 7 -10 -3 -9 -13 -11 -13 -20 0 -7 10 -10 11 -10 2 0 -21 -87 -13
-93 9 -4 16 3 17 69 16 40 0 76 2 80 6 10 10 21 0 27 -23z m37 5 c0 -14 -4
-25 -10 -25 -5 0 -10 11 -10 25 0 14 5 25 10 25 6 0 10 -11 10 -25z m59 18 c0
-5 -4 -17 -9 -28 -8 -18 -9 -17 -9 8 -1 15 4 27 9 27 6 0 10 -3 9 -7z m231 -8
c5 3 26 7 48 9 37 4 40 2 38 -20 -1 -26 -16 -34 -16 -9 0 8 -4 15 -10 15 -5 0
-7 -7 -4 -15 4 -8 1 -15 -5 -15 -6 0 -12 10 -12 23 -2 22 -2 22 -6 0 -3 -17
-11 -21 -34 -21 -20 1 -29 6 -29 18 0 20 13 35 18 21 2 -6 7 -9 12 -6z m280
-12 c0 -22 -2 -25 -10 -13 -6 10 -10 11 -10 3 0 -21 -60 -16 -61 5 -1 15 -2
15 -6 1 -6 -24 -86 -25 -81 -1 3 14 16 17 81 17 42 0 77 3 77 8 0 4 2 7 5 7 3
0 5 -12 5 -27z m37 7 c-3 -11 -1 -20 4 -20 5 0 9 7 9 16 0 12 10 14 56 12 30
-2 58 0 60 4 3 4 11 8 19 8 10 0 11 -5 2 -25 -7 -14 -16 -25 -20 -25 -5 0 -6
-4 -2 -9 3 -5 1 -13 -5 -16 -6 -4 -10 -3 -9 2 3 18 -1 36 -8 30 -3 -4 -13 -1
-21 6 -10 8 -13 8 -9 1 4 -7 0 -14 -8 -18 -8 -3 -17 -2 -19 3 -3 4 -19 6 -36
3 -27 -4 -30 -2 -30 22 0 14 5 26 11 26 6 0 9 -9 6 -20z m189 -2 c-3 -13 -3
-17 0 -10 3 6 11 9 16 6 7 -4 8 -2 4 5 -5 8 6 11 41 10 26 -1 55 0 63 2 9 3
16 -5 18 -18 2 -13 -1 -23 -7 -23 -6 0 -11 6 -11 13 0 7 -3 8 -8 2 -11 -16
-34 -17 -43 -3 -7 10 -9 10 -9 -1 0 -11 -3 -11 -15 -1 -10 9 -15 9 -15 1 0 -6
-11 -11 -25 -11 -20 0 -25 5 -25 25 0 14 5 25 11 25 6 0 8 -10 5 -22z m-1136
-8 c0 -11 -4 -20 -10 -20 -5 0 -10 6 -10 13 0 8 -3 8 -8 2 -4 -6 -46 -12 -94
-12 -79 -2 -88 0 -88 17 0 16 10 18 105 19 99 1 105 0 105 -19z m367 0 c-1
-11 -5 -20 -9 -20 -4 0 -8 9 -8 20 0 11 4 20 9 20 6 0 9 -9 8 -20z m220 -12
c-3 -7 -5 -2 -5 12 0 14 2 19 5 13 2 -7 2 -19 0 -25z m-742 -33 c6 -2 -14 -4
-43 -4 -29 -1 -51 3 -48 7 4 7 67 5 91 -3z m480 5 c3 -5 -1 -10 -10 -10 -9 0
-13 5 -10 10 3 6 8 10 10 10 2 0 7 -4 10 -10z m90 0 c3 -5 -1 -10 -10 -10 -9
0 -13 5 -10 10 3 6 8 10 10 10 2 0 7 -4 10 -10z m-232 -7 c-7 -2 -19 -2 -25 0
-7 3 -2 5 12 5 14 0 19 -2 13 -5z m94 1 c-3 -3 -12 -4 -19 -1 -8 3 -5 6 6 6
11 1 17 -2 13 -5z m200 0 c-3 -3 -12 -4 -19 -1 -8 3 -5 6 6 6 11 1 17 -2 13
-5z m46 -1 c-7 -2 -19 -2 -25 0 -7 3 -2 5 12 5 14 0 19 -2 13 -5z m105 0 c-15
-2 -42 -2 -60 0 -18 2 -6 4 27 4 33 0 48 -2 33 -4z m65 0 c-7 -2 -19 -2 -25 0
-7 3 -2 5 12 5 14 0 19 -2 13 -5z m144 1 c-3 -3 -12 -4 -19 -1 -8 3 -5 6 6 6
11 1 17 -2 13 -5z m50 0 c-3 -3 -12 -4 -19 -1 -8 3 -5 6 6 6 11 1 17 -2 13 -5z
m320 0 c-3 -3 -12 -4 -19 -1 -8 3 -5 6 6 6 11 1 17 -2 13 -5z m-1037 -51 c0
-7 -6 -13 -14 -13 -8 0 -21 -3 -30 -6 -19 -7 -22 26 -5 43 14 14 49 -4 49 -24z
m-71 2 c0 -13 -3 -15 -6 -6 -5 11 -7 11 -15 0 -8 -12 -10 -12 -15 0 -4 9 -8
10 -12 3 -4 -6 -28 -13 -54 -15 -36 -2 -50 1 -57 12 -6 11 -9 12 -10 3 0 -16
-110 -14 -110 2 0 8 -2 8 -8 0 -4 -6 -22 -14 -39 -17 -29 -6 -33 -4 -33 16 0
22 0 22 180 22 174 0 180 -1 179 -20z m261 3 c0 -16 -11 -18 -90 -18 -68 0
-90 3 -90 13 0 21 3 22 94 22 75 0 86 -2 86 -17z m230 0 c0 -13 -8 -18 -32
-19 -18 -1 -36 -1 -41 0 -4 1 -39 2 -77 2 -58 1 -70 4 -70 18 0 14 15 16 110
17 100 1 110 -1 110 -18z m150 0 c0 -14 -9 -17 -54 -17 -30 1 -59 -2 -65 -5
-12 -8 -24 11 -18 27 3 9 27 13 71 13 56 -1 66 -3 66 -18z m130 6 c0 -7 -9
-18 -20 -24 -17 -9 -20 -8 -20 7 0 11 -3 14 -8 7 -4 -6 -22 -14 -39 -17 -30
-6 -33 -4 -33 17 0 22 4 23 60 23 43 0 60 -4 60 -13z m112 -4 c6 -13 7 -13 7
1 1 10 11 15 36 15 26 0 34 -4 30 -14 -3 -7 -5 -17 -5 -22 0 -9 -157 -6 -167
3 -3 4 -3 13 0 21 8 20 89 17 99 -4z m124 11 c-4 -5 10 -5 32 0 50 12 49 12
55 -11 4 -15 -1 -22 -20 -26 -16 -4 -28 -2 -34 7 -5 8 -9 9 -9 4 0 -14 -47
-18 -55 -4 -10 15 2 39 20 39 9 0 14 -4 11 -9z m222 -18 c3 -18 -2 -20 -57
-19 -42 0 -62 4 -66 14 -9 23 1 28 62 27 51 -1 58 -4 61 -22z m-1401 -39 c-3
-3 -12 -4 -19 -1 -8 3 -5 6 6 6 11 1 17 -2 13 -5z m240 0 c-3 -3 -12 -4 -19
-1 -8 3 -5 6 6 6 11 1 17 -2 13 -5z m130 0 c-3 -3 -12 -4 -19 -1 -8 3 -5 6 6
6 11 1 17 -2 13 -5z m310 0 c-3 -3 -12 -4 -19 -1 -8 3 -5 6 6 6 11 1 17 -2 13
-5z m40 0 c-3 -3 -12 -4 -19 -1 -8 3 -5 6 6 6 11 1 17 -2 13 -5z m153 2 c0 -3
-4 -8 -10 -11 -5 -3 -10 -1 -10 4 0 6 5 11 10 11 6 0 10 -2 10 -4z m135 -6 c3
-6 -1 -7 -9 -4 -18 7 -21 14 -7 14 6 0 13 -4 16 -10z m18 -24 c80 3 87 1 87
-17 0 -14 -7 -19 -25 -19 -14 0 -25 6 -26 13 0 10 -2 10 -6 0 -3 -9 -31 -13
-89 -13 -75 0 -84 2 -84 18 0 26 9 32 34 23 11 -4 60 -6 109 -5z m-920 -16 c3
-11 1 -20 -4 -20 -5 0 -9 6 -9 13 0 9 -2 9 -8 0 -9 -14 -144 -13 -154 2 -5 6
-8 6 -8 -2 0 -19 -47 -15 -60 5 -11 16 -11 16 -6 0 4 -14 0 -18 -19 -18 -18 0
-25 5 -25 20 0 19 7 20 144 20 135 0 144 -1 149 -20z m117 8 c0 -10 2 -10 8
-1 4 7 29 11 60 11 46 -1 52 -4 52 -22 0 -16 -3 -18 -9 -7 -5 7 -11 9 -14 4
-9 -14 -47 -9 -58 8 -7 12 -9 12 -9 -1 0 -22 -40 -23 -40 -2 0 14 -2 14 -9 3
-10 -16 -78 -24 -87 -10 -11 19 9 29 57 29 32 0 49 -4 49 -12z m440 3 c-1 -23
-27 -27 -157 -27 -139 1 -161 5 -149 25 7 11 306 12 306 2z m200 -12 c0 -17
-9 -19 -95 -19 -86 0 -95 2 -95 18 0 17 10 19 95 19 86 0 95 -1 95 -18z m470
8 c0 -8 3 -9 8 -1 4 5 21 10 37 10 23 -1 31 -6 33 -22 3 -18 -2 -22 -22 -20
-14 0 -26 4 -26 8 0 4 -11 3 -25 -2 -14 -5 -25 -6 -25 -2 0 4 -40 5 -90 4 -83
-4 -90 -2 -90 15 0 18 9 19 100 20 71 1 100 -2 100 -10z m-1290 -88 c0 -11 -7
-19 -15 -19 -8 0 -15 6 -15 13 0 7 -3 8 -8 2 -11 -16 -42 -17 -60 -3 -11 9
-14 9 -9 1 6 -9 -9 -12 -58 -12 -55 1 -65 3 -65 18 0 16 13 17 115 18 106 0
115 -1 115 -18z m100 5 c0 -20 -30 -30 -41 -13 -6 10 -9 10 -9 2 0 -7 -9 -13
-20 -13 -19 0 -27 19 -15 32 4 3 24 6 45 6 29 1 40 -3 40 -14z m226 0 c-3 -9
-1 -12 4 -9 6 3 10 1 10 -4 0 -6 -12 -11 -26 -11 -14 0 -23 4 -20 8 3 5 -1 9
-9 9 -8 0 -12 -4 -9 -9 8 -12 -10 -10 -24 4 -9 9 -12 9 -12 0 0 -7 -7 -12 -15
-12 -8 0 -15 6 -15 13 0 7 -3 8 -8 2 -4 -6 -26 -11 -49 -13 -36 -2 -43 1 -43
16 0 16 11 18 111 19 94 1 110 -1 105 -13z m174 4 c0 -5 6 -6 13 -1 6 4 42 8
80 8 59 1 67 -1 67 -17 0 -16 -8 -18 -72 -17 -40 0 -80 -1 -88 -2 -8 -2 -14 2
-12 9 2 9 -2 11 -10 5 -22 -13 -128 -12 -128 1 0 7 2 15 5 18 9 9 145 6 145
-4z m240 2 c3 -1 10 -1 15 0 22 5 126 2 132 -4 15 -15 -19 -32 -59 -29 -24 1
-69 2 -100 3 -49 0 -57 2 -55 19 1 14 8 18 32 16 16 -2 32 -4 35 -5z m470 -4
c0 -5 6 -4 13 2 12 11 39 2 39 -13 -1 -4 -9 -13 -19 -20 -15 -11 -19 -11 -27
2 -7 13 -10 13 -17 2 -7 -11 -9 -11 -9 -1 0 8 -6 10 -17 5 -23 -10 -54 -10
-72 1 -10 6 -12 5 -7 -2 4 -7 2 -12 -3 -12 -6 0 -11 4 -11 9 0 6 -9 9 -20 8
-11 -1 -20 -4 -20 -7 0 -13 -99 -9 -114 5 -11 11 -15 12 -19 2 -2 -6 -7 -9
-11 -6 -4 4 -1 13 7 20 10 11 49 14 160 14 81 0 147 -4 147 -9z m248 -15 c2
-14 0 -21 -7 -17 -5 4 -8 14 -5 24 3 9 -2 6 -10 -8 -8 -14 -15 -20 -16 -14 0
11 -30 16 -30 4 0 -7 -109 -5 -117 3 -3 3 -3 12 0 19 3 9 30 13 93 13 86 0 89
-1 92 -24z m-1348 -25 c0 -3 -4 -8 -10 -11 -5 -3 -10 -1 -10 4 0 6 5 11 10 11
6 0 10 -2 10 -4z m-212 -39 c6 -5 12 -4 12 1 0 18 45 7 48 -11 3 -13 -2 -18
-15 -17 -10 1 -22 1 -28 0 -17 -3 -140 1 -144 5 -2 2 -1 10 2 17 5 15 104 18
125 5z m202 -9 c0 -17 -7 -18 -65 -17 -43 1 -65 6 -65 14 0 19 5 20 69 21 53
1 61 -1 61 -18z m208 0 c3 -16 -6 -18 -92 -18 -87 0 -115 7 -102 28 2 4 46 7
97 7 81 0 94 -2 97 -17z m160 13 c8 0 12 -7 10 -13 -5 -15 -76 -29 -83 -17 -3
4 -19 4 -35 -1 -31 -9 -46 1 -37 23 4 10 76 14 145 8z m272 -8 c0 -6 5 -15 11
-18 6 -4 9 0 7 10 -3 18 -1 19 102 16 22 -1 30 -6 30 -19 0 -16 -9 -19 -75
-19 -60 -1 -77 3 -85 16 -5 9 -10 11 -10 5 0 -7 -26 -11 -70 -12 -38 0 -74 -3
-80 -7 -5 -3 -10 -2 -10 2 0 5 -18 7 -41 5 -37 -4 -40 -3 -31 14 9 17 23 19
131 19 87 0 121 -3 121 -12z m-937 -50 c-7 -2 -19 -2 -25 0 -7 3 -2 5 12 5 14
0 19 -2 13 -5z m175 -22 c17 -1 22 -6 20 -18 -2 -13 -14 -17 -46 -18 -23 -1
-42 4 -42 10 0 6 -3 5 -8 -2 -9 -14 -44 -12 -54 2 -5 6 -8 6 -8 -1 0 -6 -16
-11 -35 -12 -29 -1 -35 2 -35 19 0 18 6 20 60 18 33 -1 62 0 65 2 2 3 17 4 32
3 15 -1 38 -3 51 -3z m880 -3 c23 1 42 -2 42 -7 0 -5 9 -7 20 -4 16 4 19 2 14
-11 -7 -19 -9 -19 -35 -6 -10 6 -19 7 -19 2 0 -12 -94 -10 -102 2 -5 7 -8 6
-8 -3 0 -11 -3 -11 -15 -1 -8 7 -15 9 -15 4 0 -5 -13 -9 -30 -9 -16 -1 -30 4
-30 10 0 6 -3 7 -8 0 -4 -5 -14 -10 -22 -10 -8 0 -18 5 -22 10 -5 7 -8 7 -8 0
0 -6 -28 -10 -62 -10 -52 0 -63 3 -66 17 -3 17 9 18 143 17 80 -1 149 1 152 5
3 3 11 2 17 -2 6 -3 30 -6 54 -4z m-828 -12 c0 -8 -4 -18 -10 -21 -5 -3 -10 3
-10 14 0 12 5 21 10 21 6 0 10 -6 10 -14z m77 -1 c0 -9 -6 -14 -14 -11 -7 3
-13 2 -13 -2 0 -4 -9 -8 -20 -8 -13 0 -20 7 -20 18 0 14 8 18 33 18 24 0 34
-5 34 -15z m373 2 c0 -7 -7 -20 -14 -30 -14 -18 -15 -17 -21 4 -4 12 -10 18
-14 13 -8 -11 -72 -12 -88 -1 -8 5 -13 3 -14 -5 0 -10 -2 -10 -6 1 -5 11 -7
11 -14 0 -8 -12 -11 -11 -19 1 -9 13 -10 13 -10 0 0 -9 -3 -11 -8 -5 -9 12
-44 16 -36 4 10 -17 -29 -9 -43 9 -8 9 -12 12 -9 5 4 -7 -1 -11 -11 -11 -10 0
-26 -3 -35 -7 -14 -5 -18 -2 -18 14 0 20 4 21 180 20 135 0 180 -3 180 -12z"/>
<path d="M835 5880 c-3 -5 -1 -10 4 -10 6 0 11 5 11 10 0 6 -2 10 -4 10 -3 0
-8 -4 -11 -10z"/>
<path d="M785 5790 c-3 -5 -1 -10 4 -10 6 0 11 5 11 10 0 6 -2 10 -4 10 -3 0
-8 -4 -11 -10z"/>
<path d="M780 5700 c0 -5 5 -10 10 -10 6 0 10 5 10 10 0 6 -4 10 -10 10 -5 0
-10 -4 -10 -10z"/>
<path d="M2631 5890 c2 -27 6 -47 11 -44 4 3 8 1 8 -5 0 -5 -3 -12 -8 -14 -5
-4 -8 -72 -2 -72 0 0 2 -44 3 -98 1 -53 -1 -97 -5 -97 -4 0 -4 -12 -1 -27 3
-16 6 -32 6 -38 0 -10 242 -12 304 -2 17 3 34 2 37 -1 4 -3 50 -5 103 -4 63 1
102 -3 112 -11 12 -10 13 -9 6 2 -6 11 -4 13 10 8 9 -4 25 -2 33 5 10 8 13 8
9 2 -8 -13 24 -14 34 -1 3 4 18 3 32 -2 15 -6 27 -7 27 -2 0 13 34 9 52 -6 12
-11 21 -12 36 -4 11 6 89 11 176 12 152 1 158 2 165 22 5 12 5 27 0 32 -4 6
-5 15 -1 21 8 11 58 12 69 1 10 -10 53 -8 53 2 0 12 132 11 147 -1 7 -5 29 -7
50 -3 21 3 99 7 173 8 l135 2 0 40 c0 38 -2 40 -33 43 -33 3 -34 4 -30 47 2
36 1 42 -13 35 -8 -5 -22 -4 -30 1 -8 5 -9 9 -2 9 8 0 9 9 3 29 -4 16 -4 33 1
38 8 8 -2 11 -47 15 -6 1 -9 20 -8 45 1 23 -2 45 -7 49 -6 3 -180 5 -387 4
-207 -1 -429 -1 -492 -1 -63 1 -216 1 -340 1 -249 -2 -262 -2 -338 4 l-53 5 2
-49z m57 0 c-2 -31 -24 -41 -34 -15 -9 21 3 45 21 45 11 0 15 -9 13 -30z m522
-12 c0 -11 -8 -18 -20 -18 -13 0 -18 5 -15 15 16 51 16 50 25 35 6 -8 10 -23
10 -32z m693 23 c20 2 39 0 42 -3 4 -4 18 -3 32 3 37 14 43 11 43 -16 0 -16
-6 -25 -15 -25 -8 0 -15 6 -15 13 0 8 -3 8 -8 2 -4 -6 -35 -11 -69 -12 -56 -1
-63 1 -63 18 0 10 -6 19 -12 19 -9 0 -8 3 2 10 9 6 17 5 21 -1 3 -6 22 -9 42
-8z m-914 2 c-1 -16 -18 -48 -18 -36 -1 6 -4 18 -7 27 -4 11 -1 16 10 16 9 0
16 -3 15 -7z m121 -6 c8 1 20 2 25 3 22 5 35 -1 35 -15 0 -21 -30 -31 -41 -14
-7 12 -9 12 -9 0 0 -11 -3 -11 -17 0 -9 8 -14 9 -10 3 4 -7 -5 -11 -23 -12
-22 0 -30 4 -31 16 0 14 -2 13 -9 -3 -8 -19 -9 -18 -11 5 -2 24 -2 24 -6 3 -4
-22 -23 -33 -23 -14 0 34 13 42 59 35 25 -4 53 -7 61 -7z m132 -12 c-2 -10 1
-14 7 -10 6 3 11 1 11 -4 0 -6 -9 -11 -20 -11 -15 0 -20 7 -20 26 0 16 5 24
13 21 6 -2 11 -12 9 -22z m108 -2 c0 -14 -6 -23 -15 -23 -8 0 -15 6 -15 13 0
8 -4 7 -10 -3 -8 -12 -10 -10 -11 10 -2 24 -2 24 -6 3 -5 -27 -23 -31 -23 -5
0 26 7 30 46 29 29 -1 34 -5 34 -24z m204 11 c10 -25 7 -34 -9 -34 -9 0 -15 9
-15 25 0 28 15 34 24 9z m52 5 c5 -8 8 -8 14 0 11 18 40 1 39 -23 0 -20 -1
-20 -9 -1 -8 19 -9 19 -9 1 -1 -15 -4 -16 -16 -6 -10 9 -15 9 -15 1 0 -14 -27
-15 -35 -1 -8 14 1 40 14 40 5 0 13 -5 17 -11z m109 2 c11 -5 25 -5 30 0 17
13 33 -4 24 -26 -5 -13 -8 -15 -8 -5 -1 13 -2 13 -11 0 -9 -13 -11 -13 -20 0
-6 10 -10 11 -10 3 0 -15 -36 -18 -44 -4 -7 11 3 41 13 40 3 0 15 -4 26 -8z
m436 -11 c0 -10 3 -9 9 5 8 18 9 18 9 -6 1 -29 -26 -36 -45 -11 -9 12 -13 12
-19 2 -6 -9 -4 -11 6 -5 8 5 11 4 6 -1 -12 -12 -30 -12 -39 1 -5 6 -8 6 -8 -2
0 -7 -7 -13 -15 -13 -9 0 -15 9 -15 21 0 17 5 20 24 17 14 -3 29 -2 35 1 19
12 51 7 52 -9z m79 -5 c0 -8 -4 -17 -10 -20 -6 -4 -10 5 -10 20 0 15 4 24 10
20 6 -3 10 -12 10 -20z m-1440 -5 c0 -13 -9 -17 -45 -16 -36 0 -45 3 -45 18 0
14 8 17 45 16 35 0 45 -4 45 -18z m150 0 c0 -16 -8 -18 -60 -17 -33 1 -60 6
-60 12 0 5 -5 3 -10 -5 -8 -12 -10 -11 -10 7 0 20 5 21 70 21 60 0 70 -3 70
-18z m580 -2 c0 -13 -8 -18 -30 -18 -16 0 -30 5 -30 11 0 6 -6 4 -14 -3 -21
-21 -86 -11 -86 13 0 17 7 19 80 17 70 -1 80 -4 80 -20z m303 2 c4 -15 0 -20
-13 -20 -22 0 -34 15 -25 30 10 17 32 11 38 -10z m377 6 c0 -8 -4 -18 -10 -21
-5 -3 -10 3 -10 14 0 12 5 21 10 21 6 0 10 -6 10 -14z m-1510 -39 c0 -1 -4
-17 -10 -35 -8 -29 -7 -32 6 -21 9 7 51 12 114 13 87 1 100 -1 100 -16 0 -15
-14 -17 -121 -17 l-121 0 6 27 c4 15 7 33 8 40 1 10 18 19 18 9z m990 -12 c0
-2 -9 -3 -19 -2 -11 0 -18 5 -15 9 4 6 34 0 34 -7z m370 3 c0 7 7 9 17 5 15
-6 15 -7 -3 -13 -24 -9 -56 -1 -48 12 3 5 12 4 20 -3 10 -8 14 -8 14 -1z m72
-10 c-6 -6 -16 -7 -22 -3 -9 6 -9 9 1 16 17 10 34 0 21 -13z m102 14 c2 -4 -7
-8 -22 -9 -24 -2 -24 -1 -7 7 11 5 21 9 22 9 1 1 4 -3 7 -7z m-1451 -9 c-7 -2
-19 -2 -25 0 -7 3 -2 5 12 5 14 0 19 -2 13 -5z m135 0 c-10 -2 -28 -2 -40 0
-13 2 -5 4 17 4 22 1 32 -1 23 -4z m59 1 c-3 -3 -12 -4 -19 -1 -8 3 -5 6 6 6
11 1 17 -2 13 -5z m150 0 c-3 -3 -12 -4 -19 -1 -8 3 -5 6 6 6 11 1 17 -2 13
-5z m80 0 c-3 -3 -12 -4 -19 -1 -8 3 -5 6 6 6 11 1 17 -2 13 -5z m71 -1 c-10
-2 -26 -2 -35 0 -10 3 -2 5 17 5 19 0 27 -2 18 -5z m59 1 c-3 -3 -12 -4 -19
-1 -8 3 -5 6 6 6 11 1 17 -2 13 -5z m186 -1 c-7 -2 -21 -2 -30 0 -10 3 -4 5
12 5 17 0 24 -2 18 -5z m117 3 c0 -2 -7 -7 -16 -10 -8 -3 -12 -2 -9 4 6 10 25
14 25 6z m108 -3 c-10 -2 -26 -2 -35 0 -10 3 -2 5 17 5 19 0 27 -2 18 -5z
m105 0 c-7 -2 -19 -2 -25 0 -7 3 -2 5 12 5 14 0 19 -2 13 -5z m74 1 c-3 -3
-12 -4 -19 -1 -8 3 -5 6 6 6 11 1 17 -2 13 -5z m73 -4 c-19 -13 -30 -13 -30 0
0 6 10 10 23 10 18 0 19 -2 7 -10z m177 4 c-3 -3 -12 -4 -19 -1 -8 3 -5 6 6 6
11 1 17 -2 13 -5z m-1156 -46 c4 -7 8 -6 11 2 5 16 65 23 73 10 4 -6 12 -7 18
-3 7 5 33 8 60 9 40 1 47 -2 47 -17 0 -17 -8 -19 -65 -19 -37 0 -65 4 -65 10
0 6 -4 10 -10 10 -5 0 -9 -5 -7 -11 1 -8 -22 -11 -73 -10 -75 2 -107 14 -82
30 18 11 85 3 93 -11z m407 -1 c2 -12 -3 -17 -17 -17 -12 0 -21 6 -21 13 0 7
-3 8 -8 2 -11 -16 -34 -17 -43 -3 -7 10 -9 10 -9 1 0 -9 -16 -13 -45 -13 -32
0 -45 4 -45 14 0 20 12 22 104 21 68 0 81 -3 84 -18z m187 -2 c-2 -11 -4 -22
-4 -24 -1 -3 -8 4 -17 15 -8 10 -13 13 -9 7 8 -16 -130 -19 -140 -3 -13 21 7
27 89 26 79 -1 85 -2 81 -21z m208 16 c4 -1 7 -9 7 -18 0 -15 -2 -16 -10 -3
-6 9 -10 10 -10 3 0 -8 -20 -12 -57 -12 -32 0 -70 -3 -85 -6 -23 -4 -28 -2
-28 13 0 10 2 21 4 23 4 3 151 3 179 0z m163 -3 c4 -4 12 -4 18 0 6 3 32 7 59
8 39 1 47 -2 47 -18 0 -15 -8 -18 -59 -18 -33 0 -63 5 -67 11 -5 8 -9 8 -14
-1 -8 -13 -115 -18 -127 -7 -3 4 -3 12 -1 19 6 14 131 19 144 6z m199 -6 c-3
-10 0 -10 18 1 12 7 35 12 51 12 22 0 30 -5 32 -22 3 -15 -1 -23 -11 -23 -9 0
-12 6 -9 18 5 14 4 14 -4 3 -7 -10 -31 -15 -71 -15 -57 -1 -61 0 -61 21 0 18
5 22 30 20 20 -1 28 -6 25 -15z m-668 -48 c-3 -3 -12 -4 -19 -1 -8 3 -5 6 6 6
11 1 17 -2 13 -5z m123 2 c0 -3 -4 -8 -10 -11 -5 -3 -10 -1 -10 4 0 6 5 11 10
11 6 0 10 -2 10 -4z m185 -6 c-28 -12 -37 -12 -30 0 3 6 16 10 28 9 21 0 21
-1 2 -9z m65 0 c0 -5 -7 -7 -15 -4 -8 4 -15 8 -15 10 0 2 7 4 15 4 8 0 15 -4
15 -10z m95 0 c-3 -5 -11 -10 -16 -10 -6 0 -7 5 -4 10 3 6 11 10 16 10 6 0 7
-4 4 -10z m68 3 c-7 -2 -19 -2 -25 0 -7 3 -2 5 12 5 14 0 19 -2 13 -5z m74 1
c-3 -3 -12 -4 -19 -1 -8 3 -5 6 6 6 11 1 17 -2 13 -5z m-993 -25 c120 -1 136
-3 136 -18 0 -15 -16 -17 -150 -17 -133 0 -150 2 -150 16 0 20 10 31 20 25 5
-3 69 -5 144 -6z m-184 -21 c0 -11 -7 -18 -20 -18 -11 0 -20 6 -20 13 0 8 -4
7 -10 -3 -8 -12 -13 -13 -29 -3 -15 10 -21 10 -24 0 -3 -9 -9 -9 -26 1 -12 7
-21 8 -21 2 0 -18 -20 -11 -21 8 0 14 -1 15 -7 1 -4 -9 -19 -15 -37 -15 -18 0
-33 6 -37 15 -6 14 -7 13 -7 -1 -1 -25 -21 -22 -21 2 0 20 6 20 140 19 129 -2
140 -4 140 -21z m542 9 c14 -23 8 -26 -42 -24 -32 1 -55 8 -61 17 -9 13 -10
13 -6 -1 5 -14 -2 -17 -38 -15 -46 2 -61 9 -51 24 9 15 189 13 198 -1z m128
-7 c0 -17 -7 -20 -40 -20 -25 0 -40 5 -40 13 -1 6 -8 0 -16 -15 -18 -34 -24
-36 -17 -5 10 46 12 47 63 47 43 0 50 -3 50 -20z m190 -1 c0 -15 -11 -17 -85
-17 -75 0 -85 2 -85 17 0 16 10 18 85 18 74 0 85 -3 85 -18z m160 0 c0 -12 -7
-19 -20 -19 -11 0 -20 6 -20 13 0 9 -2 9 -8 -1 -11 -16 -102 -14 -102 3 0 19
7 21 80 22 62 0 70 -2 70 -18z m260 -3 c0 -17 -2 -18 -10 -6 -6 10 -10 11 -10
3 0 -7 -7 -13 -15 -13 -8 0 -15 6 -15 13 0 8 -4 7 -10 -3 -9 -13 -11 -13 -20
0 -6 10 -10 11 -10 2 0 -9 -21 -12 -75 -11 -52 1 -75 5 -75 13 0 7 2 15 4 17
2 2 56 4 120 5 111 1 116 0 116 -20z m100 2 c0 -19 -7 -21 -55 -18 -35 2 -39
5 -32 22 3 8 21 13 46 13 33 0 41 -3 41 -17z m-1494 -79 c0 -11 -4 -19 -8 -19
-4 0 -8 6 -8 13 0 8 -3 9 -8 1 -4 -6 -37 -11 -74 -12 -60 -1 -68 1 -68 17 0
16 9 18 83 18 74 1 83 -1 83 -18z m34 10 c0 -6 5 -7 13 -2 20 13 311 12 319
-1 5 -7 8 -7 8 -1 0 6 25 10 57 10 45 0 58 -4 61 -16 3 -14 -9 -17 -78 -18
-59 -1 -80 2 -80 11 0 9 -3 8 -10 -2 -9 -13 -11 -13 -20 0 -7 11 -10 11 -10 2
0 -15 -71 -13 -82 2 -5 8 -8 8 -8 0 0 -7 -35 -11 -94 -12 -91 -2 -115 5 -101
28 8 13 25 13 25 -1z m516 -9 c0 -12 -7 -20 -18 -20 -20 0 -32 16 -23 30 11
18 41 11 41 -10z m91 -1 c1 -10 -2 -19 -8 -19 -5 0 -10 8 -10 18 -1 16 -2 16
-6 0 -5 -19 -48 -25 -58 -8 -11 18 4 28 43 28 30 1 38 -3 39 -19z m193 7 c0
-7 3 -6 8 1 10 16 92 10 103 -8 7 -12 9 -11 9 1 0 13 41 15 305 15 301 0 306
0 303 -20 -2 -12 -10 -19 -18 -16 -26 6 -107 4 -119 -3 -6 -4 -11 -3 -11 3 0
7 -8 7 -25 1 -19 -7 -27 -6 -35 8 -8 14 -11 15 -19 3 -5 -8 -16 -11 -25 -8 -9
4 -16 2 -16 -3 0 -5 -7 -7 -15 -4 -8 4 -15 1 -15 -5 0 -19 -18 -12 -25 10 -4
12 -10 17 -14 11 -9 -14 -141 -13 -141 2 0 6 -9 -2 -19 -18 -18 -28 -19 -28
-26 -7 -5 16 -10 19 -19 12 -7 -6 -16 -8 -19 -5 -3 3 -54 6 -114 6 -74 -1
-110 3 -115 11 -6 9 -8 9 -8 0 0 -8 -13 -13 -30 -13 -17 0 -30 5 -31 13 0 10
-2 10 -6 0 -8 -21 -43 -16 -43 6 0 17 8 19 90 18 57 0 90 -5 90 -11z m-630
-76 c6 -2 116 1 174 3 40 3 58 -15 38 -35 -8 -8 -15 -8 -27 2 -12 10 -15 10
-15 -1 0 -10 -3 -10 -11 -2 -8 8 -20 8 -35 3 -17 -7 -24 -6 -24 3 0 7 -3 8 -8
2 -11 -15 -55 -17 -64 -3 -6 10 -8 9 -8 -2 0 -13 -1 -13 -11 0 -8 12 -12 12
-16 2 -4 -10 -8 -10 -19 -1 -11 9 -14 9 -14 0 0 -7 -5 -9 -12 -4 -17 10 -58
12 -58 2 0 -4 -9 -7 -20 -6 -11 1 -20 6 -20 12 0 5 -5 3 -10 -5 -7 -11 -10
-11 -10 -2 0 8 -5 10 -12 5 -21 -12 -38 -12 -38 0 0 8 -3 8 -8 2 -10 -14 -55
-15 -64 -1 -5 7 -8 6 -8 -4 0 -13 -1 -13 -10 0 -9 13 -10 13 -10 0 -1 -11 -4
-10 -15 4 -13 17 -15 18 -15 3 0 -9 -4 -17 -10 -17 -10 0 -14 32 -6 41 4 4
353 3 366 -1z m395 -10 c11 -8 16 -10 12 -4 -9 16 7 20 88 19 63 0 70 -2 70
-20 0 -21 -25 -28 -37 -10 -5 6 -8 5 -8 -4 0 -11 -3 -11 -15 -1 -8 7 -15 8
-15 3 0 -5 -20 -9 -45 -8 -32 2 -45 -1 -45 -11 0 -8 -4 -14 -10 -14 -5 0 -10
12 -10 28 0 17 -3 22 -8 14 -5 -8 -25 -11 -55 -8 -26 2 -50 -1 -53 -5 -3 -5
-9 -9 -14 -9 -10 0 -22 29 -15 39 8 15 141 7 160 -9z m337 -3 c10 -19 2 -38
-10 -22 -9 12 -32 18 -32 7 0 -4 -22 -8 -50 -8 -45 -1 -50 1 -50 21 0 21 4 22
66 21 52 -1 67 -5 76 -19z"/>
<path d="M3691 5884 c0 -11 3 -14 6 -6 3 7 2 16 -1 19 -3 4 -6 -2 -5 -13z"/>
<path d="M3648 5783 c7 -3 16 -2 19 1 4 3 -2 6 -13 5 -11 0 -14 -3 -6 -6z"/>
<path d="M4005 5790 c-3 -5 -1 -10 4 -10 6 0 11 5 11 10 0 6 -2 10 -4 10 -3 0
-8 -4 -11 -10z"/>
<path d="M4442 5760 c0 -14 2 -19 5 -12 2 6 2 18 0 25 -3 6 -5 1 -5 -13z"/>
<path d="M4442 5540 c0 -19 2 -27 5 -17 2 9 2 25 0 35 -3 9 -5 1 -5 -18z"/>
<path d="M4443 5405 c0 -22 2 -30 4 -17 2 12 2 30 0 40 -3 9 -5 -1 -4 -23z"/>
<path d="M923 5223 c15 -2 39 -2 55 0 15 2 2 4 -28 4 -30 0 -43 -2 -27 -4z"/>
<path d="M1333 5223 c9 -2 23 -2 30 0 6 3 -1 5 -18 5 -16 0 -22 -2 -12 -5z"/>
<path d="M1753 5223 c9 -2 25 -2 35 0 9 3 1 5 -18 5 -19 0 -27 -2 -17 -5z"/>
<path d="M1948 5223 c7 -3 16 -2 19 1 4 3 -2 6 -13 5 -11 0 -14 -3 -6 -6z"/>
<path d="M2018 5223 c23 -2 59 -2 80 0 20 2 1 4 -43 4 -44 0 -61 -2 -37 -4z"/>
<path d="M2368 5223 c6 -2 18 -2 25 0 6 3 1 5 -13 5 -14 0 -19 -2 -12 -5z"/>
<path d="M2458 5223 c23 -2 59 -2 80 0 20 2 1 4 -43 4 -44 0 -61 -2 -37 -4z"/>
<path d="M2623 5223 c26 -2 67 -2 90 0 23 2 2 3 -48 3 -49 0 -68 -1 -42 -3z"/>
<path d="M2823 5223 c15 -2 37 -2 50 0 12 2 0 4 -28 4 -27 0 -38 -2 -22 -4z"/>
<path d="M823 4933 c-8 -22 -8 -35 -2 -39 16 -9 21 1 17 38 l-3 33 -12 -32z"/>
<path d="M860 4936 c0 -19 5 -24 20 -23 11 1 20 4 20 7 0 3 -9 13 -20 23 -19
16 -20 16 -20 -7z"/>
<path d="M961 4928 c2 -13 0 -29 -4 -35 -11 -17 3 -16 26 1 15 12 15 14 2 19
-8 4 -12 13 -9 22 3 8 1 15 -6 15 -6 0 -10 -10 -9 -22z"/>
<path d="M933 4923 c-15 -5 -18 -43 -4 -43 5 0 11 11 13 25 3 14 5 25 4 24 0
0 -7 -3 -13 -6z"/>
<path d="M781 4904 c0 -11 3 -14 6 -6 3 7 2 16 -1 19 -3 4 -6 -2 -5 -13z"/>
<path d="M1131 4864 c0 -11 3 -14 6 -6 3 7 2 16 -1 19 -3 4 -6 -2 -5 -13z"/>
<path d="M1061 4824 c0 -11 3 -14 6 -6 3 7 2 16 -1 19 -3 4 -6 -2 -5 -13z"/>
<path d="M980 4819 c0 -5 5 -7 10 -4 6 3 10 8 10 11 0 2 -4 4 -10 4 -5 0 -10
-5 -10 -11z"/>
<path d="M3467 4230 c-74 -13 -137 -48 -198 -111 -69 -70 -100 -141 -107 -251
-5 -85 21 -193 58 -240 11 -15 20 -29 20 -33 0 -7 30 -36 161 -158 113 -106
148 -121 269 -121 81 0 103 4 153 26 55 26 139 100 164 145 41 73 44 212 8
333 -14 46 -27 85 -30 88 -8 9 3 -63 19 -118 18 -61 22 -142 11 -210 -16 -97
-76 -171 -175 -219 -47 -22 -68 -26 -150 -26 -80 0 -102 4 -139 23 -40 22
-145 111 -138 118 1 2 20 -3 40 -10 20 -7 35 -14 33 -17 -3 -2 39 -1 92 4 53
5 105 9 114 10 9 1 14 5 12 9 -3 4 2 9 10 9 28 2 30 4 62 26 17 12 34 20 38
16 3 -3 6 2 7 13 0 18 1 18 9 -1 8 -18 9 -17 9 8 1 16 5 26 11 22 6 -3 10 -1
10 5 0 6 5 8 10 5 6 -3 10 3 10 14 0 12 5 21 10 21 6 0 10 10 10 23 0 18 2 19
10 7 8 -12 10 -9 10 13 0 15 4 27 8 27 4 0 8 8 8 18 1 9 6 48 13 85 10 58 9
90 -3 182 -1 6 -6 17 -11 25 -5 8 -10 17 -11 20 -5 25 -74 133 -74 116 0 -4
-7 0 -16 8 -79 79 -221 119 -347 96z m209 -41 c136 -51 223 -170 232 -318 7
-122 -30 -212 -125 -303 -97 -94 -254 -120 -381 -63 -160 72 -251 257 -208
425 34 130 130 232 256 271 52 16 168 10 226 -12z"/>
<path d="M3517 4183 c-3 -5 17 -8 44 -9 28 0 44 3 36 8 -15 10 -74 10 -80 1z"/>
<path d="M3468 4173 c7 -3 16 -2 19 1 4 3 -2 6 -13 5 -11 0 -14 -3 -6 -6z"/>
<path d="M3628 4163 c7 -3 16 -2 19 1 4 3 -2 6 -13 5 -11 0 -14 -3 -6 -6z"/>
<path d="M3717 4129 c7 -7 15 -10 18 -7 3 3 -2 9 -12 12 -14 6 -15 5 -6 -5z"/>
<path d="M3264 4022 c3 -5 2 -12 -4 -14 -11 -3 -50 -105 -49 -128 0 -8 9 12
20 44 10 33 26 67 35 77 12 13 12 19 3 25 -7 4 -10 3 -5 -4z"/>
<path d="M3882 3860 c0 -14 2 -19 5 -12 2 6 2 18 0 25 -3 6 -5 1 -5 -13z"/>
<path d="M3212 3810 c0 -19 2 -27 5 -17 2 9 2 25 0 35 -3 9 -5 1 -5 -18z"/>
<path d="M3864 3770 c0 -13 4 -16 10 -10 7 7 7 13 0 20 -6 6 -10 3 -10 -10z"/>
<path d="M3276 3645 c4 -8 11 -15 16 -15 6 0 5 6 -2 15 -7 8 -14 15 -16 15 -2
0 -1 -7 2 -15z"/>
<path d="M3380 3550 c0 -9 59 -35 64 -29 2 2 -12 11 -30 20 -19 9 -34 13 -34
9z"/>
<path d="M3650 3530 c-9 -6 -10 -10 -3 -10 6 0 15 5 18 10 8 12 4 12 -15 0z"/>
<path d="M3305 4191 c-3 -5 -2 -12 3 -15 5 -3 9 1 9 9 0 17 -3 19 -12 6z"/>
<path d="M1495 4123 c-59 -6 -111 -27 -155 -60 -53 -40 -100 -106 -100 -140 0
-13 -4 -22 -8 -19 -4 2 -7 -35 -6 -82 1 -92 18 -152 59 -207 99 -132 205 -187
339 -174 84 8 115 22 171 76 57 54 87 114 92 187 5 66 -6 127 -24 133 -9 3 -9
-6 -1 -33 15 -54 5 -141 -22 -198 -27 -55 -102 -120 -158 -136 -81 -22 -198
-8 -244 30 l-23 20 33 -11 c48 -16 168 -6 222 19 24 11 48 18 54 15 5 -3 6 -1
2 5 -4 7 -2 12 4 12 17 0 52 40 79 90 19 34 26 64 29 127 3 45 8 80 13 77 5
-3 9 4 9 15 0 10 -4 21 -8 23 -4 2 -18 23 -30 48 -34 68 -72 123 -72 103 0 -4
-4 -3 -8 2 -34 49 -158 88 -247 78z m125 -34 c59 -18 130 -78 164 -139 28 -50
31 -63 31 -140 0 -71 -4 -93 -25 -134 -61 -120 -218 -184 -352 -144 -53 16
-127 84 -158 144 -33 66 -40 176 -15 242 30 76 107 149 185 173 38 11 128 10
170 -2z"/>
<path d="M1506 4072 c-2 -4 11 -6 30 -4 19 2 34 6 34 8 0 8 -59 4 -64 -4z"/>
<path d="M1430 4050 c-9 -6 -10 -10 -3 -10 6 0 15 5 18 10 8 12 4 12 -15 0z"/>
<path d="M1610 4054 c0 -2 9 -8 20 -14 15 -8 18 -8 14 3 -4 11 -34 21 -34 11z"/>
<path d="M1350 3995 c-7 -9 -10 -18 -6 -22 3 -3 6 -1 6 6 0 7 5 9 12 5 6 -4 8
-3 4 4 -3 5 0 13 6 15 8 4 9 6 2 6 -6 1 -17 -6 -24 -14z"/>
<path d="M1306 3933 c-6 -14 -5 -15 5 -6 7 7 10 15 7 18 -3 3 -9 -2 -12 -12z"/>
<path d="M1740 3936 c0 -2 7 -7 16 -10 8 -3 12 -2 9 4 -6 10 -25 14 -25 6z"/>
<path d="M1771 3895 c1 -19 18 -51 18 -35 0 8 -4 22 -9 30 -5 8 -9 11 -9 5z"/>
<path d="M1283 3875 c0 -8 4 -12 9 -9 5 3 6 10 3 15 -9 13 -12 11 -12 -6z"/>
<path d="M1272 3815 c-1 -19 0 -35 2 -35 8 0 13 49 6 60 -4 6 -7 -5 -8 -25z"/>
<path d="M1783 3787 l-1 -52 10 44 c5 24 6 47 1 52 -5 5 -9 -15 -10 -44z"/>
<path d="M1281 3760 c0 -8 4 -24 9 -35 5 -13 9 -14 9 -5 0 8 -4 24 -9 35 -5
13 -9 14 -9 5z"/>
<path d="M1750 3685 c-7 -9 -11 -17 -9 -20 3 -2 10 5 17 15 14 24 10 26 -8 5z"/>
<path d="M1355 3620 c10 -11 20 -20 23 -20 3 0 -3 9 -13 20 -10 11 -20 20 -23
20 -3 0 3 -9 13 -20z"/>
<path d="M1699 3613 c-13 -16 -12 -17 4 -4 9 7 17 15 17 17 0 8 -8 3 -21 -13z"/>
<path d="M1650 3590 c-9 -6 -10 -10 -3 -10 6 0 15 5 18 10 8 12 4 12 -15 0z"/>
<path d="M1427 3569 c7 -7 15 -10 18 -7 3 3 -2 9 -12 12 -14 6 -15 5 -6 -5z"/>
<path d="M682 3720 c0 -19 2 -27 5 -17 2 9 2 25 0 35 -3 9 -5 1 -5 -18z"/>
<path d="M682 3520 c0 -14 2 -19 5 -12 2 6 2 18 0 25 -3 6 -5 1 -5 -13z"/>
<path d="M681 3334 c0 -11 3 -14 6 -6 3 7 2 16 -1 19 -3 4 -6 -2 -5 -13z"/>
<path d="M682 3250 c0 -14 2 -19 5 -12 2 6 2 18 0 25 -3 6 -5 1 -5 -13z"/>
<path d="M683 3150 c0 -41 2 -58 4 -37 2 20 2 54 0 75 -2 20 -4 3 -4 -38z"/>
<path d="M1768 2773 c7 -3 16 -2 19 1 4 3 -2 6 -13 5 -11 0 -14 -3 -6 -6z"/>
<path d="M1808 2773 c6 -2 18 -2 25 0 6 3 1 5 -13 5 -14 0 -19 -2 -12 -5z"/>
<path d="M3678 2773 c12 -2 30 -2 40 0 9 3 -1 5 -23 4 -22 0 -30 -2 -17 -4z"/>
<path d="M670 7587 c0 -84 2 -96 16 -90 11 4 12 8 4 13 -7 4 -10 35 -9 84 1
42 -1 79 -5 83 -3 3 -6 -37 -6 -90z"/>
<path d="M4433 7605 c0 -27 2 -38 4 -22 2 15 2 37 0 50 -2 12 -4 0 -4 -28z"/>
<path d="M4518 7643 c7 -3 16 -2 19 1 4 3 -2 6 -13 5 -11 0 -14 -3 -6 -6z"/>
<path d="M2739 7593 c-13 -16 -12 -17 4 -4 9 7 17 15 17 17 0 8 -8 3 -21 -13z"/>
<path d="M2314 7543 l39 -42 -94 -4 -94 -3 103 -2 c56 -1 102 -1 102 1 0 2
-21 23 -47 47 l-48 45 39 -42z"/>
<path d="M1988 7513 c6 -2 18 -2 25 0 6 3 1 5 -13 5 -14 0 -19 -2 -12 -5z"/>
<path d="M883 7503 c15 -2 37 -2 50 0 12 2 0 4 -28 4 -27 0 -38 -2 -22 -4z"/>
<path d="M1053 7503 c15 -2 37 -2 50 0 12 2 0 4 -28 4 -27 0 -38 -2 -22 -4z"/>
<path d="M1328 7503 c29 -2 74 -2 100 0 26 2 2 3 -53 3 -55 0 -76 -1 -47 -3z"/>
<path d="M1763 7503 c15 -2 37 -2 50 0 12 2 0 4 -28 4 -27 0 -38 -2 -22 -4z"/>
<path d="M1903 7503 c15 -2 37 -2 50 0 12 2 0 4 -28 4 -27 0 -38 -2 -22 -4z"/>
<path d="M2083 7503 c15 -2 37 -2 50 0 12 2 0 4 -28 4 -27 0 -38 -2 -22 -4z"/>
<path d="M2655 7500 c-3 -5 -2 -10 4 -10 5 0 13 5 16 10 3 6 2 10 -4 10 -5 0
-13 -4 -16 -10z"/>
<path d="M3038 7493 c7 -3 16 -2 19 1 4 3 -2 6 -13 5 -11 0 -14 -3 -6 -6z"/>
<path d="M3378 7493 c7 -3 16 -2 19 1 4 3 -2 6 -13 5 -11 0 -14 -3 -6 -6z"/>
<path d="M3448 7493 c7 -3 16 -2 19 1 4 3 -2 6 -13 5 -11 0 -14 -3 -6 -6z"/>
<path d="M3573 7493 c31 -2 83 -2 115 0 31 2 5 3 -58 3 -63 0 -89 -1 -57 -3z"/>
<path d="M4510 7492 c0 -12 59 -22 66 -10 3 4 -4 8 -15 8 -10 0 -26 3 -35 6
-9 3 -16 2 -16 -4z"/>
<path d="M664 7463 c10 -10 1756 -10 1749 0 -2 4 -398 7 -880 7 -482 0 -873
-3 -869 -7z"/>
<path d="M2625 7461 c25 -10 1811 -8 1821 2 4 4 -409 7 -917 6 -508 0 -915 -4
-904 -8z"/>
<path d="M2655 7420 c4 -7 248 -10 701 -10 456 0 694 3 694 10 0 7 -240 10
-701 10 -464 0 -698 -3 -694 -10z"/>
<path d="M3093 7153 c15 -2 37 -2 50 0 12 2 0 4 -28 4 -27 0 -38 -2 -22 -4z"/>
<path d="M3323 7153 c59 -2 155 -2 215 0 59 1 10 3 -108 3 -118 0 -167 -2
-107 -3z"/>
<path d="M3658 7153 c6 -2 18 -2 25 0 6 3 1 5 -13 5 -14 0 -19 -2 -12 -5z"/>
<path d="M3958 7153 c7 -3 16 -2 19 1 4 3 -2 6 -13 5 -11 0 -14 -3 -6 -6z"/>
<path d="M1995 7070 c-163 -4 -111 -6 235 -8 245 -2 519 -5 610 -8 91 -3 162
-3 159 0 -14 15 -643 25 -1004 16z"/>
<path d="M3730 7072 c-435 -1 -698 -6 -704 -12 -6 -6 242 -8 709 -4 396 3 721
7 723 8 9 10 -92 11 -728 8z"/>
<path d="M463 5955 c0 -38 2 -53 4 -32 2 20 2 52 0 70 -2 17 -4 1 -4 -38z"/>
<path d="M463 5785 c0 -44 2 -61 4 -37 2 23 2 59 0 80 -2 20 -4 1 -4 -43z"/>
<path d="M463 5045 c0 -27 2 -38 4 -22 2 15 2 37 0 50 -2 12 -4 0 -4 -28z"/>
<path d="M462 4650 c0 -14 2 -19 5 -12 2 6 2 18 0 25 -3 6 -5 1 -5 -13z"/>
<path d="M462 4500 c0 -19 2 -27 5 -17 2 9 2 25 0 35 -3 9 -5 1 -5 -18z"/>
<path d="M464 3995 c0 -104 2 -146 3 -92 2 54 2 139 0 190 -1 51 -3 7 -3 -98z"/>
<path d="M462 3770 c0 -14 2 -19 5 -12 2 6 2 18 0 25 -3 6 -5 1 -5 -13z"/>
<path d="M789 2667 c-19 -10 -24 -21 -25 -55 -2 -32 2 -42 15 -43 9 -1 123 -3
254 -4 159 -1 242 2 252 9 8 6 19 25 24 42 10 37 -6 51 -56 49 -18 0 -33 3
-33 7 0 4 -11 8 -25 8 -14 0 -25 -6 -25 -12 0 -10 -3 -9 -9 1 -7 10 -10 10
-13 1 -3 -10 -9 -10 -27 0 -15 7 -21 8 -17 1 4 -6 3 -11 -3 -11 -5 0 -13 5
-16 10 -8 14 -55 13 -55 -1 0 -11 -189 -7 -208 5 -4 2 -19 -1 -33 -7z m431
-42 c0 -3 -4 -3 -10 0 -5 3 -10 -1 -10 -10 0 -9 5 -13 10 -10 6 3 10 1 10 -4
0 -6 -7 -11 -15 -11 -11 0 -15 11 -15 36 0 31 2 34 15 20 8 -8 15 -17 15 -21z
m-370 14 c0 -6 9 -8 21 -4 18 6 20 5 10 -14 -9 -17 -9 -21 2 -21 8 0 17 8 19
18 8 28 38 24 38 -5 0 -12 -5 -23 -11 -23 -6 0 -9 7 -6 15 4 8 2 17 -2 20 -5
2 -11 -4 -14 -15 -7 -29 -41 -25 -56 6 -7 16 -18 24 -29 22 -26 -5 -21 -33 6
-32 25 1 30 -11 7 -20 -24 -9 -45 4 -45 28 0 13 3 26 7 29 10 11 53 8 53 -4z
m215 -21 c-1 -18 -6 -32 -11 -30 -5 1 -9 7 -8 12 1 6 2 19 3 30 0 11 5 20 10
20 5 0 8 -15 6 -32z m-37 -6 c2 -12 -1 -22 -7 -22 -6 0 -12 10 -12 23 l-2 22
-4 -22 c-2 -13 -9 -23 -15 -23 -5 0 -8 7 -5 15 4 8 2 17 -3 20 -6 4 -10 -3
-10 -14 0 -12 -4 -21 -10 -21 -14 0 -12 37 3 43 30 11 62 1 65 -21z m87 18 c5
-8 11 -7 20 0 8 7 19 9 25 5 17 -11 11 -42 -10 -48 -14 -4 -20 0 -20 11 0 13
-2 12 -14 -3 -12 -16 -16 -17 -30 -6 -12 10 -13 18 -5 32 11 21 24 24 34 9z
m169 -12 c-12 -39 -38 -49 -53 -20 -13 24 4 42 37 42 20 0 22 -4 16 -22z"/>
<path d="M1096 2621 c-4 -7 -5 -15 -2 -18 9 -9 19 4 14 18 -4 11 -6 11 -12 0z"/>
<path d="M1143 2615 c0 -8 4 -15 9 -15 4 0 8 4 8 9 0 6 -4 12 -8 15 -5 3 -9
-1 -9 -9z"/>
<path d="M1247 2623 c-12 -11 -8 -23 8 -23 8 0 15 7 15 15 0 16 -12 20 -23 8z"/>
<path d="M4492 2635 c0 -16 2 -22 5 -12 2 9 2 23 0 30 -3 6 -5 -1 -5 -18z"/>
<path d="M866 2502 c-3 -2 -27 -5 -53 -6 -44 -1 -48 -3 -48 -26 0 -14 -4 -31
-8 -37 -5 -7 -7 -13 -5 -14 2 0 12 -3 23 -6 11 -2 170 -5 353 -6 325 -2 333
-2 337 18 16 74 15 75 -91 72 -52 -2 -98 1 -100 5 -3 5 -10 5 -16 2 -14 -9
-228 -12 -234 -3 -2 3 -22 3 -44 -1 -23 -4 -57 -4 -75 0 -19 4 -36 5 -39 2z
m-18 -32 c6 0 12 -9 12 -19 0 -15 -7 -19 -35 -19 -31 0 -35 3 -35 25 0 21 4
24 23 19 12 -3 28 -6 35 -6z m174 -2 c20 2 28 -2 28 -13 0 -20 -32 -33 -38
-16 -4 11 -6 11 -12 0 -7 -10 -11 -10 -24 0 -12 11 -16 11 -16 1 0 -9 -4 -9
-17 1 -11 10 -14 10 -9 2 4 -8 1 -13 -8 -13 -9 0 -16 6 -16 13 0 8 -4 7 -10
-3 -9 -13 -10 -13 -10 0 0 13 -1 13 -10 0 -8 -12 -10 -11 -10 7 0 21 4 23 40
20 22 -2 45 0 52 4 7 4 17 5 22 1 6 -3 23 -5 38 -4z m98 -1 c8 0 21 -4 28 -10
8 -6 12 -6 12 3 0 7 7 10 15 7 8 -4 17 -2 20 3 12 19 25 10 24 -17 0 -25 -1
-26 -9 -8 -7 17 -9 17 -9 3 -1 -10 -8 -18 -17 -18 -9 0 -12 5 -8 12 5 7 3 8
-7 2 -23 -14 -52 -15 -61 -2 -6 10 -8 10 -8 1 0 -7 -9 -13 -20 -13 -15 0 -20
7 -20 26 0 22 3 24 23 18 12 -4 29 -7 37 -7z m330 1 c0 -5 0 -15 0 -23 0 -8
-7 -15 -15 -15 -8 0 -15 6 -15 13 0 9 -2 9 -8 0 -9 -14 -62 -12 -62 2 0 6 -5
3 -10 -5 -6 -10 -10 -11 -10 -2 0 6 -5 12 -11 12 -5 0 -7 -4 -4 -10 3 -5 1
-10 -4 -10 -6 0 -11 9 -11 21 0 13 5 19 13 16 6 -2 20 -1 30 2 24 9 107 8 107
-1z m-162 -18 c-4 -18 -36 -26 -50 -12 -16 16 0 32 28 30 16 -2 24 -8 22 -18z"/>
<path d="M801 2454 c0 -11 3 -14 6 -6 3 7 2 16 -1 19 -3 4 -6 -2 -5 -13z"/>
<path d="M1025 2450 c-3 -5 -1 -10 4 -10 6 0 11 5 11 10 0 6 -2 10 -4 10 -3 0
-8 -4 -11 -10z"/>
<path d="M1070 2450 c0 -5 5 -10 11 -10 5 0 7 5 4 10 -3 6 -8 10 -11 10 -2 0
-4 -4 -4 -10z"/>
<path d="M2276 2502 c-4 -3 -46 -7 -94 -7 -86 0 -87 0 -101 -29 -10 -22 -11
-31 -2 -34 6 -2 9 -8 5 -13 -5 -9 2 -11 49 -11 15 -1 27 -5 27 -11 0 -6 5 -6
13 0 6 5 21 8 32 7 46 -6 100 -6 280 0 177 7 191 9 206 29 19 23 16 42 -9 52
-9 4 -99 9 -200 11 -100 2 -186 5 -191 8 -4 3 -11 2 -15 -2z m-156 -48 c0 -34
-17 -38 -22 -6 -3 19 0 29 9 29 7 0 13 -11 13 -23z m49 9 c6 -10 11 -12 11 -5
0 19 40 15 41 -5 0 -15 2 -15 9 2 5 11 9 16 9 12 1 -4 9 -3 19 2 21 11 37 3
37 -21 0 -30 -15 -32 -16 -2 -1 21 -3 23 -6 9 -3 -11 -10 -24 -15 -30 -7 -7
-8 -2 -3 14 5 16 4 21 -4 17 -6 -4 -11 -14 -11 -21 0 -9 -6 -12 -15 -9 -8 4
-15 13 -15 21 0 8 -5 11 -10 8 -6 -4 -8 -10 -6 -14 3 -4 -8 -8 -24 -9 -25 -1
-30 3 -30 24 0 28 15 32 29 7z m254 -13 c-7 -28 -13 -25 -13 6 0 14 4 23 9 20
5 -3 7 -15 4 -26z m47 1 c0 -24 -3 -28 -20 -24 -25 7 -26 29 -2 42 9 6 18 11
20 11 1 0 2 -13 2 -29z m96 20 c140 -2 128 2 116 -31 -6 -16 -11 -19 -16 -12
-4 7 -12 10 -17 7 -5 -4 -9 -1 -9 6 0 8 -6 5 -13 -5 -13 -17 -14 -17 -30 -1
-9 9 -17 12 -17 6 0 -6 -7 -11 -15 -11 -8 0 -15 5 -15 12 0 9 -3 9 -12 0 -17
-17 -28 -15 -29 6 -1 16 -2 16 -6 0 -5 -19 -23 -25 -23 -9 0 18 12 41 19 37 4
-3 34 -5 67 -5z m-240 -38 c-11 -11 -19 6 -11 24 8 17 8 17 12 0 3 -10 2 -21
-1 -24z m74 17 c0 -16 -7 -20 -30 -20 -23 0 -30 4 -30 20 0 16 7 20 30 20 23
0 30 -4 30 -20z"/>
<path d="M3415 2500 l-80 -5 -3 -34 c-2 -18 1 -38 7 -44 10 -10 471 -18 513
-9 24 6 41 57 23 72 -9 7 -80 13 -191 16 -98 3 -180 6 -183 7 -3 1 -42 0 -86
-3z m-1 -29 c4 -1 6 -8 2 -16 -3 -8 -1 -15 4 -15 5 0 11 8 13 18 4 13 5 11 6
-5 1 -17 -5 -23 -19 -23 -11 0 -20 6 -21 13 0 10 -2 10 -6 0 -2 -7 -13 -13
-24 -13 -13 0 -19 7 -19 24 0 21 4 24 28 21 15 -2 31 -4 36 -4z m75 -25 c0
-11 -3 -15 -6 -8 -2 6 -9 12 -14 12 -6 0 -7 -4 -4 -10 3 -5 1 -10 -4 -10 -12
0 -15 33 -5 43 12 12 34 -6 33 -27z m80 13 c-7 -4 -10 -11 -5 -16 4 -4 12 0
17 10 12 20 79 24 79 5 0 -9 3 -8 10 2 11 17 25 7 17 -13 -3 -8 -19 -14 -36
-15 -24 0 -29 3 -24 16 4 14 3 15 -5 2 -6 -8 -25 -16 -41 -18 -25 -2 -31 1
-31 16 0 23 9 34 22 25 6 -3 5 -9 -3 -14z m195 -1 c3 5 26 9 51 10 39 2 45 -1
45 -18 0 -21 -19 -28 -21 -7 0 10 -2 10 -6 0 -2 -7 -13 -13 -24 -13 -10 0 -19
6 -19 13 0 8 -3 8 -8 2 -4 -6 -19 -12 -34 -13 -20 -1 -28 3 -29 16 0 14 -2 14
-9 -3 -8 -19 -9 -19 -9 2 -1 26 29 36 46 16 6 -8 14 -10 17 -5z m-248 -3 c-3
-8 -1 -15 4 -15 5 0 11 8 13 18 4 13 5 11 6 -5 1 -17 -5 -23 -19 -23 -13 0
-20 7 -20 20 0 11 5 20 11 20 6 0 9 -7 5 -15z"/>
<path d="M3365 2450 c-3 -5 -1 -10 4 -10 6 0 11 5 11 10 0 6 -2 10 -4 10 -3 0
-8 -4 -11 -10z"/>
<path d="M3260 2490 c-32 -5 -35 -8 -35 -40 0 -34 1 -35 41 -38 l40 -3 -4 38
c-2 21 -4 40 -5 43 -1 3 -18 3 -37 0z m18 -37 c-5 -25 -28 -28 -28 -4 0 12 6
21 16 21 9 0 14 -7 12 -17z"/>
<path d="M1980 2450 l0 -41 45 2 c43 3 58 12 33 22 -10 4 -10 7 -1 17 16 18
-11 39 -49 40 -26 0 -28 -3 -28 -40z m54 -11 c-8 -14 -34 -11 -34 4 0 8 3 17
7 20 9 9 34 -13 27 -24z"/>
<path d="M4494 2330 c0 -74 1 -105 3 -67 2 37 2 97 0 135 -2 37 -3 6 -3 -68z"/>
<path d="M2067 2354 c-3 -4 -2 -14 3 -24 5 -10 6 -21 2 -25 -4 -5 -1 -5 6 -1
8 5 9 13 2 25 -5 10 -6 21 -3 25 3 3 4 6 1 6 -2 0 -8 -3 -11 -6z"/>
<path d="M769 2339 c-14 -8 -8 -87 7 -93 7 -3 15 -2 18 2 12 11 81 10 95 -2
10 -7 13 -7 8 0 -8 13 520 14 541 1 6 -5 12 -5 12 0 0 9 157 9 166 0 4 -3 15
-2 26 4 13 7 23 7 31 0 8 -6 18 -6 27 -1 7 4 24 4 37 -1 16 -6 22 -5 18 1 -3
6 0 10 8 10 11 0 16 38 8 71 0 3 -27 7 -58 8 -120 6 -935 6 -944 0z m45 -17
c2 -4 59 -7 125 -6 118 2 121 2 120 -19 0 -21 -1 -21 -9 -2 -6 15 -9 16 -9 4
-1 -18 -32 -22 -43 -5 -5 7 -8 7 -8 1 0 -15 -43 -16 -52 -2 -6 9 -8 9 -8 0 0
-7 -7 -13 -15 -13 -8 0 -15 6 -15 13 0 7 -3 8 -8 2 -11 -16 -34 -17 -43 -3 -5
7 -9 8 -9 3 0 -14 -47 -18 -55 -4 -4 5 -4 16 -1 24 6 16 22 20 30 7z m756 0
c0 -5 41 -8 91 -7 49 1 92 -2 94 -5 2 -4 -2 -16 -10 -26 -12 -15 -16 -16 -23
-6 -5 8 -13 14 -17 14 -4 0 -12 -6 -16 -14 -7 -11 -9 -11 -9 1 0 11 -3 11 -15
1 -12 -10 -15 -10 -16 1 0 10 -2 11 -6 2 -8 -22 -25 -14 -19 10 3 12 3 16 0 9
-3 -6 -10 -10 -15 -7 -5 4 -6 -2 -2 -12 5 -14 3 -16 -7 -6 -7 6 -19 9 -26 6
-9 -3 -14 2 -15 13 0 18 -1 17 -9 -1 -8 -20 -9 -20 -9 1 -1 11 2 24 6 27 9 10
23 9 23 -1z m-411 -16 c11 -8 13 -8 7 1 -5 10 3 12 32 11 34 -1 39 -4 34 -22
-3 -12 -7 -15 -10 -8 -3 10 -7 10 -18 1 -11 -9 -14 -8 -14 2 0 9 -3 10 -8 4
-4 -5 -24 -11 -44 -12 -30 -2 -38 1 -39 15 -1 16 -2 16 -6 -1 -5 -20 -23 -13
-23 8 0 17 67 18 89 1z m194 -6 c-4 -14 -13 -18 -34 -17 -16 1 -29 7 -29 12 0
7 -3 7 -8 0 -10 -15 -42 -15 -42 -1 0 20 6 22 64 24 48 1 53 -1 49 -18z m167
-2 c0 -24 -29 -36 -41 -17 -5 8 -9 10 -9 4 0 -5 -5 -3 -10 5 -5 8 -10 10 -10
4 0 -6 -20 -12 -45 -12 -32 -2 -45 2 -45 11 0 23 9 25 86 24 65 0 74 -3 74
-19z"/>
<path d="M1982 2310 c3 -33 6 -35 40 -38 37 -3 38 -2 35 27 -5 39 -10 44 -47
45 -29 1 -31 -1 -28 -34z m48 -14 c-13 -13 -35 7 -25 24 5 8 11 8 21 -1 10 -8
12 -15 4 -23z"/>
<path d="M2090 2338 c0 -5 5 -8 11 -8 6 0 9 -7 5 -15 -7 -20 31 -58 51 -51 23
9 10 -17 -15 -30 -33 -16 -37 -23 -13 -21 11 1 21 6 21 12 0 5 5 2 11 -8 7
-12 15 -15 27 -9 29 14 87 9 87 -8 1 -8 6 -14 13 -12 7 1 12 -3 12 -9 0 -6 -9
-9 -20 -6 -11 3 -20 1 -20 -5 0 -5 -5 -6 -10 -3 -8 5 -7 12 2 23 11 15 11 15
-4 4 -9 -7 -18 -9 -20 -5 -3 4 -3 2 -2 -5 3 -8 -5 -11 -26 -7 -16 3 -31 1 -34
-4 -3 -4 -19 -7 -36 -5 -16 2 -30 -1 -30 -7 0 -6 -5 -7 -12 -3 -7 4 -8 3 -4
-4 4 -6 12 -9 19 -7 29 10 88 12 93 4 3 -5 10 -6 16 -3 6 4 25 8 42 8 40 2 57
13 54 34 -4 21 -35 45 -47 38 -10 -7 -23 19 -14 28 9 9 25 7 19 -2 -2 -4 4 -8
14 -8 10 0 16 4 14 8 -3 4 38 7 90 5 53 -1 96 -5 96 -9 0 -4 10 -4 23 -1 12 3
76 6 142 7 90 2 127 -2 147 -13 25 -14 29 -13 49 5 12 10 20 14 17 9 -7 -11
105 -9 153 3 4 1 5 12 5 25 -1 12 2 28 8 35 5 7 5 12 0 11 -5 -1 -16 1 -24 5
-22 9 -910 13 -910 4z m280 -37 c0 -20 -31 -24 -42 -7 -5 7 -8 7 -8 1 0 -16
-60 -18 -60 -3 0 8 -3 9 -8 3 -11 -16 -34 -17 -43 -3 -6 9 -9 9 -9 1 0 -15
-29 -10 -41 8 -7 11 -9 10 -9 -5 0 -21 -13 -14 -16 8 -2 11 22 14 117 14 106
0 119 -2 119 -17z m207 -6 c3 -19 3 -19 -5 -1 -8 18 -9 18 -15 2 -4 -11 -13
-16 -22 -12 -8 3 -17 1 -20 -4 -10 -17 -35 -11 -35 8 0 9 -4 13 -8 7 -11 -15
-42 -18 -42 -3 0 10 -2 10 -9 0 -6 -11 -10 -10 -16 5 -7 17 -8 17 -15 -2 -9
-20 -9 -20 -9 0 -1 20 5 21 96 20 90 0 98 -2 100 -20z m33 6 c0 -11 -4 -23
-10 -26 -6 -4 -10 5 -10 19 0 14 5 26 10 26 6 0 10 -9 10 -19z m61 9 c13 -7
19 -7 19 0 0 5 5 10 10 10 16 0 11 -47 -6 -54 -8 -3 -13 -2 -10 3 3 5 -1 14
-9 21 -12 10 -15 10 -16 -1 0 -8 -4 -5 -9 6 -7 17 -9 17 -9 3 -1 -25 -21 -23
-21 2 0 22 20 26 51 10z m219 -15 c7 -18 8 -18 12 5 5 25 5 25 7 -2 1 -19 -4
-28 -14 -28 -8 0 -15 5 -15 11 0 5 -4 7 -10 4 -5 -3 -10 -1 -10 6 0 6 -11 0
-24 -14 -25 -27 -45 -26 -23 1 10 13 9 14 -2 8 -8 -5 -17 -3 -22 5 -7 12 -9
11 -10 -1 0 -10 -3 -8 -9 5 -8 18 -9 19 -9 1 -1 -11 -6 -16 -15 -13 -8 3 -17
1 -20 -6 -2 -7 -5 -3 -5 9 -1 11 2 23 5 26 3 3 40 5 81 4 66 -1 77 -4 83 -21z
m106 1 c2 -12 -2 -16 -12 -12 -8 3 -14 0 -14 -6 0 -7 -7 -3 -15 8 -13 17 -14
17 -15 2 0 -24 -20 -23 -20 0 0 26 6 30 42 28 22 -1 32 -7 34 -20z m-760 -52
c2 -11 -3 -14 -17 -11 -10 3 -19 0 -19 -5 0 -6 -6 -5 -15 2 -13 11 -15 10 -9
-6 5 -15 4 -16 -4 -4 -14 18 1 37 31 42 26 4 30 2 33 -18z"/>
<path d="M2491 2294 c0 -11 3 -14 6 -6 3 7 2 16 -1 19 -3 4 -6 -2 -5 -13z"/>
<path d="M3336 2342 c-17 -2 -25 -7 -18 -11 6 -4 12 -21 14 -39 2 -33 17 -45
45 -35 11 5 14 3 8 -6 -6 -11 -3 -11 16 -1 18 10 24 10 27 1 3 -8 8 -9 17 -1
13 11 42 10 63 -3 7 -5 12 -3 12 3 0 8 23 11 73 9 39 -2 78 0 84 4 9 6 11 3 6
-9 -5 -15 -1 -16 33 -9 21 4 49 9 62 11 13 3 22 -1 22 -8 0 -8 3 -9 8 -3 9 13
155 13 164 0 5 -6 8 -4 8 5 1 12 3 11 14 -3 12 -16 14 -14 20 19 4 20 5 39 2
42 -3 3 -6 -2 -6 -11 0 -23 -40 -22 -41 1 0 12 -3 10 -10 -8 -8 -18 -12 -21
-18 -11 -6 9 -11 10 -15 2 -13 -21 -36 -12 -36 14 0 16 6 25 16 25 13 0 14 -3
5 -14 -7 -8 -8 -17 -3 -20 6 -3 12 3 15 14 7 26 54 28 60 3 4 -17 5 -17 6 0 1
16 11 17 96 14 82 -3 95 -1 93 12 -3 13 -53 15 -408 15 -223 1 -418 0 -434 -2z
m255 -43 c-9 -22 -10 -22 -10 -3 -1 11 2 24 6 27 12 12 14 0 4 -24z m-151 -1
c0 -20 -30 -25 -31 -5 0 10 -2 10 -6 0 -7 -19 -23 -16 -24 5 -1 16 -2 16 -6 0
-6 -24 -23 -23 -23 2 0 17 6 19 45 17 36 -1 45 -5 45 -19z m128 0 c2 -13 -3
-18 -17 -18 -12 0 -21 6 -22 13 0 10 -2 10 -6 0 -2 -7 -13 -13 -24 -13 -10 0
-19 6 -20 13 0 10 -2 10 -6 0 -7 -20 -23 -15 -23 6 0 16 7 19 57 17 46 -1 58
-4 61 -18z m192 0 c0 -11 -7 -18 -18 -18 -10 0 -23 -5 -30 -12 -9 -9 -12 -5
-13 18 0 18 -3 24 -7 14 -8 -18 -62 -24 -62 -7 0 7 -4 6 -10 -3 -11 -17 -25
-7 -17 13 4 11 25 14 81 14 67 0 76 -3 76 -19z m113 2 c-6 -22 -23 -27 -24 -7
0 10 -2 10 -6 0 -7 -18 -21 -16 -26 5 -3 12 -5 10 -6 -7 -1 -24 -1 -24 -17 -5
-8 10 -13 13 -9 7 3 -7 1 -13 -4 -13 -6 0 -11 8 -11 18 0 14 10 17 54 19 49 2
53 0 49 -17z"/>
<path d="M4188 2325 c2 -15 7 -23 11 -17 3 5 20 9 38 9 23 0 30 -4 25 -15 -3
-10 -1 -13 6 -8 7 4 12 2 12 -3 0 -6 4 -11 8 -11 12 0 8 38 -5 51 -6 6 -31 13
-56 15 -44 5 -44 5 -39 -21z"/>
<path d="M3223 2308 c2 -31 5 -33 40 -36 38 -3 38 -3 35 30 -3 30 -6 33 -40
36 -35 3 -36 2 -35 -30z m49 -3 c0 -5 -5 -11 -11 -13 -6 -2 -11 4 -11 13 0 9
5 15 11 13 6 -2 11 -8 11 -13z"/>
<path d="M4033 2300 c2 -8 0 -23 -5 -33 -12 -24 -3 -34 16 -18 8 7 21 9 28 5
7 -4 31 -6 53 -4 22 1 65 4 95 5 71 3 72 3 65 16 -4 6 -13 8 -21 5 -7 -3 -18
3 -23 12 -6 9 -11 12 -11 6 0 -6 -15 -10 -32 -9 -18 1 -39 -2 -45 -8 -10 -7
-13 -4 -14 9 0 18 -1 18 -9 -1 -5 -11 -9 -14 -9 -6 -1 10 -4 11 -15 2 -11 -9
-18 -8 -30 4 -11 11 -16 13 -16 4 0 -7 -7 -5 -16 7 -10 12 -14 14 -11 4z"/>
<path d="M4080 2300 c0 -5 5 -10 11 -10 5 0 7 5 4 10 -3 6 -8 10 -11 10 -2 0
-4 -4 -4 -10z"/>
<path d="M793 2231 c-27 -12 -31 -19 -30 -48 2 -38 -8 -35 149 -38 98 -2 106
0 103 17 -2 10 1 18 6 18 6 0 8 4 5 9 -4 5 -3 11 1 13 5 1 -3 14 -16 28 -13
14 -21 19 -17 13 4 -8 1 -13 -8 -13 -9 0 -16 5 -16 10 0 6 -5 10 -11 10 -5 0
-8 -4 -5 -9 7 -11 -103 -13 -118 -3 -6 5 -25 1 -43 -7z m27 -33 c0 -8 3 -9 8
-3 11 16 72 19 72 3 0 -10 3 -9 10 2 9 13 11 13 20 0 5 -8 10 -10 10 -4 0 6
14 11 30 12 23 0 30 -4 30 -18 0 -9 -9 -20 -20 -23 -11 -3 -20 -2 -20 3 0 4
-17 6 -37 4 -21 -2 -45 -4 -53 -4 -8 0 -28 0 -44 0 -29 -1 -50 16 -40 32 8 13
34 9 34 -4z"/>
<path d="M3344 2241 c4 -6 -4 -16 -19 -23 -19 -8 -28 -9 -33 -1 -4 6 -20 13
-37 14 -29 4 -30 3 -30 -36 0 -40 0 -40 41 -41 37 -1 40 1 36 21 -2 14 2 24
13 29 12 4 16 1 13 -16 -2 -15 4 -26 20 -34 25 -12 160 -13 180 0 7 4 12 23
12 42 0 38 -2 38 -114 36 -26 -1 -57 3 -68 9 -15 8 -19 8 -14 0z m76 -35 c14
0 30 -7 37 -15 10 -13 11 -12 6 8 -5 19 -3 22 8 15 8 -5 22 -7 32 -6 11 2 17
-3 17 -16 0 -16 -7 -20 -45 -20 -34 -1 -45 2 -45 14 0 8 -5 12 -10 9 -6 -4 -8
-11 -5 -16 4 -5 1 -9 -4 -10 -45 -5 -56 -2 -59 15 -4 21 16 38 32 28 6 -3 22
-6 36 -6z m-144 -7 c10 -17 -13 -36 -27 -22 -12 12 -4 33 11 33 5 0 12 -5 16
-11z"/>
<path d="M1036 2232 c-3 -5 1 -9 9 -9 8 0 15 4 15 9 0 4 -4 8 -9 8 -6 0 -12
-4 -15 -8z"/>
<path d="M2055 2230 c-4 -6 -14 -10 -23 -9 -47 4 -53 0 -50 -33 3 -31 6 -33
46 -36 25 -2 42 1 42 7 0 6 -4 11 -10 11 -17 0 -11 28 8 33 15 4 15 5 -2 6
-15 1 -16 4 -6 16 7 8 10 15 7 15 -3 0 -9 -5 -12 -10z m-25 -46 c0 -8 -7 -14
-15 -14 -15 0 -21 21 -9 33 10 9 24 -2 24 -19z"/>
<path d="M2120 2200 c-8 -5 -11 -12 -7 -16 4 -4 13 -2 19 4 15 15 7 24 -12 12z"/>
<path d="M4492 2170 c0 -14 2 -19 5 -12 2 6 2 18 0 25 -3 6 -5 1 -5 -13z"/>
<path d="M2109 2123 c-13 -16 -12 -17 4 -4 9 7 17 15 17 17 0 8 -8 3 -21 -13z"/>
<path d="M906 2102 c-4 -4 -38 -7 -74 -7 -72 0 -81 -8 -68 -61 5 -17 13 -24
31 -24 14 0 25 -5 25 -10 0 -7 6 -7 18 -1 19 10 111 9 130 -3 7 -4 17 -4 24 0
17 11 68 12 74 2 3 -5 10 -5 16 -2 18 12 148 13 141 1 -3 -6 -1 -7 6 -3 17 11
71 16 71 7 0 -9 29 -12 50 -3 8 3 65 6 125 8 61 1 118 3 128 3 12 1 17 10 17
34 0 46 -24 55 -143 53 -54 -1 -97 2 -97 7 0 5 -5 5 -12 -1 -20 -15 -367 -15
-386 0 -11 9 -14 9 -9 1 8 -14 -31 -15 -49 -1 -6 4 -14 4 -18 0z m-82 -28 c25
-10 19 -39 -8 -42 -16 -1 -25 5 -29 18 -7 28 5 36 37 24z m623 -7 c34 2 43 -1
44 -15 0 -14 2 -14 8 2 7 19 47 30 56 15 3 -4 14 -5 25 -2 15 4 20 0 20 -15 0
-25 -19 -30 -82 -22 -31 4 -48 3 -49 -4 0 -7 -2 -7 -5 -1 -2 6 -20 10 -39 9
-21 -1 -35 3 -35 10 0 7 -4 6 -9 -3 -6 -9 -10 -10 -16 -2 -9 16 14 43 29 34 6
-4 30 -6 53 -6z m-566 -9 c0 -10 2 -10 6 0 2 6 15 12 28 12 18 0 23 -5 22 -20
-1 -11 -7 -20 -14 -20 -7 0 -10 7 -7 18 5 16 5 16 -6 0 -13 -21 -40 -24 -40
-5 0 8 -4 7 -10 -3 -8 -12 -10 -11 -10 8 0 23 29 32 31 10z m115 1 c3 -6 1
-16 -5 -22 -9 -9 -14 -8 -21 3 -7 11 -10 11 -10 2 0 -7 -4 -11 -10 -7 -5 3 -7
12 -3 20 6 17 39 20 49 4z m94 2 c-1 -14 -20 -35 -26 -29 -4 4 -15 3 -25 -2
-20 -11 -34 2 -26 25 5 12 77 18 77 6z m70 -10 c0 -13 -8 -18 -30 -19 -22 0
-30 4 -30 17 0 13 8 18 30 19 22 0 30 -4 30 -17z m150 -2 c0 -24 -20 -25 -21
-1 0 14 -2 14 -7 2 -4 -9 -16 -15 -27 -15 -11 0 -27 -3 -36 -7 -18 -8 -45 15
-35 30 3 5 33 10 66 10 52 0 60 -3 60 -19z m42 3 c5 -18 -15 -45 -26 -35 -3 4
-6 17 -6 30 0 27 25 31 32 5z"/>
<path d="M800 2054 c0 -8 5 -12 10 -9 6 4 8 11 5 16 -9 14 -15 11 -15 -7z"/>
<path d="M1555 2040 c3 -5 8 -10 11 -10 2 0 4 5 4 10 0 6 -5 10 -11 10 -5 0
-7 -4 -4 -10z"/>
<path d="M1205 2050 c-3 -5 -1 -10 4 -10 6 0 11 5 11 10 0 6 -2 10 -4 10 -3 0
-8 -4 -11 -10z"/>
<path d="M3406 2103 c-3 -4 -21 -7 -39 -7 -30 -1 -32 -3 -35 -43 -3 -42 0 -46
35 -42 4 0 10 -8 14 -18 7 -17 8 -17 8 0 1 9 8 17 16 17 13 0 14 -4 5 -21 -9
-15 -18 -19 -41 -15 -16 2 -27 0 -23 -5 3 -5 0 -9 -5 -9 -20 0 -12 -59 8 -70
17 -8 82 -13 151 -10 126 6 408 5 450 0 33 -5 60 -4 67 2 8 6 44 7 92 3 54 -5
86 -3 101 5 12 6 19 14 16 17 -3 3 -1 15 5 26 8 14 8 18 0 13 -6 -4 -21 0 -33
8 -12 9 -30 16 -40 16 -10 0 -18 5 -18 11 0 8 -4 8 -14 0 -18 -15 -167 -12
-159 4 3 5 0 4 -8 -2 -7 -7 -29 -13 -49 -13 -20 0 -42 6 -49 13 -9 7 -11 7 -8
1 6 -10 -115 -18 -233 -15 -8 0 -59 0 -113 0 -91 0 -98 2 -88 18 7 14 24 18
73 19 35 1 69 -3 76 -9 6 -5 12 -5 12 0 0 12 38 14 45 3 4 -6 14 -5 25 2 14 9
22 9 36 -3 10 -8 15 -9 12 -3 -5 7 22 9 80 8 48 -2 89 -3 92 -4 3 -2 9 -2 14
-1 33 6 186 4 186 -2 0 -5 5 -5 11 -1 7 4 52 8 101 10 49 2 93 6 98 9 6 3 10
20 10 36 0 23 -6 32 -26 40 -21 7 -243 13 -374 9 -208 -5 -478 -5 -474 2 6 10
0 11 -10 1z m76 -33 c9 0 6 -40 -4 -40 -4 0 -8 10 -9 23 -1 20 -1 21 -7 2 -8
-24 -51 -33 -63 -13 -7 10 -9 10 -10 -2 0 -10 -3 -8 -9 5 -7 17 -9 17 -9 3 -1
-26 -21 -22 -21 5 0 22 16 24 132 17z m137 -5 c15 5 20 2 18 -14 -2 -25 -57
-27 -58 -2 0 12 -3 11 -9 -4 -8 -20 -9 -20 -9 1 -1 27 9 36 25 23 7 -6 22 -8
33 -4z m199 6 c15 -1 22 -7 22 -21 0 -25 -38 -28 -47 -3 -6 15 -7 15 -14 -3
-7 -17 -8 -16 -9 6 -1 25 -1 25 -10 3 -10 -25 -30 -31 -30 -10 0 8 -4 7 -11
-3 -9 -12 -12 -13 -16 -1 -5 11 -7 11 -15 0 -8 -12 -10 -12 -15 0 -5 11 -7 11
-14 0 -6 -10 -9 -8 -9 8 0 18 5 21 28 19 15 -1 41 1 57 4 17 4 37 6 45 4 8 -1
25 -3 38 -3z m240 1 c9 9 15 9 24 0 6 -6 18 -8 27 -4 9 4 30 7 46 7 24 0 29
-4 27 -20 -5 -28 -9 -30 -27 -15 -10 8 -15 9 -15 1 0 -6 -9 -11 -20 -11 -11 0
-20 6 -20 13 0 8 -4 7 -10 -3 -8 -13 -10 -12 -10 3 0 9 -4 17 -10 17 -5 0 -10
-8 -11 -17 0 -12 -2 -13 -6 -5 -4 10 -9 9 -24 -4 -17 -15 -19 -15 -25 0 -11
28 3 48 24 37 13 -7 22 -7 30 1z m209 -20 c2 -14 -2 -22 -12 -22 -8 0 -15 6
-16 13 0 10 -2 10 -6 0 -6 -17 -30 -16 -36 1 -8 19 8 32 39 31 20 -1 28 -8 31
-23z m-728 -4 c-1 -18 -2 -19 -6 -5 -2 9 -9 15 -14 11 -5 -3 -7 -10 -4 -15 4
-5 1 -9 -4 -9 -6 0 -11 9 -11 20 0 13 7 20 20 20 14 0 20 -6 19 -22z m327 -2
c0 -13 -4 -22 -8 -19 -11 6 -10 43 1 43 5 0 8 -11 7 -24z m123 0 c0 -20 -1
-20 -9 -1 -7 16 -9 16 -9 4 -1 -21 -33 -20 -43 1 -5 12 -7 12 -7 -2 -1 -20
-21 -25 -21 -5 0 8 -4 7 -10 -3 -8 -12 -10 -11 -10 7 0 20 5 22 55 22 50 -1
55 -3 54 -23z m-377 -105 c19 -1 25 -6 23 -18 -2 -10 -4 -20 -4 -23 -1 -3 -6
2 -11 10 -5 8 -10 10 -10 3 0 -15 -40 -4 -40 11 0 6 -5 4 -10 -4 -9 -13 -10
-13 -10 0 0 13 -1 13 -10 0 -9 -13 -11 -13 -20 0 -8 13 -10 12 -10 -2 0 -10
-7 -18 -15 -18 -8 0 -15 5 -15 11 0 5 -5 7 -11 3 -6 -3 -15 0 -20 7 -7 11 -9
11 -9 -2 0 -21 -57 -13 -63 10 -3 10 -5 7 -6 -8 -1 -26 -13 -21 -17 7 -3 15 8
17 114 15 64 0 129 -1 144 -2z m150 -14 c-4 -14 -7 -16 -13 -5 -7 10 -9 10 -9
-2 0 -9 -9 -16 -20 -17 -14 -1 -20 4 -20 20 0 18 6 22 34 23 28 0 32 -3 28
-19z m51 6 c-5 -15 -3 -14 10 2 16 20 16 20 17 -2 0 -19 -5 -23 -30 -23 -23 0
-30 4 -30 20 0 13 7 20 20 20 14 0 18 -5 13 -17z m109 2 c5 -6 8 -5 8 3 0 6 9
12 20 12 23 0 28 -35 7 -43 -21 -8 -71 1 -75 13 -3 8 -8 8 -18 -1 -11 -9 -14
-7 -14 9 0 18 6 21 33 19 17 -1 35 -6 39 -12z m168 -7 c0 -21 -48 -26 -69 -5
-9 7 -11 7 -8 1 4 -7 0 -15 -9 -18 -23 -9 -24 -8 -24 18 0 21 4 23 55 23 47 0
55 -3 55 -19z m68 16 c35 -7 29 -39 -8 -40 -21 -1 -30 4 -30 15 0 14 -2 14
-10 1 -8 -12 -10 -11 -10 6 0 21 16 27 58 18z m-468 -26 c-1 -22 -1 -22 -14
-5 -11 14 -15 15 -19 5 -4 -8 -6 -7 -6 5 -1 11 6 17 19 17 14 0 20 -7 20 -22z
m520 2 c0 -5 -4 -10 -10 -10 -5 0 -10 5 -10 10 0 6 5 10 10 10 6 0 10 -4 10
-10z"/>
<path d="M4110 2050 c0 -5 5 -10 10 -10 6 0 10 5 10 10 0 6 -4 10 -10 10 -5 0
-10 -4 -10 -10z"/>
<path d="M3991 1924 c0 -11 3 -14 6 -6 3 7 2 16 -1 19 -3 4 -6 -2 -5 -13z"/>
<path d="M1983 2084 c-2 -7 -3 -25 -1 -41 3 -26 6 -28 45 -28 27 -1 44 4 48
13 2 7 1 11 -4 8 -5 -3 -11 7 -14 23 -5 23 -12 30 -37 33 -20 3 -34 0 -37 -8z
m53 -25 c10 -17 -13 -36 -27 -22 -12 12 -4 33 11 33 5 0 12 -5 16 -11z"/>
<path d="M2080 2081 c-7 -15 -7 -22 2 -27 7 -4 10 -4 6 1 -4 4 -3 16 3 26 5
11 7 19 5 19 -3 0 -10 -9 -16 -19z"/>
<path d="M2122 2087 c0 -7 -3 -21 -5 -31 -8 -39 17 -51 105 -50 65 1 85 -2 95
-15 11 -14 12 -14 8 0 -5 13 15 15 177 12 223 -3 250 -5 256 -21 5 -17 -139
-17 -157 1 -11 10 -12 9 -7 -1 10 -16 -112 -15 -133 2 -11 8 -13 8 -8 -1 10
-16 -72 -15 -92 1 -12 8 -13 8 -7 -1 5 -9 -2 -13 -23 -13 -18 0 -31 5 -31 13
0 8 -3 8 -9 -2 -8 -13 -12 -13 -27 0 -13 10 -16 11 -10 1 7 -11 -4 -13 -53 -9
-55 4 -62 2 -76 -19 -9 -13 -13 -24 -9 -24 4 0 1 -7 -6 -16 -11 -12 -11 -15 1
-12 9 2 13 -4 11 -17 -2 -12 0 -16 5 -9 5 7 109 9 323 7 173 -1 324 -2 335 -2
11 0 40 0 65 0 25 0 78 2 118 5 67 5 74 8 87 34 13 25 13 29 -2 41 -9 8 -18
13 -20 12 -11 -9 -83 -2 -78 7 4 6 11 8 16 5 5 -4 6 2 2 11 -5 13 -2 16 9 12
12 -5 14 1 12 29 -1 19 -7 40 -13 46 -17 17 -857 21 -859 4z m196 -18 c27 0
32 -3 31 -22 0 -21 -1 -21 -9 -2 -7 17 -9 17 -9 3 -1 -10 -6 -18 -12 -18 -5 0
-7 6 -3 13 6 9 3 8 -9 -1 -20 -17 -70 -12 -79 8 -5 12 -7 11 -7 -3 -1 -13 -7
-17 -23 -15 -13 2 -26 8 -30 13 -5 6 -8 5 -8 -2 0 -7 -4 -13 -10 -13 -5 0 -10
11 -10 23 0 23 2 24 73 20 39 -2 87 -4 105 -4z m66 5 c9 -3 16 -16 16 -28 -1
-21 -1 -21 -17 -1 -13 16 -15 17 -10 3 4 -10 2 -18 -3 -18 -6 0 -10 11 -10 25
0 27 1 28 24 19z m407 -8 c44 0 79 3 79 7 0 5 5 5 10 2 6 -3 10 -14 10 -24 0
-13 -8 -18 -30 -19 -17 0 -30 5 -30 11 0 7 -4 6 -10 -3 -9 -13 -10 -13 -10 0
0 12 -2 12 -9 2 -9 -15 -61 -24 -61 -11 0 4 5 9 12 11 7 3 6 7 -5 11 -13 5
-17 1 -18 -16 0 -12 -3 -17 -5 -11 -3 7 -14 10 -24 7 -15 -4 -20 0 -20 14 0
24 9 35 23 26 5 -3 45 -6 88 -7z m-321 -16 c0 -12 -9 -17 -30 -18 -23 0 -30 4
-30 18 0 14 7 18 30 18 21 -1 30 -6 30 -18z m90 -2 c0 -13 -8 -18 -25 -18 -14
0 -25 5 -25 10 0 6 -5 10 -11 10 -5 0 -7 -4 -4 -10 3 -5 1 -10 -4 -10 -6 0
-11 8 -11 18 0 15 8 19 40 18 32 0 40 -4 40 -18z m50 2 c0 -13 -7 -20 -20 -20
-13 0 -20 7 -20 20 0 13 7 20 20 20 13 0 20 -7 20 -20z m27 0 c-1 -11 -5 -20
-9 -20 -4 0 -8 9 -8 20 0 11 4 20 9 20 6 0 9 -9 8 -20z m33 13 c0 -5 -5 -15
-10 -23 -8 -12 -10 -11 -10 8 0 12 5 22 10 22 6 0 10 -3 10 -7z m303 -13 c3
-11 1 -20 -4 -20 -5 0 -9 6 -10 13 0 10 -2 10 -6 0 -8 -21 -53 -16 -53 5 0 28
66 29 73 2z m-192 -54 c21 13 59 14 59 2 0 -8 3 -9 8 -3 7 10 112 15 112 5 0
-3 -8 -14 -17 -25 -14 -18 -15 -19 -9 -1 5 14 3 16 -6 9 -7 -6 -44 -11 -82
-12 -67 -2 -87 6 -85 34 0 6 3 4 6 -3 2 -6 9 -10 14 -6z m-383 -55 c1 0 -2
-10 -8 -21 -13 -25 -30 -26 -31 -2 0 11 -2 12 -6 4 -4 -10 -8 -10 -19 -1 -11
9 -14 8 -14 -2 0 -11 -2 -11 -10 1 -5 8 -10 10 -10 4 0 -16 -53 -25 -62 -11
-6 9 -8 8 -8 -1 0 -7 -5 -10 -11 -7 -6 4 -26 7 -45 7 -26 0 -34 4 -34 18 0 16
11 17 128 15 70 -1 128 -3 130 -4z m72 -12 c0 -10 -10 -19 -25 -21 -28 -6 -35
-1 -35 22 0 12 9 17 30 17 22 0 30 -5 30 -18z m118 2 c3 -10 0 -12 -12 -8 -9
4 -16 2 -16 -3 0 -5 -10 -9 -22 -9 -13 1 -31 -2 -40 -6 -15 -6 -18 -2 -18 18
0 25 2 26 52 24 34 -1 53 -7 56 -16z m162 -2 c0 -16 -6 -19 -37 -17 -21 1 -41
7 -45 12 -5 7 -8 7 -8 -1 0 -19 -21 -16 -37 5 -10 13 -13 13 -11 2 2 -8 0 -16
-5 -17 -4 -2 -7 -1 -7 2 0 3 0 11 0 18 0 8 22 13 75 14 68 1 75 -1 75 -18z
m29 2 c1 13 16 15 86 15 79 -1 85 -2 85 -21 0 -17 -6 -21 -30 -21 -17 1 -35 8
-40 16 -5 8 -10 10 -10 4 0 -5 -18 -10 -40 -9 -32 1 -41 -3 -46 -19 -7 -21 -7
-21 -15 -1 -4 11 -8 29 -8 40 l0 20 9 -20 c6 -14 9 -16 9 -4z m243 5 c5 -7 8
-7 8 2 0 6 5 12 10 12 11 0 14 -29 3 -31 -36 -6 -53 -5 -53 5 0 6 -4 4 -10 -4
-10 -17 -25 -7 -17 12 6 16 49 19 59 4z"/>
<path d="M2261 2054 c0 -11 3 -14 6 -6 3 7 2 16 -1 19 -3 4 -6 -2 -5 -13z"/>
<path d="M3236 2089 c3 -5 -2 -9 -11 -9 -11 0 -13 -4 -8 -12 4 -7 8 -22 8 -33
0 -16 8 -21 38 -23 35 -3 37 -1 37 25 0 15 -4 33 -8 39 -8 13 -64 25 -56 13z
m36 -51 c-15 -15 -26 -4 -18 18 5 13 9 15 18 6 9 -9 9 -15 0 -24z"/>
<path d="M4493 1995 c0 -44 2 -61 4 -37 2 23 2 59 0 80 -2 20 -4 1 -4 -43z"/>
<path d="M2090 2011 c0 -6 4 -13 10 -16 6 -3 7 1 4 9 -7 18 -14 21 -14 7z"/>
<path d="M990 1985 c-15 -18 -41 -19 -59 -2 -11 10 -12 9 -7 -1 6 -10 -6 -13
-58 -11 -36 1 -66 6 -66 11 0 19 -21 6 -32 -19 -13 -34 -17 -64 -7 -57 4 2 9
-1 11 -7 3 -9 51 -12 161 -12 87 0 160 -4 163 -9 3 -5 11 -5 18 1 7 6 29 9 49
8 46 -4 60 11 52 55 -6 32 -9 34 -37 30 -18 -3 -28 -1 -25 5 3 5 0 10 -8 10
-8 0 -12 -4 -9 -9 3 -4 -22 -8 -56 -8 -42 0 -59 3 -54 11 4 7 -2 6 -17 -2 -22
-11 -23 -11 -10 4 7 10 11 17 8 17 -2 0 -10 -7 -17 -15z m-108 -37 c47 0 58
-3 59 -16 1 -15 2 -15 6 1 2 9 9 15 14 11 6 -3 15 -1 22 5 8 6 18 6 27 1 8 -5
26 -6 41 -3 21 4 27 1 32 -16 4 -16 0 -21 -14 -21 -10 0 -19 6 -19 13 0 9 -3
8 -9 -2 -7 -11 -11 -10 -21 5 -10 16 -11 16 -6 2 3 -10 1 -18 -4 -18 -6 0 -11
8 -11 18 -1 16 -2 16 -6 -1 -4 -14 -8 -16 -19 -6 -10 8 -14 8 -14 0 0 -6 -16
-11 -35 -11 -21 0 -35 5 -35 13 0 8 -4 7 -10 -3 -9 -13 -11 -13 -20 0 -5 8
-10 10 -10 4 0 -6 -16 -11 -35 -12 -20 -1 -34 2 -32 6 2 4 7 15 10 25 4 11 12
15 18 11 7 -4 38 -7 71 -6z m249 -15 c0 -15 1 -16 7 -3 9 20 57 20 57 0 0 -18
-66 -24 -77 -7 -6 9 -8 8 -8 -1 0 -7 -4 -10 -10 -7 -18 11 -11 35 10 35 12 0
20 -7 21 -17z"/>
<path d="M4097 1989 c7 -7 15 -10 18 -7 3 3 -2 9 -12 12 -14 6 -15 5 -6 -5z"/>
<path d="M2065 1981 c-3 -5 -2 -12 3 -15 5 -3 9 1 9 9 0 17 -3 19 -12 6z"/>
<path d="M1986 1972 c-2 -4 -3 -23 -2 -42 1 -27 6 -35 26 -40 14 -4 32 -5 41
-2 27 6 -2 74 -35 83 -14 4 -28 4 -30 1z m50 -33 c3 -6 1 -16 -5 -22 -9 -9
-14 -8 -21 3 -9 15 -4 30 10 30 5 0 12 -5 16 -11z"/>
<path d="M3219 1947 c6 -6 11 -21 11 -34 0 -20 5 -23 35 -23 33 0 35 2 32 33
-2 30 -5 32 -45 33 -30 1 -40 -2 -33 -9z m59 -19 c-6 -18 -28 -21 -28 -4 0 9
7 16 16 16 9 0 14 -5 12 -12z"/>
<path d="M773 1858 c-4 -7 -8 -29 -8 -49 0 -30 4 -36 25 -39 14 -2 178 -4 364
-4 l340 -1 7 27 c4 17 2 33 -6 44 -11 16 -32 18 -184 17 -110 -1 -171 3 -171
9 0 7 -5 6 -14 -1 -14 -12 -315 -9 -335 3 -5 4 -13 1 -18 -6z m47 -25 c0 -5
72 -8 160 -7 146 1 160 0 160 -16 0 -19 -40 -35 -41 -17 0 8 -2 8 -6 0 -6 -16
-43 -17 -43 -3 0 7 -8 7 -22 -1 -18 -10 -24 -8 -35 7 -7 10 -13 13 -13 7 0
-14 -73 -23 -82 -10 -4 7 -11 7 -20 -1 -9 -7 -19 -7 -28 -2 -8 5 -24 7 -36 4
-22 -6 -40 18 -28 37 6 11 34 12 34 2z m381 -13 c13 -7 19 -7 19 0 0 11 48 8
67 -3 7 -4 14 -3 18 3 3 5 17 10 31 10 18 0 24 -6 25 -22 l2 -23 4 23 c2 12 9
22 15 22 5 0 8 -7 4 -15 -3 -8 -1 -15 3 -15 5 0 11 6 14 14 9 22 75 17 80 -6
7 -24 -8 -32 -26 -13 -10 10 -17 11 -19 4 -2 -6 -30 -12 -61 -14 -47 -2 -57 1
-57 14 0 13 -2 13 -9 2 -5 -8 -14 -10 -21 -6 -8 5 -11 4 -7 -2 4 -6 -20 -9
-60 -9 -47 1 -68 5 -71 15 -2 7 2 17 9 22 18 11 17 11 40 -1z"/>
<path d="M800 1815 c0 -8 4 -15 10 -15 5 0 7 7 4 15 -4 8 -8 15 -10 15 -2 0
-4 -7 -4 -15z"/>
<path d="M911 1804 c0 -11 3 -14 6 -6 3 7 2 16 -1 19 -3 4 -6 -2 -5 -13z"/>
<path d="M950 1810 c0 -5 5 -10 11 -10 5 0 7 5 4 10 -3 6 -8 10 -11 10 -2 0
-4 -4 -4 -10z"/>
<path d="M855 1800 c3 -5 8 -10 11 -10 2 0 4 5 4 10 0 6 -5 10 -11 10 -5 0 -7
-4 -4 -10z"/>
<path d="M462 1770 c0 -14 2 -19 5 -12 2 6 2 18 0 25 -3 6 -5 1 -5 -13z"/>
<path d="M854 1702 l-82 -3 -4 -32 c-2 -24 1 -33 12 -34 172 -14 213 -9 218
23 2 12 -4 27 -13 34 -8 7 -15 9 -15 6 0 -4 -8 -3 -17 1 -10 4 -55 7 -99 5z
m104 -31 c12 -1 22 -6 22 -11 0 -6 -36 -10 -95 -9 -72 1 -95 4 -95 14 0 11 17
13 73 10 39 -2 82 -4 95 -4z"/>
<path d="M3336 1694 c-11 -28 -7 -84 7 -85 62 -6 137 -7 160 -3 24 5 27 10 27
45 0 33 -3 39 -21 39 -11 0 -18 4 -14 9 3 6 -7 6 -27 0 -29 -8 -102 -4 -119 7
-4 2 -10 -3 -13 -12z m67 -28 c12 4 15 0 14 -15 -1 -22 -16 -29 -18 -8 0 10
-2 10 -6 0 -8 -20 -43 -16 -43 5 0 25 11 34 25 22 7 -6 20 -8 28 -4z m107 -17
c0 -21 -29 -27 -31 -6 0 10 -2 10 -6 0 -8 -20 -23 -15 -23 8 0 16 4 19 20 14
12 -4 20 -2 20 5 0 6 5 8 10 5 6 -3 10 -15 10 -26z m-73 -11 c-3 -8 -6 -5 -6
6 -1 11 2 17 5 13 3 -3 4 -12 1 -19z"/>
<path d="M3365 1650 c-3 -5 -1 -10 4 -10 6 0 11 5 11 10 0 6 -2 10 -4 10 -3 0
-8 -4 -11 -10z"/>
<path d="M2012 1693 c-31 -4 -33 -6 -30 -41 l3 -37 53 1 c41 1 52 -2 52 -15 1
-14 2 -14 11 2 6 9 13 16 17 14 4 -2 15 4 25 15 19 20 9 25 -12 6 -11 -11 -13
-9 -8 10 3 15 0 25 -11 31 -26 13 -42 2 -43 -27 0 -15 -3 -20 -6 -12 -2 8 -7
22 -10 30 -4 8 -5 18 -5 23 1 4 1 6 0 5 -2 0 -18 -3 -36 -5z m28 -43 c0 -5 -5
-12 -11 -16 -14 -8 -33 11 -25 25 7 11 36 4 36 -9z m63 -5 c-3 -8 -9 -15 -14
-15 -10 0 -12 24 -3 33 11 11 24 -3 17 -18z"/>
<path d="M3260 1691 c-35 -6 -39 -15 -31 -73 2 -15 69 -8 82 9 10 11 10 14 2
9 -9 -5 -13 1 -14 21 -1 15 -1 31 0 36 0 4 0 6 -1 6 -2 -1 -19 -4 -38 -8z m15
-39 c0 -18 -20 -15 -23 4 -3 10 1 15 10 12 7 -3 13 -10 13 -16z"/>
<path d="M1006 1561 c-3 -5 -56 -7 -118 -5 -117 3 -128 0 -128 -41 0 -40 14
-47 101 -49 46 -1 90 -5 97 -10 17 -10 15 -26 -4 -26 -8 0 -13 4 -10 8 3 5 -1
9 -9 9 -8 0 -12 -3 -10 -7 2 -4 -18 -8 -45 -9 -34 -1 -50 3 -50 11 0 9 -3 9
-12 0 -8 -8 -15 -8 -24 -1 -17 14 -35 -20 -32 -61 3 -36 -41 -32 383 -30 362
2 347 2 340 8 -3 3 3 15 12 26 17 20 17 20 0 7 -16 -13 -17 -12 -7 13 6 18 6
25 0 21 -6 -3 -16 -3 -22 2 -21 12 -39 15 -133 16 -49 1 -96 -2 -104 -8 -11
-8 -13 -6 -9 6 4 9 1 16 -8 16 -7 0 -11 -4 -8 -8 2 -4 0 -10 -6 -14 -5 -3 -10
-2 -10 4 0 6 -9 8 -22 3 -29 -10 -79 -9 -95 1 -7 5 -13 4 -13 -2 0 -8 -8 -8
-39 -2 -2 1 2 7 8 15 9 10 31 13 87 9 49 -3 74 -1 70 6 -4 5 -2 12 4 16 6 4 8
11 5 16 -4 5 0 9 7 9 10 0 10 2 -1 9 -8 5 -12 15 -9 22 4 11 -7 13 -54 11 -35
-2 -65 1 -71 7 -13 13 -54 15 -61 2z m29 -47 c0 -14 -3 -28 -7 -30 -4 -3 -8
12 -8 32 0 41 13 39 15 -2z m-133 2 c5 -8 8 -7 8 1 0 8 16 12 45 11 37 0 45
-4 45 -19 0 -12 -7 -19 -20 -19 -11 0 -20 6 -20 13 0 8 -2 9 -8 1 -10 -16
-102 -17 -102 -1 0 7 -3 8 -8 2 -10 -14 -49 -18 -57 -5 -4 6 -4 17 -1 25 4 11
17 13 58 8 29 -3 56 -11 60 -17z m182 -16 c3 0 3 7 0 15 -4 8 -1 15 5 15 6 0
11 -6 12 -12 0 -10 2 -10 6 0 2 6 11 12 19 12 8 0 14 -6 15 -12 0 -10 2 -10 6
0 2 6 12 12 21 12 12 0 13 -3 5 -11 -6 -6 -9 -18 -6 -25 5 -14 -20 -16 -42 -3
-5 4 -25 5 -42 3 -26 -2 -33 1 -33 15 0 27 13 34 22 11 4 -11 10 -20 12 -20z
m-64 -46 c-6 -6 -6 -14 -2 -18 4 -5 -2 -6 -13 -4 -18 3 -34 16 -35 28 0 3 13
5 29 5 21 1 27 -2 21 -11z m-131 -47 c36 0 91 1 121 3 73 2 72 3 60 -20 -13
-25 -30 -26 -31 -2 0 14 -2 14 -7 2 -9 -19 -123 -24 -134 -7 -6 9 -8 9 -8 0 0
-7 -9 -13 -20 -13 -11 0 -20 6 -20 13 0 7 -3 8 -8 2 -13 -18 -49 -17 -56 1 -7
19 12 37 28 27 5 -4 39 -6 75 -6z m220 -14 c1 18 3 19 56 19 52 0 54 0 48 -22
-7 -25 -23 -26 -24 -2 0 12 -2 13 -6 3 -5 -11 -7 -11 -14 0 -7 11 -9 11 -9 -3
0 -12 -9 -16 -35 -15 -31 1 -35 4 -34 26 l1 26 8 -25 c5 -17 8 -19 9 -7z m338
18 c16 -1 20 -6 16 -21 -6 -22 -23 -27 -23 -7 0 8 -4 7 -10 -3 -9 -13 -11 -13
-20 0 -6 10 -10 11 -10 3 0 -7 -7 -13 -15 -13 -8 0 -15 6 -15 13 0 9 -3 8 -9
-2 -7 -11 -11 -10 -21 5 -10 16 -11 16 -6 2 6 -20 -10 -25 -17 -5 -4 9 -8 8
-16 -3 -9 -13 -11 -12 -11 5 -1 18 -1 19 -11 3 -5 -10 -15 -18 -21 -18 -5 0
-7 8 -4 18 6 16 5 16 -8 0 -14 -20 -26 -23 -26 -9 0 33 59 42 227 32z"/>
<path d="M801 1514 c0 -11 3 -14 6 -6 3 7 2 16 -1 19 -3 4 -6 -2 -5 -13z"/>
<path d="M1130 1389 c0 -5 5 -7 10 -4 6 3 10 8 10 11 0 2 -4 4 -10 4 -5 0 -10
-5 -10 -11z"/>
<path d="M1381 1394 c0 -11 3 -14 6 -6 3 7 2 16 -1 19 -3 4 -6 -2 -5 -13z"/>
<path d="M2127 1548 c-6 -4 -15 -4 -19 -2 -4 3 -8 -7 -7 -23 0 -25 1 -26 9 -8
8 19 9 19 9 -2 1 -12 -3 -25 -9 -28 -5 -3 -9 -14 -9 -23 1 -15 2 -15 6 1 2 9
9 14 15 11 13 -8 198 -15 323 -13 17 0 49 -1 72 -3 23 -2 40 -1 38 3 -5 8 33
5 41 -4 4 -3 16 -1 27 5 17 9 19 8 13 -7 -5 -14 -3 -15 6 -8 7 6 38 11 68 12
86 3 95 5 98 32 3 31 -9 48 -39 55 -37 8 -629 10 -642 2z m639 -28 c14 0 24
-6 24 -14 0 -23 -17 -28 -33 -11 -14 13 -16 13 -20 -3 -4 -14 -6 -12 -13 8
l-8 25 -7 -25 -7 -25 -1 27 c-1 18 5 28 17 30 9 2 19 0 20 -4 2 -4 15 -8 28
-8z m-456 -15 c0 -17 -2 -17 -10 -5 -6 10 -10 11 -10 3 0 -7 -9 -13 -20 -13
-11 0 -20 6 -20 13 0 9 -2 9 -8 0 -4 -7 -28 -12 -55 -11 -36 0 -47 4 -47 17 0
13 13 16 85 16 78 0 85 -2 85 -20z m39 9 c7 17 8 17 23 2 15 -14 17 -14 22 1
5 12 10 13 18 5 7 -7 17 -8 29 -2 23 13 49 2 49 -19 0 -14 -2 -14 -10 -1 -8
12 -10 12 -10 -5 -1 -20 -1 -20 -15 -1 -8 11 -15 14 -15 8 0 -16 -70 -16 -71
1 0 10 -2 10 -6 0 -6 -17 -43 -17 -43 0 0 22 15 30 19 10 4 -17 4 -17 10 1z
m189 -12 c2 -12 -1 -22 -7 -22 -6 0 -11 10 -12 23 -1 21 -1 21 -9 -3 l-8 -25
-1 28 c-1 22 3 28 17 25 9 -2 18 -13 20 -26z m135 18 c9 0 17 -7 17 -16 0 -11
-6 -15 -20 -11 -10 3 -21 0 -24 -7 -3 -7 -10 -5 -20 7 -13 17 -14 17 -18 1 -3
-17 -4 -16 -21 1 -16 15 -20 16 -28 4 -7 -12 -9 -11 -9 2 0 24 7 27 58 23 26
-2 55 -3 65 -4z"/>
<path d="M3548 1550 c-124 -3 -230 -8 -234 -12 -4 -5 -3 -8 3 -8 14 0 22 -59
9 -63 -6 -2 13 -3 42 -1 40 2 55 -2 59 -13 4 -11 8 -12 13 -3 10 17 209 22
229 6 8 -6 12 -6 9 -1 -4 6 25 9 80 8 190 -5 261 -5 271 2 6 3 11 1 11 -6 0
-7 8 -5 20 6 20 18 25 71 7 82 -13 8 -248 9 -519 3z m353 -23 c44 -2 55 -12
40 -36 -8 -12 -12 -12 -25 -2 -9 8 -16 9 -16 4 0 -18 -51 -8 -63 12 -11 19
-11 19 -18 -5 -6 -23 -7 -22 -8 8 -1 29 1 32 23 26 13 -3 43 -6 67 -7z m86 5
c17 -11 9 -46 -10 -50 -13 -3 -17 4 -17 27 0 32 6 37 27 23z m-565 -22 c5 -12
7 -12 7 3 1 25 41 23 41 -3 0 -25 -20 -27 -21 -2 -1 15 -2 15 -6 0 -6 -22 -60
-21 -66 1 -3 9 -5 6 -6 -8 -1 -28 -13 -21 -18 10 -3 17 2 20 29 17 18 -2 36
-10 40 -18z m65 -12 c-3 -7 -5 -2 -5 12 0 14 2 19 5 13 2 -7 2 -19 0 -25z m26
12 c3 -11 1 -20 -4 -20 -5 0 -9 9 -9 20 0 11 2 20 4 20 2 0 6 -9 9 -20z m27
-2 c0 -16 -3 -19 -11 -11 -6 6 -8 16 -5 22 11 17 16 13 16 -11z m70 2 c0 -16
-7 -20 -30 -20 -49 0 -37 37 13 39 11 1 17 -6 17 -19z m100 -1 c0 -24 -20 -25
-21 -1 -1 16 -2 16 -6 0 -5 -22 -63 -26 -63 -5 0 21 8 25 50 25 33 1 40 -3 40
-19z m48 -2 c2 -12 -3 -17 -17 -17 -12 0 -21 6 -21 13 0 31 32 34 38 4z m42 3
c0 -11 -7 -20 -15 -20 -8 0 -15 9 -15 20 0 11 7 20 15 20 8 0 15 -9 15 -20z
m260 10 c0 -5 -4 -10 -10 -10 -5 0 -7 -6 -4 -13 3 -8 -3 -13 -16 -13 -14 0
-20 7 -20 23 0 18 6 23 25 23 14 0 25 -4 25 -10z"/>
<path d="M3850 1510 c0 -5 5 -10 10 -10 6 0 10 5 10 10 0 6 -4 10 -10 10 -5 0
-10 -4 -10 -10z"/>
<path d="M3971 1504 c0 -11 3 -14 6 -6 3 7 2 16 -1 19 -3 4 -6 -2 -5 -13z"/>
<path d="M1982 1513 c3 -33 7 -38 30 -41 15 -2 37 2 49 9 19 10 21 9 16 -5 -4
-10 -3 -15 3 -11 16 10 11 36 -6 33 -10 -2 -19 3 -22 11 -3 10 1 12 17 8 14
-3 21 -1 21 10 0 10 -6 12 -20 8 -11 -4 -20 -2 -20 4 0 6 -16 11 -36 11 -35 0
-35 -1 -32 -37z m54 6 c10 -17 -13 -36 -27 -22 -12 12 -4 33 11 33 5 0 12 -5
16 -11z"/>
<path d="M3228 1545 c-11 -11 5 -65 22 -70 39 -12 61 16 44 59 -6 15 -54 23
-66 11z m47 -33 c0 -18 -20 -15 -23 4 -3 10 1 15 10 12 7 -3 13 -10 13 -16z"/>
<path d="M4065 1449 c-4 -6 -13 -8 -21 -5 -8 3 -14 1 -14 -5 0 -6 -5 -7 -12
-3 -12 7 -48 7 -93 0 -11 -1 -34 0 -52 5 -22 4 -31 3 -26 -4 4 -6 1 -7 -6 -2
-14 8 -91 13 -91 5 0 -9 -83 -6 -97 3 -7 5 -13 5 -13 0 0 -4 -18 -9 -41 -10
-29 -2 -38 1 -33 10 5 9 4 9 -7 0 -15 -15 -33 -17 -25 -4 4 5 -2 8 -11 6 -10
-2 -18 -4 -18 -5 0 0 -19 -3 -42 -5 -26 -2 -43 1 -43 7 0 6 -6 6 -15 -2 -11
-9 -15 -9 -15 -1 0 8 -5 9 -19 1 -14 -7 -21 -6 -24 3 -4 9 -6 8 -6 -2 -1 -8
-9 -20 -18 -28 -10 -8 -12 -12 -5 -8 12 6 15 -2 15 -37 0 -10 2 -18 6 -19 3 0
202 -1 443 -2 l436 -2 -2 42 c-2 25 1 40 7 36 6 -3 8 -2 5 3 -4 5 -27 9 -52 8
-25 0 -46 3 -46 6 0 4 -14 6 -31 4 -18 -2 -28 0 -24 6 3 6 4 10 1 10 -3 0 -8
-5 -11 -11z m-623 -53 c11 -17 -2 -27 -29 -23 -15 2 -30 12 -35 23 -7 18 -8
18 -5 -1 1 -11 -3 -21 -8 -22 -8 -3 -11 21 -6 41 2 9 76 -7 83 -18z m185 -13
c-3 -10 -5 -4 -5 12 0 17 2 24 5 18 2 -7 2 -21 0 -30z m344 8 c0 -12 2 -11 8
4 7 17 17 20 62 18 30 -1 57 -2 62 -2 4 -1 7 -9 8 -18 0 -14 2 -13 9 4 10 25
40 22 40 -3 0 -24 -43 -35 -58 -16 -11 15 -14 15 -22 2 -8 -12 -10 -12 -11 5
-1 17 -2 17 -6 2 -3 -13 -12 -16 -38 -14 -22 3 -32 0 -28 -6 4 -7 0 -8 -13 -2
-10 4 -27 7 -36 7 -10 0 -19 7 -19 16 -1 15 -2 15 -6 -1 -6 -22 -48 -19 -48 3
-1 22 9 26 55 22 29 -3 40 -9 41 -21z m-501 -3 c0 -19 -2 -20 -10 -8 -13 19
-13 30 0 30 6 0 10 -10 10 -22z m31 10 c0 -10 2 -10 6 0 7 18 103 16 103 -2 0
-20 -28 -28 -52 -15 -14 8 -18 8 -14 0 4 -7 -6 -10 -29 -9 -27 1 -35 5 -35 20
0 20 20 25 21 6z m159 -8 c0 -11 -4 -20 -10 -20 -5 0 -10 9 -10 20 0 11 5 20
10 20 6 0 10 -9 10 -20z m25 10 c-3 -5 -1 -10 4 -10 6 0 11 5 11 10 0 6 9 10
20 10 11 0 20 -7 20 -15 0 -8 -9 -19 -20 -25 -13 -7 -20 -7 -20 -1 0 6 -7 8
-15 5 -10 -4 -15 0 -15 15 0 12 5 21 11 21 5 0 7 -4 4 -10z m78 -10 c-3 -11
-7 -20 -9 -20 -2 0 -4 9 -4 20 0 11 4 20 9 20 5 0 7 -9 4 -20z m47 3 c11 -17
11 -17 6 0 -4 12 -2 17 6 14 7 -2 12 -10 11 -16 -5 -18 15 -12 20 7 3 12 5 11
6 -6 1 -21 -3 -23 -40 -20 -41 2 -55 11 -44 28 9 15 23 12 35 -7z m390 -3 c0
-11 -7 -20 -15 -20 -8 0 -15 9 -15 20 0 11 7 20 15 20 8 0 15 -9 15 -20z"/>
<path d="M3415 1390 c-3 -5 -1 -10 4 -10 6 0 11 5 11 10 0 6 -2 10 -4 10 -3 0
-8 -4 -11 -10z"/>
<path d="M3890 1394 c0 -8 5 -12 10 -9 6 4 8 11 5 16 -9 14 -15 11 -15 -7z"/>
<path d="M3940 1389 c0 -5 5 -7 10 -4 6 3 10 8 10 11 0 2 -4 4 -10 4 -5 0 -10
-5 -10 -11z"/>
<path d="M2160 1442 c0 -4 -10 -8 -22 -9 -26 -2 -40 -23 -27 -40 6 -7 7 -18 3
-24 -4 -7 -3 -9 4 -5 5 3 12 1 14 -5 3 -9 116 -12 412 -12 438 -1 430 -2 423
49 -3 23 -37 63 -37 43 0 -7 -4 -8 -12 -2 -7 5 -29 8 -48 6 -90 -11 -115 -10
-122 0 -5 9 -10 9 -20 -1 -16 -16 -120 -16 -137 1 -8 6 -11 7 -8 1 8 -14 -243
-16 -260 -3 -7 7 -13 6 -18 -1 -3 -5 -11 -10 -16 -10 -6 0 -8 4 -5 9 7 10 -20
9 -30 -2 -11 -10 -53 -8 -75 3 -10 6 -19 7 -19 2z m167 -44 c1 -30 1 -31 -7
-8 -8 25 -8 25 -9 2 -1 -24 -28 -28 -43 -7 -5 6 -8 5 -8 -2 0 -7 -9 -13 -20
-13 -11 0 -20 6 -21 13 0 10 -2 10 -6 0 -7 -19 -34 -16 -49 5 -13 16 -14 16
-8 0 3 -10 2 -18 -3 -18 -5 0 -10 11 -11 25 -2 24 11 34 22 17 3 -5 28 -7 56
-5 33 3 58 -1 68 -9 9 -7 13 -8 9 -2 -4 7 0 15 9 18 8 3 12 11 8 17 -4 7 -3 9
2 6 5 -3 10 -20 11 -39z m523 -9 c0 -24 -32 -25 -54 -3 -15 14 -16 14 -16 0 0
-9 -5 -16 -10 -16 -25 0 -3 35 25 40 40 8 55 2 55 -21z m63 18 c4 3 7 -5 7
-18 0 -19 -2 -21 -10 -9 -6 10 -10 11 -10 3 0 -7 -9 -13 -20 -13 -13 0 -20 7
-20 19 0 22 20 33 36 20 6 -5 14 -6 17 -2z m34 -17 c2 -11 -2 -20 -7 -20 -6 0
-10 12 -10 27 0 29 12 24 17 -7z m-549 3 c-4 -22 -58 -31 -58 -10 0 20 10 27
37 27 18 0 24 -5 21 -17z m62 5 c0 -10 2 -10 8 -1 12 19 242 17 242 -1 0 -8
-13 -21 -29 -29 -27 -14 -30 -13 -42 9 -9 18 -15 21 -20 12 -11 -17 -191 -21
-201 -5 -13 20 -9 27 17 27 14 0 25 -6 25 -12z m289 -10 c-1 -21 -2 -21 -7 -3
l-5 20 -8 -20 c-7 -19 -8 -19 -8 3 -1 13 5 22 14 22 9 0 15 -9 14 -22z"/>
<path d="M2235 1390 c-3 -5 -1 -10 4 -10 6 0 11 5 11 10 0 6 -2 10 -4 10 -3 0
-8 -4 -11 -10z"/>
<path d="M2430 1390 c0 -5 5 -10 11 -10 5 0 7 5 4 10 -3 6 -8 10 -11 10 -2 0
-4 -4 -4 -10z"/>
<path d="M1982 1393 c3 -35 6 -38 36 -41 33 -3 33 -3 30 35 -3 35 -6 38 -36
41 -33 3 -33 3 -30 -35z m48 -9 c0 -16 -16 -19 -25 -4 -8 13 4 32 16 25 5 -4
9 -13 9 -21z"/>
<path d="M3225 1420 c-11 -5 -14 -9 -7 -9 8 -1 11 -11 7 -31 -5 -28 -3 -30 27
-30 47 0 56 9 46 48 -9 34 -30 40 -73 22z m50 -28 c0 -18 -20 -15 -23 4 -3 10
1 15 10 12 7 -3 13 -10 13 -16z"/>
<path d="M2070 1410 c0 -5 5 -10 11 -10 5 0 7 5 4 10 -3 6 -8 10 -11 10 -2 0
-4 -4 -4 -10z"/>
<path d="M920 1249 c-8 -5 -43 -6 -77 -3 -70 7 -75 3 -77 -65 l-1 -36 220 -2
c523 -5 485 -9 485 54 0 37 -11 41 -142 47 -43 3 -82 7 -87 10 -5 4 -12 2 -15
-3 -3 -5 -43 -8 -88 -7 -46 1 -88 -2 -95 -7 -6 -4 -14 -4 -17 2 -4 6 -20 8
-36 4 -17 -3 -36 -1 -43 5 -8 7 -18 7 -27 1z m-96 -27 c2 -4 21 -7 40 -7 20 1
36 0 36 -1 0 -2 -4 -14 -10 -28 -12 -32 -38 -34 -49 -4 -5 14 -10 18 -15 10
-4 -7 -12 -9 -18 -6 -6 4 -8 2 -4 -4 3 -6 2 -13 -4 -17 -6 -4 -10 8 -10 29 0
25 5 36 14 36 8 0 17 -4 20 -8z m346 -14 c0 21 20 3 20 -19 0 -21 -19 -27 -21
-6 0 10 -2 10 -6 0 -2 -7 -13 -13 -24 -13 -13 0 -19 7 -19 24 0 29 20 39 37
17 9 -11 12 -12 13 -3z m59 -39 c-18 -11 -29 -2 -29 26 0 33 34 39 38 6 2 -13
-2 -27 -9 -32z m-269 36 c0 -8 5 -17 11 -20 6 -4 9 0 7 10 -2 10 3 20 10 22
10 4 11 -2 6 -24 -10 -40 -13 -41 -35 -14 -14 17 -19 19 -19 7 0 -9 -2 -16 -4
-16 -2 0 -12 -3 -20 -6 -12 -5 -15 -1 -13 12 1 11 5 24 9 29 10 16 48 16 48 0z
m88 -17 c3 -27 -9 -31 -36 -15 -9 6 -9 13 -1 28 14 26 33 19 37 -13z m47 22
c7 -12 -12 -50 -25 -50 -11 0 -14 43 -3 53 9 10 21 9 28 -3z m179 4 c24 -9 20
-44 -4 -44 -15 0 -20 7 -20 25 0 27 1 28 24 19z m66 -17 c0 -29 -7 -37 -26
-30 -14 5 -19 35 -7 46 14 15 33 6 33 -16z m110 14 c3 -1 -4 -8 -14 -16 -11
-8 -14 -15 -8 -15 7 0 12 -4 12 -8 0 -6 -43 -8 -82 -3 -13 2 -9 39 5 44 10 3
70 2 87 -2z"/>
<path d="M800 1210 c0 -5 5 -10 11 -10 5 0 7 5 4 10 -3 6 -8 10 -11 10 -2 0
-4 -4 -4 -10z"/>
<path d="M852 1189 c2 -6 8 -10 13 -10 5 0 11 4 13 10 2 6 -4 11 -13 11 -9 0
-15 -5 -13 -11z"/>
<path d="M1130 1195 c0 -8 4 -15 10 -15 5 0 7 7 4 15 -4 8 -8 15 -10 15 -2 0
-4 -7 -4 -15z"/>
<path d="M1210 1196 c0 -9 5 -16 10 -16 6 0 10 4 10 9 0 6 -4 13 -10 16 -5 3
-10 -1 -10 -9z"/>
<path d="M1020 1190 c0 -5 5 -10 10 -10 6 0 10 5 10 10 0 6 -4 10 -10 10 -5 0
-10 -4 -10 -10z"/>
<path d="M1070 1189 c0 -5 5 -7 10 -4 6 3 10 8 10 11 0 2 -4 4 -10 4 -5 0 -10
-5 -10 -11z"/>
<path d="M1316 1201 c-4 -7 -5 -15 -2 -18 9 -9 19 4 14 18 -4 11 -6 11 -12 0z"/>
<path d="M1360 1188 c0 -4 7 -8 15 -8 8 0 15 4 15 8 0 5 -7 9 -15 9 -8 0 -15
-4 -15 -9z"/>
<path d="M758 971 c-3 -22 -1 -28 11 -23 8 3 12 1 8 -4 -4 -7 10 -9 36 -7 23
1 828 3 1790 4 l1747 1 0 29 0 29 -1794 0 -1794 0 -4 -29z m3582 -1 c0 -7
-602 -10 -1785 -10 -1183 0 -1785 3 -1785 10 0 7 602 10 1785 10 1183 0 1785
-3 1785 -10z"/>
<path d="M767 900 c-10 -4 -11 -16 -5 -45 l8 -40 190 2 c166 2 190 0 190 -14
0 -11 -3 -13 -13 -5 -7 6 -18 7 -27 2 -7 -4 -23 -5 -34 -1 -12 5 -28 7 -36 6
-8 -2 -30 -5 -47 -8 -18 -3 -36 -1 -39 5 -4 6 -10 5 -15 -3 -8 -12 -11 -11
-19 1 -7 11 -10 11 -10 2 0 -7 -5 -10 -11 -6 -16 10 -69 11 -97 2 -17 -6 -21
-5 -17 5 4 6 -1 3 -9 -7 -22 -27 -20 -62 4 -79 14 -10 34 -12 71 -7 29 4 64 5
78 3 14 -2 33 -4 41 -3 8 0 71 2 140 3 l125 2 2 38 c3 27 -1 37 -12 38 -8 1
-24 2 -35 3 -11 0 -21 5 -22 11 -2 6 72 10 195 10 163 1 200 3 207 15 11 18
13 40 2 24 -9 -14 -38 -24 -46 -17 -8 8 -68 11 -81 4 -18 -10 -120 -7 -127 4
-5 6 -8 5 -8 -4 0 -11 -3 -11 -15 -1 -9 7 -15 8 -15 2 0 -12 -73 -4 -81 10 -4
6 -9 6 -14 -2 -6 -9 -10 -9 -16 1 -5 8 -9 9 -9 4 0 -15 -41 -16 -59 -2 -12 9
-13 9 -7 0 9 -16 -35 -13 -46 2 -5 7 -8 7 -8 0 0 -15 -140 -16 -140 -1 0 6 -5
4 -10 -4 -8 -13 -13 -13 -31 -2 -11 8 -19 9 -15 4 3 -5 -10 -9 -29 -10 -28 -1
-35 2 -35 18 0 22 15 34 32 24 6 -4 66 -7 132 -7 79 0 124 -3 128 -11 6 -8 8
-8 8 0 0 7 20 10 53 9 28 0 60 3 70 7 11 6 17 5 17 -3 0 -7 9 -9 25 -5 20 5
23 3 18 -11 -6 -17 -6 -17 10 -1 19 18 82 20 82 1 0 -6 3 -15 8 -19 4 -4 7 2
7 14 0 13 6 22 15 22 8 0 15 -5 15 -10 0 -6 9 -5 21 2 17 10 23 10 26 1 3 -10
9 -10 25 0 15 9 22 9 25 1 3 -9 13 -8 35 3 25 13 32 13 39 2 6 -10 9 -10 9 -2
0 17 -37 36 -45 23 -4 -6 -11 -7 -17 -4 -10 6 -168 9 -193 4 -5 -1 -14 -1 -20
0 -8 1 -247 1 -300 -1 -5 0 -58 1 -118 3 -59 2 -113 1 -120 -2z m118 -132 c-7
-32 -24 -46 -35 -28 -5 8 -10 10 -10 4 0 -6 -12 -11 -27 -10 -21 1 -28 6 -28
21 0 17 7 20 42 20 23 0 45 3 49 8 12 11 13 9 9 -15z m332 -16 c3 -26 -24 -31
-33 -7 -6 14 -8 14 -18 -1 -11 -15 -14 -15 -29 1 -9 9 -17 12 -17 7 0 -16 -69
-20 -82 -5 -9 11 -13 12 -19 1 -7 -11 -9 -11 -9 0 0 10 -3 10 -15 -1 -15 -15
-55 -12 -55 4 0 5 -4 9 -10 9 -5 0 -7 -7 -4 -15 4 -8 1 -15 -5 -15 -10 0 -16
32 -7 41 2 2 71 4 152 4 144 -1 147 -1 151 -23z"/>
<path d="M790 860 c0 -5 5 -10 10 -10 6 0 10 5 10 10 0 6 -4 10 -10 10 -5 0
-10 -4 -10 -10z"/>
<path d="M1883 433 c9 -2 23 -2 30 0 6 3 -1 5 -18 5 -16 0 -22 -2 -12 -5z"/>
</g>
</svg>
