<?xml version="1.0" standalone="no"?>
<!DOCTYPE svg PUBLIC "-//W3C//DTD SVG 20010904//EN"
 "http://www.w3.org/TR/2001/REC-SVG-20010904/DTD/svg10.dtd">
<svg version="1.0" xmlns="http://www.w3.org/2000/svg"
 width="512.000000pt" height="512.000000pt" viewBox="0 0 512.000000 512.000000"
 preserveAspectRatio="xMidYMid meet">
<metadata>
Created by potrace 1.16, written by Peter Selinger 2001-2019
</metadata>
<g transform="translate(0.000000,512.000000) scale(0.100000,-0.100000)"
fill="#000000" stroke="none">
<path d="M2633 4763 c9 -2 23 -2 30 0 6 3 -1 5 -18 5 -16 0 -22 -2 -12 -5z"/>
<path d="M2238 4753 c7 -3 16 -2 19 1 4 3 -2 6 -13 5 -11 0 -14 -3 -6 -6z"/>
<path d="M2682 4755 c4 -4 26 -11 48 -15 23 -4 38 -4 33 0 -10 10 -90 24 -81
15z"/>
<path d="M2082 4721 c-46 -16 -86 -32 -89 -35 -14 -13 5 -14 29 -2 25 13 134
51 173 59 16 4 15 5 -5 6 -14 0 -62 -12 -108 -28z"/>
<path d="M2360 4709 c0 -5 5 -7 10 -4 6 3 10 8 10 11 0 2 -4 4 -10 4 -5 0 -10
-5 -10 -11z"/>
<path d="M2848 4708 c5 -5 16 -8 23 -6 8 3 3 7 -10 11 -17 4 -21 3 -13 -5z"/>
<path d="M2383 4684 c-3 -8 -12 -13 -19 -10 -9 4 -14 -2 -13 -17 0 -12 3 -17
5 -10 3 7 11 10 17 7 7 -2 17 7 24 21 6 14 7 25 2 25 -5 0 -12 -7 -16 -16z"/>
<path d="M2280 4683 c0 -13 39 -53 51 -53 6 0 4 6 -3 13 -7 7 -21 21 -30 31
-10 10 -18 13 -18 9z"/>
<path d="M2540 4670 c0 -5 7 -7 15 -4 8 4 15 8 15 10 0 2 -7 4 -15 4 -8 0 -15
-4 -15 -10z"/>
<path d="M1910 4635 c-72 -45 -59 -45 16 0 32 19 53 35 48 35 -5 0 -34 -16
-64 -35z"/>
<path d="M2495 4660 c-8 -13 5 -13 25 0 13 8 13 10 -2 10 -9 0 -20 -4 -23 -10z"/>
<path d="M2901 4641 c13 -10 35 -24 49 -31 38 -20 166 -118 197 -151 16 -16
33 -29 39 -29 15 0 99 -90 153 -163 68 -92 137 -212 167 -288 15 -38 30 -67
32 -64 8 8 -56 149 -108 241 -97 169 -215 296 -375 404 -107 72 -216 130 -154
81z"/>
<path d="M2211 4636 c2 -2 27 -13 56 -24 38 -15 50 -16 46 -6 -3 8 -21 18 -41
24 -38 10 -69 13 -61 6z"/>
<path d="M2170 4610 c8 -5 24 -10 35 -10 17 0 17 2 5 10 -8 5 -24 10 -35 10
-17 0 -17 -2 -5 -10z"/>
<path d="M2595 4610 c-30 -5 -17 -8 54 -9 52 0 92 1 90 3 -10 8 -107 13 -144
6z"/>
<path d="M2235 4590 c3 -5 13 -10 21 -10 8 0 12 5 9 10 -3 6 -13 10 -21 10 -8
0 -12 -4 -9 -10z"/>
<path d="M1820 4573 c-53 -37 -186 -168 -218 -215 -9 -13 -19 -25 -23 -28 -16
-12 -102 -156 -143 -237 -83 -168 -159 -406 -179 -563 -4 -25 11 25 33 110 40
158 46 178 107 335 84 219 249 448 418 583 43 33 46 43 5 15z"/>
<path d="M2115 4560 l-20 -9 20 1 c11 0 34 4 50 8 l30 8 -30 0 c-16 0 -39 -3
-50 -8z"/>
<path d="M2197 4556 c-16 -13 -16 -14 9 -20 14 -4 29 -5 32 -1 3 3 -2 5 -11 5
-9 0 -17 4 -17 10 0 6 16 8 38 5 26 -3 33 -2 22 5 -21 14 -52 12 -73 -4z"/>
<path d="M2860 4557 c195 -104 233 -128 316 -201 24 -21 44 -34 44 -29 0 6 -9
18 -20 28 -10 9 -18 22 -17 27 2 12 -118 118 -134 118 -6 0 21 -25 61 -56 39
-31 69 -58 66 -61 -2 -3 -38 20 -78 50 -71 53 -224 137 -250 137 -7 0 -2 -6
12 -13z"/>
<path d="M2352 4500 c2 -16 0 -32 -6 -35 -8 -3 -8 -7 -1 -10 13 -6 9 -113 -4
-129 -7 -9 -6 -19 5 -34 13 -19 13 -22 0 -22 -11 0 -12 -7 -7 -27 6 -20 3 -31
-8 -40 -9 -7 -11 -13 -5 -13 12 0 11 -61 -1 -80 -3 -5 -2 -10 4 -10 7 0 7 -8
1 -25 -8 -20 -6 -25 7 -25 9 0 13 3 10 7 -4 3 -2 12 4 19 6 8 9 20 6 29 -4 8
1 19 11 24 14 9 14 10 2 11 -18 0 -21 36 -5 60 5 8 8 23 6 34 -2 12 1 16 10
10 9 -5 10 -2 5 12 -22 53 -24 73 -10 85 11 9 12 15 3 25 -9 11 -9 14 0 14 9
0 9 5 1 21 -9 15 -8 24 1 35 6 8 7 14 2 14 -5 0 -8 18 -6 40 1 31 -2 40 -14
40 -11 0 -14 -8 -11 -30z"/>
<path d="M2161 4507 c-6 -8 -9 -16 -6 -18 2 -3 -8 -6 -22 -7 -15 -1 -29 -4
-31 -7 -13 -12 7 -12 63 0 54 12 58 14 26 19 -5 0 -13 5 -18 10 -4 5 9 6 32 3
28 -5 34 -4 20 3 -29 13 -51 12 -64 -3z"/>
<path d="M2598 4483 c7 -3 16 -2 19 1 4 3 -2 6 -13 5 -11 0 -14 -3 -6 -6z"/>
<path d="M2645 4484 c6 -2 46 -15 90 -28 44 -13 89 -27 100 -30 11 -4 9 -1 -6
8 -26 15 -164 57 -184 55 -6 0 -7 -2 0 -5z"/>
<path d="M2202 4459 c-18 -3 -36 -9 -39 -12 -6 -6 69 3 76 9 10 9 -6 10 -37 3z"/>
<path d="M3035 4419 c30 -28 58 -48 63 -45 5 3 22 -8 38 -25 34 -36 66 -56 58
-37 -6 17 -87 78 -102 78 -7 0 -12 4 -12 8 0 8 -83 72 -94 72 -2 0 19 -23 49
-51z"/>
<path d="M1828 4440 c-53 -32 -118 -93 -166 -153 -66 -84 -74 -104 -16 -37 76
87 154 159 205 191 7 4 11 10 9 12 -3 2 -17 -3 -32 -13z"/>
<path d="M1884 4408 l-19 -23 23 19 c21 18 27 26 19 26 -2 0 -12 -10 -23 -22z"/>
<path d="M2158 4423 c-10 -2 -18 -9 -18 -15 0 -6 10 -7 28 -2 15 4 37 7 50 7
12 -1 22 3 22 8 0 9 -51 10 -82 2z"/>
<path d="M2185 4390 c-3 -5 1 -10 9 -10 9 0 16 5 16 10 0 6 -4 10 -9 10 -6 0
-13 -4 -16 -10z"/>
<path d="M1820 4355 c-19 -19 -30 -35 -26 -35 8 0 16 8 50 48 30 34 14 26 -24
-13z"/>
<path d="M1853 4345 c-26 -24 -43 -44 -38 -45 6 0 30 20 54 45 57 58 47 58
-16 0z"/>
<path d="M3004 4366 c1 -8 33 -48 71 -88 84 -89 143 -160 174 -210 12 -21 27
-38 32 -38 6 0 1 13 -10 29 -12 16 -21 32 -21 36 0 12 -65 89 -129 152 -37 36
-57 63 -48 63 8 0 24 -12 35 -27 11 -16 24 -25 28 -20 11 11 -58 66 -75 59 -9
-3 -12 -1 -7 6 3 6 -4 20 -16 31 -26 25 -37 27 -34 7z m36 -21 c7 -8 8 -15 2
-15 -5 0 -15 7 -22 15 -7 8 -8 15 -2 15 5 0 15 -7 22 -15z"/>
<path d="M2185 4356 c-17 -7 -37 -21 -45 -30 -13 -17 -12 -17 25 -1 22 9 46
19 53 22 13 6 17 23 5 23 -5 -1 -22 -7 -38 -14z"/>
<path d="M3220 4367 c0 -4 26 -40 58 -80 31 -39 63 -81 69 -92 7 -11 31 -50
53 -87 46 -76 61 -90 29 -25 -47 93 -208 312 -209 284z"/>
<path d="M3110 4345 c29 -38 125 -131 143 -138 11 -4 15 -12 11 -18 -4 -8 -3
-9 5 -5 14 9 8 19 -37 68 -19 21 -38 35 -42 33 -5 -3 -19 7 -32 22 -13 16 -32
35 -43 43 -19 14 -19 14 -5 -5z m110 -96 c15 -28 5 -23 -15 7 -9 15 -12 23 -6
20 6 -4 16 -16 21 -27z"/>
<path d="M2208 4322 c-25 -15 -37 -32 -22 -32 13 0 42 21 48 35 7 18 7 18 -26
-3z"/>
<path d="M3005 4304 c17 -16 45 -48 64 -72 18 -24 36 -41 39 -38 7 8 -86 114
-111 127 -16 8 -14 4 8 -17z"/>
<path d="M1751 4283 c-12 -16 -49 -63 -82 -106 -33 -43 -59 -80 -57 -82 5 -5
128 151 128 161 0 4 10 18 22 31 12 13 19 23 16 23 -4 0 -16 -12 -27 -27z"/>
<path d="M3225 4300 c-5 -8 -1 -19 12 -29 51 -42 193 -257 219 -333 17 -52 29
-65 40 -47 4 8 3 9 -4 5 -7 -4 -17 13 -27 48 -9 30 -34 82 -55 116 -22 33 -40
63 -40 66 0 3 -11 17 -25 32 -14 15 -25 30 -25 34 0 4 -16 24 -36 45 -19 21
-39 47 -43 57 -6 15 -10 16 -16 6z"/>
<path d="M1774 4276 c-10 -8 -16 -17 -13 -20 3 -3 14 3 24 14 21 23 17 26 -11
6z"/>
<path d="M2208 4279 c-10 -5 -23 -19 -29 -31 -11 -21 -11 -21 20 1 17 12 31
27 31 32 0 11 -1 11 -22 -2z"/>
<path d="M1870 4245 c-24 -25 -36 -31 -42 -22 -4 7 -8 7 -8 1 0 -5 -8 -19 -17
-30 -10 -10 -24 -28 -32 -39 -7 -11 3 -2 23 19 40 44 50 34 11 -12 -14 -17
-25 -36 -25 -43 0 -8 8 0 18 16 11 17 42 56 71 88 57 61 57 80 1 22z"/>
<path d="M1689 4253 c-13 -16 -12 -17 4 -4 9 7 17 15 17 17 0 8 -8 3 -21 -13z"/>
<path d="M2210 4235 c-7 -8 -8 -15 -2 -15 5 0 15 7 22 15 7 8 8 15 2 15 -5 0
-15 -7 -22 -15z"/>
<path d="M3160 4242 c0 -5 9 -17 21 -28 12 -10 46 -56 76 -102 31 -46 58 -81
60 -78 7 7 -79 135 -121 180 -20 20 -36 33 -36 28z"/>
<path d="M1914 4218 l-19 -23 23 19 c21 18 27 26 19 26 -2 0 -12 -10 -23 -22z"/>
<path d="M1645 4200 c-10 -11 -16 -22 -14 -24 2 -2 12 7 22 20 22 29 17 32 -8
4z"/>
<path d="M1729 4203 c-13 -16 -12 -17 4 -4 9 7 17 15 17 17 0 8 -8 3 -21 -13z"/>
<path d="M1757 4203 c-4 -3 -7 -11 -7 -17 0 -6 5 -5 12 2 6 6 9 14 7 17 -3 3
-9 2 -12 -2z"/>
<path d="M1875 4189 c-4 -6 -4 -13 -1 -16 3 -3 -12 -27 -34 -53 -54 -64 -51
-77 4 -18 27 30 44 57 44 73 0 27 -3 31 -13 14z"/>
<path d="M1583 4178 c-20 -26 -26 -41 -15 -34 12 7 36 46 29 46 -3 0 -9 -6
-14 -12z"/>
<path d="M3030 4184 c0 -5 9 -20 20 -32 11 -12 20 -25 20 -30 0 -5 6 -15 14
-21 11 -10 14 -9 12 3 -2 18 -66 95 -66 80z"/>
<path d="M3120 4184 c0 -12 97 -146 113 -156 7 -4 8 -8 3 -8 -5 0 -2 -8 6 -17
39 -45 138 -327 138 -394 0 -10 4 -19 9 -19 5 0 7 8 5 18 -31 145 -55 227 -84
287 -10 22 -32 70 -49 107 -16 37 -39 73 -50 80 -12 7 -21 18 -21 24 0 6 -16
29 -35 50 -19 21 -35 34 -35 28z"/>
<path d="M1687 4137 c-10 -17 -13 -27 -7 -20 7 6 18 9 24 7 6 -2 17 5 24 16
15 25 4 27 -15 3 -13 -17 -14 -16 -8 5 9 31 3 28 -18 -11z"/>
<path d="M1821 4143 c-7 -8 -11 -16 -8 -19 2 -2 10 2 17 11 17 20 9 27 -9 8z"/>
<path d="M1909 4143 c-13 -16 -12 -17 4 -4 9 7 17 15 17 17 0 8 -8 3 -21 -13z"/>
<path d="M2830 4143 c0 -6 4 -13 8 -15 8 -3 118 -145 190 -247 18 -25 49 -77
68 -114 19 -37 39 -65 44 -62 5 3 7 -1 4 -9 -3 -8 3 -31 14 -53 11 -21 27 -62
37 -91 9 -29 19 -51 22 -48 7 7 -39 146 -48 146 -5 0 -9 11 -9 26 0 14 -9 44
-19 67 -11 24 -23 55 -26 69 -4 15 -13 29 -21 32 -13 5 -12 2 1 -16 8 -13 15
-29 15 -38 0 -8 -18 14 -41 49 -81 127 -239 328 -239 304z m294 -389 c3 -8 2
-12 -4 -9 -6 3 -10 10 -10 16 0 14 7 11 14 -7z"/>
<path d="M3030 4132 c6 -13 14 -21 18 -18 3 4 -2 14 -12 24 -18 16 -18 16 -6
-6z"/>
<path d="M3295 4139 c24 -12 32 -23 97 -147 50 -93 89 -196 123 -326 11 -38
21 -64 23 -58 2 6 -11 59 -28 119 -18 59 -33 116 -35 125 -2 9 -10 27 -18 40
-8 13 -18 33 -22 46 -10 34 -84 163 -108 190 -11 12 -28 22 -36 21 -12 0 -11
-3 4 -10z"/>
<path d="M1947 4119 c4 -13 8 -18 11 -10 2 7 -1 18 -6 23 -8 8 -9 4 -5 -13z"/>
<path d="M1739 4113 c-13 -16 -12 -17 4 -4 9 7 17 15 17 17 0 8 -8 3 -21 -13z"/>
<path d="M3130 4115 c8 -11 21 -26 27 -33 7 -7 38 -56 69 -108 31 -52 58 -94
60 -94 17 0 -117 213 -152 240 -18 14 -18 14 -4 -5z"/>
<path d="M1865 4088 c-17 -29 -17 -31 -1 -19 21 17 40 51 29 51 -5 0 -17 -15
-28 -32z"/>
<path d="M2025 4090 c-16 -16 -24 -30 -18 -30 7 0 21 14 33 30 12 17 20 30 18
30 -3 0 -17 -13 -33 -30z"/>
<path d="M1667 4079 c-4 -16 -3 -18 9 -8 16 13 19 29 5 29 -5 0 -11 -9 -14
-21z"/>
<path d="M1912 4074 c-7 -15 -17 -22 -24 -18 -6 4 -8 3 -5 -3 3 -5 -5 -26 -18
-46 -36 -52 -31 -56 8 -5 48 64 69 98 59 98 -5 0 -14 -12 -20 -26z"/>
<path d="M3115 4083 c4 -14 2 -23 -4 -23 -8 0 -7 -6 1 -19 7 -11 16 -17 20
-14 5 2 5 10 1 17 -4 7 0 3 10 -8 12 -12 14 -22 7 -26 -7 -4 -1 -20 15 -44 14
-20 25 -39 25 -41 0 -3 14 -27 31 -55 17 -28 42 -83 55 -123 20 -62 23 -61 10
3 -4 17 -13 41 -32 85 -13 29 -21 43 -56 97 -20 29 -23 42 -8 33 6 -4 20 -24
31 -47 11 -22 23 -37 26 -34 3 3 -15 37 -40 76 -26 38 -47 73 -47 77 -1 5 -12
22 -26 38 -22 26 -25 27 -19 8z m65 -106 c0 -5 -4 -5 -10 -2 -5 3 -10 14 -10
23 0 15 2 15 10 2 5 -8 10 -19 10 -23z"/>
<path d="M1751 4073 c-7 -8 -11 -16 -8 -19 2 -2 10 2 17 11 17 20 9 27 -9 8z"/>
<path d="M2052 4067 c-12 -13 -22 -27 -22 -31 0 -8 15 6 39 37 20 25 8 21 -17
-6z"/>
<path d="M3001 4085 c0 -5 6 -19 14 -29 8 -11 15 -15 15 -10 0 6 -7 19 -15 30
-8 10 -14 15 -14 9z"/>
<path d="M3060 4077 c0 -3 21 -38 46 -77 43 -67 77 -135 72 -144 -2 -2 4 -12
13 -22 9 -11 23 -36 33 -56 9 -21 19 -38 22 -38 2 0 -3 17 -12 38 -9 20 -22
52 -29 70 -6 18 -17 38 -23 44 -7 7 -12 16 -12 21 0 5 -21 41 -47 81 -50 76
-63 94 -63 83z"/>
<path d="M1967 4044 c-10 -14 -17 -30 -14 -37 2 -7 12 3 21 21 21 41 18 49 -7
16z"/>
<path d="M1565 4034 c-9 -15 -12 -23 -6 -20 11 7 35 46 28 46 -3 0 -12 -12
-22 -26z"/>
<path d="M1706 4052 c-3 -5 1 -9 9 -9 8 0 12 4 9 9 -3 4 -7 8 -9 8 -2 0 -6 -4
-9 -8z"/>
<path d="M1929 4043 c-44 -54 -99 -151 -80 -139 18 11 13 -3 -13 -37 -13 -18
-33 -50 -44 -72 -25 -50 -84 -234 -79 -248 1 -5 9 10 16 34 20 71 82 229 92
235 5 3 19 24 30 47 12 23 25 44 28 47 4 3 17 20 30 38 13 18 25 31 27 29 4
-4 -29 -72 -45 -91 -13 -16 -52 -129 -46 -135 5 -4 25 44 25 58 0 5 10 21 22
37 13 15 17 25 10 20 -20 -12 -14 9 8 29 11 10 18 20 15 23 -2 3 4 17 15 32
17 24 18 29 5 34 -9 3 -26 -9 -47 -34 -48 -60 -45 -41 6 39 45 69 54 89 25 54z"/>
<path d="M2130 4045 c-7 -8 -8 -15 -2 -15 5 0 15 7 22 15 7 8 8 15 2 15 -5 0
-15 -7 -22 -15z"/>
<path d="M1626 4013 c-15 -31 -15 -35 -2 -24 9 8 16 19 16 26 0 8 5 15 12 17
8 3 8 7 2 11 -6 3 -19 -10 -28 -30z"/>
<path d="M1741 4008 c-29 -39 -35 -77 -16 -97 3 -3 4 8 1 24 -4 21 1 38 18 59
28 39 38 56 32 56 -2 0 -18 -19 -35 -42z"/>
<path d="M1782 4005 c-34 -49 -33 -62 2 -18 19 24 39 63 33 63 -2 0 -17 -20
-35 -45z"/>
<path d="M2980 4041 c0 -6 4 -13 10 -16 6 -3 7 1 4 9 -7 18 -14 21 -14 7z"/>
<path d="M2142 4003 l-38 -38 36 30 c19 16 39 33 45 37 5 5 6 8 2 8 -4 0 -25
-17 -45 -37z"/>
<path d="M1703 4014 c-5 -13 -7 -13 -14 -2 -6 9 -9 9 -9 1 0 -22 19 -24 30 -3
6 11 8 20 5 20 -3 0 -8 -7 -12 -16z"/>
<path d="M1845 4019 c-4 -6 -5 -12 -2 -15 2 -3 7 2 10 11 7 17 1 20 -8 4z"/>
<path d="M2096 4004 c-23 -23 -20 -30 4 -9 11 10 20 20 20 22 0 7 -9 2 -24
-13z"/>
<path d="M2305 4010 c-3 -6 1 -7 9 -4 18 7 21 14 7 14 -6 0 -13 -4 -16 -10z"/>
<path d="M3046 4008 c18 -32 68 -108 70 -108 7 0 -12 38 -39 78 -26 38 -48 60
-31 30z"/>
<path d="M3281 4013 c-1 -7 15 -45 35 -84 20 -39 40 -83 44 -97 7 -22 8 -23 9
-6 1 11 -19 61 -43 110 -25 49 -45 83 -45 77z"/>
<path d="M3342 3940 c23 -44 43 -78 46 -76 6 6 -71 156 -80 156 -4 0 11 -36
34 -80z"/>
<path d="M1999 3993 c-13 -16 -12 -17 4 -4 9 7 17 15 17 17 0 8 -8 3 -21 -13z"/>
<path d="M2366 4001 c-7 -11 22 -36 31 -27 3 3 1 6 -6 6 -7 0 -10 4 -6 9 3 5
1 12 -4 15 -5 4 -12 2 -15 -3z"/>
<path d="M3012 3990 c7 -14 13 -29 14 -35 1 -21 16 -55 24 -55 4 0 11 -10 15
-22 4 -14 8 -18 11 -11 3 7 -3 25 -14 40 -10 16 -18 33 -16 38 2 6 -8 24 -22
40 -22 26 -23 27 -12 5z"/>
<path d="M1645 3948 l-16 -33 20 25 c20 24 26 40 16 40 -2 0 -12 -15 -20 -32z"/>
<path d="M2030 3959 c-7 -11 -10 -23 -7 -25 2 -2 9 7 15 21 14 30 7 33 -8 4z"/>
<path d="M1964 3945 c-9 -14 -15 -27 -13 -30 3 -2 12 10 21 26 21 36 15 39 -8
4z"/>
<path d="M2104 3937 c-39 -31 -111 -133 -101 -144 3 -2 12 8 20 24 17 32 102
122 132 140 14 8 15 12 5 12 -8 -1 -33 -15 -56 -32z"/>
<path d="M1989 3943 c-13 -16 -12 -17 4 -4 9 7 17 15 17 17 0 8 -8 3 -21 -13z"/>
<path d="M2042 3930 c-9 -16 -22 -30 -28 -30 -7 0 -21 -20 -33 -45 -12 -25
-23 -45 -26 -45 -8 0 0 37 12 52 19 24 36 61 24 54 -10 -7 -44 -63 -46 -76 0
-3 -4 -11 -8 -17 -5 -8 -4 -13 2 -13 6 0 11 -8 11 -17 0 -15 -2 -16 -10 -3 -5
8 -10 11 -11 5 -2 -27 -9 -44 -36 -90 -30 -53 -65 -136 -59 -142 2 -2 22 35
44 81 22 47 72 132 110 190 87 130 84 126 77 126 -3 0 -14 -13 -23 -30z"/>
<path d="M2908 3916 c15 -24 29 -42 31 -40 4 4 -47 84 -54 84 -2 0 8 -20 23
-44z"/>
<path d="M2367 3943 c-4 -3 -7 -14 -7 -24 0 -12 6 -16 21 -12 12 4 25 0 31 -8
7 -10 8 -8 5 9 -3 13 0 22 6 23 7 0 3 4 -8 9 -25 11 -40 12 -48 3z"/>
<path d="M2744 3928 c44 -61 106 -158 106 -167 0 -5 4 -12 9 -15 5 -4 7 4 4
16 -9 35 11 10 32 -42 23 -58 128 -270 131 -267 6 6 -70 182 -111 257 -7 14
-23 44 -34 68 -20 43 -37 58 -26 22 12 -38 -4 -20 -30 33 -24 48 -78 117 -92
117 -3 0 2 -10 11 -22z"/>
<path d="M2235 3930 c-3 -6 1 -7 9 -4 18 7 21 14 7 14 -6 0 -13 -4 -16 -10z"/>
<path d="M2249 3912 c-25 -15 -59 -37 -75 -50 -35 -28 -15 -18 43 21 45 30
108 53 97 36 -3 -5 -26 -20 -52 -33 -87 -44 -264 -195 -277 -237 -4 -10 -10
-19 -14 -19 -13 0 -31 -49 -24 -67 4 -10 2 -14 -4 -10 -12 7 -67 -107 -60
-126 2 -6 18 19 37 56 18 37 37 70 42 73 4 3 8 10 8 15 0 6 -5 7 -12 3 -7 -4
-8 -3 -4 4 4 7 14 12 22 12 17 0 19 17 2 22 -23 8 249 254 292 264 17 4 48 20
63 35 17 16 17 17 -5 23 -31 8 -27 9 -79 -22z"/>
<path d="M2440 3932 c0 -12 19 -26 26 -19 2 2 -2 10 -11 17 -9 8 -15 8 -15 2z"/>
<path d="M2715 3875 c27 -38 61 -86 75 -105 52 -69 117 -166 164 -247 26 -46
50 -83 52 -83 10 0 -117 226 -167 297 -33 45 -59 84 -59 87 0 3 -26 32 -57 63
l-57 58 49 -70z"/>
<path d="M3386 3927 c3 -10 9 -15 12 -12 3 3 0 11 -7 18 -10 9 -11 8 -5 -6z"/>
<path d="M2200 3909 c0 -5 5 -7 10 -4 6 3 10 8 10 11 0 2 -4 4 -10 4 -5 0 -10
-5 -10 -11z"/>
<path d="M1591 3849 c-18 -33 -31 -63 -28 -65 2 -3 19 23 36 57 18 33 31 63
28 65 -2 2 -19 -23 -36 -57z"/>
<path d="M2491 3894 c7 -8 21 -13 32 -10 10 2 31 0 46 -5 l26 -9 -25 20 c-26
20 -56 27 -45 10 3 -5 2 -10 -4 -10 -5 0 -13 5 -16 10 -3 6 -11 10 -17 10 -6
0 -5 -6 3 -16z"/>
<path d="M2951 3880 c6 -16 15 -32 20 -35 4 -3 3 8 -2 25 -6 16 -15 32 -20 35
-4 3 -3 -8 2 -25z"/>
<path d="M2985 3877 c3 -21 12 -51 20 -68 9 -16 12 -29 9 -29 -4 0 0 -8 8 -17
8 -10 22 -35 32 -55 9 -21 19 -38 21 -38 7 0 -22 74 -53 137 -17 33 -29 63
-26 66 3 3 1 14 -5 24 -8 14 -9 10 -6 -20z"/>
<path d="M1683 3884 c-2 -7 -6 -19 -7 -28 -1 -8 -5 -19 -9 -22 -4 -4 -7 -14
-7 -22 0 -8 10 0 23 19 33 48 38 66 20 66 -8 0 -17 -6 -20 -13z"/>
<path d="M2881 3865 c12 -22 26 -44 32 -50 15 -16 -20 48 -38 70 -9 11 -7 2 6
-20z"/>
<path d="M3400 3891 c0 -6 4 -13 10 -16 6 -3 7 1 4 9 -7 18 -14 21 -14 7z"/>
<path d="M1930 3870 c-6 -11 -8 -20 -6 -20 3 0 10 9 16 20 6 11 8 20 6 20 -3
0 -10 -9 -16 -20z"/>
<path d="M2440 3880 c20 -13 33 -13 25 0 -3 6 -14 10 -23 10 -15 0 -15 -2 -2
-10z"/>
<path d="M2560 3849 c35 -28 60 -41 60 -32 0 9 -65 53 -77 53 -5 0 3 -9 17
-21z"/>
<path d="M3490 3862 c0 -5 7 -17 16 -28 14 -17 15 -17 10 -1 -3 10 -6 23 -6
28 0 5 -4 9 -10 9 -5 0 -10 -4 -10 -8z"/>
<path d="M1722 3840 c-7 -11 -12 -25 -12 -32 0 -7 7 0 15 16 18 33 15 45 -3
16z"/>
<path d="M2100 3842 c-22 -18 -22 -19 -4 -26 10 -4 15 -4 11 0 -4 4 0 16 10
26 21 23 12 23 -17 0z"/>
<path d="M3010 3851 c0 -5 5 -13 10 -16 6 -3 10 -2 10 4 0 5 -4 13 -10 16 -5
3 -10 2 -10 -4z"/>
<path d="M3124 3845 c10 -42 70 -178 74 -167 3 11 -12 51 -55 137 -13 28 -22
41 -19 30z"/>
<path d="M3150 3841 c0 -6 4 -13 10 -16 6 -3 7 1 4 9 -7 18 -14 21 -14 7z"/>
<path d="M3592 3830 c0 -14 2 -19 5 -12 2 6 2 18 0 25 -3 6 -5 1 -5 -13z"/>
<path d="M1897 3813 c-4 -3 -7 -11 -7 -17 0 -6 5 -5 12 2 6 6 9 14 7 17 -3 3
-9 2 -12 -2z"/>
<path d="M2044 3797 c-17 -19 -17 -20 -1 -8 9 8 21 11 24 7 4 -4 1 -11 -7 -16
-8 -6 -10 -10 -4 -10 21 0 33 24 19 37 -10 9 -17 7 -31 -10z"/>
<path d="M3059 3765 c16 -33 31 -67 34 -75 3 -8 6 -10 6 -3 1 16 -34 94 -53
118 -9 11 -3 -7 13 -40z"/>
<path d="M2580 3800 c0 -5 5 -10 11 -10 5 0 7 5 4 10 -3 6 -8 10 -11 10 -2 0
-4 -4 -4 -10z"/>
<path d="M3502 3802 c2 -8 8 -13 13 -12 5 1 20 -27 32 -62 13 -35 20 -48 17
-29 -8 42 -42 122 -43 101 -1 -13 -2 -13 -12 0 -7 10 -9 11 -7 2z"/>
<path d="M2980 3791 c0 -6 4 -13 10 -16 6 -3 7 1 4 9 -7 18 -14 21 -14 7z"/>
<path d="M3370 3796 c0 -19 72 -270 81 -285 12 -19 14 -25 -34 152 -30 112
-47 159 -47 133z"/>
<path d="M2957 3761 c21 -33 69 -119 82 -148 6 -13 13 -23 16 -23 7 0 -22 70
-36 87 -6 7 -9 20 -5 29 7 18 -11 57 -23 49 -10 -5 -34 19 -26 27 3 2 -2 5
-10 5 -13 0 -13 -4 2 -26z m53 -44 c0 -5 -4 -5 -10 -2 -5 3 -10 14 -10 23 0
15 2 15 10 2 5 -8 10 -19 10 -23z"/>
<path d="M3610 3776 c0 -4 7 -34 14 -65 16 -62 58 -317 75 -451 12 -100 54
-614 67 -820 3 -52 8 -97 10 -99 7 -7 4 99 -6 214 -5 61 -12 155 -15 210 -10
167 -14 221 -25 353 -20 226 -83 605 -109 650 -6 9 -11 13 -11 8z"/>
<path d="M2650 3763 c0 -10 45 -63 54 -63 3 0 20 -15 36 -32 16 -18 30 -28 30
-23 0 6 -27 37 -60 68 -33 32 -60 54 -60 50z"/>
<path d="M2920 3767 c0 -16 105 -208 108 -198 2 6 -6 23 -17 37 -12 15 -21 33
-21 40 0 7 -12 35 -26 61 -27 49 -44 72 -44 60z"/>
<path d="M2030 3749 c0 -5 5 -7 10 -4 6 3 10 8 10 11 0 2 -4 4 -10 4 -5 0 -10
-5 -10 -11z"/>
<path d="M3410 3755 c0 -5 5 -17 10 -25 5 -8 10 -10 10 -5 0 6 -5 17 -10 25
-5 8 -10 11 -10 5z"/>
<path d="M3200 3730 c0 -5 5 -10 11 -10 5 0 7 5 4 10 -3 6 -8 10 -11 10 -2 0
-4 -4 -4 -10z"/>
<path d="M3436 3675 c8 -37 14 -45 14 -19 0 10 -5 26 -10 34 -8 11 -9 7 -4
-15z"/>
<path d="M3311 3670 c0 -8 10 -49 24 -90 13 -41 24 -66 24 -55 0 25 -47 166
-48 145z"/>
<path d="M3090 3660 c0 -8 5 -22 10 -30 9 -13 10 -13 10 0 0 8 -5 22 -10 30
-9 13 -10 13 -10 0z"/>
<path d="M3110 3669 c0 -13 89 -212 90 -199 0 19 -55 154 -75 183 -8 12 -15
19 -15 16z"/>
<path d="M1827 3653 c-4 -3 -7 -13 -7 -22 1 -13 3 -13 11 2 11 19 8 33 -4 20z"/>
<path d="M3200 3649 c0 -4 7 -20 15 -35 8 -16 15 -22 15 -13 0 14 -29 61 -30
48z"/>
<path d="M3541 3574 c0 -11 3 -14 6 -6 3 7 2 16 -1 19 -3 4 -6 -2 -5 -13z"/>
<path d="M3601 3574 c0 -11 3 -14 6 -6 3 7 2 16 -1 19 -3 4 -6 -2 -5 -13z"/>
<path d="M3230 3575 c0 -5 5 -17 10 -25 5 -8 10 -10 10 -5 0 6 -5 17 -10 25
-5 8 -10 11 -10 5z"/>
<path d="M3058 3510 c9 -22 20 -40 24 -40 3 0 -1 18 -10 40 -9 22 -20 40 -24
40 -3 0 1 -18 10 -40z"/>
<path d="M3550 3539 c0 -8 6 -48 14 -89 8 -41 17 -102 22 -135 4 -33 9 -53 11
-44 4 18 -34 270 -42 278 -3 2 -5 -2 -5 -10z"/>
<path d="M2880 3487 c0 -4 11 -29 25 -55 14 -26 25 -40 25 -32 0 15 -49 101
-50 87z"/>
<path d="M3040 3484 c0 -12 84 -214 87 -210 5 4 -77 216 -83 216 -2 0 -4 -3
-4 -6z"/>
<path d="M3221 3467 c-1 -16 6 -52 15 -80 9 -29 18 -58 20 -66 3 -8 6 -12 9
-9 2 2 -3 26 -11 53 -8 28 -19 68 -24 90 -6 33 -8 35 -9 12z"/>
<path d="M3471 3444 c0 -11 3 -14 6 -6 3 7 2 16 -1 19 -3 4 -6 -2 -5 -13z"/>
<path d="M1251 3424 c0 -11 3 -14 6 -6 3 7 2 16 -1 19 -3 4 -6 -2 -5 -13z"/>
<path d="M3047 3348 c14 -38 28 -67 29 -65 7 7 -19 85 -36 107 -16 20 -15 12
7 -42z"/>
<path d="M1235 3353 c-4 -27 -10 -70 -15 -98 -21 -112 -42 -495 -30 -530 4
-10 10 50 13 135 7 150 29 411 43 498 3 23 4 42 1 42 -3 0 -9 -21 -12 -47z"/>
<path d="M3000 3375 c0 -5 5 -17 10 -25 5 -8 10 -10 10 -5 0 6 -5 17 -10 25
-5 8 -10 11 -10 5z"/>
<path d="M3502 3335 c0 -11 4 -31 8 -45 6 -20 8 -21 8 -5 0 11 -4 31 -8 45 -6
20 -8 21 -8 5z"/>
<path d="M3020 3321 c0 -6 4 -13 10 -16 6 -3 7 1 4 9 -7 18 -14 21 -14 7z"/>
<path d="M1863 3293 c-3 -7 -9 -10 -14 -7 -5 3 -9 0 -9 -6 0 -6 -11 -15 -24
-20 -26 -10 -55 -50 -36 -50 5 0 10 4 10 9 0 12 135 61 171 61 38 0 153 -31
272 -74 53 -18 98 -32 100 -29 9 8 48 -51 43 -64 -3 -7 -1 -13 4 -13 6 0 10
11 10 23 0 25 -36 74 -51 69 -5 -1 -9 2 -9 8 0 5 -6 10 -14 10 -7 0 -31 8 -52
17 -22 9 -43 18 -49 19 -5 2 -50 15 -100 30 -100 29 -244 39 -252 17z"/>
<path d="M2910 3276 c0 -7 -19 -19 -42 -27 -24 -8 -43 -12 -43 -10 0 3 -11 -2
-25 -9 -14 -8 -28 -14 -31 -15 -3 0 -26 -13 -50 -28 -41 -26 -45 -32 -47 -70
l-1 -42 15 39 c8 22 23 48 34 58 18 17 20 17 20 1 0 -15 1 -15 13 -1 6 8 46
25 87 38 41 13 89 30 105 39 17 8 34 15 39 16 5 0 11 5 13 10 1 6 -17 11 -42
12 -31 1 -45 -2 -45 -11z"/>
<path d="M3521 3244 c0 -11 3 -14 6 -6 3 7 2 16 -1 19 -3 4 -6 -2 -5 -13z"/>
<path d="M3600 3197 l5 -52 3 44 c2 24 0 47 -5 52 -4 4 -6 -15 -3 -44z"/>
<path d="M1843 3191 c-23 -9 -45 -20 -49 -24 -7 -7 31 -12 51 -7 29 8 140 -2
147 -13 7 -11 12 -3 9 15 0 4 6 5 14 2 8 -4 12 -10 9 -16 -3 -5 0 -8 7 -7 14
2 67 -10 83 -19 4 -2 3 -7 -3 -11 -5 -4 10 -11 35 -17 29 -7 47 -7 51 -1 3 6
1 7 -4 4 -6 -4 -13 0 -17 8 -4 11 1 13 26 8 22 -4 29 -3 24 5 -4 7 -14 12 -22
12 -8 0 -61 15 -117 34 -128 43 -188 49 -244 27z m321 -77 c4 -10 1 -14 -6
-12 -15 5 -23 28 -10 28 5 0 13 -7 16 -16z"/>
<path d="M3092 3170 c0 -14 2 -19 5 -12 2 6 2 18 0 25 -3 6 -5 1 -5 -13z"/>
<path d="M3156 3177 c3 -10 9 -15 12 -12 3 3 0 11 -7 18 -10 9 -11 8 -5 -6z"/>
<path d="M2981 3165 c-18 -9 -61 -22 -95 -30 -33 -9 -68 -19 -76 -22 -8 -3
-21 -7 -28 -9 -29 -6 -42 -14 -42 -26 0 -9 2 -10 8 -2 4 7 23 14 42 17 19 2
48 8 64 12 23 6 27 5 21 -5 -6 -10 -4 -11 11 -6 10 5 47 10 82 13 52 5 59 8
46 18 -13 9 -14 14 -4 20 7 4 16 2 20 -5 5 -7 8 -2 8 14 0 30 -9 31 -57 11z"/>
<path d="M3101 3130 c0 -8 4 -22 9 -30 12 -18 12 -2 0 25 -6 13 -9 15 -9 5z"/>
<path d="M3612 3100 c0 -19 2 -27 5 -17 2 9 2 25 0 35 -3 9 -5 1 -5 -18z"/>
<path d="M1392 3088 c-8 -8 -4 -15 18 -27 16 -9 43 -29 60 -44 36 -32 48 -30
28 4 -39 68 -79 94 -106 67z"/>
<path d="M2915 3076 c-63 -20 -87 -35 -140 -91 -105 -110 -103 -128 18 -123
71 3 64 18 -9 18 -30 0 -54 4 -54 9 0 14 50 85 73 104 12 9 43 28 70 41 l47
23 0 -23 c0 -13 5 -24 10 -24 6 0 10 6 9 13 -4 32 1 39 25 33 15 -4 26 -1 29
7 4 9 8 8 16 -3 6 -8 11 -11 11 -6 0 5 6 3 14 -3 8 -7 17 -8 20 -3 9 14 -39
42 -71 41 -15 0 -46 -6 -68 -13z"/>
<path d="M1987 3074 c-9 -10 2 -24 19 -24 8 0 14 7 14 15 0 15 -21 21 -33 9z"/>
<path d="M2043 3068 c2 -7 10 -13 17 -13 7 0 15 6 18 13 2 7 -5 12 -18 12 -13
0 -20 -5 -17 -12z"/>
<path d="M2090 3065 c0 -8 9 -15 20 -15 11 0 20 -5 20 -10 0 -6 11 -8 25 -4
15 4 25 2 25 -5 0 -6 6 -11 13 -11 12 0 85 -71 116 -112 11 -15 8 -17 -26 -17
-21 0 -51 -4 -68 -10 -25 -8 -19 -9 41 -10 109 -1 111 11 22 102 -55 55 -85
78 -122 90 -61 21 -66 21 -66 2z"/>
<path d="M1936 3056 c3 -9 11 -16 16 -16 13 0 5 23 -10 28 -7 2 -10 -2 -6 -12z"/>
<path d="M1890 3041 c0 -5 7 -12 16 -15 14 -5 15 -4 4 9 -14 17 -20 19 -20 6z"/>
<path d="M1819 3020 c13 -11 33 -20 45 -19 19 0 19 1 -4 11 -14 5 -34 14 -45
20 -16 7 -16 5 4 -12z"/>
<path d="M1773 2989 c0 -17 3 -26 6 -22 7 10 21 10 36 2 22 -13 45 -18 45 -10
0 5 -13 13 -28 19 -16 5 -35 16 -43 25 -14 14 -16 12 -16 -14z"/>
<path d="M1370 2954 c0 -129 67 -300 160 -412 45 -54 56 -62 86 -62 38 0 79
30 71 52 -4 9 -6 7 -6 -4 -1 -10 -5 -18 -11 -18 -5 0 -14 8 -19 18 -9 15 -10
15 -11 0 0 -9 6 -19 13 -21 6 -3 -5 -4 -26 -3 -28 1 -45 10 -69 36 -49 53
-116 158 -138 217 -17 45 -38 198 -34 241 1 6 -2 12 -7 12 -5 0 -9 -25 -9 -56z"/>
<path d="M1445 2990 c3 -5 8 -10 11 -10 2 0 4 5 4 10 0 6 -5 10 -11 10 -5 0
-7 -4 -4 -10z"/>
<path d="M1984 2990 c-12 -5 -25 -14 -30 -21 -5 -9 -2 -10 9 -6 18 7 24 -8 7
-18 -20 -13 -9 -34 23 -44 17 -5 53 -16 79 -25 43 -13 49 -13 82 5 19 10 53
22 76 25 l40 7 -38 34 c-33 31 -37 32 -40 14 -2 -11 -15 -31 -29 -45 -53 -54
-147 -19 -145 54 1 32 -1 33 -34 20z"/>
<path d="M2045 2990 c-16 -26 4 -57 44 -68 40 -10 51 -7 51 10 0 5 -9 6 -20 3
-21 -7 -53 17 -56 42 -3 21 -11 26 -19 13z"/>
<path d="M2120 2980 c0 -13 5 -20 13 -17 6 2 12 10 12 17 0 7 -6 15 -12 18 -8
2 -13 -5 -13 -18z"/>
<path d="M2922 2989 c2 -6 8 -10 13 -10 5 0 11 4 13 10 2 6 -4 11 -13 11 -9 0
-15 -5 -13 -11z"/>
<path d="M3010 2962 c0 -44 -33 -72 -84 -72 -47 0 -67 16 -82 62 l-9 28 -37
-38 -37 -39 41 -1 c23 -1 52 -9 64 -17 41 -27 154 -13 190 22 15 15 15 18 0
29 -15 11 -15 12 1 19 16 6 15 8 -7 20 -35 20 -40 19 -40 -13z"/>
<path d="M1450 2951 c-7 -13 -7 -22 0 -26 10 -6 14 1 11 19 -1 5 4 13 11 17 9
6 10 9 1 9 -7 0 -17 -9 -23 -19z"/>
<path d="M2870 2958 c0 -18 36 -48 57 -48 7 0 13 7 13 15 0 9 -9 15 -21 15
-12 0 -28 8 -35 18 -12 16 -13 16 -14 0z"/>
<path d="M2962 2958 c-15 -15 -16 -38 -2 -38 12 0 23 25 18 40 -2 7 -7 7 -16
-2z"/>
<path d="M1935 2940 c3 -5 8 -10 11 -10 2 0 4 5 4 10 0 6 -5 10 -11 10 -5 0
-7 -4 -4 -10z"/>
<path d="M3511 2934 c0 -11 3 -14 6 -6 3 7 2 16 -1 19 -3 4 -6 -2 -5 -13z"/>
<path d="M1865 2923 c-19 -10 -25 -18 -16 -21 7 -2 23 5 34 17 25 25 22 26
-18 4z"/>
<path d="M1473 2893 c-7 -2 -13 -10 -13 -18 0 -7 -7 -19 -16 -26 -30 -24 5
-159 41 -159 17 0 20 16 4 25 -19 12 -29 55 -22 101 4 35 12 48 29 56 13 6 24
15 24 20 0 9 -27 10 -47 1z"/>
<path d="M1970 2865 c0 -8 2 -15 4 -15 2 0 6 7 10 15 3 8 1 15 -4 15 -6 0 -10
-7 -10 -15z"/>
<path d="M1701 2809 c0 -35 4 -73 9 -84 5 -12 7 11 3 60 -6 98 -13 112 -12 24z"/>
<path d="M1665 2760 c2 -58 8 -116 14 -130 10 -22 11 -20 5 15 -4 22 -10 81
-15 130 l-8 90 4 -105z"/>
<path d="M2032 2840 c0 -14 2 -19 5 -12 2 6 2 18 0 25 -3 6 -5 1 -5 -13z"/>
<path d="M2867 2854 c-11 -11 3 -24 26 -23 15 0 17 2 7 6 -8 3 -18 10 -21 15
-3 4 -8 5 -12 2z"/>
<path d="M3532 2840 c0 -14 2 -19 5 -12 2 6 2 18 0 25 -3 6 -5 1 -5 -13z"/>
<path d="M2066 2835 c-5 -15 0 -16 41 -12 27 3 49 6 51 6 1 1 2 6 2 12 0 8 -4
8 -14 0 -10 -9 -16 -9 -21 -1 -5 8 -11 8 -19 1 -9 -7 -16 -7 -23 0 -7 7 -12 5
-17 -6z"/>
<path d="M2925 2841 c-3 -5 -1 -12 5 -16 5 -3 10 1 10 9 0 18 -6 21 -15 7z"/>
<path d="M2960 2841 c0 -6 5 -13 10 -16 6 -3 10 1 10 9 0 9 -4 16 -10 16 -5 0
-10 -4 -10 -9z"/>
<path d="M2990 2840 c0 -5 5 -10 10 -10 6 0 10 5 10 10 0 6 -4 10 -10 10 -5 0
-10 -4 -10 -10z"/>
<path d="M1751 2804 c0 -11 3 -14 6 -6 3 7 2 16 -1 19 -3 4 -6 -2 -5 -13z"/>
<path d="M2847 2800 c6 -7 24 -14 38 -16 26 -2 27 8 2 12 -7 1 -21 5 -32 10
-16 5 -18 4 -8 -6z"/>
<path d="M3541 2794 c0 -11 3 -14 6 -6 3 7 2 16 -1 19 -3 4 -6 -2 -5 -13z"/>
<path d="M3141 2795 c-2 -19 34 -125 41 -125 4 0 8 1 8 3 -1 10 -49 130 -49
122z"/>
<path d="M2110 2780 c-12 -8 -10 -9 7 -7 12 2 26 6 29 10 11 11 -19 8 -36 -3z"/>
<path d="M1560 2738 c1 -17 39 -67 40 -51 0 6 -6 18 -13 25 -8 7 -12 19 -9 26
2 6 -1 12 -7 12 -6 0 -11 -6 -11 -12z"/>
<path d="M3703 2715 c0 -22 2 -30 4 -17 2 12 2 30 0 40 -3 9 -5 -1 -4 -23z"/>
<path d="M3361 2710 c0 -29 1 -32 10 -17 7 11 7 23 0 35 -9 14 -10 11 -10 -18z"/>
<path d="M1530 2650 c11 -23 18 -45 15 -50 -3 -6 -1 -10 5 -10 6 0 15 11 21
24 9 20 7 28 -12 50 -36 42 -53 34 -29 -14z"/>
<path d="M1600 2658 c0 -7 5 -20 10 -28 8 -12 10 -11 10 7 0 12 -4 25 -10 28
-5 3 -10 0 -10 -7z"/>
<path d="M3388 2647 c-6 -33 0 -67 13 -67 10 0 10 20 0 65 l-7 30 -6 -28z"/>
<path d="M3190 2638 c1 -7 10 -29 21 -48 15 -26 18 -29 13 -10 -16 59 -35 91
-34 58z"/>
<path d="M3713 2565 c0 -44 2 -61 4 -37 2 23 2 59 0 80 -2 20 -4 1 -4 -43z"/>
<path d="M3582 2600 c0 -14 2 -19 5 -12 2 6 2 18 0 25 -3 6 -5 1 -5 -13z"/>
<path d="M3671 2604 c0 -11 3 -14 6 -6 3 7 2 16 -1 19 -3 4 -6 -2 -5 -13z"/>
<path d="M1600 2565 c-10 -12 -10 -15 4 -15 9 0 16 7 16 15 0 8 -2 15 -4 15
-2 0 -9 -7 -16 -15z"/>
<path d="M3421 2570 c0 -8 4 -22 9 -30 12 -18 12 -2 0 25 -6 13 -9 15 -9 5z"/>
<path d="M1183 2505 c0 -27 2 -38 4 -22 2 15 2 37 0 50 -2 12 -4 0 -4 -28z"/>
<path d="M1153 2465 c0 -33 2 -45 4 -27 2 18 2 45 0 60 -2 15 -4 0 -4 -33z"/>
<path d="M1361 2494 c0 -11 3 -14 6 -6 3 7 2 16 -1 19 -3 4 -6 -2 -5 -13z"/>
<path d="M2376 2494 c-8 -21 -8 -21 9 -21 8 0 15 6 15 13 0 20 -17 26 -24 8z"/>
<path d="M2505 2500 c-3 -5 -2 -10 4 -10 5 0 13 5 16 10 3 6 2 10 -4 10 -5 0
-13 -4 -16 -10z"/>
<path d="M1746 2475 c23 -102 61 -211 99 -282 44 -84 115 -177 141 -187 15 -6
-21 47 -65 93 -18 21 -80 128 -86 151 -1 3 -6 16 -12 30 -6 14 -22 63 -37 110
-27 88 -53 142 -40 85z"/>
<path d="M2313 2462 c-1 -37 -1 -37 8 -7 4 16 5 33 1 37 -4 4 -8 -10 -9 -30z"/>
<path d="M2680 2475 c6 -15 6 -26 0 -30 -6 -4 -10 1 -10 9 0 12 -5 13 -32 4
-38 -12 -58 -26 -58 -39 0 -5 11 -2 25 7 16 11 36 14 55 11 16 -4 32 -2 36 4
8 14 -4 59 -16 59 -6 0 -6 -9 0 -25z"/>
<path d="M3588 2494 c-5 -4 -8 -28 -7 -53 l1 -46 9 40 c10 43 9 71 -3 59z"/>
<path d="M2575 2480 c3 -5 13 -10 21 -10 8 0 12 5 9 10 -3 6 -13 10 -21 10 -8
0 -12 -4 -9 -10z"/>
<path d="M3260 2480 c0 -5 7 -10 15 -10 8 0 15 5 15 10 0 6 -7 10 -15 10 -8 0
-15 -4 -15 -10z"/>
<path d="M2515 2471 c-3 -5 -1 -12 5 -16 5 -3 10 1 10 9 0 18 -6 21 -15 7z"/>
<path d="M2395 2458 c-11 -6 -22 -12 -24 -14 -11 -9 32 -54 52 -54 20 1 20 2
-6 16 -23 12 -26 18 -16 30 17 20 52 17 83 -7 14 -11 26 -16 26 -11 0 9 -78
53 -91 52 -2 0 -13 -6 -24 -12z"/>
<path d="M3726 2374 c5 -117 14 -194 23 -194 7 0 5 25 -18 215 l-10 80 5 -101z"/>
<path d="M1371 2444 c0 -11 3 -14 6 -6 3 7 2 16 -1 19 -3 4 -6 -2 -5 -13z"/>
<path d="M2720 2434 c0 -8 5 -12 10 -9 6 4 8 11 5 16 -9 14 -15 11 -15 -7z"/>
<path d="M1172 2400 c0 -19 2 -27 5 -17 2 9 2 25 0 35 -3 9 -5 1 -5 -18z"/>
<path d="M2695 2400 c-3 -5 -3 -10 1 -10 4 0 -1 -7 -12 -15 -15 -11 -16 -14
-4 -15 14 0 50 33 50 45 0 9 -29 5 -35 -5z"/>
<path d="M2610 2386 c0 -18 35 -22 45 -6 3 6 2 10 -4 10 -5 0 -16 3 -25 6 -11
4 -16 1 -16 -10z"/>
<path d="M3558 2322 c-9 -37 -19 -76 -23 -87 -4 -14 -1 -12 9 5 16 26 40 124
34 140 -2 5 -10 -21 -20 -58z"/>
<path d="M1143 2310 c0 -30 2 -43 4 -27 2 15 2 39 0 55 -2 15 -4 2 -4 -28z"/>
<path d="M2350 2350 c0 -5 12 -10 26 -10 14 0 23 4 19 10 -3 6 -15 10 -26 10
-10 0 -19 -4 -19 -10z"/>
<path d="M2588 2352 c-29 -6 -20 -19 12 -18 31 1 40 11 18 18 -7 2 -21 3 -30
0z"/>
<path d="M2500 2330 c0 -5 5 -10 10 -10 6 0 10 5 10 10 0 6 -4 10 -10 10 -5 0
-10 -4 -10 -10z"/>
<path d="M1261 2314 c0 -11 3 -14 6 -6 3 7 2 16 -1 19 -3 4 -6 -2 -5 -13z"/>
<path d="M3151 2288 c-28 -68 -73 -153 -87 -164 -8 -6 -14 -16 -14 -21 0 -5
-9 -18 -20 -28 -11 -10 -20 -24 -20 -32 0 -7 -4 -13 -10 -13 -5 0 -38 -28 -73
-62 -35 -35 -76 -72 -91 -83 -16 -11 -34 -26 -41 -32 -8 -7 -17 -13 -22 -13
-4 0 -25 -16 -46 -35 -21 -19 -44 -35 -51 -35 -8 0 -17 -7 -20 -16 -3 -8 -10
-13 -15 -9 -5 3 -12 1 -16 -5 -3 -5 -19 -10 -35 -10 -15 0 -30 -7 -34 -15 -4
-12 3 -14 33 -11 59 6 119 42 226 135 214 187 283 269 330 395 26 70 31 113 6
54z"/>
<path d="M2474 2299 c-3 -6 -1 -16 5 -22 8 -8 11 -5 11 11 0 24 -5 28 -16 11z"/>
<path d="M1461 2240 c0 -24 15 -148 34 -275 19 -126 39 -264 45 -305 6 -41 17
-91 24 -110 18 -47 36 -146 36 -201 0 -44 54 -326 64 -337 3 -3 6 28 6 69 0
48 -3 69 -9 60 -18 -29 -35 76 -56 344 -11 148 -15 177 -54 365 -8 39 -9 35
-4 -25 3 -38 14 -112 24 -164 22 -108 24 -160 4 -84 -14 50 -24 117 -80 498
-30 214 -32 223 -34 165z"/>
<path d="M1251 2244 c0 -11 3 -14 6 -6 3 7 2 16 -1 19 -3 4 -6 -2 -5 -13z"/>
<path d="M2410 2253 c-8 -4 -43 -24 -78 -45 -35 -21 -66 -37 -70 -34 -4 2 -13
-2 -19 -9 -10 -11 -9 -15 8 -20 13 -5 33 2 57 18 58 38 119 67 142 67 12 0 35
-7 52 -16 28 -15 34 -15 69 1 47 22 70 16 137 -35 56 -43 76 -49 86 -25 3 8 2
14 -2 13 -10 -2 -62 24 -62 32 0 3 -27 19 -60 35 -59 28 -59 28 -99 11 -36
-17 -41 -17 -62 -2 -23 16 -70 20 -99 9z"/>
<path d="M1273 2205 c0 -27 2 -38 4 -22 2 15 2 37 0 50 -2 12 -4 0 -4 -28z"/>
<path d="M1236 2148 c-9 -86 -57 -317 -121 -583 -48 -201 -78 -359 -72 -384 2
-9 7 9 11 39 5 30 12 60 16 65 13 18 19 56 7 48 -6 -4 -8 0 -4 10 3 8 9 32 13
51 8 46 21 55 17 13 l-3 -32 10 29 c5 16 8 44 6 62 -1 19 1 34 6 34 4 0 8 10
8 23 0 29 78 414 91 447 10 28 15 59 25 173 4 42 5 77 2 77 -3 0 -9 -33 -12
-72z"/>
<path d="M3591 2190 c-1 -41 46 -235 88 -365 43 -131 37 -92 -13 90 -24 88
-49 185 -55 215 -6 30 -13 64 -15 75 -2 11 -4 4 -5 -15z"/>
<path d="M3510 2188 c-12 -22 -12 -22 6 -6 10 10 15 20 12 24 -4 3 -12 -5 -18
-18z"/>
<path d="M1136 2130 c-33 -244 -77 -489 -116 -640 -5 -19 -11 -51 -14 -70 -5
-30 -26 -141 -40 -205 -2 -12 -7 -48 -10 -80 -4 -45 -3 -51 3 -25 9 37 36 172
51 256 4 28 13 69 19 90 47 178 129 665 119 710 -2 11 -8 -6 -12 -36z"/>
<path d="M3791 2165 c0 -11 4 -38 8 -60 l9 -40 0 40 c0 22 -3 49 -8 60 l-9 20
0 -20z"/>
<path d="M3752 2150 c0 -14 2 -19 5 -12 2 6 2 18 0 25 -3 6 -5 1 -5 -13z"/>
<path d="M3291 2063 c-79 -178 -152 -442 -176 -638 -8 -70 -14 -130 -11 -132
5 -6 14 36 22 112 12 119 52 279 131 528 14 43 27 76 30 74 2 -3 -2 -25 -11
-50 -16 -47 -48 -228 -42 -235 5 -5 46 173 62 268 3 19 12 56 21 83 24 76 11
71 -26 -10z"/>
<path d="M3465 2109 c-4 -6 -5 -12 -2 -15 2 -3 7 2 10 11 7 17 1 20 -8 4z"/>
<path d="M2217 2103 c-12 -12 -7 -20 19 -31 17 -8 23 -9 19 -1 -4 5 1 17 11
24 18 13 17 14 -12 15 -17 0 -34 -3 -37 -7z"/>
<path d="M2314 2102 c6 -9 84 -8 93 2 4 3 -17 6 -46 6 -29 0 -50 -4 -47 -8z"/>
<path d="M2632 2098 c-7 -7 -17 -14 -22 -14 -6 -1 -11 -2 -12 -4 -9 -7 -65 -5
-75 2 -15 12 -33 2 -33 -19 0 -11 7 -14 27 -10 15 3 36 1 45 -4 12 -7 18 -6
18 2 0 6 7 8 16 5 10 -4 30 4 50 19 18 14 35 21 39 15 3 -5 12 -7 20 -4 8 4
12 10 9 15 -8 13 -68 11 -82 -3z"/>
<path d="M2745 2100 c-16 -7 -17 -9 -3 -9 36 -2 -2 -56 -68 -98 -16 -10 -14
-10 13 -3 18 4 47 24 65 44 18 20 38 36 44 36 7 0 10 8 7 20 -6 21 -25 24 -58
10z"/>
<path d="M1263 2055 c0 -27 2 -38 4 -22 2 15 2 37 0 50 -2 12 -4 0 -4 -28z"/>
<path d="M2460 2091 c0 -7 -6 -11 -13 -8 -15 6 -45 -9 -36 -17 3 -3 20 -9 37
-12 34 -7 42 6 22 36 -7 12 -10 12 -10 1z"/>
<path d="M1514 2060 c3 -19 8 -61 12 -93 3 -31 11 -60 16 -63 6 -4 8 1 4 12
-3 11 -8 45 -11 76 -3 32 -10 68 -15 80 -9 20 -10 18 -6 -12z"/>
<path d="M3191 2038 c-6 -18 -13 -53 -16 -78 -4 -43 -4 -42 9 10 7 30 16 65
20 78 4 12 5 22 2 22 -2 0 -9 -15 -15 -32z"/>
<path d="M1560 2041 c0 -6 4 -13 10 -16 6 -3 7 1 4 9 -7 18 -14 21 -14 7z"/>
<path d="M3452 1963 c-11 -37 -25 -102 -31 -143 -7 -41 -14 -84 -17 -95 -4
-15 -3 -16 4 -5 5 8 17 58 27 110 9 52 23 117 31 144 8 27 12 51 10 53 -2 2
-13 -27 -24 -64z"/>
<path d="M3492 2015 c-1 -11 -17 -103 -37 -205 -19 -102 -43 -247 -52 -323
-10 -84 -19 -133 -24 -125 -5 8 -9 -17 -11 -62 l-1 -75 -7 65 c-4 36 -7 56 -8
45 -2 -11 -9 -83 -18 -160 -8 -77 -17 -189 -18 -250 l-3 -110 7 90 c9 123 31
309 36 315 3 2 1 -41 -3 -95 -15 -183 -9 -571 10 -660 l16 -80 -5 75 c-3 41
-10 95 -16 120 -12 53 -3 369 16 575 7 77 25 210 40 295 71 421 87 530 83 556
-2 16 -4 20 -5 9z"/>
<path d="M3356 1994 c-4 -14 -5 -28 -3 -31 3 -2 8 8 11 23 4 14 5 28 3 31 -3
2 -8 -8 -11 -23z"/>
<path d="M1261 1984 c0 -11 3 -14 6 -6 3 7 2 16 -1 19 -3 4 -6 -2 -5 -13z"/>
<path d="M3408 1960 c-3 -19 -15 -78 -27 -130 -38 -162 -75 -361 -101 -540
-20 -135 -24 -177 -16 -169 3 2 14 74 26 159 12 85 37 234 57 330 19 96 39
197 44 224 4 26 13 63 19 82 6 18 10 44 8 56 -3 18 -5 15 -10 -12z"/>
<path d="M1580 1969 c0 -8 13 -86 29 -174 17 -88 35 -185 40 -215 10 -55 10
-55 5 20 -6 106 -73 440 -74 369z"/>
<path d="M1982 1950 c0 -8 4 -26 8 -40 6 -20 8 -21 8 -5 0 11 -3 29 -8 40 -5
12 -8 14 -8 5z"/>
<path d="M1257 1943 c-4 -3 -7 -25 -6 -47 l1 -41 9 44 c9 45 8 56 -4 44z"/>
<path d="M1215 1868 c-6 -43 -7 -78 -3 -78 8 0 21 98 16 131 -1 13 -8 -11 -13
-53z"/>
<path d="M3316 1884 c-30 -64 -32 -76 -11 -48 10 14 8 -1 -7 -51 -21 -72 -36
-104 -24 -50 4 17 9 38 13 49 3 11 1 16 -5 12 -5 -3 -12 -18 -15 -33 -3 -16
-24 -107 -46 -203 -54 -231 -54 -228 -41 -210 10 16 7 -34 -11 -135 -8 -49 -8
-49 -5 15 3 50 2 59 -6 40 -5 -14 -7 -52 -4 -85 4 -41 3 -55 -4 -45 -8 12 -10
11 -10 -7 0 -13 4 -23 9 -23 6 0 4 -14 -3 -32 -17 -42 -20 -215 -6 -338 16
-137 18 -151 26 -158 4 -4 4 7 1 24 -22 114 -17 406 8 524 3 14 8 43 11 65 3
22 12 86 20 143 8 57 12 108 8 113 -3 5 -1 9 3 9 5 0 9 8 10 18 1 9 8 47 17
84 9 37 13 75 9 84 -4 11 -2 15 4 11 7 -5 20 23 36 75 43 140 58 200 54 205
-3 2 -17 -21 -31 -53z m-169 -856 c-3 -8 -6 -5 -6 6 -1 11 2 17 5 13 3 -3 4
-12 1 -19z"/>
<path d="M2470 1923 c-37 -5 -63 -20 -55 -33 3 -4 22 -4 42 1 21 4 71 9 111
10 40 1 69 5 65 9 -11 10 -119 19 -163 13z"/>
<path d="M2941 1874 c0 -11 3 -14 6 -6 3 7 2 16 -1 19 -3 4 -6 -2 -5 -13z"/>
<path d="M3337 1787 c-15 -56 -27 -113 -27 -127 0 -32 -28 -122 -30 -95 l-1
20 -8 -20 c-4 -11 -13 -63 -20 -115 -6 -52 -14 -106 -17 -118 -3 -13 -1 -21 5
-18 5 4 6 -9 0 -32 -5 -20 -8 -75 -7 -122 l1 -85 8 85 c12 129 47 346 70 432
11 43 22 91 24 107 2 17 11 64 20 106 25 112 13 100 -18 -18z"/>
<path d="M1561 1870 c0 -8 4 -22 9 -30 12 -18 12 -2 0 25 -6 13 -9 15 -9 5z"/>
<path d="M3157 1873 c-4 -3 -7 -18 -6 -32 1 -26 1 -25 10 3 9 31 7 41 -4 29z"/>
<path d="M1635 1850 c71 -355 118 -645 128 -780 2 -30 4 -20 5 27 2 86 -30
344 -58 463 -11 47 -27 117 -35 155 -8 39 -22 90 -30 115 -8 25 -13 34 -10 20z"/>
<path d="M2012 1800 c0 -14 2 -19 5 -12 2 6 2 18 0 25 -3 6 -5 1 -5 -13z"/>
<path d="M1581 1784 c0 -11 3 -14 6 -6 3 7 2 16 -1 19 -3 4 -6 -2 -5 -13z"/>
<path d="M1201 1770 c-1 -8 -4 -26 -7 -40 -5 -22 -4 -23 6 -7 6 10 9 28 7 40
-2 12 -5 15 -6 7z"/>
<path d="M2021 1738 c-1 -16 4 -28 9 -28 12 0 12 8 0 35 -8 18 -9 17 -9 -7z"/>
<path d="M2886 1697 c-93 -92 -243 -178 -372 -211 -113 -29 -265 -17 -351 27
-39 21 -49 21 -33 2 43 -51 260 -82 375 -52 159 41 324 132 398 220 53 62 41
72 -17 14z"/>
<path d="M3382 1710 c0 -14 2 -19 5 -12 2 6 2 18 0 25 -3 6 -5 1 -5 -13z"/>
<path d="M3710 1714 c0 -7 7 -27 15 -45 8 -19 14 -29 15 -23 0 7 -7 27 -15 45
-8 19 -14 29 -15 23z"/>
<path d="M3227 1703 c-3 -5 -8 -30 -11 -58 -5 -50 -1 -42 14 28 8 35 6 46 -3
30z"/>
<path d="M1754 1542 c3 -79 13 -214 21 -300 8 -86 17 -186 19 -222 2 -36 2 0
0 80 -2 80 -8 190 -14 245 -5 55 -12 151 -15 214 -2 62 -7 116 -10 119 -3 4
-3 -58 -1 -136z"/>
<path d="M3376 1665 c-3 -9 -6 -24 -5 -33 0 -9 5 -4 10 12 9 32 6 48 -5 21z"/>
<path d="M1613 1615 c0 -22 2 -30 4 -17 2 12 2 30 0 40 -3 9 -5 -1 -4 -23z"/>
<path d="M3282 1610 c0 -14 2 -19 5 -12 2 6 2 18 0 25 -3 6 -5 1 -5 -13z"/>
<path d="M1501 1604 c0 -11 3 -14 6 -6 3 7 2 16 -1 19 -3 4 -6 -2 -5 -13z"/>
<path d="M1721 1604 c0 -11 3 -14 6 -6 3 7 2 16 -1 19 -3 4 -6 -2 -5 -13z"/>
<path d="M3400 1616 c0 -3 -9 -49 -21 -101 -11 -52 -17 -100 -14 -105 4 -6 1
-18 -6 -26 -10 -12 -9 -13 5 -8 9 3 16 9 16 13 0 3 7 55 15 115 8 61 12 112
10 115 -3 2 -5 1 -5 -3z m-23 -188 c-3 -8 -6 -5 -6 6 -1 11 2 17 5 13 3 -3 4
-12 1 -19z"/>
<path d="M3356 1593 c-3 -10 -17 -90 -31 -178 -68 -435 -72 -497 -45 -635 l19
-95 -7 100 c-4 55 -6 134 -5 175 3 102 39 401 65 533 11 59 18 110 15 113 -3
3 -8 -3 -11 -13z"/>
<path d="M3462 1590 c0 -14 2 -19 5 -12 2 6 2 18 0 25 -3 6 -5 1 -5 -13z"/>
<path d="M3547 1570 c3 -14 12 -41 20 -60 11 -30 12 -31 8 -6 -4 16 -13 43
-20 60 -11 23 -13 25 -8 6z"/>
<path d="M1510 1559 c0 -13 5 -31 10 -39 7 -11 8 -5 4 20 -8 43 -14 51 -14 19z"/>
<path d="M3900 1575 c0 -5 5 -17 10 -25 5 -8 10 -10 10 -5 0 6 -5 17 -10 25
-5 8 -10 11 -10 5z"/>
<path d="M1615 1560 c-3 -5 -1 -18 4 -27 9 -16 10 -14 11 10 0 28 -5 34 -15
17z"/>
<path d="M3431 1399 c-17 -124 -22 -199 -20 -292 2 -69 7 -123 11 -121 3 2 11
-8 16 -23 9 -25 11 -25 11 -6 1 12 -3 25 -9 28 -16 10 -12 297 6 423 8 62 14
123 12 135 -2 12 -14 -53 -27 -144z"/>
<path d="M2683 1512 c-45 -20 -81 -38 -79 -40 6 -5 155 58 162 69 3 5 4 9 2 8
-2 -1 -40 -17 -85 -37z"/>
<path d="M1792 1515 c0 -16 2 -22 5 -12 2 9 2 23 0 30 -3 6 -5 -1 -5 -18z"/>
<path d="M3191 1524 c0 -11 3 -14 6 -6 3 7 2 16 -1 19 -3 4 -6 -2 -5 -13z"/>
<path d="M1742 1510 c0 -14 2 -19 5 -12 2 6 2 18 0 25 -3 6 -5 1 -5 -13z"/>
<path d="M1622 1480 c0 -19 2 -27 5 -17 2 9 2 25 0 35 -3 9 -5 1 -5 -18z"/>
<path d="M1186 1465 c-9 -26 -7 -32 5 -12 6 10 9 21 6 23 -2 3 -7 -2 -11 -11z"/>
<path d="M1651 1460 c-1 -35 36 -261 45 -269 4 -3 4 17 0 44 -4 28 -9 68 -12
89 -9 69 -32 162 -33 136z"/>
<path d="M1797 1438 c8 -59 13 -61 13 -5 0 26 -4 47 -9 47 -5 0 -7 -19 -4 -42z"/>
<path d="M1561 1444 c0 -11 3 -14 6 -6 3 7 2 16 -1 19 -3 4 -6 -2 -5 -13z"/>
<path d="M1572 1395 c0 -16 2 -22 5 -12 2 9 2 23 0 30 -3 6 -5 -1 -5 -18z"/>
<path d="M1635 1335 c5 -108 15 -181 25 -166 3 6 1 57 -7 114 -18 143 -22 156
-18 52z"/>
<path d="M1151 1394 c0 -11 3 -14 6 -6 3 7 2 16 -1 19 -3 4 -6 -2 -5 -13z"/>
<path d="M1800 1355 c0 -14 4 -25 9 -25 4 0 6 11 3 25 -2 14 -6 25 -8 25 -2 0
-4 -11 -4 -25z"/>
<path d="M3960 1353 c0 -6 8 -17 18 -24 16 -13 16 -13 2 6 -8 11 -16 22 -17
24 -2 2 -3 0 -3 -6z"/>
<path d="M2819 1306 c-52 -35 -207 -85 -305 -98 -107 -14 -103 -33 5 -25 122
10 224 41 292 88 53 38 72 59 51 59 -4 0 -23 -11 -43 -24z"/>
<path d="M1577 1268 c13 -102 41 -251 42 -223 1 35 -34 253 -42 261 -3 3 -3
-14 0 -38z"/>
<path d="M1813 1255 c0 -33 2 -45 4 -27 2 18 2 45 0 60 -2 15 -4 0 -4 -33z"/>
<path d="M3986 1297 c3 -10 9 -15 12 -12 3 3 0 11 -7 18 -10 9 -11 8 -5 -6z"/>
<path d="M1090 1280 c0 -5 5 -10 11 -10 5 0 7 5 4 10 -3 6 -8 10 -11 10 -2 0
-4 -4 -4 -10z"/>
<path d="M2865 1269 c-128 -86 -415 -189 -531 -189 -19 0 -34 -4 -34 -10 0 -6
30 -8 74 -6 127 7 453 132 511 196 26 28 15 33 -20 9z"/>
<path d="M4009 1256 c13 -16 51 -41 51 -33 0 2 -15 14 -32 27 -21 15 -28 17
-19 6z"/>
<path d="M1116 1245 c-9 -26 -7 -32 5 -12 6 10 9 21 6 23 -2 3 -7 -2 -11 -11z"/>
<path d="M1081 1224 c0 -11 3 -14 6 -6 3 7 2 16 -1 19 -3 4 -6 -2 -5 -13z"/>
<path d="M3113 1185 c0 -27 2 -38 4 -22 2 15 2 37 0 50 -2 12 -4 0 -4 -28z"/>
<path d="M4135 1210 c3 -5 11 -10 16 -10 6 0 7 5 4 10 -3 6 -11 10 -16 10 -6
0 -7 -4 -4 -10z"/>
<path d="M3788 1203 c7 -3 16 -2 19 1 4 3 -2 6 -13 5 -11 0 -14 -3 -6 -6z"/>
<path d="M3865 1183 c-44 -13 -93 -28 -110 -32 -50 -13 -155 -70 -155 -85 0
-8 -7 -17 -16 -20 -9 -4 -14 -9 -11 -12 3 -4 18 3 33 15 14 11 30 18 35 15 5
-3 22 4 37 15 54 38 246 110 332 124 14 2 5 5 -20 5 -25 0 -81 -11 -125 -25z"/>
<path d="M3651 1179 c-33 -31 -19 -34 36 -5 46 24 47 25 17 26 -17 0 -40 -9
-53 -21z"/>
<path d="M3586 1174 c-15 -14 -14 -34 1 -34 4 0 4 3 0 6 -3 4 4 15 16 25 12
10 17 18 10 19 -6 0 -19 -7 -27 -16z"/>
<path d="M4048 1180 c-20 -4 -43 -12 -50 -17 -7 -6 -35 -23 -63 -37 -27 -14
-44 -26 -37 -26 7 0 39 14 72 30 33 17 77 34 97 38 48 10 30 21 -19 12z"/>
<path d="M4238 1183 c7 -3 16 -2 19 1 4 3 -2 6 -13 5 -11 0 -14 -3 -6 -6z"/>
<path d="M996 1140 c-5 -33 -3 -53 8 -74 11 -22 12 -33 4 -43 -6 -8 -8 -16 -4
-20 3 -3 6 -1 6 6 0 8 7 10 20 6 24 -8 26 2 3 27 -9 10 -19 45 -23 80 l-6 63
-8 -45z"/>
<path d="M3531 1164 c0 -11 3 -14 6 -6 3 7 2 16 -1 19 -3 4 -6 -2 -5 -13z"/>
<path d="M1066 1139 c-19 -38 -20 -42 -5 -34 12 8 32 56 25 62 -2 2 -11 -10
-20 -28z"/>
<path d="M2771 1109 c-73 -27 -166 -59 -207 -71 -41 -11 -74 -25 -74 -30 0 -8
14 -6 75 9 110 26 345 118 345 134 0 5 -1 9 -2 8 -2 0 -63 -22 -137 -50z"/>
<path d="M3214 1035 c0 -55 1 -76 3 -47 2 29 2 74 0 100 -2 26 -3 2 -3 -53z"/>
<path d="M3525 1120 c-3 -5 -2 -10 4 -10 5 0 13 5 16 10 3 6 2 10 -4 10 -5 0
-13 -4 -16 -10z"/>
<path d="M2818 1080 c-123 -63 -218 -91 -361 -105 -70 -7 -131 -16 -135 -20
-14 -14 241 7 312 26 76 21 247 101 266 125 19 22 2 16 -82 -26z"/>
<path d="M3121 1094 c0 -11 3 -14 6 -6 3 7 2 16 -1 19 -3 4 -6 -2 -5 -13z"/>
<path d="M3251 1094 c0 -11 3 -14 6 -6 3 7 2 16 -1 19 -3 4 -6 -2 -5 -13z"/>
<path d="M3830 1070 c-8 -5 -10 -10 -5 -10 6 0 17 5 25 10 8 5 11 10 5 10 -5
0 -17 -5 -25 -10z"/>
<path d="M982 1050 c0 -14 2 -19 5 -12 2 6 2 18 0 25 -3 6 -5 1 -5 -13z"/>
<path d="M3240 1000 c0 -40 3 -70 7 -67 7 7 5 129 -3 136 -2 2 -4 -29 -4 -69z"/>
<path d="M940 1031 c0 -35 -3 -37 -92 -73 -139 -56 -293 -180 -354 -283 -70
-118 -85 -191 -89 -460 l-3 -220 8 197 c16 369 58 483 228 624 71 59 219 139
277 150 34 6 35 8 35 50 0 24 -2 44 -5 44 -3 0 -5 -13 -5 -29z"/>
<path d="M981 1004 c0 -11 3 -14 6 -6 3 7 2 16 -1 19 -3 4 -6 -2 -5 -13z"/>
<path d="M4470 1016 c0 -4 11 -18 25 -32 14 -14 25 -21 25 -16 0 5 -11 19 -25
32 -14 13 -25 20 -25 16z"/>
<path d="M3182 985 c0 -16 2 -22 5 -12 2 9 2 23 0 30 -3 6 -5 -1 -5 -18z"/>
<path d="M2705 970 c3 -6 -2 -10 -13 -10 -10 0 -41 -12 -68 -27 -44 -24 -62
-27 -177 -31 -70 -2 -125 -7 -122 -10 15 -16 161 -22 230 -10 40 7 160 62 170
78 3 4 -2 11 -11 14 -8 3 -12 2 -9 -4z"/>
<path d="M3383 915 c0 -27 2 -38 4 -22 2 15 2 37 0 50 -2 12 -4 0 -4 -28z"/>
<path d="M3422 925 c0 -16 2 -22 5 -12 2 9 2 23 0 30 -3 6 -5 -1 -5 -18z"/>
<path d="M3441 904 c0 -11 3 -14 6 -6 3 7 2 16 -1 19 -3 4 -6 -2 -5 -13z"/>
<path d="M3234 860 c4 -30 11 -89 16 -130 11 -91 48 -263 66 -305 17 -40 17
-36 -7 75 -11 52 -26 136 -34 185 -25 167 -34 218 -41 224 -4 3 -4 -19 0 -49z"/>
<path d="M3452 855 c0 -16 4 -41 8 -55 l8 -25 0 25 c0 14 -4 39 -8 55 l-8 30
0 -30z"/>
<path d="M1349 777 c-14 -23 -43 -69 -63 -102 -26 -42 -29 -51 -11 -30 14 17
44 61 66 99 43 74 50 102 8 33z"/>
<path d="M2925 798 c-16 -6 -46 -17 -65 -26 -34 -14 -46 -19 -72 -25 -24 -6
-93 -41 -107 -55 -18 -18 -8 -26 17 -13 11 6 22 7 26 4 3 -3 6 -2 6 4 0 14 47
33 88 36 17 1 32 6 32 11 0 4 7 6 15 2 8 -3 15 -1 15 4 0 5 7 7 15 4 11 -4 15
1 16 17 1 18 3 19 6 6 2 -9 9 -15 14 -11 5 3 7 10 4 15 -4 5 -1 9 4 9 6 0 11
-7 11 -17 0 -22 6 -14 14 20 7 30 5 30 -39 15z"/>
<path d="M3212 775 c0 -16 2 -22 5 -12 2 9 2 23 0 30 -3 6 -5 -1 -5 -18z"/>
<path d="M3323 750 c0 -25 2 -35 4 -22 2 12 2 32 0 45 -2 12 -4 2 -4 -23z"/>
<path d="M3182 730 c0 -14 2 -19 5 -12 2 6 2 18 0 25 -3 6 -5 1 -5 -13z"/>
<path d="M3461 748 c-1 -7 36 -115 65 -190 10 -27 22 -48 27 -48 10 0 9 4 -28
109 -14 41 -30 80 -35 87 -6 6 -8 20 -4 30 4 14 3 16 -4 5 -8 -11 -10 -11 -15
0 -3 8 -6 11 -6 7z"/>
<path d="M1375 622 c-37 -56 -48 -78 -30 -62 14 13 36 40 48 60 11 19 23 37
26 40 19 17 31 39 23 44 -5 3 -35 -34 -67 -82z"/>
<path d="M1334 673 c-10 -15 -22 -35 -28 -43 -6 -8 0 -6 13 5 26 22 45 54 38
62 -3 2 -13 -8 -23 -24z"/>
<path d="M3191 684 c0 -11 3 -14 6 -6 3 7 2 16 -1 19 -3 4 -6 -2 -5 -13z"/>
<path d="M3322 670 c0 -14 2 -19 5 -12 2 6 2 18 0 25 -3 6 -5 1 -5 -13z"/>
<path d="M4661 674 c0 -11 3 -14 6 -6 3 7 2 16 -1 19 -3 4 -6 -2 -5 -13z"/>
<path d="M1541 624 c-12 -19 -21 -37 -21 -39 0 -6 -119 -177 -144 -205 l-21
-25 29 25 c55 49 149 184 175 253 14 37 7 34 -18 -9z"/>
<path d="M4676 600 c17 -175 24 -293 24 -437 0 -90 4 -163 8 -163 11 0 11 22
0 279 -5 129 -16 267 -24 305 -12 64 -13 66 -8 16z"/>
<path d="M1340 620 c-6 -11 -8 -20 -6 -20 3 0 10 9 16 20 6 11 8 20 6 20 -3 0
-10 -9 -16 -20z"/>
<path d="M3222 610 c0 -19 2 -27 5 -17 2 9 2 25 0 35 -3 9 -5 1 -5 -18z"/>
<path d="M3310 632 c0 -16 29 -179 39 -222 7 -27 9 -29 9 -10 1 38 -32 227
-41 236 -4 4 -7 2 -7 -4z"/>
<path d="M1457 558 c-20 -29 -48 -68 -63 -85 -15 -18 -21 -33 -15 -33 6 0 11
3 11 8 0 4 18 30 41 57 37 45 75 105 66 105 -2 0 -20 -24 -40 -52z"/>
<path d="M3561 594 c0 -11 3 -14 6 -6 3 7 2 16 -1 19 -3 4 -6 -2 -5 -13z"/>
<path d="M1213 578 c-11 -13 -47 -59 -79 -103 -32 -44 -60 -82 -63 -85 -3 -3
-13 -14 -20 -25 -8 -11 6 0 32 25 27 25 67 74 90 110 23 36 47 71 54 78 13 13
16 22 10 22 -2 0 -13 -10 -24 -22z"/>
<path d="M3392 560 c0 -14 2 -19 5 -12 2 6 2 18 0 25 -3 6 -5 1 -5 -13z"/>
<path d="M3599 495 c43 -118 63 -166 68 -161 5 5 -76 217 -89 231 -4 5 5 -26
21 -70z"/>
<path d="M3151 544 c0 -11 3 -14 6 -6 3 7 2 16 -1 19 -3 4 -6 -2 -5 -13z"/>
<path d="M3022 520 c0 -14 2 -19 5 -12 2 6 2 18 0 25 -3 6 -5 1 -5 -13z"/>
<path d="M3402 505 c0 -16 2 -22 5 -12 2 9 2 23 0 30 -3 6 -5 -1 -5 -18z"/>
<path d="M3480 504 c0 -10 5 -26 10 -34 8 -11 9 -7 4 15 -8 37 -14 45 -14 19z"/>
<path d="M3251 484 c0 -11 3 -14 6 -6 3 7 2 16 -1 19 -3 4 -6 -2 -5 -13z"/>
<path d="M3556 478 c3 -13 15 -40 25 -60 11 -21 19 -44 19 -53 0 -8 4 -15 8
-15 5 0 9 -7 9 -15 0 -17 44 -107 50 -101 7 6 -100 266 -109 266 -5 0 -6 -10
-2 -22z"/>
<path d="M3261 450 c0 -8 4 -22 9 -30 12 -18 12 -2 0 25 -6 13 -9 15 -9 5z"/>
<path d="M3400 446 c0 -8 4 -17 9 -20 5 -4 7 3 4 14 -6 23 -13 26 -13 6z"/>
<path d="M3536 447 c3 -10 9 -15 12 -12 3 3 0 11 -7 18 -10 9 -11 8 -5 -6z"/>
<path d="M4148 443 c-62 -73 -208 -380 -208 -437 0 -19 17 9 35 59 19 55 75
163 154 298 28 48 51 90 51 92 0 11 -18 4 -32 -12z"/>
<path d="M3014 359 c2 -52 8 -104 15 -115 10 -16 11 -13 5 21 -4 22 -11 74
-15 115 l-7 75 2 -96z"/>
<path d="M3480 421 c4 -15 14 -39 21 -52 7 -13 12 -28 11 -32 -1 -4 7 -27 18
-52 11 -24 20 -47 20 -50 0 -19 104 -238 108 -227 2 6 -8 32 -22 59 -30 60
-96 226 -96 242 0 6 -4 11 -9 11 -6 0 -9 8 -9 18 1 17 -38 112 -47 112 -2 0 0
-13 5 -29z"/>
<path d="M1097 372 c-15 -15 -27 -33 -27 -39 0 -6 -7 -16 -15 -23 -8 -7 -15
-18 -15 -24 0 -13 49 42 74 84 21 37 17 38 -17 2z"/>
<path d="M3281 390 c0 -8 4 -22 9 -30 12 -18 12 -2 0 25 -6 13 -9 15 -9 5z"/>
<path d="M3052 360 c0 -14 2 -19 5 -12 2 6 2 18 0 25 -3 6 -5 1 -5 -13z"/>
<path d="M3380 359 c0 -14 7 -34 16 -45 8 -10 13 -14 10 -8 -3 6 -7 23 -10 38
-7 37 -16 46 -16 15z"/>
<path d="M3736 364 c-8 -20 -3 -27 18 -22 12 2 13 6 2 21 -13 16 -14 16 -20 1z"/>
<path d="M3570 363 c0 -4 5 -15 10 -23 8 -13 10 -13 10 2 0 9 -4 20 -10 23 -5
3 -10 3 -10 -2z"/>
<path d="M3430 344 c0 -21 22 -74 31 -74 9 0 3 19 -18 60 -7 14 -13 20 -13 14z"/>
<path d="M3351 330 c0 -8 4 -24 9 -35 l9 -20 0 20 c0 11 -4 27 -9 35 -9 13
-10 13 -9 0z"/>
<path d="M3710 323 c0 -7 5 -13 10 -13 6 0 8 -10 5 -22 -3 -13 3 -40 14 -62
11 -21 28 -73 38 -115 17 -71 18 -74 21 -36 3 34 -4 85 -24 180 -3 11 -5 32
-6 47 -1 21 -7 27 -29 30 -20 3 -29 0 -29 -9z"/>
<path d="M3591 315 c0 -5 8 -26 19 -45 11 -19 19 -30 19 -25 0 6 -8 26 -19 45
-11 19 -19 31 -19 25z"/>
<path d="M3897 273 c-16 -31 -31 -107 -42 -211 -10 -102 11 -64 25 45 7 54 19
118 26 143 16 52 11 63 -9 23z"/>
<path d="M3077 230 c3 -25 10 -56 14 -70 6 -22 7 -21 7 10 0 19 -6 51 -13 70
l-14 35 6 -45z"/>
<path d="M3514 235 c4 -16 12 -34 17 -40 5 -5 4 6 -2 25 -15 45 -24 54 -15 15z"/>
<path d="M3480 227 c0 -7 7 -22 15 -33 13 -17 14 -16 4 14 -11 33 -19 41 -19
19z"/>
<path d="M3191 225 c-2 -46 73 -215 100 -224 7 -2 -2 22 -20 55 -19 32 -44 85
-57 118 -13 34 -23 57 -23 51z"/>
<path d="M3040 205 c0 -11 5 -27 10 -35 8 -12 10 -12 10 5 0 11 -5 27 -10 35
-8 12 -10 12 -10 -5z"/>
<path d="M3630 207 c0 -8 7 -17 15 -21 8 -3 15 -2 15 3 0 5 -7 14 -15 21 -12
10 -15 10 -15 -3z"/>
<path d="M3626 133 c19 -43 39 -82 45 -87 5 -6 9 -18 9 -28 0 -10 4 -18 10
-18 6 0 6 9 0 24 -14 38 -90 186 -95 186 -2 0 11 -35 31 -77z"/>
<path d="M800 198 c0 -18 43 -188 47 -188 8 0 -5 97 -19 140 -9 32 -28 63 -28
48z"/>
<path d="M3151 174 c0 -11 3 -14 6 -6 3 7 2 16 -1 19 -3 4 -6 -2 -5 -13z"/>
<path d="M4080 138 c-11 -21 -17 -38 -14 -38 4 0 1 -7 -6 -15 -7 -9 -11 -18
-8 -20 4 -5 78 96 78 107 0 2 -7 5 -15 5 -8 0 -24 -18 -35 -39z"/>
<path d="M3541 165 c1 -19 18 -51 18 -35 0 8 -4 22 -9 30 -5 8 -9 11 -9 5z"/>
<path d="M3121 145 c0 -11 4 -27 9 -35 9 -13 10 -13 9 0 0 8 -4 24 -9 35 l-9
20 0 -20z"/>
<path d="M4156 83 c-36 -43 -61 -80 -55 -82 14 -4 53 33 97 94 20 28 41 53 47
57 6 5 3 8 -6 8 -9 0 -46 -35 -83 -77z"/>
<path d="M3061 125 c1 -19 18 -51 18 -35 0 8 -4 22 -9 30 -5 8 -9 11 -9 5z"/>
<path d="M3101 108 c-1 -16 4 -28 9 -28 12 0 12 8 0 35 -8 18 -9 17 -9 -7z"/>
<path d="M1389 73 c-18 -27 -24 -40 -13 -31 20 17 59 78 50 78 -3 0 -20 -21
-37 -47z"/>
<path d="M3209 60 c12 -30 21 -56 21 -57 0 -2 4 -3 10 -3 5 0 -1 23 -14 51
-33 70 -42 75 -17 9z"/>
<path d="M2990 47 c0 -20 4 -38 9 -42 6 -3 7 10 4 32 -8 50 -13 55 -13 10z"/>
<path d="M710 65 c0 -18 33 -65 45 -65 11 0 10 7 -6 35 -18 30 -39 46 -39 30z"/>
<path d="M3085 55 c4 -11 10 -28 12 -37 3 -10 9 -18 14 -18 5 0 3 12 -3 28
-14 33 -35 57 -23 27z"/>
<path d="M1442 30 c-13 -16 -19 -30 -14 -30 4 0 16 14 25 30 10 17 16 30 14
30 -2 0 -13 -13 -25 -30z"/>
<path d="M3306 47 c3 -10 9 -15 12 -12 3 3 0 11 -7 18 -10 9 -11 8 -5 -6z"/>
<path d="M3050 10 c0 -5 5 -10 11 -10 5 0 7 5 4 10 -3 6 -8 10 -11 10 -2 0 -4
-4 -4 -10z"/>
</g>
</svg>
