<?xml version="1.0" standalone="no"?>
<!DOCTYPE svg PUBLIC "-//W3C//DTD SVG 20010904//EN"
 "http://www.w3.org/TR/2001/REC-SVG-20010904/DTD/svg10.dtd">
<svg version="1.0" xmlns="http://www.w3.org/2000/svg"
 width="512.000000pt" height="512.000000pt" viewBox="0 0 512.000000 512.000000"
 preserveAspectRatio="xMidYMid meet">
<metadata>
Created by potrace 1.16, written by Peter Selinger 2001-2019
</metadata>
<g transform="translate(0.000000,512.000000) scale(0.100000,-0.100000)"
fill="#000000" stroke="none">
<path d="M2373 4873 c-30 -4 -33 -8 -33 -37 l0 -33 176 2 c97 1 194 -1 215 -5
l39 -7 0 43 0 44 -182 -2 c-101 0 -198 -3 -215 -5z m375 -34 c3 -15 -17 -16
-189 -15 -127 1 -194 5 -196 12 -2 6 17 11 49 13 29 1 55 4 57 7 3 2 66 3 140
2 116 -3 136 -5 139 -19z"/>
<path d="M2680 4797 c0 -3 7 -21 15 -40 8 -20 16 -56 17 -81 0 -25 4 -43 8
-41 11 7 5 95 -8 127 -9 22 -32 47 -32 35z"/>
<path d="M2381 4728 c-19 -109 -18 -122 5 -132 11 -5 31 -27 43 -48 14 -24 36
-45 57 -54 l34 -14 0 -285 0 -285 -59 0 c-154 0 -464 -99 -536 -172 -14 -13
-3 -10 33 11 29 17 56 31 61 31 4 0 27 10 51 21 63 31 139 56 191 63 30 4 13
-4 -56 -27 -55 -18 -144 -54 -199 -80 -54 -26 -103 -47 -107 -47 -5 0 -35 -17
-66 -37 -51 -34 -54 -38 -32 -43 14 -4 33 -22 47 -45 43 -75 39 -72 54 -54 17
22 120 90 185 122 58 30 242 83 318 92 28 3 64 8 80 10 l30 5 -1 71 c-1 53 2
69 11 65 20 -7 23 39 22 291 -1 128 1 229 5 225 4 -4 8 -113 9 -242 1 -226 9
-293 30 -259 13 20 12 492 -1 484 -6 -4 -10 11 -10 38 0 41 2 45 28 50 36 7
78 49 94 94 10 27 17 33 33 29 11 -2 64 -8 118 -11 53 -4 99 -10 101 -14 3 -4
-28 -3 -67 1 -40 4 -92 6 -117 6 -25 0 5 -7 65 -14 61 -7 126 -10 145 -7 86
12 347 -101 527 -229 61 -43 90 -58 116 -58 51 0 96 36 119 95 10 28 26 55 34
62 14 10 6 19 -48 58 -34 26 -79 55 -99 66 l-36 18 -33 -34 -33 -34 -32 24
c-36 28 -197 105 -295 142 -36 14 -72 30 -80 38 -8 7 -24 15 -35 19 -22 6 -48
-25 -85 -102 -25 -52 -38 -53 -37 -4 1 53 -36 130 -68 142 -31 12 -109 12
-145 0 -15 -5 -18 -8 -8 -9 9 -1 25 -4 35 -7 15 -5 15 -4 3 5 -8 6 -10 11 -4
11 6 0 14 -3 18 -7 4 -4 25 -6 47 -4 33 2 44 -2 68 -28 26 -28 60 -118 40
-105 -5 3 -9 10 -9 15 0 11 -40 70 -55 81 -5 4 -20 8 -32 8 -20 0 -23 -5 -23
-39 0 -27 5 -41 16 -45 25 -10 29 1 9 24 -17 19 -15 50 4 50 15 0 31 -34 31
-65 0 -22 3 -25 22 -20 16 6 20 4 15 -8 -3 -9 -1 -18 6 -21 7 -4 -10 -4 -38
-1 -27 3 -82 8 -121 11 l-70 7 -18 -47 c-19 -49 -36 -63 -100 -83 -34 -10 -44
-9 -81 9 -44 22 -95 91 -76 103 6 3 8 12 5 19 -9 24 15 92 42 120 25 25 62 37
49 16 -3 -5 -1 -10 4 -10 6 0 11 4 11 10 0 19 74 8 93 -14 10 -11 15 -14 11
-6 -6 12 -4 12 10 -1 18 -17 21 -37 11 -84 -16 -74 -44 -107 -92 -110 -48 -3
-71 4 -77 24 -2 9 -4 5 -3 -9 4 -52 110 -52 149 0 10 14 25 53 34 87 14 56 14
64 0 92 -21 39 -74 56 -149 47 -48 -6 -59 -12 -82 -42 -18 -24 -28 -52 -32
-89 -3 -30 -10 -55 -16 -55 -10 0 -3 116 9 167 4 12 2 23 -4 23 -5 0 -15 -28
-21 -62z m702 -25 c-16 -44 -83 -123 -83 -98 0 11 53 91 68 103 21 16 23 15
15 -5z m212 -85 c39 -19 105 -53 148 -76 42 -23 82 -42 88 -42 6 0 22 9 36 20
14 11 32 20 40 20 25 0 122 -74 128 -97 7 -31 -27 -103 -49 -103 -4 0 -14 -7
-22 -15 -17 -17 -61 -20 -84 -5 -12 8 -9 10 13 10 65 0 110 53 93 108 -9 28
-76 56 -76 32 0 -5 8 -10 18 -10 10 0 23 -5 30 -12 17 -17 15 -67 -4 -85 -20
-20 -81 -19 -104 2 -9 8 -20 15 -23 15 -4 0 -26 12 -50 27 -38 25 -110 62
-122 63 -3 0 -12 0 -21 0 -8 0 -13 4 -10 8 3 5 -15 14 -40 20 -29 8 -43 16
-38 24 4 6 3 8 -4 4 -6 -3 -21 -2 -34 3 -13 5 -58 19 -100 32 -43 13 -78 28
-78 32 0 5 21 7 46 5 43 -3 46 -1 59 29 12 27 11 34 -1 44 -12 9 -14 5 -14
-25 0 -30 -4 -36 -20 -36 -28 0 -36 27 -16 49 9 10 16 23 16 29 0 14 90 -18
195 -70z m-735 -168 c0 -11 -4 -20 -8 -20 -4 0 -8 9 -9 20 -1 11 2 20 8 20 5
0 9 -9 9 -20z m910 -60 c26 -23 18 -19 -42 19 -21 12 -38 25 -38 27 0 7 53
-24 80 -46z m-1103 -516 c-3 -3 -12 -4 -19 -1 -8 3 -5 6 6 6 11 1 17 -2 13 -5z
m126 -24 c5 -4 7 -23 5 -41 -3 -30 -7 -34 -33 -37 -26 -2 -61 -8 -170 -28
-105 -19 -252 -83 -360 -157 -22 -15 -43 -27 -46 -27 -15 0 -49 72 -40 84 5 6
58 36 118 66 59 30 110 58 111 63 2 4 11 7 20 7 8 0 50 11 91 25 42 14 94 32
116 39 22 7 55 12 73 10 20 -1 30 1 26 8 -7 12 76 1 89 -12z"/>
<path d="M3095 4660 c-3 -5 -1 -10 4 -10 6 0 11 5 11 10 0 6 -2 10 -4 10 -3 0
-8 -4 -11 -10z"/>
<path d="M3171 4639 c5 -23 -11 -59 -27 -59 -20 0 -17 -20 4 -21 9 0 27 -2 40
-5 14 -2 21 0 17 6 -3 5 -12 10 -19 10 -9 0 -12 9 -8 25 5 30 1 29 45 10 51
-21 80 -18 34 4 -20 9 -35 20 -32 23 3 2 -1 5 -7 5 -7 0 -21 4 -31 8 -13 6
-18 4 -16 -6z"/>
<path d="M3296 4545 c-8 -22 -8 -25 4 -25 6 0 9 6 8 13 -3 11 1 12 36 9 8 -1
17 -10 20 -19 3 -11 4 -7 3 7 -2 20 -8 26 -33 28 -22 2 -33 -2 -38 -13z"/>
<path d="M3407 4524 c-12 -13 -7 -20 13 -20 11 0 19 5 17 10 -4 13 -21 18 -30
10z"/>
<path d="M3568 4463 c7 -3 16 -2 19 1 4 3 -2 6 -13 5 -11 0 -14 -3 -6 -6z"/>
<path d="M2227 4768 c-57 -12 -71 -29 -91 -117 -8 -35 -19 -67 -23 -71 -4 -3
-35 -14 -68 -24 -33 -10 -102 -36 -154 -57 -52 -22 -96 -37 -98 -35 -2 2 35
24 84 47 48 24 90 45 92 47 2 1 1 5 -2 9 -4 3 -17 1 -30 -4 -12 -6 -51 -25
-86 -42 -36 -17 -72 -29 -82 -26 -13 5 -16 1 -12 -14 4 -15 -6 -24 -49 -46
-29 -15 -60 -33 -69 -41 -8 -8 -20 -14 -25 -14 -6 0 -20 -9 -32 -21 l-23 -20
7 25 c4 17 2 26 -6 26 -6 0 -9 -4 -5 -9 3 -5 -2 -17 -11 -25 -10 -11 -11 -16
-3 -16 7 0 10 -2 8 -4 -2 -3 -25 0 -51 5 -40 9 -48 14 -53 39 -11 48 12 75 62
73 7 -1 10 3 7 8 -10 16 -54 9 -75 -12 -15 -15 -19 -29 -16 -56 7 -50 30 -69
86 -72 8 -1 11 -4 7 -8 -11 -11 -67 -12 -60 -2 3 5 -2 9 -10 9 -9 0 -16 5 -16
12 0 6 -3 8 -7 5 -9 -10 -32 25 -33 50 0 12 -4 24 -10 28 -18 11 5 43 65 90
57 44 61 45 75 28 8 -10 23 -24 33 -32 15 -12 17 -12 12 0 -4 11 18 26 75 54
96 47 117 43 24 -5 -41 -21 -63 -38 -60 -46 3 -7 1 -16 -4 -19 -6 -4 -10 -12
-9 -18 0 -9 2 -9 6 1 2 6 10 12 16 12 6 0 18 6 26 14 9 7 50 30 91 51 41 21
92 46 113 57 20 11 37 17 37 14 0 -3 14 0 30 5 30 11 41 29 18 29 -16 0 -139
-50 -163 -66 -25 -18 -32 -18 -32 0 0 14 55 39 209 96 45 16 62 19 78 10 11
-6 20 -15 20 -20 0 -19 2 -25 12 -37 6 -7 15 -10 21 -6 6 3 7 1 3 -5 -4 -7 -1
-12 6 -12 9 0 9 -3 -2 -10 -12 -8 -11 -10 8 -10 12 0 22 5 22 10 0 15 -92 125
-102 122 -49 -15 -219 -86 -322 -135 l-128 -61 -23 28 c-26 33 -17 36 -138
-56 -56 -42 -82 -68 -70 -68 25 0 43 -19 43 -44 0 -59 82 -125 137 -111 13 3
50 27 81 52 62 51 203 121 355 177 115 43 154 51 310 67 64 6 117 15 117 20 0
5 -19 7 -42 4 -33 -4 -37 -3 -18 4 21 8 18 9 -21 10 -26 1 -63 -6 -82 -14 -20
-8 -43 -15 -52 -15 -22 0 -19 17 4 25 12 3 21 17 23 32 2 15 8 28 14 30 14 5
14 -30 0 -39 -6 -5 -7 -8 -1 -8 6 1 19 7 29 15 19 14 19 15 1 35 -25 27 -30
26 -61 -17 -21 -31 -24 -33 -19 -13 4 14 15 41 24 60 20 40 64 58 143 59 26 1
50 6 53 11 8 13 -73 11 -138 -2z m41 -185 c-10 -2 -26 -2 -35 0 -10 3 -2 5 17
5 19 0 27 -2 18 -5z m-61 -9 c-3 -3 -12 -4 -19 -1 -8 3 -5 6 6 6 11 1 17 -2
13 -5z m-531 -39 c-32 -20 -60 -34 -63 -32 -5 5 97 66 112 66 6 1 -16 -15 -49
-34z"/>
<path d="M2759 4725 c-11 -11 4 -56 21 -65 20 -11 30 -4 30 19 0 14 -2 14 -10
1 -10 -16 -23 -8 -26 15 -3 22 14 29 33 13 14 -11 16 -11 11 2 -5 15 -49 26
-59 15z"/>
<path d="M2214 4708 c-4 -6 -3 -8 4 -4 5 3 12 1 14 -6 3 -8 7 -6 11 5 7 20
-17 24 -29 5z"/>
<path d="M2265 4710 c-12 -20 6 -50 30 -50 25 0 51 33 40 50 -8 13 -62 13 -70
0z m55 -21 c0 -12 -29 -24 -37 -16 -3 4 -3 13 0 21 6 16 37 11 37 -5z"/>
<path d="M1962 4662 c-7 -5 -10 -16 -6 -26 5 -13 9 -14 20 -5 18 14 44 4 44
-17 0 -11 -6 -15 -20 -11 -15 4 -20 0 -20 -15 0 -17 4 -19 28 -13 42 10 46 20
25 57 -19 33 -47 45 -71 30z"/>
<path d="M2280 4638 c0 -11 38 -10 44 1 3 5 -5 8 -19 7 -14 0 -25 -4 -25 -8z"/>
<path d="M2460 4631 c0 -6 5 -13 10 -16 6 -3 10 1 10 9 0 9 -4 16 -10 16 -5 0
-10 -4 -10 -9z"/>
<path d="M3420 4596 c0 -2 7 -7 16 -10 8 -3 12 -2 9 4 -6 10 -25 14 -25 6z"/>
<path d="M3490 4560 c19 -11 40 -19 45 -19 6 0 -6 8 -25 19 -19 11 -39 19 -45
19 -5 0 6 -8 25 -19z"/>
<path d="M2387 4563 c-15 -25 62 -133 94 -133 17 0 9 15 -13 25 -13 6 -34 34
-49 63 -15 30 -29 50 -32 45z"/>
<path d="M2715 4533 c-8 -38 -24 -57 -63 -77 -19 -10 -32 -20 -29 -22 3 -3 23
4 46 15 32 17 42 29 51 62 6 23 9 43 7 46 -3 2 -8 -8 -12 -24z"/>
<path d="M2992 4555 c8 -8 192 -65 196 -60 4 3 -181 65 -195 65 -3 0 -4 -2 -1
-5z"/>
<path d="M1760 4546 c0 -2 7 -6 15 -10 8 -3 15 -1 15 4 0 6 -7 10 -15 10 -8 0
-15 -2 -15 -4z"/>
<path d="M2107 4536 c-4 -10 -1 -13 9 -9 15 6 19 23 5 23 -5 0 -11 -7 -14 -14z"/>
<path d="M3825 4415 c126 -113 229 -201 239 -204 27 -8 -187 183 -237 213
l-32 18 30 -27z"/>
<path d="M1249 4397 c-19 -18 -64 -57 -98 -87 -109 -96 -99 -117 20 -41 35 22
60 41 56 41 -4 0 -33 -16 -64 -36 -30 -19 -57 -33 -59 -31 -2 2 33 37 78 78
108 96 111 99 107 104 -2 2 -20 -11 -40 -28z"/>
<path d="M1327 4403 c-14 -13 -6 -43 13 -53 26 -14 28 6 3 27 -10 8 -12 12 -5
8 7 -4 12 0 12 9 0 17 -12 21 -23 9z"/>
<path d="M3778 4388 c-12 -12 -14 -18 -5 -18 8 0 7 -4 -3 -10 -9 -6 -10 -10
-3 -10 13 0 36 36 31 48 -2 5 -11 0 -20 -10z"/>
<path d="M988 4118 c-57 -59 -75 -83 -71 -98 7 -26 38 -26 81 0 32 20 45 44
17 34 -8 -4 -15 -10 -15 -15 0 -5 -4 -9 -10 -9 -5 0 -10 6 -10 14 0 8 -6 17
-12 19 -7 3 6 4 28 2 49 -4 76 12 94 55 10 23 10 37 2 55 -7 14 -15 24 -19 23
-5 -1 -42 -36 -85 -80z m92 41 c0 -6 -4 -7 -10 -4 -5 3 -10 11 -10 16 0 6 5 7
10 4 6 -3 10 -11 10 -16z m-20 -30 c0 -11 -4 -17 -10 -14 -5 3 -10 15 -10 26
0 11 5 17 10 14 6 -3 10 -15 10 -26z m-94 -88 c-4 -5 0 -12 6 -14 7 -3 3 -6
-9 -6 -25 -1 -39 15 -21 22 21 9 30 8 24 -2z"/>
<path d="M4047 4183 c-18 -17 -5 -70 24 -106 31 -37 94 -77 123 -77 36 0 24
27 -45 96 -66 67 -75 73 -86 57 -7 -9 -13 -12 -13 -6 0 7 5 15 10 18 6 3 10
10 10 16 0 10 -14 12 -23 2z m33 -58 c-7 -9 -15 -13 -17 -11 -7 7 7 26 19 26
6 0 6 -6 -2 -15z m89 -71 c1 -1 0 -7 -3 -13 -4 -6 -16 -6 -36 1 -36 12 -29 31
8 22 15 -4 29 -8 31 -10z m31 -24 c0 -5 -4 -10 -10 -10 -5 0 -10 5 -10 10 0 6
5 10 10 10 6 0 10 -4 10 -10z"/>
<path d="M3845 4035 c72 -72 144 -146 160 -166 32 -38 58 -79 53 -83 -2 -2
-12 -8 -23 -15 -18 -10 -17 -11 6 -5 20 4 33 0 49 -18 20 -20 19 -16 -6 27
-53 95 -237 298 -324 358 -29 20 1 -15 85 -98z"/>
<path d="M1331 4100 c-95 -79 -238 -227 -279 -288 -60 -89 -87 -136 -74 -128
13 8 92 121 92 131 0 13 143 165 154 165 7 0 30 -18 51 -40 21 -22 42 -40 47
-40 4 0 -15 21 -42 46 l-49 46 52 47 c29 26 68 62 87 79 56 50 27 37 -39 -18z"/>
<path d="M880 4020 c-12 -8 -11 -10 8 -10 12 0 22 5 22 10 0 13 -11 13 -30 0z"/>
<path d="M4240 4021 c0 -6 6 -14 14 -18 8 -4 47 -51 87 -103 40 -52 74 -97 76
-99 1 -2 5 -2 8 1 3 3 0 12 -7 19 -7 8 -33 41 -58 74 -24 33 -52 68 -62 78
-10 10 -18 21 -18 25 0 4 -9 13 -20 20 -11 7 -20 8 -20 3z"/>
<path d="M812 3981 c-10 -17 -22 -28 -26 -23 -4 4 -6 2 -4 -4 2 -6 -21 -41
-50 -78 -29 -36 -49 -66 -44 -66 18 0 158 187 148 197 -3 3 -13 -9 -24 -26z"/>
<path d="M3804 3921 c-28 -31 -57 -67 -64 -81 -7 -14 -13 -26 -14 -27 -1 -1
-24 5 -51 13 -28 8 -88 17 -134 19 -95 5 -106 -1 -182 -93 -54 -65 -49 -75 7
-13 67 75 92 85 199 85 109 0 165 -21 213 -82 64 -80 75 -137 45 -242 -12 -46
-21 -60 -35 -60 -10 0 -18 -5 -18 -11 0 -5 5 -7 10 -4 6 3 10 3 10 -2 0 -4
-27 -30 -60 -56 -64 -52 -69 -61 -44 -71 10 -4 29 7 54 32 86 85 134 240 105
342 -7 22 -21 47 -33 56 -9 7 -12 16 -7 24 5 8 4 11 -2 7 -6 -4 -22 7 -36 23
-25 27 -25 30 -11 59 8 16 35 53 61 81 25 28 44 52 42 54 -2 2 -27 -22 -55
-53z m-74 -586 c-18 -19 -36 -33 -38 -30 -6 6 61 74 67 69 3 -3 -11 -20 -29
-39z"/>
<path d="M1671 3911 c-14 -14 -21 -16 -25 -8 -2 7 -5 3 -5 -7 -1 -20 10 -31
74 -73 21 -14 58 -46 82 -71 24 -25 47 -42 50 -38 4 4 -32 46 -80 94 l-88 86
23 18 c19 15 20 18 6 18 -10 0 -27 -9 -37 -19z m49 -78 c0 -7 -39 17 -46 28
-3 6 5 3 20 -6 14 -10 26 -19 26 -22z"/>
<path d="M3370 3906 c-43 -29 -140 -130 -140 -147 0 -7 13 -1 28 14 16 15 31
25 34 22 7 -7 59 53 56 66 -5 18 66 54 88 45 15 -7 16 -9 4 -14 -22 -8 -100
-73 -100 -84 0 -5 6 -6 13 -2 7 4 8 3 4 -2 -5 -5 -15 -9 -23 -9 -7 0 -14 -3
-14 -8 0 -4 -12 -19 -27 -32 -16 -13 -22 -25 -15 -25 19 0 113 91 105 103 -4
6 0 8 10 4 10 -4 16 -2 14 6 -1 7 4 11 11 9 8 -1 11 2 8 7 -6 9 18 23 27 15 2
-2 42 -6 88 -8 46 -2 101 -11 122 -19 35 -15 67 -14 67 2 0 4 -10 17 -22 29
-43 40 -199 58 -223 25 -11 -15 -13 -15 -24 5 -15 28 -46 27 -91 -2z m291 -16
c21 -6 40 -17 43 -26 5 -12 2 -15 -11 -9 -27 11 -82 23 -135 30 -27 3 -48 11
-48 17 0 12 88 5 151 -12z"/>
<path d="M1506 3909 c-66 -11 -105 -28 -118 -52 -10 -20 -11 -20 -25 6 -7 15
-19 27 -26 26 -9 0 -9 -2 1 -6 19 -8 14 -20 -25 -60 -20 -21 -53 -63 -73 -94
-19 -30 -41 -54 -48 -51 -7 2 -12 -1 -12 -7 0 -6 6 -11 13 -11 9 0 12 -29 12
-110 0 -98 -2 -110 -17 -110 -11 0 -18 -8 -18 -19 0 -15 6 -19 27 -17 24 3 48
26 26 26 -4 0 -7 35 -6 78 0 42 1 98 2 124 0 28 8 59 21 80 11 18 20 26 20 17
0 -8 -7 -24 -15 -35 -15 -19 -21 -54 -7 -40 4 4 7 12 7 16 0 13 77 113 99 129
10 8 28 25 40 38 34 39 82 55 161 51 60 -2 70 0 73 15 4 19 -25 21 -112 6z
m-167 -99 c-17 -15 -39 -40 -49 -55 -10 -15 -20 -22 -24 -17 -7 13 84 113 96
106 4 -3 -6 -18 -23 -34z"/>
<path d="M1735 3894 c9 -9 19 -13 23 -10 3 4 0 11 -8 16 -24 15 -33 11 -15 -6z"/>
<path d="M2601 3906 c2 -3 52 -10 111 -16 58 -6 128 -18 154 -26 27 -7 36 -12
19 -9 -69 11 -184 24 -235 27 l-54 3 3 -55 c3 -67 5 -70 43 -70 49 0 220 -38
292 -65 91 -34 237 -108 273 -139 17 -14 33 -26 36 -26 3 0 18 23 33 50 32 58
60 70 42 18 -14 -41 -48 -88 -63 -88 -7 0 -40 18 -74 40 -85 55 -203 113 -281
138 -78 25 -217 52 -271 52 -24 0 -39 5 -39 13 0 7 -5 5 -10 -5 -6 -9 -13 -99
-16 -200 -3 -100 -6 -200 -8 -220 -2 -21 0 -38 4 -38 4 0 9 38 12 85 2 47 6
87 9 89 6 6 194 -30 258 -49 58 -18 194 -87 218 -111 8 -8 20 -14 27 -14 7 0
27 -16 46 -35 19 -19 29 -35 22 -35 -7 0 -12 4 -12 8 0 16 -238 143 -311 166
-72 23 -178 46 -212 46 -15 0 -17 -13 -18 -92 -1 -84 -13 -175 -19 -138 -1 8
-5 4 -10 -10 -6 -20 -8 -14 -9 28 -1 33 -5 51 -11 47 -5 -3 -10 -17 -10 -31 0
-30 -19 -32 -22 -1 -3 39 -16 -185 -17 -298 -1 -110 -1 -111 -29 -127 -28 -17
-107 -97 -152 -155 l-25 -32 -207 -7 c-122 -4 -208 -3 -208 2 0 16 36 123 43
130 4 4 0 -15 -8 -42 -24 -80 -16 -85 10 -7 35 105 79 198 120 254 20 27 34
52 32 56 -20 33 211 168 339 199 73 18 104 34 65 34 -59 0 -216 -59 -270 -101
-33 -26 -52 -23 -21 2 56 47 236 119 296 119 24 0 24 2 24 90 0 89 0 90 -22
85 -13 -3 -59 -12 -103 -21 -109 -22 -179 -52 -275 -119 -87 -60 -110 -67 -61
-17 17 16 33 27 36 24 3 -3 5 1 5 9 0 8 16 21 36 28 19 7 33 15 30 19 -16 15
231 92 299 92 16 0 37 5 45 11 26 18 -105 1 -210 -27 -64 -17 -119 -40 -167
-70 -83 -51 -169 -126 -178 -154 -7 -23 -25 -27 -25 -6 0 16 -132 136 -149
136 -21 0 -11 -16 40 -65 28 -28 60 -62 71 -78 l20 -27 -44 -49 c-55 -61 -101
-147 -138 -257 -29 -86 -56 -236 -45 -254 4 -6 -234 -20 -252 -14 -2 0 6 50
17 110 51 285 159 484 371 689 185 179 355 264 609 306 93 15 121 34 35 24
-93 -11 -273 -59 -348 -93 -38 -17 -99 -52 -136 -76 -70 -47 -249 -221 -321
-313 -25 -31 -50 -53 -61 -53 -11 0 -45 12 -78 28 l-58 27 -35 -60 c-83 -140
-148 -379 -148 -543 l0 -50 48 5 c69 7 72 9 72 51 0 39 8 70 55 227 45 152
119 305 147 305 5 0 0 -13 -12 -30 -34 -48 -86 -167 -119 -275 -29 -93 -63
-274 -54 -285 2 -2 25 -7 51 -11 l47 -6 -48 -2 c-27 0 -46 -4 -44 -8 3 -5 76
-6 164 -4 138 3 152 5 113 14 -33 8 -39 12 -22 15 18 3 22 10 22 37 0 95 52
265 112 368 15 26 28 50 28 53 0 9 62 89 75 97 8 4 -2 -16 -21 -44 -79 -118
-160 -326 -170 -439 l-6 -65 72 3 c39 2 84 -1 98 -7 32 -14 462 -22 462 -10 0
5 -35 10 -77 10 l-78 1 60 9 c48 7 64 14 80 36 26 35 145 158 145 149 0 -4 9
-2 20 4 18 9 20 22 21 103 1 51 4 117 9 147 5 41 8 16 9 -102 1 -105 5 -158
12 -158 6 0 10 18 9 43 -1 23 -1 80 1 127 l2 85 7 -60 c4 -33 8 -88 9 -122 1
-37 5 -63 11 -63 7 0 10 47 9 136 0 74 1 138 4 140 3 3 8 -52 12 -123 7 -146
8 -151 32 -160 36 -14 126 -102 150 -146 16 -31 29 -31 19 0 -9 29 -145 163
-165 163 -16 0 -19 14 -24 123 -4 67 -10 162 -13 210 l-7 88 29 -6 c92 -21
150 -42 242 -90 56 -29 102 -48 102 -42 0 13 59 -50 104 -112 62 -85 123 -226
140 -323 l7 -38 -201 0 c-145 0 -199 -3 -194 -11 4 -7 0 -9 -14 -5 -11 4 -23
2 -28 -5 -5 -9 18 -10 91 -7 53 2 89 1 79 -3 -11 -4 26 -7 81 -7 85 1 92 2 45
8 -46 6 -38 7 51 8 l105 2 -8 67 c-4 37 -6 68 -4 70 2 2 9 -23 17 -57 l13 -60
61 0 c33 0 71 -3 84 -7 l24 -6 -6 69 c-4 38 -15 97 -26 131 -21 64 -113 242
-150 289 -12 15 -21 33 -21 42 0 20 57 -56 109 -146 62 -107 100 -230 114
-372 2 -25 3 -25 112 -28 61 -2 121 0 134 3 23 6 23 8 16 77 -12 126 -51 255
-120 393 -36 72 -55 119 -44 105 34 -40 104 -188 133 -277 25 -82 43 -172 48
-245 l2 -38 68 0 68 0 0 59 c0 75 -21 184 -54 280 -28 81 -31 96 -15 67 22
-38 60 -174 71 -251 14 -113 28 -168 22 -90 -8 96 -32 209 -65 303 -31 86 -94
222 -104 222 -3 0 4 -18 15 -41 37 -71 13 -54 -27 20 -21 39 -42 71 -48 71 -5
0 -28 -11 -50 -25 -59 -36 -87 -33 -120 14 -15 22 -50 62 -78 89 -121 117
-196 209 -123 151 27 -22 162 -169 207 -227 l26 -34 51 26 c28 14 58 26 67 26
8 0 15 3 15 6 0 9 -61 97 -88 127 -14 15 -23 27 -19 27 22 0 -55 89 -118 138
-17 13 -23 21 -15 17 8 -4 6 1 -5 9 -11 9 -25 14 -32 12 -7 -3 -15 0 -19 6 -4
7 -3 8 4 4 7 -4 12 -4 12 1 0 21 -303 177 -413 213 -21 6 -36 14 -34 16 7 7
145 -45 220 -83 38 -19 66 -29 62 -23 -24 39 -300 142 -428 159 -79 11 -184
15 -176 7z m290 -81 c46 -13 104 -32 129 -42 77 -31 251 -125 257 -138 5 -13
-20 -70 -35 -79 -4 -2 -28 9 -52 26 -134 90 -413 188 -540 188 -16 0 -30 3
-31 8 0 4 -2 15 -4 26 -9 44 2 49 101 42 50 -3 130 -17 175 -31z m-193 -110
c172 -25 307 -77 452 -173 88 -57 292 -268 352 -362 91 -145 159 -316 178
-454 6 -39 13 -81 16 -93 4 -23 4 -23 -114 -23 l-118 0 -11 84 c-22 161 -99
334 -198 444 -35 39 -42 53 -32 59 24 14 130 133 124 139 -9 9 -49 -17 -102
-67 -42 -40 -51 -54 -49 -79 1 -16 -2 -30 -7 -30 -10 0 7 -34 32 -62 8 -10 41
-64 73 -120 60 -107 106 -241 106 -309 l0 -39 -65 0 -64 0 -11 43 c-47 181
-98 275 -212 386 -96 93 -196 153 -308 187 -139 42 -130 34 -126 104 1 33 5
63 8 65 9 9 143 -14 146 -25 2 -5 7 -8 12 -5 13 8 113 -32 183 -73 34 -19 82
-46 105 -60 24 -14 54 -35 67 -48 33 -33 59 -23 42 16 -40 92 -300 223 -501
251 l-81 11 0 124 c0 68 1 124 3 124 1 0 46 -7 100 -15z m666 -137 c-5 -8 -2
-9 10 -5 13 5 17 3 13 -7 -7 -17 37 -61 52 -52 5 4 12 2 16 -4 3 -5 1 -10 -4
-10 -6 0 2 -14 18 -31 17 -17 35 -28 40 -24 7 4 8 0 4 -11 -5 -13 -3 -15 8 -9
8 4 11 5 7 1 -3 -4 9 -28 28 -53 58 -76 59 -80 22 -103 -46 -28 -59 -25 -89
18 -15 20 -64 77 -110 126 -46 49 -85 92 -87 95 -3 8 62 81 72 81 4 0 4 -5 0
-12z m61 -46 c-3 -3 -11 0 -18 7 -9 10 -8 11 6 5 10 -3 15 -9 12 -12z m-927
-178 l3 -61 -88 -23 c-129 -33 -207 -74 -281 -147 -35 -35 -62 -63 -58 -63 3
0 -9 -15 -27 -32 -73 -72 -132 -187 -174 -338 -8 -30 -20 -58 -26 -62 -15 -9
-64 -10 -95 -1 -23 6 -24 9 -17 62 9 73 46 185 97 291 63 133 130 207 271 301
48 33 104 66 125 75 58 26 204 63 237 61 29 -2 30 -3 33 -63z m237 -125 c91
-30 151 -60 195 -98 14 -12 -4 -5 -40 15 -67 37 -176 77 -242 89 -24 5 -38 13
-38 22 0 10 6 13 18 8 9 -4 58 -20 107 -36z m-717 9 c-2 -6 -10 -14 -16 -16
-7 -2 -10 2 -6 12 7 18 28 22 22 4z m-505 -34 c18 -9 34 -18 36 -20 2 -2 -7
-20 -20 -41 -37 -58 -69 -133 -69 -157 0 -12 -4 -26 -10 -32 -14 -14 -69 -210
-76 -272 -6 -44 -10 -53 -30 -58 -50 -13 -57 0 -50 79 3 39 16 115 27 167 11
52 22 106 25 119 3 13 11 30 19 38 8 8 15 22 15 31 0 23 78 162 91 162 5 0 24
-7 42 -16z m2145 4 c22 -29 102 -198 127 -272 29 -84 54 -208 55 -269 l0 -38
-47 3 -48 3 -11 85 c-15 117 -54 237 -114 354 -27 55 -50 102 -50 106 0 6 58
38 71 39 4 1 11 -5 17 -11z m-1723 -28 c3 -5 1 -10 -4 -10 -6 0 -11 5 -11 10
0 6 2 10 4 10 3 0 8 -4 11 -10z m592 -42 c-3 -7 -5 -2 -5 12 0 14 2 19 5 13 2
-7 2 -19 0 -25z m38 12 c3 -5 1 -10 -4 -10 -6 0 -11 5 -11 10 0 6 2 10 4 10 3
0 8 -4 11 -10z m22 -37 c-3 -10 -5 -4 -5 12 0 17 2 24 5 18 2 -7 2 -21 0 -30z
m-16 -19 c5 -15 7 -30 3 -33 -7 -7 -34 28 -34 46 0 23 20 14 31 -13z m1209
-48 c0 -18 -17 8 -24 34 l-7 25 15 -25 c9 -14 15 -29 16 -34z m-1819 -197
c-11 -24 -20 -41 -20 -37 -1 12 31 89 35 85 3 -2 -4 -24 -15 -48z m1217 6 c-3
-3 -9 2 -12 12 -6 14 -5 15 5 6 7 -7 10 -15 7 -18z m36 -85 c3 -14 -3 -7 -13
15 -11 22 -20 45 -20 50 0 15 26 -37 33 -65z m-1077 -167 c-20 -2 -52 -2 -70
0 -17 2 0 4 38 4 39 0 53 -2 32 -4z"/>
<path d="M2930 3526 c0 -2 7 -6 15 -10 8 -3 15 -1 15 4 0 6 -7 10 -15 10 -8 0
-15 -2 -15 -4z"/>
<path d="M2906 3461 c-4 -7 -5 -15 -2 -18 9 -9 19 4 14 18 -4 11 -6 11 -12 0z"/>
<path d="M3440 2995 c-45 -33 -30 -32 18 0 20 14 32 25 27 25 -6 -1 -26 -12
-45 -25z"/>
<path d="M3435 2955 c-25 -12 -26 -14 -9 -15 12 0 27 7 34 15 15 18 14 18 -25
0z"/>
<path d="M1770 3876 c0 -4 7 -14 15 -22 8 -9 15 -11 15 -6 0 5 -7 15 -15 22
-8 7 -15 9 -15 6z"/>
<path d="M1440 3856 c-19 -7 -35 -17 -35 -22 -1 -5 -30 -38 -66 -74 -77 -76
-90 -110 -89 -232 0 -46 0 -93 0 -105 -1 -39 3 -50 17 -50 15 0 18 13 5 21 -5
3 -9 22 -10 43 -1 21 2 33 6 26 13 -20 32 1 25 27 -6 22 -7 23 -14 4 -5 -11
-8 11 -8 56 -1 90 26 157 86 217 43 43 97 63 171 63 l51 0 -10 -32 c-11 -40
-11 -38 0 -38 5 0 11 14 15 31 6 30 8 31 40 26 46 -7 102 -46 133 -92 14 -20
27 -34 30 -32 13 13 -50 85 -102 117 -37 23 -50 25 -157 25 -79 0 -110 3 -95
9 12 5 61 9 109 10 49 1 88 4 88 9 0 12 -152 6 -190 -7z"/>
<path d="M1813 3825 c0 -8 4 -12 8 -9 4 2 22 -14 40 -36 30 -38 51 -49 32 -17
-16 27 -80 77 -80 62z"/>
<path d="M3783 3816 c9 -13 28 -36 42 -52 14 -15 32 -40 40 -57 23 -47 18
-166 -10 -242 -7 -19 -7 -19 9 -4 13 12 20 41 25 110 6 81 8 89 15 57 5 -21 4
-68 -2 -105 -10 -72 -9 -84 9 -66 7 7 10 47 7 107 -1 53 0 96 5 96 4 0 7 4 7
10 0 5 -6 7 -14 4 -9 -3 -21 10 -35 38 -19 39 -94 128 -108 128 -3 0 2 -11 10
-24z"/>
<path d="M1794 3803 c16 -20 36 -23 36 -6 0 4 -3 3 -7 0 -3 -4 -16 1 -27 10
-21 18 -21 18 -2 -4z"/>
<path d="M3273 3778 c-23 -30 -24 -41 -2 -21 12 12 20 25 17 28 -3 3 -10 0
-15 -7z"/>
<path d="M3544 3775 c3 -8 -2 -19 -12 -24 -14 -9 -13 -10 9 -11 23 0 26 3 21
25 -2 14 -9 25 -14 25 -6 0 -8 -7 -4 -15z"/>
<path d="M654 3772 c-6 -4 -36 -44 -67 -90 l-57 -83 26 -22 26 -22 -27 -60
c-42 -92 -83 -190 -125 -298 -43 -107 -44 -96 15 -143 11 -8 14 -13 8 -9 -28
14 -10 -6 27 -31 22 -14 46 -24 55 -20 27 10 17 44 -22 71 -39 26 -80 34 -67
13 4 -7 3 -8 -4 -4 -6 4 -8 14 -5 23 4 11 3 14 -5 9 -19 -12 -14 17 19 106 18
46 38 100 45 120 8 21 34 79 58 130 43 89 44 94 28 120 -15 26 -14 29 33 99
l48 72 19 -23 c15 -19 32 -25 78 -28 49 -4 59 -8 64 -26 9 -34 7 -94 -4 -101
-5 -3 -8 0 -5 7 7 19 -18 101 -33 106 -9 3 -10 -3 -2 -23 23 -61 12 -94 -58
-180 -14 -17 -102 -203 -102 -215 0 -6 -14 -38 -31 -71 -29 -59 -32 -61 -62
-55 -17 4 -35 10 -39 14 -4 4 5 42 19 85 24 71 28 78 49 73 19 -5 21 -3 16 16
-3 12 -7 17 -10 10 -2 -6 -8 -12 -13 -12 -6 0 -5 8 1 20 9 17 15 18 33 10 22
-11 22 -11 -1 9 l-23 20 25 40 c25 39 43 91 33 91 -20 0 -121 -230 -155 -353
-9 -31 -8 -34 8 -30 29 8 92 -17 86 -33 -3 -8 -1 -14 4 -14 6 0 10 5 10 11 0
12 100 240 140 319 16 30 51 78 79 107 52 54 70 100 56 145 -12 39 -26 48 -72
48 -36 0 -50 6 -75 30 -16 17 -30 30 -31 30 -1 0 -7 -4 -13 -8z m-139 -722
c17 -19 17 -19 -9 -7 -14 7 -26 15 -26 20 0 13 17 7 35 -13z"/>
<path d="M3686 3758 c-9 -35 -7 -45 6 -24 10 19 11 19 22 0 17 -29 87 -124 92
-124 13 0 -2 26 -47 87 -69 90 -65 88 -73 61z"/>
<path d="M4419 3754 c-22 -27 -69 -46 -98 -39 -23 5 -29 1 -39 -20 -17 -37
-15 -96 5 -125 9 -14 34 -45 56 -68 94 -104 190 -387 223 -651 17 -140 15
-150 -27 -151 -24 0 -59 -38 -66 -72 l-6 -31 -292 7 c-207 6 -295 4 -299 -3
-4 -6 -4 -11 1 -11 4 0 114 -3 243 -6 129 -4 237 -9 240 -11 3 -3 -104 -3
-237 -1 -134 2 -238 1 -231 -3 6 -4 65 -8 131 -8 67 -1 123 -4 126 -6 2 -3
-60 -5 -138 -5 -110 0 -142 -3 -139 -12 4 -10 76 -13 314 -14 170 0 278 2 239
6 l-70 6 68 2 c39 1 67 6 67 13 0 5 5 7 11 3 7 -4 10 -1 7 7 -3 8 -16 13 -29
11 -14 -1 -19 1 -12 6 6 4 15 21 19 37 9 37 31 54 109 82 54 20 57 22 26 23
-24 0 -32 4 -28 14 9 23 -22 226 -49 320 -14 48 -23 90 -21 92 2 3 10 -16 17
-41 7 -24 16 -42 21 -40 12 8 -58 183 -140 348 -28 55 -28 58 -10 68 21 11 25
29 7 29 -7 0 -23 12 -35 28 -18 20 -21 22 -16 7 3 -11 11 -26 16 -33 5 -7 8
-15 5 -18 -3 -2 -18 12 -33 31 -20 28 -25 42 -20 63 14 57 57 80 110 57 35
-14 39 -21 35 -62 -1 -13 4 -23 11 -23 15 0 6 74 -11 95 -8 9 -30 15 -59 15
-49 0 -77 -19 -94 -64 -7 -19 -8 -19 -22 0 -30 39 -15 84 27 84 16 0 49 11 72
25 l42 25 48 -66 c59 -82 62 -90 41 -110 -11 -12 -14 -25 -9 -46 4 -20 3 -28
-4 -24 -6 3 -13 2 -17 -4 -3 -5 -1 -10 5 -10 7 0 9 -8 5 -20 -5 -16 -2 -20 17
-18 12 2 23 -1 23 -7 1 -5 13 -34 29 -63 15 -30 36 -83 47 -119 11 -36 23 -71
25 -78 4 -8 -6 -16 -26 -20 -39 -8 -58 11 -104 107 -32 64 -32 66 -9 55 16 -7
29 -7 45 1 13 7 16 11 8 11 -42 -3 -57 3 -75 34 -10 17 -23 35 -28 38 -5 4
-10 20 -11 36 -1 25 -4 29 -24 25 -21 -4 -21 -6 -7 -22 8 -9 15 -21 15 -26 0
-5 9 -20 20 -34 11 -14 20 -32 20 -42 0 -17 44 -115 80 -179 l21 -37 46 14
c37 11 49 12 56 2 6 -9 7 -6 2 7 -4 11 -18 55 -31 97 -14 42 -47 127 -74 188
l-49 111 24 11 c14 6 25 16 25 23 0 11 -88 144 -118 178 -19 21 -26 21 -43 1z
m-192 -1200 c-3 -3 -12 -4 -19 -1 -8 3 -5 6 6 6 11 1 17 -2 13 -5z"/>
<path d="M2520 3606 c0 -124 9 -170 24 -130 8 20 8 212 0 242 -15 54 -24 12
-24 -112z"/>
<path d="M1513 3723 c15 -2 39 -2 55 0 15 2 2 4 -28 4 -30 0 -43 -2 -27 -4z"/>
<path d="M3608 3723 c7 -3 16 -2 19 1 4 3 -2 6 -13 5 -11 0 -14 -3 -6 -6z"/>
<path d="M1395 3688 c-41 -35 -75 -96 -74 -130 1 -18 3 -16 8 8 17 67 79 135
136 147 15 4 13 5 -7 6 -18 1 -40 -10 -63 -31z"/>
<path d="M1511 3681 c-10 -7 -2 -8 25 -4 36 4 103 -12 92 -22 -3 -3 -16 -1
-29 3 -34 13 -80 -3 -106 -35 -14 -17 -23 -22 -23 -14 0 8 8 24 18 35 17 21
17 21 -5 3 -20 -18 -40 -63 -22 -52 5 4 6 -8 2 -25 -3 -18 0 -41 6 -54 13 -24
69 -62 78 -53 3 3 -9 13 -26 21 -60 32 -65 94 -9 141 35 29 82 33 118 8 24
-16 24 -16 11 0 -9 12 -10 17 -2 17 6 0 14 -7 16 -15 13 -42 18 -49 22 -38 19
52 -112 118 -166 84z"/>
<path d="M3515 3668 c-32 -17 -75 -61 -75 -75 0 -19 13 -16 28 7 11 18 83 70
97 70 3 0 5 -4 5 -10 0 -5 14 -32 30 -58 40 -66 38 -82 -13 -114 -23 -15 -35
-28 -26 -28 14 0 53 25 107 70 9 8 13 12 8 8 -17 -13 -24 -9 -40 22 -8 17 -24
46 -36 65 l-22 35 40 0 c50 0 68 -17 77 -72 4 -24 11 -50 16 -58 7 -11 8 -8 5
10 -3 14 -8 42 -11 62 -8 54 -44 78 -114 78 -31 0 -65 -6 -76 -12z"/>
<path d="M640 3660 c0 -5 22 -10 50 -10 43 0 50 -3 54 -22 8 -39 3 -57 -20
-79 -33 -30 -77 -15 -84 29 l-5 32 -11 -25 c-17 -35 2 -56 57 -62 41 -4 45 -2
62 27 19 35 22 72 8 99 -7 13 -24 18 -60 20 -29 1 -51 -3 -51 -9z"/>
<path d="M1436 3654 c-21 -21 -30 -58 -23 -99 5 -30 2 -35 -24 -45 -39 -16
-31 -23 9 -9 30 10 31 12 25 54 -4 34 -1 52 15 79 23 39 22 45 -2 20z"/>
<path d="M3375 3660 c-3 -6 1 -7 9 -4 18 7 21 14 7 14 -6 0 -13 -4 -16 -10z"/>
<path d="M1753 3596 c-18 -12 -32 -26 -33 -32 0 -11 -24 -26 -45 -28 -5 -1
-10 -7 -10 -14 0 -7 -14 -25 -30 -40 -17 -15 -43 -43 -59 -62 -16 -19 -32 -34
-35 -32 -3 1 -6 -3 -6 -8 0 -6 -5 -14 -10 -18 -6 -4 -22 -25 -37 -48 l-26 -40
70 -28 c39 -15 74 -24 78 -19 5 4 25 28 45 53 48 58 121 135 173 182 l42 38
-37 52 c-20 29 -39 56 -42 59 -3 3 -20 -4 -38 -15z m63 -54 l22 -37 -85 -85
c-46 -47 -98 -104 -115 -127 -35 -48 -54 -52 -106 -25 l-33 18 37 49 c51 68
228 245 245 245 8 0 24 -17 35 -38z"/>
<path d="M1570 3573 c0 -5 11 -13 25 -20 27 -12 33 -5 13 15 -13 13 -38 16
-38 5z"/>
<path d="M1687 3573 c-4 -3 -7 -11 -7 -17 0 -6 5 -5 12 2 6 6 9 14 7 17 -3 3
-9 2 -12 -2z"/>
<path d="M3505 3550 c-3 -5 3 -10 15 -10 12 0 18 5 15 10 -3 6 -10 10 -15 10
-5 0 -12 -4 -15 -10z"/>
<path d="M2180 3526 c0 -15 34 -78 37 -69 4 11 -23 73 -32 73 -3 0 -5 -2 -5
-4z"/>
<path d="M4570 3495 c0 -5 5 -17 10 -25 5 -8 10 -10 10 -5 0 6 -5 17 -10 25
-5 8 -10 11 -10 5z"/>
<path d="M635 3479 c4 -5 12 -9 20 -9 8 0 18 -7 23 -16 8 -15 10 -15 15 0 4 9
5 16 4 16 -1 0 -17 4 -35 9 -20 6 -30 6 -27 0z"/>
<path d="M1574 3468 l-19 -21 28 18 c28 18 33 25 19 25 -5 0 -17 -10 -28 -22z"/>
<path d="M3770 3476 c0 -8 6 -16 14 -19 10 -4 12 0 9 14 -6 22 -23 26 -23 5z"/>
<path d="M1327 3456 c-4 -10 -1 -13 8 -9 8 3 12 9 9 14 -7 12 -11 11 -17 -5z"/>
<path d="M720 3413 c-50 -107 -97 -222 -93 -227 3 -3 -3 -18 -13 -33 -11 -15
-19 -32 -19 -38 -1 -5 -7 -21 -14 -34 -9 -17 -10 -21 -1 -16 8 5 10 2 6 -11
-3 -11 -10 -39 -15 -64 -35 -167 -42 -217 -39 -251 l3 -37 -70 3 -70 4 65 -8
c35 -5 66 -13 68 -20 2 -6 7 -9 11 -7 14 9 52 -31 66 -69 14 -40 14 -40 15 -9
0 34 -30 79 -59 89 -17 5 -17 12 -5 113 24 194 73 379 145 546 21 49 37 91 35
93 -1 2 -9 -9 -16 -24z"/>
<path d="M1295 3418 c13 -41 135 -150 135 -120 0 6 -7 13 -16 16 -8 3 -12 11
-9 17 5 8 10 8 18 0 6 -6 16 -11 22 -11 5 0 -5 12 -24 27 -18 14 -42 40 -52
57 -10 17 -19 26 -19 20 0 -6 8 -22 18 -35 24 -31 34 -59 22 -59 -17 0 -80 71
-80 90 0 11 -5 20 -11 20 -6 0 -8 -9 -4 -22z"/>
<path d="M3837 3419 c3 -10 10 -19 15 -19 5 0 6 5 3 10 -3 6 3 10 14 10 17 0
19 -4 11 -30 -10 -35 -47 -90 -61 -90 -13 0 -11 14 4 29 10 11 10 13 0 7 -7
-4 -13 -2 -13 3 0 6 9 11 20 11 14 0 20 7 20 21 0 11 -5 17 -10 14 -6 -4 -7
-11 -4 -17 4 -6 2 -8 -4 -4 -6 3 -19 -4 -29 -16 -10 -13 -42 -42 -72 -66 -29
-23 -47 -42 -39 -42 8 0 31 16 53 35 21 20 40 34 42 32 2 -2 -3 -10 -12 -17
-8 -7 -15 -17 -15 -23 0 -6 11 0 25 13 14 13 25 19 25 12 0 -12 -17 -30 -56
-61 -15 -12 -24 -24 -20 -28 10 -10 145 135 152 163 4 15 14 24 25 24 17 0 38
25 28 34 -2 2 -27 6 -55 9 -47 5 -51 4 -47 -14z"/>
<path d="M4601 3429 c-1 -3 10 -33 24 -67 25 -60 85 -243 85 -256 0 -4 -4 -4
-10 -1 -5 3 -10 2 -10 -4 0 -5 -13 -12 -30 -16 -42 -9 -80 -42 -80 -71 0 -28
-2 -27 37 -13 18 6 38 24 49 45 13 23 26 34 41 34 13 0 23 6 23 13 0 28 -126
356 -129 336z"/>
<path d="M1219 3373 c12 -24 31 -39 31 -25 0 5 -10 17 -21 28 -22 19 -22 19
-10 -3z"/>
<path d="M1290 3371 c0 -5 5 -13 10 -16 6 -3 10 -2 10 4 0 5 -4 13 -10 16 -5
3 -10 2 -10 -4z"/>
<path d="M4527 3353 c-3 -5 6 -8 19 -8 13 0 24 3 24 8 0 4 -9 7 -19 7 -11 0
-22 -3 -24 -7z"/>
<path d="M1272 3338 c-8 -8 -5 -19 15 -42 14 -17 31 -34 38 -38 20 -12 26 29
7 44 -13 11 -14 11 -8 -1 6 -9 5 -12 -4 -9 -7 2 -14 12 -16 22 -4 27 -18 38
-32 24z"/>
<path d="M1355 3259 c-5 -14 -2 -25 6 -30 19 -12 29 -11 29 1 0 6 -7 10 -16
10 -11 0 -14 6 -9 20 3 11 4 20 1 20 -2 0 -8 -10 -11 -21z"/>
<path d="M3735 3250 c-3 -5 -2 -10 4 -10 5 0 13 5 16 10 3 6 2 10 -4 10 -5 0
-13 -4 -16 -10z"/>
<path d="M1348 3103 c-53 -114 -97 -285 -105 -412 l-6 -86 -291 -4 c-257 -3
-292 -5 -300 -20 -6 -9 -9 -18 -9 -21 1 -3 -3 -13 -8 -23 -9 -16 7 -17 307
-15 243 2 318 6 322 16 3 9 -54 12 -264 12 -147 0 -265 2 -263 4 2 2 110 5
239 7 129 2 245 7 256 12 19 8 23 21 29 91 14 174 67 374 130 496 9 18 15 34
12 36 -2 2 -24 -40 -49 -93z m-205 -520 c-7 -2 -21 -2 -30 0 -10 3 -4 5 12 5
17 0 24 -2 18 -5z m75 0 c-10 -2 -28 -2 -40 0 -13 2 -5 4 17 4 22 1 32 -1 23
-4z m-515 -30 c-7 -2 -21 -2 -30 0 -10 3 -4 5 12 5 17 0 24 -2 18 -5z"/>
<path d="M2130 3062 c0 -4 5 -13 11 -19 16 -16 3 -32 -21 -26 -22 6 -25 -4 -9
-27 9 -13 10 -12 5 3 -3 11 -2 16 4 12 17 -11 11 -25 -16 -35 -21 -8 -25 -15
-20 -33 3 -12 6 -29 6 -37 1 -8 9 1 20 21 20 38 78 99 93 99 6 0 -7 11 -27 25
-40 27 -46 29 -46 17z"/>
<path d="M2939 3046 l-27 -23 35 -27 c19 -16 39 -39 45 -52 15 -31 24 -30 31
4 3 15 9 36 13 47 6 18 4 17 -19 -4 l-27 -24 -1 24 c-1 13 -1 27 0 31 0 4 -6
5 -14 2 -17 -7 -21 11 -5 21 12 7 13 25 3 25 -5 0 -20 -11 -34 -24z"/>
<path d="M1626 3041 c16 -16 114 -51 114 -41 0 5 -12 13 -27 16 -15 4 -38 13
-52 20 -30 16 -50 18 -35 5z"/>
<path d="M510 2970 c-81 -14 -140 -67 -140 -124 0 -20 -6 -25 -44 -30 -33 -5
-46 -12 -51 -29 -11 -36 -18 -318 -10 -401 l7 -78 51 7 c28 4 57 13 64 20 10
11 5 12 -26 8 l-38 -5 -6 53 c-8 68 -7 288 1 354 4 29 12 51 20 51 6 1 21 2
32 3 16 1 20 8 20 39 0 31 5 41 29 55 16 9 39 17 50 17 12 0 21 5 21 10 0 6
10 8 24 4 20 -5 24 -1 29 23 3 15 5 28 4 29 -1 0 -18 -2 -37 -6z m5 -20 c-3
-5 -14 -10 -23 -9 -14 0 -13 2 3 9 27 11 27 11 20 0z m-217 -463 c0 -111 -2
-139 -8 -102 -12 71 -12 267 -1 261 5 -4 9 -75 9 -159z"/>
<path d="M4591 2953 c6 -10 21 -18 34 -18 13 0 21 3 18 8 -2 4 2 7 9 7 23 0
76 -53 82 -83 6 -25 5 -27 -13 -15 -11 7 -22 22 -25 34 -5 19 -10 21 -45 14
-26 -5 -41 -3 -44 4 -2 6 -2 0 1 -14 3 -14 8 -43 11 -65 5 -37 9 -40 39 -43
19 -2 44 4 58 13 13 8 24 11 24 5 0 -6 10 -8 24 -4 23 5 24 4 30 -78 4 -46 11
-99 16 -118 7 -30 8 -26 9 33 1 43 5 66 11 62 12 -7 12 -268 0 -305 -5 -17 -8
4 -9 63 -1 60 -4 86 -12 82 -6 -4 -9 -41 -8 -94 2 -48 0 -92 -4 -98 -4 -6 -21
-14 -37 -18 -17 -4 -28 -11 -24 -16 3 -5 1 -9 -5 -9 -6 0 -7 -15 -4 -37 4 -26
3 -34 -5 -29 -7 4 -12 1 -12 -6 0 -8 -5 -6 -11 5 -5 9 -7 22 -3 29 4 7 3 8 -4
4 -7 -4 -12 -18 -12 -32 0 -14 -6 -24 -14 -24 -19 0 -30 17 -16 23 6 3 5 4 -2
3 -7 -1 -14 -10 -16 -19 -3 -13 4 -17 28 -17 17 0 41 5 53 12 21 11 21 10 7
-8 -25 -31 -43 -43 -90 -59 l-45 -15 40 5 c22 2 58 17 80 33 38 26 40 31 43
84 l3 56 45 5 c25 2 48 8 52 12 10 9 16 362 6 383 -4 9 -6 37 -5 62 l3 45 -48
0 -48 0 -4 40 c-2 22 -10 51 -19 63 -18 29 -71 52 -118 52 -31 0 -34 -2 -24
-17z m96 -77 c-3 -8 -1 -17 6 -19 8 -3 5 -10 -8 -21 -19 -17 -19 -17 11 -13
21 2 30 -1 28 -8 -6 -14 -84 -19 -84 -5 0 6 6 10 13 10 6 0 4 5 -5 11 -10 5
-18 21 -18 34 0 21 5 25 31 25 23 0 30 -4 26 -14z m135 -126 c2 -22 0 -40 -4
-40 -5 0 -8 18 -8 40 0 22 2 40 4 40 2 0 6 -18 8 -40z"/>
<path d="M438 2879 c-54 -31 -36 -99 26 -99 22 0 36 6 40 16 10 26 7 74 -5 74
-5 0 -8 -4 -5 -9 3 -4 0 -15 -7 -24 -14 -20 -57 -12 -57 10 0 8 4 12 9 9 5 -3
11 1 14 8 3 8 18 16 34 19 l28 4 -30 1 c-16 1 -38 -3 -47 -9z"/>
<path d="M2512 2751 c-8 -5 7 -6 36 -3 85 8 146 -32 201 -133 8 -16 10 -17 11
-3 0 23 -59 98 -99 125 -35 24 -121 32 -149 14z"/>
<path d="M353 2743 c9 -2 25 -2 35 0 9 3 1 5 -18 5 -19 0 -27 -2 -17 -5z"/>
<path d="M2465 2738 c-44 -24 -105 -95 -105 -123 0 -14 19 -2 25 16 9 29 74
99 91 99 8 0 14 5 14 10 0 12 0 12 -25 -2z"/>
<path d="M4705 2720 c44 -11 75 -11 75 0 0 6 -23 9 -52 9 -45 -1 -49 -2 -23
-9z"/>
<path d="M4635 2691 c-63 -15 -105 -61 -105 -113 0 -24 47 -98 62 -98 5 0 -4
18 -21 39 -29 37 -43 79 -21 66 5 -3 7 0 5 8 -15 38 83 95 145 83 14 -2 28 -5
32 -5 4 -1 5 -8 2 -16 -4 -9 0 -15 9 -15 19 0 38 -73 27 -109 -19 -67 -44 -96
-100 -114 -9 -3 -6 -6 8 -6 111 -4 157 232 55 278 -27 12 -53 13 -98 2z"/>
<path d="M598 2682 c6 -5 23 -23 36 -41 14 -19 27 -28 31 -22 7 13 -47 71 -67
71 -10 0 -10 -2 0 -8z"/>
<path d="M358 2662 c-28 -17 -28 -17 -28 -132 l0 -115 33 -22 c32 -22 67 -33
37 -12 -12 8 -8 9 15 5 48 -8 104 14 151 61 33 31 44 49 43 70 -1 17 -3 21 -6
11 -2 -10 -10 -18 -18 -18 -7 0 -12 -8 -11 -17 0 -10 -5 -17 -11 -16 -7 2 -12
0 -10 -5 1 -4 -8 -18 -21 -32 -18 -19 -32 -24 -75 -25 -28 0 -55 -4 -59 -9 -3
-5 -17 -2 -32 7 -25 17 -26 20 -23 117 1 75 6 103 17 110 8 5 18 6 24 3 5 -3
6 -1 3 4 -9 14 10 20 54 17 73 -4 97 -19 124 -75 15 -34 15 -34 9 -4 -4 17 -7
38 -8 47 0 9 -2 15 -5 12 -2 -2 -16 3 -29 12 -37 24 -140 28 -174 6z"/>
<path d="M2495 2626 c-35 -35 -41 -69 -18 -113 31 -60 93 -68 148 -20 35 31
38 97 5 132 -33 35 -101 35 -135 1z m99 3 c13 -7 30 -25 37 -40 31 -76 -68
-144 -128 -87 -39 37 -22 107 31 128 28 12 31 12 60 -1z"/>
<path d="M3165 2580 c3 -6 27 -10 52 -10 57 0 53 5 -10 13 -31 4 -46 3 -42 -3z"/>
<path d="M3523 2573 c37 -2 96 -2 130 0 34 2 4 3 -68 3 -71 0 -99 -1 -62 -3z"/>
<path d="M1811 2566 c10 -9 79 -14 79 -5 0 5 -19 9 -42 9 -23 0 -39 -2 -37 -4z"/>
<path d="M1903 2563 c4 -3 2 -12 -4 -20 -8 -8 -10 -36 -6 -76 4 -54 4 -57 -5
-24 -5 20 -13 37 -18 37 -13 0 39 -169 65 -211 14 -21 25 -41 25 -45 0 -8 56
-81 94 -121 35 -38 73 -48 39 -10 -11 12 -29 40 -39 62 -11 22 -36 69 -56 105
-55 99 -91 214 -83 267 4 31 3 43 -6 43 -7 0 -9 -3 -6 -7z m41 -237 c18 -36
29 -66 24 -66 -8 0 -68 120 -68 136 0 14 12 -6 44 -70z"/>
<path d="M1936 2553 c-6 -14 2 -15 76 -10 46 4 126 7 178 8 62 0 88 3 75 9
-11 5 -88 9 -171 9 -132 1 -153 -1 -158 -16z"/>
<path d="M2300 2560 c-12 -8 -10 -10 8 -10 13 0 20 4 17 10 -7 12 -6 12 -25 0z"/>
<path d="M2805 2561 c-29 -7 256 -22 380 -20 52 0 57 2 35 11 -28 12 -367 19
-415 9z"/>
<path d="M1407 2538 c4 -7 9 -31 10 -52 11 -156 92 -382 190 -528 45 -67 153
-191 160 -184 3 3 -24 39 -60 82 -150 178 -244 395 -272 623 -5 47 -4 53 10
47 9 -3 66 -6 126 -6 l109 0 0 -59 c0 -70 38 -207 81 -294 17 -34 58 -99 90
-144 l60 -82 -63 -67 c-77 -81 -80 -100 -23 -156 54 -54 201 -152 289 -194
109 -52 374 -119 393 -100 8 8 -5 11 -131 36 -200 38 -324 96 -485 224 -47 38
-88 71 -90 72 -2 2 26 36 63 75 37 40 65 78 62 85 -3 7 30 -16 72 -51 105 -88
208 -140 349 -176 121 -31 163 -35 163 -19 0 6 -10 10 -22 10 -13 0 -68 11
-123 25 -112 28 -241 88 -297 137 -21 18 -59 48 -85 67 -27 18 -60 52 -75 75
-15 22 -52 76 -82 119 -30 43 -64 103 -76 134 -32 87 -73 293 -58 293 4 0 8 5
8 10 0 6 -57 10 -151 10 -118 0 -148 -3 -142 -12z"/>
<path d="M2745 2497 c-20 -51 -40 -70 -133 -129 -50 -31 -30 -34 27 -3 64 36
107 78 121 121 19 57 6 67 -15 11z"/>
<path d="M3449 2548 c-2 -8 -8 -42 -23 -124 -24 -142 -99 -306 -192 -420 -24
-29 -44 -58 -44 -64 0 -5 -6 -10 -14 -10 -7 0 -20 -7 -27 -16 -16 -20 -134
-99 -210 -141 -55 -31 -141 -59 -254 -83 -70 -15 -77 -18 -70 -30 7 -12 147
17 235 50 93 33 197 92 275 156 l57 47 66 -66 c37 -35 73 -67 81 -69 9 -3 -11
-26 -56 -65 -170 -146 -323 -219 -552 -263 -57 -11 -107 -23 -110 -25 -14 -15
17 -13 106 4 165 32 313 90 448 176 65 42 222 190 285 269 51 65 55 65 153 17
l57 -28 6 24 c3 12 9 21 14 18 12 -8 69 80 105 164 48 114 74 201 90 311 17
112 18 131 6 112 -6 -10 -10 -9 -14 7 -5 19 -13 21 -71 21 -75 0 -66 14 -91
-139 -9 -52 -27 -123 -41 -158 -14 -35 -24 -66 -22 -67 1 -2 19 -6 38 -9 30
-5 32 -4 13 5 -25 12 -28 21 -13 47 15 29 48 161 55 226 9 74 17 85 66 85 l39
0 0 -52 c0 -52 -22 -164 -39 -203 -5 -11 -17 -42 -26 -68 -9 -27 -24 -51 -31
-54 -12 -4 -11 -8 3 -18 17 -13 17 -14 1 -20 -10 -4 -18 -15 -18 -24 0 -17
-75 -156 -89 -165 -4 -3 -27 4 -50 15 l-42 20 26 42 c14 23 33 58 43 77 9 19
20 37 25 38 10 5 9 42 -2 42 -5 0 -12 -8 -15 -17 -13 -34 -101 -173 -110 -173
-4 0 -1 11 8 25 78 118 134 255 165 397 23 108 26 142 11 133 -5 -3 -10 -21
-10 -38 0 -51 -38 -194 -77 -292 -41 -104 -98 -197 -191 -310 -36 -44 -66 -81
-68 -83 -2 -3 -66 64 -122 129 l-31 36 48 50 c99 103 180 277 202 437 l12 86
122 0 c97 0 125 3 135 15 11 13 -4 15 -129 15 -77 0 -141 -1 -142 -2z m418
-155 c-2 -16 -4 -3 -4 27 0 30 2 43 4 28 2 -16 2 -40 0 -55z m-28 -130 c-24
-85 -84 -242 -99 -257 -9 -9 10 45 41 119 19 44 69 204 70 221 0 11 3 14 5 7
3 -7 -5 -47 -17 -90z"/>
<path d="M2095 2530 l-170 -6 186 -2 187 -2 27 -52 c34 -67 47 -81 106 -119
37 -24 51 -40 58 -67 12 -46 29 -382 19 -382 -4 0 -44 12 -90 26 -91 29 -205
82 -255 120 -37 28 -69 24 -50 -7 7 -11 30 -32 52 -47 22 -15 42 -29 45 -32 5
-5 75 -39 125 -61 11 -5 52 -19 90 -32 l70 -22 3 -63 3 -63 -38 6 c-115 20
-241 66 -333 121 -25 15 -54 32 -65 38 -97 53 -230 233 -290 395 -17 47 -45
171 -45 201 0 11 9 20 23 23 15 3 12 5 -12 6 l-33 1 7 -56 c17 -138 76 -286
159 -399 80 -108 88 -116 200 -189 132 -86 183 -109 327 -145 l109 -28 0 98
c0 59 4 99 10 99 6 0 10 9 10 21 0 11 4 18 8 15 5 -3 9 47 11 111 1 64 5 121
8 126 3 6 1 7 -5 3 -7 -4 -12 -33 -12 -68 0 -34 -2 -59 -5 -56 -10 10 -12 133
-3 145 6 7 8 18 5 25 -4 8 -6 7 -6 -4 -2 -35 -21 -17 -21 20 0 65 -17 109 -46
116 -13 4 -22 11 -19 17 4 5 3 8 -2 7 -17 -6 -64 42 -101 103 -26 42 -46 64
-58 65 -10 0 -95 -3 -189 -6z m185 -570 c14 -11 30 -20 36 -20 6 0 29 -8 50
-17 48 -21 41 -18 92 -28 25 -4 42 -13 42 -21 0 -19 -25 -18 -44 2 -9 8 -16
13 -16 10 0 -8 -111 33 -139 51 -15 9 -37 23 -51 30 -14 7 -18 13 -10 13 8 0
26 -9 40 -20z"/>
<path d="M2361 2527 c-2 -50 84 -154 145 -178 38 -14 41 -3 5 15 -54 28 -104
79 -127 131 -13 28 -23 42 -23 32z"/>
<path d="M4723 2515 c-6 -14 -7 -25 -2 -25 11 0 22 25 17 39 -1 6 -8 -1 -15
-14z"/>
<path d="M2790 2473 c-34 -54 -142 -153 -167 -153 -10 0 -12 -22 -11 -82 l2
-83 3 72 c4 68 6 73 36 94 50 34 106 89 148 146 l39 53 183 3 182 2 -190 2
-190 2 -35 -56z"/>
<path d="M3206 2465 c-10 -38 -31 -100 -46 -136 -32 -75 -116 -218 -139 -236
-9 -6 -12 -15 -7 -20 5 -4 11 -2 13 5 3 6 8 10 13 7 4 -2 30 19 57 48 61 65
126 192 148 292 9 41 21 77 25 80 4 3 36 2 70 -2 l61 -6 -6 -51 c-15 -110 -72
-248 -152 -368 -90 -135 -121 -159 -353 -283 -34 -18 -175 -61 -227 -70 l-43
-7 0 69 0 69 62 13 c34 7 84 21 111 31 62 24 197 111 197 128 0 6 5 12 10 12
6 0 10 5 10 10 0 6 -6 10 -13 10 -13 0 -15 5 -19 48 0 9 -6 20 -12 24 -6 4 -3
10 8 14 12 5 23 2 31 -9 7 -10 18 -17 25 -17 7 0 2 14 -14 34 -14 19 -26 39
-26 45 0 22 -18 10 -24 -15 -4 -16 -17 -29 -36 -36 -35 -12 -39 -25 -8 -30 12
-2 28 -14 35 -28 11 -22 10 -27 -10 -44 -51 -44 -279 -136 -335 -136 -7 0 -9
18 -5 51 6 48 -16 374 -24 365 -2 -2 -6 -102 -8 -222 -3 -133 -1 -211 5 -199
5 11 9 14 9 6 2 -34 205 17 283 71 35 24 60 23 28 -2 -57 -46 -265 -120 -291
-105 -5 4 -9 -32 -9 -88 l0 -95 63 14 c121 25 203 56 326 122 68 37 143 84
166 105 88 76 221 322 249 459 24 116 25 114 -36 122 -80 9 -130 8 -123 -4 4
-6 -7 -54 -24 -108 -30 -96 -83 -199 -123 -237 -12 -12 -8 -1 11 28 60 88 124
257 119 311 -2 26 -6 19 -22 -39z m-231 -425 c-3 -5 -16 -15 -28 -21 -21 -10
-21 -9 2 10 25 23 36 27 26 11z"/>
<path d="M4508 2524 c-23 -22 60 -108 127 -133 52 -20 139 -30 151 -18 3 3 3
19 -1 34 -6 24 -8 25 -16 11 -13 -23 -73 -33 -117 -20 -47 14 -111 67 -126
104 -7 16 -15 26 -18 22z"/>
<path d="M1272 2438 c3 -46 2 -70 -2 -53 -4 17 -8 52 -9 78 -1 30 -5 46 -11
42 -21 -13 24 -237 74 -368 26 -69 113 -247 121 -247 3 0 -1 13 -10 30 -22 42
-18 51 5 12 13 -21 18 -42 15 -55 -4 -15 -3 -18 3 -9 5 8 12 13 16 12 4 -1 33
12 65 28 l58 29 -40 74 c-80 145 -123 268 -157 452 l-11 57 -61 0 -61 0 5 -82z
m111 12 c32 -182 56 -251 137 -411 l50 -97 -23 -14 c-46 -30 -57 -29 -78 5
-65 104 -143 291 -148 357 0 8 -8 54 -17 103 -20 108 -17 116 33 108 36 -6 38
-9 46 -51z"/>
<path d="M636 2475 c-8 -33 -47 -67 -68 -61 -10 2 -16 0 -12 -5 3 -5 -2 -9
-10 -9 -20 0 -20 -18 -2 -135 17 -106 46 -225 76 -313 31 -90 34 -72 4 23 -29
90 -59 231 -69 320 -4 33 -9 67 -11 77 -4 12 4 18 25 23 34 7 81 57 81 86 0
26 -7 24 -14 -6z"/>
<path d="M4478 2495 c-13 -13 15 -66 47 -90 47 -36 55 -31 11 8 -20 18 -40 46
-44 61 -4 15 -10 24 -14 21z"/>
<path d="M4621 2464 c-2 -21 26 -36 46 -25 16 9 15 10 -9 11 -14 0 -29 6 -31
13 -4 7 -6 8 -6 1z"/>
<path d="M4586 2372 c-2 -4 -9 -50 -15 -102 -20 -174 -81 -378 -170 -565 -26
-55 -46 -107 -44 -115 4 -11 2 -12 -4 -2 -10 13 -35 -9 -67 -60 -16 -24 -16
-30 -1 -82 9 -31 20 -58 25 -61 12 -7 70 6 70 16 0 5 -11 9 -24 9 -16 0 -28 9
-38 30 -15 32 -13 84 3 74 5 -3 9 4 9 14 0 11 7 23 16 26 8 3 12 2 9 -4 -3 -6
-1 -10 5 -10 6 0 13 6 16 14 6 16 70 12 88 -5 6 -5 17 -9 25 -9 34 1 -23 30
-72 36 l-49 7 25 21 c22 19 67 102 67 124 0 5 7 15 15 22 10 9 15 9 15 1 0 -6
5 -11 10 -11 6 0 10 7 10 15 0 8 -7 15 -16 15 -8 0 -13 4 -10 9 7 10 44 3 64
-12 7 -6 12 -6 12 0 0 5 -12 16 -27 23 -16 8 -30 16 -32 17 -10 6 45 103 59
104 10 0 11 2 3 6 -27 10 -13 33 20 34 l32 1 -30 13 c-30 14 -28 18 10 17 17
-1 17 0 3 4 -10 3 -18 13 -18 22 0 33 -8 18 -109 -222 -12 -27 -24 -47 -27
-44 -4 5 45 141 81 223 23 52 34 97 44 183 6 46 13 86 15 90 2 4 7 38 11 75 6
61 4 79 -9 59z"/>
<path d="M501 2365 c0 -5 7 -26 14 -45 9 -23 14 -28 14 -15 0 11 -6 31 -14 45
-8 14 -14 21 -14 15z"/>
<path d="M458 2353 c7 -3 16 -2 19 1 4 3 -2 6 -13 5 -11 0 -14 -3 -6 -6z"/>
<path d="M370 2275 c0 -16 3 -39 6 -51 6 -21 61 -54 92 -54 9 0 24 -5 32 -11
13 -9 12 -10 -2 -5 -10 3 -18 1 -18 -4 0 -6 14 -10 31 -10 l32 0 -7 51 c-4 29
-13 65 -19 82 -13 30 -15 31 -80 31 l-67 1 0 -30z m104 0 c-4 -8 -1 -15 5 -15
6 0 11 5 11 10 0 6 5 10 10 10 6 0 10 -11 10 -25 0 -23 -4 -25 -45 -25 -41 0
-45 2 -45 25 0 14 5 25 11 25 5 0 7 -4 4 -10 -3 -5 -1 -10 5 -10 6 0 13 7 16
15 4 8 10 15 15 15 4 0 6 -7 3 -15z m43 -77 c-5 -15 -60 -13 -86 2 -11 7 -1 9
37 10 39 0 52 -3 49 -12z"/>
<path d="M4674 2288 c-3 -4 4 -8 15 -8 12 0 21 4 21 8 0 5 -7 9 -15 9 -9 0
-18 -4 -21 -9z"/>
<path d="M4611 2262 c-6 -15 -12 -42 -13 -59 -1 -18 -6 -33 -11 -33 -4 0 -5
-4 -2 -10 4 -6 12 -6 23 1 13 8 16 21 14 51 -3 29 0 43 13 52 16 11 16 14 2
19 -10 4 -19 -3 -26 -21z"/>
<path d="M2111 2205 c-1 -17 -8 -40 -16 -52 -17 -25 -4 -41 15 -18 7 8 19 15
28 15 11 0 13 -8 9 -34 l-5 -34 32 21 32 22 -31 30 c-17 16 -38 41 -47 55
l-17 25 0 -30z"/>
<path d="M4654 2174 c-18 -14 -18 -15 4 -4 12 6 22 13 22 15 0 8 -5 6 -26 -11z"/>
<path d="M1692 2130 c-44 -24 -49 -30 -26 -30 10 0 33 11 49 25 35 28 25 30
-23 5z"/>
<path d="M3396 2129 c3 -6 27 -20 53 -32 25 -12 49 -23 54 -25 4 -2 7 1 7 7 0
6 -5 11 -11 11 -5 0 -27 11 -47 25 -38 26 -68 33 -56 14z"/>
<path d="M484 2120 c-12 -5 -25 -13 -28 -19 -5 -8 49 14 63 26 8 6 -14 2 -35
-7z"/>
<path d="M2220 2110 c0 -5 5 -10 11 -10 5 0 7 5 4 10 -3 6 -8 10 -11 10 -2 0
-4 -4 -4 -10z"/>
<path d="M4580 2077 c0 -29 5 -35 46 -55 25 -12 49 -20 54 -17 18 11 20 -36 5
-89 -26 -88 -93 -256 -130 -324 -19 -34 -36 -65 -37 -68 -2 -4 7 -11 20 -15
18 -7 21 -12 13 -26 -18 -35 -93 -113 -102 -107 -5 3 -9 0 -9 -7 0 -7 -6 -4
-14 7 -8 10 -18 16 -21 12 -12 -12 4 -40 25 -45 11 -3 20 -9 20 -14 0 -5 -24
-37 -53 -71 -68 -81 -111 -138 -104 -138 13 0 297 367 297 383 0 4 -11 12 -25
17 -14 5 -25 12 -25 15 0 3 14 34 31 68 18 34 60 134 94 223 l61 161 -24 29
c-13 16 -21 23 -17 15 5 -9 3 -12 -6 -9 -8 3 -16 15 -17 27 -3 16 0 21 8 16 9
-6 10 -3 2 10 -5 10 -18 20 -28 21 -10 2 -28 5 -41 9 -21 5 -23 2 -23 -28z
m54 -22 c-4 -8 -10 -15 -15 -15 -5 0 -9 7 -9 15 0 8 7 15 15 15 9 0 12 -6 9
-15z"/>
<path d="M483 2090 c-12 -5 -25 -22 -29 -37 -4 -15 -18 -37 -32 -49 l-25 -20
58 -145 c32 -79 64 -155 72 -169 19 -33 13 -16 -53 155 l-54 140 21 17 c11 10
18 21 16 25 -2 4 -1 17 4 28 7 19 8 19 8 -2 1 -13 5 -23 11 -23 20 0 80 34 80
46 0 42 -28 54 -77 34z m47 -40 c-8 -5 -22 -10 -30 -10 -13 0 -13 1 0 10 8 5
11 10 5 10 -5 0 -3 5 5 10 9 6 18 6 25 -1 6 -6 5 -13 -5 -19z"/>
<path d="M570 2020 c0 -27 78 -217 133 -325 35 -68 61 -124 58 -123 -28 3 -31
-4 -12 -28 25 -32 26 -43 2 -71 -26 -31 -62 -37 -105 -19 -42 17 -47 9 -10
-17 34 -25 83 -19 117 15 28 29 34 57 17 88 -8 16 -8 18 5 14 8 -4 15 -10 15
-16 0 -5 5 -6 12 -2 6 4 8 3 5 -3 -4 -6 -8 -31 -8 -56 -2 -49 -18 -65 -72 -71
-15 -1 -33 -8 -39 -14 -18 -18 -46 -14 -53 8 -3 11 -10 20 -15 20 -5 0 -18 16
-30 35 -19 31 -20 37 -7 56 11 14 16 17 19 7 3 -7 7 -1 10 15 4 21 2 25 -7 17
-10 -8 -17 0 -31 35 -9 25 -22 48 -27 52 -11 7 -10 5 17 -59 16 -36 15 -39 -4
-55 -11 -10 -20 -22 -19 -28 0 -15 112 -158 127 -163 6 -2 12 3 12 11 0 27 35
47 82 47 56 0 73 18 81 86 5 48 4 54 -24 78 -16 15 -44 50 -62 79 -40 64 -138
273 -162 345 -16 49 -25 65 -25 42z"/>
<path d="M532 1975 c-37 -20 -39 -28 -4 -20 24 5 32 3 32 -8 0 -8 7 -20 15
-27 13 -11 13 -8 4 21 -15 45 -20 48 -47 34z"/>
<path d="M4653 1964 c-7 -7 -13 -18 -13 -24 0 -5 -4 -10 -10 -10 -5 0 -7 -7
-3 -15 3 -9 -4 -41 -15 -73 -11 -31 -26 -77 -32 -102 -7 -25 -25 -71 -41 -104
-30 -61 -36 -81 -19 -71 19 12 48 80 100 238 51 154 58 189 33 161z"/>
<path d="M450 1958 c0 -15 117 -323 135 -357 12 -23 14 -23 15 -6 0 17 2 17
10 5 13 -21 12 -6 -1 24 -7 14 -16 23 -22 19 -6 -4 -7 -1 -2 7 4 7 3 15 -2 19
-15 10 -62 136 -52 139 5 2 9 8 9 13 0 4 -6 6 -14 3 -10 -4 -18 10 -27 48 -8
29 -14 60 -14 68 0 8 -8 16 -18 18 -9 2 -17 2 -17 0z"/>
<path d="M1319 1862 c-60 -63 -127 -167 -116 -178 3 -3 20 23 39 58 19 36 60
89 97 125 36 35 60 63 54 63 -6 0 -39 -31 -74 -68z"/>
<path d="M1547 1890 c-71 -34 -72 -35 -58 -52 6 -7 33 -42 60 -78 60 -82 219
-234 272 -261 22 -11 65 -36 96 -56 87 -56 237 -114 388 -151 22 -6 30 -10 19
-11 -38 -2 -227 59 -321 104 -51 24 -93 42 -93 39 0 -9 159 -83 230 -106 123
-41 356 -86 344 -66 -3 4 2 8 10 8 13 0 16 13 16 68 l0 68 -82 12 c-153 22
-342 93 -472 176 -32 20 -59 36 -60 34 -1 -2 -17 -27 -35 -55 -32 -52 -45 -62
-55 -45 -5 9 48 89 69 105 6 4 -29 44 -86 100 -52 50 -115 115 -140 144 l-44
51 -58 -28z m95 -47 c20 -27 73 -83 117 -126 45 -43 81 -84 81 -91 0 -19 -39
-66 -55 -66 -30 0 -265 253 -265 285 0 11 55 43 75 44 6 1 27 -20 47 -46z
m432 -349 c97 -44 239 -88 339 -104 l77 -13 0 -44 0 -44 -47 6 c-165 23 -313
65 -428 123 -85 42 -154 84 -155 95 0 4 10 22 22 41 l22 33 47 -28 c25 -16 81
-45 123 -65z m361 -223 c26 -6 31 -9 15 -9 -14 -1 -43 3 -65 7 -26 6 -31 9
-15 9 14 1 43 -3 65 -7z"/>
<path d="M3779 1873 c80 -83 130 -157 123 -184 -2 -10 37 -18 43 -9 3 5 -4 11
-15 15 -11 3 -20 13 -20 22 0 31 -148 203 -175 203 -1 0 18 -21 44 -47z"/>
<path d="M3445 1838 c-33 -39 -92 -99 -132 -132 -39 -34 -72 -64 -72 -67 -1
-4 15 -30 34 -59 38 -56 44 -80 20 -80 -8 0 -27 25 -42 55 -15 30 -31 55 -35
55 -4 0 -39 -21 -78 -46 -136 -88 -298 -143 -492 -169 l-48 -6 0 -61 0 -61 73
7 c79 8 304 63 388 96 30 12 101 47 159 77 83 44 123 74 193 142 128 125 243
261 220 261 -10 0 -42 14 -72 30 -30 17 -55 30 -55 30 -1 0 -28 -32 -61 -72z
m113 22 c23 -11 42 -24 42 -28 0 -14 -173 -205 -226 -250 l-49 -41 -28 46 -28
45 88 83 c49 45 101 101 117 124 16 22 32 41 35 41 4 0 26 -9 49 -20z m-318
-319 c15 -31 17 -42 7 -48 -26 -17 -113 -64 -137 -74 -14 -6 -34 -16 -44 -21
-80 -42 -418 -121 -445 -104 -13 8 -5 69 10 77 8 4 54 12 102 18 49 7 131 27
185 47 53 19 102 36 107 37 6 1 12 4 15 8 3 3 21 13 40 23 19 9 55 30 80 46
25 16 48 29 52 29 4 1 17 -17 28 -38z"/>
<path d="M591 1889 c-1 -8 6 -24 15 -35 15 -19 15 -19 6 1 -5 11 -12 27 -15
35 -5 13 -6 13 -6 -1z"/>
<path d="M1362 1853 c-53 -46 -94 -100 -112 -148 -5 -14 -6 -25 -2 -25 4 0 14
16 21 35 12 34 116 148 142 157 6 2 10 9 8 15 -2 7 -27 -8 -57 -34z"/>
<path d="M3720 1887 c0 -11 -4 -15 -12 -11 -7 4 -8 3 -4 -5 4 -6 11 -9 16 -6
10 6 76 -63 73 -75 -1 -5 5 -14 14 -22 14 -11 16 -11 8 1 -5 10 -4 12 4 7 6
-4 9 -11 6 -16 -3 -5 -1 -11 5 -15 6 -3 18 -21 27 -38 12 -25 5 -20 -33 22
-27 30 -48 58 -46 63 1 4 -4 7 -10 6 -7 -2 -11 4 -10 12 2 8 0 12 -4 7 -4 -4
-20 5 -36 20 -15 14 -30 24 -33 21 -3 -3 26 -35 65 -71 39 -37 69 -71 65 -77
-4 -6 -2 -9 4 -8 5 2 16 -6 24 -17 13 -16 17 -17 31 -6 14 12 13 16 -9 45 -14
18 -25 37 -25 42 -1 5 -28 38 -60 74 -41 44 -60 59 -60 47z"/>
<path d="M650 1875 c0 -5 5 -17 10 -25 5 -8 10 -10 10 -5 0 6 -5 17 -10 25 -5
8 -10 11 -10 5z"/>
<path d="M1356 1779 c-37 -39 -72 -82 -78 -95 -7 -14 -17 -23 -24 -20 -9 3
-12 -17 -10 -82 3 -134 46 -204 172 -278 42 -25 59 -28 124 -28 41 0 80 2 86
5 7 2 13 0 13 -6 1 -5 -20 -13 -46 -16 -41 -6 -37 -6 23 -5 50 1 71 5 71 14 0
7 -6 11 -13 8 -7 -3 -15 2 -18 10 -3 9 1 17 12 21 9 3 44 31 76 62 65 60 58
44 -10 -29 -38 -40 -41 -47 -29 -64 13 -18 15 -18 44 3 17 12 42 36 55 54 16
19 26 26 26 17 0 -20 49 40 49 60 1 8 -9 0 -20 -17 -22 -35 -35 -44 -25 -17 3
8 -16 -9 -43 -39 -28 -29 -57 -54 -65 -54 -23 0 -20 10 15 43 35 33 102 127
76 105 -19 -15 -23 -1 -5 17 7 7 9 12 5 12 -3 0 -27 -23 -53 -50 -26 -28 -63
-60 -83 -72 -20 -12 -39 -27 -43 -32 -4 -6 -40 -12 -81 -14 -59 -3 -84 0 -119
16 -54 24 -123 84 -145 126 -15 29 -34 213 -23 218 3 2 19 23 35 48 17 24 54
68 83 97 29 29 48 53 43 53 -5 0 -39 -32 -75 -71z"/>
<path d="M599 1803 c-12 -16 -12 -17 2 -6 9 7 19 10 22 6 4 -3 7 -1 7 5 0 17
-16 15 -31 -5z"/>
<path d="M1387 1770 c-71 -79 -77 -97 -75 -219 l1 -106 6 101 c5 88 10 106 35
145 15 24 44 59 63 77 24 22 32 37 26 43 -7 7 -26 -7 -56 -41z m43 26 c0 -2
-8 -10 -17 -17 -16 -13 -17 -12 -4 4 13 16 21 21 21 13z"/>
<path d="M3720 1766 l54 -56 -27 -28 c-35 -37 -22 -51 15 -15 39 37 44 24 7
-20 -17 -20 -24 -35 -17 -32 7 3 22 18 33 35 27 40 43 23 48 -48 l3 -57 2 57
2 57 -62 66 c-34 36 -74 73 -88 81 -14 9 0 -9 30 -40z"/>
<path d="M1480 1782 c0 -12 19 -26 26 -19 2 2 -2 10 -11 17 -9 8 -15 8 -15 2z"/>
<path d="M563 1773 c-7 -2 -13 -9 -13 -14 0 -6 7 -6 19 0 10 6 21 8 24 5 3 -3
8 -1 12 5 6 11 -19 14 -42 4z"/>
<path d="M1531 1717 c21 -37 39 -56 39 -40 0 4 -14 24 -31 43 l-30 35 22 -38z"/>
<path d="M4531 1737 c-1 -21 21 -18 27 4 3 12 2 12 -6 0 -8 -11 -10 -11 -15 0
-4 10 -6 8 -6 -4z"/>
<path d="M3543 1698 c-20 -26 -26 -41 -15 -34 12 7 36 46 29 46 -3 0 -9 -6
-14 -12z"/>
<path d="M2191 1666 c-27 -43 -27 -69 -1 -37 11 13 20 29 20 37 0 7 8 18 18
23 15 9 15 10 0 11 -9 0 -26 -15 -37 -34z"/>
<path d="M2890 1696 c0 -13 45 -86 53 -86 10 0 9 2 -8 37 -15 30 -45 62 -45
49z"/>
<path d="M1172 1673 c2 -10 15 -18 33 -20 l30 -3 -25 20 c-31 24 -42 25 -38 3z"/>
<path d="M2527 1683 c-11 -10 -8 -271 2 -278 16 -9 24 80 17 183 -6 98 -8 107
-19 95z"/>
<path d="M2568 1674 c-5 -18 -4 -209 1 -251 0 -7 8 -13 16 -13 13 0 15 21 15
131 0 77 -4 128 -9 124 -5 -3 -11 3 -13 12 -3 15 -5 15 -10 -3z"/>
<path d="M4490 1670 c0 -5 5 -10 10 -10 6 0 10 5 10 10 0 6 -4 10 -10 10 -5 0
-10 -4 -10 -10z"/>
<path d="M680 1661 c0 -6 4 -13 10 -16 6 -3 7 1 4 9 -7 18 -14 21 -14 7z"/>
<path d="M3890 1661 c0 -6 3 -11 8 -11 7 0 6 -166 -3 -187 -2 -7 0 -13 5 -13
6 0 10 -4 10 -9 0 -5 -6 -8 -12 -7 -7 0 -15 -3 -18 -9 -3 -5 6 -11 20 -13 l25
-3 0 128 c0 114 -2 128 -17 131 -10 2 -18 -1 -18 -7z"/>
<path d="M1514 1646 c-45 -20 -114 -85 -114 -107 0 -25 29 -94 36 -86 3 3 -2
19 -10 36 -9 16 -16 36 -16 44 0 26 80 96 116 103 19 3 37 10 40 15 8 13 -16
10 -52 -5z"/>
<path d="M3860 1650 c0 -5 5 -10 10 -10 6 0 10 5 10 10 0 6 -4 10 -10 10 -5 0
-10 -4 -10 -10z"/>
<path d="M3579 1626 c38 -20 46 -29 49 -57 6 -53 24 -62 21 -11 -3 39 -7 46
-44 68 -23 13 -48 24 -56 24 -8 -1 6 -11 30 -24z"/>
<path d="M1204 1528 l7 -116 -28 -21 c-15 -13 -40 -25 -55 -28 -16 -3 -28 -9
-28 -14 0 -17 26 -9 77 26 58 39 63 41 63 23 0 -7 28 -41 62 -75 l62 -63 -24
-27 c-14 -16 -40 -46 -60 -68 -19 -22 -5 -11 32 24 l66 64 34 -21 c24 -15 59
-22 131 -28 75 -5 97 -10 97 -21 0 -8 6 -13 13 -10 6 2 12 9 12 15 0 17 41 43
57 37 14 -6 188 149 188 168 0 6 -18 -7 -40 -28 -23 -22 -42 -38 -44 -35 -1 3
-17 -11 -34 -31 -17 -20 -53 -47 -80 -60 -45 -23 -56 -24 -159 -18 -108 6
-111 7 -171 48 -69 46 -88 67 -51 56 21 -7 20 -3 -13 33 -20 22 -42 50 -48 62
-6 12 -14 19 -17 17 -2 -3 1 -15 7 -27 19 -36 4 -34 -18 2 -14 24 -21 58 -25
123 -3 59 -2 76 3 50 l8 -40 -2 44 c0 28 -6 46 -15 49 -12 4 -13 -14 -7 -110z
m99 -166 c10 -10 14 -22 10 -25 -7 -8 -43 21 -43 35 0 14 16 9 33 -10z"/>
<path d="M1630 1621 c0 -6 4 -13 10 -16 6 -3 7 1 4 9 -7 18 -14 21 -14 7z"/>
<path d="M3881 1603 c0 -17 -7 -55 -13 -85 -12 -50 -13 -51 -19 -23 l-7 30 -1
-31 c-1 -39 -32 -80 -106 -140 l-60 -49 -85 -3 c-82 -4 -89 -2 -140 28 -30 18
-66 42 -80 53 l-25 22 20 -23 c11 -13 46 -39 79 -59 58 -33 61 -34 145 -30
114 7 136 11 136 28 0 7 11 19 24 25 78 39 153 184 138 264 -4 22 -4 21 -6 -7z"/>
<path d="M1538 1613 c7 -3 16 -2 19 1 4 3 -2 6 -13 5 -11 0 -14 -3 -6 -6z"/>
<path d="M3502 1613 c-19 -4 -21 -7 -11 -19 16 -19 26 -18 32 6 3 11 4 19 4
19 -1 -1 -12 -4 -25 -6z"/>
<path d="M4495 1610 c3 -5 8 -10 11 -10 2 0 4 5 4 10 0 6 -5 10 -11 10 -5 0
-7 -4 -4 -10z"/>
<path d="M1476 1584 c-18 -46 5 -111 41 -120 13 -4 27 -4 30 0 4 3 -3 6 -15 6
-11 0 -23 4 -26 9 -4 5 9 6 29 1 42 -9 66 5 90 56 12 26 14 39 6 47 -8 8 -11
3 -11 -16 0 -35 -41 -77 -75 -77 -28 0 -65 32 -65 56 0 8 5 24 10 35 6 11 7
19 1 19 -5 0 -12 -7 -15 -16z"/>
<path d="M1656 1575 c4 -8 8 -15 10 -15 2 0 4 7 4 15 0 8 -4 15 -10 15 -5 0
-7 -7 -4 -15z"/>
<path d="M675 1570 c-4 -6 5 -10 19 -10 14 0 26 5 26 10 0 6 -9 10 -19 10 -11
0 -23 -4 -26 -10z"/>
<path d="M637 1559 c6 -6 9 -19 6 -28 -4 -13 -2 -13 7 2 12 19 6 37 -13 37 -8
0 -8 -3 0 -11z"/>
<path d="M3439 1519 c31 -70 61 -92 129 -97 37 -3 62 0 66 7 5 7 -6 9 -36 5
-80 -11 -125 21 -152 109 -3 9 -10 17 -15 17 -6 0 -2 -19 8 -41z"/>
<path d="M3547 1553 c-12 -11 -8 -40 7 -52 11 -9 18 -8 30 4 20 21 20 41 0 49
-20 8 -29 8 -37 -1z"/>
<path d="M3695 1523 c-3 -21 -20 -62 -37 -92 -24 -43 -27 -56 -16 -63 32 -21
48 -28 48 -20 0 5 -12 14 -26 20 -26 13 -27 12 12 70 21 31 41 108 31 118 -2
3 -8 -12 -12 -33z"/>
<path d="M3794 1545 c-17 -13 -17 -14 -2 -15 9 0 20 5 23 11 11 17 0 20 -21 4z"/>
<path d="M3851 1544 c0 -11 3 -14 6 -6 3 7 2 16 -1 19 -3 4 -6 -2 -5 -13z"/>
<path d="M4346 1512 c-6 -19 19 -81 38 -94 21 -15 55 -8 85 18 17 14 28 31 25
36 -4 7 -15 0 -26 -15 -12 -16 -29 -27 -43 -27 -30 0 -78 55 -70 81 4 11 4 19
1 19 -2 0 -7 -8 -10 -18z"/>
<path d="M1656 1493 c-6 -14 -5 -15 5 -6 7 7 10 15 7 18 -3 3 -9 -2 -12 -12z"/>
<path d="M1611 1444 c-27 -19 -46 -24 -95 -24 -35 0 -67 5 -74 12 -7 7 -12 8
-12 3 0 -6 -4 -4 -9 4 -7 11 -13 10 -32 -8 -12 -11 -27 -21 -33 -21 -5 0 -7
-3 -4 -6 4 -3 19 1 35 9 17 9 35 11 48 6 11 -4 50 -8 87 -8 62 -1 71 2 100 29
40 35 35 37 -11 4z"/>
<path d="M3712 1440 c0 -14 2 -19 5 -12 2 6 2 18 0 25 -3 6 -5 1 -5 -13z"/>
<path d="M3280 1444 c0 -4 18 -28 40 -54 48 -57 51 -69 10 -40 -17 12 -28 26
-24 31 3 5 1 8 -4 7 -5 -2 -19 8 -31 22 -17 19 -20 20 -12 5 18 -38 87 -99
101 -90 6 4 15 3 21 -1 8 -4 4 -11 -11 -19 -21 -11 -27 -9 -57 18 -19 17 -43
47 -55 66 -12 19 -23 30 -26 23 -11 -35 163 -203 210 -201 19 1 18 2 -8 10
-28 8 -67 39 -50 39 4 0 2 9 -3 19 -12 21 7 35 34 25 13 -5 13 -8 0 -21 -25
-24 -16 -40 18 -34 5 1 5 -4 1 -10 -4 -7 -3 -9 4 -5 6 3 18 -2 28 -11 27 -27
197 -22 235 6 l28 21 45 -47 c25 -25 46 -42 46 -38 0 5 -16 26 -36 46 l-37 37
38 34 c21 18 46 40 55 48 30 27 52 68 40 75 -5 3 -13 -2 -17 -12 -4 -10 -19
-30 -34 -45 -15 -15 -29 -31 -31 -35 -1 -5 -17 -18 -35 -30 -24 -17 -34 -20
-39 -10 -4 6 -4 9 0 6 10 -9 104 89 122 126 l14 30 -17 -25 c-33 -46 -86 -100
-113 -117 -16 -9 -26 -22 -23 -29 10 -27 -39 -44 -133 -44 -78 0 -93 3 -109
20 -10 11 -24 20 -32 20 -7 0 -13 5 -13 11 0 5 5 7 10 4 6 -3 10 -1 10 4 0 6
8 11 17 11 10 0 0 9 -22 21 -47 25 -90 64 -113 101 -15 25 -42 45 -42 32z m94
-170 c5 -14 4 -15 -9 -4 -17 14 -19 20 -6 20 5 0 12 -7 15 -16z"/>
<path d="M3320 1443 c0 -6 8 -17 18 -24 16 -13 16 -13 2 6 -8 11 -16 22 -17
24 -2 2 -3 0 -3 -6z"/>
<path d="M3125 1389 c-131 -63 -373 -129 -478 -129 -24 0 -37 -4 -31 -9 12
-11 133 4 243 30 95 22 229 73 311 118 77 43 51 37 -45 -10z"/>
<path d="M3430 1415 c-14 -8 -20 -14 -15 -14 6 0 21 6 35 14 14 8 21 14 15 14
-5 0 -21 -6 -35 -14z"/>
<path d="M4088 1349 c-62 -86 -129 -170 -158 -197 -130 -122 -258 -251 -230
-231 58 40 298 279 349 348 48 64 95 141 87 141 -3 0 -24 -27 -48 -61z"/>
<path d="M3980 1351 c0 -10 30 -24 37 -17 3 2 -5 9 -16 16 -12 6 -21 7 -21 1z"/>
<path d="M738 1343 c6 -2 18 -2 25 0 6 3 1 5 -13 5 -14 0 -19 -2 -12 -5z"/>
<path d="M1076 1280 c53 -71 261 -290 309 -323 17 -12 -19 28 -80 88 -60 61
-135 139 -165 174 -97 113 -113 127 -64 61z"/>
<path d="M1360 1310 c0 -5 7 -10 16 -10 8 0 12 5 9 10 -3 6 -10 10 -16 10 -5
0 -9 -4 -9 -10z"/>
<path d="M701 1271 c48 -55 83 -101 90 -120 9 -21 39 -47 39 -33 0 6 -4 13 -9
16 -5 3 -25 30 -44 58 -40 60 -90 118 -102 118 -4 0 8 -17 26 -39z"/>
<path d="M1406 1276 c3 -9 11 -16 16 -16 13 0 5 23 -10 28 -7 2 -10 -2 -6 -12z"/>
<path d="M3499 1269 c21 -7 52 -7 85 -1 50 9 49 10 -34 10 -71 0 -79 -1 -51
-9z"/>
<path d="M2520 943 c0 -322 -1 -332 -20 -338 -21 -7 -80 -73 -80 -91 0 -6 7
-11 15 -11 9 0 14 5 12 11 -7 18 30 62 62 76 41 17 43 38 39 377 -2 209 -6
285 -15 295 -10 10 -13 -54 -13 -319z"/>
<path d="M2577 1260 c-9 -21 -14 -651 -5 -637 5 8 8 6 8 -5 0 -10 11 -19 30
-23 54 -12 90 -86 85 -176 -4 -60 -18 -85 -39 -72 -5 3 -6 1 -3 -5 13 -20 45
-1 51 30 20 100 -11 199 -72 229 l-33 17 0 283 c-1 271 -8 392 -22 359z"/>
<path d="M3664 1260 c-11 -4 -55 -8 -98 -8 -42 0 -80 -3 -84 -7 -4 -4 39 -5
95 -3 56 1 105 6 109 11 12 12 1 15 -22 7z"/>
<path d="M1498 1253 c6 -2 18 -2 25 0 6 3 1 5 -13 5 -14 0 -19 -2 -12 -5z"/>
<path d="M957 1103 c-12 -12 -7 -25 7 -20 8 3 20 -1 26 -9 10 -11 9 -14 -9
-14 -12 0 -29 9 -38 20 -18 21 -67 27 -78 10 -3 -6 4 -10 17 -10 29 -1 37 -7
125 -102 59 -62 74 -74 84 -62 20 25 1 73 -53 134 -50 57 -67 68 -81 53z m70
-69 c-3 -3 -12 -4 -19 -1 -8 3 -5 6 6 6 11 1 17 -2 13 -5z m50 -89 c-3 -13 -5
-10 -6 10 -1 26 -3 27 -12 12 -6 -9 -14 -15 -20 -12 -5 4 -1 16 8 30 18 23 18
23 26 2 4 -12 6 -30 4 -42z"/>
<path d="M4190 1090 c0 -5 -7 -7 -16 -3 -13 5 -15 2 -9 -15 4 -13 2 -22 -4
-22 -6 0 -11 9 -11 20 0 27 -12 25 -50 -6 -28 -24 -66 -81 -58 -89 2 -2 14 -6
28 -9 18 -4 33 1 53 19 16 14 25 30 22 35 -4 6 -2 9 3 8 5 -2 27 14 50 35 40
35 41 37 17 37 -14 0 -25 -4 -25 -10z m-64 -56 c-3 -9 -6 -23 -6 -31 0 -13 -2
-13 -16 -2 -10 8 -12 15 -5 17 6 2 11 10 11 18 0 8 5 14 11 14 6 0 8 -7 5 -16z
m-41 -34 c3 -5 1 -10 -4 -10 -6 0 -11 5 -11 10 0 6 2 10 4 10 3 0 8 -4 11 -10z"/>
<path d="M4030 930 c0 -35 10 -38 36 -9 16 17 16 22 4 29 -27 17 -40 11 -40
-20z m30 6 c0 -3 -4 -8 -10 -11 -5 -3 -10 -1 -10 4 0 6 5 11 10 11 6 0 10 -2
10 -4z"/>
<path d="M1071 882 c-1 -16 2 -19 102 -101 43 -35 80 -61 83 -58 3 3 -35 37
-85 77 -49 39 -92 77 -95 83 -3 8 -5 8 -5 -1z"/>
<path d="M3929 784 c-125 -103 -126 -104 -114 -104 6 0 22 10 36 23 15 12 61
49 102 82 63 50 97 85 84 85 -2 0 -50 -39 -108 -86z"/>
<path d="M3578 823 c7 -3 16 -2 19 1 4 3 -2 6 -13 5 -11 0 -14 -3 -6 -6z"/>
<path d="M1415 802 c-49 -17 -50 -18 -47 -56 3 -31 -2 -44 -24 -67 l-26 -27
63 -47 c35 -26 77 -54 92 -62 30 -15 30 -15 92 31 8 6 22 2 41 -11 33 -23 166
-83 306 -138 l97 -38 21 24 c11 13 34 43 51 67 29 41 57 57 45 26 -8 -21 11
-92 35 -125 14 -19 33 -29 75 -38 71 -14 141 -14 149 -1 4 6 -9 10 -32 10 -21
0 -51 7 -67 15 -16 9 -31 13 -34 10 -3 -3 0 -5 6 -5 7 0 12 -4 12 -9 0 -10
-22 -8 -62 5 -17 5 -18 8 -7 16 10 6 7 8 -11 6 -18 -2 -26 2 -28 17 -4 17 -2
18 12 6 23 -19 33 -5 13 17 -10 10 -17 22 -17 27 0 5 -7 17 -17 27 -9 10 -14
20 -11 23 12 13 37 -10 62 -55 15 -27 31 -52 36 -55 15 -9 12 29 -4 51 -14 18
-11 20 52 31 l67 11 -77 -1 c-42 -1 -74 1 -71 6 2 4 -1 7 -7 7 -7 0 -25 9 -41
21 -16 11 -35 19 -43 17 -7 -2 -33 -28 -57 -58 -30 -36 -54 -56 -70 -58 -32
-4 -206 61 -314 116 -101 52 -87 53 30 3 50 -21 135 -53 189 -71 l100 -33 33
39 c18 21 33 41 32 44 0 3 -87 47 -194 99 -107 52 -206 105 -222 118 -35 31
-36 31 137 -54 213 -104 365 -151 546 -169 l71 -6 12 50 c12 49 21 58 76 77
36 13 -3 17 -41 5 -37 -13 -54 -40 -54 -89 l0 -27 -110 12 c-60 7 -137 20
-171 28 -90 23 -249 88 -382 155 -64 33 -115 56 -112 50 11 -16 -12 -10 -26 8
-10 11 -10 14 -1 9 6 -4 12 -5 12 -2 0 3 -13 12 -30 21 -37 19 -91 18 -155 -3z
m22 -26 c-5 -11 0 -11 24 1 20 10 42 13 65 9 50 -10 42 -27 -10 -20 -35 5 -48
3 -64 -12 -47 -46 -24 -114 46 -134 46 -12 52 -12 52 0 0 6 -11 10 -25 10 -14
0 -37 11 -50 25 -54 53 -13 116 61 96 20 -6 42 -7 47 -4 6 3 7 1 3 -5 -5 -8 2
-12 18 -12 17 0 26 -6 26 -15 0 -16 39 -36 53 -28 4 2 6 -1 5 -9 -2 -8 5 -12
19 -10 12 2 25 -2 29 -9 5 -8 3 -9 -6 -4 -8 5 -11 4 -6 -3 4 -6 13 -9 21 -5 8
3 15 0 15 -6 0 -6 3 -10 8 -10 4 1 10 0 15 -1 4 -1 10 -3 15 -4 4 -1 21 -10
39 -19 18 -9 39 -17 47 -17 10 0 13 -6 9 -17 -4 -11 -3 -14 6 -9 14 9 71 -15
71 -29 -1 -5 -7 -23 -15 -40 l-15 -30 3 32 c2 18 0 30 -5 27 -4 -3 -8 -12 -8
-20 0 -8 -8 -14 -17 -14 -25 1 -124 35 -220 76 -86 37 -138 39 -164 8 -19 -23
-42 -16 -107 32 -61 45 -62 47 -47 70 8 13 16 36 17 51 2 29 24 63 41 63 5 0
7 -6 4 -14z m569 -260 c3 -8 0 -24 -6 -36 -9 -17 -14 -19 -26 -9 -10 8 -11 14
-4 19 6 4 10 11 9 16 -5 26 18 35 27 10z m152 -81 c-3 -3 -9 2 -12 12 -6 14
-5 15 5 6 7 -7 10 -15 7 -18z"/>
<path d="M1817 579 c3 -10 9 -16 14 -13 13 8 11 21 -5 27 -10 4 -12 0 -9 -14z"/>
<path d="M1770 576 c0 -8 4 -17 8 -20 4 -2 8 4 8 15 0 10 -4 19 -8 19 -4 0 -8
-6 -8 -14z"/>
<path d="M3537 808 c-10 -5 -15 -13 -12 -18 13 -22 -210 -146 -352 -196 -34
-12 -48 -21 -40 -27 7 -5 3 -6 -10 -2 -13 3 -31 1 -40 -5 -16 -10 -15 -10 5
-5 33 9 27 -4 -10 -20 -19 -7 -39 -10 -48 -5 -16 8 -38 7 -110 -8 -41 -9 -42
-10 -12 -11 45 -1 31 -21 -16 -22 -34 0 -35 -1 -15 -11 22 -11 22 -12 5 -42
-28 -51 -44 -66 -71 -66 -20 0 -27 -5 -28 -20 -2 -23 28 -26 89 -10 48 14 93
84 91 142 -1 21 1 38 5 38 4 0 27 -32 52 -70 37 -57 49 -69 65 -64 57 17 319
121 377 150 79 40 91 41 118 12 l20 -22 67 47 c38 26 81 58 98 72 l29 24 -27
21 c-22 17 -25 25 -17 45 10 27 2 37 -52 59 -47 20 -86 27 -93 16 -3 -5 -15
-6 -28 -1 -14 5 -30 5 -40 -1z m18 -8 c-3 -5 -12 -10 -18 -10 -7 0 -6 4 3 10
19 12 23 12 15 0z m103 -44 c20 -12 14 -74 -9 -97 -17 -17 -29 -20 -63 -15
-26 4 -36 3 -26 -3 34 -21 84 -17 110 9 15 15 20 33 20 70 0 48 1 50 20 38 13
-9 20 -24 20 -45 0 -18 5 -33 10 -33 6 0 10 -7 10 -15 0 -8 -7 -15 -15 -15 -8
0 -22 -8 -32 -18 -10 -11 -35 -30 -56 -44 -37 -25 -40 -25 -67 -10 -27 16 -31
15 -127 -30 -164 -78 -274 -120 -344 -133 -34 -6 -38 -4 -73 43 -38 52 -42 62
-27 62 11 0 30 -18 59 -55 l20 -26 64 15 c60 14 229 79 328 125 l45 21 -35 -4
c-19 -2 -65 -18 -103 -35 -37 -17 -70 -31 -74 -31 -4 0 -26 -9 -50 -21 -52
-25 -61 -23 -79 19 -11 27 -11 32 1 32 8 0 17 5 21 11 4 8 -1 9 -17 4 -18 -5
-21 -4 -9 4 8 6 23 8 33 5 9 -3 17 -1 17 4 0 6 10 12 23 16 13 3 40 17 61 31
40 27 51 31 41 15 -3 -5 1 -10 10 -10 9 0 13 5 10 10 -3 6 -1 10 5 10 7 0 24
9 39 19 15 11 34 21 41 23 16 3 25 9 61 41 20 18 37 23 75 22 27 -1 55 -4 62
-9z m-481 -235 c11 -30 2 -58 -15 -47 -6 3 -13 2 -17 -4 -12 -19 -22 -10 -28
27 -4 24 -2 40 6 45 24 15 43 8 54 -21z m-79 -22 c7 -12 11 -23 8 -26 -8 -9
-36 17 -36 33 0 20 13 17 28 -7z m-166 -66 c-24 -46 -58 -78 -92 -88 -23 -6
-22 -4 8 20 18 15 40 41 48 58 21 41 48 71 52 59 2 -6 -6 -28 -16 -49z"/>
<path d="M3440 670 c0 -5 5 -10 11 -10 5 0 7 5 4 10 -3 6 -8 10 -11 10 -2 0
-4 -4 -4 -10z"/>
<path d="M3320 620 c-13 -9 -13 -10 0 -9 8 0 24 4 35 9 l20 9 -20 0 c-11 0
-27 -4 -35 -9z"/>
<path d="M3320 580 c0 -15 21 -23 32 -12 6 6 2 11 -11 15 -12 3 -21 1 -21 -3z"/>
<path d="M3245 550 c-3 -5 -1 -10 4 -10 6 0 11 5 11 10 0 6 -2 10 -4 10 -3 0
-8 -4 -11 -10z"/>
<path d="M3330 690 c-19 -11 -30 -19 -25 -19 6 0 26 8 45 19 19 11 31 19 25
19 -5 0 -26 -8 -45 -19z"/>
<path d="M3249 655 c-83 -45 -292 -105 -437 -126 -45 -6 -85 -15 -88 -20 -3
-6 11 -7 33 -4 21 3 53 7 71 9 17 1 35 6 39 9 3 4 16 7 27 7 52 0 331 94 386
130 23 15 -2 11 -31 -5z"/>
<path d="M2620 646 c0 -3 20 -14 44 -25 35 -15 45 -26 51 -50 4 -17 11 -31 16
-31 12 0 12 5 -6 45 -8 19 -24 39 -37 44 -44 16 -68 22 -68 17z"/>
<path d="M2523 560 c-13 -5 -23 -12 -23 -16 0 -3 8 -3 18 1 24 11 94 6 109 -7
8 -6 16 -8 20 -4 4 3 -2 13 -13 21 -21 16 -77 19 -111 5z"/>
<path d="M2818 485 c22 -16 29 -52 15 -71 -5 -5 0 -1 10 9 28 31 20 59 -23 72
l-25 7 23 -17z"/>
<path d="M2424 473 c2 -10 10 -37 17 -61 17 -58 49 -82 108 -81 32 2 37 3 16
6 -62 8 -101 35 -96 66 0 4 -3 7 -8 7 -5 0 -12 18 -16 40 -4 22 -11 40 -17 40
-5 0 -7 -8 -4 -17z"/>
<path d="M2647 446 c5 -37 2 -46 -18 -60 -13 -9 -19 -16 -13 -16 23 0 44 38
44 78 0 23 -4 42 -9 42 -5 0 -6 -20 -4 -44z"/>
<path d="M2728 473 c7 -3 16 -2 19 1 4 3 -2 6 -13 5 -11 0 -14 -3 -6 -6z"/>
<path d="M2307 449 c-8 -29 10 -61 31 -57 12 2 17 13 17 38 0 28 -4 36 -21 38
-15 2 -23 -4 -27 -19z m40 -19 c2 -12 -3 -20 -12 -20 -15 0 -21 31 -8 43 9 9
16 1 20 -23z"/>
<path d="M2767 463 c-9 -8 -9 -48 -1 -56 14 -13 34 7 34 34 0 27 -17 39 -33
22z m23 -34 c0 -5 -4 -9 -10 -9 -5 0 -10 7 -10 16 0 8 5 12 10 9 6 -3 10 -10
10 -16z"/>
<path d="M2261 449 c-1 -8 6 -24 15 -35 15 -19 15 -19 6 1 -5 11 -12 27 -15
35 -5 13 -6 13 -6 -1z"/>
<path d="M2400 373 c0 -5 5 -15 10 -23 8 -12 10 -11 10 8 0 12 -4 22 -10 22
-5 0 -10 -3 -10 -7z"/>
<path d="M2734 322 c-27 -3 -30 -6 -26 -32 l4 -28 -162 0 c-139 0 -162 2 -167
16 -4 9 -1 18 5 20 19 6 14 22 -8 22 -17 0 -20 -7 -20 -41 l0 -40 204 3 c112
2 207 6 211 10 4 4 3 22 -1 40 -8 29 -12 33 -40 30z m16 -37 c0 -8 -7 -15 -15
-15 -16 0 -20 12 -8 23 11 12 23 8 23 -8z"/>
<path d="M2421 295 c0 -11 3 -14 6 -7 7 17 234 17 251 0 9 -9 12 -8 12 8 0 18
-8 19 -135 19 -130 1 -135 0 -134 -20z"/>
</g>
</svg>
