<?xml version="1.0" standalone="no"?>
<!DOCTYPE svg PUBLIC "-//W3C//DTD SVG 20010904//EN"
 "http://www.w3.org/TR/2001/REC-SVG-20010904/DTD/svg10.dtd">
<svg version="1.0" xmlns="http://www.w3.org/2000/svg"
 width="512.000000pt" height="512.000000pt" viewBox="0 0 512.000000 512.000000"
 preserveAspectRatio="xMidYMid meet">
<metadata>
Created by potrace 1.16, written by Peter Selinger 2001-2019
</metadata>
<g transform="translate(0.000000,512.000000) scale(0.100000,-0.100000)"
fill="#000000" stroke="none">
<path d="M2355 4853 c-232 -20 -540 -104 -752 -204 -319 -152 -579 -349 -803
-609 -267 -309 -458 -736 -514 -1145 -101 -740 141 -1445 670 -1955 279 -269
611 -463 952 -559 62 -17 122 -31 132 -31 11 0 28 -4 38 -9 45 -24 237 -42
454 -42 316 0 468 22 723 106 277 91 550 246 770 439 243 213 419 439 558 715
116 231 180 421 219 651 29 171 31 535 4 685 -22 120 -83 368 -101 410 -7 17
-21 53 -30 80 -35 97 -135 293 -211 413 -49 77 -195 261 -269 341 -96 103
-269 246 -414 342 -259 172 -516 279 -811 338 -169 34 -444 49 -615 34z m400
-23 c194 -26 351 -56 410 -79 11 -5 38 -14 60 -20 128 -39 336 -132 406 -181
15 -11 30 -20 34 -20 15 0 203 -129 285 -195 327 -264 574 -607 718 -1000 39
-105 53 -152 92 -315 51 -208 59 -570 20 -815 -17 -102 -56 -243 -107 -385
-135 -374 -352 -687 -669 -965 -92 -82 -234 -185 -252 -185 -6 0 -12 -4 -14
-8 -6 -15 -125 -82 -245 -138 -113 -54 -295 -119 -398 -144 -27 -6 -66 -15
-85 -20 -163 -40 -561 -53 -782 -26 -73 9 -144 21 -158 25 -14 5 -50 14 -80
21 -221 49 -479 165 -708 320 -64 43 -126 87 -137 97 -12 10 -50 43 -85 73
-104 89 -216 207 -316 335 -120 155 -254 397 -314 565 -6 19 -16 44 -20 55 -5
11 -18 49 -29 85 -114 367 -128 746 -41 1166 48 231 181 539 321 742 35 52 69
101 74 110 21 33 161 191 225 254 113 110 279 238 435 335 54 33 280 145 341
168 184 70 449 133 619 148 95 8 326 6 400 -3z"/>
<path d="M2340 4604 c-69 -7 -143 -16 -165 -19 -72 -12 -267 -65 -311 -85 -24
-11 -47 -20 -53 -20 -5 0 -26 -9 -48 -19 -21 -10 -72 -35 -113 -55 -41 -20
-106 -57 -145 -81 -38 -25 -80 -49 -92 -55 -13 -5 -23 -14 -23 -20 0 -5 -6
-10 -13 -10 -42 0 -447 -370 -447 -409 0 -6 -4 -11 -10 -11 -5 0 -10 -5 -10
-11 0 -6 -13 -24 -29 -40 -16 -16 -35 -42 -43 -59 -7 -16 -16 -30 -20 -30 -4
0 -15 -17 -24 -37 -10 -21 -24 -42 -31 -46 -7 -4 -13 -16 -13 -25 0 -9 -9 -28
-20 -42 -11 -14 -20 -29 -20 -34 0 -9 -52 -125 -76 -168 -8 -14 -14 -35 -14
-46 0 -12 -4 -23 -9 -26 -8 -5 -21 -56 -26 -99 -1 -11 -6 -22 -12 -25 -5 -4
-10 -14 -11 -22 -1 -8 -10 -51 -20 -95 -11 -44 -27 -144 -37 -221 -14 -126
-14 -146 -1 -177 12 -31 13 -37 0 -48 -39 -32 19 -463 87 -654 12 -33 26 -64
31 -69 4 -6 8 -18 8 -28 0 -10 4 -18 8 -18 5 0 9 -6 9 -14 0 -18 32 -87 51
-108 8 -10 11 -18 7 -18 -4 0 -2 -8 6 -17 21 -27 39 -61 39 -76 0 -7 8 -22 18
-33 9 -11 18 -26 20 -34 2 -8 7 -17 11 -20 4 -3 32 -43 63 -90 31 -47 68 -98
82 -115 103 -117 141 -155 153 -155 7 0 13 -7 13 -15 0 -9 7 -18 15 -22 21 -7
80 -66 77 -75 -1 -5 4 -8 11 -8 6 0 27 -14 46 -30 18 -17 39 -30 46 -30 7 0
16 -7 19 -16 3 -8 10 -13 15 -9 5 3 13 -4 16 -16 4 -11 12 -18 19 -16 7 3 21
-6 31 -19 10 -13 28 -24 40 -24 13 0 25 -7 29 -15 3 -9 12 -12 22 -8 12 4 15
2 12 -8 -6 -17 27 -35 81 -44 23 -4 41 -11 41 -16 0 -5 9 -9 20 -9 11 0 20 -4
20 -10 0 -5 6 -10 14 -10 8 0 31 -9 53 -19 21 -11 65 -29 98 -41 33 -12 68
-26 77 -31 10 -5 25 -9 33 -9 8 0 15 -4 15 -9 0 -5 14 -9 31 -9 17 1 35 -5 40
-13 6 -10 9 -10 9 -1 0 6 7 12 15 12 8 0 12 -6 9 -14 -4 -11 6 -16 38 -20 24
-3 92 -13 151 -21 123 -17 283 -20 292 -5 4 7 13 6 27 -1 14 -8 57 -9 132 -5
140 9 136 8 136 16 0 3 29 7 64 7 72 1 102 11 70 25 -13 6 -9 7 15 3 19 -3 40
0 47 6 8 6 22 9 33 6 27 -7 173 34 195 54 6 5 21 9 34 9 17 0 22 4 19 14 -4
10 -1 13 8 10 8 -3 20 -2 27 2 7 5 19 9 27 11 25 3 71 25 71 33 0 5 14 11 30
15 17 4 30 10 30 15 0 4 10 10 23 14 12 3 53 26 92 51 38 25 75 45 82 45 7 0
13 6 13 14 0 7 10 16 21 19 15 4 20 11 15 22 -4 12 -1 15 12 11 20 -7 87 45
75 57 -3 4 4 7 16 7 14 0 25 9 31 25 11 28 23 35 13 8 -3 -10 5 -2 19 17 14
19 30 34 36 33 7 -2 12 2 12 8 0 5 5 7 12 3 8 -5 9 -2 5 9 -3 10 -2 17 4 17
16 0 39 27 31 35 -4 5 1 5 11 2 13 -5 17 -2 15 10 -2 10 2 18 9 18 16 0 73 62
73 80 0 9 5 13 10 10 6 -4 16 7 23 24 7 17 16 29 19 26 5 -6 39 38 115 147 18
26 33 50 33 52 0 3 11 22 25 42 14 20 22 40 19 45 -3 5 -2 9 3 9 14 0 43 60
36 76 -3 9 0 14 8 12 9 -2 14 5 13 19 -1 13 3 20 7 17 5 -3 9 3 9 13 0 11 4
23 8 29 5 5 17 35 26 66 10 32 22 58 28 58 6 0 8 7 4 15 -3 8 -2 15 3 15 4 0
8 6 9 13 1 12 13 63 31 132 6 22 11 55 11 73 0 18 4 31 9 28 5 -4 8 6 6 21 -2
16 1 33 5 38 8 11 16 74 26 224 6 81 5 95 -9 103 -16 8 -16 12 -1 39 16 33 18
149 1 149 -5 0 -6 7 -3 16 4 9 2 22 -2 28 -5 6 -9 18 -9 26 1 29 -25 185 -34
210 -5 14 -11 40 -13 57 -2 18 -9 40 -16 48 -7 8 -10 15 -6 15 3 0 0 15 -8 34
-8 19 -12 37 -9 39 2 3 -4 22 -15 44 -10 21 -25 59 -32 86 -7 26 -16 47 -20
47 -4 0 -10 8 -14 18 -3 9 -9 24 -14 32 -22 37 -43 78 -61 118 -11 23 -25 42
-31 42 -6 0 -9 4 -6 9 8 13 -4 42 -15 35 -5 -3 -9 4 -9 16 0 12 -4 18 -10 15
-5 -3 -10 3 -10 15 0 12 -4 18 -10 15 -6 -3 -10 3 -10 15 0 12 -4 18 -10 15
-6 -3 -10 3 -10 14 0 14 -5 19 -14 15 -11 -4 -13 1 -10 18 2 13 1 17 -2 9 -5
-10 -11 -4 -20 18 -8 18 -18 30 -24 26 -5 -3 -10 3 -10 14 0 12 -4 21 -8 21
-5 0 -15 11 -22 25 -7 13 -16 23 -19 22 -3 -1 -6 0 -6 3 -1 13 -49 59 -57 54
-5 -3 -7 -2 -6 3 5 14 -46 64 -60 58 -7 -2 -10 0 -7 5 7 12 -20 42 -29 33 -3
-4 -6 1 -6 10 0 10 -8 17 -20 17 -11 0 -19 6 -17 13 1 6 -4 11 -10 10 -7 -2
-13 2 -13 8 0 11 -37 49 -48 49 -2 0 2 -7 9 -17 13 -15 12 -15 -8 -4 -14 7
-20 17 -17 26 4 10 0 15 -15 15 -12 0 -20 6 -18 13 1 7 -6 11 -17 9 -11 -2
-15 1 -11 7 3 7 -3 11 -15 11 -14 0 -19 4 -14 12 5 8 2 9 -9 5 -10 -4 -16 -2
-14 6 1 6 -8 13 -21 15 -12 2 -19 8 -16 14 4 6 1 9 -7 6 -18 -7 -71 20 -64 32
3 6 -1 7 -9 4 -22 -8 -42 6 -25 17 10 6 8 9 -8 9 -32 0 -54 11 -46 23 3 5 1 7
-5 3 -15 -9 -64 12 -56 25 4 7 0 9 -14 5 -12 -4 -26 -1 -35 9 -9 8 -25 15 -37
15 -12 0 -18 5 -15 10 6 9 -16 15 -39 11 -4 -1 -13 3 -20 8 -6 5 -28 12 -48
16 -25 5 -38 13 -39 24 0 10 -2 11 -6 4 -7 -18 -42 -16 -49 1 -7 19 -109 43
-254 60 -14 1 -45 5 -70 9 -25 4 -84 9 -133 12 -73 5 -88 3 -93 -10 -7 -19
-40 -20 -47 -2 -6 17 -40 17 -197 1z m193 -306 l-2 -293 -28 -3 c-51 -5 -167
-35 -208 -53 -22 -10 -47 -19 -55 -21 -52 -10 -287 -146 -338 -195 -7 -7 -17
-13 -20 -13 -10 0 -125 -113 -194 -191 -32 -35 -64 -71 -72 -79 -47 -51 -156
-243 -196 -347 -56 -144 -113 -406 -97 -446 13 -34 -5 -36 -406 -39 l-397 -3
5 40 c2 22 10 83 16 135 55 467 246 869 563 1182 262 260 627 469 962 551 87
22 269 49 399 60 22 2 47 4 55 5 13 2 15 -36 13 -290z m207 278 c181 -16 302
-41 460 -93 314 -104 560 -258 800 -501 163 -166 268 -310 364 -498 112 -221
171 -419 201 -669 8 -71 17 -145 20 -162 l6 -33 -336 0 -335 0 0 66 c0 170
-63 421 -150 594 -67 136 -183 294 -295 404 -222 218 -517 343 -790 334 l-100
-3 0 287 0 288 50 -5 c28 -3 75 -7 105 -9z m-35 -587 c199 -12 299 -38 450
-116 234 -120 445 -334 575 -585 97 -188 160 -442 170 -693 1 -21 -38 -232
-55 -294 -21 -83 -61 -183 -97 -244 -15 -26 -28 -50 -28 -53 0 -3 -28 -47 -62
-97 -62 -90 -210 -249 -297 -317 -74 -59 -182 -130 -196 -130 -8 0 -28 21 -46
47 l-32 46 24 19 c13 10 62 46 109 80 155 111 322 303 405 467 39 78 82 212
100 315 14 80 17 129 12 255 -11 287 -97 521 -273 746 -190 243 -434 392 -711
434 -88 13 -153 14 -173 1 -20 -13 -4 -17 97 -24 406 -30 774 -321 943 -746
64 -159 90 -297 90 -474 0 -292 -106 -552 -317 -776 -97 -103 -227 -209 -307
-250 -16 -8 -31 -20 -33 -27 -3 -7 19 -44 48 -83 l52 -70 55 31 c132 75 342
255 429 369 163 212 260 449 279 680 l6 75 334 0 333 0 -5 -75 c-23 -338 -90
-586 -227 -850 -216 -415 -618 -769 -1072 -948 -200 -79 -378 -118 -629 -138
l-88 -7 5 29 c3 16 7 275 9 576 l3 548 35 0 c102 1 347 78 368 117 11 19 -1
130 -16 145 -9 9 -12 2 -13 -33 -1 -60 -7 -92 -22 -105 -33 -31 -248 -94 -321
-94 -13 0 -31 -6 -39 -14 -12 -12 -17 -13 -33 -2 -11 8 -44 17 -74 21 -299 41
-527 202 -662 470 -98 194 -121 472 -56 685 94 308 374 555 681 601 40 6 85
17 101 25 19 10 31 11 36 5 3 -6 38 -15 78 -21 103 -14 149 -26 221 -55 114
-47 161 -84 161 -128 0 -29 0 -30 20 -12 26 24 25 37 -5 73 -54 64 -288 152
-405 152 l-55 0 0 150 c0 137 -2 150 -20 164 -28 21 -98 20 -191 -5 -345 -90
-622 -330 -804 -698 -89 -178 -125 -342 -125 -561 1 -222 33 -356 132 -555 64
-128 122 -206 237 -320 123 -122 216 -187 405 -282 80 -41 149 -81 152 -90 7
-22 -1 -63 -12 -63 -16 0 -204 97 -300 156 -372 225 -609 541 -683 912 -16 75
-37 222 -36 252 0 18 6 62 26 195 29 186 119 413 221 558 20 29 50 72 66 96
54 78 247 263 341 325 145 96 295 159 462 196 49 10 90 24 92 30 3 7 11 8 21
4 9 -4 70 -11 136 -15z m-169 -161 c-3 -13 -6 -82 -6 -154 l0 -131 -72 -6
c-155 -11 -342 -97 -473 -216 -63 -56 -155 -162 -155 -178 0 -6 -4 -13 -9 -15
-14 -5 -87 -169 -104 -233 -132 -499 128 -1012 578 -1143 91 -26 168 -42 208
-42 l32 0 0 -575 0 -575 -26 0 c-70 0 -339 33 -416 51 -340 78 -664 244 -908
465 -192 173 -324 347 -446 589 -137 271 -190 476 -214 830 l-5 80 402 -3 403
-2 -3 -29 c-5 -49 27 -232 59 -333 62 -198 160 -361 303 -503 113 -112 217
-196 337 -270 103 -64 335 -185 354 -185 14 0 25 44 25 94 0 30 -5 34 -143
103 -203 103 -314 180 -428 295 -180 182 -280 365 -335 613 -27 119 -25 358 3
487 30 133 65 233 114 325 193 362 498 606 839 669 94 17 93 17 86 -8z m1344
-2808 c0 -5 -5 -10 -11 -10 -5 0 -7 5 -4 10 3 6 8 10 11 10 2 0 4 -4 4 -10z
m-640 -364 c0 -3 -4 -8 -10 -11 -5 -3 -10 -1 -10 4 0 6 5 11 10 11 6 0 10 -2
10 -4z m-53 -22 c-3 -3 -12 -4 -19 -1 -8 3 -5 6 6 6 11 1 17 -2 13 -5z"/>
<path d="M1320 3813 c0 -18 284 -323 301 -323 29 0 -6 46 -124 163 -153 152
-177 174 -177 160z"/>
<path d="M3694 3808 c-151 -142 -156 -147 -149 -158 9 -15 33 -12 42 4 4 8 54
62 111 120 88 91 115 126 98 126 -2 0 -48 -42 -102 -92z"/>
<path d="M3195 3390 c-28 -11 -115 -94 -115 -109 0 -7 28 7 63 32 72 51 82 50
123 -14 25 -40 24 -54 -7 -79 -45 -36 -188 -174 -185 -178 6 -5 41 17 71 45
11 10 43 36 70 58 76 60 115 98 115 112 0 18 -78 121 -99 132 -9 5 -25 5 -36
1z"/>
<path d="M2439 3248 c-157 -20 -308 -127 -386 -274 -62 -117 -78 -185 -78
-334 0 -153 16 -216 82 -319 41 -64 158 -189 169 -179 3 4 -13 26 -37 50 -126
124 -189 276 -189 449 0 198 82 374 223 482 71 54 142 83 232 96 36 5 68 12
72 14 5 3 8 -51 8 -119 l0 -124 -40 5 c-22 2 -78 7 -125 10 -53 4 -91 12 -101
21 -21 19 -32 18 -52 -4 -22 -25 -21 -48 3 -65 10 -7 75 -67 142 -133 68 -65
138 -130 156 -144 38 -30 40 -48 8 -94 -13 -20 -32 -58 -42 -86 -10 -27 -22
-50 -26 -50 -4 0 -8 -9 -8 -20 0 -11 -4 -20 -10 -20 -5 0 -10 -4 -10 -10 0
-12 -60 -105 -118 -183 -24 -32 -42 -63 -40 -69 6 -16 87 99 189 262 40 65
110 196 114 213 7 28 -16 62 -85 125 -30 27 -100 93 -155 147 -96 93 -99 96
-65 91 82 -14 260 -19 274 -7 15 12 46 5 46 -11 0 -7 19 -9 48 -6 49 5 126 47
186 103 63 59 -3 40 -84 -24 -50 -39 -70 -49 -114 -52 l-39 -4 -1 113 c-1 113
-1 114 -30 135 -34 24 -41 25 -117 15z"/>
<path d="M2586 3241 c-3 -5 27 -22 66 -37 40 -15 80 -32 88 -39 25 -20 91 -47
98 -40 10 10 -35 42 -113 80 -78 37 -130 51 -139 36z"/>
<path d="M3250 3115 c0 -3 9 -15 20 -27 11 -12 20 -28 20 -35 0 -7 9 -13 21
-13 19 0 18 3 -11 40 -28 35 -50 51 -50 35z"/>
<path d="M3203 3003 c-62 -2 -113 -8 -113 -13 0 -5 53 -11 118 -12 l117 -3 17
-35 c38 -78 52 -161 53 -305 0 -119 -4 -151 -24 -217 -13 -43 -31 -84 -39 -90
-10 -8 -63 -15 -148 -18 -84 -3 -137 -9 -145 -17 -9 -9 25 -11 152 -6 186 7
171 -1 207 108 30 88 41 283 22 389 -23 130 -65 230 -94 224 -6 -1 -62 -4
-123 -5z"/>
<path d="M2924 2938 c-36 -28 -80 -66 -108 -93 -12 -11 -63 -56 -114 -99 -52
-44 -97 -88 -102 -100 -8 -23 3 -52 30 -76 10 -8 79 -71 155 -140 145 -132
159 -144 177 -138 11 4 -262 266 -320 307 -18 13 -32 27 -30 32 2 4 26 25 54
46 67 50 185 154 251 221 52 52 73 59 73 23 0 -9 4 -21 9 -26 5 -6 22 -46 36
-89 22 -65 27 -98 27 -180 -1 -106 -16 -172 -63 -268 -22 -45 -22 -67 -1 -54
17 10 60 100 76 157 43 156 20 346 -57 461 -28 41 -54 46 -93 16z"/>
<path d="M3478 2603 c7 -3 16 -2 19 1 4 3 -2 6 -13 5 -11 0 -14 -3 -6 -6z"/>
<path d="M3550 2600 c12 -7 109 -3 119 6 2 2 -27 3 -64 3 -40 -1 -63 -4 -55
-9z"/>
<path d="M2670 2240 c0 -5 15 -10 34 -10 19 0 41 -6 48 -13 60 -57 124 -93 82
-46 -39 44 -97 79 -131 79 -18 0 -33 -4 -33 -10z"/>
<path d="M3300 2240 c-8 -5 -11 -12 -7 -16 4 -4 13 -2 19 4 15 15 7 24 -12 12z"/>
<path d="M3030 2228 c0 -6 56 -66 125 -133 69 -67 125 -126 125 -131 0 -6 -20
-29 -44 -53 -30 -29 -48 -41 -58 -35 -7 4 -46 37 -86 72 -73 63 -94 73 -73 34
16 -29 151 -152 168 -152 8 0 42 26 75 58 77 74 75 84 -33 177 -45 39 -106 94
-136 123 -58 55 -63 59 -63 40z"/>
<path d="M2637 2217 c-10 -27 -8 -130 3 -147 10 -16 11 -14 14 70 1 19 -1 49
-4 65 -5 25 -7 27 -13 12z"/>
<path d="M2432 2153 c-22 -24 -30 -39 -22 -41 12 -4 38 22 61 61 16 28 -1 19
-39 -20z"/>
<path d="M2506 2139 c-3 -19 -5 -43 -3 -54 2 -18 -3 -20 -48 -17 -55 4 -54
-11 2 -23 41 -8 73 21 73 68 0 50 -17 68 -24 26z"/>
<path d="M2741 2081 c-52 -17 -79 -30 -69 -33 26 -10 141 23 168 48 21 20 2
17 -99 -15z"/>
<path d="M3460 1599 c0 -5 30 -42 68 -82 37 -40 93 -102 126 -139 96 -111 98
-82 3 42 -91 118 -158 190 -178 190 -10 0 -19 -5 -19 -11z"/>
<path d="M1560 2611 c-30 -3 -54 -9 -52 -13 1 -5 4 -8 7 -8 3 0 32 0 65 0 47
0 60 3 60 15 0 8 -6 14 -12 13 -7 -1 -38 -4 -68 -7z"/>
<path d="M1837 1870 c-40 -44 -33 -57 8 -14 19 20 35 38 35 40 0 12 -20 0 -43
-26z"/>
<path d="M1615 1614 c-166 -172 -216 -225 -265 -283 -30 -35 -50 -62 -43 -60
6 2 81 72 165 155 219 217 224 222 211 235 -8 8 -27 -5 -68 -47z"/>
</g>
</svg>
