<?xml version="1.0" standalone="no"?>
<!DOCTYPE svg PUBLIC "-//W3C//DTD SVG 20010904//EN"
 "http://www.w3.org/TR/2001/REC-SVG-20010904/DTD/svg10.dtd">
<svg version="1.0" xmlns="http://www.w3.org/2000/svg"
 width="512.000000pt" height="512.000000pt" viewBox="0 0 512.000000 512.000000"
 preserveAspectRatio="xMidYMid meet">
<metadata>
Created by potrace 1.16, written by Peter Selinger 2001-2019
</metadata>
<g transform="translate(0.000000,512.000000) scale(0.100000,-0.100000)"
fill="#000000" stroke="none">
<path d="M2400 4563 c-171 -14 -423 -75 -577 -139 -132 -54 -324 -155 -353
-184 -3 -3 -31 -22 -63 -43 -70 -46 -188 -147 -276 -237 -61 -62 -211 -243
-211 -255 0 -3 -15 -27 -33 -53 -118 -167 -218 -404 -270 -642 -40 -178 -50
-302 -44 -510 14 -426 140 -785 394 -1121 78 -103 223 -257 312 -330 29 -24
60 -50 67 -57 7 -7 63 -46 124 -88 240 -162 498 -258 805 -300 146 -20 442
-23 575 -5 649 87 1202 472 1522 1061 156 287 239 697 210 1040 -42 494 -242
932 -582 1270 -118 118 -167 159 -305 252 -370 250 -853 377 -1295 341z m410
-34 c137 -14 228 -35 380 -85 342 -113 651 -314 869 -565 91 -104 90 -104 172
-226 282 -419 391 -937 304 -1445 -68 -398 -264 -754 -587 -1063 -100 -97
-107 -102 -183 -155 -27 -19 -52 -38 -55 -41 -26 -33 -296 -172 -431 -222
-413 -155 -893 -164 -1344 -26 -465 142 -926 549 -1150 1014 -202 419 -249
912 -129 1365 139 529 509 990 992 1238 370 191 734 257 1162 211z"/>
<path d="M1990 3479 c-298 -61 -472 -185 -591 -420 -74 -148 -105 -313 -96
-517 7 -172 38 -300 104 -432 62 -124 179 -246 292 -305 157 -81 133 -79 876
-82 447 -3 680 0 723 7 86 15 161 50 216 100 66 61 86 98 93 175 l6 66 134 -3
133 -3 0 473 0 474 -135 -4 -135 -3 0 92 c0 70 -5 106 -22 150 -25 69 -96 148
-166 186 -104 57 -112 57 -777 56 -335 -1 -630 -5 -655 -10z m1325 -31 c93
-24 175 -83 228 -163 29 -44 47 -133 47 -231 0 -74 -2 -74 153 -74 l107 0 0
-445 0 -445 -125 0 c-142 0 -145 -1 -145 -87 -1 -51 -9 -72 -51 -120 -43 -51
-109 -92 -183 -116 -71 -22 -75 -22 -731 -21 -646 1 -662 2 -745 23 -47 12
-95 29 -107 37 -12 8 -27 14 -32 14 -27 0 -211 141 -211 161 0 5 -10 19 -23
33 -37 40 -113 203 -136 291 -54 212 -46 458 23 655 60 173 191 325 349 404
132 67 209 87 362 95 192 11 1172 2 1220 -11z"/>
<path d="M3113 3050 c-41 -17 -26 -120 17 -120 13 0 20 -7 20 -19 0 -14 10
-22 32 -26 26 -6 35 -3 49 14 9 11 23 21 31 21 26 0 38 24 38 76 0 50 -1 52
-31 58 -44 9 -130 6 -156 -4z m167 -60 c0 -36 -2 -40 -25 -40 -18 0 -28 -7
-35 -26 -12 -31 -44 -29 -48 3 -2 15 -13 24 -33 28 -25 6 -29 11 -29 41 l0 34
85 0 85 0 0 -40z"/>
<path d="M3385 2931 l-30 -6 -3 -293 -2 -292 -44 0 c-49 0 -56 -9 -56 -70 0
-44 -15 -52 -67 -35 -28 8 -33 15 -33 42 0 35 -22 63 -50 63 -18 0 -19 12 -15
259 1 143 0 274 -4 293 l-7 33 -139 0 -140 0 -3 -373 -2 -372 26 -10 c14 -6
84 -10 155 -10 l129 0 0 -33 c0 -18 5 -38 12 -45 13 -13 105 -16 157 -6 28 6
31 10 31 45 l0 39 156 0 c88 0 164 4 175 10 18 10 19 25 19 373 0 199 -4 368
-9 376 -7 10 -37 14 -118 16 -59 1 -121 -1 -138 -4z m-325 -321 l0 -300 34 0
c34 0 35 -1 38 -47 2 -40 6 -48 23 -49 11 -1 31 -6 44 -11 37 -14 70 5 73 42
1 17 2 39 3 50 1 17 8 20 47 19 l46 0 7 130 c4 72 5 206 3 299 l-3 167 125 0
125 0 -2 -361 -2 -361 -175 2 -176 1 6 -46 7 -45 -67 -1 c-36 -1 -72 -2 -78
-3 -8 -1 -14 13 -15 33 -1 25 3 35 18 38 53 14 -9 23 -159 22 l-167 -1 -3 361
-3 361 126 0 125 0 0 -300z"/>
<path d="M1982 2771 c-9 -5 -13 -58 -15 -169 l-2 -162 24 0 c13 0 45 13 71 29
l47 29 53 -29 c29 -16 60 -29 68 -29 25 0 -4 26 -65 59 l-54 30 -37 -22 c-20
-11 -48 -29 -61 -39 -31 -24 -43 -14 -25 20 17 33 19 213 3 244 -18 33 -5 30
59 -12 l60 -40 39 21 c21 13 48 31 60 42 27 24 39 17 24 -11 -6 -12 -11 -67
-11 -125 0 -97 2 -105 25 -127 l24 -23 -9 34 c-6 19 -10 89 -10 156 0 141 -2
143 -81 98 -53 -30 -69 -31 -101 -5 -34 26 -72 40 -86 31z"/>
<path d="M1540 2766 c0 -2 28 -22 61 -46 l62 -43 44 24 c24 13 53 32 63 42 35
31 52 19 25 -17 -11 -14 -15 -47 -15 -116 0 -69 4 -102 15 -116 8 -10 15 -27
15 -36 0 -15 -7 -13 -42 10 -101 66 -87 63 -150 31 -31 -16 -59 -33 -63 -39
-8 -13 -25 -13 -25 1 0 6 7 17 15 25 23 24 21 214 -2 243 -17 21 -18 16 -18
-134 l0 -155 24 0 c12 0 45 12 72 28 l50 27 60 -33 c74 -41 106 -37 93 12 -5
17 -9 91 -9 164 0 154 1 153 -96 103 l-55 -30 -45 30 c-37 24 -79 38 -79 25z"/>
</g>
</svg>
