<?xml version="1.0" standalone="no"?>
<!DOCTYPE svg PUBLIC "-//W3C//DTD SVG 20010904//EN"
 "http://www.w3.org/TR/2001/REC-SVG-20010904/DTD/svg10.dtd">
<svg version="1.0" xmlns="http://www.w3.org/2000/svg"
 width="512.000000pt" height="512.000000pt" viewBox="0 0 512.000000 512.000000"
 preserveAspectRatio="xMidYMid meet">
<metadata>
Created by potrace 1.16, written by Peter Selinger 2001-2019
</metadata>
<g transform="translate(0.000000,512.000000) scale(0.100000,-0.100000)"
fill="#000000" stroke="none">
<path d="M2540 4835 c-8 -2 -55 -9 -105 -15 -113 -15 -240 -54 -328 -101 -10
-5 -22 -7 -27 -4 -6 4 -10 2 -10 -3 0 -4 -25 -19 -55 -31 -31 -13 -61 -29 -68
-35 -7 -7 -34 -27 -62 -46 -27 -19 -58 -42 -69 -52 -14 -12 -27 -15 -50 -10
-79 17 -207 -1 -240 -33 -8 -8 -18 -15 -21 -15 -13 0 -95 -84 -95 -97 0 -7 -4
-13 -10 -13 -5 0 -22 -13 -36 -30 -15 -16 -31 -27 -36 -24 -5 3 -7 1 -6 -3 5
-15 -106 -142 -122 -140 -8 1 -14 -3 -13 -10 2 -7 -14 -29 -35 -50 -21 -21
-44 -49 -51 -63 -10 -19 -5 -16 17 10 40 45 41 28 3 -29 -17 -25 -28 -48 -25
-53 3 -4 -6 -45 -20 -90 -14 -46 -30 -112 -36 -148 -9 -58 -7 -232 5 -365 5
-54 -13 -155 -27 -155 -5 0 -7 -4 -4 -8 3 -5 -2 -21 -10 -36 -18 -36 -18 -59
1 -26 8 14 14 21 15 16 0 -11 -65 -177 -91 -231 -13 -26 -14 -33 -4 -21 11 15
15 16 15 5 0 -8 -9 -22 -20 -32 -11 -9 -20 -25 -20 -34 1 -16 2 -16 12 2 6 11
16 25 22 30 9 8 100 264 101 285 0 3 4 12 10 20 8 13 7 13 -8 1 -17 -14 -24
-3 -8 15 12 13 40 107 47 157 4 24 1 83 -5 131 -20 148 -16 259 13 366 37 139
41 151 65 198 12 23 19 42 15 42 -14 0 271 280 285 281 12 0 11 2 -3 8 -15 6
-9 14 38 50 97 73 185 95 265 68 l43 -15 66 53 c84 67 134 94 300 161 178 71
254 87 432 90 115 1 152 -1 180 -14 19 -9 51 -17 70 -18 85 -5 193 -23 203
-33 6 -6 22 -11 36 -11 46 0 195 -51 286 -98 59 -31 114 -70 161 -114 39 -37
73 -65 76 -63 3 3 27 -29 53 -70 27 -41 52 -75 57 -75 10 0 -35 102 -62 140
-21 30 -37 41 -25 18 4 -7 -3 -2 -14 12 -11 14 -21 29 -21 34 0 4 -7 5 -16 2
-8 -3 -12 -2 -9 4 3 6 -1 10 -10 10 -9 0 -13 5 -10 10 3 6 0 10 -9 10 -8 0
-16 3 -18 8 -5 11 -68 56 -108 77 -119 61 -155 76 -231 95 -46 11 -97 26 -114
32 -16 6 -57 14 -90 19 -156 21 -192 28 -219 38 -28 11 -182 22 -216 16z"/>
<path d="M2442 4734 c10 -10 20 -15 24 -12 3 4 -5 12 -18 18 -22 12 -22 12 -6
-6z"/>
<path d="M2350 4718 c45 -19 81 -27 75 -18 -6 9 -71 30 -90 29 -5 0 1 -5 15
-11z"/>
<path d="M2216 4711 c-5 -7 34 -18 94 -26 8 -2 35 -8 59 -14 23 -7 45 -10 48
-7 7 7 -42 26 -66 26 -10 0 -38 7 -61 15 -49 17 -67 19 -74 6z"/>
<path d="M2445 4680 c3 -5 13 -10 21 -10 8 0 12 5 9 10 -3 6 -13 10 -21 10 -8
0 -12 -4 -9 -10z"/>
<path d="M2128 4663 c7 -3 16 -2 19 1 4 3 -2 6 -13 5 -11 0 -14 -3 -6 -6z"/>
<path d="M2175 4660 c11 -5 45 -8 75 -8 42 0 49 2 30 8 -35 11 -131 11 -105 0z"/>
<path d="M2490 4666 c0 -2 7 -7 16 -10 8 -3 12 -2 9 4 -6 10 -25 14 -25 6z"/>
<path d="M2791 4654 c0 -11 3 -14 6 -6 3 7 2 16 -1 19 -3 4 -6 -2 -5 -13z"/>
<path d="M2057 4635 c-62 -14 -158 -57 -177 -80 -6 -7 20 2 59 21 45 22 91 36
131 41 33 3 63 10 66 14 3 5 17 7 32 4 23 -4 24 -4 7 4 -25 12 -46 11 -118 -4z"/>
<path d="M2538 4643 c7 -3 16 -2 19 1 4 3 -2 6 -13 5 -11 0 -14 -3 -6 -6z"/>
<path d="M2701 4630 c0 -14 4 -32 9 -40 8 -12 10 -12 9 5 0 11 -4 29 -9 40 -8
18 -9 18 -9 -5z"/>
<path d="M2740 4628 c0 -13 5 -30 10 -38 7 -11 10 -7 10 17 0 17 -4 35 -10 38
-6 3 -10 -4 -10 -17z"/>
<path d="M2802 4588 c-12 -33 -21 -63 -18 -65 2 -2 14 24 26 57 12 33 21 63
18 65 -2 3 -14 -23 -26 -57z"/>
<path d="M2670 4621 c0 -5 5 -13 10 -16 6 -3 10 -2 10 4 0 5 -4 13 -10 16 -5
3 -10 2 -10 -4z"/>
<path d="M2850 4607 c-31 -45 -31 -47 -17 -41 16 6 43 51 36 59 -3 2 -11 -6
-19 -18z"/>
<path d="M2904 4607 c-29 -19 -61 -57 -50 -57 3 0 26 18 51 40 50 43 49 52 -1
17z"/>
<path d="M2263 4603 c15 -2 39 -2 55 0 15 2 2 4 -28 4 -30 0 -43 -2 -27 -4z"/>
<path d="M2055 4580 c-91 -27 -164 -58 -226 -96 -31 -19 -66 -34 -77 -34 -12
0 -24 -5 -28 -11 -4 -8 1 -9 17 -4 23 7 24 7 4 -9 -11 -8 -27 -16 -37 -16 -9
0 -18 -3 -20 -7 -1 -5 -26 -27 -54 -50 -28 -23 -77 -73 -109 -110 l-59 -68 85
81 c148 141 352 261 539 315 68 20 85 28 60 28 -19 0 -62 -9 -95 -19z"/>
<path d="M2955 4561 c-56 -18 -93 -37 -113 -58 -11 -11 -11 -13 2 -13 9 0 16
5 16 10 0 6 6 10 14 10 8 0 47 16 88 35 78 37 75 44 -7 16z"/>
<path d="M2135 4544 l-70 -13 75 5 c41 3 91 9 110 14 l35 8 -40 0 c-22 0 -71
-6 -110 -14z"/>
<path d="M2997 4525 c-38 -13 -71 -26 -75 -29 -9 -10 27 -7 46 4 9 5 46 18 82
29 36 10 54 19 40 19 -14 1 -56 -10 -93 -23z"/>
<path d="M3158 4523 c6 -2 18 -2 25 0 6 3 1 5 -13 5 -14 0 -19 -2 -12 -5z"/>
<path d="M3095 4514 c-11 -3 -46 -9 -78 -16 -32 -6 -60 -15 -63 -19 -3 -5 -3
-9 0 -9 13 0 169 40 174 45 6 5 -1 5 -33 -1z"/>
<path d="M1685 4499 c-4 -5 11 -9 31 -9 42 0 42 6 1 14 -14 2 -29 0 -32 -5z"/>
<path d="M1975 4501 c5 -9 -32 -27 -47 -23 -5 1 -8 -2 -8 -8 0 -14 10 -12 49
9 27 14 30 19 17 24 -9 4 -14 3 -11 -2z"/>
<path d="M1648 4493 c7 -3 16 -2 19 1 4 3 -2 6 -13 5 -11 0 -14 -3 -6 -6z"/>
<path d="M1770 4480 c-9 -6 -10 -10 -3 -10 6 0 15 5 18 10 8 12 4 12 -15 0z"/>
<path d="M2715 4472 c-16 -9 -35 -23 -43 -29 -14 -14 -8 -33 11 -33 7 0 25 -7
40 -15 21 -10 27 -11 25 -2 -3 6 -20 17 -38 23 -32 11 -33 12 -11 19 12 4 39
5 59 2 21 -3 29 -3 19 0 -15 4 -16 7 -5 21 10 12 10 14 1 8 -7 -4 -18 -4 -25
0 -8 5 -6 10 8 15 12 5 14 8 4 8 -8 0 -28 -7 -45 -17z"/>
<path d="M3122 4480 c-18 -4 -36 -11 -40 -15 -10 -12 61 4 72 15 6 6 8 10 6 9
-3 -1 -20 -5 -38 -9z"/>
<path d="M2885 4470 c-7 -12 2 -12 30 0 19 8 19 9 -2 9 -12 1 -25 -3 -28 -9z"/>
<path d="M1535 4441 c-32 -15 -35 -20 -17 -20 12 -1 22 3 22 8 0 5 28 14 63
19 59 9 60 9 17 10 -25 1 -62 -7 -85 -17z"/>
<path d="M1804 4417 c-135 -80 -294 -208 -294 -237 0 -6 -4 -8 -10 -5 -5 3
-10 2 -10 -4 0 -26 22 -15 81 42 65 64 194 161 274 207 52 30 63 40 44 39 -8
0 -46 -20 -85 -42z"/>
<path d="M2988 4453 c6 -2 18 -2 25 0 6 3 1 5 -13 5 -14 0 -19 -2 -12 -5z"/>
<path d="M3040 4440 c-11 -8 -7 -9 15 -4 37 8 45 14 19 14 -10 0 -26 -5 -34
-10z"/>
<path d="M3690 4430 c0 -5 5 -10 11 -10 5 0 7 5 4 10 -3 6 -8 10 -11 10 -2 0
-4 -4 -4 -10z"/>
<path d="M2990 4420 c-8 -5 -10 -10 -5 -10 6 0 17 5 25 10 8 5 11 10 5 10 -5
0 -17 -5 -25 -10z"/>
<path d="M3055 4415 c-29 -7 -39 -13 -25 -13 14 0 48 6 75 13 29 7 39 13 25
13 -14 0 -47 -6 -75 -13z"/>
<path d="M3731 4414 c0 -11 3 -14 6 -6 3 7 2 16 -1 19 -3 4 -6 -2 -5 -13z"/>
<path d="M3760 4413 c0 -33 13 -34 40 -6 22 23 22 25 4 15 -16 -8 -24 -8 -32
0 -9 9 -12 7 -12 -9z"/>
<path d="M3110 4397 c-58 -11 -97 -23 -88 -25 10 -2 55 4 100 14 46 9 110 20
143 24 l60 7 -55 1 c-30 0 -102 -9 -160 -21z"/>
<path d="M3711 4378 c5 -18 9 -35 9 -38 0 -2 7 6 16 18 15 22 15 24 -2 37 -29
22 -33 18 -23 -17z"/>
<path d="M2636 4379 c-22 -22 -17 -34 11 -25 10 3 19 15 20 26 2 25 -6 25 -31
-1z"/>
<path d="M3800 4382 c-18 -11 -36 -25 -39 -33 -3 -10 4 -8 23 5 41 26 107 23
169 -9 63 -33 211 -156 198 -164 -5 -4 24 -49 65 -101 42 -52 89 -115 105
-140 28 -45 39 -48 18 -7 -10 21 -10 21 5 3 9 -11 16 -27 16 -35 0 -21 35 -73
43 -65 9 10 67 -113 99 -211 85 -265 75 -481 -39 -829 l-35 -108 23 -74 c13
-40 25 -72 26 -70 2 2 -4 33 -12 70 -15 64 -10 123 13 161 4 6 8 15 9 20 1 6
18 73 38 150 43 168 49 212 48 335 -1 176 -43 342 -130 514 -64 128 -116 200
-225 314 -34 34 -58 66 -54 69 9 10 137 -120 183 -184 71 -102 91 -118 34 -28
-26 41 -58 80 -98 122 -13 13 -23 28 -23 33 0 6 -3 10 -8 10 -4 0 -37 28 -74
63 -113 106 -137 124 -206 160 -88 46 -128 52 -172 29z m594 -518 c3 -8 2 -12
-4 -9 -6 3 -10 10 -10 16 0 14 7 11 14 -7z"/>
<path d="M1455 4360 c-22 -11 -31 -18 -20 -14 11 3 35 10 53 16 17 5 32 11 32
13 0 10 -27 4 -65 -15z"/>
<path d="M1548 4373 c6 -2 18 -2 25 0 6 3 1 5 -13 5 -14 0 -19 -2 -12 -5z"/>
<path d="M2717 4369 c7 -7 15 -10 18 -7 3 3 -2 9 -12 12 -14 6 -15 5 -6 -5z"/>
<path d="M2570 4350 c0 -6 7 -10 15 -10 8 0 15 2 15 4 0 2 -7 6 -15 10 -8 3
-15 1 -15 -4z"/>
<path d="M1970 4329 c-145 -67 -376 -221 -363 -242 3 -6 1 -7 -5 -3 -14 9
-154 -135 -182 -188 -20 -39 -20 -39 -1 -16 79 98 116 139 120 135 2 -3 -14
-24 -36 -48 -22 -24 -49 -57 -59 -73 -10 -16 -30 -41 -44 -55 -25 -25 -75
-117 -69 -124 2 -2 38 45 79 103 41 58 88 121 104 140 16 18 30 41 31 51 1 18
45 68 56 64 4 -1 26 16 50 38 50 47 241 167 323 205 52 23 67 35 49 34 -5 -1
-28 -10 -53 -21z"/>
<path d="M3125 4343 c-22 -3 -44 -9 -50 -14 -10 -11 54 -5 125 11 l35 8 -35
-1 c-19 0 -53 -2 -75 -4z"/>
<path d="M1450 4330 c-8 -5 -10 -10 -5 -10 6 0 17 5 25 10 8 5 11 10 5 10 -5
0 -17 -5 -25 -10z"/>
<path d="M2598 4321 c-14 -16 -14 -20 -2 -25 18 -7 45 4 38 15 -3 5 1 9 8 9 9
0 9 3 -2 10 -21 13 -23 13 -42 -9z"/>
<path d="M3196 4314 c-38 -7 -71 -16 -75 -20 -9 -10 98 4 149 20 59 18 19 19
-74 0z"/>
<path d="M3868 4323 c7 -3 16 -2 19 1 4 3 -2 6 -13 5 -11 0 -14 -3 -6 -6z"/>
<path d="M1383 4300 c-18 -11 -33 -22 -33 -26 0 -4 60 28 79 43 16 12 -20 -1
-46 -17z"/>
<path d="M1423 4271 c-28 -9 -71 -31 -95 -46 -24 -16 -47 -30 -52 -30 -11 0
-88 -105 -111 -150 -15 -28 -15 -28 0 -10 9 11 19 20 23 20 4 0 7 7 7 15 0 8
5 15 12 15 6 0 30 21 53 48 56 63 119 105 199 133 40 14 56 23 41 23 -14 0
-48 -8 -77 -18z m-168 -125 c-37 -48 -42 -46 -9 4 15 22 29 38 31 36 3 -3 -7
-21 -22 -40z"/>
<path d="M1729 4273 c-13 -17 -13 -17 6 -3 11 8 22 16 24 17 2 2 0 3 -6 3 -6
0 -17 -8 -24 -17z"/>
<path d="M2578 4273 c-19 -5 -25 -23 -8 -23 6 0 10 -4 10 -10 0 -5 -6 -10 -12
-10 -7 0 -14 -10 -15 -22 0 -13 -3 -32 -5 -42 -1 -10 3 -21 10 -23 7 -3 12 4
12 17 0 12 4 19 9 16 4 -3 6 6 3 19 -3 16 0 25 8 25 8 0 10 9 6 25 -5 20 -3
23 11 18 11 -4 14 -3 9 5 -7 12 -9 13 -38 5z"/>
<path d="M1618 4227 c-54 -49 -127 -132 -183 -210 -22 -31 -49 -61 -61 -67
-12 -7 -30 -32 -41 -56 -25 -53 -13 -49 18 6 13 22 27 40 33 40 6 0 33 31 61
68 27 37 92 111 144 165 97 99 114 131 29 54z"/>
<path d="M3185 4259 c-15 -6 -11 -8 19 -8 22 -1 36 2 32 6 -10 10 -29 11 -51
2z"/>
<path d="M3750 4249 c0 -8 7 -24 15 -35 11 -15 14 -16 15 -3 0 8 -7 24 -15 35
-11 15 -14 16 -15 3z"/>
<path d="M1690 4240 c-8 -5 -12 -12 -9 -15 4 -3 12 1 19 10 14 17 11 19 -10 5z"/>
<path d="M3283 4243 c9 -2 23 -2 30 0 6 3 -1 5 -18 5 -16 0 -22 -2 -12 -5z"/>
<path d="M4040 4246 c0 -2 8 -10 18 -17 15 -13 16 -12 3 4 -13 16 -21 21 -21
13z"/>
<path d="M3130 4227 c0 -2 15 -16 33 -33 l32 -29 -29 33 c-28 30 -36 37 -36
29z"/>
<path d="M3335 4218 c-100 -23 -110 -26 -88 -27 31 -1 126 19 138 30 11 11 5
10 -50 -3z"/>
<path d="M1629 4183 c-13 -17 -13 -17 6 -3 11 8 22 16 24 17 2 2 0 3 -6 3 -6
0 -17 -8 -24 -17z"/>
<path d="M3851 4186 c11 -9 90 -16 84 -6 -3 5 -25 10 -47 10 -23 0 -39 -2 -37
-4z"/>
<path d="M1387 4130 c-37 -41 -98 -133 -116 -174 -11 -26 22 11 38 43 19 36
66 99 112 149 11 13 19 25 16 28 -2 3 -25 -18 -50 -46z"/>
<path d="M3378 4161 c-42 -9 -80 -19 -83 -23 -10 -10 74 3 140 23 74 22 46 22
-57 0z"/>
<path d="M3955 4160 c3 -5 8 -10 11 -10 2 0 4 5 4 10 0 6 -5 10 -11 10 -5 0
-7 -4 -4 -10z"/>
<path d="M4100 4160 c0 -5 5 -10 11 -10 5 0 7 5 4 10 -3 6 -8 10 -11 10 -2 0
-4 -4 -4 -10z"/>
<path d="M1445 4140 c-10 -11 -16 -22 -14 -24 2 -2 12 7 22 20 22 29 17 32 -8
4z"/>
<path d="M1545 4098 c-31 -35 -66 -76 -77 -93 -11 -16 2 -5 28 25 27 30 65 71
85 92 20 21 33 38 29 38 -4 0 -33 -28 -65 -62z"/>
<path d="M1472 4138 c-7 -7 -12 -16 -12 -20 0 -4 -23 -40 -51 -79 -28 -39 -49
-73 -46 -75 6 -6 40 35 81 96 20 30 40 60 46 67 20 24 4 33 -18 11z"/>
<path d="M3206 4137 c3 -10 9 -15 12 -12 3 3 0 11 -7 18 -10 9 -11 8 -5 -6z"/>
<path d="M4036 4090 c63 -63 64 -65 64 -52 0 12 -102 112 -113 112 -5 0 17
-27 49 -60z"/>
<path d="M4120 4133 c0 -6 8 -17 18 -24 16 -13 16 -13 2 6 -8 11 -16 22 -17
24 -2 2 -3 0 -3 -6z"/>
<path d="M2526 4106 c2 -14 0 -26 -5 -26 -5 0 -9 -8 -9 -17 0 -10 -1 -23 -3
-29 -2 -7 1 -11 6 -10 6 0 9 7 9 14 -1 6 2 12 6 12 8 0 21 34 24 60 0 8 -7 16
-16 18 -13 3 -16 -2 -12 -22z"/>
<path d="M4061 4127 c2 -1 13 -9 24 -17 19 -14 19 -14 6 3 -7 9 -18 17 -24 17
-6 0 -8 -1 -6 -3z"/>
<path d="M1775 4090 c-10 -11 -14 -20 -9 -20 5 0 15 9 22 20 7 11 11 20 9 20
-2 0 -12 -9 -22 -20z"/>
<path d="M3230 4107 c0 -4 6 -18 14 -30 8 -12 40 -77 70 -144 57 -125 135
-396 177 -613 10 -52 22 -113 28 -135 l10 -40 -5 50 c-11 106 -79 401 -136
590 -34 114 -156 363 -158 322z"/>
<path d="M1406 4084 c-5 -14 -4 -15 9 -4 17 14 19 20 6 20 -5 0 -12 -7 -15
-16z"/>
<path d="M3370 4085 c-24 -13 -23 -13 20 -8 60 8 87 22 40 22 -19 0 -46 -6
-60 -14z"/>
<path d="M4110 4096 c0 -2 8 -10 18 -17 15 -13 16 -12 3 4 -13 16 -21 21 -21
13z"/>
<path d="M3243 4013 c19 -38 53 -121 78 -185 24 -64 45 -115 47 -113 10 9 -75
225 -126 323 -36 68 -35 48 1 -25z"/>
<path d="M2475 4060 c3 -5 10 -10 16 -10 5 0 9 5 9 10 0 6 -7 10 -16 10 -8 0
-12 -4 -9 -10z"/>
<path d="M1720 4049 c0 -5 5 -7 10 -4 6 3 10 8 10 11 0 2 -4 4 -10 4 -5 0 -10
-5 -10 -11z"/>
<path d="M3385 4045 c-46 -12 -47 -13 -15 -13 19 0 51 6 70 13 44 17 12 17
-55 0z"/>
<path d="M4125 4036 c10 -14 19 -26 22 -26 7 0 -17 39 -28 46 -6 3 -3 -5 6
-20z"/>
<path d="M4183 4012 c18 -27 34 -44 35 -40 5 12 -45 88 -57 88 -5 0 5 -22 22
-48z"/>
<path d="M1574 4028 l-19 -23 23 19 c21 18 27 26 19 26 -2 0 -12 -10 -23 -22z"/>
<path d="M1609 4033 c-13 -16 -12 -17 4 -4 9 7 17 15 17 17 0 8 -8 3 -21 -13z"/>
<path d="M3196 4037 c3 -10 9 -15 12 -12 3 3 0 11 -7 18 -10 9 -11 8 -5 -6z"/>
<path d="M1373 4028 c-15 -20 -25 -38 -20 -38 3 0 12 11 21 25 17 26 16 35 -1
13z"/>
<path d="M1677 4015 c-15 -14 -24 -25 -19 -25 9 0 52 37 52 45 0 8 -4 6 -33
-20z"/>
<path d="M3415 4015 l-50 -14 45 5 c25 3 61 9 80 14 34 8 34 8 5 8 -16 0 -52
-6 -80 -13z"/>
<path d="M3220 4009 c0 -8 7 -24 15 -35 8 -10 15 -25 15 -32 0 -7 9 -31 20
-55 11 -23 35 -89 55 -147 19 -58 34 -98 35 -89 0 20 -52 180 -80 244 -41 93
-60 130 -60 114z"/>
<path d="M3485 3995 c-38 -13 -78 -24 -87 -24 -10 -1 -18 -5 -18 -10 0 -20
127 12 173 44 28 20 17 18 -68 -10z"/>
<path d="M4137 3953 c19 -38 39 -72 44 -78 14 -13 -19 70 -44 113 -34 58 -34
33 0 -35z"/>
<path d="M1560 3985 c-13 -14 -19 -25 -14 -25 8 1 50 50 41 50 -2 0 -14 -11
-27 -25z"/>
<path d="M2482 3995 c-15 -17 -15 -17 15 -20 19 -2 21 1 12 16 -11 22 -10 22
-27 4z"/>
<path d="M4159 3985 c5 -11 17 -29 26 -40 l16 -20 -10 20 c-5 11 -17 29 -26
40 l-16 20 10 -20z"/>
<path d="M3181 3970 c7 -14 14 -30 15 -36 4 -21 33 -69 34 -54 0 13 1 13 10 0
5 -8 10 -22 10 -30 0 -13 -1 -13 -10 0 -16 25 -11 9 25 -80 37 -92 48 -90 15
3 -11 31 -20 64 -20 74 -1 22 -39 94 -40 74 0 -20 -10 -8 -15 20 -3 12 -12 30
-21 38 -15 15 -15 14 -3 -9z"/>
<path d="M1639 3975 c-1 -3 -3 -9 -4 -15 -1 -5 -3 -13 -4 -17 -1 -5 -5 -3 -9
3 -5 9 -11 8 -20 -2 -8 -9 -9 -14 -2 -14 7 0 -1 -11 -17 -24 -31 -27 -80 -102
-50 -77 14 11 17 11 17 -1 0 -20 -20 -37 -36 -31 -8 3 -14 0 -14 -7 0 -6 5 -8
10 -5 13 8 13 -5 0 -25 -8 -12 -10 -12 -10 -1 0 17 -11 9 -13 -11 -2 -7 -10
-24 -20 -38 -9 -13 -17 -30 -17 -38 0 -7 -9 -31 -21 -53 -11 -23 -18 -43 -16
-45 3 -3 19 25 36 61 17 37 44 83 59 103 16 21 32 46 36 56 5 14 10 16 17 9 8
-8 7 -18 -4 -34 -34 -56 -68 -119 -63 -119 5 0 86 127 86 135 0 4 13 25 28 48
41 60 42 64 28 64 -7 0 -13 -5 -13 -11 0 -21 -45 -86 -55 -80 -6 4 -6 9 -2 13
10 7 34 48 34 58 0 3 -8 -2 -19 -13 -10 -10 -16 -23 -13 -29 3 -5 -1 -5 -8 2
-10 9 -9 17 8 38 11 14 22 25 25 23 6 -5 75 71 69 77 -7 6 -22 7 -23 0z"/>
<path d="M1416 3942 l-19 -27 24 22 c12 12 21 24 18 27 -2 2 -13 -8 -23 -22z"/>
<path d="M4070 3960 c0 -5 5 -10 11 -10 5 0 7 5 4 10 -3 6 -8 10 -11 10 -2 0
-4 -4 -4 -10z"/>
<path d="M2470 3942 c0 -10 -5 -23 -12 -30 -9 -9 -9 -12 0 -12 6 0 20 -31 32
-69 20 -67 68 -184 69 -168 1 4 -11 35 -25 68 -14 34 -27 74 -29 90 -2 16 -10
43 -19 59 -8 17 -11 30 -8 30 9 0 37 -43 34 -52 -7 -25 81 -223 119 -268 l21
-25 -19 35 c-31 56 -40 73 -51 100 -6 14 -20 47 -31 74 -23 53 -27 81 -11 71
6 -4 -1 10 -15 31 -14 21 -28 48 -31 61 -7 27 -24 31 -24 5z"/>
<path d="M4231 3953 c0 -4 4 -17 9 -28 8 -19 9 -19 9 2 1 12 -3 25 -9 28 -5 3
-10 3 -9 -2z"/>
<path d="M1316 3933 c-6 -14 -5 -15 5 -6 7 7 10 15 7 18 -3 3 -9 -2 -12 -12z"/>
<path d="M1549 3923 c-37 -43 -71 -93 -62 -93 11 1 101 120 90 120 -2 0 -15
-12 -28 -27z"/>
<path d="M3488 3943 c6 -2 18 -2 25 0 6 3 1 5 -13 5 -14 0 -19 -2 -12 -5z"/>
<path d="M1056 3925 c-9 -26 -7 -32 5 -12 6 10 9 21 6 23 -2 3 -7 -2 -11 -11z"/>
<path d="M1679 3896 c-20 -23 -44 -57 -54 -76 l-17 -35 27 30 c33 36 88 115
83 119 -1 1 -19 -16 -39 -38z"/>
<path d="M4280 3939 c0 -4 17 -42 39 -85 68 -140 94 -247 112 -461 10 -119 9
-153 -5 -248 -21 -133 -34 -435 -18 -420 12 11 76 219 86 275 3 19 -11 -14
-32 -75 -20 -61 -38 -101 -40 -89 -2 11 16 76 38 144 23 68 43 148 45 179 l4
56 -9 -54 c-4 -30 -13 -63 -19 -75 -5 -12 -17 -46 -26 -76 -21 -74 -38 -99
-31 -45 22 159 30 267 28 379 -1 71 -4 131 -7 134 -3 3 -5 20 -5 37 0 42 -52
226 -84 295 -25 56 -75 140 -76 129z"/>
<path d="M1246 3913 c-6 -14 -5 -15 5 -6 7 7 10 15 7 18 -3 3 -9 -2 -12 -12z"/>
<path d="M1494 3902 c-30 -41 -36 -52 -27 -52 10 0 56 70 51 76 -3 2 -13 -9
-24 -24z"/>
<path d="M3398 3913 c7 -3 16 -2 19 1 4 3 -2 6 -13 5 -11 0 -14 -3 -6 -6z"/>
<path d="M4220 3895 c14 -36 50 -105 55 -105 6 0 -10 40 -35 90 -23 44 -35 54
-20 15z"/>
<path d="M1355 3880 c-9 -16 -13 -30 -11 -30 3 0 12 14 21 30 9 17 13 30 11
30 -3 0 -12 -13 -21 -30z"/>
<path d="M3170 3907 c0 -11 30 -67 35 -67 6 0 -16 52 -27 65 -4 5 -8 6 -8 2z"/>
<path d="M2374 3866 c-28 -19 -54 -43 -58 -53 -6 -17 -5 -17 8 0 7 9 18 17 23
17 6 0 22 11 37 25 36 33 62 34 45 3 -11 -20 -10 -22 3 -10 13 10 17 10 21 0
3 -7 6 -4 6 8 1 19 -16 44 -29 44 -3 0 -28 -15 -56 -34z"/>
<path d="M3485 3885 c-32 -10 -35 -13 -15 -14 14 0 39 6 55 14 38 17 12 18
-40 0z"/>
<path d="M1286 3875 c-3 -8 -1 -15 4 -15 6 0 10 7 10 15 0 8 -2 15 -4 15 -2 0
-6 -7 -10 -15z"/>
<path d="M1917 3854 c-10 -14 -23 -21 -29 -18 -7 5 -8 2 -3 -5 5 -10 14 -6 33
13 14 14 24 27 21 30 -2 2 -12 -7 -22 -20z"/>
<path d="M4266 3867 c3 -10 9 -15 12 -12 3 3 0 11 -7 18 -10 9 -11 8 -5 -6z"/>
<path d="M4350 3860 c6 -11 13 -20 16 -20 2 0 0 9 -6 20 -6 11 -13 20 -16 20
-2 0 0 -9 6 -20z"/>
<path d="M1769 3853 c-13 -16 -12 -17 4 -4 9 7 17 15 17 17 0 8 -8 3 -21 -13z"/>
<path d="M1990 3860 c-9 -6 -10 -10 -3 -10 6 0 15 5 18 10 8 12 4 12 -15 0z"/>
<path d="M3408 3863 c6 -2 18 -2 25 0 6 3 1 5 -13 5 -14 0 -19 -2 -12 -5z"/>
<path d="M1754 3777 c-34 -45 -67 -93 -75 -107 -8 -13 -19 -29 -25 -35 -30
-27 -254 -432 -298 -539 -32 -78 -14 -48 57 95 40 81 84 162 98 180 32 43 109
177 109 190 0 6 4 8 9 5 10 -6 25 22 22 41 -1 6 4 15 10 19 8 5 10 2 5 -7 -4
-8 -1 -5 6 5 7 11 25 33 39 50 14 17 36 47 49 66 13 19 27 37 30 40 3 3 12 14
20 25 14 19 14 19 -2 6 -23 -17 -23 -3 -1 21 9 10 14 20 12 23 -3 2 -32 -33
-65 -78z m36 19 c0 -2 -8 -10 -17 -17 -16 -13 -17 -12 -4 4 13 16 21 21 21 13z
m-30 -40 c0 -2 -13 -20 -30 -41 -37 -46 -40 -37 -4 11 24 31 34 40 34 30z"/>
<path d="M3156 3847 c3 -10 9 -15 12 -12 3 3 0 11 -7 18 -10 9 -11 8 -5 -6z"/>
<path d="M1206 3835 c-9 -26 -7 -32 5 -12 6 10 9 21 6 23 -2 3 -7 -2 -11 -11z"/>
<path d="M1021 3824 c0 -11 3 -14 6 -6 3 7 2 16 -1 19 -3 4 -6 -2 -5 -13z"/>
<path d="M1295 3830 c-8 -13 3 -30 18 -30 8 0 7 3 -2 9 -7 5 -10 14 -7 20 4 6
5 11 2 11 -3 0 -8 -4 -11 -10z"/>
<path d="M1943 3823 c-23 -16 -30 -33 -14 -33 5 0 16 11 25 25 19 29 19 29
-11 8z"/>
<path d="M2380 3825 c-7 -8 -8 -15 -2 -15 5 0 15 7 22 15 7 8 8 15 2 15 -5 0
-15 -7 -22 -15z"/>
<path d="M3428 3833 c6 -2 18 -2 25 0 6 3 1 5 -13 5 -14 0 -19 -2 -12 -5z"/>
<path d="M1438 3798 c-14 -18 -30 -44 -37 -58 -11 -25 -11 -25 5 -3 8 12 27
34 40 50 22 25 30 43 20 43 -2 0 -15 -15 -28 -32z"/>
<path d="M1738 3816 c-10 -7 -18 -19 -18 -25 0 -7 -4 -10 -8 -7 -4 2 -8 -4 -8
-14 0 -10 3 -17 7 -14 7 4 51 74 46 74 -1 0 -10 -7 -19 -14z"/>
<path d="M3104 3814 c4 -10 21 -61 38 -112 16 -52 32 -91 35 -88 3 3 1 18 -5
33 -5 15 -20 61 -32 101 -13 40 -27 75 -33 79 -7 4 -8 -1 -3 -13z"/>
<path d="M3216 3817 c3 -10 9 -15 12 -12 3 3 0 11 -7 18 -10 9 -11 8 -5 -6z"/>
<path d="M4001 3814 c0 -11 3 -14 6 -6 3 7 2 16 -1 19 -3 4 -6 -2 -5 -13z"/>
<path d="M4035 3815 c49 -153 82 -309 89 -426 2 -35 10 -111 17 -169 13 -113
4 -576 -15 -764 -3 -22 -1 -35 4 -30 5 5 12 61 15 124 3 63 7 131 10 150 13
100 15 378 5 495 -7 72 -14 155 -16 185 -9 115 -75 392 -104 438 -10 15 -11
15 -5 -3z"/>
<path d="M4370 3825 c0 -5 5 -17 10 -25 5 -8 10 -10 10 -5 0 6 -5 17 -10 25
-5 8 -10 11 -10 5z"/>
<path d="M1340 3800 c-6 -11 -8 -20 -6 -20 3 0 10 9 16 20 6 11 8 20 6 20 -3
0 -10 -9 -16 -20z"/>
<path d="M1664 3798 c0 -10 1 -18 3 -18 1 0 7 8 12 18 7 13 6 19 -2 19 -7 0
-13 -9 -13 -19z"/>
<path d="M1837 3792 c-15 -15 -27 -33 -27 -40 0 -7 -4 -12 -8 -12 -5 0 -24
-19 -42 -42 -18 -24 -27 -37 -20 -30 20 17 35 15 20 -3 -7 -8 -19 -15 -26 -15
-17 0 -43 -50 -36 -69 3 -8 0 -11 -6 -7 -7 4 -20 -10 -32 -34 -24 -48 -18 -53
10 -7 11 17 20 28 20 24 0 -5 16 11 36 35 21 23 40 42 44 41 4 -1 22 14 41 34
l34 36 -32 -22 c-18 -12 -33 -27 -33 -33 0 -6 -3 -9 -6 -5 -10 10 9 33 74 91
34 31 60 56 56 56 -3 0 -31 -23 -61 -50 -31 -28 -58 -48 -62 -45 -3 4 5 15 19
25 14 10 25 27 25 37 0 10 6 18 13 18 6 0 12 4 11 8 0 5 8 15 18 23 10 7 13
14 7 14 -5 0 -22 -13 -37 -28z m-107 -171 c-5 -11 -15 -23 -21 -27 -6 -3 -3 5
6 20 20 30 30 35 15 7z"/>
<path d="M2550 3812 c0 -7 27 -66 59 -131 33 -65 58 -121 55 -124 -6 -6 62
-100 106 -147 23 -25 74 -110 65 -110 -2 0 -23 27 -46 60 -53 76 -63 71 -13
-7 69 -105 68 -103 26 -102 -20 0 -44 -2 -52 -4 -8 -2 -37 -7 -65 -12 -27 -4
-56 -12 -62 -17 -7 -6 -13 -8 -13 -5 0 3 -15 1 -32 -5 -18 -5 -64 -18 -101
-28 -37 -10 -80 -26 -95 -36 -15 -10 -31 -19 -36 -19 -5 0 -11 -5 -13 -11 -6
-17 30 -12 45 6 11 13 12 7 8 -35 l-5 -50 12 40 c17 57 27 71 38 54 6 -10 9
-11 9 -1 0 6 5 12 12 12 7 0 56 14 109 30 157 49 225 60 289 43 30 -8 65 -21
78 -29 39 -26 35 -9 -7 31 -22 21 -54 65 -71 97 -18 33 -44 74 -59 91 -43 50
-98 131 -106 158 -7 22 -122 248 -131 258 -2 2 -4 -1 -4 -7z"/>
<path d="M1465 3784 c-9 -15 -12 -23 -6 -20 11 7 35 46 28 46 -3 0 -12 -12
-22 -26z"/>
<path d="M1240 3781 c-12 -24 -13 -34 -1 -27 9 6 22 46 15 46 -2 0 -8 -9 -14
-19z"/>
<path d="M2055 3788 c-5 -6 -37 -34 -70 -63 -33 -29 -58 -55 -55 -58 3 -3 36
24 74 59 38 35 68 65 65 68 -2 2 -8 -1 -14 -6z"/>
<path d="M2340 3785 c-8 -9 -8 -15 -2 -15 12 0 26 19 19 26 -2 2 -10 -2 -17
-11z"/>
<path d="M3187 3749 c35 -120 73 -223 67 -184 -7 45 -62 215 -75 229 -4 5 -1
-15 8 -45z"/>
<path d="M3206 3780 c4 -14 13 -38 20 -55 11 -24 13 -25 8 -5 -4 14 -13 39
-20 55 -11 24 -13 25 -8 5z"/>
<path d="M3560 3785 c-8 -9 -8 -15 -2 -15 12 0 26 19 19 26 -2 2 -10 -2 -17
-11z"/>
<path d="M1068 3740 c-1 -28 0 -50 5 -50 4 0 7 23 7 50 0 65 -7 65 -12 0z"/>
<path d="M1296 3773 c-6 -14 -5 -15 5 -6 7 7 10 15 7 18 -3 3 -9 -2 -12 -12z"/>
<path d="M1625 3780 c-3 -6 1 -7 9 -4 18 7 21 14 7 14 -6 0 -13 -4 -16 -10z"/>
<path d="M3236 3770 c8 -33 36 -92 40 -87 3 2 -7 28 -21 58 -14 30 -22 43 -19
29z"/>
<path d="M4011 3774 c0 -11 3 -14 6 -6 3 7 2 16 -1 19 -3 4 -6 -2 -5 -13z"/>
<path d="M1270 3766 c0 -8 4 -17 9 -20 5 -4 7 3 4 14 -6 23 -13 26 -13 6z"/>
<path d="M2940 3773 c0 -20 94 -276 98 -265 2 6 -19 70 -47 144 -28 73 -51
127 -51 121z"/>
<path d="M4281 3764 c0 -11 3 -14 6 -6 3 7 2 16 -1 19 -3 4 -6 -2 -5 -13z"/>
<path d="M1177 3763 c-4 -3 -7 -13 -7 -22 1 -13 3 -13 11 2 11 19 8 33 -4 20z"/>
<path d="M1636 3753 c-6 -15 -8 -15 -16 -3 -6 9 -10 10 -10 3 0 -21 17 -23 35
-3 10 11 13 20 8 20 -6 0 -14 -8 -17 -17z"/>
<path d="M1883 3744 c-47 -53 -42 -62 6 -9 17 19 28 35 24 35 -5 0 -18 -12
-30 -26z"/>
<path d="M2973 3756 c3 -8 11 -34 17 -57 6 -23 25 -69 41 -102 16 -33 29 -70
30 -81 0 -12 5 -30 10 -41 6 -14 7 -7 3 25 -3 25 -12 58 -20 74 -7 16 -12 32
-9 36 3 4 -2 25 -9 46 -8 22 -15 34 -15 27 -1 -6 3 -23 9 -38 6 -16 6 -24 0
-20 -5 3 -19 37 -30 75 -12 39 -23 70 -26 70 -4 0 -4 -6 -1 -14z"/>
<path d="M3520 3760 c-9 -6 -10 -10 -3 -10 6 0 15 5 18 10 8 12 4 12 -15 0z"/>
<path d="M4394 3755 c2 -11 19 -65 36 -120 17 -55 38 -127 45 -160 l14 -60 -4
60 c-4 55 -63 248 -87 285 -7 12 -8 11 -4 -5z"/>
<path d="M2305 3750 c-3 -5 -1 -10 4 -10 6 0 11 5 11 10 0 6 -2 10 -4 10 -3 0
-8 -4 -11 -10z"/>
<path d="M3645 3749 c-11 -17 1 -21 15 -4 8 9 8 15 2 15 -6 0 -14 -5 -17 -11z"/>
<path d="M3063 3735 c3 -11 15 -50 26 -87 23 -80 46 -123 35 -68 -7 39 -51
161 -61 169 -3 4 -3 -3 0 -14z"/>
<path d="M4021 3740 c0 -8 6 -28 14 -45 l14 -30 -6 30 c-7 38 -22 68 -22 45z"/>
<path d="M1250 3718 c-12 -22 -12 -22 6 -6 10 10 15 20 12 24 -4 3 -12 -5 -18
-18z"/>
<path d="M1575 3730 c-3 -5 -1 -10 4 -10 6 0 11 5 11 10 0 6 -2 10 -4 10 -3 0
-8 -4 -11 -10z"/>
<path d="M1641 3714 c-12 -15 -19 -34 -16 -42 3 -8 0 -22 -6 -31 -6 -9 7 4 30
29 22 25 41 52 41 60 0 8 -9 1 -19 -16 -19 -32 -41 -52 -41 -38 0 4 10 18 22
31 12 13 19 25 16 28 -3 4 -15 -6 -27 -21z"/>
<path d="M4302 3725 c0 -11 3 -29 8 -40 11 -25 11 1 0 35 -6 20 -8 21 -8 5z"/>
<path d="M1940 3723 c0 -10 -43 -54 -116 -117 -23 -20 -44 -45 -47 -56 -4 -15
11 -6 54 31 58 50 125 136 114 147 -3 3 -5 1 -5 -5z"/>
<path d="M2851 3722 c-1 -20 35 -121 63 -177 44 -89 32 -50 -47 150 -9 22 -16
34 -16 27z"/>
<path d="M2921 3729 c-1 -4 11 -38 25 -75 14 -38 32 -89 40 -114 14 -45 74
-154 74 -135 0 6 -7 20 -15 32 -9 12 -30 64 -49 115 -33 94 -74 188 -75 177z"/>
<path d="M3047 3695 c9 -19 18 -33 20 -31 6 6 -19 66 -28 66 -5 0 -1 -16 8
-35z"/>
<path d="M3100 3721 c0 -6 4 -13 10 -16 6 -3 7 1 4 9 -7 18 -14 21 -14 7z"/>
<path d="M3600 3720 c-8 -5 -12 -12 -9 -15 4 -3 12 1 19 10 14 17 11 19 -10 5z"/>
<path d="M2029 3703 c-13 -16 -12 -17 4 -4 9 7 17 15 17 17 0 8 -8 3 -21 -13z"/>
<path d="M1374 3694 c-4 -10 -18 -34 -31 -52 -14 -18 -23 -35 -20 -38 2 -3 19
18 37 46 18 28 30 53 27 57 -4 3 -10 -3 -13 -13z"/>
<path d="M1555 3700 c-3 -5 -1 -10 4 -10 6 0 11 5 11 10 0 6 -2 10 -4 10 -3 0
-8 -4 -11 -10z"/>
<path d="M1874 3678 l-29 -33 33 29 c30 28 37 36 29 36 -2 0 -16 -15 -33 -32z"/>
<path d="M1580 3680 c-6 -11 -8 -20 -6 -20 3 0 10 9 16 20 6 11 8 20 6 20 -3
0 -10 -9 -16 -20z"/>
<path d="M3372 3680 c0 -14 2 -19 5 -12 2 6 2 18 0 25 -3 6 -5 1 -5 -13z"/>
<path d="M3554 3685 c-10 -8 -14 -15 -8 -15 6 0 17 7 24 15 16 19 9 19 -16 0z"/>
<path d="M3180 3659 c27 -105 32 -121 36 -116 6 6 -26 130 -37 141 -4 5 -4 -6
1 -25z"/>
<path d="M1230 3666 c0 -9 5 -16 10 -16 6 0 10 4 10 9 0 6 -4 13 -10 16 -5 3
-10 -1 -10 -9z"/>
<path d="M1286 3665 c-9 -26 -7 -32 5 -12 6 10 9 21 6 23 -2 3 -7 -2 -11 -11z"/>
<path d="M1969 3653 l-24 -28 28 24 c25 23 32 31 24 31 -2 0 -14 -12 -28 -27z"/>
<path d="M3316 3650 c10 -57 36 -151 42 -146 2 3 -4 38 -13 78 -19 80 -38 125
-29 68z"/>
<path d="M3575 3659 c-19 -12 -24 -19 -14 -19 9 0 27 9 40 20 30 25 13 25 -26
-1z"/>
<path d="M1596 3655 c-9 -26 -7 -32 5 -12 6 10 9 21 6 23 -2 3 -7 -2 -11 -11z"/>
<path d="M2799 3647 c6 -15 17 -40 25 -56 9 -16 13 -31 10 -33 -2 -3 14 -38
37 -77 47 -82 66 -90 21 -9 -16 29 -42 82 -57 118 -29 66 -55 108 -36 57z"/>
<path d="M3126 3650 c3 -14 10 -32 15 -40 7 -13 8 -13 8 0 0 8 -6 26 -15 40
l-15 25 7 -25z"/>
<path d="M3292 3639 c6 -16 12 -28 14 -26 5 5 -13 57 -20 57 -3 0 0 -14 6 -31z"/>
<path d="M4055 3640 c4 -14 11 -44 17 -67 5 -24 12 -43 14 -43 8 0 -8 73 -23
105 -11 24 -13 25 -8 5z"/>
<path d="M4322 3640 c0 -14 2 -19 5 -12 2 6 2 18 0 25 -3 6 -5 1 -5 -13z"/>
<path d="M1805 3630 c-10 -11 -16 -22 -14 -24 2 -2 12 7 22 20 22 29 17 32 -8
4z"/>
<path d="M2571 3630 c14 -31 19 -36 19 -24 0 6 -7 19 -16 30 -14 18 -14 18 -3
-6z"/>
<path d="M2670 3647 c0 -11 30 -67 35 -67 6 0 -16 52 -27 65 -4 5 -8 6 -8 2z"/>
<path d="M2730 3646 c0 -12 73 -137 78 -132 4 5 -41 94 -62 121 -8 11 -16 16
-16 11z"/>
<path d="M3061 3645 c1 -19 18 -51 18 -35 0 8 -4 22 -9 30 -5 8 -9 11 -9 5z"/>
<path d="M3381 3630 c0 -14 7 -52 15 -85 l14 -60 -6 63 c-6 69 -23 130 -23 82z"/>
<path d="M1210 3615 c0 -11 -4 -25 -8 -30 -13 -14 -92 -200 -92 -215 0 -13 14
-5 16 8 0 4 9 27 20 52 10 25 18 48 16 53 -1 4 2 7 8 7 6 0 10 9 10 20 0 11 5
20 10 20 6 0 10 8 10 18 0 10 4 22 8 28 5 5 13 21 19 35 9 21 8 26 -3 26 -8 0
-14 -10 -14 -22z"/>
<path d="M1470 3620 c-6 -11 -7 -20 -2 -20 6 0 12 9 15 20 3 11 3 20 1 20 -2
0 -8 -9 -14 -20z"/>
<path d="M1520 3620 c-6 -11 -8 -20 -6 -20 3 0 10 9 16 20 6 11 8 20 6 20 -3
0 -10 -9 -16 -20z"/>
<path d="M1838 3559 c-44 -44 -77 -83 -74 -86 3 -4 7 -4 9 -2 1 3 38 42 82 87
44 45 76 82 71 82 -5 0 -45 -36 -88 -81z"/>
<path d="M1949 3569 c-35 -34 -55 -57 -44 -51 31 17 120 101 113 107 -3 3 -34
-22 -69 -56z"/>
<path d="M2790 3618 c0 -2 6 -24 14 -49 8 -24 17 -57 20 -72 4 -15 10 -25 15
-23 5 3 -2 36 -16 73 -22 61 -33 85 -33 71z"/>
<path d="M1276 3593 c-6 -14 -5 -15 5 -6 7 7 10 15 7 18 -3 3 -9 -2 -12 -12z"/>
<path d="M1739 3583 c-14 -16 -29 -35 -34 -43 -15 -25 22 8 46 42 26 35 21 36
-12 1z"/>
<path d="M2850 3605 c0 -12 90 -184 99 -190 11 -6 -7 34 -57 133 -29 55 -42
73 -42 57z"/>
<path d="M4323 3575 c0 -22 2 -30 4 -17 2 12 2 30 0 40 -3 9 -5 -1 -4 -23z"/>
<path d="M2935 3580 c10 -33 25 -49 25 -26 0 9 -7 25 -16 34 -15 15 -16 14 -9
-8z"/>
<path d="M3301 3585 c0 -11 4 -29 9 -40 l9 -20 0 20 c0 11 -4 29 -9 40 l-9 20
0 -20z"/>
<path d="M4481 3590 c0 -8 4 -22 9 -30 12 -18 12 -2 0 25 -6 13 -9 15 -9 5z"/>
<path d="M1446 3568 c-14 -23 -33 -78 -23 -68 2 3 14 24 26 48 23 45 21 57 -3
20z"/>
<path d="M1496 3573 c-6 -14 -5 -15 5 -6 7 7 10 15 7 18 -3 3 -9 -2 -12 -12z"/>
<path d="M3081 3574 c0 -11 3 -14 6 -6 3 7 2 16 -1 19 -3 4 -6 -2 -5 -13z"/>
<path d="M3173 3578 c3 -9 11 -34 16 -55 6 -21 16 -45 22 -53 9 -13 10 -13 6
1 -3 10 -11 37 -18 60 -7 24 -17 49 -22 54 -7 7 -8 4 -4 -7z"/>
<path d="M1276 3514 c-15 -36 -25 -68 -23 -70 2 -2 16 26 31 62 15 37 25 68
23 71 -3 2 -17 -26 -31 -63z"/>
<path d="M3148 3553 c5 -21 7 -23 10 -9 2 10 0 22 -6 28 -6 6 -7 0 -4 -19z"/>
<path d="M1690 3474 c-41 -52 -76 -100 -78 -107 -2 -7 3 -5 10 4 7 9 37 43 66
76 49 56 87 112 79 119 -1 2 -36 -40 -77 -92z"/>
<path d="M2730 3561 c0 -6 4 -13 10 -16 6 -3 7 1 4 9 -7 18 -14 21 -14 7z"/>
<path d="M1869 3543 c-13 -16 -12 -17 4 -4 16 13 21 21 13 21 -2 0 -10 -8 -17
-17z"/>
<path d="M4142 3540 c0 -14 2 -19 5 -12 2 6 2 18 0 25 -3 6 -5 1 -5 -13z"/>
<path d="M4352 3540 c0 -14 2 -19 5 -12 2 6 2 18 0 25 -3 6 -5 1 -5 -13z"/>
<path d="M4506 3486 c3 -33 7 -104 9 -159 2 -54 7 -102 11 -106 9 -8 -5 245
-16 289 -8 28 -8 23 -4 -24z"/>
<path d="M2960 3529 c0 -4 7 -22 15 -40 8 -19 14 -27 14 -19 0 14 -28 72 -29
59z"/>
<path d="M1670 3500 c-6 -11 -8 -20 -6 -20 3 0 10 9 16 20 6 11 8 20 6 20 -3
0 -10 -9 -16 -20z"/>
<path d="M1381 3494 c0 -11 3 -14 6 -6 3 7 2 16 -1 19 -3 4 -6 -2 -5 -13z"/>
<path d="M4092 3485 c0 -16 2 -22 5 -12 2 9 2 23 0 30 -3 6 -5 -1 -5 -18z"/>
<path d="M4151 3484 c0 -11 3 -14 6 -6 3 7 2 16 -1 19 -3 4 -6 -2 -5 -13z"/>
<path d="M1615 3460 c-9 -16 -13 -30 -11 -30 3 0 12 14 21 30 9 17 13 30 11
30 -3 0 -12 -13 -21 -30z"/>
<path d="M3171 3474 c0 -11 3 -14 6 -6 3 7 2 16 -1 19 -3 4 -6 -2 -5 -13z"/>
<path d="M1217 3453 c-4 -3 -7 -13 -7 -22 1 -13 3 -13 11 2 11 19 8 33 -4 20z"/>
<path d="M3111 3444 c0 -11 3 -14 6 -6 3 7 2 16 -1 19 -3 4 -6 -2 -5 -13z"/>
<path d="M3381 3444 c0 -11 3 -14 6 -6 3 7 2 16 -1 19 -3 4 -6 -2 -5 -13z"/>
<path d="M3080 3434 c0 -10 5 -26 10 -34 8 -11 9 -7 4 15 -8 37 -14 45 -14 19z"/>
<path d="M3220 3436 c0 -8 4 -17 9 -20 5 -4 7 3 4 14 -6 23 -13 26 -13 6z"/>
<path d="M4091 3424 c0 -11 3 -14 6 -6 3 7 2 16 -1 19 -3 4 -6 -2 -5 -13z"/>
<path d="M3191 3414 c0 -11 3 -14 6 -6 3 7 2 16 -1 19 -3 4 -6 -2 -5 -13z"/>
<path d="M4402 3400 c0 -19 2 -27 5 -17 2 9 2 25 0 35 -3 9 -5 1 -5 -18z"/>
<path d="M1719 3358 c-28 -34 -56 -72 -62 -85 -5 -13 -14 -23 -18 -23 -4 0 -9
-7 -12 -14 -11 -27 19 -6 38 27 10 18 37 55 60 82 45 54 59 75 51 75 -3 0 -28
-28 -57 -62z"/>
<path d="M1196 3393 c-6 -14 -5 -15 5 -6 7 7 10 15 7 18 -3 3 -9 -2 -12 -12z"/>
<path d="M3391 3394 c0 -11 3 -14 6 -6 3 7 2 16 -1 19 -3 4 -6 -2 -5 -13z"/>
<path d="M4482 3385 c0 -16 2 -22 5 -12 2 9 2 23 0 30 -3 6 -5 -1 -5 -18z"/>
<path d="M1351 3384 c0 -11 3 -14 6 -6 3 7 2 16 -1 19 -3 4 -6 -2 -5 -13z"/>
<path d="M3241 3390 c0 -8 6 -37 13 -65 8 -27 15 -43 15 -35 0 8 -6 38 -13 65
-8 28 -15 43 -15 35z"/>
<path d="M3422 3380 c0 -14 2 -19 5 -12 2 6 2 18 0 25 -3 6 -5 1 -5 -13z"/>
<path d="M4322 3365 c0 -16 2 -22 5 -12 2 9 2 23 0 30 -3 6 -5 -1 -5 -18z"/>
<path d="M3100 3365 c0 -5 5 -17 10 -25 5 -8 10 -10 10 -5 0 6 -5 17 -10 25
-5 8 -10 11 -10 5z"/>
<path d="M1175 3349 c-4 -6 -5 -12 -2 -15 2 -3 7 2 10 11 7 17 1 20 -8 4z"/>
<path d="M1583 3338 c-15 -20 -25 -38 -20 -38 3 0 12 11 21 25 17 26 16 35 -1
13z"/>
<path d="M3432 3330 c0 -14 2 -19 5 -12 2 6 2 18 0 25 -3 6 -5 1 -5 -13z"/>
<path d="M4400 3268 c-2 -49 -4 -102 -5 -118 -1 -18 2 -27 7 -22 5 5 7 58 5
118 l-3 109 -4 -87z"/>
<path d="M4503 3305 c0 -22 2 -30 4 -17 2 12 2 30 0 40 -3 9 -5 -1 -4 -23z"/>
<path d="M3700 3261 c-11 -23 -19 -41 -16 -41 7 0 47 72 42 77 -2 3 -14 -13
-26 -36z"/>
<path d="M1540 3279 c0 -5 5 -7 10 -4 6 3 10 8 10 11 0 2 -4 4 -10 4 -5 0 -10
-5 -10 -11z"/>
<path d="M1141 3273 c-1 -6 -4 -20 -7 -30 -5 -17 -5 -17 6 0 6 10 9 23 6 30
-3 9 -5 9 -5 0z"/>
<path d="M1439 3209 c-16 -34 -29 -63 -27 -65 2 -2 18 26 36 61 17 36 30 65
27 65 -3 0 -19 -27 -36 -61z"/>
<path d="M3272 3250 c0 -14 2 -19 5 -12 2 6 2 18 0 25 -3 6 -5 1 -5 -13z"/>
<path d="M4476 3239 c-8 -42 -8 -84 1 -75 8 7 17 106 10 106 -2 0 -7 -14 -11
-31z"/>
<path d="M1700 3215 c7 -8 16 -15 20 -15 5 0 55 -22 112 -49 99 -48 158 -89
158 -110 0 -6 9 -15 20 -21 14 -7 20 -7 20 0 0 5 -4 10 -9 10 -5 0 -17 18 -27
40 -10 21 -21 37 -25 35 -4 -3 -12 2 -19 10 -7 8 -19 15 -26 15 -8 0 -14 3
-14 8 0 4 -19 16 -43 27 -23 11 -44 22 -47 25 -9 10 -95 40 -114 40 -15 0 -16
-3 -6 -15z"/>
<path d="M3282 3200 c0 -14 2 -19 5 -12 2 6 2 18 0 25 -3 6 -5 1 -5 -13z"/>
<path d="M1056 3138 c-8 -24 -36 -101 -62 -173 -25 -71 -70 -176 -100 -233
-30 -57 -70 -154 -90 -215 -19 -62 -42 -130 -51 -152 -10 -28 -17 -95 -20
-218 -6 -193 5 -330 39 -452 10 -38 20 -74 21 -80 1 -5 5 -14 8 -20 3 -5 14
-49 25 -97 10 -49 22 -88 26 -88 12 0 9 35 -7 87 -9 26 -23 73 -32 103 -9 30
-22 75 -29 99 -31 99 -46 271 -39 428 10 236 50 372 197 668 55 109 86 191
117 304 23 83 21 105 -3 39z"/>
<path d="M2780 3120 c-36 -10 -105 -30 -155 -45 -108 -31 -194 -55 -200 -55
-3 0 -5 -4 -5 -9 0 -10 39 -3 56 10 6 5 13 7 15 4 3 -2 29 3 59 11 30 8 82 19
115 24 85 13 166 28 196 35 17 4 29 2 34 -5 5 -9 1 -10 -15 -5 -17 5 -21 4
-17 -6 2 -8 10 -13 16 -11 7 1 21 -3 33 -9 18 -10 20 -9 15 5 -11 29 8 17 21
-14 8 -16 20 -30 27 -30 7 0 25 -14 40 -31 37 -45 42 -29 11 33 -33 64 -64 94
-114 107 -48 14 -54 13 -132 -9z m205 -80 c3 -5 1 -10 -4 -10 -6 0 -11 5 -11
10 0 6 2 10 4 10 3 0 8 -4 11 -10z"/>
<path d="M4465 3130 c3 -5 8 -10 11 -10 2 0 4 5 4 10 0 6 -5 10 -11 10 -5 0
-7 -4 -4 -10z"/>
<path d="M1580 3109 c0 -5 5 -7 11 -4 5 4 19 -1 29 -10 10 -9 24 -14 29 -10 6
3 17 3 24 -2 6 -4 17 -8 22 -8 10 -1 86 -22 115 -33 26 -9 42 -11 35 -4 -4 4
-10 7 -13 8 -4 0 -25 8 -47 18 -110 48 -205 69 -205 45z"/>
<path d="M2465 3090 c-3 -5 -1 -10 4 -10 6 0 11 5 11 10 0 6 -2 10 -4 10 -3 0
-8 -4 -11 -10z"/>
<path d="M2310 3058 c0 -21 5 -38 10 -38 13 0 13 40 0 60 -7 11 -10 5 -10 -22z"/>
<path d="M1326 3025 c-9 -26 -7 -32 5 -12 6 10 9 21 6 23 -2 3 -7 -2 -11 -11z"/>
<path d="M2700 3006 c0 -9 39 -13 51 -5 10 6 4 9 -18 9 -18 0 -33 -2 -33 -4z"/>
<path d="M2636 2963 c-2 -2 -1 -15 2 -28 5 -28 33 -35 29 -7 -1 9 3 17 8 17 6
0 10 -7 10 -15 0 -10 12 -16 36 -17 32 -2 37 1 41 22 4 20 0 25 -21 30 -27 5
-98 4 -105 -2z m114 -17 c0 -3 -4 -8 -10 -11 -5 -3 -10 -1 -10 4 0 6 5 11 10
11 6 0 10 -2 10 -4z"/>
<path d="M1695 2945 c-35 -19 -47 -31 -22 -22 9 4 17 2 17 -3 0 -6 5 -10 10
-10 6 0 9 5 8 11 -5 19 20 21 25 2 4 -17 5 -17 6 0 0 9 6 17 11 17 6 0 10 -8
11 -17 0 -11 3 -13 6 -5 7 17 23 15 23 -3 0 -21 28 -19 33 3 4 13 5 11 6 -5 1
-24 21 -33 21 -10 1 7 6 5 14 -5 7 -10 18 -18 24 -18 30 0 128 -138 110 -155
-10 -10 -185 -7 -204 3 -27 14 -48 64 -42 97 6 29 7 28 -27 15 -17 -7 -24 -14
-18 -22 12 -20 14 -48 3 -48 -6 0 -10 -5 -10 -11 0 -6 7 -9 15 -6 8 4 17 2 20
-3 3 -5 -12 -10 -32 -12 l-38 -4 30 -13 c17 -7 90 -15 172 -18 l143 -6 9 24
c6 17 4 32 -8 53 -23 43 -121 140 -159 160 -49 25 -121 30 -157 11z"/>
<path d="M2575 2942 c-17 -11 -46 -40 -65 -66 -19 -26 -52 -65 -73 -86 -27
-27 -38 -46 -35 -62 3 -21 9 -23 83 -29 44 -3 88 -9 98 -14 9 -4 17 -3 17 2 0
15 -66 34 -120 35 -27 0 -50 2 -50 4 0 10 68 110 83 123 10 7 17 20 17 27 0 8
9 13 22 11 17 -1 24 4 26 21 4 24 22 31 22 7 0 -8 5 -15 10 -15 6 0 10 14 10
30 0 35 -5 36 -45 12z"/>
<path d="M2777 2934 c-4 -24 6 -33 18 -14 10 16 25 12 19 -5 -4 -9 0 -15 9
-15 8 0 17 6 20 13 3 8 11 6 27 -8 l23 -20 -11 20 c-5 11 -30 27 -55 37 l-45
16 -5 -24z"/>
<path d="M2048 2925 c-5 -5 17 -86 39 -145 4 -8 5 -22 4 -30 -2 -10 1 -12 7
-5 7 7 7 28 1 61 -10 56 -41 128 -51 119z"/>
<path d="M1276 2895 c-9 -26 -7 -32 5 -12 6 10 9 21 6 23 -2 3 -7 -2 -11 -11z"/>
<path d="M3650 2878 c-41 -21 -45 -26 -48 -65 l-3 -43 53 35 c69 46 84 50 114
30 40 -26 47 -59 35 -155 -17 -132 -59 -232 -122 -284 -21 -18 -29 -33 -29
-58 l0 -33 25 30 c100 120 155 254 155 375 0 91 -24 151 -69 174 -40 21 -59
20 -111 -6z"/>
<path d="M970 2800 c-97 -192 -201 -500 -199 -594 0 -33 5 -21 24 59 24 103
69 235 104 303 11 22 18 48 15 59 -3 12 -1 24 5 27 7 5 9 0 5 -11 -5 -17 -5
-17 6 -1 6 10 10 24 8 30 -3 20 13 59 22 53 5 -3 11 5 15 17 3 13 10 32 14 43
18 44 30 89 27 92 -2 3 -23 -32 -46 -77z"/>
<path d="M2700 2850 c0 -5 7 -10 15 -10 8 0 15 5 15 10 0 6 -7 10 -15 10 -8 0
-15 -4 -15 -10z"/>
<path d="M1275 2810 c-9 -16 -13 -30 -11 -30 3 0 12 14 21 30 9 17 13 30 11
30 -3 0 -12 -13 -21 -30z"/>
<path d="M1820 2825 c0 -8 7 -15 15 -15 8 0 15 7 15 15 0 8 -7 15 -15 15 -8 0
-15 -7 -15 -15z"/>
<path d="M2572 2810 c-23 -17 -42 -34 -42 -39 0 -5 -10 -12 -22 -16 -31 -9
124 -44 212 -47 53 -2 76 3 123 24 60 28 74 44 31 35 -21 -4 -25 -1 -21 14 3
10 -1 23 -9 30 -11 9 -14 8 -14 -4 0 -26 -21 -65 -39 -72 -9 -4 -37 -9 -62
-11 -39 -3 -50 1 -69 21 -15 16 -24 38 -24 60 -1 43 -11 44 -64 5z m35 -36
c-3 -3 -12 -4 -19 -1 -8 3 -5 6 6 6 11 1 17 -2 13 -5z m13 -24 c0 -5 -2 -10
-4 -10 -3 0 -8 5 -11 10 -3 6 -1 10 4 10 6 0 11 -4 11 -10z"/>
<path d="M3113 2811 c-4 -15 -11 -20 -21 -16 -12 5 -12 1 3 -15 22 -24 26 -25
19 -5 -4 8 -2 15 3 15 6 0 27 -35 47 -77 56 -116 79 -158 83 -146 3 9 -109
248 -123 262 -3 3 -7 -5 -11 -18z"/>
<path d="M1890 2777 c1 -30 1 -31 15 -13 19 25 19 32 0 40 -11 4 -15 -2 -15
-27z"/>
<path d="M2770 2791 c0 -22 -16 -36 -24 -23 -3 5 -19 7 -35 4 -17 -2 -28 -8
-25 -14 6 -10 80 -5 91 6 11 11 14 46 3 46 -6 0 -10 -9 -10 -19z"/>
<path d="M3721 2802 c-1 -7 -7 -12 -14 -10 -7 2 -13 -1 -13 -7 0 -5 7 -8 16
-7 20 5 23 9 17 24 -4 10 -6 10 -6 0z"/>
<path d="M1787 2783 c9 -28 34 -43 67 -42 31 0 30 1 -11 19 -24 11 -43 24 -43
30 0 5 -4 10 -10 10 -5 0 -7 -8 -3 -17z"/>
<path d="M3561 2758 c-1 -56 17 -148 30 -148 11 0 11 4 -1 32 -6 13 -14 55
-19 93 -8 62 -9 65 -10 23z"/>
<path d="M1931 2761 c-10 -18 -9 -21 9 -21 22 0 25 7 11 29 -7 11 -11 9 -20
-8z"/>
<path d="M866 2755 c-9 -26 -7 -32 5 -12 6 10 9 21 6 23 -2 3 -7 -2 -11 -11z"/>
<path d="M3683 2748 c-4 -7 -8 -17 -8 -22 0 -5 -11 -13 -24 -17 -20 -8 -23 -7
-18 11 7 26 -9 26 -23 0 -9 -17 -5 -22 37 -42 39 -19 49 -29 55 -58 13 -58 11
-99 -7 -126 l-16 -25 -23 24 c-13 14 -26 41 -30 61 -4 20 -12 36 -18 36 -6 0
-7 -8 -3 -17 3 -10 9 -30 12 -46 3 -15 10 -30 14 -33 5 -3 9 -20 9 -39 0 -19
4 -36 9 -39 17 -11 79 74 89 121 10 44 8 54 -22 147 -9 26 -14 52 -11 56 3 5
1 11 -4 14 -5 4 -13 1 -18 -6z"/>
<path d="M2995 2699 c-33 -27 -68 -49 -77 -49 -10 0 -18 -5 -18 -11 0 -5 -5
-7 -12 -3 -8 5 -9 0 -6 -14 4 -12 2 -20 -3 -17 -5 3 -21 -1 -36 -9 -27 -14
-27 -15 -5 -16 30 0 132 54 162 85 13 14 29 25 37 25 7 0 13 4 13 10 0 16 51
24 60 10 6 -10 12 -10 26 0 16 9 16 11 2 6 -10 -3 -21 1 -25 8 -5 7 -19 16
-33 19 -20 5 -37 -4 -85 -44z"/>
<path d="M1216 2695 c-9 -26 -7 -32 5 -12 6 10 9 21 6 23 -2 3 -7 -2 -11 -11z"/>
<path d="M2620 2680 c0 -5 7 -7 15 -4 8 4 15 1 15 -6 0 -6 5 -8 10 -5 6 4 8
11 5 16 -8 12 -45 12 -45 -1z"/>
<path d="M2840 2675 c7 -8 17 -15 22 -15 6 0 5 7 -2 15 -7 8 -17 15 -22 15 -6
0 -5 -7 2 -15z"/>
<path d="M1061 2664 c0 -11 3 -14 6 -6 3 7 2 16 -1 19 -3 4 -6 -2 -5 -13z"/>
<path d="M1780 2670 c0 -5 14 -7 33 -3 45 8 47 13 4 13 -20 0 -37 -4 -37 -10z"/>
<path d="M1959 2663 c-12 -16 -12 -17 2 -6 9 7 19 10 22 6 4 -3 7 -1 7 5 0 17
-16 15 -31 -5z"/>
<path d="M2686 2671 c-3 -5 1 -12 10 -15 20 -8 29 -1 19 13 -8 13 -22 14 -29
2z"/>
<path d="M2801 2664 c0 -11 3 -14 6 -6 3 7 2 16 -1 19 -3 4 -6 -2 -5 -13z"/>
<path d="M1909 2643 c-13 -16 -12 -17 4 -4 9 7 17 15 17 17 0 8 -8 3 -21 -13z"/>
<path d="M2525 2650 c3 -5 8 -10 11 -10 2 0 4 5 4 10 0 6 -5 10 -11 10 -5 0
-7 -4 -4 -10z"/>
<path d="M4377 2653 c-4 -3 -7 -20 -6 -37 l1 -31 8 35 c9 36 8 45 -3 33z"/>
<path d="M2570 2640 c0 -5 5 -10 10 -10 6 0 10 5 10 10 0 6 -4 10 -10 10 -5 0
-10 -4 -10 -10z"/>
<path d="M4425 2585 c5 -68 47 -304 65 -375 8 -30 9 -27 5 20 -3 30 -7 66 -10
80 -3 14 4 1 15 -29 11 -29 17 -63 14 -75 -3 -12 2 -55 11 -96 9 -41 17 -80
18 -87 0 -7 3 -10 7 -8 4 2 -2 43 -12 91 -10 48 -16 94 -13 102 3 8 -10 64
-29 126 -39 126 -53 190 -37 166 17 -24 13 0 -15 80 l-25 75 6 -70z"/>
<path d="M1017 2633 c-4 -3 -7 -17 -7 -29 0 -13 -7 -49 -15 -81 -9 -32 -15
-89 -13 -128 2 -69 -20 -218 -31 -211 -3 2 -7 -26 -7 -62 l-2 -67 14 75 c7 41
19 86 25 100 6 14 13 73 14 131 2 59 8 133 14 165 13 77 19 114 16 114 -1 0
-5 -3 -8 -7z"/>
<path d="M1061 2624 c0 -11 3 -14 6 -6 3 7 2 16 -1 19 -3 4 -6 -2 -5 -13z"/>
<path d="M4322 2620 c0 -14 2 -19 5 -12 2 6 2 18 0 25 -3 6 -5 1 -5 -13z"/>
<path d="M1681 2604 c0 -11 3 -14 6 -6 3 7 2 16 -1 19 -3 4 -6 -2 -5 -13z"/>
<path d="M2807 2613 c-4 -3 -7 -11 -7 -17 0 -7 3 -7 8 0 4 7 16 14 27 17 19 5
19 5 -1 6 -11 0 -24 -2 -27 -6z"/>
<path d="M1858 2603 c7 -3 16 -2 19 1 4 3 -2 6 -13 5 -11 0 -14 -3 -6 -6z"/>
<path d="M2714 2598 c-3 -4 2 -8 10 -8 8 0 17 4 20 8 3 5 -2 9 -10 9 -8 0 -17
-4 -20 -9z"/>
<path d="M2770 2600 c-9 -6 -10 -10 -3 -10 6 0 15 5 18 10 8 12 4 12 -15 0z"/>
<path d="M1738 2593 c6 -2 18 -2 25 0 6 3 1 5 -13 5 -14 0 -19 -2 -12 -5z"/>
<path d="M2665 2590 c4 -6 11 -8 16 -5 14 9 11 15 -7 15 -8 0 -12 -5 -9 -10z"/>
<path d="M928 2462 c-84 -190 -100 -249 -105 -382 -5 -103 1 -157 24 -250 2
-8 7 -36 10 -63 6 -47 22 -75 24 -40 1 23 5 43 14 66 4 10 3 17 -4 17 -6 0
-11 -8 -12 -17 0 -12 -2 -13 -6 -5 -3 7 1 19 8 28 9 11 9 18 1 26 -9 9 -12 7
-13 -8 0 -16 -2 -15 -10 6 -12 29 -14 109 -5 165 l6 40 -15 -35 c-14 -34 -14
-31 -9 55 3 50 12 117 20 150 17 69 69 206 95 250 18 31 43 114 36 121 -2 2
-29 -54 -59 -124z"/>
<path d="M4367 2573 c-11 -18 -38 -163 -35 -185 2 -12 13 24 24 82 20 98 23
123 11 103z"/>
<path d="M4172 2540 c0 -14 2 -19 5 -12 2 6 2 18 0 25 -3 6 -5 1 -5 -13z"/>
<path d="M3650 2531 c0 -6 5 -13 10 -16 6 -3 10 1 10 9 0 9 -4 16 -10 16 -5 0
-10 -4 -10 -9z"/>
<path d="M1037 2510 c-12 -50 -16 -100 -7 -95 12 7 23 66 18 96 l-4 24 -7 -25z"/>
<path d="M3570 2498 c2 -20 39 -108 39 -95 1 25 -22 97 -31 97 -5 0 -8 -1 -8
-2z"/>
<path d="M4384 2430 c-10 -77 -10 -79 12 -240 9 -69 21 -129 27 -135 6 -7 8
-2 4 15 -3 14 -8 70 -12 125 -3 55 -8 117 -11 138 -3 26 -1 36 6 32 7 -4 9 2
5 17 -3 12 -9 43 -14 68 l-8 45 -9 -65z"/>
<path d="M4473 2466 c3 -8 11 -33 17 -56 6 -23 14 -40 17 -37 6 6 -26 107 -34
107 -3 0 -3 -6 0 -14z"/>
<path d="M954 2433 c-3 -10 -10 -29 -15 -42 -5 -13 -7 -26 -5 -29 3 -2 11 8
17 24 15 35 21 64 14 64 -3 0 -8 -8 -11 -17z"/>
<path d="M4191 2434 c0 -11 3 -14 6 -6 3 7 2 16 -1 19 -3 4 -6 -2 -5 -13z"/>
<path d="M742 2400 c0 -14 2 -19 5 -12 2 6 2 18 0 25 -3 6 -5 1 -5 -13z"/>
<path d="M1534 2379 c10 -97 136 -417 214 -545 23 -38 102 -148 175 -244 152
-199 176 -218 287 -224 36 -2 52 -2 35 0 -94 13 -184 60 -168 88 3 6 3 8 -2 4
-10 -9 -35 17 -35 37 0 9 -4 14 -9 10 -5 -3 -12 4 -16 15 -3 11 -10 20 -15 20
-5 0 -12 9 -15 20 -4 11 -10 18 -15 15 -5 -3 -11 4 -15 15 -3 11 -11 20 -17
20 -5 0 -8 7 -4 15 3 8 1 15 -5 15 -30 0 -155 182 -222 323 -26 54 -47 104
-47 110 0 7 -6 21 -13 32 -8 11 -16 29 -19 40 -4 11 -18 52 -32 90 -14 39 -27
79 -29 90 -4 18 -13 44 -31 85 -3 8 -4 -6 -2 -31z"/>
<path d="M4152 2245 c-13 -66 -25 -129 -29 -140 -4 -14 -2 -17 6 -10 6 6 13
28 16 50 3 22 13 73 21 113 8 40 14 80 12 90 -2 9 -14 -37 -26 -103z"/>
<path d="M4131 2334 c0 -11 3 -14 6 -6 3 7 2 16 -1 19 -3 4 -6 -2 -5 -13z"/>
<path d="M4427 2285 c3 -38 7 -143 8 -232 1 -89 5 -166 9 -170 12 -11 -1 395
-13 437 -9 28 -9 22 -4 -35z"/>
<path d="M921 2324 c0 -11 3 -14 6 -6 3 7 2 16 -1 19 -3 4 -6 -2 -5 -13z"/>
<path d="M3514 2324 c5 -10 11 -38 13 -61 3 -24 10 -43 15 -43 5 0 7 8 5 18
-3 9 -8 34 -12 54 -3 21 -11 40 -17 44 -8 5 -9 1 -4 -12z"/>
<path d="M4101 2324 c0 -11 3 -14 6 -6 3 7 2 16 -1 19 -3 4 -6 -2 -5 -13z"/>
<path d="M3591 2308 c-1 -16 4 -28 9 -28 12 0 12 8 0 35 -8 18 -9 17 -9 -7z"/>
<path d="M3621 2314 c0 -11 3 -14 6 -6 3 7 2 16 -1 19 -3 4 -6 -2 -5 -13z"/>
<path d="M1921 2294 c-1 -39 24 -101 52 -132 11 -12 38 -25 59 -29 27 -4 37
-10 34 -19 -6 -16 10 -28 24 -19 16 10 -8 45 -30 45 -28 0 -84 53 -102 97 -40
97 -37 92 -37 57z"/>
<path d="M3430 2308 c0 -22 25 -51 40 -46 9 3 5 12 -14 32 -16 18 -26 24 -26
14z"/>
<path d="M2237 2303 c-4 -3 -7 -11 -7 -17 0 -6 5 -5 12 2 6 6 9 14 7 17 -3 3
-9 2 -12 -2z"/>
<path d="M2371 2277 c-2 -57 -24 -92 -73 -112 -46 -18 -108 -25 -108 -12 0 4
-5 5 -11 2 -6 -4 -8 -10 -5 -13 3 -3 -1 -14 -11 -24 -15 -17 -15 -18 1 -18 9
0 14 5 11 10 -4 6 9 11 32 12 53 2 52 2 105 25 61 28 83 67 70 126 l-10 42 -1
-38z"/>
<path d="M4311 2294 c0 -11 3 -14 6 -6 3 7 2 16 -1 19 -3 4 -6 -2 -5 -13z"/>
<path d="M1971 2284 c-1 -6 9 -20 22 -31 25 -23 67 -47 67 -38 0 10 -54 54
-67 55 -6 0 -14 6 -16 13 -3 6 -6 7 -6 1z"/>
<path d="M2145 2252 c-16 -9 -32 -18 -34 -19 -2 -2 -1 -6 2 -9 4 -4 18 1 31
10 34 22 88 20 117 -3 19 -16 21 -21 11 -34 -11 -13 -10 -15 7 -10 25 6 24 5
10 37 -20 44 -92 58 -144 28z"/>
<path d="M4101 2254 c0 -11 3 -14 6 -6 3 7 2 16 -1 19 -3 4 -6 -2 -5 -13z"/>
<path d="M4301 2254 c0 -11 3 -14 6 -6 3 7 2 16 -1 19 -3 4 -6 -2 -5 -13z"/>
<path d="M3398 2253 c6 -2 12 -12 12 -21 0 -15 -2 -15 -10 -2 -5 8 -10 11 -10
5 0 -5 -5 -3 -11 5 -8 11 -9 8 -5 -17 3 -20 1 -33 -7 -36 -15 -5 46 -37 71
-37 11 0 30 9 43 20 l24 19 -40 -2 c-30 -2 -40 2 -43 16 -2 11 3 17 14 17 13
0 11 4 -9 20 -14 11 -29 20 -34 19 -4 0 -2 -3 5 -6z"/>
<path d="M1043 2185 c0 -33 2 -45 4 -27 2 18 2 45 0 60 -2 15 -4 0 -4 -33z"/>
<path d="M4365 2230 c-5 -9 25 -174 44 -235 l9 -30 1 33 c1 18 -3 41 -9 51 -8
17 -32 145 -33 179 0 14 -4 15 -12 2z"/>
<path d="M3510 2200 c0 -5 5 -10 10 -10 6 0 10 5 10 10 0 6 -4 10 -10 10 -5 0
-10 -4 -10 -10z"/>
<path d="M2210 2190 c-12 -8 -11 -10 7 -10 12 0 25 5 28 10 8 13 -15 13 -35 0z"/>
<path d="M4071 2169 c-6 -18 -9 -34 -7 -36 2 -2 9 10 15 28 6 18 9 34 7 36 -2
2 -9 -10 -15 -28z"/>
<path d="M4273 2185 c-3 -9 -3 -18 -1 -21 3 -3 8 4 11 16 6 23 -1 27 -10 5z"/>
<path d="M982 2150 c0 -19 2 -27 5 -17 2 9 2 25 0 35 -3 9 -5 1 -5 -18z"/>
<path d="M1011 2128 c0 -25 -4 -53 -7 -62 -3 -9 -2 -16 4 -16 14 0 20 43 12
87 l-8 38 -1 -47z"/>
<path d="M4287 2093 c-9 -36 -16 -68 -13 -70 2 -2 12 26 21 62 10 36 16 67 14
70 -3 2 -12 -26 -22 -62z"/>
<path d="M4497 2004 c2 -78 11 -172 21 -214 9 -41 17 -82 17 -90 2 -30 17 -70
27 -70 6 0 7 10 3 23 -28 94 -45 202 -49 314 -2 70 -9 139 -14 152 -5 16 -7
-24 -5 -115z"/>
<path d="M4195 2083 c-10 -27 -40 -93 -65 -148 -26 -55 -64 -139 -84 -188 -55
-133 -172 -362 -234 -457 -57 -88 -91 -133 -178 -235 -28 -33 -60 -71 -70 -84
-10 -13 -24 -28 -30 -35 -6 -6 -18 -24 -28 -41 -14 -23 -11 -21 15 9 19 22 72
83 118 135 182 208 303 412 429 726 33 83 75 179 92 214 35 69 62 142 57 148
-2 2 -12 -18 -22 -44z"/>
<path d="M4045 2099 c-4 -6 -5 -12 -2 -15 2 -3 7 2 10 11 7 17 1 20 -8 4z"/>
<path d="M965 2043 c-3 -32 -9 -69 -11 -83 -4 -24 -4 -24 5 -3 11 25 26 143
18 143 -2 0 -8 -26 -12 -57z"/>
<path d="M4091 2084 c0 -11 3 -14 6 -6 3 7 2 16 -1 19 -3 4 -6 -2 -5 -13z"/>
<path d="M4115 2068 c-26 -73 -33 -98 -26 -103 5 -2 15 22 24 55 8 33 13 60
11 60 -3 0 -7 -6 -9 -12z"/>
<path d="M920 1981 c-6 -38 -10 -78 -8 -88 2 -10 10 19 17 65 8 45 11 85 8 88
-3 3 -10 -26 -17 -65z"/>
<path d="M1038 2025 c2 -14 6 -25 8 -25 2 0 4 11 4 25 0 14 -4 25 -9 25 -4 0
-6 -11 -3 -25z"/>
<path d="M4017 2031 c-4 -17 -3 -21 5 -13 5 5 8 16 6 23 -3 8 -7 3 -11 -10z"/>
<path d="M1011 2020 c0 -15 -5 -30 -10 -35 -18 -21 -29 -73 -21 -106 7 -32 8
-30 9 19 1 29 6 52 12 52 5 0 7 5 4 10 -4 6 -1 17 5 25 6 8 10 24 7 37 -4 22
-4 22 -6 -2z"/>
<path d="M1969 1996 c-17 -17 -40 -43 -51 -58 -19 -28 -19 -28 1 -28 12 0 31
16 50 44 36 52 53 60 97 44 26 -9 42 -9 74 1 46 14 32 18 205 -71 41 -21 90
-38 118 -41 46 -4 64 7 30 20 -10 4 -21 11 -25 17 -6 7 -11 6 -18 -4 -5 -8
-10 -10 -10 -4 0 6 -19 17 -42 23 -24 7 -74 30 -113 51 -68 37 -72 37 -178 37
-107 0 -107 0 -138 -31z"/>
<path d="M4246 1955 c-61 -219 -274 -660 -409 -843 -76 -105 -170 -192 -374
-347 -274 -208 -325 -256 -98 -91 310 224 439 350 555 540 56 93 242 465 270
541 46 125 81 238 77 249 -2 6 -11 -16 -21 -49z"/>
<path d="M771 1945 c-2 -79 16 -168 66 -338 43 -145 48 -156 59 -135 17 29 17
60 2 109 -16 54 -28 49 -16 -6 5 -24 8 -57 6 -72 -3 -22 -7 -14 -17 32 -7 33
-16 69 -21 80 -20 53 -29 93 -28 130 0 21 -5 41 -11 43 -6 2 -9 7 -6 11 2 5 0
23 -6 42 -6 19 -14 61 -19 94 l-7 60 -2 -50z"/>
<path d="M1040 1943 c0 -35 -3 -44 -10 -33 -8 12 -10 8 -11 -15 -1 -16 0 -38
1 -49 1 -10 -2 -16 -7 -13 -4 3 -9 -9 -10 -26 -2 -18 -7 -33 -13 -35 -5 -2
-10 -8 -10 -13 0 -4 6 -6 14 -3 22 9 77 234 56 234 -5 0 -10 -21 -10 -47z"/>
<path d="M4552 1970 c0 -14 2 -19 5 -12 2 6 2 18 0 25 -3 6 -5 1 -5 -13z"/>
<path d="M4073 1943 c-15 -5 -18 -33 -4 -33 8 0 25 30 19 35 -2 1 -9 0 -15 -2z"/>
<path d="M862 1900 c0 -19 2 -27 5 -17 2 9 2 25 0 35 -3 9 -5 1 -5 -18z"/>
<path d="M4612 1900 c0 -19 2 -27 5 -17 2 9 2 25 0 35 -3 9 -5 1 -5 -18z"/>
<path d="M4156 1905 c-9 -26 -7 -32 5 -12 6 10 9 21 6 23 -2 3 -7 -2 -11 -11z"/>
<path d="M1071 1894 c0 -11 3 -14 6 -6 3 7 2 16 -1 19 -3 4 -6 -2 -5 -13z"/>
<path d="M4472 1880 c0 -14 2 -19 5 -12 2 6 2 18 0 25 -3 6 -5 1 -5 -13z"/>
<path d="M891 1874 c0 -11 3 -14 6 -6 3 7 2 16 -1 19 -3 4 -6 -2 -5 -13z"/>
<path d="M3550 1870 c-6 -11 -8 -20 -6 -20 3 0 10 9 16 20 6 11 8 20 6 20 -3
0 -10 -9 -16 -20z"/>
<path d="M4581 1874 c0 -11 3 -14 6 -6 3 7 2 16 -1 19 -3 4 -6 -2 -5 -13z"/>
<path d="M3591 1853 c-10 -26 -10 -27 4 -9 8 11 15 23 15 28 0 15 -7 8 -19
-19z"/>
<path d="M946 1855 c-3 -9 -6 -22 -5 -28 0 -7 5 -1 10 12 5 13 8 26 5 28 -2 2
-6 -3 -10 -12z"/>
<path d="M1886 1861 c-4 -6 -3 -11 2 -11 5 0 12 -9 15 -21 4 -14 10 -18 19
-13 10 6 10 4 -1 -9 -12 -15 -12 -17 3 -11 10 4 16 1 16 -8 0 -20 49 -64 90
-81 59 -25 80 -29 80 -18 0 6 -9 11 -20 11 -51 0 -126 67 -137 121 -3 18 -12
29 -22 29 -9 0 -22 5 -28 11 -8 8 -13 8 -17 0z"/>
<path d="M903 1845 c-3 -9 -3 -18 -1 -21 3 -3 8 4 11 16 6 23 -1 27 -10 5z"/>
<path d="M1058 1850 c-4 -8 -9 -28 -13 -44 -5 -26 -5 -27 10 -12 10 9 15 27
13 43 -3 19 -6 23 -10 13z"/>
<path d="M1151 1844 c0 -11 3 -14 6 -6 3 7 2 16 -1 19 -3 4 -6 -2 -5 -13z"/>
<path d="M4613 1810 c0 -30 2 -43 4 -27 2 15 2 39 0 55 -2 15 -4 2 -4 -28z"/>
<path d="M2012 1843 c10 -2 15 -10 11 -19 -4 -11 1 -14 21 -10 18 3 26 0 26
-10 0 -19 19 -18 27 2 6 15 7 15 19 0 11 -16 13 -16 23 1 10 17 10 17 11 -2 1
-12 4 -15 7 -7 4 10 8 10 19 1 10 -8 14 -8 14 0 0 13 50 11 68 -2 9 -7 17 -6
25 2 9 10 8 11 -8 5 -20 -7 -20 -7 -1 14 25 28 46 28 47 0 0 -20 1 -21 8 -5 4
10 10 18 14 18 4 -1 15 -1 25 -1 15 1 15 2 1 10 -9 5 -42 7 -75 4 -78 -8 -196
-10 -209 -4 -5 2 -28 5 -50 6 -22 1 -32 0 -23 -3z"/>
<path d="M2438 1843 c-10 -2 -18 -9 -18 -14 0 -6 -6 -16 -13 -23 -26 -27 -134
-93 -167 -104 -32 -10 -32 -11 -5 -7 50 7 77 17 121 47 23 15 46 28 51 28 4 0
14 9 21 21 8 12 19 18 28 15 9 -3 12 -1 9 4 -3 6 3 10 13 10 11 0 22 7 26 15
4 11 -2 15 -22 14 -15 -1 -35 -3 -44 -6z"/>
<path d="M4030 1834 c0 -16 -2 -17 -10 -4 -5 8 -10 11 -10 5 0 -5 4 -16 9 -24
7 -11 10 -9 16 8 4 13 4 25 1 28 -3 4 -6 -2 -6 -13z"/>
<path d="M4092 1748 c-66 -169 -91 -238 -87 -238 9 0 138 330 131 337 -2 2
-22 -42 -44 -99z"/>
<path d="M4474 1833 c3 -10 10 -39 17 -66 6 -26 16 -50 22 -54 6 -4 8 0 4 11
-4 9 -14 41 -23 71 -8 30 -18 55 -20 55 -3 0 -3 -8 0 -17z"/>
<path d="M4582 1830 c0 -14 2 -19 5 -12 2 6 2 18 0 25 -3 6 -5 1 -5 -13z"/>
<path d="M3522 1820 c-18 -29 -15 -38 4 -12 9 13 14 25 12 27 -2 2 -9 -5 -16
-15z"/>
<path d="M955 1805 c-13 -54 -37 -125 -42 -125 -5 0 -2 17 16 92 5 21 5 36 1
33 -4 -3 -13 -26 -20 -52 -6 -26 -17 -54 -23 -62 -10 -12 -9 -13 2 -6 10 6 13
4 9 -6 -3 -8 -2 -23 3 -34 l8 -20 1 20 c0 11 7 29 15 39 18 23 48 123 42 139
-3 7 -8 -1 -12 -18z"/>
<path d="M4551 1804 c0 -11 3 -14 6 -6 3 7 2 16 -1 19 -3 4 -6 -2 -5 -13z"/>
<path d="M3836 1783 c-6 -14 -5 -15 5 -6 7 7 10 15 7 18 -3 3 -9 -2 -12 -12z"/>
<path d="M1231 1774 c0 -11 3 -14 6 -6 3 7 2 16 -1 19 -3 4 -6 -2 -5 -13z"/>
<path d="M3995 1779 c4 -5 -69 -172 -92 -211 -2 -5 1 -8 6 -8 6 0 11 4 11 10
0 5 16 42 36 82 58 120 64 135 48 135 -7 0 -11 -4 -9 -8z"/>
<path d="M3464 1709 c-19 -39 -33 -73 -31 -75 2 -3 17 21 32 53 15 32 32 66
37 76 5 9 6 17 3 17 -2 0 -21 -32 -41 -71z"/>
<path d="M3546 1763 c-6 -14 -5 -15 5 -6 7 7 10 15 7 18 -3 3 -9 -2 -12 -12z"/>
<path d="M1037 1763 c-3 -5 -10 -27 -17 -51 -6 -24 -13 -51 -16 -60 -3 -9 4 0
15 21 20 38 37 97 27 97 -2 0 -7 -3 -9 -7z"/>
<path d="M1147 1751 c-4 -17 -3 -21 5 -13 5 5 8 16 6 23 -3 8 -7 3 -11 -10z"/>
<path d="M1186 1730 c4 -25 10 -49 14 -53 4 -5 4 13 -1 39 -12 61 -22 72 -13
14z"/>
<path d="M4568 1758 c-2 -7 -1 -26 3 -43 6 -28 7 -26 8 13 1 42 -3 53 -11 30z"/>
<path d="M3761 1625 c-35 -68 -99 -182 -143 -252 -44 -70 -102 -167 -129 -215
-27 -48 -55 -95 -63 -105 -41 -49 -115 -157 -111 -162 6 -5 -3 -17 87 109 41
58 88 130 104 160 16 30 31 57 34 60 6 6 129 208 160 265 47 83 131 257 128
261 -2 2 -33 -52 -67 -121z"/>
<path d="M4604 1735 c-3 -8 -4 -20 -2 -27 3 -7 7 -1 10 15 6 29 1 36 -8 12z"/>
<path d="M987 1733 c-4 -3 -7 -11 -7 -17 0 -6 5 -5 12 2 6 6 9 14 7 17 -3 3
-9 2 -12 -2z"/>
<path d="M1285 1725 c14 -47 26 -115 34 -190 l8 -80 2 61 c1 72 -12 148 -34
195 -8 19 -13 25 -10 14z"/>
<path d="M3553 1724 c-5 -13 -7 -13 -14 -2 -5 7 -9 9 -9 3 0 -5 4 -16 9 -24 9
-13 13 -10 24 22 8 21 -1 23 -10 1z"/>
<path d="M3922 1705 c-17 -37 -14 -45 4 -12 9 16 14 31 11 33 -2 2 -9 -7 -15
-21z"/>
<path d="M1255 1690 c3 -14 13 -68 23 -120 9 -52 18 -88 20 -78 4 21 -23 165
-38 198 l-11 25 6 -25z"/>
<path d="M3197 1668 c-22 -59 -29 -88 -24 -88 7 0 48 122 43 127 -2 2 -11 -15
-19 -39z"/>
<path d="M1392 1670 c0 -19 2 -27 5 -17 2 9 2 25 0 35 -3 9 -5 1 -5 -18z"/>
<path d="M2165 1690 c4 -6 11 -8 16 -5 14 9 11 15 -7 15 -8 0 -12 -5 -9 -10z"/>
<path d="M3863 1685 c-3 -9 -3 -18 -1 -21 3 -3 8 4 11 16 6 23 -1 27 -10 5z"/>
<path d="M861 1644 c0 -11 3 -14 6 -6 3 7 2 16 -1 19 -3 4 -6 -2 -5 -13z"/>
<path d="M4591 1644 c0 -11 3 -14 6 -6 3 7 2 16 -1 19 -3 4 -6 -2 -5 -13z"/>
<path d="M932 1620 c-8 -17 -10 -39 -6 -52 6 -20 9 -17 20 22 15 52 5 73 -14
30z"/>
<path d="M1200 1634 c0 -8 5 -12 10 -9 6 3 10 10 10 16 0 5 -4 9 -10 9 -5 0
-10 -7 -10 -16z"/>
<path d="M1342 1630 c0 -14 2 -19 5 -12 2 6 2 18 0 25 -3 6 -5 1 -5 -13z"/>
<path d="M3821 1610 c-12 -22 -20 -40 -18 -40 7 0 48 72 44 76 -2 2 -14 -14
-26 -36z"/>
<path d="M3885 1620 c-9 -16 -13 -30 -11 -30 3 0 12 14 21 30 9 17 13 30 11
30 -3 0 -12 -13 -21 -30z"/>
<path d="M1404 1465 c0 -93 2 -133 3 -88 2 45 2 122 0 170 -1 48 -3 12 -3 -82z"/>
<path d="M2063 1620 c-47 -19 -25 -23 132 -20 66 0 122 5 125 10 3 4 16 10 30
13 14 2 -40 5 -120 5 -80 0 -155 -3 -167 -8z"/>
<path d="M3506 1613 c-6 -14 -5 -15 5 -6 7 7 10 15 7 18 -3 3 -9 -2 -12 -12z"/>
<path d="M1031 1604 c0 -11 3 -14 6 -6 3 7 2 16 -1 19 -3 4 -6 -2 -5 -13z"/>
<path d="M1162 1600 c0 -14 2 -19 5 -12 2 6 2 18 0 25 -3 6 -5 1 -5 -13z"/>
<path d="M3208 1585 c-8 -22 -30 -92 -48 -155 -17 -63 -38 -122 -46 -131 -8
-8 -14 -21 -14 -27 0 -14 -71 -51 -165 -85 -38 -14 -108 -41 -155 -60 -47 -19
-141 -53 -210 -76 -87 -29 -135 -50 -157 -71 -32 -30 -34 -35 -62 -233 -12
-82 -29 -112 -79 -135 -20 -9 -44 -21 -52 -27 -8 -6 -41 -19 -73 -29 -93 -28
-167 -108 -167 -178 0 -33 46 -49 98 -36 107 27 226 183 166 216 -22 12 -9 32
21 32 30 0 81 58 94 107 5 21 15 79 21 128 11 87 26 127 59 152 9 7 84 35 166
63 83 28 230 83 329 123 l178 72 60 179 c32 98 58 185 56 195 -2 10 -10 1 -20
-24z m-982 -1033 c21 -14 23 -40 3 -58 -10 -9 -19 -22 -19 -29 0 -11 -89 -92
-96 -87 -2 1 -18 -5 -35 -14 -31 -15 -65 -12 -55 5 3 5 -3 7 -14 4 -24 -6 -28
18 -5 37 8 7 15 18 15 24 0 24 80 89 132 107 61 21 60 21 74 11z"/>
<path d="M2207 543 c-7 -11 10 -40 18 -31 4 4 3 14 -3 24 -5 9 -12 12 -15 7z"/>
<path d="M1132 1590 c0 -14 2 -19 5 -12 2 6 2 18 0 25 -3 6 -5 1 -5 -13z"/>
<path d="M3546 1595 c-9 -26 -7 -32 5 -12 6 10 9 21 6 23 -2 3 -7 -2 -11 -11z"/>
<path d="M4600 1594 c0 -8 5 -12 10 -9 6 4 8 11 5 16 -9 14 -15 11 -15 -7z"/>
<path d="M4363 1560 c0 -25 2 -35 4 -22 2 12 2 32 0 45 -2 12 -4 2 -4 -23z"/>
<path d="M1250 1584 c1 -26 30 -197 34 -202 10 -9 7 29 -9 117 -12 72 -25 116
-25 85z"/>
<path d="M1432 1570 c0 -14 2 -19 5 -12 2 6 2 18 0 25 -3 6 -5 1 -5 -13z"/>
<path d="M4416 1525 c8 -113 27 -224 37 -218 5 3 6 19 3 37 -3 17 -9 67 -12
111 -3 44 -12 94 -20 110 -13 28 -13 25 -8 -40z"/>
<path d="M960 1559 c0 -11 4 -18 10 -14 5 3 7 12 3 20 -7 21 -13 19 -13 -6z"/>
<path d="M1202 1480 c-12 -57 -20 -105 -18 -107 6 -7 49 184 44 198 -2 6 -14
-35 -26 -91z"/>
<path d="M1349 1513 c-4 -305 -3 -499 3 -471 8 34 9 538 2 538 -2 0 -4 -30 -5
-67z"/>
<path d="M1152 1550 c0 -14 2 -19 5 -12 2 6 2 18 0 25 -3 6 -5 1 -5 -13z"/>
<path d="M1473 1419 c0 -85 -3 -184 -6 -220 -5 -52 -4 -57 3 -29 15 51 23 286
13 350 -7 45 -9 26 -10 -101z"/>
<path d="M4595 1550 c4 -14 14 -36 22 -50 14 -25 14 -25 9 8 -3 18 -13 41 -22
50 -15 15 -16 14 -9 -8z"/>
<path d="M3470 1536 c-15 -39 -12 -46 6 -13 9 16 13 31 10 34 -3 3 -10 -6 -16
-21z"/>
<path d="M3845 1549 c-4 -6 -5 -12 -2 -15 2 -3 7 2 10 11 7 17 1 20 -8 4z"/>
<path d="M3525 1540 c-3 -5 -1 -10 4 -10 6 0 11 5 11 10 0 6 -2 10 -4 10 -3 0
-8 -4 -11 -10z"/>
<path d="M1437 1320 c5 -183 3 -241 -11 -311 -17 -89 -19 -116 -11 -107 10 10
46 204 41 223 -3 11 -6 95 -6 186 -1 91 -5 181 -10 200 -4 18 -5 -67 -3 -191z"/>
<path d="M3151 1533 c-1 -6 -4 -20 -7 -30 -5 -17 -5 -17 6 0 6 10 9 23 6 30
-3 9 -5 9 -5 0z"/>
<path d="M3562 1515 c-17 -37 -14 -45 4 -12 9 16 14 31 11 33 -2 2 -9 -7 -15
-21z"/>
<path d="M3792 1528 c-10 -13 -29 -67 -20 -58 7 7 37 70 33 70 -1 0 -7 -6 -13
-12z"/>
<path d="M3887 1533 c-2 -4 -16 -29 -32 -55 -15 -27 -25 -48 -22 -48 7 0 68
102 63 107 -2 2 -6 1 -9 -4z"/>
<path d="M3244 1514 c-3 -10 -21 -56 -40 -102 -23 -54 -32 -88 -26 -97 6 -12
12 -8 25 20 10 20 13 34 7 30 -14 -8 -13 1 4 38 28 65 47 120 42 125 -3 3 -8
-4 -12 -14z m-53 -181 c-12 -20 -14 -14 -5 12 4 9 9 14 11 11 3 -2 0 -13 -6
-23z"/>
<path d="M4652 1505 c0 -16 2 -22 5 -12 2 9 2 23 0 30 -3 6 -5 -1 -5 -18z"/>
<path d="M986 1512 c-3 -5 1 -9 9 -9 8 0 15 4 15 9 0 4 -4 8 -9 8 -6 0 -12 -4
-15 -8z"/>
<path d="M1141 1504 c0 -11 3 -14 6 -6 3 7 2 16 -1 19 -3 4 -6 -2 -5 -13z"/>
<path d="M3517 1514 c-4 -4 -7 -14 -7 -23 0 -11 3 -12 11 -4 6 6 10 16 7 23
-2 6 -7 8 -11 4z"/>
<path d="M1181 1494 c0 -11 3 -14 6 -6 3 7 2 16 -1 19 -3 4 -6 -2 -5 -13z"/>
<path d="M917 1477 c-4 -10 -7 -26 -7 -35 1 -15 2 -15 11 1 6 10 9 25 7 35 -3
16 -4 15 -11 -1z"/>
<path d="M972 1465 c0 -16 2 -22 5 -12 2 9 2 23 0 30 -3 6 -5 -1 -5 -18z"/>
<path d="M4281 1474 c0 -11 3 -14 6 -6 3 7 2 16 -1 19 -3 4 -6 -2 -5 -13z"/>
<path d="M4466 1450 c11 -80 13 -198 3 -170 -6 17 -6 8 -2 -30 3 -30 9 -56 14
-58 5 -2 6 -15 3 -28 -3 -13 -2 -24 3 -24 10 0 13 291 3 300 -3 3 -11 16 -18
30 -11 23 -12 21 -6 -20z"/>
<path d="M3127 1451 c-4 -17 -3 -21 5 -13 5 5 8 16 6 23 -3 8 -7 3 -11 -10z"/>
<path d="M3422 1445 c-6 -14 -7 -25 -2 -25 9 0 25 39 18 46 -3 2 -10 -7 -16
-21z"/>
<path d="M3490 1455 c0 -5 5 -17 10 -25 5 -8 10 -10 10 -5 0 6 -5 17 -10 25
-5 8 -10 11 -10 5z"/>
<path d="M1006 1435 c-9 -26 -7 -32 5 -12 6 10 9 21 6 23 -2 3 -7 -2 -11 -11z"/>
<path d="M1317 1265 c11 -367 -25 -519 -165 -700 -26 -33 -38 -53 -28 -45 60
48 186 269 186 325 0 19 4 36 8 39 18 11 20 503 2 549 -4 12 -6 -63 -3 -168z"/>
<path d="M3536 1433 c-6 -14 -5 -15 5 -6 7 7 10 15 7 18 -3 3 -9 -2 -12 -12z"/>
<path d="M1110 1439 c0 -2 -11 -35 -25 -74 -14 -38 -22 -65 -17 -60 13 14 53
128 47 134 -3 2 -5 2 -5 0z"/>
<path d="M3725 1388 c-15 -29 -30 -55 -34 -58 -4 -3 -20 -27 -36 -55 -16 -27
-36 -59 -45 -70 -17 -21 -48 -88 -33 -70 10 11 82 121 135 205 31 49 52 100
43 100 -2 0 -16 -24 -30 -52z"/>
<path d="M3466 1414 c-4 -9 -4 -19 -1 -22 2 -3 7 3 11 12 4 9 4 19 1 22 -2 3
-7 -3 -11 -12z"/>
<path d="M3688 1384 c-15 -24 -25 -44 -23 -44 7 0 58 80 54 84 -2 2 -16 -16
-31 -40z"/>
<path d="M1215 1368 c-3 -29 -9 -62 -11 -73 -4 -16 -3 -17 4 -5 10 16 26 130
19 130 -3 0 -8 -24 -12 -52z"/>
<path d="M3785 1358 c-39 -63 -119 -170 -228 -306 -33 -40 -57 -75 -55 -78 5
-4 47 46 152 176 56 72 180 260 174 266 -3 2 -22 -24 -43 -58z"/>
<path d="M4680 1411 c0 -6 4 -13 10 -16 6 -3 7 1 4 9 -7 18 -14 21 -14 7z"/>
<path d="M900 1401 c0 -6 5 -13 10 -16 6 -3 10 1 10 9 0 9 -4 16 -10 16 -5 0
-10 -4 -10 -9z"/>
<path d="M4650 1400 c0 -8 15 -40 34 -71 19 -31 37 -66 41 -78 3 -11 11 -21
16 -21 6 0 7 -4 4 -10 -3 -5 -1 -10 4 -10 16 0 14 5 -21 66 -18 30 -43 74 -55
97 -13 23 -23 35 -23 27z"/>
<path d="M826 1371 c-23 -43 -19 -52 5 -13 12 18 19 35 16 38 -3 3 -13 -8 -21
-25z"/>
<path d="M868 1382 c-4 -12 -2 -20 3 -16 5 3 9 -3 10 -13 0 -10 3 -13 5 -7 3
6 1 21 -4 34 l-9 24 -5 -22z"/>
<path d="M1136 1339 c-10 -33 -16 -63 -12 -66 3 -4 7 -1 7 5 2 14 2 15 18 71
7 23 11 45 8 47 -2 2 -11 -23 -21 -57z"/>
<path d="M3476 1373 c-6 -13 -9 -14 -15 -4 -6 8 -13 -2 -22 -33 -7 -25 -17
-46 -21 -46 -4 0 -8 -7 -8 -15 0 -8 -5 -15 -11 -15 -6 0 -8 -7 -5 -17 4 -10 4
-14 0 -10 -5 4 -15 -7 -25 -25 -9 -18 -29 -58 -46 -88 -30 -56 -66 -140 -59
-140 1 0 22 31 44 69 26 44 40 77 36 88 -4 13 -3 15 4 5 13 -18 105 150 95
174 -4 11 -3 15 5 10 11 -6 48 51 39 60 -3 3 -8 -3 -11 -13z"/>
<path d="M922 1364 c-8 -9 -10 -20 -4 -30 8 -14 10 -12 16 11 8 33 5 38 -12
19z"/>
<path d="M3387 1373 c-4 -3 -7 -13 -7 -22 1 -13 3 -13 11 2 11 19 8 33 -4 20z"/>
<path d="M4291 1364 c0 -11 3 -14 6 -6 3 7 2 16 -1 19 -3 4 -6 -2 -5 -13z"/>
<path d="M4510 1330 c0 -29 4 -49 9 -45 12 7 12 83 0 91 -5 3 -9 -18 -9 -46z"/>
<path d="M4700 1374 c0 -5 7 -18 15 -28 8 -11 15 -16 15 -10 0 5 -7 18 -15 28
-8 11 -15 16 -15 10z"/>
<path d="M1284 1200 c0 -96 -3 -204 -7 -240 -5 -52 -4 -57 3 -25 13 54 19 284
11 370 -5 50 -7 21 -7 -105z"/>
<path d="M948 1323 c-25 -55 -23 -76 3 -29 11 21 19 45 17 53 -2 9 -11 -1 -20
-24z"/>
<path d="M845 1339 c-4 -6 -5 -12 -2 -15 2 -3 7 2 10 11 7 17 1 20 -8 4z"/>
<path d="M1095 1329 c-4 -6 -5 -12 -2 -15 2 -3 7 2 10 11 7 17 1 20 -8 4z"/>
<path d="M3267 1188 c-41 -84 -86 -182 -100 -218 -14 -36 -46 -119 -72 -185
-57 -145 -137 -385 -132 -398 1 -5 18 36 37 90 18 54 51 141 72 193 22 52 42
104 45 114 4 11 14 27 25 38 10 10 18 24 18 31 -1 6 -7 1 -15 -13 -19 -34 -19
-20 1 30 9 22 20 40 25 40 6 0 5 -9 -1 -20 -15 -29 -5 -25 15 6 9 15 12 23 6
20 -17 -11 -13 10 9 53 10 21 16 41 13 45 -4 3 -2 6 3 6 6 0 16 17 23 38 8 20
17 39 21 42 13 9 73 141 67 147 -4 3 -22 -27 -41 -68 -19 -41 -35 -67 -35 -59
0 8 22 60 49 115 27 55 47 101 45 103 -2 2 -37 -65 -78 -150z m-81 -225 c-8
-15 -15 -25 -16 -21 0 12 23 58 27 54 3 -2 -2 -17 -11 -33z"/>
<path d="M4544 1258 c-1 -51 2 -71 6 -53 l7 30 5 -30 c5 -21 6 -16 5 17 -1 25
1 44 6 41 12 -7 8 12 -9 45 -8 18 -16 32 -17 32 -1 0 -3 -37 -3 -82z"/>
<path d="M888 1307 c-3 -19 -2 -25 4 -19 6 6 8 18 6 28 -3 14 -5 12 -10 -9z"/>
<path d="M3215 1310 c-10 -11 -16 -22 -13 -25 2 -3 14 6 26 20 26 30 13 34
-13 5z"/>
<path d="M3351 1298 c-15 -43 -8 -45 11 -3 8 19 12 35 8 35 -5 0 -13 -14 -19
-32z"/>
<path d="M3636 1298 l-18 -33 21 25 c18 22 26 40 18 40 -1 0 -11 -15 -21 -32z"/>
<path d="M992 1300 c-9 -15 -9 -21 1 -26 6 -4 9 -4 5 1 -4 4 -3 14 4 22 6 7 9
15 7 18 -3 2 -10 -4 -17 -15z"/>
<path d="M4773 1238 c25 -46 53 -104 62 -131 10 -26 20 -46 22 -43 2 2 -3 21
-11 41 -9 21 -16 46 -16 55 0 10 -4 20 -8 22 -5 2 -26 33 -46 71 -21 37 -40
67 -42 67 -3 0 15 -37 39 -82z"/>
<path d="M749 1263 c-45 -62 -58 -86 -22 -44 32 39 67 91 61 91 -3 0 -20 -21
-39 -47z"/>
<path d="M3153 1283 c-13 -36 -7 -41 23 -17 10 8 14 13 7 10 -7 -4 -13 3 -15
16 -3 21 -5 19 -15 -9z"/>
<path d="M1382 1270 c0 -14 2 -19 5 -12 2 6 2 18 0 25 -3 6 -5 1 -5 -13z"/>
<path d="M1404 1260 c-1 -16 3 -27 7 -24 11 6 12 54 2 54 -5 0 -8 -13 -9 -30z"/>
<path d="M1611 1274 c0 -11 3 -14 6 -6 3 7 2 16 -1 19 -3 4 -6 -2 -5 -13z"/>
<path d="M811 1257 c-13 -21 -12 -21 5 -5 10 10 16 20 13 22 -3 3 -11 -5 -18
-17z"/>
<path d="M1146 1263 c-6 -14 -5 -15 5 -6 7 7 10 15 7 18 -3 3 -9 -2 -12 -12z"/>
<path d="M3516 1265 c-9 -26 -7 -32 5 -12 6 10 9 21 6 23 -2 3 -7 -2 -11 -11z"/>
<path d="M970 1250 c0 -19 3 -21 12 -12 9 9 9 15 0 24 -9 9 -12 7 -12 -12z"/>
<path d="M1090 1255 c-6 -8 -10 -19 -8 -24 1 -6 8 1 15 14 13 28 11 31 -7 10z"/>
<path d="M1191 1254 c0 -11 3 -14 6 -6 3 7 2 16 -1 19 -3 4 -6 -2 -5 -13z"/>
<path d="M4795 1260 c3 -5 8 -10 11 -10 2 0 4 5 4 10 0 6 -5 10 -11 10 -5 0
-7 -4 -4 -10z"/>
<path d="M850 1250 c-8 -5 -12 -11 -9 -14 2 -3 11 -1 19 4 8 5 12 11 9 14 -2
3 -11 1 -19 -4z"/>
<path d="M904 1246 c-3 -8 -1 -23 5 -33 9 -15 10 -13 11 15 0 34 -7 42 -16 18z"/>
<path d="M1056 1243 c-6 -14 -5 -15 5 -6 7 7 10 15 7 18 -3 3 -9 -2 -12 -12z"/>
<path d="M3456 1243 c-6 -14 -5 -15 5 -6 7 7 10 15 7 18 -3 3 -9 -2 -12 -12z"/>
<path d="M4586 1238 c4 -13 10 -25 14 -28 4 -3 28 -45 53 -93 65 -123 89 -209
91 -329 0 -54 4 -98 9 -98 11 0 9 128 -4 196 -18 103 -47 182 -101 280 -50 89
-78 121 -62 72z"/>
<path d="M941 1220 c0 -19 4 -44 9 -55 7 -16 9 -13 9 15 0 19 -4 44 -9 55 -7
16 -9 13 -9 -15z"/>
<path d="M1593 1120 c0 -96 2 -122 8 -90 10 57 9 167 -1 200 -4 14 -7 -34 -7
-110z"/>
<path d="M3603 1238 c-15 -20 -25 -38 -20 -38 3 0 12 11 21 25 17 26 16 35 -1
13z"/>
<path d="M1181 1214 c0 -11 3 -14 6 -6 3 7 2 16 -1 19 -3 4 -6 -2 -5 -13z"/>
<path d="M3461 1163 c-23 -38 -60 -94 -83 -125 -23 -32 -39 -60 -37 -63 8 -7
91 111 134 189 20 36 34 66 32 66 -3 0 -23 -30 -46 -67z"/>
<path d="M749 1203 c-13 -16 -12 -17 4 -4 16 13 21 21 13 21 -2 0 -10 -8 -17
-17z"/>
<path d="M1252 1180 c-1 -25 -6 -61 -12 -79 -5 -19 -8 -37 -5 -39 9 -9 26 82
22 121 l-4 42 -1 -45z"/>
<path d="M3436 1203 c-6 -14 -5 -15 5 -6 7 7 10 15 7 18 -3 3 -9 -2 -12 -12z"/>
<path d="M820 1200 c-9 -6 -10 -10 -3 -10 6 0 15 5 18 10 8 12 4 12 -15 0z"/>
<path d="M1631 1150 c-1 -36 -4 -72 -5 -80 -2 -8 -6 -40 -10 -70 -4 -31 -15
-88 -25 -127 -21 -85 -11 -90 12 -6 25 92 39 202 35 278 l-4 70 -3 -65z"/>
<path d="M3122 1183 c-30 -44 -36 -57 -25 -50 12 7 55 77 48 77 -2 0 -12 -12
-23 -27z"/>
<path d="M1382 1180 c0 -14 2 -19 5 -12 2 6 2 18 0 25 -3 6 -5 1 -5 -13z"/>
<path d="M1153 1132 c-12 -31 -21 -58 -19 -59 5 -6 47 98 44 107 -2 5 -13 -17
-25 -48z"/>
<path d="M988 1173 c0 -5 -2 -15 -2 -23 -1 -8 -7 -14 -14 -12 -14 2 -16 -17
-3 -36 6 -10 10 -6 16 15 12 43 15 63 10 63 -3 0 -6 -3 -7 -7z"/>
<path d="M4770 1166 c0 -9 5 -16 10 -16 6 0 10 4 10 9 0 6 -4 13 -10 16 -5 3
-10 -1 -10 -9z"/>
<path d="M916 1153 c-6 -14 -5 -15 5 -6 7 7 10 15 7 18 -3 3 -9 -2 -12 -12z"/>
<path d="M1040 1155 c-7 -9 -10 -18 -7 -21 3 -3 10 4 17 15 13 25 8 27 -10 6z"/>
<path d="M1115 1139 c-9 -17 -14 -33 -11 -36 3 -3 10 7 16 22 6 15 13 32 16
36 3 5 3 9 0 9 -3 0 -13 -14 -21 -31z"/>
<path d="M3155 1144 c-9 -15 -12 -23 -6 -20 11 7 35 46 28 46 -3 0 -12 -12
-22 -26z"/>
<path d="M4532 1145 c0 -16 2 -22 5 -12 2 9 2 23 0 30 -3 6 -5 -1 -5 -18z"/>
<path d="M4551 1144 c0 -11 3 -14 6 -6 3 7 2 16 -1 19 -3 4 -6 -2 -5 -13z"/>
<path d="M696 1133 c-6 -14 -5 -15 5 -6 7 7 10 15 7 18 -3 3 -9 -2 -12 -12z"/>
<path d="M3528 1106 c-15 -22 -43 -63 -63 -91 -34 -46 -33 -45 23 15 33 36 63
76 65 90 3 14 5 26 4 26 -1 1 -14 -17 -29 -40z"/>
<path d="M729 1123 c-13 -16 -12 -17 4 -4 9 7 17 15 17 17 0 8 -8 3 -21 -13z"/>
<path d="M769 1123 c-13 -16 -12 -17 4 -4 9 7 17 15 17 17 0 8 -8 3 -21 -13z"/>
<path d="M3410 1125 c-7 -9 -8 -15 -2 -15 5 0 12 7 16 15 3 8 4 15 2 15 -2 0
-9 -7 -16 -15z"/>
<path d="M4791 1130 c-1 -18 37 -121 50 -134 11 -12 -3 39 -24 85 -8 19 -18
41 -20 49 -5 13 -6 13 -6 0z"/>
<path d="M886 1113 c-6 -14 -5 -15 5 -6 7 7 10 15 7 18 -3 3 -9 -2 -12 -12z"/>
<path d="M920 1115 c0 -8 2 -15 4 -15 2 0 6 7 10 15 3 8 1 15 -4 15 -6 0 -10
-7 -10 -15z"/>
<path d="M1382 1100 c0 -19 2 -27 5 -17 2 9 2 25 0 35 -3 9 -5 1 -5 -18z"/>
<path d="M1006 1104 c-10 -25 1 -29 14 -5 6 12 7 21 1 21 -5 0 -12 -7 -15 -16z"/>
<path d="M4871 1094 c0 -11 3 -14 6 -6 3 7 2 16 -1 19 -3 4 -6 -2 -5 -13z"/>
<path d="M3374 1073 c-30 -41 -39 -62 -15 -33 23 27 44 60 38 60 -2 0 -12 -12
-23 -27z"/>
<path d="M680 1080 c-9 -6 -10 -10 -3 -10 6 0 15 5 18 10 8 12 4 12 -15 0z"/>
<path d="M1072 1056 c-22 -37 -36 -76 -28 -76 5 0 16 21 48 93 12 29 1 19 -20
-17z"/>
<path d="M3136 1073 c-6 -14 -5 -15 5 -6 7 7 10 15 7 18 -3 3 -9 -2 -12 -12z"/>
<path d="M3160 1049 c-12 -23 -20 -43 -18 -45 3 -2 14 17 26 41 27 56 20 60
-8 4z"/>
<path d="M4538 1056 c-2 -20 -1 -39 3 -44 4 -4 9 -16 12 -27 3 -11 3 7 0 40
-6 71 -9 78 -15 31z"/>
<path d="M589 1063 c-13 -16 -12 -17 4 -4 9 7 17 15 17 17 0 8 -8 3 -21 -13z"/>
<path d="M3043 1050 c-61 -110 -146 -245 -195 -311 -32 -42 -58 -80 -58 -85 0
-13 -63 -139 -79 -157 -21 -26 -82 -261 -80 -309 1 -13 6 4 13 37 24 118 61
222 122 345 59 117 103 188 104 165 0 -5 -8 -23 -18 -40 -27 -44 -76 -174 -69
-181 9 -10 34 56 36 96 1 13 2 13 12 0 8 -12 9 -10 4 8 -4 15 -3 22 6 20 7 -2
15 11 19 28 4 17 24 59 45 92 37 61 53 79 40 45 -4 -13 -3 -15 5 -7 6 6 12 20
15 32 2 12 7 28 10 35 4 6 -7 -4 -24 -23 -42 -47 -39 -25 7 46 65 100 113 186
108 192 -3 2 -13 -10 -23 -28z m-140 -279 c-16 -28 -33 -41 -33 -25 0 8 44 62
48 59 1 -1 -5 -16 -15 -34z"/>
<path d="M997 1063 c-6 -12 20 -56 27 -45 3 6 0 17 -8 25 -8 8 -12 17 -9 21 4
3 4 6 0 6 -3 0 -8 -3 -10 -7z"/>
<path d="M608 1033 c-28 -31 -98 -137 -98 -150 0 -4 20 23 44 61 25 37 55 79
67 92 12 13 20 24 18 24 -3 0 -17 -12 -31 -27z"/>
<path d="M780 1040 c-6 -11 -8 -20 -6 -20 3 0 10 9 16 20 6 11 8 20 6 20 -3 0
-10 -9 -16 -20z"/>
<path d="M3080 1040 c-6 -11 -8 -20 -6 -20 3 0 10 9 16 20 6 11 8 20 6 20 -3
0 -10 -9 -16 -20z"/>
<path d="M671 955 c-56 -99 -110 -227 -111 -258 0 -10 -11 -42 -24 -70 -26
-58 -42 -105 -32 -96 8 8 86 168 86 177 0 4 -5 0 -10 -8 -5 -8 -10 -10 -10 -4
0 15 118 270 147 317 13 20 19 37 15 37 -5 0 -33 -43 -61 -95z"/>
<path d="M921 1034 c0 -11 3 -14 6 -6 3 7 2 16 -1 19 -3 4 -6 -2 -5 -13z"/>
<path d="M4861 1045 c1 -19 18 -51 18 -35 0 8 -4 22 -9 30 -5 8 -9 11 -9 5z"/>
<path d="M613 988 c-50 -67 -93 -133 -114 -178 -10 -19 -18 -28 -19 -20 -3 30
-40 -116 -39 -155 1 -37 2 -36 15 22 19 89 75 195 168 321 21 29 37 55 34 58
-3 2 -23 -19 -45 -48z"/>
<path d="M1102 1020 c-18 -29 -15 -38 4 -12 9 13 14 25 12 27 -2 2 -9 -5 -16
-15z"/>
<path d="M3085 988 l-16 -33 20 25 c20 24 26 40 16 40 -2 0 -12 -15 -20 -32z"/>
<path d="M3232 996 c-17 -37 -15 -45 4 -18 8 12 14 27 12 33 -2 6 -9 -1 -16
-15z"/>
<path d="M3297 953 c-22 -30 -37 -57 -34 -59 2 -3 14 10 26 28 29 46 26 27 -4
-24 -14 -24 -41 -74 -60 -112 -19 -38 -41 -77 -49 -85 -16 -19 -123 -231 -108
-216 5 6 24 39 43 75 18 36 53 96 77 134 24 38 45 76 47 85 2 9 17 39 34 66
27 44 75 155 68 161 -1 1 -19 -23 -40 -53z"/>
<path d="M3045 979 c-4 -6 -5 -12 -2 -15 2 -3 7 2 10 11 7 17 1 20 -8 4z"/>
<path d="M3117 983 c-10 -9 -9 -23 2 -23 5 0 11 7 15 15 5 15 -5 20 -17 8z"/>
<path d="M4881 985 c1 -19 18 -51 18 -35 0 8 -4 22 -9 30 -5 8 -9 11 -9 5z"/>
<path d="M794 969 c-4 -7 -3 -9 4 -5 5 3 13 0 15 -6 4 -9 6 -10 6 -1 1 17 -16
25 -25 12z"/>
<path d="M991 933 c-25 -36 -26 -41 -6 -18 26 30 49 65 42 65 -2 0 -18 -21
-36 -47z"/>
<path d="M4849 957 c6 -15 13 -38 16 -50 2 -12 16 -67 30 -121 36 -141 44
-141 18 -1 -8 45 -53 179 -65 190 -5 6 -5 -1 1 -18z"/>
<path d="M943 955 c0 -8 4 -12 9 -9 5 3 6 10 3 15 -9 13 -12 11 -12 -6z"/>
<path d="M1582 950 c0 -14 2 -19 5 -12 2 6 2 18 0 25 -3 6 -5 1 -5 -13z"/>
<path d="M3260 949 c-7 -11 -10 -23 -7 -25 2 -2 9 7 15 21 14 30 7 33 -8 4z"/>
<path d="M4492 950 c0 -14 2 -19 5 -12 2 6 2 18 0 25 -3 6 -5 1 -5 -13z"/>
<path d="M3430 904 c-63 -56 -116 -113 -109 -117 2 -1 45 37 94 85 101 99 110
117 15 32z"/>
<path d="M3000 919 c-12 -16 -20 -32 -17 -35 2 -3 14 11 25 31 26 43 21 46 -8
4z"/>
<path d="M4567 944 c-3 -4 1 -21 10 -38 9 -17 18 -26 20 -20 5 14 -22 66 -30
58z"/>
<path d="M4765 930 c3 -14 12 -65 21 -115 9 -49 20 -103 24 -120 8 -25 9 -22
6 20 -5 73 -25 172 -41 209 -13 25 -14 26 -10 6z"/>
<path d="M786 923 c-6 -14 -5 -15 5 -6 7 7 10 15 7 18 -3 3 -9 -2 -12 -12z"/>
<path d="M1058 913 c-43 -107 -80 -174 -198 -362 -14 -22 -16 -30 -6 -22 42
35 182 283 214 379 13 39 6 43 -10 5z"/>
<path d="M3071 875 c-23 -35 -41 -69 -41 -75 0 -5 -4 -10 -10 -10 -5 0 -10
-12 -10 -27 0 -22 -2 -25 -10 -13 -9 13 -10 13 -11 0 -1 -8 -1 -21 0 -29 2 -7
-2 -10 -8 -7 -5 4 -15 -3 -21 -15 -8 -15 -9 -19 -1 -15 6 4 11 3 11 -3 0 -5
-5 -13 -11 -17 -13 -8 -30 -47 -75 -172 -18 -51 -29 -90 -24 -87 4 3 14 22 21
43 12 39 120 273 129 282 9 8 111 210 106 210 -2 0 -23 -29 -45 -65z"/>
<path d="M916 915 c-11 -8 -15 -15 -9 -15 6 0 16 7 23 15 16 19 11 19 -14 0z"/>
<path d="M2888 868 c-70 -97 -140 -209 -135 -215 3 -3 18 15 33 39 15 23 52
81 83 128 74 113 73 110 68 110 -2 0 -24 -28 -49 -62z"/>
<path d="M572 858 c-45 -70 -79 -150 -92 -216 -11 -61 3 -40 30 43 12 39 42
107 66 153 24 45 42 82 40 82 -2 0 -22 -28 -44 -62z"/>
<path d="M1125 899 c-4 -6 -5 -12 -2 -15 2 -3 7 2 10 11 7 17 1 20 -8 4z"/>
<path d="M3015 899 c-4 -6 -5 -12 -2 -15 2 -3 7 2 10 11 7 17 1 20 -8 4z"/>
<path d="M3004 827 c-29 -45 -61 -101 -73 -124 -36 -72 -110 -309 -114 -364
-3 -30 -2 -39 0 -21 2 18 8 30 13 27 4 -3 6 4 3 14 -12 46 107 350 184 468 29
46 50 83 46 83 -5 -1 -31 -38 -59 -83z"/>
<path d="M466 873 c-6 -14 -5 -15 5 -6 7 7 10 15 7 18 -3 3 -9 -2 -12 -12z"/>
<path d="M872 870 c-7 -11 -9 -20 -4 -20 4 0 13 9 20 20 7 11 9 20 4 20 -4 0
-13 -9 -20 -20z"/>
<path d="M1391 839 c-7 -27 -11 -52 -8 -55 3 -3 10 18 17 46 7 28 10 53 8 55
-2 3 -10 -18 -17 -46z"/>
<path d="M721 857 c-13 -21 -12 -21 5 -5 10 10 16 20 13 22 -3 3 -11 -5 -18
-17z"/>
<path d="M924 858 l-19 -23 23 19 c21 18 27 26 19 26 -2 0 -12 -10 -23 -22z"/>
<path d="M1261 864 c0 -11 3 -14 6 -6 3 7 2 16 -1 19 -3 4 -6 -2 -5 -13z"/>
<path d="M1361 873 c-1 -6 -4 -20 -7 -30 -5 -17 -5 -17 6 0 6 10 9 23 6 30 -3
9 -5 9 -5 0z"/>
<path d="M3202 817 c-43 -87 -41 -98 4 -19 19 34 34 67 32 73 -2 6 -18 -19
-36 -54z"/>
<path d="M4525 861 c-3 -5 -1 -12 5 -16 5 -3 10 1 10 9 0 18 -6 21 -15 7z"/>
<path d="M4601 864 c-1 -16 29 -87 35 -82 2 3 -4 25 -15 49 -11 24 -20 39 -20
33z"/>
<path d="M3460 838 c-12 -22 -12 -22 6 -6 10 10 15 20 12 24 -4 3 -12 -5 -18
-18z"/>
<path d="M442 825 c-7 -14 -12 -34 -11 -43 0 -9 7 1 15 22 16 45 13 59 -4 21z"/>
<path d="M486 835 c-9 -26 -7 -32 5 -12 6 10 9 21 6 23 -2 3 -7 -2 -11 -11z"/>
<path d="M939 833 c-13 -16 -12 -17 4 -4 9 7 17 15 17 17 0 8 -8 3 -21 -13z"/>
<path d="M4935 825 c4 -11 14 -83 21 -159 8 -77 17 -142 20 -145 7 -7 -6 187
-17 244 -5 28 -14 57 -20 65 -9 12 -9 11 -4 -5z"/>
<path d="M4547 824 c-6 -10 9 -42 16 -34 3 3 1 14 -3 24 -3 11 -9 15 -13 10z"/>
<path d="M715 809 c-4 -6 -5 -12 -2 -15 2 -3 7 2 10 11 7 17 1 20 -8 4z"/>
<path d="M776 742 c-22 -27 -24 -32 -7 -17 20 17 47 55 39 55 -2 0 -16 -17
-32 -38z"/>
<path d="M4571 758 c35 -70 143 -248 147 -244 2 3 -28 60 -67 126 -39 66 -71
125 -71 130 0 6 -5 10 -10 10 -7 0 -7 -8 1 -22z"/>
<path d="M662 745 c-15 -33 -15 -39 1 -24 11 11 21 49 13 49 -2 0 -8 -11 -14
-25z"/>
<path d="M1371 754 c0 -11 3 -14 6 -6 3 7 2 16 -1 19 -3 4 -6 -2 -5 -13z"/>
<path d="M416 745 c-3 -9 -6 -26 -5 -38 1 -16 4 -12 10 12 10 34 6 55 -5 26z"/>
<path d="M3362 735 c-12 -14 -18 -25 -14 -25 5 0 19 11 32 25 13 14 19 25 14
25 -6 0 -20 -11 -32 -25z"/>
<path d="M4640 746 c0 -13 62 -136 72 -142 5 -3 2 10 -6 30 -18 44 -66 125
-66 112z"/>
<path d="M3236 681 l-40 -46 44 42 c24 23 42 44 40 46 -3 2 -23 -17 -44 -42z"/>
<path d="M1255 668 c-30 -59 -92 -143 -127 -173 -13 -11 -60 -49 -105 -85
-133 -106 -155 -126 -93 -84 88 59 187 143 245 206 50 56 122 174 112 184 -2
3 -17 -19 -32 -48z"/>
<path d="M1351 694 c0 -11 3 -14 6 -6 3 7 2 16 -1 19 -3 4 -6 -2 -5 -13z"/>
<path d="M2272 690 c-19 -32 -13 -47 8 -20 11 14 20 28 20 33 0 14 -15 7 -28
-13z"/>
<path d="M4700 703 c0 -5 7 -18 15 -29 8 -10 15 -27 15 -36 0 -10 5 -18 10
-18 18 0 10 32 -15 62 -14 16 -25 26 -25 21z"/>
<path d="M4845 593 c4 -104 -3 -139 -19 -95 -4 9 -14 30 -22 46 -17 30 -18 44
-10 111 4 28 1 23 -11 -20 l-15 -60 31 -50 c17 -27 31 -54 31 -61 0 -6 7 -17
15 -24 13 -11 15 1 14 96 -1 60 -5 123 -10 139 -5 18 -6 -13 -4 -82z"/>
<path d="M700 675 c-7 -9 -10 -18 -7 -21 3 -3 10 4 17 15 13 25 8 27 -10 6z"/>
<path d="M402 660 c0 -14 2 -19 5 -12 2 6 2 18 0 25 -3 6 -5 1 -5 -13z"/>
<path d="M2719 573 c-19 -38 -37 -70 -41 -73 -14 -10 -67 -146 -88 -225 -23
-86 -40 -196 -30 -190 4 3 10 26 13 53 6 49 99 335 116 356 20 25 79 146 72
146 -5 0 -24 -30 -42 -67z"/>
<path d="M2363 595 c0 -22 2 -30 4 -17 2 12 2 30 0 40 -3 9 -5 -1 -4 -23z"/>
<path d="M2702 600 c-18 -29 -15 -38 4 -12 9 13 14 25 12 27 -2 2 -9 -5 -16
-15z"/>
<path d="M3952 598 c16 -10 45 -10 51 0 3 4 -10 7 -29 8 -21 0 -30 -3 -22 -8z"/>
<path d="M4048 603 c7 -3 16 -2 19 1 4 3 -2 6 -13 5 -11 0 -14 -3 -6 -6z"/>
<path d="M4098 603 c6 -2 18 -2 25 0 6 3 1 5 -13 5 -14 0 -19 -2 -12 -5z"/>
<path d="M4732 590 c0 -14 2 -19 5 -12 2 6 2 18 0 25 -3 6 -5 1 -5 -13z"/>
<path d="M3840 570 c-12 -8 -9 -10 12 -10 15 0 30 5 33 10 8 13 -25 13 -45 0z"/>
<path d="M4013 565 c-12 -9 -26 -15 -30 -14 -19 3 -53 -14 -53 -27 0 -10 7
-11 33 -2 41 14 107 58 87 58 -9 0 -25 -7 -37 -15z"/>
<path d="M4932 513 c1 -39 5 -77 9 -85 11 -17 11 64 -1 117 -7 35 -8 32 -8
-32z"/>
<path d="M4333 564 c11 -12 147 -53 147 -44 0 4 -26 15 -57 25 -87 26 -99 28
-90 19z"/>
<path d="M2645 509 c-22 -29 -52 -65 -68 -81 -16 -16 -26 -32 -23 -36 8 -8 81
76 114 130 32 52 23 48 -23 -13z"/>
<path d="M3780 550 c0 -13 11 -13 30 0 12 8 11 10 -7 10 -13 0 -23 -4 -23 -10z"/>
<path d="M4195 551 c-22 -3 -35 -9 -30 -12 14 -9 125 2 125 12 0 10 -32 10
-95 0z"/>
<path d="M2596 505 c-27 -25 -48 -47 -45 -49 2 -2 27 18 54 45 63 61 56 64 -9
4z"/>
<path d="M4761 524 c-1 -11 10 -35 24 -54 14 -19 25 -39 25 -44 0 -12 39 -65
40 -54 0 4 -10 24 -22 45 -12 21 -32 58 -44 83 -16 31 -23 39 -23 24z"/>
<path d="M3906 522 c2 -3 -4 -11 -14 -18 -19 -15 -5 -19 18 -4 10 6 12 12 4
18 -6 5 -9 7 -8 4z"/>
<path d="M4108 523 c7 -3 16 -2 19 1 4 3 -2 6 -13 5 -11 0 -14 -3 -6 -6z"/>
<path d="M820 495 c-7 -9 -11 -17 -9 -20 3 -2 10 5 17 15 14 24 10 26 -8 5z"/>
<path d="M4490 506 c0 -2 7 -7 16 -10 8 -3 12 -2 9 4 -6 10 -25 14 -25 6z"/>
<path d="M3981 487 c-14 -6 -26 -18 -27 -25 -1 -7 0 -8 3 -2 2 5 13 10 24 10
10 0 19 5 19 11 0 5 5 7 10 4 6 -3 10 -1 10 4 0 14 -9 14 -39 -2z"/>
<path d="M2370 478 c0 -7 5 -20 10 -28 8 -12 10 -11 10 7 0 12 -4 25 -10 28
-5 3 -10 0 -10 -7z"/>
<path d="M3805 480 c-3 -5 1 -10 9 -10 8 0 18 5 21 10 3 6 -1 10 -9 10 -8 0
-18 -4 -21 -10z"/>
<path d="M2321 458 c0 -9 -4 -25 -7 -35 -5 -17 -5 -17 6 0 6 10 9 25 7 35 -4
15 -5 15 -6 0z"/>
<path d="M3890 459 c0 -5 5 -7 10 -4 6 3 10 8 10 11 0 2 -4 4 -10 4 -5 0 -10
-5 -10 -11z"/>
<path d="M402 429 c-1 -20 -11 -45 -22 -57 -12 -12 -17 -22 -12 -22 23 0 43
39 39 77 l-4 38 -1 -36z"/>
<path d="M3670 445 c-7 -9 -11 -18 -8 -20 3 -3 11 1 18 10 7 9 11 18 8 20 -3
3 -11 -1 -18 -10z"/>
<path d="M4750 451 c0 -5 7 -15 17 -22 15 -13 15 -12 4 9 -12 23 -21 28 -21
13z"/>
<path d="M3623 438 c-18 -24 -24 -38 -16 -38 10 0 36 40 30 46 -2 3 -9 -1 -14
-8z"/>
<path d="M1125 429 c-4 -6 -5 -12 -2 -15 2 -3 7 2 10 11 7 17 1 20 -8 4z"/>
<path d="M760 415 c-7 -9 -11 -17 -9 -20 3 -2 10 5 17 15 14 24 10 26 -8 5z"/>
<path d="M4917 373 c-3 -26 -1 -55 4 -63 4 -8 9 -13 9 -10 1 3 3 25 5 50 6 64
-11 85 -18 23z"/>
<path d="M4967 361 c-4 -35 -5 -66 -3 -68 6 -7 19 103 14 119 -3 7 -8 -16 -11
-51z"/>
<path d="M2186 350 c-61 -47 -130 -70 -208 -70 -36 0 -57 -4 -53 -10 8 -13
123 -3 176 15 51 18 149 89 138 99 -2 2 -26 -13 -53 -34z"/>
<path d="M2290 381 c0 -6 5 -13 10 -16 6 -3 10 1 10 9 0 9 -4 16 -10 16 -5 0
-10 -4 -10 -9z"/>
<path d="M3750 369 c-10 -24 -20 -41 -53 -91 -10 -16 -15 -28 -10 -28 11 0 87
129 80 137 -4 3 -11 -5 -17 -18z"/>
<path d="M3390 370 c-9 -6 -10 -10 -3 -10 6 0 15 5 18 10 8 12 4 12 -15 0z"/>
<path d="M3705 370 c-11 -5 -38 -9 -60 -10 -31 -1 -36 -3 -20 -10 25 -10 76
-2 95 16 16 16 14 16 -15 4z"/>
<path d="M418 353 c-9 -10 -14 -22 -12 -28 2 -5 -10 -26 -26 -45 -16 -19 -30
-39 -30 -43 0 -5 -4 -5 -10 -2 -5 3 -10 1 -10 -4 0 -18 12 -12 43 22 41 45 61
76 62 98 2 23 2 23 -17 2z"/>
<path d="M1926 358 c-13 -29 -3 -53 24 -55 14 -1 17 1 8 3 -10 3 -18 18 -20
37 -3 25 -6 28 -12 15z"/>
<path d="M2951 354 c0 -11 3 -14 6 -6 3 7 2 16 -1 19 -3 4 -6 -2 -5 -13z"/>
<path d="M2372 340 c0 -14 2 -19 5 -12 2 6 2 18 0 25 -3 6 -5 1 -5 -13z"/>
<path d="M336 324 c-5 -14 -4 -15 9 -4 17 14 19 20 6 20 -5 0 -12 -7 -15 -16z"/>
<path d="M4874 318 c3 -7 9 -21 12 -30 4 -10 10 -18 14 -18 5 0 3 14 -3 30 -6
17 -15 30 -20 30 -5 0 -6 -6 -3 -12z"/>
<path d="M369 303 c-13 -16 -12 -17 4 -4 16 13 21 21 13 21 -2 0 -10 -8 -17
-17z"/>
<path d="M3560 283 c-8 -21 -17 -42 -19 -48 -2 -5 2 -5 9 2 16 14 41 83 31 83
-4 0 -13 -17 -21 -37z"/>
<path d="M3360 300 c0 -5 5 -10 10 -10 6 0 10 5 10 10 0 6 -4 10 -10 10 -5 0
-10 -4 -10 -10z"/>
<path d="M3475 300 c-3 -5 -2 -10 4 -10 5 0 13 5 16 10 3 6 2 10 -4 10 -5 0
-13 -4 -16 -10z"/>
<path d="M3325 280 c-3 -5 -1 -10 4 -10 6 0 11 5 11 10 0 6 -2 10 -4 10 -3 0
-8 -4 -11 -10z"/>
<path d="M330 265 c-7 -9 -8 -15 -2 -15 5 0 12 7 16 15 3 8 4 15 2 15 -2 0 -9
-7 -16 -15z"/>
<path d="M3439 259 c-18 -16 -20 -19 -6 -15 10 3 28 6 39 6 11 0 18 5 16 12
-7 20 -24 19 -49 -3z"/>
<path d="M825 260 c-3 -6 1 -7 9 -4 18 7 21 14 7 14 -6 0 -13 -4 -16 -10z"/>
<path d="M973 244 l-28 -25 33 22 c17 13 32 24 32 26 0 8 -11 1 -37 -23z"/>
<path d="M3266 245 c-17 -13 -18 -15 -3 -15 9 0 17 4 17 9 0 5 8 12 18 14 12
3 13 5 2 6 -8 0 -24 -6 -34 -14z"/>
<path d="M4891 244 c0 -11 3 -14 6 -6 3 7 2 16 -1 19 -3 4 -6 -2 -5 -13z"/>
<path d="M1798 225 c-54 -36 -56 -49 -2 -20 26 14 53 25 60 25 8 0 14 5 14 10
0 17 -33 10 -72 -15z"/>
<path d="M2160 216 c-15 -39 -12 -46 6 -13 9 16 13 31 10 34 -3 3 -10 -6 -16
-21z"/>
<path d="M4930 231 c0 -5 5 -13 10 -16 6 -3 10 -2 10 4 0 5 -4 13 -10 16 -5 3
-10 2 -10 -4z"/>
<path d="M417 200 c-32 -35 -36 -51 -6 -24 20 18 44 54 36 54 -2 0 -16 -13
-30 -30z"/>
<path d="M279 203 c-13 -16 -12 -17 4 -4 9 7 17 15 17 17 0 8 -8 3 -21 -13z"/>
<path d="M2091 179 c-17 -23 -32 -49 -33 -58 -1 -9 -2 -23 -3 -31 0 -8 -4 -21
-9 -28 -5 -8 -3 -18 4 -25 10 -9 11 -9 6 1 -4 7 -4 18 1 25 5 7 10 25 11 40 2
37 9 47 32 47 12 0 21 10 25 31 10 46 0 46 -34 -2z"/>
<path d="M2263 213 c4 -3 -1 -16 -10 -27 -13 -15 -10 -14 10 3 32 29 32 31 10
31 -9 0 -13 -3 -10 -7z"/>
<path d="M3278 189 c-20 -19 -26 -29 -15 -25 10 3 22 6 27 6 4 0 15 11 24 25
23 35 4 31 -36 -6z"/>
<path d="M3528 187 c-8 -17 -18 -48 -22 -67 -3 -19 -3 -28 0 -20 4 8 12 29 19
45 29 67 32 102 3 42z"/>
<path d="M2012 193 c-24 -17 -92 -113 -92 -130 0 -6 -12 -22 -26 -37 -25 -24
-25 -26 -7 -26 19 0 36 24 56 80 4 11 6 10 6 -4 1 -12 6 -16 16 -12 11 4 15
-2 16 -22 2 -27 2 -27 6 -2 3 14 10 32 16 40 10 13 10 13 -5 2 -11 -9 -18 -10
-23 -2 -3 5 -1 10 5 10 6 0 8 5 5 10 -3 5 -3 15 1 22 5 8 9 7 13 -5 4 -11 13
1 28 38 23 59 21 63 -15 38z"/>
<path d="M305 190 c-3 -5 -1 -10 4 -10 6 0 11 5 11 10 0 6 -2 10 -4 10 -3 0
-8 -4 -11 -10z"/>
<path d="M423 145 c-77 -115 -94 -145 -80 -145 7 0 19 16 27 35 8 19 17 35 21
35 4 0 11 9 14 21 4 11 20 36 37 54 16 19 28 40 26 47 -3 7 -23 -15 -45 -47z"/>
<path d="M1885 186 c-16 -8 -64 -49 -105 -91 -41 -42 -84 -81 -95 -86 -30 -13
74 -5 107 9 14 6 29 20 33 31 3 12 11 21 16 21 5 0 9 5 9 11 0 6 16 29 35 50
19 22 35 46 35 54 0 18 3 18 -35 1z"/>
<path d="M3200 190 c-13 -8 -12 -10 3 -10 9 0 17 5 17 10 0 12 -1 12 -20 0z"/>
<path d="M4957 183 c-10 -9 -9 -23 1 -23 5 0 9 7 9 15 0 17 -1 18 -10 8z"/>
<path d="M249 163 c-13 -16 -12 -17 4 -4 16 13 21 21 13 21 -2 0 -10 -8 -17
-17z"/>
<path d="M2215 170 c-3 -5 -1 -10 4 -10 6 0 11 5 11 10 0 6 -2 10 -4 10 -3 0
-8 -4 -11 -10z"/>
<path d="M196 153 c-6 -14 -5 -15 5 -6 7 7 10 15 7 18 -3 3 -9 -2 -12 -12z"/>
<path d="M3364 159 c-3 -6 -2 -15 4 -21 6 -6 12 -6 16 1 4 6 2 11 -4 11 -6 0
-8 5 -5 10 3 6 4 10 1 10 -3 0 -8 -5 -12 -11z"/>
<path d="M2150 125 c0 -22 4 -34 10 -30 6 3 10 17 10 30 0 13 -4 27 -10 30 -6
4 -10 -8 -10 -30z"/>
<path d="M196 83 c-35 -55 -29 -51 22 13 20 26 28 44 18 44 -2 0 -20 -26 -40
-57z"/>
<path d="M442 120 c-7 -11 -8 -20 -3 -20 9 0 24 30 18 36 -1 2 -8 -6 -15 -16z"/>
<path d="M2180 129 c0 -5 5 -7 10 -4 6 3 10 8 10 11 0 2 -4 4 -10 4 -5 0 -10
-5 -10 -11z"/>
<path d="M3070 125 c-7 -8 -9 -15 -6 -15 4 0 14 7 22 15 9 8 11 15 6 15 -5 0
-15 -7 -22 -15z"/>
<path d="M4946 125 c4 -8 8 -15 10 -15 2 0 4 7 4 15 0 8 -4 15 -10 15 -5 0 -7
-7 -4 -15z"/>
<path d="M3307 68 c-39 -58 -43 -68 -27 -68 6 0 10 7 10 15 0 8 5 15 10 15 6
0 10 7 10 15 0 8 9 24 21 36 11 11 19 25 16 32 -2 6 -20 -14 -40 -45z"/>
<path d="M4900 111 c0 -6 4 -13 10 -16 6 -3 7 1 4 9 -7 18 -14 21 -14 7z"/>
<path d="M325 100 c-3 -6 1 -7 9 -4 18 7 21 14 7 14 -6 0 -13 -4 -16 -10z"/>
<path d="M2245 100 c-3 -5 -1 -10 4 -10 6 0 11 5 11 10 0 6 -2 10 -4 10 -3 0
-8 -4 -11 -10z"/>
<path d="M3184 84 c-49 -33 -88 -73 -79 -82 3 -4 11 0 15 9 5 9 34 33 65 54
30 21 55 40 55 42 0 9 -21 0 -56 -23z"/>
<path d="M5018 104 c-4 -5 0 -18 8 -29 15 -20 17 -12 5 19 -4 11 -10 15 -13
10z"/>
<path d="M420 84 c0 -5 -12 -22 -26 -37 -14 -15 -24 -33 -21 -40 2 -6 16 8 31
31 15 24 25 46 22 50 -3 3 -6 1 -6 -4z"/>
<path d="M3095 70 c-49 -25 -90 -58 -82 -67 4 -3 26 11 51 31 24 20 51 36 60
36 9 0 16 5 16 10 0 13 2 13 -45 -10z"/>
<path d="M3395 70 c-27 -29 -15 -32 20 -4 20 16 25 24 14 24 -9 0 -24 -9 -34
-20z"/>
<path d="M4985 69 c4 -13 14 -31 21 -39 13 -13 13 -11 3 18 -13 38 -35 57 -24
21z"/>
<path d="M2085 70 c-3 -5 -1 -10 4 -10 6 0 11 5 11 10 0 6 -2 10 -4 10 -3 0
-8 -4 -11 -10z"/>
<path d="M3205 47 c-17 -42 -18 -47 -7 -47 10 0 34 72 27 79 -3 2 -12 -12 -20
-32z"/>
<path d="M2552 45 c0 -17 2 -22 5 -12 2 9 2 23 0 30 -3 6 -5 -1 -5 -18z"/>
<path d="M3840 54 c-17 -5 -43 -54 -29 -54 5 0 13 8 16 18 4 9 14 22 22 29 17
13 16 13 -9 7z"/>
<path d="M2180 35 c-7 -9 -11 -17 -9 -20 3 -2 10 5 17 15 14 24 10 26 -8 5z"/>
<path d="M266 15 c-11 -8 -15 -15 -9 -15 6 0 16 7 23 15 16 19 11 19 -14 0z"/>
<path d="M3595 10 c-3 -5 -1 -10 4 -10 6 0 11 5 11 10 0 6 -2 10 -4 10 -3 0
-8 -4 -11 -10z"/>
<path d="M1428 3 c7 -3 16 -2 19 1 4 3 -2 6 -13 5 -11 0 -14 -3 -6 -6z"/>
<path d="M2028 3 c7 -3 16 -2 19 1 4 3 -2 6 -13 5 -11 0 -14 -3 -6 -6z"/>
</g>
</svg>
