<?xml version="1.0" standalone="no"?>
<!DOCTYPE svg PUBLIC "-//W3C//DTD SVG 20010904//EN"
 "http://www.w3.org/TR/2001/REC-SVG-20010904/DTD/svg10.dtd">
<svg version="1.0" xmlns="http://www.w3.org/2000/svg"
 width="512.000000pt" height="512.000000pt" viewBox="0 0 512.000000 512.000000"
 preserveAspectRatio="xMidYMid meet">
<metadata>
Created by potrace 1.16, written by Peter Selinger 2001-2019
</metadata>
<g transform="translate(0.000000,512.000000) scale(0.100000,-0.100000)"
fill="#000000" stroke="none">
<path d="M261 4528 c1 -21 3 -26 6 -12 3 18 13 22 71 27 37 4 357 7 711 7 355
0 647 2 649 5 3 3 -319 5 -716 5 l-722 0 1 -32z"/>
<path d="M4110 4549 c404 -4 740 -9 747 -11 6 -1 11 2 12 7 1 7 -255 10 -746
11 l-748 1 735 -8z"/>
<path d="M221 4178 c1 -172 5 -497 9 -723 7 -366 7 -332 6 312 0 398 -4 723
-8 723 -5 0 -7 -141 -7 -312z"/>
<path d="M4895 2570 c0 -1056 3 -1920 8 -1920 4 0 7 864 7 1920 0 1056 -3
1920 -7 1920 -5 0 -8 -864 -8 -1920z"/>
<path d="M798 4358 c-10 -89 -7 -2173 3 -2143 5 17 10 175 10 355 1 460 4
1131 6 1500 l3 315 446 -3 c284 -1 443 1 439 7 -3 6 -178 10 -454 11 l-449 1
-4 -43z"/>
<path d="M3335 4390 c-33 -4 171 -7 453 -8 l512 -2 1 -392 c1 -216 2 -892 3
-1501 l1 -1109 -82 7 -83 7 0 -214 0 -213 -117 3 c-65 2 -129 -1 -143 -7 -19
-7 11 -10 117 -10 92 -1 144 3 149 10 3 6 6 92 6 192 -1 100 1 190 4 199 4 15
17 18 80 16 41 0 77 2 81 6 9 9 12 2962 3 2996 l-6 25 -460 1 c-252 0 -486 -2
-519 -6z"/>
<path d="M1603 4300 c0 -30 2 -43 4 -27 2 15 2 39 0 55 -2 15 -4 2 -4 -28z"/>
<path d="M1002 3953 l3 -277 53 0 52 -1 0 77 0 78 80 0 c72 0 97 9 71 24 -5 3
-6 23 -4 45 3 22 0 42 -6 46 -7 4 -11 -11 -11 -44 l0 -51 -49 0 c-27 0 -61 -4
-75 -10 -24 -9 -26 -14 -26 -75 l0 -65 -30 0 -30 0 -1 113 c-1 61 -2 175 -3
252 l-1 140 110 -1 c61 -1 152 -2 203 -3 l92 -1 0 -75 c0 -43 4 -75 10 -75 6
0 10 37 10 90 l0 90 -226 0 -225 0 3 -277z"/>
<path d="M1535 4220 l-70 -6 65 -2 c36 -1 72 3 80 8 8 5 11 9 5 8 -5 -1 -41
-4 -80 -8z"/>
<path d="M3490 4220 c0 -6 27 -10 61 -10 37 0 58 4 54 10 -3 6 -31 10 -61 10
-30 0 -54 -4 -54 -10z"/>
<path d="M3630 4095 l0 -135 93 1 c100 1 88 16 -15 18 l-57 1 0 109 c0 77 3
110 12 114 6 2 94 5 193 5 l182 1 5 -27 c3 -15 6 -129 6 -253 l2 -226 -43 -6
c-23 -3 -46 -3 -50 -1 -4 3 -8 33 -8 68 0 35 -5 67 -12 74 -7 7 -34 12 -60 12
l-48 0 -1 48 c-1 55 -5 47 -12 -20 l-5 -48 59 0 59 0 0 -78 0 -78 68 2 67 1 0
274 0 274 -217 3 -218 2 0 -135z"/>
<path d="M3448 4213 c6 -2 18 -2 25 0 6 3 1 5 -13 5 -14 0 -19 -2 -12 -5z"/>
<path d="M3502 4130 c0 -19 2 -27 5 -17 2 9 2 25 0 35 -3 9 -5 1 -5 -18z"/>
<path d="M1088 4073 c28 -2 76 -2 105 0 28 2 5 3 -53 3 -58 0 -81 -1 -52 -3z"/>
<path d="M1345 4070 c3 -5 8 -10 11 -10 2 0 4 5 4 10 0 6 -5 10 -11 10 -5 0
-7 -4 -4 -10z"/>
<path d="M3543 4073 c15 -2 37 -2 50 0 12 2 0 4 -28 4 -27 0 -38 -2 -22 -4z"/>
<path d="M3783 4073 c43 -2 110 -2 150 0 40 1 5 3 -78 3 -82 0 -115 -2 -72 -3z"/>
<path d="M1350 3987 c0 -9 -11 -12 -34 -9 -19 2 -43 -1 -53 -7 -14 -8 -5 -10
44 -11 56 0 61 2 56 20 -6 23 -13 26 -13 7z"/>
<path d="M3765 3888 c3 -50 16 -71 30 -49 3 6 1 11 -4 11 -6 0 -11 18 -11 39
0 22 -4 42 -9 46 -6 3 -8 -16 -6 -47z"/>
<path d="M2570 3665 c0 -24 -3 -25 -56 -25 l-57 0 6 -50 c6 -49 5 -50 -21 -52
-15 0 -35 -1 -44 0 -14 1 -16 -5 -11 -33 l6 -35 -44 -2 c-24 -1 -59 -1 -77 -1
l-34 1 4 -56 3 -56 -32 0 c-18 -1 -33 -4 -33 -8 0 -32 1 -38 10 -38 6 0 10 8
10 17 0 13 3 14 11 6 20 -20 77 20 60 42 -5 5 -8 23 -7 39 2 29 3 30 65 33 62
3 144 32 94 33 -17 0 -23 6 -23 22 0 21 0 21 22 2 18 -16 20 -16 15 -2 -4 12
2 18 28 22 18 4 36 13 39 21 3 9 0 12 -10 8 -11 -4 -14 4 -14 31 0 35 12 47
25 26 4 -7 12 -7 25 0 10 5 28 10 39 10 16 0 21 6 21 25 0 22 3 24 33 21 17
-3 40 -5 50 -5 10 -1 17 -9 17 -21 0 -14 7 -20 23 -20 53 0 66 -10 69 -53 3
-36 7 -42 38 -52 27 -9 36 -18 40 -41 4 -22 11 -29 30 -29 62 -3 70 -5 70 -23
0 -10 -6 -24 -12 -31 -8 -9 -8 -11 -2 -8 7 4 14 -3 18 -17 4 -16 15 -26 34
-31 19 -4 31 -15 39 -35 l11 -30 231 0 230 0 0 -100 0 -100 -318 0 -319 0 -6
-22 c-8 -32 -7 -486 1 -588 7 -72 9 -78 13 -43 l5 43 256 3 257 3 4 -54 c3
-31 11 -58 19 -63 19 -12 186 -11 210 1 18 10 19 24 19 250 l0 240 90 0 90 0
0 -450 0 -450 -22 -4 c-13 -3 -32 -7 -43 -8 -11 -2 -21 -12 -23 -23 -7 -51
-13 -63 -32 -68 -14 -3 -21 -17 -26 -46 -5 -33 -11 -41 -28 -41 -32 0 -44 -12
-51 -53 -6 -30 -12 -37 -30 -37 -41 0 -55 -11 -55 -41 0 -26 -3 -29 -35 -29
-19 0 -35 -4 -35 -10 0 -5 20 -10 45 -10 45 0 45 0 45 35 0 34 1 35 39 35 40
0 40 0 43 43 3 41 4 42 41 45 37 3 37 4 37 47 0 37 3 44 24 49 24 6 36 30 36
74 0 20 4 23 35 20 l36 -3 -1 -483 c0 -315 3 -482 10 -482 6 0 10 326 10 955
l0 955 -94 0 c-52 0 -101 3 -110 6 -14 6 -16 -20 -16 -247 l0 -254 -102 2
-103 1 0 62 0 61 -270 -1 c-148 -1 -269 1 -267 4 1 3 2 130 2 282 l0 276 320
-4 321 -3 2 123 2 122 -242 0 -242 0 6 37 6 36 -41 -6 -42 -5 0 58 c0 51 -2
58 -18 53 -10 -2 -34 0 -53 4 -29 8 -34 14 -34 38 -1 26 -4 29 -35 29 l-35 1
-3 53 -3 52 -51 0 c-49 0 -50 1 -44 25 6 25 6 25 -64 25 -68 0 -70 -1 -70 -25z"/>
<path d="M1016 3590 c2 -84 14 -89 14 -7 0 37 -3 67 -7 67 -5 0 -7 -27 -7 -60z"/>
<path d="M4040 3588 c0 -34 2 -59 4 -57 8 10 14 119 5 119 -5 0 -9 -28 -9 -62z"/>
<path d="M4070 3510 c0 -5 7 -10 15 -10 8 0 15 5 15 10 0 6 -7 10 -15 10 -8 0
-15 -4 -15 -10z"/>
<path d="M963 3358 c4 -83 7 -230 7 -326 0 -97 3 -173 6 -169 4 3 6 144 5 313
-1 220 1 310 10 320 9 11 7 14 -11 14 l-23 0 6 -152z"/>
<path d="M1711 3475 c7 -6 500 -7 507 -1 3 3 -111 6 -253 6 -142 0 -256 -2
-254 -5z"/>
<path d="M3010 3472 c0 -4 117 -9 261 -10 169 -1 258 2 254 8 -7 12 -515 14
-515 2z"/>
<path d="M1678 3370 c-2 -44 0 -80 5 -80 4 0 7 36 7 80 0 44 -2 80 -4 80 -3 0
-6 -36 -8 -80z"/>
<path d="M3543 3380 c0 -41 2 -58 4 -37 2 20 2 54 0 75 -2 20 -4 3 -4 -38z"/>
<path d="M4138 2615 c1 -455 6 -695 12 -695 7 0 10 222 10 648 -1 613 -4 742
-19 742 -3 0 -5 -313 -3 -695z"/>
<path d="M1337 3283 c18 -2 50 -2 70 0 21 2 7 4 -32 4 -38 0 -55 -2 -38 -4z"/>
<path d="M1970 3224 l0 -67 -207 7 -208 7 2 -62 1 -62 329 2 328 2 -3 -281 -3
-281 -268 1 -269 1 2 -66 2 -65 -98 0 -98 0 0 255 0 255 -111 0 -112 0 7 -92
c3 -50 6 -475 6 -945 0 -568 3 -852 10 -848 7 4 9 168 7 471 l-2 464 22 0 c12
0 25 5 28 10 3 6 -5 10 -19 10 l-25 0 -3 216 c-2 119 -2 217 0 219 2 2 3 107
2 234 l-1 231 83 0 83 0 -1 -233 c0 -127 3 -240 8 -249 7 -15 24 -18 111 -18
67 0 107 4 115 12 7 7 12 36 12 65 l0 52 260 0 260 0 1 -37 2 -37 8 45 c9 53
12 591 3 614 -5 14 -44 16 -330 16 l-324 0 0 38 0 37 202 0 203 0 5 59 5 60
85 -1 c51 -1 97 4 115 12 27 12 17 13 -97 14 l-128 1 0 -66z"/>
<path d="M3693 3283 c15 -2 37 -2 50 0 12 2 0 4 -28 4 -27 0 -38 -2 -22 -4z"/>
<path d="M3653 3214 c0 -18 2 -22 8 -13 11 18 11 39 0 39 -5 0 -8 -12 -8 -26z"/>
<path d="M3775 3221 c-3 -5 -1 -12 5 -16 5 -3 10 1 10 9 0 18 -6 21 -15 7z"/>
<path d="M3695 3171 c3 -5 18 -7 32 -5 41 8 41 14 -1 14 -20 0 -35 -4 -31 -9z"/>
<path d="M1273 3060 c-22 -9 -23 -15 -21 -97 l2 -88 3 88 4 87 136 0 c75 0
133 3 130 6 -11 11 -230 14 -254 4z"/>
<path d="M3570 3060 c-15 -5 36 -8 128 -9 95 -1 152 3 152 9 0 12 -243 12
-280 0z"/>
<path d="M3861 2968 c-1 -53 2 -99 7 -101 11 -7 13 148 3 175 -7 17 -10 -4
-10 -74z"/>
<path d="M233 2975 c0 -27 2 -38 4 -22 2 15 2 37 0 50 -2 12 -4 0 -4 -28z"/>
<path d="M234 2575 c0 -170 2 -242 3 -158 2 83 2 223 0 310 -1 87 -3 19 -3
-152z"/>
<path d="M850 2869 c-17 -5 -4 -7 39 -8 35 -1 61 2 57 6 -9 10 -65 11 -96 2z"/>
<path d="M1680 2762 l0 -109 30 -6 c25 -6 30 -11 30 -37 l0 -30 105 0 105 0 0
28 c0 25 5 30 38 38 35 9 37 11 36 46 -2 47 -18 68 -55 68 -28 0 -29 1 -29 53
l0 53 -130 3 -130 2 0 -109z m240 29 c4 -38 9 -45 40 -60 48 -22 52 -53 8 -66
-26 -8 -34 -16 -36 -37 -3 -28 -4 -28 -82 -28 l-78 0 -11 31 c-6 17 -19 33
-30 36 -17 4 -20 16 -23 79 -2 41 -1 79 0 85 3 6 43 9 105 7 l102 -3 5 -44z"/>
<path d="M3080 2760 c0 -108 0 -111 25 -120 14 -5 27 -20 31 -35 6 -24 8 -25
94 -25 l89 0 3 27 c2 19 10 29 23 31 64 9 65 10 65 56 0 51 -12 63 -65 68
l-40 3 -3 51 -3 51 -109 2 -110 2 0 -111z m198 40 c4 -43 13 -52 60 -65 30 -8
38 -16 40 -37 3 -23 -2 -28 -25 -34 -37 -9 -53 -22 -53 -45 0 -17 -8 -19 -69
-19 -65 0 -69 1 -75 25 -4 14 -18 31 -31 37 -24 11 -25 16 -25 95 l0 84 88 -3
87 -3 3 -35z"/>
<path d="M974 2540 c0 -135 2 -190 3 -122 2 67 2 177 0 245 -1 67 -3 12 -3
-123z"/>
<path d="M3745 2390 c-3 -5 -1 -10 4 -10 6 0 11 5 11 10 0 6 -2 10 -4 10 -3 0
-8 -4 -11 -10z"/>
<path d="M1890 2344 c0 -8 5 -12 10 -9 6 4 8 11 5 16 -9 14 -15 11 -15 -7z"/>
<path d="M3052 2353 l158 -4 2 -177 3 -177 5 183 5 182 -165 -2 -165 -2 157
-3z"/>
<path d="M2633 2285 c0 -33 2 -45 4 -27 2 18 2 45 0 60 -2 15 -4 0 -4 -33z"/>
<path d="M1892 2290 c0 -14 2 -19 5 -12 2 6 2 18 0 25 -3 6 -5 1 -5 -13z"/>
<path d="M973 2255 c0 -22 2 -30 4 -17 2 12 2 30 0 40 -3 9 -5 -1 -4 -23z"/>
<path d="M231 2244 c0 -11 3 -14 6 -6 3 7 2 16 -1 19 -3 4 -6 -2 -5 -13z"/>
<path d="M1894 2130 c0 -74 1 -105 3 -67 2 37 2 97 0 135 -2 37 -3 6 -3 -68z"/>
<path d="M2552 2210 c10 -6 25 -7 40 -1 20 9 18 10 -17 10 -31 0 -36 -2 -23
-9z"/>
<path d="M958 2018 c-10 -92 -8 -1038 2 -1038 7 0 10 190 10 540 0 297 -2 540
-4 540 -2 0 -6 -19 -8 -42z"/>
<path d="M2345 2000 c169 -11 508 -11 525 0 10 6 -97 9 -310 8 -236 -1 -295
-3 -215 -8z"/>
<path d="M2893 1950 c0 -25 2 -35 4 -22 2 12 2 32 0 45 -2 12 -4 2 -4 -23z"/>
<path d="M2220 1956 c0 -14 5 -26 10 -26 6 0 10 9 10 19 0 11 -4 23 -10 26 -6
4 -10 -5 -10 -19z"/>
<path d="M1113 1923 c9 -2 25 -2 35 0 9 3 1 5 -18 5 -19 0 -27 -2 -17 -5z"/>
<path d="M1203 1923 c9 -2 23 -2 30 0 6 3 -1 5 -18 5 -16 0 -22 -2 -12 -5z"/>
<path d="M1350 1893 c0 -43 7 -57 33 -66 13 -5 17 -18 17 -52 l0 -45 39 0 c40
0 40 0 43 -42 l3 -43 48 -3 c46 -3 47 -4 47 -38 l0 -34 50 0 c47 0 50 -2 50
-25 0 -24 3 -25 60 -25 l60 0 0 -50 0 -50 55 0 54 0 3 -222 c2 -123 2 -225 0
-227 -1 -3 -116 -7 -255 -10 l-252 -6 6 -60 6 -60 1 53 2 53 201 -1 c110 -1
203 1 207 4 3 3 23 6 44 6 l38 0 0 -105 0 -106 -307 3 -308 3 0 34 c0 24 6 36
20 42 19 7 19 8 -2 8 -21 1 -23 6 -23 61 l0 60 51 0 c31 0 48 4 44 10 -3 6
-31 10 -60 10 l-55 0 1 -125 1 -125 330 0 329 0 -3 350 -3 350 93 0 92 0 0
-121 0 -121 85 3 85 4 0 -107 0 -108 276 0 275 0 -2 106 -2 107 90 -2 90 -2
-1 120 -1 121 153 0 152 0 0 50 0 50 65 0 65 0 -1 33 c0 30 -1 31 -11 10 -9
-20 -19 -23 -64 -23 -59 0 -74 -14 -74 -69 l0 -31 -732 2 -733 3 -3 38 c-4 42
-26 57 -88 57 -19 0 -34 4 -34 9 0 20 -33 41 -64 41 -27 0 -33 5 -41 33 -9 28
-15 33 -50 37 -37 5 -40 7 -43 40 -4 39 -15 50 -54 50 -23 0 -27 5 -33 40 -4
24 -14 44 -26 50 -14 8 -19 22 -19 50 0 22 -4 40 -10 40 -5 0 -10 -17 -10 -37z
m1636 -495 c-3 -13 -6 -62 -6 -111 l0 -87 -80 1 c-45 1 -84 -2 -88 -6 -4 -3
-9 -50 -10 -103 l-4 -97 -239 1 c-131 0 -242 3 -245 7 -3 3 -7 47 -10 98 -2
51 -7 95 -10 98 -3 3 -41 8 -85 10 l-79 3 0 104 0 104 431 0 431 0 -6 -22z"/>
<path d="M3928 1923 c29 -2 74 -2 100 0 26 2 2 3 -53 3 -55 0 -76 -1 -47 -3z"/>
<path d="M2260 1900 c-10 -6 97 -9 310 -8 243 1 295 3 205 8 -186 11 -498 11
-515 0z"/>
<path d="M4140 1658 c0 -138 3 -248 7 -245 9 10 11 497 1 497 -4 0 -8 -113 -8
-252z"/>
<path d="M1000 1691 c0 -12 228 -12 236 0 3 5 -46 9 -115 9 -67 0 -121 -4
-121 -9z"/>
<path d="M3881 1696 c10 -10 79 -15 84 -6 4 6 -13 10 -41 10 -26 0 -45 -2 -43
-4z"/>
<path d="M233 1515 c0 -33 2 -45 4 -27 2 18 2 45 0 60 -2 15 -4 0 -4 -33z"/>
<path d="M220 1033 c0 -356 2 -393 16 -393 13 0 14 3 5 13 -7 10 -10 124 -7
380 1 201 -1 372 -5 379 -5 7 -9 -164 -9 -379z"/>
<path d="M3190 1270 c0 -80 -3 -236 -7 -347 l-6 -203 101 0 c75 0 102 3 102
13 0 9 -24 12 -85 12 -47 0 -85 3 -85 8 0 4 0 50 0 103 l0 96 38 -2 c53 -3 62
-1 62 10 0 6 -24 10 -52 10 l-53 0 3 211 c2 142 0 215 -7 222 -8 8 -11 -31
-11 -133z"/>
<path d="M1400 1073 c0 -5 62 -7 137 -5 255 4 279 8 71 10 -115 1 -208 -1
-208 -5z"/>
<path d="M1801 1014 c0 -11 3 -14 6 -6 3 7 2 16 -1 19 -3 4 -6 -2 -5 -13z"/>
<path d="M975 960 c-4 -6 43 -10 134 -10 87 0 141 4 141 10 0 6 -51 10 -134
10 -79 0 -137 -4 -141 -10z"/>
<path d="M3340 959 c-24 -7 -24 -7 -2 -8 12 -1 22 -5 22 -11 0 -5 5 -10 10
-10 12 0 14 27 3 33 -5 2 -19 1 -33 -4z"/>
<path d="M1348 823 c7 -3 16 -2 19 1 4 3 -2 6 -13 5 -11 0 -14 -3 -6 -6z"/>
<path d="M3282 805 c0 -16 2 -22 5 -12 2 9 2 23 0 30 -3 6 -5 -1 -5 -18z"/>
<path d="M1950 770 c0 -7 210 -10 611 -10 404 0 608 3 604 10 -4 6 -218 10
-611 10 -396 0 -604 -3 -604 -10z"/>
<path d="M261 603 l-1 -33 383 -2 c798 -3 3557 -3 3885 0 l342 3 -1 27 c-2 24
-2 24 -6 5 l-4 -23 -2294 0 -2294 0 -4 28 c-4 25 -4 25 -6 -5z"/>
</g>
</svg>
