<?xml version="1.0" standalone="no"?>
<!DOCTYPE svg PUBLIC "-//W3C//DTD SVG 20010904//EN"
 "http://www.w3.org/TR/2001/REC-SVG-20010904/DTD/svg10.dtd">
<svg version="1.0" xmlns="http://www.w3.org/2000/svg"
 width="512.000000pt" height="512.000000pt" viewBox="0 0 512.000000 512.000000"
 preserveAspectRatio="xMidYMid meet">
<metadata>
Created by potrace 1.16, written by Peter Selinger 2001-2019
</metadata>
<g transform="translate(0.000000,512.000000) scale(0.100000,-0.100000)"
fill="#000000" stroke="none">
<path d="M2365 4985 c-11 -2 -80 -11 -153 -20 -243 -30 -564 -136 -780 -259
-35 -20 -68 -36 -72 -36 -5 0 -15 -6 -22 -13 -7 -7 -38 -27 -68 -44 -61 -35
-54 -31 -200 -145 -129 -101 -306 -276 -389 -383 -35 -44 -68 -87 -75 -96 -90
-111 -254 -415 -319 -590 -41 -109 -99 -331 -123 -469 -25 -145 -31 -531 -10
-695 32 -265 113 -520 248 -790 39 -77 75 -146 81 -154 6 -7 16 -21 22 -31 39
-66 151 -217 221 -295 267 -302 620 -553 978 -695 88 -35 332 -100 471 -126
107 -20 562 -29 690 -13 262 31 601 134 795 241 103 56 261 153 280 171 11 9
22 17 25 17 15 0 205 161 303 258 371 364 597 784 687 1274 117 645 -4 1266
-348 1788 -84 126 -105 154 -211 275 -107 122 -164 175 -366 343 -48 40 -204
144 -270 180 -267 147 -532 237 -845 288 -83 14 -503 28 -550 19z m545 -35
c266 -37 547 -127 770 -246 649 -349 1115 -961 1254 -1649 42 -207 49 -297 43
-553 -5 -255 -27 -413 -82 -607 -143 -503 -453 -956 -870 -1269 -177 -133
-353 -238 -522 -310 -556 -237 -1247 -245 -1813 -22 -275 109 -579 309 -814
536 -485 469 -752 1136 -722 1807 28 628 270 1186 701 1617 322 323 666 525
1092 641 280 77 653 98 963 55z"/>
<path d="M2383 4473 c9 -2 23 -2 30 0 6 3 -1 5 -18 5 -16 0 -22 -2 -12 -5z"/>
<path d="M2713 4473 c15 -2 37 -2 50 0 12 2 0 4 -28 4 -27 0 -38 -2 -22 -4z"/>
<path d="M2313 4463 c9 -2 25 -2 35 0 9 3 1 5 -18 5 -19 0 -27 -2 -17 -5z"/>
<path d="M2803 4463 c9 -2 25 -2 35 0 9 3 1 5 -18 5 -19 0 -27 -2 -17 -5z"/>
<path d="M2233 4453 c9 -2 23 -2 30 0 6 3 -1 5 -18 5 -16 0 -22 -2 -12 -5z"/>
<path d="M2888 4453 c7 -3 16 -2 19 1 4 3 -2 6 -13 5 -11 0 -14 -3 -6 -6z"/>
<path d="M2178 4443 c6 -2 18 -2 25 0 6 3 1 5 -13 5 -14 0 -19 -2 -12 -5z"/>
<path d="M1379 4063 c-13 -16 -12 -17 4 -4 9 7 17 15 17 17 0 8 -8 3 -21 -13z"/>
<path d="M1319 4013 c-13 -16 -12 -17 4 -4 9 7 17 15 17 17 0 8 -8 3 -21 -13z"/>
<path d="M1234 3938 l-29 -33 33 29 c17 17 32 31 32 33 0 8 -8 1 -36 -29z"/>
<path d="M1159 3863 l-34 -38 38 34 c34 33 42 41 34 41 -2 0 -19 -17 -38 -37z"/>
<path d="M2436 3850 c-155 -18 -286 -55 -407 -115 -319 -161 -581 -467 -673
-787 -187 -652 123 -1308 736 -1562 321 -133 690 -126 1007 20 245 113 495
355 619 600 43 85 97 245 113 334 19 105 17 353 -5 462 -51 266 -166 478 -366
678 -165 166 -298 249 -500 314 -164 53 -362 74 -524 56z m331 -31 c380 -53
741 -324 927 -696 96 -192 128 -336 128 -573 0 -150 -3 -176 -30 -280 -53
-208 -149 -379 -308 -548 -497 -532 -1265 -550 -1791 -42 -178 172 -293 384
-349 645 -24 110 -24 368 -1 485 50 251 157 453 343 643 299 304 655 425 1081
366z"/>
<path d="M2379 3471 c-159 -34 -305 -111 -427 -226 -207 -193 -303 -433 -288
-725 6 -141 12 -171 57 -296 59 -160 208 -346 355 -440 494 -316 1170 -78
1360 478 35 105 47 203 41 345 -6 146 -33 255 -93 376 -187 372 -600 573
-1005 488z m406 -30 c110 -28 267 -109 355 -183 132 -111 243 -289 292 -465
32 -116 32 -355 0 -468 -102 -355 -407 -614 -773 -655 -159 -18 -319 10 -474
84 -523 248 -670 946 -294 1395 98 118 257 227 404 276 144 49 337 55 490 16z"/>
<path d="M2455 3006 c-219 -53 -364 -278 -326 -507 40 -244 224 -391 473 -377
140 8 258 75 336 191 47 70 64 125 70 228 7 153 -36 268 -135 359 -110 101
-272 142 -418 106z m175 -17 c233 -37 389 -253 353 -486 -36 -232 -252 -393
-478 -355 -142 23 -249 102 -312 230 -37 75 -38 78 -38 191 0 110 2 120 32
184 57 119 165 206 293 233 71 16 73 16 150 3z"/>
<path d="M731 3114 c0 -11 3 -14 6 -6 3 7 2 16 -1 19 -3 4 -6 -2 -5 -13z"/>
<path d="M711 3044 c0 -11 3 -14 6 -6 3 7 2 16 -1 19 -3 4 -6 -2 -5 -13z"/>
<path d="M4441 2984 c0 -11 3 -14 6 -6 3 7 2 16 -1 19 -3 4 -6 -2 -5 -13z"/>
<path d="M692 2960 c0 -14 2 -19 5 -12 2 6 2 18 0 25 -3 6 -5 1 -5 -13z"/>
<path d="M4451 2944 c0 -11 3 -14 6 -6 3 7 2 16 -1 19 -3 4 -6 -2 -5 -13z"/>
<path d="M681 2914 c0 -11 3 -14 6 -6 3 7 2 16 -1 19 -3 4 -6 -2 -5 -13z"/>
<path d="M4462 2890 c0 -14 2 -19 5 -12 2 6 2 18 0 25 -3 6 -5 1 -5 -13z"/>
<path d="M672 2860 c0 -14 2 -19 5 -12 2 6 2 18 0 25 -3 6 -5 1 -5 -13z"/>
<path d="M4472 2840 c0 -14 2 -19 5 -12 2 6 2 18 0 25 -3 6 -5 1 -5 -13z"/>
<path d="M653 2670 c0 -30 2 -43 4 -27 2 15 2 39 0 55 -2 15 -4 2 -4 -28z"/>
<path d="M681 2194 c0 -11 3 -14 6 -6 3 7 2 16 -1 19 -3 4 -6 -2 -5 -13z"/>
</g>
</svg>
