<?xml version="1.0" standalone="no"?>
<!DOCTYPE svg PUBLIC "-//W3C//DTD SVG 20010904//EN"
 "http://www.w3.org/TR/2001/REC-SVG-20010904/DTD/svg10.dtd">
<svg version="1.0" xmlns="http://www.w3.org/2000/svg"
 width="512.000000pt" height="768.000000pt" viewBox="0 0 512.000000 768.000000"
 preserveAspectRatio="xMidYMid meet">
<metadata>
Created by potrace 1.16, written by Peter Selinger 2001-2019
</metadata>
<g transform="translate(0.000000,768.000000) scale(0.100000,-0.100000)"
fill="#000000" stroke="none">
<path d="M2578 7603 c7 -3 16 -2 19 1 4 3 -2 6 -13 5 -11 0 -14 -3 -6 -6z"/>
<path d="M2643 7603 c9 -2 25 -2 35 0 9 3 1 5 -18 5 -19 0 -27 -2 -17 -5z"/>
<path d="M2718 7523 c6 -2 18 -2 25 0 6 3 1 5 -13 5 -14 0 -19 -2 -12 -5z"/>
<path d="M2818 7523 c6 -2 18 -2 25 0 6 3 1 5 -13 5 -14 0 -19 -2 -12 -5z"/>
<path d="M2898 7523 c7 -3 16 -2 19 1 4 3 -2 6 -13 5 -11 0 -14 -3 -6 -6z"/>
<path d="M2968 7523 c17 -2 47 -2 65 0 17 2 3 4 -33 4 -36 0 -50 -2 -32 -4z"/>
<path d="M3218 7513 c7 -3 16 -2 19 1 4 3 -2 6 -13 5 -11 0 -14 -3 -6 -6z"/>
<path d="M3428 7513 c7 -3 16 -2 19 1 4 3 -2 6 -13 5 -11 0 -14 -3 -6 -6z"/>
<path d="M3523 7513 c9 -2 25 -2 35 0 9 3 1 5 -18 5 -19 0 -27 -2 -17 -5z"/>
<path d="M2648 7463 c7 -3 16 -2 19 1 4 3 -2 6 -13 5 -11 0 -14 -3 -6 -6z"/>
<path d="M4938 7423 c7 -3 16 -2 19 1 4 3 -2 6 -13 5 -11 0 -14 -3 -6 -6z"/>
<path d="M2768 7413 c7 -3 16 -2 19 1 4 3 -2 6 -13 5 -11 0 -14 -3 -6 -6z"/>
<path d="M1281 7354 c0 -11 3 -14 6 -6 3 7 2 16 -1 19 -3 4 -6 -2 -5 -13z"/>
<path d="M2470 7359 c0 -5 5 -7 10 -4 6 3 10 8 10 11 0 2 -4 4 -10 4 -5 0 -10
-5 -10 -11z"/>
<path d="M2183 7203 c9 -2 25 -2 35 0 9 3 1 5 -18 5 -19 0 -27 -2 -17 -5z"/>
<path d="M3118 7183 c6 -2 18 -2 25 0 6 3 1 5 -13 5 -14 0 -19 -2 -12 -5z"/>
<path d="M2248 7153 c7 -3 16 -2 19 1 4 3 -2 6 -13 5 -11 0 -14 -3 -6 -6z"/>
<path d="M2078 7143 c7 -3 16 -2 19 1 4 3 -2 6 -13 5 -11 0 -14 -3 -6 -6z"/>
<path d="M3148 7143 c18 -2 45 -2 60 0 15 2 0 4 -33 4 -33 0 -45 -2 -27 -4z"/>
<path d="M2176 7111 c-4 -5 3 -7 14 -4 23 6 26 13 6 13 -8 0 -17 -4 -20 -9z"/>
<path d="M1880 7059 c0 -5 5 -7 10 -4 6 3 10 8 10 11 0 2 -4 4 -10 4 -5 0 -10
-5 -10 -11z"/>
<path d="M1988 7063 c7 -3 16 -2 19 1 4 3 -2 6 -13 5 -11 0 -14 -3 -6 -6z"/>
<path d="M2473 7013 c15 -2 39 -2 55 0 15 2 2 4 -28 4 -30 0 -43 -2 -27 -4z"/>
<path d="M2578 7013 c12 -2 32 -2 45 0 12 2 2 4 -23 4 -25 0 -35 -2 -22 -4z"/>
<path d="M3038 7013 c7 -3 16 -2 19 1 4 3 -2 6 -13 5 -11 0 -14 -3 -6 -6z"/>
<path d="M3178 7013 c7 -3 16 -2 19 1 4 3 -2 6 -13 5 -11 0 -14 -3 -6 -6z"/>
<path d="M1983 6943 c9 -2 23 -2 30 0 6 3 -1 5 -18 5 -16 0 -22 -2 -12 -5z"/>
<path d="M2145 6940 c4 -7 64 -10 163 -9 86 1 300 1 475 0 295 -1 317 -2 317
-18 0 -17 -24 -18 -369 -18 -222 0 -367 4 -363 9 3 5 -2 7 -11 3 -9 -3 -76 -7
-149 -8 -73 -1 -158 -5 -188 -8 l-55 -6 3 -33 4 -34 -46 3 c-25 2 -48 0 -52
-4 -13 -13 -24 -7 -24 13 0 11 -4 20 -10 20 -5 0 -9 -3 -9 -7 5 -28 -4 -33
-54 -33 -60 0 -77 -12 -77 -51 0 -27 -3 -28 -52 -31 l-53 -3 -3 -37 c-3 -38
-4 -38 -47 -38 -65 0 -75 -7 -75 -51 l0 -39 -55 0 -55 0 0 -44 0 -45 -47 -3
c-48 -3 -48 -3 -53 -43 -5 -39 -6 -40 -46 -43 -47 -3 -54 -14 -54 -93 0 -40
-3 -45 -22 -46 -66 -1 -65 -1 -72 -48 -7 -41 -10 -45 -36 -45 -53 0 -60 -8
-60 -66 l0 -54 -40 0 -39 0 -7 -47 c-6 -46 -7 -48 -42 -51 -19 -1 -37 -4 -39
-5 -1 -2 -3 -34 -4 -70 -1 -37 -6 -70 -10 -73 -5 -3 -9 -506 -9 -1140 l0
-1134 -112 0 c-61 0 -109 -2 -106 -5 2 -3 51 -6 109 -7 78 -2 107 -7 116 -18
11 -13 12 -13 13 0 1 8 1 525 1 1148 0 988 2 1132 15 1132 12 0 14 13 8 75
l-7 75 47 0 c39 0 47 3 45 18 -1 9 -1 32 0 50 1 31 2 32 44 32 l43 0 0 57 0
56 45 1 44 1 3 48 3 47 47 0 47 0 1 68 0 67 47 -1 47 0 0 48 0 48 50 0 50 0 0
45 0 45 54 0 55 0 3 43 3 42 58 0 57 0 0 43 0 42 60 0 60 0 0 40 0 40 53 0
c30 0 88 3 130 6 l77 7 0 33 0 34 615 0 615 0 0 -40 0 -40 55 0 c54 0 55 0 55
-30 l0 -30 60 0 60 0 0 -35 0 -35 60 7 60 6 0 -33 0 -33 50 5 50 5 0 -38 0
-39 50 0 50 0 0 -39 0 -40 48 -3 c46 -3 47 -3 50 -40 3 -36 4 -37 50 -40 l47
-3 3 -72 3 -73 48 0 48 0 7 -50 7 -50 49 0 50 0 0 -65 0 -65 45 0 c43 0 44 -1
51 -36 3 -19 4 -57 2 -85 l-5 -49 44 0 c50 0 57 23 9 28 -33 4 -32 37 1 37 12
0 26 4 30 9 4 5 -6 7 -24 4 l-32 -4 -3 60 -3 61 -40 1 c-22 1 -43 2 -47 3 -5
1 -8 28 -8 61 l0 60 -51 0 c-49 0 -51 1 -47 25 3 14 1 25 -6 25 -6 0 -4 4 4 9
8 6 18 7 24 4 5 -3 6 -1 2 5 -4 7 -14 12 -22 12 -8 0 -14 9 -14 19 0 11 -4 23
-10 26 -5 3 -10 -1 -10 -9 0 -12 -10 -16 -36 -16 l-36 0 4 45 c2 25 0 45 -4
45 -4 0 -8 12 -10 28 -3 25 -7 27 -50 30 -46 3 -47 4 -50 40 -3 37 -4 37 -50
40 l-48 3 0 40 0 39 -50 0 -50 0 0 34 c0 38 -12 46 -65 46 -27 0 -34 4 -37 23
-2 17 -10 23 -38 25 -67 5 -80 11 -80 36 0 32 -25 57 -48 49 -14 -6 -13 -8 8
-14 17 -5 8 -7 -27 -6 -61 2 -69 13 -18 23 19 3 32 10 29 15 -3 5 -13 5 -24
-1 -26 -14 -40 -13 -40 4 0 11 -37 22 -96 28 -7 1 -12 17 -12 36 0 19 -6 39
-12 46 -10 8 -11 8 -6 -2 6 -10 -5 -12 -48 -11 -47 2 -55 5 -60 24 -3 13 -14
25 -24 27 -40 11 -953 8 -947 -2z"/>
<path d="M1840 6868 c0 -10 97 -10 104 0 2 4 -20 7 -50 7 -30 0 -54 -3 -54 -7z"/>
<path d="M2248 6773 c6 -2 18 -2 25 0 6 3 1 5 -13 5 -14 0 -19 -2 -12 -5z"/>
<path d="M2558 6773 c6 -2 18 -2 25 0 6 3 1 5 -13 5 -14 0 -19 -2 -12 -5z"/>
<path d="M2608 6773 c6 -2 18 -2 25 0 6 3 1 5 -13 5 -14 0 -19 -2 -12 -5z"/>
<path d="M2678 6773 c17 -2 47 -2 65 0 17 2 3 4 -33 4 -36 0 -50 -2 -32 -4z"/>
<path d="M2868 6773 c7 -3 16 -2 19 1 4 3 -2 6 -13 5 -11 0 -14 -3 -6 -6z"/>
<path d="M2908 6773 c7 -3 16 -2 19 1 4 3 -2 6 -13 5 -11 0 -14 -3 -6 -6z"/>
<path d="M2968 6773 c7 -3 16 -2 19 1 4 3 -2 6 -13 5 -11 0 -14 -3 -6 -6z"/>
<path d="M3043 6703 c9 -2 23 -2 30 0 6 3 -1 5 -18 5 -16 0 -22 -2 -12 -5z"/>
<path d="M3173 6633 c9 -2 25 -2 35 0 9 3 1 5 -18 5 -19 0 -27 -2 -17 -5z"/>
<path d="M3233 6553 c9 -2 25 -2 35 0 9 3 1 5 -18 5 -19 0 -27 -2 -17 -5z"/>
<path d="M3351 6524 c0 -11 3 -14 6 -6 3 7 2 16 -1 19 -3 4 -6 -2 -5 -13z"/>
<path d="M3638 6453 c6 -2 18 -2 25 0 6 3 1 5 -13 5 -14 0 -19 -2 -12 -5z"/>
<path d="M3828 6323 c7 -3 16 -2 19 1 4 3 -2 6 -13 5 -11 0 -14 -3 -6 -6z"/>
<path d="M3890 6320 c0 -5 5 -10 10 -10 6 0 10 5 10 10 0 6 -4 10 -10 10 -5 0
-10 -4 -10 -10z"/>
<path d="M2398 6233 c6 -2 18 -2 25 0 6 3 1 5 -13 5 -14 0 -19 -2 -12 -5z"/>
<path d="M2858 6233 c7 -3 16 -2 19 1 4 3 -2 6 -13 5 -11 0 -14 -3 -6 -6z"/>
<path d="M3918 6233 c7 -3 16 -2 19 1 4 3 -2 6 -13 5 -11 0 -14 -3 -6 -6z"/>
<path d="M2520 6220 c7 -4 70 -8 139 -8 69 -1 122 1 116 3 -21 7 -267 13 -255
5z"/>
<path d="M3220 6198 l0 -33 -830 3 -830 2 0 -190 0 -190 460 2 460 3 0 -380 0
-380 -375 2 -375 2 0 -170 0 -169 375 0 375 0 0 -647 0 -648 -613 1 c-1267 4
-1157 1 -1157 24 0 11 5 20 11 20 5 0 7 -4 4 -10 -4 -6 297 -10 858 -10 759 0
866 2 877 15 11 13 -84 15 -869 15 -484 0 -881 3 -881 8 0 4 -38 6 -84 5 l-83
-3 0 68 c4 371 -5 1993 -10 1988 -4 -3 -8 -149 -9 -324 -1 -174 -3 -319 -4
-322 -4 -18 1 -1331 6 -1343 4 -11 -2 -17 -18 -20 -23 -4 -23 -4 2 -6 20 -1
22 -3 10 -11 -10 -6 -11 -10 -2 -10 19 0 14 -20 -5 -21 -49 -2 29 -16 97 -18
41 -1 76 -6 78 -10 1 -5 9 -17 17 -27 12 -17 32 -20 212 -24 260 -7 1566 0
1575 9 4 4 10 40 13 81 6 106 6 680 0 691 -4 5 -1 9 5 9 6 0 8 5 5 10 -3 6 -8
40 -10 75 -4 50 -2 64 8 59 9 -6 9 -4 1 7 -6 8 -11 86 -13 199 -1 101 -4 187
-7 190 -3 3 -150 5 -327 5 l-322 0 -3 143 -3 142 233 1 c128 0 271 0 318 -1
110 -1 117 2 112 45 -2 20 1 42 8 50 7 8 9 15 4 15 -5 0 -8 132 -8 292 2 315
-3 402 -23 404 -7 1 -193 2 -413 3 l-400 1 0 163 0 163 73 -3 c39 -1 87 -4
105 -7 17 -2 32 0 32 5 0 11 772 8 780 -3 5 -7 63 -12 95 -8 11 2 0 6 -25 10
-25 3 75 6 223 6 l267 0 0 -165 0 -166 -239 0 c-132 0 -243 -4 -248 -8 -9 -10
-12 -429 -3 -647 l5 -145 300 -2 c165 -1 315 -2 333 -3 l32 0 0 -145 0 -145
-336 0 c-185 1 -338 -1 -340 -3 -7 -7 -6 -1272 1 -1299 4 -16 12 -28 19 -29
75 -5 1687 -7 1731 -2 144 16 -43 20 -867 19 l-867 -1 0 648 -1 647 345 0 345
0 -4 43 c-2 23 -4 100 -5 171 l-1 129 -335 -6 -335 -6 0 384 0 385 425 -6 425
-6 0 188 0 189 -123 1 -122 1 -3 32 -3 31 -65 0 -64 0 0 -32z m78 5 c-10 -2
-28 -2 -40 0 -13 2 -5 4 17 4 22 1 32 -1 23 -4z m35 -19 c6 -39 14 -42 132
-40 l115 1 0 -165 0 -165 -116 0 -115 0 3 158 c2 86 0 157 -4 157 -5 0 -8 -51
-9 -112 0 -62 -1 -134 -1 -160 l-1 -48 -48 0 -49 0 -1 38 c0 20 -3 72 -5 114
-4 61 -1 83 12 103 9 14 12 25 7 25 -5 0 -9 16 -10 35 -1 19 3 32 8 29 5 -3 9
-1 9 5 0 5 -6 12 -12 14 -7 3 6 6 30 6 32 1 42 5 42 18 0 21 9 13 13 -13z
m-1677 -202 l-1 -167 -32 -3 c-18 -2 -33 0 -34 5 -1 4 -3 81 -4 169 l-4 162
38 0 38 1 -1 -167z m164 -1118 c0 -121 -3 -154 -12 -147 -7 4 -22 7 -33 8 -19
0 -20 7 -20 122 0 68 3 123 7 123 3 0 4 9 1 19 -5 19 -2 20 50 30 4 0 7 -69 7
-155z"/>
<path d="M3298 6163 c7 -3 16 -2 19 1 4 3 -2 6 -13 5 -11 0 -14 -3 -6 -6z"/>
<path d="M3405 6120 c3 -5 8 -10 11 -10 2 0 4 5 4 10 0 6 -5 10 -11 10 -5 0
-7 -4 -4 -10z"/>
<path d="M3409 6079 c-10 -6 -4 -9 19 -9 17 0 32 2 32 4 0 9 -39 13 -51 5z"/>
<path d="M3448 5833 c7 -3 16 -2 19 1 4 3 -2 6 -13 5 -11 0 -14 -3 -6 -6z"/>
<path d="M3538 5833 c7 -3 16 -2 19 1 4 3 -2 6 -13 5 -11 0 -14 -3 -6 -6z"/>
<path d="M3478 6223 c18 -2 45 -2 60 0 15 2 0 4 -33 4 -33 0 -45 -2 -27 -4z"/>
<path d="M1618 6213 c7 -3 16 -2 19 1 4 3 -2 6 -13 5 -11 0 -14 -3 -6 -6z"/>
<path d="M1520 6150 c0 -5 5 -10 11 -10 5 0 7 5 4 10 -3 6 -8 10 -11 10 -2 0
-4 -4 -4 -10z"/>
<path d="M3626 6137 c3 -10 9 -15 12 -12 3 3 0 11 -7 18 -10 9 -11 8 -5 -6z"/>
<path d="M2063 6133 c15 -2 37 -2 50 0 12 2 0 4 -28 4 -27 0 -38 -2 -22 -4z"/>
<path d="M2478 6123 c7 -3 16 -2 19 1 4 3 -2 6 -13 5 -11 0 -14 -3 -6 -6z"/>
<path d="M1853 6093 c9 -2 25 -2 35 0 9 3 1 5 -18 5 -19 0 -27 -2 -17 -5z"/>
<path d="M2383 6093 c9 -2 25 -2 35 0 9 3 1 5 -18 5 -19 0 -27 -2 -17 -5z"/>
<path d="M2478 6093 c12 -2 32 -2 45 0 12 2 2 4 -23 4 -25 0 -35 -2 -22 -4z"/>
<path d="M3632 5960 c0 -14 2 -19 5 -12 2 6 2 18 0 25 -3 6 -5 1 -5 -13z"/>
<path d="M4235 5950 c3 -5 8 -10 11 -10 2 0 4 5 4 10 0 6 -5 10 -11 10 -5 0
-7 -4 -4 -10z"/>
<path d="M4378 5904 c-5 -4 -8 -59 -8 -123 l0 -116 49 3 49 4 1 -1081 1 -1081
-852 -2 c-565 -2 -851 -6 -848 -13 5 -10 1646 -9 1683 1 12 4 17 0 17 -15 l0
-21 -855 0 c-764 0 -855 -2 -855 -15 0 -14 90 -16 843 -15 564 1 846 5 855 12
9 8 12 6 12 -5 0 -10 6 -14 15 -11 8 4 12 10 9 15 -3 5 2 6 10 3 9 -3 16 -14
16 -23 1 -15 2 -15 13 1 8 9 25 18 39 20 14 2 34 10 44 18 10 8 15 10 11 3 -6
-9 1 -9 24 -3 18 5 34 12 38 16 7 6 10 2011 3 2032 -2 6 -8 12 -13 12 -5 0 -9
-428 -9 -1020 l0 -1020 -35 0 c-44 0 -46 17 -2 23 28 3 26 4 -11 5 -40 2 -42
1 -36 -22 5 -23 3 -24 -45 -24 -42 -1 -51 2 -51 16 0 13 9 18 32 20 45 4 49
12 5 12 l-37 0 -1 1093 c-1 1097 -2 1224 -13 1234 -3 4 -23 9 -43 12 -32 5
-39 11 -43 35 -3 15 -8 24 -12 20z m88 -96 c-3 -13 -6 -46 -6 -74 0 -50 0 -51
-30 -46 -21 3 -30 10 -30 23 0 11 6 19 13 19 9 0 9 2 0 8 -9 6 -18 57 -14 85
1 4 17 7 37 7 33 0 36 -2 30 -22z"/>
<path d="M4525 5860 c-3 -5 -1 -10 4 -10 6 0 11 5 11 10 0 6 -2 10 -4 10 -3 0
-8 -4 -11 -10z"/>
<path d="M4567 5819 c7 -7 15 -10 18 -7 3 3 -2 9 -12 12 -14 6 -15 5 -6 -5z"/>
<path d="M3220 5729 l0 -44 65 3 c80 4 86 18 8 18 -56 -1 -58 0 -60 28 -3 46
-13 43 -13 -5z"/>
<path d="M3338 5763 c7 -3 16 -2 19 1 4 3 -2 6 -13 5 -11 0 -14 -3 -6 -6z"/>
<path d="M458 5753 c7 -3 16 -2 19 1 4 3 -2 6 -13 5 -11 0 -14 -3 -6 -6z"/>
<path d="M4560 5745 c0 -8 4 -15 10 -15 5 0 7 7 4 15 -4 8 -8 15 -10 15 -2 0
-4 -7 -4 -15z"/>
<path d="M2785 5710 c-3 -5 -1 -10 4 -10 6 0 11 5 11 10 0 6 -2 10 -4 10 -3 0
-8 -4 -11 -10z"/>
<path d="M2430 5698 c0 -4 7 -8 15 -8 8 0 15 4 15 8 0 5 -7 9 -15 9 -8 0 -15
-4 -15 -9z"/>
<path d="M4564 5694 c3 -9 6 -55 6 -102 l0 -87 45 3 c49 4 52 22 4 22 -27 0
-29 2 -30 43 -1 23 -3 56 -4 72 -2 17 -3 38 -4 48 -1 9 -6 17 -12 17 -6 0 -8
-7 -5 -16z"/>
<path d="M748 5683 c7 -3 16 -2 19 1 4 3 -2 6 -13 5 -11 0 -14 -3 -6 -6z"/>
<path d="M4505 5670 c-3 -6 1 -7 9 -4 18 7 21 14 7 14 -6 0 -13 -4 -16 -10z"/>
<path d="M830 5666 c0 -2 7 -6 15 -10 8 -3 15 -1 15 4 0 6 -7 10 -15 10 -8 0
-15 -2 -15 -4z"/>
<path d="M2790 5654 c0 -8 5 -12 10 -9 6 4 8 11 5 16 -9 14 -15 11 -15 -7z"/>
<path d="M508 5603 c7 -3 16 -2 19 1 4 3 -2 6 -13 5 -11 0 -14 -3 -6 -6z"/>
<path d="M620 5601 c0 -5 5 -13 10 -16 6 -3 10 -2 10 4 0 5 -4 13 -10 16 -5 3
-10 2 -10 -4z"/>
<path d="M2791 5594 c0 -11 3 -14 6 -6 3 7 2 16 -1 19 -3 4 -6 -2 -5 -13z"/>
<path d="M2680 5589 c0 -5 5 -7 10 -4 6 3 10 8 10 11 0 2 -4 4 -10 4 -5 0 -10
-5 -10 -11z"/>
<path d="M2680 5545 c0 -14 2 -25 4 -25 2 0 6 11 8 25 3 14 1 25 -3 25 -5 0
-9 -11 -9 -25z"/>
<path d="M620 5540 c0 -5 5 -10 10 -10 6 0 10 5 10 10 0 6 -4 10 -10 10 -5 0
-10 -4 -10 -10z"/>
<path d="M625 5510 c3 -5 8 -10 11 -10 2 0 4 5 4 10 0 6 -5 10 -11 10 -5 0 -7
-4 -4 -10z"/>
<path d="M4508 5513 c7 -3 16 -2 19 1 4 3 -2 6 -13 5 -11 0 -14 -3 -6 -6z"/>
<path d="M623 5449 c0 -22 2 -38 4 -35 10 9 14 76 5 76 -4 0 -8 -18 -9 -41z"/>
<path d="M2790 5475 c0 -8 2 -15 4 -15 2 0 6 7 10 15 3 8 1 15 -4 15 -6 0 -10
-7 -10 -15z"/>
<path d="M4577 4762 c2 -1157 3 -1236 10 -1229 7 8 13 1861 6 1920 -3 20 -8
37 -12 37 -3 0 -5 -327 -4 -728z"/>
<path d="M2790 5420 c0 -11 2 -20 4 -20 2 0 6 9 9 20 3 11 1 20 -4 20 -5 0 -9
-9 -9 -20z"/>
<path d="M620 5282 c0 -67 3 -122 8 -122 9 0 9 227 -1 236 -4 4 -7 -47 -7
-114z"/>
<path d="M2791 5344 c0 -11 3 -14 6 -6 3 7 2 16 -1 19 -3 4 -6 -2 -5 -13z"/>
<path d="M4962 5240 c0 -14 2 -19 5 -12 2 6 2 18 0 25 -3 6 -5 1 -5 -13z"/>
<path d="M2445 5240 c3 -5 8 -10 11 -10 2 0 4 5 4 10 0 6 -5 10 -11 10 -5 0
-7 -4 -4 -10z"/>
<path d="M2680 5199 c0 -5 5 -7 10 -4 6 3 10 8 10 11 0 2 -4 4 -10 4 -5 0 -10
-5 -10 -11z"/>
<path d="M2790 5199 c0 -5 5 -7 10 -4 6 3 10 8 10 11 0 2 -4 4 -10 4 -5 0 -10
-5 -10 -11z"/>
<path d="M2033 5153 c9 -2 23 -2 30 0 6 3 -1 5 -18 5 -16 0 -22 -2 -12 -5z"/>
<path d="M2233 5153 c9 -2 23 -2 30 0 6 3 -1 5 -18 5 -16 0 -22 -2 -12 -5z"/>
<path d="M2790 5145 c-8 -9 -8 -15 -2 -15 12 0 26 19 19 26 -2 2 -10 -2 -17
-11z"/>
<path d="M2858 5153 c7 -3 16 -2 19 1 4 3 -2 6 -13 5 -11 0 -14 -3 -6 -6z"/>
<path d="M2928 5153 c12 -2 30 -2 40 0 9 3 -1 5 -23 4 -22 0 -30 -2 -17 -4z"/>
<path d="M620 5121 c0 -17 2 -31 4 -31 8 0 13 51 5 56 -5 3 -9 -9 -9 -25z"/>
<path d="M2113 5123 c15 -2 37 -2 50 0 12 2 0 4 -28 4 -27 0 -38 -2 -22 -4z"/>
<path d="M2912 5118 c13 -8 265 -12 257 -4 -2 2 -64 6 -137 8 -73 2 -127 1
-120 -4z"/>
<path d="M3293 5123 c15 -2 39 -2 55 0 15 2 2 4 -28 4 -30 0 -43 -2 -27 -4z"/>
<path d="M1883 5113 c26 -2 67 -2 90 0 23 2 2 3 -48 3 -49 0 -68 -1 -42 -3z"/>
<path d="M2858 5113 c6 -2 18 -2 25 0 6 3 1 5 -13 5 -14 0 -19 -2 -12 -5z"/>
<path d="M1820 5073 c0 -10 4 -14 8 -8 4 6 11 13 16 18 5 4 2 7 -7 7 -10 0
-17 -8 -17 -17z"/>
<path d="M1878 5083 c12 -2 30 -2 40 0 9 3 -1 5 -23 4 -22 0 -30 -2 -17 -4z"/>
<path d="M1948 5083 c6 -2 18 -2 25 0 6 3 1 5 -13 5 -14 0 -19 -2 -12 -5z"/>
<path d="M2373 5083 c9 -2 23 -2 30 0 6 3 -1 5 -18 5 -16 0 -22 -2 -12 -5z"/>
<path d="M2863 5083 c9 -2 23 -2 30 0 6 3 -1 5 -18 5 -16 0 -22 -2 -12 -5z"/>
<path d="M2918 5083 c7 -3 16 -2 19 1 4 3 -2 6 -13 5 -11 0 -14 -3 -6 -6z"/>
<path d="M620 5060 c0 -11 4 -20 8 -20 4 0 8 9 8 20 0 11 -4 20 -8 20 -4 0 -8
-9 -8 -20z"/>
<path d="M2775 5070 c-3 -5 -1 -10 4 -10 6 0 11 5 11 10 0 6 -2 10 -4 10 -3 0
-8 -4 -11 -10z"/>
<path d="M2038 5063 c29 -2 74 -2 100 0 26 2 2 3 -53 3 -55 0 -76 -1 -47 -3z"/>
<path d="M2278 5063 c6 -2 18 -2 25 0 6 3 1 5 -13 5 -14 0 -19 -2 -12 -5z"/>
<path d="M832 5030 c0 -14 2 -19 5 -12 2 6 2 18 0 25 -3 6 -5 1 -5 -13z"/>
<path d="M620 4871 c0 -89 -1 -247 -1 -352 0 -105 3 -194 6 -197 3 -3 6 118 6
269 1 151 3 309 3 352 1 43 -2 81 -6 83 -4 3 -8 -67 -8 -155z"/>
<path d="M2288 4993 c7 -3 16 -2 19 1 4 3 -2 6 -13 5 -11 0 -14 -3 -6 -6z"/>
<path d="M1933 4983 c32 -2 81 -2 110 0 29 2 3 3 -58 3 -60 0 -84 -1 -52 -3z"/>
<path d="M3138 4973 c7 -3 16 -2 19 1 4 3 -2 6 -13 5 -11 0 -14 -3 -6 -6z"/>
<path d="M3178 4973 c7 -3 16 -2 19 1 4 3 -2 6 -13 5 -11 0 -14 -3 -6 -6z"/>
<path d="M2198 4953 c7 -3 16 -2 19 1 4 3 -2 6 -13 5 -11 0 -14 -3 -6 -6z"/>
<path d="M2257 4953 c18 -2 50 -2 70 0 21 2 7 4 -32 4 -38 0 -55 -2 -38 -4z"/>
<path d="M2778 4943 c6 -2 18 -2 25 0 6 3 1 5 -13 5 -14 0 -19 -2 -12 -5z"/>
<path d="M2848 4943 c7 -3 16 -2 19 1 4 3 -2 6 -13 5 -11 0 -14 -3 -6 -6z"/>
<path d="M2923 4943 c15 -2 37 -2 50 0 12 2 0 4 -28 4 -27 0 -38 -2 -22 -4z"/>
<path d="M3058 4943 c6 -2 18 -2 25 0 6 3 1 5 -13 5 -14 0 -19 -2 -12 -5z"/>
<path d="M4961 4884 c0 -11 3 -14 6 -6 3 7 2 16 -1 19 -3 4 -6 -2 -5 -13z"/>
<path d="M4991 4824 c0 -11 3 -14 6 -6 3 7 2 16 -1 19 -3 4 -6 -2 -5 -13z"/>
<path d="M358 4713 c7 -3 16 -2 19 1 4 3 -2 6 -13 5 -11 0 -14 -3 -6 -6z"/>
<path d="M4932 4690 c0 -14 2 -19 5 -12 2 6 2 18 0 25 -3 6 -5 1 -5 -13z"/>
<path d="M932 4655 c0 -16 2 -22 5 -12 2 9 2 23 0 30 -3 6 -5 -1 -5 -18z"/>
<path d="M2048 4593 c12 -2 32 -2 45 0 12 2 2 4 -23 4 -25 0 -35 -2 -22 -4z"/>
<path d="M2198 4593 c7 -3 16 -2 19 1 4 3 -2 6 -13 5 -11 0 -14 -3 -6 -6z"/>
<path d="M931 4554 c0 -11 3 -14 6 -6 3 7 2 16 -1 19 -3 4 -6 -2 -5 -13z"/>
<path d="M2771 4454 c0 -11 3 -14 6 -6 3 7 2 16 -1 19 -3 4 -6 -2 -5 -13z"/>
<path d="M4991 4444 c0 -11 3 -14 6 -6 3 7 2 16 -1 19 -3 4 -6 -2 -5 -13z"/>
<path d="M365 4370 c3 -5 8 -10 11 -10 2 0 4 5 4 10 0 6 -5 10 -11 10 -5 0 -7
-4 -4 -10z"/>
<path d="M621 4294 c0 -11 3 -14 6 -6 3 7 2 16 -1 19 -3 4 -6 -2 -5 -13z"/>
<path d="M5101 4294 c0 -11 3 -14 6 -6 3 7 2 16 -1 19 -3 4 -6 -2 -5 -13z"/>
<path d="M5101 4254 c0 -11 3 -14 6 -6 3 7 2 16 -1 19 -3 4 -6 -2 -5 -13z"/>
<path d="M622 4230 c0 -14 2 -19 5 -12 2 6 2 18 0 25 -3 6 -5 1 -5 -13z"/>
<path d="M5102 4210 c0 -14 2 -19 5 -12 2 6 2 18 0 25 -3 6 -5 1 -5 -13z"/>
<path d="M5101 4164 c0 -11 3 -14 6 -6 3 7 2 16 -1 19 -3 4 -6 -2 -5 -13z"/>
<path d="M5103 4065 c0 -44 2 -61 4 -37 2 23 2 59 0 80 -2 20 -4 1 -4 -43z"/>
<path d="M400 4119 c0 -5 5 -7 10 -4 6 3 10 8 10 11 0 2 -4 4 -10 4 -5 0 -10
-5 -10 -11z"/>
<path d="M2774 3825 c0 -143 2 -200 3 -127 2 73 2 190 0 260 -1 70 -3 10 -3
-133z"/>
<path d="M305 4050 c-3 -5 -1 -10 4 -10 6 0 11 5 11 10 0 6 -2 10 -4 10 -3 0
-8 -4 -11 -10z"/>
<path d="M831 3984 c0 -11 3 -14 6 -6 3 7 2 16 -1 19 -3 4 -6 -2 -5 -13z"/>
<path d="M5103 3945 c0 -22 2 -30 4 -17 2 12 2 30 0 40 -3 9 -5 -1 -4 -23z"/>
<path d="M4832 3915 c0 -16 2 -22 5 -12 2 9 2 23 0 30 -3 6 -5 -1 -5 -18z"/>
<path d="M4832 3855 c0 -16 2 -22 5 -12 2 9 2 23 0 30 -3 6 -5 -1 -5 -18z"/>
<path d="M5103 3820 c0 -30 2 -43 4 -27 2 15 2 39 0 55 -2 15 -4 2 -4 -28z"/>
<path d="M401 3794 c0 -11 3 -14 6 -6 3 7 2 16 -1 19 -3 4 -6 -2 -5 -13z"/>
<path d="M346 3783 c-6 -14 -5 -15 5 -6 7 7 10 15 7 18 -3 3 -9 -2 -12 -12z"/>
<path d="M5102 3740 c0 -14 2 -19 5 -12 2 6 2 18 0 25 -3 6 -5 1 -5 -13z"/>
<path d="M4902 3690 c0 -14 2 -19 5 -12 2 6 2 18 0 25 -3 6 -5 1 -5 -13z"/>
<path d="M5101 3654 c0 -11 3 -14 6 -6 3 7 2 16 -1 19 -3 4 -6 -2 -5 -13z"/>
<path d="M2802 3615 c0 -16 2 -22 5 -12 2 9 2 23 0 30 -3 6 -5 -1 -5 -18z"/>
<path d="M5099 3628 c-6 -21 -5 -38 2 -38 5 0 9 9 9 20 0 16 -7 28 -11 18z"/>
<path d="M950 3569 c0 -5 5 -7 10 -4 6 3 10 8 10 11 0 2 -4 4 -10 4 -5 0 -10
-5 -10 -11z"/>
<path d="M988 3573 c6 -2 18 -2 25 0 6 3 1 5 -13 5 -14 0 -19 -2 -12 -5z"/>
<path d="M1032 3575 c8 -9 418 -11 418 -2 0 4 -95 7 -212 7 -116 0 -209 -2
-206 -5z"/>
<path d="M1492 3574 c10 -10 636 -15 642 -5 3 5 -142 9 -322 10 -179 1 -323
-1 -320 -5z"/>
<path d="M2150 3568 c0 -5 35 -7 78 -7 78 2 69 6 -26 11 -28 2 -52 0 -52 -4z"/>
<path d="M2993 3573 c9 -2 23 -2 30 0 6 3 -1 5 -18 5 -16 0 -22 -2 -12 -5z"/>
<path d="M3107 3569 c7 -7 15 -10 18 -7 3 3 -2 9 -12 12 -14 6 -15 5 -6 -5z"/>
<path d="M3187 3569 c8 -8 16 -8 30 0 16 9 14 10 -11 11 -22 0 -27 -3 -19 -11z"/>
<path d="M3275 3570 c-3 -5 1 -10 9 -10 9 0 16 5 16 10 0 6 -4 10 -9 10 -6 0
-13 -4 -16 -10z"/>
<path d="M3320 3569 c0 -5 5 -7 10 -4 6 3 10 8 10 11 0 2 -4 4 -10 4 -5 0 -10
-5 -10 -11z"/>
<path d="M3750 3566 c4 -4 16 -4 26 2 16 9 14 10 -8 9 -15 -1 -23 -6 -18 -11z"/>
<path d="M3811 3570 c-7 -4 1 -7 18 -8 17 0 31 1 31 3 0 7 -39 12 -49 5z"/>
<path d="M4122 3573 c-13 -5 -7 -23 9 -23 6 0 8 4 4 9 -3 5 3 12 12 14 12 3
13 5 3 5 -8 0 -21 -2 -28 -5z"/>
<path d="M4223 3573 c9 -2 25 -2 35 0 9 3 1 5 -18 5 -19 0 -27 -2 -17 -5z"/>
<path d="M2306 3555 c-4 -10 1 -15 14 -15 13 0 18 5 14 15 -4 8 -10 15 -14 15
-4 0 -10 -7 -14 -15z"/>
<path d="M2436 3562 c-2 -4 -1 -14 4 -22 7 -11 9 -9 7 8 -1 24 -3 26 -11 14z"/>
<path d="M3608 3563 c7 -3 16 -2 19 1 4 3 -2 6 -13 5 -11 0 -14 -3 -6 -6z"/>
<path d="M3648 3563 c7 -3 16 -2 19 1 4 3 -2 6 -13 5 -11 0 -14 -3 -6 -6z"/>
<path d="M3693 3563 c9 -2 23 -2 30 0 6 3 -1 5 -18 5 -16 0 -22 -2 -12 -5z"/>
<path d="M4415 3560 c3 -5 8 -10 11 -10 2 0 4 5 4 10 0 6 -5 10 -11 10 -5 0
-7 -4 -4 -10z"/>
<path d="M860 3549 c0 -5 5 -7 10 -4 6 3 10 8 10 11 0 2 -4 4 -10 4 -5 0 -10
-5 -10 -11z"/>
<path d="M2770 3548 c0 -4 9 -8 20 -8 11 0 20 4 20 9 0 6 -9 9 -20 8 -11 -1
-20 -5 -20 -9z"/>
<path d="M2880 3552 c-54 -5 -55 -17 -2 -14 68 4 80 7 57 12 -11 3 -36 4 -55
2z"/>
<path d="M4208 3547 c20 -6 36 -6 42 -1 5 5 -8 10 -33 10 l-42 2 33 -11z"/>
<path d="M4315 3550 c3 -5 10 -10 16 -10 5 0 9 5 9 10 0 6 -7 10 -16 10 -8 0
-12 -4 -9 -10z"/>
<path d="M1478 3543 c7 -3 16 -2 19 1 4 3 -2 6 -13 5 -11 0 -14 -3 -6 -6z"/>
<path d="M1528 3543 c12 -2 30 -2 40 0 9 3 -1 5 -23 4 -22 0 -30 -2 -17 -4z"/>
<path d="M1598 3543 c6 -2 18 -2 25 0 6 3 1 5 -13 5 -14 0 -19 -2 -12 -5z"/>
<path d="M1663 3543 c15 -2 39 -2 55 0 15 2 2 4 -28 4 -30 0 -43 -2 -27 -4z"/>
<path d="M1768 3543 c12 -2 30 -2 40 0 9 3 -1 5 -23 4 -22 0 -30 -2 -17 -4z"/>
<path d="M1848 3543 c12 -2 30 -2 40 0 9 3 -1 5 -23 4 -22 0 -30 -2 -17 -4z"/>
<path d="M1918 3543 c7 -3 16 -2 19 1 4 3 -2 6 -13 5 -11 0 -14 -3 -6 -6z"/>
<path d="M1958 3543 c7 -3 16 -2 19 1 4 3 -2 6 -13 5 -11 0 -14 -3 -6 -6z"/>
<path d="M2048 3543 c34 -2 88 -2 120 0 31 2 3 3 -63 3 -66 0 -92 -1 -57 -3z"/>
<path d="M2248 3543 c6 -2 18 -2 25 0 6 3 1 5 -13 5 -14 0 -19 -2 -12 -5z"/>
<path d="M2405 3540 c-3 -5 -1 -10 4 -10 6 0 11 5 11 10 0 6 -2 10 -4 10 -3 0
-8 -4 -11 -10z"/>
<path d="M3048 3543 c12 -2 30 -2 40 0 9 3 -1 5 -23 4 -22 0 -30 -2 -17 -4z"/>
<path d="M3118 3543 c7 -3 16 -2 19 1 4 3 -2 6 -13 5 -11 0 -14 -3 -6 -6z"/>
<path d="M3213 3543 c9 -2 23 -2 30 0 6 3 -1 5 -18 5 -16 0 -22 -2 -12 -5z"/>
<path d="M3303 3543 c26 -2 67 -2 90 0 23 2 2 3 -48 3 -49 0 -68 -1 -42 -3z"/>
<path d="M3478 3543 c7 -3 16 -2 19 1 4 3 -2 6 -13 5 -11 0 -14 -3 -6 -6z"/>
<path d="M3518 3543 c7 -3 16 -2 19 1 4 3 -2 6 -13 5 -11 0 -14 -3 -6 -6z"/>
<path d="M3563 3543 c9 -2 25 -2 35 0 9 3 1 5 -18 5 -19 0 -27 -2 -17 -5z"/>
<path d="M3628 3543 c7 -3 16 -2 19 1 4 3 -2 6 -13 5 -11 0 -14 -3 -6 -6z"/>
<path d="M3718 3543 c7 -3 16 -2 19 1 4 3 -2 6 -13 5 -11 0 -14 -3 -6 -6z"/>
<path d="M3778 3543 c12 -2 32 -2 45 0 12 2 2 4 -23 4 -25 0 -35 -2 -22 -4z"/>
<path d="M4008 3543 c7 -3 16 -2 19 1 4 3 -2 6 -13 5 -11 0 -14 -3 -6 -6z"/>
<path d="M7 3513 c-3 -5 16 -7 41 -5 73 5 82 10 20 11 -31 0 -59 -2 -61 -6z"/>
<path d="M173 3513 c9 -2 25 -2 35 0 9 3 1 5 -18 5 -19 0 -27 -2 -17 -5z"/>
<path d="M238 3513 c6 -2 18 -2 25 0 6 3 1 5 -13 5 -14 0 -19 -2 -12 -5z"/>
<path d="M378 3513 c12 -2 30 -2 40 0 9 3 -1 5 -23 4 -22 0 -30 -2 -17 -4z"/>
<path d="M820 3500 c0 -5 8 -10 18 -10 9 0 377 -1 817 -1 559 0 801 3 803 10
3 8 -239 11 -817 11 -541 0 -821 -3 -821 -10z"/>
<path d="M23 3483 c-13 -2 -23 -8 -23 -13 0 -4 69 -8 153 -7 l152 1 -130 5
c-72 3 -116 9 -100 12 l30 6 -30 0 c-16 0 -40 -2 -52 -4z"/>
<path d="M5038 3483 c7 -3 16 -2 19 1 4 3 -2 6 -13 5 -11 0 -14 -3 -6 -6z"/>
<path d="M5074 3483 c10 -11 36 -12 36 -2 0 5 -10 9 -22 9 -12 0 -18 -3 -14
-7z"/>
<path d="M315 3471 c-4 -7 8 -12 32 -13 21 0 49 -2 63 -3 14 0 39 2 55 6 21 5
9 7 -42 8 -39 0 -78 4 -86 7 -8 3 -18 1 -22 -5z"/>
<path d="M18 3433 c12 -2 30 -2 40 0 9 3 -1 5 -23 4 -22 0 -30 -2 -17 -4z"/>
<path d="M0 3275 c0 -18 171 -19 1744 -16 522 1 957 -1 966 -4 15 -5 17 -29
17 -229 1 -124 4 -229 8 -235 3 -6 2 -11 -4 -11 -6 0 -6 -11 -1 -29 5 -19 4
-33 -3 -40 -8 -8 -8 -11 1 -11 7 0 12 -12 11 -27 -2 -30 11 -206 16 -211 2 -3
-4 527 -8 691 l-3 107 860 -1 c1245 -3 1518 -1 1514 11 -2 7 -392 10 -1183 10
-2258 -2 -3860 1 -3897 6 -29 3 -38 1 -38 -11z"/>
<path d="M8 3238 c-7 -4 43 -8 112 -9 504 -5 590 -5 590 2 0 4 -116 8 -258 9
-141 0 -296 2 -344 4 -48 1 -93 -1 -100 -6z"/>
<path d="M2773 3243 c-55 -20 69 -23 832 -23 l845 0 2 -557 c0 -307 4 -535 8
-508 11 93 17 1018 6 1053 -4 12 -19 22 -39 25 -18 4 -391 6 -830 6 -439 1
-802 2 -805 5 -4 2 -13 1 -19 -1z"/>
<path d="M750 3230 c-14 -4 367 -8 845 -9 564 0 865 3 855 9 -18 12 -1663 11
-1700 0z"/>
<path d="M4920 3230 l-125 -6 164 -2 c90 -1 161 1 157 5 -9 9 -38 9 -196 3z"/>
<path d="M2480 2794 c0 -240 2 -435 5 -432 3 2 8 169 11 369 4 200 7 393 8
428 1 43 -3 66 -11 68 -10 4 -13 -87 -13 -433z"/>
<path d="M775 3199 c-7 -11 -7 -752 0 -938 9 -250 15 -98 15 412 0 296 -2 537
-4 537 -3 0 -8 -5 -11 -11z"/>
<path d="M3168 2953 c7 -3 16 -2 19 1 4 3 -2 6 -13 5 -11 0 -14 -3 -6 -6z"/>
<path d="M1863 2653 c9 -2 23 -2 30 0 6 3 -1 5 -18 5 -16 0 -22 -2 -12 -5z"/>
<path d="M2751 2434 c0 -11 3 -14 6 -6 3 7 2 16 -1 19 -3 4 -6 -2 -5 -13z"/>
<path d="M2751 2354 c0 -11 3 -14 6 -6 3 7 2 16 -1 19 -3 4 -6 -2 -5 -13z"/>
<path d="M2481 2304 c0 -11 3 -14 6 -6 3 7 2 16 -1 19 -3 4 -6 -2 -5 -13z"/>
<path d="M2752 2300 c0 -14 2 -19 5 -12 2 6 2 18 0 25 -3 6 -5 1 -5 -13z"/>
<path d="M2480 2190 c0 -5 5 -10 11 -10 5 0 7 5 4 10 -3 6 -8 10 -11 10 -2 0
-4 -4 -4 -10z"/>
<path d="M2481 2134 c0 -11 3 -14 6 -6 3 7 2 16 -1 19 -3 4 -6 -2 -5 -13z"/>
<path d="M781 2104 c0 -11 3 -14 6 -6 3 7 2 16 -1 19 -3 4 -6 -2 -5 -13z"/>
<path d="M4452 2060 c0 -14 2 -19 5 -12 2 6 2 18 0 25 -3 6 -5 1 -5 -13z"/>
<path d="M791 1994 c0 -11 3 -14 6 -6 3 7 2 16 -1 19 -3 4 -6 -2 -5 -13z"/>
<path d="M718 23 c7 -3 16 -2 19 1 4 3 -2 6 -13 5 -11 0 -14 -3 -6 -6z"/>
</g>
</svg>
