<?xml version="1.0" standalone="no"?>
<!DOCTYPE svg PUBLIC "-//W3C//DTD SVG 20010904//EN"
 "http://www.w3.org/TR/2001/REC-SVG-20010904/DTD/svg10.dtd">
<svg version="1.0" xmlns="http://www.w3.org/2000/svg"
 width="512.000000pt" height="512.000000pt" viewBox="0 0 512.000000 512.000000"
 preserveAspectRatio="xMidYMid meet">
<metadata>
Created by potrace 1.16, written by Peter Selinger 2001-2019
</metadata>
<g transform="translate(0.000000,512.000000) scale(0.100000,-0.100000)"
fill="#000000" stroke="none">
<path d="M2555 5110 c3 -5 -1 -10 -10 -10 -9 0 -55 -38 -103 -83 -48 -46 -96
-89 -107 -95 -19 -11 -19 -11 -1 -12 18 0 65 31 99 65 13 13 16 13 22 -3 3 -9
1 -18 -4 -20 -12 -4 -5 -22 8 -22 12 0 21 39 10 46 -5 3 -9 10 -9 15 0 14 81
99 90 94 16 -10 -8 -86 -34 -108 -14 -12 -26 -28 -26 -34 0 -7 -7 -16 -15 -20
-12 -7 -9 -17 19 -58 18 -28 38 -63 44 -80 l10 -30 1 26 c1 15 8 32 16 39 17
14 21 65 5 55 -5 -3 -10 -15 -10 -25 0 -38 -20 -29 -45 21 l-27 51 28 29 c29
30 56 38 53 17 -3 -25 14 -79 23 -70 5 5 3 47 -5 100 -8 51 -12 91 -11 90 2
-2 37 -37 79 -78 62 -61 72 -76 57 -80 -29 -8 -110 -81 -126 -115 -17 -34 -23
-109 -12 -141 4 -12 27 -32 54 -44 26 -13 55 -27 64 -31 9 -5 36 -11 60 -14
l43 -5 -36 10 c-69 18 -147 58 -165 85 -15 23 -16 34 -6 87 9 49 18 66 44 89
79 68 100 79 121 64 20 -15 22 -25 4 -25 -15 0 -103 -89 -136 -138 -12 -17
-21 -40 -19 -50 3 -12 9 -6 20 20 34 77 141 167 200 168 17 1 12 5 -17 15 -35
12 -57 32 -126 112 -49 56 -147 130 -124 93z"/>
<path d="M2606 4972 c-3 -6 -1 -14 5 -17 15 -10 25 3 12 16 -7 7 -13 7 -17 1z"/>
<path d="M2650 4961 c0 -5 7 -14 15 -21 12 -10 15 -10 15 3 0 8 -7 17 -15 21
-8 3 -15 2 -15 -3z"/>
<path d="M2406 4935 c-4 -11 1 -15 17 -14 12 0 16 3 9 6 -6 2 -10 9 -6 14 3 5
1 9 -4 9 -6 0 -12 -7 -16 -15z"/>
<path d="M2380 4900 c0 -9 39 -25 46 -18 2 3 -7 10 -21 16 -14 6 -25 7 -25 2z"/>
<path d="M2885 4900 c3 -5 10 -10 16 -10 5 0 9 5 9 10 0 6 -7 10 -16 10 -8 0
-12 -4 -9 -10z"/>
<path d="M2303 4879 c133 -38 202 -89 195 -145 -2 -19 0 -34 4 -34 4 0 8 10 8
23 0 18 2 19 10 7 12 -18 3 -50 -19 -68 -9 -7 -43 -26 -76 -42 -67 -33 -65
-39 5 -13 120 44 139 94 68 177 -51 59 -161 116 -223 115 -38 0 -36 -1 28 -20z"/>
<path d="M2445 4870 c3 -5 8 -10 11 -10 2 0 4 5 4 10 0 6 -5 10 -11 10 -5 0
-7 -4 -4 -10z"/>
<path d="M2280 4829 c0 -5 5 -7 10 -4 6 3 10 8 10 11 0 2 -4 4 -10 4 -5 0 -10
-5 -10 -11z"/>
<path d="M2400 4750 c0 -5 5 -10 10 -10 6 0 10 5 10 10 0 6 -4 10 -10 10 -5 0
-10 -4 -10 -10z"/>
<path d="M2390 4665 c0 -15 18 -40 24 -34 3 3 -1 14 -9 25 -8 10 -14 15 -15 9z"/>
<path d="M2515 4603 c-39 -20 -65 -43 -65 -57 0 -6 5 -4 9 4 5 8 30 24 55 35
25 11 46 23 46 28 0 10 -11 8 -45 -10z"/>
<path d="M2605 4586 c10 -14 21 -26 26 -26 5 0 9 -9 9 -20 0 -17 3 -19 19 -8
11 7 17 16 14 21 -3 4 -8 6 -11 3 -3 -3 -11 3 -19 14 -8 11 -23 25 -34 31 -20
10 -20 10 -4 -15z"/>
<path d="M2875 4600 c-3 -6 1 -7 9 -4 18 7 21 14 7 14 -6 0 -13 -4 -16 -10z"/>
<path d="M2338 4583 c7 -3 16 -2 19 1 4 3 -2 6 -13 5 -11 0 -14 -3 -6 -6z"/>
<path d="M2560 4550 c0 -5 5 -10 10 -10 6 0 10 5 10 10 0 6 -4 10 -10 10 -5 0
-10 -4 -10 -10z"/>
<path d="M2530 4525 c-7 -8 -9 -22 -5 -32 6 -15 9 -13 16 11 10 35 7 42 -11
21z"/>
<path d="M2580 4520 c0 -5 7 -10 15 -10 8 0 15 -5 15 -11 0 -5 5 -7 11 -4 6 5
4 12 -8 21 -22 16 -33 18 -33 4z"/>
<path d="M2468 4513 c7 -3 16 -2 19 1 4 3 -2 6 -13 5 -11 0 -14 -3 -6 -6z"/>
<path d="M586 4168 c-5 -145 -4 -704 3 -3076 1 -126 4 -191 11 -187 13 8 14
3435 1 3435 -4 0 -11 -78 -15 -172z"/>
<path d="M516 4245 c-22 -41 -111 -103 -139 -96 -4 0 -17 -8 -29 -19 -12 -11
-18 -20 -14 -20 4 0 -5 -11 -19 -24 -14 -13 -22 -27 -17 -30 5 -3 19 8 31 24
12 17 28 30 36 30 7 0 26 11 42 24 15 13 38 26 50 30 29 9 83 72 83 96 0 27
-3 25 -24 -15z"/>
<path d="M405 4259 c-11 -16 -1 -19 13 -3 7 8 8 14 3 14 -5 0 -13 -5 -16 -11z"/>
<path d="M4515 4107 c-7 -156 0 -3118 7 -3224 14 -207 18 147 18 1655 0 1000
-4 1723 -9 1726 -5 3 -12 -66 -16 -157z"/>
<path d="M325 4190 c3 -5 10 -10 16 -10 5 0 9 5 9 10 0 6 -7 10 -16 10 -8 0
-12 -4 -9 -10z"/>
<path d="M237 4058 c-15 -301 -5 -2879 11 -2863 3 2 4 41 3 86 -2 64 1 79 11
73 10 -6 10 -4 3 7 -7 9 -9 117 -5 317 3 166 2 302 -2 302 -5 0 -7 21 -6 48
l1 47 7 -45 c3 -25 5 20 4 100 -1 80 -3 147 -3 150 -1 3 -2 370 -3 815 -1 446
-4 783 -8 750 -6 -45 -7 -34 -4 40 6 165 7 285 2 291 -3 2 -8 -51 -11 -118z
m10 -1840 c-3 -7 -5 -2 -5 12 0 14 2 19 5 13 2 -7 2 -19 0 -25z m0 -95 c-2
-16 -4 -3 -4 27 0 30 2 43 4 28 2 -16 2 -40 0 -55z"/>
<path d="M500 4160 c0 -5 5 -10 10 -10 6 0 10 5 10 10 0 6 -4 10 -10 10 -5 0
-10 -4 -10 -10z"/>
<path d="M4879 4119 c-1 -19 -3 -45 -5 -59 -8 -70 -3 -3045 6 -3054 6 -6 10
85 12 260 5 431 -1 2876 -7 2882 -3 3 -6 -10 -6 -29z"/>
<path d="M487 4133 c-4 -3 -7 -16 -7 -27 1 -21 1 -21 15 -2 8 11 15 23 15 28
0 10 -14 11 -23 1z"/>
<path d="M2365 4111 c-155 -33 -318 -100 -441 -183 -62 -42 -227 -183 -271
-232 -64 -72 -115 -145 -107 -157 4 -8 3 -9 -4 -5 -12 7 -37 -29 -92 -131 -30
-55 -60 -82 -60 -53 0 6 -4 10 -10 10 -16 0 -12 -38 5 -48 14 -7 14 -14 -5
-56 -140 -327 -166 -679 -75 -1010 19 -69 55 -174 81 -233 51 -117 51 -119 59
-111 3 3 -13 48 -36 99 -51 117 -96 251 -116 349 -23 119 -28 375 -9 504 9 60
19 112 21 116 2 4 7 20 9 37 3 17 26 88 51 159 25 71 47 136 49 144 2 10 13
14 29 12 28 -3 44 12 26 24 -6 3 -15 0 -20 -7 -26 -42 0 33 29 80 1 2 5 2 8
-1 3 -4 0 -16 -6 -28 -17 -31 -6 -35 14 -5 13 20 14 28 4 45 -10 16 -10 22 0
32 11 11 12 9 7 -7 -6 -16 -5 -17 4 -5 7 8 16 24 22 35 10 20 10 20 -5 1 -9
-11 -16 -16 -16 -10 1 13 30 49 38 46 4 -1 8 7 8 18 2 26 6 31 23 21 10 -7 7
-18 -15 -52 -40 -62 -54 -89 -46 -89 7 0 111 152 124 180 9 20 130 155 139
155 10 0 24 15 24 26 0 5 3 8 7 7 4 -2 22 11 40 28 18 17 51 41 73 54 69 40
148 80 160 80 11 0 156 59 209 86 16 8 33 14 39 14 5 0 23 6 40 14 28 12 152
36 188 36 6 0 9 -8 6 -20 -5 -18 0 -20 46 -21 56 0 76 -3 148 -17 25 -5 54 -7
65 -6 11 2 51 -12 89 -31 38 -19 71 -33 73 -30 8 8 -19 35 -35 35 -7 0 -32 10
-55 21 -23 12 -60 23 -82 25 -23 3 -53 6 -68 8 -16 2 -35 4 -43 5 -21 2 -19
21 3 22 11 0 12 2 4 6 -7 3 -21 -2 -31 -11 -14 -12 -26 -14 -62 -7 l-44 9 45
2 c43 2 42 3 -20 11 -107 15 -241 -14 -390 -83 -65 -30 -116 -50 -127 -50 -19
1 -188 -96 -223 -128 -22 -19 -45 -36 -52 -38 -18 -3 -100 -94 -160 -174 -27
-38 -51 -68 -53 -68 -1 0 -2 11 -2 25 0 16 5 25 15 25 8 0 13 3 9 6 -10 10
111 139 198 211 98 81 255 171 275 158 6 -3 10 -1 10 4 0 6 8 11 18 11 9 0 24
5 32 11 12 8 9 9 -10 4 -51 -12 12 18 75 36 33 10 92 27 130 39 130 40 390 36
432 -6 17 -16 37 -19 27 -3 -4 8 1 9 17 4 13 -4 25 -11 27 -16 2 -4 10 -5 17
-2 8 3 22 -3 31 -12 9 -9 25 -14 35 -12 10 3 23 -1 30 -9 6 -8 18 -14 26 -14
8 0 54 -21 101 -46 48 -26 97 -52 110 -58 12 -6 20 -16 18 -23 -3 -7 1 -10 10
-6 7 3 14 9 14 14 0 11 -190 117 -265 148 -184 75 -429 100 -610 62z"/>
<path d="M4598 4103 c7 -3 16 -2 19 1 4 3 -2 6 -13 5 -11 0 -14 -3 -6 -6z"/>
<path d="M4642 4060 c4 -25 0 -32 -23 -42 -16 -7 -25 -17 -22 -26 4 -10 11 -8
28 8 15 14 28 18 41 14 18 -7 18 -7 2 12 -13 15 -15 23 -7 31 12 12 4 33 -13
33 -6 0 -8 -13 -6 -30z"/>
<path d="M4805 4079 c-4 -6 -5 -12 -2 -15 2 -3 7 2 10 11 7 17 1 20 -8 4z"/>
<path d="M2433 4067 c-45 -13 -74 -33 -33 -24 14 3 48 9 75 13 28 3 57 10 65
15 22 13 -57 9 -107 -4z"/>
<path d="M440 4064 c0 -3 5 -14 10 -24 8 -15 6 -23 -10 -38 -23 -22 -60 -19
-100 7 -17 11 -22 12 -16 3 5 -8 29 -22 54 -33 l45 -20 24 22 c12 13 23 34 23
47 0 21 2 23 15 12 20 -17 32 -5 15 15 -12 14 -60 22 -60 9z"/>
<path d="M293 4019 c-1 -12 -1 -20 0 -18 2 2 9 12 16 22 11 14 11 17 -1 17 -7
0 -14 -10 -15 -21z"/>
<path d="M2180 4030 c-9 -6 -10 -10 -3 -10 6 0 15 5 18 10 8 12 4 12 -15 0z"/>
<path d="M2530 4030 c-20 -12 -10 -19 14 -10 11 3 15 9 10 13 -6 3 -16 2 -24
-3z"/>
<path d="M2328 4023 c7 -3 16 -2 19 1 4 3 -2 6 -13 5 -11 0 -14 -3 -6 -6z"/>
<path d="M507 3999 c-10 -11 -16 -23 -13 -27 7 -6 46 27 46 40 0 14 -15 9 -33
-13z"/>
<path d="M2785 3991 c98 -27 210 -68 279 -103 32 -16 60 -27 63 -24 15 15
-285 130 -367 141 -35 4 -30 1 25 -14z"/>
<path d="M4694 3999 c-3 -6 -16 -8 -28 -5 -21 5 -21 5 -1 -10 12 -9 21 -11 23
-4 2 5 10 10 17 10 8 0 17 5 20 10 3 6 -1 10 -9 10 -8 0 -18 -5 -22 -11z"/>
<path d="M1138 3993 c7 -3 16 -2 19 1 4 3 -2 6 -13 5 -11 0 -14 -3 -6 -6z"/>
<path d="M2371 3974 c-183 -40 -330 -161 -420 -346 -50 -101 -92 -236 -90
-287 1 -14 7 0 14 32 7 32 19 72 28 90 8 18 25 57 38 87 58 136 146 247 260
329 62 44 204 91 274 91 30 0 55 5 55 10 0 14 -82 11 -159 -6z"/>
<path d="M2573 3980 c-13 -5 -23 -14 -23 -19 0 -16 38 -23 59 -12 33 18 108
14 120 -6 9 -16 12 -16 20 -3 9 12 11 12 17 -3 4 -12 13 -16 26 -11 12 4 18 2
14 -4 -3 -5 5 -9 19 -9 15 0 56 -24 102 -59 98 -75 117 -86 74 -43 -18 19 -35
33 -37 32 -2 -1 -18 12 -36 29 -46 43 -156 92 -233 103 -87 13 -101 13 -122 5z"/>
<path d="M4817 3977 c-3 -9 -30 -30 -59 -46 -52 -30 -118 -81 -104 -81 12 0
145 83 162 101 9 10 14 24 12 30 -3 9 -6 8 -11 -4z"/>
<path d="M455 3970 c-3 -5 1 -10 9 -10 9 0 16 5 16 10 0 6 -4 10 -9 10 -6 0
-13 -4 -16 -10z"/>
<path d="M3000 3969 c0 -5 9 -13 20 -19 15 -8 20 -8 20 2 1 8 7 5 15 -6 8 -11
15 -15 15 -9 0 15 -33 40 -52 40 -10 0 -18 -4 -18 -8z"/>
<path d="M2167 3949 c-9 -6 -26 -12 -37 -14 -33 -6 -119 -45 -170 -77 -204
-127 -365 -313 -496 -575 -47 -93 -70 -130 -80 -126 -8 3 -14 1 -14 -5 0 -6 4
-12 9 -14 5 -1 -2 -52 -15 -113 -32 -143 -32 -145 -50 -138 -18 7 -18 -6 0
-21 9 -7 11 -18 6 -31 -8 -19 -9 -19 -9 -1 -1 21 -14 14 -17 -9 -1 -8 4 -15
12 -15 8 0 14 -4 14 -10 0 -5 -7 -10 -15 -10 -8 0 -15 -7 -15 -15 0 -8 5 -15
10 -15 6 0 10 -4 10 -10 0 -5 -7 -10 -16 -10 -8 0 -12 -5 -9 -10 4 -6 10 -8
14 -6 4 3 8 -4 8 -15 1 -11 -2 -17 -8 -14 -5 4 -9 1 -9 -4 0 -6 4 -11 9 -11 5
0 11 -43 13 -95 2 -52 1 -95 -2 -95 -4 0 -11 5 -18 12 -9 9 -12 9 -12 -1 0 -7
9 -15 19 -18 12 -3 23 -19 29 -41 59 -219 118 -386 132 -377 4 2 22 -28 39
-67 21 -44 51 -89 82 -120 27 -27 46 -54 43 -60 -4 -7 -2 -8 4 -4 7 4 12 2 12
-4 0 -6 4 -9 9 -5 5 3 19 -9 31 -26 14 -18 28 -28 37 -25 8 3 12 2 8 -3 -3 -5
7 -19 22 -30 23 -17 25 -22 13 -30 -12 -9 -12 -15 3 -46 l17 -37 -32 8 c-18 4
-43 8 -55 10 -65 7 -152 39 -140 50 3 3 18 -1 34 -9 40 -20 96 -30 87 -15 -4
7 -3 8 5 4 22 -14 71 -25 71 -16 0 5 -12 10 -27 12 -22 2 -30 11 -42 48 -15
42 -51 104 -51 87 0 -5 7 -21 15 -37 9 -18 11 -30 5 -30 -6 0 -15 11 -20 25
-5 14 -14 25 -20 25 -6 0 -8 5 -4 12 4 7 3 8 -4 4 -8 -5 -8 -14 1 -34 6 -15
14 -29 17 -32 3 -3 13 -17 23 -33 17 -26 17 -27 -2 -27 -11 0 -27 7 -35 16 -9
8 -16 13 -16 9 0 -3 -9 -1 -20 5 -11 6 -17 16 -14 25 4 8 1 15 -4 15 -6 0 -13
-8 -15 -17 -4 -17 -5 -17 -6 0 -1 18 -21 24 -21 6 0 -37 56 -89 96 -89 32 0
166 -45 185 -63 11 -11 27 -16 36 -13 14 6 14 8 -3 21 -18 14 -18 14 9 15 15
0 27 4 27 10 0 5 -10 8 -22 6 -22 -3 -48 14 -48 32 0 5 -7 15 -15 22 -12 10
-13 16 -5 24 8 8 18 4 34 -16 24 -30 36 -35 36 -15 0 7 -20 28 -45 47 -25 18
-43 35 -41 38 3 2 32 -17 65 -42 84 -65 167 -110 250 -137 39 -12 83 -32 97
-45 14 -13 29 -24 35 -24 5 0 29 -19 53 -43 25 -23 53 -48 63 -54 30 -20 119
-63 131 -63 7 0 12 -4 12 -10 0 -5 -7 -10 -15 -10 -8 0 -15 -6 -15 -14 0 -7
-6 -19 -14 -25 -8 -6 -16 -23 -19 -36 -3 -19 0 -25 14 -25 30 0 26 -70 -5 -99
-19 -18 -24 -19 -29 -7 -3 8 -1 17 6 19 9 3 8 11 -3 32 -21 39 -19 128 3 149
18 18 23 31 9 22 -5 -3 -25 6 -45 20 -20 14 -37 22 -37 19 0 -9 25 -50 35 -57
12 -9 -14 -30 -27 -22 -4 3 -8 -5 -7 -18 0 -13 3 -17 6 -10 2 6 11 12 19 12
11 0 11 -5 3 -24 -9 -20 -7 -31 11 -65 19 -33 21 -45 12 -63 -10 -23 -11 -23
-11 -2 -1 33 -29 79 -47 79 -10 0 -19 6 -22 14 -3 10 0 12 12 8 18 -7 22 8 5
19 -7 4 -8 19 -5 37 4 20 3 28 -3 22 -5 -6 -11 -21 -13 -35 -2 -19 -9 -25 -25
-24 -13 0 -23 -3 -23 -7 0 -3 10 -13 23 -22 32 -21 91 -76 86 -80 -2 -2 -17
-8 -32 -15 -53 -23 -19 -46 39 -27 17 5 25 1 37 -24 9 -19 11 -30 4 -28 -15 3
-21 -33 -9 -45 7 -7 15 -6 26 4 8 9 12 19 8 23 -4 4 7 0 23 -9 17 -8 37 -17
46 -20 21 -6 59 -85 66 -136 7 -51 23 -63 23 -17 0 19 11 60 25 91 30 69 76
98 121 77 15 -7 31 -8 36 -3 11 11 -2 72 -16 72 -6 0 -3 5 7 11 19 11 23 35 6
41 -8 3 -7 8 2 18 28 30 63 126 49 135 -4 3 -11 -1 -13 -7 -4 -10 -6 -10 -6 0
-2 25 -1 27 11 27 6 0 15 14 20 32 5 18 13 35 18 38 14 9 12 -39 -2 -53 -7 -7
-8 -12 -2 -12 5 0 15 5 21 11 9 9 16 7 29 -6 18 -18 17 -19 -26 -45 -9 -4 -26
-28 -38 -52 -12 -24 -30 -53 -39 -66 -24 -34 -1 -26 36 12 21 21 30 39 26 47
-5 8 -4 10 3 5 7 -4 24 4 39 18 15 15 33 26 40 26 23 0 43 -12 36 -23 -4 -6 0
-8 10 -4 10 3 17 2 17 -3 0 -10 -21 -14 -47 -11 -7 1 -13 -3 -13 -9 0 -5 9
-10 19 -10 11 0 27 -3 37 -7 14 -5 16 -1 12 26 -3 17 -1 34 3 37 5 2 6 11 2
19 -16 42 81 110 146 103 20 -3 44 -8 54 -12 12 -6 17 -4 17 8 0 26 -28 31
-99 17 -36 -7 -75 -12 -85 -12 -11 0 -26 -9 -33 -19 -8 -11 -18 -20 -24 -20
-18 0 -9 22 21 47 17 13 30 30 29 36 0 7 -7 2 -16 -11 -8 -12 -24 -22 -34 -22
-12 0 -21 -10 -25 -26 -10 -41 9 -49 45 -18 41 34 50 26 11 -11 -17 -16 -30
-39 -30 -52 l0 -23 -20 20 c-19 19 -22 19 -36 5 -21 -20 -27 -19 -15 4 6 10
18 22 27 25 9 4 14 9 11 13 -4 3 -14 0 -22 -7 -14 -11 -17 -10 -21 8 -4 12
-11 19 -20 15 -9 -3 -14 2 -14 16 0 15 7 21 23 22 16 1 18 2 5 6 -21 5 -22 12
-7 50 21 57 98 112 214 152 73 26 72 26 50 1 -10 -11 -22 -20 -27 -20 -4 0
-17 -9 -29 -21 -14 -14 -27 -18 -42 -13 -12 3 -19 3 -15 -1 4 -4 -12 -17 -34
-29 -23 -11 -50 -33 -61 -47 -21 -29 -34 -119 -17 -119 5 0 10 14 10 30 0 32
24 100 35 100 6 0 1 -22 -13 -59 -3 -9 0 -12 9 -9 8 3 15 10 15 16 1 7 2 16 3
21 3 19 72 83 85 78 8 -3 22 3 32 14 24 26 29 17 8 -15 -12 -19 -22 -25 -35
-21 -13 4 -19 1 -19 -9 0 -8 -8 -19 -17 -25 -10 -5 -15 -13 -10 -17 4 -4 15 0
25 9 10 10 23 17 29 17 15 0 48 40 79 99 16 29 35 56 44 59 8 3 23 12 33 20 9
8 20 12 23 9 10 -10 -16 -37 -35 -37 -13 0 -14 -2 -1 -9 8 -6 19 -7 25 -3 5 4
19 7 29 7 10 0 20 7 21 16 5 33 17 59 26 59 6 0 7 -5 4 -10 -3 -6 -1 -10 4
-10 6 0 11 7 11 16 0 17 64 82 129 132 l35 27 -41 -60 c-46 -68 -59 -105 -37
-105 8 0 14 -4 14 -8 0 -5 -13 -7 -30 -4 -20 3 -30 0 -30 -8 0 -10 -3 -10 -15
0 -12 10 -15 10 -15 -3 0 -9 -7 -14 -17 -12 -10 1 -12 0 -6 -2 21 -7 -4 -41
-35 -48 -36 -7 -40 -45 -4 -45 13 0 21 4 18 9 -9 14 100 61 146 62 69 2 84 10
139 78 36 45 48 66 40 74 -8 8 -11 8 -11 -1 0 -6 -21 -32 -46 -57 -37 -35 -54
-45 -80 -45 -19 0 -34 5 -34 10 0 6 6 10 13 10 7 0 17 8 24 18 6 11 27 27 47
36 20 9 34 21 31 27 -3 5 -2 17 4 26 7 13 5 21 -7 30 -15 11 -15 12 4 13 26 0
76 25 68 33 -3 3 -27 -4 -54 -15 -49 -20 -56 -29 -90 -115 -11 -30 -44 -52
-57 -39 -4 3 1 6 10 6 11 0 17 8 17 23 0 13 3 27 8 31 4 4 7 11 7 14 1 16 77
163 82 158 3 -3 0 -12 -7 -21 -7 -9 -10 -18 -7 -21 12 -13 138 217 172 315 49
141 67 246 70 416 3 134 -1 179 -20 280 -45 234 -111 401 -228 575 -79 117
-166 220 -199 233 -10 4 -10 8 2 16 8 6 11 11 5 12 -5 1 -14 2 -20 3 -5 1 -29
19 -52 40 -38 36 -41 41 -25 52 16 12 16 13 0 14 -9 0 -18 -5 -20 -11 -3 -8
-19 -4 -47 10 -24 13 -45 20 -48 18 -2 -3 21 -18 51 -33 31 -16 56 -34 56 -40
0 -7 11 -15 25 -18 14 -4 23 -10 20 -15 -2 -5 12 -24 33 -43 101 -92 207 -235
294 -398 117 -218 182 -574 149 -822 -24 -174 -72 -339 -115 -393 -9 -11 -46
-65 -82 -120 -84 -128 -91 -135 -204 -209 -132 -87 -192 -119 -312 -166 -120
-47 -150 -66 -238 -149 -36 -33 -89 -71 -117 -83 -55 -24 -67 -38 -33 -38 39
0 118 50 161 100 23 27 47 50 52 50 6 0 2 -9 -8 -20 -10 -11 -18 -34 -18 -50
0 -21 -4 -27 -12 -20 -8 7 -18 0 -34 -20 -12 -17 -28 -30 -36 -30 -8 0 -15 -4
-15 -10 0 -5 -7 -10 -15 -10 -8 0 -15 -4 -15 -10 0 -5 6 -10 14 -10 9 0 14
-18 15 -65 1 -36 -2 -65 -7 -65 -5 0 -9 -7 -10 -15 -1 -8 -3 -22 -4 -30 -1 -8
-5 -15 -10 -15 -4 0 -8 -9 -8 -19 0 -22 -28 -35 -56 -25 -16 6 -17 5 -6 -7 7
-8 27 -12 47 -10 29 2 35 -1 34 -16 0 -10 -3 -13 -5 -8 -5 13 -74 7 -74 -6 0
-5 -6 -9 -14 -9 -7 0 -19 -7 -26 -15 -10 -12 -26 -15 -64 -11 -28 3 -54 5 -58
5 -5 1 -8 10 -8 22 0 14 10 24 30 32 17 6 30 18 29 27 0 19 -87 83 -101 74 -7
-4 -7 0 1 13 6 11 7 23 3 27 -3 4 0 11 8 17 13 8 13 10 0 19 -13 8 -12 10 4
10 15 0 16 3 6 15 -17 20 -27 19 -33 -5 -3 -11 -10 -20 -16 -20 -19 0 -12 15
24 57 44 51 44 69 3 78 -54 12 -120 51 -163 95 -68 71 -128 108 -246 153 -83
31 -146 64 -234 122 -146 98 -225 176 -288 286 -27 46 -57 98 -68 115 -27 44
-85 283 -97 399 -15 152 -6 325 22 456 27 127 29 132 80 242 20 42 36 81 36
87 0 5 8 14 18 19 9 6 14 11 10 11 -13 0 102 185 152 244 133 158 302 285 443
332 59 20 108 44 87 44 -8 0 -23 -5 -33 -11z m1385 -2169 c-2 -16 -8 -30 -13
-30 -10 0 -11 7 -3 38 9 33 21 27 16 -8z m-174 -35 c-18 -18 -113 -85 -121
-85 -5 0 -32 -11 -59 -25 -78 -39 -66 -24 15 20 40 21 92 51 116 67 42 26 62
35 49 23z m155 -106 c-7 -7 -42 -14 -80 -16 -37 -3 -76 -10 -86 -15 -10 -5
-21 -7 -24 -5 -11 12 44 30 111 37 39 4 75 8 81 9 5 0 4 -4 -2 -10z m-743
-319 c0 -5 -4 -10 -10 -10 -5 0 -10 5 -10 10 0 6 5 10 10 10 6 0 10 -4 10 -10z
m-315 -220 c20 -16 41 -27 46 -24 5 3 9 0 9 -6 0 -7 -13 -17 -30 -23 -16 -6
-30 -17 -30 -24 0 -7 -4 -13 -10 -13 -13 0 -13 3 2 35 9 19 9 28 0 37 -9 9
-12 6 -12 -14 0 -15 -7 -29 -16 -32 -9 -4 -17 -5 -18 -4 -1 2 -6 12 -12 23
-16 29 -7 50 14 33 10 -8 13 -8 9 -1 -6 9 0 43 8 43 1 0 19 -13 40 -30z m70
-130 c4 -6 13 -9 20 -8 14 3 15 1 15 -29 -1 -16 -2 -16 -13 -2 -7 8 -20 18
-29 22 -10 3 -18 11 -18 17 0 13 17 13 25 0z m25 -80 c0 -5 -2 -10 -4 -10 -3
0 -8 5 -11 10 -3 6 -1 10 4 10 6 0 11 -4 11 -10z"/>
<path d="M2440 3956 c0 -2 8 -10 18 -17 15 -13 16 -12 3 4 -13 16 -21 21 -21
13z"/>
<path d="M294 3938 c-7 -12 -13 -9 73 -37 101 -33 123 -49 167 -122 33 -56 37
-60 32 -30 -7 37 -67 125 -94 136 -72 30 -174 60 -178 53z"/>
<path d="M2340 3920 c-54 -18 -74 -28 -137 -66 -54 -32 -37 -34 27 -3 32 15
70 31 85 35 14 3 25 10 25 14 0 4 6 8 13 7 31 -1 48 4 42 12 -3 5 3 12 12 14
13 3 13 5 3 6 -8 0 -40 -8 -70 -19z"/>
<path d="M2623 3920 c-24 -10 -43 -26 -43 -33 0 -19 -25 -28 -39 -14 -14 14
-22 5 -11 -12 11 -20 71 4 63 25 -3 8 0 14 6 14 6 0 11 -4 11 -9 0 -5 9 -7 21
-4 13 4 16 8 10 13 -14 8 85 5 119 -4 15 -4 9 1 -14 13 -21 11 -43 18 -47 15
-5 -3 -9 0 -9 5 0 16 -19 13 -67 -9z"/>
<path d="M3084 3923 c2 -10 6 -17 10 -16 15 3 16 11 2 22 -12 10 -14 9 -12 -6z"/>
<path d="M4609 3852 c-20 -31 -39 -75 -43 -97 l-6 -40 15 37 c18 49 65 128 75
128 4 0 10 7 14 15 3 8 0 15 -7 15 -7 0 -28 -26 -48 -58z"/>
<path d="M4831 3894 c0 -11 3 -14 6 -6 3 7 2 16 -1 19 -3 4 -6 -2 -5 -13z"/>
<path d="M1351 3884 c0 -11 3 -14 6 -6 3 7 2 16 -1 19 -3 4 -6 -2 -5 -13z"/>
<path d="M3250 3885 c0 -8 7 -15 16 -15 14 0 14 3 4 15 -7 8 -14 15 -16 15 -2
0 -4 -7 -4 -15z"/>
<path d="M2661 3874 c-41 -18 -36 -27 7 -14 22 6 49 5 85 -5 28 -7 53 -12 55
-11 4 4 -95 46 -105 45 -4 0 -23 -7 -42 -15z"/>
<path d="M3155 3881 c3 -6 20 -18 37 -27 16 -9 27 -11 23 -5 -3 6 -20 18 -37
27 -16 9 -27 11 -23 5z"/>
<path d="M2333 3854 c-45 -19 -41 -27 5 -10 20 8 46 17 57 19 16 4 15 5 -5 5
-14 0 -40 -6 -57 -14z"/>
<path d="M3290 3863 c0 -5 15 -17 33 -28 28 -17 30 -17 18 -1 -17 21 -51 40
-51 29z"/>
<path d="M2258 3840 c-20 -11 -40 -24 -43 -30 -4 -6 -12 -7 -18 -4 -7 4 -9 4
-5 -1 4 -4 -10 -20 -31 -36 -33 -23 -146 -170 -146 -189 0 -3 -10 -16 -22 -30
-13 -13 -23 -19 -23 -14 0 19 99 170 142 217 58 61 46 61 -14 0 -61 -64 -158
-224 -163 -271 -1 -9 -7 -30 -14 -47 -7 -16 -19 -64 -28 -105 -8 -41 -22 -101
-30 -133 -18 -63 -10 -109 28 -157 25 -33 24 -13 -1 25 -22 33 -26 95 -9 126
6 11 12 44 14 73 8 102 49 195 149 340 42 60 53 67 36 20 -6 -16 -10 -29 -8
-29 1 0 -6 -13 -18 -30 -27 -39 -40 -66 -21 -43 8 10 18 14 22 10 5 -4 5 -2 1
5 -3 6 -2 14 4 18 13 8 40 61 46 88 7 37 72 124 114 153 89 62 103 78 38 44z
m-138 -139 c-5 -11 -15 -23 -21 -27 -6 -3 -3 5 6 20 20 30 30 35 15 7z m-150
-179 c0 -5 -7 -17 -15 -28 -14 -18 -14 -17 -4 9 12 27 19 34 19 19z"/>
<path d="M2665 3840 l-30 -8 36 -1 c19 0 40 -6 46 -12 7 -7 24 -8 45 -4 32 8
32 8 9 17 -16 6 -27 5 -31 -2 -5 -7 -11 -6 -20 5 -7 8 -15 14 -19 14 -3 -1
-19 -5 -36 -9z"/>
<path d="M321 3826 c-8 -9 -7 -18 3 -31 12 -16 16 -17 30 -6 21 17 20 24 -3
38 -15 10 -22 9 -30 -1z m29 -16 c0 -5 -4 -10 -10 -10 -5 0 -10 5 -10 10 0 6
5 10 10 10 6 0 10 -4 10 -10z"/>
<path d="M2348 3834 c-3 -3 -17 -6 -30 -8 -35 -3 -87 -38 -127 -83 -67 -75
-65 -87 5 -25 39 34 75 62 81 62 6 0 16 6 23 14 6 8 19 12 27 9 10 -4 14 -2
10 5 -5 7 12 13 50 17 81 9 87 13 22 14 -31 1 -58 -2 -61 -5z"/>
<path d="M2478 3833 c7 -3 16 -2 19 1 4 3 -2 6 -13 5 -11 0 -14 -3 -6 -6z"/>
<path d="M4638 3822 c-12 -15 -11 -16 5 -3 11 9 17 10 17 2 0 -6 5 -11 10 -11
15 0 12 17 -4 23 -8 3 -20 -2 -28 -11z"/>
<path d="M4720 3829 c0 -5 5 -7 10 -4 6 3 10 8 10 11 0 2 -4 4 -10 4 -5 0 -10
-5 -10 -11z"/>
<path d="M2525 3820 c-2 -3 -2 -19 0 -35 2 -19 -3 -34 -14 -42 -15 -11 -14
-12 3 -19 12 -5 21 -3 24 4 6 20 31 14 80 -20 26 -18 49 -34 51 -35 2 -2 2 -6
-2 -9 -3 -4 -22 4 -41 16 -20 12 -36 19 -36 17 0 -3 24 -20 52 -37 29 -18 47
-25 39 -16 -8 9 -9 16 -3 16 6 0 14 -5 17 -11 4 -5 12 -8 18 -6 7 2 21 -3 32
-12 18 -15 19 -15 6 1 -7 9 -34 29 -59 44 -139 80 -158 100 -118 128 21 15 21
15 -3 9 -15 -4 -22 -2 -18 4 3 5 -1 10 -9 10 -8 0 -17 -3 -19 -7z"/>
<path d="M4770 3820 c0 -5 7 -7 15 -4 8 4 15 1 15 -5 0 -6 5 -11 11 -11 8 0 8
5 -1 15 -14 17 -40 20 -40 5z"/>
<path d="M400 3795 c-5 -14 -17 -28 -25 -31 -8 -4 -15 -10 -15 -16 0 -5 4 -6
10 -3 5 3 19 1 30 -5 22 -12 27 -1 8 18 -9 9 -8 16 5 30 19 21 22 32 7 32 -6
0 -15 -11 -20 -25z"/>
<path d="M1637 3813 c-4 -3 -7 -11 -7 -17 0 -6 5 -5 12 2 6 6 9 14 7 17 -3 3
-9 2 -12 -2z"/>
<path d="M2814 3805 c11 -8 24 -15 30 -15 5 0 1 7 -10 15 -10 8 -23 14 -29 14
-5 0 -1 -6 9 -14z"/>
<path d="M3290 3815 c0 -7 39 -45 45 -45 9 0 -29 49 -37 50 -5 0 -8 -2 -8 -5z"/>
<path d="M2630 3800 l-35 -6 40 -7 c22 -4 53 -18 69 -32 16 -13 38 -27 50 -31
34 -11 126 -75 126 -88 0 -7 11 -23 25 -36 14 -13 25 -29 25 -37 0 -7 5 -13
10 -13 6 0 0 18 -12 41 -24 42 -119 127 -173 154 -41 20 -70 44 -63 51 4 3 15
1 26 -5 12 -6 27 -11 34 -11 7 1 -1 7 -19 15 -33 14 -42 15 -103 5z"/>
<path d="M2765 3800 c3 -5 10 -10 16 -10 5 0 9 5 9 10 0 6 -7 10 -16 10 -8 0
-12 -4 -9 -10z"/>
<path d="M3370 3808 c0 -3 23 -30 51 -59 44 -46 131 -157 177 -225 122 -181
235 -507 251 -726 19 -249 -4 -480 -65 -650 -30 -84 -98 -223 -114 -233 -13
-8 -13 0 0 23 5 9 19 40 31 67 12 28 35 79 50 113 28 61 37 93 22 78 -4 -3 -8
-12 -9 -19 -3 -15 -55 -131 -93 -207 -25 -49 -26 -57 -13 -70 19 -17 29 -4 82
105 104 215 146 453 129 724 -4 69 -15 162 -23 206 -18 91 -95 337 -109 346
-5 4 -3 15 4 27 10 15 10 26 2 44 -11 23 -12 22 -13 -7 -1 -29 -1 -29 -23 15
-79 159 -220 353 -315 434 -12 11 -22 17 -22 14z"/>
<path d="M4770 3790 c0 -5 5 -10 11 -10 5 0 7 5 4 10 -3 6 -8 10 -11 10 -2 0
-4 -4 -4 -10z"/>
<path d="M2860 3786 c0 -2 17 -16 38 -31 l37 -28 -29 31 c-26 28 -46 40 -46
28z"/>
<path d="M4982 3770 c0 -14 2 -19 5 -12 2 6 2 18 0 25 -3 6 -5 1 -5 -13z"/>
<path d="M2277 3749 c-26 -17 -47 -33 -47 -36 0 -3 10 2 23 11 12 9 40 25 62
36 22 11 33 20 24 20 -8 0 -37 -14 -62 -31z"/>
<path d="M4807 3773 c-10 -9 -9 -23 2 -23 5 0 11 7 15 15 5 15 -5 20 -17 8z"/>
<path d="M1546 3748 c-8 -32 -7 -40 3 -34 11 7 21 56 11 56 -4 0 -10 -10 -14
-22z"/>
<path d="M2333 3739 c-23 -16 -46 -30 -50 -29 -5 0 -8 -6 -8 -12 0 -7 -4 -13
-10 -13 -39 -1 -103 -78 -110 -132 -2 -21 -2 -31 1 -23 4 8 23 33 43 55 33 37
34 38 4 11 -18 -17 -33 -25 -33 -19 0 18 82 83 94 76 6 -4 4 2 -4 12 -9 12
-10 16 -2 11 7 -4 25 3 45 20 17 15 47 33 65 41 18 7 30 18 27 23 -9 14 -16
12 -62 -21z"/>
<path d="M2845 3750 c3 -5 11 -10 16 -10 6 0 7 5 4 10 -3 6 -11 10 -16 10 -6
0 -7 -4 -4 -10z"/>
<path d="M3360 3756 c0 -2 8 -10 18 -17 15 -13 16 -12 3 4 -13 16 -21 21 -21
13z"/>
<path d="M303 3743 c-18 -7 -16 -27 5 -46 17 -16 18 -15 18 18 0 36 -1 37 -23
28z"/>
<path d="M4584 3725 c-9 -35 3 -89 24 -108 23 -21 68 -31 76 -18 5 7 -2 11
-18 11 -39 0 -80 60 -73 105 7 40 0 47 -9 10z"/>
<path d="M2678 3733 c7 -3 33 -26 59 -51 25 -26 40 -38 32 -27 -8 11 -23 28
-34 38 l-20 19 20 -7 c18 -5 18 -4 5 9 -8 9 -29 17 -45 19 -17 3 -24 2 -17 0z"/>
<path d="M460 3716 c0 -7 -7 -19 -15 -26 -8 -7 -33 -39 -55 -72 -46 -70 -52
-125 -21 -193 25 -56 47 -75 86 -75 19 0 45 -4 59 -10 l26 -10 -16 -40 c-9
-23 -14 -44 -10 -47 7 -8 36 60 36 86 0 11 -13 29 -30 41 -28 20 -30 20 -30 3
0 -15 -2 -15 -9 -4 -8 12 -12 12 -25 2 -21 -17 -40 -2 -68 53 -32 63 -22 131
29 198 22 29 48 65 58 81 16 24 16 27 1 27 -9 0 -16 -6 -16 -14z"/>
<path d="M3410 3705 c7 -8 17 -15 22 -15 6 0 5 7 -2 15 -7 8 -17 15 -22 15 -6
0 -5 -7 2 -15z"/>
<path d="M4651 3711 c-11 -7 -11 -13 3 -32 9 -13 16 -19 16 -14 1 6 8 -2 16
-17 8 -16 18 -28 23 -28 13 0 51 -95 51 -126 0 -15 -11 -47 -25 -71 -25 -41
-28 -43 -75 -43 -56 0 -80 -18 -79 -58 0 -26 1 -26 9 -5 12 29 40 43 89 43 38
0 42 3 71 53 16 28 30 63 30 77 0 35 -41 119 -79 162 -19 22 -29 42 -25 52 7
18 -3 20 -25 7z"/>
<path d="M2509 3703 c-1 -4 -2 -44 -3 -87 -1 -53 -6 -81 -14 -84 -6 -2 -12 -8
-12 -14 0 -6 9 -3 19 6 11 10 25 15 31 11 9 -6 9 -2 1 13 -7 13 -8 36 -4 59
12 56 10 96 -4 100 -7 3 -14 1 -14 -4z"/>
<path d="M2950 3702 c0 -12 19 -26 26 -19 2 2 -2 10 -11 17 -9 8 -15 8 -15 2z"/>
<path d="M2301 3658 c-23 -22 -41 -46 -41 -52 0 -6 7 -1 15 11 8 12 32 36 52
52 21 17 32 31 26 31 -6 0 -30 -19 -52 -42z"/>
<path d="M2425 3690 c-3 -5 -13 -10 -21 -10 -26 0 -118 -68 -119 -89 -1 -16 2
-18 17 -10 10 5 18 12 18 15 0 3 -6 2 -12 -2 -8 -5 -7 -1 2 10 8 10 38 32 67
48 47 27 73 48 59 48 -3 0 -8 -4 -11 -10z"/>
<path d="M2760 3697 c0 -2 15 -14 33 -27 20 -15 27 -17 18 -6 -13 16 -51 41
-51 33z"/>
<path d="M3070 3694 c1 -13 29 -48 34 -43 2 2 -4 15 -15 28 -10 13 -19 19 -19
15z"/>
<path d="M4791 3682 c-7 -13 -11 -28 -8 -35 2 -7 9 -2 16 11 7 13 11 28 8 35
-2 7 -9 2 -16 -11z"/>
<path d="M2930 3660 c12 -16 24 -30 26 -30 3 0 -4 14 -16 30 -12 17 -24 30
-26 30 -3 0 4 -13 16 -30z"/>
<path d="M3407 3675 c6 -17 34 -28 45 -17 4 4 -5 13 -21 19 -24 8 -28 8 -24
-2z"/>
<path d="M340 3672 c0 -5 7 -13 16 -16 10 -4 14 -1 12 6 -5 15 -28 23 -28 10z"/>
<path d="M1515 3669 c-4 -6 -5 -12 -2 -15 2 -3 7 2 10 11 7 17 1 20 -8 4z"/>
<path d="M2629 3620 c28 -22 54 -40 58 -40 4 0 27 -19 50 -42 53 -52 57 -38 4
19 -21 23 -37 44 -35 46 2 1 -6 4 -18 4 -11 1 -38 13 -59 27 -57 39 -58 31 0
-14z"/>
<path d="M498 3632 c-33 -20 -34 -23 -8 -53 l20 -24 -9 26 c-11 30 -6 40 15
32 9 -3 14 2 14 16 0 12 -1 21 -2 20 -2 0 -15 -8 -30 -17z"/>
<path d="M3457 3644 c-3 -3 3 -14 14 -25 11 -11 17 -24 14 -29 -3 -6 1 -7 10
-4 11 5 14 2 8 -12 -4 -12 -3 -15 5 -10 8 4 16 -3 22 -18 9 -24 30 -37 30 -18
0 18 -94 124 -103 116z"/>
<path d="M4750 3640 c0 -5 5 -10 10 -10 6 0 10 5 10 10 0 6 -4 10 -10 10 -5 0
-10 -4 -10 -10z"/>
<path d="M1173 3633 c9 -2 25 -2 35 0 9 3 1 5 -18 5 -19 0 -27 -2 -17 -5z"/>
<path d="M2380 3630 c-23 -7 -23 -8 -3 -9 12 -1 25 4 28 9 3 6 5 10 3 9 -2 -1
-14 -5 -28 -9z"/>
<path d="M3122 3605 c11 -20 22 -34 24 -32 7 6 -27 67 -36 67 -5 0 0 -16 12
-35z"/>
<path d="M1268 3623 c7 -3 16 -2 19 1 4 3 -2 6 -13 5 -11 0 -14 -3 -6 -6z"/>
<path d="M2752 3580 c24 -28 48 -50 53 -50 6 0 1 7 -9 15 -11 8 -16 15 -10 15
5 0 1 5 -9 11 -9 6 -15 13 -13 17 2 4 -9 15 -25 24 -27 16 -26 13 13 -32z"/>
<path d="M2776 3616 c3 -9 9 -16 13 -16 3 0 19 -11 35 -25 16 -14 32 -25 35
-25 6 0 -38 42 -72 69 -15 12 -17 12 -11 -3z"/>
<path d="M4572 3610 c0 -14 2 -19 5 -12 2 6 2 18 0 25 -3 6 -5 1 -5 -13z"/>
<path d="M2335 3610 c-8 -13 9 -20 24 -11 10 6 9 10 -3 14 -8 3 -18 2 -21 -3z"/>
<path d="M2851 3596 c13 -13 48 -64 77 -112 54 -91 68 -105 31 -31 -30 59
-108 167 -121 167 -6 0 0 -11 13 -24z"/>
<path d="M3030 3613 c0 -4 5 -15 10 -23 8 -13 10 -13 10 2 0 9 -4 20 -10 23
-5 3 -10 3 -10 -2z"/>
<path d="M2591 3590 c6 -14 17 -28 23 -32 6 -4 11 -13 12 -20 2 -25 16 -48 27
-41 5 3 16 -2 24 -12 7 -11 13 -14 13 -8 0 13 -33 56 -78 103 -28 29 -32 31
-21 10z"/>
<path d="M2610 3606 c0 -2 7 -9 15 -16 9 -7 15 -8 15 -2 0 5 -7 12 -15 16 -8
3 -15 4 -15 2z"/>
<path d="M4938 3518 c-5 -328 -2 -1748 4 -1748 5 0 8 414 8 920 0 506 -2 920
-5 920 -3 0 -6 -42 -7 -92z"/>
<path d="M2236 3568 c-12 -18 -14 -19 -9 -4 5 14 3 17 -6 12 -7 -5 -10 -14 -7
-22 3 -7 1 -16 -4 -19 -4 -3 -11 1 -13 7 -3 7 -6 9 -6 3 0 -5 4 -17 9 -25 8
-12 15 -9 39 20 17 19 30 38 31 43 0 15 -18 6 -34 -15z"/>
<path d="M2556 3564 c26 -43 104 -138 104 -127 0 5 -14 28 -31 51 -18 24 -27
47 -23 54 4 7 3 10 -1 5 -5 -4 -22 5 -39 20 l-29 28 19 -31z"/>
<path d="M2993 3518 c18 -40 35 -75 38 -78 3 -3 14 -20 23 -37 9 -18 19 -33
21 -33 6 0 -16 51 -30 70 -7 8 -26 45 -43 83 -42 90 -49 86 -9 -5z"/>
<path d="M2325 3570 c-4 -6 -11 -7 -17 -4 -7 4 -8 2 -4 -4 5 -9 13 -9 29 -1
31 16 33 19 14 19 -9 0 -19 -5 -22 -10z"/>
<path d="M2440 3570 c-8 -5 -12 -12 -9 -15 4 -3 12 1 19 10 14 17 11 19 -10 5z"/>
<path d="M2097 3556 c-4 -9 -3 -15 2 -11 5 3 11 -1 13 -7 3 -8 10 -3 18 12 12
22 12 24 -2 12 -13 -10 -17 -10 -20 0 -3 8 -7 6 -11 -6z"/>
<path d="M2672 3550 c7 -11 18 -22 25 -25 9 -3 8 4 -3 20 -19 29 -40 34 -22 5z"/>
<path d="M4594 3554 c3 -8 2 -12 -4 -9 -6 3 -10 1 -10 -5 0 -14 26 -24 39 -15
7 4 7 12 -2 25 -14 24 -32 27 -23 4z"/>
<path d="M521 3546 c-7 -8 -22 -12 -34 -9 -21 4 -22 4 -3 -11 21 -17 51 -22
41 -7 -3 6 2 14 11 19 10 5 12 12 6 16 -5 3 -15 0 -21 -8z"/>
<path d="M2250 3525 c-19 -19 -28 -35 -21 -35 7 0 9 -5 6 -10 -4 -6 -11 -8
-16 -5 -5 4 -9 -3 -9 -14 0 -26 16 -28 23 -3 3 9 17 36 32 60 14 23 25 42 23
42 -2 0 -19 -16 -38 -35z"/>
<path d="M2344 3538 l-19 -23 23 19 c21 18 27 26 19 26 -2 0 -12 -10 -23 -22z"/>
<path d="M2365 3528 c-69 -57 -131 -127 -126 -143 1 -5 -1 -7 -5 -2 -8 8 -44
-21 -44 -36 0 -5 9 1 21 14 17 20 20 21 15 5 -6 -16 -4 -17 10 -5 9 7 20 24
25 36 5 13 14 22 21 21 7 -2 13 4 13 12 1 8 5 14 11 13 5 -1 28 14 49 33 36
32 33 37 -6 10 -8 -6 5 8 30 31 54 50 43 58 -14 11z"/>
<path d="M3151 3548 c0 -7 9 -31 19 -53 22 -48 26 -23 5 29 -15 36 -26 46 -24
24z"/>
<path d="M415 3513 c-23 -25 -32 -43 -21 -43 6 0 66 60 66 66 0 12 -22 1 -45
-23z"/>
<path d="M2000 3520 c-6 -11 -8 -20 -4 -20 3 0 0 -8 -7 -17 -12 -14 -12 -16 0
-8 11 6 13 3 9 -13 -4 -12 -3 -20 2 -17 12 8 19 44 9 51 -5 3 -5 13 1 25 6 10
8 19 6 19 -3 0 -10 -9 -16 -20z"/>
<path d="M2276 3500 c-14 -22 -24 -40 -22 -40 9 0 59 70 54 75 -3 3 -17 -13
-32 -35z"/>
<path d="M2876 3518 c10 -14 21 -24 23 -22 3 3 -6 15 -18 27 l-24 22 19 -27z"/>
<path d="M2111 3486 c-11 -24 -26 -46 -35 -49 -20 -8 -20 0 -1 20 8 8 13 19
10 24 -4 5 -2 9 3 9 6 0 12 7 15 14 4 10 1 13 -9 9 -13 -5 -18 -16 -16 -35 1
-3 -5 -12 -13 -18 -8 -7 -15 -19 -15 -27 0 -8 -6 -27 -14 -41 -8 -15 -20 -46
-26 -69 -7 -23 -17 -40 -21 -37 -5 3 -9 -12 -9 -32 0 -21 -7 -45 -16 -55 -9
-10 -17 -37 -20 -61 l-3 -43 8 38 c11 50 26 62 17 15 -17 -99 -18 -113 -8 -99
6 8 13 46 17 85 4 38 15 93 25 120 18 52 75 176 66 144 -11 -36 3 -16 35 50
18 37 34 70 36 75 2 4 2 7 -2 7 -3 0 -14 -20 -24 -44z"/>
<path d="M2167 3514 c-3 -4 1 -13 9 -21 19 -20 26 -13 10 9 -7 10 -16 15 -19
12z"/>
<path d="M2419 3488 c-19 -18 -36 -33 -39 -33 -20 -3 -55 -32 -79 -65 -16 -22
-31 -37 -34 -33 -4 3 -10 -3 -14 -13 -3 -10 -19 -35 -34 -54 -35 -45 -99 -167
-99 -188 0 -12 4 -10 13 7 6 14 23 27 37 31 34 9 183 -13 188 -28 2 -7 10 -12
18 -12 8 0 14 -9 14 -20 0 -11 7 -20 15 -20 13 0 14 4 4 23 -23 42 -56 64
-120 77 -35 7 -67 13 -71 12 -5 -1 -8 1 -8 4 0 12 34 64 42 64 4 0 8 7 8 16 0
23 -23 3 -62 -54 -35 -51 -50 -49 -20 2 48 81 192 252 201 239 9 -13 33 -15
26 -3 -8 12 33 62 45 55 4 -2 7 2 7 10 0 20 0 20 -38 -17z"/>
<path d="M2528 3498 c2 -10 -1 -18 -7 -18 -6 0 -11 5 -11 10 0 14 -17 12 -23
-3 -3 -9 4 -12 22 -11 40 2 41 3 41 21 0 15 2 14 15 -3 8 -10 15 -14 15 -8 0
15 -21 31 -41 31 -11 0 -15 -7 -11 -19z"/>
<path d="M3060 3515 c0 -5 5 -17 10 -25 5 -8 10 -10 10 -5 0 6 -5 17 -10 25
-5 8 -10 11 -10 5z"/>
<path d="M4687 3506 c-3 -8 -1 -16 4 -18 6 -2 12 -15 12 -30 2 -30 12 -28 20
2 3 13 0 23 -8 26 -8 3 -11 12 -8 20 3 8 1 14 -5 14 -5 0 -12 -6 -15 -14z"/>
<path d="M290 3489 c-7 -11 -9 -23 -6 -26 3 -3 9 3 13 13 3 10 11 22 17 26 8
5 7 8 -1 8 -7 0 -17 -9 -23 -21z"/>
<path d="M2971 3490 c14 -31 19 -36 19 -24 0 6 -7 19 -16 30 -14 18 -14 18 -3
-6z"/>
<path d="M3562 3485 c6 -14 17 -25 24 -25 7 0 11 -6 9 -12 -5 -15 50 -86 60
-77 8 8 -53 99 -71 106 -7 2 -10 11 -7 19 3 8 -1 14 -11 14 -13 0 -14 -4 -4
-25z"/>
<path d="M2795 3466 c10 -14 19 -26 22 -26 7 0 -17 39 -28 46 -6 3 -3 -5 6
-20z"/>
<path d="M2840 3460 c11 -16 26 -33 32 -36 7 -4 -1 9 -16 29 -34 44 -46 50
-16 7z"/>
<path d="M2163 3448 c-20 -43 -83 -204 -83 -212 0 -5 -11 -23 -24 -41 -14 -18
-27 -53 -31 -81 -4 -27 -9 -57 -12 -66 -2 -10 0 -18 6 -18 6 0 11 14 11 31 0
46 20 115 40 136 9 11 27 45 39 76 11 32 29 75 40 95 10 20 16 43 13 51 -2 8
-1 11 4 8 5 -3 10 6 10 19 2 30 0 30 -13 2z"/>
<path d="M2565 3460 c3 -5 8 -10 11 -10 2 0 4 5 4 10 0 6 -5 10 -11 10 -5 0
-7 -4 -4 -10z"/>
<path d="M1960 3428 c-32 -85 -59 -172 -55 -176 5 -5 7 1 49 121 15 43 26 81
23 83 -3 3 -10 -10 -17 -28z"/>
<path d="M2727 3391 c26 -38 49 -68 51 -67 6 7 -73 129 -86 134 -7 2 9 -28 35
-67z"/>
<path d="M2870 3456 c0 -2 8 -10 18 -17 15 -13 16 -12 3 4 -13 16 -21 21 -21
13z"/>
<path d="M165 2675 c0 -418 1 -588 2 -377 2 211 2 553 0 760 -1 207 -2 35 -2
-383z"/>
<path d="M2204 3398 l-29 -33 33 29 c30 28 37 36 29 36 -2 0 -16 -15 -33 -32z"/>
<path d="M2360 3410 c0 -5 5 -10 11 -10 5 0 7 5 4 10 -3 6 -8 10 -11 10 -2 0
-4 -4 -4 -10z"/>
<path d="M450 3399 c0 -5 5 -7 10 -4 6 3 10 8 10 11 0 2 -4 4 -10 4 -5 0 -10
-5 -10 -11z"/>
<path d="M2640 3400 c0 -5 5 -10 10 -10 6 0 10 -7 10 -15 0 -8 4 -15 8 -15 5
0 15 -12 23 -27 8 -16 21 -34 29 -41 8 -8 9 -11 2 -7 -10 5 -10 1 -1 -19 7
-14 15 -23 19 -21 12 8 21 -25 11 -42 -5 -9 -24 -17 -42 -18 -31 -2 -78 -9
-134 -20 -24 -5 -65 -41 -65 -57 0 -6 8 -4 19 6 22 20 152 46 232 46 l59 0
-43 69 c-97 157 -137 207 -137 171z"/>
<path d="M2770 3405 c0 -5 5 -17 10 -25 5 -8 10 -10 10 -5 0 6 -5 17 -10 25
-5 8 -10 11 -10 5z"/>
<path d="M2824 3383 c9 -17 20 -35 26 -38 18 -11 10 9 -16 40 l-26 30 16 -32z"/>
<path d="M2900 3404 c0 -5 10 -21 22 -34 12 -13 50 -61 85 -108 63 -84 83
-100 40 -31 -42 68 -146 191 -147 173z"/>
<path d="M2100 3359 c-7 -11 -10 -23 -7 -25 2 -2 9 7 15 21 14 30 7 33 -8 4z"/>
<path d="M2309 3353 c-13 -16 -12 -17 4 -4 9 7 17 15 17 17 0 8 -8 3 -21 -13z"/>
<path d="M3191 3354 c0 -11 3 -14 6 -6 3 7 2 16 -1 19 -3 4 -6 -2 -5 -13z"/>
<path d="M2166 3351 c-4 -6 -4 -16 0 -23 4 -6 3 -8 -4 -4 -12 7 -50 -70 -57
-114 -2 -14 -10 -49 -18 -78 -9 -29 -15 -53 -15 -55 0 -1 -3 -24 -6 -52 -16
-124 -16 -121 -6 -98 5 12 11 41 15 65 19 142 69 298 103 324 11 8 12 16 5 29
-7 12 -13 14 -17 6z"/>
<path d="M203 3300 c0 -30 2 -43 4 -27 2 15 2 39 0 55 -2 15 -4 2 -4 -28z"/>
<path d="M303 3317 c-31 -45 -29 -56 3 -18 14 17 24 35 22 41 -1 5 -13 -5 -25
-23z"/>
<path d="M2047 3343 c-10 -9 -9 -23 1 -23 5 0 9 7 9 15 0 17 -1 18 -10 8z"/>
<path d="M3640 3337 c0 -7 7 -22 15 -33 13 -17 14 -17 15 -1 0 9 -5 17 -12 17
-6 0 -8 3 -5 6 4 4 14 1 24 -7 15 -12 16 -12 10 4 -4 10 -7 21 -7 23 0 2 -9 4
-20 4 -11 0 -20 -6 -20 -13z"/>
<path d="M4712 3330 c-7 -11 -18 -20 -26 -20 -15 0 -28 -24 -18 -34 6 -7 72
53 72 66 0 15 -15 8 -28 -12z"/>
<path d="M350 3316 c0 -14 5 -28 12 -32 8 -5 9 -2 5 9 -3 10 -2 17 3 17 5 0
11 -8 14 -18 5 -14 14 -17 36 -14 35 5 40 22 7 22 -13 0 -32 9 -42 20 -24 27
-35 25 -35 -4z"/>
<path d="M3072 3310 c0 -14 2 -19 5 -12 2 6 2 18 0 25 -3 6 -5 1 -5 -13z"/>
<path d="M3100 3325 c0 -5 5 -17 10 -25 5 -8 10 -10 10 -5 0 6 -5 17 -10 25
-5 8 -10 11 -10 5z"/>
<path d="M4773 3318 c3 -9 0 -21 -6 -27 -6 -6 -7 -14 -3 -18 9 -9 38 27 33 41
-2 5 -9 12 -17 14 -8 3 -11 -1 -7 -10z"/>
<path d="M2025 3278 c-12 -30 -31 -126 -20 -103 10 22 43 135 38 135 -2 0 -10
-15 -18 -32z"/>
<path d="M2885 3286 c3 -16 13 -39 21 -50 20 -30 17 -8 -7 39 -17 34 -19 36
-14 11z"/>
<path d="M4725 3299 c-4 -6 -5 -13 -2 -16 7 -7 27 6 27 18 0 12 -17 12 -25 -2z"/>
<path d="M2810 3280 c6 -11 12 -20 14 -20 2 0 2 9 -1 20 -3 11 -9 20 -15 20
-5 0 -4 -9 2 -20z"/>
<path d="M3680 3286 c-11 -15 -7 -20 13 -17 5 1 7 -7 6 -16 -3 -22 22 -94 31
-88 3 2 6 -11 6 -29 0 -19 6 -52 14 -75 10 -31 18 -41 34 -41 18 1 19 2 6 13
-8 7 -14 23 -13 37 1 14 0 19 -3 13 -8 -18 -24 -16 -24 2 0 8 5 15 11 15 6 0
9 6 6 13 -2 6 -10 11 -17 9 -7 -2 -9 5 -5 18 4 14 1 28 -10 40 -9 10 -14 23
-11 29 4 6 -2 29 -12 51 -16 36 -20 39 -32 26z"/>
<path d="M4560 3279 c0 -50 91 -162 119 -145 5 3 22 -1 37 -9 16 -8 37 -15 47
-15 10 0 29 -7 42 -16 30 -19 32 -11 6 21 -11 15 -22 20 -27 15 -11 -11 -103
30 -153 67 -18 14 -42 44 -52 67 -16 35 -19 37 -19 15z"/>
<path d="M325 3280 c-8 -13 -1 -24 14 -19 6 3 7 10 2 18 -6 10 -10 10 -16 1z"/>
<path d="M1420 3263 c-8 -16 -15 -32 -16 -38 0 -5 -4 -18 -9 -28 -4 -10 -5
-20 -3 -23 3 -2 11 10 17 28 7 18 18 45 26 61 8 15 11 27 6 27 -4 0 -14 -12
-21 -27z"/>
<path d="M4591 3274 c0 -11 3 -14 6 -6 3 7 2 16 -1 19 -3 4 -6 -2 -5 -13z"/>
<path d="M540 3236 c-24 -36 -126 -95 -192 -111 -29 -7 -75 -51 -65 -62 4 -3
13 1 20 10 13 18 93 54 82 38 -10 -17 11 -13 52 10 62 34 102 68 119 100 23
46 12 56 -16 15z m-115 -106 c-3 -5 -11 -10 -16 -10 -6 0 -7 5 -4 10 3 6 11
10 16 10 6 0 7 -4 4 -10z"/>
<path d="M2056 3255 c-3 -9 -6 -22 -5 -28 0 -7 5 -1 10 12 5 13 8 26 5 28 -2
2 -6 -3 -10 -12z"/>
<path d="M4982 3240 c0 -19 2 -27 5 -17 2 9 2 25 0 35 -3 9 -5 1 -5 -18z"/>
<path d="M300 3225 c-9 -11 -7 -23 14 -57 28 -46 36 -37 11 12 -8 16 -12 36
-9 44 8 20 0 21 -16 1z"/>
<path d="M2845 3215 c7 -36 45 -118 52 -111 2 2 -1 12 -7 23 -6 10 -20 41 -31
68 -11 29 -17 37 -14 20z"/>
<path d="M4803 3216 c4 -10 1 -13 -9 -9 -10 4 -14 -3 -14 -23 l0 -29 20 25
c22 28 26 50 9 50 -6 0 -9 -7 -6 -14z"/>
<path d="M3201 3194 c0 -11 3 -14 6 -6 3 7 2 16 -1 19 -3 4 -6 -2 -5 -13z"/>
<path d="M2067 3157 c-8 -25 -21 -77 -28 -116 -10 -51 -16 -67 -21 -54 -5 10
-5 0 -2 -22 18 -117 20 -152 13 -184 -5 -20 -9 -52 -9 -72 0 -41 -35 -195 -50
-221 -6 -10 -10 -22 -10 -28 0 -9 -71 -167 -88 -194 -3 -5 0 -6 7 -2 6 4 23
28 37 54 14 26 31 58 39 72 7 14 19 45 25 70 12 45 17 59 39 113 13 34 14 47
1 27 -15 -23 -12 3 4 47 21 55 29 198 15 253 -10 40 -8 58 20 169 32 126 36
168 8 88z"/>
<path d="M1887 3175 c-4 -8 -3 -16 1 -19 4 -3 9 4 9 15 2 23 -3 25 -10 4z"/>
<path d="M2940 3184 c0 -5 7 -19 15 -30 8 -10 15 -14 15 -8 0 5 -7 19 -15 30
-8 10 -15 14 -15 8z"/>
<path d="M286 3157 c3 -10 9 -15 12 -12 3 3 0 11 -7 18 -10 9 -11 8 -5 -6z"/>
<path d="M520 3145 c-13 -14 -21 -27 -18 -31 7 -6 48 35 48 48 0 13 -5 10 -30
-17z"/>
<path d="M3059 3153 c-32 -19 -53 -69 -38 -92 9 -13 10 -12 6 7 -3 12 -2 22 2
22 3 0 11 10 16 23 6 12 20 23 33 25 20 3 22 -1 22 -37 0 -30 -3 -39 -14 -35
-8 3 -17 1 -20 -4 -8 -13 17 -22 33 -13 17 11 17 90 0 106 -12 12 -18 11 -40
-2z"/>
<path d="M1996 3133 c-7 -26 -26 -134 -26 -152 0 -40 16 10 27 82 11 79 11
109 -1 70z"/>
<path d="M4585 3140 c-4 -6 1 -20 11 -31 23 -25 28 -19 10 15 -9 17 -16 23
-21 16z"/>
<path d="M2830 3120 c0 -5 5 -10 10 -10 6 0 10 5 10 10 0 6 -4 10 -10 10 -5 0
-10 -4 -10 -10z"/>
<path d="M2970 3121 c0 -6 4 -13 10 -16 6 -3 7 1 4 9 -7 18 -14 21 -14 7z"/>
<path d="M2671 3105 c-42 -13 -91 -49 -91 -67 0 -5 13 1 29 13 19 14 49 23 83
26 29 2 63 9 75 15 26 13 45 2 23 -12 -8 -6 -10 -10 -5 -10 18 1 47 29 40 39
-9 15 -101 13 -154 -4z"/>
<path d="M3059 3118 c-7 -24 -5 -38 4 -35 15 5 22 37 8 37 -6 0 -11 -1 -12 -2z"/>
<path d="M540 3096 c0 -8 4 -17 9 -20 5 -4 7 3 4 14 -6 23 -13 26 -13 6z"/>
<path d="M2143 3076 c2 -29 9 -32 30 -12 17 17 57 10 57 -10 0 -8 4 -14 10
-14 5 0 7 7 4 15 -9 22 43 20 87 -4 28 -15 36 -16 36 -5 0 18 -77 43 -158 50
l-67 7 1 -27z"/>
<path d="M2850 3094 c0 -7 7 -28 15 -48 14 -34 14 -37 -1 -34 -11 2 -21 -10
-32 -37 -19 -50 -21 -52 -32 -35 -6 10 -30 13 -88 12 -71 -1 -81 1 -85 19 -3
13 -11 17 -21 13 -26 -10 -18 12 15 40 19 16 43 26 62 26 23 0 28 3 18 9 -17
11 -52 -1 -99 -32 -24 -17 -32 -28 -30 -47 2 -17 8 -24 20 -22 10 1 28 -4 40
-11 31 -19 105 -30 113 -17 4 7 11 7 18 2 26 -20 56 -20 62 -1 5 14 12 18 25
14 12 -4 20 0 23 12 4 14 5 14 6 -4 0 -12 6 -25 12 -29 17 -10 -1 105 -22 146
-11 19 -19 30 -19 24z"/>
<path d="M2515 3080 c3 -5 8 -10 11 -10 2 0 4 5 4 10 0 6 -5 10 -11 10 -5 0
-7 -4 -4 -10z"/>
<path d="M2900 3087 c0 -11 30 -67 35 -67 6 0 -16 52 -27 65 -4 5 -8 6 -8 2z"/>
<path d="M4737 3067 c3 -13 17 -28 32 -35 15 -7 34 -23 41 -37 7 -14 17 -25
22 -25 15 0 -22 59 -47 76 -14 9 -25 23 -25 30 0 8 -6 14 -14 14 -8 0 -12 -8
-9 -23z"/>
<path d="M465 3070 c-3 -5 -3 -10 2 -10 4 0 0 -5 -9 -11 -10 -5 -18 -17 -18
-26 0 -14 2 -14 20 2 16 15 22 15 35 5 8 -7 15 -19 15 -26 0 -19 16 -18 23 1
4 8 -7 27 -24 45 -34 33 -35 34 -44 20z"/>
<path d="M2110 3043 c-17 -60 -23 -175 -11 -203 l12 -25 -6 25 c-6 31 15 202
26 215 12 12 11 25 -1 25 -5 0 -14 -17 -20 -37z"/>
<path d="M328 3024 c-21 -25 -38 -53 -38 -63 0 -20 76 -98 87 -88 3 4 -10 22
-30 40 -20 18 -37 40 -37 49 0 25 51 68 79 68 l25 0 -22 20 c-12 11 -22 20
-24 19 -2 0 -20 -21 -40 -45z"/>
<path d="M4625 3052 c-24 -19 -39 -52 -25 -52 5 0 12 5 15 11 4 5 18 14 32 20
13 5 23 14 21 21 -7 19 -21 19 -43 0z"/>
<path d="M1340 3050 c0 -5 5 -10 10 -10 6 0 10 5 10 10 0 6 -4 10 -10 10 -5 0
-10 -4 -10 -10z"/>
<path d="M2260 3051 c0 -5 13 -11 29 -14 35 -7 91 -53 91 -75 0 -12 -3 -13
-12 -4 -7 7 -19 12 -27 12 -14 -1 -13 -3 2 -14 9 -7 17 -19 17 -27 0 -11 2
-11 10 1 5 8 10 11 10 5 0 -16 20 18 20 35 0 15 -53 55 -104 77 -34 15 -36 16
-36 4z"/>
<path d="M2950 3051 c0 -6 4 -13 10 -16 6 -3 7 1 4 9 -7 18 -14 21 -14 7z"/>
<path d="M3140 3041 c0 -11 4 -22 9 -25 4 -3 6 6 3 19 -5 30 -12 33 -12 6z"/>
<path d="M3045 3001 c5 -34 3 -51 -4 -51 -6 0 -11 7 -11 15 0 8 -5 15 -10 15
-7 0 -8 -17 -5 -44 4 -27 2 -47 -4 -51 -6 -3 -11 -16 -11 -28 0 -17 -2 -19 -9
-8 -8 12 -12 12 -25 -2 -21 -21 -22 -44 -1 -27 10 9 15 9 15 1 0 -6 4 -11 9
-11 12 0 53 98 46 110 -3 6 -2 10 3 10 6 0 17 18 26 40 18 45 21 74 6 50 -8
-13 -10 -13 -10 2 0 9 -5 20 -11 24 -8 5 -9 -8 -4 -45z"/>
<path d="M2410 3027 c0 -7 9 -18 20 -25 12 -7 18 -17 14 -23 -3 -6 3 -13 15
-16 12 -3 21 -10 21 -15 0 -5 5 -6 10 -3 14 9 12 25 -2 23 -7 -2 -14 7 -16 20
-2 15 -9 22 -20 20 -9 -2 -16 2 -15 9 1 6 -4 14 -12 17 -8 3 -15 0 -15 -7z"/>
<path d="M2483 3032 c-7 -4 -9 -13 -4 -21 6 -9 10 -7 14 8 3 12 4 21 4 21 -1
0 -7 -4 -14 -8z"/>
<path d="M2675 3030 c-3 -5 -1 -10 4 -10 6 0 11 5 11 10 0 6 -2 10 -4 10 -3 0
-8 -4 -11 -10z"/>
<path d="M2148 3023 c7 -3 16 -2 19 1 4 3 -2 6 -13 5 -11 0 -14 -3 -6 -6z"/>
<path d="M2255 3020 c-3 -5 1 -10 9 -10 9 0 16 5 16 10 0 6 -4 10 -9 10 -6 0
-13 -4 -16 -10z"/>
<path d="M2638 3016 c-15 -11 -13 -14 16 -24 40 -15 57 -15 91 -2 23 9 25 13
15 25 -16 20 -30 19 -30 -1 0 -12 -7 -15 -25 -12 -13 3 -26 0 -29 -6 -2 -6 -8
-1 -12 11 -8 18 -12 20 -26 9z"/>
<path d="M1330 3001 c0 -25 6 -27 13 -6 4 8 2 17 -3 20 -6 4 -10 -3 -10 -14z"/>
<path d="M2200 3010 c-13 -9 -13 -11 0 -20 8 -6 33 -16 54 -22 31 -10 40 -10
44 0 2 7 10 12 18 12 15 0 19 12 7 24 -4 4 -15 -3 -24 -16 -15 -19 -20 -21
-43 -10 -14 6 -26 18 -26 27 0 17 -9 19 -30 5z"/>
<path d="M1917 2787 c-21 -264 -56 -448 -108 -548 -11 -22 -18 -46 -16 -52 2
-7 -2 -20 -11 -29 -15 -18 -4 -25 14 -10 5 5 28 16 52 25 42 17 42 17 42 -6
-1 -12 -11 -47 -25 -77 -18 -43 -28 -55 -46 -55 -12 0 -25 -7 -27 -14 -4 -11
2 -12 23 -7 24 6 27 5 20 -11 -4 -10 -9 -58 -12 -108 -3 -49 -9 -94 -14 -100
-11 -11 -12 -35 -1 -35 5 0 14 12 20 26 7 14 16 23 21 20 5 -3 5 14 0 40 -11
57 6 183 31 232 10 21 20 44 23 52 3 8 6 -56 6 -142 1 -103 5 -159 12 -164 8
-5 10 50 8 197 l-3 204 56 110 c31 61 59 128 62 150 3 22 3 33 0 25 -4 -8 -28
-62 -54 -120 -26 -58 -55 -124 -65 -147 -16 -36 -24 -43 -57 -48 -21 -4 -40
-11 -44 -16 -3 -5 -10 -7 -15 -3 -6 4 -2 14 10 26 12 10 31 40 42 66 12 26 36
79 54 117 57 124 67 185 59 360 -4 85 -11 152 -15 149 -5 -3 -9 10 -9 28 l0
33 23 -35 c19 -31 22 -46 19 -130 -2 -61 0 -90 6 -81 6 7 10 52 10 100 -1 78
-3 90 -29 129 -16 24 -29 47 -29 52 0 5 -4 11 -8 14 -5 3 -16 -95 -25 -217z
m32 21 c-4 -40 -12 -84 -18 -98 l-12 -25 6 25 c3 14 8 58 12 98 3 39 9 72 12
72 4 0 4 -33 0 -72z m-5 -292 c-10 -39 -32 -101 -51 -138 -18 -37 -33 -72 -33
-77 0 -5 -4 -12 -10 -16 -5 -3 -3 14 4 39 8 25 11 47 8 50 -2 3 2 8 11 12 9 3
13 12 10 20 -3 8 0 14 6 14 6 0 9 13 6 33 -4 27 -3 28 3 7 7 -21 11 -14 21 45
7 39 15 93 17 120 9 92 19 105 22 30 2 -42 -4 -97 -14 -139z"/>
<path d="M2952 2979 c6 -16 12 -28 14 -26 5 5 -13 57 -20 57 -3 0 0 -14 6 -31z"/>
<path d="M3785 3000 c-8 -13 -1 -24 14 -19 6 3 7 10 2 18 -6 10 -10 10 -16 1z"/>
<path d="M4570 2980 c0 -5 7 -10 16 -10 8 0 12 5 9 10 -3 6 -10 10 -16 10 -5
0 -9 -4 -9 -10z"/>
<path d="M2142 2968 c-1 -7 -7 -42 -14 -77 -10 -51 -10 -65 0 -69 7 -2 12 -13
12 -23 0 -11 5 -29 10 -39 7 -13 7 -21 0 -25 -5 -3 -10 2 -10 12 -1 10 -8 29
-16 43 -10 17 -13 19 -9 5 4 -11 11 -35 17 -53 8 -29 11 -31 24 -18 16 16 14
43 -4 89 -16 38 -15 58 3 84 13 19 20 21 41 13 45 -17 109 -12 129 10 18 20
18 20 -11 6 -51 -26 -137 -5 -150 36 -6 21 -20 24 -22 6z"/>
<path d="M431 2917 c-44 -48 -44 -49 -31 -85 7 -20 12 -59 11 -87 -1 -36 2
-46 9 -35 14 21 12 78 -5 125 -18 48 -17 45 -5 45 6 0 22 11 36 25 30 30 34
31 62 5 29 -28 28 -52 -5 -77 -28 -20 -59 -83 -42 -83 5 0 9 6 9 13 0 8 18 31
41 52 48 44 47 71 -4 121 l-32 31 -44 -50z"/>
<path d="M534 2959 c-3 -6 -2 -15 4 -21 6 -6 11 -2 15 11 5 22 -7 29 -19 10z"/>
<path d="M1320 2960 c0 -5 5 -10 10 -10 6 0 10 5 10 10 0 6 -4 10 -10 10 -5 0
-10 -4 -10 -10z"/>
<path d="M2206 2956 c4 -10 16 -16 33 -15 20 1 22 2 6 6 -11 3 -26 10 -33 15
-9 8 -11 7 -6 -6z"/>
<path d="M3073 2940 c-7 -18 -8 -32 -2 -36 5 -3 9 -2 8 3 -1 4 1 16 5 25 4 10
6 22 4 28 -2 6 -8 -3 -15 -20z"/>
<path d="M3793 2963 c-15 -5 -18 -33 -4 -33 5 0 12 6 14 13 3 7 6 6 6 -5 1 -9
6 -20 12 -24 8 -4 9 1 4 17 -9 30 -17 38 -32 32z"/>
<path d="M4643 2963 c-7 -2 -13 -11 -13 -18 0 -8 -4 -17 -10 -20 -6 -3 -7 1
-4 9 3 9 1 16 -6 16 -6 0 -10 -8 -9 -17 3 -37 -1 -53 -16 -53 -23 0 -18 -19
14 -51 29 -29 51 -37 51 -20 0 5 -12 19 -26 30 -24 19 -24 21 -10 48 31 56 56
78 56 50 0 -16 48 -63 56 -55 3 3 -6 18 -20 33 -15 16 -26 34 -26 41 0 14 -14
17 -37 7z"/>
<path d="M3152 2920 c0 -19 2 -27 5 -17 2 9 2 25 0 35 -3 9 -5 1 -5 -18z"/>
<path d="M4758 2879 c-32 -39 -58 -78 -58 -87 0 -9 12 1 27 23 14 22 43 59 65
82 21 24 38 45 38 48 0 16 -21 -3 -72 -66z"/>
<path d="M1310 2920 c0 -5 5 -10 10 -10 6 0 10 5 10 10 0 6 -4 10 -10 10 -5 0
-10 -4 -10 -10z"/>
<path d="M2971 2914 c0 -11 3 -14 6 -6 3 7 2 16 -1 19 -3 4 -6 -2 -5 -13z"/>
<path d="M2891 2893 c0 -12 -4 -30 -7 -40 -5 -14 -4 -15 5 -7 7 6 11 24 8 40
-3 21 -4 23 -6 7z"/>
<path d="M2450 2861 c1 -30 2 -33 11 -18 6 10 8 21 5 24 -3 4 -1 11 4 18 7 8
5 12 -5 12 -11 0 -15 -11 -15 -36z"/>
<path d="M3797 2875 c5 -21 7 -22 20 -10 16 16 10 35 -11 35 -9 0 -12 -9 -9
-25z"/>
<path d="M3104 2865 c-10 -41 2 -397 15 -425 10 -22 11 -20 5 15 -3 22 -6 129
-5 238 0 108 -2 197 -4 197 -3 0 -7 -11 -11 -25z"/>
<path d="M938 2873 c7 -3 16 -2 19 1 4 3 -2 6 -13 5 -11 0 -14 -3 -6 -6z"/>
<path d="M3161 2860 c0 -8 4 -55 10 -105 11 -90 14 -123 17 -160 1 -12 5 -15
11 -10 6 6 4 48 -5 110 -18 119 -31 186 -33 165z"/>
<path d="M340 2850 c0 -5 7 -10 15 -10 8 0 15 5 15 10 0 6 -7 10 -15 10 -8 0
-15 -4 -15 -10z"/>
<path d="M3823 2843 c-18 -7 -16 -40 2 -46 11 -5 14 1 12 23 -1 17 -2 30 -2
29 0 0 -6 -3 -12 -6z"/>
<path d="M300 2818 c-16 -17 -20 -34 -19 -82 1 -52 2 -57 10 -31 4 16 6 39 3
50 -3 13 3 31 14 46 l20 24 31 -35 c20 -23 31 -29 31 -19 0 15 -49 69 -63 69
-3 0 -15 -10 -27 -22z"/>
<path d="M4767 2829 c-20 -12 -56 -83 -57 -111 0 -34 18 -18 28 25 6 24 21 52
32 62 20 18 21 18 34 -1 18 -24 26 -16 15 14 -9 24 -24 27 -52 11z"/>
<path d="M2593 2769 c2 -41 -2 -60 -15 -73 -26 -25 -22 -29 13 -11 29 15 30
19 23 58 -12 73 -23 87 -21 26z"/>
<path d="M3145 2685 c2 -86 9 -148 20 -183 9 -29 18 -52 20 -50 2 2 -3 39 -12
83 -8 44 -18 125 -23 180 l-8 100 3 -130z"/>
<path d="M2386 2784 c-8 -21 -8 -34 2 -34 4 0 9 11 10 25 2 28 -3 32 -12 9z"/>
<path d="M2440 2784 c0 -8 -4 -13 -9 -10 -4 3 -8 -4 -7 -16 0 -12 7 -23 15
-26 10 -3 12 0 8 12 -6 14 -3 15 13 6 11 -6 20 -7 20 -3 0 4 5 1 11 -7 8 -12
9 -10 4 7 -3 12 -1 24 5 28 18 11 0 25 -31 25 -20 0 -29 -5 -29 -16z m40 -14
c0 -5 -5 -10 -11 -10 -5 0 -7 5 -4 10 3 6 8 10 11 10 2 0 4 -4 4 -10z"/>
<path d="M2886 2784 c-3 -9 -6 -34 -6 -55 0 -25 -4 -38 -10 -34 -6 4 -9 3 -8
-2 4 -14 -13 -53 -23 -53 -5 0 -9 -6 -9 -14 0 -8 -7 -17 -16 -20 -8 -3 -13
-10 -9 -16 3 -5 -6 -19 -20 -32 -14 -12 -25 -26 -25 -32 0 -19 88 76 114 123
19 36 25 60 23 99 -1 29 -3 52 -3 52 -1 0 -5 -7 -8 -16z"/>
<path d="M2960 2776 c0 -14 5 -26 10 -26 6 0 10 9 10 19 0 11 -4 23 -10 26 -6
4 -10 -5 -10 -19z"/>
<path d="M2536 2766 c-16 -26 -16 -26 9 -26 25 0 32 14 16 38 -6 10 -12 7 -25
-12z"/>
<path d="M515 2769 c-3 -3 6 -9 19 -11 16 -3 23 -1 20 7 -5 13 -32 16 -39 4z"/>
<path d="M3072 2612 c1 -89 6 -162 10 -162 5 0 8 -19 9 -42 1 -24 5 -54 9 -68
l8 -25 1 25 c0 14 -4 52 -9 85 -6 33 -13 123 -16 200 -4 77 -9 142 -11 145 -2
3 -3 -68 -1 -158z"/>
<path d="M3813 2729 c6 -44 13 -57 24 -45 4 4 2 15 -5 26 -7 12 -8 21 -2 25
16 10 11 35 -6 35 -14 0 -16 -8 -11 -41z"/>
<path d="M4576 2745 c-3 -8 -1 -15 4 -15 6 0 10 7 10 15 0 8 -2 15 -4 15 -2 0
-6 -7 -10 -15z"/>
<path d="M4620 2746 c0 -8 5 -18 10 -21 6 -3 10 1 10 9 0 8 -4 18 -10 21 -5 3
-10 -1 -10 -9z"/>
<path d="M4831 2718 c0 -18 3 -26 6 -18 3 8 10 23 15 33 6 12 5 17 -7 17 -10
0 -15 -10 -14 -32z"/>
<path d="M2100 2730 c-9 -5 -26 -31 -39 -58 -22 -47 -23 -52 -8 -81 11 -21 15
-56 14 -111 -1 -44 1 -80 6 -80 11 0 9 -68 -3 -75 -5 -3 -10 -11 -10 -17 0 -6
6 -5 16 2 12 11 15 33 12 122 -3 100 1 123 17 98 10 -16 20 -12 38 19 21 35
21 38 2 38 -8 0 -12 -4 -10 -8 6 -9 -5 -39 -14 -39 -22 1 -30 18 -22 48 6 21
6 32 -1 32 -5 0 -12 -9 -15 -20 -7 -25 -23 -16 -23 13 0 23 13 52 44 100 20
29 19 31 -4 17z"/>
<path d="M2966 2718 c6 -20 5 -21 -10 -9 -13 11 -16 11 -16 -1 0 -20 37 -50
43 -35 3 8 10 5 21 -8 11 -15 15 -16 15 -5 0 20 -24 52 -32 43 -4 -3 -7 3 -7
15 0 12 -5 22 -11 22 -6 0 -8 -9 -3 -22z"/>
<path d="M493 2711 c-67 -31 -129 -94 -142 -146 -18 -74 8 -144 61 -165 18 -8
59 -31 92 -52 32 -21 61 -36 64 -34 10 11 -21 35 -93 71 -88 45 -104 60 -112
109 -15 95 90 211 180 197 13 -2 18 3 15 15 -4 25 -18 26 -65 5z"/>
<path d="M2372 2708 c8 -12 29 -26 46 -30 18 -5 32 -12 32 -16 0 -9 -48 -27
-97 -37 -18 -4 -33 -11 -33 -16 0 -14 53 -11 91 5 33 13 58 13 199 1 53 -4 60
-3 40 6 -14 6 -38 13 -55 15 -61 7 -75 14 -75 35 0 28 -23 19 -30 -12 -5 -19
-8 -21 -15 -9 -5 8 -10 22 -10 30 0 9 -12 16 -32 18 -17 2 -37 10 -43 18 -20
23 -34 16 -18 -8z"/>
<path d="M2170 2712 c0 -5 7 -15 15 -22 8 -7 15 -9 15 -6 0 4 -7 14 -15 22 -8
9 -15 11 -15 6z"/>
<path d="M4593 2708 c-24 -11 -39 -38 -22 -38 6 0 19 5 31 11 29 15 69 -4 117
-57 45 -48 56 -78 47 -129 -9 -44 -43 -84 -104 -124 -49 -31 -82 -40 -82 -20
0 5 -4 7 -10 4 -20 -13 -10 -35 16 -35 30 0 78 26 141 77 35 28 43 42 53 89
13 63 5 95 -39 147 -23 28 -107 88 -120 86 -4 0 -16 -5 -28 -11z"/>
<path d="M2152 2656 c22 -38 64 -87 121 -140 109 -100 156 -132 207 -141 45
-8 100 2 100 17 0 6 6 8 13 5 7 -2 23 4 36 14 17 14 19 19 8 19 -9 0 -19 -5
-22 -11 -5 -7 -13 -5 -25 6 -16 15 -18 15 -24 -1 -5 -14 -17 -16 -73 -11 -40
3 -71 11 -77 19 -6 8 -19 17 -29 21 -10 4 -15 12 -12 17 4 6 3 10 -2 9 -21 -4
-33 2 -33 17 0 8 -4 13 -9 10 -5 -3 -14 1 -21 9 -7 8 -17 15 -23 15 -5 0 -18
10 -29 23 -11 12 -37 42 -58 67 -22 25 -49 56 -60 70 -11 14 -6 -1 12 -34z"/>
<path d="M2920 2680 c0 -19 3 -21 12 -12 9 9 9 15 0 24 -9 9 -12 7 -12 -12z"/>
<path d="M2110 2675 c0 -7 -8 -19 -17 -24 -16 -9 -16 -10 5 -11 17 0 22 6 22
25 0 14 -2 25 -5 25 -3 0 -5 -7 -5 -15z"/>
<path d="M2190 2659 c0 -5 5 -7 10 -4 6 3 10 8 10 11 0 2 -4 4 -10 4 -5 0 -10
-5 -10 -11z"/>
<path d="M3028 2645 c-10 -26 -11 -89 -4 -145 3 -25 12 -126 21 -225 9 -99 21
-209 27 -245 6 -36 11 -75 12 -87 0 -11 5 -19 10 -16 4 3 5 -3 2 -14 -8 -26
49 -117 69 -109 8 3 17 0 21 -6 5 -7 2 -8 -7 -3 -8 5 -5 -1 5 -13 20 -23 36
-28 36 -12 0 6 -8 10 -17 10 -14 0 -15 2 -5 9 10 6 10 11 -3 21 -45 38 -95
197 -115 365 -6 50 -15 131 -21 180 -6 50 -14 140 -18 200 -3 63 -9 101 -13
90z m102 -775 c11 -22 18 -40 15 -40 -6 0 -45 62 -45 73 0 16 11 5 30 -33z"/>
<path d="M3826 2652 c-9 -15 -9 -167 0 -165 7 3 15 173 8 173 -2 0 -5 -4 -8
-8z"/>
<path d="M350 2640 c0 -5 5 -10 10 -10 6 0 10 5 10 10 0 6 -4 10 -10 10 -5 0
-10 -4 -10 -10z"/>
<path d="M4984 2550 c0 -58 1 -81 3 -52 2 28 2 76 0 105 -2 28 -3 5 -3 -53z"/>
<path d="M489 2620 l-24 -20 25 -19 c18 -14 29 -17 42 -10 21 11 24 39 6 57
-16 16 -22 15 -49 -8z m41 -20 c0 -22 -7 -25 -29 -11 -16 10 -6 31 15 31 8 0
14 -9 14 -20z"/>
<path d="M2905 2626 c-11 -25 14 -70 42 -74 27 -4 55 35 46 66 -6 23 -27 30
-38 12 -3 -5 1 -10 9 -10 21 0 20 -24 0 -45 -21 -21 -42 -4 -46 38 -3 27 -5
29 -13 13z"/>
<path d="M4581 2616 c-19 -20 -21 -28 -12 -45 7 -12 14 -21 17 -21 15 0 45 23
55 41 8 17 7 23 -8 35 -24 18 -26 18 -52 -10z m42 -2 c10 -10 -12 -44 -28 -44
-18 0 -20 21 -3 38 13 13 22 15 31 6z"/>
<path d="M4805 2601 c-4 -12 -3 -27 3 -33 13 -13 21 11 12 37 -7 19 -7 19 -15
-4z"/>
<path d="M297 2594 c-8 -8 3 -34 14 -34 11 0 12 27 0 34 -4 3 -11 3 -14 0z"/>
<path d="M1285 2590 c3 -5 8 -10 11 -10 2 0 4 5 4 10 0 6 -5 10 -11 10 -5 0
-7 -4 -4 -10z"/>
<path d="M2615 2580 c-21 -9 -17 -12 26 -14 18 -1 25 2 22 11 -6 15 -19 15
-48 3z"/>
<path d="M2340 2572 c0 -5 8 -16 18 -24 26 -24 82 -50 82 -39 0 5 -8 12 -18
16 -11 3 -24 17 -30 30 -11 23 -52 36 -52 17z"/>
<path d="M2537 2574 c-4 -4 -37 -7 -74 -7 -38 0 -59 -2 -48 -4 11 -3 24 -9 30
-14 15 -15 57 -10 95 11 19 11 28 19 19 20 -9 0 -19 -3 -22 -6z"/>
<path d="M3207 2565 c-4 -8 -2 -17 3 -20 6 -4 10 3 10 14 0 25 -6 27 -13 6z"/>
<path d="M2956 2524 c-4 -10 -2 -22 3 -27 7 -7 13 -5 17 7 4 10 2 22 -3 27 -7
7 -13 5 -17 -7z"/>
<path d="M523 2489 c-17 -17 -36 -28 -42 -25 -18 12 -12 26 11 26 17 0 19 3
10 12 -9 9 -17 10 -29 2 -28 -17 -25 -30 13 -69 l36 -37 21 21 c11 11 18 24
14 28 -4 3 -13 1 -19 -5 -7 -7 -18 -12 -25 -12 -22 0 -14 26 11 38 24 11 55
52 39 52 -5 0 -22 -14 -40 -31z"/>
<path d="M2213 2496 c0 -18 3 -24 9 -18 7 7 7 16 0 28 -8 14 -9 13 -9 -10z"/>
<path d="M2806 2498 c-8 -32 -7 -48 3 -48 5 0 11 16 13 35 4 39 -6 48 -16 13z"/>
<path d="M3211 2504 c0 -11 3 -14 6 -6 3 7 2 16 -1 19 -3 4 -6 -2 -5 -13z"/>
<path d="M4577 2513 c-4 -3 -7 -11 -7 -17 0 -6 5 -5 12 2 6 6 9 14 7 17 -3 3
-9 2 -12 -2z"/>
<path d="M2420 2484 c0 -8 6 -15 13 -15 6 -1 23 -3 37 -5 51 -7 129 -8 135 -2
10 10 -55 27 -122 32 -50 4 -63 2 -63 -10z"/>
<path d="M4595 2490 c-5 -9 16 -15 38 -11 5 1 7 -9 5 -21 -3 -24 -38 -39 -38
-16 0 7 -9 19 -20 26 -23 14 -27 0 -5 -18 8 -7 15 -18 15 -25 0 -23 28 -24 49
-1 28 30 27 62 -1 70 -31 8 -36 8 -43 -4z"/>
<path d="M2273 2455 c0 -22 2 -30 4 -17 2 12 2 30 0 40 -3 9 -5 -1 -4 -23z"/>
<path d="M3142 2470 c0 -14 2 -19 5 -12 2 6 2 18 0 25 -3 6 -5 1 -5 -13z"/>
<path d="M2680 2470 c0 -5 5 -10 10 -10 6 0 10 5 10 10 0 6 -4 10 -10 10 -5 0
-10 -4 -10 -10z"/>
<path d="M281 2454 c0 -11 3 -14 6 -6 3 7 2 16 -1 19 -3 4 -6 -2 -5 -13z"/>
<path d="M2290 2459 c0 -6 9 -22 20 -36 21 -27 19 -46 -5 -36 -26 9 -16 -16
16 -39 26 -19 28 -24 15 -34 -14 -10 -14 -13 0 -30 11 -14 14 -15 13 -4 -3 31
2 39 21 37 20 -1 30 -37 10 -37 -5 0 -10 5 -10 12 0 6 -3 8 -7 5 -3 -4 1 -15
10 -25 10 -10 14 -22 10 -25 -3 -4 -1 -7 5 -7 7 0 12 9 12 19 0 48 55 21 63
-31 3 -18 12 -53 21 -78 9 -25 19 -58 23 -75 l7 -30 4 35 c4 35 -13 104 -31
127 -5 7 -7 26 -5 42 2 17 1 28 -4 25 -4 -3 -11 2 -14 10 -3 9 -12 16 -19 16
-8 0 -21 8 -31 18 -10 9 -25 17 -33 17 -9 1 -15 6 -13 13 1 7 -7 12 -18 12
-23 0 -24 4 -8 29 9 16 6 23 -20 49 -18 17 -32 27 -32 21z"/>
<path d="M3813 2450 c3 -11 2 -22 -3 -25 -4 -2 -6 -21 -6 -42 1 -21 -4 -45
-11 -54 -12 -14 -12 -17 0 -22 16 -6 23 18 34 111 4 38 2 52 -7 52 -7 0 -10
-8 -7 -20z"/>
<path d="M1294 2438 c3 -13 6 -31 6 -40 0 -10 4 -18 10 -18 11 0 9 28 -3 48
-5 6 -5 17 -2 22 3 6 1 10 -6 10 -7 0 -9 -9 -5 -22z"/>
<path d="M2990 2450 c0 -5 5 -10 11 -10 5 0 7 5 4 10 -3 6 -8 10 -11 10 -2 0
-4 -4 -4 -10z"/>
<path d="M3220 2456 c0 -2 8 -10 18 -17 15 -13 16 -12 3 4 -13 16 -21 21 -21
13z"/>
<path d="M2800 2425 c0 -8 4 -15 10 -15 5 0 7 7 4 15 -4 8 -8 15 -10 15 -2 0
-4 -7 -4 -15z"/>
<path d="M3192 2405 c0 -16 2 -22 5 -12 2 9 2 23 0 30 -3 6 -5 -1 -5 -18z"/>
<path d="M320 2406 c0 -8 5 -18 11 -22 6 -3 8 -17 5 -30 -4 -14 -2 -24 4 -24
18 0 22 28 9 60 -15 32 -29 40 -29 16z"/>
<path d="M3144 2396 c-3 -14 1 -36 11 -53 15 -26 16 -26 9 -3 -3 14 -6 37 -6
53 1 33 -6 35 -14 3z"/>
<path d="M2819 2381 c-19 -16 -32 -31 -29 -34 3 -3 21 7 40 23 19 16 32 31 29
34 -3 3 -21 -7 -40 -23z"/>
<path d="M3251 2394 c0 -11 3 -14 6 -6 3 7 2 16 -1 19 -3 4 -6 -2 -5 -13z"/>
<path d="M4773 2375 c-27 -26 -28 -32 -9 -51 18 -18 25 -18 47 2 14 13 15 21
7 45 -12 34 -16 34 -45 4z m33 -16 c8 -14 -11 -33 -25 -25 -11 7 -4 36 9 36 5
0 12 -5 16 -11z"/>
<path d="M390 2380 c0 -5 5 -10 11 -10 5 0 7 5 4 10 -3 6 -8 10 -11 10 -2 0
-4 -4 -4 -10z"/>
<path d="M290 2371 c0 -5 7 -12 16 -15 24 -9 28 -7 14 9 -14 17 -30 20 -30 6z"/>
<path d="M2020 2322 c-44 -71 -48 -82 -22 -58 12 10 19 23 16 27 -3 5 0 9 6 9
10 0 45 69 38 75 -2 2 -19 -22 -38 -53z"/>
<path d="M2263 2360 c5 -31 17 -37 15 -7 -1 15 -6 27 -10 27 -4 0 -7 -9 -5
-20z"/>
<path d="M4981 2354 c0 -11 3 -14 6 -6 3 7 2 16 -1 19 -3 4 -6 -2 -5 -13z"/>
<path d="M1311 2344 c0 -11 3 -14 6 -6 3 7 2 16 -1 19 -3 4 -6 -2 -5 -13z"/>
<path d="M3012 2330 c0 -19 2 -27 5 -17 2 9 2 25 0 35 -3 9 -5 1 -5 -18z"/>
<path d="M410 2305 c0 -41 -3 -47 -27 -58 -47 -20 -92 -59 -86 -73 7 -18 23
-18 23 0 0 8 15 24 34 35 34 22 66 27 66 12 0 -4 14 -23 31 -41 l31 -32 -27
-22 c-18 -14 -37 -21 -52 -18 -28 5 -53 38 -46 61 3 12 1 11 -7 -3 -10 -14 -9
-23 0 -41 11 -20 10 -26 -4 -40 -9 -9 -16 -19 -16 -21 0 -8 38 15 42 25 2 6
17 7 39 2 53 -12 106 -71 64 -71 -8 0 -12 -6 -9 -14 6 -17 34 -10 34 8 0 6 12
22 25 35 25 23 33 51 15 51 -5 0 -10 -6 -10 -14 0 -7 -6 -19 -14 -25 -11 -9
-16 -9 -23 2 -4 7 -16 16 -25 20 -24 9 -23 20 4 32 26 12 35 65 11 65 -30 0
-52 42 -53 102 0 31 -4 60 -10 63 -6 4 -10 -12 -10 -40z"/>
<path d="M2714 2326 c-27 -15 -54 -42 -54 -55 0 -6 -4 -11 -9 -11 -8 0 -25
-39 -48 -110 -4 -11 -7 -9 -14 8 -4 12 -13 22 -19 22 -7 0 -8 -6 -1 -19 6 -10
7 -22 3 -26 -4 -3 0 -5 8 -3 9 2 14 -3 12 -12 -19 -86 -19 -96 1 -95 20 1 43
32 33 42 -3 4 -6 1 -6 -5 0 -7 -7 -12 -16 -12 -11 0 -14 5 -9 18 4 9 14 37 22
62 32 100 101 211 104 167 0 -7 5 -1 10 12 11 29 10 31 -17 17z"/>
<path d="M2762 2315 c0 -16 2 -22 5 -12 2 9 2 23 0 30 -3 6 -5 -1 -5 -18z"/>
<path d="M2445 2320 c3 -5 8 -10 11 -10 2 0 4 5 4 10 0 6 -5 10 -11 10 -5 0
-7 -4 -4 -10z"/>
<path d="M4697 2320 c-3 -8 -8 -33 -11 -55 -3 -22 -8 -50 -12 -62 -4 -14 -2
-23 5 -23 6 0 11 8 11 18 0 9 6 29 14 44 9 17 11 37 6 60 -4 21 -9 27 -13 18z"/>
<path d="M494 2305 c-7 -17 8 -67 22 -72 5 -1 17 11 26 27 14 25 15 30 3 30
-8 0 -15 -7 -15 -15 0 -8 -5 -15 -11 -15 -7 0 -8 11 -4 30 7 31 -10 44 -21 15z"/>
<path d="M1321 2304 c0 -11 3 -14 6 -6 3 7 2 16 -1 19 -3 4 -6 -2 -5 -13z"/>
<path d="M2814 2298 l-19 -23 23 19 c12 11 22 21 22 23 0 8 -8 2 -26 -19z"/>
<path d="M4982 2290 c0 -19 2 -27 5 -17 2 9 2 25 0 35 -3 9 -5 1 -5 -18z"/>
<path d="M261 2294 c0 -11 3 -14 6 -6 3 7 2 16 -1 19 -3 4 -6 -2 -5 -13z"/>
<path d="M280 2304 c0 -14 27 -50 33 -44 3 3 -3 16 -13 30 -11 14 -20 20 -20
14z"/>
<path d="M4586 2291 c-10 -11 -16 -28 -14 -38 4 -23 38 -30 38 -8 0 9 -4 13
-10 10 -17 -11 -11 7 8 21 12 9 14 16 6 24 -7 7 -15 5 -28 -9z"/>
<path d="M1371 2208 c32 -103 34 -112 19 -103 -14 9 -4 -18 42 -112 22 -46 43
-83 47 -83 4 0 -5 26 -21 58 -17 34 -26 67 -23 82 2 14 2 19 -1 13 -7 -16 -34
8 -34 29 0 10 3 9 11 -2 9 -12 10 -11 6 5 -11 52 -63 205 -68 205 -4 0 6 -42
22 -92z"/>
<path d="M2270 2290 c0 -12 28 -25 36 -17 3 3 -4 10 -15 17 -15 7 -21 7 -21 0z"/>
<path d="M3267 2279 c4 -13 8 -18 11 -10 2 7 -1 18 -6 23 -8 8 -9 4 -5 -13z"/>
<path d="M3750 2223 c-13 -38 -50 -124 -83 -193 -34 -69 -60 -128 -59 -132 1
-5 -4 -8 -12 -8 -7 0 -20 -8 -27 -17 -12 -15 -12 -16 4 -10 11 4 30 10 43 13
13 3 24 13 24 21 0 8 -5 11 -10 8 -6 -4 10 35 35 87 26 51 50 100 54 108 4 8
18 50 32 92 13 43 30 78 37 78 6 0 12 5 12 10 0 6 -6 10 -14 10 -9 0 -23 -26
-36 -67z"/>
<path d="M2755 2260 c-3 -5 1 -10 9 -10 9 0 16 5 16 10 0 6 -4 10 -9 10 -6 0
-13 -4 -16 -10z"/>
<path d="M1880 2238 c-12 -22 -12 -22 6 -6 10 10 15 20 12 24 -4 3 -12 -5 -18
-18z"/>
<path d="M1951 2229 c-6 -18 -10 -57 -10 -88 l2 -56 7 55 c4 30 10 70 14 88
10 41 1 42 -13 1z"/>
<path d="M2137 2242 c-5 -13 -5 -41 -2 -64 11 -60 53 -181 68 -190 18 -11 37
-10 37 3 0 6 -6 9 -14 6 -14 -6 -36 10 -36 26 0 5 7 7 15 3 8 -3 15 -1 15 4 0
6 7 10 15 10 18 0 20 -16 3 -23 -7 -3 -3 -6 8 -6 12 -1 25 6 28 15 3 8 2 12
-4 9 -8 -5 -37 35 -31 43 1 1 -7 21 -18 45 -16 35 -21 39 -27 23 -5 -12 -2
-22 10 -28 9 -5 14 -13 11 -19 -4 -5 0 -9 7 -9 9 0 9 -3 -2 -10 -10 -6 -11
-10 -2 -10 6 0 12 -4 12 -10 0 -5 -12 -10 -26 -10 -23 0 -26 3 -22 25 3 14 2
25 -2 25 -10 0 -29 75 -32 125 -3 34 -4 37 -11 17z"/>
<path d="M2334 2226 c21 -20 47 -36 59 -36 29 0 18 9 -64 53 l-34 18 39 -35z"/>
<path d="M2417 2254 c-8 -8 3 -34 14 -34 11 0 12 27 0 34 -4 3 -11 3 -14 0z"/>
<path d="M3786 2245 c-3 -9 -6 -22 -5 -28 0 -7 5 -1 10 12 5 13 8 26 5 28 -2
2 -6 -3 -10 -12z"/>
<path d="M296 2241 c-4 -7 -5 -15 -2 -18 9 -9 19 4 14 18 -4 11 -6 11 -12 0z"/>
<path d="M2720 2240 c0 -5 5 -10 10 -10 6 0 10 5 10 10 0 6 -4 10 -10 10 -5 0
-10 -4 -10 -10z"/>
<path d="M4710 2245 c0 -3 18 -17 40 -31 22 -15 40 -33 40 -40 0 -19 26 -18
34 1 4 10 -1 15 -14 15 -11 0 -20 5 -20 10 0 6 -15 19 -32 30 -33 20 -48 25
-48 15z"/>
<path d="M4813 2225 c-6 -14 -7 -25 -2 -25 11 0 22 25 17 39 -1 6 -8 -1 -15
-14z"/>
<path d="M2686 2225 c-3 -8 -1 -15 4 -15 6 0 10 7 10 15 0 8 -2 15 -4 15 -2 0
-6 -7 -10 -15z"/>
<path d="M3130 2217 c0 -3 8 -24 19 -48 10 -25 19 -68 19 -99 0 -42 -2 -49 -8
-30 -6 18 -8 3 -9 -52 -1 -46 3 -80 10 -84 7 -4 9 0 5 12 -3 11 1 44 9 74 17
63 20 150 5 150 -5 0 -9 3 -8 8 2 12 -20 59 -31 67 -6 3 -11 4 -11 2z"/>
<path d="M2540 2194 c0 -8 5 -12 10 -9 6 4 8 11 5 16 -9 14 -15 11 -15 -7z"/>
<path d="M2260 2193 c0 -5 12 -21 28 -35 34 -33 132 -80 132 -65 0 7 -21 21
-47 31 -25 11 -54 26 -63 35 -31 30 -50 43 -50 34z"/>
<path d="M510 2159 c0 -17 4 -28 10 -24 6 3 10 17 10 31 0 13 -4 24 -10 24 -5
0 -10 -14 -10 -31z"/>
<path d="M1730 2181 c0 -11 40 -22 54 -14 5 4 1 10 -10 14 -27 11 -44 11 -44
0z"/>
<path d="M2170 2180 c0 -5 5 -10 10 -10 6 0 10 5 10 10 0 6 -4 10 -10 10 -5 0
-10 -4 -10 -10z"/>
<path d="M2902 2141 c-13 -27 -34 -66 -48 -86 -13 -20 -24 -38 -24 -41 0 -13
-96 -93 -134 -112 -49 -25 -84 -28 -109 -9 -14 10 -15 18 -5 57 6 25 16 48 22
52 8 5 7 8 -1 8 -7 0 -22 -23 -34 -50 -17 -40 -24 -48 -35 -39 -8 6 -14 22
-14 35 0 13 -4 24 -10 24 -5 0 -7 -13 -3 -30 4 -22 0 -37 -13 -52 -19 -21 -19
-21 1 -13 29 11 65 18 65 12 0 -2 -7 -18 -15 -33 -8 -16 -15 -36 -15 -46 0 -9
-14 -28 -32 -43 -28 -23 -33 -25 -43 -12 -6 9 -23 19 -38 22 -37 10 -54 40
-30 54 10 5 14 13 10 18 -5 4 -15 -1 -23 -12 -15 -20 -15 -20 -30 -1 -18 26
-18 29 6 44 17 10 21 10 26 -3 3 -8 10 -12 15 -9 6 3 15 1 22 -4 7 -6 26 -13
42 -16 42 -6 42 -6 20 -16 -13 -6 -15 -9 -5 -9 15 0 60 32 60 43 0 4 -9 2 -21
-5 -15 -8 -24 -8 -32 0 -6 6 -19 11 -29 11 -21 0 -75 26 -95 46 -7 7 -10 20
-6 31 6 16 5 17 -10 3 -44 -40 -46 -41 -56 -23 -5 10 -13 15 -17 10 -4 -4 0
-15 9 -25 10 -10 17 -23 17 -29 0 -5 11 -20 25 -33 17 -16 23 -30 19 -43 -4
-13 -2 -17 5 -13 6 4 20 -2 32 -13 12 -11 28 -17 38 -13 13 5 13 2 -3 -13 -18
-19 -19 -19 -38 5 -19 24 -20 24 -34 5 -16 -22 -18 -35 -5 -35 5 0 11 7 13 16
3 13 6 13 23 -3 11 -11 28 -22 38 -26 10 -4 17 -17 17 -31 0 -13 6 -27 13 -29
7 -3 5 -6 -5 -6 -31 -2 -33 -1 -34 12 0 6 -2 21 -3 32 -1 16 -3 17 -11 5 -6
-9 -5 -17 3 -22 8 -5 6 -12 -8 -22 -26 -20 -35 -20 -35 -1 0 8 5 15 11 15 6 0
9 7 5 15 -3 8 -1 15 4 15 5 0 7 7 3 15 -5 16 -17 12 -19 -6 -1 -5 -2 -13 -3
-19 -3 -23 -19 -7 -31 30 -7 22 -17 40 -22 40 -5 0 -7 4 -3 10 3 5 12 7 20 4
9 -4 12 0 8 14 -2 11 -11 19 -18 18 -8 0 -14 4 -14 9 0 6 9 9 19 7 11 -2 20 2
20 8 0 6 -6 10 -12 9 -31 -4 -48 2 -48 17 0 8 5 12 10 9 6 -3 10 -2 10 3 0 5
-10 12 -21 15 -17 5 -20 11 -15 31 5 19 2 26 -8 26 -8 0 -16 5 -18 12 -3 7 -7
6 -11 -5 -4 -11 -1 -17 9 -17 8 0 13 -4 9 -9 -5 -9 0 -25 31 -98 8 -17 14 -36
14 -41 0 -21 59 -138 84 -167 20 -23 26 -26 26 -12 0 9 -4 17 -10 17 -5 0 -10
5 -10 11 0 7 14 8 43 4 23 -4 43 -8 45 -10 1 -1 -2 -13 -7 -26 -5 -13 -10 -20
-10 -15 -1 6 -8 1 -16 -10 -14 -18 -14 -17 -15 16 -1 29 -3 31 -10 15 -20 -47
4 -80 38 -53 13 11 14 8 8 -24 -5 -30 -4 -37 7 -32 8 3 17 -2 20 -10 4 -9 15
-16 25 -16 26 0 34 -11 21 -27 -14 -16 -5 -17 22 -3 22 12 23 10 7 -42 -6 -22
-20 -44 -30 -49 -10 -6 -16 -14 -13 -20 4 -5 -4 -23 -16 -40 -18 -25 -19 -33
-8 -40 19 -12 33 6 35 43 1 18 9 37 18 43 9 7 16 17 16 23 0 6 8 16 18 21 9 6
11 11 5 11 -7 0 -13 4 -13 10 0 5 7 7 16 3 13 -5 15 -2 10 14 -5 15 1 23 21
34 29 15 39 23 62 52 19 24 -3 51 -30 36 -16 -8 -19 -6 -19 11 0 11 5 20 10
20 6 0 10 5 10 11 0 6 -9 8 -20 4 -16 -5 -20 -2 -20 14 0 35 36 26 50 -11 7
-18 14 -28 17 -21 2 7 -1 21 -6 32 -8 14 -8 22 0 26 6 4 13 -2 16 -13 6 -26
26 -34 47 -19 15 11 15 14 2 32 -15 20 -15 20 -16 -2 0 -13 -4 -23 -10 -23 -5
0 -10 9 -10 21 0 11 -4 17 -10 14 -5 -3 -10 -2 -10 4 0 5 9 13 21 16 16 5 19
12 15 30 -4 16 -1 25 10 29 24 9 26 8 19 -14 -3 -11 -2 -20 3 -20 17 0 21 13
11 31 -7 15 -5 24 11 41 11 12 20 16 20 10 0 -7 5 -12 11 -12 6 0 7 5 2 13 -4
6 -6 20 -5 30 2 9 -2 17 -7 17 -6 0 -11 -8 -11 -19 0 -24 -31 -52 -37 -33 -3
6 -9 12 -15 12 -5 0 -7 -8 -3 -19 3 -10 -1 -24 -10 -31 -13 -11 -19 -11 -31 2
-14 13 -12 17 10 31 14 10 41 33 60 52 40 39 71 47 63 15 -3 -11 -2 -20 2 -20
3 0 12 9 19 20 10 16 10 20 -2 20 -7 0 -19 7 -26 15 -11 13 -8 14 16 9 23 -4
32 0 43 17 l14 23 -27 -18 c-31 -20 -56 -8 -56 26 0 24 26 52 40 43 5 -3 10 3
10 14 0 12 5 21 10 21 6 0 10 -8 10 -17 0 -15 2 -14 14 3 13 17 13 19 0 22
-20 5 -11 28 9 24 21 -4 31 14 11 22 -8 3 -12 10 -9 16 4 6 11 8 16 5 5 -4 14
-3 21 1 8 5 7 9 -4 13 -15 5 -14 10 3 46 11 21 18 43 16 48 -1 5 -13 -14 -25
-42z m-558 -219 c2 -4 -2 -16 -10 -27 -10 -14 -17 -16 -25 -8 -8 8 -8 15 2 27
16 17 26 20 33 8z m429 -21 c7 -29 -110 -145 -147 -146 -6 0 -11 -4 -11 -10 0
-5 4 -9 9 -7 13 4 46 -29 46 -46 0 -17 -28 -52 -42 -52 -5 0 -6 9 -3 20 4 12
2 20 -5 20 -7 0 -10 8 -7 20 6 22 -8 28 -16 6 -3 -9 -15 -12 -31 -9 -16 3 -26
1 -26 -6 0 -7 4 -10 9 -7 5 4 21 2 35 -4 35 -13 34 -40 0 -40 -22 0 -25 2 -14
15 10 12 10 15 -1 15 -8 0 -22 -11 -31 -24 -15 -21 -15 -25 -3 -30 8 -3 15 -1
15 4 0 6 5 10 10 10 6 0 10 -9 10 -21 0 -11 -4 -18 -9 -15 -10 7 -33 -42 -26
-55 4 -5 1 -9 -4 -9 -6 0 -11 -4 -11 -10 0 -5 9 -10 20 -10 16 0 19 5 15 23
-4 15 -1 28 10 37 18 15 21 13 30 -22 6 -24 3 -29 -21 -39 -18 -7 -24 -13 -16
-16 7 -3 23 4 35 14 37 33 47 36 47 14 0 -14 -5 -19 -15 -15 -9 4 -15 0 -15
-9 0 -15 -28 -27 -63 -27 -10 0 -15 5 -12 10 3 6 -3 10 -14 10 -12 0 -21 7
-21 15 0 8 -6 12 -14 9 -8 -3 -19 3 -25 15 -17 31 -13 41 15 41 21 0 25 -4 21
-19 -3 -14 -1 -18 9 -14 8 3 11 9 8 14 -3 5 0 9 5 9 15 0 13 31 -2 51 -7 9
-22 19 -33 23 -43 13 -56 104 -14 93 13 -3 17 0 13 9 -3 8 1 14 8 14 7 0 23
10 36 21 l22 22 20 -24 c11 -13 23 -21 27 -16 4 4 0 13 -8 20 -24 19 -33 57
-13 57 9 0 14 4 11 9 -8 12 21 34 34 26 8 -5 8 -11 -1 -21 -9 -11 -8 -14 5
-14 9 0 16 6 16 14 0 7 14 19 30 26 27 11 32 11 45 -6 8 -11 15 -14 15 -8 0 5
-5 15 -11 21 -8 8 -4 15 12 27 30 21 36 20 42 -3z m-189 -30 c7 -10 -18 -34
-27 -25 -7 8 3 34 13 34 5 0 11 -4 14 -9z m-144 -121 c0 -13 -5 -18 -14 -14
-8 3 -12 12 -9 20 8 21 23 17 23 -6z m58 -142 c7 -7 12 -19 12 -27 0 -12 -3
-11 -18 2 -14 13 -21 14 -30 5 -8 -8 -9 -5 -5 11 6 23 23 27 41 9z m-6 -340
c-7 -7 -12 -8 -12 -2 0 14 12 26 19 19 2 -3 -1 -11 -7 -17z"/>
<path d="M2660 1849 c0 -5 4 -8 9 -5 5 3 11 -1 15 -9 3 -8 11 -15 17 -15 7 0
5 8 -6 20 -20 22 -35 26 -35 9z"/>
<path d="M2600 1810 c0 -5 5 -10 10 -10 6 0 10 5 10 10 0 6 -4 10 -10 10 -5 0
-10 -4 -10 -10z"/>
<path d="M2600 1780 c0 -5 5 -10 10 -10 6 0 10 5 10 10 0 6 -4 10 -10 10 -5 0
-10 -4 -10 -10z"/>
<path d="M2504 1713 c-2 -26 21 -32 30 -8 3 8 16 15 30 15 14 0 28 5 31 10 4
6 -12 9 -42 8 -42 -2 -48 -5 -49 -25z"/>
<path d="M2630 1709 c0 -5 5 -7 10 -4 6 3 10 8 10 11 0 2 -4 4 -10 4 -5 0 -10
-5 -10 -11z"/>
<path d="M2476 1678 c-7 -28 2 -37 15 -18 8 11 12 12 16 3 2 -7 9 -13 14 -13
16 0 9 14 -15 32 -23 17 -24 17 -30 -4z"/>
<path d="M4603 2179 c-16 -16 5 -59 28 -59 10 0 21 -4 24 -10 9 -15 84 -12
101 4 24 25 16 41 -9 18 -13 -12 -31 -22 -40 -22 -22 0 -97 40 -97 52 0 5 5 6
10 3 6 -3 10 1 10 9 0 19 -11 21 -27 5z"/>
<path d="M2440 2170 c0 -5 5 -10 10 -10 6 0 10 5 10 10 0 6 -4 10 -10 10 -5 0
-10 -4 -10 -10z"/>
<path d="M3331 2160 c-8 -4 -1 -10 20 -14 40 -8 47 -3 16 11 -13 6 -29 8 -36
3z"/>
<path d="M1715 2150 c-3 -5 -23 -15 -43 -21 -52 -15 -114 -71 -105 -94 6 -17
7 -16 14 3 7 18 14 21 41 17 29 -4 30 -4 8 4 -17 6 -20 9 -7 10 9 1 17 8 17
16 0 16 63 37 86 28 8 -3 14 1 14 11 0 9 5 16 11 16 5 0 7 5 4 10 -8 13 -32
13 -40 0z"/>
<path d="M2651 2144 c0 -11 3 -14 6 -6 3 7 2 16 -1 19 -3 4 -6 -2 -5 -13z"/>
<path d="M4983 2125 c0 -22 2 -30 4 -17 2 12 2 30 0 40 -3 9 -5 -1 -4 -23z"/>
<path d="M2440 2130 c0 -13 5 -18 14 -14 8 3 12 12 9 20 -8 21 -23 17 -23 -6z"/>
<path d="M2690 2139 c0 -5 5 -7 10 -4 6 3 10 8 10 11 0 2 -4 4 -10 4 -5 0 -10
-5 -10 -11z"/>
<path d="M3220 2143 c0 -5 7 -18 15 -29 12 -16 14 -16 15 -3 0 9 -7 22 -15 29
-8 7 -15 8 -15 3z"/>
<path d="M1785 2103 l-17 -28 23 22 c12 12 20 25 17 28 -3 3 -13 -7 -23 -22z"/>
<path d="M2698 2092 c-32 -20 -58 -40 -58 -45 0 -4 27 11 60 34 51 35 68 49
58 49 -2 0 -29 -17 -60 -38z"/>
<path d="M297 2113 c-4 -3 -7 -15 -7 -26 0 -25 9 -17 15 12 4 22 2 25 -8 14z"/>
<path d="M2626 2104 c-4 -9 -4 -19 -1 -22 2 -3 7 3 11 12 4 9 4 19 1 22 -2 3
-7 -3 -11 -12z"/>
<path d="M2280 2091 c0 -13 5 -19 13 -15 8 3 20 -2 27 -11 7 -8 21 -15 30 -15
10 0 20 -4 22 -10 5 -14 78 -42 78 -30 0 5 -5 10 -11 10 -10 0 -69 33 -136 78
-21 13 -23 13 -23 -7z"/>
<path d="M3480 2100 c0 -5 5 -10 11 -10 5 0 7 5 4 10 -3 6 -8 10 -11 10 -2 0
-4 -4 -4 -10z"/>
<path d="M1490 2095 c0 -11 53 -85 58 -80 3 2 -8 23 -23 45 -26 38 -35 47 -35
35z"/>
<path d="M2436 2092 c-3 -6 -1 -14 5 -17 15 -10 25 3 12 16 -7 7 -13 7 -17 1z"/>
<path d="M4597 2058 c15 -24 28 -45 30 -47 6 -8 40 29 40 44 0 17 -13 20 -22
5 -8 -14 -25 -13 -25 1 0 12 -29 38 -43 39 -4 0 5 -19 20 -42z"/>
<path d="M4790 2086 c0 -9 5 -16 10 -16 6 0 10 4 10 9 0 6 -4 13 -10 16 -5 3
-10 -1 -10 -9z"/>
<path d="M2470 2070 c0 -13 27 -80 33 -80 9 0 -7 66 -19 78 -9 8 -14 9 -14 2z"/>
<path d="M3603 2068 c-23 -30 -24 -41 -2 -21 12 12 20 25 17 28 -3 3 -10 0
-15 -7z"/>
<path d="M4981 2064 c0 -11 3 -14 6 -6 3 7 2 16 -1 19 -3 4 -6 -2 -5 -13z"/>
<path d="M1740 2061 c0 -6 5 -13 10 -16 6 -3 10 1 10 9 0 9 -4 16 -10 16 -5 0
-10 -4 -10 -9z"/>
<path d="M1785 2060 c-3 -5 1 -10 9 -10 8 0 18 5 21 10 3 6 -1 10 -9 10 -8 0
-18 -4 -21 -10z"/>
<path d="M3520 2061 c0 -12 28 -22 35 -12 3 5 -2 12 -11 15 -21 8 -24 8 -24
-3z"/>
<path d="M4812 2049 c-7 -10 -49 -36 -95 -57 -53 -25 -94 -52 -115 -76 -35
-40 -55 -82 -49 -100 3 -6 10 3 16 19 15 38 60 85 80 85 14 0 14 1 1 10 -13 8
-13 10 1 10 10 0 51 16 93 36 57 27 78 42 82 61 8 31 1 37 -14 12z"/>
<path d="M2537 2047 c-8 -21 3 -87 14 -87 11 0 11 57 0 84 -7 17 -8 17 -14 3z"/>
<path d="M3256 2015 c4 -28 11 -57 16 -65 5 -9 6 6 2 40 -3 30 -10 59 -15 65
-6 5 -7 -11 -3 -40z"/>
<path d="M295 2041 c-6 -11 53 -48 130 -82 68 -29 103 -56 126 -93 22 -37 26
-18 4 24 -14 27 -73 80 -90 80 -13 0 -140 63 -143 72 -5 11 -19 10 -27 -1z"/>
<path d="M4981 2024 c0 -11 3 -14 6 -6 3 7 2 16 -1 19 -3 4 -6 -2 -5 -13z"/>
<path d="M1461 2020 c0 -8 10 -39 24 -68 14 -30 25 -56 25 -58 0 -2 -12 -4
-27 -4 -44 0 -73 -11 -73 -27 0 -12 3 -13 14 -4 25 21 84 16 111 -9 32 -30 32
-44 0 -38 -14 3 -25 1 -25 -3 0 -9 34 -18 63 -17 26 2 20 33 -11 60 -15 12
-28 25 -29 28 -1 3 -15 32 -31 65 -16 33 -32 67 -35 75 -5 13 -5 13 -6 0z"/>
<path d="M1602 2021 c2 -7 7 -12 11 -12 12 1 9 15 -3 20 -7 2 -11 -2 -8 -8z"/>
<path d="M1697 2010 c3 -11 7 -20 8 -20 1 0 5 9 8 20 3 12 0 20 -8 20 -8 0
-11 -8 -8 -20z"/>
<path d="M1954 1993 c11 -58 16 -73 28 -73 6 0 8 9 4 23 -4 12 -9 37 -13 55
-3 17 -10 32 -15 32 -6 0 -8 -15 -4 -37z"/>
<path d="M2120 1981 c-6 -12 -7 -21 -1 -21 10 0 24 30 17 37 -2 3 -9 -5 -16
-16z"/>
<path d="M2290 1991 c-8 -6 -18 -7 -22 -5 -4 3 -8 -2 -8 -11 0 -12 5 -15 16
-11 9 4 23 1 30 -5 10 -8 14 -8 14 0 0 6 -5 11 -11 11 -6 0 -9 7 -5 15 6 17 6
18 -14 6z"/>
<path d="M4827 1983 c-12 -11 -8 -23 8 -23 8 0 15 7 15 15 0 16 -12 20 -23 8z"/>
<path d="M290 1970 c0 -5 6 -10 13 -10 8 0 7 -4 -3 -11 -13 -9 -13 -10 0 -6
21 5 26 37 6 37 -9 0 -16 -4 -16 -10z"/>
<path d="M1570 1971 c0 -6 4 -13 10 -16 6 -3 7 1 4 9 -7 18 -14 21 -14 7z"/>
<path d="M2181 1964 c0 -11 3 -14 6 -6 3 7 2 16 -1 19 -3 4 -6 -2 -5 -13z"/>
<path d="M1768 1953 c7 -3 16 -2 19 1 4 3 -2 6 -13 5 -11 0 -14 -3 -6 -6z"/>
<path d="M2601 1944 c0 -11 3 -14 6 -6 3 7 2 16 -1 19 -3 4 -6 -2 -5 -13z"/>
<path d="M2819 1930 c-13 -10 -19 -19 -13 -20 7 0 22 9 35 20 13 10 19 19 13
20 -7 0 -22 -9 -35 -20z"/>
<path d="M1871 1914 c0 -11 3 -14 6 -6 3 7 2 16 -1 19 -3 4 -6 -2 -5 -13z"/>
<path d="M3277 1898 c-2 -18 -1 -40 4 -48 5 -10 8 1 9 33 0 55 -6 61 -13 15z"/>
<path d="M4774 1909 c-14 -16 -15 -23 -6 -26 6 -3 12 -11 12 -19 0 -8 10 -14
23 -14 22 0 22 0 -3 20 -20 15 -23 21 -12 32 10 10 14 9 18 -10 4 -12 10 -22
15 -22 15 0 10 26 -9 44 -18 15 -20 15 -38 -5z"/>
<path d="M285 1911 c-6 -11 9 -23 19 -14 9 9 7 23 -3 23 -6 0 -12 -4 -16 -9z"/>
<path d="M2411 1916 c11 -9 69 -14 69 -6 0 6 -16 10 -37 10 -20 0 -34 -2 -32
-4z"/>
<path d="M1976 1895 c4 -8 13 -15 21 -15 13 0 13 3 3 15 -7 8 -16 15 -21 15
-5 0 -6 -7 -3 -15z"/>
<path d="M4982 1885 c0 -16 2 -22 5 -12 2 9 2 23 0 30 -3 6 -5 -1 -5 -18z"/>
<path d="M162 1880 c0 -14 2 -19 5 -12 2 6 2 18 0 25 -3 6 -5 1 -5 -13z"/>
<path d="M323 1875 c-17 -18 -16 -25 0 -25 8 0 20 -11 27 -25 7 -14 20 -25 29
-25 10 0 6 9 -14 30 -23 24 -26 32 -15 45 10 12 10 15 -1 15 -8 -1 -20 -7 -26
-15z"/>
<path d="M3190 1873 c0 -14 55 -64 63 -56 13 12 7 25 -8 20 -8 -4 -23 5 -35
20 -11 14 -20 21 -20 16z"/>
<path d="M3667 1873 c-4 -3 0 -11 9 -17 20 -15 9 -70 -12 -62 -8 3 -14 -1 -14
-9 0 -19 24 -19 39 -2 19 24 25 78 10 88 -17 11 -24 11 -32 2z"/>
<path d="M443 1830 c-54 -51 -93 -118 -93 -159 0 -32 46 -143 62 -149 4 -2 8
-10 8 -18 0 -7 9 -19 20 -26 11 -7 20 -18 20 -24 0 -6 9 -19 19 -28 11 -10 22
-28 24 -40 4 -21 4 -21 6 1 0 13 10 37 21 55 26 43 25 60 -5 96 -26 31 -53 33
-76 6 -13 -16 -5 -18 20 -4 14 7 24 3 44 -18 24 -25 25 -29 12 -59 -12 -29
-35 -45 -35 -25 0 4 -12 21 -28 37 -43 47 -92 152 -92 197 0 43 34 100 89 151
17 16 31 33 31 38 0 13 -1 12 -47 -31z"/>
<path d="M1433 1833 c-12 -19 -13 -26 -3 -38 14 -17 30 -20 30 -4 0 5 -4 7
-10 4 -14 -9 -12 8 4 30 7 10 20 16 28 13 8 -4 21 -2 29 3 8 5 10 9 4 10 -59
5 -68 3 -82 -18z"/>
<path d="M161 1834 c0 -11 3 -14 6 -6 3 7 2 16 -1 19 -3 4 -6 -2 -5 -13z"/>
<path d="M2030 1840 c0 -5 7 -7 15 -4 8 4 15 8 15 10 0 2 -7 4 -15 4 -8 0 -15
-4 -15 -10z"/>
<path d="M2890 1831 c0 -5 7 -11 15 -15 8 -3 15 -1 15 3 0 5 -7 11 -15 15 -8
3 -15 1 -15 -3z"/>
<path d="M3090 1821 c0 -5 5 -13 10 -16 6 -3 10 -2 10 4 0 5 -4 13 -10 16 -5
3 -10 2 -10 -4z"/>
<path d="M4601 1805 c-17 -15 -31 -35 -31 -46 0 -22 51 -52 74 -43 23 9 20 27
-3 19 -24 -7 -51 3 -51 21 0 20 40 53 57 47 8 -3 12 -12 9 -20 -3 -8 -1 -11 4
-8 19 12 77 -15 89 -41 15 -34 14 -85 -4 -125 -37 -84 -106 -181 -136 -191 -9
-3 -9 -9 -2 -22 9 -16 11 -15 28 11 10 15 31 42 47 58 16 17 44 61 63 99 41
81 46 139 15 179 -24 30 -25 43 -5 51 8 3 15 13 15 22 0 15 -4 14 -25 -6 l-25
-24 -38 19 c-20 11 -40 21 -43 23 -4 1 -21 -9 -38 -23z"/>
<path d="M2010 1804 c0 -8 5 -12 10 -9 6 3 10 10 10 16 0 5 -4 9 -10 9 -5 0
-10 -7 -10 -16z"/>
<path d="M3600 1810 c0 -13 18 -22 24 -11 3 5 -1 11 -9 15 -8 3 -15 1 -15 -4z"/>
<path d="M4796 1805 c-3 -8 -1 -17 3 -20 5 -3 11 2 15 10 3 8 1 17 -3 20 -5 3
-11 -2 -15 -10z"/>
<path d="M1474 1788 c3 -13 6 -26 6 -30 0 -5 10 -8 23 -8 21 1 21 1 3 15 -11
8 -16 21 -13 30 4 9 1 15 -9 15 -12 0 -15 -6 -10 -22z"/>
<path d="M2465 1800 c-3 -5 3 -10 14 -10 12 0 21 5 21 10 0 6 -6 10 -14 10 -8
0 -18 -4 -21 -10z"/>
<path d="M3275 1800 c-3 -5 -1 -10 4 -10 6 0 11 5 11 10 0 6 -2 10 -4 10 -3 0
-8 -4 -11 -10z"/>
<path d="M500 1790 c-8 -4 -26 -13 -40 -19 -22 -10 -20 -11 20 -9 55 2 61 4
53 23 -6 17 -11 18 -33 5z"/>
<path d="M1530 1769 c0 -14 48 -41 59 -34 17 10 -10 43 -36 43 -12 0 -23 -4
-23 -9z"/>
<path d="M510 1738 c0 -9 -12 -26 -27 -37 l-28 -20 26 -1 c14 0 34 9 44 20 18
19 18 22 2 37 -16 16 -17 16 -17 1z m12 -30 c-7 -7 -12 -8 -12 -2 0 14 12 26
19 19 2 -3 -1 -11 -7 -17z"/>
<path d="M2767 1730 c-3 -11 -3 -20 -1 -20 2 0 8 9 14 20 6 11 7 20 2 20 -6 0
-12 -9 -15 -20z"/>
<path d="M1700 1709 c0 -17 20 -49 31 -49 5 0 3 14 -6 30 -16 31 -25 38 -25
19z"/>
<path d="M4593 1693 c-14 -5 -18 -23 -5 -23 5 0 17 7 28 15 14 11 15 14 4 14
-8 0 -21 -3 -27 -6z"/>
<path d="M4684 1688 c3 -7 9 -21 12 -30 10 -28 26 -21 22 9 -2 18 -10 29 -22
31 -12 3 -16 0 -12 -10z"/>
<path d="M2766 1675 c-3 -8 -12 -12 -21 -9 -11 5 -14 1 -12 -15 2 -11 7 -24
12 -28 4 -5 5 -3 2 4 -4 6 4 20 18 31 26 21 32 32 16 32 -5 0 -11 -7 -15 -15z"/>
<path d="M416 1665 c-9 -26 -7 -32 5 -12 6 10 9 21 6 23 -2 3 -7 -2 -11 -11z"/>
<path d="M1850 1637 c0 -18 38 -52 47 -43 5 4 0 12 -10 17 -9 6 -17 17 -17 24
0 8 -4 15 -10 15 -5 0 -10 -6 -10 -13z"/>
<path d="M547 1633 c-3 -5 -1 -28 3 -53 l7 -45 2 53 c1 49 -2 62 -12 45z"/>
<path d="M2817 1623 c-4 -3 -7 -11 -7 -17 0 -6 5 -5 12 2 6 6 9 14 7 17 -3 3
-9 2 -12 -2z"/>
<path d="M2314 1604 c3 -23 13 -26 18 -6 3 11 0 19 -7 19 -7 0 -12 -6 -11 -13z"/>
<path d="M1577 1590 c-5 -19 -2 -20 47 -14 l52 6 46 -51 c26 -28 51 -51 57
-51 19 0 12 32 -8 37 -12 3 -17 11 -14 19 3 8 -1 14 -11 14 -9 0 -19 7 -22 15
-7 18 -69 39 -95 32 -10 -3 -19 -1 -19 4 0 18 -28 9 -33 -11z"/>
<path d="M1914 1588 c7 -31 19 -48 35 -48 23 0 31 -9 24 -27 -4 -9 -8 -11 -12
-4 -4 6 -7 -7 -7 -29 0 -22 4 -40 8 -40 5 0 6 5 3 10 -3 6 -1 10 5 10 6 0 10
7 8 16 -2 10 3 19 11 22 8 3 11 0 7 -7 -5 -7 -1 -9 10 -4 14 5 16 2 12 -15 -4
-12 -3 -24 2 -27 4 -3 11 7 15 22 4 17 2 29 -4 31 -6 2 -11 10 -11 18 0 8 -7
14 -15 14 -8 0 -15 5 -15 10 0 10 -36 50 -45 50 -2 0 -1 -7 2 -17 4 -11 3 -14
-5 -9 -7 4 -12 14 -12 22 0 8 -4 14 -9 14 -5 0 -8 -6 -7 -12z"/>
<path d="M3488 1585 c23 -7 50 -19 59 -27 14 -11 16 -11 11 2 -6 21 -47 40
-83 39 -27 0 -26 -2 13 -14z"/>
<path d="M3205 1574 c-8 -9 -15 -23 -15 -31 0 -9 -7 -25 -17 -35 -19 -21 -10
-37 11 -19 10 8 16 9 21 1 3 -5 17 -7 30 -4 12 3 26 1 29 -4 3 -6 15 -8 26 -5
11 3 20 1 20 -5 0 -6 9 -14 21 -17 16 -5 18 -10 8 -21 -9 -11 -7 -14 10 -14
25 0 27 17 5 41 -16 17 -14 21 22 61 21 24 45 48 53 55 15 11 14 12 0 13 -8 0
-28 -13 -44 -30 -16 -16 -34 -30 -41 -30 -7 0 -15 -9 -19 -20 -6 -18 -8 -18
-41 -3 -18 9 -34 23 -34 30 0 7 -4 13 -10 13 -5 0 -10 -9 -10 -20 0 -11 -6
-20 -14 -20 -21 0 -7 50 17 59 17 7 18 9 4 14 -9 3 -23 -1 -32 -9z"/>
<path d="M1864 1555 c5 -20 -1 -29 -41 -56 -27 -18 -49 -33 -50 -33 -1 -1 -4
-12 -8 -26 l-6 -25 128 -2 c70 -1 143 -5 162 -8 25 -5 32 -3 29 7 -3 7 -25 15
-51 18 -25 3 -43 2 -40 -3 2 -4 -6 -6 -19 -3 -12 3 -41 7 -63 10 -22 3 -48 8
-57 11 -9 4 -26 1 -38 -5 -25 -13 -42 -4 -20 11 33 21 122 41 133 30 8 -8 6
-11 -8 -11 -11 0 -27 -5 -35 -11 -11 -8 -8 -9 15 -4 45 10 57 23 42 46 -7 11
-17 17 -23 15 -6 -2 -11 1 -11 7 1 33 -5 45 -24 50 -18 5 -20 2 -15 -18z m26
-25 c0 -10 -10 -24 -22 -30 -21 -10 -21 -10 -5 3 9 8 17 22 17 31 0 9 2 16 5
16 3 0 5 -9 5 -20z"/>
<path d="M2677 1574 c-11 -11 3 -24 18 -18 8 4 12 10 9 15 -6 11 -18 12 -27 3z"/>
<path d="M2805 1570 c3 -5 13 -10 21 -10 8 0 14 5 14 10 0 6 -9 10 -21 10 -11
0 -17 -4 -14 -10z"/>
<path d="M1770 1550 c0 -5 5 -10 11 -10 5 0 7 5 4 10 -3 6 -8 10 -11 10 -2 0
-4 -4 -4 -10z"/>
<path d="M4591 1527 c-23 -37 -26 -63 -11 -87 6 -10 9 -5 8 18 -1 47 36 85 77
76 21 -4 27 -3 20 5 -6 6 -24 13 -41 17 -28 5 -34 2 -53 -29z"/>
<path d="M2040 1520 c0 -13 5 -20 13 -17 6 2 12 10 12 17 0 7 -6 15 -12 18 -8
2 -13 -5 -13 -18z"/>
<path d="M2794 1532 c-12 -9 -16 -52 -4 -52 4 0 7 8 6 18 -2 9 2 20 8 24 6 4
8 9 5 12 -2 3 -9 2 -15 -2z"/>
<path d="M1803 1523 c9 -2 23 -2 30 0 6 3 -1 5 -18 5 -16 0 -22 -2 -12 -5z"/>
<path d="M2086 1506 c5 -20 2 -26 -10 -26 -9 0 -16 -2 -16 -4 0 -2 -3 -13 -6
-23 -5 -14 -4 -15 4 -4 9 12 15 13 36 3 20 -9 26 -19 26 -42 0 -28 1 -29 25
-18 34 15 41 45 18 76 -11 14 -26 28 -34 30 -8 3 -5 -5 9 -20 23 -25 30 -58
12 -58 -5 0 -10 9 -10 20 0 10 -8 23 -17 29 -10 5 -18 19 -18 32 0 12 -6 24
-13 27 -9 3 -11 -3 -6 -22z"/>
<path d="M4810 1486 c0 -8 5 -18 10 -21 6 -3 10 1 10 9 0 8 -4 18 -10 21 -5 3
-10 -1 -10 -9z"/>
<path d="M316 1483 c-9 -9 -7 -33 3 -33 12 0 22 28 12 34 -5 3 -11 3 -15 -1z"/>
<path d="M2452 1463 c15 -15 30 -24 34 -21 8 8 -32 48 -48 48 -7 0 0 -12 14
-27z"/>
<path d="M2662 1485 c4 -4 3 -16 -3 -26 -5 -11 -7 -19 -5 -19 3 0 10 9 16 19
7 15 7 22 -2 27 -7 4 -10 4 -6 -1z"/>
<path d="M3135 1480 c3 -5 8 -10 11 -10 2 0 4 5 4 10 0 6 -5 10 -11 10 -5 0
-7 -4 -4 -10z"/>
<path d="M356 1464 c-14 -14 -22 -34 -13 -34 7 0 47 37 47 44 0 11 -18 6 -34
-10z"/>
<path d="M2200 1470 c0 -5 5 -10 11 -10 5 0 7 5 4 10 -3 6 -8 10 -11 10 -2 0
-4 -4 -4 -10z"/>
<path d="M4768 1462 c-10 -2 -18 -8 -18 -13 0 -13 27 -11 35 2 9 13 4 16 -17
11z"/>
<path d="M2780 1449 c0 -5 5 -7 10 -4 6 3 10 8 10 11 0 2 -4 4 -10 4 -5 0 -10
-5 -10 -11z"/>
<path d="M2220 1445 c0 -4 7 -22 16 -41 9 -19 14 -45 12 -59 -4 -17 -1 -25 9
-25 11 0 13 7 9 26 -5 17 -3 23 4 19 5 -3 10 -12 10 -20 0 -15 30 -49 37 -41
6 6 -13 41 -34 62 -10 9 -23 31 -29 47 -9 27 -34 50 -34 32z"/>
<path d="M3209 1445 c-3 -2 -33 -6 -67 -9 -62 -5 -126 -36 -102 -51 6 -4 17
-2 25 5 7 6 31 13 52 15 98 11 192 29 187 37 -5 8 -87 11 -95 3z"/>
<path d="M2460 1419 c0 -5 5 -7 10 -4 6 3 10 8 10 11 0 2 -4 4 -10 4 -5 0 -10
-5 -10 -11z"/>
<path d="M3611 1414 c0 -11 3 -14 6 -6 3 7 2 16 -1 19 -3 4 -6 -2 -5 -13z"/>
<path d="M291 1413 c-1 -18 21 -63 31 -63 12 0 10 18 -3 25 -6 4 -14 17 -19
29 -5 11 -9 16 -9 9z"/>
<path d="M2191 1403 c12 -15 12 -16 -3 -11 -21 8 -28 -10 -28 -70 -1 -46 -1
-46 -15 -21 -20 38 -84 77 -141 88 -61 12 -94 5 -94 -19 0 -17 2 -17 30 -3 37
18 82 6 148 -39 l43 -30 -7 -59 c-6 -58 -6 -59 18 -59 24 0 48 16 48 32 0 5
-9 4 -19 -2 -14 -7 -22 -7 -26 1 -10 16 1 22 40 23 19 1 35 4 35 9 0 4 8 7 18
7 30 0 33 11 12 40 -11 16 -20 33 -20 39 0 6 -7 11 -15 11 -9 0 -12 -6 -9 -15
4 -8 10 -15 15 -15 5 0 9 -5 9 -11 0 -7 7 -17 15 -23 13 -9 11 -11 -12 -12
-16 0 -44 -3 -63 -7 -29 -5 -32 -4 -19 6 25 20 37 49 33 87 -2 19 -1 27 2 18
3 -10 9 -18 14 -18 7 0 8 19 1 63 0 4 -6 7 -12 7 -8 0 -7 -6 2 -17z"/>
<path d="M2091 1397 c-6 -8 -8 -17 -4 -20 11 -12 19 -7 20 13 2 24 -1 25 -16
7z"/>
<path d="M2490 1400 c0 -5 5 -10 10 -10 6 0 10 5 10 10 0 6 -4 10 -10 10 -5 0
-10 -4 -10 -10z"/>
<path d="M2580 1386 c0 -9 -7 -16 -15 -16 -8 0 -15 -5 -15 -11 0 -7 7 -8 18
-4 29 12 45 11 50 -4 3 -8 0 -11 -6 -7 -7 4 -20 -10 -32 -33 -11 -22 -16 -42
-11 -46 5 -3 12 -1 16 5 3 5 3 10 -1 10 -4 0 1 9 10 19 10 11 15 24 12 29 -3
5 2 9 12 8 11 0 18 7 20 21 2 17 -1 21 -11 17 -8 -3 -22 2 -31 11 -14 15 -16
15 -16 1z"/>
<path d="M4780 1386 c0 -8 5 -18 10 -21 6 -3 10 1 10 9 0 8 -4 18 -10 21 -5 3
-10 -1 -10 -9z"/>
<path d="M2222 1370 c0 -14 2 -19 5 -12 2 6 2 18 0 25 -3 6 -5 1 -5 -13z"/>
<path d="M542 1336 c-16 -63 -65 -109 -137 -132 -30 -10 -55 -21 -55 -24 0
-12 104 19 130 38 46 34 82 95 78 133 -3 33 -3 33 -16 -15z"/>
<path d="M2130 1360 c0 -5 5 -10 10 -10 6 0 10 5 10 10 0 6 -4 10 -10 10 -5 0
-10 -4 -10 -10z"/>
<path d="M4561 1350 c-1 -30 34 -110 48 -110 5 0 0 19 -11 43 -12 23 -24 53
-29 67 l-7 25 -1 -25z"/>
<path d="M380 1335 c0 -8 7 -15 15 -15 9 0 12 6 9 15 -4 8 -10 15 -15 15 -5 0
-9 -7 -9 -15z"/>
<path d="M2540 1336 c0 -2 7 -9 15 -16 12 -10 15 -10 15 4 0 9 -7 16 -15 16
-8 0 -15 -2 -15 -4z"/>
<path d="M4693 1328 c-25 -12 -29 -23 -13 -33 5 -3 18 3 30 15 31 31 25 38
-17 18z"/>
<path d="M416 1314 c-4 -11 -1 -14 11 -12 9 2 18 9 21 16 6 18 -25 15 -32 -4z"/>
<path d="M2614 1303 c-8 -14 -4 -22 23 -46 30 -26 34 -35 29 -65 -3 -24 -16
-47 -41 -70 -30 -29 -34 -36 -23 -51 7 -9 14 -18 16 -21 2 -3 2 4 0 15 -2 15
2 19 16 17 10 -2 16 1 13 5 -3 5 5 28 19 52 13 24 21 47 18 52 -3 5 0 9 5 9
17 0 13 -35 -8 -61 -18 -23 -18 -25 0 -43 17 -17 19 -18 19 -3 0 9 -4 17 -10
17 -5 0 -7 7 -4 15 4 8 10 13 14 10 5 -3 12 0 16 6 4 8 3 9 -4 5 -7 -4 -12 -3
-12 3 0 5 5 13 10 16 6 4 8 10 5 15 -3 5 3 13 12 19 16 9 16 10 2 11 -12 0
-15 8 -13 27 3 28 -11 53 -28 53 -6 0 -5 -7 2 -15 8 -9 9 -15 2 -15 -6 0 -14
5 -17 11 -4 6 -13 8 -20 5 -8 -3 -19 3 -27 12 -12 15 -11 16 5 3 10 -8 17 -10
16 -5 -3 20 2 26 14 15 10 -8 18 -7 31 2 14 10 13 12 -12 11 -16 0 -33 -4 -39
-7 -6 -4 -13 -3 -15 3 -2 6 -8 2 -14 -7z m86 -87 c-14 -14 -24 0 -16 21 6 15
8 15 16 3 6 -9 5 -19 0 -24z"/>
<path d="M2200 1290 c0 -5 5 -10 11 -10 5 0 7 5 4 10 -3 6 -8 10 -11 10 -2 0
-4 -4 -4 -10z"/>
<path d="M2530 1291 c0 -6 5 -13 10 -16 6 -3 10 1 10 9 0 9 -4 16 -10 16 -5 0
-10 -4 -10 -9z"/>
<path d="M320 1260 c0 -13 5 -20 13 -17 6 2 12 10 12 17 0 7 -6 15 -12 18 -8
2 -13 -5 -13 -18z"/>
<path d="M4777 1274 c-8 -8 3 -34 14 -34 11 0 12 27 0 34 -4 3 -11 3 -14 0z"/>
<path d="M2540 1256 c0 -2 7 -6 15 -10 8 -3 15 -1 15 4 0 6 -7 10 -15 10 -8 0
-15 -2 -15 -4z"/>
<path d="M2580 1253 c0 -5 9 -14 20 -21 11 -7 20 -8 20 -2 0 5 -9 14 -20 20
-11 6 -20 7 -20 3z"/>
<path d="M2497 1243 c-4 -3 -6 -20 -6 -37 2 -27 2 -28 6 -6 3 14 10 31 15 38
11 12 -3 18 -15 5z"/>
<path d="M2527 1223 c-2 -5 -7 -21 -11 -36 -4 -15 -11 -25 -15 -22 -5 3 -7 -4
-4 -14 3 -13 12 -18 25 -16 14 3 22 -2 25 -15 3 -11 10 -20 15 -20 5 0 7 4 3
9 -3 5 8 18 25 27 16 10 30 21 30 25 0 4 3 14 6 23 3 9 1 16 -6 16 -6 0 -9 -3
-6 -8 7 -12 -20 -43 -41 -46 -22 -4 -53 11 -53 25 0 5 12 7 27 5 36 -7 56 10
42 35 -9 19 -54 27 -62 12z m51 -15 c-2 -6 -10 -14 -16 -16 -7 -2 -10 2 -6 12
7 18 28 22 22 4z"/>
<path d="M4616 1214 c-9 -24 -7 -29 6 -16 7 7 28 12 48 13 28 0 31 2 15 9 -32
14 -62 11 -69 -6z"/>
<path d="M507 1200 c-16 -19 -16 -20 3 -20 13 0 20 7 20 20 0 11 -1 20 -3 20
-1 0 -10 -9 -20 -20z"/>
<path d="M4720 1200 c20 -13 43 -13 35 0 -3 6 -16 10 -28 10 -18 0 -19 -2 -7
-10z"/>
<path d="M290 1184 c0 -8 5 -12 10 -9 6 4 8 11 5 16 -9 14 -15 11 -15 -7z"/>
<path d="M4780 1190 c0 -5 5 -10 11 -10 5 0 7 5 4 10 -3 6 -8 10 -11 10 -2 0
-4 -4 -4 -10z"/>
<path d="M480 1139 c0 -5 5 -7 10 -4 6 3 10 8 10 11 0 2 -4 4 -10 4 -5 0 -10
-5 -10 -11z"/>
<path d="M240 1131 c0 -6 4 -13 10 -16 6 -3 7 1 4 9 -7 18 -14 21 -14 7z"/>
<path d="M465 1111 c-6 -11 9 -23 19 -14 9 9 7 23 -3 23 -6 0 -12 -4 -16 -9z"/>
<path d="M2783 1113 c-22 -8 -14 -21 17 -28 37 -8 55 1 39 21 -11 14 -33 17
-56 7z"/>
<path d="M2563 1076 c4 -10 7 -22 7 -27 0 -5 4 -9 10 -9 14 0 6 43 -10 48 -9
3 -11 -1 -7 -12z"/>
<path d="M4660 1071 c0 -6 5 -13 10 -16 6 -3 10 1 10 9 0 9 -4 16 -10 16 -5 0
-10 -4 -10 -9z"/>
<path d="M445 1040 c-3 -5 1 -10 10 -10 9 0 13 5 10 10 -3 6 -8 10 -10 10 -2
0 -7 -4 -10 -10z"/>
<path d="M488 1043 c7 -3 16 -2 19 1 4 3 -2 6 -13 5 -11 0 -14 -3 -6 -6z"/>
<path d="M4625 1039 c-4 -6 -5 -13 -2 -16 7 -7 27 6 27 18 0 12 -17 12 -25 -2z"/>
<path d="M2618 1032 c-16 -2 -28 -8 -28 -14 0 -6 11 -7 27 -3 47 11 47 23 1
17z"/>
<path d="M2512 1018 c5 -15 52 -17 56 -3 1 5 -12 11 -29 12 -20 2 -29 -1 -27
-9z"/>
<path d="M4640 1001 c0 -6 5 -13 10 -16 6 -3 10 1 10 9 0 9 -4 16 -10 16 -5 0
-10 -4 -10 -9z"/>
<path d="M2523 361 c-55 -60 -78 -111 -49 -111 9 0 16 7 16 16 0 8 19 40 42
70 l43 54 32 -37 c38 -44 45 -88 13 -80 -11 3 -20 1 -20 -3 0 -5 9 -12 20 -15
11 -3 20 -11 20 -16 0 -5 5 -9 10 -9 6 0 10 16 10 35 0 33 2 35 21 25 38 -21
32 -38 -38 -115 -68 -75 -68 -76 -82 -53 -8 13 -44 51 -80 86 l-66 63 25 19
c21 16 22 20 7 20 -10 0 -38 -20 -64 -45 -43 -43 -41 -62 3 -31 19 14 25 11
86 -47 36 -34 74 -76 84 -94 l18 -32 22 30 c12 16 47 56 77 88 49 52 60 58 94
57 21 -1 38 4 38 9 0 6 -15 8 -34 7 -24 -3 -31 0 -26 8 4 6 16 10 26 7 11 -3
19 -1 19 4 0 15 -30 23 -42 11 -22 -22 -158 87 -158 127 0 20 -14 9 -67 -48z"/>
<path d="M2558 305 c-6 -13 -19 -27 -30 -30 -10 -4 -18 -13 -18 -21 0 -18 14
-18 30 1 23 27 29 16 29 -51 -1 -60 4 -84 15 -73 10 10 8 116 -2 135 -6 12 -7
25 -1 35 12 19 11 29 -1 29 -6 0 -16 -11 -22 -25z"/>
</g>
</svg>
