<?xml version="1.0" standalone="no"?>
<!DOCTYPE svg PUBLIC "-//W3C//DTD SVG 20010904//EN"
 "http://www.w3.org/TR/2001/REC-SVG-20010904/DTD/svg10.dtd">
<svg version="1.0" xmlns="http://www.w3.org/2000/svg"
 width="512.000000pt" height="512.000000pt" viewBox="0 0 512.000000 512.000000"
 preserveAspectRatio="xMidYMid meet">
<metadata>
Created by potrace 1.16, written by Peter Selinger 2001-2019
</metadata>
<g transform="translate(0.000000,512.000000) scale(0.100000,-0.100000)"
fill="#000000" stroke="none">
<path d="M2490 4632 c-18 -11 -36 -24 -38 -31 -2 -7 12 -4 34 8 49 27 100 28
106 3 4 -15 25 -22 117 -36 62 -9 119 -20 127 -23 8 -3 14 -1 14 4 0 8 -111
36 -198 49 -27 4 -46 14 -53 25 -13 25 -63 25 -109 1z"/>
<path d="M2275 4464 c-66 -46 -128 -91 -138 -99 -39 -33 -118 -66 -191 -80
-43 -8 -80 -15 -82 -15 -2 0 -4 -4 -4 -9 0 -9 85 -6 137 5 20 4 252 155 349
228 23 17 50 36 60 43 15 9 15 12 4 12 -8 0 -69 -38 -135 -85z"/>
<path d="M3975 4389 c-61 -7 -113 -11 -385 -29 -85 -6 -204 -15 -265 -20 -60
-5 -136 -10 -167 -10 -35 0 -58 -4 -58 -11 0 -7 26 -9 78 -5 42 3 151 11 242
17 150 9 264 18 644 50 70 6 157 9 191 7 35 -2 61 0 58 4 -6 10 -250 8 -338
-3z"/>
<path d="M4355 4360 c3 -5 11 -10 16 -10 6 0 7 5 4 10 -3 6 -11 10 -16 10 -6
0 -7 -4 -4 -10z"/>
<path d="M3025 4320 c3 -5 8 -10 11 -10 2 0 4 5 4 10 0 6 -5 10 -11 10 -5 0
-7 -4 -4 -10z"/>
<path d="M3080 4280 c82 -73 121 -102 128 -96 4 4 -1 14 -12 21 -10 8 -35 29
-55 47 -20 18 -49 39 -66 46 l-30 13 35 -31z"/>
<path d="M3204 4283 c3 -10 8 -30 12 -45 5 -23 12 -28 35 -28 32 0 36 13 18
54 -10 21 -35 35 -62 36 -5 0 -6 -8 -3 -17z m43 -23 c6 -24 5 -30 -4 -30 -12
0 -23 50 -11 50 5 0 12 -9 15 -20z"/>
<path d="M1779 4276 c-2 -2 -67 -7 -144 -11 -77 -4 -158 -9 -180 -10 -72 -4
-239 -17 -265 -20 -14 -2 -100 -9 -192 -16 -93 -7 -168 -16 -168 -21 0 -5 21
-6 48 -3 70 8 908 65 960 65 6 0 12 5 12 10 0 9 -62 15 -71 6z"/>
<path d="M4423 4235 c0 -27 2 -38 4 -22 2 15 2 37 0 50 -2 12 -4 0 -4 -28z"/>
<path d="M2050 4253 c-14 -10 -36 -23 -50 -30 -21 -10 -22 -11 -5 -12 11 0 36
13 55 29 38 33 38 40 0 13z"/>
<path d="M3324 4255 c-8 -20 3 -48 18 -43 19 7 22 58 3 58 -9 0 -18 -7 -21
-15z"/>
<path d="M3975 4229 c-55 -4 -212 -13 -350 -19 -137 -7 -257 -16 -265 -21 -22
-12 6 -11 345 11 165 10 328 20 362 22 35 2 63 6 63 11 0 8 -10 8 -155 -4z"/>
<path d="M1795 4209 c-33 -5 -94 -12 -135 -17 l-75 -9 74 -2 c76 -1 221 14
276 29 25 7 21 8 -25 8 -30 0 -82 -4 -115 -9z"/>
<path d="M1865 4160 c-27 -11 -60 -19 -72 -20 -12 0 -25 -5 -28 -10 -9 -15 71
-1 123 21 23 10 42 20 42 23 0 9 -9 6 -65 -14z"/>
<path d="M3248 4173 c7 -3 16 -2 19 1 4 3 -2 6 -13 5 -11 0 -14 -3 -6 -6z"/>
<path d="M790 4153 c0 -10 5 -25 10 -33 8 -11 10 -7 8 18 -2 33 -18 46 -18 15z"/>
<path d="M1340 4164 c-14 -2 -60 -6 -103 -9 -139 -12 -75 -16 99 -6 l169 9 59
-39 c32 -22 62 -39 67 -39 23 0 4 24 -46 55 -51 33 -58 35 -137 34 -46 -1 -94
-3 -108 -5z"/>
<path d="M3346 4152 c132 -113 216 -176 194 -147 -8 11 -26 29 -40 40 -14 11
-49 41 -78 68 -29 26 -60 47 -69 47 -10 0 -13 -3 -7 -8z"/>
<path d="M3698 4143 c7 -3 16 -2 19 1 4 3 -2 6 -13 5 -11 0 -14 -3 -6 -6z"/>
<path d="M4422 4130 c0 -14 2 -19 5 -12 2 6 2 18 0 25 -3 6 -5 1 -5 -13z"/>
<path d="M992 4108 c-7 -7 -12 -18 -12 -26 0 -12 2 -12 17 -1 15 13 15 12 6
-6 -16 -30 1 -65 31 -65 32 0 51 32 36 60 -6 11 -15 20 -20 20 -6 0 -10 4 -10
10 0 5 7 6 17 3 11 -4 14 -3 9 5 -9 16 -59 15 -74 0z m64 -67 c-11 -18 -36
-13 -36 7 0 10 3 22 7 26 10 10 37 -20 29 -33z"/>
<path d="M3692 4102 c-36 -30 -102 -116 -102 -132 0 -9 12 0 27 20 15 19 46
54 70 77 41 41 45 70 5 35z"/>
<path d="M820 4090 c0 -5 5 -10 10 -10 6 0 10 5 10 10 0 6 -4 10 -10 10 -5 0
-10 -4 -10 -10z"/>
<path d="M3726 4059 c-9 -13 -16 -28 -16 -33 0 -5 -7 -18 -17 -28 -9 -10 -11
-18 -5 -18 6 0 19 12 29 28 9 15 23 33 32 40 11 9 12 15 4 23 -8 8 -15 4 -27
-12z"/>
<path d="M799 4003 c-4 -447 -2 -913 4 -913 4 0 7 221 7 490 0 270 -2 490 -5
490 -3 0 -5 -30 -6 -67z"/>
<path d="M4422 4045 c0 -16 2 -22 5 -12 2 9 2 23 0 30 -3 6 -5 -1 -5 -18z"/>
<path d="M970 4042 c0 -44 75 -94 95 -62 3 6 -3 10 -14 10 -34 0 -53 12 -67
44 -12 27 -13 28 -14 8z"/>
<path d="M3712 3978 c-50 -48 -60 -63 -51 -74 9 -11 17 -6 40 30 31 49 77 85
87 69 9 -13 42 -25 42 -15 0 5 -13 18 -28 29 l-28 21 -62 -60z"/>
<path d="M3647 3981 c-15 -16 -27 -35 -27 -43 0 -13 31 20 51 55 14 24 8 21
-24 -12z"/>
<path d="M4422 3990 c0 -14 2 -19 5 -12 2 6 2 18 0 25 -3 6 -5 1 -5 -13z"/>
<path d="M1276 3963 c-6 -14 -5 -15 5 -6 7 7 10 15 7 18 -3 3 -9 -2 -12 -12z"/>
<path d="M1335 3970 c-10 -16 3 -29 24 -23 19 5 26 -1 80 -67 17 -21 20 -22
21 -7 0 19 -86 107 -106 107 -7 0 -16 -4 -19 -10z"/>
<path d="M2425 3965 c-161 -32 -342 -112 -435 -192 -14 -11 -60 -49 -102 -82
-43 -34 -78 -65 -78 -69 1 -9 68 -82 76 -82 4 0 35 27 70 60 233 217 547 303
843 229 136 -34 319 -128 416 -214 22 -19 45 -35 51 -35 7 0 26 16 44 36 24
28 29 39 19 45 -8 4 -20 3 -29 -4 -13 -10 -13 -10 -2 4 11 14 6 23 -34 63 -26
25 -50 43 -54 41 -4 -2 -25 9 -46 25 -21 16 -45 30 -51 30 -7 0 -13 4 -13 9 0
12 -65 34 -87 29 -12 -2 -1 -12 32 -28 28 -14 53 -25 57 -25 3 0 20 -12 37
-27 17 -16 38 -28 46 -28 8 0 15 -6 15 -13 0 -8 18 -22 40 -33 35 -16 40 -23
38 -48 -4 -39 -17 -42 -50 -11 -15 14 -30 25 -34 25 -3 0 -23 14 -44 30 -95
75 -290 151 -438 171 -88 12 -264 7 -332 -10 -136 -32 -295 -113 -408 -207
-78 -65 -89 -71 -102 -58 -13 14 -8 23 54 79 38 36 74 61 80 58 6 -3 8 -3 4 2
-15 16 139 106 287 170 53 22 138 44 202 51 72 8 275 -4 268 -16 -2 -4 22 -13
55 -19 33 -7 79 -21 103 -31 23 -11 53 -19 67 -18 24 1 25 1 2 5 -16 3 -22 10
-18 19 4 9 -3 18 -17 23 -24 9 -125 24 -141 21 -5 -1 -12 4 -17 11 -9 15 -19
17 -179 23 -86 4 -147 1 -195 -9z m522 -61 c-3 -3 -12 -4 -19 -1 -8 3 -5 6 6
6 11 1 17 -2 13 -5z"/>
<path d="M3748 3963 c-27 -32 -58 -94 -52 -104 8 -14 26 1 20 16 -2 7 8 34 24
59 31 48 34 58 8 29z"/>
<path d="M3781 3925 c-57 -62 -53 -85 33 -186 63 -75 102 -98 74 -44 -15 28
-86 105 -96 105 -4 0 -13 14 -19 31 -15 38 -7 54 42 97 38 34 42 42 21 42 -7
0 -32 -20 -55 -45z"/>
<path d="M4422 3940 c0 -14 2 -19 5 -12 2 6 2 18 0 25 -3 6 -5 1 -5 -13z"/>
<path d="M1652 3924 c-17 -14 -37 -35 -44 -47 -6 -12 9 -2 35 22 43 41 52 51
45 51 -2 0 -18 -12 -36 -26z"/>
<path d="M3865 3938 c5 -12 -5 -32 -30 -62 -53 -65 -39 -76 20 -16 l49 50 -22
23 c-17 16 -21 18 -17 5z"/>
<path d="M1291 3904 c-28 -23 -43 -64 -23 -64 4 0 24 -16 45 -36 34 -33 37
-38 23 -52 -13 -13 -18 -11 -50 19 -20 18 -36 39 -36 46 0 23 -14 14 -62 -39
-52 -56 -55 -60 -34 -52 17 6 96 -62 96 -82 0 -8 -8 -18 -17 -21 -12 -5 -29 7
-59 40 -23 26 -46 47 -50 47 -5 0 -23 -17 -40 -37 -30 -35 -31 -38 -14 -48 10
-5 44 -32 74 -59 31 -27 60 -46 63 -42 4 4 -21 33 -56 65 -59 53 -63 59 -51
80 l12 23 46 -43 c25 -24 51 -50 57 -57 9 -11 19 -2 47 42 20 31 33 54 27 51
-5 -4 -18 10 -30 29 -11 19 -29 38 -40 41 -23 8 -20 28 4 33 19 4 77 -54 77
-77 0 -10 15 0 42 28 38 40 40 45 22 52 -29 11 -87 76 -80 88 12 19 24 12 67
-34 23 -25 46 -42 51 -39 6 4 -11 28 -37 54 -26 27 -44 53 -41 59 11 18 -1 13
-33 -15z m-37 -203 c11 -12 14 -21 8 -21 -15 0 -82 59 -82 72 0 11 47 -21 74
-51z"/>
<path d="M1350 3926 c0 -2 13 -20 29 -40 16 -21 31 -42 33 -48 2 -6 10 -8 16
-4 9 5 1 21 -24 52 -31 37 -54 55 -54 40z"/>
<path d="M1507 3903 c-4 -3 -7 -11 -7 -17 0 -6 5 -5 12 2 6 6 9 14 7 17 -3 3
-9 2 -12 -2z"/>
<path d="M3910 3899 c0 -8 21 -38 46 -67 34 -39 50 -50 58 -42 8 8 -5 26 -47
67 -31 30 -57 49 -57 42z"/>
<path d="M4425 3525 c0 -214 1 -301 2 -192 2 109 2 285 0 390 -1 106 -2 17 -2
-198z"/>
<path d="M3963 3710 c-57 -61 -76 -92 -55 -89 11 2 132 137 132 149 0 20 -16
8 -77 -60z"/>
<path d="M4060 3722 c0 -5 -29 -34 -65 -65 -62 -53 -77 -72 -56 -72 10 0 151
130 151 139 0 3 -7 6 -15 6 -8 0 -15 -4 -15 -8z"/>
<path d="M2575 3660 c3 -5 8 -10 11 -10 2 0 4 5 4 10 0 6 -5 10 -11 10 -5 0
-7 -4 -4 -10z"/>
<path d="M2539 3628 c-7 -13 -61 -73 -121 -134 -60 -61 -119 -125 -131 -142
-21 -30 -67 -45 -67 -22 0 12 -121 13 -172 1 -35 -8 -39 -7 -63 25 -15 19 -50
58 -78 87 -29 29 -69 72 -90 95 -21 23 -42 42 -46 42 -8 0 -35 -28 -82 -87
-80 -99 -179 -280 -227 -418 -87 -248 -110 -560 -61 -820 13 -71 27 -134 30
-140 4 -5 9 -26 13 -46 4 -21 13 -50 20 -65 8 -16 31 -65 52 -109 33 -72 68
-131 85 -145 3 -3 8 -11 10 -18 10 -30 135 -191 149 -192 18 0 220 186 220
203 1 32 19 38 136 43 l120 5 154 -149 c103 -101 151 -154 147 -165 -5 -14 9
-37 25 -37 4 0 14 15 23 33 9 19 72 89 140 157 68 67 130 130 137 139 11 15
29 16 139 11 l126 -5 53 -65 c29 -36 72 -85 94 -110 23 -25 56 -63 73 -84 32
-40 32 -40 54 -20 56 49 219 276 235 326 4 13 1 24 -7 29 -22 14 -29 11 -29
-11 0 -20 -23 -72 -41 -94 -5 -6 -24 -33 -42 -61 -48 -74 -117 -155 -134 -155
-4 0 -55 54 -112 120 -134 155 -143 160 -262 160 -52 0 -108 -4 -126 -9 -20
-6 -81 -58 -173 -150 -79 -78 -145 -141 -149 -141 -3 0 -67 61 -141 136 -74
74 -147 142 -162 150 -19 10 -61 14 -137 14 -114 0 -141 -4 -141 -24 0 -24
-203 -212 -218 -202 -5 3 -26 30 -47 61 -21 30 -45 55 -54 55 -12 0 -13 2 -3
8 9 6 8 13 -6 28 -10 10 -29 38 -42 62 -13 23 -27 42 -32 42 -4 0 -8 7 -8 16
0 9 -8 28 -19 42 -10 15 -24 45 -32 67 -7 22 -16 45 -20 50 -12 17 -57 194
-75 295 -25 142 -23 375 4 515 36 183 96 344 187 500 40 69 135 196 152 202
13 5 230 -204 226 -218 -6 -19 198 -26 258 -9 19 6 209 188 249 238 3 4 19 20
36 35 l31 28 73 -68 c39 -37 102 -96 138 -131 103 -97 98 -96 225 -95 109 0
174 13 162 32 -3 6 0 13 8 18 7 4 30 31 52 58 48 61 142 155 155 155 14 0 48
-35 97 -100 23 -30 47 -60 53 -67 5 -6 19 -30 31 -52 12 -23 25 -41 30 -41 5
0 9 -9 9 -20 0 -11 4 -20 9 -20 5 0 12 -10 16 -22 10 -31 8 -27 33 -78 24 -50
69 -176 82 -230 5 -19 16 -61 24 -93 29 -116 38 -288 22 -452 -17 -176 -101
-454 -150 -495 -12 -10 -14 -16 -5 -26 18 -22 24 -17 52 44 95 205 157 509
144 703 -8 109 -49 303 -89 423 -62 187 -187 401 -310 536 l-48 52 -53 -59
c-95 -101 -177 -204 -177 -220 0 -12 -7 -14 -27 -8 -41 10 -185 7 -197 -5 -19
-19 -43 -10 -78 28 -46 48 -213 209 -260 251 l-37 32 -12 -23z m478 -304 c-3
-3 -12 -4 -19 -1 -8 3 -5 6 6 6 11 1 17 -2 13 -5z"/>
<path d="M3942 3518 c-13 -13 -17 -58 -4 -58 4 0 12 16 18 35 11 36 7 44 -14
23z"/>
<path d="M1020 3496 c0 -10 -9 -16 -21 -16 -33 0 -16 -25 18 -26 18 0 45 -13
69 -32 21 -17 40 -29 43 -27 8 9 -53 66 -77 72 -14 3 -21 11 -18 19 3 7 1 16
-4 19 -6 4 -10 -1 -10 -9z"/>
<path d="M1140 3408 c0 -7 -3 -24 -6 -38 l-5 -25 15 25 c18 29 20 50 6 50 -5
0 -10 -6 -10 -12z"/>
<path d="M3950 3393 c0 -6 8 -17 18 -24 16 -13 16 -13 2 6 -8 11 -16 22 -17
24 -2 2 -3 0 -3 -6z"/>
<path d="M3987 3338 c9 -15 70 -104 118 -173 19 -27 35 -44 35 -36 0 12 -148
221 -157 221 -2 0 -1 -6 4 -12z"/>
<path d="M1658 3275 c-53 -90 -122 -239 -138 -300 -5 -16 -15 -55 -23 -85 -43
-156 -49 -466 -12 -615 44 -177 105 -339 133 -350 16 -6 10 16 -20 84 -97 215
-135 566 -87 802 30 152 88 319 110 319 5 0 9 10 9 22 0 27 22 91 34 99 4 4 6
13 4 20 -2 7 -7 9 -10 4z"/>
<path d="M3510 3276 c0 -4 5 -17 12 -29 7 -12 13 -31 15 -42 2 -11 21 -56 42
-100 45 -92 87 -225 107 -334 16 -92 18 -321 3 -428 -11 -80 -62 -252 -105
-356 -23 -55 -24 -77 -3 -77 5 0 9 6 9 13 0 6 18 56 40 110 68 170 91 280 97
459 4 97 1 187 -6 237 -18 122 -66 283 -116 387 -41 86 -95 176 -95 160z"/>
<path d="M1787 3165 c-16 -250 -9 -1316 9 -1334 2 -2 4 225 4 505 0 280 3 586
6 679 3 94 1 190 -4 215 -7 41 -9 35 -15 -65z"/>
<path d="M2263 3195 c0 -38 2 -53 4 -32 2 20 2 52 0 70 -2 17 -4 1 -4 -38z"/>
<path d="M2801 3199 c-1 -34 2 -49 8 -44 13 7 15 95 3 95 -5 0 -9 -23 -11 -51z"/>
<path d="M2316 3224 c-10 -25 -7 -84 4 -84 6 0 10 23 10 50 0 52 -4 61 -14 34z"/>
<path d="M2863 3190 c0 -30 2 -43 4 -27 2 15 2 39 0 55 -2 15 -4 2 -4 -28z"/>
<path d="M3348 3235 c-3 -6 -7 -269 -7 -585 l0 -574 76 -73 c72 -68 93 -83 93
-66 0 4 -29 35 -65 68 l-65 62 -6 494 c-5 493 -13 693 -26 674z"/>
<path d="M2405 3212 c-44 -5 -55 -26 -55 -110 0 -105 6 -112 89 -112 48 0 72
4 81 15 16 19 27 175 12 175 -19 0 -28 -32 -27 -102 l0 -68 -65 0 -65 0 -1 90
-1 90 56 0 c48 0 106 17 76 21 -25 4 -73 5 -100 1z"/>
<path d="M2611 3211 c-21 -13 42 -24 94 -17 l42 7 -5 -70 c-2 -38 -2 -81 2
-96 12 -49 26 -14 26 69 0 102 -11 116 -91 116 -30 0 -60 -4 -68 -9z"/>
<path d="M2584 3177 c-10 -26 1 -156 15 -170 8 -8 11 11 11 74 0 86 -12 131
-26 96z"/>
<path d="M3443 3147 c-22 -24 -46 -54 -53 -67 -12 -22 -12 -22 11 -4 39 30 91
93 87 105 -2 6 -22 -9 -45 -34z"/>
<path d="M1669 3153 c14 -27 80 -87 87 -81 3 4 -13 27 -36 52 -43 47 -69 61
-51 29z"/>
<path d="M1004 3095 c-24 -18 -7 -19 26 0 16 9 19 14 9 15 -8 0 -24 -7 -35
-15z"/>
<path d="M3450 3050 c-31 -28 -48 -49 -40 -50 9 0 38 23 65 50 63 64 46 65
-25 0z"/>
<path d="M1647 3083 c-4 -5 18 -34 48 -63 30 -30 55 -48 55 -40 -1 26 -94 118
-103 103z"/>
<path d="M860 3033 c-35 -2 -70 -9 -77 -15 -7 -6 -13 -32 -13 -62 0 -29 -9
-70 -20 -94 -10 -23 -19 -43 -20 -45 0 -1 -3 -12 -6 -24 -4 -14 -16 -24 -33
-26 -19 -4 -16 -4 8 -3 32 1 35 4 48 51 8 28 23 58 34 68 14 13 19 32 19 72
l0 55 88 0 87 0 -1 -72 -1 -73 -77 4 c-62 2 -77 0 -74 -11 3 -9 27 -13 89 -13
l84 0 1 85 c0 76 2 85 19 85 10 0 20 6 23 13 4 12 -25 13 -178 5z"/>
<path d="M4123 2588 c2 -263 0 -461 -6 -472 -7 -14 -6 -17 5 -14 11 4 13 91
16 471 1 304 -1 467 -8 467 -6 0 -9 -158 -7 -452z"/>
<path d="M4155 3032 c10 -10 158 -56 208 -65 15 -2 27 -1 27 3 0 3 -46 19
-102 34 -149 41 -144 40 -133 28z"/>
<path d="M2630 2995 c0 -16 34 -20 90 -9 44 9 18 24 -42 24 -36 0 -48 -4 -48
-15z"/>
<path d="M1744 2615 c0 -176 2 -247 3 -157 2 90 2 234 0 320 -1 86 -3 13 -3
-163z"/>
<path d="M2910 2833 c0 -8 45 -57 172 -189 37 -40 68 -78 68 -85 0 -18 -193
-226 -206 -222 -5 2 -10 -11 -11 -29 -2 -31 3 -26 102 77 58 61 112 125 120
142 21 45 9 65 -111 192 -91 95 -134 132 -134 114z"/>
<path d="M2154 2768 c-84 -86 -152 -173 -160 -203 -4 -16 0 -34 10 -50 21 -31
207 -225 217 -225 23 0 -15 52 -107 146 -57 59 -104 111 -104 116 0 9 113 152
141 178 28 26 81 100 72 100 -5 0 -36 -28 -69 -62z"/>
<path d="M2272 2821 c2 -5 28 -35 58 -67 82 -86 109 -122 103 -142 -2 -10 3
-24 11 -31 11 -9 16 -10 16 -2 0 6 -4 11 -10 11 -5 0 -10 8 -10 17 0 13 7 10
30 -12 17 -16 30 -34 30 -40 0 -6 -16 -29 -36 -51 -20 -21 -45 -50 -56 -64
-11 -14 -41 -47 -66 -75 -26 -27 -53 -58 -61 -68 -12 -16 -12 -17 5 -11 19 7
142 134 196 201 15 20 28 44 28 54 0 23 -19 72 -30 79 -4 3 -23 23 -40 45 -77
98 -182 195 -168 156z"/>
<path d="M2799 2772 c-82 -88 -129 -144 -145 -175 -14 -27 -14 -28 3 -19 22
12 113 109 113 121 0 5 7 14 15 21 18 15 20 0 3 -20 -11 -12 -10 -12 5 -1 9 7
17 22 17 33 0 11 12 35 26 54 44 57 21 48 -37 -14z"/>
<path d="M2219 2773 c-13 -16 -12 -17 4 -4 9 7 17 15 17 17 0 8 -8 3 -21 -13z"/>
<path d="M2850 2775 c-7 -9 -11 -18 -8 -20 3 -3 11 1 18 10 7 9 11 18 8 20 -3
3 -11 -1 -18 -10z"/>
<path d="M3401 2764 c0 -11 3 -14 6 -6 3 7 2 16 -1 19 -3 4 -6 -2 -5 -13z"/>
<path d="M790 2739 c0 -8 12 -10 34 -6 19 3 52 3 74 0 37 -5 41 -9 45 -37 3
-25 4 -23 5 12 l2 42 -80 0 c-53 0 -80 -4 -80 -11z"/>
<path d="M2305 2740 c3 -5 8 -10 11 -10 2 0 4 5 4 10 0 6 -5 10 -11 10 -5 0
-7 -4 -4 -10z"/>
<path d="M3404 2600 c0 -80 2 -112 3 -72 2 39 2 105 0 145 -1 39 -3 7 -3 -73z"/>
<path d="M810 2700 c0 -11 5 -20 10 -20 6 0 10 5 10 10 0 6 9 10 20 10 11 0
20 -5 20 -10 0 -7 6 -7 20 0 34 18 22 30 -30 30 -43 0 -50 -3 -50 -20z"/>
<path d="M2336 2705 c4 -8 11 -15 16 -15 6 0 5 6 -2 15 -7 8 -14 15 -16 15 -2
0 -1 -7 2 -15z"/>
<path d="M810 2616 c0 -30 5 -58 10 -61 6 -4 29 -4 50 0 31 5 41 12 46 30 9
37 -4 62 -38 74 -61 21 -68 17 -68 -43z m75 18 c25 -25 15 -58 -18 -62 -28 -3
-30 0 -41 51 -6 24 -3 27 18 27 14 0 32 -7 41 -16z"/>
<path d="M860 2610 c0 -5 5 -10 10 -10 6 0 10 5 10 10 0 6 -4 10 -10 10 -5 0
-10 -4 -10 -10z"/>
<path d="M2380 2661 c0 -6 4 -13 10 -16 6 -3 7 1 4 9 -7 18 -14 21 -14 7z"/>
<path d="M940 2649 c0 -5 5 -7 10 -4 6 3 10 8 10 11 0 2 -4 4 -10 4 -5 0 -10
-5 -10 -11z"/>
<path d="M952 2530 c0 -14 2 -19 5 -12 2 6 2 18 0 25 -3 6 -5 1 -5 -13z"/>
<path d="M2640 2531 c0 -7 84 -106 125 -147 6 -7 22 -25 36 -41 27 -32 68 -63
84 -63 5 0 2 5 -7 11 -10 5 -18 14 -18 19 0 5 -15 25 -32 44 -18 19 -64 68
-102 110 -65 71 -86 88 -86 67z"/>
<path d="M820 2499 c0 -23 17 -43 24 -30 4 6 20 9 37 6 22 -4 29 -1 29 10 0
10 -9 15 -27 14 -16 -1 -36 2 -45 6 -12 5 -18 3 -18 -6z"/>
<path d="M827 2444 c-13 -14 3 -20 42 -16 23 2 41 8 41 13 0 10 -73 12 -83 3z"/>
<path d="M740 2381 c0 -6 5 -13 10 -16 6 -3 10 1 10 9 0 9 -4 16 -10 16 -5 0
-10 -4 -10 -9z"/>
<path d="M807 2384 c-20 -20 -1 -26 77 -23 l84 4 6 -64 c3 -35 4 -66 2 -70 -2
-3 -48 -5 -101 -3 l-97 3 4 56 c2 39 -1 58 -9 60 -16 6 -19 -122 -4 -132 6 -3
60 -8 120 -12 l111 -6 -1 49 c0 27 -4 69 -7 94 l-7 45 -85 3 c-47 2 -88 0 -93
-4z"/>
<path d="M1742 2270 c0 -14 2 -19 5 -12 2 6 2 18 0 25 -3 6 -5 1 -5 -13z"/>
<path d="M1017 2196 c-3 -8 1 -20 9 -26 11 -10 14 -9 14 8 0 25 -16 37 -23 18z"/>
<path d="M4375 2145 c-5 -2 -58 -13 -117 -26 -60 -12 -108 -25 -108 -29 0 -17
222 28 243 49 11 11 3 13 -18 6z"/>
<path d="M795 1578 c4 -371 9 -566 16 -573 8 -7 9 2 5 30 -3 22 -5 280 -6 573
0 377 -3 532 -11 532 -8 0 -9 -159 -4 -562z"/>
<path d="M930 2115 c0 -8 2 -15 4 -15 2 0 6 7 10 15 3 8 1 15 -4 15 -6 0 -10
-7 -10 -15z"/>
<path d="M1000 2115 c7 -9 15 -13 17 -11 7 7 -7 26 -19 26 -6 0 -6 -6 2 -15z"/>
<path d="M1687 2089 c-26 -23 -46 -44 -43 -47 8 -7 85 48 97 70 15 29 -2 21
-54 -23z"/>
<path d="M2405 2112 c-16 -2 -36 -11 -42 -20 -15 -19 -18 -172 -3 -172 14 0
23 65 16 123 l-7 52 63 -1 c53 -1 63 -4 60 -18 -2 -10 4 -16 18 -16 25 0 26
12 3 32 -20 17 -62 25 -108 20z"/>
<path d="M2650 2114 c-44 -16 -60 -29 -60 -50 0 -13 -4 -25 -9 -29 -15 -9 -10
-115 5 -115 17 0 26 32 23 85 -2 24 0 47 4 51 4 4 7 14 7 23 0 13 12 16 60 16
l59 0 -6 -71 c-4 -48 -2 -78 7 -94 l13 -24 9 24 c12 31 1 142 -15 163 -13 17
-72 29 -97 21z"/>
<path d="M3410 2097 c0 -8 23 -33 50 -56 28 -23 50 -37 50 -32 0 6 -4 11 -9
11 -5 0 -11 9 -14 21 -3 11 -15 23 -26 26 -11 3 -19 8 -17 12 3 4 -4 12 -15
19 -15 10 -19 10 -19 -1z"/>
<path d="M1697 2022 c-46 -47 -56 -62 -39 -62 12 0 102 90 102 101 0 18 -17 8
-63 -39z"/>
<path d="M2516 2037 c-14 -10 -17 -22 -12 -53 3 -21 5 -42 6 -46 0 -5 7 -8 15
-8 12 0 15 13 15 60 0 33 -1 60 -3 60 -2 0 -11 -6 -21 -13z"/>
<path d="M4115 1983 c-16 -21 -33 -42 -40 -48 -20 -18 -141 -205 -132 -205 2
0 22 28 45 63 22 34 68 96 101 137 54 66 69 90 57 90 -2 0 -16 -17 -31 -37z"/>
<path d="M2310 1915 c0 -28 4 -44 10 -40 6 3 10 21 10 40 0 19 -4 37 -10 40
-6 4 -10 -12 -10 -40z"/>
<path d="M2250 1913 c0 -24 3 -33 9 -25 7 12 4 62 -5 62 -2 0 -4 -17 -4 -37z"/>
<path d="M2803 1905 c0 -27 2 -38 4 -22 2 15 2 37 0 50 -2 12 -4 0 -4 -28z"/>
<path d="M2868 1937 c-12 -29 -10 -73 3 -60 6 6 9 26 7 44 -2 26 -5 30 -10 16z"/>
<path d="M2396 1908 c-9 -5 -22 -6 -29 -2 -9 5 -9 4 -1 -5 14 -15 154 -25 154
-12 0 19 -97 34 -124 19z"/>
<path d="M2613 1903 c-7 -2 -13 -10 -13 -16 0 -8 19 -11 57 -9 74 4 96 11 68
22 -22 9 -93 11 -112 3z"/>
<path d="M3545 1890 c3 -5 11 -10 16 -10 6 0 7 5 4 10 -3 6 -11 10 -16 10 -6
0 -7 -4 -4 -10z"/>
<path d="M4422 1870 c0 -19 2 -27 5 -17 2 9 2 25 0 35 -3 9 -5 1 -5 -18z"/>
<path d="M2511 1854 c0 -11 3 -14 6 -6 3 7 2 16 -1 19 -3 4 -6 -2 -5 -13z"/>
<path d="M1056 1830 l-18 -35 22 21 c12 12 20 28 18 35 -3 9 -12 0 -22 -21z"/>
<path d="M2590 1850 c0 -5 5 -10 10 -10 6 0 10 5 10 10 0 6 -4 10 -10 10 -5 0
-10 -4 -10 -10z"/>
<path d="M1061 1774 c-29 -39 -39 -45 -65 -42 -41 4 -46 -15 -5 -23 27 -6 35
-2 63 29 45 52 56 62 67 62 5 0 9 5 9 10 0 25 -38 5 -69 -36z"/>
<path d="M2545 1810 c4 -6 11 -8 16 -5 14 9 11 15 -7 15 -8 0 -12 -5 -9 -10z"/>
<path d="M4421 1804 c0 -11 3 -14 6 -6 3 7 2 16 -1 19 -3 4 -6 -2 -5 -13z"/>
<path d="M1791 1794 c0 -11 3 -14 6 -6 3 7 2 16 -1 19 -3 4 -6 -2 -5 -13z"/>
<path d="M4423 1715 c0 -38 2 -53 4 -32 2 20 2 52 0 70 -2 17 -4 1 -4 -38z"/>
<path d="M2163 1763 c15 -2 37 -2 50 0 12 2 0 4 -28 4 -27 0 -38 -2 -22 -4z"/>
<path d="M2930 1760 c19 -12 167 -13 174 -1 3 5 -38 9 -92 9 -65 1 -92 -2 -82
-8z"/>
<path d="M1093 1638 c-93 -102 -95 -121 -3 -26 91 94 92 95 83 101 -4 2 -41
-31 -80 -75z"/>
<path d="M1126 1531 c-35 -36 -54 -61 -47 -65 6 -4 33 16 60 44 44 45 71 57
71 31 0 -5 -23 -31 -52 -59 -62 -61 -58 -82 5 -26 64 56 74 77 53 109 -9 14
-20 25 -24 25 -4 0 -34 -26 -66 -59z"/>
<path d="M3917 1584 c-3 -5 35 -50 84 -101 49 -50 91 -87 95 -82 3 6 -34 51
-84 101 -49 50 -92 87 -95 82z"/>
<path d="M4423 1530 c0 -36 2 -50 4 -32 2 17 2 47 0 65 -2 17 -4 3 -4 -33z"/>
<path d="M1843 1533 c-18 -19 -33 -36 -33 -38 0 -2 24 -27 54 -55 125 -118
327 -231 486 -270 61 -16 129 -23 240 -27 l155 -5 120 40 c140 47 255 97 255
112 0 5 7 10 15 10 18 0 76 38 88 58 4 6 13 12 20 12 7 1 29 16 50 35 45 39
44 50 -8 110 -32 37 -36 39 -46 21 -6 -10 -20 -25 -31 -35 -11 -9 -28 -23 -37
-31 -19 -18 -98 -70 -106 -70 -4 0 -25 -13 -48 -29 -60 -41 -113 -61 -125 -49
-6 6 -20 7 -33 2 l-24 -8 25 -7 c21 -6 22 -7 5 -9 -11 -2 -31 -4 -45 -6 -14
-2 -87 -7 -162 -10 -203 -10 -349 15 -473 80 -16 9 -34 16 -38 16 -14 0 -180
117 -220 154 -21 20 -41 35 -45 35 -4 -1 -22 -17 -39 -36z m95 -56 c14 -15 38
-35 56 -43 57 -28 101 -54 91 -54 -8 -1 46 -28 120 -60 143 -63 449 -89 626
-53 77 16 215 76 284 125 22 16 51 36 65 45 14 9 32 26 42 37 15 18 19 19 42
6 14 -7 26 -20 25 -29 0 -16 -80 -81 -99 -81 -6 0 -10 -5 -10 -11 0 -5 -4 -7
-10 -4 -5 3 -10 2 -10 -2 0 -17 -185 -111 -275 -141 -148 -49 -194 -55 -349
-43 -155 11 -232 31 -357 91 -68 32 -152 82 -174 103 -7 7 -42 35 -79 62 -65
50 -77 70 -54 93 13 13 27 5 66 -41z"/>
<path d="M1241 1514 c-1 -12 -10 -33 -21 -47 -11 -14 -20 -29 -20 -33 0 -4 -9
-18 -21 -30 -12 -12 -18 -28 -14 -34 4 -7 22 12 47 49 22 34 44 61 49 61 19 0
8 -28 -31 -80 -22 -29 -40 -57 -40 -62 0 -18 20 -6 34 20 8 15 29 42 46 61
l31 34 -24 26 c-14 14 -27 33 -30 41 -4 10 -6 8 -6 -6z"/>
<path d="M3896 1466 c-10 -19 -36 -54 -57 -78 -44 -49 -47 -58 -19 -51 13 4
35 -10 72 -45 49 -46 55 -49 72 -36 20 14 20 14 0 14 -11 0 -43 24 -72 53 -41
41 -50 55 -40 65 19 19 30 15 87 -39 38 -35 57 -47 65 -39 7 7 3 15 -14 27
-36 26 -100 84 -100 92 0 4 6 15 13 26 14 17 15 17 34 -1 86 -83 123 -109 123
-86 0 4 -25 27 -56 52 -30 24 -60 52 -65 62 -14 26 -22 23 -43 -16z"/>
<path d="M4424 1190 c0 -151 2 -213 3 -137 2 75 2 199 0 275 -1 75 -3 13 -3
-138z"/>
<path d="M1285 1398 l-19 -33 27 18 c29 19 37 21 37 9 0 -11 -79 -97 -90 -97
-4 0 -12 -4 -17 -8 -4 -5 -3 -7 4 -5 6 2 25 -16 42 -39 17 -24 37 -43 45 -43
14 0 106 95 106 110 0 18 -11 10 -60 -42 -47 -51 -49 -52 -64 -33 -13 18 -13
21 9 32 40 22 87 75 76 86 -7 7 -17 2 -32 -17 -28 -36 -61 -66 -71 -66 -20 0
-4 29 36 65 l43 40 -20 27 c-12 16 -23 28 -27 28 -3 0 -14 -15 -25 -32z"/>
<path d="M1241 1336 c-8 -9 -11 -19 -7 -23 9 -9 29 13 24 27 -2 8 -8 7 -17 -4z"/>
<path d="M3780 1312 c0 -18 113 -123 123 -113 6 6 -11 29 -48 63 -61 56 -75
65 -75 50z"/>
<path d="M3747 1282 c-10 -10 -17 -23 -17 -28 1 -5 25 -33 54 -63 49 -49 54
-52 74 -40 27 17 29 29 3 22 -12 -3 -33 8 -61 33 -35 32 -41 42 -36 66 6 33 5
34 -17 10z"/>
<path d="M1386 1227 c-63 -61 -75 -77 -58 -77 14 0 141 129 132 135 -5 3 -38
-23 -74 -58z"/>
<path d="M1514 1255 c21 -16 32 -13 21 4 -3 6 -14 11 -23 11 -15 -1 -15 -2 2
-15z"/>
<path d="M3695 1227 l-18 -28 50 -56 c27 -31 55 -59 61 -61 20 -6 13 22 -8 36
-32 20 -82 94 -69 103 6 4 9 13 7 20 -3 9 -11 4 -23 -14z"/>
<path d="M1541 1227 c2 -2 32 -29 66 -60 84 -76 102 -73 22 3 -35 33 -70 60
-78 60 -8 0 -12 -2 -10 -3z"/>
<path d="M3647 1182 c-9 -10 -17 -25 -17 -33 0 -19 106 -124 113 -112 4 6 -12
27 -34 49 -51 49 -65 74 -49 84 7 4 11 13 8 20 -2 7 -9 5 -21 -8z"/>
<path d="M1700 1180 c0 -6 7 -10 15 -10 8 0 15 2 15 4 0 2 -7 6 -15 10 -8 3
-15 1 -15 -4z"/>
<path d="M990 1149 c-12 -8 -9 -9 11 -5 18 4 35 -1 53 -15 14 -11 26 -16 26
-10 0 13 -40 41 -60 41 -8 0 -22 -5 -30 -11z"/>
<path d="M3468 1060 c-45 -44 -80 -82 -77 -84 2 -2 44 34 94 80 49 46 84 84
78 84 -7 0 -50 -36 -95 -80z"/>
<path d="M964 1103 c-9 -35 14 -75 49 -87 37 -13 61 2 64 40 2 28 2 28 -5 4
-9 -30 -61 -40 -82 -16 -8 10 -8 16 -2 16 6 0 14 -4 17 -10 11 -18 43 -11 50
11 4 11 4 31 1 45 -5 20 -12 24 -46 24 -35 0 -40 -3 -46 -27z m76 -18 c0 -16
-6 -25 -15 -25 -8 0 -15 7 -15 15 0 8 -4 15 -10 15 -5 0 -10 -5 -10 -12 0 -6
-3 -9 -6 -5 -13 13 7 37 31 37 20 0 25 -5 25 -25z"/>
<path d="M3590 1124 c0 -17 17 -36 24 -26 3 5 -1 15 -9 22 -8 7 -15 9 -15 4z"/>
<path d="M3820 1110 c0 -5 5 -10 10 -10 6 0 10 5 10 10 0 6 -4 10 -10 10 -5 0
-10 -4 -10 -10z"/>
<path d="M1087 1080 c3 -11 7 -20 9 -20 2 0 4 9 4 20 0 11 -4 20 -9 20 -5 0
-7 -9 -4 -20z"/>
<path d="M3620 1085 c0 -6 19 -30 41 -55 30 -32 36 -37 23 -15 -22 37 -64 83
-64 70z"/>
<path d="M3765 1050 c-3 -5 -1 -10 4 -10 6 0 11 5 11 10 0 6 -2 10 -4 10 -3 0
-8 -4 -11 -10z"/>
<path d="M1607 1021 c-33 -16 -62 -18 -200 -16 -144 3 -151 2 -62 -5 159 -12
289 -12 303 2 13 13 16 38 5 37 -5 0 -25 -9 -46 -18z"/>
<path d="M3755 1017 c-30 -19 -47 -36 -43 -46 2 -5 19 6 38 25 36 36 37 40 5
21z"/>
<path d="M1780 964 c119 -16 120 -16 90 1 -16 9 -53 14 -105 14 l-80 -1 95
-14z"/>
<path d="M870 960 c38 -8 295 -24 918 -57 71 -4 112 -2 112 4 0 6 -70 13 -172
16 -95 4 -290 14 -433 22 -430 24 -476 25 -425 15z"/>
<path d="M3312 942 c-45 -3 -49 -22 -4 -21 32 1 69 14 56 20 -5 2 -28 3 -52 1z"/>
<path d="M3193 917 c-31 -21 -51 -47 -35 -47 4 1 25 16 47 35 45 39 37 46 -12
12z"/>
<path d="M3390 929 c0 -5 65 -9 158 -9 86 0 256 -2 377 -4 171 -4 194 -3 105
3 -189 14 -640 21 -640 10z"/>
<path d="M3246 891 c-9 -10 -16 -23 -16 -30 0 -7 9 -3 21 10 l20 24 -5 -32
c-3 -18 -2 -33 3 -33 8 0 21 33 21 56 0 20 -28 23 -44 5z"/>
<path d="M4422 890 c0 -14 2 -19 5 -12 2 6 2 18 0 25 -3 6 -5 1 -5 -13z"/>
<path d="M1942 876 c7 -8 15 -12 17 -11 5 6 -10 25 -20 25 -5 0 -4 -6 3 -14z"/>
<path d="M3344 860 c-6 -20 -7 -37 -2 -39 15 -5 20 6 16 41 l-4 33 -10 -35z"/>
<path d="M1985 844 c11 -8 31 -24 43 -35 13 -11 26 -18 28 -16 6 6 -71 67 -82
67 -5 0 0 -7 11 -16z"/>
<path d="M3135 800 c-3 -5 -1 -10 4 -10 6 0 11 5 11 10 0 6 -2 10 -4 10 -3 0
-8 -4 -11 -10z"/>
<path d="M3290 792 c0 -6 46 -10 118 -11 109 -1 398 -12 723 -27 118 -5 142
-4 173 11 48 23 40 29 -12 11 -23 -8 -57 -13 -74 -11 -18 2 -116 6 -218 10
-102 3 -201 8 -220 10 -98 11 -490 16 -490 7z"/>
<path d="M2370 622 c0 -10 37 -38 80 -59 l25 -13 -25 20 c-69 53 -80 61 -80
52z"/>
<path d="M2480 543 c0 -16 55 -50 90 -57 l35 -7 -33 15 c-18 9 -47 25 -63 36
-16 12 -29 17 -29 13z"/>
<path d="M2405 530 c3 -5 14 -10 23 -10 15 0 15 2 2 10 -20 13 -33 13 -25 0z"/>
<path d="M2660 489 c0 -5 5 -7 10 -4 6 3 10 8 10 11 0 2 -4 4 -10 4 -5 0 -10
-5 -10 -11z"/>
<path d="M2728 493 c17 -2 47 -2 65 0 17 2 3 4 -33 4 -36 0 -50 -2 -32 -4z"/>
<path d="M2535 442 c11 -12 121 -19 132 -9 3 4 -16 7 -43 7 -27 0 -60 3 -74 6
-17 5 -22 4 -15 -4z"/>
<path d="M2698 433 c6 -2 18 -2 25 0 6 3 1 5 -13 5 -14 0 -19 -2 -12 -5z"/>
</g>
</svg>
