<?xml version="1.0" standalone="no"?>
<!DOCTYPE svg PUBLIC "-//W3C//DTD SVG 20010904//EN"
 "http://www.w3.org/TR/2001/REC-SVG-20010904/DTD/svg10.dtd">
<svg version="1.0" xmlns="http://www.w3.org/2000/svg"
 width="512.000000pt" height="512.000000pt" viewBox="0 0 512.000000 512.000000"
 preserveAspectRatio="xMidYMid meet">
<metadata>
Created by potrace 1.16, written by Peter Selinger 2001-2019
</metadata>
<g transform="translate(0.000000,512.000000) scale(0.100000,-0.100000)"
fill="#000000" stroke="none">
<path d="M2365 4669 c-4 -6 -5 -12 -4 -13 9 -7 199 7 199 15 0 13 -187 11
-195 -2z"/>
<path d="M2170 4630 c0 -34 7 -38 26 -12 19 25 17 42 -6 42 -16 0 -20 -7 -20
-30z"/>
<path d="M3276 4633 c-7 -17 9 -33 31 -33 7 0 41 -13 75 -29 35 -15 74 -32 88
-36 14 -4 39 -18 56 -31 35 -27 44 -29 44 -11 0 7 -10 19 -22 26 l-23 15 24 6
c34 8 36 24 6 38 -39 18 -48 15 -41 -13 4 -14 3 -25 0 -25 -13 0 -119 54 -122
62 -2 5 -8 5 -13 2 -6 -3 -25 6 -44 20 -39 30 -51 32 -59 9z"/>
<path d="M2058 4634 c-3 -3 -30 -7 -59 -10 -55 -4 -80 -17 -63 -33 5 -5 41 1
88 15 87 26 102 34 64 34 -13 0 -27 -3 -30 -6z"/>
<path d="M1460 4568 c-8 -13 -15 -35 -15 -50 -1 -29 14 -34 84 -30 34 2 36 7
16 49 -28 59 -59 70 -85 31z"/>
<path d="M2541 4285 c0 -203 3 -305 9 -295 11 18 11 530 0 575 -4 17 -8 -109
-9 -280z"/>
<path d="M1762 4564 c-11 -12 -10 -15 3 -20 8 -3 27 -3 41 0 25 7 26 8 8 21
-24 18 -36 18 -52 -1z"/>
<path d="M1701 4551 c-7 -5 -12 -12 -10 -17 1 -5 -11 -15 -27 -23 -45 -21 -76
-42 -71 -47 3 -3 35 7 71 23 44 19 66 34 66 45 0 21 -12 29 -29 19z"/>
<path d="M1968 4553 c6 -2 18 -2 25 0 6 3 1 5 -13 5 -14 0 -19 -2 -12 -5z"/>
<path d="M1720 4480 c0 -5 5 -10 10 -10 6 0 9 -4 8 -9 -2 -5 0 -9 5 -10 4 -1
7 1 7 4 0 3 0 12 0 20 0 8 -7 15 -15 15 -8 0 -15 -4 -15 -10z"/>
<path d="M3610 4461 c14 -12 50 -35 80 -52 63 -36 221 -150 264 -191 31 -29
61 -38 54 -15 -3 6 -45 41 -95 77 -50 36 -96 73 -102 83 -10 16 -9 18 15 15
35 -4 41 15 9 30 -21 10 -26 9 -35 -8 -11 -20 -45 -28 -52 -12 -6 17 -104 81
-133 87 l-30 7 25 -21z"/>
<path d="M1506 4435 c-15 -8 -33 -15 -40 -15 -6 0 -23 -6 -37 -14 -14 -7 -39
-16 -55 -20 -35 -9 -74 -33 -74 -46 0 -18 20 -11 89 30 37 22 77 40 90 40 21
0 81 26 81 35 0 10 -25 5 -54 -10z"/>
<path d="M4229 4354 c-6 -8 -8 -14 -3 -14 5 0 -2 -6 -16 -13 -14 -8 -24 -19
-23 -25 2 -6 -6 -14 -17 -17 -11 -4 -20 -11 -20 -17 0 -11 15 -1 56 35 13 11
33 17 50 15 26 -3 24 -7 -69 -102 -58 -58 -102 -96 -109 -92 -7 3 -21 11 -30
18 -33 24 -31 -3 2 -37 l34 -35 25 31 c13 17 62 69 108 115 56 55 83 89 79 99
-3 8 -10 15 -17 15 -6 0 -9 6 -6 14 8 19 -29 28 -44 10z"/>
<path d="M933 4283 c-7 -3 -13 -11 -13 -18 0 -8 -8 -19 -17 -24 -16 -10 -7
-22 70 -97 l88 -86 34 39 c41 46 42 53 9 53 -14 0 -23 4 -19 10 3 6 0 10 -7
10 -7 0 -40 26 -73 58 -33 32 -66 57 -72 55z m64 -84 c29 -18 82 -99 64 -99
-7 0 -51 41 -95 88 -34 37 -19 42 31 11z"/>
<path d="M1210 4280 c-13 -8 -12 -10 3 -10 9 0 17 -3 17 -6 0 -4 -8 -13 -17
-20 -17 -12 -16 -13 4 -14 12 0 26 6 30 13 4 8 16 17 26 20 10 4 15 11 12 17
-8 13 -55 13 -75 0z"/>
<path d="M1832 4234 c1 -9 9 -19 16 -22 9 -3 13 2 10 14 -1 9 -9 19 -16 22 -9
3 -13 -2 -10 -14z"/>
<path d="M4125 4240 c-8 -13 5 -13 25 0 13 8 13 10 -2 10 -9 0 -20 -4 -23 -10z"/>
<path d="M4082 4184 c-12 -15 -21 -28 -19 -30 2 -2 16 9 30 26 15 16 24 30 20
30 -5 0 -18 -12 -31 -26z"/>
<path d="M1880 4151 c0 -6 4 -13 10 -16 6 -3 7 1 4 9 -7 18 -14 21 -14 7z"/>
<path d="M1900 4101 c0 -5 5 -13 10 -16 6 -3 10 -2 10 4 0 5 -4 13 -10 16 -5
3 -10 2 -10 -4z"/>
<path d="M1920 4061 c0 -5 5 -13 10 -16 6 -3 10 -2 10 4 0 5 -4 13 -10 16 -5
3 -10 2 -10 -4z"/>
<path d="M956 4015 c-12 -9 -16 -20 -12 -32 7 -17 9 -16 27 6 31 38 22 54 -15
26z"/>
<path d="M1940 4021 c0 -5 5 -13 10 -16 6 -3 10 -2 10 4 0 5 -4 13 -10 16 -5
3 -10 2 -10 -4z"/>
<path d="M4156 4011 c-7 -10 27 -51 43 -51 17 0 13 25 -7 43 -21 19 -28 21
-36 8z"/>
<path d="M1960 3974 c0 -8 5 -12 10 -9 6 4 8 11 5 16 -9 14 -15 11 -15 -7z"/>
<path d="M3250 3979 c0 -20 16 -43 23 -32 3 4 -1 17 -9 28 -10 13 -14 15 -14
4z"/>
<path d="M1996 3907 c3 -10 9 -15 12 -12 3 3 0 11 -7 18 -10 9 -11 8 -5 -6z"/>
<path d="M4236 3911 c-7 -11 3 -41 13 -41 5 0 16 -16 27 -35 21 -40 44 -46 44
-12 -1 33 -72 108 -84 88z"/>
<path d="M533 3877 c-29 -30 -30 -34 -16 -52 8 -11 21 -29 28 -39 13 -18 15
-18 49 -2 40 19 48 36 14 30 -14 -2 -8 3 12 12 45 20 43 17 29 48 -7 14 -19
26 -28 26 -9 0 -25 2 -36 5 -13 3 -31 -6 -52 -28z"/>
<path d="M833 3873 c-33 -37 -34 -53 -5 -53 16 1 62 60 62 81 0 20 -26 7 -57
-28z"/>
<path d="M4502 3898 c-18 -18 -14 -38 8 -38 13 0 24 -10 30 -25 11 -29 22 -31
40 -10 10 11 9 18 -4 31 -9 8 -21 24 -26 35 -12 22 -31 24 -48 7z"/>
<path d="M2709 3844 c-7 -47 -5 -55 15 -58 11 -3 50 -10 86 -16 36 -6 98 -22
138 -36 83 -28 93 -29 86 -11 -5 13 -163 61 -241 73 -60 9 -55 28 5 21 45 -6
217 -59 255 -79 14 -7 16 -13 7 -23 -9 -10 1 -18 45 -39 189 -86 403 -301 491
-493 30 -66 35 -70 71 -50 l23 13 -21 39 c-47 88 -182 274 -241 332 -121 118
-319 234 -501 292 -102 32 -216 51 -218 35z m431 -150 c0 -2 -7 -4 -15 -4 -8
0 -15 4 -15 10 0 5 7 7 15 4 8 -4 15 -8 15 -10z m245 -172 c-3 -3 -11 0 -18 7
-9 10 -8 11 6 5 10 -3 15 -9 12 -12z m73 -72 c7 -11 9 -20 4 -20 -4 0 -13 9
-20 20 -7 11 -9 20 -4 20 4 0 13 -9 20 -20z m42 -55 c14 -19 14 -19 -2 -6 -10
7 -18 18 -18 24 0 6 1 8 3 6 1 -2 9 -13 17 -24z m130 -199 c0 -12 -5 -7 -19
24 -11 24 -11 24 3 6 9 -11 16 -24 16 -30z"/>
<path d="M3256 3834 c-9 -22 -8 -24 9 -24 8 0 15 6 15 14 0 22 -17 28 -24 10z"/>
<path d="M3640 3725 c-68 -69 -120 -125 -114 -125 14 0 65 48 174 163 126 131
83 104 -60 -38z"/>
<path d="M1328 3805 c14 -25 200 -210 206 -204 4 4 -145 161 -194 204 l-23 20
11 -20z"/>
<path d="M754 3745 c-8 -34 0 -41 31 -27 34 16 34 52 0 52 -18 0 -26 -7 -31
-25z"/>
<path d="M1965 3679 c-177 -127 -357 -299 -430 -414 -70 -109 -144 -288 -131
-320 10 -27 24 -15 44 38 70 184 152 319 266 435 106 110 266 227 346 254 17
5 5 58 -13 58 -6 -1 -43 -23 -82 -51z"/>
<path d="M4382 3678 c-14 -18 13 -57 29 -41 13 13 9 45 -7 50 -6 2 -16 -2 -22
-9z"/>
<path d="M1980 3604 c-171 -96 -347 -278 -434 -451 -14 -29 -26 -58 -26 -65 0
-13 11 5 50 80 26 51 155 222 182 240 10 8 29 23 41 35 71 68 222 177 247 177
5 0 10 5 10 10 0 13 4 15 -70 -26z"/>
<path d="M666 3608 c-3 -13 -6 -32 -6 -43 0 -18 3 -16 25 9 27 32 28 49 3 54
-9 2 -18 -6 -22 -20z"/>
<path d="M4420 3595 c0 -20 32 -86 53 -109 9 -11 17 -31 17 -45 0 -41 13 -54
35 -37 18 13 17 15 -13 61 -18 27 -32 53 -32 58 0 5 -7 24 -16 42 -17 36 -44
54 -44 30z"/>
<path d="M1570 3555 c43 -45 49 -45 13 0 -15 19 -32 35 -37 35 -6 0 5 -16 24
-35z"/>
<path d="M613 3488 c-23 -30 -24 -38 -3 -38 23 0 38 26 23 41 -6 6 -13 5 -20
-3z"/>
<path d="M2380 3465 c-296 -63 -570 -319 -668 -625 -74 -232 -57 -461 51 -676
48 -96 135 -216 201 -278 166 -156 458 -261 666 -241 395 40 728 330 831 723
38 146 27 338 -29 502 -85 245 -284 449 -537 548 -147 58 -367 78 -515 47z
m351 -21 c311 -57 581 -285 680 -573 62 -177 71 -371 25 -521 -47 -157 -162
-348 -258 -430 -197 -169 -359 -240 -572 -248 -172 -6 -295 22 -445 101 -173
91 -293 218 -384 407 -62 129 -89 239 -89 365 0 357 192 676 497 824 102 50
183 78 245 84 91 9 226 6 301 -9z"/>
<path d="M2442 3420 c-83 -12 -149 -34 -247 -82 -102 -51 -154 -90 -236 -175
-143 -148 -221 -341 -236 -583 -6 -104 11 -216 48 -315 64 -173 231 -364 399
-457 165 -92 410 -124 590 -79 88 22 209 76 277 122 70 48 189 165 234 230 52
77 106 197 129 288 72 279 -18 599 -226 805 -164 162 -334 237 -564 249 -58 3
-134 2 -168 -3z m333 -41 c147 -34 244 -89 367 -207 112 -107 181 -220 229
-372 38 -120 33 -373 -11 -485 -99 -258 -254 -424 -489 -526 -47 -20 -111 -42
-143 -49 -73 -16 -281 -7 -363 15 -33 10 -64 18 -70 19 -22 4 -133 60 -175 89
-25 17 -78 63 -118 102 -178 170 -267 382 -256 609 11 247 84 424 239 582 214
217 486 294 790 223z"/>
<path d="M2918 3021 c-40 -38 -92 -86 -115 -107 -23 -22 -54 -54 -68 -73 l-25
-35 0 -229 0 -228 52 -52 c29 -29 51 -56 50 -62 -2 -5 0 -7 4 -3 4 5 12 -2 19
-15 6 -12 19 -21 28 -21 9 1 14 -2 11 -8 -3 -5 23 -38 58 -74 48 -50 69 -64
87 -62 l25 3 -3 510 c-1 280 -5 513 -7 517 -13 21 -51 2 -116 -61z m104 -453
c2 -277 2 -505 0 -507 -1 -3 -10 6 -19 20 -9 13 -74 83 -145 155 l-129 131 3
219 3 219 135 132 c74 73 138 133 142 133 4 0 9 -226 10 -502z"/>
<path d="M2087 3073 c-9 -8 -9 -986 -1 -1007 3 -9 17 -16 31 -16 19 0 57 33
159 138 l134 137 0 250 0 249 -132 128 c-99 95 -140 127 -159 128 -14 0 -29
-3 -32 -7z m167 -137 l136 -128 0 -233 0 -232 -139 -141 c-77 -78 -141 -142
-143 -142 -1 0 -3 227 -3 505 0 278 3 504 7 503 3 -2 67 -61 142 -132z"/>
<path d="M4532 3367 c-16 -19 7 -79 28 -74 18 3 15 55 -4 75 -10 11 -15 11
-24 -1z"/>
<path d="M548 3358 c-7 -19 2 -38 18 -38 8 0 14 10 14 25 0 26 -24 35 -32 13z"/>
<path d="M517 3218 c-9 -20 -22 -38 -29 -40 -7 -3 -2 -7 10 -10 18 -5 25 -1
33 20 5 14 8 35 6 46 -3 17 -6 15 -20 -16z"/>
<path d="M4565 3233 c4 -10 14 -40 21 -67 15 -53 20 -63 30 -53 8 8 7 49 -2
100 -6 37 -18 48 -27 25 -4 -10 -6 -10 -6 0 -1 6 -6 12 -12 12 -7 0 -8 -7 -4
-17z"/>
<path d="M467 3083 c-3 -5 -8 -23 -12 -40 -6 -29 -4 -33 13 -33 22 0 32 18 32
56 0 23 -23 34 -33 17z"/>
<path d="M4622 3078 c-20 -20 -15 -58 8 -58 15 0 20 7 20 29 0 34 -12 45 -28
29z"/>
<path d="M1482 3008 c-11 -29 -23 -69 -27 -88 -4 -27 0 -22 15 20 12 30 27 70
35 88 8 17 11 32 6 32 -5 0 -18 -24 -29 -52z"/>
<path d="M4633 2960 c6 -48 13 -58 28 -43 18 18 7 77 -15 81 -17 4 -18 -1 -13
-38z"/>
<path d="M440 2919 c0 -23 -5 -59 -11 -79 -11 -37 -5 -99 9 -86 4 4 9 40 13
79 3 40 10 84 14 100 6 21 4 27 -9 27 -12 0 -16 -10 -16 -41z"/>
<path d="M486 2908 c-3 -24 -10 -98 -15 -165 -6 -68 -13 -128 -17 -134 -4 -7
-1 -10 7 -7 8 3 15 21 16 44 2 21 8 97 14 167 11 125 8 181 -5 95z"/>
<path d="M1376 2893 c-20 -70 -39 -323 -25 -323 5 0 12 0 16 0 4 0 8 19 9 42
4 54 39 252 48 267 4 6 0 11 -8 11 -9 0 -16 5 -16 10 0 17 -18 11 -24 -7z"/>
<path d="M3725 2858 c4 -29 10 -104 14 -165 4 -62 10 -115 14 -119 3 -4 16 -4
29 -1 23 6 23 7 16 119 -10 154 -26 212 -57 216 -23 4 -24 3 -16 -50z m52
-150 c-3 -7 -5 -2 -5 12 0 14 2 19 5 13 2 -7 2 -19 0 -25z"/>
<path d="M4650 2838 c0 -38 3 -49 10 -38 6 10 10 11 10 3 0 -7 5 -13 10 -13
11 0 14 59 4 84 -3 9 -12 16 -20 16 -10 0 -14 -14 -14 -52z"/>
<path d="M4664 2748 c-9 -26 -6 -80 5 -88 4 -3 7 -13 8 -22 2 -41 3 -42 14
-31 8 8 9 36 4 87 -7 77 -17 95 -31 54z"/>
<path d="M424 2729 c-3 -6 -1 -16 5 -22 8 -8 11 -5 11 11 0 24 -5 28 -16 11z"/>
<path d="M416 2674 c-3 -9 -6 -29 -6 -46 0 -46 24 -29 28 20 3 41 -10 57 -22
26z"/>
<path d="M640 2580 c-10 -6 98 -10 330 -10 206 0 339 4 331 9 -20 13 -642 14
-661 1z"/>
<path d="M3865 2580 c-12 -5 102 -9 300 -10 176 -1 333 -3 348 -4 16 -1 31 2
33 6 3 4 -41 8 -98 8 -57 1 -206 3 -333 5 -126 2 -239 0 -250 -5z"/>
<path d="M1344 2526 c-8 -21 13 -174 36 -266 43 -170 141 -354 259 -490 31
-35 31 -35 50 -15 20 20 20 20 -11 55 -83 94 -193 290 -228 410 -21 72 -48
213 -52 275 -2 33 -7 41 -26 43 -13 2 -24 -3 -28 -12z m81 -324 c-5 -6 -24 67
-30 113 -3 22 3 6 14 -35 11 -41 18 -77 16 -78z m39 -92 c-7 -6 -24 22 -23 40
0 9 6 5 14 -10 7 -14 11 -27 9 -30z"/>
<path d="M3746 2528 c-2 -7 -9 -53 -16 -103 -17 -126 -52 -232 -121 -363 -63
-121 -127 -212 -194 -277 -75 -73 -169 -151 -223 -185 -30 -19 -49 -36 -43
-38 12 -4 3 -32 -10 -32 -5 0 -9 7 -9 15 0 16 -25 21 -35 6 -8 -14 16 -61 32
-61 7 0 13 4 13 8 0 5 29 27 64 51 128 84 254 200 330 301 22 30 48 62 58 70
25 23 112 196 142 284 33 96 53 191 58 271 3 56 1 60 -20 63 -12 2 -24 -3 -26
-10z"/>
<path d="M4678 2484 c-4 -5 -7 -36 -9 -69 -1 -33 -6 -70 -10 -82 -7 -19 -5
-23 10 -23 17 0 20 9 23 76 3 74 -3 117 -14 98z"/>
<path d="M404 2455 c-4 -9 -3 -28 1 -43 4 -15 11 -58 16 -97 16 -133 33 -225
40 -225 16 0 16 16 3 65 -7 28 -13 71 -14 97 0 26 -4 50 -10 53 -5 3 -10 42
-10 86 0 74 -12 102 -26 64z"/>
<path d="M462 2405 c0 -38 3 -92 9 -120 5 -27 12 -78 15 -113 4 -34 11 -65 15
-68 12 -7 11 15 -6 136 -8 58 -18 134 -23 170 l-9 65 -1 -70z"/>
<path d="M4650 2289 c0 -5 5 -7 10 -4 6 3 10 8 10 11 0 2 -4 4 -10 4 -5 0 -10
-5 -10 -11z"/>
<path d="M4669 2273 c-21 -5 -30 -60 -13 -74 16 -13 35 19 32 55 -1 14 -3 25
-3 25 0 -1 -7 -3 -16 -6z"/>
<path d="M4650 2160 c0 -11 -4 -20 -10 -20 -5 0 -10 -16 -10 -35 0 -19 -4 -35
-9 -35 -5 0 -11 -9 -14 -20 -3 -11 -1 -20 3 -20 5 0 15 -3 23 -6 11 -4 17 9
26 59 14 79 14 97 1 97 -5 0 -10 -9 -10 -20z"/>
<path d="M524 2005 c2 -11 7 -32 10 -47 4 -16 11 -28 17 -28 6 0 8 7 5 16 -3
9 -6 21 -6 28 0 7 -7 21 -16 32 -15 19 -15 19 -10 -1z"/>
<path d="M480 1989 c0 -23 23 -89 32 -89 11 0 10 31 -3 69 -11 30 -29 43 -29
20z"/>
<path d="M4599 1973 c-6 -16 -15 -36 -20 -46 -6 -10 -12 -38 -14 -62 -3 -28
-16 -60 -36 -89 -29 -41 -31 -46 -16 -61 15 -14 18 -13 35 22 11 21 23 52 27
68 11 38 9 33 30 80 23 51 32 115 16 115 -6 0 -16 -12 -22 -27z"/>
<path d="M597 1703 c-12 -11 -8 -38 8 -59 14 -19 15 -18 34 6 14 18 17 29 10
42 -10 18 -39 24 -52 11z"/>
<path d="M4483 1672 c-16 -11 -24 -45 -13 -62 11 -17 20 -9 38 32 8 20 8 27
-2 31 -7 3 -17 2 -23 -1z"/>
<path d="M1564 1552 c-60 -59 -158 -154 -217 -211 -59 -57 -107 -108 -107
-114 0 -6 43 32 95 83 52 52 104 98 115 102 11 4 20 14 20 23 0 8 3 15 8 15 4
0 21 13 37 30 110 108 169 170 164 174 -3 3 -55 -43 -115 -102z"/>
<path d="M1798 1635 c-6 -14 -9 -27 -7 -28 2 -2 52 -33 110 -70 123 -78 263
-139 381 -166 101 -24 263 -45 283 -37 13 5 23 56 11 56 -2 0 -49 5 -105 10
-206 22 -377 84 -562 205 -45 30 -86 55 -91 55 -5 0 -14 -11 -20 -25z m267
-153 c-5 -6 -94 40 -106 54 -5 6 17 -2 50 -19 33 -18 58 -33 56 -35z m40 -20
c-3 -3 -11 0 -18 7 -9 10 -8 11 6 5 10 -3 15 -9 12 -12z m70 -30 c-3 -3 -11 0
-18 7 -9 10 -8 11 6 5 10 -3 15 -9 12 -12z m152 -38 c-3 -3 -12 -4 -19 -1 -8
3 -5 6 6 6 11 1 17 -2 13 -5z m148 -32 c-3 -3 -11 0 -18 7 -9 10 -8 11 6 5 10
-3 15 -9 12 -12z"/>
<path d="M3470 1613 c0 -5 52 -60 115 -123 63 -63 115 -110 115 -104 0 6 -39
52 -87 103 -84 90 -143 141 -143 124z"/>
<path d="M4430 1557 c-23 -19 -43 -64 -35 -77 6 -9 16 -3 36 20 40 45 39 90
-1 57z"/>
<path d="M747 1454 c-8 -9 23 -62 40 -68 22 -9 22 9 1 42 -20 32 -29 38 -41
26z"/>
<path d="M542 1387 c-28 -29 -28 -52 -1 -71 13 -9 18 -19 13 -27 -5 -9 -2 -10
9 -6 10 3 17 2 17 -3 0 -19 47 -10 68 13 28 30 28 37 -6 74 -38 44 -72 50
-100 20z"/>
<path d="M790 1345 c-16 -31 -6 -44 21 -27 26 17 42 6 35 -24 -5 -18 -2 -24 9
-24 28 0 27 28 -2 64 -33 43 -45 45 -63 11z"/>
<path d="M4503 1354 c-3 -8 1 -29 8 -46 l14 -33 31 32 c17 17 28 36 25 41 -11
17 -72 22 -78 6z"/>
<path d="M3742 1334 c10 -10 20 -15 24 -12 3 4 -5 12 -18 18 -22 12 -22 12 -6
-6z"/>
<path d="M1555 1332 c11 -12 145 -113 204 -155 l39 -27 1 -117 c1 -64 3 -119
6 -121 3 -3 5 51 5 119 l0 125 -71 49 c-39 28 -76 55 -82 60 -19 17 -113 79
-102 67z"/>
<path d="M2601 918 c-1 -326 -4 -428 -13 -428 -9 0 -9 -3 0 -12 6 -6 15 -8 19
-4 12 11 15 515 5 706 -8 144 -9 111 -11 -262z"/>
<path d="M4251 1283 c-25 -34 -38 -59 -31 -61 14 -5 100 85 100 104 0 30 -28
12 -69 -43z"/>
<path d="M3785 1300 c-7 -12 2 -30 16 -30 12 0 12 27 0 35 -5 3 -12 1 -16 -5z"/>
<path d="M3268 1224 c-21 -13 -38 -29 -38 -35 0 -13 4 -11 52 21 35 23 48 41
31 39 -5 0 -25 -11 -45 -25z"/>
<path d="M1205 1193 l-17 -28 23 22 c12 12 20 25 17 28 -3 3 -13 -7 -23 -22z"/>
<path d="M3882 1188 c5 -15 28 -23 28 -10 0 5 -7 13 -16 16 -10 4 -14 1 -12
-6z"/>
<path d="M3242 1068 c1 -95 5 -83 10 30 2 34 0 62 -4 62 -5 0 -7 -42 -6 -92z"/>
<path d="M989 1114 c-11 -14 -11 -18 5 -29 16 -12 12 -19 -54 -83 l-71 -70 27
-21 c15 -12 32 -21 39 -21 7 0 34 25 60 55 25 30 53 55 60 55 16 0 47 39 40
50 -3 4 -18 10 -35 14 -26 5 -30 10 -28 33 4 32 -22 43 -43 17z m45 -85 c-10
-4 -16 -8 -12 -8 11 -1 -64 -71 -76 -71 -6 0 -4 6 5 13 9 7 16 14 15 17 -1 14
61 66 73 62 11 -4 10 -7 -5 -13z"/>
<path d="M1105 1090 c-3 -5 -1 -10 4 -10 6 0 11 5 11 10 0 6 -2 10 -4 10 -3 0
-8 -4 -11 -10z"/>
<path d="M4031 1061 c-13 -23 -4 -50 24 -73 21 -19 60 -25 50 -8 -3 6 -15 10
-27 10 -13 0 -18 5 -15 14 3 8 -1 17 -10 20 -12 5 -13 9 -3 21 11 14 16 14 39
-2 l26 -17 -16 25 c-21 31 -54 36 -68 10z"/>
<path d="M4120 1021 c0 -5 7 -15 17 -22 15 -13 15 -12 4 9 -12 23 -21 28 -21
13z"/>
<path d="M1168 955 c-11 -24 -9 -29 23 -59 18 -18 48 -40 64 -50 17 -11 5 5
-30 38 -65 61 -63 74 4 25 24 -17 45 -28 49 -25 7 7 -33 50 -70 78 l-28 19
-12 -26z"/>
<path d="M4178 961 c12 -11 22 -24 22 -29 0 -6 7 -18 16 -26 14 -15 13 -16 -9
-16 -14 0 -30 7 -37 15 -7 8 -16 15 -21 15 -5 0 -6 -7 -3 -15 4 -8 13 -15 20
-15 8 0 17 -7 20 -15 8 -20 27 -19 54 3 l22 18 -32 32 c-17 18 -36 32 -41 32
-5 0 -9 5 -9 10 0 6 -6 10 -12 10 -7 -1 -3 -9 10 -19z"/>
<path d="M4110 945 c7 -8 20 -15 28 -15 13 0 12 3 -4 15 -25 19 -40 19 -24 0z"/>
<path d="M3954 914 c-32 -32 -137 -110 -171 -128 -35 -17 -38 -23 -24 -44 6
-11 28 1 92 47 120 87 142 108 131 128 -8 14 -11 14 -28 -3z"/>
<path d="M1325 829 c-4 -5 0 -18 9 -27 22 -25 105 -66 114 -57 8 8 -87 95
-105 95 -6 0 -15 -5 -18 -11z"/>
<path d="M1756 795 c4 -8 10 -12 15 -9 14 8 10 24 -6 24 -9 0 -12 -6 -9 -15z"/>
<path d="M1496 715 c-6 -17 65 -58 92 -53 14 3 10 10 -17 36 -36 34 -65 41
-75 17z"/>
<path d="M3296 715 c-3 -9 1 -18 10 -22 19 -7 28 2 21 22 -8 19 -23 19 -31 0z"/>
<path d="M3574 705 c-10 -8 -26 -15 -35 -15 -17 0 -59 -40 -43 -40 21 0 114
52 108 61 -7 12 -7 12 -30 -6z"/>
<path d="M1465 659 c4 -6 0 -16 -8 -22 -21 -16 -33 -82 -16 -92 8 -5 10 -4 5
3 -4 7 -3 12 3 12 5 0 13 -4 16 -10 9 -14 51 -12 62 3 24 30 23 61 -4 89 -25
27 -72 40 -58 17z"/>
<path d="M1640 661 c0 -5 10 -13 23 -16 12 -4 36 -18 53 -31 17 -13 34 -20 38
-17 15 15 3 33 -37 52 -46 22 -77 27 -77 12z"/>
<path d="M3568 649 c-36 -18 -51 -39 -28 -39 6 0 10 -9 10 -20 0 -21 14 -27
25 -11 3 5 19 13 36 16 25 6 30 11 25 28 -3 12 -6 28 -6 35 0 16 -17 14 -62
-9z m36 -24 c4 -10 -1 -15 -14 -15 -20 0 -26 11 -13 23 10 11 20 8 27 -8z"/>
<path d="M1789 639 c-8 -5 -12 -9 -9 -9 3 0 20 -4 37 -9 18 -5 35 -6 38 -1 8
12 -50 29 -66 19z"/>
<path d="M3307 631 c-14 -14 -15 -20 -5 -24 18 -6 83 15 83 28 0 18 -59 15
-78 -4z"/>
<path d="M3348 583 c7 -3 16 -2 19 1 4 3 -2 6 -13 5 -11 0 -14 -3 -6 -6z"/>
<path d="M3253 573 c15 -2 39 -2 55 0 15 2 2 4 -28 4 -30 0 -43 -2 -27 -4z"/>
<path d="M1875 560 c-3 -5 0 -12 6 -15 26 -17 231 -67 239 -59 8 8 -23 23 -60
29 -19 3 -68 17 -107 30 -40 13 -75 20 -78 15z"/>
<path d="M2055 554 c22 -16 35 -18 35 -5 0 5 -12 11 -27 14 -26 5 -26 4 -8 -9z"/>
<path d="M3180 560 c0 -13 11 -13 30 0 12 8 11 10 -7 10 -13 0 -23 -4 -23 -10z"/>
<path d="M3135 553 c-31 -7 -41 -21 -26 -35 10 -11 14 -10 22 5 6 9 17 17 24
17 8 0 15 5 15 10 0 10 -3 11 -35 3z"/>
<path d="M3338 553 c-23 -6 -23 -8 4 -43 17 -23 24 -27 35 -18 11 9 12 13 1
19 -10 7 -9 9 3 9 8 0 19 -4 25 -10 6 -6 10 -3 11 10 2 22 -25 27 -58 10 -10
-6 -19 -7 -19 -2 0 5 10 14 23 20 22 11 7 14 -25 5z"/>
<path d="M2255 520 l-30 -8 33 -1 c17 0 32 4 32 9 0 6 -1 9 -2 9 -2 -1 -16 -5
-33 -9z"/>
<path d="M3015 519 c-10 -15 1 -23 20 -15 9 3 13 10 10 16 -8 13 -22 13 -30
-1z"/>
<path d="M2372 500 c9 -27 107 -37 116 -12 2 8 -8 12 -35 12 -21 0 -49 3 -62
7 -17 4 -22 2 -19 -7z"/>
<path d="M2798 483 c12 -2 30 -2 40 0 9 3 -1 5 -23 4 -22 0 -30 -2 -17 -4z"/>
<path d="M2208 473 c12 -2 30 -2 40 0 9 3 -1 5 -23 4 -22 0 -30 -2 -17 -4z"/>
</g>
</svg>
