<?xml version="1.0" standalone="no"?>
<!DOCTYPE svg PUBLIC "-//W3C//DTD SVG 20010904//EN"
 "http://www.w3.org/TR/2001/REC-SVG-20010904/DTD/svg10.dtd">
<svg version="1.0" xmlns="http://www.w3.org/2000/svg"
 width="512.000000pt" height="512.000000pt" viewBox="0 0 512.000000 512.000000"
 preserveAspectRatio="xMidYMid meet">
<metadata>
Created by potrace 1.16, written by Peter Selinger 2001-2019
</metadata>
<g transform="translate(0.000000,512.000000) scale(0.100000,-0.100000)"
fill="#000000" stroke="none">
<path d="M2405 4060 c-81 -10 -97 -18 -138 -67 -58 -70 -81 -130 -78 -202 1
-24 77 -109 88 -97 3 3 -1 14 -10 24 -24 26 -47 87 -47 123 0 17 17 63 37 101
43 83 63 94 180 104 66 5 81 4 92 -10 15 -18 41 -21 41 -5 0 19 142 1 237 -29
82 -26 85 -29 100 -67 34 -94 45 -137 38 -163 -4 -15 -9 -42 -11 -60 -3 -29
-1 -32 11 -22 8 7 19 29 25 49 11 44 -8 134 -40 187 -25 39 -25 47 -2 34 9 -5
43 -19 74 -31 125 -45 309 -192 362 -289 l28 -52 -26 -23 c-14 -12 -26 -25
-26 -28 0 -4 20 -16 45 -27 45 -21 57 -44 34 -67 -9 -9 -2 -26 25 -69 24 -39
32 -62 26 -68 -17 -17 -12 -33 29 -100 22 -35 37 -67 34 -70 -4 -3 -1 -6 5 -6
21 0 13 46 -34 213 -55 195 -122 332 -199 408 -72 70 -214 163 -298 194 -40
15 -90 35 -112 45 -75 35 -192 61 -292 64 -54 2 -107 6 -118 9 -11 2 -47 1
-80 -3z m1016 -522 c10 -18 9 -20 -6 -15 -9 4 -21 7 -26 7 -5 0 -9 7 -9 15 0
22 28 18 41 -7z m42 -128 c3 -11 2 -20 -3 -20 -8 0 -20 24 -20 41 0 17 17 1
23 -21z m46 -165 c0 -5 -4 -3 -9 5 -5 8 -9 22 -9 30 0 16 17 -16 18 -35z"/>
<path d="M2217 4005 c-21 -8 -97 -44 -170 -81 -119 -61 -140 -76 -217 -154
-101 -103 -127 -148 -173 -300 -49 -161 -65 -246 -77 -411 -6 -79 -20 -179
-30 -224 -10 -44 -17 -81 -15 -83 5 -6 32 89 54 193 11 50 33 130 50 178 44
129 64 213 56 246 -8 35 17 94 49 116 11 8 34 15 51 15 l30 1 -34 17 c-50 25
-61 47 -35 72 17 17 35 21 102 23 45 1 82 3 82 4 0 11 -56 29 -103 33 l-58 5
86 92 c93 100 172 155 318 222 48 23 87 43 87 46 0 7 -10 5 -53 -10z m-454
-382 c-35 -18 -36 -17 -17 16 16 27 19 28 30 13 10 -13 8 -18 -13 -29z m-24
-98 c7 -4 0 -15 -17 -30 -32 -27 -56 -92 -46 -129 4 -15 -5 -60 -21 -113 -37
-125 -47 -141 -40 -68 7 78 30 177 68 295 24 75 32 90 38 73 4 -11 12 -24 18
-28z"/>
<path d="M2361 3922 c-1 -33 41 -152 88 -252 42 -88 45 -70 6 35 -12 33 -30
83 -40 110 -10 28 -26 68 -36 90 -14 32 -18 35 -18 17z"/>
<path d="M2700 3937 c0 -2 9 -29 19 -60 11 -30 22 -80 26 -111 4 -31 11 -56
15 -56 15 0 32 61 27 94 -6 36 -87 160 -87 133z m70 -141 c0 -39 -6 -31 -14
19 -5 29 -4 36 3 25 6 -8 11 -28 11 -44z"/>
<path d="M2641 3895 c0 -5 6 -39 14 -75 8 -36 14 -86 15 -112 0 -27 4 -48 9
-48 17 0 28 139 14 177 -6 16 -8 15 -14 -7 l-7 -25 -1 25 c-2 24 -30 86 -30
65z"/>
<path d="M2420 3839 c0 -8 7 -24 15 -35 11 -15 14 -16 15 -3 0 8 -7 24 -15 35
-11 15 -14 16 -15 3z"/>
<path d="M2500 3822 c0 -5 3 -12 7 -15 3 -4 8 -17 9 -30 5 -49 41 -150 48
-138 13 21 -4 122 -27 157 -21 32 -37 43 -37 26z m40 -67 c0 -5 -5 -3 -10 5
-5 8 -10 20 -10 25 0 6 5 3 10 -5 5 -8 10 -19 10 -25z"/>
<path d="M2896 3702 c-9 -18 -15 -39 -13 -45 2 -7 12 3 21 21 9 18 15 39 13
45 -2 7 -12 -3 -21 -21z"/>
<path d="M1900 3675 c0 -10 91 -45 113 -44 16 0 7 8 -28 25 -47 22 -85 31 -85
19z"/>
<path d="M3185 3670 c-11 -5 -36 -22 -55 -39 l-35 -31 40 5 c151 17 156 20
100 54 -20 13 -36 16 -50 11z m40 -30 c-3 -5 -21 -10 -38 -10 -24 0 -28 3 -17
10 20 13 63 13 55 0z"/>
<path d="M1678 3651 c-33 -32 -99 -152 -122 -223 -47 -141 -58 -221 -66 -488
-9 -283 -19 -347 -73 -462 -47 -100 -117 -171 -178 -180 -13 -1 -25 -11 -27
-21 -11 -58 90 -65 193 -13 62 31 66 32 61 12 -11 -39 -19 -96 -13 -96 9 0 44
101 51 149 l7 44 -40 -36 c-71 -64 -164 -98 -226 -83 -33 8 -32 26 0 26 92 0
204 150 240 319 21 100 35 288 28 365 -8 85 12 275 41 388 25 97 66 190 118
266 32 46 34 60 6 33z"/>
<path d="M2295 3605 c17 -14 45 -34 63 -46 18 -12 31 -23 28 -26 -4 -5 -110
24 -209 58 -63 21 -86 24 -71 10 5 -6 43 -21 84 -35 l75 -25 -95 -1 c-57 -1
-85 -5 -70 -9 14 -4 39 -7 57 -6 17 0 29 -3 27 -7 -3 -4 -63 -6 -134 -5 -108
2 -126 0 -107 -10 12 -7 38 -13 57 -13 l35 0 -45 -21 c-54 -24 -106 -63 -120
-89 -7 -13 4 -9 41 16 73 49 92 46 40 -7 -38 -37 -121 -156 -121 -172 1 -7 10
-1 21 13 12 13 41 48 66 77 66 76 72 86 73 109 0 34 69 68 160 79 24 3 47 10
50 15 3 5 50 8 104 7 53 -2 99 0 102 4 2 4 17 1 32 -7 15 -7 37 -14 49 -14 12
0 33 -5 47 -11 14 -7 33 -8 43 -4 10 5 22 7 26 6 5 -1 5 4 1 10 -4 8 0 9 14 4
13 -3 40 2 67 14 37 16 45 17 45 5 0 -18 33 -18 95 1 28 8 53 11 59 6 6 -5 29
-11 51 -14 84 -12 134 -24 157 -39 31 -21 73 -58 65 -58 -4 0 3 -21 15 -47 12
-27 24 -80 28 -120 5 -54 13 -82 34 -113 41 -63 76 -127 76 -142 0 -7 -9 1
-19 18 -10 17 -32 41 -47 54 -26 20 -37 22 -99 17 -112 -9 -276 -72 -394 -152
-29 -19 -57 -35 -63 -35 -5 0 -16 17 -25 38 -13 28 -18 32 -21 19 -6 -27 5
-60 29 -90 l20 -27 57 41 c31 22 57 44 57 49 0 4 4 12 9 17 5 5 6 3 2 -4 -10
-18 6 -16 30 3 10 8 13 12 5 8 -9 -4 -12 -3 -7 4 3 6 14 11 24 11 9 -1 58 16
107 37 76 32 102 38 167 38 73 1 101 14 35 17 -31 2 -31 2 -4 6 35 6 52 -9 82
-66 31 -63 37 -112 25 -206 -14 -113 -34 -164 -83 -218 l-44 -47 -70 0 c-68 0
-116 13 -263 70 -69 27 -74 32 -102 106 -13 34 -27 63 -33 65 -5 2 -8 12 -7
23 2 10 -5 28 -16 40 -30 33 -42 61 -42 101 0 22 -4 34 -10 30 -18 -11 -11
-78 14 -130 13 -27 36 -79 52 -115 40 -92 67 -126 111 -140 70 -21 70 -21 49
-29 -15 -6 1 -20 84 -71 56 -35 115 -74 131 -87 21 -18 29 -21 29 -10 0 20
-100 96 -182 138 -22 11 -37 23 -34 26 3 3 11 1 18 -4 7 -6 36 -17 63 -26 131
-40 214 -29 272 37 40 46 83 130 83 163 0 34 18 36 25 3 5 -21 14 -32 31 -36
13 -3 24 -8 24 -11 0 -3 -14 -23 -31 -45 -42 -53 -61 -108 -66 -198 -3 -41
-12 -94 -20 -117 -19 -53 -37 -55 -138 -17 -45 17 -93 27 -133 28 -56 1 -66
-2 -84 -24 -14 -17 -18 -32 -13 -50 4 -14 9 -55 12 -92 4 -61 3 -68 -14 -70
-10 -1 -34 -3 -53 -5 -19 -2 -48 -3 -65 -3 -16 0 -41 -5 -53 -12 -20 -10 -25
-10 -33 5 -14 23 -46 21 -59 -4 -7 -11 -9 -23 -6 -26 8 -8 26 7 26 23 0 8 5
14 10 14 6 0 10 -9 10 -20 0 -11 5 -20 12 -20 9 0 9 -3 0 -12 -7 -7 -12 -32
-12 -56 l0 -43 38 3 c37 3 37 3 40 51 2 37 0 47 -12 47 -9 0 -16 4 -16 9 0 12
39 25 48 17 7 -8 4 -76 -7 -145 -9 -59 -3 -74 15 -34 11 26 12 26 13 6 2 -38
21 -26 21 12 0 22 -6 38 -15 41 -20 8 -9 24 16 24 14 0 19 7 19 30 0 17 -5 30
-11 30 -6 0 -9 10 -7 23 4 32 33 28 33 -5 1 -16 7 -34 14 -40 10 -11 15 -9 27
7 9 12 11 21 4 23 -14 5 -13 21 4 38 9 9 17 10 21 4 18 -28 25 -3 23 74 -3 71
0 87 16 105 15 16 16 21 5 21 -8 0 -20 -5 -27 -12 -14 -14 -27 -4 -19 16 15
39 79 30 254 -36 l62 -23 25 24 c14 13 28 36 31 52 4 16 13 29 20 29 36 0 113
151 125 246 15 118 -5 175 -51 146 -13 -8 -20 -8 -25 -1 -3 6 -1 76 6 155 l13
143 -55 93 c-31 51 -63 107 -72 123 l-17 30 6 -30 c4 -16 31 -71 61 -120 47
-79 54 -97 53 -140 l-2 -50 -6 45 c-4 25 -21 70 -39 100 -63 107 -93 178 -90
212 l3 33 35 -52 c33 -49 50 -64 50 -44 0 12 -96 157 -109 165 -6 4 -11 15
-11 24 0 11 14 2 45 -28 25 -24 45 -38 45 -30 0 8 -25 38 -56 68 l-56 55 36
-7 c23 -4 36 -3 36 4 0 6 -23 10 -55 10 -30 0 -55 5 -55 10 0 6 16 10 35 10
19 0 35 4 35 9 0 5 -45 12 -101 16 -99 7 -119 19 -49 28 19 3 1 4 -40 3 -41
-2 -84 -7 -94 -11 -14 -6 -17 -5 -12 4 4 6 35 26 69 43 34 17 57 33 50 35 -7
2 -22 -1 -34 -8 -25 -13 -218 -79 -232 -79 -5 0 7 18 27 40 20 22 36 44 36 50
0 5 -41 -18 -91 -51 -49 -34 -92 -59 -95 -57 -2 3 14 17 36 32 58 38 49 42
-17 7 -31 -17 -58 -29 -60 -27 -3 2 3 18 11 35 9 16 16 40 15 53 -1 21 -2 20
-15 -7 -7 -16 -16 -47 -20 -67 -4 -21 -9 -38 -11 -38 -2 0 -16 14 -30 30 -14
17 -31 29 -37 27 -6 -2 -20 0 -31 5 -17 8 -17 7 3 -11 12 -10 22 -22 22 -25 0
-8 -135 60 -172 85 -39 28 -58 23 -23 -6z m-222 -112 c-7 -2 -19 -2 -25 0 -7
3 -2 5 12 5 14 0 19 -2 13 -5z m717 -568 c0 -2 -10 -9 -22 -15 -22 -11 -22
-10 -4 4 21 17 26 19 26 11z m623 -327 c-3 -35 -10 -72 -15 -83 -5 -13 -6 1
-2 38 3 31 3 57 0 57 -3 0 -13 -26 -22 -57 -28 -103 -67 -213 -74 -213 -14 0
29 200 52 245 15 28 52 74 60 74 3 1 4 -27 1 -61z m-683 -618 c0 -23 -4 -30
-20 -30 -16 0 -20 7 -20 30 0 23 4 30 20 30 16 0 20 -7 20 -30z m80 15 c0 -8
-4 -15 -10 -15 -5 0 -10 7 -10 15 0 8 5 15 10 15 6 0 10 -7 10 -15z"/>
<path d="M1978 3533 c7 -3 16 -2 19 1 4 3 -2 6 -13 5 -11 0 -14 -3 -6 -6z"/>
<path d="M3490 3505 c0 -3 9 -23 20 -44 29 -59 59 -176 66 -264 5 -59 10 -75
17 -62 20 37 -17 234 -60 320 -16 29 -43 62 -43 50z"/>
<path d="M3795 3440 c-3 -5 -1 -10 4 -10 6 0 11 5 11 10 0 6 -2 10 -4 10 -3 0
-8 -4 -11 -10z"/>
<path d="M3875 3420 c-3 -5 -1 -10 4 -10 6 0 11 5 11 10 0 6 -2 10 -4 10 -3 0
-8 -4 -11 -10z"/>
<path d="M1355 3350 c-3 -5 -1 -10 4 -10 6 0 11 5 11 10 0 6 -2 10 -4 10 -3 0
-8 -4 -11 -10z"/>
<path d="M1917 3256 c-8 -51 -41 -116 -81 -161 -22 -25 -39 -55 -42 -78 -8
-48 -24 -58 -24 -15 0 24 11 47 41 83 45 53 93 147 87 167 -3 7 -16 -12 -30
-42 -13 -30 -46 -81 -72 -113 l-48 -59 12 -101 c6 -56 14 -131 17 -166 l6 -64
-30 6 c-17 3 -35 1 -42 -6 -16 -16 -14 -57 4 -57 40 0 101 -162 110 -294 6
-79 30 -129 64 -134 12 -2 65 13 117 33 110 43 167 53 189 35 18 -15 20 -44 3
-37 -52 21 -51 21 -23 -22 27 -41 28 -43 12 -76 -17 -36 -14 -84 7 -100 7 -6
12 -28 12 -51 -1 -29 3 -40 12 -37 7 3 12 -3 12 -15 0 -12 5 -24 10 -27 12 -8
13 27 1 40 -5 6 -12 35 -15 65 -6 51 -6 54 9 36 8 -11 12 -28 9 -38 -3 -11 2
-30 11 -44 9 -14 15 -35 14 -47 -3 -26 9 -67 20 -67 4 0 5 28 3 63 -2 34 -4
69 -4 77 -1 8 -5 18 -10 21 -10 7 0 39 13 39 5 0 9 -4 9 -10 0 -14 34 -12 48
2 10 10 15 10 22 -2 6 -8 9 -22 9 -30 -1 -8 -1 -33 0 -56 1 -38 3 -41 31 -42
29 -1 30 0 30 50 0 48 -1 50 -25 46 -17 -4 -25 -1 -25 9 0 8 4 12 9 9 4 -3 17
1 27 9 10 8 22 15 27 15 4 0 7 -31 7 -70 0 -67 1 -70 24 -70 13 0 31 -3 40 -6
13 -5 16 3 16 50 0 47 -3 56 -17 56 -15 0 -14 4 6 19 22 17 26 17 40 3 12 -11
13 -16 3 -20 -7 -2 -12 -24 -12 -58 l0 -54 45 0 45 0 0 50 c0 39 -4 52 -20 60
-16 9 -20 8 -20 -5 0 -8 5 -15 10 -15 6 0 10 -16 10 -35 0 -31 -3 -35 -25 -35
-21 0 -25 5 -25 30 0 17 6 39 12 50 25 40 -22 74 -68 49 -24 -12 -35 -59 -14
-59 6 0 10 -16 10 -36 0 -28 -3 -35 -17 -32 -14 2 -19 15 -21 48 -4 66 -10 87
-28 94 -9 4 -22 1 -30 -5 -7 -6 -21 -8 -31 -5 -10 3 -43 6 -73 7 -105 3 -100
-3 -95 110 4 97 4 98 -23 120 -33 26 -80 22 -195 -15 -107 -36 -132 -34 -146
5 -6 18 -11 51 -11 74 0 90 -57 256 -96 278 -22 12 -17 27 9 27 36 0 47 19 48
89 l2 66 8 -69 c9 -78 51 -172 99 -223 52 -56 123 -63 260 -28 14 4 4 -6 -25
-23 -60 -36 -132 -98 -124 -106 3 -3 49 23 103 59 54 35 113 69 132 75 36 12
46 29 17 31 -10 0 10 10 44 22 34 12 69 29 77 37 31 32 86 135 86 162 0 16 9
46 20 68 20 40 27 114 11 124 -5 3 -11 -17 -13 -45 -4 -36 -12 -58 -32 -78
-24 -25 -38 -79 -16 -66 14 8 13 4 -8 -36 -38 -75 -78 -129 -93 -129 -10 0
-59 -16 -110 -36 -81 -31 -106 -36 -185 -38 -102 -1 -108 1 -157 73 -41 60
-57 133 -57 265 0 97 3 113 23 143 27 40 70 51 143 35 74 -15 281 -111 360
-167 l68 -47 18 22 c10 12 19 30 20 39 5 53 4 71 -2 71 -4 0 -11 -16 -14 -35
-4 -19 -11 -37 -16 -40 -6 -3 -31 8 -56 26 -108 74 -372 179 -451 179 -29 0
-43 -8 -73 -39 -21 -21 -40 -51 -44 -66 -7 -26 -36 -65 -36 -48 0 25 54 141
64 136 6 -3 8 -3 4 2 -4 4 0 15 10 24 30 28 53 79 59 131 6 56 -1 69 -10 16z
m-110 -378 c-2 -13 -4 -5 -4 17 -1 22 1 32 4 23 2 -10 2 -28 0 -40z m400 -760
c-3 -8 -6 -5 -6 6 -1 11 2 17 5 13 3 -3 4 -12 1 -19z m213 -139 c0 -17 -4 -28
-10 -24 -5 3 -10 17 -10 31 0 13 5 24 10 24 6 0 10 -14 10 -31z"/>
<path d="M1160 3270 c0 -5 5 -10 11 -10 5 0 7 5 4 10 -3 6 -8 10 -11 10 -2 0
-4 -4 -4 -10z"/>
<path d="M1395 3200 c-3 -5 -1 -10 4 -10 6 0 11 5 11 10 0 6 -2 10 -4 10 -3 0
-8 -4 -11 -10z"/>
<path d="M3470 3173 c0 -4 24 -47 54 -97 177 -299 228 -393 244 -442 17 -54
32 -70 32 -35 0 41 -35 115 -135 286 -111 189 -145 250 -145 260 0 7 -11 17
-25 23 -14 6 -25 9 -25 5z"/>
<path d="M3668 3153 c7 -3 16 -2 19 1 4 3 -2 6 -13 5 -11 0 -14 -3 -6 -6z"/>
<path d="M3945 3130 c3 -5 8 -10 11 -10 2 0 4 5 4 10 0 6 -5 10 -11 10 -5 0
-7 -4 -4 -10z"/>
<path d="M1045 3120 c-3 -5 -1 -10 4 -10 6 0 11 5 11 10 0 6 -2 10 -4 10 -3 0
-8 -4 -11 -10z"/>
<path d="M1310 3080 c0 -5 5 -10 10 -10 6 0 10 5 10 10 0 6 -4 10 -10 10 -5 0
-10 -4 -10 -10z"/>
<path d="M3850 3060 c0 -5 5 -10 11 -10 5 0 7 5 4 10 -3 6 -8 10 -11 10 -2 0
-4 -4 -4 -10z"/>
<path d="M1070 2940 c0 -5 5 -10 11 -10 5 0 7 5 4 10 -3 6 -8 10 -11 10 -2 0
-4 -4 -4 -10z"/>
<path d="M770 2920 c0 -5 5 -10 11 -10 5 0 7 5 4 10 -3 6 -8 10 -11 10 -2 0
-4 -4 -4 -10z"/>
<path d="M990 2880 c0 -5 5 -10 10 -10 6 0 10 5 10 10 0 6 -4 10 -10 10 -5 0
-10 -4 -10 -10z"/>
<path d="M3554 2844 c3 -17 12 -84 21 -150 9 -65 19 -121 21 -123 17 -18 -11
229 -32 273 l-14 31 4 -31z"/>
<path d="M1390 2849 c0 -5 5 -7 10 -4 6 3 10 8 10 11 0 2 -4 4 -10 4 -5 0 -10
-5 -10 -11z"/>
<path d="M845 2840 c-3 -5 -1 -10 4 -10 6 0 11 5 11 10 0 6 -2 10 -4 10 -3 0
-8 -4 -11 -10z"/>
<path d="M3604 2835 c20 -56 29 -175 19 -246 -10 -65 -9 -81 12 -164 43 -171
118 -325 165 -340 11 -3 20 -11 20 -16 0 -32 -118 30 -174 91 -43 48 -86 126
-86 154 0 8 -4 18 -10 21 -12 8 -12 -8 0 -60 5 -22 19 -110 29 -196 12 -95 28
-175 41 -205 23 -56 24 -61 -4 126 -9 58 -16 118 -16 133 l0 28 48 -40 c64
-54 135 -85 162 -71 25 13 26 47 2 54 -61 20 -181 341 -168 451 4 27 7 78 7
112 l2 62 21 -32 c11 -18 30 -49 41 -70 21 -40 33 -53 41 -44 7 7 -24 66 -90
171 -60 95 -74 113 -62 81z"/>
<path d="M1200 2820 c0 -5 5 -10 11 -10 5 0 7 5 4 10 -3 6 -8 10 -11 10 -2 0
-4 -4 -4 -10z"/>
<path d="M710 2770 c0 -5 5 -10 10 -10 6 0 10 5 10 10 0 6 -4 10 -10 10 -5 0
-10 -4 -10 -10z"/>
<path d="M1051 2734 c0 -11 3 -14 6 -6 3 7 2 16 -1 19 -3 4 -6 -2 -5 -13z"/>
<path d="M910 2730 c0 -5 5 -10 11 -10 5 0 7 5 4 10 -3 6 -8 10 -11 10 -2 0
-4 -4 -4 -10z"/>
<path d="M1155 2720 c-3 -5 -1 -10 4 -10 6 0 11 5 11 10 0 6 -2 10 -4 10 -3 0
-8 -4 -11 -10z"/>
<path d="M1310 2700 c0 -5 5 -10 11 -10 5 0 7 5 4 10 -3 6 -8 10 -11 10 -2 0
-4 -4 -4 -10z"/>
<path d="M2512 2647 c-28 -29 -75 -128 -96 -197 -30 -102 -16 -169 41 -191 31
-12 88 5 103 29 9 16 9 16 10 1 0 -20 20 -29 64 -29 37 0 73 29 82 66 12 46
-55 248 -103 312 -29 39 -69 43 -101 9z m100 -75 c47 -98 80 -197 76 -230 -2
-14 -16 -34 -31 -46 -33 -25 -54 -16 -77 32 -16 33 -30 42 -30 18 0 -7 -9 -25
-21 -40 -23 -29 -47 -28 -83 3 -14 13 -17 25 -13 61 7 56 69 205 99 238 20 22
21 24 4 18 -16 -5 -17 -4 -6 9 25 30 44 16 82 -63z"/>
<path d="M1070 2650 c0 -5 5 -10 11 -10 5 0 7 5 4 10 -3 6 -8 10 -11 10 -2 0
-4 -4 -4 -10z"/>
<path d="M1195 2630 c-3 -5 -1 -10 4 -10 6 0 11 5 11 10 0 6 -2 10 -4 10 -3 0
-8 -4 -11 -10z"/>
<path d="M1702 2571 c4 -52 14 -85 42 -142 64 -126 91 -131 41 -7 -14 34 -25
72 -25 85 0 24 -47 133 -57 133 -3 0 -3 -31 -1 -69z"/>
<path d="M810 2580 c0 -5 5 -10 11 -10 5 0 7 5 4 10 -3 6 -8 10 -11 10 -2 0
-4 -4 -4 -10z"/>
<path d="M955 2570 c-3 -5 -1 -10 4 -10 6 0 11 5 11 10 0 6 -2 10 -4 10 -3 0
-8 -4 -11 -10z"/>
<path d="M1235 2560 c-3 -5 -1 -10 4 -10 6 0 11 5 11 10 0 6 -2 10 -4 10 -3 0
-8 -4 -11 -10z"/>
<path d="M2230 2476 c-134 -76 -216 -139 -159 -121 29 9 226 132 235 146 13
22 -4 16 -76 -25z"/>
<path d="M2810 2511 c0 -25 240 -174 256 -159 3 3 -44 36 -103 73 -59 38 -118
75 -130 83 -15 9 -23 10 -23 3z"/>
<path d="M940 2480 c0 -5 5 -10 10 -10 6 0 10 5 10 10 0 6 -4 10 -10 10 -5 0
-10 -4 -10 -10z"/>
<path d="M1040 2481 c0 -6 5 -13 10 -16 6 -3 10 1 10 9 0 9 -4 16 -10 16 -5 0
-10 -4 -10 -9z"/>
<path d="M845 2470 c-3 -5 -1 -10 4 -10 6 0 11 5 11 10 0 6 -2 10 -4 10 -3 0
-8 -4 -11 -10z"/>
<path d="M1162 2471 c2 -7 7 -12 11 -12 12 1 9 15 -3 20 -7 2 -11 -2 -8 -8z"/>
<path d="M710 2460 c0 -5 5 -10 10 -10 6 0 10 5 10 10 0 6 -4 10 -10 10 -5 0
-10 -4 -10 -10z"/>
<path d="M630 2440 c0 -5 5 -10 10 -10 6 0 10 5 10 10 0 6 -4 10 -10 10 -5 0
-10 -4 -10 -10z"/>
<path d="M1595 2408 c-9 -40 -43 -109 -91 -183 -19 -30 -30 -55 -24 -55 15 0
46 34 67 72 l18 33 6 -120 c3 -66 9 -127 13 -136 9 -20 -52 -103 -79 -107 -58
-8 -65 -13 -65 -37 0 -45 75 -60 147 -30 20 8 38 13 41 10 3 -2 -1 -32 -7 -66
-7 -33 -10 -63 -8 -65 11 -11 38 72 44 132 l6 67 -34 -26 c-47 -36 -115 -53
-153 -38 -35 14 -29 23 20 27 21 2 47 13 61 26 35 33 85 140 90 195 5 56 -12
42 -22 -18 -4 -21 -12 -45 -20 -55 -11 -16 -13 -10 -9 46 6 102 12 360 9 360
-2 0 -7 -15 -10 -32z"/>
<path d="M3468 2125 c-4 -132 -11 -207 -22 -245 -9 -30 -24 -85 -33 -122 -18
-69 -29 -82 -39 -50 -3 9 -21 54 -40 100 -19 45 -38 108 -43 140 -6 41 -10 51
-15 37 -4 -11 -20 -48 -37 -83 -16 -34 -29 -69 -29 -77 0 -30 18 -14 35 32
l18 47 16 -34 c8 -19 25 -56 37 -82 12 -27 21 -48 19 -48 -2 0 -25 9 -52 21
-26 11 -79 23 -116 26 l-68 6 7 41 c3 23 7 42 9 44 7 8 33 -12 49 -38 9 -17
21 -30 27 -30 12 0 12 4 -7 42 -17 36 -72 74 -86 60 -4 -4 -12 -38 -16 -74
l-8 -65 73 -6 c46 -3 92 -14 125 -30 62 -28 212 -150 248 -201 16 -23 30 -33
40 -30 53 21 96 25 125 10 17 -8 55 -22 87 -30 56 -16 66 -24 162 -129 14 -15
26 -32 26 -37 0 -9 100 -34 107 -26 2 2 -16 8 -41 15 -27 7 -47 18 -50 29 -3
10 -37 49 -74 89 -61 63 -74 72 -123 82 -29 6 -68 19 -86 28 -27 14 -41 15
-84 7 -42 -9 -53 -8 -63 4 -6 8 -37 40 -68 71 -32 31 -58 62 -58 69 0 7 13 57
29 111 16 54 32 120 36 147 13 103 15 105 39 34 37 -106 53 -138 76 -150 21
-11 20 -10 -3 37 -38 74 -87 239 -99 328 -18 141 -25 125 -30 -70z"/>
<path d="M2525 2196 c-8 -50 -2 -66 24 -66 36 0 53 49 34 97 -6 13 -9 3 -13
-31 -3 -30 -11 -51 -19 -54 -11 -4 -13 5 -7 47 4 31 3 51 -3 51 -5 0 -13 -20
-16 -44z"/>
<path d="M3045 2190 c-3 -5 -2 -10 4 -10 5 0 13 5 16 10 3 6 2 10 -4 10 -5 0
-13 -4 -16 -10z"/>
<path d="M3097 2179 c-10 -6 -30 -12 -45 -13 -21 -3 -28 -10 -33 -33 -7 -37
-67 -143 -80 -143 -5 0 -9 9 -9 19 0 28 -20 37 -21 9 -3 -47 -6 -64 -18 -86
-7 -13 -8 -22 -2 -22 6 0 18 16 27 35 9 19 22 35 28 35 18 0 50 38 86 103 17
31 35 55 40 52 10 -6 -17 -171 -36 -210 -8 -18 -60 -79 -115 -136 -54 -57
-114 -125 -132 -152 -49 -72 -73 -79 -246 -75 -165 3 -161 2 -221 83 -21 27
-80 96 -133 153 -103 111 -109 125 -133 287 -6 43 -5 48 8 38 8 -7 27 -36 43
-65 15 -29 35 -61 43 -70 26 -31 32 -19 10 20 l-21 37 27 -30 c33 -36 32 -33
-23 75 l-43 85 -53 0 c-29 0 -52 -2 -50 -5 2 -3 15 -66 30 -140 15 -74 32
-144 38 -155 5 -11 53 -65 106 -120 53 -56 119 -128 147 -160 l51 -60 177 -3
c166 -3 179 -2 211 18 19 12 35 25 35 30 0 5 60 71 133 147 73 76 138 152 145
168 9 23 62 271 62 291 0 7 -14 4 -33 -7z m-960 -123 c-4 -11 -57 88 -57 106
0 7 14 -11 30 -41 17 -30 29 -59 27 -65z"/>
<path d="M2967 2076 c-14 -26 -22 -46 -16 -46 10 0 53 80 46 86 -3 3 -16 -15
-30 -40z"/>
<path d="M2328 2032 c-23 -4 -24 -50 -2 -59 21 -8 32 7 25 37 -4 18 -12 24
-23 22z"/>
<path d="M2850 1961 c-14 -14 -26 -101 -15 -101 12 0 33 60 28 80 -4 16 -3 21
5 16 7 -4 12 -1 12 8 0 20 -11 19 -30 -3z"/>
<path d="M2314 1944 c3 -8 6 -30 6 -47 0 -29 1 -30 15 -11 14 19 14 18 15 -3
0 -13 5 -23 10 -23 7 0 9 16 5 43 -8 48 -9 50 -36 54 -16 2 -20 -1 -15 -13z"/>
<path d="M1815 1910 c-4 -14 -47 -62 -94 -107 -47 -45 -80 -83 -72 -83 18 0
87 54 137 107 l41 44 17 -25 c14 -22 19 -24 44 -15 15 6 41 21 59 35 47 36 63
32 63 -16 0 -22 0 -43 0 -47 0 -5 -36 -11 -80 -15 -113 -10 -156 -33 -278
-153 l-104 -102 -72 5 c-58 4 -81 0 -117 -16 -50 -23 -173 -131 -194 -172 -10
-20 -28 -30 -76 -44 -83 -23 -71 -29 15 -8 50 13 71 23 76 37 10 26 142 143
188 167 40 20 99 23 151 8 34 -10 35 -9 140 96 129 129 173 152 294 161 l87 6
0 31 c0 76 -11 102 -43 112 -29 8 -35 6 -75 -33 -24 -24 -47 -43 -52 -43 -4 0
-10 12 -13 28 -3 15 -12 36 -20 46 -14 19 -15 19 -22 -4z"/>
<path d="M2390 1890 c0 -36 7 -39 19 -7 9 22 9 22 20 -7 15 -36 23 -29 15 12
-5 25 -12 32 -30 32 -20 0 -24 -5 -24 -30z"/>
<path d="M2470 1883 c1 -25 2 -26 14 -10 16 21 36 22 36 3 0 -8 5 -18 10 -21
6 -4 10 7 10 24 0 29 -3 31 -35 31 -32 0 -35 -3 -35 -27z"/>
<path d="M2564 1878 c1 -33 11 -37 19 -8 7 27 31 25 45 -2 10 -22 11 -22 11 7
1 29 -1 30 -37 30 -36 0 -39 -2 -38 -27z"/>
<path d="M2660 1880 c0 -16 5 -30 10 -30 6 0 10 9 10 20 0 27 24 25 38 -2 10
-22 11 -21 11 10 1 30 -1 32 -34 32 -32 0 -35 -2 -35 -30z"/>
<path d="M2084 1601 c1 -84 -3 -115 -18 -148 l-19 -42 26 -43 c63 -108 325
-404 376 -425 20 -9 63 -19 96 -22 33 -4 66 -10 73 -14 6 -5 12 -4 12 2 0 6
15 14 33 19 33 8 133 124 327 381 l79 104 -17 31 c-12 24 -16 59 -17 148 0 65
-3 118 -6 118 -4 0 -13 -8 -20 -19 -53 -73 -248 -285 -287 -313 -70 -51 -102
-61 -184 -57 -64 4 -79 8 -120 38 -25 18 -101 97 -167 175 -67 77 -132 148
-144 158 l-23 16 0 -107z m51 49 c3 -5 1 -10 -4 -10 -6 0 -11 5 -11 10 0 6 2
10 4 10 3 0 8 -4 11 -10z m30 -40 c10 -11 16 -20 13 -20 -3 0 -13 9 -23 20
-10 11 -16 20 -13 20 3 0 13 -9 23 -20z m815 17 c0 -2 -10 -12 -22 -23 l-23
-19 19 23 c18 21 26 27 26 19z m-774 -109 c189 -220 238 -253 361 -246 98 5
164 41 261 142 43 45 98 108 122 140 l45 60 7 -119 7 -118 -37 -47 c-126 -163
-271 -339 -296 -360 -33 -27 -90 -31 -175 -10 -41 10 -61 23 -110 73 -80 83
-213 240 -257 303 -34 50 -34 51 -23 104 6 30 9 82 6 117 -4 35 -5 63 -3 63 2
0 44 -46 92 -102z m706 25 c-16 -21 -40 -47 -53 -58 -13 -11 -1 6 25 38 54 63
75 78 28 20z m131 -102 c2 -10 1 -24 -3 -31 -5 -7 -9 2 -12 23 -4 37 6 42 15
8z m-253 -36 c-76 -77 -154 -115 -237 -115 -69 0 -123 21 -158 60 -13 15 -1
10 35 -15 54 -36 57 -37 131 -33 89 5 135 28 221 108 71 66 75 63 8 -5z m-700
25 c0 -11 -4 -20 -9 -20 -5 0 -7 9 -4 20 3 11 7 20 9 20 2 0 4 -9 4 -20z"/>
<path d="M1212 1275 c20 -14 40 -25 43 -25 3 0 33 -17 68 -38 98 -59 333 -176
437 -217 223 -89 429 -131 595 -121 167 9 176 23 13 18 -171 -6 -250 5 -420
54 -190 55 -401 152 -655 300 -93 55 -147 74 -81 29z"/>
<path d="M3655 1156 c-414 -210 -616 -271 -872 -264 -73 2 -133 1 -133 -3 0
-3 52 -9 114 -12 129 -7 236 6 381 48 99 28 108 31 210 70 107 42 595 288 595
301 0 9 -27 -3 -295 -140z"/>
</g>
</svg>
