<?xml version="1.0" standalone="no"?>
<!DOCTYPE svg PUBLIC "-//W3C//DTD SVG 20010904//EN"
 "http://www.w3.org/TR/2001/REC-SVG-20010904/DTD/svg10.dtd">
<svg version="1.0" xmlns="http://www.w3.org/2000/svg"
 width="512.000000pt" height="512.000000pt" viewBox="0 0 512.000000 512.000000"
 preserveAspectRatio="xMidYMid meet">
<metadata>
Created by potrace 1.16, written by Peter Selinger 2001-2019
</metadata>
<g transform="translate(0.000000,512.000000) scale(0.100000,-0.100000)"
fill="#000000" stroke="none">
<path d="M1720 4259 c0 -571 3 -858 10 -854 14 9 14 1715 0 1715 -7 0 -10
-294 -10 -861z"/>
<path d="M3370 4266 c0 -559 3 -857 10 -861 7 -4 10 283 10 854 0 567 -3 861
-10 861 -7 0 -10 -291 -10 -854z"/>
<path d="M775 4863 c-81 -17 -216 -84 -245 -121 -11 -13 -20 -34 -20 -45 0
-19 3 -18 33 10 43 41 100 75 172 103 86 34 258 35 364 1 178 -55 296 -184
346 -376 22 -87 20 -243 -6 -335 -20 -74 -79 -184 -111 -208 -24 -17 -40 -50
-33 -63 4 -6 19 -1 38 14 41 30 65 39 73 26 8 -13 34 8 34 27 0 17 -2 17 -35
2 -38 -17 -41 -3 -8 39 135 174 134 509 -2 698 -12 17 -24 38 -28 48 -3 9 -16
17 -27 17 -11 0 -20 6 -20 14 0 20 -84 80 -161 115 -63 29 -180 52 -257 50
-20 0 -68 -7 -107 -16z"/>
<path d="M3606 4821 c-3 -4 57 -9 134 -10 86 0 140 3 140 9 0 12 -267 14 -274
1z"/>
<path d="M4584 4823 c4 -4 64 -8 133 -8 l126 0 4 -30 c6 -45 13 -43 13 3 l0
42 -142 0 c-78 0 -138 -3 -134 -7z"/>
<path d="M3897 4800 c-4 -17 -2 -18 16 -9 14 8 116 10 334 7 253 -3 313 -2
313 9 0 10 -65 13 -329 13 -319 0 -329 -1 -334 -20z"/>
<path d="M4580 4784 c0 -10 27 -48 60 -83 l60 -65 -3 -362 c-1 -199 -6 -366
-10 -371 -5 -4 -139 -9 -298 -11 l-289 -4 0 -29 0 -29 288 0 287 0 38 36 37
35 0 364 0 363 -85 88 c-60 62 -85 82 -85 68z m139 -878 c-9 -8 -10 -5 -5 14
3 14 7 162 8 330 l3 305 2 -319 c3 -231 0 -323 -8 -330z m-39 -41 c-11 -13
-55 -15 -288 -15 -151 0 -272 3 -268 8 4 4 123 9 264 12 141 3 268 7 281 8 20
2 22 0 11 -13z"/>
<path d="M3601 4754 c0 -11 3 -14 6 -6 3 7 2 16 -1 19 -3 4 -6 -2 -5 -13z"/>
<path d="M3875 4760 c-3 -5 -1 -10 4 -10 6 0 11 5 11 10 0 6 -2 10 -4 10 -3 0
-8 -4 -11 -10z"/>
<path d="M2642 4755 c3 -3 31 -13 62 -21 31 -8 77 -26 102 -40 25 -14 48 -23
51 -20 9 9 -137 73 -182 81 -22 4 -37 4 -33 0z"/>
<path d="M3671 4717 c-21 -43 -29 -100 -12 -81 10 10 42 116 37 122 -2 2 -13
-17 -25 -41z"/>
<path d="M476 4731 c-7 -11 3 -41 13 -41 4 0 8 11 9 25 2 25 -11 34 -22 16z"/>
<path d="M3845 4730 c-3 -5 -1 -10 4 -10 6 0 11 5 11 10 0 6 -2 10 -4 10 -3 0
-8 -4 -11 -10z"/>
<path d="M2295 4697 c-62 -36 -85 -53 -85 -63 0 -7 -9 -14 -20 -17 -11 -3 -20
-12 -20 -21 0 -9 -4 -16 -9 -16 -5 0 -20 -15 -32 -32 -16 -22 -17 -28 -6 -19
22 18 22 12 -8 -54 -13 -31 -27 -80 -30 -108 l-5 -52 15 60 c9 32 29 86 45
119 34 68 36 73 15 56 -10 -9 -15 -9 -15 -1 0 6 5 12 10 12 6 1 14 2 18 3 4 0
26 19 48 41 21 22 57 55 79 72 39 32 39 43 0 20z"/>
<path d="M3768 4667 c-60 -42 -71 -59 -21 -34 33 18 103 77 88 76 -5 -1 -36
-19 -67 -42z"/>
<path d="M430 4654 c0 -14 -9 -33 -19 -42 -22 -19 -65 -131 -82 -211 -7 -32
-9 -101 -6 -170 4 -97 9 -127 33 -186 38 -91 49 -109 63 -101 16 10 14 46 -3
46 -7 0 -16 10 -19 23 -3 12 -15 58 -27 102 -37 134 -18 305 50 452 17 35 30
68 30 73 0 5 5 10 12 12 15 5 1 28 -18 28 -8 0 -14 -10 -14 -26z"/>
<path d="M2473 4655 c-76 -14 -136 -43 -190 -93 -43 -40 -113 -150 -113 -176
0 -13 13 3 35 43 42 79 71 110 149 161 46 29 79 42 134 51 39 7 72 16 72 20 0
10 5 11 -87 -6z"/>
<path d="M2575 4662 c-3 -3 26 -13 64 -23 82 -21 138 -48 186 -90 19 -17 35
-26 35 -21 0 15 -90 79 -143 102 -49 22 -133 41 -142 32z"/>
<path d="M2870 4667 c0 -3 26 -30 57 -60 63 -61 88 -69 32 -11 -35 36 -89 79
-89 71z"/>
<path d="M3854 4582 l-72 -77 -2 -270 c-4 -359 -4 -359 17 -351 10 4 14 4 10
0 -4 -4 3 -18 15 -31 20 -21 29 -23 136 -23 111 0 114 1 99 18 -10 10 -17 24
-17 30 0 7 -30 12 -82 14 -75 3 -83 5 -83 23 -1 20 -6 22 -37 10 -15 -6 -16 7
-12 147 2 84 4 206 5 271 l1 119 42 41 c23 23 50 53 59 67 l17 25 225 3 225 4
0 29 0 29 -237 -1 -238 -1 -71 -76z m526 48 c0 -6 -78 -10 -195 -11 -107 -1
-199 -3 -205 -4 -5 -1 -19 -3 -30 -4 -11 0 -24 -9 -27 -18 -4 -10 -31 -42 -60
-72 -50 -50 -53 -56 -53 -102 0 -27 -4 -49 -8 -49 -5 0 -6 28 -4 63 4 57 8 65
46 103 22 23 53 55 68 72 l26 30 221 1 c135 0 221 -4 221 -9z m-573 -492 c-2
-13 -4 -5 -4 17 -1 22 1 32 4 23 2 -10 2 -28 0 -40z m-10 -100 c-3 -8 -6 -5
-6 6 -1 11 2 17 5 13 3 -3 4 -12 1 -19z m6 -86 c3 -24 1 -40 -4 -36 -5 3 -9
24 -9 46 0 51 5 47 13 -10z m57 -56 c0 -18 31 -26 103 -26 31 0 57 -4 57 -10
0 -6 -34 -10 -83 -10 -72 0 -87 3 -103 21 -16 17 -16 22 -4 29 21 13 30 12 30
-4z"/>
<path d="M2543 4615 c-3 -9 -3 -18 -1 -21 3 -3 8 4 11 16 6 23 -1 27 -10 5z"/>
<path d="M3670 4605 c-11 -13 -28 -401 -30 -662 0 -85 2 -93 19 -93 16 0 21 9
25 53 9 72 12 717 5 717 -4 0 -12 -7 -19 -15z"/>
<path d="M4528 4573 c10 -16 32 -47 47 -71 19 -29 31 -40 39 -32 7 7 3 19 -11
37 -11 16 -27 43 -37 61 -10 20 -24 32 -37 32 -19 0 -19 0 -1 -27z"/>
<path d="M4852 4229 l-2 -375 -40 -54 c-22 -29 -40 -56 -40 -58 0 -11 34 25
61 64 l29 43 -3 378 -2 378 -3 -376z"/>
<path d="M2430 4561 c-30 -16 -56 -35 -59 -42 -2 -8 -16 -28 -31 -45 -36 -42
-70 -114 -76 -161 -4 -35 -3 -34 9 10 8 26 36 80 63 119 42 63 73 91 140 135
35 22 9 13 -46 -16z"/>
<path d="M2283 4513 c-4 -10 -10 -20 -13 -23 -9 -6 -23 -50 -17 -50 3 0 17 20
30 45 14 25 21 45 16 45 -5 0 -13 -8 -16 -17z"/>
<path d="M2994 4463 c13 -26 28 -68 34 -93 6 -25 14 -54 16 -65 3 -11 3 4 0
33 -5 54 -43 154 -63 166 -6 4 0 -15 13 -41z"/>
<path d="M2091 4493 c-1 -6 -4 -20 -7 -30 -5 -17 -5 -17 6 0 6 10 9 23 6 30
-3 9 -5 9 -5 0z"/>
<path d="M2803 4486 c-25 -12 -29 -21 -13 -31 6 -3 13 1 16 9 3 9 12 16 20 16
8 0 14 5 14 10 0 12 -8 11 -37 -4z"/>
<path d="M2500 4459 c-160 -72 -185 -272 -47 -382 30 -25 49 -32 97 -35 94 -7
126 3 180 57 36 36 50 59 59 98 25 101 -24 220 -109 264 -46 25 -123 24 -180
-2z m150 1 c75 -21 130 -108 130 -207 0 -78 -30 -137 -89 -175 -42 -27 -52
-29 -118 -26 -82 4 -110 19 -157 86 -31 44 -44 113 -32 177 10 51 80 120 143
139 58 18 78 19 123 6z"/>
<path d="M4400 4450 c0 -5 4 -10 9 -10 6 0 13 5 16 10 3 6 -1 10 -9 10 -9 0
-16 -4 -16 -10z"/>
<path d="M4048 4294 c-3 -151 1 -179 25 -155 8 8 8 11 -1 11 -13 0 -17 190 -6
249 l7 31 153 0 c126 0 154 -3 154 -14 0 -8 6 -16 13 -18 9 -4 12 -39 12 -130
0 -70 3 -124 8 -121 4 2 7 53 7 113 0 92 -3 116 -21 150 l-21 40 -164 0 -163
0 -3 -156z"/>
<path d="M4610 4445 c0 -15 24 -54 31 -49 10 6 -10 54 -23 54 -4 0 -8 -2 -8
-5z"/>
<path d="M683 4433 c-23 -4 -23 -6 -23 -174 l0 -169 25 0 25 0 0 175 c0 96 -1
174 -2 174 -2 -1 -13 -4 -25 -6z m7 -190 c-1 -95 -4 -133 -10 -121 -6 9 -8 27
-6 40 3 13 5 67 5 121 1 53 3 97 6 97 3 0 5 -62 5 -137z"/>
<path d="M1043 4260 l-1 -180 26 0 27 0 0 180 0 180 -25 0 -25 0 -2 -180z m31
14 c-1 -74 -5 -138 -8 -141 -3 -4 -6 57 -6 135 0 78 3 142 8 142 4 0 6 -61 6
-136z"/>
<path d="M2054 4378 c-39 -131 -19 -295 51 -421 38 -67 42 -52 6 20 -61 119
-76 247 -46 387 8 38 13 71 11 73 -2 2 -12 -25 -22 -59z"/>
<path d="M799 4391 c-24 -25 -29 -37 -29 -81 0 -28 5 -60 10 -71 13 -24 61
-49 95 -49 34 0 82 25 95 49 13 25 13 92 0 125 -12 31 -58 56 -105 56 -27 0
-44 -8 -66 -29z m121 -31 c22 -22 26 -70 10 -101 -8 -15 -21 -19 -59 -19 -54
0 -61 8 -61 64 0 66 66 100 110 56z m-23 -146 c-3 -3 -12 -4 -19 -1 -8 3 -5 6
6 6 11 1 17 -2 13 -5z"/>
<path d="M4478 4356 c-12 -75 -10 -222 2 -210 7 7 10 59 8 135 -2 99 -5 114
-10 75z"/>
<path d="M4630 4230 c0 -79 2 -141 4 -139 7 7 9 269 2 276 -3 4 -6 -58 -6
-137z"/>
<path d="M2892 4340 c0 -14 2 -19 5 -12 2 6 2 18 0 25 -3 6 -5 1 -5 -13z"/>
<path d="M3074 4263 c0 -43 -3 -91 -7 -108 -6 -26 -6 -28 5 -10 15 25 24 195
11 195 -6 0 -9 -34 -9 -77z"/>
<path d="M533 4313 c-7 -2 -13 -13 -13 -24 0 -14 7 -19 26 -19 20 0 25 4 22
22 -3 23 -15 30 -35 21z"/>
<path d="M1196 4304 c-9 -22 1 -34 30 -34 19 0 24 5 24 25 0 20 -5 25 -24 25
-13 0 -27 -7 -30 -16z"/>
<path d="M2005 4290 c-3 -5 -1 -10 4 -10 6 0 11 5 11 10 0 6 -2 10 -4 10 -3 0
-8 -4 -11 -10z"/>
<path d="M2140 4250 c0 -18 5 -19 48 -13 26 3 49 7 51 9 8 7 -4 11 -51 17 -43
6 -48 5 -48 -13z"/>
<path d="M2903 4235 c0 -22 2 -30 4 -17 2 12 2 30 0 40 -3 9 -5 -1 -4 -23z"/>
<path d="M2255 4210 c10 -78 40 -152 78 -192 17 -19 24 -25 15 -14 -33 41 -67
123 -77 185 -13 79 -26 96 -16 21z"/>
<path d="M2076 4168 c23 -164 132 -311 286 -383 84 -39 135 -54 124 -36 -4 6
-13 11 -19 11 -24 1 -129 49 -176 81 -93 65 -182 205 -197 312 -4 26 -11 50
-16 53 -5 3 -6 -13 -2 -38z"/>
<path d="M3042 4170 c0 -14 2 -19 5 -12 2 6 2 18 0 25 -3 6 -5 1 -5 -13z"/>
<path d="M836 4163 c-2 -10 -7 -33 -11 -50 -6 -30 -5 -33 19 -33 26 0 35 14
15 25 -6 4 -7 19 -4 35 7 31 -10 51 -19 23z"/>
<path d="M2891 4164 c0 -11 3 -14 6 -6 3 7 2 16 -1 19 -3 4 -6 -2 -5 -13z"/>
<path d="M3031 4114 c0 -11 3 -14 6 -6 3 7 2 16 -1 19 -3 4 -6 -2 -5 -13z"/>
<path d="M4075 4101 c-4 -9 0 -11 11 -7 8 3 83 6 165 6 82 0 149 3 149 8 0 4
-72 7 -160 7 -126 0 -161 -3 -165 -14z"/>
<path d="M4551 4104 c0 -11 3 -14 6 -6 3 7 2 16 -1 19 -3 4 -6 -2 -5 -13z"/>
<path d="M2866 4093 c-6 -14 -5 -15 5 -6 7 7 10 15 7 18 -3 3 -9 -2 -12 -12z"/>
<path d="M3031 4074 c0 -11 3 -14 6 -6 3 7 2 16 -1 19 -3 4 -6 -2 -5 -13z"/>
<path d="M4410 4075 c0 -9 6 -12 15 -9 8 4 15 10 15 15 0 5 -7 9 -15 9 -8 0
-15 -7 -15 -15z"/>
<path d="M3010 4031 c-6 -12 -7 -21 -1 -21 10 0 24 30 17 37 -2 3 -9 -5 -16
-16z"/>
<path d="M2774 3978 l-19 -23 23 19 c12 11 22 21 22 23 0 8 -8 2 -26 -19z"/>
<path d="M2303 3973 c-7 -3 -13 -14 -13 -26 0 -20 1 -20 16 -5 18 18 16 37 -3
31z"/>
<path d="M2970 3960 c0 -5 5 -10 10 -10 6 0 10 5 10 10 0 6 -4 10 -10 10 -5 0
-10 -4 -10 -10z"/>
<path d="M423 3924 c-8 -21 84 -115 167 -169 111 -72 166 -88 315 -91 141 -3
188 8 282 63 40 23 47 24 70 12 20 -10 27 -11 30 -2 3 8 19 1 46 -17 27 -19
61 -32 95 -36 52 -7 54 -6 41 13 -10 16 -20 19 -53 16 -30 -4 -45 -1 -55 11
-7 9 -20 16 -28 16 -7 0 -20 6 -28 13 -11 10 -8 17 23 45 19 17 39 32 43 32 4
0 9 -14 11 -32 2 -17 9 -33 16 -36 11 -3 12 0 4 14 -5 11 -7 24 -5 31 2 7 -1
22 -7 34 -10 17 -14 19 -21 8 -4 -8 -13 -14 -18 -14 -20 0 -71 -47 -71 -65 0
-11 -4 -20 -10 -20 -5 0 -10 10 -10 23 0 12 -5 29 -10 37 -10 15 -16 11 -32
-20 -6 -11 -125 -63 -173 -76 -67 -18 -207 -18 -279 1 -88 23 -192 82 -258
146 -32 31 -58 62 -58 68 0 17 -20 13 -27 -5z"/>
<path d="M2891 3873 c-35 -35 -61 -67 -57 -70 3 -4 6 -1 6 6 0 7 4 10 9 7 5
-3 11 1 15 9 3 8 12 15 21 15 8 0 15 6 15 13 0 16 46 58 54 50 3 -4 6 3 6 15
0 12 -1 21 -2 21 -2 -1 -32 -30 -67 -66z"/>
<path d="M2528 3913 c6 -2 18 -2 25 0 6 3 1 5 -13 5 -14 0 -19 -2 -12 -5z"/>
<path d="M2160 3861 c0 -6 5 -13 10 -16 6 -3 10 1 10 9 0 9 -4 16 -10 16 -5 0
-10 -4 -10 -9z"/>
<path d="M1407 3847 c-6 -17 20 -41 26 -24 3 7 6 2 6 -11 1 -13 -3 -21 -7 -18
-4 2 -9 -4 -9 -15 -1 -11 2 -17 8 -14 5 4 9 -4 9 -16 0 -16 3 -20 11 -12 5 5
9 32 7 58 -2 38 -7 49 -25 56 -14 5 -23 4 -26 -4z"/>
<path d="M1530 3810 c0 -5 5 -10 11 -10 5 0 7 5 4 10 -3 6 -8 10 -11 10 -2 0
-4 -4 -4 -10z"/>
<path d="M2770 3777 c0 -6 -3 -8 -6 -4 -3 3 -24 -4 -46 -15 -21 -11 -59 -23
-84 -26 -24 -2 -44 -9 -44 -13 0 -13 92 8 174 39 39 16 45 20 27 25 -12 3 -21
0 -21 -6z"/>
<path d="M3806 3761 c-4 -5 13 -28 36 -50 l43 -41 328 3 328 2 20 33 21 32
-359 0 c-300 0 -362 2 -379 15 -22 17 -31 18 -38 6z m732 -53 c-4 -10 -80 -14
-325 -16 -276 -2 -322 0 -333 13 -11 13 25 15 325 15 265 0 336 -3 333 -12z"/>
<path d="M2361 3744 c9 -9 25 -14 35 -12 14 3 10 7 -16 16 -32 12 -34 11 -19
-4z"/>
<path d="M1400 3741 c0 -6 5 -13 10 -16 6 -3 10 1 10 9 0 9 -4 16 -10 16 -5 0
-10 -4 -10 -9z"/>
<path d="M3670 3735 c-7 -9 -11 -18 -8 -20 3 -3 11 1 18 10 7 9 11 18 8 20 -3
3 -11 -1 -18 -10z"/>
<path d="M3602 3692 l-2 -53 88 2 c155 3 192 16 50 18 l-127 1 -4 43 c-3 40
-4 39 -5 -11z"/>
<path d="M2483 3724 c10 -11 57 -13 57 -3 0 5 -14 9 -32 9 -17 0 -28 -3 -25
-6z"/>
<path d="M4638 3723 c23 -2 59 -2 80 0 20 2 1 4 -43 4 -44 0 -61 -2 -37 -4z"/>
<path d="M2479 3643 c43 -59 51 -66 57 -60 10 10 -46 87 -63 87 -11 0 -9 -7 6
-27z"/>
<path d="M2578 3639 c-18 -31 -25 -71 -10 -53 5 5 19 26 31 47 16 26 19 37 9
37 -7 0 -21 -14 -30 -31z"/>
<path d="M1148 3653 c7 -3 16 -2 19 1 4 3 -2 6 -13 5 -11 0 -14 -3 -6 -6z"/>
<path d="M1482 3643 c4 -21 33 -25 33 -3 0 8 -8 16 -18 18 -14 3 -18 -1 -15
-15z"/>
<path d="M4550 3651 c0 -8 310 -3 319 5 2 2 -68 4 -157 4 -89 0 -162 -4 -162
-9z"/>
<path d="M1720 2555 l0 -830 835 0 835 0 0 830 0 830 -835 0 -835 0 0 -830z
m1649 0 l-2 -805 -809 0 -808 0 -1 93 c0 50 -1 413 -2 805 l-2 712 813 0 813
0 -2 -805z"/>
<path d="M2037 3053 c-4 -3 -7 -158 -7 -344 0 -298 2 -338 16 -343 20 -8 418
-8 438 0 12 4 16 20 16 55 l0 49 99 0 100 0 3 -204 c2 -112 5 -206 8 -209 3
-2 82 -7 176 -11 150 -6 174 -5 188 9 14 15 16 68 16 485 0 280 -4 479 -10
494 l-10 26 -174 0 c-163 0 -176 -1 -186 -19 -5 -11 -10 -84 -10 -165 l0 -146
-100 0 -100 0 0 149 c0 82 -3 156 -6 165 -5 14 -35 16 -228 16 -123 0 -226 -3
-229 -7z m438 -183 c0 -138 3 -169 13 -165 8 3 65 5 128 5 l114 0 0 165 0 165
165 0 165 0 2 -486 c2 -267 2 -486 1 -487 -1 -1 -76 -1 -167 1 l-166 3 0 216
c0 192 -2 214 -16 209 -9 -3 -66 -6 -128 -6 l-113 0 5 -52 4 -53 -216 0 -216
0 0 328 0 327 213 0 212 0 0 -170z"/>
<path d="M2037 2333 c-4 -3 -7 -66 -7 -139 0 -117 2 -134 18 -142 9 -5 111 -9
225 -8 173 1 209 4 217 16 11 16 13 221 4 258 -6 22 -7 22 -228 22 -123 0
-226 -3 -229 -7z m435 -138 l3 -125 -212 0 -213 0 0 125 0 125 209 0 210 0 3
-125z"/>
<path d="M248 2743 l3 -638 42 -35 c23 -19 61 -56 85 -83 23 -26 42 -42 42
-35 0 7 -33 47 -73 88 l-72 75 -5 455 -5 455 74 78 c41 43 71 80 68 84 -4 3
-25 -15 -48 -40 -22 -26 -54 -56 -70 -67 l-29 -21 0 150 0 151 714 0 c466 0
717 3 721 10 4 7 -239 10 -722 10 l-728 0 3 -637z"/>
<path d="M1575 3323 c-10 -15 -35 -49 -56 -74 l-38 -46 72 -70 c80 -78 124
-113 141 -113 6 0 -5 12 -24 27 -59 46 -160 145 -160 158 0 7 11 25 25 41 34
38 68 94 62 100 -2 2 -12 -8 -22 -23z"/>
<path d="M420 3158 c0 -21 1 -21 13 -3 13 17 37 18 520 13 289 -3 507 -2 507
3 0 5 -228 9 -520 9 l-520 0 0 -22z"/>
<path d="M4130 3154 c0 -24 3 -26 31 -20 17 3 62 6 99 6 63 0 68 1 63 20 -5
18 -14 20 -99 20 l-94 0 0 -26z"/>
<path d="M4348 3153 c-3 -13 7 -21 36 -30 45 -13 56 -10 56 17 0 33 -86 45
-92 13z"/>
<path d="M1470 3144 c0 -5 20 -30 45 -54 25 -24 45 -40 45 -34 0 5 -20 30 -45
54 -25 24 -45 40 -45 34z"/>
<path d="M453 3123 c0 -10 4 -10 16 -1 9 7 18 13 20 15 2 1 -5 1 -16 0 -11 0
-20 -7 -20 -14z"/>
<path d="M3906 3075 c-71 -49 -112 -91 -166 -171 -69 -104 -91 -175 -97 -314
-5 -98 -2 -127 17 -198 49 -183 185 -337 362 -410 99 -41 110 -42 119 -12 7
24 7 24 8 3 1 -22 4 -23 109 -23 60 0 112 3 115 6 3 4 2 15 -3 25 -9 15 -27
18 -143 21 l-134 3 -85 42 c-198 98 -318 286 -318 498 0 161 46 289 141 397
27 31 72 71 98 88 40 26 47 36 43 56 -2 13 -7 24 -11 23 -3 0 -28 -15 -55 -34z
m-166 -226 c-7 -11 -14 -18 -17 -15 -3 3 0 12 7 21 18 21 23 19 10 -6z m-38
-81 c-8 -8 -9 -4 -5 13 4 13 8 18 11 10 2 -7 -1 -18 -6 -23z m-25 -90 c-3 -8
-6 -5 -6 6 -1 11 2 17 5 13 3 -3 4 -12 1 -19z m-5 -85 c-5 -119 -9 -131 -10
-30 -1 53 1 97 6 97 4 0 6 -30 4 -67z"/>
<path d="M398 3065 c-21 -19 -34 -35 -30 -35 5 0 23 16 42 35 44 45 36 45 -12
0z"/>
<path d="M4571 3087 c-19 -19 -13 -32 35 -68 26 -19 63 -54 84 -78 43 -50 57
-43 31 14 -23 52 -133 149 -150 132z"/>
<path d="M750 3033 c-19 -3 -38 -10 -42 -16 -4 -7 -8 -63 -8 -124 0 -98 2
-113 16 -113 15 0 16 12 10 114 l-7 115 33 6 c19 4 107 5 196 3 162 -3 209 4
110 16 -56 6 -250 6 -308 -1z"/>
<path d="M1550 3027 c-10 -10 0 -897 10 -897 6 0 10 154 9 428 -1 389 -5 483
-19 469z"/>
<path d="M476 3004 c-23 -22 -20 -31 3 -10 15 14 24 15 40 6 24 -13 25 -14 9
-43 -10 -20 -10 -21 5 -8 23 18 21 48 -2 61 -27 14 -37 13 -55 -6z"/>
<path d="M1274 2995 c-7 -17 12 -45 29 -45 6 0 2 6 -8 14 -11 8 -16 19 -12 30
4 9 4 16 1 16 -2 0 -7 -7 -10 -15z"/>
<path d="M1610 2615 c0 -219 3 -396 6 -392 7 7 6 778 -1 785 -3 3 -5 -174 -5
-393z"/>
<path d="M1107 2893 c-7 -107 -4 -130 13 -103 12 19 13 210 2 210 -5 0 -12
-48 -15 -107z"/>
<path d="M482 2969 c2 -6 8 -10 13 -10 5 0 11 4 13 10 2 6 -4 11 -13 11 -9 0
-15 -5 -13 -11z"/>
<path d="M758 2928 c-3 -29 -2 -57 1 -63 3 -5 8 15 11 45 5 52 6 55 35 58 17
2 81 1 143 -3 l112 -7 0 -28 c0 -16 5 -32 10 -35 11 -7 13 27 4 63 -6 22 -9
22 -159 22 l-153 0 -4 -52z"/>
<path d="M485 2930 c-3 -5 -1 -10 4 -10 6 0 11 5 11 10 0 6 -2 10 -4 10 -3 0
-8 -4 -11 -10z"/>
<path d="M450 2909 c0 -5 5 -7 10 -4 6 3 10 8 10 11 0 2 -4 4 -10 4 -5 0 -10
-5 -10 -11z"/>
<path d="M1365 2900 c3 -5 8 -10 11 -10 2 0 4 5 4 10 0 6 -5 10 -11 10 -5 0
-7 -4 -4 -10z"/>
<path d="M4747 2889 c-3 -12 5 -40 19 -67 14 -26 30 -66 36 -89 8 -33 15 -43
30 -43 18 0 19 4 13 37 -8 44 -72 183 -84 183 -5 0 -11 -9 -14 -21z"/>
<path d="M786 2872 c-3 -5 31 -12 77 -15 120 -10 197 -8 197 3 0 6 -46 10
-119 10 -66 0 -126 3 -134 6 -8 3 -18 1 -21 -4z"/>
<path d="M1452 2583 c-3 -190 0 -283 6 -279 12 7 16 552 4 560 -4 2 -8 -124
-10 -281z"/>
<path d="M400 2572 c0 -155 4 -282 9 -282 8 0 4 550 -5 559 -2 2 -4 -122 -4
-277z"/>
<path d="M473 2833 c8 -7 119 -5 126 3 2 2 -26 4 -64 4 -38 0 -65 -3 -62 -7z"/>
<path d="M1257 2823 c18 -2 50 -2 70 0 21 2 7 4 -32 4 -38 0 -55 -2 -38 -4z"/>
<path d="M470 2720 l0 -90 54 0 c30 0 61 -3 70 -6 14 -5 16 6 16 90 l0 96 -70
0 -70 0 0 -90z m120 0 l0 -70 -50 0 -50 0 0 70 0 70 50 0 50 0 0 -70z"/>
<path d="M787 2786 c-27 -22 -27 -23 -9 -39 10 -9 24 -17 30 -17 6 0 13 -9 17
-20 7 -23 61 -70 80 -70 7 0 39 24 72 53 32 28 70 60 83 69 16 11 20 17 10 17
-8 0 -26 -8 -40 -19 -21 -16 -41 -20 -120 -20 -107 0 -132 8 -110 35 8 10 23
21 35 25 20 9 20 9 0 9 -11 0 -33 -10 -48 -23z m193 -65 c0 -5 -16 -23 -37
-40 -40 -33 -58 -30 -88 12 -15 22 -15 22 42 28 32 3 64 6 71 7 6 1 12 -2 12
-7z"/>
<path d="M975 2800 c-3 -5 -3 -10 2 -10 4 0 18 -3 31 -6 18 -5 21 -3 16 10 -7
18 -39 22 -49 6z"/>
<path d="M1222 2709 l4 -91 67 -1 67 -2 0 93 0 92 -71 0 -71 0 4 -91z m124 -1
l4 -78 -55 0 -55 0 0 81 0 80 51 -3 51 -3 4 -77z"/>
<path d="M470 2600 c0 -5 11 -10 25 -10 14 0 25 5 25 10 0 6 -11 10 -25 10
-14 0 -25 -4 -25 -10z"/>
<path d="M540 2600 c0 -5 17 -10 38 -9 33 1 34 2 12 9 -36 11 -50 11 -50 0z"/>
<path d="M1220 2588 c0 -5 32 -8 70 -8 39 0 70 3 70 8 0 4 -32 7 -70 7 -39 0
-70 -3 -70 -7z"/>
<path d="M820 2570 c8 -5 47 -10 85 -10 39 0 77 5 85 10 10 7 -17 10 -85 10
-68 0 -95 -3 -85 -10z"/>
<path d="M470 2558 c0 -5 32 -8 70 -8 39 0 70 4 70 8 0 5 -31 8 -70 8 -38 -1
-70 -4 -70 -8z"/>
<path d="M1225 2561 c-3 -5 -1 -12 5 -16 5 -3 10 1 10 9 0 18 -6 21 -15 7z"/>
<path d="M1257 2558 c-6 -4 15 -7 48 -7 64 1 65 5 2 11 -20 2 -43 0 -50 -4z"/>
<path d="M470 2520 c0 -6 30 -10 70 -10 40 0 70 4 70 10 0 6 -30 10 -70 10
-40 0 -70 -4 -70 -10z"/>
<path d="M1223 2518 c-2 -5 28 -8 66 -8 39 0 71 3 71 8 0 4 -30 7 -66 7 -36 0
-68 -3 -71 -7z"/>
<path d="M470 2413 l0 -83 70 0 70 0 0 83 0 82 -70 1 -70 0 0 -83z m120 0 l0
-63 -50 0 -50 0 0 65 0 66 50 -2 50 -3 0 -63z"/>
<path d="M879 2492 c-21 -9 -124 -102 -112 -102 4 0 25 14 46 31 20 17 34 24
31 15 -7 -18 30 -30 67 -23 16 3 12 5 -13 6 -29 1 -38 5 -38 19 0 46 57 56 89
15 24 -30 39 -26 19 6 -9 15 -64 46 -72 40 -1 0 -8 -3 -17 -7z"/>
<path d="M1220 2459 c0 -20 3 -57 6 -83 l7 -46 63 0 64 0 0 83 0 82 -70 0 -70
0 0 -36z m121 -26 c1 -21 3 -48 4 -60 2 -21 -2 -23 -45 -23 -54 0 -60 7 -60
76 l0 44 50 0 50 0 1 -37z"/>
<path d="M4810 2447 c0 -82 -99 -259 -192 -342 -48 -43 -50 -47 -35 -63 16
-15 21 -12 81 50 102 104 171 229 189 341 5 34 4 37 -19 37 -18 0 -24 -5 -24
-23z"/>
<path d="M1015 2430 c10 -11 20 -20 23 -20 3 0 -3 9 -13 20 -10 11 -20 20 -23
20 -3 0 3 -9 13 -20z"/>
<path d="M716 2374 c-13 -12 -16 -38 -16 -120 0 -63 4 -104 10 -104 6 0 10 40
10 101 0 55 5 109 10 120 13 23 7 25 -14 3z"/>
<path d="M800 2371 c-34 -18 -35 -20 -35 -82 l0 -64 153 -3 c99 -2 152 1 152
8 0 6 -52 10 -143 10 -79 0 -146 2 -148 4 -2 2 -3 26 -1 53 l4 48 139 -3 c94
-2 139 0 139 7 0 7 -46 12 -132 13 l-133 2 128 3 c157 4 173 23 19 23 -86 0
-114 -4 -142 -19z"/>
<path d="M1106 2280 l6 -100 -186 0 c-113 0 -186 -4 -186 -10 0 -6 76 -9 195
-10 l195 0 0 88 c0 91 -7 132 -21 132 -4 0 -5 -45 -3 -100z"/>
<path d="M470 2292 c0 -10 70 -45 77 -38 3 2 -13 14 -36 26 -23 11 -41 17 -41
12z"/>
<path d="M1062 2280 c0 -14 2 -19 5 -12 2 6 2 18 0 25 -3 6 -5 1 -5 -13z"/>
<path d="M440 2255 c-7 -9 -10 -18 -7 -21 3 -3 10 4 17 15 13 25 8 27 -10 6z"/>
<path d="M1325 2260 c-7 -12 2 -12 30 0 19 8 19 9 -2 9 -12 1 -25 -3 -28 -9z"/>
<path d="M560 2246 c0 -2 8 -10 18 -17 15 -13 16 -12 3 4 -13 16 -21 21 -21
13z"/>
<path d="M1347 2223 c-4 -3 -7 -11 -7 -17 0 -6 5 -5 12 2 6 6 9 14 7 17 -3 3
-9 2 -12 -2z"/>
<path d="M1391 2204 c0 -11 3 -14 6 -6 3 7 2 16 -1 19 -3 4 -6 -2 -5 -13z"/>
<path d="M1613 2170 c0 -25 2 -35 4 -22 2 12 2 32 0 45 -2 12 -4 2 -4 -23z"/>
<path d="M470 2175 c13 -14 26 -25 28 -25 3 0 -5 11 -18 25 -13 14 -26 25 -28
25 -3 0 5 -11 18 -25z"/>
<path d="M1266 2192 c-2 -4 -1 -14 5 -22 7 -12 9 -10 9 8 0 23 -5 28 -14 14z"/>
<path d="M1305 2170 c3 -5 8 -10 11 -10 2 0 4 5 4 10 0 6 -5 10 -11 10 -5 0
-7 -4 -4 -10z"/>
<path d="M717 2133 c-8 -13 118 -23 262 -21 l116 2 -150 6 c-82 4 -166 11
-186 15 -21 4 -39 3 -42 -2z"/>
<path d="M1515 2068 c-25 -28 -53 -64 -61 -80 l-15 -28 -494 0 c-318 0 -496
-4 -500 -10 -7 -11 707 -14 891 -4 106 7 112 8 127 33 9 14 39 52 67 84 28 31
47 57 42 57 -6 0 -31 -23 -57 -52z"/>
<path d="M1570 2025 l-94 -94 99 -95 100 -95 -705 2 -705 2 3 161 c2 105 0
164 -7 168 -7 5 -11 -51 -13 -169 l-3 -175 728 0 c401 0 727 3 725 8 -1 4 -46
48 -98 97 -52 50 -96 92 -98 95 -1 4 40 47 91 98 52 51 89 92 83 92 -6 0 -54
-43 -106 -95z"/>
<path d="M4390 1986 c0 -8 4 -17 9 -20 5 -4 7 3 4 14 -6 23 -13 26 -13 6z"/>
<path d="M3503 1733 c54 -2 139 -2 190 0 51 1 7 3 -98 3 -104 0 -146 -2 -92
-3z"/>
<path d="M1722 1153 c5 -972 8 -1153 20 -1153 7 0 9 21 4 67 -3 38 -6 422 -6
856 0 526 -3 787 -10 787 -7 0 -9 -185 -8 -557z"/>
<path d="M3377 1703 c-12 -11 -8 -1703 3 -1703 7 0 10 292 10 855 0 470 -1
855 -3 855 -2 0 -7 -3 -10 -7z"/>
<path d="M1938 1693 c6 -2 18 -2 25 0 6 3 1 5 -13 5 -14 0 -19 -2 -12 -5z"/>
<path d="M2460 1489 c-88 -15 -231 -90 -298 -157 -32 -31 -64 -73 -70 -92
l-12 -35 23 30 c12 16 29 37 38 46 8 8 19 23 22 33 4 10 12 14 18 10 7 -4 9
-3 6 3 -4 6 0 16 8 23 8 7 15 10 15 7 0 -3 26 10 57 29 110 66 255 102 365 90
35 -3 58 -2 58 4 0 12 10 11 -90 15 -47 2 -110 -1 -140 -6z"/>
<path d="M2705 1472 c6 -5 30 -14 55 -21 155 -44 282 -181 331 -356 21 -74 19
-256 -4 -323 -23 -69 -58 -144 -97 -210 -17 -28 -26 -50 -18 -47 7 3 18 14 23
25 119 233 136 288 129 432 -4 90 -36 211 -72 266 -56 88 -160 178 -239 207
-72 27 -121 40 -108 27z"/>
<path d="M1030 1440 c0 -11 17 -31 44 -49 24 -17 46 -37 49 -46 4 -9 19 -15
42 -15 19 0 35 2 35 4 0 21 -24 58 -42 67 -13 5 -41 21 -63 34 -49 30 -65 31
-65 5z m130 -70 c8 -5 12 -12 9 -15 -8 -8 -39 5 -39 16 0 11 11 11 30 -1z"/>
<path d="M752 1438 c6 -16 36 -34 44 -26 8 9 -20 38 -36 38 -6 0 -10 -5 -8
-12z"/>
<path d="M3650 860 l0 -540 174 0 c106 0 177 4 181 10 4 7 -53 10 -164 10
l-171 0 -2 38 c-1 20 -2 254 -3 519 l-1 481 31 5 c16 2 84 5 150 6 66 1 121 4
124 7 2 2 -68 4 -157 4 l-162 0 0 -540z"/>
<path d="M4463 1394 c5 -5 126 -10 310 -13 l37 -1 0 -520 0 -520 -162 -1
c-145 -1 -155 -3 -93 -11 79 -10 271 -7 268 5 -2 4 -3 246 -3 537 l0 530 -182
0 c-100 0 -179 -3 -175 -6z"/>
<path d="M2279 1360 c-45 -29 -119 -104 -119 -120 0 -5 -4 -10 -8 -12 -16 -6
-53 -101 -66 -169 -16 -88 -11 -186 14 -264 22 -65 58 -131 67 -121 3 3 -1 16
-9 28 -26 41 -60 157 -54 184 4 15 3 23 -3 20 -6 -4 -6 4 -1 21 5 16 14 73 20
127 11 103 21 129 49 122 53 -14 72 -16 66 -7 -3 6 -21 13 -40 17 -19 3 -35 8
-35 11 0 22 98 135 155 177 35 27 10 17 -36 -14z m-182 -382 c-3 -7 -5 -2 -5
12 0 14 2 19 5 13 2 -7 2 -19 0 -25z"/>
<path d="M3987 1372 c-9 -10 -26 -39 -37 -65 l-21 -47 -68 0 c-48 0 -70 -4
-74 -13 -9 -23 -12 -721 -4 -734 10 -15 43 -17 52 -3 3 6 -1 10 -9 10 -8 0
-18 5 -22 12 -8 13 -6 687 2 700 3 5 31 8 63 8 64 0 78 10 101 68 23 60 33 62
257 62 l202 0 15 -27 c24 -46 82 -103 107 -105 13 -1 -129 -5 -316 -8 -393 -6
-385 -4 -405 -95 -17 -73 -10 -579 8 -597 19 -19 785 -19 804 0 10 10 13 82
13 323 0 310 0 311 -22 329 -32 25 -29 30 16 30 l40 0 1 -338 c0 -186 -2 -346
-5 -355 -5 -10 -30 -19 -76 -27 -68 -12 -70 -13 -96 -58 -52 -88 -33 -82 -264
-82 l-207 0 -33 40 c-19 21 -43 50 -54 64 -15 18 -33 25 -67 29 -27 2 -48 1
-48 -3 0 -10 37 -20 72 -20 20 0 32 -8 43 -30 8 -16 29 -46 46 -65 l31 -35
224 0 c144 0 224 4 224 10 0 6 14 29 30 52 17 22 30 47 30 54 0 13 21 19 107
29 l52 7 6 41 c4 23 5 193 3 377 l-3 334 -46 -2 c-25 -2 -68 4 -95 13 -40 13
-55 26 -81 66 -18 27 -33 53 -33 59 0 6 -80 10 -223 10 -202 0 -225 -2 -240
-18z m622 -186 c21 -19 21 -26 21 -328 l0 -308 -389 0 -388 0 -7 31 c-9 46 -7
487 3 537 5 24 18 53 29 65 21 22 24 22 365 22 325 0 346 -1 366 -19z"/>
<path d="M4360 1080 c0 -19 3 -21 12 -12 9 9 9 15 0 24 -9 9 -12 7 -12 -12z"/>
<path d="M4034 860 c0 -69 1 -97 3 -62 2 34 2 90 0 125 -2 34 -3 6 -3 -63z"/>
<path d="M2498 1373 c7 -3 16 -2 19 1 4 3 -2 6 -13 5 -11 0 -14 -3 -6 -6z"/>
<path d="M2408 1363 c7 -3 16 -2 19 1 4 3 -2 6 -13 5 -11 0 -14 -3 -6 -6z"/>
<path d="M2290 1308 c-18 -13 -40 -34 -48 -48 -10 -16 -2 -11 21 13 43 46 71
46 75 0 2 -23 -3 -35 -20 -47 -12 -9 -17 -16 -10 -16 16 0 52 37 52 53 0 17
-23 67 -31 67 -3 0 -21 -10 -39 -22z"/>
<path d="M2797 1302 c-10 -10 -17 -27 -17 -38 0 -15 5 -12 19 12 11 18 25 34
33 37 9 4 9 6 -3 6 -9 1 -23 -7 -32 -17z"/>
<path d="M540 1302 c0 -4 -22 -25 -50 -46 l-50 -38 0 -299 c0 -233 3 -299 13
-299 6 0 27 9 45 20 41 25 41 26 40 -10 -1 -16 -5 -30 -10 -30 -4 0 -8 5 -8
10 0 6 -10 10 -22 10 l-21 0 23 -25 c13 -14 32 -25 42 -25 16 0 18 21 20 370
2 291 0 370 -9 370 -7 0 -13 -4 -13 -8z m0 -336 l0 -294 -25 -6 c-14 -4 -25
-11 -25 -16 0 -6 -7 -10 -15 -10 -13 0 -15 38 -15 283 l0 284 37 26 c21 15 39
27 40 27 2 0 3 -132 3 -294z"/>
<path d="M2865 1290 c3 -5 8 -10 11 -10 2 0 4 5 4 10 0 6 -5 10 -11 10 -5 0
-7 -4 -4 -10z"/>
<path d="M1290 931 c0 -193 3 -352 8 -354 19 -12 64 7 77 33 8 15 23 30 35 33
19 5 20 12 20 271 0 210 -3 266 -13 266 -7 0 -35 23 -62 50 -27 28 -53 50 -57
50 -4 0 -8 -157 -8 -349z m121 -20 c4 -228 3 -245 -14 -249 -10 -2 -24 -17
-33 -33 -8 -16 -22 -29 -32 -29 -16 0 -17 25 -20 322 l-2 321 49 -44 49 -44 3
-244z"/>
<path d="M1362 745 c15 -14 30 -25 34 -25 4 0 -3 11 -16 25 -13 14 -28 25 -34
25 -6 0 1 -11 16 -25z"/>
<path d="M2067 1193 c-4 -3 -7 -11 -7 -17 0 -6 5 -5 12 2 6 6 9 14 7 17 -3 3
-9 2 -12 -2z"/>
<path d="M2405 1159 l-35 -31 0 -160 c0 -169 10 -217 51 -238 27 -15 319 -16
346 -1 12 6 34 31 48 55 23 39 25 52 25 164 0 66 -3 128 -6 137 -4 8 -35 36
-69 60 l-63 45 -130 0 -131 0 -36 -31z m354 -27 c68 -46 75 -69 68 -209 -5
-107 -25 -160 -67 -183 -20 -11 -280 -14 -318 -4 -43 12 -55 56 -60 219 l-4
151 26 31 c23 28 35 33 84 36 31 2 93 2 137 0 72 -4 85 -8 134 -41z"/>
<path d="M2600 895 c0 -8 5 -15 10 -15 6 0 10 7 10 15 0 8 -4 15 -10 15 -5 0
-10 -7 -10 -15z"/>
<path d="M2923 1165 c-18 -8 -33 -19 -33 -25 0 -13 8 -13 23 0 7 6 21 17 32
25 25 18 19 18 -22 0z"/>
<path d="M2060 1140 c0 -5 5 -10 10 -10 6 0 10 5 10 10 0 6 -4 10 -10 10 -5 0
-10 -4 -10 -10z"/>
<path d="M2001 898 c-1 -55 38 -185 74 -243 14 -22 25 -35 25 -30 0 6 -8 24
-18 40 -32 52 -64 147 -72 215 -7 61 -7 62 -9 18z"/>
<path d="M2241 754 c0 -11 3 -14 6 -6 3 7 2 16 -1 19 -3 4 -6 -2 -5 -13z"/>
<path d="M2236 702 c-2 -4 13 -8 34 -7 21 0 36 3 33 8 -6 10 -61 9 -67 -1z"/>
<path d="M2950 689 c-7 -11 -10 -23 -7 -25 2 -2 9 7 15 21 14 30 7 33 -8 4z"/>
<path d="M2840 681 c0 -9 34 -21 60 -21 9 1 5 7 -10 15 -29 16 -50 19 -50 6z"/>
<path d="M2326 633 c-3 -10 -9 -24 -12 -30 -10 -22 10 -14 24 8 9 14 10 25 4
31 -6 6 -12 3 -16 -9z"/>
<path d="M2965 630 c4 -6 11 -8 16 -5 14 9 11 15 -7 15 -8 0 -12 -5 -9 -10z"/>
<path d="M2190 516 c0 -2 7 -7 16 -10 8 -3 12 -2 9 4 -6 10 -25 14 -25 6z"/>
<path d="M2890 479 c-19 -17 -71 -48 -115 -70 -44 -22 -67 -37 -50 -33 64 15
256 135 214 134 -8 -1 -30 -14 -49 -31z"/>
<path d="M2251 471 c38 -29 69 -43 69 -31 0 5 -6 10 -12 10 -7 0 -24 9 -38 20
-14 11 -29 20 -34 20 -5 0 2 -8 15 -19z"/>
<path d="M750 393 c0 -82 1 -84 23 -81 20 3 22 9 25 79 3 75 2 77 -23 81 l-25
5 0 -84z m27 -20 c-3 -10 -5 -4 -5 12 0 17 2 24 5 18 2 -7 2 -21 0 -30z"/>
<path d="M1089 473 c-21 -5 -30 -48 -22 -112 5 -45 8 -51 29 -51 23 0 24 2 24
85 0 47 -3 84 -7 84 -5 -1 -15 -3 -24 -6z m10 -90 c-1 -42 -2 -44 -9 -21 -5
16 -7 36 -5 45 5 24 4 23 10 23 3 0 5 -21 4 -47z"/>
<path d="M2379 405 c29 -14 61 -25 70 -24 9 0 -4 8 -29 18 -73 30 -100 33 -41
6z"/>
<path d="M853 402 c-21 -2 -33 -9 -33 -18 0 -11 21 -14 111 -14 100 0 110 2
107 18 -3 14 -15 17 -78 17 -41 0 -90 -1 -107 -3z"/>
<path d="M2474 351 c-2 -2 -4 -9 -4 -15 0 -15 223 -12 228 2 3 10 -214 22
-224 13z"/>
<path d="M2396 313 c-12 -13 -6 -53 9 -53 9 0 15 9 15 24 0 26 -12 40 -24 29z"/>
<path d="M2741 297 c-12 -15 -5 -27 16 -27 7 0 13 9 13 20 0 23 -13 26 -29 7z"/>
<path d="M2465 290 c-4 -6 -5 -13 -3 -15 2 -2 50 -5 108 -6 70 -1 105 2 108
10 3 8 -24 11 -86 11 -50 0 -97 3 -105 6 -8 3 -18 0 -22 -6z"/>
<path d="M2550 205 c0 -18 5 -25 20 -25 15 0 20 7 20 25 0 18 -5 25 -20 25
-15 0 -20 -7 -20 -25z"/>
</g>
</svg>
