<?xml version="1.0" standalone="no"?>
<!DOCTYPE svg PUBLIC "-//W3C//DTD SVG 20010904//EN"
 "http://www.w3.org/TR/2001/REC-SVG-20010904/DTD/svg10.dtd">
<svg version="1.0" xmlns="http://www.w3.org/2000/svg"
 width="512.000000pt" height="512.000000pt" viewBox="0 0 512.000000 512.000000"
 preserveAspectRatio="xMidYMid meet">
<metadata>
Created by potrace 1.16, written by Peter Selinger 2001-2019
</metadata>
<g transform="translate(0.000000,512.000000) scale(0.100000,-0.100000)"
fill="#000000" stroke="none">
<path d="M128 5092 c-43 -25 -66 -46 -111 -101 -16 -20 -17 -71 -15 -799 l3
-777 5 765 5 765 25 35 c58 81 130 121 233 130 l72 7 -85 1 c-76 2 -90 -1
-132 -26z"/>
<path d="M458 5113 c7 -3 16 -2 19 1 4 3 -2 6 -13 5 -11 0 -14 -3 -6 -6z"/>
<path d="M1473 5113 c9 -2 23 -2 30 0 6 3 -1 5 -18 5 -16 0 -22 -2 -12 -5z"/>
<path d="M1520 5050 c0 -40 4 -70 10 -70 6 0 10 30 10 70 0 40 -4 70 -10 70
-6 0 -10 -30 -10 -70z"/>
<path d="M1730 5050 c0 -40 4 -70 10 -70 6 0 10 30 10 70 0 40 -4 70 -10 70
-6 0 -10 -30 -10 -70z"/>
<path d="M1798 5113 c23 -2 59 -2 80 0 20 2 1 4 -43 4 -44 0 -61 -2 -37 -4z"/>
<path d="M1968 5113 c7 -3 16 -2 19 1 4 3 -2 6 -13 5 -11 0 -14 -3 -6 -6z"/>
<path d="M3360 5050 c0 -40 4 -70 10 -70 6 0 10 30 10 70 0 40 -4 70 -10 70
-6 0 -10 -30 -10 -70z"/>
<path d="M3570 5050 c0 -40 4 -70 10 -70 6 0 10 30 10 70 0 40 -4 70 -10 70
-6 0 -10 -30 -10 -70z"/>
<path d="M4528 5113 c23 -2 59 -2 80 0 20 2 1 4 -43 4 -44 0 -61 -2 -37 -4z"/>
<path d="M4688 5113 c23 -2 59 -2 80 0 20 2 1 4 -43 4 -44 0 -61 -2 -37 -4z"/>
<path d="M4870 5111 c8 -6 25 -11 38 -11 29 0 56 -14 109 -58 78 -63 87 -88
94 -247 l5 -140 2 152 c2 179 -3 194 -96 264 -48 36 -66 43 -112 46 -40 3 -51
2 -40 -6z"/>
<path d="M3318 5093 c6 -2 18 -2 25 0 6 3 1 5 -13 5 -14 0 -19 -2 -12 -5z"/>
<path d="M873 4962 l-651 -2 -36 -36 -36 -36 0 -1485 c0 -1350 1 -1485 16
-1479 9 3 76 6 150 6 l134 0 0 735 c0 473 -4 735 -10 735 -6 0 -10 -42 -10
-100 l0 -101 -131 3 -130 3 -2 108 c-1 65 2 107 8 108 6 0 70 0 143 -1 l132
-1 0 596 0 595 528 0 528 0 0 -585 c-1 -322 2 -585 7 -585 4 0 7 -387 7 -860
l0 -860 -131 0 -131 0 6 25 c4 14 7 387 7 830 0 621 2 805 12 808 9 4 9 6 0 6
-7 1 -13 12 -13 26 0 24 0 24 113 28 l112 3 -122 2 -123 2 0 -855 0 -855 -332
0 c-183 0 -431 -3 -551 -7 l-217 -6 0 -736 1 -736 24 -28 c13 -15 29 -27 35
-27 5 0 10 -7 10 -15 0 -13 89 -15 745 -15 536 0 745 3 745 11 0 7 -28 10 -86
8 l-86 -4 4 487 c1 267 0 484 -4 481 -5 -2 -8 -29 -8 -59 l0 -54 -136 0 -135
0 3 -247 3 -248 -408 2 c-224 1 -407 5 -407 8 0 3 0 261 0 575 l0 570 303 0
302 0 -3 -195 -4 -195 109 0 109 0 -4 -70 -4 -70 141 0 141 0 0 1894 c0 1042
-3 1896 -7 1898 -5 2 -301 2 -660 0z m642 -177 l0 -155 -541 0 -542 0 -7 -27
c-3 -14 -5 -281 -4 -592 l2 -566 -127 0 -126 -1 0 721 0 721 30 17 c17 10 30
22 30 28 0 5 247 9 643 9 l642 0 0 -155z m-1094 -2154 c0 -306 1 -584 2 -619
l2 -62 -127 0 -128 0 0 615 0 614 103 3 c56 2 112 4 125 4 l22 2 1 -557z m1
-1496 c-3 -422 -1 -577 7 -593 12 -22 12 -22 409 -22 378 0 487 5 463 19 -7 5
-12 90 -13 244 l-3 237 118 0 117 0 -1 -415 -1 -415 -635 0 -634 0 -39 37 -40
36 0 724 0 724 128 -3 128 -2 -4 -571z m1088 315 l0 -260 -115 0 -115 0 1 59
c1 33 -2 64 -6 70 -4 7 -45 11 -104 11 l-99 0 2 185 c1 176 2 184 21 188 11 2
109 5 218 6 l197 1 0 -260z"/>
<path d="M413 4923 c54 -2 139 -2 190 0 51 1 7 3 -98 3 -104 0 -146 -2 -92 -3z"/>
<path d="M1198 4923 c57 -2 147 -2 200 0 53 1 7 3 -103 3 -110 0 -154 -2 -97
-3z"/>
<path d="M1728 2567 c-2 -1319 -2 -2399 -1 -2400 1 -1 713 -1 1582 1 1395 2
1581 4 1581 17 0 8 5 15 10 15 6 0 22 12 35 27 l24 28 1 736 0 736 -212 6
c-116 4 -363 7 -550 7 l-338 0 0 830 c0 547 -3 830 -10 830 -14 0 -14 -1634 0
-1661 10 -18 6 -19 -112 -21 -131 -2 -144 -1 270 -17 l32 -1 0 -100 0 -100
-31 0 c-39 0 -69 -16 -69 -37 0 -12 -7 -14 -31 -9 -22 4 -29 2 -27 -7 3 -6 21
-13 41 -15 34 -3 37 -1 37 22 0 25 3 26 51 26 l51 0 -4 110 -3 110 308 -2 307
-3 0 -573 0 -572 -525 -3 -525 -2 0 215 c0 118 -3 259 -7 313 l-6 97 116 0
117 0 0 71 c0 59 3 70 15 65 12 -4 15 7 15 67 0 78 -15 77 -19 -1 -1 -28 -8
-50 -17 -55 -10 -6 -14 -26 -14 -67 l0 -60 -105 0 -105 0 -1 258 c-1 141 -5
239 -9 217 -4 -22 -7 373 -8 877 -1 582 2 919 8 923 16 10 13 492 -2 498 -9 4
-8 6 3 6 14 1 15 36 15 321 l-1 320 528 0 527 0 0 -595 0 -595 136 1 136 2 0
-109 0 -109 -127 -3 -127 -3 5 101 c4 80 2 100 -9 100 -11 0 -14 -119 -14
-735 l0 -735 137 0 138 0 -4 -86 c-2 -54 1 -90 8 -97 8 -8 11 416 11 1576 l0
1587 -25 10 c-14 5 -25 16 -25 25 0 13 -75 15 -654 15 -360 0 -661 3 -670 6
-15 6 -16 -209 -16 -2387 l0 -2394 -92 2 -93 2 -3 2388 -2 2388 -825 0 -825 0
-2 -2398z m1625 2256 c-2 -65 -3 -135 -3 -155 l0 -38 -797 -2 -798 -3 5 116
c3 64 2 135 -1 158 l-5 41 800 0 801 0 -2 -117z m1556 88 l31 -29 0 -719 0
-718 -117 2 c-65 2 -121 3 -124 3 -3 0 -3 256 -1 568 3 420 1 574 -7 590 l-12
22 -539 0 -540 0 -1 138 c0 75 -2 145 -4 155 -3 16 33 17 640 17 l643 0 31
-29z m-1569 -871 c0 -313 1 -573 3 -577 1 -5 -353 -10 -788 -13 l-790 -5 798
0 797 0 0 -860 0 -860 -797 3 c-438 1 -793 -1 -789 -5 4 -5 359 -8 789 -8
l781 -1 -3 -259 c-1 -143 -4 -261 -5 -262 -1 -2 -353 -3 -782 -3 l-779 0 -5
257 c-4 219 -6 239 -10 133 -3 -69 -6 377 -6 990 0 613 3 1063 6 1000 5 -91 7
-62 9 140 1 140 4 280 6 310 1 30 3 175 4 323 l1 267 780 0 780 0 0 -570z
m-1583 -172 c-2 -13 -4 -5 -4 17 -1 22 1 32 4 23 2 -10 2 -28 0 -40z m1840 10
c-3 -8 -6 -5 -6 6 -1 11 2 17 5 13 3 -3 4 -12 1 -19z m-1840 -70 c-3 -8 -6 -5
-6 6 -1 11 2 17 5 13 3 -3 4 -12 1 -19z m1840 -285 c-2 -27 -3 -5 -3 47 0 52
1 74 3 48 2 -27 2 -69 0 -95z m1343 -955 l0 -618 -126 0 -127 0 7 38 c3 20 6
299 6 619 l0 581 120 -1 120 0 0 -619z m0 -1581 l0 -717 -41 -40 -41 -40 -634
0 -635 0 1 182 c1 110 5 176 10 167 8 -12 93 -14 554 -16 l546 -3 -3 596 -2
595 122 -3 123 -3 0 -718z m-1343 516 c-2 -21 -4 -6 -4 32 0 39 2 55 4 38 2
-18 2 -50 0 -70z m-1840 -105 c-3 -7 -5 -2 -5 12 0 14 2 19 5 13 2 -7 2 -19 0
-25z m1840 -70 c-3 -8 -6 -5 -6 6 -1 11 2 17 5 13 3 -3 4 -12 1 -19z m-252
-235 c0 -43 4 -264 8 -490 l8 -413 -805 0 -806 0 0 290 c0 160 4 290 8 290 4
0 6 32 4 70 -2 39 -1 95 3 125 l6 55 774 0 c511 0 776 3 780 10 4 7 -249 10
-772 10 l-778 -1 -3 66 -3 65 788 0 788 0 0 -77z m252 -145 c-3 -7 -5 -2 -5
12 0 14 2 19 5 13 2 -7 2 -19 0 -25z m0 -340 c-3 -8 -6 -5 -6 6 -1 11 2 17 5
13 3 -3 4 -12 1 -19z"/>
<path d="M1858 4923 c7 -3 16 -2 19 1 4 3 -2 6 -13 5 -11 0 -14 -3 -6 -6z"/>
<path d="M1983 4923 c54 -2 139 -2 190 0 51 1 7 3 -98 3 -104 0 -146 -2 -92
-3z"/>
<path d="M2968 4923 c67 -2 177 -2 245 0 67 1 12 3 -123 3 -135 0 -190 -2
-122 -3z"/>
<path d="M3748 4923 c34 -2 88 -2 120 0 31 2 3 3 -63 3 -66 0 -92 -1 -57 -3z"/>
<path d="M4473 4923 c70 -2 184 -2 255 0 70 1 12 3 -128 3 -140 0 -198 -2
-127 -3z"/>
<path d="M1800 4050 c0 -7 260 -10 760 -10 500 0 760 3 760 10 0 7 -260 10
-760 10 -500 0 -760 -3 -760 -10z"/>
<path d="M2505 3980 c-688 -5 -702 -5 -310 -10 367 -4 1138 1 1125 9 -11 6
-121 6 -815 1z"/>
<path d="M2022 3058 c-9 -9 -12 -132 -12 -499 0 -431 2 -489 16 -503 14 -14
73 -16 537 -14 l522 3 0 510 0 510 -525 3 c-401 2 -529 -1 -538 -10z m1048
-500 l0 -493 -515 3 -515 2 -3 490 -2 490 518 0 517 0 0 -492z"/>
<path d="M2520 2865 c0 0 -1 -96 -3 -214 l-2 -214 -102 2 -102 2 -3 -96 c-2
-53 -2 -97 -1 -98 1 -1 106 -1 235 1 l233 3 -3 307 -3 307 -124 0 c-69 0 -125
0 -125 0z m230 -310 l0 -285 -210 0 -210 0 0 75 0 75 99 0 99 0 6 31 c3 17 6
112 6 210 l0 179 105 0 105 0 0 -285z"/>
<path d="M1761 664 c0 -11 3 -14 6 -6 3 7 2 16 -1 19 -3 4 -6 -2 -5 -13z"/>
<path d="M1833 533 c9 -2 25 -2 35 0 9 3 1 5 -18 5 -19 0 -27 -2 -17 -5z"/>
<path d="M1928 533 c23 -2 59 -2 80 0 20 2 1 4 -43 4 -44 0 -61 -2 -37 -4z"/>
<path d="M2323 533 c147 -2 387 -2 535 0 147 1 26 2 -268 2 -294 0 -415 -1
-267 -2z"/>
<path d="M3263 533 c15 -2 37 -2 50 0 12 2 0 4 -28 4 -27 0 -38 -2 -22 -4z"/>
<path d="M3138 513 c12 -2 32 -2 45 0 12 2 2 4 -23 4 -25 0 -35 -2 -22 -4z"/>
<path d="M1560 4950 c0 -6 32 -10 75 -10 43 0 75 4 75 10 0 6 -32 10 -75 10
-43 0 -75 -4 -75 -10z"/>
<path d="M3400 4950 c0 -6 32 -10 75 -10 43 0 75 4 75 10 0 6 -32 10 -75 10
-43 0 -75 -4 -75 -10z"/>
<path d="M5103 4580 c0 -25 2 -35 4 -22 2 12 2 32 0 45 -2 12 -4 2 -4 -23z"/>
<path d="M1050 4020 l0 -40 78 0 77 0 0 40 1 40 -78 0 -78 0 0 -40z m130 0 c0
-18 -7 -20 -55 -20 -48 0 -55 2 -55 20 0 18 7 20 55 20 48 0 55 -2 55 -20z"/>
<path d="M1270 3899 l0 -160 -107 2 -108 2 0 -162 c1 -1261 6 -1821 16 -1821
8 0 10 268 8 980 l-4 980 85 0 c138 0 130 -8 130 131 l0 119 102 0 c126 0 124
9 -3 13 l-94 2 -3 28 -3 27 101 0 c65 0 99 4 95 10 -3 6 -52 10 -111 10 l-104
0 0 -161z"/>
<path d="M3635 4050 c-4 -6 28 -10 90 -10 l96 0 -3 -27 c-3 -28 -3 -28 -98
-34 l-95 -5 93 -2 92 -2 0 -85 c0 -50 4 -85 10 -85 6 0 10 31 10 73 1 39 3 98
6 130 l6 57 -100 0 c-57 0 -104 -4 -107 -10z"/>
<path d="M3847 3831 c-4 -46 -5 -86 -2 -90 4 -3 48 -8 98 -11 l91 -5 -2 -961
c-2 -605 1 -969 7 -985 8 -19 10 -6 10 56 0 44 2 493 3 998 l4 917 -98 0 -97
0 -3 83 -3 82 -8 -84z"/>
<path d="M3621 3445 c7 -6 269 -8 276 -1 4 3 -58 6 -137 6 -79 0 -141 -2 -139
-5z"/>
<path d="M4998 3433 c7 -3 16 -2 19 1 4 3 -2 6 -13 5 -11 0 -14 -3 -6 -6z"/>
<path d="M5038 3433 c7 -3 16 -2 19 1 4 3 -2 6 -13 5 -11 0 -14 -3 -6 -6z"/>
<path d="M4 3310 c0 -58 1 -81 3 -52 2 28 2 76 0 105 -2 28 -3 5 -3 -53z"/>
<path d="M5 2565 c0 -352 1 -495 2 -317 2 178 2 466 0 640 -1 174 -2 29 -2
-323z"/>
<path d="M4990 1940 c0 -5 7 -10 16 -10 8 0 12 5 9 10 -3 6 -10 10 -16 10 -5
0 -9 -4 -9 -10z"/>
<path d="M5043 1943 c9 -2 25 -2 35 0 9 3 1 5 -18 5 -19 0 -27 -2 -17 -5z"/>
<path d="M5105 1940 c3 -5 8 -10 11 -10 2 0 4 5 4 10 0 6 -5 10 -11 10 -5 0
-7 -4 -4 -10z"/>
<path d="M88 1933 c6 -2 18 -2 25 0 6 3 1 5 -13 5 -14 0 -19 -2 -12 -5z"/>
<path d="M560 1923 c236 -7 470 -7 470 0 0 4 -127 6 -282 5 -156 -1 -240 -3
-188 -5z"/>
<path d="M4080 1923 c0 -4 113 -8 250 -8 138 0 250 3 250 6 0 4 -112 7 -250 8
-137 1 -250 -2 -250 -6z"/>
<path d="M4590 1920 c0 -5 14 -10 30 -10 17 0 30 5 30 10 0 6 -13 10 -30 10
-16 0 -30 -4 -30 -10z"/>
<path d="M4 1820 c0 -52 1 -74 3 -47 2 26 2 68 0 95 -2 26 -3 4 -3 -48z"/>
<path d="M150 1831 c0 -44 5 -83 10 -86 6 -4 10 25 10 79 0 51 -4 86 -10 86
-6 0 -10 -33 -10 -79z"/>
<path d="M5100 1720 c-13 -8 -12 -10 3 -10 9 0 17 5 17 10 0 12 -1 12 -20 0z"/>
<path d="M3 940 l-3 -785 29 -46 c46 -73 95 -105 161 -107 l55 -1 -42 9 c-23
5 -51 17 -61 27 -11 10 -32 26 -46 36 -14 10 -38 39 -53 65 l-28 47 -5 770 -5
770 -2 -785z"/>
<path d="M5043 1713 c9 -2 23 -2 30 0 6 3 -1 5 -18 5 -16 0 -22 -2 -12 -5z"/>
<path d="M5112 365 c-2 -142 -13 -225 -31 -225 -4 0 -14 -11 -21 -25 -15 -28
-87 -78 -146 -100 l-39 -14 48 1 c26 1 53 8 58 15 6 7 15 10 20 7 5 -3 12 1
15 10 3 8 12 12 20 9 9 -3 14 1 14 11 0 9 7 19 15 22 8 4 15 12 15 20 0 8 4
14 9 14 24 0 31 62 28 230 l-3 175 -2 -150z"/>
<path d="M1732 120 c0 -14 2 -19 5 -12 2 6 2 18 0 25 -3 6 -5 1 -5 -13z"/>
<path d="M3372 115 c0 -16 2 -22 5 -12 2 9 2 23 0 30 -3 6 -5 -1 -5 -18z"/>
<path d="M3570 129 c0 -5 5 -7 10 -4 6 3 10 8 10 11 0 2 -4 4 -10 4 -5 0 -10
-5 -10 -11z"/>
<path d="M1730 49 c0 -11 4 -18 10 -14 5 3 7 12 3 20 -7 21 -13 19 -13 -6z"/>
<path d="M1500 51 l-35 -7 38 -5 c26 -4 37 -1 37 8 0 7 -1 12 -2 12 -2 -1 -19
-5 -38 -8z"/>
<path d="M3570 50 c0 -5 5 -10 11 -10 5 0 7 5 4 10 -3 6 -8 10 -11 10 -2 0 -4
-4 -4 -10z"/>
<path d="M4890 50 c-12 -8 -10 -10 8 -10 13 0 20 4 17 10 -7 12 -6 12 -25 0z"/>
<path d="M3175 43 c96 -7 205 -7 205 0 0 4 -55 6 -122 5 -68 -1 -105 -3 -83
-5z"/>
<path d="M4443 43 c9 -2 25 -2 35 0 9 3 1 5 -18 5 -19 0 -27 -2 -17 -5z"/>
<path d="M4568 43 c12 -2 30 -2 40 0 9 3 -1 5 -23 4 -22 0 -30 -2 -17 -4z"/>
</g>
</svg>
