<?xml version="1.0" standalone="no"?>
<!DOCTYPE svg PUBLIC "-//W3C//DTD SVG 20010904//EN"
 "http://www.w3.org/TR/2001/REC-SVG-20010904/DTD/svg10.dtd">
<svg version="1.0" xmlns="http://www.w3.org/2000/svg"
 width="512.000000pt" height="512.000000pt" viewBox="0 0 512.000000 512.000000"
 preserveAspectRatio="xMidYMid meet">
<metadata>
Created by potrace 1.16, written by Peter Selinger 2001-2019
</metadata>
<g transform="translate(0.000000,512.000000) scale(0.100000,-0.100000)"
fill="#000000" stroke="none">
<path d="M2547 4758 c-4 -199 -7 -552 -7 -784 l0 -423 -48 -48 c-26 -26 -75
-81 -110 -121 l-62 -73 -253 -1 -252 -2 -55 59 c-182 197 -451 475 -559 579
-29 28 -59 57 -67 64 -7 6 -16 12 -20 12 -4 0 74 -82 173 -182 99 -101 216
-221 260 -268 43 -47 115 -123 158 -170 44 -47 85 -91 92 -98 10 -10 13 -75
13 -257 0 -211 2 -246 16 -260 9 -9 15 -17 13 -18 -41 -27 -97 -74 -150 -124
l-66 -63 -811 0 c-803 0 -812 0 -812 -20 0 -20 9 -20 804 -20 l804 0 120 -122
c112 -114 119 -123 101 -136 -18 -12 -19 -28 -19 -250 l0 -237 -66 -55 c-36
-30 -79 -71 -96 -90 -17 -19 -114 -119 -215 -221 -101 -102 -183 -192 -183
-199 0 -8 126 114 280 270 l280 285 257 3 256 3 31 -38 c16 -21 65 -74 107
-118 l76 -80 7 -710 c3 -390 6 -740 6 -777 0 -54 3 -68 15 -68 13 0 15 92 15
770 l0 769 88 97 c48 54 101 111 117 128 l30 31 246 -5 245 -5 35 -40 c19 -22
107 -112 197 -201 89 -89 162 -169 162 -178 0 -9 5 -16 11 -16 25 0 -39 78
-214 257 l-188 192 7 213 c6 211 4 236 -27 278 -9 12 12 37 108 132 l118 118
666 0 c542 0 669 2 684 13 16 13 15 14 -21 20 -22 4 -329 7 -682 7 l-643 0
-92 78 c-107 91 -143 116 -150 105 -3 -5 29 -37 72 -71 43 -34 88 -72 102 -85
l24 -22 -40 -6 c-38 -6 -37 -6 15 -8 85 -2 47 -17 -75 -30 -125 -14 -229 -37
-265 -60 -31 -19 -167 -120 -197 -146 -32 -28 -28 -38 7 -20 17 9 30 20 30 25
0 6 6 10 13 10 12 0 123 73 137 90 25 31 211 86 315 93 l70 5 -113 -108 c-113
-109 -127 -133 -98 -163 12 -12 16 -59 18 -236 2 -121 0 -221 -4 -221 -3 0
-25 23 -48 50 -53 63 -100 93 -53 34 17 -21 41 -49 53 -62 l22 -23 -238 2
-237 2 -26 -31 c-14 -17 -60 -69 -101 -116 l-75 -84 -6 52 c-5 48 -6 49 -8 11
-3 -73 -14 -76 -73 -15 -29 30 -77 83 -107 118 l-54 62 -243 0 c-141 0 -244 4
-244 9 0 5 4 11 8 13 17 6 112 92 112 101 0 5 -30 -17 -67 -48 l-68 -56 -3
207 c-2 174 0 210 13 224 30 33 17 58 -87 166 -57 58 -104 110 -106 115 -2 5
9 7 25 5 15 -2 22 -1 16 1 -7 2 -13 9 -13 14 0 5 -7 9 -16 9 -17 0 114 130
158 157 33 21 38 38 21 80 -9 23 -13 94 -13 248 l0 215 61 -60 c34 -33 66 -60
72 -60 12 0 -7 23 -65 78 -27 25 -48 47 -48 51 0 3 107 5 238 4 l239 -2 88
104 c48 57 91 108 94 113 8 12 41 23 41 14 0 -4 5 -36 10 -72 13 -87 13 -861
0 -874 -7 -7 -11 132 -12 415 -1 317 -3 392 -9 299 -4 -69 -7 -253 -7 -411 1
-157 -1 -290 -5 -296 -10 -16 36 -25 50 -10 16 16 19 669 3 797 -5 47 -10 102
-10 122 l0 38 83 -87 c45 -48 92 -96 105 -107 12 -11 22 -25 22 -32 0 -17 35
-21 89 -12 24 5 123 6 220 3 97 -3 180 -5 184 -5 5 0 -21 -33 -57 -74 -36 -40
-66 -77 -66 -81 0 -4 30 22 66 56 36 35 68 65 72 66 10 4 8 -417 -2 -444 -5
-17 -4 -23 8 -23 22 0 30 103 24 316 l-5 182 36 34 c90 84 394 401 459 479 39
47 108 121 153 163 44 43 78 80 75 84 -3 3 -6 0 -6 -6 0 -7 -6 -12 -14 -12 -8
0 -59 -48 -113 -107 -175 -191 -389 -416 -487 -513 l-96 -95 -233 3 c-130 2
-243 0 -257 -6 -21 -8 -28 -5 -52 27 -15 20 -65 77 -112 126 l-86 90 0 788 c0
650 -2 787 -13 787 -11 0 -15 -70 -20 -362z m20 -190 c-3 -7 -5 -2 -5 12 0 14
2 19 5 13 2 -7 2 -19 0 -25z"/>
<path d="M2428 4653 c12 -2 32 -2 45 0 12 2 2 4 -23 4 -25 0 -35 -2 -22 -4z"/>
<path d="M2668 4653 c6 -2 18 -2 25 0 6 3 1 5 -13 5 -14 0 -19 -2 -12 -5z"/>
<path d="M2348 4643 c6 -2 18 -2 25 0 6 3 1 5 -13 5 -14 0 -19 -2 -12 -5z"/>
<path d="M2763 4643 c9 -2 25 -2 35 0 9 3 1 5 -18 5 -19 0 -27 -2 -17 -5z"/>
<path d="M2268 4633 c7 -3 16 -2 19 1 4 3 -2 6 -13 5 -11 0 -14 -3 -6 -6z"/>
<path d="M2348 4625 c-65 -6 -121 -15 -125 -20 -5 -4 21 -5 57 -1 36 4 107 9
158 13 50 3 92 10 92 15 0 10 -32 9 -182 -7z"/>
<path d="M2600 4631 c0 -4 73 -15 162 -25 89 -10 170 -22 180 -27 14 -7 18 -6
18 6 0 8 -6 15 -13 15 -7 0 -64 6 -127 14 -182 23 -220 26 -220 17z"/>
<path d="M2838 4633 c6 -2 18 -2 25 0 6 3 1 5 -13 5 -14 0 -19 -2 -12 -5z"/>
<path d="M2162 4595 c1 -14 8 -25 15 -25 8 0 12 10 11 25 -1 14 -8 25 -15 25
-8 0 -12 -10 -11 -25z"/>
<path d="M2958 4613 c6 -2 18 -2 25 0 6 3 1 5 -13 5 -14 0 -19 -2 -12 -5z"/>
<path d="M2022 4593 c-35 -8 -62 -17 -59 -19 2 -2 39 4 83 15 43 10 70 19 59
19 -11 0 -48 -7 -83 -15z"/>
<path d="M2070 4578 c-266 -80 -405 -140 -552 -240 -88 -60 -120 -87 -52 -45
19 12 43 27 52 32 9 6 44 28 77 49 33 22 88 51 121 67 67 29 279 101 357 120
26 6 47 15 47 20 0 11 -4 10 -50 -3z"/>
<path d="M2990 4582 c0 -5 26 -15 58 -21 182 -41 323 -100 531 -225 79 -47
151 -86 160 -86 9 1 -13 17 -49 36 -36 19 -94 53 -130 75 -142 91 -312 164
-474 205 -34 8 -69 17 -78 20 -10 3 -18 1 -18 -4z"/>
<path d="M3098 4583 c7 -3 16 -2 19 1 4 3 -2 6 -13 5 -11 0 -14 -3 -6 -6z"/>
<path d="M3138 4573 c7 -3 16 -2 19 1 4 3 -2 6 -13 5 -11 0 -14 -3 -6 -6z"/>
<path d="M1830 4530 c-8 -5 -10 -10 -5 -10 6 0 17 5 25 10 8 5 11 10 5 10 -5
0 -17 -5 -25 -10z"/>
<path d="M1768 4503 c7 -3 16 -2 19 1 4 3 -2 6 -13 5 -11 0 -14 -3 -6 -6z"/>
<path d="M1694 4474 c-18 -14 -18 -14 6 -3 31 14 36 19 24 19 -6 0 -19 -7 -30
-16z"/>
<path d="M3406 4475 c10 -8 23 -15 28 -15 6 0 1 7 -10 15 -10 8 -23 15 -28 15
-6 0 -1 -7 10 -15z"/>
<path d="M1634 4445 c-10 -8 -14 -15 -8 -15 6 0 17 7 24 15 16 19 9 19 -16 0z"/>
<path d="M3520 4416 c0 -2 7 -9 15 -16 9 -7 15 -8 15 -2 0 5 -7 12 -15 16 -8
3 -15 4 -15 2z"/>
<path d="M1497 4360 c-43 -27 -84 -51 -90 -53 -7 -2 -10 -7 -7 -10 4 -5 170
90 187 107 18 18 -21 -1 -90 -44z"/>
<path d="M3560 4392 c0 -8 93 -62 106 -62 8 0 -54 43 -86 60 -11 6 -20 7 -20
2z"/>
<path d="M1340 4240 l-55 -18 45 5 c25 3 52 12 60 19 18 17 18 17 -50 -6z"/>
<path d="M1244 4205 c-18 -13 -18 -14 4 -8 12 3 25 9 28 14 8 14 -10 11 -32
-6z"/>
<path d="M3719 4199 l-24 -20 27 17 c16 9 40 14 57 12 17 -2 28 -1 25 4 -10
15 -62 8 -85 -13z"/>
<path d="M1137 4134 l-77 -55 -31 21 c-16 12 -32 20 -35 17 -7 -6 44 -57 56
-57 10 0 170 119 170 126 0 7 -6 4 -83 -52z"/>
<path d="M3921 4152 c81 -40 142 -85 131 -97 -10 -11 29 11 52 30 28 21 12 31
-19 11 -25 -16 -27 -16 -63 13 -33 27 -149 82 -169 81 -5 -1 26 -18 68 -38z"/>
<path d="M1243 4170 c-34 -14 -28 -21 7 -9 17 6 30 13 30 15 0 6 -12 4 -37 -6z"/>
<path d="M1311 4169 c-13 -5 -22 -11 -19 -14 8 -8 78 7 72 16 -6 11 -22 11
-53 -2z"/>
<path d="M3744 4126 c-13 -28 -24 -58 -23 -66 0 -8 9 3 19 26 18 41 41 59 72
55 32 -4 26 15 -9 26 l-35 11 -24 -52z"/>
<path d="M1351 4127 c14 -12 28 -29 32 -37 3 -9 6 -5 6 11 1 18 -6 29 -24 37
-39 18 -43 14 -14 -11z"/>
<path d="M1275 4090 c-3 -11 -11 -20 -16 -20 -17 0 0 -18 31 -34 31 -15 43 -4
14 12 -12 6 -15 18 -12 36 6 30 -8 35 -17 6z"/>
<path d="M1441 4084 c0 -11 3 -14 6 -6 3 7 2 16 -1 19 -3 4 -6 -2 -5 -13z"/>
<path d="M3819 4079 c-8 -5 -11 -9 -6 -9 4 0 1 -10 -7 -22 -10 -15 -14 -44
-12 -86 1 -34 -2 -68 -6 -75 -5 -7 -8 0 -9 18 0 26 -2 27 -9 10 -5 -11 -9 -32
-9 -46 -1 -31 -21 -73 -47 -98 -24 -23 -65 -70 -83 -96 -7 -11 19 13 58 53 39
41 71 80 71 88 0 8 4 14 8 14 26 0 52 113 41 177 -5 32 3 43 31 43 34 0 38 10
12 27 -12 7 -24 8 -33 2z"/>
<path d="M1004 4017 c-44 -47 -104 -135 -126 -184 -15 -33 -16 -47 -8 -61 10
-14 11 -14 6 -1 -7 25 45 126 100 194 26 33 53 63 58 67 6 4 8 9 5 12 -3 3
-19 -9 -35 -27z"/>
<path d="M1080 4040 c0 -5 7 -10 16 -10 8 0 12 5 9 10 -3 6 -10 10 -16 10 -5
0 -9 -4 -9 -10z"/>
<path d="M4100 4016 c28 -26 47 -49 73 -86 9 -13 17 -20 17 -14 0 14 -58 95
-79 111 -28 22 -36 14 -11 -11z"/>
<path d="M1320 3995 c0 -8 4 -15 9 -15 5 0 11 7 15 15 3 9 0 15 -9 15 -8 0
-15 -7 -15 -15z"/>
<path d="M1346 3914 c-5 -14 -9 -14 -24 -3 -15 13 -15 12 1 -11 10 -14 20 -33
24 -42 11 -35 23 -17 17 25 -8 50 -10 53 -18 31z"/>
<path d="M4218 3859 c9 -23 18 -37 20 -31 3 10 -24 72 -32 72 -3 0 3 -19 12
-41z"/>
<path d="M1036 3791 c-3 -5 6 -12 19 -15 14 -4 48 -23 75 -42 28 -20 48 -30
45 -22 -6 14 -111 88 -126 88 -4 0 -10 -4 -13 -9z"/>
<path d="M4039 3772 c-45 -29 -107 -82 -95 -82 3 0 24 12 45 28 52 36 73 51
91 62 8 5 12 11 9 14 -3 3 -25 -7 -50 -22z"/>
<path d="M4217 3786 c-7 -16 1 -26 20 -26 7 0 13 7 13 16 0 14 -3 14 -15 4
-13 -11 -14 -10 -9 4 3 9 4 16 1 16 -3 0 -7 -6 -10 -14z"/>
<path d="M3245 3780 c-3 -5 -1 -10 4 -10 6 0 11 5 11 10 0 6 -2 10 -4 10 -3 0
-8 -4 -11 -10z"/>
<path d="M965 3760 c3 -5 11 -10 16 -10 6 0 7 5 4 10 -3 6 -11 10 -16 10 -6 0
-7 -4 -4 -10z"/>
<path d="M1910 3754 c0 -5 9 -20 20 -34 11 -14 20 -29 20 -35 0 -9 22 -40 110
-156 14 -18 35 -43 48 -55 12 -13 22 -26 22 -29 0 -14 69 -104 74 -97 6 9 -46
83 -112 161 -20 24 -68 89 -106 145 -77 114 -76 113 -76 100z"/>
<path d="M3198 3709 c-47 -71 -61 -99 -50 -99 5 0 19 20 32 45 12 24 31 53 42
65 11 11 18 26 16 32 -2 6 -20 -13 -40 -43z"/>
<path d="M4096 3733 c-6 -14 -5 -15 5 -6 7 7 10 15 7 18 -3 3 -9 -2 -12 -12z"/>
<path d="M787 3659 c-92 -128 -177 -294 -239 -469 -33 -91 -37 -118 -22 -124
14 -5 34 22 34 46 -1 7 -7 0 -15 -17 l-15 -30 6 40 c19 129 203 495 304 602
21 23 25 33 13 32 -5 0 -34 -36 -66 -80z"/>
<path d="M4260 3732 c0 -12 19 -26 26 -19 2 2 -2 10 -11 17 -9 8 -15 8 -15 2z"/>
<path d="M4040 3700 c-14 -11 -20 -20 -14 -20 5 0 15 5 22 12 9 9 12 9 12 0 0
-10 5 -10 21 -1 17 9 19 13 8 20 -19 12 -20 11 -49 -11z"/>
<path d="M4325 3700 c3 -5 8 -10 11 -10 2 0 4 5 4 10 0 6 -5 10 -11 10 -5 0
-7 -4 -4 -10z"/>
<path d="M1100 3692 c0 -5 20 -19 43 -30 24 -11 58 -33 75 -47 18 -15 32 -22
32 -17 0 8 -32 38 -87 82 -18 15 -63 23 -63 12z"/>
<path d="M3970 3679 c-43 -26 -79 -58 -92 -82 -8 -16 -7 -17 11 -8 11 6 24 17
28 25 4 7 27 25 51 40 23 14 42 31 42 36 0 13 1 13 -40 -11z"/>
<path d="M1068 3683 c7 -3 16 -2 19 1 4 3 -2 6 -13 5 -11 0 -14 -3 -6 -6z"/>
<path d="M4300 3676 c0 -2 7 -9 15 -16 13 -11 14 -10 9 4 -5 14 -24 23 -24 12z"/>
<path d="M4439 3488 c65 -127 112 -234 137 -313 21 -66 40 -112 42 -103 5 25
-54 190 -114 316 -51 108 -151 292 -159 292 -2 0 40 -87 94 -192z"/>
<path d="M4126 3655 c-11 -8 -17 -17 -14 -20 2 -3 13 4 23 15 21 23 18 25 -9
5z"/>
<path d="M1012 3634 c9 -9 21 -15 27 -13 6 2 -2 10 -17 17 -25 11 -25 11 -10
-4z"/>
<path d="M3277 3598 c-58 -60 -174 -268 -149 -268 4 0 14 16 20 35 36 97 113
209 182 264 14 11 19 20 12 21 -7 0 -37 -24 -65 -52z"/>
<path d="M701 3578 c-16 -29 -37 -61 -45 -71 -15 -20 -69 -139 -110 -247 -14
-36 -19 -56 -11 -46 8 10 26 50 41 88 14 38 37 89 50 114 13 24 22 44 19 44
-2 0 18 37 46 81 27 45 48 84 45 86 -2 3 -18 -19 -35 -49z"/>
<path d="M1868 3595 c41 -34 112 -134 146 -208 15 -33 30 -57 33 -54 6 7 -23
70 -65 137 -38 61 -96 126 -127 142 -11 5 -5 -2 13 -17z"/>
<path d="M4346 3607 c3 -10 9 -15 12 -12 3 3 0 11 -7 18 -10 9 -11 8 -5 -6z"/>
<path d="M4020 3580 c-13 -8 -12 -10 3 -10 9 0 17 5 17 10 0 12 -1 12 -20 0z"/>
<path d="M1101 3577 c2 -1 13 -9 24 -17 19 -14 19 -14 6 3 -7 9 -18 17 -24 17
-6 0 -8 -1 -6 -3z"/>
<path d="M1156 3547 c3 -10 9 -15 12 -12 3 3 0 11 -7 18 -10 9 -11 8 -5 -6z"/>
<path d="M3900 3534 c0 -8 5 -12 10 -9 6 4 8 11 5 16 -9 14 -15 11 -15 -7z"/>
<path d="M1190 3522 c0 -5 12 -15 28 -23 15 -8 33 -22 40 -31 7 -10 18 -18 25
-18 10 0 -20 30 -70 70 -15 12 -23 13 -23 2z"/>
<path d="M3860 3495 c-13 -14 -20 -25 -15 -25 5 0 2 -6 -6 -12 -31 -26 -133
-141 -117 -132 31 17 129 117 138 140 7 16 15 22 30 19 11 -2 18 0 15 6 -4 5
-11 6 -17 3 -7 -5 -9 -1 -5 9 9 23 5 21 -23 -8z"/>
<path d="M2512 3465 c-13 -20 -21 -43 -18 -49 2 -6 5 -5 5 3 1 8 10 25 22 37
12 12 19 28 17 35 -2 7 -14 -5 -26 -26z"/>
<path d="M3095 3489 c-11 -17 1 -21 15 -4 8 9 8 15 2 15 -6 0 -14 -5 -17 -11z"/>
<path d="M3062 3454 c-7 -8 -8 -14 -3 -14 10 0 25 19 20 25 -2 1 -10 -3 -17
-11z"/>
<path d="M1290 3436 c0 -2 7 -6 15 -10 8 -3 15 -1 15 4 0 6 -7 10 -15 10 -8 0
-15 -2 -15 -4z"/>
<path d="M1330 3402 c0 -4 10 -13 23 -21 22 -14 22 -14 3 8 -20 22 -26 25 -26
13z"/>
<path d="M2601 3355 c-2 -76 46 -233 63 -206 4 6 2 11 -4 11 -7 0 -10 7 -6 15
3 8 -4 36 -15 62 -11 27 -24 75 -29 108 l-7 60 -2 -50z"/>
<path d="M2508 3355 c-3 -5 -9 -26 -13 -45 -4 -19 -15 -64 -26 -99 -10 -35
-19 -71 -18 -80 1 -25 45 78 59 140 12 53 11 105 -2 84z"/>
<path d="M1440 3335 c6 -7 40 -27 77 -45 38 -17 76 -36 86 -41 9 -5 17 -6 17
-2 0 5 -43 28 -95 54 -52 25 -90 40 -85 34z"/>
<path d="M3666 3305 c-11 -8 -15 -15 -10 -15 6 0 19 7 30 15 10 8 15 14 9 14
-5 0 -19 -6 -29 -14z"/>
<path d="M3733 3306 c-6 -6 -82 -80 -168 -165 -86 -84 -154 -155 -152 -158 3
-2 45 35 95 84 49 48 107 104 128 123 55 50 118 119 113 124 -2 2 -9 -1 -16
-8z"/>
<path d="M1482 3226 c45 -47 85 -82 88 -79 3 2 -8 16 -25 31 -16 14 -30 28
-30 32 0 9 -98 100 -108 100 -5 0 29 -38 75 -84z"/>
<path d="M511 3164 c0 -11 3 -14 6 -6 3 7 2 16 -1 19 -3 4 -6 -2 -5 -13z"/>
<path d="M4571 3103 c-1 -12 4 -25 9 -28 12 -7 12 2 0 30 -8 19 -9 19 -9 -2z"/>
<path d="M491 3094 c0 -11 3 -14 6 -6 3 7 2 16 -1 19 -3 4 -6 -2 -5 -13z"/>
<path d="M1740 3089 c0 -5 5 -7 10 -4 6 3 10 8 10 11 0 2 -4 4 -10 4 -5 0 -10
-5 -10 -11z"/>
<path d="M1620 3076 c0 -2 7 -7 16 -10 8 -3 12 -2 9 4 -6 10 -25 14 -25 6z"/>
<path d="M2423 3068 c-17 -20 -27 -62 -14 -54 6 4 11 16 11 26 0 10 6 20 13
23 6 2 9 7 6 11 -3 4 -11 1 -16 -6z"/>
<path d="M486 3042 c-3 -6 1 -13 10 -16 23 -9 28 -2 10 13 -8 7 -17 8 -20 3z"/>
<path d="M1670 3044 c0 -17 17 -36 24 -26 3 5 -1 15 -9 22 -8 7 -15 9 -15 4z"/>
<path d="M4608 3043 c-10 -2 -18 -9 -18 -15 0 -5 7 -7 16 -4 9 3 20 6 25 6 5
0 9 5 9 10 0 10 -3 11 -32 3z"/>
<path d="M460 2988 c0 -13 -3 -41 -7 -63 -9 -59 4 -39 15 23 5 29 6 55 1 58
-5 3 -9 -5 -9 -18z"/>
<path d="M1720 2990 c6 -11 16 -20 23 -19 9 0 9 2 0 6 -7 2 -13 11 -13 19 0 8
-5 14 -10 14 -7 0 -7 -6 0 -20z"/>
<path d="M4614 2975 c25 -102 48 -317 34 -309 -11 7 -10 -38 1 -55 8 -12 11
-9 17 13 14 56 -23 348 -47 370 -9 8 -10 3 -5 -19z"/>
<path d="M497 2975 c-33 -81 -64 -397 -38 -380 10 5 11 26 7 75 -3 37 -3 70 0
73 3 2 7 34 9 71 2 36 11 81 20 100 9 19 15 45 13 58 -3 22 -4 22 -11 3z"/>
<path d="M3356 2937 c-11 -8 -17 -19 -15 -24 2 -6 12 0 22 13 20 27 19 30 -7
11z"/>
<path d="M4667 2905 c3 -27 7 -52 9 -54 7 -8 2 54 -6 79 -6 17 -7 9 -3 -25z"/>
<path d="M441 2854 c0 -11 3 -14 6 -6 3 7 2 16 -1 19 -3 4 -6 -2 -5 -13z"/>
<path d="M2225 2782 c-98 -94 -145 -132 -161 -132 -7 0 -28 -8 -47 -19 -28
-16 -59 -24 -132 -36 -5 -1 -32 -3 -60 -5 -48 -3 -47 -4 20 -9 40 -4 90 -1
115 5 55 14 140 53 140 64 0 5 8 11 18 14 32 11 203 187 180 186 -2 0 -35 -31
-73 -68z"/>
<path d="M2830 2844 c0 -12 84 -98 150 -154 36 -30 92 -68 124 -84 50 -25 71
-30 164 -33 121 -5 134 1 25 11 -40 4 -96 15 -125 24 -50 16 -139 68 -146 85
-2 4 -8 7 -13 7 -13 0 -39 22 -138 113 -23 21 -41 35 -41 31z"/>
<path d="M4683 2805 c0 -22 2 -30 4 -17 2 12 2 30 0 40 -3 9 -5 -1 -4 -23z"/>
<path d="M4693 2670 c0 -47 2 -66 4 -42 2 23 2 61 0 85 -2 23 -4 4 -4 -43z"/>
<path d="M412 2625 c0 -16 2 -22 5 -12 2 9 2 23 0 30 -3 6 -5 -1 -5 -18z"/>
<path d="M1700 2580 c-18 -12 -2 -12 25 0 13 6 15 9 5 9 -8 0 -22 -4 -30 -9z"/>
<path d="M2012 2571 c-8 -5 90 -6 229 -4 134 2 245 6 247 8 8 8 -464 4 -476
-4z"/>
<path d="M2812 2563 c37 -2 100 -2 140 0 40 1 10 3 -67 3 -77 0 -110 -1 -73
-3z"/>
<path d="M2125 2529 c105 -3 238 -7 297 -8 l107 -1 1 -307 c1 -170 5 -330 10
-358 4 -29 8 99 9 311 l1 362 -31 6 c-17 3 -156 5 -308 4 l-276 -2 190 -7z"/>
<path d="M2564 2515 c3 -11 6 -202 7 -425 2 -295 4 -379 10 -310 5 52 8 235 7
405 0 171 0 316 1 322 1 10 69 13 289 15 l287 3 -303 5 c-299 5 -303 5 -298
-15z"/>
<path d="M1875 2515 c33 -7 74 -20 90 -29 17 -9 35 -16 42 -16 6 0 18 -8 25
-17 7 -10 25 -24 39 -31 15 -8 55 -42 90 -75 104 -100 116 -109 116 -93 0 21
-160 173 -227 217 -61 40 -126 59 -192 58 -43 -1 -43 -1 17 -14z"/>
<path d="M415 2458 c8 -77 44 -334 52 -365 3 -13 8 -23 12 -23 4 0 -3 60 -15
133 -13 72 -26 174 -30 225 -4 50 -11 92 -16 92 -5 0 -6 -27 -3 -62z"/>
<path d="M450 2493 c1 -115 48 -413 65 -413 8 0 6 21 -6 73 -10 39 -24 138
-31 220 -6 81 -16 147 -20 147 -4 0 -8 -12 -8 -27z"/>
<path d="M4640 2453 c0 -36 2 -64 5 -62 9 9 13 129 4 129 -5 0 -9 -30 -9 -67z"/>
<path d="M4683 2485 c0 -22 2 -30 4 -17 2 12 2 30 0 40 -3 9 -5 -1 -4 -23z"/>
<path d="M4671 2414 c-1 -28 -42 -251 -57 -309 -3 -14 -2 -25 3 -25 12 0 66
299 60 336 l-4 29 -2 -31z"/>
<path d="M4632 2320 c0 -14 2 -19 5 -12 2 6 2 18 0 25 -3 6 -5 1 -5 -13z"/>
<path d="M3340 2183 c0 -13 5 -23 10 -23 13 0 13 11 0 30 -8 12 -10 11 -10 -7z"/>
<path d="M1771 2185 c-1 -6 -19 -24 -41 -41 -21 -17 -86 -76 -144 -131 -57
-56 -125 -113 -150 -128 -25 -15 -46 -31 -46 -36 0 -9 13 -2 90 49 19 13 78
65 131 115 53 51 113 106 134 123 23 19 36 36 32 45 -3 8 -6 9 -6 4z"/>
<path d="M4662 2145 c0 -16 2 -22 5 -12 2 9 2 23 0 30 -3 6 -5 -1 -5 -18z"/>
<path d="M3390 2116 c0 -2 7 -9 15 -16 9 -7 15 -8 15 -2 0 5 -7 12 -15 16 -8
3 -15 4 -15 2z"/>
<path d="M4651 2094 c0 -11 3 -14 6 -6 3 7 2 16 -1 19 -3 4 -6 -2 -5 -13z"/>
<path d="M3431 2076 c2 -3 24 -28 49 -56 52 -60 220 -206 220 -192 0 6 -30 37
-67 69 -37 32 -95 86 -129 121 -34 34 -65 62 -70 62 -4 0 -5 -2 -3 -4z"/>
<path d="M490 2045 c0 -17 2 -18 24 -9 23 9 20 24 -4 24 -11 0 -20 -7 -20 -15z"/>
<path d="M4595 2050 c3 -5 15 -10 26 -10 10 0 19 5 19 10 0 6 -12 10 -26 10
-14 0 -23 -4 -19 -10z"/>
<path d="M4570 1979 c-7 -24 -15 -48 -18 -54 -3 -5 1 -4 10 3 16 13 34 79 24
89 -2 3 -10 -15 -16 -38z"/>
<path d="M4606 1969 c-9 -29 -16 -62 -15 -73 0 -12 2 -16 4 -11 25 80 36 127
32 132 -3 3 -13 -19 -21 -48z"/>
<path d="M510 2006 c0 -39 133 -336 207 -464 45 -76 34 -38 -15 54 -67 127
-126 257 -153 341 -13 40 -27 73 -31 73 -5 0 -8 -2 -8 -4z"/>
<path d="M2450 1956 c0 -9 18 -71 40 -137 22 -67 38 -125 35 -129 -3 -5 -1
-11 4 -14 18 -11 18 21 1 89 -21 83 -25 95 -56 159 -13 28 -24 42 -24 32z"/>
<path d="M2650 1927 c0 -2 -11 -41 -25 -88 -23 -73 -43 -200 -30 -188 2 3 11
40 20 84 9 44 21 82 26 86 9 5 22 109 14 109 -3 0 -5 -1 -5 -3z"/>
<path d="M4546 1847 c-26 -75 -146 -323 -189 -390 -20 -31 -33 -57 -29 -57 22
1 190 324 227 438 23 69 15 77 -9 9z"/>
<path d="M1360 1835 c-11 -13 -10 -14 4 -9 9 3 16 10 16 15 0 13 -6 11 -20 -6z"/>
<path d="M4555 1795 c-9 -26 -15 -48 -12 -51 3 -3 12 16 21 42 21 62 14 68 -9
9z"/>
<path d="M1399 1793 c-13 -16 -12 -17 4 -4 9 7 17 15 17 17 0 8 -8 3 -21 -13z"/>
<path d="M1308 1719 c-37 -33 -67 -63 -66 -67 1 -4 -4 -18 -11 -32 l-13 -25
22 23 c12 13 19 26 16 30 -4 3 2 11 13 17 42 22 129 115 108 115 -1 0 -32 -27
-69 -61z"/>
<path d="M1995 1711 c-14 -28 -21 -52 -16 -55 5 -3 12 6 15 20 4 15 14 33 21
41 14 14 21 43 10 43 -2 0 -16 -22 -30 -49z"/>
<path d="M2173 1748 c-23 -30 -74 -128 -66 -128 11 1 94 140 84 140 -5 0 -13
-6 -18 -12z"/>
<path d="M2249 1743 c-13 -16 -12 -17 4 -4 9 7 17 15 17 17 0 8 -8 3 -21 -13z"/>
<path d="M2950 1750 c0 -5 5 -10 11 -10 5 0 7 5 4 10 -3 6 -8 10 -11 10 -2 0
-4 -4 -4 -10z"/>
<path d="M3110 1751 c0 -6 4 -13 10 -16 6 -3 7 1 4 9 -7 18 -14 21 -14 7z"/>
<path d="M3728 1743 c116 -113 211 -191 215 -179 4 10 -2 18 -16 22 -12 4 -38
24 -57 45 -43 45 -141 129 -152 129 -4 0 0 -8 10 -17z"/>
<path d="M4517 1695 c-24 -50 -20 -58 4 -12 11 22 19 41 17 43 -3 2 -12 -12
-21 -31z"/>
<path d="M2990 1705 c0 -8 4 -15 10 -15 5 0 7 7 4 15 -4 8 -8 15 -10 15 -2 0
-4 -7 -4 -15z"/>
<path d="M606 1687 c3 -10 9 -15 12 -12 3 3 0 11 -7 18 -10 9 -11 8 -5 -6z"/>
<path d="M3147 1673 c-7 -11 21 -89 28 -81 2 2 -2 24 -9 48 -7 24 -16 39 -19
33z"/>
<path d="M2536 1652 c-2 -4 -1 -14 5 -22 7 -12 9 -10 9 8 0 23 -5 28 -14 14z"/>
<path d="M1956 1633 c-6 -14 -5 -15 5 -6 7 7 10 15 7 18 -3 3 -9 -2 -12 -12z"/>
<path d="M2072 1590 c-7 -11 -9 -20 -4 -20 4 0 13 9 20 20 7 11 9 20 4 20 -4
0 -13 -9 -20 -20z"/>
<path d="M2960 1571 c0 -6 4 -13 10 -16 6 -3 7 1 4 9 -7 18 -14 21 -14 7z"/>
<path d="M1162 1545 c-6 -14 -19 -25 -27 -25 -9 0 -13 -5 -10 -10 9 -14 51 19
52 42 2 24 -2 23 -15 -7z"/>
<path d="M3100 1560 c0 -5 5 -10 10 -10 6 0 10 5 10 10 0 6 -4 10 -10 10 -5 0
-10 -4 -10 -10z"/>
<path d="M1215 1476 c-40 -51 -78 -87 -126 -118 -38 -23 -69 -47 -69 -51 0 -4
10 -2 23 5 12 7 26 12 30 13 4 0 11 5 15 10 4 6 19 16 34 24 37 19 79 65 122
134 20 31 35 57 33 57 -2 0 -30 -33 -62 -74z"/>
<path d="M4366 1535 c-3 -8 -1 -15 3 -15 5 0 11 7 15 15 3 8 1 15 -3 15 -5 0
-11 -7 -15 -15z"/>
<path d="M3224 1516 c16 -14 34 -26 39 -26 6 0 20 -8 31 -17 21 -18 21 -18 4
3 -10 11 -37 30 -60 43 l-43 23 29 -26z"/>
<path d="M3995 1515 c30 -25 45 -31 45 -17 0 4 -17 15 -38 25 l-37 17 30 -25z"/>
<path d="M3150 1525 c0 -5 5 -17 10 -25 5 -8 10 -10 10 -5 0 6 -5 17 -10 25
-5 8 -10 11 -10 5z"/>
<path d="M3870 1521 c0 -5 5 -13 10 -16 6 -3 10 -2 10 4 0 5 -4 13 -10 16 -5
3 -10 2 -10 -4z"/>
<path d="M3930 1477 c37 -41 118 -102 126 -95 2 3 -17 20 -44 38 -26 18 -63
47 -82 64 l-35 31 35 -38z"/>
<path d="M4321 1455 c-42 -74 -39 -82 4 -15 32 50 41 70 31 70 -2 0 -18 -25
-35 -55z"/>
<path d="M777 1482 c2 -10 15 -32 28 -48 l25 -29 -20 42 c-21 44 -41 66 -33
35z"/>
<path d="M1047 1469 c-20 -17 -37 -36 -37 -42 0 -6 15 3 33 20 17 17 41 35 52
41 14 8 16 11 5 12 -9 0 -32 -14 -53 -31z"/>
<path d="M1808 1472 c-38 -27 -53 -51 -20 -32 29 17 78 60 67 60 -5 -1 -27
-13 -47 -28z"/>
<path d="M1117 1441 c-29 -27 -49 -52 -46 -55 3 -3 30 19 59 49 68 68 57 73
-13 6z"/>
<path d="M4050 1482 c0 -5 7 -13 16 -16 10 -4 14 -1 12 6 -5 15 -28 23 -28 10z"/>
<path d="M750 1476 c0 -5 14 -32 32 -60 40 -63 37 -60 43 -55 2 3 -14 32 -35
64 -22 33 -40 56 -40 51z"/>
<path d="M3890 1479 c0 -3 11 -20 25 -39 14 -19 25 -30 25 -24 0 10 -49 73
-50 63z"/>
<path d="M3717 1413 c59 -81 313 -350 313 -333 0 5 -66 77 -146 162 -80 84
-153 165 -162 181 -9 15 -20 27 -25 27 -4 0 4 -17 20 -37z"/>
<path d="M1951 1402 c-1 -8 -10 -25 -21 -39 -11 -14 -20 -30 -20 -36 0 -5 11
7 25 28 14 20 24 42 21 49 -3 7 -5 6 -5 -2z"/>
<path d="M4111 1390 c9 -13 22 -26 30 -29 11 -3 10 1 -2 19 -9 13 -22 26 -30
29 -11 3 -10 -1 2 -19z"/>
<path d="M840 1380 c6 -11 13 -20 16 -20 2 0 0 9 -6 20 -6 11 -13 20 -16 20
-2 0 0 -9 6 -20z"/>
<path d="M970 1364 c0 -14 3 -14 15 -4 8 7 15 14 15 16 0 2 -7 4 -15 4 -8 0
-15 -7 -15 -16z"/>
<path d="M3980 1377 c0 -2 14 -16 30 -32 17 -16 30 -24 30 -19 0 6 -13 20 -30
32 -16 13 -30 21 -30 19z"/>
<path d="M830 1345 c0 -5 5 -17 10 -25 5 -8 10 -10 10 -5 0 6 -5 17 -10 25 -5
8 -10 11 -10 5z"/>
<path d="M896 1329 c-12 -39 -15 -68 -7 -73 5 -3 11 13 13 37 5 43 2 61 -6 36z"/>
<path d="M3730 1331 c0 -5 5 -13 10 -16 6 -3 10 -2 10 4 0 5 -4 13 -10 16 -5
3 -10 2 -10 -4z"/>
<path d="M4155 1330 c3 -5 8 -10 11 -10 2 0 4 5 4 10 0 6 -5 10 -11 10 -5 0
-7 -4 -4 -10z"/>
<path d="M4212 1320 c0 -14 2 -19 5 -12 2 6 2 18 0 25 -3 6 -5 1 -5 -13z"/>
<path d="M4261 1304 c-12 -20 -20 -38 -18 -40 2 -2 14 14 26 36 28 50 21 53
-8 4z"/>
<path d="M4227 1292 l-18 -37 20 25 c12 14 21 31 21 38 0 19 -4 15 -23 -26z"/>
<path d="M942 1255 c0 -16 2 -22 5 -12 2 9 2 23 0 30 -3 6 -5 -1 -5 -18z"/>
<path d="M1335 1253 c-8 -19 -14 -46 -17 -75 -1 -9 -6 -14 -10 -12 -11 7 -10
-7 1 -25 6 -10 10 -10 16 -1 7 12 35 108 35 123 0 14 -18 7 -25 -10z"/>
<path d="M3770 1226 c0 -19 5 -38 10 -41 6 -3 10 1 10 9 0 27 15 18 16 -10 1
-16 -2 -24 -10 -21 -8 3 -10 -6 -7 -32 2 -20 6 -29 9 -21 3 8 8 17 13 20 14 9
22 60 9 60 -6 0 -8 4 -5 10 7 11 -23 60 -36 60 -5 0 -9 -15 -9 -34z"/>
<path d="M4154 1179 c-25 -50 -112 -137 -179 -182 -33 -21 -49 -36 -35 -32 14
4 47 23 73 43 27 19 52 31 55 26 12 -15 54 -36 60 -29 7 6 -6 18 -44 41 -16 9
-14 14 17 50 48 53 82 104 76 111 -3 2 -13 -10 -23 -28z"/>
<path d="M1277 1183 c-4 -3 -7 -13 -7 -22 1 -13 3 -13 11 2 11 19 8 33 -4 20z"/>
<path d="M950 1169 c0 -9 7 -22 16 -30 8 -7 22 -25 30 -41 8 -15 19 -28 25
-28 6 0 -2 17 -19 38 -16 20 -34 46 -40 57 -9 16 -11 17 -12 4z"/>
<path d="M1135 1135 c-27 -25 -44 -45 -38 -45 7 0 34 20 60 45 62 58 43 58
-22 0z"/>
<path d="M1350 1061 c0 -11 -4 -23 -10 -26 -5 -3 -10 -12 -10 -18 0 -7 9 2 20
18 22 34 25 45 10 45 -5 0 -10 -9 -10 -19z"/>
<path d="M3822 1053 c-17 -7 -5 -23 19 -23 10 0 19 7 19 15 0 15 -14 18 -38 8z"/>
<path d="M1008 1039 c-10 -5 -18 -17 -18 -25 0 -13 3 -13 22 0 30 21 57 20 77
-2 9 -11 27 -25 40 -32 36 -19 165 -48 169 -39 2 5 10 9 18 9 8 0 14 7 14 15
0 8 -4 15 -9 15 -5 0 -11 -7 -15 -15 -3 -8 -16 -15 -29 -15 -41 0 -145 41
-174 68 -30 29 -67 37 -95 21z"/>
<path d="M1245 1040 c-7 -11 39 -25 54 -15 6 3 11 10 11 16 0 12 -57 12 -65
-1z"/>
<path d="M1431 1020 c-3 -22 -8 -44 -15 -71 -3 -13 1 -9 10 10 8 18 13 43 11
55 -2 12 -5 14 -6 6z"/>
<path d="M3750 983 c0 -42 12 -37 17 7 1 16 -2 30 -7 30 -6 0 -10 -16 -10 -37z"/>
<path d="M1346 993 c-6 -14 -5 -15 5 -6 7 7 10 15 7 18 -3 3 -9 -2 -12 -12z"/>
<path d="M3686 970 c7 -28 12 -35 18 -29 2 2 -2 15 -10 29 l-15 25 7 -25z"/>
<path d="M3780 950 c0 -5 5 -10 11 -10 5 0 7 5 4 10 -3 6 -8 10 -11 10 -2 0
-4 -4 -4 -10z"/>
<path d="M3818 953 c7 -3 16 -2 19 1 4 3 -2 6 -13 5 -11 0 -14 -3 -6 -6z"/>
<path d="M3806 924 c-107 -45 -119 -61 -15 -18 46 18 89 34 96 34 6 0 15 5 18
10 10 17 -16 10 -99 -26z"/>
<path d="M3715 919 c-4 -6 -5 -12 -2 -15 2 -3 7 2 10 11 7 17 1 20 -8 4z"/>
<path d="M1308 903 c7 -3 16 -2 19 1 4 3 -2 6 -13 5 -11 0 -14 -3 -6 -6z"/>
<path d="M1390 875 c14 -8 30 -14 35 -14 6 0 -1 6 -15 14 -14 8 -29 14 -35 14
-5 0 1 -6 15 -14z"/>
<path d="M3753 860 c-72 -41 -67 -47 7 -10 55 28 71 40 53 40 -5 0 -32 -14
-60 -30z"/>
<path d="M1360 846 c0 -13 296 -169 404 -212 132 -53 350 -117 360 -106 10 9
7 24 -4 17 -10 -6 -140 25 -235 57 -106 35 -257 105 -385 177 -115 65 -140 77
-140 67z"/>
<path d="M3601 799 c-35 -16 -62 -32 -59 -35 3 -3 37 11 74 30 84 43 73 46
-15 5z"/>
<path d="M3615 768 c-96 -56 -221 -113 -339 -154 -123 -43 -254 -77 -266 -69
-6 4 -10 -1 -10 -9 0 -12 23 -8 128 19 184 49 385 134 528 224 73 45 40 37
-41 -11z"/>
<path d="M3450 720 c-41 -21 -101 -49 -133 -61 -32 -12 -56 -24 -53 -26 9 -9
266 109 266 123 0 6 2 7 -80 -36z"/>
<path d="M1640 726 c0 -2 7 -7 16 -10 8 -3 12 -2 9 4 -6 10 -25 14 -25 6z"/>
<path d="M1680 706 c0 -2 7 -7 16 -10 8 -3 12 -2 9 4 -6 10 -25 14 -25 6z"/>
<path d="M1737 679 c7 -7 15 -10 18 -7 3 3 -2 9 -12 12 -14 6 -15 5 -6 -5z"/>
<path d="M1840 636 c0 -2 7 -7 16 -10 8 -3 12 -2 9 4 -6 10 -25 14 -25 6z"/>
<path d="M3178 603 c7 -3 16 -2 19 1 4 3 -2 6 -13 5 -11 0 -14 -3 -6 -6z"/>
<path d="M1978 533 c7 -3 16 -2 19 1 4 3 -2 6 -13 5 -11 0 -14 -3 -6 -6z"/>
<path d="M2170 532 c0 -5 29 -10 65 -11 35 -1 75 -5 87 -10 13 -5 66 -8 118
-8 l95 0 -85 6 c-47 4 -92 10 -100 13 -27 12 -180 20 -180 10z"/>
<path d="M2875 530 c-33 -5 -106 -10 -163 -11 -57 -2 -106 -8 -109 -13 -4 -6
51 -6 143 -1 82 4 161 8 177 8 16 0 27 5 27 13 0 8 -3 13 -7 13 -5 -1 -35 -5
-68 -9z"/>
<path d="M3118 533 c6 -2 18 -2 25 0 6 3 1 5 -13 5 -14 0 -19 -2 -12 -5z"/>
<path d="M2030 520 c34 -11 60 -11 35 0 -11 5 -29 8 -40 8 -16 0 -15 -2 5 -8z"/>
<path d="M3035 514 l-40 -14 40 6 c42 6 85 24 55 23 -8 -1 -33 -7 -55 -15z"/>
<path d="M2100 506 c0 -7 40 -14 44 -7 3 4 -6 8 -20 9 -13 1 -24 0 -24 -2z"/>
<path d="M2168 493 c6 -2 18 -2 25 0 6 3 1 5 -13 5 -14 0 -19 -2 -12 -5z"/>
<path d="M2218 493 c7 -3 16 -2 19 1 4 3 -2 6 -13 5 -11 0 -14 -3 -6 -6z"/>
<path d="M2855 490 l-40 -7 47 -2 c26 0 50 4 53 9 7 11 1 11 -60 0z"/>
</g>
</svg>
