<?xml version="1.0" standalone="no"?>
<!DOCTYPE svg PUBLIC "-//W3C//DTD SVG 20010904//EN"
 "http://www.w3.org/TR/2001/REC-SVG-20010904/DTD/svg10.dtd">
<svg version="1.0" xmlns="http://www.w3.org/2000/svg"
 width="512.000000pt" height="768.000000pt" viewBox="0 0 512.000000 768.000000"
 preserveAspectRatio="xMidYMid meet">
<metadata>
Created by potrace 1.16, written by Peter Selinger 2001-2019
</metadata>
<g transform="translate(0.000000,768.000000) scale(0.100000,-0.100000)"
fill="#000000" stroke="none">
<path d="M2551 7536 c0 -79 -3 -152 -9 -162 -5 -11 -13 -35 -18 -54 -4 -19 -9
-37 -9 -40 -1 -3 -7 -26 -14 -52 -8 -26 -17 -46 -21 -43 -5 3 -6 -5 -2 -17 3
-13 1 -19 -5 -15 -7 4 -9 0 -6 -11 2 -9 -25 -112 -61 -227 -54 -170 -68 -230
-76 -320 -6 -60 -15 -148 -20 -195 -5 -47 -17 -166 -25 -265 -9 -99 -19 -187
-22 -195 -3 -8 -5 -24 -4 -35 1 -11 -5 -88 -14 -170 -9 -83 -22 -220 -31 -305
-8 -85 -26 -263 -40 -395 -14 -132 -29 -289 -35 -350 -5 -60 -12 -117 -15
-125 -3 -8 -7 -55 -10 -105 -3 -49 -9 -94 -14 -99 -4 -4 -6 -15 -3 -22 3 -8 2
-39 -2 -69 -6 -55 -7 -56 -78 -106 l-72 -50 -5 328 c-3 180 -1 336 3 347 7 14
6 16 -4 11 -9 -6 -11 -3 -6 8 4 11 -1 18 -14 22 -21 7 -94 81 -94 96 0 5 -4
10 -10 11 -18 3 -36 28 -29 39 4 7 1 10 -7 7 -19 -6 -42 19 -35 38 3 8 2 13
-3 9 -14 -8 -41 5 -41 21 0 8 -7 14 -15 14 -8 0 -15 5 -15 10 0 19 -47 10 -69
-12 -12 -13 -51 -57 -88 -98 -36 -41 -70 -74 -74 -73 -5 2 -5 -5 -2 -14 4 -11
3 -14 -5 -9 -7 4 -12 1 -12 -7 0 -24 -30 -42 -64 -38 -73 8 -87 6 -106 -11
-23 -21 -22 -8 -18 -303 4 -354 0 -679 -9 -682 -4 -2 -8 -251 -7 -553 1 -456
-1 -550 -12 -550 -8 0 -14 -4 -14 -10 0 -5 6 -9 13 -7 9 1 12 -80 14 -377 1
-257 5 -382 12 -389 8 -8 11 251 11 926 0 515 4 937 8 937 4 0 6 225 5 500
l-3 500 43 0 c24 0 58 -5 76 -11 29 -10 33 -9 54 17 12 16 59 70 103 121 45
50 89 101 97 113 15 21 18 18 151 -117 l136 -138 0 -363 c0 -287 -3 -363 -12
-359 -7 2 -12 13 -10 23 2 15 1 16 -7 4 -5 -8 -8 -17 -6 -20 2 -3 -21 -21 -51
-40 -30 -19 -54 -38 -54 -42 0 -5 -5 -8 -11 -8 -11 0 -92 -60 -97 -72 -2 -5
-8 -8 -13 -8 -13 0 -79 -44 -79 -52 0 -18 29 -2 202 113 360 239 336 220 343
259 5 34 55 519 115 1120 39 391 118 1196 126 1280 4 40 41 175 96 350 49 157
92 306 95 333 6 51 23 65 23 18 0 -17 42 -164 93 -328 91 -291 94 -301 106
-448 11 -143 46 -504 111 -1155 16 -162 34 -351 40 -420 6 -69 17 -186 25
-260 40 -362 56 -506 59 -516 2 -6 46 -37 98 -68 51 -32 170 -105 263 -163 94
-59 178 -106 188 -105 9 0 15 -3 12 -8 -3 -5 -1 -11 5 -15 5 -3 10 1 10 9 0 8
-12 21 -27 29 -64 33 -80 43 -103 65 -14 12 -35 25 -47 28 -13 4 -23 10 -23
15 0 5 -5 9 -10 9 -19 0 -69 43 -63 54 4 5 8 22 9 35 2 14 17 37 34 51 27 22
29 26 11 26 -11 0 -17 -4 -15 -8 3 -4 -6 -13 -19 -19 -17 -8 -24 -19 -25 -40
-1 -41 -13 -58 -23 -31 -7 18 -14 21 -38 16 -27 -6 -31 -3 -37 22 -6 25 -2
440 12 1096 3 139 1 248 -4 252 -5 3 -9 -51 -9 -122 0 -166 -8 -269 -22 -286
-9 -10 -9 -16 -1 -21 6 -4 8 -14 5 -24 -3 -9 -6 -211 -6 -448 l-2 -432 -26 17
c-14 9 -28 19 -31 22 -3 3 -16 11 -30 18 -54 28 -61 39 -70 104 -9 68 -40 382
-45 460 -2 26 -6 52 -10 59 -4 6 -1 15 6 20 9 6 10 9 2 9 -6 0 -12 12 -12 28
0 15 -2 43 -5 62 -11 65 -40 385 -41 437 0 28 -4 49 -8 46 -5 -3 -7 20 -5 51
1 31 0 56 -3 56 -5 0 -13 69 -45 415 -3 33 -9 88 -13 123 -5 42 -4 62 3 62 7
0 7 3 0 8 -7 4 -20 102 -33 247 -12 132 -24 266 -27 297 -3 32 -9 70 -13 85
-4 15 -7 36 -5 46 1 11 0 16 -4 13 -8 -9 -82 221 -84 261 -1 18 -5 28 -9 22
-3 -6 -10 6 -13 28 -4 21 -16 62 -27 91 -10 30 -17 57 -14 62 3 5 1 11 -4 15
-6 3 -8 12 -4 20 3 8 0 15 -6 15 -6 0 -11 14 -11 30 0 17 -4 30 -10 30 -6 0
-10 58 -10 155 0 101 -4 155 -10 155 -7 0 -10 -49 -9 -144z"/>
<path d="M2060 7610 c0 -5 5 -10 11 -10 5 0 7 5 4 10 -3 6 -8 10 -11 10 -2 0
-4 -4 -4 -10z"/>
<path d="M2675 7540 c3 -5 8 -10 11 -10 2 0 4 5 4 10 0 6 -5 10 -11 10 -5 0
-7 -4 -4 -10z"/>
<path d="M2010 7518 c0 -4 7 -8 15 -8 8 0 15 4 15 8 0 5 -7 9 -15 9 -8 0 -15
-4 -15 -9z"/>
<path d="M3192 7360 c0 -19 2 -27 5 -17 2 9 2 25 0 35 -3 9 -5 1 -5 -18z"/>
<path d="M3050 7230 c0 -5 5 -10 11 -10 5 0 7 5 4 10 -3 6 -8 10 -11 10 -2 0
-4 -4 -4 -10z"/>
<path d="M2725 7190 c3 -5 8 -10 11 -10 2 0 4 5 4 10 0 6 -5 10 -11 10 -5 0
-7 -4 -4 -10z"/>
<path d="M3235 7190 c-3 -5 3 -10 14 -10 12 0 21 5 21 10 0 6 -6 10 -14 10 -8
0 -18 -4 -21 -10z"/>
<path d="M2559 7120 c-7 -97 -8 -487 -9 -3125 0 -2914 0 -3023 10 -3000 4 11
9 972 10 2135 1 1163 2 2387 4 2720 2 667 -6 1387 -15 1270z"/>
<path d="M2175 7170 c-3 -5 -1 -10 4 -10 6 0 11 5 11 10 0 6 -2 10 -4 10 -3 0
-8 -4 -11 -10z"/>
<path d="M3248 6099 c-2 -577 1 -1054 5 -1058 5 -5 5 -11 0 -14 -11 -7 -4 -87
8 -87 5 0 10 109 10 248 1 136 2 276 2 312 5 351 -5 1650 -13 1650 -6 0 -11
-365 -12 -1051z"/>
<path d="M2185 7090 c-3 -5 -1 -10 4 -10 6 0 11 5 11 10 0 6 -2 10 -4 10 -3 0
-8 -4 -11 -10z"/>
<path d="M1980 7058 c0 -17 -6 -28 -17 -31 -14 -4 -13 -5 3 -6 26 -1 38 24 24
47 -8 14 -9 12 -10 -10z"/>
<path d="M1886 7032 c-2 -4 6 -9 20 -10 13 -1 24 3 24 8 0 12 -37 14 -44 2z"/>
<path d="M2504 7016 c1 -8 5 -18 8 -22 4 -3 5 1 4 10 -1 8 -5 18 -8 22 -4 3
-5 -1 -4 -10z"/>
<path d="M2605 7010 c3 -5 11 -10 16 -10 6 0 7 5 4 10 -3 6 -11 10 -16 10 -6
0 -7 -4 -4 -10z"/>
<path d="M3121 7004 c0 -11 3 -14 6 -6 3 7 2 16 -1 19 -3 4 -6 -2 -5 -13z"/>
<path d="M2170 6970 c0 -5 5 -10 10 -10 6 0 10 5 10 10 0 6 -4 10 -10 10 -5 0
-10 -4 -10 -10z"/>
<path d="M650 6956 c0 -10 9 -16 21 -16 24 0 21 23 -4 28 -10 2 -17 -3 -17
-12z"/>
<path d="M1268 6963 c-421 -2 -568 -6 -568 -15 0 -8 99 -10 393 -5 215 4 482
7 592 7 133 0 195 4 185 10 -8 5 -19 9 -25 7 -5 -1 -265 -3 -577 -4z"/>
<path d="M2151 6954 c0 -11 3 -14 6 -6 3 7 2 16 -1 19 -3 4 -6 -2 -5 -13z"/>
<path d="M2895 6910 c3 -5 8 -10 11 -10 2 0 4 5 4 10 0 6 -5 10 -11 10 -5 0
-7 -4 -4 -10z"/>
<path d="M1980 6810 c0 -5 5 -10 10 -10 6 0 10 5 10 10 0 6 -4 10 -10 10 -5 0
-10 -4 -10 -10z"/>
<path d="M2701 6714 c0 -11 3 -14 6 -6 3 7 2 16 -1 19 -3 4 -6 -2 -5 -13z"/>
<path d="M2045 6690 c3 -5 8 -10 11 -10 2 0 4 5 4 10 0 6 -5 10 -11 10 -5 0
-7 -4 -4 -10z"/>
<path d="M2060 6550 c-13 -8 -12 -10 3 -10 9 0 17 5 17 10 0 12 -1 12 -20 0z"/>
<path d="M1756 6312 c-2 -4 -1 -14 3 -21 6 -10 10 -9 14 3 6 16 -8 32 -17 18z"/>
<path d="M2125 6300 c3 -5 8 -10 11 -10 2 0 4 5 4 10 0 6 -5 10 -11 10 -5 0
-7 -4 -4 -10z"/>
<path d="M2170 6299 c0 -5 5 -7 10 -4 6 3 10 8 10 11 0 2 -4 4 -10 4 -5 0 -10
-5 -10 -11z"/>
<path d="M3102 6270 c0 -14 2 -19 5 -12 2 6 2 18 0 25 -3 6 -5 1 -5 -13z"/>
<path d="M2986 6217 c3 -10 9 -15 12 -12 3 3 0 11 -7 18 -10 9 -11 8 -5 -6z"/>
<path d="M2000 6150 c0 -5 5 -10 11 -10 5 0 7 5 4 10 -3 6 -8 10 -11 10 -2 0
-4 -4 -4 -10z"/>
<path d="M3390 6095 c0 -8 4 -15 9 -15 5 0 11 7 15 15 3 9 0 15 -9 15 -8 0
-15 -7 -15 -15z"/>
<path d="M3347 6058 c-26 -27 -14 -35 17 -10 14 10 22 22 19 26 -9 9 -16 6
-36 -16z"/>
<path d="M3630 5136 l0 -826 26 0 c31 0 62 -16 91 -46 14 -15 38 -25 72 -30
l51 -7 0 -186 c0 -102 3 -487 6 -856 3 -368 5 -849 5 -1067 -1 -229 3 -398 8
-398 13 0 14 2470 2 2503 -8 21 -19 27 -56 33 -33 4 -56 16 -80 40 -19 19 -35
28 -35 21 -1 -8 -5 -6 -13 4 -7 9 -18 14 -26 11 -29 -10 -27 -78 -31 1280 -1
195 -5 340 -11 343 -5 4 -9 -315 -9 -819z"/>
<path d="M3055 5940 c3 -5 8 -10 11 -10 2 0 4 5 4 10 0 6 -5 10 -11 10 -5 0
-7 -4 -4 -10z"/>
<path d="M3382 5770 c-13 -10 -28 -18 -35 -16 -7 1 -9 1 -5 -1 4 -2 4 -12 0
-21 -4 -11 10 -4 36 16 23 19 42 36 42 38 0 9 -16 2 -38 -16z"/>
<path d="M3314 5695 c4 -21 3 -35 -3 -35 -6 0 -6 -12 0 -32 5 -18 10 -75 10
-125 0 -54 4 -93 10 -93 6 0 7 49 3 138 -4 75 -7 147 -7 160 1 12 -4 22 -9 22
-6 0 -8 -14 -4 -35z"/>
<path d="M2282 5620 c0 -19 2 -27 5 -17 2 9 2 25 0 35 -3 9 -5 1 -5 -18z"/>
<path d="M3200 5639 c0 -5 5 -7 10 -4 6 3 10 8 10 11 0 2 -4 4 -10 4 -5 0 -10
-5 -10 -11z"/>
<path d="M1765 5590 c-3 -5 -1 -10 4 -10 6 0 11 5 11 10 0 6 -2 10 -4 10 -3 0
-8 -4 -11 -10z"/>
<path d="M3202 5520 c0 -14 2 -19 5 -12 2 6 2 18 0 25 -3 6 -5 1 -5 -13z"/>
<path d="M3200 5470 c0 -5 5 -10 11 -10 5 0 7 5 4 10 -3 6 -8 10 -11 10 -2 0
-4 -4 -4 -10z"/>
<path d="M2261 5404 c0 -11 3 -14 6 -6 3 7 2 16 -1 19 -3 4 -6 -2 -5 -13z"/>
<path d="M3308 5275 c-2 -69 0 -125 5 -125 4 0 8 15 8 33 7 183 6 217 -1 217
-5 0 -10 -56 -12 -125z"/>
<path d="M1805 5170 c-3 -5 -1 -10 4 -10 6 0 11 5 11 10 0 6 -2 10 -4 10 -3 0
-8 -4 -11 -10z"/>
<path d="M1810 5085 c0 -8 5 -15 10 -15 6 0 10 7 10 15 0 8 -4 15 -10 15 -5 0
-10 -7 -10 -15z"/>
<path d="M2226 5015 c-9 -26 -7 -32 5 -12 6 10 9 21 6 23 -2 3 -7 -2 -11 -11z"/>
<path d="M1405 4980 c3 -5 10 -10 16 -10 5 0 9 5 9 10 0 6 -7 10 -16 10 -8 0
-12 -4 -9 -10z"/>
<path d="M3312 4900 c0 -14 2 -19 5 -12 2 6 2 18 0 25 -3 6 -5 1 -5 -13z"/>
<path d="M3502 4830 c-31 -29 -27 -34 8 -13 17 9 30 21 30 25 0 14 -15 9 -38
-12z"/>
<path d="M1366 4736 c4 -41 3 -764 0 -797 -3 -29 -15 -44 -58 -72 -16 -10 -28
-22 -28 -27 0 -6 18 1 40 15 22 14 46 25 55 25 15 0 21 100 19 330 -1 47 -2
191 -3 321 -1 186 -4 236 -14 236 -8 0 -12 -11 -11 -31z"/>
<path d="M3250 4749 c0 -11 5 -17 10 -14 6 3 10 13 10 21 0 8 -4 14 -10 14 -5
0 -10 -9 -10 -21z"/>
<path d="M3368 4763 c-16 -2 -28 -11 -28 -19 0 -15 12 -19 24 -6 4 4 24 12 44
18 29 9 31 12 12 11 -14 0 -37 -2 -52 -4z"/>
<path d="M1412 4720 c0 -19 2 -27 5 -17 2 9 2 25 0 35 -3 9 -5 1 -5 -18z"/>
<path d="M3410 4730 c-24 -18 -24 -19 -3 -14 12 4 28 12 34 20 17 20 -2 17
-31 -6z"/>
<path d="M3283 4692 c-1 -22 0 -24 9 -8 6 10 6 22 2 26 -5 5 -10 -3 -11 -18z"/>
<path d="M3316 4664 c-10 -25 -1 -27 19 -4 15 17 16 20 3 20 -9 0 -19 -7 -22
-16z"/>
<path d="M3280 4485 c-3 -334 -4 -355 -18 -364 -11 -7 -11 -9 1 -14 9 -3 18 0
20 8 10 23 15 509 7 530 -5 12 -9 -52 -10 -160z"/>
<path d="M1840 4429 c0 -6 7 -17 15 -25 13 -14 15 -13 15 4 0 11 -7 22 -15 26
-8 3 -15 1 -15 -5z"/>
<path d="M3031 4364 c0 -11 3 -14 6 -6 3 7 2 16 -1 19 -3 4 -6 -2 -5 -13z"/>
<path d="M3720 4370 c0 -5 5 -10 10 -10 6 0 10 5 10 10 0 6 -4 10 -10 10 -5 0
-10 -4 -10 -10z"/>
<path d="M3311 4344 c0 -11 3 -14 6 -6 3 7 2 16 -1 19 -3 4 -6 -2 -5 -13z"/>
<path d="M3578 4313 c7 -3 16 -2 19 1 4 3 -2 6 -13 5 -11 0 -14 -3 -6 -6z"/>
<path d="M3513 4271 c-7 -11 -37 -36 -68 -56 -51 -35 -74 -62 -40 -49 8 4 15
10 15 15 0 5 5 9 11 9 13 0 109 80 109 92 0 14 -15 9 -27 -11z"/>
<path d="M2160 4259 c-7 -11 -10 -23 -7 -25 2 -2 9 7 15 21 14 30 7 33 -8 4z"/>
<path d="M3312 4260 c0 -14 2 -19 5 -12 2 6 2 18 0 25 -3 6 -5 1 -5 -13z"/>
<path d="M3311 4184 c0 -11 3 -14 6 -6 3 7 2 16 -1 19 -3 4 -6 -2 -5 -13z"/>
<path d="M1847 4183 c-13 -12 -7 -33 8 -33 8 0 15 9 15 20 0 20 -11 26 -23 13z"/>
<path d="M3140 4156 c0 -2 7 -9 15 -16 9 -7 15 -8 15 -2 0 5 -7 12 -15 16 -8
3 -15 4 -15 2z"/>
<path d="M3510 4140 c0 -5 4 -10 9 -10 6 0 13 5 16 10 3 6 -1 10 -9 10 -9 0
-16 -4 -16 -10z"/>
<path d="M3002 4100 c0 -19 2 -27 5 -17 2 9 2 25 0 35 -3 9 -5 1 -5 -18z"/>
<path d="M3514 4109 c-3 -6 -1 -16 5 -22 8 -8 11 -5 11 11 0 24 -5 28 -16 11z"/>
<path d="M1761 4084 c0 -11 3 -14 6 -6 3 7 2 16 -1 19 -3 4 -6 -2 -5 -13z"/>
<path d="M3330 4090 c0 -5 5 -10 11 -10 5 0 7 5 4 10 -3 6 -8 10 -11 10 -2 0
-4 -4 -4 -10z"/>
<path d="M2115 4080 c3 -5 8 -10 11 -10 2 0 4 5 4 10 0 6 -5 10 -11 10 -5 0
-7 -4 -4 -10z"/>
<path d="M2122 4030 c0 -14 2 -19 5 -12 2 6 2 18 0 25 -3 6 -5 1 -5 -13z"/>
<path d="M1352 4010 c0 -14 2 -19 5 -12 2 6 2 18 0 25 -3 6 -5 1 -5 -13z"/>
<path d="M3510 4010 c0 -5 5 -10 10 -10 6 0 10 5 10 10 0 6 -4 10 -10 10 -5 0
-10 -4 -10 -10z"/>
<path d="M2121 3984 c0 -11 3 -14 6 -6 3 7 2 16 -1 19 -3 4 -6 -2 -5 -13z"/>
<path d="M3400 3991 c0 -10 19 -25 25 -20 1 2 -3 10 -11 17 -8 7 -14 8 -14 3z"/>
<path d="M1310 3980 c0 -5 5 -10 10 -10 6 0 10 5 10 10 0 6 -4 10 -10 10 -5 0
-10 -4 -10 -10z"/>
<path d="M1505 3870 c-23 -26 -8 -26 25 0 18 14 21 20 9 20 -9 0 -24 -9 -34
-20z"/>
<path d="M1377 3863 c-8 -15 -5 -713 3 -718 5 -3 9 159 10 360 0 201 -1 365
-4 365 -3 0 -7 -3 -9 -7z"/>
<path d="M3594 3828 c-4 -6 -3 -8 4 -4 5 3 12 1 14 -6 3 -8 6 -9 11 -1 4 6 0
13 -8 17 -8 3 -17 0 -21 -6z"/>
<path d="M2131 3764 c0 -11 3 -14 6 -6 3 7 2 16 -1 19 -3 4 -6 -2 -5 -13z"/>
<path d="M2141 3664 c0 -11 3 -14 6 -6 3 7 2 16 -1 19 -3 4 -6 -2 -5 -13z"/>
<path d="M2960 3640 c0 -5 5 -10 11 -10 5 0 7 5 4 10 -3 6 -8 10 -11 10 -2 0
-4 -4 -4 -10z"/>
<path d="M2141 3624 c0 -11 3 -14 6 -6 3 7 2 16 -1 19 -3 4 -6 -2 -5 -13z"/>
<path d="M2147 3473 c1 -65 4 -176 7 -248 3 -71 7 -519 8 -995 2 -476 6 -946
9 -1045 3 -99 5 351 3 1000 -1 649 -4 1194 -7 1210 -3 17 -7 67 -8 113 -1 45
-4 82 -8 82 -3 0 -5 -53 -4 -117z"/>
<path d="M2957 3543 c-10 -9 -9 -23 1 -23 5 0 9 7 9 15 0 17 -1 18 -10 8z"/>
<path d="M4270 3532 c0 -5 7 -9 15 -9 8 0 15 4 15 9 0 4 -7 8 -15 8 -8 0 -15
-4 -15 -8z"/>
<path d="M2950 3494 c0 -8 5 -12 10 -9 6 4 8 11 5 16 -9 14 -15 11 -15 -7z"/>
<path d="M2949 3443 c-1 -16 -3 -41 -6 -58 -10 -65 -14 -2120 -4 -2145 7 -17
10 145 10 510 0 294 3 802 6 1128 2 325 2 592 0 592 -3 0 -5 -12 -6 -27z"/>
<path d="M4400 3455 c0 -5 5 -17 10 -25 5 -8 10 -10 10 -5 0 6 -5 17 -10 25
-5 8 -10 11 -10 5z"/>
<path d="M4113 3398 c-11 -19 -14 -50 -4 -44 8 5 22 56 15 56 -1 0 -6 -6 -11
-12z"/>
<path d="M4410 3393 c0 -10 5 -25 10 -33 7 -11 10 -7 10 18 0 17 -4 32 -10 32
-5 0 -10 -8 -10 -17z"/>
<path d="M4436 3334 c-3 -9 -6 -340 -6 -736 0 -571 3 -719 13 -715 6 2 11 10
9 17 -2 7 -3 336 -2 731 0 396 -1 719 -4 719 -2 0 -7 -7 -10 -16z"/>
<path d="M4099 3338 c-17 -72 -33 -1517 -17 -1500 4 4 10 311 13 682 4 371 10
706 14 743 4 37 4 70 -1 73 -4 3 -8 4 -9 2z"/>
<path d="M4762 3300 c0 -19 2 -27 5 -17 2 9 2 25 0 35 -3 9 -5 1 -5 -18z"/>
<path d="M1381 3114 c0 -11 3 -14 6 -6 3 7 2 16 -1 19 -3 4 -6 -2 -5 -13z"/>
<path d="M1382 3070 c0 -14 2 -19 5 -12 2 6 2 18 0 25 -3 6 -5 1 -5 -13z"/>
<path d="M1381 2994 c0 -11 3 -14 6 -6 3 7 2 16 -1 19 -3 4 -6 -2 -5 -13z"/>
<path d="M401 2944 c0 -11 3 -14 6 -6 3 7 2 16 -1 19 -3 4 -6 -2 -5 -13z"/>
<path d="M780 2780 c-11 -7 -7 -10 16 -10 17 0 52 -6 77 -14 26 -8 45 -10 42
-6 -5 8 -47 23 -95 34 -14 3 -32 1 -40 -4z"/>
<path d="M759 2634 c0 -71 0 -148 1 -172 l2 -43 -45 6 c-28 4 -47 3 -51 -4
-12 -18 -17 -171 -6 -171 9 0 16 117 10 159 -2 18 44 7 81 -20 17 -12 30 -15
34 -9 3 5 2 10 -3 10 -5 0 -9 82 -10 182 -1 100 -4 184 -7 186 -3 3 -5 -53 -6
-124z"/>
<path d="M930 2740 c0 -5 5 -10 10 -10 6 0 10 5 10 10 0 6 -4 10 -10 10 -5 0
-10 -4 -10 -10z"/>
<path d="M990 2708 c0 -18 18 -34 28 -24 3 4 -2 14 -11 23 -16 16 -17 16 -17
1z"/>
<path d="M1170 2702 c0 -7 -7 -12 -15 -12 -8 0 -15 -4 -15 -9 0 -13 -31 -23
-44 -13 -19 13 -69 15 -61 2 4 -6 13 -9 21 -6 7 3 16 1 19 -4 12 -19 61 -10
85 15 13 14 20 28 17 32 -4 3 -7 1 -7 -5z"/>
<path d="M825 2350 c4 -6 11 -8 16 -5 14 9 11 15 -7 15 -8 0 -12 -5 -9 -10z"/>
<path d="M874 2326 c11 -9 24 -16 30 -16 12 0 7 5 -24 19 -24 11 -24 11 -6 -3z"/>
<path d="M938 2276 c13 -7 37 -10 53 -8 39 6 35 8 -26 15 -43 4 -46 3 -27 -7z"/>
<path d="M1020 2197 c0 -37 -1 -70 -2 -74 -2 -5 11 -9 27 -11 22 -2 26 0 15 7
-8 5 -17 8 -20 6 -3 -2 -7 26 -8 63 -3 87 -12 94 -12 9z"/>
<path d="M656 2222 c-2 -4 -1 -14 5 -22 7 -12 9 -10 9 8 0 23 -5 28 -14 14z"/>
<path d="M656 2171 c-4 -7 -5 -15 -2 -18 9 -9 19 4 14 18 -4 11 -6 11 -12 0z"/>
<path d="M655 2127 c-4 -10 -5 -21 -1 -24 10 -10 18 4 13 24 -4 17 -4 17 -12
0z"/>
<path d="M1085 2100 c3 -5 8 -10 11 -10 2 0 4 5 4 10 0 6 -5 10 -11 10 -5 0
-7 -4 -4 -10z"/>
<path d="M656 2068 c-3 -13 -1 -27 4 -32 7 -7 10 1 10 22 0 37 -5 41 -14 10z"/>
<path d="M1106 2083 c-8 -8 85 -54 99 -49 5 2 1 7 -10 12 -11 4 -22 10 -25 13
-10 12 -58 30 -64 24z"/>
<path d="M654 1977 c-8 -21 2 -35 16 -21 5 5 6 15 0 24 -8 12 -10 12 -16 -3z"/>
<path d="M4480 1909 c0 -5 5 -7 10 -4 6 3 10 8 10 11 0 2 -4 4 -10 4 -5 0 -10
-5 -10 -11z"/>
<path d="M4052 1785 c0 -16 2 -22 5 -12 2 9 2 23 0 30 -3 6 -5 -1 -5 -18z"/>
<path d="M3960 1665 c0 -15 4 -24 10 -20 6 3 10 12 10 20 0 8 -4 17 -10 20 -6
4 -10 -5 -10 -20z"/>
<path d="M2943 1175 c0 -22 2 -30 4 -17 2 12 2 30 0 40 -3 9 -5 -1 -4 -23z"/>
<path d="M2942 1110 c0 -14 2 -19 5 -12 2 6 2 18 0 25 -3 6 -5 1 -5 -13z"/>
<path d="M2551 954 c0 -11 3 -14 6 -6 3 7 2 16 -1 19 -3 4 -6 -2 -5 -13z"/>
<path d="M2171 944 c0 -11 3 -14 6 -6 3 7 2 16 -1 19 -3 4 -6 -2 -5 -13z"/>
</g>
</svg>
