<?xml version="1.0" standalone="no"?>
<!DOCTYPE svg PUBLIC "-//W3C//DTD SVG 20010904//EN"
 "http://www.w3.org/TR/2001/REC-SVG-20010904/DTD/svg10.dtd">
<svg version="1.0" xmlns="http://www.w3.org/2000/svg"
 width="512.000000pt" height="512.000000pt" viewBox="0 0 512.000000 512.000000"
 preserveAspectRatio="xMidYMid meet">
<metadata>
Created by potrace 1.16, written by Peter Selinger 2001-2019
</metadata>
<g transform="translate(0.000000,512.000000) scale(0.100000,-0.100000)"
fill="#000000" stroke="none">
<path d="M848 4406 c-32 -7 -66 -20 -76 -29 -10 -9 -23 -17 -30 -17 -18 0 -83
-82 -111 -140 l-26 -55 -3 -1570 -3 -1570 21 -66 c12 -36 33 -79 47 -95 13
-16 28 -33 31 -39 14 -21 69 -52 117 -68 45 -14 217 -16 1725 -15 971 0 1696
4 1725 9 98 18 173 78 221 175 l25 50 -1 1604 0 1604 -24 51 c-30 67 -85 121
-155 154 l-56 26 -1685 1 c-1254 1 -1700 -2 -1742 -10z m3452 -25 c74 -28 134
-82 167 -149 l28 -57 0 -1600 0 -1600 -21 -45 c-25 -53 -84 -114 -139 -143
l-40 -22 -1728 -3 c-1669 -2 -1730 -2 -1771 16 -62 28 -112 76 -143 140 l-28
57 0 1590 c0 1540 1 1592 19 1639 32 84 116 159 206 187 14 4 784 8 1712 8
1643 1 1689 0 1738 -18z"/>
<path d="M1690 2580 l0 -870 860 0 860 0 0 870 0 870 -860 0 -860 0 0 -870z
m1690 3 l0 -848 -835 -3 -835 -3 0 850 0 851 835 0 835 0 0 -847z"/>
<path d="M2045 3058 c-3 -7 -4 -233 -3 -503 l3 -490 499 -3 c275 -1 504 2 508
6 15 15 23 954 9 980 -11 21 -18 22 -145 22 -113 0 -135 -2 -140 -16 -3 -9 -6
-175 -6 -370 l0 -354 -212 0 -213 1 113 109 112 110 0 248 c0 180 -3 251 -12
260 -18 18 -507 17 -513 0z m505 -258 c0 -183 -3 -250 -12 -250 -12 0 -248
-229 -248 -241 0 -3 115 -7 255 -8 l256 -2 -3 375 -3 376 123 0 122 0 0 -485
0 -485 -490 0 -490 0 0 485 0 485 245 0 245 0 0 -250z"/>
</g>
</svg>
