<?xml version="1.0" standalone="no"?>
<!DOCTYPE svg PUBLIC "-//W3C//DTD SVG 20010904//EN"
 "http://www.w3.org/TR/2001/REC-SVG-20010904/DTD/svg10.dtd">
<svg version="1.0" xmlns="http://www.w3.org/2000/svg"
 width="512.000000pt" height="512.000000pt" viewBox="0 0 512.000000 512.000000"
 preserveAspectRatio="xMidYMid meet">
<metadata>
Created by potrace 1.16, written by Peter Selinger 2001-2019
</metadata>
<g transform="translate(0.000000,512.000000) scale(0.100000,-0.100000)"
fill="#000000" stroke="none">
<path d="M1286 4832 c-3 -5 12 -17 32 -26 53 -26 152 -98 222 -163 33 -31 63
-53 66 -51 7 7 -125 128 -177 162 -24 16 -63 42 -87 57 -47 32 -49 33 -56 21z"/>
<path d="M3671 4805 c-36 -19 -76 -45 -90 -58 -14 -13 -63 -52 -108 -86 -86
-64 -272 -243 -335 -321 -41 -52 -83 -131 -92 -175 -3 -16 9 3 28 43 31 63 57
94 208 246 200 201 338 317 423 357 33 15 53 28 45 28 -8 0 -44 -15 -79 -34z"/>
<path d="M3765 4808 c-67 -41 -195 -140 -220 -168 -26 -30 -4 -17 63 37 60 49
190 138 212 145 8 2 10 7 4 10 -5 4 -32 -7 -59 -24z"/>
<path d="M3830 4808 c0 -3 13 -19 30 -36 29 -31 29 -32 29 -144 0 -62 -5 -169
-11 -238 -6 -69 -11 -133 -12 -143 0 -10 -6 -21 -12 -25 -6 -4 -32 -83 -58
-177 -49 -176 -66 -225 -77 -225 -4 0 -6 -8 -5 -17 0 -10 -5 -18 -13 -18 -8 0
-16 -7 -18 -15 -4 -13 -3 -13 6 0 6 8 11 10 11 4 0 -6 -7 -18 -17 -25 -9 -8
-34 -38 -55 -67 -21 -29 -43 -50 -49 -47 -5 4 -9 -1 -9 -9 0 -28 17 -17 79 51
74 80 108 137 155 265 68 184 96 368 96 644 l0 160 -35 34 c-19 19 -35 31 -35
28z m-17 -778 c-3 -12 -8 -19 -11 -16 -5 6 5 36 12 36 2 0 2 -9 -1 -20z"/>
<path d="M1460 4783 c14 -10 40 -33 58 -50 18 -18 35 -32 38 -31 4 0 31 -21
61 -48 30 -27 68 -62 86 -77 165 -147 276 -273 322 -363 14 -27 25 -42 25 -34
0 24 -46 108 -91 166 -64 84 -255 262 -380 356 -63 47 -121 88 -129 92 -8 4
-4 -1 10 -11z"/>
<path d="M1226 4760 c-25 -30 -26 -37 -26 -147 0 -64 2 -114 5 -111 3 3 6 52
6 108 0 104 5 125 35 155 9 9 14 18 11 21 -2 3 -16 -9 -31 -26z"/>
<path d="M3862 4685 c0 -16 2 -22 5 -12 2 9 2 23 0 30 -3 6 -5 -1 -5 -18z"/>
<path d="M1231 4654 c0 -11 3 -14 6 -6 3 7 2 16 -1 19 -3 4 -6 -2 -5 -13z"/>
<path d="M1360 4586 c0 -3 43 -21 95 -41 l95 -37 29 24 c33 26 38 38 16 38 -8
0 -20 -9 -27 -20 -17 -27 -34 -25 -123 10 -77 31 -85 33 -85 26z"/>
<path d="M3700 4575 c-11 -13 -10 -14 4 -9 9 3 16 10 16 15 0 13 -6 11 -20 -6z"/>
<path d="M1232 4525 c0 -27 3 -72 8 -100 7 -48 7 -48 8 -10 0 22 -4 67 -8 100
l-7 60 -1 -50z"/>
<path d="M1630 4560 c0 -6 7 -10 15 -10 8 0 15 2 15 4 0 2 -7 6 -15 10 -8 3
-15 1 -15 -4z"/>
<path d="M2210 4545 c-77 -17 -177 -52 -205 -71 -27 -19 -15 -17 38 6 112 50
288 74 403 55 30 -5 35 -4 22 4 -28 19 -186 22 -258 6z"/>
<path d="M2778 4543 c18 -2 45 -2 60 0 15 2 0 4 -33 4 -33 0 -45 -2 -27 -4z"/>
<path d="M3599 4530 c-20 -12 -81 -16 -97 -6 -7 4 -12 3 -12 -2 0 -12 25 -22
53 -22 25 1 110 38 87 39 -8 0 -22 -4 -31 -9z"/>
<path d="M2945 4520 c11 -5 29 -9 40 -9 17 -1 17 1 5 9 -8 5 -26 9 -40 9 -23
0 -23 -1 -5 -9z"/>
<path d="M2716 4505 c-27 -8 -53 -18 -58 -23 -5 -5 15 -3 44 5 29 8 83 15 119
16 37 1 65 5 62 10 -7 11 -113 7 -167 -8z"/>
<path d="M2288 4503 c7 -3 16 -2 19 1 4 3 -2 6 -13 5 -11 0 -14 -3 -6 -6z"/>
<path d="M2348 4503 c17 -2 47 -2 65 0 17 2 3 4 -33 4 -36 0 -50 -2 -32 -4z"/>
<path d="M3020 4500 c8 -5 22 -10 30 -10 13 0 13 1 0 10 -8 5 -22 10 -30 10
-13 0 -13 -1 0 -10z"/>
<path d="M1580 4495 c0 -12 23 -50 42 -72 18 -19 27 -21 70 -16 37 4 53 2 60
-8 7 -11 11 -11 15 -2 8 22 -1 26 -64 27 -62 2 -103 22 -103 52 0 7 -4 16 -10
19 -5 3 -10 3 -10 0z"/>
<path d="M1212 4454 c-2 -39 21 -236 34 -291 25 -107 70 -256 90 -295 13 -26
24 -56 24 -66 0 -17 68 -106 143 -186 21 -23 27 -25 27 -11 0 9 -12 29 -27 44
-94 91 -128 159 -174 344 -8 34 -15 44 -21 35 -5 -8 -6 -4 -3 13 4 15 -1 42
-11 65 -16 37 -24 71 -26 104 0 8 -4 20 -9 25 -8 11 -36 156 -42 220 l-4 40
-1 -41z"/>
<path d="M3490 4481 c0 -6 4 -13 10 -16 6 -3 7 1 4 9 -7 18 -14 21 -14 7z"/>
<path d="M3098 4473 c7 -3 16 -2 19 1 4 3 -2 6 -13 5 -11 0 -14 -3 -6 -6z"/>
<path d="M3732 4445 c0 -16 2 -22 5 -12 2 9 2 23 0 30 -3 6 -5 -1 -5 -18z"/>
<path d="M3476 4427 c-14 -14 -27 -18 -52 -14 -41 7 -44 0 -8 -14 33 -12 61
-4 75 23 14 27 8 29 -15 5z"/>
<path d="M2760 4420 c-13 -8 -12 -10 3 -10 9 0 17 5 17 10 0 12 -1 12 -20 0z"/>
<path d="M2255 4410 c-18 -8 -17 -9 8 -9 16 -1 26 3 22 9 -3 6 -7 10 -8 9 -1
0 -11 -4 -22 -9z"/>
<path d="M3345 4411 c-3 -5 -1 -12 5 -16 12 -7 30 2 30 16 0 12 -27 12 -35 0z"/>
<path d="M3711 4355 c-20 -93 -82 -278 -99 -297 -8 -10 -21 -18 -28 -18 -7 0
-15 -4 -18 -9 -8 -12 25 -3 47 14 30 22 121 300 115 350 -2 11 -9 -7 -17 -40z"/>
<path d="M1361 4375 c1 -21 27 -98 28 -80 0 6 -6 30 -13 55 -8 25 -15 36 -15
25z"/>
<path d="M1660 4356 c0 -28 16 -43 50 -48 23 -3 25 -8 28 -56 3 -49 4 -52 26
-46 20 5 24 0 36 -40 14 -51 26 -55 93 -32 l37 14 0 -44 c0 -24 0 -47 0 -51 0
-4 -17 -7 -37 -7 -34 -1 -38 2 -45 29 -6 26 -6 25 -5 -10 1 -22 5 -39 10 -37
4 1 27 2 52 2 l46 0 -3 90 c-2 49 -7 90 -11 90 -5 0 -5 -4 -2 -10 3 -5 2 -10
-3 -10 -5 0 -14 -11 -20 -25 -9 -20 -19 -25 -46 -25 -32 0 -47 15 -51 51 0 10
-33 39 -44 39 -6 0 -11 13 -11 29 0 17 -5 33 -10 36 -6 4 -8 10 -5 15 3 4 -9
13 -26 19 -24 8 -30 15 -26 31 4 15 0 20 -14 20 -13 0 -19 -7 -19 -24z"/>
<path d="M1740 4355 c0 -9 5 -13 10 -10 6 4 21 0 33 -7 37 -24 57 -29 57 -13
0 17 -22 30 -67 40 -27 5 -33 3 -33 -10z"/>
<path d="M2753 4363 c9 -2 23 -2 30 0 6 3 -1 5 -18 5 -16 0 -22 -2 -12 -5z"/>
<path d="M3388 4338 c-15 -17 -30 -48 -33 -69 -7 -39 -7 -39 -53 -39 -58 0
-44 -17 18 -22 l45 -3 3 42 c2 33 9 47 31 63 30 21 48 60 28 60 -7 0 -24 -14
-39 -32z"/>
<path d="M3282 4335 c-15 -32 -15 -45 -2 -45 6 0 10 8 10 19 0 12 13 24 38 34
l37 15 -36 1 c-29 1 -38 -4 -47 -24z"/>
<path d="M3811 4344 c0 -11 -10 -55 -22 -99 -52 -202 -120 -347 -192 -418 -29
-28 -43 -45 -31 -39 56 30 102 98 164 242 43 100 94 289 87 317 -4 15 -5 14
-6 -3z"/>
<path d="M2383 4323 c9 -2 23 -2 30 0 6 3 -1 5 -18 5 -16 0 -22 -2 -12 -5z"/>
<path d="M2743 4323 c9 -2 23 -2 30 0 6 3 -1 5 -18 5 -16 0 -22 -2 -12 -5z"/>
<path d="M2378 4293 c6 -2 18 -2 25 0 6 3 1 5 -13 5 -14 0 -19 -2 -12 -5z"/>
<path d="M2285 4283 c-32 -7 -48 -13 -44 -17 2 -2 31 2 64 9 34 8 47 13 30 13
-16 0 -39 -2 -50 -5z"/>
<path d="M3214 4261 c-11 -49 -14 -53 -34 -48 -17 4 -20 0 -20 -34 0 -26 4
-39 14 -39 9 0 12 8 9 24 -4 18 0 26 16 31 14 4 24 18 28 37 6 30 7 30 54 26
27 -3 49 -2 49 2 0 4 -6 7 -12 8 -7 1 -32 5 -56 10 -41 9 -43 8 -48 -17z"/>
<path d="M1813 4273 c20 -5 22 -19 5 -27 -7 -3 3 -4 24 -1 31 5 36 3 32 -12
-2 -10 5 -29 17 -43 l20 -25 -6 35 c-3 19 -6 43 -6 53 0 9 -8 17 -17 17 -9 0
-33 2 -52 4 -19 2 -27 1 -17 -1z"/>
<path d="M1311 4244 c-1 -35 127 -304 145 -304 2 0 -14 35 -36 78 -39 76 -81
168 -86 187 -1 6 -7 21 -12 35 -10 23 -11 23 -11 4z"/>
<path d="M2184 4245 c-17 -13 -16 -14 14 -4 33 11 41 19 19 19 -7 0 -22 -7
-33 -15z"/>
<path d="M1410 4238 c0 -13 65 -178 76 -196 24 -36 29 -18 6 20 -10 18 -32 66
-47 106 -15 39 -29 72 -31 72 -2 0 -4 -1 -4 -2z"/>
<path d="M2375 4200 c17 -7 16 -9 -15 -17 -19 -6 -40 -7 -45 -2 -6 4 -21 1
-35 -6 -23 -13 -22 -14 27 -10 41 3 113 27 113 38 0 1 -15 3 -33 4 -25 1 -28
0 -12 -7z"/>
<path d="M3385 4200 c-4 -6 5 -10 19 -10 14 0 26 5 26 10 0 6 -9 10 -19 10
-11 0 -23 -4 -26 -10z"/>
<path d="M1670 4184 c0 -8 5 -12 10 -9 6 3 10 10 10 16 0 5 -4 9 -10 9 -5 0
-10 -7 -10 -16z"/>
<path d="M2710 4179 c0 -4 14 -9 31 -13 42 -8 49 -8 49 3 0 5 -18 11 -40 13
-22 2 -40 1 -40 -3z"/>
<path d="M2800 4162 c0 -5 11 -12 25 -14 14 -3 25 -1 25 3 0 5 -4 9 -9 9 -5 0
-16 3 -25 6 -9 3 -16 2 -16 -4z"/>
<path d="M2860 4142 c0 -4 21 -16 48 -25 35 -13 43 -14 32 -4 -18 17 -80 39
-80 29z"/>
<path d="M3205 4141 c6 -5 33 -13 60 -16 40 -6 48 -5 38 5 -6 7 -33 15 -60 17
-31 3 -44 1 -38 -6z"/>
<path d="M2206 4131 c-4 -5 3 -7 14 -4 23 6 26 13 6 13 -8 0 -17 -4 -20 -9z"/>
<path d="M3148 4080 l-3 -50 67 0 c62 0 66 1 61 21 -5 18 -7 19 -15 5 -6 -11
-23 -16 -55 -16 l-46 0 5 45 c3 25 2 45 -2 45 -5 0 -10 -23 -12 -50z"/>
<path d="M2095 4079 c-73 -38 -130 -77 -195 -136 -50 -46 -5 -21 62 34 38 31
106 76 151 100 45 23 78 42 72 42 -5 0 -46 -18 -90 -40z"/>
<path d="M3030 4109 c0 -5 5 -7 10 -4 6 3 10 8 10 11 0 2 -4 4 -10 4 -5 0 -10
-5 -10 -11z"/>
<path d="M2960 4100 c0 -6 7 -10 15 -10 8 0 15 2 15 4 0 2 -7 6 -15 10 -8 3
-15 1 -15 -4z"/>
<path d="M3428 4093 c7 -3 16 -2 19 1 4 3 -2 6 -13 5 -11 0 -14 -3 -6 -6z"/>
<path d="M2330 4070 c-9 -6 -10 -10 -3 -10 6 0 15 5 18 10 8 12 4 12 -15 0z"/>
<path d="M2105 4040 c-3 -5 -1 -10 4 -10 6 0 11 5 11 10 0 6 -2 10 -4 10 -3 0
-8 -4 -11 -10z"/>
<path d="M1520 4020 c0 -5 4 -10 10 -10 5 0 14 -19 20 -42 6 -24 14 -50 17
-58 3 -8 5 -19 4 -25 -2 -6 2 -6 8 1 8 7 8 20 2 40 -5 16 -12 41 -15 56 -6 27
-46 60 -46 38z"/>
<path d="M2220 4015 c-7 -8 -8 -15 -2 -15 5 0 15 7 22 15 7 8 8 15 2 15 -5 0
-15 -7 -22 -15z"/>
<path d="M2045 3994 l-30 -26 33 22 c17 12 32 23 32 26 0 7 -4 5 -35 -22z"/>
<path d="M3526 4011 c-3 -5 -5 -33 -3 -62 l2 -54 -40 -7 -40 -6 44 1 c33 1 46
-3 50 -15 3 -10 6 21 6 67 0 78 -5 99 -19 76z"/>
<path d="M3067 3987 c89 -65 161 -147 211 -237 17 -30 36 -56 42 -58 23 -8
-56 122 -110 181 -60 65 -145 137 -163 137 -6 0 3 -10 20 -23z"/>
<path d="M2180 3990 c0 -5 -6 -10 -12 -10 -7 0 -36 -17 -63 -38 -28 -21 -57
-37 -65 -34 -13 3 -13 2 0 -7 13 -9 13 -11 -2 -11 -23 0 -96 -78 -171 -182
-58 -80 -100 -161 -132 -250 -75 -211 -95 -299 -93 -408 1 -61 2 -58 13 40 11
104 21 142 77 315 47 144 114 269 191 353 38 41 179 163 253 219 16 12 23 22
17 22 -7 1 -13 -3 -13 -9z"/>
<path d="M2095 3980 c-16 -7 -17 -9 -3 -9 9 -1 20 4 23 9 7 11 7 11 -20 0z"/>
<path d="M3208 3973 c7 -3 16 -2 19 1 4 3 -2 6 -13 5 -11 0 -14 -3 -6 -6z"/>
<path d="M2044 3954 c-18 -14 -18 -15 4 -4 12 6 22 13 22 15 0 8 -5 6 -26 -11z"/>
<path d="M3250 3960 c8 -5 22 -9 30 -9 10 0 8 3 -5 9 -27 12 -43 12 -25 0z"/>
<path d="M1921 3891 c-150 -153 -285 -442 -312 -671 -9 -76 -3 -387 8 -377 2
2 5 98 7 213 3 186 6 219 29 304 30 112 65 198 107 269 16 29 30 55 30 58 0
13 66 109 87 126 12 10 25 27 28 38 4 13 12 18 21 15 9 -3 12 -1 9 4 -3 6 1
13 9 16 9 3 13 11 9 17 -4 6 0 8 10 4 10 -4 16 -2 14 6 -1 7 5 11 13 9 8 -2
12 0 8 4 -4 4 -3 13 3 21 9 10 8 13 0 13 -7 0 -42 -31 -80 -69z"/>
<path d="M2250 3930 c-13 -8 -13 -10 2 -10 9 0 20 5 23 10 8 13 -5 13 -25 0z"/>
<path d="M1390 3915 c0 -5 5 -17 10 -25 5 -8 10 -10 10 -5 0 6 -5 17 -10 25
-5 8 -10 11 -10 5z"/>
<path d="M1470 3913 c0 -7 9 -23 20 -35 10 -13 26 -32 35 -43 14 -17 14 -16 0
11 -25 44 -55 81 -55 67z"/>
<path d="M2274 3904 c-18 -14 -18 -15 4 -4 12 6 22 13 22 15 0 8 -5 6 -26 -11z"/>
<path d="M2194 3880 c-21 -16 -44 -30 -49 -30 -6 0 -24 -16 -40 -35 -17 -19
-36 -35 -43 -35 -7 0 -15 -6 -18 -14 -3 -8 -13 -13 -22 -10 -9 3 -7 -1 5 -7
26 -14 41 -3 153 100 71 65 77 78 14 31z"/>
<path d="M2979 3864 c28 -26 48 -51 44 -57 -3 -6 -1 -7 6 -3 15 9 143 -122
134 -137 -3 -6 -1 -7 5 -3 7 4 12 3 12 -2 0 -5 23 -33 51 -63 29 -30 47 -45
41 -34 -6 11 -26 36 -46 55 -19 19 -36 39 -36 43 0 19 -90 118 -146 161 -34
26 -70 56 -79 66 -10 11 -22 20 -27 20 -5 0 14 -21 41 -46z"/>
<path d="M3012 3894 c10 -10 20 -15 24 -12 3 4 -5 12 -18 18 -22 12 -22 12 -6
-6z"/>
<path d="M1697 3876 c-18 -26 -72 -55 -122 -63 -23 -4 -32 -10 -28 -19 3 -9 9
-11 17 -5 6 5 26 12 44 16 35 7 86 45 103 76 14 27 4 24 -14 -5z"/>
<path d="M2410 3854 c-44 -46 -38 -52 8 -10 22 19 47 56 39 56 -1 0 -23 -21
-47 -46z"/>
<path d="M3121 3893 c0 -5 17 -21 36 -38 29 -24 34 -26 25 -9 -12 22 -63 61
-61 47z"/>
<path d="M3371 3870 c25 -33 84 -60 134 -60 51 0 51 17 0 18 -25 1 -53 6 -64
11 -10 6 -21 7 -25 4 -3 -3 -6 4 -6 17 0 13 -3 21 -6 17 -4 -3 -13 0 -21 8
-26 26 -34 16 -12 -15z"/>
<path d="M4625 3889 c-9 -14 -2 -20 14 -10 8 6 9 11 3 15 -6 3 -14 1 -17 -5z"/>
<path d="M2621 3884 c-1 -14 17 -69 35 -111 8 -17 14 -37 14 -45 0 -7 9 -24
19 -38 l19 -24 -2 34 c-2 19 -4 46 -6 60 l-2 25 -7 -24 c-6 -21 -11 -13 -38
55 -18 43 -32 74 -32 68z"/>
<path d="M2710 3883 c0 -5 7 -18 15 -29 13 -18 14 -18 8 4 -5 22 -23 41 -23
25z"/>
<path d="M2112 3860 c-12 -12 -22 -26 -22 -31 0 -6 -6 -9 -14 -6 -8 3 -21 -4
-30 -18 -15 -23 -15 -23 13 -9 28 14 86 72 79 80 -3 2 -14 -5 -26 -16z"/>
<path d="M3081 3834 c56 -59 108 -97 103 -76 -3 9 -22 29 -42 42 -43 29 -53
41 -45 54 3 5 1 6 -5 2 -6 -3 -13 -2 -17 4 -3 5 -11 10 -18 10 -6 0 5 -16 24
-36z"/>
<path d="M2039 3833 c-13 -16 -12 -17 4 -4 9 7 17 15 17 17 0 8 -8 3 -21 -13z"/>
<path d="M2174 3797 c-28 -23 -57 -50 -63 -60 -12 -18 -11 -18 18 -1 17 10 31
22 31 26 0 5 16 6 35 4 42 -5 56 9 18 19 l-27 6 30 24 c16 13 25 24 19 24 -5
0 -33 -19 -61 -42z"/>
<path d="M2330 3822 c-39 -26 -91 -75 -85 -80 2 -2 -6 -19 -19 -36 -43 -58
-37 -71 8 -21 25 28 45 53 46 58 0 4 19 28 41 52 45 49 46 52 9 27z"/>
<path d="M2601 3817 c-2 -34 -49 -122 -77 -147 l-29 -25 21 25 c20 23 41 70
31 70 -2 0 -21 -27 -41 -60 -20 -33 -45 -64 -54 -69 -9 -6 -12 -11 -6 -11 6 0
22 9 35 20 13 11 41 34 61 50 40 34 72 103 65 141 -3 16 -5 18 -6 6z"/>
<path d="M2745 3791 c4 -22 15 -59 26 -80 10 -22 19 -47 19 -55 0 -8 4 -17 9
-20 15 -10 10 66 -5 81 -8 8 -14 23 -14 33 0 10 -4 22 -10 25 -5 3 -10 15 -10
25 0 10 -5 22 -11 26 -8 5 -9 -6 -4 -35z"/>
<path d="M2894 3815 c3 -20 22 -38 35 -34 5 2 -1 14 -14 27 -17 16 -23 18 -21
7z"/>
<path d="M1416 3807 c3 -10 9 -15 12 -12 3 3 0 11 -7 18 -10 9 -11 8 -5 -6z"/>
<path d="M3200 3808 c0 -18 18 -34 28 -24 3 4 -2 14 -11 23 -16 16 -17 16 -17
1z"/>
<path d="M3003 3776 c15 -18 24 -35 22 -38 -2 -2 4 -4 14 -5 14 -1 11 7 -17
38 -43 48 -53 51 -19 5z"/>
<path d="M550 3790 c0 -5 7 -10 15 -10 8 0 15 5 15 10 0 6 -7 10 -15 10 -8 0
-15 -4 -15 -10z"/>
<path d="M630 3786 c0 -15 37 -32 48 -22 6 6 -27 35 -40 36 -5 0 -8 -6 -8 -14z"/>
<path d="M2392 3791 c2 -7 -7 -15 -20 -17 -16 -3 -21 0 -16 8 4 7 3 9 -2 5
-12 -11 -11 -50 1 -60 6 -5 4 -7 -5 -4 -8 2 -14 13 -12 23 2 14 -6 10 -28 -16
-36 -41 -40 -63 -5 -30 31 29 33 15 3 -17 -12 -13 -19 -25 -17 -28 3 -2 25 16
50 42 24 25 37 42 29 38 -8 -4 -1 4 15 18 25 21 28 28 17 39 -11 11 -13 11
-10 -1z"/>
<path d="M2443 3769 c-13 -15 -23 -31 -23 -37 0 -5 -9 -17 -21 -28 -19 -17
-44 -54 -36 -54 10 0 79 72 73 77 -3 4 3 17 15 29 12 12 20 27 18 32 -2 5 -14
-3 -26 -19z"/>
<path d="M2474 3722 c-68 -100 -74 -112 -50 -92 24 19 108 149 104 160 -2 5
-26 -26 -54 -68z"/>
<path d="M2555 3780 c-4 -12 -5 -24 -2 -27 3 -2 8 5 12 17 4 12 5 24 2 27 -3
2 -8 -5 -12 -17z"/>
<path d="M2811 3799 c-1 -3 4 -20 10 -38 11 -31 29 -44 25 -17 -2 14 -35 65
-35 55z"/>
<path d="M3515 3780 c-5 -8 10 -50 19 -50 9 0 48 41 44 45 -3 3 -11 -1 -18
-10 -18 -21 -33 -19 -25 5 6 20 -9 28 -20 10z"/>
<path d="M2920 3763 c0 -13 35 -49 63 -64 11 -7 17 -6 17 1 0 6 -11 16 -25 22
-19 9 -22 14 -13 21 9 6 8 7 -4 3 -10 -3 -22 2 -27 12 -6 9 -11 12 -11 5z"/>
<path d="M1540 3753 c0 -3 6 -11 14 -18 12 -12 16 -12 26 0 7 8 11 15 9 16
-18 4 -49 5 -49 2z"/>
<path d="M2161 3729 c-23 -30 -23 -31 -1 -19 11 6 24 18 27 26 10 28 -3 24
-26 -7z"/>
<path d="M1486 3721 c10 -10 21 -14 23 -8 4 10 -17 27 -33 27 -5 0 -1 -8 10
-19z"/>
<path d="M2015 3720 c-3 -5 -2 -10 4 -10 5 0 13 5 16 10 3 6 2 10 -4 10 -5 0
-13 -4 -16 -10z"/>
<path d="M2192 3707 c-12 -13 -22 -27 -22 -31 0 -4 11 5 25 20 14 15 25 29 25
30 0 8 -7 3 -28 -19z"/>
<path d="M3543 3685 c6 -19 14 -35 18 -35 9 0 -9 58 -21 65 -4 3 -3 -11 3 -30z"/>
<path d="M2871 3693 c-1 -12 4 -25 9 -28 12 -7 12 2 0 30 -8 19 -9 19 -9 -2z"/>
<path d="M1532 3680 c8 -13 15 -16 19 -8 10 15 2 28 -17 28 -12 0 -12 -4 -2
-20z"/>
<path d="M2606 3682 c-4 -13 -5 -26 -2 -29 10 -11 18 4 14 29 l-4 23 -8 -23z"/>
<path d="M3591 3686 c-9 -11 -9 -16 1 -22 7 -4 10 -4 6 1 -4 4 -3 14 3 22 6 7
9 13 6 13 -2 0 -10 -6 -16 -14z"/>
<path d="M730 3675 c0 -8 5 -15 10 -15 6 0 10 7 10 15 0 8 -4 15 -10 15 -5 0
-10 -7 -10 -15z"/>
<path d="M1950 3685 c0 -8 29 -12 39 -5 9 5 4 8 -13 8 -14 0 -26 -2 -26 -3z"/>
<path d="M2910 3665 c0 -8 4 -15 10 -15 5 0 7 7 4 15 -4 8 -8 15 -10 15 -2 0
-4 -7 -4 -15z"/>
<path d="M3060 3659 c14 -11 46 -40 71 -65 26 -25 50 -41 53 -36 3 6 -7 21
-24 34 -17 13 -49 38 -71 56 -23 17 -44 32 -47 32 -4 -1 4 -10 18 -21z"/>
<path d="M762 3661 c4 -13 18 -16 19 -4 0 4 -5 9 -11 12 -7 2 -11 -2 -8 -8z"/>
<path d="M1648 3663 c7 -3 16 -2 19 1 4 3 -2 6 -13 5 -11 0 -14 -3 -6 -6z"/>
<path d="M2130 3654 c-17 -10 -18 -13 -5 -8 11 3 25 7 32 7 7 0 10 4 7 9 -6
10 -4 10 -34 -8z"/>
<path d="M2256 3654 c-5 -14 -4 -15 9 -4 17 14 19 20 6 20 -5 0 -12 -7 -15
-16z"/>
<path d="M3271 3653 c7 -10 15 -20 16 -22 2 -2 3 3 3 11 0 9 -7 19 -16 22 -15
6 -15 4 -3 -11z"/>
<path d="M3358 3625 c11 -27 41 -95 66 -150 25 -55 46 -107 46 -115 0 -8 7
-23 15 -33 7 -10 19 -42 25 -70 7 -29 19 -59 26 -67 7 -9 13 -33 12 -55 0 -22
11 -69 25 -105 35 -89 34 -46 -3 99 -38 151 -82 265 -159 416 -70 134 -82 153
-53 80z"/>
<path d="M3671 3654 c-1 -5 13 -48 30 -95 44 -120 54 -155 93 -334 67 -307 85
-539 61 -760 -19 -180 -36 -265 -75 -384 -17 -50 -30 -101 -29 -113 0 -15 3
-18 6 -8 3 8 17 40 31 70 56 123 89 282 98 475 13 258 -46 705 -124 940 -32
94 -90 228 -91 209z m196 -1271 c-3 -10 -5 -4 -5 12 0 17 2 24 5 18 2 -7 2
-21 0 -30z"/>
<path d="M4302 3623 c-67 -37 -79 -60 -15 -27 21 10 40 22 43 25 3 4 14 8 24
10 19 4 36 30 19 28 -4 0 -36 -16 -71 -36z"/>
<path d="M1413 3570 c-103 -272 -171 -694 -160 -995 6 -172 39 -355 65 -355
12 0 12 3 2 15 -7 9 -10 26 -6 42 4 19 4 23 -3 14 -10 -15 -13 -4 -30 114 -16
112 -20 427 -5 412 4 -4 6 -71 5 -149 -2 -154 14 -337 31 -353 7 -7 9 -4 5 10
-3 11 -9 36 -13 55 -9 48 -6 537 5 635 11 99 68 355 111 498 40 134 35 170 -7
57z"/>
<path d="M2830 3639 c0 -5 5 -7 10 -4 6 3 10 8 10 11 0 2 -4 4 -10 4 -5 0 -10
-5 -10 -11z"/>
<path d="M2080 3630 c-8 -5 -12 -12 -9 -15 4 -3 12 1 19 10 14 17 11 19 -10 5z"/>
<path d="M2337 3633 c-4 -3 -7 -11 -7 -17 0 -6 5 -5 12 2 6 6 9 14 7 17 -3 3
-9 2 -12 -2z"/>
<path d="M2553 3594 c-41 -55 -30 -57 19 -3 42 46 44 49 26 48 -7 0 -28 -20
-45 -45z"/>
<path d="M2651 3634 c-1 -17 -70 -83 -106 -101 -28 -15 -223 -28 -510 -33 -45
-1 -63 -4 -50 -9 11 -5 126 -6 255 -4 186 3 244 7 280 20 51 18 145 104 137
125 -3 8 -6 8 -6 2z"/>
<path d="M854 3575 c33 -30 64 -51 69 -48 6 3 -1 15 -14 25 -13 10 -41 32 -61
48 -61 50 -57 34 6 -25z"/>
<path d="M1893 3613 c-13 -8 -23 -19 -23 -24 0 -12 38 12 44 28 6 16 6 16 -21
-4z"/>
<path d="M3300 3625 c0 -5 9 -23 21 -40 30 -44 76 -147 115 -255 25 -68 36
-119 40 -180 5 -75 -7 -273 -21 -355 l-5 -30 10 30 c16 47 28 140 35 258 7
119 -10 213 -62 339 -47 117 -132 266 -133 233z"/>
<path d="M1985 3580 c-38 -21 -88 -49 -110 -61 -22 -12 -53 -26 -70 -30 l-30
-7 29 -1 c37 -1 148 48 139 62 -4 6 0 8 10 4 10 -3 17 -2 17 2 0 5 20 19 45
31 25 12 45 26 45 31 0 12 6 14 -75 -31z"/>
<path d="M2953 3570 c0 -25 2 -35 4 -22 2 12 2 32 0 45 -2 12 -4 2 -4 -23z"/>
<path d="M3600 3591 c0 -12 5 -21 10 -21 6 0 10 -6 10 -12 0 -7 7 -26 15 -41
8 -15 9 -25 4 -21 -6 3 -4 -7 4 -22 8 -16 18 -45 22 -64 7 -30 9 -32 16 -15 5
13 8 15 8 5 1 -8 7 -27 15 -41 32 -62 77 -216 93 -316 10 -59 19 -100 21 -90
5 26 -25 183 -54 285 -37 126 -133 354 -156 368 -4 3 -8 -4 -8 -15z"/>
<path d="M1492 3559 c-8 -19 -38 -104 -67 -189 -76 -221 -95 -331 -100 -575
-2 -131 -1 -176 5 -130 4 39 8 122 9 185 1 63 6 147 11 186 8 66 79 302 137
456 25 69 30 130 5 67z"/>
<path d="M2805 3580 c3 -5 8 -10 11 -10 2 0 4 5 4 10 0 6 -5 10 -11 10 -5 0
-7 -4 -4 -10z"/>
<path d="M2340 3570 c-9 -6 -10 -10 -3 -10 6 0 15 5 18 10 8 12 4 12 -15 0z"/>
<path d="M1537 3492 c-28 -82 -88 -348 -86 -385 0 -12 16 46 33 128 18 83 45
190 61 238 34 110 28 125 -8 19z"/>
<path d="M2285 3560 c-3 -5 1 -10 9 -10 8 0 18 5 21 10 3 6 -1 10 -9 10 -8 0
-18 -4 -21 -10z"/>
<path d="M2760 3544 c0 -14 4 -23 9 -20 5 3 7 15 4 26 -7 28 -13 25 -13 -6z"/>
<path d="M3220 3510 c0 -5 11 -10 24 -10 13 0 33 -2 43 -5 10 -3 5 1 -12 9
-36 18 -55 20 -55 6z"/>
<path d="M3531 3512 c-1 -7 12 -58 29 -113 17 -59 34 -147 41 -212 5 -62 14
-134 18 -162 8 -48 8 -47 10 31 1 104 -23 243 -64 369 -19 55 -34 94 -34 87z"/>
<path d="M2760 3500 c34 -16 165 -20 285 -11 55 5 80 9 55 10 -337 11 -364 11
-340 1z"/>
<path d="M1916 3484 c-24 -23 -19 -27 9 -8 14 9 25 18 25 20 0 10 -20 3 -34
-12z"/>
<path d="M4178 3493 c7 -3 16 -2 19 1 4 3 -2 6 -13 5 -11 0 -14 -3 -6 -6z"/>
<path d="M1497 3483 c-14 -23 -88 -342 -92 -395 -4 -55 -2 -49 19 47 13 61 35
157 50 215 14 58 28 113 30 123 4 18 1 23 -7 10z"/>
<path d="M3600 3471 c0 -5 5 -13 10 -16 6 -3 10 -2 10 4 0 5 -4 13 -10 16 -5
3 -10 2 -10 -4z"/>
<path d="M988 3445 c-6 -14 -8 -28 -4 -33 9 -8 36 26 36 45 0 22 -20 14 -32
-12z"/>
<path d="M1612 3440 c0 -14 2 -19 5 -12 2 6 2 18 0 25 -3 6 -5 1 -5 -13z"/>
<path d="M4081 3446 c12 -10 60 -16 54 -6 -3 5 -18 10 -32 10 -15 0 -24 -2
-22 -4z"/>
<path d="M3621 3432 c-1 -7 4 -22 9 -32 12 -23 94 -347 112 -445 19 -102 16
-365 -6 -510 -10 -66 -19 -138 -20 -160 -2 -22 -6 -51 -11 -65 -7 -21 -6 -22
7 -9 8 8 15 21 16 29 2 35 23 221 33 295 7 47 9 156 6 265 -5 179 -6 190 -50
360 -40 155 -95 308 -96 272z"/>
<path d="M3968 3423 c6 -2 18 -2 25 0 6 3 1 5 -13 5 -14 0 -19 -2 -12 -5z"/>
<path d="M4098 3413 c7 -3 16 -2 19 1 4 3 -2 6 -13 5 -11 0 -14 -3 -6 -6z"/>
<path d="M1588 3353 c-26 -82 -41 -143 -36 -148 2 -2 16 39 31 92 28 100 31
141 5 56z"/>
<path d="M3684 3355 c2 -11 16 -60 30 -110 15 -49 35 -121 45 -160 11 -38 20
-59 20 -45 0 38 -69 285 -88 316 -11 18 -12 18 -7 -1z"/>
<path d="M3200 3345 c0 -12 54 -64 61 -59 4 2 -6 18 -23 34 -31 30 -38 35 -38
25z"/>
<path d="M3950 3325 c-9 -10 -9 -15 -1 -15 6 0 11 4 11 9 0 5 8 12 18 14 14 4
14 5 1 6 -9 0 -22 -6 -29 -14z"/>
<path d="M1160 3301 c0 -6 5 -11 10 -11 6 0 10 -9 10 -20 0 -11 4 -20 9 -20
13 0 -3 53 -17 58 -7 2 -12 -1 -12 -7z"/>
<path d="M3310 3290 c8 -5 22 -10 30 -10 13 0 13 1 0 10 -8 5 -22 10 -30 10
-13 0 -13 -1 0 -10z"/>
<path d="M2273 3263 c-33 -13 0 -144 34 -138 10 2 24 4 32 4 11 1 13 14 7 62
-3 33 -8 65 -12 70 -5 9 -40 11 -61 2z m47 -45 c0 -18 3 -43 6 -55 5 -17 2
-23 -9 -23 -18 0 -42 72 -33 96 11 28 36 15 36 -18z"/>
<path d="M2784 3256 c-3 -7 -4 -35 -2 -62 3 -46 5 -49 32 -52 16 -2 32 2 37
10 12 18 11 75 -1 99 -12 22 -58 26 -66 5z m50 -40 c4 -18 4 -41 0 -50 -12
-30 -29 -10 -32 37 -2 36 0 47 11 47 9 0 17 -14 21 -34z"/>
<path d="M1704 3195 c-25 -19 -14 -19 22 0 16 8 22 15 13 15 -8 0 -24 -7 -35
-15z"/>
<path d="M1800 3189 c0 -5 5 -7 10 -4 6 3 10 8 10 11 0 2 -4 4 -10 4 -5 0 -10
-5 -10 -11z"/>
<path d="M1542 3165 c0 -16 2 -22 5 -12 2 9 2 23 0 30 -3 6 -5 -1 -5 -18z"/>
<path d="M1785 3150 c-3 -5 -1 -10 4 -10 6 0 11 5 11 10 0 6 -2 10 -4 10 -3 0
-8 -4 -11 -10z"/>
<path d="M3435 3150 c3 -5 11 -10 16 -10 6 0 7 5 4 10 -3 6 -11 10 -16 10 -6
0 -7 -4 -4 -10z"/>
<path d="M1371 3050 c-6 -55 -11 -126 -11 -158 0 -31 -5 -114 -12 -184 -9
-100 -9 -151 1 -235 14 -123 41 -243 54 -243 4 0 6 9 2 19 -3 11 -8 30 -11 43
-39 183 -42 272 -19 627 8 124 13 226 11 228 -2 2 -8 -42 -15 -97z"/>
<path d="M1560 3103 c-7 -27 -22 -75 -32 -108 -26 -79 -21 -225 10 -300 17
-40 22 -77 25 -190 5 -150 12 -182 72 -318 9 -21 18 -52 20 -67 6 -43 25 -76
35 -60 8 13 -3 54 -19 75 -5 5 -27 66 -51 135 -39 118 -42 132 -45 262 -2 75
-9 146 -15 158 -7 13 -8 47 -4 95 6 70 5 78 -16 100 l-22 23 25 89 c29 103 40
153 34 153 -2 0 -10 -21 -17 -47z m-16 -249 c9 -24 7 -84 -3 -84 -5 0 -11 23
-13 50 -3 49 4 65 16 34z"/>
<path d="M1880 3118 c-60 -31 -90 -54 -90 -70 0 -24 13 -23 36 3 59 65 139 64
294 -3 115 -50 182 -75 232 -83 17 -3 35 -8 40 -11 4 -3 8 -3 8 0 0 7 -57 35
-130 62 -35 14 -82 33 -105 43 -137 64 -235 84 -285 59z"/>
<path d="M3035 3094 c-55 -20 -141 -50 -192 -68 -51 -17 -92 -34 -93 -39 0 -4
20 -5 44 -2 44 5 91 21 249 84 57 22 95 31 138 31 53 0 63 -3 98 -35 21 -19
44 -35 50 -35 17 0 13 -19 -10 -56 -11 -19 -17 -34 -13 -34 4 0 -1 -10 -12
-21 l-19 -21 33 7 c32 7 34 6 27 -15 -5 -15 -4 -20 4 -16 16 10 14 36 -4 42
-10 4 -11 11 -5 22 35 68 32 91 -23 138 -76 66 -129 69 -272 18z"/>
<path d="M1521 3064 c0 -11 3 -14 6 -6 3 7 2 16 -1 19 -3 4 -6 -2 -5 -13z"/>
<path d="M1739 3008 c-1 -40 -3 -102 -5 -137 -5 -106 13 -106 22 0 4 52 7 99
6 106 -2 6 2 14 8 18 5 3 10 -1 10 -9 0 -9 5 -16 10 -16 12 0 -4 35 -20 45 -6
3 -10 19 -10 36 0 16 -4 29 -10 29 -6 0 -11 -32 -11 -72z"/>
<path d="M1432 3010 c0 -19 2 -27 5 -17 2 9 2 25 0 35 -3 9 -5 1 -5 -18z"/>
<path d="M2161 2985 c-1 -10 28 -51 115 -166 42 -56 84 -130 84 -149 0 -6 -12
-16 -27 -22 -16 -7 -61 -34 -101 -60 -64 -42 -78 -47 -122 -45 -48 2 -64 10
-37 20 6 2 9 8 4 12 -4 5 -13 3 -19 -3 -17 -17 -48 -15 -48 2 0 16 -37 18 -57
3 -17 -13 -16 -30 0 -24 8 3 33 -3 57 -14 50 -23 171 -26 192 -6 14 13 94 62
141 86 39 20 48 48 28 91 -9 19 -19 37 -23 38 -5 2 -8 8 -8 13 0 7 -30 47
-152 200 -15 19 -27 29 -27 24z"/>
<path d="M1651 2964 c0 -11 3 -14 6 -6 3 7 2 16 -1 19 -3 4 -6 -2 -5 -13z"/>
<path d="M2880 2944 c-13 -13 -21 -24 -17 -24 5 0 -5 -12 -22 -26 -17 -14 -31
-30 -31 -36 0 -7 39 20 104 73 4 4 4 14 0 22 -8 12 -13 10 -34 -9z"/>
<path d="M3575 2931 c-8 -17 -15 -38 -14 -48 0 -15 2 -14 11 5 6 12 16 22 22
22 13 0 13 -10 1 -115 -9 -84 -24 -120 -25 -58 0 23 -4 45 -10 48 -5 3 -10 15
-10 25 0 10 -5 22 -12 26 -8 5 -9 -2 -4 -27 19 -83 17 -130 -5 -175 -29 -62
-17 -67 16 -7 l26 48 -6 -114 c-9 -182 -42 -299 -135 -481 -27 -52 -50 -99
-51 -105 -1 -5 -9 -21 -19 -35 -10 -14 -35 -65 -54 -113 -33 -77 -36 -95 -34
-161 2 -41 6 -69 10 -63 3 5 6 -7 5 -29 -2 -104 45 -268 87 -303 22 -18 20 -5
-3 28 -26 36 -53 115 -41 119 5 2 6 10 3 18 -3 7 -9 11 -14 8 -5 -3 -9 7 -10
23 0 15 -2 42 -3 58 -20 216 -20 217 8 285 15 36 28 70 29 75 1 6 4 12 7 15 3
3 22 30 41 60 32 50 50 81 119 205 12 22 34 74 48 115 22 66 25 94 27 235 2
127 7 177 25 245 19 74 20 92 10 137 -14 65 -25 72 -45 34z m-20 -621 c-9 -41
-17 -33 -9 9 4 17 9 30 11 27 3 -2 2 -19 -2 -36z"/>
<path d="M1449 2843 c-17 -130 -17 -258 0 -415 9 -81 17 -118 27 -122 8 -3 14
-13 14 -23 0 -15 -2 -16 -10 -3 -5 8 -10 11 -10 7 0 -20 33 -123 43 -132 7 -7
8 -4 3 8 -3 11 -11 62 -18 115 -6 54 -14 99 -18 102 -4 3 -12 77 -19 165 -12
156 -11 192 16 368 3 21 1 37 -4 37 -6 0 -16 -48 -24 -107z"/>
<path d="M3676 2935 c-9 -24 -7 -45 3 -45 12 0 22 43 12 53 -5 5 -11 1 -15 -8z"/>
<path d="M1662 2930 c0 -8 5 -49 13 -90 9 -55 13 -64 13 -35 0 37 -25 158 -26
125z"/>
<path d="M1631 2914 c0 -11 3 -14 6 -6 3 7 2 16 -1 19 -3 4 -6 -2 -5 -13z"/>
<path d="M3823 2895 c0 -22 2 -30 4 -17 2 12 2 30 0 40 -3 9 -5 -1 -4 -23z"/>
<path d="M1770 2881 c0 -5 6 -14 14 -21 8 -6 13 -17 10 -24 -3 -7 1 -13 8 -13
7 0 22 -4 33 -8 20 -8 15 0 -42 62 -13 15 -23 17 -23 4z"/>
<path d="M3299 2859 c-11 -7 -11 -9 4 -9 24 0 21 -25 -5 -43 l-23 -16 26 0
c25 -1 38 18 39 55 0 16 -24 24 -41 13z"/>
<path d="M1643 2805 c6 -30 12 -53 14 -51 7 6 -9 106 -17 106 -3 0 -2 -25 3
-55z"/>
<path d="M2808 2816 c-32 -29 -74 -112 -74 -146 1 -21 16 -32 101 -74 55 -28
106 -56 114 -64 17 -17 127 -13 124 5 -2 7 12 11 42 9 58 -3 57 6 0 23 -45 13
-60 10 -60 -12 0 -27 -65 -18 -123 17 -32 19 -85 48 -119 64 l-60 28 18 49
c10 27 32 66 49 87 35 43 29 50 -12 14z"/>
<path d="M2991 2821 c-9 -6 -10 -11 -2 -15 6 -4 11 -4 11 0 0 4 6 0 13 -9 11
-16 12 -15 13 8 2 26 -10 31 -35 16z"/>
<path d="M2091 2796 c-31 -33 -24 -62 13 -59 37 3 40 7 26 34 -11 19 -10 25 6
36 17 12 17 13 -2 13 -11 0 -31 -11 -43 -24z"/>
<path d="M1790 2801 c0 -6 8 -16 18 -23 9 -7 18 -20 20 -28 6 -27 34 -80 42
-80 5 0 6 -8 3 -18 -5 -19 23 -50 34 -38 4 4 1 16 -6 27 -10 18 -10 23 6 36
17 13 16 14 -11 8 -23 -5 -27 -3 -23 9 4 9 2 18 -3 21 -5 3 -7 12 -3 20 3 9
-1 15 -11 15 -9 0 -16 6 -16 13 0 14 -31 47 -43 47 -4 0 -7 -4 -7 -9z"/>
<path d="M1577 2751 c-5 -29 -6 -56 -3 -58 7 -8 18 61 14 88 -2 15 -7 3 -11
-30z"/>
<path d="M2893 2785 c-8 -23 0 -24 20 -3 14 15 15 18 2 18 -9 0 -18 -7 -22
-15z"/>
<path d="M2965 2787 c-15 -44 -11 -51 35 -58 48 -7 74 8 63 37 -8 21 -23 17
-23 -7 0 -16 -5 -20 -27 -17 -27 3 -39 26 -20 39 5 3 1 9 -8 12 -8 4 -18 1
-20 -6z"/>
<path d="M3386 2763 c-3 -21 -6 -51 -6 -68 0 -16 -7 -49 -15 -72 -8 -23 -17
-62 -20 -85 -5 -37 -4 -40 5 -18 22 49 41 136 46 208 5 77 1 96 -10 35z"/>
<path d="M2177 2783 c-11 -10 -8 -55 3 -48 6 3 10 16 10 28 0 14 3 18 10 11
17 -17 1 -43 -39 -64 -33 -18 -23 -28 14 -14 26 10 49 63 34 80 -13 15 -22 18
-32 7z"/>
<path d="M3680 2742 c0 -23 4 -42 9 -42 5 0 7 17 4 38 -7 51 -13 53 -13 4z"/>
<path d="M3116 2755 c-3 -8 -1 -15 4 -15 13 0 22 18 11 24 -5 3 -11 -1 -15 -9z"/>
<path d="M3267 2763 c-14 -13 -6 -24 15 -21 27 4 36 28 11 28 -11 0 -23 -3
-26 -7z"/>
<path d="M3803 2690 c0 -41 2 -58 4 -37 2 20 2 54 0 75 -2 20 -4 3 -4 -38z"/>
<path d="M2010 2744 c0 -11 65 -74 75 -74 3 0 5 5 5 10 0 6 -6 10 -14 10 -8 0
-26 15 -40 33 -14 17 -26 27 -26 21z"/>
<path d="M3263 2710 c-10 -11 -23 -20 -30 -20 -7 0 -13 -9 -13 -20 0 -19 10
-24 38 -21 6 1 12 -3 12 -9 0 -5 5 -10 10 -10 21 0 9 18 -20 30 l-30 12 32 17
c17 9 34 22 36 29 6 19 -16 14 -35 -8z"/>
<path d="M1712 2700 c0 -14 2 -19 5 -12 2 6 2 18 0 25 -3 6 -5 1 -5 -13z"/>
<path d="M1671 2693 c-1 -12 4 -25 9 -28 12 -7 12 2 0 30 -8 19 -9 19 -9 -2z"/>
<path d="M2914 2701 c3 -5 20 -14 38 -20 38 -13 26 0 -15 17 -16 7 -26 8 -23
3z"/>
<path d="M3003 2693 c9 -2 25 -2 35 0 9 3 1 5 -18 5 -19 0 -27 -2 -17 -5z"/>
<path d="M2204 2679 c-3 -5 6 -9 20 -9 32 0 41 15 10 16 -13 1 -27 -2 -30 -7z"/>
<path d="M1625 2669 c-4 -6 -5 -12 -2 -15 2 -3 7 2 10 11 7 17 1 20 -8 4z"/>
<path d="M1585 2649 c7 -41 37 -105 42 -91 3 7 0 19 -6 26 -6 7 -18 31 -26 52
-8 21 -13 27 -10 13z"/>
<path d="M2158 2663 c7 -3 16 -2 19 1 4 3 -2 6 -13 5 -11 0 -14 -3 -6 -6z"/>
<path d="M1730 2645 c0 -10 19 -70 50 -160 10 -27 30 -90 45 -140 38 -128 87
-225 148 -292 l53 -58 -8 -50 c-8 -51 -16 -171 -22 -325 -5 -112 -5 -112 -15
-106 -5 3 -11 -17 -13 -44 -6 -61 -22 -85 -92 -139 -54 -42 -85 -50 -54 -14
38 44 61 257 38 348 -7 26 -8 24 -9 -20 -5 -153 -52 -336 -101 -387 -14 -14
-44 -36 -67 -48 -46 -23 -44 -17 -58 -165 -8 -78 -50 -247 -76 -304 -39 -85
-51 -116 -42 -106 20 21 54 85 46 85 -4 0 0 5 10 11 9 5 17 18 17 27 0 10 4
22 8 28 8 9 17 44 47 184 9 43 14 55 14 34 2 -53 -28 -191 -60 -276 -16 -45
-28 -83 -25 -85 7 -7 65 144 83 214 10 44 16 114 17 200 l1 133 45 0 c40 0 48
4 63 29 9 16 45 44 84 65 38 20 85 51 106 69 39 33 39 35 52 143 7 60 15 195
17 301 3 191 3 192 23 174 79 -71 337 -281 369 -301 51 -31 182 -40 236 -18
19 9 120 83 224 167 104 83 192 151 196 151 4 0 10 -89 14 -197 7 -202 26
-353 48 -382 19 -25 62 -60 74 -61 13 0 94 -69 94 -79 0 -5 -19 -30 -42 -57
-30 -35 -34 -42 -13 -24 17 14 31 28 33 32 2 3 13 18 26 32 l22 27 60 -39 c56
-37 104 -51 104 -31 0 5 -3 9 -8 9 -4 0 -20 11 -35 25 -15 14 -27 21 -27 15 0
-6 -28 5 -62 23 -35 18 -62 39 -60 45 1 7 -1 11 -5 10 -17 -3 -83 33 -97 54
-9 12 -16 19 -16 15 0 -5 -8 -1 -17 8 -9 10 -20 40 -24 69 -5 28 -10 58 -12
66 -2 8 -7 26 -10 40 -3 14 -8 115 -10 224 l-5 199 45 55 c63 78 93 127 124
207 25 65 69 214 69 232 -1 15 -27 -51 -60 -147 -63 -185 -144 -305 -255 -380
-94 -63 -211 -152 -225 -171 -9 -13 -128 -97 -158 -113 -34 -18 -119 -21 -168
-7 -38 11 -91 46 -170 114 -34 28 -104 87 -155 129 -180 148 -195 164 -243
262 -24 50 -71 170 -103 266 -54 162 -82 230 -83 205z"/>
<path d="M1820 2645 c0 -3 16 -28 36 -56 27 -37 39 -47 45 -37 5 8 4 14 -4 16
-7 1 -24 20 -37 42 -21 35 -40 51 -40 35z"/>
<path d="M3166 2631 c-7 -10 27 -21 64 -21 l25 1 -25 14 c-29 16 -56 19 -64 6z"/>
<path d="M3466 2630 c-2 -8 -8 -33 -13 -55 -5 -23 -15 -40 -22 -40 -8 0 -17
-9 -22 -20 -11 -30 -11 -35 6 -35 8 0 12 6 9 14 -3 8 -1 17 4 20 6 3 12 -1 15
-8 6 -15 -67 -99 -93 -108 -8 -3 -12 -9 -7 -13 12 -14 73 21 100 57 33 43 51
108 31 108 -18 0 -17 4 0 39 9 17 11 33 6 41 -8 12 -10 12 -14 0z"/>
<path d="M1935 2622 c-6 -4 -15 -14 -22 -22 -10 -13 -9 -16 7 -17 11 -1 22 7
25 18 8 23 4 31 -10 21z"/>
<path d="M1658 2604 c-16 -15 -7 -51 17 -74 27 -26 33 -17 11 16 -8 11 -16 30
-18 43 -1 12 -6 19 -10 15z"/>
<path d="M3157 2596 c-4 -9 2 -17 14 -21 27 -9 35 0 19 20 -16 19 -26 19 -33
1z"/>
<path d="M3260 2599 c0 -5 5 -7 10 -4 6 3 10 8 10 11 0 2 -4 4 -10 4 -5 0 -10
-5 -10 -11z"/>
<path d="M3793 2575 c0 -22 2 -30 4 -17 2 12 2 30 0 40 -3 9 -5 -1 -4 -23z"/>
<path d="M3624 2566 c-3 -21 -4 -39 -1 -42 2 -3 8 11 11 32 4 20 5 38 2 41 -2
3 -8 -11 -12 -31z"/>
<path d="M3702 2570 c0 -19 2 -27 5 -17 2 9 2 25 0 35 -3 9 -5 1 -5 -18z"/>
<path d="M1402 2550 c0 -19 2 -27 5 -17 2 9 2 25 0 35 -3 9 -5 1 -5 -18z"/>
<path d="M2113 2573 c9 -2 23 -2 30 0 6 3 -1 5 -18 5 -16 0 -22 -2 -12 -5z"/>
<path d="M2998 2573 c6 -2 18 -2 25 0 6 3 1 5 -13 5 -14 0 -19 -2 -12 -5z"/>
<path d="M3228 2559 c-17 -18 -17 -19 2 -19 11 0 20 2 20 4 0 2 3 11 6 20 8
21 -7 19 -28 -5z"/>
<path d="M1375 2505 c6 -73 75 -355 86 -355 14 0 11 18 -30 175 -22 83 -45
170 -50 195 -10 44 -10 44 -6 -15z"/>
<path d="M1590 2542 c0 -6 5 -46 11 -88 15 -111 52 -220 121 -359 57 -115 108
-252 114 -306 2 -14 15 -50 28 -80 28 -58 36 -55 11 5 -9 20 -22 70 -30 111
-10 51 -35 117 -78 208 -75 152 -121 282 -148 416 -18 86 -29 123 -29 93z"/>
<path d="M1915 2503 c25 -42 65 -89 65 -77 0 6 -9 19 -20 29 -11 10 -20 24
-20 32 0 7 -4 13 -10 13 -5 0 -10 7 -10 15 0 8 -5 15 -11 15 -6 0 -3 -12 6
-27z"/>
<path d="M3196 2521 c-4 -7 -5 -15 -2 -18 9 -9 19 4 14 18 -4 11 -6 11 -12 0z"/>
<path d="M1660 2492 c0 -18 11 -39 30 -59 33 -34 87 -60 98 -48 4 4 2 10 -5
12 -6 2 -21 13 -34 24 -12 10 -25 19 -29 19 -15 0 -49 41 -44 54 3 8 1 17 -5
21 -7 4 -11 -5 -11 -23z"/>
<path d="M1720 2495 c7 -8 17 -15 22 -15 6 0 5 7 -2 15 -7 8 -17 15 -22 15 -6
0 -5 -7 2 -15z"/>
<path d="M3817 2451 c-5 -35 -6 -65 -3 -68 7 -7 18 80 14 108 -2 13 -7 -5 -11
-40z"/>
<path d="M3518 2470 c-4 -14 -9 -47 -12 -75 l-6 -50 15 60 c9 33 14 66 12 75
-2 9 -5 5 -9 -10z"/>
<path d="M3702 2445 c0 -16 2 -22 5 -12 2 9 2 23 0 30 -3 6 -5 -1 -5 -18z"/>
<path d="M3691 2364 c0 -11 3 -14 6 -6 3 7 2 16 -1 19 -3 4 -6 -2 -5 -13z"/>
<path d="M2391 2333 c-1 -49 14 -67 77 -94 63 -27 87 -22 27 5 -59 27 -80 49
-93 96 l-10 35 -1 -42z"/>
<path d="M2640 2348 c-34 -20 -62 -49 -54 -57 2 -3 18 8 34 24 26 25 33 28 50
17 17 -11 20 -10 20 7 0 29 -11 31 -50 9z"/>
<path d="M2710 2323 c-13 -40 -22 -50 -64 -73 -58 -31 -75 -56 -27 -37 17 6
31 14 31 18 0 4 13 12 29 18 35 15 54 48 49 89 -3 32 -3 31 -18 -15z"/>
<path d="M2430 2345 c0 -12 5 -15 16 -11 9 4 32 -3 50 -13 19 -11 34 -16 34
-11 0 13 -39 37 -72 45 -22 6 -28 4 -28 -10z"/>
<path d="M3611 2344 c0 -11 3 -14 6 -6 3 7 2 16 -1 19 -3 4 -6 -2 -5 -13z"/>
<path d="M3642 2325 c0 -16 2 -22 5 -12 2 9 2 23 0 30 -3 6 -5 -1 -5 -18z"/>
<path d="M2465 2290 c3 -5 13 -10 21 -10 8 0 12 5 9 10 -3 6 -13 10 -21 10 -8
0 -12 -4 -9 -10z"/>
<path d="M3681 2284 c0 -11 3 -14 6 -6 3 7 2 16 -1 19 -3 4 -6 -2 -5 -13z"/>
<path d="M2630 2280 c0 -5 5 -10 10 -10 6 0 10 5 10 10 0 6 -4 10 -10 10 -5 0
-10 -4 -10 -10z"/>
<path d="M3421 2274 c0 -11 3 -14 6 -6 3 7 2 16 -1 19 -3 4 -6 -2 -5 -13z"/>
<path d="M3642 2265 c0 -16 2 -22 5 -12 2 9 2 23 0 30 -3 6 -5 -1 -5 -18z"/>
<path d="M3471 2273 c-1 -6 -4 -20 -7 -30 -5 -17 -5 -17 6 0 6 10 9 23 6 30
-3 9 -5 9 -5 0z"/>
<path d="M1405 2186 c2 -22 9 -44 15 -50 15 -15 12 23 -6 59 l-14 30 5 -39z"/>
<path d="M3352 2118 c-33 -57 -71 -125 -83 -153 -12 -27 -33 -71 -45 -96 -31
-60 -73 -200 -79 -260 -1 -8 2 -37 5 -65 l7 -49 2 63 c1 76 -1 59 22 144 11
41 50 128 89 198 37 69 71 136 75 150 4 14 18 47 32 73 26 53 44 97 39 97 -1
0 -30 -46 -64 -102z"/>
<path d="M1310 2205 c0 -2 5 -16 12 -30 12 -27 34 -36 24 -9 -3 9 -6 22 -6 30
0 8 -7 14 -15 14 -8 0 -15 -2 -15 -5z"/>
<path d="M2537 2199 c7 -7 15 -10 18 -7 3 3 -2 9 -12 12 -14 6 -15 5 -6 -5z"/>
<path d="M3671 2174 c0 -11 3 -14 6 -6 3 7 2 16 -1 19 -3 4 -6 -2 -5 -13z"/>
<path d="M3580 2154 c-6 -14 -10 -35 -10 -47 1 -20 1 -21 11 -4 6 10 8 21 6
24 -3 3 -2 16 3 29 5 13 7 24 5 24 -3 0 -10 -12 -15 -26z"/>
<path d="M2401 2119 c-35 -16 -71 -29 -81 -29 -28 0 -50 -11 -50 -24 0 -17 94
-4 117 16 39 33 70 42 163 44 98 2 125 -6 179 -47 14 -11 40 -19 62 -19 21 0
41 -5 44 -10 4 -6 11 -8 16 -5 12 8 -18 38 -40 40 -33 3 -81 17 -81 23 0 20
-91 41 -176 41 -80 0 -99 -4 -153 -30z"/>
<path d="M1473 2129 c-18 -5 -33 -13 -33 -18 0 -16 13 -19 31 -8 16 10 21 9
29 -3 5 -8 7 -17 5 -20 -5 -8 33 -130 44 -144 5 -6 14 -29 20 -51 l10 -40 -20
24 c-34 41 -32 16 3 -34 35 -49 67 -105 68 -117 0 -5 -4 -8 -10 -8 -5 0 -10 7
-10 15 0 8 -4 15 -8 15 -17 0 -91 149 -117 235 -15 50 -31 95 -37 100 -7 7 -8
2 -3 -14 4 -12 15 -52 25 -87 28 -95 64 -168 123 -248 30 -39 60 -81 68 -93
29 -48 27 -19 -5 70 -19 50 -42 115 -52 142 -9 28 -21 59 -27 69 -20 40 -45
124 -52 174 -4 29 -10 52 -13 51 -4 0 -22 -5 -39 -10z"/>
<path d="M1541 2124 c0 -11 3 -14 6 -6 3 7 2 16 -1 19 -3 4 -6 -2 -5 -13z"/>
<path d="M1352 2105 c0 -16 2 -22 5 -12 2 9 2 23 0 30 -3 6 -5 -1 -5 -18z"/>
<path d="M3611 2081 c-16 -77 -50 -168 -99 -271 -65 -135 -66 -140 -22 -91 22
24 38 46 35 49 -3 3 5 10 18 16 12 6 24 22 25 35 2 15 0 21 -7 17 -13 -8 -14
4 -2 22 6 10 10 7 15 -13 7 -28 7 -28 32 18 27 51 33 80 12 58 -7 -6 -14 -16
-14 -21 -1 -6 -2 -14 -3 -20 0 -5 -6 -10 -12 -10 -14 0 -7 40 17 95 9 22 18
51 18 65 1 18 7 26 24 28 20 3 20 5 7 18 -20 20 -20 40 0 24 18 -15 30 -7 22
15 -4 8 -17 15 -31 15 -21 0 -26 -7 -35 -49z m-51 -265 c0 -3 -4 -8 -10 -11
-5 -3 -10 -1 -10 4 0 6 5 11 10 11 6 0 10 -2 10 -4z"/>
<path d="M3521 2097 c0 -10 -14 -45 -31 -79 -35 -71 -37 -79 -10 -50 27 29 53
96 47 124 -3 16 -5 17 -6 5z"/>
<path d="M1570 2070 c0 -5 5 -10 11 -10 5 0 7 5 4 10 -3 6 -8 10 -11 10 -2 0
-4 -4 -4 -10z"/>
<path d="M1580 2044 c0 -21 44 -144 51 -144 5 0 -3 33 -17 73 -26 72 -34 88
-34 71z"/>
<path d="M3651 2034 c0 -11 3 -14 6 -6 3 7 2 16 -1 19 -3 4 -6 -2 -5 -13z"/>
<path d="M1690 2019 c7 -11 14 -19 16 -16 7 7 -7 37 -17 37 -6 0 -5 -9 1 -21z"/>
<path d="M2277 2027 c2 -4 17 -14 34 -22 26 -14 33 -13 31 6 -1 4 28 6 63 6
46 -1 65 -5 65 -14 0 -19 197 -16 204 3 8 21 92 19 100 -2 5 -12 9 -14 20 -5
7 6 20 9 29 5 8 -3 18 -1 21 4 9 15 -12 20 -115 27 -67 5 -90 3 -79 -4 19 -14
4 -14 -21 -1 -23 13 -98 2 -77 -11 7 -5 8 -9 3 -9 -6 0 -21 7 -33 16 -18 13
-45 15 -136 12 -63 -2 -112 -6 -109 -11z"/>
<path d="M1710 1981 c0 -6 4 -13 10 -16 6 -3 7 1 4 9 -7 18 -14 21 -14 7z"/>
<path d="M3610 1950 c0 -5 5 -10 10 -10 6 0 10 5 10 10 0 6 -4 10 -10 10 -5 0
-10 -4 -10 -10z"/>
<path d="M1732 1943 c24 -49 32 -63 39 -63 5 0 1 16 -8 35 -9 19 -21 35 -26
35 -5 0 -7 -3 -5 -7z"/>
<path d="M4242 1915 c0 -16 2 -22 5 -12 2 9 2 23 0 30 -3 6 -5 -1 -5 -18z"/>
<path d="M1670 1921 c0 -5 5 -13 10 -16 6 -3 10 -2 10 4 0 5 -4 13 -10 16 -5
3 -10 2 -10 -4z"/>
<path d="M2501 1869 c-69 -14 -72 -28 -5 -22 76 7 70 7 133 -2 61 -8 65 9 4
19 -77 13 -89 14 -132 5z"/>
<path d="M2055 1859 c9 -15 26 -28 86 -70 21 -15 35 -30 31 -33 -3 -4 1 -4 11
0 11 4 19 0 23 -10 3 -9 11 -16 18 -16 6 0 28 -11 47 -25 20 -13 39 -21 43
-18 3 4 6 1 6 -5 0 -7 5 -12 11 -12 22 0 -5 21 -94 74 -51 30 -114 71 -141 92
-27 20 -45 31 -41 23z"/>
<path d="M3015 1828 c-27 -21 -70 -51 -95 -66 -64 -38 -142 -94 -137 -99 7 -7
199 114 247 156 60 52 48 59 -15 9z"/>
<path d="M4261 1854 c0 -11 3 -14 6 -6 3 7 2 16 -1 19 -3 4 -6 -2 -5 -13z"/>
<path d="M3505 1690 c-16 -17 -24 -30 -19 -30 13 0 59 48 52 55 -2 3 -17 -9
-33 -25z"/>
<path d="M3430 1649 c0 -5 5 -7 10 -4 6 3 10 8 10 11 0 2 -4 4 -10 4 -5 0 -10
-5 -10 -11z"/>
<path d="M1972 1610 c0 -19 2 -27 5 -17 2 9 2 25 0 35 -3 9 -5 1 -5 -18z"/>
<path d="M3035 1614 c-16 -13 -25 -24 -19 -24 15 0 61 37 54 43 -3 3 -18 -6
-35 -19z"/>
<path d="M3218 1615 c-3 -14 -1 -25 3 -25 5 0 9 11 9 25 0 14 -2 25 -4 25 -2
0 -6 -11 -8 -25z"/>
<path d="M2044 1621 c8 -12 142 -81 158 -81 7 0 -18 16 -57 35 -38 19 -74 40
-79 45 -12 12 -29 13 -22 1z"/>
<path d="M2974 1574 c-18 -14 -18 -15 4 -4 12 6 22 13 22 15 0 8 -5 6 -26 -11z"/>
<path d="M1972 1550 c0 -14 2 -19 5 -12 2 6 2 18 0 25 -3 6 -5 1 -5 -13z"/>
<path d="M3560 1553 c0 -4 5 -15 10 -23 8 -13 10 -13 10 2 0 9 -4 20 -10 23
-5 3 -10 3 -10 -2z"/>
<path d="M2826 1517 c-33 -11 -55 -22 -49 -24 11 -4 123 35 123 43 0 6 -10 4
-74 -19z"/>
<path d="M2299 1505 c19 -8 36 -13 39 -10 8 8 0 12 -38 19 l-35 7 34 -16z"/>
<path d="M3250 1481 c4 -16 13 -38 20 -48 11 -17 11 -17 4 2 -3 11 -9 30 -11
43 -3 12 -9 25 -14 27 -4 3 -4 -8 1 -24z"/>
<path d="M3935 1480 c-9 -16 -13 -30 -11 -30 3 0 12 14 21 30 9 17 13 30 11
30 -3 0 -12 -13 -21 -30z"/>
<path d="M2040 1479 c0 -8 121 -71 127 -65 2 1 -26 19 -62 38 -36 20 -65 32
-65 27z"/>
<path d="M3040 1469 l-25 -20 33 16 c17 8 32 18 32 20 0 10 -16 4 -40 -16z"/>
<path d="M2990 1440 c-9 -6 -10 -10 -3 -10 6 0 15 5 18 10 8 12 4 12 -15 0z"/>
<path d="M1405 1430 c-3 -6 1 -7 9 -4 18 7 21 14 7 14 -6 0 -13 -4 -16 -10z"/>
<path d="M3879 1388 c-18 -29 -41 -65 -51 -80 -10 -16 -16 -28 -14 -28 7 0
108 152 103 156 -2 2 -19 -19 -38 -48z"/>
<path d="M3653 1385 c0 -22 2 -30 4 -17 2 12 2 30 0 40 -3 9 -5 -1 -4 -23z"/>
<path d="M2286 1322 c38 -34 96 -74 100 -70 11 11 -9 36 -45 56 -38 22 -75 30
-55 14z"/>
<path d="M2805 1313 c-35 -18 -75 -53 -75 -65 0 -9 96 58 106 73 7 12 5 11
-31 -8z"/>
<path d="M1618 1263 c7 -3 16 -2 19 1 4 3 -2 6 -13 5 -11 0 -14 -3 -6 -6z"/>
<path d="M3790 1260 c-8 -5 -12 -12 -9 -15 4 -3 12 1 19 10 14 17 11 19 -10 5z"/>
<path d="M3524 1245 c11 -8 22 -12 25 -9 6 6 -19 24 -34 24 -5 -1 -1 -7 9 -15z"/>
<path d="M1530 1229 c0 -5 5 -7 10 -4 6 3 10 8 10 11 0 2 -4 4 -10 4 -5 0 -10
-5 -10 -11z"/>
<path d="M1826 1230 c18 -36 55 -76 86 -93 l33 -18 -25 21 c-14 12 -32 27 -40
33 -8 7 -26 26 -38 42 -13 17 -20 23 -16 15z"/>
<path d="M3760 1219 c0 -5 5 -7 10 -4 6 3 10 8 10 11 0 2 -4 4 -10 4 -5 0 -10
-5 -10 -11z"/>
<path d="M2101 1216 c15 -12 119 -75 119 -71 0 7 -103 75 -114 75 -5 0 -7 -2
-5 -4z"/>
<path d="M2972 1196 c-18 -13 -36 -27 -40 -31 -10 -11 50 21 73 39 32 25 3 17
-33 -8z"/>
<path d="M1435 1195 c-16 -7 -23 -14 -15 -14 8 0 26 6 40 14 32 18 14 18 -25
0z"/>
<path d="M3510 1199 c0 -5 5 -7 10 -4 6 3 10 8 10 11 0 2 -4 4 -10 4 -5 0 -10
-5 -10 -11z"/>
<path d="M3552 1136 c-26 -88 -27 -132 -7 -223 27 -119 79 -253 92 -239 3 3 1
11 -4 18 -17 21 -51 127 -67 210 -20 96 -20 155 -1 237 21 89 13 87 -13 -3z"/>
<path d="M3688 1203 c7 -3 16 -2 19 1 4 3 -2 6 -13 5 -11 0 -14 -3 -6 -6z"/>
<path d="M2538 1193 c23 -2 59 -2 80 0 20 2 1 4 -43 4 -44 0 -61 -2 -37 -4z"/>
<path d="M1460 1133 c-19 -87 -59 -203 -87 -250 -13 -23 -22 -46 -19 -51 3 -5
-6 -24 -19 -42 -33 -44 -32 -64 0 -25 40 47 91 153 114 235 20 74 38 190 29
190 -3 0 -11 -26 -18 -57z"/>
<path d="M3788 1173 c7 -3 16 -2 19 1 4 3 -2 6 -13 5 -11 0 -14 -3 -6 -6z"/>
<path d="M1205 1159 c-22 -4 -70 -8 -107 -8 -47 -1 -68 -5 -68 -13 0 -10 -2
-10 -8 0 -7 10 -15 10 -38 1 -16 -7 -35 -11 -41 -10 -7 1 -13 -3 -13 -9 0 -5
16 -10 35 -10 27 0 35 4 35 18 0 13 2 14 9 3 6 -8 14 -10 22 -5 22 13 109 17
109 5 0 -6 -12 -12 -27 -12 -25 -2 -26 -2 -5 -6 13 -3 40 3 60 13 20 10 80 23
132 30 l95 12 -75 -1 c-41 0 -93 -4 -115 -8z"/>
<path d="M3507 1106 c-9 -100 9 -228 50 -351 20 -60 39 -102 41 -93 2 9 -7 47
-18 85 -41 127 -60 234 -59 326 0 49 -1 90 -4 93 -2 2 -7 -25 -10 -60z"/>
<path d="M3706 1155 c4 -8 8 -15 10 -15 2 0 4 7 4 15 0 8 -4 15 -10 15 -5 0
-7 -7 -4 -15z"/>
<path d="M3840 1161 c41 -13 150 -21 150 -12 0 8 -100 22 -149 20 l-26 -1 25
-7z"/>
<path d="M4018 1153 c7 -3 16 -2 19 1 4 3 -2 6 -13 5 -11 0 -14 -3 -6 -6z"/>
<path d="M4057 1148 c7 -8 11 -17 9 -19 -3 -2 16 -2 40 0 56 4 57 16 2 20 -23
1 -46 5 -52 8 -6 4 -5 0 1 -9z"/>
<path d="M2821 1089 c-82 -61 -97 -76 -88 -85 3 -3 41 25 84 62 103 88 98 84
91 84 -4 0 -43 -27 -87 -61z"/>
<path d="M3213 1133 c-20 -7 -15 -19 7 -20 11 -1 20 2 20 7 0 12 -13 18 -27
13z"/>
<path d="M4240 1120 c0 -5 5 -10 10 -10 6 0 10 5 10 10 0 6 -4 10 -10 10 -5 0
-10 -4 -10 -10z"/>
<path d="M3720 1107 c0 -33 61 -201 93 -259 37 -65 87 -137 87 -125 0 4 -17
40 -38 79 -22 40 -42 86 -46 101 -4 15 -10 25 -15 23 -8 -5 -61 146 -61 172 0
6 -4 14 -10 17 -5 3 -10 0 -10 -8z"/>
<path d="M2260 1104 c0 -8 17 -22 92 -74 64 -45 68 -46 68 -25 0 8 -5 15 -11
15 -5 0 -36 17 -67 38 -75 50 -82 54 -82 46z"/>
<path d="M1940 1071 c24 -19 183 -112 204 -120 6 -2 -7 10 -29 26 -48 36 -211
123 -175 94z"/>
<path d="M3940 1080 c-14 -4 -58 -8 -98 -9 -54 -1 -73 -4 -69 -13 8 -24 186
-3 203 23 6 10 -1 10 -36 -1z"/>
<path d="M1170 1065 c25 -8 82 -18 128 -22 89 -7 85 -2 64 -63 -4 -11 -2 -12
7 -4 7 7 14 27 14 45 l2 34 -85 6 c-47 4 -105 9 -130 13 l-45 6 45 -15z"/>
<path d="M3119 1043 c-13 -15 -12 -15 9 -4 23 12 28 21 13 21 -5 0 -15 -7 -22
-17z"/>
<path d="M965 1035 c28 -7 75 -13 105 -13 l55 0 -45 8 c-25 4 -72 10 -105 13
l-60 6 50 -14z"/>
<path d="M1751 1035 c1 -11 5 -33 9 -50 l8 -30 1 35 c0 19 -4 42 -9 50 -8 12
-10 11 -9 -5z"/>
<path d="M4100 1040 c-34 -7 -34 -7 -5 -8 17 0 44 4 60 8 27 7 27 8 5 8 -14
-1 -41 -4 -60 -8z"/>
<path d="M4010 1030 c0 -5 5 -10 10 -10 6 0 10 5 10 10 0 6 -4 10 -10 10 -5 0
-10 -4 -10 -10z"/>
<path d="M3042 998 c-28 -18 -52 -36 -52 -40 0 -8 98 51 106 64 8 13 2 10 -54
-24z"/>
<path d="M3357 1023 c-11 -10 -8 -83 3 -83 6 0 10 20 10 45 0 46 -2 50 -13 38z"/>
<path d="M3792 970 c0 -14 2 -19 5 -12 2 6 2 18 0 25 -3 6 -5 1 -5 -13z"/>
<path d="M1105 971 c6 -6 53 -15 105 -21 118 -12 133 -12 126 -1 -3 4 -47 12
-98 15 -51 4 -104 10 -118 13 -18 4 -22 2 -15 -6z"/>
<path d="M3887 970 c-54 -7 -76 -15 -66 -24 8 -7 189 17 189 26 0 9 -40 9
-123 -2z"/>
<path d="M3197 905 c-24 -25 -52 -63 -62 -85 -18 -41 -52 -60 -126 -74 -52 -9
-65 -28 -51 -74 13 -39 76 -121 86 -111 4 3 -7 21 -24 40 -44 51 -67 96 -54
109 6 6 38 18 70 26 71 19 73 21 125 98 23 33 53 73 67 89 42 45 17 30 -31
-18z"/>
<path d="M2949 923 c-13 -16 -12 -17 4 -4 16 13 21 21 13 21 -2 0 -10 -8 -17
-17z"/>
<path d="M3250 905 c-30 -32 -14 -32 25 0 20 17 25 25 14 25 -8 0 -26 -11 -39
-25z"/>
<path d="M3140 910 c-8 -5 -12 -12 -9 -15 4 -3 12 1 19 10 14 17 11 19 -10 5z"/>
<path d="M1900 879 c75 -65 190 -147 190 -136 0 2 -17 16 -37 29 -21 14 -68
50 -104 82 -36 31 -70 56 -75 56 -5 -1 7 -14 26 -31z"/>
<path d="M2303 846 c21 -13 49 -34 62 -46 26 -25 47 -21 25 4 -14 18 -98 66
-114 66 -6 0 6 -11 27 -24z"/>
<path d="M2840 841 c-19 -16 -32 -32 -28 -36 3 -4 24 9 45 29 46 43 32 48 -17
7z"/>
<path d="M3356 852 c-3 -6 -9 -46 -12 -89 -4 -43 -11 -83 -16 -90 -5 -7 -53
-41 -106 -77 -84 -55 -240 -196 -219 -196 4 0 38 28 75 63 55 50 174 136 251
182 12 7 13 -14 7 -141 -4 -109 -3 -145 5 -137 10 10 33 482 24 491 -2 2 -6
-1 -9 -6z"/>
<path d="M3521 794 c0 -11 3 -14 6 -6 3 7 2 16 -1 19 -3 4 -6 -2 -5 -13z"/>
<path d="M1836 764 c9 -50 14 -56 14 -16 0 18 0 35 1 39 0 4 -5 9 -11 11 -8 3
-9 -7 -4 -34z"/>
<path d="M2780 790 c0 -5 5 -10 11 -10 5 0 7 5 4 10 -3 6 -8 10 -11 10 -2 0
-4 -4 -4 -10z"/>
<path d="M3531 760 c0 -8 4 -24 9 -35 5 -13 9 -14 9 -5 0 8 -4 24 -9 35 -5 13
-9 14 -9 5z"/>
<path d="M3287 725 c-20 -41 -51 -63 -98 -68 -23 -3 -35 -10 -38 -23 -7 -36
-34 -64 -72 -76 -21 -6 -39 -17 -39 -25 0 -18 3 -17 58 17 27 16 54 41 62 54
7 14 28 31 47 37 41 13 113 79 113 102 0 28 -15 19 -33 -18z"/>
<path d="M2114 726 c11 -9 27 -16 35 -15 14 0 14 1 1 6 -8 3 -24 10 -35 15
-20 9 -20 9 -1 -6z"/>
<path d="M1820 644 c0 -6 52 -48 115 -94 63 -45 118 -86 121 -91 3 -5 10 -9
16 -9 20 0 -11 27 -125 105 -61 43 -115 83 -119 89 -6 8 -8 8 -8 0z"/>
<path d="M2045 561 c-20 -4 -26 -9 -18 -14 7 -4 22 -3 34 3 19 11 20 10 14 -9
-4 -12 -2 -21 4 -21 6 0 11 11 11 25 0 14 -3 24 -7 24 -5 -1 -21 -4 -38 -8z"/>
<path d="M2390 369 c0 -125 2 -140 16 -135 9 3 21 6 27 6 8 0 12 22 12 65 1
36 -3 65 -7 65 -4 0 -8 -7 -8 -16 0 -8 -4 -12 -10 -9 -12 7 -11 133 1 141 5 3
9 -11 9 -31 0 -52 15 -75 49 -75 27 0 29 -3 28 -35 -1 -44 -12 -45 -23 -2 l-8
32 -3 -34 c-8 -61 3 -81 42 -81 l35 0 -6 -42 c-6 -42 -6 -43 25 -44 30 -1 31
0 31 44 0 43 1 44 29 40 27 -4 29 -1 35 31 9 53 7 81 -4 81 -5 0 -10 -15 -11
-32 0 -32 -1 -32 -10 -9 -13 32 -8 56 11 57 55 4 53 1 48 54 -3 27 -1 47 4 44
4 -3 8 -30 8 -60 0 -34 -4 -53 -10 -49 -6 4 -10 -20 -10 -64 0 -64 2 -71 19
-71 18 0 20 9 23 128 2 70 2 130 0 135 -2 4 -79 7 -173 7 l-169 0 0 -141z
m290 69 l0 -33 -115 -1 -115 -1 0 33 0 34 115 0 115 0 0 -32z m-63 -89 c-3
-12 0 -31 8 -43 14 -21 13 -21 -43 -16 l-56 5 -2 38 -1 37 50 0 c45 0 49 -2
44 -21z m-35 -106 c-5 -25 -6 -25 -13 -8 -11 29 -10 35 5 35 9 0 12 -8 8 -27z"/>
<path d="M2140 396 c0 -2 8 -10 18 -17 15 -13 16 -12 3 4 -13 16 -21 21 -21
13z"/>
</g>
</svg>
