<?xml version="1.0" standalone="no"?>
<!DOCTYPE svg PUBLIC "-//W3C//DTD SVG 20010904//EN"
 "http://www.w3.org/TR/2001/REC-SVG-20010904/DTD/svg10.dtd">
<svg version="1.0" xmlns="http://www.w3.org/2000/svg"
 width="512.000000pt" height="768.000000pt" viewBox="0 0 512.000000 768.000000"
 preserveAspectRatio="xMidYMid meet">
<metadata>
Created by potrace 1.16, written by Peter Selinger 2001-2019
</metadata>
<g transform="translate(0.000000,768.000000) scale(0.100000,-0.100000)"
fill="#000000" stroke="none">
<path d="M3205 7200 c4 -12 2 -20 -5 -20 -7 0 -9 -8 -5 -21 5 -14 3 -19 -3
-15 -6 4 -8 -3 -5 -16 4 -19 3 -20 -7 -8 -10 13 -11 11 -7 -7 3 -12 1 -23 -4
-25 -15 -5 -100 -321 -89 -328 7 -4 6 -29 -4 -71 -8 -35 -17 -86 -20 -112 -5
-44 -4 -47 10 -33 8 9 14 25 12 35 -2 11 2 20 7 21 10 0 13 -16 16 -83 1 -23
7 -41 15 -44 9 -3 12 -13 9 -24 -4 -11 -2 -19 3 -19 5 0 14 -18 21 -40 6 -22
16 -40 21 -40 5 0 7 -7 4 -15 -4 -9 0 -15 10 -15 22 0 20 -20 -1 -20 -15 -1
-14 -4 7 -23 14 -12 24 -29 22 -38 -1 -9 4 -22 13 -29 8 -7 15 -16 15 -21 0
-12 37 -49 49 -49 5 0 11 7 15 15 3 8 13 15 21 15 25 0 14 32 -12 36 -13 2
-23 -1 -23 -6 0 -6 -5 -10 -11 -10 -5 0 -7 4 -4 10 3 5 1 19 -5 31 -11 19 -10
20 10 9 12 -6 26 -9 33 -7 7 2 20 -2 30 -11 9 -8 20 -12 25 -7 4 4 1 10 -5 12
-7 3 -13 11 -13 18 0 10 -10 13 -32 10 -33 -4 -68 9 -68 26 0 6 8 8 18 5 9 -3
36 -6 60 -8 36 -2 43 -5 39 -20 -3 -10 -2 -16 2 -14 3 2 6 -31 7 -75 0 -75 6
-100 21 -86 12 12 4 181 -11 247 -48 203 -158 388 -252 422 -18 6 -34 17 -34
22 0 17 89 299 114 365 17 43 21 62 13 70 -17 17 -29 13 -22 -9z m-12 -527
l29 -33 -28 15 c-32 16 -39 12 -48 -27 -7 -29 2 -36 21 -17 7 7 14 6 24 -3 8
-7 22 -14 32 -16 43 -7 89 -78 89 -135 -1 -16 6 -31 14 -34 8 -3 14 -13 14
-22 0 -10 3 -21 7 -25 4 -3 8 -14 9 -23 2 -9 5 -27 9 -40 5 -22 -12 -33 -28
-16 -4 3 -21 8 -39 10 -37 4 -68 29 -68 55 0 10 -7 21 -15 24 -10 4 -14 14
-10 28 5 17 4 18 -4 6 -10 -13 -14 -11 -31 10 -20 26 -21 28 -24 70 -1 33 16
41 29 13 13 -31 27 -29 15 2 -12 31 8 34 33 5 9 -11 12 -20 6 -20 -6 0 -9 -6
-6 -12 7 -22 31 -14 38 12 l7 25 0 -25 c0 -14 -3 -33 -7 -44 -7 -17 -8 -17
-23 -2 -19 18 -38 21 -38 6 0 -5 7 -10 15 -10 8 0 15 -7 15 -15 0 -9 6 -12 16
-8 13 5 15 2 9 -16 -3 -12 -3 -21 2 -20 31 5 43 -3 43 -30 0 -18 6 -31 16 -35
24 -9 29 0 16 29 -6 14 -9 32 -5 42 5 12 2 15 -10 10 -10 -4 -21 3 -32 20 -16
24 -16 25 -1 20 18 -7 22 8 5 19 -6 3 -8 15 -6 25 4 13 -7 32 -29 56 -32 33
-36 35 -51 21 -14 -15 -17 -15 -36 2 -22 21 -39 18 -30 -5 3 -9 -1 -15 -9 -15
-12 0 -14 12 -12 52 1 29 7 54 13 56 16 5 13 49 -4 56 -8 3 -15 10 -15 15 0
16 52 -19 83 -56z m-72 18 c-7 -5 -13 -20 -13 -35 0 -14 -5 -26 -10 -26 -5 0
-7 12 -4 28 2 15 5 30 5 35 1 4 9 7 19 7 13 0 14 -2 3 -9z m114 -71 c3 -5 1
-10 -4 -10 -6 0 -11 5 -11 10 0 6 2 10 4 10 3 0 8 -4 11 -10z m0 -330 c-3 -5
-11 -10 -16 -10 -6 0 -7 5 -4 10 3 6 11 10 16 10 6 0 7 -4 4 -10z"/>
<path d="M3161 6494 c0 -12 7 -28 17 -35 15 -12 16 -12 6 1 -7 8 -14 24 -17
35 -4 19 -5 19 -6 -1z"/>
<path d="M3251 6356 c-7 -8 -8 -17 -3 -20 6 -3 13 1 16 10 9 23 2 28 -13 10z"/>
<path d="M2934 6751 c-43 -19 -81 -60 -90 -95 -5 -21 -9 -21 -347 -22 -342 -1
-497 -12 -606 -45 -46 -14 -44 -9 -90 -194 -87 -345 -104 -673 -50 -930 33
-154 97 -300 200 -456 80 -120 381 -422 438 -440 60 -18 240 -23 291 -8 25 7
50 13 56 14 39 2 328 306 423 444 183 269 252 552 221 909 -7 83 -16 156 -20
162 -6 9 -16 6 -39 -10 -41 -31 -128 -39 -176 -16 -19 10 -40 14 -45 11 -6 -3
-10 -1 -10 4 0 6 -6 11 -14 11 -8 0 -18 9 -21 20 -7 22 -20 26 -30 10 -3 -5 1
-10 9 -10 9 0 16 -9 16 -20 0 -13 5 -18 15 -14 10 4 15 0 15 -11 0 -11 5 -15
16 -11 8 3 31 -1 51 -9 19 -8 47 -15 61 -15 14 0 22 -3 19 -6 -9 -9 12 -46 23
-39 5 3 7 14 5 25 -4 23 10 27 18 6 3 -8 -6 -27 -21 -42 -17 -18 -21 -25 -10
-21 12 4 15 2 11 -9 -6 -16 5 -18 27 -4 12 8 12 12 2 18 -10 7 -10 11 3 22 8
7 15 23 15 36 0 29 16 40 35 24 17 -14 21 -65 5 -55 -5 3 -10 -1 -10 -9 0 -9
6 -13 14 -10 11 4 15 -8 18 -50 1 -31 0 -56 -4 -56 -9 0 -11 20 -8 63 1 22 -2
28 -17 25 -12 -2 -18 3 -17 15 1 9 -2 17 -7 17 -5 0 -9 -11 -9 -25 0 -16 6
-25 15 -25 8 0 15 -5 15 -11 0 -5 -4 -7 -10 -4 -5 3 -10 -1 -10 -9 0 -9 -5
-16 -11 -16 -5 0 -7 5 -4 10 3 6 3 15 -1 21 -4 8 -8 8 -13 0 -9 -14 -53 -2
-44 13 3 6 3 8 -2 4 -4 -4 -15 -2 -23 5 -13 10 -15 9 -9 -6 4 -10 7 -23 7 -28
0 -5 10 -8 22 -6 14 1 23 -4 26 -16 2 -10 0 -17 -5 -16 -19 3 -33 -2 -33 -12
0 -5 5 -7 10 -4 6 3 10 -2 11 -12 0 -16 1 -16 9 2 7 16 9 17 9 3 1 -9 8 -18
16 -20 12 -2 11 -6 -6 -16 -11 -8 -18 -9 -14 -3 3 6 1 11 -4 11 -16 0 -13 -15
9 -43 l20 -26 -22 -15 -22 -16 22 0 c17 0 21 -5 18 -22 -1 -13 -7 -21 -12 -20
-5 2 -8 8 -7 13 2 4 -4 6 -13 2 -11 -4 -12 -8 -4 -13 8 -5 7 -10 -4 -19 -8 -6
-16 -8 -18 -4 -3 4 -4 3 -2 -3 1 -6 -3 -17 -9 -23 -6 -6 -7 -11 -1 -11 5 0 15
9 22 20 7 12 17 18 22 15 5 -3 19 -1 31 6 17 9 20 8 17 -2 -3 -8 -15 -16 -29
-20 -13 -4 -19 -8 -14 -9 39 -7 57 -5 65 9 8 14 9 14 10 -1 0 -10 5 -18 10
-18 16 0 12 30 -5 36 -21 8 -20 64 1 64 9 0 14 8 13 18 -5 49 2 112 12 112 14
0 5 -217 -12 -315 -16 -86 -59 -225 -70 -225 -6 0 -7 -5 -4 -10 10 -16 -88
-213 -151 -301 -51 -72 -164 -201 -249 -282 -95 -91 -156 -112 -320 -111 -170
0 -218 17 -305 103 -37 36 -80 78 -96 92 -80 72 -208 235 -197 252 3 5 2 7 -4
4 -11 -7 -116 187 -106 196 3 4 2 7 -4 7 -5 0 -10 6 -11 13 0 6 -8 32 -17 57
-9 25 -18 52 -20 60 -2 8 -8 33 -14 55 -45 172 -50 549 -7 577 7 5 7 8 -3 8
-10 0 -12 13 -7 62 4 34 9 65 11 68 3 4 7 32 10 61 3 34 12 59 22 67 12 8 14
15 6 23 -7 7 -2 44 19 127 16 64 33 121 38 126 17 17 141 36 305 46 188 11
586 13 633 4 29 -6 29 -7 20 -40 -11 -42 -7 -146 7 -151 6 -2 10 11 10 29 0
22 5 32 17 34 10 1 20 -2 24 -7 8 -13 21 -11 27 5 4 10 1 13 -9 9 -10 -4 -14
2 -14 22 0 15 -4 24 -10 20 -6 -4 -9 -14 -8 -22 2 -9 -5 -17 -15 -19 -13 -2
-17 2 -13 13 3 8 6 24 6 34 0 15 6 19 22 17 11 -2 23 3 25 10 3 7 -1 10 -10 7
-7 -3 -19 1 -26 9 -10 12 -10 21 0 46 8 16 17 30 21 30 5 0 8 8 8 18 0 27 53
61 104 68 l44 7 -9 -39 c-4 -22 -9 -55 -9 -75 0 -20 -3 -39 -7 -43 -4 -4 -6
-25 -4 -47 2 -30 -2 -44 -16 -54 -16 -13 -16 -14 -1 -15 16 0 17 -9 4 -45 -14
-37 -15 -44 -6 -50 13 -8 29 58 40 170 10 97 16 146 26 193 4 20 1 22 -38 22
-24 0 -61 -9 -84 -19z m396 -930 c0 -33 -3 -42 -11 -34 -6 6 -18 9 -27 6 -10
-4 -13 -2 -8 5 4 7 14 12 22 12 8 0 14 9 14 21 0 17 -5 20 -21 16 -15 -4 -18
-2 -10 7 24 28 41 14 41 -33z"/>
<path d="M2951 6701 c-9 -6 -3 -10 18 -13 36 -5 38 -3 13 11 -10 5 -24 6 -31
2z"/>
<path d="M2918 6651 c-3 -19 -1 -28 6 -24 6 4 24 6 41 6 l30 -2 -32 12 c-18 7
-32 16 -32 20 2 24 -9 14 -13 -12z"/>
<path d="M2318 6663 c12 -2 30 -2 40 0 9 3 -1 5 -23 4 -22 0 -30 -2 -17 -4z"/>
<path d="M2870 6608 c15 -16 120 -31 120 -18 0 4 -23 10 -50 14 -28 4 -58 9
-68 13 -15 5 -15 4 -2 -9z"/>
<path d="M2363 6593 c15 -2 39 -2 55 0 15 2 2 4 -28 4 -30 0 -43 -2 -27 -4z"/>
<path d="M2000 6580 c-26 -4 4 -5 73 -2 79 3 117 2 117 -6 0 -6 -6 -13 -12
-15 -8 -3 -5 -6 6 -6 14 -1 17 -6 11 -23 -11 -36 -18 -84 -12 -77 4 3 8 16 10
29 2 13 9 26 15 28 12 4 10 -82 -3 -125 -6 -19 -2 -23 30 -29 23 -4 41 -2 48
5 6 6 7 11 1 11 -5 0 -10 9 -11 20 -1 11 2 20 8 20 5 0 8 -5 6 -11 -2 -14 50
-31 76 -25 19 5 22 -5 8 -19 -6 -6 1 -11 20 -12 26 -2 29 0 19 13 -16 18 -9
27 14 18 9 -3 13 -11 9 -16 -4 -7 4 -9 21 -6 14 3 26 1 26 -4 0 -5 4 -7 9 -4
10 7 217 7 308 1 34 -2 65 0 68 4 4 8 25 8 115 1 11 -1 9 -4 -5 -11 -17 -8
-17 -9 5 -4 14 2 40 5 58 5 17 0 32 5 32 10 0 6 -16 10 -35 10 -39 0 -80 32
-71 56 6 16 -12 18 -34 4 -13 -8 -11 -11 8 -16 12 -4 22 -11 22 -18 0 -15 -86
-9 -127 10 -18 8 -65 16 -105 19 -40 2 -80 7 -89 10 -10 4 -20 2 -24 -4 -4 -7
6 -11 27 -11 18 0 39 -4 47 -9 24 -15 -6 -23 -110 -28 -86 -4 -98 -2 -93 11 4
10 1 16 -9 16 -9 0 -18 -8 -20 -17 -4 -16 -5 -16 -6 1 -1 11 -6 16 -15 13 -9
-4 -13 -1 -10 6 2 8 -4 13 -15 13 -11 0 -17 -5 -14 -13 9 -22 -73 -17 -89 6
-8 12 -24 18 -46 17 -35 -1 -39 5 -17 28 8 8 12 22 9 30 -3 9 -1 16 5 16 6 0
11 -9 11 -21 0 -18 2 -19 15 -5 8 8 15 31 15 51 0 22 4 34 10 30 6 -3 10 1 10
9 0 9 -1 16 -2 16 -50 6 -286 6 -318 0z m735 -189 c-3 -5 7 -12 22 -14 16 -2
9 -4 -15 -3 -36 1 -40 3 -25 14 20 14 26 15 18 3z m-483 -16 c0 -5 -5 -11 -11
-13 -6 -2 -11 4 -11 13 0 9 5 15 11 13 6 -2 11 -8 11 -13z m598 -15 c11 -8 7
-9 -15 -4 -37 8 -45 14 -19 14 10 0 26 -5 34 -10z"/>
<path d="M2526 6569 c3 -5 12 -9 21 -9 19 0 9 13 -12 16 -8 1 -13 -2 -9 -7z"/>
<path d="M2973 6554 c-9 -9 -10 -15 -2 -20 14 -8 30 8 21 22 -5 9 -10 8 -19
-2z"/>
<path d="M1883 6536 c4 -10 7 -24 7 -32 0 -8 5 -14 10 -14 15 0 6 53 -10 58
-9 3 -11 -1 -7 -12z"/>
<path d="M2122 6531 c-11 -7 -11 -9 1 -14 9 -3 18 1 21 9 6 16 -2 18 -22 5z"/>
<path d="M2311 6524 c0 -11 3 -14 6 -6 3 7 2 16 -1 19 -3 4 -6 -2 -5 -13z"/>
<path d="M2911 6524 c0 -11 3 -14 6 -6 3 7 2 16 -1 19 -3 4 -6 -2 -5 -13z"/>
<path d="M2938 6495 c-10 -10 14 -45 31 -45 12 0 12 2 -1 13 -9 6 -17 18 -20
25 -2 7 -6 10 -10 7z"/>
<path d="M1855 6435 c-16 -54 -13 -85 5 -56 10 18 23 101 16 108 -2 3 -12 -20
-21 -52z"/>
<path d="M2311 6474 c0 -11 3 -14 6 -6 3 7 2 16 -1 19 -3 4 -6 -2 -5 -13z"/>
<path d="M3074 6476 c3 -10 2 -24 -3 -30 -6 -7 -4 -16 5 -24 13 -11 14 -8 11
23 -3 19 -8 39 -12 43 -5 4 -5 -1 -1 -12z"/>
<path d="M2855 6460 c-3 -6 1 -13 9 -16 9 -3 13 -11 9 -17 -3 -6 -1 -7 5 -3 9
5 9 13 2 27 -12 22 -16 23 -25 9z"/>
<path d="M2915 6457 c-8 -19 -2 -31 13 -26 5 2 6 13 2 24 -7 19 -8 19 -15 2z"/>
<path d="M2100 6440 c0 -5 5 -10 11 -10 5 0 7 5 4 10 -3 6 -8 10 -11 10 -2 0
-4 -4 -4 -10z"/>
<path d="M2050 6430 c0 -5 6 -10 14 -10 8 0 18 5 21 10 3 6 -3 10 -14 10 -12
0 -21 -4 -21 -10z"/>
<path d="M3032 6420 c0 -14 2 -19 5 -12 2 6 2 18 0 25 -3 6 -5 1 -5 -13z"/>
<path d="M2167 6418 c-10 -5 -27 -11 -39 -13 -12 -3 -26 -10 -32 -16 -8 -9 -8
-10 2 -5 10 6 11 1 6 -19 -7 -28 -3 -29 54 -8 7 3 12 -3 12 -13 0 -14 3 -15
12 -6 14 14 -4 39 -35 45 -13 3 -7 5 14 6 22 0 39 7 42 15 7 18 -14 27 -36 14z"/>
<path d="M2465 6420 c3 -5 12 -7 20 -3 21 7 19 13 -6 13 -11 0 -18 -4 -14 -10z"/>
<path d="M2530 6419 c0 -7 10 -9 25 -7 26 5 35 -6 13 -15 -7 -3 -4 -6 7 -6 14
-1 21 6 22 19 1 16 -4 20 -33 20 -19 0 -34 -5 -34 -11z"/>
<path d="M2365 6410 c3 -5 8 -10 11 -10 2 0 4 5 4 10 0 6 -5 10 -11 10 -5 0
-7 -4 -4 -10z"/>
<path d="M2505 6411 c-3 -5 -1 -12 5 -16 5 -3 10 1 10 9 0 18 -6 21 -15 7z"/>
<path d="M1935 6400 c-3 -5 -2 -10 4 -10 5 0 13 5 16 10 3 6 2 10 -4 10 -5 0
-13 -4 -16 -10z"/>
<path d="M2050 6400 c0 -5 5 -10 12 -10 21 0 -7 -20 -33 -25 -13 -2 -58 -6
-101 -10 -82 -7 -117 -23 -102 -46 5 -8 7 -22 6 -31 -2 -10 2 -18 7 -18 6 0
11 7 11 15 0 8 5 15 12 15 9 0 9 3 0 12 -17 17 -15 27 7 25 11 0 17 -5 15 -9
-3 -4 0 -8 5 -8 6 0 11 4 11 8 0 4 8 8 18 9 96 8 159 17 166 24 6 5 5 18 -2
34 -11 25 -32 34 -32 15z"/>
<path d="M2000 6390 c0 -5 4 -10 9 -10 6 0 13 5 16 10 3 6 -1 10 -9 10 -9 0
-16 -4 -16 -10z"/>
<path d="M1970 6380 c0 -5 5 -10 11 -10 5 0 7 5 4 10 -3 6 -8 10 -11 10 -2 0
-4 -4 -4 -10z"/>
<path d="M3088 6360 c-3 -16 -1 -30 4 -30 4 0 8 8 8 18 0 10 5 23 12 30 9 9 8
12 -4 12 -10 0 -17 -11 -20 -30z"/>
<path d="M2300 6360 c0 -5 5 -10 10 -10 6 0 10 5 10 10 0 6 -4 10 -10 10 -5 0
-10 -4 -10 -10z"/>
<path d="M2192 6328 c-7 -7 -12 -20 -12 -29 0 -10 -6 -20 -12 -23 -7 -3 1 -3
17 1 17 3 37 11 45 18 18 15 43 8 33 -8 -5 -9 -3 -9 8 -1 8 6 26 10 40 7 25
-3 48 21 34 35 -3 3 -5 0 -5 -6 0 -14 -77 -9 -93 7 -14 14 -40 14 -55 -1z m48
-8 c0 -5 -4 -10 -10 -10 -5 0 -10 5 -10 10 0 6 5 10 10 10 6 0 10 -4 10 -10z"/>
<path d="M2497 6333 c-13 -13 -7 -21 13 -16 12 3 20 0 20 -8 0 -7 3 -9 6 -6 7
7 -14 37 -26 37 -3 0 -10 -3 -13 -7z"/>
<path d="M2123 6323 c-7 -2 -13 -14 -13 -24 0 -25 16 -17 23 11 3 11 4 20 4
19 -1 0 -8 -3 -14 -6z"/>
<path d="M2147 6316 c-3 -8 -2 -18 4 -22 16 -9 22 2 11 21 -8 15 -10 16 -15 1z"/>
<path d="M2403 6313 c9 -9 20 -13 24 -9 4 4 1 11 -7 16 -25 16 -35 11 -17 -7z"/>
<path d="M3122 6321 c4 -13 18 -16 19 -4 0 4 -5 9 -11 12 -7 2 -11 -2 -8 -8z"/>
<path d="M1938 6301 c-73 -19 -85 -25 -69 -36 6 -3 11 -2 11 3 0 8 66 23 114
26 5 1 11 7 14 14 2 6 2 12 0 11 -1 0 -33 -9 -70 -18z"/>
<path d="M2035 6310 c-3 -5 -1 -10 4 -10 6 0 11 5 11 10 0 6 -2 10 -4 10 -3 0
-8 -4 -11 -10z"/>
<path d="M2073 6300 c3 -11 1 -20 -4 -20 -5 0 -9 -10 -8 -22 l0 -23 9 23 c5
12 14 22 19 22 5 0 7 9 4 20 -3 11 -10 20 -15 20 -6 0 -8 -9 -5 -20z"/>
<path d="M2452 6311 c2 -7 7 -12 11 -12 12 1 9 15 -3 20 -7 2 -11 -2 -8 -8z"/>
<path d="M2560 6305 c7 -8 16 -12 21 -9 13 8 1 24 -18 24 -13 0 -13 -3 -3 -15z"/>
<path d="M2360 6301 c0 -10 30 -24 37 -17 3 2 -5 9 -16 16 -12 6 -21 7 -21 1z"/>
<path d="M2600 6301 c0 -21 65 -29 73 -8 4 10 6 10 6 0 1 -17 18 -17 24 0 5
14 -39 17 -60 4 -7 -4 -14 -3 -18 3 -8 12 -25 13 -25 1z"/>
<path d="M2775 6300 c-3 -5 -1 -10 4 -10 6 0 11 5 11 10 0 6 -2 10 -4 10 -3 0
-8 -4 -11 -10z"/>
<path d="M2840 6299 c0 -5 -4 -7 -10 -4 -5 3 -10 1 -10 -4 0 -6 9 -11 20 -11
13 0 18 5 14 15 -7 17 -14 20 -14 4z"/>
<path d="M2966 6294 c-9 -22 3 -32 14 -14 12 19 12 30 1 30 -5 0 -12 -7 -15
-16z"/>
<path d="M3050 6300 c0 -5 5 -10 11 -10 5 0 7 5 4 10 -3 6 -8 10 -11 10 -2 0
-4 -4 -4 -10z"/>
<path d="M2883 6293 c-19 -7 -16 -22 5 -21 9 0 25 -3 36 -7 18 -8 18 -7 0 13
-19 23 -21 24 -41 15z"/>
<path d="M2705 6279 c-4 -6 -3 -15 3 -21 6 -6 11 -4 15 6 7 18 -9 31 -18 15z"/>
<path d="M1989 6269 c-15 -9 1 -17 26 -13 17 2 18 1 5 -9 -15 -12 -24 -51 -10
-42 5 3 10 -3 13 -12 4 -17 4 -17 12 1 5 12 3 21 -6 27 -10 6 -11 11 -3 17 18
12 12 38 -8 38 -10 0 -24 -3 -29 -7z"/>
<path d="M2344 6264 c5 -13 4 -14 -7 -6 -10 9 -14 9 -14 -1 0 -17 34 -19 41
-2 2 7 -2 16 -11 19 -11 5 -14 2 -9 -10z"/>
<path d="M2427 6273 c-4 -3 -17 -7 -29 -8 -12 -1 -24 -8 -26 -15 -3 -9 1 -11
12 -7 13 5 16 3 12 -11 -3 -9 -1 -24 4 -32 8 -12 10 -10 8 10 -2 18 2 25 17
25 11 0 27 -3 36 -7 9 -4 20 -3 26 3 6 6 19 6 36 0 30 -12 32 -9 16 20 -8 16
-13 18 -25 9 -7 -7 -22 -9 -31 -6 -15 6 -15 8 -3 16 12 8 12 10 2 10 -8 0 -16
-9 -19 -20 -3 -11 -10 -17 -15 -14 -5 3 -7 12 -4 20 6 14 -6 19 -17 7z"/>
<path d="M2750 6266 c14 -18 13 -19 -5 -13 l-20 7 20 -16 c19 -15 19 -16 2
-29 -15 -11 -16 -17 -7 -34 11 -21 50 -30 50 -12 0 17 -22 24 -31 10 -8 -13
-8 -7 0 41 1 3 5 0 9 -6 5 -7 14 -7 30 2 13 6 19 15 14 18 -6 3 -13 2 -17 -4
-9 -15 -28 -12 -22 4 3 8 -4 22 -16 33 -21 18 -21 18 -7 -1z"/>
<path d="M2997 6259 c-9 -33 -9 -39 4 -39 5 0 8 4 5 9 -4 5 -2 11 3 13 4 1 5
12 1 22 -6 18 -7 18 -13 -5z"/>
<path d="M2099 6268 c-1 -5 -3 -12 -4 -18 -1 -5 -3 -14 -4 -20 0 -5 -8 -10
-16 -10 -8 0 -15 -5 -15 -11 0 -6 6 -9 14 -6 13 5 26 -12 26 -34 0 -15 -22
-10 -35 7 -11 16 -12 16 -18 0 -4 -11 -1 -16 11 -16 14 0 14 -2 3 -9 -8 -5
-20 -7 -28 -4 -7 3 -13 -1 -13 -10 0 -8 7 -18 16 -21 8 -3 12 -2 9 4 -3 5 5
15 18 21 32 14 81 -14 72 -41 -7 -23 11 -35 28 -18 19 19 28 48 15 48 -6 0 -6
6 3 18 7 9 9 14 5 10 -14 -12 -33 34 -26 62 8 27 -13 59 -25 40 -3 -6 -3 -10
2 -10 8 0 11 -68 2 -73 -2 -1 -16 9 -29 22 -18 17 -20 22 -7 18 12 -5 17 -1
17 11 0 18 -19 53 -21 40z m65 -117 c3 -5 0 -11 -8 -14 -15 -6 -26 1 -26 15 0
11 27 10 34 -1z m6 -37 c0 -8 -4 -12 -10 -9 -5 3 -10 10 -10 16 0 5 5 9 10 9
6 0 10 -7 10 -16z"/>
<path d="M2187 6243 c-11 -23 -11 -33 -2 -51 7 -13 16 -19 19 -14 3 6 2 13 -4
17 -19 12 2 27 27 20 33 -8 26 17 -8 26 -16 5 -18 7 -6 8 21 1 23 21 2 21 -8
0 -21 -12 -28 -27z"/>
<path d="M2255 6260 c3 -5 10 -10 16 -10 5 0 9 5 9 10 0 6 -7 10 -16 10 -8 0
-12 -4 -9 -10z"/>
<path d="M2555 6260 c-7 -11 2 -30 13 -30 4 0 8 9 8 20 0 21 -11 26 -21 10z"/>
<path d="M2606 6261 c-18 -7 -18 -8 -3 -14 9 -3 17 -2 17 3 0 6 5 10 11 10 5
0 7 -4 4 -10 -3 -5 -1 -10 5 -10 13 0 8 23 -6 26 -5 1 -18 -1 -28 -5z"/>
<path d="M1910 6239 c0 -18 2 -19 15 -9 15 12 12 30 -6 30 -5 0 -9 -10 -9 -21z"/>
<path d="M2668 6254 c-9 -9 24 -44 42 -44 11 1 10 4 -5 16 -11 8 -19 18 -17
22 5 9 -12 14 -20 6z"/>
<path d="M2820 6250 c0 -13 11 -13 30 0 12 8 11 10 -7 10 -13 0 -23 -4 -23
-10z"/>
<path d="M2948 6252 c-10 -2 -18 -8 -18 -13 0 -13 27 -11 35 2 9 13 4 16 -17
11z"/>
<path d="M3127 6253 c-9 -14 18 -73 33 -73 15 0 12 18 -4 27 -8 4 -16 19 -18
33 -2 17 -6 21 -11 13z"/>
<path d="M1800 6240 c0 -5 6 -10 13 -10 8 0 7 -3 -3 -10 -8 -5 -11 -12 -7 -16
3 -4 13 -1 21 5 20 17 56 4 56 -20 0 -10 5 -19 11 -19 6 0 9 -7 5 -15 -6 -16
11 -20 30 -7 15 10 25 42 14 42 -6 0 -10 -7 -10 -16 0 -9 -6 -14 -12 -11 -7 2
-13 12 -13 23 0 10 -7 25 -15 32 -8 8 -9 11 -2 7 6 -3 12 -1 12 6 0 7 -12 10
-32 6 -18 -2 -41 0 -50 5 -12 5 -18 5 -18 -2z"/>
<path d="M2275 6239 c-4 -6 -4 -13 -1 -16 8 -8 36 5 36 17 0 13 -27 13 -35 -1z"/>
<path d="M2885 6240 c-3 -6 1 -7 9 -4 18 7 21 14 7 14 -6 0 -13 -4 -16 -10z"/>
<path d="M3030 6240 c0 -5 5 -10 10 -10 6 0 10 5 10 10 0 6 -4 10 -10 10 -5 0
-10 -4 -10 -10z"/>
<path d="M3165 6240 c3 -5 11 -10 16 -10 6 0 7 5 4 10 -3 6 -11 10 -16 10 -6
0 -7 -4 -4 -10z"/>
<path d="M1970 6221 c0 -6 -9 -8 -20 -6 -11 2 -20 -1 -20 -7 0 -5 6 -8 14 -5
7 3 19 1 25 -4 6 -5 9 -6 6 -3 -3 4 0 13 6 21 9 9 8 13 0 13 -6 0 -11 -4 -11
-9z"/>
<path d="M2340 6220 c18 -12 30 -13 30 -2 0 4 -10 9 -22 9 -18 2 -20 0 -8 -7z"/>
<path d="M2960 6214 c0 -8 5 -12 10 -9 6 3 10 10 10 16 0 5 -4 9 -10 9 -5 0
-10 -7 -10 -16z"/>
<path d="M2851 6201 c-9 -16 -8 -18 8 -14 12 3 17 11 14 19 -7 18 -10 18 -22
-5z"/>
<path d="M1840 6195 c0 -8 5 -15 10 -15 6 0 10 7 10 15 0 8 -4 15 -10 15 -5 0
-10 -7 -10 -15z"/>
<path d="M2265 6200 c-4 -6 -1 -10 5 -10 7 0 10 -7 7 -15 -8 -19 5 -26 23 -14
12 8 12 12 2 16 -6 2 -10 8 -7 13 3 4 -2 10 -10 14 -8 3 -17 1 -20 -4z"/>
<path d="M2340 6201 c0 -5 7 -14 15 -21 12 -10 15 -10 15 3 0 8 -7 17 -15 21
-8 3 -15 2 -15 -3z"/>
<path d="M2463 6203 c-7 -3 -13 -11 -13 -19 0 -9 -4 -12 -10 -9 -5 3 -10 -2
-10 -12 1 -16 3 -15 19 5 18 21 48 32 36 13 -10 -18 15 -22 37 -7 12 9 30 16
40 16 10 0 18 4 18 9 0 5 -11 9 -25 9 -14 0 -25 -6 -25 -12 0 -6 -5 -4 -11 4
-9 13 -10 13 -6 -2 3 -9 0 -19 -8 -22 -9 -3 -12 0 -9 8 6 15 -14 26 -33 19z"/>
<path d="M2230 6189 c0 -5 5 -7 10 -4 6 3 10 8 10 11 0 2 -4 4 -10 4 -5 0 -10
-5 -10 -11z"/>
<path d="M2998 6164 c13 -28 18 -32 21 -18 2 10 -2 20 -8 22 -6 2 -11 10 -11
18 0 8 -4 14 -10 14 -5 0 -2 -16 8 -36z"/>
<path d="M1795 6179 c-4 -6 -5 -12 -2 -15 2 -3 7 2 10 11 7 17 1 20 -8 4z"/>
<path d="M2590 6180 c0 -5 5 -10 10 -10 6 0 10 5 10 10 0 6 -4 10 -10 10 -5 0
-10 -4 -10 -10z"/>
<path d="M2630 6170 c0 -11 -5 -20 -12 -20 -6 0 -9 -2 -6 -5 3 -3 16 -2 28 3
16 6 19 11 12 16 -7 4 -10 12 -7 17 4 5 1 9 -4 9 -6 0 -11 -9 -11 -20z"/>
<path d="M1980 6170 c0 -15 21 -23 32 -12 6 6 2 11 -11 15 -12 3 -21 1 -21 -3z"/>
<path d="M2325 6170 c3 -5 8 -10 11 -10 2 0 4 5 4 10 0 6 -5 10 -11 10 -5 0
-7 -4 -4 -10z"/>
<path d="M2390 6170 c0 -5 5 -10 10 -10 6 0 10 5 10 10 0 6 -4 10 -10 10 -5 0
-10 -4 -10 -10z"/>
<path d="M2680 6170 c-8 -5 -12 -12 -9 -15 8 -8 39 5 39 16 0 11 -11 11 -30
-1z"/>
<path d="M2805 6161 c4 -12 2 -21 -4 -21 -6 0 -11 -8 -11 -17 0 -15 2 -15 9
-4 8 12 12 12 25 2 11 -9 16 -10 16 -2 0 6 -5 11 -11 11 -5 0 -9 10 -7 22 2
11 -3 23 -11 26 -9 3 -11 -1 -6 -17z"/>
<path d="M2245 6160 c4 -6 -5 -10 -19 -10 -16 0 -26 -6 -26 -15 0 -20 24 -19
44 1 18 18 21 34 5 34 -5 0 -7 -4 -4 -10z"/>
<path d="M2527 6156 c-3 -8 0 -20 8 -26 8 -6 11 -18 9 -25 -4 -9 1 -13 15 -12
l21 1 -21 22 c-12 13 -18 27 -15 33 4 5 2 12 -3 15 -5 3 -11 -1 -14 -8z"/>
<path d="M1838 6141 c-9 -11 -14 -22 -11 -25 8 -7 35 22 31 34 -2 6 -11 2 -20
-9z"/>
<path d="M2356 6152 c-2 -4 0 -14 5 -22 8 -13 10 -13 18 0 10 15 6 30 -9 30
-5 0 -11 -4 -14 -8z"/>
<path d="M2720 6146 c0 -9 5 -16 10 -16 6 0 10 4 10 9 0 6 -4 13 -10 16 -5 3
-10 -1 -10 -9z"/>
<path d="M1965 6139 c-4 -6 -5 -12 -2 -15 2 -3 7 2 10 11 7 17 1 20 -8 4z"/>
<path d="M2488 6136 c-10 -7 -15 -16 -11 -19 10 -10 25 -8 19 2 -4 5 0 11 6
14 7 2 11 7 8 10 -3 3 -13 0 -22 -7z"/>
<path d="M2566 6142 c6 -4 16 -16 21 -27 10 -17 11 -17 10 8 -2 20 -7 27 -22
27 -12 0 -16 -3 -9 -8z"/>
<path d="M1986 6125 c-6 -17 -36 -21 -36 -5 0 6 -4 10 -10 10 -5 0 -7 -7 -4
-15 4 -8 1 -22 -5 -29 -8 -10 -9 -16 -1 -21 5 -3 10 -2 10 3 0 5 16 20 36 34
20 14 31 29 26 32 -6 3 -12 -1 -16 -9z"/>
<path d="M2260 6133 c0 -4 5 -15 10 -23 8 -13 10 -13 10 2 0 9 -4 20 -10 23
-5 3 -10 3 -10 -2z"/>
<path d="M2290 6125 c0 -9 9 -15 25 -15 14 0 25 5 25 11 0 5 -4 8 -9 4 -5 -3
-12 -1 -16 5 -9 15 -25 12 -25 -5z"/>
<path d="M2880 6129 c0 -5 5 -7 10 -4 6 3 10 8 10 11 0 2 -4 4 -10 4 -5 0 -10
-5 -10 -11z"/>
<path d="M2070 6119 c0 -12 38 -31 44 -21 2 4 -7 12 -20 19 -13 6 -24 7 -24 2z"/>
<path d="M2415 6120 c-3 -5 1 -10 9 -10 9 0 16 5 16 10 0 6 -4 10 -9 10 -6 0
-13 -4 -16 -10z"/>
<path d="M2630 6120 c0 -5 7 -10 16 -10 8 0 13 -4 9 -9 -3 -5 -1 -12 5 -16 11
-7 13 5 4 29 -7 17 -34 22 -34 6z"/>
<path d="M2675 6120 c-3 -6 1 -13 10 -16 21 -9 26 -2 10 13 -9 8 -16 9 -20 3z"/>
<path d="M2898 6100 c-19 -21 -12 -31 13 -21 10 4 14 12 10 24 -6 16 -7 16
-23 -3z"/>
<path d="M1895 6100 c-3 -6 1 -7 9 -4 18 7 21 14 7 14 -6 0 -13 -4 -16 -10z"/>
<path d="M2000 6100 c0 -5 7 -10 16 -10 8 0 12 5 9 10 -3 6 -10 10 -16 10 -5
0 -9 -4 -9 -10z"/>
<path d="M2207 6093 c3 -8 -2 -13 -13 -13 -16 0 -17 -2 -4 -10 11 -7 19 -5 28
7 16 22 15 30 -2 30 -8 0 -12 -6 -9 -14z"/>
<path d="M2460 6095 c7 -9 15 -13 17 -11 7 7 -7 26 -19 26 -6 0 -6 -6 2 -15z"/>
<path d="M2767 6103 c-4 -3 -17 -7 -29 -8 -22 -2 -39 -25 -19 -25 6 0 11 -10
11 -22 0 -18 2 -20 9 -9 5 8 7 19 5 26 -3 8 6 10 28 8 30 -4 31 -3 16 10 -10
8 -15 17 -11 20 3 4 4 7 1 7 -2 0 -8 -3 -11 -7z"/>
<path d="M2961 6093 c12 -15 12 -16 -3 -10 -12 4 -15 2 -11 -9 6 -15 33 -20
33 -5 0 18 -12 41 -22 41 -6 0 -4 -8 3 -17z"/>
<path d="M3233 6103 c-14 -5 -18 -23 -5 -23 5 0 17 7 28 15 14 11 15 14 4 14
-8 0 -21 -3 -27 -6z"/>
<path d="M1845 6090 c3 -5 8 -10 11 -10 2 0 4 5 4 10 0 6 -5 10 -11 10 -5 0
-7 -4 -4 -10z"/>
<path d="M2341 6091 c-10 -6 -10 -10 -1 -16 6 -4 14 -4 17 -1 3 3 12 1 19 -5
10 -8 18 -7 30 6 16 16 16 17 -7 14 -13 -2 -29 0 -34 3 -6 4 -17 3 -24 -1z"/>
<path d="M2505 6090 c-3 -5 1 -10 9 -10 9 0 16 5 16 10 0 6 -4 10 -9 10 -6 0
-13 -4 -16 -10z"/>
<path d="M2275 6068 c-19 -20 -19 -21 -1 -14 12 4 23 0 32 -11 13 -17 13 -17
14 0 0 9 -4 17 -10 17 -5 0 -7 7 -4 15 9 21 -7 18 -31 -7z"/>
<path d="M2440 6081 c0 -6 4 -13 10 -16 6 -3 7 1 4 9 -7 18 -14 21 -14 7z"/>
<path d="M1901 6064 c0 -11 3 -14 6 -6 3 7 2 16 -1 19 -3 4 -6 -2 -5 -13z"/>
<path d="M1980 6069 c0 -5 8 -9 18 -9 10 0 23 -5 29 -11 9 -9 11 -7 7 8 -4 14
-14 21 -30 21 -13 0 -24 -4 -24 -9z"/>
<path d="M2110 6068 c0 -7 11 -14 26 -14 23 -2 24 -1 7 12 -23 17 -33 17 -33
2z"/>
<path d="M2566 6072 c6 -4 14 -14 17 -22 4 -10 6 -8 6 8 1 15 -5 22 -16 22
-11 0 -14 -3 -7 -8z"/>
<path d="M2820 6069 c0 -8 11 -16 25 -17 17 -1 25 3 25 14 0 13 -3 14 -13 5
-10 -8 -17 -7 -25 1 -9 9 -12 9 -12 -3z"/>
<path d="M1800 6059 c0 -5 5 -7 10 -4 6 3 10 8 10 11 0 2 -4 4 -10 4 -5 0 -10
-5 -10 -11z"/>
<path d="M1843 6052 c-8 -14 -8 -19 1 -19 7 0 13 9 13 19 1 10 1 18 0 18 -1 0
-7 -8 -14 -18z"/>
<path d="M1956 6063 c-11 -11 -6 -23 8 -23 8 0 16 -6 19 -12 2 -7 8 -10 11 -6
4 3 -1 15 -12 26 -11 11 -23 18 -26 15z"/>
<path d="M2070 6060 c0 -5 5 -10 10 -10 6 0 10 5 10 10 0 6 -4 10 -10 10 -5 0
-10 -4 -10 -10z"/>
<path d="M2225 6060 c-3 -5 1 -10 9 -10 9 0 16 5 16 10 0 6 -4 10 -9 10 -6 0
-13 -4 -16 -10z"/>
<path d="M2520 6054 c0 -8 5 -12 10 -9 6 3 10 10 10 16 0 5 -4 9 -10 9 -5 0
-10 -7 -10 -16z"/>
<path d="M2917 6062 c-3 -4 3 -13 14 -20 10 -7 19 -8 19 -3 0 13 -28 33 -33
23z"/>
<path d="M2680 6053 c1 -18 18 -35 24 -24 4 6 4 16 1 21 -7 12 -25 13 -25 3z"/>
<path d="M2772 6051 c4 -13 18 -16 19 -4 0 4 -5 9 -11 12 -7 2 -11 -2 -8 -8z"/>
<path d="M2880 6046 c0 -23 16 -27 17 -5 1 10 -2 19 -8 19 -5 0 -9 -6 -9 -14z"/>
<path d="M1921 6034 c0 -11 3 -14 6 -6 3 7 2 16 -1 19 -3 4 -6 -2 -5 -13z"/>
<path d="M2340 6042 c0 -10 22 -32 32 -32 15 0 8 28 -8 34 -21 8 -24 8 -24 -2z"/>
<path d="M2395 6041 c-3 -5 -1 -12 5 -16 5 -3 10 1 10 9 0 18 -6 21 -15 7z"/>
<path d="M2068 6023 c-9 -10 -19 -28 -22 -40 -4 -13 -14 -23 -22 -23 -17 0
-18 -19 -3 -40 9 -13 10 -12 5 2 -3 10 -1 20 4 23 14 8 39 -6 34 -19 -3 -7 2
-19 11 -26 8 -7 15 -16 15 -21 0 -11 -23 -7 -32 6 -4 6 -8 -1 -8 -14 0 -15 5
-21 13 -18 8 3 20 1 28 -4 9 -5 10 -9 2 -9 -13 0 -13 -52 1 -61 11 -9 -3 -31
-15 -24 -5 4 -9 0 -9 -8 0 -23 33 -10 46 18 10 19 9 22 -4 18 -10 -4 -13 -1
-10 8 3 8 14 13 24 11 19 -2 19 -2 0 13 -11 8 -19 27 -19 45 0 16 -4 30 -9 30
-4 0 -8 5 -8 10 0 6 7 10 15 10 8 0 22 11 31 25 15 24 15 27 0 43 -18 21 -4
44 23 35 13 -4 13 -3 2 5 -8 6 -20 8 -28 5 -7 -3 -13 0 -13 6 0 17 -35 13 -52
-6z m36 -9 c9 -22 8 -25 -6 -22 -7 2 -14 -2 -15 -7 -2 -6 5 -10 15 -11 40 -2
41 -3 29 -29 -7 -14 -18 -23 -24 -20 -7 2 -13 0 -13 -6 0 -6 -5 -7 -10 -4 -8
5 -7 11 1 21 9 11 8 14 -5 14 -18 0 -21 31 -6 61 13 23 26 24 34 3z"/>
<path d="M2630 6021 c-13 -26 -13 -51 1 -51 6 0 9 7 5 15 -3 8 -2 15 2 15 4 0
8 9 9 20 2 25 -3 25 -17 1z"/>
<path d="M2985 6017 l-20 -20 21 11 c12 6 24 8 28 5 3 -3 6 -1 6 5 0 20 -15
20 -35 -1z"/>
<path d="M3126 6026 c3 -8 12 -12 20 -9 17 6 9 23 -11 23 -8 0 -12 -6 -9 -14z"/>
<path d="M1891 6007 c-13 -21 -12 -21 5 -5 10 10 16 20 13 22 -3 3 -11 -5 -18
-17z"/>
<path d="M1947 6017 c-2 -6 -1 -19 2 -28 4 -12 12 -14 29 -8 12 5 22 14 22 21
0 9 -3 9 -12 0 -17 -17 -31 -15 -25 3 4 8 2 17 -2 20 -5 3 -11 -1 -14 -8z"/>
<path d="M2220 6020 c0 -5 5 -10 11 -10 5 0 7 5 4 10 -3 6 -8 10 -11 10 -2 0
-4 -4 -4 -10z"/>
<path d="M2530 6021 c0 -5 7 -11 15 -15 9 -3 15 0 15 9 0 8 -7 15 -15 15 -8 0
-15 -4 -15 -9z"/>
<path d="M2582 6018 c2 -6 10 -14 16 -16 7 -2 10 2 6 12 -7 18 -28 22 -22 4z"/>
<path d="M2842 6010 c-8 -14 -9 -19 -1 -18 6 2 14 -3 17 -11 3 -8 0 -11 -7 -7
-6 4 -11 1 -11 -8 0 -9 5 -16 10 -16 6 0 10 5 10 11 0 5 4 8 8 5 7 -4 8 27 3
57 -2 13 -16 7 -29 -13z"/>
<path d="M1845 6010 c-3 -5 1 -10 9 -10 9 0 16 5 16 10 0 6 -4 10 -9 10 -6 0
-13 -4 -16 -10z"/>
<path d="M2180 6011 c0 -5 7 -11 14 -14 10 -4 13 -1 9 9 -6 15 -23 19 -23 5z"/>
<path d="M2295 6010 c-3 -5 -1 -10 4 -10 6 0 11 5 11 10 0 6 -2 10 -4 10 -3 0
-8 -4 -11 -10z"/>
<path d="M2413 6008 c-24 -12 -31 -42 -12 -53 6 -4 9 0 7 11 -2 13 4 20 20 22
12 2 22 10 22 18 0 16 -7 17 -37 2z"/>
<path d="M2483 6013 c-21 -8 -15 -43 7 -43 11 0 20 5 20 10 0 6 -7 10 -16 10
-14 0 -14 3 -4 15 13 16 13 16 -7 8z"/>
<path d="M2701 6003 c-6 -10 -11 -12 -11 -5 0 6 -7 12 -16 12 -14 0 -14 -2 0
-15 12 -12 20 -14 36 -5 11 6 20 15 20 20 0 16 -18 11 -29 -7z"/>
<path d="M2930 6010 c0 -5 5 -10 11 -10 5 0 7 5 4 10 -3 6 -8 10 -11 10 -2 0
-4 -4 -4 -10z"/>
<path d="M3047 6000 c-3 -11 -1 -20 4 -20 5 0 9 9 9 20 0 11 -2 20 -4 20 -2 0
-6 -9 -9 -20z"/>
<path d="M3176 6003 c-6 -15 -8 -15 -16 -3 -6 8 -10 11 -10 5 0 -27 16 -32 33
-9 10 13 14 24 9 24 -6 0 -13 -8 -16 -17z"/>
<path d="M3315 6010 c-3 -5 -2 -10 4 -10 5 0 13 5 16 10 3 6 2 10 -4 10 -5 0
-13 -4 -16 -10z"/>
<path d="M2010 5989 c0 -11 5 -17 10 -14 6 3 10 13 10 21 0 8 -4 14 -10 14 -5
0 -10 -9 -10 -21z"/>
<path d="M2327 5995 c-8 -20 5 -26 26 -10 16 11 16 13 1 19 -21 8 -21 8 -27
-9z"/>
<path d="M2890 5998 c0 -22 12 -58 19 -58 11 0 4 64 -7 68 -7 2 -12 -2 -12
-10z"/>
<path d="M1916 5991 c-4 -7 -5 -15 -2 -18 9 -9 19 4 14 18 -4 11 -6 11 -12 0z"/>
<path d="M2240 5988 c30 -14 70 -17 70 -6 0 10 5 8 -50 13 -40 4 -42 3 -20 -7z"/>
<path d="M2727 5994 c-3 -3 -3 -12 -1 -19 3 -7 -2 -15 -10 -18 -23 -9 -20 -27
4 -22 11 2 25 7 30 10 6 3 10 1 10 -4 0 -6 -5 -11 -11 -11 -5 0 -7 -4 -4 -10
3 -5 -2 -10 -12 -11 -11 0 -13 -3 -5 -6 7 -3 20 1 29 9 15 11 16 10 11 -10 -4
-12 -2 -20 2 -17 5 3 11 1 15 -5 3 -5 10 -10 16 -10 9 0 6 7 -20 58 -10 19
-10 27 0 38 9 11 9 18 1 26 -11 11 -17 0 -13 -24 0 -5 -6 -8 -15 -8 -10 0 -14
6 -11 15 6 15 -6 29 -16 19z"/>
<path d="M3200 5989 c0 -5 5 -7 10 -4 6 3 10 8 10 11 0 2 -4 4 -10 4 -5 0 -10
-5 -10 -11z"/>
<path d="M2525 5980 c-3 -5 -1 -10 4 -10 6 0 11 5 11 10 0 6 -2 10 -4 10 -3 0
-8 -4 -11 -10z"/>
<path d="M2550 5978 c0 -9 4 -19 9 -22 12 -8 41 4 41 16 0 6 -8 7 -17 4 -9 -4
-20 -1 -25 6 -6 10 -8 9 -8 -4z"/>
<path d="M2796 5963 c-5 -18 -2 -31 9 -42 16 -15 17 -14 11 6 -4 12 -2 24 3
27 11 7 4 36 -9 36 -4 0 -11 -12 -14 -27z"/>
<path d="M2935 5981 c-3 -6 0 -18 9 -26 20 -20 32 -19 15 2 -8 9 -12 18 -11
20 2 3 1 7 -1 9 -3 3 -8 0 -12 -5z"/>
<path d="M2184 5969 c-3 -6 -1 -16 5 -22 8 -8 11 -5 11 11 0 24 -5 28 -16 11z"/>
<path d="M2641 5966 c-9 -10 -8 -16 4 -26 13 -11 14 -10 9 5 -6 15 -3 16 17
10 13 -4 22 -6 19 -3 -33 27 -38 28 -49 14z"/>
<path d="M3080 5971 c0 -5 5 -13 10 -16 6 -3 10 -2 10 4 0 5 -4 13 -10 16 -5
3 -10 2 -10 -4z"/>
<path d="M2220 5954 c0 -8 5 -12 10 -9 6 3 10 10 10 16 0 5 -4 9 -10 9 -5 0
-10 -7 -10 -16z"/>
<path d="M2360 5955 c-7 -9 -11 -18 -8 -20 7 -8 38 5 38 15 0 17 -18 19 -30 5z"/>
<path d="M3050 5959 c0 -5 5 -7 10 -4 6 3 10 8 10 11 0 2 -4 4 -10 4 -5 0 -10
-5 -10 -11z"/>
<path d="M1905 5950 c-3 -5 1 -10 10 -10 9 0 13 5 10 10 -3 6 -8 10 -10 10 -2
0 -7 -4 -10 -10z"/>
<path d="M1959 5953 c-1 -5 -1 -11 0 -15 0 -5 -5 -8 -11 -8 -7 0 -5 -5 5 -11
14 -8 22 -8 30 0 7 7 6 12 -6 17 -9 3 -14 10 -11 15 3 5 3 9 0 9 -3 0 -7 -3
-7 -7z"/>
<path d="M2289 5958 c-7 -25 -5 -38 8 -38 12 0 13 3 4 13 -6 8 -8 17 -4 20 3
4 3 7 0 7 -4 0 -7 -1 -8 -2z"/>
<path d="M2442 5940 c-9 -15 -7 -18 19 -22 33 -5 39 11 11 29 -15 9 -21 7 -30
-7z"/>
<path d="M1783 5943 c-15 -5 -17 -23 -4 -23 5 0 11 7 15 15 3 8 4 15 3 14 -1
0 -8 -3 -14 -6z"/>
<path d="M1823 5935 c0 -8 4 -15 7 -15 4 0 13 7 20 15 10 12 9 15 -7 15 -11 0
-20 -7 -20 -15z"/>
<path d="M3107 5944 c-4 -4 -7 -13 -7 -21 0 -18 27 -16 34 3 3 8 2 13 -3 9 -5
-3 -11 0 -13 6 -2 5 -7 7 -11 3z"/>
<path d="M3166 5942 c-3 -5 1 -9 9 -9 8 0 12 4 9 9 -3 4 -7 8 -9 8 -2 0 -6 -4
-9 -8z"/>
<path d="M1875 5930 c-3 -5 -1 -10 4 -10 6 0 11 5 11 10 0 6 -2 10 -4 10 -3 0
-8 -4 -11 -10z"/>
<path d="M2155 5929 c-4 -6 -5 -12 -2 -15 2 -3 7 2 10 11 7 17 1 20 -8 4z"/>
<path d="M2228 5926 c-15 -8 -28 -11 -30 -6 -2 4 -10 1 -18 -8 -13 -14 -12
-15 3 -9 9 3 17 2 17 -4 0 -5 11 -2 25 7 13 8 29 13 35 9 5 -3 10 1 10 9 0 20
-7 20 -42 2z"/>
<path d="M2400 5931 c0 -5 -2 -15 -5 -23 -8 -22 10 -41 34 -33 19 6 31 27 14
24 -25 -4 -34 3 -28 21 4 11 2 20 -4 20 -6 0 -11 -4 -11 -9z"/>
<path d="M2576 5925 c4 -8 8 -15 10 -15 2 0 4 7 4 15 0 8 -4 15 -10 15 -5 0
-7 -7 -4 -15z"/>
<path d="M2608 5928 c-3 -7 -3 -19 -1 -25 5 -15 33 -17 33 -3 0 6 -6 9 -12 8
-7 -2 -12 5 -10 15 3 20 -4 23 -10 5z"/>
<path d="M2850 5920 c0 -5 5 -10 10 -10 6 0 10 5 10 10 0 6 -4 10 -10 10 -5 0
-10 -4 -10 -10z"/>
<path d="M2900 5923 c0 -6 8 -17 18 -24 16 -13 16 -13 2 6 -8 11 -16 22 -17
24 -2 2 -3 0 -3 -6z"/>
<path d="M2956 5907 c-8 -31 -7 -37 5 -37 6 0 9 6 6 14 -3 7 -1 18 5 24 6 6 6
12 0 16 -5 3 -12 -4 -16 -17z"/>
<path d="M3055 5920 c3 -5 8 -10 11 -10 2 0 4 5 4 10 0 6 -5 10 -11 10 -5 0
-7 -4 -4 -10z"/>
<path d="M1910 5910 c0 -5 -6 -7 -13 -5 -6 3 -18 -4 -25 -15 -7 -12 -8 -20 -2
-20 5 0 10 4 10 9 0 5 11 12 25 15 24 6 36 26 15 26 -5 0 -10 -4 -10 -10z"/>
<path d="M2360 5911 c0 -7 -4 -9 -10 -6 -5 3 -18 1 -27 -4 -16 -9 -14 -10 9
-11 26 0 46 15 34 27 -3 4 -6 1 -6 -6z"/>
<path d="M2508 5906 c-13 -10 -15 -15 -6 -24 18 -18 26 -14 24 13 0 14 -1 25
-1 25 0 0 -8 -6 -17 -14z"/>
<path d="M2700 5911 c0 -12 -60 -42 -71 -36 -4 3 -10 1 -14 -5 -3 -5 -3 -10 2
-11 4 0 18 -2 31 -5 14 -2 21 0 17 6 -3 5 -1 11 4 11 6 1 16 2 23 3 10 1 23
46 13 46 -3 0 -5 -4 -5 -9z"/>
<path d="M1823 5895 c-17 -18 -16 -25 1 -25 7 0 16 9 19 20 6 23 -3 25 -20 5z"/>
<path d="M2544 5887 c1 -15 6 -30 11 -35 4 -4 5 -1 0 7 -6 11 -2 13 19 7 21
-5 27 -3 24 6 -3 7 -13 15 -24 17 -10 2 -22 8 -26 15 -4 6 -6 -2 -4 -17z"/>
<path d="M3020 5900 c0 -5 5 -10 10 -10 6 0 10 5 10 10 0 6 -4 10 -10 10 -5 0
-10 -4 -10 -10z"/>
<path d="M3140 5880 c1 -19 -1 -45 -5 -56 -4 -14 -2 -23 7 -26 10 -4 13 7 12
49 -1 30 -5 57 -8 61 -4 3 -6 -9 -6 -28z"/>
<path d="M1944 5889 c-3 -6 -1 -16 6 -22 10 -9 11 -9 6 0 -8 14 10 27 19 13 7
-12 25 -4 25 11 0 13 -47 11 -56 -2z"/>
<path d="M2132 5883 c-12 -25 -9 -46 7 -51 10 -3 12 1 8 19 -3 12 -1 29 5 36
7 9 7 13 0 13 -6 0 -15 -8 -20 -17z"/>
<path d="M2224 5884 c3 -9 6 -19 6 -23 0 -13 49 -31 55 -21 4 6 15 10 26 10
10 0 19 5 19 11 0 6 -7 9 -15 6 -8 -4 -17 -1 -21 4 -3 6 -17 8 -30 5 -17 -5
-24 -2 -24 9 0 8 -5 15 -11 15 -6 0 -8 -7 -5 -16z"/>
<path d="M2835 5889 c-4 -6 -5 -12 -2 -15 2 -3 7 2 10 11 7 17 1 20 -8 4z"/>
<path d="M2863 5886 c4 -10 2 -27 -4 -38 -8 -15 -8 -19 0 -14 15 10 14 -7 -1
-22 -9 -9 -8 -12 4 -12 12 0 16 7 13 29 -2 18 1 31 8 33 8 2 6 9 -7 22 -17 17
-19 17 -13 2z"/>
<path d="M2990 5878 c0 -19 2 -20 10 -8 13 19 13 30 0 30 -5 0 -10 -10 -10
-22z"/>
<path d="M3170 5885 c0 -8 7 -15 15 -15 8 0 15 4 15 9 0 5 -7 11 -15 15 -9 3
-15 0 -15 -9z"/>
<path d="M2012 5873 c2 -12 -3 -18 -14 -17 -10 1 -18 -2 -18 -7 0 -5 4 -9 9
-9 5 0 16 -3 25 -6 13 -5 16 1 16 25 0 17 -5 31 -10 31 -6 0 -10 -8 -8 -17z"/>
<path d="M3105 5880 c3 -5 8 -10 11 -10 2 0 4 5 4 10 0 6 -5 10 -11 10 -5 0
-7 -4 -4 -10z"/>
<path d="M1910 5860 c0 -11 -7 -20 -15 -20 -8 0 -15 -4 -15 -10 0 -6 10 -5 25
2 24 11 36 48 15 48 -5 0 -10 -9 -10 -20z"/>
<path d="M2180 5870 c-12 -8 -9 -10 13 -10 16 0 26 4 22 10 -8 12 -16 12 -35
0z"/>
<path d="M2466 5873 c6 -4 14 -15 17 -23 5 -11 6 -9 4 4 -1 11 -9 21 -17 23
-10 3 -11 2 -4 -4z"/>
<path d="M2728 5873 c7 -3 16 -2 19 1 4 3 -2 6 -13 5 -11 0 -14 -3 -6 -6z"/>
<path d="M2370 5860 c0 -5 7 -10 16 -10 8 0 12 5 9 10 -3 6 -10 10 -16 10 -5
0 -9 -4 -9 -10z"/>
<path d="M2922 5854 c-7 -8 -8 -14 -3 -14 10 0 25 19 20 25 -2 1 -10 -3 -17
-11z"/>
<path d="M3080 5860 c0 -5 5 -10 11 -10 5 0 7 5 4 10 -3 6 -8 10 -11 10 -2 0
-4 -4 -4 -10z"/>
<path d="M2433 5835 c2 -14 7 -24 12 -23 14 5 13 37 -2 42 -10 4 -13 -2 -10
-19z"/>
<path d="M2684 5848 c-4 -7 -3 -8 4 -4 7 4 12 2 12 -3 0 -6 11 -11 25 -11 14
0 25 5 25 11 0 6 -6 9 -12 6 -7 -2 -21 0 -30 4 -11 6 -19 5 -24 -3z"/>
<path d="M1830 5834 c0 -8 5 -12 10 -9 6 3 10 10 10 16 0 5 -4 9 -10 9 -5 0
-10 -7 -10 -16z"/>
<path d="M1950 5841 c0 -5 5 -13 10 -16 6 -3 10 -2 10 4 0 5 -4 13 -10 16 -5
3 -10 2 -10 -4z"/>
<path d="M2205 5840 c-4 -6 -11 -8 -16 -5 -5 4 -15 0 -23 -8 -12 -11 -11 -15
6 -26 18 -11 20 -11 15 2 -3 9 1 18 9 21 8 3 13 2 10 -3 -8 -13 18 -21 35 -10
11 7 9 10 -8 15 -13 4 -20 10 -17 15 3 5 3 9 0 9 -3 0 -8 -5 -11 -10z"/>
<path d="M2616 5843 c-11 -11 -6 -23 9 -23 8 0 15 4 15 9 0 13 -16 22 -24 14z"/>
<path d="M2950 5835 c0 -9 6 -12 15 -9 8 4 12 10 9 15 -8 14 -24 10 -24 -6z"/>
<path d="M2047 5833 c-8 -13 2 -43 14 -43 10 0 10 8 0 34 -5 12 -10 16 -14 9z"/>
<path d="M2292 5819 c-8 -12 -9 -18 -3 -14 6 3 11 2 11 -3 0 -6 7 -12 15 -16
9 -3 15 0 15 9 0 8 -7 15 -15 15 -9 0 -12 6 -9 15 9 22 1 18 -14 -6z"/>
<path d="M2330 5831 c0 -5 7 -12 16 -15 9 -4 12 -11 7 -18 -4 -7 -8 -17 -8
-22 0 -5 -9 -12 -20 -17 -18 -7 -18 -8 -2 -8 11 -1 27 9 37 21 16 20 16 25 3
45 -15 23 -33 31 -33 14z"/>
<path d="M2381 5824 c0 -11 3 -14 6 -6 3 7 2 16 -1 19 -3 4 -6 -2 -5 -13z"/>
<path d="M2550 5823 c0 -7 6 -13 14 -13 7 0 18 6 24 13 8 9 4 12 -14 12 -13 0
-24 -6 -24 -12z"/>
<path d="M1800 5807 c0 -30 24 -47 42 -29 8 8 4 9 -12 5 -18 -5 -22 -3 -18 9
4 8 2 21 -3 29 -6 10 -9 6 -9 -14z"/>
<path d="M1918 5822 c-10 -2 -19 -13 -19 -25 -1 -12 -3 -32 -4 -45 -2 -20 1
-23 20 -18 14 4 28 0 35 -9 7 -8 17 -15 22 -15 6 0 5 7 -2 15 -14 17 -7 45 13
45 15 0 17 34 2 37 -6 0 -9 -3 -7 -8 4 -15 -32 -44 -56 -46 -12 -1 -22 2 -22
8 0 5 5 9 11 9 6 0 9 7 5 15 -3 8 2 19 12 24 20 11 14 19 -10 13z"/>
<path d="M2675 5820 c-3 -5 -1 -10 4 -10 6 0 11 -6 11 -14 0 -9 -7 -12 -20 -9
-11 3 -20 0 -20 -6 0 -19 56 -9 57 10 2 22 -22 44 -32 29z"/>
<path d="M2924 5816 c4 -10 1 -26 -6 -34 -11 -13 -11 -14 0 -8 10 6 11 1 6
-18 -3 -15 -2 -26 4 -26 5 0 12 11 14 25 3 14 1 25 -4 25 -5 0 -6 4 -3 10 3 5
1 18 -5 27 -11 17 -11 17 -6 -1z"/>
<path d="M3054 5818 c-3 -5 -3 -12 0 -15 3 -4 6 -1 6 5 0 8 7 9 25 2 15 -6 26
-6 30 1 4 5 3 9 -2 8 -4 -1 -10 0 -13 1 -20 7 -41 7 -46 -2z"/>
<path d="M3175 5820 c3 -5 8 -10 11 -10 2 0 4 5 4 10 0 6 -5 10 -11 10 -5 0
-7 -4 -4 -10z"/>
<path d="M2895 5810 c-3 -5 -1 -10 4 -10 6 0 11 5 11 10 0 6 -2 10 -4 10 -3 0
-8 -4 -11 -10z"/>
<path d="M3001 5812 c-1 -8 -6 -10 -13 -6 -8 5 -7 1 2 -10 15 -19 26 -7 17 17
-4 9 -6 9 -6 -1z"/>
<path d="M1860 5797 c0 -8 7 -14 15 -14 11 0 12 4 4 14 -6 7 -13 13 -15 13 -2
0 -4 -6 -4 -13z"/>
<path d="M2010 5797 c0 -17 20 -37 37 -37 7 0 13 5 13 11 0 6 -7 9 -15 5 -10
-4 -15 1 -15 14 0 11 -4 20 -10 20 -5 0 -10 -6 -10 -13z"/>
<path d="M2596 5794 c-8 -21 -8 -39 1 -30 8 7 15 46 9 46 -2 0 -7 -7 -10 -16z"/>
<path d="M2725 5792 c2 -12 0 -24 -5 -27 -13 -8 -9 -83 5 -88 6 -3 18 -1 26 4
12 7 12 9 -1 10 -8 1 -18 1 -22 0 -5 0 -8 4 -8 9 0 6 6 10 13 10 8 0 7 4 -3
10 -9 6 -10 10 -3 10 12 0 13 64 1 76 -4 4 -6 -3 -3 -14z"/>
<path d="M2770 5806 c0 -9 30 -14 35 -6 4 6 -3 10 -14 10 -12 0 -21 -2 -21 -4z"/>
<path d="M2210 5790 c8 -5 10 -10 5 -10 -6 0 -11 -9 -12 -20 -1 -11 2 -20 8
-20 5 0 9 9 9 20 0 11 6 20 13 20 8 0 7 4 -3 10 -8 5 -19 10 -25 10 -5 0 -3
-5 5 -10z"/>
<path d="M2392 5779 c-8 -12 -9 -18 -4 -15 6 3 12 1 14 -6 3 -7 7 -8 10 -3 3
6 3 18 -1 27 -6 16 -7 16 -19 -3z"/>
<path d="M2445 5773 c-11 -14 -26 -32 -33 -40 -7 -7 -11 -17 -7 -23 3 -6 -1
-7 -9 -4 -10 4 -16 1 -16 -9 0 -19 30 -31 44 -17 8 8 6 9 -7 4 -17 -6 -18 -5
-6 14 7 11 23 23 36 27 24 6 30 20 13 30 -6 4 -8 11 -4 16 4 6 13 4 24 -6 18
-16 55 -11 44 7 -4 6 -10 5 -15 -3 -7 -11 -9 -10 -9 5 0 12 -5 16 -14 13 -8
-3 -16 -2 -18 4 -2 5 -12 -3 -23 -18z"/>
<path d="M2275 5780 c-3 -5 -1 -10 4 -10 6 0 11 5 11 10 0 6 -2 10 -4 10 -3 0
-8 -4 -11 -10z"/>
<path d="M2545 5780 c3 -5 12 -7 20 -3 21 7 19 13 -6 13 -11 0 -18 -4 -14 -10z"/>
<path d="M2831 5777 c-8 -10 -7 -14 4 -14 8 0 12 4 9 8 -2 4 2 10 8 12 8 4 9
6 2 6 -6 1 -17 -5 -23 -12z"/>
<path d="M3065 5780 c3 -5 10 -10 16 -10 5 0 9 5 9 10 0 6 -7 10 -16 10 -8 0
-12 -4 -9 -10z"/>
<path d="M3111 5774 c0 -11 3 -14 6 -6 3 7 2 16 -1 19 -3 4 -6 -2 -5 -13z"/>
<path d="M2165 5770 c3 -5 10 -10 16 -10 5 0 9 5 9 10 0 6 -7 10 -16 10 -8 0
-12 -4 -9 -10z"/>
<path d="M2870 5771 c0 -17 18 -21 24 -6 3 9 0 15 -9 15 -8 0 -15 -4 -15 -9z"/>
<path d="M2963 5754 c-12 -27 -8 -31 12 -11 7 8 10 19 6 25 -4 6 -11 1 -18
-14z"/>
<path d="M3170 5759 c0 -5 5 -7 10 -4 6 3 10 8 10 11 0 2 -4 4 -10 4 -5 0 -10
-5 -10 -11z"/>
<path d="M2130 5742 c0 -15 6 -22 19 -22 11 0 22 -6 24 -12 4 -10 6 -10 6 -1
1 7 9 10 19 7 15 -5 15 -4 -2 10 -10 8 -23 13 -29 9 -6 -3 -16 2 -24 12 -12
18 -13 18 -13 -3z"/>
<path d="M2243 5747 c2 -7 15 -12 28 -12 17 0 24 -5 22 -19 -1 -12 2 -15 9 -8
19 19 0 49 -33 50 -19 0 -29 -4 -26 -11z"/>
<path d="M2606 5752 c-3 -6 3 -12 15 -15 12 -3 19 -1 16 6 -5 15 -24 20 -31 9z"/>
<path d="M2680 5750 c0 -5 5 -10 10 -10 6 0 10 5 10 10 0 6 -4 10 -10 10 -5 0
-10 -4 -10 -10z"/>
<path d="M3075 5749 c-4 -6 -5 -12 -2 -15 2 -3 7 2 10 11 7 17 1 20 -8 4z"/>
<path d="M1835 5740 c3 -5 11 -10 16 -10 6 0 7 5 4 10 -3 6 -11 10 -16 10 -6
0 -7 -4 -4 -10z"/>
<path d="M2010 5742 c0 -5 12 -14 26 -21 20 -9 25 -9 22 1 -3 7 -9 13 -14 13
-5 0 -15 4 -21 8 -7 5 -13 4 -13 -1z"/>
<path d="M2760 5740 c0 -5 5 -10 10 -10 6 0 10 5 10 10 0 6 -4 10 -10 10 -5 0
-10 -4 -10 -10z"/>
<path d="M2805 5741 c-3 -5 0 -13 6 -17 7 -4 9 -3 5 4 -3 5 0 13 6 15 9 4 10
6 1 6 -6 1 -14 -3 -18 -8z"/>
<path d="M2840 5740 c0 -5 7 -10 16 -10 8 0 12 5 9 10 -3 6 -10 10 -16 10 -5
0 -9 -4 -9 -10z"/>
<path d="M3022 5739 c2 -6 8 -10 13 -10 5 0 11 4 13 10 2 6 -4 11 -13 11 -9 0
-15 -5 -13 -11z"/>
<path d="M3095 5741 c-3 -5 -1 -12 4 -15 5 -3 11 1 15 9 6 16 -9 21 -19 6z"/>
<path d="M2990 5731 c0 -5 5 -13 10 -16 6 -3 10 -2 10 4 0 5 -4 13 -10 16 -5
3 -10 2 -10 -4z"/>
<path d="M3133 5713 c-1 -19 1 -22 8 -12 11 17 12 39 2 39 -5 0 -9 -12 -10
-27z"/>
<path d="M2343 5710 c4 -17 2 -20 -14 -15 -16 5 -19 1 -19 -22 1 -24 2 -25 11
-10 5 9 17 17 24 17 9 0 15 10 15 25 0 14 -5 25 -11 25 -6 0 -9 -9 -6 -20z"/>
<path d="M2558 5718 c7 -7 12 -20 12 -30 0 -10 5 -18 10 -18 12 0 12 2 0 34
-5 14 -15 26 -22 26 -9 0 -9 -3 0 -12z"/>
<path d="M2670 5710 c-21 -21 -28 -46 -10 -35 6 3 10 11 10 17 0 6 8 17 18 24
9 7 14 14 10 14 -5 0 -17 -9 -28 -20z"/>
<path d="M1906 5709 c3 -5 12 -9 21 -9 19 0 9 13 -12 16 -8 1 -13 -2 -9 -7z"/>
<path d="M2075 5711 c3 -5 1 -13 -5 -16 -8 -5 -6 -15 4 -31 18 -26 20 -38 7
-30 -5 3 -11 -3 -14 -14 -5 -19 -4 -19 19 -2 13 9 24 23 24 30 0 6 8 12 18 12
13 0 14 2 3 9 -7 5 -11 13 -7 19 3 6 2 14 -4 17 -6 4 -10 3 -9 -2 1 -4 1 -16
0 -27 -1 -15 -4 -16 -16 -6 -9 7 -13 21 -10 31 4 11 2 19 -5 19 -6 0 -9 -4 -5
-9z"/>
<path d="M2250 5705 c0 -9 6 -12 15 -9 8 4 12 10 9 15 -8 14 -24 10 -24 -6z"/>
<path d="M2516 5711 c-4 -5 -2 -12 3 -15 5 -4 12 -2 15 3 4 5 2 12 -3 15 -5 4
-12 2 -15 -3z"/>
<path d="M1857 5699 c-9 -6 -15 -14 -12 -20 10 -15 22 -10 28 11 3 11 4 20 4
20 -1 0 -10 -5 -20 -11z"/>
<path d="M2010 5686 c0 -14 6 -28 13 -32 6 -4 9 -4 5 1 -4 4 -4 13 1 19 6 7 4
16 -5 24 -12 11 -14 9 -14 -12z"/>
<path d="M2770 5694 c0 -16 9 -18 28 -5 10 6 9 10 -7 14 -14 3 -21 0 -21 -9z"/>
<path d="M2830 5695 c0 -8 5 -15 10 -15 6 0 10 7 10 15 0 8 -4 15 -10 15 -5 0
-10 -7 -10 -15z"/>
<path d="M2870 5695 c0 -8 5 -15 10 -15 6 0 10 7 10 15 0 8 -4 15 -10 15 -5 0
-10 -7 -10 -15z"/>
<path d="M2940 5700 c0 -5 4 -10 9 -10 6 0 13 5 16 10 3 6 -1 10 -9 10 -9 0
-16 -4 -16 -10z"/>
<path d="M3096 5694 c-10 -25 1 -29 14 -5 6 12 7 21 1 21 -5 0 -12 -7 -15 -16z"/>
<path d="M3330 5689 c0 -11 5 -17 10 -14 6 3 10 13 10 21 0 8 -4 14 -10 14 -5
0 -10 -9 -10 -21z"/>
<path d="M1980 5685 c0 -8 5 -15 10 -15 6 0 10 7 10 15 0 8 -4 15 -10 15 -5 0
-10 -7 -10 -15z"/>
<path d="M2606 5685 c-3 -8 -1 -15 4 -15 6 0 10 7 10 15 0 8 -2 15 -4 15 -2 0
-6 -7 -10 -15z"/>
<path d="M2985 5690 c3 -5 10 -10 16 -10 5 0 9 5 9 10 0 6 -7 10 -16 10 -8 0
-12 -4 -9 -10z"/>
<path d="M1910 5682 c0 -16 29 -35 45 -28 8 3 15 10 15 15 0 6 -7 8 -15 5 -8
-4 -22 -1 -30 6 -8 7 -15 8 -15 2z"/>
<path d="M2480 5674 c0 -11 5 -14 16 -10 9 3 25 6 37 7 20 1 20 2 -3 9 -39 13
-50 11 -50 -6z"/>
<path d="M3065 5681 c3 -5 1 -12 -5 -16 -6 -4 -8 -11 -4 -16 3 -5 10 -7 15 -4
13 8 11 45 -2 45 -5 0 -8 -4 -4 -9z"/>
<path d="M2195 5670 c-7 -12 2 -12 30 0 19 8 19 9 -2 9 -12 1 -25 -3 -28 -9z"/>
<path d="M2940 5665 c0 -8 5 -15 10 -15 6 0 10 7 10 15 0 8 -4 15 -10 15 -5 0
-10 -7 -10 -15z"/>
<path d="M3130 5658 c0 -19 2 -20 10 -8 13 19 13 30 0 30 -5 0 -10 -10 -10
-22z"/>
<path d="M1810 5660 c0 -5 7 -10 15 -10 8 0 15 5 15 10 0 6 -7 10 -15 10 -8 0
-15 -4 -15 -10z"/>
<path d="M2150 5661 c0 -10 30 -24 37 -17 3 2 -5 9 -16 16 -12 6 -21 7 -21 1z"/>
<path d="M2675 5660 c3 -5 8 -10 11 -10 2 0 4 5 4 10 0 6 -5 10 -11 10 -5 0
-7 -4 -4 -10z"/>
<path d="M1885 5650 c3 -5 11 -10 16 -10 6 0 7 5 4 10 -3 6 -11 10 -16 10 -6
0 -7 -4 -4 -10z"/>
<path d="M2340 5656 c0 -2 7 -7 16 -10 8 -3 12 -2 9 4 -6 10 -25 14 -25 6z"/>
<path d="M2435 5650 c3 -5 13 -10 21 -10 8 0 14 5 14 10 0 6 -9 10 -21 10 -11
0 -17 -4 -14 -10z"/>
<path d="M2739 5653 c-1 -5 -1 -12 0 -16 1 -5 -2 -6 -7 -3 -13 8 -35 -11 -27
-23 5 -9 10 -9 20 -1 15 13 39 4 30 -10 -3 -5 -1 -11 4 -14 18 -12 23 15 5 28
-10 8 -15 20 -11 30 4 9 2 16 -3 16 -6 0 -11 -3 -11 -7z"/>
<path d="M2775 5649 c-4 -6 -5 -12 -2 -15 2 -3 7 2 10 11 7 17 1 20 -8 4z"/>
<path d="M2870 5650 c0 -5 7 -10 15 -10 8 0 15 5 15 10 0 6 -7 10 -15 10 -8 0
-15 -4 -15 -10z"/>
<path d="M1970 5639 c0 -5 5 -7 10 -4 6 3 10 8 10 11 0 2 -4 4 -10 4 -5 0 -10
-5 -10 -11z"/>
<path d="M2200 5640 c0 -5 12 -10 28 -10 21 0 24 2 12 10 -20 13 -40 13 -40 0z"/>
<path d="M2390 5640 c0 -5 5 -10 11 -10 5 0 7 5 4 10 -3 6 -8 10 -11 10 -2 0
-4 -4 -4 -10z"/>
<path d="M2516 5635 c4 -8 11 -15 16 -15 6 0 5 6 -2 15 -7 8 -14 15 -16 15 -2
0 -1 -7 2 -15z"/>
<path d="M2554 5642 c2 -4 19 -9 36 -10 17 -1 29 1 26 6 -2 4 -19 9 -36 10
-17 1 -29 -1 -26 -6z"/>
<path d="M2800 5639 c0 -5 5 -7 10 -4 6 3 10 8 10 11 0 2 -4 4 -10 4 -5 0 -10
-5 -10 -11z"/>
<path d="M2980 5640 c0 -5 7 -10 15 -10 8 0 15 5 15 10 0 6 -7 10 -15 10 -8 0
-15 -4 -15 -10z"/>
<path d="M3030 5640 c0 -5 5 -10 11 -10 5 0 7 5 4 10 -3 6 -8 10 -11 10 -2 0
-4 -4 -4 -10z"/>
<path d="M3150 5635 c0 -8 5 -15 10 -15 6 0 10 7 10 15 0 8 -4 15 -10 15 -5 0
-10 -7 -10 -15z"/>
<path d="M2830 5631 c0 -6 5 -13 10 -16 6 -3 10 1 10 9 0 9 -4 16 -10 16 -5 0
-10 -4 -10 -9z"/>
<path d="M1835 5620 c3 -5 8 -10 11 -10 2 0 4 5 4 10 0 6 -5 10 -11 10 -5 0
-7 -4 -4 -10z"/>
<path d="M1911 5613 c-8 -9 -16 -28 -17 -42 -2 -24 -1 -24 14 7 8 17 19 32 24
32 4 0 8 5 8 10 0 15 -13 12 -29 -7z"/>
<path d="M2123 5616 c-6 -8 -9 -17 -5 -20 3 -4 -4 -9 -16 -13 -12 -3 -22 -9
-22 -15 0 -5 8 -4 19 2 11 5 26 8 33 7 7 -2 10 -2 6 0 -14 8 -8 33 8 33 8 0
12 5 9 10 -8 13 -18 12 -32 -4z"/>
<path d="M2302 5621 c-11 -6 -10 -10 4 -15 22 -8 56 3 48 16 -4 6 -10 5 -15
-3 -6 -10 -9 -11 -9 -1 0 14 -9 15 -28 3z"/>
<path d="M2920 5619 c0 -5 5 -7 10 -4 6 3 10 8 10 11 0 2 -4 4 -10 4 -5 0 -10
-5 -10 -11z"/>
<path d="M3060 5622 c0 -7 -7 -12 -15 -12 -8 0 -15 -7 -15 -15 0 -8 3 -15 8
-15 10 0 35 41 28 48 -3 3 -6 0 -6 -6z"/>
<path d="M3086 5623 c-11 -11 -6 -23 9 -23 8 0 15 4 15 9 0 13 -16 22 -24 14z"/>
<path d="M2215 5610 c-3 -5 -1 -10 4 -10 6 0 11 5 11 10 0 6 -2 10 -4 10 -3 0
-8 -4 -11 -10z"/>
<path d="M2445 5610 c-2 -3 5 -7 16 -7 10 -1 19 2 19 6 0 9 -29 10 -35 1z"/>
<path d="M2575 5611 c-6 -11 13 -26 22 -17 4 3 1 6 -6 6 -7 0 -9 5 -6 10 3 6
4 10 1 10 -3 0 -7 -4 -11 -9z"/>
<path d="M2800 5616 c0 -2 7 -7 16 -10 8 -3 12 -2 9 4 -6 10 -25 14 -25 6z"/>
<path d="M3245 5610 c-3 -5 -1 -10 4 -10 6 0 11 5 11 10 0 6 -2 10 -4 10 -3 0
-8 -4 -11 -10z"/>
<path d="M3279 5598 c-12 -22 -14 -22 40 0 10 4 13 1 9 -10 -4 -8 -3 -20 2
-27 5 -9 9 -2 12 18 2 17 3 29 0 27 -2 -3 -15 -1 -28 4 -19 8 -26 5 -35 -12z"/>
<path d="M2014 5603 c4 -7 2 -13 -3 -13 -6 0 -11 -4 -11 -10 0 -5 6 -10 14
-10 15 0 16 24 1 37 -4 4 -5 2 -1 -4z"/>
<path d="M2250 5600 c0 -5 5 -10 10 -10 6 0 10 5 10 10 0 6 -4 10 -10 10 -5 0
-10 -4 -10 -10z"/>
<path d="M2612 5599 c2 -6 8 -10 13 -10 5 0 11 4 13 10 2 6 -4 11 -13 11 -9 0
-15 -5 -13 -11z"/>
<path d="M2665 5601 c-6 -11 9 -23 19 -14 9 9 7 23 -3 23 -6 0 -12 -4 -16 -9z"/>
<path d="M3140 5599 c0 -5 5 -7 10 -4 6 3 10 8 10 11 0 2 -4 4 -10 4 -5 0 -10
-5 -10 -11z"/>
<path d="M3170 5600 c0 -5 5 -10 11 -10 5 0 7 5 4 10 -3 6 -8 10 -11 10 -2 0
-4 -4 -4 -10z"/>
<path d="M2040 5590 c0 -5 5 -10 11 -10 5 0 7 5 4 10 -3 6 -8 10 -11 10 -2 0
-4 -4 -4 -10z"/>
<path d="M2352 5590 c5 -16 48 -23 48 -8 0 6 -6 8 -14 5 -7 -3 -19 0 -26 6
-10 9 -11 9 -8 -3z"/>
<path d="M1850 5585 c0 -12 33 -55 42 -55 5 0 2 7 -7 16 -9 9 -14 23 -11 30 3
8 -1 14 -9 14 -8 0 -15 -2 -15 -5z"/>
<path d="M1926 5575 c4 -8 8 -15 10 -15 2 0 4 7 4 15 0 8 -4 15 -10 15 -5 0
-7 -7 -4 -15z"/>
<path d="M2175 5580 c-8 -13 5 -13 25 0 13 8 13 10 -2 10 -9 0 -20 -4 -23 -10z"/>
<path d="M2440 5580 c0 -5 -7 -7 -15 -4 -10 4 -15 0 -15 -11 0 -10 5 -14 13
-11 6 3 20 9 30 12 21 8 23 24 2 24 -8 0 -15 -4 -15 -10z"/>
<path d="M2490 5580 c0 -5 5 -10 11 -10 5 0 7 5 4 10 -3 6 -8 10 -11 10 -2 0
-4 -4 -4 -10z"/>
<path d="M2790 5580 c0 -5 5 -10 10 -10 6 0 10 5 10 10 0 6 -4 10 -10 10 -5 0
-10 -4 -10 -10z"/>
<path d="M3100 5580 c0 -5 5 -10 10 -10 6 0 10 5 10 10 0 6 -4 10 -10 10 -5 0
-10 -4 -10 -10z"/>
<path d="M3237 5584 c-3 -4 2 -15 13 -24 18 -15 18 -19 5 -30 -14 -11 -13 -14
2 -26 21 -16 43 -18 43 -4 0 6 -10 11 -22 11 -18 1 -19 2 -5 6 10 3 14 9 10
16 -4 8 -1 8 9 -1 13 -10 17 -10 22 3 3 8 1 15 -5 15 -6 0 -9 7 -5 15 7 18 -5
20 -22 3 -9 -9 -15 -8 -25 6 -7 9 -16 14 -20 10z"/>
<path d="M1955 5570 c4 -6 11 -8 16 -5 14 9 11 15 -7 15 -8 0 -12 -5 -9 -10z"/>
<path d="M2293 5566 c9 -7 17 -18 17 -24 0 -5 7 -12 15 -16 8 -3 15 -1 15 4 0
6 -5 10 -12 10 -6 0 -8 3 -5 7 7 7 -22 32 -38 32 -5 0 -2 -6 8 -13z"/>
<path d="M2555 5570 c-3 -5 -1 -10 4 -10 6 0 11 5 11 10 0 6 -2 10 -4 10 -3 0
-8 -4 -11 -10z"/>
<path d="M2600 5574 c0 -19 27 -37 35 -24 4 6 4 14 1 17 -3 4 -6 0 -6 -7 0 -9
-5 -7 -15 6 -8 10 -15 14 -15 8z"/>
<path d="M2990 5571 c0 -6 4 -12 8 -15 5 -3 9 1 9 9 0 8 -4 15 -9 15 -4 0 -8
-4 -8 -9z"/>
<path d="M3070 5570 c-8 -5 -24 -7 -35 -4 -19 5 -19 4 -2 -6 10 -7 25 -9 33
-6 8 3 14 -1 14 -9 0 -8 5 -15 10 -15 13 0 13 17 0 25 -6 4 -8 11 -5 16 8 11
4 11 -15 -1z"/>
<path d="M2036 5555 c-3 -9 0 -15 9 -15 16 0 20 16 6 24 -5 3 -11 -1 -15 -9z"/>
<path d="M2220 5560 c0 -7 8 -10 20 -7 15 4 20 0 20 -14 0 -10 4 -19 10 -19 5
0 6 9 1 23 -9 23 -51 37 -51 17z"/>
<path d="M2650 5561 c0 -5 9 -11 21 -14 16 -4 18 -3 8 9 -13 16 -29 19 -29 5z"/>
<path d="M2699 5557 c6 -8 7 -18 3 -22 -4 -5 -1 -5 6 -1 10 6 10 11 1 22 -6 8
-14 14 -16 14 -3 0 0 -6 6 -13z"/>
<path d="M2823 5557 c0 -8 6 -14 13 -14 7 0 10 6 7 14 -3 7 -8 13 -12 13 -4 0
-8 -6 -8 -13z"/>
<path d="M2925 5560 c3 -5 8 -10 11 -10 2 0 4 5 4 10 0 6 -5 10 -11 10 -5 0
-7 -4 -4 -10z"/>
<path d="M2373 5549 c-15 -5 -23 -16 -22 -31 1 -19 2 -20 6 -4 4 15 7 16 14 5
7 -11 9 -11 9 3 0 9 6 18 13 21 6 2 10 7 7 9 -3 3 -15 2 -27 -3z"/>
<path d="M2472 5550 c5 -16 48 -24 48 -10 0 6 -4 10 -9 10 -5 0 -17 3 -27 7
-11 4 -15 2 -12 -7z"/>
<path d="M2942 5540 c-14 -23 -15 -30 -3 -30 8 0 24 41 18 47 -2 1 -8 -7 -15
-17z"/>
<path d="M1936 5535 c4 -8 8 -15 10 -15 2 0 4 7 4 15 0 8 -4 15 -10 15 -5 0
-7 -7 -4 -15z"/>
<path d="M2145 5540 c-4 -6 -11 -8 -16 -5 -12 8 -11 -6 1 -25 8 -13 10 -12 10
3 0 15 11 22 33 18 5 -1 6 3 2 9 -8 13 -22 13 -30 0z"/>
<path d="M2764 5538 c-4 -6 -3 -8 4 -4 6 3 15 -2 21 -11 5 -10 13 -15 16 -11
4 4 0 14 -8 23 -19 18 -24 19 -33 3z"/>
<path d="M3217 5543 c-12 -12 -7 -22 8 -17 8 4 15 10 15 15 0 11 -14 12 -23 2z"/>
<path d="M1984 5525 c17 -13 17 -15 3 -21 -10 -3 -17 -11 -17 -16 0 -6 6 -8
14 -5 7 3 18 1 23 -4 6 -6 9 -3 8 8 -4 32 -17 53 -34 53 -14 -1 -13 -3 3 -15z"/>
<path d="M2075 5530 c3 -5 0 -12 -5 -15 -12 -7 16 -34 35 -35 6 0 3 5 -5 11
-11 8 -12 12 -2 16 18 7 15 20 -8 26 -11 3 -18 1 -15 -3z"/>
<path d="M2540 5526 c0 -9 5 -16 10 -16 6 0 10 4 10 9 0 6 -4 13 -10 16 -5 3
-10 -1 -10 -9z"/>
<path d="M2726 5532 c-3 -6 -1 -14 5 -17 14 -9 20 -2 10 14 -6 8 -11 9 -15 3z"/>
<path d="M2995 5530 c-4 -6 -11 -7 -17 -4 -7 4 -8 2 -4 -5 6 -9 11 -9 22 0 14
11 18 19 10 19 -3 0 -8 -5 -11 -10z"/>
<path d="M1850 5520 c0 -5 7 -10 16 -10 8 0 12 5 9 10 -3 6 -10 10 -16 10 -5
0 -9 -4 -9 -10z"/>
<path d="M2030 5520 c0 -5 5 -10 11 -10 5 0 7 5 4 10 -3 6 -8 10 -11 10 -2 0
-4 -4 -4 -10z"/>
<path d="M2435 5521 c-6 -11 9 -23 19 -14 9 9 7 23 -3 23 -6 0 -12 -4 -16 -9z"/>
<path d="M2620 5515 c0 -8 4 -15 10 -15 5 0 7 7 4 15 -4 8 -8 15 -10 15 -2 0
-4 -7 -4 -15z"/>
<path d="M2650 5520 c0 -5 7 -7 15 -4 20 8 19 -15 -1 -44 -19 -28 -30 -28 -37
-1 -3 12 -10 18 -17 14 -8 -5 -8 -10 0 -20 6 -7 7 -20 4 -30 -6 -15 -5 -16 17
-3 32 18 49 35 49 47 0 6 5 11 10 11 16 0 11 27 -6 34 -23 9 -34 7 -34 -4z"/>
<path d="M3030 5520 c0 -5 7 -10 15 -10 8 0 15 5 15 10 0 6 -7 10 -15 10 -8 0
-15 -4 -15 -10z"/>
<path d="M3170 5519 c0 -5 5 -7 10 -4 6 3 10 8 10 11 0 2 -4 4 -10 4 -5 0 -10
-5 -10 -11z"/>
<path d="M2152 5498 c6 -18 28 -21 28 -4 0 9 -7 16 -16 16 -9 0 -14 -5 -12
-12z"/>
<path d="M2237 5503 c-7 -13 30 -46 38 -34 4 8 12 8 25 1 13 -7 21 -7 25 0 6
10 -13 15 -47 12 -11 -1 -15 3 -12 13 6 15 -21 22 -29 8z"/>
<path d="M2522 5496 c7 -7 19 -11 27 -8 11 4 10 7 -5 13 -29 12 -36 10 -22 -5z"/>
<path d="M2870 5500 c0 -5 4 -10 9 -10 6 0 13 5 16 10 3 6 -1 10 -9 10 -9 0
-16 -4 -16 -10z"/>
<path d="M3000 5501 c0 -5 -3 -16 -6 -25 -4 -10 -1 -16 9 -16 10 0 14 9 13 25
-1 23 -16 37 -16 16z"/>
<path d="M3220 5506 c0 -4 7 -14 15 -22 8 -9 15 -11 15 -6 0 5 -7 15 -15 22
-8 7 -15 9 -15 6z"/>
<path d="M1900 5490 c0 -5 7 -10 16 -10 8 0 13 -4 9 -9 -3 -5 -1 -12 5 -16 11
-7 13 5 4 29 -7 17 -34 22 -34 6z"/>
<path d="M2042 5480 c0 -14 2 -19 5 -12 2 6 2 18 0 25 -3 6 -5 1 -5 -13z"/>
<path d="M2195 5490 c3 -5 11 -10 16 -10 6 0 7 5 4 10 -3 6 -11 10 -16 10 -6
0 -7 -4 -4 -10z"/>
<path d="M2426 5490 c5 -8 9 -28 9 -44 0 -16 5 -31 10 -33 6 -2 11 6 11 17 0
11 -4 20 -8 20 -4 0 -5 7 -2 15 8 19 28 19 58 0 23 -15 56 -11 56 6 0 6 -9 5
-20 -1 -14 -8 -20 -8 -20 0 0 6 -4 9 -9 6 -5 -3 -14 1 -21 9 -8 10 -17 12 -30
5 -11 -6 -21 -5 -30 3 -10 10 -11 9 -4 -3z"/>
<path d="M2570 5490 c0 -5 5 -10 10 -10 6 0 10 5 10 10 0 6 -4 10 -10 10 -5 0
-10 -4 -10 -10z"/>
<path d="M2730 5489 c0 -5 5 -7 10 -4 6 3 10 8 10 11 0 2 -4 4 -10 4 -5 0 -10
-5 -10 -11z"/>
<path d="M2116 5475 c-8 -23 -8 -25 8 -25 8 0 13 7 12 15 -3 23 -13 27 -20 10z"/>
<path d="M2360 5484 c0 -13 18 -39 24 -34 2 3 -2 14 -10 24 -8 11 -14 16 -14
10z"/>
<path d="M2940 5475 c0 -8 5 -15 10 -15 6 0 10 7 10 15 0 8 -4 15 -10 15 -5 0
-10 -7 -10 -15z"/>
<path d="M2395 5460 c4 -11 2 -20 -4 -20 -6 0 -11 -4 -11 -10 0 -5 7 -7 15 -4
8 4 15 1 15 -7 0 -7 3 -10 6 -6 9 9 -6 67 -17 67 -6 0 -7 -9 -4 -20z"/>
<path d="M3264 5465 c-10 -8 -15 -15 -10 -15 5 0 3 -6 -3 -14 -9 -10 -9 -16
-1 -21 13 -8 12 -9 27 33 13 37 13 37 -13 17z"/>
<path d="M2470 5460 c0 -5 5 -10 11 -10 5 0 7 5 4 10 -3 6 -8 10 -11 10 -2 0
-4 -4 -4 -10z"/>
<path d="M2705 5460 c3 -5 8 -10 11 -10 2 0 4 5 4 10 0 6 -5 10 -11 10 -5 0
-7 -4 -4 -10z"/>
<path d="M2821 5461 c-10 -7 -10 -10 -1 -16 6 -4 16 -3 22 3 13 13 -4 23 -21
13z"/>
<path d="M2910 5460 c0 -5 5 -10 11 -10 7 0 9 -10 5 -27 -5 -23 -4 -25 4 -10
13 21 34 23 27 2 -4 -8 -2 -17 3 -20 6 -4 10 -1 10 5 0 6 5 8 11 5 6 -4 8 -13
5 -21 -3 -8 0 -14 7 -14 7 0 13 9 14 20 1 12 -4 20 -13 20 -8 0 -19 10 -24 23
-5 12 -9 18 -9 13 -1 -4 -12 -1 -26 8 -14 9 -25 12 -25 6z"/>
<path d="M3180 5455 c-19 -22 -8 -25 13 -3 9 10 13 18 8 18 -5 0 -14 -7 -21
-15z"/>
<path d="M1955 5450 c-4 -6 3 -10 14 -10 25 0 27 6 6 13 -8 4 -17 2 -20 -3z"/>
<path d="M2865 5450 c3 -5 10 -10 16 -10 5 0 9 5 9 10 0 6 -7 10 -16 10 -8 0
-12 -4 -9 -10z"/>
<path d="M2187 5444 c-8 -8 1 -24 14 -24 5 0 9 7 9 15 0 15 -12 20 -23 9z"/>
<path d="M2315 5440 c3 -5 12 -7 20 -3 21 7 19 13 -6 13 -11 0 -18 -4 -14 -10z"/>
<path d="M3082 5430 c0 -14 2 -19 5 -12 2 6 2 18 0 25 -3 6 -5 1 -5 -13z"/>
<path d="M2040 5426 c0 -9 5 -16 10 -16 6 0 10 4 10 9 0 6 -4 13 -10 16 -5 3
-10 -1 -10 -9z"/>
<path d="M2115 5430 c-3 -5 -1 -10 4 -10 6 0 11 5 11 10 0 6 -2 10 -4 10 -3 0
-8 -4 -11 -10z"/>
<path d="M2480 5430 c-8 -5 -12 -12 -9 -15 4 -3 12 1 19 10 14 17 11 19 -10 5z"/>
<path d="M2676 5431 c-3 -5 1 -11 9 -15 8 -3 15 -1 15 4 0 13 -18 22 -24 11z"/>
<path d="M2780 5434 c0 -17 28 -30 48 -23 12 5 22 11 22 13 0 3 -6 3 -14 0 -8
-3 -17 -1 -21 5 -6 11 -35 15 -35 5z"/>
<path d="M3010 5429 c0 -5 5 -7 10 -4 6 3 10 8 10 11 0 2 -4 4 -10 4 -5 0 -10
-5 -10 -11z"/>
<path d="M3040 5430 c0 -5 5 -10 10 -10 6 0 10 5 10 10 0 6 -4 10 -10 10 -5 0
-10 -4 -10 -10z"/>
<path d="M2006 5415 c4 -8 8 -15 10 -15 2 0 4 7 4 15 0 8 -4 15 -10 15 -5 0
-7 -7 -4 -15z"/>
<path d="M2335 5420 c-17 -8 -17 -9 7 -7 15 1 24 5 22 9 -3 4 -6 8 -7 7 -1 0
-11 -4 -22 -9z"/>
<path d="M2575 5420 c3 -5 8 -10 11 -10 2 0 4 5 4 10 0 6 -5 10 -11 10 -5 0
-7 -4 -4 -10z"/>
<path d="M2745 5420 c-17 -7 -17 -9 -2 -9 19 -1 23 -16 7 -26 -6 -4 -18 -1
-27 7 -14 11 -16 11 -11 -2 2 -8 17 -16 31 -18 24 -3 27 0 27 27 0 17 -1 31
-2 30 -2 0 -12 -4 -23 -9z"/>
<path d="M3131 5414 c0 -11 3 -14 6 -6 3 7 2 16 -1 19 -3 4 -6 -2 -5 -13z"/>
<path d="M1975 5410 c3 -5 8 -10 11 -10 2 0 4 5 4 10 0 6 -5 10 -11 10 -5 0
-7 -4 -4 -10z"/>
<path d="M2275 5410 c-3 -5 -1 -10 4 -10 6 0 11 5 11 10 0 6 -2 10 -4 10 -3 0
-8 -4 -11 -10z"/>
<path d="M2515 5412 c-6 -4 -11 -18 -12 -32 l-1 -25 12 25 c7 17 17 24 30 22
11 -3 16 0 12 7 -8 13 -26 14 -41 3z"/>
<path d="M2650 5404 c0 -8 5 -12 10 -9 6 4 8 11 5 16 -9 14 -15 11 -15 -7z"/>
<path d="M2860 5414 c0 -12 36 -35 44 -27 11 12 6 25 -8 20 -7 -3 -19 0 -25 6
-6 6 -11 7 -11 1z"/>
<path d="M3160 5404 c0 -8 5 -12 10 -9 6 3 10 10 10 16 0 5 -4 9 -10 9 -5 0
-10 -7 -10 -16z"/>
<path d="M1935 5400 c-3 -5 1 -10 10 -10 9 0 13 5 10 10 -3 6 -8 10 -10 10 -2
0 -7 -4 -10 -10z"/>
<path d="M2611 5397 c-8 -10 -7 -19 4 -33 14 -18 15 -18 11 8 -3 15 1 29 7 32
8 3 9 5 1 5 -6 1 -17 -5 -23 -12z"/>
<path d="M1830 5389 c0 -5 5 -7 10 -4 6 3 10 8 10 11 0 2 -4 4 -10 4 -5 0 -10
-5 -10 -11z"/>
<path d="M2060 5390 c0 -5 5 -10 10 -10 6 0 10 5 10 10 0 6 -4 10 -10 10 -5 0
-10 -4 -10 -10z"/>
<path d="M2156 5391 c-3 -5 1 -11 9 -14 9 -4 12 -1 8 9 -6 16 -10 17 -17 5z"/>
<path d="M2385 5390 c-3 -5 -2 -10 4 -10 5 0 13 5 16 10 3 6 2 10 -4 10 -5 0
-13 -4 -16 -10z"/>
<path d="M2460 5386 c0 -9 5 -16 10 -16 6 0 10 4 10 9 0 6 -4 13 -10 16 -5 3
-10 -1 -10 -9z"/>
<path d="M2581 5384 c0 -11 3 -14 6 -6 3 7 2 16 -1 19 -3 4 -6 -2 -5 -13z"/>
<path d="M2663 5386 c-13 -6 -23 -14 -23 -18 0 -13 13 -9 40 12 27 21 19 24
-17 6z"/>
<path d="M2820 5390 c0 -5 5 -10 10 -10 6 0 10 5 10 10 0 6 -4 10 -10 10 -5 0
-10 -4 -10 -10z"/>
<path d="M3246 5391 c-4 -7 -5 -15 -2 -18 9 -9 19 4 14 18 -4 11 -6 11 -12 0z"/>
<path d="M2002 5378 c5 -15 28 -18 29 -3 0 6 -7 12 -17 13 -10 3 -15 -1 -12
-10z"/>
<path d="M2303 5371 c0 -11 5 -17 9 -15 11 7 10 34 -1 34 -6 0 -9 -9 -8 -19z"/>
<path d="M2430 5379 c0 -5 5 -7 10 -4 6 3 10 8 10 11 0 2 -4 4 -10 4 -5 0 -10
-5 -10 -11z"/>
<path d="M3100 5380 c0 -5 5 -10 10 -10 6 0 10 5 10 10 0 6 -4 10 -10 10 -5 0
-10 -4 -10 -10z"/>
<path d="M3210 5380 c0 -5 5 -10 10 -10 6 0 10 5 10 10 0 6 -4 10 -10 10 -5 0
-10 -4 -10 -10z"/>
<path d="M2260 5360 c0 -11 4 -20 9 -20 11 0 22 26 14 34 -12 12 -23 5 -23
-14z"/>
<path d="M2538 5373 c-24 -6 -23 -23 2 -23 11 0 20 7 20 15 0 8 -1 14 -2 14
-2 -1 -11 -3 -20 -6z"/>
<path d="M3030 5370 c0 -5 5 -10 11 -10 5 0 7 5 4 10 -3 6 -8 10 -11 10 -2 0
-4 -4 -4 -10z"/>
<path d="M3170 5376 c0 -2 7 -7 16 -10 8 -3 12 -2 9 4 -6 10 -25 14 -25 6z"/>
<path d="M2060 5363 c8 -3 18 -10 21 -16 4 -5 12 -6 18 -3 21 14 11 26 -21 25
-18 0 -26 -3 -18 -6z"/>
<path d="M1910 5350 c0 -5 5 -10 11 -10 5 0 7 5 4 10 -3 6 -8 10 -11 10 -2 0
-4 -4 -4 -10z"/>
<path d="M2140 5330 c13 -18 26 -27 33 -23 8 5 6 9 -5 11 -10 2 -18 9 -18 17
0 7 -7 16 -16 19 -11 4 -10 -2 6 -24z"/>
<path d="M2357 5330 c19 -20 36 -29 44 -25 9 6 7 12 -6 22 -18 13 -18 13 0 13
28 0 15 6 -29 15 l-40 7 31 -32z"/>
<path d="M2466 5344 c-8 -21 -1 -28 19 -20 9 3 15 11 13 18 -7 19 -25 20 -32
2z"/>
<path d="M2676 5343 c-4 -11 -1 -11 14 -3 24 13 25 17 5 17 -8 0 -16 -6 -19
-14z"/>
<path d="M2755 5350 c-3 -5 -1 -10 4 -10 6 0 11 5 11 10 0 6 -2 10 -4 10 -3 0
-8 -4 -11 -10z"/>
<path d="M2804 5348 c-3 -5 7 -6 21 -4 37 7 42 14 10 14 -14 0 -28 -5 -31 -10z"/>
<path d="M3231 5344 c0 -11 3 -14 6 -6 3 7 2 16 -1 19 -3 4 -6 -2 -5 -13z"/>
<path d="M2050 5340 c0 -5 5 -10 11 -10 5 0 7 5 4 10 -3 6 -8 10 -11 10 -2 0
-4 -4 -4 -10z"/>
<path d="M2230 5343 c0 -5 8 -15 18 -24 22 -19 55 -32 47 -19 -9 15 -65 52
-65 43z"/>
<path d="M2420 5339 c0 -5 5 -7 10 -4 6 3 10 8 10 11 0 2 -4 4 -10 4 -5 0 -10
-5 -10 -11z"/>
<path d="M2910 5340 c0 -5 5 -10 10 -10 6 0 10 5 10 10 0 6 -4 10 -10 10 -5 0
-10 -4 -10 -10z"/>
<path d="M2956 5341 c-4 -7 -5 -15 -2 -18 9 -9 19 4 14 18 -4 11 -6 11 -12 0z"/>
<path d="M3120 5340 c0 -5 4 -10 9 -10 6 0 13 5 16 10 3 6 -1 10 -9 10 -9 0
-16 -4 -16 -10z"/>
<path d="M3160 5339 c0 -5 5 -7 10 -4 6 3 10 8 10 11 0 2 -4 4 -10 4 -5 0 -10
-5 -10 -11z"/>
<path d="M2300 5330 c-9 -6 -10 -10 -3 -10 6 0 15 5 18 10 8 12 4 12 -15 0z"/>
<path d="M2520 5330 c0 -5 5 -10 11 -10 5 0 7 5 4 10 -3 6 -8 10 -11 10 -2 0
-4 -4 -4 -10z"/>
<path d="M3084 5329 c-3 -6 -2 -15 3 -20 5 -5 9 -1 10 11 2 22 -2 25 -13 9z"/>
<path d="M2550 5320 c0 -5 7 -10 16 -10 8 0 12 5 9 10 -3 6 -10 10 -16 10 -5
0 -9 -4 -9 -10z"/>
<path d="M3030 5319 c0 -5 5 -7 10 -4 6 3 10 8 10 11 0 2 -4 4 -10 4 -5 0 -10
-5 -10 -11z"/>
<path d="M2197 5304 c6 -15 23 -19 23 -5 0 5 -7 11 -14 14 -10 4 -13 1 -9 -9z"/>
<path d="M2330 5308 c-13 -8 -12 -9 2 -5 9 3 19 1 21 -6 2 -7 7 -9 11 -6 13
12 -19 28 -34 17z"/>
<path d="M2590 5306 c0 -9 -9 -16 -20 -16 -11 0 -20 -4 -20 -9 0 -6 12 -6 30
0 31 11 38 23 20 34 -5 3 -10 -1 -10 -9z"/>
<path d="M3136 5306 c5 -13 4 -17 -4 -12 -8 5 -12 -1 -12 -16 l0 -22 16 23
c13 17 14 25 5 34 -9 9 -10 7 -5 -7z"/>
<path d="M2680 5294 c0 -8 0 -17 -1 -21 0 -4 5 -9 13 -11 10 -3 10 -2 -1 6
-15 11 2 27 19 17 6 -3 10 -2 10 3 0 5 -9 12 -20 15 -13 3 -20 0 -20 -9z"/>
<path d="M2900 5299 c0 -5 5 -7 10 -4 6 3 10 8 10 11 0 2 -4 4 -10 4 -5 0 -10
-5 -10 -11z"/>
<path d="M3000 5301 c0 -5 5 -13 10 -16 6 -3 10 -2 10 4 0 5 -4 13 -10 16 -5
3 -10 2 -10 -4z"/>
<path d="M3190 5300 c0 -5 5 -10 10 -10 6 0 10 5 10 10 0 6 -4 10 -10 10 -5 0
-10 -4 -10 -10z"/>
<path d="M2437 5289 c7 -7 15 -10 18 -7 3 3 -2 9 -12 12 -14 6 -15 5 -6 -5z"/>
<path d="M2483 5282 c-18 -9 -33 -19 -33 -23 0 -4 12 -1 28 7 15 7 35 14 45
14 10 0 15 5 12 10 -8 12 -11 12 -52 -8z"/>
<path d="M1940 5273 c0 -4 13 -17 28 -28 l27 -19 -16 24 c-16 24 -39 38 -39
23z"/>
<path d="M2025 5270 c-3 -5 -1 -10 4 -10 6 0 11 5 11 10 0 6 -2 10 -4 10 -3 0
-8 -4 -11 -10z"/>
<path d="M2233 5273 c-13 -2 -23 -9 -23 -14 0 -13 13 -11 36 6 10 8 17 14 14
13 -3 0 -15 -3 -27 -5z"/>
<path d="M2635 5270 c-3 -5 1 -10 9 -10 9 0 16 5 16 10 0 6 -4 10 -9 10 -6 0
-13 -4 -16 -10z"/>
<path d="M2785 5271 c-6 -11 9 -23 19 -14 9 9 7 23 -3 23 -6 0 -12 -4 -16 -9z"/>
<path d="M2920 5270 c0 -5 5 -10 11 -10 5 0 7 5 4 10 -3 6 -8 10 -11 10 -2 0
-4 -4 -4 -10z"/>
<path d="M3160 5266 c0 -9 5 -16 10 -16 6 0 10 4 10 9 0 6 -4 13 -10 16 -5 3
-10 -1 -10 -9z"/>
<path d="M3220 5270 c-13 -8 -12 -10 3 -10 9 0 17 5 17 10 0 12 -1 12 -20 0z"/>
<path d="M2060 5260 c0 -5 9 -10 20 -10 11 0 20 5 20 10 0 6 -9 10 -20 10 -11
0 -20 -4 -20 -10z"/>
<path d="M2740 5260 c0 -5 7 -10 15 -10 8 0 15 5 15 10 0 6 -7 10 -15 10 -8 0
-15 -4 -15 -10z"/>
<path d="M2124 5245 c11 -8 22 -12 25 -9 6 6 -19 24 -34 24 -5 -1 -1 -7 9 -15z"/>
<path d="M2415 5250 c4 -6 11 -8 16 -5 14 9 11 15 -7 15 -8 0 -12 -5 -9 -10z"/>
<path d="M2530 5252 c0 -5 7 -9 15 -9 8 0 12 4 9 9 -3 4 -9 8 -15 8 -5 0 -9
-4 -9 -8z"/>
<path d="M2300 5240 c0 -5 5 -10 10 -10 6 0 10 5 10 10 0 6 -4 10 -10 10 -5 0
-10 -4 -10 -10z"/>
<path d="M2376 5234 c-3 -8 1 -14 10 -14 9 0 12 -5 8 -12 -4 -7 -3 -8 4 -4 7
4 12 13 12 21 0 19 -27 27 -34 9z"/>
<path d="M2488 5243 c7 -3 16 -2 19 1 4 3 -2 6 -13 5 -11 0 -14 -3 -6 -6z"/>
<path d="M2570 5235 c-7 -8 -16 -13 -20 -10 -5 3 -11 1 -15 -5 -4 -6 6 -9 27
-8 24 2 33 -1 32 -12 -1 -9 7 -16 17 -16 14 0 15 4 8 18 -6 12 -6 18 1 18 5 0
10 8 10 17 0 15 -1 15 -13 -2 -14 -18 -43 -13 -32 6 10 14 -1 11 -15 -6z"/>
<path d="M2830 5240 c0 -5 6 -10 14 -10 8 0 18 5 21 10 3 6 -3 10 -14 10 -12
0 -21 -4 -21 -10z"/>
<path d="M3000 5240 c0 -5 5 -10 10 -10 6 0 10 5 10 10 0 6 -4 10 -10 10 -5 0
-10 -4 -10 -10z"/>
<path d="M2432 5224 c-7 -8 -11 -14 -10 -15 7 -2 36 -8 66 -14 22 -5 32 -4 32
5 0 7 -8 10 -20 7 -11 -3 -20 -1 -20 5 0 5 -4 7 -9 3 -6 -3 -13 1 -18 9 -7 12
-10 12 -21 0z"/>
<path d="M2200 5222 c0 -15 46 -31 61 -21 11 7 9 9 -8 9 -12 0 -25 5 -28 10
-8 12 -25 13 -25 2z"/>
<path d="M2335 5220 c-9 -14 3 -30 23 -30 15 1 15 2 -1 14 -14 11 -15 15 -5
19 9 4 9 6 1 6 -6 1 -15 -3 -18 -9z"/>
<path d="M2730 5205 c-8 -9 -8 -15 -2 -15 12 0 26 19 19 26 -2 2 -10 -2 -17
-11z"/>
<path d="M2125 5200 c-3 -5 1 -10 10 -10 9 0 13 5 10 10 -3 6 -8 10 -10 10 -2
0 -7 -4 -10 -10z"/>
<path d="M2170 5195 c0 -8 5 -15 10 -15 6 0 10 7 10 15 0 8 -4 15 -10 15 -5 0
-10 -7 -10 -15z"/>
<path d="M2290 5200 c-8 -5 -12 -12 -9 -15 4 -3 12 1 19 10 14 17 11 19 -10 5z"/>
<path d="M2675 5200 c4 -6 11 -8 16 -5 14 9 11 15 -7 15 -8 0 -12 -5 -9 -10z"/>
<path d="M2644 5188 c3 -15 26 -23 26 -8 0 6 -4 9 -9 6 -5 -4 -12 -1 -14 4 -3
6 -4 5 -3 -2z"/>
<path d="M2220 5175 c0 -9 6 -12 15 -9 8 4 15 7 15 9 0 2 -7 5 -15 9 -9 3 -15
0 -15 -9z"/>
<path d="M2410 5180 c0 -5 5 -10 10 -10 6 0 10 5 10 10 0 6 -4 10 -10 10 -5 0
-10 -4 -10 -10z"/>
<path d="M2450 5180 c-13 -8 -12 -10 2 -10 11 0 17 -7 16 -17 -3 -35 2 -54 12
-48 9 6 3 64 -9 77 -3 4 -13 3 -21 -2z"/>
<path d="M2530 5176 c0 -9 7 -16 16 -16 9 0 14 5 12 12 -6 18 -28 21 -28 4z"/>
<path d="M2270 5160 c0 -5 5 -10 11 -10 5 0 7 5 4 10 -3 6 -8 10 -11 10 -2 0
-4 -4 -4 -10z"/>
<path d="M2323 5158 c-6 -7 -14 -23 -18 -36 -7 -23 -6 -23 14 -6 11 10 18 22
14 26 -3 5 2 8 10 6 9 -2 16 2 17 7 2 15 -26 17 -37 3z"/>
<path d="M2490 5159 c0 -5 5 -9 11 -9 6 0 9 -9 6 -20 -3 -11 -1 -20 4 -20 8 0
10 5 13 42 1 6 -7 12 -16 14 -10 1 -18 -2 -18 -7z"/>
<path d="M2610 5156 c0 -9 5 -16 10 -16 6 0 10 4 10 9 0 6 -4 13 -10 16 -5 3
-10 -1 -10 -9z"/>
<path d="M2710 5160 c0 -5 7 -7 15 -4 8 4 15 8 15 10 0 2 -7 4 -15 4 -8 0 -15
-4 -15 -10z"/>
<path d="M2790 5150 c0 -5 7 -10 16 -10 8 0 12 5 9 10 -3 6 -10 10 -16 10 -5
0 -9 -4 -9 -10z"/>
<path d="M2920 5145 c0 -9 5 -15 11 -13 6 2 11 8 11 13 0 5 -5 11 -11 13 -6 2
-11 -4 -11 -13z"/>
<path d="M3036 5152 c-3 -6 -1 -14 5 -17 15 -10 25 3 12 16 -7 7 -13 7 -17 1z"/>
<path d="M2045 5140 c3 -5 13 -10 21 -10 8 0 14 5 14 10 0 6 -9 10 -21 10 -11
0 -17 -4 -14 -10z"/>
<path d="M2557 5143 c-10 -9 -9 -23 2 -23 5 0 11 7 15 15 5 15 -5 20 -17 8z"/>
<path d="M2670 5140 c0 -5 5 -10 11 -10 5 0 7 5 4 10 -3 6 -8 10 -11 10 -2 0
-4 -4 -4 -10z"/>
<path d="M2740 5140 c0 -5 5 -10 10 -10 6 0 10 5 10 10 0 6 -4 10 -10 10 -5 0
-10 -4 -10 -10z"/>
<path d="M2395 5130 c-4 -6 -3 -16 3 -22 13 -13 23 4 13 21 -7 10 -10 10 -16
1z"/>
<path d="M2357 5123 c-4 -3 -7 -11 -7 -17 0 -6 5 -5 12 2 6 6 9 14 7 17 -3 3
-9 2 -12 -2z"/>
<path d="M2610 5110 c0 -5 5 -10 10 -10 6 0 10 5 10 10 0 6 -4 10 -10 10 -5 0
-10 -4 -10 -10z"/>
<path d="M2673 5113 c-18 -7 -16 -23 2 -23 8 0 15 7 15 15 0 8 -1 15 -2 14 -2
0 -9 -3 -15 -6z"/>
<path d="M2140 5070 c0 -5 5 -10 10 -10 6 0 10 5 10 10 0 6 -4 10 -10 10 -5 0
-10 -4 -10 -10z"/>
<path d="M2493 5065 c-10 -10 -9 -15 4 -19 20 -8 22 -5 14 15 -5 14 -8 15 -18
4z"/>
<path d="M2691 5073 c-1 -7 -8 -13 -16 -13 -8 0 -15 -4 -15 -10 0 -12 10 -13
29 -1 7 5 11 15 8 22 -4 10 -6 10 -6 2z"/>
<path d="M2530 5040 c0 -5 5 -10 10 -10 6 0 10 5 10 10 0 6 -4 10 -10 10 -5 0
-10 -4 -10 -10z"/>
<path d="M2565 5040 c-3 -5 -1 -10 4 -10 6 0 11 5 11 10 0 6 -2 10 -4 10 -3 0
-8 -4 -11 -10z"/>
<path d="M2173 5024 c0 -16 13 -19 21 -5 3 5 0 11 -7 14 -8 3 -14 -1 -14 -9z"/>
<path d="M2390 5026 c0 -9 5 -16 10 -16 6 0 10 4 10 9 0 6 -4 13 -10 16 -5 3
-10 -1 -10 -9z"/>
<path d="M2232 5018 c6 -18 28 -21 28 -4 0 9 -7 16 -16 16 -9 0 -14 -5 -12
-12z"/>
<path d="M2460 5020 c0 -5 7 -10 16 -10 8 0 12 5 9 10 -3 6 -10 10 -16 10 -5
0 -9 -4 -9 -10z"/>
<path d="M2600 5020 c0 -5 5 -10 10 -10 6 0 10 5 10 10 0 6 -4 10 -10 10 -5 0
-10 -4 -10 -10z"/>
<path d="M2660 5021 c0 -5 5 -13 10 -16 6 -3 10 -2 10 4 0 5 -4 13 -10 16 -5
3 -10 2 -10 -4z"/>
<path d="M2135 5010 c3 -5 8 -10 11 -10 2 0 4 5 4 10 0 6 -5 10 -11 10 -5 0
-7 -4 -4 -10z"/>
<path d="M2570 5000 c0 -5 5 -10 11 -10 5 0 7 5 4 10 -3 6 -8 10 -11 10 -2 0
-4 -4 -4 -10z"/>
<path d="M2200 4991 c0 -6 5 -11 11 -11 5 0 7 -4 4 -10 -3 -5 -1 -10 5 -10 15
0 9 32 -7 38 -7 2 -13 -1 -13 -7z"/>
<path d="M2295 4984 c2 -10 4 -23 4 -28 1 -6 6 -5 13 2 10 10 9 16 -4 29 -15
15 -16 15 -13 -3z"/>
<path d="M2415 4990 c-3 -5 1 -10 9 -10 9 0 16 5 16 10 0 6 -4 10 -9 10 -6 0
-13 -4 -16 -10z"/>
<path d="M2506 4983 c-6 -14 -5 -15 5 -6 7 7 10 15 7 18 -3 3 -9 -2 -12 -12z"/>
<path d="M2927 4981 c-3 -12 -1 -21 3 -21 14 0 19 15 11 29 -6 9 -10 7 -14 -8z"/>
<path d="M2265 4981 c-3 -5 -2 -12 3 -15 5 -3 9 1 9 9 0 17 -3 19 -12 6z"/>
<path d="M2596 4973 c-6 -14 -5 -15 5 -6 7 7 10 15 7 18 -3 3 -9 -2 -12 -12z"/>
<path d="M2625 4970 c-3 -5 1 -10 9 -10 9 0 16 5 16 10 0 6 -4 10 -9 10 -6 0
-13 -4 -16 -10z"/>
<path d="M2545 4960 c-19 -8 -19 -9 2 -9 12 -1 25 4 28 9 7 12 -2 12 -30 0z"/>
<path d="M2879 4933 c-13 -15 -12 -15 9 -4 23 12 28 21 13 21 -5 0 -15 -7 -22
-17z"/>
<path d="M2246 4818 c3 -5 10 -6 15 -3 13 9 11 12 -6 12 -8 0 -12 -4 -9 -9z"/>
<path d="M2508 4709 c-2 -6 -19 -12 -38 -14 -60 -4 -43 -22 29 -29 75 -6 101
-2 101 19 0 7 6 16 13 18 9 4 9 6 0 6 -6 1 -15 -3 -18 -9 -3 -5 -11 -10 -16
-10 -6 0 -7 6 -2 13 4 6 -5 4 -20 -6 -34 -22 -57 -18 -33 6 14 14 15 17 3 17
-9 0 -17 -5 -19 -11z"/>
<path d="M2391 4686 c-7 -8 -8 -17 -3 -20 6 -3 13 1 16 10 9 23 2 28 -13 10z"/>
<path d="M2625 4680 c-3 -5 -1 -10 4 -10 6 0 11 5 11 10 0 6 -2 10 -4 10 -3 0
-8 -4 -11 -10z"/>
<path d="M2711 4533 c-28 -34 -68 -167 -82 -268 -6 -45 -13 -289 -15 -555 -2
-261 -5 -564 -7 -673 -1 -111 1 -183 6 -165 4 18 10 310 12 649 3 498 7 639
20 735 18 125 43 217 77 272 24 39 17 42 -11 5z"/>
<path d="M2414 4498 c64 -111 86 -409 86 -1167 0 -145 3 -262 6 -258 10 10 4
878 -7 1037 -14 205 -34 324 -66 382 -14 26 -30 48 -35 48 -5 0 2 -19 16 -42z"/>
<path d="M2500 4460 c0 -5 5 -10 11 -10 5 0 7 5 4 10 -3 6 -8 10 -11 10 -2 0
-4 -4 -4 -10z"/>
<path d="M2537 4422 c-2 -4 0 -176 4 -382 4 -206 8 -583 9 -837 2 -423 4 -463
19 -463 15 0 16 10 8 103 -5 56 -7 434 -5 839 3 695 2 737 -14 742 -10 2 -19
1 -21 -2z"/>
<path d="M2522 2943 l-2 -133 -177 -2 c-98 -1 -230 -2 -293 -3 -168 -3 -585
-37 -598 -49 -7 -8 16 -58 41 -89 l22 -27 570 -6 c314 -3 784 -1 1045 4 261 5
476 9 478 7 4 -4 -125 -202 -213 -325 -115 -161 -352 -457 -416 -521 -62 -61
-108 -85 -227 -115 -142 -36 -285 -30 -426 18 -99 34 -138 57 -200 122 -81 85
-314 379 -416 525 -47 67 -93 132 -103 144 -10 11 -32 45 -48 75 -17 29 -34
51 -36 48 -14 -14 235 -370 432 -616 73 -91 181 -216 241 -278 99 -103 114
-115 164 -128 74 -20 250 -29 331 -16 118 18 156 42 257 156 251 286 564 708
666 899 20 38 43 79 52 92 8 13 11 26 6 29 -29 18 -458 42 -884 49 l-178 3 0
-33 0 -33 266 0 c174 0 263 3 259 10 -3 6 1 10 9 10 9 0 16 -5 16 -10 0 -7 27
-9 73 -6 39 3 135 7 212 10 133 5 137 5 85 -8 l-55 -14 88 -1 c48 0 87 -5 87
-10 0 -11 -2138 -8 -2162 3 -40 18 -13 26 80 24 l97 -2 -80 -6 -80 -7 90 2
c50 2 107 4 127 6 21 1 41 0 44 -4 4 -3 16 -2 27 4 14 8 18 8 13 0 -5 -7 4 -9
26 -6 18 2 178 4 355 5 l322 1 11 37 c7 21 10 92 8 167 l-4 130 -2 -132z m133
-173 c3 -5 2 -10 -4 -10 -5 0 -13 5 -16 10 -3 6 -2 10 4 10 5 0 13 -4 16 -10z
m272 -6 c-3 -3 -12 -4 -19 -1 -8 3 -5 6 6 6 11 1 17 -2 13 -5z m91 -1 c-16 -2
-40 -2 -55 0 -16 2 -3 4 27 4 30 0 43 -2 28 -4z m69 1 c-3 -3 -12 -4 -19 -1
-8 3 -5 6 6 6 11 1 17 -2 13 -5z m-1567 -74 c0 -5 7 -7 15 -4 8 4 15 1 15 -6
0 -8 10 -11 30 -7 16 4 32 2 35 -3 4 -6 -11 -10 -34 -10 -24 0 -41 5 -41 11 0
8 -6 7 -17 -2 -11 -10 -14 -10 -9 -1 4 6 2 12 -3 12 -6 0 -11 5 -11 10 0 6 5
10 10 10 6 0 10 -4 10 -10z m230 6 c0 -2 -7 -7 -16 -10 -8 -3 -12 -2 -9 4 6
10 25 14 25 6z m715 -24 c13 1 23 6 22 11 -1 5 15 9 36 9 20 0 71 -1 113 -1
47 -1 73 -5 69 -11 -3 -5 -1 -10 4 -10 6 0 11 6 11 13 0 8 4 7 10 -3 6 -10 10
-11 10 -2 0 6 6 12 14 12 8 0 17 -6 20 -12 5 -10 7 -10 12 0 7 14 34 16 34 2
0 -14 27 -12 34 3 5 10 7 10 12 0 3 -7 10 -13 15 -13 6 0 8 3 6 8 -3 4 17 8
43 10 27 1 51 -2 55 -8 8 -13 78 -13 91 0 7 7 11 6 11 -5 0 -13 -28 -15 -206
-16 -456 -1 -1245 1 -1247 4 -2 1 1 9 7 17 6 10 11 11 17 4 9 -14 83 -15 100
-2 8 7 16 7 26 -2 16 -12 86 -12 123 1 13 5 25 4 28 -2 7 -10 120 -7 131 4 4
3 12 3 18 -1 16 -10 30 -9 38 3 5 6 8 6 8 -2 0 -8 14 -13 36 -13 21 0 33 4 29
10 -4 7 3 7 20 0 35 -13 54 -13 35 1 -12 9 -12 10 3 5 50 -16 70 -19 63 -7 -5
7 0 11 13 11 12 0 21 -4 21 -8 0 -4 19 -9 43 -9 23 -1 33 1 23 4 -15 4 -16 7
-5 14 9 5 17 3 22 -6 4 -8 19 -14 32 -13z m1164 10 c-8 -13 -23 -17 -60 -16
-27 0 -52 4 -57 9 -4 4 8 5 26 3 18 -3 35 -1 38 3 2 5 11 6 18 3 8 -3 17 -1
21 5 3 6 10 11 16 11 5 0 4 -8 -2 -18z m-489 -2 c0 -5 -4 -10 -10 -10 -5 0
-10 5 -10 10 0 6 5 10 10 10 6 0 10 -4 10 -10z m55 -10 c3 -5 -1 -10 -9 -10
-9 0 -16 5 -16 10 0 6 4 10 9 10 6 0 13 -4 16 -10z m-867 -989 c108 -36 218
-54 282 -46 88 11 166 29 224 52 33 12 61 21 64 19 2 -3 -20 -20 -49 -39 -117
-75 -326 -94 -468 -44 -41 15 -96 41 -122 58 -46 29 -64 47 -36 35 6 -2 54
-19 105 -35z"/>
<path d="M2668 2673 c7 -3 16 -2 19 1 4 3 -2 6 -13 5 -11 0 -14 -3 -6 -6z"/>
<path d="M2928 2673 c6 -2 18 -2 25 0 6 3 1 5 -13 5 -14 0 -19 -2 -12 -5z"/>
<path d="M2018 2833 c12 -2 30 -2 40 0 9 3 -1 5 -23 4 -22 0 -30 -2 -17 -4z"/>
<path d="M2658 2833 c7 -3 16 -2 19 1 4 3 -2 6 -13 5 -11 0 -14 -3 -6 -6z"/>
<path d="M2938 2833 c12 -2 32 -2 45 0 12 2 2 4 -23 4 -25 0 -35 -2 -22 -4z"/>
<path d="M3650 2630 c-9 -6 -10 -10 -3 -10 6 0 15 5 18 10 8 12 4 12 -15 0z"/>
<path d="M3275 2360 c-3 -5 1 -10 9 -10 9 0 16 5 16 10 0 6 -4 10 -9 10 -6 0
-13 -4 -16 -10z"/>
<path d="M2020 2356 c0 -2 7 -9 15 -16 12 -10 15 -10 15 4 0 9 -7 16 -15 16
-8 0 -15 -2 -15 -4z"/>
<path d="M1965 2340 c-3 -5 -1 -10 4 -10 6 0 11 5 11 10 0 6 -2 10 -4 10 -3 0
-8 -4 -11 -10z"/>
<path d="M2080 2325 c7 -8 16 -12 21 -9 13 8 1 24 -18 24 -13 0 -13 -3 -3 -15z"/>
<path d="M1960 2291 c0 -29 16 -46 17 -18 0 6 2 18 4 26 2 7 -2 16 -8 18 -9 3
-13 -6 -13 -26z"/>
<path d="M2190 2292 c0 -14 28 -47 35 -41 2 3 -5 15 -15 29 -11 14 -20 19 -20
12z"/>
<path d="M3176 2194 c-8 -57 -47 -160 -60 -156 -4 2 -24 -22 -44 -52 -19 -31
-39 -56 -43 -56 -5 0 -9 -6 -9 -14 0 -8 -16 -31 -35 -50 -19 -20 -35 -39 -35
-41 0 -15 43 26 86 82 27 35 66 87 87 115 43 55 84 178 69 205 -7 11 -11 2
-16 -33z"/>
<path d="M2863 2192 c0 -12 5 -22 9 -22 11 0 10 12 -2 30 -7 12 -9 10 -7 -8z"/>
<path d="M2820 2139 c0 -5 5 -7 10 -4 6 3 10 8 10 11 0 2 -4 4 -10 4 -5 0 -10
-5 -10 -11z"/>
<path d="M2192 2121 c4 -13 18 -16 19 -4 0 4 -5 9 -11 12 -7 2 -11 -2 -8 -8z"/>
<path d="M2301 2091 c-8 -5 -20 -7 -28 -4 -7 3 -13 0 -13 -6 0 -16 36 -13 50
4 14 17 11 19 -9 6z"/>
<path d="M2230 2060 c0 -5 5 -10 10 -10 6 0 10 5 10 10 0 6 -4 10 -10 10 -5 0
-10 -4 -10 -10z"/>
<path d="M2317 2043 c-4 -3 -7 -11 -7 -17 0 -6 5 -5 12 2 6 6 9 14 7 17 -3 3
-9 2 -12 -2z"/>
<path d="M2655 2029 c-10 -15 3 -25 16 -12 7 7 7 13 1 17 -6 3 -14 1 -17 -5z"/>
<path d="M2170 1902 c0 -5 11 -14 25 -20 29 -13 33 -5 8 14 -21 15 -33 18 -33
6z"/>
<path d="M2120 1885 c0 -9 4 -13 10 -10 5 3 17 -3 27 -15 18 -21 48 -27 57
-11 4 5 -5 8 -18 7 -14 -2 -27 3 -30 10 -3 7 -14 18 -25 24 -17 9 -21 8 -21
-5z"/>
<path d="M2881 1846 c-8 -9 -11 -19 -7 -23 9 -9 29 13 24 27 -2 8 -8 7 -17 -4z"/>
<path d="M2483 1716 c0 -8 6 -12 14 -9 7 3 13 9 13 14 0 5 -6 9 -13 9 -8 0
-14 -6 -14 -14z"/>
<path d="M2545 1720 c-3 -5 1 -10 10 -10 9 0 13 5 10 10 -3 6 -8 10 -10 10 -2
0 -7 -4 -10 -10z"/>
<path d="M2619 1713 c-12 -15 -12 -16 5 -10 10 4 26 2 35 -5 10 -8 9 -5 -3 10
-23 26 -20 26 -37 5z"/>
<path d="M2730 1726 c0 -2 7 -7 16 -10 8 -3 12 -2 9 4 -6 10 -25 14 -25 6z"/>
<path d="M2438 1703 c7 -3 16 -2 19 1 4 3 -2 6 -13 5 -11 0 -14 -3 -6 -6z"/>
<path d="M2797 1572 c-15 -15 -27 -32 -27 -36 0 -4 -8 -20 -19 -34 -10 -15
-21 -40 -25 -55 -4 -19 -12 -27 -20 -24 -10 4 -14 -4 -14 -26 0 -18 -7 -63
-16 -102 -13 -64 -22 -128 -45 -350 -5 -51 -5 -82 2 -86 6 -4 3 -16 -7 -30
-21 -31 -22 -63 -1 -35 25 34 31 6 7 -35 -24 -42 -20 -49 14 -21 20 16 21 21
12 97 -14 120 4 339 43 510 10 43 66 155 117 233 19 30 11 28 -21 -6z"/>
<path d="M2367 1498 c37 -67 50 -106 69 -198 37 -182 48 -333 34 -468 -15
-143 -12 -147 93 -147 40 0 83 4 97 9 24 8 23 7 -7 -26 -29 -29 -38 -33 -73
-30 -27 3 -40 0 -40 -8 0 -10 16 -11 61 -6 34 3 70 6 80 6 11 0 19 7 19 15 0
8 -3 15 -7 15 -5 0 -8 14 -9 30 -1 37 -12 50 -24 30 -7 -11 -30 -15 -87 -15
-68 0 -78 2 -77 17 1 10 -2 15 -7 12 -5 -3 -9 2 -9 10 0 9 8 16 18 16 15 1 16
2 1 13 -11 8 -15 22 -12 44 3 18 9 31 13 28 18 -11 -4 232 -40 428 l-21 119
21 35 c24 41 24 43 6 43 -8 0 -19 -15 -26 -32 l-12 -33 -10 25 c-21 51 -28 66
-51 104 -45 77 -46 46 0 -36z"/>
<path d="M2494 1459 c-4 -7 -3 -9 4 -5 6 3 13 -2 15 -11 4 -16 5 -16 6 -1 1
21 -15 32 -25 17z"/>
<path d="M2537 1459 c7 -7 15 -10 18 -7 3 3 -2 9 -12 12 -14 6 -15 5 -6 -5z"/>
<path d="M2583 1443 c-8 -3 -13 -24 -13 -55 0 -52 12 -60 15 -10 1 15 5 37 9
50 4 12 6 22 4 21 -2 0 -9 -3 -15 -6z"/>
<path d="M2616 1415 c-9 -35 -9 -39 2 -43 5 -1 12 5 15 15 2 10 8 26 12 36 5
12 3 17 -8 17 -8 0 -18 -11 -21 -25z"/>
<path d="M2546 1385 c-3 -9 -5 -51 -5 -93 l2 -77 8 90 c8 90 7 109 -5 80z"/>
<path d="M2610 1335 c0 -14 2 -25 4 -25 2 0 6 11 8 25 3 14 1 25 -3 25 -5 0
-9 -11 -9 -25z"/>
<path d="M2572 1238 c-2 -51 -8 -133 -13 -183 -22 -192 -23 -245 -5 -245 12 0
16 10 16 48 0 26 3 70 5 97 26 278 30 375 12 375 -9 0 -13 -26 -15 -92z"/>
<path d="M2541 1154 c0 -11 3 -14 6 -6 3 7 2 16 -1 19 -3 4 -6 -2 -5 -13z"/>
<path d="M2555 790 c3 -5 8 -10 11 -10 2 0 4 5 4 10 0 6 -5 10 -11 10 -5 0 -7
-4 -4 -10z"/>
<path d="M2535 760 c-19 -8 -19 -9 3 -9 12 -1 24 -1 27 -1 9 0 7 14 -2 17 -4
1 -17 -2 -28 -7z"/>
<path d="M2510 730 c0 -5 5 -10 10 -10 6 0 10 5 10 10 0 6 -4 10 -10 10 -5 0
-10 -4 -10 -10z"/>
<path d="M2432 678 c-18 -18 -15 -32 11 -55 32 -30 31 -30 233 -48 75 -7 97 2
74 30 -15 18 -31 19 -27 3 1 -10 -15 -12 -63 -10 -169 7 -194 10 -207 28 -17
24 -7 31 15 11 11 -10 26 -14 40 -10 31 8 27 19 -9 27 -18 3 -37 13 -43 21 -9
13 -14 13 -24 3z"/>
<path d="M2389 666 c-2 -3 -279 -7 -614 -11 -697 -7 -1082 -13 -1240 -20 -218
-10 -283 -10 -278 0 2 6 -3 1 -11 -9 -9 -11 -14 -21 -12 -24 4 -3 220 -5 241
-1 6 1 15 0 20 -1 6 -1 54 -2 108 -1 73 0 96 -3 90 -12 -5 -9 -4 -9 8 0 16 13
286 15 294 3 3 -4 22 -4 42 0 21 3 50 3 66 -1 15 -4 27 -3 27 2 0 5 11 9 25 9
14 0 25 -6 25 -12 0 -9 3 -9 8 -2 8 12 62 14 62 3 0 -4 12 -4 28 0 15 5 226 8
470 7 243 -1 442 1 442 4 0 4 18 6 40 5 22 0 40 -3 40 -6 0 -3 -30 -20 -67
-37 -66 -30 -166 -58 -288 -82 -33 -6 -78 -18 -100 -25 -41 -14 -192 -18 -210
-5 -5 4 -28 8 -50 8 -207 2 -294 6 -289 13 9 15 -8 10 -29 -8 -11 -10 -17 -12
-13 -5 10 17 -2 32 -19 26 -8 -4 -13 -10 -10 -14 3 -4 -2 -11 -11 -14 -8 -3
-12 -2 -9 4 3 6 0 10 -7 10 -10 0 -10 2 1 9 8 5 -8 9 -43 8 -42 0 -54 -3 -47
-11 7 -8 4 -12 -10 -13 -11 -1 -17 2 -14 7 3 5 1 11 -5 15 -5 3 -15 -3 -22
-15 -12 -19 -29 -28 -27 -12 5 28 -2 35 -17 16 -13 -16 -15 -16 -10 -1 7 21
-19 24 -28 2 -3 -8 -11 -15 -18 -15 -9 0 -9 3 2 10 8 5 12 12 8 15 -3 3 -13
-1 -21 -10 -17 -16 -32 -20 -22 -6 3 5 1 12 -5 16 -6 3 -13 -1 -16 -9 -3 -9
-11 -16 -16 -16 -6 0 -8 6 -5 13 3 9 -8 13 -39 14 -31 1 -44 -2 -44 -11 0 -21
-80 -17 -80 3 -1 14 -2 14 -10 0 -7 -12 -25 -17 -65 -18 -63 0 -84 -8 -64 -23
11 -7 9 -8 -4 -4 -10 3 -24 6 -30 7 -7 0 -2 4 10 9 15 6 21 15 17 24 -5 14 -8
14 -21 1 -17 -17 -39 -19 -48 -5 -12 19 -23 10 -20 -15 1 -16 -3 -25 -12 -25
-10 0 -11 5 -3 19 7 13 7 22 0 26 -5 3 -10 1 -10 -5 0 -7 -7 -10 -15 -7 -8 4
-17 2 -20 -3 -11 -18 -38 -11 -30 7 5 15 3 14 -13 -2 -13 -14 -16 -22 -8 -27
6 -5 1 -8 -12 -8 -12 0 -21 5 -20 12 4 16 -150 20 -159 5 -3 -6 -1 -7 5 -3 7
4 12 3 12 -3 0 -6 7 -7 17 -4 11 4 14 3 9 -5 -4 -7 -2 -12 3 -12 6 0 11 5 11
10 0 6 5 10 11 10 6 0 8 -7 5 -17 -6 -14 -3 -14 15 3 12 10 19 13 15 7 -4 -7
-2 -13 3 -13 6 0 11 7 11 15 0 9 6 12 15 9 8 -4 12 -10 9 -15 -9 -16 73 -10
86 6 7 8 17 12 22 9 5 -3 2 -11 -7 -18 -13 -9 -9 -11 22 -9 38 2 162 4 196 3
29 -1 150 -1 192 0 21 1 46 6 54 13 10 8 13 8 8 1 -12 -21 9 -23 270 -26 29 0
51 -3 48 -7 -2 -4 129 -9 293 -10 163 -1 300 -4 303 -7 4 -2 10 4 14 15 8 25
37 36 181 66 137 28 205 50 282 89 72 37 153 96 146 107 -6 10 -9 11 -15 5z
m-1245 -195 c3 -5 -1 -11 -9 -14 -9 -4 -12 -1 -8 9 6 16 10 17 17 5z"/>
<path d="M2750 632 c89 -80 196 -126 409 -177 127 -30 151 -44 151 -88 0 -38
-13 -48 -90 -70 -94 -28 -276 -46 -520 -53 -259 -7 -593 8 -675 30 l-50 14 45
2 45 3 -45 8 c-25 4 -67 8 -95 9 -73 2 -121 22 -118 49 2 13 -1 20 -7 16 -6
-3 -10 -17 -10 -31 0 -31 32 -46 153 -68 48 -9 99 -21 113 -26 23 -9 272 -33
331 -32 13 0 21 -4 18 -8 -3 -5 7 -11 22 -13 16 -2 6 -3 -20 -2 -27 1 -45 -1
-40 -6 8 -7 56 -12 103 -10 20 1 22 3 10 11 -12 8 -9 10 13 10 15 0 27 5 27
10 0 6 16 10 35 10 19 0 35 -5 35 -11 0 -6 5 -7 13 -2 19 12 78 12 70 0 -4 -6
-1 -7 8 -2 7 5 47 11 89 13 157 8 316 20 340 26 14 3 39 8 55 10 63 8 115 19
115 25 0 3 14 12 31 20 31 13 31 14 24 70 -4 31 -9 59 -11 63 -6 9 -135 47
-254 76 -47 11 -96 24 -110 30 -14 5 -29 10 -35 12 -5 1 -14 8 -18 16 -4 8
-14 14 -22 14 -8 0 -17 6 -21 13 -4 6 -4 9 1 5 4 -4 15 -2 23 5 12 9 14 9 9 0
-5 -7 1 -16 12 -22 27 -15 38 -14 20 2 -8 6 -13 11 -11 10 2 0 17 3 33 7 16 5
29 6 29 2 0 -4 285 -7 633 -6 347 0 637 -4 644 -8 6 -5 14 -5 18 2 3 6 11 8
16 5 5 -3 56 -6 114 -6 76 0 105 -3 105 -12 0 -8 3 -9 8 -1 10 15 164 16 174
1 4 -7 8 -7 8 -2 0 11 226 12 237 1 3 -3 15 -1 26 5 13 7 17 8 13 1 -4 -7 3
-8 21 -4 16 4 49 7 76 6 53 -1 67 21 20 32 -16 3 -33 7 -39 9 -6 2 -16 -1 -22
-7 -8 -8 -15 -8 -25 0 -10 9 -16 9 -25 0 -9 -9 -12 -9 -12 0 0 8 -7 9 -24 2
-14 -5 -26 -5 -28 -1 -2 4 -192 11 -423 15 -688 11 -1041 16 -1400 21 -187 3
-351 8 -365 11 -21 5 -18 -1 20 -34z"/>
<path d="M90 615 c-10 -12 -9 -15 4 -15 10 0 14 5 10 11 -4 7 -1 10 7 7 8 -3
13 -13 12 -22 -1 -14 4 -16 25 -10 15 4 37 6 48 6 14 -1 24 6 27 18 3 11 1 20
-4 20 -5 0 -9 -7 -9 -16 0 -8 -5 -12 -10 -9 -6 4 -8 11 -5 16 4 5 -9 8 -27 8
-23 -1 -26 -3 -10 -6 12 -2 22 -9 22 -14 0 -11 -39 -2 -54 12 -14 13 -22 11
-36 -6z"/>
<path d="M2399 625 c-6 -23 2 -32 41 -43 25 -8 72 -17 105 -22 80 -10 171 -38
132 -39 -15 -1 -42 6 -58 15 -33 16 -45 14 -36 -9 3 -8 36 -17 87 -24 76 -10
86 -9 118 9 19 10 37 17 39 14 7 -6 -69 -52 -79 -48 -5 1 -8 -3 -8 -8 0 -6 4
-10 9 -10 5 0 16 -3 25 -6 10 -4 27 6 46 27 36 40 37 47 8 58 -22 8 -68 -7
-68 -23 0 -6 -6 -3 -12 6 -13 16 -85 34 -193 48 -63 9 -150 42 -138 53 3 4 1
7 -5 7 -7 0 -13 -2 -13 -5z m396 -155 c-3 -5 -12 -10 -18 -10 -7 0 -6 4 3 10
19 12 23 12 15 0z"/>
<path d="M30 600 c0 -13 11 -13 30 0 12 8 11 10 -7 10 -13 0 -23 -4 -23 -10z"/>
<path d="M2368 553 c7 -3 16 -2 19 1 4 3 -2 6 -13 5 -11 0 -14 -3 -6 -6z"/>
<path d="M2468 543 c-32 -2 -58 -8 -58 -12 0 -10 138 -13 153 -4 10 6 -13 24
-28 21 -5 -1 -36 -3 -67 -5z"/>
<path d="M2300 523 c0 -9 3 -14 6 -10 3 3 14 -3 24 -13 19 -19 136 -43 208
-43 23 1 42 -3 42 -8 0 -6 8 -5 19 1 29 15 50 12 29 -4 -10 -7 -18 -21 -18
-30 0 -23 76 -21 175 3 42 11 83 17 90 15 7 -3 16 -1 20 5 3 6 16 11 28 11 20
0 20 0 1 -15 -17 -13 -17 -14 -1 -15 9 0 17 5 17 10 0 6 8 10 18 10 10 1 3 7
-16 15 -18 8 -40 11 -48 8 -13 -5 -15 -2 -9 18 7 22 5 21 -29 -9 -20 -17 -40
-32 -44 -32 -4 0 -38 -7 -77 -15 -38 -8 -80 -12 -93 -8 -21 5 -22 6 -5 17 23
16 66 18 74 4 4 -6 12 -7 20 -3 16 11 -26 29 -58 26 -13 -1 -23 2 -23 7 0 5
-37 9 -82 9 -85 1 -173 19 -226 47 -39 20 -42 20 -42 -1z"/>
<path d="M2253 503 c-18 -7 -17 -53 1 -53 9 0 12 7 9 23 -3 13 -1 17 4 11 16
-23 168 -61 178 -45 2 5 -12 12 -33 15 -58 11 -132 37 -132 47 0 10 -8 10 -27
2z"/>
<path d="M2458 503 c7 -3 16 -2 19 1 4 3 -2 6 -13 5 -11 0 -14 -3 -6 -6z"/>
<path d="M2540 500 c0 -5 6 -10 14 -10 8 0 18 5 21 10 3 6 -3 10 -14 10 -12 0
-21 -4 -21 -10z"/>
<path d="M720 486 c0 -9 5 -16 10 -16 6 0 10 4 10 9 0 6 -4 13 -10 16 -5 3
-10 -1 -10 -9z"/>
<path d="M600 481 c0 -6 9 -9 20 -8 11 1 20 5 20 9 0 4 -9 8 -20 8 -11 0 -20
-4 -20 -9z"/>
<path d="M2182 468 c12 -37 120 -78 203 -78 19 0 35 -5 35 -11 0 -8 -26 -9
-87 -5 -49 4 -172 9 -274 11 -102 2 -198 7 -212 10 -17 5 -27 3 -27 -4 0 -6 8
-11 18 -12 12 0 13 -2 3 -6 -26 -10 45 -31 166 -49 65 -10 136 -18 158 -18 22
0 78 0 125 0 369 -1 461 1 470 10 7 7 -99 9 -307 8 -289 -2 -326 -1 -408 18
-93 21 -149 42 -85 32 19 -3 55 -10 80 -15 25 -5 101 -8 170 -7 69 2 202 -1
296 -6 95 -5 177 -5 183 -2 7 4 94 7 194 7 100 -1 209 3 242 8 146 23 150 23
135 12 -13 -9 -12 -11 3 -11 12 0 17 6 15 18 -2 11 -12 16 -28 15 -81 -5 -97
-5 -115 2 -14 5 -16 4 -6 -3 9 -7 -6 -12 -53 -17 -55 -5 -69 -4 -83 10 -14 14
-25 16 -67 9 -87 -15 -460 -7 -555 12 -94 18 -142 36 -161 58 -15 19 -33 21
-28 4z m426 -108 c-10 -6 -31 -7 -55 -1 -38 9 -38 9 17 10 40 0 50 -2 38 -9z"/>
<path d="M117 449 c7 -7 15 -10 18 -7 3 3 -2 9 -12 12 -14 6 -15 5 -6 -5z"/>
<path d="M2130 447 c-29 -15 -40 -47 -15 -47 9 0 13 5 10 10 -4 6 10 10 34 10
23 0 41 5 41 10 0 6 -12 10 -26 10 -14 0 -23 4 -19 10 8 13 5 12 -25 -3z"/>
<path d="M30 440 c0 -5 5 -10 11 -10 5 0 7 5 4 10 -3 6 -8 10 -11 10 -2 0 -4
-4 -4 -10z"/>
<path d="M2040 440 c0 -5 7 -10 16 -10 8 0 12 5 9 10 -3 6 -10 10 -16 10 -5 0
-9 -4 -9 -10z"/>
<path d="M3048 443 c7 -3 16 -2 19 1 4 3 -2 6 -13 5 -11 0 -14 -3 -6 -6z"/>
<path d="M2467 433 c-18 -17 -1 -23 66 -22 48 0 65 3 52 9 -11 4 -30 6 -41 3
-12 -2 -25 0 -28 6 -8 12 -39 15 -49 4z"/>
<path d="M3100 430 c0 -5 10 -10 23 -10 18 0 19 2 7 10 -19 13 -30 13 -30 0z"/>
<path d="M55 420 c-3 -5 -2 -10 4 -10 5 0 13 5 16 10 3 6 2 10 -4 10 -5 0 -13
-4 -16 -10z"/>
<path d="M110 422 c0 -5 7 -9 15 -9 8 0 15 4 15 9 0 4 -7 8 -15 8 -8 0 -15 -4
-15 -8z"/>
<path d="M2968 423 c6 -2 18 -2 25 0 6 3 1 5 -13 5 -14 0 -19 -2 -12 -5z"/>
<path d="M4565 370 c-3 -5 -1 -10 4 -10 6 0 11 5 11 10 0 6 -2 10 -4 10 -3 0
-8 -4 -11 -10z"/>
<path d="M4910 349 c0 -5 5 -7 10 -4 6 3 10 8 10 11 0 2 -4 4 -10 4 -5 0 -10
-5 -10 -11z"/>
<path d="M3188 343 c6 -2 18 -2 25 0 6 3 1 5 -13 5 -14 0 -19 -2 -12 -5z"/>
<path d="M3123 333 c9 -2 23 -2 30 0 6 3 -1 5 -18 5 -16 0 -22 -2 -12 -5z"/>
<path d="M2875 325 c-5 -2 -27 -6 -47 -10 -21 -3 -38 -10 -38 -15 0 -13 125
-13 164 0 17 5 54 14 81 19 45 8 41 9 -50 9 -55 0 -104 -1 -110 -3z"/>
<path d="M3200 315 c-19 -7 -28 -13 -20 -13 8 0 31 6 50 13 19 7 28 13 20 13
-8 0 -31 -6 -50 -13z"/>
<path d="M4138 323 c7 -3 16 -2 19 1 4 3 -2 6 -13 5 -11 0 -14 -3 -6 -6z"/>
<path d="M3128 293 c7 -3 16 -2 19 1 4 3 -2 6 -13 5 -11 0 -14 -3 -6 -6z"/>
<path d="M2270 275 c63 -7 178 -13 255 -13 118 1 129 2 70 8 -38 4 -153 10
-255 13 l-185 5 115 -13z"/>
<path d="M2988 283 c6 -2 18 -2 25 0 6 3 1 5 -13 5 -14 0 -19 -2 -12 -5z"/>
<path d="M3048 283 c6 -2 18 -2 25 0 6 3 1 5 -13 5 -14 0 -19 -2 -12 -5z"/>
<path d="M2847 263 c18 -2 50 -2 70 0 21 2 7 4 -32 4 -38 0 -55 -2 -38 -4z"/>
<path d="M3560 239 c0 -5 5 -7 10 -4 6 3 10 8 10 11 0 2 -4 4 -10 4 -5 0 -10
-5 -10 -11z"/>
<path d="M2330 195 c-9 -11 -16 -13 -24 -5 -13 13 -29 13 -20 -1 5 -8 1 -8
-14 0 -13 7 -23 7 -27 1 -3 -5 -27 -9 -53 -9 -96 1 -142 -4 -142 -15 0 -7 -3
-8 -8 -1 -8 12 -7 12 -72 2 -25 -4 -147 -8 -272 -10 -126 -1 -228 -5 -228 -10
0 -4 111 -7 247 -7 190 1 248 -2 254 -12 7 -10 11 -10 21 0 6 6 17 12 23 12 5
0 3 -5 -5 -10 -8 -5 -10 -10 -5 -11 41 -6 55 -5 55 3 0 6 7 8 15 4 8 -3 15 -1
15 4 0 18 20 10 21 -7 0 -11 3 -13 6 -5 2 6 9 10 14 6 5 -3 9 0 9 5 0 15 43
14 59 -1 10 -11 15 -9 27 6 11 16 18 17 36 9 13 -6 32 -7 43 -2 11 4 32 8 48
8 28 1 39 21 11 21 -8 0 -12 5 -9 10 3 6 0 10 -7 10 -9 0 -9 3 2 10 8 5 10 10
4 10 -6 0 -17 -7 -24 -15z m-123 -57 c-3 -7 -5 -2 -5 12 0 14 2 19 5 13 2 -7
2 -19 0 -25z m93 23 c0 -5 -9 -7 -20 -4 -11 3 -20 7 -20 9 0 2 9 4 20 4 11 0
20 -4 20 -9z m-245 -21 c3 -5 -1 -10 -10 -10 -9 0 -13 5 -10 10 3 6 8 10 10
10 2 0 7 -4 10 -10z"/>
<path d="M4090 196 c0 -2 7 -7 16 -10 8 -3 12 -2 9 4 -6 10 -25 14 -25 6z"/>
<path d="M4008 173 c7 -3 16 -2 19 1 4 3 -2 6 -13 5 -11 0 -14 -3 -6 -6z"/>
<path d="M2428 158 c5 -5 16 -8 23 -6 8 3 3 7 -10 11 -17 4 -21 3 -13 -5z"/>
<path d="M4566 161 c-4 -6 -3 -11 3 -11 6 0 13 -16 17 -35 3 -19 10 -33 14
-30 5 3 6 15 4 28 -4 21 -4 21 6 -2 7 -15 15 -21 26 -17 9 3 24 6 35 6 13 0
17 5 12 17 -4 11 -8 12 -11 5 -2 -7 -8 -12 -13 -12 -6 0 -7 5 -4 10 3 6 1 10
-4 10 -6 0 -11 -6 -11 -12 0 -10 -2 -10 -8 -1 -4 6 -14 13 -22 15 -8 2 -20 11
-26 22 -8 13 -13 15 -18 7z"/>
<path d="M1278 153 c7 -3 16 -2 19 1 4 3 -2 6 -13 5 -11 0 -14 -3 -6 -6z"/>
<path d="M1310 150 c0 -5 7 -7 15 -4 8 4 15 8 15 10 0 2 -7 4 -15 4 -8 0 -15
-4 -15 -10z"/>
<path d="M1390 150 c0 -5 7 -7 15 -4 8 4 15 8 15 10 0 2 -7 4 -15 4 -8 0 -15
-4 -15 -10z"/>
<path d="M1438 153 c7 -3 16 -2 19 1 4 3 -2 6 -13 5 -11 0 -14 -3 -6 -6z"/>
<path d="M3846 151 c-4 -5 3 -7 14 -4 23 6 26 13 6 13 -8 0 -17 -4 -20 -9z"/>
<path d="M1203 143 c9 -2 23 -2 30 0 6 3 -1 5 -18 5 -16 0 -22 -2 -12 -5z"/>
<path d="M4690 132 c1 -18 19 -34 44 -36 20 -3 26 0 22 11 -3 8 -6 17 -6 19 0
12 -19 1 -23 -13 -4 -16 -5 -16 -6 -2 -1 16 -31 36 -31 21z"/>
<path d="M4856 132 c-3 -5 -17 -7 -31 -4 -18 3 -25 0 -25 -12 0 -9 -4 -16 -10
-16 -5 0 -10 7 -10 15 0 8 -5 15 -11 15 -6 0 -8 -7 -5 -16 3 -9 6 -18 6 -20 0
-11 31 -2 36 11 4 8 11 15 16 15 6 0 8 -6 5 -12 -3 -9 8 -13 34 -14 34 -1 37
0 29 17 -13 23 -27 32 -34 21z m10 -29 c-10 -10 -19 5 -10 18 6 11 8 11 12 0
2 -7 1 -15 -2 -18z"/>
<path d="M1650 120 c0 -5 7 -10 16 -10 8 0 12 5 9 10 -3 6 -10 10 -16 10 -5 0
-9 -4 -9 -10z"/>
<path d="M1700 120 c-18 -12 -2 -12 25 0 13 6 15 9 5 9 -8 0 -22 -4 -30 -9z"/>
<path d="M1775 123 c21 -17 16 -35 -7 -28 -18 5 -20 4 -8 -4 8 -6 21 -11 27
-11 17 0 10 43 -8 48 -8 2 -10 0 -4 -5z"/>
<path d="M1859 118 c-1 -7 -1 -16 0 -20 0 -5 -11 -8 -26 -9 -25 0 -26 -1 -8
-9 21 -8 40 3 40 23 0 7 12 11 30 9 36 -5 29 7 -9 14 -16 3 -26 0 -27 -8z"/>
<path d="M1940 120 c-9 -6 -10 -10 -3 -10 6 0 15 5 18 10 8 12 4 12 -15 0z"/>
<path d="M3568 123 c7 -3 16 -2 19 1 4 3 -2 6 -13 5 -11 0 -14 -3 -6 -6z"/>
<path d="M4936 113 c-6 -15 -8 -15 -16 -3 -5 8 -12 11 -15 8 -15 -15 8 -27 46
-24 42 4 57 11 45 23 -4 4 -11 2 -15 -6 -7 -10 -10 -9 -14 3 -8 21 -23 20 -31
-1z"/>
<path d="M1430 99 c-11 -8 -12 -12 -2 -16 6 -2 10 -8 7 -13 -3 -4 6 -3 20 3
24 12 24 12 3 15 -17 3 -18 6 -7 13 8 5 10 9 4 9 -5 0 -17 -5 -25 -11z"/>
<path d="M1523 102 c-18 -2 -33 -7 -33 -12 0 -5 9 -7 20 -5 11 2 20 -1 20 -6
0 -6 4 -8 9 -5 5 4 11 1 13 -6 3 -8 6 -7 10 3 9 24 -4 34 -39 31z"/>
<path d="M1598 103 c7 -3 16 -2 19 1 4 3 -2 6 -13 5 -11 0 -14 -3 -6 -6z"/>
<path d="M1720 101 c0 -6 4 -13 10 -16 6 -3 7 1 4 9 -7 18 -14 21 -14 7z"/>
<path d="M1049 79 c-8 -15 -6 -19 6 -19 9 0 13 5 10 10 -9 15 49 12 64 -2 10
-11 12 -10 9 2 -2 9 3 14 12 12 8 -2 12 0 7 4 -4 4 -27 8 -52 10 -36 1 -48 -2
-56 -17z"/>
<path d="M1170 90 c0 -5 7 -10 15 -10 8 0 15 5 15 10 0 6 -7 10 -15 10 -8 0
-15 -4 -15 -10z"/>
<path d="M1210 78 c0 -10 5 -18 11 -18 5 0 8 4 5 9 -9 14 20 21 33 8 16 -16
44 -18 37 -2 -4 11 6 12 48 8 34 -3 56 -1 60 5 5 8 -23 11 -94 10 -89 -2 -100
-4 -100 -20z"/>
<path d="M1646 92 c-3 -5 -18 -8 -33 -7 -16 1 -19 0 -8 -2 11 -3 23 -10 27
-17 6 -8 8 -8 8 2 0 6 9 12 20 12 11 0 20 5 20 10 0 12 -27 13 -34 2z"/>
<path d="M1880 96 c0 -2 7 -6 15 -10 8 -3 15 -1 15 4 0 6 -7 10 -15 10 -8 0
-15 -2 -15 -4z"/>
<path d="M1930 90 c0 -5 5 -10 11 -10 5 0 7 5 4 10 -3 6 -8 10 -11 10 -2 0 -4
-4 -4 -10z"/>
<path d="M3968 93 c6 -2 18 -2 25 0 6 3 1 5 -13 5 -14 0 -19 -2 -12 -5z"/>
<path d="M793 75 c0 -8 4 -12 9 -9 4 3 8 9 8 15 0 5 -4 9 -8 9 -5 0 -9 -7 -9
-15z"/>
<path d="M1018 83 c7 -3 16 -2 19 1 4 3 -2 6 -13 5 -11 0 -14 -3 -6 -6z"/>
<path d="M1690 81 c0 -6 4 -12 8 -15 5 -3 9 1 9 9 0 8 -4 15 -9 15 -4 0 -8 -4
-8 -9z"/>
<path d="M2046 73 c-6 -14 -5 -15 5 -6 7 7 10 15 7 18 -3 3 -9 -2 -12 -12z"/>
<path d="M1361 54 c0 -11 3 -14 6 -6 3 7 2 16 -1 19 -3 4 -6 -2 -5 -13z"/>
<path d="M1395 60 c3 -5 8 -10 11 -10 2 0 4 5 4 10 0 6 -5 10 -11 10 -5 0 -7
-4 -4 -10z"/>
<path d="M4778 63 c7 -3 16 -2 19 1 4 3 -2 6 -13 5 -11 0 -14 -3 -6 -6z"/>
<path d="M5008 13 c7 -3 16 -2 19 1 4 3 -2 6 -13 5 -11 0 -14 -3 -6 -6z"/>
</g>
</svg>
