<?xml version="1.0" standalone="no"?>
<!DOCTYPE svg PUBLIC "-//W3C//DTD SVG 20010904//EN"
 "http://www.w3.org/TR/2001/REC-SVG-20010904/DTD/svg10.dtd">
<svg version="1.0" xmlns="http://www.w3.org/2000/svg"
 width="512.000000pt" height="512.000000pt" viewBox="0 0 512.000000 512.000000"
 preserveAspectRatio="xMidYMid meet">
<metadata>
Created by potrace 1.16, written by Peter Selinger 2001-2019
</metadata>
<g transform="translate(0.000000,512.000000) scale(0.100000,-0.100000)"
fill="#000000" stroke="none">
<path d="M2590 5084 c-1 -31 -21 -254 -30 -329 -22 -192 -38 -388 -44 -546 -2
-54 -9 -105 -14 -116 -12 -22 -16 -329 -5 -336 4 -3 8 47 7 111 0 65 3 144 6
177 6 58 7 57 8 -29 1 -49 5 -86 9 -83 3 4 6 55 5 114 -1 122 30 554 53 743
16 121 21 287 10 298 -3 3 -5 1 -5 -4z"/>
<path d="M2625 4998 c9 -111 52 -589 65 -711 5 -54 11 -146 12 -205 1 -84 3
-95 7 -52 11 99 24 18 16 -99 -4 -58 -5 -104 -2 -101 3 3 7 25 8 48 2 24 6 45
10 47 6 5 18 -93 20 -180 l2 -50 7 60 c8 76 1 178 -14 187 -6 4 -11 27 -12 50
0 24 -6 72 -12 108 -6 36 -14 99 -17 140 -3 41 -7 91 -10 110 -2 19 -7 73 -10
120 -4 47 -10 110 -15 140 -5 30 -11 96 -15 145 -3 50 -10 133 -15 185 -5 52
-10 105 -10 118 0 12 -5 22 -11 22 -8 0 -9 -25 -4 -82z"/>
<path d="M4115 5050 c3 -5 11 -10 16 -10 6 0 7 5 4 10 -3 6 -11 10 -16 10 -6
0 -7 -4 -4 -10z"/>
<path d="M3825 5000 c-3 -6 1 -7 9 -4 18 7 21 14 7 14 -6 0 -13 -4 -16 -10z"/>
<path d="M3755 4920 c-10 -11 -13 -20 -8 -20 13 0 38 29 31 35 -3 3 -13 -4
-23 -15z"/>
<path d="M500 4910 c0 -5 5 -10 11 -10 5 0 7 5 4 10 -3 6 -8 10 -11 10 -2 0
-4 -4 -4 -10z"/>
<path d="M3681 4854 c-22 -14 -41 -29 -41 -35 0 -5 -6 -9 -13 -9 -26 0 -149
-132 -136 -145 3 -2 38 28 78 67 56 54 73 65 68 47 -4 -13 -7 -28 -7 -32 0 -5
-4 -5 -10 -2 -14 9 -47 -50 -75 -137 -26 -79 -34 -137 -13 -88 6 14 12 30 14
37 4 19 39 64 84 108 39 38 68 87 85 145 12 40 -10 11 -29 -40 -17 -43 -100
-140 -120 -140 -5 0 -2 8 6 18 9 9 20 31 25 47 6 17 15 29 21 28 6 -2 17 13
23 32 7 19 17 35 22 35 5 0 6 7 3 16 -7 18 63 53 108 54 38 0 31 6 -15 13 -27
4 -46 -1 -78 -19z"/>
<path d="M3855 4850 c11 -5 27 -9 35 -9 13 -1 13 0 0 9 -8 5 -24 9 -35 9 l-20
0 20 -9z"/>
<path d="M370 4819 c0 -5 5 -7 10 -4 6 3 10 8 10 11 0 2 -4 4 -10 4 -5 0 -10
-5 -10 -11z"/>
<path d="M3475 4641 c-41 -25 -141 -131 -150 -160 -12 -40 1 -33 34 19 18 28
61 71 102 101 38 29 69 53 69 55 0 10 -28 2 -55 -15z"/>
<path d="M1165 4590 c3 -5 10 -10 16 -10 5 0 9 5 9 10 0 6 -7 10 -16 10 -8 0
-12 -4 -9 -10z"/>
<path d="M1200 4581 c0 -6 15 -18 33 -27 17 -9 47 -30 65 -47 20 -20 32 -26
32 -16 0 7 -17 25 -38 39 -20 13 -49 33 -64 43 -16 10 -28 14 -28 8z"/>
<path d="M3470 4560 c0 -5 5 -10 10 -10 6 0 10 5 10 10 0 6 -4 10 -10 10 -5 0
-10 -4 -10 -10z"/>
<path d="M3409 4534 c-14 -38 -3 -41 16 -5 9 18 11 31 5 31 -6 0 -15 -12 -21
-26z"/>
<path d="M3576 4544 c-17 -12 -17 -14 -4 -14 9 0 20 5 23 11 11 17 2 18 -19 3z"/>
<path d="M875 4470 c3 -5 8 -10 11 -10 2 0 4 5 4 10 0 6 -5 10 -11 10 -5 0 -7
-4 -4 -10z"/>
<path d="M3381 4471 c-1 -8 -8 -23 -18 -33 -9 -10 -11 -18 -5 -18 15 0 35 38
28 53 -3 8 -5 7 -5 -2z"/>
<path d="M3469 4438 c-5 -18 -6 -38 -1 -34 7 8 12 36 6 36 -2 0 -4 -1 -5 -2z"/>
<path d="M1420 4422 c0 -5 17 -18 38 -29 47 -27 103 -73 168 -140 36 -38 59
-53 78 -53 14 0 26 5 26 11 0 5 -4 8 -10 4 -5 -3 -33 16 -63 42 -109 97 -139
123 -143 123 -3 0 -22 11 -42 25 -38 26 -52 31 -52 17z"/>
<path d="M3312 4375 c-6 -14 -8 -25 -4 -25 4 0 12 11 19 25 6 14 8 25 4 25 -4
0 -13 -11 -19 -25z"/>
<path d="M3415 4390 c-3 -5 -1 -10 4 -10 6 0 11 5 11 10 0 6 -2 10 -4 10 -3 0
-8 -4 -11 -10z"/>
<path d="M1340 4371 c0 -8 34 -21 55 -21 11 1 -35 29 -47 30 -5 0 -8 -4 -8 -9z"/>
<path d="M1720 4356 c0 -2 7 -9 15 -16 9 -7 15 -8 15 -2 0 5 -7 12 -15 16 -8
3 -15 4 -15 2z"/>
<path d="M1760 4324 c0 -9 24 -29 40 -32 10 -3 9 2 -4 17 -18 20 -36 28 -36
15z"/>
<path d="M1838 4255 c17 -14 35 -25 42 -25 6 0 8 -5 4 -12 -5 -7 -3 -8 6 -3
10 6 5 15 -20 37 -19 15 -40 28 -48 28 -7 0 0 -11 16 -25z"/>
<path d="M4385 4188 c-26 -29 -64 -78 -85 -108 -21 -30 -57 -70 -80 -89 -29
-24 -53 -56 -76 -105 -19 -39 -46 -87 -61 -106 -24 -31 -25 -33 -4 -15 20 17
18 10 -14 -49 -21 -38 -54 -97 -74 -130 -36 -60 -72 -134 -72 -148 1 -12 -59
-120 -86 -155 -13 -18 -20 -33 -16 -33 10 0 72 91 95 140 9 19 22 47 28 62 7
15 18 26 23 25 6 -1 29 25 51 57 22 32 52 66 68 75 15 9 30 23 33 31 5 12 4
13 -6 3 -28 -28 -24 -8 19 100 52 127 82 180 126 219 17 15 26 28 20 28 -11 0
-72 -59 -99 -95 -12 -17 -14 -17 -15 -3 0 9 26 42 58 75 33 32 84 92 115 133
31 41 68 90 82 108 41 50 22 38 -30 -20z m-225 -321 c0 -1 -9 -27 -21 -57 -11
-30 -21 -59 -23 -65 -5 -25 -59 -132 -75 -150 -10 -11 -30 -42 -45 -68 -15
-27 -30 -46 -34 -43 -7 7 10 42 65 128 23 37 54 96 68 130 14 35 30 71 35 80
6 10 10 25 10 33 0 8 5 15 10 15 6 0 10 -1 10 -3z"/>
<path d="M1756 4213 c-6 -14 -5 -15 5 -6 7 7 10 15 7 18 -3 3 -9 -2 -12 -12z"/>
<path d="M4645 4219 c-4 -6 -5 -12 -2 -15 2 -3 7 2 10 11 7 17 1 20 -8 4z"/>
<path d="M4610 4175 c-7 -8 -8 -15 -2 -15 5 0 15 7 22 15 7 8 8 15 2 15 -5 0
-15 -7 -22 -15z"/>
<path d="M4840 4140 c0 -5 5 -10 11 -10 5 0 7 5 4 10 -3 6 -8 10 -11 10 -2 0
-4 -4 -4 -10z"/>
<path d="M4420 4129 c0 -5 5 -7 10 -4 6 3 10 8 10 11 0 2 -4 4 -10 4 -5 0 -10
-5 -10 -11z"/>
<path d="M4660 4120 c-13 -8 -12 -10 3 -10 9 0 17 5 17 10 0 12 -1 12 -20 0z"/>
<path d="M1880 4117 c0 -17 144 -217 157 -217 9 0 -9 43 -28 64 -23 26 -57 83
-65 109 -4 9 -10 18 -15 18 -5 1 -14 2 -19 3 -6 0 -15 8 -20 16 -5 8 -10 12
-10 7z"/>
<path d="M4521 4088 l-11 -33 21 28 c11 15 25 25 30 21 5 -3 9 0 9 5 0 6 -9
11 -19 11 -13 0 -23 -11 -30 -32z"/>
<path d="M4374 4076 c-16 -18 -42 -50 -59 -71 -16 -21 -36 -44 -44 -52 -7 -8
-11 -16 -9 -19 3 -2 29 24 59 58 30 35 62 72 71 82 17 18 23 36 14 36 -2 0
-17 -15 -32 -34z"/>
<path d="M4630 4091 c0 -6 5 -13 10 -16 6 -3 10 1 10 9 0 9 -4 16 -10 16 -5 0
-10 -4 -10 -9z"/>
<path d="M4506 4035 c-9 -26 -7 -32 5 -12 6 10 9 21 6 23 -2 3 -7 -2 -11 -11z"/>
<path d="M5075 4040 c-3 -6 1 -7 9 -4 18 7 21 14 7 14 -6 0 -13 -4 -16 -10z"/>
<path d="M4765 4030 c-3 -5 -2 -10 4 -10 5 0 13 5 16 10 3 6 2 10 -4 10 -5 0
-13 -4 -16 -10z"/>
<path d="M1030 4026 c0 -2 7 -7 16 -10 8 -3 12 -2 9 4 -6 10 -25 14 -25 6z"/>
<path d="M5025 4010 c-3 -5 -2 -10 4 -10 5 0 13 5 16 10 3 6 2 10 -4 10 -5 0
-13 -4 -16 -10z"/>
<path d="M1080 3990 c0 -5 5 -10 10 -10 6 0 10 5 10 10 0 6 -4 10 -10 10 -5 0
-10 -4 -10 -10z"/>
<path d="M4415 3990 c-3 -5 1 -10 10 -10 9 0 13 5 10 10 -3 6 -8 10 -10 10 -2
0 -7 -4 -10 -10z"/>
<path d="M4358 3963 c-28 -29 -120 -201 -116 -215 2 -4 16 18 33 50 16 31 46
82 66 112 60 92 62 101 17 53z"/>
<path d="M1130 3966 c0 -2 7 -6 15 -10 8 -3 15 -1 15 4 0 6 -7 10 -15 10 -8 0
-15 -2 -15 -4z"/>
<path d="M4965 3950 c-3 -6 1 -7 9 -4 18 7 21 14 7 14 -6 0 -13 -4 -16 -10z"/>
<path d="M4720 3939 c0 -5 5 -7 10 -4 6 3 10 8 10 11 0 2 -4 4 -10 4 -5 0 -10
-5 -10 -11z"/>
<path d="M2455 3919 c-8 -12 -8 -280 0 -287 3 -3 5 26 6 64 0 38 1 106 3 152
2 45 2 82 0 82 -2 0 -6 -5 -9 -11z"/>
<path d="M4915 3910 c-10 -11 -26 -20 -37 -20 -10 0 -18 -4 -18 -10 0 -17 16
-11 55 20 21 17 33 30 28 30 -5 0 -18 -9 -28 -20z"/>
<path d="M5025 3910 c-3 -5 -1 -10 4 -10 6 0 11 5 11 10 0 6 -2 10 -4 10 -3 0
-8 -4 -11 -10z"/>
<path d="M642 3891 c6 -11 30 -29 52 -40 l41 -22 -43 41 c-45 42 -70 53 -50
21z"/>
<path d="M4630 3895 c-8 -9 -8 -15 -2 -15 12 0 26 19 19 26 -2 2 -10 -2 -17
-11z"/>
<path d="M4257 3893 c-42 -74 -67 -124 -59 -119 15 9 75 116 69 122 -3 3 -7 2
-10 -3z"/>
<path d="M1527 3869 c7 -7 15 -10 18 -7 3 3 -2 9 -12 12 -14 6 -15 5 -6 -5z"/>
<path d="M5 3839 c7 -22 97 -148 127 -177 7 -7 51 -45 97 -85 47 -39 108 -96
136 -125 32 -33 57 -51 66 -47 16 6 66 -54 114 -138 15 -27 38 -55 50 -63 13
-8 29 -28 35 -45 15 -35 45 -58 68 -52 12 3 25 -11 46 -49 16 -29 40 -67 53
-84 13 -17 30 -52 39 -77 15 -44 18 -46 62 -53 29 -4 57 -2 77 6 59 24 71 22
160 -21 62 -30 91 -51 99 -69 6 -14 32 -45 59 -69 41 -38 47 -41 47 -22 0 25
15 26 88 7 28 -8 52 -12 52 -10 0 3 -20 14 -43 24 -34 15 -51 17 -77 10 -30
-9 -37 -6 -70 23 -21 17 -40 42 -44 54 -4 16 -34 36 -103 69 l-97 47 -50 -16
c-51 -17 -101 -18 -122 -4 -7 4 -15 19 -19 34 -3 15 -16 40 -28 57 -23 32 -26
37 -67 105 -17 29 -34 44 -53 48 -15 3 -36 17 -45 31 -9 14 -30 39 -46 56 -16
17 -43 53 -59 81 -46 75 -96 135 -115 135 -9 0 -73 54 -142 120 -69 66 -130
120 -135 120 -6 0 -16 9 -22 19 -31 50 -145 182 -138 160z"/>
<path d="M2571 3844 c0 -11 3 -14 6 -6 3 7 2 16 -1 19 -3 4 -6 -2 -5 -13z"/>
<path d="M2602 3830 c0 -19 2 -27 5 -17 2 9 2 25 0 35 -3 9 -5 1 -5 -18z"/>
<path d="M4655 3840 c-3 -5 -1 -10 4 -10 6 0 11 5 11 10 0 6 -2 10 -4 10 -3 0
-8 -4 -11 -10z"/>
<path d="M1555 3830 c3 -5 11 -10 16 -10 6 0 7 5 4 10 -3 6 -11 10 -16 10 -6
0 -7 -4 -4 -10z"/>
<path d="M485 3820 c3 -5 8 -10 11 -10 2 0 4 5 4 10 0 6 -5 10 -11 10 -5 0 -7
-4 -4 -10z"/>
<path d="M760 3811 c0 -10 30 -24 37 -17 3 2 -5 9 -16 16 -12 6 -21 7 -21 1z"/>
<path d="M1320 3813 c0 -11 37 -43 50 -43 19 0 10 16 -20 33 -16 10 -30 14
-30 10z"/>
<path d="M4549 3787 c-33 -40 -62 -97 -55 -104 3 -3 9 3 12 13 4 10 22 41 41
67 39 56 40 72 2 24z"/>
<path d="M4806 3784 c-4 -9 -4 -19 -1 -22 2 -3 7 3 11 12 4 9 4 19 1 22 -2 3
-7 -3 -11 -12z"/>
<path d="M2794 3630 c5 -115 11 -169 20 -180 9 -10 16 -58 20 -135 4 -66 11
-124 15 -128 4 -4 11 26 14 68 7 78 -5 159 -30 208 -9 18 -16 77 -20 170 -3
78 -10 147 -15 152 -7 7 -8 -44 -4 -155z"/>
<path d="M800 3770 c0 -5 5 -10 10 -10 6 0 10 5 10 10 0 6 -4 10 -10 10 -5 0
-10 -4 -10 -10z"/>
<path d="M4996 3764 c-5 -14 -4 -15 9 -4 17 14 19 20 6 20 -5 0 -12 -7 -15
-16z"/>
<path d="M2420 3770 c-5 -17 -9 -52 -15 -138 -3 -53 -11 -130 -16 -171 -7 -45
-8 -110 -2 -170 l8 -96 6 130 c4 72 12 197 18 279 6 82 10 154 7 160 -2 6 -5
9 -6 6z"/>
<path d="M2540 3737 c0 -14 5 -29 10 -32 7 -4 8 3 4 22 -9 38 -14 42 -14 10z"/>
<path d="M4167 3743 c-4 -3 -7 -11 -7 -17 0 -6 5 -5 12 2 6 6 9 14 7 17 -3 3
-9 2 -12 -2z"/>
<path d="M1410 3720 c0 -5 5 -10 11 -10 5 0 7 5 4 10 -3 6 -8 10 -11 10 -2 0
-4 -4 -4 -10z"/>
<path d="M4185 3719 c-4 -6 -5 -12 -2 -15 2 -3 7 2 10 11 7 17 1 20 -8 4z"/>
<path d="M2683 3675 c0 -27 2 -38 4 -22 2 15 2 37 0 50 -2 12 -4 0 -4 -28z"/>
<path d="M4223 3703 c-3 -10 -8 -22 -11 -27 -3 -5 0 -6 5 -3 11 7 25 47 17 47
-3 0 -7 -8 -11 -17z"/>
<path d="M1110 3692 c0 -6 9 -12 20 -15 11 -3 20 -3 20 -1 0 2 -9 8 -20 14
-11 6 -20 7 -20 2z"/>
<path d="M4650 3689 c0 -5 5 -7 10 -4 6 3 10 8 10 11 0 2 -4 4 -10 4 -5 0 -10
-5 -10 -11z"/>
<path d="M1477 3669 c7 -7 15 -10 18 -7 3 3 -2 9 -12 12 -14 6 -15 5 -6 -5z"/>
<path d="M4129 3639 c-12 -24 -33 -58 -47 -75 -14 -18 -26 -40 -27 -51 -1 -10
-5 -29 -9 -43 -8 -24 -7 -24 7 -5 8 11 18 35 21 52 4 18 12 35 17 38 5 4 6 -2
3 -12 -3 -10 11 15 31 55 20 41 34 76 32 79 -3 3 -16 -14 -28 -38z"/>
<path d="M1174 3654 c9 -8 24 -13 34 -11 16 4 16 5 0 6 -10 0 -18 6 -18 11 0
6 -7 10 -16 10 -14 0 -14 -1 0 -16z"/>
<path d="M2586 3644 c-9 -24 -7 -84 3 -84 5 0 9 23 9 50 0 53 -2 59 -12 34z"/>
<path d="M4200 3649 c0 -5 5 -7 10 -4 6 3 10 8 10 11 0 2 -4 4 -10 4 -5 0 -10
-5 -10 -11z"/>
<path d="M2080 3636 c0 -2 9 -6 20 -9 11 -3 20 -1 20 4 0 5 -9 9 -20 9 -11 0
-20 -2 -20 -4z"/>
<path d="M2476 3624 c-10 -26 -7 -114 4 -114 6 0 10 28 10 65 0 66 -3 77 -14
49z"/>
<path d="M1260 3620 c0 -5 5 -10 10 -10 6 0 10 5 10 10 0 6 -4 10 -10 10 -5 0
-10 -4 -10 -10z"/>
<path d="M4186 3615 c-9 -26 -7 -32 5 -12 6 10 9 21 6 23 -2 3 -7 -2 -11 -11z"/>
<path d="M2730 3559 c0 -73 7 -74 16 -2 4 32 2 53 -5 57 -8 5 -11 -13 -11 -55z"/>
<path d="M2517 3603 c-11 -10 -8 -71 3 -78 6 -4 10 12 10 39 0 47 -2 51 -13
39z"/>
<path d="M2673 3565 c0 -22 2 -30 4 -17 2 12 2 30 0 40 -3 9 -5 -1 -4 -23z"/>
<path d="M4440 3579 c0 -5 5 -7 10 -4 6 3 10 8 10 11 0 2 -4 4 -10 4 -5 0 -10
-5 -10 -11z"/>
<path d="M4165 3559 c-4 -6 -5 -12 -2 -15 2 -3 7 2 10 11 7 17 1 20 -8 4z"/>
<path d="M4427 3553 c-4 -3 -7 -13 -7 -22 1 -13 3 -13 11 2 11 19 8 33 -4 20z"/>
<path d="M4004 3478 l-19 -23 23 19 c12 11 22 21 22 23 0 8 -8 2 -26 -19z"/>
<path d="M3871 3470 c-15 -13 -18 -20 -9 -20 8 0 23 9 33 20 23 26 7 25 -24 0z"/>
<path d="M2420 3454 c0 -14 4 -23 10 -19 6 3 10 15 10 26 0 10 -4 19 -10 19
-5 0 -10 -12 -10 -26z"/>
<path d="M4895 3470 c-3 -6 1 -7 9 -4 18 7 21 14 7 14 -6 0 -13 -4 -16 -10z"/>
<path d="M1241 3454 c0 -11 3 -14 6 -6 3 7 2 16 -1 19 -3 4 -6 -2 -5 -13z"/>
<path d="M1166 3445 c-3 -8 -3 -15 0 -15 3 0 12 7 20 15 13 13 13 15 1 15 -8
0 -17 -7 -21 -15z"/>
<path d="M1260 3439 c3 -2 23 -20 44 -39 l38 -35 -16 33 c-9 17 -21 32 -25 32
-5 0 -18 3 -28 7 -10 3 -16 4 -13 2z"/>
<path d="M4006 3408 l-18 -33 21 25 c18 22 26 40 18 40 -1 0 -11 -15 -21 -32z"/>
<path d="M4848 3433 c7 -3 16 -2 19 1 4 3 -2 6 -13 5 -11 0 -14 -3 -6 -6z"/>
<path d="M1028 3414 c12 -8 22 -25 22 -37 1 -20 1 -21 11 -4 8 14 7 23 -7 38
-9 10 -24 19 -33 19 -11 0 -9 -4 7 -16z"/>
<path d="M2790 3419 c0 -5 5 -7 10 -4 6 3 10 8 10 11 0 2 -4 4 -10 4 -5 0 -10
-5 -10 -11z"/>
<path d="M2882 3405 c0 -16 2 -22 5 -12 2 9 2 23 0 30 -3 6 -5 -1 -5 -18z"/>
<path d="M3806 3406 c-10 -15 -12 -27 -6 -31 10 -6 14 1 11 18 -1 4 6 10 14
13 8 4 15 10 15 15 0 17 -18 9 -34 -15z"/>
<path d="M3865 3420 c-3 -5 -2 -10 4 -10 5 0 13 5 16 10 3 6 2 10 -4 10 -5 0
-13 -4 -16 -10z"/>
<path d="M1145 3400 c11 -17 -27 -50 -52 -44 -18 5 -22 3 -17 -9 3 -9 13 -13
25 -10 10 3 19 1 19 -3 0 -5 14 -25 31 -44 28 -32 30 -33 24 -10 -4 14 -17 35
-29 48 -20 22 -20 24 -3 36 19 14 23 46 6 46 -5 0 -8 -4 -4 -10z"/>
<path d="M4015 3373 c-8 -20 -13 -38 -10 -41 3 -3 5 -3 5 0 0 3 7 22 15 42 8
20 13 36 10 36 -2 0 -12 -16 -20 -37z"/>
<path d="M980 3384 c0 -8 5 -12 10 -9 6 3 10 10 10 16 0 5 -4 9 -10 9 -5 0
-10 -7 -10 -16z"/>
<path d="M948 3353 c7 -3 16 -2 19 1 4 3 -2 6 -13 5 -11 0 -14 -3 -6 -6z"/>
<path d="M1341 3338 c6 -13 26 -35 44 -50 18 -15 36 -40 40 -55 8 -34 24 -55
36 -47 5 3 0 17 -11 31 -11 14 -20 32 -20 40 0 13 -85 103 -97 103 -2 0 2 -10
8 -22z"/>
<path d="M3965 3349 c-4 -6 -5 -12 -2 -15 2 -3 7 2 10 11 7 17 1 20 -8 4z"/>
<path d="M2894 3170 c3 -102 6 -201 6 -220 1 -30 2 -32 11 -17 11 18 4 319 -7
385 -13 69 -16 21 -10 -148z"/>
<path d="M2347 3314 c-11 -11 -9 -294 2 -294 10 0 20 254 11 283 -3 10 -9 15
-13 11z"/>
<path d="M2306 3279 c-9 -38 -23 -178 -26 -249 -1 -36 -3 -71 -3 -77 0 -7 -3
-13 -7 -13 -5 0 -6 -25 -2 -117 4 -77 20 -45 26 50 3 50 10 166 16 256 10 153
8 206 -4 150z"/>
<path d="M3494 3239 c11 -105 27 -231 37 -282 5 -26 10 -92 10 -145 l2 -97 9
90 c6 58 6 106 -1 135 -5 25 -13 72 -17 105 -4 33 -8 67 -9 75 -1 8 -5 50 -9
92 -4 43 -12 81 -18 84 -7 4 -8 -15 -4 -57z"/>
<path d="M76 3275 c4 -8 11 -15 16 -15 6 0 5 6 -2 15 -7 8 -14 15 -16 15 -2 0
-1 -7 2 -15z"/>
<path d="M2461 3274 c0 -11 3 -14 6 -6 3 7 2 16 -1 19 -3 4 -6 -2 -5 -13z"/>
<path d="M3440 3188 c-6 -57 -16 -125 -22 -152 -12 -53 -18 -317 -8 -311 3 2
7 46 8 97 3 102 16 223 38 363 17 106 16 105 5 105 -5 0 -14 -46 -21 -102z"/>
<path d="M3727 3283 c-4 -3 -7 -11 -7 -17 0 -6 5 -5 12 2 6 6 9 14 7 17 -3 3
-9 2 -12 -2z"/>
<path d="M2801 3264 c0 -11 3 -14 6 -6 3 7 2 16 -1 19 -3 4 -6 -2 -5 -13z"/>
<path d="M3739 3243 c-13 -16 -12 -17 4 -4 16 13 21 21 13 21 -2 0 -10 -8 -17
-17z"/>
<path d="M1460 3243 c0 -7 20 -26 45 -43 25 -17 45 -35 45 -39 0 -5 9 -11 20
-14 11 -3 19 -11 18 -18 -2 -7 7 -18 19 -23 12 -6 24 -18 26 -28 3 -10 14 -18
26 -18 11 0 25 -9 31 -20 6 -11 15 -18 20 -15 13 8 -1 44 -20 50 -10 3 -20 12
-23 19 -6 15 -148 124 -168 128 -8 2 -19 10 -26 18 -8 10 -12 11 -13 3z"/>
<path d="M2692 3230 c0 -14 2 -19 5 -12 2 6 2 18 0 25 -3 6 -5 1 -5 -13z"/>
<path d="M3679 3223 l-24 -28 28 24 c25 23 32 31 24 31 -2 0 -14 -12 -28 -27z"/>
<path d="M1670 3211 c0 -10 30 -24 37 -17 3 2 -5 9 -16 16 -12 6 -21 7 -21 1z"/>
<path d="M1865 3210 c3 -5 8 -10 11 -10 2 0 4 5 4 10 0 6 -5 10 -11 10 -5 0
-7 -4 -4 -10z"/>
<path d="M2526 3188 c-3 -13 -1 -27 4 -32 7 -7 10 1 10 22 0 37 -5 41 -14 10z"/>
<path d="M3596 3169 c-9 -18 -14 -34 -12 -37 3 -2 12 10 21 28 9 18 14 34 12
37 -3 2 -12 -10 -21 -28z"/>
<path d="M40 3147 c24 -26 49 -47 54 -47 13 0 -32 47 -69 73 -23 15 -20 9 15
-26z"/>
<path d="M2815 3170 c2 -14 5 -49 5 -77 0 -32 4 -53 11 -53 13 0 4 99 -12 134
-9 19 -9 18 -4 -4z"/>
<path d="M2386 3153 c-6 -21 -2 -70 7 -80 4 -3 6 17 6 45 -2 55 -4 63 -13 35z"/>
<path d="M3630 3130 c-6 -11 -8 -20 -6 -20 3 0 10 9 16 20 6 11 8 20 6 20 -3
0 -10 -9 -16 -20z"/>
<path d="M2945 2925 c9 -258 18 -311 28 -178 7 77 -15 338 -28 351 -4 4 -4
-74 0 -173z"/>
<path d="M109 3072 c6 -12 16 -24 22 -28 8 -4 8 -1 0 14 -6 12 -16 24 -22 28
-8 4 -8 1 0 -14z"/>
<path d="M1785 3081 c3 -5 26 -23 52 -40 26 -17 66 -49 90 -72 24 -22 49 -39
55 -37 15 5 -139 135 -175 147 -15 6 -25 6 -22 2z"/>
<path d="M1722 3030 c0 -20 4 -30 14 -30 9 0 27 -13 41 -30 13 -16 31 -30 39
-30 15 0 14 3 -23 45 -7 7 -13 18 -13 24 0 6 -9 11 -20 11 -13 0 -20 7 -20 20
0 32 -17 23 -18 -10z"/>
<path d="M30 3043 c0 -6 8 -17 18 -24 16 -13 16 -13 2 6 -8 11 -16 22 -17 24
-2 2 -3 0 -3 -6z"/>
<path d="M2433 3000 c0 -30 2 -43 4 -27 2 15 2 39 0 55 -2 15 -4 2 -4 -28z"/>
<path d="M4624 3025 c-15 -14 -25 -27 -22 -30 2 -3 17 9 33 25 35 36 27 40
-11 5z"/>
<path d="M1210 3036 c0 -2 7 -7 16 -10 8 -3 12 -2 9 4 -6 10 -25 14 -25 6z"/>
<path d="M151 3025 c0 -5 6 -19 14 -29 8 -11 15 -15 15 -10 0 6 -7 19 -15 30
-8 10 -14 15 -14 9z"/>
<path d="M2530 3003 c0 -13 5 -23 10 -23 13 0 13 11 0 30 -8 12 -10 11 -10 -7z"/>
<path d="M4555 2995 c-5 -2 -36 -11 -67 -21 -32 -9 -58 -21 -58 -26 0 -4 15
-2 34 6 18 7 52 17 74 21 23 4 44 11 48 16 5 9 -11 11 -31 4z"/>
<path d="M1290 2960 c0 -5 5 -10 11 -10 5 0 7 5 4 10 -3 6 -8 10 -11 10 -2 0
-4 -4 -4 -10z"/>
<path d="M1830 2960 c20 -13 40 -13 40 0 0 6 -12 10 -27 10 -22 0 -25 -2 -13
-10z"/>
<path d="M2530 2954 c0 -8 5 -12 10 -9 6 3 10 10 10 16 0 5 -4 9 -10 9 -5 0
-10 -7 -10 -16z"/>
<path d="M1880 2936 c0 -16 27 -29 35 -16 3 5 -4 14 -15 20 -16 8 -20 8 -20
-4z"/>
<path d="M2030 2935 c33 -19 46 -19 30 0 -7 8 -22 15 -34 15 -20 -1 -20 -2 4
-15z"/>
<path d="M4390 2940 c0 -5 4 -10 9 -10 6 0 13 5 16 10 3 6 -1 10 -9 10 -9 0
-16 -4 -16 -10z"/>
<path d="M1320 2931 c0 -6 4 -13 10 -16 6 -3 7 1 4 9 -7 18 -14 21 -14 7z"/>
<path d="M2432 2910 c0 -19 2 -27 5 -17 2 9 2 25 0 35 -3 9 -5 1 -5 -18z"/>
<path d="M2080 2916 c0 -9 7 -19 15 -23 25 -9 27 2 5 22 -18 17 -20 17 -20 1z"/>
<path d="M2530 2905 c0 -14 5 -25 10 -25 6 0 10 11 10 25 0 14 -4 25 -10 25
-5 0 -10 -11 -10 -25z"/>
<path d="M4325 2905 c-16 -13 -24 -24 -17 -25 6 0 12 4 12 9 0 5 14 14 30 20
31 10 40 21 18 21 -7 0 -26 -11 -43 -25z"/>
<path d="M625 2900 c10 -11 20 -20 23 -20 3 0 -3 9 -13 20 -10 11 -20 20 -23
20 -3 0 3 -9 13 -20z"/>
<path d="M2015 2896 c17 -13 32 -22 35 -19 7 6 -39 43 -54 43 -6 0 3 -11 19
-24z"/>
<path d="M2226 2899 c-9 -27 -25 -152 -21 -160 3 -4 1 -18 -4 -31 -9 -21 -10
-21 -11 -3 0 14 -3 16 -8 7 -10 -16 -3 -72 9 -72 5 0 9 -22 9 -50 0 -27 5 -50
10 -50 6 0 10 31 10 73 0 41 5 122 11 181 10 97 7 142 -5 105z"/>
<path d="M2896 2858 c-4 -24 -3 -45 4 -52 7 -7 10 6 10 42 0 29 -2 52 -4 52
-2 0 -6 -19 -10 -42z"/>
<path d="M2060 2876 c0 -2 8 -10 18 -17 15 -13 16 -12 3 4 -13 16 -21 21 -21
13z"/>
<path d="M3580 2865 c-7 -41 -5 -245 3 -245 4 0 7 23 7 50 0 29 5 50 11 50 5
0 7 6 3 12 -5 7 -11 44 -15 83 -3 38 -8 61 -9 50z"/>
<path d="M2530 2840 c0 -16 4 -30 8 -30 5 0 9 14 9 30 0 17 -4 30 -9 30 -4 0
-8 -13 -8 -30z"/>
<path d="M4270 2859 c0 -5 5 -7 10 -4 6 3 10 8 10 11 0 2 -4 4 -10 4 -5 0 -10
-5 -10 -11z"/>
<path d="M3004 2815 c3 -27 9 -105 12 -172 4 -68 11 -123 16 -123 12 0 10 168
-3 253 -13 84 -35 121 -25 42z"/>
<path d="M3452 2840 c0 -14 2 -19 5 -12 2 6 2 18 0 25 -3 6 -5 1 -5 -13z"/>
<path d="M3375 2818 c-8 -34 -9 -197 -2 -205 3 -2 8 48 12 112 7 117 3 154
-10 93z"/>
<path d="M4230 2830 c-9 -6 -10 -10 -3 -10 6 0 15 5 18 10 8 12 4 12 -15 0z"/>
<path d="M950 2806 c0 -2 7 -7 16 -10 8 -3 12 -2 9 4 -6 10 -25 14 -25 6z"/>
<path d="M1710 2780 c0 -5 5 -10 11 -10 5 0 7 5 4 10 -3 6 -8 10 -11 10 -2 0
-4 -4 -4 -10z"/>
<path d="M3452 2750 c0 -14 2 -19 5 -12 2 6 2 18 0 25 -3 6 -5 1 -5 -13z"/>
<path d="M2268 2704 c-3 -31 -2 -71 3 -88 5 -22 7 -5 8 57 1 48 -1 87 -3 87
-2 0 -6 -25 -8 -56z"/>
<path d="M741 2747 c2 -1 13 -9 24 -17 19 -14 19 -14 6 3 -7 9 -18 17 -24 17
-6 0 -8 -1 -6 -3z"/>
<path d="M3490 2746 c0 -2 7 -6 15 -10 8 -3 15 -1 15 4 0 6 -7 10 -15 10 -8 0
-15 -2 -15 -4z"/>
<path d="M2526 2731 c-3 -4 6 -6 19 -3 14 2 25 6 25 8 0 8 -39 4 -44 -5z"/>
<path d="M810 2693 c14 -9 27 -19 30 -22 3 -3 17 -15 31 -26 14 -11 5 -1 -19
23 -24 23 -49 42 -55 42 -6 0 0 -8 13 -17z"/>
<path d="M2127 2618 c-17 -100 -30 -218 -28 -257 3 -69 -22 34 -35 139 -3 25
-10 52 -15 60 -12 21 -12 -78 1 -132 5 -24 12 -64 16 -90 4 -42 8 -48 28 -48
22 0 23 4 30 108 4 59 13 148 20 199 17 122 4 139 -17 21z"/>
<path d="M3064 2664 c13 -109 26 -253 29 -327 2 -55 8 -81 18 -88 25 -15 29
-10 29 35 0 25 5 48 10 51 6 3 10 29 10 58 0 61 -16 53 -25 -12 -3 -25 -7 -47
-9 -49 -7 -6 -14 51 -21 153 -3 50 -10 118 -16 153 -13 76 -34 97 -25 26z"/>
<path d="M3400 2662 c0 -29 4 -52 9 -52 8 0 3 90 -5 99 -2 2 -4 -19 -4 -47z"/>
<path d="M1725 2682 c19 -17 55 -25 55 -11 0 6 -54 29 -68 29 -3 0 3 -8 13
-18z"/>
<path d="M3605 2683 c7 -18 24 -181 25 -236 0 -16 4 -26 9 -23 11 7 4 181 -10
234 -6 23 -16 42 -21 42 -6 0 -7 -8 -3 -17z"/>
<path d="M1070 2673 c0 -11 88 -99 93 -92 1 2 -19 26 -45 52 -26 27 -48 45
-48 40z"/>
<path d="M3331 2662 c-5 -9 -13 -56 -17 -102 -4 -47 -13 -94 -20 -105 -11 -17
-18 -55 -23 -132 -1 -7 -10 -9 -28 -4 -24 6 -30 16 -43 67 -20 83 -25 41 -9
-83 9 -71 17 -103 26 -103 7 0 12 8 11 18 -1 9 0 34 0 55 3 64 26 39 32 -33 3
-42 10 -65 19 -68 10 -3 12 0 7 13 -4 10 -1 64 5 119 7 56 12 111 12 123 -1
12 4 21 10 20 8 -1 14 27 18 78 4 44 10 97 14 118 8 40 2 48 -14 19z"/>
<path d="M716 2656 c3 -8 13 -17 22 -21 13 -5 13 -2 -3 15 -21 24 -26 25 -19
6z"/>
<path d="M2550 2660 c0 -5 4 -10 9 -10 6 0 13 5 16 10 3 6 -1 10 -9 10 -9 0
-16 -4 -16 -10z"/>
<path d="M2580 2620 c0 -5 5 -10 11 -10 5 0 7 5 4 10 -3 6 -8 10 -11 10 -2 0
-4 -4 -4 -10z"/>
<path d="M3450 2620 c0 -5 5 -10 11 -10 5 0 7 5 4 10 -3 6 -8 10 -11 10 -2 0
-4 -4 -4 -10z"/>
<path d="M790 2589 c35 -33 150 -121 150 -115 0 6 -139 119 -160 130 -8 5 -4
-2 10 -15z"/>
<path d="M1840 2602 c0 -11 22 -32 32 -32 5 0 4 9 -2 20 -11 20 -30 28 -30 12z"/>
<path d="M3462 2570 c0 -19 2 -27 5 -17 2 9 2 25 0 35 -3 9 -5 1 -5 -18z"/>
<path d="M1814 2574 c3 -9 6 -20 6 -25 0 -5 10 -9 23 -9 20 1 20 2 5 11 -10 5
-18 17 -18 24 0 8 -5 15 -11 15 -6 0 -8 -7 -5 -16z"/>
<path d="M1438 2568 c9 -9 15 -9 24 0 9 9 7 12 -12 12 -19 0 -21 -3 -12 -12z"/>
<path d="M1500 2571 c0 -5 7 -11 14 -14 10 -4 13 -1 9 9 -6 15 -23 19 -23 5z"/>
<path d="M2009 2565 c-3 -5 -7 -27 -7 -47 -1 -20 -10 -72 -21 -115 -10 -43
-22 -100 -26 -128 l-8 -50 -11 40 c-16 54 -25 33 -13 -32 7 -43 12 -53 28 -53
16 0 19 7 19 42 0 23 12 90 26 149 22 93 31 224 13 194z"/>
<path d="M3361 2554 c0 -11 3 -14 6 -6 3 7 2 16 -1 19 -3 4 -6 -2 -5 -13z"/>
<path d="M3580 2550 c0 -5 5 -10 11 -10 5 0 7 5 4 10 -3 6 -8 10 -11 10 -2 0
-4 -4 -4 -10z"/>
<path d="M1222 2526 c7 -8 15 -12 17 -11 5 6 -10 25 -20 25 -5 0 -4 -6 3 -14z"/>
<path d="M1900 2520 c0 -5 12 -10 28 -9 24 0 25 1 7 9 -27 12 -35 12 -35 0z"/>
<path d="M3383 2503 c-15 -31 -12 -37 9 -20 10 7 13 19 9 29 -5 14 -8 13 -18
-9z"/>
<path d="M3427 2516 c-4 -10 -5 -21 -2 -24 9 -9 17 6 13 25 -3 17 -4 17 -11
-1z"/>
<path d="M1632 2455 c-17 -54 -41 -166 -42 -192 0 -2 4 -3 9 -3 4 0 11 21 15
46 3 25 15 76 27 114 11 38 19 77 17 87 -2 10 -14 -14 -26 -52z"/>
<path d="M1680 2512 c0 -25 36 -92 71 -134 l40 -48 -12 -82 c-14 -93 -26 -117
-35 -70 -4 17 -13 37 -22 44 -14 11 -15 10 -8 -7 4 -11 10 -32 13 -48 7 -33
12 -37 39 -27 18 7 22 20 28 87 4 43 14 104 22 137 11 41 12 62 5 69 -6 6 -11
7 -12 2 -1 -22 -10 -59 -14 -63 -8 -8 -54 50 -75 94 -21 43 -40 65 -40 46z"/>
<path d="M3460 2510 c0 -5 5 -10 10 -10 6 0 10 5 10 10 0 6 -4 10 -10 10 -5 0
-10 -4 -10 -10z"/>
<path d="M4874 2504 c-18 -14 -18 -15 4 -4 12 6 22 13 22 15 0 8 -5 6 -26 -11z"/>
<path d="M1100 2500 c0 -5 9 -10 20 -10 29 0 55 -60 74 -175 10 -55 24 -133
32 -173 8 -40 19 -127 24 -195 9 -112 24 -187 37 -187 2 0 21 18 40 40 20 22
42 40 49 40 7 0 22 16 34 34 26 44 52 52 89 30 48 -29 56 -17 81 120 24 132
32 144 69 105 11 -12 21 -16 25 -10 11 17 24 101 16 101 -4 0 -11 -16 -14 -35
-6 -31 -10 -34 -31 -29 -41 10 -62 -3 -68 -44 -4 -20 -12 -73 -19 -117 -15
-87 -11 -84 -85 -69 -33 6 -48 -2 -69 -37 -5 -9 -31 -35 -58 -59 -37 -32 -51
-38 -57 -28 -4 7 -12 73 -18 146 -6 73 -18 159 -26 191 -8 32 -16 76 -18 97
-7 74 -41 209 -56 220 -8 6 -11 18 -8 27 4 11 2 14 -7 11 -8 -3 -17 -1 -21 5
-8 14 -35 14 -35 1z"/>
<path d="M3664 2478 c3 -18 13 -123 20 -233 8 -110 15 -201 15 -203 1 -2 19
-2 40 -1 21 2 45 -2 53 -8 7 -6 28 -18 45 -27 18 -9 40 -31 50 -49 l17 -32 7
30 c4 17 7 50 7 75 l0 45 -12 -37 c-12 -38 -26 -60 -26 -40 0 7 -16 20 -35 29
-19 9 -35 20 -35 25 0 4 -20 8 -45 8 -36 0 -45 4 -46 18 -1 9 -3 28 -4 42 -2
14 -6 81 -10 150 -3 69 -8 136 -10 150 -8 57 -18 90 -27 90 -6 0 -8 -14 -4
-32z"/>
<path d="M3028 2493 c6 -2 18 -2 25 0 6 3 1 5 -13 5 -14 0 -19 -2 -12 -5z"/>
<path d="M3566 2493 c-11 -11 -6 -23 9 -23 8 0 15 4 15 9 0 13 -16 22 -24 14z"/>
<path d="M1047 2470 c-9 -11 -17 -25 -17 -30 0 -13 -6 -13 -33 1 -22 12 -22
12 -3 -9 17 -20 17 -42 1 -102 -16 -59 -44 -129 -57 -142 -11 -11 -18 -33 -18
-57 0 -22 -4 -42 -8 -45 -5 -3 -9 -25 -10 -49 -3 -47 -19 -112 -22 -87 -1 8
-4 29 -5 45 -2 17 -8 53 -14 80 -6 28 -16 75 -22 105 -13 69 -33 94 -23 30 3
-25 14 -83 24 -130 10 -47 22 -122 26 -167 3 -46 10 -83 13 -83 11 0 42 186
35 205 -4 8 -2 21 4 28 6 7 14 36 18 64 5 38 11 53 25 56 11 3 19 14 19 27 0
12 9 52 19 88 11 37 22 79 25 94 4 15 20 43 37 63 19 22 26 35 17 35 -7 0 -21
-9 -31 -20z"/>
<path d="M4250 2474 l-25 -15 25 7 c28 7 35 12 29 18 -2 2 -15 -2 -29 -10z"/>
<path d="M4761 2445 c-41 -24 -79 -50 -85 -56 -14 -15 123 57 155 82 43 33 6
19 -70 -26z"/>
<path d="M4574 2445 c-10 -8 -14 -14 -9 -15 15 0 40 18 34 24 -3 3 -14 -1 -25
-9z"/>
<path d="M1851 2395 c-1 -111 11 -225 24 -225 17 0 21 14 24 73 1 30 -2 46 -8
43 -5 -4 -12 22 -17 61 -10 97 -23 123 -23 48z"/>
<path d="M2439 2404 c-21 -24 -22 -26 -3 -16 25 13 50 42 37 42 -5 0 -20 -12
-34 -26z"/>
<path d="M2565 2420 c3 -5 8 -10 11 -10 2 0 4 5 4 10 0 6 -5 10 -11 10 -5 0
-7 -4 -4 -10z"/>
<path d="M2580 2381 c0 -6 5 -13 10 -16 6 -3 10 1 10 9 0 9 -4 16 -10 16 -5 0
-10 -4 -10 -9z"/>
<path d="M1347 2369 c7 -7 15 -10 18 -7 3 3 -2 9 -12 12 -14 6 -15 5 -6 -5z"/>
<path d="M2611 2354 c-1 -35 12 -44 60 -44 24 0 29 -4 29 -24 0 -22 7 -26 69
-40 79 -18 101 -20 101 -8 0 5 -33 15 -72 23 -62 12 -73 18 -76 37 -2 12 -10
23 -18 23 -8 1 -18 3 -24 4 -5 1 -18 3 -28 4 -10 0 -23 13 -29 29 l-11 27 -1
-31z"/>
<path d="M2760 2346 c0 -8 4 -17 9 -20 5 -4 7 3 4 14 -6 23 -13 26 -13 6z"/>
<path d="M2815 2335 c4 -11 8 -28 9 -37 1 -25 16 -22 16 3 0 11 -8 28 -17 37
-16 16 -16 16 -8 -3z"/>
<path d="M2318 2323 c-10 -2 -18 -8 -18 -12 0 -12 43 -6 48 7 4 12 0 13 -30 5z"/>
<path d="M2490 2314 c0 -8 5 -12 10 -9 6 3 10 10 10 16 0 5 -4 9 -10 9 -5 0
-10 -7 -10 -16z"/>
<path d="M2790 2300 c0 -5 5 -10 11 -10 5 0 7 5 4 10 -3 6 -8 10 -11 10 -2 0
-4 -4 -4 -10z"/>
<path d="M2961 2294 c0 -11 3 -14 6 -6 3 7 2 16 -1 19 -3 4 -6 -2 -5 -13z"/>
<path d="M4107 2283 c-20 -14 -37 -33 -37 -42 0 -10 14 -1 40 24 37 36 44 45
37 45 -1 0 -19 -12 -40 -27z"/>
<path d="M2266 2275 c-3 -8 -1 -15 3 -15 5 0 11 7 15 15 3 8 1 15 -3 15 -5 0
-11 -7 -15 -15z"/>
<path d="M2865 2281 c-3 -5 4 -13 16 -16 28 -9 33 -2 9 13 -11 6 -21 8 -25 3z"/>
<path d="M3547 2273 c-4 -3 -7 -11 -7 -17 0 -6 5 -5 12 2 6 6 9 14 7 17 -3 3
-9 2 -12 -2z"/>
<path d="M2980 2254 c0 -8 5 -12 10 -9 6 3 10 10 10 16 0 5 -4 9 -10 9 -5 0
-10 -7 -10 -16z"/>
<path d="M3015 2260 c-3 -5 -1 -10 4 -10 6 0 11 5 11 10 0 6 -2 10 -4 10 -3 0
-8 -4 -11 -10z"/>
<path d="M2920 2249 c0 -5 -4 -8 -9 -4 -6 3 -8 -4 -6 -17 3 -12 5 -46 6 -75 2
-50 7 -61 22 -46 4 3 2 13 -5 20 -9 11 -9 17 3 24 9 6 10 12 4 17 -6 4 -10 26
-10 50 1 23 0 42 -2 42 -2 0 -3 -5 -3 -11z"/>
<path d="M767 2199 c-22 -70 -34 -137 -53 -282 -9 -74 -20 -124 -29 -134 -8
-8 -15 -19 -15 -24 0 -6 -9 -7 -21 -4 l-21 7 21 -21 c24 -24 31 -26 31 -8 0 7
8 28 19 48 11 21 25 84 35 160 9 69 25 162 37 207 24 95 21 132 -4 51z"/>
<path d="M2255 2237 c-4 -10 -5 -21 -1 -24 10 -10 18 4 13 24 -4 17 -4 17 -12
0z"/>
<path d="M2958 2163 c8 -49 19 -92 24 -98 6 -6 8 -1 4 15 -3 14 -8 52 -11 84
-7 64 -13 86 -24 86 -4 0 -1 -39 7 -87z"/>
<path d="M2390 2196 c0 -20 5 -36 10 -36 6 0 10 13 10 29 0 17 -4 33 -10 36
-6 4 -10 -8 -10 -29z"/>
<path d="M2490 2198 c0 -25 3 -29 10 -18 13 20 13 50 0 50 -5 0 -10 -15 -10
-32z"/>
<path d="M3071 2164 c0 -11 3 -14 6 -6 3 7 2 16 -1 19 -3 4 -6 -2 -5 -13z"/>
<path d="M2300 2170 c-7 -14 -5 -59 3 -51 5 5 7 19 4 32 -2 13 -5 22 -7 19z"/>
<path d="M3305 2160 c3 -5 14 -10 24 -10 9 0 21 -4 27 -9 5 -5 27 -12 49 -16
34 -5 30 -2 -25 20 -72 27 -84 30 -75 15z"/>
<path d="M2490 2139 c0 -11 5 -17 10 -14 6 3 10 13 10 21 0 8 -4 14 -10 14 -5
0 -10 -9 -10 -21z"/>
<path d="M2390 2140 c0 -5 5 -10 10 -10 6 0 10 5 10 10 0 6 -4 10 -10 10 -5 0
-10 -4 -10 -10z"/>
<path d="M3004 2124 c9 -33 13 -40 22 -31 4 4 2 13 -4 20 -7 8 -9 16 -6 19 3
3 0 9 -7 13 -9 6 -10 1 -5 -21z"/>
<path d="M2223 2105 c0 -22 2 -30 4 -17 2 12 2 30 0 40 -3 9 -5 -1 -4 -23z"/>
<path d="M3080 2086 c0 -14 5 -28 10 -31 6 -3 10 5 10 19 0 14 -4 28 -10 31
-6 3 -10 -5 -10 -19z"/>
<path d="M4650 2069 c-22 -18 -22 -19 -3 -10 12 6 25 16 28 21 9 15 3 12 -25
-11z"/>
<path d="M2929 2062 c5 -10 17 -24 25 -31 14 -12 14 -10 0 18 -9 17 -20 31
-25 31 -6 0 -6 -7 0 -18z"/>
<path d="M3230 2043 c0 -20 3 -33 7 -29 11 11 12 66 2 66 -5 0 -9 -16 -9 -37z"/>
<path d="M2421 2054 c0 -11 3 -14 6 -6 3 7 2 16 -1 19 -3 4 -6 -2 -5 -13z"/>
<path d="M2485 1938 c-4 -73 -5 -146 -3 -163 2 -16 7 41 12 128 4 87 6 160 3
163 -3 3 -8 -55 -12 -128z"/>
<path d="M3160 2049 c0 -11 4 -18 10 -14 5 3 7 12 3 20 -7 21 -13 19 -13 -6z"/>
<path d="M3946 2038 c20 -116 27 -139 48 -155 13 -10 25 -25 28 -33 4 -11 9
-7 18 13 8 15 21 27 32 27 10 0 18 6 18 14 0 8 7 16 15 19 26 11 68 147 44
147 -5 0 -9 -6 -9 -12 0 -66 -60 -146 -115 -155 -32 -5 -34 -3 -40 28 -11 58
-12 63 -20 102 -9 45 -27 50 -19 5z"/>
<path d="M4181 2040 c0 -19 6 -53 14 -75 8 -22 14 -51 15 -64 0 -23 -1 -23
-32 8 -17 17 -34 28 -37 25 -3 -3 12 -22 35 -42 29 -27 46 -53 59 -94 10 -33
24 -58 32 -58 17 0 17 3 -8 46 -11 20 -17 44 -14 52 3 8 1 19 -6 22 -6 4 -11
22 -12 41 -2 29 4 38 61 80 35 26 69 50 75 52 7 2 10 7 7 10 -3 3 -36 -17 -74
-44 -37 -28 -70 -48 -73 -46 -2 3 -13 31 -23 64 -17 53 -18 55 -19 23z"/>
<path d="M3000 2051 c0 -6 30 -31 68 -58 37 -26 71 -53 75 -60 4 -7 13 -13 18
-13 6 0 24 -13 42 -30 18 -16 37 -30 42 -30 13 1 -51 56 -147 127 -43 31 -78
61 -78 65 0 4 -4 8 -10 8 -5 0 -10 -4 -10 -9z"/>
<path d="M3280 2030 c0 -16 5 -30 10 -30 6 0 10 14 10 30 0 17 -4 30 -10 30
-5 0 -10 -13 -10 -30z"/>
<path d="M2093 2038 c-13 -6 -23 -14 -23 -19 0 -4 11 -2 25 4 14 7 25 15 25
20 0 8 1 9 -27 -5z"/>
<path d="M2603 1980 c0 -41 2 -58 4 -37 2 20 2 54 0 75 -2 20 -4 3 -4 -38z"/>
<path d="M4387 2039 c7 -7 15 -10 18 -7 3 3 -2 9 -12 12 -14 6 -15 5 -6 -5z"/>
<path d="M4588 2043 c6 -2 18 -2 25 0 6 3 1 5 -13 5 -14 0 -19 -2 -12 -5z"/>
<path d="M3342 2015 c0 -16 2 -22 5 -12 2 9 2 23 0 30 -3 6 -5 -1 -5 -18z"/>
<path d="M236 2014 c-5 -14 -4 -15 9 -4 17 14 19 20 6 20 -5 0 -12 -7 -15 -16z"/>
<path d="M2250 2020 c0 -5 5 -10 10 -10 6 0 10 5 10 10 0 6 -4 10 -10 10 -5 0
-10 -4 -10 -10z"/>
<path d="M3007 2009 c12 -12 24 -21 27 -18 2 2 -8 13 -22 23 l-27 19 22 -24z"/>
<path d="M3385 2020 c-3 -5 -1 -18 4 -27 9 -16 10 -14 11 10 0 28 -5 34 -15
17z"/>
<path d="M2351 2004 c0 -11 3 -14 6 -6 3 7 2 16 -1 19 -3 4 -6 -2 -5 -13z"/>
<path d="M3431 2008 c0 -7 4 -22 9 -33 8 -18 9 -17 9 7 1 15 -3 30 -9 33 -5 3
-10 0 -9 -7z"/>
<path d="M2043 1993 c-3 -10 -8 -22 -10 -28 -3 -5 3 -1 11 9 16 20 21 36 11
36 -3 0 -8 -8 -12 -17z"/>
<path d="M2406 1949 c-4 -33 -9 -68 -12 -77 -5 -15 -4 -15 4 -2 11 17 28 140
20 140 -3 0 -9 -27 -12 -61z"/>
<path d="M3480 1977 c0 -20 4 -37 9 -37 10 0 9 55 -2 66 -4 4 -7 -9 -7 -29z"/>
<path d="M4893 1970 c-9 -16 -23 -30 -30 -30 -7 0 -13 -4 -13 -10 0 -25 38 -7
53 25 20 41 43 45 59 10 11 -24 28 -34 28 -17 0 16 -41 52 -60 52 -10 0 -27
-13 -37 -30z"/>
<path d="M206 1973 c-6 -14 -5 -15 5 -6 7 7 10 15 7 18 -3 3 -9 -2 -12 -12z"/>
<path d="M340 1981 c0 -6 4 -13 10 -16 6 -3 7 1 4 9 -7 18 -14 21 -14 7z"/>
<path d="M1947 1983 c-4 -3 -7 -11 -7 -17 0 -6 5 -5 12 2 6 6 9 14 7 17 -3 3
-9 2 -12 -2z"/>
<path d="M2127 1973 c-4 -3 -7 -16 -6 -27 0 -19 1 -19 10 3 10 24 8 36 -4 24z"/>
<path d="M2230 1965 c0 -8 2 -15 4 -15 2 0 6 7 10 15 3 8 1 15 -4 15 -6 0 -10
-7 -10 -15z"/>
<path d="M2950 1973 c0 -6 9 -20 20 -33 11 -13 20 -20 20 -16 0 4 -9 19 -20
33 -11 14 -20 21 -20 16z"/>
<path d="M2191 1944 c0 -11 3 -14 6 -6 3 7 2 16 -1 19 -3 4 -6 -2 -5 -13z"/>
<path d="M183 1943 c-15 -5 -17 -23 -4 -23 5 0 11 7 15 15 3 8 4 15 3 14 -1 0
-8 -3 -14 -6z"/>
<path d="M2331 1874 c-7 -41 -11 -78 -8 -80 2 -2 10 30 17 71 7 41 11 78 8 80
-3 3 -11 -29 -17 -71z"/>
<path d="M3076 1936 c3 -8 13 -17 22 -21 13 -5 13 -2 -3 15 -21 24 -26 25 -19
6z"/>
<path d="M1990 1930 c-8 -5 -12 -11 -9 -14 2 -3 11 -1 19 4 8 5 12 11 9 14 -2
3 -11 1 -19 -4z"/>
<path d="M2216 1925 c-3 -8 -1 -15 4 -15 6 0 10 7 10 15 0 8 -2 15 -4 15 -2 0
-6 -7 -10 -15z"/>
<path d="M2730 1931 c0 -10 19 -25 25 -20 1 2 -3 10 -11 17 -8 7 -14 8 -14 3z"/>
<path d="M2031 1914 c0 -11 3 -14 6 -6 3 7 2 16 -1 19 -3 4 -6 -2 -5 -13z"/>
<path d="M4990 1925 c0 -16 46 -93 71 -119 16 -17 29 -36 29 -43 0 -7 5 -13
10 -13 18 0 10 21 -24 63 -18 23 -41 56 -50 74 -15 29 -36 52 -36 38z"/>
<path d="M2106 1889 c-8 -42 0 -50 9 -9 4 17 5 34 2 36 -2 3 -7 -10 -11 -27z"/>
<path d="M4695 1910 c-19 -8 -55 -44 -55 -55 0 -7 -72 -117 -86 -132 -9 -9
-25 1 -70 44 -33 30 -69 59 -81 64 -33 12 -77 1 -93 -24 -12 -21 -12 -21 6 -6
27 23 60 32 81 20 10 -5 48 -39 85 -74 l66 -65 71 109 c60 91 76 109 97 109
21 0 29 -10 51 -57 16 -34 28 -51 31 -43 3 8 15 36 29 63 13 26 19 47 13 47
-6 0 -18 -17 -27 -37 -14 -36 -16 -37 -29 -18 -27 37 -54 65 -61 64 -5 0 -17
-4 -28 -9z"/>
<path d="M2211 1893 c-1 -6 -4 -20 -7 -30 -5 -17 -5 -17 6 0 6 10 9 23 6 30
-3 9 -5 9 -5 0z"/>
<path d="M2601 1884 c0 -11 3 -14 6 -6 3 7 2 16 -1 19 -3 4 -6 -2 -5 -13z"/>
<path d="M1792 1820 c-45 -40 -82 -74 -82 -77 0 -5 19 9 98 74 28 22 57 43 63
45 7 2 10 10 8 17 -3 7 -37 -16 -87 -59z"/>
<path d="M2027 1873 c-3 -5 -7 -37 -10 -73 -7 -73 -2 -63 11 23 9 55 8 66 -1
50z"/>
<path d="M3120 1872 c0 -11 60 -45 67 -38 3 3 -6 11 -21 17 -14 7 -26 16 -26
21 0 4 -4 8 -10 8 -5 0 -10 -4 -10 -8z"/>
<path d="M416 1845 c4 -8 8 -15 10 -15 2 0 4 7 4 15 0 8 -4 15 -10 15 -5 0 -7
-7 -4 -15z"/>
<path d="M2256 1845 c-3 -8 -1 -15 3 -15 5 0 11 7 15 15 3 8 1 15 -3 15 -5 0
-11 -7 -15 -15z"/>
<path d="M2392 1830 c0 -14 2 -19 5 -12 2 6 2 18 0 25 -3 6 -5 1 -5 -13z"/>
<path d="M2593 1815 c0 -22 2 -30 4 -17 2 12 2 30 0 40 -3 9 -5 -1 -4 -23z"/>
<path d="M3300 1833 c1 -12 50 -46 50 -35 0 6 -11 17 -25 26 -14 9 -25 13 -25
9z"/>
<path d="M3200 1820 c0 -5 5 -10 11 -10 5 0 7 5 4 10 -3 6 -8 10 -11 10 -2 0
-4 -4 -4 -10z"/>
<path d="M3271 1813 c7 -12 15 -20 18 -17 3 2 -3 12 -13 22 -17 16 -18 16 -5
-5z"/>
<path d="M3990 1803 c-7 -16 -16 -53 -20 -83 -4 -30 -11 -63 -15 -72 -4 -10
-3 -18 3 -18 14 0 25 39 23 77 -1 17 7 50 18 74 24 49 24 49 13 49 -5 0 -15
-12 -22 -27z"/>
<path d="M2185 1775 c-3 -26 -4 -49 -2 -51 3 -3 8 16 12 41 3 26 4 49 2 51 -3
3 -8 -16 -12 -41z"/>
<path d="M2382 1784 c-1 -12 -4 -37 -7 -55 -5 -31 -5 -32 5 -9 6 13 9 38 7 55
-2 18 -4 21 -5 9z"/>
<path d="M2871 1786 c25 -22 142 -106 145 -103 9 9 -118 107 -139 107 -6 0 -8
-2 -6 -4z"/>
<path d="M3290 1755 c0 -11 139 -129 145 -123 2 2 -29 32 -70 66 -41 34 -75
60 -75 57z"/>
<path d="M1301 1718 c8 -31 29 -61 29 -43 0 17 -24 75 -31 75 -4 0 -3 -14 2
-32z"/>
<path d="M2311 1734 c0 -11 3 -14 6 -6 3 7 2 16 -1 19 -3 4 -6 -2 -5 -13z"/>
<path d="M2472 1715 c0 -16 2 -22 5 -12 2 9 2 23 0 30 -3 6 -5 -1 -5 -18z"/>
<path d="M2850 1720 c0 -5 9 -10 20 -10 11 0 20 5 20 10 0 6 -9 10 -20 10 -11
0 -20 -4 -20 -10z"/>
<path d="M4307 1710 c6 -22 23 -38 23 -21 0 17 -12 41 -20 41 -5 0 -6 -9 -3
-20z"/>
<path d="M642 1681 c-17 -48 -14 -63 4 -22 8 19 13 39 11 45 -2 6 -9 -5 -15
-23z"/>
<path d="M2166 1669 c-4 -23 -5 -44 -2 -46 2 -2 7 14 11 37 4 23 5 43 2 46 -2
3 -7 -14 -11 -37z"/>
<path d="M2302 1680 c0 -19 2 -27 5 -17 2 9 2 25 0 35 -3 9 -5 1 -5 -18z"/>
<path d="M2906 1696 c5 -13 44 -30 44 -19 0 7 -33 32 -42 33 -4 0 -5 -6 -2
-14z"/>
<path d="M2473 1640 c0 -25 2 -35 4 -22 2 12 2 32 0 45 -2 12 -4 2 -4 -23z"/>
<path d="M1333 1623 c-8 -50 -11 -525 -4 -725 3 -83 8 -118 16 -118 13 0 14
67 1 88 -4 8 -1 12 10 12 16 0 16 1 -2 15 -17 13 -17 14 -1 15 13 0 17 9 17
38 0 27 -3 33 -10 22 -8 -13 -10 -12 -11 5 -1 11 -3 31 -5 45 -5 49 -5 536 1
593 7 69 -1 76 -12 10z"/>
<path d="M3020 1660 c-24 -8 -23 -8 8 -9 17 -1 32 4 32 9 0 11 -5 11 -40 0z"/>
<path d="M4345 1610 c13 -62 28 -90 42 -76 4 4 2 10 -4 14 -6 4 -17 30 -24 57
-17 73 -29 77 -14 5z"/>
<path d="M1640 1640 c-6 -11 -8 -20 -6 -20 3 0 10 9 16 20 6 11 8 20 6 20 -3
0 -10 -9 -16 -20z"/>
<path d="M1496 1633 c-6 -14 -5 -15 5 -6 7 7 10 15 7 18 -3 3 -9 -2 -12 -12z"/>
<path d="M2362 1630 c0 -14 2 -19 5 -12 2 6 2 18 0 25 -3 6 -5 1 -5 -13z"/>
<path d="M3269 1627 c26 -28 31 -32 31 -19 0 4 -13 16 -28 26 l-27 19 24 -26z"/>
<path d="M2292 1615 c0 -16 2 -22 5 -12 2 9 2 23 0 30 -3 6 -5 -1 -5 -18z"/>
<path d="M1871 1614 c0 -11 3 -14 6 -6 3 7 2 16 -1 19 -3 4 -6 -2 -5 -13z"/>
<path d="M621 1604 c0 -11 3 -14 6 -6 3 7 2 16 -1 19 -3 4 -6 -2 -5 -13z"/>
<path d="M1980 1609 c0 -5 5 -7 10 -4 6 3 10 8 10 11 0 2 -4 4 -10 4 -5 0 -10
-5 -10 -11z"/>
<path d="M3950 1615 c-1 -5 -1 -20 -1 -32 1 -11 -3 -24 -8 -28 -6 -3 -11 -11
-11 -18 0 -7 6 -5 16 4 10 11 14 28 11 50 -2 19 -5 30 -7 24z"/>
<path d="M1459 1593 c-13 -16 -12 -17 4 -4 9 7 17 15 17 17 0 8 -8 3 -21 -13z"/>
<path d="M4912 1580 c0 -14 2 -19 5 -12 2 6 2 18 0 25 -3 6 -5 1 -5 -13z"/>
<path d="M2352 1570 c0 -14 2 -19 5 -12 2 6 2 18 0 25 -3 6 -5 1 -5 -13z"/>
<path d="M3115 1570 c10 -11 20 -20 23 -20 3 0 -3 9 -13 20 -10 11 -20 20 -23
20 -3 0 3 -9 13 -20z"/>
<path d="M627 1417 c-7 -169 -15 -215 -28 -167 -6 20 -7 17 -7 -15 0 -77 30
-123 35 -52 7 117 15 365 11 382 -2 11 -7 -56 -11 -148z"/>
<path d="M3520 1567 c0 -2 15 -16 33 -33 l32 -29 -29 33 c-28 30 -36 37 -36
29z"/>
<path d="M2135 1549 c-4 -6 -5 -12 -2 -15 2 -3 7 2 10 11 7 17 1 20 -8 4z"/>
<path d="M2647 1546 c-4 -9 2 -13 19 -13 20 0 22 2 13 13 -6 8 -15 14 -19 14
-4 0 -10 -6 -13 -14z"/>
<path d="M2351 1524 c0 -11 3 -14 6 -6 3 7 2 16 -1 19 -3 4 -6 -2 -5 -13z"/>
<path d="M3922 1497 c-1 -15 -10 -40 -19 -55 l-16 -27 22 21 c17 16 21 29 18
55 -3 29 -4 30 -5 6z"/>
<path d="M2106 1493 c-6 -14 -5 -15 5 -6 7 7 10 15 7 18 -3 3 -9 -2 -12 -12z"/>
<path d="M4400 1497 c0 -7 7 -22 16 -33 14 -17 15 -17 10 -1 -3 10 -6 25 -6
33 0 8 -4 14 -10 14 -5 0 -10 -6 -10 -13z"/>
<path d="M2085 1450 c-3 -5 -1 -10 4 -10 6 0 11 5 11 10 0 6 -2 10 -4 10 -3 0
-8 -4 -11 -10z"/>
<path d="M4440 1403 c0 -87 43 -242 78 -284 19 -24 32 -131 28 -232 -5 -117
10 -121 18 -4 8 101 -3 179 -33 242 -53 113 -71 176 -71 256 0 21 -4 41 -10
44 -6 4 -10 -6 -10 -22z"/>
<path d="M4902 1324 c-2 -122 -12 -195 -23 -188 -12 7 -11 -4 5 -51 22 -62 27
-28 23 165 -1 101 -3 132 -5 74z"/>
<path d="M2121 1394 c0 -11 3 -14 6 -6 3 7 2 16 -1 19 -3 4 -6 -2 -5 -13z"/>
<path d="M3864 1375 c-7 -19 -14 -38 -14 -43 0 -4 -10 -19 -22 -32 -21 -22
-23 -34 -22 -115 1 -49 3 -99 4 -110 1 -11 1 -75 0 -143 -2 -121 -2 -123 -23
-116 -24 7 -37 22 -37 41 0 6 -7 19 -16 28 -9 9 -20 31 -24 48 -7 30 -8 28 -9
-15 -1 -37 2 -46 13 -42 10 4 16 -8 21 -45 4 -28 11 -51 16 -51 5 0 9 7 9 16
0 24 23 11 31 -17 4 -13 7 -44 8 -68 1 -36 3 -42 14 -32 9 9 12 84 12 305 0
256 2 296 16 312 16 19 52 114 43 114 -3 0 -12 -16 -20 -35z"/>
<path d="M525 1196 c-9 -41 -15 -81 -12 -88 6 -17 11 -1 27 85 17 94 6 96 -15
3z"/>
<path d="M51 1208 c-1 -33 19 -79 31 -72 5 3 3 16 -6 28 -8 12 -16 33 -19 47
-4 23 -4 23 -6 -3z"/>
<path d="M170 1201 c0 -5 5 -13 10 -16 6 -3 10 -2 10 4 0 5 -4 13 -10 16 -5 3
-10 2 -10 -4z"/>
<path d="M91 1184 c0 -11 3 -14 6 -6 3 7 2 16 -1 19 -3 4 -6 -2 -5 -13z"/>
<path d="M4845 1170 c-3 -5 -1 -10 4 -10 6 0 11 5 11 10 0 6 -2 10 -4 10 -3 0
-8 -4 -11 -10z"/>
<path d="M180 1145 c0 -14 4 -25 9 -25 4 0 6 11 3 25 -2 14 -6 25 -8 25 -2 0
-4 -11 -4 -25z"/>
<path d="M4795 1108 c-4 -27 -11 -48 -15 -48 -10 0 -1 -103 10 -113 9 -10 25
173 17 195 -2 7 -8 -8 -12 -34z"/>
<path d="M270 1096 c0 -9 5 -16 10 -16 6 0 10 4 10 9 0 6 -4 13 -10 16 -5 3
-10 -1 -10 -9z"/>
<path d="M180 1091 c0 -5 11 -8 25 -8 14 0 25 2 25 6 0 4 -11 8 -25 9 -14 1
-25 -2 -25 -7z"/>
<path d="M1665 1036 c3 -32 14 -79 25 -105 21 -50 40 -215 40 -342 0 -48 4
-81 12 -85 23 -14 -7 388 -31 421 -4 6 -13 37 -20 70 -19 90 -33 112 -26 41z"/>
<path d="M500 1031 c0 -27 -5 -62 -10 -77 -8 -21 -8 -29 2 -35 17 -11 26 20
27 99 1 35 -3 62 -9 62 -5 0 -10 -22 -10 -49z"/>
<path d="M1626 1069 c-3 -8 -12 -45 -21 -84 -10 -38 -26 -91 -36 -118 -11 -26
-20 -77 -21 -113 -1 -47 -6 -67 -17 -74 -13 -7 -14 -12 -3 -29 6 -12 12 -33
12 -48 0 -45 8 -21 14 42 3 33 9 92 12 130 4 39 12 77 18 85 15 19 61 208 53
217 -4 3 -9 0 -11 -8z"/>
<path d="M190 1060 c0 -5 7 -10 15 -10 8 0 15 5 15 10 0 6 -7 10 -15 10 -8 0
-15 -4 -15 -10z"/>
<path d="M280 1054 c0 -10 7 -13 24 -8 13 3 27 1 30 -5 4 -6 12 -11 19 -11 20
0 -7 20 -41 29 -26 8 -32 7 -32 -5z"/>
<path d="M4717 1045 c-17 -16 -37 -98 -37 -146 0 -25 -6 -33 -36 -45 -38 -16
-49 -12 -57 21 -3 11 -5 -2 -6 -29 -1 -46 0 -48 17 -34 9 9 32 19 50 23 38 8
52 30 52 82 1 57 17 116 36 130 10 7 13 13 7 13 -7 0 -18 -7 -26 -15z"/>
<path d="M280 1020 c0 -5 5 -10 10 -10 6 0 10 5 10 10 0 6 -4 10 -10 10 -5 0
-10 -4 -10 -10z"/>
<path d="M450 1014 c0 -28 25 -61 34 -45 4 6 0 14 -8 17 -9 3 -14 9 -12 13 3
4 1 13 -5 21 -7 12 -9 11 -9 -6z"/>
<path d="M411 990 c-1 -26 -4 -31 -11 -20 -7 10 -10 11 -10 2 0 -12 27 -28 35
-21 2 2 0 20 -5 39 l-8 35 -1 -35z"/>
<path d="M1394 948 c3 -13 9 -87 12 -165 4 -78 11 -140 16 -137 9 6 3 213 -8
287 -3 20 -10 37 -16 37 -6 0 -8 -10 -4 -22z"/>
<path d="M3434 920 c2 -19 11 -55 21 -80 11 -30 18 -89 22 -185 3 -77 8 -167
12 -200 l6 -60 23 111 c12 60 22 121 21 135 l-1 24 -7 -24 c-10 -38 -31 -38
-32 1 -1 91 -12 167 -29 208 -10 25 -23 59 -29 75 l-11 30 4 -35z m86 -334 c0
-8 -4 -17 -9 -21 -12 -7 -24 12 -16 25 9 15 25 12 25 -4z m-13 -58 c-3 -8 -6
-5 -6 6 -1 11 2 17 5 13 3 -3 4 -12 1 -19z"/>
<path d="M3654 913 c-4 -21 -14 -43 -22 -49 -9 -7 -18 -42 -24 -100 -14 -124
-14 -149 -3 -152 6 -1 14 47 20 118 6 73 15 124 22 128 12 8 30 92 20 92 -3 0
-9 -17 -13 -37z"/>
<path d="M3391 917 c-17 -43 -29 -163 -30 -302 -1 -95 -8 -100 -35 -25 l-17
45 6 -50 c3 -27 9 -85 14 -128 10 -100 23 -113 20 -19 -1 40 1 75 4 79 4 3 7
-3 7 -15 0 -11 4 -23 9 -26 5 -3 9 48 10 117 2 116 15 274 27 324 8 30 -4 30
-15 0z"/>
<path d="M1330 715 c0 -19 5 -35 10 -35 6 0 10 16 10 35 0 19 -4 35 -10 35 -5
0 -10 -16 -10 -35z"/>
<path d="M1448 710 c-3 -19 -2 -44 2 -54 6 -16 8 -14 13 12 4 17 3 42 -2 54
-7 20 -9 19 -13 -12z"/>
<path d="M1492 670 c0 -62 1 -70 10 -47 7 19 7 44 0 75 -10 47 -10 47 -10 -28z"/>
<path d="M1520 710 c0 -5 5 -10 11 -10 5 0 7 5 4 10 -3 6 -8 10 -11 10 -2 0
-4 -4 -4 -10z"/>
<path d="M1886 673 c-4 -27 -9 -79 -11 -116 -3 -37 -6 -73 -8 -79 -1 -6 3 -12
10 -15 7 -3 13 29 18 104 3 59 9 115 11 125 3 9 1 19 -5 22 -5 3 -12 -15 -15
-41z"/>
<path d="M1930 697 c0 -8 4 -38 10 -68 5 -30 12 -75 15 -101 5 -38 10 -47 28
-50 15 -2 24 -12 27 -33 6 -27 7 -26 14 18 7 45 -1 79 -11 50 -3 -7 -11 -13
-18 -13 -12 0 -22 35 -31 104 -8 64 -34 134 -34 93z"/>
<path d="M3564 578 c4 -121 20 -185 28 -115 2 19 0 33 -4 31 -4 -3 -8 23 -9
58 0 35 -4 81 -9 103 -7 29 -8 9 -6 -77z"/>
<path d="M3275 601 c-8 -36 -3 -131 8 -131 4 0 7 36 7 80 0 84 -4 99 -15 51z"/>
<path d="M2952 583 c-18 -33 -27 -91 -32 -203 -2 -72 -3 -73 -13 -37 -6 20
-14 37 -17 37 -10 0 8 -92 19 -103 15 -15 20 7 27 99 3 49 12 118 20 153 15
66 13 87 -4 54z"/>
<path d="M2990 594 c0 -6 5 -37 11 -69 6 -32 12 -86 14 -119 6 -125 8 -134 14
-71 8 79 -5 208 -23 243 -9 15 -15 22 -16 16z"/>
<path d="M1780 558 c0 -18 5 -40 10 -48 7 -11 10 -4 10 27 0 23 -4 45 -10 48
-6 4 -10 -7 -10 -27z"/>
<path d="M1828 538 c4 -54 22 -94 22 -47 0 37 -12 99 -19 99 -3 0 -4 -24 -3
-52z"/>
<path d="M3174 556 c-3 -14 -12 -27 -20 -30 -7 -3 -11 -12 -8 -21 3 -8 1 -15
-5 -15 -6 0 -11 5 -11 10 0 6 -4 10 -10 10 -5 0 -3 -19 5 -41 8 -23 16 -56 16
-73 l1 -31 8 30 c4 17 8 47 9 68 0 21 8 45 16 53 8 9 15 26 15 40 0 31 -8 31
-16 0z"/>
<path d="M3225 550 c4 -14 12 -56 17 -95 12 -85 18 -106 25 -87 12 31 -8 157
-28 182 l-21 25 7 -25z"/>
<path d="M2201 508 c-1 -21 4 -38 9 -38 12 0 12 27 0 55 -7 16 -9 13 -9 -17z"/>
<path d="M2050 470 c0 -33 4 -60 10 -60 6 0 10 15 10 33 0 18 4 37 9 43 4 5 0
16 -10 27 -18 16 -19 15 -19 -43z"/>
<path d="M3076 503 c-15 -53 -24 -133 -17 -163 l7 -35 7 35 c18 99 21 222 3
163z"/>
<path d="M2166 499 c-9 -26 -13 -130 -5 -134 8 -6 24 134 15 142 -3 3 -8 0
-10 -8z"/>
<path d="M2271 510 c-1 -3 -3 -31 -5 -63 -2 -39 0 -53 6 -43 5 9 7 38 5 64 -2
26 -4 45 -6 42z"/>
<path d="M2301 453 c0 -27 4 -66 8 -88 7 -34 9 -26 10 48 1 52 -3 87 -9 87 -5
0 -10 -21 -9 -47z"/>
<path d="M2101 469 c-2 -45 11 -89 25 -89 10 0 11 6 5 23 -5 12 -14 38 -19 57
-9 31 -10 32 -11 9z"/>
<path d="M2228 478 c-2 -7 -1 -35 3 -63 l6 -50 1 63 c2 59 -1 76 -10 50z"/>
<path d="M2340 476 c0 -8 5 -18 10 -21 6 -3 10 1 10 9 0 8 -4 18 -10 21 -5 3
-10 -1 -10 -9z"/>
<path d="M2613 428 l-1 -63 8 55 c4 30 4 59 0 63 -4 4 -7 -20 -7 -55z"/>
<path d="M2653 412 c0 -45 4 -85 9 -88 7 -4 7 -9 0 -13 -6 -3 -7 -23 -3 -46 5
-30 8 -36 14 -22 4 11 5 22 3 25 -2 4 -1 28 3 54 4 26 4 45 0 42 -8 -4 -15 27
-22 96 -2 19 -4 -2 -4 -48z"/>
<path d="M1965 461 c-6 -11 9 -23 19 -14 9 9 7 23 -3 23 -6 0 -12 -4 -16 -9z"/>
<path d="M2792 381 c-1 -22 4 -39 16 -47 15 -13 16 -15 1 -27 -17 -13 -19 -48
-4 -57 5 -3 12 6 15 20 21 80 21 80 1 80 -15 0 -21 8 -24 33 l-4 32 -1 -34z"/>
<path d="M2454 352 c4 -74 18 -85 29 -24 5 24 3 32 -8 32 -7 0 -16 10 -19 23
-2 12 -3 -2 -2 -31z"/>
<path d="M2511 365 c0 -22 4 -49 9 -60 7 -16 9 -11 9 20 0 22 -4 49 -9 60 -7
16 -9 11 -9 -20z"/>
<path d="M2751 384 c0 -11 3 -14 6 -6 3 7 2 16 -1 19 -3 4 -6 -2 -5 -13z"/>
<path d="M2836 391 c-4 -7 -5 -15 -2 -18 9 -9 19 4 14 18 -4 11 -6 11 -12 0z"/>
<path d="M2330 361 c0 -25 6 -27 13 -6 4 8 2 17 -3 20 -6 4 -10 -3 -10 -14z"/>
<path d="M2400 360 c0 -11 -4 -20 -10 -20 -15 0 -12 -19 5 -36 13 -14 15 -13
15 8 0 13 3 33 6 46 4 13 2 22 -5 22 -6 0 -11 -9 -11 -20z"/>
<path d="M2720 341 c0 -20 20 -61 30 -61 16 0 12 22 -7 36 -17 13 -17 13 0 14
24 0 22 20 -3 20 -11 0 -20 -4 -20 -9z"/>
<path d="M2560 315 c0 -14 5 -25 10 -25 6 0 10 11 10 25 0 14 -4 25 -10 25 -5
0 -10 -11 -10 -25z"/>
<path d="M2592 270 c0 -14 2 -19 5 -12 2 6 2 18 0 25 -3 6 -5 1 -5 -13z"/>
</g>
</svg>
