<?xml version="1.0" standalone="no"?>
<!DOCTYPE svg PUBLIC "-//W3C//DTD SVG 20010904//EN"
 "http://www.w3.org/TR/2001/REC-SVG-20010904/DTD/svg10.dtd">
<svg version="1.0" xmlns="http://www.w3.org/2000/svg"
 width="512.000000pt" height="512.000000pt" viewBox="0 0 512.000000 512.000000"
 preserveAspectRatio="xMidYMid meet">
<metadata>
Created by potrace 1.16, written by Peter Selinger 2001-2019
</metadata>
<g transform="translate(0.000000,512.000000) scale(0.100000,-0.100000)"
fill="#000000" stroke="none">
<path d="M2389 4859 c-86 -8 -245 -52 -264 -71 -7 -8 -4 -9 8 -4 11 3 31 8 45
11 19 4 16 1 -10 -11 -21 -9 -38 -21 -38 -27 0 -6 -7 -2 -16 9 -29 36 -8 -52
25 -107 17 -27 31 -53 31 -57 0 -4 -30 -13 -67 -20 -182 -35 -414 -135 -600
-260 -111 -74 -174 -112 -188 -112 -3 0 -5 9 -5 20 0 11 -13 34 -28 51 l-29
32 61 31 c60 31 64 35 51 67 -4 11 8 25 42 47 26 18 44 32 39 32 -8 0 -151
-93 -189 -123 -9 -8 -17 -19 -17 -25 0 -6 -5 -12 -10 -14 -6 -2 2 -19 18 -38
60 -76 104 -161 112 -218 6 -44 5 -60 -5 -68 -13 -10 -41 -75 -52 -121 -4 -16
-1 -23 9 -23 22 0 48 38 48 70 0 16 11 55 25 86 23 52 25 82 5 69 -4 -3 -11
15 -14 40 -6 35 -10 43 -23 38 -29 -11 -9 13 57 71 177 155 444 286 676 332
49 9 99 24 112 32 20 13 21 17 8 31 -14 15 -56 105 -56 120 0 10 154 50 235
61 89 12 257 12 360 1 94 -11 245 -57 245 -74 -1 -21 -36 -91 -53 -106 -25
-20 -21 -31 11 -31 25 0 33 8 60 64 42 86 42 87 2 101 -19 7 -34 18 -32 24 11
48 -362 92 -589 70z m567 -67 c-10 -2 -22 0 -28 6 -6 6 0 7 19 4 21 -5 23 -7
9 -10z m-1616 -412 c-8 -5 -19 -10 -25 -10 -5 0 -3 5 5 10 8 5 20 10 25 10 6
0 3 -5 -5 -10z"/>
<path d="M2548 4641 c-5 -85 -8 -355 -8 -601 l0 -446 -27 -54 c-53 -106 -188
-218 -335 -277 -84 -34 -228 -46 -267 -22 -14 8 -85 78 -156 155 -143 152
-156 165 -268 273 -83 79 -115 91 -51 19 79 -87 211 -226 308 -322 160 -158
166 -167 166 -238 0 -82 -35 -229 -74 -307 -21 -43 -53 -84 -103 -132 -119
-112 -44 -102 -788 -110 -357 -5 -651 -6 -654 -4 -10 11 32 184 57 235 29 60
65 86 122 92 l35 3 -4 -74 c-2 -51 0 -72 8 -67 18 11 33 87 25 125 -4 20 -6
44 -5 54 2 14 -3 17 -21 13 -13 -3 -40 -8 -61 -11 -22 -3 -49 -11 -62 -17 -30
-14 -88 -94 -79 -110 4 -6 3 -8 -3 -5 -18 11 -47 -150 -46 -258 0 -111 27
-226 62 -272 12 -14 21 -31 21 -38 0 -22 45 -53 118 -79 l72 -26 0 88 c-1 60
-5 95 -16 112 -14 23 -15 19 -10 -62 l6 -87 -57 25 c-32 14 -65 32 -75 41 -26
23 -59 110 -74 193 -21 117 -30 107 93 103 60 -2 351 -7 648 -11 492 -7 543
-9 577 -26 45 -22 189 -160 211 -203 31 -59 68 -208 74 -294 l6 -87 -36 -46
c-19 -25 -86 -95 -148 -154 -111 -104 -295 -299 -312 -329 -24 -41 48 24 251
227 246 246 266 259 374 260 60 0 76 -5 152 -43 128 -66 211 -131 267 -206 75
-101 79 -122 79 -435 1 -356 16 -841 27 -858 4 -7 10 248 13 577 5 571 6 591
26 635 50 107 205 249 313 285 25 8 80 19 121 24 68 8 70 9 24 10 -77 2 -163
-18 -227 -51 -79 -42 -175 -133 -219 -207 l-36 -62 -7 76 c-4 42 -6 127 -3
188 2 62 1 101 -2 87 -4 -14 -5 53 -2 148 3 107 1 198 -6 240 -6 37 -14 84
-17 106 -5 27 -10 35 -17 28 -7 -7 -6 -42 2 -114 8 -58 13 -199 12 -321 0
-134 3 -215 9 -212 8 5 7 -36 -5 -212 -2 -31 -4 -29 -21 12 -28 66 -220 245
-264 245 -5 0 -11 3 -13 8 -1 4 -34 22 -71 41 -63 30 -75 33 -143 29 -41 -2
-74 -2 -74 -1 0 7 70 38 110 49 25 7 36 12 25 13 -11 0 -45 -8 -75 -19 -74
-26 -75 -25 -50 16 12 19 19 38 15 42 -4 4 -10 1 -12 -5 -3 -7 -13 -23 -22
-34 -17 -22 -18 -20 -25 66 -7 101 -56 261 -94 315 -35 47 -162 169 -184 176
-30 9 -20 21 24 28 25 4 38 10 32 16 -5 5 -25 5 -49 0 -70 -17 -95 -11 -39 8
96 33 217 166 263 288 28 72 51 194 51 266 l0 63 21 -40 c29 -55 44 -68 25
-21 -20 49 -20 53 2 34 22 -20 62 -32 62 -19 0 5 -13 12 -28 16 -15 3 -33 14
-40 25 -11 19 -9 20 30 20 110 1 277 64 386 148 31 24 114 118 139 158 10 17
11 15 11 -14 -1 -38 3 -45 26 -36 14 5 16 15 11 48 l-5 41 24 -45 c35 -65 121
-146 215 -200 44 -26 77 -51 73 -55 -4 -5 -2 -5 5 -1 7 4 39 0 72 -9 32 -8 69
-15 82 -14 13 0 1 7 -28 14 -220 60 -396 203 -423 346 -6 29 -11 281 -12 563
-1 281 -5 448 -8 371 l-5 -140 -5 205 -5 205 -7 -154z m19 -4143 c-2 -29 -3
-8 -3 47 0 55 1 79 3 53 2 -26 2 -71 0 -100z"/>
<path d="M2045 4760 c-3 -5 -2 -10 4 -10 5 0 13 5 16 10 3 6 2 10 -4 10 -5 0
-13 -4 -16 -10z"/>
<path d="M1980 4734 c-14 -8 -18 -14 -10 -13 8 0 26 6 40 14 14 8 18 14 10 14
-8 -1 -26 -7 -40 -15z"/>
<path d="M2298 4713 c-28 -7 -21 -21 7 -15 14 2 22 8 19 13 -3 5 -6 8 -7 8 -1
-1 -10 -3 -19 -6z"/>
<path d="M2790 4700 c8 -5 22 -10 31 -10 28 0 68 -25 73 -45 3 -10 8 -16 12
-12 13 13 -18 56 -49 67 -40 13 -88 14 -67 0z"/>
<path d="M3121 4664 c-13 -19 -33 -39 -43 -45 -28 -15 -22 -26 20 -34 116 -22
382 -140 482 -215 59 -44 68 -47 76 -26 3 8 14 16 24 19 28 7 38 58 15 71 -9
6 -45 29 -79 50 -86 55 -234 128 -356 175 -57 23 -106 41 -109 41 -3 0 -17
-16 -30 -36z m129 -21 c96 -40 307 -147 370 -188 76 -49 75 -47 34 -91 -13
-14 -49 9 -39 25 3 7 0 8 -9 5 -8 -3 -30 5 -48 19 -18 13 -55 37 -83 52 -27
15 -54 31 -60 35 -5 4 -35 15 -65 25 -30 10 -80 29 -110 43 -30 13 -70 25 -88
27 -35 2 -55 15 -34 22 6 3 12 10 12 17 0 38 43 41 120 9z"/>
<path d="M1875 4654 c-133 -52 -206 -83 -245 -104 -91 -47 -118 -64 -150 -95
-19 -18 -45 -36 -58 -40 -18 -5 -20 -9 -10 -20 7 -8 24 -28 37 -44 l23 -29 62
43 c117 81 354 188 479 216 58 12 73 30 39 48 -10 5 -24 21 -32 35 -18 34 -37
33 -145 -10z m135 2 c0 -7 7 -19 16 -27 14 -12 13 -14 -8 -22 -12 -5 -48 -15
-78 -23 -107 -28 -335 -137 -413 -197 -41 -32 -67 -30 -67 4 0 23 30 54 61 64
11 4 19 10 19 15 0 12 56 42 150 80 47 18 114 47 150 62 36 16 74 33 85 38 20
9 50 17 73 19 6 0 12 -5 12 -13z"/>
<path d="M2240 4680 c0 -5 5 -10 11 -10 5 0 7 5 4 10 -3 6 -8 10 -11 10 -2 0
-4 -4 -4 -10z"/>
<path d="M2385 4660 c-10 -11 -16 -22 -13 -25 3 -3 13 4 23 15 10 11 16 22 13
25 -3 3 -13 -4 -23 -15z"/>
<path d="M2455 4645 c-64 -17 -122 -42 -130 -55 -9 -14 1 -12 43 9 20 10 61
24 90 32 28 7 52 16 52 21 0 4 -1 8 -2 7 -2 0 -25 -6 -53 -14z"/>
<path d="M2714 4616 c79 -29 113 -36 165 -35 l66 2 -70 7 c-38 4 -88 15 -110
25 -22 9 -49 19 -60 20 -11 2 -36 6 -55 10 -19 3 10 -10 64 -29z"/>
<path d="M1209 4604 c-7 -8 -6 -14 2 -20 8 -4 9 -3 5 4 -5 8 0 12 13 12 12 0
21 4 21 8 0 13 -29 10 -41 -4z"/>
<path d="M3880 4616 c0 -3 14 -12 30 -21 17 -9 30 -11 30 -6 0 5 -8 11 -17 15
-10 3 -24 9 -30 12 -7 3 -13 3 -13 0z"/>
<path d="M1096 4538 c-43 -29 -72 -54 -65 -57 7 -2 15 1 17 8 2 6 12 11 22 11
10 0 20 3 22 8 6 14 68 52 85 52 14 0 15 2 4 9 -11 7 -11 9 0 14 8 3 10 6 4 6
-5 1 -45 -23 -89 -51z"/>
<path d="M2233 4583 c15 -2 39 -2 55 0 15 2 2 4 -28 4 -30 0 -43 -2 -27 -4z"/>
<path d="M2991 4580 c-17 -4 -2 -9 50 -18 198 -34 480 -166 636 -298 58 -50
117 -78 142 -69 11 4 -3 14 -43 30 -32 13 -68 33 -80 43 -32 30 -183 126 -261
167 -134 70 -398 156 -444 145z"/>
<path d="M3950 4581 c0 -5 7 -12 16 -15 14 -5 15 -4 4 9 -14 17 -20 19 -20 6z"/>
<path d="M4009 4540 c13 -11 28 -20 33 -20 6 0 -1 9 -15 20 -33 26 -49 26 -18
0z"/>
<path d="M3710 4466 c0 -2 23 -18 50 -36 55 -35 63 -50 26 -47 -14 1 -25 -2
-26 -7 -2 -14 88 -47 95 -36 12 19 38 11 32 -10 -4 -17 -2 -18 15 -9 23 12 25
10 -62 71 -65 45 -130 82 -130 74z"/>
<path d="M4150 4441 c0 -5 7 -12 16 -15 14 -5 15 -4 4 9 -14 17 -20 19 -20 6z"/>
<path d="M970 4359 c0 -5 5 -7 10 -4 6 3 10 8 10 11 0 2 -4 4 -10 4 -5 0 -10
-5 -10 -11z"/>
<path d="M4260 4366 c0 -2 7 -6 15 -10 8 -3 15 -1 15 4 0 6 -7 10 -15 10 -8 0
-15 -2 -15 -4z"/>
<path d="M4320 4309 c0 -5 5 -7 10 -4 6 3 10 8 10 11 0 2 -4 4 -10 4 -5 0 -10
-5 -10 -11z"/>
<path d="M3843 4288 c-11 -14 -26 -68 -19 -68 2 0 13 18 25 40 19 38 15 55 -6
28z"/>
<path d="M4340 4286 c0 -2 7 -7 16 -10 8 -3 12 -2 9 4 -6 10 -25 14 -25 6z"/>
<path d="M710 4213 c0 -5 5 -15 10 -23 8 -12 10 -11 10 8 0 12 -4 22 -10 22
-5 0 -10 -3 -10 -7z"/>
<path d="M678 4159 c-9 -16 -14 -29 -9 -29 8 0 34 50 29 56 -2 1 -11 -11 -20
-27z"/>
<path d="M3766 4167 c-13 -10 -18 -29 -19 -80 -2 -60 -4 -66 -21 -61 -13 4
-17 2 -14 -7 3 -8 15 -13 26 -11 17 3 22 -2 22 -20 0 -13 6 -30 13 -37 7 -8 7
-11 1 -8 -16 9 -24 -41 -11 -70 14 -31 35 -29 47 3 8 19 7 34 -3 53 -11 22
-11 36 -1 81 7 30 13 71 12 90 l-1 35 -4 -32 c-2 -18 -8 -33 -14 -33 -5 0 -9
-14 -9 -31 0 -20 -4 -29 -12 -26 -7 2 -12 13 -11 23 7 49 12 71 22 98 14 35 2
51 -23 33z"/>
<path d="M1406 4161 c-4 -7 -5 -15 -2 -18 9 -9 19 4 14 18 -4 11 -6 11 -12 0z"/>
<path d="M980 4131 c0 -8 31 -37 87 -81 16 -13 23 -13 23 0 0 15 -80 90 -96
90 -8 0 -14 -4 -14 -9z"/>
<path d="M3690 4114 c0 -8 5 -12 10 -9 6 4 8 11 5 16 -9 14 -15 11 -15 -7z"/>
<path d="M4089 4118 c-27 -7 -38 -16 -42 -34 -3 -18 0 -24 12 -22 9 2 18 5 21
8 3 3 17 13 33 23 15 10 27 22 27 27 0 11 -2 11 -51 -2z"/>
<path d="M636 4090 c-16 -32 -13 -38 9 -16 8 7 11 16 8 20 -4 3 -1 6 5 6 7 0
12 5 12 10 0 20 -19 9 -34 -20z"/>
<path d="M1422 4100 c0 -14 2 -19 5 -12 2 6 2 18 0 25 -3 6 -5 1 -5 -13z"/>
<path d="M3710 4081 c0 -5 -3 -17 -7 -27 -4 -11 -3 -15 4 -11 14 9 24 47 12
47 -5 0 -9 -4 -9 -9z"/>
<path d="M4460 4071 c0 -5 5 -13 10 -16 6 -3 10 -2 10 4 0 5 -4 13 -10 16 -5
3 -10 2 -10 -4z"/>
<path d="M1317 4063 c-10 -10 -8 -53 2 -53 8 0 20 32 21 53 0 9 -14 9 -23 0z"/>
<path d="M1420 4033 c0 -28 3 -34 10 -23 13 20 13 60 0 60 -5 0 -10 -17 -10
-37z"/>
<path d="M4055 4039 c-11 -17 1 -21 15 -4 8 9 8 15 2 15 -6 0 -14 -5 -17 -11z"/>
<path d="M599 4016 c-7 -14 -15 -26 -19 -26 -4 0 -13 -13 -20 -30 -7 -16 -17
-30 -23 -30 -6 0 -7 -3 -4 -7 4 -3 2 -11 -3 -18 -16 -20 -61 -127 -50 -120 6
4 22 27 36 53 48 90 69 127 74 132 11 10 31 63 26 68 -3 2 -11 -7 -17 -22z"/>
<path d="M1028 4033 c7 -3 16 -2 19 1 4 3 -2 6 -13 5 -11 0 -14 -3 -6 -6z"/>
<path d="M4010 4020 c0 -5 5 -10 11 -10 5 0 7 5 4 10 -3 6 -8 10 -11 10 -2 0
-4 -4 -4 -10z"/>
<path d="M3826 3962 c-3 -6 -1 -14 5 -17 15 -10 25 3 12 16 -7 7 -13 7 -17 1z"/>
<path d="M1397 3937 c-11 -29 -9 -43 4 -30 6 6 9 19 7 29 -3 18 -4 18 -11 1z"/>
<path d="M1249 3921 c-15 -17 -15 -20 2 -42 10 -13 19 -29 19 -34 0 -6 12 -19
26 -30 14 -10 35 -27 46 -37 12 -10 26 -18 32 -18 6 1 -6 14 -26 31 -21 17
-51 50 -67 74 -27 39 -28 44 -13 59 9 9 12 16 6 16 -5 0 -17 -8 -25 -19z"/>
<path d="M3721 3914 c0 -11 3 -14 6 -6 3 7 2 16 -1 19 -3 4 -6 -2 -5 -13z"/>
<path d="M3869 3926 c-1 -3 -2 -11 -3 -16 0 -6 -6 -14 -12 -18 -6 -4 -14 -17
-18 -29 -10 -32 11 -30 26 2 6 14 17 25 25 25 7 0 13 3 13 6 0 8 -30 37 -31
30z"/>
<path d="M4281 3889 l-43 -39 10 -47 10 -48 1 43 c1 34 7 48 29 67 23 21 29
22 38 9 10 -12 12 -12 16 4 3 10 0 26 -6 34 -10 13 -17 10 -55 -23z"/>
<path d="M792 3895 c-12 -15 -22 -31 -22 -36 0 -13 28 1 34 16 4 10 17 3 46
-26 52 -52 54 -24 2 33 l-38 41 -22 -28z"/>
<path d="M2900 3917 c0 -3 33 -15 73 -27 39 -12 92 -33 116 -46 24 -13 49 -24
55 -24 20 1 -98 59 -154 76 -87 25 -90 26 -90 21z"/>
<path d="M2460 3900 c-22 -7 -21 -8 13 -9 23 -1 36 3 32 9 -7 11 -10 11 -45 0z"/>
<path d="M1200 3890 c0 -5 5 -10 10 -10 6 0 10 5 10 10 0 6 -4 10 -10 10 -5 0
-10 -4 -10 -10z"/>
<path d="M2610 3840 l0 -60 34 0 c19 0 41 -3 50 -6 9 -3 16 -1 16 5 0 6 -15
11 -34 11 -38 0 -46 12 -46 71 0 21 -4 39 -10 39 -6 0 -10 -27 -10 -60z"/>
<path d="M2235 3883 c-89 -21 -163 -50 -185 -72 -14 -15 -55 -41 -91 -60 l-67
-33 46 -74 c25 -41 49 -74 54 -74 13 0 9 16 -7 30 -8 7 -15 16 -15 20 0 8 86
60 99 60 13 0 39 -75 30 -86 -5 -6 -27 -17 -49 -24 -22 -7 -40 -17 -40 -22 0
-10 6 -10 28 1 9 4 34 16 55 26 20 10 37 22 37 27 0 5 -13 35 -29 66 -36 72
-48 127 -31 147 22 27 39 16 70 -44 16 -33 34 -62 40 -66 5 -3 31 3 56 14 42
19 46 23 40 48 -3 16 -9 43 -13 61 -5 28 -9 33 -27 28 -12 -3 -39 -8 -61 -11
l-40 -5 45 15 c25 8 55 15 67 15 12 0 25 5 28 10 6 10 -5 11 -40 3z m14 -106
c1 -20 -6 -31 -24 -39 -30 -13 -38 -7 -59 44 l-16 37 43 8 c46 10 55 2 56 -50z
m-210 -78 c-10 -19 -55 -46 -74 -44 -21 1 -35 17 -35 38 1 16 14 29 53 48 l52
26 7 -25 c4 -14 3 -33 -3 -43z"/>
<path d="M2658 3883 c12 -2 32 -2 45 0 12 2 2 4 -23 4 -25 0 -35 -2 -22 -4z"/>
<path d="M2741 3876 c-7 -8 -11 -34 -9 -58 l3 -43 45 0 c42 0 44 1 51 34 11
54 -4 81 -45 81 -18 0 -39 -6 -45 -14z m69 -41 c0 -57 -60 -61 -68 -5 -4 26
12 40 46 40 19 0 22 -5 22 -35z"/>
<path d="M2867 3876 c19 -15 20 -19 8 -44 -8 -15 -17 -39 -20 -54 -6 -24 -3
-27 32 -37 21 -6 46 -11 56 -11 9 0 26 -9 36 -19 19 -19 20 -19 52 35 18 30
37 54 41 54 48 0 -102 66 -192 85 -34 7 -34 6 -13 -9z m115 -43 c53 -17 60
-33 29 -71 -18 -21 -23 -21 -70 -11 -28 6 -53 14 -56 19 -3 5 0 27 7 50 9 28
17 39 27 35 8 -3 37 -13 63 -22z"/>
<path d="M2295 3869 c-12 -19 5 -78 28 -94 28 -20 40 -19 68 4 21 17 22 21 11
60 -12 40 -14 41 -57 41 -24 0 -47 -5 -50 -11z m85 -24 c16 -19 9 -49 -13 -53
-23 -5 -57 25 -57 50 0 23 51 25 70 3z"/>
<path d="M2030 3845 c-25 -13 -40 -24 -35 -24 6 0 30 11 55 24 25 13 41 24 35
24 -5 0 -30 -11 -55 -24z"/>
<path d="M3916 3856 c9 -24 81 -55 142 -62 31 -4 55 -4 52 -1 -3 4 -25 9 -48
12 -43 5 -116 37 -127 55 -10 15 -25 12 -19 -4z"/>
<path d="M1346 3843 c-6 -14 -5 -15 5 -6 7 7 10 15 7 18 -3 3 -9 -2 -12 -12z"/>
<path d="M1145 3840 c-3 -5 -2 -10 4 -10 5 0 13 5 16 10 3 6 2 10 -4 10 -5 0
-13 -4 -16 -10z"/>
<path d="M2496 3808 c-6 -37 -13 -48 -30 -51 -20 -4 -20 -4 2 -6 26 -1 45 37
39 78 -2 19 -5 14 -11 -21z"/>
<path d="M4370 3841 c0 -6 4 -13 10 -16 6 -3 7 1 4 9 -7 18 -14 21 -14 7z"/>
<path d="M740 3815 c-13 -14 -22 -27 -19 -29 2 -2 14 10 27 25 29 36 24 38 -8
4z"/>
<path d="M1198 3833 c7 -3 16 -2 19 1 4 3 -2 6 -13 5 -11 0 -14 -3 -6 -6z"/>
<path d="M1090 3815 c-14 -8 -19 -14 -10 -14 8 0 24 6 34 14 25 19 9 19 -24 0z"/>
<path d="M3769 3797 c-20 -17 -49 -44 -65 -58 -48 -43 -294 -298 -378 -392
-111 -125 -99 -119 -288 -133 -91 -7 -112 -24 -30 -24 45 0 90 8 141 25 45 14
10 -16 -53 -46 -62 -30 -66 -40 -5 -15 19 7 44 17 57 20 l22 7 -21 -36 c-28
-47 -18 -57 11 -11 12 20 24 36 27 36 3 0 4 -28 3 -62 -5 -107 -1 -145 11
-128 9 12 10 11 6 -7 -3 -13 -2 -23 2 -23 4 0 15 -26 25 -57 10 -32 27 -74 37
-94 28 -57 115 -145 182 -187 l61 -37 -47 -5 c-73 -9 -83 -30 -11 -23 l59 4
-60 -39 c-77 -50 -170 -149 -196 -208 -41 -92 -71 -217 -72 -296 l-1 -78 -18
28 c-10 15 -18 33 -18 40 0 6 -4 12 -10 12 -14 0 -13 -11 5 -54 17 -39 15 -41
-40 -37 -47 3 -156 -10 -151 -18 3 -4 43 -5 89 -3 124 6 139 -4 410 -272 210
-208 247 -241 247 -218 0 5 -110 120 -244 255 -272 276 -260 256 -245 392 4
39 22 115 39 169 31 96 35 102 108 176 43 42 100 89 127 106 l50 29 600 8
c330 5 623 9 650 10 l50 2 -3 -35 c-5 -54 -41 -188 -62 -229 -14 -29 -32 -44
-78 -64 -68 -31 -87 -34 -78 -12 3 8 9 45 12 81 6 54 4 66 -7 62 -19 -6 -29
-61 -27 -140 1 -38 4 -68 5 -68 12 0 145 40 160 48 26 15 92 152 105 221 20
106 -6 402 -33 385 -5 -3 -9 3 -9 12 0 32 -49 82 -111 113 -71 35 -110 40
-107 14 1 -10 0 -29 -1 -43 l-3 -25 -9 25 c-6 19 -7 15 -3 -15 3 -22 7 -49 9
-60 11 -80 34 -62 27 21 l-5 66 34 -7 c55 -12 108 -43 123 -73 18 -35 34 -96
50 -187 l13 -73 -606 4 c-333 3 -630 7 -659 10 -45 5 -65 14 -132 65 -98 74
-125 105 -167 197 -40 87 -63 182 -63 270 0 60 2 64 43 109 23 25 66 69 94 96
82 78 302 321 338 374 18 26 51 59 72 73 42 28 63 46 63 54 0 13 -17 4 -51
-27z"/>
<path d="M1219 3794 c-13 -14 -35 -30 -49 -36 -20 -7 -22 -11 -10 -18 26 -16
63 -11 88 13 17 15 26 18 29 9 6 -16 23 -5 23 15 0 10 -6 13 -16 9 -11 -4 -18
1 -21 14 -7 26 -15 25 -44 -6z m21 -9 c-7 -8 -18 -15 -24 -15 -6 0 -2 7 8 15
25 19 32 19 16 0z"/>
<path d="M1920 3789 c-30 -16 -64 -39 -75 -50 -20 -20 -20 -20 13 -8 19 6 36
18 39 25 3 8 10 11 16 7 6 -4 7 -1 2 7 -6 10 -4 12 9 7 10 -4 15 -3 11 3 -3 6
-4 10 -1 10 2 0 12 3 22 7 12 4 15 3 10 -5 -5 -8 -1 -10 10 -5 11 4 13 8 6 11
-7 2 -10 8 -6 13 8 13 5 12 -56 -22z"/>
<path d="M3856 3805 c5 -11 2 -13 -10 -9 -22 8 -21 -19 2 -38 28 -25 64 -29
84 -11 17 16 20 15 33 -4 23 -33 53 -35 72 -6 14 21 14 26 2 34 -8 5 -27 8
-44 6 -16 -3 -41 0 -54 5 -17 6 -27 5 -33 -4 -6 -11 -8 -10 -8 0 0 16 -24 42
-39 42 -6 0 -8 -7 -5 -15z"/>
<path d="M1155 3800 c-3 -5 -1 -10 4 -10 6 0 11 5 11 10 0 6 -2 10 -4 10 -3 0
-8 -4 -11 -10z"/>
<path d="M1023 3793 c9 -2 23 -2 30 0 6 3 -1 5 -18 5 -16 0 -22 -2 -12 -5z"/>
<path d="M757 3770 c-3 -12 -1 -17 5 -14 13 8 65 -15 72 -32 6 -15 -16 -59
-39 -79 -34 -30 -134 -224 -184 -355 -18 -47 -37 -93 -42 -102 -5 -10 -9 -26
-9 -35 0 -10 27 47 60 125 64 157 112 244 202 368 54 75 73 114 47 98 -6 -3
-32 6 -59 20 -46 25 -48 25 -53 6z"/>
<path d="M1098 3783 c-32 -5 -38 -32 -12 -54 13 -10 19 -8 40 14 22 24 25 50
6 46 -4 -1 -19 -4 -34 -6z"/>
<path d="M3096 3738 c-10 -29 -31 -72 -47 -95 -34 -49 -35 -53 -10 -53 11 0
23 -4 26 -10 3 -5 12 -10 18 -9 7 0 2 7 -10 16 -29 19 -29 26 0 68 23 34 24
34 48 18 23 -17 24 -17 9 2 -8 11 -19 23 -25 27 -5 4 -2 10 7 13 9 4 14 13 11
21 -7 19 17 18 46 -2 18 -13 21 -22 16 -43 -4 -14 -12 -33 -20 -41 -7 -8 -16
-30 -20 -48 -4 -21 -15 -36 -28 -42 -21 -8 -21 -8 -3 -16 24 -9 39 10 67 85
37 101 37 105 -16 135 -26 14 -48 26 -49 26 -1 0 -10 -24 -20 -52z"/>
<path d="M910 3770 c0 -5 5 -10 10 -10 6 0 10 5 10 10 0 6 -4 10 -10 10 -5 0
-10 -4 -10 -10z"/>
<path d="M4103 3768 c-18 -6 -35 -19 -39 -30 -7 -25 -8 -24 49 -31 51 -7 55
-2 41 51 -7 24 -6 24 -51 10z m7 -32 c0 -3 -4 -8 -10 -11 -5 -3 -10 -1 -10 4
0 6 5 11 10 11 6 0 10 -2 10 -4z m28 -21 c-3 -3 -9 2 -12 12 -6 14 -5 15 5 6
7 -7 10 -15 7 -18z"/>
<path d="M695 3759 c-4 -6 -5 -12 -2 -15 2 -3 7 2 10 11 7 17 1 20 -8 4z"/>
<path d="M965 3760 c-4 -6 -3 -19 0 -30 8 -27 62 -24 71 3 3 10 4 20 2 21 -11
10 -68 14 -73 6z"/>
<path d="M4363 3746 c5 -16 24 -18 30 -2 4 10 0 14 -14 13 -10 -1 -18 -6 -16
-11z"/>
<path d="M4251 3747 c-2 -23 87 -160 99 -152 8 5 95 -146 94 -162 -1 -7 2 -10
7 -7 22 13 149 -322 149 -393 0 -13 1 -23 3 -23 2 0 26 11 53 25 27 14 55 25
62 25 16 0 15 6 -8 68 -11 28 -29 76 -40 105 -11 28 -25 54 -30 55 -6 2 -10 8
-10 13 0 10 -53 130 -80 180 -11 20 -26 48 -33 61 -6 13 -21 37 -33 53 -12 17
-19 35 -17 42 2 6 -1 14 -7 18 -13 8 -43 -21 -35 -35 3 -6 -1 -7 -9 -4 -10 4
-16 1 -16 -9 0 -10 10 -15 32 -13 32 1 34 -1 100 -132 38 -76 65 -141 61 -150
-4 -13 -2 -14 5 -4 7 10 13 7 25 -12 10 -14 17 -29 17 -35 0 -5 14 -41 30 -79
17 -39 30 -79 30 -89 0 -23 -57 -48 -76 -32 -14 11 -26 61 -13 53 5 -3 9 1 10
8 0 7 2 20 3 28 1 8 -6 23 -16 33 -19 18 -19 17 -14 -20 3 -21 -3 -10 -13 27
-9 36 -21 73 -25 82 -4 9 -5 21 -2 26 7 11 -18 65 -26 57 -5 -6 -118 187 -118
202 0 4 -14 24 -30 43 -17 19 -36 47 -42 62 -7 15 -16 24 -20 22 -4 -3 -10 7
-14 21 -4 15 -13 25 -24 25 -10 0 -21 6 -23 13 -3 6 -6 8 -6 4z"/>
<path d="M4400 3729 c0 -8 11 -26 25 -39 32 -30 32 -14 0 25 -16 20 -24 25
-25 14z"/>
<path d="M709 3703 c-13 -16 -12 -17 4 -4 9 7 17 15 17 17 0 8 -8 3 -21 -13z"/>
<path d="M2325 3713 c-38 -8 -125 -47 -125 -55 0 -10 13 -10 26 0 5 5 32 17
59 27 28 10 54 22 60 26 5 5 7 8 5 8 -3 -1 -14 -3 -25 -6z"/>
<path d="M2800 3711 c0 -5 14 -11 30 -13 35 -5 41 7 8 16 -31 8 -38 7 -38 -3z"/>
<path d="M3219 3682 c-19 -47 -16 -83 8 -99 20 -13 24 -12 62 22 23 21 39 41
36 45 -3 5 -26 20 -51 34 l-45 25 -10 -27z m59 -25 c10 -8 9 -14 -4 -28 -24
-27 -54 -25 -54 4 0 43 22 52 58 24z"/>
<path d="M3900 3695 c0 -8 4 -15 9 -15 5 0 14 7 21 15 10 13 9 15 -9 15 -12 0
-21 -6 -21 -15z"/>
<path d="M1207 3693 c-12 -12 -7 -22 8 -17 8 4 15 10 15 15 0 11 -14 12 -23 2z"/>
<path d="M1833 3669 c-18 -12 -33 -25 -33 -29 0 -12 72 -70 86 -70 21 0 47 38
39 57 -7 16 -8 16 -12 1 -7 -26 -32 -29 -55 -6 -20 20 -20 21 -2 35 10 7 25
11 32 8 8 -3 12 0 10 7 -7 21 -31 19 -65 -3z"/>
<path d="M2870 3686 c0 -2 7 -7 16 -10 8 -3 12 -2 9 4 -6 10 -25 14 -25 6z"/>
<path d="M4490 3670 c6 -11 13 -20 16 -20 2 0 0 9 -6 20 -6 11 -13 20 -16 20
-2 0 0 -9 6 -20z"/>
<path d="M1013 3673 c9 -2 25 -2 35 0 9 3 1 5 -18 5 -19 0 -27 -2 -17 -5z"/>
<path d="M1740 3635 l-24 -25 32 16 c18 8 32 20 32 25 0 16 -16 10 -40 -16z"/>
<path d="M3350 3646 c0 -2 7 -7 16 -10 8 -3 12 -2 9 4 -6 10 -25 14 -25 6z"/>
<path d="M663 3625 c-4 -11 0 -21 10 -27 10 -5 17 -17 17 -27 0 -26 -28 -91
-40 -92 -6 -1 -14 -3 -20 -4 -5 -1 -13 -3 -17 -4 -5 -1 1 -8 11 -16 18 -14 19
-15 2 -15 -15 0 -17 -6 -14 -34 4 -38 -14 -52 -46 -34 -17 10 -22 38 -6 38 5
0 7 6 4 14 -3 7 1 16 9 19 9 3 18 21 22 39 3 18 15 52 26 75 22 48 22 53 10
53 -5 0 -11 -8 -13 -17 -3 -10 -6 -21 -7 -25 -1 -4 -17 -39 -36 -76 -19 -38
-37 -82 -41 -98 -4 -16 -15 -45 -25 -64 -22 -45 -64 -153 -80 -207 -10 -36
-16 -43 -38 -43 -19 0 -5 -10 49 -37 41 -21 78 -39 81 -41 7 -3 19 62 24 126
3 40 10 65 40 137 7 17 21 55 31 85 10 30 28 71 40 90 12 19 30 59 40 88 10
28 25 52 32 52 22 0 8 23 -26 43 -30 18 -32 18 -39 2z m-86 -302 c6 -15 -14
-63 -32 -75 -5 -4 -7 -8 -3 -8 3 0 0 -21 -8 -47 -8 -25 -14 -61 -14 -80 0 -25
-3 -32 -12 -27 -10 6 -10 5 -1 -7 7 -8 8 -20 4 -28 -15 -24 -65 8 -68 43 -1
15 1 25 4 22 4 -4 13 16 20 44 7 28 22 69 33 92 11 23 20 51 20 63 0 12 3 24
6 27 9 10 45 -4 51 -19z"/>
<path d="M556 3541 c-46 -89 -98 -222 -92 -229 3 -2 10 6 15 19 38 99 69 172
93 218 16 30 26 56 24 58 -3 3 -21 -27 -40 -66z"/>
<path d="M1750 3592 c0 -6 5 -14 10 -17 6 -3 10 -14 10 -24 0 -17 50 -81 63
-81 15 0 5 19 -38 74 -25 32 -45 54 -45 48z"/>
<path d="M1678 3583 c7 -3 16 -2 19 1 4 3 -2 6 -13 5 -11 0 -14 -3 -6 -6z"/>
<path d="M3331 3541 c-45 -53 -48 -61 -27 -61 13 0 76 84 76 102 0 15 -8 8
-49 -41z"/>
<path d="M4550 3551 c0 -6 4 -13 10 -16 6 -3 7 1 4 9 -7 18 -14 21 -14 7z"/>
<path d="M1885 3530 c3 -5 8 -10 11 -10 2 0 4 5 4 10 0 6 -5 10 -11 10 -5 0
-7 -4 -4 -10z"/>
<path d="M1975 3530 c-3 -5 -2 -10 4 -10 5 0 13 5 16 10 3 6 2 10 -4 10 -5 0
-13 -4 -16 -10z"/>
<path d="M3160 3520 c0 -5 7 -10 15 -10 8 0 15 -4 15 -10 0 -5 5 -10 11 -10
14 0 2 18 -22 30 -13 7 -19 7 -19 0z"/>
<path d="M4570 3516 c0 -7 26 -66 76 -171 36 -75 17 -12 -24 80 -34 76 -52
108 -52 91z"/>
<path d="M1920 3495 c-20 -24 -5 -28 21 -6 19 16 20 20 8 21 -9 0 -22 -7 -29
-15z"/>
<path d="M1534 3459 l-29 -31 32 19 c18 10 33 24 33 31 0 17 -3 16 -36 -19z"/>
<path d="M3560 3483 c0 -7 11 -24 25 -39 14 -15 25 -23 25 -18 0 14 -49 70
-50 57z"/>
<path d="M4480 3474 c0 -8 5 -12 10 -9 6 3 10 10 10 16 0 5 -4 9 -10 9 -5 0
-10 -7 -10 -16z"/>
<path d="M2493 3443 c-10 -16 -25 -35 -35 -44 -19 -17 -150 -229 -142 -229 10
0 43 44 76 100 17 30 35 57 40 58 4 2 8 8 8 14 0 5 11 24 24 41 36 48 59 87
52 87 -3 0 -13 -12 -23 -27z"/>
<path d="M2555 3450 c-3 -5 -1 -10 4 -10 6 0 11 5 11 10 0 6 -2 10 -4 10 -3 0
-8 -4 -11 -10z"/>
<path d="M2595 3432 c-3 -9 -3 -14 0 -10 8 8 32 -15 65 -62 13 -19 30 -41 37
-48 7 -7 26 -41 43 -76 25 -54 60 -101 60 -83 0 4 -19 42 -41 86 -50 96 -154
219 -164 193z"/>
<path d="M1478 3393 c-81 -87 -189 -297 -193 -376 -1 -28 -5 -65 -10 -82 -10
-37 3 -27 24 20 16 34 17 34 38 17 24 -19 36 -76 16 -78 -7 -1 -27 -2 -43 -3
-25 -1 -34 -8 -45 -33 -20 -47 -2 -62 73 -63 l57 0 10 39 c7 30 6 44 -8 68 -9
16 -17 39 -17 51 0 15 -15 32 -44 51 -44 30 -51 56 -15 56 35 0 180 -51 186
-66 6 -16 23 -19 23 -4 0 6 18 42 40 81 44 78 47 89 25 89 -8 0 -35 20 -61 45
-52 52 -98 62 -107 23 -2 -13 -8 -32 -12 -42 -7 -16 -5 -18 8 -13 10 4 33 -2
52 -13 20 -11 53 -20 75 -20 40 0 51 -12 28 -27 -7 -4 -23 -26 -35 -48 -17
-30 -28 -39 -45 -37 -33 4 -39 22 -15 54 11 15 18 31 14 35 -4 3 -7 1 -7 -6 0
-7 -4 -10 -8 -7 -5 3 -15 -6 -22 -19 -13 -25 -30 -29 -62 -17 -16 7 -16 10 -2
36 27 53 10 64 -19 13 -46 -78 -70 -43 -31 46 20 48 110 184 136 208 10 9 18
22 18 28 0 7 5 9 12 5 7 -4 8 -3 4 4 -9 16 -8 16 -38 -15z m36 -198 c15 -23
15 -25 -1 -26 -45 -3 -82 19 -69 40 13 20 53 12 70 -14z m-137 -323 c7 -4 10
-17 6 -30 -4 -19 -12 -22 -50 -22 -40 0 -44 2 -41 22 4 28 58 47 85 30z"/>
<path d="M4451 3405 c0 -5 11 -30 24 -55 13 -25 24 -40 24 -35 0 6 -11 30 -24
55 -13 25 -24 41 -24 35z"/>
<path d="M3630 3397 c0 -2 25 -37 55 -77 30 -40 55 -69 55 -62 0 6 -7 17 -15
26 -8 8 -15 17 -15 21 0 10 -64 94 -72 95 -5 0 -8 -1 -8 -3z"/>
<path d="M3543 3350 c-25 -10 -42 -39 -36 -58 4 -9 9 -6 17 10 9 17 20 23 46
23 24 0 34 -4 32 -13 -1 -8 2 -11 7 -7 6 3 13 -6 17 -20 4 -16 10 -23 15 -18
15 15 -17 80 -43 87 -28 7 -27 7 -55 -4z"/>
<path d="M1516 3319 c-26 -31 -34 -59 -16 -59 5 0 15 10 21 23 14 27 28 37 52
37 30 0 31 -29 2 -54 -15 -13 -24 -29 -21 -35 12 -18 42 4 61 45 17 37 17 38
-5 56 -33 27 -65 22 -94 -13z"/>
<path d="M2547 3263 c-3 -32 -2 -121 4 -198 6 -77 11 -180 13 -230 5 -167 5
-170 17 -158 7 7 10 52 9 119 -3 143 -4 157 -13 171 -4 6 -10 87 -13 179 -3
93 -6 170 -8 171 -2 2 -6 -22 -9 -54z"/>
<path d="M441 3269 c-6 -18 -9 -34 -7 -36 2 -2 9 10 15 28 6 18 9 34 7 36 -2
2 -9 -10 -15 -28z"/>
<path d="M3470 3267 c0 -9 5 -19 10 -22 6 -4 7 -11 4 -17 -4 -7 -2 -8 4 -4 9
5 9 13 1 29 -16 31 -19 33 -19 14z"/>
<path d="M3534 3248 c-3 -4 1 -11 10 -14 20 -8 59 -1 63 11 4 12 -66 15 -73 3z"/>
<path d="M3612 3213 c-35 -28 -62 -43 -81 -43 l-29 0 49 -87 c27 -49 49 -94
49 -102 0 -10 10 -5 28 12 33 32 119 67 162 67 17 0 30 5 30 10 0 6 -13 10
-29 10 -24 0 -35 9 -62 52 -19 28 -41 68 -49 88 l-15 37 -53 -44z m55 -19 c4
-12 -42 -36 -51 -27 -8 9 25 44 38 40 5 -2 11 -8 13 -13z m42 -64 c27 -54 26
-58 -8 -62 -13 -2 -37 -16 -54 -31 l-30 -28 -39 67 c-28 48 -36 70 -28 78 7 7
16 7 30 -2 27 -16 41 -15 70 8 14 11 27 20 30 20 3 0 16 -23 29 -50z"/>
<path d="M3647 3129 c-9 -6 -15 -14 -12 -20 4 -5 13 -2 22 6 19 20 14 27 -10
14z"/>
<path d="M3752 3208 c6 -18 17 -40 26 -48 8 -8 13 -10 10 -5 -3 6 -12 27 -22
48 -21 46 -29 48 -14 5z"/>
<path d="M1620 3204 c0 -8 5 -12 10 -9 6 4 8 11 5 16 -9 14 -15 11 -15 -7z"/>
<path d="M2065 3201 c-62 -5 -66 -7 -37 -14 18 -5 56 -5 85 -1 29 4 73 7 100
6 26 0 47 3 47 9 0 9 -76 9 -195 0z"/>
<path d="M411 3193 c-1 -6 -4 -20 -7 -30 -5 -17 -5 -17 6 0 6 10 9 23 6 30 -3
9 -5 9 -5 0z"/>
<path d="M2572 3180 c0 -14 2 -19 5 -12 2 6 2 18 0 25 -3 6 -5 1 -5 -13z"/>
<path d="M1376 3173 c-6 -14 -5 -15 5 -6 7 7 10 15 7 18 -3 3 -9 -2 -12 -12z"/>
<path d="M2728 3143 c7 -3 16 -2 19 1 4 3 -2 6 -13 5 -11 0 -14 -3 -6 -6z"/>
<path d="M3796 3127 c3 -10 9 -15 12 -12 3 3 0 11 -7 18 -10 9 -11 8 -5 -6z"/>
<path d="M2266 3060 c-17 -51 -15 -74 3 -54 15 15 31 88 22 97 -4 4 -16 -15
-25 -43z"/>
<path d="M2866 3101 c-3 -4 6 -6 19 -3 14 2 25 6 25 8 0 8 -39 4 -44 -5z"/>
<path d="M2805 3083 c-3 -10 -1 -19 4 -21 6 -2 11 -11 11 -20 1 -19 38 -68 46
-60 3 3 -4 22 -16 42 -11 20 -20 45 -20 56 0 25 -16 26 -25 3z"/>
<path d="M1969 3043 c0 -27 -3 -57 -6 -68 -13 -54 -7 -88 20 -111 24 -20 31
-22 48 -11 19 11 18 12 -11 15 -38 4 -43 21 -38 136 2 47 0 86 -4 86 -5 0 -8
-21 -9 -47z"/>
<path d="M3131 3046 c-1 -29 2 -37 10 -29 8 8 8 19 1 40 -10 28 -10 28 -11
-11z"/>
<path d="M2089 3040 c25 -21 41 -26 41 -12 0 9 -44 32 -58 32 -4 -1 4 -10 17
-20z"/>
<path d="M4571 3044 c0 -11 3 -14 6 -6 3 7 2 16 -1 19 -3 4 -6 -2 -5 -13z"/>
<path d="M2968 3033 c-21 -9 -38 -19 -38 -24 0 -11 54 6 82 25 28 20 6 19 -44
-1z"/>
<path d="M551 3024 c0 -11 3 -14 6 -6 3 7 2 16 -1 19 -3 4 -6 -2 -5 -13z"/>
<path d="M2057 3006 c3 -14 11 -27 19 -30 12 -5 12 0 -1 24 -19 36 -24 38 -18
6z"/>
<path d="M2153 3023 c9 -2 25 -2 35 0 9 3 1 5 -18 5 -19 0 -27 -2 -17 -5z"/>
<path d="M3050 3011 c-12 -24 -13 -34 -1 -27 9 6 22 46 15 46 -2 0 -8 -9 -14
-19z"/>
<path d="M3720 2974 c-41 -24 -78 -45 -83 -47 -5 -1 1 -32 13 -67 12 -36 31
-100 41 -144 23 -94 42 -133 33 -66 -4 25 -11 53 -15 62 -5 9 -9 28 -9 42 0
14 -4 28 -10 31 -5 3 -10 17 -10 30 0 13 -4 26 -9 29 -14 9 -20 60 -9 74 16
19 38 14 48 -10 8 -21 9 -19 9 11 1 19 4 31 8 28 3 -4 17 2 29 14 12 12 28 19
34 17 14 -4 41 -76 31 -82 -3 -2 -27 -7 -54 -11 l-47 -7 6 -37 c9 -48 12 -52
37 -46 12 3 40 7 62 9 45 5 45 2 14 107 -10 36 -19 76 -19 88 0 29 -13 26
-100 -25z m112 -118 c13 -23 8 -26 -38 -29 -33 -2 -39 1 -42 20 -2 16 3 22 20
25 37 6 50 3 60 -16z"/>
<path d="M541 2974 c0 -11 3 -14 6 -6 3 7 2 16 -1 19 -3 4 -6 -2 -5 -13z"/>
<path d="M3144 2942 c1 -45 -19 -76 -46 -69 -11 3 -18 0 -18 -10 0 -19 37 -8
68 21 18 16 22 28 18 51 -10 46 -24 51 -22 7z"/>
<path d="M2998 2945 c-20 -26 -22 -35 -10 -35 9 0 35 50 30 55 -2 2 -11 -7
-20 -20z"/>
<path d="M3042 2950 c0 -14 2 -19 5 -12 2 6 2 18 0 25 -3 6 -5 1 -5 -13z"/>
<path d="M320 2939 c0 -5 5 -7 10 -4 6 3 10 8 10 11 0 2 -4 4 -10 4 -5 0 -10
-5 -10 -11z"/>
<path d="M1412 2939 c5 -14 9 -15 49 -18 11 0 17 -5 14 -11 -3 -5 0 -7 9 -4 8
3 17 12 20 20 4 10 -3 14 -28 14 -19 0 -42 3 -52 7 -12 4 -15 2 -12 -8z"/>
<path d="M3870 2941 c0 -7 4 -20 9 -29 5 -9 11 -50 14 -90 5 -82 17 -109 17
-40 0 57 -17 149 -30 162 -7 7 -10 6 -10 -3z"/>
<path d="M2112 2905 c0 -16 2 -22 5 -12 2 9 2 23 0 30 -3 6 -5 -1 -5 -18z"/>
<path d="M2541 2914 c0 -11 3 -14 6 -6 3 7 2 16 -1 19 -3 4 -6 -2 -5 -13z"/>
<path d="M3045 2907 c-4 -10 -5 -21 -1 -24 10 -10 18 4 13 24 -4 17 -4 17 -12
0z"/>
<path d="M2827 2855 c-27 -30 -84 -82 -128 -116 -78 -59 -108 -97 -49 -63 16
10 33 14 37 10 4 -4 0 -12 -10 -17 -18 -10 -24 -39 -8 -39 14 0 36 25 73 78
17 26 50 70 73 97 33 41 72 105 62 105 -1 0 -24 -25 -50 -55z"/>
<path d="M2240 2874 c14 -15 48 -52 76 -80 28 -28 60 -66 72 -85 26 -43 70
-85 79 -76 4 4 1 13 -5 19 -15 15 -16 42 -2 33 6 -4 8 -11 5 -16 -3 -5 1 -6 9
-3 9 3 16 9 16 14 0 13 -39 42 -49 36 -5 -4 -16 2 -23 11 -13 18 -99 97 -149
139 -42 35 -55 39 -29 8z"/>
<path d="M2947 2893 c-12 -11 -8 -23 8 -23 8 0 15 7 15 15 0 16 -12 20 -23 8z"/>
<path d="M1455 2843 c-9 -26 -21 -57 -26 -68 -13 -31 -31 -140 -27 -161 2 -10
14 31 27 91 13 61 30 125 37 144 8 19 12 36 10 38 -2 2 -12 -17 -21 -44z"/>
<path d="M2060 2879 c0 -5 5 -7 10 -4 6 3 10 8 10 11 0 2 -4 4 -10 4 -5 0 -10
-5 -10 -11z"/>
<path d="M2530 2838 c0 -25 -3 -73 -7 -108 -5 -49 -3 -61 6 -56 7 5 10 15 7
23 -3 8 -1 11 5 8 7 -5 9 21 6 79 -4 91 -17 131 -17 54z"/>
<path d="M2113 2853 c-3 -10 -8 -21 -10 -25 -2 -5 2 -8 9 -8 7 0 14 11 14 25
2 29 -4 33 -13 8z"/>
<path d="M4516 2771 c-16 -31 -23 -171 -8 -171 4 0 8 33 8 74 1 40 7 83 14 96
6 12 9 24 7 27 -3 3 -13 -9 -21 -26z"/>
<path d="M440 2780 c0 -5 5 -10 11 -10 5 0 7 -5 3 -12 -4 -7 -3 -8 4 -4 6 4 9
13 5 21 -6 17 -23 20 -23 5z"/>
<path d="M595 2770 c3 -14 8 -55 12 -92 l6 -67 -44 -4 -44 -4 49 -1 49 -2 -5
78 c-2 42 -10 86 -17 97 -12 19 -12 18 -6 -5z"/>
<path d="M1209 2758 c-3 -22 -1 -34 4 -29 5 5 7 21 5 37 -3 27 -4 26 -9 -8z"/>
<path d="M1930 2765 c-95 -44 -119 -58 -140 -87 -15 -20 -16 -26 -5 -22 8 4
15 10 15 15 0 5 32 25 70 43 39 19 70 32 70 29 0 -2 7 3 16 11 21 21 48 21 40
0 -3 -9 -6 -19 -6 -24 0 -13 -68 -80 -81 -80 -7 0 -10 -3 -7 -6 23 -22 128 90
128 137 0 16 -44 9 -100 -16z"/>
<path d="M3080 2782 c0 -15 45 -62 59 -62 11 0 11 3 1 15 -10 12 -9 16 5 21 9
4 21 2 28 -5 6 -6 18 -11 27 -11 8 0 23 -9 33 -20 10 -12 22 -18 27 -15 10 6
-11 35 -25 35 -4 0 -21 6 -38 14 -37 16 -96 36 -108 36 -5 0 -9 -4 -9 -8z"/>
<path d="M4637 2763 c-11 -11 -8 -20 7 -20 8 0 12 6 9 14 -6 15 -7 15 -16 6z"/>
<path d="M420 2750 c-8 -5 -12 -12 -9 -15 4 -3 12 1 19 10 14 17 11 19 -10 5z"/>
<path d="M1268 2749 c-13 -7 -18 -22 -17 -47 l1 -37 9 33 c5 17 15 33 22 34
36 4 43 3 54 -5 7 -5 11 -19 8 -31 -15 -76 -16 -96 -2 -96 10 0 16 19 20 65 4
36 4 72 1 80 -7 17 -69 20 -96 4z"/>
<path d="M3770 2739 c-12 -22 3 -79 22 -79 5 0 5 8 -1 18 -15 29 -2 62 24 62
13 0 26 -6 28 -12 3 -7 6 -3 6 10 1 19 -4 22 -34 22 -25 0 -37 -6 -45 -21z"/>
<path d="M4686 2697 c3 -10 9 -15 12 -12 3 3 0 11 -7 18 -10 9 -11 8 -5 -6z"/>
<path d="M3160 2685 c7 -9 15 -13 17 -11 7 7 -7 26 -19 26 -6 0 -6 -6 2 -15z"/>
<path d="M3305 2670 c3 -5 11 -10 16 -10 6 0 7 5 4 10 -3 6 -11 10 -16 10 -6
0 -7 -4 -4 -10z"/>
<path d="M1860 2619 c-14 -6 -43 -14 -65 -19 l-40 -8 46 -1 c33 -1 54 5 70 19
27 22 25 23 -11 9z"/>
<path d="M3245 2610 c3 -5 8 -10 11 -10 2 0 4 5 4 10 0 6 -5 10 -11 10 -5 0
-7 -4 -4 -10z"/>
<path d="M4543 2603 c9 -2 25 -2 35 0 9 3 1 5 -18 5 -19 0 -27 -2 -17 -5z"/>
<path d="M433 2593 c9 -2 23 -2 30 0 6 3 -1 5 -18 5 -16 0 -22 -2 -12 -5z"/>
<path d="M1943 2593 c9 -2 25 -2 35 0 9 3 1 5 -18 5 -19 0 -27 -2 -17 -5z"/>
<path d="M2385 2588 c-16 -5 -147 -13 -290 -19 -143 -5 -261 -11 -263 -13 -1
-2 116 -6 260 -8 163 -4 274 -10 292 -17 30 -12 66 -7 66 10 0 5 -26 9 -57 10
l-58 1 40 9 c42 10 63 23 48 31 -4 3 -21 1 -38 -4z"/>
<path d="M2684 2589 c-6 -11 7 -17 57 -26 l44 -7 -49 -7 c-76 -12 -86 -33 -12
-25 33 4 64 11 70 15 6 5 61 9 121 10 299 1 389 3 380 7 -5 2 -120 8 -255 14
-135 5 -269 14 -298 18 -29 5 -55 5 -58 1z"/>
<path d="M3153 2593 c9 -2 25 -2 35 0 9 3 1 5 -18 5 -19 0 -27 -2 -17 -5z"/>
<path d="M3278 2593 c7 -3 16 -2 19 1 4 3 -2 6 -13 5 -11 0 -14 -3 -6 -6z"/>
<path d="M3348 2583 c7 -3 16 -2 19 1 4 3 -2 6 -13 5 -11 0 -14 -3 -6 -6z"/>
<path d="M3388 2583 c6 -2 18 -2 25 0 6 3 1 5 -13 5 -14 0 -19 -2 -12 -5z"/>
<path d="M1788 2553 c6 -2 18 -2 25 0 6 3 1 5 -13 5 -14 0 -19 -2 -12 -5z"/>
<path d="M609 2525 c-3 -5 -7 -35 -8 -65 -1 -30 -4 -64 -7 -75 -3 -13 1 -10
11 8 11 19 15 46 13 85 -2 31 -6 53 -9 47z"/>
<path d="M1873 2523 c9 -2 17 -11 17 -19 0 -8 7 -14 15 -14 12 0 12 3 -2 20
-10 11 -24 19 -33 19 -11 -1 -11 -2 3 -6z"/>
<path d="M3176 2455 c-70 -66 -119 -135 -96 -135 5 0 10 5 10 10 0 6 17 10 38
10 33 1 35 2 20 14 -10 7 -18 17 -18 22 0 12 119 128 145 142 19 11 19 11 -2
9 -13 -1 -55 -32 -97 -72z"/>
<path d="M1312 2513 c24 -4 27 -8 33 -73 4 -44 3 -75 -4 -89 -12 -22 -31 -29
-31 -11 0 6 -7 10 -15 10 -8 0 -16 8 -16 18 -1 9 -3 28 -4 42 -1 14 2 28 8 32
17 10 3 20 -18 12 -15 -6 -16 -15 -11 -62 8 -68 19 -82 61 -82 50 0 59 18 52
111 -4 44 -9 84 -12 90 -4 5 -21 8 -38 8 -29 -2 -29 -2 -5 -6z"/>
<path d="M4500 2465 c0 -51 24 -125 41 -125 4 0 1 12 -7 28 -8 15 -14 55 -14
90 0 34 -4 62 -10 62 -5 0 -10 -25 -10 -55z"/>
<path d="M1401 2475 c0 -22 4 -49 9 -60 7 -15 9 -8 8 27 -1 27 -5 54 -10 60
-4 8 -7 -3 -7 -27z"/>
<path d="M3920 2494 c0 -8 5 -12 10 -9 6 3 10 10 10 16 0 5 -4 9 -10 9 -5 0
-10 -7 -10 -16z"/>
<path d="M2650 2487 c0 -9 5 -19 10 -22 6 -3 10 -13 10 -22 0 -12 -3 -13 -15
-3 -20 16 -37 9 -22 -10 7 -8 39 -38 71 -65 33 -28 80 -69 105 -92 24 -24 49
-43 54 -43 12 0 -4 20 -69 84 -27 28 -60 72 -72 97 -26 53 -72 102 -72 76z"/>
<path d="M2412 2444 c-24 -26 -50 -61 -58 -79 -7 -18 -46 -63 -86 -99 -124
-113 -54 -75 89 48 44 39 98 86 120 104 l38 33 -32 -6 c-26 -5 -33 -3 -33 10
0 9 5 13 10 10 6 -3 10 1 10 9 0 25 -10 19 -58 -30z"/>
<path d="M3697 2427 c-3 -34 -9 -71 -13 -82 -5 -13 -4 -17 3 -10 6 6 15 37 22
69 13 71 14 86 2 86 -4 0 -11 -28 -14 -63z"/>
<path d="M3844 2408 c5 -50 3 -59 -15 -68 -21 -12 -59 -5 -59 10 0 5 4 19 8
32 5 13 6 34 2 48 -5 20 -8 14 -20 -34 -14 -57 -13 -59 9 -77 30 -25 56 -24
82 2 18 18 21 30 17 71 -3 27 -11 55 -17 61 -9 9 -11 -1 -7 -45z"/>
<path d="M3806 2434 c-5 -14 -4 -15 9 -4 17 14 19 20 6 20 -5 0 -12 -7 -15
-16z"/>
<path d="M4699 2443 c-2 -13 -6 -28 -8 -33 -7 -14 -7 -50 0 -50 8 0 18 44 17
73 -1 17 -7 24 -9 10z"/>
<path d="M2571 2373 c0 -38 4 -88 8 -113 7 -36 9 -22 10 68 1 69 -3 112 -9
112 -6 0 -10 -29 -9 -67z"/>
<path d="M422 2410 c6 -36 26 -70 43 -70 22 0 18 13 -16 56 -27 34 -30 36 -27
14z"/>
<path d="M3916 2414 c-4 -9 -4 -19 -1 -22 2 -3 7 3 11 12 4 9 4 19 1 22 -2 3
-7 -3 -11 -12z"/>
<path d="M3270 2410 c0 -5 -5 -10 -12 -10 -19 0 -88 -33 -88 -43 0 -4 3 -6 8
-4 4 2 28 13 55 25 26 12 47 27 47 32 0 6 -2 10 -5 10 -3 0 -5 -4 -5 -10z"/>
<path d="M1979 2391 c15 -27 14 -34 -4 -27 -8 3 -15 1 -15 -5 0 -11 50 -32 58
-25 10 11 -9 56 -29 66 -19 10 -20 10 -10 -9z"/>
<path d="M1880 2386 c19 -17 74 -31 65 -16 -3 5 -17 10 -31 10 -13 0 -24 5
-24 10 0 6 -5 10 -12 10 -8 0 -8 -4 2 -14z"/>
<path d="M1422 2370 c0 -8 4 -26 8 -40 6 -20 8 -21 8 -5 0 11 -3 29 -8 40 -5
12 -8 14 -8 5z"/>
<path d="M4655 2350 c3 -5 8 -10 11 -10 2 0 4 5 4 10 0 6 -5 10 -11 10 -5 0
-7 -4 -4 -10z"/>
<path d="M2990 2330 c0 -5 5 -10 10 -10 6 0 10 5 10 10 0 6 -4 10 -10 10 -5 0
-10 -4 -10 -10z"/>
<path d="M3901 2278 c-6 -35 -13 -74 -16 -88 -3 -14 1 -8 10 13 15 41 31 137
22 137 -3 0 -10 -28 -16 -62z"/>
<path d="M3671 2294 c0 -11 3 -14 6 -6 3 7 2 16 -1 19 -3 4 -6 -2 -5 -13z"/>
<path d="M1447 2279 c4 -13 8 -18 11 -10 2 7 -1 18 -6 23 -8 8 -9 4 -5 -13z"/>
<path d="M1330 2270 c-14 -4 -40 -8 -59 -9 -32 -1 -33 -2 -18 -19 9 -9 20 -29
26 -42 10 -24 10 -24 10 7 1 30 4 32 47 39 37 5 47 3 59 -12 18 -25 3 -52 -40
-70 -19 -7 -36 -18 -40 -24 -11 -18 -27 -10 -22 11 4 16 3 18 -8 9 -12 -10 -8
-36 11 -68 1 -2 33 18 70 44 38 26 70 48 72 50 2 1 -7 22 -20 48 -23 48 -35
53 -88 36z"/>
<path d="M3050 2249 c0 -24 23 -21 28 4 2 10 -3 17 -12 17 -10 0 -16 -9 -16
-21z"/>
<path d="M2000 2250 c0 -5 -6 -10 -13 -10 -16 0 -37 -41 -37 -70 0 -11 5 -20
10 -20 6 0 10 13 10 29 0 20 9 37 31 55 20 17 25 26 15 26 -9 0 -16 -4 -16
-10z"/>
<path d="M3108 2253 c7 -3 16 -2 19 1 4 3 -2 6 -13 5 -11 0 -14 -3 -6 -6z"/>
<path d="M3646 2245 c-9 -26 -7 -32 5 -12 6 10 9 21 6 23 -2 3 -7 -2 -11 -11z"/>
<path d="M3700 2220 l-20 -39 22 -13 c13 -7 41 -20 63 -29 54 -22 60 -44 9
-35 -27 5 -36 4 -29 -3 6 -6 25 -13 42 -17 29 -6 31 -4 47 37 9 24 22 65 30
92 l14 47 -79 0 -79 0 -20 -40z m145 -2 c-10 -37 -27 -78 -32 -78 -11 0 -61
30 -72 44 -7 9 -17 13 -22 10 -5 -3 -4 6 3 20 10 24 17 26 70 26 57 0 59 -1
53 -22z"/>
<path d="M1460 2241 c0 -5 5 -13 10 -16 6 -3 10 -2 10 4 0 5 -4 13 -10 16 -5
3 -10 2 -10 -4z"/>
<path d="M3134 2127 c-1 -121 9 -103 21 35 5 61 3 78 -7 78 -10 0 -13 -28 -14
-113z"/>
<path d="M3036 2211 c-4 -7 -5 -15 -2 -18 9 -9 19 4 14 18 -4 11 -6 11 -12 0z"/>
<path d="M2593 2175 c0 -22 2 -30 4 -17 2 12 2 30 0 40 -3 9 -5 -1 -4 -23z"/>
<path d="M3621 2188 c-7 -11 -10 -23 -7 -26 3 -3 6 0 6 6 0 7 6 12 14 12 20 0
29 17 13 23 -8 3 -19 -4 -26 -15z"/>
<path d="M331 2184 c0 -11 3 -14 6 -6 3 7 2 16 -1 19 -3 4 -6 -2 -5 -13z"/>
<path d="M1465 2190 c-3 -5 3 -10 15 -10 12 0 18 5 15 10 -3 6 -10 10 -15 10
-5 0 -12 -4 -15 -10z"/>
<path d="M2095 2175 c-4 -16 -12 -35 -17 -41 -9 -13 -20 -54 -13 -54 10 0 46
90 43 106 -4 15 -7 13 -13 -11z"/>
<path d="M2867 2147 c-19 -47 -22 -71 -7 -62 6 4 8 10 5 15 -3 5 1 15 9 22 18
18 29 55 19 61 -5 3 -16 -13 -26 -36z"/>
<path d="M3862 2133 c-5 -15 -13 -36 -17 -45 -4 -10 -3 -18 2 -18 11 0 37 79
30 86 -3 3 -9 -8 -15 -23z"/>
<path d="M541 2124 c0 -11 3 -14 6 -6 3 7 2 16 -1 19 -3 4 -6 -2 -5 -13z"/>
<path d="M1420 2095 c-52 -24 -103 -44 -112 -44 -25 -1 -23 -12 20 -92 20 -40
43 -84 51 -100 17 -34 27 -37 27 -10 0 11 -3 18 -6 16 -9 -6 -92 154 -85 165
15 23 36 6 74 -62 22 -40 44 -79 49 -87 8 -10 22 -7 76 18 37 17 78 31 92 31
29 0 29 1 1 42 -12 19 -36 64 -52 101 -17 36 -32 66 -35 66 -3 -1 -48 -21
-100 -44z m116 -27 c10 -23 29 -58 42 -76 26 -39 25 -40 -9 -44 -18 -2 -23 1
-21 15 4 25 -17 21 -67 -13 l-45 -29 -32 56 c-28 50 -36 91 -14 78 4 -2 15 2
26 9 10 8 24 12 30 9 7 -2 22 5 33 16 29 29 35 27 57 -21z m-6 -129 c0 -5 -4
-8 -9 -5 -5 3 -12 -1 -15 -10 -4 -9 -9 -14 -13 -11 -3 4 -12 2 -20 -4 -9 -8
-13 -8 -13 -1 0 13 40 42 57 42 7 0 13 -5 13 -11z"/>
<path d="M1473 2036 c4 -10 7 -22 7 -27 0 -5 4 -9 9 -9 12 0 2 38 -12 47 -7 4
-8 0 -4 -11z"/>
<path d="M2220 2115 c-10 -12 -10 -15 4 -15 9 0 16 -8 16 -17 0 -10 5 -25 11
-33 8 -11 9 -5 5 24 -7 48 -19 62 -36 41z"/>
<path d="M2585 2110 c-3 -5 -1 -10 4 -10 6 0 11 5 11 10 0 6 -2 10 -4 10 -3 0
-8 -4 -11 -10z"/>
<path d="M3550 2036 c-24 -47 -42 -86 -40 -88 3 -2 21 -11 40 -21 19 -10 51
-29 69 -43 19 -13 42 -23 50 -22 19 3 115 189 103 199 -5 5 -167 59 -175 59
-1 0 -22 -38 -47 -84z m135 33 c73 -24 73 -26 32 -97 -46 -79 -52 -84 -81 -71
-28 13 -36 39 -11 39 8 0 15 5 15 10 0 13 -37 13 -46 -1 -4 -8 -9 -8 -17 0 -6
6 -19 11 -29 11 -16 0 -14 8 14 65 18 36 38 65 45 65 7 0 42 -10 78 -21z"/>
<path d="M2178 2103 c7 -3 16 -2 19 1 4 3 -2 6 -13 5 -11 0 -14 -3 -6 -6z"/>
<path d="M4563 2048 c-7 -34 -10 -64 -8 -66 5 -6 28 104 24 117 -3 7 -10 -16
-16 -51z"/>
<path d="M457 2071 c-57 -34 -70 -46 -40 -39 12 3 22 3 21 -1 -2 -18 3 -31 13
-31 6 0 9 7 5 15 -6 17 27 55 48 55 9 0 17 -16 21 -42 8 -46 34 -111 35 -88 2
26 73 -164 73 -193 0 -16 3 -23 7 -17 4 7 16 -5 30 -32 12 -24 56 -95 98 -158
76 -114 114 -183 72 -130 -11 14 -36 50 -56 80 -20 30 -45 66 -55 80 -11 14
-33 51 -50 84 -17 32 -32 56 -35 54 -6 -6 50 -127 70 -153 31 -39 64 -93 71
-116 4 -13 13 -27 19 -31 8 -6 7 -8 -1 -8 -7 0 -13 -4 -13 -10 0 -5 10 -8 23
-6 12 2 27 -1 33 -6 8 -5 14 -3 18 8 6 16 -3 32 -85 156 -57 86 -134 236 -169
331 -18 48 -36 87 -40 87 -4 0 -16 32 -25 70 -9 39 -22 70 -29 69 -6 0 -32
-13 -59 -28z"/>
<path d="M2117 2081 c-38 -25 -43 -31 -24 -31 8 0 22 7 30 15 8 8 18 11 22 7
5 -4 5 -2 2 5 -4 6 -1 14 5 16 7 3 9 5 3 5 -5 1 -22 -7 -38 -17z"/>
<path d="M4598 2063 c-11 -76 -189 -503 -210 -503 -12 0 -10 5 12 46 12 20 19
38 17 40 -2 2 -14 -15 -27 -39 -13 -23 -41 -66 -62 -96 -21 -30 -38 -63 -38
-73 0 -12 -4 -16 -12 -12 -7 4 -8 3 -4 -4 4 -6 0 -24 -8 -40 -9 -17 -11 -34
-6 -42 10 -15 20 -10 24 12 1 7 7 23 14 35 7 12 12 29 12 37 0 9 6 16 13 16 7
0 21 12 32 27 11 14 33 39 48 55 17 16 27 35 23 43 -3 8 -2 15 3 15 8 0 81
161 81 179 0 5 6 16 13 23 12 13 87 227 87 250 1 34 16 38 58 18 23 -11 42
-25 42 -30 0 -6 5 -10 10 -10 6 0 10 6 10 14 0 14 -93 76 -114 76 -8 0 -16
-16 -18 -37z m-239 -558 c-13 -25 -27 -45 -31 -45 -12 0 -9 10 10 38 10 15 22
36 26 46 3 10 9 16 13 13 3 -4 -5 -27 -18 -52z"/>
<path d="M551 2074 c0 -11 3 -14 6 -6 3 7 2 16 -1 19 -3 4 -6 -2 -5 -13z"/>
<path d="M1979 2060 c-7 -35 -4 -48 7 -38 3 4 4 21 2 40 l-3 33 -6 -35z"/>
<path d="M1270 2070 c0 -5 5 -10 11 -10 5 0 7 5 4 10 -3 6 -8 10 -11 10 -2 0
-4 -4 -4 -10z"/>
<path d="M2985 2070 c3 -5 14 -10 23 -10 15 0 15 2 2 10 -20 13 -33 13 -25 0z"/>
<path d="M2760 2059 c0 -5 5 -7 10 -4 6 3 10 8 10 11 0 2 -4 4 -10 4 -5 0 -10
-5 -10 -11z"/>
<path d="M2825 2030 c-10 -22 -16 -43 -13 -46 3 -2 13 14 22 37 22 54 15 61
-9 9z"/>
<path d="M480 2050 c-12 -7 -10 -9 7 -7 12 0 19 5 17 9 -6 10 -6 10 -24 -2z"/>
<path d="M3794 2043 c-4 -10 -26 -59 -50 -110 -24 -51 -44 -98 -44 -105 0 -8
-7 -24 -16 -36 -9 -13 -14 -26 -11 -29 7 -7 40 45 42 65 1 18 65 141 102 198
22 33 22 34 2 34 -11 0 -22 -8 -25 -17z"/>
<path d="M561 2034 c0 -11 3 -14 6 -6 3 7 2 16 -1 19 -3 4 -6 -2 -5 -13z"/>
<path d="M2260 2018 c0 -18 18 -34 28 -24 3 4 -2 14 -11 23 -16 16 -17 16 -17
1z"/>
<path d="M571 1994 c0 -11 3 -14 6 -6 3 7 2 16 -1 19 -3 4 -6 -2 -5 -13z"/>
<path d="M390 1995 c0 -15 76 -197 118 -283 74 -149 167 -312 178 -312 3 0 -7
21 -22 48 -15 26 -43 76 -62 112 -19 36 -38 70 -42 75 -12 15 -139 303 -146
331 -6 22 -24 44 -24 29z"/>
<path d="M4711 1963 c-15 -46 -75 -189 -106 -258 -72 -156 -92 -193 -208 -364
-76 -113 -90 -120 -138 -71 -28 28 -30 28 -27 8 3 -23 64 -71 82 -65 20 6 173
237 249 376 51 93 171 385 165 402 -2 6 -9 -7 -17 -28z"/>
<path d="M2188 1983 c7 -3 16 -2 19 1 4 3 -2 6 -13 5 -11 0 -14 -3 -6 -6z"/>
<path d="M4648 1970 c-7 -24 -3 -38 8 -28 3 4 4 17 2 30 l-3 23 -7 -25z"/>
<path d="M2320 1957 c0 -8 9 -26 20 -39 11 -14 24 -37 30 -52 5 -14 17 -26 26
-26 16 0 16 1 1 18 -10 10 -17 26 -17 35 0 9 -4 17 -10 17 -5 0 -10 9 -10 20
0 10 -9 24 -20 30 -16 8 -20 8 -20 -3z"/>
<path d="M2736 1952 c-3 -5 1 -15 8 -21 12 -10 10 -20 -12 -64 -15 -29 -50
-81 -79 -116 -29 -36 -53 -74 -52 -85 0 -19 2 -18 12 4 12 24 29 49 55 75 6 8
12 16 12 19 0 2 14 20 31 38 17 18 44 59 59 91 27 55 28 58 8 51 -12 -3 -24
-1 -28 6 -5 8 -10 8 -14 2z"/>
<path d="M2195 1930 c-19 -8 -19 -9 2 -9 12 -1 25 4 28 9 7 12 -2 12 -30 0z"/>
<path d="M2875 1930 c3 -5 18 -10 33 -9 24 0 25 1 7 9 -28 12 -47 12 -40 0z"/>
<path d="M470 1910 c0 -11 4 -20 9 -20 5 0 7 9 4 20 -3 11 -7 20 -9 20 -2 0
-4 -9 -4 -20z"/>
<path d="M4625 1920 c-3 -5 -2 -10 4 -10 5 0 13 5 16 10 3 6 2 10 -4 10 -5 0
-13 -4 -16 -10z"/>
<path d="M4667 1923 c-4 -3 -7 -11 -7 -17 0 -6 5 -5 12 2 6 6 9 14 7 17 -3 3
-9 2 -12 -2z"/>
<path d="M558 1915 c-8 -8 2 -45 13 -45 5 0 6 -6 3 -14 -3 -8 -1 -17 5 -21 11
-6 10 14 -2 45 -3 8 -7 21 -9 28 -2 7 -6 10 -10 7z"/>
<path d="M3481 1897 c-6 -14 -15 -28 -20 -32 -6 -3 -11 -14 -11 -23 0 -11 9
-4 22 18 12 19 26 38 31 41 5 4 4 10 -2 13 -6 4 -15 -3 -20 -17z"/>
<path d="M4605 1891 c-6 -11 9 -23 19 -14 9 9 7 23 -3 23 -6 0 -12 -4 -16 -9z"/>
<path d="M1518 1875 c-24 -13 -26 -18 -18 -46 11 -36 37 -69 56 -69 28 0 64
24 64 42 0 23 -48 88 -64 88 -6 -1 -23 -7 -38 -15z m54 -25 c6 0 7 -7 4 -16
-3 -8 -2 -13 3 -10 10 6 25 -24 16 -32 -3 -3 -10 -1 -16 5 -6 6 -17 9 -23 7
-14 -5 -39 33 -30 47 3 6 13 8 21 5 8 -3 19 -6 25 -6z"/>
<path d="M3526 1859 c-50 -59 -45 -79 24 -99 29 -8 38 -7 51 8 28 29 31 57 9
84 -30 39 -56 41 -84 7z m78 -27 c11 -17 -7 -52 -26 -52 -28 0 -58 18 -58 35
0 23 40 46 61 34 10 -5 20 -13 23 -17z"/>
<path d="M4643 1875 c-3 -9 -3 -18 -1 -21 3 -3 8 4 11 16 6 23 -1 27 -10 5z"/>
<path d="M2038 1863 c12 -2 30 -2 40 0 9 3 -1 5 -23 4 -22 0 -30 -2 -17 -4z"/>
<path d="M2503 1820 c0 -25 2 -35 4 -22 2 12 2 32 0 45 -2 12 -4 2 -4 -23z"/>
<path d="M506 1841 c-9 -13 70 -219 80 -209 4 4 -6 35 -51 163 -20 58 -21 60
-29 46z"/>
<path d="M4613 1838 c-9 -12 -22 -42 -23 -53 0 -11 -115 -230 -123 -236 -5 -3
-14 -17 -21 -30 -7 -13 -22 -41 -34 -61 -21 -37 -19 -46 4 -30 33 21 198 328
210 390 7 34 3 40 -13 20z"/>
<path d="M579 1818 c0 -2 -3 -18 -5 -35 -4 -24 -1 -33 9 -33 17 0 29 -24 21
-44 -3 -8 -1 -17 5 -20 6 -4 8 -13 5 -20 -6 -16 34 -126 46 -126 5 0 15 -7 24
-15 13 -13 15 -12 14 15 -1 25 -5 30 -25 30 -23 0 -28 11 -24 58 1 12 -2 22
-6 22 -5 0 -10 11 -11 24 -1 13 -7 37 -14 52 -11 27 -16 48 -20 82 -1 10 -16
18 -19 10z"/>
<path d="M1410 1814 c0 -8 80 -114 87 -114 2 0 -4 14 -14 30 -20 34 -73 95
-73 84z"/>
<path d="M2400 1811 c0 -10 53 -78 80 -101 11 -9 17 -20 13 -24 -3 -3 -1 -6 5
-6 22 0 12 21 -33 69 -25 26 -45 53 -45 60 0 6 -4 11 -10 11 -5 0 -10 -4 -10
-9z"/>
<path d="M1622 1740 c0 -14 2 -19 5 -12 2 6 2 18 0 25 -3 6 -5 1 -5 -13z"/>
<path d="M3629 1721 c-15 -15 -34 -38 -44 -53 -9 -16 -22 -28 -27 -28 -5 0 -6
5 -2 12 4 7 3 8 -5 4 -6 -4 -9 -12 -6 -17 8 -11 35 -12 35 0 0 4 19 29 41 55
45 51 50 67 8 27z"/>
<path d="M1521 1663 c13 -16 25 -30 27 -32 1 -2 5 -2 8 1 7 8 -36 58 -50 58
-5 0 1 -12 15 -27z"/>
<path d="M3325 1670 c-3 -5 -1 -10 4 -10 6 0 11 5 11 10 0 6 -2 10 -4 10 -3 0
-8 -4 -11 -10z"/>
<path d="M1804 1627 c-3 -12 -20 -42 -36 -66 -30 -44 -29 -75 1 -33 9 13 30
40 48 61 30 35 31 38 13 49 -16 10 -20 8 -26 -11z"/>
<path d="M3286 1638 c-17 -9 -14 -14 30 -59 27 -27 52 -49 56 -49 16 0 7 22
-19 48 -16 15 -32 37 -38 49 -8 18 -13 20 -29 11z"/>
<path d="M1953 1586 c15 -12 17 -22 12 -48 l-8 -33 20 24 c18 22 22 23 54 12
59 -20 71 -34 58 -70 -6 -17 -13 -31 -16 -31 -14 0 -103 44 -103 51 0 24 -18
3 -38 -43 -18 -42 -20 -55 -10 -61 7 -4 37 -21 66 -38 31 -17 52 -36 52 -47 1
-19 30 -62 30 -43 0 7 5 9 10 6 6 -3 10 -2 10 4 0 5 -9 13 -20 16 -16 5 -19
12 -14 33 13 53 46 147 60 169 17 26 17 33 4 33 -5 0 -40 15 -77 33 -38 18
-77 36 -88 40 -19 7 -19 6 -2 -7z m95 -187 c5 -45 -10 -52 -58 -27 -50 27 -54
35 -40 72 l10 28 43 -25 c28 -17 43 -33 45 -48z"/>
<path d="M1670 1568 c0 -7 14 -21 30 -30 38 -21 38 -18 0 15 -17 15 -30 22
-30 15z"/>
<path d="M3135 1570 c-4 -6 1 -25 10 -42 15 -31 15 -33 -7 -50 -13 -10 -27
-18 -33 -18 -5 0 -21 -9 -35 -20 -34 -27 -41 -25 -68 14 l-23 34 -69 -28 c-97
-40 -111 -49 -77 -47 15 1 27 5 27 9 0 7 111 51 115 46 5 -6 25 -47 25 -51 0
-2 -6 -4 -12 -5 -7 0 -42 -9 -78 -20 -53 -16 -64 -23 -62 -38 2 -11 4 -40 5
-67 2 -47 2 -47 31 -41 38 8 133 51 140 63 3 5 15 7 26 4 13 -4 29 2 43 15 12
11 46 32 74 46 48 24 52 28 41 46 -14 22 -33 27 -25 7 7 -18 -48 -50 -77 -45
-19 4 -22 1 -18 -19 3 -16 -1 -23 -12 -24 -24 -2 -29 -4 -54 -18 -31 -17 -135
-51 -141 -46 -2 3 -5 22 -7 44 -2 37 -1 39 29 45 18 3 45 13 61 21 16 9 49 16
73 17 24 2 43 6 43 10 0 13 80 59 90 53 13 -8 13 11 -1 36 -6 11 -11 33 -11
50 -1 29 -11 38 -23 19z"/>
<path d="M3061 1542 c-53 -27 -81 -58 -47 -50 10 1 17 7 16 12 -1 5 17 17 38
26 22 10 43 23 46 29 9 14 10 15 -53 -17z"/>
<path d="M3400 1560 c-13 -8 -12 -10 3 -10 9 0 17 5 17 10 0 12 -1 12 -20 0z"/>
<path d="M1851 1523 c-39 -47 -39 -68 0 -88 32 -17 59 -14 59 5 0 6 -4 8 -10
5 -14 -8 -50 13 -50 30 0 16 11 24 40 30 18 3 25 -6 21 -28 -1 -5 3 -6 9 -2
17 11 11 39 -14 63 l-24 22 -31 -37z"/>
<path d="M3201 1529 c-18 -17 -20 -23 -9 -37 7 -10 14 -19 16 -22 2 -3 2 4 0
15 -2 15 3 21 22 23 14 1 32 -2 40 -8 22 -14 -1 -45 -33 -45 -21 1 -24 -2 -16
-17 14 -26 29 -22 68 14 l34 32 -38 33 c-45 39 -54 40 -84 12z"/>
<path d="M2170 1480 c0 -11 50 -34 57 -26 3 2 -9 12 -26 21 -18 9 -31 11 -31
5z"/>
<path d="M686 1465 c4 -8 8 -15 10 -15 2 0 4 7 4 15 0 8 -4 15 -10 15 -5 0 -7
-7 -4 -15z"/>
<path d="M430 1444 c0 -8 5 -12 10 -9 6 4 8 11 5 16 -9 14 -15 11 -15 -7z"/>
<path d="M1034 1439 c-3 -5 8 -9 25 -9 16 0 38 -3 48 -7 10 -3 15 -3 11 1 -11
13 -78 25 -84 15z"/>
<path d="M2245 1440 c3 -5 14 -10 23 -10 15 0 15 2 2 10 -20 13 -33 13 -25 0z"/>
<path d="M4680 1440 c0 -5 5 -10 11 -10 5 0 7 5 4 10 -3 6 -8 10 -11 10 -2 0
-4 -4 -4 -10z"/>
<path d="M710 1430 c0 -5 5 -10 11 -10 5 0 7 5 4 10 -3 6 -8 10 -11 10 -2 0
-4 -4 -4 -10z"/>
<path d="M2146 1423 c-6 -14 -5 -15 5 -6 7 7 10 15 7 18 -3 3 -9 -2 -12 -12z"/>
<path d="M4015 1430 c-3 -5 -1 -10 4 -10 6 0 11 5 11 10 0 6 -2 10 -4 10 -3 0
-8 -4 -11 -10z"/>
<path d="M4058 1433 c6 -2 18 -2 25 0 6 3 1 5 -13 5 -14 0 -19 -2 -12 -5z"/>
<path d="M2290 1420 c0 -5 5 -10 10 -10 6 0 10 5 10 10 0 6 -4 10 -10 10 -5 0
-10 -4 -10 -10z"/>
<path d="M3905 1420 c-3 -5 1 -10 9 -10 9 0 16 5 16 10 0 6 -4 10 -9 10 -6 0
-13 -4 -16 -10z"/>
<path d="M4103 1408 c-31 -15 -29 -25 6 -30 19 -3 32 1 39 13 18 29 -4 37 -45
17z"/>
<path d="M966 1394 c-9 -24 2 -34 37 -34 l32 1 -25 15 c-22 12 -22 14 -5 13
35 -2 46 1 40 11 -10 17 -72 12 -79 -6z"/>
<path d="M1213 1403 c9 -2 23 -2 30 0 6 3 -1 5 -18 5 -16 0 -22 -2 -12 -5z"/>
<path d="M2164 1385 c-23 -23 -54 -82 -54 -103 0 -5 28 -15 63 -21 34 -7 73
-15 86 -18 19 -5 22 -3 15 8 -5 8 -9 40 -9 72 0 46 -4 62 -20 73 -28 21 -53
17 -81 -11z m77 -28 c1 -7 3 -29 4 -49 4 -34 2 -38 -20 -38 -19 0 -65 14 -83
26 -6 4 19 48 41 71 15 17 24 20 38 12 11 -5 19 -15 20 -22z"/>
<path d="M3960 1399 c0 -5 5 -7 10 -4 6 3 10 8 10 11 0 2 -4 4 -10 4 -5 0 -10
-5 -10 -11z"/>
<path d="M4037 1399 c-9 -5 -22 -7 -27 -4 -6 3 -7 -1 -4 -9 4 -11 0 -16 -14
-16 -31 0 -46 -25 -27 -44 20 -19 18 -19 50 -4 22 10 25 16 20 40 -6 24 -3 28
14 28 12 0 21 5 21 10 0 13 -10 12 -33 -1z m-28 -60 c-18 -11 -39 -11 -39 0 0
11 31 20 44 13 4 -2 2 -8 -5 -13z"/>
<path d="M1078 1376 c-6 -31 29 -50 67 -36 33 13 32 36 -2 44 -16 4 -35 9 -44
12 -12 3 -18 -3 -21 -20z"/>
<path d="M3288 1393 c7 -3 16 -2 19 1 4 3 -2 6 -13 5 -11 0 -14 -3 -6 -6z"/>
<path d="M1187 1357 c7 -38 93 -76 93 -41 0 23 -4 29 -19 26 -7 -2 -10 1 -6 7
3 6 -5 15 -20 21 -41 16 -53 13 -48 -13z m40 -3 c-3 -3 -12 -4 -19 -1 -8 3 -5
6 6 6 11 1 17 -2 13 -5z"/>
<path d="M3235 1369 c-12 -19 3 -22 27 -5 l22 16 -21 0 c-12 0 -25 -5 -28 -11z"/>
<path d="M3862 1361 c-26 -22 -27 -34 -6 -52 11 -9 17 -10 22 -1 4 6 19 15 33
21 15 5 29 19 32 30 4 18 1 21 -27 21 -18 0 -43 -8 -54 -19z m54 -6 c-11 -8
-22 -12 -25 -9 -6 6 19 24 34 24 6 -1 1 -7 -9 -15z"/>
<path d="M471 1358 c-1 -23 9 -48 21 -48 7 0 7 4 0 13 -5 6 -12 21 -15 32 -3
15 -5 16 -6 3z"/>
<path d="M711 1354 c0 -11 3 -14 6 -6 3 7 2 16 -1 19 -3 4 -6 -2 -5 -13z"/>
<path d="M2330 1353 c-41 -15 -54 -78 -22 -106 24 -22 88 -23 96 -1 10 27 -6
94 -25 104 -19 11 -26 11 -49 3z m56 -48 c12 -49 -13 -68 -57 -45 -18 10 -26
50 -12 63 3 4 19 7 34 7 22 0 30 -6 35 -25z"/>
<path d="M2733 1353 c-16 -6 -17 -50 -2 -92 12 -35 14 -35 57 -20 24 8 33 18
38 44 9 48 -9 75 -49 74 -18 0 -38 -3 -44 -6z m66 -22 c9 -6 11 -18 6 -40 -5
-24 -12 -31 -30 -31 -28 0 -49 32 -40 60 7 21 39 26 64 11z"/>
<path d="M3779 1341 c15 -27 90 -101 102 -101 6 0 -15 27 -47 60 -62 64 -70
71 -55 41z"/>
<path d="M4110 1352 c0 -6 -13 -13 -29 -17 -16 -3 -35 -13 -42 -21 -10 -12 -5
-12 31 1 23 8 57 15 74 15 17 0 38 5 46 10 11 7 7 10 -17 10 -17 0 -38 3 -47
6 -9 3 -16 2 -16 -4z"/>
<path d="M2610 1273 c0 -60 3 -74 12 -65 7 7 31 12 55 12 24 0 43 3 43 8 0 4
-20 6 -45 4 l-45 -4 0 61 c0 34 -4 61 -10 61 -6 0 -10 -32 -10 -77z"/>
<path d="M3172 1327 c-17 -13 -50 -29 -74 -37 -79 -23 -181 -64 -170 -68 24
-8 272 93 287 118 11 17 -10 11 -43 -13z"/>
<path d="M848 1333 c7 -3 16 -2 19 1 4 3 -2 6 -13 5 -11 0 -14 -3 -6 -6z"/>
<path d="M948 1333 c7 -3 16 -2 19 1 4 3 -2 6 -13 5 -11 0 -14 -3 -6 -6z"/>
<path d="M1025 1331 c11 -5 40 -11 65 -15 45 -6 45 -6 15 9 -16 8 -46 14 -65
14 -28 0 -31 -2 -15 -8z"/>
<path d="M746 1304 c10 -17 31 -46 45 -64 l27 -33 37 35 c21 19 36 40 34 47
-3 8 -16 1 -38 -18 -30 -27 -61 -32 -61 -11 0 5 -14 24 -32 42 l-31 33 19 -31z"/>
<path d="M1305 1319 c-4 -6 -5 -12 -2 -15 7 -7 37 7 37 17 0 13 -27 11 -35 -2z"/>
<path d="M1950 1319 c0 -5 6 -9 14 -9 8 0 23 -3 33 -6 13 -5 15 -4 7 5 -14 15
-54 23 -54 10z"/>
<path d="M3750 1320 c0 -5 5 -10 11 -10 5 0 7 5 4 10 -3 6 -8 10 -11 10 -2 0
-4 -4 -4 -10z"/>
<path d="M1155 1301 c-8 -14 10 -22 30 -15 13 5 14 8 3 15 -17 11 -26 11 -33
0z"/>
<path d="M3895 1290 c-3 -5 -1 -10 4 -10 6 0 11 5 11 10 0 6 -2 10 -4 10 -3 0
-8 -4 -11 -10z"/>
<path d="M3974 1285 c-24 -18 -7 -19 26 0 16 9 19 14 9 15 -8 0 -24 -7 -35
-15z"/>
<path d="M1240 1270 c0 -5 7 -10 15 -10 8 0 15 5 15 10 0 6 -7 10 -15 10 -8 0
-15 -4 -15 -10z"/>
<path d="M1319 1264 c-25 -13 -26 -17 -17 -56 5 -23 13 -47 17 -53 16 -21 19
-54 5 -66 -16 -13 -19 -49 -4 -49 6 0 10 8 10 18 0 34 14 34 26 0 9 -26 8 -38
-3 -55 -17 -25 -14 -45 8 -48 9 -2 14 8 15 28 1 17 5 32 10 34 15 5 4 83 -11
83 -15 0 -28 44 -20 70 3 9 1 30 -5 45 -7 20 -8 31 0 39 12 12 13 26 3 25 -5
-1 -20 -7 -34 -15z m11 -46 c0 -25 -3 -29 -10 -18 -13 20 -13 50 0 50 6 0 10
-15 10 -32z"/>
<path d="M3783 1274 c4 -6 0 -24 -7 -40 -19 -39 -27 -144 -11 -137 7 2 15 -3
18 -11 5 -11 0 -16 -13 -16 -11 0 -20 -4 -20 -10 0 -11 30 -13 54 -4 20 8 21
33 1 40 -21 8 -18 44 5 74 27 34 25 62 -7 91 -14 13 -23 19 -20 13z m27 -51
c0 -10 -7 -27 -15 -37 -16 -22 -20 -9 -9 32 7 26 24 30 24 5z"/>
<path d="M3740 1245 c-13 -14 -19 -25 -14 -25 8 1 50 50 41 50 -2 0 -14 -11
-27 -25z"/>
<path d="M3919 1263 c-10 -2 -19 -13 -22 -24 -7 -25 -4 -24 29 6 26 25 25 27
-7 18z"/>
<path d="M1205 1249 c-11 -17 1 -21 15 -4 8 9 8 15 2 15 -6 0 -14 -5 -17 -11z"/>
<path d="M520 1240 c0 -5 5 -10 10 -10 6 0 10 5 10 10 0 6 -4 10 -10 10 -5 0
-10 -4 -10 -10z"/>
<path d="M2158 1228 c5 -5 16 -8 23 -6 8 3 3 7 -10 11 -17 4 -21 3 -13 -5z"/>
<path d="M2465 1230 l-40 -7 43 -2 c23 0 42 4 42 9 0 6 -1 9 -2 9 -2 -1 -21
-5 -43 -9z"/>
<path d="M1370 1221 c0 -6 5 -13 10 -16 6 -3 10 1 10 9 0 9 -4 16 -10 16 -5 0
-10 -4 -10 -9z"/>
<path d="M3854 1215 c-7 -17 3 -35 19 -35 9 0 8 3 -1 8 -7 5 -10 16 -6 25 3 9
3 17 0 17 -4 0 -9 -7 -12 -15z"/>
<path d="M1235 1209 c-4 -6 -5 -13 -2 -16 7 -7 27 6 27 18 0 12 -17 12 -25 -2z"/>
<path d="M2854 1208 c-7 -10 15 -9 41 2 17 7 16 8 -8 7 -16 -1 -31 -5 -33 -9z"/>
<path d="M540 1202 c0 -5 7 -17 15 -28 15 -19 20 -8 9 20 -6 17 -24 22 -24 8z"/>
<path d="M2288 1203 c7 -3 16 -2 19 1 4 3 -2 6 -13 5 -11 0 -14 -3 -6 -6z"/>
<path d="M2450 1190 c0 -5 5 -10 10 -10 6 0 10 5 10 10 0 6 -4 10 -10 10 -5 0
-10 -4 -10 -10z"/>
<path d="M2485 1190 c-3 -5 1 -10 9 -10 9 0 16 5 16 10 0 6 -4 10 -9 10 -6 0
-13 -4 -16 -10z"/>
<path d="M2768 1193 c7 -3 16 -2 19 1 4 3 -2 6 -13 5 -11 0 -14 -3 -6 -6z"/>
<path d="M2633 1183 c15 -2 39 -2 55 0 15 2 2 4 -28 4 -30 0 -43 -2 -27 -4z"/>
<path d="M3845 1149 c-4 -6 -5 -12 -2 -15 2 -3 7 2 10 11 7 17 1 20 -8 4z"/>
<path d="M1414 1071 c1 -52 10 -66 21 -33 3 11 -1 34 -8 52 l-14 32 1 -51z"/>
<path d="M3697 1086 c-11 -29 -8 -34 18 -32 19 1 25 7 25 24 0 26 -20 30 -21
5 0 -16 -1 -16 -8 1 -7 18 -8 18 -14 2z"/>
<path d="M1030 1070 c0 -5 5 -10 10 -10 6 0 10 5 10 10 0 6 -4 10 -10 10 -5 0
-10 -4 -10 -10z"/>
<path d="M1060 1060 c-6 -11 -21 -20 -33 -20 -22 0 -51 -32 -40 -43 16 -16
103 49 103 77 0 14 -20 4 -30 -14z"/>
<path d="M4045 1070 c-3 -5 -1 -18 4 -29 13 -23 79 -63 86 -51 8 14 -45 70
-66 70 -11 0 -17 5 -14 10 3 6 4 10 1 10 -3 0 -8 -4 -11 -10z"/>
<path d="M3813 1015 c0 -22 2 -30 4 -17 2 12 2 30 0 40 -3 9 -5 -1 -4 -23z"/>
<path d="M3745 1031 c-3 -2 0 -10 6 -18 9 -9 8 -13 0 -13 -9 0 -9 -6 0 -22 12
-22 13 -22 25 12 7 19 13 37 13 40 1 7 -38 8 -44 1z"/>
<path d="M1063 1002 c-8 -5 -9 -13 -3 -22 7 -12 10 -12 16 3 8 21 3 29 -13 19z"/>
<path d="M1412 980 c0 -14 2 -19 5 -12 2 6 2 18 0 25 -3 6 -5 1 -5 -13z"/>
<path d="M4445 990 c-3 -5 -1 -10 4 -10 6 0 11 5 11 10 0 6 -2 10 -4 10 -3 0
-8 -4 -11 -10z"/>
<path d="M1090 970 c0 -5 5 -10 11 -10 5 0 7 5 4 10 -3 6 -8 10 -11 10 -2 0
-4 -4 -4 -10z"/>
<path d="M3710 959 c0 -11 4 -18 10 -14 5 3 7 12 3 20 -7 21 -13 19 -13 -6z"/>
<path d="M3783 953 c-13 -2 -23 -11 -23 -19 0 -10 5 -12 13 -7 6 4 17 8 22 9
6 0 16 2 23 2 6 1 12 7 12 12 0 10 -8 11 -47 3z"/>
<path d="M1310 942 c0 -5 40 -35 89 -67 80 -53 88 -61 79 -80 -5 -11 -19 -25
-31 -30 -34 -15 -31 -38 8 -62 46 -30 56 -29 22 2 -15 14 -27 34 -26 43 0 10
3 12 6 5 2 -7 9 -13 15 -13 6 0 8 7 4 15 -9 23 26 18 68 -10 20 -13 36 -22 36
-19 0 3 12 -3 28 -14 31 -22 246 -127 280 -137 12 -3 22 -11 22 -16 0 -12 -17
-12 -25 1 -9 15 -25 12 -25 -4 0 -17 61 -30 71 -15 5 8 8 8 13 0 4 -6 18 -11
31 -11 13 0 27 -5 30 -10 4 -6 10 -8 15 -5 13 8 -1 -33 -16 -46 -8 -6 -14 -7
-14 -2 0 5 -12 10 -26 11 -21 2 -88 25 -179 62 -11 4 -39 13 -62 20 -24 7 -57
23 -75 34 -17 12 -45 29 -60 38 -16 10 -40 26 -55 35 -20 13 -25 14 -21 3 11
-33 281 -173 334 -173 8 0 14 -3 14 -7 0 -9 71 -30 103 -30 14 0 27 -6 30 -12
3 -10 7 -10 20 1 10 7 17 19 17 25 0 7 13 22 29 33 22 17 37 20 70 16 27 -4
41 -2 41 6 0 11 -36 14 -117 11 -23 -1 -59 6 -80 16 -233 107 -324 155 -317
165 4 8 3 9 -4 5 -7 -4 -12 -3 -12 2 0 5 -7 9 -15 9 -28 0 -107 47 -116 70 -5
13 -12 23 -17 23 -4 0 -41 27 -81 60 -68 55 -101 72 -101 52z"/>
<path d="M1405 940 c3 -5 8 -10 11 -10 2 0 4 5 4 10 0 6 -5 10 -11 10 -5 0 -7
-4 -4 -10z"/>
<path d="M711 924 c0 -11 3 -14 6 -6 3 7 2 16 -1 19 -3 4 -6 -2 -5 -13z"/>
<path d="M3730 909 c0 -5 -19 -22 -42 -39 -22 -16 -37 -30 -32 -30 14 0 123
54 124 61 0 4 -11 9 -25 11 -14 3 -25 1 -25 -3z"/>
<path d="M4405 910 c-3 -5 -1 -10 4 -10 6 0 11 5 11 10 0 6 -2 10 -4 10 -3 0
-8 -4 -11 -10z"/>
<path d="M1289 888 c-6 -13 -25 -37 -42 -55 l-30 -32 24 -21 c32 -27 99 -74
127 -89 41 -22 22 4 -33 43 -58 43 -64 56 -16 36 17 -6 36 -10 43 -7 15 5 -59
38 -81 36 -46 -4 -55 10 -18 30 21 11 57 59 57 75 0 15 -20 4 -31 -16z"/>
<path d="M3795 900 c-6 -10 63 -86 71 -78 7 7 -38 76 -53 82 -7 3 -15 1 -18
-4z"/>
<path d="M3535 750 c-165 -97 -432 -209 -496 -209 -24 0 -60 -5 -79 -10 -19
-6 -63 -11 -98 -11 -57 0 -69 -4 -118 -37 -29 -21 -54 -42 -54 -46 0 -9 8 -5
69 36 50 34 116 45 159 28 24 -10 92 -101 92 -123 0 -3 -10 -8 -22 -11 -13 -2
-66 -14 -118 -26 -201 -47 -378 -46 -612 1 -88 17 -114 19 -129 10 -10 -7 -19
-10 -19 -8 0 2 25 40 55 84 30 44 55 83 55 86 0 3 -8 6 -18 6 -17 0 -52 -28
-52 -42 0 -3 -16 -32 -35 -64 -19 -32 -35 -61 -35 -64 0 -11 208 -69 285 -80
89 -12 286 -13 390 0 44 5 127 24 185 43 87 27 106 37 108 55 4 27 -23 85 -58
122 l-28 30 36 2 c59 2 86 -2 97 -15 38 -45 92 -61 138 -40 124 55 437 219
456 238 11 12 -28 105 -44 104 -5 0 -55 -27 -110 -59z m117 1 c13 -15 14 -23
5 -34 -12 -14 -112 -72 -227 -131 -30 -15 -80 -41 -110 -57 -30 -16 -62 -29
-71 -29 -10 0 -19 -4 -21 -9 -3 -8 -37 -15 -65 -12 -7 1 -13 8 -13 16 0 8 -7
15 -15 15 -22 0 -7 26 23 39 26 11 26 11 7 -4 -19 -16 -19 -16 10 -9 17 4 38
11 47 15 9 5 25 9 35 9 11 0 28 7 39 15 17 13 16 14 -21 8 -22 -3 -43 -10 -46
-16 -4 -6 -9 -5 -13 1 -4 6 17 17 51 27 31 9 102 40 157 68 56 28 108 52 117
53 24 2 40 14 34 25 -3 5 0 6 8 3 8 -3 17 2 20 10 9 22 29 20 49 -3z"/>
<path d="M3493 683 c-18 -7 -16 -23 3 -23 8 0 13 4 10 9 -4 5 0 12 6 14 7 3 9
5 3 5 -5 0 -16 -2 -22 -5z"/>
<path d="M3327 594 c-11 -11 3 -24 25 -24 17 0 18 2 8 15 -13 16 -23 19 -33 9z"/>
<path d="M3835 801 c-37 -12 -74 -34 -79 -47 -3 -9 7 -7 30 6 35 20 94 29 64
11 -8 -6 -18 -7 -24 -4 -5 3 -6 2 -3 -4 6 -10 -90 -83 -145 -112 -16 -8 -28
-19 -28 -24 0 -6 8 -4 18 5 9 8 38 25 65 39 60 31 177 116 177 129 0 5 -7 10
-15 10 -8 0 -15 -5 -15 -11 0 -8 -4 -8 -12 -2 -7 5 -22 7 -33 4z"/>
<path d="M3707 770 c3 -11 7 -20 9 -20 2 0 4 9 4 20 0 11 -4 20 -9 20 -5 0 -7
-9 -4 -20z"/>
<path d="M1730 686 c0 -2 7 -7 16 -10 8 -3 12 -2 9 4 -6 10 -25 14 -25 6z"/>
<path d="M4105 670 c-3 -5 -2 -10 4 -10 5 0 13 5 16 10 3 6 2 10 -4 10 -5 0
-13 -4 -16 -10z"/>
<path d="M1618 653 c7 -3 16 -2 19 1 4 3 -2 6 -13 5 -11 0 -14 -3 -6 -6z"/>
<path d="M4040 635 c-19 -14 -40 -25 -47 -25 -7 0 -13 -4 -13 -9 0 -5 -8 -11
-17 -14 -23 -8 -104 -55 -124 -73 -9 -8 -19 -11 -22 -7 -4 3 -7 1 -7 -5 0 -17
14 -15 40 8 12 11 26 17 30 15 5 -3 10 -1 12 3 3 7 106 68 171 101 15 7 27 17
27 22 0 14 -12 10 -50 -16z"/>
<path d="M1470 636 c0 -2 7 -7 16 -10 8 -3 12 -2 9 4 -6 10 -25 14 -25 6z"/>
<path d="M1840 630 c8 -5 20 -10 25 -10 6 0 3 5 -5 10 -8 5 -19 10 -25 10 -5
0 -3 -5 5 -10z"/>
<path d="M1660 610 c8 -5 22 -10 30 -10 13 0 13 1 0 10 -8 5 -22 10 -30 10
-13 0 -13 -1 0 -10z"/>
<path d="M3495 556 c-66 -34 -151 -76 -190 -94 -38 -17 -59 -29 -45 -26 30 7
370 171 370 179 0 9 -14 4 -135 -59z"/>
<path d="M1770 599 c-13 -8 -12 -11 5 -22 24 -14 54 -17 61 -6 3 5 0 9 -7 9
-7 0 -20 7 -28 14 -11 10 -21 12 -31 5z"/>
<path d="M1995 570 c11 -5 27 -9 35 -9 9 0 8 4 -5 9 -11 5 -27 9 -35 9 -9 0
-8 -4 5 -9z"/>
<path d="M1235 530 c3 -5 8 -10 11 -10 2 0 4 5 4 10 0 6 -5 10 -11 10 -5 0 -7
-4 -4 -10z"/>
<path d="M1950 509 c0 -5 5 -7 10 -4 6 3 10 8 10 11 0 2 -4 4 -10 4 -5 0 -10
-5 -10 -11z"/>
<path d="M2252 504 c10 -10 20 -16 22 -13 3 3 -5 11 -17 18 -21 13 -21 12 -5
-5z"/>
<path d="M2366 475 c83 -55 103 -58 44 -7 -47 40 -65 50 -94 51 -11 1 11 -19
50 -44z"/>
<path d="M3770 480 c-8 -5 -11 -12 -7 -16 4 -4 13 -2 19 4 15 15 7 24 -12 12z"/>
<path d="M2889 465 c-1 -3 -2 -8 -3 -12 -4 -23 -21 -33 -53 -33 -37 0 -39 -11
-2 -17 28 -4 68 25 66 48 -1 18 -5 25 -8 14z"/>
<path d="M2915 460 c-3 -5 -1 -10 4 -10 6 0 11 5 11 10 0 6 -2 10 -4 10 -3 0
-8 -4 -11 -10z"/>
<path d="M3728 453 c7 -3 16 -2 19 1 4 3 -2 6 -13 5 -11 0 -14 -3 -6 -6z"/>
<path d="M3685 440 c-3 -5 -1 -10 4 -10 6 0 11 5 11 10 0 6 -2 10 -4 10 -3 0
-8 -4 -11 -10z"/>
<path d="M2246 430 c6 -6 28 -13 50 -17 52 -8 33 12 -21 22 -29 5 -37 4 -29
-5z"/>
</g>
</svg>
