<?xml version="1.0" standalone="no"?>
<!DOCTYPE svg PUBLIC "-//W3C//DTD SVG 20010904//EN"
 "http://www.w3.org/TR/2001/REC-SVG-20010904/DTD/svg10.dtd">
<svg version="1.0" xmlns="http://www.w3.org/2000/svg"
 width="512.000000pt" height="768.000000pt" viewBox="0 0 512.000000 768.000000"
 preserveAspectRatio="xMidYMid meet">
<metadata>
Created by potrace 1.16, written by Peter Selinger 2001-2019
</metadata>
<g transform="translate(0.000000,768.000000) scale(0.100000,-0.100000)"
fill="#000000" stroke="none">
<path d="M3217 7553 c-7 -12 -12 -87 -6 -98 12 -23 9 -73 -5 -88 -11 -11 -14
-27 -9 -58 3 -24 5 -57 6 -74 0 -16 3 -35 8 -40 4 -6 4 -17 -1 -25 -14 -21
-12 -64 2 -78 10 -10 10 -15 0 -21 -11 -7 -10 -10 3 -15 9 -3 21 -4 26 0 5 3
8 61 6 129 -1 68 -4 122 -7 120 -3 -2 -4 52 -2 120 2 73 -1 126 -7 129 -5 4
-12 3 -14 -1z"/>
<path d="M3670 7420 c0 -5 5 -10 11 -10 5 0 7 5 4 10 -3 6 -8 10 -11 10 -2 0
-4 -4 -4 -10z"/>
<path d="M1765 7370 c-3 -6 1 -7 9 -4 18 7 21 14 7 14 -6 0 -13 -4 -16 -10z"/>
<path d="M3103 7164 c4 -4 1 -14 -5 -22 -10 -12 -9 -14 6 -11 26 5 31 25 9 33
-9 4 -14 4 -10 0z"/>
<path d="M1377 7139 c7 -7 15 -10 18 -7 3 3 -2 9 -12 12 -14 6 -15 5 -6 -5z"/>
<path d="M3096 7111 c-7 -10 22 -37 30 -28 9 8 -3 37 -15 37 -5 0 -12 -4 -15
-9z"/>
<path d="M3101 7053 c-7 -14 -8 -23 -2 -23 7 0 7 -9 1 -25 -5 -14 -6 -25 -2
-25 4 0 7 -103 7 -230 0 -176 3 -231 13 -235 8 -3 11 -20 8 -50 -2 -30 1 -45
8 -45 7 0 12 15 11 38 -1 20 3 49 8 64 6 19 4 33 -7 50 -12 18 -13 32 -7 55 7
23 6 33 -2 36 -9 3 -9 8 1 19 8 11 10 23 3 39 -7 21 -12 122 -11 249 0 25 -4
59 -8 75 -8 30 -9 30 -21 8z"/>
<path d="M3218 7012 c-10 -2 -18 -9 -19 -15 -3 -29 4 -63 16 -80 12 -18 14
-17 29 5 31 44 15 100 -26 90z"/>
<path d="M3218 6878 c-3 -10 -2 -94 2 -127 0 -2 9 6 20 19 11 13 20 36 20 52
0 49 -31 89 -42 56z"/>
<path d="M375 6850 c-3 -6 1 -7 9 -4 18 7 21 14 7 14 -6 0 -13 -4 -16 -10z"/>
<path d="M2970 6762 c0 -5 7 -9 15 -9 8 0 12 4 9 9 -3 4 -9 8 -15 8 -5 0 -9
-4 -9 -8z"/>
<path d="M3450 6750 c0 -5 5 -10 11 -10 5 0 7 5 4 10 -3 6 -8 10 -11 10 -2 0
-4 -4 -4 -10z"/>
<path d="M3232 6728 c-15 -19 2 -48 19 -31 7 7 8 17 2 28 -8 13 -11 14 -21 3z"/>
<path d="M3225 6658 c-7 -14 -8 -38 -3 -60 4 -20 9 -76 11 -124 2 -52 7 -89
14 -91 6 -2 11 6 11 19 1 13 3 72 5 131 3 89 1 112 -12 128 -16 20 -16 20 -26
-3z"/>
<path d="M1138 6573 c7 -3 16 -2 19 1 4 3 -2 6 -13 5 -11 0 -14 -3 -6 -6z"/>
<path d="M2465 6489 c-105 -13 -209 -40 -318 -83 -143 -56 -159 -73 -114 -122
l23 -25 105 42 c156 63 226 79 384 85 215 10 366 -23 580 -126 266 -127 480
-403 564 -727 82 -315 62 -575 -66 -873 -66 -152 -147 -271 -199 -290 -19 -8
-21 -14 -17 -57 7 -63 17 -75 51 -62 92 35 263 315 327 534 61 209 71 485 27
695 -82 382 -304 700 -604 864 -216 118 -505 174 -743 145z m295 -39 c8 -1 36
-6 61 -11 26 -6 53 -11 60 -13 48 -8 119 -31 119 -38 0 -5 5 -6 10 -3 12 7 70
-16 70 -28 0 -5 4 -6 9 -2 5 3 15 -1 23 -8 7 -8 19 -12 27 -9 9 3 11 0 6 -7
-4 -8 -2 -11 6 -10 16 3 76 -26 97 -47 7 -8 18 -12 23 -9 5 4 6 -1 3 -10 -4
-9 -3 -15 2 -14 15 3 48 -13 65 -33 9 -10 21 -18 26 -18 14 0 103 -92 103
-106 0 -7 9 -16 21 -19 14 -5 19 -13 16 -26 -3 -10 -1 -17 4 -13 5 3 9 0 9 -6
0 -6 5 -8 11 -4 7 4 6 -3 -2 -17 -9 -18 -14 -20 -17 -10 -3 8 -18 26 -33 39
-18 15 -29 34 -30 50 0 24 -1 25 -9 7 -6 -14 -9 -16 -10 -5 -2 8 -2 18 -1 22
0 4 -5 5 -13 2 -16 -6 -40 21 -31 36 4 6 3 10 -2 9 -20 -4 -33 2 -33 15 0 7
-13 19 -30 26 -16 7 -30 19 -30 27 0 8 -4 11 -10 8 -13 -8 -61 25 -53 38 3 6
1 7 -5 3 -6 -4 -48 11 -94 33 -46 22 -109 48 -140 57 -32 10 -58 21 -58 25 0
4 -9 5 -20 2 -11 -3 -26 -1 -33 5 -48 40 -422 42 -562 3 -89 -25 -157 -49
-195 -68 -33 -17 -50 -16 -50 1 0 16 27 29 41 20 5 -3 9 -1 9 4 0 14 57 35 71
26 8 -4 10 -3 5 4 -4 7 -1 13 6 14 29 3 34 4 53 14 24 13 116 33 167 38 21 1
41 5 44 9 6 5 243 3 294 -3z m810 -490 c12 -17 19 -37 16 -45 -3 -10 0 -12 11
-8 12 5 15 2 10 -10 -4 -11 -2 -14 7 -11 9 4 16 -7 20 -31 4 -19 11 -33 17
-30 14 9 11 -5 -6 -21 -13 -14 -15 -13 -15 5 0 12 -4 21 -10 21 -5 0 -10 8
-10 18 0 9 -9 23 -20 30 -11 7 -20 21 -20 33 0 11 -4 17 -10 14 -6 -4 -10 6
-10 22 0 22 -2 25 -10 13 -8 -12 -10 -11 -10 8 0 31 15 28 40 -8z m95 -191
c-5 -13 -2 -19 7 -17 7 2 12 -5 12 -14 -1 -10 2 -16 6 -13 7 4 42 -81 45 -110
1 -13 14 -45 26 -67 7 -14 5 -18 -8 -18 -17 -1 -16 -2 1 -15 15 -11 17 -17 7
-29 -7 -9 -8 -17 -2 -20 5 -3 12 0 14 6 3 7 7 -5 8 -27 1 -22 4 -53 6 -70 4
-47 4 -335 0 -390 -8 -89 -20 -155 -27 -155 -4 0 -10 -15 -13 -34 -3 -18 -15
-54 -26 -79 -12 -25 -21 -52 -21 -59 0 -26 -60 -138 -74 -138 -9 0 -12 -7 -9
-20 3 -11 0 -20 -6 -20 -6 0 -11 -6 -11 -13 0 -8 -9 -22 -20 -32 -10 -9 -18
-22 -17 -29 1 -6 -6 -10 -16 -8 -15 3 -17 -1 -12 -17 4 -12 2 -21 -4 -21 -6 0
-11 -7 -11 -15 0 -8 -4 -15 -10 -15 -5 0 -10 9 -10 20 0 11 5 20 10 20 6 0 10
9 10 20 0 11 5 20 10 20 6 0 10 7 10 16 0 8 7 22 15 30 8 9 15 11 15 5 0 -6 4
-11 9 -11 5 0 7 9 4 20 -3 11 0 20 6 20 6 0 11 15 11 33 0 24 3 28 10 17 7
-11 10 -7 10 18 0 18 4 31 9 28 5 -3 8 2 7 12 0 9 5 16 12 14 8 -1 11 2 7 7
-3 6 2 25 11 43 10 18 19 44 20 57 2 13 7 27 12 30 5 3 11 17 14 31 11 47 40
165 45 180 11 31 14 80 14 250 0 136 -3 186 -16 223 -9 26 -13 52 -10 57 3 5
1 11 -5 15 -5 3 -10 16 -10 29 0 12 -3 26 -7 30 -7 7 -14 31 -16 59 -1 9 -5
17 -9 17 -4 0 -8 16 -8 35 0 19 -4 35 -9 35 -14 0 -41 59 -34 75 8 22 25 6 18
-16z m-178 -1421 c-3 -8 -6 -5 -6 6 -1 11 2 17 5 13 3 -3 4 -12 1 -19z m1 -37
c-2 -9 -8 -16 -13 -16 -6 0 -15 -4 -22 -8 -6 -4 -14 -3 -18 3 -3 6 1 13 9 16
9 3 16 12 16 20 0 8 6 11 15 7 9 -3 15 -13 13 -22z"/>
<path d="M4660 6270 c0 -5 5 -10 11 -10 5 0 7 5 4 10 -3 6 -8 10 -11 10 -2 0
-4 -4 -4 -10z"/>
<path d="M2552 6228 c3 -7 12 -14 22 -14 13 -2 13 -1 1 3 -8 2 -13 9 -10 14 4
5 1 9 -5 9 -7 0 -10 -6 -8 -12z"/>
<path d="M2625 6230 c3 -6 1 -10 -6 -10 -7 0 -10 -3 -6 -6 3 -3 13 -2 22 4 16
8 16 9 1 15 -10 4 -15 3 -11 -3z"/>
<path d="M2706 6222 c-3 -6 -1 -14 5 -17 15 -10 25 3 12 16 -7 7 -13 7 -17 1z"/>
<path d="M2752 6218 c2 -6 10 -14 16 -16 7 -2 10 2 6 12 -7 18 -28 22 -22 4z"/>
<path d="M2484 6208 c10 -6 22 -6 26 -2 5 5 -3 10 -18 11 -22 1 -24 0 -8 -9z"/>
<path d="M1824 6202 c4 -7 14 -12 22 -12 8 0 14 -4 14 -10 0 -5 7 -10 15 -10
21 0 19 17 -2 23 -10 2 -27 8 -37 13 -14 5 -17 4 -12 -4z"/>
<path d="M2390 6201 c0 -5 5 -13 10 -16 6 -3 10 -2 10 4 0 5 -4 13 -10 16 -5
3 -10 2 -10 -4z"/>
<path d="M2435 6200 c-3 -5 -2 -10 4 -10 5 0 13 5 16 10 3 6 2 10 -4 10 -5 0
-13 -4 -16 -10z"/>
<path d="M2795 6200 c3 -5 10 -10 16 -10 5 0 9 5 9 10 0 6 -7 10 -16 10 -8 0
-12 -4 -9 -10z"/>
<path d="M2830 6190 c0 -5 7 -10 15 -10 8 0 15 5 15 10 0 6 -7 10 -15 10 -8 0
-15 -4 -15 -10z"/>
<path d="M3132 6175 c3 -13 0 -26 -6 -28 -8 -3 -7 -11 2 -26 17 -29 16 -55 -3
-47 -9 3 -15 0 -15 -8 0 -8 7 -17 15 -20 18 -6 39 35 36 69 -4 53 -13 85 -23
85 -6 0 -8 -11 -6 -25z"/>
<path d="M2286 6178 c5 -13 1 -18 -14 -18 -11 0 -22 -4 -24 -10 -1 -5 -15 -11
-29 -12 -32 -3 -50 -20 -39 -39 7 -11 10 -10 16 4 3 9 14 17 23 17 9 0 21 4
27 8 5 4 34 16 64 26 67 23 85 36 39 31 -19 -3 -35 -9 -37 -15 -2 -6 -10 -3
-18 7 -13 17 -14 17 -8 1z"/>
<path d="M2884 6178 c-4 -7 -3 -8 4 -4 7 4 12 2 12 -4 0 -6 5 -8 10 -5 11 7 4
25 -10 25 -5 0 -12 -5 -16 -12z"/>
<path d="M2567 6174 c-4 -4 -24 -7 -44 -8 -26 -1 -37 -5 -35 -14 2 -13 -62
-117 -79 -128 -18 -11 -8 12 26 65 27 41 33 56 23 62 -15 9 -40 -9 -35 -25 2
-6 -4 -27 -13 -46 -10 -19 -21 -50 -25 -68 -3 -18 -11 -30 -16 -26 -12 7 -2
50 22 92 23 40 25 72 4 72 -41 0 -66 -161 -33 -209 l17 -23 7 37 c4 26 9 33
15 23 6 -9 12 -4 21 20 7 17 16 32 20 32 9 0 -1 -29 -15 -48 -7 -9 -7 -16 1
-24 8 -8 19 7 40 53 30 65 89 133 125 145 16 5 17 8 6 15 -17 11 -24 11 -32 3z
m-27 -21 c0 -5 -12 -21 -26 -38 -15 -16 -33 -40 -41 -53 -22 -32 -28 -19 -7
15 17 27 65 83 71 83 2 0 3 -3 3 -7z"/>
<path d="M2568 6107 c-63 -61 -88 -105 -88 -159 0 -34 15 -17 48 53 36 76 82
134 113 144 10 4 19 11 19 16 0 22 -31 4 -92 -54z"/>
<path d="M2956 6161 c-4 -7 -5 -15 -2 -18 9 -9 19 4 14 18 -4 11 -6 11 -12 0z"/>
<path d="M2645 6128 c-63 -55 -91 -106 -98 -178 -7 -68 5 -65 17 5 10 57 48
117 103 164 32 27 42 41 31 41 -10 0 -33 -14 -53 -32z"/>
<path d="M2675 6098 c-27 -33 -58 -67 -67 -76 -10 -9 -18 -27 -18 -39 0 -33
30 -18 37 20 6 30 86 120 128 143 19 11 19 11 -5 11 -18 0 -39 -17 -75 -59z"/>
<path d="M2990 6151 c0 -5 5 -13 10 -16 6 -3 10 -2 10 4 0 5 -4 13 -10 16 -5
3 -10 2 -10 -4z"/>
<path d="M4245 6150 c4 -6 11 -8 16 -5 14 9 11 15 -7 15 -8 0 -12 -5 -9 -10z"/>
<path d="M2738 6114 c-56 -47 -98 -96 -91 -107 3 -4 -3 -17 -12 -27 -9 -10
-17 -24 -19 -32 -1 -7 -5 -19 -10 -26 -4 -7 -6 -16 -3 -19 11 -10 27 8 46 52
11 25 25 45 31 45 8 0 8 -6 0 -20 -7 -13 -7 -20 -1 -20 6 0 17 12 25 28 21 40
74 91 119 114 27 13 36 23 29 30 -13 13 -42 -3 -103 -54 -69 -58 -72 -45 -4
17 67 61 62 75 -7 19z"/>
<path d="M3030 6120 c0 -5 7 -10 16 -10 8 0 12 5 9 10 -3 6 -10 10 -16 10 -5
0 -9 -4 -9 -10z"/>
<path d="M1662 6058 c-60 -77 -77 -104 -142 -236 -94 -192 -138 -368 -147
-587 -8 -213 34 -448 111 -616 53 -116 156 -303 174 -317 20 -15 57 -8 80 15
18 17 24 4 -62 144 -90 149 -168 375 -192 559 -12 94 -7 280 11 385 41 240
139 456 268 594 l51 54 -39 34 c-21 18 -44 33 -51 33 -7 0 -35 -28 -62 -62z
m75 -11 c-7 -12 -22 -36 -34 -54 -13 -17 -23 -36 -23 -42 0 -6 -4 -11 -9 -11
-5 0 -7 10 -4 23 4 19 3 20 -7 4 -6 -9 -8 -22 -5 -27 3 -6 -3 -23 -15 -39 -11
-17 -27 -46 -35 -65 -9 -20 -19 -36 -23 -36 -5 0 -9 -7 -9 -15 0 -13 -9 -35
-44 -107 -5 -10 -9 -25 -9 -33 0 -9 -5 -13 -11 -9 -7 4 -9 0 -5 -14 4 -11 2
-23 -3 -26 -6 -4 -8 -13 -5 -21 4 -8 -1 -18 -10 -21 -9 -3 -14 -10 -11 -14 3
-4 -2 -46 -10 -91 -8 -46 -15 -101 -15 -121 0 -21 -3 -38 -7 -38 -5 0 -8 -51
-8 -114 0 -63 4 -109 8 -103 5 7 6 -9 3 -35 -3 -30 0 -59 9 -81 12 -29 20 -86
24 -160 1 -10 5 -16 10 -12 5 3 12 1 16 -5 3 -5 1 -10 -4 -10 -6 0 -11 -5 -11
-11 0 -5 4 -8 9 -5 5 3 11 -1 15 -9 3 -8 1 -15 -4 -15 -6 0 -10 -8 -10 -17 0
-14 2 -15 9 -4 7 11 11 10 20 -7 6 -11 11 -25 11 -31 0 -5 5 -22 11 -38 7 -15
13 -39 15 -51 1 -13 11 -30 21 -37 17 -13 17 -15 1 -32 -17 -17 -18 -16 -18 2
0 11 -7 28 -14 38 -8 10 -12 28 -9 40 4 16 2 18 -5 8 -8 -10 -11 -6 -17 18 -4
17 -12 37 -19 44 -22 22 -63 166 -82 287 -3 19 -7 46 -10 60 -10 54 -7 299 5
365 21 118 33 169 45 184 6 8 10 16 9 18 -8 10 -1 43 7 38 5 -3 9 2 8 12 -3
37 2 53 17 53 8 0 15 5 15 11 0 5 -4 7 -10 4 -5 -3 -10 -2 -10 4 0 5 5 13 10
16 6 3 10 16 11 28 0 12 3 16 6 9 9 -23 22 -1 16 28 -3 19 -1 30 6 30 6 0 11
9 11 19 0 12 7 18 18 17 9 0 16 5 14 13 -5 23 9 51 25 51 10 0 13 6 9 16 -7
18 32 74 52 74 8 0 12 6 9 14 -4 10 -1 13 9 9 9 -3 14 1 14 14 0 23 8 33 26
33 10 0 10 -5 1 -23z m-123 -1560 c-4 -14 -3 -17 6 -12 9 5 11 4 6 -4 -4 -6 0
-14 9 -17 9 -4 14 -12 11 -19 -2 -7 5 -15 16 -18 14 -4 19 -11 15 -21 -4 -9
-2 -15 4 -13 6 1 15 -8 20 -20 7 -19 5 -22 -11 -20 -25 4 -60 49 -60 77 0 11
-4 18 -10 15 -5 -3 -10 3 -10 14 0 11 -4 23 -10 26 -15 10 -12 32 5 32 11 0
13 -6 9 -20z"/>
<path d="M1570 5820 c0 -5 5 -10 11 -10 5 0 7 5 4 10 -3 6 -8 10 -11 10 -2 0
-4 -4 -4 -10z"/>
<path d="M2327 6103 c-3 -4 -8 -29 -12 -56 -11 -70 -29 -73 -22 -4 6 58 -1 69
-23 42 -8 -10 -10 -28 -5 -52 7 -38 34 -93 45 -93 8 0 33 160 27 167 -3 2 -7
1 -10 -4z"/>
<path d="M2860 6074 c-25 -20 -44 -38 -42 -40 1 -2 -5 -18 -14 -35 -22 -44 -8
-49 25 -8 16 19 56 48 90 64 33 17 61 36 61 43 0 10 -7 9 -30 -3 -26 -13 -29
-14 -24 0 10 25 -18 16 -66 -21z"/>
<path d="M2110 6074 c-13 -13 -22 -24 -19 -24 11 0 69 31 74 41 13 19 -31 7
-55 -17z"/>
<path d="M3247 6083 c-4 -3 -7 -16 -7 -27 0 -17 2 -18 10 -6 9 13 10 13 10 0
0 -8 -3 -26 -7 -38 -4 -18 -8 -20 -14 -10 -7 11 -11 10 -18 -2 -7 -10 -5 -20
6 -32 8 -9 13 -24 10 -31 -3 -8 -1 -19 5 -25 19 -19 33 -2 32 41 -1 23 -2 63
-3 90 -1 44 -8 56 -24 40z"/>
<path d="M2766 6030 c-20 -22 -36 -44 -36 -49 0 -5 -3 -17 -7 -26 -5 -15 -3
-16 16 -5 13 6 27 25 33 40 5 16 17 32 27 35 16 5 25 45 10 45 -4 0 -23 -18
-43 -40z"/>
<path d="M2054 6051 c8 -12 -21 -34 -37 -28 -7 3 -13 -3 -14 -12 -1 -17 1 -17
32 -2 35 17 54 51 28 51 -8 0 -12 -4 -9 -9z"/>
<path d="M2225 6026 c1 -34 23 -86 37 -86 13 0 9 29 -8 55 -9 13 -13 32 -10
43 4 12 1 19 -6 19 -8 0 -13 -13 -13 -31z"/>
<path d="M2975 6050 c-44 -10 -73 -27 -91 -56 -19 -29 -13 -42 9 -19 22 21 30
19 15 -5 -7 -10 -8 -23 -4 -27 5 -4 11 -2 13 5 3 6 10 12 17 12 7 0 23 9 36
20 25 21 25 21 55 25 38 4 65 16 59 26 -8 14 -61 2 -111 -26 -24 -13 -43 -20
-43 -16 0 13 23 29 53 36 52 13 45 37 -8 25z"/>
<path d="M960 6030 c0 -6 7 -10 15 -10 8 0 15 2 15 4 0 2 -7 6 -15 10 -8 3
-15 1 -15 -4z"/>
<path d="M2183 6005 c4 -23 2 -35 -6 -35 -19 0 17 -30 42 -35 22 -4 23 -4 5
22 -9 15 -18 36 -19 47 -4 35 -5 36 -16 36 -8 0 -10 -12 -6 -35z"/>
<path d="M3150 6025 c0 -8 2 -15 4 -15 2 0 6 7 10 15 3 8 1 15 -4 15 -6 0 -10
-7 -10 -15z"/>
<path d="M3089 6014 c-6 -8 -32 -20 -57 -27 -45 -13 -73 -39 -59 -53 3 -4 13
-2 21 5 8 6 24 14 36 16 13 2 43 17 67 33 39 25 42 30 24 35 -11 3 -25 -1 -32
-9z"/>
<path d="M2105 6011 c-3 -6 -3 -15 0 -21 3 -5 -1 -10 -10 -10 -24 0 22 -56 53
-64 13 -4 20 -11 16 -18 -4 -6 -3 -8 3 -5 6 4 23 0 39 -7 16 -8 46 -22 67 -31
20 -10 37 -24 37 -32 0 -9 6 -13 15 -9 11 4 15 -2 16 -22 1 -15 5 -38 9 -52 6
-18 8 -4 8 47 -1 73 -10 90 -39 73 -7 -5 -16 -5 -19 -1 -3 5 -34 24 -70 43
-62 33 -65 36 -65 70 0 20 -3 40 -7 44 -5 4 -8 -1 -8 -11 0 -17 -1 -17 -19 -1
-12 11 -21 14 -26 7z m29 -57 c3 -8 2 -12 -4 -9 -6 3 -10 10 -10 16 0 14 7 11
14 -7z"/>
<path d="M2845 5994 c-10 -16 -24 -33 -30 -39 -17 -14 -26 -43 -16 -49 10 -7
74 91 69 105 -2 7 -12 -1 -23 -17z"/>
<path d="M1970 5956 c0 -8 -6 -17 -12 -20 -7 -3 -4 -5 7 -3 20 2 35 37 16 37
-6 0 -11 -6 -11 -14z"/>
<path d="M2040 5960 c-13 -9 -12 -13 9 -30 13 -11 29 -20 37 -20 7 0 15 -4 18
-9 3 -5 -26 -9 -65 -10 -79 -1 -89 -4 -89 -30 0 -10 -7 -24 -16 -31 -17 -15
-68 -99 -63 -104 2 -2 36 -1 74 3 l70 6 -36 13 c-20 7 -45 10 -55 6 -18 -5
-18 -5 0 10 13 11 40 16 78 16 32 0 58 4 58 10 0 16 -34 28 -65 24 -17 -2 -23
-1 -15 2 8 4 18 11 21 16 3 4 31 9 62 11 31 1 57 4 57 6 0 2 -8 10 -17 17 -25
19 1 18 38 -2 17 -8 37 -14 46 -12 11 2 8 7 -12 18 -16 8 -49 34 -73 58 -24
23 -45 42 -45 42 -1 0 -9 -5 -17 -10z m-37 -107 c-7 -2 -19 -2 -25 0 -7 3 -2
5 12 5 14 0 19 -2 13 -5z"/>
<path d="M3057 5939 c-39 -32 -47 -49 -22 -49 8 0 15 4 15 9 0 5 25 19 55 32
63 27 69 39 22 39 -21 0 -45 -10 -70 -31z"/>
<path d="M810 5939 c0 -5 5 -7 10 -4 6 3 10 8 10 11 0 2 -4 4 -10 4 -5 0 -10
-5 -10 -11z"/>
<path d="M3372 5939 c2 -7 10 -15 17 -17 8 -3 12 1 9 9 -2 7 -10 15 -17 17 -8
3 -12 -1 -9 -9z"/>
<path d="M3120 5917 c-27 -17 -31 -22 -17 -25 20 -4 67 23 67 38 0 14 -10 11
-50 -13z"/>
<path d="M1920 5899 c0 -5 5 -7 10 -4 6 3 10 8 10 11 0 2 -4 4 -10 4 -5 0 -10
-5 -10 -11z"/>
<path d="M2377 5877 c-11 -76 17 -153 37 -101 4 12 2 15 -9 10 -9 -3 -15 0
-15 10 0 8 5 12 10 9 6 -3 10 4 10 17 0 16 3 19 9 10 6 -11 10 -10 15 4 10 25
-1 50 -28 62 -22 10 -24 8 -29 -21z"/>
<path d="M3163 5903 c-23 -9 -14 -25 10 -18 31 10 45 25 22 24 -11 0 -26 -3
-32 -6z"/>
<path d="M3389 5895 c-1 -11 -1 -23 -1 -26 2 -16 13 -146 14 -159 0 -8 4 -19
8 -25 5 -5 11 -28 15 -50 4 -22 11 -45 16 -50 4 -6 11 -36 14 -65 3 -30 9 -83
14 -117 14 -97 -11 -382 -41 -456 -16 -41 -3 -44 37 -8 20 17 40 31 46 31 6 0
7 5 3 11 -3 6 -17 8 -33 4 -20 -5 -23 -4 -14 6 6 6 29 12 49 13 37 1 39 0 46
-39 10 -52 0 -205 -18 -279 -8 -32 -27 -75 -43 -95 -22 -27 -31 -51 -35 -96
l-7 -60 19 33 c10 18 20 30 23 27 3 -3 5 11 4 30 0 27 3 34 13 30 10 -4 13 0
9 15 -3 11 -1 17 4 14 5 -3 12 3 15 13 3 10 12 32 19 48 19 44 38 229 29 289
-12 92 -17 98 -73 94 -43 -3 -48 -1 -40 13 4 9 6 18 4 21 -3 3 -1 29 5 59 14
81 19 264 8 311 -5 24 -11 59 -13 78 -2 19 -17 76 -33 125 -16 50 -33 122 -36
162 -6 75 -23 137 -27 98z"/>
<path d="M2960 5890 c0 -5 6 -10 14 -10 8 0 18 5 21 10 3 6 -3 10 -14 10 -12
0 -21 -4 -21 -10z"/>
<path d="M1886 5873 c-6 -14 -5 -15 5 -6 7 7 10 15 7 18 -3 3 -9 -2 -12 -12z"/>
<path d="M3210 5880 c0 -5 -18 -10 -39 -10 -44 0 -71 -8 -71 -21 0 -5 38 -9
85 -9 50 0 85 4 85 10 0 6 -7 10 -15 10 -8 0 -15 7 -15 15 0 8 -7 15 -15 15
-8 0 -15 -4 -15 -10z"/>
<path d="M2723 5866 c-12 -14 -16 -31 -14 -53 1 -17 31 -4 31 13 0 8 8 14 18
14 16 1 16 1 0 14 -10 7 -15 16 -11 19 3 4 2 7 -3 7 -5 -1 -14 -7 -21 -14z"/>
<path d="M2490 5859 c0 -6 -7 -8 -16 -5 -8 3 -12 2 -9 -4 3 -6 -1 -10 -9 -10
-9 0 -16 -7 -16 -15 0 -8 9 -15 20 -15 11 0 20 -6 20 -14 0 -8 3 -17 8 -19 11
-8 9 47 -3 55 -6 5 -3 8 6 8 10 0 19 -11 23 -30 3 -16 10 -30 16 -30 11 0 8
22 -8 63 -11 27 -32 37 -32 16z"/>
<path d="M2605 5849 c5 -14 3 -19 -3 -15 -6 3 -13 2 -16 -3 -7 -11 5 -20 34
-26 25 -5 34 9 15 25 -8 7 -15 19 -15 26 0 8 -5 14 -11 14 -6 0 -8 -9 -4 -21z"/>
<path d="M2666 5854 c-10 -26 -7 -44 8 -44 8 0 13 11 12 30 -1 33 -10 39 -20
14z"/>
<path d="M2828 5863 c6 -3 12 -9 12 -14 0 -6 -5 -7 -11 -3 -6 3 -15 0 -20 -7
-13 -21 -11 -32 5 -26 8 3 16 1 18 -5 6 -17 47 13 45 33 -1 10 -5 15 -9 13 -4
-3 -8 -1 -8 3 0 5 -10 9 -22 10 -13 0 -17 -1 -10 -4z"/>
<path d="M2547 5831 c3 -12 10 -21 15 -21 13 0 6 32 -9 37 -7 3 -9 -3 -6 -16z"/>
<path d="M2250 5829 c0 -5 5 -7 10 -4 6 3 10 8 10 11 0 2 -4 4 -10 4 -5 0 -10
-5 -10 -11z"/>
<path d="M2896 5805 c4 -8 10 -15 15 -15 5 0 9 7 9 15 0 8 -7 15 -15 15 -9 0
-12 -6 -9 -15z"/>
<path d="M3185 5810 c-19 -7 -19 -8 -2 -15 10 -4 32 -5 50 -1 31 5 31 5 8 -8
l-24 -13 27 -7 c37 -9 68 2 64 22 -2 10 -8 17 -15 17 -6 0 -15 3 -19 8 -10 9
-63 8 -89 -3z"/>
<path d="M2201 5792 c-14 -27 -12 -35 8 -23 7 5 11 17 9 27 -4 17 -5 17 -17
-4z"/>
<path d="M2152 5788 c-15 -15 -16 -58 -2 -58 6 0 13 0 17 0 3 0 7 16 8 35 1
37 -4 42 -23 23z"/>
<path d="M2587 5781 c-4 -17 -3 -21 5 -13 5 5 8 16 6 23 -3 8 -7 3 -11 -10z"/>
<path d="M4815 5790 c3 -5 8 -10 11 -10 2 0 4 5 4 10 0 6 -5 10 -11 10 -5 0
-7 -4 -4 -10z"/>
<path d="M2082 5783 c3 -13 -12 -53 -21 -53 -5 0 -7 -12 -5 -27 1 -15 -1 -32
-6 -38 -4 -5 -8 -29 -8 -52 -1 -35 2 -40 13 -30 7 6 11 21 9 31 -2 11 4 28 12
38 9 9 14 24 11 31 -3 8 -2 18 3 23 14 15 16 77 2 82 -7 2 -12 0 -10 -5z"/>
<path d="M2640 5779 c0 -5 5 -7 10 -4 6 3 10 8 10 11 0 2 -4 4 -10 4 -5 0 -10
-5 -10 -11z"/>
<path d="M2732 5778 c-16 -16 -15 -28 2 -28 9 0 14 9 13 20 -1 11 -2 20 -2 20
-1 0 -6 -5 -13 -12z"/>
<path d="M2808 5783 c7 -3 16 -2 19 1 4 3 -2 6 -13 5 -11 0 -14 -3 -6 -6z"/>
<path d="M2555 5770 c3 -5 8 -10 11 -10 2 0 4 5 4 10 0 6 -5 10 -11 10 -5 0
-7 -4 -4 -10z"/>
<path d="M2905 5771 c-3 -5 -1 -12 4 -15 5 -3 11 1 15 9 6 16 -9 21 -19 6z"/>
<path d="M2950 5764 c0 -14 3 -14 15 -4 8 7 15 14 15 16 0 2 -7 4 -15 4 -8 0
-15 -7 -15 -16z"/>
<path d="M2690 5760 c0 -5 5 -10 10 -10 6 0 10 5 10 10 0 6 -4 10 -10 10 -5 0
-10 -4 -10 -10z"/>
<path d="M2768 5753 c7 -3 16 -2 19 1 4 3 -2 6 -13 5 -11 0 -14 -3 -6 -6z"/>
<path d="M3057 5753 c-4 -3 -7 -11 -7 -17 0 -6 5 -5 12 2 6 6 9 14 7 17 -3 3
-9 2 -12 -2z"/>
<path d="M2191 5734 c0 -11 3 -14 6 -6 3 7 2 16 -1 19 -3 4 -6 -2 -5 -13z"/>
<path d="M2380 5740 c0 -5 4 -10 9 -10 6 0 13 5 16 10 3 6 -1 10 -9 10 -9 0
-16 -4 -16 -10z"/>
<path d="M3253 5743 c-35 -5 -43 -17 -17 -27 23 -9 124 -7 124 2 0 7 -61 34
-71 30 -2 0 -19 -3 -36 -5z"/>
<path d="M2510 5730 c0 -5 5 -10 11 -10 5 0 7 5 4 10 -3 6 -8 10 -11 10 -2 0
-4 -4 -4 -10z"/>
<path d="M2318 5713 c7 -3 16 -2 19 1 4 3 -2 6 -13 5 -11 0 -14 -3 -6 -6z"/>
<path d="M2390 5710 c0 -5 5 -10 11 -10 5 0 7 5 4 10 -3 6 -8 10 -11 10 -2 0
-4 -4 -4 -10z"/>
<path d="M1852 5689 c-18 -28 -9 -34 22 -14 16 11 35 15 50 11 13 -3 32 -3 41
0 27 11 -3 24 -55 24 -35 0 -48 -5 -58 -21z"/>
<path d="M3284 5689 c-3 -6 -17 -8 -30 -5 -14 4 -24 2 -24 -4 0 -5 13 -10 29
-10 20 0 34 -8 45 -25 12 -18 13 -25 4 -25 -8 -1 -5 -7 7 -16 11 -8 19 -20 17
-26 -1 -6 5 -16 15 -23 10 -7 15 -16 12 -19 -3 -4 -23 7 -44 24 -21 16 -44 30
-51 30 -23 0 -16 -9 24 -29 38 -20 83 -61 65 -61 -5 0 -29 14 -51 30 -23 17
-42 26 -42 21 0 -5 23 -24 50 -42 46 -30 65 -59 39 -59 -8 0 -7 -6 2 -17 12
-15 12 -16 -3 -10 -21 8 -24 -6 -4 -22 21 -18 44 -211 24 -211 -4 0 -7 -36 -7
-80 0 -44 -4 -86 -8 -93 -4 -6 -8 -68 -8 -137 l0 -125 -47 -96 c-26 -53 -50
-110 -54 -125 -4 -16 -11 -34 -16 -41 -5 -7 -5 -14 2 -18 5 -3 10 0 10 9 0 8
3 16 8 18 4 2 15 19 25 38 14 28 17 30 13 10 -2 -14 -7 -36 -11 -50 -4 -14
-10 -41 -12 -60 -5 -31 -4 -33 10 -22 9 8 19 28 22 45 8 38 83 264 95 288 5 9
6 19 3 23 -4 3 -7 14 -8 24 -17 170 -17 193 -4 190 11 -2 13 12 11 67 -2 39
-5 84 -8 100 -4 28 -4 28 8 10 7 -11 18 -36 24 -55 9 -25 12 -29 13 -14 1 12
-5 39 -13 61 -8 22 -14 73 -14 115 0 41 -5 86 -12 99 -9 16 -10 24 -2 27 6 2
9 11 6 20 -3 9 6 -1 20 -23 34 -52 34 -27 0 30 -16 28 -23 52 -19 64 3 11 1
22 -5 26 -6 4 -8 15 -5 25 4 11 -1 20 -11 24 -13 5 -15 9 -6 18 9 9 6 19 -15
40 -26 27 -26 28 -5 28 33 0 26 19 -13 36 -41 17 -42 17 -51 3z"/>
<path d="M2150 5674 c0 -8 5 -12 10 -9 6 4 8 11 5 16 -9 14 -15 11 -15 -7z"/>
<path d="M2400 5679 c0 -5 5 -7 10 -4 6 3 10 8 10 11 0 2 -4 4 -10 4 -5 0 -10
-5 -10 -11z"/>
<path d="M3040 5686 c0 -9 30 -14 35 -6 4 6 -3 10 -14 10 -12 0 -21 -2 -21 -4z"/>
<path d="M1868 5655 c-30 -17 -65 -75 -44 -75 15 0 54 40 40 40 -5 1 8 10 29
21 20 11 37 22 37 24 0 10 -36 4 -62 -10z"/>
<path d="M1060 5650 c0 -5 5 -10 11 -10 5 0 7 5 4 10 -3 6 -8 10 -11 10 -2 0
-4 -4 -4 -10z"/>
<path d="M2367 5646 c-3 -8 1 -17 9 -20 8 -3 14 1 14 9 0 20 -17 28 -23 11z"/>
<path d="M1220 5630 c0 -5 5 -10 11 -10 5 0 7 5 4 10 -3 6 -8 10 -11 10 -2 0
-4 -4 -4 -10z"/>
<path d="M1841 5574 c-48 -48 -53 -81 -6 -39 17 14 45 35 62 48 38 26 42 38
11 35 -13 0 -43 -20 -67 -44z"/>
<path d="M2439 5611 c12 -8 51 -4 51 5 0 2 -15 4 -32 4 -23 0 -29 -3 -19 -9z"/>
<path d="M2053 5563 c-17 -6 -17 -23 0 -23 8 0 14 7 14 15 0 8 -1 15 -1 14 -1
0 -7 -3 -13 -6z"/>
<path d="M1872 5543 c-7 -3 -22 -22 -32 -44 -11 -21 -25 -39 -30 -39 -6 0 -10
-5 -10 -11 0 -8 6 -7 17 2 15 12 16 12 9 -6 -4 -11 -9 -58 -12 -105 -2 -47 -7
-98 -10 -114 -5 -21 -3 -27 6 -21 9 6 11 0 8 -24 -2 -17 -1 -31 2 -31 4 0 10
-93 14 -207 8 -253 7 -244 26 -241 17 4 18 30 2 178 -14 132 -15 387 -2 395 5
3 10 13 10 22 0 14 -3 14 -20 -2 -28 -25 -26 -4 5 61 14 30 37 61 50 70 14 9
25 23 25 32 0 11 -12 4 -38 -21 -21 -20 -41 -37 -45 -37 -16 0 -5 30 16 45 18
13 20 17 7 25 -12 7 -12 12 4 29 20 21 18 51 -2 44z"/>
<path d="M2478 5543 c7 -3 16 -2 19 1 4 3 -2 6 -13 5 -11 0 -14 -3 -6 -6z"/>
<path d="M950 5530 c0 -5 5 -10 11 -10 5 0 7 5 4 10 -3 6 -8 10 -11 10 -2 0
-4 -4 -4 -10z"/>
<path d="M1900 5529 c0 -5 5 -7 10 -4 6 3 10 8 10 11 0 2 -4 4 -10 4 -5 0 -10
-5 -10 -11z"/>
<path d="M2061 5504 c0 -11 3 -14 6 -6 3 7 2 16 -1 19 -3 4 -6 -2 -5 -13z"/>
<path d="M1767 5503 c-2 -5 -5 -25 -5 -47 -1 -21 -5 -43 -10 -50 -12 -16 -5
-309 8 -371 5 -21 -1 -27 -14 -16 -19 16 -74 17 -89 2 -8 -8 -12 -46 -12 -105
l-1 -93 -37 -32 c-45 -40 -48 -60 -9 -53 15 3 30 9 33 15 12 18 29 -4 29 -37
0 -17 6 -38 12 -44 10 -10 10 -15 -1 -21 -8 -5 -10 -14 -6 -21 6 -9 10 -9 17
1 6 10 7 7 3 -8 -4 -14 -2 -23 5 -23 6 0 8 -10 4 -25 -5 -19 -2 -25 10 -25 12
0 16 -7 13 -27 -2 -16 2 -32 8 -38 15 -13 55 -120 55 -149 0 -12 -6 -28 -12
-35 -11 -11 -10 -14 0 -18 6 -3 9 -9 6 -15 -4 -6 -2 -13 4 -17 6 -4 13 -51 16
-106 4 -55 9 -122 13 -150 4 -27 7 -57 8 -65 1 -8 5 -23 10 -33 10 -23 -10
-67 -30 -67 -8 0 -15 -6 -15 -13 0 -6 -13 -25 -30 -40 -16 -16 -30 -33 -30
-38 0 -6 -5 -7 -12 -3 -7 5 -9 2 -5 -9 3 -9 0 -18 -9 -21 -8 -3 -14 -13 -14
-21 0 -9 -5 -13 -10 -10 -6 4 -9 3 -8 -2 4 -14 -13 -53 -23 -53 -5 0 -14 -11
-19 -25 -5 -14 -17 -25 -26 -25 -10 0 -14 -5 -10 -15 3 -8 1 -15 -4 -15 -13 0
-50 -37 -50 -50 0 -5 -4 -10 -8 -10 -5 0 -26 -18 -48 -40 -21 -22 -44 -40 -51
-40 -7 0 -16 -6 -20 -13 -9 -15 -61 -36 -108 -43 -16 -3 -37 -14 -46 -24 -9
-11 -19 -16 -23 -13 -11 12 -44 -28 -50 -61 -4 -18 -15 -41 -26 -51 -11 -10
-20 -28 -20 -41 0 -13 -4 -26 -10 -29 -11 -7 -32 -50 -61 -129 -15 -42 -18
-60 -10 -65 9 -6 5 -34 -12 -107 -14 -54 -25 -109 -25 -121 -1 -33 23 -28 26
4 1 15 10 65 19 113 9 47 16 98 15 114 -2 40 48 180 60 168 6 -6 5 -18 -2 -32
-16 -30 -6 -36 27 -14 23 15 25 19 11 22 -28 6 -22 63 13 129 36 66 59 95 59
74 0 -7 14 1 30 19 32 34 49 36 32 3 -6 -10 -16 -33 -23 -51 -8 -23 -15 -30
-22 -23 -13 13 -30 14 -22 2 3 -5 -4 -16 -16 -24 -12 -9 -16 -16 -9 -19 9 -3
8 -17 -3 -56 -9 -28 -12 -54 -7 -57 11 -7 22 11 26 40 3 36 35 95 55 106 11 5
19 14 19 19 0 23 43 100 56 100 19 0 18 -4 -9 -48 -13 -20 -38 -67 -56 -104
-18 -38 -36 -68 -42 -68 -6 0 -6 -7 0 -19 6 -10 8 -21 5 -24 -10 -10 -43 -222
-45 -287 -2 -61 -2 -61 -46 -86 -23 -14 -43 -28 -43 -30 0 -13 50 -1 68 16 28
27 30 26 38 -15 7 -37 18 -45 28 -20 6 16 -13 55 -26 55 -15 0 8 229 29 280 3
8 7 33 9 55 4 49 42 149 82 214 16 26 32 56 36 68 4 11 23 32 44 45 34 23 162
145 188 179 6 8 44 61 85 118 41 57 93 121 117 142 l44 38 -16 93 c-9 51 -20
178 -26 282 -6 104 -13 192 -16 197 -3 5 -11 9 -18 9 -8 0 -15 17 -18 43 -3
23 -16 67 -30 97 -42 91 -68 213 -68 316 0 51 3 99 6 108 10 27 37 18 74 -26
42 -48 64 -46 49 5 -18 60 -23 131 -23 335 1 111 0 202 -2 202 -2 0 -5 -3 -7
-7z"/>
<path d="M2318 5503 c6 -2 18 -2 25 0 6 3 1 5 -13 5 -14 0 -19 -2 -12 -5z"/>
<path d="M2605 5500 c-3 -5 -1 -10 4 -10 6 0 11 5 11 10 0 6 -2 10 -4 10 -3 0
-8 -4 -11 -10z"/>
<path d="M3270 5500 c0 -5 5 -10 11 -10 5 0 7 5 4 10 -3 6 -8 10 -11 10 -2 0
-4 -4 -4 -10z"/>
<path d="M2800 5470 c-18 -12 -2 -12 25 0 13 6 15 9 5 9 -8 0 -22 -4 -30 -9z"/>
<path d="M3282 5461 c7 -12 19 -21 26 -21 17 0 7 17 -19 31 -18 9 -19 9 -7
-10z"/>
<path d="M2373 5462 c-6 -4 -15 -20 -18 -35 -4 -15 -12 -27 -17 -27 -6 0 -8 6
-5 14 3 8 -1 17 -9 20 -9 3 -12 10 -9 16 3 5 -1 10 -9 10 -10 0 -13 -6 -9 -17
5 -12 2 -15 -10 -10 -11 4 -17 1 -17 -8 0 -9 10 -15 25 -15 14 0 25 -4 25 -9
0 -5 8 -11 19 -14 21 -5 63 34 43 41 -7 2 -12 8 -12 14 0 7 14 8 37 5 27 -5
33 -3 25 5 -15 15 -44 19 -59 10z"/>
<path d="M2460 5450 c0 -17 17 -47 23 -40 2 3 -2 16 -10 30 -7 14 -13 18 -13
10z"/>
<path d="M2835 5450 c-3 -5 1 -10 9 -10 9 0 16 5 16 10 0 6 -4 10 -9 10 -6 0
-13 -4 -16 -10z"/>
<path d="M401 5434 c0 -11 3 -14 6 -6 3 7 2 16 -1 19 -3 4 -6 -2 -5 -13z"/>
<path d="M2744 5435 c-4 -10 2 -24 14 -36 22 -20 48 -26 37 -9 -4 6 -3 10 2 9
18 -3 33 2 33 11 0 6 -16 10 -36 10 -19 0 -33 4 -29 9 3 5 1 12 -5 16 -6 3
-13 -1 -16 -10z"/>
<path d="M2790 5440 c0 -5 7 -10 16 -10 8 0 12 5 9 10 -3 6 -10 10 -16 10 -5
0 -9 -4 -9 -10z"/>
<path d="M2199 5423 c-13 -16 -12 -17 4 -4 9 7 17 15 17 17 0 8 -8 3 -21 -13z"/>
<path d="M2160 5420 c0 -5 5 -10 10 -10 6 0 10 5 10 10 0 6 -4 10 -10 10 -5 0
-10 -4 -10 -10z"/>
<path d="M2525 5420 c-3 -5 -1 -10 4 -10 6 0 11 5 11 10 0 6 -2 10 -4 10 -3 0
-8 -4 -11 -10z"/>
<path d="M2666 5414 c-5 -14 -4 -15 8 -5 11 10 15 9 19 -4 4 -13 5 -12 3 1 -2
24 -22 29 -30 8z"/>
<path d="M1241 5404 c0 -11 3 -14 6 -6 3 7 2 16 -1 19 -3 4 -6 -2 -5 -13z"/>
<path d="M2070 5400 c0 -5 5 -10 11 -10 5 0 7 5 4 10 -3 6 -8 10 -11 10 -2 0
-4 -4 -4 -10z"/>
<path d="M2440 5395 c-18 -21 -3 -32 16 -13 10 9 12 18 6 22 -5 3 -15 -1 -22
-9z"/>
<path d="M2714 5393 c1 -18 24 -42 39 -43 12 0 8 31 -7 46 -20 19 -34 18 -32
-3z"/>
<path d="M2290 5385 c0 -8 4 -15 8 -15 5 0 9 7 9 15 0 8 -4 15 -9 15 -4 0 -8
-7 -8 -15z"/>
<path d="M2870 5393 c5 -2 8 -9 4 -14 -3 -5 0 -9 6 -9 15 0 7 23 -8 26 -7 1
-8 0 -2 -3z"/>
<path d="M2244 5374 c2 -10 8 -20 14 -22 17 -5 15 13 -2 27 -12 10 -14 9 -12
-5z"/>
<path d="M2465 5370 c-26 -17 -27 -20 -9 -20 11 0 29 9 39 20 23 26 9 26 -30
0z"/>
<path d="M2666 5382 c-8 -13 11 -35 23 -28 17 11 13 26 -6 19 -11 -4 -14 -3
-9 5 4 7 5 12 2 12 -3 0 -7 -4 -10 -8z"/>
<path d="M2060 5358 c0 -4 4 -8 9 -8 6 0 12 4 15 8 3 5 -1 9 -9 9 -8 0 -15 -4
-15 -9z"/>
<path d="M2370 5360 c0 -5 4 -10 9 -10 6 0 13 5 16 10 3 6 -1 10 -9 10 -9 0
-16 -4 -16 -10z"/>
<path d="M2630 5360 c-12 -8 -10 -10 8 -10 13 0 20 4 17 10 -7 12 -6 12 -25 0z"/>
<path d="M2796 5361 c-4 -7 -5 -15 -2 -18 9 -9 19 4 14 18 -4 11 -6 11 -12 0z"/>
<path d="M2587 5343 c-4 -3 -7 -11 -7 -17 0 -6 5 -5 12 2 6 6 9 14 7 17 -3 3
-9 2 -12 -2z"/>
<path d="M2350 5330 c0 -5 5 -10 11 -10 5 0 7 5 4 10 -3 6 -8 10 -11 10 -2 0
-4 -4 -4 -10z"/>
<path d="M2250 5320 c0 -5 5 -10 10 -10 6 0 10 5 10 10 0 6 -4 10 -10 10 -5 0
-10 -4 -10 -10z"/>
<path d="M2070 5315 c0 -5 -32 -43 -70 -83 -91 -96 -115 -164 -114 -322 0 -59
6 -114 12 -125 11 -19 11 -19 12 3 0 12 4 22 9 22 5 0 15 20 23 45 11 34 12
45 3 45 -6 0 -18 -19 -26 -42 l-14 -43 -3 64 c-4 75 21 192 51 241 11 19 47
63 79 98 32 34 58 66 58 70 0 12 -20 38 -20 27z"/>
<path d="M3332 5300 c0 -14 2 -19 5 -12 2 6 2 18 0 25 -3 6 -5 1 -5 -13z"/>
<path d="M2185 5300 c-3 -6 -18 -7 -33 -4 -15 3 -22 2 -16 -3 6 -4 10 -15 9
-24 -2 -12 3 -15 16 -12 20 6 32 19 35 41 3 15 -3 16 -11 2z"/>
<path d="M1910 5274 c0 -28 15 -25 23 6 3 13 0 20 -9 20 -8 0 -14 -10 -14 -26z"/>
<path d="M3120 5285 c-9 -11 -4 -20 21 -42 17 -15 45 -41 60 -58 16 -16 29
-24 29 -17 0 22 -18 50 -60 91 -31 31 -42 36 -50 26z"/>
<path d="M2972 5283 c-6 -3 -10 -9 -7 -13 3 -5 -9 -9 -27 -8 -72 2 -98 -2 -98
-16 0 -21 12 -25 40 -14 14 6 42 10 63 9 26 -2 39 2 43 13 8 21 2 34 -14 29z"/>
<path d="M3033 5283 c-36 -5 -44 -18 -15 -25 9 -3 31 4 47 14 17 10 23 17 15
16 -8 -1 -30 -3 -47 -5z"/>
<path d="M2110 5265 c0 -8 4 -15 10 -15 5 0 7 7 4 15 -4 8 -8 15 -10 15 -2 0
-4 -7 -4 -15z"/>
<path d="M2215 5270 c3 -5 1 -10 -5 -10 -6 0 -8 -5 -5 -10 4 -6 11 -8 16 -5
12 8 11 35 -2 35 -5 0 -7 -4 -4 -10z"/>
<path d="M2238 5256 c-4 -21 -1 -26 16 -28 79 -5 160 -16 179 -23 9 -4 17 -3
17 3 0 9 -18 20 -45 28 -89 25 -116 29 -129 22 -10 -6 -18 -3 -24 8 -8 14 -10
12 -14 -10z"/>
<path d="M2648 5273 c7 -3 16 -2 19 1 4 3 -2 6 -13 5 -11 0 -14 -3 -6 -6z"/>
<path d="M3233 5250 c1 -11 4 -20 7 -20 4 0 8 -26 9 -57 2 -62 9 -82 21 -62
17 26 -10 159 -32 159 -4 0 -6 -9 -5 -20z"/>
<path d="M3548 5263 c7 -3 16 -2 19 1 4 3 -2 6 -13 5 -11 0 -14 -3 -6 -6z"/>
<path d="M2765 5240 c-17 -19 -17 -20 1 -27 10 -4 19 -2 22 5 2 6 9 9 17 6 7
-3 16 -1 20 5 5 10 -1 13 -21 10 -4 0 -10 4 -14 10 -4 8 -13 5 -25 -9z"/>
<path d="M4388 5223 c7 -3 16 -2 19 1 4 3 -2 6 -13 5 -11 0 -14 -3 -6 -6z"/>
<path d="M1890 5205 c0 -8 5 -15 10 -15 6 0 10 7 10 15 0 8 -4 15 -10 15 -5 0
-10 -7 -10 -15z"/>
<path d="M4850 5216 c0 -2 7 -7 16 -10 8 -3 12 -2 9 4 -6 10 -25 14 -25 6z"/>
<path d="M1887 5160 c-3 -11 -1 -20 4 -20 5 0 9 9 9 20 0 11 -2 20 -4 20 -2 0
-6 -9 -9 -20z"/>
<path d="M3546 5157 c3 -10 9 -15 12 -12 3 3 0 11 -7 18 -10 9 -11 8 -5 -6z"/>
<path d="M1286 5137 c3 -10 9 -15 12 -12 3 3 0 11 -7 18 -10 9 -11 8 -5 -6z"/>
<path d="M3285 5120 c-3 -11 -3 -30 0 -42 9 -33 35 -88 41 -88 7 0 0 54 -8 60
-4 3 -8 23 -10 44 -3 43 -14 56 -23 26z"/>
<path d="M2144 5045 c-4 -8 -10 -12 -15 -9 -5 3 -9 1 -9 -4 0 -6 -13 -15 -30
-21 -16 -5 -30 -15 -30 -20 0 -16 26 -13 40 4 7 8 16 12 21 10 4 -3 15 8 24
25 8 16 13 30 10 30 -3 0 -8 -7 -11 -15z"/>
<path d="M3059 5036 c13 -15 60 -30 68 -22 5 4 -61 36 -74 36 -3 0 0 -6 6 -14z"/>
<path d="M2208 5023 c-40 -20 -35 -30 14 -29 45 1 58 15 31 32 -13 7 -26 6
-45 -3z"/>
<path d="M2880 5029 c0 -5 5 -7 10 -4 6 3 10 8 10 11 0 2 -4 4 -10 4 -5 0 -10
-5 -10 -11z"/>
<path d="M2946 5031 c-16 -6 -8 -10 32 -18 32 -6 55 -7 58 -1 3 5 4 11 3 13
-10 9 -76 13 -93 6z"/>
<path d="M2558 5013 c-3 -13 -2 -23 4 -23 5 0 2 -7 -6 -16 -11 -10 -14 -24
-10 -42 4 -15 6 -43 5 -62 0 -35 0 -55 3 -100 0 -14 -1 -25 -4 -25 -8 -1 -73
-39 -93 -55 -10 -8 -30 -34 -44 -58 l-26 -44 22 -21 c22 -21 22 -21 20 -2 -4
26 29 93 51 105 10 5 37 12 61 16 24 4 47 12 51 18 5 7 8 5 8 -6 0 -14 4 -15
30 -5 34 13 35 32 0 32 -18 0 -23 6 -26 29 -2 16 0 34 3 40 4 6 8 35 10 66 3
71 5 80 13 80 12 0 -2 54 -18 70 -12 11 -16 12 -20 2 -6 -18 -20 -15 -24 6 -3
14 -5 13 -10 -5z"/>
<path d="M2835 5020 c-3 -6 1 -7 9 -4 18 7 21 14 7 14 -6 0 -13 -4 -16 -10z"/>
<path d="M2924 4996 c-8 -20 13 -46 36 -46 26 0 50 11 50 22 0 6 -6 8 -14 5
-8 -3 -26 3 -40 14 -23 18 -27 19 -32 5z"/>
<path d="M3630 4990 c0 -5 5 -10 11 -10 5 0 7 5 4 10 -3 6 -8 10 -11 10 -2 0
-4 -4 -4 -10z"/>
<path d="M2199 4960 c25 -22 57 -25 81 -10 8 5 11 10 5 11 -10 1 -17 2 -80 13
l-30 6 24 -20z"/>
<path d="M4478 4963 c7 -3 16 -2 19 1 4 3 -2 6 -13 5 -11 0 -14 -3 -6 -6z"/>
<path d="M2880 4945 c7 -8 20 -15 29 -15 13 1 13 3 -3 15 -26 19 -42 19 -26 0z"/>
<path d="M4718 4953 c7 -3 16 -2 19 1 4 3 -2 6 -13 5 -11 0 -14 -3 -6 -6z"/>
<path d="M3025 4943 c-35 -8 -43 -25 -10 -19 17 2 38 5 48 5 10 1 15 6 12 11
-6 10 -16 11 -50 3z"/>
<path d="M2156 4931 c-3 -4 -18 -6 -33 -3 -16 2 -25 1 -21 -3 12 -13 88 -23
94 -13 4 6 0 14 -7 19 -18 11 -26 11 -33 0z"/>
<path d="M3495 4888 c-4 -14 0 -41 9 -63 9 -21 16 -46 16 -57 0 -12 4 -16 11
-12 15 9 3 109 -16 137 -14 20 -14 20 -20 -5z"/>
<path d="M1712 4887 c-17 -20 -28 -87 -15 -87 12 0 37 73 31 90 -3 9 -7 8 -16
-3z"/>
<path d="M1771 4874 c0 -11 3 -14 6 -6 3 7 2 16 -1 19 -3 4 -6 -2 -5 -13z"/>
<path d="M1980 4845 c-10 -12 -10 -15 4 -15 9 0 16 7 16 15 0 8 -2 15 -4 15
-2 0 -9 -7 -16 -15z"/>
<path d="M4855 4840 c3 -5 8 -10 11 -10 2 0 4 5 4 10 0 6 -5 10 -11 10 -5 0
-7 -4 -4 -10z"/>
<path d="M2020 4821 c0 -6 -6 -10 -12 -8 -8 1 -14 -10 -15 -28 -1 -16 0 -23 4
-15 3 8 14 22 26 31 13 11 16 18 8 23 -6 4 -11 2 -11 -3z"/>
<path d="M612 4795 c0 -16 2 -22 5 -12 2 9 2 23 0 30 -3 6 -5 -1 -5 -18z"/>
<path d="M4370 4810 c0 -6 7 -10 15 -10 8 0 15 2 15 4 0 2 -7 6 -15 10 -8 3
-15 1 -15 -4z"/>
<path d="M3450 4799 c0 -3 7 -21 16 -39 9 -18 19 -52 21 -75 5 -38 2 -45 -32
-78 -21 -21 -35 -40 -31 -44 9 -9 85 77 86 98 0 24 -31 112 -46 129 -8 8 -14
12 -14 9z"/>
<path d="M1180 4779 c0 -5 5 -7 10 -4 6 3 10 8 10 11 0 2 -4 4 -10 4 -5 0 -10
-5 -10 -11z"/>
<path d="M3270 4753 c0 -28 3 -34 10 -23 13 20 13 47 0 55 -6 4 -10 -9 -10
-32z"/>
<path d="M2061 4766 c-8 -10 -9 -16 -1 -21 5 -3 13 1 16 10 9 22 -1 29 -15 11z"/>
<path d="M4270 4755 c0 -14 0 -28 1 -31 0 -4 -3 -10 -8 -13 -5 -3 -4 -16 2
-29 12 -22 12 -22 30 -2 11 12 13 20 6 20 -9 0 -9 5 -1 20 8 14 8 26 0 40 -15
28 -30 25 -30 -5z"/>
<path d="M2110 4745 c0 -8 2 -15 4 -15 2 0 6 7 10 15 3 8 1 15 -4 15 -6 0 -10
-7 -10 -15z"/>
<path d="M1727 4726 c-4 -11 -3 -24 3 -30 14 -14 18 -5 10 24 -5 23 -7 23 -13
6z"/>
<path d="M1878 4704 c-10 -20 -13 -36 -8 -39 6 -4 10 -16 10 -28 0 -24 22 -93
33 -103 9 -9 9 -67 1 -88 -4 -9 -18 -16 -34 -16 -16 0 -31 -3 -33 -7 -12 -22
22 -452 45 -571 5 -30 11 -68 13 -85 8 -94 29 -230 33 -217 6 16 -14 207 -29
284 -7 36 -6 55 4 75 38 75 110 201 118 206 5 3 -5 34 -22 68 -33 64 -69 212
-69 284 0 47 -25 154 -39 162 -11 8 -20 71 -10 77 4 2 11 -11 15 -31 3 -19 9
-35 13 -35 3 0 12 -15 20 -32 8 -18 21 -42 29 -53 29 -40 5 36 -35 111 l-38
71 -17 -33z m37 -351 c-2 -8 -1 -12 4 -9 4 3 11 -15 15 -40 3 -25 12 -60 20
-77 26 -60 30 -72 31 -99 0 -16 -2 -28 -6 -28 -4 0 -12 -13 -18 -30 -5 -16
-14 -30 -20 -30 -5 0 -12 -13 -16 -30 -4 -16 -10 -30 -15 -30 -8 0 -20 81 -19
120 1 8 -2 70 -6 136 -5 85 -4 124 4 128 6 4 11 12 11 17 0 6 -6 7 -12 3 -8
-5 -7 -1 1 10 14 17 15 17 23 -5 5 -12 6 -29 3 -36z"/>
<path d="M1595 4720 c-3 -5 -1 -10 4 -10 6 0 11 5 11 10 0 6 -2 10 -4 10 -3 0
-8 -4 -11 -10z"/>
<path d="M1955 4721 c-3 -5 -1 -12 5 -16 5 -3 10 1 10 9 0 18 -6 21 -15 7z"/>
<path d="M2690 4720 c0 -5 13 -23 30 -40 49 -50 63 -77 55 -107 -6 -26 -5 -27
10 -12 25 25 11 72 -39 124 -42 45 -56 54 -56 35z"/>
<path d="M4950 4710 c0 -5 5 -10 11 -10 5 0 7 5 4 10 -3 6 -8 10 -11 10 -2 0
-4 -4 -4 -10z"/>
<path d="M1055 4700 c3 -5 8 -10 11 -10 2 0 4 5 4 10 0 6 -5 10 -11 10 -5 0
-7 -4 -4 -10z"/>
<path d="M1967 4679 c7 -7 15 -10 18 -7 3 3 -2 9 -12 12 -14 6 -15 5 -6 -5z"/>
<path d="M1810 4668 c0 -10 4 -18 9 -18 5 0 12 -8 14 -17 4 -14 5 -15 6 -2 0
8 -6 24 -14 35 -13 17 -14 17 -15 2z"/>
<path d="M1050 4650 c0 -5 5 -10 11 -10 5 0 7 5 4 10 -3 6 -8 10 -11 10 -2 0
-4 -4 -4 -10z"/>
<path d="M3426 4645 c4 -8 8 -15 10 -15 2 0 4 7 4 15 0 8 -4 15 -10 15 -5 0
-7 -7 -4 -15z"/>
<path d="M4010 4650 c0 -6 7 -10 15 -10 8 0 15 2 15 4 0 2 -7 6 -15 10 -8 3
-15 1 -15 -4z"/>
<path d="M715 4640 c3 -5 8 -10 11 -10 2 0 4 5 4 10 0 6 -5 10 -11 10 -5 0 -7
-4 -4 -10z"/>
<path d="M745 4620 c3 -5 8 -10 11 -10 2 0 4 5 4 10 0 6 -5 10 -11 10 -5 0 -7
-4 -4 -10z"/>
<path d="M1404 4608 c-16 -13 -34 -27 -40 -33 -6 -5 -25 -21 -43 -35 -18 -14
-38 -30 -44 -35 -7 -6 -79 -64 -162 -129 -199 -158 -251 -200 -309 -250 -91
-76 -200 -171 -217 -186 -8 -8 -31 -28 -50 -45 -123 -107 -440 -413 -509 -491
-18 -21 -30 -45 -29 -62 0 -24 1 -25 9 -7 15 35 445 449 630 606 41 35 84 72
95 82 11 10 52 44 90 75 39 31 75 62 81 67 6 6 26 21 44 35 29 22 91 71 127
100 6 5 76 60 155 122 136 107 172 135 208 159 11 8 12 12 3 15 -7 3 -9 12 -6
20 7 19 1 18 -33 -8z"/>
<path d="M1750 4612 c0 -19 35 -41 50 -31 13 8 12 12 -4 24 -22 16 -46 20 -46
7z"/>
<path d="M2720 4600 c0 -5 7 -10 15 -10 8 0 15 5 15 10 0 6 -7 10 -15 10 -8 0
-15 -4 -15 -10z"/>
<path d="M3390 4596 c0 -9 5 -16 10 -16 6 0 10 4 10 9 0 6 -4 13 -10 16 -5 3
-10 -1 -10 -9z"/>
<path d="M1775 4550 c-3 -5 -2 -10 3 -10 5 0 13 -10 17 -22 6 -20 8 -20 12 -6
5 21 -22 54 -32 38z"/>
<path d="M2372 4525 c3 -14 1 -23 -6 -22 -6 1 -12 -10 -14 -25 -2 -16 2 -28 8
-28 6 0 10 6 8 14 -2 8 2 16 7 18 6 2 11 -6 13 -17 3 -20 52 -52 52 -34 0 5
-5 9 -12 9 -6 0 -8 3 -5 7 4 3 3 11 -2 17 -5 6 -14 28 -20 49 -14 41 -36 51
-29 12z"/>
<path d="M2740 4540 c0 -5 5 -10 10 -10 6 0 10 5 10 10 0 6 -4 10 -10 10 -5 0
-10 -4 -10 -10z"/>
<path d="M3428 4544 c-5 -4 -8 -23 -7 -43 0 -34 1 -34 10 -11 11 27 8 66 -3
54z"/>
<path d="M1953 4500 c56 -225 72 -279 79 -272 5 5 -3 50 -17 103 -14 52 -31
112 -37 134 -12 44 -35 77 -25 35z"/>
<path d="M4251 4488 c-10 -28 -9 -35 6 -46 15 -11 20 -10 30 5 7 9 10 19 5 22
-4 3 -7 12 -8 19 -2 27 -4 32 -13 32 -5 0 -14 -15 -20 -32z"/>
<path d="M3720 4460 c0 -5 5 -10 10 -10 6 0 10 5 10 10 0 6 -4 10 -10 10 -5 0
-10 -4 -10 -10z"/>
<path d="M3411 4448 c-1 -25 10 -49 20 -42 5 3 9 14 9 25 0 11 -4 18 -9 15 -5
-4 -12 0 -14 6 -4 8 -6 7 -6 -4z"/>
<path d="M2320 4428 c0 -12 3 -18 7 -14 11 10 12 36 2 36 -5 0 -9 -10 -9 -22z"/>
<path d="M3217 4443 c-4 -3 -7 -11 -7 -17 0 -6 5 -5 12 2 6 6 9 14 7 17 -3 3
-9 2 -12 -2z"/>
<path d="M2355 4430 c3 -5 8 -10 11 -10 2 0 4 5 4 10 0 6 -5 10 -11 10 -5 0
-7 -4 -4 -10z"/>
<path d="M3727 4433 c-10 -10 -8 -93 2 -93 19 0 30 28 24 63 -5 36 -13 44 -26
30z"/>
<path d="M738 4423 c7 -3 16 -2 19 1 4 3 -2 6 -13 5 -11 0 -14 -3 -6 -6z"/>
<path d="M3290 4355 c3 -32 13 -63 23 -72 16 -16 17 -14 17 45 0 50 -3 63 -19
72 -11 5 -21 10 -23 10 -2 0 -1 -25 2 -55z"/>
<path d="M4254 4397 c-6 -17 1 -63 9 -59 4 1 11 2 16 2 7 0 8 35 3 63 -3 12
-22 8 -28 -6z"/>
<path d="M3245 4358 c-21 -82 -29 -107 -41 -135 -16 -36 -18 -53 -5 -53 15 0
52 100 58 156 6 55 -1 72 -12 32z"/>
<path d="M2471 4349 c-7 -12 -15 -18 -18 -15 -7 7 -63 -22 -63 -34 0 -4 -8
-11 -17 -13 -14 -4 -14 -5 3 -6 12 0 27 5 33 12 6 8 29 20 51 27 42 14 45 17
32 37 -6 9 -11 6 -21 -8z"/>
<path d="M3197 4363 c-4 -3 -7 -18 -6 -32 1 -26 1 -25 10 3 9 31 7 41 -4 29z"/>
<path d="M3362 4324 c2 -27 8 -48 13 -46 15 3 12 85 -3 90 -10 3 -12 -8 -10
-44z"/>
<path d="M4459 4347 c6 -8 7 -18 3 -22 -4 -5 -1 -5 6 -1 10 6 10 11 1 22 -6 8
-14 14 -16 14 -3 0 0 -6 6 -13z"/>
<path d="M2512 4341 c2 -7 7 -12 11 -12 12 1 9 15 -3 20 -7 2 -11 -2 -8 -8z"/>
<path d="M2609 4323 c-13 -16 -12 -17 4 -4 16 13 21 21 13 21 -2 0 -10 -8 -17
-17z"/>
<path d="M3727 4323 c-6 -9 -10 -48 -8 -75 1 -10 9 -18 18 -18 9 0 14 3 10 6
-3 3 -2 16 2 28 8 21 -12 75 -22 59z"/>
<path d="M3855 4320 c-3 -5 -1 -10 4 -10 6 0 11 5 11 10 0 6 -2 10 -4 10 -3 0
-8 -4 -11 -10z"/>
<path d="M3172 4290 c0 -19 2 -27 5 -17 2 9 2 25 0 35 -3 9 -5 1 -5 -18z"/>
<path d="M4595 4300 c-3 -5 1 -10 10 -10 9 0 13 5 10 10 -3 6 -8 10 -10 10 -2
0 -7 -4 -10 -10z"/>
<path d="M3289 4270 c-7 -91 -7 -110 0 -110 5 0 11 12 13 28 3 15 8 34 12 42
3 9 0 24 -8 35 -12 16 -16 17 -17 5z"/>
<path d="M2348 4263 c7 -3 16 -2 19 1 4 3 -2 6 -13 5 -11 0 -14 -3 -6 -6z"/>
<path d="M3153 4235 c0 -8 4 -12 9 -9 4 3 8 9 8 15 0 5 -4 9 -8 9 -5 0 -9 -7
-9 -15z"/>
<path d="M3374 4108 c1 -136 2 -144 25 -170 13 -15 28 -25 33 -22 18 11 8 122
-17 188 -14 37 -25 79 -25 94 0 15 -4 33 -9 40 -5 8 -8 -48 -7 -130z"/>
<path d="M285 4230 c-3 -5 -1 -10 4 -10 6 0 11 5 11 10 0 6 -2 10 -4 10 -3 0
-8 -4 -11 -10z"/>
<path d="M3416 4203 c4 -15 16 -47 26 -71 23 -52 35 -169 20 -210 -9 -27 -7
-33 18 -57 16 -15 34 -40 40 -56 7 -16 16 -29 21 -29 5 0 9 -8 9 -18 0 -10 3
-22 7 -26 4 -3 14 -35 23 -70 21 -80 75 -161 148 -222 31 -27 76 -68 100 -91
24 -24 48 -43 53 -43 21 0 6 24 -43 72 -191 183 -226 224 -214 253 3 8 2 15
-3 15 -10 0 -36 58 -29 65 3 3 17 -4 31 -16 15 -11 31 -18 36 -14 5 3 12 1 16
-5 9 -14 25 -13 25 3 0 6 -5 19 -10 27 -8 13 -11 12 -24 -5 -15 -19 -15 -19
-16 8 0 27 -13 36 -25 17 -9 -14 -35 7 -35 26 0 8 -4 14 -10 14 -5 0 -10 11
-10 25 0 14 -4 25 -10 25 -5 0 -20 17 -33 38 -26 40 -42 92 -30 92 13 0 4 106
-12 136 -13 25 -13 29 1 37 13 7 13 11 2 25 -10 12 -10 14 0 8 6 -4 12 -3 12
2 0 5 -11 14 -25 20 -14 6 -25 16 -25 21 0 6 -9 15 -20 21 -19 10 -20 9 -14
-17z"/>
<path d="M3720 4201 c0 -11 6 -22 13 -24 10 -4 10 -6 0 -6 -21 -2 -14 -21 7
-21 22 0 25 7 11 29 -7 10 -4 19 7 28 15 11 14 12 -10 13 -21 0 -28 -5 -28
-19z"/>
<path d="M3318 4205 c-8 -8 3 -250 11 -258 5 -5 10 50 10 121 2 115 -4 153
-21 137z"/>
<path d="M2470 4179 c0 -11 5 -19 10 -19 6 0 10 4 10 9 0 5 7 12 16 15 8 3 12
2 9 -4 -3 -6 1 -10 10 -10 31 0 8 25 -23 26 -25 1 -32 -3 -32 -17z"/>
<path d="M3223 4158 c-22 -43 -23 -54 -26 -288 -3 -163 28 -445 34 -315 3 71
1 147 -6 258 -6 81 -5 107 4 107 8 0 10 8 6 20 -4 11 -2 20 4 20 6 0 11 -8 11
-19 0 -12 7 -18 18 -17 12 1 18 -8 20 -31 4 -43 22 -43 22 0 0 38 -11 54 -57
86 -38 26 -43 44 -10 39 28 -4 32 23 14 115 l-13 69 -21 -44z"/>
<path d="M2433 4175 c0 -9 4 -14 9 -13 5 2 10 8 10 13 0 5 -5 11 -10 13 -5 1
-9 -4 -9 -13z"/>
<path d="M2610 4180 c0 -5 5 -10 10 -10 6 0 10 5 10 10 0 6 -4 10 -10 10 -5 0
-10 -4 -10 -10z"/>
<path d="M2656 4181 c-4 -7 -5 -15 -2 -18 9 -9 19 4 14 18 -4 11 -6 11 -12 0z"/>
<path d="M2560 4176 c0 -2 7 -7 16 -10 8 -3 12 -2 9 4 -6 10 -25 14 -25 6z"/>
<path d="M3510 4160 c-1 -8 -2 -19 -1 -24 1 -5 -4 -13 -11 -17 -10 -7 -10 -9
0 -10 6 -1 17 -2 22 -3 6 0 15 -8 20 -16 8 -13 10 -13 10 2 0 9 6 19 13 21 9
4 8 8 -3 16 -10 7 -17 6 -22 -2 -5 -8 -8 -7 -12 3 -15 47 -14 46 -16 30z"/>
<path d="M3164 4118 c-3 -12 -62 -78 -130 -147 -68 -68 -121 -127 -118 -130 3
-3 8 -1 12 4 4 6 25 23 47 40 40 29 159 144 184 178 13 16 26 77 16 77 -2 0
-7 -10 -11 -22z"/>
<path d="M3726 4132 c-3 -6 -1 -14 5 -17 14 -9 20 -2 10 14 -6 8 -11 9 -15 3z"/>
<path d="M4740 4130 c0 -5 5 -10 11 -10 5 0 7 5 4 10 -3 6 -8 10 -11 10 -2 0
-4 -4 -4 -10z"/>
<path d="M2040 4077 c0 -34 -21 -80 -76 -164 -33 -50 -45 -103 -23 -103 5 0 7
5 4 10 -3 6 1 10 9 10 8 0 18 5 22 12 4 6 3 8 -4 4 -20 -12 -23 14 -3 35 14
15 28 20 53 17 l33 -3 1 75 c0 41 1 79 2 84 2 9 98 -81 213 -199 68 -70 90
-69 27 1 -44 49 -250 254 -255 254 -2 0 -3 -15 -3 -33z"/>
<path d="M3571 4087 c-13 -16 -5 -27 21 -27 11 0 18 7 18 20 0 23 -22 27 -39
7z"/>
<path d="M3620 4066 c0 -2 12 -16 26 -32 18 -20 23 -22 15 -8 -6 12 -8 24 -5
26 3 3 -4 8 -16 11 -11 3 -20 4 -20 3z"/>
<path d="M4252 4054 c1 -9 9 -19 16 -22 9 -3 13 2 10 14 -1 9 -9 19 -16 22 -9
3 -13 -2 -10 -14z"/>
<path d="M3510 4036 c0 -2 7 -7 16 -10 8 -3 12 -2 9 4 -6 10 -25 14 -25 6z"/>
<path d="M3691 4031 c-9 -6 -10 -11 -2 -15 6 -4 9 -12 6 -17 -6 -8 8 -13 28
-10 4 0 7 -6 7 -14 0 -17 16 -20 25 -5 4 6 11 8 16 5 5 -4 9 -2 9 4 0 5 -9 13
-20 16 -11 3 -20 12 -20 20 0 7 -7 16 -16 19 -19 7 -16 8 -33 -3z"/>
<path d="M280 4009 c0 -5 5 -7 10 -4 6 3 10 8 10 11 0 2 -4 4 -10 4 -5 0 -10
-5 -10 -11z"/>
<path d="M3790 3965 c0 -10 -5 -13 -12 -9 -7 4 -2 -4 10 -19 13 -14 37 -31 53
-37 16 -7 29 -17 29 -22 0 -5 4 -7 9 -3 5 3 15 0 23 -7 7 -7 20 -14 28 -16 8
-2 17 -8 18 -13 2 -5 9 -9 16 -9 18 0 66 -24 66 -32 0 -5 9 -8 20 -8 11 0 20
-3 20 -8 0 -4 27 -20 60 -35 33 -16 60 -32 60 -36 0 -4 17 -13 38 -20 20 -8
39 -17 42 -20 3 -3 58 -33 123 -65 64 -33 117 -64 117 -68 0 -5 4 -7 9 -3 5 3
15 0 23 -7 7 -7 20 -14 28 -16 8 -2 17 -7 20 -11 3 -5 22 -14 43 -20 20 -7 37
-17 37 -22 0 -6 4 -8 9 -4 5 3 15 0 23 -7 7 -7 20 -14 28 -16 8 -2 17 -7 20
-10 9 -12 49 -32 64 -32 8 0 16 -7 20 -15 3 -8 12 -12 21 -9 8 3 15 1 15 -5 0
-6 9 -11 19 -11 14 0 18 5 14 20 -4 15 -12 19 -29 16 -16 -3 -21 0 -18 8 3 8
-2 16 -11 20 -11 4 -14 2 -10 -7 4 -6 1 -5 -7 3 -14 16 -63 50 -73 50 -4 0 -3
-6 1 -12 4 -7 -2 -3 -14 8 -11 12 -44 32 -71 45 -28 12 -51 26 -51 31 0 4 -9
8 -20 8 -11 0 -20 5 -20 10 0 6 -6 10 -14 10 -13 0 -94 38 -106 50 -12 12 -51
30 -65 30 -8 0 -15 5 -15 10 0 6 -7 10 -15 10 -8 0 -15 5 -15 10 0 6 -11 10
-25 10 -14 0 -25 4 -25 8 0 10 -60 45 -60 35 0 -4 -6 -1 -13 7 -14 17 -42 36
-74 49 -11 6 -24 15 -28 21 -3 5 -11 8 -16 5 -5 -4 -9 -3 -9 2 0 4 -15 14 -32
22 -18 8 -49 25 -68 38 -40 27 -55 29 -46 8 3 -8 3 -15 0 -15 -2 0 -9 11 -13
23 -8 20 -72 62 -91 60 -3 -1 -17 8 -32 19 -25 17 -28 17 -28 3z m47 -31 c2
-6 -3 -11 -12 -11 -8 0 -15 7 -15 15 0 15 22 12 27 -4z m43 -25 c0 -6 -4 -7
-10 -4 -5 3 -10 11 -10 16 0 6 5 7 10 4 6 -3 10 -11 10 -16z m35 -19 c3 -6 -1
-7 -9 -4 -18 7 -21 14 -7 14 6 0 13 -4 16 -10z m85 -44 c14 -18 14 -18 -7 -6
-12 8 -19 18 -16 23 3 4 6 7 7 5 1 -2 8 -12 16 -22z m157 -82 c-3 -3 -12 -4
-19 -1 -8 3 -5 6 6 6 11 1 17 -2 13 -5z"/>
<path d="M1118 3943 c7 -3 16 -2 19 1 4 3 -2 6 -13 5 -11 0 -14 -3 -6 -6z"/>
<path d="M3367 3888 c7 -55 10 -57 23 -22 12 29 4 54 -17 61 -8 3 -9 -10 -6
-39z"/>
<path d="M3731 3914 c0 -11 3 -14 6 -6 3 7 2 16 -1 19 -3 4 -6 -2 -5 -13z"/>
<path d="M135 3870 c3 -5 8 -10 11 -10 2 0 4 5 4 10 0 6 -5 10 -11 10 -5 0 -7
-4 -4 -10z"/>
<path d="M1285 3870 c-3 -5 1 -10 10 -10 9 0 13 5 10 10 -3 6 -8 10 -10 10 -2
0 -7 -4 -10 -10z"/>
<path d="M3334 3770 c4 -58 11 -123 16 -145 7 -30 8 -19 4 50 -5 108 -14 188
-22 195 -2 3 -2 -42 2 -100z"/>
<path d="M3419 3868 c-7 -30 -8 -108 0 -108 5 0 8 11 5 25 -2 14 -1 25 3 25
37 -1 82 -120 103 -275 15 -114 59 -327 71 -348 6 -11 8 -21 5 -24 -3 -3 2
-19 10 -35 8 -16 12 -33 9 -39 -4 -5 -3 -15 2 -22 5 -7 10 -29 12 -49 2 -32
-1 -38 -17 -38 -18 0 -31 22 -36 57 0 7 -4 13 -8 13 -5 0 -13 0 -19 0 -5 0 -7
-4 -4 -10 3 -5 2 -10 -2 -10 -5 0 -14 9 -21 21 -7 12 -16 19 -18 16 -7 -7 18
-37 84 -105 30 -29 56 -52 58 -49 3 3 6 35 7 71 1 36 6 66 12 66 5 0 4 5 -2
11 -6 6 -9 18 -6 25 3 8 -1 14 -8 14 -11 0 -11 2 1 10 12 8 12 10 -2 15 -9 4
-14 13 -12 20 3 7 1 16 -5 20 -6 3 -11 19 -11 36 0 16 -5 29 -11 29 -6 0 -9 6
-6 13 3 7 -6 53 -18 102 -13 50 -28 126 -34 171 -15 108 -17 118 -41 192 -25
77 -94 186 -101 160z"/>
<path d="M1850 3812 c0 -5 -25 -37 -56 -73 -82 -95 -136 -188 -197 -339 -44
-109 -85 -220 -92 -250 -1 -3 -4 -12 -7 -20 -3 -8 -17 -46 -31 -85 -14 -38
-36 -94 -48 -122 -13 -29 -20 -55 -17 -59 7 -6 49 32 47 43 -3 21 2 26 12 13
9 -13 10 -13 6 1 -3 9 1 26 9 38 8 12 12 26 9 31 -4 6 -2 17 4 24 6 7 12 21
14 32 2 10 6 26 9 34 3 8 16 44 28 80 11 36 25 74 30 85 8 17 26 62 60 150 42
108 66 161 93 203 50 77 110 151 130 157 18 7 25 65 7 65 -5 0 -10 -4 -10 -8z"/>
<path d="M2069 3790 c-3 -8 -6 -49 -7 -90 -2 -89 -10 -148 -23 -156 -5 -3 -9
-14 -9 -25 0 -10 -22 -42 -49 -69 -27 -28 -52 -64 -56 -80 -22 -99 117 67 142
170 14 61 17 287 2 250z"/>
<path d="M2350 3780 c0 -5 5 -10 10 -10 6 0 10 5 10 10 0 6 -4 10 -10 10 -5 0
-10 -4 -10 -10z"/>
<path d="M2387 3759 c7 -7 15 -10 18 -7 3 3 -2 9 -12 12 -14 6 -15 5 -6 -5z"/>
<path d="M3724 3668 c-4 -7 -4 -10 0 -7 4 4 21 -6 38 -22 32 -29 58 -26 58 7
0 17 -30 19 -31 2 0 -7 -4 -3 -9 10 -10 24 -44 30 -56 10z"/>
<path d="M4135 3670 c3 -5 8 -10 11 -10 2 0 4 5 4 10 0 6 -5 10 -11 10 -5 0
-7 -4 -4 -10z"/>
<path d="M3841 3624 c12 -15 11 -16 -10 -9 -17 5 -22 4 -19 -6 3 -8 13 -16 22
-17 10 -2 27 -11 37 -20 11 -10 23 -17 27 -17 4 0 13 -4 20 -8 6 -5 49 -28 95
-51 77 -41 146 -77 192 -103 11 -7 27 -14 35 -17 8 -3 22 -10 30 -15 8 -5 47
-22 85 -36 91 -35 96 -37 188 -79 42 -19 77 -32 77 -29 0 3 8 -1 18 -10 9 -8
22 -17 27 -18 6 -1 23 -8 40 -15 38 -16 54 -6 26 15 -21 16 -21 17 -1 17 11 0
20 -5 21 -11 1 -19 7 -47 11 -49 2 -1 28 -10 58 -20 30 -10 83 -32 118 -47 35
-16 72 -29 83 -29 10 0 19 -4 19 -10 0 -5 8 -10 18 -10 10 0 28 -7 40 -16 20
-14 22 -14 22 4 0 25 -29 50 -39 34 -4 -6 -12 -8 -20 -3 -8 5 -10 14 -6 21 5
9 4 11 -3 6 -7 -4 -12 0 -13 11 0 10 -3 13 -6 6 -2 -7 -9 -13 -14 -13 -6 0 -8
4 -5 9 6 9 -49 27 -66 23 -5 -1 -8 5 -8 14 0 13 -7 15 -35 11 -29 -5 -35 -3
-33 10 2 9 -7 19 -21 24 -20 8 -23 7 -18 -10 3 -13 1 -18 -9 -14 -7 2 -11 10
-8 17 3 7 -3 19 -12 27 -16 13 -17 12 -12 -9 4 -15 2 -22 -5 -19 -7 2 -11 14
-9 25 2 12 -2 22 -8 22 -6 0 -39 13 -73 29 -34 16 -84 39 -112 51 -27 12 -64
29 -82 37 -17 8 -37 16 -45 17 -7 1 -28 12 -47 24 -19 11 -38 19 -43 16 -4 -3
-8 0 -8 5 0 6 -9 11 -20 11 -11 0 -20 4 -20 8 0 4 -11 9 -25 10 -26 2 -30 -4
-16 -26 5 -8 17 -11 32 -7 14 3 32 0 43 -8 17 -12 17 -14 2 -20 -10 -4 -16 -1
-16 8 0 17 -21 20 -36 5 -8 -8 -15 -6 -24 5 -7 8 -19 15 -26 15 -8 0 -14 5
-14 10 0 6 5 10 10 10 16 0 12 27 -6 34 -8 3 -13 2 -10 -2 2 -4 0 -14 -6 -22
-8 -12 -9 -12 -4 2 3 10 -2 24 -11 33 -14 14 -18 14 -38 1 -21 -14 -25 -14
-36 0 -7 8 -8 14 -3 13 5 -1 18 -1 29 0 16 2 13 6 -14 20 -19 10 -43 16 -54
13 -13 -3 -18 -1 -13 6 3 6 -7 17 -24 25 -34 17 -40 9 -10 -13 28 -20 25 -30
-5 -17 -14 7 -25 15 -25 20 0 4 -9 7 -19 7 -11 0 -22 4 -26 9 -3 6 6 8 20 5
32 -6 32 9 0 24 -38 17 -47 15 -40 -9 5 -15 4 -19 -4 -15 -6 4 -11 15 -11 25
0 19 -44 54 -67 54 -7 0 -13 4 -13 9 0 4 -7 8 -16 8 -14 0 -15 -2 -3 -16z m52
-28 c25 -19 21 -26 -8 -13 -14 7 -25 15 -25 20 0 11 13 8 33 -7z m220 -120 c4
-10 1 -13 -9 -9 -7 3 -14 9 -14 14 0 14 17 10 23 -5z m79 -38 c-7 -7 -12 -8
-12 -2 0 6 3 14 7 17 3 4 9 5 12 2 2 -3 -1 -11 -7 -17z m213 -88 c3 -5 1 -10
-4 -10 -6 0 -11 5 -11 10 0 6 2 10 4 10 3 0 8 -4 11 -10z m55 -42 c0 -12 -14
-10 -28 4 -19 19 -14 29 8 16 11 -7 20 -16 20 -20z m55 -8 c3 -5 1 -10 -4 -10
-6 0 -11 5 -11 10 0 6 2 10 4 10 3 0 8 -4 11 -10z m45 -26 c0 -2 -7 -4 -15 -4
-8 0 -15 4 -15 10 0 5 7 7 15 4 8 -4 15 -8 15 -10z m35 -22 c-3 -3 -11 0 -18
7 -9 10 -8 11 6 5 10 -3 15 -9 12 -12z m45 -12 c0 -5 -4 -10 -9 -10 -6 0 -13
5 -16 10 -3 6 1 10 9 10 9 0 16 -4 16 -10z m60 -34 c0 -2 -9 -2 -20 1 -11 3
-20 9 -20 15 0 5 9 4 20 -2 11 -6 20 -12 20 -14z"/>
<path d="M3636 3617 c3 -10 9 -15 12 -12 3 3 0 11 -7 18 -10 9 -11 8 -5 -6z"/>
<path d="M3300 3560 c-5 -32 17 -130 41 -185 5 -11 13 -32 19 -48 5 -15 15
-26 22 -25 7 2 12 -3 13 -11 0 -8 6 -16 13 -19 19 -6 10 19 -15 46 -13 12 -23
33 -23 46 0 12 -3 26 -7 30 -5 4 -8 11 -9 14 0 4 -9 25 -19 47 -10 22 -22 58
-25 80 -4 22 -9 33 -10 25z"/>
<path d="M3601 3520 c10 -43 38 -120 48 -132 4 -4 6 9 5 30 -1 31 -46 142 -58
142 -2 0 0 -18 5 -40z"/>
<path d="M4880 3546 c0 -2 9 -6 20 -9 11 -3 18 -1 14 4 -5 9 -34 13 -34 5z"/>
<path d="M1930 3495 c0 -19 5 -35 10 -35 6 0 10 16 8 35 -1 19 -6 35 -10 35
-4 0 -8 -16 -8 -35z"/>
<path d="M3244 3447 c2 -43 8 -83 14 -89 7 -7 12 -19 12 -28 0 -22 36 -55 45
-41 3 6 2 11 -3 11 -9 0 -23 34 -27 65 -1 6 -5 17 -8 25 -4 8 -13 42 -21 75
l-14 60 2 -78z"/>
<path d="M1584 3473 c-15 -20 -36 -45 -46 -55 -10 -10 -14 -18 -9 -18 6 0 -3
-26 -18 -57 -42 -87 -123 -310 -141 -390 -7 -29 -16 -53 -20 -53 -4 0 -10 -18
-12 -40 -2 -28 0 -40 10 -40 14 0 24 21 26 54 2 23 30 118 83 276 37 110 99
248 140 313 32 51 23 58 -13 10z"/>
<path d="M1145 3471 c-3 -5 -2 -12 3 -15 5 -3 9 1 9 9 0 17 -3 19 -12 6z"/>
<path d="M515 3420 c3 -5 8 -10 11 -10 2 0 4 5 4 10 0 6 -5 10 -11 10 -5 0 -7
-4 -4 -10z"/>
<path d="M1450 3304 c-29 -49 -67 -129 -85 -179 -44 -122 -77 -198 -93 -210
-14 -11 -10 -63 4 -55 5 3 8 9 6 14 -3 10 18 68 29 76 13 10 50 91 81 177 17
49 51 126 75 171 25 46 42 86 40 89 -3 2 -29 -35 -57 -83z"/>
<path d="M1881 3365 c-7 -16 -20 -38 -28 -47 -14 -15 -14 -18 -1 -18 31 0 50
25 46 60 l-4 35 -13 -30z"/>
<path d="M4918 3355 c5 -28 12 -31 30 -13 9 9 7 14 -6 24 -25 19 -30 17 -24
-11z"/>
<path d="M1737 3321 c-20 -21 -37 -43 -37 -48 0 -5 -9 -19 -20 -31 -17 -18
-18 -22 -5 -22 9 0 13 -5 10 -10 -4 -6 -11 -7 -17 -4 -7 4 -8 2 -4 -5 4 -6 1
-14 -8 -17 -8 -3 -14 -13 -14 -22 0 -9 -5 -32 -10 -50 -8 -25 -8 -32 1 -29 12
4 77 125 77 144 0 6 6 18 13 25 6 7 21 29 31 48 11 19 24 38 29 41 5 4 5 9 0
12 -5 3 -26 -11 -46 -32z"/>
<path d="M3171 3344 c0 -11 3 -14 6 -6 3 7 2 16 -1 19 -3 4 -6 -2 -5 -13z"/>
<path d="M3910 3336 c0 -7 9 -20 20 -27 19 -14 18 -17 -31 -134 -60 -143 -64
-155 -52 -155 12 0 24 26 70 145 19 50 41 100 49 112 13 20 12 24 -13 48 -31
28 -43 31 -43 11z"/>
<path d="M4950 3330 c-21 -13 -5 -24 18 -11 16 9 21 7 25 -10 5 -18 8 -19 20
-8 13 12 13 15 1 17 -8 2 -14 8 -14 13 0 12 -31 11 -50 -1z"/>
<path d="M638 3323 c7 -3 16 -2 19 1 4 3 -2 6 -13 5 -11 0 -14 -3 -6 -6z"/>
<path d="M1926 3300 c10 -55 73 -232 96 -270 12 -19 29 -62 39 -95 l18 -60 -2
50 c0 28 -9 61 -18 75 -26 39 -57 113 -89 211 -34 103 -55 146 -44 89z"/>
<path d="M3795 3320 c3 -5 8 -10 11 -10 2 0 4 5 4 10 0 6 -5 10 -11 10 -5 0
-7 -4 -4 -10z"/>
<path d="M3803 3185 c-47 -106 -59 -146 -34 -119 16 18 92 207 89 222 -2 9
-27 -37 -55 -103z"/>
<path d="M3898 3278 c-7 -13 -27 -57 -42 -98 -16 -41 -35 -86 -43 -98 -14 -24
-10 -44 5 -26 14 15 105 235 99 240 -2 2 -11 -6 -19 -18z"/>
<path d="M3983 3263 c-6 -21 -28 -83 -48 -138 -43 -118 -43 -119 -30 -122 6
-2 14 9 18 25 21 67 80 218 89 230 8 9 7 17 -3 28 -13 12 -16 9 -26 -23z"/>
<path d="M5037 3293 c-12 -11 -8 -21 12 -26 14 -3 17 0 14 14 -5 20 -15 24
-26 12z"/>
<path d="M5087 3283 c-11 -10 -8 -45 2 -39 5 4 11 0 14 -6 8 -23 18 -1 11 26
-6 26 -15 32 -27 19z"/>
<path d="M1114 3261 c-18 -11 -34 -25 -37 -33 -3 -8 -6 -8 -6 -1 -1 6 -10 9
-21 6 -11 -3 -17 -9 -14 -14 3 -5 0 -9 -5 -9 -6 0 -11 -5 -11 -10 0 -7 6 -7
19 0 13 7 22 7 26 0 8 -13 59 14 79 42 30 42 19 49 -30 19z"/>
<path d="M1385 3270 c-3 -5 -1 -10 4 -10 6 0 11 5 11 10 0 6 -2 10 -4 10 -3 0
-8 -4 -11 -10z"/>
<path d="M3161 3264 c0 -11 3 -14 6 -6 3 7 2 16 -1 19 -3 4 -6 -2 -5 -13z"/>
<path d="M4030 3271 c0 -6 4 -11 9 -11 16 0 -37 -166 -80 -251 -10 -20 -15
-39 -12 -43 12 -12 29 -6 30 12 1 9 16 51 33 92 17 41 30 75 29 75 -8 0 28 93
39 102 19 15 16 19 -21 28 -17 5 -27 3 -27 -4z"/>
<path d="M4096 3243 c-3 -3 -6 -17 -6 -30 0 -32 -37 -147 -66 -205 -28 -55
-30 -68 -10 -68 8 0 17 14 21 30 4 17 10 30 15 30 5 0 9 8 9 18 0 9 13 55 30
102 17 47 30 93 31 102 0 19 -14 31 -24 21z"/>
<path d="M4145 3232 c12 -10 19 -27 17 -42 -6 -51 -72 -209 -103 -247 -9 -10
-9 -17 -1 -25 7 -7 13 -10 15 -7 9 12 63 134 94 214 l35 89 -22 18 c-12 10
-30 18 -39 18 -13 -1 -13 -3 4 -18z"/>
<path d="M4274 3227 c2 -24 25 -70 26 -50 0 6 -4 14 -9 18 -6 3 -8 14 -6 25 2
11 0 22 -4 24 -4 3 -7 -5 -7 -17z"/>
<path d="M215 3210 c3 -5 8 -10 11 -10 2 0 4 5 4 10 0 6 -5 10 -11 10 -5 0 -7
-4 -4 -10z"/>
<path d="M4225 3210 c3 -5 8 -10 11 -10 2 0 4 5 4 10 0 6 -5 10 -11 10 -5 0
-7 -4 -4 -10z"/>
<path d="M930 3191 c0 -6 -16 -11 -35 -11 -19 0 -35 -5 -35 -11 0 -5 -4 -8 -8
-5 -13 8 -138 -34 -229 -76 -11 -6 -26 -7 -32 -4 -6 4 -11 2 -11 -4 0 -6 -8
-13 -17 -16 -43 -15 -152 -58 -200 -80 -29 -13 -65 -26 -80 -30 -16 -4 -41
-14 -58 -22 -16 -9 -39 -17 -50 -19 -10 -2 -22 -7 -25 -11 -3 -4 -16 -9 -30
-10 -14 -2 -31 -9 -39 -15 -7 -7 -21 -12 -29 -12 -8 0 -17 -5 -19 -12 -3 -8 3
-11 16 -8 12 2 21 -1 21 -6 0 -21 34 -3 41 21 7 24 7 24 8 2 1 -22 1 -22 34
-5 17 9 35 17 39 18 3 0 10 3 14 8 4 4 18 7 31 7 15 0 23 6 23 18 0 13 2 14 9
3 6 -9 11 -10 15 -2 4 6 11 9 15 6 5 -2 19 4 31 15 18 15 26 17 37 9 7 -7 14
-10 16 -8 1 2 7 13 13 24 15 28 349 163 470 189 72 16 154 17 155 1 0 -5 -44
-19 -98 -32 -54 -13 -114 -30 -133 -39 -81 -36 -152 -68 -260 -119 -72 -34
-119 -50 -124 -44 -15 14 -22 11 -22 -10 0 -11 4 -17 8 -15 4 3 8 2 8 -3 -1
-4 -23 -19 -50 -32 -28 -13 -50 -31 -50 -38 0 -8 -4 -12 -9 -9 -5 3 -11 -4
-15 -17 -9 -34 -7 -95 4 -102 5 -3 7 -12 4 -19 -3 -8 -1 -17 4 -20 13 -8 7
-49 -23 -139 -14 -43 -25 -84 -25 -92 0 -8 -4 -15 -10 -15 -5 0 -7 -7 -4 -15
4 -8 2 -21 -4 -28 -5 -6 -13 -28 -16 -47 -4 -19 -11 -46 -17 -60 -5 -14 -11
-36 -13 -50 -3 -14 -5 -25 -6 -25 -1 0 -4 -10 -6 -22 -2 -13 -6 -33 -8 -45 -2
-13 -5 -23 -7 -23 -1 0 -3 -16 -4 -35 -2 -19 -4 -35 -5 -35 -2 0 -5 -13 -14
-53 -7 -31 -15 -42 -32 -42 -8 0 -14 -6 -14 -14 0 -8 -4 -16 -10 -18 -5 -1
-11 -13 -13 -25 -2 -12 -6 -25 -9 -29 -4 -3 -3 -17 2 -29 6 -16 5 -25 -3 -29
-8 -3 -9 -7 -1 -13 14 -11 16 -147 2 -181 -11 -28 -12 -32 -21 -92 -3 -19 -10
-48 -16 -63 -6 -16 -10 -79 -10 -140 l2 -112 7 80 c8 93 24 173 51 266 18 63
20 95 15 291 -1 40 4 52 32 81 36 37 46 65 68 187 15 88 78 318 120 442 28 83
29 110 9 168 -8 23 -15 52 -15 64 0 33 50 85 90 92 32 7 128 58 140 76 8 11
233 113 310 141 72 26 152 47 148 39 -4 -7 -23 -51 -55 -125 -12 -26 -19 -34
-25 -25 -6 10 -10 10 -18 -2 -15 -22 -12 -30 10 -30 11 0 20 -4 20 -10 0 -21
-33 -105 -45 -115 -15 -12 -26 -150 -15 -180 10 -25 16 -10 23 55 3 25 8 54
11 65 3 11 19 70 35 131 29 108 77 217 107 240 8 6 14 16 14 21 0 18 32 38 56
35 13 -2 24 0 24 5 0 5 -36 9 -79 9 -50 0 -86 6 -95 14 -11 8 -16 9 -16 1z"/>
<path d="M4234 3163 c-20 -90 -69 -260 -77 -271 -7 -9 -7 -16 1 -24 14 -14 20
-9 26 23 2 13 5 24 6 24 1 0 3 7 5 15 10 51 48 176 61 202 16 30 13 58 -5 58
-6 0 -13 -12 -17 -27z"/>
<path d="M4435 3170 c3 -5 8 -10 11 -10 2 0 4 5 4 10 0 6 -5 10 -11 10 -5 0
-7 -4 -4 -10z"/>
<path d="M4280 3088 c-6 -34 -25 -100 -41 -147 -34 -100 -34 -101 -12 -101 9
0 14 3 10 6 -3 3 4 31 15 62 36 105 68 223 63 233 -13 21 -23 6 -35 -53z"/>
<path d="M4349 3115 c-1 -73 -31 -193 -62 -248 -20 -36 -20 -37 -1 -51 10 -8
23 -12 28 -9 5 4 1 12 -8 19 -20 14 -12 38 11 30 10 -4 13 -1 8 12 -3 11 1 34
9 53 8 19 22 72 30 119 15 75 15 86 1 99 -13 14 -15 11 -16 -24z"/>
<path d="M3556 3125 c4 -8 8 -15 10 -15 2 0 4 7 4 15 0 8 -4 15 -10 15 -5 0
-7 -7 -4 -15z"/>
<path d="M4520 3120 c0 -6 4 -9 9 -5 6 3 14 -2 19 -11 7 -12 11 -13 17 -5 8
15 7 16 -22 25 -15 5 -23 3 -23 -4z"/>
<path d="M4188 3113 c-3 -4 -13 -35 -23 -68 -11 -33 -25 -67 -32 -76 -7 -9
-11 -18 -8 -21 3 -3 -1 -11 -10 -18 -19 -16 -19 -40 0 -40 9 0 15 9 15 25 0
14 4 25 9 25 10 0 66 169 58 176 -3 3 -7 2 -9 -3z"/>
<path d="M4478 3113 c7 -3 16 -2 19 1 4 3 -2 6 -13 5 -11 0 -14 -3 -6 -6z"/>
<path d="M1030 3090 c0 -5 5 -10 10 -10 6 0 10 5 10 10 0 6 -4 10 -10 10 -5 0
-10 -4 -10 -10z"/>
<path d="M4604 3085 c11 -8 27 -15 35 -15 11 0 10 4 -5 15 -10 8 -26 14 -34
14 -11 0 -10 -3 4 -14z"/>
<path d="M4397 3064 c-3 -16 -11 -63 -18 -104 -7 -41 -21 -95 -31 -119 -10
-24 -16 -46 -14 -48 11 -11 26 10 32 45 4 20 10 42 14 47 15 19 40 176 31 193
-7 12 -10 9 -14 -14z"/>
<path d="M1605 3060 c3 -5 11 -10 16 -10 6 0 7 5 4 10 -3 6 -11 10 -16 10 -6
0 -7 -4 -4 -10z"/>
<path d="M3132 3050 c0 -14 2 -19 5 -12 2 6 2 18 0 25 -3 6 -5 1 -5 -13z"/>
<path d="M4436 3061 c-9 -14 2 -34 30 -54 21 -16 25 -16 30 -3 9 23 37 20 52
-5 29 -46 112 -55 112 -11 -1 16 -1 16 -10 0 -9 -14 -15 -13 -64 13 -30 17
-65 32 -77 34 -12 2 -29 11 -39 20 -19 17 -27 19 -34 6z"/>
<path d="M4679 3051 c6 -10 22 -22 37 -25 41 -11 39 0 -6 23 -38 20 -40 20
-31 2z"/>
<path d="M886 3045 c-15 -8 -36 -15 -45 -15 -9 0 -25 -6 -36 -13 -11 -7 -40
-19 -65 -27 -60 -18 -190 -82 -190 -93 0 -5 9 -7 20 -4 11 3 18 1 14 -4 -3 -5
-1 -9 5 -9 5 0 14 6 18 13 8 13 60 43 113 65 14 5 41 17 62 26 43 19 62 20 52
4 -4 -7 2 -5 13 5 11 9 26 17 35 17 15 0 48 30 48 43 0 11 -12 8 -44 -8z"/>
<path d="M1200 3040 c0 -11 5 -20 10 -20 6 0 10 9 10 20 0 11 -4 20 -10 20 -5
0 -10 -9 -10 -20z"/>
<path d="M1800 3045 c0 -9 8 -18 18 -22 9 -3 36 -14 59 -24 23 -11 49 -19 57
-19 8 0 17 -4 20 -9 7 -11 76 -19 82 -10 8 13 -40 39 -131 69 -100 35 -105 35
-105 15z"/>
<path d="M3350 3045 c-8 -9 -8 -15 -2 -15 12 0 26 19 19 26 -2 2 -10 -2 -17
-11z"/>
<path d="M3712 3017 c-24 -49 -44 -127 -31 -127 5 0 16 26 25 58 9 31 23 67
31 79 8 11 10 24 5 27 -5 3 -18 -14 -30 -37z"/>
<path d="M3266 3021 c-63 -18 -86 -41 -43 -41 14 0 27 5 29 10 2 6 20 11 41
12 29 1 37 5 37 20 0 10 -1 18 -2 17 -2 0 -30 -8 -62 -18z"/>
<path d="M1585 2946 c-78 -81 -156 -140 -230 -174 -32 -15 -85 -65 -85 -81 0
-12 3 -12 18 1 9 9 44 30 77 48 87 47 225 149 225 165 0 4 17 28 38 54 46 55
56 71 45 71 -4 0 -44 -38 -88 -84z"/>
<path d="M1110 2994 c-13 -33 -13 -54 0 -54 6 0 10 9 10 19 0 11 5 23 10 26
13 8 13 35 0 35 -6 0 -15 -12 -20 -26z"/>
<path d="M3470 3013 c0 -12 11 -25 67 -75 62 -57 57 -61 -15 -12 -30 20 -56
34 -58 31 -8 -8 32 -35 105 -72 40 -21 100 -55 132 -76 32 -22 61 -39 65 -39
3 0 27 -14 53 -31 45 -31 215 -134 275 -168 74 -40 134 -83 140 -96 6 -17 26
-20 26 -5 0 20 -52 59 -154 119 -317 183 -572 358 -609 418 -9 14 -27 18 -27
6z"/>
<path d="M4764 3003 c2 -10 7 -17 12 -15 4 2 12 -5 16 -15 6 -14 7 -13 5 7 -2
23 -14 39 -29 40 -3 0 -5 -8 -4 -17z"/>
<path d="M3107 2985 c-3 -16 0 -24 7 -22 14 4 21 47 8 47 -5 0 -12 -11 -15
-25z"/>
<path d="M4827 2983 c13 -11 20 -23 16 -27 -3 -3 8 -6 25 -6 18 0 32 5 32 10
0 6 -9 10 -19 10 -11 0 -21 4 -23 9 -1 4 -14 12 -28 16 l-25 7 22 -19z"/>
<path d="M1190 2965 c0 -14 5 -25 10 -25 6 0 10 11 10 25 0 14 -4 25 -10 25
-5 0 -10 -11 -10 -25z"/>
<path d="M3157 2976 c-4 -10 0 -12 14 -9 22 6 26 23 5 23 -8 0 -16 -6 -19 -14z"/>
<path d="M3788 2955 c-10 -19 -15 -41 -12 -50 5 -13 42 -32 48 -23 40 60 48
92 16 63 -11 -10 -20 -24 -20 -32 0 -7 -7 -13 -15 -13 -19 0 -19 19 0 44 16
21 20 46 8 46 -5 0 -16 -16 -25 -35z"/>
<path d="M4502 2978 c2 -6 10 -14 16 -16 7 -2 10 2 6 12 -7 18 -28 22 -22 4z"/>
<path d="M2090 2966 c0 -16 76 -47 95 -40 13 5 10 10 -12 24 -36 22 -83 31
-83 16z"/>
<path d="M987 2949 c-3 -13 -1 -19 6 -16 15 5 22 37 9 37 -5 0 -12 -9 -15 -21z"/>
<path d="M3730 2951 c0 -11 -4 -23 -10 -26 -13 -8 -13 -25 -1 -25 8 0 41 54
41 67 0 1 -7 3 -15 3 -8 0 -15 -9 -15 -19z"/>
<path d="M835 2940 c-3 -5 -1 -10 4 -10 6 0 11 5 11 10 0 6 -2 10 -4 10 -3 0
-8 -4 -11 -10z"/>
<path d="M4910 2941 c0 -5 12 -12 27 -16 22 -5 24 -8 12 -16 -10 -8 -8 -9 8
-4 31 8 64 -11 57 -33 -5 -13 -4 -14 4 -3 9 12 15 12 41 1 17 -7 36 -20 41
-29 8 -14 9 -13 10 5 0 14 -12 25 -42 38 -24 10 -67 29 -96 42 -59 27 -62 28
-62 15z"/>
<path d="M724 2926 c-7 -19 13 -56 31 -56 7 0 15 -6 18 -12 2 -7 6 2 9 20 4
29 1 35 -24 48 -25 13 -29 13 -34 0z"/>
<path d="M4700 2932 c0 -5 17 -17 38 -27 66 -34 70 -35 75 -16 3 14 0 17 -14
14 -11 -3 -19 -1 -19 4 0 11 -44 33 -65 33 -8 0 -15 -4 -15 -8z"/>
<path d="M1177 2916 c-4 -9 -3 -26 2 -38 l8 -23 7 22 c4 13 3 30 -2 39 -8 15
-10 15 -15 0z"/>
<path d="M4455 2920 c-3 -5 -1 -10 4 -10 6 0 11 5 11 10 0 6 -2 10 -4 10 -3 0
-8 -4 -11 -10z"/>
<path d="M4644 2915 c24 -18 39 -20 34 -2 -3 6 -15 13 -29 15 -23 2 -23 2 -5
-13z"/>
<path d="M1002 2904 c4 -21 22 -23 26 -1 2 10 -3 17 -13 17 -10 0 -15 -6 -13
-16z"/>
<path d="M1530 2808 c-80 -60 -170 -128 -200 -150 -61 -46 -74 -61 -59 -67 12
-4 82 43 123 84 17 17 49 44 71 60 22 17 64 49 93 73 31 25 64 42 80 43 15 0
21 3 14 6 -10 4 -8 11 9 29 48 51 8 28 -131 -78z"/>
<path d="M3854 2895 c-24 -37 -10 -42 16 -6 12 17 17 31 11 31 -6 0 -18 -11
-27 -25z"/>
<path d="M3892 2887 c-11 -20 -17 -39 -12 -42 5 -3 14 4 20 15 7 13 18 19 26
16 18 -7 18 5 1 28 -13 17 -15 16 -35 -17z"/>
<path d="M4474 2893 c-11 -38 -11 -35 7 -61 10 -14 22 -20 33 -16 20 8 21 24
0 24 -8 0 -13 4 -9 9 3 5 1 12 -3 15 -5 3 -7 17 -4 31 6 34 -14 32 -24 -2z"/>
<path d="M3460 2899 c0 -5 12 -15 28 -22 15 -6 31 -17 35 -24 4 -7 15 -13 22
-13 9 0 15 -10 15 -24 0 -14 5 -28 10 -31 6 -3 10 3 10 15 0 12 4 19 10 15 5
-3 7 -12 4 -19 -3 -8 -1 -17 5 -21 6 -3 11 1 11 9 0 19 -1 19 39 5 17 -6 31
-15 31 -20 0 -5 9 -9 19 -9 11 0 21 -4 23 -8 4 -10 123 -83 162 -100 16 -7 31
-10 34 -8 3 3 -4 9 -14 13 -10 3 -33 17 -50 30 -17 13 -36 23 -42 23 -6 0 -12
4 -14 8 -2 6 -132 83 -273 161 -45 25 -65 32 -65 20z"/>
<path d="M4440 2888 c0 -4 4 -8 9 -8 6 0 12 4 15 8 3 5 -1 9 -9 9 -8 0 -15 -4
-15 -9z"/>
<path d="M4607 2893 c-9 -15 4 -54 17 -50 12 4 10 37 -4 50 -4 5 -10 5 -13 0z"/>
<path d="M3952 2857 c-14 -39 -15 -47 -4 -47 7 0 32 57 32 73 0 19 -17 3 -28
-26z"/>
<path d="M625 2869 c-4 -6 -5 -12 -2 -15 2 -3 7 2 10 11 7 17 1 20 -8 4z"/>
<path d="M4830 2870 c0 -5 5 -10 10 -10 6 0 24 -10 40 -22 35 -25 39 -61 16
-148 -8 -30 -16 -77 -17 -105 -2 -27 -9 -61 -16 -75 -14 -28 -10 -38 9 -19 25
25 58 141 57 199 0 14 2 46 5 73 3 27 1 47 -4 47 -6 0 -10 6 -10 14 0 8 -15
24 -34 35 -36 23 -56 27 -56 11z"/>
<path d="M985 2861 c-6 -11 9 -23 19 -14 9 9 7 23 -3 23 -6 0 -12 -4 -16 -9z"/>
<path d="M1090 2854 c0 -8 5 -12 10 -9 6 3 10 10 10 16 0 5 -4 9 -10 9 -5 0
-10 -7 -10 -16z"/>
<path d="M1787 2850 c-7 -26 48 -56 69 -39 10 8 14 8 14 1 0 -6 7 -9 15 -6 8
4 17 -1 21 -10 5 -13 9 -14 20 -5 12 9 18 8 30 -7 9 -10 13 -14 10 -8 -3 7 8
11 30 12 19 1 32 -3 29 -7 -3 -5 3 -8 12 -7 9 2 19 8 21 14 5 16 -37 34 -65
27 -17 -4 -23 -2 -17 6 4 7 2 10 -7 7 -8 -3 -22 -1 -32 4 -10 5 -42 12 -70 14
-28 3 -56 9 -63 15 -8 6 -13 3 -17 -11z"/>
<path d="M3990 2848 c0 -13 -6 -30 -12 -36 -10 -10 -10 -15 2 -22 12 -7 16 -3
21 18 4 15 8 33 10 41 2 7 -2 16 -8 18 -8 3 -13 -4 -13 -19z"/>
<path d="M3911 2846 c-8 -10 -9 -16 -1 -21 5 -3 13 1 16 10 9 22 -1 29 -15 11z"/>
<path d="M4030 2815 c-17 -51 -6 -67 14 -21 18 44 20 56 7 56 -5 0 -15 -16
-21 -35z"/>
<path d="M4696 2838 c5 -7 3 -8 -5 -4 -7 5 -21 0 -32 -10 -18 -16 -19 -16 -13
-1 3 9 2 17 -4 17 -11 0 -22 -23 -22 -46 0 -9 5 -12 12 -8 8 5 9 2 5 -9 -10
-27 13 -20 44 14 29 31 38 59 18 59 -5 0 -7 -5 -3 -12z"/>
<path d="M4798 2828 c3 -13 1 -19 -5 -15 -12 7 -53 -71 -53 -102 0 -31 16 -26
31 12 7 17 19 37 25 42 7 6 16 27 19 48 6 29 4 37 -8 37 -11 0 -13 -6 -9 -22z"/>
<path d="M4 2828 c-4 -7 -2 -8 4 -4 7 4 12 2 12 -3 0 -6 7 -11 15 -11 8 0 15
6 15 13 0 16 -37 20 -46 5z"/>
<path d="M638 2828 c-16 -5 -28 -16 -28 -24 0 -9 4 -13 9 -10 5 4 12 -7 16
-24 4 -16 13 -30 21 -30 8 0 13 3 12 8 -2 4 2 7 7 7 6 0 10 -7 9 -16 -1 -22
30 -17 34 5 2 10 -2 15 -10 14 -8 -2 -12 4 -10 15 2 13 -2 17 -15 15 -14 -2
-18 3 -16 25 1 15 1 27 0 26 -1 0 -14 -5 -29 -11z"/>
<path d="M965 2830 c-10 -17 12 -37 25 -24 8 8 6 15 -4 23 -10 9 -16 9 -21 1z"/>
<path d="M3071 2824 c0 -11 3 -14 6 -6 3 7 2 16 -1 19 -3 4 -6 -2 -5 -13z"/>
<path d="M4440 2822 c0 -10 -4 -22 -9 -27 -6 -6 -12 -22 -15 -36 -2 -15 -9
-35 -14 -45 -34 -62 -52 -144 -33 -144 11 0 66 156 65 183 -1 9 2 17 7 17 7 0
20 29 25 58 1 6 -4 12 -12 12 -8 0 -14 -8 -14 -18z"/>
<path d="M1086 2808 c-3 -13 -6 -32 -6 -43 0 -19 2 -18 19 4 10 13 16 32 14
42 -7 26 -19 24 -27 -3z"/>
<path d="M1156 2811 c-26 -29 -10 -45 19 -19 13 12 22 25 19 30 -8 13 -19 10
-38 -11z"/>
<path d="M4940 2821 c0 -9 39 -31 56 -31 12 0 2 18 -13 24 -10 3 -24 9 -30 12
-7 3 -13 1 -13 -5z"/>
<path d="M407 2806 c-3 -8 1 -20 8 -26 11 -9 12 -17 4 -31 -11 -21 -3 -43 12
-34 5 4 9 -5 9 -20 0 -14 7 -28 15 -31 8 -4 15 -17 15 -30 0 -13 4 -24 9 -24
14 0 20 -37 8 -49 -8 -8 -6 -11 5 -11 20 0 37 62 19 68 -6 2 -11 11 -11 21 0
9 -7 26 -15 38 -8 12 -12 28 -9 37 4 10 0 18 -10 22 -9 3 -14 10 -11 14 3 5
-1 12 -9 17 -8 4 -14 17 -13 27 2 23 -18 33 -26 12z"/>
<path d="M3525 2810 c4 -6 11 -8 16 -5 14 9 11 15 -7 15 -8 0 -12 -5 -9 -10z"/>
<path d="M4067 2803 c-2 -10 -8 -26 -12 -35 -11 -28 10 -21 23 7 13 28 38 35
27 8 -24 -59 -11 -75 16 -19 14 31 14 34 -3 45 -26 16 -45 14 -51 -6z"/>
<path d="M369 2809 c-7 -33 -6 -46 2 -61 5 -10 13 -18 18 -18 14 0 10 58 -5
71 -8 6 -14 10 -15 8z"/>
<path d="M1582 2798 c-15 -15 -16 -42 -1 -32 9 5 10 -1 5 -20 -3 -14 -2 -26 3
-26 11 0 18 22 20 63 1 29 -8 34 -27 15z"/>
<path d="M2080 2792 c0 -10 6 -26 13 -36 12 -16 13 -14 9 18 -4 37 -22 51 -22
18z"/>
<path d="M2130 2793 c0 -19 5 -23 31 -23 18 0 28 4 24 11 -4 5 -12 8 -18 6 -7
-2 -17 3 -24 12 -11 14 -12 13 -13 -6z"/>
<path d="M941 2768 c-6 -17 -11 -40 -11 -52 1 -20 1 -20 15 -3 7 11 11 25 8
33 -3 8 0 21 6 28 7 9 8 17 2 20 -5 3 -14 -8 -20 -26z"/>
<path d="M512 2769 c-12 -18 -11 -21 7 -26 12 -3 22 -17 26 -34 9 -38 26 -37
23 1 -1 17 -6 30 -10 30 -4 0 -8 11 -8 25 0 30 -20 33 -38 4z"/>
<path d="M3056 2773 c-6 -14 -5 -15 5 -6 7 7 10 15 7 18 -3 3 -9 -2 -12 -12z"/>
<path d="M4145 2779 c-4 -6 -4 -13 -1 -16 3 -4 -1 -14 -10 -24 -14 -16 -14
-18 5 -28 30 -17 38 -14 55 21 19 37 19 38 6 38 -5 0 -17 -15 -27 -32 -14 -27
-18 -29 -21 -14 -2 10 1 23 7 29 13 13 14 37 2 37 -6 0 -13 -5 -16 -11z"/>
<path d="M5020 2780 c0 -6 7 -22 16 -35 10 -16 19 -61 24 -122 4 -54 15 -116
25 -138 9 -22 21 -58 25 -80 8 -32 9 -26 6 37 -3 42 -10 86 -17 99 -6 13 -12
47 -13 76 0 29 -3 53 -6 53 -3 0 -7 11 -8 24 -1 22 -39 96 -48 96 -2 0 -4 -5
-4 -10z"/>
<path d="M2210 2765 c7 -9 15 -13 17 -11 7 7 -7 26 -19 26 -6 0 -6 -6 2 -15z"/>
<path d="M1522 2745 c-16 -16 -19 -25 -12 -30 7 -4 16 -3 22 3 6 6 17 8 24 5
16 -6 19 13 4 22 -6 4 -8 11 -5 16 11 17 -10 7 -33 -16z"/>
<path d="M3530 2760 c0 -7 6 -10 14 -7 8 3 17 2 20 -4 2 -5 3 -4 2 3 -3 17
-36 23 -36 8z"/>
<path d="M4496 2761 c-4 -7 -5 -15 -2 -18 9 -9 19 4 14 18 -4 11 -6 11 -12 0z"/>
<path d="M2142 2746 c7 -8 17 -12 22 -9 4 3 2 9 -5 14 -22 13 -31 11 -17 -5z"/>
<path d="M3040 2735 c0 -8 2 -15 4 -15 2 0 6 7 10 15 3 8 1 15 -4 15 -6 0 -10
-7 -10 -15z"/>
<path d="M4985 2740 c3 -5 1 -10 -4 -10 -7 0 -11 -22 -11 -52 l1 -53 18 37
c18 36 18 88 -1 88 -5 0 -6 -4 -3 -10z"/>
<path d="M4209 2714 c-12 -23 -12 -27 6 -40 28 -21 41 -17 55 17 11 26 11 32
-1 40 -25 15 -45 10 -60 -17z m38 -21 c-16 -16 -17 -16 -17 3 0 11 3 24 7 28
4 3 11 2 17 -4 7 -7 5 -16 -7 -27z"/>
<path d="M4692 2728 c-7 -7 -12 -20 -12 -30 0 -10 -9 -27 -20 -38 -11 -11 -20
-26 -20 -33 0 -8 -3 -17 -7 -20 -10 -11 -13 -59 -3 -76 7 -13 13 -5 29 32 12
27 21 52 21 57 0 5 5 10 12 12 7 3 12 26 13 56 1 29 1 52 0 52 -1 0 -6 -5 -13
-12z"/>
<path d="M1087 2711 c-7 -28 6 -64 15 -40 2 8 2 25 -2 39 l-6 25 -7 -24z"/>
<path d="M3524 2716 c-8 -22 3 -33 18 -18 9 9 9 15 0 24 -9 9 -13 7 -18 -6z"/>
<path d="M4486 2722 c-3 -5 1 -9 9 -9 8 0 15 4 15 9 0 4 -4 8 -9 8 -6 0 -12
-4 -15 -8z"/>
<path d="M699 2703 c-10 -12 -11 -17 -2 -20 7 -2 9 -11 6 -19 -3 -8 0 -20 6
-28 12 -14 33 -104 34 -148 1 -35 37 -36 37 0 0 13 -3 21 -7 19 -5 -3 -8 16
-7 41 0 26 -3 54 -7 62 -5 8 -11 36 -14 63 -7 50 -22 60 -46 30z"/>
<path d="M3630 2710 c0 -5 5 -10 10 -10 6 0 10 5 10 10 0 6 -4 10 -10 10 -5 0
-10 -4 -10 -10z"/>
<path d="M3556 2691 c-4 -5 3 -7 14 -4 23 6 26 13 6 13 -8 0 -17 -4 -20 -9z"/>
<path d="M1439 2687 c-1 -4 -2 -10 -3 -14 -3 -19 -19 -33 -37 -33 -10 0 -19
-7 -19 -15 0 -9 9 -15 25 -15 24 0 30 -9 26 -37 -2 -18 14 -16 33 3 18 17 22
39 6 29 -5 -3 -10 1 -10 9 0 8 5 18 10 21 6 3 10 14 9 23 0 13 -3 12 -11 -5
-11 -23 -38 -39 -38 -23 0 6 4 10 9 10 14 0 23 32 11 44 -5 5 -11 7 -11 3z"/>
<path d="M1565 2667 c13 -7 19 -20 17 -32 -3 -15 -1 -17 8 -9 18 18 3 54 -23
54 -22 -1 -22 -1 -2 -13z"/>
<path d="M3575 2660 c-4 -6 -12 -10 -18 -9 -16 3 -47 -11 -47 -20 0 -15 42 -4
63 17 12 12 18 22 15 22 -4 0 -10 -5 -13 -10z"/>
<path d="M3750 2660 c0 -4 9 -10 20 -13 11 -3 20 -2 20 3 0 4 -9 10 -20 13
-11 3 -20 2 -20 -3z"/>
<path d="M1540 2650 c0 -5 5 -10 10 -10 6 0 10 5 10 10 0 6 -4 10 -10 10 -5 0
-10 -4 -10 -10z"/>
<path d="M340 2615 c0 -31 30 -211 44 -270 13 -50 21 -74 32 -95 20 -39 31
-71 33 -95 0 -8 5 -15 11 -15 5 0 3 21 -6 48 -31 100 -63 231 -79 327 -16 92
-35 147 -35 100z"/>
<path d="M1795 2621 c-3 -5 -1 -12 5 -16 5 -3 10 1 10 9 0 18 -6 21 -15 7z"/>
<path d="M1175 2590 c-22 -16 -46 -29 -52 -30 -14 0 -18 -40 -4 -40 19 0 106
66 109 83 5 24 -6 21 -53 -13z"/>
<path d="M1593 2594 c0 -16 13 -19 21 -5 3 5 0 11 -7 14 -8 3 -14 -1 -14 -9z"/>
<path d="M4957 2595 c-4 -8 -3 -16 1 -19 4 -3 9 4 9 15 2 23 -3 25 -10 4z"/>
<path d="M3510 2581 c0 -11 -6 -21 -12 -24 -7 -3 -3 -4 9 -4 12 1 25 7 28 15
3 8 0 10 -7 6 -8 -5 -9 -2 -5 9 3 10 2 17 -3 17 -6 0 -10 -9 -10 -19z"/>
<path d="M3901 2564 c-12 -15 -21 -36 -21 -47 0 -16 5 -13 23 14 19 28 29 34
55 31 37 -2 43 13 10 22 -38 10 -46 7 -67 -20z"/>
<path d="M1591 2553 c0 -11 3 -13 6 -5 2 6 10 9 15 6 7 -4 8 -2 4 4 -11 18
-26 14 -25 -5z"/>
<path d="M4947 2554 c-4 -4 -7 -17 -7 -28 1 -19 1 -20 11 -3 11 19 8 43 -4 31z"/>
<path d="M3916 2524 c-3 -9 1 -25 10 -37 9 -12 14 -15 11 -7 -2 8 0 25 4 38 6
16 5 22 -5 22 -8 0 -17 -7 -20 -16z"/>
<path d="M995 2485 c-78 -49 -99 -65 -92 -72 7 -6 167 98 167 108 0 12 3 14
-75 -36z"/>
<path d="M1315 2522 c-24 -5 -45 -21 -45 -34 0 -14 32 -5 53 15 21 21 20 25
-8 19z"/>
<path d="M1585 2520 c4 -6 11 -8 16 -5 14 9 11 15 -7 15 -8 0 -12 -5 -9 -10z"/>
<path d="M3494 2513 c2 -10 6 -17 9 -15 4 1 12 2 18 2 6 0 4 7 -5 15 -19 20
-25 19 -22 -2z"/>
<path d="M515 2510 c-3 -5 1 -10 10 -10 9 0 13 5 10 10 -3 6 -8 10 -10 10 -2
0 -7 -4 -10 -10z"/>
<path d="M1795 2510 c-3 -5 -1 -10 4 -10 6 0 11 5 11 10 0 6 -2 10 -4 10 -3 0
-8 -4 -11 -10z"/>
<path d="M3981 2503 c-5 -10 -12 -17 -15 -15 -3 1 -6 -1 -6 -5 0 -18 23 -6 31
15 10 26 4 29 -10 5z"/>
<path d="M1348 2493 c7 -3 16 -2 19 1 4 3 -2 6 -13 5 -11 0 -14 -3 -6 -6z"/>
<path d="M4534 2475 c3 -17 0 -25 -10 -25 -8 0 -14 -9 -14 -20 0 -11 -1 -23
-2 -27 -2 -3 5 -7 15 -9 12 -1 17 5 17 21 0 13 4 25 9 27 12 4 2 58 -10 58 -5
0 -7 -11 -5 -25z"/>
<path d="M1801 2474 c0 -11 3 -14 6 -6 3 7 2 16 -1 19 -3 4 -6 -2 -5 -13z"/>
<path d="M3505 2480 c-3 -5 -2 -10 4 -10 5 0 13 5 16 10 3 6 2 10 -4 10 -5 0
-13 -4 -16 -10z"/>
<path d="M1240 2470 c-13 -8 -12 -10 3 -10 9 0 17 5 17 10 0 12 -1 12 -20 0z"/>
<path d="M3190 2464 c0 -6 7 -19 16 -30 14 -18 14 -18 3 6 -14 31 -19 36 -19
24z"/>
<path d="M4042 2450 c-17 -27 -15 -57 4 -64 21 -8 79 -8 71 1 -4 3 1 12 11 19
16 13 15 16 -11 39 -34 30 -58 32 -75 5z m61 -24 c7 -17 -1 -26 -24 -26 -17 0
-32 23 -22 34 12 11 41 6 46 -8z"/>
<path d="M756 2453 c-12 -12 -6 -34 7 -27 7 5 7 1 -2 -10 -12 -15 -13 -19 -1
-26 11 -7 11 -12 2 -23 -7 -8 -10 -22 -6 -31 12 -32 20 -15 22 48 2 59 -6 85
-22 69z"/>
<path d="M1586 2451 c-4 -5 -2 -12 3 -15 5 -4 12 -2 15 3 4 5 2 12 -3 15 -5 4
-12 2 -15 -3z"/>
<path d="M1186 2435 c-10 -7 -16 -20 -13 -27 4 -10 6 -10 6 0 1 6 7 12 15 12
7 0 19 7 26 15 17 20 -7 20 -34 0z"/>
<path d="M3497 2435 c-4 -8 -2 -17 3 -20 6 -4 10 3 10 14 0 25 -6 27 -13 6z"/>
<path d="M3888 2443 c7 -3 16 -2 19 1 4 3 -2 6 -13 5 -11 0 -14 -3 -6 -6z"/>
<path d="M4216 2438 c3 -4 9 -8 15 -8 5 0 9 4 9 8 0 5 -7 9 -15 9 -8 0 -12 -4
-9 -9z"/>
<path d="M520 2430 c0 -5 7 -7 15 -4 8 4 15 8 15 10 0 2 -7 4 -15 4 -8 0 -15
-4 -15 -10z"/>
<path d="M3924 2414 c3 -9 6 -18 6 -20 0 -2 9 -4 20 -4 11 0 20 -6 20 -13 0
-7 14 -21 30 -30 17 -10 30 -22 30 -26 0 -4 6 -8 13 -9 6 -1 24 -4 39 -8 47
-11 77 4 108 53 33 52 36 63 18 63 -7 -1 -26 -21 -41 -45 -42 -67 -91 -70
-153 -10 -33 31 -78 65 -88 65 -4 0 -5 -7 -2 -16z"/>
<path d="M1586 2408 c3 -4 9 -8 15 -8 5 0 9 4 9 8 0 5 -7 9 -15 9 -8 0 -12 -4
-9 -9z"/>
<path d="M4481 2404 c0 -11 3 -14 6 -6 3 7 2 16 -1 19 -3 4 -6 -2 -5 -13z"/>
<path d="M1140 2399 c0 -5 5 -7 10 -4 6 3 10 8 10 11 0 2 -4 4 -10 4 -5 0 -10
-5 -10 -11z"/>
<path d="M4887 2393 c-14 -4 -17 -11 -12 -30 4 -16 2 -22 -5 -18 -6 3 -10 -3
-10 -14 0 -12 -4 -21 -9 -21 -5 0 -11 -9 -14 -20 -3 -13 0 -20 10 -20 8 0 11
5 8 10 -3 6 -1 10 6 10 7 0 9 3 6 7 -4 3 0 17 8 30 9 13 13 28 10 33 -3 6 -2
10 3 10 6 0 12 7 16 15 3 8 4 14 3 14 -1 -1 -10 -3 -20 -6z"/>
<path d="M1114 2381 c3 -5 0 -14 -8 -20 -11 -9 -15 -9 -18 1 -3 8 -6 7 -10 -4
-8 -19 12 -18 36 1 18 15 21 31 5 31 -5 0 -8 -4 -5 -9z"/>
<path d="M1593 2383 c-16 -6 -17 -33 -3 -33 11 0 26 28 19 34 -2 2 -10 1 -16
-1z"/>
<path d="M4482 2372 c-15 -13 -17 -20 -8 -28 9 -9 18 -5 33 12 25 28 5 42 -25
16z"/>
<path d="M936 2321 c-15 -24 57 -132 85 -127 31 5 64 19 77 33 22 22 8 25 -31
7 -19 -9 -42 -14 -51 -11 -8 3 -28 29 -44 57 -17 29 -33 47 -36 41z"/>
<path d="M4461 2314 c0 -11 3 -14 6 -6 3 7 2 16 -1 19 -3 4 -6 -2 -5 -13z"/>
<path d="M1010 2303 c0 -17 25 -27 47 -19 12 5 14 9 5 18 -17 17 -52 17 -52 1z"/>
<path d="M3461 2304 c0 -11 3 -14 6 -6 3 7 2 16 -1 19 -3 4 -6 -2 -5 -13z"/>
<path d="M607 2274 c3 -7 9 -14 14 -14 14 0 10 17 -5 23 -10 4 -13 1 -9 -9z"/>
<path d="M4993 2273 c-32 -4 -42 -20 -24 -38 5 -6 12 -30 16 -55 8 -53 8 -54
6 -60 -8 -22 -8 -80 0 -80 14 0 17 16 22 108 2 56 8 88 19 98 13 13 15 10 16
-31 0 -26 -6 -62 -14 -81 -8 -19 -12 -39 -10 -43 5 -7 31 -8 74 -3 16 3 15 24
-2 48 -14 18 -15 18 -25 -6 -11 -27 -11 -27 -15 8 -2 12 1 22 5 22 4 0 9 17
11 38 4 30 0 41 -19 60 -13 12 -25 21 -26 20 -1 0 -17 -3 -34 -5z"/>
<path d="M4812 2233 c-1 -15 3 -23 10 -21 15 5 18 45 3 45 -6 0 -12 -11 -13
-24z"/>
<path d="M1790 2239 c0 -5 5 -7 10 -4 6 3 10 8 10 11 0 2 -4 4 -10 4 -5 0 -10
-5 -10 -11z"/>
<path d="M4079 2243 c0 -5 -2 -16 -4 -25 -2 -10 1 -18 6 -18 5 0 9 11 9 25 0
22 -9 37 -11 18z"/>
<path d="M1566 2231 c-4 -5 3 -7 14 -4 23 6 26 13 6 13 -8 0 -17 -4 -20 -9z"/>
<path d="M4300 2215 c0 -8 7 -15 15 -15 8 0 15 7 15 15 0 8 -7 15 -15 15 -8 0
-15 -7 -15 -15z"/>
<path d="M4777 2155 c-19 -40 -22 -65 -7 -65 6 0 10 8 10 18 0 10 4 22 9 28
13 14 23 54 14 54 -5 0 -17 -16 -26 -35z"/>
<path d="M1618 2160 c-7 -24 -3 -38 8 -28 3 4 4 17 2 30 l-3 23 -7 -25z"/>
<path d="M3986 2168 c3 -4 9 -8 15 -8 5 0 9 4 9 8 0 5 -7 9 -15 9 -8 0 -12 -4
-9 -9z"/>
<path d="M4310 2141 c0 -10 7 -24 15 -31 12 -10 15 -10 15 3 0 23 -11 47 -21
47 -5 0 -9 -8 -9 -19z"/>
<path d="M1070 2120 c0 -5 9 -10 21 -10 11 0 17 5 14 10 -3 6 -13 10 -21 10
-8 0 -14 -4 -14 -10z"/>
<path d="M1129 2110 c-13 -10 -19 -20 -14 -20 6 -1 18 -3 27 -5 10 -2 20 1 24
6 3 5 -3 9 -13 9 -17 1 -17 2 1 15 11 8 15 15 9 15 -6 0 -21 -9 -34 -20z"/>
<path d="M470 2101 c0 -5 5 -13 10 -16 6 -3 10 -2 10 4 0 5 -4 13 -10 16 -5 3
-10 2 -10 -4z"/>
<path d="M1610 2088 c0 -12 3 -18 7 -14 11 10 12 36 2 36 -5 0 -9 -10 -9 -22z"/>
<path d="M4164 2068 c-17 -26 -57 -105 -109 -218 -29 -63 -74 -159 -99 -212
-25 -54 -41 -98 -37 -98 18 0 269 525 257 537 -2 3 -8 -2 -12 -9z"/>
<path d="M480 2060 c0 -5 5 -10 11 -10 5 0 7 5 4 10 -3 6 -8 10 -11 10 -2 0
-4 -4 -4 -10z"/>
<path d="M3380 2059 c0 -5 5 -7 10 -4 6 3 10 8 10 11 0 2 -4 4 -10 4 -5 0 -10
-5 -10 -11z"/>
<path d="M4335 2060 c-3 -6 1 -13 10 -16 19 -8 30 0 20 15 -8 14 -22 14 -30 1z"/>
<path d="M4730 2055 c0 -8 -5 -15 -11 -15 -5 0 -7 -5 -4 -11 5 -6 12 -4 21 8
16 22 18 33 4 33 -5 0 -10 -7 -10 -15z"/>
<path d="M4039 2015 c-21 -45 -20 -70 3 -47 17 17 37 81 27 88 -5 2 -18 -16
-30 -41z"/>
<path d="M496 2027 c3 -10 9 -15 12 -12 3 3 0 11 -7 18 -10 9 -11 8 -5 -6z"/>
<path d="M4290 2014 c0 -16 9 -18 28 -5 10 6 9 10 -7 14 -14 3 -21 0 -21 -9z"/>
<path d="M4697 2003 c-4 -3 -7 -11 -7 -17 0 -6 5 -5 12 2 6 6 9 14 7 17 -3 3
-9 2 -12 -2z"/>
<path d="M4345 1990 c-10 -17 12 -37 25 -24 8 8 6 15 -4 23 -10 9 -16 9 -21 1z"/>
<path d="M1620 1960 c0 -5 5 -10 11 -10 5 0 7 5 4 10 -3 6 -8 10 -11 10 -2 0
-4 -4 -4 -10z"/>
<path d="M963 1940 c-1 -11 2 -18 8 -15 11 7 12 35 1 35 -4 0 -8 -9 -9 -20z"/>
<path d="M4660 1935 c0 -8 5 -15 10 -15 6 0 10 7 10 15 0 8 -4 15 -10 15 -5 0
-10 -7 -10 -15z"/>
<path d="M191 1889 c-6 -14 -10 -18 -11 -9 -1 10 -4 9 -9 -5 -8 -19 1 -29 49
-51 28 -14 105 -67 133 -92 15 -14 27 -22 27 -16 0 5 7 0 15 -10 8 -11 18 -16
22 -13 9 10 -157 167 -177 167 -5 0 -10 6 -10 14 0 7 -7 19 -15 26 -12 10 -16
8 -24 -11z"/>
<path d="M4636 1895 c-3 -9 0 -15 9 -15 9 0 12 6 9 15 -4 8 -7 15 -9 15 -2 0
-5 -7 -9 -15z"/>
<path d="M4290 1880 c0 -17 3 -18 25 -8 33 15 44 2 38 -40 -6 -37 -25 -38 -33
-1 -8 33 -20 2 -13 -33 4 -19 11 -26 25 -25 22 2 32 21 42 85 l6 42 -45 0
c-38 0 -45 -3 -45 -20z"/>
<path d="M3724 1875 c11 -8 28 -15 38 -15 10 0 18 -7 18 -15 0 -8 5 -15 10
-15 16 0 11 32 -7 46 -10 7 -31 13 -48 13 -29 0 -29 0 -11 -14z"/>
<path d="M3677 1873 c-4 -3 -7 -16 -7 -27 0 -27 85 -65 103 -47 9 9 6 13 -11
17 -12 4 -22 10 -22 16 0 5 -8 4 -19 -2 -22 -11 -42 7 -22 20 9 5 8 10 -2 18
-8 7 -17 9 -20 5z"/>
<path d="M4620 1860 c0 -5 5 -10 10 -10 6 0 10 5 10 10 0 6 -4 10 -10 10 -5 0
-10 -4 -10 -10z"/>
<path d="M3830 1840 c14 -11 32 -17 41 -14 9 2 19 -2 23 -11 3 -8 12 -15 20
-15 8 0 16 -6 19 -12 4 -10 7 -10 18 -1 15 15 18 12 -53 46 -69 33 -106 37
-68 7z"/>
<path d="M3807 1796 c-7 -18 1 -26 25 -26 21 0 23 11 6 28 -16 16 -25 15 -31
-2z"/>
<path d="M5080 1750 c-6 -22 -15 -40 -20 -40 -6 0 -9 -4 -7 -9 3 -11 -93 -107
-105 -103 -5 1 -7 -2 -4 -7 4 -5 -2 -14 -11 -20 -17 -10 -17 -10 0 -11 9 0 17
5 17 11 0 5 4 8 9 5 5 -3 12 1 15 9 3 8 11 14 18 13 7 -2 12 3 11 10 -2 6 1
12 6 12 21 0 82 70 96 109 19 54 19 61 0 61 -8 0 -19 -16 -25 -40z"/>
<path d="M3874 1759 c-4 -8 21 -19 41 -19 7 0 15 6 18 14 4 9 -3 13 -25 12
-16 -1 -32 -4 -34 -7z"/>
<path d="M4405 1750 c3 -5 10 -10 16 -10 5 0 9 5 9 10 0 6 -7 10 -16 10 -8 0
-12 -4 -9 -10z"/>
<path d="M4328 1743 c-22 -6 -23 -19 -2 -27 20 -8 34 1 34 20 0 14 -2 15 -32
7z"/>
<path d="M1105 1710 c4 -6 11 -8 16 -5 14 9 11 15 -7 15 -8 0 -12 -5 -9 -10z"/>
<path d="M1130 1670 c0 -5 5 -10 11 -10 5 0 7 5 4 10 -3 6 -8 10 -11 10 -2 0
-4 -4 -4 -10z"/>
<path d="M1960 1633 c0 -5 0 -156 -1 -338 -1 -181 -1 -400 0 -486 l1 -155 347
3 c191 2 347 5 348 6 0 1 -1 220 -3 487 l-3 485 -197 -2 -197 -2 0 -438 0
-438 -92 0 -93 0 0 443 0 442 -55 0 c-30 0 -55 -3 -55 -7z m49 -50 c1 9 8 17
16 17 13 0 14 -54 12 -420 -1 -231 2 -420 6 -420 5 0 5 -5 2 -10 -3 -6 4 -14
17 -18 28 -10 198 -9 215 1 9 6 12 71 12 240 1 128 1 321 1 429 l0 197 160 -1
160 -1 1 -371 c0 -343 4 -474 13 -518 4 -15 -4 -18 -47 -18 -29 -1 -155 -2
-282 -4 -126 -2 -238 0 -247 5 -11 6 -18 5 -21 -4 -3 -9 -7 -9 -20 1 -14 12
-16 62 -16 465 0 266 4 444 9 432 7 -17 9 -17 9 -2z"/>
<path d="M2348 1550 c-10 -11 -12 -61 -11 -203 1 -103 6 -194 11 -203 7 -12
29 -16 90 -18 45 -1 82 1 82 6 0 4 7 8 15 8 22 0 26 49 21 230 -5 194 -5 190
-25 191 -90 8 -171 3 -183 -11z m177 -204 l4 -186 -64 0 c-35 0 -70 -3 -79 -6
-14 -5 -16 15 -16 187 l0 194 75 -2 75 -2 5 -185z"/>
<path d="M2480 1090 c0 -4 -25 -8 -57 -9 -31 0 -61 -5 -67 -11 -14 -14 -20
-310 -7 -330 11 -16 151 -32 151 -17 0 5 8 7 18 6 42 -4 42 -5 39 170 -1 93
-5 172 -8 175 -11 12 -69 25 -69 16z m48 -181 l-3 -150 -78 -2 -78 -2 3 146 3
146 59 1 c32 1 61 3 64 6 3 4 11 6 19 6 11 0 13 -29 11 -151z"/>
<path d="M2720 1193 c0 -392 -2 -443 -15 -443 -13 0 -14 -4 -5 -20 8 -14 8
-26 0 -41 -7 -11 -10 -22 -8 -24 2 -2 106 -5 232 -6 l228 -1 -2 263 c0 144 -3
265 -5 269 -2 4 -16 74 -30 156 -14 82 -27 158 -30 170 -4 19 -1 20 83 16 l88
-4 10 51 c6 29 7 54 3 56 -4 3 -129 4 -278 3 l-271 -1 0 -444z m68 411 c23 -7
32 -43 10 -45 -9 0 -10 -2 -1 -5 16 -7 19 -594 2 -594 -8 0 -8 -4 -1 -13 13
-16 13 -159 0 -151 -6 4 -5 -3 1 -14 6 -11 11 -34 11 -51 0 -17 5 -31 11 -31
6 0 8 7 5 16 -3 8 -2 13 2 10 5 -3 28 -6 53 -7 24 -2 52 -7 63 -13 14 -8 20
-8 23 2 6 17 63 16 63 -2 0 -10 -30 -13 -146 -15 l-145 -1 4 42 c2 30 8 42 17
40 10 -2 11 0 2 10 -13 16 -17 828 -5 828 5 0 18 -3 31 -6z m62 -5 c0 -6 8 -8
18 -5 25 8 351 10 358 3 4 -3 3 -14 -1 -24 -8 -17 -8 -17 -12 0 -3 9 -9 17
-14 17 -6 0 -7 -5 -4 -10 4 -7 -14 -10 -53 -9 -77 2 -95 -13 -88 -73 11 -101
26 -185 37 -216 6 -18 9 -36 5 -39 -3 -3 0 -13 7 -21 14 -18 20 -519 5 -528
-4 -3 -17 -2 -29 1 -16 5 -19 13 -15 38 3 18 6 106 6 197 2 154 -8 264 -30
335 -5 17 -11 52 -14 79 -5 47 -36 207 -42 215 -2 2 -32 7 -68 10 -54 6 -66 4
-71 -9 -6 -13 -7 -13 -16 2 -10 18 -2 48 12 48 5 0 9 -5 9 -11z m118 -90 c5
-43 42 -252 57 -324 13 -64 23 -424 11 -436 -2 -2 -47 -3 -100 -1 l-96 3 0
392 0 392 62 -1 c59 -1 63 -2 66 -25z"/>
<path d="M3040 1329 c0 -5 5 -7 10 -4 6 3 10 8 10 11 0 2 -4 4 -10 4 -5 0 -10
-5 -10 -11z"/>
<path d="M1163 1598 c2 -12 9 -24 15 -26 15 -5 16 14 2 23 -6 4 -8 11 -5 16 4
5 1 9 -4 9 -6 0 -9 -10 -8 -22z"/>
<path d="M4310 1591 c0 -11 4 -21 9 -21 18 0 21 18 6 30 -13 10 -15 9 -15 -9z"/>
<path d="M1187 1547 c-3 -7 3 -19 13 -25 14 -9 18 -8 16 4 -4 23 -22 38 -29
21z"/>
<path d="M4886 1541 c-3 -4 6 -6 19 -3 14 2 25 6 25 8 0 8 -39 4 -44 -5z"/>
<path d="M3818 1501 c-21 -44 -23 -61 -7 -61 6 0 9 9 6 20 -3 12 1 23 9 28 15
8 28 52 16 52 -4 0 -15 -18 -24 -39z"/>
<path d="M4853 1515 c-17 -18 -16 -22 2 -22 8 0 15 9 15 19 0 21 -1 22 -17 3z"/>
<path d="M4316 1513 c-3 -3 -3 -10 0 -14 7 -12 44 -12 44 0 0 10 -36 21 -44
14z"/>
<path d="M133 1488 c-10 -11 -7 -14 13 -16 13 -1 24 3 24 9 0 5 -4 8 -9 5 -5
-4 -11 -1 -13 5 -2 7 -8 7 -15 -3z"/>
<path d="M1216 1492 c-3 -6 -1 -14 5 -17 15 -10 25 3 12 16 -7 7 -13 7 -17 1z"/>
<path d="M4815 1470 c-4 -6 -11 -8 -16 -4 -5 3 -8 0 -7 -8 2 -7 -4 -12 -12
-10 -8 2 -12 0 -8 -4 4 -4 3 -12 -2 -19 -7 -8 -5 -12 5 -12 7 0 13 5 12 11 -1
6 5 10 13 8 8 -2 12 0 7 4 -4 4 0 16 10 26 9 10 13 18 10 18 -3 0 -9 -5 -12
-10z"/>
<path d="M5075 1470 c-3 -6 -3 -20 1 -32 3 -12 8 -42 10 -66 3 -44 17 -72 30
-59 4 3 2 23 -3 44 -6 23 -6 52 -1 72 7 25 6 36 -4 42 -17 11 -26 11 -33 -1z"/>
<path d="M107 1446 c-4 -10 -1 -13 9 -9 7 3 14 9 14 14 0 14 -17 10 -23 -5z"/>
<path d="M195 1450 c4 -6 11 -8 16 -5 14 9 11 15 -7 15 -8 0 -12 -5 -9 -10z"/>
<path d="M1232 1448 c6 -18 28 -21 28 -4 0 9 -7 16 -16 16 -9 0 -14 -5 -12
-12z"/>
<path d="M145 1430 c-3 -5 3 -10 15 -10 12 0 18 5 15 10 -3 6 -10 10 -15 10
-5 0 -12 -4 -15 -10z"/>
<path d="M3782 1405 c0 -16 2 -22 5 -12 2 9 2 23 0 30 -3 6 -5 -1 -5 -18z"/>
<path d="M190 1409 c0 -5 5 -7 10 -4 6 3 10 8 10 11 0 2 -4 4 -10 4 -5 0 -10
-5 -10 -11z"/>
<path d="M303 1386 c7 -14 15 -22 19 -19 5 2 6 9 3 14 -4 5 -1 9 6 9 18 0 2
13 -20 17 -17 2 -18 0 -8 -21z"/>
<path d="M1250 1400 c0 -5 7 -10 15 -10 8 0 15 5 15 10 0 6 -7 10 -15 10 -8 0
-15 -4 -15 -10z"/>
<path d="M126 1381 c-4 -5 -2 -12 3 -15 5 -4 12 -2 15 3 4 5 2 12 -3 15 -5 4
-12 2 -15 -3z"/>
<path d="M1276 1363 c-11 -11 -6 -23 9 -23 8 0 15 4 15 9 0 13 -16 22 -24 14z"/>
<path d="M3749 1348 c-7 -13 -21 -38 -31 -56 -10 -18 -18 -37 -18 -43 0 -6 -7
-17 -15 -26 -8 -8 -13 -18 -10 -23 3 -4 -2 -10 -10 -14 -8 -3 -15 -10 -15 -15
0 -19 25 -1 48 34 12 19 22 42 22 50 0 8 5 15 10 15 6 0 10 8 10 18 0 10 5 23
10 28 11 11 22 54 15 54 -2 0 -10 -10 -16 -22z"/>
<path d="M4270 1360 c0 -5 5 -10 11 -10 5 0 7 5 4 10 -3 6 -8 10 -11 10 -2 0
-4 -4 -4 -10z"/>
<path d="M4330 1350 c-12 -7 -10 -9 8 -7 12 0 22 5 22 9 0 11 -12 10 -30 -2z"/>
<path d="M170 1340 c0 -5 7 -7 15 -4 8 4 15 8 15 10 0 2 -7 4 -15 4 -8 0 -15
-4 -15 -10z"/>
<path d="M95 1330 c-4 -6 -11 -8 -16 -5 -5 4 -9 -4 -8 -17 0 -13 3 -17 6 -10
2 6 11 12 19 12 8 0 14 7 14 15 0 17 -6 19 -15 5z"/>
<path d="M231 1324 c0 -11 3 -14 6 -6 3 7 2 16 -1 19 -3 4 -6 -2 -5 -13z"/>
<path d="M4277 1333 c-10 -9 -9 -23 1 -23 5 0 9 7 9 15 0 17 -1 18 -10 8z"/>
<path d="M297 1311 c-3 -12 -1 -21 3 -21 14 0 19 15 11 29 -6 9 -10 7 -14 -8z"/>
<path d="M1310 1330 c-7 -31 -7 -41 0 -45 14 -9 22 14 11 32 -6 10 -11 16 -11
13z"/>
<path d="M137 1303 c-4 -3 -7 -13 -7 -22 1 -13 3 -13 11 2 11 19 8 33 -4 20z"/>
<path d="M246 1288 c-20 -29 -21 -58 -1 -58 12 0 13 4 5 19 -7 15 -6 24 6 36
9 9 14 18 11 21 -3 3 -12 -5 -21 -18z"/>
<path d="M4273 1275 c0 -8 7 -15 15 -15 7 0 12 5 10 12 -6 18 -25 21 -25 3z"/>
<path d="M282 1268 c-16 -16 -15 -38 2 -38 7 0 16 11 18 25 6 27 -1 32 -20 13z"/>
<path d="M1320 1260 c0 -5 5 -10 11 -10 5 0 7 -4 4 -10 -3 -5 1 -10 9 -10 14
0 14 3 4 20 -14 21 -28 27 -28 10z"/>
<path d="M4330 1260 c0 -5 9 -10 20 -10 11 0 20 5 20 10 0 6 -9 10 -20 10 -11
0 -20 -4 -20 -10z"/>
<path d="M1340 1210 c0 -5 4 -10 9 -10 6 0 13 5 16 10 3 6 -1 10 -9 10 -9 0
-16 -4 -16 -10z"/>
<path d="M4275 1211 c-7 -12 12 -24 25 -16 11 7 4 25 -10 25 -5 0 -11 -4 -15
-9z"/>
<path d="M1362 1181 c2 -7 7 -12 11 -12 12 1 9 15 -3 20 -7 2 -11 -2 -8 -8z"/>
<path d="M4286 1162 c-3 -6 -1 -14 5 -17 15 -10 25 3 12 16 -7 7 -13 7 -17 1z"/>
<path d="M3640 1140 c0 -5 5 -10 10 -10 6 0 10 5 10 10 0 6 -4 10 -10 10 -5 0
-10 -4 -10 -10z"/>
<path d="M1380 1130 c0 -5 7 -10 16 -10 8 0 12 5 9 10 -3 6 -10 10 -16 10 -5
0 -9 -4 -9 -10z"/>
<path d="M56 1121 c-4 -5 -2 -12 3 -15 5 -4 12 -2 15 3 4 5 2 12 -3 15 -5 4
-12 2 -15 -3z"/>
<path d="M3603 1065 c-25 -48 -28 -65 -14 -65 8 0 23 41 20 57 0 3 6 10 15 15
9 5 16 16 16 23 0 27 -15 15 -37 -30z"/>
<path d="M4280 1080 c0 -13 5 -20 13 -17 6 2 12 10 12 17 0 7 -6 15 -12 18 -8
2 -13 -5 -13 -18z"/>
<path d="M4355 1089 c-9 -14 -2 -20 14 -10 8 6 9 11 3 15 -6 3 -14 1 -17 -5z"/>
<path d="M52 1063 c2 -10 8 -18 13 -19 6 0 18 -4 28 -8 10 -5 23 -3 32 4 8 6
19 9 24 6 5 -4 12 -2 16 4 4 6 -8 11 -29 11 -48 2 -53 3 -62 12 -13 13 -26 7
-22 -10z"/>
<path d="M4280 1010 c0 -11 7 -20 15 -20 17 0 18 2 9 24 -9 23 -24 20 -24 -4z"/>
<path d="M1410 1010 c0 -5 7 -10 15 -10 8 0 15 5 15 10 0 6 -7 10 -15 10 -8 0
-15 -4 -15 -10z"/>
<path d="M3560 959 c0 -5 5 -7 10 -4 6 3 10 8 10 11 0 2 -4 4 -10 4 -5 0 -10
-5 -10 -11z"/>
<path d="M4290 940 c0 -11 7 -20 15 -20 8 0 15 6 15 14 0 8 -7 16 -15 20 -10
4 -15 -1 -15 -14z"/>
<path d="M440 900 c0 -5 5 -10 11 -10 5 0 7 5 4 10 -3 6 -8 10 -11 10 -2 0 -4
-4 -4 -10z"/>
<path d="M4290 855 c0 -8 7 -15 15 -15 8 0 15 7 15 15 0 8 -7 15 -15 15 -8 0
-15 -7 -15 -15z"/>
<path d="M4298 808 c9 -9 15 -9 24 0 9 9 7 12 -12 12 -19 0 -21 -3 -12 -12z"/>
<path d="M4290 773 c0 -5 5 -15 10 -23 9 -13 11 -13 19 0 5 8 7 18 5 22 -6 10
-34 11 -34 1z"/>
<path d="M1743 712 c-53 -2 -73 -7 -73 -16 0 -17 41 -22 173 -25 92 -2 97 -1
97 19 0 14 -7 20 -22 21 -55 4 -108 4 -175 1z"/>
<path d="M4407 713 c-10 -9 -9 -23 2 -23 5 0 11 7 15 15 5 15 -5 20 -17 8z"/>
<path d="M4302 685 c2 -21 4 -23 16 -11 8 8 11 19 8 25 -13 20 -26 12 -24 -14z"/>
<path d="M1620 692 c0 -15 11 -21 27 -15 12 5 12 7 1 14 -17 11 -28 11 -28 1z"/>
<path d="M3175 670 c-4 -6 -5 -13 -3 -15 1 -2 69 -5 150 -7 133 -4 182 1 167
16 -2 3 -73 8 -156 11 -108 5 -153 3 -158 -5z"/>
<path d="M4405 650 c-3 -5 -2 -10 4 -10 5 0 13 5 16 10 3 6 2 10 -4 10 -5 0
-13 -4 -16 -10z"/>
<path d="M4297 636 c-5 -14 10 -36 25 -36 13 0 9 27 -6 39 -10 9 -15 8 -19 -3z"/>
<path d="M3533 508 c4 -68 10 -210 13 -315 4 -106 10 -193 14 -193 4 0 6 33 4
72 -1 40 -6 172 -10 293 -5 121 -7 230 -6 243 2 12 -3 22 -9 22 -9 0 -10 -32
-6 -122z"/>
<path d="M115 610 c-3 -5 -1 -10 6 -10 8 0 8 -5 -2 -17 -11 -15 -11 -16 1 -5
8 6 25 13 40 13 20 1 21 2 5 6 -11 3 -25 9 -32 15 -7 6 -14 5 -18 -2z"/>
<path d="M85 590 c-3 -5 -1 -10 4 -10 6 0 11 5 11 10 0 6 -2 10 -4 10 -3 0 -8
-4 -11 -10z"/>
<path d="M4410 585 c0 -8 5 -15 10 -15 6 0 10 7 10 15 0 8 -4 15 -10 15 -5 0
-10 -7 -10 -15z"/>
<path d="M200 581 c0 -6 5 -13 10 -16 6 -3 10 1 10 9 0 9 -4 16 -10 16 -5 0
-10 -4 -10 -9z"/>
<path d="M4300 551 c0 -12 6 -21 16 -21 9 0 14 7 12 17 -5 25 -28 28 -28 4z"/>
<path d="M237 539 c-5 -20 -5 -20 14 -3 23 20 23 24 5 24 -7 0 -16 -9 -19 -21z"/>
<path d="M300 540 c0 -5 5 -10 10 -10 6 0 10 5 10 10 0 6 -4 10 -10 10 -5 0
-10 -4 -10 -10z"/>
<path d="M340 531 c0 -10 19 -25 25 -20 1 2 -3 10 -11 17 -8 7 -14 8 -14 3z"/>
<path d="M4410 533 c0 -5 5 -15 10 -23 8 -12 10 -11 10 8 0 12 -4 22 -10 22
-5 0 -10 -3 -10 -7z"/>
<path d="M4318 503 c7 -3 16 -2 19 1 4 3 -2 6 -13 5 -11 0 -14 -3 -6 -6z"/>
<path d="M4420 471 c0 -12 5 -21 10 -21 6 0 10 6 10 14 0 8 -4 18 -10 21 -5 3
-10 -3 -10 -14z"/>
<path d="M4300 465 c0 -8 7 -15 15 -15 8 0 15 7 15 15 0 8 -7 15 -15 15 -8 0
-15 -7 -15 -15z"/>
<path d="M4420 379 c0 -11 5 -17 10 -14 6 3 10 13 10 21 0 8 -4 14 -10 14 -5
0 -10 -9 -10 -21z"/>
<path d="M4302 354 c2 -11 11 -20 22 -22 13 -3 17 1 14 14 -2 11 -11 20 -22
22 -13 3 -17 -1 -14 -14z"/>
<path d="M4330 310 c0 -5 5 -10 10 -10 6 0 10 5 10 10 0 6 -4 10 -10 10 -5 0
-10 -4 -10 -10z"/>
<path d="M4420 299 c0 -5 5 -7 10 -4 6 3 10 8 10 11 0 2 -4 4 -10 4 -5 0 -10
-5 -10 -11z"/>
<path d="M4422 254 c-1 -14 2 -23 7 -20 5 4 8 13 7 21 -4 25 -12 25 -14 -1z"/>
<path d="M4309 265 c-11 -10 4 -85 16 -85 18 0 28 17 15 25 -5 3 -10 17 -10
30 0 22 -12 40 -21 30z"/>
<path d="M4420 198 c0 -19 2 -20 10 -8 13 19 13 30 0 30 -5 0 -10 -10 -10 -22z"/>
<path d="M4305 110 c2 -31 15 -37 15 -7 0 15 -4 27 -8 27 -5 0 -8 -9 -7 -20z"/>
</g>
</svg>
