<?xml version="1.0" standalone="no"?>
<!DOCTYPE svg PUBLIC "-//W3C//DTD SVG 20010904//EN"
 "http://www.w3.org/TR/2001/REC-SVG-20010904/DTD/svg10.dtd">
<svg version="1.0" xmlns="http://www.w3.org/2000/svg"
 width="512.000000pt" height="512.000000pt" viewBox="0 0 512.000000 512.000000"
 preserveAspectRatio="xMidYMid meet">
<metadata>
Created by potrace 1.16, written by Peter Selinger 2001-2019
</metadata>
<g transform="translate(0.000000,512.000000) scale(0.100000,-0.100000)"
fill="#000000" stroke="none">
<path d="M1386 4669 c-18 -27 -20 -39 -6 -39 6 0 10 9 10 19 0 11 4 22 9 25
19 12 478 -123 577 -170 28 -13 56 -24 63 -24 7 0 38 15 69 33 77 44 159 77
207 83 84 9 156 11 161 3 3 -5 16 -9 30 -9 26 0 31 -9 14 -26 -8 -8 -8 -19 0
-38 5 -15 10 -38 10 -52 0 -13 4 -24 9 -24 14 0 23 18 12 22 -9 3 -15 52 -12
96 0 12 8 22 16 22 13 0 14 -4 5 -20 -14 -26 5 -27 40 -3 35 25 168 30 250 9
36 -9 102 -34 147 -56 l81 -40 44 18 c118 51 561 173 575 159 2 -3 7 -41 10
-84 6 -94 -17 -281 -52 -417 -23 -92 -109 -292 -140 -326 -13 -14 -12 -29 5
-118 11 -57 21 -119 21 -140 2 -30 3 -32 6 -9 2 15 8 27 13 27 6 0 12 -12 16
-27 3 -16 10 -41 15 -57 5 -16 9 -102 9 -191 0 -127 -4 -171 -16 -201 -12 -28
-15 -56 -11 -104 9 -107 30 -224 41 -232 8 -6 7 -11 -2 -16 -9 -7 -8 -31 8
-118 18 -97 19 -102 15 -39 -9 116 -10 120 -18 126 -5 3 -2 9 6 12 11 4 16
-10 21 -70 3 -42 6 -94 6 -117 0 -22 20 -135 45 -251 24 -115 54 -286 65 -380
12 -93 24 -174 28 -180 3 -5 5 -35 4 -67 -3 -60 6 -76 35 -59 17 10 17 10 1
11 -15 0 -17 7 -13 52 10 104 12 215 5 254 -7 35 -8 33 -7 -21 1 -33 0 -89 -1
-125 l-3 -65 -14 44 c-8 25 -13 52 -12 60 1 9 -2 41 -6 71 -5 30 -15 100 -22
155 -8 55 -26 152 -39 215 -13 63 -27 133 -30 154 -4 21 -9 51 -12 65 -4 20
-3 23 5 11 14 -20 14 -18 -9 90 -11 51 -20 110 -20 129 0 20 -7 57 -15 83 -16
54 -47 229 -42 235 2 2 12 -23 22 -54 10 -32 21 -62 26 -67 12 -14 12 -11 -12
74 -20 75 -20 161 2 168 6 3 6 9 -1 17 -8 9 -8 20 -2 32 14 27 24 133 13 133
-5 0 -12 -10 -14 -22 -2 -13 -5 27 -6 89 0 62 -5 115 -11 118 -5 3 -10 17 -10
31 0 13 -8 32 -18 42 -11 11 -26 54 -36 108 l-18 89 40 75 c93 171 134 336
157 630 6 85 -13 164 -42 168 -11 2 -75 -11 -141 -27 -66 -17 -132 -31 -145
-31 -21 0 -183 -52 -282 -91 -27 -10 -39 -7 -115 29 -119 57 -228 78 -328 63
-75 -11 -151 -7 -182 9 -19 10 -139 3 -195 -11 -22 -6 -58 -15 -79 -20 -22 -6
-70 -27 -107 -47 l-67 -37 -64 24 c-82 30 -221 72 -388 117 -187 50 -185 50
-204 23z m2241 -1426 c-3 -10 -5 -2 -5 17 0 19 2 27 5 18 2 -10 2 -26 0 -35z"/>
<path d="M1365 4540 c22 -300 71 -511 151 -657 19 -34 34 -73 34 -85 0 -26
-27 -152 -40 -184 -9 -23 3 -53 14 -36 7 12 51 161 61 210 5 26 3 39 -13 55
-91 102 -159 344 -197 712 -10 92 -18 81 -10 -15z"/>
<path d="M1446 4611 c14 -13 404 -144 410 -138 5 5 -99 44 -256 97 -108 36
-166 52 -154 41z"/>
<path d="M2295 4573 l-50 -16 40 -9 c22 -5 46 -7 55 -4 8 2 2 4 -15 5 l-30 2
25 10 c14 6 43 14 65 19 l40 8 -40 0 c-22 0 -62 -7 -90 -15z"/>
<path d="M3535 4564 c-177 -53 -365 -116 -370 -124 -3 -5 21 0 52 11 32 10
139 44 238 73 99 30 169 55 155 55 -14 0 -47 -7 -75 -15z"/>
<path d="M2646 4562 c-2 -4 12 -6 32 -4 56 5 62 10 15 11 -23 1 -44 -3 -47 -7z"/>
<path d="M2380 4552 c22 -7 17 -10 -34 -20 -33 -7 -75 -12 -95 -11 -33 1 -34
2 -11 9 15 5 18 8 8 9 -24 1 -49 -10 -42 -20 3 -5 -2 -6 -10 -3 -9 4 -16 1
-16 -6 0 -8 11 -10 33 -7 17 4 69 9 115 13 45 4 82 11 82 17 0 5 13 7 32 3 24
-5 29 -3 21 5 -6 6 -33 13 -60 15 -33 2 -40 1 -23 -4z"/>
<path d="M2710 4547 c-3 -3 -29 -7 -59 -9 -33 -3 -57 -10 -59 -17 -3 -10 4
-11 29 -6 19 5 72 11 119 15 47 4 73 8 59 9 -15 0 -39 4 -55 7 -16 3 -31 3
-34 1z"/>
<path d="M2850 4520 c8 -5 22 -10 30 -10 13 0 13 1 0 10 -8 5 -22 10 -30 10
-13 0 -13 -1 0 -10z"/>
<path d="M1860 4496 c20 -20 160 -76 160 -65 0 5 -7 12 -15 15 -8 4 -13 10
-10 14 3 5 0 12 -6 16 -8 4 -9 3 -5 -4 9 -15 12 -16 -69 13 -47 17 -65 21 -55
11z"/>
<path d="M2340 4504 c-85 -12 -210 -39 -210 -45 0 -9 32 -5 88 10 24 7 81 13
128 14 46 1 84 5 84 8 0 7 -39 19 -55 18 -5 -1 -21 -3 -35 -5z"/>
<path d="M2643 4499 c-24 -6 -43 -14 -43 -20 0 -5 11 -7 23 -3 36 8 135 9 192
2 l50 -7 -45 15 c-61 20 -126 25 -177 13z"/>
<path d="M3150 4485 c-25 -13 -53 -24 -62 -25 -11 0 -15 -5 -12 -15 4 -10 0
-15 -14 -15 -20 0 -76 -39 -56 -40 18 0 147 67 179 94 38 32 23 32 -35 1z"/>
<path d="M2938 4493 c6 -3 12 -9 12 -14 0 -5 20 -9 45 -9 25 0 45 5 45 10 0 6
-17 10 -37 10 -21 0 -47 2 -58 4 -11 2 -14 1 -7 -1z"/>
<path d="M2242 4454 c-62 -16 -92 -31 -92 -45 0 -5 12 -3 28 5 23 12 89 30
177 49 11 3 2 5 -20 5 -22 0 -64 -6 -93 -14z"/>
<path d="M2650 4460 c-50 -8 -45 -12 15 -15 22 -1 65 -7 95 -14 30 -6 69 -13
85 -16 30 -5 30 -5 -5 11 -19 9 -56 19 -82 22 -26 2 -45 8 -42 13 6 10 2 10
-66 -1z"/>
<path d="M3040 4450 c-9 -6 -10 -10 -3 -10 6 0 15 5 18 10 8 12 4 12 -15 0z"/>
<path d="M2315 4430 c-33 -10 -55 -19 -50 -19 14 -1 159 29 164 35 11 10 -59
1 -114 -16z"/>
<path d="M2529 4433 c-1 -5 -1 -12 0 -16 8 -43 7 -73 0 -78 -6 -3 6 -6 26 -6
l35 0 -22 21 c-20 18 -20 21 -5 24 15 3 15 5 2 18 -8 8 -12 21 -9 29 4 9 0 15
-10 15 -9 0 -17 -3 -17 -7z"/>
<path d="M2911 4416 c-8 -9 -11 -19 -7 -23 9 -9 29 13 24 27 -2 8 -8 7 -17 -4z"/>
<path d="M2326 4405 c-28 -8 -53 -12 -57 -10 -10 7 -99 -34 -99 -45 0 -13 6
-13 42 6 20 10 28 11 22 3 -5 -9 -2 -10 12 -5 10 4 48 17 84 28 125 39 119 36
80 36 -19 0 -57 -6 -84 -13z"/>
<path d="M2628 4413 c-33 -8 -18 -20 22 -17 45 3 51 -2 18 -15 -17 -7 -3 -9
49 -9 39 0 77 -3 85 -7 9 -5 8 -3 -2 8 -8 9 -42 23 -75 32 -61 15 -67 16 -97
8z"/>
<path d="M1734 4344 c-82 -43 -118 -124 -76 -172 33 -39 54 -36 115 19 36 32
57 59 57 72 0 16 3 18 9 8 15 -23 0 -50 -51 -96 -51 -46 -50 -57 2 -30 38 20
70 62 70 94 0 36 -33 87 -68 105 -25 13 -32 13 -58 0z m56 -11 c0 -5 -13 -15
-29 -24 -39 -23 -92 -101 -80 -120 11 -18 11 -29 0 -29 -5 0 -14 13 -19 29 -8
23 -6 35 7 57 33 55 121 118 121 87z m36 -35 c4 -6 3 -8 -3 -5 -6 4 -16 0 -23
-8 -10 -12 -9 -15 4 -15 25 0 3 -36 -35 -55 -16 -9 -27 -20 -24 -25 10 -15
-21 -12 -34 4 -13 15 4 66 22 66 5 0 20 11 33 25 25 27 48 32 60 13z"/>
<path d="M2338 4353 c7 -3 16 -2 19 1 4 3 -2 6 -13 5 -11 0 -14 -3 -6 -6z"/>
<path d="M2705 4336 c39 -8 84 -17 100 -20 28 -7 28 -6 -5 9 -19 9 -64 18
-100 21 l-65 4 70 -14z"/>
<path d="M2347 4325 c-20 -8 -47 -21 -60 -30 -22 -16 -22 -16 8 -9 17 4 47 13
69 21 21 7 47 13 57 13 11 0 19 5 19 10 0 14 -48 11 -93 -5z"/>
<path d="M3236 4313 c-50 -50 -43 -107 21 -163 47 -42 86 -40 129 6 37 39 41
61 19 103 -40 78 -120 104 -169 54z m125 -29 c33 -38 41 -64 30 -93 -7 -14
-20 -32 -31 -39 -28 -17 -25 -4 5 24 22 21 24 27 14 46 -31 60 -86 95 -120 77
-16 -8 -20 -8 -14 1 21 34 79 26 116 -16z m-51 -10 c52 -35 65 -76 33 -100
-16 -11 -23 -8 -55 24 -47 45 -50 85 -8 91 3 1 17 -6 30 -15z m-48 -79 c13
-11 35 -28 48 -37 23 -16 24 -17 5 -17 -22 -1 -88 61 -98 92 -4 9 -3 25 0 35
5 13 9 8 14 -18 4 -19 18 -44 31 -55z"/>
<path d="M2615 4320 c3 -5 11 -10 16 -10 6 0 7 5 4 10 -3 6 -11 10 -16 10 -6
0 -7 -4 -4 -10z"/>
<path d="M2654 4319 c-3 -5 -2 -9 3 -10 4 0 18 -2 31 -5 12 -2 22 0 22 5 0 12
-49 20 -56 10z"/>
<path d="M2520 4314 c0 -3 5 -15 11 -26 9 -16 13 -18 20 -7 4 8 3 19 -3 26
-11 13 -28 18 -28 7z"/>
<path d="M2353 4270 c-58 -26 -54 -34 5 -11 26 10 54 21 62 24 11 4 9 6 -5 6
-11 0 -39 -8 -62 -19z"/>
<path d="M2686 4271 c5 -5 25 -12 44 -15 l35 -6 -30 15 c-34 16 -64 20 -49 6z"/>
<path d="M2648 4263 c7 -3 16 -2 19 1 4 3 -2 6 -13 5 -11 0 -14 -3 -6 -6z"/>
<path d="M2545 4240 c4 -12 1 -27 -5 -35 -9 -11 -9 -15 -1 -15 7 0 9 -9 5 -25
-7 -30 6 -33 23 -6 9 14 9 21 1 23 -8 3 -7 10 1 27 10 17 10 26 0 37 -17 21
-31 17 -24 -6z"/>
<path d="M2361 4209 c-53 -35 -63 -45 -36 -34 11 4 34 11 50 15 21 6 24 8 10
9 -16 2 -13 6 15 21 19 11 28 19 20 19 -8 1 -35 -13 -59 -30z"/>
<path d="M2690 4230 c-12 -8 -10 -10 8 -10 13 0 20 4 17 10 -7 12 -6 12 -25 0z"/>
<path d="M1451 4210 c0 -8 4 -24 9 -35 5 -13 9 -14 9 -5 0 8 -4 24 -9 35 -5
13 -9 14 -9 5z"/>
<path d="M2663 4203 c15 -2 39 -2 55 0 15 2 2 4 -28 4 -30 0 -43 -2 -27 -4z"/>
<path d="M1616 4145 c4 -16 7 -50 7 -74 -1 -27 2 -39 7 -30 15 26 13 64 -4 99
-16 34 -17 34 -10 5z"/>
<path d="M1660 4124 c0 -8 3 -13 8 -12 4 0 15 -2 25 -7 31 -13 29 2 -2 18 -26
13 -31 13 -31 1z"/>
<path d="M3393 4113 c-33 -17 -43 -33 -21 -33 6 0 20 8 31 18 19 16 20 16 33
-3 37 -56 44 -60 26 -16 -10 25 -23 46 -28 47 -5 2 -24 -5 -41 -13z"/>
<path d="M2542 4078 c-2 -32 0 -39 8 -28 12 18 13 70 2 70 -4 0 -9 -19 -10
-42z"/>
<path d="M3550 3998 c-27 -63 -58 -116 -82 -141 -38 -41 -46 -61 -28 -72 6 -3
10 1 10 10 0 9 15 35 34 57 33 38 125 233 115 243 -3 2 -25 -41 -49 -97z"/>
<path d="M1934 4076 c-28 -12 -54 -36 -40 -36 8 0 86 42 86 46 0 7 -14 4 -46
-10z"/>
<path d="M2060 4080 c-9 -6 -10 -10 -3 -10 6 0 15 5 18 10 8 12 4 12 -15 0z"/>
<path d="M1495 4043 c24 -56 74 -145 98 -170 36 -40 40 -25 5 16 -19 22 -51
74 -72 115 -40 80 -57 101 -31 39z"/>
<path d="M2010 4061 c-6 -12 -8 -21 -4 -21 3 0 1 -7 -6 -15 -19 -23 -4 -30 17
-9 13 13 14 19 5 22 -10 3 -10 7 -1 18 7 8 9 17 6 20 -3 3 -10 -4 -17 -15z"/>
<path d="M3041 4035 c32 -34 64 -50 39 -20 -7 8 -9 15 -4 15 14 1 -40 40 -54
40 -8 0 1 -16 19 -35z"/>
<path d="M1975 4029 c-4 -6 -5 -12 -2 -15 2 -3 7 2 10 11 7 17 1 20 -8 4z"/>
<path d="M2030 3975 c-28 -25 -47 -45 -42 -45 5 0 15 7 22 15 7 8 18 15 24 15
7 0 25 14 41 30 44 46 12 35 -45 -15z"/>
<path d="M3005 4000 c11 -5 27 -9 35 -9 13 -1 13 0 0 9 -8 5 -24 9 -35 9 l-20
0 20 -9z"/>
<path d="M2090 3975 c-20 -24 -6 -28 15 -5 10 11 13 20 8 20 -6 0 -16 -7 -23
-15z"/>
<path d="M2990 3965 c7 -9 15 -13 17 -11 7 7 -7 26 -19 26 -6 0 -6 -6 2 -15z"/>
<path d="M2870 3962 c0 -7 4 -12 8 -12 5 0 13 -10 19 -22 5 -12 12 -17 16 -11
3 5 -5 21 -18 33 -14 13 -25 18 -25 12z"/>
<path d="M2920 3962 c0 -5 7 -15 15 -22 8 -7 15 -8 15 -2 0 5 -7 15 -15 22 -8
7 -15 8 -15 2z"/>
<path d="M1696 3944 c-5 -14 -4 -15 9 -4 17 14 19 20 6 20 -5 0 -12 -7 -15
-16z"/>
<path d="M3335 3936 c17 -13 32 -22 35 -19 6 5 -41 42 -55 43 -5 0 4 -11 20
-24z"/>
<path d="M2125 3940 c-3 -5 -2 -10 4 -10 5 0 13 5 16 10 3 6 2 10 -4 10 -5 0
-13 -4 -16 -10z"/>
<path d="M2218 3913 c-29 -34 -30 -48 -2 -21 15 15 26 30 23 33 -3 3 -13 -3
-21 -12z"/>
<path d="M2820 3923 c0 -5 7 -18 15 -29 12 -16 14 -16 15 -3 0 9 -7 22 -15 29
-8 7 -15 8 -15 3z"/>
<path d="M2155 3910 c-3 -5 -2 -10 4 -10 5 0 13 5 16 10 3 6 2 10 -4 10 -5 0
-13 -4 -16 -10z"/>
<path d="M2259 3903 c-8 -10 -20 -29 -28 -43 -13 -23 -13 -24 3 -11 16 14 51
71 43 71 -2 0 -10 -8 -18 -17z"/>
<path d="M2790 3903 c0 -13 5 -23 10 -23 13 0 13 11 0 30 -8 12 -10 11 -10 -7z"/>
<path d="M3380 3901 c0 -6 4 -13 10 -16 6 -3 7 1 4 9 -7 18 -14 21 -14 7z"/>
<path d="M2730 3882 c0 -5 7 -13 16 -16 10 -4 14 -1 12 6 -5 15 -28 23 -28 10z"/>
<path d="M2690 3870 c0 -5 5 -10 11 -10 5 0 7 5 4 10 -3 6 -8 10 -11 10 -2 0
-4 -4 -4 -10z"/>
<path d="M2641 3854 c0 -11 3 -14 6 -6 3 7 2 16 -1 19 -3 4 -6 -2 -5 -13z"/>
<path d="M1645 3840 c3 -5 8 -10 11 -10 2 0 4 5 4 10 0 6 -5 10 -11 10 -5 0
-7 -4 -4 -10z"/>
<path d="M3250 3810 c0 -5 5 -10 10 -10 6 0 10 5 10 10 0 6 -4 10 -10 10 -5 0
-10 -4 -10 -10z"/>
<path d="M1622 3798 c6 -18 28 -21 28 -4 0 9 -7 16 -16 16 -9 0 -14 -5 -12
-12z"/>
<path d="M3481 3754 c0 -11 3 -14 6 -6 3 7 2 16 -1 19 -3 4 -6 -2 -5 -13z"/>
<path d="M1610 3734 c6 -14 11 -42 11 -62 2 -33 2 -32 9 13 4 29 3 55 -3 63
-17 21 -27 13 -17 -14z"/>
<path d="M1593 3685 c0 -27 2 -38 4 -22 2 15 2 37 0 50 -2 12 -4 0 -4 -28z"/>
<path d="M3435 3693 c-11 -21 -21 -41 -23 -45 -2 -5 1 -8 6 -8 6 0 14 10 18
22 l7 23 8 -23 c9 -24 29 -30 29 -8 0 26 -13 76 -19 76 -4 0 -16 -17 -26 -37z"/>
<path d="M3492 3715 c0 -11 4 -31 8 -45 6 -20 8 -21 8 -5 0 11 -4 31 -8 45 -6
20 -8 21 -8 5z"/>
<path d="M1644 3707 c3 -10 6 -34 6 -53 0 -19 4 -34 9 -34 13 0 5 80 -9 93
-10 10 -12 8 -6 -6z"/>
<path d="M2562 3669 c-1 -31 -4 -92 -7 -135 -4 -64 -3 -73 5 -46 6 18 9 78 7
135 -1 56 -4 77 -5 46z"/>
<path d="M2673 3675 c0 -22 2 -30 4 -17 2 12 2 30 0 40 -3 9 -5 -1 -4 -23z"/>
<path d="M3181 3685 c0 -16 6 -43 14 -60 l13 -30 -5 40 c-3 22 -10 49 -14 60
-6 17 -8 15 -8 -10z"/>
<path d="M1961 3681 c-16 -29 -13 -41 9 -41 13 0 20 7 20 20 0 11 0 23 1 27 1
17 -20 13 -30 -6z"/>
<path d="M2192 3670 c0 -19 2 -27 5 -17 2 9 2 25 0 35 -3 9 -5 1 -5 -18z"/>
<path d="M2441 3625 c-10 -72 -16 -253 -7 -244 6 6 27 311 22 316 -2 2 -9 -30
-15 -72z"/>
<path d="M2802 3660 c-1 -25 -4 -63 -7 -85 l-5 -40 11 33 c5 19 8 57 6 85 l-3
52 -2 -45z"/>
<path d="M3123 3655 c0 -27 2 -38 4 -22 2 15 2 37 0 50 -2 12 -4 0 -4 -28z"/>
<path d="M1572 3665 c0 -16 2 -22 5 -12 2 9 2 23 0 30 -3 6 -5 -1 -5 -18z"/>
<path d="M3148 3645 c2 -19 6 -35 8 -35 2 0 4 16 4 35 0 19 -4 35 -8 35 -4 0
-6 -16 -4 -35z"/>
<path d="M1683 3580 c0 -49 -7 -122 -13 -162 -14 -78 -6 -643 10 -743 8 -50 8
-34 -5 355 -4 137 0 222 21 505 3 39 2 85 -3 103 -6 25 -8 12 -10 -58z"/>
<path d="M2307 3663 c-10 -9 -9 -81 1 -87 4 -2 9 18 9 45 2 50 1 54 -10 42z"/>
<path d="M2596 3648 c-3 -13 -5 -61 -4 -108 l1 -85 7 105 c8 108 7 128 -4 88z"/>
<path d="M2259 3618 c-2 -57 1 -81 10 -91 5 -5 8 21 8 58 0 72 -16 102 -18 33z"/>
<path d="M2336 3613 c-6 -41 -8 -169 -2 -162 5 6 17 199 13 199 -3 0 -7 -17
-11 -37z"/>
<path d="M2626 3618 c-13 -86 -15 -122 -7 -108 10 17 25 140 17 140 -3 0 -7
-15 -10 -32z"/>
<path d="M2730 3635 c-1 -11 -3 -29 -6 -40 -2 -11 -6 -47 -8 -80 -5 -57 -5
-58 4 -15 18 88 22 118 17 136 -4 18 -5 18 -7 -1z"/>
<path d="M2993 3595 c0 -33 2 -45 4 -27 2 18 2 45 0 60 -2 15 -4 0 -4 -33z"/>
<path d="M1185 3629 c-103 -10 -148 -19 -141 -26 8 -9 376 19 376 29 0 10
-125 8 -235 -3z"/>
<path d="M2086 3617 c-5 -15 -6 -31 -2 -34 11 -11 18 5 14 34 l-4 28 -8 -28z"/>
<path d="M2131 3613 c-1 -12 -5 -25 -11 -28 -5 -3 -10 -12 -10 -18 0 -7 4 -6
10 3 7 11 10 -2 11 -45 l1 -60 8 52 c4 29 4 67 0 85 -5 23 -8 26 -9 11z"/>
<path d="M2397 3623 c-4 -3 -7 -13 -7 -21 0 -18 13 -7 16 13 2 17 1 18 -9 8z"/>
<path d="M2492 3610 c0 -14 2 -19 5 -12 2 6 2 18 0 25 -3 6 -5 1 -5 -13z"/>
<path d="M2520 3605 c0 -17 -3 -61 -6 -100 -9 -97 2 -78 15 25 7 56 8 87 1 94
-7 7 -10 0 -10 -19z"/>
<path d="M2686 3615 c-3 -9 -5 -35 -5 -58 1 -42 1 -41 10 12 9 54 7 76 -5 46z"/>
<path d="M2751 3571 c-7 -33 -11 -65 -8 -73 3 -7 6 -3 6 10 1 12 5 22 10 22
11 0 22 83 12 92 -4 5 -13 -19 -20 -51z"/>
<path d="M2876 3514 c-15 -64 -26 -118 -23 -120 6 -6 44 132 52 189 12 80 0
52 -29 -69z"/>
<path d="M1587 3604 c-6 -7 2 -436 9 -443 2 -2 4 98 4 222 0 125 -1 227 -3
227 -2 0 -6 -3 -10 -6z"/>
<path d="M3410 3591 c0 -12 5 -21 10 -21 6 0 10 6 10 14 0 8 -4 18 -10 21 -5
3 -10 -3 -10 -14z"/>
<path d="M1463 3588 c-10 -12 -14 -38 -30 -159 -5 -46 -6 -46 -30 -34 -14 7
-57 16 -97 20 -39 4 -127 18 -195 31 -107 21 -152 34 -246 68 l-20 8 20 -17
c35 -30 100 -53 206 -74 94 -18 305 -51 329 -51 6 0 10 -7 10 -15 0 -9 7 -26
16 -39 11 -18 14 -40 10 -84 -2 -34 -1 -62 3 -64 3 -2 15 -43 26 -93 19 -87
22 -189 11 -345 -11 -152 -18 -225 -32 -337 -15 -132 -16 -154 -3 -108 6 21 7
10 4 -35 -3 -36 -6 -98 -7 -137 -1 -40 -5 -68 -8 -63 -3 5 -7 -46 -8 -114 -1
-68 -6 -134 -11 -147 -9 -21 -10 -22 -11 -4 -1 11 -4 15 -6 8 -3 -7 0 -21 6
-32 7 -14 7 -21 0 -21 -5 0 -10 -9 -10 -20 0 -11 -3 -19 -7 -18 -5 2 -10 -1
-13 -7 -3 -6 19 -11 55 -12 45 -2 54 0 38 7 -24 10 -32 32 -11 28 6 -2 13 9
14 25 2 15 -1 27 -7 27 -5 0 -9 -9 -9 -20 0 -11 -4 -20 -10 -20 -5 0 -10 -9
-10 -20 0 -11 -7 -20 -15 -20 -17 0 -21 26 -5 32 22 7 60 419 60 644 0 99 3
123 15 128 8 3 15 11 15 18 0 9 -3 9 -11 -2 -8 -11 -9 -5 -5 25 3 22 6 51 7
65 0 19 2 21 7 8 4 -10 8 19 9 65 1 45 3 139 5 209 1 69 0 124 -4 122 -9 -6
-16 24 -21 91 -3 28 -10 70 -17 95 -6 25 -10 71 -7 103 3 33 1 57 -4 57 -11 0
-1 119 11 135 10 14 19 105 10 105 -4 0 -12 -6 -17 -12z"/>
<path d="M1556 3585 c-3 -9 -5 -38 -5 -63 l1 -47 9 59 c9 60 7 81 -5 51z"/>
<path d="M1636 3589 c-9 -25 -26 -382 -25 -504 3 -240 16 -273 18 -45 1 118 6
292 11 385 8 160 7 197 -4 164z"/>
<path d="M1715 3588 c-10 -24 -2 -71 13 -76 14 -4 17 55 2 78 -8 12 -10 12
-15 -2z"/>
<path d="M3378 3594 c-5 -4 -8 -23 -8 -43 1 -30 2 -33 11 -18 11 19 8 73 -3
61z"/>
<path d="M2962 3574 c-1 -12 -5 -43 -8 -70 -4 -38 -3 -45 6 -31 6 9 9 41 7 70
-2 28 -4 43 -5 31z"/>
<path d="M2182 3555 c0 -16 2 -22 5 -12 2 9 2 23 0 30 -3 6 -5 -1 -5 -18z"/>
<path d="M2381 3523 c1 -44 3 -52 9 -33 12 36 12 78 0 85 -6 4 -10 -16 -9 -52z"/>
<path d="M2471 3503 c1 -69 2 -73 10 -38 11 56 11 115 -1 115 -6 0 -10 -32 -9
-77z"/>
<path d="M2652 3550 c0 -19 2 -27 5 -17 2 9 2 25 0 35 -3 9 -5 1 -5 -18z"/>
<path d="M2842 3549 c-1 -15 -5 -42 -8 -60 -4 -28 -3 -31 6 -16 6 9 9 36 7 60
-2 23 -4 30 -5 16z"/>
<path d="M2214 3529 c3 -17 6 -43 6 -58 1 -20 3 -23 10 -11 11 20 1 100 -13
100 -5 0 -7 -13 -3 -31z"/>
<path d="M3425 3525 c2 -22 5 -159 6 -305 2 -247 3 -257 11 -145 11 140 3 432
-12 466 -9 20 -10 18 -5 -16z"/>
<path d="M2806 3484 c-4 -37 -5 -69 -2 -71 2 -3 7 25 11 62 4 36 5 68 3 71 -3
2 -8 -25 -12 -62z"/>
<path d="M2930 3498 c-3 -26 -1 -43 3 -39 5 5 7 26 5 47 l-3 39 -5 -47z"/>
<path d="M1517 3523 c-10 -17 -19 -343 -10 -343 9 0 27 339 19 347 -2 3 -6 1
-9 -4z"/>
<path d="M3494 3430 c3 -47 7 -170 7 -275 2 -175 2 -183 11 -105 12 109 2 440
-13 455 -9 7 -10 -12 -5 -75z"/>
<path d="M3557 3328 c3 -101 7 -185 9 -187 2 -2 4 80 4 182 0 105 -4 187 -9
187 -5 0 -7 -76 -4 -182z"/>
<path d="M2679 3465 c-6 -40 -4 -53 7 -43 3 3 4 23 2 44 l-3 39 -6 -40z"/>
<path d="M3071 3424 c-7 -30 -11 -57 -8 -60 2 -2 9 21 16 52 7 30 11 57 8 60
-2 2 -9 -21 -16 -52z"/>
<path d="M4020 3455 c-30 -8 -107 -14 -170 -15 -121 -1 -132 -13 -22 -24 71
-7 195 8 247 30 65 27 36 31 -55 9z"/>
<path d="M2271 3444 c0 -11 3 -14 6 -6 3 7 2 16 -1 19 -3 4 -6 -2 -5 -13z"/>
<path d="M2896 3429 c-8 -42 0 -50 9 -9 4 17 5 34 2 36 -2 3 -7 -10 -11 -27z"/>
<path d="M2330 3392 c0 -4 18 -26 40 -48 22 -23 47 -57 55 -75 l14 -34 1 33
c0 20 -4 31 -10 27 -5 -3 -10 0 -10 8 0 8 -18 33 -41 55 -41 43 -49 48 -49 34z"/>
<path d="M2831 3364 c0 -11 3 -14 6 -6 3 7 2 16 -1 19 -3 4 -6 -2 -5 -13z"/>
<path d="M2273 3300 c0 -25 2 -35 4 -22 2 12 2 32 0 45 -2 12 -4 2 -4 -23z"/>
<path d="M1572 3310 c0 -14 2 -19 5 -12 2 6 2 18 0 25 -3 6 -5 1 -5 -13z"/>
<path d="M2460 3283 c0 -5 7 -17 15 -27 15 -20 20 -10 9 18 -6 16 -24 22 -24
9z"/>
<path d="M2952 3248 l-12 -33 20 25 c21 27 25 40 12 40 -4 0 -13 -15 -20 -32z"/>
<path d="M2516 3230 c7 -28 12 -35 18 -29 2 2 -2 15 -10 29 l-15 25 7 -25z"/>
<path d="M1574 3075 c0 -66 1 -92 3 -57 2 34 2 88 0 120 -2 31 -3 3 -3 -63z"/>
<path d="M2026 3177 c3 -10 9 -15 12 -12 3 3 0 11 -7 18 -10 9 -11 8 -5 -6z"/>
<path d="M1975 3120 c3 -5 10 -10 16 -10 5 0 9 5 9 10 0 6 -7 10 -16 10 -8 0
-12 -4 -9 -10z"/>
<path d="M3047 3115 c-56 -21 -177 -86 -177 -96 0 -5 19 2 43 15 23 13 72 33
108 45 36 12 75 28 85 36 19 14 19 14 -1 14 -11 0 -37 -7 -58 -14z"/>
<path d="M2015 3110 c-3 -6 4 -14 17 -19 13 -5 42 -17 66 -26 24 -10 45 -15
48 -13 6 7 -46 41 -65 42 -9 1 -26 7 -38 14 -14 8 -24 9 -28 2z"/>
<path d="M1731 3049 c-1 -68 8 -119 21 -119 6 0 7 15 3 38 -4 20 -11 60 -15
87 l-8 50 -1 -56z"/>
<path d="M2107 2994 c-12 -13 -8 -31 13 -55 l21 -24 -7 35 c-7 38 -17 54 -27
44z"/>
<path d="M2949 2990 c-1 -8 -2 -22 -3 -30 -1 -8 -14 -21 -30 -29 -27 -12 -30
-12 -46 9 l-17 23 -6 -24 c-9 -33 12 -50 67 -56 32 -4 53 -1 70 10 25 17 54
83 41 95 -10 10 -44 -40 -37 -57 3 -9 1 -12 -6 -7 -7 4 -12 3 -12 -2 0 -11
-46 -33 -53 -25 -3 2 9 17 26 33 27 24 30 30 20 51 -8 16 -12 19 -14 9z"/>
<path d="M3454 2910 c0 -52 1 -74 3 -47 2 26 2 68 0 95 -2 26 -3 4 -3 -48z"/>
<path d="M1954 2965 c11 -46 56 -106 105 -137 56 -35 108 -36 211 -5 94 29 70
41 -30 15 -121 -32 -166 -14 -247 96 -38 51 -44 56 -39 31z"/>
<path d="M2070 2980 c0 -5 -8 -7 -17 -3 -17 6 -17 5 0 -14 9 -11 17 -24 17
-30 0 -5 8 -17 18 -26 42 -38 182 -28 182 13 0 11 -4 20 -10 20 -5 0 -10 -7
-10 -15 0 -8 -6 -15 -14 -15 -7 0 -19 7 -26 15 -14 17 -30 20 -30 5 0 -5 8
-10 17 -10 13 0 14 -3 5 -12 -19 -19 -44 9 -31 34 6 11 8 22 5 26 -11 10 -19
-7 -19 -38 0 -22 -5 -30 -18 -30 -23 0 -61 50 -56 72 3 10 1 18 -4 18 -5 0 -9
-4 -9 -10z"/>
<path d="M2908 2983 c7 -3 16 -2 19 1 4 3 -2 6 -13 5 -11 0 -14 -3 -6 -6z"/>
<path d="M2280 2974 c0 -12 72 -105 78 -100 2 3 -13 28 -34 56 -38 50 -44 56
-44 44z"/>
<path d="M3107 2966 c-9 -10 -17 -22 -17 -27 0 -15 -89 -96 -120 -109 -23 -10
-42 -8 -104 8 -42 11 -78 16 -81 12 -7 -11 121 -50 166 -50 54 0 127 52 157
113 26 53 26 79 -1 53z"/>
<path d="M2202 2958 c5 -15 28 -18 29 -3 0 6 -7 12 -17 13 -10 3 -15 -1 -12
-10z"/>
<path d="M3340 2948 c0 -15 5 -30 10 -33 13 -8 13 25 0 45 -8 12 -10 9 -10
-12z"/>
<path d="M3492 2899 c-1 -36 -4 -88 -7 -115 l-4 -49 10 49 c5 26 8 78 6 115
l-3 66 -2 -66z"/>
<path d="M2776 2910 c-33 -37 -45 -60 -30 -60 8 0 58 61 66 82 11 26 5 23 -36
-22z"/>
<path d="M925 2881 c-38 -9 -68 -26 -85 -45 -16 -20 -12 -20 36 3 63 29 109
32 204 11 152 -34 390 -26 390 13 0 5 -8 6 -17 1 -10 -4 -72 -9 -138 -12 -95
-3 -141 1 -222 17 -107 22 -121 23 -168 12z"/>
<path d="M1811 2850 c0 -18 27 -79 28 -64 1 7 -6 27 -14 45 -8 19 -14 27 -14
19z"/>
<path d="M1541 2814 c0 -11 3 -14 6 -6 3 7 2 16 -1 19 -3 4 -6 -2 -5 -13z"/>
<path d="M3572 2805 c0 -16 2 -22 5 -12 2 9 2 23 0 30 -3 6 -5 -1 -5 -18z"/>
<path d="M1521 2754 c1 -38 5 -80 9 -94 5 -14 6 13 3 65 -7 109 -13 125 -12
29z"/>
<path d="M2524 2680 c0 -110 2 -140 13 -140 10 0 13 23 14 93 1 50 2 104 3
119 2 31 -10 68 -21 68 -4 0 -8 -63 -9 -140z"/>
<path d="M1446 2760 c-9 -17 -14 -30 -9 -30 8 0 35 51 30 56 -2 2 -11 -10 -21
-26z"/>
<path d="M3234 2714 c-14 -33 -40 -97 -56 -144 -43 -122 -123 -253 -187 -307
-23 -18 -26 -29 -26 -81 0 -33 3 -58 7 -56 5 3 8 25 8 50 0 79 32 108 64 59
29 -45 17 -126 -26 -172 -12 -13 -18 -26 -14 -30 5 -5 15 2 23 15 23 34 30 27
37 -35 17 -137 18 -146 27 -132 6 10 11 5 19 -16 13 -34 36 -62 62 -76 14 -8
17 -5 17 18 -1 25 15 118 36 213 5 24 4 31 -5 25 -9 -6 -9 -3 -1 13 6 11 11
48 11 81 0 33 5 63 10 66 6 3 10 21 10 38 0 28 15 122 36 227 4 19 4 33 1 30
-3 -3 -15 -54 -27 -114 -12 -60 -30 -132 -39 -162 -10 -29 -14 -51 -10 -48 5
3 9 1 9 -5 0 -5 -4 -12 -9 -15 -5 -3 -7 -15 -4 -25 3 -10 -1 -29 -8 -42 -7
-13 -11 -40 -11 -61 1 -21 -2 -38 -7 -38 -5 0 -9 -12 -8 -27 1 -16 0 -52 -1
-80 l-2 -53 -20 20 c-11 11 -20 27 -20 35 0 8 -3 15 -8 15 -15 0 -43 126 -42
190 1 36 1 80 1 97 0 18 -10 47 -22 64 -12 18 -18 34 -12 38 17 11 90 115 97
139 4 12 12 20 17 17 5 -3 6 2 2 11 -5 13 -3 15 7 9 9 -5 11 -4 6 3 -11 18 4
37 16 21 6 -10 7 -7 3 8 -6 21 4 65 26 118 5 13 6 3 3 -25 -4 -33 -3 -41 5
-30 6 8 13 45 17 83 4 37 11 70 17 74 6 4 8 0 4 -11 -4 -10 -7 -59 -7 -109 0
-51 -4 -86 -8 -80 -5 7 -8 -3 -8 -25 1 -20 -3 -64 -8 -97 -4 -33 -5 -57 -2
-54 12 11 36 164 41 267 4 59 8 114 11 123 2 9 -2 22 -11 29 -13 11 -19 4 -41
-46z m3 -66 c-3 -8 -6 -5 -6 6 -1 11 2 17 5 13 3 -3 4 -12 1 -19z m-30 -655
c-3 -10 -5 -4 -5 12 0 17 2 24 5 18 2 -7 2 -21 0 -30z m-17 -80 c-11 -17 -11
-17 -6 0 3 10 7 28 7 40 2 22 2 22 6 0 2 -12 -1 -30 -7 -40z"/>
<path d="M3671 2754 c0 -11 3 -14 6 -6 3 7 2 16 -1 19 -3 4 -6 -2 -5 -13z"/>
<path d="M1830 2740 c0 -29 51 -180 60 -180 5 0 11 -19 15 -41 5 -26 10 -37
15 -29 6 9 10 6 15 -11 4 -13 11 -26 14 -29 4 -3 19 -25 33 -50 14 -25 35 -55
46 -68 l20 -23 -20 -46 c-16 -37 -19 -60 -15 -110 2 -34 1 -60 -4 -58 -4 3 -5
-17 -2 -45 4 -35 2 -50 -6 -50 -7 0 -9 -5 -6 -11 4 -6 4 -27 0 -46 -5 -27 -9
-33 -16 -22 -7 11 -9 10 -9 -4 0 -11 -6 -17 -12 -14 -7 2 -18 -2 -23 -10 -7
-10 -10 0 -11 34 -1 55 -26 199 -62 358 -18 76 -13 -6 8 -130 11 -66 24 -166
30 -222 5 -56 14 -110 19 -120 5 -10 17 -37 27 -60 11 -24 22 -43 27 -43 11 0
9 18 -4 25 -6 4 -8 13 -5 20 2 7 1 26 -4 42 l-8 28 -2 -30 c-2 -30 -2 -30 -10
-5 -4 14 -8 34 -9 45 -1 16 1 17 8 6 7 -11 10 -9 13 10 6 42 33 34 44 -12 5
-24 15 -45 23 -47 11 -4 12 0 5 14 -10 21 -9 94 3 199 l9 70 14 -30 c8 -16 24
-31 35 -33 12 -2 16 0 10 5 -27 20 -58 92 -62 143 -3 44 0 62 17 88 11 19 26
32 33 29 7 -2 17 -33 23 -68 11 -69 19 -89 35 -89 6 0 6 7 -1 19 -15 29 -12
48 4 25 8 -10 18 -16 22 -11 4 4 2 7 -4 7 -7 0 -12 7 -12 15 0 8 -4 15 -9 15
-5 0 -12 16 -16 36 -3 20 -17 46 -29 58 -25 23 -115 154 -138 201 -9 17 -28
68 -42 114 -31 96 -62 161 -76 161 -6 0 -10 -9 -10 -20z m63 -140 c3 -11 1
-18 -4 -14 -5 3 -9 12 -9 20 0 20 7 17 13 -6z"/>
<path d="M3586 2675 c2 -38 8 -95 13 -125 l8 -55 1 45 c0 25 -6 81 -13 125
l-14 80 5 -70z"/>
<path d="M3302 2690 c0 -14 2 -19 5 -12 2 6 2 18 0 25 -3 6 -5 1 -5 -13z"/>
<path d="M1417 2693 c-4 -3 -7 -11 -7 -17 0 -6 5 -5 12 2 6 6 9 14 7 17 -3 3
-9 2 -12 -2z"/>
<path d="M2245 2675 c-25 -15 -33 -24 -22 -25 9 0 17 5 17 10 0 6 6 10 13 10
14 1 56 30 41 30 -5 0 -27 -11 -49 -25z"/>
<path d="M3660 2697 c0 -2 7 -26 15 -53 8 -27 21 -87 29 -134 13 -77 34 -150
35 -125 0 6 -13 75 -29 155 -17 80 -30 148 -30 153 0 4 -4 7 -10 7 -5 0 -10
-1 -10 -3z"/>
<path d="M3431 2664 c0 -11 3 -14 6 -6 3 7 2 16 -1 19 -3 4 -6 -2 -5 -13z"/>
<path d="M3462 2635 c0 -16 2 -22 5 -12 2 9 2 23 0 30 -3 6 -5 -1 -5 -18z"/>
<path d="M2174 2635 c-10 -8 -14 -14 -9 -15 15 0 40 18 34 24 -3 3 -14 -1 -25
-9z"/>
<path d="M1834 2610 c3 -19 7 -60 9 -90 2 -31 11 -80 20 -110 21 -75 37 -162
42 -239 2 -35 7 -66 11 -70 4 -3 4 19 1 49 -4 37 -3 50 3 40 12 -19 12 -11 1
26 -14 43 -23 122 -12 105 6 -9 11 -10 15 -2 4 6 -2 16 -12 22 -12 8 -17 20
-14 35 2 13 -3 40 -12 59 -13 27 -14 39 -5 56 6 12 7 19 1 15 -10 -6 -26 23
-17 32 3 3 5 -1 5 -8 0 -7 3 -11 6 -8 3 3 1 14 -5 25 -5 10 -17 36 -26 58
l-16 40 5 -35z"/>
<path d="M3433 2595 c0 -27 2 -38 4 -22 2 15 2 37 0 50 -2 12 -4 0 -4 -28z"/>
<path d="M1552 2610 c0 -14 2 -19 5 -12 2 6 2 18 0 25 -3 6 -5 1 -5 -13z"/>
<path d="M1411 2584 c-6 -21 -9 -40 -6 -42 2 -2 8 13 14 34 6 21 9 40 6 42 -2
2 -8 -13 -14 -34z"/>
<path d="M1603 2580 c0 -25 2 -35 4 -22 2 12 2 32 0 45 -2 12 -4 2 -4 -23z"/>
<path d="M1692 2600 c0 -14 2 -19 5 -12 2 6 2 18 0 25 -3 6 -5 1 -5 -13z"/>
<path d="M2130 2610 c-9 -6 -10 -10 -3 -10 6 0 15 5 18 10 8 12 4 12 -15 0z"/>
<path d="M1501 2574 c0 -11 3 -14 6 -6 3 7 2 16 -1 19 -3 4 -6 -2 -5 -13z"/>
<path d="M1562 2438 c1 -101 4 -134 10 -113 9 29 4 243 -6 252 -2 3 -4 -60 -4
-139z"/>
<path d="M3292 2540 c0 -19 2 -27 5 -17 2 9 2 25 0 35 -3 9 -5 1 -5 -18z"/>
<path d="M3451 2544 c0 -11 3 -14 6 -6 3 7 2 16 -1 19 -3 4 -6 -2 -5 -13z"/>
<path d="M3201 2524 c0 -11 3 -14 6 -6 3 7 2 16 -1 19 -3 4 -6 -2 -5 -13z"/>
<path d="M3432 2394 c-2 -68 1 -124 5 -124 11 0 16 221 6 236 -5 7 -9 -44 -11
-112z"/>
<path d="M1603 2435 c0 -44 2 -61 4 -37 2 23 2 59 0 80 -2 20 -4 1 -4 -43z"/>
<path d="M1711 2494 c0 -11 3 -14 6 -6 3 7 2 16 -1 19 -3 4 -6 -2 -5 -13z"/>
<path d="M2377 2482 c16 -28 63 -69 63 -55 -1 9 -67 83 -75 83 -2 0 3 -12 12
-28z"/>
<path d="M3214 2445 c-7 -33 -10 -62 -9 -64 7 -6 26 81 23 102 -2 12 -8 -5
-14 -38z"/>
<path d="M3631 2484 c0 -11 3 -14 6 -6 3 7 2 16 -1 19 -3 4 -6 -2 -5 -13z"/>
<path d="M3641 2445 c0 -11 6 -42 13 -70 8 -27 14 -41 14 -30 0 29 -25 124
-27 100z"/>
<path d="M1482 2425 c0 -16 2 -22 5 -12 2 9 2 23 0 30 -3 6 -5 -1 -5 -18z"/>
<path d="M1931 2414 c0 -11 3 -14 6 -6 3 7 2 16 -1 19 -3 4 -6 -2 -5 -13z"/>
<path d="M3701 2414 c0 -11 3 -14 6 -6 3 7 2 16 -1 19 -3 4 -6 -2 -5 -13z"/>
<path d="M3285 2370 c-4 -23 -5 -43 -2 -46 2 -3 7 14 11 37 4 23 5 44 2 46 -2
2 -7 -14 -11 -37z"/>
<path d="M1830 2366 c0 -14 4 -27 8 -30 5 -3 6 8 4 25 -5 35 -12 38 -12 5z"/>
<path d="M1912 2370 c0 -14 2 -19 5 -12 2 6 2 18 0 25 -3 6 -5 1 -5 -13z"/>
<path d="M1481 2364 c0 -11 3 -14 6 -6 3 7 2 16 -1 19 -3 4 -6 -2 -5 -13z"/>
<path d="M3710 2371 c0 -6 4 -13 10 -16 6 -3 7 1 4 9 -7 18 -14 21 -14 7z"/>
<path d="M3741 2350 c0 -14 4 -34 9 -45 8 -18 9 -18 9 5 0 14 -4 34 -9 45 -8
18 -9 18 -9 -5z"/>
<path d="M2435 2345 c-27 -7 -61 -18 -75 -24 -40 -16 3 -13 72 5 48 12 67 13
89 4 21 -9 35 -9 61 0 24 9 43 9 71 2 20 -6 37 -7 37 -2 0 14 -66 24 -137 20
-10 -1 -29 1 -43 4 -14 3 -47 -1 -75 -9z"/>
<path d="M1596 2275 c9 -111 22 -138 16 -35 -2 47 -9 92 -14 100 -5 9 -6 -16
-2 -65z"/>
<path d="M3722 2320 c0 -14 2 -19 5 -12 2 6 2 18 0 25 -3 6 -5 1 -5 -13z"/>
<path d="M3208 2282 c-24 -66 -22 -77 3 -23 11 25 18 51 17 59 -2 7 -11 -9
-20 -36z"/>
<path d="M3671 2304 c0 -11 3 -14 6 -6 3 7 2 16 -1 19 -3 4 -6 -2 -5 -13z"/>
<path d="M3271 2294 c0 -11 3 -14 6 -6 3 7 2 16 -1 19 -3 4 -6 -2 -5 -13z"/>
<path d="M1921 2290 c0 -8 8 -42 18 -75 16 -51 19 -55 20 -28 1 17 -3 34 -8
37 -5 3 -7 23 -5 43 3 28 1 33 -5 18 l-8 -20 -5 20 c-3 11 -6 14 -7 5z"/>
<path d="M3731 2280 c0 -8 4 -22 9 -30 12 -18 12 -2 0 25 -6 13 -9 15 -9 5z"/>
<path d="M3761 2264 c0 -11 3 -14 6 -6 3 7 2 16 -1 19 -3 4 -6 -2 -5 -13z"/>
<path d="M1421 2244 c0 -11 3 -14 6 -6 3 7 2 16 -1 19 -3 4 -6 -2 -5 -13z"/>
<path d="M1572 2230 c0 -19 2 -27 5 -17 2 9 2 25 0 35 -3 9 -5 1 -5 -18z"/>
<path d="M1632 2240 c0 -14 2 -19 5 -12 2 6 2 18 0 25 -3 6 -5 1 -5 -13z"/>
<path d="M2140 2242 c0 -9 73 -79 105 -102 11 -8 -5 13 -35 47 -53 58 -70 72
-70 55z"/>
<path d="M1502 2195 c0 -66 11 -153 19 -140 3 6 1 51 -6 100 -10 71 -13 80
-13 40z"/>
<path d="M2425 2230 c3 -5 8 -10 11 -10 2 0 4 5 4 10 0 6 -5 10 -11 10 -5 0
-7 -4 -4 -10z"/>
<path d="M3454 2180 c5 -95 34 -303 46 -331 9 -20 9 -18 5 16 -3 22 -7 74 -10
116 -3 41 -14 118 -25 170 l-19 94 3 -65z"/>
<path d="M2460 2219 c0 -5 5 -7 10 -4 6 4 18 1 26 -6 16 -13 30 -6 19 10 -8
14 -55 14 -55 0z"/>
<path d="M2561 2221 c-23 -15 3 -20 34 -6 29 13 29 13 5 14 -14 0 -31 -3 -39
-8z"/>
<path d="M1413 2194 c0 -23 1 -24 9 -10 7 12 7 21 0 28 -6 6 -9 0 -9 -18z"/>
<path d="M1751 2194 c0 -11 3 -14 6 -6 3 7 2 16 -1 19 -3 4 -6 -2 -5 -13z"/>
<path d="M3181 2194 c0 -11 3 -14 6 -6 3 7 2 16 -1 19 -3 4 -6 -2 -5 -13z"/>
<path d="M3691 2194 c0 -11 3 -14 6 -6 3 7 2 16 -1 19 -3 4 -6 -2 -5 -13z"/>
<path d="M3771 2194 c0 -11 3 -14 6 -6 3 7 2 16 -1 19 -3 4 -6 -2 -5 -13z"/>
<path d="M1586 2143 c11 -154 11 -183 2 -183 -6 0 -8 -17 -4 -42 3 -24 7 -80
8 -125 1 -46 5 -83 9 -83 12 0 5 458 -8 471 -7 7 -9 -4 -7 -38z m11 -215 c-3
-8 -6 -5 -6 6 -1 11 2 17 5 13 3 -3 4 -12 1 -19z"/>
<path d="M1815 2048 c3 -73 8 -145 10 -160 3 -16 1 -28 -3 -28 -4 0 -7 -20 -8
-45 -1 -45 -1 -45 22 -30 13 8 31 15 39 15 11 0 15 6 11 18 -15 49 -45 197
-56 275 -7 48 -14 87 -16 87 -3 0 -2 -60 1 -132z m48 -237 c-7 -9 -11 6 -16
59 l-6 55 13 -55 c7 -30 11 -57 9 -59z"/>
<path d="M3261 2038 c-17 -79 -34 -160 -36 -182 -3 -21 -7 -42 -10 -46 -3 -5
1 -11 7 -13 10 -4 10 -6 1 -6 -18 -1 -16 -28 2 -35 11 -4 14 -14 10 -33 -5
-27 -5 -27 5 -4 9 20 12 22 28 10 36 -29 41 -37 45 -75 2 -21 4 8 4 66 0 85
-2 96 -8 55 -6 -38 -7 -29 -4 38 2 48 0 87 -4 87 -5 0 -7 -12 -5 -27 l4 -28
-9 28 c-6 16 -6 82 0 164 5 75 7 138 5 140 -1 2 -17 -61 -35 -139z m-8 -168
c-4 -44 -2 -60 6 -60 9 0 11 12 7 43 -4 30 -3 36 3 22 5 -11 9 -42 9 -70 0
-27 -3 -40 -5 -27 -5 26 -23 30 -24 5 0 -13 -3 -12 -10 5 -9 24 -7 63 6 115
11 43 14 32 8 -33z"/>
<path d="M3581 2164 c0 -11 3 -14 6 -6 3 7 2 16 -1 19 -3 4 -6 -2 -5 -13z"/>
<path d="M3702 2150 c0 -14 2 -19 5 -12 2 6 2 18 0 25 -3 6 -5 1 -5 -13z"/>
<path d="M1531 2144 c0 -11 3 -14 6 -6 3 7 2 16 -1 19 -3 4 -6 -2 -5 -13z"/>
<path d="M3781 2144 c0 -11 3 -14 6 -6 3 7 2 16 -1 19 -3 4 -6 -2 -5 -13z"/>
<path d="M1403 2105 c0 -27 2 -38 4 -22 2 15 2 37 0 50 -2 12 -4 0 -4 -28z"/>
<path d="M1333 2089 c-7 -29 -11 -54 -9 -57 7 -6 28 77 24 95 -2 8 -9 -9 -15
-38z"/>
<path d="M3306 2118 c-3 -13 -5 -34 -5 -48 1 -15 5 -7 10 19 9 47 6 68 -5 29z"/>
<path d="M3591 2130 c0 -8 4 -24 9 -35 5 -13 9 -14 9 -5 0 8 -4 24 -9 35 -5
13 -9 14 -9 5z"/>
<path d="M1757 2110 c3 -11 7 -20 9 -20 2 0 4 9 4 20 0 11 -4 20 -9 20 -5 0
-7 -9 -4 -20z"/>
<path d="M1421 2104 c0 -11 3 -14 6 -6 3 7 2 16 -1 19 -3 4 -6 -2 -5 -13z"/>
<path d="M3706 2112 c-3 -5 -1 -24 4 -43 12 -42 13 -42 -2 -33 -10 6 -10 4 -2
-7 6 -8 14 -47 17 -86 3 -40 11 -81 17 -90 10 -16 11 -16 6 2 -3 11 -10 74
-16 140 -12 124 -14 133 -24 117z"/>
<path d="M3792 2100 c0 -14 2 -19 5 -12 2 6 2 18 0 25 -3 6 -5 1 -5 -13z"/>
<path d="M1632 2090 c0 -14 2 -19 5 -12 2 6 2 18 0 25 -3 6 -5 1 -5 -13z"/>
<path d="M2505 2100 c-3 -5 -1 -10 4 -10 6 0 11 5 11 10 0 6 -2 10 -4 10 -3 0
-8 -4 -11 -10z"/>
<path d="M1483 2050 c-1 -30 3 -40 15 -40 13 0 14 -16 10 -122 -4 -88 -3 -111
4 -83 15 64 -1 285 -21 285 -3 0 -7 -18 -8 -40z"/>
<path d="M3450 2055 c-1 -16 -1 -34 0 -40 1 -5 2 -48 1 -95 0 -119 18 -267 35
-281 8 -7 16 -10 18 -8 4 4 -20 117 -35 165 -5 17 -8 46 -8 65 l1 34 9 -40 c5
-22 12 -56 15 -75 4 -19 10 -39 14 -45 4 -5 11 -34 15 -62 4 -29 11 -55 16
-59 14 -8 11 16 -12 102 -37 143 -52 222 -62 329 -3 34 -4 35 -7 10z"/>
<path d="M1772 2040 c0 -19 2 -27 5 -17 2 9 2 25 0 35 -3 9 -5 1 -5 -18z"/>
<path d="M3146 2055 c-3 -9 -6 -22 -5 -28 0 -7 5 -1 10 12 5 13 8 26 5 28 -2
2 -6 -3 -10 -12z"/>
<path d="M3611 2060 c0 -8 4 -22 9 -30 12 -18 12 -2 0 25 -6 13 -9 15 -9 5z"/>
<path d="M3771 2043 c0 -25 1 -26 9 -8 12 27 12 35 0 35 -5 0 -10 -12 -9 -27z"/>
<path d="M1626 2012 c7 -61 22 -120 23 -87 0 11 -6 47 -14 80 l-14 60 5 -53z"/>
<path d="M1940 2032 c0 -18 5 -32 10 -32 6 0 8 11 4 28 -10 39 -14 40 -14 4z"/>
<path d="M1533 2005 c0 -22 2 -30 4 -17 2 12 2 30 0 40 -3 9 -5 -1 -4 -23z"/>
<path d="M3802 2010 c0 -19 2 -27 5 -17 2 9 2 25 0 35 -3 9 -5 1 -5 -18z"/>
<path d="M1360 2005 c0 -15 4 -24 10 -20 6 3 10 12 10 20 0 8 -4 17 -10 20 -6
4 -10 -5 -10 -20z"/>
<path d="M1403 1990 c0 -25 2 -35 4 -22 2 12 2 32 0 45 -2 12 -4 2 -4 -23z"/>
<path d="M3392 1848 c-1 -103 1 -189 6 -191 4 -3 6 68 4 156 -4 235 -9 250
-10 35z"/>
<path d="M3356 1840 c2 -101 8 -168 15 -175 8 -7 9 2 4 35 -5 25 -11 104 -16
175 -7 128 -7 127 -3 -35z"/>
<path d="M3631 1994 c0 -11 3 -14 6 -6 3 7 2 16 -1 19 -3 4 -6 -2 -5 -13z"/>
<path d="M3782 1980 c0 -19 2 -27 5 -17 2 9 2 25 0 35 -3 9 -5 1 -5 -18z"/>
<path d="M1792 1980 c0 -14 2 -19 5 -12 2 6 2 18 0 25 -3 6 -5 1 -5 -13z"/>
<path d="M2238 1993 c7 -3 16 -2 19 1 4 3 -2 6 -13 5 -11 0 -14 -3 -6 -6z"/>
<path d="M1486 1912 c-5 -40 -13 -75 -17 -78 -14 -8 -11 -46 4 -42 13 5 30
124 24 168 -2 14 -7 -8 -11 -48z"/>
<path d="M1744 1966 c-3 -8 -1 -61 4 -118 l9 -103 2 118 c1 111 -3 135 -15
103z"/>
<path d="M1349 1963 c0 -5 -2 -15 -3 -23 -2 -8 1 -26 5 -40 5 -20 7 -15 8 23
1 26 -1 47 -4 47 -3 0 -5 -3 -6 -7z"/>
<path d="M1952 1950 c0 -14 2 -19 5 -12 2 6 2 18 0 25 -3 6 -5 1 -5 -13z"/>
<path d="M3515 1911 c3 -35 6 -87 7 -115 l1 -51 7 50 c5 36 7 42 9 20 1 -16 6
-39 11 -50 8 -18 9 -17 9 7 1 15 -4 39 -11 55 -7 15 -18 55 -25 88 l-12 60 4
-64z"/>
<path d="M3656 1923 c15 -50 24 -65 24 -41 0 17 -28 88 -34 88 -2 0 2 -21 10
-47z"/>
<path d="M1715 1851 c3 -58 8 -107 10 -110 13 -12 13 13 0 109 l-14 105 4
-104z"/>
<path d="M3140 1910 c0 -22 3 -40 8 -40 4 0 6 18 4 40 -2 22 -6 40 -8 40 -2 0
-4 -18 -4 -40z"/>
<path d="M1292 1901 c-7 -21 -12 -45 -11 -52 0 -8 7 8 15 35 9 26 13 50 11 52
-2 2 -9 -13 -15 -35z"/>
<path d="M3322 1915 c0 -16 2 -22 5 -12 2 9 2 23 0 30 -3 6 -5 -1 -5 -18z"/>
<path d="M3791 1920 c0 -14 4 -32 9 -40 9 -13 10 -13 9 0 -1 8 -5 26 -9 40
l-8 25 -1 -25z"/>
<path d="M1386 1878 c-4 -28 -16 -78 -28 -110 -11 -33 -18 -62 -15 -64 3 -3
14 25 26 63 21 69 38 163 29 163 -3 0 -9 -23 -12 -52z"/>
<path d="M2340 1910 c0 -5 5 -10 11 -10 5 0 7 5 4 10 -3 6 -8 10 -11 10 -2 0
-4 -4 -4 -10z"/>
<path d="M1650 1886 c0 -8 -6 -16 -12 -19 -10 -3 -10 -9 0 -26 7 -12 10 -31 7
-42 -4 -11 -2 -19 4 -19 7 0 11 24 11 60 0 33 -2 60 -5 60 -3 0 -5 -6 -5 -14z"/>
<path d="M1687 1820 c3 -47 7 -87 9 -89 11 -11 10 11 -2 89 l-13 85 6 -85z"/>
<path d="M2187 1878 c19 -22 71 -49 77 -40 10 17 -19 43 -54 48 -28 5 -32 3
-23 -8z"/>
<path d="M2310 1860 c0 -5 7 -10 15 -10 8 0 15 5 15 10 0 6 -7 10 -15 10 -8 0
-15 -4 -15 -10z"/>
<path d="M1330 1841 c0 -12 5 -21 10 -21 6 0 10 6 10 14 0 8 -4 18 -10 21 -5
3 -10 -3 -10 -14z"/>
<path d="M1771 1814 c0 -11 3 -14 6 -6 3 7 2 16 -1 19 -3 4 -6 -2 -5 -13z"/>
<path d="M1272 1800 c0 -14 2 -19 5 -12 2 6 2 18 0 25 -3 6 -5 1 -5 -13z"/>
<path d="M1296 1794 c-4 -14 -5 -29 -2 -31 3 -3 8 7 12 21 3 15 4 29 1 32 -2
3 -8 -7 -11 -22z"/>
<path d="M1621 1804 c-2 -37 11 -84 21 -78 6 4 8 -1 5 -12 -10 -34 -17 -141
-8 -114 5 14 10 41 11 60 l2 35 13 -45 14 -45 -5 50 c-3 28 -5 65 -5 83 1 32
-18 47 -20 15 -1 -10 -7 2 -14 27 -7 25 -13 35 -14 24z"/>
<path d="M3121 1794 c0 -11 3 -14 6 -6 3 7 2 16 -1 19 -3 4 -6 -2 -5 -13z"/>
<path d="M1518 1763 c-3 -15 -9 -36 -13 -45 -4 -11 -3 -18 3 -18 11 0 28 78
19 86 -2 3 -7 -8 -9 -23z"/>
<path d="M1875 1763 c2 -10 4 -26 4 -36 1 -10 5 -16 9 -13 11 6 3 66 -8 66 -5
0 -7 -8 -5 -17z"/>
<path d="M1570 1759 c0 -5 -4 -8 -9 -5 -5 4 -7 -3 -4 -14 9 -33 23 -33 23 -1
0 17 -2 31 -5 31 -3 0 -5 -5 -5 -11z"/>
<path d="M1842 1745 c0 -16 2 -22 5 -12 2 9 2 23 0 30 -3 6 -5 -1 -5 -18z"/>
<path d="M2164 1751 c10 -10 27 -21 39 -24 19 -5 17 -2 -8 18 -36 29 -55 33
-31 6z"/>
<path d="M1765 1737 c-4 -17 -3 -33 3 -39 14 -14 20 2 12 37 l-7 30 -8 -28z"/>
<path d="M3180 1734 c0 -14 4 -23 10 -19 6 3 10 15 10 26 0 10 -4 19 -10 19
-5 0 -10 -12 -10 -26z"/>
<path d="M2685 1730 c-3 -5 1 -10 10 -10 9 0 13 5 10 10 -3 6 -8 10 -10 10 -2
0 -7 -4 -10 -10z"/>
<path d="M3531 1729 c1 -33 25 -129 31 -124 3 4 -1 34 -8 68 -14 59 -25 85
-23 56z"/>
<path d="M2372 1718 c2 -6 10 -14 16 -16 7 -2 10 2 6 12 -7 18 -28 22 -22 4z"/>
<path d="M2270 1712 c0 -12 19 -26 26 -19 2 2 -2 10 -11 17 -9 8 -15 8 -15 2z"/>
<path d="M919 1699 c-10 -7 -2 -9 29 -7 35 3 41 1 36 -12 -12 -27 -23 -94 -23
-130 1 -30 3 -26 16 25 9 33 17 61 18 63 11 14 97 17 195 7 90 -9 92 -9 80
-40 -22 -57 -8 -67 15 -11 13 32 29 64 34 69 6 6 11 14 11 18 0 16 -389 33
-411 18z"/>
<path d="M2410 1694 c0 -8 5 -12 10 -9 6 4 8 11 5 16 -9 14 -15 11 -15 -7z"/>
<path d="M3330 1700 c0 -5 5 -10 10 -10 6 0 10 5 10 10 0 6 -4 10 -10 10 -5 0
-10 -4 -10 -10z"/>
<path d="M1527 1693 c-16 -3 -30 -10 -33 -18 -4 -10 -13 -11 -37 -4 -44 12
-50 11 -43 -7 4 -10 2 -13 -6 -8 -7 5 -9 0 -6 -14 4 -12 3 -20 -2 -17 -4 2
-10 -15 -13 -38 -3 -24 -9 -52 -13 -62 -4 -11 8 2 25 28 17 26 31 53 31 60 1
16 47 49 54 39 3 -5 -15 -35 -39 -67 -38 -52 -61 -95 -49 -95 2 0 15 17 28 38
13 20 34 48 46 62 12 14 29 38 38 53 11 18 23 26 34 24 9 -3 19 2 22 10 8 19
7 23 -1 22 -5 -1 -21 -4 -36 -6z"/>
<path d="M3170 1690 c0 -5 5 -10 11 -10 5 0 7 5 4 10 -3 6 -8 10 -11 10 -2 0
-4 -4 -4 -10z"/>
<path d="M3622 1680 c0 -14 2 -19 5 -12 2 6 2 18 0 25 -3 6 -5 1 -5 -13z"/>
<path d="M877 1673 c-19 -22 -33 -108 -19 -117 7 -4 13 12 18 41 4 27 11 58
15 71 10 27 7 28 -14 5z"/>
<path d="M1580 1667 c0 -29 -29 -115 -62 -184 -26 -52 -49 -163 -29 -133 6 8
11 30 11 48 0 20 5 31 13 30 7 -2 11 6 10 20 -2 13 1 21 6 17 5 -3 13 0 17 6
5 8 3 9 -6 4 -15 -10 -4 33 15 55 12 14 45 123 45 149 0 6 -4 11 -10 11 -5 0
-10 -11 -10 -23z"/>
<path d="M1612 1663 c-1 -17 -5 -40 -8 -50 -5 -14 -4 -15 5 -7 7 7 11 28 8 50
-3 35 -4 35 -5 7z"/>
<path d="M1984 1673 c2 -9 8 -19 14 -21 6 -2 8 5 5 17 -6 25 -22 28 -19 4z"/>
<path d="M3282 1670 c0 -14 2 -19 5 -12 2 6 2 18 0 25 -3 6 -5 1 -5 -13z"/>
<path d="M923 1673 c-18 -3 -23 -12 -25 -36 -5 -98 -4 -117 4 -117 4 0 8 19 9
43 1 23 5 53 9 67 6 20 8 13 10 -30 1 -42 4 -49 9 -30 13 43 22 110 14 109 -5
-1 -18 -4 -30 -6z"/>
<path d="M1342 1647 c-7 -18 -12 -42 -12 -53 -1 -10 -9 -44 -20 -74 -10 -30
-17 -56 -16 -57 4 -5 23 37 59 130 29 74 32 87 18 87 -10 0 -22 -14 -29 -33z"/>
<path d="M1784 1622 c4 -35 11 -73 17 -85 8 -19 8 -18 4 8 -2 17 -7 53 -11 80
-3 28 -8 52 -11 55 -3 3 -3 -23 1 -58z"/>
<path d="M3421 1664 c0 -11 3 -14 6 -6 3 7 2 16 -1 19 -3 4 -6 -2 -5 -13z"/>
<path d="M3582 1660 c0 -14 2 -19 5 -12 2 6 2 18 0 25 -3 6 -5 1 -5 -13z"/>
<path d="M1832 1650 c0 -14 2 -19 5 -12 2 6 2 18 0 25 -3 6 -5 1 -5 -13z"/>
<path d="M3876 1643 c-6 -14 -5 -15 5 -6 7 7 10 15 7 18 -3 3 -9 -2 -12 -12z"/>
<path d="M2730 1605 c-25 -26 -38 -45 -30 -45 13 0 52 41 74 78 13 22 1 13
-44 -33z"/>
<path d="M775 1602 c-77 -49 -151 -131 -194 -213 -19 -35 -38 -65 -42 -67 -4
-2 4 -14 17 -27 13 -13 24 -33 24 -45 0 -11 5 -20 10 -20 13 0 13 3 -6 50 -15
38 -15 41 7 77 73 122 173 215 222 208 18 -3 32 29 25 60 -2 13 -14 9 -63 -23z"/>
<path d="M2000 1630 c0 -5 4 -10 9 -10 6 0 13 5 16 10 3 6 -1 10 -9 10 -9 0
-16 -4 -16 -10z"/>
<path d="M3150 1625 c0 -8 2 -15 4 -15 2 0 6 7 10 15 3 8 1 15 -4 15 -6 0 -10
-7 -10 -15z"/>
<path d="M3945 1628 c-22 -6 -51 -12 -64 -14 -22 -5 -22 -6 -7 -23 9 -9 21
-31 27 -48 15 -45 -12 -142 -62 -222 -47 -75 -48 -91 -1 -22 40 58 81 156 82
193 0 32 19 78 33 78 5 0 7 -7 3 -15 -4 -13 9 -15 89 -15 52 0 98 -1 102 -2 6
-3 25 63 20 69 -1 1 -35 5 -75 9 -69 6 -73 6 -79 -15 -3 -12 -13 -21 -24 -21
-23 0 -24 13 -3 35 14 13 36 15 131 13 102 -3 118 -6 139 -25 19 -17 22 -28
18 -60 -4 -29 -3 -34 5 -21 9 13 18 15 41 8 38 -11 38 0 0 22 -17 9 -30 23
-30 31 0 7 -13 23 -30 35 -27 20 -40 22 -152 21 -68 -1 -141 -6 -163 -11z
m-10 -38 c-3 -5 -12 -7 -20 -3 -21 7 -19 13 6 13 11 0 18 -4 14 -10z m204 -6
c10 -3 11 -8 2 -18 -10 -11 -17 -11 -49 0 -20 7 -45 13 -54 14 -10 0 -18 4
-18 9 0 8 90 4 119 -5z"/>
<path d="M1519 1588 c-7 -18 -30 -62 -51 -97 -40 -67 -46 -94 -9 -42 27 38 85
160 79 167 -3 2 -11 -10 -19 -28z"/>
<path d="M1709 1588 c4 -28 6 -29 9 -9 2 13 0 27 -5 32 -6 6 -7 -3 -4 -23z"/>
<path d="M1841 1603 c-1 -12 4 -25 9 -28 12 -7 12 2 0 30 -8 19 -9 19 -9 -2z"/>
<path d="M3580 1610 c0 -5 7 -10 15 -10 7 0 18 -6 22 -12 4 -7 17 -13 28 -13
14 0 22 -9 26 -30 l6 -30 7 26 c4 14 6 31 4 38 -2 8 3 16 10 18 18 7 14 -78
-8 -162 -10 -38 -16 -72 -15 -73 5 -6 45 127 45 148 0 11 4 21 10 25 5 3 6 13
3 22 -4 11 -3 14 5 9 7 -4 12 -5 12 -2 0 2 3 13 7 23 6 16 5 16 -10 4 -15 -12
-17 -11 -17 3 0 10 -4 14 -10 11 -5 -3 -10 -2 -10 3 0 6 -13 7 -33 3 -18 -5
-41 -4 -52 0 -28 11 -45 11 -45 -1z"/>
<path d="M1301 1603 c-1 -6 -4 -20 -7 -30 -5 -17 -5 -17 6 0 6 10 9 23 6 30
-3 9 -5 9 -5 0z"/>
<path d="M2023 1600 c4 -8 10 -23 13 -32 4 -10 10 -18 14 -18 13 0 0 38 -18
52 -13 11 -14 11 -9 -2z"/>
<path d="M3301 1594 c0 -11 3 -14 6 -6 3 7 2 16 -1 19 -3 4 -6 -2 -5 -13z"/>
<path d="M4185 1574 c-7 -42 1 -59 11 -20 9 38 22 32 22 -10 0 -66 22 -60 25
7 2 33 -2 44 -13 44 -8 0 -20 4 -26 8 -8 4 -14 -6 -19 -29z"/>
<path d="M3133 1586 c3 -7 0 -19 -6 -25 -8 -8 -8 -11 0 -11 11 0 23 22 23 41
0 5 -5 9 -11 9 -6 0 -9 -6 -6 -14z"/>
<path d="M3780 1578 c-11 -12 -20 -35 -20 -52 l0 -31 18 26 c14 21 21 25 39
18 18 -6 21 -5 16 8 -10 25 20 10 34 -18 l13 -24 0 28 c0 31 -31 67 -60 67
-10 0 -28 -10 -40 -22z"/>
<path d="M3550 1575 c7 -8 17 -15 22 -15 6 0 5 7 -2 15 -7 8 -17 15 -22 15 -6
0 -5 -7 2 -15z"/>
<path d="M2375 1570 c3 -5 11 -10 16 -10 6 0 7 5 4 10 -3 6 -11 10 -16 10 -6
0 -7 -4 -4 -10z"/>
<path d="M3291 1555 c-1 -11 -4 -31 -6 -45 l-6 -25 11 25 c6 13 9 33 7 45 -4
19 -4 19 -6 0z"/>
<path d="M3539 1550 c13 -11 38 -48 57 -82 18 -35 34 -60 34 -56 0 17 -60 131
-77 143 -28 22 -41 17 -14 -5z"/>
<path d="M2142 1548 c2 -6 11 -13 19 -16 12 -3 12 -2 0 6 -11 8 -11 10 0 15
10 4 8 6 -4 6 -10 1 -17 -4 -15 -11z"/>
<path d="M833 1500 c0 -30 2 -43 4 -27 2 15 2 39 0 55 -2 15 -4 2 -4 -28z"/>
<path d="M1276 1524 c-4 -14 -5 -28 -3 -31 3 -2 8 8 11 23 4 14 5 28 3 31 -3
2 -8 -8 -11 -23z"/>
<path d="M1725 1529 c16 -66 53 -172 54 -154 1 24 -39 156 -51 170 -6 6 -7 0
-3 -16z"/>
<path d="M2050 1532 c0 -5 3 -12 8 -16 4 -4 8 -12 8 -17 1 -5 2 -13 3 -19 0
-5 7 -10 15 -10 11 0 10 6 -3 35 -15 32 -31 46 -31 27z"/>
<path d="M3110 1530 c0 -5 5 -10 10 -10 6 0 10 5 10 10 0 6 -4 10 -10 10 -5 0
-10 -4 -10 -10z"/>
<path d="M920 1514 c0 -8 5 -12 10 -9 6 3 10 10 10 16 0 5 -4 9 -10 9 -5 0
-10 -7 -10 -16z"/>
<path d="M1419 1488 c-42 -51 -62 -86 -24 -43 32 37 68 85 63 85 -2 0 -20 -19
-39 -42z"/>
<path d="M1605 1465 c-4 -36 -5 -68 -2 -71 2 -3 8 25 12 61 4 37 5 69 2 72 -3
2 -8 -25 -12 -62z"/>
<path d="M1955 1520 c3 -5 11 -10 16 -10 6 0 7 5 4 10 -3 6 -11 10 -16 10 -6
0 -7 -4 -4 -10z"/>
<path d="M2313 1515 c-8 -9 -24 -10 -55 -5 -51 10 -62 5 -24 -10 39 -14 72
-12 86 5 16 19 10 28 -7 10z"/>
<path d="M3950 1519 c0 -7 202 -20 209 -14 2 3 2 7 0 9 -7 7 -209 12 -209 5z"/>
<path d="M2660 1504 c0 -8 5 -12 10 -9 6 3 10 10 10 16 0 5 -4 9 -10 9 -5 0
-10 -7 -10 -16z"/>
<path d="M2420 1501 c0 -6 5 -13 10 -16 6 -3 10 1 10 9 0 9 -4 16 -10 16 -5 0
-10 -4 -10 -9z"/>
<path d="M4380 1504 c0 -5 24 -35 54 -67 29 -31 64 -77 77 -102 22 -41 22 -45
7 -57 -21 -16 -40 -65 -29 -72 5 -3 11 8 14 24 7 32 41 73 52 62 4 -4 -11 22
-34 58 -39 62 -141 174 -141 154z"/>
<path d="M1581 1484 c0 -11 3 -14 6 -6 3 7 2 16 -1 19 -3 4 -6 -2 -5 -13z"/>
<path d="M3100 1484 c0 -8 5 -12 10 -9 6 4 8 11 5 16 -9 14 -15 11 -15 -7z"/>
<path d="M2766 1482 c-3 -6 -1 -14 5 -17 14 -9 20 -2 10 14 -6 8 -11 9 -15 3z"/>
<path d="M3937 1483 c-4 -3 -7 -16 -6 -27 0 -19 1 -19 10 3 10 24 8 36 -4 24z"/>
<path d="M3970 1480 c0 -5 5 -10 10 -10 6 0 10 5 10 10 0 6 -4 10 -10 10 -5 0
-10 -4 -10 -10z"/>
<path d="M4135 1479 c-10 -15 3 -25 16 -12 7 7 7 13 1 17 -6 3 -14 1 -17 -5z"/>
<path d="M920 1469 c0 -13 28 -18 33 -6 3 7 -3 13 -14 13 -11 0 -19 -3 -19 -7z"/>
<path d="M1231 1436 c-17 -24 -44 -49 -60 -56 -32 -13 -31 -13 -136 24 -11 4
-2 -3 20 -15 22 -12 42 -25 45 -30 7 -9 46 -5 81 9 15 6 40 33 58 61 38 62 33
67 -8 7z"/>
<path d="M2835 1470 c-8 -13 15 -13 35 0 12 8 11 10 -7 10 -12 0 -25 -4 -28
-10z"/>
<path d="M4018 1473 c6 -2 18 -2 25 0 6 3 1 5 -13 5 -14 0 -19 -2 -12 -5z"/>
<path d="M1475 1449 c-4 -6 -5 -12 -2 -15 2 -3 7 2 10 11 7 17 1 20 -8 4z"/>
<path d="M1841 1444 c0 -11 3 -14 6 -6 3 7 2 16 -1 19 -3 4 -6 -2 -5 -13z"/>
<path d="M2080 1450 c0 -5 7 -10 15 -10 8 0 15 5 15 10 0 6 -7 10 -15 10 -8 0
-15 -4 -15 -10z"/>
<path d="M3086 1451 c-4 -7 -5 -15 -2 -18 9 -9 19 4 14 18 -4 11 -6 11 -12 0z"/>
<path d="M960 1446 c0 -2 7 -9 15 -16 9 -7 15 -8 15 -2 0 5 -7 12 -15 16 -8 3
-15 4 -15 2z"/>
<path d="M3271 1434 c0 -11 3 -14 6 -6 3 7 2 16 -1 19 -3 4 -6 -2 -5 -13z"/>
<path d="M830 1430 c0 -6 7 -10 15 -10 8 0 15 2 15 4 0 2 -7 6 -15 10 -8 3
-15 1 -15 -4z"/>
<path d="M905 1419 c4 -6 9 -8 12 -5 3 3 18 -1 34 -9 42 -22 60 -17 19 5 -38
21 -75 26 -65 9z"/>
<path d="M2108 1424 c-4 -3 3 -15 14 -26 24 -24 34 -18 16 11 -13 22 -20 25
-30 15z"/>
<path d="M1379 1403 c-13 -16 -12 -17 4 -4 9 7 17 15 17 17 0 8 -8 3 -21 -13z"/>
<path d="M1467 1413 c-4 -3 -7 -13 -7 -22 1 -13 3 -13 11 2 11 19 8 33 -4 20z"/>
<path d="M1346 1395 c-9 -26 -7 -32 5 -12 6 10 9 21 6 23 -2 3 -7 -2 -11 -11z"/>
<path d="M1583 1350 c0 -36 2 -50 4 -32 2 17 2 47 0 65 -2 17 -4 3 -4 -33z"/>
<path d="M3066 1401 c-4 -7 -5 -15 -2 -18 9 -9 19 4 14 18 -4 11 -6 11 -12 0z"/>
<path d="M4131 1394 c0 -11 3 -14 6 -6 3 7 2 16 -1 19 -3 4 -6 -2 -5 -13z"/>
<path d="M3271 1384 c0 -11 3 -14 6 -6 3 7 2 16 -1 19 -3 4 -6 -2 -5 -13z"/>
<path d="M3645 1360 c8 -22 19 -48 25 -58 10 -15 11 -15 5 3 -4 11 -11 34 -16
52 -6 18 -14 35 -19 38 -5 3 -3 -12 5 -35z"/>
<path d="M1010 1385 c0 -5 68 -35 79 -35 8 1 -61 39 -71 40 -5 0 -8 -2 -8 -5z"/>
<path d="M1812 1355 c0 -16 2 -22 5 -12 2 9 2 23 0 30 -3 6 -5 -1 -5 -18z"/>
<path d="M2171 1358 c5 -10 11 -18 13 -18 2 0 6 8 8 18 4 12 -1 18 -13 18 -14
0 -15 -4 -8 -18z"/>
<path d="M960 1360 c8 -5 20 -10 25 -10 6 0 3 5 -5 10 -8 5 -19 10 -25 10 -5
0 -3 -5 5 -10z"/>
<path d="M2102 1359 c2 -7 10 -15 17 -17 8 -3 12 1 9 9 -2 7 -10 15 -17 17 -8
3 -12 -1 -9 -9z"/>
<path d="M2320 1360 c0 -8 24 -20 41 -20 6 0 8 4 5 9 -8 12 -46 21 -46 11z"/>
<path d="M2705 1360 c-3 -5 1 -10 9 -10 8 0 18 5 21 10 3 6 -1 10 -9 10 -8 0
-18 -4 -21 -10z"/>
<path d="M1327 1353 c-4 -3 -7 -11 -7 -17 0 -6 5 -5 12 2 6 6 9 14 7 17 -3 3
-9 2 -12 -2z"/>
<path d="M2210 1345 c13 -16 70 -37 70 -26 0 4 -18 15 -41 24 -31 12 -38 13
-29 2z"/>
<path d="M3046 1351 c-4 -7 -5 -15 -2 -18 9 -9 19 4 14 18 -4 11 -6 11 -12 0z"/>
<path d="M4131 1348 c0 -10 -15 -33 -32 -53 -17 -19 -25 -33 -17 -30 23 9 60
64 55 83 -4 16 -5 16 -6 0z"/>
<path d="M4156 1351 c-4 -5 -2 -12 3 -15 5 -4 12 -2 15 3 4 5 2 12 -3 15 -5 4
-12 2 -15 -3z"/>
<path d="M935 1310 c11 -72 54 -282 60 -288 8 -9 6 11 -14 109 -10 52 -22 119
-25 149 -4 30 -11 59 -17 65 -7 7 -8 -5 -4 -35z"/>
<path d="M1005 1340 c3 -4 14 -10 25 -13 11 -3 18 -2 15 3 -3 4 -14 10 -25 13
-11 3 -18 2 -15 -3z"/>
<path d="M851 1303 c-1 -24 4 -43 9 -43 12 0 12 37 0 65 -7 15 -9 10 -9 -22z"/>
<path d="M2415 1330 c3 -5 8 -10 11 -10 2 0 4 5 4 10 0 6 -5 10 -11 10 -5 0
-7 -4 -4 -10z"/>
<path d="M3791 1324 c0 -11 3 -14 6 -6 3 7 2 16 -1 19 -3 4 -6 -2 -5 -13z"/>
<path d="M902 1310 c0 -14 4 -36 8 -50 l8 -25 0 25 c0 14 -4 36 -8 50 l-8 25
0 -25z"/>
<path d="M1466 1308 c-3 -13 -5 -32 -5 -43 1 -11 5 -2 10 19 10 42 6 62 -5 24z"/>
<path d="M1602 1310 c0 -14 2 -19 5 -12 2 6 2 18 0 25 -3 6 -5 1 -5 -13z"/>
<path d="M1085 1310 c11 -5 29 -8 40 -8 16 0 15 2 -5 8 -34 11 -60 11 -35 0z"/>
<path d="M2125 1310 c-3 -5 -1 -10 4 -10 6 0 11 5 11 10 0 6 -2 10 -4 10 -3 0
-8 -4 -11 -10z"/>
<path d="M2773 1306 c-22 -10 -31 -26 -15 -26 10 1 46 29 41 33 -2 2 -14 -2
-26 -7z"/>
<path d="M4192 1295 c0 -16 2 -22 5 -12 2 9 2 23 0 30 -3 6 -5 -1 -5 -18z"/>
<path d="M2310 1302 c0 -4 9 -15 20 -25 19 -16 20 -16 20 2 0 10 -7 22 -16 25
-20 8 -24 8 -24 -2z"/>
<path d="M3020 1300 c0 -5 5 -10 10 -10 6 0 10 5 10 10 0 6 -4 10 -10 10 -5 0
-10 -4 -10 -10z"/>
<path d="M1296 1273 c-18 -24 -18 -26 -2 -20 14 6 16 3 11 -13 -4 -11 -2 -20
4 -20 6 0 10 18 9 40 -1 22 -2 40 -2 40 -1 0 -10 -13 -20 -27z"/>
<path d="M4000 1293 c-44 -7 -54 -13 -43 -24 6 -6 24 -3 54 10 43 20 41 23
-11 14z"/>
<path d="M499 1263 c-19 -50 -77 -298 -80 -338 0 -5 6 -11 14 -13 31 -6 75
107 107 279 15 78 -17 134 -41 72z"/>
<path d="M4226 1281 c-4 -7 -5 -15 -2 -18 9 -9 19 4 14 18 -4 11 -6 11 -12 0z"/>
<path d="M2140 1270 c0 -5 5 -10 10 -10 6 0 10 5 10 10 0 6 -4 10 -10 10 -5 0
-10 -4 -10 -10z"/>
<path d="M3005 1270 c-3 -5 -2 -10 4 -10 5 0 13 5 16 10 3 6 2 10 -4 10 -5 0
-13 -4 -16 -10z"/>
<path d="M2682 1254 c-33 -23 -27 -36 8 -16 16 9 30 20 30 25 0 11 -14 8 -38
-9z"/>
<path d="M4025 1251 c-5 -12 -8 -13 -14 -2 -7 10 -13 11 -30 2 -22 -12 -30
-46 -8 -38 6 2 11 10 9 16 -1 7 2 9 8 6 12 -8 70 13 70 25 0 13 -29 6 -35 -9z"/>
<path d="M4146 1262 c-3 -6 -1 -14 5 -17 15 -10 25 3 12 16 -7 7 -13 7 -17 1z"/>
<path d="M4540 1240 c-9 -16 -6 -40 11 -103 12 -45 30 -116 39 -157 24 -100
28 -110 55 -110 l22 0 -18 95 c-10 52 -25 121 -33 153 -9 31 -20 76 -26 100
-12 46 -32 55 -50 22z"/>
<path d="M1260 1220 c24 -34 60 -58 60 -40 0 13 -60 70 -73 70 -5 0 1 -14 13
-30z"/>
<path d="M1581 1234 c0 -11 3 -14 6 -6 3 7 2 16 -1 19 -3 4 -6 -2 -5 -13z"/>
<path d="M2160 1240 c0 -5 5 -10 10 -10 6 0 10 5 10 10 0 6 -4 10 -10 10 -5 0
-10 -4 -10 -10z"/>
<path d="M845 1224 c3 -10 16 -82 30 -159 15 -77 31 -144 37 -150 8 -7 9 -4 4
9 -12 36 -35 197 -29 211 3 8 1 15 -4 15 -5 0 -10 15 -11 32 -2 18 -9 39 -17
47 -12 12 -13 12 -10 -5z"/>
<path d="M2975 1230 c-3 -5 1 -10 9 -10 9 0 16 5 16 10 0 6 -4 10 -9 10 -6 0
-13 -4 -16 -10z"/>
<path d="M3691 1224 c0 -11 3 -14 6 -6 3 7 2 16 -1 19 -3 4 -6 -2 -5 -13z"/>
<path d="M3924 1224 c4 -15 2 -24 -9 -28 -8 -3 -15 -14 -15 -24 0 -10 -5 -23
-11 -29 -8 -8 -8 -13 0 -17 6 -4 11 -1 11 7 0 8 6 20 14 26 20 17 29 62 15 75
-8 8 -10 6 -5 -10z"/>
<path d="M4066 1225 c-16 -12 -17 -15 -4 -15 9 0 18 7 22 15 7 18 6 18 -18 0z"/>
<path d="M4120 1227 c0 -16 37 -20 46 -5 5 7 1 9 -9 5 -10 -3 -17 -2 -17 3 0
6 -4 10 -10 10 -5 0 -10 -6 -10 -13z"/>
<path d="M922 1210 c0 -14 4 -36 8 -50 l8 -25 0 25 c0 14 -4 36 -8 50 l-8 25
0 -25z"/>
<path d="M2415 1210 c-6 -9 50 -33 65 -28 6 2 -5 11 -25 20 -19 8 -37 12 -40
8z"/>
<path d="M4015 1210 c-3 -6 1 -7 9 -4 18 7 21 14 7 14 -6 0 -13 -4 -16 -10z"/>
<path d="M2955 1189 c-10 -15 3 -25 16 -12 7 7 7 13 1 17 -6 3 -14 1 -17 -5z"/>
<path d="M2550 1180 c0 -6 12 -10 27 -10 29 0 24 12 -7 17 -11 2 -20 -2 -20
-7z"/>
<path d="M4014 1180 c-47 -11 -57 -19 -40 -36 19 -19 25 -18 19 4 -5 20 2 22
76 22 24 0 42 2 40 4 -10 9 -67 12 -95 6z"/>
<path d="M2215 1170 c3 -5 11 -10 16 -10 6 0 7 5 4 10 -3 6 -11 10 -16 10 -6
0 -7 -4 -4 -10z"/>
<path d="M2240 1140 c0 -5 5 -10 11 -10 5 0 7 5 4 10 -3 6 -8 10 -11 10 -2 0
-4 -4 -4 -10z"/>
<path d="M2916 1134 c-4 -10 -1 -14 6 -12 15 5 23 28 10 28 -5 0 -13 -7 -16
-16z"/>
<path d="M1017 1133 c-4 -3 -7 -11 -7 -17 0 -6 5 -5 12 2 6 6 9 14 7 17 -3 3
-9 2 -12 -2z"/>
<path d="M3926 1124 c-9 -23 -2 -28 13 -10 7 8 8 17 3 20 -6 3 -13 -1 -16 -10z"/>
<path d="M945 1099 c12 -60 59 -212 62 -203 2 5 -8 47 -22 94 -14 46 -25 94
-25 106 0 13 -5 26 -11 30 -8 4 -9 -4 -4 -27z"/>
<path d="M2608 1123 c7 -3 16 -2 19 1 4 3 -2 6 -13 5 -11 0 -14 -3 -6 -6z"/>
<path d="M4189 1049 c-14 -43 -22 -76 -19 -74 10 6 52 134 48 144 -2 5 -15
-27 -29 -70z"/>
<path d="M1630 1100 c0 -11 6 -20 14 -20 9 0 12 7 9 20 -3 11 -9 20 -14 20 -5
0 -9 -9 -9 -20z"/>
<path d="M2282 1091 c13 -16 30 -32 38 -36 8 -3 -1 10 -19 29 -42 44 -51 46
-19 7z"/>
<path d="M3400 1108 c0 -7 5 -20 10 -28 8 -12 10 -11 10 7 0 12 -4 25 -10 28
-5 3 -10 0 -10 -7z"/>
<path d="M4171 1104 c0 -11 3 -14 6 -6 3 7 2 16 -1 19 -3 4 -6 -2 -5 -13z"/>
<path d="M1441 1094 c0 -11 3 -14 6 -6 3 7 2 16 -1 19 -3 4 -6 -2 -5 -13z"/>
<path d="M2350 1090 c12 -23 30 -35 30 -21 0 6 -5 11 -11 11 -5 0 -8 4 -5 9 3
5 -1 12 -9 15 -13 4 -13 2 -5 -14z"/>
<path d="M2480 1100 c0 -13 11 -13 30 0 12 8 11 10 -7 10 -13 0 -23 -4 -23
-10z"/>
<path d="M1391 1084 c0 -11 3 -14 6 -6 3 7 2 16 -1 19 -3 4 -6 -2 -5 -13z"/>
<path d="M1565 1090 c-4 -6 3 -10 14 -10 25 0 27 6 6 13 -8 4 -17 2 -20 -3z"/>
<path d="M2880 1090 c0 -5 4 -10 9 -10 6 0 13 5 16 10 3 6 -1 10 -9 10 -9 0
-16 -4 -16 -10z"/>
<path d="M3350 1074 c0 -8 5 -12 10 -9 6 3 10 10 10 16 0 5 -4 9 -10 9 -5 0
-10 -7 -10 -16z"/>
<path d="M3900 1081 c0 -5 7 -12 16 -15 24 -9 27 -7 10 9 -17 17 -26 19 -26 6z"/>
<path d="M901 1064 c0 -11 3 -14 6 -6 3 7 2 16 -1 19 -3 4 -6 -2 -5 -13z"/>
<path d="M3965 1071 c-3 -5 -1 -12 5 -16 5 -3 10 1 10 9 0 18 -6 21 -15 7z"/>
<path d="M1710 1066 c0 -2 7 -7 16 -10 8 -3 12 -2 9 4 -6 10 -25 14 -25 6z"/>
<path d="M2850 1054 c0 -8 5 -12 10 -9 6 3 10 10 10 16 0 5 -4 9 -10 9 -5 0
-10 -7 -10 -16z"/>
<path d="M2605 1040 c10 -11 23 -20 28 -20 6 0 2 9 -8 20 -10 11 -23 20 -28
20 -6 0 -2 -9 8 -20z"/>
<path d="M2493 1040 c-27 -11 -36 -40 -24 -74 8 -20 17 -26 38 -25 l28 1 -27
9 c-24 9 -26 13 -16 40 11 32 41 54 64 45 9 -3 12 -1 9 4 -7 12 -42 12 -72 0z"/>
<path d="M3276 1041 c-4 -5 3 -7 14 -4 23 6 26 13 6 13 -8 0 -17 -4 -20 -9z"/>
<path d="M3439 1040 c-62 -11 -79 -21 -131 -79 -90 -100 -91 -235 -3 -348 40
-51 85 -93 99 -93 6 1 5 6 -4 13 -33 26 -111 126 -125 160 -19 45 -19 147 -1
191 36 85 121 145 211 146 37 1 45 4 30 10 -11 5 -22 8 -25 8 -3 0 -26 -4 -51
-8z"/>
<path d="M1443 1021 c-68 -25 -116 -63 -166 -130 -52 -70 -66 -110 -67 -188 0
-97 60 -221 123 -255 13 -7 5 8 -21 36 -63 69 -86 125 -86 216 -1 65 3 82 28
128 49 88 132 165 199 183 43 11 168 9 161 -3 -3 -5 0 -8 5 -8 6 0 14 0 19 0
14 -1 84 -76 108 -116 13 -23 28 -68 33 -100 l9 -59 1 46 c1 55 -27 151 -42
142 -6 -4 -8 0 -4 9 6 16 -23 50 -65 74 -85 50 -147 56 -235 25z"/>
<path d="M1707 1023 c12 -10 38 -29 57 -43 42 -30 90 -99 111 -160 19 -52 14
-107 -16 -184 -24 -65 -18 -70 12 -9 33 68 33 170 1 235 -33 65 -91 128 -143
156 -31 17 -38 18 -22 5z"/>
<path d="M1776 1025 c4 -8 11 -15 16 -15 6 0 5 6 -2 15 -7 8 -14 15 -16 15 -2
0 -1 -7 2 -15z"/>
<path d="M2397 1034 c-11 -11 -8 -44 3 -44 15 0 24 30 13 41 -5 5 -12 6 -16 3z"/>
<path d="M3557 1029 c7 -7 15 -10 18 -7 3 3 -2 9 -12 12 -14 6 -15 5 -6 -5z"/>
<path d="M4141 1024 c0 -11 3 -14 6 -6 3 7 2 16 -1 19 -3 4 -6 -2 -5 -13z"/>
<path d="M912 1010 c0 -14 2 -19 5 -12 2 6 2 18 0 25 -3 6 -5 1 -5 -13z"/>
<path d="M2707 1024 c-8 -8 1 -24 14 -24 5 0 9 7 9 15 0 15 -12 20 -23 9z"/>
<path d="M2800 1015 c-14 -16 -10 -18 14 -9 9 3 16 10 16 15 0 14 -16 11 -30
-6z"/>
<path d="M3211 984 c-66 -71 -94 -141 -89 -222 2 -44 12 -84 27 -116 24 -49
135 -176 154 -176 6 0 -6 14 -25 30 -20 17 -49 50 -64 73 -16 23 -35 48 -41
55 -7 7 -20 38 -29 69 -28 98 1 204 81 288 19 21 34 40 32 42 -2 2 -23 -17
-46 -43z"/>
<path d="M3968 1023 c7 -3 16 -2 19 1 4 3 -2 6 -13 5 -11 0 -14 -3 -6 -6z"/>
<path d="M1007 1014 c-12 -12 3 -22 23 -17 11 3 17 9 14 14 -6 10 -28 12 -37
3z"/>
<path d="M2650 996 c0 -18 16 -29 30 -21 13 8 1 35 -16 35 -8 0 -14 -6 -14
-14z"/>
<path d="M2760 1001 c0 -5 5 -13 10 -16 6 -3 10 -2 10 4 0 5 -4 13 -10 16 -5
3 -10 2 -10 -4z"/>
<path d="M3456 993 c-25 -8 -46 -18 -46 -23 0 -5 16 -2 35 6 19 7 49 14 67 14
18 0 39 4 45 8 21 13 -52 9 -101 -5z"/>
<path d="M3607 999 c7 -7 15 -10 18 -7 3 3 -2 9 -12 12 -14 6 -15 5 -6 -5z"/>
<path d="M1478 993 c6 -2 18 -2 25 0 6 3 1 5 -13 5 -14 0 -19 -2 -12 -5z"/>
<path d="M1836 969 c76 -82 101 -196 69 -319 -28 -108 -89 -192 -188 -258 -20
-14 -35 -27 -33 -30 7 -7 96 61 137 105 53 56 77 102 100 189 22 85 20 148 -7
213 -21 51 -64 110 -88 123 -15 7 -12 1 10 -23z"/>
<path d="M2996 985 c-15 -8 -32 -13 -36 -10 -11 7 -75 -67 -100 -114 -11 -22
-20 -58 -20 -79 0 -42 22 -106 41 -117 6 -4 3 7 -5 24 -25 47 -30 111 -13 151
22 52 90 132 99 117 6 -9 10 -9 16 -1 4 7 27 19 52 27 34 12 39 16 20 16 -14
1 -38 -6 -54 -14z"/>
<path d="M1020 974 c0 -8 5 -12 10 -9 6 3 10 10 10 16 0 5 -4 9 -10 9 -5 0
-10 -7 -10 -16z"/>
<path d="M2375 972 c2 -15 0 -19 -11 -15 -10 4 -14 -2 -14 -20 0 -52 120 -125
218 -134 52 -4 62 -1 111 29 41 25 57 42 66 71 17 50 2 48 -18 -3 -17 -44 -57
-68 -128 -77 -71 -10 -192 41 -228 96 -15 23 -14 23 8 16 21 -6 22 -5 16 17
-10 31 -26 47 -20 20z"/>
<path d="M3943 983 c-17 -6 -16 -23 1 -23 8 0 16 7 20 15 6 15 1 17 -21 8z"/>
<path d="M3650 973 c1 -4 18 -21 39 -38 81 -63 117 -148 108 -257 -9 -106 -63
-202 -142 -250 -16 -10 -25 -18 -20 -18 33 0 111 73 143 135 25 45 27 60 27
160 0 118 -5 133 -74 208 -31 34 -81 72 -81 60z"/>
<path d="M1080 960 c0 -13 18 -22 24 -11 3 5 -1 11 -9 15 -8 3 -15 1 -15 -4z"/>
<path d="M1449 957 c-54 -20 -104 -63 -141 -120 -29 -46 -33 -59 -33 -122 0
-54 4 -76 20 -97 43 -59 142 -76 221 -38 92 45 166 169 150 251 -19 102 -121
161 -217 126z m150 -46 c11 -11 18 -21 14 -21 -4 0 2 -6 13 -14 25 -19 26 -97
1 -146 -90 -179 -311 -200 -334 -31 -9 68 59 179 141 229 33 20 139 9 165 -17z"/>
<path d="M1320 640 c0 -5 5 -10 11 -10 5 0 7 5 4 10 -3 6 -8 10 -11 10 -2 0
-4 -4 -4 -10z"/>
<path d="M2576 961 c-4 -5 3 -7 14 -4 23 6 26 13 6 13 -8 0 -17 -4 -20 -9z"/>
<path d="M2707 958 c-29 -73 -30 -85 -6 -61 14 14 19 30 17 49 -3 23 -6 25
-11 12z"/>
<path d="M3427 935 c-49 -34 -70 -77 -71 -145 0 -65 19 -105 78 -165 114 -114
280 -90 316 46 48 176 -179 361 -323 264z m196 -35 c104 -75 127 -223 46 -299
-41 -38 -134 -24 -192 30 -12 10 -27 19 -34 19 -7 0 -13 4 -13 8 0 5 -8 17
-17 28 -25 28 -28 40 -28 109 1 65 18 99 65 129 41 27 117 16 173 -24z"/>
<path d="M1050 940 c0 -5 5 -10 10 -10 6 0 10 5 10 10 0 6 -4 10 -10 10 -5 0
-10 -4 -10 -10z"/>
<path d="M1151 934 c0 -11 3 -14 6 -6 3 7 2 16 -1 19 -3 4 -6 -2 -5 -13z"/>
<path d="M3304 899 c-25 -36 -29 -51 -28 -104 1 -40 9 -75 22 -101 23 -45 89
-124 103 -124 6 0 -6 17 -25 38 -50 51 -77 111 -83 182 -5 53 -3 64 21 101 36
54 27 61 -10 8z"/>
<path d="M1656 908 c10 -14 21 -24 23 -22 3 3 -6 15 -18 27 l-24 22 19 -27z"/>
<path d="M2621 904 c-12 -14 -20 -28 -17 -32 7 -6 46 36 46 50 0 13 -5 10 -29
-18z"/>
<path d="M3932 905 c0 -11 4 -31 8 -45 6 -20 8 -21 8 -5 0 11 -4 31 -8 45 -6
20 -8 21 -8 5z"/>
<path d="M2960 895 c-7 -9 -8 -15 -2 -15 5 0 12 7 16 15 3 8 4 15 2 15 -2 0
-9 -7 -16 -15z"/>
<path d="M4125 880 c-4 -19 -20 -77 -36 -129 -28 -91 -38 -141 -18 -91 22 53
70 232 66 243 -2 7 -7 -4 -12 -23z"/>
<path d="M416 888 c-10 -31 -26 -319 -26 -475 0 -120 4 -174 13 -186 10 -14
12 31 14 235 1 139 6 293 10 341 5 49 5 91 1 93 -5 3 -10 -1 -12 -8z"/>
<path d="M2477 889 c5 -5 24 -11 43 -14 19 -3 28 -3 20 1 -36 14 -46 17 -59
20 -8 2 -10 -1 -4 -7z"/>
<path d="M1736 860 c4 -14 8 -50 8 -80 -1 -62 -34 -138 -78 -179 -14 -14 -26
-29 -26 -35 1 -18 91 87 107 124 21 49 20 128 -1 165 -15 26 -16 26 -10 5z"/>
<path d="M1683 815 c-1 -72 -23 -137 -64 -187 -16 -21 -26 -38 -20 -38 22 0
71 76 87 136 13 49 15 74 8 106 l-10 43 -1 -60z"/>
<path d="M2932 845 c-6 -14 -8 -25 -3 -25 8 0 23 41 17 47 -1 2 -8 -8 -14 -22z"/>
<path d="M3324 823 c-9 -49 9 -114 47 -169 32 -47 53 -62 24 -17 -54 82 -60
98 -59 161 0 34 -1 62 -2 62 -2 0 -6 -17 -10 -37z"/>
<path d="M1011 850 c0 -3 6 -27 14 -55 8 -30 14 -40 14 -25 0 20 -26 97 -28
80z"/>
<path d="M4673 748 c5 -57 7 -213 4 -348 -3 -169 -1 -237 6 -220 10 26 13 530
3 605 -2 22 -5 46 -5 53 -1 6 -5 12 -9 12 -4 0 -4 -46 1 -102z"/>
<path d="M3952 800 c0 -14 2 -19 5 -12 2 6 2 18 0 25 -3 6 -5 1 -5 -13z"/>
<path d="M1813 775 c0 -22 2 -30 4 -17 2 12 2 30 0 40 -3 9 -5 -1 -4 -23z"/>
<path d="M1704 750 c-7 -30 -10 -57 -9 -59 6 -6 26 80 23 97 -2 9 -8 -8 -14
-38z"/>
<path d="M2406 779 c13 -12 38 -22 65 -25 l44 -4 -40 15 c-22 9 -44 20 -49 25
-6 6 -17 10 -25 10 -12 0 -11 -5 5 -21z"/>
<path d="M2925 790 c3 -5 10 -10 16 -10 5 0 9 5 9 10 0 6 -7 10 -16 10 -8 0
-12 -4 -9 -10z"/>
<path d="M2934 739 c2 -17 7 -33 10 -37 11 -10 18 7 11 25 -5 10 -7 24 -6 31
1 6 -3 12 -9 12 -7 0 -9 -12 -6 -31z"/>
<path d="M3155 725 c3 -27 10 -54 16 -60 8 -7 9 -3 3 15 -4 14 -11 41 -15 60
-7 28 -7 26 -4 -15z"/>
<path d="M2625 749 c-4 -6 -5 -12 -2 -15 7 -7 37 7 37 17 0 13 -27 11 -35 -2z"/>
<path d="M3961 734 c0 -11 3 -14 6 -6 3 7 2 16 -1 19 -3 4 -6 -2 -5 -13z"/>
<path d="M1801 714 c0 -11 3 -14 6 -6 3 7 2 16 -1 19 -3 4 -6 -2 -5 -13z"/>
<path d="M2102 658 c-6 -28 -19 -59 -28 -69 -8 -9 -11 -20 -6 -23 12 -7 40 54
48 104 9 57 1 50 -14 -12z"/>
<path d="M2955 680 c3 -5 8 -10 11 -10 2 0 4 5 4 10 0 6 -5 10 -11 10 -5 0 -7
-4 -4 -10z"/>
<path d="M2965 650 c4 -6 11 -8 16 -5 14 9 11 15 -7 15 -8 0 -12 -5 -9 -10z"/>
<path d="M2980 620 c0 -5 5 -10 10 -10 6 0 10 5 10 10 0 6 -4 10 -10 10 -5 0
-10 -4 -10 -10z"/>
<path d="M1709 603 c-13 -16 -12 -17 4 -4 16 13 21 21 13 21 -2 0 -10 -8 -17
-17z"/>
<path d="M1258 584 c16 -30 47 -55 89 -70 45 -15 129 -18 138 -4 4 6 -5 7 -24
4 -49 -10 -125 14 -172 54 -26 22 -38 28 -31 16z"/>
<path d="M3000 591 c0 -5 9 -11 19 -14 14 -3 18 -1 14 9 -6 15 -33 19 -33 5z"/>
<path d="M1556 574 c-11 -8 -16 -14 -10 -14 13 0 39 18 34 24 -3 2 -14 -2 -24
-10z"/>
<path d="M3730 565 c-48 -51 -120 -64 -230 -40 -15 3 -11 -1 10 -9 75 -31 187
-11 234 43 27 30 14 36 -14 6z"/>
<path d="M1820 559 c0 -5 5 -7 10 -4 6 3 10 8 10 11 0 2 -4 4 -10 4 -5 0 -10
-5 -10 -11z"/>
<path d="M1940 550 c0 -35 65 -55 77 -24 8 21 -21 44 -54 44 -16 0 -23 -6 -23
-20z m60 -9 c0 -16 -14 -20 -33 -10 -15 9 -17 13 -7 19 14 9 40 3 40 -9z"/>
<path d="M3052 552 c-18 -2 -30 -8 -27 -13 4 -5 24 -6 47 -3 29 5 43 3 49 -7
8 -12 11 -12 19 1 19 30 12 31 -88 22z"/>
<path d="M1586 541 c-4 -5 -25 -13 -49 -17 -23 -4 -37 -9 -30 -11 16 -6 91 15
98 27 3 6 2 10 -4 10 -5 0 -12 -4 -15 -9z"/>
<path d="M2037 517 l-17 -32 20 24 c17 20 26 41 18 41 -2 0 -11 -15 -21 -33z"/>
<path d="M1448 533 c7 -3 16 -2 19 1 4 3 -2 6 -13 5 -11 0 -14 -3 -6 -6z"/>
<path d="M4246 521 c-4 -5 3 -7 14 -4 23 6 26 13 6 13 -8 0 -17 -4 -20 -9z"/>
<path d="M783 485 c0 -22 2 -30 4 -17 2 12 2 30 0 40 -3 9 -5 -1 -4 -23z"/>
<path d="M1705 493 l-18 -28 27 24 c28 26 31 31 17 31 -5 0 -17 -12 -26 -27z"/>
<path d="M782 410 c0 -14 2 -19 5 -12 2 6 2 18 0 25 -3 6 -5 1 -5 -13z"/>
<path d="M2657 406 c-4 -11 -5 -21 -2 -24 3 -3 5 1 6 9 0 8 4 6 8 -5 7 -19 8
-19 13 2 4 12 2 20 -2 17 -5 -3 -10 0 -12 7 -3 7 -7 5 -11 -6z"/>
<path d="M3503 393 c15 -2 37 -2 50 0 12 2 0 4 -28 4 -27 0 -38 -2 -22 -4z"/>
<path d="M4321 384 c0 -11 3 -14 6 -6 3 7 2 16 -1 19 -3 4 -6 -2 -5 -13z"/>
<path d="M425 359 c-4 -6 -5 -12 -2 -15 2 -3 7 2 10 11 7 17 1 20 -8 4z"/>
<path d="M3287 325 c-73 -54 -323 -313 -312 -323 2 -3 26 19 51 49 94 107 272
278 298 285 14 3 26 10 26 15 0 15 -13 10 -63 -26z"/>
<path d="M4321 344 c0 -11 3 -14 6 -6 3 7 2 16 -1 19 -3 4 -6 -2 -5 -13z"/>
<path d="M1660 344 c0 -2 9 -8 20 -14 11 -6 20 -7 20 -2 0 6 -9 12 -20 15 -11
3 -20 3 -20 1z"/>
<path d="M3280 255 c-52 -52 -96 -92 -99 -89 -3 2 26 37 65 77 38 40 19 23
-41 -38 -136 -136 -198 -205 -182 -205 7 1 24 16 38 35 45 59 110 127 117 121
3 -4 -8 -21 -25 -39 -61 -64 -93 -102 -93 -109 0 -21 22 -2 78 67 99 119 190
212 227 229 19 10 35 19 35 22 0 3 -5 2 -12 -2 -8 -5 -9 -2 -5 9 12 31 -7 16
-103 -78z"/>
<path d="M1623 307 c-59 -57 -73 -73 -73 -82 0 -5 14 5 30 23 17 18 30 29 30
25 0 -4 9 3 20 15 11 12 20 24 20 27 0 9 -14 5 -27 -8z"/>
<path d="M4322 300 c0 -14 2 -19 5 -12 2 6 2 18 0 25 -3 6 -5 1 -5 -13z"/>
<path d="M1550 300 c0 -5 5 -10 10 -10 6 0 10 5 10 10 0 6 -4 10 -10 10 -5 0
-10 -4 -10 -10z"/>
<path d="M1720 307 c0 -6 77 -57 87 -57 4 0 -1 6 -12 13 -48 33 -75 49 -75 44z"/>
<path d="M3410 301 c0 -5 7 -14 16 -22 13 -10 17 -10 25 2 12 19 11 29 -1 29
-5 0 -10 -4 -10 -10 0 -5 -5 -10 -11 -10 -5 0 -7 5 -4 10 3 6 1 10 -4 10 -6 0
-11 -4 -11 -9z"/>
<path d="M3510 280 c0 -5 4 -10 9 -10 6 0 13 5 16 10 3 6 -1 10 -9 10 -9 0
-16 -4 -16 -10z"/>
<path d="M3455 269 c-4 -6 -5 -13 -2 -16 7 -7 27 6 27 18 0 12 -17 12 -25 -2z"/>
<path d="M1470 263 c-8 -2 -23 -17 -33 -34 -11 -20 -23 -29 -32 -25 -8 3 -17
0 -21 -6 -5 -7 -2 -8 6 -3 8 5 11 3 8 -6 -3 -8 -11 -13 -17 -11 -7 1 -10 -2
-7 -7 4 -5 -6 -25 -22 -43 -36 -41 -87 -128 -75 -128 4 0 22 24 38 52 17 29
63 87 104 130 41 43 72 80 70 81 -2 2 -11 2 -19 0z"/>
<path d="M1496 222 c-44 -47 -176 -210 -176 -218 0 -12 13 2 57 58 26 35 76
96 111 136 71 82 76 96 8 24z"/>
<path d="M3257 138 c-71 -73 -123 -134 -116 -137 7 -2 39 27 73 65 33 38 91
99 129 137 38 37 63 67 56 67 -7 0 -71 -60 -142 -132z"/>
<path d="M4322 250 c0 -14 2 -19 5 -12 2 6 2 18 0 25 -3 6 -5 1 -5 -13z"/>
<path d="M1660 256 c0 -2 13 -12 29 -23 16 -10 52 -40 80 -66 28 -26 53 -48
55 -48 3 0 31 -27 62 -59 31 -33 62 -60 68 -60 5 0 -9 19 -32 43 -41 42 -60
76 -24 44 10 -10 21 -15 24 -12 2 3 18 -13 34 -35 16 -22 35 -40 42 -40 13 0
-28 53 -107 138 l-34 37 27 -37 c32 -46 25 -49 -18 -8 -61 57 -156 136 -156
128 0 -2 39 -37 86 -77 47 -40 83 -75 80 -78 -3 -3 -49 31 -103 76 -87 72
-113 90 -113 77z"/>
<path d="M1820 243 c0 -5 13 -16 29 -26 32 -19 201 -193 201 -208 0 -5 5 -9
11 -9 17 0 -50 86 -115 148 -67 64 -126 108 -126 95z"/>
<path d="M3480 240 c0 -5 4 -10 9 -10 6 0 13 5 16 10 3 6 -1 10 -9 10 -9 0
-16 -4 -16 -10z"/>
<path d="M3550 239 c0 -5 5 -7 10 -4 6 3 10 8 10 11 0 2 -4 4 -10 4 -5 0 -10
-5 -10 -11z"/>
<path d="M1265 206 c-15 -19 -24 -40 -21 -45 4 -5 1 -13 -5 -17 -8 -4 -9 -3
-5 4 4 7 3 12 -2 12 -8 0 -40 -93 -49 -145 -2 -11 23 34 56 100 33 66 58 121
56 123 -1 2 -15 -13 -30 -32z"/>
<path d="M1321 219 c-7 -12 -10 -23 -8 -26 3 -3 11 5 17 17 15 28 8 35 -9 9z"/>
<path d="M1770 236 c0 -2 8 -10 18 -17 15 -13 16 -12 3 4 -13 16 -21 21 -21
13z"/>
<path d="M3414 182 c-81 -76 -168 -172 -161 -178 3 -4 18 9 33 27 15 19 63 69
107 112 86 84 103 115 21 39z"/>
<path d="M3512 216 c1 -10 8 -17 13 -17 15 1 12 24 -3 29 -9 3 -13 -2 -10 -12z"/>
<path d="M1520 200 c-6 -11 -8 -20 -6 -20 3 0 10 9 16 20 6 11 8 20 6 20 -3 0
-10 -9 -16 -20z"/>
<path d="M1605 200 c3 -5 8 -10 11 -10 2 0 4 5 4 10 0 6 -5 10 -11 10 -5 0 -7
-4 -4 -10z"/>
<path d="M3545 187 c-4 -10 -5 -21 -1 -24 3 -4 6 -1 6 5 0 7 5 12 10 12 6 0 9
-3 8 -7 -1 -5 2 -18 6 -31 8 -24 27 -25 34 -2 3 9 -1 11 -12 7 -9 -4 -15 -3
-12 2 3 5 -3 20 -13 32 -18 22 -20 23 -26 6z"/>
<path d="M408 179 c-24 -14 -22 -22 7 -36 14 -6 25 -7 25 -2 0 5 -4 9 -10 9
-5 0 -10 5 -10 10 0 6 48 11 123 11 101 2 113 3 67 9 -80 12 -182 11 -202 -1z"/>
<path d="M1727 93 c51 -53 95 -94 99 -91 5 6 -173 188 -185 188 -3 0 36 -43
86 -97z"/>
<path d="M1307 153 c-8 -16 -12 -33 -10 -40 2 -6 -1 -14 -6 -18 -6 -3 -11 -11
-11 -18 0 -6 7 -1 16 11 9 13 14 26 10 29 -3 3 1 18 10 34 8 16 12 29 10 29
-3 0 -12 -12 -19 -27z"/>
<path d="M4253 173 c9 -2 25 -2 35 0 9 3 1 5 -18 5 -19 0 -27 -2 -17 -5z"/>
<path d="M1249 89 c-22 -45 -38 -83 -35 -86 5 -5 58 95 76 143 19 50 -1 21
-41 -57z"/>
<path d="M1339 143 c-13 -16 -12 -17 4 -4 16 13 21 21 13 21 -2 0 -10 -8 -17
-17z"/>
<path d="M4640 141 c0 -5 14 -9 31 -9 20 1 26 4 17 9 -18 12 -48 11 -48 0z"/>
<path d="M4233 133 c15 -2 39 -2 55 0 15 2 2 4 -28 4 -30 0 -43 -2 -27 -4z"/>
<path d="M4328 133 c7 -3 16 -2 19 1 4 3 -2 6 -13 5 -11 0 -14 -3 -6 -6z"/>
<path d="M4443 133 c9 -2 23 -2 30 0 6 3 -1 5 -18 5 -16 0 -22 -2 -12 -5z"/>
<path d="M793 123 c9 -2 25 -2 35 0 9 3 1 5 -18 5 -19 0 -27 -2 -17 -5z"/>
<path d="M3605 110 c-3 -5 1 -10 9 -10 9 0 16 5 16 10 0 6 -4 10 -9 10 -6 0
-13 -4 -16 -10z"/>
<path d="M1805 58 c28 -31 54 -56 58 -57 13 -2 -58 79 -85 97 -13 9 0 -9 27
-40z"/>
<path d="M4630 100 c-12 -8 -12 -10 5 -10 11 0 27 5 35 10 12 8 12 10 -5 10
-11 0 -27 -5 -35 -10z"/>
<path d="M4688 74 c-10 -19 -18 -45 -18 -57 0 -16 6 -9 21 22 24 54 21 83 -3
35z"/>
<path d="M460 85 c7 -8 16 -15 21 -15 5 0 9 7 9 15 0 9 -9 15 -21 15 -18 0
-19 -2 -9 -15z"/>
<path d="M3625 90 c-3 -5 0 -10 7 -10 13 0 48 -34 48 -46 0 -9 31 -37 35 -32
5 5 -67 97 -77 98 -4 0 -10 -4 -13 -10z"/>
<path d="M401 40 l1 -45 10 34 c6 23 6 37 -1 44 -8 8 -11 -2 -10 -33z"/>
<path d="M573 63 c9 -2 25 -2 35 0 9 3 1 5 -18 5 -19 0 -27 -2 -17 -5z"/>
<path d="M2550 63 c0 -5 7 -18 15 -29 13 -18 14 -18 8 4 -5 22 -23 41 -23 25z"/>
<path d="M437 40 c-3 -11 -1 -20 4 -20 5 0 9 9 9 20 0 11 -2 20 -4 20 -2 0 -6
-9 -9 -20z"/>
<path d="M1265 49 c-4 -6 -5 -12 -2 -15 2 -3 7 2 10 11 7 17 1 20 -8 4z"/>
<path d="M1415 20 c-10 -11 -14 -20 -9 -20 5 0 15 9 22 20 16 26 10 26 -13 0z"/>
</g>
</svg>
