<?xml version="1.0" standalone="no"?>
<!DOCTYPE svg PUBLIC "-//W3C//DTD SVG 20010904//EN"
 "http://www.w3.org/TR/2001/REC-SVG-20010904/DTD/svg10.dtd">
<svg version="1.0" xmlns="http://www.w3.org/2000/svg"
 width="512.000000pt" height="512.000000pt" viewBox="0 0 512.000000 512.000000"
 preserveAspectRatio="xMidYMid meet">
<metadata>
Created by potrace 1.16, written by Peter Selinger 2001-2019
</metadata>
<g transform="translate(0.000000,512.000000) scale(0.100000,-0.100000)"
fill="#000000" stroke="none">
<path d="M3925 5112 c-6 -4 -22 -23 -35 -42 -12 -19 -30 -41 -38 -47 -9 -7
-13 -15 -11 -17 3 -3 30 22 60 55 31 32 51 59 45 59 -6 0 -16 -4 -21 -8z"/>
<path d="M3709 4867 c-59 -62 -105 -114 -102 -117 2 -3 39 31 81 76 94 97 135
145 130 149 -2 2 -51 -47 -109 -108z"/>
<path d="M3877 4867 c-4 -15 -5 -105 -1 -200 5 -123 4 -179 -5 -194 -12 -23 1
-41 15 -20 5 6 7 109 4 227 -3 128 -8 204 -13 187z"/>
<path d="M3581 4638 c-1 -54 -1 -100 -1 -103 0 -3 2 -6 5 -7 9 -5 13 166 4
187 -4 12 -8 -19 -8 -77z"/>
<path d="M2490 4640 c121 -12 530 -11 530 0 0 6 -106 9 -302 8 -193 -1 -276
-4 -228 -8z"/>
<path d="M3020 4610 c0 -5 5 -10 10 -10 6 0 10 5 10 10 0 6 -4 10 -10 10 -5 0
-10 -4 -10 -10z"/>
<path d="M3086 4520 c27 -42 54 -84 60 -95 9 -16 24 -21 74 -23 35 -2 68 2 73
7 8 8 -9 11 -55 11 l-66 0 -50 73 c-69 100 -98 121 -36 27z"/>
<path d="M1395 4541 c66 -3 338 -7 604 -9 266 -2 489 -5 494 -9 5 -3 8 -1 6 5
-3 7 -190 12 -614 15 -335 2 -556 1 -490 -2z"/>
<path d="M3363 4533 c37 -2 96 -2 130 0 34 2 4 3 -68 3 -71 0 -99 -1 -62 -3z"/>
<path d="M2953 4512 c-18 -2 -33 -7 -33 -11 0 -14 60 -18 71 -5 13 16 2 20
-38 16z"/>
<path d="M2603 4483 c48 -2 125 -2 170 0 45 1 6 3 -88 3 -93 0 -130 -2 -82 -3z"/>
<path d="M4270 4463 c-28 -5 -50 -21 -50 -34 0 -5 5 -9 11 -9 5 0 8 4 4 9 -5
9 77 27 103 23 6 -2 12 2 12 8 0 10 -33 11 -80 3z"/>
<path d="M706 4438 c15 -48 55 -97 175 -214 139 -136 195 -188 319 -295 47
-40 90 -80 97 -88 6 -9 13 -14 15 -11 2 3 20 30 40 60 20 30 57 74 81 98 l44
44 53 -62 c58 -65 196 -177 207 -166 4 3 2 10 -3 14 -5 5 -54 47 -109 94 -55
47 -113 100 -129 117 -27 29 -55 43 -42 22 4 -5 -9 -22 -26 -37 -18 -15 -32
-30 -31 -34 1 -4 -8 -17 -20 -28 l-23 -22 -154 140 c-85 76 -157 137 -159 134
-2 -2 9 -14 25 -26 16 -13 62 -56 104 -97 41 -40 99 -95 129 -122 44 -39 51
-50 38 -55 -27 -10 -142 84 -327 265 -90 88 -160 161 -155 161 5 0 -10 12 -32
27 -23 15 -41 31 -40 36 1 6 -13 14 -31 19 -19 5 -32 14 -29 21 5 15 124 22
141 8 13 -11 26 -5 26 11 0 4 -43 8 -96 8 -94 0 -95 0 -88 -22z m255 -240
c107 -106 231 -222 276 -258 45 -35 79 -68 77 -72 -6 -10 -194 142 -268 215
-26 27 -87 85 -135 130 -118 112 -176 177 -159 177 7 0 102 -87 209 -192z"/>
<path d="M4396 4435 c-5 -18 -13 -25 -30 -25 -29 0 -74 -38 -252 -215 -179
-178 -304 -295 -314 -295 -14 0 -5 29 17 52 32 36 40 56 12 33 -13 -11 -30
-27 -37 -35 -11 -12 -14 -12 -19 -2 -3 7 -12 18 -20 25 -39 32 -54 49 -48 55
4 4 13 -2 21 -12 7 -11 17 -16 21 -12 4 3 -5 19 -20 34 -23 22 -30 25 -46 15
-12 -8 -22 -8 -28 -2 -12 12 -165 -89 -238 -157 -55 -52 -45 -48 27 9 25 20
79 59 118 87 72 49 73 49 104 34 50 -26 156 -153 156 -188 0 -9 5 -16 10 -16
6 0 10 5 10 10 0 6 118 127 263 269 144 143 260 261 257 264 -3 3 -115 -104
-250 -238 -221 -220 -276 -271 -254 -232 4 6 -2 3 -14 -7 -37 -32 -27 5 11 42
38 37 60 43 31 10 -17 -21 -16 -21 9 1 15 14 25 27 22 29 -6 6 35 52 45 52 4
0 74 67 156 148 163 162 232 222 257 222 14 0 47 46 47 65 0 16 -19 1 -24 -20z"/>
<path d="M905 4440 c-4 -6 22 -10 75 -10 52 0 79 -4 75 -10 -3 -5 -47 -10 -96
-10 -59 0 -88 -4 -84 -10 4 -6 10 -8 14 -5 5 2 19 -7 32 -22 13 -14 56 -49 94
-78 82 -62 210 -175 197 -175 -4 0 -13 5 -20 12 -7 7 -12 9 -12 4 0 -13 25
-33 36 -29 6 2 14 -6 17 -18 4 -14 11 -20 21 -16 8 3 18 2 21 -3 4 -6 1 -10
-4 -10 -19 0 -11 -14 22 -40 18 -13 26 -17 18 -7 -8 10 -11 21 -7 25 4 4 17
-5 28 -21 23 -32 43 -34 60 -7 7 11 18 20 25 20 7 0 17 9 23 21 10 17 7 23
-17 42 -52 40 -274 249 -269 254 2 2 57 -41 122 -97 65 -56 127 -106 138 -111
12 -6 8 0 -9 13 -16 13 -65 54 -109 93 -109 97 -157 135 -170 135 -6 0 -4 -5
4 -10 8 -5 15 -15 15 -22 0 -14 237 -247 268 -265 17 -9 16 -12 -13 -41 l-32
-32 -51 49 c-69 65 -122 109 -266 226 -67 53 -124 101 -127 107 -4 5 23 9 68
8 40 0 80 0 88 2 8 1 40 -1 70 -5 30 -4 168 -8 305 -10 l250 -4 3 -24 c6 -43
49 -182 75 -245 31 -74 60 -181 77 -291 l13 -81 29 21 c21 16 28 27 24 42 -47
168 -95 410 -88 437 3 12 -1 18 -13 18 -16 0 -17 -7 -11 -72 3 -40 13 -91 21
-113 28 -77 14 -69 -18 10 -63 153 -115 375 -65 280 8 -16 18 -47 22 -67 4
-21 11 -40 16 -43 15 -9 10 44 -8 100 -14 42 -22 51 -47 56 -16 4 -172 7 -347
8 -174 0 -318 5 -320 10 -5 13 -155 24 -163 11z m395 -390 c0 -5 -5 -10 -11
-10 -5 0 -7 5 -4 10 3 6 8 10 11 10 2 0 4 -4 4 -10z m599 -243 c1 -10 -3 -15
-9 -12 -5 3 -10 23 -9 43 1 33 2 34 9 12 4 -14 8 -33 9 -43z"/>
<path d="M4035 4431 c-6 -6 -161 -11 -365 -13 l-355 -3 -12 -70 c-6 -38 -28
-164 -48 -280 -51 -291 -50 -279 -31 -294 9 -7 16 -20 16 -27 0 -8 4 -14 8
-14 10 0 32 89 32 133 1 47 24 171 66 353 l38 161 145 7 c81 3 252 6 382 7
235 0 237 0 270 24 l33 25 -68 0 c-56 0 -67 -3 -62 -15 3 -9 0 -15 -10 -15
-10 0 -14 6 -10 15 6 17 -14 21 -29 6z m125 -11 c-8 -5 -26 -10 -40 -10 -20 0
-22 2 -10 10 8 5 26 10 40 10 20 0 22 -2 10 -10z m-805 -67 c-5 -15 -10 -35
-11 -43 -2 -8 -10 -46 -18 -85 -9 -38 -21 -95 -27 -125 -17 -81 -29 -84 -14
-3 7 37 18 110 24 160 13 109 27 151 43 135 6 -6 8 -21 3 -39z m-78 -355 c-3
-8 -6 -5 -6 6 -1 11 2 17 5 13 3 -3 4 -12 1 -19z m-11 -94 c-3 -9 -6 -20 -6
-25 0 -5 -4 -9 -9 -9 -4 0 -6 11 -3 25 2 14 9 25 14 25 6 0 7 -7 4 -16z m-16
-94 l-8 -35 -1 45 c-1 27 3 40 8 35 6 -6 6 -25 1 -45z"/>
<path d="M820 4400 c20 -13 43 -13 35 0 -3 6 -16 10 -28 10 -18 0 -19 -2 -7
-10z"/>
<path d="M4226 4403 c-30 -3 -48 -14 -75 -42 -20 -21 -112 -105 -206 -186
-179 -157 -202 -180 -185 -190 5 -3 60 43 122 103 62 60 136 128 163 153 28
24 52 46 55 49 80 80 111 100 154 100 25 0 48 5 51 10 6 10 -4 10 -79 3z"/>
<path d="M870 4363 c0 -5 9 -14 20 -21 11 -7 20 -8 20 -2 0 5 -9 14 -20 20
-11 6 -20 7 -20 3z"/>
<path d="M3937 4329 c-27 -21 -43 -39 -37 -39 7 0 35 18 62 40 28 22 44 40 37
39 -8 0 -36 -18 -62 -40z"/>
<path d="M946 4305 c4 -9 16 -21 28 -27 19 -10 19 -9 -3 16 -28 30 -33 32 -25
11z"/>
<path d="M915 4290 c10 -11 20 -20 23 -20 3 0 -3 9 -13 20 -10 11 -20 20 -23
20 -3 0 3 -9 13 -20z"/>
<path d="M3257 4303 c-2 -5 0 -21 4 -38 5 -22 7 -25 8 -8 0 12 4 28 7 37 6 16
-11 23 -19 9z"/>
<path d="M4134 4288 l-19 -23 23 19 c12 11 22 21 22 23 0 8 -8 2 -26 -19z"/>
<path d="M3822 4207 c-42 -40 -96 -88 -120 -106 -58 -45 -45 -52 15 -8 51 38
203 187 190 187 -4 0 -42 -33 -85 -73z"/>
<path d="M3825 4244 l-30 -26 33 22 c17 12 32 23 32 26 0 7 -4 5 -35 -22z"/>
<path d="M970 4235 c13 -14 26 -25 28 -25 3 0 -5 11 -18 25 -13 14 -26 25 -28
25 -3 0 5 -11 18 -25z"/>
<path d="M1040 4246 c0 -2 7 -9 15 -16 9 -7 15 -8 15 -2 0 5 -7 12 -15 16 -8
3 -15 4 -15 2z"/>
<path d="M4006 4175 c-38 -36 -67 -68 -64 -70 2 -3 35 27 73 65 88 88 81 91
-9 5z"/>
<path d="M3764 4198 l-19 -23 23 19 c12 11 22 21 22 23 0 8 -8 2 -26 -19z"/>
<path d="M1861 4184 c0 -11 3 -14 6 -6 3 7 2 16 -1 19 -3 4 -6 -2 -5 -13z"/>
<path d="M1140 4166 c0 -2 8 -10 18 -17 15 -13 16 -12 3 4 -13 16 -21 21 -21
13z"/>
<path d="M2483 4139 c43 -5 119 -5 170 0 83 7 75 8 -78 7 -141 0 -157 -1 -92
-7z"/>
<path d="M3679 4129 c-23 -19 -23 -20 -2 -10 12 6 25 16 28 21 10 16 -1 12
-26 -11z"/>
<path d="M2328 4110 c-101 -17 -295 -98 -372 -156 -29 -21 -9 -31 22 -11 131
84 308 146 441 155 85 5 91 7 51 13 -55 9 -82 9 -142 -1z"/>
<path d="M2696 4111 c-5 -7 6 -11 34 -11 114 0 292 -58 408 -133 40 -26 76
-47 79 -47 18 0 -49 56 -102 85 -127 71 -398 140 -419 106z"/>
<path d="M2560 4089 c0 -5 5 -7 10 -4 6 3 10 8 10 11 0 2 -4 4 -10 4 -5 0 -10
-5 -10 -11z"/>
<path d="M3886 4051 c-23 -24 -25 -29 -11 -35 9 -3 13 -2 10 4 -10 17 6 34 17
19 8 -11 9 -10 5 2 -3 9 0 22 6 28 6 6 9 11 6 11 -3 0 -18 -13 -33 -29z"/>
<path d="M2220 4016 c-101 -40 -180 -75 -180 -81 0 -5 61 18 175 66 38 16 76
29 85 29 8 0 22 5 30 10 33 22 -27 8 -110 -24z"/>
<path d="M1621 3960 c46 -33 98 -69 114 -81 17 -11 10 -2 -15 20 -50 46 -158
121 -173 121 -6 0 27 -27 74 -60z"/>
<path d="M3583 3978 c-21 -18 -60 -54 -88 -80 -76 -70 -104 -90 -117 -82 -7 4
-6 -1 3 -11 16 -16 21 -14 90 43 88 72 178 162 161 162 -6 0 -28 -15 -49 -32z"/>
<path d="M2308 3993 c6 -2 18 -2 25 0 6 3 1 5 -13 5 -14 0 -19 -2 -12 -5z"/>
<path d="M2758 3993 c6 -2 18 -2 25 0 6 3 1 5 -13 5 -14 0 -19 -2 -12 -5z"/>
<path d="M1436 3948 c-21 -24 -51 -67 -68 -96 l-30 -53 23 -26 c13 -14 62 -57
109 -96 47 -40 87 -75 88 -79 2 -5 7 -8 12 -8 10 0 160 172 160 183 0 4 -21
21 -46 36 -25 16 -73 55 -107 87 -117 108 -99 101 -141 52z m82 -32 c20 -13
49 -36 63 -52 31 -36 101 -94 112 -94 5 0 5 -5 2 -10 -4 -6 -11 -8 -16 -5 -5
4 -9 0 -9 -7 0 -8 -20 -35 -45 -60 -24 -25 -42 -47 -40 -50 2 -2 -5 -4 -15 -4
-23 0 -25 9 -9 37 5 11 15 16 21 13 7 -4 8 -3 4 4 -4 7 4 23 18 37 15 14 26
30 26 36 0 6 5 7 12 3 7 -5 8 -3 3 6 -6 9 -25 -6 -69 -54 l-61 -66 -78 71
c-42 39 -77 75 -77 80 0 21 24 5 82 -56 65 -68 79 -78 71 -45 -3 11 -9 20 -13
20 -4 0 -22 13 -39 29 -17 16 -37 31 -43 33 -12 4 -19 48 -7 48 3 0 9 10 12
23 2 12 8 31 11 42 4 11 -4 -1 -19 -27 -14 -27 -30 -48 -36 -48 -11 0 28 75
48 91 9 8 31 -9 86 -65 41 -42 79 -76 85 -76 5 0 -23 34 -65 75 -41 41 -71 79
-68 85 8 14 10 13 53 -14z"/>
<path d="M2181 3960 c-41 -16 -79 -34 -85 -40 -6 -6 7 -3 29 6 22 9 69 28 105
40 36 13 56 23 45 23 -11 0 -53 -13 -94 -29z"/>
<path d="M3604 3932 c-32 -32 -86 -80 -118 -108 l-60 -50 74 -87 c41 -48 76
-87 80 -87 3 0 51 43 107 95 100 94 116 104 128 85 7 -11 -163 -183 -264 -267
-34 -29 -59 -53 -53 -53 12 0 138 109 250 217 68 65 91 94 86 106 -3 9 -16 17
-28 17 -15 1 -28 14 -44 47 -27 54 -23 67 7 21 11 -18 21 -30 21 -25 0 12 -48
85 -62 93 -10 5 -11 4 0 -7 17 -18 15 -34 -3 -19 -8 7 -15 18 -15 24 0 6 -11
21 -23 33 l-23 21 -60 -56z m76 9 c0 -9 -82 -88 -118 -113 l-24 -16 51 -67
c28 -36 51 -70 51 -76 0 -22 -20 -5 -58 49 -23 32 -48 64 -56 72 -18 14 -21
40 -6 40 10 0 33 18 104 82 41 38 56 45 56 29z m54 -75 c14 -30 26 -59 26 -63
0 -5 -24 -33 -54 -62 -43 -43 -55 -50 -62 -38 -5 8 -26 33 -46 55 l-37 40 66
61 c36 34 69 61 74 61 4 0 19 -24 33 -54z m-254 -86 c-13 -8 -12 -10 3 -10 10
0 20 -6 23 -14 3 -8 12 -12 19 -10 15 6 65 -71 65 -99 0 -26 -10 -21 -48 24
-72 84 -89 119 -58 119 6 0 4 -5 -4 -10z"/>
<path d="M2299 3955 c-61 -15 -165 -61 -176 -78 -4 -7 0 -8 13 -3 103 43 190
68 254 73 50 4 68 9 55 14 -30 11 -83 9 -146 -6z"/>
<path d="M2690 3963 c0 -5 19 -9 43 -10 71 -5 178 -25 236 -44 30 -11 57 -19
60 -19 12 1 -48 30 -90 44 -89 29 -249 48 -249 29z"/>
<path d="M2803 3897 c79 -15 106 -24 103 -34 -3 -7 -1 -13 4 -13 13 0 20 14
11 28 -9 14 -139 42 -189 41 -24 -1 1 -9 71 -22z"/>
<path d="M479 3838 c84 -103 116 -130 146 -130 14 0 29 2 32 6 8 8 -55 98
-106 154 -36 38 -45 42 -86 42 l-46 0 60 -72z m76 -5 c28 -32 55 -67 62 -80
12 -23 11 -23 -18 -8 -16 9 -29 22 -29 30 0 8 -7 15 -15 15 -8 0 -15 5 -15 11
0 6 -14 24 -30 41 -27 26 -32 48 -12 48 4 0 30 -26 57 -57z"/>
<path d="M2250 3882 c-84 -30 -185 -81 -177 -88 3 -3 20 2 37 11 57 30 114 46
170 50 30 2 66 8 80 14 l25 10 -25 0 c-14 0 -43 -4 -65 -9 -35 -8 -38 -7 -21
5 10 8 44 17 75 20 77 9 85 13 26 14 -31 0 -79 -10 -125 -27z"/>
<path d="M4589 3877 c-13 -17 -45 -56 -71 -86 -38 -42 -46 -56 -37 -67 6 -8
16 -11 23 -7 6 4 17 8 24 9 8 2 19 9 25 17 7 8 37 43 67 77 30 34 55 67 55 72
0 6 -14 12 -32 14 -27 3 -36 -2 -54 -29z m45 -11 c-7 -18 -20 -21 -29 -6 -3 6
1 10 9 10 9 0 16 5 16 12 0 6 2 9 5 6 3 -3 3 -13 -1 -22z m-24 -31 c0 -2 -7
-8 -15 -15 -12 -10 -15 -10 -15 2 0 8 7 15 15 15 8 0 15 -1 15 -2z"/>
<path d="M2448 3893 c6 -2 18 -2 25 0 6 3 1 5 -13 5 -14 0 -19 -2 -12 -5z"/>
<path d="M2710 3863 c36 -8 82 -23 103 -34 20 -11 43 -19 49 -17 6 2 -4 10
-23 18 -19 8 -36 17 -40 22 -6 9 -102 29 -133 27 -11 -1 8 -8 44 -16z"/>
<path d="M2803 3873 c9 -2 23 -2 30 0 6 3 -1 5 -18 5 -16 0 -22 -2 -12 -5z"/>
<path d="M3067 3869 c7 -7 15 -10 18 -7 3 3 -2 9 -12 12 -14 6 -15 5 -6 -5z"/>
<path d="M1815 3860 c-3 -5 1 -10 9 -10 9 0 16 5 16 10 0 6 -4 10 -9 10 -6 0
-13 -4 -16 -10z"/>
<path d="M2378 3855 c-54 -14 -106 -44 -134 -77 -17 -19 -15 -19 16 4 55 40
93 56 151 64 30 4 63 10 74 15 34 13 -54 9 -107 -6z"/>
<path d="M2610 3861 c0 -5 17 -20 38 -32 51 -33 60 -35 39 -12 -9 11 -14 23
-10 28 5 4 2 5 -5 1 -7 -4 -24 0 -37 8 -14 9 -25 12 -25 7z"/>
<path d="M2858 3863 c7 -3 16 -2 19 1 4 3 -2 6 -13 5 -11 0 -14 -3 -6 -6z"/>
<path d="M3302 3859 c2 -7 10 -15 17 -17 8 -3 12 1 9 9 -2 7 -10 15 -17 17 -8
3 -12 -1 -9 -9z"/>
<path d="M4145 3859 c-10 -15 1 -23 20 -15 9 3 13 10 10 16 -8 13 -22 13 -30
-1z"/>
<path d="M4495 3850 c3 -5 12 -7 20 -3 21 7 19 13 -6 13 -11 0 -18 -4 -14 -10z"/>
<path d="M1960 3840 c-9 -6 -10 -10 -3 -10 6 0 15 5 18 10 8 12 4 12 -15 0z"/>
<path d="M2730 3830 c0 -5 5 -10 11 -10 5 0 7 5 4 10 -3 6 -8 10 -11 10 -2 0
-4 -4 -4 -10z"/>
<path d="M3340 3830 c0 -5 5 -10 10 -10 6 0 10 5 10 10 0 6 -4 10 -10 10 -5 0
-10 -4 -10 -10z"/>
<path d="M2496 3813 c-6 -14 -5 -15 5 -6 7 7 10 15 7 18 -3 3 -9 -2 -12 -12z"/>
<path d="M3155 3820 c3 -5 8 -10 11 -10 2 0 4 5 4 10 0 6 -5 10 -11 10 -5 0
-7 -4 -4 -10z"/>
<path d="M1062 3789 c-18 -33 -63 -104 -145 -228 -26 -40 -46 -76 -43 -79 3
-3 7 -3 9 -1 35 52 97 150 97 154 0 4 17 32 39 63 43 64 74 122 66 122 -3 0
-14 -14 -23 -31z"/>
<path d="M1767 3813 c-12 -11 -8 -23 7 -23 8 0 16 7 20 15 5 15 -14 21 -27 8z"/>
<path d="M2558 3795 c2 -14 6 -25 8 -25 2 0 4 11 4 25 0 14 -4 25 -9 25 -4 0
-6 -11 -3 -25z"/>
<path d="M4047 3813 c-4 -3 -7 -11 -7 -17 0 -6 5 -5 12 2 6 6 9 14 7 17 -3 3
-9 2 -12 -2z"/>
<path d="M1306 3798 c-4 -9 -3 -24 2 -34 12 -22 21 -5 12 26 -6 21 -8 22 -14
8z"/>
<path d="M2805 3789 c11 -13 25 -28 32 -34 22 -18 55 -119 70 -210 18 -116 18
-113 27 -122 5 -4 6 10 2 32 -4 22 -9 51 -11 65 -21 144 -67 255 -117 281
l-23 12 20 -24z"/>
<path d="M2894 3796 c11 -9 24 -16 30 -16 12 0 7 5 -24 19 -24 11 -24 11 -6
-3z"/>
<path d="M2014 3774 c-18 -14 -18 -15 6 -8 31 8 50 24 29 24 -8 0 -24 -7 -35
-16z"/>
<path d="M2354 3768 c-36 -41 -74 -107 -65 -112 5 -3 14 8 21 25 7 16 26 48
41 69 32 44 33 52 3 18z"/>
<path d="M2686 3777 c3 -10 9 -15 12 -12 3 3 0 11 -7 18 -10 9 -11 8 -5 -6z"/>
<path d="M2745 3748 c12 -24 30 -67 40 -96 9 -29 19 -52 21 -49 8 8 -28 111
-52 149 -32 51 -38 48 -9 -4z"/>
<path d="M1938 3746 c-28 -21 -21 -28 12 -11 17 9 30 18 30 20 0 10 -25 4 -42
-9z"/>
<path d="M2542 3740 c0 -14 2 -19 5 -12 2 6 2 18 0 25 -3 6 -5 1 -5 -13z"/>
<path d="M2015 3736 c-62 -28 -152 -96 -220 -167 -54 -57 -84 -102 -132 -194
-103 -201 -140 -305 -145 -407 -3 -49 -1 -88 3 -88 4 0 14 31 23 70 8 38 29
96 45 128 28 56 29 60 13 77 -15 15 -15 17 -1 12 12 -4 25 19 59 97 23 55 51
116 62 134 10 19 15 38 12 44 -4 7 -2 8 4 4 7 -4 12 -2 12 4 0 6 23 35 51 65
28 30 48 59 44 64 -3 6 0 9 8 6 14 -6 207 139 207 156 0 12 -9 11 -45 -5z
m-185 -169 c0 -2 -9 -12 -20 -22 -24 -21 -27 -14 -4 9 15 15 24 20 24 13z
m-189 -300 c-10 -9 -11 -8 -5 6 3 10 9 15 12 12 3 -3 0 -11 -7 -18z m-41 -144
c-1 -13 -29 -59 -30 -48 0 21 13 55 21 55 5 0 9 -3 9 -7z"/>
<path d="M2172 3688 c-24 -33 -42 -64 -40 -70 4 -10 45 47 57 77 2 6 10 18 19
28 8 9 13 19 11 21 -2 2 -23 -23 -47 -56z"/>
<path d="M2236 3715 c-15 -20 -36 -56 -47 -80 -21 -46 -36 -61 -24 -24 5 15 4
19 -5 14 -7 -4 -9 -17 -6 -31 4 -13 -1 -40 -10 -61 -9 -21 -19 -49 -21 -63 -2
-14 -6 -32 -10 -40 -8 -19 -8 -22 -22 -94 -14 -75 -13 -151 2 -193 10 -28 12
-17 12 85 1 166 43 312 137 475 33 56 30 60 -6 12z"/>
<path d="M2457 3738 c-57 -134 -77 -185 -77 -198 0 -8 6 -3 14 12 19 37 76
191 72 195 -2 2 -6 -2 -9 -9z"/>
<path d="M3093 3734 c-3 -9 3 -21 17 -31 62 -44 170 -136 171 -146 0 -7 4 -4
8 6 5 15 21 -1 80 -84 77 -107 101 -154 144 -279 14 -41 38 -102 53 -135 15
-35 29 -86 32 -122 2 -35 9 -63 13 -63 16 0 10 102 -12 205 -25 118 -128 348
-153 339 -7 -3 -16 3 -20 13 -3 10 -9 24 -12 32 -4 9 -2 11 5 7 7 -5 9 -1 5 9
-5 12 -9 13 -20 4 -11 -9 -14 -8 -14 5 0 34 -245 256 -283 256 -4 0 -10 -7
-14 -16z m454 -546 c-3 -8 -6 -5 -6 6 -1 11 2 17 5 13 3 -3 4 -12 1 -19z m23
-38 c0 -5 -5 -10 -11 -10 -5 0 -7 5 -4 10 3 6 8 10 11 10 2 0 4 -4 4 -10z"/>
<path d="M1330 3732 c0 -11 189 -186 195 -180 3 3 -40 46 -95 97 -55 51 -100
88 -100 83z"/>
<path d="M1885 3710 c-3 -5 -2 -10 4 -10 5 0 13 5 16 10 3 6 2 10 -4 10 -5 0
-13 -4 -16 -10z"/>
<path d="M2671 3704 c0 -11 3 -14 6 -6 3 7 2 16 -1 19 -3 4 -6 -2 -5 -13z"/>
<path d="M2551 3705 c0 -5 6 -39 15 -75 8 -36 16 -77 17 -92 2 -15 6 -31 10
-34 15 -15 -16 165 -34 196 -5 8 -8 11 -8 5z"/>
<path d="M2922 3688 c8 -13 26 -56 42 -95 15 -40 31 -75 36 -78 10 -6 -30 105
-56 157 -11 21 -23 38 -28 38 -4 0 -2 -10 6 -22z"/>
<path d="M3395 3701 c-3 -5 -1 -12 5 -16 5 -3 10 1 10 9 0 18 -6 21 -15 7z"/>
<path d="M2327 3613 c-19 -43 -38 -87 -40 -98 -3 -11 -9 -31 -12 -44 -5 -15
-3 -21 3 -17 5 3 13 23 17 43 4 21 12 47 18 58 6 11 10 23 9 28 -1 4 3 7 8 7
6 0 10 7 10 15 0 9 7 30 16 46 8 17 14 33 11 35 -2 2 -20 -31 -40 -73z"/>
<path d="M2999 3629 c12 -48 17 -56 19 -35 2 15 0 35 -4 44 -4 10 -8 20 -8 24
-1 4 -6 12 -12 18 -6 6 -4 -14 5 -51z"/>
<path d="M3420 3675 c0 -9 5 -15 11 -13 6 2 11 8 11 13 0 5 -5 11 -11 13 -6 2
-11 -4 -11 -13z"/>
<path d="M1756 3665 c-3 -9 0 -15 9 -15 8 0 15 7 15 15 0 8 -4 15 -9 15 -5 0
-11 -7 -15 -15z"/>
<path d="M2101 3653 c-11 -15 -25 -33 -31 -40 -16 -20 -13 -38 5 -23 18 15 20
-1 3 -18 -6 -6 -9 -14 -6 -18 10 -9 40 56 34 72 -3 8 -2 13 3 10 8 -5 24 34
17 42 -2 1 -13 -10 -25 -25z"/>
<path d="M2606 3660 c4 -14 8 -42 8 -62 1 -20 5 -40 10 -45 5 -5 6 17 3 51 -3
32 -11 64 -18 70 -8 8 -9 5 -3 -14z"/>
<path d="M2816 3660 c4 -14 8 -42 9 -62 0 -20 4 -40 8 -45 13 -12 1 92 -12
113 -11 17 -11 16 -5 -6z"/>
<path d="M3117 3659 c7 -7 15 -10 18 -7 3 3 -2 9 -12 12 -14 6 -15 5 -6 -5z"/>
<path d="M3367 3664 c-8 -8 1 -24 14 -24 5 0 9 7 9 15 0 15 -12 20 -23 9z"/>
<path d="M2241 3642 c-6 -12 -11 -27 -11 -34 1 -7 8 0 16 15 9 16 13 31 11 34
-3 2 -10 -4 -16 -15z"/>
<path d="M2711 3646 c-1 -20 24 -115 40 -151 8 -17 9 -15 6 8 -3 15 0 30 4 33
5 3 9 13 8 22 0 14 -2 13 -9 -3 l-9 -20 -1 20 c-2 11 -2 24 -1 29 3 16 -11 46
-19 41 -5 -3 -11 5 -13 17 -3 18 -5 19 -6 4z"/>
<path d="M2676 3614 c8 -51 24 -117 29 -113 4 5 -22 139 -28 146 -4 3 -4 -12
-1 -33z"/>
<path d="M2253 3601 c-14 -24 -20 -47 -16 -57 4 -11 3 -15 -4 -11 -6 4 -14 0
-17 -8 -4 -13 -2 -14 14 -5 20 10 24 21 21 49 -2 8 3 10 11 5 7 -4 10 -4 6 1
-4 4 -1 17 7 29 16 22 19 36 8 36 -5 0 -18 -18 -30 -39z"/>
<path d="M2022 3600 c-26 -35 -30 -59 -6 -39 16 13 38 59 31 65 -2 2 -13 -10
-25 -26z"/>
<path d="M2526 3620 c-6 -19 -2 -67 6 -75 11 -11 20 54 9 72 -8 15 -10 16 -15
3z"/>
<path d="M2351 3604 c0 -11 3 -14 6 -6 3 7 2 16 -1 19 -3 4 -6 -2 -5 -13z"/>
<path d="M2787 3568 c4 -24 9 -44 13 -46 3 -1 4 -16 2 -32 -3 -19 0 -30 7 -30
14 0 9 53 -9 113 -15 49 -19 47 -13 -5z"/>
<path d="M1946 3574 c-31 -28 -30 -43 3 -22 19 11 35 37 29 44 -2 1 -16 -9
-32 -22z"/>
<path d="M2450 3564 c-13 -33 -13 -33 7 -30 10 2 17 13 17 29 2 34 -12 35 -24
1z"/>
<path d="M1713 3563 c-3 -10 -17 -33 -30 -50 -13 -18 -20 -33 -14 -33 5 0 20
17 32 38 13 20 27 43 32 50 5 7 4 12 -3 12 -6 0 -13 -8 -17 -17z"/>
<path d="M2206 3563 c-6 -14 -5 -15 5 -6 7 7 10 15 7 18 -3 3 -9 -2 -12 -12z"/>
<path d="M3370 3576 c0 -2 7 -9 15 -16 9 -7 15 -8 15 -2 0 5 -7 12 -15 16 -8
3 -15 4 -15 2z"/>
<path d="M2650 3556 c0 -9 5 -16 10 -16 6 0 10 4 10 9 0 6 -4 13 -10 16 -5 3
-10 -1 -10 -9z"/>
<path d="M1540 3540 c0 -5 4 -10 10 -10 5 0 25 -16 44 -35 20 -19 41 -35 48
-35 7 0 -5 16 -27 35 -50 44 -75 59 -75 45z"/>
<path d="M2552 3520 c0 -19 2 -27 5 -17 2 9 2 25 0 35 -3 9 -5 1 -5 -18z"/>
<path d="M2850 3530 c0 -11 4 -20 9 -20 5 0 7 9 4 20 -3 11 -7 20 -9 20 -2 0
-4 -9 -4 -20z"/>
<path d="M1845 3530 c-3 -5 -2 -10 4 -10 5 0 13 5 16 10 3 6 2 10 -4 10 -5 0
-13 -4 -16 -10z"/>
<path d="M2357 3533 c-2 -5 -7 -26 -11 -48 -5 -35 -4 -37 5 -15 17 38 21 90 6
63z"/>
<path d="M3411 3535 c-1 -14 37 -61 43 -54 3 2 -6 18 -19 34 -13 17 -24 26
-24 20z"/>
<path d="M1972 3518 c-7 -7 -12 -16 -12 -21 0 -5 -9 -22 -21 -38 -11 -16 -16
-29 -10 -29 6 0 22 23 36 50 26 52 27 58 7 38z"/>
<path d="M1474 3397 c-29 -67 -62 -155 -75 -195 -14 -45 -37 -89 -61 -118 -31
-38 -38 -54 -39 -93 -1 -25 -2 -61 -4 -79 -3 -31 8 -51 19 -34 3 4 6 40 7 80
1 39 6 69 11 66 4 -3 6 -33 4 -67 -7 -87 9 -106 18 -21 4 42 3 71 -4 78 -17
17 -12 44 11 60 27 19 60 67 53 78 -3 5 0 7 7 6 8 -2 26 42 50 117 20 66 46
144 58 173 24 61 26 72 9 72 -7 0 -36 -55 -64 -123z m-47 -209 c-3 -8 -6 -5
-6 6 -1 11 2 17 5 13 3 -3 4 -12 1 -19z"/>
<path d="M2420 3510 c0 -5 5 -10 11 -10 5 0 7 5 4 10 -3 6 -8 10 -11 10 -2 0
-4 -4 -4 -10z"/>
<path d="M2667 3513 c-4 -3 -7 -13 -7 -22 1 -13 3 -13 11 2 11 19 8 33 -4 20z"/>
<path d="M3590 3510 c0 -6 11 -32 24 -58 33 -65 66 -208 66 -284 0 -35 5 -70
10 -78 7 -11 10 6 11 55 0 48 3 64 9 50 5 -11 9 -34 9 -50 1 -18 13 -45 30
-66 25 -30 30 -46 36 -122 4 -48 12 -87 18 -87 6 0 8 30 4 85 -4 63 -11 93
-27 114 -11 16 -20 38 -20 48 0 11 -3 23 -7 27 -4 4 -9 19 -10 34 -14 105
-109 342 -138 342 -8 0 -15 -5 -15 -10z m114 -250 c5 -24 4 -30 -3 -20 -5 8
-12 33 -15 55 -8 48 8 19 18 -35z m43 -142 c-3 -8 -6 -5 -6 6 -1 11 2 17 5 13
3 -3 4 -12 1 -19z"/>
<path d="M3110 3505 c0 -5 5 -17 10 -25 5 -8 10 -10 10 -5 0 6 -5 17 -10 25
-5 8 -10 11 -10 5z"/>
<path d="M2215 3490 c3 -5 8 -10 11 -10 2 0 4 5 4 10 0 6 -5 10 -11 10 -5 0
-7 -4 -4 -10z"/>
<path d="M3001 3488 c0 -7 4 -22 9 -33 8 -18 9 -17 9 7 1 15 -3 30 -9 33 -5 3
-10 0 -9 -7z"/>
<path d="M2186 3455 c-16 -24 -16 -27 -3 -16 9 7 17 9 17 3 0 -5 -7 -15 -15
-22 -8 -7 -15 -17 -15 -23 0 -5 9 2 21 17 11 14 19 36 17 48 -3 21 -4 21 -22
-7z"/>
<path d="M2732 3460 c0 -14 2 -19 5 -12 2 6 2 18 0 25 -3 6 -5 1 -5 -13z"/>
<path d="M2867 3460 c-3 -11 -1 -23 4 -26 5 -3 9 6 9 20 0 31 -6 34 -13 6z"/>
<path d="M3180 3470 c0 -5 5 -10 10 -10 6 0 10 5 10 10 0 6 -4 10 -10 10 -5 0
-10 -4 -10 -10z"/>
<path d="M3535 3460 c3 -5 8 -10 11 -10 2 0 4 5 4 10 0 6 -5 10 -11 10 -5 0
-7 -4 -4 -10z"/>
<path d="M606 3438 c-144 -230 -188 -301 -193 -316 -14 -35 22 12 81 108 32
52 78 125 102 163 24 37 40 67 34 67 -5 0 -16 -10 -24 -22z"/>
<path d="M775 3411 c66 -22 165 -53 220 -69 159 -48 358 -110 378 -117 9 -4
17 -3 17 2 0 9 -223 83 -350 117 -30 8 -118 34 -195 57 -183 54 -223 60 -70
10z"/>
<path d="M1985 3423 l-17 -28 23 22 c12 12 20 25 17 28 -3 3 -13 -7 -23 -22z"/>
<path d="M2282 3415 c0 -16 2 -22 5 -12 2 9 2 23 0 30 -3 6 -5 -1 -5 -18z"/>
<path d="M3220 3419 c0 -5 5 -7 10 -4 6 3 10 8 10 11 0 2 -4 4 -10 4 -5 0 -10
-5 -10 -11z"/>
<path d="M3564 3375 c4 -16 23 -66 42 -109 19 -44 34 -85 34 -92 0 -7 5 -16
12 -20 8 -5 9 5 5 36 -3 24 -10 46 -16 49 -5 4 -23 39 -39 79 -31 78 -49 105
-38 57z"/>
<path d="M4510 3395 c0 -12 33 -69 91 -157 32 -49 59 -87 59 -82 0 9 -141 244
-146 244 -2 0 -4 -2 -4 -5z"/>
<path d="M3022 3355 c0 -16 3 -52 8 -80 7 -49 7 -49 8 -10 1 22 -3 58 -7 80
-8 34 -9 36 -9 10z"/>
<path d="M1533 3318 c-18 -29 -42 -75 -53 -103 -12 -27 -28 -63 -35 -80 -22
-51 -27 -75 -16 -75 6 0 11 6 11 13 0 6 28 68 63 137 71 141 80 160 69 160 -4
0 -22 -24 -39 -52z"/>
<path d="M2143 3358 c3 -10 2 -20 -2 -23 -13 -8 -22 -146 -12 -185 8 -30 9
-22 11 50 1 47 2 94 1 105 -2 17 0 17 8 5 8 -11 10 -7 7 18 -2 18 -7 36 -11
40 -5 4 -5 -1 -2 -10z"/>
<path d="M1912 3325 c-7 -14 -11 -52 -11 -83 l2 -57 7 50 c4 28 11 65 15 83 9
38 3 42 -13 7z"/>
<path d="M2983 3295 c0 -33 2 -45 4 -27 2 18 2 45 0 60 -2 15 -4 0 -4 -33z"/>
<path d="M2772 3310 c0 -19 2 -27 5 -17 2 9 2 25 0 35 -3 9 -5 1 -5 -18z"/>
<path d="M3620 3330 c0 -8 5 -22 10 -30 9 -13 10 -13 10 0 0 8 -5 22 -10 30
-9 13 -10 13 -10 0z"/>
<path d="M1953 3295 c0 -22 2 -30 4 -17 2 12 2 30 0 40 -3 9 -5 -1 -4 -23z"/>
<path d="M2942 3300 c0 -14 2 -19 5 -12 2 6 2 18 0 25 -3 6 -5 1 -5 -13z"/>
<path d="M3318 3304 c-39 -21 -35 -28 5 -8 37 19 44 24 31 24 -5 -1 -21 -8
-36 -16z"/>
<path d="M1847 3253 c-12 -43 -18 -113 -9 -113 5 0 12 -14 16 -32 10 -49 16
-27 8 28 -4 27 -5 68 -2 92 6 41 -4 59 -13 25z"/>
<path d="M2785 3248 c4 -13 11 -27 16 -33 5 -5 4 5 -2 23 -12 36 -24 44 -14
10z"/>
<path d="M1545 3224 c-9 -21 -14 -45 -12 -54 1 -8 11 7 20 34 20 59 15 74 -8
20z"/>
<path d="M2312 3230 c0 -14 2 -19 5 -12 2 6 2 18 0 25 -3 6 -5 1 -5 -13z"/>
<path d="M2271 3214 c0 -11 3 -14 6 -6 3 7 2 16 -1 19 -3 4 -6 -2 -5 -13z"/>
<path d="M2949 3223 c-2 -9 -6 -67 -12 -151 -2 -29 0 -49 4 -45 9 9 23 203 15
203 -3 0 -7 -3 -7 -7z"/>
<path d="M2982 3200 c0 -14 2 -19 5 -12 2 6 2 18 0 25 -3 6 -5 1 -5 -13z"/>
<path d="M3016 3198 c-7 -29 -8 -73 -1 -66 7 7 17 88 12 88 -3 0 -7 -10 -11
-22z"/>
<path d="M2847 3193 c7 -20 33 -60 33 -52 0 9 -31 69 -35 69 -3 0 -2 -8 2 -17z"/>
<path d="M1942 3150 c0 -14 2 -19 5 -12 2 6 2 18 0 25 -3 6 -5 1 -5 -13z"/>
<path d="M3301 3154 c0 -11 3 -14 6 -6 3 7 2 16 -1 19 -3 4 -6 -2 -5 -13z"/>
<path d="M2826 3147 c3 -10 9 -15 12 -12 3 3 0 11 -7 18 -10 9 -11 8 -5 -6z"/>
<path d="M4691 3114 c0 -11 3 -14 6 -6 3 7 2 16 -1 19 -3 4 -6 -2 -5 -13z"/>
<path d="M2896 3105 c-3 -8 -1 -15 4 -15 6 0 10 7 10 15 0 8 -2 15 -4 15 -2 0
-6 -7 -10 -15z"/>
<path d="M2996 3086 c-4 -21 -5 -40 -2 -43 7 -8 18 42 14 64 -3 11 -7 3 -12
-21z"/>
<path d="M3780 3095 c8 -11 22 -28 32 -38 17 -17 24 -80 19 -154 -1 -11 3 -24
8 -28 8 -4 11 23 11 83 0 94 -1 96 -65 142 -19 14 -19 14 -5 -5z"/>
<path d="M1871 3054 c0 -11 3 -14 6 -6 3 7 2 16 -1 19 -3 4 -6 -2 -5 -13z"/>
<path d="M1921 3060 c0 -8 4 -24 9 -35 5 -13 9 -14 9 -5 0 8 -4 24 -9 35 -5
13 -9 14 -9 5z"/>
<path d="M2911 3054 c0 -11 3 -14 6 -6 3 7 2 16 -1 19 -3 4 -6 -2 -5 -13z"/>
<path d="M1721 3055 c0 -5 8 -38 17 -73 19 -68 35 -76 20 -10 -8 40 -37 103
-37 83z"/>
<path d="M2875 3050 c3 -5 8 -10 11 -10 2 0 4 5 4 10 0 6 -5 10 -11 10 -5 0
-7 -4 -4 -10z"/>
<path d="M3436 3020 c-14 -22 -26 -52 -25 -67 1 -28 1 -28 9 3 4 18 17 46 30
63 12 18 20 34 18 37 -3 2 -17 -14 -32 -36z"/>
<path d="M3381 2994 c0 -11 3 -14 6 -6 3 7 2 16 -1 19 -3 4 -6 -2 -5 -13z"/>
<path d="M618 2920 c15 -21 31 -39 35 -40 5 0 -6 18 -23 40 -41 51 -48 52 -12
0z"/>
<path d="M1796 2945 c-3 -8 -1 -15 4 -15 6 0 10 7 10 15 0 8 -2 15 -4 15 -2 0
-6 -7 -10 -15z"/>
<path d="M3671 2908 c-1 -31 4 -60 9 -63 12 -8 12 71 0 100 -6 14 -9 4 -9 -37z"/>
<path d="M1456 2939 c-2 -8 -8 -32 -12 -54 -5 -24 -15 -40 -23 -40 -8 0 -16
-6 -18 -12 -3 -7 2 -13 11 -13 9 0 16 5 16 10 0 6 6 10 14 10 9 0 16 17 21 51
7 47 1 80 -9 48z"/>
<path d="M3372 2920 c0 -14 2 -19 5 -12 2 6 2 18 0 25 -3 6 -5 1 -5 -13z"/>
<path d="M1802 2900 c0 -14 2 -19 5 -12 2 6 2 18 0 25 -3 6 -5 1 -5 -13z"/>
<path d="M3402 2895 c0 -16 2 -22 5 -12 2 9 2 23 0 30 -3 6 -5 -1 -5 -18z"/>
<path d="M3436 2865 c-9 -26 -7 -32 5 -12 6 10 9 21 6 23 -2 3 -7 -2 -11 -11z"/>
<path d="M722 2790 c61 -82 138 -170 122 -140 -9 17 -115 147 -157 194 -16 17
0 -7 35 -54z"/>
<path d="M790 2861 c0 -8 79 -11 240 -11 l240 0 0 -28 c0 -16 3 -70 6 -120 l7
-92 -319 0 c-558 0 -964 -11 -964 -27 0 -10 21 -13 83 -14 45 0 93 -2 107 -5
14 -2 259 -6 545 -9 286 -3 541 -7 568 -9 l47 -3 0 156 0 157 -42 2 c-175 10
-518 12 -518 3z m540 -165 l0 -134 -122 4 c-68 2 -267 5 -443 5 -210 1 -299 4
-260 10 33 4 215 8 405 9 190 1 355 4 368 7 22 5 23 9 22 112 -1 58 -1 109 -1
114 1 4 8 7 16 7 13 0 15 -22 15 -134z"/>
<path d="M1552 2738 c2 -73 1 -115 -3 -93 -4 22 -9 79 -10 128 -1 48 -6 87
-11 87 -13 0 -9 -159 6 -230 90 -420 98 -450 118 -450 11 0 10 2 -6 36 -40 81
-93 472 -80 593 5 46 3 61 -6 61 -10 0 -12 -30 -8 -132z"/>
<path d="M3396 2838 c-3 -13 -8 -66 -10 -118 -3 -52 -3 -79 0 -60 2 19 9 71
14 114 10 79 8 107 -4 64z"/>
<path d="M3587 2718 c-5 -131 -34 -307 -67 -414 -6 -17 -10 -37 -9 -45 0 -8 5
1 10 20 6 18 13 31 16 27 3 -3 -2 -31 -12 -62 -13 -41 -20 -52 -27 -43 -8 11
-9 11 -5 -1 2 -8 10 -15 17 -15 26 0 82 271 100 480 13 163 13 195 -3 195 -11
0 -15 -33 -20 -142z m-40 -390 c-3 -8 -6 -5 -6 6 -1 11 2 17 5 13 3 -3 4 -12
1 -19z"/>
<path d="M3792 2675 c-1 -99 -5 -228 -8 -287 -5 -73 -3 -108 4 -108 19 0 28
122 31 408 1 114 4 142 15 142 9 0 14 -10 13 -27 -1 -16 0 -67 1 -115 l2 -88
203 0 c335 0 694 -12 666 -22 -14 -6 -197 -8 -429 -5 -223 2 -324 1 -225 -2
l180 -7 -205 -3 c-136 -3 -186 -6 -150 -11 30 -3 228 -6 440 -5 371 2 440 7
440 34 0 27 -40 30 -464 33 l-438 3 3 70 c2 39 2 93 1 120 l-2 50 -38 0 -39 1
-1 -181z"/>
<path d="M3710 2835 c0 -8 5 -15 10 -15 6 0 10 7 10 15 0 8 -4 15 -10 15 -5 0
-10 -7 -10 -15z"/>
<path d="M1768 2773 c7 -66 14 -69 11 -5 -2 28 -6 52 -10 52 -3 0 -4 -21 -1
-47z"/>
<path d="M3130 2814 c-30 -5 -272 -81 -317 -101 -17 -7 -35 -13 -40 -13 -4 0
-17 -8 -28 -16 -19 -15 -18 -16 15 -9 19 4 109 32 200 62 153 52 170 55 232
50 38 -3 68 -2 68 3 0 7 -96 34 -103 29 -1 -1 -13 -3 -27 -5z"/>
<path d="M3935 2810 c77 -11 423 -12 406 -1 -9 5 -112 9 -235 9 -135 0 -202
-3 -171 -8z"/>
<path d="M1923 2796 c-54 -19 -46 -23 34 -18 69 3 88 0 163 -28 103 -38 261
-90 275 -90 67 -1 -317 138 -395 144 -25 1 -60 -2 -77 -8z"/>
<path d="M3649 2748 c-1 -35 -3 -78 -5 -95 -1 -18 2 -33 7 -33 5 0 10 33 10
73 1 39 3 82 4 95 1 12 -2 22 -6 22 -5 0 -10 -28 -10 -62z"/>
<path d="M3696 2778 c-9 -58 -12 -341 -4 -317 12 31 28 190 28 277 0 73 -15
98 -24 40z"/>
<path d="M1429 2793 c-7 -44 22 -311 41 -383 8 -32 9 -31 5 15 -2 28 -7 93
-10 145 -10 168 -17 230 -26 230 -5 0 -10 -3 -10 -7z"/>
<path d="M1752 2755 c0 -16 2 -22 5 -12 2 9 2 23 0 30 -3 6 -5 -1 -5 -18z"/>
<path d="M3486 2737 c-10 -27 -16 -51 -13 -54 9 -9 38 57 35 80 -2 17 -8 10
-22 -26z"/>
<path d="M1650 2763 c0 -20 26 -73 38 -78 10 -4 12 0 7 12 -4 10 -12 30 -17
46 -9 24 -28 38 -28 20z"/>
<path d="M1925 2730 c17 -5 51 -14 78 -21 26 -6 47 -15 47 -18 0 -4 10 -7 21
-8 12 -1 27 -7 32 -12 14 -14 -37 -15 -62 -1 -13 6 -24 5 -35 -3 -15 -11 -13
-13 16 -13 18 0 47 -4 63 -8 17 -4 44 -9 60 -12 43 -8 128 -45 142 -62 6 -8
16 -11 22 -7 6 3 11 -1 11 -10 0 -9 7 -23 15 -31 8 -9 15 -11 15 -6 0 5 -3 12
-7 16 -5 4 -8 11 -8 15 0 28 -55 66 -157 110 -151 65 -201 81 -246 80 l-37 -1
30 -8z"/>
<path d="M1632 2705 c0 -16 2 -22 5 -12 2 9 2 23 0 30 -3 6 -5 -1 -5 -18z"/>
<path d="M3090 2716 c-87 -25 -243 -95 -265 -118 -13 -14 -26 -34 -29 -46 -4
-12 -13 -22 -19 -22 -12 0 -40 -50 -33 -57 2 -2 21 19 42 47 47 62 133 108
217 117 31 3 57 10 57 14 0 5 -7 6 -15 3 -27 -11 -16 4 20 26 31 19 59 27 115
32 8 0 24 -3 35 -7 l20 -8 -20 16 c-24 19 -64 20 -125 3z"/>
<path d="M1483 2675 c0 -22 2 -30 4 -17 2 12 2 30 0 40 -3 9 -5 -1 -4 -23z"/>
<path d="M1781 2668 c-1 -20 4 -40 9 -43 12 -7 12 19 0 55 -7 22 -8 21 -9 -12z"/>
<path d="M1711 2663 c-1 -12 4 -25 9 -28 12 -7 12 2 0 30 -8 19 -9 19 -9 -2z"/>
<path d="M1753 2645 c0 -22 2 -30 4 -17 2 12 2 30 0 40 -3 9 -5 -1 -4 -23z"/>
<path d="M3085 2660 c-3 -5 1 -10 10 -10 9 0 13 5 10 10 -3 6 -8 10 -10 10 -2
0 -7 -4 -10 -10z"/>
<path d="M1998 2633 c7 -3 16 -2 19 1 4 3 -2 6 -13 5 -11 0 -14 -3 -6 -6z"/>
<path d="M1840 2619 c0 -12 25 -22 41 -17 6 2 0 9 -15 16 -16 7 -26 8 -26 1z"/>
<path d="M1681 2590 c-2 -69 38 -166 83 -202 36 -30 42 -20 8 15 -36 37 -60
89 -78 167 -10 48 -12 51 -13 20z"/>
<path d="M3264 2605 c-17 -13 -17 -14 -2 -15 9 0 20 5 23 11 11 17 0 20 -21 4z"/>
<path d="M3330 2600 c0 -29 -1 -33 -11 -53 -6 -10 -14 -15 -19 -12 -6 4 -9
-11 -8 -34 2 -56 21 -38 38 36 7 32 15 64 17 71 3 6 0 12 -6 12 -6 0 -11 -9
-11 -20z"/>
<path d="M3369 2593 c-4 -74 -9 -107 -19 -117 -5 -5 -10 -20 -10 -32 0 -12 -7
-27 -15 -34 -8 -6 -35 -76 -60 -153 -47 -147 -132 -332 -169 -367 -62 -59
-323 -277 -390 -325 -37 -27 -50 -30 -128 -33 -103 -5 -127 6 -239 105 -37 32
-79 67 -95 78 -16 11 -62 51 -102 89 -40 37 -76 65 -80 61 -8 -8 76 -89 183
-175 44 -35 100 -82 125 -103 67 -59 113 -77 197 -77 39 0 83 4 98 10 48 18
356 270 433 355 72 78 131 199 192 390 13 39 36 103 52 144 26 66 49 211 33
211 -3 0 -6 -12 -6 -27z"/>
<path d="M3471 2611 c-6 -58 -47 -158 -77 -189 -19 -19 -34 -39 -34 -44 0 -10
51 21 67 42 20 25 55 148 50 177 -2 16 -5 22 -6 14z"/>
<path d="M3640 2575 c0 -22 4 -34 10 -30 6 3 10 17 10 30 0 13 -4 27 -10 30
-6 4 -10 -8 -10 -30z"/>
<path d="M1492 2575 c0 -16 2 -22 5 -12 2 9 2 23 0 30 -3 6 -5 -1 -5 -18z"/>
<path d="M1751 2588 c0 -7 4 -22 9 -33 7 -16 8 -14 7 12 -1 18 -5 33 -9 33 -5
0 -8 -6 -7 -12z"/>
<path d="M1800 2594 c0 -14 31 -34 54 -34 14 0 27 -6 27 -12 4 -47 19 -68 45
-68 29 0 30 5 4 32 -11 12 -20 30 -20 40 0 11 -10 20 -27 24 -16 3 -38 10 -51
15 -27 11 -32 11 -32 3z"/>
<path d="M2970 2585 c0 -9 5 -15 11 -13 6 2 11 8 11 13 0 5 -5 11 -11 13 -6 2
-11 -4 -11 -13z"/>
<path d="M3040 2580 c0 -29 -35 -60 -68 -60 -29 0 -62 26 -62 48 0 17 -7 15
-30 -8 -25 -25 -25 -30 -2 -30 9 0 30 -7 46 -15 38 -20 85 -19 109 3 11 9 17
11 12 3 -5 -8 3 -7 20 5 24 16 25 19 9 24 -25 9 -3 20 29 14 15 -2 27 0 27 6
0 5 -9 10 -20 10 -29 0 -33 1 -52 11 -15 8 -18 6 -18 -11z"/>
<path d="M1995 2579 c-10 -15 3 -25 16 -12 7 7 7 13 1 17 -6 3 -14 1 -17 -5z"/>
<path d="M2035 2580 c-12 -19 5 -31 26 -19 23 12 22 13 39 -21 12 -23 12 -24
-3 -11 -15 11 -17 11 -17 -1 0 -20 57 -35 163 -43 76 -6 87 -5 81 8 -4 12 -23
15 -87 15 -76 0 -82 1 -104 26 -13 15 -23 34 -23 42 0 16 -65 20 -75 4z"/>
<path d="M2140 2578 c0 -4 9 -8 20 -8 11 0 20 4 20 9 0 6 -9 9 -20 8 -11 -1
-20 -5 -20 -9z"/>
<path d="M3175 2580 c28 -12 47 -12 40 0 -3 6 -18 10 -33 9 -24 0 -25 -1 -7
-9z"/>
<path d="M3274 2572 c-12 -9 -27 -32 -35 -49 -8 -18 -17 -33 -21 -33 -5 0 -8
-7 -8 -15 0 -8 -4 -15 -9 -15 -5 0 -13 -9 -16 -20 -5 -15 -14 -20 -33 -18 -19
2 -29 -3 -39 -22 -15 -30 0 -40 26 -16 10 9 24 16 32 16 22 1 44 22 58 58 7
17 17 32 22 32 5 0 9 9 9 20 0 11 9 29 21 41 26 26 21 43 -7 21z"/>
<path d="M3396 2575 c-3 -9 -6 -22 -5 -28 0 -7 5 -1 10 12 5 13 8 26 5 28 -2
2 -6 -3 -10 -12z"/>
<path d="M2215 2560 c5 -16 2 -20 -15 -20 -12 0 -31 5 -43 11 -20 10 -20 10
-7 -4 8 -8 30 -17 47 -20 25 -5 35 -2 42 12 7 12 6 22 -1 29 -18 18 -30 14
-23 -8z"/>
<path d="M2932 2560 c5 -16 41 -25 64 -16 9 3 12 10 9 16 -4 7 -13 6 -26 -1
-15 -8 -24 -7 -36 3 -14 11 -15 11 -11 -2z"/>
<path d="M1520 2524 c0 -16 5 -36 10 -44 6 -10 7 -2 3 25 -7 49 -13 58 -13 19z"/>
<path d="M450 2528 c0 -4 7 -13 15 -21 12 -12 79 -15 397 -19 372 -4 442 -2
388 13 -18 5 -8 7 31 8 l57 1 2 -62 c3 -126 5 -148 16 -148 7 0 9 36 6 113 -2
61 -5 113 -6 114 -5 6 -906 7 -906 1z m753 -25 c-7 -2 -19 -2 -25 0 -7 3 -2 5
12 5 14 0 19 -2 13 -5z"/>
<path d="M2005 2529 c-13 -20 36 -58 90 -70 47 -10 154 -5 142 7 -2 3 -36 6
-74 7 -71 3 -151 33 -145 56 3 14 -5 14 -13 0z"/>
<path d="M1770 2528 c0 -3 14 -43 31 -89 17 -46 44 -129 60 -183 17 -55 47
-136 66 -180 39 -85 102 -190 110 -182 3 3 -4 18 -16 34 -34 49 -89 172 -122
278 -17 54 -41 124 -54 154 -13 30 -33 80 -45 110 -21 52 -30 69 -30 58z"/>
<path d="M3880 2521 c0 -6 6 -8 14 -5 8 3 17 1 21 -5 4 -7 -7 -11 -29 -11 -27
0 -36 -4 -37 -17 -1 -51 -18 -181 -24 -198 -6 -14 -5 -17 3 -10 13 12 30 82
38 157 l5 58 402 2 c382 3 402 4 405 21 3 14 -1 18 -15 13 -23 -6 -479 -9
-552 -2 -30 2 -64 1 -76 -4 -12 -5 -29 -4 -39 2 -14 8 -17 8 -11 -2 5 -9 3
-10 -11 -3 -26 13 -94 16 -94 4z"/>
<path d="M3158 2500 c-26 -14 -43 -17 -60 -11 -13 4 -32 5 -43 0 -11 -4 -44
-8 -72 -8 -31 -1 -53 -6 -53 -12 0 -11 76 -8 150 6 27 5 32 4 20 -5 -12 -9
-10 -10 10 -5 26 7 90 43 90 51 0 6 -1 5 -42 -16z"/>
<path d="M2362 2490 c0 -14 2 -19 5 -12 2 6 2 18 0 25 -3 6 -5 1 -5 -13z"/>
<path d="M2791 2497 c-9 -11 2 -13 59 -13 59 1 67 3 53 14 -22 16 -98 16 -112
-1z"/>
<path d="M4878 2483 c7 -3 16 -2 19 1 4 3 -2 6 -13 5 -11 0 -14 -3 -6 -6z"/>
<path d="M1280 2449 c0 -34 27 -136 38 -143 12 -7 7 76 -6 107 -7 16 -12 37
-12 48 0 10 -4 19 -10 19 -5 0 -10 -14 -10 -31z"/>
<path d="M1920 2451 c0 -12 5 -21 11 -21 5 0 7 -4 4 -10 -3 -5 -1 -10 4 -10 6
0 11 5 11 11 0 7 8 18 18 26 16 13 16 13 -3 11 -11 -1 -26 1 -32 5 -9 6 -13 2
-13 -12z"/>
<path d="M3055 2450 c3 -5 13 -10 21 -10 8 0 12 5 9 10 -3 6 -13 10 -21 10 -8
0 -12 -4 -9 -10z"/>
<path d="M4225 2450 c3 -5 11 -10 16 -10 6 0 7 5 4 10 -3 6 -11 10 -16 10 -6
0 -7 -4 -4 -10z"/>
<path d="M2778 2443 c7 -3 16 -2 19 1 4 3 -2 6 -13 5 -11 0 -14 -3 -6 -6z"/>
<path d="M3270 2434 c0 -8 5 -12 10 -9 6 3 10 10 10 16 0 5 -4 9 -10 9 -5 0
-10 -7 -10 -16z"/>
<path d="M1975 2420 c-16 -18 -16 -20 -1 -26 9 -3 16 -14 17 -23 1 -24 17 18
18 47 1 27 -10 28 -34 2z"/>
<path d="M4267 2417 c22 -34 185 -247 189 -247 7 0 -76 118 -140 198 -46 57
-68 80 -49 49z"/>
<path d="M2025 2381 l-15 -29 33 11 c43 15 42 14 24 32 -21 20 -24 19 -42 -14z"/>
<path d="M3060 2402 c0 -15 -40 -22 -69 -11 -21 8 -24 8 -14 -2 7 -7 36 -14
64 -15 42 -2 50 0 47 13 -3 18 -28 31 -28 15z"/>
<path d="M2106 2385 c-25 -19 -9 -19 24 0 14 8 19 14 10 14 -8 0 -24 -6 -34
-14z"/>
<path d="M1482 2345 c0 -11 4 -33 8 -50 7 -27 8 -27 8 -5 0 14 -4 36 -8 50 -6
20 -8 21 -8 5z"/>
<path d="M3410 2305 c0 -8 5 -15 10 -15 6 0 10 7 10 15 0 8 -4 15 -10 15 -5 0
-10 -7 -10 -15z"/>
<path d="M770 2280 c0 -6 -18 -36 -41 -66 -55 -75 -44 -79 14 -5 46 59 57 81
37 81 -5 0 -10 -5 -10 -10z"/>
<path d="M1370 2282 c0 -4 9 -13 20 -20 11 -7 20 -19 20 -27 0 -49 114 -304
167 -373 19 -26 39 -57 44 -69 10 -28 25 -29 39 -4 14 28 13 33 -8 27 -13 -5
-22 2 -32 21 -8 16 -25 41 -37 56 -13 16 -23 35 -23 43 0 8 -4 14 -10 14 -5 0
-10 5 -10 11 0 5 4 8 9 5 4 -3 -1 14 -12 39 -11 24 -25 41 -30 38 -6 -4 -8 1
-4 11 4 9 0 27 -8 39 -9 14 -11 27 -6 36 11 17 41 7 41 -13 0 -18 55 -129 89
-181 15 -22 30 -48 34 -58 4 -10 10 -16 15 -13 4 2 14 -4 21 -16 7 -11 8 -17
2 -13 -6 3 -11 2 -11 -4 0 -5 24 -30 52 -55 85 -75 73 -23 -18 74 -46 50 -105
148 -149 253 -16 37 -35 67 -43 67 -7 0 -10 -4 -7 -10 4 -6 -9 -10 -33 -10
-27 0 -39 4 -39 14 0 8 6 12 14 9 18 -7 17 -1 -14 62 -21 43 -32 55 -50 55
-13 0 -23 -3 -23 -8z"/>
<path d="M1740 2274 c0 -8 5 -12 10 -9 6 4 8 11 5 16 -9 14 -15 11 -15 -7z"/>
<path d="M3712 2251 c-27 -29 -56 -91 -43 -91 4 0 8 -7 8 -15 0 -10 -6 -14
-14 -10 -8 3 -24 5 -36 5 -22 1 -22 1 -2 16 20 15 19 16 -4 12 -19 -2 -30 -15
-45 -53 -52 -126 -139 -251 -211 -302 -16 -12 -27 -25 -23 -28 12 -13 98 -18
98 -7 0 6 -11 9 -25 7 -14 -1 -25 0 -25 3 0 4 18 24 39 47 34 34 142 212 164
268 4 10 17 17 31 17 22 0 24 -3 16 -27 -10 -34 -88 -184 -102 -198 -8 -7 -9
-6 -4 3 4 6 2 12 -4 12 -7 0 -9 -7 -6 -16 4 -10 -5 -31 -22 -52 -48 -62 -54
-79 -15 -44 55 49 181 264 245 420 10 23 22 42 28 42 5 0 10 5 10 10 0 20 -32
9 -58 -19z"/>
<path d="M2557 2233 c-10 -9 -9 -33 1 -33 4 0 8 9 9 20 2 21 0 24 -10 13z"/>
<path d="M3296 2205 c4 -8 12 -15 19 -15 6 0 20 -9 29 -19 17 -19 17 -22 1
-53 -16 -31 -64 -154 -87 -225 -13 -38 -43 -47 -33 -10 4 15 3 18 -3 8 -8 -11
-11 -11 -16 0 -3 8 -4 3 -2 -11 3 -14 8 -44 12 -67 8 -52 20 -55 29 -7 3 20
12 50 20 68 8 17 28 69 45 116 44 120 68 170 83 170 12 0 -82 60 -95 60 -4 0
-5 -7 -2 -15z"/>
<path d="M1835 2201 c-3 -5 -19 -12 -36 -16 -23 -5 -29 -11 -24 -23 4 -10 14
-39 22 -66 8 -27 41 -106 73 -175 77 -167 90 -215 90 -328 0 -81 -3 -96 -21
-114 -30 -30 -19 -32 19 -3 54 43 74 95 71 183 -2 42 3 95 10 119 7 24 11 53
9 65 -8 46 -38 -87 -38 -167 0 -45 -3 -91 -6 -103 -11 -41 -23 -24 -23 35 0
106 -14 154 -86 297 -30 60 -55 116 -55 125 0 9 -4 20 -10 26 -5 5 -16 31 -24
57 -13 44 -13 49 2 53 29 9 46 20 50 32 4 14 -14 16 -23 3z"/>
<path d="M1014 2169 c-3 -5 14 -9 37 -9 23 0 39 3 35 7 -11 11 -66 12 -72 2z"/>
<path d="M1105 2170 c-4 -6 6 -10 22 -10 22 0 25 2 13 10 -19 12 -27 12 -35 0z"/>
<path d="M955 2160 c-3 -6 1 -7 9 -4 18 7 21 14 7 14 -6 0 -13 -4 -16 -10z"/>
<path d="M1563 2155 c2 -5 31 -11 64 -13 57 -3 62 -5 68 -30 9 -36 88 -206 97
-210 5 -2 5 -8 2 -14 -4 -6 -2 -13 3 -17 14 -9 63 -113 75 -158 13 -46 24
-167 20 -208 -2 -24 -13 -37 -50 -60 -46 -30 -49 -30 -223 -35 l-176 -5 -59
-36 c-58 -35 -88 -39 -193 -29 -3 0 10 16 29 35 19 19 30 35 24 35 -5 0 -24
-16 -41 -35 l-32 -35 -103 -1 c-92 -1 -97 -2 -53 -10 28 -5 65 -6 83 -3 17 4
32 2 32 -2 0 -10 -107 -54 -131 -54 -8 0 -24 -7 -35 -15 -21 -17 -21 -17 81
16 39 12 80 29 92 36 29 19 131 27 167 14 23 -9 32 -7 59 13 62 47 103 56 260
59 81 1 147 1 147 0 0 -1 -15 -7 -32 -12 -22 -6 -26 -10 -13 -10 12 -1 58 22
104 50 l83 51 -6 102 c-6 115 -24 184 -68 265 -57 102 -105 205 -124 263 l-19
57 -68 3 c-41 2 -66 -1 -64 -7z"/>
<path d="M2628 2139 l-33 -31 32 21 c17 12 36 21 42 21 6 0 11 5 11 10 0 18
-19 10 -52 -21z"/>
<path d="M2736 2140 c-5 -19 -19 -48 -33 -64 -13 -16 -22 -30 -20 -32 8 -8 37
8 31 17 -3 5 2 9 10 9 16 0 31 54 24 87 -3 12 -7 7 -12 -17z"/>
<path d="M2435 2152 c-3 -3 9 -11 27 -17 18 -7 42 -16 53 -20 16 -5 15 -3 -5
13 -25 21 -65 33 -75 24z"/>
<path d="M3504 2153 c-45 -4 -64 -28 -64 -81 0 -22 -2 -24 -11 -12 -8 12 -9
10 -4 -9 5 -15 3 -21 -3 -17 -6 4 -8 -3 -5 -16 4 -19 3 -20 -6 -8 -9 12 -11
12 -11 1 0 -8 -23 -59 -51 -113 -28 -55 -48 -103 -44 -106 3 -3 8 4 12 16 3
12 12 22 19 22 8 0 13 3 12 8 -1 4 23 59 54 122 31 63 60 127 63 143 6 21 13
27 35 27 16 0 32 5 35 10 4 6 10 8 15 5 5 -3 11 -1 15 5 3 5 0 9 -7 8 -7 -1
-32 -3 -54 -5z"/>
<path d="M4460 2152 c0 -12 19 -26 26 -19 2 2 -2 10 -11 17 -9 8 -15 8 -15 2z"/>
<path d="M2388 2123 c6 -35 16 -47 58 -72 22 -13 34 -16 34 -8 0 7 -14 20 -31
30 -17 9 -36 31 -42 47 -14 38 -26 39 -19 3z"/>
<path d="M916 2065 c-3 -9 -6 -22 -5 -28 0 -7 5 -1 10 12 5 13 8 26 5 28 -2 2
-6 -3 -10 -12z"/>
<path d="M478 2053 c12 -2 30 -2 40 0 9 3 -1 5 -23 4 -22 0 -30 -2 -17 -4z"/>
<path d="M548 2053 c6 -2 18 -2 25 0 6 3 1 5 -13 5 -14 0 -19 -2 -12 -5z"/>
<path d="M4530 2050 c0 -5 5 -10 10 -10 6 0 10 5 10 10 0 6 -4 10 -10 10 -5 0
-10 -4 -10 -10z"/>
<path d="M4583 2053 c15 -2 37 -2 50 0 12 2 0 4 -28 4 -27 0 -38 -2 -22 -4z"/>
<path d="M2490 2021 c0 -5 7 -14 15 -21 12 -10 15 -10 15 3 0 8 -7 17 -15 21
-8 3 -15 2 -15 -3z"/>
<path d="M895 1975 c-3 -26 -4 -49 -2 -51 3 -3 8 16 12 41 3 26 4 49 2 51 -3
3 -8 -16 -12 -41z"/>
<path d="M98 2003 c7 -3 16 -2 19 1 4 3 -2 6 -13 5 -11 0 -14 -3 -6 -6z"/>
<path d="M188 2003 c34 -2 88 -2 120 0 31 2 3 3 -63 3 -66 0 -92 -1 -57 -3z"/>
<path d="M4827 2003 c18 -2 50 -2 70 0 21 2 7 4 -32 4 -38 0 -55 -2 -38 -4z"/>
<path d="M373 1988 c2 -7 35 -61 73 -120 38 -58 91 -142 118 -185 27 -43 51
-73 53 -68 3 10 -25 55 -176 288 -28 43 -51 82 -51 88 0 5 -5 9 -11 9 -6 0 -9
-6 -6 -12z"/>
<path d="M3246 1985 c-4 -11 -12 -30 -17 -43 -12 -29 -11 -32 3 -32 6 0 8 3 5
7 -4 3 0 17 9 30 8 13 13 32 11 41 -3 15 -5 14 -11 -3z"/>
<path d="M4694 1988 c1 -13 -35 -71 -161 -266 -35 -53 -60 -98 -57 -101 3 -3
12 3 20 14 22 29 224 355 224 360 0 3 -6 5 -14 5 -8 0 -13 -6 -12 -12z"/>
<path d="M2455 1972 c-11 -4 -36 -15 -55 -24 -19 -9 -48 -20 -65 -24 l-30 -6
29 -11 c24 -8 38 -5 80 16 72 36 79 37 115 19 27 -13 39 -13 63 -4 26 9 40 8
87 -9 62 -23 112 -29 117 -14 5 14 -129 48 -201 51 -33 1 -73 5 -90 8 -16 2
-39 2 -50 -2z"/>
<path d="M2315 1869 c-6 -9 35 -25 50 -19 29 11 91 5 102 -9 16 -22 129 -23
150 -2 8 8 31 18 52 22 24 4 1 7 -74 8 -60 1 -147 3 -193 5 -45 2 -85 0 -87
-5z m254 -25 c2 -2 -12 -4 -32 -4 -20 0 -38 4 -42 9 -5 9 64 4 74 -5z m41 6
c0 -5 -2 -10 -4 -10 -3 0 -8 5 -11 10 -3 6 -1 10 4 10 6 0 11 -4 11 -10z"/>
<path d="M3490 1865 c-7 -9 -10 -18 -7 -21 3 -3 10 4 17 15 13 25 8 27 -10 6z"/>
<path d="M2728 1863 c-10 -2 -18 -8 -18 -13 0 -12 74 -5 97 9 15 8 10 10 -22
10 -22 -1 -48 -3 -57 -6z"/>
<path d="M3096 1844 c-3 -9 -4 -19 -1 -24 3 -4 9 -66 14 -136 7 -94 15 -141
30 -174 l21 -45 -6 57 c-5 42 -1 73 15 126 22 72 27 117 13 108 -5 -3 -14 -34
-22 -70 -7 -36 -18 -66 -22 -66 -5 0 -9 26 -8 58 2 68 -10 171 -20 177 -5 3
-11 -2 -14 -11z"/>
<path d="M2640 1825 c0 -8 9 -10 25 -7 14 2 25 8 25 12 0 4 -11 8 -25 8 -14 0
-25 -6 -25 -13z"/>
<path d="M832 1785 c17 -25 33 -43 36 -41 6 7 -47 86 -58 86 -5 0 5 -20 22
-45z"/>
<path d="M3161 1814 c0 -11 3 -14 6 -6 3 7 2 16 -1 19 -3 4 -6 -2 -5 -13z"/>
<path d="M3278 1758 c-29 -46 -44 -103 -38 -148 l5 -45 8 57 c7 58 34 118 53
118 5 0 15 -5 22 -12 16 -16 16 5 0 31 -11 18 -13 18 -25 3 -12 -16 -13 -16
-7 1 9 24 -1 21 -18 -5z"/>
<path d="M3440 1736 c-6 -9 -10 -21 -8 -28 3 -8 9 -4 17 10 15 28 9 39 -9 18z"/>
<path d="M2105 1717 c10 -15 20 -25 23 -22 3 3 -5 16 -17 28 l-23 22 17 -28z"/>
<path d="M885 1720 c3 -5 8 -10 11 -10 2 0 4 5 4 10 0 6 -5 10 -11 10 -5 0 -7
-4 -4 -10z"/>
<path d="M3357 1704 c3 -7 9 -14 14 -14 14 0 10 17 -5 23 -10 4 -13 1 -9 -9z"/>
<path d="M2477 1704 c-14 -14 -7 -25 13 -19 11 3 27 2 36 -3 11 -6 28 -5 47 2
23 8 31 8 34 -1 3 -7 19 -12 36 -12 28 2 29 2 7 6 -14 3 -27 8 -30 13 -7 10
-134 23 -143 14z"/>
<path d="M900 1693 c0 -3 6 -14 14 -22 7 -9 26 -38 41 -66 15 -27 35 -59 45
-70 9 -11 32 -48 50 -83 18 -34 35 -61 37 -59 4 5 -12 44 -29 72 -7 10 -44 68
-81 127 -65 102 -77 118 -77 101z"/>
<path d="M3400 1666 c0 -4 46 -53 103 -109 125 -126 140 -144 126 -153 -6 -3
-52 -7 -103 -7 -111 -2 -218 28 -288 79 -44 31 -47 36 -38 60 6 14 10 40 9 57
l-1 32 -12 -40 c-29 -93 -31 -87 36 -129 111 -69 227 -95 338 -76 36 6 78 11
93 11 15 0 25 4 22 9 -4 6 -12 10 -19 10 -8 0 -22 12 -32 28 -36 55 -234 248
-234 228z"/>
<path d="M2160 1651 c0 -5 7 -11 15 -15 8 -3 15 -1 15 3 0 5 -7 11 -15 15 -8
3 -15 1 -15 -3z"/>
<path d="M2068 1634 c11 -20 81 -80 86 -73 1 2 -20 24 -47 49 -28 25 -45 36
-39 24z"/>
<path d="M2950 1640 c-8 -5 -11 -12 -7 -16 4 -4 15 0 24 9 18 18 8 23 -17 7z"/>
<path d="M2969 1559 c-23 -19 -23 -20 -2 -10 12 6 25 16 28 21 10 16 -1 12
-26 -11z"/>
<path d="M2240 1520 c0 -5 5 -10 12 -10 6 0 19 -7 29 -16 10 -9 24 -14 31 -12
8 3 -1 13 -22 26 -39 24 -50 27 -50 12z"/>
<path d="M2860 1515 c-7 -9 -10 -18 -7 -21 6 -7 47 18 47 28 0 14 -27 9 -40
-7z"/>
<path d="M3087 1506 c-4 -10 -7 -25 -6 -34 0 -11 4 -9 10 7 5 13 8 29 6 35 -2
5 -6 2 -10 -8z"/>
<path d="M2807 1503 c-10 -9 -8 -33 2 -33 5 0 11 9 14 20 5 20 -3 26 -16 13z"/>
<path d="M1984 1439 l7 -37 -81 -38 c-44 -22 -80 -42 -80 -46 0 -12 38 -10 61
3 17 9 21 7 26 -10 7 -28 21 -27 16 2 -3 15 6 31 29 54 l33 32 90 -85 c91 -85
125 -112 125 -96 0 4 -42 44 -94 89 -57 50 -102 98 -116 125 l-22 43 6 -36z"/>
<path d="M2080 1444 c0 -14 4 -23 9 -20 5 3 7 15 4 26 -7 28 -13 25 -13 -6z"/>
<path d="M3141 1439 c-5 -13 -55 -70 -111 -127 -57 -56 -100 -105 -97 -108 8
-9 213 199 222 225 9 31 -2 40 -14 10z"/>
<path d="M3070 1436 c0 -9 5 -16 10 -16 6 0 10 4 10 9 0 6 -4 13 -10 16 -5 3
-10 -1 -10 -9z"/>
<path d="M1855 1420 c-3 -6 1 -7 9 -4 18 7 21 14 7 14 -6 0 -13 -4 -16 -10z"/>
<path d="M3160 1393 c1 -24 26 -57 38 -49 11 6 107 -38 117 -54 9 -14 -29 -91
-58 -117 -12 -12 -44 -28 -72 -36 l-50 -16 46 0 c42 -1 50 3 82 38 88 98 90
158 7 186 -26 9 -60 27 -75 40 -31 30 -35 30 -35 8z"/>
<path d="M4447 1393 c-13 -12 -7 -23 41 -75 26 -29 56 -66 67 -81 16 -22 30
-29 73 -33 28 -3 52 -2 52 1 0 9 -39 52 -116 132 -43 44 -68 63 -86 63 -13 0
-28 -3 -31 -7z m120 -80 c34 -34 50 -58 47 -68 -4 -8 -12 -15 -18 -15 -18 0
-60 61 -58 85 1 15 -1 16 -8 6 -7 -12 -11 -13 -25 -1 -13 10 -13 15 -3 21 9 6
6 9 -9 9 -13 0 -23 4 -23 9 0 25 50 0 97 -46z"/>
<path d="M4565 1280 c3 -5 8 -10 11 -10 2 0 4 5 4 10 0 6 -5 10 -11 10 -5 0
-7 -4 -4 -10z"/>
<path d="M497 1299 c-48 -49 -87 -92 -87 -95 0 -3 21 -4 48 -2 47 3 51 7 41
47 -2 9 5 17 16 19 16 3 18 1 8 -9 -17 -18 -16 -34 1 -20 7 6 16 25 20 42 3
18 11 29 18 27 7 -3 22 9 33 26 11 17 26 32 33 32 7 1 17 2 23 3 25 3 -5 21
-35 21 -28 0 -45 -13 -119 -91z m-7 -69 c0 -5 -5 -10 -11 -10 -5 0 -7 5 -4 10
3 6 8 10 11 10 2 0 4 -4 4 -10z"/>
<path d="M3311 1380 c0 -8 6 -24 14 -34 11 -15 15 -16 15 -5 0 8 -7 24 -15 35
-11 14 -14 15 -14 4z"/>
<path d="M1463 1358 c-24 -12 -43 -25 -43 -30 0 -10 6 -10 28 1 9 5 29 14 45
22 15 7 27 16 27 21 0 12 -11 10 -57 -14z"/>
<path d="M1822 1357 c-12 -13 -22 -34 -22 -48 1 -65 87 -179 136 -179 14 0 22
4 19 10 -3 6 -13 10 -21 10 -46 0 -114 90 -114 151 0 22 8 44 20 57 12 12 17
22 12 22 -5 0 -18 -10 -30 -23z"/>
<path d="M3636 1372 c-3 -4 8 -13 25 -19 30 -12 37 -5 17 15 -14 14 -35 16
-42 4z"/>
<path d="M3716 1370 c17 -17 116 -52 112 -39 -2 6 -28 19 -58 30 -62 22 -68
23 -54 9z"/>
<path d="M1623 1363 c15 -2 37 -2 50 0 12 2 0 4 -28 4 -27 0 -38 -2 -22 -4z"/>
<path d="M2830 1334 c-45 -35 -77 -80 -66 -92 3 -3 7 -3 9 -1 1 2 26 30 56 61
30 32 53 60 50 62 -3 3 -25 -11 -49 -30z"/>
<path d="M2298 1311 c23 -22 42 -44 42 -50 0 -6 5 -11 10 -11 24 0 7 41 -29
69 -56 44 -73 38 -23 -8z"/>
<path d="M3873 1340 c-13 -5 -23 -14 -23 -19 0 -11 45 4 65 21 12 11 -14 9
-42 -2z"/>
<path d="M3930 1345 c0 -14 29 -35 35 -26 3 6 -4 15 -15 21 -11 6 -20 8 -20 5z"/>
<path d="M913 1333 c9 -2 25 -2 35 0 9 3 1 5 -18 5 -19 0 -27 -2 -17 -5z"/>
<path d="M3212 1315 c0 -16 2 -22 5 -12 2 9 2 23 0 30 -3 6 -5 -1 -5 -18z"/>
<path d="M1744 1306 c-11 -8 -41 -23 -65 -32 -51 -20 -83 -44 -58 -44 8 0 19
4 25 9 11 10 89 36 90 30 0 -2 8 2 17 10 15 12 17 11 17 -8 0 -12 11 -44 25
-71 14 -27 25 -53 25 -58 0 -4 -14 -23 -31 -40 -23 -24 -30 -37 -25 -54 7 -23
98 -103 146 -128 14 -7 27 -16 30 -19 3 -4 21 -18 40 -31 l35 -24 -20 23 -20
24 34 -18 c21 -11 55 -17 90 -16 72 1 104 -12 124 -52 9 -18 27 -51 41 -74
l26 -41 -34 9 c-35 10 -164 75 -276 140 -70 40 -229 183 -292 262 -47 60 -50
49 -4 -18 64 -95 221 -234 322 -286 36 -18 62 -34 60 -36 -8 -8 -138 65 -197
110 -31 23 -101 84 -156 135 -86 79 -107 104 -143 176 -23 46 -39 89 -36 95 4
6 0 11 -8 11 -24 0 -20 -21 26 -111 33 -68 57 -100 127 -167 116 -111 173
-154 282 -213 102 -54 135 -67 125 -50 -5 7 -1 9 8 5 9 -3 16 -10 16 -14 0 -5
37 -23 83 -41 l82 -33 240 -3 c209 -3 253 -1 340 16 112 23 256 89 413 191
148 95 185 136 296 324 26 43 45 80 44 81 -5 4 -97 25 -109 25 -6 0 1 -13 17
-28 16 -15 33 -26 38 -24 4 3 2 8 -5 13 -10 6 -8 9 9 9 12 0 22 -2 22 -6 0
-32 -178 -204 -270 -261 -121 -75 -207 -108 -306 -118 -79 -8 -99 -21 -126
-85 -11 -25 -31 -60 -44 -78 l-25 -32 -247 2 -247 3 -46 77 c-66 112 -71 116
-124 110 -25 -2 -66 1 -92 8 -60 17 -207 92 -251 128 l-32 27 44 45 c26 26 41
49 36 55 -20 25 -70 135 -70 154 0 25 -8 26 -36 7z m1780 -148 c-5 -7 -12 -17
-16 -23 -5 -5 -22 -31 -38 -58 -16 -26 -35 -46 -41 -45 -9 3 -22 -13 -36 -40
0 -2 -8 -4 -16 -6 -8 -1 -34 -18 -58 -37 -24 -20 -64 -48 -89 -63 -25 -15 -67
-41 -95 -58 -90 -55 -223 -119 -260 -125 l-37 -6 26 26 c14 14 26 33 26 41 0
25 34 74 58 85 13 6 38 11 56 11 18 0 54 6 79 14 25 7 48 12 50 9 16 -15 233
118 272 167 55 69 145 150 119 108z"/>
<path d="M3458 1093 c-8 -10 -19 -25 -23 -33 -8 -13 -7 -13 9 -1 16 14 41 51
33 51 -2 0 -11 -8 -19 -17z"/>
<path d="M3352 1268 c-6 -29 -25 -72 -42 -96 -35 -49 -36 -54 -13 -50 11 2 24
-10 38 -34 11 -21 23 -38 28 -38 11 0 -4 53 -20 69 -8 7 -12 20 -9 28 4 9 1
12 -7 8 -6 -4 -2 3 11 14 12 11 21 23 20 28 -1 4 3 23 10 41 10 29 15 32 34
26 13 -3 25 -9 28 -13 12 -14 90 -25 90 -12 0 6 -5 11 -12 11 -16 0 -116 48
-123 60 -12 20 -20 9 -33 -42z"/>
<path d="M1574 1292 c-21 -14 -7 -68 36 -140 37 -62 60 -93 60 -79 0 2 -20 40
-44 85 -27 50 -42 90 -39 102 3 11 9 18 13 15 4 -3 13 2 20 10 10 13 9 15 -11
15 -13 0 -29 -4 -35 -8z"/>
<path d="M3880 1290 c0 -5 9 -10 21 -10 11 0 17 5 14 10 -3 6 -13 10 -21 10
-8 0 -14 -4 -14 -10z"/>
<path d="M3599 1210 c-23 -43 -60 -103 -82 -131 -30 -40 -36 -54 -25 -60 20
-13 28 -11 28 10 0 11 4 21 9 23 12 5 109 178 116 211 12 46 -2 31 -46 -53z"/>
<path d="M1930 1275 c0 -16 33 -66 52 -80 22 -15 21 -16 -22 -9 -31 4 -42 3
-35 -4 6 -5 28 -12 51 -14 35 -3 40 -1 36 14 -2 10 1 18 7 18 7 0 10 4 7 9 -3
5 -14 7 -25 4 -13 -3 -25 5 -40 31 -21 34 -31 43 -31 31z"/>
<path d="M3943 1267 c-22 -12 -113 -108 -113 -119 0 -4 5 -8 10 -8 6 0 10 4
10 9 0 11 99 111 111 111 5 0 9 -4 9 -10 0 -5 5 -10 10 -10 6 0 9 6 8 13 -4
15 122 12 132 -3 4 -6 17 -12 31 -15 23 -4 23 -4 4 11 -43 32 -167 45 -212 21z"/>
<path d="M4225 1265 c-3 -8 -7 -22 -10 -30 -5 -17 24 -35 57 -34 18 1 16 3
-10 10 -30 9 -33 13 -27 39 7 31 -2 42 -10 15z"/>
<path d="M1138 1263 c17 -2 47 -2 65 0 17 2 3 4 -33 4 -36 0 -50 -2 -32 -4z"/>
<path d="M1240 1262 c0 -14 66 -73 73 -66 11 12 8 24 -5 22 -7 -2 -12 6 -13
17 0 13 -6 19 -17 17 -10 -2 -18 2 -18 8 0 5 -4 10 -10 10 -5 0 -10 -4 -10 -8z"/>
<path d="M2921 1244 c-24 -30 -24 -33 -11 -54 8 -12 10 -10 10 10 0 14 7 36
16 48 21 31 10 28 -15 -4z"/>
<path d="M3187 1244 c-10 -14 -32 -27 -48 -31 -16 -3 -29 -9 -29 -14 0 -24 74
11 91 42 15 30 7 31 -14 3z"/>
<path d="M1680 1240 c0 -5 4 -10 9 -10 6 0 13 5 16 10 3 6 -1 10 -9 10 -9 0
-16 -4 -16 -10z"/>
<path d="M3754 1163 c-38 -48 -83 -103 -101 -122 -18 -19 -30 -37 -27 -40 3
-3 16 8 30 24 14 17 38 44 54 61 15 17 33 41 40 53 6 13 14 20 18 17 3 -4 0
-12 -6 -18 -7 -7 -12 -17 -12 -22 0 -6 8 -2 16 9 22 28 66 116 61 121 -2 2
-35 -35 -73 -83z m27 4 c-10 -9 -11 -8 -5 6 3 10 9 15 12 12 3 -3 0 -11 -7
-18z"/>
<path d="M928 1223 c-10 -2 -18 -8 -18 -13 0 -5 12 -5 28 0 15 5 36 11 47 13
12 3 8 5 -10 5 -16 0 -38 -2 -47 -5z"/>
<path d="M3680 1210 c0 -5 5 -10 10 -10 6 0 10 5 10 10 0 6 -4 10 -10 10 -5 0
-10 -4 -10 -10z"/>
<path d="M816 1198 c4 -6 -1 -17 -11 -24 -10 -8 -16 -16 -14 -19 3 -3 18 9 34
25 28 29 28 30 6 30 -14 0 -20 -4 -15 -12z"/>
<path d="M1370 1195 c0 -5 11 -23 25 -40 13 -16 24 -25 25 -18 0 7 -11 25 -25
40 -13 15 -24 24 -25 18z"/>
<path d="M2198 1188 c5 -5 16 -8 23 -6 8 3 3 7 -10 11 -17 4 -21 3 -13 -5z"/>
<path d="M1320 1183 c0 -12 20 -35 45 -53 17 -13 17 -11 -3 17 -25 35 -42 50
-42 36z"/>
<path d="M1466 1175 c4 -8 11 -15 16 -15 6 0 5 6 -2 15 -7 8 -14 15 -16 15 -2
0 -1 -7 2 -15z"/>
<path d="M3150 1180 c-8 -5 -12 -12 -9 -15 8 -8 39 5 39 16 0 11 -11 11 -30
-1z"/>
<path d="M3657 1165 c-4 -8 -2 -17 3 -20 6 -4 10 -4 10 -1 0 2 3 11 6 20 3 9
2 16 -4 16 -5 0 -12 -7 -15 -15z"/>
<path d="M4170 1166 c0 -9 50 -12 62 -5 8 6 -1 9 -24 9 -21 0 -38 -2 -38 -4z"/>
<path d="M948 1137 c12 -13 22 -29 22 -36 0 -7 5 -11 11 -9 6 2 9 6 8 8 -1 3
3 15 10 28 7 14 8 22 1 22 -5 0 -10 -7 -10 -15 0 -21 -13 -19 -28 5 -7 11 -17
20 -24 20 -6 0 -2 -10 10 -23z"/>
<path d="M4070 1151 c0 -4 11 -6 25 -3 14 2 25 6 25 8 0 2 -11 4 -25 4 -14 0
-25 -4 -25 -9z"/>
<path d="M1098 1143 c6 -2 18 -2 25 0 6 3 1 5 -13 5 -14 0 -19 -2 -12 -5z"/>
<path d="M1441 1134 c0 -11 3 -14 6 -6 3 7 2 16 -1 19 -3 4 -6 -2 -5 -13z"/>
<path d="M1490 1140 c0 -5 5 -10 10 -10 6 0 10 5 10 10 0 6 -4 10 -10 10 -5 0
-10 -4 -10 -10z"/>
<path d="M2300 1142 c0 -4 9 -13 19 -19 11 -7 38 -39 60 -72 l40 -59 145 -1
144 -2 51 66 c28 36 57 65 63 65 9 0 9 3 0 12 -15 15 -33 0 -84 -69 l-39 -53
-133 0 -134 0 -17 27 c-10 14 -36 46 -58 70 -37 40 -57 53 -57 35z"/>
<path d="M811 1103 c-30 -21 -57 -44 -59 -52 -2 -7 21 5 52 28 45 34 57 39 62
26 6 -16 24 -21 24 -7 0 5 -6 16 -13 26 -11 16 -17 14 -66 -21z"/>
<path d="M4008 1133 c7 -3 16 -2 19 1 4 3 -2 6 -13 5 -11 0 -14 -3 -6 -6z"/>
<path d="M4223 1123 c-4 -10 -17 -35 -29 -55 -17 -27 -28 -35 -42 -31 -11 2
-22 1 -25 -4 -3 -5 9 -9 26 -8 27 0 37 8 65 49 17 26 32 52 32 57 0 16 -20 9
-27 -8z"/>
<path d="M1530 1120 c0 -5 5 -10 11 -10 5 0 7 5 4 10 -3 6 -8 10 -11 10 -2 0
-4 -4 -4 -10z"/>
<path d="M3640 1115 c7 -9 15 -13 17 -11 7 7 -7 26 -19 26 -6 0 -6 -6 2 -15z"/>
<path d="M3800 1120 c0 -5 5 -10 10 -10 6 0 10 5 10 10 0 6 -4 10 -10 10 -5 0
-10 -4 -10 -10z"/>
<path d="M4320 1123 c1 -13 23 -36 67 -70 63 -49 64 -40 3 22 -51 52 -70 65
-70 48z"/>
<path d="M1130 1100 c0 -12 28 -25 36 -17 3 3 -4 10 -15 17 -15 7 -21 7 -21 0z"/>
<path d="M1185 1100 c3 -5 13 -10 21 -10 8 0 12 5 9 10 -3 6 -13 10 -21 10 -8
0 -12 -4 -9 -10z"/>
<path d="M1444 1102 c-7 -5 -1 -22 18 -52 22 -35 28 -39 28 -22 0 23 25 31 32
10 3 -7 10 -8 17 -4 9 6 7 12 -11 21 -13 6 -27 8 -32 3 -15 -12 -26 -10 -26 7
0 8 -4 15 -10 15 -5 0 -7 7 -4 15 7 17 4 18 -12 7z"/>
<path d="M4011 1101 c-8 -6 -9 -11 -3 -15 6 -3 14 -1 17 5 9 14 2 20 -14 10z"/>
<path d="M1325 1090 c3 -5 11 -10 16 -10 6 0 7 5 4 10 -3 6 -11 10 -16 10 -6
0 -7 -4 -4 -10z"/>
<path d="M1480 1084 c0 -8 5 -12 10 -9 6 3 10 10 10 16 0 5 -4 9 -10 9 -5 0
-10 -7 -10 -16z"/>
<path d="M1540 1090 c-13 -8 -12 -10 3 -10 9 0 17 5 17 10 0 12 -1 12 -20 0z"/>
<path d="M3616 1084 c-22 -21 -20 -27 4 -12 11 7 20 16 20 20 0 12 -7 10 -24
-8z"/>
<path d="M1270 1080 c0 -5 5 -10 11 -10 5 0 7 5 4 10 -3 6 -8 10 -11 10 -2 0
-4 -4 -4 -10z"/>
<path d="M3772 1074 c-25 -27 -4 -48 37 -37 28 7 25 48 -3 49 -12 1 -27 -4
-34 -12z m38 -14 c0 -5 -9 -10 -21 -10 -11 0 -17 5 -14 10 3 6 13 10 21 10 8
0 14 -4 14 -10z"/>
<path d="M3956 1081 c-3 -5 1 -11 9 -15 8 -3 15 -1 15 4 0 13 -18 22 -24 11z"/>
<path d="M4045 1079 c-4 -6 -5 -12 -4 -14 7 -7 59 8 59 16 0 13 -47 11 -55 -2z"/>
<path d="M4255 1062 c-17 -15 -41 -39 -55 -54 -19 -23 -21 -28 -7 -28 9 0 17
6 17 14 0 8 8 21 18 28 19 15 68 68 61 68 -2 0 -18 -13 -34 -28z"/>
<path d="M930 1062 c6 -13 14 -21 18 -18 3 4 -2 14 -12 24 -18 16 -18 16 -6
-6z"/>
<path d="M987 1059 c-3 -12 -10 -18 -16 -14 -6 3 -11 2 -11 -4 0 -5 5 -13 10
-16 6 -3 10 -13 10 -21 0 -9 -5 -12 -12 -8 -7 4 -8 3 -4 -5 12 -19 28 -1 22
25 -5 19 -2 25 19 30 28 7 32 19 9 28 -22 8 -21 9 -27 -15z"/>
<path d="M1220 1072 c0 -4 10 -9 22 -9 18 -2 20 0 8 7 -18 12 -30 13 -30 2z"/>
<path d="M1942 1069 c5 -16 152 -95 213 -115 28 -9 75 -31 105 -48 89 -52 140
-65 140 -35 0 5 -16 9 -36 9 -23 0 -58 13 -102 39 -37 22 -80 43 -97 47 -40 9
-142 60 -182 90 -35 26 -47 30 -41 13z"/>
<path d="M3887 1064 c4 -10 10 -11 23 -4 12 7 20 6 23 0 3 -6 4 -5 3 2 -1 7
-14 13 -28 14 -18 1 -25 -3 -21 -12z"/>
<path d="M1260 1048 c-114 -21 -167 -22 -173 -5 -2 6 -8 8 -13 4 -19 -18 24
-28 95 -23 118 9 251 29 251 37 0 12 -50 8 -160 -13z"/>
<path d="M1560 1061 c0 -16 28 -20 34 -5 4 9 -1 14 -14 14 -11 0 -20 -4 -20
-9z"/>
<path d="M3850 1060 c0 -5 5 -10 10 -10 6 0 10 5 10 10 0 6 -4 10 -10 10 -5 0
-10 -4 -10 -10z"/>
<path d="M2046 1045 c10 -8 23 -15 28 -15 6 0 1 7 -10 15 -10 8 -23 15 -28 15
-6 0 -1 -7 10 -15z"/>
<path d="M4005 1050 c3 -5 8 -10 11 -10 2 0 4 5 4 10 0 6 -5 10 -11 10 -5 0
-7 -4 -4 -10z"/>
<path d="M3125 1034 c-16 -7 -61 -28 -99 -44 -38 -17 -66 -33 -63 -36 7 -7
207 76 207 87 0 12 -9 11 -45 -7z"/>
<path d="M3605 1042 c-5 -4 -17 -16 -25 -26 -14 -18 -14 -19 7 -5 13 7 25 19
27 26 6 15 5 16 -9 5z"/>
<path d="M712 1004 c-12 -19 -20 -34 -18 -34 7 0 49 61 44 65 -2 2 -13 -12
-26 -31z"/>
<path d="M1023 1033 c-22 -8 -14 -23 13 -23 15 0 24 5 22 12 -5 14 -18 18 -35
11z"/>
<path d="M1424 1025 c3 -8 2 -15 -3 -15 -5 0 -26 -8 -47 -17 -51 -22 -56 -23
-148 -28 -43 -2 -83 -8 -88 -13 -5 -5 26 -7 73 -4 62 4 83 1 90 -9 6 -10 9
-11 9 -1 0 6 6 12 14 12 8 0 16 6 19 14 5 12 32 21 87 29 8 1 17 -2 20 -8 3
-6 -18 -14 -47 -19 -29 -5 -53 -13 -53 -16 0 -13 61 -9 96 6 34 14 35 16 20
33 -9 10 -16 22 -16 28 0 6 -7 14 -16 17 -12 4 -15 2 -10 -9z"/>
<path d="M2598 1033 c7 -3 16 -2 19 1 4 3 -2 6 -13 5 -11 0 -14 -3 -6 -6z"/>
<path d="M2638 1033 c6 -2 18 -2 25 0 6 3 1 5 -13 5 -14 0 -19 -2 -12 -5z"/>
<path d="M3860 1023 c-57 -9 -90 -11 -101 -4 -13 8 -23 2 -45 -26 -45 -56 -45
-58 -8 -60 19 -1 34 3 34 8 0 5 -12 9 -26 9 l-27 0 27 25 c28 25 56 33 56 15
0 -5 -7 -10 -15 -10 -8 0 -15 -5 -15 -11 0 -6 7 -8 16 -5 9 3 20 6 25 6 6 0 8
4 4 9 -9 16 13 22 125 37 33 5 47 11 39 17 -2 2 -42 -3 -89 -10z"/>
<path d="M4064 1028 c-3 -4 6 -8 20 -8 14 0 26 4 26 8 0 4 -9 8 -21 8 -11 0
-23 -4 -25 -8z"/>
<path d="M1310 1015 c-36 -7 -68 -13 -72 -14 -5 -1 -8 -6 -8 -12 0 -5 3 -8 8
-6 4 3 25 8 47 11 82 13 105 19 111 27 6 11 0 10 -86 -6z"/>
<path d="M1580 1021 c0 -6 5 -13 10 -16 6 -3 10 1 10 9 0 9 -4 16 -10 16 -5 0
-10 -4 -10 -9z"/>
<path d="M1620 1021 c0 -6 5 -13 10 -16 6 -3 10 1 10 9 0 9 -4 16 -10 16 -5 0
-10 -4 -10 -9z"/>
<path d="M2097 1019 c7 -7 15 -10 18 -7 3 3 -2 9 -12 12 -14 6 -15 5 -6 -5z"/>
<path d="M1540 1011 c0 -5 5 -13 10 -16 6 -3 10 -2 10 4 0 5 -4 13 -10 16 -5
3 -10 2 -10 -4z"/>
<path d="M3970 1010 c0 -5 7 -10 15 -10 8 0 15 5 15 10 0 6 -7 10 -15 10 -8 0
-15 -4 -15 -10z"/>
<path d="M1185 1001 c-11 -4 -34 -7 -51 -7 -21 1 -30 -3 -27 -11 3 -7 9 -11
13 -8 4 3 28 6 54 6 25 1 46 6 46 10 0 13 -14 17 -35 10z"/>
<path d="M3895 997 c-87 -19 -102 -27 -44 -21 32 3 70 9 85 13 43 11 6 19 -41
8z"/>
<path d="M1043 993 c-7 -2 -13 -8 -13 -13 0 -10 38 -1 46 11 6 10 -13 11 -33
2z"/>
<path d="M1507 984 c3 -8 15 -19 27 -25 19 -9 19 -9 4 4 -10 8 -15 16 -12 19
2 3 -2 8 -10 11 -10 4 -13 1 -9 -9z"/>
<path d="M4030 988 c0 -4 22 -8 49 -8 27 0 56 -3 64 -6 8 -3 17 1 20 9 4 11
-9 14 -64 13 -38 0 -69 -4 -69 -8z"/>
<path d="M1566 974 c-4 -9 -4 -19 -1 -22 2 -3 7 3 11 12 4 9 4 19 1 22 -2 3
-7 -3 -11 -12z"/>
<path d="M992 964 c1 -9 9 -19 16 -22 9 -3 13 2 10 14 -1 9 -9 19 -16 22 -9 3
-13 -2 -10 -14z"/>
<path d="M1070 970 c0 -5 -7 -10 -15 -10 -8 0 -15 -4 -15 -10 0 -13 3 -13 34
1 14 7 23 16 20 20 -7 12 -24 11 -24 -1z"/>
<path d="M3925 970 c-22 -4 -58 -11 -79 -14 -42 -7 -61 -16 -32 -16 9 0 15 -4
11 -9 -3 -5 8 -3 25 6 39 19 145 29 162 15 19 -15 88 -26 88 -14 0 5 -20 13
-45 16 -24 4 -47 11 -50 17 -7 10 -23 10 -80 -1z"/>
<path d="M4125 960 c-3 -5 1 -10 10 -10 9 0 13 5 10 10 -3 6 -8 10 -10 10 -2
0 -7 -4 -10 -10z"/>
<path d="M1465 950 c-3 -5 3 -10 15 -10 12 0 18 5 15 10 -3 6 -10 10 -15 10
-5 0 -12 -4 -15 -10z"/>
<path d="M2874 925 c-31 -22 -70 -39 -106 -46 -32 -7 -58 -14 -58 -16 0 -2 7
-11 16 -20 13 -14 16 -14 27 0 7 8 25 18 42 22 32 7 144 75 144 88 2 14 -16 7
-65 -28z"/>
<path d="M1082 935 c-12 -7 -26 -16 -30 -20 -9 -10 50 4 61 15 15 14 -7 17
-31 5z"/>
<path d="M3760 940 c-12 -8 -10 -10 8 -10 13 0 20 4 17 10 -7 12 -6 12 -25 0z"/>
<path d="M1320 931 c0 -8 95 -31 127 -31 34 0 0 17 -37 18 -23 1 -50 6 -60 12
-23 12 -30 13 -30 1z"/>
<path d="M3965 930 c4 -6 11 -8 16 -5 14 9 11 15 -7 15 -8 0 -12 -5 -9 -10z"/>
<path d="M4110 925 c0 -8 5 -15 10 -15 6 0 10 7 10 15 0 8 -4 15 -10 15 -5 0
-10 -7 -10 -15z"/>
<path d="M1160 926 c0 -2 7 -17 15 -32 16 -30 19 -25 9 14 -5 18 -24 33 -24
18z"/>
<path d="M1210 911 c0 -12 5 -21 10 -21 6 0 10 6 10 14 0 8 -4 18 -10 21 -5 3
-10 -3 -10 -14z"/>
<path d="M1560 926 c0 -3 8 -15 17 -26 18 -20 33 -26 33 -12 -1 8 -50 46 -50
38z"/>
<path d="M4005 922 c15 -16 65 -26 65 -13 0 6 -6 11 -12 11 -7 0 -24 3 -38 6
-17 5 -22 4 -15 -4z"/>
<path d="M1008 913 c6 -2 18 -2 25 0 6 3 1 5 -13 5 -14 0 -19 -2 -12 -5z"/>
<path d="M1108 903 c-18 -22 -3 -25 22 -5 18 15 20 19 6 19 -9 0 -21 -6 -28
-14z"/>
<path d="M1240 908 c0 -9 5 -20 10 -23 13 -8 13 5 0 25 -8 13 -10 13 -10 -2z"/>
<path d="M1488 913 c-29 -7 -20 -20 12 -19 16 1 29 5 27 10 -4 12 -17 15 -39
9z"/>
<path d="M3778 913 c6 -2 18 -2 25 0 6 3 1 5 -13 5 -14 0 -19 -2 -12 -5z"/>
<path d="M1270 900 c0 -5 5 -10 10 -10 6 0 10 5 10 10 0 6 -4 10 -10 10 -5 0
-10 -4 -10 -10z"/>
<path d="M2630 899 c0 -5 5 -7 10 -4 6 3 10 8 10 11 0 2 -4 4 -10 4 -5 0 -10
-5 -10 -11z"/>
<path d="M3590 900 c0 -5 5 -10 10 -10 6 0 10 5 10 10 0 6 -4 10 -10 10 -5 0
-10 -4 -10 -10z"/>
<path d="M3655 900 c3 -5 10 -10 16 -10 5 0 9 5 9 10 0 6 -7 10 -16 10 -8 0
-12 -4 -9 -10z"/>
<path d="M3705 900 c-7 -12 12 -12 40 0 18 8 17 9 -7 9 -15 1 -30 -3 -33 -9z"/>
<path d="M1067 884 c6 -15 23 -19 23 -5 0 5 -7 11 -14 14 -10 4 -13 1 -9 -9z"/>
<path d="M3450 890 c0 -5 5 -10 10 -10 6 0 10 5 10 10 0 6 -4 10 -10 10 -5 0
-10 -4 -10 -10z"/>
<path d="M4090 890 c0 -5 5 -10 10 -10 6 0 10 5 10 10 0 6 -4 10 -10 10 -5 0
-10 -4 -10 -10z"/>
<path d="M1020 881 c0 -17 18 -21 24 -6 3 9 0 15 -9 15 -8 0 -15 -4 -15 -9z"/>
<path d="M3930 880 c0 -5 4 -10 9 -10 6 0 13 5 16 10 3 6 -1 10 -9 10 -9 0
-16 -4 -16 -10z"/>
<path d="M1125 869 c-4 -6 -5 -13 -2 -16 7 -7 27 6 27 18 0 12 -17 12 -25 -2z"/>
<path d="M4035 870 c3 -5 8 -10 11 -10 2 0 4 5 4 10 0 6 -5 10 -11 10 -5 0 -7
-4 -4 -10z"/>
<path d="M3555 860 c3 -5 8 -10 11 -10 2 0 4 5 4 10 0 6 -5 10 -11 10 -5 0 -7
-4 -4 -10z"/>
<path d="M3990 860 c0 -5 5 -10 10 -10 6 0 10 5 10 10 0 6 -4 10 -10 10 -5 0
-10 -4 -10 -10z"/>
<path d="M1086 847 c3 -10 9 -15 12 -12 3 3 0 11 -7 18 -10 9 -11 8 -5 -6z"/>
<path d="M4075 850 c-3 -5 1 -10 9 -10 9 0 16 5 16 10 0 6 -4 10 -9 10 -6 0
-13 -4 -16 -10z"/>
<path d="M1040 840 c0 -5 5 -10 10 -10 6 0 10 5 10 10 0 6 -4 10 -10 10 -5 0
-10 -4 -10 -10z"/>
<path d="M1630 840 c0 -5 7 -10 16 -10 8 0 12 5 9 10 -3 6 -10 10 -16 10 -5 0
-9 -4 -9 -10z"/>
<path d="M2025 840 c3 -5 11 -10 16 -10 6 0 7 5 4 10 -3 6 -11 10 -16 10 -6 0
-7 -4 -4 -10z"/>
<path d="M3898 843 c7 -3 16 -2 19 1 4 3 -2 6 -13 5 -11 0 -14 -3 -6 -6z"/>
<path d="M1140 824 c0 -8 5 -12 10 -9 6 4 8 11 5 16 -9 14 -15 11 -15 -7z"/>
<path d="M2072 831 c-10 -6 -6 -11 17 -19 18 -7 29 -7 26 -2 -4 6 -13 10 -21
10 -8 0 -12 5 -9 10 7 12 4 12 -13 1z"/>
<path d="M3488 833 c6 -2 18 -2 25 0 6 3 1 5 -13 5 -14 0 -19 -2 -12 -5z"/>
<path d="M1510 820 c0 -5 5 -10 11 -10 5 0 7 5 4 10 -3 6 -8 10 -11 10 -2 0
-4 -4 -4 -10z"/>
<path d="M1725 820 c3 -6 21 -17 38 -26 l32 -15 -30 25 c-30 26 -51 34 -40 16z"/>
<path d="M3378 813 c-29 -34 -30 -48 -2 -21 15 15 26 30 23 33 -3 3 -13 -3
-21 -12z"/>
<path d="M1288 813 c7 -3 16 -2 19 1 4 3 -2 6 -13 5 -11 0 -14 -3 -6 -6z"/>
<path d="M1325 810 c3 -5 8 -10 11 -10 2 0 4 5 4 10 0 6 -5 10 -11 10 -5 0 -7
-4 -4 -10z"/>
<path d="M3850 810 c0 -5 4 -10 9 -10 6 0 13 5 16 10 3 6 -1 10 -9 10 -9 0
-16 -4 -16 -10z"/>
<path d="M3798 803 c7 -3 16 -2 19 1 4 3 -2 6 -13 5 -11 0 -14 -3 -6 -6z"/>
<path d="M2130 786 c0 -2 7 -6 15 -10 8 -3 15 -1 15 4 0 6 -7 10 -15 10 -8 0
-15 -2 -15 -4z"/>
<path d="M3598 773 c7 -3 16 -2 19 1 4 3 -2 6 -13 5 -11 0 -14 -3 -6 -6z"/>
<path d="M3230 691 c-58 -43 -116 -90 -129 -104 -34 -37 -51 -33 -89 18 -31
43 -52 57 -52 34 0 -17 82 -99 100 -99 9 0 43 24 76 53 32 29 92 78 132 110
62 50 81 68 70 67 -2 0 -50 -36 -108 -79z"/>
<path d="M2503 713 c48 -2 126 -2 175 0 48 1 8 3 -88 3 -96 0 -136 -2 -87 -3z"/>
<path d="M1810 706 c0 -13 189 -146 216 -152 26 -5 35 1 82 51 73 81 65 92
-12 16 l-64 -63 -97 71 c-94 70 -125 89 -125 77z"/>
<path d="M2900 553 l-64 -34 -266 4 c-260 4 -266 4 -334 31 -101 39 -114 27
-15 -14 l84 -35 264 -3 c286 -4 311 0 376 52 46 37 27 36 -45 -1z"/>
</g>
</svg>
