<?xml version="1.0" standalone="no"?>
<!DOCTYPE svg PUBLIC "-//W3C//DTD SVG 20010904//EN"
 "http://www.w3.org/TR/2001/REC-SVG-20010904/DTD/svg10.dtd">
<svg version="1.0" xmlns="http://www.w3.org/2000/svg"
 width="512.000000pt" height="512.000000pt" viewBox="0 0 512.000000 512.000000"
 preserveAspectRatio="xMidYMid meet">
<metadata>
Created by potrace 1.16, written by Peter Selinger 2001-2019
</metadata>
<g transform="translate(0.000000,512.000000) scale(0.100000,-0.100000)"
fill="#000000" stroke="none">
<path d="M2380 4596 c0 -13 12 -16 65 -16 37 0 65 4 65 10 0 6 -19 10 -42 10
-24 0 -53 3 -65 6 -17 5 -23 2 -23 -10z"/>
<path d="M2668 4602 c-38 -2 -68 -7 -68 -12 0 -13 137 -13 145 -1 8 14 -4 16
-77 13z"/>
<path d="M1730 4561 c0 -3 0 -250 0 -548 l0 -543 -547 -1 c-302 -1 -554 -1
-560 0 -8 1 -13 -9 -13 -26 l0 -28 560 0 560 0 0 -842 0 -843 -620 0 -620 0 0
-27 0 -28 620 2 620 2 0 -560 0 -559 28 0 27 0 -3 555 -2 555 775 0 775 0 2
-467 c1 -258 2 -507 2 -556 1 -83 2 -87 24 -87 l22 0 0 559 0 560 585 -4 585
-4 0 24 0 25 -567 1 c-313 1 -575 1 -583 0 -13 -1 -15 48 -12 399 l3 400 -155
0 -154 0 -4 35 -4 35 161 0 160 0 -3 415 -3 415 321 0 c212 0 319 3 315 10 -3
6 3 10 15 10 13 0 19 -4 14 -11 -4 -7 -1 -10 7 -7 8 3 15 11 17 19 4 19 -59
19 -84 -1 -18 -14 -18 -14 -5 2 12 17 -4 18 -295 20 l-308 3 -4 549 -4 549
-25 3 c-21 2 -24 0 -19 -19 3 -12 6 -264 6 -561 0 -462 2 -537 14 -533 8 3 20
-1 26 -8 10 -12 7 -17 -15 -25 -34 -13 -44 -7 -37 25 l4 25 -776 0 -776 0 2
544 3 544 -27 5 c-16 2 -28 1 -28 -2z m47 -1108 c13 -10 184 -13 774 -13 737
0 757 0 762 -19 2 -11 15 -21 28 -23 l23 -3 4 -387 4 -387 -153 -4 c-85 -3
-225 -5 -311 -6 l-158 -1 -6 -25 c-9 -35 -54 -36 -54 -1 0 13 -8 27 -17 30
-19 8 -295 7 -334 -1 -16 -3 -30 -15 -36 -31 l-11 -27 -1 26 c-1 25 -4 26 -78
33 -116 9 -368 7 -397 -4 -21 -8 -26 -16 -26 -42 0 -67 -39 -63 592 -65 315
-2 664 -6 776 -9 l202 -7 0 -369 c0 -366 0 -368 -21 -368 -13 0 -24 -10 -31
-27 l-11 -28 -743 -1 c-735 -2 -744 -2 -744 18 0 13 -11 24 -30 31 l-30 11 0
823 c0 642 3 823 12 823 7 0 1 8 -12 18 -20 13 -54 18 -160 23 l-135 5 148 2
147 2 2 548 3 547 2 -540 c3 -493 4 -541 20 -552z m2188 -13 c3 -5 -1 -10 -10
-10 -9 0 -13 5 -10 10 3 6 8 10 10 10 2 0 7 -4 10 -10z m-1695 -876 c0 -20 5
-24 30 -24 25 0 30 4 30 25 0 14 6 25 13 25 9 0 12 -11 9 -35 l-4 -35 -59 0
-59 0 6 28 c10 46 14 53 24 47 5 -3 10 -17 10 -31z m393 2 c-2 -23 2 -26 32
-26 19 0 37 -4 40 -10 4 -6 -14 -10 -48 -10 l-54 0 3 38 c3 47 2 44 17 39 6
-2 11 -16 10 -31z m-671 -6 c6 -38 3 -40 -44 -40 -34 0 -38 3 -36 23 2 12 -1
22 -7 22 -5 0 -9 -8 -8 -17 2 -15 -5 -18 -40 -18 -40 0 -42 1 -42 30 l0 30 86
0 87 0 4 -30z m218 18 c0 -7 3 -23 6 -35 5 -17 2 -23 -10 -23 -9 0 -16 5 -16
10 0 6 -11 10 -25 10 -14 0 -25 -4 -25 -10 0 -5 -4 -10 -10 -10 -5 0 -10 13
-10 29 0 28 -1 29 -42 24 -55 -7 -61 -13 -15 -13 30 0 37 -4 37 -20 0 -17 -6
-20 -45 -18 -44 1 -45 2 -45 35 l0 33 100 0 c73 0 100 -3 100 -12z m405 -20
c-2 -31 -4 -33 -44 -34 -35 0 -41 3 -41 21 0 12 -3 25 -7 28 -11 12 -31 -13
-26 -32 4 -15 -2 -18 -36 -18 -38 0 -40 1 -35 23 5 18 2 24 -10 24 -10 0 -16
-9 -16 -25 0 -16 -6 -25 -15 -25 -10 0 -15 11 -15 35 l0 35 124 0 124 0 -3
-32z m187 19 c-6 -7 -9 -23 -5 -35 4 -19 1 -22 -21 -22 -24 0 -26 3 -20 28 9
38 13 42 36 42 16 0 18 -3 10 -13z m38 -23 c0 -21 -4 -34 -11 -32 -6 2 -10 7
-10 11 1 4 1 18 1 32 0 14 5 25 10 25 6 0 10 -16 10 -36z m45 16 c3 -11 10
-20 15 -20 5 0 12 9 15 20 4 11 15 20 26 20 18 0 18 -3 -8 -35 -15 -19 -33
-35 -39 -35 -6 0 -18 16 -27 35 -14 29 -14 35 -3 35 8 0 18 -9 21 -20z m155
10 c0 -6 -7 -13 -15 -16 -25 -10 -17 -24 15 -24 17 0 30 -5 30 -10 0 -6 -23
-9 -55 -8 -30 1 -55 4 -55 6 0 2 9 17 21 33 19 28 59 40 59 19z m314 -850 c29
-11 33 -25 13 -45 -19 -18 -47 0 -47 30 0 28 0 28 34 15z m-1554 -10 c0 -5 -9
-19 -20 -30 -19 -19 -20 -35 -22 -552 l-3 -533 -5 545 c-3 300 -6 546 -8 548
-1 1 -280 3 -619 4 l-618 3 618 2 c400 2 617 7 617 13 0 6 14 10 30 10 17 0
30 -4 30 -10z m2730 -27 c0 -12 -13 -14 -72 -9 -40 3 -122 6 -183 8 l-110 2
125 6 c220 9 240 9 240 -7z"/>
<path d="M1845 2560 c3 -5 13 -10 21 -10 8 0 14 5 14 10 0 6 -9 10 -21 10 -11
0 -17 -4 -14 -10z"/>
<path d="M1943 2555 c0 -8 6 -15 14 -15 7 0 13 7 13 15 0 8 -6 15 -13 15 -8 0
-14 -7 -14 -15z"/>
<path d="M2153 2563 c9 -2 23 -2 30 0 6 3 -1 5 -18 5 -16 0 -22 -2 -12 -5z"/>
<path d="M2043 2543 c9 -2 23 -2 30 0 6 3 -1 5 -18 5 -16 0 -22 -2 -12 -5z"/>
<path d="M2455 2560 c4 -6 11 -8 16 -5 14 9 11 15 -7 15 -8 0 -12 -5 -9 -10z"/>
<path d="M2555 2560 c-4 -6 5 -10 20 -10 15 0 24 4 20 10 -3 6 -12 10 -20 10
-8 0 -17 -4 -20 -10z"/>
<path d="M2388 4558 c-76 -6 -138 -13 -138 -17 0 -7 628 -7 635 1 3 3 -54 8
-127 12 -73 4 -155 8 -183 10 -27 2 -112 -1 -187 -6z"/>
<path d="M567 4398 c2 -84 4 -268 6 -408 1 -140 6 -262 10 -271 7 -14 47 -39
64 -39 4 0 -4 11 -16 24 -22 24 -22 27 -20 268 2 180 -1 250 -10 267 -8 15
-10 35 -6 55 5 17 9 71 10 120 l2 89 76 -2 c42 -1 98 1 124 6 45 8 43 8 -47
14 -53 3 16 5 155 5 138 0 195 -2 127 -3 -96 -3 -127 -7 -142 -20 -10 -9 -17
-20 -14 -25 3 -4 0 -8 -5 -8 -6 0 -11 4 -11 10 0 23 -109 -46 -135 -86 -13
-21 -13 -23 4 -21 10 0 17 6 14 12 -2 7 13 24 33 40 29 22 38 25 45 14 7 -10
-2 -24 -32 -51 -23 -21 -46 -35 -52 -31 -6 3 -7 1 -3 -5 4 -7 -8 -27 -27 -46
-19 -18 -37 -41 -41 -51 -6 -16 -8 -16 -26 5 -20 23 -20 23 2 62 12 21 50 66
84 98 35 34 56 60 47 60 -21 0 -137 -121 -153 -160 -11 -28 -11 -36 4 -60 12
-21 13 -31 5 -36 -8 -5 -6 -10 7 -17 15 -8 22 -5 38 19 11 16 69 77 128 135
72 71 106 112 102 122 -4 13 28 16 238 22 134 4 282 6 331 4 85 -4 87 -3 87
19 l0 22 -502 0 -503 0 2 -152z m303 63 c0 -5 -6 -14 -14 -20 -10 -9 -15 -8
-19 3 -3 8 -3 17 0 20 9 9 33 7 33 -3z m-265 -261 c3 -5 1 -10 -4 -10 -6 0
-11 5 -11 10 0 6 2 10 4 10 3 0 8 -4 11 -10z"/>
<path d="M1824 4541 c9 -13 326 -14 326 -1 0 6 -58 10 -166 10 -97 0 -163 -4
-160 -9z"/>
<path d="M2176 4541 c-3 -5 7 -11 22 -14 31 -6 37 -3 27 12 -8 13 -42 14 -49
2z"/>
<path d="M2960 4541 c0 -5 79 -9 175 -10 117 -1 175 1 175 8 0 7 -59 11 -175
11 -96 0 -175 -4 -175 -9z"/>
<path d="M3490 4534 c0 -8 10 -14 23 -14 12 0 101 -2 197 -5 104 -2 163 -1
145 4 -19 6 30 8 135 8 l165 -1 -135 -6 c-88 -3 -129 -8 -117 -14 21 -10 291
1 294 12 2 4 76 6 165 4 l163 -3 2 -174 c2 -96 1 -175 -1 -175 -2 0 -22 17
-46 39 l-42 38 29 23 28 22 -99 95 c-101 96 -133 117 -161 107 -22 -9 -8 -54
24 -78 28 -22 114 -108 204 -206 l57 -62 0 -199 c0 -178 -2 -199 -17 -208 -10
-5 -14 -13 -10 -17 4 -4 16 2 26 13 17 18 19 45 23 411 l3 392 -330 1 c-181 1
-419 3 -527 5 -167 2 -198 1 -198 -12z m898 -173 c60 -53 73 -71 51 -71 -13 0
-189 161 -189 174 0 10 56 -31 138 -103z"/>
<path d="M2905 4530 c3 -5 10 -10 16 -10 5 0 9 5 9 10 0 6 -7 10 -16 10 -8 0
-12 -4 -9 -10z"/>
<path d="M2270 4504 c0 -7 78 -10 248 -9 181 1 195 1 50 -2 -134 -2 -198 -7
-198 -14 0 -8 71 -10 238 -7 231 3 237 4 240 24 3 21 1 21 -287 20 -199 -1
-291 -4 -291 -12z"/>
<path d="M2880 4500 c0 -5 5 -10 10 -10 6 0 10 5 10 10 0 6 -4 10 -10 10 -5 0
-10 -4 -10 -10z"/>
<path d="M2210 4479 c0 -5 5 -7 10 -4 6 3 10 8 10 11 0 2 -4 4 -10 4 -5 0 -10
-5 -10 -11z"/>
<path d="M3833 4469 c-36 -23 -43 -39 -15 -38 9 0 27 13 40 30 28 34 20 37
-25 8z"/>
<path d="M1162 4463 c5 -25 28 -28 28 -4 0 12 -6 21 -16 21 -9 0 -14 -7 -12
-17z"/>
<path d="M1200 4469 c0 -5 5 -7 10 -4 6 3 10 8 10 11 0 2 -4 4 -10 4 -5 0 -10
-5 -10 -11z"/>
<path d="M1469 4383 l98 -98 -3 -120 c-3 -110 -2 -123 19 -155 l22 -35 3 110
c2 61 0 135 -3 165 -7 53 -10 58 -83 127 -43 40 -85 76 -94 79 -10 3 -18 10
-18 15 0 5 -9 9 -19 9 -14 0 9 -28 78 -97z m118 -285 c-2 -29 -3 -8 -3 47 0
55 1 79 3 53 2 -26 2 -71 0 -100z"/>
<path d="M3707 4446 c-26 -18 -69 -43 -96 -54 -46 -20 -49 -24 -55 -68 -9 -70
-7 -163 4 -184 7 -13 7 -27 -1 -44 -15 -32 -2 -219 14 -213 11 4 17 123 16
368 l0 85 53 34 c64 42 97 69 109 93 13 23 11 22 -44 -17z m-67 -65 c0 -5 -8
-11 -17 -15 -10 -3 -25 -9 -33 -12 -8 -3 -4 4 10 15 27 22 40 26 40 12z m-63
-73 c-3 -7 -5 -2 -5 12 0 14 2 19 5 13 2 -7 2 -19 0 -25z m-1 -105 c-10 -10
-19 5 -10 18 6 11 8 11 12 0 2 -7 1 -15 -2 -18z m1 -215 c-3 -8 -6 -5 -6 6 -1
11 2 17 5 13 3 -3 4 -12 1 -19z"/>
<path d="M4124 4472 c-58 -3 -64 -5 -113 -53 -28 -27 -49 -54 -46 -58 9 -16
-290 -285 -306 -275 -9 5 -49 -58 -49 -77 0 -8 8 -3 16 11 9 14 43 46 77 72
82 63 103 81 231 201 142 133 140 132 211 132 54 0 60 2 57 20 -5 29 -10 30
-78 27z m64 -24 c-3 -8 -21 -11 -49 -10 -28 2 -57 -4 -81 -16 l-37 -19 15 23
c18 27 31 31 102 33 38 1 52 -3 50 -11z m-188 -73 c-7 -9 -15 -13 -19 -10 -3
3 1 10 9 15 21 14 24 12 10 -5z"/>
<path d="M980 4460 c0 -5 5 -10 11 -10 5 0 26 -11 46 -25 20 -13 39 -22 41
-20 9 9 -22 36 -56 51 -41 17 -42 17 -42 4z"/>
<path d="M1217 4447 c-21 -25 -23 -59 -3 -51 18 7 39 55 29 65 -4 4 -16 -2
-26 -14z"/>
<path d="M2259 4468 c0 -2 -3 -181 -6 -399 -4 -275 -2 -402 5 -415 8 -14 12
93 14 394 2 228 0 416 -4 419 -5 2 -8 3 -9 1z"/>
<path d="M2885 4460 c4 -6 11 -8 16 -5 14 9 11 15 -7 15 -8 0 -12 -5 -9 -10z"/>
<path d="M2760 4337 c0 -91 -4 -132 -15 -153 -13 -26 -13 -29 1 -32 8 -2 18
-1 21 2 3 2 8 70 10 149 4 102 2 146 -6 151 -8 5 -11 -27 -11 -117z"/>
<path d="M1130 4410 c-11 -11 -25 -20 -31 -20 -6 0 -4 -7 5 -15 16 -17 27 -20
24 -6 -2 4 8 17 21 28 16 13 20 22 13 27 -6 4 -20 -2 -32 -14z"/>
<path d="M2842 4036 l3 -396 -283 0 c-156 0 -281 -4 -278 -8 5 -9 540 -6 564
3 16 6 18 780 1 790 -7 5 -9 -111 -7 -389z"/>
<path d="M1287 4392 c-31 -32 -32 -38 -13 -58 20 -20 27 -18 66 15 35 29 35
29 16 50 -25 28 -37 27 -69 -7z m53 -12 c0 -5 -2 -10 -4 -10 -3 0 -8 5 -11 10
-3 6 -1 10 4 10 6 0 11 -4 11 -10z"/>
<path d="M3836 4393 c2 -48 4 -53 18 -53 7 0 16 9 19 20 3 11 12 20 21 20 17
0 22 15 8 24 -5 3 -16 -4 -25 -15 -18 -21 -37 -25 -37 -8 0 6 9 13 20 16 27 7
25 23 -3 23 -18 0 -22 -5 -21 -27z"/>
<path d="M950 4399 c0 -5 -4 -8 -9 -5 -5 3 -16 -5 -25 -19 -9 -13 -12 -26 -8
-29 10 -6 73 49 65 58 -10 10 -23 7 -23 -5z"/>
<path d="M1380 4387 c0 -2 11 -17 25 -33 14 -16 33 -44 42 -61 15 -32 33 -44
33 -23 0 6 -4 10 -10 10 -5 0 -10 7 -10 16 0 16 -60 94 -72 94 -5 0 -8 -2 -8
-3z"/>
<path d="M4180 4380 c0 -5 4 -10 9 -10 6 0 13 5 16 10 3 6 -1 10 -9 10 -9 0
-16 -4 -16 -10z"/>
<path d="M1150 4371 c0 -6 5 -13 10 -16 6 -3 10 1 10 9 0 9 -4 16 -10 16 -5 0
-10 -4 -10 -9z"/>
<path d="M2568 4363 c7 -3 16 -2 19 1 4 3 -2 6 -13 5 -11 0 -14 -3 -6 -6z"/>
<path d="M3655 4325 c-27 -25 -46 -45 -41 -45 10 0 78 58 89 77 12 20 6 16
-48 -32z"/>
<path d="M3920 4358 c0 -7 -16 -24 -34 -38 -97 -72 -196 -157 -201 -172 -8
-22 -25 -24 -25 -4 0 16 -18 31 -26 23 -4 -4 13 -52 23 -66 2 -3 25 16 51 41
26 25 89 82 140 126 93 82 103 93 83 100 -6 2 -11 -2 -11 -10z"/>
<path d="M690 4345 c-17 -21 -9 -27 13 -10 10 7 14 16 9 19 -5 3 -15 -1 -22
-9z"/>
<path d="M1077 4330 c7 -27 70 -92 78 -80 9 15 -18 50 -38 50 -14 0 -17 5 -13
17 4 9 1 20 -6 25 -21 13 -26 9 -21 -12z"/>
<path d="M1140 4348 c0 -3 63 -67 140 -143 77 -77 140 -144 140 -151 0 -6 9
-19 20 -29 11 -10 20 -13 20 -7 0 6 -4 14 -10 17 -12 8 -13 35 -1 35 17 0 96
-121 101 -154 4 -30 7 -33 21 -23 24 19 6 65 -47 122 -25 27 -53 59 -61 72
-19 28 -33 30 -26 3 3 -11 0 -20 -6 -20 -6 0 -11 6 -11 13 0 8 -44 56 -97 108
-91 87 -183 166 -183 157z"/>
<path d="M1225 4340 c-6 -9 21 -41 95 -112 57 -54 105 -96 108 -94 6 6 -17 46
-27 46 -12 0 -158 142 -163 160 -4 12 -6 12 -13 0z"/>
<path d="M4060 4343 c0 -5 7 -17 15 -27 8 -11 15 -28 15 -37 0 -25 19 -34 27
-14 3 10 1 20 -5 24 -6 3 -15 19 -21 34 -9 24 -31 38 -31 20z"/>
<path d="M2533 4333 c15 -2 39 -2 55 0 15 2 2 4 -28 4 -30 0 -43 -2 -27 -4z"/>
<path d="M764 4265 c-33 -37 -63 -73 -67 -82 -11 -18 1 -32 12 -15 4 7 36 42
71 78 44 45 60 68 53 75 -7 7 -29 -10 -69 -56z"/>
<path d="M655 4290 c-3 -5 -2 -10 4 -10 5 0 13 5 16 10 3 6 2 10 -4 10 -5 0
-13 -4 -16 -10z"/>
<path d="M966 4293 c-8 -9 14 -33 30 -33 8 0 14 3 14 8 0 11 -37 32 -44 25z"/>
<path d="M930 4261 c0 -10 22 -31 32 -31 17 0 7 28 -12 33 -11 3 -20 2 -20 -2z"/>
<path d="M4120 4251 c0 -6 5 -13 10 -16 6 -3 10 1 10 9 0 9 -4 16 -10 16 -5 0
-10 -4 -10 -9z"/>
<path d="M1487 4243 c-4 -3 -7 -11 -7 -17 0 -6 5 -5 12 2 6 6 9 14 7 17 -3 3
-9 2 -12 -2z"/>
<path d="M4037 4244 c-13 -13 -7 -24 14 -24 11 0 19 5 17 12 -5 14 -22 21 -31
12z"/>
<path d="M850 4233 c0 -5 11 -20 25 -33 l25 -24 21 21 c12 12 18 26 15 32 -10
16 -26 14 -20 -3 10 -25 -17 -29 -42 -5 -13 12 -24 18 -24 12z"/>
<path d="M2410 4230 c0 -5 5 -10 10 -10 6 0 10 5 10 10 0 6 -4 10 -10 10 -5 0
-10 -4 -10 -10z"/>
<path d="M2674 4216 c-8 -21 16 -40 30 -26 7 7 4 16 -7 27 -15 15 -17 15 -23
-1z"/>
<path d="M4000 4205 c0 -8 -7 -15 -15 -15 -8 0 -15 -7 -15 -15 0 -8 4 -15 9
-15 5 0 11 7 15 15 3 8 12 15 20 15 10 0 13 6 10 15 -4 8 -10 15 -15 15 -5 0
-9 -7 -9 -15z"/>
<path d="M4149 4204 c-12 -15 -11 -16 8 -10 18 6 25 1 37 -22 8 -16 13 -32 10
-35 -3 -3 3 -3 15 0 12 3 21 8 21 11 0 5 -70 72 -75 72 -1 0 -9 -7 -16 -16z"/>
<path d="M1067 4183 c-6 -10 41 -58 49 -50 3 3 -5 18 -19 32 -13 15 -27 23
-30 18z"/>
<path d="M945 4171 c-3 -5 -2 -12 3 -15 5 -3 9 1 9 9 0 17 -3 19 -12 6z"/>
<path d="M2330 4166 c0 -8 4 -17 9 -20 10 -7 23 19 14 28 -11 11 -23 6 -23 -8z"/>
<path d="M2370 4168 c0 -11 28 -10 35 1 3 6 -4 9 -15 8 -11 -1 -20 -5 -20 -9z"/>
<path d="M2510 4173 c0 -5 14 -8 30 -8 17 0 30 3 30 8 0 4 -13 7 -30 7 -16 0
-30 -3 -30 -7z"/>
<path d="M4039 4171 c10 -6 10 -13 2 -28 -13 -26 -2 -38 15 -15 14 19 2 52
-19 52 -8 0 -8 -3 2 -9z"/>
<path d="M636 4158 c-12 -26 26 -84 124 -188 202 -216 305 -311 380 -350 31
-16 -89 96 -184 171 -39 31 -80 66 -90 78 -33 37 -12 32 29 -8 22 -20 58 -48
80 -61 38 -22 149 -119 149 -130 0 -3 16 -16 36 -30 24 -17 49 -24 81 -25 39
0 45 -3 41 -17 -7 -27 11 -21 24 6 10 22 9 25 -14 31 -15 4 -28 1 -32 -5 -14
-23 -62 1 -133 66 -23 22 -85 72 -137 111 -141 106 -338 300 -342 338 -3 24
-6 27 -12 13z"/>
<path d="M1460 4165 c0 -8 34 -45 42 -45 10 0 -3 33 -16 42 -13 9 -26 10 -26
3z"/>
<path d="M2168 4163 c6 -2 18 -2 25 0 6 3 1 5 -13 5 -14 0 -19 -2 -12 -5z"/>
<path d="M3995 4159 c-4 -6 -5 -13 -2 -16 7 -7 27 6 27 18 0 12 -17 12 -25 -2z"/>
<path d="M1033 4152 c-10 -6 -10 -12 2 -28 14 -18 14 -18 15 9 0 30 0 30 -17
19z"/>
<path d="M4454 4132 c-3 -15 -32 -57 -65 -93 -84 -91 -114 -137 -38 -58 115
119 143 159 119 174 -6 4 -13 -6 -16 -23z"/>
<path d="M662 4139 c2 -7 10 -15 17 -17 8 -3 12 1 9 9 -2 7 -10 15 -17 17 -8
3 -12 -1 -9 -9z"/>
<path d="M2930 4086 c0 -38 3 -66 7 -62 11 11 12 98 2 116 -5 10 -9 -10 -9
-54z"/>
<path d="M1450 4125 c7 -9 15 -13 17 -11 7 7 -7 26 -19 26 -6 0 -6 -6 2 -15z"/>
<path d="M4093 4125 c-8 -9 -7 -16 6 -27 30 -26 41 -30 35 -14 -3 9 -11 16
-16 16 -6 0 -8 7 -5 15 8 19 -5 26 -20 10z"/>
<path d="M836 4108 c-14 -19 -14 -23 -2 -30 8 -4 23 -5 33 -1 16 6 15 8 -7 14
-23 7 -24 7 -3 8 16 1 21 6 17 16 -8 21 -20 19 -38 -7z"/>
<path d="M2170 4103 c0 -10 4 -14 8 -8 4 6 11 13 16 18 5 4 2 7 -7 7 -10 0
-17 -8 -17 -17z"/>
<path d="M4270 4111 c0 -6 5 -11 10 -11 6 0 10 -10 10 -22 0 -17 3 -19 12 -10
9 9 10 17 2 29 -13 20 -34 29 -34 14z"/>
<path d="M690 4101 c0 -5 7 -12 16 -15 24 -9 28 -7 14 9 -14 17 -30 20 -30 6z"/>
<path d="M987 4089 c-10 -11 -15 -24 -12 -29 7 -12 26 -13 24 -2 -5 31 5 38
31 22 12 -7 12 -12 -4 -29 -18 -20 -18 -22 -1 -41 18 -20 18 -20 51 18 26 29
35 34 42 23 7 -9 12 -10 16 -2 7 10 -35 61 -50 61 -4 0 -13 -8 -20 -17 -13
-17 -15 -17 -28 0 -17 21 -26 21 -49 -4z m113 -8 c0 -16 -64 -74 -68 -62 -2 6
9 24 25 40 29 31 43 38 43 22z"/>
<path d="M1135 4100 c-3 -5 -1 -10 4 -10 6 0 11 5 11 10 0 6 -2 10 -4 10 -3 0
-8 -4 -11 -10z"/>
<path d="M2131 4094 c0 -11 3 -14 6 -6 3 7 2 16 -1 19 -3 4 -6 -2 -5 -13z"/>
<path d="M4060 4091 c0 -5 8 -17 17 -27 20 -20 32 -1 13 21 -14 17 -30 20 -30
6z"/>
<path d="M4256 4075 c4 -8 10 -12 15 -9 11 6 2 24 -11 24 -5 0 -7 -7 -4 -15z"/>
<path d="M1160 4067 c0 -24 -59 -87 -81 -87 -12 0 -16 -5 -13 -15 9 -23 23
-18 56 18 50 52 63 76 49 90 -8 8 -11 7 -11 -6z"/>
<path d="M2405 4070 c-4 -6 8 -10 29 -10 20 0 36 5 36 10 0 6 -13 10 -29 10
-17 0 -33 -4 -36 -10z"/>
<path d="M2520 4070 c0 -5 16 -10 35 -10 19 0 35 5 35 10 0 6 -16 10 -35 10
-19 0 -35 -4 -35 -10z"/>
<path d="M2695 4070 c4 -6 11 -8 16 -5 14 9 11 15 -7 15 -8 0 -12 -5 -9 -10z"/>
<path d="M2132 4050 c0 -14 2 -19 5 -12 2 6 2 18 0 25 -3 6 -5 1 -5 -13z"/>
<path d="M2171 4044 c0 -11 3 -14 6 -6 3 7 2 16 -1 19 -3 4 -6 -2 -5 -13z"/>
<path d="M2645 4050 c11 -5 31 -9 45 -9 20 -1 22 1 10 9 -8 5 -28 9 -45 9 -26
0 -27 -2 -10 -9z"/>
<path d="M3786 4044 c-7 -18 0 -34 15 -34 6 0 8 4 4 9 -3 5 -1 12 5 16 11 7 4
25 -10 25 -4 0 -11 -7 -14 -16z"/>
<path d="M4130 4050 c-8 -5 -12 -11 -9 -14 7 -8 49 5 49 15 0 12 -21 11 -40
-1z"/>
<path d="M4240 4046 c0 -9 5 -16 10 -16 6 0 10 4 10 9 0 6 -4 13 -10 16 -5 3
-10 -1 -10 -9z"/>
<path d="M2412 4038 c-11 -4 -4 -7 20 -7 20 -1 39 2 41 7 6 9 -38 9 -61 0z"/>
<path d="M2525 4040 c-4 -6 8 -10 29 -10 20 0 36 5 36 10 0 6 -13 10 -29 10
-17 0 -33 -4 -36 -10z"/>
<path d="M927 4024 c5 -14 2 -16 -20 -10 -15 3 -27 2 -27 -3 0 -15 42 -20 56
-6 18 18 18 35 -1 35 -9 0 -12 -6 -8 -16z"/>
<path d="M3721 4021 c-21 -21 -28 -41 -13 -41 10 1 45 50 39 57 -3 2 -15 -5
-26 -16z"/>
<path d="M3960 4026 c0 -9 5 -16 10 -16 6 0 10 4 10 9 0 6 -4 13 -10 16 -5 3
-10 -1 -10 -9z"/>
<path d="M1090 4020 c0 -5 5 -10 10 -10 6 0 10 5 10 10 0 6 -4 10 -10 10 -5 0
-10 -4 -10 -10z"/>
<path d="M2634 4018 c-3 -4 10 -9 28 -9 l33 -2 -35 -7 -35 -7 43 -2 c30 -1 42
3 42 13 0 15 -68 28 -76 14z"/>
<path d="M4194 4012 c6 -17 4 -21 -8 -16 -9 3 -16 10 -16 15 0 5 -4 9 -10 9
-16 0 -11 -27 6 -34 19 -7 54 1 54 13 0 5 -7 15 -16 22 -15 12 -16 11 -10 -9z"/>
<path d="M4435 4009 c-44 -41 -155 -129 -155 -124 0 15 -75 -49 -193 -165 -70
-69 -142 -133 -159 -142 -26 -14 -29 -18 -12 -18 11 0 46 18 77 41 69 49 226
199 208 199 -7 0 -9 5 -5 11 5 8 8 8 13 0 5 -7 29 8 67 42 32 29 89 74 127
100 37 27 67 52 67 57 0 17 -15 17 -35 -1z m-180 -159 c-16 -16 -33 -30 -39
-30 -5 0 6 14 24 30 18 17 36 30 39 30 2 0 -8 -13 -24 -30z m-105 -94 c0 -2
-8 -10 -17 -17 -16 -13 -17 -12 -4 4 13 16 21 21 21 13z"/>
<path d="M1352 4000 c-9 -15 -10 -26 -2 -40 14 -26 17 -25 34 9 11 21 12 31 3
40 -15 15 -20 14 -35 -9z"/>
<path d="M3824 4007 c-12 -14 -7 -37 8 -37 6 0 7 7 4 16 -4 11 -2 15 8 11 10
-4 13 -1 9 9 -6 17 -14 17 -29 1z"/>
<path d="M951 3996 c-7 -9 -8 -17 -2 -20 5 -3 12 0 15 6 3 9 11 6 24 -9 23
-26 44 -31 36 -8 -4 8 -13 15 -20 15 -8 0 -17 7 -20 15 -8 19 -18 19 -33 1z"/>
<path d="M2410 4000 c0 -13 60 -13 80 0 11 7 2 10 -32 10 -27 0 -48 -4 -48
-10z"/>
<path d="M2520 4000 c0 -5 18 -10 40 -10 22 0 40 5 40 10 0 6 -18 10 -40 10
-22 0 -40 -4 -40 -10z"/>
<path d="M3990 3990 c0 -5 5 -10 10 -10 6 0 10 5 10 10 0 6 -4 10 -10 10 -5 0
-10 -4 -10 -10z"/>
<path d="M690 3983 c0 -5 12 -13 26 -20 26 -12 26 -12 9 7 -18 20 -35 26 -35
13z"/>
<path d="M2453 3973 c-45 -6 -41 -20 6 -25 33 -3 39 0 38 14 -1 10 -4 17 -7
16 -3 0 -20 -3 -37 -5z"/>
<path d="M3859 3964 c-10 -12 -9 -18 6 -32 10 -9 15 -11 11 -4 -4 7 -3 19 4
27 6 8 7 16 2 19 -6 3 -15 -1 -23 -10z"/>
<path d="M1477 3953 c2 -10 15 -31 29 -48 17 -22 24 -25 24 -13 0 9 -5 20 -11
23 -5 4 -14 18 -19 31 -11 27 -31 33 -23 7z"/>
<path d="M2535 3960 c28 -12 65 -12 65 0 0 6 -19 10 -42 9 -33 0 -38 -2 -23
-9z"/>
<path d="M2630 3960 c0 -5 18 -10 40 -10 22 0 40 5 40 10 0 6 -18 10 -40 10
-22 0 -40 -4 -40 -10z"/>
<path d="M667 3940 c3 -11 12 -20 19 -20 17 0 18 12 2 28 -18 18 -27 15 -21
-8z"/>
<path d="M3646 3933 c-2 -10 -7 -29 -11 -43 l-6 -25 20 24 c22 24 28 61 12 61
-5 0 -12 -8 -15 -17z"/>
<path d="M3761 3916 c-39 -62 -26 -73 23 -21 23 24 29 38 22 45 -16 16 -23 12
-45 -24z"/>
<path d="M4050 3941 c0 -6 4 -13 10 -16 6 -3 7 1 4 9 -7 18 -14 21 -14 7z"/>
<path d="M756 3928 c2 -7 21 -24 42 -37 l37 -23 -34 36 c-35 36 -54 46 -45 24z"/>
<path d="M3896 3921 c-15 -16 -12 -22 38 -74 37 -39 59 -55 70 -51 28 11 18
-19 -21 -58 -23 -24 -31 -38 -22 -38 8 0 31 20 51 44 39 46 37 65 -6 67 -12 0
-15 3 -8 6 20 8 14 21 -37 72 -46 47 -50 48 -65 32z m62 -55 c17 -19 28 -37
24 -40 -6 -7 -72 53 -72 66 0 17 18 7 48 -26z"/>
<path d="M1321 3911 c-20 -15 -21 -19 -7 -24 11 -4 16 -1 16 9 0 10 6 14 14
11 10 -4 13 -1 9 9 -6 17 -3 17 -32 -5z"/>
<path d="M2425 3920 c3 -5 26 -10 51 -10 24 0 44 5 44 10 0 6 -23 10 -51 10
-31 0 -48 -4 -44 -10z"/>
<path d="M2546 3921 c5 -6 24 -6 44 -1 l35 8 -44 1 c-28 1 -41 -3 -35 -8z"/>
<path d="M2648 3923 c12 -2 32 -2 45 0 12 2 2 4 -23 4 -25 0 -35 -2 -22 -4z"/>
<path d="M712 3909 c2 -7 10 -15 17 -17 8 -3 12 1 9 9 -2 7 -10 15 -17 17 -8
3 -12 -1 -9 -9z"/>
<path d="M3820 3896 c0 -16 19 -25 38 -19 10 4 10 8 1 19 -15 18 -39 18 -39 0z"/>
<path d="M4171 3896 c-9 -10 -9 -16 -1 -21 17 -10 37 12 24 25 -8 8 -15 6 -23
-4z"/>
<path d="M1277 3894 c-3 -5 1 -15 9 -22 16 -14 18 -5 5 17 -5 7 -11 9 -14 5z"/>
<path d="M2360 3883 c0 -13 5 -23 10 -23 13 0 13 11 0 30 -8 12 -10 11 -10 -7z"/>
<path d="M4255 3812 c-109 -97 -151 -140 -144 -146 2 -2 36 26 75 62 139 131
177 162 188 153 6 -5 33 -12 60 -16 36 -5 47 -3 44 6 -2 6 -20 13 -38 14 -19
1 -46 5 -60 9 -22 6 -38 -5 -125 -82z"/>
<path d="M640 3880 c0 -8 5 -31 10 -51 9 -31 18 -40 58 -57 32 -14 73 -47 121
-97 40 -42 75 -75 77 -72 3 3 -19 33 -48 67 -80 92 -106 133 -100 149 5 14 4
14 -10 1 -10 -9 -13 -19 -7 -24 5 -6 9 -14 9 -18 0 -9 -23 2 -55 26 -19 15
-19 15 5 9 l25 -6 -22 19 c-12 10 -31 30 -42 44 -14 17 -20 20 -21 10z"/>
<path d="M765 3881 c-6 -11 42 -67 51 -58 4 3 -5 20 -19 37 -14 16 -28 26 -32
21z"/>
<path d="M1567 3857 c-11 -19 -17 -43 -15 -53 3 -15 7 -13 22 14 9 18 16 42
14 53 -2 17 -6 14 -21 -14z"/>
<path d="M1343 3873 c-7 -2 -13 -11 -13 -19 0 -8 -7 -14 -15 -14 -22 0 -18
-14 11 -43 28 -29 43 -26 77 11 20 21 20 53 1 59 -6 2 -9 -7 -7 -24 5 -36 -27
-59 -57 -43 -26 14 -25 24 5 48 34 27 33 40 -2 25z"/>
<path d="M1240 3840 c-6 -11 -8 -20 -6 -20 3 0 10 9 16 20 6 11 8 20 6 20 -3
0 -10 -9 -16 -20z"/>
<path d="M2764 3845 c-3 -8 -3 -19 1 -25 11 -18 25 -11 25 15 0 27 -17 34 -26
10z"/>
<path d="M3597 3853 c-11 -10 -8 -53 3 -53 6 0 10 6 10 14 0 8 3 21 6 30 6 16
-7 22 -19 9z"/>
<path d="M1240 3805 c-18 -24 -37 -42 -42 -39 -13 9 -9 24 7 24 8 0 15 7 15
15 0 25 -13 17 -40 -23 -34 -51 -34 -52 -11 -52 22 0 67 40 96 84 30 45 11 39
-25 -9z"/>
<path d="M2310 3841 c0 -18 12 -41 21 -41 15 0 10 37 -6 44 -8 3 -15 1 -15 -3z"/>
<path d="M850 3800 c0 -5 5 -10 10 -10 6 0 10 5 10 10 0 6 -4 10 -10 10 -5 0
-10 -4 -10 -10z"/>
<path d="M3610 3764 c0 -5 7 -18 15 -28 8 -11 15 -16 15 -10 0 5 -7 18 -15 28
-8 11 -15 16 -15 10z"/>
<path d="M900 3740 c13 -11 28 -20 34 -20 14 1 -32 40 -47 40 -5 0 0 -9 13
-20z"/>
<path d="M2488 3743 c7 -3 16 -2 19 1 4 3 -2 6 -13 5 -11 0 -14 -3 -6 -6z"/>
<path d="M2530 3740 c0 -5 11 -10 24 -10 14 0 28 5 31 10 4 6 -7 10 -24 10
-17 0 -31 -4 -31 -10z"/>
<path d="M3852 3731 c7 -11 16 -17 20 -15 5 3 2 12 -6 20 -21 20 -28 17 -14
-5z"/>
<path d="M4459 3738 c-1 -2 -3 -13 -4 -25 -1 -14 2 -20 11 -16 8 3 14 9 14 15
0 5 -5 6 -12 2 -8 -5 -9 -2 -5 9 5 13 1 25 -4 15z"/>
<path d="M955 3709 c-9 -14 -2 -20 14 -10 8 6 9 11 3 15 -6 3 -14 1 -17 -5z"/>
<path d="M1530 3705 c-11 -13 -10 -14 4 -9 9 3 16 10 16 15 0 13 -6 11 -20 -6z"/>
<path d="M3650 3701 c0 -5 7 -12 16 -15 14 -5 15 -4 4 9 -14 17 -20 19 -20 6z"/>
<path d="M4412 3685 c-11 -14 -27 -25 -35 -25 -22 0 -30 -17 -12 -24 8 -3 15
-2 15 3 0 5 13 14 29 21 19 8 29 19 28 31 -2 24 -2 24 -25 -6z"/>
<path d="M979 3663 c-8 -16 -24 -39 -36 -53 -13 -14 -23 -28 -23 -32 0 -17 20
-7 37 18 10 14 28 38 40 53 20 25 21 41 3 41 -4 0 -13 -12 -21 -27z"/>
<path d="M3887 3669 c-11 -43 15 -52 54 -20 28 22 24 28 -18 37 -26 5 -31 2
-36 -17z m36 -4 c-3 -9 -8 -14 -10 -11 -3 3 -2 9 2 15 9 16 15 13 8 -4z"/>
<path d="M1480 3654 c-17 -16 -20 -24 -10 -24 8 0 23 12 33 25 23 32 10 31
-23 -1z"/>
<path d="M3690 3655 c7 -8 17 -15 22 -15 6 0 5 7 -2 15 -7 8 -17 15 -22 15 -6
0 -5 -7 2 -15z"/>
<path d="M1021 3642 c-19 -6 6 -30 57 -52 47 -21 72 -25 72 -12 0 11 -115 69
-129 64z"/>
<path d="M4085 3629 c-10 -11 -43 -31 -72 -46 -30 -14 -52 -27 -50 -29 6 -6
82 23 111 41 24 16 25 16 56 -27 17 -24 38 -46 45 -51 13 -7 120 36 130 53 8
13 -34 19 -43 7 -4 -7 -23 -18 -42 -25 -34 -12 -36 -12 -63 20 -15 18 -30 43
-33 56 -7 27 -13 27 -39 1z"/>
<path d="M820 3636 c0 -2 8 -10 18 -17 15 -13 16 -12 3 4 -13 16 -21 21 -21
13z"/>
<path d="M3734 3615 c11 -8 24 -15 30 -15 5 0 1 7 -10 15 -10 8 -23 14 -29 14
-5 0 -1 -6 9 -14z"/>
<path d="M4305 3610 c4 -6 11 -8 16 -5 14 9 11 15 -7 15 -8 0 -12 -5 -9 -10z"/>
<path d="M1390 3569 c-36 -31 -39 -37 -17 -28 15 7 27 16 27 21 0 5 8 8 17 6
12 -2 18 4 19 20 1 12 1 22 0 22 0 0 -21 -19 -46 -41z"/>
<path d="M805 3590 c3 -5 8 -10 11 -10 2 0 4 5 4 10 0 6 -5 10 -11 10 -5 0 -7
-4 -4 -10z"/>
<path d="M2525 3580 c-4 -6 1 -13 9 -16 19 -7 52 3 42 13 -11 12 -45 13 -51 3z"/>
<path d="M863 3545 c30 -26 52 -32 62 -15 3 6 -2 10 -12 10 -11 0 -28 7 -39
15 -32 24 -41 16 -11 -10z"/>
<path d="M3843 3563 c9 -2 25 -2 35 0 9 3 1 5 -18 5 -19 0 -27 -2 -17 -5z"/>
<path d="M2487 3544 c-4 -4 -7 -18 -7 -31 0 -20 4 -23 25 -20 14 2 24 7 23 13
-1 5 -8 8 -15 6 -7 -2 -13 2 -13 8 0 5 3 9 8 8 4 -2 8 2 10 7 4 12 -21 19 -31
9z"/>
<path d="M2580 3520 c0 -16 5 -30 10 -30 6 0 10 6 10 14 0 8 3 21 6 30 4 11 1
16 -10 16 -11 0 -16 -9 -16 -30z"/>
<path d="M1200 3530 c-15 -4 7 -6 53 -5 43 1 80 4 82 7 8 7 -109 6 -135 -2z"/>
<path d="M1958 3523 c7 -3 16 -2 19 1 4 3 -2 6 -13 5 -11 0 -14 -3 -6 -6z"/>
<path d="M3547 3383 c-4 -3 -7 -11 -7 -17 0 -6 5 -5 12 2 6 6 9 14 7 17 -3 3
-9 2 -12 -2z"/>
<path d="M1506 3365 c4 -8 10 -12 15 -9 11 6 2 24 -11 24 -5 0 -7 -7 -4 -15z"/>
<path d="M1625 3350 c3 -5 8 -10 11 -10 2 0 4 5 4 10 0 6 -5 10 -11 10 -5 0
-7 -4 -4 -10z"/>
<path d="M1467 3343 c-13 -13 -7 -21 13 -16 11 3 20 9 20 14 0 10 -24 12 -33
2z"/>
<path d="M1668 3343 c-19 -5 -25 -43 -8 -43 6 0 10 7 10 15 0 8 7 15 15 15 8
0 15 5 15 10 0 10 -3 11 -32 3z"/>
<path d="M3541 3334 c0 -11 3 -14 6 -6 3 7 2 16 -1 19 -3 4 -6 -2 -5 -13z"/>
<path d="M1557 3333 c-12 -11 -8 -23 8 -23 8 0 15 7 15 15 0 16 -12 20 -23 8z"/>
<path d="M1405 3320 c3 -5 11 -10 16 -10 6 0 7 5 4 10 -3 6 -11 10 -16 10 -6
0 -7 -4 -4 -10z"/>
<path d="M3455 3310 c3 -5 10 -10 16 -10 5 0 9 5 9 10 0 6 -7 10 -16 10 -8 0
-12 -4 -9 -10z"/>
<path d="M1587 3294 c-9 -10 4 -34 19 -34 8 0 14 3 14 6 0 10 -27 33 -33 28z"/>
<path d="M1510 3281 c0 -5 5 -13 10 -16 6 -3 10 -2 10 4 0 5 -4 13 -10 16 -5
3 -10 2 -10 -4z"/>
<path d="M1546 3281 c-4 -7 -5 -15 -2 -18 9 -9 19 4 14 18 -4 11 -6 11 -12 0z"/>
<path d="M1680 3280 c0 -5 5 -10 10 -10 6 0 10 5 10 10 0 6 -4 10 -10 10 -5 0
-10 -4 -10 -10z"/>
<path d="M3510 3280 c0 -13 11 -13 30 0 12 8 11 10 -7 10 -13 0 -23 -4 -23
-10z"/>
<path d="M1640 3270 c0 -5 4 -10 9 -10 6 0 13 5 16 10 3 6 -1 10 -9 10 -9 0
-16 -4 -16 -10z"/>
<path d="M3470 3251 c0 -17 4 -31 8 -31 11 0 13 48 2 55 -6 4 -10 -7 -10 -24z"/>
<path d="M3580 3270 c0 -5 5 -10 10 -10 6 0 10 5 10 10 0 6 -4 10 -10 10 -5 0
-10 -4 -10 -10z"/>
<path d="M1470 3253 c0 -5 5 -15 10 -23 8 -12 10 -11 10 8 0 12 -4 22 -10 22
-5 0 -10 -3 -10 -7z"/>
<path d="M3640 3240 c0 -5 7 -10 16 -10 8 0 12 5 9 10 -3 6 -10 10 -16 10 -5
0 -9 -4 -9 -10z"/>
<path d="M1434 3215 c0 -14 7 -25 14 -25 13 0 15 10 6 34 -9 25 -22 19 -20 -9z"/>
<path d="M1500 3231 c0 -17 18 -21 24 -6 3 9 0 15 -9 15 -8 0 -15 -4 -15 -9z"/>
<path d="M1620 3220 c0 -5 5 -10 10 -10 6 0 10 -7 10 -15 0 -16 15 -20 24 -7
3 5 -4 16 -15 25 -22 20 -29 21 -29 7z"/>
<path d="M3515 3210 c-3 -5 1 -10 10 -10 9 0 13 5 10 10 -3 6 -8 10 -10 10 -2
0 -7 -4 -10 -10z"/>
<path d="M1365 3200 c-3 -5 3 -10 15 -10 12 0 18 5 15 10 -3 6 -10 10 -15 10
-5 0 -12 -4 -15 -10z"/>
<path d="M3422 3190 c0 -14 2 -19 5 -12 2 6 2 18 0 25 -3 6 -5 1 -5 -13z"/>
<path d="M3590 3206 c0 -2 7 -6 15 -10 8 -3 15 -1 15 4 0 6 -7 10 -15 10 -8 0
-15 -2 -15 -4z"/>
<path d="M1680 3184 c0 -8 5 -12 10 -9 6 4 8 11 5 16 -9 14 -15 11 -15 -7z"/>
<path d="M3425 3150 c-3 -5 -1 -10 4 -10 6 0 11 5 11 10 0 6 -2 10 -4 10 -3 0
-8 -4 -11 -10z"/>
<path d="M3485 3150 c-3 -5 -1 -10 4 -10 6 0 11 5 11 10 0 6 -2 10 -4 10 -3 0
-8 -4 -11 -10z"/>
<path d="M3658 3153 c7 -3 16 -2 19 1 4 3 -2 6 -13 5 -11 0 -14 -3 -6 -6z"/>
<path d="M1595 3141 c-10 -17 11 -21 31 -6 18 14 18 14 -3 15 -12 0 -24 -4
-28 -9z"/>
<path d="M3631 3134 c0 -11 3 -14 6 -6 3 7 2 16 -1 19 -3 4 -6 -2 -5 -13z"/>
<path d="M480 3085 c0 -9 6 -12 15 -9 8 4 15 7 15 9 0 2 -7 5 -15 9 -9 3 -15
0 -15 -9z"/>
<path d="M482 3040 c0 -14 2 -19 5 -12 2 6 2 18 0 25 -3 6 -5 1 -5 -13z"/>
<path d="M3560 3050 c0 -5 5 -10 10 -10 6 0 10 5 10 10 0 6 -4 10 -10 10 -5 0
-10 -4 -10 -10z"/>
<path d="M3455 3040 c-3 -5 -1 -10 4 -10 6 0 11 5 11 10 0 6 -2 10 -4 10 -3 0
-8 -4 -11 -10z"/>
<path d="M478 2993 c28 -2 76 -2 105 0 28 2 5 3 -53 3 -58 0 -81 -1 -52 -3z"/>
<path d="M4087 2983 c18 -2 50 -2 70 0 21 2 7 4 -32 4 -38 0 -55 -2 -38 -4z"/>
<path d="M435 2942 c-3 -7 -5 -42 -5 -77 0 -58 -2 -63 -20 -58 -11 3 -20 0
-20 -6 0 -6 9 -11 19 -11 16 0 20 -8 23 -37 2 -20 9 -38 16 -41 10 -3 12 4 7
32 -9 43 -9 44 -7 124 l2 62 85 0 c66 0 85 3 85 14 0 20 -177 18 -185 -2z"/>
<path d="M4410 2949 c0 -5 23 -9 52 -9 28 0 49 2 47 4 -9 8 -99 13 -99 5z"/>
<path d="M4063 2938 c1 -10 -34 -14 -142 -16 -80 -2 -152 -8 -160 -13 -11 -7
71 -8 249 -4 284 6 380 13 380 26 0 5 -12 6 -27 3 -46 -8 -283 -10 -283 -2 0
4 21 9 48 11 46 3 46 3 -10 5 -42 1 -57 -1 -55 -10z"/>
<path d="M4520 2939 c0 -5 34 -9 75 -9 72 0 76 -1 85 -26 6 -14 10 -41 10 -60
0 -27 4 -34 20 -34 11 0 20 5 20 10 0 6 -7 10 -15 10 -10 0 -15 10 -15 30 0
39 -20 80 -39 81 -104 6 -141 6 -141 -2z"/>
<path d="M746 2921 c5 -5 144 -11 309 -14 172 -4 294 -3 285 2 -19 11 -606 23
-594 12z"/>
<path d="M488 2778 l-3 -118 25 1 c18 1 20 3 7 6 -16 4 -18 15 -15 106 l3 102
33 3 32 3 0 -115 c0 -64 0 -119 0 -123 0 -5 -20 -8 -44 -8 -57 0 -73 -15 -18
-16 23 -1 48 -2 55 -3 7 0 12 -15 12 -36 0 -28 -4 -34 -18 -32 -9 2 -17 -2
-17 -8 0 -5 7 -10 15 -10 13 0 15 -22 15 -140 l0 -140 -34 0 -35 0 -3 141 c-3
132 -2 142 16 149 18 6 18 7 -4 13 -19 5 -21 9 -12 20 12 14 7 27 -10 27 -9 0
-11 -184 -2 -291 l7 -74 48 -1 49 -1 -2 329 -3 330 -47 2 -47 2 -3 -118z"/>
<path d="M4541 2720 c3 -104 8 -170 14 -170 6 0 9 58 7 159 -3 155 -2 159 18
164 41 11 50 -1 50 -65 0 -36 4 -57 10 -53 8 5 8 40 1 123 -1 8 -18 12 -52 12
l-51 0 3 -170z"/>
<path d="M821 2876 c9 -9 189 -15 189 -6 0 6 -42 10 -97 10 -53 0 -94 -2 -92
-4z"/>
<path d="M1352 2850 c1 -40 18 -50 18 -11 0 16 -4 32 -9 36 -5 3 -9 -8 -9 -25z"/>
<path d="M3738 2874 c-5 -4 -8 -59 -8 -123 0 -79 3 -112 10 -105 7 7 10 55 8
123 -2 62 -6 109 -10 105z"/>
<path d="M4507 2813 c-9 -93 -7 -476 3 -538 4 -30 8 80 9 278 0 180 -1 327 -3
327 -2 0 -6 -30 -9 -67z"/>
<path d="M1270 2830 c0 -19 3 -21 12 -12 9 9 9 15 0 24 -9 9 -12 7 -12 -12z"/>
<path d="M3835 2830 c-7 -12 2 -30 16 -30 12 0 12 27 0 35 -5 3 -12 1 -16 -5z"/>
<path d="M4362 2789 c2 -7 10 -15 17 -17 8 -3 12 1 9 9 -2 7 -10 15 -17 17 -8
3 -12 -1 -9 -9z"/>
<path d="M730 2774 c0 -17 22 -14 28 4 2 7 -3 12 -12 12 -9 0 -16 -7 -16 -16z"/>
<path d="M1410 2708 c0 -36 4 -48 15 -48 17 0 20 16 4 26 -6 3 -9 14 -6 24 2
10 1 24 -4 31 -6 9 -9 -3 -9 -33z"/>
<path d="M4673 2743 c-7 -2 -13 -13 -13 -24 0 -18 1 -18 20 -2 30 26 26 40 -7
26z"/>
<path d="M1301 2704 c0 -11 3 -14 6 -6 3 7 2 16 -1 19 -3 4 -6 -2 -5 -13z"/>
<path d="M830 2700 c0 -5 5 -10 10 -10 6 0 10 5 10 10 0 6 -4 10 -10 10 -5 0
-10 -4 -10 -10z"/>
<path d="M870 2666 c0 -25 5 -48 10 -51 6 -4 10 11 10 39 0 25 -4 48 -10 51
-6 4 -10 -11 -10 -39z"/>
<path d="M943 2660 c0 -30 2 -43 4 -27 2 15 2 39 0 55 -2 15 -4 2 -4 -28z"/>
<path d="M912 2670 c0 -19 2 -27 5 -17 2 9 2 25 0 35 -3 9 -5 1 -5 -18z"/>
<path d="M4216 2691 c-4 -7 -5 -15 -2 -18 9 -9 19 4 14 18 -4 11 -6 11 -12 0z"/>
<path d="M4691 2674 c0 -11 3 -14 6 -6 3 7 2 16 -1 19 -3 4 -6 -2 -5 -13z"/>
<path d="M1460 2670 c-12 -7 -10 -9 7 -7 12 0 19 5 17 9 -6 10 -6 10 -24 -2z"/>
<path d="M4639 2673 c-3 -19 2 -118 6 -122 3 -2 5 26 5 62 0 37 -2 67 -5 67
-3 0 -6 -3 -6 -7z"/>
<path d="M4692 2630 c0 -14 2 -19 5 -12 2 6 2 18 0 25 -3 6 -5 1 -5 -13z"/>
<path d="M621 2516 c0 -71 2 -126 5 -123 11 11 15 149 5 202 -7 42 -9 30 -10
-79z"/>
<path d="M1303 2605 c0 -22 2 -30 4 -17 2 12 2 30 0 40 -3 9 -5 -1 -4 -23z"/>
<path d="M1522 2610 c0 -19 2 -27 5 -17 2 9 2 25 0 35 -3 9 -5 1 -5 -18z"/>
<path d="M3590 2611 c0 -14 -5 -19 -14 -15 -8 3 -23 1 -33 -5 -15 -8 -10 -10
25 -11 35 0 42 3 42 19 0 11 -4 23 -10 26 -5 3 -10 -3 -10 -14z"/>
<path d="M1123 2603 c-18 -3 -23 -11 -22 -31 2 -24 2 -24 6 -4 6 31 31 28 36
-5 3 -23 4 -21 6 10 0 20 0 36 -1 36 -2 -1 -13 -4 -25 -6z"/>
<path d="M1173 2603 c-7 -2 -13 -17 -12 -31 l1 -27 8 25 8 25 1 -27 c1 -41 21
-34 21 7 0 35 -3 38 -27 28z"/>
<path d="M1588 2603 c7 -3 16 -2 19 1 4 3 -2 6 -13 5 -11 0 -14 -3 -6 -6z"/>
<path d="M3998 2603 c-24 -4 -28 -9 -28 -35 0 -27 13 -33 16 -7 1 5 2 14 3 19
1 7 7 7 20 1 10 -6 21 -7 25 -4 9 9 8 33 -1 32 -5 -1 -20 -4 -35 -6z"/>
<path d="M4312 2580 c0 -19 2 -27 5 -17 2 9 2 25 0 35 -3 9 -5 1 -5 -18z"/>
<path d="M4340 2580 c0 -23 4 -30 20 -30 14 0 18 5 13 16 -5 13 -7 13 -14 2
-7 -10 -9 -9 -9 5 0 9 5 17 10 17 6 0 10 5 10 10 0 6 -7 10 -15 10 -10 0 -15
-10 -15 -30z"/>
<path d="M769 2600 c-8 -32 -6 -61 4 -57 16 5 21 37 8 50 -6 6 -12 9 -12 7z"/>
<path d="M811 2570 c1 -17 3 -19 6 -7 2 9 8 17 13 17 5 0 7 -7 4 -15 -4 -8 -1
-15 5 -15 6 0 11 11 11 24 0 19 -5 24 -20 23 -15 -1 -20 -8 -19 -27z"/>
<path d="M870 2575 c0 -14 5 -25 10 -25 6 0 10 11 10 25 0 14 -4 25 -10 25 -5
0 -10 -11 -10 -25z"/>
<path d="M915 2590 c-3 -5 -1 -18 4 -27 9 -16 10 -14 11 10 0 28 -5 34 -15 17z"/>
<path d="M1078 2575 c2 -14 6 -25 8 -25 2 0 4 11 4 25 0 14 -4 25 -9 25 -4 0
-6 -11 -3 -25z"/>
<path d="M1262 2570 c0 -19 2 -27 5 -17 2 9 2 25 0 35 -3 9 -5 1 -5 -18z"/>
<path d="M4160 2575 c0 -14 5 -25 10 -25 6 0 10 11 10 25 0 14 -4 25 -10 25
-5 0 -10 -11 -10 -25z"/>
<path d="M4201 2573 c0 -25 1 -26 9 -8 12 27 12 35 0 35 -5 0 -10 -12 -9 -27z"/>
<path d="M4234 2584 c3 -9 6 -20 6 -25 0 -5 3 -9 8 -9 4 0 7 11 7 25 0 14 -6
25 -14 25 -8 0 -11 -6 -7 -16z"/>
<path d="M4280 2575 c0 -14 4 -25 9 -25 4 0 6 11 3 25 -2 14 -6 25 -8 25 -2 0
-4 -11 -4 -25z"/>
<path d="M530 2580 c0 -5 7 -10 15 -10 8 0 15 5 15 10 0 6 -7 10 -15 10 -8 0
-15 -4 -15 -10z"/>
<path d="M947 2574 c4 -11 8 -12 13 -4 5 8 9 7 13 -4 4 -10 18 -16 37 -16 23
0 30 4 30 20 0 17 -7 20 -50 20 -41 0 -48 -3 -43 -16z m76 -1 c-7 -2 -19 -2
-25 0 -7 3 -2 5 12 5 14 0 19 -2 13 -5z"/>
<path d="M3465 2563 c2 -16 4 -32 4 -37 2 -21 16 8 17 35 1 18 -3 29 -11 29
-9 0 -12 -10 -10 -27z"/>
<path d="M4090 2570 c0 -11 7 -20 15 -20 10 0 12 6 8 18 -7 16 -6 16 11 0 22
-23 26 -22 26 2 0 16 -7 20 -30 20 -23 0 -30 -4 -30 -20z"/>
<path d="M1440 2561 c0 -10 9 -21 19 -24 24 -6 31 0 31 25 0 13 -7 18 -25 18
-18 0 -25 -5 -25 -19z"/>
<path d="M1555 2570 c-2 -4 -1 -16 2 -28 4 -18 13 -22 44 -22 37 0 39 2 39 30
0 28 -2 30 -40 28 -23 -1 -43 -4 -45 -8z m64 -14 c9 -11 7 -15 -11 -19 -28 -8
-49 10 -28 23 20 13 26 12 39 -4z"/>
<path d="M4690 2570 c0 -5 5 -10 10 -10 6 0 10 5 10 10 0 6 -4 10 -10 10 -5 0
-10 -4 -10 -10z"/>
<path d="M1660 2558 c0 -21 17 -41 28 -34 14 8 3 46 -14 46 -8 0 -14 -6 -14
-12z"/>
<path d="M3180 2559 c-25 -3 -48 -5 -52 -3 -4 3 -9 0 -13 -6 -4 -7 17 -10 59
-9 36 1 66 5 66 10 0 14 -13 16 -60 8z"/>
<path d="M3630 2549 c0 -16 5 -20 27 -17 17 2 29 10 31 21 3 13 -3 17 -27 17
-25 0 -31 -4 -31 -21z m40 1 c0 -5 -4 -10 -10 -10 -5 0 -10 5 -10 10 0 6 5 10
10 10 6 0 10 -4 10 -10z"/>
<path d="M1300 2549 c0 -5 5 -7 10 -4 6 3 10 8 10 11 0 2 -4 4 -10 4 -5 0 -10
-5 -10 -11z"/>
<path d="M1520 2550 c0 -5 5 -10 10 -10 6 0 10 5 10 10 0 6 -4 10 -10 10 -5 0
-10 -4 -10 -10z"/>
<path d="M3345 2550 c3 -5 8 -10 11 -10 2 0 4 5 4 10 0 6 -5 10 -11 10 -5 0
-7 -4 -4 -10z"/>
<path d="M3417 2540 c-6 -23 3 -26 21 -8 16 16 15 28 -2 28 -7 0 -16 -9 -19
-20z"/>
<path d="M3512 2536 c2 -12 8 -19 13 -17 6 1 9 7 8 12 -2 5 11 9 27 9 26 0 30
-4 30 -27 0 -33 5 -28 13 14 l6 32 -50 -1 c-45 -1 -50 -4 -47 -22z"/>
<path d="M4000 2550 c0 -5 7 -10 15 -10 8 0 15 5 15 10 0 6 -7 10 -15 10 -8 0
-15 -4 -15 -10z"/>
<path d="M4550 2522 c0 -4 17 -6 38 -4 64 6 69 10 15 11 -29 0 -53 -3 -53 -7z"/>
<path d="M3730 2383 c0 -100 4 -143 13 -151 15 -12 307 -23 307 -11 0 5 -67
10 -150 11 l-150 3 -5 139 c-3 77 -7 142 -10 144 -3 3 -5 -58 -5 -135z"/>
<path d="M835 2497 c-4 -10 -5 -21 -1 -24 10 -10 18 4 13 24 -4 17 -4 17 -12
0z"/>
<path d="M880 2469 c0 -22 4 -38 8 -35 8 5 4 76 -4 76 -2 0 -4 -18 -4 -41z"/>
<path d="M921 2480 c-1 -29 3 -36 19 -37 11 -1 20 2 20 8 0 5 -5 8 -12 7 -7
-2 -15 11 -19 27 l-7 30 -1 -35z"/>
<path d="M946 2502 c-2 -4 -1 -14 3 -21 6 -10 10 -9 14 3 6 16 -8 32 -17 18z"/>
<path d="M1015 2500 c3 -5 8 -10 11 -10 2 0 4 5 4 10 0 6 -5 10 -11 10 -5 0
-7 -4 -4 -10z"/>
<path d="M1048 2503 c6 -2 18 -2 25 0 6 3 1 5 -13 5 -14 0 -19 -2 -12 -5z"/>
<path d="M4123 2494 c-3 -8 -1 -20 6 -27 8 -8 11 -4 11 16 0 30 -7 35 -17 11z"/>
<path d="M4160 2486 c0 -14 5 -28 10 -31 6 -4 10 7 10 24 0 17 -4 31 -10 31
-5 0 -10 -11 -10 -24z"/>
<path d="M4198 2475 c-3 -14 -1 -28 3 -31 5 -3 9 9 9 25 0 38 -6 40 -12 6z"/>
<path d="M4233 2465 c0 -22 2 -30 4 -17 2 12 2 30 0 40 -3 9 -5 -1 -4 -23z"/>
<path d="M4551 2460 c1 -31 2 -32 8 -10 6 21 13 25 50 26 62 3 61 12 -3 16
l-56 3 1 -35z"/>
<path d="M4637 2453 c-4 -3 -7 -11 -7 -17 0 -6 5 -5 12 2 6 6 9 14 7 17 -3 3
-9 2 -12 -2z"/>
<path d="M830 2440 c0 -5 5 -10 10 -10 6 0 10 5 10 10 0 6 -4 10 -10 10 -5 0
-10 -4 -10 -10z"/>
<path d="M4590 2440 c0 -5 5 -10 10 -10 6 0 10 5 10 10 0 6 -4 10 -10 10 -5 0
-10 -4 -10 -10z"/>
<path d="M4270 2420 c0 -5 5 -10 11 -10 5 0 7 5 4 10 -3 6 -8 10 -11 10 -2 0
-4 -4 -4 -10z"/>
<path d="M426 2411 c-3 -5 0 -12 6 -14 10 -4 10 -8 -1 -15 -7 -5 -12 -15 -9
-22 6 -19 37 15 34 37 -3 20 -21 29 -30 14z"/>
<path d="M4548 2314 l-3 -104 53 0 52 0 0 100 c0 55 -4 100 -9 100 -4 0 -8
-24 -8 -52 1 -29 0 -72 -1 -95 -2 -42 -3 -43 -34 -40 l-33 2 -3 80 c-2 63 0
82 13 91 14 10 13 12 -4 17 -19 4 -20 -2 -23 -99z"/>
<path d="M4677 2403 c-8 -12 4 -63 14 -63 5 0 6 12 3 27 -6 22 -4 25 10 20 12
-5 16 -3 14 5 -5 15 -34 23 -41 11z"/>
<path d="M1280 2366 c0 -20 5 -36 10 -36 6 0 10 11 10 25 0 14 0 28 1 32 0 4
-4 9 -10 11 -7 2 -11 -11 -11 -32z"/>
<path d="M4151 2384 c0 -11 3 -14 6 -6 3 7 2 16 -1 19 -3 4 -6 -2 -5 -13z"/>
<path d="M3840 2365 c0 -17 5 -25 13 -22 6 2 12 12 12 22 0 10 -6 20 -12 23
-8 2 -13 -6 -13 -23z"/>
<path d="M732 2356 c1 -10 8 -17 13 -17 15 1 12 24 -3 29 -9 3 -13 -2 -10 -12z"/>
<path d="M4350 2345 c0 -8 5 -15 10 -15 6 0 10 7 10 15 0 8 -4 15 -10 15 -5 0
-10 -7 -10 -15z"/>
<path d="M1358 2291 c-4 -68 8 -72 18 -6 3 25 11 45 16 45 5 0 6 5 3 10 -3 6
-12 10 -20 10 -9 0 -14 -18 -17 -59z"/>
<path d="M431 2325 c-1 -5 -5 -36 -7 -67 -5 -55 -4 -59 20 -70 15 -6 26 -14
26 -17 0 -9 137 -4 152 6 8 5 -25 10 -82 13 l-95 5 -6 70 c-3 39 -7 66 -8 60z"/>
<path d="M4689 2235 l-4 -70 -127 1 c-71 1 -128 -2 -128 -6 0 -13 51 -18 160
-17 l105 2 3 62 c2 34 2 70 -1 80 -2 10 -6 -13 -8 -52z"/>
<path d="M1184 2232 c-52 -2 -84 -7 -84 -14 0 -6 9 -8 23 -4 12 3 66 6 120 6
60 0 97 4 97 10 0 6 -16 9 -36 8 -20 -2 -74 -4 -120 -6z"/>
<path d="M850 2210 c0 -5 -20 -10 -45 -10 -25 0 -45 -4 -45 -9 0 -11 81 -2 95
10 5 5 38 9 73 9 49 0 68 -4 77 -16 10 -14 18 -15 51 -6 38 11 38 11 6 8 -22
-2 -36 2 -39 11 -6 16 -173 19 -173 3z"/>
<path d="M4062 2215 c4 -4 61 -8 128 -9 94 -1 123 -5 131 -16 8 -12 9 -11 7 5
-3 19 -12 20 -138 23 -74 2 -132 0 -128 -3z"/>
<path d="M918 2183 c7 -3 16 -2 19 1 4 3 -2 6 -13 5 -11 0 -14 -3 -6 -6z"/>
<path d="M4060 2169 c0 -5 28 -9 63 -8 71 1 67 5 -10 12 -29 2 -53 0 -53 -4z"/>
<path d="M1500 2149 c0 -5 5 -7 10 -4 6 3 10 8 10 11 0 2 -4 4 -10 4 -5 0 -10
-5 -10 -11z"/>
<path d="M4360 2156 c0 -9 30 -14 35 -6 4 6 -3 10 -14 10 -12 0 -21 -2 -21 -4z"/>
<path d="M948 2143 c6 -2 18 -2 25 0 6 3 1 5 -13 5 -14 0 -19 -2 -12 -5z"/>
<path d="M1628 2123 c6 -2 18 -2 25 0 6 3 1 5 -13 5 -14 0 -19 -2 -12 -5z"/>
<path d="M1675 2120 c3 -5 8 -10 11 -10 2 0 4 5 4 10 0 6 -5 10 -11 10 -5 0
-7 -4 -4 -10z"/>
<path d="M4540 2089 c0 -11 25 -22 39 -17 6 1 -1 8 -14 15 -14 6 -25 7 -25 2z"/>
<path d="M4636 2075 c4 -8 8 -15 10 -15 2 0 4 7 4 15 0 8 -4 15 -10 15 -5 0
-7 -7 -4 -15z"/>
<path d="M1571 2064 c0 -11 3 -14 6 -6 3 7 2 16 -1 19 -3 4 -6 -2 -5 -13z"/>
<path d="M1515 1980 c3 -5 8 -10 11 -10 2 0 4 5 4 10 0 6 -5 10 -11 10 -5 0
-7 -4 -4 -10z"/>
<path d="M1580 1975 c0 -8 5 -15 10 -15 6 0 10 7 10 15 0 8 -4 15 -10 15 -5 0
-10 -7 -10 -15z"/>
<path d="M1620 1980 c0 -5 5 -10 10 -10 6 0 10 5 10 10 0 6 -4 10 -10 10 -5 0
-10 -4 -10 -10z"/>
<path d="M1490 1951 c0 -6 5 -13 10 -16 6 -3 10 1 10 9 0 9 -4 16 -10 16 -5 0
-10 -4 -10 -9z"/>
<path d="M1540 1951 c0 -10 19 -25 25 -20 1 2 -3 10 -11 17 -8 7 -14 8 -14 3z"/>
<path d="M1631 1933 c0 -10 4 -27 9 -38 7 -16 9 -13 9 18 1 20 -3 37 -9 37 -5
0 -10 -8 -9 -17z"/>
<path d="M3457 1939 c7 -7 15 -10 18 -7 3 3 -2 9 -12 12 -14 6 -15 5 -6 -5z"/>
<path d="M3461 1904 c0 -11 3 -14 6 -6 3 7 2 16 -1 19 -3 4 -6 -2 -5 -13z"/>
<path d="M3547 1904 c6 -16 19 -18 27 -5 3 5 -3 11 -13 14 -14 3 -18 1 -14 -9z"/>
<path d="M1595 1900 c-3 -5 -1 -10 4 -10 6 0 11 5 11 10 0 6 -2 10 -4 10 -3 0
-8 -4 -11 -10z"/>
<path d="M3638 1903 c7 -3 16 -2 19 1 4 3 -2 6 -13 5 -11 0 -14 -3 -6 -6z"/>
<path d="M1510 1860 c0 -5 5 -10 10 -10 6 0 10 5 10 10 0 6 -4 10 -10 10 -5 0
-10 -4 -10 -10z"/>
<path d="M3505 1861 c-6 -11 9 -23 19 -14 9 9 7 23 -3 23 -6 0 -12 -4 -16 -9z"/>
<path d="M3645 1860 c-3 -5 -1 -10 4 -10 6 0 11 5 11 10 0 6 -2 10 -4 10 -3 0
-8 -4 -11 -10z"/>
<path d="M3420 1846 c0 -8 4 -17 9 -20 10 -7 23 19 14 28 -11 11 -23 6 -23 -8z"/>
<path d="M1605 1830 c3 -5 8 -10 11 -10 2 0 4 5 4 10 0 6 -5 10 -11 10 -5 0
-7 -4 -4 -10z"/>
<path d="M1640 1810 c6 -11 15 -20 20 -20 17 0 11 15 -11 28 -19 12 -19 11 -9
-8z"/>
<path d="M3527 1823 c-9 -2 -15 -8 -12 -13 6 -10 45 -1 45 11 0 9 -4 10 -33 2z"/>
<path d="M1581 1794 c0 -11 3 -14 6 -6 3 7 2 16 -1 19 -3 4 -6 -2 -5 -13z"/>
<path d="M3440 1785 c0 -8 5 -15 10 -15 6 0 10 7 10 15 0 8 -4 15 -10 15 -5 0
-10 -7 -10 -15z"/>
<path d="M2628 1643 c7 -3 16 -2 19 1 4 3 -2 6 -13 5 -11 0 -14 -3 -6 -6z"/>
<path d="M872 1552 c-32 -32 -64 -72 -71 -89 -7 -17 -22 -35 -34 -41 l-22 -11
21 0 c12 -1 27 -8 34 -16 11 -13 4 -25 -46 -79 -32 -35 -67 -64 -76 -65 -29
-2 -20 -20 17 -35 19 -8 35 -21 36 -28 0 -8 3 -6 7 4 10 25 110 128 124 128 8
1 7 6 -4 14 -14 10 -15 15 -5 26 9 10 9 12 -3 8 -8 -3 -14 -14 -13 -24 2 -22
-98 -124 -122 -124 -24 0 -19 10 45 76 59 61 78 106 48 116 -12 4 18 43 89
111 23 23 39 45 37 49 -14 22 15 3 44 -29 29 -33 31 -38 15 -44 -10 -4 -43
-33 -73 -64 -30 -32 -46 -53 -35 -47 11 6 29 20 40 32 11 12 37 36 58 53 32
24 41 27 48 16 10 -16 12 -36 3 -26 -6 6 -84 -78 -84 -91 0 -4 20 14 45 41 25
26 50 47 55 47 6 0 23 12 38 26 15 14 39 33 55 42 27 16 36 32 17 32 -15 0
-63 -23 -89 -42 -24 -18 -25 -18 -40 4 -26 37 -78 88 -90 88 -6 0 -37 -26 -69
-58z"/>
<path d="M1063 1585 c-18 -8 -33 -18 -33 -24 0 -10 56 15 65 30 8 11 7 11 -32
-6z"/>
<path d="M4195 1590 c-3 -5 3 -10 15 -10 12 0 18 5 15 10 -3 6 -10 10 -15 10
-5 0 -12 -4 -15 -10z"/>
<path d="M2460 1580 c-14 -4 -19 -9 -12 -10 32 -6 46 -4 50 8 4 13 -1 14 -38
2z"/>
<path d="M2526 1564 c-8 -21 1 -34 23 -34 24 0 30 8 24 31 -6 23 -38 25 -47 3z"/>
<path d="M4162 1568 c-7 -7 -12 -15 -12 -19 0 -4 -13 -21 -30 -39 l-30 -32
-31 26 c-17 14 -43 26 -57 26 -26 -1 -26 -1 -7 -15 11 -8 40 -29 64 -47 27
-20 46 -28 48 -21 11 33 78 103 98 103 32 0 72 -35 85 -75 10 -32 14 -34 33
-23 12 6 25 15 28 21 12 17 44 -2 102 -60 37 -37 57 -51 57 -40 0 18 -30 51
-85 92 -33 26 -53 28 -95 12 -10 -5 -23 6 -39 33 -30 48 -105 82 -129 58z"/>
<path d="M2620 1546 c0 -17 5 -26 16 -26 10 0 14 7 12 22 -5 32 -28 35 -28 4z"/>
<path d="M3898 1563 c17 -2 47 -2 65 0 17 2 3 4 -33 4 -36 0 -50 -2 -32 -4z"/>
<path d="M3769 1516 c-36 -24 -82 -63 -101 -87 -42 -51 -91 -145 -85 -162 2
-7 16 13 32 43 35 70 144 183 201 209 24 12 44 26 44 31 0 19 -25 9 -91 -34z"/>
<path d="M1370 1530 c8 -5 20 -10 25 -10 6 0 3 5 -5 10 -8 5 -19 10 -25 10 -5
0 -3 -5 5 -10z"/>
<path d="M1270 1515 c-7 -9 -10 -18 -7 -22 8 -7 37 15 37 28 0 14 -16 11 -30
-6z"/>
<path d="M1123 1470 c-22 -17 -43 -40 -46 -52 -5 -19 -2 -18 21 8 15 16 38 37
51 47 14 9 22 19 20 22 -3 2 -24 -9 -46 -25z"/>
<path d="M3895 1490 c-7 -12 16 -62 30 -66 6 -2 19 4 30 12 20 15 20 16 -8 40
-31 26 -42 29 -52 14z"/>
<path d="M2285 1480 c-12 -6 91 -7 255 -4 151 2 276 7 279 9 8 9 -514 4 -534
-5z"/>
<path d="M1200 1465 c-19 -23 -1 -39 21 -19 10 9 16 21 13 25 -8 13 -20 11
-34 -6z"/>
<path d="M2841 1053 c-1 -276 2 -423 9 -423 12 0 12 718 0 795 -4 29 -8 -129
-9 -372z"/>
<path d="M624 1411 l-51 -49 -7 -396 -7 -396 536 -2 535 -3 0 29 c0 23 -3 27
-17 21 -26 -9 -713 6 -707 17 3 4 3 16 0 26 -8 23 -265 266 -273 258 -4 -4 53
-65 126 -136 73 -71 131 -133 128 -137 -3 -5 0 -16 7 -25 9 -13 31 -18 87 -21
41 -1 16 -3 -56 -4 -71 0 -116 2 -100 6 l30 7 -25 7 c-14 4 -70 7 -126 7
l-101 0 -7 167 c-5 117 -3 168 4 173 8 5 9 59 4 183 l-7 177 42 45 c22 24 41
49 41 54 0 5 3 16 6 25 11 28 -10 17 -62 -33z m141 -815 c17 -1 -16 -4 -72 -4
-57 -1 -103 1 -103 6 0 6 105 6 175 -2z m463 -3 c-27 -2 -69 -2 -95 0 -27 2
-5 3 47 3 52 0 74 -1 48 -3z"/>
<path d="M2264 1093 c9 -455 9 -453 19 -453 5 0 6 39 3 88 -4 48 -8 230 -9
405 -1 181 -5 317 -11 317 -5 0 -6 -146 -2 -357z"/>
<path d="M982 1374 c-137 -140 -211 -206 -223 -198 -8 5 -9 3 -4 -5 7 -13 -86
-113 -115 -123 -8 -3 -12 -9 -8 -13 4 -4 18 -1 30 8 42 28 392 377 385 383 -4
4 -33 -20 -65 -52z"/>
<path d="M4102 1421 c-10 -6 15 -38 95 -122 60 -63 129 -136 153 -163 25 -26
55 -52 67 -57 13 -5 23 -13 23 -19 0 -6 -5 -8 -11 -4 -7 4 -4 -7 7 -25 17 -29
44 -42 44 -21 0 6 -7 10 -15 10 -8 0 -16 6 -16 13 -1 6 -2 17 -3 22 0 6 -42
53 -93 104 -51 52 -91 96 -90 100 1 3 -2 7 -8 9 -15 5 -45 34 -45 44 0 20 24
2 106 -82 49 -49 94 -90 100 -90 5 0 20 -9 33 -21 28 -26 38 -18 22 17 -7 17
-17 24 -26 20 -16 -6 -57 32 -49 46 3 4 -4 8 -16 8 -12 0 -51 29 -93 68 -97
93 -163 152 -168 152 -2 0 -10 -4 -17 -9z m83 -64 c16 -14 27 -29 24 -32 -4
-3 -27 16 -53 41 -47 48 -64 73 -23 37 12 -11 35 -32 52 -46z"/>
<path d="M3863 1395 c4 -8 1 -17 -5 -21 -7 -5 -8 -2 -3 7 10 16 -22 -8 -77
-60 -21 -19 -38 -40 -38 -45 0 -6 23 12 51 39 34 33 46 41 34 22 -10 -15 -23
-31 -29 -35 -20 -13 -62 -65 -44 -56 23 13 138 140 138 153 0 6 -7 11 -16 11
-10 0 -14 -6 -11 -15z"/>
<path d="M1107 1394 c-3 -3 -3 -12 0 -20 6 -16 33 -19 33 -3 0 6 6 9 13 6 6
-2 11 -14 9 -25 -4 -27 9 -28 25 -3 10 15 9 22 -3 31 -16 14 -68 23 -77 14z"/>
<path d="M3960 1395 c0 -9 24 -50 34 -56 11 -8 46 1 46 12 0 4 -4 11 -10 14
-5 3 -10 1 -10 -5 0 -8 -6 -8 -20 0 -11 6 -20 17 -20 25 0 8 -4 15 -10 15 -5
0 -10 -2 -10 -5z"/>
<path d="M4051 1377 c14 -13 28 -31 32 -40 6 -17 27 -24 27 -9 0 11 -67 72
-77 72 -5 0 4 -11 18 -23z"/>
<path d="M4525 980 l6 -390 -223 1 c-125 1 -205 5 -183 9 27 5 2 8 -82 9 -89
1 -123 -2 -126 -11 -4 -10 -6 -10 -6 0 -1 6 -6 12 -12 12 -5 0 -7 -5 -3 -11 5
-8 1 -8 -14 0 -26 14 -146 15 -137 1 3 -6 -39 -11 -112 -13 -65 -1 67 -4 292
-7 226 -2 421 -3 435 -3 14 0 62 1 106 2 l81 1 1 378 c1 207 -1 385 -4 395 -3
9 -10 17 -15 17 -6 0 -8 -138 -4 -390z"/>
<path d="M858 1288 c-83 -81 -66 -71 27 16 33 30 57 56 54 56 -4 0 -40 -33
-81 -72z"/>
<path d="M1307 1340 c4 -15 0 -20 -13 -20 -14 0 -15 -3 -6 -12 15 -15 53 17
45 38 -8 22 -32 17 -26 -6z"/>
<path d="M2395 1354 c69 -7 363 -8 358 -1 -2 4 -91 6 -196 5 -106 0 -178 -3
-162 -4z"/>
<path d="M1261 1334 c0 -11 3 -14 6 -6 3 7 2 16 -1 19 -3 4 -6 -2 -5 -13z"/>
<path d="M1110 1330 c0 -5 5 -10 11 -10 5 0 7 5 4 10 -3 6 -8 10 -11 10 -2 0
-4 -4 -4 -10z"/>
<path d="M1202 1327 c-8 -9 -1 -23 26 -53 20 -21 47 -53 60 -69 17 -22 25 -26
31 -16 10 15 -9 71 -23 71 -5 0 -17 10 -28 22 -16 19 -21 20 -28 8 -8 -12 -10
-12 -16 3 -3 9 -1 24 6 32 10 12 10 15 -3 15 -8 0 -19 -6 -25 -13z"/>
<path d="M1360 1305 c27 -14 36 -13 25 4 -3 6 -16 11 -28 11 -21 -1 -21 -1 3
-15z"/>
<path d="M2332 1311 c-13 -8 -6 -41 8 -41 10 0 20 39 11 44 -4 3 -13 1 -19 -3z"/>
<path d="M3935 1259 c-78 -78 -90 -85 -121 -64 -13 8 -24 20 -24 25 0 6 -9 10
-20 10 -21 0 -27 -24 -9 -36 7 -4 1 -17 -16 -34 -27 -29 -27 -50 2 -50 9 0 13
6 10 14 -4 11 -1 13 10 9 13 -5 15 -2 11 15 -7 25 4 29 22 7 15 -18 60 -20 60
-4 0 12 29 38 43 39 15 0 6 -17 -24 -48 -17 -18 -39 -32 -49 -32 -9 0 -25 -9
-36 -21 -16 -17 -16 -22 -4 -29 8 -6 17 -10 21 -10 10 0 89 83 89 94 0 6 30
41 67 78 57 57 65 69 53 82 -7 9 -15 16 -19 15 -3 0 -33 -27 -66 -60z m30 -19
c-27 -27 -51 -47 -54 -45 -3 3 17 28 44 55 27 27 51 47 54 45 3 -3 -17 -28
-44 -55z m-157 -59 c3 -8 -1 -12 -9 -9 -7 2 -15 10 -17 17 -3 8 1 12 9 9 7 -2
15 -10 17 -17z m22 -100 c0 -5 -7 -11 -14 -14 -10 -4 -13 -1 -9 9 6 15 23 19
23 5z"/>
<path d="M2765 1300 c-10 -17 12 -37 25 -24 8 8 6 15 -4 23 -10 9 -16 9 -21 1z"/>
<path d="M3703 1293 c9 -9 19 -14 23 -11 10 10 -6 28 -24 28 -15 0 -15 -1 1
-17z"/>
<path d="M1312 1278 c5 -15 37 -18 41 -3 1 6 -9 12 -22 13 -16 3 -22 -1 -19
-10z"/>
<path d="M4477 1278 c-14 -35 -15 -45 -7 -59 14 -21 22 -5 18 37 -3 28 -6 34
-11 22z"/>
<path d="M1491 1274 c-1 -6 -18 -30 -38 -54 -26 -30 -31 -39 -16 -31 28 15 66
68 60 84 -3 6 -6 7 -6 1z"/>
<path d="M4151 1257 c-8 -11 -5 -19 13 -36 21 -20 24 -20 36 -5 12 13 12 15
-1 14 -7 -1 -21 -2 -29 0 -11 1 -10 3 3 9 16 6 17 9 4 19 -11 10 -17 9 -26 -1z"/>
<path d="M2640 1240 c0 -5 16 -10 35 -10 19 0 35 5 35 10 0 6 -16 10 -35 10
-19 0 -35 -4 -35 -10z"/>
<path d="M3654 1228 c3 -13 6 -31 6 -40 0 -22 26 -24 34 -2 6 17 -20 64 -36
64 -6 0 -8 -10 -4 -22z"/>
<path d="M933 1214 c-27 -30 -28 -34 -10 -34 16 0 47 32 47 48 0 19 -13 14
-37 -14z"/>
<path d="M3607 1220 c3 -11 7 -20 9 -20 2 0 4 9 4 20 0 11 -4 20 -9 20 -5 0
-7 -9 -4 -20z"/>
<path d="M1556 1035 c5 -143 4 -195 -5 -195 -6 0 -11 5 -11 11 0 5 -5 7 -11 3
-8 -5 -8 -9 1 -14 7 -5 -9 -26 -47 -63 -32 -31 -60 -51 -62 -45 -2 6 0 13 5
17 5 3 16 15 24 25 12 16 8 15 -20 -5 -19 -13 -37 -25 -39 -27 -3 -1 4 -8 14
-16 10 -7 15 -18 11 -24 -3 -6 -2 -13 4 -17 5 -3 10 -2 10 4 0 5 38 47 85 92
l85 82 0 172 c0 172 -4 195 -38 195 -11 0 -12 -34 -6 -195z m24 93 c0 -45 -2
-79 -4 -77 -10 9 -14 159 -5 159 5 0 9 -37 9 -82z"/>
<path d="M4430 1215 c-7 -9 -10 -18 -6 -22 3 -3 6 -1 6 5 0 7 7 12 15 12 8 0
15 5 15 10 0 15 -16 12 -30 -5z"/>
<path d="M626 1191 c-4 -7 -5 -15 -2 -18 9 -9 19 4 14 18 -4 11 -6 11 -12 0z"/>
<path d="M2648 1193 c12 -2 32 -2 45 0 12 2 2 4 -23 4 -25 0 -35 -2 -22 -4z"/>
<path d="M3561 1156 c-15 -61 -15 -367 0 -364 7 2 16 -12 21 -30 8 -31 68 -98
116 -130 44 -29 31 -5 -18 34 -79 62 -98 111 -102 267 -2 70 -1 127 3 127 4 0
4 13 -1 30 -5 19 -4 41 3 60 8 21 8 33 0 41 -7 7 -14 -3 -22 -35z"/>
<path d="M1008 1171 c-15 -18 -15 -21 10 -49 15 -17 40 -44 55 -62 16 -17 31
-29 35 -26 3 4 -12 24 -33 46 -36 37 -38 41 -21 53 16 12 16 14 -6 35 -23 21
-24 21 -40 3z m27 -39 c-3 -4 -10 0 -15 8 -6 9 -5 17 3 22 13 8 24 -19 12 -30z"/>
<path d="M1370 1170 c14 -10 27 -17 29 -15 8 8 -22 35 -38 35 -12 0 -10 -5 9
-20z"/>
<path d="M2405 1180 c3 -5 24 -10 46 -10 21 0 39 5 39 10 0 6 -21 10 -46 10
-27 0 -43 -4 -39 -10z"/>
<path d="M2510 1180 c0 -5 20 -10 45 -10 25 0 45 5 45 10 0 6 -20 10 -45 10
-25 0 -45 -4 -45 -10z"/>
<path d="M2653 1163 c15 -2 37 -2 50 0 12 2 0 4 -28 4 -27 0 -38 -2 -22 -4z"/>
<path d="M4067 1163 c-4 -3 -7 -11 -7 -17 0 -6 5 -5 12 2 6 6 9 14 7 17 -3 3
-9 2 -12 -2z"/>
<path d="M2528 1153 c6 -2 18 -2 25 0 6 3 1 5 -13 5 -14 0 -19 -2 -12 -5z"/>
<path d="M2580 1151 c10 -7 3 -11 -30 -14 l-45 -4 48 -1 c34 -1 47 2 45 10 -2
6 -11 13 -19 16 -12 3 -12 2 1 -7z"/>
<path d="M855 1140 c-7 -12 2 -30 16 -30 12 0 12 27 0 35 -5 3 -12 1 -16 -5z"/>
<path d="M1405 1130 c-11 -14 -85 -90 -165 -170 -155 -154 -200 -204 -200
-220 0 -5 -7 -10 -15 -10 -8 0 -15 -6 -15 -14 0 -17 -72 -26 -96 -13 -11 6 -8
-1 7 -22 25 -34 79 -45 79 -16 0 8 7 15 15 15 8 0 15 7 15 15 0 8 3 15 8 15 4
0 27 19 52 41 41 37 39 46 -2 11 -10 -8 -18 -10 -18 -5 0 6 76 84 169 174 93
90 171 171 174 179 5 13 7 13 17 -2 6 -9 17 -24 25 -32 8 -8 15 -19 15 -25 0
-6 5 -11 10 -11 6 0 15 -11 20 -25 5 -14 14 -25 20 -25 14 0 12 16 -5 33 -8 8
-12 17 -9 20 3 3 -3 12 -15 19 -24 15 -27 28 -8 28 10 0 12 10 9 33 l-5 32 -9
-27 c-6 -16 -15 -28 -22 -28 -7 0 -17 12 -22 28 l-10 27 -19 -25z m-420 -450
c-3 -5 -14 -10 -23 -9 -14 0 -13 2 3 9 27 11 27 11 20 0z"/>
<path d="M2405 1140 c-4 -6 14 -10 45 -10 28 0 49 4 46 8 -7 12 -84 14 -91 2z"/>
<path d="M4211 1141 c-11 -7 -9 -11 9 -21 27 -14 39 -5 19 15 -9 9 -19 11 -28
6z"/>
<path d="M2648 1133 c7 -3 16 -2 19 1 4 3 -2 6 -13 5 -11 0 -14 -3 -6 -6z"/>
<path d="M2698 1133 c7 -3 16 -2 19 1 4 3 -2 6 -13 5 -11 0 -14 -3 -6 -6z"/>
<path d="M957 1124 c-10 -11 -9 -24 3 -24 19 0 53 -41 42 -52 -7 -7 -20 1 -41
23 -17 19 -31 29 -31 24 0 -6 20 -31 45 -55 43 -42 59 -69 33 -54 -10 5 -10 4
-1 -6 21 -23 36 -1 18 27 -9 14 -13 28 -10 31 4 4 14 -3 22 -15 9 -13 23 -23
32 -23 12 1 9 7 -11 25 -16 13 -28 26 -28 29 0 12 -67 76 -73 70z"/>
<path d="M1070 1120 c0 -5 7 -10 16 -10 8 0 12 5 9 10 -3 6 -10 10 -16 10 -5
0 -9 -4 -9 -10z"/>
<path d="M3615 1108 c3 -13 39 -52 78 -88 78 -70 155 -146 229 -227 25 -28 69
-70 97 -94 48 -40 55 -42 109 -41 31 1 69 4 84 8 25 5 28 3 28 -20 0 -50 41
-33 148 64 83 74 122 124 122 155 0 1 -13 0 -30 -3 -34 -5 -38 7 -16 51 11 21
12 27 2 27 -7 0 -20 -15 -28 -34 -9 -18 -56 -75 -104 -126 l-88 -92 -45 6
c-24 3 -61 1 -83 -4 -34 -10 -42 -8 -66 10 -43 34 -177 166 -307 304 -66 69
-123 126 -128 126 -5 0 -6 -10 -2 -22z m865 -282 c0 -8 -200 -177 -200 -169 0
4 -5 1 -11 -7 -8 -11 -9 -9 -3 10 7 28 32 60 46 60 14 0 38 27 31 34 -4 3 1 6
10 6 10 0 17 5 17 12 0 6 3 9 6 5 9 -9 44 25 37 36 -3 6 -1 7 5 3 6 -3 13 -2
17 4 6 9 45 15 45 6z"/>
<path d="M2653 1113 c15 -2 37 -2 50 0 12 2 0 4 -28 4 -27 0 -38 -2 -22 -4z"/>
<path d="M4018 1106 c-19 -14 -26 -42 -8 -31 9 6 34 45 28 45 -2 0 -11 -7 -20
-14z"/>
<path d="M4180 1111 c0 -12 42 -42 49 -36 5 6 -29 45 -41 45 -4 0 -8 -4 -8 -9z"/>
<path d="M2161 1078 c2 -29 2 -30 7 -8 l5 25 8 -25 c7 -23 7 -23 8 8 1 22 -4
32 -14 32 -11 0 -15 -10 -14 -32z"/>
<path d="M2400 1100 c0 -5 20 -10 45 -10 25 0 45 5 45 10 0 6 -20 10 -45 10
-25 0 -45 -4 -45 -10z"/>
<path d="M2510 1098 c0 -8 80 -22 87 -14 4 3 0 6 -8 6 -10 0 -11 2 -2 8 7 4
-8 7 -33 7 -24 0 -44 -3 -44 -7z"/>
<path d="M2918 1097 c6 -7 13 -42 15 -77 l3 -65 2 78 c2 65 0 77 -14 77 -12 0
-14 -3 -6 -13z"/>
<path d="M2970 1033 c0 -42 3 -74 6 -70 9 8 10 147 2 147 -5 0 -8 -34 -8 -77z"/>
<path d="M851 1081 c17 -14 26 -16 31 -8 4 7 0 15 -10 19 -34 13 -44 8 -21
-11z"/>
<path d="M1100 1085 c0 -8 9 -15 20 -15 24 0 27 15 4 24 -22 9 -24 8 -24 -9z"/>
<path d="M2233 1015 c0 -38 2 -53 4 -32 2 20 2 52 0 70 -2 17 -4 1 -4 -38z"/>
<path d="M830 1055 c0 -8 7 -15 15 -15 8 0 15 4 15 9 0 5 -7 11 -15 15 -9 3
-15 0 -15 -9z"/>
<path d="M900 1061 c0 -13 92 -111 104 -111 5 0 -7 17 -27 38 -36 37 -49 61
-25 46 7 -4 8 -3 4 5 -4 6 -12 9 -17 6 -5 -4 -12 1 -15 9 -6 17 -24 22 -24 7z"/>
<path d="M1410 1055 c0 -8 -3 -15 -7 -15 -8 0 -24 -15 -150 -128 -55 -49 -82
-82 -68 -82 3 0 32 28 66 62 35 37 63 58 67 52 10 -15 42 -25 42 -13 0 6 -9
13 -21 16 -19 5 -16 10 28 49 26 24 51 44 56 44 11 0 8 30 -3 30 -5 0 -10 -7
-10 -15z"/>
<path d="M2510 1060 c0 -5 8 -10 18 -11 15 0 14 -2 -3 -10 -15 -7 -11 -8 19
-5 62 8 64 19 4 30 -24 4 -38 3 -38 -4z"/>
<path d="M4107 1057 c-8 -20 51 -63 66 -48 8 8 8 11 -1 11 -7 0 -23 11 -36 25
-18 19 -25 22 -29 12z"/>
<path d="M4150 1061 c0 -13 28 -33 41 -29 6 2 0 12 -15 21 -14 10 -26 13 -26
8z"/>
<path d="M2182 1020 c0 -14 2 -19 5 -12 2 6 2 18 0 25 -3 6 -5 1 -5 -13z"/>
<path d="M2675 1030 c-7 -12 2 -30 16 -30 5 0 9 9 9 20 0 21 -15 27 -25 10z"/>
<path d="M3616 1031 c-4 -7 -5 -15 -2 -18 9 -9 19 4 14 18 -4 11 -6 11 -12 0z"/>
<path d="M669 1028 c0 -2 -2 -19 -4 -38 -4 -33 -4 -34 10 -16 17 23 19 42 5
51 -5 3 -10 5 -11 3z"/>
<path d="M877 1011 c26 -25 33 -26 33 -6 0 8 -4 15 -9 15 -5 0 -18 3 -28 6
-15 6 -14 3 4 -15z"/>
<path d="M2162 1010 c0 -14 2 -19 5 -12 2 6 2 18 0 25 -3 6 -5 1 -5 -13z"/>
<path d="M2390 1004 c0 -31 23 -28 28 4 2 15 -2 22 -12 22 -11 0 -16 -9 -16
-26z"/>
<path d="M2505 1010 c-4 -6 12 -10 39 -10 25 0 46 5 46 10 0 6 -18 10 -39 10
-22 0 -43 -4 -46 -10z"/>
<path d="M4095 996 c11 -16 13 -26 6 -26 -6 0 -16 9 -23 20 -7 11 -18 20 -25
20 -23 0 -14 -18 20 -37 27 -16 35 -17 45 -7 16 18 16 19 -14 39 l-25 16 16
-25z"/>
<path d="M4206 955 c-32 -35 -55 -68 -52 -74 8 -12 56 31 56 49 0 7 3 10 7 7
10 -10 43 23 43 44 0 13 6 16 23 11 20 -5 21 -4 8 11 -7 9 -16 16 -20 16 -3
-1 -32 -30 -65 -64z m34 1 c0 -3 -4 -8 -10 -11 -5 -3 -10 -1 -10 4 0 6 5 11
10 11 6 0 10 -2 10 -4z"/>
<path d="M3660 990 c0 -5 6 -13 14 -17 26 -14 99 -77 148 -126 l48 -49 -25
-36 c-37 -54 -33 -103 6 -79 23 14 25 32 4 23 -20 -7 -20 23 1 52 11 17 21 21
37 16 40 -13 -76 113 -179 194 -44 34 -54 38 -54 22z"/>
<path d="M926 982 c-9 -14 61 -89 72 -77 4 4 -7 19 -24 33 -17 15 -33 34 -36
42 -3 10 -6 11 -12 2z"/>
<path d="M1449 964 c-13 -15 -37 -35 -54 -46 l-30 -20 28 5 c15 2 27 4 27 3 0
0 -46 -48 -101 -106 -58 -61 -103 -100 -107 -94 -23 35 -64 75 -70 69 -4 -4
-1 -10 6 -12 6 -3 12 -9 12 -14 0 -6 5 -15 10 -22 6 -7 17 -20 24 -31 17 -25
35 -15 118 71 87 89 121 131 114 141 -3 4 8 21 25 36 16 15 29 32 29 37 0 14
-4 11 -31 -17z"/>
<path d="M4460 979 c0 -5 5 -7 10 -4 6 3 10 8 10 11 0 2 -4 4 -10 4 -5 0 -10
-5 -10 -11z"/>
<path d="M1097 955 c3 -14 10 -25 15 -25 13 0 6 43 -8 47 -7 2 -10 -6 -7 -22z"/>
<path d="M2523 973 c15 -2 37 -2 50 0 12 2 0 4 -28 4 -27 0 -38 -2 -22 -4z"/>
<path d="M1040 951 c-9 -17 -8 -19 5 -15 8 4 23 0 32 -7 15 -13 15 -12 5 8
-18 32 -30 36 -42 14z"/>
<path d="M3975 960 c-3 -5 -1 -10 5 -10 7 0 9 -7 6 -16 -7 -17 30 -62 41 -50
5 4 -1 14 -12 22 -17 12 -17 16 -6 24 12 7 12 11 2 24 -15 18 -27 20 -36 6z"/>
<path d="M627 953 c-11 -10 -8 -25 3 -18 5 3 38 -23 73 -57 106 -103 119 -109
22 -10 -49 51 -90 92 -91 92 0 0 -4 -3 -7 -7z"/>
<path d="M3676 935 c-3 -9 -19 -18 -36 -21 -38 -8 -49 -24 -16 -24 34 0 76 20
76 36 0 20 -17 26 -24 9z"/>
<path d="M2360 810 c0 -80 4 -130 10 -130 6 0 10 50 10 130 0 80 -4 130 -10
130 -6 0 -10 -50 -10 -130z"/>
<path d="M4030 923 c0 -4 5 -15 10 -23 7 -11 12 -12 21 -3 8 8 6 14 -10 22
-12 7 -21 8 -21 4z"/>
<path d="M1050 910 c0 -5 7 -10 16 -10 8 0 12 5 9 10 -3 6 -10 10 -16 10 -5 0
-9 -4 -9 -10z"/>
<path d="M1464 887 c-11 -12 -35 -35 -53 -50 -19 -15 -31 -30 -28 -33 3 -3 26
15 52 40 27 25 53 47 58 49 8 2 8 5 1 10 -6 3 -20 -4 -30 -16z"/>
<path d="M2415 900 c3 -5 8 -10 11 -10 2 0 4 5 4 10 0 6 -5 10 -11 10 -5 0 -7
-4 -4 -10z"/>
<path d="M2510 901 c0 -4 11 -6 25 -3 14 2 25 6 25 8 0 2 -11 4 -25 4 -14 0
-25 -4 -25 -9z"/>
<path d="M2570 902 c0 -4 9 -8 20 -9 11 -1 20 2 20 8 0 5 -9 9 -20 9 -11 0
-20 -4 -20 -8z"/>
<path d="M4122 858 c6 -18 28 -21 28 -4 0 9 -7 16 -16 16 -9 0 -14 -5 -12 -12z"/>
<path d="M1017 854 c-4 -4 -4 -10 -1 -15 6 -10 34 0 34 12 0 10 -24 12 -33 3z"/>
<path d="M620 841 c0 -15 34 -48 137 -134 97 -82 149 -107 67 -33 -113 101
-204 176 -204 167z"/>
<path d="M4085 819 c-8 -34 1 -51 15 -29 12 19 13 60 1 60 -5 0 -12 -14 -16
-31z"/>
<path d="M2510 821 c0 -6 23 -9 50 -9 28 1 50 5 50 10 0 4 -22 8 -50 8 -27 0
-50 -4 -50 -9z"/>
<path d="M3896 731 c-23 -25 -20 -32 8 -19 21 9 29 7 55 -13 16 -13 28 -29 26
-36 -2 -7 -1 -14 3 -17 4 -3 8 4 9 14 1 16 -40 62 -73 83 -6 3 -19 -2 -28 -12z"/>
<path d="M4046 738 c3 -5 10 -6 15 -3 13 9 11 12 -6 12 -8 0 -12 -4 -9 -9z"/>
<path d="M2253 680 c0 -36 2 -50 4 -32 2 17 2 47 0 65 -2 17 -4 3 -4 -33z"/>
<path d="M1123 710 c3 -11 1 -18 -4 -14 -5 3 -9 0 -9 -5 0 -6 11 -11 25 -11
28 0 29 3 15 31 -14 25 -34 25 -27 -1z"/>
<path d="M1265 680 c-33 -34 -36 -40 -19 -40 13 0 28 14 43 40 12 22 21 40 19
40 -2 0 -22 -18 -43 -40z"/>
<path d="M2931 684 c0 -11 3 -14 6 -6 3 7 2 16 -1 19 -3 4 -6 -2 -5 -13z"/>
<path d="M2892 665 c0 -16 2 -22 5 -12 2 9 2 23 0 30 -3 6 -5 -1 -5 -18z"/>
<path d="M2205 671 c-3 -5 -1 -12 5 -16 5 -3 10 1 10 9 0 18 -6 21 -15 7z"/>
<path d="M1145 650 c3 -5 13 -10 21 -10 8 0 14 5 14 10 0 6 -9 10 -21 10 -11
0 -17 -4 -14 -10z"/>
<path d="M2331 652 c5 -14 445 -26 454 -12 4 6 -66 10 -193 10 -110 0 -214 3
-232 7 -22 4 -31 2 -29 -5z"/>
<path d="M2920 645 c0 -8 2 -15 4 -15 2 0 6 7 10 15 3 8 1 15 -4 15 -6 0 -10
-7 -10 -15z"/>
<path d="M2960 651 c0 -5 5 -13 10 -16 6 -3 10 -2 10 4 0 5 -4 13 -10 16 -5 3
-10 2 -10 -4z"/>
<path d="M3842 648 c3 -7 13 -15 24 -17 16 -3 17 -1 5 13 -16 19 -34 21 -29 4z"/>
<path d="M3950 650 c0 -5 5 -10 10 -10 6 0 10 5 10 10 0 6 -4 10 -10 10 -5 0
-10 -4 -10 -10z"/>
<path d="M2155 630 c3 -5 8 -10 11 -10 2 0 4 5 4 10 0 6 -5 10 -11 10 -5 0 -7
-4 -4 -10z"/>
<path d="M2190 610 c-13 -8 -12 -10 3 -10 9 0 17 5 17 10 0 12 -1 12 -20 0z"/>
<path d="M2270 612 c0 -17 76 -20 315 -16 158 3 225 1 215 -6 -8 -5 -42 -10
-75 -11 -33 -1 -51 -4 -41 -6 11 -3 58 -2 105 3 66 6 79 9 56 15 -16 3 -22 7
-13 8 9 0 19 4 21 9 3 4 -127 8 -289 10 -185 2 -294 0 -294 -6z"/>
<path d="M2950 610 c0 -5 6 -10 14 -10 8 0 18 5 21 10 3 6 -3 10 -14 10 -12 0
-21 -4 -21 -10z"/>
<path d="M4188 613 c7 -3 16 -2 19 1 4 3 -2 6 -13 5 -11 0 -14 -3 -6 -6z"/>
<path d="M2918 591 c-9 -11 -14 -22 -11 -25 12 -12 21 -5 25 19 6 30 7 30 -14
6z"/>
<path d="M1813 578 c-2 -5 69 -8 158 -8 89 0 159 3 156 7 -9 9 -308 10 -314 1z"/>
<path d="M2186 581 c-4 -5 -2 -12 3 -15 5 -4 12 -2 15 3 4 5 2 12 -3 15 -5 4
-12 2 -15 -3z"/>
<path d="M2245 580 c28 -12 37 -12 30 0 -3 6 -16 10 -28 9 -21 0 -21 -1 -2 -9z"/>
<path d="M2300 580 c0 -5 5 -10 11 -10 5 0 7 5 4 10 -3 6 -8 10 -11 10 -2 0
-4 -4 -4 -10z"/>
<path d="M2980 578 c0 -5 75 -7 168 -6 169 2 149 6 -56 10 -61 2 -112 0 -112
-4z"/>
<path d="M2495 570 l-140 -6 153 -2 c100 -1 151 1 147 8 -3 6 -9 9 -13 8 -4
-1 -70 -5 -147 -8z"/>
<path d="M2365 529 c5 -7 51 -8 145 -3 78 4 140 3 143 -2 7 -12 97 -5 97 7 0
5 -86 9 -196 9 -135 0 -193 -3 -189 -11z"/>
</g>
</svg>
