<?xml version="1.0" standalone="no"?>
<!DOCTYPE svg PUBLIC "-//W3C//DTD SVG 20010904//EN"
 "http://www.w3.org/TR/2001/REC-SVG-20010904/DTD/svg10.dtd">
<svg version="1.0" xmlns="http://www.w3.org/2000/svg"
 width="512.000000pt" height="512.000000pt" viewBox="0 0 512.000000 512.000000"
 preserveAspectRatio="xMidYMid meet">
<metadata>
Created by potrace 1.16, written by Peter Selinger 2001-2019
</metadata>
<g transform="translate(0.000000,512.000000) scale(0.100000,-0.100000)"
fill="#000000" stroke="none">
<path d="M2370 4874 c-355 -31 -679 -137 -993 -328 -605 -367 -1008 -958
-1114 -1636 -28 -179 -25 -541 6 -719 32 -185 80 -354 141 -496 130 -304 280
-526 504 -750 355 -352 767 -571 1256 -665 141 -28 500 -39 645 -21 388 49
714 169 1034 381 600 397 982 1035 1041 1740 33 391 -57 835 -245 1211 -50 99
-172 299 -218 355 -249 308 -479 500 -802 673 -197 106 -437 185 -705 232
-111 20 -431 33 -550 23z m365 -24 c457 -39 877 -203 1245 -488 106 -82 292
-263 373 -362 237 -293 410 -667 481 -1040 55 -291 47 -630 -23 -923 -39 -163
-128 -399 -198 -527 -127 -229 -212 -345 -387 -527 -448 -467 -1090 -732
-1723 -710 -347 12 -628 80 -928 227 -157 76 -368 209 -451 285 -6 6 -35 30
-65 55 -519 434 -827 1135 -795 1811 12 257 73 560 148 729 59 134 98 213 140
288 27 46 48 85 48 87 0 7 123 178 165 230 305 380 791 693 1246 805 239 58
492 79 724 60z"/>
<path d="M2244 4570 c-481 -75 -974 -370 -1280 -765 -48 -62 -124 -173 -124
-181 0 -4 -6 -15 -14 -23 -47 -54 -164 -323 -211 -486 -56 -191 -66 -267 -72
-505 -5 -197 -3 -242 16 -360 36 -231 90 -400 192 -600 41 -81 129 -226 160
-264 5 -6 38 -47 73 -91 66 -83 234 -251 321 -321 257 -208 600 -362 940 -421
156 -27 510 -24 670 6 130 24 133 25 275 72 155 52 349 148 495 244 40 26 147
106 163 122 7 7 17 13 21 13 12 0 232 218 262 258 13 19 29 39 34 45 6 7 43
57 82 112 162 228 277 512 330 815 24 137 28 433 9 570 -34 240 -101 454 -204
655 -40 79 -112 202 -134 230 -5 6 -38 51 -75 100 -70 94 -232 262 -318 332
-310 249 -643 394 -1029 448 -148 20 -435 18 -582 -5z m539 -15 c401 -42 764
-200 1088 -473 324 -272 575 -693 663 -1109 71 -336 57 -659 -40 -982 -165
-542 -538 -975 -1066 -1236 -284 -140 -529 -196 -860 -197 -453 0 -831 124
-1194 394 -423 315 -698 757 -789 1268 -26 145 -31 446 -11 594 82 584 400
1095 876 1411 420 278 842 382 1333 330z"/>
<path d="M2320 3911 c-271 -57 -459 -155 -650 -337 -117 -113 -204 -232 -276
-379 -91 -188 -124 -337 -124 -565 0 -224 32 -373 120 -557 67 -141 137 -239
255 -359 191 -193 393 -304 660 -365 141 -31 397 -32 535 -2 186 41 362 121
503 227 102 76 260 244 331 349 329 492 259 1159 -171 1607 -186 194 -402 315
-673 376 -114 25 -400 29 -510 5z m423 -16 c433 -65 780 -318 976 -712 183
-367 183 -777 1 -1131 -27 -54 -56 -106 -64 -117 -79 -104 -108 -139 -165
-199 -142 -147 -335 -268 -526 -329 -152 -48 -181 -52 -395 -52 -194 0 -211 2
-305 28 -259 72 -425 167 -600 342 -173 173 -287 376 -346 616 -20 82 -23 118
-23 289 0 165 4 208 22 281 61 249 162 434 329 605 130 133 213 194 370 273
203 101 482 142 726 106z"/>
<path d="M2339 3794 c-252 -45 -545 -225 -701 -429 -12 -16 -25 -32 -28 -35
-33 -29 -131 -222 -164 -322 -56 -173 -77 -422 -47 -578 50 -267 149 -458 331
-640 163 -163 323 -256 538 -312 107 -28 131 -31 287 -32 179 -1 268 11 397
54 371 124 677 447 775 818 31 118 43 353 24 482 -24 159 -98 343 -202 497
-138 204 -394 393 -626 463 -168 49 -418 64 -584 34z m498 -39 c332 -80 593
-279 756 -575 154 -281 188 -615 92 -917 -105 -331 -404 -628 -744 -740 -227
-74 -541 -71 -766 7 -152 53 -274 130 -411 263 -137 131 -202 228 -284 422
-45 105 -75 311 -67 465 12 255 91 472 242 665 172 221 448 387 705 424 41 6
86 13 100 15 63 11 281 -6 377 -29z"/>
<path d="M2345 3516 c-173 -46 -337 -144 -458 -276 -283 -306 -313 -816 -69
-1155 174 -241 409 -369 704 -382 231 -11 399 36 583 160 109 74 231 211 290
326 31 62 65 174 80 266 52 317 -48 623 -272 836 -109 104 -227 172 -370 215
-75 23 -111 27 -243 30 -139 4 -164 2 -245 -20z m395 -18 c352 -69 629 -344
702 -697 16 -77 19 -121 15 -221 -12 -295 -126 -514 -357 -684 -82 -60 -152
-96 -260 -132 -80 -27 -95 -28 -260 -28 -198 0 -248 9 -387 74 -151 70 -269
171 -358 304 -86 130 -124 232 -145 398 -48 367 130 713 461 897 167 93 396
128 589 89z"/>
<path d="M2140 2754 c-21 -54 -5 -134 27 -134 14 0 12 -3 -7 -13 -22 -11 -25
-20 -28 -73 -4 -86 9 -114 52 -114 52 0 66 9 66 41 l0 29 84 0 85 0 3 -32 c3
-30 6 -33 41 -36 44 -4 67 11 67 42 0 16 9 24 33 31 30 9 32 14 35 58 3 42 0
48 -20 56 -13 5 -29 6 -35 4 -10 -4 -13 13 -13 65 0 110 15 102 -196 102
l-184 0 -10 -26z m361 2 c2 -2 2 -36 1 -76 -3 -66 -5 -71 -25 -68 -15 2 -23
12 -27 33 l-5 30 -108 3 c-102 3 -107 2 -107 -18 0 -16 -6 -20 -35 -20 l-35 0
0 60 0 60 168 0 c93 0 171 -2 173 -4z m-81 -126 c0 -19 -7 -20 -90 -20 -49 0
-90 2 -90 4 0 30 15 36 96 36 77 0 84 -2 84 -20z m160 -78 c0 -33 -1 -33 -37
-30 l-38 3 -1 -40 c0 -38 -2 -40 -32 -43 l-32 -3 6 41 7 41 -114 -3 -114 -3 2
-37 c2 -37 2 -38 -32 -38 l-35 0 0 75 0 75 210 -3 210 -2 0 -33z"/>
<path d="M2677 2774 c-4 -4 -7 -31 -7 -59 0 -72 10 -78 109 -69 53 4 81 3 81
-4 0 -5 -16 -13 -35 -16 -24 -5 -40 -15 -47 -30 -7 -17 -22 -26 -49 -30 -44
-7 -47 -11 -55 -68 -10 -71 0 -76 161 -74 109 1 138 4 145 16 15 23 12 86 -5
100 -12 10 -12 15 1 35 11 17 14 45 12 111 l-3 89 -151 3 c-82 1 -153 -1 -157
-4z m285 -99 c-4 -74 -6 -82 -34 -105 -31 -27 -29 -40 8 -40 29 0 33 -7 27
-46 l-5 -32 -111 1 c-62 0 -119 -2 -127 -4 -12 -3 -15 6 -15 41 0 37 3 45 20
48 53 8 66 14 75 37 8 20 16 25 45 25 19 0 35 4 35 9 0 5 3 23 7 41 l6 33 -79
-6 c-43 -4 -88 -8 -99 -9 -17 -3 -20 3 -21 42 l-1 45 137 0 136 0 -4 -80z"/>
<path d="M2910 2490 c0 -5 5 -10 11 -10 5 0 7 5 4 10 -3 6 -8 10 -11 10 -2 0
-4 -4 -4 -10z"/>
</g>
</svg>
