<?xml version="1.0" standalone="no"?>
<!DOCTYPE svg PUBLIC "-//W3C//DTD SVG 20010904//EN"
 "http://www.w3.org/TR/2001/REC-SVG-20010904/DTD/svg10.dtd">
<svg version="1.0" xmlns="http://www.w3.org/2000/svg"
 width="512.000000pt" height="768.000000pt" viewBox="0 0 512.000000 768.000000"
 preserveAspectRatio="xMidYMid meet">
<metadata>
Created by potrace 1.16, written by Peter Selinger 2001-2019
</metadata>
<g transform="translate(0.000000,768.000000) scale(0.100000,-0.100000)"
fill="#000000" stroke="none">
<path d="M2690 7443 c1 -131 3 -255 7 -275 l6 -38 862 0 863 0 5 33 c2 17 5
141 6 275 2 212 0 242 -14 242 -13 0 -15 -33 -15 -265 l0 -265 -845 0 -845 0
0 265 c0 230 -2 265 -15 265 -13 0 -15 -32 -15 -237z"/>
<path d="M2742 7423 l-2 -243 28 1 c23 2 24 2 5 6 -23 4 -23 5 -26 241 l-2
237 -3 -242z"/>
<path d="M4380 7425 l0 -235 -782 -3 -783 -2 788 -3 787 -2 0 240 c0 132 -2
240 -5 240 -3 0 -5 -106 -5 -235z"/>
<path d="M951 7600 c-7 -9 -9 -10 -5 -1 4 8 3 12 -2 8 -6 -3 -10 -27 -9 -54
l0 -48 115 0 115 0 -1 28 c-2 45 -3 47 -20 47 -10 0 -14 6 -10 15 6 17 -1 18
-105 20 -49 0 -70 -3 -78 -15z m107 -36 c3 -27 -1 -32 -23 -36 -19 -4 -32 1
-46 15 l-19 21 0 -22 c0 -12 -4 -22 -10 -22 -15 0 -12 22 6 48 21 30 34 28 35
-5 1 -21 3 -23 6 -8 9 40 13 46 30 43 12 -2 19 -14 21 -34z m26 -2 c2 -18 -1
-32 -5 -32 -5 0 -9 17 -9 37 0 43 8 40 14 -5z m25 1 c-1 -37 -1 -37 -8 -8 -7
28 -5 45 5 45 2 0 3 -17 3 -37z m35 -18 c-4 -8 -10 -12 -15 -9 -14 8 -10 24 6
24 9 0 12 -6 9 -15z"/>
<path d="M1026 7564 c-8 -21 -8 -24 3 -24 12 0 22 28 12 35 -5 3 -12 -2 -15
-11z"/>
<path d="M980 7450 c0 -3 -55 -5 -123 -5 -102 -1 -122 -3 -119 -15 2 -13 0
-13 -10 0 -16 19 -93 20 -123 3 -11 -7 -14 -13 -7 -13 17 0 15 -20 -2 -20 -8
0 -16 10 -18 23 -4 30 -47 37 -55 8 -7 -26 -15 -27 -29 -3 -8 13 -21 17 -50
14 -22 -1 -57 -3 -79 -2 -22 0 -47 -4 -55 -10 -8 -5 -10 -10 -5 -10 6 0 3 -5
-5 -10 -8 -5 -10 -10 -4 -10 6 0 10 -11 9 -25 -4 -32 18 -44 63 -34 19 4 44 4
56 0 11 -5 32 -5 46 -1 14 4 33 4 43 1 32 -12 87 0 88 18 0 13 1 14 7 1 10
-21 8 -20 240 -21 97 0 103 2 112 23 9 23 9 23 9 1 1 -21 5 -22 114 -21 72 0
115 4 119 12 6 8 8 8 8 -1 0 -8 34 -12 115 -12 l115 -1 0 26 c0 15 4 23 11 18
6 -3 9 -14 6 -25 -4 -16 3 -18 88 -18 89 0 94 1 98 22 l4 22 2 -22 c1 -20 7
-23 41 -23 22 0 40 3 41 8 0 4 2 28 4 54 l4 47 -142 -2 c-141 -2 -142 -2 -139
-24 2 -13 -2 -23 -8 -23 -6 0 -9 4 -6 9 4 5 3 16 0 25 -5 14 -29 16 -180 14
-109 -2 -176 1 -178 7 -3 6 -5 2 -5 -7 -1 -9 -6 -20 -13 -24 -6 -4 -8 -3 -5 3
4 6 -3 14 -16 18 -29 9 -67 12 -67 5z m-420 -44 c0 -13 6 -26 13 -29 6 -2 9
-8 5 -12 -4 -4 -14 -5 -23 -2 -17 7 -22 67 -5 67 6 0 10 -11 10 -24z m128 -15
c-4 -35 -53 -44 -63 -11 -9 29 10 48 41 42 20 -4 25 -10 22 -31z m32 -15 c5
-4 16 6 25 24 l17 32 19 -32 c22 -35 21 -44 -3 -35 -10 4 -14 14 -11 28 3 14
-2 10 -13 -11 -12 -23 -20 -29 -29 -22 -6 5 -15 7 -18 3 -4 -3 -6 11 -6 33 1
27 3 31 6 14 3 -14 8 -29 13 -34z m87 32 c-3 -8 -6 -5 -6 6 -1 11 2 17 5 13 3
-3 4 -12 1 -19z m43 -13 c0 -19 -4 -35 -8 -35 -4 0 -8 16 -9 35 -1 19 3 35 8
35 5 0 9 -16 9 -35z m46 19 c-3 -9 -6 -24 -6 -35 0 -10 -4 -19 -10 -19 -11 0
-14 53 -3 63 12 13 25 7 19 -9z m44 -19 c0 -19 -4 -35 -10 -35 -5 0 -10 16
-10 35 0 19 5 35 10 35 6 0 10 -16 10 -35z m105 16 c9 -28 -5 -51 -30 -51 -24
0 -38 29 -28 56 8 21 51 17 58 -5z m74 -32 c8 5 11 16 6 30 -4 12 -2 21 4 21
6 0 11 -9 11 -19 0 -11 2 -26 5 -33 4 -10 -4 -14 -27 -13 -35 0 -47 20 -32 53
6 13 9 10 13 -15 5 -24 9 -30 20 -24z m79 40 c-10 -5 -18 -21 -18 -34 0 -14
-4 -25 -10 -25 -11 0 -14 53 -3 63 3 4 16 7 27 7 19 -1 19 -2 4 -11z m76 -11
c8 -14 7 -21 -6 -34 -30 -30 -75 9 -48 42 16 18 39 15 54 -8z m66 11 c0 -5 -4
-9 -10 -9 -5 0 -10 -7 -10 -15 0 -8 7 -15 16 -15 8 0 12 -4 9 -10 -11 -17 -35
-11 -35 9 0 11 -4 23 -10 26 -17 11 -11 20 15 21 14 1 25 -2 25 -7z m40 -19
c0 -16 5 -30 11 -30 6 0 9 7 5 15 -7 18 5 20 22 3 20 -20 14 -28 -23 -28 -33
0 -35 2 -35 35 0 19 5 35 10 35 6 0 10 -13 10 -30z m50 20 c0 -5 -9 -10 -21
-10 -11 0 -17 5 -14 10 3 6 13 10 21 10 8 0 14 -4 14 -10z m105 -25 c0 -25 -4
-31 -27 -33 -19 -2 -28 2 -33 18 -8 27 12 52 39 48 16 -2 21 -10 21 -33z m74
14 c-10 -6 -9 -12 5 -28 17 -18 17 -21 3 -21 -9 0 -19 5 -23 12 -5 7 -11 5
-21 -7 -12 -18 -13 -18 -13 2 0 12 -3 28 -6 37 -3 9 -1 16 5 16 6 0 11 -8 11
-17 0 -14 3 -13 16 5 8 12 20 19 26 16 6 -4 6 -9 -3 -15z m28 -1 c-3 -8 -6 -5
-6 6 -1 11 2 17 5 13 3 -3 4 -12 1 -19z m43 5 c1 -16 2 -16 15 1 8 11 18 17
21 13 4 -4 1 -13 -6 -22 -10 -11 -10 -18 -1 -29 8 -10 9 -16 1 -21 -5 -3 -10
1 -10 9 0 9 -4 16 -10 16 -5 0 -10 -7 -10 -17 0 -26 -7 -12 -14 30 -4 23 -3
37 4 37 5 0 10 -8 10 -17z m-1293 -9 c2 -7 -6 -10 -22 -7 -19 4 -25 1 -25 -12
0 -13 6 -16 25 -13 19 4 23 2 15 -7 -11 -13 -46 -9 -56 6 -3 5 0 18 6 29 12
22 50 25 57 4z m93 -4 c15 -27 5 -40 -31 -40 -31 0 -46 19 -35 45 8 22 53 19
66 -5z m42 -25 c0 -5 -5 -11 -11 -13 -6 -2 -11 4 -11 13 0 9 5 15 11 13 6 -2
11 -8 11 -13z"/>
<path d="M640 7390 c0 -15 5 -20 18 -18 9 2 17 10 17 18 0 8 -8 16 -17 18 -13
2 -18 -3 -18 -18z"/>
<path d="M1004 7406 c-4 -10 -2 -22 4 -28 8 -8 13 -7 18 6 4 10 2 22 -4 28 -8
8 -13 7 -18 -6z"/>
<path d="M1234 7406 c-4 -10 -2 -22 4 -28 8 -8 13 -7 18 6 4 10 2 22 -4 28 -8
8 -13 7 -18 -6z"/>
<path d="M1490 7396 c0 -8 4 -17 9 -20 11 -7 33 18 24 27 -12 12 -33 7 -33 -7z"/>
<path d="M430 7390 c0 -15 5 -20 18 -18 9 2 17 10 17 18 0 8 -8 16 -17 18 -13
2 -18 -3 -18 -18z"/>
<path d="M4128 7213 c12 -2 32 -2 45 0 12 2 2 4 -23 4 -25 0 -35 -2 -22 -4z"/>
<path d="M4446 7153 c-6 -14 -5 -15 5 -6 7 7 10 15 7 18 -3 3 -9 -2 -12 -12z"/>
<path d="M1440 6979 c-58 -5 -303 -8 -545 -8 -242 1 -448 1 -457 0 -17 -1 -18
-20 -18 -245 l0 -244 25 -6 c22 -6 1162 -9 1210 -3 11 1 23 7 27 12 4 6 8 116
8 246 0 270 8 249 -94 243 -36 -2 -55 0 -51 6 3 6 5 9 3 9 -2 -1 -50 -6 -108
-10z m-899 -29 l69 0 0 -230 0 -230 -85 0 -85 0 0 236 c0 211 2 235 16 230 9
-3 47 -6 85 -6z m979 -230 l0 -230 -445 0 -444 0 -3 230 -3 230 448 0 447 0 0
-230z m150 -1 l0 -231 -22 6 c-13 3 -43 6 -68 6 l-45 0 3 225 3 225 64 0 65 0
0 -231z"/>
<path d="M462 6900 c0 -19 2 -27 5 -17 2 9 2 25 0 35 -3 9 -5 1 -5 -18z"/>
<path d="M461 6724 c0 -11 3 -14 6 -6 3 7 2 16 -1 19 -3 4 -6 -2 -5 -13z"/>
<path d="M650 6725 l0 -205 428 2 427 3 -421 2 -422 3 -1 190 -2 190 363 2
c200 1 381 2 403 3 22 1 48 -2 58 -7 12 -6 17 -5 17 7 0 13 -50 15 -425 15
l-425 0 0 -205z"/>
<path d="M1488 6723 c2 -92 5 -169 8 -172 2 -2 4 73 4 167 0 95 -3 172 -7 172
-5 0 -7 -75 -5 -167z"/>
<path d="M1949 6968 c-18 -7 -19 -19 -19 -247 0 -137 4 -242 9 -246 7 -4 1117
-9 1151 -5 3 1 29 3 58 5 28 2 57 7 62 10 12 8 13 454 1 473 -7 12 -120 14
-625 15 -340 1 -626 -1 -637 -5z m45 -18 c10 0 13 -51 14 -230 l1 -230 -32 0
-32 0 2 232 c2 128 3 235 3 237 0 2 7 0 16 -3 9 -3 21 -6 28 -6z m1079 -227
l-3 -228 -520 -3 -520 -2 0 230 0 230 523 0 522 0 -2 -227z m127 -4 l0 -230
-51 3 -50 3 -2 228 -2 227 52 0 53 0 0 -231z"/>
<path d="M2050 6725 l0 -205 500 0 500 0 0 205 0 205 -500 0 -500 0 0 -205z
m918 185 l72 0 -1 -190 -1 -190 -489 0 -489 0 0 189 c0 117 4 191 10 193 5 2
193 2 417 1 225 -2 441 -3 481 -3z"/>
<path d="M3433 6972 l-23 -3 0 -244 c0 -214 2 -244 16 -249 12 -5 863 -9 1297
-6 16 0 17 17 15 253 l-3 252 -640 0 c-352 0 -650 -1 -662 -3z m1287 -253 l0
-229 -560 0 -560 0 0 230 0 230 553 2 c303 2 555 2 560 0 4 -2 7 -106 7 -233z
m-1137 4 l-2 -228 -76 -3 -75 -3 0 231 0 230 78 0 77 0 -2 -227z"/>
<path d="M3630 6725 l0 -205 428 2 427 3 -422 2 -423 3 0 189 c0 172 2 190 18
194 9 3 203 5 430 5 l413 -1 -3 -199 -3 -198 98 0 97 0 0 205 0 205 -530 0
-530 0 0 -205z m1050 0 l0 -195 -85 0 -85 0 0 195 0 195 85 0 85 0 0 -195z"/>
<path d="M2466 6382 c-3 -5 1 -9 9 -9 8 0 12 4 9 9 -3 4 -7 8 -9 8 -2 0 -6 -4
-9 -8z"/>
<path d="M3884 6377 c-3 -10 -35 -13 -127 -13 l-122 0 -3 -28 c-4 -35 12 -54
51 -59 18 -2 -30 -5 -105 -5 l-137 -2 2 -257 2 -258 638 0 638 0 0 259 -1 259
-102 -2 -103 -2 3 44 c5 54 -1 57 -133 53 -64 -1 -92 1 -87 8 4 8 1 8 -9 0
-17 -13 -385 -12 -396 1 -5 4 -2 5 6 0 9 -5 12 -4 7 3 -9 15 -15 15 -22 -1z
m-136 -41 c45 -1 57 -4 60 -18 2 -10 -1 -18 -7 -18 -6 0 -11 8 -12 18 0 16 -1
16 -8 -1 -4 -10 -11 -18 -16 -18 -5 0 -12 8 -16 18 -7 16 -8 16 -8 1 -1 -14
-9 -17 -38 -16 -21 1 -41 6 -45 11 -10 16 2 36 19 30 8 -3 40 -6 71 -7z m182
-17 c0 -12 -7 -19 -20 -19 -19 0 -28 28 -14 43 11 11 34 -5 34 -24z m420 8 c0
-16 -6 -23 -20 -23 -22 0 -26 16 -8 34 18 18 28 14 28 -11z m-515 3 c-3 -5 -2
-10 4 -10 5 0 11 5 13 12 5 15 28 1 28 -17 0 -9 -11 -13 -30 -13 -22 1 -30 6
-30 20 0 10 5 18 11 18 5 0 7 -4 4 -10z m144 -12 c0 -22 -1 -22 -9 -3 -7 17
-9 17 -9 3 -1 -25 -21 -23 -21 2 0 13 7 20 20 20 14 0 20 -6 19 -22z m51 2 c0
-22 -7 -25 -29 -11 -16 10 -6 31 15 31 8 0 14 -9 14 -20z m23 0 c-3 -11 -7
-20 -9 -20 -2 0 -4 9 -4 20 0 11 4 20 9 20 5 0 7 -9 4 -20z m60 0 c-7 -25 -23
-26 -24 -2 -1 16 -2 16 -6 0 -5 -21 -23 -24 -23 -5 0 19 10 27 36 27 17 0 21
-4 17 -20z m158 8 c0 -10 2 -10 6 0 7 19 32 14 27 -5 -7 -25 -64 -29 -65 -5
-1 16 -2 16 -6 0 -2 -10 -9 -18 -14 -18 -5 0 -10 8 -10 18 -1 16 -2 16 -6 0
-2 -10 -9 -18 -14 -18 -5 0 -10 8 -10 18 -1 16 -2 16 -6 0 -2 -10 -9 -18 -14
-18 -5 0 -10 8 -10 18 -1 16 -2 16 -6 0 -5 -21 -23 -24 -23 -5 0 23 11 27 82
27 47 0 68 -4 69 -12z m229 -8 c0 -25 -20 -27 -21 -2 -1 16 -2 16 -6 -1 -6
-22 -63 -20 -64 3 0 13 -1 13 -7 0 -10 -22 -42 -22 -42 1 0 17 8 19 70 19 63
0 70 -2 70 -20z m-563 -46 c-3 -3 -12 -4 -19 -1 -8 3 -5 6 6 6 11 1 17 -2 13
-5z m176 -1 c-13 -2 -33 -2 -45 0 -13 2 -3 4 22 4 25 0 35 -2 23 -4z m90 0
c-13 -2 -33 -2 -45 0 -13 2 -3 4 22 4 25 0 35 -2 23 -4z m74 1 c-3 -3 -12 -4
-19 -1 -8 3 -5 6 6 6 11 1 17 -2 13 -5z m423 -261 l0 -238 -615 -3 -615 -3 0
241 0 240 615 0 615 0 0 -237z"/>
<path d="M3492 6018 l-2 -218 43 2 42 1 -37 4 -38 4 -3 212 -2 212 -3 -217z"/>
<path d="M4669 6043 c0 -16 0 -74 1 -130 l1 -103 -548 -3 -548 -2 553 -3 552
-2 0 135 c0 74 -2 135 -5 135 -3 0 -5 -12 -6 -27z"/>
<path d="M2254 6372 c4 -7 1 -12 -8 -12 -8 0 -18 -5 -22 -12 -4 -7 -3 -8 4 -4
8 5 12 -4 12 -28 l0 -35 103 -4 c56 -1 -14 -4 -155 -5 l-258 -2 0 -260 0 -259
644 -1 645 0 1 246 c0 172 -3 250 -11 260 -9 11 -44 14 -150 14 l-138 0 6 34
c8 53 -7 61 -112 60 -49 0 -95 4 -102 8 -6 5 -14 5 -17 0 -7 -12 -416 -9 -435
3 -10 5 -12 4 -7 -3z m20 -50 c-5 -16 -5 -16 6 1 15 23 40 22 40 -1 0 -14 -8
-19 -30 -20 -26 -1 -30 3 -30 24 0 14 4 23 10 19 5 -3 7 -13 4 -23z m186 -3
c0 -15 -7 -19 -35 -19 -19 0 -35 5 -35 11 0 8 -5 8 -15 -1 -12 -10 -15 -9 -16
6 -1 17 -2 17 -6 2 -5 -21 -23 -24 -23 -5 0 21 5 23 70 24 53 1 60 -1 60 -18z
m100 0 c0 -11 -7 -19 -16 -19 -9 0 -12 5 -8 13 6 10 4 10 -7 0 -20 -20 -49
-16 -49 6 0 15 8 19 40 19 33 1 40 -3 40 -19z m40 1 c0 -11 -7 -20 -15 -20 -8
0 -15 9 -15 20 0 11 7 20 15 20 8 0 15 -9 15 -20z m160 -2 c0 -23 -20 -24 -21
0 -1 16 -2 16 -6 0 -2 -10 -13 -18 -24 -18 -11 0 -19 7 -20 18 0 14 -2 14 -7
2 -4 -8 -19 -16 -34 -18 -22 -3 -28 1 -28 16 0 18 7 20 70 19 61 0 70 -3 70
-19z m30 2 c0 -11 -4 -20 -10 -20 -5 0 -10 9 -10 20 0 11 5 20 10 20 6 0 10
-9 10 -20z m118 -3 c3 -14 -3 -17 -27 -15 -20 1 -31 8 -32 18 0 10 -3 9 -9 -5
-8 -18 -9 -18 -9 -2 -1 10 -6 15 -11 12 -6 -4 -8 -11 -5 -16 4 -5 1 -9 -4 -9
-6 0 -11 9 -11 19 0 17 7 19 52 17 41 -1 54 -6 56 -19z m-335 -44 c-24 -2 -62
-2 -85 0 -24 2 -5 4 42 4 47 0 66 -2 43 -4z m144 0 c-20 -2 -52 -2 -70 0 -17
2 0 4 38 4 39 0 53 -2 32 -4z m76 0 c-7 -2 -19 -2 -25 0 -7 3 -2 5 12 5 14 0
19 -2 13 -5z m60 0 c-7 -2 -21 -2 -30 0 -10 3 -4 5 12 5 17 0 24 -2 18 -5z
m50 0 c-7 -2 -19 -2 -25 0 -7 3 -2 5 12 5 14 0 19 -2 13 -5z m287 -250 c0
-122 2 -227 5 -235 4 -11 -103 -13 -620 -13 l-625 0 0 238 0 238 620 -3 620
-3 0 -222z"/>
<path d="M2490 6320 c0 -5 5 -10 10 -10 6 0 10 5 10 10 0 6 -4 10 -10 10 -5 0
-10 -4 -10 -10z"/>
<path d="M1971 6173 c-1 -26 0 -45 2 -43 9 9 16 90 9 90 -5 0 -9 -21 -11 -47z"/>
<path d="M3078 6213 l82 -4 0 -199 0 -199 -587 -1 c-322 0 -589 -2 -591 -5 -3
-3 263 -5 591 -5 l597 0 0 210 0 210 -87 -2 -88 -2 83 -3z"/>
<path d="M1983 6065 c0 -22 2 -30 4 -17 2 12 2 30 0 40 -3 9 -5 -1 -4 -23z"/>
<path d="M1981 5934 c0 -11 3 -14 6 -6 3 7 2 16 -1 19 -3 4 -6 -2 -5 -13z"/>
<path d="M880 6360 l-55 -5 3 -35 c2 -19 9 -38 15 -42 11 -7 102 -10 311 -10
76 0 86 7 86 58 0 28 -2 31 -26 26 -16 -3 -25 -1 -21 5 3 5 0 10 -8 10 -8 0
-12 -3 -10 -7 2 -4 -14 -7 -35 -7 -22 0 -40 4 -40 9 0 5 -5 6 -12 2 -19 -12
-68 -12 -68 0 0 6 -4 5 -9 -3 -6 -9 -15 -11 -27 -6 -25 10 -39 11 -104 5z m39
-36 c2 -2 0 -11 -4 -21 -8 -17 -8 -17 -12 0 -4 17 -5 17 -17 1 -15 -20 -36
-11 -36 16 0 17 5 19 33 13 17 -3 34 -7 36 -9z m27 -11 c-6 -17 -5 -17 8 0 14
18 32 24 21 7 -3 -5 -1 -10 4 -10 6 0 11 5 11 10 0 6 16 10 35 10 28 0 35 -4
35 -20 0 -11 -4 -20 -10 -20 -5 0 -7 7 -4 15 4 8 2 15 -4 15 -6 0 -12 -5 -14
-12 -3 -7 -25 -13 -51 -14 -40 -2 -47 0 -47 17 0 10 5 19 11 19 6 0 8 -8 5
-17z m185 0 c1 -17 2 -17 6 0 6 23 23 22 23 -3 0 -17 -7 -20 -40 -20 -33 0
-40 3 -40 20 0 26 49 29 51 3z m89 3 c0 -22 -20 -30 -21 -9 -1 17 -2 17 -6 1
-6 -24 -23 -23 -23 2 0 15 7 20 25 20 15 0 25 -6 25 -14z"/>
<path d="M422 6257 c-14 -16 -21 -490 -8 -503 10 -10 1276 -8 1285 2 3 4 0 4
-7 0 -9 -6 -12 46 -13 241 -1 136 -1 250 -1 253 0 3 -281 4 -625 2 -420 -1
-622 1 -618 8 9 14 -1 12 -13 -3z m1233 -254 l0 -228 -608 0 -608 0 -2 228 -2
227 610 0 610 0 0 -227z"/>
<path d="M460 6005 l0 -205 585 0 585 0 0 205 0 205 -585 0 -585 0 0 -205z
m1160 -5 l0 -190 -575 0 -575 0 0 189 c0 117 4 191 10 193 5 2 264 2 575 0
l565 -2 0 -190z"/>
<path d="M391 6074 c0 -11 3 -14 6 -6 3 7 2 16 -1 19 -3 4 -6 -2 -5 -13z"/>
<path d="M3423 5990 c0 -25 2 -35 4 -22 2 12 2 32 0 45 -2 12 -4 2 -4 -23z"/>
<path d="M1267 5734 c-2 -2 -109 -4 -237 -4 -132 0 -240 -5 -250 -10 -13 -7
-18 -19 -16 -37 l3 -28 -176 -5 -176 -5 -5 -362 c-4 -296 -3 -364 8 -368 8 -3
295 -5 638 -5 l624 0 -2 368 -3 367 -167 3 c-143 2 -166 5 -162 17 9 22 -5 67
-19 62 -7 -2 -22 -1 -33 4 -12 4 -24 6 -27 3z m-462 -44 c-4 -11 -2 -20 4 -20
6 0 11 6 11 14 0 21 30 29 31 8 0 -10 3 -12 6 -4 8 20 22 14 16 -8 -4 -16 -14
-20 -44 -20 -35 0 -39 3 -39 25 0 14 5 25 11 25 6 0 8 -9 4 -20z m95 -5 c0
-14 -4 -25 -9 -25 -4 0 -6 11 -3 25 2 14 6 25 8 25 2 0 4 -11 4 -25z m118 3
c2 -9 -2 -20 -9 -24 -9 -5 -10 -2 -6 9 3 10 2 17 -3 17 -6 0 -10 -7 -10 -16 0
-14 -3 -14 -15 -4 -9 7 -15 8 -15 2 0 -6 -8 -9 -17 -7 -10 2 -21 4 -25 4 -13
1 -9 29 4 33 6 2 29 4 52 3 29 -1 42 -6 44 -17z m56 16 c25 -10 19 -34 -9 -34
-24 0 -34 18 -18 33 8 8 8 8 27 1z m86 -5 c0 -3 -7 -14 -15 -25 -14 -18 -14
-18 -15 4 0 13 -4 20 -10 17 -6 -4 -8 -11 -5 -16 4 -5 1 -9 -4 -9 -12 0 -15
23 -5 32 7 7 54 5 54 -3z m22 -19 c-6 -16 -11 -20 -16 -11 -4 6 -2 19 5 27 16
20 21 12 11 -16z m148 -1 c0 -16 -7 -19 -50 -19 -44 0 -50 3 -50 20 0 17 6 20
35 18 19 -1 37 1 41 5 11 10 24 -2 24 -24z m-113 1 c2 -19 -8 -26 -20 -14 -7
7 2 34 12 34 4 0 7 -9 8 -20z m436 -403 l2 -347 -610 0 -610 0 2 347 c2 192 3
348 3 348 0 0 272 0 605 -1 l606 0 2 -347z"/>
<path d="M460 5280 c0 -176 3 -320 8 -320 4 0 6 123 4 272 -2 150 0 292 3 316
l6 43 145 -3 c79 -2 144 0 144 5 0 4 -70 7 -155 7 l-155 0 0 -320z"/>
<path d="M790 5582 c0 -10 55 -12 258 -10 141 2 255 6 252 11 -3 4 -119 8
-258 10 -198 2 -252 -1 -252 -11z"/>
<path d="M1324 5593 c2 -3 70 -4 150 -4 l146 2 0 -310 0 -311 -382 -3 -383 -2
388 -3 387 -2 0 320 0 321 -156 -2 c-85 0 -153 -3 -150 -6z"/>
<path d="M930 5507 c0 -8 15 -13 45 -13 30 0 45 5 45 13 0 9 -15 13 -45 13
-30 0 -45 -4 -45 -13z"/>
<path d="M1030 5511 c0 -9 128 -20 136 -12 2 2 1 8 -2 12 -7 12 -134 11 -134
0z"/>
<path d="M538 4963 c29 -2 74 -2 100 0 26 2 2 3 -53 3 -55 0 -76 -1 -47 -3z"/>
<path d="M728 4963 c23 -2 61 -2 85 0 23 2 4 4 -43 4 -47 0 -66 -2 -42 -4z"/>
<path d="M2265 5722 c-3 -8 -5 -27 -5 -43 l0 -29 -165 0 -165 0 -2 -317 c-1
-335 -1 -334 6 -373 2 -14 5 -28 5 -32 1 -5 287 -8 636 -8 558 0 635 2 635 15
0 8 -1 16 -2 18 -1 1 4 12 11 25 6 12 8 22 4 22 -4 0 -7 139 -6 310 1 170 0
317 -3 325 -5 12 -32 15 -163 15 l-156 0 0 33 c0 17 4 35 8 38 5 3 -65 7 -155
8 -90 1 -235 3 -321 4 -123 2 -158 -1 -162 -11z m115 -25 c0 -4 0 -14 0 -22 0
-8 -4 -15 -9 -15 -5 0 -7 10 -3 22 3 14 2 19 -6 14 -7 -4 -12 -14 -12 -22 0
-8 -4 -14 -9 -14 -5 0 -7 10 -5 23 4 20 4 20 -7 -3 l-12 -25 -4 23 c-3 12 -8
20 -13 17 -5 -3 -7 -12 -3 -20 3 -8 0 -15 -6 -15 -6 0 -11 11 -11 24 0 22 4
23 50 22 28 -1 50 -5 50 -9z m42 -12 c-2 -14 -8 -25 -13 -25 -10 0 -12 34 -2
43 13 14 20 6 15 -18z m128 18 c0 -11 -22 -43 -30 -43 -5 0 -16 7 -24 16 -15
14 -16 14 -16 0 0 -18 -17 -21 -39 -7 -26 17 4 36 58 38 28 1 51 -1 51 -4z
m38 -18 c0 -15 -6 -25 -14 -25 -17 0 -18 37 -1 43 6 3 13 6 13 6 1 1 2 -10 2
-24z m55 -5 c-6 -23 -43 -22 -43 1 0 18 18 29 36 22 7 -2 10 -13 7 -23z m33
-18 c-4 -3 -11 -1 -18 6 -8 8 -8 15 3 28 13 16 14 16 17 -5 2 -13 1 -25 -2
-29z m74 17 c0 -14 -7 -19 -30 -19 -23 0 -30 5 -30 19 0 20 24 31 48 23 6 -2
12 -13 12 -23z m35 9 c-6 -21 -6 -21 6 -6 8 9 30 18 49 20 30 3 35 0 38 -19 3
-22 0 -23 -57 -23 -53 0 -61 2 -61 19 0 16 9 25 28 30 2 1 0 -9 -3 -21z m407
-361 l3 -297 -622 0 -623 0 0 298 0 297 620 0 619 0 3 -298z m8 -354 l0 -38
-622 2 -623 3 -3 35 -3 35 625 0 626 0 0 -37z"/>
<path d="M2455 5690 c-3 -5 -1 -10 4 -10 6 0 11 5 11 10 0 6 -2 10 -4 10 -3 0
-8 -4 -11 -10z"/>
<path d="M2510 5679 c0 -5 5 -7 10 -4 6 3 10 8 10 11 0 2 -4 4 -10 4 -5 0 -10
-5 -10 -11z"/>
<path d="M1982 5328 l3 -273 2 267 3 267 138 4 137 3 -142 2 -143 2 2 -272z"/>
<path d="M2280 5583 c0 -10 64 -12 280 -10 154 1 280 5 280 10 0 4 -126 8
-280 10 -216 1 -280 -1 -280 -10z"/>
<path d="M3022 5593 l138 -4 3 -272 2 -272 3 278 2 277 -142 -2 -143 -2 137
-3z"/>
<path d="M2406 5539 c4 -7 44 0 44 7 0 2 -11 3 -24 2 -14 -1 -23 -5 -20 -9z"/>
<path d="M2440 5510 c0 -5 23 -10 50 -10 28 0 50 5 50 10 0 6 -22 10 -50 10
-27 0 -50 -4 -50 -10z"/>
<path d="M2550 5511 c0 -5 25 -11 55 -13 30 -1 55 0 55 4 0 4 7 5 15 2 8 -4
15 -1 15 5 0 7 -25 11 -70 11 -38 0 -70 -4 -70 -9z"/>
<path d="M2610 5470 c-9 -6 -10 -10 -3 -10 6 0 15 5 18 10 8 12 4 12 -15 0z"/>
<path d="M2690 5470 c-9 -6 -10 -10 -3 -10 6 0 15 5 18 10 8 12 4 12 -15 0z"/>
<path d="M2393 5063 c9 -2 25 -2 35 0 9 3 1 5 -18 5 -19 0 -27 -2 -17 -5z"/>
<path d="M2738 5063 c7 -3 16 -2 19 1 4 3 -2 6 -13 5 -11 0 -14 -3 -6 -6z"/>
<path d="M3793 5724 c-7 -3 -13 -21 -13 -40 l0 -34 -165 0 -165 0 0 -370 0
-370 635 0 635 0 -2 368 -3 367 -156 3 -155 2 4 29 c3 21 -1 32 -15 40 -20 10
-576 15 -600 5z m77 -33 c0 -11 4 -9 15 5 14 19 14 19 15 -1 0 -12 3 -16 8 -8
14 21 72 20 72 -2 0 -18 -16 -20 -23 -2 -3 7 -6 5 -6 -5 -1 -10 -5 -18 -11
-18 -5 0 -10 8 -11 18 0 14 -2 14 -7 2 -9 -20 -55 -20 -64 0 -5 12 -7 12 -7
-2 -1 -26 -21 -22 -22 5 l-2 22 -4 -22 c-5 -27 -23 -31 -23 -5 0 25 6 29 40
28 19 -1 30 -6 30 -15z m193 -7 c-7 -18 -43 -18 -43 0 0 8 6 16 13 19 19 7 36
-3 30 -19z m99 17 c3 -1 4 -10 1 -22 -4 -12 -11 -18 -20 -15 -8 3 -19 6 -24 6
-5 0 -9 8 -10 18 0 12 -3 10 -11 -8 -10 -22 -12 -23 -16 -6 -6 28 14 35 80 27z
m68 -16 c0 -24 -20 -27 -21 -3 0 23 0 23 -11 -2 -10 -22 -12 -23 -16 -6 -5 21
14 37 35 29 7 -3 13 -11 13 -18z m-220 0 c0 -8 -4 -15 -10 -15 -5 0 -10 7 -10
15 0 8 5 15 10 15 6 0 10 -7 10 -15z m253 -5 c-3 -11 -9 -20 -14 -20 -5 0 -9
9 -9 20 0 11 6 20 14 20 9 0 12 -7 9 -20z m48 8 c0 -10 2 -10 6 0 2 6 20 12
40 12 27 0 34 -4 31 -17 -3 -14 -15 -18 -56 -20 -51 -1 -69 7 -57 27 9 14 35
12 36 -2z m389 -408 l0 -345 -615 0 -615 0 0 346 0 346 615 -1 614 -1 1 -345z"/>
<path d="M3500 5278 c0 -177 2 -319 5 -317 2 3 5 146 5 318 l1 312 130 -3 c71
-2 129 0 129 5 0 4 -61 7 -135 7 l-135 0 0 -322z"/>
<path d="M3790 5586 c0 -14 30 -16 290 -16 187 0 290 4 290 10 0 6 -98 10
-274 10 -151 0 -281 3 -290 6 -11 4 -16 1 -16 -10z"/>
<path d="M4390 5593 c0 -5 52 -7 117 -5 88 2 118 0 124 -10 7 -10 9 -10 9 0 0
6 5 12 10 12 6 0 10 -110 10 -310 l0 -310 -572 -3 -573 -2 578 -3 577 -2 0
320 0 320 -140 0 c-77 0 -140 -3 -140 -7z"/>
<path d="M3948 5543 c6 -2 18 -2 25 0 6 3 1 5 -13 5 -14 0 -19 -2 -12 -5z"/>
<path d="M3960 5507 c0 -9 18 -13 60 -12 33 0 60 3 60 6 0 3 21 3 48 -1 52 -6
82 -3 82 10 0 4 -56 8 -125 9 -96 1 -125 -2 -125 -12z"/>
<path d="M1896 5627 c3 -10 9 -15 12 -12 3 3 0 11 -7 18 -10 9 -11 8 -5 -6z"/>
<path d="M1913 5530 c0 -25 2 -35 4 -22 2 12 2 32 0 45 -2 12 -4 2 -4 -23z"/>
<path d="M1912 5450 c0 -14 2 -19 5 -12 2 6 2 18 0 25 -3 6 -5 1 -5 -13z"/>
<path d="M394 5305 c0 -88 2 -123 3 -77 2 46 2 118 0 160 -1 42 -3 5 -3 -83z"/>
<path d="M392 5100 c0 -19 2 -27 5 -17 2 9 2 25 0 35 -3 9 -5 1 -5 -18z"/>
<path d="M1906 5033 c-6 -14 -5 -15 5 -6 7 7 10 15 7 18 -3 3 -9 -2 -12 -12z"/>
<path d="M1048 4873 c7 -3 16 -2 19 1 4 3 -2 6 -13 5 -11 0 -14 -3 -6 -6z"/>
<path d="M3990 4876 c0 -2 7 -7 16 -10 8 -3 12 -2 9 4 -6 10 -25 14 -25 6z"/>
<path d="M4080 4869 c0 -5 5 -7 10 -4 6 3 10 8 10 11 0 2 -4 4 -10 4 -5 0 -10
-5 -10 -11z"/>
<path d="M1074 4858 c-5 -7 -3 -8 6 -3 9 5 11 4 6 -3 -5 -8 -14 -9 -24 -4 -17
9 -206 6 -230 -3 -18 -7 -12 -68 8 -77 8 -4 -43 -7 -115 -6 l-130 0 -3 -146
-3 -146 -90 0 -90 0 2 -692 c1 -381 5 -706 8 -723 3 -16 12 -31 19 -33 12 -2
1173 -3 1202 -1 8 1 2 5 -15 9 -16 4 -291 7 -610 8 l-580 2 2 32 c0 18 1 35 2
39 1 3 272 5 604 4 l602 0 6 -40 c7 -46 10 -45 13 7 1 21 4 40 7 42 2 2 3 306
1 675 l-2 671 -90 0 -90 0 -1 143 c-1 78 -1 144 -1 147 0 3 -50 4 -111 2
l-112 -4 3 46 c2 25 0 46 -4 47 -5 0 -32 2 -60 3 -27 1 -55 6 -61 9 -7 4 -14
3 -18 -3 -4 -7 -12 -7 -25 0 -13 7 -21 7 -26 -2z m-44 -43 c0 -14 -4 -25 -10
-25 -11 0 -14 33 -3 43 11 11 13 8 13 -18z m-110 -7 c0 -20 -20 -25 -21 -5 0
10 -2 10 -6 0 -7 -19 -23 -16 -24 5 0 15 -1 15 -8 -2 -6 -17 -8 -17 -14 -4 -8
22 0 27 39 26 26 -1 34 -6 34 -20z m33 5 c9 25 47 22 47 -3 0 -11 -7 -20 -15
-20 -9 0 -12 6 -9 18 5 16 5 16 -6 0 -16 -26 -40 -23 -39 5 0 20 1 20 8 3 7
-18 8 -18 14 -3z m103 0 c-6 -17 -5 -17 8 0 19 25 66 23 66 -3 0 -22 -39 -29
-41 -7 0 10 -2 10 -6 0 -8 -21 -43 -15 -43 7 0 11 5 20 11 20 6 0 8 -8 5 -17z
m148 0 c-5 -17 -5 -17 6 0 15 23 40 22 40 -3 0 -27 -59 -29 -61 -2 -1 16 -2
16 -6 0 -6 -25 -43 -23 -43 2 0 16 7 20 35 20 28 0 33 -3 29 -17z m-307 -49
c-3 -3 -12 -4 -19 -1 -8 3 -5 6 6 6 11 1 17 -2 13 -5z m563 -164 l0 -140 -425
0 -425 0 0 140 0 140 425 0 425 0 0 -140z m187 -807 l-1 -653 -606 0 -605 0 0
653 0 652 607 0 606 0 -1 -652z"/>
<path d="M1430 4610 l0 -109 -122 -3 -123 -3 128 -5 127 -5 0 118 c0 64 -2
117 -5 117 -3 0 -5 -49 -5 -110z"/>
<path d="M642 4593 l2 -118 3 112 4 112 102 4 102 3 -107 2 -108 2 2 -117z"/>
<path d="M928 4703 c6 -2 18 -2 25 0 6 3 1 5 -13 5 -14 0 -19 -2 -12 -5z"/>
<path d="M1148 4703 c6 -2 18 -2 25 0 6 3 1 5 -13 5 -14 0 -19 -2 -12 -5z"/>
<path d="M1208 4703 c12 -2 30 -2 40 0 9 3 -1 5 -23 4 -22 0 -30 -2 -17 -4z"/>
<path d="M1343 4703 c15 -2 37 -2 50 0 12 2 0 4 -28 4 -27 0 -38 -2 -22 -4z"/>
<path d="M708 4493 c7 -3 16 -2 19 1 4 3 -2 6 -13 5 -11 0 -14 -3 -6 -6z"/>
<path d="M842 4493 c59 -2 158 -2 220 0 62 1 14 3 -107 3 -121 0 -172 -2 -113
-3z"/>
<path d="M465 3790 c0 -349 1 -492 2 -317 2 174 2 460 0 635 -1 174 -2 31 -2
-318z"/>
<path d="M528 4413 c12 -2 30 -2 40 0 9 3 -1 5 -23 4 -22 0 -30 -2 -17 -4z"/>
<path d="M833 4413 c114 -2 300 -2 415 0 114 1 20 2 -208 2 -228 0 -322 -1
-207 -2z"/>
<path d="M1530 4413 l76 -4 0 -619 0 -620 -191 -3 -190 -2 198 -3 197 -2 0
630 0 630 -82 -2 -83 -2 75 -3z"/>
<path d="M997 4010 c23 -22 48 -40 55 -40 7 0 28 19 47 43 l34 42 -41 -40 -42
-39 -38 37 c-21 20 -42 37 -47 37 -6 0 9 -18 32 -40z"/>
<path d="M1065 4039 c-4 -6 -14 -8 -24 -4 -13 5 -14 4 -3 -6 10 -11 15 -10 29
4 10 9 14 17 11 17 -4 0 -10 -5 -13 -11z"/>
<path d="M1563 4005 c0 -27 2 -38 4 -22 2 15 2 37 0 50 -2 12 -4 0 -4 -28z"/>
<path d="M940 4006 c0 -2 7 -7 16 -10 8 -3 12 -2 9 4 -6 10 -25 14 -25 6z"/>
<path d="M1096 3962 c-3 -6 -27 -9 -52 -8 -25 1 -47 -1 -49 -4 -2 -4 1 -7 8
-8 7 0 31 -3 54 -5 23 -2 40 -1 38 4 -3 4 1 9 7 12 7 2 10 7 7 11 -4 4 -10 3
-13 -2z"/>
<path d="M895 3944 c-19 -14 -19 -15 2 -11 26 4 38 13 26 20 -4 3 -17 -1 -28
-9z"/>
<path d="M946 3942 c-3 -5 1 -9 9 -9 8 0 12 4 9 9 -3 4 -7 8 -9 8 -2 0 -6 -4
-9 -8z"/>
<path d="M1226 3938 c3 -5 10 -6 15 -3 13 9 11 12 -6 12 -8 0 -12 -4 -9 -9z"/>
<path d="M1563 3915 c0 -22 2 -30 4 -17 2 12 2 30 0 40 -3 9 -5 -1 -4 -23z"/>
<path d="M832 3900 c0 -14 2 -19 5 -12 2 6 2 18 0 25 -3 6 -5 1 -5 -13z"/>
<path d="M867 3908 c-28 -15 -9 -28 44 -28 44 0 49 2 49 23 -1 21 -1 22 -15 3
-11 -14 -15 -16 -15 -5 0 12 -2 12 -10 -1 -5 -8 -10 -10 -10 -4 0 17 -23 23
-43 12z"/>
<path d="M990 3907 c0 -4 -4 -5 -10 -2 -5 3 -10 -1 -10 -9 0 -20 56 -22 63 -3
4 10 6 10 6 0 1 -18 21 -16 21 1 0 8 -14 15 -35 18 -19 2 -35 0 -35 -5z"/>
<path d="M1140 3903 c0 -20 5 -23 40 -23 28 0 40 4 40 14 0 20 -28 28 -42 12
-11 -11 -15 -11 -25 3 -11 14 -12 13 -13 -6z"/>
<path d="M795 3901 c-3 -5 -2 -12 3 -15 5 -3 9 1 9 9 0 17 -3 19 -12 6z"/>
<path d="M1070 3895 c0 -10 10 -15 30 -15 20 0 30 5 30 15 0 8 -4 15 -10 15
-5 0 -10 -4 -10 -10 0 -5 -5 -10 -11 -10 -5 0 -7 5 -4 10 3 6 -1 10 -9 10 -9
0 -16 -7 -16 -15z"/>
<path d="M1230 3895 c0 -8 5 -15 10 -15 6 0 10 7 10 15 0 8 -4 15 -10 15 -5 0
-10 -7 -10 -15z"/>
<path d="M965 3860 c-3 -5 1 -10 10 -10 9 0 13 5 10 10 -3 6 -8 10 -10 10 -2
0 -7 -4 -10 -10z"/>
<path d="M900 3820 c0 -17 5 -21 28 -18 15 1 30 7 34 13 5 6 8 4 8 -5 0 -9 9
-16 20 -16 11 0 20 7 20 15 0 11 4 10 15 -5 13 -18 14 -18 15 -1 0 17 1 17 17
2 16 -16 17 -16 29 -1 9 13 13 14 17 4 4 -10 8 -10 16 2 6 8 11 10 11 4 0 -14
32 -13 42 1 18 25 12 26 -94 16 -4 -1 -5 -9 -2 -18 5 -16 4 -16 -9 0 -12 15
-28 18 -79 16 -36 -1 -70 1 -76 5 -8 5 -12 0 -12 -14z"/>
<path d="M1563 3765 c0 -27 2 -38 4 -22 2 15 2 37 0 50 -2 12 -4 0 -4 -28z"/>
<path d="M885 3770 c-3 -5 1 -10 9 -10 9 0 16 5 16 10 0 6 -4 10 -9 10 -6 0
-13 -4 -16 -10z"/>
<path d="M984 3770 c-15 -6 -13 -8 12 -12 17 -2 40 -1 50 2 15 6 13 8 -12 12
-17 2 -40 1 -50 -2z"/>
<path d="M1078 3763 c6 -2 18 -2 25 0 6 3 1 5 -13 5 -14 0 -19 -2 -12 -5z"/>
<path d="M864 3731 c-16 -16 16 -20 162 -20 115 -1 164 3 162 10 -4 11 -314
20 -324 10z"/>
<path d="M883 3679 c10 -6 25 -8 33 -5 8 3 14 1 14 -5 0 -6 5 -7 11 -3 17 10
-10 24 -46 24 -26 -1 -27 -2 -12 -11z"/>
<path d="M1070 3680 c0 -5 7 -7 15 -4 8 4 15 8 15 10 0 2 -7 4 -15 4 -8 0 -15
-4 -15 -10z"/>
<path d="M1179 3673 c-12 -16 -12 -17 2 -6 9 7 20 9 24 5 5 -4 5 -1 1 6 -9 16
-11 15 -27 -5z"/>
<path d="M1003 3669 c11 -7 23 -7 35 0 14 9 11 10 -18 10 -29 0 -32 -1 -17
-10z"/>
<path d="M849 3657 c5 -5 19 -7 32 -5 20 3 19 5 -9 9 -20 3 -29 2 -23 -4z"/>
<path d="M982 3643 c37 -2 100 -2 140 0 40 1 10 3 -67 3 -77 0 -110 -1 -73 -3z"/>
<path d="M740 3618 c0 -6 13 -8 30 -6 17 3 30 1 30 -4 0 -4 8 -8 18 -8 14 0
15 2 2 10 -13 8 -13 10 2 10 9 0 18 -6 21 -12 3 -10 9 -10 26 0 11 6 35 12 53
11 28 0 30 -2 13 -9 -12 -5 8 -7 52 -3 40 3 133 6 208 7 74 0 135 4 135 8 0 4
-133 7 -295 7 -196 0 -295 -4 -295 -11z"/>
<path d="M1573 3590 c0 -25 2 -35 4 -22 2 12 2 32 0 45 -2 12 -4 2 -4 -23z"/>
<path d="M1285 3600 c-3 -5 -1 -10 4 -10 6 0 11 5 11 10 0 6 -2 10 -4 10 -3 0
-8 -4 -11 -10z"/>
<path d="M754 3585 c-12 -9 -14 -14 -6 -15 7 0 20 7 28 15 20 19 4 20 -22 0z"/>
<path d="M1053 3583 c-164 -2 -263 -7 -263 -13 0 -6 89 -10 239 -10 237 0 301
5 301 21 0 5 -3 8 -7 7 -5 -2 -126 -4 -270 -5z"/>
<path d="M508 3173 c12 -2 30 -2 40 0 9 3 -1 5 -23 4 -22 0 -30 -2 -17 -4z"/>
<path d="M883 3173 c15 -2 37 -2 50 0 12 2 0 4 -28 4 -27 0 -38 -2 -22 -4z"/>
<path d="M998 3173 c12 -2 30 -2 40 0 9 3 -1 5 -23 4 -22 0 -30 -2 -17 -4z"/>
<path d="M593 3163 c9 -2 25 -2 35 0 9 3 1 5 -18 5 -19 0 -27 -2 -17 -5z"/>
<path d="M668 3163 c12 -2 32 -2 45 0 12 2 2 4 -23 4 -25 0 -35 -2 -22 -4z"/>
<path d="M3895 4860 c-11 -4 -23 -6 -27 -3 -11 6 -21 -43 -13 -66 6 -19 15
-21 108 -23 l102 -2 -110 -5 -110 -6 -3 -122 -3 -123 -195 0 -195 0 2 -687 c1
-379 5 -710 9 -738 7 -50 8 -50 9 -9 l1 40 615 1 615 1 0 -45 c0 -24 4 -42 9
-39 5 3 8 24 6 47 -2 33 0 39 13 34 12 -4 12 -2 3 8 -8 10 -12 206 -13 698
l-3 684 -72 3 -73 3 0 109 c0 59 -3 115 -6 124 -5 13 -26 16 -132 16 -103 0
-123 2 -109 13 19 14 29 57 16 73 -5 6 -25 9 -45 7 -20 -2 -42 1 -48 7 -7 5
-16 6 -20 2 -10 -9 -299 -11 -306 -2 -3 4 -14 4 -25 0z m0 -42 c-5 -20 -4 -21
5 -5 6 9 15 17 20 17 6 0 11 -8 11 -17 1 -17 2 -17 6 0 6 21 53 24 53 3 0 -22
-20 -30 -21 -9 -1 17 -2 17 -6 1 -3 -13 -15 -18 -43 -18 -42 0 -54 9 -44 34 9
25 26 19 19 -6z m150 -7 c0 -8 -6 -16 -13 -19 -8 -2 -10 2 -6 15 6 16 5 16 -9
-2 -16 -20 -16 -20 -17 3 0 19 5 23 23 20 12 -2 22 -9 22 -17z m28 -1 c-3 -11
-7 -20 -9 -20 -2 0 -4 9 -4 20 0 11 4 20 9 20 5 0 7 -9 4 -20z m37 13 c0 -5
-5 -15 -10 -23 -8 -12 -10 -11 -10 8 0 12 5 22 10 22 6 0 10 -3 10 -7z m120
-13 c0 -25 -20 -27 -21 -2 -1 16 -2 16 -6 0 -3 -11 -14 -18 -29 -18 -16 0 -24
6 -25 18 -1 16 -2 16 -6 0 -6 -24 -23 -23 -23 2 0 18 7 20 55 20 48 0 55 -2
55 -20z m90 -1 c0 -21 -30 -27 -31 -6 0 10 -2 10 -6 0 -8 -21 -43 -16 -43 6 0
16 7 20 40 19 32 0 40 -4 40 -19z m-157 -46 c-18 -2 -48 -2 -65 0 -18 2 -4 4
32 4 36 0 50 -2 33 -4z m377 -150 l0 -128 77 3 78 3 -2 -673 c-2 -370 -5 -674
-8 -675 -3 -2 -275 -3 -605 -3 l-600 0 0 675 0 675 195 0 195 0 0 125 0 125
335 0 335 0 0 -127z"/>
<path d="M4508 4713 c-2 -5 -1 -60 3 -123 l5 -115 2 123 c2 110 -1 137 -10
115z"/>
<path d="M3892 4593 l2 -118 3 112 4 112 107 4 107 3 -112 2 -113 2 2 -117z"/>
<path d="M4283 4703 c26 -2 68 -2 95 0 26 2 4 3 -48 3 -52 0 -74 -1 -47 -3z"/>
<path d="M3500 3808 c0 -358 2 -649 5 -646 8 8 11 1298 3 1298 -5 0 -8 -293
-8 -652z"/>
<path d="M3713 4453 c26 -2 68 -2 95 0 26 2 4 3 -48 3 -52 0 -74 -1 -47 -3z"/>
<path d="M4638 4453 l22 -4 0 -639 0 -640 -162 -3 -163 -3 168 -2 167 -2 0
650 0 650 -27 -1 c-24 -2 -25 -2 -5 -6z"/>
<path d="M4614 4120 c0 -69 1 -97 3 -62 2 34 2 90 0 125 -2 34 -3 6 -3 -63z"/>
<path d="M4641 4064 c0 -11 3 -14 6 -6 3 7 2 16 -1 19 -3 4 -6 -2 -5 -13z"/>
<path d="M4125 4059 c-4 -6 -5 -12 -2 -15 2 -3 7 2 10 11 7 17 1 20 -8 4z"/>
<path d="M3976 4043 c-6 -14 -5 -15 5 -6 7 7 10 15 7 18 -3 3 -9 -2 -12 -12z"/>
<path d="M4040 4015 c49 -51 66 -53 106 -14 19 18 34 37 34 43 0 6 -18 -8 -40
-29 l-40 -39 -38 37 c-48 47 -67 49 -22 2z"/>
<path d="M4075 4030 c3 -5 14 -10 23 -10 15 0 15 2 2 10 -20 13 -33 13 -25 0z"/>
<path d="M4643 3980 c0 -36 2 -50 4 -32 2 17 2 47 0 65 -2 17 -4 3 -4 -33z"/>
<path d="M4147 3969 c-13 -15 -28 -20 -52 -18 -19 2 -37 0 -41 -4 -4 -4 10 -7
32 -8 21 0 49 -2 61 -3 17 -2 20 0 12 10 -7 8 -5 17 6 28 9 9 13 16 8 16 -5 0
-17 -9 -26 -21z"/>
<path d="M3938 3943 c6 -2 18 -2 25 0 6 3 1 5 -13 5 -14 0 -19 -2 -12 -5z"/>
<path d="M4613 3865 c0 -38 2 -53 4 -32 2 20 2 52 0 70 -2 17 -4 1 -4 -38z"/>
<path d="M3865 3907 c-4 -10 -5 -21 -1 -24 10 -10 18 4 13 24 -4 17 -4 17 -12
0z"/>
<path d="M3961 3905 c-1 -12 -4 -16 -9 -9 -9 15 -64 15 -59 0 9 -26 107 -16
107 12 -1 16 -2 16 -14 -1 -14 -18 -14 -18 -19 0 -4 16 -5 16 -6 -2z"/>
<path d="M4012 3900 c0 -14 2 -19 5 -12 2 6 2 18 0 25 -3 6 -5 1 -5 -13z"/>
<path d="M4034 3904 c3 -9 6 -18 6 -20 0 -2 4 -4 9 -4 5 0 7 9 4 20 -3 11 -10
20 -15 20 -6 0 -7 -7 -4 -16z"/>
<path d="M4060 3910 c0 -25 54 -40 63 -17 4 9 8 9 15 -2 7 -10 11 -10 17 -1 6
9 10 9 16 -1 7 -11 9 -11 9 -1 0 8 5 10 12 6 25 -16 69 -14 75 3 6 15 7 14 14
-3 7 -17 8 -17 8 4 1 26 -11 28 -33 6 -15 -14 -16 -14 -16 0 0 19 -16 21 -24
4 -5 -10 -7 -10 -12 0 -5 10 -9 10 -20 1 -8 -6 -14 -8 -14 -3 0 5 -25 9 -55 9
-30 0 -55 -2 -55 -5z"/>
<path d="M4015 3860 c-3 -5 1 -10 10 -10 9 0 13 5 10 10 -3 6 -8 10 -10 10 -2
0 -7 -4 -10 -10z"/>
<path d="M4058 3858 c6 -6 18 -8 28 -6 14 3 12 5 -9 10 -19 3 -25 2 -19 -4z"/>
<path d="M3940 3825 c0 -21 24 -29 46 -17 14 8 21 6 31 -6 12 -16 14 -16 27 1
14 18 32 24 21 8 -3 -5 -1 -12 5 -16 5 -3 10 3 10 14 0 16 -6 21 -25 21 -14 0
-25 -6 -25 -12 0 -9 -3 -9 -9 1 -5 8 -19 12 -35 9 -14 -3 -26 -1 -26 3 0 5 -4
9 -10 9 -5 0 -10 -7 -10 -15z"/>
<path d="M4090 3818 c0 -25 16 -30 34 -12 9 8 16 11 16 5 0 -18 67 -13 74 5 9
23 8 24 -14 24 -10 0 -24 -8 -30 -17 -9 -15 -11 -15 -7 -2 5 14 -2 16 -34 15
-29 -1 -39 -5 -39 -18z"/>
<path d="M3973 3783 c-20 -7 -15 -22 6 -20 11 0 17 6 14 14 -3 7 -6 13 -7 12
0 0 -7 -3 -13 -6z"/>
<path d="M3926 3772 c-3 -5 1 -9 9 -9 8 0 15 4 15 9 0 4 -4 8 -9 8 -6 0 -12
-4 -15 -8z"/>
<path d="M4073 3763 c15 -2 37 -2 50 0 12 2 0 4 -28 4 -27 0 -38 -2 -22 -4z"/>
<path d="M3910 3725 c0 -7 51 -11 160 -10 118 0 160 3 160 12 0 9 -41 12 -160
11 -108 -1 -160 -5 -160 -13z"/>
<path d="M3893 3676 c-4 -5 -1 -6 5 -2 7 4 12 4 12 -1 0 -4 78 -8 174 -8 96
-1 172 3 169 8 -2 4 -14 5 -25 1 -15 -4 -18 -3 -13 6 6 9 3 9 -14 1 -12 -7
-26 -9 -32 -5 -17 10 -270 10 -276 0z"/>
<path d="M3780 3630 c0 -10 588 -5 598 5 3 3 -130 5 -296 5 -197 0 -302 -4
-302 -10z"/>
<path d="M3785 3600 c-2 -3 0 -12 6 -20 6 -10 9 -11 9 -2 0 6 9 12 20 12 11 0
20 4 20 10 0 10 -49 10 -55 0z"/>
<path d="M3850 3601 c0 -8 510 -3 519 5 2 2 -113 4 -257 4 -150 0 -262 -4
-262 -9z"/>
<path d="M4090 3580 c-151 -3 -268 -8 -260 -13 8 -4 101 -5 205 -3 105 2 225
5 268 5 44 1 77 5 77 11 0 6 -3 9 -7 8 -5 -1 -132 -5 -283 -8z"/>
<path d="M3524 3173 c3 -4 100 -9 214 -11 114 -2 205 -2 202 1 -8 7 -423 17
-416 10z"/>
<path d="M3988 3173 c12 -2 30 -2 40 0 9 3 -1 5 -23 4 -22 0 -30 -2 -17 -4z"/>
<path d="M4298 3173 c6 -2 18 -2 25 0 6 3 1 5 -13 5 -14 0 -19 -2 -12 -5z"/>
<path d="M2294 4847 c-9 -5 -14 -21 -12 -43 l2 -34 56 -1 c30 -1 101 -1 158
-1 56 0 102 -4 102 -9 0 -5 -138 -9 -329 -9 -182 0 -332 -3 -334 -7 -15 -23
-11 -1656 4 -1648 5 4 7 11 4 16 -4 5 243 10 627 11 l633 3 2 800 c1 440 -1
806 -6 813 -6 10 -56 13 -224 12 -120 0 -217 3 -217 8 0 4 5 13 11 19 6 6 9
25 7 43 l-3 33 -233 1 c-128 1 -240 -3 -248 -7z m28 -32 c-5 -31 -20 -33 -17
-2 3 27 3 27 14 27 4 0 6 -11 3 -25z m24 -22 c-11 -11 -19 6 -11 24 8 17 8 17
12 0 3 -10 2 -21 -1 -24z m144 15 c0 -20 -20 -25 -21 -5 0 10 -2 10 -6 0 -2
-7 -16 -13 -29 -13 -13 0 -24 6 -25 13 0 10 -2 10 -6 0 -8 -21 -43 -16 -43 7
0 17 7 19 65 18 56 -1 65 -4 65 -20z m60 18 c0 -18 -15 -36 -31 -36 -18 0 -26
20 -12 33 7 8 43 10 43 3z m206 -13 c-3 -8 -6 -19 -6 -24 0 -14 -17 -11 -34 7
-9 8 -16 11 -16 5 0 -18 -20 -12 -21 7 -1 16 -2 16 -6 0 -5 -21 -23 -24 -24
-5 0 8 -2 8 -6 -2 -5 -11 -7 -11 -14 0 -6 10 -9 11 -9 2 0 -7 -10 -13 -23 -13
-28 0 -37 7 -31 25 4 9 33 12 100 13 80 0 95 -2 90 -15z m-121 -53 c3 -5 2
-10 -4 -10 -5 0 -13 5 -16 10 -3 6 -2 10 4 10 5 0 13 -4 16 -10z m35 0 c0 -5
-4 -10 -10 -10 -5 0 -10 5 -10 10 0 6 5 10 10 10 6 0 10 -4 10 -10z m80 0 c0
-5 -2 -10 -4 -10 -3 0 -8 5 -11 10 -3 6 -1 10 4 10 6 0 11 -4 11 -10z m434
-825 l5 -800 -620 0 -619 0 -2 798 -3 797 73 0 73 0 -3 -700 -3 -700 473 0
c370 0 472 3 473 13 0 6 0 321 -1 699 l-1 687 73 3 c40 2 74 3 75 3 1 -1 4
-361 7 -800z m-174 105 l0 -690 -450 0 -450 0 0 690 0 690 450 0 450 0 0 -690z"/>
<path d="M2515 4810 c-3 -5 -1 -10 4 -10 6 0 11 5 11 10 0 6 -2 10 -4 10 -3 0
-8 -4 -11 -10z"/>
<path d="M2585 4810 c-3 -5 -1 -10 4 -10 6 0 11 5 11 10 0 6 -2 10 -4 10 -3 0
-8 -4 -11 -10z"/>
<path d="M1974 4345 c0 -66 1 -92 3 -57 2 34 2 88 0 120 -2 31 -3 3 -3 -63z"/>
<path d="M1972 4115 c0 -16 2 -22 5 -12 2 9 2 23 0 30 -3 6 -5 -1 -5 -18z"/>
<path d="M1973 4025 c0 -33 2 -45 4 -27 2 18 2 45 0 60 -2 15 -4 0 -4 -33z"/>
<path d="M1973 3725 c0 -44 2 -61 4 -37 2 23 2 59 0 80 -2 20 -4 1 -4 -43z"/>
<path d="M1974 3550 c0 -52 1 -74 3 -47 2 26 2 68 0 95 -2 26 -3 4 -3 -48z"/>
<path d="M1973 3410 c0 -25 2 -35 4 -22 2 12 2 32 0 45 -2 12 -4 2 -4 -23z"/>
<path d="M2396 3288 c3 -4 -2 -8 -10 -8 -9 0 -14 -8 -12 -22 6 -46 15 -54 51
-50 31 4 34 2 29 -14 -5 -17 -4 -17 8 -3 10 12 38 15 146 16 73 0 134 2 136 4
2 2 6 16 10 30 5 22 1 30 -20 44 -15 9 -24 13 -20 7 4 -7 -43 -9 -137 -7 -78
2 -142 4 -142 5 0 1 -10 3 -22 4 -12 1 -20 -1 -17 -6z m55 -28 c10 0 19 -7 19
-15 0 -18 -20 -20 -21 -2 0 10 -2 10 -6 0 -8 -22 -43 -15 -43 8 0 15 4 19 16
15 9 -3 24 -6 35 -6z m280 -27 c-9 -16 -10 -14 -11 12 0 21 3 26 11 18 8 -8 8
-16 0 -30z m-231 12 c0 -8 -4 -15 -10 -15 -5 0 -10 7 -10 15 0 8 5 15 10 15 6
0 10 -7 10 -15z m90 0 c0 -18 -20 -20 -21 -2 0 10 -2 10 -6 0 -7 -19 -53 -16
-53 2 0 11 11 15 40 15 29 0 40 -4 40 -15z m60 0 c0 -9 -9 -15 -25 -15 -16 0
-25 6 -25 15 0 9 9 15 25 15 16 0 25 -6 25 -15z m30 0 c0 -8 -4 -15 -10 -15
-5 0 -10 7 -10 15 0 8 5 15 10 15 6 0 10 -7 10 -15z m30 -6 c0 -5 -4 -9 -10
-9 -5 0 -10 7 -10 16 0 8 5 12 10 9 6 -3 10 -10 10 -16z"/>
<path d="M2650 3190 c-23 -8 -23 -8 7 -7 17 1 29 5 27 9 -3 4 -6 8 -7 7 -1 -1
-13 -5 -27 -9z"/>
<path d="M2490 3180 c0 -8 86 -7 95 2 2 2 -18 5 -45 5 -28 1 -50 -2 -50 -7z"/>
<path d="M2605 3180 c-3 -5 -1 -10 4 -10 6 0 11 5 11 10 0 6 -2 10 -4 10 -3 0
-8 -4 -11 -10z"/>
<path d="M2758 4703 c7 -3 16 -2 19 1 4 3 -2 6 -13 5 -11 0 -14 -3 -6 -6z"/>
<path d="M2130 4040 l0 -660 63 2 62 2 -57 3 -58 4 0 649 0 649 38 4 37 4 -42
1 -43 2 0 -660z"/>
<path d="M2228 4693 c6 -2 18 -2 25 0 6 3 1 5 -13 5 -14 0 -19 -2 -12 -5z"/>
<path d="M2393 4693 c15 -2 39 -2 55 0 15 2 2 4 -28 4 -30 0 -43 -2 -27 -4z"/>
<path d="M2848 4693 c18 -2 45 -2 60 0 15 2 0 4 -33 4 -33 0 -45 -2 -27 -4z"/>
<path d="M2984 4505 c0 -110 2 -156 3 -103 2 53 2 143 0 200 -1 57 -3 13 -3
-97z"/>
<path d="M2983 4195 c0 -38 2 -53 4 -32 2 20 2 52 0 70 -2 17 -4 1 -4 -38z"/>
<path d="M2506 4010 c21 -22 45 -40 54 -40 9 0 34 18 55 40 49 50 39 52 -15 3
l-41 -36 -37 36 c-51 50 -63 47 -16 -3z"/>
<path d="M2980 3700 l0 -310 -362 -3 -363 -2 368 -3 367 -2 0 315 c0 173 -2
315 -5 315 -3 0 -5 -139 -5 -310z"/>
<path d="M2514 3947 c-4 -7 -4 -9 1 -5 4 4 14 3 22 -3 8 -7 13 -8 13 -1 0 15
-28 23 -36 9z"/>
<path d="M2576 3950 c-11 -3 -15 -9 -10 -12 5 -3 18 -2 28 2 11 3 15 9 10 12
-5 3 -18 2 -28 -2z"/>
<path d="M2635 3940 c-3 -6 1 -7 9 -4 18 7 21 14 7 14 -6 0 -13 -4 -16 -10z"/>
<path d="M2350 3902 c0 -12 4 -22 9 -22 10 0 9 26 -2 36 -4 4 -7 -2 -7 -14z"/>
<path d="M2465 3910 c-4 -6 -3 -16 3 -22 6 -6 12 -6 17 2 4 6 3 16 -3 22 -6 6
-12 6 -17 -2z"/>
<path d="M2500 3898 c0 -10 5 -18 10 -18 6 0 10 5 10 11 0 5 6 7 12 3 20 -13
48 -12 48 2 0 7 -17 14 -40 16 -33 3 -40 0 -40 -14z"/>
<path d="M2698 3912 c-10 -2 -18 -10 -18 -18 0 -17 26 -19 33 -1 4 10 6 10 6
0 1 -18 21 -16 21 1 0 16 -18 24 -42 18z"/>
<path d="M2750 3901 c0 -12 5 -21 10 -21 6 0 10 6 10 14 0 8 -4 18 -10 21 -5
3 -10 -3 -10 -14z"/>
<path d="M2380 3894 c0 -6 16 -11 39 -11 29 0 38 4 34 14 -6 16 -73 14 -73 -3z"/>
<path d="M2590 3895 c0 -8 4 -15 9 -15 5 0 11 7 15 15 3 9 0 15 -9 15 -8 0
-15 -7 -15 -15z"/>
<path d="M2625 3899 c-4 -6 -4 -13 0 -17 3 -3 10 0 15 8 7 10 10 11 10 3 0 -7
5 -13 10 -13 6 0 10 7 10 15 0 17 -35 20 -45 4z"/>
<path d="M2553 3853 c9 -2 25 -2 35 0 9 3 1 5 -18 5 -19 0 -27 -2 -17 -5z"/>
<path d="M2538 3832 c-89 -2 -108 -5 -108 -18 0 -17 40 -16 52 1 4 6 8 2 8 -7
0 -11 8 -18 19 -18 11 0 22 8 24 18 4 16 5 16 6 0 0 -10 6 -18 11 -18 6 0 10
8 10 18 1 16 1 16 11 0 5 -10 17 -18 24 -18 8 0 15 8 15 18 0 14 2 15 10 2 9
-13 11 -13 20 0 7 11 10 12 10 2 0 -19 44 -11 48 9 2 12 -4 16 -25 15 -15 -1
-76 -2 -135 -4z m-18 -16 c0 -3 -4 -8 -10 -11 -5 -3 -10 -1 -10 4 0 6 5 11 10
11 6 0 10 -2 10 -4z"/>
<path d="M2440 3768 c0 -4 7 -8 15 -8 8 0 15 4 15 8 0 5 -7 9 -15 9 -8 0 -15
-4 -15 -9z"/>
<path d="M2390 3729 c0 -11 64 -15 197 -15 68 1 123 5 123 10 0 5 -72 9 -160
10 -88 1 -160 -2 -160 -5z"/>
<path d="M2397 3683 c-4 -3 -7 -11 -7 -17 0 -6 5 -4 10 4 8 12 12 12 18 2 11
-16 262 -18 291 -3 10 6 22 7 26 3 5 -4 5 -1 1 6 -8 13 -36 17 -36 4 0 -11
-269 -12 -276 -1 -6 11 -18 12 -27 2z"/>
<path d="M2718 3653 c7 -3 16 -2 19 1 4 3 -2 6 -13 5 -11 0 -14 -3 -6 -6z"/>
<path d="M2340 3614 c0 -8 4 -13 9 -9 6 3 107 6 225 6 123 1 216 5 216 10 0 5
-97 9 -225 9 -197 0 -225 -2 -225 -16z"/>
<path d="M2375 3580 c-4 -7 59 -10 179 -10 112 0 186 4 186 10 0 13 -357 13
-365 0z"/>
<path d="M4733 4380 c0 -36 2 -50 4 -32 2 17 2 47 0 65 -2 17 -4 3 -4 -33z"/>
<path d="M3433 4330 c0 -25 2 -35 4 -22 2 12 2 32 0 45 -2 12 -4 2 -4 -23z"/>
<path d="M394 4155 c0 -115 2 -161 3 -102 2 59 2 154 0 210 -1 56 -3 8 -3
-108z"/>
<path d="M1693 4295 c0 -33 2 -45 4 -27 2 18 2 45 0 60 -2 15 -4 0 -4 -33z"/>
<path d="M4753 4270 c0 -30 2 -43 4 -27 2 15 2 39 0 55 -2 15 -4 2 -4 -28z"/>
<path d="M4733 4220 c0 -41 2 -58 4 -37 2 20 2 54 0 75 -2 20 -4 3 -4 -38z"/>
<path d="M3434 4130 c0 -80 2 -112 3 -72 2 39 2 105 0 145 -1 39 -3 7 -3 -73z"/>
<path d="M1684 4080 c0 -85 2 -120 3 -77 2 42 2 112 0 155 -1 42 -3 7 -3 -78z"/>
<path d="M4753 4080 c0 -47 2 -66 4 -42 2 23 2 61 0 85 -2 23 -4 4 -4 -43z"/>
<path d="M1713 4085 c0 -22 2 -30 4 -17 2 12 2 30 0 40 -3 9 -5 -1 -4 -23z"/>
<path d="M1714 3890 c0 -85 2 -120 3 -77 2 42 2 112 0 155 -1 42 -3 7 -3 -78z"/>
<path d="M4754 3845 c0 -55 1 -76 3 -47 2 29 2 74 0 100 -2 26 -3 2 -3 -53z"/>
<path d="M1704 3595 c0 -71 1 -99 3 -62 2 37 2 96 0 130 -2 34 -3 4 -3 -68z"/>
<path d="M4741 3484 c1 -93 4 -200 8 -239 4 -38 5 35 4 164 -2 129 -5 236 -8
239 -3 3 -4 -71 -4 -164z"/>
<path d="M394 3335 c0 -82 2 -115 3 -72 2 43 2 110 0 150 -1 40 -3 5 -3 -78z"/>
<path d="M1703 3420 c0 -25 2 -35 4 -22 2 12 2 32 0 45 -2 12 -4 2 -4 -23z"/>
<path d="M3433 3325 c0 -27 2 -38 4 -22 2 15 2 37 0 50 -2 12 -4 0 -4 -28z"/>
<path d="M1714 3215 c0 -49 1 -71 3 -48 2 23 2 64 0 90 -2 26 -3 8 -3 -42z"/>
<path d="M1683 3215 c0 -38 2 -53 4 -32 2 20 2 52 0 70 -2 17 -4 1 -4 -38z"/>
<path d="M3196 3095 c4 -8 7 -15 9 -15 2 0 5 7 9 15 3 9 0 15 -9 15 -9 0 -12
-6 -9 -15z"/>
<path d="M3201 3054 c0 -11 3 -14 6 -6 3 7 2 16 -1 19 -3 4 -6 -2 -5 -13z"/>
<path d="M3970 3030 c-272 -3 -486 -9 -475 -13 24 -10 1195 -5 1195 5 0 11
-195 13 -720 8z"/>
<path d="M2242 3013 c164 -2 432 -2 596 0 163 1 29 2 -298 2 -327 0 -461 -1
-298 -2z"/>
<path d="M852 2803 c-6 -2 -10 -8 -8 -12 3 -4 -14 -6 -37 -5 -23 1 -48 -3 -55
-9 -10 -8 -12 -7 -10 4 4 17 -38 25 -55 11 -8 -7 -11 -29 -9 -57 4 -41 6 -45
26 -39 17 5 19 4 8 -7 -7 -8 -30 -12 -58 -10 l-47 3 6 -42 c3 -23 7 -44 10
-46 7 -7 664 -7 675 0 8 4 8 63 0 71 -1 2 -23 5 -48 6 -44 4 -45 3 -48 -28 -2
-18 -8 -33 -14 -33 -6 0 -8 13 -4 35 l7 35 -61 -3 c-33 -1 -60 0 -60 4 0 4
-13 4 -30 -1 -19 -5 -30 -5 -30 1 0 6 -5 7 -11 3 -19 -11 -280 -11 -268 1 14
14 500 15 519 2 12 -9 13 -8 4 1 -6 8 -8 30 -4 55 6 40 5 42 -19 42 -101 2
-122 5 -115 18 6 8 3 8 -9 -2 -9 -7 -24 -11 -32 -7 -11 4 -14 2 -9 -7 6 -9 4
-9 -7 -1 -9 8 -37 10 -85 5 -52 -5 -74 -3 -83 6 -12 14 -18 15 -39 6z m28 -48
c0 -28 -4 -35 -20 -35 -11 0 -20 6 -20 13 0 8 -3 8 -9 -2 -8 -12 -12 -12 -25
-2 -13 11 -16 11 -16 0 0 -8 -6 -6 -16 7 -13 16 -15 16 -10 2 4 -15 -1 -18
-29 -18 -30 0 -35 3 -35 24 0 25 16 43 28 31 3 -3 0 -11 -8 -16 -11 -8 -8 -8
10 -3 14 4 31 7 38 6 58 -6 86 -2 94 12 14 24 18 20 18 -19z m126 0 c2 -16 -7
-35 -17 -35 -5 0 -9 8 -9 17 0 15 -2 14 -15 -3 -14 -18 -14 -18 -15 4 0 14 -4
21 -11 17 -6 -4 -8 -13 -5 -21 3 -8 1 -14 -4 -14 -6 0 -11 8 -11 18 -1 16 -2
16 -6 0 -6 -24 -23 -23 -23 1 0 14 8 21 28 23 51 6 87 3 88 -7z m64 0 c15 -18
5 -35 -21 -35 -12 0 -19 7 -19 18 0 33 20 42 40 17z m36 -10 c-1 -33 -16 -33
-16 0 0 14 4 25 9 25 5 0 8 -11 7 -25z m93 9 c2 -2 0 -11 -3 -21 -7 -17 -8
-17 -22 1 -12 17 -14 18 -14 3 0 -9 -4 -17 -10 -17 -11 0 -14 33 -3 43 6 6 42
0 52 -9z m23 -30 c-14 -24 -21 -3 -9 26 8 20 11 22 14 8 2 -10 0 -25 -5 -34z
m-92 14 c0 -16 -3 -19 -11 -11 -6 6 -8 16 -5 22 11 17 16 13 16 -11z m-460
-87 c0 -4 11 -6 25 -3 20 3 25 0 25 -16 0 -18 -6 -21 -39 -20 -29 0 -40 5 -44
19 -3 10 -2 20 1 23 8 9 32 7 32 -3z m488 -1 c6 0 12 -8 12 -19 0 -15 -8 -18
-40 -18 -30 0 -40 4 -40 16 -1 14 -2 14 -11 -1 -5 -10 -17 -18 -24 -18 -8 0
-15 8 -16 18 0 14 -2 14 -7 2 -10 -22 -42 -24 -43 -3 -1 17 -2 17 -6 1 -2 -10
-11 -18 -19 -18 -8 0 -15 8 -15 18 -1 15 -2 14 -6 -2 -4 -15 -7 -16 -14 -5 -6
10 -9 10 -9 2 0 -7 -9 -13 -20 -13 -21 0 -29 35 -10 42 8 2 193 1 268 -2z
m-295 -20 c-3 -11 -9 -20 -14 -20 -5 0 -6 8 -3 18 5 15 4 15 -5 1 -7 -10 -27
-16 -61 -17 -43 -1 -50 2 -50 19 0 17 7 19 69 19 64 0 69 -1 64 -20z m367 0
c0 -11 -4 -20 -10 -20 -5 0 -10 9 -10 20 0 11 5 20 10 20 6 0 10 -9 10 -20z
m50 0 c0 -13 -7 -20 -20 -20 -13 0 -20 7 -20 20 0 13 7 20 20 20 13 0 20 -7
20 -20z"/>
<path d="M855 2740 c-3 -5 -1 -10 4 -10 6 0 11 5 11 10 0 6 -2 10 -4 10 -3 0
-8 -4 -11 -10z"/>
<path d="M1040 2740 c0 -5 5 -10 10 -10 6 0 10 5 10 10 0 6 -4 10 -10 10 -5 0
-10 -4 -10 -10z"/>
<path d="M1140 2629 c0 -5 5 -7 10 -4 6 3 10 8 10 11 0 2 -4 4 -10 4 -5 0 -10
-5 -10 -11z"/>
<path d="M745 2630 c-3 -5 -1 -10 4 -10 6 0 11 5 11 10 0 6 -2 10 -4 10 -3 0
-8 -4 -11 -10z"/>
<path d="M1250 2629 c0 -5 5 -7 10 -4 6 3 10 8 10 11 0 2 -4 4 -10 4 -5 0 -10
-5 -10 -11z"/>
<path d="M2614 2803 c5 -10 -31 -12 -162 -8 l-169 3 -1 -51 0 -52 164 2 c99 1
164 -2 164 -7 0 -8 -164 -17 -195 -10 -24 5 -112 2 -132 -4 -18 -6 -21 -14
-20 -46 1 -22 7 -42 15 -45 7 -2 11 -1 8 3 -2 4 123 7 279 6 l284 -1 6 24 c7
30 -3 66 -16 58 -5 -4 -9 -2 -9 3 0 6 -9 8 -20 5 -11 -3 -20 -1 -20 5 0 6 12
12 27 14 22 3 27 8 28 36 1 20 -4 36 -12 39 -7 3 -11 8 -9 12 2 3 -39 5 -92 5
-59 -1 -103 3 -111 10 -11 8 -13 8 -7 -1z m-289 -33 c-9 -14 8 -13 23 2 9 9
12 5 13 -17 0 -29 1 -29 9 -7 8 18 14 21 27 14 10 -5 23 -7 30 -5 7 2 10 -3 7
-14 -7 -24 -95 -27 -106 -3 -5 12 -7 12 -7 -2 -1 -10 -5 -18 -10 -18 -7 0 -8
34 -2 58 1 1 6 2 12 2 5 0 7 -4 4 -10z m145 -1 c0 -6 9 -9 20 -6 15 4 20 0 21
-16 l2 -22 4 21 c3 16 9 20 24 17 23 -6 25 -29 3 -37 -22 -8 -54 2 -54 17 0 7
-4 6 -10 -3 -9 -13 -10 -13 -11 0 0 10 -3 8 -9 -5 -7 -17 -9 -15 -9 13 -1 17
4 32 9 32 6 0 10 -5 10 -11z m269 -13 c1 6 7 11 15 11 8 0 13 -10 12 -24 -1
-24 -15 -33 -17 -10 0 10 -2 10 -6 0 -8 -20 -53 -16 -54 5 -1 16 -2 16 -6 0
-5 -21 -23 -24 -24 -5 0 10 -2 10 -6 0 -2 -7 -13 -13 -24 -13 -14 0 -19 7 -19
25 0 14 5 25 11 25 6 0 8 -9 4 -20 -4 -11 -2 -20 4 -20 6 0 11 7 11 16 0 8 4
13 9 9 5 -3 12 -1 15 4 3 5 15 7 25 4 10 -3 22 1 27 8 5 9 9 8 15 -7 4 -10 8
-14 8 -8z m-149 -5 c0 -11 -4 -23 -10 -26 -6 -4 -10 5 -10 19 0 14 5 26 10 26
6 0 10 -9 10 -19z m236 3 c-3 -9 -6 -20 -6 -25 0 -5 -5 -9 -11 -9 -6 0 -8 8
-5 18 6 16 5 16 -8 -1 -12 -15 -14 -16 -20 -2 -4 10 2 19 17 25 33 13 40 12
33 -6z m-186 -64 c0 -5 -4 -10 -10 -10 -5 0 -10 5 -10 10 0 6 5 10 10 10 6 0
10 -4 10 -10z m110 0 c0 -5 -22 -10 -50 -10 -27 0 -50 4 -50 8 0 5 23 10 50
11 28 1 50 -3 50 -9z m30 0 c0 -5 -4 -10 -10 -10 -5 0 -10 5 -10 10 0 6 5 10
10 10 6 0 10 -4 10 -10z m-460 -40 c9 -5 19 -5 28 2 17 14 37 -4 29 -26 -7
-19 -37 -22 -37 -4 0 9 -3 9 -12 0 -18 -18 -35 -15 -41 7 -7 30 6 39 33 21z
m185 -13 c0 -9 -4 -16 -10 -14 -5 1 -9 5 -8 8 1 3 -4 6 -12 6 -7 0 -11 -6 -8
-14 3 -7 0 -13 -6 -13 -6 0 -11 5 -11 10 0 7 -6 7 -19 0 -26 -14 -28 -13 -34
9 -7 27 -3 29 56 27 41 -2 52 -6 52 -19z m325 6 c0 -7 0 -16 0 -20 -1 -12
-104 -2 -112 11 -6 8 -8 8 -8 -1 0 -7 -9 -13 -20 -13 -11 0 -20 6 -20 13 0 8
-4 7 -10 -3 -6 -10 -10 -11 -10 -2 0 6 -5 12 -11 12 -5 0 -7 -4 -4 -10 12 -19
-77 -11 -92 8 -14 16 -14 16 -9 0 3 -10 1 -18 -4 -18 -6 0 -10 8 -10 18 0 16
14 17 155 17 118 0 155 -3 155 -12z"/>
<path d="M3963 2797 c-3 -6 -35 -7 -79 -3 -81 7 -87 3 -83 -66 l3 -33 188 2
c103 1 188 -2 188 -7 0 -4 -86 -7 -191 -8 -105 0 -195 -4 -199 -9 -4 -4 -6
-23 -3 -41 4 -22 12 -34 27 -37 11 -3 144 -4 295 -3 l274 3 3 32 c1 18 -4 37
-11 43 -7 6 -51 11 -99 11 -50 0 -84 4 -81 9 3 5 43 9 90 9 46 -1 87 1 92 4
13 8 3 77 -11 78 -6 0 -20 3 -31 6 -11 3 -62 5 -113 4 -58 0 -91 3 -87 9 3 6
1 10 -4 10 -6 0 -11 -5 -11 -11 0 -6 -23 -9 -60 -8 -33 1 -60 5 -60 9 0 10
-30 8 -37 -3z m-117 -33 c-3 -9 -6 -22 -6 -30 0 -8 -4 -14 -9 -14 -6 0 -8 12
-7 28 4 33 4 32 17 32 6 0 8 -7 5 -16z m477 1 c31 2 37 0 37 -16 0 -25 -27
-36 -51 -20 -15 9 -19 8 -20 -1 0 -7 -4 -4 -9 7 -7 17 -9 17 -9 3 -1 -10 -5
-18 -11 -18 -12 0 -12 2 1 37 6 17 13 23 17 16 4 -7 24 -10 45 -8z m-446 -10
c-4 -8 -2 -17 3 -20 6 -4 10 1 10 9 0 9 9 16 20 16 21 0 28 -24 10 -35 -5 -3
-10 2 -10 12 -1 17 -1 17 -11 1 -12 -21 -49 -24 -49 -5 0 12 19 37 28 37 2 0
2 -7 -1 -15z m102 -12 c-2 -24 -2 -25 -6 -5 -2 12 -8 20 -13 17 -5 -3 -7 -12
-3 -20 3 -8 0 -15 -6 -15 -12 0 -15 32 -4 43 16 17 33 6 32 -20z m130 18 c0
-3 -4 -15 -9 -26 -8 -18 -9 -18 -10 5 -1 25 -1 25 -10 3 -5 -13 -17 -23 -26
-23 -14 0 -15 2 -3 18 12 14 10 14 -8 -2 -24 -20 -53 -16 -53 7 0 8 2 16 4 18
7 6 116 6 115 0z m41 -1 c0 -5 -5 -10 -12 -10 -6 0 -8 -3 -5 -7 4 -3 15 0 24
9 10 8 34 14 53 13 32 -2 36 -6 32 -34 -3 -11 -111 -11 -118 1 -8 12 3 38 16
38 5 0 10 -4 10 -10z m-270 -121 c0 -10 -4 -21 -10 -24 -5 -3 -10 2 -10 12 -1
17 -1 17 -11 1 -15 -26 -39 -22 -39 6 0 21 4 24 35 23 26 -1 35 -5 35 -18z
m228 -2 c2 -9 -1 -17 -7 -17 -6 0 -11 6 -12 13 0 10 -2 10 -6 0 -6 -15 -53
-18 -53 -3 0 6 -4 10 -10 10 -5 0 -7 -8 -3 -17 6 -16 4 -16 -16 2 -16 13 -22
15 -19 5 4 -18 -52 -21 -59 -3 -3 7 -10 13 -15 13 -6 0 -8 -7 -4 -15 3 -8 1
-15 -4 -15 -11 0 -14 33 -4 42 3 3 51 5 107 4 88 -1 102 -3 105 -19z m92 1 c0
-10 -4 -18 -10 -18 -5 0 -10 5 -10 10 0 6 -5 10 -11 10 -5 0 -8 -4 -5 -9 3 -5
-3 -11 -14 -14 -22 -6 -34 7 -27 28 4 8 20 13 41 12 28 -1 36 -5 36 -19z m160
-4 c0 -17 -5 -22 -20 -21 -11 1 -20 6 -20 11 0 6 -4 6 -10 0 -11 -11 -73 -6
-65 5 2 4 -2 8 -10 8 -8 0 -12 -4 -9 -9 3 -4 0 -8 -5 -8 -11 0 -15 23 -6 32 3
2 37 5 75 5 66 0 70 -2 70 -23z"/>
<path d="M4011 2744 c0 -11 3 -14 6 -6 3 7 2 16 -1 19 -3 4 -6 -2 -5 -13z"/>
<path d="M4175 2740 c3 -5 8 -10 11 -10 2 0 4 5 4 10 0 6 -5 10 -11 10 -5 0
-7 -4 -4 -10z"/>
<path d="M3820 2640 c0 -5 5 -10 11 -10 5 0 7 5 4 10 -3 6 -8 10 -11 10 -2 0
-4 -4 -4 -10z"/>
<path d="M3955 2630 c3 -5 8 -10 11 -10 2 0 4 5 4 10 0 6 -5 10 -11 10 -5 0
-7 -4 -4 -10z"/>
<path d="M1404 2572 c5 -9 -117 -12 -491 -12 l-498 0 3 -202 c1 -112 3 -234 5
-271 l2 -68 490 1 c314 0 491 4 493 10 2 6 9 7 15 3 9 -5 9 -3 1 8 -8 10 -11
92 -8 271 2 178 -1 260 -8 264 -7 4 -8 2 -4 -4z m-14 -282 l0 -250 -475 0
-475 0 0 250 0 250 475 0 475 0 0 -250z"/>
<path d="M465 2500 c3 -5 8 -10 11 -10 2 0 4 5 4 10 0 6 -5 10 -11 10 -5 0 -7
-4 -4 -10z"/>
<path d="M723 2503 c119 -2 315 -2 435 0 119 1 21 2 -218 2 -239 0 -337 -1
-217 -2z"/>
<path d="M1364 2325 c0 -88 2 -123 3 -77 2 46 2 118 0 160 -1 42 -3 5 -3 -83z"/>
<path d="M474 2225 c0 -60 1 -84 3 -52 2 32 2 81 0 110 -2 29 -3 3 -3 -58z"/>
<path d="M1363 2125 c0 -22 2 -30 4 -17 2 12 2 30 0 40 -3 9 -5 -1 -4 -23z"/>
<path d="M948 2123 c6 -2 18 -2 25 0 6 3 1 5 -13 5 -14 0 -19 -2 -12 -5z"/>
<path d="M491 2104 c0 -11 3 -14 6 -6 3 7 2 16 -1 19 -3 4 -6 -2 -5 -13z"/>
<path d="M1141 2111 c-14 -4 9 -7 55 -7 64 -1 71 1 39 7 -47 9 -62 9 -94 0z"/>
<path d="M498 2073 c7 -3 16 -2 19 1 4 3 -2 6 -13 5 -11 0 -14 -3 -6 -6z"/>
<path d="M772 2073 c108 -2 288 -2 400 0 112 1 23 2 -197 2 -220 0 -311 -1
-203 -2z"/>
<path d="M3440 2570 c0 -6 -6 -8 -12 -4 -10 6 -10 4 0 -7 9 -10 12 -79 12
-273 0 -172 -4 -256 -10 -246 -6 9 -10 10 -10 3 0 -7 8 -16 18 -21 10 -6 283
-8 662 -6 l645 3 5 275 5 275 -649 1 c-356 0 -652 3 -657 6 -5 3 -9 0 -9 -6z
m1285 -275 l0 -255 -632 0 -633 0 0 255 0 255 633 0 632 0 0 -255z"/>
<path d="M3482 2317 c-2 -111 1 -215 7 -232 6 -21 10 39 10 203 1 127 -2 232
-6 232 -5 0 -9 -91 -11 -203z"/>
<path d="M3528 2513 c12 -2 32 -2 45 0 12 2 2 4 -23 4 -25 0 -35 -2 -22 -4z"/>
<path d="M4152 2513 l538 -3 3 -228 2 -227 3 233 2 232 -542 -2 -543 -3 537
-2z"/>
<path d="M3695 2070 l-120 -6 120 -2 c66 -1 127 3 135 8 13 9 13 9 0 8 -8 -1
-69 -5 -135 -8z"/>
<path d="M3963 2073 c15 -2 39 -2 55 0 15 2 2 4 -28 4 -30 0 -43 -2 -27 -4z"/>
<path d="M4326 2072 c-3 -5 18 -10 46 -11 29 -1 50 0 47 2 -10 9 -88 16 -93 9z"/>
<path d="M4550 2070 c0 -5 14 -7 33 -3 45 8 47 13 4 13 -20 0 -37 -4 -37 -10z"/>
<path d="M3523 2063 c9 -2 25 -2 35 0 9 3 1 5 -18 5 -19 0 -27 -2 -17 -5z"/>
<path d="M1928 2295 c-3 -269 -2 -276 17 -280 11 -3 299 -4 640 -2 l620 2 3
278 2 277 -640 0 -639 0 -3 -275z m1255 -2 c-2 -142 -5 -257 -8 -255 -3 1
-279 2 -615 2 l-610 0 0 255 0 255 618 0 617 0 -2 -257z"/>
<path d="M1980 2290 l0 -230 163 2 162 2 -157 3 -158 4 0 219 0 220 580 0 580
0 0 -220 0 -219 -82 -4 -83 -3 88 -2 87 -2 0 230 0 230 -590 0 -590 0 0 -230z"/>
<path d="M2163 2093 c37 -2 97 -2 135 0 37 2 6 3 -68 3 -74 0 -105 -1 -67 -3z"/>
<path d="M2558 2093 c105 -2 279 -2 385 0 105 1 19 2 -193 2 -212 0 -298 -1
-192 -2z"/>
<path d="M2493 2063 c9 -2 25 -2 35 0 9 3 1 5 -18 5 -19 0 -27 -2 -17 -5z"/>
<path d="M2633 2063 c15 -2 37 -2 50 0 12 2 0 4 -28 4 -27 0 -38 -2 -22 -4z"/>
<path d="M2808 2063 c17 -2 47 -2 65 0 17 2 3 4 -33 4 -36 0 -50 -2 -32 -4z"/>
<path d="M1912 2430 c0 -14 2 -19 5 -12 2 6 2 18 0 25 -3 6 -5 1 -5 -13z"/>
<path d="M395 2031 c-3 -5 -2 -12 3 -15 5 -3 9 1 9 9 0 17 -3 19 -12 6z"/>
<path d="M994 1971 c5 -7 -18 -11 -71 -11 -43 0 -85 -1 -93 -1 -8 -1 -19 0
-25 1 -5 1 -25 2 -42 1 -31 -1 -33 -3 -33 -35 0 -19 6 -38 12 -43 13 -7 104
-15 143 -12 11 1 67 1 125 0 141 -1 146 1 148 44 1 20 4 41 8 48 5 9 3 8 -7 0
-14 -14 -53 -18 -46 -5 3 4 -16 6 -41 5 -26 0 -55 3 -66 9 -13 7 -16 7 -12 -1z
m-161 -40 c4 -1 7 -8 7 -16 0 -18 -30 -20 -31 -2 0 10 -2 10 -6 0 -7 -19 -23
-16 -24 5 -1 16 -2 16 -6 0 -6 -25 -23 -23 -23 2 0 18 5 20 38 16 20 -3 40 -5
45 -5z m33 -6 c-3 -8 -1 -15 4 -15 5 0 11 8 13 18 4 13 5 11 6 -5 1 -17 -5
-23 -19 -23 -19 0 -27 20 -13 33 11 12 15 8 9 -8z m124 -7 c0 -13 -7 -17 -30
-15 -16 1 -30 7 -30 12 0 6 -4 3 -10 -5 -10 -17 -25 -7 -17 12 2 8 22 13 46
13 33 1 41 -3 41 -17z m145 -3 c0 -25 -19 -29 -39 -10 -9 9 -16 12 -16 6 0 -6
-18 -11 -40 -11 -27 0 -40 4 -40 13 0 22 8 24 73 22 52 -2 62 -5 62 -20z"/>
<path d="M2585 1970 c-3 -5 -25 -9 -48 -9 -23 1 -70 1 -104 0 l-63 -1 0 -39
c0 -23 5 -41 13 -44 7 -3 92 -4 188 -3 l174 1 3 36 c3 35 1 37 -35 44 -60 12
-76 13 -102 3 -19 -7 -22 -5 -17 7 6 17 0 20 -9 5z m-117 -54 c2 -9 -1 -16 -7
-16 -6 0 -11 6 -11 13 0 8 -3 9 -8 1 -4 -6 -17 -13 -29 -16 -19 -5 -23 -2 -23
16 0 20 5 23 38 21 25 -2 38 -8 40 -19z m49 16 c8 -5 9 -13 3 -22 -9 -13 -10
-13 -10 0 0 13 -1 13 -10 0 -11 -18 -25 -7 -17 15 7 17 16 19 34 7z m43 -12
c0 -11 -7 -20 -15 -20 -18 0 -19 12 -3 28 16 16 18 15 18 -8z m70 16 c0 -2 -3
-11 -6 -20 -9 -23 -24 -20 -24 4 0 11 7 20 15 20 8 0 15 -2 15 -4z m27 -16
c-1 -22 -17 -28 -17 -7 0 12 9 27 16 27 2 0 2 -9 1 -20z m68 -17 c-8 -17 -8
-17 -13 1 -3 15 -6 16 -13 5 -7 -12 -9 -12 -9 1 0 13 -1 13 -10 0 -8 -13 -10
-13 -10 2 0 10 9 18 23 20 29 5 42 -6 32 -29z m-135 12 c0 -8 -4 -15 -10 -15
-5 0 -10 7 -10 15 0 8 5 15 10 15 6 0 10 -7 10 -15z"/>
<path d="M4008 1964 c-3 -3 -52 -6 -109 -7 -103 -2 -104 -2 -105 -27 -2 -28
13 -63 24 -56 4 2 37 1 74 -3 37 -4 74 -3 83 1 9 6 15 5 15 -1 0 -7 8 -7 26
-1 23 9 25 8 20 -7 -5 -16 -4 -16 6 -3 11 12 42 15 171 14 86 0 155 1 153 3
-2 2 0 19 4 38 l8 33 -57 6 c-61 6 -123 9 -131 6 -14 -5 -90 -5 -122 1 -22 4
-42 2 -49 -5 -9 -8 -10 -8 -5 2 7 12 4 16 -6 6z m-102 -34 c41 0 54 -4 54 -15
0 -8 -7 -15 -15 -15 -8 0 -15 6 -15 13 0 9 -2 9 -8 0 -10 -15 -82 -14 -82 1 0
6 -5 4 -10 -4 -8 -12 -10 -10 -10 9 0 17 4 22 16 17 9 -3 40 -6 70 -6z m80
-27 c-11 -11 -19 6 -11 24 8 17 8 17 12 0 3 -10 2 -21 -1 -24z m95 28 c3 -1 6
-8 6 -16 0 -18 -17 -20 -18 -2 0 8 -2 8 -6 -2 -5 -11 -7 -11 -14 0 -6 10 -9
11 -9 2 0 -7 -9 -13 -20 -13 -11 0 -20 6 -20 14 0 16 24 25 55 20 11 -1 23 -3
26 -3z m59 -11 c0 -11 -5 -20 -11 -20 -5 0 -7 5 -4 10 3 6 2 10 -4 10 -5 0
-12 -6 -14 -12 -4 -8 -6 -7 -6 4 -1 15 11 25 32 27 4 1 7 -8 7 -19z m36 -17
c-11 -11 -19 6 -11 24 8 17 8 17 12 0 3 -10 2 -21 -1 -24z m34 17 c0 -5 5 -10
11 -10 5 0 7 5 4 10 -4 6 18 10 58 10 62 0 65 -1 60 -21 -6 -20 -7 -21 -19 -5
-9 13 -13 14 -17 4 -4 -10 -8 -10 -16 2 -7 10 -11 11 -11 3 0 -7 -7 -13 -15
-13 -8 0 -15 6 -16 13 0 10 -2 10 -6 0 -7 -19 -53 -16 -53 2 0 8 5 15 10 15 6
0 10 -4 10 -10z"/>
<path d="M1940 1571 c-13 -25 -14 -1057 -1 -1066 13 -7 1252 -7 1260 1 12 11
12 1047 1 1058 -8 8 -198 10 -631 8 -428 -2 -619 0 -614 8 3 5 4 10 1 10 -3 0
-10 -9 -16 -19z m1250 -529 c0 -285 -2 -521 -4 -523 -2 -2 -43 -3 -90 -1 l-86
3 0 514 0 514 83 4 c45 1 85 4 90 5 4 1 7 -231 7 -516z m-200 -7 l0 -515 -521
0 c-471 0 -521 2 -515 16 3 9 6 240 6 515 l0 499 515 0 515 0 0 -515z"/>
<path d="M1982 1033 l3 -498 2 488 c2 268 7 487 11 487 436 3 943 1 949 -3 6
-4 10 0 10 8 0 13 -68 15 -489 15 l-488 0 2 -497z"/>
<path d="M2941 1445 c1 -19 18 -51 18 -35 0 8 -4 22 -9 30 -5 8 -9 11 -9 5z"/>
<path d="M2952 1345 c0 -16 2 -22 5 -12 2 9 2 23 0 30 -3 6 -5 -1 -5 -18z"/>
<path d="M2952 1125 c0 -16 2 -22 5 -12 2 9 2 23 0 30 -3 6 -5 -1 -5 -18z"/>
<path d="M2380 1116 c0 -24 17 -28 23 -6 3 13 0 20 -9 20 -8 0 -14 -6 -14 -14z"/>
<path d="M2430 1111 c0 -16 8 -19 49 -19 39 -1 51 3 54 16 4 15 5 15 6 0 1
-25 21 -23 21 2 0 25 -37 27 -43 3 -4 -16 -5 -15 -6 1 -1 20 -1 20 -16 0 -13
-17 -14 -17 -15 -1 0 25 -50 24 -50 -2z m40 5 c0 -3 -4 -8 -10 -11 -5 -3 -10
-1 -10 4 0 6 5 11 10 11 6 0 10 -2 10 -4z"/>
<path d="M2583 1110 c-1 -11 2 -20 8 -20 5 0 9 9 9 20 0 11 -4 20 -8 20 -4 0
-8 -9 -9 -20z"/>
<path d="M2698 1083 c7 -3 16 -2 19 1 4 3 -2 6 -13 5 -11 0 -14 -3 -6 -6z"/>
<path d="M2740 1079 c0 -5 5 -7 10 -4 6 3 10 8 10 11 0 2 -4 4 -10 4 -5 0 -10
-5 -10 -11z"/>
<path d="M2279 1041 c0 -11 -2 -12 -6 -3 -2 6 -16 12 -29 12 -17 0 -24 -6 -24
-20 0 -11 5 -20 10 -20 6 0 10 7 10 16 0 14 1 14 16 0 8 -9 22 -16 29 -16 7 0
21 7 29 16 13 12 16 13 16 1 0 -7 7 -14 15 -14 9 0 15 9 15 21 0 17 -2 18 -10
6 -5 -8 -10 -10 -10 -4 0 7 -13 14 -30 16 -22 3 -30 0 -31 -11z"/>
<path d="M2383 1053 c-14 -5 -18 -33 -5 -34 58 -5 102 -2 102 6 0 6 9 11 19
11 11 0 18 -3 15 -7 -8 -14 36 -16 55 -2 16 11 20 11 16 1 -8 -20 124 -16 136
3 7 11 9 10 9 -6 0 -17 2 -17 10 -5 16 25 12 30 -25 30 -21 0 -35 -5 -35 -12
0 -10 -2 -10 -9 0 -12 20 -240 20 -252 1 -7 -11 -9 -10 -9 4 0 17 -5 19 -27
10z m167 -23 c0 -5 -2 -10 -4 -10 -3 0 -8 5 -11 10 -3 6 -1 10 4 10 6 0 11 -4
11 -10z"/>
<path d="M2450 990 c-9 -6 -10 -10 -3 -10 6 0 15 5 18 10 8 12 4 12 -15 0z"/>
<path d="M2507 993 c-15 -14 -6 -23 22 -21 19 1 27 7 24 15 -5 14 -35 18 -46
6z"/>
<path d="M2253 983 c9 -2 25 -2 35 0 9 3 1 5 -18 5 -19 0 -27 -2 -17 -5z"/>
<path d="M2680 986 c0 -9 30 -14 35 -6 4 6 -3 10 -14 10 -12 0 -21 -2 -21 -4z"/>
<path d="M2738 983 c7 -3 16 -2 19 1 4 3 -2 6 -13 5 -11 0 -14 -3 -6 -6z"/>
<path d="M2952 940 c0 -19 2 -27 5 -17 2 9 2 25 0 35 -3 9 -5 1 -5 -18z"/>
<path d="M2952 880 c0 -14 2 -19 5 -12 2 6 2 18 0 25 -3 6 -5 1 -5 -13z"/>
<path d="M2959 625 c-5 -60 -4 -73 7 -63 3 3 4 32 2 64 l-3 59 -6 -60z"/>
<path d="M2878 573 c7 -3 16 -2 19 1 4 3 -2 6 -13 5 -11 0 -14 -3 -6 -6z"/>
<path d="M2213 543 c9 -2 23 -2 30 0 6 3 -1 5 -18 5 -16 0 -22 -2 -12 -5z"/>
<path d="M2863 543 c9 -2 23 -2 30 0 6 3 -1 5 -18 5 -16 0 -22 -2 -12 -5z"/>
<path d="M2923 543 c9 -2 25 -2 35 0 9 3 1 5 -18 5 -19 0 -27 -2 -17 -5z"/>
<path d="M422 1036 l3 -538 450 1 c248 1 464 -2 480 -7 17 -4 38 -6 48 -4 16
3 17 37 17 545 l0 542 -500 0 -500 0 2 -539z m978 -1 l0 -515 -480 0 -480 0 0
515 0 515 480 0 480 0 0 -515z"/>
<path d="M472 1047 l3 -482 2 469 c2 321 7 472 14 477 7 4 5 8 -5 12 -14 6
-16 -39 -14 -476z"/>
<path d="M526 1521 c-3 -4 6 -6 19 -3 14 2 25 6 25 8 0 8 -39 4 -44 -5z"/>
<path d="M670 1518 c-25 -3 123 -5 327 -5 205 1 373 6 373 11 0 9 -630 5 -700
-6z"/>
<path d="M598 1493 c6 -2 18 -2 25 0 6 3 1 5 -13 5 -14 0 -19 -2 -12 -5z"/>
<path d="M733 1493 c9 -2 23 -2 30 0 6 3 -1 5 -18 5 -16 0 -22 -2 -12 -5z"/>
<path d="M1356 1383 c3 -65 8 -120 11 -122 2 -3 2 50 1 117 -1 67 -6 122 -11
122 -5 0 -5 -53 -1 -117z"/>
<path d="M842 1091 c-11 -7 -11 -9 0 -14 9 -3 15 1 15 9 0 8 -1 14 -1 14 -1 0
-7 -4 -14 -9z"/>
<path d="M900 1088 c0 -4 4 -8 9 -8 5 0 16 -3 24 -6 8 -3 17 2 20 10 4 11 -1
14 -24 14 -16 -1 -29 -5 -29 -10z"/>
<path d="M795 1080 c-3 -5 -1 -10 4 -10 6 0 11 5 11 10 0 6 -2 10 -4 10 -3 0
-8 -4 -11 -10z"/>
<path d="M818 1052 c-34 -4 -41 -42 -8 -39 11 1 20 6 20 12 0 6 3 6 8 -1 12
-18 42 -12 42 8 0 20 -20 25 -21 6 0 -8 -3 -8 -7 2 -4 9 -17 14 -34 12z m2
-16 c0 -3 -4 -8 -10 -11 -5 -3 -10 -1 -10 4 0 6 5 11 10 11 6 0 10 -2 10 -4z"/>
<path d="M991 1052 c-6 -2 -11 -13 -11 -25 1 -22 1 -22 15 -3 15 20 15 20 15
0 0 -14 2 -16 9 -5 6 9 11 10 15 2 11 -17 23 -13 29 8 4 15 -2 20 -28 23 -18
2 -38 2 -44 0z"/>
<path d="M890 1030 c0 -25 17 -26 23 -2 4 16 5 16 6 0 1 -22 21 -24 21 -3 0 8
4 15 10 15 5 0 7 -7 4 -15 -4 -8 -1 -15 5 -15 6 0 11 9 11 20 0 17 -7 20 -40
20 -33 0 -40 -3 -40 -20z"/>
<path d="M1342 1020 c0 -14 2 -19 5 -12 2 6 2 18 0 25 -3 6 -5 1 -5 -13z"/>
<path d="M810 985 c0 -7 30 -13 34 -7 3 4 -4 9 -15 9 -10 1 -19 0 -19 -2z"/>
<path d="M887 975 c-4 -8 3 -10 19 -7 29 5 30 8 5 15 -11 3 -22 -1 -24 -8z"/>
<path d="M966 982 c-2 -4 4 -8 14 -8 10 0 16 4 14 8 -3 4 -9 8 -14 8 -5 0 -11
-4 -14 -8z"/>
<path d="M1331 954 c0 -11 3 -14 6 -6 3 7 2 16 -1 19 -3 4 -6 -2 -5 -13z"/>
<path d="M1362 940 c0 -19 2 -27 5 -17 2 9 2 25 0 35 -3 9 -5 1 -5 -18z"/>
<path d="M1333 880 c0 -25 2 -35 4 -22 2 12 2 32 0 45 -2 12 -4 2 -4 -23z"/>
<path d="M1355 860 c-3 -5 -1 -10 4 -10 6 0 11 5 11 10 0 6 -2 10 -4 10 -3 0
-8 -4 -11 -10z"/>
<path d="M1332 790 c0 -14 2 -19 5 -12 2 6 2 18 0 25 -3 6 -5 1 -5 -13z"/>
<path d="M1341 724 c0 -11 3 -14 6 -6 3 7 2 16 -1 19 -3 4 -6 -2 -5 -13z"/>
<path d="M1363 590 c0 -30 2 -43 4 -27 2 15 2 39 0 55 -2 15 -4 2 -4 -28z"/>
<path d="M470 549 c0 -5 9 -9 20 -9 11 0 20 2 20 4 0 2 -9 6 -20 9 -11 3 -20
1 -20 -4z"/>
<path d="M600 549 c-36 -3 118 -6 343 -7 224 -1 407 1 407 6 0 8 -654 10 -750
1z"/>
<path d="M4053 1572 l-603 -2 0 -534 c0 -347 4 -536 10 -538 5 -1 291 -2 635
0 l625 2 0 534 0 534 -32 3 c-18 2 -304 3 -635 1z m647 -537 l0 -515 -616 0
c-558 0 -616 1 -610 16 3 9 6 240 6 515 l0 499 610 0 610 0 0 -515z"/>
<path d="M3500 1033 l0 -493 188 2 187 3 -182 2 -183 3 0 481 0 481 213 -3
c116 -1 374 -2 572 0 l360 2 3 -475 2 -475 -112 -3 -113 -3 118 -5 117 -5 0
492 0 492 -585 -2 -585 -2 0 -492z"/>
<path d="M4633 1120 c0 -41 2 -58 4 -37 2 20 2 54 0 75 -2 20 -4 3 -4 -38z"/>
<path d="M3937 1148 c-6 -4 17 -5 53 -2 35 2 66 7 68 9 8 8 -108 1 -121 -7z"/>
<path d="M4078 1153 c7 -3 16 -2 19 1 4 3 -2 6 -13 5 -11 0 -14 -3 -6 -6z"/>
<path d="M4118 1153 c7 -3 16 -2 19 1 4 3 -2 6 -13 5 -11 0 -14 -3 -6 -6z"/>
<path d="M4178 1153 c7 -3 16 -2 19 1 4 3 -2 6 -13 5 -11 0 -14 -3 -6 -6z"/>
<path d="M3950 1110 c0 -25 17 -26 23 -2 4 16 5 16 6 0 0 -10 4 -18 9 -19 60
-7 77 -4 77 17 0 16 -5 20 -25 18 -13 -2 -26 -7 -28 -13 -2 -7 -9 -5 -19 4
-21 21 -43 19 -43 -5z m87 -12 c-3 -8 -6 -5 -6 6 -1 11 2 17 5 13 3 -3 4 -12
1 -19z"/>
<path d="M4087 1123 c-10 -9 -9 -33 1 -33 4 0 8 9 9 20 2 21 0 24 -10 13z"/>
<path d="M4117 1124 c-15 -16 -6 -34 18 -34 16 0 25 6 25 15 0 18 -20 20 -21
3 0 -7 -4 -5 -8 5 -3 10 -10 15 -14 11z"/>
<path d="M4172 1110 c0 -14 2 -19 5 -12 2 6 2 18 0 25 -3 6 -5 1 -5 -13z"/>
<path d="M4197 1123 c-14 -13 -6 -33 13 -33 13 0 20 7 20 20 0 19 -20 27 -33
13z m23 -13 c0 -5 -5 -10 -11 -10 -5 0 -7 5 -4 10 3 6 8 10 11 10 2 0 4 -4 4
-10z"/>
<path d="M4250 1111 c0 -6 4 -12 8 -15 5 -3 9 1 9 9 0 8 -4 15 -9 15 -4 0 -8
-4 -8 -9z"/>
<path d="M3910 1080 c0 -5 5 -10 11 -10 5 0 7 5 4 10 -3 6 -8 10 -11 10 -2 0
-4 -4 -4 -10z"/>
<path d="M4390 1080 c0 -5 5 -10 11 -10 5 0 7 5 4 10 -3 6 -8 10 -11 10 -2 0
-4 -4 -4 -10z"/>
<path d="M3750 1030 c0 -11 5 -20 10 -20 6 0 10 9 10 20 0 11 -4 20 -10 20 -5
0 -10 -9 -10 -20z"/>
<path d="M3780 1030 c0 -16 8 -17 73 -14 39 2 77 6 84 9 7 2 14 1 17 -3 7 -12
86 -1 86 12 0 6 5 4 10 -4 8 -13 10 -12 10 3 0 13 -8 17 -39 17 -22 0 -42 -5
-44 -12 -4 -10 -6 -10 -6 0 -1 6 -10 12 -20 12 -11 0 -22 -6 -24 -12 -4 -10
-6 -10 -6 0 -1 6 -10 12 -21 12 -11 0 -20 -6 -20 -12 0 -10 -2 -10 -8 -1 -4 6
-26 12 -50 11 -33 0 -42 -4 -42 -18z"/>
<path d="M4076 1035 c-4 -12 3 -15 44 -12 27 1 51 -2 53 -7 2 -6 6 0 9 12 5
18 2 22 -18 22 -13 0 -24 -6 -24 -12 0 -9 -4 -8 -11 2 -8 11 -12 12 -16 3 -2
-7 -9 -13 -14 -13 -6 0 -7 5 -4 10 3 6 2 10 -3 10 -6 0 -12 -7 -16 -15z"/>
<path d="M4200 1035 c0 -8 5 -15 10 -15 6 0 10 6 10 13 0 9 2 9 9 -1 12 -19
101 -23 101 -4 0 10 4 10 16 -3 9 -9 23 -14 31 -11 8 3 17 6 19 6 2 0 4 8 4
18 -1 15 -2 15 -17 -3 -11 -14 -14 -15 -10 -4 4 13 -1 16 -21 15 -15 -1 -33
-5 -41 -10 -10 -6 -12 -5 -7 2 4 7 3 12 -3 12 -5 0 -12 -6 -14 -12 -4 -10 -6
-10 -6 0 -1 19 -81 16 -81 -3z"/>
<path d="M4410 1029 c0 -11 5 -17 10 -14 6 3 10 13 10 21 0 8 -4 14 -10 14 -5
0 -10 -9 -10 -21z"/>
<path d="M4015 991 c-3 -5 -2 -12 3 -15 5 -3 9 1 9 9 0 17 -3 19 -12 6z"/>
<path d="M4113 985 c0 -8 4 -12 9 -9 5 3 6 10 3 15 -9 13 -12 11 -12 -6z"/>
<path d="M4336 978 c3 -4 9 -8 15 -8 5 0 9 4 9 8 0 5 -7 9 -15 9 -8 0 -12 -4
-9 -9z"/>
<path d="M4632 930 c0 -19 2 -27 5 -17 2 9 2 25 0 35 -3 9 -5 1 -5 -18z"/>
<path d="M4023 553 c9 -2 23 -2 30 0 6 3 -1 5 -18 5 -16 0 -22 -2 -12 -5z"/>
<path d="M371 1444 c0 -11 3 -14 6 -6 3 7 2 16 -1 19 -3 4 -6 -2 -5 -13z"/>
<path d="M1912 1430 c0 -14 2 -19 5 -12 2 6 2 18 0 25 -3 6 -5 1 -5 -13z"/>
<path d="M372 1380 c0 -14 2 -19 5 -12 2 6 2 18 0 25 -3 6 -5 1 -5 -13z"/>
<path d="M4743 1305 c0 -33 2 -45 4 -27 2 18 2 45 0 60 -2 15 -4 0 -4 -33z"/>
<path d="M373 1300 c0 -30 2 -43 4 -27 2 15 2 39 0 55 -2 15 -4 2 -4 -28z"/>
<path d="M4742 1150 c0 -19 2 -27 5 -17 2 9 2 25 0 35 -3 9 -5 1 -5 -18z"/>
<path d="M373 1090 c0 -25 2 -35 4 -22 2 12 2 32 0 45 -2 12 -4 2 -4 -23z"/>
<path d="M4752 994 c-1 -45 -4 -117 -7 -160 l-4 -79 10 70 c5 39 8 111 6 160
l-3 90 -2 -81z"/>
<path d="M2950 480 c0 -5 -39 -11 -87 -13 l-88 -3 103 -1 c86 -1 101 1 91 13
-13 16 -19 18 -19 4z"/>
<path d="M1958 468 c6 -6 18 -8 28 -6 14 3 12 5 -9 10 -19 3 -25 2 -19 -4z"/>
<path d="M3487 463 c9 -7 19 -10 22 -5 3 4 54 5 114 2 59 -3 107 -2 107 3 0 4
-45 8 -100 8 -55 1 -114 2 -130 3 -27 1 -28 -1 -13 -11z"/>
<path d="M4680 470 c0 -5 5 -10 11 -10 5 0 7 5 4 10 -3 6 -8 10 -11 10 -2 0
-4 -4 -4 -10z"/>
<path d="M607 463 c18 -2 50 -2 70 0 21 2 7 4 -32 4 -38 0 -55 -2 -38 -4z"/>
<path d="M768 463 c12 -2 32 -2 45 0 12 2 2 4 -23 4 -25 0 -35 -2 -22 -4z"/>
<path d="M2093 463 c48 -2 125 -2 170 0 45 1 6 3 -88 3 -93 0 -130 -2 -82 -3z"/>
<path d="M2363 463 c9 -2 23 -2 30 0 6 3 -1 5 -18 5 -16 0 -22 -2 -12 -5z"/>
<path d="M2693 463 c15 -2 37 -2 50 0 12 2 0 4 -28 4 -27 0 -38 -2 -22 -4z"/>
<path d="M3098 463 c7 -3 16 -2 19 1 4 3 -2 6 -13 5 -11 0 -14 -3 -6 -6z"/>
<path d="M3938 463 c12 -2 30 -2 40 0 9 3 -1 5 -23 4 -22 0 -30 -2 -17 -4z"/>
<path d="M4213 463 c15 -2 37 -2 50 0 12 2 0 4 -28 4 -27 0 -38 -2 -22 -4z"/>
<path d="M4417 463 c18 -2 50 -2 70 0 21 2 7 4 -32 4 -38 0 -55 -2 -38 -4z"/>
<path d="M1123 433 c9 -2 23 -2 30 0 6 3 -1 5 -18 5 -16 0 -22 -2 -12 -5z"/>
<path d="M2622 433 c37 -2 100 -2 140 0 40 1 10 3 -67 3 -77 0 -110 -1 -73 -3z"/>
</g>
</svg>
