<?xml version="1.0" standalone="no"?>
<!DOCTYPE svg PUBLIC "-//W3C//DTD SVG 20010904//EN"
 "http://www.w3.org/TR/2001/REC-SVG-20010904/DTD/svg10.dtd">
<svg version="1.0" xmlns="http://www.w3.org/2000/svg"
 width="512.000000pt" height="512.000000pt" viewBox="0 0 512.000000 512.000000"
 preserveAspectRatio="xMidYMid meet">
<metadata>
Created by potrace 1.16, written by Peter Selinger 2001-2019
</metadata>
<g transform="translate(0.000000,512.000000) scale(0.100000,-0.100000)"
fill="#000000" stroke="none">
<path d="M2429 4873 c-49 -8 -133 -66 -166 -117 -42 -61 -42 -80 -3 -83 17 -1
30 2 30 7 0 6 -4 10 -10 10 -13 0 -13 40 0 60 5 8 10 11 10 5 0 -5 8 3 19 18
17 26 20 27 34 12 18 -18 42 -10 68 21 13 16 12 16 -20 0 -21 -11 -37 -14 -43
-8 -13 13 69 52 109 52 26 0 30 -3 26 -19 -3 -10 -20 -34 -39 -52 -19 -18 -34
-43 -34 -55 0 -13 -4 -26 -10 -29 -5 -3 -10 -15 -10 -25 0 -10 -8 -21 -17 -24
-11 -3 -8 -4 7 -3 15 1 29 12 37 27 7 14 13 21 13 16 0 -17 37 40 64 99 15 33
34 67 43 77 15 17 13 18 -33 17 -27 -1 -61 -4 -75 -6z"/>
<path d="M2592 4852 c14 -17 36 -62 48 -99 26 -77 55 -140 78 -165 19 -23 70
-32 102 -19 23 10 23 11 -7 5 -22 -4 -33 -2 -33 6 0 6 -5 8 -11 4 -6 -3 -14
-3 -18 2 -3 5 -15 14 -26 20 -11 6 -21 23 -23 38 -2 14 -7 26 -12 26 -5 0 -15
18 -21 40 -10 31 -9 43 1 55 11 14 11 16 -1 13 -9 -2 -13 4 -11 15 2 9 -1 17
-6 17 -5 0 -14 12 -20 26 l-12 25 47 -7 c54 -7 103 -29 103 -45 0 -6 4 -8 9
-5 4 3 16 -3 26 -14 10 -11 14 -20 9 -20 -5 -1 2 -7 16 -15 14 -7 25 -17 24
-22 0 -4 6 -14 13 -22 8 -7 12 -20 9 -27 -3 -8 1 -14 9 -14 35 0 5 68 -56 128
-53 53 -105 75 -189 80 l-74 5 26 -31z"/>
<path d="M1110 4860 c0 -5 18 -10 41 -10 24 0 38 4 34 10 -3 6 -22 10 -41 10
-19 0 -34 -4 -34 -10z"/>
<path d="M3946 4852 c-2 -4 12 -6 32 -4 56 5 62 10 15 11 -23 1 -44 -3 -47 -7z"/>
<path d="M2767 4765 c15 -19 29 -31 31 -25 3 8 -44 60 -55 60 -2 0 9 -16 24
-35z"/>
<path d="M2697 4770 c3 -11 14 -25 25 -31 17 -9 18 -8 9 9 -5 10 -17 24 -25
31 -12 10 -14 9 -9 -9z"/>
<path d="M2562 4755 c-23 -27 -34 -68 -20 -76 10 -7 12 -122 10 -581 -1 -315
-5 -581 -8 -590 -4 -13 0 -18 15 -18 20 0 20 4 16 563 -3 309 -8 580 -11 602
-4 28 -3 37 5 30 5 -6 12 -53 14 -105 2 -77 3 -68 5 48 1 78 -1 142 -5 142 -5
-1 -14 -7 -21 -15z m5 -47 c-3 -7 -5 -2 -5 12 0 14 2 19 5 13 2 -7 2 -19 0
-25z"/>
<path d="M2310 4714 c0 -8 5 -12 10 -9 6 3 10 10 10 16 0 5 -4 9 -10 9 -5 0
-10 -7 -10 -16z"/>
<path d="M1354 4671 c11 -11 23 -21 28 -21 14 0 -1 19 -25 31 -22 12 -22 12
-3 -10z"/>
<path d="M2825 4679 c-4 -6 -5 -13 -2 -16 7 -7 27 6 27 18 0 12 -17 12 -25 -2z"/>
<path d="M2070 4648 c-25 -16 -63 -33 -85 -39 -22 -5 -76 -22 -120 -36 -44
-14 -92 -28 -108 -29 -39 -5 -55 -16 -34 -23 13 -5 3 -14 -38 -35 -30 -16 -55
-31 -55 -33 0 -9 48 11 87 38 51 34 151 70 254 93 58 13 86 25 115 50 50 44
42 51 -16 14z"/>
<path d="M3020 4662 c0 -26 57 -57 157 -84 59 -16 141 -44 182 -64 41 -19 76
-32 79 -29 9 9 -141 74 -243 105 -55 17 -117 42 -137 56 -21 13 -38 21 -38 16z"/>
<path d="M2184 4649 c-7 -12 21 -39 40 -39 6 0 5 4 -2 9 -7 4 -12 14 -10 21 4
17 -18 24 -28 9z"/>
<path d="M2910 4639 c0 -24 23 -21 28 4 2 10 -3 17 -12 17 -10 0 -16 -9 -16
-21z"/>
<path d="M2527 4604 c6 -68 11 -77 12 -24 0 25 -3 51 -8 59 -5 8 -7 -5 -4 -35z"/>
<path d="M3950 4641 c0 -6 4 -13 10 -16 6 -3 7 1 4 9 -7 18 -14 21 -14 7z"/>
<path d="M1400 4636 c0 -2 7 -9 15 -16 9 -7 15 -8 15 -2 0 5 -7 12 -15 16 -8
3 -15 4 -15 2z"/>
<path d="M2371 4594 c6 -7 17 -10 25 -7 20 7 18 10 -11 15 -20 4 -23 2 -14 -8z"/>
<path d="M1445 4590 c3 -5 11 -10 16 -10 6 0 7 5 4 10 -3 6 -11 10 -16 10 -6
0 -7 -4 -4 -10z"/>
<path d="M3609 4541 c-35 -32 -61 -62 -57 -66 4 -4 18 4 32 18 14 14 28 22 31
18 4 -3 6 -1 4 4 -3 14 12 46 20 41 3 -2 14 7 24 20 28 37 15 29 -54 -35z"/>
<path d="M2301 4586 c11 -9 69 -15 64 -6 -3 6 -20 10 -37 10 -17 0 -29 -2 -27
-4z"/>
<path d="M1489 4562 c5 -10 18 -25 27 -33 11 -9 9 -2 -6 19 -26 35 -36 42 -21
14z"/>
<path d="M3006 4573 c-14 -15 -2 -18 69 -21 87 -3 213 -33 262 -62 38 -22 43
-24 43 -11 0 16 -114 59 -195 75 -107 20 -171 27 -179 19z"/>
<path d="M678 4563 c12 -2 30 -2 40 0 9 3 -1 5 -23 4 -22 0 -30 -2 -17 -4z"/>
<path d="M1950 4559 c-73 -12 -174 -61 -206 -99 -14 -16 -31 -30 -38 -30 -16
0 -95 -39 -80 -40 23 0 120 45 140 65 59 62 183 101 299 93 39 -2 55 1 55 10
0 14 -84 15 -170 1z"/>
<path d="M2915 4561 c-9 -16 3 -31 26 -31 14 0 19 6 17 17 -4 20 -33 29 -43
14z"/>
<path d="M1042 4533 c-29 -14 -51 -27 -49 -29 2 -2 26 7 53 20 27 13 56 26 64
29 13 5 13 5 0 6 -8 0 -39 -12 -68 -26z"/>
<path d="M2170 4544 c0 -10 7 -14 22 -12 32 5 35 28 4 28 -17 0 -26 -5 -26
-16z"/>
<path d="M4077 4519 c7 -7 15 -10 18 -7 3 3 -2 9 -12 12 -14 6 -15 5 -6 -5z"/>
<path d="M4151 4513 c7 -12 15 -20 18 -17 3 2 -3 12 -13 22 -17 16 -18 16 -5
-5z"/>
<path d="M1170 4495 c25 -27 36 -33 24 -13 -5 8 -2 9 9 5 28 -11 19 1 -13 18
-41 21 -47 19 -20 -10z"/>
<path d="M4024 4500 c28 -11 52 -18 54 -16 6 7 -31 23 -68 30 -30 5 -27 3 14
-14z"/>
<path d="M4318 4513 c6 -2 18 -2 25 0 6 3 1 5 -13 5 -14 0 -19 -2 -12 -5z"/>
<path d="M1520 4499 c0 -5 5 -7 10 -4 6 3 10 2 10 -2 0 -5 9 -9 21 -10 17 -2
18 1 9 13 -14 16 -50 19 -50 3z"/>
<path d="M2358 4498 c5 -5 16 -8 23 -6 8 3 3 7 -10 11 -17 4 -21 3 -13 -5z"/>
<path d="M959 4483 c-13 -16 -12 -17 4 -4 9 7 17 15 17 17 0 8 -8 3 -21 -13z"/>
<path d="M1095 4490 c-8 -13 5 -13 25 0 13 8 13 10 -2 10 -9 0 -20 -4 -23 -10z"/>
<path d="M3893 4479 c-4 -15 -8 -17 -14 -8 -5 8 -7 -2 -6 -24 2 -37 21 -46 24
-11 1 10 4 29 7 42 6 28 -4 29 -11 1z"/>
<path d="M1146 4475 c4 -8 8 -15 10 -15 2 0 4 7 4 15 0 8 -4 15 -10 15 -5 0
-7 -7 -4 -15z"/>
<path d="M1226 4453 c-4 -23 -14 -47 -22 -54 -8 -6 -14 -18 -14 -26 0 -16 -30
-10 -68 14 -27 16 -108 43 -134 43 -10 0 -18 -4 -18 -10 0 -5 17 -10 38 -10
53 0 220 -86 249 -129 12 -18 20 -38 17 -46 -3 -7 -1 -16 5 -20 6 -3 11 1 11
10 0 32 -29 84 -57 101 -15 10 -30 19 -31 20 -2 2 4 18 13 36 10 18 22 41 26
50 5 9 5 27 0 40 -7 20 -9 18 -15 -19z"/>
<path d="M3828 4465 c-10 -13 -18 -31 -18 -40 0 -10 -5 -14 -12 -10 -7 4 -4
-1 6 -9 28 -23 33 -20 28 14 -2 17 1 37 8 45 7 9 11 17 9 19 -2 2 -12 -6 -21
-19z"/>
<path d="M3950 4480 c0 -5 7 -10 16 -10 8 0 12 5 9 10 -3 6 -10 10 -16 10 -5
0 -9 -4 -9 -10z"/>
<path d="M1260 4471 c0 -6 5 -13 10 -16 6 -3 10 1 10 9 0 9 -4 16 -10 16 -5 0
-10 -4 -10 -9z"/>
<path d="M1021 4461 c-9 -6 -10 -11 -2 -15 6 -4 11 -2 11 4 0 6 10 10 23 8 12
-2 21 -9 20 -16 -2 -6 2 -12 7 -12 6 0 10 9 10 20 0 15 -7 20 -27 20 -16 0
-34 -4 -42 -9z"/>
<path d="M3473 4450 c20 -11 42 -20 49 -20 7 0 -5 9 -27 20 -22 11 -44 20 -49
20 -6 0 6 -9 27 -20z"/>
<path d="M4023 4463 c9 -2 23 -2 30 0 6 3 -1 5 -18 5 -16 0 -22 -2 -12 -5z"/>
<path d="M4220 4464 c0 -24 196 -182 208 -169 4 4 1 10 -6 12 -6 3 -9 10 -6
15 4 7 2 8 -4 4 -13 -8 -74 49 -64 59 4 4 3 6 -3 5 -20 -4 -32 0 -56 22 -13
12 -34 30 -46 41 -13 11 -23 16 -23 11z"/>
<path d="M935 4450 c-3 -5 -1 -10 4 -10 6 0 11 5 11 10 0 6 -2 10 -4 10 -3 0
-8 -4 -11 -10z"/>
<path d="M3980 4450 c0 -5 5 -10 11 -10 5 0 7 5 4 10 -3 6 -8 10 -11 10 -2 0
-4 -4 -4 -10z"/>
<path d="M4110 4450 c0 -5 5 -10 11 -10 5 0 7 5 4 10 -3 6 -8 10 -11 10 -2 0
-4 -4 -4 -10z"/>
<path d="M680 4441 c0 -5 -3 -17 -7 -27 -4 -11 -3 -15 4 -11 14 9 24 47 12 47
-5 0 -9 -4 -9 -9z"/>
<path d="M868 4437 c-27 -25 -156 -117 -165 -117 -5 0 -15 -11 -21 -25 -13
-29 -16 -46 -4 -29 4 5 25 23 47 39 76 56 150 117 158 131 10 17 3 18 -15 1z"/>
<path d="M1150 4426 c-12 -34 -12 -36 0 -36 6 0 10 6 10 14 0 8 6 16 13 19 9
4 9 7 0 17 -10 11 -14 8 -23 -14z"/>
<path d="M1286 4440 c-13 -4 -16 -9 -8 -14 7 -4 19 -3 28 2 21 12 5 22 -20 12z"/>
<path d="M1670 4440 c-8 -5 -10 -10 -5 -10 6 0 17 5 25 10 8 5 11 10 5 10 -5
0 -17 -5 -25 -10z"/>
<path d="M3934 4435 c-17 -13 -17 -14 -2 -15 9 0 20 5 23 11 11 17 0 20 -21 4z"/>
<path d="M4511 4378 c-7 -40 -13 -83 -15 -96 -2 -12 1 -25 5 -28 5 -3 9 12 9
34 0 21 5 64 11 96 6 32 8 60 6 63 -3 2 -10 -29 -16 -69z"/>
<path d="M4043 4433 c9 -2 23 -2 30 0 6 3 -1 5 -18 5 -16 0 -22 -2 -12 -5z"/>
<path d="M917 4419 c7 -7 15 -10 18 -7 3 3 -2 9 -12 12 -14 6 -15 5 -6 -5z"/>
<path d="M3430 4415 c14 -8 30 -14 35 -14 6 0 -1 6 -15 14 -14 8 -29 14 -35
14 -5 0 1 -6 15 -14z"/>
<path d="M3987 4423 c-13 -12 -7 -25 8 -19 9 3 15 0 15 -10 0 -11 5 -14 18 -9
9 3 36 11 60 18 23 6 42 14 42 18 0 9 -14 7 -62 -10 -33 -11 -40 -10 -54 3
-18 18 -18 18 -27 9z"/>
<path d="M4150 4420 c0 -5 10 -10 23 -10 18 0 19 2 7 10 -19 13 -30 13 -30 0z"/>
<path d="M1312 4408 c2 -6 10 -14 16 -16 7 -2 10 2 6 12 -7 18 -28 22 -22 4z"/>
<path d="M3480 4400 c0 -5 4 -10 9 -10 6 0 13 5 16 10 3 6 -1 10 -9 10 -9 0
-16 -4 -16 -10z"/>
<path d="M3555 4397 c-13 -10 -16 -21 -11 -40 6 -27 26 -34 60 -21 22 9 20 51
-3 64 -25 13 -24 13 -46 -3z"/>
<path d="M1272 4375 c-7 -16 -7 -26 1 -34 16 -16 27 -14 27 5 0 8 -4 12 -10 9
-5 -3 -10 -2 -10 4 0 19 15 18 35 -2 11 -11 14 -17 8 -13 -7 4 -13 2 -13 -4 0
-21 25 -4 28 20 3 17 0 21 -12 17 -9 -4 -16 -2 -16 2 0 21 -28 18 -38 -4z"/>
<path d="M1512 4388 c-17 -17 -15 -32 7 -52 18 -16 20 -16 45 6 19 16 25 29
21 41 -8 20 -55 23 -73 5z"/>
<path d="M3896 4391 c-4 -7 -5 -15 -2 -18 9 -9 19 4 14 18 -4 11 -6 11 -12 0z"/>
<path d="M3920 4390 c0 -5 5 -10 10 -10 6 0 10 5 10 10 0 6 -4 10 -10 10 -5 0
-10 -4 -10 -10z"/>
<path d="M3780 4374 c0 -8 -4 -12 -10 -9 -5 3 -10 1 -10 -4 0 -6 7 -11 15 -11
9 0 27 -7 40 -16 24 -16 25 -15 25 5 0 15 -4 20 -12 15 -9 -5 -9 -2 1 9 11 14
11 17 -1 17 -8 0 -20 -6 -27 -12 -11 -11 -13 -10 -8 5 4 9 2 17 -3 17 -6 0
-10 -7 -10 -16z"/>
<path d="M3863 4374 c-3 -8 -2 -19 4 -25 5 -5 9 1 11 16 2 28 -6 33 -15 9z"/>
<path d="M3970 4370 c0 -5 -7 -10 -15 -10 -8 0 -29 -16 -48 -35 -26 -26 -36
-32 -45 -23 -9 9 -12 8 -12 -6 0 -9 5 -14 10 -11 13 8 13 -1 0 -26 -19 -34 -1
-20 27 22 14 22 46 52 70 66 46 27 51 33 28 33 -8 0 -15 -4 -15 -10z"/>
<path d="M1355 4360 c-3 -5 -1 -10 4 -10 6 0 11 5 11 10 0 6 -2 10 -4 10 -3 0
-8 -4 -11 -10z"/>
<path d="M1410 4356 c0 -9 5 -16 10 -16 6 0 10 4 10 9 0 6 -4 13 -10 16 -5 3
-10 -1 -10 -9z"/>
<path d="M3726 4351 c-3 -5 1 -14 9 -21 12 -10 15 -10 15 3 0 19 -16 31 -24
18z"/>
<path d="M914 4314 c3 -18 8 -44 12 -59 7 -28 6 -28 -30 -22 -40 6 -50 -9 -11
-19 15 -4 32 -1 42 7 15 12 16 12 10 -5 -9 -23 42 -76 73 -76 10 0 22 -5 25
-10 4 -7 -2 -9 -19 -4 -16 4 -26 2 -26 -5 0 -6 9 -11 19 -11 11 0 23 -5 26
-11 4 -6 14 -8 22 -5 8 3 12 2 9 -2 -5 -9 93 -108 179 -181 28 -23 81 -77 119
-119 38 -42 110 -120 161 -172 51 -52 102 -114 113 -136 28 -56 57 -63 98 -23
22 21 36 28 50 23 18 -7 18 -6 -1 13 -11 10 -29 19 -40 19 -13 -1 -20 5 -19
17 1 9 -2 17 -7 17 -5 0 -9 -5 -9 -12 0 -6 -3 -9 -6 -5 -3 3 -16 2 -28 -3 -20
-7 -42 11 -184 154 l-162 162 20 42 c11 22 20 55 20 73 0 21 4 30 13 26 6 -2
21 -1 32 4 15 6 10 8 -21 8 -45 1 -65 15 -57 40 5 13 3 14 -8 4 -7 -7 -19 -13
-27 -13 -12 0 -12 3 -2 15 7 8 21 15 31 15 11 0 19 5 19 10 0 6 -16 10 -35 10
-32 0 -35 -2 -35 -31 0 -22 5 -32 20 -36 20 -5 28 -23 10 -23 -5 0 -10 -13
-10 -29 0 -70 -7 -66 -151 74 -83 80 -147 135 -159 135 -13 0 -18 5 -14 15 4
8 2 15 -4 15 -5 0 -13 7 -16 16 -5 12 -2 15 9 10 10 -3 13 -2 10 5 -4 6 -13 8
-20 5 -9 -3 -16 8 -20 37 -4 23 -12 49 -17 57 -7 11 -8 6 -4 -16z m442 -360
c-3 -9 -6 -24 -6 -35 0 -11 -7 -19 -16 -19 -10 0 -14 -6 -10 -15 6 -18 -10
-20 -20 -3 -4 6 2 19 14 29 25 20 29 34 7 25 -21 -8 -19 11 3 23 25 15 35 13
28 -5z m360 -479 c-8 -22 -32 -18 -32 4 0 11 4 18 7 15 4 -2 11 1 15 8 10 16
18 -6 10 -27z"/>
<path d="M1462 4300 c0 -14 2 -19 5 -12 2 6 2 18 0 25 -3 6 -5 1 -5 -13z"/>
<path d="M3602 4305 c4 -4 3 -16 -2 -26 -11 -19 -4 -49 11 -49 5 0 6 15 4 33
-3 17 -3 26 1 20 3 -7 10 -13 15 -13 16 0 9 15 -13 29 -13 7 -20 10 -16 6z"/>
<path d="M4077 4291 c3 -11 10 -21 16 -21 6 0 19 -7 29 -17 23 -21 36 -10 14
12 -9 9 -16 13 -16 9 0 -4 -11 3 -24 15 -24 23 -25 23 -19 2z"/>
<path d="M4182 4269 c-12 -24 -35 -57 -52 -73 -24 -22 -28 -31 -18 -37 9 -6 7
-9 -8 -9 -12 0 -55 -36 -111 -92 -50 -51 -124 -124 -163 -163 -40 -38 -135
-135 -212 -214 -122 -128 -143 -145 -169 -143 -16 1 -29 -3 -29 -8 0 -6 -4 -9
-9 -6 -5 3 -11 -1 -15 -9 -3 -8 -12 -15 -21 -15 -21 0 -3 -34 30 -56 23 -15
26 -14 55 6 17 12 30 30 30 42 0 13 39 61 103 127 57 58 128 135 158 170 30
36 76 82 104 104 27 21 96 84 152 138 56 54 105 99 110 99 4 0 17 19 28 41 10
23 28 44 39 48 13 5 16 10 8 15 -9 5 -8 14 4 31 9 13 14 30 12 37 -2 6 -14 -8
-26 -33z m-722 -769 c13 -8 12 -10 -2 -10 -10 0 -18 -4 -18 -9 0 -5 -8 -11
-18 -13 -17 -5 -17 -2 -8 18 12 26 23 29 46 14z"/>
<path d="M1053 4286 c-9 -11 -8 -15 8 -19 14 -4 19 0 19 14 0 22 -10 24 -27 5z"/>
<path d="M1302 4280 c0 -14 2 -19 5 -12 2 6 2 18 0 25 -3 6 -5 1 -5 -13z"/>
<path d="M3783 4285 c-3 -9 -3 -18 -1 -21 3 -3 8 4 11 16 6 23 -1 27 -10 5z"/>
<path d="M4434 4289 c-3 -6 -1 -16 5 -22 8 -8 11 -5 11 11 0 24 -5 28 -16 11z"/>
<path d="M1100 4264 c-13 -13 -31 -24 -40 -25 -9 0 -6 -4 8 -9 12 -5 22 -16
22 -24 0 -8 5 -18 11 -22 8 -4 9 0 4 15 -9 30 10 26 33 -6 11 -16 24 -24 29
-20 4 5 0 13 -10 18 -9 6 -17 17 -17 24 0 9 -10 15 -25 15 -14 0 -25 5 -25 10
0 17 31 24 40 10 5 -8 8 -4 7 13 -2 33 -5 33 -37 1z"/>
<path d="M1500 4280 c0 -5 5 -10 10 -10 6 0 10 5 10 10 0 6 -4 10 -10 10 -5 0
-10 -4 -10 -10z"/>
<path d="M3831 4283 c-1 -6 -4 -20 -7 -30 -5 -17 -5 -17 6 0 6 10 9 23 6 30
-3 9 -5 9 -5 0z"/>
<path d="M1000 4269 c0 -10 24 -39 33 -39 3 0 0 11 -6 25 -12 25 -27 33 -27
14z"/>
<path d="M4030 4265 c0 -8 5 -15 10 -15 6 0 10 7 10 15 0 8 -4 15 -10 15 -5 0
-10 -7 -10 -15z"/>
<path d="M965 4260 c-3 -5 1 -10 10 -10 9 0 13 5 10 10 -3 6 -8 10 -10 10 -2
0 -7 -4 -10 -10z"/>
<path d="M1465 4260 c3 -5 8 -10 11 -10 2 0 4 5 4 10 0 6 -5 10 -11 10 -5 0
-7 -4 -4 -10z"/>
<path d="M706 4228 l-18 -33 21 25 c18 22 26 40 18 40 -1 0 -11 -15 -21 -32z"/>
<path d="M1420 4244 c0 -29 -11 -37 -25 -17 -7 9 -17 13 -23 9 -21 -13 -13
-24 23 -30 19 -4 35 -11 35 -17 0 -5 -11 -7 -25 -3 -27 7 -33 -7 -12 -25 11
-8 19 -5 35 12 24 26 43 85 22 72 -7 -4 -16 -2 -21 6 -7 11 -9 9 -9 -7z"/>
<path d="M3671 4246 c-17 -20 14 -88 38 -84 9 2 16 10 16 18 0 11 10 14 37 12
31 -2 36 0 32 13 -4 9 -13 13 -24 10 -9 -3 -23 1 -30 10 -19 23 -30 18 -30
-15 0 -16 -5 -30 -10 -30 -6 0 -10 16 -8 35 2 41 -5 51 -21 31z"/>
<path d="M1494 4241 c3 -5 15 -7 26 -4 28 7 25 13 -6 13 -14 0 -23 -4 -20 -9z"/>
<path d="M641 4224 c-18 -21 -6 -30 14 -11 8 9 15 18 15 21 0 11 -15 5 -29
-10z"/>
<path d="M4410 4228 c0 -9 4 -19 8 -22 10 -6 6 -53 -10 -116 -13 -51 -12 -48
-68 -112 l-41 -47 20 -20 c13 -13 21 -16 25 -8 3 7 7 4 11 -8 10 -34 85 -59
101 -34 5 8 -1 10 -18 7 -32 -6 -92 37 -66 47 16 6 15 9 -3 28 -13 14 -16 24
-9 31 15 15 92 7 113 -11 15 -15 17 -15 17 0 0 10 -6 17 -12 17 -9 0 -8 3 2
10 9 6 -5 7 -43 3 l-57 -6 24 54 c34 75 42 139 22 175 -10 19 -15 23 -16 12z
m-54 -306 c-10 -10 -29 15 -21 28 6 9 10 8 17 -4 6 -10 7 -20 4 -24z"/>
<path d="M4450 4233 c0 -5 16 -32 35 -59 19 -27 35 -44 35 -39 0 6 -9 21 -20
35 -11 14 -20 30 -20 36 0 14 -30 40 -30 27z"/>
<path d="M530 4220 c-8 -5 -10 -10 -5 -10 6 0 17 5 25 10 8 5 11 10 5 10 -5 0
-17 -5 -25 -10z"/>
<path d="M3822 4201 c-6 -18 -9 -37 -6 -42 5 -9 -9 -13 -33 -10 -7 1 -13 -9
-13 -22 0 -20 4 -23 25 -19 28 5 50 58 43 102 -3 24 -4 23 -16 -9z"/>
<path d="M3960 4221 c0 -17 15 -19 35 -5 18 13 18 14 -8 14 -15 0 -27 -4 -27
-9z"/>
<path d="M4060 4220 c0 -5 6 -10 14 -10 8 0 18 5 21 10 3 6 -3 10 -14 10 -12
0 -21 -4 -21 -10z"/>
<path d="M1329 4203 c-8 -13 -19 -18 -32 -15 -17 4 -18 1 -12 -29 4 -19 12
-40 17 -46 15 -18 58 -16 58 2 0 8 8 15 18 15 13 1 11 5 -11 21 -22 17 -25 24
-16 35 9 11 9 18 1 26 -7 7 -14 5 -23 -9z m12 -43 c18 -10 18 -12 3 -27 -15
-16 -17 -16 -30 2 -25 34 -13 46 27 25z"/>
<path d="M4210 4210 c0 -5 -9 -10 -20 -10 -11 0 -20 -4 -20 -9 0 -12 24 -8 41
6 8 5 21 13 29 16 10 4 7 6 -7 6 -13 1 -23 -3 -23 -9z"/>
<path d="M1030 4191 c0 -20 18 -31 51 -31 16 0 19 -5 14 -20 -4 -11 -2 -20 4
-20 6 0 11 11 11 25 0 20 -6 25 -35 31 -38 7 -46 20 -17 27 13 4 11 5 -5 6
-16 1 -23 -5 -23 -18z"/>
<path d="M4015 4200 c-3 -5 1 -10 9 -10 9 0 16 5 16 10 0 6 -4 10 -9 10 -6 0
-13 -4 -16 -10z"/>
<path d="M862 4168 c-13 -36 -12 -41 12 -32 18 7 22 24 5 24 -8 0 -8 4 0 14 7
8 8 17 3 19 -4 3 -13 -8 -20 -25z"/>
<path d="M691 4164 c-1 -27 7 -58 34 -133 3 -8 8 -12 10 -9 3 3 -2 25 -11 49
-9 24 -20 62 -24 84 -7 37 -8 38 -9 9z"/>
<path d="M4255 4170 c10 -11 20 -18 23 -15 7 6 -18 35 -31 35 -5 0 -2 -9 8
-20z"/>
<path d="M605 4171 c-3 -5 0 -13 6 -17 7 -4 9 -3 5 4 -3 5 0 13 6 15 9 4 10 6
1 6 -6 1 -14 -3 -18 -8z"/>
<path d="M912 4155 c-7 -14 -12 -36 -11 -48 0 -21 1 -21 11 3 12 27 21 70 15
70 -2 0 -9 -11 -15 -25z"/>
<path d="M3970 4165 c-14 -16 -10 -18 14 -9 9 3 16 10 16 15 0 14 -16 11 -30
-6z"/>
<path d="M4043 4172 c-13 -2 -23 -8 -23 -13 0 -13 37 -11 45 2 9 14 5 16 -22
11z"/>
<path d="M652 4130 c-1 -25 5 -58 14 -75 12 -25 13 -26 8 -5 -3 14 -10 48 -14
75 l-7 50 -1 -45z"/>
<path d="M1126 4162 c-3 -5 1 -15 9 -22 16 -14 20 -3 6 19 -5 8 -11 9 -15 3z"/>
<path d="M1194 4161 c3 -5 15 -7 26 -4 28 7 25 13 -6 13 -14 0 -23 -4 -20 -9z"/>
<path d="M3740 4155 c0 -8 -10 -16 -22 -17 -13 0 -28 -2 -35 -2 -16 -2 -38
-24 -31 -32 3 -3 14 -1 25 4 10 6 33 16 51 22 29 11 46 40 22 40 -5 0 -10 -7
-10 -15z"/>
<path d="M3888 4163 c12 -2 32 -2 45 0 12 2 2 4 -23 4 -25 0 -35 -2 -22 -4z"/>
<path d="M4200 4166 c0 -2 9 -26 21 -53 11 -27 19 -62 17 -80 -3 -26 -1 -30
10 -21 7 6 11 17 8 24 -3 8 1 20 9 28 12 12 12 15 -5 19 -23 6 -27 27 -5 27 8
0 15 5 15 10 0 6 -8 10 -17 8 -11 -2 -22 6 -28 20 -8 19 -25 31 -25 18z"/>
<path d="M1422 4132 c-19 -3 -21 -6 -11 -18 10 -12 14 -12 20 -2 7 10 9 9 9
-4 0 -9 -6 -18 -12 -20 -18 -6 6 -58 26 -58 11 0 13 9 9 38 -9 57 -16 67 -41
64z"/>
<path d="M3980 4130 c0 -5 7 -10 15 -10 8 0 15 5 15 10 0 6 -7 10 -15 10 -8 0
-15 -4 -15 -10z"/>
<path d="M242 4100 c0 -19 2 -27 5 -17 2 9 2 25 0 35 -3 9 -5 1 -5 -18z"/>
<path d="M577 4116 c-3 -8 -2 -18 4 -22 16 -9 22 2 11 21 -8 15 -10 16 -15 1z"/>
<path d="M4160 4120 c0 -5 5 -10 10 -10 6 0 10 5 10 10 0 6 -4 10 -10 10 -5 0
-10 -4 -10 -10z"/>
<path d="M4280 4110 c0 -5 5 -10 10 -10 6 0 10 5 10 10 0 6 -4 10 -10 10 -5 0
-10 -4 -10 -10z"/>
<path d="M850 4100 c0 -5 7 -10 15 -10 8 0 15 5 15 10 0 6 -7 10 -15 10 -8 0
-15 -4 -15 -10z"/>
<path d="M1370 4079 c-12 -27 -11 -32 4 -41 9 -5 14 -13 12 -17 -3 -4 4 -8 15
-8 26 -2 25 27 -1 34 -19 5 -20 7 -4 24 9 10 13 23 9 28 -11 19 -22 12 -35
-20z"/>
<path d="M3693 4100 c-27 -11 -28 -16 -9 -36 20 -19 28 -18 21 5 -3 12 0 21
10 25 9 3 15 0 15 -9 0 -8 9 -15 20 -15 23 0 25 7 8 23 -17 16 -38 18 -65 7z"/>
<path d="M4201 4088 c-1 -20 -5 -26 -16 -22 -9 4 -15 0 -15 -9 0 -10 7 -15 20
-12 13 3 20 -2 20 -12 0 -9 2 -14 5 -12 2 3 1 25 -4 50 -6 31 -9 36 -10 17z"/>
<path d="M960 4085 c-10 -12 -10 -15 3 -15 19 0 31 16 18 24 -5 3 -14 -1 -21
-9z"/>
<path d="M3788 4071 c-28 -27 -39 -76 -15 -68 6 2 12 12 12 21 0 10 8 22 18
27 24 14 23 -11 -3 -41 -34 -39 -25 -55 11 -19 20 20 32 69 22 95 -7 19 -13
17 -45 -15z"/>
<path d="M3637 4077 c-5 -13 61 -87 78 -87 4 0 5 9 2 21 -3 12 -3 18 0 15 9
-9 34 15 27 26 -3 5 -16 1 -28 -11 l-21 -20 -24 27 c-13 15 -23 29 -22 30 2 2
1 6 -2 8 -2 3 -7 -1 -10 -9z"/>
<path d="M4468 4083 c7 -3 16 -2 19 1 4 3 -2 6 -13 5 -11 0 -14 -3 -6 -6z"/>
<path d="M865 4070 c3 -5 8 -10 11 -10 2 0 4 5 4 10 0 6 -5 10 -11 10 -5 0 -7
-4 -4 -10z"/>
<path d="M906 4056 c5 -21 3 -25 -10 -20 -9 3 -16 1 -16 -5 0 -6 9 -11 20 -11
24 0 57 -56 37 -63 -6 -2 -10 -7 -7 -10 3 -3 12 -2 20 3 13 8 12 14 -5 47 -11
20 -19 41 -17 45 1 5 -5 16 -13 25 -15 14 -15 13 -9 -11z"/>
<path d="M790 4059 c0 -5 5 -7 10 -4 6 3 10 8 10 11 0 2 -4 4 -10 4 -5 0 -10
-5 -10 -11z"/>
<path d="M834 4059 c-3 -6 -2 -14 4 -18 6 -3 12 -20 14 -36 2 -24 8 -31 31
-33 15 -2 27 2 27 8 0 6 -5 8 -10 5 -15 -9 -40 13 -34 30 3 7 0 16 -5 20 -6 3
-9 10 -6 15 3 5 1 11 -4 14 -5 4 -13 1 -17 -5z"/>
<path d="M1045 4050 c3 -5 10 -10 16 -10 5 0 9 5 9 10 0 6 -7 10 -16 10 -8 0
-12 -4 -9 -10z"/>
<path d="M4891 4034 c0 -11 3 -14 6 -6 3 7 2 16 -1 19 -3 4 -6 -2 -5 -13z"/>
<path d="M691 4024 c-1 -16 7 -24 27 -29 l27 -8 -32 -13 c-18 -8 -33 -16 -33
-19 0 -3 16 1 35 9 20 9 37 11 40 5 4 -5 11 -9 17 -9 6 0 1 11 -12 25 -13 14
-31 25 -41 25 -10 0 -20 8 -22 18 -4 13 -5 12 -6 -4z"/>
<path d="M602 4021 c5 -19 59 -34 72 -21 7 7 -1 10 -20 10 -16 0 -36 6 -43 13
-11 10 -13 9 -9 -2z"/>
<path d="M4160 3998 c0 -17 3 -19 9 -9 6 9 11 10 15 2 4 -6 11 -11 17 -11 5 0
4 9 -3 20 -17 27 -38 25 -38 -2z"/>
<path d="M3746 3964 c-3 -9 -6 -25 -6 -36 0 -18 1 -18 16 -4 19 19 34 12 34
-15 0 -30 24 -17 28 14 3 24 0 27 -28 27 -25 0 -31 4 -26 15 3 8 1 15 -3 15
-5 0 -12 -7 -15 -16z"/>
<path d="M4060 3968 c0 -9 7 -19 16 -22 25 -10 27 -1 4 19 -17 15 -20 16 -20
3z"/>
<path d="M4230 3973 c-8 -2 -21 -7 -29 -9 -8 -2 -12 -6 -10 -9 3 -2 25 2 49
10 25 7 36 14 25 14 -11 -1 -27 -3 -35 -6z"/>
<path d="M647 3956 c-9 -7 -17 -19 -17 -25 0 -7 -5 -9 -11 -5 -8 4 -8 1 -1
-12 5 -11 12 -26 16 -34 3 -8 4 -2 2 13 -2 19 3 35 17 48 24 22 20 33 -6 15z"/>
<path d="M970 3959 c0 -5 11 -9 25 -9 14 0 25 2 25 4 0 2 -11 6 -25 8 -14 3
-25 1 -25 -3z"/>
<path d="M1390 3960 c0 -5 5 -10 11 -10 5 0 7 5 4 10 -3 6 -8 10 -11 10 -2 0
-4 -4 -4 -10z"/>
<path d="M4146 3951 c-11 -12 -16 -30 -14 -48 l4 -28 11 35 c5 19 15 34 22 33
13 -3 15 13 2 21 -4 3 -16 -3 -25 -13z"/>
<path d="M4380 3960 c0 -5 5 -10 10 -10 6 0 10 5 10 10 0 6 -4 10 -10 10 -5 0
-10 -4 -10 -10z"/>
<path d="M710 3940 c0 -5 5 -10 10 -10 6 0 10 5 10 10 0 6 -4 10 -10 10 -5 0
-10 -4 -10 -10z"/>
<path d="M758 3933 c-16 -8 -28 -22 -28 -31 0 -12 3 -13 8 -5 6 10 13 9 30 -3
l23 -16 -21 -18 c-23 -20 -26 -30 -7 -30 14 0 37 40 37 65 0 7 6 15 13 18 9 3
9 7 -2 20 -16 20 -17 20 -53 0z m34 -25 c-15 -15 -24 -6 -16 16 5 12 10 14 17
7 8 -8 8 -14 -1 -23z"/>
<path d="M4425 3939 c-16 -6 -14 -8 13 -8 33 -1 41 4 20 12 -7 2 -22 1 -33 -4z"/>
<path d="M950 3918 c0 -19 2 -20 10 -8 13 19 13 30 0 30 -5 0 -10 -10 -10 -22z"/>
<path d="M1395 3924 c-17 -13 -17 -14 -1 -14 9 0 14 -5 11 -10 -4 -6 -11 -8
-16 -5 -5 4 -9 -3 -9 -14 0 -27 15 -27 33 -1 8 11 16 17 20 14 3 -3 13 -1 23
4 15 9 14 11 -12 25 -25 13 -32 13 -49 1z"/>
<path d="M3671 3926 c-9 -11 -10 -20 -1 -35 13 -25 23 -26 41 -5 12 15 11 16
-9 10 -12 -4 -22 -3 -22 2 0 5 10 12 23 16 18 5 20 8 7 16 -20 13 -25 12 -39
-4z"/>
<path d="M4708 3925 c-33 -39 -69 -75 -73 -75 -9 0 -176 -175 -187 -195 -12
-23 37 21 116 104 28 29 79 82 114 117 35 35 59 64 53 64 -6 0 -16 -7 -23 -15z"/>
<path d="M402 3920 c3 -9 227 -238 270 -276 21 -19 21 -19 10 3 -7 12 -27 37
-45 57 -19 20 -32 38 -29 41 3 3 0 5 -6 5 -7 0 -53 41 -103 90 -89 88 -104
100 -97 80z"/>
<path d="M676 3921 c-4 -7 -5 -15 -2 -18 9 -9 19 4 14 18 -4 11 -6 11 -12 0z"/>
<path d="M4466 3905 c-9 -26 -7 -32 5 -12 6 10 9 21 6 23 -2 3 -7 -2 -11 -11z"/>
<path d="M858 3902 c-10 -2 -18 -8 -18 -13 0 -5 -7 -9 -15 -9 -8 0 -15 -4 -15
-10 0 -16 27 -12 34 5 6 18 36 20 36 3 0 -28 42 -95 71 -112 31 -18 33 -18 46
-1 7 11 13 22 13 27 0 14 -18 8 -24 -8 -6 -15 -9 -15 -34 1 -33 21 -53 45 -46
56 2 4 11 6 19 2 8 -3 15 0 15 6 0 6 -8 11 -18 11 -26 0 -34 11 -21 27 6 7 10
13 8 14 -22 4 -37 5 -51 1z"/>
<path d="M2410 3895 c-10 -12 -10 -15 3 -15 8 0 17 7 21 15 3 8 2 15 -3 15 -5
0 -14 -7 -21 -15z"/>
<path d="M3758 3904 c-9 -8 3 -44 13 -38 11 7 12 44 1 44 -5 0 -11 -3 -14 -6z"/>
<path d="M4270 3903 c-48 -8 -57 -14 -32 -24 12 -4 22 -16 22 -25 0 -10 -6
-14 -14 -11 -7 3 -19 0 -25 -6 -19 -19 -12 -27 15 -16 32 11 36 9 38 -25 0
-14 7 -26 14 -26 9 0 11 7 7 21 -6 17 -4 20 6 13 15 -9 39 -14 39 -9 0 2 -16
12 -35 21 -19 9 -32 20 -29 26 3 5 1 15 -6 23 -9 11 -7 16 9 25 23 12 28 1 9
-18 -7 -7 -8 -13 -2 -13 5 -1 16 -2 24 -3 8 0 14 -9 14 -18 -1 -10 2 -18 7
-18 5 0 9 7 9 16 0 8 5 12 10 9 6 -3 10 -1 10 4 0 6 -9 11 -20 11 -13 0 -22 9
-26 25 -3 14 -9 24 -13 24 -3 -1 -17 -4 -31 -6z"/>
<path d="M2705 3890 c3 -5 14 -10 23 -10 15 0 15 2 2 10 -20 13 -33 13 -25 0z"/>
<path d="M2330 3860 c0 -18 4 -29 10 -25 6 3 10 15 10 25 0 10 -4 22 -10 25
-6 4 -10 -7 -10 -25z"/>
<path d="M4491 3859 c-7 -17 -11 -32 -8 -35 2 -3 10 9 17 26 17 40 8 48 -9 9z"/>
<path d="M656 3871 c-9 -15 12 -24 40 -17 26 7 33 26 9 26 -8 0 -15 -5 -15
-11 0 -8 -4 -8 -14 0 -9 8 -16 8 -20 2z"/>
<path d="M957 3866 c-3 -8 1 -20 9 -27 20 -16 23 -9 9 19 -10 18 -14 20 -18 8z"/>
<path d="M2790 3873 c0 -17 19 -35 29 -29 8 5 7 11 -3 22 -16 15 -26 18 -26 7z"/>
<path d="M850 3860 c0 -5 5 -10 10 -10 6 0 10 5 10 10 0 6 -4 10 -10 10 -5 0
-10 -4 -10 -10z"/>
<path d="M2270 3852 c0 -10 7 -19 15 -19 17 0 17 0 9 21 -8 22 -24 20 -24 -2z"/>
<path d="M4130 3855 c0 -8 5 -15 10 -15 6 0 10 7 10 15 0 8 -4 15 -10 15 -5 0
-10 -7 -10 -15z"/>
<path d="M2358 3838 c-16 -16 -38 -23 -64 -24 -65 -1 -166 -26 -186 -46 -22
-22 -28 -23 -28 -3 0 18 5 19 -59 -5 -57 -22 -86 -44 -77 -59 10 -16 -27 -70
-56 -82 -20 -8 -31 -8 -45 1 -12 8 -13 10 -2 7 28 -9 76 19 81 47 6 32 -18 35
-50 6 -12 -11 -25 -20 -29 -20 -5 0 -16 -9 -25 -19 -15 -18 -15 -20 1 -35 24
-22 42 -20 85 9 20 14 39 25 42 25 11 0 74 53 70 58 -3 3 -13 -1 -23 -9 -15
-12 -16 -12 -10 5 6 14 4 17 -8 12 -8 -3 -15 -1 -15 4 0 14 21 24 29 13 10
-15 60 -14 85 2 16 10 40 14 81 11 33 -2 67 0 77 5 10 5 18 7 18 3 0 -10 -75
-105 -105 -134 -14 -13 -25 -31 -25 -39 0 -12 -33 -24 -133 -48 -72 -18 -137
-33 -144 -33 -6 0 -56 -45 -110 -101 -67 -68 -107 -118 -125 -157 -15 -31 -27
-62 -27 -68 -1 -5 -10 -28 -20 -50 -11 -23 -26 -59 -33 -82 -14 -44 -33 -55
-43 -23 -5 17 -43 40 -83 53 -10 2 -8 10 7 30 12 14 21 31 21 37 0 6 3 11 8
11 4 0 16 16 26 35 15 27 17 38 8 47 -9 9 -12 9 -12 0 0 -6 -6 -9 -14 -6 -9 3
-20 -7 -30 -27 -22 -43 -20 -46 9 -19 14 13 28 21 31 18 3 -4 -5 -14 -19 -23
-14 -8 -27 -29 -31 -45 -3 -19 -12 -30 -22 -30 -16 0 -16 1 -1 18 10 10 17 25
17 33 -1 9 -10 3 -25 -14 -13 -15 -36 -32 -50 -37 -26 -10 -34 -30 -12 -30 7
0 18 5 25 12 10 10 16 8 30 -5 11 -12 13 -20 6 -25 -15 -10 -54 -95 -54 -118
0 -10 12 6 26 36 37 79 49 91 85 78 32 -11 72 -60 67 -82 -2 -7 -36 -41 -75
-75 -40 -35 -73 -68 -73 -74 0 -7 32 18 71 55 39 38 77 68 84 68 6 0 20 -16
30 -35 26 -48 31 -36 6 14 l-21 40 43 103 c24 57 54 130 66 164 14 37 40 80
67 110 l44 49 63 -67 c85 -91 96 -87 14 5 l-66 73 35 37 c23 24 47 38 72 42
20 4 90 23 155 43 l117 35 30 -21 c41 -31 52 -27 13 4 -18 14 -33 32 -33 41 0
8 22 41 49 72 27 31 62 83 77 115 26 56 28 58 43 39 16 -18 17 -18 61 24 46
44 35 64 -12 21z m-108 -48 c-13 -9 -13 -10 0 -10 8 0 2 -7 -14 -15 -33 -18
-65 -19 -86 -4 -13 9 -13 10 1 6 9 -3 29 3 45 14 16 10 38 19 49 19 17 0 17
-2 5 -10z m-200 -54 c-14 -8 -29 -12 -34 -8 -10 6 20 20 44 21 8 0 4 -6 -10
-13z m-80 -65 c0 -5 -7 -11 -15 -15 -15 -5 -20 5 -8 17 9 10 23 9 23 -2z m-80
-5 c0 -3 -4 -8 -10 -11 -5 -3 -10 -1 -10 4 0 6 5 11 10 11 6 0 10 -2 10 -4z"/>
<path d="M2727 3845 c-7 -15 36 -55 59 -55 19 0 18 3 -13 39 -31 35 -38 37
-46 16z m28 -15 c3 -5 1 -10 -4 -10 -6 0 -11 5 -11 10 0 6 2 10 4 10 3 0 8 -4
11 -10z"/>
<path d="M4160 3850 c0 -5 4 -10 9 -10 6 0 13 5 16 10 3 6 -1 10 -9 10 -9 0
-16 -4 -16 -10z"/>
<path d="M805 3840 c-4 -6 -4 -10 -1 -10 2 0 11 -3 20 -6 9 -3 16 -2 16 4 0
14 -28 23 -35 12z"/>
<path d="M2831 3834 c-7 -8 -10 -18 -7 -21 7 -7 36 16 36 28 0 13 -13 10 -29
-7z"/>
<path d="M660 3831 c0 -5 5 -13 10 -16 6 -3 10 -2 10 4 0 5 -4 13 -10 16 -5 3
-10 2 -10 -4z"/>
<path d="M1060 3809 c-29 -25 -32 -31 -20 -39 20 -13 30 -12 30 2 0 6 3 8 7 5
3 -4 12 -2 20 4 8 7 13 8 13 1 0 -5 -10 -16 -22 -25 -13 -8 -20 -18 -15 -23
10 -11 47 31 47 54 0 10 -6 26 -12 34 -12 15 -16 14 -48 -13z"/>
<path d="M850 3795 c0 -28 -5 -37 -30 -50 -24 -12 -30 -22 -30 -47 0 -17 3
-28 7 -25 3 4 11 1 17 -6 6 -7 10 -11 9 -8 -4 6 36 79 47 86 8 5 7 11 -1 21
-9 11 -8 14 7 14 18 1 18 1 0 15 -11 8 -14 15 -8 15 7 0 12 5 12 10 0 6 -7 10
-15 10 -10 0 -15 -11 -15 -35z m-35 -85 c3 -5 1 -10 -4 -10 -6 0 -11 5 -11 10
0 6 2 10 4 10 3 0 8 -4 11 -10z"/>
<path d="M3990 3820 c0 -10 14 -14 38 -11 6 1 12 -5 12 -14 0 -10 -10 -15 -31
-15 -24 0 -30 -4 -27 -17 3 -19 48 -32 48 -14 0 6 7 11 15 11 8 0 15 6 15 14
0 8 12 16 27 18 14 2 29 10 31 18 4 12 2 13 -9 3 -15 -12 -69 -6 -69 8 0 5
-11 9 -25 9 -14 0 -25 -4 -25 -10z"/>
<path d="M760 3810 c0 -5 5 -10 10 -10 6 0 10 5 10 10 0 6 -4 10 -10 10 -5 0
-10 -4 -10 -10z"/>
<path d="M2856 3791 c-10 -10 -14 -25 -10 -35 6 -16 0 -17 -67 -11 -41 3 -89
8 -106 11 -18 3 -33 1 -33 -4 0 -5 28 -12 63 -15 34 -4 83 -9 108 -13 46 -6
47 -6 53 22 5 24 11 29 35 28 15 0 32 -3 37 -6 5 -3 25 -9 44 -13 l35 -8 -28
-8 c-16 -4 -42 -6 -58 -4 -19 2 -27 0 -23 -7 7 -11 119 -7 131 5 10 11 -27 35
-72 48 -22 6 -48 15 -57 20 -25 13 -33 11 -52 -10z"/>
<path d="M4180 3800 c0 -5 5 -10 10 -10 6 0 10 5 10 10 0 6 -4 10 -10 10 -5 0
-10 -4 -10 -10z"/>
<path d="M1296 3769 c-39 -43 -27 -46 14 -4 19 19 29 35 24 35 -6 0 -23 -14
-38 -31z"/>
<path d="M1890 3789 c0 -5 5 -7 10 -4 6 3 10 8 10 11 0 2 -4 4 -10 4 -5 0 -10
-5 -10 -11z"/>
<path d="M2808 3789 c-17 -9 -26 -39 -12 -39 8 0 29 24 32 38 2 14 2 14 -20 1z"/>
<path d="M4225 3789 c-12 -19 5 -23 22 -6 16 16 16 17 1 17 -9 0 -20 -5 -23
-11z"/>
<path d="M3190 3779 c0 -5 5 -7 10 -4 6 3 10 8 10 11 0 2 -4 4 -10 4 -5 0 -10
-5 -10 -11z"/>
<path d="M4105 3779 c-10 -15 1 -22 24 -14 12 3 19 11 16 16 -8 12 -32 11 -40
-2z"/>
<path d="M1925 3757 c-4 -10 -5 -21 -1 -24 10 -10 18 4 13 24 -4 17 -4 17 -12
0z"/>
<path d="M3053 3755 c0 -18 19 -15 25 3 2 7 -3 12 -10 12 -8 0 -15 -7 -15 -15z"/>
<path d="M4142 3753 c-18 -13 -25 -13 -37 -3 -13 11 -18 11 -28 0 -9 -10 -9
-13 1 -17 6 -3 12 -12 12 -20 0 -10 -5 -13 -17 -8 -43 18 -49 16 -51 -11 -2
-25 -1 -26 16 -11 12 11 22 13 32 7 28 -18 41 -12 34 15 -5 19 -2 25 10 25 9
0 15 -3 15 -7 -5 -29 5 -33 16 -8 8 17 14 24 15 17 0 -16 50 15 50 32 0 6 -4
6 -9 -3 -6 -9 -11 -10 -15 -2 -9 14 -16 13 -44 -6z"/>
<path d="M4240 3760 c0 -5 6 -10 14 -10 8 0 13 -6 13 -12 -1 -20 24 -78 34
-78 5 0 12 -1 16 -2 3 -2 7 5 9 15 1 10 10 27 19 37 16 18 16 18 -3 13 -13 -3
-33 5 -55 21 -37 28 -47 32 -47 16z m80 -70 c0 -5 -4 -10 -10 -10 -5 0 -10 5
-10 10 0 6 5 10 10 10 6 0 10 -4 10 -10z"/>
<path d="M904 3753 c12 -12 58 -15 51 -3 -3 5 -18 10 -32 10 -15 0 -23 -3 -19
-7z"/>
<path d="M2287 3745 c-15 -11 -32 -55 -22 -55 4 0 19 9 34 20 17 12 57 23 105
29 43 5 80 12 84 15 10 11 -187 2 -201 -9z"/>
<path d="M3181 3748 c-1 -19 -26 -24 -36 -8 -8 14 -45 12 -73 -4 -27 -14 -22
-21 44 -54 22 -11 60 -37 83 -56 47 -40 85 -46 100 -17 8 15 4 24 -24 49 -19
17 -35 34 -35 39 0 5 -11 16 -25 23 -13 7 -26 20 -28 29 -4 13 -5 13 -6 -1z
m-52 -17 c15 -8 51 -17 84 -20 5 -1 7 -9 6 -18 -3 -35 1 -43 26 -43 18 0 25
-5 25 -19 0 -24 -30 -18 -56 10 -9 10 -23 19 -31 19 -7 0 -16 6 -19 14 -3 8
-21 22 -40 31 -19 9 -34 20 -34 25 0 13 16 13 39 1z"/>
<path d="M3170 3686 c0 -2 7 -7 16 -10 8 -3 12 -2 9 4 -6 10 -25 14 -25 6z"/>
<path d="M3820 3750 c0 -5 5 -10 10 -10 6 0 10 5 10 10 0 6 -4 10 -10 10 -5 0
-10 -4 -10 -10z"/>
<path d="M3860 3743 c0 -7 4 -13 9 -13 11 0 24 -38 21 -67 -2 -35 18 -36 35
-2 10 18 12 28 5 24 -13 -8 -32 14 -24 27 8 13 19 10 44 -12 41 -35 76 -21 50
20 -13 21 -140 42 -140 23z m127 -28 c0 -8 -4 -15 -8 -15 -11 0 -20 16 -12 24
11 11 20 7 20 -9z"/>
<path d="M1005 3740 c-4 -6 -12 -10 -18 -9 -26 3 -37 -2 -37 -16 0 -8 -4 -15
-10 -15 -5 0 -10 -5 -10 -10 0 -6 15 -4 36 5 32 13 38 13 60 -3 13 -9 24 -23
24 -31 0 -11 -3 -11 -15 -1 -10 9 -15 9 -15 1 0 -6 -7 -11 -16 -11 -14 0 -14
3 -4 15 7 9 10 18 7 21 -10 10 -27 -6 -27 -26 0 -10 -8 -23 -17 -29 -10 -5
-14 -13 -10 -18 5 -4 14 0 21 9 7 10 17 13 25 9 16 -10 71 9 71 25 0 6 18 17
40 24 40 13 41 13 72 -20 29 -32 31 -33 44 -15 20 27 19 55 -1 29 -14 -18 -16
-18 -26 -1 -5 9 -17 17 -24 17 -8 0 -15 4 -15 9 0 16 21 24 33 12 14 -14 44
-14 53 0 3 6 1 15 -6 19 -19 11 -130 7 -128 -5 0 -5 9 -9 20 -7 10 2 18 -2 18
-8 0 -7 -7 -10 -15 -7 -8 4 -17 1 -21 -5 -5 -7 -11 -5 -20 6 -8 11 -14 13 -19
7 -9 -16 -55 -14 -55 2 0 7 5 18 12 25 9 9 8 12 -4 12 -9 0 -20 -5 -23 -10z"/>
<path d="M1869 3724 c-12 -14 -11 -16 5 -13 11 2 21 10 24 17 5 17 -13 15 -29
-4z"/>
<path d="M2881 3703 c8 -10 31 -36 51 -59 19 -23 38 -47 40 -55 3 -8 8 -11 11
-8 9 7 -91 139 -105 139 -7 0 -5 -7 3 -17z"/>
<path d="M3855 3689 c-4 -6 -5 -13 -2 -16 7 -7 27 6 27 18 0 12 -17 12 -25 -2z"/>
<path d="M2091 3664 c0 -11 3 -14 6 -6 3 7 2 16 -1 19 -3 4 -6 -2 -5 -13z"/>
<path d="M4105 3673 c-11 -3 -28 -12 -38 -21 -16 -15 -17 -14 -11 1 3 10 1 17
-5 17 -6 0 -11 -4 -11 -10 0 -5 0 -13 0 -17 0 -5 10 -9 22 -9 13 -1 37 -5 54
-9 26 -6 32 -3 42 19 6 14 8 26 3 26 -5 0 -15 2 -23 4 -7 2 -22 1 -33 -1z m40
-23 c-3 -5 -17 -10 -31 -10 -13 0 -24 5 -24 10 0 6 14 10 31 10 17 0 28 -4 24
-10z"/>
<path d="M916 3661 c-3 -5 1 -11 9 -15 8 -3 15 -1 15 4 0 13 -18 22 -24 11z"/>
<path d="M885 3650 c-3 -5 -1 -10 4 -10 6 0 11 5 11 10 0 6 -2 10 -4 10 -3 0
-8 -4 -11 -10z"/>
<path d="M3510 3645 c7 -9 15 -13 17 -11 7 7 -7 26 -19 26 -6 0 -6 -6 2 -15z"/>
<path d="M4218 3652 c-19 -4 -24 -17 -10 -26 11 -7 35 10 31 21 -2 5 -12 7
-21 5z"/>
<path d="M765 3634 c-20 -21 -16 -58 8 -62 41 -8 64 48 28 68 -15 7 -24 6 -36
-6z m19 -29 c-4 -8 -8 -15 -10 -15 -2 0 -4 7 -4 15 0 8 4 15 10 15 5 0 7 -7 4
-15z"/>
<path d="M3340 3640 c0 -5 7 -10 16 -10 8 0 12 5 9 10 -3 6 -10 10 -16 10 -5
0 -9 -4 -9 -10z"/>
<path d="M2100 3633 c0 -4 5 -15 10 -23 8 -13 10 -13 10 2 0 9 -4 20 -10 23
-5 3 -10 3 -10 -2z"/>
<path d="M4300 3610 c0 -23 6 -33 23 -39 32 -12 47 -3 47 29 0 28 -15 40 -51
40 -15 0 -19 -7 -19 -30z"/>
<path d="M3150 3611 c0 -31 11 -51 28 -51 12 0 13 3 4 12 -7 7 -12 20 -12 29
0 10 -4 21 -10 24 -5 3 -10 -3 -10 -14z"/>
<path d="M1955 3610 c-3 -6 1 -7 9 -4 18 7 21 14 7 14 -6 0 -13 -4 -16 -10z"/>
<path d="M3360 3583 c-14 -29 -14 -52 -1 -66 4 -4 8 6 8 24 0 17 5 34 11 38 6
3 7 12 3 19 -5 9 -12 4 -21 -15z"/>
<path d="M890 3580 c0 -5 5 -10 10 -10 6 0 10 5 10 10 0 6 -4 10 -10 10 -5 0
-10 -4 -10 -10z"/>
<path d="M3065 3580 c26 -11 78 -12 71 -2 -3 5 -24 9 -48 10 -32 0 -38 -2 -23
-8z"/>
<path d="M4415 3579 c-4 -6 -5 -12 -2 -15 2 -3 7 2 10 11 7 17 1 20 -8 4z"/>
<path d="M1893 3543 c-19 -18 -30 -33 -25 -33 5 0 15 7 22 15 7 8 21 15 32 15
11 0 16 5 13 11 -4 6 2 9 17 8 55 -5 148 2 148 11 0 5 -36 9 -86 7 -82 -2 -88
-4 -121 -34z"/>
<path d="M1781 3561 c-8 -6 -9 -11 -3 -15 6 -3 14 -1 17 5 9 14 2 20 -14 10z"/>
<path d="M2960 3539 c-38 -44 -38 -44 0 -16 l36 26 84 -30 c47 -17 119 -39
160 -50 67 -17 130 -56 130 -80 0 -4 -25 -36 -55 -71 -30 -34 -55 -67 -55 -73
1 -5 10 1 21 15 12 14 40 46 63 71 l43 47 39 -33 c41 -35 50 -52 134 -253 54
-130 55 -139 18 -199 -27 -46 -16 -41 20 7 26 36 28 44 21 89 -4 27 -21 73
-37 102 -16 30 -40 85 -52 123 -17 51 -33 78 -65 110 -108 104 -142 135 -165
149 -20 12 -210 70 -300 92 -8 2 -26 -10 -40 -26z"/>
<path d="M3385 3560 c-3 -5 1 -10 9 -10 9 0 16 5 16 10 0 6 -4 10 -9 10 -6 0
-13 -4 -16 -10z"/>
<path d="M686 3545 c-3 -8 -1 -15 4 -15 6 0 10 7 10 15 0 8 -2 15 -4 15 -2 0
-6 -7 -10 -15z"/>
<path d="M4390 3540 c0 -5 5 -10 10 -10 6 0 10 5 10 10 0 6 -4 10 -10 10 -5 0
-10 -4 -10 -10z"/>
<path d="M2468 3514 c-15 -8 -39 -36 -54 -62 -15 -26 -38 -57 -52 -68 -24 -22
-24 -22 -3 -29 11 -3 21 -11 21 -16 0 -5 4 -9 8 -9 4 0 9 16 9 37 1 22 7 40
17 45 9 5 14 13 12 17 -10 16 55 81 80 81 14 0 22 4 19 10 -8 14 -25 12 -57
-6z"/>
<path d="M653 3462 c-76 -84 -91 -105 -134 -190 -51 -99 -89 -160 -89 -144 0
7 7 27 16 43 8 17 13 33 10 36 -8 8 -66 -114 -66 -138 0 -38 61 43 121 160 46
87 93 155 187 264 8 9 13 19 11 21 -2 2 -27 -21 -56 -52z"/>
<path d="M2657 3483 c57 -55 76 -89 69 -126 l-6 -31 24 23 24 23 -35 52 c-40
57 -81 96 -102 96 -7 0 4 -17 26 -37z"/>
<path d="M4416 3504 c-4 -10 5 -30 21 -51 73 -90 95 -123 126 -188 19 -38 42
-95 53 -125 10 -30 20 -48 22 -39 5 26 -54 170 -98 238 -22 33 -58 81 -81 106
-23 25 -40 48 -37 51 10 10 128 -129 164 -193 46 -82 56 -76 12 8 -41 78 -173
217 -182 193z"/>
<path d="M1538 3471 c-18 -16 -30 -32 -26 -36 3 -3 14 2 24 13 11 10 27 24 38
29 12 6 15 13 8 17 -6 4 -26 -7 -44 -23z"/>
<path d="M3905 3490 c3 -5 8 -10 11 -10 2 0 4 5 4 10 0 6 -5 10 -11 10 -5 0
-7 -4 -4 -10z"/>
<path d="M640 3395 c-80 -107 -112 -166 -133 -245 -24 -88 -28 -110 -19 -110
5 0 15 26 21 58 19 83 70 188 146 296 36 53 64 96 61 96 -3 0 -38 -43 -76 -95z"/>
<path d="M2506 3473 c-6 -14 -5 -15 5 -6 7 7 10 15 7 18 -3 3 -9 -2 -12 -12z"/>
<path d="M3575 3480 c3 -5 14 -10 23 -10 15 0 15 2 2 10 -20 13 -33 13 -25 0z"/>
<path d="M1280 3471 c0 -5 5 -13 10 -16 6 -3 10 -2 10 4 0 5 -4 13 -10 16 -5
3 -10 2 -10 -4z"/>
<path d="M3810 3460 c0 -5 5 -10 10 -10 6 0 10 5 10 10 0 6 -4 10 -10 10 -5 0
-10 -4 -10 -10z"/>
<path d="M3520 3428 c0 -9 -6 -18 -12 -21 -7 -2 -10 -8 -5 -13 4 -4 15 0 24 9
13 13 15 20 5 29 -9 9 -12 8 -12 -4z"/>
<path d="M3880 3430 c0 -5 7 -10 15 -10 8 0 15 5 15 10 0 6 -7 10 -15 10 -8 0
-15 -4 -15 -10z"/>
<path d="M1240 3420 c0 -5 5 -10 10 -10 6 0 10 5 10 10 0 6 -4 10 -10 10 -5 0
-10 -4 -10 -10z"/>
<path d="M3646 3415 c4 -8 11 -15 16 -15 6 0 5 6 -2 15 -7 8 -14 15 -16 15 -2
0 -1 -7 2 -15z"/>
<path d="M1614 3384 c-38 -48 -47 -64 -40 -71 3 -4 6 0 6 8 0 12 2 11 11 -1 9
-13 10 -13 6 1 -3 10 8 29 29 50 19 18 34 37 34 41 0 17 -18 6 -46 -28z"/>
<path d="M4467 3361 c33 -49 39 -53 17 -11 -10 19 -17 38 -17 41 1 3 -4 6 -11
6 -9 0 -5 -12 11 -36z"/>
<path d="M2663 3351 c-9 -24 -8 -29 3 -24 8 3 14 8 15 12 0 3 2 14 4 24 5 28
-10 20 -22 -12z"/>
<path d="M660 3350 c-6 -11 -8 -20 -6 -20 3 0 10 9 16 20 6 11 8 20 6 20 -3 0
-10 -9 -16 -20z"/>
<path d="M3544 3336 c9 -21 29 -56 45 -78 25 -34 28 -44 19 -64 -8 -18 -8 -28
0 -36 8 -8 12 -1 17 25 8 41 -12 105 -37 121 -10 6 -18 14 -18 19 0 4 -9 18
-21 30 l-21 22 16 -39z"/>
<path d="M3690 3350 c-9 -6 -9 -13 1 -31 7 -13 13 -32 14 -41 2 -23 16 -36 22
-21 7 21 43 -4 43 -29 0 -16 3 -19 11 -11 11 11 -7 53 -24 53 -4 0 -14 6 -21
12 -11 11 -11 15 2 24 30 22 -16 64 -48 44z m31 -15 c5 4 6 -1 3 -9 -8 -20
-24 -11 -23 12 0 11 2 12 6 4 2 -6 9 -10 14 -7z"/>
<path d="M1405 3309 c-9 -17 -14 -38 -10 -47 6 -15 8 -15 21 3 8 11 12 25 10
32 -3 7 -1 15 4 18 13 8 13 25 0 25 -5 0 -17 -14 -25 -31z"/>
<path d="M1370 3315 c0 -8 2 -15 4 -15 2 0 6 7 10 15 3 8 1 15 -4 15 -6 0 -10
-7 -10 -15z"/>
<path d="M1504 3305 c-15 -14 -30 -25 -33 -25 -9 0 -33 -41 -27 -47 3 -3 16 7
31 22 14 16 28 25 32 21 4 -3 1 -12 -5 -18 -17 -17 -15 -43 8 -69 16 -20 19
-21 20 -7 0 9 -4 20 -10 23 -16 10 -12 23 10 30 11 3 20 11 20 17 0 6 -7 5
-17 -3 -15 -13 -16 -11 -9 11 4 14 8 30 9 35 2 6 6 16 10 23 14 21 -11 13 -39
-13z"/>
<path d="M2620 3305 c-7 -9 -8 -15 -2 -15 5 0 12 7 16 15 3 8 4 15 2 15 -2 0
-9 -7 -16 -15z"/>
<path d="M3626 3301 c-4 -6 -2 -11 4 -11 6 0 8 -4 5 -10 -3 -5 -1 -10 5 -10 7
0 9 -7 6 -17 -9 -22 14 -35 31 -18 11 11 8 19 -16 45 -18 20 -31 28 -35 21z"/>
<path d="M2500 3290 c0 -5 5 -10 11 -10 5 0 7 5 4 10 -3 6 -8 10 -11 10 -2 0
-4 -4 -4 -10z"/>
<path d="M3770 3296 c0 -2 7 -6 15 -10 8 -3 15 -1 15 4 0 6 -7 10 -15 10 -8 0
-15 -2 -15 -4z"/>
<path d="M1565 3279 c-9 -14 -2 -20 14 -10 8 6 9 11 3 15 -6 3 -14 1 -17 -5z"/>
<path d="M2571 3273 c-10 -11 -15 -43 -16 -102 -2 -110 16 -362 25 -356 5 3
11 477 6 475 -1 -1 -7 -8 -15 -17z"/>
<path d="M1340 3270 c0 -5 7 -10 15 -10 8 0 15 -7 15 -15 0 -8 5 -15 10 -15
18 0 11 29 -9 40 -25 13 -31 13 -31 0z"/>
<path d="M2357 3204 c-10 -38 -36 -107 -58 -152 -22 -46 -39 -86 -36 -88 2 -2
22 29 45 69 44 79 75 172 70 213 -2 20 -8 8 -21 -42z"/>
<path d="M3735 3229 c-4 -13 0 -27 11 -40 22 -25 31 -17 11 12 -9 11 -13 28
-10 35 3 8 3 14 0 14 -3 0 -9 -9 -12 -21z"/>
<path d="M2740 3231 c0 -42 124 -291 138 -277 2 3 -14 35 -36 73 -23 37 -52
99 -67 137 -26 72 -35 88 -35 67z"/>
<path d="M2520 3113 c0 -60 -3 -133 -6 -163 -5 -42 -4 -52 5 -44 16 15 28 314
12 314 -7 0 -11 -35 -11 -107z"/>
<path d="M3685 3210 c3 -5 8 -10 11 -10 2 0 4 5 4 10 0 6 -5 10 -11 10 -5 0
-7 -4 -4 -10z"/>
<path d="M1370 3201 c0 -5 -3 -18 -6 -28 -5 -16 -4 -16 10 1 18 23 20 36 6 36
-5 0 -10 -4 -10 -9z"/>
<path d="M3647 3198 c4 -7 24 -37 45 -67 21 -30 38 -57 38 -60 0 -3 -18 -15
-40 -25 -22 -11 -40 -23 -40 -28 0 -5 18 1 40 12 21 11 43 20 48 20 12 0 70
-145 81 -205 9 -47 10 -46 4 15 -4 36 -7 83 -8 105 -1 44 -12 75 -26 75 -6 0
-5 -8 1 -19 5 -11 10 -26 9 -33 0 -7 -9 5 -19 27 l-19 40 22 6 22 5 -22 12
c-16 9 -23 9 -23 2 0 -6 -4 -8 -10 -5 -5 3 -10 13 -10 21 0 27 -70 113 -93
114 -5 0 -5 -6 0 -12z"/>
<path d="M4640 3205 c0 -19 71 -130 95 -147 22 -16 14 5 -29 71 -42 64 -66 92
-66 76z"/>
<path d="M3720 3182 c0 -6 5 -14 11 -17 6 -4 14 -16 18 -28 6 -16 9 -17 14 -5
3 10 -4 25 -19 39 -13 12 -24 17 -24 11z"/>
<path d="M566 3155 c-9 -26 -7 -32 5 -12 6 10 9 21 6 23 -2 3 -7 -2 -11 -11z"/>
<path d="M3640 3146 c0 -9 5 -16 10 -16 6 0 10 4 10 9 0 6 -4 13 -10 16 -5 3
-10 -1 -10 -9z"/>
<path d="M2610 3117 c-1 -33 84 -146 170 -224 57 -52 185 -143 200 -143 6 0
10 -3 10 -7 0 -10 70 -54 148 -93 72 -36 198 -70 251 -69 31 1 28 3 -24 15
-194 47 -356 134 -555 303 -82 69 -115 105 -185 206 -8 11 -15 16 -15 12z"/>
<path d="M2460 3057 c-54 -78 -208 -227 -295 -286 -102 -68 -224 -126 -332
-156 l-88 -25 61 5 c97 7 221 56 342 134 128 84 292 246 341 339 25 46 5 39
-29 -11z"/>
<path d="M3808 3069 c8 -21 19 -39 25 -39 5 0 6 8 2 18 -4 9 -9 25 -12 34 -3
9 -11 19 -18 22 -10 3 -9 -5 3 -35z"/>
<path d="M4610 3074 c0 -8 5 -12 10 -9 6 4 8 11 5 16 -9 14 -15 11 -15 -7z"/>
<path d="M1330 3039 c0 -5 -4 -8 -9 -5 -5 3 -16 -9 -25 -28 -18 -37 -20 -50
-8 -43 4 3 5 -29 3 -71 -3 -55 -6 -70 -11 -52 -6 17 -8 2 -9 -48 -1 -47 3 -71
9 -67 6 3 10 2 10 -4 0 -6 -22 -20 -50 -32 -27 -12 -55 -27 -61 -35 -6 -8 -16
-11 -22 -7 -6 4 -8 -2 -5 -15 4 -15 0 -25 -10 -31 -14 -8 -14 -10 5 -8 14 1
27 11 33 27 13 31 97 75 116 59 8 -7 14 -6 18 3 5 10 7 10 12 1 6 -14 34 -18
34 -5 0 5 -11 14 -23 19 -21 10 -25 20 -31 93 -8 100 1 175 25 216 22 36 23
44 9 44 -5 0 -10 -5 -10 -11z"/>
<path d="M4606 3024 c-4 -9 -4 -19 -2 -22 10 -9 36 8 36 23 0 20 -26 19 -34
-1z"/>
<path d="M480 3015 c0 -11 7 -15 23 -13 12 2 22 8 22 13 0 6 -10 11 -22 13
-16 2 -23 -2 -23 -13z"/>
<path d="M4893 2940 c0 -47 2 -66 4 -42 2 23 2 61 0 85 -2 23 -4 4 -4 -43z"/>
<path d="M1415 3000 c3 -5 11 -10 16 -10 6 0 7 5 4 10 -3 6 -11 10 -16 10 -6
0 -7 -4 -4 -10z"/>
<path d="M3836 2884 c7 -154 -5 -210 -34 -151 -10 21 -11 21 -13 2 -1 -11 -1
-23 0 -27 0 -5 -9 -9 -21 -9 -47 -3 -69 -7 -75 -13 -3 -3 -1 -7 5 -7 7 -1 17
-2 22 -3 6 0 15 -7 19 -15 6 -9 11 -10 15 -2 4 6 2 11 -3 11 -6 0 -11 5 -11
10 0 15 40 12 40 -2 1 -7 6 -3 13 9 9 16 16 20 27 13 8 -5 22 -7 31 -4 9 2 19
-2 23 -11 3 -8 11 -15 18 -15 8 0 21 -8 30 -19 8 -10 21 -20 27 -22 6 -2 12
-16 13 -31 1 -16 8 -28 15 -28 7 0 12 -6 11 -12 -2 -8 6 -12 22 -10 14 1 207
5 430 8 223 3 409 10 415 15 5 5 -9 9 -35 9 -41 0 -42 1 -24 15 19 14 19 14
-1 15 -12 0 -25 4 -30 9 -16 15 -115 25 -115 11 0 -6 8 -10 18 -9 32 3 47 -2
74 -24 l27 -22 -392 0 c-368 0 -392 1 -389 18 2 9 -1 17 -5 17 -5 0 -16 15
-26 33 -10 17 -34 41 -54 52 -28 15 -37 27 -39 50 -1 17 -5 72 -8 123 -10 145
-27 159 -20 16z"/>
<path d="M486 2954 c-12 -12 -14 -20 -7 -27 8 -8 16 -6 28 6 12 12 14 20 6 28
-7 7 -15 5 -27 -7z"/>
<path d="M541 2954 c0 -11 3 -14 6 -6 3 7 2 16 -1 19 -3 4 -6 -2 -5 -13z"/>
<path d="M4600 2955 c0 -18 24 -30 39 -21 16 10 1 36 -20 36 -10 0 -19 -7 -19
-15z"/>
<path d="M3665 2917 c17 -12 54 -45 83 -74 28 -29 52 -49 52 -44 0 17 -139
142 -157 140 -4 0 6 -10 22 -22z"/>
<path d="M514 2864 c6 -53 5 -57 -25 -85 -27 -25 -46 -33 -70 -31 -3 1 -6 -5
-6 -12 0 -7 10 -11 21 -10 12 1 25 3 29 3 19 2 77 78 77 101 0 20 2 22 10 10
15 -24 12 -4 -7 40 -25 56 -37 50 -29 -16z"/>
<path d="M561 2904 c0 -11 3 -14 6 -6 3 7 2 16 -1 19 -3 4 -6 -2 -5 -13z"/>
<path d="M384 2891 c-72 -44 -137 -156 -148 -256 l-7 -60 25 31 c14 17 48 41
75 53 50 21 83 49 43 37 -15 -5 -22 -2 -25 11 -3 13 -5 11 -6 -6 0 -13 -4 -22
-7 -18 -3 3 -21 -3 -40 -14 -27 -15 -34 -16 -34 -5 0 22 50 116 61 116 6 0 8
4 5 8 -3 5 4 15 15 22 10 8 19 20 19 26 0 7 16 22 35 34 19 12 35 26 35 31 0
13 -12 11 -46 -10z"/>
<path d="M4595 2884 c-34 -36 -42 -87 -21 -131 9 -20 20 -33 23 -29 4 3 1 17
-7 30 -13 26 -7 111 10 121 4 3 6 -3 3 -13 -2 -10 2 -23 9 -30 11 -9 14 -3 16
34 1 24 -1 44 -4 44 -3 0 -16 -12 -29 -26z"/>
<path d="M4683 2897 c3 -9 2 -19 -3 -22 -6 -4 -10 -11 -10 -17 0 -6 9 -3 20 7
19 17 21 17 55 -6 19 -13 35 -27 35 -30 0 -3 11 -19 25 -35 27 -31 50 -74 58
-112 5 -20 2 -22 -16 -16 -12 4 -26 13 -30 21 -6 9 -17 13 -32 9 -13 -3 -27
-1 -30 4 -4 6 -12 7 -18 3 -14 -9 -70 -5 -102 7 -14 5 -25 6 -25 1 0 -13 58
-31 101 -31 20 0 67 -13 103 -29 55 -25 67 -35 75 -63 8 -26 9 -19 5 37 -7 79
-29 139 -74 196 -38 46 -76 75 -115 85 -24 6 -27 4 -22 -9z"/>
<path d="M450 2825 c-67 -24 -110 -45 -110 -54 0 -7 36 4 144 48 35 13 2 20
-34 6z"/>
<path d="M562 2790 c0 -19 2 -27 5 -17 2 9 2 25 0 35 -3 9 -5 1 -5 -18z"/>
<path d="M4739 2784 c25 -11 37 -12 45 -4 8 8 7 10 -5 5 -10 -4 -20 -2 -24 4
-3 6 -16 11 -28 10 -18 0 -16 -3 12 -15z"/>
<path d="M4891 2774 c0 -11 3 -14 6 -6 3 7 2 16 -1 19 -3 4 -6 -2 -5 -13z"/>
<path d="M4685 2760 c3 -5 19 -11 35 -15 18 -4 27 -11 24 -17 -4 -7 -2 -8 4
-4 21 13 13 23 -28 34 -22 5 -38 6 -35 2z"/>
<path d="M375 2720 c3 -5 11 -10 16 -10 6 0 7 5 4 10 -3 6 -11 10 -16 10 -6 0
-7 -4 -4 -10z"/>
<path d="M527 2723 c-4 -3 -7 -11 -7 -17 0 -6 5 -5 12 2 6 6 9 14 7 17 -3 3
-9 2 -12 -2z"/>
<path d="M1390 2719 c0 -12 25 -22 41 -17 6 2 0 9 -15 16 -16 7 -26 8 -26 1z"/>
<path d="M410 2691 c0 -4 11 -6 25 -3 14 2 25 6 25 8 0 2 -11 4 -25 4 -14 0
-25 -4 -25 -9z"/>
<path d="M1170 2696 c0 -2 7 -6 15 -10 8 -3 15 -1 15 4 0 6 -7 10 -15 10 -8 0
-15 -2 -15 -4z"/>
<path d="M1430 2676 c0 -27 12 -46 29 -46 14 1 14 2 -2 11 -12 7 -16 17 -12
30 4 11 2 19 -4 19 -6 0 -11 -6 -11 -14z"/>
<path d="M1400 2665 c0 -8 2 -15 4 -15 2 0 6 7 10 15 3 8 1 15 -4 15 -6 0 -10
-7 -10 -15z"/>
<path d="M3980 2665 c0 -8 5 -15 10 -15 6 0 10 7 10 15 0 8 -4 15 -10 15 -5 0
-10 -7 -10 -15z"/>
<path d="M3683 2663 c-18 -7 -16 -23 2 -23 8 0 15 7 15 15 0 8 -1 15 -2 14 -2
0 -9 -3 -15 -6z"/>
<path d="M3710 2639 c0 -5 5 -7 10 -4 6 3 10 8 10 11 0 2 -4 4 -10 4 -5 0 -10
-5 -10 -11z"/>
<path d="M366 2629 c-37 -10 -86 -42 -86 -56 0 -7 5 -13 10 -13 6 0 10 6 10
13 0 28 71 49 160 49 47 0 103 2 125 6 26 5 -1 7 -78 7 -64 0 -128 -3 -141 -6z"/>
<path d="M4538 2613 c7 -3 16 -2 19 1 4 3 -2 6 -13 5 -11 0 -14 -3 -6 -6z"/>
<path d="M390 2597 c-45 -16 -47 -17 -65 -17 -8 0 -15 -4 -15 -8 0 -11 58 -3
66 9 3 5 16 9 29 9 13 0 27 5 30 10 8 13 -2 12 -45 -3z"/>
<path d="M550 2560 c265 -11 627 -11 610 0 -9 6 -164 9 -395 8 -309 -1 -349
-3 -215 -8z"/>
<path d="M1439 2556 c12 -14 57 -16 390 -15 207 0 399 4 426 9 41 6 30 8 -65
9 -63 1 -261 4 -440 7 -296 5 -323 5 -311 -10z"/>
<path d="M3160 2559 c-146 -4 -277 -13 -290 -19 -27 -11 795 -5 825 7 13 5 14
7 3 14 -15 10 -159 9 -538 -2z"/>
<path d="M235 2485 c7 -78 35 -140 98 -211 45 -52 87 -76 107 -64 19 11 22 40
4 33 -8 -3 -11 -10 -8 -15 4 -6 1 -8 -7 -6 -8 3 -13 11 -11 17 1 7 -2 10 -7 6
-6 -3 -23 9 -40 27 -77 84 -111 140 -111 182 0 24 2 25 28 15 15 -7 62 -24
106 -40 43 -15 88 -36 99 -46 21 -18 21 -18 5 7 -8 14 -37 33 -64 43 -101 37
-182 80 -193 100 -9 18 -10 8 -6 -48z"/>
<path d="M4430 2540 c-113 -6 -108 -7 63 -6 104 1 191 4 194 9 4 7 -54 7 -257
-3z"/>
<path d="M758 2533 c7 -3 16 -2 19 1 4 3 -2 6 -13 5 -11 0 -14 -3 -6 -6z"/>
<path d="M1765 2502 c201 -69 447 -216 566 -339 91 -95 132 -151 165 -229 22
-51 24 -54 19 -22 -14 87 -79 183 -200 296 -108 101 -379 262 -497 295 -102
29 -138 28 -53 -1z"/>
<path d="M3380 2519 c-106 -27 -158 -47 -285 -109 -77 -37 -165 -87 -195 -109
-77 -58 -227 -207 -261 -260 -39 -61 -37 -85 2 -30 49 69 238 253 299 291 119
74 350 177 459 204 39 9 71 18 71 20 0 7 -54 2 -90 -7z"/>
<path d="M4885 2520 c-10 -17 -99 -58 -151 -71 -27 -6 -53 -16 -59 -22 -7 -7
-6 -8 3 -3 6 4 12 3 12 -3 0 -5 -6 -12 -12 -15 -7 -3 -4 -4 7 -3 11 2 19 8 18
13 -1 5 9 11 22 12 13 1 48 11 77 22 29 11 54 20 56 20 2 0 2 -15 0 -32 -2
-19 -8 -32 -15 -31 -7 2 -10 -4 -7 -12 4 -8 1 -15 -7 -15 -7 0 -9 -3 -6 -6 4
-4 -2 -19 -13 -34 -11 -16 -20 -33 -20 -38 0 -17 -82 -82 -102 -82 -15 0 -18
5 -13 21 7 22 62 79 76 79 5 0 9 5 9 10 0 19 -16 10 -57 -31 -52 -51 -60 -76
-28 -91 19 -8 30 -6 59 11 77 48 138 146 153 249 10 62 9 71 -2 52z"/>
<path d="M1130 2512 c0 -5 7 -15 15 -22 8 -7 15 -9 15 -6 0 4 -7 14 -15 22 -8
9 -15 11 -15 6z"/>
<path d="M3685 2509 c-11 -16 -1 -19 13 -3 7 8 8 14 3 14 -5 0 -13 -5 -16 -11z"/>
<path d="M3936 2456 c-36 -36 -62 -54 -64 -46 -3 7 -1 15 4 19 5 3 16 15 24
25 14 18 14 19 -7 8 -12 -7 -24 -20 -27 -30 -6 -18 -41 -23 -64 -8 -7 4 -21 4
-32 1 -14 -4 -22 -1 -27 12 -9 26 -36 50 -51 45 -17 -5 -15 -22 3 -22 8 0 15
-8 15 -18 0 -10 12 -25 28 -32 15 -8 35 -21 45 -29 15 -12 17 -12 17 2 0 10 5
17 10 17 6 0 10 -31 10 -72 -1 -57 -8 -91 -33 -157 -18 -46 -40 -89 -50 -95
-24 -15 -111 30 -115 60 -3 21 -62 64 -62 45 0 -6 9 -15 20 -21 27 -14 26 -24
-13 -105 -19 -39 -46 -108 -62 -155 -23 -72 -35 -92 -77 -132 l-50 -47 -60 69
c-34 39 -63 68 -66 66 -2 -3 25 -38 61 -79 l64 -73 45 36 c25 20 52 43 60 51
24 25 128 268 128 301 0 15 4 15 36 -7 20 -14 47 -25 60 -25 30 0 30 -9 -3
-63 -42 -71 -73 -80 -96 -27 -4 8 -4 -6 -1 -33 5 -45 3 -49 -35 -90 -46 -48
-50 -57 -21 -57 11 0 20 5 20 10 0 11 65 80 75 80 16 0 0 -29 -35 -61 -41 -38
-115 -137 -107 -145 2 -3 12 7 21 21 10 14 38 47 64 73 48 49 167 246 157 262
-3 4 1 14 8 22 7 7 19 32 26 55 8 24 18 40 24 36 7 -4 8 1 3 12 -4 10 -2 21 5
25 6 4 14 56 18 121 l8 114 1 -105 c2 -131 -19 -251 -47 -281 -11 -12 -23 -31
-27 -41 -3 -10 -9 -18 -14 -18 -4 0 -10 -10 -13 -22 -2 -13 -8 -32 -12 -43 -4
-11 3 -4 15 15 13 19 38 58 56 85 37 57 50 115 60 276 l6 105 47 22 c43 21 97
81 89 99 -1 5 -30 -18 -62 -51z m-375 -463 c-12 -20 -14 -14 -5 12 4 9 9 14
11 11 3 -2 0 -13 -6 -23z m105 -92 c-6 -9 -46 -12 -46 -4 0 5 45 21 49 17 1
-1 0 -7 -3 -13z"/>
<path d="M1397 2466 c-54 -51 -70 -59 -87 -43 -10 9 -11 9 -6 0 4 -8 1 -13 -8
-13 -8 0 -18 -12 -23 -26 -15 -45 16 -306 38 -320 5 -3 6 2 3 10 -3 9 -1 16 5
16 6 0 11 -6 11 -14 0 -7 8 -20 17 -27 15 -12 16 -12 10 6 -7 19 -6 19 7 3 7
-10 18 -18 25 -18 6 0 11 -6 11 -14 0 -8 6 -21 13 -28 18 -20 37 -56 37 -70 0
-7 -15 12 -33 42 -23 38 -40 55 -55 56 -27 2 -29 -22 -4 -70 21 -43 35 -47 19
-6 -6 17 -15 30 -18 30 -8 0 -6 26 3 35 3 3 20 -19 37 -50 17 -30 36 -55 42
-55 5 0 8 -4 4 -9 -3 -6 7 -23 22 -38 16 -16 40 -44 55 -62 19 -22 35 -31 50
-29 32 4 25 32 -23 89 -35 42 -38 49 -24 62 26 26 17 42 -10 17 -14 -13 -25
-28 -25 -33 0 -5 18 -29 40 -53 22 -24 40 -49 40 -56 -1 -13 -80 71 -80 85 0
4 -8 7 -17 7 -13 0 -14 3 -5 12 15 15 15 23 0 40 -27 29 -58 78 -58 92 0 7 10
16 23 20 13 3 36 17 51 31 16 14 29 25 30 23 22 -30 49 -88 70 -145 35 -101
71 -167 98 -185 13 -9 33 -25 45 -37 l22 -21 58 66 c76 86 81 107 6 26 -32
-34 -63 -62 -68 -62 -24 0 -84 74 -105 128 -13 31 -47 109 -77 172 -44 94 -61
119 -91 139 l-37 23 33 -34 c17 -19 32 -39 32 -46 0 -14 -77 -72 -95 -72 -35
0 -83 118 -96 235 -9 84 -2 105 32 105 17 0 119 90 119 104 0 15 -21 2 -63
-38z m-110 -138 c-3 -8 -6 -5 -6 6 -1 11 2 17 5 13 3 -3 4 -12 1 -19z m34
-158 c11 -36 23 -71 26 -79 4 -11 0 -10 -18 3 -17 11 -24 27 -25 54 -1 20 -4
60 -7 87 -3 28 -4 39 -1 25 3 -14 14 -54 25 -90z"/>
<path d="M4676 2495 c-20 -15 -20 -15 0 -15 11 0 29 7 40 15 19 14 19 14 -1
14 -11 0 -29 -6 -39 -14z"/>
<path d="M1170 2463 c0 -13 5 -23 10 -23 13 0 13 11 0 30 -8 12 -10 11 -10 -7z"/>
<path d="M1203 2434 c-3 -8 -2 -19 3 -24 12 -11 53 -17 54 -7 1 23 -1 27 -16
27 -9 0 -12 -5 -8 -12 4 -7 3 -8 -4 -4 -6 4 -9 13 -5 21 3 8 0 15 -6 15 -7 0
-14 -7 -18 -16z"/>
<path d="M350 2420 c0 -5 5 -10 11 -10 5 0 7 5 4 10 -3 6 -8 10 -11 10 -2 0
-4 -4 -4 -10z"/>
<path d="M396 2391 c-9 -14 64 -45 77 -32 8 8 6 11 -9 11 -11 0 -29 7 -41 15
-12 8 -24 11 -27 6z"/>
<path d="M4730 2390 c-12 -8 -12 -10 5 -10 11 0 27 5 35 10 12 8 12 10 -5 10
-11 0 -27 -5 -35 -10z"/>
<path d="M546 2377 c3 -10 9 -15 12 -12 3 3 0 11 -7 18 -10 9 -11 8 -5 -6z"/>
<path d="M4585 2369 c-11 -17 1 -21 15 -4 8 9 8 15 2 15 -6 0 -14 -5 -17 -11z"/>
<path d="M500 2308 c5 -24 4 -50 -1 -60 -12 -22 -11 -31 1 -23 6 3 7 -1 4 -9
-4 -11 0 -16 10 -16 16 0 47 59 45 89 0 12 -2 11 -9 -4 -7 -17 -9 -14 -10 15
-2 22 -4 28 -7 15 -9 -38 -23 -40 -23 -2 0 20 -4 37 -9 37 -4 0 -5 -19 -1 -42z
m23 -53 c-3 -9 -8 -14 -10 -11 -3 3 -2 9 2 15 9 16 15 13 8 -4z"/>
<path d="M562 2330 c0 -14 2 -19 5 -12 2 6 2 18 0 25 -3 6 -5 1 -5 -13z"/>
<path d="M4566 2322 c-8 -23 8 -100 23 -115 8 -8 11 -8 11 1 0 7 7 12 15 12 8
0 15 5 15 11 0 5 -4 8 -9 5 -15 -10 -44 32 -39 58 6 32 -7 56 -16 28z"/>
<path d="M4623 2305 c-3 -9 -3 -18 -1 -21 3 -3 8 4 11 16 6 23 -1 27 -10 5z"/>
<path d="M1330 2293 c0 -12 37 -46 75 -68 25 -14 26 -14 10 -1 -11 9 -35 30
-52 47 -18 17 -33 27 -33 22z"/>
<path d="M3717 2240 c-32 -27 -66 -54 -75 -59 -9 -5 -14 -12 -11 -15 3 -3 35
17 70 45 78 62 96 79 84 79 -6 -1 -36 -23 -68 -50z"/>
<path d="M2531 2250 c0 -19 -3 -64 -5 -100 -2 -42 -1 -51 3 -25 3 22 6 -37 7
-132 0 -95 3 -175 7 -179 12 -12 28 11 38 52 4 22 8 118 7 214 -1 190 -15 151
-17 -50 -2 -146 -17 -157 -18 -13 -1 113 -19 306 -22 233z"/>
<path d="M4892 2240 c0 -14 2 -19 5 -12 2 6 2 18 0 25 -3 6 -5 1 -5 -13z"/>
<path d="M566 2215 c-9 -26 -7 -32 5 -12 6 10 9 21 6 23 -2 3 -7 -2 -11 -11z"/>
<path d="M4555 2198 c4 -13 11 -27 16 -33 5 -5 4 5 -2 23 -12 36 -24 44 -14
10z"/>
<path d="M4892 2190 c0 -14 2 -19 5 -12 2 6 2 18 0 25 -3 6 -5 1 -5 -13z"/>
<path d="M4610 2184 c0 -9 5 -14 12 -12 18 6 21 28 4 28 -9 0 -16 -7 -16 -16z"/>
<path d="M1563 2178 c-13 -6 -23 -15 -23 -20 0 -10 36 7 45 22 7 12 7 12 -22
-2z"/>
<path d="M2844 2104 c-52 -93 -93 -195 -100 -248 -9 -63 2 -58 16 8 11 53 115
278 131 284 12 5 11 22 -1 22 -5 0 -26 -30 -46 -66z"/>
<path d="M480 2145 c0 -8 9 -15 20 -15 24 0 27 15 4 24 -22 9 -24 8 -24 -9z"/>
<path d="M4608 2142 c-10 -2 -18 -8 -18 -13 0 -12 47 -12 54 0 7 11 -13 19
-36 13z"/>
<path d="M2240 2126 c0 -1 22 -50 49 -107 27 -57 57 -129 66 -159 9 -30 19
-61 21 -69 3 -8 7 -11 10 -8 3 3 -1 32 -10 66 -19 74 -136 313 -136 277z"/>
<path d="M474 2079 c-3 -5 5 -13 18 -18 24 -9 38 -6 38 8 0 12 -49 20 -56 10z"/>
<path d="M4600 2066 c0 -8 6 -16 14 -19 12 -5 13 -13 1 -54 -7 -26 -18 -61
-25 -78 -11 -29 -94 -176 -127 -225 l-17 -25 27 24 c24 22 106 158 135 225 17
38 41 154 34 161 -11 11 -42 4 -42 -9z"/>
<path d="M494 2003 c5 -56 49 -147 120 -252 31 -46 53 -87 50 -90 -10 -10 -64
62 -104 142 -39 75 -59 101 -40 53 32 -84 78 -157 136 -213 64 -62 83 -70 42
-18 -12 16 -23 36 -23 46 -1 10 -20 44 -42 76 -64 92 -94 149 -120 226 -21 63
-23 66 -19 30z"/>
<path d="M1536 2020 c3 -14 10 -29 15 -34 14 -16 10 6 -7 34 l-15 25 7 -25z"/>
<path d="M4735 2028 c-4 -10 -12 -15 -18 -11 -6 4 -8 0 -4 -10 3 -9 3 -16 -2
-14 -12 3 -72 -79 -118 -163 -55 -100 -89 -143 -141 -180 -54 -38 -49 -51 6
-17 49 32 88 82 137 174 20 40 54 88 74 106 44 40 85 102 78 120 -3 8 -7 6
-12 -5z"/>
<path d="M380 2011 c0 -5 7 -14 15 -21 8 -6 13 -15 12 -18 -1 -4 2 -8 6 -9 5
0 22 -14 38 -29 50 -48 42 -19 -10 35 -49 51 -61 59 -61 42z"/>
<path d="M4587 2014 c-4 -4 -7 -17 -7 -28 1 -19 1 -20 11 -3 11 19 8 43 -4 31z"/>
<path d="M4566 1945 c-9 -26 -7 -32 5 -12 6 10 9 21 6 23 -2 3 -7 -2 -11 -11z"/>
<path d="M550 1935 c0 -5 5 -17 10 -25 5 -8 10 -10 10 -5 0 6 -5 17 -10 25 -5
8 -10 11 -10 5z"/>
<path d="M3770 1894 c0 -8 5 -12 10 -9 6 3 10 10 10 16 0 5 -4 9 -10 9 -5 0
-10 -7 -10 -16z"/>
<path d="M1360 1880 c-13 -8 -12 -10 3 -10 9 0 17 -5 17 -11 0 -6 7 -8 16 -5
8 3 12 2 9 -4 -3 -6 5 -10 19 -10 14 0 26 4 26 10 0 5 -7 7 -15 4 -9 -4 -15 0
-15 9 0 11 -6 13 -22 9 -14 -3 -19 -2 -14 6 9 14 -3 15 -24 2z"/>
<path d="M3680 1861 c0 -18 18 -21 30 -6 10 13 9 15 -9 15 -11 0 -21 -4 -21
-9z"/>
<path d="M3697 1813 c-27 -37 -27 -38 -7 -41 12 -2 28 2 37 9 13 12 13 14 -4
20 -17 7 -17 8 2 9 11 2 25 2 31 1 7 -1 14 7 17 18 4 17 2 18 -14 8 -15 -9
-21 -9 -28 1 -5 9 -15 2 -34 -25z"/>
<path d="M1393 1816 c-13 -6 -23 -14 -23 -19 0 -4 4 -6 9 -3 4 3 17 -1 27 -9
27 -20 35 -18 30 8 -3 12 -5 25 -5 30 -1 9 -10 8 -38 -7z"/>
<path d="M1340 1809 c0 -5 5 -7 10 -4 6 3 10 8 10 11 0 2 -4 4 -10 4 -5 0 -10
-5 -10 -11z"/>
<path d="M2480 1810 c-13 -8 -12 -10 3 -10 9 0 17 5 17 10 0 12 -1 12 -20 0z"/>
<path d="M2628 1814 c6 -3 12 -10 12 -15 0 -6 -4 -7 -10 -4 -5 3 -10 1 -10 -4
0 -6 9 -11 21 -11 27 0 22 34 -6 37 -11 2 -14 0 -7 -3z"/>
<path d="M2440 1790 c0 -5 5 -10 10 -10 6 0 10 5 10 10 0 6 -4 10 -10 10 -5 0
-10 -4 -10 -10z"/>
<path d="M2680 1780 c6 -11 13 -20 16 -20 2 0 0 9 -6 20 -6 11 -13 20 -16 20
-2 0 0 -9 6 -20z"/>
<path d="M1600 1764 c0 -14 49 -74 53 -66 7 9 -33 72 -45 72 -5 0 -8 -2 -8 -6z"/>
<path d="M2716 1742 c4 -18 1 -34 -8 -43 -7 -8 -24 -29 -37 -47 -12 -18 -27
-29 -33 -26 -7 4 -8 2 -4 -4 4 -7 1 -12 -9 -12 -9 0 -14 -4 -10 -9 7 -12 -26
-31 -52 -31 -17 0 -18 -22 -8 -559 6 -308 13 -562 16 -566 4 -3 6 240 5 541
l-1 547 43 31 c39 28 142 157 142 177 0 5 -7 9 -15 9 -8 0 -15 5 -15 10 0 6
-4 10 -10 10 -5 0 -7 -13 -4 -28z"/>
<path d="M2355 1741 c-3 -5 -1 -12 5 -16 6 -3 29 -34 52 -67 51 -76 77 -107
103 -121 16 -8 15 -4 -8 26 -15 19 -27 40 -27 45 0 4 -10 18 -23 30 -13 12
-34 42 -46 67 -21 43 -43 56 -56 36z"/>
<path d="M1456 1730 c17 -31 96 -131 101 -126 3 3 -10 23 -28 46 -52 65 -81
96 -73 80z"/>
<path d="M3676 1724 c-23 -23 -20 -30 4 -9 11 10 20 20 20 22 0 7 -9 2 -24
-13z"/>
<path d="M3897 1714 c-4 -4 -7 -14 -7 -23 0 -11 3 -12 11 -4 6 6 10 16 7 23
-2 6 -7 8 -11 4z"/>
<path d="M1784 1665 c22 -18 54 -36 70 -40 17 -4 36 -9 43 -10 6 -2 40 -14 75
-28 35 -14 82 -31 106 -38 48 -14 50 -21 21 -68 -11 -18 -18 -38 -16 -45 2 -6
13 10 25 36 l21 48 51 -54 c28 -30 64 -59 80 -66 17 -7 30 -16 30 -21 0 -11
61 -26 140 -35 89 -9 71 3 -31 21 -51 9 -86 21 -92 30 -4 8 -17 15 -27 15 -11
0 -48 27 -82 59 l-63 59 23 31 c29 40 29 54 -1 17 l-23 -28 -99 40 c-55 23
-132 50 -171 62 -40 11 -77 27 -84 35 -7 8 -18 15 -24 15 -6 -1 7 -16 28 -35z"/>
<path d="M1270 1680 c0 -5 5 -10 10 -10 6 0 10 5 10 10 0 6 -4 10 -10 10 -5 0
-10 -4 -10 -10z"/>
<path d="M1663 1680 c-12 -5 -26 -22 -29 -37 -4 -16 -55 -77 -117 -143 -159
-166 -487 -488 -503 -494 -8 -3 -14 -12 -14 -21 0 -8 -7 -15 -15 -15 -7 0 -18
-6 -22 -13 -13 -21 -54 -46 -68 -41 -7 3 -16 1 -20 -5 -4 -7 5 -11 24 -11 16
0 33 5 36 10 3 6 12 10 20 10 18 0 76 54 228 210 67 69 176 179 242 246 66 66
141 143 168 172 40 44 50 50 70 43 35 -14 87 12 87 43 0 46 -37 66 -87 46z
m44 -52 c0 -9 -9 -19 -19 -21 -10 -3 -16 -2 -14 2 3 4 1 13 -4 21 -13 21 8 44
24 27 7 -7 13 -20 13 -29z"/>
<path d="M3335 1675 c-11 -8 -52 -21 -91 -29 -39 -8 -99 -28 -135 -44 -120
-55 -125 -55 -154 -19 -31 39 -33 27 -3 -21 l22 -36 -68 -63 c-38 -35 -64 -63
-58 -63 20 0 98 69 126 112 11 17 30 28 54 32 59 11 103 27 97 36 -7 12 29 22
50 14 12 -5 16 -4 12 3 -4 6 0 13 7 16 8 3 17 1 20 -6 3 -9 5 -8 5 1 1 7 5 11
11 7 5 -3 17 -1 27 4 10 5 32 15 50 21 17 7 39 20 49 31 20 22 8 24 -21 4z"/>
<path d="M3402 1674 c-40 -28 -4 -94 46 -86 25 3 44 -13 178 -149 306 -314
542 -544 549 -537 6 5 -188 204 -330 339 -130 124 -360 371 -360 388 0 26 -24
61 -43 61 -10 0 -28 -7 -40 -16z m58 -25 c12 -8 10 -9 -7 -4 -17 5 -23 2 -23
-11 0 -14 -3 -14 -15 -4 -13 11 -13 15 -3 21 17 11 30 11 48 -2z"/>
<path d="M3810 1681 c0 -4 11 -13 25 -19 14 -6 25 -8 25 -3 0 4 -11 13 -25 19
-14 6 -25 8 -25 3z"/>
<path d="M3595 1639 c-16 -16 -25 -29 -19 -29 6 0 23 14 39 30 37 38 20 37
-20 -1z"/>
<path d="M730 1621 c0 -5 5 -13 10 -16 6 -3 10 -2 10 4 0 5 -4 13 -10 16 -5 3
-10 2 -10 -4z"/>
<path d="M3888 1613 c6 -2 18 -2 25 0 6 3 1 5 -13 5 -14 0 -19 -2 -12 -5z"/>
<path d="M4357 1584 c-3 -5 6 -17 19 -27 25 -19 31 -13 14 13 -5 8 -10 11 -10
5 0 -5 -4 -4 -9 4 -5 7 -11 9 -14 5z"/>
<path d="M1760 1572 c0 -5 -13 -7 -30 -4 -18 3 -30 0 -30 -7 0 -18 25 -23 71
-14 l42 8 -26 12 c-15 7 -27 9 -27 5z"/>
<path d="M700 1556 c0 -9 5 -16 10 -16 6 0 10 4 10 9 0 6 -4 13 -10 16 -5 3
-10 -1 -10 -9z"/>
<path d="M1890 1567 c23 -22 85 -47 103 -41 18 6 15 8 -17 19 -49 17 -92 28
-86 22z"/>
<path d="M3370 1560 c0 -5 9 -14 20 -20 16 -8 18 -8 14 4 -6 17 -34 30 -34 16z"/>
<path d="M3145 1550 c-3 -5 -15 -10 -26 -10 -30 0 -22 -15 10 -17 21 -1 30 3
34 17 5 21 -7 27 -18 10z"/>
<path d="M1822 1510 c-15 -25 -2 -50 38 -74 25 -14 28 -14 44 3 26 28 19 49
-24 71 -48 24 -43 24 -58 0z m56 -40 c10 -16 10 -20 -1 -20 -8 0 -22 9 -32 20
-18 19 -17 20 1 20 11 0 25 -9 32 -20z"/>
<path d="M3225 1515 c-39 -18 -81 -52 -74 -60 4 -3 14 2 23 11 10 9 21 13 26
8 10 -11 -6 -54 -20 -54 -6 0 -8 5 -4 12 4 7 3 8 -4 4 -6 -4 -9 -13 -6 -21 5
-13 10 -13 33 -1 14 8 41 20 59 28 17 7 32 19 32 25 0 7 15 20 33 28 17 8 24
13 15 11 -9 -3 -18 -1 -20 3 -6 16 -64 19 -93 6z m55 -35 c-6 -11 -17 -17 -25
-14 -8 4 -18 -1 -21 -10 -3 -9 -11 -16 -16 -16 -6 0 -5 6 2 15 10 12 9 16 -6
22 -14 5 -9 9 22 18 47 14 58 10 44 -15z"/>
<path d="M767 1513 c-14 -13 -6 -60 12 -77 18 -16 20 -16 35 6 20 29 21 64 0
72 -20 8 -39 8 -47 -1z m37 -29 c3 -8 2 -12 -4 -9 -6 3 -10 10 -10 16 0 14 7
11 14 -7z"/>
<path d="M858 1513 c7 -3 16 -2 19 1 4 3 -2 6 -13 5 -11 0 -14 -3 -6 -6z"/>
<path d="M1761 1504 c13 -16 29 -19 29 -5 0 5 -9 11 -21 14 -16 4 -18 3 -8 -9z"/>
<path d="M4306 1507 c-23 -17 -18 -70 7 -75 10 -2 24 2 32 8 20 17 19 66 -1
74 -20 8 -17 8 -38 -7z m38 -46 c-2 -3 -12 3 -22 13 -16 17 -16 18 5 5 12 -7
20 -15 17 -18z"/>
<path d="M539 1342 c-148 -150 -177 -182 -164 -182 6 0 335 329 335 336 0 15
-33 -14 -171 -154z"/>
<path d="M876 1483 c-6 -14 -5 -15 5 -6 7 7 10 15 7 18 -3 3 -9 -2 -12 -12z"/>
<path d="M974 1475 c-15 -24 -17 -24 -30 -8 -9 12 -13 14 -14 5 0 -13 24 -43
35 -42 21 1 25 -2 25 -20 0 -16 -5 -19 -22 -15 -16 4 -27 0 -35 -14 -17 -27 0
-36 37 -19 38 16 46 40 25 72 -9 14 -15 31 -12 38 4 8 8 5 12 -9 4 -12 14 -24
22 -27 8 -3 12 -10 8 -16 -4 -6 6 -8 27 -4 18 3 43 6 56 6 12 0 22 4 22 8 0
13 -24 18 -45 9 -37 -14 -54 -11 -48 11 6 22 18 26 28 10 7 -12 25 -4 25 11 0
5 -7 9 -15 9 -8 0 -15 5 -15 10 0 23 -21 8 -26 -20 -4 -16 -11 -27 -16 -24 -6
4 -8 17 -5 30 6 32 -18 31 -39 -1z"/>
<path d="M4084 1489 c-3 -5 -2 -13 1 -19 3 -5 -1 -10 -9 -10 -10 0 -13 6 -10
15 4 8 1 15 -5 15 -6 0 -11 -4 -11 -10 0 -5 -7 -10 -15 -10 -8 0 -15 -4 -15
-10 0 -5 5 -10 10 -10 16 0 23 -2 48 -11 19 -7 22 -5 22 16 0 25 14 33 25 15
3 -5 1 -10 -6 -10 -7 0 -9 -3 -6 -6 3 -4 2 -15 -3 -24 -7 -13 -5 -21 5 -30 12
-10 15 -9 15 4 0 9 6 16 13 16 8 0 7 4 -3 10 -12 8 -12 12 -2 18 7 5 10 16 7
24 -7 18 -53 30 -61 17z"/>
<path d="M4400 1494 c0 -3 7 -12 15 -20 16 -17 18 -14 9 10 -6 15 -24 23 -24
10z"/>
<path d="M3517 1476 c-4 -10 -1 -13 9 -9 7 3 14 9 14 14 0 14 -17 10 -23 -5z"/>
<path d="M1574 1471 c3 -5 16 -11 28 -14 22 -6 22 -5 4 8 -22 17 -40 20 -32 6z"/>
<path d="M4183 1473 c-21 -8 -15 -22 7 -16 11 3 20 0 20 -6 0 -6 7 -11 15 -11
8 0 15 5 15 10 0 6 -7 10 -15 10 -8 0 -15 5 -15 10 0 11 -7 12 -27 3z"/>
<path d="M1185 1448 c-15 -22 -14 -23 12 -29 16 -4 22 -7 16 -8 -19 -2 -16
-38 3 -45 23 -9 34 -7 34 4 0 6 -7 10 -16 10 -9 0 -14 6 -11 13 2 6 11 11 21
9 9 -2 16 2 16 8 0 5 -7 10 -15 10 -8 0 -14 3 -14 8 7 44 -20 56 -46 20z m35
-8 c0 -5 -4 -10 -10 -10 -5 0 -10 5 -10 10 0 6 5 10 10 10 6 0 10 -4 10 -10z"/>
<path d="M3885 1460 c-3 -5 -1 -18 4 -27 10 -17 10 -17 11 1 0 20 0 20 15 0
11 -15 14 -16 15 -3 0 28 -32 49 -45 29z"/>
<path d="M1929 1438 c-10 -18 -8 -24 6 -34 10 -8 21 -11 26 -9 4 3 9 0 11 -5
5 -15 106 -61 112 -51 3 4 -19 20 -49 35 -38 18 -53 31 -49 41 7 18 -17 20
-33 4 -8 -8 -13 -8 -17 0 -4 6 -3 11 2 11 5 0 9 7 9 15 0 20 -4 19 -18 -7z"/>
<path d="M4440 1453 c0 -8 83 -83 93 -83 5 0 5 -4 2 -10 -3 -5 1 -10 10 -10 9
0 14 -4 11 -9 -3 -5 5 -12 19 -15 14 -4 25 -11 25 -17 0 -12 51 -58 65 -59 6
0 -39 47 -99 105 -100 96 -126 117 -126 98z"/>
<path d="M3099 1431 c-13 -11 -22 -22 -19 -24 3 -3 19 6 35 19 17 13 25 24 19
24 -7 0 -22 -9 -35 -19z"/>
<path d="M2000 1433 c0 -6 24 -26 53 -44 28 -18 54 -36 57 -39 3 -3 21 -6 40
-8 24 -2 39 3 47 15 10 13 16 14 25 5 7 -7 8 -12 3 -12 -5 0 1 -7 14 -16 27
-19 43 -8 35 23 -7 25 -29 32 -64 22 -42 -12 -83 -10 -114 6 -15 8 -33 15 -39
15 -6 0 -21 10 -34 22 -13 12 -23 17 -23 11z"/>
<path d="M3288 1433 c7 -3 16 -2 19 1 4 3 -2 6 -13 5 -11 0 -14 -3 -6 -6z"/>
<path d="M4020 1431 c0 -15 24 -41 38 -41 5 0 15 7 22 15 10 13 9 15 -12 15
-13 0 -29 5 -36 12 -9 9 -12 9 -12 -1z"/>
<path d="M910 1420 c0 -5 5 -10 10 -10 6 0 10 5 10 10 0 6 -4 10 -10 10 -5 0
-10 -4 -10 -10z"/>
<path d="M4000 1409 c13 -24 8 -34 -14 -26 -9 4 -13 13 -10 22 7 18 3 19 -31
3 -18 -8 -31 -8 -49 0 -29 13 -35 9 -29 -21 4 -22 7 -23 54 -13 39 8 52 7 58
-3 5 -7 12 -12 17 -12 4 1 8 -11 8 -26 -1 -17 -6 -27 -13 -25 -7 1 -11 -3 -9
-10 6 -18 46 -22 64 -7 9 7 13 21 11 30 -6 20 18 46 27 30 3 -5 3 -17 0 -26
-5 -13 -2 -15 22 -9 62 15 116 54 75 54 -11 0 -25 -8 -31 -17 -7 -12 -13 -14
-16 -7 -3 7 -14 10 -24 7 -11 -3 -20 0 -20 6 0 12 11 14 46 12 20 -2 41 25 29
37 -3 3 -5 1 -5 -5 0 -16 -37 -22 -50 -9 -8 8 -15 6 -28 -10 -21 -26 -51 -38
-57 -21 -2 6 -6 24 -9 40 -4 15 -11 27 -17 27 -6 0 -6 -7 1 -21z m40 -84 c0
-8 -5 -15 -11 -15 -5 0 -7 -5 -3 -12 4 -6 3 -8 -4 -5 -8 6 -9 23 -3 45 3 10
21 -1 21 -13z"/>
<path d="M830 1400 c13 -8 13 -10 -2 -10 -30 0 -28 -17 2 -18 17 0 30 3 30 7
0 11 -23 31 -34 31 -6 0 -4 -5 4 -10z"/>
<path d="M1090 1400 c0 -5 7 -10 15 -10 9 0 18 -7 21 -15 9 -21 41 -19 54 4 9
17 6 19 -23 17 -17 -1 -40 2 -49 6 -11 5 -18 5 -18 -2z"/>
<path d="M1270 1402 c0 -6 9 -12 20 -15 11 -3 20 -3 20 -1 0 2 -9 8 -20 14
-11 6 -20 7 -20 2z"/>
<path d="M2789 1395 c-8 -8 -43 -20 -77 -26 -34 -6 -62 -15 -62 -20 0 -11 6
-11 71 2 90 18 109 26 109 45 0 18 -22 18 -41 -1z"/>
<path d="M3051 1398 c-8 -9 -45 -13 -109 -13 -85 0 -97 -2 -100 -18 -6 -28 25
-67 53 -67 31 0 178 46 229 72 28 14 35 23 27 31 -8 8 -17 5 -34 -11 -13 -12
-33 -22 -45 -22 -12 0 -22 -4 -22 -8 0 -13 -69 -32 -136 -37 -43 -4 -55 -2
-47 6 6 6 10 17 7 23 -3 7 21 11 75 12 49 0 86 5 95 13 8 7 20 10 25 6 7 -3 8
0 5 9 -7 19 -7 19 -23 4z"/>
<path d="M4279 1385 c-8 -16 -23 -38 -34 -47 -25 -22 -7 -23 23 -2 12 8 20 20
17 25 -4 5 -1 9 6 9 7 0 9 -8 6 -21 -4 -15 2 -25 25 -39 16 -10 25 -21 20 -24
-13 -8 -45 4 -55 21 -5 7 -13 11 -18 7 -14 -9 9 -34 32 -34 25 0 24 -8 -3 -31
-13 -10 -17 -18 -10 -19 10 0 82 65 82 75 0 2 -14 6 -30 10 -23 5 -29 11 -26
23 3 10 -1 31 -8 47 l-13 30 -14 -30z"/>
<path d="M1027 1393 c-9 -2 -15 -8 -12 -13 3 -4 14 -6 25 -3 27 7 62 -24 54
-49 -8 -25 13 -23 26 3 9 17 8 23 -7 35 -10 7 -24 14 -30 14 -7 0 -13 5 -13
10 0 10 -12 11 -43 3z"/>
<path d="M3230 1385 c-18 -21 -5 -31 15 -12 8 9 11 18 6 21 -5 3 -14 -1 -21
-9z"/>
<path d="M1860 1374 c0 -8 5 -12 10 -9 6 3 10 10 10 16 0 5 -4 9 -10 9 -5 0
-10 -7 -10 -16z"/>
<path d="M1912 1383 c-6 -2 -10 -9 -6 -14 8 -14 21 -11 28 6 6 15 1 17 -22 8z"/>
<path d="M3180 1376 c0 -9 7 -16 16 -16 17 0 14 22 -4 28 -7 2 -12 -3 -12 -12z"/>
<path d="M800 1339 c0 -19 4 -21 32 -15 17 3 28 3 25 -1 -4 -3 0 -17 8 -29 17
-26 10 -33 -39 -43 -24 -5 -32 -13 -34 -34 -2 -15 -10 -27 -18 -27 -8 0 -14
-7 -14 -15 0 -13 -8 -32 -27 -64 -2 -2 -11 3 -20 11 -16 14 -87 48 -100 48
-16 0 23 -30 45 -35 42 -9 68 -33 54 -47 -7 -7 -12 -19 -12 -28 1 -11 4 -10
12 5 6 11 15 23 20 26 5 3 17 21 26 40 9 18 26 38 38 44 17 8 19 14 10 28 -13
21 5 37 41 37 12 0 29 10 38 22 14 21 14 24 0 34 -19 14 -20 25 -1 18 8 -3 17
-1 21 5 3 6 -1 11 -9 11 -8 0 -21 7 -30 15 -13 13 -16 13 -30 -1 -15 -14 -16
-14 -16 0 0 9 -4 16 -10 16 -5 0 -10 -10 -10 -21z"/>
<path d="M988 1353 c-17 -4 -20 -36 -5 -48 4 -3 5 -2 2 2 -5 6 48 33 67 33 5
0 7 -10 6 -22 -2 -13 1 -24 7 -26 5 -1 11 9 12 23 3 37 -34 53 -89 38z"/>
<path d="M1887 1339 c7 -7 15 -10 18 -7 3 3 -2 9 -12 12 -14 6 -15 5 -6 -5z"/>
<path d="M2310 1336 c0 -8 6 -17 13 -20 6 -3 2 -3 -10 0 -49 12 -14 -25 43
-46 17 -7 23 -7 19 0 -3 6 -13 10 -21 10 -8 0 -14 5 -14 11 0 5 5 7 10 4 15
-9 12 2 -6 30 -18 28 -34 33 -34 11z"/>
<path d="M2770 1320 c-7 -16 -18 -30 -25 -30 -6 0 -17 -11 -23 -25 -18 -39
-15 -42 13 -15 40 41 53 50 75 50 22 0 27 19 8 38 -20 20 -35 14 -48 -18z"/>
<path d="M3955 1340 c-3 -5 -4 -10 -1 -10 2 0 11 -3 20 -6 11 -4 16 -1 16 10
0 18 -25 22 -35 6z"/>
<path d="M2135 1330 c-8 -13 9 -20 24 -11 10 6 9 10 -3 14 -8 3 -18 2 -21 -3z"/>
<path d="M761 1313 c-10 -11 -10 -18 -2 -26 16 -16 14 -47 -4 -53 -8 -4 -15
-13 -15 -22 0 -12 4 -11 21 6 15 17 19 33 17 66 -3 38 -5 42 -17 29z"/>
<path d="M937 1314 c-4 -4 -7 -14 -7 -23 0 -11 3 -12 11 -4 6 6 10 16 7 23 -2
6 -7 8 -11 4z"/>
<path d="M2195 1310 c-16 -7 -17 -9 -3 -9 9 -1 20 4 23 9 7 11 7 11 -20 0z"/>
<path d="M4198 1315 c-17 -30 45 -92 63 -64 17 27 4 40 -17 19 -8 -8 -15 -6
-25 6 -12 16 -12 17 3 11 10 -3 20 -2 23 3 4 6 -3 10 -14 10 -10 0 -21 5 -23
12 -3 7 -7 8 -10 3z"/>
<path d="M648 1282 c-9 -9 -19 -28 -23 -42 l-7 -25 18 25 c9 14 23 30 31 37 8
6 10 14 5 17 -5 3 -16 -2 -24 -12z"/>
<path d="M807 1286 c-16 -13 -16 -14 7 -18 19 -4 24 -1 23 14 -2 21 -6 22 -30
4z"/>
<path d="M1090 1290 c0 -5 9 -10 21 -10 11 0 17 5 14 10 -3 6 -13 10 -21 10
-8 0 -14 -4 -14 -10z"/>
<path d="M4150 1290 c0 -5 5 -10 10 -10 6 0 10 5 10 10 0 6 -4 10 -10 10 -5 0
-10 -4 -10 -10z"/>
<path d="M4396 1285 c-3 -8 -1 -15 4 -15 6 0 10 6 10 13 0 7 7 4 15 -7 12 -16
15 -17 15 -4 0 9 -7 19 -16 22 -21 8 -21 8 -28 -9z"/>
<path d="M726 1264 c-8 -21 -8 -24 3 -24 12 0 22 28 12 35 -5 3 -12 -2 -15
-11z"/>
<path d="M2278 1250 c2 -16 9 -30 14 -30 6 0 8 7 4 15 -7 19 -1 19 19 -1 9 -9
18 -14 21 -12 5 6 -45 58 -56 58 -3 0 -5 -13 -2 -30z"/>
<path d="M2830 1267 c0 -19 16 -31 24 -18 3 5 -1 14 -9 21 -12 10 -15 10 -15
-3z"/>
<path d="M3740 1264 c0 -9 8 -23 17 -29 17 -13 17 -14 0 -32 -18 -20 -23 -53
-8 -53 4 0 13 -15 19 -32 l10 -33 -1 38 c-1 21 -5 41 -10 44 -4 3 -2 12 6 21
25 30 27 50 6 55 -13 3 -17 11 -13 21 4 11 1 16 -10 16 -9 0 -16 -7 -16 -16z"/>
<path d="M4130 1262 c0 -20 29 -64 30 -45 0 6 -5 15 -10 18 -8 5 -8 11 -1 19
6 7 8 16 4 19 -12 13 -23 7 -23 -11z"/>
<path d="M2770 1256 c0 -21 16 -28 29 -12 9 11 8 15 -5 20 -22 8 -24 8 -24 -8z"/>
<path d="M4346 1262 c-3 -5 1 -9 9 -9 8 0 15 4 15 9 0 4 -4 8 -9 8 -6 0 -12
-4 -15 -8z"/>
<path d="M957 1243 c-2 -10 -8 -27 -12 -38 -4 -11 2 -5 14 13 23 36 25 42 12
42 -5 0 -11 -8 -14 -17z"/>
<path d="M1308 1235 c-10 -13 -18 -42 -18 -64 0 -35 3 -41 21 -41 17 0 19 -3
10 -13 -6 -8 -7 -18 -3 -22 4 -5 1 -5 -6 -1 -14 8 -41 -19 -42 -41 0 -6 11
-25 25 -41 24 -29 33 -48 17 -38 -13 8 -35 -11 -27 -24 13 -21 55 29 55 66 0
26 -3 32 -15 28 -12 -5 -13 -9 -4 -20 7 -8 10 -16 7 -19 -2 -2 -12 9 -22 25
-17 30 -17 30 9 40 34 13 35 13 35 -5 0 -8 4 -15 8 -15 5 0 8 -10 8 -21 -1
-31 28 -47 48 -26 20 19 20 24 1 24 -8 0 -15 -4 -15 -9 0 -6 -5 -8 -12 -6 -7
3 -12 17 -13 33 0 24 -9 35 -43 52 -2 1 7 19 19 41 l23 40 -19 41 c-11 22 -22
41 -25 41 -3 -1 -13 -11 -22 -25z m23 -38 c-9 -11 -8 -17 4 -27 24 -20 18 -31
-10 -18 -29 13 -32 35 -8 54 22 15 30 10 14 -9z"/>
<path d="M1363 1248 c10 -5 17 -16 17 -23 0 -20 44 -19 60 0 9 11 10 19 2 27
-12 12 -35 1 -27 -13 4 -5 1 -9 -4 -9 -6 0 -11 6 -11 14 0 8 -11 14 -27 14
-21 0 -23 -2 -10 -10z"/>
<path d="M3660 1250 c-8 -5 -12 -12 -8 -15 10 -10 58 -13 58 -4 0 15 -35 28
-50 19z"/>
<path d="M4405 1251 c3 -6 -11 -26 -31 -45 -21 -20 -32 -36 -27 -36 10 0 83
67 83 75 0 2 -7 6 -16 9 -8 3 -12 2 -9 -3z"/>
<path d="M2400 1247 c0 -4 14 -26 30 -49 17 -22 30 -37 30 -32 -1 11 -60 91
-60 81z"/>
<path d="M4471 1230 c0 -14 -8 -36 -17 -49 -13 -18 -24 -22 -50 -19 -21 3 -33
0 -31 -6 2 -6 16 -11 30 -11 15 1 27 -3 27 -7 0 -4 5 -8 11 -8 5 0 7 5 4 10
-3 6 -2 10 4 10 13 0 34 65 28 87 -3 12 -5 10 -6 -7z"/>
<path d="M4319 1217 l-37 -22 49 -49 c26 -26 51 -56 54 -67 7 -20 25 -27 25
-9 0 11 -58 81 -77 93 -19 12 -16 34 5 39 10 3 19 13 19 22 0 9 -1 16 -1 16
-1 0 -17 -11 -37 -23z"/>
<path d="M690 1221 c0 -6 5 -13 10 -16 6 -3 10 -15 10 -26 0 -10 5 -19 10 -19
13 0 13 13 -2 45 -11 25 -28 34 -28 16z"/>
<path d="M910 1210 c0 -11 -4 -20 -10 -20 -5 0 -10 -5 -10 -12 0 -6 3 -8 7 -5
3 4 11 3 18 -3 8 -6 11 1 11 25 0 19 -4 35 -8 35 -4 0 -8 -9 -8 -20z"/>
<path d="M2805 1220 c-3 -5 -1 -10 4 -10 6 0 11 5 11 10 0 6 -2 10 -4 10 -3 0
-8 -4 -11 -10z"/>
<path d="M2689 1203 c-13 -16 -12 -17 4 -4 9 7 17 15 17 17 0 8 -8 3 -21 -13z"/>
<path d="M3680 1208 c0 -14 30 -22 41 -11 7 7 2 12 -15 15 -14 3 -26 1 -26 -4z"/>
<path d="M3806 1205 c4 -9 0 -21 -8 -28 -10 -8 -13 -21 -9 -36 6 -21 8 -22 20
-8 17 21 20 79 3 84 -8 3 -10 -1 -6 -12z"/>
<path d="M4170 1210 c0 -5 5 -10 10 -10 6 0 10 5 10 10 0 6 -4 10 -10 10 -5 0
-10 -4 -10 -10z"/>
<path d="M655 1190 c-18 -8 -17 -9 8 -9 15 -1 27 4 27 9 0 12 -8 12 -35 0z"/>
<path d="M4175 1180 c-3 -5 -2 -10 4 -10 5 0 13 5 16 10 3 6 2 10 -4 10 -5 0
-13 -4 -16 -10z"/>
<path d="M4226 1145 c16 -25 11 -51 -8 -39 -8 5 -9 -3 -4 -26 7 -37 13 -47 22
-37 4 4 1 14 -7 23 -11 14 -11 18 4 29 20 14 22 46 5 63 -21 21 -29 13 -12
-13z"/>
<path d="M850 1145 c0 -8 4 -15 9 -15 5 0 14 7 21 15 10 13 9 15 -9 15 -12 0
-21 -6 -21 -15z"/>
<path d="M4102 1148 c-60 -13 -46 -21 17 -10 28 5 54 6 56 2 6 -10 45 -20 45
-12 0 9 -50 32 -64 31 -6 -1 -31 -6 -54 -11z"/>
<path d="M940 1140 c0 -6 21 -10 47 -10 25 0 44 3 40 6 -11 11 -87 14 -87 4z"/>
<path d="M1390 1140 c0 -5 5 -10 10 -10 6 0 10 -7 10 -15 0 -8 -4 -15 -10 -15
-5 0 -10 -9 -10 -20 0 -11 5 -20 10 -20 6 0 10 7 10 15 0 8 5 15 11 15 6 0 9
-6 6 -14 -6 -16 26 -60 36 -50 3 4 0 13 -8 21 -16 16 -20 38 -6 28 5 -3 13 -1
16 5 10 16 -14 40 -33 33 -9 -3 -14 -3 -10 2 9 9 -9 35 -23 35 -5 0 -9 -4 -9
-10z"/>
<path d="M900 1124 c0 -8 5 -12 10 -9 6 3 10 10 10 16 0 5 -4 9 -10 9 -5 0
-10 -7 -10 -16z"/>
<path d="M1045 1130 c3 -5 13 -10 21 -10 8 0 12 5 9 10 -3 6 -13 10 -21 10 -8
0 -12 -4 -9 -10z"/>
<path d="M3667 1122 c-22 -24 -21 -32 1 -32 14 0 14 -3 -5 -18 -17 -12 -20
-21 -13 -32 9 -13 11 -13 19 0 5 8 7 18 5 22 -3 4 -1 8 5 8 5 0 11 10 13 23 2
12 8 21 13 19 6 -2 9 -12 7 -24 -3 -13 0 -18 8 -13 7 4 15 3 19 -2 8 -14 51
-27 51 -16 0 5 -10 13 -22 18 -14 6 -22 17 -20 29 2 11 -1 15 -7 11 -6 -3 -18
1 -27 9 -20 20 -27 20 -47 -2z"/>
<path d="M1367 1109 c3 -10 9 -16 14 -13 13 8 11 21 -5 27 -10 4 -12 0 -9 -14z"/>
<path d="M4028 1123 c7 -3 16 -2 19 1 4 3 -2 6 -13 5 -11 0 -14 -3 -6 -6z"/>
<path d="M847 1097 c-12 -19 -12 -24 0 -35 7 -7 11 -17 9 -21 -3 -4 1 -8 9 -8
17 0 20 13 5 22 -16 10 -12 38 5 31 19 -7 19 1 1 19 -12 12 -16 11 -29 -8z"/>
<path d="M620 1100 c0 -5 5 -10 10 -10 6 0 10 5 10 10 0 6 -4 10 -10 10 -5 0
-10 -4 -10 -10z"/>
<path d="M4176 1103 c-11 -11 -6 -23 9 -23 8 0 15 4 15 9 0 13 -16 22 -24 14z"/>
<path d="M913 1089 c-15 -19 -20 -48 -8 -47 6 0 9 5 7 11 -2 5 2 13 9 17 6 4
10 13 7 20 -3 9 -6 9 -15 -1z"/>
<path d="M3805 1053 c1 -51 20 -69 31 -29 8 33 -3 76 -19 76 -8 0 -12 -15 -12
-47z"/>
<path d="M4260 1080 c0 -5 7 -10 16 -10 8 0 12 5 9 10 -3 6 -10 10 -16 10 -5
0 -9 -4 -9 -10z"/>
<path d="M4891 1064 c0 -11 3 -14 6 -6 3 7 2 16 -1 19 -3 4 -6 -2 -5 -13z"/>
<path d="M4420 1069 c0 -3 9 -23 21 -44 19 -36 20 -37 14 -10 -5 25 -35 71
-35 54z"/>
<path d="M660 1036 c-17 -45 -23 -96 -11 -96 6 0 11 15 11 33 0 17 7 44 14 60
8 15 10 27 5 27 -5 0 -14 -11 -19 -24z"/>
<path d="M1015 1050 c-3 -5 -1 -10 4 -10 6 0 11 5 11 10 0 6 -2 10 -4 10 -3 0
-8 -4 -11 -10z"/>
<path d="M4173 1034 c-27 -31 -27 -30 -7 -38 8 -3 12 -2 9 4 -3 6 -3 15 1 22
5 8 10 6 15 -8 6 -15 8 -12 8 14 1 17 0 32 -1 32 -2 0 -13 -12 -25 -26z"/>
<path d="M3700 1031 c15 -28 13 -33 -10 -26 -16 5 -20 2 -20 -14 0 -32 30 -25
43 9 6 17 15 30 20 30 4 0 5 5 2 10 -3 6 -15 10 -26 10 -16 0 -18 -3 -9 -19z"/>
<path d="M4255 1040 c-3 -5 1 -10 9 -10 8 0 18 5 21 10 3 6 -1 10 -9 10 -8 0
-18 -4 -21 -10z"/>
<path d="M4855 1040 c3 -5 8 -10 11 -10 2 0 4 5 4 10 0 6 -5 10 -11 10 -5 0
-7 -4 -4 -10z"/>
<path d="M687 1033 c-9 -8 -7 -78 3 -118 4 -20 6 -3 6 47 -1 43 -1 78 -2 78 0
0 -4 -3 -7 -7z"/>
<path d="M3754 1026 c-16 -13 -17 -17 -5 -28 12 -11 13 -11 6 1 -5 9 -3 12 6
9 25 -8 22 -37 -5 -48 -14 -5 -26 -11 -26 -14 0 -8 55 -1 62 9 12 16 23 -5 13
-23 -8 -13 -1 -26 32 -62 24 -25 43 -40 43 -35 0 6 -12 24 -28 40 -19 21 -27
41 -27 65 0 24 -5 35 -15 35 -8 0 -16 11 -18 25 -5 35 -15 42 -38 26z"/>
<path d="M3990 1030 c0 -5 5 -10 11 -10 5 0 7 5 4 10 -3 6 -8 10 -11 10 -2 0
-4 -4 -4 -10z"/>
<path d="M4091 1010 c12 -16 29 -32 38 -35 9 -3 0 10 -18 29 -42 44 -49 46
-20 6z"/>
<path d="M4245 1010 c-3 -5 -3 -15 1 -21 6 -11 23 6 24 24 0 10 -18 9 -25 -3z"/>
<path d="M830 996 c0 -8 9 -24 20 -37 16 -20 19 -21 20 -6 0 9 -4 17 -10 17
-5 0 -10 9 -10 20 0 11 -4 20 -10 20 -5 0 -10 -6 -10 -14z"/>
<path d="M902 990 c-14 -24 -16 -60 -2 -60 6 0 10 14 10 30 0 24 4 30 21 30
11 0 17 5 14 10 -10 16 -29 12 -43 -10z"/>
<path d="M3985 979 c5 -15 2 -22 -13 -26 -20 -5 -20 -5 1 -29 24 -28 34 -25
18 5 -7 13 -8 22 -1 26 13 8 13 45 -1 45 -6 0 -8 -9 -4 -21z"/>
<path d="M4881 984 c0 -11 3 -14 6 -6 3 7 2 16 -1 19 -3 4 -6 -2 -5 -13z"/>
<path d="M597 977 c-3 -7 1 -21 9 -32 8 -10 14 -14 14 -8 0 7 -4 14 -10 18 -5
3 -7 12 -3 20 3 8 3 15 0 15 -3 0 -7 -6 -10 -13z"/>
<path d="M1090 975 c0 -9 5 -15 11 -13 6 2 11 8 11 13 0 5 -5 11 -11 13 -6 2
-11 -4 -11 -13z"/>
<path d="M4010 966 c0 -18 8 -27 30 -34 18 -7 32 -7 35 -1 7 10 0 12 -29 9
-11 -1 -15 3 -12 9 4 6 2 11 -4 11 -7 0 -10 7 -6 15 3 8 1 15 -4 15 -6 0 -10
-11 -10 -24z"/>
<path d="M1416 964 c-4 -10 -13 -14 -24 -11 -44 12 -47 12 -47 -8 0 -16 -6
-19 -27 -17 -19 2 -30 -3 -38 -17 -7 -15 -7 -21 0 -21 6 0 13 6 16 14 4 11 13
12 37 5 35 -10 63 5 37 21 -8 5 -11 13 -6 17 5 4 11 2 13 -4 3 -7 11 -13 19
-13 17 0 18 -12 3 -27 -14 -14 -3 -33 18 -33 10 0 13 6 9 17 -5 11 0 23 15 34
18 13 20 19 10 37 -14 26 -27 28 -35 6z m24 -24 c0 -5 -4 -10 -10 -10 -5 0
-10 5 -10 10 0 6 5 10 10 10 6 0 10 -4 10 -10z"/>
<path d="M4421 943 c-14 -48 -14 -66 -1 -58 6 3 10 19 10 35 0 16 5 32 10 35
13 8 13 25 0 25 -5 0 -14 -17 -19 -37z"/>
<path d="M1195 960 c-3 -5 1 -10 9 -10 8 0 18 5 21 10 3 6 -1 10 -9 10 -8 0
-18 -4 -21 -10z"/>
<path d="M3845 960 c3 -5 25 -9 48 -9 40 1 40 2 12 9 -44 11 -67 11 -60 0z"/>
<path d="M4238 963 c7 -3 16 -2 19 1 4 3 -2 6 -13 5 -11 0 -14 -3 -6 -6z"/>
<path d="M1055 950 c-3 -5 -16 -10 -28 -10 -20 -1 -20 -2 -4 -11 12 -7 23 -6
38 4 12 9 16 18 10 21 -5 4 -12 2 -16 -4z"/>
<path d="M3695 951 c-6 -11 9 -23 19 -14 9 9 7 23 -3 23 -6 0 -12 -4 -16 -9z"/>
<path d="M4485 950 c-3 -5 -1 -10 4 -10 6 0 11 5 11 10 0 6 -2 10 -4 10 -3 0
-8 -4 -11 -10z"/>
<path d="M1105 940 c-3 -5 1 -10 9 -10 9 0 16 5 16 10 0 6 -4 10 -9 10 -6 0
-13 -4 -16 -10z"/>
<path d="M1150 934 c-16 -18 -22 -64 -9 -64 5 0 9 10 9 22 0 12 7 30 17 40 9
10 11 18 6 18 -6 0 -16 -7 -23 -16z"/>
<path d="M4090 920 c-9 -16 -8 -20 5 -20 8 0 15 9 15 20 0 11 -2 20 -5 20 -2
0 -9 -9 -15 -20z"/>
<path d="M4215 930 c-3 -5 1 -10 9 -10 9 0 16 5 16 10 0 6 -4 10 -9 10 -6 0
-13 -4 -16 -10z"/>
<path d="M3660 920 c0 -5 7 -10 15 -10 8 0 15 -4 15 -10 0 -5 -4 -10 -10 -10
-5 0 -10 -4 -10 -10 0 -16 30 -12 36 5 4 8 1 22 -6 30 -14 17 -40 20 -40 5z"/>
<path d="M3742 918 c5 -15 28 -18 29 -3 0 6 -7 12 -17 13 -10 3 -15 -1 -12
-10z"/>
<path d="M925 880 c-19 -37 -19 -46 0 -30 8 7 15 19 15 26 0 8 5 14 10 14 6 0
10 -3 10 -7 0 -11 51 -33 61 -27 14 8 11 25 -3 22 -19 -3 -58 12 -58 23 0 19
-20 8 -35 -21z"/>
<path d="M1075 900 l-30 -8 27 -1 c15 0 30 4 33 9 3 6 5 9 3 9 -2 -1 -16 -5
-33 -9z"/>
<path d="M3720 896 c0 -17 28 -41 37 -32 3 3 1 6 -5 6 -7 0 -12 9 -12 20 0 11
-4 20 -10 20 -5 0 -10 -6 -10 -14z"/>
<path d="M4013 898 c2 -7 12 -12 22 -10 12 3 16 -1 12 -12 -3 -8 -2 -18 2 -21
5 -2 11 5 14 17 7 26 9 23 -26 32 -22 5 -28 4 -24 -6z"/>
<path d="M652 880 c7 -11 16 -20 21 -20 4 0 3 9 -3 20 -6 11 -15 20 -20 20 -6
0 -5 -9 2 -20z"/>
<path d="M1441 885 c13 -13 21 -15 35 -6 17 9 17 10 2 11 -9 0 -25 3 -35 6
-17 6 -17 6 -2 -11z"/>
<path d="M4450 885 c-20 -24 -6 -28 15 -5 10 11 13 20 8 20 -6 0 -16 -7 -23
-15z"/>
<path d="M3606 882 c-2 -4 -1 -14 4 -22 7 -11 9 -9 7 8 -1 24 -3 26 -11 14z"/>
<path d="M4110 870 c-42 -23 -27 -26 24 -5 20 8 36 11 36 7 0 -5 11 -14 25
-20 15 -7 25 -8 25 -2 0 6 -5 10 -11 10 -6 0 -17 7 -25 15 -20 19 -31 18 -74
-5z"/>
<path d="M610 875 c0 -18 19 -40 26 -32 4 4 0 15 -9 24 -9 10 -17 13 -17 8z"/>
<path d="M1050 866 c0 -9 5 -16 10 -16 6 0 10 4 10 9 0 6 -4 13 -10 16 -5 3
-10 -1 -10 -9z"/>
<path d="M1087 873 c-12 -12 -7 -22 8 -17 8 4 15 10 15 15 0 11 -14 12 -23 2z"/>
<path d="M1249 843 c-31 -46 -56 -63 -68 -44 -6 9 -8 5 -8 -13 0 -14 6 -31 15
-38 13 -11 14 -10 10 2 -5 17 40 62 55 53 6 -3 7 -1 3 5 -4 6 1 23 10 37 9 14
15 28 12 30 -3 3 -16 -12 -29 -32z"/>
<path d="M3635 870 c-3 -5 -2 -10 4 -10 5 0 13 5 16 10 3 6 2 10 -4 10 -5 0
-13 -4 -16 -10z"/>
<path d="M1505 860 c3 -5 8 -10 11 -10 2 0 4 5 4 10 0 6 -5 10 -11 10 -5 0 -7
-4 -4 -10z"/>
<path d="M4481 856 c-9 -11 -9 -16 1 -22 7 -4 10 -4 6 1 -4 4 -3 14 3 22 6 7
9 13 6 13 -2 0 -10 -6 -16 -14z"/>
<path d="M1146 837 c3 -10 9 -15 12 -12 3 3 0 11 -7 18 -10 9 -11 8 -5 -6z"/>
<path d="M3820 840 c0 -5 5 -10 10 -10 6 0 10 5 10 10 0 6 -4 10 -10 10 -5 0
-10 -4 -10 -10z"/>
<path d="M3977 836 c-4 -10 -5 -21 -2 -24 9 -9 17 6 13 25 -3 17 -4 17 -11 -1z"/>
<path d="M4020 823 c0 -22 2 -25 10 -13 13 20 13 40 0 40 -5 0 -10 -12 -10
-27z"/>
<path d="M657 827 c-3 -8 1 -14 9 -14 16 0 19 13 5 21 -5 3 -11 0 -14 -7z"/>
<path d="M3687 833 c-9 -9 -9 -51 1 -56 4 -3 7 10 7 29 0 19 0 34 -1 34 0 0
-4 -3 -7 -7z"/>
<path d="M4442 820 c0 -14 2 -19 5 -12 2 6 2 18 0 25 -3 6 -5 1 -5 -13z"/>
<path d="M4359 813 c-13 -16 -12 -17 4 -4 9 7 17 15 17 17 0 8 -8 3 -21 -13z"/>
<path d="M710 797 c0 -17 9 -26 33 -35 17 -6 50 -28 72 -47 46 -41 75 -59 75
-47 0 11 -37 44 -117 104 -58 44 -63 46 -63 25z"/>
<path d="M1408 808 c-3 -7 -1 -24 3 -38 6 -22 7 -20 8 13 1 38 -3 47 -11 25z"/>
<path d="M3890 815 c0 -8 101 -85 113 -85 6 0 -16 20 -47 45 -58 44 -66 50
-66 40z"/>
<path d="M3865 800 c-4 -6 -14 -9 -22 -8 -9 2 -17 -5 -19 -17 -1 -11 -10 -25
-18 -31 -19 -14 -20 -28 -3 -42 17 -14 41 21 32 47 -4 15 0 19 22 19 16 0 34
-5 41 -10 8 -7 12 -7 12 2 0 6 -9 14 -21 17 -12 3 -18 11 -15 19 6 16 0 19 -9
4z m-45 -80 c0 -5 -5 -10 -11 -10 -5 0 -7 5 -4 10 3 6 8 10 11 10 2 0 4 -4 4
-10z"/>
<path d="M4191 794 c0 -11 3 -14 6 -6 3 7 2 16 -1 19 -3 4 -6 -2 -5 -13z"/>
<path d="M4408 803 c7 -3 16 -2 19 1 4 3 -2 6 -13 5 -11 0 -14 -3 -6 -6z"/>
<path d="M1320 787 c0 -5 -7 -16 -16 -25 -15 -15 -16 -14 -10 6 6 17 4 21 -8
16 -20 -8 -21 -44 -1 -44 14 0 20 -16 17 -52 -1 -12 3 -15 14 -11 15 5 15 15
3 63 -3 11 4 15 24 15 24 -1 26 1 13 10 -10 8 -12 15 -6 21 6 6 2 10 -10 10
-11 0 -20 -4 -20 -9z"/>
<path d="M1510 786 c-9 -12 -9 -21 2 -43 17 -36 48 -36 68 0 14 26 14 29 -4
43 -25 18 -50 18 -66 0z m40 -41 c-7 -9 -15 -13 -19 -10 -3 3 1 10 9 15 21 14
24 12 10 -5z"/>
<path d="M3573 792 c-14 -9 -27 -57 -19 -71 3 -5 18 -6 33 -2 33 9 48 45 27
66 -17 17 -24 18 -41 7z m27 -31 c0 -5 -7 -11 -14 -14 -10 -4 -13 -1 -9 9 6
15 23 19 23 5z"/>
<path d="M3760 778 c0 -5 7 -8 16 -8 8 0 12 -4 9 -10 -3 -6 1 -7 9 -4 26 10
19 32 -9 30 -14 0 -25 -4 -25 -8z"/>
<path d="M1450 770 c0 -5 5 -10 10 -10 6 0 10 5 10 10 0 6 -4 10 -10 10 -5 0
-10 -4 -10 -10z"/>
<path d="M3730 775 c0 -5 5 -17 10 -25 5 -8 10 -10 10 -5 0 6 -5 17 -10 25 -5
8 -10 11 -10 5z"/>
<path d="M4325 760 c-10 -11 -23 -20 -29 -20 -16 -1 -103 -90 -88 -90 7 0 15
7 18 15 4 8 10 15 15 15 14 0 93 59 102 76 14 24 2 26 -18 4z"/>
<path d="M4360 769 c0 -5 5 -7 10 -4 6 3 10 8 10 11 0 2 -4 4 -10 4 -5 0 -10
-5 -10 -11z"/>
<path d="M1132 754 c-12 -8 -32 -16 -45 -18 -20 -2 -27 -7 -27 -20 0 -3 15 1
33 8 17 7 37 12 43 9 6 -2 14 4 18 13 9 24 3 26 -22 8z"/>
<path d="M1245 740 c-3 -5 -1 -10 4 -10 6 0 11 5 11 10 0 6 -2 10 -4 10 -3 0
-8 -4 -11 -10z"/>
<path d="M3880 734 c0 -10 -7 -26 -17 -36 -14 -16 -14 -22 -3 -43 7 -14 18
-25 23 -25 6 0 2 9 -8 20 -15 16 -16 22 -5 35 7 9 19 14 27 11 15 -6 18 10 3
19 -6 4 -8 10 -5 15 3 5 1 11 -5 15 -5 3 -10 -2 -10 -11z"/>
<path d="M4038 733 c7 -3 16 -2 19 1 4 3 -2 6 -13 5 -11 0 -14 -3 -6 -6z"/>
<path d="M4522 715 c0 -16 2 -22 5 -12 2 9 2 23 0 30 -3 6 -5 -1 -5 -18z"/>
<path d="M1200 726 c0 -10 33 -66 37 -63 8 9 -9 56 -23 61 -8 3 -14 4 -14 2z"/>
<path d="M4071 726 c4 -4 17 -9 30 -11 94 -18 95 -21 14 -59 -29 -14 -57 -31
-60 -36 -3 -6 25 6 64 25 79 40 89 50 64 64 -22 11 -121 26 -112 17z"/>
<path d="M991 709 c-14 -5 -30 -8 -38 -5 -7 3 -15 0 -19 -6 -5 -8 6 -9 36 -4
45 7 89 26 60 25 -8 0 -26 -5 -39 -10z"/>
<path d="M1165 705 c-3 -8 -7 -21 -9 -28 -2 -6 2 -17 8 -23 8 -8 12 -1 12 28
1 39 -3 49 -11 23z"/>
<path d="M3452 693 c-35 -14 -61 -28 -58 -30 3 -3 31 5 63 18 66 26 68 27 62
33 -2 2 -32 -7 -67 -21z"/>
<path d="M4017 709 c7 -7 15 -10 18 -7 3 3 -2 9 -12 12 -14 6 -15 5 -6 -5z"/>
<path d="M4441 704 c0 -11 3 -14 6 -6 3 7 2 16 -1 19 -3 4 -6 -2 -5 -13z"/>
<path d="M1620 692 c0 -9 169 -95 268 -136 76 -32 175 -90 206 -121 13 -13 16
-14 16 -2 0 21 -40 54 -100 81 l-55 25 55 -6 c30 -2 67 -9 82 -13 15 -5 30 -5
32 -1 10 16 -11 26 -54 26 -120 1 -159 12 -305 83 -80 39 -145 68 -145 64z"/>
<path d="M2542 533 l-2 -173 23 4 c23 3 33 26 22 54 -5 14 -8 14 -15 2 -14
-22 -20 20 -23 160 -2 109 -3 102 -5 -47z"/>
<path d="M4058 693 c7 -3 16 -2 19 1 4 3 -2 6 -13 5 -11 0 -14 -3 -6 -6z"/>
<path d="M1090 680 c-13 -9 -13 -10 0 -10 8 0 22 5 30 10 13 9 13 10 0 10 -8
0 -22 -5 -30 -10z"/>
<path d="M3955 683 c11 -3 26 -10 33 -15 8 -7 12 -7 12 0 0 12 -25 22 -48 21
-13 -1 -12 -3 3 -6z"/>
<path d="M4110 679 c0 -5 5 -7 10 -4 6 3 10 8 10 11 0 2 -4 4 -10 4 -5 0 -10
-5 -10 -11z"/>
<path d="M1020 670 c-20 -6 -21 -8 -5 -8 11 0 29 3 40 8 25 11 -1 11 -35 0z"/>
<path d="M3916 651 c10 -10 21 -17 23 -15 6 6 -20 34 -32 34 -6 0 -2 -8 9 -19z"/>
<path d="M3465 645 l-30 -15 35 6 c19 4 44 10 55 15 18 7 18 8 -5 8 -14 0 -38
-6 -55 -14z"/>
<path d="M4024 648 c-3 -4 2 -8 10 -8 8 0 17 4 20 8 3 5 -2 9 -10 9 -8 0 -17
-4 -20 -9z"/>
<path d="M1205 640 c-3 -5 -1 -10 4 -10 6 0 11 5 11 10 0 6 -2 10 -4 10 -3 0
-8 -4 -11 -10z"/>
<path d="M1544 630 c3 -9 -26 -41 -75 -84 -44 -38 -78 -71 -75 -73 3 -3 22 11
43 30 21 20 50 44 64 56 38 30 89 78 89 85 0 3 -11 5 -25 4 -17 -2 -24 -7 -21
-18z"/>
<path d="M3560 636 c0 -9 4 -16 8 -16 4 0 28 -19 53 -42 77 -74 87 -75 19 -3
-72 78 -80 84 -80 61z"/>
<path d="M4298 643 c7 -3 16 -2 19 1 4 3 -2 6 -13 5 -11 0 -14 -3 -6 -6z"/>
<path d="M1000 630 c14 -4 36 -8 50 -9 20 -1 22 1 10 9 -8 5 -31 9 -50 9 -32
-1 -33 -2 -10 -9z"/>
<path d="M1483 633 c9 -2 23 -2 30 0 6 3 -1 5 -18 5 -16 0 -22 -2 -12 -5z"/>
<path d="M3310 609 c-93 -38 -177 -58 -257 -61 -45 -2 -63 -6 -63 -16 0 -29
255 25 364 77 80 39 51 39 -44 0z"/>
<path d="M3643 633 c9 -2 23 -2 30 0 6 3 -1 5 -18 5 -16 0 -22 -2 -12 -5z"/>
<path d="M3960 630 c0 -5 10 -10 23 -10 18 0 19 2 7 10 -19 13 -30 13 -30 0z"/>
<path d="M1438 623 c7 -3 16 -2 19 1 4 3 -2 6 -13 5 -11 0 -14 -3 -6 -6z"/>
<path d="M1670 626 c0 -2 24 -19 53 -38 56 -37 107 -55 107 -38 0 6 -13 13
-30 17 -16 3 -30 9 -30 14 0 5 -9 9 -21 9 -11 0 -17 5 -14 10 3 6 -3 10 -14
10 -11 0 -23 5 -26 10 -6 9 -25 14 -25 6z"/>
<path d="M1098 613 c7 -3 16 -2 19 1 4 3 -2 6 -13 5 -11 0 -14 -3 -6 -6z"/>
<path d="M3393 599 c-17 -11 -84 -33 -148 -50 -129 -32 -182 -57 -214 -100
-28 -37 -5 -40 30 -3 42 44 86 65 205 94 112 28 164 50 164 70 0 13 0 13 -37
-11z"/>
<path d="M3902 616 c2 -1 10 -7 19 -14 14 -10 18 -10 22 1 4 10 -2 15 -19 15
-14 0 -24 -1 -22 -2z"/>
<path d="M3825 580 c7 -11 45 -20 45 -10 0 4 -11 10 -25 12 -13 3 -22 2 -20
-2z"/>
<path d="M2582 560 c0 -14 2 -19 5 -12 2 6 2 18 0 25 -3 6 -5 1 -5 -13z"/>
<path d="M2843 554 c21 -9 41 -14 44 -10 9 9 2 13 -42 20 l-40 6 38 -16z"/>
<path d="M2170 550 c-13 -9 -12 -12 4 -25 29 -22 48 -19 44 7 -3 25 -25 33
-48 18z"/>
<path d="M2922 548 c-7 -7 -12 -18 -12 -25 0 -18 29 -16 37 3 8 21 -10 37 -25
22z"/>
<path d="M2329 527 c13 -15 40 -59 60 -99 20 -40 43 -74 51 -76 10 -2 11 -1 4
5 -14 10 -64 112 -64 130 0 7 -4 13 -10 13 -5 0 -10 5 -10 11 0 13 45 -14 45
-27 1 -5 9 -24 19 -42 9 -19 15 -36 13 -39 -3 -2 6 -21 19 -40 13 -19 21 -40
17 -46 -3 -5 -2 -7 4 -4 6 4 15 -5 21 -18 11 -24 10 -25 -24 -25 -41 0 -104
24 -104 40 0 6 -4 8 -10 5 -5 -3 -10 -1 -10 4 0 6 -3 10 -7 9 -5 -1 -24 12
-43 30 -19 18 -30 32 -25 32 6 0 3 5 -5 10 -8 5 -15 13 -15 17 0 4 -6 17 -12
28 -9 15 -15 17 -23 9 -9 -9 -3 -24 20 -62 34 -56 89 -104 142 -126 36 -15
168 -32 168 -22 0 4 -32 68 -71 142 -73 138 -78 144 -147 160 l-27 7 24 -26z"/>
<path d="M2737 528 c-19 -14 -34 -38 -66 -103 -11 -22 -38 -73 -60 -114 l-41
-73 58 6 c103 12 150 34 212 96 73 73 95 130 40 100 -12 -7 -19 -18 -16 -26 3
-8 1 -14 -4 -14 -6 0 -9 -6 -7 -12 1 -7 -7 -13 -18 -13 -14 0 -19 -6 -17 -19
3 -14 -1 -17 -14 -12 -10 4 -15 4 -11 0 22 -23 -94 -79 -149 -72 l-26 3 23 30
c13 16 17 25 9 20 -13 -8 -13 -7 -1 9 8 9 20 15 27 12 14 -6 24 4 53 57 24 43
27 61 6 33 -7 -10 -18 -15 -24 -11 -14 8 -14 42 -1 50 6 3 10 -1 10 -10 0 -9
5 -13 10 -10 6 3 10 13 10 21 0 8 -4 12 -10 9 -5 -3 -10 -1 -10 4 0 6 12 11
26 11 14 0 22 4 19 10 -4 6 1 7 11 3 12 -4 15 -2 12 8 -6 19 -30 22 -51 7z
m-23 -126 c-6 -4 -13 -15 -17 -24 -3 -10 -12 -18 -18 -18 -8 0 -8 4 1 15 6 8
9 18 7 22 -3 5 4 10 16 10 12 1 17 -1 11 -5z"/>
<path d="M3752 453 c15 -15 31 -23 35 -19 4 5 2 11 -5 13 -7 3 -19 11 -26 19
-8 8 -18 14 -23 14 -4 0 5 -12 19 -27z"/>
<path d="M1359 443 c-13 -16 -12 -17 4 -4 16 13 21 21 13 21 -2 0 -10 -8 -17
-17z"/>
<path d="M2830 445 c-11 -13 -10 -14 4 -9 9 3 16 10 16 15 0 13 -6 11 -20 -6z"/>
<path d="M2020 446 c0 -2 8 -10 18 -17 15 -13 16 -12 3 4 -13 16 -21 21 -21
13z"/>
<path d="M2280 442 c0 -5 7 -15 15 -22 8 -7 15 -8 15 -2 0 5 -7 15 -15 22 -8
7 -15 8 -15 2z"/>
<path d="M1320 410 c-8 -5 -12 -12 -9 -15 4 -3 12 1 19 10 14 17 11 19 -10 5z"/>
<path d="M3790 416 c0 -2 7 -7 16 -10 8 -3 12 -2 9 4 -6 10 -25 14 -25 6z"/>
<path d="M2790 394 c0 -6 -18 -23 -40 -40 -42 -31 -64 -62 -31 -45 10 6 22 7
26 3 5 -4 5 -1 0 7 -6 10 2 23 26 42 19 15 31 31 26 35 -4 4 -7 3 -7 -2z"/>
<path d="M2370 341 c0 -5 7 -11 15 -15 8 -3 15 -1 15 3 0 5 -7 11 -15 15 -8 3
-15 1 -15 -3z"/>
<path d="M2763 325 c0 -8 4 -12 9 -9 4 3 8 9 8 15 0 5 -4 9 -8 9 -5 0 -9 -7
-9 -15z"/>
<path d="M1130 240 l-45 -7 48 -1 c26 -1 47 3 47 8 0 6 -1 9 -2 8 -2 0 -23 -4
-48 -8z"/>
<path d="M3993 233 c15 -2 39 -2 55 0 15 2 2 4 -28 4 -30 0 -43 -2 -27 -4z"/>
</g>
</svg>
