<?xml version="1.0" standalone="no"?>
<!DOCTYPE svg PUBLIC "-//W3C//DTD SVG 20010904//EN"
 "http://www.w3.org/TR/2001/REC-SVG-20010904/DTD/svg10.dtd">
<svg version="1.0" xmlns="http://www.w3.org/2000/svg"
 width="512.000000pt" height="512.000000pt" viewBox="0 0 512.000000 512.000000"
 preserveAspectRatio="xMidYMid meet">
<metadata>
Created by potrace 1.16, written by Peter Selinger 2001-2019
</metadata>
<g transform="translate(0.000000,512.000000) scale(0.100000,-0.100000)"
fill="#000000" stroke="none">
<path d="M2114 3929 c3 -17 6 -54 6 -81 l0 -50 444 4 445 3 3 73 c2 41 1 76
-1 78 -2 2 -207 4 -454 4 l-449 0 6 -31z m877 7 c2 -2 2 -27 1 -55 l-4 -50
-396 -3 c-219 -2 -409 -1 -424 1 -24 3 -27 7 -30 53 -1 27 -1 52 1 54 6 5 846
5 852 0z"/>
<path d="M2058 3933 c7 -3 16 -2 19 1 4 3 -2 6 -13 5 -11 0 -14 -3 -6 -6z"/>
<path d="M3040 3931 c0 -6 11 -11 24 -11 42 0 109 -30 196 -87 47 -31 95 -65
108 -76 12 -11 22 -16 22 -10 0 14 -148 118 -217 153 -66 33 -133 48 -133 31z"/>
<path d="M1924 3882 c-66 -35 -174 -108 -174 -118 0 -7 38 15 45 26 3 6 13 10
20 10 8 0 40 17 72 39 32 21 74 48 93 59 57 35 20 24 -56 -16z"/>
<path d="M1598 3754 c-90 -75 -108 -119 -67 -165 22 -26 22 -23 4 37 -7 24 41
85 98 126 l30 21 36 -40 c54 -62 101 -124 101 -134 0 -5 -8 -13 -19 -17 -10
-4 -31 -22 -46 -39 -15 -18 -33 -33 -41 -33 -9 0 -12 -5 -9 -10 4 -6 1 -18 -6
-26 -6 -8 -10 -17 -7 -19 3 -3 -11 -22 -31 -43 -20 -21 -52 -57 -71 -81 -19
-24 -51 -61 -71 -82 -20 -21 -34 -40 -32 -43 2 -2 4 -273 4 -602 0 -443 3
-607 12 -631 10 -25 74 -104 167 -203 45 -48 47 -42 -48 -137 -49 -48 -92 -98
-96 -110 -10 -30 10 -63 64 -111 65 -56 82 -64 119 -51 37 13 41 28 6 21 -40
-7 -67 5 -117 52 -69 64 -66 79 32 177 70 72 100 89 100 58 0 -8 -47 -70 -110
-146 -10 -12 -16 -24 -12 -27 3 -3 13 4 21 17 9 13 42 53 75 90 l59 66 41 -49
c27 -32 44 -46 51 -39 6 6 -13 31 -57 72 -37 34 -88 89 -114 122 -26 33 -50
62 -53 65 -4 3 -32 35 -64 71 l-57 66 0 611 0 611 47 58 c160 197 216 262 252
297 l40 39 -21 31 c-63 90 -131 166 -147 166 -11 0 -39 -16 -63 -36z"/>
<path d="M2058 3767 c-15 -12 -50 -38 -78 -57 -28 -19 -60 -43 -71 -52 -10
-10 -23 -18 -27 -18 -5 0 -17 -9 -27 -20 -37 -41 4 -18 115 66 132 99 125 93
119 99 -3 2 -17 -6 -31 -18z"/>
<path d="M3107 3723 c48 -36 110 -84 136 -106 26 -22 50 -37 53 -34 7 7 -42
53 -86 80 -19 12 -46 32 -60 44 -14 13 -28 23 -31 23 -3 0 -22 13 -40 30 -19
16 -40 30 -47 30 -7 0 26 -30 75 -67z"/>
<path d="M3393 3698 c-38 -51 -73 -99 -77 -106 -5 -9 5 -26 31 -50 35 -34 218
-248 271 -316 l22 -29 0 -613 0 -613 -97 -113 c-110 -126 -182 -201 -232 -241
-20 -17 -30 -32 -25 -37 10 -9 84 53 84 70 0 20 16 8 92 -67 43 -43 78 -72 78
-66 0 7 -6 16 -12 20 -36 23 -117 123 -112 137 11 28 27 18 107 -62 94 -96 97
-111 29 -174 -57 -53 -88 -72 -97 -58 -3 5 -12 7 -21 3 -11 -4 -12 -9 -3 -19
23 -28 56 -15 124 49 60 55 67 66 67 100 0 39 -15 67 -37 67 -7 0 -43 32 -79
72 l-67 71 32 31 c17 17 54 57 83 90 28 33 62 71 76 84 l25 24 2 626 1 627 26
16 c34 21 47 35 19 20 -33 -17 -60 -13 -77 10 -15 23 -116 137 -154 176 -13
13 -25 36 -26 50 -2 15 -9 29 -16 31 -21 7 -50 36 -50 49 0 7 27 41 60 75 59
62 69 78 50 78 -5 0 -10 -4 -10 -9 0 -14 -116 -131 -129 -131 -22 0 -10 31 33
87 24 32 55 68 69 81 23 22 27 23 53 9 16 -9 47 -34 69 -56 37 -39 39 -42 27
-74 -17 -47 -14 -56 8 -28 33 38 26 75 -22 122 -47 45 -96 79 -115 79 -7 0
-43 -42 -80 -92z"/>
<path d="M1629 3698 c-6 -13 -23 -35 -37 -51 l-26 -27 28 -28 28 -27 -17 27
c-16 26 -16 29 6 60 13 18 30 38 38 44 10 8 11 13 3 18 -6 4 -16 -4 -23 -16z"/>
<path d="M3534 3630 c0 -11 6 -20 14 -20 7 0 12 8 10 17 -4 24 -24 27 -24 3z"/>
<path d="M1730 3600 c0 -5 5 -10 11 -10 5 0 7 5 4 10 -3 6 -8 10 -11 10 -2 0
-4 -4 -4 -10z"/>
<path d="M2146 3568 c3 -18 -1 -52 -9 -75 -8 -24 -11 -43 -7 -43 5 0 10 6 13
13 2 6 8 9 11 5 4 -3 -2 -16 -13 -27 -19 -19 -24 -20 -49 -8 -15 8 -49 20 -77
26 -124 30 -161 44 -140 52 16 6 14 8 -12 8 -18 1 -33 0 -33 -1 0 -2 19 -55
41 -118 22 -63 43 -123 46 -133 3 -10 -3 -27 -15 -40 -11 -12 -48 -60 -81
-107 l-61 -85 0 -432 c0 -238 -3 -433 -7 -433 -5 0 -6 197 -5 437 l4 438 79
108 c43 59 74 107 69 107 -5 0 -42 -46 -81 -102 -40 -57 -76 -104 -81 -106 -4
-2 -8 -209 -8 -460 l0 -457 92 0 c64 0 93 -4 96 -13 2 -6 8 -10 13 -6 12 7 11
-17 -1 -36 -9 -13 -10 -13 -10 0 -1 20 -59 -120 -59 -143 -1 -22 -58 -128 -77
-143 -8 -6 -14 -16 -14 -22 0 -10 78 -72 91 -72 18 0 88 68 161 157 44 54 89
104 100 111 19 14 42 7 32 -9 -3 -6 2 -36 12 -67 l18 -57 156 3 c229 4 249 8
48 10 -308 3 -193 17 161 20 211 2 342 -1 345 -7 4 -6 -5 -8 -21 -6 -16 2 -44
0 -63 -5 -28 -6 -19 -8 46 -9 68 -1 83 -4 89 -18 5 -14 11 -5 22 32 8 28 16
63 17 79 2 17 8 32 14 34 6 2 53 -50 106 -116 126 -157 160 -173 238 -109 l28
22 -66 130 c-36 72 -62 121 -59 110 4 -11 10 -29 13 -40 3 -11 21 -49 40 -85
41 -77 54 -110 44 -110 -10 0 -89 158 -112 226 -23 67 -23 67 -9 58 6 -3 3 8
-6 25 -9 18 -20 29 -25 26 -6 -4 -10 -2 -10 3 0 18 62 32 143 32 71 0 78 2 72
18 -3 9 -11 36 -18 60 -10 38 -27 58 -27 31 0 -8 -5 -8 -15 1 -19 15 -19 13 0
-39 8 -22 13 -41 12 -42 -1 0 -37 -4 -81 -8 -103 -11 -117 -35 -76 -126 11
-24 21 -53 23 -65 2 -12 8 -25 13 -28 11 -8 84 -163 84 -180 0 -17 -38 -34
-60 -27 -20 6 -120 112 -120 128 0 8 -25 37 -83 99 -27 29 -69 20 -85 -17 -20
-47 -27 -58 -35 -56 -4 0 -166 1 -360 1 l-354 0 -23 50 c-19 41 -28 50 -49 50
-38 0 -63 -21 -136 -114 -62 -80 -127 -146 -143 -146 -4 1 -18 10 -31 21 l-24
20 43 82 c24 45 49 87 55 92 6 6 22 44 34 86 19 60 21 80 12 97 -13 24 -67 42
-128 42 l-42 0 -1 423 c0 317 3 427 13 444 21 37 84 126 111 158 41 47 41 62
5 166 -18 54 -31 100 -28 103 3 3 48 -6 100 -21 167 -46 174 -45 194 32 l11
40 367 3 367 2 21 -44 c33 -71 36 -72 152 -47 56 12 110 25 120 27 23 7 22 -9
-8 -105 -19 -59 -23 -86 -16 -99 5 -10 46 -67 90 -127 l81 -108 0 -350 c0
-312 -2 -352 -17 -369 -15 -17 -15 -18 3 -18 10 0 29 3 42 6 l22 6 0 369 0
369 -86 112 c-103 135 -93 122 -99 117 -2 -3 16 -30 41 -62 25 -31 42 -57 37
-56 -4 0 -30 29 -56 65 -43 57 -46 66 -33 80 8 8 12 22 9 31 -5 12 -3 14 7 8
9 -5 11 -4 6 4 -8 13 21 140 36 156 6 6 7 -2 4 -20 l-6 -30 11 28 c17 42 5 60
-33 52 -83 -17 -215 -58 -229 -71 -22 -19 -43 -18 -35 3 4 9 -3 39 -15 67
l-21 51 -386 -3 c-382 -3 -387 -2 -404 18 -17 20 -17 20 -12 -12z m602 -25
c-103 -2 -274 -2 -380 0 -106 1 -22 2 187 2 209 0 296 -1 193 -2z m492 -52
c-17 -10 -183 -51 -188 -46 -5 5 153 53 178 54 19 0 21 -2 10 -8z m126 -424
c8 -10 19 -30 25 -43 11 -31 11 -727 -1 -699 -4 11 -9 173 -9 359 -1 339 -2
340 -25 370 -12 17 -28 42 -35 56 l-12 25 21 -25 c12 -14 28 -33 36 -43z
m-1463 -1065 c-9 -29 -20 -52 -25 -52 -4 0 1 23 12 50 11 28 20 54 20 57 0 3
2 4 5 2 2 -3 -3 -28 -12 -57z m1034 -148 c-3 -3 -12 -4 -19 -1 -8 3 -5 6 6 6
11 1 17 -2 13 -5z"/>
<path d="M3474 3538 l-29 -33 33 29 c30 28 37 36 29 36 -2 0 -16 -15 -33 -32z"/>
<path d="M1458 3478 c-41 -46 -100 -114 -131 -151 l-57 -68 0 -689 0 -690 27
-17 c15 -10 43 -36 63 -58 73 -83 184 -195 188 -190 5 5 -23 36 -187 210 l-66
70 -5 158 -5 157 48 0 47 0 0 324 0 325 -46 3 -46 3 1 188 c2 192 9 237 41
237 9 0 20 11 26 24 13 34 190 236 200 228 4 -4 4 -1 0 6 -4 6 -11 12 -16 12
-4 0 -41 -37 -82 -82z m-100 -940 l2 -298 -30 0 -31 0 5 123 c2 67 5 202 5
300 l1 178 23 -3 22 -3 3 -297z"/>
<path d="M3580 3556 c0 -3 43 -51 96 -108 113 -121 126 -142 98 -163 -17 -13
-16 -13 13 -3 18 7 34 10 36 8 3 -3 8 -101 12 -219 l7 -214 -51 5 -51 5 2
-325 3 -325 45 -1 44 -1 3 -152 2 -152 -27 -33 c-15 -18 -39 -46 -53 -63 -106
-120 -169 -198 -169 -208 0 -14 -4 -18 144 151 l117 133 0 694 0 695 -52 63
c-94 114 -219 236 -219 213z m240 -1016 l0 -300 -25 0 -25 0 -1 203 c-1 111
-3 237 -5 279 -3 99 2 118 32 118 l24 0 0 -300z"/>
<path d="M1938 3493 c7 -3 16 -2 19 1 4 3 -2 6 -13 5 -11 0 -14 -3 -6 -6z"/>
<path d="M1978 3483 c7 -3 16 -2 19 1 4 3 -2 6 -13 5 -11 0 -14 -3 -6 -6z"/>
<path d="M2018 3473 c7 -3 16 -2 19 1 4 3 -2 6 -13 5 -11 0 -14 -3 -6 -6z"/>
<path d="M2055 2981 c-135 -35 -219 -178 -180 -307 57 -193 288 -246 416 -95
129 149 34 390 -159 406 -26 2 -60 1 -77 -4z m153 -53 c94 -48 137 -174 93
-273 -29 -65 -46 -83 -106 -111 -92 -43 -180 -23 -248 56 -41 48 -51 86 -45
165 5 59 40 123 83 151 74 49 145 52 223 12z"/>
<path d="M2978 2976 c-178 -47 -236 -278 -103 -411 150 -151 385 -64 402 149
15 178 -131 305 -299 262z m184 -64 c130 -89 116 -302 -25 -373 -59 -31 -150
-24 -207 16 -110 76 -129 224 -42 326 48 56 83 70 162 66 54 -2 73 -8 112 -35z"/>
<path d="M2242 2330 c0 -14 2 -19 5 -12 2 6 2 18 0 25 -3 6 -5 1 -5 -13z"/>
<path d="M2423 2253 c82 -2 212 -2 290 0 78 1 12 3 -148 3 -159 0 -223 -2
-142 -3z"/>
<path d="M1873 1585 c-9 -7 45 -9 169 -8 101 1 407 2 680 3 444 2 499 0 513
-14 9 -9 19 -16 23 -16 4 0 -4 10 -16 22 l-22 22 -666 1 c-430 0 -672 -4 -681
-10z"/>
<path d="M2203 1523 c-61 -4 -63 -5 -63 -32 0 -28 -2 -29 -69 -35 -38 -4 -82
-4 -97 0 -16 4 -25 3 -21 -2 5 -5 227 -7 495 -5 585 3 600 2 666 -69 25 -27
51 -52 58 -56 14 -8 -89 106 -107 118 -5 4 -23 8 -40 8 -40 0 -53 10 -57 42
l-3 28 -350 3 c-192 3 -378 2 -412 0z m725 -23 c14 0 22 -5 20 -12 -3 -9 -98
-11 -384 -10 -208 1 -385 2 -391 2 -7 0 -13 4 -13 10 0 5 28 11 63 13 47 3
522 1 705 -3z"/>
<path d="M3489 1463 l-24 -26 27 19 c15 10 28 22 28 27 0 12 -5 8 -31 -20z"/>
<path d="M1610 1476 c0 -2 7 -7 16 -10 8 -3 12 -2 9 4 -6 10 -25 14 -25 6z"/>
<path d="M1660 1433 c0 -4 5 -15 10 -23 8 -13 10 -13 10 2 0 9 -4 20 -10 23
-5 3 -10 3 -10 -2z"/>
<path d="M2553 1362 c-414 -2 -433 -3 -433 -21 0 -10 -3 -38 -6 -63 l-6 -45
254 -7 c139 -3 343 -3 452 0 l198 7 -7 61 c-4 34 -10 63 -14 66 -3 3 -201 4
-438 2z m430 -65 c3 -23 4 -43 2 -45 -5 -5 -847 -4 -852 1 -2 3 -1 23 3 45 l6
41 62 3 c33 2 221 2 417 0 l356 -2 6 -43z"/>
<path d="M1750 1356 c0 -2 7 -7 16 -10 8 -3 12 -2 9 4 -6 10 -25 14 -25 6z"/>
<path d="M1850 1306 c33 -20 76 -20 84 0 5 14 4 15 -9 4 -14 -12 -37 -11 -80
4 -13 5 -12 2 5 -8z"/>
<path d="M3196 1295 c10 -8 24 -14 29 -14 6 0 1 6 -9 14 -11 8 -24 15 -30 15
-5 0 -1 -7 10 -15z"/>
</g>
</svg>
