<?xml version="1.0" standalone="no"?>
<!DOCTYPE svg PUBLIC "-//W3C//DTD SVG 20010904//EN"
 "http://www.w3.org/TR/2001/REC-SVG-20010904/DTD/svg10.dtd">
<svg version="1.0" xmlns="http://www.w3.org/2000/svg"
 width="512.000000pt" height="512.000000pt" viewBox="0 0 512.000000 512.000000"
 preserveAspectRatio="xMidYMid meet">
<metadata>
Created by potrace 1.16, written by Peter Selinger 2001-2019
</metadata>
<g transform="translate(0.000000,512.000000) scale(0.100000,-0.100000)"
fill="#000000" stroke="none">
<path d="M2358 4923 c12 -2 30 -2 40 0 9 3 -1 5 -23 4 -22 0 -30 -2 -17 -4z"/>
<path d="M2483 4923 c9 -2 25 -2 35 0 9 3 1 5 -18 5 -19 0 -27 -2 -17 -5z"/>
<path d="M2583 4923 c9 -2 23 -2 30 0 6 3 -1 5 -18 5 -16 0 -22 -2 -12 -5z"/>
<path d="M2798 4923 c12 -2 32 -2 45 0 12 2 2 4 -23 4 -25 0 -35 -2 -22 -4z"/>
<path d="M220 4149 c0 -502 3 -740 10 -737 7 2 10 242 10 731 l0 727 735 0
c483 0 735 3 735 10 0 7 -255 10 -745 10 l-745 0 0 -741z"/>
<path d="M1732 4150 l2 -740 823 0 823 0 0 740 0 740 -825 0 -825 0 2 -740z
m1628 502 c0 -120 -3 -222 -6 -225 -4 -3 -19 10 -34 31 -41 54 -73 87 -90 90
-8 2 -23 11 -33 20 -28 25 -158 30 -732 28 -494 -1 -500 -1 -544 -23 -24 -12
-49 -19 -54 -16 -6 3 -7 2 -4 -4 4 -5 -5 -16 -18 -23 -14 -7 -25 -17 -25 -22
0 -15 -27 -38 -35 -30 -5 4 -5 1 -1 -6 4 -6 1 -19 -7 -26 -12 -13 -15 -7 -21
46 -3 34 -6 132 -6 219 l0 159 805 0 805 0 0 -218z m-189 -98 c79 -36 180
-144 178 -191 0 -15 -2 -14 -9 5 -5 12 -11 22 -14 22 -2 0 5 -26 17 -57 20
-55 21 -77 21 -485 l1 -428 -808 0 -808 0 4 433 c4 468 4 471 63 576 21 39 22
42 4 21 -12 -14 -30 -43 -40 -65 l-19 -40 1 37 c1 21 5 35 9 32 4 -2 22 16 39
41 17 25 49 58 71 72 79 52 90 53 689 50 538 -2 556 -3 601 -23z"/>
<path d="M2050 4561 c-41 -3 181 -7 494 -9 313 -1 568 0 565 2 -7 7 -980 14
-1059 7z"/>
<path d="M1998 4523 c7 -3 16 -2 19 1 4 3 -2 6 -13 5 -11 0 -14 -3 -6 -6z"/>
<path d="M2288 4523 c145 -2 379 -2 520 0 141 1 23 2 -263 2 -286 0 -402 -1
-257 -2z"/>
<path d="M3280 4451 c0 -6 4 -13 10 -16 6 -3 7 1 4 9 -7 18 -14 21 -14 7z"/>
<path d="M3400 4880 c0 -7 253 -10 740 -10 l740 0 0 -730 c0 -480 3 -730 10
-730 7 0 10 253 10 740 l0 740 -750 0 c-493 0 -750 -3 -750 -10z"/>
<path d="M4248 4653 c7 -3 16 -2 19 1 4 3 -2 6 -13 5 -11 0 -14 -3 -6 -6z"/>
<path d="M510 4592 c-21 -22 -30 -42 -35 -83 -9 -75 -1 -770 9 -792 21 -45 40
-47 490 -47 296 0 433 3 450 11 14 7 30 25 36 42 6 19 10 172 10 414 0 412 -2
432 -51 467 -21 14 -72 16 -452 16 l-429 0 -28 -28z m911 -18 l24 -26 0 -413
c0 -326 -3 -417 -13 -427 -10 -10 -108 -14 -453 -16 l-439 -3 -25 27 -25 26 0
382 c0 219 5 397 10 417 6 21 20 41 33 47 14 7 163 11 443 11 l421 1 24 -26z"/>
<path d="M3401 4604 c0 -11 3 -14 6 -6 3 7 2 16 -1 19 -3 4 -6 -2 -5 -13z"/>
<path d="M3693 4610 c-13 -5 -32 -24 -43 -42 -19 -32 -20 -50 -20 -436 l0
-404 29 -29 29 -29 436 0 435 0 28 24 28 24 3 416 3 415 -30 33 -29 33 -424 2
c-239 1 -433 -2 -445 -7z m851 -16 c9 -3 13 -10 10 -15 -3 -5 1 -7 8 -4 33 13
38 -42 38 -431 0 -400 -4 -437 -43 -448 -12 -3 -209 -6 -438 -6 -403 0 -417 1
-442 20 l-26 21 -1 398 c0 418 2 439 44 459 23 11 822 17 850 6z"/>
<path d="M3401 4564 c0 -11 3 -14 6 -6 3 7 2 16 -1 19 -3 4 -6 -2 -5 -13z"/>
<path d="M4651 4024 c0 -11 3 -14 6 -6 3 7 2 16 -1 19 -3 4 -6 -2 -5 -13z"/>
<path d="M411 3984 c0 -11 3 -14 6 -6 3 7 2 16 -1 19 -3 4 -6 -2 -5 -13z"/>
<path d="M220 2555 l0 -840 260 0 c143 0 260 1 260 3 0 2 -13 8 -30 13 -36 13
-116 142 -125 203 -4 23 -5 313 -3 646 l3 605 32 67 c17 36 48 83 70 105 l38
38 -252 0 -253 0 0 -840z m433 782 c-16 -17 -43 -59 -58 -92 l-29 -60 -7 -560
c-7 -585 -3 -699 25 -752 9 -18 16 -36 15 -39 0 -4 3 -10 8 -13 17 -11 55 -72
50 -78 -9 -8 -35 22 -47 52 -5 14 -14 23 -20 20 -10 -6 14 -52 35 -67 5 -4
-79 -8 -187 -8 l-198 0 0 815 0 815 190 0 c108 0 190 -4 190 -9 0 -5 -5 -11
-11 -13 -5 -2 -12 -12 -13 -23 -2 -11 -9 -19 -14 -18 -6 2 -9 -4 -6 -12 4 -8
0 -17 -8 -20 -8 -3 -15 -11 -16 -18 0 -7 -4 -22 -7 -35 -6 -18 -4 -21 9 -16
10 4 15 13 12 21 -3 7 1 16 9 19 8 4 15 12 15 19 0 23 31 74 57 95 38 29 42
15 6 -23z"/>
<path d="M531 3114 c0 -11 3 -14 6 -6 3 7 2 16 -1 19 -3 4 -6 -2 -5 -13z"/>
<path d="M514 2500 c0 -113 2 -159 3 -102 2 56 2 148 0 205 -1 56 -3 10 -3
-103z"/>
<path d="M542 2565 c0 -16 2 -22 5 -12 2 9 2 23 0 30 -3 6 -5 -1 -5 -18z"/>
<path d="M542 2415 c0 -16 2 -22 5 -12 2 9 2 23 0 30 -3 6 -5 -1 -5 -18z"/>
<path d="M532 1930 c0 -14 2 -19 5 -12 2 6 2 18 0 25 -3 6 -5 1 -5 -13z"/>
<path d="M545 1873 c4 -10 10 -26 12 -35 6 -19 18 -23 27 -9 3 5 -1 14 -9 21
-8 7 -15 19 -15 26 0 8 -5 14 -11 14 -7 0 -8 -7 -4 -17z"/>
<path d="M4390 3391 c0 -6 6 -11 14 -11 21 0 97 -117 117 -182 18 -56 19 -103
19 -664 0 -669 4 -624 -68 -737 -21 -33 -47 -60 -59 -63 -57 -15 -5 -19 232
-19 l255 0 0 838 0 837 -239 0 c-132 0 -246 3 -255 6 -9 3 -16 1 -16 -5z m74
-33 c23 -24 57 -78 49 -77 -9 0 -76 89 -67 89 3 0 11 -6 18 -12z m416 -803 l0
-815 -190 0 c-104 0 -190 2 -190 4 0 2 18 36 40 74 23 40 38 76 34 85 -4 11
-16 -5 -40 -51 -38 -75 -70 -120 -78 -111 -4 3 5 19 19 35 14 16 39 57 55 90
l30 62 0 608 c0 593 -2 639 -31 696 -13 27 -10 35 5 15 10 -12 16 -15 21 -7 4
6 -9 36 -29 65 -20 30 -36 57 -36 60 0 3 88 5 195 5 l195 0 0 -815z"/>
<path d="M4560 3206 c0 -15 4 -25 10 -21 5 3 11 -21 13 -57 4 -60 4 -59 3 9
-1 43 -6 77 -14 85 -9 9 -12 6 -12 -16z"/>
<path d="M4580 3039 c0 -5 5 -7 10 -4 6 3 10 8 10 11 0 2 -4 4 -10 4 -5 0 -10
-5 -10 -11z"/>
<path d="M4596 2973 c-6 -14 -5 -15 5 -6 7 7 10 15 7 18 -3 3 -9 -2 -12 -12z"/>
<path d="M4597 2943 c-4 -3 -7 -11 -7 -17 0 -6 5 -5 12 2 6 6 9 14 7 17 -3 3
-9 2 -12 -2z"/>
<path d="M4573 2845 c0 -22 2 -30 4 -17 2 12 2 30 0 40 -3 9 -5 -1 -4 -23z"/>
<path d="M4584 2510 c0 -157 2 -221 3 -142 2 78 2 206 0 285 -1 78 -3 14 -3
-143z"/>
<path d="M4581 2193 c0 -6 -4 -20 -7 -30 -5 -14 -4 -15 5 -7 7 7 11 20 8 30
-3 11 -5 14 -6 7z"/>
<path d="M4582 2048 c-1 -20 -5 -45 -8 -55 -5 -14 -4 -15 5 -7 7 7 11 29 8 55
-3 42 -4 42 -5 7z"/>
<path d="M4572 1950 c0 -14 2 -19 5 -12 2 6 2 18 0 25 -3 6 -5 1 -5 -13z"/>
<path d="M1730 2555 l0 -835 825 0 825 0 0 835 0 835 -825 0 -825 0 0 -835z
m1630 2 l0 -804 -277 -6 c-153 -4 -513 -7 -800 -7 l-523 0 -1 63 c-4 167 -4
300 -1 905 l2 652 800 0 800 0 0 -803z"/>
<path d="M2450 3083 c-46 -49 -124 -131 -174 -183 -49 -52 -138 -145 -198
-207 -130 -134 -133 -144 -60 -219 51 -52 397 -417 472 -496 51 -54 88 -63
118 -26 9 11 45 51 78 87 34 36 83 90 109 118 26 29 52 50 58 46 5 -3 8 -2 4
3 -8 14 20 47 34 38 8 -4 10 -3 5 5 -5 7 25 45 76 97 124 129 142 144 156 139
7 -3 10 -1 7 4 -3 5 -1 12 5 16 19 11 10 60 -16 90 -14 17 -114 122 -222 235
-109 113 -226 235 -261 273 -41 43 -72 67 -86 67 -14 0 -50 -30 -105 -87z
m410 -253 c134 -140 250 -261 259 -268 13 -11 -2 -30 -120 -150 -74 -75 -169
-174 -212 -220 -42 -45 -111 -118 -153 -162 l-76 -79 -132 137 c-190 197 -431
453 -434 461 -1 4 75 88 170 187 95 99 222 233 282 298 l110 117 32 -33 c17
-18 141 -148 274 -288z"/>
<path d="M2560 2847 l0 -257 -247 -1 c-137 0 -257 -4 -268 -9 -12 -5 89 -9
248 -9 l267 -1 0 -292 c1 -208 4 -288 11 -275 7 11 9 115 7 293 l-3 275 248
-3 c136 -2 247 0 247 3 0 14 -65 18 -275 16 l-220 -2 -1 253 c-1 139 -4 256
-8 259 -3 4 -6 -109 -6 -250z"/>
<path d="M2966 2472 c-2 -4 -1 -14 4 -22 7 -11 9 -9 7 8 -1 24 -3 26 -11 14z"/>
<path d="M2520 2035 c7 -9 15 -13 17 -11 7 7 -7 26 -19 26 -6 0 -6 -6 2 -15z"/>
<path d="M1680 3371 c0 -5 7 -11 15 -15 8 -3 15 -1 15 3 0 5 -7 11 -15 15 -8
3 -15 1 -15 -3z"/>
<path d="M3415 2630 c0 -415 1 -585 2 -378 2 208 2 548 0 755 -1 208 -2 38 -2
-377z"/>
<path d="M4925 2545 c0 -456 1 -645 2 -418 2 226 2 600 0 830 -1 230 -2 45 -2
-412z"/>
<path d="M1690 3008 c0 -182 2 -329 4 -327 9 9 14 659 5 659 -5 0 -9 -131 -9
-332z"/>
<path d="M195 2700 c0 -333 1 -469 2 -303 2 167 2 439 0 605 -1 167 -2 31 -2
-302z"/>
<path d="M1702 2520 c0 -19 2 -27 5 -17 2 9 2 25 0 35 -3 9 -5 1 -5 -18z"/>
<path d="M1696 1968 l3 -238 -472 -3 -472 -2 478 -3 477 -2 -1 103 c-1 56 -5
165 -9 242 -7 117 -8 100 -4 -97z"/>
<path d="M194 2000 c0 -52 1 -74 3 -47 2 26 2 68 0 95 -2 26 -3 4 -3 -48z"/>
<path d="M193 1820 c0 -47 2 -66 4 -42 2 23 2 61 0 85 -2 23 -4 4 -4 -43z"/>
<path d="M3412 1798 l-2 -78 488 2 487 3 -482 2 -482 3 -4 73 -3 72 -2 -77z"/>
<path d="M220 968 l0 -733 745 -1 745 -2 -2 47 c-1 43 -2 44 -5 9 l-4 -38
-730 0 -729 0 0 725 c0 477 -3 725 -10 725 -7 0 -10 -251 -10 -732z"/>
<path d="M1732 965 l1 -735 823 0 824 0 -2 733 -3 732 -822 3 -822 2 1 -735z
m1628 305 c0 -243 -4 -429 -10 -449 -6 -22 -6 -37 0 -41 10 -6 -22 -84 -39
-94 -16 -10 -14 -1 9 36 11 18 20 38 20 43 0 6 -12 -10 -26 -35 -15 -25 -41
-61 -58 -80 -17 -19 -21 -26 -8 -16 12 11 25 17 28 14 9 -9 -69 -64 -116 -82
-41 -15 -99 -17 -620 -14 l-575 3 -48 25 c-30 15 -46 29 -42 38 2 7 0 10 -5 7
-6 -3 -10 0 -10 8 0 8 -8 21 -17 28 -9 8 -33 48 -52 89 l-36 75 -5 428 c-3
236 -4 429 -3 430 1 1 364 2 808 2 l806 0 -1 -415z m-1540 -609 c0 -10 -19 16
-39 52 -12 21 -21 45 -21 54 0 13 59 -92 60 -106z m-3 -36 c93 -94 59 -90 743
-90 l595 0 44 24 c50 26 126 99 136 130 17 53 24 -6 25 -208 l1 -218 -68 -6
c-37 -4 -397 -7 -800 -7 l-731 0 -8 67 c-5 53 -4 168 6 398 0 6 9 -8 19 -30
10 -22 27 -49 38 -60z m1475 33 c-7 -7 -12 -8 -12 -2 0 14 12 26 19 19 2 -3
-1 -11 -7 -17z m-1452 -8 c0 -5 -5 -10 -11 -10 -5 0 -7 5 -4 10 3 6 8 10 11
10 2 0 4 -4 4 -10z"/>
<path d="M2265 580 c-154 -4 -49 -6 315 -7 300 -1 553 1 562 5 20 8 -549 9
-877 2z"/>
<path d="M4880 975 l0 -725 -740 0 c-459 0 -740 -4 -740 -9 0 -6 285 -10 750
-10 l750 0 0 735 c0 483 -3 734 -10 734 -7 0 -10 -248 -10 -725z"/>
<path d="M768 1483 c7 -3 16 -2 19 1 4 3 -2 6 -13 5 -11 0 -14 -3 -6 -6z"/>
<path d="M913 1483 c59 -2 155 -2 215 0 59 1 10 3 -108 3 -118 0 -167 -2 -107
-3z"/>
<path d="M4002 1483 c70 -2 187 -2 260 0 73 1 16 3 -127 3 -143 0 -203 -2
-133 -3z"/>
<path d="M4408 1483 c7 -3 16 -2 19 1 4 3 -2 6 -13 5 -11 0 -14 -3 -6 -6z"/>
<path d="M541 1451 c-13 -3 -34 -19 -45 -34 -20 -27 -21 -42 -24 -380 -4 -412
0 -470 33 -503 l24 -24 439 0 c495 0 474 -3 492 75 5 22 10 215 10 428 l0 389
-29 29 -29 29 -424 -1 c-233 -1 -434 -4 -447 -8z m889 -38 c21 -27 21 -32 18
-435 l-3 -407 -23 -23 -23 -23 -402 -2 c-249 -1 -417 2 -440 8 -64 17 -65 23
-67 460 l-1 386 30 32 29 31 430 0 431 0 21 -27z"/>
<path d="M3681 1446 c-50 -28 -50 -33 -51 -459 0 -424 2 -441 49 -467 13 -6
175 -10 455 -10 474 0 454 -2 477 57 14 37 12 806 -2 837 -25 54 -41 56 -491
56 -324 -1 -418 -4 -437 -14z m886 -28 l33 -23 0 -403 c0 -342 -2 -407 -15
-432 l-16 -30 -439 0 -439 0 -19 25 c-20 25 -20 42 -22 419 -1 413 1 434 44
454 13 7 170 11 430 11 409 1 410 1 443 -21z"/>
<path d="M843 473 c9 -2 23 -2 30 0 6 3 -1 5 -18 5 -16 0 -22 -2 -12 -5z"/>
<path d="M1008 473 c12 -2 30 -2 40 0 9 3 -1 5 -23 4 -22 0 -30 -2 -17 -4z"/>
<path d="M1118 473 c12 -2 30 -2 40 0 9 3 -1 5 -23 4 -22 0 -30 -2 -17 -4z"/>
<path d="M2158 203 c215 -2 569 -2 785 0 215 1 39 2 -393 2 -432 0 -608 -1
-392 -2z"/>
<path d="M3358 203 c7 -3 16 -2 19 1 4 3 -2 6 -13 5 -11 0 -14 -3 -6 -6z"/>
</g>
</svg>
