<?xml version="1.0" standalone="no"?>
<!DOCTYPE svg PUBLIC "-//W3C//DTD SVG 20010904//EN"
 "http://www.w3.org/TR/2001/REC-SVG-20010904/DTD/svg10.dtd">
<svg version="1.0" xmlns="http://www.w3.org/2000/svg"
 width="512.000000pt" height="512.000000pt" viewBox="0 0 512.000000 512.000000"
 preserveAspectRatio="xMidYMid meet">
<metadata>
Created by potrace 1.16, written by Peter Selinger 2001-2019
</metadata>
<g transform="translate(0.000000,512.000000) scale(0.100000,-0.100000)"
fill="#000000" stroke="none">
<path d="M2375 4630 c-484 -43 -978 -288 -1309 -649 -97 -105 -115 -127 -138
-162 -9 -14 -23 -32 -30 -40 -40 -41 -191 -299 -224 -384 -7 -16 -25 -61 -42
-100 -28 -68 -81 -262 -101 -375 -5 -31 -15 -119 -22 -197 -14 -155 -2 -391
27 -547 14 -74 74 -285 93 -331 76 -178 124 -271 224 -429 34 -55 171 -218
248 -295 145 -146 360 -306 529 -394 136 -70 370 -149 550 -184 157 -31 448
-42 609 -23 311 35 618 146 862 310 49 33 89 58 89 55 0 -2 10 6 23 18 28 26
55 48 116 94 64 48 196 178 233 229 17 24 36 41 42 37 6 -3 8 -3 4 2 -7 7 25
53 72 103 11 12 18 22 15 22 -3 0 12 24 34 52 21 29 54 80 72 113 18 33 37 61
41 63 4 2 8 8 8 13 0 6 15 42 34 82 78 168 118 297 163 522 21 110 25 505 5
625 -31 190 -94 405 -157 538 -46 98 -143 274 -155 282 -4 3 -13 16 -20 29
-49 93 -312 383 -410 451 -19 13 -37 27 -40 30 -31 33 -218 157 -310 204 -41
22 -79 42 -85 46 -20 14 -271 108 -345 129 -189 52 -500 80 -705 61z m423 -31
c133 -15 335 -68 489 -129 400 -158 776 -473 1003 -839 295 -476 382 -1037
244 -1575 -28 -112 -66 -210 -129 -341 -187 -387 -491 -708 -882 -932 -267
-153 -567 -238 -888 -250 -639 -24 -1259 266 -1668 780 -319 401 -463 853
-436 1372 14 274 76 513 198 760 117 237 230 393 422 581 318 310 699 503
1122 568 112 17 392 20 525 5z"/>
<path d="M2553 4555 c0 -22 2 -30 4 -17 2 12 2 30 0 40 -3 9 -5 -1 -4 -23z"/>
<path d="M2553 4435 c0 -27 2 -38 4 -22 2 15 2 37 0 50 -2 12 -4 0 -4 -28z"/>
<path d="M2551 4074 c0 -11 3 -14 6 -6 3 7 2 16 -1 19 -3 4 -6 -2 -5 -13z"/>
<path d="M2365 3984 c-231 -36 -457 -135 -636 -278 -401 -321 -598 -763 -559
-1249 34 -415 226 -763 556 -1009 162 -120 322 -195 524 -246 95 -24 123 -26
300 -27 266 0 393 28 617 136 195 95 378 243 500 405 158 208 239 391 279 628
24 144 15 391 -20 538 -74 314 -263 615 -511 815 -294 235 -688 343 -1050 287z
m435 -28 c117 -23 244 -63 319 -100 89 -44 161 -86 185 -108 10 -9 23 -15 28
-12 4 3 11 -2 14 -10 3 -9 10 -16 15 -16 4 0 22 -12 39 -27 17 -16 55 -48 84
-73 30 -25 55 -48 55 -52 1 -4 13 -20 29 -35 110 -111 247 -349 311 -543 90
-268 80 -657 -23 -893 -7 -18 -22 -52 -32 -77 -25 -62 -102 -191 -126 -212
-11 -10 -17 -18 -14 -18 11 0 -77 -110 -140 -176 -52 -53 -214 -184 -228 -184
-3 0 -31 -16 -62 -36 -47 -30 -130 -72 -229 -115 -31 -13 -192 -55 -264 -69
-69 -13 -292 -16 -357 -5 -187 32 -306 66 -422 122 -75 36 -196 107 -218 128
-6 5 -36 28 -67 50 -31 22 -61 50 -68 62 -6 12 -15 21 -19 20 -9 -3 -70 62
-70 74 0 5 -7 9 -15 9 -8 0 -15 4 -15 8 0 8 -25 43 -50 71 -67 73 -147 225
-204 391 -79 226 -94 543 -35 758 46 168 50 182 58 182 4 0 7 8 8 19 2 23 44
115 55 119 4 2 8 9 8 16 0 24 84 148 168 246 208 243 434 393 692 460 75 19
103 25 195 40 69 12 304 3 395 -14z"/>
<path d="M2138 3873 c7 -3 16 -2 19 1 4 3 -2 6 -13 5 -11 0 -14 -3 -6 -6z"/>
<path d="M2738 3863 c7 -3 16 -2 19 1 4 3 -2 6 -13 5 -11 0 -14 -3 -6 -6z"/>
<path d="M2395 3476 c-360 -72 -648 -349 -720 -695 -54 -262 -5 -512 140 -716
50 -70 169 -187 238 -234 84 -57 214 -112 316 -133 78 -16 122 -19 236 -15
125 3 150 7 239 37 229 77 418 238 531 452 148 280 127 641 -53 905 -128 187
-327 330 -537 384 -104 27 -294 34 -390 15z m376 -36 c156 -40 272 -105 395
-222 134 -127 217 -266 260 -436 23 -86 25 -112 21 -227 -5 -152 -23 -227 -80
-344 -114 -234 -334 -418 -582 -486 -152 -41 -385 -27 -543 35 -248 96 -458
323 -533 575 -26 89 -37 301 -20 401 47 269 220 502 471 633 188 98 406 123
611 71z"/>
<path d="M2753 2761 c-44 -21 -73 -62 -73 -106 0 -29 11 -35 64 -38 34 -2 36
-4 36 -39 l0 -37 -52 -3 c-49 -3 -53 -5 -56 -30 -5 -39 33 -105 71 -125 20
-11 55 -17 97 -17 98 0 155 37 167 108 6 37 -12 96 -29 96 -5 0 -2 10 6 22 20
28 20 90 1 127 -29 57 -150 79 -232 42z m177 -26 c58 -30 60 -135 2 -143 -30
-4 -28 -18 4 -26 29 -8 53 -55 46 -91 -2 -13 -17 -36 -33 -51 -26 -24 -39 -29
-99 -32 -83 -5 -109 8 -140 68 -29 57 -27 61 30 58 40 -2 50 -7 50 -21 0 -9
11 -23 25 -29 35 -16 75 3 75 36 0 26 -16 36 -61 36 -27 0 -29 3 -29 39 0 40
0 40 42 43 33 2 44 8 46 22 8 38 -68 51 -90 16 -10 -15 -24 -20 -55 -20 -24 0
-43 2 -43 5 0 3 6 21 14 40 29 68 134 92 216 50z m-75 -85 c3 -6 -4 -10 -17
-10 -18 0 -20 2 -8 10 19 12 18 12 25 0z m-11 -136 c22 -9 20 -24 -3 -24 -21
0 -34 13 -24 24 8 7 8 7 27 0z"/>
<path d="M2110 2611 c-21 -6 -25 -13 -28 -53 -5 -77 -1 -78 221 -78 106 0 202
3 215 6 20 6 22 13 22 64 0 56 -1 58 -31 64 -42 8 -367 6 -399 -3z m410 -61
l0 -40 -200 0 c-110 0 -203 -1 -206 -2 -3 -2 -7 16 -8 40 l-2 42 208 0 208 0
0 -40z"/>
<path d="M1471 3214 c0 -11 3 -14 6 -6 3 7 2 16 -1 19 -3 4 -6 -2 -5 -13z"/>
<path d="M1530 1880 c0 -5 5 -10 11 -10 5 0 7 5 4 10 -3 6 -8 10 -11 10 -2 0
-4 -4 -4 -10z"/>
<path d="M1840 1576 c0 -2 7 -7 16 -10 8 -3 12 -2 9 4 -6 10 -25 14 -25 6z"/>
<path d="M748 2563 c7 -3 16 -2 19 1 4 3 -2 6 -13 5 -11 0 -14 -3 -6 -6z"/>
<path d="M3998 2563 c7 -3 16 -2 19 1 4 3 -2 6 -13 5 -11 0 -14 -3 -6 -6z"/>
<path d="M4098 2563 c6 -2 18 -2 25 0 6 3 1 5 -13 5 -14 0 -19 -2 -12 -5z"/>
</g>
</svg>
