<?xml version="1.0" standalone="no"?>
<!DOCTYPE svg PUBLIC "-//W3C//DTD SVG 20010904//EN"
 "http://www.w3.org/TR/2001/REC-SVG-20010904/DTD/svg10.dtd">
<svg version="1.0" xmlns="http://www.w3.org/2000/svg"
 width="512.000000pt" height="512.000000pt" viewBox="0 0 512.000000 512.000000"
 preserveAspectRatio="xMidYMid meet">
<metadata>
Created by potrace 1.16, written by Peter Selinger 2001-2019
</metadata>
<g transform="translate(0.000000,512.000000) scale(0.100000,-0.100000)"
fill="#000000" stroke="none">
<path d="M2400 4180 c-146 -31 -194 -45 -275 -77 -176 -70 -307 -156 -438
-289 -184 -187 -298 -393 -371 -675 -29 -115 -56 -330 -59 -476 -8 -417 149
-762 448 -987 128 -96 151 -106 122 -49 -9 16 -42 110 -75 208 -33 99 -89 266
-125 370 -120 346 -142 473 -134 761 5 191 25 323 63 418 19 50 34 126 24 126
-10 0 -64 -136 -84 -210 -58 -213 -52 -583 13 -830 25 -93 55 -185 166 -505
48 -137 91 -262 95 -278 l9 -27 -44 30 c-73 50 -200 184 -258 272 -178 270
-228 617 -152 1055 20 113 23 126 57 228 147 446 472 762 903 877 93 25 390
36 502 19 229 -35 456 -153 629 -325 283 -285 423 -683 426 -1216 1 -199 -9
-279 -48 -397 -42 -126 -134 -272 -242 -385 -66 -69 -182 -165 -182 -151 0 12
118 368 198 598 102 295 117 379 117 650 -1 210 -2 225 -29 325 -29 109 -84
242 -105 255 -17 10 -26 -2 -14 -17 15 -19 42 -91 74 -198 21 -70 32 -134 41
-243 20 -255 -9 -455 -105 -732 -19 -55 -58 -165 -85 -245 -28 -80 -69 -206
-92 -280 -23 -74 -45 -143 -51 -152 -12 -23 -12 -38 1 -38 19 0 170 121 249
200 145 145 248 330 283 505 44 227 21 648 -48 884 -86 298 -184 475 -362 654
-154 155 -351 269 -559 323 -82 22 -126 26 -268 29 -93 2 -190 0 -215 -5z"/>
<path d="M2340 3830 c-111 -24 -188 -52 -269 -97 -189 -105 -348 -270 -432
-446 -16 -34 -27 -53 -25 -42 3 11 8 45 11 75 4 30 11 71 17 90 5 20 8 47 6
60 -4 23 -6 22 -23 -15 -21 -48 -44 -210 -45 -317 0 -77 14 -104 26 -50 37
170 124 321 256 448 136 130 272 209 446 256 65 18 105 21 257 22 165 0 189
-2 280 -27 178 -48 329 -138 471 -281 78 -79 97 -106 142 -196 28 -58 58 -132
67 -165 23 -84 25 -89 32 -82 21 22 -16 315 -51 399 -23 53 -25 7 -5 -88 18
-89 24 -135 12 -104 -41 107 -91 178 -200 285 -149 145 -351 248 -553 281
-120 20 -315 17 -420 -6z"/>
<path d="M2475 3653 c-204 -19 -400 -110 -538 -250 -79 -80 -120 -141 -156
-231 -114 -282 -86 -646 74 -987 92 -197 230 -328 453 -432 216 -100 323 -97
545 13 252 124 399 287 490 539 104 291 115 590 32 840 -52 156 -170 300 -313
385 -160 94 -386 142 -587 123z m365 -68 c176 -48 331 -152 422 -283 103 -149
161 -444 129 -663 -30 -200 -102 -412 -181 -535 -131 -200 -452 -394 -653
-394 -119 0 -379 128 -502 248 -146 142 -244 354 -291 632 -23 139 -15 373 15
478 74 253 276 447 544 521 104 29 117 30 277 26 116 -3 164 -9 240 -30z"/>
<path d="M1939 3030 c-32 -16 -71 -46 -88 -67 -32 -39 -61 -116 -61 -162 0
-78 111 -213 233 -286 74 -44 117 -54 150 -32 75 49 215 205 242 270 36 86 7
192 -66 243 -55 38 -165 64 -269 63 -74 0 -92 -4 -141 -29z m316 -25 c44 -11
71 -26 100 -55 36 -36 39 -45 43 -102 4 -60 2 -66 -34 -120 -67 -98 -200 -228
-233 -228 -33 0 -142 70 -208 133 -104 99 -124 173 -76 274 17 37 81 89 136
110 42 17 193 10 272 -12z"/>
<path d="M2091 2819 c-6 -11 -23 -25 -36 -31 -32 -14 -32 -21 8 -73 17 -23 37
-51 43 -61 11 -18 13 -17 22 7 6 15 24 42 41 61 l30 34 -48 41 c-45 39 -48 40
-60 22z m48 -53 c10 -12 9 -20 -5 -42 l-18 -26 -23 27 c-19 21 -21 30 -12 41
15 18 43 18 58 0z"/>
<path d="M2900 3035 c-36 -8 -93 -28 -127 -45 -50 -25 -64 -37 -73 -64 -12
-38 2 -86 34 -119 18 -18 75 -23 92 -8 25 23 145 43 231 39 74 -3 100 -9 155
-36 37 -18 80 -32 97 -32 37 0 61 31 61 81 0 51 -61 119 -147 161 -59 29 -77
33 -162 35 -57 1 -122 -3 -161 -12z m306 -48 c100 -51 153 -113 135 -160 -6
-14 -15 -28 -21 -32 -6 -4 -49 12 -95 36 -82 41 -86 42 -182 42 -80 -1 -112
-6 -173 -27 -41 -15 -82 -29 -91 -32 -19 -7 -59 51 -59 84 0 93 351 157 486
89z"/>
<path d="M2921 2798 c-18 -5 -39 -15 -46 -21 -54 -54 -44 -173 17 -205 49 -25
110 -19 148 16 65 57 46 175 -31 206 -44 18 -42 18 -88 4z m107 -54 c47 -54
17 -147 -52 -160 -62 -11 -105 27 -106 93 0 57 8 73 44 89 41 18 86 10 114
-22z"/>
<path d="M2535 2413 c-63 -15 -71 -69 -20 -120 30 -30 40 -35 68 -29 39 7 87
57 87 91 0 15 -9 30 -22 39 -27 16 -84 26 -113 19z m104 -49 c12 -11 9 -17
-17 -43 -37 -38 -58 -39 -94 -4 -32 31 -34 36 -13 57 19 18 101 12 124 -10z"/>
<path d="M2430 2139 c-44 -18 -70 -50 -70 -86 0 -27 7 -37 42 -60 40 -27 47
-28 167 -28 139 0 180 13 211 68 13 24 13 28 -6 54 -37 51 -76 63 -204 62 -63
0 -126 -5 -140 -10z m278 -33 c15 -8 35 -23 45 -34 18 -19 18 -21 -3 -40 -34
-31 -100 -45 -197 -40 -151 7 -221 62 -136 107 31 17 58 20 151 21 78 0 121
-4 140 -14z"/>
<path d="M2210 1495 c0 -35 -36 -111 -77 -162 -33 -42 -40 -59 -25 -65 11 -4
118 -136 221 -271 45 -60 95 -123 109 -140 60 -70 125 -137 134 -137 23 0 156
153 299 345 41 55 96 128 122 162 l47 61 -30 34 c-38 41 -82 130 -82 163 0 28
-28 34 -47 11 -7 -8 -51 -31 -99 -52 -77 -32 -99 -37 -193 -42 -124 -5 -188
11 -303 78 -37 22 -70 40 -72 40 -2 0 -4 -11 -4 -25z m72 -53 c183 -101 338
-106 534 -17 42 19 77 35 78 35 2 0 13 -24 26 -52 13 -29 34 -67 47 -84 27
-36 29 -57 8 -74 -9 -7 -75 -92 -148 -189 -73 -96 -159 -204 -191 -239 l-59
-63 -40 38 c-38 38 -166 194 -284 348 -34 44 -73 92 -88 108 l-26 28 40 59
c21 33 42 73 46 90 8 35 13 36 57 12z"/>
<path d="M1334 998 c-42 -28 -124 -120 -124 -139 0 -11 162 -77 288 -118 64
-21 125 -42 135 -46 26 -11 21 6 -24 81 -72 118 -184 254 -210 254 -9 0 -39
-15 -65 -32z m81 -16 c16 -12 119 -143 148 -189 15 -24 22 -43 17 -43 -26 0
-292 97 -319 116 -9 7 43 73 76 97 38 27 60 33 78 19z"/>
<path d="M3669 976 c-50 -55 -189 -251 -189 -267 0 -5 4 -9 10 -9 17 0 211 67
290 100 41 18 87 37 103 43 33 14 33 20 5 60 -48 72 -122 129 -160 126 -7 -1
-34 -24 -59 -53z m142 -35 c27 -26 49 -53 49 -60 0 -11 -48 -35 -130 -66 -117
-43 -175 -63 -178 -60 -6 5 79 129 127 184 26 30 52 51 64 51 11 0 42 -22 68
-49z"/>
</g>
</svg>
