<?xml version="1.0" standalone="no"?>
<!DOCTYPE svg PUBLIC "-//W3C//DTD SVG 20010904//EN"
 "http://www.w3.org/TR/2001/REC-SVG-20010904/DTD/svg10.dtd">
<svg version="1.0" xmlns="http://www.w3.org/2000/svg"
 width="512.000000pt" height="512.000000pt" viewBox="0 0 512.000000 512.000000"
 preserveAspectRatio="xMidYMid meet">
<metadata>
Created by potrace 1.16, written by Peter Selinger 2001-2019
</metadata>
<g transform="translate(0.000000,512.000000) scale(0.100000,-0.100000)"
fill="#000000" stroke="none">
<path d="M1730 3428 l0 -1693 -865 3 c-581 1 -865 -1 -865 -8 0 -7 286 -10
865 -10 l865 0 0 -860 c0 -573 3 -860 10 -860 7 0 10 286 10 858 l0 857 811 3
810 2 -3 -860 c-2 -687 0 -860 10 -860 10 0 12 174 12 858 l0 857 865 3 c571
1 865 6 865 12 0 7 -290 9 -865 8 l-865 -3 0 835 c0 459 0 1221 0 1693 0 649
-3 858 -11 855 -9 -3 -12 -218 -11 -861 l1 -857 -747 -1 c-411 -1 -756 -2
-767 -2 -11 0 -40 1 -65 1 l-45 2 3 860 c1 575 -1 860 -8 860 -7 0 -10 -559
-10 -1692z m1638 -870 l2 -818 -810 0 -810 0 0 813 c0 448 3 817 7 820 3 4
367 6 807 5 l801 -3 3 -817z"/>
<path d="M2408 3021 c-214 -70 -352 -292 -318 -508 29 -178 108 -280 312 -400
58 -34 111 -69 118 -78 24 -29 61 -15 193 71 154 100 232 176 278 271 28 57
33 79 37 165 10 214 -75 361 -266 456 -69 34 -80 36 -185 39 -89 2 -124 -1
-169 -16z m267 -17 c208 -53 346 -245 332 -461 -10 -163 -101 -287 -304 -413
-57 -34 -110 -71 -119 -81 -16 -18 -18 -18 -45 5 -15 13 -75 52 -133 87 -133
78 -205 149 -252 245 -31 62 -37 86 -41 161 -9 143 28 241 128 340 117 116
275 159 434 117z"/>
<path d="M2373 4650 c-126 -14 -225 -74 -276 -168 -44 -81 -61 -170 -61 -327
0 -134 1 -143 28 -198 35 -73 68 -97 261 -194 82 -41 163 -85 180 -98 48 -36
59 -36 112 0 27 18 105 61 174 96 148 75 230 128 258 168 37 52 54 144 48 257
-13 229 -85 367 -225 431 -82 38 -307 53 -499 33z m347 -20 c114 -12 180 -41
238 -104 83 -90 115 -193 116 -371 1 -110 -1 -125 -25 -176 -32 -68 -59 -88
-259 -190 -80 -41 -164 -89 -188 -107 l-43 -32 -37 29 c-20 16 -109 66 -198
110 -165 84 -210 117 -238 176 -55 114 -39 385 29 501 31 53 96 111 151 136
76 33 280 46 454 28z"/>
<path d="M759 4620 c-121 -15 -205 -76 -254 -182 -57 -125 -57 -472 0 -592 35
-74 99 -129 173 -150 46 -13 106 -16 285 -16 206 0 231 2 284 21 75 28 142 95
174 175 22 55 24 72 24 264 0 168 -3 215 -18 262 -29 96 -107 178 -197 208
-43 14 -379 22 -471 10z m499 -34 c55 -24 126 -104 146 -164 49 -151 44 -470
-9 -573 -25 -47 -75 -99 -119 -121 -53 -27 -168 -36 -401 -31 -152 4 -187 7
-225 24 -126 56 -170 161 -170 409 0 226 25 322 106 401 24 24 44 39 44 35 0
-5 6 -4 13 3 39 31 121 41 347 38 192 -2 231 -5 268 -21z"/>
<path d="M4003 4620 c-134 -12 -220 -65 -274 -172 -64 -125 -66 -479 -3 -599
26 -50 85 -109 138 -137 51 -27 53 -27 291 -30 274 -4 324 4 396 66 101 87
123 166 117 422 -4 161 -8 193 -27 243 -51 131 -128 192 -262 207 -93 11 -251
11 -376 0z m483 -37 c57 -30 108 -91 133 -157 29 -78 45 -228 38 -366 -8 -170
-43 -255 -128 -312 -70 -47 -105 -52 -359 -52 -271 0 -292 5 -378 91 -74 74
-86 120 -89 338 -3 182 3 231 39 316 34 80 118 142 216 159 26 5 146 8 267 7
205 -2 223 -4 261 -24z"/>
<path d="M2 3388 c4 -10 183 -13 848 -15 463 -1 849 1 856 4 8 3 14 9 14 14 0
5 -362 9 -861 9 -684 0 -860 -3 -857 -12z"/>
<path d="M3405 3390 c-3 -6 0 -13 8 -16 8 -3 394 -4 858 -2 663 2 843 6 847
16 5 16 -1703 18 -1713 2z"/>
<path d="M740 3022 c-193 -51 -305 -197 -326 -425 -12 -137 26 -262 108 -352
58 -63 131 -107 260 -156 56 -22 106 -43 112 -49 13 -13 69 -13 82 0 5 5 54
28 108 50 221 89 309 174 351 337 30 113 13 289 -36 385 -55 107 -176 194
-303 217 -91 17 -280 13 -356 -7z m415 -31 c165 -58 262 -199 272 -396 9 -148
-30 -259 -120 -347 -58 -56 -104 -83 -222 -132 -55 -23 -112 -49 -125 -59 -22
-15 -25 -15 -49 2 -14 10 -62 31 -106 46 -225 76 -337 190 -365 370 -26 162
28 335 133 432 96 89 188 114 387 109 105 -3 148 -9 195 -25z"/>
<path d="M4050 3029 c-123 -21 -257 -117 -307 -219 -72 -149 -71 -352 3 -484
59 -106 106 -139 375 -265 66 -31 113 -39 123 -22 4 5 41 23 84 41 205 84 298
154 353 265 101 206 36 499 -138 614 -88 59 -144 73 -298 77 -77 1 -165 -1
-195 -7z m323 -24 c91 -19 158 -57 222 -127 116 -126 147 -347 71 -513 -48
-105 -165 -194 -342 -261 -38 -14 -79 -33 -92 -43 -23 -17 -26 -16 -81 10 -31
16 -99 48 -152 73 -186 87 -277 208 -286 383 -6 105 7 181 47 261 57 112 176
200 301 221 85 14 237 12 312 -4z"/>
<path d="M2525 1473 c-147 -17 -243 -57 -335 -140 -109 -99 -156 -241 -147
-438 13 -260 105 -359 384 -411 48 -9 96 -20 106 -26 13 -7 42 -5 90 5 40 8
105 20 145 27 192 32 323 158 353 342 23 133 -9 346 -64 441 -38 64 -128 142
-192 166 -93 35 -224 48 -340 34z m236 -27 c176 -38 291 -153 330 -331 7 -33
13 -114 13 -180 -1 -151 -20 -208 -101 -295 -70 -76 -149 -116 -258 -131 -44
-6 -104 -18 -133 -26 -48 -14 -57 -14 -90 0 -20 8 -77 23 -126 32 -205 37
-297 126 -327 315 -21 133 7 315 61 395 57 87 171 172 270 204 93 29 265 37
361 17z"/>
<path d="M765 1431 c-233 -22 -329 -210 -298 -586 15 -183 49 -252 151 -312
43 -25 55 -27 236 -36 223 -10 356 -4 409 18 60 25 121 88 153 158 26 58 28
72 32 227 2 91 -1 196 -6 233 -20 125 -82 221 -175 269 -67 34 -301 47 -502
29z m442 -21 c69 -15 141 -73 176 -141 41 -79 61 -221 53 -369 -7 -135 -13
-173 -32 -220 -21 -51 -65 -110 -80 -110 -8 0 -14 -4 -14 -10 0 -5 -17 -17
-37 -27 -56 -25 -517 -32 -597 -9 -75 22 -145 90 -170 166 -24 71 -34 355 -17
455 25 142 105 235 228 264 54 13 432 13 490 1z"/>
<path d="M4019 1430 c-155 -10 -244 -68 -299 -192 -37 -85 -52 -307 -30 -457
12 -83 60 -181 105 -216 84 -63 101 -66 390 -67 l264 -1 55 27 c64 31 99 69
135 146 25 52 26 65 29 246 3 153 1 204 -12 255 -28 108 -86 187 -170 230 -65
34 -239 45 -467 29z m456 -34 c136 -61 194 -227 182 -518 -6 -165 -23 -221
-86 -288 -69 -73 -104 -80 -385 -80 -127 0 -251 5 -275 11 -84 19 -165 100
-194 193 -8 27 -12 111 -12 246 0 191 2 209 23 262 27 66 95 140 151 164 61
27 128 33 346 30 176 -2 216 -5 250 -20z"/>
</g>
</svg>
