<?xml version="1.0" standalone="no"?>
<!DOCTYPE svg PUBLIC "-//W3C//DTD SVG 20010904//EN"
 "http://www.w3.org/TR/2001/REC-SVG-20010904/DTD/svg10.dtd">
<svg version="1.0" xmlns="http://www.w3.org/2000/svg"
 width="512.000000pt" height="512.000000pt" viewBox="0 0 512.000000 512.000000"
 preserveAspectRatio="xMidYMid meet">
<metadata>
Created by potrace 1.16, written by Peter Selinger 2001-2019
</metadata>
<g transform="translate(0.000000,512.000000) scale(0.100000,-0.100000)"
fill="#000000" stroke="none">
<path d="M3458 4383 c6 -2 18 -2 25 0 6 3 1 5 -13 5 -14 0 -19 -2 -12 -5z"/>
<path d="M3550 4370 c0 -5 5 -10 10 -10 6 0 10 5 10 10 0 6 -4 10 -10 10 -5 0
-10 -4 -10 -10z"/>
<path d="M3995 4370 c-3 -6 5 -10 19 -10 32 0 42 15 11 18 -13 1 -27 -3 -30
-8z"/>
<path d="M4070 4369 c0 -5 5 -7 10 -4 6 3 10 8 10 11 0 2 -4 4 -10 4 -5 0 -10
-5 -10 -11z"/>
<path d="M4127 4368 c15 -7 30 -7 50 0 26 10 24 10 -22 11 -42 0 -46 -2 -28
-11z"/>
<path d="M852 4358 c5 -15 141 -23 197 -13 63 12 12 25 -97 25 -79 0 -103 -3
-100 -12z"/>
<path d="M1115 4360 c-8 -12 -14 -12 223 -12 129 0 198 4 205 11 8 8 -47 11
-205 11 -134 0 -219 -4 -223 -10z"/>
<path d="M3840 4360 c0 -5 9 -10 20 -10 11 0 20 5 20 10 0 6 -9 10 -20 10 -11
0 -20 -4 -20 -10z"/>
<path d="M4210 4353 c0 -17 41 -17 65 1 17 12 15 13 -23 12 -27 0 -42 -5 -42
-13z"/>
<path d="M800 4220 c0 -71 4 -130 9 -130 16 0 22 51 20 157 -2 78 -6 103 -16
103 -10 0 -13 -29 -13 -130z"/>
<path d="M3361 4325 c-2 -16 -5 -56 -7 -89 -1 -32 -7 -62 -14 -66 -8 -5 -6 -9
6 -14 9 -3 19 -5 21 -3 2 3 2 49 0 103 -1 55 -4 86 -6 69z"/>
<path d="M4309 4334 c0 -10 -2 -111 -4 -224 -2 -113 -4 -212 -4 -220 0 -8 0
-42 0 -75 -1 -52 1 -57 11 -35 10 24 13 558 2 569 -2 2 -4 -4 -5 -15z"/>
<path d="M1064 4309 c-7 -12 12 -29 34 -29 6 0 12 -7 12 -15 0 -15 -5 -17 -45
-19 -17 -1 -20 -7 -17 -41 4 -57 8 -65 37 -65 26 0 28 4 25 61 -1 21 3 40 9
44 15 8 14 48 -1 63 -15 15 -45 16 -54 1z"/>
<path d="M1226 4301 c-7 -12 -3 -61 4 -66 5 -3 16 2 24 11 9 9 16 11 16 4 0
-6 4 -8 10 -5 5 3 9 17 8 30 -2 17 -9 24 -31 28 -15 2 -29 1 -31 -2z"/>
<path d="M1550 4201 l0 -109 26 -5 c17 -3 28 0 31 10 6 16 -15 35 -29 27 -4
-3 -8 38 -8 90 0 57 -4 96 -10 96 -6 0 -10 -43 -10 -109z"/>
<path d="M1465 4280 c3 -5 8 -10 11 -10 2 0 4 5 4 10 0 6 -5 10 -11 10 -5 0
-7 -4 -4 -10z"/>
<path d="M912 4229 l-1 -40 37 3 c30 2 38 8 40 26 4 28 -19 52 -51 52 -22 0
-25 -4 -25 -41z"/>
<path d="M3980 4226 c0 -9 5 -16 10 -16 6 0 10 4 10 9 0 6 -4 13 -10 16 -5 3
-10 -1 -10 -9z"/>
<path d="M1461 4201 c-10 -6 -10 -13 -3 -28 6 -10 10 -26 9 -35 -1 -9 3 -18 8
-20 12 -4 20 71 8 83 -4 4 -14 4 -22 0z"/>
<path d="M1211 4176 c-12 -15 -4 -76 11 -76 5 0 7 9 3 20 -3 10 -1 28 4 39 13
23 -2 37 -18 17z"/>
<path d="M1630 4160 c0 -6 95 -10 243 -12 383 -5 1434 6 1414 15 -28 11 -1657
9 -1657 -3z"/>
<path d="M4086 4083 c-7 -17 17 -28 38 -16 12 7 10 10 -9 19 -19 9 -25 9 -29
-3z"/>
<path d="M851 4069 c-19 -32 -1 -39 99 -39 l85 0 1 30 c1 33 -11 37 -41 17
-11 -7 -38 -14 -60 -15 l-40 -1 35 14 35 13 -50 1 c-41 1 -53 -3 -64 -20z"/>
<path d="M4156 4035 c-9 -26 2 -35 34 -28 29 5 30 4 30 -32 0 -30 3 -36 16
-31 9 3 21 6 27 6 7 1 5 6 -4 13 -9 7 -21 22 -28 35 -6 12 -17 22 -23 22 -6 0
-19 7 -28 15 -16 14 -18 14 -24 0z"/>
<path d="M4034 4027 c-3 -8 -5 -21 -3 -28 1 -8 1 -573 0 -1257 -1 -1178 -2
-1243 -18 -1241 -56 5 -52 -14 5 -26 l32 -7 1 1234 c0 678 3 1254 5 1280 4 45
-10 75 -22 45z"/>
<path d="M798 3383 c-2 -806 2 -1615 9 -1627 3 -4 9 -3 12 3 9 13 13 2179 5
2234 -3 20 -10 37 -15 37 -5 0 -10 -266 -11 -647z"/>
<path d="M1050 3990 c0 -14 0 -526 0 -1137 l1 -1113 -88 1 c-136 1 -148 0
-137 -11 7 -7 56 -10 125 -8 l114 3 3 1128 c1 728 -1 1134 -8 1145 -8 14 -9
13 -10 -8z"/>
<path d="M1375 3912 c-44 -2 -83 -6 -88 -11 -4 -4 0 -16 8 -27 13 -17 14 -17
15 -1 0 20 21 21 239 22 98 0 135 3 138 12 5 13 -88 14 -312 5z"/>
<path d="M3425 3910 c-2 -3 0 -12 5 -20 6 -10 12 -11 22 -4 7 6 80 10 173 9
142 -1 160 -3 163 -18 2 -9 8 -17 13 -17 8 0 10 6 13 43 1 9 -44 12 -192 13
-106 0 -195 -2 -197 -6z"/>
<path d="M3346 3863 c-12 -13 7 -30 29 -25 14 2 23 8 20 12 -6 10 -42 19 -49
13z"/>
<path d="M1701 3851 c-9 -6 -4 -10 18 -13 20 -3 30 -1 28 6 -5 14 -29 18 -46
7z"/>
<path d="M1789 3819 c24 -22 37 -20 28 6 -4 8 -16 15 -29 15 l-22 0 23 -21z"/>
<path d="M1250 3073 c-1 -584 -1 -1286 0 -1343 0 -3 586 -4 1303 -3 l1302 3 3
1050 c2 837 0 1050 -10 1050 -10 0 -13 -212 -13 -1037 l0 -1038 -1282 -3
-1283 -2 -1 197 c-4 1059 -2 1842 5 1861 5 17 4 22 -8 22 -14 0 -16 -77 -16
-757z"/>
<path d="M3250 3806 c0 -8 5 -18 10 -21 6 -3 10 1 10 9 0 8 -4 18 -10 21 -5 3
-10 -1 -10 -9z"/>
<path d="M3295 3810 c4 -6 11 -8 16 -5 14 9 11 15 -7 15 -8 0 -12 -5 -9 -10z"/>
<path d="M1840 3783 c8 -3 19 -13 24 -21 7 -12 10 -12 17 -1 15 24 10 29 -23
28 -18 0 -26 -3 -18 -6z"/>
<path d="M3180 3756 c0 -21 12 -24 38 -11 l23 12 -23 7 c-33 9 -38 8 -38 -8z"/>
<path d="M1910 3730 c-12 -8 -11 -10 7 -10 12 0 23 -6 26 -12 2 -7 8 -10 12
-6 11 10 -2 38 -17 38 -7 0 -20 -5 -28 -10z"/>
<path d="M4302 2736 c2 -553 7 -1006 11 -1006 13 0 9 2004 -4 2009 -8 2 -10
-263 -7 -1003z"/>
<path d="M3117 3705 c6 -17 25 -15 31 3 2 7 -5 12 -17 12 -14 0 -19 -5 -14
-15z"/>
<path d="M4470 3700 c0 -5 7 -10 15 -10 8 0 15 5 15 10 0 6 -7 10 -15 10 -8 0
-15 -4 -15 -10z"/>
<path d="M1984 3675 c19 -14 36 -12 36 6 0 5 -12 9 -27 9 -27 -1 -27 -1 -9
-15z"/>
<path d="M1590 3666 c0 -12 10 -16 43 -16 23 0 49 5 57 10 11 7 4 10 -27 10
-23 0 -48 3 -57 6 -11 4 -16 1 -16 -10z"/>
<path d="M3070 3665 c12 -15 30 -12 30 6 0 5 -10 9 -21 9 -18 0 -19 -2 -9 -15z"/>
<path d="M3430 3670 c20 -13 67 -13 75 0 4 6 -12 10 -42 10 -35 0 -44 -3 -33
-10z"/>
<path d="M4514 3578 c3 -50 6 -483 6 -961 0 -479 3 -867 7 -864 4 4 6 238 5
520 -1 281 -2 711 -2 955 0 326 -3 442 -11 442 -9 0 -10 -25 -5 -92z"/>
<path d="M1500 3651 c0 -5 7 -11 15 -15 9 -3 15 0 15 9 0 8 -7 15 -15 15 -8 0
-15 -4 -15 -9z"/>
<path d="M3372 3646 c-34 -20 -35 -23 -2 -24 23 0 30 4 30 19 0 10 -1 19 -2
18 -2 -1 -13 -7 -26 -13z"/>
<path d="M3566 3652 c-3 -6 -1 -14 5 -17 15 -10 25 3 12 16 -7 7 -13 7 -17 1z"/>
<path d="M2040 3640 c-10 -6 166 -10 505 -10 339 0 515 4 505 10 -9 6 -206 10
-505 10 -299 0 -496 -4 -505 -10z"/>
<path d="M1703 3625 c-9 -24 10 -37 30 -23 16 12 16 14 -3 26 -17 10 -21 10
-27 -3z"/>
<path d="M3307 3594 c-9 -10 2 -24 19 -24 8 0 14 7 14 15 0 15 -21 21 -33 9z"/>
<path d="M1766 3575 c-9 -25 0 -32 33 -27 17 2 28 9 25 14 -3 5 -9 7 -12 4 -3
-3 -13 1 -22 9 -16 14 -18 14 -24 0z"/>
<path d="M3247 3535 c-7 -16 8 -29 23 -20 10 6 2 35 -10 35 -4 0 -10 -7 -13
-15z"/>
<path d="M1834 3509 c-9 -16 10 -31 30 -23 13 5 14 9 5 20 -14 17 -25 18 -35
3z"/>
<path d="M2840 3490 c0 -5 5 -10 11 -10 5 0 7 5 4 10 -3 6 -8 10 -11 10 -2 0
-4 -4 -4 -10z"/>
<path d="M3197 3486 c-6 -15 1 -26 15 -26 4 0 8 9 8 20 0 23 -15 27 -23 6z"/>
<path d="M1898 3445 c-5 -26 14 -51 31 -41 6 4 3 18 -6 36 -18 36 -19 37 -25
5z"/>
<path d="M3150 3425 c0 -7 -8 -19 -17 -24 -15 -9 -14 -10 10 -11 22 0 27 4 27
25 0 14 -4 25 -10 25 -5 0 -10 -7 -10 -15z"/>
<path d="M957 3374 c-4 -4 -23 -7 -44 -8 -27 -1 -39 -6 -41 -18 -3 -16 5 -18
58 -18 57 0 61 1 58 22 -3 22 -19 33 -31 22z"/>
<path d="M3080 3350 c0 -5 5 -10 10 -10 6 0 10 5 10 10 0 6 -4 10 -10 10 -5 0
-10 -4 -10 -10z"/>
<path d="M1927 3324 c-7 -7 4 -54 14 -60 5 -3 9 1 9 10 0 8 3 21 6 29 5 13
-19 31 -29 21z"/>
<path d="M1560 3306 c0 -8 5 -18 10 -21 6 -3 10 3 10 14 0 12 -4 21 -10 21 -5
0 -10 -6 -10 -14z"/>
<path d="M3130 3300 c0 -5 5 -10 10 -10 6 0 15 -10 20 -22 8 -21 9 -20 9 10 1
26 -3 32 -19 32 -11 0 -20 -4 -20 -10z"/>
<path d="M3500 3279 c0 -5 5 -7 10 -4 6 3 10 8 10 11 0 2 -4 4 -10 4 -5 0 -10
-5 -10 -11z"/>
<path d="M1856 3241 c-4 -5 -2 -19 2 -32 l9 -23 5 22 c4 12 13 22 22 22 9 0
16 5 16 10 0 12 -47 13 -54 1z"/>
<path d="M3196 3228 c12 -5 27 -20 32 -32 10 -19 11 -18 11 12 1 30 -1 32 -31
31 -30 0 -31 -1 -12 -11z"/>
<path d="M920 3211 c-46 -5 -55 -9 -55 -26 0 -17 7 -20 58 -20 44 -1 60 3 66
14 9 17 4 42 -7 39 -4 -1 -32 -4 -62 -7z"/>
<path d="M1800 3149 l0 -31 19 23 c20 25 19 39 -5 39 -9 0 -14 -11 -14 -31z"/>
<path d="M3268 3153 c12 -8 22 -23 23 -32 0 -12 2 -11 9 4 16 36 11 45 -22 44
-33 0 -33 0 -10 -16z"/>
<path d="M3450 3138 c0 -19 2 -20 10 -8 13 19 13 30 0 30 -5 0 -10 -10 -10
-22z"/>
<path d="M1612 3136 c13 -14 28 -12 28 5 0 5 -9 9 -20 9 -17 0 -19 -2 -8 -14z"/>
<path d="M1740 3111 c0 -20 13 -41 21 -35 14 8 11 31 -6 38 -8 3 -15 1 -15 -3z"/>
<path d="M3326 3091 c-3 -4 1 -17 9 -27 14 -18 14 -18 15 9 0 26 -13 36 -24
18z"/>
<path d="M920 3053 c-24 -3 -48 -9 -51 -15 -15 -24 3 -34 59 -33 54 0 57 2 60
28 2 18 -1 26 -10 25 -7 -1 -33 -3 -58 -5z"/>
<path d="M1700 3046 c0 -9 5 -16 10 -16 6 0 10 4 10 9 0 6 -4 13 -10 16 -5 3
-10 -1 -10 -9z"/>
<path d="M3390 3030 c0 -5 5 -10 11 -10 5 0 7 5 4 10 -3 6 -8 10 -11 10 -2 0
-4 -4 -4 -10z"/>
<path d="M3553 2685 c1 -121 -2 -235 -7 -253 -7 -28 -5 -32 11 -30 23 4 23 4
23 -102 l0 -90 -36 0 c-24 0 -34 -4 -32 -12 7 -20 46 -21 74 -4 23 16 24 22
24 115 0 73 -3 100 -13 104 -11 4 -15 57 -21 232 -9 301 -25 328 -23 40z"/>
<path d="M860 2875 c-20 -25 -1 -35 63 -32 55 2 62 4 65 24 3 21 -1 22 -57 22
-38 -1 -64 -6 -71 -14z"/>
<path d="M1636 2879 c-3 -8 -7 -112 -8 -232 l-3 -217 65 2 65 3 -3 -34 c-3
-31 -2 -33 22 -29 l26 5 0 -108 0 -109 -27 2 c-16 1 -68 1 -118 0 -98 -2 -108
-19 -15 -24 46 -2 55 -6 58 -23 7 -37 23 -45 84 -45 52 0 60 -3 67 -22 l8 -23
7 23 c12 35 -1 42 -80 42 -53 0 -74 4 -74 13 1 29 18 36 95 39 79 3 80 3 80
-22 0 -23 3 -25 38 -22 28 2 37 -1 37 -13 0 -11 11 -15 39 -15 22 0 47 -3 57
-7 12 -4 15 -2 12 8 -2 7 -24 17 -48 21 -24 4 -48 12 -54 18 -5 5 -20 10 -33
10 -13 0 -23 4 -23 9 0 18 -32 41 -56 41 -24 0 -24 1 -24 94 0 103 -5 126 -26
126 -8 0 -17 8 -21 18 -14 39 -35 52 -85 52 l-49 0 1 211 c1 195 -2 243 -14
208z"/>
<path d="M1529 2870 c-3 -8 -5 -109 -4 -223 1 -187 -1 -209 -17 -224 -15 -13
-18 -32 -18 -105 0 -49 5 -98 11 -109 14 -27 57 -43 75 -28 24 19 16 29 -23
29 l-38 0 0 100 c0 98 0 100 23 100 18 0 22 4 18 18 -3 9 -6 103 -7 207 -3
186 -9 266 -20 235z"/>
<path d="M3448 2679 l-3 -204 -30 -3 c-86 -7 -95 -11 -95 -43 0 -22 -6 -32
-25 -39 -23 -9 -24 -13 -27 -112 l-3 -102 -32 -8 c-18 -5 -37 -17 -43 -28 -6
-11 -21 -20 -33 -20 -21 -1 -22 -1 -3 -15 11 -8 28 -15 39 -15 14 0 18 6 15
27 -3 27 -2 27 52 26 30 -1 67 -2 83 -2 20 -1 31 -8 40 -27 l12 -27 5 24 c5
21 12 24 60 27 30 2 60 8 65 13 7 7 -28 10 -104 8 -74 -1 -116 2 -120 10 -4 6
-7 55 -6 108 1 97 1 98 25 98 22 0 25 5 25 35 l0 34 64 1 63 0 -1 210 c-3 276
-20 294 -23 24z"/>
<path d="M865 2720 c-6 -9 1 -14 18 -11 4 0 7 -3 7 -9 0 -5 -6 -11 -12 -12 -7
0 10 -4 37 -7 51 -7 75 5 75 36 0 16 -115 19 -125 3z"/>
<path d="M2016 2664 c-9 -8 -16 -24 -16 -35 0 -12 -10 -23 -25 -29 -14 -5 -27
-21 -31 -36 -10 -38 2 -133 19 -153 8 -9 18 -26 21 -37 8 -28 32 -34 133 -34
61 0 86 4 97 16 9 8 16 19 16 22 0 4 10 12 22 17 17 7 25 23 32 58 7 43 5 55
-19 104 -15 31 -35 58 -46 60 -10 3 -19 14 -19 24 0 27 -31 39 -104 39 -45 0
-69 -5 -80 -16z m165 -27 c-6 -6 -11 -19 -11 -30 0 -15 6 -18 33 -15 32 3 35
-1 22 -34 -5 -13 0 -20 19 -28 22 -8 24 -13 17 -33 -5 -13 -7 -35 -4 -50 5
-23 2 -27 -19 -27 -32 0 -40 -8 -27 -31 9 -18 4 -19 -95 -19 l-105 0 -3 28
c-2 19 -8 26 -20 24 -13 -2 -18 4 -18 20 0 13 0 32 -2 43 -1 11 -1 37 0 58 2
34 4 37 33 37 30 0 31 1 25 35 l-7 34 78 3 c86 3 100 1 84 -15z"/>
<path d="M2899 2673 c-9 -2 -21 -15 -27 -28 -6 -13 -20 -26 -31 -30 -12 -3
-21 -12 -21 -19 0 -7 -9 -21 -20 -31 -36 -32 -24 -165 15 -165 8 0 15 -4 15
-10 0 -5 9 -19 20 -30 17 -17 33 -20 108 -20 86 0 132 14 132 41 0 6 7 17 15
25 8 9 15 24 15 34 0 10 4 21 9 24 5 4 5 21 -1 43 -5 21 -13 52 -16 68 -4 17
-17 34 -29 40 -12 5 -23 18 -25 29 -2 12 -14 23 -28 27 -28 8 -106 9 -131 2z
m143 -35 c-7 -7 -12 -20 -12 -31 0 -16 5 -18 31 -12 31 7 32 6 26 -21 -3 -18
0 -35 8 -44 20 -22 8 -98 -16 -105 -12 -4 -19 -16 -19 -33 l0 -27 -100 3 c-98
3 -100 4 -100 28 0 19 -5 24 -25 24 -22 0 -25 4 -25 34 0 18 -3 48 -6 65 -6
29 -4 31 21 31 24 0 26 3 21 26 -6 23 -4 25 21 22 25 -3 28 0 25 25 l-3 27 82
0 c65 0 80 -3 71 -12z"/>
<path d="M864 2488 c-9 -29 3 -36 53 -32 27 2 51 3 56 4 4 0 7 11 7 24 0 24
-3 25 -55 23 -43 -2 -56 -6 -61 -19z"/>
<path d="M3500 2460 c0 -5 5 -10 10 -10 6 0 10 5 10 10 0 6 -4 10 -10 10 -5 0
-10 -4 -10 -10z"/>
<path d="M2505 2340 c-10 -11 -30 -20 -45 -20 -18 0 -31 -8 -40 -25 -20 -37 8
-75 55 -75 19 0 35 -4 35 -10 0 -15 54 -12 76 5 10 8 36 15 56 15 67 0 74 73
8 87 -16 3 -37 14 -46 24 -23 25 -76 25 -99 -1z m87 -16 c4 -3 5 -11 2 -19 -4
-10 5 -15 38 -17 33 -2 44 -7 46 -22 4 -17 -1 -18 -47 -14 -43 4 -53 2 -62
-13 -12 -23 -37 -25 -46 -3 -5 12 -14 15 -43 10 -33 -5 -38 -3 -43 16 -9 32 0
39 44 32 37 -6 39 -5 39 21 0 25 2 26 33 20 17 -4 35 -9 39 -11z"/>
<path d="M1637 2318 c-21 -11 -22 -34 -2 -42 22 -8 45 4 45 24 0 22 -21 31
-43 18z"/>
<path d="M3426 2314 c-8 -21 1 -34 24 -34 26 0 33 16 14 34 -20 20 -30 20 -38
0z"/>
<path d="M913 2243 c-45 -3 -53 -7 -53 -24 0 -17 7 -19 64 -19 45 0 65 4 69
14 5 13 -11 38 -22 34 -4 -1 -30 -3 -58 -5z"/>
<path d="M912 2103 c-37 -4 -42 -7 -35 -21 4 -9 7 -42 7 -74 l-2 -56 44 1 44
0 -6 36 c-8 42 -14 53 -14 24 0 -28 -25 -49 -36 -31 -16 26 -15 88 2 95 9 3
20 0 25 -8 7 -12 11 -11 25 3 15 15 12 40 -4 36 -4 -1 -27 -3 -50 -5z"/>
<path d="M3070 2091 c-28 -5 -36 -11 -38 -32 -2 -17 -12 -29 -30 -36 -26 -10
-25 -11 16 -12 l42 -1 0 -55 0 -55 -42 -2 -43 -1 38 -4 c49 -5 65 9 69 60 l3
42 50 2 c28 2 60 3 72 3 12 0 25 5 28 10 4 6 -29 10 -88 10 -85 0 -95 2 -100
19 -7 27 0 31 51 31 30 0 42 4 40 13 -6 15 -22 17 -68 8z"/>
<path d="M3236 2082 c-2 -4 1 -18 8 -31 l13 -23 6 21 c3 12 11 21 19 20 38 -5
99 2 93 11 -7 12 -132 14 -139 2z"/>
<path d="M2056 2035 c-4 -12 -24 -15 -92 -15 -48 0 -84 -3 -80 -7 11 -11 37
-15 89 -13 l47 1 0 -48 c1 -38 3 -44 11 -30 6 10 10 28 9 40 -4 43 0 47 38 48
20 0 30 3 22 6 -8 3 -20 12 -26 19 -10 13 -12 12 -18 -1z"/>
<path d="M2128 2013 c7 -3 16 -2 19 1 4 3 -2 6 -13 5 -11 0 -14 -3 -6 -6z"/>
<path d="M2225 2008 c64 -8 735 -1 744 8 2 2 -180 3 -405 3 -293 -1 -389 -4
-339 -11z"/>
<path d="M2062 1895 c7 -7 810 -6 817 0 2 3 -182 5 -409 5 -227 0 -411 -2
-408 -5z"/>
<path d="M2898 1893 c7 -3 16 -2 19 1 4 3 -2 6 -13 5 -11 0 -14 -3 -6 -6z"/>
<path d="M2938 1893 c7 -3 16 -2 19 1 4 3 -2 6 -13 5 -11 0 -14 -3 -6 -6z"/>
<path d="M4480 1737 c0 -8 6 -20 14 -26 12 -10 13 -8 9 9 -7 25 -23 37 -23 17z"/>
<path d="M846 1701 c-10 -16 29 -22 124 -20 88 3 117 13 63 22 -54 9 -181 8
-187 -2z"/>
<path d="M4305 1698 c-10 -26 0 -383 10 -381 13 4 18 380 5 388 -6 4 -12 0
-15 -7z"/>
<path d="M809 1548 c0 -73 -2 -150 -4 -170 -2 -23 1 -41 10 -48 11 -9 15 -3
19 32 3 24 4 63 2 88 -2 25 -4 87 -5 138 0 54 -5 92 -11 92 -6 0 -10 -51 -11
-132z"/>
<path d="M1058 1654 c-5 -4 -8 -45 -8 -91 l0 -83 47 0 c46 0 54 11 10 16 -12
1 -25 3 -29 3 -4 1 -8 37 -10 82 -2 44 -6 77 -10 73z"/>
<path d="M1328 1472 c-94 -1 -158 -6 -158 -12 0 -6 6 -10 13 -10 6 0 473 0
1037 1 1302 1 1599 0 1683 -8 55 -5 67 -3 67 9 0 12 -21 17 -102 22 -97 5
-2198 4 -2540 -2z"/>
<path d="M1435 1340 c-141 -3 134 -7 665 -9 498 -2 1189 -7 1537 -10 602 -6
794 -1 476 13 -197 8 -2373 13 -2678 6z"/>
<path d="M3740 1291 c-18 -7 -3 -9 57 -10 45 -1 90 -4 100 -7 13 -5 15 -4 7 5
-13 15 -131 23 -164 12z"/>
<path d="M960 1280 c-36 -3 105 -6 312 -5 207 0 380 3 384 8 9 8 -590 5 -696
-3z"/>
<path d="M1743 1279 c-33 -11 253 -16 1100 -18 595 -1 857 1 857 8 0 8 -127
12 -397 14 -710 4 -1543 2 -1560 -4z"/>
<path d="M4063 1282 c-81 -1 -133 -7 -133 -13 0 -12 265 -11 295 1 11 5 15 9
8 9 -6 1 -17 2 -25 4 -7 1 -73 1 -145 -1z"/>
<path d="M4250 1280 c0 -5 5 -10 10 -10 6 0 10 5 10 10 0 6 -4 10 -10 10 -5 0
-10 -4 -10 -10z"/>
<path d="M848 1273 c7 -3 16 -2 19 1 4 3 -2 6 -13 5 -11 0 -14 -3 -6 -6z"/>
<path d="M1698 1273 c7 -3 16 -2 19 1 4 3 -2 6 -13 5 -11 0 -14 -3 -6 -6z"/>
<path d="M1360 1241 c0 -5 7 -12 16 -15 22 -8 175 -6 198 3 18 7 18 8 -5 14
-36 10 -209 8 -209 -2z"/>
<path d="M930 1231 c0 -17 31 -21 150 -21 65 0 125 3 134 6 43 17 2 24 -134
24 -82 0 -150 -4 -150 -9z"/>
<path d="M1322 1219 c-14 -14 -27 -18 -44 -14 -16 4 -29 1 -37 -8 -16 -20 -5
-24 56 -19 50 4 52 5 50 33 -1 16 -3 29 -4 29 -1 0 -11 -9 -21 -21z"/>
<path d="M3884 1227 c-6 -7 -35 -11 -75 -10 -152 4 -2011 1 -2077 -4 -48 -3
-77 -1 -86 7 -12 9 -17 7 -25 -8 -8 -14 -17 -18 -32 -15 -15 4 -20 2 -17 -7 3
-9 31 -12 108 -11 58 1 107 6 110 11 3 4 546 10 1207 12 661 1 1205 6 1209 11
4 4 5 9 2 12 -2 3 -74 7 -159 9 -112 4 -157 2 -165 -7z"/>
<path d="M880 1201 c0 -6 -6 -11 -13 -11 -18 0 -42 -69 -29 -82 14 -14 33 -1
31 20 -4 45 0 53 27 46 22 -6 25 -4 22 12 -3 20 -38 33 -38 15z"/>
<path d="M4215 1189 c-8 -24 -8 -24 28 -33 34 -8 35 4 3 32 -25 21 -25 21 -31
1z"/>
<path d="M4247 1133 c-13 -12 -7 -33 8 -33 8 0 15 5 15 10 0 6 4 10 10 10 5 0
13 -18 16 -40 7 -45 31 -50 26 -5 -5 40 -55 79 -75 58z"/>
<path d="M791 1106 c-15 -18 -19 -65 -7 -66 6 -1 15 17 22 39 12 42 6 52 -15
27z"/>
<path d="M820 1025 c-11 -13 177 -15 1729 -15 1001 0 1741 4 1741 9 0 5 -10
11 -22 15 -13 3 -791 6 -1729 6 -1510 0 -1708 -2 -1719 -15z"/>
<path d="M758 953 c7 -3 16 -2 19 1 4 3 -2 6 -13 5 -11 0 -14 -3 -6 -6z"/>
<path d="M798 953 c7 -3 16 -2 19 1 4 3 -2 6 -13 5 -11 0 -14 -3 -6 -6z"/>
<path d="M913 953 c42 -2 112 -2 155 0 42 1 7 3 -78 3 -85 0 -120 -2 -77 -3z"/>
<path d="M1163 953 c9 -2 23 -2 30 0 6 3 -1 5 -18 5 -16 0 -22 -2 -12 -5z"/>
<path d="M1307 953 c18 -2 50 -2 70 0 21 2 7 4 -32 4 -38 0 -55 -2 -38 -4z"/>
<path d="M1498 953 c12 -2 30 -2 40 0 9 3 -1 5 -23 4 -22 0 -30 -2 -17 -4z"/>
<path d="M3641 955 c8 -8 539 -10 539 -2 0 4 -122 7 -272 7 -149 0 -269 -2
-267 -5z"/>
<path d="M4208 953 c12 -2 32 -2 45 0 12 2 2 4 -23 4 -25 0 -35 -2 -22 -4z"/>
<path d="M4298 953 c12 -2 32 -2 45 0 12 2 2 4 -23 4 -25 0 -35 -2 -22 -4z"/>
<path d="M2028 943 c6 -2 18 -2 25 0 6 3 1 5 -13 5 -14 0 -19 -2 -12 -5z"/>
<path d="M2325 861 c-3 -6 -3 -11 2 -11 4 0 114 -2 244 -4 131 -3 242 0 250 5
8 5 -77 9 -223 9 -130 0 -243 3 -251 6 -8 3 -18 1 -22 -5z"/>
<path d="M2850 834 c0 -8 9 -14 20 -14 11 0 20 4 20 9 0 5 -9 11 -20 14 -13 3
-20 0 -20 -9z"/>
<path d="M2933 755 c0 -27 2 -38 4 -22 2 15 2 37 0 50 -2 12 -4 0 -4 -28z"/>
<path d="M2265 760 c2 -14 5 -33 5 -43 0 -10 5 -15 10 -12 6 3 10 20 10 36 0
17 -4 28 -9 25 -5 -4 -12 0 -15 6 -4 7 -4 2 -1 -12z"/>
<path d="M2577 682 c-184 -1 -276 -6 -272 -12 7 -11 514 -12 575 0 l35 6 -30
4 c-16 3 -155 4 -308 2z"/>
</g>
</svg>
