<?xml version="1.0" standalone="no"?>
<!DOCTYPE svg PUBLIC "-//W3C//DTD SVG 20010904//EN"
 "http://www.w3.org/TR/2001/REC-SVG-20010904/DTD/svg10.dtd">
<svg version="1.0" xmlns="http://www.w3.org/2000/svg"
 width="512.000000pt" height="512.000000pt" viewBox="0 0 512.000000 512.000000"
 preserveAspectRatio="xMidYMid meet">
<metadata>
Created by potrace 1.16, written by Peter Selinger 2001-2019
</metadata>
<g transform="translate(0.000000,512.000000) scale(0.100000,-0.100000)"
fill="#000000" stroke="none">
<path d="M1705 4660 c0 -256 1 -360 2 -233 2 128 2 338 0 465 -1 128 -2 24 -2
-232z"/>
<path d="M3382 4508 c-1 -340 -6 -618 -11 -618 -4 0 -23 28 -41 63 -125 234
-367 562 -554 751 -134 136 -205 196 -232 196 -25 0 -176 -137 -286 -260 -134
-149 -357 -458 -468 -648 -23 -40 -46 -75 -51 -78 -5 -3 -9 -17 -9 -32 0 -21
11 -8 54 65 205 349 491 712 709 897 l57 48 110 -102 c142 -132 217 -216 369
-413 80 -104 232 -340 306 -473 l65 -119 0 -182 c0 -101 3 -183 8 -183 10 0 7
354 -4 376 -5 11 -11 314 -14 674 l-5 655 -3 -617z"/>
<path d="M1698 3675 l-3 -230 -65 -8 c-36 -4 -70 -13 -76 -20 -23 -25 -57
-221 -63 -364 -3 -79 -3 -143 2 -143 4 0 7 41 7 91 0 90 30 295 50 341 l11 23
-6 -25 c-7 -34 -24 -156 -35 -260 -13 -111 -12 -180 0 -180 6 0 10 31 10 72 0
91 18 274 35 357 8 35 11 69 8 77 -4 11 9 14 65 14 l70 0 4 218 c2 119 0 228
-3 242 -4 14 -9 -78 -11 -205z"/>
<path d="M0 3428 c0 -5 341 -7 758 -6 416 2 636 4 487 5 -703 7 -1245 7 -1245
1z"/>
<path d="M1725 3408 c-13 -42 -35 -123 -34 -132 0 -9 59 132 59 141 0 9 -21 1
-25 -9z"/>
<path d="M1765 3395 c-5 -17 -9 -37 -10 -45 0 -8 -10 -41 -23 -73 -22 -59 -45
-210 -30 -201 4 3 8 20 8 38 0 38 46 206 61 221 12 12 12 28 -1 20 -13 -8 -13
1 1 26 6 11 9 25 6 32 -2 7 -7 -2 -12 -18z"/>
<path d="M1996 3408 c-9 -28 -17 -73 -13 -68 17 19 35 70 27 75 -6 3 -12 0
-14 -7z"/>
<path d="M2044 3409 c-3 -5 0 -9 6 -9 6 0 8 -5 4 -12 -5 -9 -2 -8 9 1 14 11
23 11 42 3 19 -9 25 -9 25 0 0 6 3 8 7 5 3 -4 9 -35 13 -69 l7 -63 2 62 c0 34
4 69 7 77 5 14 -3 16 -55 15 -34 -1 -64 -6 -67 -10z"/>
<path d="M2181 3378 c1 -24 5 -56 9 -73 6 -24 8 -17 9 33 1 36 5 62 12 62 5 0
7 5 4 10 -3 6 -13 10 -21 10 -10 0 -14 -12 -13 -42z"/>
<path d="M2234 3398 c3 -14 15 -68 27 -118 12 -50 23 -89 26 -86 8 7 -38 209
-49 221 -7 7 -9 1 -4 -17z"/>
<path d="M2260 3408 c0 -4 4 -8 8 -8 4 0 8 -8 9 -17 7 -77 50 -226 64 -218 5
4 6 -1 3 -10 -4 -9 5 -32 21 -55 27 -38 43 -54 30 -27 -4 6 3 1 14 -13 11 -14
21 -32 22 -40 0 -11 2 -11 6 -2 4 10 8 10 20 0 9 -7 -7 18 -36 55 -28 37 -51
73 -51 80 0 6 -13 38 -29 72 -28 58 -51 136 -51 173 0 10 -7 19 -15 19 -8 0
-15 -4 -15 -9z m114 -294 c3 -8 2 -12 -4 -9 -6 3 -10 10 -10 16 0 14 7 11 14
-7z"/>
<path d="M2300 3409 c0 -17 52 -150 57 -146 1 2 -4 23 -12 48 -8 24 -16 57
-18 73 -3 29 -27 50 -27 25z"/>
<path d="M2350 3410 c0 -3 11 -39 24 -80 26 -85 73 -183 105 -220 l22 -25 -19
40 c-11 22 -27 66 -36 98 -9 32 -22 70 -28 85 -6 15 -11 45 -12 66 -1 35 -4
39 -28 40 -16 1 -28 -1 -28 -4z"/>
<path d="M2430 3411 c0 -41 61 -269 80 -299 12 -18 12 -18 -6 71 -3 16 -1 27
5 27 6 0 11 -7 11 -15 0 -8 5 -15 10 -15 15 0 12 26 -5 40 -8 7 -12 16 -9 21
3 5 0 9 -5 9 -6 0 -11 8 -11 18 0 10 -3 22 -7 26 -5 4 -15 33 -24 64 -8 31
-21 58 -27 60 -7 2 -12 -1 -12 -7z"/>
<path d="M2510 3388 c4 -18 13 -46 19 -62 7 -16 10 -35 7 -41 -2 -6 2 -12 9
-12 10 0 8 13 -6 55 -11 30 -19 63 -19 74 0 10 -4 18 -9 18 -5 0 -5 -14 -1
-32z"/>
<path d="M2545 3405 c5 -24 48 -135 52 -132 2 2 -4 24 -12 47 -9 24 -16 54
-17 66 -1 13 -5 21 -9 18 -4 -2 -9 -1 -12 3 -2 5 -3 4 -2 -2z"/>
<path d="M2580 3413 c1 -49 82 -259 117 -300 15 -18 6 7 -26 73 -27 55 -55
129 -62 163 -6 34 -16 64 -20 67 -5 3 -9 2 -9 -3z"/>
<path d="M2610 3401 c0 -11 4 -22 9 -25 4 -3 6 6 3 19 -5 30 -12 33 -12 6z"/>
<path d="M2657 3413 c-13 -12 -7 -32 14 -52 17 -16 19 -23 9 -40 -8 -15 -8
-26 0 -39 10 -15 10 -14 5 5 -6 24 9 40 21 22 4 -7 3 -9 -3 -6 -24 15 -3 -76
36 -158 43 -88 44 -104 4 -105 -7 0 -13 -7 -13 -15 0 -12 -4 -13 -19 -6 -21
12 -32 5 -24 -15 8 -21 39 -17 55 7 8 12 26 22 43 24 94 7 139 26 98 39 -10 3
-31 26 -46 51 -16 25 -34 45 -40 45 -5 0 -8 3 -4 6 3 4 -7 25 -22 48 -37 53
-91 161 -91 181 0 16 -12 20 -23 8z m59 -157 c0 -14 -5 -21 -9 -17 -4 4 -5 15
-1 24 9 24 12 21 10 -7z m61 -61 c5 -6 9 -17 11 -24 1 -7 15 -29 29 -48 22
-29 24 -36 12 -47 -11 -10 -18 -8 -38 11 -19 18 -21 23 -8 23 9 0 19 5 23 11
4 7 0 9 -14 5 -15 -5 -24 -1 -31 13 -16 29 -13 38 4 15 13 -18 14 -18 8 6 -4
14 -15 41 -26 60 l-19 35 21 -25 c12 -14 24 -30 28 -35z"/>
<path d="M2706 3412 c-3 -5 1 -9 9 -9 8 0 15 4 15 9 0 4 -4 8 -9 8 -6 0 -12
-4 -15 -8z"/>
<path d="M2770 3416 c0 -13 43 -76 52 -76 5 0 2 7 -6 16 -9 8 -19 26 -22 40
-3 13 -10 24 -15 24 -5 0 -9 -2 -9 -4z"/>
<path d="M2800 3410 c0 -5 7 -10 16 -10 8 0 12 5 9 10 -3 6 -10 10 -16 10 -5
0 -9 -4 -9 -10z"/>
<path d="M2840 3414 c0 -11 90 -188 102 -199 12 -13 -6 29 -54 123 -39 75 -41
83 -13 55 16 -16 17 -15 13 3 -3 17 -48 35 -48 18z"/>
<path d="M2910 3413 c0 -1 32 -67 70 -146 39 -79 70 -149 70 -155 0 -7 -9 -12
-20 -12 -29 0 -34 3 -35 20 -2 15 -34 80 -35 69 0 -4 6 -22 14 -41 8 -19 11
-40 7 -47 -6 -9 -11 -1 -15 22 -4 19 -27 66 -52 104 -26 37 -50 77 -55 88 -4
11 -8 15 -8 8 -1 -7 24 -59 54 -117 30 -57 55 -109 55 -116 0 -21 -20 1 -46
51 -13 27 -29 47 -34 44 -4 -3 -23 19 -40 50 -17 30 -36 57 -41 61 -5 3 13
-32 40 -78 27 -46 55 -82 60 -80 7 1 11 -15 11 -39 l0 -41 38 6 c20 3 59 7 85
8 27 1 50 5 53 9 5 8 56 2 92 -12 14 -5 26 -8 28 -7 1 2 -20 25 -48 51 -28 26
-48 41 -45 32 4 -8 2 -15 -3 -15 -6 0 -10 -7 -10 -15 0 -28 -18 -15 -43 30
-18 31 -21 45 -13 45 14 0 42 -28 39 -39 -1 -3 0 -8 2 -9 5 -5 0 19 -9 46 -4
12 -12 20 -17 17 -5 -4 -9 -1 -9 6 0 7 -22 50 -50 96 -27 46 -50 85 -50 86 0
2 19 4 43 5 38 2 44 0 55 -25 l12 -28 -5 28 c-4 21 -1 27 11 27 10 0 14 3 10
7 -6 6 -166 12 -166 6z m-10 -268 c0 -5 -5 -3 -10 5 -5 8 -10 20 -10 25 0 6 5
3 10 -5 5 -8 10 -19 10 -25z"/>
<path d="M3184 3405 c82 -206 176 -601 176 -739 0 -30 5 -58 11 -62 9 -5 10
20 5 97 -10 166 -18 229 -26 224 -4 -3 -8 13 -8 34 -1 36 -53 242 -87 341 -14
42 -15 42 -11 10 2 -19 7 -44 11 -55 5 -16 5 -17 -4 -5 -5 8 -17 45 -26 82
-10 37 -24 73 -33 80 -14 11 -15 10 -8 -7z m104 -255 c0 -8 -6 1 -13 20 -7 19
-13 42 -13 50 0 8 6 -1 13 -20 7 -19 13 -42 13 -50z"/>
<path d="M3253 3400 c3 -14 17 -68 32 -120 55 -192 77 -277 96 -375 l19 -100
-7 80 c-4 44 -6 94 -6 110 1 24 0 26 -6 10 -8 -20 -18 27 -36 168 -7 49 -43
173 -44 149 -1 -7 8 -45 19 -84 11 -39 15 -67 10 -62 -5 5 -21 59 -36 119 -15
61 -31 115 -37 120 -6 7 -8 1 -4 -15z"/>
<path d="M3290 3411 c0 -6 4 -12 9 -16 15 -9 90 -244 100 -315 5 -36 10 -157
10 -269 0 -112 3 -206 6 -209 16 -16 18 34 8 266 l-11 257 -40 120 c-22 66
-45 132 -52 148 -13 26 -30 37 -30 18z"/>
<path d="M3340 3413 c1 -5 7 -19 15 -33 l14 -25 -2 32 c-1 19 -7 33 -14 33 -7
0 -13 -3 -13 -7z"/>
<path d="M3544 3403 c28 -90 40 -201 39 -350 -1 -133 1 -163 12 -163 19 0 29
60 21 123 -4 29 -8 86 -11 127 -5 109 10 28 25 -130 7 -69 16 -129 21 -134 12
-14 12 5 -6 131 -36 258 -70 413 -92 413 -9 0 -12 -7 -9 -17z"/>
<path d="M3588 3411 c13 -8 1043 -3 1051 5 2 2 -236 4 -530 4 -294 0 -528 -4
-521 -9z"/>
<path d="M4658 3413 c7 -3 16 -2 19 1 4 3 -2 6 -13 5 -11 0 -14 -3 -6 -6z"/>
<path d="M1787 3390 c-3 -11 -3 -20 -1 -20 2 0 8 9 14 20 6 11 7 20 2 20 -6 0
-12 -9 -15 -20z"/>
<path d="M1829 3403 c-1 -5 -1 -12 0 -16 1 -4 -7 -22 -16 -40 -10 -18 -18 -39
-19 -47 -1 -8 -11 -62 -22 -120 -20 -106 -36 -277 -22 -230 4 14 8 40 9 58 1
17 5 32 10 32 4 0 7 -12 4 -27 -3 -26 -3 -27 6 -5 6 12 8 28 5 36 -3 7 2 30
10 50 9 21 18 61 21 89 5 46 2 41 -20 -37 -42 -147 -46 -119 -8 49 14 65 41
156 58 198 4 10 3 17 -4 17 -6 0 -12 -3 -12 -7z"/>
<path d="M1854 3374 c-9 -21 -19 -55 -21 -74 -6 -43 3 -37 10 6 3 17 12 45 22
63 9 18 14 35 11 38 -3 4 -13 -11 -22 -33z"/>
<path d="M1885 3374 c-23 -55 -55 -164 -55 -188 -1 -11 -9 -46 -20 -76 -10
-30 -17 -56 -16 -58 4 -3 70 152 106 248 15 41 31 83 35 93 4 9 3 17 -1 17 -5
0 -26 -50 -48 -111 -21 -60 -40 -108 -42 -106 -5 4 31 129 51 180 8 20 13 37
10 37 -3 0 -11 -16 -20 -36z"/>
<path d="M1955 3398 c-2 -7 -32 -89 -65 -181 -33 -93 -60 -170 -60 -173 0 -3
7 -4 16 -2 11 2 17 17 19 51 1 26 7 53 12 60 6 6 17 32 26 57 9 25 29 80 45
123 17 42 26 77 21 77 -5 0 -12 -6 -14 -12z"/>
<path d="M3120 3409 c0 -4 7 -22 15 -40 8 -19 14 -27 14 -19 0 14 -28 72 -29
59z"/>
<path d="M3152 3390 c7 -10 14 -18 15 -16 6 6 -9 36 -18 36 -5 0 -4 -9 3 -20z"/>
<path d="M3218 3393 c5 -10 12 -25 15 -33 3 -8 4 0 4 17 -1 19 -7 33 -15 33
-9 0 -10 -5 -4 -17z"/>
<path d="M3410 3361 c21 -54 38 -145 44 -236 2 -33 7 -76 11 -95 5 -27 4 -32
-5 -20 -9 12 -10 11 -5 -6 3 -12 6 -68 6 -125 1 -56 5 -112 10 -123 11 -27 9
303 -2 404 -15 124 -49 250 -69 250 -4 0 0 -22 10 -49z"/>
<path d="M3456 3390 c3 -14 11 -32 16 -40 6 -10 7 -7 2 10 -3 14 -11 32 -16
40 -6 10 -7 7 -2 -10z"/>
<path d="M3481 3394 c0 -11 3 -14 6 -6 3 7 2 16 -1 19 -3 4 -6 -2 -5 -13z"/>
<path d="M1587 3339 c-10 -34 -16 -63 -14 -66 7 -6 40 103 36 116 -2 6 -12
-17 -22 -50z"/>
<path d="M1625 3348 c-14 -49 -32 -141 -55 -293 -5 -33 -9 -85 -9 -115 1 -41
5 -25 14 60 13 112 44 277 66 353 6 22 8 41 5 44 -2 3 -12 -19 -21 -49z"/>
<path d="M1656 3344 c-34 -108 -56 -262 -55 -394 1 -69 5 -136 9 -150 5 -15 8
37 9 130 1 181 13 293 42 386 11 36 19 70 17 76 -2 5 -12 -16 -22 -48z"/>
<path d="M2820 3386 c0 -4 7 -14 15 -22 8 -9 15 -11 15 -6 0 5 -7 15 -15 22
-8 7 -15 9 -15 6z"/>
<path d="M3500 3385 c-7 -45 -4 -80 11 -145 9 -41 19 -88 22 -105 l4 -30 1 30
c1 17 -5 63 -13 104 -9 40 -14 76 -11 78 6 6 26 -83 41 -182 13 -80 13 -80 14
-25 0 30 -8 89 -19 130 -21 83 -48 160 -50 145z"/>
<path d="M1672 3293 c-25 -102 -47 -251 -38 -260 3 -4 6 3 6 15 0 11 14 89 30
173 17 84 29 154 27 156 -2 2 -13 -36 -25 -84z"/>
<path d="M2761 3350 c14 -31 19 -36 19 -24 0 6 -7 19 -16 30 -14 18 -14 18 -3
-6z"/>
<path d="M2890 3365 c0 -5 5 -17 10 -25 5 -8 10 -10 10 -5 0 6 -5 17 -10 25
-5 8 -10 11 -10 5z"/>
<path d="M2621 3344 c0 -11 3 -14 6 -6 3 7 2 16 -1 19 -3 4 -6 -2 -5 -13z"/>
<path d="M2747 3325 c9 -19 18 -33 21 -31 4 5 -26 66 -33 66 -3 0 3 -16 12
-35z"/>
<path d="M3384 3346 c4 -10 14 -48 23 -83 8 -35 18 -61 21 -59 7 8 -28 139
-41 151 -7 7 -8 4 -3 -9z"/>
<path d="M2211 3315 c-1 -22 -4 -51 -6 -65 -4 -20 -4 -21 3 -6 9 20 16 9 56
-86 8 -21 17 -38 19 -38 7 0 -21 81 -35 105 -7 11 -18 45 -24 75 -12 54 -12
54 -13 15z"/>
<path d="M3060 3338 c0 -3 9 -15 20 -28 11 -13 20 -19 20 -13 0 5 -9 18 -20
28 -11 10 -20 16 -20 13z"/>
<path d="M2630 3315 c0 -5 5 -17 10 -25 5 -8 10 -10 10 -5 0 6 -5 17 -10 25
-5 8 -10 11 -10 5z"/>
<path d="M3175 3310 c-3 -5 15 -58 39 -117 25 -59 45 -102 46 -95 0 16 -49
142 -61 158 -5 6 -10 23 -11 38 -3 29 -4 31 -13 16z"/>
<path d="M3471 3294 c0 -11 3 -14 6 -6 3 7 2 16 -1 19 -3 4 -6 -2 -5 -13z"/>
<path d="M1775 3289 c-4 -6 -5 -12 -2 -15 2 -3 7 2 10 11 7 17 1 20 -8 4z"/>
<path d="M1950 3251 c-6 -16 -9 -34 -6 -40 3 -5 2 -11 -4 -13 -6 -2 -12 -12
-14 -24 -2 -11 -14 -38 -25 -60 -22 -41 -14 -68 14 -44 12 10 36 11 98 6 45
-4 102 -9 127 -10 25 -1 71 -11 103 -21 43 -13 61 -15 69 -7 8 8 4 14 -18 23
-31 12 -84 22 -121 23 -13 1 -23 3 -23 6 0 3 -21 6 -48 7 -26 1 -56 4 -67 7
-11 2 -28 5 -37 5 -13 1 -18 9 -18 29 l-1 27 -13 -31 c-8 -17 -21 -34 -30 -37
-20 -8 -20 -8 4 53 11 28 18 55 15 60 -3 5 0 21 5 36 14 37 6 42 -10 5z"/>
<path d="M2770 3271 c0 -5 7 -15 17 -22 15 -13 15 -12 4 9 -12 23 -21 28 -21
13z"/>
<path d="M3130 3271 c0 -6 4 -13 10 -16 6 -3 7 1 4 9 -7 18 -14 21 -14 7z"/>
<path d="M2650 3261 c0 -6 4 -13 10 -16 6 -3 7 1 4 9 -7 18 -14 21 -14 7z"/>
<path d="M3106 3257 c3 -10 9 -15 12 -12 3 3 0 11 -7 18 -10 9 -11 8 -5 -6z"/>
<path d="M3481 3254 c0 -11 3 -14 6 -6 3 7 2 16 -1 19 -3 4 -6 -2 -5 -13z"/>
<path d="M2566 3247 c3 -10 9 -15 12 -12 3 3 0 11 -7 18 -10 9 -11 8 -5 -6z"/>
<path d="M1566 3188 c-4 -35 -9 -79 -11 -98 -4 -31 -4 -32 4 -8 10 31 25 168
18 168 -2 0 -7 -28 -11 -62z"/>
<path d="M1745 3176 c-9 -41 -15 -81 -13 -87 2 -7 12 25 21 71 20 106 14 118
-8 16z"/>
<path d="M3485 3208 c4 -13 9 -96 12 -186 3 -90 7 -161 9 -159 2 2 7 42 10 90
7 93 -12 277 -28 277 -6 0 -7 -9 -3 -22z"/>
<path d="M2172 3200 c0 -14 2 -19 5 -12 2 6 2 18 0 25 -3 6 -5 1 -5 -13z"/>
<path d="M3432 3160 c0 -19 2 -27 5 -17 2 9 2 25 0 35 -3 9 -5 1 -5 -18z"/>
<path d="M2290 3167 c0 -4 9 -24 20 -44 11 -21 20 -31 20 -23 0 8 -9 29 -20
45 -11 17 -20 27 -20 22z"/>
<path d="M2546 3155 c-4 -10 -2 -14 5 -9 6 4 15 0 20 -7 4 -7 10 -11 14 -8 3
3 -3 13 -14 23 -17 15 -19 15 -25 1z"/>
<path d="M1681 3153 c-1 -6 -5 -45 -10 -85 -16 -120 -23 -213 -17 -207 8 8 38
278 32 292 -3 9 -5 9 -5 0z"/>
<path d="M3211 3110 c0 -14 3 -32 9 -40 15 -24 18 -7 4 30 -11 31 -13 32 -13
10z"/>
<path d="M2410 3116 c0 -2 8 -10 18 -17 15 -13 16 -12 3 4 -13 16 -21 21 -21
13z"/>
<path d="M2587 3099 c3 -11 12 -23 19 -26 8 -3 14 -11 14 -19 0 -15 34 -37 43
-28 3 4 -7 17 -23 31 -16 13 -32 33 -35 43 -8 27 -25 26 -18 -1z"/>
<path d="M3543 3065 c0 -22 2 -30 4 -17 2 12 2 30 0 40 -3 9 -5 -1 -4 -23z"/>
<path d="M2461 3063 c7 -12 15 -20 18 -17 3 2 -3 12 -13 22 -17 16 -18 16 -5
-5z"/>
<path d="M2490 3073 c0 -5 9 -18 20 -28 11 -10 20 -14 20 -8 0 5 -9 18 -20 28
-11 10 -20 14 -20 8z"/>
<path d="M1722 3045 c0 -16 2 -22 5 -12 2 9 2 23 0 30 -3 6 -5 -1 -5 -18z"/>
<path d="M2330 3040 c0 -24 15 -27 24 -4 3 9 11 12 18 8 7 -4 10 -3 5 1 -4 5
-16 10 -27 12 -14 2 -20 -3 -20 -17z"/>
<path d="M1542 3020 c0 -19 2 -27 5 -17 2 9 2 25 0 35 -3 9 -5 1 -5 -18z"/>
<path d="M1693 2980 c0 -30 2 -43 4 -27 2 15 2 39 0 55 -2 15 -4 2 -4 -28z"/>
<path d="M2366 3015 c4 -8 8 -15 10 -15 2 0 4 7 4 15 0 8 -4 15 -10 15 -5 0
-7 -7 -4 -15z"/>
<path d="M2501 3014 c0 -11 3 -14 6 -6 3 7 2 16 -1 19 -3 4 -6 -2 -5 -13z"/>
<path d="M3543 3004 c-3 -8 -1 -20 6 -27 8 -8 11 -4 11 16 0 30 -7 35 -17 11z"/>
<path d="M1632 2980 c0 -19 2 -27 5 -17 2 9 2 25 0 35 -3 9 -5 1 -5 -18z"/>
<path d="M1722 2968 c-6 -24 -15 -70 -21 -103 -18 -100 -20 -103 -16 -20 3 63
2 71 -5 40 -5 -22 -9 -93 -10 -157 l-2 -118 -47 0 c-32 -1 -41 -3 -31 -10 9
-5 46 -5 85 -1 39 5 55 9 38 10 -31 1 -33 3 -33 40 0 38 4 60 35 211 19 86 28
150 22 150 -2 0 -9 -19 -15 -42z"/>
<path d="M1896 3003 c-14 -15 -4 -23 30 -23 19 0 33 -4 30 -8 -2 -4 3 -8 12
-9 9 -1 36 -3 60 -4 23 -2 42 -7 42 -11 0 -11 28 -10 32 1 2 5 14 4 28 -2 33
-13 71 -16 64 -5 -4 5 10 7 33 3 28 -5 34 -4 23 4 -8 6 -29 11 -47 11 -17 0
-67 7 -110 15 -43 8 -100 18 -128 21 -27 4 -53 8 -56 10 -3 2 -9 1 -13 -3z"/>
<path d="M3179 2996 c-2 -2 -32 -6 -65 -9 -75 -7 -144 -25 -164 -45 -13 -13
-12 -14 10 -9 24 6 24 5 6 -8 -11 -8 -27 -15 -37 -15 -9 0 -31 -13 -49 -30
-18 -16 -36 -30 -40 -30 -8 0 -40 -45 -40 -57 0 -4 19 11 43 34 68 66 138 93
247 95 26 0 37 4 29 9 -7 4 -27 5 -44 3 -22 -4 -26 -3 -14 5 8 5 26 12 40 14
13 2 32 7 42 12 10 4 36 5 57 2 22 -3 43 -1 46 4 3 5 -4 9 -15 9 -12 0 -21 5
-21 10 0 10 -22 14 -31 6z"/>
<path d="M1885 2960 c3 -5 8 -10 11 -10 2 0 4 5 4 10 0 6 -5 10 -11 10 -5 0
-7 -4 -4 -10z"/>
<path d="M2855 2950 c3 -5 8 -10 11 -10 2 0 4 5 4 10 0 6 -5 10 -11 10 -5 0
-7 -4 -4 -10z"/>
<path d="M2888 2953 c7 -3 16 -2 19 1 4 3 -2 6 -13 5 -11 0 -14 -3 -6 -6z"/>
<path d="M2290 2940 c0 -5 5 -10 10 -10 6 0 10 5 10 10 0 6 -4 10 -10 10 -5 0
-10 -4 -10 -10z"/>
<path d="M2773 2933 c9 -2 23 -2 30 0 6 3 -1 5 -18 5 -16 0 -22 -2 -12 -5z"/>
<path d="M2095 2921 c-6 -11 60 -35 78 -28 6 3 -3 8 -20 12 -18 4 -33 11 -33
16 0 12 -17 11 -25 0z"/>
<path d="M1741 2904 c0 -11 3 -14 6 -6 3 7 2 16 -1 19 -3 4 -6 -2 -5 -13z"/>
<path d="M1923 2913 c-23 -9 -14 -25 10 -17 12 4 40 11 62 15 l40 6 -50 1
c-27 0 -56 -2 -62 -5z"/>
<path d="M2058 2913 c7 -3 16 -2 19 1 4 3 -2 6 -13 5 -11 0 -14 -3 -6 -6z"/>
<path d="M1990 2887 c-41 -9 -43 -11 -20 -18 35 -10 60 -10 35 1 -37 16 67 11
113 -5 99 -35 165 -84 197 -145 18 -34 1 -53 -20 -24 -13 18 -13 18 -12 -1 2
-15 -5 -21 -25 -23 -49 -6 -30 -21 22 -17 59 4 70 10 70 36 0 12 4 17 11 13
21 -12 -86 95 -124 125 -62 49 -171 74 -247 58z"/>
<path d="M2975 2887 c-59 -20 -101 -44 -122 -70 -10 -12 -29 -30 -43 -40 -13
-9 -21 -17 -17 -17 4 0 -4 -12 -18 -27 -14 -15 -25 -33 -25 -40 0 -7 -1 -16
-2 -20 -2 -5 39 -10 90 -13 50 -3 92 -2 92 1 0 7 -78 19 -126 19 -19 0 -34 4
-34 9 0 6 25 36 55 69 97 106 210 142 331 107 32 -9 64 -21 71 -27 7 -5 18 -6
24 -2 20 12 -106 54 -175 60 -36 2 -77 -2 -101 -9z"/>
<path d="M1462 2878 c-19 -25 -32 -94 -32 -180 0 -52 4 -88 10 -88 6 0 10 41
10 103 0 113 13 150 50 140 11 -3 23 -10 27 -16 4 -6 0 -8 -10 -4 -24 9 -22 3
18 -54 39 -56 48 -51 43 22 -3 36 -8 47 -37 66 -38 26 -64 29 -79 11z"/>
<path d="M3540 2851 c-26 -25 -30 -37 -30 -81 0 -32 4 -49 10 -45 6 3 10 12
10 19 0 7 9 21 20 31 11 10 17 22 14 27 -3 4 0 7 8 6 7 -2 12 2 11 7 -1 7 12
9 33 7 33 -4 34 -6 35 -51 1 -25 3 -55 4 -66 1 -11 2 -37 3 -57 1 -21 7 -38
13 -38 19 0 2 198 -20 235 -25 44 -71 46 -111 6z m81 -10 c-12 -8 -51 -4 -51
5 0 2 15 4 33 4 22 0 28 -3 18 -9z"/>
<path d="M1732 2840 c0 -19 2 -27 5 -17 2 9 2 25 0 35 -3 9 -5 1 -5 -18z"/>
<path d="M1905 2850 c-3 -5 3 -10 14 -10 11 0 23 5 26 10 3 6 -3 10 -14 10
-11 0 -23 -4 -26 -10z"/>
<path d="M2110 2816 c0 -14 47 -28 55 -16 2 4 -7 12 -21 19 -32 14 -34 14 -34
-3z"/>
<path d="M2990 2819 c0 -5 5 -7 10 -4 6 3 10 8 10 11 0 2 -4 4 -10 4 -5 0 -10
-5 -10 -11z"/>
<path d="M1995 2800 c-42 -21 -47 -32 -24 -53 39 -36 10 -51 -38 -20 -26 17
-26 17 -15 -4 13 -24 32 -33 73 -33 16 0 28 -5 27 -11 -5 -19 103 -21 165 -3
31 9 57 21 57 25 0 5 7 6 16 2 23 -9 5 23 -34 60 -29 28 -29 28 -25 5 7 -37
-37 -78 -84 -78 -55 1 -76 21 -83 78 l-5 48 -30 -16z"/>
<path d="M3025 2790 c8 -38 -8 -60 -38 -53 -29 8 -48 23 -41 34 3 5 0 9 -5 9
-6 0 -11 -8 -11 -19 0 -26 45 -53 83 -49 26 2 33 9 41 37 8 27 7 36 -7 46 -9
6 -14 15 -10 18 3 4 1 7 -6 7 -9 0 -11 -9 -6 -30z"/>
<path d="M3275 2810 c-3 -5 1 -10 9 -10 9 0 16 5 16 10 0 6 -4 10 -9 10 -6 0
-13 -4 -16 -10z"/>
<path d="M2960 2796 c0 -9 7 -16 16 -16 9 0 14 5 12 12 -6 18 -28 21 -28 4z"/>
<path d="M3078 2773 c5 -53 -24 -83 -82 -83 -50 0 -86 30 -86 73 0 15 -2 27
-5 27 -8 0 -85 -84 -85 -93 0 -2 19 -4 43 -5 23 -2 57 -7 75 -13 18 -6 53 -9
78 -7 24 2 46 -1 48 -7 3 -5 5 -3 5 6 1 24 42 32 58 11 13 -15 13 -15 4 4 -8
17 -7 25 4 34 8 6 18 9 24 6 12 -8 41 3 41 16 0 5 -9 6 -20 3 -13 -4 -22 -1
-26 9 -5 13 -63 56 -75 56 -3 0 -3 -17 -1 -37z"/>
<path d="M3603 2772 c-15 -9 -34 -144 -22 -156 17 -18 31 10 36 73 5 48 3 61
-8 61 -11 0 -11 2 1 10 8 5 12 11 9 14 -2 3 -10 2 -16 -2z"/>
<path d="M1496 2751 c-3 -4 -3 -38 1 -75 6 -65 7 -66 34 -66 37 0 38 24 7 97
-23 52 -32 61 -42 44z m44 -96 c10 -12 10 -15 -4 -15 -9 0 -16 7 -16 15 0 8 2
15 4 15 2 0 9 -7 16 -15z"/>
<path d="M2055 2751 c-10 -17 26 -41 60 -41 33 0 47 11 51 38 2 11 0 11 -13 0
-22 -18 -73 -19 -73 -2 0 16 -16 19 -25 5z"/>
<path d="M1762 2723 c2 -42 16 -55 41 -41 21 11 21 11 -5 33 -15 13 -24 26
-21 29 4 3 1 6 -5 6 -7 0 -11 -12 -10 -27z m39 -20 c10 -11 10 -14 2 -9 -8 4
-13 2 -13 -4 0 -6 -4 -9 -10 -5 -5 3 -7 12 -3 20 7 19 8 19 24 -2z"/>
<path d="M1642 2710 c0 -19 2 -27 5 -17 2 9 2 25 0 35 -3 9 -5 1 -5 -18z"/>
<path d="M2547 2733 c-8 -14 -3 -263 5 -263 4 0 8 61 8 135 0 126 -2 146 -13
128z"/>
<path d="M1461 2714 c0 -11 3 -14 6 -6 3 7 2 16 -1 19 -3 4 -6 -2 -5 -13z"/>
<path d="M3551 2704 c0 -11 3 -14 6 -6 3 7 2 16 -1 19 -3 4 -6 -2 -5 -13z"/>
<path d="M3267 2689 c4 -13 8 -18 11 -10 2 7 -1 18 -6 23 -8 8 -9 4 -5 -13z"/>
<path d="M3500 2658 c0 -47 -1 -48 -30 -48 -16 0 -30 -4 -30 -10 0 -12 40 -13
59 -1 16 10 23 72 10 92 -6 9 -9 -2 -9 -33z"/>
<path d="M1581 2674 c0 -11 3 -14 6 -6 3 7 2 16 -1 19 -3 4 -6 -2 -5 -13z"/>
<path d="M2128 2627 c-38 -11 -68 -24 -68 -28 0 -12 27 -11 49 1 10 5 31 11
46 14 28 5 53 22 44 30 -2 2 -34 -6 -71 -17z"/>
<path d="M3220 2639 c-8 -5 -28 -14 -44 -19 -16 -6 -27 -12 -25 -14 9 -9 178
7 173 16 -4 5 -15 8 -25 5 -11 -3 -26 1 -33 9 -17 16 -25 17 -46 3z"/>
<path d="M1760 2623 c0 -9 23 -13 81 -13 60 0 80 3 76 13 -2 8 -28 12 -80 12
-55 0 -77 -4 -77 -12z"/>
<path d="M2873 2633 c4 -6 24 -14 44 -18 21 -3 49 -9 62 -12 15 -4 22 -2 18 4
-4 6 -24 13 -44 17 -21 3 -49 9 -62 13 -16 4 -22 2 -18 -4z"/>
<path d="M238 2603 c134 -2 350 -2 480 0 130 1 21 2 -243 2 -264 0 -371 -1
-237 -2z"/>
<path d="M993 2603 c15 -2 39 -2 55 0 15 2 2 4 -28 4 -30 0 -43 -2 -27 -4z"/>
<path d="M2195 2584 c-109 -66 -159 -84 -268 -96 -59 -6 -107 -15 -107 -20 0
-11 35 -10 141 2 62 7 102 18 140 38 81 43 139 81 139 92 0 12 3 13 -45 -16z"/>
<path d="M4033 2603 c9 -2 25 -2 35 0 9 3 1 5 -18 5 -19 0 -27 -2 -17 -5z"/>
<path d="M4348 2603 c145 -2 379 -2 520 0 141 1 23 2 -263 2 -286 0 -402 -1
-257 -2z"/>
<path d="M2830 2593 c0 -5 20 -16 43 -27 23 -10 58 -26 78 -36 70 -35 175 -61
269 -67 52 -3 92 -3 89 0 -3 4 -55 14 -116 22 -118 16 -174 33 -286 84 -75 34
-77 34 -77 24z"/>
<path d="M3028 2593 c6 -2 18 -2 25 0 6 3 1 5 -13 5 -14 0 -19 -2 -12 -5z"/>
<path d="M1560 2490 c-33 -5 -16 -7 68 -8 61 -1 112 -4 112 -6 0 -2 28 -84 61
-182 90 -262 136 -346 261 -471 39 -40 70 -74 67 -76 -2 -2 -23 -2 -46 1 -40
4 -43 6 -59 54 -9 27 -18 47 -21 45 -2 -3 3 -31 13 -62 l18 -56 55 0 c31 0
241 -1 468 -2 l412 -2 32 30 c144 136 229 285 321 562 l53 163 130 1 130 2
-116 9 c-73 6 -124 5 -141 -1 -22 -8 -32 -30 -82 -182 -78 -239 -138 -357
-227 -448 -38 -39 -66 -71 -62 -71 4 0 -8 -10 -27 -22 -31 -20 -47 -23 -140
-22 -341 4 -614 3 -622 -2 -25 -16 -75 12 -139 79 -38 40 -69 75 -69 80 0 4
-11 19 -24 34 -45 49 -114 199 -165 363 -34 107 -59 171 -73 183 -21 18 -97
21 -188 7z"/>
<path d="M7 2478 c-7 -4 188 -7 433 -6 245 1 429 3 410 5 -76 7 -833 8 -843 1z"/>
<path d="M4435 2480 l-540 -5 613 -3 c403 -1 612 1 612 8 0 6 -29 9 -72 8 -40
-2 -316 -5 -613 -8z"/>
<path d="M983 2473 c53 -2 141 -2 195 0 53 1 9 3 -98 3 -107 0 -151 -2 -97 -3z"/>
<path d="M1395 2387 c-4 -47 -5 -91 -3 -99 3 -7 8 29 12 80 4 52 5 96 3 99 -3
2 -8 -34 -12 -80z"/>
<path d="M3681 2445 c-3 -16 -5 -109 -6 -205 -2 -112 -8 -208 -19 -265 -19
-101 -56 -228 -68 -233 -11 -5 -10 -22 1 -22 7 0 42 74 47 100 0 3 3 12 7 20
10 28 20 75 18 88 -1 6 3 12 9 12 6 0 9 4 5 9 -3 5 -1 40 5 78 6 37 9 154 8
258 -2 105 -5 177 -7 160z"/>
<path d="M3704 2453 c3 -10 6 -139 8 -288 2 -263 -6 -348 -37 -427 -4 -10 -3
-18 3 -18 11 0 36 99 48 187 9 73 -6 563 -18 563 -5 0 -7 -8 -4 -17z"/>
<path d="M1433 2302 c-6 -86 -8 -186 -4 -222 5 -49 8 -11 14 154 5 120 6 220
5 222 -2 2 -9 -67 -15 -154z"/>
<path d="M1471 2369 c-14 -112 -8 -129 8 -22 7 43 14 86 16 96 2 9 0 17 -4 17
-4 0 -13 -41 -20 -91z"/>
<path d="M1531 2425 c-1 -24 -5 -35 -9 -28 -24 38 -8 -331 20 -462 16 -79 59
-215 70 -221 32 -20 27 69 -7 136 -19 38 -35 125 -50 278 l-14 137 5 -115 c6
-125 25 -249 48 -303 15 -36 31 -117 23 -117 -6 0 -52 149 -66 215 -23 109
-34 316 -21 406 7 48 10 93 7 100 -3 8 -6 -4 -6 -26z"/>
<path d="M1565 2428 c-14 -61 17 -450 43 -543 8 -29 9 -29 16 18 4 27 3 53 -2
60 -5 7 -9 19 -10 27 0 8 -6 49 -13 90 -7 41 -13 144 -13 227 -1 149 -7 185
-21 121z"/>
<path d="M3510 2460 c-1 -3 -4 -18 -6 -34 -2 -20 0 -26 7 -19 6 6 9 21 6 34
-2 13 -5 22 -7 19z"/>
<path d="M3540 2428 c0 -43 -28 -244 -46 -338 -9 -41 -17 -88 -18 -105 -2 -18
-1 -20 1 -5 4 21 33 73 33 59 0 -17 -24 -84 -69 -188 -17 -41 -29 -76 -27 -78
7 -7 74 133 91 187 9 30 20 123 26 205 13 205 20 268 31 283 8 8 6 12 -6 12
-11 0 -16 -9 -16 -32z"/>
<path d="M3588 2430 c-11 -55 -16 -220 -8 -220 8 0 6 -52 -5 -149 -7 -63 4
-45 15 25 11 69 22 215 12 164 -12 -62 -20 -18 -10 60 5 41 7 93 6 115 l-4 40
-6 -35z"/>
<path d="M3637 2338 c-4 -62 -7 -158 -7 -214 0 -96 -30 -280 -48 -293 -15 -12
-41 -106 -32 -115 10 -10 16 5 50 106 36 105 49 215 50 426 0 111 -1 202 -3
202 -2 0 -7 -51 -10 -112z"/>
<path d="M3502 2349 c6 -16 12 -28 14 -26 5 5 -13 57 -20 57 -3 0 0 -14 6 -31z"/>
<path d="M1602 2330 c-1 -57 24 -226 30 -210 4 8 7 -10 7 -40 1 -31 5 -60 10
-65 6 -6 11 -30 12 -55 2 -53 22 -141 44 -195 24 -57 27 -36 4 25 -11 29 -24
92 -30 139 -10 91 -55 356 -69 406 l-8 30 0 -35z"/>
<path d="M2503 2352 c-13 -2 -23 -7 -23 -12 0 -13 31 -21 47 -11 22 12 55 2
49 -15 -3 -8 1 -14 9 -14 16 0 17 5 6 34 -7 19 -38 25 -88 18z"/>
<path d="M3612 2320 c0 -19 2 -27 5 -17 2 9 2 25 0 35 -3 9 -5 1 -5 -18z"/>
<path d="M2750 2298 c0 -87 -27 -128 -85 -128 -15 0 -33 -7 -42 -15 -8 -8 -19
-13 -24 -10 -5 4 -9 -4 -8 -17 0 -13 3 -17 6 -10 2 6 9 10 14 6 5 -3 9 0 9 6
0 6 5 8 10 5 6 -4 17 -2 24 4 8 7 18 11 22 10 5 -1 22 3 37 9 36 15 56 64 52
126 -5 62 -15 73 -15 14z"/>
<path d="M1491 2314 c0 -11 3 -14 6 -6 3 7 2 16 -1 19 -3 4 -6 -2 -5 -13z"/>
<path d="M2676 2319 c13 -21 15 -49 4 -49 -6 0 -10 5 -10 10 0 6 -14 4 -34 -4
-19 -8 -37 -12 -40 -10 -3 2 -4 1 -1 -3 3 -3 -3 -12 -13 -19 -9 -7 -14 -15
-10 -19 3 -4 16 3 27 14 22 22 75 28 86 11 9 -15 -14 -40 -36 -40 -11 0 -19
-4 -19 -10 0 -15 32 -12 54 5 26 20 27 103 1 118 -14 7 -16 7 -9 -4z"/>
<path d="M2331 2265 c-2 -61 20 -95 62 -95 20 0 19 2 -10 21 -30 19 -33 26
-33 69 0 68 -17 72 -19 5z"/>
<path d="M2377 2302 c-5 -7 -6 -24 -3 -38 6 -24 7 -24 37 -9 36 19 61 13 88
-21 19 -25 31 -31 31 -16 0 36 -114 87 -131 60 -4 -6 -9 -1 -11 13 -2 17 -5
20 -11 11z"/>
<path d="M3468 2279 c5 -32 25 -34 30 -3 3 16 1 16 -7 4 -9 -13 -11 -13 -11 2
0 9 -4 19 -8 22 -5 3 -6 -9 -4 -25z"/>
<path d="M1651 2275 c0 -11 7 -36 15 -55 l14 -35 -6 40 c-7 46 -24 83 -23 50z"/>
<path d="M1486 2095 c2 -132 7 -195 19 -235 20 -66 55 -144 61 -138 2 3 -6 29
-20 59 -27 61 -57 184 -55 226 1 20 3 22 6 8 21 -104 49 -202 64 -232 25 -48
24 -27 0 30 -22 51 -45 167 -60 307 -6 52 -13 109 -15 125 -2 17 -2 -51 0
-150z"/>
<path d="M3541 2254 c0 -11 3 -14 6 -6 3 7 2 16 -1 19 -3 4 -6 -2 -5 -13z"/>
<path d="M1766 2237 c-14 -11 -16 -18 -8 -33 5 -10 13 -44 17 -74 3 -30 13
-87 21 -127 7 -39 11 -79 8 -87 -4 -9 -1 -16 6 -16 8 0 11 -9 8 -25 -3 -14 -1
-28 4 -31 4 -3 6 -9 3 -13 -2 -5 2 -29 11 -54 17 -51 40 -78 40 -47 0 10 -4
16 -10 13 -5 -4 -6 6 -2 23 5 20 4 25 -3 14 -7 -11 -10 -7 -9 15 0 17 -5 48
-11 71 -6 22 -16 87 -22 145 -5 57 -14 108 -18 114 -11 14 -21 56 -12 51 4 -3
8 13 8 35 2 42 -3 46 -31 26z m16 -29 c-7 -7 -12 -8 -12 -2 0 6 3 14 7 17 3 4
9 5 12 2 2 -3 -1 -11 -7 -17z m15 -150 c-3 -8 -6 -5 -6 6 -1 11 2 17 5 13 3
-3 4 -12 1 -19z"/>
<path d="M1407 2080 c2 -91 6 -178 9 -195 4 -26 3 -27 -7 -11 -6 10 -15 88
-19 175 l-8 156 2 -155 c2 -145 5 -161 34 -245 17 -49 30 -74 27 -55 -13 94
-26 238 -34 360 l-9 135 5 -165z"/>
<path d="M3340 2237 c0 -22 -74 -326 -88 -362 -32 -82 -34 -92 -13 -55 11 19
20 28 21 20 0 -8 -9 -30 -20 -48 -21 -34 -25 -52 -12 -52 9 0 62 114 61 132 0
7 -4 4 -9 -7 -17 -39 -9 10 10 60 11 29 19 42 20 30 1 -12 4 -15 7 -7 3 7 0
19 -7 27 -9 10 -5 38 15 122 15 59 31 113 36 119 9 11 2 24 -13 24 -4 0 -8 -1
-8 -3z"/>
<path d="M3461 2224 c0 -11 3 -14 6 -6 3 7 2 16 -1 19 -3 4 -6 -2 -5 -13z"/>
<path d="M3477 2158 c-4 -46 -9 -94 -12 -108 l-6 -25 11 25 c12 26 27 190 18
190 -3 0 -8 -37 -11 -82z"/>
<path d="M2410 2221 c0 -16 42 -23 70 -12 l25 10 -25 -1 c-14 -1 -35 2 -47 6
-14 4 -23 3 -23 -3z"/>
<path d="M3399 2218 c0 -2 -2 -14 -4 -28 -4 -26 -40 -197 -50 -240 -5 -19 -4
-21 4 -10 5 9 19 63 32 120 30 145 32 160 25 160 -3 0 -6 -1 -7 -2z"/>
<path d="M3456 2173 c-19 -64 -56 -217 -52 -220 6 -6 42 110 55 176 11 52 9
82 -3 44z"/>
<path d="M1691 2161 c-1 -14 8 -58 20 -99 11 -40 18 -80 15 -88 -4 -10 -2 -12
6 -8 8 5 9 -4 5 -32 -4 -27 -3 -34 3 -24 8 12 10 12 10 1 0 -8 2 -12 5 -9 6 6
-29 176 -49 238 -10 32 -15 38 -15 21z"/>
<path d="M2420 2161 c0 -6 5 -13 10 -16 6 -3 10 1 10 9 0 9 -4 16 -10 16 -5 0
-10 -4 -10 -9z"/>
<path d="M2473 2148 c21 -20 37 -23 37 -8 0 6 -8 10 -18 10 -10 0 -22 3 -28 8
-5 4 -1 -1 9 -10z"/>
<path d="M3552 2081 c-7 -49 -19 -107 -27 -130 -8 -23 -10 -39 -4 -36 11 7 2
-38 -13 -68 -5 -10 -8 -21 -5 -23 9 -9 37 77 48 144 13 85 23 202 17 202 -2 0
-10 -40 -16 -89z"/>
<path d="M1742 2110 c0 -8 4 -26 8 -40 6 -20 8 -21 8 -5 0 11 -3 29 -8 40 -5
12 -8 14 -8 5z"/>
<path d="M3611 2095 c-1 -33 -17 -99 -31 -130 -20 -43 -82 -247 -76 -252 9 -9
35 61 48 125 10 45 13 52 18 33 4 -16 13 18 29 101 13 69 21 132 18 139 -3 8
-6 1 -6 -16z m-34 -187 c-3 -8 -6 -5 -6 6 -1 11 2 17 5 13 3 -3 4 -12 1 -19z"/>
<path d="M1471 2064 c0 -11 3 -14 6 -6 3 7 2 16 -1 19 -3 4 -6 -2 -5 -13z"/>
<path d="M2575 2069 c-5 -6 -31 -8 -76 -3 -63 6 -74 4 -124 -21 -30 -16 -62
-36 -71 -47 -10 -10 -23 -18 -31 -18 -7 0 -13 -7 -13 -15 0 -24 22 -18 76 23
78 58 107 68 164 53 40 -10 54 -10 85 3 44 19 58 13 161 -65 49 -37 69 -47 75
-38 9 15 3 29 -12 29 -6 0 -36 19 -67 43 -84 63 -150 85 -167 56z"/>
<path d="M3371 1955 c-17 -58 -36 -105 -41 -105 -4 0 -14 -17 -21 -37 -6 -20
-21 -51 -31 -70 -11 -18 -16 -33 -11 -33 10 0 74 103 91 145 16 42 54 196 49
201 -2 2 -18 -43 -36 -101z"/>
<path d="M3321 2034 c0 -11 3 -14 6 -6 3 7 2 16 -1 19 -3 4 -6 -2 -5 -13z"/>
<path d="M1443 1977 c-2 -23 0 -28 7 -17 12 18 13 50 3 50 -5 0 -9 -15 -10
-33z"/>
<path d="M3436 1983 c-6 -14 -5 -15 5 -6 7 7 10 15 7 18 -3 3 -9 -2 -12 -12z"/>
<path d="M2368 1943 c7 -3 16 -2 19 1 4 3 -2 6 -13 5 -11 0 -14 -3 -6 -6z"/>
<path d="M3425 1888 c-15 -34 -42 -81 -58 -103 l-29 -40 37 40 c37 40 89 138
83 157 -2 6 -17 -19 -33 -54z"/>
<path d="M3396 1924 c-4 -9 -4 -19 -1 -22 2 -3 7 3 11 12 4 9 4 19 1 22 -2 3
-7 -3 -11 -12z"/>
<path d="M1691 1915 c-1 -27 42 -147 63 -176 24 -35 19 -9 -10 57 -15 33 -33
77 -40 99 -7 22 -13 31 -13 20z"/>
<path d="M3296 1915 c-9 -26 -7 -32 5 -12 6 10 9 21 6 23 -2 3 -7 -2 -11 -11z"/>
<path d="M2370 1909 c-25 -4 -67 -8 -95 -8 -46 -1 -48 -2 -33 -18 15 -14 24
-15 72 -4 31 7 61 9 67 5 6 -3 15 -1 19 5 5 10 11 9 22 -2 9 -9 30 -14 52 -13
21 1 40 -2 42 -5 2 -4 23 -5 47 -3 23 2 52 5 64 6 13 1 25 8 28 15 5 14 63 14
71 1 3 -5 10 -6 15 -3 5 4 18 3 30 0 17 -6 18 -9 7 -22 -11 -14 -11 -15 8 -5
12 6 24 9 26 6 3 -2 11 2 18 11 15 18 13 19 -95 34 -64 9 -82 9 -90 -1 -12
-15 -142 -18 -164 -4 -8 5 -16 4 -22 -5 -5 -8 -9 -9 -9 -3 0 17 -28 21 -80 13z"/>
<path d="M3327 1881 c-4 -17 -3 -21 5 -13 5 5 8 16 6 23 -3 8 -7 3 -11 -10z"/>
<path d="M3470 1841 c-17 -34 -28 -67 -24 -73 4 -6 3 -8 -3 -5 -5 4 -16 -6
-24 -21 -7 -15 -15 -31 -18 -36 -2 -6 9 0 27 12 29 21 38 36 47 79 2 10 11 35
20 57 26 62 9 53 -25 -13z"/>
<path d="M1635 1855 c3 -22 5 -48 6 -58 0 -10 7 -32 14 -50 11 -24 14 -27 15
-11 0 11 -5 25 -11 31 -6 6 -9 17 -7 25 3 8 11 2 21 -17 9 -16 16 -26 17 -22
0 5 -7 21 -15 35 -8 15 -22 45 -30 67 l-15 40 5 -40z"/>
<path d="M1745 1868 c4 -13 19 -54 33 -93 19 -48 28 -63 30 -48 2 12 -4 32
-12 45 -9 13 -18 41 -20 61 -6 42 -13 57 -27 57 -6 0 -8 -10 -4 -22z"/>
<path d="M3383 1863 c-3 -10 -8 -22 -11 -27 -3 -5 0 -6 5 -3 11 7 25 47 17 47
-3 0 -7 -8 -11 -17z"/>
<path d="M3066 1779 c-9 -13 -26 -29 -38 -36 -20 -11 -14 -12 50 -13 41 0 72
4 72 10 0 6 -21 10 -47 10 -46 0 -46 0 -28 20 10 11 16 23 13 26 -3 3 -13 -5
-22 -17z"/>
<path d="M3477 1746 c-9 -26 -13 -46 -9 -46 8 0 35 81 29 87 -3 2 -12 -16 -20
-41z"/>
<path d="M3182 1745 c-24 -28 -27 -35 -12 -35 5 0 16 14 25 30 19 37 15 38
-13 5z"/>
<path d="M3380 1755 c-7 -9 -11 -18 -8 -20 3 -3 11 1 18 10 7 9 11 18 8 20 -3
3 -11 -1 -18 -10z"/>
<path d="M1908 1743 c8 -15 20 -17 61 -15 28 2 49 8 46 12 -3 5 -22 8 -43 6
-20 -2 -45 1 -55 6 -16 8 -17 7 -9 -9z"/>
<path d="M1898 1703 c9 -16 26 -24 64 -30 l53 -8 3 -175 c7 -371 -45 -613
-156 -723 -26 -27 -69 -63 -97 -82 l-50 -33 -6 26 -7 27 -1 -28 c-1 -24 -9
-32 -56 -53 -122 -56 -283 -87 -510 -99 -219 -11 -292 -25 -415 -81 -114 -52
-195 -123 -243 -213 -31 -56 -81 -234 -65 -229 6 2 21 40 33 84 29 111 61 170
127 236 63 63 182 127 283 153 33 9 152 22 265 30 287 20 409 45 565 115 75
34 169 103 214 157 65 79 110 227 130 432 16 149 14 456 -1 468 -7 6 -35 13
-62 17 -27 3 -56 12 -64 19 -13 10 -14 9 -4 -10z"/>
<path d="M2 1705 c7 -7 838 -8 846 -1 3 3 -187 6 -423 6 -236 0 -426 -2 -423
-5z"/>
<path d="M878 1703 c12 -2 30 -2 40 0 9 3 -1 5 -23 4 -22 0 -30 -2 -17 -4z"/>
<path d="M1043 1703 c43 -2 110 -2 150 0 40 1 5 3 -78 3 -82 0 -115 -2 -72 -3z"/>
<path d="M3150 1696 c-36 -6 -71 -15 -77 -19 -10 -6 -13 -49 -13 -156 0 -361
60 -634 166 -751 44 -48 152 -125 162 -115 4 4 -2 13 -13 20 -11 8 -35 24 -54
37 -165 113 -235 335 -236 753 l0 199 35 9 c19 5 52 11 73 14 20 3 37 9 37 14
0 5 -3 8 -7 8 -5 -1 -37 -6 -73 -13z"/>
<path d="M3298 1702 c12 -8 72 -4 72 4 0 2 -19 4 -42 4 -26 0 -38 -4 -30 -8z"/>
<path d="M3618 1703 c7 -3 16 -2 19 1 4 3 -2 6 -13 5 -11 0 -14 -3 -6 -6z"/>
<path d="M4025 1704 c65 -8 1095 -9 1095 -1 0 4 -253 6 -562 5 -310 0 -549 -3
-533 -4z"/>
<path d="M1832 1695 c10 -11 48 -14 48 -4 0 5 -12 9 -27 9 -14 0 -24 -2 -21
-5z"/>
<path d="M1704 1540 c0 -58 1 -81 3 -52 2 28 2 76 0 105 -2 28 -3 5 -3 -53z"/>
<path d="M1702 1405 c0 -16 2 -22 5 -12 2 9 2 23 0 30 -3 6 -5 -1 -5 -18z"/>
<path d="M1702 1290 c0 -14 2 -19 5 -12 2 6 2 18 0 25 -3 6 -5 1 -5 -13z"/>
<path d="M3401 704 c0 -11 3 -14 6 -6 3 7 2 16 -1 19 -3 4 -6 -2 -5 -13z"/>
<path d="M3401 662 c-1 -19 10 -28 62 -52 140 -63 289 -93 548 -109 189 -13
285 -34 398 -89 134 -65 219 -176 266 -349 10 -35 22 -63 26 -63 11 0 12 -7
-11 78 -49 176 -133 284 -276 353 -116 56 -208 76 -401 89 -93 5 -199 15 -238
21 -155 24 -359 96 -369 129 -2 8 -4 5 -5 -8z"/>
<path d="M3380 575 c0 -27 3 -45 7 -41 7 7 5 77 -3 85 -2 2 -4 -17 -4 -44z"/>
<path d="M1721 308 c-1 -213 2 -308 10 -308 12 0 10 532 -2 585 -4 17 -7 -108
-8 -277z"/>
<path d="M3378 303 c0 -109 -2 -219 -3 -246 -1 -26 2 -50 6 -53 5 -3 9 107 9
245 0 138 -2 251 -5 251 -3 0 -6 -89 -7 -197z"/>
</g>
</svg>
