<?xml version="1.0" standalone="no"?>
<!DOCTYPE svg PUBLIC "-//W3C//DTD SVG 20010904//EN"
 "http://www.w3.org/TR/2001/REC-SVG-20010904/DTD/svg10.dtd">
<svg version="1.0" xmlns="http://www.w3.org/2000/svg"
 width="512.000000pt" height="512.000000pt" viewBox="0 0 512.000000 512.000000"
 preserveAspectRatio="xMidYMid meet">
<metadata>
Created by potrace 1.16, written by Peter Selinger 2001-2019
</metadata>
<g transform="translate(0.000000,512.000000) scale(0.100000,-0.100000)"
fill="#000000" stroke="none">
<path d="M1732 5110 c-5 -35 -9 -1282 -4 -1465 l5 -200 83 0 84 0 1 115 c4
512 0 1545 -6 1538 -3 -3 -5 -302 -6 -666 0 -364 -4 -664 -8 -666 -4 -3 -13 9
-20 26 -11 24 -11 32 -1 38 7 4 9 13 5 20 -6 9 -9 9 -16 -1 -16 -25 -9 -64 15
-90 24 -26 24 -31 23 -160 l-2 -134 -67 -2 c-65 -3 -67 -2 -72 25 -3 15 -4
295 -3 622 2 517 -4 1046 -11 1000z"/>
<path d="M3220 4590 c-2 -294 -4 -555 -4 -580 1 -25 1 -163 2 -306 l2 -262 85
2 85 1 0 839 c0 462 -2 837 -5 834 -10 -10 -13 -174 -14 -900 l-1 -758 -65 0
-65 0 0 129 c0 71 -2 136 -6 144 -3 8 14 37 40 67 25 29 42 58 39 63 -4 6 -21
-7 -40 -29 l-33 -39 -1 55 c-1 30 -3 62 -4 70 -1 8 2 25 7 37 4 12 3 25 -2 28
-5 3 -7 157 -6 348 2 188 0 443 -3 567 -6 188 -7 137 -11 -310z"/>
<path d="M3564 4736 l7 -388 141 1 c78 1 144 4 147 6 2 3 -59 5 -137 5 l-142
0 -1 268 c0 315 -5 482 -15 491 -3 3 -3 -169 0 -383z"/>
<path d="M3884 4940 c0 -80 2 -112 3 -72 2 39 2 105 0 145 -1 39 -3 7 -3 -73z"/>
<path d="M1546 4984 c0 -40 3 -77 7 -80 4 -4 6 27 6 69 -1 43 -4 79 -7 81 -4
2 -7 -29 -6 -70z"/>
<path d="M3812 4930 c0 -14 2 -19 5 -12 2 6 2 18 0 25 -3 6 -5 1 -5 -13z"/>
<path d="M1550 4876 c0 -7 -3 -28 -6 -45 -4 -18 -2 -31 3 -31 6 0 11 20 11 45
1 25 -1 45 -3 45 -3 0 -5 -6 -5 -14z"/>
<path d="M1538 4569 l-3 -211 -140 1 c-76 1 -137 0 -135 -2 3 -2 71 -7 152
-11 l147 -6 -2 220 c-1 121 -5 220 -9 220 -4 0 -9 -95 -10 -211z"/>
<path d="M2528 4633 c12 -2 32 -2 45 0 12 2 2 4 -23 4 -25 0 -35 -2 -22 -4z"/>
<path d="M2905 4581 c-14 -6 -5 -8 27 -7 25 1 41 4 35 8 -15 9 -36 9 -62 -1z"/>
<path d="M585 4570 c3 -5 8 -10 11 -10 2 0 4 5 4 10 0 6 -5 10 -11 10 -5 0 -7
-4 -4 -10z"/>
<path d="M705 4560 c-10 -11 -15 -20 -11 -20 11 0 39 30 34 36 -3 2 -13 -5
-23 -16z"/>
<path d="M2998 4563 c6 -2 18 -2 25 0 6 3 1 5 -13 5 -14 0 -19 -2 -12 -5z"/>
<path d="M2528 4553 c12 -2 32 -2 45 0 12 2 2 4 -23 4 -25 0 -35 -2 -22 -4z"/>
<path d="M2198 4523 c5 -21 7 -23 10 -9 2 10 0 22 -6 28 -6 6 -7 0 -4 -19z"/>
<path d="M2933 4532 c-5 -4 -12 -17 -15 -29 -6 -21 -3 -23 33 -23 38 0 48 11
31 36 -10 15 -37 23 -49 16z m35 -29 c2 -8 -5 -13 -17 -13 -12 0 -21 6 -21 16
0 18 31 15 38 -3z"/>
<path d="M2090 4511 c0 -15 6 -21 21 -21 25 0 22 33 -4 38 -12 2 -17 -3 -17
-17z m25 -1 c3 -5 1 -10 -4 -10 -6 0 -11 5 -11 10 0 6 2 10 4 10 3 0 8 -4 11
-10z"/>
<path d="M2001 4484 c0 -11 3 -14 6 -6 3 7 2 16 -1 19 -3 4 -6 -2 -5 -13z"/>
<path d="M2675 4460 l-80 -6 83 -2 c49 -1 82 2 82 8 0 6 -1 9 -2 8 -2 -1 -39
-5 -83 -8z"/>
<path d="M2073 4443 c9 -2 23 -2 30 0 6 3 -1 5 -18 5 -16 0 -22 -2 -12 -5z"/>
<path d="M2798 4443 c7 -3 16 -2 19 1 4 3 -2 6 -13 5 -11 0 -14 -3 -6 -6z"/>
<path d="M3110 4441 c8 -6 28 -11 44 -11 39 0 31 6 -19 14 -29 5 -36 4 -25 -3z"/>
<path d="M665 4420 c3 -5 8 -10 11 -10 2 0 4 5 4 10 0 6 -5 10 -11 10 -5 0 -7
-4 -4 -10z"/>
<path d="M900 4370 c90 -8 256 -13 249 -6 -2 2 -78 6 -169 9 -115 3 -139 2
-80 -3z"/>
<path d="M788 4363 c7 -3 16 -2 19 1 4 3 -2 6 -13 5 -11 0 -14 -3 -6 -6z"/>
<path d="M4088 4363 c46 -2 118 -2 160 0 42 1 5 3 -83 3 -88 0 -123 -2 -77 -3z"/>
<path d="M695 4308 c-3 -13 -1 -75 4 -138 l9 -115 -1 137 c-1 76 -3 138 -4
138 -2 0 -5 -10 -8 -22z"/>
<path d="M4412 4199 c-1 -59 -4 -122 -7 -140 l-5 -34 10 33 c6 18 9 81 7 140
l-3 107 -2 -106z"/>
<path d="M933 4250 c-67 -14 -80 -25 -92 -80 -6 -28 -11 -63 -11 -78 0 -57 57
-102 128 -102 36 0 46 6 91 55 63 69 73 109 39 155 -40 56 -72 66 -155 50z
m125 -39 c17 -17 32 -35 32 -41 0 -26 -31 -80 -64 -114 -47 -47 -82 -48 -132
-4 -28 25 -34 27 -23 10 7 -12 17 -22 20 -22 4 0 9 -7 13 -15 10 -28 -32 3
-49 35 -15 30 -22 86 -7 63 5 -8 12 -3 19 17 6 17 7 28 2 24 -11 -6 -12 26 -1
42 11 17 63 32 112 33 37 1 52 -5 78 -28z"/>
<path d="M934 4220 c-12 -5 -25 -13 -28 -19 -4 -6 6 -4 21 4 34 18 75 19 91 3
8 -8 12 -8 12 -1 0 22 -55 30 -96 13z"/>
<path d="M1060 4171 c0 -5 5 -13 10 -16 6 -3 10 -2 10 4 0 5 -4 13 -10 16 -5
3 -10 2 -10 -4z"/>
<path d="M1300 4220 c8 -5 33 -10 55 -10 52 0 124 -49 183 -124 33 -42 27 -16
-7 32 -47 64 -105 98 -181 106 -45 5 -60 4 -50 -4z"/>
<path d="M1455 4220 c3 -5 12 -10 20 -10 26 0 63 -22 73 -44 8 -16 11 -17 11
-4 1 9 -4 20 -9 23 -6 4 -8 10 -5 15 2 4 -15 13 -40 19 -54 14 -58 14 -50 1z"/>
<path d="M1836 4211 c-4 -5 3 -7 14 -4 23 6 26 13 6 13 -8 0 -17 -4 -20 -9z"/>
<path d="M3570 4210 c0 -5 22 -7 53 -3 71 8 72 13 4 13 -31 0 -57 -4 -57 -10z"/>
<path d="M3696 4212 c-2 -4 13 -7 34 -7 22 0 33 3 27 7 -16 10 -55 10 -61 0z"/>
<path d="M3803 4213 c9 -2 23 -2 30 0 6 3 -1 5 -18 5 -16 0 -22 -2 -12 -5z"/>
<path d="M1280 4190 c0 -5 7 -10 15 -10 8 0 15 5 15 10 0 6 -7 10 -15 10 -8 0
-15 -4 -15 -10z"/>
<path d="M3808 4193 c6 -2 18 -2 25 0 6 3 1 5 -13 5 -14 0 -19 -2 -12 -5z"/>
<path d="M3660 4167 c-17 -25 -31 -57 -25 -57 2 0 13 16 25 36 24 38 24 57 0
21z"/>
<path d="M3878 4183 c7 -3 16 -2 19 1 4 3 -2 6 -13 5 -11 0 -14 -3 -6 -6z"/>
<path d="M1420 4119 c36 -37 78 -92 95 -125 26 -51 30 -69 29 -139 0 -45 -6
-90 -13 -104 -9 -16 -10 -26 -2 -34 20 -20 26 4 29 114 4 103 2 114 -22 162
-30 58 -105 145 -151 172 -19 12 -5 -6 35 -46z"/>
<path d="M3970 4146 c0 -19 -3 -41 -6 -50 -3 -9 -2 -16 4 -16 12 0 21 90 10
96 -5 3 -8 -10 -8 -30z"/>
<path d="M1356 4109 c32 -31 72 -81 90 -110 18 -30 43 -71 55 -91 13 -21 25
-36 27 -33 2 2 -5 16 -17 31 -11 15 -21 31 -21 36 0 33 -149 225 -175 225 -9
0 8 -24 41 -58z"/>
<path d="M3745 4150 c-13 -6 -15 -9 -5 -9 8 0 22 4 30 9 18 12 2 12 -25 0z"/>
<path d="M3822 4141 c7 -11 21 -22 32 -25 16 -4 14 0 -8 19 -35 30 -40 31 -24
6z"/>
<path d="M3686 4125 c-11 -8 -15 -15 -9 -15 6 0 16 7 23 15 16 19 11 19 -14 0z"/>
<path d="M3761 4101 c-18 -10 -40 -29 -47 -42 -23 -42 -15 -45 18 -5 17 21 45
44 62 52 17 7 24 13 16 13 -8 0 -30 -8 -49 -18z"/>
<path d="M4106 4112 c-3 -5 1 -9 9 -9 8 0 15 4 15 9 0 4 -4 8 -9 8 -6 0 -12
-4 -15 -8z"/>
<path d="M4708 4113 c79 -2 205 -2 280 0 75 1 11 3 -143 3 -154 0 -216 -2
-137 -3z"/>
<path d="M4081 4084 c0 -11 3 -14 6 -6 3 7 2 16 -1 19 -3 4 -6 -2 -5 -13z"/>
<path d="M3820 4060 c-19 -16 -32 -29 -28 -30 13 0 78 42 78 51 0 16 -15 10
-50 -21z"/>
<path d="M3602 4055 c-6 -14 -17 -24 -23 -23 -6 2 -14 -3 -16 -10 -9 -24 41 7
54 33 6 14 8 25 4 25 -4 0 -13 -11 -19 -25z"/>
<path d="M4554 3910 c0 -96 2 -136 3 -87 2 48 2 126 0 175 -1 48 -3 8 -3 -88z"/>
<path d="M4944 3975 c0 -60 1 -84 3 -52 2 32 2 81 0 110 -2 29 -3 3 -3 -58z"/>
<path d="M4770 4050 c0 -5 5 -10 10 -10 6 0 10 5 10 10 0 6 -4 10 -10 10 -5 0
-10 -4 -10 -10z"/>
<path d="M3665 4040 c4 -6 11 -8 16 -5 14 9 11 15 -7 15 -8 0 -12 -5 -9 -10z"/>
<path d="M4645 4040 c-3 -5 1 -10 9 -10 9 0 16 5 16 10 0 6 -4 10 -9 10 -6 0
-13 -4 -16 -10z"/>
<path d="M4867 4033 c-11 -10 -8 -43 3 -43 6 0 10 11 10 25 0 26 -2 29 -13 18z"/>
<path d="M5030 4015 c0 -14 5 -25 10 -25 6 0 10 11 10 25 0 14 -4 25 -10 25
-5 0 -10 -11 -10 -25z"/>
<path d="M1106 4013 c-6 -14 -5 -15 5 -6 7 7 10 15 7 18 -3 3 -9 -2 -12 -12z"/>
<path d="M4310 3939 l-85 -81 88 78 c78 69 93 84 85 84 -2 0 -41 -36 -88 -81z"/>
<path d="M4770 4009 c0 -5 5 -7 10 -4 6 3 10 8 10 11 0 2 -4 4 -10 4 -5 0 -10
-5 -10 -11z"/>
<path d="M4138 3993 c6 -2 18 -2 25 0 6 3 1 5 -13 5 -14 0 -19 -2 -12 -5z"/>
<path d="M3854 3956 c-35 -35 -42 -67 -25 -111 6 -14 8 -5 7 26 -1 53 19 83
69 105 28 12 28 13 7 14 -14 0 -38 -14 -58 -34z"/>
<path d="M3568 3941 c-11 -47 -10 -163 2 -181 5 -8 10 -12 12 -10 2 3 1 55 -2
115 -4 81 -7 101 -12 76z"/>
<path d="M3770 3944 c-12 -32 -12 -55 0 -74 7 -11 10 -5 10 23 0 21 5 47 10
58 8 13 7 19 0 19 -6 0 -15 -12 -20 -26z"/>
<path d="M1392 3905 c0 -16 2 -22 5 -12 2 9 2 23 0 30 -3 6 -5 -1 -5 -18z"/>
<path d="M3910 3915 c-19 -23 -8 -25 14 -4 11 11 15 19 9 19 -6 0 -16 -7 -23
-15z"/>
<path d="M4154 3905 c0 -14 4 -25 9 -25 10 0 9 38 -2 44 -5 3 -8 -5 -7 -19z"/>
<path d="M5030 3911 c0 -12 5 -21 10 -21 6 0 10 6 10 14 0 8 -4 18 -10 21 -5
3 -10 -3 -10 -14z"/>
<path d="M4640 3900 c0 -5 5 -10 10 -10 6 0 10 5 10 10 0 6 -4 10 -10 10 -5 0
-10 -4 -10 -10z"/>
<path d="M4856 3895 c4 -8 10 -12 15 -9 14 8 10 24 -6 24 -9 0 -12 -6 -9 -15z"/>
<path d="M4943 3805 c0 -33 2 -45 4 -27 2 18 2 45 0 60 -2 15 -4 0 -4 -33z"/>
<path d="M4146 3818 l-18 -33 21 25 c18 22 26 40 18 40 -1 0 -11 -15 -21 -32z"/>
<path d="M1030 3801 c11 -22 25 -43 31 -47 13 -7 12 -6 -16 49 -10 20 -22 37
-27 37 -5 0 1 -18 12 -39z"/>
<path d="M4662 3820 c0 -14 2 -19 5 -12 2 6 2 18 0 25 -3 6 -5 1 -5 -13z"/>
<path d="M4770 3825 c0 -8 5 -15 10 -15 6 0 10 7 10 15 0 8 -4 15 -10 15 -5 0
-10 -7 -10 -15z"/>
<path d="M4641 3814 c0 -11 3 -14 6 -6 3 7 2 16 -1 19 -3 4 -6 -2 -5 -13z"/>
<path d="M4850 3810 c0 -11 5 -20 10 -20 6 0 10 9 10 20 0 11 -4 20 -10 20 -5
0 -10 -9 -10 -20z"/>
<path d="M5030 3811 c0 -11 5 -23 10 -26 6 -4 10 5 10 19 0 14 -4 26 -10 26
-5 0 -10 -9 -10 -19z"/>
<path d="M1341 3787 c-13 -16 -5 -27 20 -27 24 0 35 20 18 31 -19 12 -25 11
-38 -4z"/>
<path d="M4043 3775 c-28 -33 -14 -32 17 0 13 14 19 25 14 25 -5 0 -19 -12
-31 -25z"/>
<path d="M4100 3767 c-8 -7 -24 -24 -35 -37 -12 -15 -4 -11 18 9 33 31 42 42
35 41 -2 0 -10 -6 -18 -13z"/>
<path d="M3570 3696 c0 -25 4 -46 9 -46 12 0 12 78 0 86 -5 3 -9 -15 -9 -40z"/>
<path d="M3978 3733 c7 -3 16 -2 19 1 4 3 -2 6 -13 5 -11 0 -14 -3 -6 -6z"/>
<path d="M1002 3710 c-18 -29 -15 -36 8 -15 20 18 26 35 12 35 -4 0 -13 -9
-20 -20z"/>
<path d="M4693 3723 c82 -2 212 -2 290 0 78 1 12 3 -148 3 -159 0 -223 -2
-142 -3z"/>
<path d="M2564 3705 c-4 -8 -10 -12 -15 -9 -5 3 -9 -4 -9 -15 0 -30 14 -26 27
9 6 17 9 30 7 30 -3 0 -7 -7 -10 -15z"/>
<path d="M1551 3684 c0 -11 3 -14 6 -6 3 7 2 16 -1 19 -3 4 -6 -2 -5 -13z"/>
<path d="M2681 3684 c0 -11 3 -14 6 -6 3 7 2 16 -1 19 -3 4 -6 -2 -5 -13z"/>
<path d="M1090 3661 c75 -67 221 -69 289 -3 15 15 17 19 6 9 -31 -25 -80 -37
-152 -37 -63 0 -94 9 -148 43 -28 17 -27 16 5 -12z"/>
<path d="M3955 3661 c-37 -35 -69 -72 -79 -91 -4 -8 6 1 23 20 17 19 48 50 68
67 21 18 34 33 28 33 -5 0 -23 -13 -40 -29z"/>
<path d="M1025 3650 c3 -19 18 -46 32 -60 l27 -25 -22 26 c-12 14 -20 32 -17
40 3 8 -2 23 -10 34 -16 19 -16 18 -10 -15z"/>
<path d="M4016 3663 c-6 -14 -5 -15 5 -6 7 7 10 15 7 18 -3 3 -9 -2 -12 -12z"/>
<path d="M2450 3646 c0 -36 15 -40 18 -5 1 16 -2 29 -8 29 -5 0 -10 -11 -10
-24z"/>
<path d="M1490 3651 c0 -10 53 -51 65 -51 4 0 2 7 -5 15 -7 8 -19 15 -26 15
-8 0 -14 7 -14 15 0 8 -4 15 -10 15 -5 0 -10 -4 -10 -9z"/>
<path d="M3600 3650 c0 -5 5 -10 11 -10 5 0 7 5 4 10 -3 6 -8 10 -11 10 -2 0
-4 -4 -4 -10z"/>
<path d="M2584 3613 c-16 -21 -33 -41 -39 -45 -5 -4 -1 -8 10 -8 13 0 28 15
43 41 31 53 22 61 -14 12z"/>
<path d="M2676 3634 c-8 -20 -8 -69 0 -62 6 7 16 78 10 78 -2 0 -7 -7 -10 -16z"/>
<path d="M2483 3624 c0 -21 14 -44 28 -44 14 0 10 16 -9 40 -17 21 -19 21 -19
4z"/>
<path d="M3570 3613 c0 -13 5 -23 10 -23 13 0 13 11 0 30 -8 12 -10 11 -10 -7z"/>
<path d="M1440 3594 c0 -12 -13 -34 -30 -50 -33 -33 -41 -57 -9 -28 40 36 62
75 50 87 -8 8 -11 6 -11 -9z"/>
<path d="M1140 3561 c22 -18 60 -34 60 -26 0 2 -19 13 -42 24 -40 20 -41 20
-18 2z"/>
<path d="M2755 3560 c-10 -11 -13 -20 -8 -20 13 0 38 29 31 35 -3 3 -13 -4
-23 -15z"/>
<path d="M2203 3545 c-3 -9 -3 -19 1 -22 3 -4 6 1 6 10 0 8 6 18 13 20 9 4 9
6 -1 6 -7 1 -15 -6 -19 -14z"/>
<path d="M2840 3538 c-12 -22 -12 -22 6 -6 10 10 15 20 12 24 -4 3 -12 -5 -18
-18z"/>
<path d="M2891 3553 c-1 -6 -4 -20 -7 -30 -5 -17 -5 -17 6 0 6 10 9 23 6 30
-3 9 -5 9 -5 0z"/>
<path d="M218 3518 c-13 -3 40 -6 117 -7 77 -1 251 -4 388 -8 146 -4 247 -3
247 3 0 5 -120 10 -278 12 -152 2 -316 4 -364 5 -48 1 -97 -1 -110 -5z"/>
<path d="M1230 3520 c8 -5 26 -9 40 -9 l25 1 -25 8 c-14 4 -32 8 -40 9 -13 1
-13 0 0 -9z"/>
<path d="M3964 3514 c-18 -14 -18 -15 4 -4 12 6 22 13 22 15 0 8 -5 6 -26 -11z"/>
<path d="M48 3513 c29 -2 74 -2 100 0 26 2 2 3 -53 3 -55 0 -76 -1 -47 -3z"/>
<path d="M2581 3504 c0 -11 3 -14 6 -6 3 7 2 16 -1 19 -3 4 -6 -2 -5 -13z"/>
<path d="M4400 3511 c-36 -4 108 -5 320 -3 212 2 390 5 395 7 18 6 -647 2
-715 -4z"/>
<path d="M2810 3495 c0 -8 2 -15 4 -15 2 0 6 7 10 15 3 8 1 15 -4 15 -6 0 -10
-7 -10 -15z"/>
<path d="M2122 3488 c-14 -14 -16 -38 -2 -38 5 0 7 7 4 15 -4 9 0 15 10 15 9
0 16 5 16 10 0 14 -13 13 -28 -2z"/>
<path d="M2860 3478 c-12 -22 -12 -22 6 -6 10 10 15 20 12 24 -4 3 -12 -5 -18
-18z"/>
<path d="M4248 3493 c18 -2 45 -2 60 0 15 2 0 4 -33 4 -33 0 -45 -2 -27 -4z"/>
<path d="M2150 3460 c-13 -8 -12 -10 3 -10 9 0 17 5 17 10 0 12 -1 12 -20 0z"/>
<path d="M2897 3463 c-14 -14 -6 -23 21 -22 16 0 21 3 12 6 -8 3 -18 10 -21
15 -3 4 -8 5 -12 1z"/>
<path d="M3880 3440 c-9 -6 -10 -10 -3 -10 6 0 15 5 18 10 8 12 4 12 -15 0z"/>
<path d="M1720 2559 l0 -829 835 2 835 3 3 826 2 826 -837 1 -838 1 0 -830z
m1650 1 l0 -800 -810 0 -810 0 -2 468 c-3 659 -3 785 0 970 l2 162 810 0 810
0 0 -800z"/>
<path d="M2169 2757 c-2 -3 -28 -7 -58 -10 -29 -3 -56 -9 -60 -13 -3 -4 4 -4
16 -1 13 3 26 1 29 -5 3 -5 40 -8 82 -7 l76 2 1 -39 c0 -35 3 -39 28 -41 30
-2 37 16 8 24 -12 3 -17 11 -14 23 3 10 0 21 -6 24 -5 4 -8 13 -4 21 4 12 -3
15 -30 15 -20 0 -42 2 -49 5 -8 3 -16 4 -19 2z"/>
<path d="M2805 2750 l-30 -6 34 -7 c49 -10 194 -8 211 3 11 7 1 10 -35 11
-110 4 -151 4 -180 -1z"/>
<path d="M2297 2700 c-3 -13 0 -23 9 -27 21 -8 23 -2 9 25 -12 23 -12 23 -18
2z"/>
<path d="M2820 2700 c0 -11 -6 -20 -12 -19 -34 4 -57 -3 -83 -26 -25 -21 -27
-25 -12 -31 13 -5 17 -14 13 -38 -6 -37 2 -76 16 -76 6 0 9 29 6 75 l-3 75 47
0 c44 0 48 2 48 24 0 14 -4 28 -10 31 -5 3 -10 -3 -10 -15z"/>
<path d="M2975 2690 c-4 -17 -5 -33 -3 -34 1 -2 37 -6 78 -9 41 -3 69 -3 63
-1 -7 3 -13 15 -13 27 -1 19 -2 20 -13 6 -7 -10 -26 -15 -50 -15 -34 1 -37 3
-35 25 4 36 -19 37 -27 1z"/>
<path d="M3050 2710 c0 -5 5 -10 10 -10 6 0 10 5 10 10 0 6 -4 10 -10 10 -5 0
-10 -4 -10 -10z"/>
<path d="M2070 2694 c-15 -8 -19 -14 -10 -15 10 0 8 -3 -5 -9 -31 -13 -45 -11
-45 7 0 14 -2 14 -21 -3 -20 -18 -20 -18 0 -25 16 -7 19 -16 17 -56 -3 -53 1
-73 16 -73 6 0 8 26 4 65 l-5 65 44 0 c41 0 45 2 45 24 0 32 -9 36 -40 20z"/>
<path d="M2342 2643 c-14 -48 -16 -113 -3 -113 5 0 8 15 5 34 -4 32 -2 35 23
38 16 2 26 8 23 13 -3 6 -8 9 -12 8 -4 -2 -11 11 -16 29 l-8 31 -12 -40z"/>
<path d="M1939 2639 c-12 -24 -8 -124 7 -139 5 -5 9 24 9 76 0 46 -1 84 -2 84
-1 0 -7 -10 -14 -21z"/>
<path d="M3050 2565 l0 -65 -35 0 c-32 0 -35 -2 -35 -31 0 -20 4 -29 13 -26 6
2 11 12 11 21 -2 19 41 23 50 4 5 -10 7 -10 12 0 3 6 18 12 32 13 27 1 27 1
-6 15 -25 11 -31 18 -25 32 7 15 8 36 4 85 0 9 -5 17 -11 17 -6 0 -10 -28 -10
-65z"/>
<path d="M3130 2620 c-7 -52 -7 -97 0 -109 10 -19 17 69 9 101 -4 13 -8 16 -9
8z"/>
<path d="M2657 2613 c-10 -9 -7 -74 3 -98 6 -14 9 -2 9 43 1 62 0 68 -12 55z"/>
<path d="M2160 2575 c0 -31 3 -35 36 -41 44 -8 56 3 48 44 -6 29 -10 32 -45
32 -38 0 -39 -1 -39 -35z m60 0 c0 -8 -6 -15 -14 -15 -17 0 -28 14 -19 24 12
12 33 6 33 -9z"/>
<path d="M2870 2570 l0 -40 40 0 40 0 0 40 0 40 -40 0 -40 0 0 -40z m50 -1 c0
-6 -4 -7 -10 -4 -5 3 -10 11 -10 16 0 6 5 7 10 4 6 -3 10 -11 10 -16z"/>
<path d="M2420 2571 c0 -6 5 -13 10 -16 6 -3 10 1 10 9 0 9 -4 16 -10 16 -5 0
-10 -4 -10 -9z"/>
<path d="M2340 2511 c0 -6 -17 -11 -37 -13 -35 -3 -38 -6 -41 -35 -2 -18 1
-33 5 -33 15 0 32 22 27 35 -6 14 28 16 37 2 9 -13 53 28 44 42 -8 13 -35 15
-35 2z"/>
<path d="M1994 2499 c-28 -7 -28 -7 -6 -14 12 -4 22 -15 22 -26 0 -11 5 -19
11 -19 5 0 8 4 5 9 -13 21 5 37 35 33 23 -3 28 -7 18 -14 -11 -7 -11 -11 -1
-15 23 -9 13 -33 -15 -34 l-28 -1 25 -8 c37 -12 240 -12 240 0 0 5 -3 9 -7 9
-5 -1 -21 -1 -38 0 -23 1 -27 3 -15 11 10 7 -8 9 -60 9 -56 -1 -67 -3 -45 -9
l30 -8 -32 -1 c-31 -1 -31 0 -26 38 l5 39 -44 3 c-25 2 -58 1 -74 -2z"/>
<path d="M2695 2490 c-3 -4 4 -10 15 -13 12 -3 20 -14 21 -29 1 -23 1 -23 8 2
4 14 12 25 19 24 7 -1 21 -2 32 -2 14 -2 22 -11 27 -32 3 -16 8 -31 12 -31 26
-6 130 -12 159 -10 6 1 12 7 12 15 0 10 -23 16 -85 21 l-84 7 6 29 5 29 -71
-1 c-39 -1 -73 -4 -76 -9z"/>
<path d="M2506 2414 c-3 -9 -6 -35 -6 -59 l0 -44 -102 -3 -103 -3 0 -40 0 -40
255 0 255 0 3 34 c2 20 -2 37 -10 42 -7 5 -56 9 -109 9 l-96 0 -1 50 c0 28 -4
55 -7 60 -10 17 -72 12 -79 -6z m64 -69 l0 -65 108 2 c105 3 107 3 110 -20 l3
-23 -240 1 c-241 1 -241 1 -241 23 0 21 3 22 104 19 l103 -4 7 57 c3 31 4 61
1 66 -4 5 5 9 19 9 25 0 26 -2 26 -65z"/>
<path d="M2764 2418 c-4 -7 -3 -8 5 -4 6 4 18 2 26 -4 12 -10 15 -9 15 4 0 18
-35 22 -46 4z"/>
<path d="M4198 3383 c6 -2 18 -2 25 0 6 3 1 5 -13 5 -14 0 -19 -2 -12 -5z"/>
<path d="M938 3373 c6 -2 18 -2 25 0 6 3 1 5 -13 5 -14 0 -19 -2 -12 -5z"/>
<path d="M1356 3371 l-49 -6 73 -65 c85 -75 119 -100 140 -100 8 0 35 31 60
69 25 38 56 76 70 85 l25 16 -30 0 c-16 0 -77 2 -135 4 -58 2 -127 1 -154 -3z
m252 -35 c-6 -11 -14 -23 -17 -26 -3 -3 -19 -24 -35 -47 -16 -24 -32 -43 -37
-43 -18 0 -159 116 -159 131 0 4 58 8 130 7 129 0 130 0 118 -22z"/>
<path d="M3470 3369 c0 -3 11 -12 25 -19 14 -7 25 -17 25 -21 0 -4 25 -35 56
-69 l57 -60 27 17 c35 23 160 136 160 145 0 4 -79 8 -175 10 -96 2 -175 0
-175 -3z m305 -18 c16 -1 14 -6 -15 -31 -19 -17 -54 -44 -78 -61 -42 -30 -44
-31 -64 -12 -37 32 -88 87 -88 95 0 4 39 9 88 10 81 3 105 3 157 -1z"/>
<path d="M4103 3373 c9 -2 25 -2 35 0 9 3 1 5 -18 5 -19 0 -27 -2 -17 -5z"/>
<path d="M998 3363 c7 -3 16 -2 19 1 4 3 -2 6 -13 5 -11 0 -14 -3 -6 -6z"/>
<path d="M4048 3363 c6 -2 18 -2 25 0 6 3 1 5 -13 5 -14 0 -19 -2 -12 -5z"/>
<path d="M1 3356 c7 -8 228 -10 236 -3 3 4 -49 7 -117 7 -68 0 -121 -2 -119
-4z"/>
<path d="M255 2570 l0 -790 200 1 c110 0 220 4 245 9 l45 9 -50 -2 -50 -2 -25
47 c-30 58 -46 64 -17 8 11 -23 18 -42 16 -44 -6 -5 -160 -10 -259 -8 l-85 2
0 770 0 770 183 0 c115 0 182 4 182 10 0 6 -71 10 -192 10 l-193 0 0 -790z"/>
<path d="M4470 3349 c25 -4 123 -8 218 -8 l172 -1 1 -667 c1 -368 1 -682 0
-700 -1 -18 3 -40 9 -50 8 -13 10 168 8 709 l-3 728 -225 -1 c-147 -1 -209 -4
-180 -10z"/>
<path d="M4893 3353 c8 -13 227 -16 227 -4 0 7 -39 11 -116 11 -63 0 -113 -3
-111 -7z"/>
<path d="M569 3255 c-23 -44 -42 -68 -56 -71 -31 -8 -29 -22 1 -17 14 3 31 19
44 41 11 21 29 54 41 75 11 20 17 37 12 37 -4 0 -23 -29 -42 -65z"/>
<path d="M4273 3305 c-9 -24 1 -27 15 -5 8 13 8 20 2 20 -6 0 -13 -7 -17 -15z"/>
<path d="M4580 3211 c0 -6 4 -13 10 -16 6 -3 7 1 4 9 -7 18 -14 21 -14 7z"/>
<path d="M4600 3174 c0 -13 18 -39 24 -34 2 3 -2 14 -10 24 -8 11 -14 16 -14
10z"/>
<path d="M4672 3140 c0 -14 2 -19 5 -12 2 6 2 18 0 25 -3 6 -5 1 -5 -13z"/>
<path d="M468 3110 c2 -22 6 -40 8 -40 2 0 4 18 4 40 0 22 -3 40 -8 40 -4 0
-6 -18 -4 -40z"/>
<path d="M4396 3135 c4 -8 11 -15 16 -15 6 0 5 6 -2 15 -7 8 -14 15 -16 15 -2
0 -1 -7 2 -15z"/>
<path d="M470 3013 c0 -21 -7 -65 -15 -98 -8 -33 -20 -116 -26 -185 -11 -110
-15 -128 -37 -152 -21 -23 -24 -34 -19 -75 3 -33 12 -53 29 -68 21 -18 27 -37
37 -116 18 -137 37 -224 60 -272 11 -23 28 -63 38 -89 10 -27 22 -48 26 -48 5
0 6 6 4 13 -3 6 -14 37 -24 67 -9 30 -21 57 -25 60 -13 10 -57 193 -69 293
-10 83 -14 97 -30 97 -12 0 -21 12 -28 38 -16 56 -14 69 18 93 28 20 28 23 34
137 3 65 15 161 26 216 24 111 25 126 11 126 -5 0 -10 -17 -10 -37z"/>
<path d="M4650 3032 c0 -6 11 -57 25 -114 19 -79 43 -264 45 -349 0 -4 11 -10
25 -13 17 -4 25 -13 25 -29 0 -40 -21 -97 -35 -97 -13 0 -18 -14 -31 -100 -5
-36 -43 -182 -70 -272 -3 -10 -1 -18 4 -18 5 0 15 19 21 43 31 112 60 237 66
282 4 31 14 54 25 62 21 14 36 88 26 121 -4 11 -15 22 -25 25 -16 4 -19 20
-25 118 -4 67 -19 161 -35 226 -24 100 -41 147 -41 115z"/>
<path d="M695 3018 c-2 -7 -6 -30 -10 -51 -3 -21 -8 -46 -11 -55 -2 -9 4 1 14
23 26 55 35 95 22 95 -6 0 -12 -6 -15 -12z"/>
<path d="M4540 3020 c0 -12 44 -12 80 0 20 6 14 8 -27 9 -29 1 -53 -3 -53 -9z"/>
<path d="M535 3014 c48 -8 115 -9 115 -2 0 5 -30 7 -67 7 -38 -1 -59 -3 -48
-5z"/>
<path d="M743 2955 c0 -22 2 -30 4 -17 2 12 2 30 0 40 -3 9 -5 -1 -4 -23z"/>
<path d="M631 2964 c0 -11 3 -14 6 -6 3 7 2 16 -1 19 -3 4 -6 -2 -5 -13z"/>
<path d="M3993 2973 c9 -2 23 -2 30 0 6 3 -1 5 -18 5 -16 0 -22 -2 -12 -5z"/>
<path d="M1141 2944 c0 -11 3 -14 6 -6 3 7 2 16 -1 19 -3 4 -6 -2 -5 -13z"/>
<path d="M622 2920 c0 -14 2 -19 5 -12 2 6 2 18 0 25 -3 6 -5 1 -5 -13z"/>
<path d="M1126 2905 c-3 -8 -1 -15 4 -15 6 0 10 7 10 15 0 8 -2 15 -4 15 -2 0
-6 -7 -10 -15z"/>
<path d="M730 2883 c0 -11 7 -20 15 -20 12 0 12 3 3 16 -7 9 -14 18 -15 20 -2
2 -3 -5 -3 -16z"/>
<path d="M605 2798 c-4 -51 -5 -104 -3 -118 2 -14 7 26 11 89 4 63 6 116 3
118 -2 2 -7 -38 -11 -89z"/>
<path d="M4497 2867 c-4 -10 -7 -59 -8 -108 l-1 -89 -49 -21 c-26 -12 -54 -28
-61 -36 -6 -8 5 -4 27 8 21 12 54 25 74 28 l36 6 3 66 c3 80 -10 173 -21 146z"/>
<path d="M895 2861 c-44 -11 -73 -29 -85 -51 -16 -29 -12 -37 6 -11 39 55 182
75 304 42 86 -23 104 -21 33 3 -54 19 -212 30 -258 17z"/>
<path d="M4419 2843 c-13 -16 -12 -17 4 -4 9 7 17 15 17 17 0 8 -8 3 -21 -13z"/>
<path d="M727 2833 c-4 -3 -7 -19 -7 -34 0 -21 -6 -29 -22 -32 -20 -4 -19 -4
5 -6 22 -1 27 3 28 22 0 12 2 30 4 40 4 18 2 21 -8 10z"/>
<path d="M3755 2770 c2 -25 4 -77 4 -116 1 -57 4 -73 17 -78 15 -6 16 3 11 77
-4 45 -13 100 -21 122 l-14 40 3 -45z"/>
<path d="M4330 2790 c-19 -11 -31 -19 -27 -20 11 0 67 29 67 35 0 7 -1 7 -40
-15z"/>
<path d="M4198 2739 c-21 -11 -38 -21 -38 -24 0 -4 91 33 99 41 12 11 -28 1
-61 -17z"/>
<path d="M860 2723 c-30 -2 -59 -9 -65 -14 -12 -13 162 -1 185 12 15 9 -10 9
-120 2z"/>
<path d="M1212 2700 c0 -19 2 -27 5 -17 2 9 2 25 0 35 -3 9 -5 1 -5 -18z"/>
<path d="M4030 2689 c-30 -16 -44 -27 -30 -23 30 8 100 42 100 49 0 10 -16 4
-70 -26z"/>
<path d="M3571 2644 c0 -11 3 -14 6 -6 3 7 2 16 -1 19 -3 4 -6 -2 -5 -13z"/>
<path d="M1092 2610 c0 -14 2 -19 5 -12 2 6 2 18 0 25 -3 6 -5 1 -5 -13z"/>
<path d="M1143 2623 c9 -2 23 -2 30 0 6 3 -1 5 -18 5 -16 0 -22 -2 -12 -5z"/>
<path d="M794 2605 c14 -39 51 -84 91 -110 37 -24 46 -26 115 -21 74 4 138 21
127 32 -3 4 -20 1 -38 -5 -41 -14 -147 -14 -188 0 -20 7 -47 32 -73 68 -22 31
-38 47 -34 36z"/>
<path d="M1000 2580 c-14 -4 -40 -8 -57 -9 -40 -1 -44 -21 -4 -21 31 0 90 18
106 31 11 11 -10 10 -45 -1z"/>
<path d="M4330 2565 c-13 -14 -22 -27 -19 -29 2 -2 14 10 27 25 29 36 24 38
-8 4z"/>
<path d="M3772 2510 c0 -14 2 -19 5 -12 2 6 2 18 0 25 -3 6 -5 1 -5 -13z"/>
<path d="M3941 2504 c0 -11 3 -14 6 -6 3 7 2 16 -1 19 -3 4 -6 -2 -5 -13z"/>
<path d="M3572 2470 c0 -19 2 -27 5 -17 2 9 2 25 0 35 -3 9 -5 1 -5 -18z"/>
<path d="M4249 2479 l-24 -20 28 17 c15 9 27 18 27 20 0 8 -8 4 -31 -17z"/>
<path d="M831 2464 c0 -11 3 -14 6 -6 3 7 2 16 -1 19 -3 4 -6 -2 -5 -13z"/>
<path d="M907 2439 c18 -18 95 -22 157 -9 79 16 64 23 -20 9 -50 -8 -80 -8
-108 0 -28 7 -36 7 -29 0z"/>
<path d="M605 2431 c-3 -5 -1 -12 5 -16 5 -3 10 1 10 9 0 18 -6 21 -15 7z"/>
<path d="M663 2423 c3 -10 8 -30 11 -45 4 -16 11 -28 17 -28 6 0 6 6 -1 19 -5
11 -10 31 -10 45 0 14 -5 26 -11 26 -6 0 -8 -8 -6 -17z"/>
<path d="M4245 2430 c-3 -5 1 -10 10 -10 9 0 13 5 10 10 -3 6 -8 10 -10 10 -2
0 -7 -4 -10 -10z"/>
<path d="M4470 2408 c1 -20 2 -21 11 -6 5 10 16 15 24 12 8 -4 15 -1 15 5 0 6
-11 11 -25 11 -19 0 -25 -5 -25 -22z"/>
<path d="M731 2401 c-7 -5 -11 -17 -9 -27 4 -17 5 -17 17 4 14 27 12 35 -8 23z"/>
<path d="M4290 2400 c8 -5 20 -10 25 -10 6 0 3 5 -5 10 -8 5 -19 10 -25 10 -5
0 -3 -5 5 -10z"/>
<path d="M611 2328 c-1 -64 -4 -77 -18 -81 -12 -3 -10 -5 7 -6 24 -1 25 1 22
56 -5 99 -9 111 -11 31z"/>
<path d="M3837 2393 c-13 -13 -7 -21 16 -19 13 0 24 7 24 14 0 13 -29 17 -40
5z"/>
<path d="M4338 2383 c7 -3 16 -2 19 1 4 3 -2 6 -13 5 -11 0 -14 -3 -6 -6z"/>
<path d="M4128 2355 c-10 -13 -18 -32 -18 -42 0 -16 2 -15 13 3 6 12 18 31 25
43 17 29 1 26 -20 -4z"/>
<path d="M4480 2370 c0 -17 17 -47 23 -40 2 3 -2 16 -10 30 -7 14 -13 18 -13
10z"/>
<path d="M743 2302 c10 -10 17 -33 17 -50 0 -18 5 -32 10 -32 15 0 12 62 -4
83 -7 9 -19 17 -26 17 -9 0 -8 -5 3 -18z"/>
<path d="M4492 2280 c0 -14 2 -19 5 -12 2 6 2 18 0 25 -3 6 -5 1 -5 -13z"/>
<path d="M4447 2240 c3 -11 7 -20 9 -20 2 0 4 9 4 20 0 11 -4 20 -9 20 -5 0
-7 -9 -4 -20z"/>
<path d="M700 2220 c0 -5 5 -9 12 -7 8 1 13 -17 16 -53 3 -52 8 -68 16 -59 2
2 1 32 -2 67 -4 52 -7 62 -23 62 -11 0 -19 -4 -19 -10z"/>
<path d="M786 2195 c-8 -21 2 -44 41 -92 22 -27 42 -43 56 -43 20 1 20 2 -5
18 -16 9 -28 25 -28 34 0 11 -8 18 -20 18 -25 0 -26 15 -2 30 14 9 13 10 -7 4
-22 -6 -23 -4 -17 20 7 27 -8 37 -18 11z"/>
<path d="M4371 2133 c0 -12 -4 -30 -7 -40 -5 -17 -5 -17 6 0 6 10 9 28 7 40
-4 22 -4 22 -6 0z"/>
<path d="M3572 2105 c0 -16 2 -22 5 -12 2 9 2 23 0 30 -3 6 -5 -1 -5 -18z"/>
<path d="M4310 2090 c-13 -8 -12 -10 3 -10 9 0 17 5 17 10 0 12 -1 12 -20 0z"/>
<path d="M618 2053 c6 -2 18 -2 25 0 6 3 1 5 -13 5 -14 0 -19 -2 -12 -5z"/>
<path d="M673 2053 c9 -2 23 -2 30 0 6 3 -1 5 -18 5 -16 0 -22 -2 -12 -5z"/>
<path d="M4575 2050 c-3 -5 3 -10 15 -10 12 0 18 5 15 10 -3 6 -10 10 -15 10
-5 0 -12 -4 -15 -10z"/>
<path d="M548 2043 c6 -2 18 -2 25 0 6 3 1 5 -13 5 -14 0 -19 -2 -12 -5z"/>
<path d="M877 2044 c-10 -11 -8 -102 2 -108 5 -3 11 18 13 47 4 51 -2 74 -15
61z"/>
<path d="M4605 1960 c-10 -22 -16 -43 -13 -46 3 -2 13 14 22 37 22 54 15 61
-9 9z"/>
<path d="M3770 1981 c0 -17 425 -170 437 -157 3 3 -217 81 -302 107 -22 6 -61
22 -87 34 -27 13 -48 20 -48 16z"/>
<path d="M1590 1944 c-25 -13 -34 -22 -20 -18 25 7 70 33 70 40 0 6 -1 5 -50
-22z"/>
<path d="M918 1943 c7 -3 16 -2 19 1 4 3 -2 6 -13 5 -11 0 -14 -3 -6 -6z"/>
<path d="M3585 1920 c3 -5 11 -10 17 -10 6 0 26 -10 45 -21 24 -15 31 -24 23
-29 -9 -5 -5 -10 11 -15 28 -9 108 -66 109 -78 0 -15 -240 -4 -249 11 -7 11
-10 10 -15 -3 -5 -13 -14 -16 -36 -12 -16 4 -32 3 -34 -2 -3 -4 32 -11 77 -14
115 -9 295 -9 301 1 6 10 -87 85 -173 141 -63 40 -88 51 -76 31z"/>
<path d="M745 1900 c3 -5 8 -10 11 -10 2 0 4 5 4 10 0 6 -5 10 -11 10 -5 0 -7
-4 -4 -10z"/>
<path d="M1480 1872 c-30 -20 -81 -57 -113 -82 l-57 -45 176 -3 c97 -1 179 0
182 3 10 10 -16 51 -68 108 -29 31 -55 57 -59 56 -3 0 -31 -17 -61 -37z m90
-17 c7 -14 17 -25 21 -25 13 0 49 -42 49 -57 0 -10 -31 -13 -137 -13 -118 0
-135 2 -123 14 28 26 151 106 164 106 7 0 19 -11 26 -25z"/>
<path d="M3542 1872 c-13 -12 -19 -23 -13 -26 6 -4 19 2 30 13 17 17 26 19 46
11 34 -13 52 -13 40 -1 -6 5 -26 12 -45 16 -27 5 -41 2 -58 -13z"/>
<path d="M4872 1865 c0 -16 2 -22 5 -12 2 9 2 23 0 30 -3 6 -5 -1 -5 -18z"/>
<path d="M4540 1845 c-6 -16 -19 -38 -27 -47 -15 -17 -6 -18 175 -18 106 0
192 4 192 9 0 5 -75 8 -166 7 -91 0 -168 2 -170 6 -3 4 0 17 6 28 6 12 9 26 7
33 -3 7 -10 -1 -17 -18z"/>
<path d="M794 1821 c-5 -5 -18 -11 -29 -14 -16 -4 -15 -5 5 -6 29 -1 57 14 43
22 -6 4 -14 2 -19 -2z"/>
<path d="M4228 1813 c7 -3 16 -2 19 1 4 3 -2 6 -13 5 -11 0 -14 -3 -6 -6z"/>
<path d="M4268 1803 c7 -3 16 -2 19 1 4 3 -2 6 -13 5 -11 0 -14 -3 -6 -6z"/>
<path d="M105 1790 l-110 -6 123 -2 c80 -1 121 2 117 8 -3 6 -9 9 -13 8 -4 -1
-56 -5 -117 -8z"/>
<path d="M4323 1793 c9 -2 23 -2 30 0 6 3 -1 5 -18 5 -16 0 -22 -2 -12 -5z"/>
<path d="M4438 1783 c12 -2 30 -2 40 0 9 3 -1 5 -23 4 -22 0 -30 -2 -17 -4z"/>
<path d="M4948 1783 c34 -2 88 -2 120 0 31 2 3 3 -63 3 -66 0 -92 -1 -57 -3z"/>
<path d="M755 1670 l-150 -6 188 -2 c119 -1 187 2 187 8 0 6 -17 9 -37 8 -21
-1 -105 -5 -188 -8z"/>
<path d="M1023 1673 c15 -2 37 -2 50 0 12 2 0 4 -28 4 -27 0 -38 -2 -22 -4z"/>
<path d="M1722 1661 c-3 -7 -2 -167 1 -355 4 -187 7 -558 7 -824 0 -362 3
-481 12 -476 8 5 10 216 7 828 l-4 821 73 3 72 3 0 -49 c0 -52 -14 -77 -74
-134 -16 -16 -25 -28 -20 -28 13 0 26 11 57 48 15 19 27 32 28 30 0 -2 2 -344
3 -761 2 -416 6 -760 9 -764 6 -6 8 202 11 1287 l1 385 -89 0 c-66 0 -90 -4
-94 -14z"/>
<path d="M4000 1669 c0 -5 5 -7 10 -4 6 3 10 8 10 11 0 2 -4 4 -10 4 -5 0 -10
-5 -10 -11z"/>
<path d="M4090 1672 c0 -4 87 -9 193 -10 105 -2 190 -2 187 1 -8 7 -380 17
-380 9z"/>
<path d="M3218 833 c1 -460 4 -834 6 -832 9 11 16 423 16 948 0 319 3 581 8
581 13 0 27 -15 38 -39 7 -18 13 -21 18 -12 5 8 -7 26 -33 51 -37 36 -41 43
-37 81 l4 43 63 -3 c35 -1 66 -5 69 -8 3 -2 4 -369 2 -814 -1 -446 1 -815 5
-822 10 -15 19 797 15 1292 l-4 371 -86 0 -87 0 3 -837z"/>
<path d="M3933 1663 c9 -2 23 -2 30 0 6 3 -1 5 -18 5 -16 0 -22 -2 -12 -5z"/>
<path d="M23 1623 c15 -2 39 -2 55 0 15 2 2 4 -28 4 -30 0 -43 -2 -27 -4z"/>
<path d="M118 1623 c6 -2 18 -2 25 0 6 3 1 5 -13 5 -14 0 -19 -2 -12 -5z"/>
<path d="M288 1623 c57 -2 147 -2 200 0 53 1 7 3 -103 3 -110 0 -154 -2 -97
-3z"/>
<path d="M3855 1620 c4 -6 11 -8 16 -5 14 9 11 15 -7 15 -8 0 -12 -5 -9 -10z"/>
<path d="M4767 1623 c18 -2 50 -2 70 0 21 2 7 4 -32 4 -38 0 -55 -2 -38 -4z"/>
<path d="M4900 1323 c5 -307 8 -281 12 105 2 130 -1 202 -7 202 -7 0 -8 -106
-5 -307z"/>
<path d="M4978 1623 c6 -2 18 -2 25 0 6 3 1 5 -13 5 -14 0 -19 -2 -12 -5z"/>
<path d="M5033 1623 c9 -2 23 -2 30 0 6 3 -1 5 -18 5 -16 0 -22 -2 -12 -5z"/>
<path d="M5088 1623 c7 -3 16 -2 19 1 4 3 -2 6 -13 5 -11 0 -14 -3 -6 -6z"/>
<path d="M2135 1607 c-25 -29 -26 -40 -2 -18 15 14 27 26 27 28 0 7 -16 1 -25
-10z"/>
<path d="M3789 1593 c-77 -60 -220 -247 -218 -287 0 -17 3 -16 11 9 24 64 172
243 238 287 14 9 20 17 14 17 -6 1 -26 -11 -45 -26z"/>
<path d="M4573 1613 c9 -2 23 -2 30 0 6 3 -1 5 -18 5 -16 0 -22 -2 -12 -5z"/>
<path d="M1446 1576 c6 -16 -24 -36 -43 -29 -7 3 -13 -2 -13 -11 0 -20 5 -20
41 1 29 18 37 37 19 48 -5 3 -7 0 -4 -9z"/>
<path d="M3931 1554 c0 -11 3 -14 6 -6 3 7 2 16 -1 19 -3 4 -6 -2 -5 -13z"/>
<path d="M2206 1543 c-6 -14 -5 -15 5 -6 7 7 10 15 7 18 -3 3 -9 -2 -12 -12z"/>
<path d="M3564 1544 c3 -9 6 -19 6 -24 0 -5 9 -8 20 -7 25 2 25 9 2 30 -23 21
-36 22 -28 1z"/>
<path d="M1540 1535 c-8 -9 -8 -15 -2 -15 6 0 13 -12 15 -27 3 -20 4 -15 6 15
1 46 -1 49 -19 27z"/>
<path d="M2100 1541 c0 -10 19 -25 25 -20 1 2 -3 10 -11 17 -8 7 -14 8 -14 3z"/>
<path d="M1930 1525 c-7 -9 -8 -15 -2 -15 5 0 12 7 16 15 3 8 4 15 2 15 -2 0
-9 -7 -16 -15z"/>
<path d="M2383 1523 c9 -2 23 -2 30 0 6 3 -1 5 -18 5 -16 0 -22 -2 -12 -5z"/>
<path d="M2455 1438 l0 -93 -55 4 c-71 4 -62 -4 13 -13 l57 -7 0 100 c0 56 -3
101 -8 101 -4 0 -7 -42 -7 -92z"/>
<path d="M2628 1425 c-2 -59 1 -95 7 -95 6 0 10 38 10 95 0 52 -3 95 -7 95 -4
0 -8 -43 -10 -95z"/>
<path d="M3985 1500 c10 -11 20 -20 23 -20 3 0 -3 9 -13 20 -10 11 -20 20 -23
20 -3 0 3 -9 13 -20z"/>
<path d="M3561 1468 c0 -7 3 -21 7 -30 6 -15 10 -14 35 7 31 28 35 40 8 25
-13 -7 -22 -7 -26 0 -9 14 -25 12 -24 -2z"/>
<path d="M1450 1451 c0 -9 24 -21 41 -21 5 0 9 4 9 10 0 5 -7 7 -15 4 -8 -4
-15 -1 -15 5 0 6 -4 11 -10 11 -5 0 -10 -4 -10 -9z"/>
<path d="M2190 1445 c7 -8 17 -15 22 -15 5 0 3 7 -6 15 -8 8 -18 15 -22 15 -3
0 -1 -7 6 -15z"/>
<path d="M3913 1408 c-27 -29 -69 -80 -93 -113 -24 -33 -55 -72 -69 -87 -13
-15 -21 -31 -17 -35 4 -4 10 -3 14 3 22 32 165 205 200 242 23 23 35 42 28 42
-7 0 -35 -24 -63 -52z"/>
<path d="M4070 1420 c0 -5 41 -53 91 -106 50 -52 89 -91 88 -85 -2 5 -29 36
-59 68 -30 32 -70 75 -87 96 -18 21 -33 33 -33 27z"/>
<path d="M935 1410 c-3 -5 -2 -10 4 -10 5 0 13 5 16 10 3 6 2 10 -4 10 -5 0
-13 -4 -16 -10z"/>
<path d="M1800 1400 c-14 -11 -20 -20 -14 -20 6 0 19 9 29 20 23 25 17 25 -15
0z"/>
<path d="M2290 1404 c0 -10 5 -26 10 -34 8 -11 9 -7 4 15 -8 37 -14 45 -14 19z"/>
<path d="M2148 1393 c7 -3 16 -2 19 1 4 3 -2 6 -13 5 -11 0 -14 -3 -6 -6z"/>
<path d="M2791 1374 c0 -11 3 -14 6 -6 3 7 2 16 -1 19 -3 4 -6 -2 -5 -13z"/>
<path d="M3975 1364 c-14 -15 -25 -32 -25 -38 0 -6 7 0 16 12 27 38 82 19 68
-24 -5 -17 -4 -17 5 -2 12 17 5 48 -10 48 -5 0 -9 7 -9 15 0 23 -18 18 -45
-11z"/>
<path d="M1093 1370 c-13 -5 -23 -11 -23 -14 0 -7 40 6 46 15 6 10 6 10 -23
-1z"/>
<path d="M2171 1376 c2 -2 15 -9 29 -15 24 -11 24 -11 6 3 -16 13 -49 24 -35
12z"/>
<path d="M2758 1353 c7 -3 16 -2 19 1 4 3 -2 6 -13 5 -11 0 -14 -3 -6 -6z"/>
<path d="M3763 1278 c-73 -103 -80 -113 -64 -104 6 4 35 42 64 84 64 94 69
102 63 102 -2 0 -31 -37 -63 -82z"/>
<path d="M43 1343 c26 -2 67 -2 90 0 23 2 2 3 -48 3 -50 0 -68 -1 -42 -3z"/>
<path d="M213 1343 c9 -2 23 -2 30 0 6 3 -1 5 -18 5 -16 0 -22 -2 -12 -5z"/>
<path d="M2242 1334 c10 -10 20 -16 22 -13 3 3 -5 11 -17 18 -21 13 -21 12 -5
-5z"/>
<path d="M2668 1333 c7 -3 16 -2 19 1 4 3 -2 6 -13 5 -11 0 -14 -3 -6 -6z"/>
<path d="M1760 1299 c0 -5 5 -7 10 -4 6 3 10 8 10 11 0 2 -4 4 -10 4 -5 0 -10
-5 -10 -11z"/>
<path d="M3917 1292 c-22 -24 -21 -29 3 -35 11 -3 20 -1 20 4 0 5 -7 9 -16 9
-13 0 -14 3 -4 15 7 8 16 12 21 9 5 -3 9 0 9 5 0 17 -15 13 -33 -7z"/>
<path d="M881 1278 c-14 -23 -14 -23 8 -4 22 20 25 26 13 26 -4 0 -13 -10 -21
-22z"/>
<path d="M1800 1275 c1 -26 2 -28 11 -12 8 14 8 22 0 30 -8 8 -11 3 -11 -18z"/>
<path d="M3563 1205 c0 -44 2 -61 4 -37 2 23 2 59 0 80 -2 20 -4 1 -4 -43z"/>
<path d="M1824 1238 c-23 -26 -24 -28 -4 -12 14 12 31 19 38 17 8 -3 10 1 6
11 -8 20 -5 21 -40 -16z"/>
<path d="M3963 1239 c-12 -30 -12 -31 7 -14 10 9 16 23 13 31 -7 19 -7 19 -20
-17z"/>
<path d="M1275 1240 c-3 -5 -1 -10 4 -10 6 0 11 5 11 10 0 6 -2 10 -4 10 -3 0
-8 -4 -11 -10z"/>
<path d="M3851 1210 c-18 -22 -30 -44 -27 -49 12 -18 45 -18 75 1 43 28 39 42
-5 16 -46 -27 -66 -12 -36 27 11 14 23 26 26 26 7 -1 9 9 4 15 -3 2 -19 -14
-37 -36z"/>
<path d="M3920 1230 c0 -5 5 -10 11 -10 5 0 7 5 4 10 -3 6 -8 10 -11 10 -2 0
-4 -4 -4 -10z"/>
<path d="M819 1203 l-24 -28 28 24 c15 14 27 26 27 28 0 8 -8 1 -31 -24z"/>
<path d="M2455 1221 c-3 -5 -1 -12 5 -16 5 -3 10 1 10 9 0 18 -6 21 -15 7z"/>
<path d="M3809 1213 c-13 -16 -12 -17 4 -4 16 13 21 21 13 21 -2 0 -10 -8 -17
-17z"/>
<path d="M2408 1213 c6 -2 18 -2 25 0 6 3 1 5 -13 5 -14 0 -19 -2 -12 -5z"/>
<path d="M2668 1213 c6 -2 18 -2 25 0 6 3 1 5 -13 5 -14 0 -19 -2 -12 -5z"/>
<path d="M4266 1207 c3 -10 9 -15 12 -12 3 3 0 11 -7 18 -10 9 -11 8 -5 -6z"/>
<path d="M4083 1160 c-18 -11 -33 -22 -33 -25 0 -2 16 5 35 16 19 12 35 23 35
25 0 6 -3 5 -37 -16z"/>
<path d="M4332 1135 c21 -22 41 -35 45 -31 4 5 2 11 -5 13 -7 3 -27 16 -45 31
-29 23 -29 22 5 -13z"/>
<path d="M852 1131 c-9 -5 -11 -17 -6 -37 10 -43 13 -45 37 -32 12 7 26 11 30
10 5 -1 6 2 2 8 -4 7 -12 7 -25 0 -24 -13 -30 -13 -30 0 0 6 8 10 18 11 12 0
10 3 -8 10 -20 8 -22 12 -10 19 9 6 19 5 24 0 6 -6 15 -10 21 -10 5 0 1 7 -9
15 -23 17 -26 18 -44 6z"/>
<path d="M702 1005 c0 -71 2 -138 6 -147 4 -10 6 38 4 105 -4 174 -9 194 -10
42z"/>
<path d="M963 1109 c15 -11 27 -27 27 -34 0 -7 -12 -16 -27 -21 -22 -5 -24 -8
-10 -11 10 -3 25 1 33 8 20 16 30 3 13 -17 -13 -16 -12 -16 8 -4 20 13 20 15
5 39 -18 30 -52 61 -67 60 -5 0 2 -9 18 -20z"/>
<path d="M3670 1115 c-18 -21 -3 -37 20 -22 24 14 25 23 6 30 -8 3 -20 0 -26
-8z"/>
<path d="M4020 1101 c-6 -16 -10 -38 -7 -48 4 -14 5 -13 6 5 0 13 6 32 12 44
6 11 9 22 6 24 -2 3 -10 -9 -17 -25z"/>
<path d="M3635 1079 c-4 -6 -16 -14 -27 -18 -17 -6 -13 -14 42 -74 34 -37 68
-67 76 -67 7 0 -13 28 -46 62 -58 60 -72 81 -49 76 6 -2 13 5 14 15 4 19 -1
22 -10 6z"/>
<path d="M4412 979 c-2 -101 -5 -120 -23 -143 -12 -15 -19 -29 -16 -32 2 -3
14 11 26 30 19 31 21 46 18 148 l-3 113 -2 -116z"/>
<path d="M3810 1070 c0 -5 7 -10 16 -10 8 0 12 5 9 10 -3 6 -10 10 -16 10 -5
0 -9 -4 -9 -10z"/>
<path d="M2368 839 c1 -128 5 -230 7 -227 8 8 6 453 -2 455 -4 2 -7 -101 -5
-228z"/>
<path d="M900 1045 c-6 -8 -10 -19 -8 -24 1 -5 11 2 21 15 19 26 8 34 -13 9z"/>
<path d="M2400 1050 c0 -5 5 -10 11 -10 5 0 7 5 4 10 -3 6 -8 10 -11 10 -2 0
-4 -4 -4 -10z"/>
<path d="M920 1015 c-7 -9 -8 -15 -2 -15 5 0 12 7 16 15 3 8 4 15 2 15 -2 0
-9 -7 -16 -15z"/>
<path d="M1014 1008 c-29 -32 -37 -48 -24 -48 6 0 14 8 17 18 11 28 36 42 52
29 11 -10 13 -9 9 3 -8 24 -32 23 -54 -2z"/>
<path d="M954 1009 c-3 -6 -1 -16 5 -22 8 -8 11 -5 11 11 0 24 -5 28 -16 11z"/>
<path d="M4903 975 c0 -22 2 -30 4 -17 2 12 2 30 0 40 -3 9 -5 -1 -4 -23z"/>
<path d="M1045 980 c-3 -5 -2 -17 3 -26 8 -14 10 -12 10 9 0 29 -3 33 -13 17z"/>
<path d="M1081 970 c2 -14 0 -31 -4 -37 -6 -9 -3 -11 7 -7 23 9 28 36 11 53
-15 15 -16 14 -14 -9z"/>
<path d="M2645 959 c-4 -6 -5 -12 -2 -15 2 -3 7 2 10 11 7 17 1 20 -8 4z"/>
<path d="M2633 895 c0 -22 2 -30 4 -17 2 12 2 30 0 40 -3 9 -5 -1 -4 -23z"/>
<path d="M3570 903 c0 -5 37 -7 82 -5 143 4 157 9 36 10 -65 1 -118 -1 -118
-5z"/>
<path d="M3833 893 c9 -2 23 -2 30 0 6 3 -1 5 -18 5 -16 0 -22 -2 -12 -5z"/>
<path d="M1176 789 c-203 -5 -377 -10 -385 -13 -9 -2 156 -2 367 1 l382 6 0
-144 c0 -190 12 -633 16 -638 2 -2 4 176 4 397 0 221 -3 401 -7 400 -5 0 -174
-5 -377 -9z"/>
<path d="M3560 395 c0 -244 4 -395 10 -395 5 0 9 146 10 382 0 210 3 384 6
387 2 3 82 7 177 9 94 2 173 5 176 8 2 2 -82 4 -187 4 l-192 0 0 -395z"/>
<path d="M3950 786 c0 -2 7 -6 15 -10 8 -3 15 -1 15 4 0 6 -7 10 -15 10 -8 0
-15 -2 -15 -4z"/>
<path d="M3990 778 c0 -10 261 -9 314 0 21 4 -40 7 -137 7 -98 0 -177 -3 -177
-7z"/>
<path d="M3278 733 c7 -3 16 -2 19 1 4 3 -2 6 -13 5 -11 0 -14 -3 -6 -6z"/>
<path d="M1940 601 c21 -13 410 -27 410 -15 0 5 -80 10 -178 11 -97 2 -193 5
-212 8 -25 4 -30 3 -20 -4z"/>
<path d="M3178 523 c7 -3 16 -2 19 1 4 3 -2 6 -13 5 -11 0 -14 -3 -6 -6z"/>
<path d="M2451 506 c12 -10 59 -15 59 -6 0 5 -14 10 -32 10 -17 0 -29 -2 -27
-4z"/>
<path d="M2553 493 c9 -2 23 -2 30 0 6 3 -1 5 -18 5 -16 0 -22 -2 -12 -5z"/>
<path d="M2623 460 c0 -25 2 -35 4 -22 2 12 2 32 0 45 -2 12 -4 2 -4 -23z"/>
<path d="M2795 490 c3 -5 12 -7 20 -3 21 7 19 13 -6 13 -11 0 -18 -4 -14 -10z"/>
<path d="M4313 460 c0 -25 2 -35 4 -22 2 12 2 32 0 45 -2 12 -4 2 -4 -23z"/>
<path d="M2533 383 c15 -2 39 -2 55 0 15 2 2 4 -28 4 -30 0 -43 -2 -27 -4z"/>
<path d="M2548 303 c12 -2 30 -2 40 0 9 3 -1 5 -23 4 -22 0 -30 -2 -17 -4z"/>
<path d="M4313 235 c0 -33 2 -45 4 -27 2 18 2 45 0 60 -2 15 -4 0 -4 -33z"/>
<path d="M3973 125 c0 -33 2 -45 4 -27 2 18 2 45 0 60 -2 15 -4 0 -4 -33z"/>
<path d="M4162 105 c0 -16 2 -22 5 -12 2 9 2 23 0 30 -3 6 -5 -1 -5 -18z"/>
<path d="M3971 14 c0 -11 3 -14 6 -6 3 7 2 16 -1 19 -3 4 -6 -2 -5 -13z"/>
</g>
</svg>
