<?xml version="1.0" standalone="no"?>
<!DOCTYPE svg PUBLIC "-//W3C//DTD SVG 20010904//EN"
 "http://www.w3.org/TR/2001/REC-SVG-20010904/DTD/svg10.dtd">
<svg version="1.0" xmlns="http://www.w3.org/2000/svg"
 width="512.000000pt" height="512.000000pt" viewBox="0 0 512.000000 512.000000"
 preserveAspectRatio="xMidYMid meet">
<metadata>
Created by potrace 1.16, written by Peter Selinger 2001-2019
</metadata>
<g transform="translate(0.000000,512.000000) scale(0.100000,-0.100000)"
fill="#000000" stroke="none">
<path d="M2365 4853 c-380 -31 -1042 -333 -1400 -636 -303 -257 -464 -452
-590 -711 -113 -233 -145 -401 -152 -806 -10 -544 45 -880 197 -1198 211 -441
671 -835 1203 -1026 183 -67 465 -125 697 -146 554 -48 1232 92 1630 337 107
66 263 190 346 275 354 363 523 703 606 1218 21 131 23 178 23 495 0 318 -2
361 -22 470 -65 354 -234 648 -549 955 -199 194 -364 310 -664 467 -325 171
-609 269 -880 303 -77 9 -348 11 -445 3z m560 -37 c197 -38 400 -110 630 -222
163 -80 200 -100 344 -182 89 -52 88 -51 166 -106 141 -100 336 -280 438 -406
34 -41 65 -76 69 -78 5 -2 8 -10 8 -17 0 -7 3 -15 8 -17 13 -5 72 -91 72 -105
0 -7 4 -13 8 -13 10 0 79 -127 116 -212 9 -21 22 -53 30 -70 131 -304 136
-1052 10 -1513 -33 -118 -51 -174 -74 -230 -24 -56 -72 -162 -80 -175 -6 -8
-25 -44 -44 -80 -33 -64 -136 -210 -176 -250 -11 -11 -19 -22 -17 -24 8 -15
-296 -303 -383 -362 -70 -49 -240 -147 -290 -168 -25 -11 -63 -27 -85 -37
-177 -75 -459 -147 -735 -186 -157 -22 -585 -25 -730 -5 -329 47 -572 117
-815 237 -212 104 -435 257 -564 386 -274 273 -410 492 -501 809 -24 81 -34
133 -65 316 -33 203 -32 831 3 1014 25 130 78 293 127 391 35 68 170 283 198
315 147 164 175 192 355 354 74 66 209 164 304 221 389 233 758 385 1028 424
128 19 533 13 645 -9z"/>
<path d="M1956 3672 c-10 -17 -37 -230 -35 -278 2 -43 -5 -65 -45 -146 -54
-110 -78 -210 -100 -423 -22 -207 -27 -377 -17 -495 5 -58 8 -106 7 -108 -8
-7 -137 -14 -160 -8 -105 26 -168 201 -131 366 9 41 19 99 22 129 l6 53 -44
-6 c-66 -9 -70 -9 -123 10 -46 16 -49 16 -62 0 -33 -45 -30 -327 5 -436 23
-73 82 -176 98 -173 6 1 10 -5 9 -14 -3 -40 144 -122 259 -144 51 -10 162 -3
180 11 7 6 9 -33 7 -114 -5 -143 2 -156 71 -156 64 0 169 26 225 54 48 24 53
25 92 11 60 -21 244 -55 324 -60 68 -4 70 -5 87 -39 33 -68 62 -108 84 -116
55 -21 160 38 234 133 l51 65 41 -9 c82 -19 171 29 227 123 35 58 86 239 78
273 -3 12 -20 26 -39 33 -41 15 -70 16 -62 2 3 -5 14 -10 24 -10 10 0 21 -9
24 -20 4 -14 10 -18 23 -13 14 5 16 3 11 -11 -4 -10 -8 -30 -8 -44 -2 -27 -2
-27 -9 3 -6 24 -7 22 -4 -13 2 -24 0 -41 -5 -38 -4 3 -6 -5 -4 -17 3 -13 -3
-39 -11 -58 -11 -23 -14 -26 -10 -9 14 60 14 72 0 35 -9 -22 -14 -46 -11 -53
7 -18 -13 -54 -25 -47 -6 3 -7 0 -4 -8 3 -8 0 -18 -7 -23 -8 -5 -10 -3 -4 6 5
9 4 11 -4 6 -6 -4 -9 -11 -6 -16 3 -4 -2 -13 -10 -20 -8 -7 -15 -9 -15 -5 0 4
-12 0 -26 -10 -18 -11 -41 -16 -70 -13 -24 2 -44 0 -44 -4 0 -11 58 -20 82
-13 18 5 20 4 8 -4 -8 -6 -50 -11 -92 -11 -72 0 -78 -2 -97 -28 -59 -77 -99
-116 -144 -138 -72 -37 -93 -26 -143 71 -33 62 -26 56 -71 60 -157 15 -278 34
-367 60 -43 13 -59 13 -82 4 -16 -7 -31 -13 -34 -14 -3 -1 -21 -9 -41 -18 -52
-23 -175 -37 -196 -22 -18 13 -20 87 -4 170 9 49 6 58 -9 23 -8 -20 -9 -18 -9
15 -1 31 -6 39 -26 47 -14 5 -25 17 -25 27 0 15 -1 15 -13 -2 -12 -16 -24 -17
-103 -12 -107 6 -172 29 -231 81 -59 52 -99 113 -131 199 -24 66 -26 85 -27
229 0 177 6 195 51 159 15 -12 29 -19 32 -16 3 3 -4 12 -16 21 -33 23 -27 32
13 20 28 -9 35 -15 31 -30 -4 -17 -3 -16 15 3 45 48 47 26 14 -119 -35 -153 5
-308 99 -384 35 -29 44 -31 132 -34 58 -3 94 -8 94 -15 0 -15 13 0 16 18 2 12
-11 15 -54 17 l-57 1 55 6 55 6 5 50 5 50 8 -37 c11 -55 25 -46 16 10 -29 177
14 692 72 870 22 65 61 144 87 175 13 14 15 43 14 145 -1 70 2 134 7 142 8 12
21 9 81 -20 39 -19 78 -42 87 -52 9 -10 22 -18 29 -18 7 0 15 -6 17 -12 4 -10
6 -10 6 -1 1 17 -50 53 -143 102 -44 22 -74 41 -67 41 14 0 160 -73 214 -107
41 -25 65 -24 31 2 -28 22 -253 135 -269 135 -8 0 -16 -4 -19 -8z m6 -158 c-3
-65 0 -103 8 -119 11 -21 9 -28 -17 -62 -17 -21 -40 -56 -51 -78 -12 -22 -21
-36 -22 -32 0 11 30 69 46 87 8 10 15 56 18 135 4 101 12 165 20 165 1 0 0
-43 -2 -96z m-97 -361 c-41 -121 -81 -452 -88 -738 -3 -91 -3 -88 -5 31 -4
234 40 612 84 722 23 57 30 46 9 -15z m-585 -458 c-7 -45 -7 -46 -9 -13 -1 32
8 74 14 66 1 -2 -1 -25 -5 -53z m-13 -207 c-2 -24 -4 -5 -4 42 0 47 2 66 4 43
2 -24 2 -62 0 -85z m190 80 c-3 -8 -6 -5 -6 6 -1 11 2 17 5 13 3 -3 4 -12 1
-19z m12 -212 c6 -16 9 -31 7 -33 -11 -12 -36 107 -35 166 l2 66 7 -85 c4 -47
13 -98 19 -114z m-192 52 c-3 -8 -6 -5 -6 6 -1 11 2 17 5 13 3 -3 4 -12 1 -19z
m223 -118 c6 -11 8 -20 6 -20 -3 0 -10 9 -16 20 -6 11 -8 20 -6 20 3 0 10 -9
16 -20z m41 -57 c13 -16 12 -17 -3 -4 -10 7 -18 15 -18 17 0 8 8 3 21 -13z
m74 -34 c18 -1 23 -3 12 -6 -26 -7 -67 5 -67 19 0 9 3 9 12 0 7 -7 26 -13 43
-13z m122 -186 c-20 -2 -52 -2 -70 0 -17 2 0 4 38 4 39 0 53 -2 32 -4z m1453
-167 c0 -2 -8 -10 -17 -17 -16 -13 -17 -12 -4 4 13 16 21 21 21 13z"/>
<path d="M2422 3549 c-80 -6 -114 -13 -155 -34 l-52 -26 70 6 c299 23 415 17
555 -27 67 -21 202 -86 208 -100 2 -5 9 -8 15 -8 7 0 46 -25 87 -56 l75 -56
137 7 c75 4 141 4 147 1 12 -8 -28 -94 -54 -116 -9 -7 -25 -27 -37 -43 -19
-27 -19 -28 -2 -18 36 21 52 37 83 86 17 27 31 44 31 39 0 -17 -55 -97 -89
-129 l-31 -30 6 -95 c11 -169 -35 -439 -107 -618 -16 -42 -33 -84 -36 -92 -5
-13 -4 -13 9 0 36 35 99 244 133 435 15 89 22 326 9 346 -3 6 9 27 28 47 52
55 77 95 98 158 11 32 20 61 20 66 0 10 -218 10 -285 -1 -47 -8 -52 -7 -80 21
-119 117 -353 217 -545 233 -36 3 -81 7 -100 9 -19 1 -81 -1 -138 -5z m146
-16 c-27 -2 -69 -2 -95 0 -27 2 -5 3 47 3 52 0 74 -1 48 -3z m-149 -7 c-2 -2
-29 -6 -59 -9 -36 -4 -46 -3 -30 3 25 8 97 13 89 6z m268 -2 c-3 -3 -12 -4
-19 -1 -8 3 -5 6 6 6 11 1 17 -2 13 -5z m66 -11 c-7 -2 -19 -2 -25 0 -7 3 -2
5 12 5 14 0 19 -2 13 -5z m44 -9 c-3 -3 -12 -4 -19 -1 -8 3 -5 6 6 6 11 1 17
-2 13 -5z m84 -23 c91 -31 269 -129 269 -148 0 -3 -12 3 -27 13 -78 51 -176
102 -243 126 -41 15 -70 27 -64 27 6 1 35 -7 65 -18z m609 -201 c-30 -5 -84
-8 -120 -7 l-65 0 65 7 c36 4 90 7 120 7 l55 0 -55 -7z"/>
<path d="M2046 3124 c-30 -30 -58 -180 -88 -484 -15 -154 -8 -170 80 -186 35
-6 69 -17 75 -23 6 -6 23 -11 38 -11 23 0 30 7 46 45 13 33 24 45 39 45 12 0
113 -13 225 -30 112 -16 218 -31 234 -33 25 -3 35 -12 59 -60 l29 -56 91 1
c134 2 130 -2 150 120 22 139 56 423 56 476 0 33 -6 49 -26 69 -41 41 -81 28
-169 -55 -40 -38 -101 -89 -135 -113 -34 -24 -70 -49 -79 -56 -12 -9 -43 -10
-119 -4 -93 7 -105 10 -120 32 -9 13 -43 53 -77 89 -33 36 -82 94 -110 129
-80 103 -102 121 -145 121 -22 0 -45 -7 -54 -16z m148 -86 c30 -40 85 -107
123 -148 37 -41 80 -90 94 -109 26 -32 30 -34 92 -35 36 -1 60 -4 55 -7 -6 -4
13 -9 43 -11 l54 -4 110 84 c61 45 133 106 162 133 46 45 55 50 82 44 17 -4
35 -14 40 -23 15 -27 -48 -574 -68 -593 -3 -4 -45 -9 -93 -11 l-86 -4 -24 58
c-19 49 -27 58 -48 58 -14 0 -110 14 -215 30 -104 16 -218 33 -252 36 l-63 7
-20 -49 c-12 -27 -23 -50 -25 -52 -2 -2 -21 6 -42 17 -21 11 -60 23 -87 26
l-48 7 6 66 c27 274 60 501 77 534 6 12 21 18 44 18 30 0 39 -7 89 -72z"/>
<path d="M3377 3020 c27 -189 -22 -510 -108 -699 -33 -72 -33 -75 -18 -65 22
13 71 142 105 271 52 205 64 467 23 532 -7 11 -8 0 -2 -39z"/>
<path d="M3824 3048 c-99 -74 -160 -158 -124 -170 7 -2 7 -70 0 -208 -21 -403
-36 -540 -60 -525 -4 3 -6 -5 -2 -17 3 -14 1 -19 -6 -14 -8 5 -10 1 -5 -10 5
-13 3 -15 -7 -9 -9 5 -11 4 -6 -3 6 -11 -19 -72 -30 -72 -2 0 2 14 11 30 28
55 8 31 -31 -37 -22 -36 -38 -70 -37 -75 2 -4 0 -7 -5 -6 -4 1 -36 -27 -72
-63 -76 -76 -162 -137 -264 -185 -77 -37 -89 -53 -112 -148 l-7 -29 59 9 c32
5 77 8 99 7 30 0 35 1 20 7 -21 9 -19 10 33 15 39 4 150 65 233 127 198 149
315 362 338 613 14 152 36 749 28 769 -8 21 -19 20 -53 -6z m22 -70 c-3 -18
-8 -125 -11 -238 -13 -446 -31 -581 -101 -729 -48 -103 -110 -187 -201 -271
-62 -57 -102 -84 -198 -130 -111 -54 -154 -67 -217 -61 -15 1 -16 4 -2 45 9
24 21 47 29 50 9 3 7 -7 -7 -32 -18 -34 -18 -35 -1 -16 11 12 50 38 88 59 162
87 274 185 356 310 113 175 124 231 147 772 8 169 8 173 35 201 27 28 36 49
17 37 -16 -10 -11 1 7 16 11 10 14 10 9 2 -10 -18 9 -16 24 2 20 25 31 17 26
-17z m-92 -33 c-4 -8 -10 -15 -14 -15 -4 0 -11 -10 -15 -22 -4 -15 -8 -18 -12
-10 -3 7 5 24 18 38 26 28 31 30 23 9z m73 -737 c-3 -8 -6 -5 -6 6 -1 11 2 17
5 13 3 -3 4 -12 1 -19z m-64 -203 c-3 -9 -8 -14 -10 -11 -3 3 -2 9 2 15 9 16
15 13 8 -4z m-202 -28 c-10 -9 -11 -8 -5 6 3 10 9 15 12 12 3 -3 0 -11 -7 -18z
m-62 -84 c-38 -43 -101 -102 -134 -126 -16 -12 11 18 60 65 91 88 119 111 74
61z m-259 -208 c0 -6 -56 -35 -67 -35 -4 1 8 9 27 20 39 22 40 22 40 15z"/>
<path d="M3261 2153 c0 -4 4 -17 9 -28 8 -19 9 -19 9 2 1 12 -3 25 -9 28 -5 3
-10 3 -9 -2z"/>
</g>
</svg>
