<?xml version="1.0" standalone="no"?>
<!DOCTYPE svg PUBLIC "-//W3C//DTD SVG 20010904//EN"
 "http://www.w3.org/TR/2001/REC-SVG-20010904/DTD/svg10.dtd">
<svg version="1.0" xmlns="http://www.w3.org/2000/svg"
 width="512.000000pt" height="512.000000pt" viewBox="0 0 512.000000 512.000000"
 preserveAspectRatio="xMidYMid meet">
<metadata>
Created by potrace 1.16, written by Peter Selinger 2001-2019
</metadata>
<g transform="translate(0.000000,512.000000) scale(0.100000,-0.100000)"
fill="#000000" stroke="none">
<path d="M2875 4079 c-4 -6 -5 -12 -2 -15 2 -3 7 2 10 11 7 17 1 20 -8 4z"/>
<path d="M2580 4071 c0 -6 4 -13 10 -16 6 -3 7 1 4 9 -7 18 -14 21 -14 7z"/>
<path d="M2965 4023 l-17 -28 23 22 c12 12 20 25 17 28 -3 3 -13 -7 -23 -22z"/>
<path d="M2775 4020 c-19 -8 -19 -9 3 -9 12 -1 22 4 22 9 0 6 -1 10 -2 9 -2 0
-12 -4 -23 -9z"/>
<path d="M3065 4020 c-3 -5 1 -10 9 -10 9 0 16 5 16 10 0 6 -4 10 -9 10 -6 0
-13 -4 -16 -10z"/>
<path d="M2560 3998 c0 -8 7 -21 15 -28 19 -16 19 -1 0 24 -12 16 -15 17 -15
4z"/>
<path d="M2995 3975 c-6 -9 -21 -17 -35 -19 -28 -3 -100 -32 -100 -40 0 -11
107 20 134 39 10 8 16 19 15 24 -3 7 -8 5 -14 -4z"/>
<path d="M2290 3891 c0 -5 7 -12 16 -15 14 -5 15 -4 4 9 -14 17 -20 19 -20 6z"/>
<path d="M2496 3892 c-2 -4 4 -13 15 -20 22 -14 25 -7 5 14 -8 8 -17 11 -20 6z"/>
<path d="M2658 3883 c6 -2 18 -2 25 0 6 3 1 5 -13 5 -14 0 -19 -2 -12 -5z"/>
<path d="M2796 3881 c-3 -5 -22 -8 -41 -6 -20 2 -33 -1 -30 -6 9 -14 58 -10
79 6 11 8 15 15 9 15 -7 0 -14 -4 -17 -9z"/>
<path d="M2598 3843 c7 -3 16 -2 19 1 4 3 -2 6 -13 5 -11 0 -14 -3 -6 -6z"/>
<path d="M2348 3823 c7 -3 16 -2 19 1 4 3 -2 6 -13 5 -11 0 -14 -3 -6 -6z"/>
<path d="M3157 3821 c38 -17 123 -25 123 -12 0 6 -19 11 -47 11 -27 0 -59 3
-73 5 -24 5 -24 5 -3 -4z"/>
<path d="M2828 3788 c9 -9 15 -9 24 0 9 9 7 12 -12 12 -19 0 -21 -3 -12 -12z"/>
<path d="M3095 3719 c-11 -17 1 -21 15 -4 8 9 8 15 2 15 -6 0 -14 -5 -17 -11z"/>
<path d="M1415 3693 c11 -3 24 -9 30 -14 15 -15 28 -10 15 6 -7 8 -24 14 -39
14 -20 -1 -22 -2 -6 -6z"/>
<path d="M2440 3685 c0 -9 6 -12 15 -9 8 4 12 10 9 15 -8 14 -24 10 -24 -6z"/>
<path d="M1400 3660 c0 -5 5 -10 10 -10 6 0 10 -6 10 -14 0 -8 7 -21 15 -30 9
-9 11 -17 5 -21 -18 -11 -11 -23 10 -18 24 6 24 4 0 59 -18 39 -50 61 -50 34z"/>
<path d="M3035 3660 c-3 -6 1 -7 9 -4 18 7 21 14 7 14 -6 0 -13 -4 -16 -10z"/>
<path d="M2995 3630 c-10 -11 -13 -20 -8 -20 13 0 38 29 31 35 -3 3 -13 -4
-23 -15z"/>
<path d="M2466 3606 c5 -35 9 -40 24 -31 8 5 7 10 -4 18 -8 7 -16 19 -19 27
-2 8 -3 2 -1 -14z"/>
<path d="M1325 3613 c4 -10 15 -44 23 -75 9 -32 19 -58 23 -58 3 0 -3 34 -15
75 -11 41 -25 75 -29 75 -5 0 -6 -8 -2 -17z"/>
<path d="M2567 3583 c5 -12 2 -15 -10 -10 -9 3 -19 2 -22 -2 -3 -5 3 -12 12
-15 17 -7 33 9 33 32 0 6 -4 12 -10 12 -5 0 -6 -8 -3 -17z"/>
<path d="M2636 3566 c10 -8 21 -12 24 -10 5 6 -21 24 -34 24 -6 0 -1 -6 10
-14z"/>
<path d="M2790 3568 c0 -6 -3 -9 -6 -5 -7 6 -64 -19 -64 -28 0 -3 8 -5 18 -5
19 0 84 49 65 50 -7 0 -13 -5 -13 -12z"/>
<path d="M1460 3550 c0 -5 4 -10 9 -10 6 0 13 5 16 10 3 6 -1 10 -9 10 -9 0
-16 -4 -16 -10z"/>
<path d="M2687 3549 c7 -7 15 -10 18 -7 3 3 -2 9 -12 12 -14 6 -15 5 -6 -5z"/>
<path d="M2466 3535 c-3 -8 -1 -15 4 -15 6 0 10 5 10 10 0 6 7 10 16 10 8 0
12 -4 9 -10 -3 -6 4 -10 17 -10 22 1 22 1 4 15 -25 19 -52 19 -60 0z"/>
<path d="M2856 3535 c-11 -8 -28 -15 -38 -15 -10 0 -18 -5 -18 -11 0 -16 51
-2 75 22 23 22 9 25 -19 4z"/>
<path d="M1476 3523 c-9 -10 -7 -53 3 -53 11 0 21 49 11 55 -4 2 -10 2 -14 -2z"/>
<path d="M2910 3510 c0 -5 14 -10 32 -10 36 0 35 4 -4 14 -17 4 -28 2 -28 -4z"/>
<path d="M3043 3493 c9 -2 25 -2 35 0 9 3 1 5 -18 5 -19 0 -27 -2 -17 -5z"/>
<path d="M1370 3465 c0 -20 36 -115 44 -115 4 0 5 8 1 18 -4 9 -12 33 -17 52
-9 33 -28 64 -28 45z"/>
<path d="M1496 3454 c-9 -24 -7 -27 9 -10 17 17 19 26 6 26 -5 0 -12 -7 -15
-16z"/>
<path d="M3393 3463 c9 -2 23 -2 30 0 6 3 -1 5 -18 5 -16 0 -22 -2 -12 -5z"/>
<path d="M3458 3463 c12 -2 30 -2 40 0 9 3 -1 5 -23 4 -22 0 -30 -2 -17 -4z"/>
<path d="M1564 3440 c3 -14 6 -28 6 -32 0 -5 4 -8 8 -8 13 0 7 39 -8 53 -10
10 -12 7 -6 -13z"/>
<path d="M3565 3451 c11 -4 63 -12 115 -16 110 -9 191 -28 229 -54 47 -32 57
-36 38 -14 -31 35 -107 61 -212 72 -55 6 -120 13 -145 16 -31 4 -39 3 -25 -4z"/>
<path d="M1520 3411 c0 -12 5 -21 10 -21 6 0 10 6 10 14 0 8 -4 18 -10 21 -5
3 -10 -3 -10 -14z"/>
<path d="M3463 3423 c9 -2 23 -2 30 0 6 3 -1 5 -18 5 -16 0 -22 -2 -12 -5z"/>
<path d="M1536 3348 c6 -22 25 -41 31 -34 2 2 -1 15 -6 30 -13 32 -35 36 -25
4z"/>
<path d="M1590 3361 c0 -6 4 -13 10 -16 6 -3 7 1 4 9 -7 18 -14 21 -14 7z"/>
<path d="M3731 3300 c-39 -39 -74 -85 -81 -104 -6 -19 -18 -37 -26 -40 -10 -4
-13 -13 -9 -26 4 -14 -3 -32 -24 -59 -35 -44 -40 -71 -13 -71 17 0 76 98 77
128 0 7 6 17 14 21 8 5 11 16 8 25 -3 8 -1 19 6 23 7 5 19 21 27 38 8 16 38
53 66 82 75 79 36 64 -45 -17z"/>
<path d="M1926 3337 c-5 -9 -5 -29 0 -45 7 -25 8 -26 11 -4 3 12 3 32 0 45 -3
19 -4 20 -11 4z"/>
<path d="M2945 3343 c-34 -8 -125 -54 -125 -64 0 -12 -3 -13 64 21 65 33 126
39 147 14 8 -10 22 -14 41 -10 35 7 88 -35 88 -69 0 -13 5 -27 10 -30 6 -3 10
-26 10 -49 0 -24 7 -57 16 -72 l16 -29 -7 35 c-3 19 -10 59 -15 87 -17 101
-51 142 -118 143 -15 1 -38 7 -52 15 -26 15 -40 16 -75 8z"/>
<path d="M3838 3311 c-18 -21 -51 -72 -72 -113 -55 -104 -149 -247 -163 -247
-7 -1 -13 -7 -13 -13 0 -7 -11 -23 -25 -36 -13 -13 -28 -38 -33 -55 -5 -18
-41 -108 -79 -202 -39 -93 -76 -192 -83 -220 -7 -27 -16 -54 -20 -60 -21 -29
-78 -310 -85 -421 -4 -43 -8 -91 -10 -106 -3 -16 -1 -28 4 -28 4 0 9 28 10 63
6 182 78 463 191 742 81 199 113 259 240 450 14 22 49 80 76 129 27 49 62 102
77 119 15 16 26 32 23 34 -2 2 -19 -14 -38 -36z"/>
<path d="M1414 3315 c4 -16 12 -34 18 -40 7 -7 8 -1 4 20 -4 17 -12 35 -18 40
-7 7 -8 1 -4 -20z"/>
<path d="M1606 3317 c3 -10 9 -15 12 -12 3 3 0 11 -7 18 -10 9 -11 8 -5 -6z"/>
<path d="M1557 3280 c-3 -13 0 -20 9 -20 8 0 14 9 14 20 0 11 -4 20 -9 20 -5
0 -11 -9 -14 -20z"/>
<path d="M3968 3241 c-4 -29 -28 -112 -52 -184 -25 -72 -44 -132 -42 -134 4
-5 56 136 86 234 12 39 20 86 18 105 -3 28 -4 24 -10 -21z"/>
<path d="M3017 3269 c7 -7 15 -10 18 -7 3 3 -2 9 -12 12 -14 6 -15 5 -6 -5z"/>
<path d="M3760 3255 c-7 -9 -11 -17 -9 -20 3 -2 10 5 17 15 14 24 10 26 -8 5z"/>
<path d="M1430 3250 c0 -5 5 -10 10 -10 6 0 10 5 10 10 0 6 -4 10 -10 10 -5 0
-10 -4 -10 -10z"/>
<path d="M1620 3250 c0 -5 5 -10 10 -10 6 0 10 5 10 10 0 6 -4 10 -10 10 -5 0
-10 -4 -10 -10z"/>
<path d="M1955 3251 c-3 -6 -1 -11 6 -11 7 0 10 -3 6 -6 -3 -4 1 -21 10 -38
19 -38 53 -82 53 -69 0 17 -37 82 -44 76 -3 -4 -6 -2 -7 3 -3 42 -13 61 -24
45z"/>
<path d="M2790 3251 c0 -6 -6 -10 -12 -8 -8 1 -14 -12 -16 -37 -3 -34 -14 -49
-83 -117 -44 -44 -75 -79 -67 -79 7 0 37 27 66 60 29 33 67 68 83 77 26 15 30
22 25 47 -4 20 -1 32 10 41 12 8 14 14 6 19 -7 4 -12 2 -12 -3z"/>
<path d="M1560 3242 c1 -12 30 -46 35 -40 9 8 -5 36 -21 42 -8 3 -14 2 -14 -2z"/>
<path d="M1440 3222 c0 -6 4 -21 9 -34 5 -13 18 -53 28 -90 18 -68 38 -97 23
-35 -24 105 -60 199 -60 159z"/>
<path d="M1640 3207 c0 -15 29 -77 36 -77 2 0 -2 15 -10 34 -8 19 -12 37 -9
39 2 3 0 8 -6 12 -6 3 -11 0 -11 -8z"/>
<path d="M2820 3216 c0 -2 7 -6 15 -10 8 -3 15 -1 15 4 0 6 -7 10 -15 10 -8 0
-15 -2 -15 -4z"/>
<path d="M3730 3200 c-6 -11 -8 -20 -6 -20 3 0 10 9 16 20 6 11 8 20 6 20 -3
0 -10 -9 -16 -20z"/>
<path d="M3034 3198 c-3 -4 5 -5 17 -3 30 6 36 14 9 12 -12 -1 -24 -5 -26 -9z"/>
<path d="M1580 3184 c0 -1 5 -15 12 -31 6 -15 11 -31 10 -34 0 -3 6 -6 14 -6
18 0 18 12 1 29 -8 7 -12 20 -10 29 3 9 -2 16 -11 16 -9 0 -16 -2 -16 -3z"/>
<path d="M2966 3181 c-3 -4 6 -6 19 -3 14 2 25 6 25 8 0 8 -39 4 -44 -5z"/>
<path d="M2887 3159 c8 -8 16 -8 30 0 16 9 14 10 -11 11 -22 0 -27 -3 -19 -11z"/>
<path d="M3068 3153 c6 -2 18 -2 25 0 6 3 1 5 -13 5 -14 0 -19 -2 -12 -5z"/>
<path d="M2790 3131 c0 -5 7 -14 15 -21 8 -7 15 -23 15 -35 0 -12 7 -29 16
-36 15 -12 16 -10 9 21 -11 48 -55 106 -55 71z"/>
<path d="M3040 3130 c0 -5 5 -10 10 -10 6 0 10 5 10 10 0 6 -4 10 -10 10 -5 0
-10 -4 -10 -10z"/>
<path d="M2042 3088 c8 -13 24 -40 37 -60 12 -21 28 -38 34 -38 9 0 9 2 1 8
-6 4 -24 31 -40 60 -15 28 -32 52 -37 52 -5 0 -3 -10 5 -22z"/>
<path d="M2955 3100 c-3 -5 1 -10 9 -10 8 0 18 5 21 10 3 6 -1 10 -9 10 -8 0
-18 -4 -21 -10z"/>
<path d="M1616 3089 c3 -5 12 -9 21 -9 19 0 9 13 -12 16 -8 1 -13 -2 -9 -7z"/>
<path d="M2910 3090 c0 -5 5 -10 10 -10 6 0 10 5 10 10 0 6 -4 10 -10 10 -5 0
-10 -4 -10 -10z"/>
<path d="M1695 3070 c-3 -5 -2 -10 4 -10 5 0 13 5 16 10 3 6 2 10 -4 10 -5 0
-13 -4 -16 -10z"/>
<path d="M3023 3072 c-13 -2 -23 -8 -23 -13 0 -9 37 -3 49 7 8 7 -4 10 -26 6z"/>
<path d="M1636 3045 c-3 -8 -3 -22 0 -30 7 -17 24 -20 24 -5 0 6 -4 10 -9 10
-5 0 -7 9 -4 20 6 23 -2 27 -11 5z"/>
<path d="M2440 3030 c-19 -4 -88 -15 -152 -25 -77 -12 -126 -24 -145 -37 -17
-13 -21 -18 -8 -13 38 13 318 65 352 65 18 0 33 5 33 10 0 11 -29 12 -80 0z"/>
<path d="M3675 3000 c-9 -16 -12 -30 -7 -30 4 0 13 14 19 30 6 17 10 30 7 30
-2 0 -10 -13 -19 -30z"/>
<path d="M1515 2964 c8 -32 14 -65 15 -73 0 -8 3 -12 6 -8 7 7 -16 118 -27
131 -4 5 -2 -18 6 -50z"/>
<path d="M3118 2991 c-9 -10 -24 -23 -33 -28 -21 -12 -50 -146 -106 -483 -76
-469 -93 -580 -86 -586 5 -6 46 205 53 277 3 30 12 82 20 116 8 35 24 129 34
210 11 82 32 213 47 292 28 141 29 144 66 173 20 16 37 34 37 39 0 15 -14 10
-32 -10z"/>
<path d="M3527 2980 c-22 -27 -22 -30 7 -30 31 0 39 12 23 34 -11 15 -13 15
-30 -4z"/>
<path d="M1650 2980 c0 -5 7 -10 15 -10 8 0 15 5 15 10 0 6 -7 10 -15 10 -8 0
-15 -4 -15 -10z"/>
<path d="M2860 2982 c0 -5 25 -19 56 -31 64 -24 64 -24 64 -12 0 5 -19 16 -42
24 -24 8 -51 18 -60 22 -10 4 -18 3 -18 -3z"/>
<path d="M2510 2970 c0 -5 5 -10 10 -10 6 0 10 5 10 10 0 6 -4 10 -10 10 -5 0
-10 -4 -10 -10z"/>
<path d="M3000 2970 c0 -13 20 -13 40 0 12 8 9 10 -12 10 -16 0 -28 -4 -28
-10z"/>
<path d="M3595 2850 c-30 -60 -53 -110 -50 -110 2 0 17 24 31 53 15 28 38 72
52 97 25 42 35 70 26 70 -2 0 -29 -49 -59 -110z"/>
<path d="M1665 2940 c4 -6 11 -8 16 -5 14 9 11 15 -7 15 -8 0 -12 -5 -9 -10z"/>
<path d="M3010 2940 c-8 -5 -12 -12 -9 -15 4 -3 12 1 19 10 14 17 11 19 -10 5z"/>
<path d="M3490 2924 c0 -10 -6 -14 -15 -10 -11 4 -15 -2 -15 -24 0 -20 5 -30
15 -30 9 0 15 6 14 13 -3 26 2 35 22 40 12 3 18 10 14 16 -10 17 -35 13 -35
-5z"/>
<path d="M2080 2920 c0 -5 5 -10 10 -10 6 0 10 5 10 10 0 6 -4 10 -10 10 -5 0
-10 -4 -10 -10z"/>
<path d="M2051 2904 c0 -11 3 -14 6 -6 3 7 2 16 -1 19 -3 4 -6 -2 -5 -13z"/>
<path d="M1680 2900 c0 -5 5 -10 10 -10 6 0 10 5 10 10 0 6 -4 10 -10 10 -5 0
-10 -4 -10 -10z"/>
<path d="M2962 2890 c0 -14 2 -19 5 -12 2 6 2 18 0 25 -3 6 -5 1 -5 -13z"/>
<path d="M2989 2893 c-2 -49 -51 -392 -94 -661 -14 -84 -24 -167 -24 -185 2
-53 118 650 125 761 4 56 4 102 1 102 -4 0 -7 -8 -8 -17z"/>
<path d="M3831 2819 c-18 -50 -30 -93 -28 -95 2 -2 18 37 35 88 18 50 31 93
28 95 -2 2 -18 -38 -35 -88z"/>
<path d="M2507 2893 c-13 -12 -7 -43 8 -43 8 0 15 6 15 13 0 18 -15 38 -23 30z"/>
<path d="M2470 2875 c7 -9 15 -13 17 -11 7 7 -7 26 -19 26 -6 0 -6 -6 2 -15z"/>
<path d="M1551 2857 c-1 -17 19 -102 63 -272 10 -41 14 -47 10 -20 -7 54 -72
315 -73 292z"/>
<path d="M1686 2856 c3 -9 11 -16 16 -16 13 0 5 23 -10 28 -7 2 -10 -2 -6 -12z"/>
<path d="M3410 2788 c-32 -66 -36 -88 -20 -88 6 0 10 9 10 20 0 11 5 20 10 20
6 0 10 8 10 19 0 10 6 24 14 31 8 6 12 18 9 26 -3 9 1 14 12 14 9 0 13 5 10
10 -13 21 -27 8 -55 -52z"/>
<path d="M2517 2820 c-3 -13 0 -20 9 -20 15 0 19 26 5 34 -5 3 -11 -3 -14 -14z"/>
<path d="M2270 2815 c0 -8 5 -15 10 -15 6 0 10 7 10 15 0 8 -4 15 -10 15 -5 0
-10 -7 -10 -15z"/>
<path d="M1700 2810 c0 -5 7 -10 16 -10 8 0 12 5 9 10 -3 6 -10 10 -16 10 -5
0 -9 -4 -9 -10z"/>
<path d="M1700 2770 c0 -5 5 -10 11 -10 5 0 7 5 4 10 -3 6 -8 10 -11 10 -2 0
-4 -4 -4 -10z"/>
<path d="M2097 2763 c-4 -3 -7 -11 -7 -17 0 -6 5 -5 12 2 6 6 9 14 7 17 -3 3
-9 2 -12 -2z"/>
<path d="M2565 2739 c-10 -15 3 -25 16 -12 7 7 7 13 1 17 -6 3 -14 1 -17 -5z"/>
<path d="M3460 2739 c0 -5 5 -7 10 -4 6 3 10 8 10 11 0 2 -4 4 -10 4 -5 0 -10
-5 -10 -11z"/>
<path d="M2267 2723 c-10 -9 -9 -43 2 -43 5 0 11 6 14 13 6 17 -7 40 -16 30z"/>
<path d="M3496 2651 c-20 -44 -36 -84 -35 -88 0 -4 18 30 40 76 21 46 38 86
36 88 -2 2 -20 -33 -41 -76z"/>
<path d="M3781 2679 c-13 -39 -14 -46 -2 -33 9 10 24 64 17 64 -2 0 -9 -14
-15 -31z"/>
<path d="M2141 2684 c0 -11 3 -14 6 -6 3 7 2 16 -1 19 -3 4 -6 -2 -5 -13z"/>
<path d="M3346 2648 c-23 -52 -56 -139 -56 -150 0 -4 5 -8 10 -8 6 0 10 9 10
20 0 11 5 20 11 20 6 0 9 9 6 19 -3 12 1 22 10 25 9 4 12 13 8 25 -3 12 0 21
10 24 8 4 12 13 9 22 -3 8 -1 15 5 15 6 0 11 7 11 15 0 28 -15 15 -34 -27z"/>
<path d="M2030 2660 c-8 -5 -12 -10 -7 -10 4 0 0 -8 -8 -17 -12 -15 -224 -331
-298 -445 -35 -56 -7 -26 34 35 24 34 68 96 99 137 49 65 98 139 143 215 7 11
14 22 17 25 8 8 42 70 38 70 -2 0 -10 -5 -18 -10z"/>
<path d="M2562 2658 c6 -18 28 -21 28 -4 0 9 -7 16 -16 16 -9 0 -14 -5 -12
-12z"/>
<path d="M2091 2624 c0 -11 3 -14 6 -6 3 7 2 16 -1 19 -3 4 -6 -2 -5 -13z"/>
<path d="M2270 2616 c0 -27 -8 -35 -41 -41 -12 -3 -24 -7 -28 -11 -3 -4 8 -4
24 0 17 4 68 11 115 17 105 13 122 23 23 14 -69 -7 -73 -7 -73 13 0 12 -4 24
-10 27 -6 3 -10 -5 -10 -19z"/>
<path d="M3697 2422 c-60 -189 -100 -330 -63 -227 39 109 138 426 134 430 -2
2 -34 -89 -71 -203z"/>
<path d="M2176 2607 c3 -10 9 -15 12 -12 3 3 0 11 -7 18 -10 9 -11 8 -5 -6z"/>
<path d="M2915 2570 c-4 -23 -5 -43 -2 -46 2 -3 7 14 11 37 4 23 5 44 2 46 -2
2 -7 -14 -11 -37z"/>
<path d="M2062 2551 c-13 -38 7 -125 42 -186 13 -22 27 -51 31 -65 16 -52 215
-506 289 -660 77 -159 39 -59 -71 190 -120 269 -193 437 -193 445 0 3 -18 44
-40 90 -49 106 -59 142 -49 179 11 40 4 45 -9 7z"/>
<path d="M1895 2550 c3 -5 8 -10 11 -10 2 0 4 5 4 10 0 6 -5 10 -11 10 -5 0
-7 -4 -4 -10z"/>
<path d="M2510 2512 c0 -29 5 -52 10 -52 12 0 9 85 -3 96 -4 4 -7 -16 -7 -44z"/>
<path d="M3446 2535 c-9 -26 -7 -32 5 -12 6 10 9 21 6 23 -2 3 -7 -2 -11 -11z"/>
<path d="M1632 2500 c0 -14 2 -19 5 -12 2 6 2 18 0 25 -3 6 -5 1 -5 -13z"/>
<path d="M3426 2485 c-9 -26 -7 -32 5 -12 6 10 9 21 6 23 -2 3 -7 -2 -11 -11z"/>
<path d="M2027 2477 c-4 -10 -7 -28 -6 -40 0 -21 1 -21 10 2 5 14 8 32 7 40
-3 13 -5 13 -11 -2z"/>
<path d="M2405 2480 c3 -5 8 -10 11 -10 2 0 4 5 4 10 0 6 -5 10 -11 10 -5 0
-7 -4 -4 -10z"/>
<path d="M2902 2470 c0 -14 2 -19 5 -12 2 6 2 18 0 25 -3 6 -5 1 -5 -13z"/>
<path d="M3274 2453 c-3 -16 -12 -50 -20 -77 -7 -27 -11 -52 -8 -57 3 -5 0 -9
-5 -9 -6 0 -11 -4 -11 -10 0 -25 26 -7 28 19 1 16 8 46 16 67 7 22 11 45 9 52
-3 6 0 12 6 12 6 0 11 7 11 15 0 26 -19 16 -26 -12z"/>
<path d="M2472 2430 c0 -14 2 -19 5 -12 2 6 2 18 0 25 -3 6 -5 1 -5 -13z"/>
<path d="M2500 2315 c-4 -163 -1 -238 9 -286 4 -19 6 63 4 181 -5 257 -10 296
-13 105z"/>
<path d="M2431 2428 c-1 -21 38 -220 44 -227 3 -2 5 13 5 35 0 38 -48 225 -49
192z"/>
<path d="M1870 2357 c-25 -34 -50 -73 -56 -88 -7 -14 -19 -29 -28 -32 -9 -4
-15 -10 -14 -14 1 -4 -10 -28 -26 -51 -15 -24 -25 -46 -23 -48 6 -6 62 72 116
161 23 39 52 82 63 97 12 15 20 29 17 31 -2 3 -24 -23 -49 -56z"/>
<path d="M2310 2410 c0 -5 5 -10 11 -10 5 0 7 5 4 10 -3 6 -8 10 -11 10 -2 0
-4 -4 -4 -10z"/>
<path d="M2320 2383 c0 -7 31 -85 69 -175 38 -90 82 -197 99 -238 17 -41 32
-71 32 -67 0 15 -71 212 -106 292 -19 44 -45 103 -57 130 -23 54 -37 76 -37
58z"/>
<path d="M2070 2336 c0 -8 4 -17 9 -20 11 -7 33 18 24 27 -12 12 -33 7 -33 -7z"/>
<path d="M3371 2314 c0 -11 3 -14 6 -6 3 7 2 16 -1 19 -3 4 -6 -2 -5 -13z"/>
<path d="M2090 2286 c0 -3 7 -23 14 -43 88 -229 178 -521 220 -720 13 -62 32
-86 22 -28 -31 179 -218 784 -245 793 -6 2 -11 1 -11 -2z"/>
<path d="M3226 2258 c-8 -32 -8 -38 5 -38 6 0 9 6 6 14 -3 8 -1 17 6 19 9 3 9
8 1 16 -9 9 -13 7 -18 -11z"/>
<path d="M1682 2230 c0 -14 2 -19 5 -12 2 6 2 18 0 25 -3 6 -5 1 -5 -13z"/>
<path d="M2226 2221 c-3 -5 4 -11 16 -14 25 -7 33 -3 23 12 -8 13 -32 14 -39
2z"/>
<path d="M3210 2200 c0 -5 5 -10 10 -10 6 0 10 5 10 10 0 6 -4 10 -10 10 -5 0
-10 -4 -10 -10z"/>
<path d="M1882 2165 c20 -76 204 -482 213 -473 3 2 -40 107 -95 232 -55 125
-100 231 -100 235 0 4 -7 16 -15 27 -13 17 -13 15 -3 -21z"/>
<path d="M3204 2171 c4 -6 4 -17 0 -23 -5 -7 -9 -19 -10 -28 -25 -186 -26
-200 -14 -200 6 0 10 8 9 18 -1 9 2 42 9 72 10 49 23 138 23 157 0 4 -5 9 -12
12 -7 2 -9 -1 -5 -8z"/>
<path d="M2290 2160 c0 -5 5 -10 11 -10 5 0 7 5 4 10 -3 6 -8 10 -11 10 -2 0
-4 -4 -4 -10z"/>
<path d="M3597 2088 c-9 -37 -17 -73 -16 -80 0 -7 9 19 20 57 10 39 17 74 16
80 -2 5 -11 -21 -20 -57z"/>
<path d="M2126 2095 c11 -99 161 -625 185 -649 12 -13 12 36 0 50 -4 5 -23 56
-40 114 -18 58 -46 146 -62 197 -15 50 -37 129 -48 175 -11 46 -25 101 -30
123 -10 40 -10 40 -5 -10z"/>
<path d="M2248 2123 c6 -2 18 -2 25 0 6 3 1 5 -13 5 -14 0 -19 -2 -12 -5z"/>
<path d="M1700 2099 c0 -5 5 -7 10 -4 6 3 10 8 10 11 0 2 -4 4 -10 4 -5 0 -10
-5 -10 -11z"/>
<path d="M2170 2014 c0 -19 43 -185 47 -181 5 5 -36 187 -43 187 -2 0 -4 -3
-4 -6z"/>
<path d="M3562 1931 c-7 -36 -10 -66 -8 -69 6 -6 28 107 23 121 -2 6 -9 -17
-15 -52z"/>
<path d="M1812 1950 c0 -19 2 -27 5 -17 2 9 2 25 0 35 -3 9 -5 1 -5 -18z"/>
<path d="M3164 1881 c2 -38 16 -53 16 -18 0 15 0 30 1 34 0 4 -4 9 -9 11 -5 1
-9 -10 -8 -27z"/>
<path d="M2520 1885 c0 -5 5 -17 10 -25 5 -8 10 -10 10 -5 0 6 -5 17 -10 25
-5 8 -10 11 -10 5z"/>
<path d="M3160 1815 c0 -8 5 -15 10 -15 6 0 10 7 10 15 0 8 -4 15 -10 15 -5 0
-10 -7 -10 -15z"/>
<path d="M3542 1810 c0 -14 2 -19 5 -12 2 6 2 18 0 25 -3 6 -5 1 -5 -13z"/>
<path d="M3160 1754 c0 -8 5 -12 10 -9 6 3 10 10 10 16 0 5 -4 9 -10 9 -5 0
-10 -7 -10 -16z"/>
<path d="M3532 1710 c0 -19 2 -27 5 -17 2 9 2 25 0 35 -3 9 -5 1 -5 -18z"/>
<path d="M3159 1728 c-7 -25 -7 -48 1 -48 6 0 10 11 10 25 0 20 -7 35 -11 23z"/>
<path d="M3155 1630 c3 -5 8 -10 11 -10 2 0 4 5 4 10 0 6 -5 10 -11 10 -5 0
-7 -4 -4 -10z"/>
<path d="M3522 1600 c0 -19 2 -27 5 -17 2 9 2 25 0 35 -3 9 -5 1 -5 -18z"/>
<path d="M2150 1571 c0 -6 4 -13 10 -16 6 -3 7 1 4 9 -7 18 -14 21 -14 7z"/>
<path d="M2618 1513 c6 -2 18 -2 25 0 6 3 1 5 -13 5 -14 0 -19 -2 -12 -5z"/>
<path d="M1708 1193 c7 -3 16 -2 19 1 4 3 -2 6 -13 5 -11 0 -14 -3 -6 -6z"/>
<path d="M1773 1183 c9 -2 23 -2 30 0 6 3 -1 5 -18 5 -16 0 -22 -2 -12 -5z"/>
<path d="M1858 1173 c6 -2 18 -2 25 0 6 3 1 5 -13 5 -14 0 -19 -2 -12 -5z"/>
<path d="M3378 1073 c7 -3 16 -2 19 1 4 3 -2 6 -13 5 -11 0 -14 -3 -6 -6z"/>
</g>
</svg>
