<?xml version="1.0" standalone="no"?>
<!DOCTYPE svg PUBLIC "-//W3C//DTD SVG 20010904//EN"
 "http://www.w3.org/TR/2001/REC-SVG-20010904/DTD/svg10.dtd">
<svg version="1.0" xmlns="http://www.w3.org/2000/svg"
 width="512.000000pt" height="512.000000pt" viewBox="0 0 512.000000 512.000000"
 preserveAspectRatio="xMidYMid meet">
<metadata>
Created by potrace 1.16, written by Peter Selinger 2001-2019
</metadata>
<g transform="translate(0.000000,512.000000) scale(0.100000,-0.100000)"
fill="#000000" stroke="none">
<path d="M2678 5104 c-6 -30 4 -144 12 -144 5 0 9 36 9 80 0 44 -4 80 -9 80
-5 0 -10 -7 -12 -16z"/>
<path d="M2861 4845 c4 -273 4 -275 25 -275 12 0 27 7 34 15 10 13 9 15 -9 15
-25 0 -24 -11 -22 298 2 201 0 222 -15 222 -15 0 -16 -24 -13 -275z"/>
<path d="M2680 4915 c0 -8 5 -15 10 -15 6 0 10 7 10 15 0 8 -4 15 -10 15 -5 0
-10 -7 -10 -15z"/>
<path d="M2680 4881 c0 -6 5 -13 10 -16 6 -3 10 1 10 9 0 9 -4 16 -10 16 -5 0
-10 -4 -10 -9z"/>
<path d="M703 4678 c-2 -16 1 -18 10 -9 7 7 8 14 1 21 -6 6 -10 2 -11 -12z"/>
<path d="M700 4576 c0 -44 4 -76 10 -76 6 0 10 30 10 69 0 39 -4 73 -10 76 -6
4 -10 -22 -10 -69z"/>
<path d="M2481 4636 c7 -8 98 -10 105 -3 4 4 -19 7 -51 7 -32 0 -56 -2 -54 -4z"/>
<path d="M2641 4601 c-70 -9 -65 -32 5 -26 32 3 59 7 62 9 6 6 -8 26 -16 24
-4 0 -27 -4 -51 -7z"/>
<path d="M2500 4580 c0 -5 14 -10 31 -10 17 0 28 4 24 10 -3 6 -17 10 -31 10
-13 0 -24 -4 -24 -10z"/>
<path d="M2956 4583 c-16 -16 0 -21 87 -27 50 -4 113 -10 140 -12 28 -3 47 0
47 6 0 5 -19 11 -42 12 -60 2 -153 13 -204 23 -12 3 -24 2 -28 -2z"/>
<path d="M0 4571 c0 -5 8 -12 18 -15 16 -5 181 -45 212 -51 8 -2 49 -12 90
-24 41 -11 89 -22 105 -24 38 -6 130 -27 365 -84 102 -25 192 -46 200 -48 8
-2 33 -8 55 -13 39 -11 48 -13 130 -27 22 -4 54 -11 70 -15 42 -12 115 -31
134 -35 9 -2 61 -13 116 -25 55 -12 106 -22 113 -23 6 0 12 -4 12 -9 0 -5 11
-6 24 -4 14 2 26 0 28 -6 3 -7 13 -12 24 -14 10 -1 44 -5 74 -9 30 -4 61 -8
68 -8 6 0 12 -4 12 -8 0 -4 6 -7 13 -6 46 1 68 -4 61 -15 -5 -9 -2 -9 9 1 9 7
17 9 17 4 0 -6 11 -9 25 -8 14 2 27 -1 30 -6 7 -10 69 -28 119 -34 54 -7 299
-62 329 -74 25 -10 27 -15 27 -66 0 -80 16 -68 18 15 2 39 1 70 -1 70 -3 0
-168 35 -327 70 -137 30 -709 159 -865 195 -104 24 -260 60 -345 79 -85 20
-263 61 -395 92 -227 52 -509 119 -547 130 -10 3 -18 1 -18 -5z"/>
<path d="M2553 4533 c-27 -10 -11 -18 27 -15 22 2 37 8 34 13 -6 10 -41 11
-61 2z"/>
<path d="M2881 4527 c-14 -14 -14 -37 0 -37 16 0 49 20 49 29 0 14 -37 20 -49
8z"/>
<path d="M2690 4514 c0 -8 5 -12 10 -9 6 3 10 10 10 16 0 5 -4 9 -10 9 -5 0
-10 -7 -10 -16z"/>
<path d="M2635 4510 c3 -5 10 -10 16 -10 5 0 9 5 9 10 0 6 -7 10 -16 10 -8 0
-12 -4 -9 -10z"/>
<path d="M2950 4510 c0 -5 5 -10 10 -10 6 0 10 5 10 10 0 6 -4 10 -10 10 -5 0
-10 -4 -10 -10z"/>
<path d="M1351 4423 c1 -62 4 -79 9 -58 11 45 11 133 0 140 -6 4 -10 -25 -9
-82z"/>
<path d="M1478 4503 c7 -3 16 -2 19 1 4 3 -2 6 -13 5 -11 0 -14 -3 -6 -6z"/>
<path d="M2875 4440 c-3 -5 1 -10 9 -10 9 0 16 5 16 10 0 6 -4 10 -9 10 -6 0
-13 -4 -16 -10z"/>
<path d="M1828 4413 c7 -3 16 -2 19 1 4 3 -2 6 -13 5 -11 0 -14 -3 -6 -6z"/>
<path d="M1868 4403 c7 -3 16 -2 19 1 4 3 -2 6 -13 5 -11 0 -14 -3 -6 -6z"/>
<path d="M2881 4391 c-8 -5 -9 -11 -3 -15 5 -3 8 -26 6 -51 -4 -40 -2 -45 16
-45 15 0 19 4 13 13 -11 18 -13 77 -2 77 5 0 9 7 9 15 0 17 -18 19 -39 6z"/>
<path d="M2168 4333 c7 -3 16 -2 19 1 4 3 -2 6 -13 5 -11 0 -14 -3 -6 -6z"/>
<path d="M2230 4328 c0 -11 28 -10 35 1 3 6 -4 9 -15 8 -11 -1 -20 -5 -20 -9z"/>
<path d="M2308 4333 c12 -2 32 -2 45 0 12 2 2 4 -23 4 -25 0 -35 -2 -22 -4z"/>
<path d="M2392 4334 c10 -10 58 -12 64 -3 3 5 -12 9 -32 9 -21 0 -35 -3 -32
-6z"/>
<path d="M2510 4245 c0 -38 2 -66 4 -64 8 7 10 118 3 126 -4 3 -7 -24 -7 -62z"/>
<path d="M2422 4278 c3 -7 13 -15 22 -16 12 -3 17 1 14 10 -3 7 -13 15 -22 16
-12 3 -17 -1 -14 -10z"/>
<path d="M0 4241 c0 -5 17 -15 38 -20 31 -9 417 -88 672 -137 390 -77 764
-149 850 -164 116 -21 409 -77 595 -115 162 -34 284 -55 317 -55 26 0 26 2 24
50 -3 64 -16 78 -16 17 0 -45 -1 -46 -28 -42 -15 3 -52 9 -82 14 -30 5 -125
22 -210 39 -85 17 -195 38 -245 47 -49 9 -117 23 -150 30 -33 8 -127 26 -210
40 -82 14 -177 32 -210 40 -33 7 -87 18 -120 24 -98 17 -476 90 -680 131 -104
21 -260 53 -345 70 -85 17 -165 34 -177 37 -13 3 -23 0 -23 -6z"/>
<path d="M2870 4210 c0 -5 9 -10 20 -10 11 0 20 5 20 10 0 6 -9 10 -20 10 -11
0 -20 -4 -20 -10z"/>
<path d="M78 4143 c7 -3 16 -2 19 1 4 3 -2 6 -13 5 -11 0 -14 -3 -6 -6z"/>
<path d="M208 4123 c7 -3 16 -2 19 1 4 3 -2 6 -13 5 -11 0 -14 -3 -6 -6z"/>
<path d="M2438 4053 c7 -3 16 -2 19 1 4 3 -2 6 -13 5 -11 0 -14 -3 -6 -6z"/>
<path d="M2890 3962 c0 -16 13 -20 35 -11 11 4 15 8 8 8 -6 1 -18 4 -27 7 -9
3 -16 1 -16 -4z"/>
<path d="M3129 3915 c-36 -20 -41 -35 -40 -150 1 -121 10 -134 98 -146 88 -13
92 -10 92 69 0 37 3 83 6 102 3 20 -1 53 -8 75 -12 34 -19 41 -48 46 -19 3
-43 8 -54 12 -11 3 -32 0 -46 -8z m94 -19 c2 3 12 -7 21 -21 13 -19 17 -45 15
-103 -1 -42 -6 -83 -11 -89 -7 -9 -6 -13 3 -13 31 0 -13 -24 -49 -27 -62 -3
-86 25 -90 108 -5 81 1 112 28 139 15 15 25 17 49 10 16 -4 31 -6 34 -4z"/>
<path d="M3187 3813 c-12 -21 -17 -72 -9 -94 8 -20 10 -13 13 39 4 63 4 68 -4
55z"/>
<path d="M3220 3766 c0 -25 5 -46 10 -46 6 0 10 18 10 39 0 22 -4 43 -10 46
-6 4 -10 -12 -10 -39z"/>
<path d="M1943 3693 c9 -2 23 -2 30 0 6 3 -1 5 -18 5 -16 0 -22 -2 -12 -5z"/>
<path d="M1990 3690 c0 -5 7 -10 15 -10 8 0 15 5 15 10 0 6 -7 10 -15 10 -8 0
-15 -4 -15 -10z"/>
<path d="M2530 3692 c0 -5 7 -9 15 -9 8 0 12 4 9 9 -3 4 -9 8 -15 8 -5 0 -9
-4 -9 -8z"/>
<path d="M2031 3686 c4 -4 29 -9 55 -12 27 -3 54 -12 60 -20 9 -12 17 -12 49
-1 21 8 34 16 29 19 -13 9 -200 22 -193 14z"/>
<path d="M2450 3646 c0 -31 14 -40 30 -21 15 18 6 45 -15 45 -9 0 -15 -9 -15
-24z"/>
<path d="M2347 3633 c-14 -13 -6 -23 18 -23 16 0 25 6 25 15 0 15 -31 21 -43
8z"/>
<path d="M2591 3624 c0 -11 3 -14 6 -6 3 7 2 16 -1 19 -3 4 -6 -2 -5 -13z"/>
<path d="M2500 3599 c0 -11 5 -17 10 -14 6 3 10 13 10 21 0 8 -4 14 -10 14 -5
0 -10 -9 -10 -21z"/>
<path d="M2258 3583 c-3 -17 6 -203 11 -193 8 21 12 210 3 210 -5 0 -11 -8
-14 -17z"/>
<path d="M2550 3580 c0 -5 5 -10 10 -10 6 0 10 5 10 10 0 6 -4 10 -10 10 -5 0
-10 -4 -10 -10z"/>
<path d="M2895 3580 c-3 -5 2 -10 12 -10 15 0 16 -2 3 -10 -8 -5 -12 -12 -9
-15 4 -3 11 1 18 8 9 11 8 17 -3 26 -10 8 -16 9 -21 1z"/>
<path d="M2347 3540 c-3 -11 -1 -23 4 -26 5 -3 9 6 9 20 0 31 -6 34 -13 6z"/>
<path d="M2446 3551 c-4 -7 -5 -15 -2 -18 9 -9 19 4 14 18 -4 11 -6 11 -12 0z"/>
<path d="M2436 3485 c-9 -24 -7 -45 3 -45 12 0 22 43 12 53 -5 5 -11 1 -15 -8z"/>
<path d="M2510 3489 c0 -5 5 -7 10 -4 6 3 10 8 10 11 0 2 -4 4 -10 4 -5 0 -10
-5 -10 -11z"/>
<path d="M2345 3470 c3 -5 8 -10 11 -10 2 0 4 5 4 10 0 6 -5 10 -11 10 -5 0
-7 -4 -4 -10z"/>
<path d="M2263 3340 c0 -25 2 -35 4 -22 2 12 2 32 0 45 -2 12 -4 2 -4 -23z"/>
<path d="M2570 2940 c-267 -15 -450 -50 -606 -115 -133 -56 -256 -136 -417
-272 -24 -21 -78 -66 -118 -100 -41 -34 -85 -71 -99 -83 l-25 -21 25 12 c13 7
96 72 184 146 313 262 454 334 714 362 179 19 895 9 954 -14 10 -4 20 -15 23
-26 8 -23 -31 -168 -93 -351 l-46 -138 -71 0 c-38 0 -146 5 -240 10 -105 6
-425 6 -835 1 l-665 -9 -197 -36 c-379 -69 -510 -124 -661 -280 -162 -168
-188 -196 -197 -220 -8 -22 -5 -27 33 -49 94 -55 132 -68 230 -83 175 -26 373
-36 603 -29 224 6 274 1 274 -29 0 -8 10 -16 23 -18 14 -2 23 -11 25 -24 3
-19 8 -21 40 -18 111 12 375 34 413 34 42 0 47 -3 164 -121 66 -67 133 -128
149 -136 77 -40 189 10 353 157 l112 100 26 87 c15 49 35 103 45 121 11 17 15
32 10 32 -12 0 -249 -49 -269 -56 -8 -2 -11 -7 -8 -10 9 -10 177 17 171 27 -3
5 5 9 18 9 13 0 34 3 48 5 14 3 20 3 13 0 -6 -4 -26 -51 -43 -106 -22 -67 -41
-109 -59 -126 -82 -78 -337 -223 -393 -223 -21 0 -40 13 -75 51 -106 115 -179
187 -200 198 -29 15 -121 14 -278 -4 -160 -18 -212 -19 -222 -2 -15 23 -52 49
-90 63 -38 13 -37 13 46 14 206 1 730 65 824 100 29 11 77 39 107 62 31 24 88
68 128 98 50 38 72 61 72 76 0 30 -22 36 -115 30 -44 -4 -74 -3 -67 0 6 3 12
13 12 22 0 8 3 13 6 10 3 -4 14 2 25 13 11 11 25 17 31 13 7 -4 8 -3 4 5 -6 9
-14 8 -32 -3 -29 -20 -40 -20 -25 -2 10 11 9 14 -2 12 -20 -3 -97 -57 -97 -67
0 -15 11 -10 47 17 19 14 36 24 39 21 9 -8 -75 -69 -86 -62 -14 9 -364 -68
-505 -110 -86 -26 -137 -35 -235 -40 -142 -8 -140 -8 -303 -143 l-78 -64 -271
4 c-316 5 -304 0 -294 103 3 33 8 71 11 85 5 23 2 26 -45 41 -27 8 -50 13 -50
10 1 -16 18 -29 47 -35 30 -7 31 -9 22 -39 -5 -18 -9 -53 -9 -79 0 -57 -20
-65 -41 -17 -13 32 -13 32 -21 8 -6 -15 -5 -25 1 -27 26 -9 8 -22 -29 -22 -22
0 -40 4 -40 8 0 5 -17 14 -38 20 -45 14 -132 68 -132 82 0 6 19 -2 42 -16 58
-37 140 -72 156 -67 23 9 12 19 -35 32 -49 14 -133 65 -133 80 0 5 10 16 23
24 22 14 25 14 47 -13 26 -32 86 -68 96 -58 3 4 -7 14 -23 22 -39 21 -68 48
-82 74 -16 30 0 28 30 -4 13 -14 37 -33 53 -41 32 -17 46 -7 46 34 0 12 3 29
6 38 4 9 3 15 -2 14 -20 -3 -26 2 -15 15 8 10 8 23 -3 54 -16 46 -9 64 12 30
13 -23 13 -23 9 -1 -6 29 30 63 125 117 116 65 250 112 373 130 l40 6 -44 -25
c-23 -14 -47 -25 -51 -25 -9 0 -90 -77 -90 -85 0 -10 57 21 87 46 44 38 142
83 237 109 105 29 253 37 726 39 l385 1 -195 -66 c-179 -60 -350 -136 -350
-156 0 -15 22 -8 74 21 57 32 285 117 420 156 95 27 195 33 243 14 31 -13 48
-5 -207 -87 -52 -17 -153 -51 -225 -76 -109 -39 -142 -46 -205 -46 -92 0 -125
-15 -56 -25 73 -11 168 8 351 73 94 32 216 74 273 93 95 31 102 35 102 59 0
22 -6 28 -37 37 -31 8 -8 10 117 10 103 0 132 -2 88 -6 -36 -3 -70 -10 -75
-14 -4 -5 24 -6 62 -3 39 4 99 8 135 10 36 1 43 1 15 -1 -27 -2 -54 -8 -60
-14 -5 -5 -18 -9 -29 -9 -10 0 -17 -3 -14 -6 4 -3 51 1 106 10 55 9 128 16
163 15 60 -1 57 -2 -67 -23 -71 -13 -139 -28 -150 -35 -19 -12 -19 -12 1 -7
11 3 74 15 140 26 170 29 238 44 229 52 -4 4 0 10 9 14 9 3 13 12 11 19 -3 7
-1 23 6 34 6 12 34 94 61 184 36 112 52 182 53 226 2 54 5 66 22 71 10 4 22 6
26 4 4 -3 9 0 13 6 8 13 -41 13 -66 0 -12 -7 -48 -8 -94 -4 -73 7 -75 7 -48
21 23 12 55 14 173 8 80 -4 174 -10 210 -14 l65 -7 -80 -6 c-81 -6 -128 -23
-158 -56 -18 -19 -67 -150 -67 -177 0 -8 -4 -23 -9 -33 -9 -16 -37 -100 -45
-133 -2 -8 -11 -40 -20 -69 -19 -65 -21 -89 -5 -73 12 12 58 146 111 327 40
137 66 168 153 186 125 26 321 -14 500 -101 131 -64 158 -87 173 -144 16 -63
10 -87 -30 -124 -47 -44 -102 -67 -218 -91 -58 -12 -131 -30 -162 -41 -31 -10
-101 -21 -155 -25 -54 -4 -109 -12 -122 -19 -23 -11 -22 -13 35 -44 33 -18 71
-45 86 -59 15 -14 31 -23 34 -19 6 6 -35 49 -79 82 -33 24 -20 35 48 35 48 0
109 12 225 43 30 8 91 22 135 32 97 21 141 43 195 93 34 33 40 45 40 80 0 22
-4 52 -9 65 -10 24 -9 25 19 11 15 -8 33 -21 40 -29 7 -8 39 -31 71 -51 33
-19 59 -40 59 -45 0 -5 30 -9 67 -9 36 0 64 -2 62 -4 -2 -3 -44 -11 -93 -20
-58 -10 -103 -24 -127 -41 -47 -30 -97 -111 -80 -128 8 -8 11 -5 11 11 0 57
110 131 215 145 126 17 183 19 206 6 13 -7 31 -14 39 -15 8 -2 23 -13 33 -25
20 -26 32 -20 22 11 -4 12 -23 28 -42 37 -44 18 -183 43 -241 43 -37 0 -56 10
-145 73 -119 86 -230 158 -287 187 -22 11 -40 21 -40 23 0 1 169 1 375 0 322
-1 375 0 375 13 0 12 -50 14 -372 9 -204 -3 -375 -8 -379 -10 -4 -3 -27 3 -51
14 -74 31 -194 69 -256 81 -166 30 -720 46 -1012 30z m485 -22 c-34 -13 -589
-18 -577 -6 8 8 154 13 432 15 136 1 168 -1 145 -9z m-589 -910 c4 -6 3 -13
-2 -15 -5 -2 -58 -39 -117 -82 -59 -43 -122 -82 -140 -85 -17 -3 -140 -17
-272 -31 -311 -34 -442 -52 -463 -65 -19 -13 -21 -13 273 20 99 11 227 27 285
35 163 22 166 23 150 18 -8 -3 -19 -9 -25 -13 -25 -20 -325 -66 -494 -76 -47
-3 -117 -9 -156 -14 -88 -11 -305 -13 -305 -2 0 4 12 15 28 24 15 9 38 28 52
41 65 61 100 75 208 82 56 4 102 5 102 2 0 -3 -29 -22 -64 -43 -36 -21 -63
-41 -60 -45 7 -12 71 18 134 63 42 29 88 49 173 74 154 44 449 104 562 114 50
4 98 8 107 9 9 0 20 -4 24 -11z m-2056 -52 c0 -12 -6 -28 -12 -35 -7 -7 -8
-12 -3 -11 24 5 33 -2 33 -25 0 -35 -15 -40 -23 -8 -4 19 -9 23 -14 14 -7 -10
-13 -10 -30 -2 -28 15 -27 33 5 70 28 34 44 33 44 -3z"/>
<path d="M2215 1973 c-38 -7 -76 -16 -83 -18 -7 -3 -14 -4 -17 -5 -3 0 -18 -6
-33 -14 -28 -15 -141 -33 -175 -28 -10 1 -15 -2 -12 -8 3 -6 -1 -7 -9 -4 -9 3
-16 1 -16 -5 0 -6 -11 -8 -27 -5 -33 5 -51 -5 -56 -31 -1 -11 -6 -26 -10 -32
-11 -17 20 -17 151 3 60 9 112 22 118 30 7 9 14 10 21 3 10 -10 114 -15 148
-7 12 3 21 15 23 29 7 53 24 79 61 89 20 5 47 10 61 10 22 -1 23 -2 7 -11 -10
-6 -31 -11 -48 -11 -25 -1 -28 -3 -14 -10 15 -9 15 -11 -1 -29 -9 -10 -14 -19
-10 -19 9 0 116 79 116 85 0 10 -128 2 -195 -12z m11 -35 c4 -6 -1 -17 -10
-24 -11 -8 -13 -14 -7 -19 17 -10 13 -25 -4 -19 -9 4 -15 0 -15 -10 0 -9 -6
-16 -14 -16 -11 0 -13 7 -6 29 7 24 5 29 -6 24 -8 -3 -14 -9 -14 -15 0 -5 -4
-6 -10 -3 -15 10 -12 35 5 35 8 0 15 4 15 10 0 5 6 7 14 4 8 -3 17 -1 21 5 8
14 22 14 31 -1z m-106 -32 c0 -28 -29 -42 -57 -28 -10 5 -26 8 -35 7 -10 -2
-20 0 -23 5 -3 4 9 10 26 12 16 3 32 1 35 -4 10 -15 24 -8 24 12 0 11 7 20 15
20 9 0 15 -9 15 -24z m-136 -32 c8 -20 8 -21 -27 -29 -17 -5 -27 -3 -27 4 0 6
9 11 20 11 13 0 18 5 14 15 -4 8 -2 15 4 15 5 0 13 -7 16 -16z m-72 -26 c-12
-11 -81 -18 -87 -9 -8 15 14 24 29 12 9 -8 18 -6 32 8 13 12 21 15 26 7 4 -6
4 -14 0 -18z"/>
<path d="M1728 1857 c-16 -6 -28 -16 -28 -23 0 -13 51 -26 61 -16 4 4 10 17
14 30 7 25 -3 27 -47 9z"/>
<path d="M1648 1803 c6 -2 18 -2 25 0 6 3 1 5 -13 5 -14 0 -19 -2 -12 -5z"/>
<path d="M4766 2854 c-4 -10 -2 -13 7 -7 6 4 30 10 52 14 l40 6 -46 2 c-34 1
-49 -3 -53 -15z"/>
<path d="M2285 2853 c-54 -2 -84 -7 -76 -12 9 -6 -4 -17 -45 -36 -39 -18 -53
-30 -42 -32 10 -2 46 9 80 25 64 30 128 45 128 30 0 -4 -10 -8 -22 -9 -52 -3
-61 -4 -65 -14 -2 -6 56 -9 164 -7 145 3 173 6 202 23 18 11 36 18 39 15 2 -3
-9 -13 -27 -23 -17 -10 -31 -22 -31 -26 0 -11 34 0 104 35 61 31 92 32 34 2
-30 -17 -31 -19 -11 -22 13 -2 37 8 58 24 20 15 38 24 41 21 3 -3 -6 -13 -20
-22 -14 -10 -26 -21 -26 -26 0 -16 23 -9 62 17 21 15 41 24 44 21 3 -3 -4 -10
-15 -17 -21 -11 -29 -30 -12 -30 4 0 25 11 46 25 44 30 58 27 19 -4 l-27 -21
24 0 c13 0 35 9 49 20 14 11 32 19 40 19 8 0 3 -7 -12 -15 -16 -8 -28 -19 -28
-24 0 -15 44 -12 66 5 16 13 17 16 4 26 -13 9 -13 10 0 6 16 -4 17 -20 4 -52
-7 -17 -6 -18 8 -7 11 9 23 10 42 2 38 -14 46 -13 46 10 0 33 -70 58 -187 66
-103 7 -544 12 -658 7z m190 -21 c-3 -3 -33 -7 -67 -8 -42 -3 -58 0 -48 6 15
9 124 11 115 2z m60 -2 c-3 -5 -13 -10 -21 -10 -8 0 -14 5 -14 10 0 6 9 10 21
10 11 0 17 -4 14 -10z m74 6 c-12 -10 -60 -16 -54 -6 3 5 18 10 32 10 15 0 24
-2 22 -4z m486 -36 c8 -13 -5 -13 -25 0 -13 8 -13 10 2 10 9 0 20 -4 23 -10z"/>
<path d="M3412 2840 c-18 -4 -36 -11 -40 -15 -4 -3 4 -4 18 0 14 3 54 10 90
14 63 8 64 8 15 9 -27 0 -65 -4 -83 -8z"/>
<path d="M2056 2824 c-52 -13 -126 -48 -126 -60 0 -3 17 -2 38 1 81 13 131 27
178 50 l49 24 -40 0 c-22 0 -67 -7 -99 -15z m-36 -34 c-8 -5 -19 -10 -25 -10
-5 0 -3 5 5 10 8 5 20 10 25 10 6 0 3 -5 -5 -10z"/>
<path d="M3568 2833 c12 -2 32 -2 45 0 12 2 2 4 -23 4 -25 0 -35 -2 -22 -4z"/>
<path d="M4786 2818 c-8 -32 -7 -68 2 -68 4 0 9 10 9 23 1 12 5 32 8 45 3 12
1 22 -4 22 -5 0 -11 -10 -15 -22z"/>
<path d="M4750 2803 c0 -13 5 -23 10 -23 13 0 13 11 0 30 -8 12 -10 11 -10 -7z"/>
<path d="M3722 2796 c10 -7 15 -15 12 -18 -3 -3 17 -50 44 -104 27 -55 57
-121 67 -149 19 -52 35 -78 35 -57 0 19 -39 112 -91 217 -28 55 -43 93 -35 85
9 -9 45 -72 81 -140 35 -69 65 -119 65 -112 0 8 -25 63 -56 123 -54 105 -102
169 -127 169 -7 0 -4 -7 5 -14z"/>
<path d="M4816 2771 c-3 -22 -12 -41 -18 -44 -7 -2 -9 -8 -5 -13 13 -14 37 26
37 63 0 44 -6 42 -14 -6z"/>
<path d="M3390 2790 c-44 -11 -74 -48 -100 -124 -25 -74 -14 -65 20 16 39 91
55 100 202 108 l123 7 -105 0 c-58 1 -121 -3 -140 -7z"/>
<path d="M3675 2775 c50 -18 55 -18 31 0 -11 8 -31 15 -45 15 -22 -1 -19 -3
14 -15z"/>
<path d="M1853 2734 c-56 -29 -310 -236 -386 -315 l-47 -49 47 1 c40 1 43 2
18 8 l-30 6 55 52 c100 93 312 261 361 284 26 13 48 27 49 32 0 12 -14 8 -67
-19z"/>
<path d="M2125 2750 c-38 -6 -150 -59 -141 -67 2 -3 24 6 48 18 49 26 52 27
95 35 39 7 135 -21 158 -46 14 -16 14 -20 -6 -54 -11 -20 -19 -36 -16 -36 9 0
58 81 53 88 -6 11 -90 52 -123 61 -16 4 -46 4 -68 1z"/>
<path d="M3822 2747 c19 -19 59 -40 65 -33 6 5 -56 46 -70 46 -5 0 -2 -6 5
-13z"/>
<path d="M4620 2733 c0 -18 16 -24 71 -26 47 -1 53 1 56 21 3 21 0 22 -62 19
-42 -1 -65 -6 -65 -14z"/>
<path d="M3031 2716 c10 -9 69 -36 69 -32 0 6 -55 36 -66 36 -4 0 -5 -2 -3 -4z"/>
<path d="M3706 2691 c-3 -5 1 -11 9 -15 8 -3 15 -1 15 4 0 13 -18 22 -24 11z"/>
<path d="M4567 2609 c-20 -45 -34 -85 -31 -90 12 -20 35 -7 53 30 23 43 39
141 24 141 -5 0 -26 -37 -46 -81z"/>
<path d="M1945 2660 c-3 -6 1 -7 9 -4 18 7 21 14 7 14 -6 0 -13 -4 -16 -10z"/>
<path d="M4000 2642 c0 -4 5 -13 11 -19 6 -6 12 -35 13 -64 l1 -53 -59 -30
c-32 -17 -54 -32 -48 -34 11 -3 75 28 105 52 26 20 32 75 13 119 -13 33 -36
51 -36 29z"/>
<path d="M2236 2574 c-10 -25 1 -29 14 -5 6 12 7 21 1 21 -5 0 -12 -7 -15 -16z"/>
<path d="M3242 2554 c-17 -67 -24 -146 -12 -139 5 3 10 27 10 53 0 26 4 63 10
81 5 19 8 37 5 39 -2 2 -8 -13 -13 -34z"/>
<path d="M3665 2580 c-49 -5 -55 -7 -34 -14 36 -10 102 -4 107 12 2 6 0 11 -5
10 -4 -1 -35 -4 -68 -8z"/>
<path d="M2472 2521 c-7 -36 -10 -66 -8 -69 7 -6 29 104 24 119 -3 8 -10 -15
-16 -50z"/>
<path d="M3101 2564 c0 -11 3 -14 6 -6 3 7 2 16 -1 19 -3 4 -6 -2 -5 -13z"/>
<path d="M2918 2519 c41 -22 72 -42 70 -44 -2 -2 -24 3 -48 11 -71 25 -175 14
-290 -30 -102 -39 -72 -39 48 0 85 28 174 31 259 9 66 -17 83 -19 83 -6 0 13
-153 101 -176 101 -10 0 14 -19 54 -41z"/>
<path d="M2500 2514 c0 -7 7 -25 15 -40 8 -16 15 -22 15 -14 -1 18 -29 70 -30
54z"/>
<path d="M3256 2495 c4 -16 13 -44 21 -62 7 -18 13 -40 13 -50 -1 -16 -2 -16
-16 2 -15 19 -16 19 -12 1 1 -11 9 -21 15 -24 22 -7 26 27 9 81 -20 62 -40 98
-30 52z"/>
<path d="M3402 2489 c-28 -30 -29 -46 -1 -18 21 21 28 21 133 15 61 -4 116
-12 123 -18 9 -7 13 -7 13 1 0 20 -51 33 -151 38 -91 5 -97 5 -117 -18z"/>
<path d="M1335 2485 c-22 -8 -41 -15 -42 -15 -2 0 -3 -4 -3 -10 0 -6 10 -5 26
2 20 9 30 9 47 -1 17 -11 22 -11 32 3 7 8 23 20 36 25 41 17 -49 13 -96 -4z"/>
<path d="M3565 2449 c-91 -25 -101 -30 -40 -22 50 5 115 27 115 37 0 4 -1 5
-2 5 -2 -1 -34 -10 -73 -20z"/>
<path d="M2175 2430 c-3 -5 -1 -10 4 -10 6 0 11 5 11 10 0 6 -2 10 -4 10 -3 0
-8 -4 -11 -10z"/>
<path d="M3790 2424 c-100 -18 -117 -24 -50 -18 58 5 179 32 145 32 -11 0 -54
-6 -95 -14z"/>
<path d="M2028 2423 c23 -2 61 -2 85 0 23 2 4 4 -43 4 -47 0 -66 -2 -42 -4z"/>
<path d="M2920 2421 c0 -16 15 -20 40 -14 22 6 23 7 4 14 -27 11 -44 11 -44 0z"/>
<path d="M1284 2404 c3 -9 6 -18 6 -20 0 -3 4 -3 10 1 11 7 2 35 -12 35 -6 0
-7 -7 -4 -16z"/>
<path d="M1918 2413 c12 -2 32 -2 45 0 12 2 2 4 -23 4 -25 0 -35 -2 -22 -4z"/>
<path d="M2280 2400 c-63 -3 -108 -7 -100 -9 29 -5 205 1 245 9 l40 8 -35 -1
c-19 -1 -87 -4 -150 -7z"/>
<path d="M2503 2394 c0 -12 22 -14 129 -13 71 0 127 3 125 6 -3 2 -58 7 -123
9 -65 3 -121 7 -124 9 -4 2 -7 -3 -7 -11z"/>
<path d="M4610 2390 c0 -10 7 -23 16 -28 8 -5 16 -15 18 -23 1 -8 7 -23 13
-35 12 -20 11 -20 -35 3 -37 19 -56 22 -87 17 -54 -9 -73 -20 -124 -73 -54
-57 -91 -130 -126 -246 -15 -50 -34 -112 -42 -140 -8 -27 -16 -57 -18 -65 -2
-17 -98 -59 -136 -60 -15 0 -29 -6 -32 -14 -7 -18 48 -6 124 28 61 27 67 35
94 143 21 87 71 225 97 270 24 44 93 111 126 124 75 29 143 -3 206 -96 14 -21
26 -46 26 -56 0 -22 11 -24 28 -7 16 16 16 51 0 46 -13 -5 -88 144 -88 175 0
9 -4 17 -10 17 -5 0 -19 9 -30 20 -20 20 -20 20 -20 0z"/>
<path d="M2784 2389 c-3 -5 15 -9 40 -9 58 0 68 15 10 16 -24 1 -47 -2 -50 -7z"/>
<path d="M3207 2385 c-4 -8 -2 -17 3 -20 6 -4 10 3 10 14 0 25 -6 27 -13 6z"/>
<path d="M3340 2381 c-6 -12 -7 -21 -1 -21 10 0 24 30 17 37 -2 3 -9 -5 -16
-16z"/>
<path d="M2008 2383 c23 -2 59 -2 80 0 20 2 1 4 -43 4 -44 0 -61 -2 -37 -4z"/>
<path d="M2138 2383 c7 -3 16 -2 19 1 4 3 -2 6 -13 5 -11 0 -14 -3 -6 -6z"/>
<path d="M2438 2383 c7 -3 16 -2 19 1 4 3 -2 6 -13 5 -11 0 -14 -3 -6 -6z"/>
<path d="M3310 2340 c-8 -5 -55 -10 -104 -10 -103 0 -109 -18 -9 -22 34 -1 57
-5 51 -9 -9 -6 -9 -14 2 -33 7 -14 18 -26 23 -26 5 0 4 7 -3 15 -20 24 7 18
33 -7 12 -13 27 -23 32 -23 6 -1 9 -6 7 -13 -1 -7 9 -17 24 -22 16 -6 23 -14
18 -22 -4 -7 -4 -10 1 -6 4 4 15 0 24 -9 13 -14 16 -46 19 -197 3 -184 7 -226
20 -226 4 0 6 35 5 77 -2 43 -4 133 -5 200 l-3 122 49 11 c27 6 51 8 54 5 9
-9 4 -328 -5 -359 -7 -22 -16 -30 -38 -33 -32 -5 -41 -10 -33 -19 3 -3 21 -1
39 4 27 6 37 16 46 44 16 49 26 261 15 325 l-9 53 36 6 c20 3 97 22 171 41 74
19 162 39 195 43 65 9 135 31 135 42 0 12 -22 21 -29 12 -9 -13 -109 -47 -123
-41 -7 2 -29 -1 -48 -8 -19 -7 -100 -27 -180 -44 -80 -18 -175 -39 -213 -48
l-67 -15 -22 28 c-31 41 -88 94 -122 115 l-30 18 26 10 c14 5 29 15 33 20 8
13 4 14 -15 1z"/>
<path d="M3985 2290 c-3 -6 1 -7 9 -4 18 7 21 14 7 14 -6 0 -13 -4 -16 -10z"/>
<path d="M1845 2278 c-86 -30 -185 -71 -185 -77 0 -9 231 67 245 80 12 12 -21
10 -60 -3z"/>
<path d="M2323 2283 c9 -2 25 -2 35 0 9 3 1 5 -18 5 -19 0 -27 -2 -17 -5z"/>
<path d="M2541 2279 c-68 -13 -63 -22 10 -17 74 6 132 28 69 27 -19 -1 -55 -5
-79 -10z"/>
<path d="M4150 2265 c0 -14 4 -25 9 -25 4 0 6 11 3 25 -2 14 -6 25 -8 25 -2 0
-4 -11 -4 -25z"/>
<path d="M1129 2262 c-13 -10 -51 -33 -84 -52 -33 -18 -82 -49 -109 -68 -38
-26 -53 -32 -66 -24 -11 7 -21 5 -35 -5 -19 -15 -19 -15 3 -8 16 5 22 3 20 -7
-5 -23 43 -9 94 27 26 19 51 35 54 35 3 0 18 9 33 20 15 10 53 29 85 40 31 12
54 25 51 30 -3 5 -13 7 -23 4 -14 -5 -14 -3 2 10 28 22 4 20 -25 -2z"/>
<path d="M2223 2260 c-36 -14 -27 -19 15 -9 55 15 60 17 32 18 -14 0 -35 -4
-47 -9z"/>
<path d="M1783 2218 c-68 -22 -123 -44 -123 -48 0 -9 71 9 140 35 25 9 55 19
67 22 12 3 28 11 34 19 6 8 10 14 8 13 -2 0 -59 -19 -126 -41z"/>
<path d="M3220 2250 c0 -5 5 -10 11 -10 5 0 7 5 4 10 -3 6 -8 10 -11 10 -2 0
-4 -4 -4 -10z"/>
<path d="M4040 2245 c-23 -13 -23 -14 -4 -15 11 0 25 5 31 11 7 7 13 7 17 1 8
-14 -21 -42 -42 -42 -10 0 -27 7 -39 15 -12 8 -24 11 -27 6 -3 -5 6 -17 21
-26 21 -14 34 -16 62 -9 31 8 36 13 39 42 4 37 -14 42 -58 17z"/>
<path d="M4555 2250 c-54 -24 -107 -94 -129 -169 -9 -30 -16 -64 -15 -75 0
-12 6 2 13 29 26 106 84 182 160 212 22 8 25 12 11 12 -11 0 -29 -4 -40 -9z"/>
<path d="M2585 2243 c-31 -7 -40 -21 -11 -16 15 3 29 9 32 14 3 5 4 8 2 8 -2
-1 -12 -3 -23 -6z"/>
<path d="M4469 2233 c-13 -16 -12 -17 4 -4 9 7 17 15 17 17 0 8 -8 3 -21 -13z"/>
<path d="M2115 2229 c-4 -6 -4 -13 0 -17 4 -4 10 -1 12 6 3 6 9 10 14 6 5 -3
9 0 9 5 0 14 -27 14 -35 0z"/>
<path d="M4162 2159 c-1 -42 -9 -111 -18 -154 -9 -42 -14 -78 -11 -81 11 -12
38 168 35 236 l-4 75 -2 -76z"/>
<path d="M840 2214 c-43 -14 -90 -38 -90 -46 0 -4 -6 -8 -14 -8 -8 0 -17 -4
-20 -9 -8 -13 33 -1 72 21 18 10 39 18 46 18 8 0 16 7 20 15 3 8 4 15 3 14 -1
0 -9 -3 -17 -5z"/>
<path d="M2567 2205 c-14 -7 -34 -15 -44 -18 -15 -4 -15 -5 2 -5 29 -1 91 23
79 31 -6 3 -22 0 -37 -8z"/>
<path d="M3270 2211 c0 -6 4 -13 10 -16 6 -3 7 1 4 9 -7 18 -14 21 -14 7z"/>
<path d="M3164 2176 c-3 -8 0 -24 6 -36 9 -17 17 -20 45 -14 27 5 35 2 44 -15
7 -12 8 -21 2 -21 -5 0 -5 -15 1 -37 6 -21 12 -59 13 -85 3 -39 0 -47 -17 -51
-12 -4 -21 0 -24 11 -3 9 -12 29 -19 43 -14 25 -13 26 15 24 19 -1 30 3 30 11
0 17 -17 27 -25 14 -10 -16 -21 -12 -33 15 -6 14 -18 25 -27 25 -8 0 -15 7
-15 15 0 8 -7 15 -16 15 -9 0 -29 11 -46 25 -43 37 -103 50 -158 36 -49 -13
-126 -66 -135 -93 -4 -10 -10 -18 -15 -18 -4 0 -15 -15 -24 -32 -9 -18 -26
-49 -38 -68 -36 -61 -50 -100 -35 -100 7 0 26 28 42 62 83 174 192 259 295
230 35 -10 34 -10 -18 -11 -31 -1 -69 -9 -91 -21 -42 -21 -116 -99 -144 -151
-17 -32 -17 -33 0 -9 39 55 116 129 151 146 106 50 233 -22 284 -162 10 -29
15 -32 42 -28 54 10 54 9 45 56 -4 24 -13 79 -19 123 -12 81 -29 132 -30 89 0
-18 -6 -21 -30 -20 -31 1 -58 20 -43 29 5 3 21 0 36 -8 28 -14 36 -8 15 13
-17 17 -57 15 -64 -2z"/>
<path d="M1955 2171 c-10 -17 15 -23 31 -7 14 15 14 16 -5 16 -11 0 -22 -4
-26 -9z"/>
<path d="M3288 2153 c5 -21 7 -23 10 -9 2 10 0 22 -6 28 -6 6 -7 0 -4 -19z"/>
<path d="M4393 2165 c-3 -9 -3 -18 -1 -21 3 -3 8 4 11 16 6 23 -1 27 -10 5z"/>
<path d="M2403 2155 c0 -10 5 -11 19 -4 10 5 18 11 18 12 0 2 -8 3 -18 4 -10
1 -19 -5 -19 -12z"/>
<path d="M2456 2155 c-11 -8 -15 -15 -9 -15 6 0 16 7 23 15 16 19 11 19 -14 0z"/>
<path d="M1897 2153 c-12 -11 -8 -23 8 -23 8 0 15 7 15 15 0 16 -12 20 -23 8z"/>
<path d="M2370 2131 c-8 -6 -18 -7 -24 -4 -5 3 -6 1 -2 -5 5 -9 13 -9 27 -2
10 6 19 13 19 15 0 7 -3 6 -20 -4z"/>
<path d="M4515 2106 c-24 -25 -35 -52 -48 -107 -9 -41 -16 -87 -15 -104 0 -16
-3 -52 -7 -79 -5 -31 -5 -47 1 -43 6 3 11 24 12 47 2 22 7 52 12 66 12 31 12
57 0 29 -13 -31 -11 2 4 65 25 107 65 157 116 146 19 -3 29 -2 25 4 -14 23
-68 10 -100 -24z"/>
<path d="M4374 2119 c-3 -6 -1 -16 5 -22 8 -8 11 -5 11 11 0 24 -5 28 -16 11z"/>
<path d="M3180 2096 c0 -20 25 -37 44 -30 14 5 12 9 -8 25 -29 23 -36 24 -36
5z"/>
<path d="M3477 2103 c-2 -5 -1 -51 3 -103 l7 -95 1 93 c1 56 6 92 12 92 6 0 9
-10 8 -22 -2 -13 1 -24 7 -26 5 -1 10 14 12 33 2 31 -1 35 -22 35 -13 0 -26
-3 -28 -7z"/>
<path d="M4747 2103 c-7 -12 18 -159 25 -148 8 14 -3 155 -13 155 -4 0 -10 -3
-12 -7z"/>
<path d="M4544 2088 c-25 -11 -59 -79 -51 -100 3 -8 6 -5 6 7 1 11 10 35 21
53 16 26 26 32 56 32 19 0 45 -5 56 -11 12 -7 18 -7 14 -1 -3 6 -3 12 1 15 5
2 3 2 -4 1 -7 -2 -15 1 -18 6 -8 13 -54 12 -81 -2z"/>
<path d="M3306 2018 c9 -71 14 -73 14 -5 0 33 -4 57 -10 57 -7 0 -8 -19 -4
-52z"/>
<path d="M4660 2068 c0 -2 11 -25 25 -52 14 -27 25 -55 25 -62 0 -7 4 -15 9
-19 14 -8 -8 65 -31 103 -17 27 -28 39 -28 30z"/>
<path d="M2890 2016 c0 -2 7 -7 16 -10 8 -3 12 -2 9 4 -6 10 -25 14 -25 6z"/>
<path d="M3510 1970 c0 -27 5 -50 10 -50 6 0 10 23 10 50 0 28 -4 50 -10 50
-5 0 -10 -22 -10 -50z"/>
<path d="M2935 1996 c-11 -7 -31 -17 -44 -21 -33 -10 -85 -48 -89 -66 -3 -9 4
-7 20 8 36 34 111 69 116 55 2 -7 8 -12 13 -12 4 0 6 7 2 17 -10 26 64 9 97
-22 14 -14 34 -25 43 -25 9 0 17 -5 17 -11 0 -5 -5 -7 -11 -3 -14 8 16 -39 53
-86 15 -19 28 -40 28 -47 0 -6 4 -14 10 -18 18 -11 -20 89 -52 137 -62 91
-150 131 -203 94z m195 -101 c7 -9 8 -15 2 -15 -5 0 -12 7 -16 15 -3 8 -4 15
-2 15 2 0 9 -7 16 -15z"/>
<path d="M470 1978 c-25 -53 5 -74 118 -83 179 -15 746 -23 882 -13 230 16
205 26 -55 21 -245 -5 -857 11 -908 23 -32 7 -47 32 -27 44 7 4 10 14 8 21 -4
9 -10 5 -18 -13z"/>
<path d="M4481 1954 c0 -11 3 -14 6 -6 3 7 2 16 -1 19 -3 4 -6 -2 -5 -13z"/>
<path d="M2917 1939 c-21 -3 -48 -17 -60 -29 l-22 -23 30 18 c17 11 53 22 80
25 31 3 42 7 30 11 -11 3 -37 2 -58 -2z"/>
<path d="M3056 1894 c17 -16 44 -48 59 -71 15 -24 30 -43 32 -43 3 0 -3 12
-12 28 -36 57 -67 92 -88 103 -16 8 -13 3 9 -17z"/>
<path d="M3320 1873 c0 -35 3 -44 10 -33 11 17 10 80 -2 80 -4 0 -8 -21 -8
-47z"/>
<path d="M4121 1894 c0 -11 3 -14 6 -6 3 7 2 16 -1 19 -3 4 -6 -2 -5 -13z"/>
<path d="M2775 1880 c-3 -5 1 -10 10 -10 9 0 13 5 10 10 -3 6 -8 10 -10 10 -2
0 -7 -4 -10 -10z"/>
<path d="M3508 1883 c-13 -3 -18 -14 -18 -38 0 -28 3 -32 20 -28 15 4 20 14
20 39 0 19 -1 33 -2 33 -2 -1 -11 -3 -20 -6z"/>
<path d="M4792 1878 c-14 -14 -16 -58 -3 -58 7 0 31 51 31 66 0 8 -17 3 -28
-8z"/>
<path d="M3243 1873 c-19 -4 -20 -8 -12 -31 18 -55 39 -220 39 -310 0 -71 3
-93 13 -89 29 9 -4 378 -37 399 -6 4 3 10 22 14 18 4 35 11 38 15 5 9 -23 10
-63 2z"/>
<path d="M2758 1849 c-10 -5 -23 -20 -29 -32 -12 -21 -11 -21 8 -4 11 9 25 17
31 17 7 0 12 7 12 15 0 17 0 17 -22 4z"/>
<path d="M2805 1849 c-4 -6 -5 -12 -2 -15 2 -3 7 2 10 11 7 17 1 20 -8 4z"/>
<path d="M1058 1833 c7 -3 16 -2 19 1 4 3 -2 6 -13 5 -11 0 -14 -3 -6 -6z"/>
<path d="M1193 1833 c9 -2 25 -2 35 0 9 3 1 5 -18 5 -19 0 -27 -2 -17 -5z"/>
<path d="M3277 1832 c6 -4 13 -32 15 -62 l3 -55 5 63 c5 57 3 62 -15 62 -13 0
-16 -3 -8 -8z"/>
<path d="M831 1812 c-10 -19 2 -42 22 -42 13 0 46 43 40 52 -9 15 -52 8 -62
-10z m49 -2 c0 -12 -28 -25 -36 -17 -9 9 6 27 22 27 8 0 14 -5 14 -10z"/>
<path d="M4292 1800 c-18 -4 -36 -11 -40 -15 -8 -8 52 3 83 16 25 10 1 10 -43
-1z"/>
<path d="M3321 1784 c0 -11 3 -14 6 -6 3 7 2 16 -1 19 -3 4 -6 -2 -5 -13z"/>
<path d="M4783 1788 c-10 -18 8 -27 34 -17 31 12 34 10 26 -19 -3 -12 -10 -19
-16 -15 -5 3 -7 1 -3 -5 3 -6 2 -13 -4 -17 -5 -3 -10 -1 -10 4 0 6 -4 11 -9
11 -8 0 -23 -81 -17 -87 2 -2 19 18 40 43 24 32 36 58 36 79 0 30 -2 31 -36
31 -20 -1 -38 -4 -41 -8z"/>
<path d="M2721 1745 c-23 -49 -43 -225 -29 -248 4 -7 8 17 8 53 0 73 24 195
41 216 7 8 10 17 7 20 -3 2 -15 -16 -27 -41z"/>
<path d="M180 1690 c0 -50 3 -60 18 -60 9 -1 50 -14 90 -29 39 -16 74 -26 76
-22 2 3 7 24 11 46 5 30 4 36 -4 25 -6 -8 -11 -25 -11 -37 0 -13 -3 -23 -7
-23 -3 0 -42 14 -85 31 l-78 32 6 48 c5 34 3 49 -5 49 -7 0 -11 -22 -11 -60z"/>
<path d="M4199 1748 c0 -2 -2 -10 -4 -18 -16 -79 -46 -170 -57 -170 -4 0 -8
-9 -8 -19 0 -16 -9 -21 -57 -26 -32 -3 -70 -8 -85 -10 -35 -6 -35 7 -2 51 15
19 24 34 21 34 -3 0 -20 -20 -38 -44 -22 -31 -43 -48 -68 -55 -35 -10 -34 -10
14 -6 28 3 87 8 132 11 l82 7 31 66 c34 72 64 181 49 181 -5 0 -9 -1 -10 -2z"/>
<path d="M4490 1740 c0 -5 5 -10 10 -10 6 0 10 5 10 10 0 6 -4 10 -10 10 -5 0
-10 -4 -10 -10z"/>
<path d="M570 1722 c0 -17 70 -22 323 -22 158 0 247 4 247 10 0 6 -94 10 -262
10 -145 0 -273 3 -285 6 -13 4 -23 2 -23 -4z"/>
<path d="M2870 1690 c-8 -5 -12 -12 -9 -15 4 -3 12 1 19 10 14 17 11 19 -10 5z"/>
<path d="M4715 1653 c-9 -67 -36 -182 -52 -221 -30 -72 -93 -53 -143 42 -16
32 -30 67 -30 77 0 11 -4 19 -10 19 -14 0 -13 -4 24 -84 37 -81 68 -116 103
-116 17 0 22 -4 17 -12 -4 -7 10 3 30 22 20 19 34 40 31 48 -2 7 -1 11 4 8 5
-3 11 1 15 9 3 8 1 15 -4 15 -6 0 -10 5 -10 11 0 5 5 7 10 4 11 -7 31 36 29
63 0 9 -5 2 -10 -17 -14 -46 -23 -32 -10 15 12 49 25 164 18 164 -3 0 -9 -21
-12 -47z"/>
<path d="M2737 1683 c-10 -10 -8 -33 2 -33 6 0 9 9 8 20 -1 23 -1 22 -10 13z"/>
<path d="M4490 1670 c0 -5 5 -10 10 -10 6 0 10 5 10 10 0 6 -4 10 -10 10 -5 0
-10 -4 -10 -10z"/>
<path d="M4585 1670 c3 -5 14 -10 23 -10 15 0 15 2 2 10 -20 13 -33 13 -25 0z"/>
<path d="M2288 1652 c-38 -9 -68 -19 -68 -23 0 -7 132 17 170 30 25 9 25 9 -5
9 -16 0 -60 -8 -97 -16z"/>
<path d="M4630 1660 c0 -5 7 -10 16 -10 8 0 12 5 9 10 -3 6 -10 10 -16 10 -5
0 -9 -4 -9 -10z"/>
<path d="M2950 1645 c-14 -8 -19 -14 -10 -14 8 0 26 6 40 14 14 8 19 14 10 14
-8 0 -26 -6 -40 -14z"/>
<path d="M4034 1644 c-4 -10 -9 -22 -11 -26 -2 -5 0 -8 6 -8 11 0 26 39 17 47
-3 3 -9 -3 -12 -13z"/>
<path d="M2130 1640 c0 -5 5 -10 11 -10 5 0 7 5 4 10 -3 6 -8 10 -11 10 -2 0
-4 -4 -4 -10z"/>
<path d="M2751 1624 c0 -11 3 -14 6 -6 3 7 2 16 -1 19 -3 4 -6 -2 -5 -13z"/>
<path d="M3321 1624 c0 -11 3 -14 6 -6 3 7 2 16 -1 19 -3 4 -6 -2 -5 -13z"/>
<path d="M3986 1633 c-32 -32 -496 -132 -543 -117 -13 4 -14 3 -5 -3 9 -7 -4
-13 -44 -22 -47 -11 -58 -11 -65 0 -6 10 -9 6 -9 -13 0 -25 2 -26 33 -17 17 5
106 23 197 40 162 30 418 92 453 110 9 6 17 14 17 19 0 11 -23 13 -34 3z"/>
<path d="M2170 1619 c0 -5 5 -7 10 -4 6 3 10 8 10 11 0 2 -4 4 -10 4 -5 0 -10
-5 -10 -11z"/>
<path d="M2360 1620 c0 -6 -10 -15 -22 -20 -21 -8 -21 -9 -3 -9 11 -1 26 8 33
19 7 12 8 20 2 20 -5 0 -10 -5 -10 -10z"/>
<path d="M2770 1614 c0 -8 5 -12 10 -9 6 3 10 10 10 16 0 5 -4 9 -10 9 -5 0
-10 -7 -10 -16z"/>
<path d="M4471 1614 c0 -11 3 -14 6 -6 3 7 2 16 -1 19 -3 4 -6 -2 -5 -13z"/>
<path d="M4514 1604 c3 -9 6 -18 6 -20 0 -2 4 -4 9 -4 5 0 7 9 4 20 -3 11 -10
20 -15 20 -6 0 -7 -7 -4 -16z"/>
<path d="M1290 1580 c-13 -8 -12 -10 3 -10 9 0 17 5 17 10 0 12 -1 12 -20 0z"/>
<path d="M4234 1562 c-21 -16 -46 -37 -54 -48 -14 -18 -14 -18 5 -3 52 42 61
50 80 63 11 9 17 16 14 16 -3 0 -24 -13 -45 -28z"/>
<path d="M2855 1570 c-3 -5 -1 -10 4 -10 6 0 11 5 11 10 0 6 -2 10 -4 10 -3 0
-8 -4 -11 -10z"/>
<path d="M4584 1567 c3 -10 6 -35 6 -55 0 -28 3 -33 10 -22 14 22 12 54 -6 76
-14 17 -15 17 -10 1z"/>
<path d="M400 1550 c14 -4 36 -8 50 -8 22 0 22 1 -5 8 -16 4 -39 8 -50 8 -16
0 -15 -2 5 -8z"/>
<path d="M1870 1551 c0 -5 7 -12 16 -15 14 -5 15 -4 4 9 -14 17 -20 19 -20 6z"/>
<path d="M2959 1548 c-1 -7 -1 -17 0 -21 1 -5 -8 -22 -19 -38 -17 -22 -18 -29
-7 -29 13 0 45 56 40 71 -1 4 7 5 17 2 24 -6 27 12 4 21 -24 9 -34 7 -35 -6z"/>
<path d="M4627 1545 c-4 -8 -2 -17 3 -20 6 -4 10 3 10 14 0 25 -6 27 -13 6z"/>
<path d="M2635 1531 c-28 -17 -58 -48 -162 -165 -42 -47 -60 -84 -25 -53 9 8
42 26 72 40 52 23 56 28 78 85 13 34 35 71 49 82 34 27 25 34 -12 11z m-65
-104 c0 -19 -38 -57 -56 -57 -11 0 -5 11 17 35 37 39 39 40 39 22z"/>
<path d="M3110 1540 c-12 -8 -11 -10 8 -10 12 0 22 5 22 10 0 13 -11 13 -30 0z"/>
<path d="M183 1495 c0 -27 2 -38 4 -22 2 15 2 37 0 50 -2 12 -4 0 -4 -28z"/>
<path d="M2730 1530 c0 -5 5 -10 10 -10 6 0 10 5 10 10 0 6 -4 10 -10 10 -5 0
-10 -4 -10 -10z"/>
<path d="M2862 1529 c2 -6 8 -10 13 -10 5 0 11 4 13 10 2 6 -4 11 -13 11 -9 0
-15 -5 -13 -11z"/>
<path d="M1253 1513 c-57 -7 -36 -18 27 -15 33 2 58 8 54 13 -5 9 -20 9 -81 2z"/>
<path d="M4750 1494 c-6 -14 -10 -30 -10 -35 0 -16 -31 -72 -53 -96 l-20 -23
39 2 c21 1 75 1 119 -1 104 -3 102 -4 102 15 0 14 -2 14 -14 -2 -13 -17 -13
-17 -13 0 0 15 -3 16 -15 6 -8 -6 -19 -9 -25 -5 -6 4 -37 7 -67 6 -31 0 -60 2
-64 5 -4 2 0 23 10 47 19 44 34 107 26 107 -3 0 -10 -12 -15 -26z"/>
<path d="M4119 1464 c-21 -24 -22 -26 -3 -16 25 13 50 42 37 42 -5 0 -20 -12
-34 -26z"/>
<path d="M2784 1465 c-9 -22 1 -29 15 -11 8 10 9 16 1 21 -5 3 -13 -1 -16 -10z"/>
<path d="M2968 1455 c2 -14 8 -25 13 -25 10 0 11 12 3 34 -10 25 -22 19 -16
-9z"/>
<path d="M3765 1473 c-16 -2 -79 -15 -140 -28 -60 -13 -156 -33 -212 -44 -56
-12 -109 -24 -119 -28 -14 -5 -16 -2 -10 20 7 29 -8 38 -18 11 -7 -18 -8 -64
-1 -64 2 0 19 7 37 14 31 14 317 78 488 110 68 12 50 19 -25 9z"/>
<path d="M3815 1445 c-193 -34 -399 -79 -387 -83 6 -2 55 6 109 18 54 12 184
37 288 55 105 19 174 34 155 34 -19 0 -93 -11 -165 -24z"/>
<path d="M2744 1399 c4 -99 91 -245 167 -285 98 -50 223 47 282 220 19 55 24
122 7 96 -5 -8 -10 -25 -10 -38 0 -13 -3 -21 -7 -19 -5 3 -9 -5 -9 -18 -3 -38
-54 -133 -99 -182 -37 -42 -46 -46 -96 -51 -43 -3 -59 0 -77 15 l-23 18 38 1
c58 2 110 31 144 81 17 24 29 47 26 50 -3 3 -12 -8 -20 -24 -41 -76 -129 -117
-192 -87 -58 27 -108 117 -125 224 l-9 55 3 -56z"/>
<path d="M2815 1441 c-6 -11 9 -23 19 -14 9 9 7 23 -3 23 -6 0 -12 -4 -16 -9z"/>
<path d="M4060 1440 c-12 -8 -11 -10 8 -10 12 0 22 5 22 10 0 13 -11 13 -30 0z"/>
<path d="M3087 1358 c-44 -96 -43 -116 2 -27 17 34 31 56 31 48 0 -8 -7 -27
-15 -43 -9 -16 -13 -31 -11 -33 10 -11 34 55 34 95 1 23 0 42 -1 42 -1 0 -19
-37 -40 -82z"/>
<path d="M2866 1423 c1 -3 -5 -25 -13 -49 -20 -60 -11 -67 12 -8 11 28 14 49
8 54 -6 4 -9 5 -7 3z"/>
<path d="M2912 1413 c12 -26 51 -83 55 -80 9 9 -30 87 -44 87 -8 0 -13 -3 -11
-7z"/>
<path d="M4023 1413 c-7 -3 -13 -11 -13 -19 0 -8 -6 -14 -14 -14 -20 0 -29 17
-14 23 7 3 -7 2 -32 0 -25 -3 -49 -10 -55 -15 -7 -7 5 -8 33 -3 28 4 42 3 42
-4 0 -6 -12 -11 -28 -11 -15 0 -43 -4 -62 -10 -19 -5 -56 -11 -82 -11 -27 -1
-51 -6 -54 -10 -2 -5 -12 -5 -20 -2 -13 5 -13 8 -2 15 10 8 9 9 -3 5 -9 -3
-38 -9 -64 -12 -34 -6 -43 -10 -34 -17 10 -7 8 -8 -8 -5 -13 3 -23 1 -23 -4 0
-5 -12 -9 -27 -9 -15 0 -68 -9 -118 -21 -113 -27 -119 -28 -113 -35 5 -4 264
38 616 99 50 9 77 18 84 30 12 22 7 35 -9 30z m-323 -77 c0 -2 -9 -6 -20 -9
-11 -3 -18 -1 -14 4 5 9 34 13 34 5z"/>
<path d="M207 1330 c3 -27 2 -50 -3 -50 -5 0 -27 -17 -49 -36 -22 -20 -51 -45
-64 -55 -13 -11 -22 -22 -18 -25 3 -3 34 19 69 48 84 72 84 71 113 52 20 -13
25 -23 21 -40 -5 -18 -3 -22 9 -18 8 4 15 10 15 14 0 5 3 15 6 23 3 10 -2 18
-14 21 -33 11 -72 54 -72 80 0 14 -4 27 -10 31 -5 3 -7 -14 -3 -45z"/>
<path d="M2595 1371 c-3 -5 -1 -12 5 -16 5 -3 10 1 10 9 0 18 -6 21 -15 7z"/>
<path d="M3823 1373 c9 -2 25 -2 35 0 9 3 1 5 -18 5 -19 0 -27 -2 -17 -5z"/>
<path d="M3628 1363 c6 -2 18 -2 25 0 6 3 1 5 -13 5 -14 0 -19 -2 -12 -5z"/>
<path d="M4225 1349 c-55 -10 -138 -23 -185 -28 -249 -32 -548 -78 -675 -105
-69 -15 -69 -15 -15 -10 30 2 91 11 135 19 140 25 381 61 783 117 45 6 82 15
82 20 0 10 0 10 -125 -13z"/>
<path d="M3388 1353 c7 -3 16 -2 19 1 4 3 -2 6 -13 5 -11 0 -14 -3 -6 -6z"/>
<path d="M2370 1339 c0 -5 5 -7 10 -4 6 3 10 8 10 11 0 2 -4 4 -10 4 -5 0 -10
-5 -10 -11z"/>
<path d="M2131 1296 c7 -15 15 -23 17 -16 3 7 -3 19 -13 28 -15 16 -16 15 -4
-12z"/>
<path d="M2825 1297 c-4 -10 -5 -21 -1 -24 10 -10 18 4 13 24 -4 17 -4 17 -12
0z"/>
<path d="M3277 1303 c-10 -9 -9 -23 2 -23 5 0 11 7 15 15 5 15 -5 20 -17 8z"/>
<path d="M4995 1290 c-3 -5 1 -10 10 -10 9 0 13 5 10 10 -3 6 -8 10 -10 10 -2
0 -7 -4 -10 -10z"/>
<path d="M2430 1280 c-9 -6 -10 -10 -3 -10 6 0 15 5 18 10 8 12 4 12 -15 0z"/>
<path d="M2870 1270 c-6 -11 -7 -20 -2 -20 6 0 12 9 15 20 3 11 3 20 1 20 -2
0 -8 -9 -14 -20z"/>
<path d="M4835 1270 c-130 -33 -307 -67 -450 -84 -262 -32 -899 -135 -1155
-186 -117 -23 -310 -47 -450 -56 -58 -4 -107 -10 -110 -15 -9 -13 -410 -50
-640 -58 -495 -18 -1216 10 -1687 66 l-55 6 18 -21 c22 -26 28 -28 20 -7 -8
21 11 19 23 -2 6 -10 11 -12 11 -5 0 6 7 12 16 12 14 0 14 -3 4 -15 -10 -12
-10 -19 -2 -27 9 -9 12 -9 13 0 1 7 2 17 3 22 0 6 5 9 11 8 5 -2 9 -5 8 -9 -1
-3 7 -10 17 -16 15 -10 17 -9 13 8 -3 10 0 19 6 19 6 0 11 -6 11 -12 0 -9 4
-8 10 2 5 8 10 10 10 4 0 -6 12 -10 28 -8 15 2 19 1 10 -2 -10 -3 -18 -10 -18
-15 0 -14 17 -11 34 7 11 10 23 13 38 8 13 -4 38 -6 55 -5 18 1 38 -1 45 -5 7
-5 25 -7 40 -5 14 1 29 -2 33 -8 3 -6 12 -11 18 -11 7 0 6 4 -3 10 -13 8 -13
10 1 10 9 0 19 -7 23 -15 3 -8 13 -15 21 -15 10 0 13 -5 9 -12 -4 -7 -3 -8 4
-4 16 9 3 36 -14 29 -8 -3 -14 0 -14 6 0 20 37 12 53 -12 l16 -22 -4 23 c-3
19 -1 22 13 16 9 -4 30 -7 45 -6 15 1 26 -2 23 -6 -3 -4 5 -9 17 -9 15 -2 18
0 8 6 -7 5 28 6 80 3 52 -2 97 -10 102 -16 5 -8 10 -6 17 4 9 13 11 13 21 0 7
-10 12 -11 15 -4 3 6 16 9 29 6 15 -2 22 -9 18 -16 -3 -6 -3 -8 2 -4 4 4 15 2
24 -5 14 -11 14 -10 2 6 -12 15 -11 17 13 17 17 0 25 -4 20 -11 -4 -7 1 -7 15
1 17 8 26 8 36 0 10 -8 15 -8 20 0 4 6 14 8 24 5 15 -6 403 -7 486 -1 22 1 46
-2 53 -7 8 -6 12 -6 12 2 0 15 33 14 49 -1 11 -10 13 -10 7 0 -5 8 0 12 13 12
10 0 22 -6 24 -12 4 -10 6 -10 6 0 1 16 43 16 60 0 8 -8 11 -8 8 -2 -9 15 30
21 125 20 42 -1 74 2 72 6 -2 4 27 6 65 5 38 -1 67 2 64 6 -3 5 12 8 33 7 22
-1 41 -1 44 0 26 9 50 8 45 -1 -4 -6 7 -3 25 6 17 9 46 16 63 15 53 -3 64 -1
48 9 -8 5 9 9 45 9 62 1 189 9 189 12 0 1 20 4 43 6 24 3 42 1 39 -3 -3 -5 3
-9 13 -9 15 0 17 3 7 15 -10 12 -5 13 37 9 33 -4 44 -3 35 4 -10 7 -4 8 19 5
17 -2 32 0 32 5 0 4 12 8 28 8 15 1 56 8 92 16 36 9 80 17 98 17 17 1 32 5 32
9 0 4 13 6 30 4 16 -2 31 1 32 5 4 11 68 14 93 5 17 -7 17 -6 5 4 -12 9 -10
11 13 7 15 -2 27 -1 27 3 0 10 92 27 139 26 22 -1 37 3 34 7 -3 5 5 8 18 6 13
-1 31 1 39 4 24 9 180 30 232 31 25 0 44 5 41 10 -3 5 6 7 20 4 15 -3 24 -1
21 3 -3 5 2 9 11 9 10 0 13 -5 9 -12 -5 -9 -2 -8 9 1 10 8 42 14 76 15 32 1
54 4 47 9 -6 4 12 7 39 7 50 -1 193 22 213 34 6 3 17 -1 26 -9 12 -13 23 -14
50 -7 35 10 71 0 45 -12 -8 -3 -5 -4 6 -2 75 15 97 17 90 6 -5 -8 1 -11 16 -8
14 2 23 9 21 17 -3 12 0 12 12 2 17 -14 35 -12 159 15 37 9 67 20 67 25 0 5
-10 5 -22 0 -40 -15 -108 -21 -108 -10 0 6 10 9 22 7 12 -2 23 3 25 12 4 12 3
12 -5 1 -8 -11 -12 -10 -21 5 -6 11 -11 13 -11 6 0 -8 -5 -10 -12 -6 -7 4 -10
4 -6 -1 11 -12 -11 -45 -30 -44 -14 0 -14 2 2 8 18 7 18 8 2 14 -13 5 -19 1
-23 -12 -3 -12 -11 -17 -19 -14 -8 3 -11 10 -7 16 4 7 0 8 -11 4 -10 -4 -22
-7 -27 -7 -6 0 -7 -4 -4 -10 8 -13 -1 -13 -26 0 -13 7 -19 7 -19 0 0 -5 -11
-10 -25 -10 -14 0 -25 5 -25 11 0 8 -17 10 -52 6 l-53 -6 60 20 c33 12 82 21
109 21 27 0 44 3 37 7 -6 4 8 12 30 18 37 10 41 9 49 -11 5 -11 9 -16 9 -9 1
17 -10 43 -18 42 -3 -1 -19 -5 -36 -9z"/>
<path d="M1251 1260 c-1 -18 16 -46 23 -40 2 3 -2 16 -9 30 -8 15 -14 19 -14
10z"/>
<path d="M4991 1261 c-10 -6 -9 -10 3 -14 8 -3 18 -2 21 3 8 13 -9 20 -24 11z"/>
<path d="M5046 1251 c-3 -4 6 -6 19 -3 14 2 25 6 25 8 0 8 -39 4 -44 -5z"/>
<path d="M210 1220 c8 -5 20 -10 25 -10 6 0 3 5 -5 10 -8 5 -19 10 -25 10 -5
0 -3 -5 5 -10z"/>
<path d="M1920 1219 c-74 -4 -176 -15 -225 -24 -50 -9 -107 -19 -127 -22 -55
-8 -35 -23 31 -23 70 0 518 38 543 46 10 3 18 12 18 20 0 16 -18 16 -240 3z"/>
<path d="M2314 1169 c-37 -33 -81 -67 -97 -76 -62 -31 -796 -45 -842 -15 -18
12 -17 12 11 7 17 -3 60 -1 95 4 35 6 192 18 349 26 157 9 303 20 325 25 38 9
37 9 -15 5 -30 -2 -163 -9 -295 -15 -196 -9 -249 -9 -290 2 -48 13 -122 7
-135 -12 -3 -4 -21 -12 -40 -19 -28 -9 -35 -9 -42 3 -5 8 -15 22 -24 31 -8 8
-11 15 -6 15 5 0 15 -7 22 -15 16 -19 26 -19 34 0 4 11 0 15 -12 13 -10 -2
-17 3 -16 13 1 9 -13 22 -31 31 l-33 14 9 -29 c12 -43 55 -102 84 -115 43 -20
236 -24 573 -13 387 13 702 41 702 63 0 6 -7 8 -15 4 -16 -6 -254 -33 -347
-39 l-56 -4 46 43 c100 90 126 114 119 114 -4 0 -37 -27 -73 -61z"/>
<path d="M5078 1223 c7 -3 16 -2 19 1 4 3 -2 6 -13 5 -11 0 -14 -3 -6 -6z"/>
<path d="M2290 1205 c-14 -8 -48 -14 -77 -15 -28 0 -55 -5 -59 -12 -5 -8 4 -9
32 -5 21 4 53 7 69 7 17 0 41 9 55 20 29 23 16 26 -20 5z"/>
<path d="M3265 1199 c-9 -14 -2 -20 14 -10 8 6 9 11 3 15 -6 3 -14 1 -17 -5z"/>
<path d="M5080 1194 l-25 -15 25 7 c14 3 29 10 35 15 15 14 -7 10 -35 -7z"/>
<path d="M183 1193 c9 -2 23 -2 30 0 6 3 -1 5 -18 5 -16 0 -22 -2 -12 -5z"/>
<path d="M360 1180 c-25 -10 -54 -21 -64 -24 -10 -4 -17 -9 -14 -11 5 -6 108
28 135 44 30 17 -6 12 -57 -9z"/>
<path d="M1398 1193 c6 -2 18 -2 25 0 6 3 1 5 -13 5 -14 0 -19 -2 -12 -5z"/>
<path d="M280 1180 c-9 -6 -10 -10 -3 -10 6 0 15 5 18 10 8 12 4 12 -15 0z"/>
<path d="M5026 1181 c-3 -4 -17 -6 -31 -3 -14 2 -25 0 -25 -5 0 -5 -8 -9 -17
-9 -37 2 -163 -16 -168 -24 -3 -4 6 -10 20 -12 14 -3 22 -1 18 4 -3 6 14 9 45
7 28 -2 48 0 44 5 -5 9 11 6 53 -9 14 -5 16 -4 6 3 -10 7 -10 11 -1 17 20 13
69 15 75 5 8 -13 25 -13 25 0 0 6 -7 10 -16 10 -8 0 -12 5 -9 10 3 6 2 10 -4
10 -5 0 -12 -4 -15 -9z"/>
<path d="M4546 1165 c4 -8 2 -15 -3 -15 -5 0 -18 -7 -29 -15 -17 -15 -16 -15
12 -1 34 17 53 46 29 46 -9 0 -12 -6 -9 -15z"/>
<path d="M1408 1163 c7 -3 16 -2 19 1 4 3 -2 6 -13 5 -11 0 -14 -3 -6 -6z"/>
<path d="M3005 1150 c-22 -10 -36 -19 -32 -19 12 -1 77 27 77 33 0 7 3 8 -45
-14z"/>
<path d="M4470 1160 c0 -5 5 -10 10 -10 6 0 10 5 10 10 0 6 -4 10 -10 10 -5 0
-10 -4 -10 -10z"/>
<path d="M193 1153 c15 -2 37 -2 50 0 12 2 0 4 -28 4 -27 0 -38 -2 -22 -4z"/>
<path d="M2208 1153 c7 -3 16 -2 19 1 4 3 -2 6 -13 5 -11 0 -14 -3 -6 -6z"/>
<path d="M4575 1150 c-3 -6 1 -7 9 -4 18 7 21 14 7 14 -6 0 -13 -4 -16 -10z"/>
<path d="M4618 1153 c6 -2 18 -2 25 0 6 3 1 5 -13 5 -14 0 -19 -2 -12 -5z"/>
<path d="M75 1143 c9 -9 90 -32 160 -47 17 -3 17 -4 -3 -5 -13 0 -21 -5 -17
-10 3 -6 -16 -13 -42 -16 -79 -11 -128 -26 -114 -34 7 -5 56 2 109 15 54 13
142 27 196 31 112 7 103 17 -24 27 -47 3 -116 13 -155 22 -119 27 -121 27
-110 17z"/>
<path d="M4343 1135 c0 -8 4 -12 9 -9 4 3 8 9 8 15 0 5 -4 9 -8 9 -5 0 -9 -7
-9 -15z"/>
<path d="M4400 1140 c-9 -6 -10 -10 -3 -10 6 0 15 5 18 10 8 12 4 12 -15 0z"/>
<path d="M4995 1140 c-3 -5 -1 -10 4 -10 6 0 11 5 11 10 0 6 -2 10 -4 10 -3 0
-8 -4 -11 -10z"/>
<path d="M4240 1130 c0 -5 7 -7 15 -4 8 4 15 8 15 10 0 2 -7 4 -15 4 -8 0 -15
-4 -15 -10z"/>
<path d="M4430 1130 c0 -6 7 -10 15 -10 8 0 15 2 15 4 0 2 -7 6 -15 10 -8 3
-15 1 -15 -4z"/>
<path d="M4640 1130 c0 -5 5 -10 11 -10 5 0 7 5 4 10 -3 6 -8 10 -11 10 -2 0
-4 -4 -4 -10z"/>
<path d="M4730 1136 c0 -2 7 -6 15 -10 8 -3 15 -1 15 4 0 6 -7 10 -15 10 -8 0
-15 -2 -15 -4z"/>
<path d="M1174 1118 c-3 -5 -85 -9 -182 -10 l-177 -1 185 -9 c196 -9 230 -6
230 17 0 15 -47 18 -56 3z"/>
<path d="M3095 1119 c-4 -6 -5 -12 -2 -15 2 -3 7 2 10 11 7 17 1 20 -8 4z"/>
<path d="M4293 1120 c-28 -11 -29 -16 -6 -24 10 -4 14 -4 10 0 -4 4 1 13 11
20 20 15 16 16 -15 4z"/>
<path d="M4930 1120 c0 -5 5 -10 11 -10 5 0 7 5 4 10 -3 6 -8 10 -11 10 -2 0
-4 -4 -4 -10z"/>
<path d="M4530 1110 c-12 -7 -10 -9 7 -7 12 0 19 5 17 9 -6 10 -6 10 -24 -2z"/>
<path d="M548 1103 c12 -2 32 -2 45 0 12 2 2 4 -23 4 -25 0 -35 -2 -22 -4z"/>
<path d="M4860 1099 c0 -5 9 -9 20 -9 11 0 20 2 20 4 0 2 -9 6 -20 9 -11 3
-20 1 -20 -4z"/>
<path d="M673 1093 c20 -2 54 -2 75 0 20 2 3 4 -38 4 -41 0 -58 -2 -37 -4z"/>
<path d="M4010 1090 c-9 -6 -10 -10 -3 -10 6 0 15 5 18 10 8 12 4 12 -15 0z"/>
<path d="M4160 1089 c0 -5 5 -7 10 -4 6 3 10 8 10 11 0 2 -4 4 -10 4 -5 0 -10
-5 -10 -11z"/>
<path d="M4430 1090 c0 -5 7 -10 16 -10 8 0 12 5 9 10 -3 6 -10 10 -16 10 -5
0 -9 -4 -9 -10z"/>
<path d="M168 1083 c6 -2 18 -2 25 0 6 3 1 5 -13 5 -14 0 -19 -2 -12 -5z"/>
<path d="M798 1083 c7 -3 16 -2 19 1 4 3 -2 6 -13 5 -11 0 -14 -3 -6 -6z"/>
<path d="M4355 1080 c3 -5 8 -10 11 -10 2 0 4 5 4 10 0 6 -5 10 -11 10 -5 0
-7 -4 -4 -10z"/>
<path d="M4395 1080 c-3 -6 1 -7 9 -4 18 7 21 14 7 14 -6 0 -13 -4 -16 -10z"/>
<path d="M4697 1077 c-3 -8 1 -14 8 -14 7 0 11 6 8 14 -3 7 -6 13 -8 13 -2 0
-5 -6 -8 -13z"/>
<path d="M4796 1079 c2 -4 13 -9 24 -12 11 -3 18 -1 15 3 -3 5 1 10 7 13 7 2
-1 4 -19 3 -17 -1 -29 -4 -27 -7z"/>
<path d="M933 1073 c9 -2 25 -2 35 0 9 3 1 5 -18 5 -19 0 -27 -2 -17 -5z"/>
<path d="M1177 1063 c18 -2 50 -2 70 0 21 2 7 4 -32 4 -38 0 -55 -2 -38 -4z"/>
<path d="M4334 1056 c11 -9 24 -16 30 -16 12 0 7 5 -24 19 -24 11 -24 11 -6
-3z"/>
<path d="M4500 1060 c0 -5 5 -10 11 -10 5 0 7 5 4 10 -3 6 -8 10 -11 10 -2 0
-4 -4 -4 -10z"/>
<path d="M3652 1041 c-11 -6 -9 -9 6 -13 15 -4 19 -2 15 8 -6 16 -4 16 -21 5z"/>
<path d="M4258 1043 c7 -3 16 -2 19 1 4 3 -2 6 -13 5 -11 0 -14 -3 -6 -6z"/>
<path d="M5 1030 c3 -5 8 -10 11 -10 2 0 4 5 4 10 0 6 -5 10 -11 10 -5 0 -7
-4 -4 -10z"/>
<path d="M3947 1033 c-10 -9 -9 -23 1 -23 5 0 9 7 9 15 0 17 -1 18 -10 8z"/>
<path d="M4637 1029 c7 -7 15 -10 18 -7 3 3 -2 9 -12 12 -14 6 -15 5 -6 -5z"/>
<path d="M3750 1016 c7 -7 13 -7 20 0 6 6 3 10 -10 10 -13 0 -16 -4 -10 -10z"/>
<path d="M4180 1020 c19 -13 30 -13 30 0 0 6 -10 10 -22 10 -19 0 -20 -2 -8
-10z"/>
<path d="M3709 1003 c-13 -16 -12 -17 4 -4 16 13 21 21 13 21 -2 0 -10 -8 -17
-17z"/>
<path d="M3790 1016 c0 -2 11 -6 25 -8 13 -3 22 -1 19 3 -5 9 -44 13 -44 5z"/>
<path d="M4095 1010 c-19 -8 -19 -9 3 -9 12 -1 22 4 22 9 0 6 -1 10 -2 9 -2 0
-12 -4 -23 -9z"/>
<path d="M4280 1009 c0 -5 5 -7 10 -4 6 3 10 8 10 11 0 2 -4 4 -10 4 -5 0 -10
-5 -10 -11z"/>
<path d="M3640 1006 c0 -2 9 -6 20 -9 11 -3 18 -1 14 4 -5 9 -34 13 -34 5z"/>
<path d="M3450 990 c-9 -6 -10 -10 -3 -10 6 0 15 5 18 10 8 12 4 12 -15 0z"/>
<path d="M4385 990 c4 -6 11 -8 16 -5 14 9 11 15 -7 15 -8 0 -12 -5 -9 -10z"/>
<path d="M20 975 c-7 -9 -8 -15 -2 -15 5 0 12 7 16 15 3 8 4 15 2 15 -2 0 -9
-7 -16 -15z"/>
<path d="M3358 983 c7 -3 16 -2 19 1 4 3 -2 6 -13 5 -11 0 -14 -3 -6 -6z"/>
<path d="M3613 977 c-3 -6 -1 -7 5 -3 7 4 12 3 12 -3 0 -5 9 -9 20 -8 11 1 20
4 20 8 0 11 -50 17 -57 6z"/>
<path d="M3910 980 c-21 -7 -21 -8 -5 -9 11 0 27 4 35 9 18 11 5 11 -30 0z"/>
<path d="M3983 983 c15 -2 37 -2 50 0 12 2 0 4 -28 4 -27 0 -38 -2 -22 -4z"/>
<path d="M123 968 c3 -9 1 -19 -6 -22 -9 -3 -9 -5 0 -5 18 -1 27 19 13 32 -10
9 -12 8 -7 -5z"/>
<path d="M3285 970 c-3 -6 1 -7 9 -4 18 7 21 14 7 14 -6 0 -13 -4 -16 -10z"/>
<path d="M3390 970 c0 -5 5 -10 11 -10 5 0 7 5 4 10 -3 6 -8 10 -11 10 -2 0
-4 -4 -4 -10z"/>
<path d="M3488 973 c7 -3 16 -2 19 1 4 3 -2 6 -13 5 -11 0 -14 -3 -6 -6z"/>
<path d="M3743 973 c9 -2 25 -2 35 0 9 3 1 5 -18 5 -19 0 -27 -2 -17 -5z"/>
<path d="M3808 973 c7 -3 16 -2 19 1 4 3 -2 6 -13 5 -11 0 -14 -3 -6 -6z"/>
<path d="M4118 973 c6 -2 18 -2 25 0 6 3 1 5 -13 5 -14 0 -19 -2 -12 -5z"/>
<path d="M4290 969 c0 -5 5 -7 10 -4 6 3 10 8 10 11 0 2 -4 4 -10 4 -5 0 -10
-5 -10 -11z"/>
<path d="M4918 968 c6 -6 18 -8 28 -6 14 3 12 5 -9 10 -19 3 -25 2 -19 -4z"/>
<path d="M5015 970 c3 -5 8 -10 11 -10 2 0 4 5 4 10 0 6 -5 10 -11 10 -5 0 -7
-4 -4 -10z"/>
<path d="M160 960 c0 -5 5 -10 11 -10 5 0 7 5 4 10 -3 6 -8 10 -11 10 -2 0 -4
-4 -4 -10z"/>
<path d="M4208 963 c7 -3 16 -2 19 1 4 3 -2 6 -13 5 -11 0 -14 -3 -6 -6z"/>
<path d="M196 943 c-5 -11 -2 -13 10 -9 8 3 30 6 46 6 40 0 34 6 -14 13 -27 4
-38 2 -42 -10z"/>
<path d="M3196 951 c-4 -5 -2 -12 3 -15 5 -4 12 -2 15 3 4 5 2 12 -3 15 -5 4
-12 2 -15 -3z"/>
<path d="M3765 950 c-3 -5 1 -10 10 -10 9 0 13 5 10 10 -3 6 -8 10 -10 10 -2
0 -7 -4 -10 -10z"/>
<path d="M3993 953 c15 -2 37 -2 50 0 12 2 0 4 -28 4 -27 0 -38 -2 -22 -4z"/>
<path d="M37 939 c7 -7 15 -10 18 -7 3 3 -2 9 -12 12 -14 6 -15 5 -6 -5z"/>
<path d="M3285 940 c-3 -6 1 -7 9 -4 18 7 21 14 7 14 -6 0 -13 -4 -16 -10z"/>
<path d="M3430 946 c0 -2 7 -9 15 -16 9 -7 15 -8 15 -2 0 5 -7 12 -15 16 -8 3
-15 4 -15 2z"/>
<path d="M4118 943 c6 -2 18 -2 25 0 6 3 1 5 -13 5 -14 0 -19 -2 -12 -5z"/>
<path d="M3320 930 c0 -5 5 -10 11 -10 5 0 7 5 4 10 -3 6 -8 10 -11 10 -2 0
-4 -4 -4 -10z"/>
<path d="M3365 920 c3 -5 8 -10 11 -10 2 0 4 5 4 10 0 6 -5 10 -11 10 -5 0 -7
-4 -4 -10z"/>
<path d="M4080 920 c0 -6 7 -10 15 -10 8 0 15 2 15 4 0 2 -7 6 -15 10 -8 3
-15 1 -15 -4z"/>
<path d="M207 911 c-17 -6 -17 -8 2 -25 12 -11 21 -14 21 -8 0 7 7 12 15 12 8
0 15 5 15 12 0 6 -3 8 -7 5 -3 -4 -11 -3 -17 2 -6 5 -19 6 -29 2z"/>
<path d="M273 910 c2 -8 0 -23 -4 -32 -6 -11 -5 -19 3 -24 7 -4 10 -4 6 1 -4
4 -3 15 2 24 5 11 5 23 -1 32 -9 12 -10 12 -6 -1z"/>
<path d="M3790 910 c0 -5 4 -10 9 -10 6 0 13 5 16 10 3 6 -1 10 -9 10 -9 0
-16 -4 -16 -10z"/>
<path d="M3838 913 c7 -3 16 -2 19 1 4 3 -2 6 -13 5 -11 0 -14 -3 -6 -6z"/>
<path d="M3975 910 c-3 -5 -1 -10 4 -10 6 0 11 5 11 10 0 6 -2 10 -4 10 -3 0
-8 -4 -11 -10z"/>
<path d="M4040 909 c0 -5 5 -7 10 -4 6 3 10 8 10 11 0 2 -4 4 -10 4 -5 0 -10
-5 -10 -11z"/>
<path d="M4588 913 c7 -3 16 -2 19 1 4 3 -2 6 -13 5 -11 0 -14 -3 -6 -6z"/>
<path d="M120 890 c-6 -11 -16 -17 -22 -14 -7 5 -8 2 -3 -6 5 -9 1 -10 -16 -6
-20 6 -21 5 -7 -4 13 -8 22 -7 36 1 23 15 46 49 32 49 -5 0 -14 -9 -20 -20z"/>
<path d="M2745 901 c-6 -11 13 -26 22 -17 4 3 1 6 -6 6 -7 0 -9 5 -6 10 3 6 4
10 1 10 -3 0 -7 -4 -11 -9z"/>
<path d="M3130 900 c-23 -7 -23 -8 -3 -9 12 -1 25 4 28 9 3 6 5 10 3 9 -2 -1
-14 -5 -28 -9z"/>
<path d="M3285 899 c4 -5 18 -9 32 -9 32 0 27 7 -10 14 -16 3 -25 1 -22 -5z"/>
<path d="M3400 901 c0 -5 11 -8 25 -8 13 0 22 3 19 8 -3 5 -14 9 -25 9 -10 0
-19 -4 -19 -9z"/>
<path d="M4480 900 c-9 -6 -10 -10 -3 -10 6 0 15 5 18 10 8 12 4 12 -15 0z"/>
<path d="M2795 890 c-3 -5 -2 -10 4 -10 5 0 13 5 16 10 3 6 2 10 -4 10 -5 0
-13 -4 -16 -10z"/>
<path d="M2922 880 c-7 -11 -11 -20 -9 -20 2 0 14 9 27 20 15 13 18 20 9 20
-8 0 -20 -9 -27 -20z"/>
<path d="M3028 893 c7 -3 16 -2 19 1 4 3 -2 6 -13 5 -11 0 -14 -3 -6 -6z"/>
<path d="M3461 896 c12 -13 69 -25 74 -15 4 5 -5 9 -19 9 -13 0 -33 3 -43 7
-10 3 -15 3 -12 -1z"/>
<path d="M3560 888 c0 -11 120 -9 145 2 13 5 -10 8 -62 7 -46 -1 -83 -5 -83
-9z"/>
<path d="M311 883 c-1 -6 -4 -20 -7 -30 -5 -17 -5 -17 6 0 6 10 9 23 6 30 -3
9 -5 9 -5 0z"/>
<path d="M2885 880 c3 -5 8 -10 11 -10 2 0 4 5 4 10 0 6 -5 10 -11 10 -5 0 -7
-4 -4 -10z"/>
<path d="M3170 880 c0 -5 5 -10 11 -10 5 0 7 5 4 10 -3 6 -8 10 -11 10 -2 0
-4 -4 -4 -10z"/>
<path d="M3815 880 c-3 -5 -1 -10 4 -10 6 0 11 5 11 10 0 6 -2 10 -4 10 -3 0
-8 -4 -11 -10z"/>
<path d="M4550 880 c0 -5 5 -10 10 -10 6 0 10 5 10 10 0 6 -4 10 -10 10 -5 0
-10 -4 -10 -10z"/>
<path d="M3765 870 c-3 -5 -1 -10 4 -10 6 0 11 5 11 10 0 6 -2 10 -4 10 -3 0
-8 -4 -11 -10z"/>
<path d="M2595 860 c-3 -5 1 -10 10 -10 9 0 13 5 10 10 -3 6 -8 10 -10 10 -2
0 -7 -4 -10 -10z"/>
<path d="M2731 857 c9 -7 14 -19 12 -27 -4 -13 -3 -13 6 0 15 22 14 27 -11 33
-20 5 -21 4 -7 -6z"/>
<path d="M2975 860 c3 -5 8 -10 11 -10 2 0 4 5 4 10 0 6 -5 10 -11 10 -5 0 -7
-4 -4 -10z"/>
<path d="M3000 859 c0 -5 5 -7 10 -4 6 3 10 8 10 11 0 2 -4 4 -10 4 -5 0 -10
-5 -10 -11z"/>
<path d="M3070 860 c0 -5 5 -10 11 -10 5 0 7 5 4 10 -3 6 -8 10 -11 10 -2 0
-4 -4 -4 -10z"/>
<path d="M3920 860 c0 -5 5 -10 10 -10 6 0 10 5 10 10 0 6 -4 10 -10 10 -5 0
-10 -4 -10 -10z"/>
<path d="M3663 853 c9 -2 23 -2 30 0 6 3 -1 5 -18 5 -16 0 -22 -2 -12 -5z"/>
<path d="M3980 850 c-9 -6 -10 -10 -3 -10 6 0 15 5 18 10 8 12 4 12 -15 0z"/>
<path d="M632 828 l11 -24 22 21 c24 22 24 35 0 15 -12 -10 -18 -10 -29 0 -13
10 -13 8 -4 -12z"/>
<path d="M1088 843 c7 -3 16 -2 19 1 4 3 -2 6 -13 5 -11 0 -14 -3 -6 -6z"/>
<path d="M3305 840 c-3 -5 -1 -10 4 -10 6 0 11 5 11 10 0 6 -2 10 -4 10 -3 0
-8 -4 -11 -10z"/>
<path d="M160 831 c0 -6 4 -13 10 -16 6 -3 7 1 4 9 -7 18 -14 21 -14 7z"/>
<path d="M215 829 c-4 -6 -4 -13 -1 -16 3 -4 6 -1 6 6 0 7 5 9 12 5 7 -4 8 -3
4 4 -9 15 -13 15 -21 1z"/>
<path d="M270 830 c-9 -6 -10 -10 -3 -10 6 0 15 5 18 10 8 12 4 12 -15 0z"/>
<path d="M522 829 c-13 -5 -20 -13 -17 -19 4 -6 12 -4 21 5 9 8 20 12 26 9 7
-4 8 -2 4 4 -4 7 -8 12 -9 11 -1 0 -12 -4 -25 -10z"/>
<path d="M2318 833 c7 -3 16 -2 19 1 4 3 -2 6 -13 5 -11 0 -14 -3 -6 -6z"/>
<path d="M3040 836 c0 -2 7 -7 16 -10 8 -3 12 -2 9 4 -6 10 -25 14 -25 6z"/>
<path d="M3555 830 c-3 -5 1 -10 10 -10 9 0 13 5 10 10 -3 6 -8 10 -10 10 -2
0 -7 -4 -10 -10z"/>
<path d="M890 821 c0 -5 7 -12 16 -15 14 -5 15 -4 4 9 -14 17 -20 19 -20 6z"/>
<path d="M1371 821 c-10 -6 -9 -10 5 -15 20 -8 25 -4 16 11 -4 7 -13 9 -21 4z"/>
<path d="M1482 818 c2 -6 10 -13 16 -14 7 -1 8 0 2 3 -5 2 -8 9 -4 14 3 5 0 9
-6 9 -7 0 -10 -5 -8 -12z"/>
<path d="M1590 821 c0 -10 30 -24 37 -17 3 2 -5 9 -16 16 -12 6 -21 7 -21 1z"/>
<path d="M1636 818 c3 -5 10 -6 15 -3 13 9 11 12 -6 12 -8 0 -12 -4 -9 -9z"/>
<path d="M1911 814 c0 -11 3 -14 6 -6 3 7 2 16 -1 19 -3 4 -6 -2 -5 -13z"/>
<path d="M2614 819 c-3 -5 6 -9 20 -9 31 0 34 6 6 13 -11 3 -23 1 -26 -4z"/>
<path d="M2806 821 c-3 -4 6 -6 19 -3 14 2 25 6 25 8 0 8 -39 4 -44 -5z"/>
<path d="M2865 820 c3 -5 12 -7 20 -3 21 7 19 13 -6 13 -11 0 -18 -4 -14 -10z"/>
<path d="M2965 820 c-3 -5 1 -10 9 -10 9 0 16 5 16 10 0 6 -4 10 -9 10 -6 0
-13 -4 -16 -10z"/>
<path d="M385 810 c3 -5 8 -10 11 -10 2 0 4 5 4 10 0 6 -5 10 -11 10 -5 0 -7
-4 -4 -10z"/>
<path d="M580 816 c0 -2 7 -6 15 -10 8 -3 15 -1 15 4 0 6 -7 10 -15 10 -8 0
-15 -2 -15 -4z"/>
<path d="M755 810 c3 -5 10 -10 16 -10 5 0 9 5 9 10 0 6 -7 10 -16 10 -8 0
-12 -4 -9 -10z"/>
<path d="M860 810 c0 -5 5 -10 10 -10 6 0 10 5 10 10 0 6 -4 10 -10 10 -5 0
-10 -4 -10 -10z"/>
<path d="M940 809 c0 -5 5 -7 10 -4 6 3 10 8 10 11 0 2 -4 4 -10 4 -5 0 -10
-5 -10 -11z"/>
<path d="M975 810 c-3 -5 -2 -10 4 -10 5 0 13 5 16 10 3 6 2 10 -4 10 -5 0
-13 -4 -16 -10z"/>
<path d="M1115 810 c3 -5 8 -10 11 -10 2 0 4 5 4 10 0 6 -5 10 -11 10 -5 0 -7
-4 -4 -10z"/>
<path d="M1200 809 c0 -5 5 -7 10 -4 6 3 10 8 10 11 0 2 -4 4 -10 4 -5 0 -10
-5 -10 -11z"/>
<path d="M1425 810 c3 -5 14 -10 23 -10 15 0 15 2 2 10 -20 13 -33 13 -25 0z"/>
<path d="M1670 800 c-8 -15 -8 -18 3 -14 8 3 14 11 14 19 0 20 -4 19 -17 -5z"/>
<path d="M1730 812 c0 -8 -5 -10 -12 -6 -10 5 -10 4 -1 -6 16 -17 35 -9 23 10
-7 11 -10 11 -10 2z"/>
<path d="M2068 813 c6 -2 18 -2 25 0 6 3 1 5 -13 5 -14 0 -19 -2 -12 -5z"/>
<path d="M2270 816 c0 -2 7 -7 16 -10 8 -3 12 -2 9 4 -6 10 -25 14 -25 6z"/>
<path d="M137 796 c-10 -8 -14 -16 -10 -19 5 -3 14 3 21 14 14 22 13 23 -11 5z"/>
<path d="M290 800 c0 -5 5 -10 10 -10 6 0 10 5 10 10 0 6 -4 10 -10 10 -5 0
-10 -4 -10 -10z"/>
<path d="M670 799 c-12 -8 -10 -9 9 -4 17 5 22 4 16 -5 -5 -9 -4 -11 4 -6 6 4
9 12 6 17 -8 12 -16 11 -35 -2z"/>
<path d="M1010 800 c-9 -6 -10 -10 -3 -10 6 0 15 5 18 10 8 12 4 12 -15 0z"/>
<path d="M1150 806 c0 -2 7 -7 16 -10 8 -3 12 -2 9 4 -6 10 -25 14 -25 6z"/>
<path d="M1878 803 c7 -3 16 -2 19 1 4 3 -2 6 -13 5 -11 0 -14 -3 -6 -6z"/>
<path d="M2025 800 c3 -5 11 -10 16 -10 6 0 7 5 4 10 -3 6 -11 10 -16 10 -6 0
-7 -4 -4 -10z"/>
<path d="M2125 800 c3 -5 8 -10 11 -10 2 0 4 5 4 10 0 6 -5 10 -11 10 -5 0 -7
-4 -4 -10z"/>
<path d="M1050 791 c0 -5 7 -11 14 -14 10 -4 13 -1 9 9 -6 15 -23 19 -23 5z"/>
<path d="M1540 796 c0 -2 7 -7 16 -10 8 -3 12 -2 9 4 -6 10 -25 14 -25 6z"/>
<path d="M2205 790 c-3 -5 -2 -10 4 -10 5 0 13 5 16 10 3 6 2 10 -4 10 -5 0
-13 -4 -16 -10z"/>
<path d="M630 780 c-9 -6 -10 -10 -3 -10 6 0 15 5 18 10 8 12 4 12 -15 0z"/>
<path d="M897 779 c7 -7 15 -10 18 -7 3 3 -2 9 -12 12 -14 6 -15 5 -6 -5z"/>
<path d="M1105 779 c-4 -6 -5 -12 -2 -15 2 -3 7 2 10 11 7 17 1 20 -8 4z"/>
<path d="M1360 780 c-7 -5 0 -9 19 -12 17 -2 31 -1 31 3 0 11 -36 17 -50 9z"/>
<path d="M1901 781 c-8 -6 -9 -11 -3 -15 6 -3 14 -1 17 5 9 14 2 20 -14 10z"/>
<path d="M210 770 c0 -5 5 -10 10 -10 6 0 10 5 10 10 0 6 -4 10 -10 10 -5 0
-10 -4 -10 -10z"/>
<path d="M1130 776 c0 -2 7 -7 16 -10 8 -3 12 -2 9 4 -6 10 -25 14 -25 6z"/>
<path d="M1258 773 c7 -3 16 -2 19 1 4 3 -2 6 -13 5 -11 0 -14 -3 -6 -6z"/>
<path d="M1315 770 c-4 -6 -12 -7 -18 -4 -9 5 -9 4 0 -6 9 -10 15 -10 28 4 9
9 12 16 6 16 -5 0 -13 -5 -16 -10z"/>
<path d="M1430 770 c-12 -8 -11 -10 8 -10 12 0 22 5 22 10 0 13 -11 13 -30 0z"/>
<path d="M1480 772 c0 -4 16 -8 35 -9 19 -2 35 0 35 5 0 4 -16 8 -35 9 -19 2
-35 0 -35 -5z"/>
<path d="M1615 770 c3 -5 11 -10 16 -10 6 0 7 5 4 10 -3 6 -11 10 -16 10 -6 0
-7 -4 -4 -10z"/>
<path d="M1680 770 c0 -5 5 -10 11 -10 5 0 7 5 4 10 -3 6 -8 10 -11 10 -2 0
-4 -4 -4 -10z"/>
<path d="M2086 757 c-4 -18 -4 -18 15 -1 23 21 23 21 5 21 -8 0 -17 -9 -20
-20z"/>
<path d="M965 760 c3 -5 11 -10 16 -10 6 0 7 5 4 10 -3 6 -11 10 -16 10 -6 0
-7 -4 -4 -10z"/>
<path d="M2307 763 c-10 -10 -8 -23 4 -23 5 0 8 4 5 9 -4 5 0 12 6 14 7 3 8 6
2 6 -6 1 -14 -2 -17 -6z"/>
<path d="M700 750 c-8 -5 -10 -10 -5 -10 6 0 17 5 25 10 8 5 11 10 5 10 -5 0
-17 -5 -25 -10z"/>
<path d="M820 750 c-9 -6 -10 -10 -3 -10 6 0 15 5 18 10 8 12 4 12 -15 0z"/>
<path d="M860 750 c0 -5 5 -10 11 -10 5 0 7 5 4 10 -3 6 -8 10 -11 10 -2 0 -4
-4 -4 -10z"/>
<path d="M1205 750 c4 -6 11 -8 16 -5 14 9 11 15 -7 15 -8 0 -12 -5 -9 -10z"/>
<path d="M2480 750 c-18 -12 -2 -12 25 0 13 6 15 9 5 9 -8 0 -22 -4 -30 -9z"/>
<path d="M1995 740 c-3 -6 1 -7 9 -4 18 7 21 14 7 14 -6 0 -13 -4 -16 -10z"/>
<path d="M1118 733 c6 -2 18 -2 25 0 6 3 1 5 -13 5 -14 0 -19 -2 -12 -5z"/>
<path d="M2110 720 c0 -5 5 -10 11 -10 5 0 7 5 4 10 -3 6 -8 10 -11 10 -2 0
-4 -4 -4 -10z"/>
<path d="M3290 720 c0 -5 7 -7 15 -4 8 4 15 8 15 10 0 2 -7 4 -15 4 -8 0 -15
-4 -15 -10z"/>
<path d="M1225 690 c-3 -5 -1 -10 4 -10 6 0 11 5 11 10 0 6 -2 10 -4 10 -3 0
-8 -4 -11 -10z"/>
<path d="M1660 669 c0 -5 5 -7 10 -4 6 3 10 8 10 11 0 2 -4 4 -10 4 -5 0 -10
-5 -10 -11z"/>
<path d="M1990 670 c0 -5 5 -10 11 -10 5 0 7 5 4 10 -3 6 -8 10 -11 10 -2 0
-4 -4 -4 -10z"/>
<path d="M1840 640 c0 -5 5 -10 10 -10 6 0 10 5 10 10 0 6 -4 10 -10 10 -5 0
-10 -4 -10 -10z"/>
<path d="M2067 603 c-4 -3 -7 -13 -7 -21 0 -18 13 -7 16 13 2 17 1 18 -9 8z"/>
<path d="M2166 544 c-4 -10 -1 -14 6 -12 15 5 23 28 10 28 -5 0 -13 -7 -16
-16z"/>
<path d="M2205 540 c4 -6 11 -8 16 -5 14 9 11 15 -7 15 -8 0 -12 -5 -9 -10z"/>
<path d="M2098 523 c7 -3 16 -2 19 1 4 3 -2 6 -13 5 -11 0 -14 -3 -6 -6z"/>
<path d="M1970 513 c8 -3 21 -10 28 -16 9 -7 11 -6 6 7 -3 9 -16 16 -28 15
-14 0 -16 -2 -6 -6z"/>
<path d="M2110 490 c0 -5 5 -10 11 -10 5 0 7 5 4 10 -3 6 -8 10 -11 10 -2 0
-4 -4 -4 -10z"/>
<path d="M2040 470 c20 -13 43 -13 35 0 -3 6 -16 10 -28 10 -18 0 -19 -2 -7
-10z"/>
<path d="M2055 430 c-3 -5 1 -10 9 -10 9 0 16 5 16 10 0 6 -4 10 -9 10 -6 0
-13 -4 -16 -10z"/>
<path d="M2137 433 c-4 -6 0 -14 9 -17 24 -9 36 -7 29 4 -4 6 -10 8 -15 5 -4
-3 -10 0 -12 7 -3 8 -6 9 -11 1z"/>
<path d="M2160 380 c0 -5 7 -10 16 -10 8 0 12 5 9 10 -3 6 -10 10 -16 10 -5 0
-9 -4 -9 -10z"/>
<path d="M2021 364 c0 -11 3 -14 6 -6 3 7 2 16 -1 19 -3 4 -6 -2 -5 -13z"/>
<path d="M2085 350 c-3 -5 -1 -10 4 -10 6 0 11 5 11 10 0 6 -2 10 -4 10 -3 0
-8 -4 -11 -10z"/>
<path d="M2100 310 c0 -5 9 -10 21 -10 11 0 17 5 14 10 -3 6 -13 10 -21 10 -8
0 -14 -4 -14 -10z"/>
<path d="M2150 312 c0 -18 19 -24 37 -13 10 6 13 11 6 11 -6 0 -18 3 -27 6 -9
3 -16 1 -16 -4z"/>
<path d="M2065 289 c-6 -19 0 -38 9 -28 10 12 16 49 7 49 -5 0 -13 -9 -16 -21z"/>
<path d="M2005 270 c-3 -5 1 -10 10 -10 9 0 13 5 10 10 -3 6 -8 10 -10 10 -2
0 -7 -4 -10 -10z"/>
<path d="M2157 224 c-4 -4 -4 -10 -1 -15 6 -10 34 0 34 12 0 10 -24 12 -33 3z"/>
<path d="M2086 195 c-15 -11 -16 -15 -5 -15 8 0 24 7 35 15 14 11 15 14 4 14
-8 0 -24 -6 -34 -14z"/>
<path d="M2185 190 c-3 -5 -2 -10 4 -10 5 0 13 5 16 10 3 6 2 10 -4 10 -5 0
-13 -4 -16 -10z"/>
<path d="M2007 183 c-4 -3 -7 -11 -7 -17 0 -6 5 -5 12 2 6 6 9 14 7 17 -3 3
-9 2 -12 -2z"/>
<path d="M2090 160 c0 -5 7 -10 15 -10 8 0 15 5 15 10 0 6 -7 10 -15 10 -8 0
-15 -4 -15 -10z"/>
<path d="M2040 116 c6 -6 18 -5 32 2 22 10 21 10 -9 9 -19 -1 -28 -6 -23 -11z"/>
</g>
</svg>
