<?xml version="1.0" standalone="no"?>
<!DOCTYPE svg PUBLIC "-//W3C//DTD SVG 20010904//EN"
 "http://www.w3.org/TR/2001/REC-SVG-20010904/DTD/svg10.dtd">
<svg version="1.0" xmlns="http://www.w3.org/2000/svg"
 width="512.000000pt" height="512.000000pt" viewBox="0 0 512.000000 512.000000"
 preserveAspectRatio="xMidYMid meet">
<metadata>
Created by potrace 1.16, written by Peter Selinger 2001-2019
</metadata>
<g transform="translate(0.000000,512.000000) scale(0.100000,-0.100000)"
fill="#000000" stroke="none">
<path d="M221 4904 c0 -11 3 -14 6 -6 3 7 2 16 -1 19 -3 4 -6 -2 -5 -13z"/>
<path d="M1730 4151 c0 -420 3 -761 7 -757 10 9 11 131 12 879 l1 617 809 0
810 0 0 -742 c0 -492 4 -745 11 -752 7 -7 10 233 10 754 l0 765 -830 0 -830 0
0 -764z"/>
<path d="M753 4903 c9 -2 25 -2 35 0 9 3 1 5 -18 5 -19 0 -27 -2 -17 -5z"/>
<path d="M918 4903 c7 -3 16 -2 19 1 4 3 -2 6 -13 5 -11 0 -14 -3 -6 -6z"/>
<path d="M958 4903 c7 -3 16 -2 19 1 4 3 -2 6 -13 5 -11 0 -14 -3 -6 -6z"/>
<path d="M1078 4903 c12 -2 32 -2 45 0 12 2 2 4 -23 4 -25 0 -35 -2 -22 -4z"/>
<path d="M1238 4903 c7 -3 16 -2 19 1 4 3 -2 6 -13 5 -11 0 -14 -3 -6 -6z"/>
<path d="M1403 4903 c9 -2 23 -2 30 0 6 3 -1 5 -18 5 -16 0 -22 -2 -12 -5z"/>
<path d="M1653 4903 c9 -2 23 -2 30 0 6 3 -1 5 -18 5 -16 0 -22 -2 -12 -5z"/>
<path d="M4905 4505 c0 -225 1 -319 2 -208 2 111 2 295 0 410 -1 114 -2 24 -2
-202z"/>
<path d="M225 4135 c0 -407 1 -572 2 -367 2 206 2 539 0 740 -1 202 -2 34 -2
-373z"/>
<path d="M2519 4823 c-8 -19 -8 -43 -1 -78 14 -71 1 -103 -46 -110 -68 -11
-167 -46 -214 -77 -103 -66 -201 -208 -229 -334 -10 -43 -18 -58 -36 -65 -34
-13 -32 -59 2 -59 22 0 25 -5 25 -32 0 -50 33 -147 74 -220 72 -130 190 -218
338 -254 61 -15 67 -19 84 -55 17 -38 44 -70 44 -53 0 5 -9 23 -19 40 -10 17
-21 39 -22 49 -3 14 -23 23 -79 37 -101 25 -172 62 -235 125 -88 86 -165 249
-165 349 0 37 -3 45 -15 40 -8 -3 -22 -9 -31 -13 -12 -4 -15 -2 -12 8 2 8 15
15 29 17 21 3 26 12 41 75 25 101 63 171 137 249 73 78 149 120 256 143 94 19
118 54 96 140 -8 33 -8 50 1 70 24 54 59 -8 42 -75 -6 -21 -7 -43 -3 -47 4 -4
11 -24 16 -43 9 -33 11 -34 77 -47 137 -25 248 -98 325 -214 44 -65 81 -169
81 -225 0 -31 3 -34 30 -34 17 0 30 -4 30 -10 0 -5 -12 -10 -28 -10 -26 0 -28
-3 -40 -67 -41 -214 -215 -394 -419 -433 l-63 -13 0 -39 c0 -22 -5 -48 -10
-59 -7 -12 -7 -19 -1 -19 15 0 25 21 31 64 5 39 5 39 68 52 192 39 359 212
410 424 14 59 20 70 38 70 21 0 34 17 34 45 0 7 -13 16 -29 20 -25 5 -29 12
-35 53 -21 153 -148 321 -288 381 -24 10 -68 24 -98 30 -30 7 -63 15 -72 17
-21 6 -33 54 -29 120 3 64 -13 94 -52 94 -21 0 -30 -7 -38 -27z"/>
<path d="M3463 4363 c9 -2 23 -2 30 0 6 3 -1 5 -18 5 -16 0 -22 -2 -12 -5z"/>
<path d="M1255 4340 c-3 -6 1 -7 9 -4 18 7 21 14 7 14 -6 0 -13 -4 -16 -10z"/>
<path d="M2548 4313 c7 -3 16 -2 19 1 4 3 -2 6 -13 5 -11 0 -14 -3 -6 -6z"/>
<path d="M2507 4272 c-7 -34 -51 -90 -81 -102 -21 -9 -21 -9 1 -9 34 -1 111
114 91 135 -3 2 -8 -8 -11 -24z"/>
<path d="M2550 4281 c0 -5 -3 -18 -6 -28 -4 -14 -4 -15 4 -4 8 11 12 10 22 -5
11 -18 11 -18 6 -1 -3 10 -6 25 -6 33 0 8 -4 14 -10 14 -5 0 -10 -4 -10 -9z"/>
<path d="M2591 4285 c0 -5 8 -26 19 -45 11 -19 19 -30 19 -25 0 6 -8 26 -19
45 -11 19 -19 31 -19 25z"/>
<path d="M1046 4225 c-11 -8 -18 -17 -15 -19 2 -2 15 4 28 15 27 22 15 26 -13
4z"/>
<path d="M1140 4229 c0 -5 5 -7 10 -4 6 3 10 8 10 11 0 2 -4 4 -10 4 -5 0 -10
-5 -10 -11z"/>
<path d="M2525 4219 c-4 -6 -5 -12 -2 -15 2 -3 7 2 10 11 7 17 1 20 -8 4z"/>
<path d="M1388 4213 c7 -3 16 -2 19 1 4 3 -2 6 -13 5 -11 0 -14 -3 -6 -6z"/>
<path d="M1085 4200 c3 -5 11 -10 16 -10 6 0 7 5 4 10 -3 6 -11 10 -16 10 -6
0 -7 -4 -4 -10z"/>
<path d="M4003 4198 c-28 -36 -22 -68 12 -68 6 1 2 5 -8 11 -17 10 -17 12 -2
36 17 26 15 43 -2 21z"/>
<path d="M941 4155 c-17 -20 -31 -39 -31 -43 1 -4 10 4 21 18 11 14 30 33 42
42 12 10 17 18 11 18 -7 0 -26 -16 -43 -35z"/>
<path d="M2498 4173 c-24 -29 -30 -43 -16 -38 7 3 18 17 25 30 13 30 11 31 -9
8z"/>
<path d="M1025 4170 c3 -5 13 -10 21 -10 8 0 12 5 9 10 -3 6 -13 10 -21 10 -8
0 -12 -4 -9 -10z"/>
<path d="M1082 4159 c11 -17 10 -22 -6 -35 -11 -8 -16 -14 -10 -14 5 0 20 9
32 19 22 16 23 19 7 34 -23 24 -38 21 -23 -4z"/>
<path d="M2670 4170 c8 -5 20 -10 25 -10 6 0 3 5 -5 10 -8 5 -19 10 -25 10 -5
0 -3 -5 5 -10z"/>
<path d="M4027 4173 c-4 -3 -7 -11 -7 -17 0 -6 5 -5 12 2 6 6 9 14 7 17 -3 3
-9 2 -12 -2z"/>
<path d="M4048 4150 c-9 -16 -13 -32 -9 -34 4 -3 15 10 24 29 20 43 9 46 -15
5z"/>
<path d="M985 4150 c-3 -5 -1 -10 4 -10 6 0 11 5 11 10 0 6 -2 10 -4 10 -3 0
-8 -4 -11 -10z"/>
<path d="M1488 4148 c20 -7 36 -7 42 -2 5 5 -8 10 -33 11 l-42 1 33 -10z"/>
<path d="M2610 4150 c0 -5 5 -10 11 -10 5 0 7 5 4 10 -3 6 -8 10 -11 10 -2 0
-4 -4 -4 -10z"/>
<path d="M1170 4146 c0 -2 7 -6 15 -10 8 -3 15 -1 15 4 0 6 -7 10 -15 10 -8 0
-15 -2 -15 -4z"/>
<path d="M1588 4143 c6 -2 18 -2 25 0 6 3 1 5 -13 5 -14 0 -19 -2 -12 -5z"/>
<path d="M2410 4137 c0 -2 15 -14 33 -27 l32 -23 -24 26 c-21 23 -41 35 -41
24z"/>
<path d="M2629 4113 l-24 -28 28 24 c25 23 32 31 24 31 -2 0 -14 -12 -28 -27z"/>
<path d="M4078 4119 c-17 -18 -17 -19 2 -29 17 -9 20 -8 20 8 0 10 5 23 12 30
9 9 9 12 -2 11 -8 0 -23 -9 -32 -20z"/>
<path d="M960 4116 c0 -2 7 -9 15 -16 12 -10 15 -10 15 4 0 9 -7 16 -15 16 -8
0 -15 -2 -15 -4z"/>
<path d="M1022 4099 c-12 -19 -11 -19 8 -9 11 6 18 15 15 21 -8 12 -8 12 -23
-12z"/>
<path d="M1463 4113 c9 -2 25 -2 35 0 9 3 1 5 -18 5 -19 0 -27 -2 -17 -5z"/>
<path d="M2490 4116 c0 -4 9 -19 20 -33 13 -17 20 -20 20 -11 0 8 -9 23 -20
33 -11 10 -20 15 -20 11z"/>
<path d="M3846 4095 c-4 -11 -13 -14 -28 -10 -21 5 -21 5 -4 -6 14 -9 21 -8
34 5 9 8 13 18 10 21 -3 3 -8 -1 -12 -10z"/>
<path d="M4125 4083 c1 -16 11 -44 23 -63 12 -19 22 -38 22 -42 0 -14 27 -8
40 8 11 13 10 19 -8 37 -18 17 -22 18 -22 5 0 -9 7 -19 16 -22 8 -3 12 -10 9
-16 -11 -17 -24 -11 -40 20 -14 27 -14 30 2 39 10 5 14 13 10 17 -4 4 -13 -1
-21 -11 -9 -13 -15 -15 -20 -6 -4 6 -2 18 4 26 6 8 9 19 5 25 -11 18 -20 11
-20 -17z"/>
<path d="M877 4048 c-20 -36 -25 -54 -18 -61 8 -8 11 -5 11 10 0 12 10 38 21
58 12 20 20 38 18 40 -2 2 -17 -19 -32 -47z"/>
<path d="M951 4092 c-1 -7 6 -15 14 -18 8 -4 15 -14 15 -23 0 -14 2 -14 10 -1
14 22 12 30 -9 30 -11 0 -22 6 -24 13 -4 9 -6 9 -6 -1z"/>
<path d="M2550 4093 c0 -5 5 -15 10 -23 8 -12 10 -11 10 8 0 12 -4 22 -10 22
-5 0 -10 -3 -10 -7z"/>
<path d="M1275 4070 c21 -24 31 -25 38 -6 4 10 0 12 -14 9 -10 -3 -19 0 -19 6
0 6 -5 11 -12 11 -6 0 -3 -9 7 -20z"/>
<path d="M1337 4057 c-23 -24 -25 -31 -15 -50 6 -12 12 -54 12 -93 1 -39 5
-71 11 -72 6 0 21 -3 35 -6 22 -5 22 -4 -3 6 -23 10 -28 17 -24 36 3 14 -1 54
-9 90 -13 63 -13 67 8 89 12 13 20 24 17 26 -2 1 -16 -10 -32 -26z"/>
<path d="M2641 4075 c0 -11 6 -29 14 -39 8 -11 15 -15 15 -10 0 6 -4 14 -9 20
-5 5 -11 18 -14 29 l-5 20 -1 -20z"/>
<path d="M4904 3935 c0 -88 2 -123 3 -77 2 46 2 118 0 160 -1 42 -3 5 -3 -83z"/>
<path d="M2483 4056 c0 -18 3 -24 9 -18 7 7 7 16 0 28 -8 14 -9 13 -9 -10z"/>
<path d="M2590 4068 c0 -9 3 -24 6 -33 7 -18 93 -80 100 -72 3 3 -11 15 -31
27 -19 12 -44 38 -55 58 -10 21 -19 30 -20 20z"/>
<path d="M4220 4061 c0 -6 4 -13 10 -16 6 -3 7 1 4 9 -7 18 -14 21 -14 7z"/>
<path d="M3781 4005 c-13 -56 -12 -185 1 -185 4 0 5 28 2 63 -5 57 2 114 21
160 4 9 3 17 -2 17 -6 0 -15 -25 -22 -55z"/>
<path d="M944 4034 c3 -12 2 -34 -4 -50 -14 -35 2 -20 18 18 9 22 8 29 -5 40
-14 11 -15 10 -9 -8z"/>
<path d="M2547 4043 c-7 -13 -6 -72 2 -77 4 -3 6 10 5 27 -1 18 2 35 8 38 7 4
7 9 0 13 -6 3 -13 3 -15 -1z"/>
<path d="M906 4032 c-3 -6 -1 -14 5 -17 14 -9 20 -2 10 14 -6 8 -11 9 -15 3z"/>
<path d="M4247 4019 c7 -7 15 -10 18 -7 3 3 -2 9 -12 12 -14 6 -15 5 -6 -5z"/>
<path d="M890 3996 c0 -16 18 -31 27 -22 3 3 -2 12 -11 21 -14 14 -16 14 -16
1z"/>
<path d="M2700 3996 c0 -3 9 -10 20 -16 11 -6 20 -8 20 -6 0 3 -9 10 -20 16
-11 6 -20 8 -20 6z"/>
<path d="M4234 3978 c-3 -4 4 -8 15 -8 12 0 21 4 21 8 0 5 -7 9 -15 9 -9 0
-18 -4 -21 -9z"/>
<path d="M915 3940 c3 -5 8 -10 11 -10 2 0 4 5 4 10 0 6 -5 10 -11 10 -5 0 -7
-4 -4 -10z"/>
<path d="M4170 3935 c0 -8 2 -15 4 -15 2 0 6 7 10 15 3 8 1 15 -4 15 -6 0 -10
-7 -10 -15z"/>
<path d="M4246 3937 c3 -10 9 -15 12 -12 3 3 0 11 -7 18 -10 9 -11 8 -5 -6z"/>
<path d="M4222 3900 c12 -22 23 -38 25 -36 2 1 -3 16 -11 31 -8 16 -13 32 -10
37 3 4 -2 8 -10 8 -12 0 -11 -7 6 -40z"/>
<path d="M4198 3872 c25 -55 39 -69 18 -17 -10 22 -22 45 -27 50 -6 6 -2 -9 9
-33z"/>
<path d="M4167 3855 c-4 -24 0 -50 13 -78 22 -50 27 -42 5 10 -18 42 -19 57
-5 48 7 -4 8 3 4 22 -9 39 -10 39 -17 -2z"/>
<path d="M901 3811 c-42 -82 -39 -91 5 -12 19 35 33 65 31 68 -3 2 -19 -23
-36 -56z"/>
<path d="M942 3818 c5 -15 28 -23 28 -10 0 5 -7 13 -16 16 -10 4 -14 1 -12 -6z"/>
<path d="M1295 3800 c-38 -42 -100 -62 -180 -58 -46 2 -68 0 -58 -5 8 -5 43
-10 77 -10 66 -1 110 15 160 58 23 20 37 24 65 20 27 -4 31 -3 16 4 -33 15
-61 12 -80 -9z"/>
<path d="M4125 3800 c-5 -8 41 -90 51 -90 2 0 -5 16 -15 36 -11 20 -17 42 -14
50 6 16 -13 19 -22 4z"/>
<path d="M4230 3805 c0 -5 5 -17 10 -25 5 -8 10 -10 10 -5 0 6 -5 17 -10 25
-5 8 -10 11 -10 5z"/>
<path d="M3835 3770 c64 -39 116 -53 163 -44 68 12 62 19 -13 16 -68 -4 -79
-2 -130 27 -70 40 -86 40 -20 1z"/>
<path d="M960 3768 c-32 -48 -32 -52 -2 -19 33 35 37 41 24 41 -4 0 -14 -10
-22 -22z"/>
<path d="M909 3753 c-13 -16 -12 -17 4 -4 9 7 17 15 17 17 0 8 -8 3 -21 -13z"/>
<path d="M1007 3756 c-4 -10 -1 -13 8 -9 8 3 12 9 9 14 -7 12 -11 11 -17 -5z"/>
<path d="M4074 3758 c-4 -7 -3 -8 5 -4 6 4 19 2 27 -5 12 -10 13 -9 8 5 -7 19
-30 21 -40 4z"/>
<path d="M4904 3580 c0 -96 2 -136 3 -87 2 48 2 126 0 175 -1 48 -3 8 -3 -88z"/>
<path d="M4130 3710 c6 -11 13 -20 16 -20 2 0 0 9 -6 20 -6 11 -13 20 -16 20
-2 0 0 -9 6 -20z"/>
<path d="M4241 3694 c0 -11 3 -14 6 -6 3 7 2 16 -1 19 -3 4 -6 -2 -5 -13z"/>
<path d="M4270 3696 c0 -8 4 -17 9 -20 5 -4 7 3 4 14 -6 23 -13 26 -13 6z"/>
<path d="M4251 3654 c0 -11 3 -14 6 -6 3 7 2 16 -1 19 -3 4 -6 -2 -5 -13z"/>
<path d="M4261 3614 c0 -11 3 -14 6 -6 3 7 2 16 -1 19 -3 4 -6 -2 -5 -13z"/>
<path d="M4291 3604 c0 -11 3 -14 6 -6 3 7 2 16 -1 19 -3 4 -6 -2 -5 -13z"/>
<path d="M932 3580 c0 -14 2 -19 5 -12 2 6 2 18 0 25 -3 6 -5 1 -5 -13z"/>
<path d="M2538 3594 c-9 -8 12 -54 24 -54 13 0 5 53 -8 57 -5 2 -13 1 -16 -3z"/>
<path d="M4271 3574 c0 -11 3 -14 6 -6 3 7 2 16 -1 19 -3 4 -6 -2 -5 -13z"/>
<path d="M4188 3535 c2 -14 6 -25 8 -25 2 0 4 11 4 25 0 14 -4 25 -9 25 -4 0
-6 -11 -3 -25z"/>
<path d="M923 3510 c0 -25 2 -35 4 -22 2 12 2 32 0 45 -2 12 -4 2 -4 -23z"/>
<path d="M4282 3515 c0 -16 2 -22 5 -12 2 9 2 23 0 30 -3 6 -5 -1 -5 -18z"/>
<path d="M4192 3480 c0 -14 2 -19 5 -12 2 6 2 18 0 25 -3 6 -5 1 -5 -13z"/>
<path d="M813 3445 c0 -27 2 -38 4 -22 2 15 2 37 0 50 -2 12 -4 0 -4 -28z"/>
<path d="M4293 3440 c0 -25 2 -35 4 -22 2 12 2 32 0 45 -2 12 -4 2 -4 -23z"/>
<path d="M4343 3440 c0 -25 2 -35 4 -22 2 12 2 32 0 45 -2 12 -4 2 -4 -23z"/>
<path d="M4442 3430 c0 -19 2 -27 5 -17 2 9 2 25 0 35 -3 9 -5 1 -5 -18z"/>
<path d="M4190 3440 c0 -5 5 -10 11 -10 5 0 7 5 4 10 -3 6 -8 10 -11 10 -2 0
-4 -4 -4 -10z"/>
<path d="M4190 3410 c0 -5 5 -10 10 -10 6 0 10 5 10 10 0 6 -4 10 -10 10 -5 0
-10 -4 -10 -10z"/>
<path d="M220 2586 c0 -438 0 -799 0 -802 0 -4 333 -9 740 -12 550 -3 740 -2
740 7 0 8 -84 11 -308 11 -170 0 -498 3 -730 7 l-422 6 0 369 0 368 24 0 c14
0 53 -16 87 -36 52 -31 67 -35 100 -30 32 5 39 3 39 -10 0 -26 51 -146 86
-199 66 -102 169 -173 292 -201 42 -10 82 -23 88 -31 16 -18 24 -16 24 6 0 21
-3 22 -90 41 -92 21 -160 59 -231 129 -70 70 -131 178 -145 256 -9 56 -11 57
-50 40 -33 -14 -38 -13 -89 13 -55 28 -68 42 -38 42 9 0 36 12 60 26 41 24 46
24 62 10 26 -23 40 -20 46 12 23 116 66 207 134 285 51 57 168 125 250 144 56
14 71 21 73 37 4 28 32 27 36 -1 3 -17 10 -23 30 -23 39 0 123 -24 179 -51
128 -63 258 -253 264 -384 1 -17 3 -22 6 -12 6 21 5 21 45 -2 18 -10 48 -22
66 -26 17 -4 32 -13 32 -21 0 -14 -36 -27 -61 -23 -8 1 -27 -3 -42 -9 -16 -7
-32 -12 -37 -12 -5 0 -12 -12 -16 -27 -50 -226 -203 -375 -421 -409 -33 -5
-42 -11 -46 -30 -5 -27 7 -32 20 -9 5 8 33 19 63 25 180 34 324 170 385 363
21 65 25 71 60 83 21 7 41 13 44 12 31 -3 51 5 57 24 8 27 -22 55 -72 64 -19
3 -34 10 -34 15 0 5 -6 9 -14 9 -9 0 -21 21 -30 54 -33 112 -79 189 -155 258
-62 57 -159 105 -241 120 -43 8 -60 16 -63 30 -7 26 -63 25 -72 -1 -4 -14 -22
-23 -63 -31 -60 -12 -160 -62 -218 -108 -74 -58 -140 -166 -169 -277 -12 -46
-15 -50 -40 -47 -14 2 -46 -8 -71 -22 -37 -21 -53 -24 -94 -19 l-50 6 0 378 0
379 493 0 c465 0 957 8 966 16 2 2 -310 4 -695 5 -384 0 -718 2 -741 5 l-43 5
0 -795z m80 -10 c0 -2 3 -12 7 -21 5 -15 3 -16 -15 -6 -11 6 -30 11 -42 11
-12 0 -18 5 -15 10 6 9 65 15 65 6z"/>
<path d="M1727 3373 c-1 -1 -1 -362 1 -802 l2 -801 830 0 830 0 0 803 0 802
-831 0 c-457 0 -831 -1 -832 -2z m1643 -796 l0 -774 -292 -6 c-161 -4 -526 -7
-810 -7 l-518 0 0 780 0 780 810 0 810 0 0 -773z"/>
<path d="M2158 2744 c-43 -18 -58 -52 -58 -131 0 -59 19 -107 49 -123 27 -14
144 -13 159 2 9 9 12 9 12 -1 0 -8 13 -11 42 -9 39 3 43 6 48 33 l6 30 7 -26
c4 -17 16 -29 33 -33 30 -8 64 1 64 15 0 6 7 3 16 -6 16 -15 48 -16 71 -2 7 4
22 3 32 -3 12 -6 72 -9 148 -8 l128 3 5 35 5 35 22 -37 c19 -32 28 -38 57 -38
22 0 36 6 40 16 8 21 8 183 0 223 -6 28 -10 31 -45 31 -37 0 -38 -1 -41 -37
l-3 -38 -22 37 c-22 37 -58 56 -88 44 -12 -4 -15 -26 -16 -108 0 -57 -3 -97
-6 -90 -3 7 -27 13 -61 14 l-57 1 50 6 50 6 -1 43 c0 23 3 42 8 42 5 0 8 19 6
43 l-3 42 -69 3 c-38 2 -82 -2 -99 -8 -21 -7 -34 -7 -43 1 -22 18 -67 6 -81
-21 -10 -19 -13 -21 -13 -7 0 23 -39 37 -105 37 -81 0 -85 -3 -85 -71 0 -54
-2 -59 -22 -59 -21 0 -21 1 -3 13 14 11 17 22 12 56 -3 24 -7 45 -10 47 -13
14 -106 13 -139 -2z m435 -122 c2 -109 1 -112 -20 -112 -21 0 -22 4 -25 111
-2 61 -2 112 -1 113 2 2 12 2 24 1 19 -1 21 -8 22 -113z m207 89 c0 -22 -4
-28 -17 -26 -10 2 -35 6 -55 9 -37 5 -38 4 -38 -28 l0 -33 50 5 c46 4 50 3 50
-18 0 -20 -4 -22 -50 -18 -50 3 -50 3 -50 -28 l0 -30 60 4 c56 4 60 3 60 -17
0 -20 -5 -21 -85 -21 l-85 0 0 110 0 109 78 4 c42 1 78 4 80 5 1 1 2 -11 2
-27z m96 15 c5 -11 87 -146 89 -146 1 0 0 34 -3 75 -4 71 -4 75 17 75 20 0 21
-4 21 -116 0 -102 -2 -115 -17 -112 -9 2 -35 33 -57 70 -23 36 -44 69 -47 72
-3 4 -4 -27 -1 -69 l5 -75 -27 0 -26 0 0 121 c0 120 0 120 23 113 12 -3 22 -7
23 -8z m-612 -18 c13 -51 -1 -64 -31 -28 -22 25 -59 26 -73 1 -14 -27 -13
-114 2 -129 7 -7 25 -12 40 -12 21 0 28 5 28 20 0 13 -7 20 -20 20 -11 0 -20
7 -20 15 0 11 11 15 43 15 l42 0 -3 -55 -4 -55 -50 0 c-62 0 -86 13 -104 55
-26 63 -12 143 29 163 12 6 43 11 68 11 40 1 48 -2 53 -21z m210 -16 c11 -38
-5 -82 -29 -82 -8 0 -15 -4 -15 -10 0 -5 4 -10 8 -10 7 0 42 -63 42 -75 0 -3
-10 -5 -22 -5 -17 0 -27 10 -40 40 -11 27 -23 40 -36 40 -17 0 -19 -5 -14 -45
4 -43 4 -45 -22 -45 l-26 0 0 115 0 116 72 -3 c72 -3 72 -3 82 -36z m-251 -40
c16 -17 14 -18 -17 -20 -30 -2 -34 0 -29 18 7 25 25 26 46 2z m530 11 c-13 -2
-33 -2 -45 0 -13 2 -3 4 22 4 25 0 35 -2 23 -4z m-253 -80 c0 -27 -3 -34 -11
-26 -7 7 -9 23 -5 37 9 37 16 32 16 -11z"/>
<path d="M2386 2691 c-5 -11 1 -66 7 -63 4 1 18 2 31 2 25 0 39 20 30 44 -5
14 -62 28 -68 17z m44 -25 c0 -3 -4 -8 -10 -11 -5 -3 -10 -1 -10 4 0 6 5 11
10 11 6 0 10 -2 10 -4z"/>
<path d="M2360 2385 c-5 -6 -11 -31 -12 -56 -3 -41 -1 -44 25 -47 15 -2 27 -7
27 -11 0 -4 60 -6 133 -5 72 1 151 3 175 3 30 1 42 5 42 16 0 10 10 15 30 15
25 0 30 4 30 25 0 14 -8 29 -20 35 -11 6 -20 17 -20 25 0 11 -36 13 -200 13
-137 -1 -203 -5 -210 -13z m50 -37 l13 -33 4 33 c3 17 9 32 15 32 7 0 8 -15 4
-42 -9 -55 -22 -69 -35 -36 -14 37 -31 44 -31 14 0 -14 -5 -26 -10 -26 -7 0
-8 14 -4 38 11 63 23 69 44 20z m128 -10 c2 -29 -1 -39 -17 -48 -33 -17 -61 3
-61 44 0 40 1 42 42 41 31 0 33 -3 36 -37z m57 2 c8 0 11 7 8 20 -3 11 -1 20
5 20 5 0 12 -9 15 -20 3 -11 2 -20 -2 -20 -4 0 -12 -14 -18 -31 -12 -31 -33
-35 -41 -9 -3 9 1 11 12 7 9 -4 16 -2 16 2 0 5 -7 11 -15 15 -8 3 -15 14 -15
24 0 27 14 38 18 13 2 -12 9 -21 17 -21z m107 0 l17 -35 1 32 c0 17 5 35 11
38 17 11 18 3 5 -48 -13 -52 -24 -51 -45 6 -15 40 -31 33 -31 -14 0 -25 -4
-39 -11 -37 -13 4 -13 8 -5 59 8 50 33 50 58 -1z m88 -11 c0 -14 -16 -11 -29
5 -10 12 -8 13 8 9 12 -3 21 -9 21 -14z"/>
<path d="M2487 2353 c-4 -3 -7 -17 -7 -30 0 -16 6 -23 20 -23 16 0 20 7 20 30
0 28 -17 40 -33 23z"/>
<path d="M4215 3370 c-368 -3 -571 -7 -450 -9 121 -2 225 -5 230 -6 6 -2 209
-3 453 -4 l442 -1 -2 -382 -3 -382 -29 -7 c-19 -5 -41 -3 -64 6 -19 8 -43 15
-53 15 -12 0 -24 11 -29 26 -6 14 -19 28 -29 31 -12 3 -24 24 -37 66 -45 148
-181 285 -329 330 -27 8 -62 18 -76 21 -15 3 -29 15 -32 26 -7 28 -67 29 -74
1 -3 -13 -24 -23 -71 -36 -74 -20 -162 -62 -206 -100 -41 -35 -27 -31 33 9 61
42 142 73 210 82 45 6 51 9 51 30 0 17 6 24 20 24 14 0 20 -7 20 -23 0 -21 8
-25 74 -41 123 -29 239 -111 308 -219 32 -50 78 -181 78 -222 0 -14 5 -25 11
-25 7 0 10 12 7 30 -3 20 0 30 8 30 7 0 14 -12 16 -27 2 -23 9 -29 38 -34 19
-3 52 -13 72 -22 22 -9 40 -12 43 -6 4 5 18 9 33 8 22 0 17 -4 -23 -19 -27
-10 -59 -19 -69 -19 -11 -1 -29 -10 -41 -21 -18 -17 -26 -18 -55 -10 -48 14
-47 14 -55 -27 -3 -21 -23 -72 -42 -113 -65 -137 -200 -245 -348 -281 -70 -16
-79 -27 -69 -80 l8 -44 6 43 5 44 87 28 c49 15 110 42 137 59 105 68 200 195
230 308 11 42 12 42 57 41 28 0 51 5 63 16 9 9 24 16 32 16 8 0 26 6 41 14 19
10 29 11 37 3 8 -8 11 -122 11 -364 l0 -353 -117 -1 c-184 -1 -520 -5 -848 -9
l-300 -3 275 -9 c151 -4 440 -7 642 -5 l368 2 0 803 c0 636 -3 802 -12 800 -7
-2 -314 -5 -683 -8z"/>
<path d="M3428 3363 c7 -3 16 -2 19 1 4 3 -2 6 -13 5 -11 0 -14 -3 -6 -6z"/>
<path d="M4155 3030 c-3 -6 1 -7 9 -4 18 7 21 14 7 14 -6 0 -13 -4 -16 -10z"/>
<path d="M938 3023 c7 -3 16 -2 19 1 4 3 -2 6 -13 5 -11 0 -14 -3 -6 -6z"/>
<path d="M4088 3023 c6 -2 18 -2 25 0 6 3 1 5 -13 5 -14 0 -19 -2 -12 -5z"/>
<path d="M3780 2885 c-7 -9 -11 -17 -9 -20 3 -2 10 5 17 15 14 24 10 26 -8 5z"/>
<path d="M953 2883 c9 -2 25 -2 35 0 9 3 1 5 -18 5 -19 0 -27 -2 -17 -5z"/>
<path d="M3741 2823 c-10 -26 -10 -27 4 -9 8 11 15 23 15 28 0 15 -7 8 -19
-19z"/>
<path d="M3706 2755 c-9 -26 -7 -32 5 -12 6 10 9 21 6 23 -2 3 -7 -2 -11 -11z"/>
<path d="M4141 2718 c-17 -50 -92 -150 -108 -144 -7 3 -15 1 -18 -3 -2 -5 4
-11 15 -14 14 -4 29 8 58 47 50 65 74 113 70 134 -3 11 -9 3 -17 -20z"/>
<path d="M4185 2736 c-11 -25 24 -91 75 -141 37 -36 41 -38 72 -27 l33 12 -37
-5 c-21 -2 -38 -1 -38 3 0 4 -10 18 -23 32 -41 45 -65 85 -69 115 -4 26 -5 27
-13 11z"/>
<path d="M3677 2660 c-3 -11 -1 -20 4 -20 5 0 9 9 9 20 0 11 -2 20 -4 20 -2 0
-6 -9 -9 -20z"/>
<path d="M4160 2666 c0 -8 -22 -44 -50 -80 -45 -58 -48 -65 -33 -78 10 -7 14
-8 10 -1 -4 6 0 18 8 26 8 9 15 20 15 25 0 8 12 24 51 70 8 10 15 7 32 -15 12
-15 21 -29 19 -31 -2 -2 5 -10 15 -19 10 -8 13 -12 6 -9 -7 4 -9 -1 -6 -14 3
-11 9 -17 14 -14 5 3 9 0 9 -5 0 -6 -6 -11 -13 -11 -7 0 -18 -9 -24 -19 -21
-34 -2 -30 32 7 l33 36 -44 51 c-25 27 -47 60 -50 73 -7 24 -24 30 -24 8z"/>
<path d="M895 2660 c-3 -6 1 -7 9 -4 18 7 21 14 7 14 -6 0 -13 -4 -16 -10z"/>
<path d="M1000 2653 c1 -9 57 -73 65 -73 3 0 -7 18 -21 40 -24 36 -44 51 -44
33z"/>
<path d="M1138 2653 c7 -3 16 -2 19 1 4 3 -2 6 -13 5 -11 0 -14 -3 -6 -6z"/>
<path d="M3620 2630 c-13 -9 -13 -10 0 -10 8 0 22 5 30 10 13 9 13 10 0 10 -8
0 -22 -5 -30 -10z"/>
<path d="M1084 2615 c-9 -22 1 -29 15 -11 8 10 9 16 1 21 -5 3 -13 -1 -16 -10z"/>
<path d="M1129 2599 l-34 -31 42 24 c24 13 43 26 43 31 0 15 -18 6 -51 -24z"/>
<path d="M3666 2615 c-5 -13 -18 -15 -78 -9 -63 5 -76 4 -97 -13 -19 -15 -23
-25 -18 -46 9 -32 65 -54 97 -37 11 6 30 8 42 4 11 -3 27 -7 35 -8 8 -1 19 -9
24 -17 7 -11 9 -9 9 8 0 18 -6 22 -37 25 -30 2 -38 7 -36 21 1 17 -1 17 -21
-2 -26 -24 -64 -27 -92 -7 -44 33 48 85 100 56 20 -10 31 -10 55 0 17 7 31 19
31 26 0 18 -6 18 -14 -1z"/>
<path d="M860 2611 c0 -13 46 -52 53 -44 12 12 7 22 -8 17 -9 -4 -15 0 -15 9
0 8 -7 17 -15 21 -8 3 -15 2 -15 -3z"/>
<path d="M956 2594 c-3 -7 3 -15 12 -18 9 -3 26 -12 38 -21 19 -14 22 -14 35
2 12 16 12 17 -1 6 -12 -9 -20 -7 -37 7 -29 23 -29 33 -2 25 14 -5 19 -3 15 4
-9 14 -54 10 -60 -5z"/>
<path d="M1169 2588 c-5 -18 -6 -38 -1 -34 7 8 12 36 6 36 -2 0 -4 -1 -5 -2z"/>
<path d="M1470 2560 c0 -19 3 -21 12 -12 9 9 9 15 0 24 -9 9 -12 7 -12 -12z"/>
<path d="M1510 2571 c0 -5 5 -13 10 -16 6 -3 10 -2 10 4 0 5 -4 13 -10 16 -5
3 -10 2 -10 -4z"/>
<path d="M935 2561 c-3 -5 -2 -12 3 -15 5 -3 9 1 9 9 0 17 -3 19 -12 6z"/>
<path d="M1037 2513 c-33 -34 -37 -35 -37 -16 0 12 -4 25 -10 28 -5 3 -10 1
-10 -6 0 -8 -5 -8 -17 2 -10 7 -4 -2 12 -21 17 -19 30 -36 31 -38 1 -1 18 18
38 43 45 55 43 57 -7 8z"/>
<path d="M4035 2509 c22 -24 48 -51 57 -60 10 -9 16 -18 14 -20 -2 -2 12 -19
30 -38 19 -19 34 -30 34 -24 0 12 -127 153 -154 172 -12 8 -3 -6 19 -30z"/>
<path d="M4190 2538 c0 -9 -6 -18 -12 -21 -7 -2 -10 -8 -5 -13 4 -4 15 0 24 9
13 13 15 20 5 29 -9 9 -12 8 -12 -4z"/>
<path d="M4304 2526 c-23 -20 -27 -27 -16 -37 10 -11 12 -10 12 3 0 9 10 24
22 32 12 9 19 18 16 21 -3 3 -19 -5 -34 -19z"/>
<path d="M1075 2506 c-11 -11 -20 -27 -22 -36 -1 -8 -7 -16 -13 -18 -15 -5
-40 -32 -40 -43 0 -13 48 36 79 79 27 38 25 48 -4 18z"/>
<path d="M920 2506 c0 -8 5 -18 10 -21 6 -3 10 1 10 9 0 8 -4 18 -10 21 -5 3
-10 -1 -10 -9z"/>
<path d="M4100 2498 c1 -7 18 -32 39 -55 35 -39 38 -40 49 -22 16 26 15 47 -1
25 -13 -17 -15 -16 -40 14 -15 17 -27 36 -27 41 0 5 -4 9 -10 9 -5 0 -10 -6
-10 -12z"/>
<path d="M4220 2428 c-16 -29 -30 -56 -30 -60 0 -17 9 -6 30 36 11 24 27 47
35 50 17 6 20 26 5 26 -5 0 -23 -24 -40 -52z"/>
<path d="M3680 2458 c0 -32 43 -133 81 -188 81 -118 178 -180 355 -225 6 -2
14 -21 18 -43 3 -25 13 -42 23 -47 15 -5 16 -4 6 6 -7 7 -13 32 -13 54 l0 42
-57 12 c-84 18 -170 59 -233 110 -80 65 -116 117 -155 229 -14 37 -24 59 -25
50z"/>
<path d="M970 2448 c0 -9 5 -20 10 -23 13 -8 13 5 0 25 -8 13 -10 13 -10 -2z"/>
<path d="M3375 1751 c-3 -5 -7 -346 -9 -758 l-3 -748 -807 -3 -806 -2 -1 672
c-1 612 -3 824 -8 838 -1 3 -6 -5 -12 -18 -5 -14 -6 -315 -2 -768 l6 -744 829
0 828 0 0 770 c0 424 -2 770 -4 770 -3 0 -7 -4 -11 -9z"/>
<path d="M225 985 c0 -424 1 -595 2 -382 2 214 2 560 0 770 -1 210 -2 36 -2
-388z"/>
<path d="M722 1730 c0 -14 2 -19 5 -12 2 6 2 18 0 25 -3 6 -5 1 -5 -13z"/>
<path d="M792 1725 c0 -16 2 -22 5 -12 2 9 2 23 0 30 -3 6 -5 -1 -5 -18z"/>
<path d="M832 1730 c0 -14 2 -19 5 -12 2 6 2 18 0 25 -3 6 -5 1 -5 -13z"/>
<path d="M4188 1684 c-1 -36 0 -68 5 -71 4 -2 7 28 7 66 0 39 -2 71 -4 71 -2
0 -6 -30 -8 -66z"/>
<path d="M4253 1690 c0 -36 2 -50 4 -32 2 17 2 47 0 65 -2 17 -4 3 -4 -33z"/>
<path d="M4292 1720 c0 -19 2 -27 5 -17 2 9 2 25 0 35 -3 9 -5 1 -5 -18z"/>
<path d="M4451 1734 c0 -11 3 -14 6 -6 3 7 2 16 -1 19 -3 4 -6 -2 -5 -13z"/>
<path d="M4903 1715 c0 -22 2 -30 4 -17 2 12 2 30 0 40 -3 9 -5 -1 -4 -23z"/>
<path d="M832 1675 c0 -16 2 -22 5 -12 2 9 2 23 0 30 -3 6 -5 -1 -5 -18z"/>
<path d="M4282 1640 c0 -14 2 -19 5 -12 2 6 2 18 0 25 -3 6 -5 1 -5 -13z"/>
<path d="M4353 1585 c0 -22 2 -30 4 -17 2 12 2 30 0 40 -3 9 -5 -1 -4 -23z"/>
<path d="M4441 1594 c0 -11 3 -14 6 -6 3 7 2 16 -1 19 -3 4 -6 -2 -5 -13z"/>
<path d="M4182 1575 c0 -16 2 -22 5 -12 2 9 2 23 0 30 -3 6 -5 -1 -5 -18z"/>
<path d="M4242 1580 c0 -14 2 -19 5 -12 2 6 2 18 0 25 -3 6 -5 1 -5 -13z"/>
<path d="M2491 1560 c-7 -21 -18 -29 -48 -34 -66 -12 -200 -83 -249 -132 -81
-81 -141 -193 -165 -306 -9 -38 -18 -54 -39 -66 -39 -22 -37 -66 3 -70 17 -2
27 -9 27 -20 1 -36 51 -157 91 -218 72 -112 190 -197 320 -231 l65 -17 12 -51
c7 -28 12 -62 12 -75 0 -37 23 -75 45 -75 26 0 44 31 45 74 0 18 8 55 17 82
17 46 20 49 68 60 150 34 276 137 352 287 24 46 45 104 49 133 5 41 11 52 30
60 30 11 32 49 4 56 -13 4 -21 17 -26 42 -42 251 -157 389 -382 458 -73 22
-92 32 -96 49 -5 20 -12 22 -66 21 -55 0 -60 -2 -69 -27z m119 -14 c0 -20 9
-24 76 -40 135 -32 235 -98 304 -199 49 -73 78 -151 88 -235 6 -59 10 -67 30
-70 30 -5 28 -22 -3 -22 -22 0 -25 -4 -25 -35 0 -46 -40 -151 -83 -217 -75
-115 -197 -202 -321 -228 -50 -10 -55 -14 -61 -43 -4 -18 -13 -39 -20 -47 -7
-8 -13 -37 -13 -63 1 -60 -14 -79 -31 -38 -7 16 -12 42 -10 58 1 15 -3 41 -10
56 -6 16 -11 36 -11 46 0 12 -14 20 -55 28 -131 28 -273 130 -344 247 -38 64
-81 175 -81 211 0 22 -3 24 -30 19 -23 -5 -30 -3 -30 9 0 9 11 17 27 19 24 3
28 10 45 82 34 145 125 283 233 351 47 31 137 67 198 80 21 4 27 11 27 30 0
29 24 34 34 8 6 -15 9 -15 28 5 25 24 38 20 38 -12z"/>
<path d="M2530 1510 c0 -5 -11 -10 -25 -10 -14 0 -25 -3 -25 -7 0 -5 27 -6 59
-5 47 3 59 7 54 18 -6 16 -63 20 -63 4z"/>
<path d="M2540 1174 c0 -1 6 -7 14 -13 10 -8 16 -8 24 2 9 10 6 13 -13 13 -14
0 -25 -1 -25 -2z"/>
<path d="M2441 1159 c17 -11 79 -12 79 -1 0 4 -21 8 -46 8 -30 1 -41 -2 -33
-7z"/>
<path d="M2600 1152 c0 -13 54 -83 89 -116 17 -17 31 -35 31 -40 0 -6 -17 -30
-38 -53 -20 -23 -52 -70 -70 -105 -35 -68 -18 -52 26 22 14 25 41 62 59 83 18
20 33 43 33 51 0 7 -20 35 -45 62 -25 26 -51 61 -57 76 -12 27 -28 38 -28 20z"/>
<path d="M2423 1124 c2 -2 20 -7 41 -11 l38 -8 -41 -47 c-23 -25 -41 -52 -41
-60 0 -7 22 -40 49 -73 26 -34 58 -80 70 -104 12 -24 25 -41 28 -38 8 8 -44
98 -76 132 -72 78 -73 91 -2 160 23 21 41 42 41 45 0 3 -25 6 -56 6 -30 1 -53
0 -51 -2z"/>
<path d="M2538 1102 c-10 -15 -31 -44 -49 -64 l-32 -37 44 -60 c24 -32 50 -68
57 -78 12 -16 12 -16 8 7 -3 14 -6 36 -6 50 -1 22 -2 23 -11 7 -9 -16 -14 -13
-46 28 l-35 47 41 40 41 41 1 -49 c1 -27 0 -57 -1 -68 -1 -10 3 -15 8 -12 9 5
7 164 -2 173 -1 1 -9 -10 -18 -25z"/>
<path d="M2587 1050 c7 -97 13 -117 13 -44 0 28 4 54 9 60 5 5 1 21 -10 39
l-19 30 7 -85z"/>
<path d="M2630 1045 c8 -11 21 -26 28 -33 17 -18 15 -29 -5 -41 -10 -5 -15
-12 -12 -15 3 -3 15 4 27 17 l22 23 -37 35 c-20 19 -31 25 -23 14z"/>
<path d="M2072 990 c0 -14 2 -19 5 -12 2 6 2 18 0 25 -3 6 -5 1 -5 -13z"/>
<path d="M2588 905 c-3 -22 -8 -48 -12 -57 -5 -10 -4 -18 0 -17 11 0 64 109
53 109 -4 0 -10 -8 -14 -17 -7 -17 -8 -16 -15 2 -6 16 -8 12 -12 -20z"/>
<path d="M2540 490 c0 -5 11 -10 24 -10 14 0 28 5 31 10 4 6 -7 10 -24 10 -17
0 -31 -4 -31 -10z"/>
<path d="M722 1520 c0 -19 2 -27 5 -17 2 9 2 25 0 35 -3 9 -5 1 -5 -18z"/>
<path d="M4432 1530 c0 -14 2 -19 5 -12 2 6 2 18 0 25 -3 6 -5 1 -5 -13z"/>
<path d="M4171 1530 c-1 -9 -15 -42 -32 -74 -16 -33 -24 -54 -16 -47 20 16 59
109 53 124 -2 7 -5 6 -5 -3z"/>
<path d="M4903 1455 c0 -44 2 -61 4 -37 2 23 2 59 0 80 -2 20 -4 1 -4 -43z"/>
<path d="M4421 1474 c0 -11 3 -14 6 -6 3 7 2 16 -1 19 -3 4 -6 -2 -5 -13z"/>
<path d="M4236 1395 c-9 -26 -7 -32 5 -12 6 10 9 21 6 23 -2 3 -7 -2 -11 -11z"/>
<path d="M4396 1395 c-3 -9 -6 -22 -5 -28 0 -7 5 -1 10 12 5 13 8 26 5 28 -2
2 -6 -3 -10 -12z"/>
<path d="M791 1384 c0 -11 3 -14 6 -6 3 7 2 16 -1 19 -3 4 -6 -2 -5 -13z"/>
<path d="M4090 1383 c0 -20 -35 -24 -97 -12 -55 11 -67 10 -100 -5 -43 -19
-106 -77 -172 -157 -29 -36 -16 -25 40 32 104 107 134 123 208 116 31 -3 63
-8 72 -12 18 -7 68 29 57 41 -5 4 -8 3 -8 -3z"/>
<path d="M1049 1367 c11 -14 26 -16 85 -11 69 6 72 5 125 -30 65 -44 77 -47
25 -5 -59 48 -91 58 -154 49 -34 -5 -63 -3 -75 3 -18 9 -19 8 -6 -6z"/>
<path d="M927 1314 c15 -30 29 -51 31 -46 3 9 -46 102 -54 102 -2 0 8 -25 23
-56z"/>
<path d="M1011 1346 c-8 -10 -9 -16 -1 -21 5 -3 13 1 16 10 9 22 -1 29 -15 11z"/>
<path d="M960 1330 c6 -11 16 -20 22 -20 6 0 3 9 -7 20 -10 11 -20 20 -22 20
-2 0 1 -9 7 -20z"/>
<path d="M4125 1340 c-3 -5 -13 -6 -23 -3 -15 6 -15 5 -3 -10 18 -22 28 -21
34 3 5 21 2 26 -8 10z"/>
<path d="M801 1314 c0 -11 3 -14 6 -6 3 7 2 16 -1 19 -3 4 -6 -2 -5 -13z"/>
<path d="M901 1300 c0 -8 4 -24 9 -35 5 -13 9 -14 9 -5 0 8 -4 24 -9 35 -5 13
-9 14 -9 5z"/>
<path d="M4145 1300 c-3 -5 -2 -17 3 -26 8 -15 10 -15 15 0 4 9 2 16 -4 16 -6
0 -7 5 -4 10 3 6 4 10 1 10 -3 0 -8 -4 -11 -10z"/>
<path d="M4186 1258 c-13 -41 -15 -59 -6 -78 10 -25 10 -25 5 3 -3 15 1 48 10
74 9 25 14 48 11 50 -2 2 -11 -20 -20 -49z"/>
<path d="M4253 1253 c-3 -10 -8 -22 -11 -27 -3 -5 0 -6 5 -3 11 7 25 47 17 47
-3 0 -7 -8 -11 -17z"/>
<path d="M940 1243 c-1 -5 -3 -26 -6 -48 -4 -22 -3 -37 0 -34 9 8 19 89 11 89
-3 0 -5 -3 -5 -7z"/>
<path d="M831 1224 c0 -11 3 -14 6 -6 3 7 2 16 -1 19 -3 4 -6 -2 -5 -13z"/>
<path d="M3764 1213 c-4 -15 -3 -48 3 -75 5 -26 7 -52 4 -57 -6 -9 -86 -51
-121 -64 -13 -5 -12 -6 1 -6 9 -1 43 13 75 30 l60 30 -1 85 c0 84 -9 107 -21
57z"/>
<path d="M890 1216 c0 -8 4 -17 9 -20 5 -4 7 3 4 14 -6 23 -13 26 -13 6z"/>
<path d="M4212 1210 c0 -14 2 -19 5 -12 2 6 2 18 0 25 -3 6 -5 1 -5 -13z"/>
<path d="M1338 1183 c5 -59 10 -63 11 -10 1 26 -3 47 -7 47 -4 0 -6 -17 -4
-37z"/>
<path d="M4242 1190 c0 -14 2 -19 5 -12 2 6 2 18 0 25 -3 6 -5 1 -5 -13z"/>
<path d="M4271 1184 c0 -11 3 -14 6 -6 3 7 2 16 -1 19 -3 4 -6 -2 -5 -13z"/>
<path d="M890 1155 c0 -18 19 -40 26 -32 4 4 0 15 -9 24 -9 10 -17 13 -17 8z"/>
<path d="M4227 1146 c6 -10 9 -28 6 -40 -3 -17 -2 -17 7 3 9 20 7 28 -6 40
-15 15 -16 14 -7 -3z"/>
<path d="M4163 1112 c-8 -20 -25 -50 -36 -67 -11 -16 -17 -27 -13 -23 5 4 16
-2 26 -14 11 -13 21 -18 30 -13 9 6 5 12 -16 23 -16 9 -24 17 -16 19 6 3 12
11 12 19 0 8 5 14 10 14 6 0 9 3 8 8 -4 21 15 60 28 55 8 -3 14 -3 14 0 0 3
-7 8 -16 11 -11 4 -20 -5 -31 -32z"/>
<path d="M845 1130 c-11 -17 5 -32 21 -19 7 6 11 15 8 20 -7 12 -21 11 -29 -1z"/>
<path d="M3620 1130 c-9 -6 -10 -10 -3 -10 6 0 15 5 18 10 8 12 4 12 -15 0z"/>
<path d="M934 1111 c0 -11 8 -22 17 -24 15 -4 16 -1 7 19 -13 29 -24 31 -24 5z"/>
<path d="M4903 1085 c0 -27 2 -38 4 -22 2 15 2 37 0 50 -2 12 -4 0 -4 -28z"/>
<path d="M1323 1090 c-6 -17 -7 -32 -3 -35 8 -5 26 53 18 60 -2 2 -9 -9 -15
-25z"/>
<path d="M4193 1095 c-10 -10 -9 -16 2 -25 13 -10 15 -8 15 14 0 30 -1 30 -17
11z"/>
<path d="M905 1090 c-3 -5 -1 -10 4 -10 6 0 11 5 11 10 0 6 -2 10 -4 10 -3 0
-8 -4 -11 -10z"/>
<path d="M936 1061 c-11 -4 -15 -10 -10 -13 10 -6 54 8 54 17 0 7 -21 5 -44
-4z"/>
<path d="M3800 1059 c0 -22 16 -42 29 -38 8 3 5 13 -8 28 -13 15 -21 19 -21
10z"/>
<path d="M980 1034 c0 -8 5 -12 10 -9 6 3 10 10 10 16 0 5 -4 9 -10 9 -5 0
-10 -7 -10 -16z"/>
<path d="M4160 1046 c0 -2 7 -9 15 -16 12 -10 15 -10 15 4 0 9 -7 16 -15 16
-8 0 -15 -2 -15 -4z"/>
<path d="M1280 1025 c-7 -9 -10 -18 -6 -22 3 -3 6 -1 6 5 0 7 7 12 15 12 8 0
15 5 15 10 0 15 -16 12 -30 -5z"/>
<path d="M3760 1026 c-8 -8 -28 -22 -45 -30 -22 -12 -25 -16 -11 -16 10 0 34
14 53 30 18 17 30 30 25 30 -4 0 -14 -6 -22 -14z"/>
<path d="M940 1021 c0 -5 7 -11 15 -15 8 -3 15 -1 15 3 0 5 -7 11 -15 15 -8 3
-15 1 -15 -3z"/>
<path d="M990 1000 c-18 -15 -20 -18 -6 -13 15 5 17 3 11 -8 -5 -8 1 -5 13 5
40 35 24 49 -18 16z"/>
<path d="M4072 1004 c-18 -12 -20 -19 -12 -35 6 -10 16 -19 22 -19 6 0 5 6 -3
16 -11 14 -10 18 6 30 26 19 14 27 -13 8z"/>
<path d="M3820 990 c-12 -8 -9 -10 12 -10 15 0 30 5 33 10 8 13 -25 13 -45 0z"/>
<path d="M1043 973 c-3 -10 -8 -22 -10 -28 -3 -5 4 0 15 13 24 26 35 28 52 7
10 -12 10 -19 2 -27 -7 -7 -12 -16 -12 -21 0 -5 7 -2 15 7 21 20 19 43 -4 56
-29 15 -51 12 -58 -7z"/>
<path d="M4006 977 c-16 -12 -16 -14 -2 -26 14 -12 16 -11 16 7 0 11 6 23 13
25 6 3 7 6 1 6 -5 1 -18 -5 -28 -12z"/>
<path d="M4100 975 c7 -9 15 -13 17 -11 7 7 -7 26 -19 26 -6 0 -6 -6 2 -15z"/>
<path d="M1235 970 c3 -5 8 -10 11 -10 2 0 4 5 4 10 0 6 -5 10 -11 10 -5 0 -7
-4 -4 -10z"/>
<path d="M1005 960 c-3 -5 -1 -10 4 -10 6 0 11 5 11 10 0 6 -2 10 -4 10 -3 0
-8 -4 -11 -10z"/>
<path d="M3726 951 c-4 -5 3 -7 14 -4 23 6 26 13 6 13 -8 0 -17 -4 -20 -9z"/>
<path d="M3865 940 c-38 -25 -29 -25 26 0 27 12 36 20 24 20 -11 0 -33 -9 -50
-20z"/>
<path d="M1068 943 c7 -3 16 -2 19 1 4 3 -2 6 -13 5 -11 0 -14 -3 -6 -6z"/>
<path d="M1448 943 c7 -3 16 -2 19 1 4 3 -2 6 -13 5 -11 0 -14 -3 -6 -6z"/>
<path d="M4040 930 c6 -11 16 -20 22 -20 6 0 3 9 -7 20 -10 11 -20 20 -22 20
-2 0 1 -9 7 -20z"/>
<path d="M3910 925 c-14 -8 -20 -14 -14 -15 5 0 19 7 30 15 24 18 16 19 -16 0z"/>
<path d="M4898 584 c-2 -196 0 -358 5 -361 4 -2 7 158 7 356 0 199 -2 361 -5
361 -2 0 -6 -160 -7 -356z"/>
<path d="M1057 919 c7 -7 15 -10 18 -7 3 3 -2 9 -12 12 -14 6 -15 5 -6 -5z"/>
<path d="M3800 910 c-8 -5 -10 -10 -5 -10 6 0 17 5 25 10 8 5 11 10 5 10 -5 0
-17 -5 -25 -10z"/>
<path d="M3966 889 c-47 -35 -36 -38 18 -5 21 13 35 26 30 29 -5 3 -27 -8 -48
-24z"/>
<path d="M1375 890 c11 -5 27 -9 35 -9 9 0 8 4 -5 9 -11 5 -27 9 -35 9 -9 0
-8 -4 5 -9z"/>
<path d="M3690 874 l-45 -14 40 6 c22 3 47 10 55 15 21 12 3 10 -50 -7z"/>
<path d="M1443 873 c9 -2 23 -2 30 0 6 3 -1 5 -18 5 -16 0 -22 -2 -12 -5z"/>
<path d="M1508 863 c12 -2 30 -2 40 0 9 3 -1 5 -23 4 -22 0 -30 -2 -17 -4z"/>
<path d="M3985 860 c-3 -5 -1 -10 4 -10 6 0 11 5 11 10 0 6 -2 10 -4 10 -3 0
-8 -4 -11 -10z"/>
<path d="M3618 853 c7 -3 16 -2 19 1 4 3 -2 6 -13 5 -11 0 -14 -3 -6 -6z"/>
<path d="M3553 843 c9 -2 23 -2 30 0 6 3 -1 5 -18 5 -16 0 -22 -2 -12 -5z"/>
<path d="M3885 840 c-3 -6 1 -7 9 -4 18 7 21 14 7 14 -6 0 -13 -4 -16 -10z"/>
<path d="M3845 820 c-3 -6 1 -7 9 -4 18 7 21 14 7 14 -6 0 -13 -4 -16 -10z"/>
<path d="M3775 790 c-22 -10 -33 -19 -25 -19 8 0 31 8 50 19 45 24 28 24 -25
0z"/>
<path d="M1208 223 c23 -2 59 -2 80 0 20 2 1 4 -43 4 -44 0 -61 -2 -37 -4z"/>
<path d="M1408 223 c29 -2 74 -2 100 0 26 2 2 3 -53 3 -55 0 -76 -1 -47 -3z"/>
<path d="M3528 223 c12 -2 32 -2 45 0 12 2 2 4 -23 4 -25 0 -35 -2 -22 -4z"/>
<path d="M3692 223 c48 -2 129 -2 180 0 51 1 12 3 -87 3 -99 0 -141 -2 -93 -3z"/>
</g>
</svg>
