<?xml version="1.0" standalone="no"?>
<!DOCTYPE svg PUBLIC "-//W3C//DTD SVG 20010904//EN"
 "http://www.w3.org/TR/2001/REC-SVG-20010904/DTD/svg10.dtd">
<svg version="1.0" xmlns="http://www.w3.org/2000/svg"
 width="512.000000pt" height="512.000000pt" viewBox="0 0 512.000000 512.000000"
 preserveAspectRatio="xMidYMid meet">
<metadata>
Created by potrace 1.16, written by Peter Selinger 2001-2019
</metadata>
<g transform="translate(0.000000,512.000000) scale(0.100000,-0.100000)"
fill="#000000" stroke="none">
<path d="M2503 4637 c-24 -5 -43 -14 -43 -19 0 -6 8 -7 18 -3 9 3 47 9 85 12
l67 6 0 -37 0 -36 59 0 c46 0 61 4 72 19 10 14 29 21 64 23 45 3 50 1 53 -19
3 -20 -1 -22 -60 -26 l-63 -3 60 -2 60 -2 -3 -140 -4 -140 98 0 c71 0 95 3 87
11 -6 6 -44 12 -84 12 l-74 2 0 70 c0 70 21 153 40 153 5 0 11 5 13 11 7 21
-17 11 -39 -16 l-22 -28 7 47 c5 30 3 55 -4 69 -11 19 -18 21 -70 17 -36 -3
-64 -10 -74 -21 -11 -10 -33 -17 -57 -17 -34 0 -39 3 -39 23 0 13 -5 28 -12
35 -14 14 -75 14 -135 -1z"/>
<path d="M2258 4633 c-9 -2 -21 -18 -27 -34 -8 -23 -8 -30 2 -26 6 2 13 9 13
15 1 7 2 17 3 22 0 6 21 10 46 10 34 0 47 -5 55 -19 12 -24 6 -28 -43 -26 -21
1 -40 -2 -43 -7 -3 -4 44 -8 104 -8 105 0 110 1 105 20 -3 11 -10 20 -15 20
-5 0 -6 -4 -3 -10 4 -6 -8 -10 -29 -10 -25 0 -43 8 -64 30 -29 29 -58 35 -104
23z"/>
<path d="M2520 4560 c-31 -7 -29 -8 22 -9 31 0 60 4 63 9 7 11 -31 11 -85 0z"/>
<path d="M2203 4544 c9 -3 17 -10 17 -15 0 -6 3 -8 8 -6 4 3 7 -13 7 -34 1
-21 -2 -39 -6 -39 -4 0 -5 -36 -2 -80 l6 -80 -84 -1 -84 -2 88 -10 c108 -12
113 -31 8 -35 -94 -4 -83 -22 13 -22 l74 0 6 43 c3 23 4 96 1 162 l-5 120 -33
2 c-17 1 -24 -1 -14 -3z"/>
<path d="M2370 4530 c0 -13 11 -13 30 0 12 8 11 10 -7 10 -13 0 -23 -4 -23
-10z"/>
<path d="M2445 4530 c4 -6 11 -8 16 -5 14 9 11 15 -7 15 -8 0 -12 -5 -9 -10z"/>
<path d="M2740 4515 c0 -9 6 -12 15 -9 8 4 15 7 15 9 0 2 -7 5 -15 9 -9 3 -15
0 -15 -9z"/>
<path d="M3966 4519 c-27 -4 -54 -13 -60 -19 -8 -9 -5 -10 14 -5 92 29 256
-13 327 -82 25 -24 47 -43 49 -43 13 0 -22 43 -62 78 -64 55 -176 84 -268 71z"/>
<path d="M2300 4510 c0 -5 4 -10 9 -10 6 0 13 5 16 10 3 6 -1 10 -9 10 -9 0
-16 -4 -16 -10z"/>
<path d="M2377 4504 c7 -3 9 -12 6 -21 -6 -15 8 -16 129 -10 86 4 139 2 145
-4 13 -13 85 -8 90 6 2 6 -59 11 -169 13 -96 1 -177 7 -182 12 -6 6 -15 10
-20 9 -6 0 -6 -3 1 -5z"/>
<path d="M1026 4484 c-55 -11 -144 -60 -131 -72 3 -4 9 -2 13 4 12 20 125 53
196 58 73 5 92 12 55 20 -30 7 -62 4 -133 -10z"/>
<path d="M4413 4440 c-34 -32 -106 -94 -159 -137 -54 -43 -107 -87 -119 -98
-12 -11 -51 -48 -88 -83 -37 -35 -67 -67 -67 -72 0 -5 -4 -10 -8 -12 -5 -1
-23 -25 -42 -53 -33 -50 -147 -165 -163 -165 -4 0 -3 9 3 21 15 28 21 154 6
139 -6 -6 -12 -42 -14 -81 -4 -70 -5 -71 -61 -132 -31 -34 -67 -75 -79 -91
-20 -26 -22 -26 -22 -8 0 11 -4 24 -10 27 -6 4 -10 -8 -10 -30 0 -22 -6 -38
-15 -41 -8 -4 -15 -13 -15 -21 0 -25 -101 -124 -124 -121 -20 3 -21 11 -27
193 -4 105 -7 297 -8 428 l-1 237 90 0 c83 0 90 -1 90 -20 0 -28 5 -26 58 21
26 23 84 59 130 81 45 21 82 41 82 44 0 21 -136 -37 -198 -84 -32 -24 -41 -26
-150 -26 l-117 -1 -3 -401 c-1 -221 1 -419 6 -440 5 -27 17 -45 38 -59 29 -20
47 -21 435 -24 222 -1 411 0 420 4 9 3 29 34 45 68 16 34 34 65 39 69 6 5 3 8
-6 8 -9 0 -21 -11 -27 -25 -6 -14 -16 -25 -21 -25 -6 0 -16 -18 -22 -40 l-12
-40 -317 0 c-312 0 -500 7 -500 19 0 3 13 13 29 22 15 9 50 44 77 77 32 40 57
61 71 61 28 1 143 99 143 122 0 6 -28 -13 -62 -43 -72 -62 -88 -73 -88 -60 0
19 95 115 190 192 53 43 213 190 356 327 235 226 322 318 313 328 -2 2 -32
-23 -66 -55z"/>
<path d="M619 4473 c33 -60 150 -177 326 -322 187 -156 565 -524 551 -538 -8
-8 -47 17 -41 27 3 5 1 11 -4 14 -10 7 -9 -13 2 -31 5 -7 -1 -13 -15 -16 -13
-2 -1 -5 26 -6 45 -1 53 -6 113 -61 35 -33 71 -60 81 -60 12 1 9 7 -13 22 -59
43 -370 370 -454 479 -64 82 -269 274 -410 384 -28 22 -75 59 -103 83 -55 45
-75 53 -59 25z m342 -300 c13 -16 12 -17 -3 -4 -10 7 -18 15 -18 17 0 8 8 3
21 -13z"/>
<path d="M1220 4480 c0 -7 7 -10 14 -7 10 4 13 1 9 -9 -4 -10 3 -14 26 -14 50
0 112 -30 188 -92 68 -55 100 -67 86 -33 -4 13 10 15 85 15 l90 0 -4 -422 -4
-423 -22 -17 c-36 -27 -77 -29 -477 -26 l-375 3 -23 58 c-25 62 -53 110 -60
103 -5 -4 56 -155 70 -174 15 -20 820 -16 859 4 58 30 57 20 58 469 0 227 -3
420 -6 429 -6 15 -21 17 -113 15 -99 -1 -111 1 -161 26 -30 15 -59 33 -65 40
-12 14 -97 50 -142 60 -23 4 -33 3 -33 -5z"/>
<path d="M2798 4427 c-32 -50 -134 -197 -149 -214 -5 -7 -19 -13 -30 -13 -15
0 -18 5 -13 24 3 13 1 27 -5 30 -15 10 -81 -4 -81 -16 0 -6 11 -7 26 -4 16 4
23 3 19 -3 -3 -6 -23 -15 -43 -21 -21 -5 -47 -18 -59 -29 -11 -11 -25 -17 -29
-13 -5 4 -3 -1 5 -10 8 -11 9 -22 3 -35 -7 -13 -3 -28 14 -55 14 -21 29 -38
34 -38 6 0 10 -7 10 -15 0 -9 12 -18 30 -22 24 -4 28 -8 19 -19 -9 -11 -8 -14
1 -14 6 0 14 9 17 20 3 11 9 20 14 20 11 0 11 -3 -1 -34 -8 -21 -6 -26 6 -26
8 0 13 4 10 9 -4 5 -2 21 4 36 8 21 15 25 33 20 12 -3 18 -3 12 2 -5 4 -11 13
-12 18 -1 6 -3 17 -5 25 -1 8 4 15 12 15 8 0 14 -6 12 -12 -3 -19 5 -16 32 13
l24 27 27 -22 c31 -24 45 -27 45 -8 0 7 -17 19 -37 28 l-37 16 52 55 c29 30
52 59 52 64 0 16 -101 -91 -117 -123 -14 -31 -43 -46 -43 -23 0 6 5 10 10 10
6 0 10 16 10 36 0 29 3 34 18 30 11 -4 22 2 30 15 13 21 7 43 -6 24 -4 -6 -19
-16 -34 -22 -22 -10 -27 -10 -25 0 1 6 4 14 7 17 20 18 161 235 166 255 9 34
3 31 -28 -18z m-221 -221 c-19 -15 -8 -30 15 -21 13 5 54 -30 52 -44 -1 -3 1
-11 3 -17 9 -24 -46 -63 -96 -70 -51 -7 -62 0 -68 41 -2 11 -7 21 -12 23 -16
6 1 52 20 52 10 0 21 5 24 10 4 6 21 17 38 24 41 18 46 19 24 2z m41 -174 c2
-7 -6 -13 -20 -13 -12 -1 -33 -2 -45 -3 -35 -2 -28 18 9 25 41 8 51 6 56 -9z"/>
<path d="M2545 4170 c3 -5 8 -10 11 -10 2 0 4 5 4 10 0 6 -5 10 -11 10 -5 0
-7 -4 -4 -10z"/>
<path d="M2496 4145 c-3 -8 -1 -15 4 -15 13 0 22 18 11 24 -5 3 -11 -1 -15 -9z"/>
<path d="M2557 4113 c-4 -3 -7 -16 -6 -27 0 -19 1 -19 10 3 10 24 8 36 -4 24z"/>
<path d="M3851 4451 c-20 -20 -39 -87 -27 -98 3 -3 7 0 9 8 17 59 25 75 45 85
34 17 38 24 14 24 -12 0 -31 -9 -41 -19z"/>
<path d="M3934 4447 l-27 -24 66 -7 c37 -3 77 -10 90 -15 12 -4 36 -11 52 -15
24 -5 26 -4 13 4 -32 19 -112 40 -156 40 -26 0 -41 4 -37 10 9 14 59 12 128
-4 41 -10 57 -10 54 -2 -2 6 -19 12 -38 14 -19 2 -38 8 -43 13 -19 17 -74 10
-102 -14z"/>
<path d="M1183 4444 c4 -7 3 -15 -3 -19 -5 -3 -10 -2 -10 4 0 6 -26 9 -62 7
-75 -4 -103 -10 -134 -30 -21 -14 -23 -14 -27 2 -3 15 -5 15 -12 -3 -5 -11
-15 -25 -23 -31 -9 -7 -12 -16 -7 -24 5 -9 4 -11 -3 -6 -14 8 -14 -1 -2 -29 6
-15 9 -16 9 -4 2 40 100 92 201 105 45 6 55 4 67 -11 7 -11 13 -15 13 -9 0 5
4 3 9 -5 5 -7 14 -10 20 -7 14 9 15 66 1 66 -5 0 -10 -7 -10 -16 0 -14 -3 -13
-17 3 -10 10 -14 14 -10 7z"/>
<path d="M2290 4453 c0 -6 17 -37 39 -69 58 -90 111 -191 103 -199 -4 -5 -2
-5 5 -1 7 4 10 14 6 24 -14 42 -77 159 -105 196 -45 58 -48 62 -48 49z"/>
<path d="M2440 4430 c0 -5 5 -10 10 -10 6 0 10 5 10 10 0 6 -4 10 -10 10 -5 0
-10 -4 -10 -10z"/>
<path d="M2920 4430 c-9 -6 -10 -10 -3 -10 6 0 15 5 18 10 8 12 4 12 -15 0z"/>
<path d="M3861 4379 l-22 -50 20 -34 19 -33 -71 -27 c-40 -15 -96 -29 -125
-32 -50 -6 -55 -4 -78 23 -14 18 -23 23 -23 14 0 -26 36 -60 64 -60 15 0 24
-4 20 -10 -8 -13 -11 -14 73 15 41 14 85 25 99 25 22 0 24 2 13 15 -11 13 -10
14 1 10 8 -3 25 4 38 16 l23 21 -26 27 c-31 32 -32 47 -6 86 22 33 25 45 11
45 -5 0 -18 -23 -30 -51z"/>
<path d="M4130 4420 c0 -9 39 -25 46 -18 2 3 -7 10 -21 16 -14 6 -25 7 -25 2z"/>
<path d="M1260 4417 c-1 -1 -3 -20 -6 -42 -6 -42 -34 -86 -34 -52 0 9 -4 17
-9 17 -14 0 -23 -18 -12 -24 5 -3 12 -21 15 -40 6 -34 67 -100 114 -125 31
-16 52 -63 52 -113 0 -31 3 -39 10 -28 5 8 10 32 10 53 0 46 11 47 46 2 25
-33 44 -45 44 -26 0 20 -48 76 -81 95 -87 50 -122 78 -108 87 12 7 12 9 0 9
-8 0 -22 7 -32 16 -17 15 -17 19 -3 52 18 44 29 52 76 52 45 0 86 -15 115 -42
13 -12 25 -19 29 -16 16 17 -104 94 -178 113 -26 7 -48 12 -48 12z"/>
<path d="M2460 4407 c0 -9 58 -138 65 -145 4 -4 5 7 1 23 -11 46 -47 125 -57
125 -5 0 -9 -1 -9 -3z"/>
<path d="M2635 4359 c-24 -67 -26 -77 -14 -85 5 -3 9 2 9 11 0 10 7 32 16 50
8 19 14 44 12 56 -2 17 -8 9 -23 -32z"/>
<path d="M3740 4367 c-58 -24 -149 -85 -150 -101 0 -5 3 -6 7 -3 3 4 12 2 20
-5 11 -8 12 -7 8 5 -8 20 45 60 118 88 31 12 57 26 57 30 0 11 4 12 -60 -14z"/>
<path d="M4160 4379 c-13 -9 -13 -10 0 -6 8 2 25 0 37 -4 17 -6 21 -5 16 6 -6
17 -32 19 -53 4z"/>
<path d="M855 4371 c-3 -5 -1 -12 5 -16 5 -3 10 1 10 9 0 18 -6 21 -15 7z"/>
<path d="M3912 4368 c-7 -7 -12 -16 -12 -20 0 -12 28 -10 36 3 10 17 -10 31
-24 17z"/>
<path d="M1170 4360 c0 -5 5 -10 11 -10 5 0 7 5 4 10 -3 6 -8 10 -11 10 -2 0
-4 -4 -4 -10z"/>
<path d="M4208 4343 c6 -2 9 -9 6 -15 -4 -6 2 -5 15 1 28 16 26 21 -6 20 -16
0 -22 -3 -15 -6z"/>
<path d="M4128 4314 c-3 -3 -16 -6 -29 -8 -78 -10 -119 -19 -119 -28 0 -5 4
-6 10 -3 8 5 78 12 136 15 13 0 28 30 15 30 -4 0 -10 -3 -13 -6z"/>
<path d="M942 4292 c25 -32 36 -41 41 -35 11 10 -12 40 -33 46 -19 5 -20 3 -8
-11z"/>
<path d="M2410 4307 c0 -4 11 -25 25 -45 16 -24 25 -31 25 -19 0 9 -3 17 -8
17 -4 0 -15 12 -24 28 -10 15 -18 23 -18 19z"/>
<path d="M4350 4305 c0 -4 21 -31 48 -59 120 -132 125 -355 12 -563 -28 -52
-27 -69 2 -35 18 21 73 152 87 207 32 121 -4 312 -74 393 -23 28 -75 66 -75
57z"/>
<path d="M1092 4284 c-12 -8 -22 -11 -22 -7 0 5 -16 9 -35 10 -19 1 -35 -3
-35 -8 0 -5 6 -9 13 -9 8 0 7 -3 -3 -10 -10 -6 -12 -12 -4 -20 7 -7 16 -4 31
9 18 17 22 18 27 6 7 -19 26 -19 26 -1 0 7 7 19 15 26 9 8 15 9 15 2 0 -6 -4
-13 -10 -17 -5 -3 -7 -12 -4 -20 7 -17 64 -11 76 8 9 14 0 25 -10 12 -13 -18
-42 -14 -42 6 0 26 -13 30 -38 13z"/>
<path d="M1145 4280 c3 -5 8 -10 11 -10 2 0 4 5 4 10 0 6 -5 10 -11 10 -5 0
-7 -4 -4 -10z"/>
<path d="M3423 4255 c0 -22 2 -30 4 -17 2 12 2 30 0 40 -3 9 -5 -1 -4 -23z"/>
<path d="M4114 4255 c21 -16 32 -13 21 4 -3 6 -14 11 -23 11 -15 -1 -15 -2 2
-15z"/>
<path d="M2870 4246 c0 -13 14 -16 80 -16 l79 0 4 -122 3 -123 2 127 2 126
-27 6 c-16 3 -49 5 -75 5 -26 0 -52 2 -58 6 -5 3 -10 -1 -10 -9z"/>
<path d="M3055 4195 c-8 -79 -3 -265 7 -265 11 0 15 316 5 327 -3 2 -8 -26
-12 -62z"/>
<path d="M3984 4238 c0 -13 6 -18 21 -16 11 2 20 10 20 18 0 8 -9 15 -20 16
-14 1 -21 -5 -21 -18z"/>
<path d="M735 4213 c-38 -57 -66 -157 -64 -230 1 -38 -3 -68 -10 -77 -11 -13
-9 -13 13 -3 25 11 26 16 26 90 0 78 27 172 68 235 25 39 -6 25 -33 -15z"/>
<path d="M1535 4240 c3 -5 8 -10 11 -10 2 0 4 5 4 10 0 6 -5 10 -11 10 -5 0
-7 -4 -4 -10z"/>
<path d="M2055 4095 c0 -84 3 -156 7 -160 9 -9 21 175 16 241 -3 30 -9 59 -14
64 -5 5 -9 -52 -9 -145z"/>
<path d="M3549 4233 c-13 -16 -12 -17 4 -4 16 13 21 21 13 21 -2 0 -10 -8 -17
-17z"/>
<path d="M4340 4213 c48 -55 79 -128 73 -172 -5 -35 -5 -36 11 -14 19 25 15
50 -20 129 -21 48 -64 94 -86 94 -6 0 4 -17 22 -37z"/>
<path d="M671 4209 c-12 -19 -21 -41 -21 -49 0 -9 -4 -20 -9 -25 -12 -14 -22
-75 -12 -75 5 0 12 15 15 33 3 17 17 56 31 86 29 62 26 80 -4 30z"/>
<path d="M1043 4217 c2 -6 12 -15 22 -21 33 -19 45 -39 32 -55 -10 -12 -9 -12
11 -2 28 15 28 15 -4 50 -26 30 -68 49 -61 28z"/>
<path d="M2470 4220 c0 -5 5 -10 10 -10 6 0 10 5 10 10 0 6 -4 10 -10 10 -5 0
-10 -4 -10 -10z"/>
<path d="M1320 4216 c0 -4 20 -16 45 -27 24 -11 47 -24 50 -29 9 -14 49 -12
63 2 14 14 16 58 3 58 -5 0 -21 -6 -36 -14 -20 -10 -35 -12 -58 -4 -18 5 -40
12 -49 15 -10 3 -18 2 -18 -1z m117 -42 c-3 -3 -12 -4 -19 -1 -8 3 -5 6 6 6
11 1 17 -2 13 -5z"/>
<path d="M2310 4212 c0 -12 66 -82 78 -82 4 0 13 9 20 21 12 19 11 20 -10 17
-15 -2 -22 2 -20 10 1 8 -2 11 -8 7 -7 -4 -22 3 -36 16 -13 12 -24 17 -24 11z"/>
<path d="M3860 4190 c19 -13 30 -13 30 0 0 6 -10 10 -22 10 -19 0 -20 -2 -8
-10z"/>
<path d="M3976 4175 c-16 -12 -17 -17 -7 -28 9 -8 12 -9 9 0 -2 6 6 19 17 27
11 8 16 15 10 15 -5 0 -19 -6 -29 -14z"/>
<path d="M4245 4179 c-4 -6 -5 -12 -2 -15 2 -3 7 2 10 11 7 17 1 20 -8 4z"/>
<path d="M836 4138 c-4 -24 -6 -54 -6 -68 0 -14 0 -45 0 -70 -1 -59 11 -44 45
58 17 53 24 87 18 93 -6 6 -15 -11 -23 -46 -7 -31 -17 -58 -22 -61 -10 -6 -5
62 5 73 10 10 8 63 -2 63 -5 0 -12 -19 -15 -42z"/>
<path d="M1202 4160 c-40 -19 -41 -31 -3 -20 27 8 71 28 71 33 0 8 -42 0 -68
-13z"/>
<path d="M3900 4170 c0 -5 12 -10 28 -9 24 0 25 1 7 9 -27 12 -35 12 -35 0z"/>
<path d="M3713 4154 c-38 -19 -107 -99 -100 -117 3 -7 23 8 50 37 25 26 63 57
86 67 23 10 41 20 41 24 0 11 -46 4 -77 -11z"/>
<path d="M4217 4133 c-2 -5 0 -23 5 -42 7 -26 12 -31 18 -21 5 9 5 17 -1 21
-5 3 -7 13 -4 21 6 16 -10 35 -18 21z"/>
<path d="M1140 4114 c0 -8 5 -12 10 -9 6 3 10 10 10 16 0 5 -4 9 -10 9 -5 0
-10 -7 -10 -16z"/>
<path d="M3836 4106 c-19 -29 -14 -44 19 -69 28 -20 32 -12 10 17 -10 13 -11
25 -4 43 11 30 11 33 0 33 -5 0 -16 -11 -25 -24z"/>
<path d="M4257 4124 c-3 -4 -2 -15 4 -26 12 -22 2 -61 -13 -52 -8 5 -9 -1 -5
-17 4 -13 7 -30 7 -38 0 -19 13 -5 16 17 1 9 6 36 12 59 7 32 7 45 -3 53 -6 5
-15 7 -18 4z"/>
<path d="M2384 4101 c-33 -20 -67 -61 -59 -70 3 -2 18 10 35 29 25 28 32 31
45 20 13 -11 13 -15 3 -21 -9 -6 -6 -9 9 -9 31 0 38 17 13 30 -13 7 -19 18
-16 26 7 18 7 18 -30 -5z"/>
<path d="M929 4097 c-9 -7 -18 -26 -21 -42 -3 -17 -7 -36 -9 -44 -2 -7 1 -15
8 -18 13 -5 21 17 25 65 1 18 8 32 15 32 7 0 13 5 13 10 0 13 -11 12 -31 -3z"/>
<path d="M3522 3990 c-1 -68 1 -120 6 -115 4 6 5 62 1 125 l-5 115 -2 -125z"/>
<path d="M3699 4076 c-10 -21 -10 -31 1 -51 20 -37 29 -30 26 20 -3 55 -12 65
-27 31z"/>
<path d="M1290 4077 c0 -27 22 -89 28 -80 4 6 8 -9 9 -34 2 -69 12 -72 38 -10
12 28 12 36 3 35 -8 -2 -14 9 -16 27 -2 17 -6 37 -9 45 -3 8 -6 17 -5 20 0 3
-10 7 -24 8 -13 1 -24 -4 -24 -11z"/>
<path d="M2700 4070 c0 -5 5 -10 10 -10 6 0 10 5 10 10 0 6 -4 10 -10 10 -5 0
-10 -4 -10 -10z"/>
<path d="M4187 4073 c-4 -3 -7 -20 -7 -36 0 -38 14 -26 16 14 2 31 1 33 -9 22z"/>
<path d="M1169 4053 c-13 -16 -12 -17 4 -4 9 7 17 15 17 17 0 8 -8 3 -21 -13z"/>
<path d="M1215 4060 c-3 -5 -1 -10 4 -10 6 0 11 5 11 10 0 6 -2 10 -4 10 -3 0
-8 -4 -11 -10z"/>
<path d="M3795 4056 c-3 -9 -7 -23 -10 -31 -2 -8 0 -17 5 -20 6 -4 10 -15 10
-26 0 -10 5 -19 10 -19 6 0 10 11 10 24 0 14 -4 28 -10 31 -5 3 -10 16 -10 28
0 18 2 19 10 7 6 -9 10 -10 10 -3 0 19 -20 26 -25 9z"/>
<path d="M4381 4054 c0 -11 3 -14 6 -6 3 7 2 16 -1 19 -3 4 -6 -2 -5 -13z"/>
<path d="M623 4015 c0 -22 2 -30 4 -17 2 12 2 30 0 40 -3 9 -5 -1 -4 -23z"/>
<path d="M950 4015 c0 -28 -4 -35 -20 -35 -13 0 -18 -5 -14 -14 3 -8 12 -12
20 -9 12 4 14 0 9 -20 -4 -13 -2 -28 3 -31 6 -3 13 22 17 59 3 36 11 65 16 65
5 0 9 -7 9 -15 0 -9 12 -20 27 -26 38 -14 54 -4 18 12 -16 8 -36 22 -43 31
-22 30 -42 22 -42 -17z"/>
<path d="M1421 4038 c0 -9 -4 -25 -7 -35 -5 -17 -5 -17 6 0 6 10 9 25 7 35 -4
15 -5 15 -6 0z"/>
<path d="M2435 4004 c-29 -32 -136 -170 -150 -194 -19 -34 51 40 101 107 30
39 61 79 70 88 9 9 14 19 11 22 -3 3 -18 -8 -32 -23z"/>
<path d="M2661 4020 c-1 -9 22 -38 50 -65 28 -28 69 -72 90 -98 22 -27 39 -42
39 -34 0 9 -38 55 -85 104 -47 48 -87 93 -89 98 -2 6 -5 3 -5 -5z"/>
<path d="M4141 4003 c-3 -74 -2 -93 9 -110 9 -15 10 -12 9 17 -3 50 2 97 7 83
3 -7 11 -10 19 -7 10 4 9 10 -6 25 -26 26 -37 24 -38 -8z"/>
<path d="M1077 3983 c-7 -11 42 -37 51 -29 3 3 -4 9 -14 13 -10 3 -22 11 -25
16 -4 6 -9 5 -12 0z"/>
<path d="M2463 3951 c-12 -21 -44 -63 -71 -92 -26 -30 -58 -68 -70 -85 l-22
-32 143 -6 c78 -3 156 -4 172 -2 17 1 72 4 123 4 l93 2 -13 23 c-22 40 -152
217 -156 213 -7 -7 26 -62 87 -144 l61 -82 -247 0 -246 0 59 63 c67 70 99 112
114 151 14 39 -2 31 -27 -13z"/>
<path d="M760 3965 c0 -8 5 -15 10 -15 6 0 10 7 10 15 0 8 -4 15 -10 15 -5 0
-10 -7 -10 -15z"/>
<path d="M1411 3964 c0 -11 3 -14 6 -6 3 7 2 16 -1 19 -3 4 -6 -2 -5 -13z"/>
<path d="M2870 3970 c0 -5 5 -10 11 -10 5 0 7 5 4 10 -3 6 -8 10 -11 10 -2 0
-4 -4 -4 -10z"/>
<path d="M2968 3973 c7 -3 16 -2 19 1 4 3 -2 6 -13 5 -11 0 -14 -3 -6 -6z"/>
<path d="M3689 3953 c-17 -49 -18 -53 -15 -53 4 0 46 69 46 76 0 2 -5 4 -10 4
-6 0 -15 -12 -21 -27z"/>
<path d="M4418 3969 c-28 -16 -22 -37 7 -31 28 5 30 0 15 -29 -6 -10 -21 -19
-32 -19 -21 0 -21 -1 -5 -17 15 -16 19 -16 32 -2 9 8 18 32 22 52 5 34 4 37
-13 30 -17 -6 -17 -5 -5 10 15 19 5 22 -21 6z"/>
<path d="M624 3948 c3 -13 6 -32 6 -43 0 -15 2 -17 9 -6 5 7 7 21 6 30 -2 9
-4 22 -4 29 -1 6 -6 12 -12 12 -7 0 -9 -9 -5 -22z"/>
<path d="M2128 3963 c7 -3 16 -2 19 1 4 3 -2 6 -13 5 -11 0 -14 -3 -6 -6z"/>
<path d="M2218 3963 c7 -3 16 -2 19 1 4 3 -2 6 -13 5 -11 0 -14 -3 -6 -6z"/>
<path d="M4275 3960 c-4 -6 5 -10 19 -10 31 0 34 -16 6 -25 -11 -3 -27 -18
-35 -33 -23 -38 -189 -152 -257 -177 -32 -12 -63 -26 -70 -33 -15 -15 -9 -15
50 -1 65 15 115 43 199 112 61 50 75 58 88 47 8 -7 15 -19 15 -27 0 -8 5 -11
10 -8 8 5 8 11 0 20 -13 16 21 52 57 61 14 4 23 14 23 25 0 25 -30 24 -37 -1
-3 -13 -14 -20 -29 -20 -15 0 -24 -6 -24 -15 0 -8 -4 -15 -10 -15 -17 0 10 45
32 55 12 6 23 20 25 33 2 18 -2 22 -26 22 -17 0 -33 -4 -36 -10z"/>
<path d="M790 3951 c0 -6 5 -11 10 -11 6 0 10 -7 10 -16 0 -8 -5 -12 -10 -9
-12 8 -130 -26 -130 -37 0 -4 5 -8 10 -8 6 0 9 -3 8 -7 -2 -5 2 -9 7 -10 6 -2
10 5 10 15 0 9 5 17 10 17 25 -1 85 -17 89 -24 9 -14 -14 -79 -29 -85 -32 -12
0 -106 36 -106 20 0 32 67 16 87 -12 16 -1 62 18 69 8 3 45 -19 85 -51 39 -31
74 -54 77 -51 4 3 13 0 22 -8 15 -12 131 -33 131 -23 0 2 -38 19 -84 36 -46
18 -102 45 -125 61 -22 17 -44 30 -47 30 -11 0 -43 45 -44 62 0 9 6 19 13 21
9 4 9 6 -1 6 -7 1 -18 -10 -24 -24 -17 -38 -26 -30 -25 22 2 38 -2 48 -15 51
-10 2 -18 -1 -18 -7z m20 -233 c0 -24 -17 -23 -25 2 -8 26 4 48 16 29 5 -8 9
-22 9 -31z"/>
<path d="M4015 3950 c-3 -5 1 -10 9 -10 9 0 16 5 16 10 0 6 -4 10 -9 10 -6 0
-13 -4 -16 -10z"/>
<path d="M2150 3940 c-87 -6 -80 -22 8 -20 31 1 62 1 69 1 7 -1 12 -44 15
-140 1 -77 7 -143 11 -148 11 -10 598 -16 614 -6 10 7 21 136 23 261 l0 32 75
0 c41 0 75 4 75 9 0 9 -168 20 -176 12 -2 -2 -4 -71 -4 -152 l0 -148 -297 5
-298 6 -1 46 c-1 26 -2 93 -3 149 -1 91 -3 102 -19 100 -9 -1 -51 -4 -92 -7z"/>
<path d="M4196 3941 c-4 -7 -5 -15 -2 -18 9 -9 19 4 14 18 -4 11 -6 11 -12 0z"/>
<path d="M3790 3919 c0 -11 5 -17 10 -14 6 3 10 13 10 21 0 8 -4 14 -10 14 -5
0 -10 -9 -10 -21z"/>
<path d="M3979 3923 c-1 -5 -2 -12 -3 -18 0 -5 -5 -11 -11 -11 -5 -1 -9 2 -7
7 3 11 -25 12 -32 1 -8 -13 40 -36 58 -29 10 4 15 16 14 32 -2 23 -16 36 -19
18z"/>
<path d="M1140 3910 c0 -5 5 -10 11 -10 5 0 7 5 4 10 -3 6 -8 10 -11 10 -2 0
-4 -4 -4 -10z"/>
<path d="M1062 3863 c-17 -26 -29 -50 -26 -53 7 -6 61 60 67 83 9 31 -10 18
-41 -30z"/>
<path d="M1180 3902 c0 -5 7 -15 15 -22 8 -7 15 -8 15 -2 0 5 -7 15 -15 22 -8
7 -15 8 -15 2z"/>
<path d="M1380 3877 c0 -19 73 -156 85 -161 12 -4 11 3 -5 34 -11 22 -20 46
-20 55 0 8 -7 15 -15 15 -8 0 -15 6 -15 13 -1 12 -30 56 -30 44z"/>
<path d="M1572 3855 c0 -16 2 -22 5 -12 2 9 2 23 0 30 -3 6 -5 -1 -5 -18z"/>
<path d="M1168 3863 c7 -3 16 -2 19 1 4 3 -2 6 -13 5 -11 0 -14 -3 -6 -6z"/>
<path d="M644 3824 c7 -43 83 -210 92 -201 3 3 -11 40 -31 83 -21 44 -39 94
-42 112 -3 18 -10 35 -15 38 -6 4 -7 -9 -4 -32z"/>
<path d="M3641 3802 c-22 -63 -27 -93 -12 -76 11 11 44 125 38 130 -2 3 -14
-22 -26 -54z"/>
<path d="M3980 3854 c0 -3 16 -20 35 -37 19 -17 35 -34 35 -38 0 -4 -18 -14
-39 -22 -35 -14 -63 -37 -46 -37 13 0 94 40 100 50 6 10 -4 26 -44 66 -23 23
-41 31 -41 18z"/>
<path d="M4391 3790 c-17 -36 -48 -91 -67 -122 -21 -33 -33 -62 -28 -69 4 -8
18 10 37 47 16 32 35 66 41 74 7 8 19 31 26 50 8 19 18 38 23 41 5 4 7 15 4
25 -3 14 -13 1 -36 -46z"/>
<path d="M4314 3825 c3 -8 1 -26 -4 -40 -10 -27 1 -33 19 -11 13 16 5 66 -11
66 -6 0 -8 -7 -4 -15z"/>
<path d="M690 3823 c0 -16 44 -96 47 -86 2 6 -5 30 -17 52 -19 38 -30 50 -30
34z"/>
<path d="M1572 3790 c0 -19 2 -27 5 -17 2 9 2 25 0 35 -3 9 -5 1 -5 -18z"/>
<path d="M3531 3800 c0 -14 4 -32 9 -40 8 -12 10 -12 9 5 0 11 -4 29 -9 40 -8
18 -9 18 -9 -5z"/>
<path d="M1212 3784 c-32 -22 -27 -34 12 -34 39 0 53 14 36 35 -16 19 -20 19
-48 -1z"/>
<path d="M3795 3789 c-4 -6 -5 -12 -4 -13 33 -25 59 -36 81 -36 39 0 35 14
-12 39 -46 24 -56 25 -65 10z"/>
<path d="M4095 3790 c-3 -6 1 -7 9 -4 18 7 21 14 7 14 -6 0 -13 -4 -16 -10z"/>
<path d="M1290 3781 c0 -5 7 -12 16 -15 14 -5 15 -4 4 9 -14 17 -20 19 -20 6z"/>
<path d="M1065 3770 c3 -5 11 -10 16 -10 6 0 7 5 4 10 -3 6 -11 10 -16 10 -6
0 -7 -4 -4 -10z"/>
<path d="M1130 3750 c-11 -8 -7 -10 17 -8 17 1 29 6 27 10 -7 11 -26 10 -44
-2z"/>
<path d="M1365 3710 c21 -22 44 -40 50 -40 10 1 -72 80 -83 80 -3 0 12 -18 33
-40z"/>
<path d="M1572 3720 c0 -19 2 -27 5 -17 2 9 2 25 0 35 -3 9 -5 1 -5 -18z"/>
<path d="M4299 3743 c-11 -3 -18 -19 -22 -51 -3 -26 -4 -48 -3 -49 0 -1 12 14
24 34 13 19 18 32 12 28 -8 -5 -11 -3 -8 6 3 8 11 13 17 12 6 -2 11 4 11 12 0
15 -3 16 -31 8z"/>
<path d="M962 3648 c-32 -38 -40 -54 -31 -64 10 -12 39 -9 39 5 1 3 11 19 24
35 20 24 26 27 45 17 17 -9 21 -9 21 3 0 7 -8 17 -17 20 -15 6 -15 8 -3 17 12
9 10 10 -7 6 -12 -3 -23 -1 -25 4 -2 4 -22 -15 -46 -43z"/>
<path d="M4073 3693 c-27 -5 -26 -4 -12 -37 6 -13 22 -27 35 -30 14 -4 26 -16
30 -31 8 -33 34 -33 34 0 0 14 -4 25 -10 25 -5 0 -10 6 -10 14 0 26 -43 63
-67 59z m42 -24 c10 -15 2 -19 -23 -12 -12 3 -19 9 -16 14 7 12 31 11 39 -2z"/>
<path d="M780 3648 c0 -22 66 -77 113 -93 31 -10 36 -10 27 0 -6 7 -25 18 -43
25 -18 7 -47 29 -64 49 -23 25 -33 31 -33 19z"/>
<path d="M4205 3621 c-16 -3 -25 -9 -20 -13 6 -3 24 0 40 7 33 15 27 16 -20 6z"/>
<path d="M3688 3613 c6 -2 18 -2 25 0 6 3 1 5 -13 5 -14 0 -19 -2 -12 -5z"/>
<path d="M4360 3605 c-7 -8 -8 -15 -2 -15 5 0 15 7 22 15 7 8 8 15 2 15 -5 0
-15 -7 -22 -15z"/>
<path d="M1268 3603 c18 -2 45 -2 60 0 15 2 0 4 -33 4 -33 0 -45 -2 -27 -4z"/>
<path d="M3848 3603 c6 -2 18 -2 25 0 6 3 1 5 -13 5 -14 0 -19 -2 -12 -5z"/>
<path d="M3918 3593 c12 -2 32 -2 45 0 12 2 2 4 -23 4 -25 0 -35 -2 -22 -4z"/>
<path d="M4226 3586 c-22 -7 -42 -18 -44 -26 -3 -9 1 -11 12 -7 10 4 24 7 31
7 7 0 23 9 36 20 27 22 21 23 -35 6z"/>
<path d="M1975 3520 c-4 -7 192 -10 580 -10 388 0 584 3 580 10 -4 6 -208 10
-580 10 -372 0 -576 -4 -580 -10z"/>
<path d="M1971 3424 c0 -11 3 -14 6 -6 3 7 2 16 -1 19 -3 4 -6 -2 -5 -13z"/>
<path d="M2095 3350 l-340 -5 0 -273 c0 -298 -5 -278 60 -263 l30 7 -32 8 -33
8 0 249 0 249 325 -2 325 -3 14 -35 15 -35 0 53 c1 36 -3 51 -11 50 -7 -2
-166 -5 -353 -8z"/>
<path d="M2609 3301 c-37 -57 -28 -66 17 -18 l35 37 92 0 c51 1 200 3 333 5
l241 4 6 -151 c4 -83 7 -185 7 -226 l0 -75 -42 7 c-23 4 -49 12 -58 18 -8 7
-6 2 5 -10 12 -12 41 -26 68 -31 l47 -8 0 249 0 250 -361 -3 -362 -3 -28 -45z"/>
<path d="M2285 3280 c-18 -8 -17 -9 8 -9 15 -1 27 4 27 9 0 12 -8 12 -35 0z"/>
<path d="M2344 3238 c1 -24 6 -44 12 -46 5 -2 41 0 79 3 55 6 247 -6 308 -18
6 -1 14 16 18 38 6 38 6 39 -10 18 -17 -20 -26 -21 -199 -19 l-181 1 -6 33
c-9 46 -23 40 -21 -10z"/>
<path d="M2495 3260 c-16 -7 -11 -9 20 -9 29 -1 36 2 25 9 -17 11 -19 11 -45
0z"/>
<path d="M2260 3250 c0 -16 69 -178 110 -260 43 -85 66 -118 74 -109 6 6 -171
379 -180 379 -2 0 -4 -4 -4 -10z"/>
<path d="M2742 3082 c-126 -217 -113 -202 -152 -162 -17 18 -36 46 -42 61 -13
39 -22 36 -38 -11 -7 -22 -19 -45 -27 -51 -7 -6 -13 -18 -13 -25 0 -24 20 -15
38 16 9 16 19 30 22 30 3 0 19 -13 35 -28 17 -16 40 -31 53 -34 28 -8 46 15
139 182 78 141 96 180 85 180 -5 0 -50 -71 -100 -158z"/>
<path d="M3587 3143 c-12 -11 -8 -1183 3 -1183 7 0 10 205 10 595 0 327 -1
595 -3 595 -2 0 -7 -3 -10 -7z"/>
<path d="M1519 3120 c-4 -12 -5 -1115 0 -1142 17 -100 27 683 13 992 -4 91
-10 158 -13 150z"/>
<path d="M3513 3123 c9 -2 25 -2 35 0 9 3 1 5 -18 5 -19 0 -27 -2 -17 -5z"/>
<path d="M1568 3113 c12 -2 32 -2 45 0 12 2 2 4 -23 4 -25 0 -35 -2 -22 -4z"/>
<path d="M4468 3014 c-24 -10 -35 -20 -31 -30 3 -8 0 -14 -6 -14 -6 0 -11 7
-11 15 0 18 -46 21 -52 3 -3 -8 -62 -11 -214 -9 -115 1 -226 4 -246 6 -21 2
-40 -1 -43 -6 -4 -5 19 -9 52 -9 70 0 105 -9 100 -24 -2 -7 -29 -10 -75 -8
-47 3 -72 0 -72 -7 0 -7 25 -11 64 -11 35 0 71 -3 79 -6 11 -4 16 2 19 21 l3
27 143 -1 c79 -1 153 -6 165 -11 15 -6 -31 -9 -136 -7 -119 1 -157 -1 -157
-10 0 -10 40 -12 167 -10 l167 2 1 25 c0 14 5 26 10 27 6 1 9 -12 7 -28 -3
-27 -1 -30 20 -27 18 2 24 10 26 35 3 28 8 34 40 43 73 20 70 25 65 -122 -4
-108 -3 -131 8 -121 15 15 22 228 7 256 -11 21 -50 21 -100 1z"/>
<path d="M552 2998 c-13 -17 -19 -111 -7 -115 6 -2 8 -25 7 -52 -3 -38 -7 -48
-18 -44 -17 6 -19 50 -1 56 6 2 9 7 6 11 -15 16 -39 -8 -39 -40 0 -26 6 -38
28 -51 15 -10 30 -22 34 -27 15 -22 18 5 8 95 -5 52 -10 109 -10 127 l0 32 55
0 55 0 0 -35 c0 -32 2 -35 30 -35 27 0 30 3 30 30 0 17 5 30 10 30 6 0 10 -13
10 -28 0 -27 0 -28 72 -29 39 -1 78 2 87 7 11 6 -10 9 -66 10 -46 0 -83 4 -83
9 0 9 181 25 235 20 66 -5 265 2 265 9 0 5 -109 8 -242 7 -152 -1 -249 2 -260
9 -19 11 -48 -7 -48 -30 0 -24 -15 -15 -27 16 -11 28 -14 30 -66 30 -31 0 -59
-5 -65 -12z"/>
<path d="M1265 2940 c-7 -40 1 -292 11 -378 3 -24 3 -66 -1 -95 l-8 -52 -36
42 c-20 23 -49 47 -64 52 -48 18 -52 12 -11 -15 21 -14 56 -42 77 -62 l37 -36
1 -106 c1 -58 4 -116 8 -130 7 -24 8 -24 12 7 3 17 5 59 5 92 -1 34 1 61 5 61
3 0 24 -16 46 -35 42 -36 63 -44 63 -24 0 21 -80 107 -106 113 -20 5 -24 11
-19 27 7 20 9 243 3 270 -2 10 10 15 42 17 25 2 50 8 55 13 7 7 -6 10 -38 8
-39 -3 -51 1 -60 16 -8 15 -6 22 14 34 48 31 112 98 105 109 -11 18 -20 15
-74 -28 l-50 -40 -1 87 c-1 48 -3 88 -5 90 -2 3 -7 -14 -11 -37z"/>
<path d="M3838 2950 c-3 -19 -4 -64 -1 -100 4 -60 4 -64 -11 -45 -14 17 -17
18 -27 5 -9 -13 -10 -12 -5 2 3 12 -6 26 -29 44 -19 14 -39 24 -44 22 -16 -6
53 -98 86 -113 27 -13 31 -19 24 -38 -7 -18 -16 -22 -46 -21 -44 2 -28 -10 27
-20 l36 -7 7 86 c8 96 -6 248 -17 185z"/>
<path d="M4480 2965 c-10 -12 -10 -15 1 -15 28 0 59 13 53 21 -8 14 -40 10
-54 -6z"/>
<path d="M603 2939 c-33 -12 -28 -19 12 -19 19 0 35 4 35 9 0 14 -23 19 -47
10z"/>
<path d="M940 2930 c-10 -6 39 -10 148 -10 101 0 162 4 162 10 0 13 -290 13
-310 0z"/>
<path d="M4448 2904 c-16 -8 -28 -18 -28 -23 0 -12 -111 -159 -144 -193 -26
-26 -26 -27 -8 -37 15 -8 21 -7 25 3 3 7 47 68 97 135 51 67 90 124 89 126 -2
2 -16 -3 -31 -11z"/>
<path d="M836 2902 c-10 -17 7 -52 29 -58 13 -3 41 -3 62 0 21 3 44 5 51 6 20
0 15 50 -5 50 -15 0 -16 -2 -3 -10 12 -7 10 -11 -9 -18 -30 -11 -106 0 -106
15 0 16 -12 26 -19 15z"/>
<path d="M3970 2902 c0 -10 65 -105 113 -165 20 -26 33 -35 40 -28 7 7 -4 27
-35 63 -25 29 -57 72 -73 96 -26 39 -45 54 -45 34z"/>
<path d="M650 2891 c0 -5 17 -31 38 -58 20 -27 53 -70 72 -96 33 -43 55 -55
55 -29 0 13 -146 192 -157 192 -4 0 -8 -4 -8 -9z"/>
<path d="M1076 2814 c-41 -54 -66 -96 -66 -112 0 -28 2 -27 34 16 11 16 42 57
69 92 44 59 58 90 38 90 -4 0 -38 -39 -75 -86z"/>
<path d="M4123 2892 c-8 -5 -8 -12 3 -27 13 -18 14 -18 12 8 -1 15 -3 27 -3
27 0 0 -5 -4 -12 -8z"/>
<path d="M4275 2890 c8 -13 -15 -55 -24 -44 -3 5 -24 9 -47 9 -33 1 -43 -3
-52 -23 l-11 -25 62 7 c41 4 66 12 75 23 15 21 16 63 1 63 -5 0 -7 -4 -4 -10z"/>
<path d="M3239 2811 c23 -27 77 -82 121 -121 44 -40 80 -77 80 -84 0 -11 -68
-125 -161 -270 -21 -33 -36 -62 -34 -64 10 -11 41 29 120 158 47 75 94 145
105 155 27 24 25 32 -11 54 -17 10 -77 64 -133 120 -108 106 -157 135 -87 52z"/>
<path d="M1808 2748 c-40 -53 -143 -171 -181 -209 l-28 -28 29 -15 c15 -8 76
-64 134 -125 58 -61 111 -111 118 -111 16 0 -22 44 -137 162 l-96 98 75 87
c82 97 134 170 125 179 -3 3 -20 -14 -39 -38z"/>
<path d="M4583 2753 c-8 -3 -13 -23 -13 -49 l0 -44 65 0 65 0 0 -37 c0 -21 3
-62 7 -91 l6 -53 -69 3 -69 3 4 83 c2 58 0 82 -9 82 -20 0 -7 -176 19 -240
l21 -55 -4 53 -5 52 48 0 c79 0 85 10 75 121 l-9 94 -50 3 c-60 4 -78 17 -73
54 3 15 4 28 4 27 -1 0 -7 -3 -13 -6z"/>
<path d="M515 2691 l-7 -49 -55 -4 c-32 -3 -59 -11 -64 -19 -5 -8 -8 -45 -7
-84 l3 -70 65 -5 c65 -5 65 -5 68 -37 5 -52 22 -38 22 16 l0 50 -35 -5 c-19
-2 -51 -6 -70 -8 l-35 -5 0 74 0 75 70 -3 70 -2 0 57 c0 72 -16 84 -25 19z"/>
<path d="M3870 2732 c0 -6 27 -43 60 -81 l59 -69 -39 -7 c-58 -10 -49 -23 13
-17 28 2 54 6 56 8 5 5 -20 36 -86 109 -35 37 -63 63 -63 57z"/>
<path d="M898 2722 c-10 -2 -18 -10 -18 -18 0 -10 -6 -13 -19 -9 -11 3 -21 0
-24 -7 -7 -20 39 -18 58 2 20 22 66 15 72 -11 3 -11 9 -19 13 -19 14 0 19 28
7 38 -19 14 -70 29 -89 24z"/>
<path d="M4500 2674 c-30 -30 -77 -71 -103 -91 -26 -19 -45 -38 -42 -41 3 -3
24 -5 47 -3 37 2 45 -2 89 -48 27 -28 49 -49 49 -46 0 18 -70 97 -98 111 l-34
16 38 31 c46 38 92 85 105 110 15 27 7 21 -51 -39z"/>
<path d="M2145 2711 c-78 -19 -125 -88 -125 -183 0 -72 25 -117 81 -146 141
-74 302 65 233 201 -50 99 -118 144 -189 128z m95 -47 c35 -30 90 -119 90
-148 0 -30 -40 -92 -73 -111 -36 -21 -103 -23 -143 -3 -67 32 -91 121 -56 201
37 84 121 112 182 61z"/>
<path d="M4185 2688 c-4 -18 -7 -41 -5 -52 1 -10 -2 -16 -7 -13 -4 2 -18 1
-30 -4 -16 -6 -20 -13 -16 -31 4 -13 10 -25 14 -28 11 -8 15 -69 4 -71 -17 -3
-36 44 -31 79 3 17 1 32 -4 32 -12 0 -20 -27 -20 -64 0 -33 13 -49 77 -94 l33
-23 56 55 c50 48 56 58 50 83 -9 34 -42 68 -76 78 -22 6 -20 3 13 -28 26 -24
37 -42 34 -54 -3 -10 -8 -28 -12 -40 -9 -32 -24 -29 -39 8 -8 19 -26 37 -45
45 -17 7 -31 18 -31 24 0 15 18 12 27 -4 4 -8 17 -14 28 -13 14 1 21 -5 23
-20 2 -13 10 -23 18 -23 11 0 13 7 8 28 -9 35 -14 43 -23 37 -5 -2 -16 4 -26
15 -14 16 -15 24 -5 54 13 40 30 48 30 15 0 -18 2 -19 15 -9 18 15 20 40 3 40
-7 0 -22 3 -34 6 -18 5 -22 0 -29 -28z m11 -160 c-3 -13 -6 -33 -6 -46 0 -13
-4 -20 -10 -17 -5 3 -10 24 -10 46 0 29 4 39 16 39 12 0 15 -6 10 -22z m24
-55 c0 -19 -3 -24 -10 -17 -6 6 -8 18 -4 27 9 24 14 21 14 -10z"/>
<path d="M2838 2692 c-34 -22 -65 -61 -83 -106 -50 -118 39 -238 162 -220 26
3 61 14 76 23 91 51 87 244 -5 301 -42 25 -113 26 -150 2z m130 -22 c62 -38
89 -137 55 -207 -23 -49 -66 -73 -130 -73 -44 0 -56 4 -81 30 -17 16 -36 46
-42 66 -16 47 8 112 61 165 45 45 85 51 137 19z"/>
<path d="M4115 2692 c-23 -19 -75 -85 -75 -96 0 -4 25 19 55 51 30 32 52 49
48 38 -6 -18 -5 -18 10 -6 9 7 17 16 17 20 0 14 -36 9 -55 -7z"/>
<path d="M1189 2659 c-39 -36 -89 -70 -104 -69 -26 1 -29 -1 -16 -9 8 -5 25
-5 42 1 30 10 151 117 133 118 -6 0 -31 -18 -55 -41z"/>
<path d="M3718 2650 c-12 -84 -10 -216 2 -204 7 7 10 59 8 135 -3 104 -4 115
-10 69z"/>
<path d="M930 2669 c0 -11 4 -18 10 -14 5 3 7 12 3 20 -7 21 -13 19 -13 -6z"/>
<path d="M580 2672 c0 -13 38 -46 93 -80 l48 -30 -34 -11 c-19 -7 -45 -23 -58
-38 l-24 -27 30 21 c17 11 56 32 88 47 33 15 57 32 57 41 0 8 -4 15 -10 15 -5
0 -10 -6 -10 -14 0 -8 -4 -17 -9 -21 -12 -7 -72 27 -128 72 -24 19 -43 30 -43
25z"/>
<path d="M1414 2550 c0 -74 1 -105 3 -67 2 37 2 97 0 135 -2 37 -3 6 -3 -68z"/>
<path d="M3833 2538 c2 -73 8 -142 12 -152 5 -11 5 -17 -1 -14 -16 10 -72 -19
-85 -44 -7 -13 -20 -29 -31 -36 -18 -13 -25 -42 -10 -42 11 0 53 29 87 61 l30
28 -2 -78 c-2 -101 9 -148 18 -76 4 28 8 82 8 120 l0 70 103 97 c56 54 99 100
95 104 -7 7 -187 -153 -187 -167 0 -5 -4 -9 -10 -9 -6 0 -10 52 -10 135 0 86
-4 135 -10 135 -7 0 -9 -45 -7 -132z"/>
<path d="M831 2625 c-25 -43 -27 -99 -5 -117 9 -7 27 -23 40 -35 30 -28 34
-28 27 -3 -4 13 1 22 13 27 17 6 16 8 -5 13 -13 3 -33 18 -45 33 -18 24 -19
32 -9 70 6 23 10 43 8 45 -1 1 -12 -13 -24 -33z m23 -110 c3 -8 1 -15 -3 -15
-5 0 -11 7 -15 15 -3 8 -1 15 3 15 5 0 11 -7 15 -15z"/>
<path d="M4305 2639 c-4 -5 0 -18 9 -28 9 -10 16 -25 16 -34 0 -27 17 -19 23
10 9 46 -28 85 -48 52z"/>
<path d="M876 2618 c-9 -12 -16 -27 -16 -33 1 -20 28 -46 53 -50 20 -4 27 0
35 24 21 59 -38 108 -72 59z m51 -24 c3 -9 0 -20 -8 -25 -21 -13 -29 -11 -29
9 0 33 26 44 37 16z"/>
<path d="M1040 2626 c0 -8 5 -18 10 -21 6 -3 10 1 10 9 0 8 -4 18 -10 21 -5 3
-10 -1 -10 -9z"/>
<path d="M973 2603 c6 -30 -6 -61 -47 -118 -14 -19 -16 -29 -7 -38 8 -8 11 -8
11 1 0 6 6 9 14 6 16 -6 63 39 77 74 12 31 12 72 -1 72 -5 0 -10 -14 -10 -32
0 -31 -44 -108 -61 -108 -15 0 -10 9 22 49 24 31 30 46 27 76 -2 22 -9 40 -17
43 -11 4 -13 -2 -8 -25z"/>
<path d="M3250 2610 c0 -6 27 -10 61 -10 37 0 58 4 54 10 -3 6 -31 10 -61 10
-30 0 -54 -4 -54 -10z"/>
<path d="M4075 2600 c-3 -5 -1 -10 4 -10 6 0 11 5 11 10 0 6 -2 10 -4 10 -3 0
-8 -4 -11 -10z"/>
<path d="M533 2550 c0 -25 2 -35 4 -22 2 12 2 32 0 45 -2 12 -4 2 -4 -23z"/>
<path d="M1085 2543 c-19 -15 -18 -15 14 -9 18 3 40 6 48 6 8 0 11 5 8 10 -9
15 -47 11 -70 -7z"/>
<path d="M1723 2545 c-9 -25 2 -27 22 -5 17 18 17 20 1 20 -9 0 -19 -7 -23
-15z"/>
<path d="M1789 2531 c17 -17 31 -21 59 -19 l37 3 -43 13 c-24 7 -51 16 -59 19
-11 4 -9 -1 6 -16z"/>
<path d="M682 2514 c-48 -24 -132 -111 -132 -137 0 -6 -3 -8 -6 -4 -11 11 -32
-18 -43 -59 -14 -52 -14 -57 5 -50 8 3 22 0 30 -8 16 -17 19 -36 4 -36 -10 0
-4 -105 7 -123 5 -9 119 -4 129 6 3 2 6 18 7 36 2 30 27 46 27 17 0 -8 14 -17
30 -21 30 -7 311 3 319 11 2 2 -73 4 -167 4 -165 0 -172 1 -172 20 0 15 -7 20
-29 20 -26 0 -28 -3 -27 -37 l1 -38 -59 -3 c-57 -3 -58 -2 -52 20 3 13 9 77
13 143 5 108 9 123 32 154 34 45 98 91 127 91 13 0 26 5 29 10 11 17 -19 11
-73 -16z m-132 -204 c0 -22 -3 -40 -7 -40 -20 1 -32 18 -26 38 3 12 9 19 14
16 5 -3 9 2 9 10 0 9 2 16 5 16 3 0 5 -18 5 -40z"/>
<path d="M3306 2517 c3 -10 9 -15 12 -12 3 3 0 11 -7 18 -10 9 -11 8 -5 -6z"/>
<path d="M4050 2517 c0 -21 30 -77 42 -77 4 0 8 7 8 15 0 8 -4 15 -10 15 -5 0
-10 6 -10 13 0 7 -7 22 -15 33 -14 18 -14 18 -15 1z"/>
<path d="M4333 2513 c-7 -2 -13 -11 -13 -18 0 -8 -10 -20 -22 -26 -13 -7 -34
-23 -48 -36 -37 -37 -80 -66 -80 -54 0 6 -6 11 -14 11 -8 0 -22 10 -30 22 -16
22 -16 22 -30 3 -7 -11 -31 -41 -53 -68 -46 -56 -88 -127 -75 -127 5 0 36 34
68 76 33 42 65 83 72 92 12 15 14 15 22 2 26 -42 27 -42 48 -31 12 6 42 29 67
51 25 22 52 40 58 40 12 0 19 7 56 53 11 14 11 17 0 16 -8 0 -20 -3 -26 -6z"/>
<path d="M1031 2492 c-17 -31 -13 -40 5 -14 9 13 14 26 11 29 -3 2 -10 -4 -16
-15z"/>
<path d="M780 2490 c0 -5 7 -7 15 -4 8 4 15 8 15 10 0 2 -7 4 -15 4 -8 0 -15
-4 -15 -10z"/>
<path d="M4491 2435 c23 -31 44 -53 47 -51 6 7 -68 106 -79 106 -5 0 9 -25 32
-55z"/>
<path d="M840 2455 c-7 -8 -18 -15 -25 -15 -14 0 -74 -75 -129 -162 -38 -60
-41 -68 -28 -68 11 0 172 206 172 219 0 5 8 14 17 20 10 5 15 12 12 15 -3 4
-12 0 -19 -9z"/>
<path d="M1005 2413 c29 -46 139 -182 148 -182 16 -2 4 25 -45 95 -45 67 -93
114 -113 114 -4 0 1 -12 10 -27z"/>
<path d="M885 2411 c4 -14 1 -18 -11 -17 -9 0 -19 -5 -22 -12 -3 -10 3 -13 19
-10 18 2 25 10 27 31 2 15 -2 27 -8 27 -7 0 -9 -8 -5 -19z"/>
<path d="M920 2406 c0 -24 22 -51 33 -40 6 7 -19 64 -28 64 -3 0 -5 -11 -5
-24z"/>
<path d="M4287 2424 c-3 -4 28 -45 69 -93 40 -47 74 -91 74 -98 0 -7 7 -13 15
-13 29 0 23 11 -83 143 -53 66 -62 73 -75 61z"/>
<path d="M4552 2378 c-2 -44 15 -219 25 -252 5 -17 0 -18 -56 -14 -34 2 -61 1
-61 -3 0 -12 56 -21 93 -14 33 7 35 9 40 58 3 33 1 55 -7 59 -7 5 -1 16 18 31
25 20 27 27 21 56 -9 41 -20 31 -16 -15 2 -26 -1 -34 -14 -34 -13 0 -16 9 -14
48 1 26 -2 56 -6 67 -19 55 -21 56 -23 13z"/>
<path d="M2496 2377 c-12 -9 -17 -23 -14 -42 4 -39 38 -51 96 -36 35 10 42 16
42 36 0 46 -81 73 -124 42z m86 -23 c39 -20 23 -34 -39 -34 -46 0 -59 20 -25
39 23 14 28 14 64 -5z"/>
<path d="M4240 2375 c-7 -8 -19 -15 -26 -15 -8 0 -14 -4 -14 -10 0 -5 6 -10
13 -10 17 0 57 29 57 41 0 14 -16 11 -30 -6z"/>
<path d="M2141 2332 c-13 -24 6 -62 41 -81 41 -23 78 -3 78 43 0 41 -20 56
-74 56 -24 0 -38 -6 -45 -18z m78 -13 c35 -12 38 -21 15 -43 -21 -22 -37 -20
-63 8 -37 40 -14 57 48 35z"/>
<path d="M2860 2330 c-24 -24 -25 -38 -4 -68 30 -44 104 -11 104 46 0 46 -63
59 -100 22z m90 -18 c0 -5 -13 -21 -29 -36 l-29 -28 -17 26 c-9 14 -14 30 -10
36 7 12 85 14 85 2z"/>
<path d="M840 2240 c0 -20 6 -22 83 -23 87 -2 108 16 31 27 -68 9 -114 7 -114
-4z"/>
<path d="M1752 2173 c5 -43 8 -153 6 -245 l-3 -167 281 -3 c251 -3 282 -5 298
-20 38 -38 105 -20 184 50 12 11 44 23 70 27 35 6 42 9 27 15 -31 11 -91 -7
-143 -43 -51 -36 -104 -46 -129 -25 -12 10 -80 14 -290 16 l-273 3 -2 205 c-1
112 -2 212 -2 221 -1 10 6 18 14 19 8 1 33 2 55 3 36 3 37 4 15 11 -14 4 -46
8 -71 9 l-45 1 8 -77z"/>
<path d="M2478 2243 c-15 -4 -18 -16 -18 -68 l0 -63 40 0 40 -1 0 54 c0 29 3
60 6 69 5 12 0 16 -22 15 -16 -1 -37 -3 -46 -6z m52 -47 c0 -47 -9 -66 -31
-66 -16 0 -19 7 -19 43 0 48 5 57 32 57 14 0 18 -8 18 -34z"/>
<path d="M2570 2180 l0 -70 40 0 40 0 0 60 c0 40 -4 62 -12 64 -7 3 -25 7 -40
10 l-28 6 0 -70z m44 44 c11 -4 16 -19 16 -50 0 -37 -3 -44 -20 -44 -17 0 -20
7 -20 50 0 28 2 50 4 50 2 0 11 -3 20 -6z"/>
<path d="M3250 2240 c0 -5 18 -10 39 -10 22 0 43 -5 46 -10 4 -6 3 -108 -1
-226 l-7 -217 -246 5 c-249 5 -276 4 -265 -13 3 -5 122 -9 273 -9 l268 0 2
245 2 245 -55 0 c-31 0 -56 -4 -56 -10z"/>
<path d="M4186 2222 c-4 -7 -24 -9 -51 -6 -31 3 -45 1 -45 -7 0 -8 25 -10 94
-4 83 6 100 4 141 -14 65 -29 79 -26 27 5 -48 29 -154 45 -166 26z"/>
<path d="M2102 2193 c-25 -25 -25 -27 -7 -34 11 -4 28 -8 37 -8 10 -1 42 -12
72 -26 62 -28 126 -42 126 -26 0 15 -29 28 -80 36 -37 5 -48 12 -60 37 -24 46
-55 54 -88 21z m64 -15 l19 -21 -34 7 c-42 8 -50 14 -31 26 21 14 25 13 46
-12z"/>
<path d="M2384 2186 c-39 -39 -45 -79 -15 -96 21 -10 51 -4 63 14 12 18 9 116
-3 116 -6 0 -26 -15 -45 -34z m36 -30 c0 -35 -21 -63 -40 -51 -14 9 -13 53 3
70 21 25 37 17 37 -19z"/>
<path d="M935 2199 c-99 -3 -181 -7 -182 -8 -2 0 -3 -7 -3 -15 0 -12 7 -13 33
-5 17 5 102 9 187 9 260 -2 304 0 289 14 -9 8 -153 11 -324 5z"/>
<path d="M2925 2199 c-11 -16 1 -22 23 -10 19 10 42 -1 42 -21 0 -11 -38 -10
-60 2 -15 8 -21 6 -30 -9 -15 -29 -13 -33 11 -21 12 7 37 9 60 5 47 -8 63 13
34 45 -19 21 -70 27 -80 9z"/>
<path d="M2672 2148 c3 -52 4 -53 37 -56 18 -2 38 1 43 6 18 18 -2 71 -32 87
-46 24 -51 20 -48 -37z m64 0 c7 -24 -9 -43 -30 -35 -15 6 -22 47 -10 60 10
10 33 -4 40 -25z"/>
<path d="M3872 2188 c2 -6 27 -12 59 -13 30 0 64 -4 77 -9 18 -6 22 -4 22 13
0 20 -6 21 -81 21 -57 0 -80 -3 -77 -12z"/>
<path d="M4057 2194 c-14 -14 -6 -23 18 -20 25 3 48 16 27 16 -5 0 -17 2 -24
5 -8 3 -17 2 -21 -1z"/>
<path d="M4414 2188 c-4 -6 -2 -14 5 -16 7 -2 20 -13 31 -24 11 -12 20 -16 25
-9 3 6 1 11 -6 11 -9 0 -9 4 1 15 6 8 9 19 5 25 -9 14 -52 13 -61 -2z"/>
<path d="M580 2180 c0 -5 16 -10 35 -10 19 0 35 5 35 10 0 6 -16 10 -35 10
-19 0 -35 -4 -35 -10z"/>
<path d="M4138 2183 c7 -3 16 -2 19 1 4 3 -2 6 -13 5 -11 0 -14 -3 -6 -6z"/>
<path d="M4188 2183 c7 -3 16 -2 19 1 4 3 -2 6 -13 5 -11 0 -14 -3 -6 -6z"/>
<path d="M4500 2180 c0 -5 6 -10 14 -10 8 0 18 5 21 10 3 6 -3 10 -14 10 -12
0 -21 -4 -21 -10z"/>
<path d="M4105 2153 c-44 -2 -84 -8 -88 -12 -4 -4 79 -6 186 -3 136 3 197 1
201 -7 4 -6 15 -11 24 -11 13 0 12 5 -8 20 -26 20 -82 23 -315 13z"/>
<path d="M1170 2138 c0 -5 18 -8 40 -8 22 0 40 2 40 4 0 2 -18 6 -40 8 -22 2
-40 0 -40 -4z"/>
<path d="M3900 2131 c0 -9 80 -5 89 5 2 2 -17 4 -42 4 -26 0 -47 -4 -47 -9z"/>
<path d="M2785 2121 c-3 -5 4 -12 15 -16 25 -8 80 3 80 16 0 12 -87 12 -95 0z"/>
<path d="M2771 2066 c-27 -32 -205 -43 -350 -22 -63 10 -116 15 -118 12 -3 -3
21 -13 53 -22 44 -13 95 -18 204 -18 154 0 213 11 230 45 12 22 -2 26 -19 5z"/>
<path d="M2810 2050 c0 -11 48 -25 57 -16 9 8 3 12 -29 20 -17 4 -28 2 -28 -4z"/>
<path d="M2257 1998 c-19 -61 -21 -82 -8 -74 11 7 34 101 29 117 -2 6 -11 -13
-21 -43z"/>
<path d="M2882 2020 c0 -8 6 -31 13 -50 9 -23 14 -28 14 -15 0 11 -6 34 -14
50 -7 17 -13 23 -13 15z"/>
<path d="M1552 1980 c6 -18 51 -22 108 -11 l45 9 -62 1 c-34 1 -69 4 -79 8
-11 4 -15 2 -12 -7z"/>
<path d="M3493 1973 c15 -2 37 -2 50 0 12 2 0 4 -28 4 -27 0 -38 -2 -22 -4z"/>
<path d="M2630 1783 c0 -42 22 -93 40 -93 17 0 129 80 130 93 0 14 -22 6 -65
-23 -24 -16 -48 -30 -54 -30 -6 0 -16 18 -22 40 -14 46 -29 53 -29 13z"/>
<path d="M807 1683 c-3 -5 -8 -29 -12 -55 -6 -42 -44 -114 -90 -173 -8 -10
-15 -25 -15 -32 0 -7 -4 -13 -10 -13 -11 0 -45 -72 -55 -117 -4 -21 -3 -33 4
-33 6 0 11 9 11 20 0 32 39 106 99 189 57 80 80 128 81 174 l0 27 401 0 c257
0 407 -4 420 -10 19 -11 27 -40 10 -40 -5 0 -40 -29 -78 -65 -37 -36 -71 -65
-75 -65 -5 0 -8 -8 -8 -18 0 -11 -18 -46 -41 -80 -38 -57 -41 -65 -45 -148 -2
-48 -1 -84 3 -80 10 10 10 12 12 90 1 60 4 68 64 156 67 101 184 214 209 205
20 -8 28 -161 28 -552 l0 -303 -72 1 c-83 1 -130 11 -110 23 7 4 10 12 6 17
-3 6 -28 -11 -55 -36 -27 -26 -78 -60 -112 -76 -65 -30 -230 -71 -252 -63 -7
3 -15 1 -18 -3 -12 -20 89 -13 173 12 87 24 210 87 210 105 0 6 44 7 110 3 81
-4 113 -3 125 7 13 11 15 64 14 404 0 215 -3 407 -7 427 -5 26 -19 47 -50 73
l-44 36 -413 0 c-228 0 -416 -3 -418 -7z"/>
<path d="M3442 1660 c-13 -16 -29 -30 -38 -30 -8 0 -19 -11 -24 -24 -5 -13 -8
-210 -7 -442 l2 -419 86 -3 c47 -1 96 1 110 6 20 8 31 3 68 -30 24 -21 55 -41
68 -44 13 -4 23 -10 23 -15 0 -5 7 -9 15 -9 24 0 17 14 -13 28 -37 16 -139
108 -130 117 4 4 22 -2 40 -13 70 -42 111 -63 166 -82 66 -23 62 -23 62 -10 0
6 -6 10 -12 10 -21 0 -118 42 -192 83 -65 36 -71 38 -83 21 -7 -9 -14 -22 -16
-28 -2 -6 -39 -12 -90 -14 l-87 -4 0 229 c0 127 3 318 7 426 l6 196 24 6 c20
5 38 -7 104 -66 43 -39 79 -79 79 -88 0 -9 15 -34 34 -55 19 -20 37 -42 40
-49 3 -8 5 -8 5 2 1 7 -12 29 -29 48 -16 18 -30 43 -30 54 0 20 -143 169 -162
169 -5 0 -8 8 -6 18 3 16 32 17 405 20 l401 2 7 -42 c9 -62 15 -79 25 -73 5 3
19 -9 32 -27 24 -34 58 -71 58 -64 0 3 -15 26 -32 51 -47 66 -58 87 -58 110 0
11 -3 30 -6 43 l-6 22 -412 0 -412 0 -22 -30z"/>
<path d="M936 1599 c-6 -30 -16 -41 -52 -59 -24 -13 -44 -27 -44 -32 0 -4 -6
-8 -14 -8 -38 0 -128 -153 -141 -237 -4 -28 1 -20 19 30 35 96 58 129 132 188
64 51 65 51 80 31 8 -12 29 -40 47 -63 l32 -42 -57 -55 c-32 -30 -55 -59 -51
-65 4 -6 13 -3 22 9 9 10 23 20 31 22 8 2 22 10 31 18 8 8 21 14 28 14 6 0 14
6 17 14 4 11 12 12 35 4 24 -8 33 -6 56 13 17 13 21 20 10 16 -43 -16 -65 -18
-71 -8 -4 6 8 17 26 25 27 12 29 15 11 15 -12 1 -39 -16 -63 -39 -57 -55 -96
-74 -47 -23 44 46 46 61 12 97 -49 53 -56 70 -44 104 6 17 9 39 6 49 -2 11 -6
5 -11 -18z"/>
<path d="M4145 1620 c3 -5 8 -10 11 -10 2 0 4 5 4 10 0 6 -5 10 -11 10 -5 0
-7 -4 -4 -10z"/>
<path d="M2093 1593 c-29 -2 -53 -8 -53 -12 0 -5 243 -9 540 -10 367 -1 540 2
540 9 0 7 -128 10 -392 10 -216 0 -436 2 -488 4 -52 2 -119 2 -147 -1z"/>
<path d="M3710 1549 c-30 -3 24 -4 120 -1 96 2 177 6 180 9 6 6 -237 0 -300
-8z"/>
<path d="M4119 1516 c-28 -40 -35 -44 -63 -39 l-31 5 30 -26 c17 -14 33 -25
37 -26 3 0 16 -16 28 -35 11 -19 43 -51 71 -71 27 -20 56 -49 65 -66 15 -29
38 -34 40 -7 0 8 2 16 4 19 1 3 3 18 4 33 1 19 -2 26 -12 22 -19 -7 -87 30
-136 76 -24 21 -46 36 -49 32 -4 -3 -7 -1 -7 6 0 6 14 25 30 41 17 16 30 36
30 45 0 8 5 15 11 15 5 0 7 5 4 10 -11 18 -23 11 -56 -34z m109 -184 c19 -11
29 -22 24 -26 -12 -7 -98 59 -107 82 -4 11 4 7 22 -9 15 -15 43 -36 61 -47z
m58 -38 c-3 -9 -6 -20 -6 -25 0 -5 -4 -9 -10 -9 -11 0 -14 33 -3 43 12 13 25
7 19 -9z"/>
<path d="M4243 1509 c45 -40 57 -57 58 -82 1 -18 5 -45 10 -62 7 -24 7 -20 4
18 -3 26 -1 47 3 47 17 0 110 -150 126 -202 3 -10 10 -18 16 -18 20 0 13 17
-51 130 -8 14 -33 45 -56 70 -23 25 -55 63 -72 84 -37 46 -60 65 -81 66 -8 0
11 -23 43 -51z"/>
<path d="M1398 1543 c12 -2 32 -2 45 0 12 2 2 4 -23 4 -25 0 -35 -2 -22 -4z"/>
<path d="M990 1490 c0 -5 5 -10 10 -10 6 0 10 5 10 10 0 6 -4 10 -10 10 -5 0
-10 -4 -10 -10z"/>
<path d="M3551 1484 c0 -11 3 -14 6 -6 3 7 2 16 -1 19 -3 4 -6 -2 -5 -13z"/>
<path d="M2253 1477 c-4 -7 -9 -67 -11 -134 l-4 -123 -66 0 c-76 0 -80 -7 -7
-11 58 -3 75 -8 75 -20 0 -5 -31 -9 -69 -9 -39 0 -73 -4 -76 -10 -4 -6 25 -10
79 -10 l86 0 2 108 c1 59 3 127 4 152 l1 45 295 3 294 2 3 -132 c3 -188 -2
-178 87 -178 43 0 74 4 74 10 0 6 -30 10 -70 10 -69 0 -92 12 -47 24 12 3 46
6 76 6 30 0 52 3 48 6 -3 4 -38 6 -77 5 l-70 -1 0 115 c0 64 -5 125 -10 136
-11 19 -23 19 -310 19 -221 -1 -301 -4 -307 -13z"/>
<path d="M3654 1478 c-4 -7 -4 -10 1 -6 4 4 30 -9 59 -28 53 -36 66 -40 66
-24 0 6 -9 10 -20 10 -11 0 -20 7 -20 16 0 8 -5 12 -11 9 -5 -4 -18 0 -27 7
-29 25 -40 29 -48 16z"/>
<path d="M1314 1321 c-82 -82 -165 -158 -184 -168 -21 -12 -35 -27 -35 -40 0
-20 -72 -109 -81 -100 -2 2 14 22 36 44 38 38 50 63 32 63 -25 0 -313 -280
-404 -393 -69 -86 -85 -125 -30 -76 15 14 81 74 147 135 176 160 227 204 280
249 26 22 72 71 103 108 30 38 111 127 179 198 69 71 121 129 116 129 -5 0
-77 -67 -159 -149z m-337 -337 c-3 -3 -12 -4 -19 -1 -8 3 -5 6 6 6 11 1 17 -2
13 -5z"/>
<path d="M1561 1454 c0 -11 3 -14 6 -6 3 7 2 16 -1 19 -3 4 -6 -2 -5 -13z"/>
<path d="M3898 1213 c257 -258 582 -562 582 -545 0 36 -475 512 -511 512 -16
0 -109 92 -103 102 3 5 2 7 -3 6 -5 -2 -45 30 -89 70 -156 141 -121 100 124
-145z"/>
<path d="M4400 1453 c0 -5 11 -24 25 -43 14 -19 25 -40 25 -47 0 -7 4 -13 10
-13 12 0 -15 63 -29 68 -6 2 -11 10 -11 17 0 8 -4 17 -10 20 -5 3 -10 2 -10
-2z"/>
<path d="M1030 1439 c0 -5 5 -7 10 -4 6 3 10 8 10 11 0 2 -4 4 -10 4 -5 0 -10
-5 -10 -11z"/>
<path d="M4025 1410 c85 -42 100 -46 89 -29 -9 16 -125 69 -149 69 -11 -1 16
-19 60 -40z"/>
<path d="M810 1364 c0 -77 -9 -105 -41 -137 -15 -14 -23 -15 -38 -7 -26 13
-31 13 -31 -5 0 -8 16 -19 38 -24 47 -14 92 -14 92 -1 0 6 -13 10 -30 10 -16
0 -30 4 -30 9 0 14 28 21 60 14 18 -3 30 -1 30 5 0 6 3 18 7 27 5 15 3 16 -15
6 -32 -17 -44 -14 -32 8 6 12 17 17 29 14 16 -4 19 -1 14 16 -5 21 -23 30 -23
11 0 -5 -3 -10 -7 -10 -5 0 -7 31 -7 70 1 38 -2 70 -7 70 -5 0 -9 -34 -9 -76z"/>
<path d="M1148 1423 c7 -3 16 -2 19 1 4 3 -2 6 -13 5 -11 0 -14 -3 -6 -6z"/>
<path d="M1572 1400 c0 -14 2 -19 5 -12 2 6 2 18 0 25 -3 6 -5 1 -5 -13z"/>
<path d="M1130 1371 c-55 -41 -74 -60 -67 -67 3 -4 25 10 48 30 53 45 94 48
139 10 17 -15 34 -23 38 -19 4 4 1 10 -7 13 -7 2 -22 13 -32 23 -10 10 -33 22
-51 27 -29 8 -38 5 -68 -17z"/>
<path d="M3894 1387 c-5 -7 -21 -19 -35 -28 -13 -9 -21 -20 -17 -24 3 -4 19 2
35 13 15 11 45 23 65 26 21 4 39 10 42 14 7 12 -79 12 -90 -1z"/>
<path d="M1573 1325 c0 -27 2 -38 4 -22 2 15 2 37 0 50 -2 12 -4 0 -4 -28z"/>
<path d="M2290 1363 c0 -6 10 -24 23 -40 73 -89 158 -216 153 -229 -10 -25
-31 -15 -104 52 -93 84 -94 68 -2 -20 39 -36 70 -68 70 -71 0 -2 -13 -11 -30
-20 -33 -17 -38 -32 -15 -41 15 -6 48 19 39 29 -8 7 42 54 66 62 19 6 28 25
12 25 -5 0 -38 42 -74 93 -75 105 -137 178 -138 160z"/>
<path d="M2360 1360 c0 -6 77 -10 210 -10 133 0 210 4 210 10 0 6 -77 10 -210
10 -133 0 -210 -4 -210 -10z"/>
<path d="M3996 1356 c3 -9 11 -16 16 -16 13 0 5 23 -10 28 -7 2 -10 -2 -6 -12z"/>
<path d="M3711 1343 c7 -10 15 -20 16 -22 2 -2 3 3 3 11 0 9 -7 19 -16 22 -15
6 -15 4 -3 -11z"/>
<path d="M4090 1345 c-7 -9 -8 -15 -2 -15 5 0 12 7 16 15 3 8 4 15 2 15 -2 0
-9 -7 -16 -15z"/>
<path d="M766 1335 c-3 -8 -1 -15 4 -15 6 0 10 7 10 15 0 8 -2 15 -4 15 -2 0
-6 -7 -10 -15z"/>
<path d="M2759 1292 c-84 -90 -143 -172 -133 -182 5 -5 32 21 66 63 31 40 75
96 98 125 56 70 35 66 -31 -6z"/>
<path d="M4002 1290 c-26 -27 -53 -50 -60 -50 -20 0 -13 -14 13 -27 14 -6 25
-7 25 -2 0 5 -4 9 -10 9 -5 0 -10 5 -10 10 0 6 10 10 22 10 12 0 19 3 15 6 -3
4 10 26 30 50 48 59 34 56 -25 -6z"/>
<path d="M4471 1318 c7 -13 16 -36 20 -53 l7 -30 1 27 c1 31 -18 78 -31 78 -5
0 -3 -10 3 -22z"/>
<path d="M3751 1303 c8 -10 20 -23 28 -29 12 -9 11 -21 -8 -74 -22 -67 -29
-146 -11 -135 6 3 10 -4 10 -15 0 -12 9 -33 20 -47 19 -24 20 -24 20 -5 0 12
-8 26 -17 31 -11 6 -13 11 -5 11 10 0 9 7 -3 30 -17 33 -19 44 -7 36 5 -3 16
16 25 42 20 56 10 108 -29 147 -29 29 -43 33 -23 8z m39 -155 c0 -16 -3 -19
-11 -11 -6 6 -8 16 -5 22 11 17 16 13 16 -11z"/>
<path d="M1090 1301 c0 -5 7 -14 15 -21 8 -7 13 -16 10 -20 -3 -5 0 -12 6 -16
8 -4 9 -3 5 4 -4 7 -1 12 9 12 9 0 14 -4 11 -9 -3 -5 1 -11 9 -15 8 -3 15 -2
15 3 0 4 12 7 28 5 25 -4 24 -3 -8 12 -19 9 -47 25 -61 35 -30 21 -39 23 -39
10z"/>
<path d="M2991 1294 c0 -11 3 -14 6 -6 3 7 2 16 -1 19 -3 4 -6 -2 -5 -13z"/>
<path d="M4352 1290 c0 -14 2 -19 5 -12 2 6 2 18 0 25 -3 6 -5 1 -5 -13z"/>
<path d="M3688 1285 c-4 -4 -4 -14 -1 -23 5 -10 3 -13 -6 -8 -9 6 -9 3 1 -13
17 -27 29 -13 20 22 -4 16 -10 25 -14 22z"/>
<path d="M3894 1262 c10 -12 23 -19 28 -16 11 7 11 7 -22 24 -25 13 -25 13 -6
-8z"/>
<path d="M4305 1269 c-10 -15 3 -25 16 -12 7 7 7 13 1 17 -6 3 -14 1 -17 -5z"/>
<path d="M1370 1259 c0 -5 5 -7 10 -4 6 3 10 8 10 11 0 2 -4 4 -10 4 -5 0 -10
-5 -10 -11z"/>
<path d="M3521 1108 c0 -182 7 -239 29 -246 13 -4 13 -3 2 11 -10 11 -14 66
-15 206 -1 105 -5 191 -9 191 -5 0 -8 -73 -7 -162z"/>
<path d="M4135 1260 c-9 -14 4 -68 17 -76 7 -5 9 5 4 30 -4 23 -3 36 4 36 5 0
10 5 10 10 0 13 -27 13 -35 0z"/>
<path d="M940 1223 c-8 -21 -15 -59 -15 -84 0 -39 3 -45 18 -41 24 6 31 21 13
28 -20 8 -21 44 -1 70 15 20 20 64 7 64 -4 0 -15 -17 -22 -37z"/>
<path d="M620 1230 c0 -5 5 -10 10 -10 6 0 10 5 10 10 0 6 -4 10 -10 10 -5 0
-10 -4 -10 -10z"/>
<path d="M1583 1185 c0 -33 2 -45 4 -27 2 18 2 45 0 60 -2 15 -4 0 -4 -33z"/>
<path d="M4182 1218 c-7 -7 -11 -28 -11 -47 2 -32 3 -33 6 -8 3 16 11 31 19
34 15 5 20 33 6 33 -4 0 -13 -5 -20 -12z"/>
<path d="M4333 1213 c-34 -17 -43 -33 -20 -33 8 0 28 -7 46 -16 24 -12 36 -13
44 -5 7 7 14 7 23 0 15 -12 26 2 15 19 -5 9 -15 10 -32 4 -13 -5 -35 -6 -49
-2 l-25 7 28 12 c16 6 33 11 38 11 6 0 7 5 4 10 -9 14 -35 11 -72 -7z"/>
<path d="M4505 1142 c0 -121 -23 -189 -84 -252 -26 -28 -42 -50 -36 -50 18 0
102 87 108 112 3 13 12 49 20 82 16 61 16 171 1 186 -5 5 -9 -28 -9 -78z"/>
<path d="M657 1213 c-4 -3 -7 -14 -7 -24 0 -10 -6 -22 -13 -26 -18 -11 -7
-132 17 -188 35 -83 41 -95 48 -95 11 0 11 1 -17 64 -26 60 -51 188 -40 207 4
6 18 8 32 5 13 -4 29 -3 36 1 8 5 1 10 -18 13 -24 4 -29 10 -27 28 3 23 0 27
-11 15z"/>
<path d="M1301 1201 c-8 -14 -7 -22 4 -31 8 -7 18 -30 21 -51 9 -52 20 -49 27
6 11 75 -25 127 -52 76z"/>
<path d="M1111 1185 c-23 -14 -49 -25 -55 -25 -22 0 -81 -33 -67 -38 7 -2 18
1 24 7 6 6 21 11 33 11 13 0 26 5 29 10 4 6 11 8 16 5 5 -4 12 1 15 9 3 9 11
16 18 16 6 0 20 7 30 15 31 23 5 17 -43 -10z"/>
<path d="M3697 1198 c6 -7 14 -26 18 -43 4 -16 10 -24 12 -17 6 17 -16 72 -29
72 -7 0 -7 -4 -1 -12z"/>
<path d="M2060 1180 c-4 -66 -5 -287 -1 -298 3 -11 5 -11 12 0 11 16 10 264
-1 298 l-8 25 -2 -25z"/>
<path d="M3050 1053 c0 -81 5 -155 10 -163 6 -10 10 37 10 142 0 94 -4 159
-10 163 -6 4 -10 -46 -10 -142z"/>
<path d="M4000 1195 c0 -2 20 -18 44 -35 31 -21 47 -27 52 -19 4 7 3 9 -4 5
-6 -3 -13 -2 -16 3 -7 10 -76 53 -76 46z"/>
<path d="M2543 1172 c-25 -4 -31 -30 -12 -49 9 -9 0 -23 -35 -58 -25 -26 -46
-55 -46 -66 0 -26 23 -69 49 -93 11 -10 18 -23 15 -27 -3 -5 5 -8 17 -6 12 1
24 -4 27 -12 3 -8 0 -11 -6 -7 -6 3 -14 1 -17 -5 -5 -7 1 -9 15 -7 17 2 27 -7
48 -47 45 -82 66 -115 75 -115 5 0 -8 30 -29 68 -21 37 -46 82 -56 100 l-18
32 28 2 c15 0 32 1 39 1 6 0 9 5 7 12 -3 7 6 33 20 59 24 46 25 49 8 74 -32
49 -94 102 -119 102 -15 0 -23 5 -21 12 3 8 19 12 42 10 27 -3 37 0 34 9 -4
13 -27 17 -65 11z m37 -86 c0 -8 8 -13 17 -12 10 0 19 -8 21 -19 4 -17 2 -18
-12 -6 -23 19 -29 9 -10 -18 10 -14 22 -20 32 -16 18 7 33 -12 25 -32 -4 -10
-9 -11 -18 -3 -9 7 -16 6 -25 -5 -7 -8 -9 -15 -4 -15 5 0 10 -11 10 -25 1 -14
-2 -25 -7 -25 -15 0 -23 -2 -46 -11 -15 -5 -25 -4 -29 3 -4 7 -2 14 4 16 7 2
12 15 12 28 0 14 -4 22 -10 19 -9 -5 -15 16 -11 38 1 5 -3 5 -10 2 -6 -4 -8
-18 -5 -30 9 -34 -12 -41 -25 -8 -12 33 -3 57 38 102 30 33 53 40 53 17z"/>
<path d="M2547 1064 c-7 -7 13 -54 23 -54 4 0 5 14 2 30 -4 29 -12 37 -25 24z"/>
<path d="M2550 993 c0 -10 28 -32 34 -26 11 11 6 21 -14 26 -11 3 -20 3 -20 0z"/>
<path d="M2562 939 c2 -7 10 -15 17 -17 8 -3 12 1 9 9 -2 7 -10 15 -17 17 -8
3 -12 -1 -9 -9z"/>
<path d="M2755 1125 c-54 -49 -60 -53 -67 -35 -4 11 -14 20 -22 20 -11 0 -12
-5 -3 -25 7 -14 20 -25 29 -25 10 0 46 27 80 60 79 74 64 78 -17 5z"/>
<path d="M730 1161 c0 -5 5 -13 10 -16 6 -4 10 -25 9 -48 -2 -40 23 -110 59
-165 27 -42 24 -15 -7 56 -17 39 -34 94 -38 123 -5 29 -14 54 -21 57 -6 2 -12
-1 -12 -7z"/>
<path d="M837 1163 c-9 -14 12 -119 31 -163 13 -27 17 -31 20 -16 2 10 -1 23
-7 29 -14 14 -14 30 -1 22 16 -10 12 11 -5 25 -19 16 -19 30 -1 30 8 0 20 -19
27 -44 7 -25 16 -43 19 -41 14 9 -5 85 -21 85 -5 0 -9 6 -9 14 0 21 -45 71
-53 59z m33 -49 c0 -8 -4 -12 -10 -9 -5 3 -10 13 -10 21 0 8 5 12 10 9 6 -3
10 -13 10 -21z"/>
<path d="M4207 1148 c-4 -13 0 -29 8 -38 17 -19 20 -44 5 -35 -5 3 -10 -3 -10
-14 0 -11 4 -22 9 -26 14 -8 25 58 15 87 -4 12 -7 29 -6 36 5 22 -15 13 -21
-10z"/>
<path d="M4460 1163 c-3 -88 -37 -192 -86 -260 -9 -13 -12 -23 -7 -23 16 0 61
71 78 120 19 56 34 170 23 170 -4 0 -8 -3 -8 -7z"/>
<path d="M673 1124 c3 -11 8 -32 12 -49 14 -63 89 -204 102 -191 3 3 -4 17
-15 31 -21 26 -82 176 -82 200 0 8 -5 17 -11 21 -7 4 -9 0 -6 -12z"/>
<path d="M3021 1079 c0 -35 4 -86 9 -114 5 -34 6 -14 3 60 -6 121 -13 155 -12
54z"/>
<path d="M3677 1134 c-4 -4 -7 -22 -7 -40 0 -27 13 -45 75 -108 71 -72 95 -89
95 -66 0 8 -34 42 -100 100 -21 18 -22 21 -5 15 15 -4 11 3 -13 25 -18 17 -30
36 -27 41 8 12 -9 42 -18 33z"/>
<path d="M4392 1104 c-1 -22 -9 -64 -18 -93 -8 -29 -13 -55 -10 -58 10 -11 37
108 33 149 l-4 43 -1 -41z"/>
<path d="M1009 1113 c-13 -15 -12 -15 9 -4 23 12 28 21 13 21 -5 0 -15 -7 -22
-17z"/>
<path d="M3910 1097 c-11 -28 -18 -36 -32 -31 -20 6 -24 -6 -6 -24 9 -9 17 -3
35 24 14 19 23 43 21 52 -3 11 -9 4 -18 -21z"/>
<path d="M4130 1121 c0 -11 26 -22 34 -14 12 12 5 23 -14 23 -11 0 -20 -4 -20
-9z"/>
<path d="M727 1099 c4 -13 8 -18 11 -10 2 7 -1 18 -6 23 -8 8 -9 4 -5 -13z"/>
<path d="M3715 1110 c3 -5 8 -10 11 -10 2 0 4 5 4 10 0 6 -5 10 -11 10 -5 0
-7 -4 -4 -10z"/>
<path d="M3960 1112 c0 -12 19 -26 26 -19 2 2 -2 10 -11 17 -9 8 -15 8 -15 2z"/>
<path d="M2870 1100 c0 -5 7 -7 15 -4 8 4 15 8 15 10 0 2 -7 4 -15 4 -8 0 -15
-4 -15 -10z"/>
<path d="M4266 1102 c-3 -5 -3 -17 -2 -28 2 -10 -1 -22 -7 -25 -12 -8 -2 -39
13 -39 5 0 10 22 10 50 0 48 -3 59 -14 42z"/>
<path d="M955 1080 c-25 -27 -12 -37 14 -11 12 12 21 23 21 26 0 11 -18 4 -35
-15z"/>
<path d="M1185 1079 c12 -39 27 -48 23 -15 -2 16 -9 31 -17 34 -10 3 -11 -2
-6 -19z"/>
<path d="M1304 1055 c-4 -14 -3 -29 0 -33 9 -8 26 18 26 41 0 26 -19 20 -26
-8z"/>
<path d="M3995 1069 c-4 -6 -4 -13 -1 -16 3 -4 6 -1 6 6 0 7 5 9 12 5 7 -4 8
-3 4 4 -9 15 -13 15 -21 1z"/>
<path d="M1343 1058 c2 -7 15 -12 28 -10 20 3 15 -6 -35 -57 -57 -57 -68 -79
-34 -66 13 5 128 128 128 137 0 2 -21 4 -46 6 -33 2 -45 -1 -41 -10z"/>
<path d="M2350 1061 c0 -6 4 -13 10 -16 6 -3 7 1 4 9 -7 18 -14 21 -14 7z"/>
<path d="M3627 1062 c-16 -25 42 -112 75 -112 11 0 16 -4 13 -10 -3 -5 -16
-10 -28 -10 -27 0 -83 -43 -74 -57 5 -7 19 -5 44 8 49 25 96 24 165 -4 47 -20
55 -26 45 -38 -7 -7 -2 -5 10 5 26 22 46 13 38 -17 l-5 -22 11 22 c16 30 5 56
-21 48 -33 -10 -149 52 -204 109 -27 28 -52 60 -56 70 -4 12 -9 15 -13 8z"/>
<path d="M3810 1061 c0 -5 5 -13 10 -16 6 -3 10 -2 10 4 0 5 -4 13 -10 16 -5
3 -10 2 -10 -4z"/>
<path d="M2242 1030 c0 -14 2 -19 5 -12 2 6 2 18 0 25 -3 6 -5 1 -5 -13z"/>
<path d="M2708 1038 c-9 -23 3 -38 29 -38 21 0 24 -2 13 -15 -7 -8 -23 -15
-36 -15 -13 0 -24 -4 -24 -10 0 -13 10 -13 49 1 19 7 31 18 31 29 0 20 -23 43
-33 33 -4 -3 -7 1 -7 10 0 20 -16 23 -22 5z"/>
<path d="M4050 995 c54 -61 68 -74 100 -100 14 -11 7 0 -15 25 -50 55 -54 59
-95 95 -27 24 -25 20 10 -20z"/>
<path d="M1125 1020 c-3 -5 -1 -10 4 -10 6 0 11 5 11 10 0 6 -2 10 -4 10 -3 0
-8 -4 -11 -10z"/>
<path d="M1585 1018 c-2 -7 -6 -40 -9 -73 -3 -33 -8 -73 -11 -90 -5 -29 -5
-29 5 -5 6 13 14 59 18 102 8 73 7 95 -3 66z"/>
<path d="M830 991 c0 -11 5 -23 10 -26 6 -3 10 3 10 14 0 11 -4 23 -10 26 -5
3 -10 -3 -10 -14z"/>
<path d="M1093 988 c-13 -21 -10 -58 5 -58 13 0 42 23 42 33 0 3 -9 7 -21 10
-12 3 -18 10 -14 16 3 6 4 11 1 11 -3 0 -8 -6 -13 -12z"/>
<path d="M4311 974 c0 -11 3 -14 6 -6 3 7 2 16 -1 19 -3 4 -6 -2 -5 -13z"/>
<path d="M1015 938 c-42 -34 -85 -76 -85 -84 0 -8 8 -4 23 11 13 12 19 12 53
-5 21 -11 57 -20 80 -20 44 0 41 -3 112 90 26 34 11 42 -16 8 -9 -12 -30 -36
-47 -55 l-30 -33 -57 16 c-32 9 -58 20 -58 24 0 16 39 42 52 34 7 -5 24 -9 38
-10 14 -1 17 0 8 3 -10 2 -18 8 -18 13 0 5 -7 7 -15 4 -18 -7 -20 7 -3 24 23
23 2 12 -37 -20z"/>
<path d="M2350 960 c0 -13 11 -13 30 0 12 8 11 10 -7 10 -13 0 -23 -4 -23 -10z"/>
<path d="M2403 950 c1 -11 7 -18 13 -16 7 3 20 -4 30 -15 14 -16 15 -19 2 -14
-9 4 -18 0 -22 -10 -3 -9 -33 -58 -66 -109 -33 -51 -60 -101 -60 -112 1 -18 1
-18 12 1 6 11 42 62 80 112 37 51 68 97 68 103 0 5 5 10 11 10 7 0 -2 13 -19
29 -16 16 -28 32 -24 35 3 3 -2 6 -11 6 -10 0 -15 -8 -14 -20z"/>
<path d="M4240 966 c0 -2 7 -7 16 -10 8 -3 12 -2 9 4 -6 10 -25 14 -25 6z"/>
<path d="M1240 935 c5 -14 9 -29 9 -33 -3 -18 5 -19 64 -6 88 19 105 17 133
-11 17 -17 32 -24 45 -20 24 8 25 25 2 25 -10 0 -37 10 -60 22 -42 22 -72 21
-143 -6 -10 -4 -19 4 -28 24 -17 36 -36 41 -22 5z"/>
<path d="M3867 954 c-11 -11 3 -24 18 -18 8 4 12 10 9 15 -6 11 -18 12 -27 3z"/>
<path d="M3931 953 c2 -14 99 -96 105 -90 7 6 -40 53 -59 60 -7 2 -9 8 -5 12
8 9 138 -53 138 -66 0 -4 -22 -11 -50 -15 -27 -4 -50 -10 -50 -15 0 -11 56 0
103 21 l38 17 -81 41 c-73 38 -142 55 -139 35z"/>
<path d="M4336 935 c-3 -8 -1 -15 4 -15 6 0 10 7 10 15 0 8 -2 15 -4 15 -2 0
-6 -7 -10 -15z"/>
<path d="M1435 930 c28 -12 37 -12 30 0 -3 6 -16 10 -28 9 -21 0 -21 -1 -2 -9z"/>
<path d="M2671 915 c-1 -18 37 -66 136 -175 53 -58 37 -18 -22 56 -109 136
-114 141 -114 119z"/>
<path d="M2865 889 c-6 -9 -4 -232 2 -256 5 -21 25 -34 22 -15 -5 28 3 42 24
43 16 0 18 2 6 7 -10 5 -16 23 -17 57 -1 28 -5 71 -8 98 l-6 47 70 0 c103 0
99 18 -4 22 -47 2 -88 0 -89 -3z"/>
<path d="M1214 877 c-4 -10 -2 -23 3 -28 14 -14 24 13 13 32 -7 11 -10 10 -16
-4z"/>
<path d="M2110 880 c-20 -6 -22 -9 -9 -14 9 -4 20 -6 25 -5 5 1 32 1 59 0 l50
-1 -2 -137 c-2 -76 0 -151 2 -168 5 -29 6 -30 55 -27 77 6 98 -11 25 -19 l-60
-7 60 4 c33 2 86 6 118 10 l57 6 0 -50 c0 -36 4 -52 16 -56 20 -8 73 -8 112 0
28 6 31 11 37 56 l7 49 108 -6 c71 -5 114 -3 126 4 16 8 11 10 -26 11 -25 0
-89 3 -143 7 l-99 6 3 -54 3 -54 -64 -3 -65 -3 3 56 4 55 -131 0 -130 0 5 153
c3 83 7 162 10 175 4 21 2 22 -63 21 -38 -1 -79 -4 -93 -9z"/>
<path d="M2480 882 c0 -17 29 -47 37 -38 4 5 2 11 -4 13 -7 3 -13 11 -13 19 0
8 -4 14 -10 14 -5 0 -10 -4 -10 -8z"/>
<path d="M3575 881 c-3 -5 -1 -12 5 -16 5 -3 10 1 10 9 0 18 -6 21 -15 7z"/>
<path d="M720 859 c0 -5 5 -7 10 -4 6 3 10 8 10 11 0 2 -4 4 -10 4 -5 0 -10
-5 -10 -11z"/>
<path d="M1245 840 c-11 -13 -15 -24 -9 -29 5 -6 16 0 27 14 21 30 6 42 -18
15z"/>
<path d="M2640 850 c0 -5 5 -10 11 -10 5 0 7 5 4 10 -3 6 -8 10 -11 10 -2 0
-4 -4 -4 -10z"/>
<path d="M4155 850 c-3 -5 1 -10 10 -10 9 0 13 5 10 10 -3 6 -8 10 -10 10 -2
0 -7 -4 -10 -10z"/>
<path d="M4190 856 c0 -2 8 -10 18 -17 15 -13 16 -12 3 4 -13 16 -21 21 -21
13z"/>
<path d="M2492 774 c-45 -79 -39 -91 8 -17 42 65 45 73 32 73 -4 0 -22 -25
-40 -56z"/>
<path d="M851 793 c-10 -26 -10 -27 4 -9 8 11 15 23 15 28 0 15 -7 8 -19 -19z"/>
<path d="M920 811 c26 -16 149 -53 161 -49 6 2 -24 16 -68 31 -81 27 -123 35
-93 18z"/>
<path d="M1165 810 c3 -5 11 -10 16 -10 6 0 7 5 4 10 -3 6 -11 10 -16 10 -6 0
-7 -4 -4 -10z"/>
<path d="M3960 804 c0 -9 5 -14 12 -12 18 6 21 28 4 28 -9 0 -16 -7 -16 -16z"/>
<path d="M4140 810 c-9 -6 -10 -10 -3 -10 6 0 15 5 18 10 8 12 4 12 -15 0z"/>
<path d="M3859 786 c-7 -12 -19 -32 -26 -45 -12 -22 -12 -22 4 -10 23 18 62
62 63 70 0 14 -29 4 -41 -15z"/>
<path d="M1430 765 c-32 -19 -86 -42 -128 -51 -43 -11 -69 -21 -63 -27 10 -10
124 19 161 42 51 32 103 71 94 71 -6 0 -34 -16 -64 -35z"/>
<path d="M4159 795 c-1 -5 0 -14 1 -20 1 -5 -2 -7 -6 -2 -4 4 -14 1 -23 -7
-23 -20 -79 -35 -138 -37 -37 -2 -53 -7 -53 -16 0 -11 11 -13 48 -8 73 9 135
27 162 46 14 9 29 17 33 17 5 0 11 3 13 6 2 3 1 4 -3 1 -3 -3 -12 3 -19 13 -7
9 -14 13 -15 7z"/>
<path d="M1240 770 c0 -4 8 -14 17 -21 11 -9 14 -10 9 -2 -5 10 1 11 24 7 23
-5 30 -3 30 9 0 12 -10 16 -40 15 -22 0 -40 -4 -40 -8z"/>
<path d="M3925 770 c-3 -5 1 -13 10 -16 22 -9 29 1 11 15 -10 8 -16 9 -21 1z"/>
<path d="M4280 766 c0 -8 -7 -16 -15 -20 -8 -3 -15 -10 -15 -16 0 -16 -42 -55
-78 -74 -74 -38 -217 -48 -317 -22 -75 20 -101 20 -55 0 47 -21 63 -24 142
-31 65 -5 161 7 217 28 14 6 27 10 29 9 3 -1 26 19 74 68 36 35 50 72 28 72
-5 0 -10 -6 -10 -14z"/>
<path d="M975 760 c3 -5 14 -10 23 -10 15 0 15 2 2 10 -20 13 -33 13 -25 0z"/>
<path d="M880 751 c0 -11 125 -59 193 -73 48 -10 59 -10 72 3 13 13 10 14 -24
11 -41 -4 -99 10 -188 47 -29 11 -53 17 -53 12z"/>
<path d="M1200 720 c0 -22 5 -40 10 -40 6 0 10 18 10 40 0 22 -4 40 -10 40 -5
0 -10 -18 -10 -40z"/>
<path d="M3780 756 c0 -7 40 -14 44 -7 3 4 -6 8 -20 9 -13 1 -24 0 -24 -2z"/>
<path d="M1075 740 c3 -5 8 -10 11 -10 2 0 4 5 4 10 0 6 -5 10 -11 10 -5 0 -7
-4 -4 -10z"/>
<path d="M1110 740 c0 -5 6 -10 14 -10 8 0 18 5 21 10 3 6 -3 10 -14 10 -12 0
-21 -4 -21 -10z"/>
<path d="M3903 738 c-19 -31 10 -79 55 -90 33 -9 161 20 215 49 26 15 46 28
44 30 -2 1 -31 -8 -64 -21 -33 -14 -89 -30 -125 -37 -57 -11 -67 -10 -92 6
-22 15 -26 23 -21 46 7 30 2 38 -12 17z"/>
<path d="M840 732 c1 -16 99 -72 162 -92 98 -31 105 -20 10 14 -45 15 -102 41
-127 57 -25 16 -45 25 -45 21z"/>
<path d="M1167 725 c-4 -8 -2 -17 3 -20 6 -4 10 3 10 14 0 25 -6 27 -13 6z"/>
<path d="M2272 700 c0 -14 2 -19 5 -12 2 6 2 18 0 25 -3 6 -5 1 -5 -13z"/>
<path d="M2385 610 c-11 -12 -31 -20 -52 -20 -18 0 -33 -4 -33 -9 0 -5 16 -9
35 -8 19 1 35 4 35 8 0 3 21 12 46 19 36 10 47 11 54 1 5 -10 9 -9 13 2 8 21
-1 27 -43 27 -24 0 -43 -7 -55 -20z"/>
<path d="M2580 619 l-85 -5 88 -2 c69 -2 87 -5 87 -17 0 -9 6 -12 16 -8 13 5
13 7 2 14 -10 7 -9 9 5 9 9 0 25 -8 35 -18 13 -13 35 -19 70 -21 65 -2 68 14
6 23 -26 3 -52 10 -58 15 -17 13 -72 17 -166 10z"/>
<path d="M2890 565 c0 -14 5 -25 10 -25 6 0 10 5 10 11 0 5 5 7 10 4 13 -8 8
18 -5 27 -18 13 -25 8 -25 -17z"/>
<path d="M2543 523 c15 -2 37 -2 50 0 12 2 0 4 -28 4 -27 0 -38 -2 -22 -4z"/>
</g>
</svg>
