<?xml version="1.0" standalone="no"?>
<!DOCTYPE svg PUBLIC "-//W3C//DTD SVG 20010904//EN"
 "http://www.w3.org/TR/2001/REC-SVG-20010904/DTD/svg10.dtd">
<svg version="1.0" xmlns="http://www.w3.org/2000/svg"
 width="512.000000pt" height="768.000000pt" viewBox="0 0 512.000000 768.000000"
 preserveAspectRatio="xMidYMid meet">
<metadata>
Created by potrace 1.16, written by Peter Selinger 2001-2019
</metadata>
<g transform="translate(0.000000,768.000000) scale(0.100000,-0.100000)"
fill="#000000" stroke="none">
<path d="M1884 7667 c-8 -22 2 -62 17 -65 9 -2 14 7 14 27 0 16 -2 29 -5 29
-19 -1 -23 4 -10 12 10 7 11 10 2 10 -7 0 -15 -6 -18 -13z"/>
<path d="M2899 7604 c0 -43 0 -134 1 -201 1 -96 -2 -123 -12 -123 -9 0 -10 -2
-2 -8 11 -6 16 -394 14 -1122 -2 -735 -5 -828 -26 -745 -3 14 -10 25 -14 25
-5 0 -26 16 -47 36 -21 20 -63 49 -93 63 -48 23 -68 26 -160 26 -122 0 -159
-14 -236 -90 -25 -25 -47 -45 -49 -45 -2 0 -3 29 -2 64 1 35 -1 62 -5 59 -5
-2 -8 3 -8 11 0 9 5 16 10 16 14 0 12 37 -2 43 -10 4 -10 6 0 6 7 1 12 15 12
37 0 21 -4 33 -10 29 -5 -3 -10 -1 -10 4 0 6 5 11 11 11 7 0 9 12 7 30 -3 17
-1 33 3 36 5 2 6 11 3 19 -4 8 -11 12 -16 9 -6 -4 -3 5 7 19 15 24 15 26 -2
35 -15 9 -16 12 -3 16 16 7 19 53 4 77 -12 20 -14 40 -3 33 9 -5 12 28 11 106
-2 166 -7 248 -14 243 -5 -3 -4 5 4 16 11 18 11 23 -2 31 -10 6 -11 10 -2 10
19 0 14 30 -5 30 -17 1 -17 1 0 14 12 9 17 27 17 57 0 31 -3 40 -10 29 -5 -8
-12 -12 -15 -9 -9 9 6 40 16 33 5 -3 9 60 8 148 0 84 -3 147 -6 141 -2 -7 -9
-13 -15 -13 -6 0 -4 8 5 18 23 25 22 69 0 75 -17 4 -17 5 0 6 14 1 17 10 16
54 -1 28 -4 42 -6 30 -2 -13 -7 -23 -11 -23 -8 0 -10 60 -11 358 -1 162 -4
212 -13 212 -10 0 -13 -129 -11 -617 1 -340 2 -629 3 -643 0 -14 1 -65 1 -115
-1 -49 0 -109 2 -133 1 -23 -1 -42 -5 -42 -3 0 -4 -8 -2 -17 8 -34 9 -223 1
-223 -4 0 -3 -9 3 -20 8 -14 8 -20 0 -20 -7 0 -8 -6 0 -19 5 -11 6 -22 1 -25
-5 -3 -6 -20 -2 -38 4 -18 4 -55 1 -83 -3 -28 -3 -62 0 -76 4 -13 3 -39 -1
-57 -6 -27 -4 -32 7 -28 8 3 14 1 14 -4 0 -6 -4 -10 -9 -10 -16 0 -41 -105
-41 -172 0 -37 -5 -70 -13 -77 -10 -11 -9 -13 1 -7 19 11 26 -21 8 -39 -10
-11 -16 -35 -17 -68 -2 -95 2 -161 10 -171 5 -6 11 -31 15 -56 4 -25 14 -55
22 -67 8 -13 11 -23 6 -23 -15 0 -109 -95 -120 -123 -7 -15 -12 -54 -12 -86 0
-55 -2 -60 -40 -94 -23 -22 -49 -37 -64 -37 -13 0 -75 -26 -138 -57 -107 -55
-113 -60 -116 -91 -3 -28 -7 -33 -23 -29 -10 3 -17 2 -14 -3 4 -6 -16 -20 -30
-20 -1 0 -5 18 -9 40 -3 21 -16 50 -29 62 -12 13 -24 32 -25 43 -2 10 -15 32
-28 48 -13 16 -21 34 -17 40 4 7 8 6 11 -3 10 -39 13 -43 22 -34 7 7 5 27 -4
59 -8 27 -13 51 -11 55 2 3 -5 21 -16 39 -11 18 -15 30 -9 26 7 -4 6 2 -2 14
-7 12 -17 21 -21 21 -5 0 -7 5 -5 12 5 15 -23 44 -51 53 -16 5 -21 2 -22 -12
0 -15 -2 -14 -11 5 -9 17 -19 22 -42 20 -18 -1 -37 1 -43 5 -12 8 -17 474 -5
494 8 13 28 14 216 14 66 0 122 1 124 3 2 2 17 0 33 -4 18 -5 29 -5 29 1 0 6
8 9 18 7 11 -2 26 3 35 11 10 7 17 11 17 7 0 -4 11 1 25 10 14 9 22 20 19 26
-3 5 -17 2 -31 -8 -17 -11 -43 -16 -77 -15 -28 2 -101 3 -163 4 -61 1 -109 5
-106 10 5 9 -27 4 -44 -6 -6 -4 -14 -3 -18 3 -3 5 -17 10 -30 10 -14 0 -37 0
-51 0 -30 0 -57 -17 -48 -31 3 -5 1 -9 -4 -9 -13 0 -22 -39 -11 -46 12 -7 12
-64 -1 -64 -5 0 -7 -6 -5 -12 10 -29 12 -108 3 -108 -6 0 -4 -7 3 -17 11 -13
11 -17 1 -20 -6 -3 -9 -10 -5 -16 11 -17 10 -31 -2 -39 -6 -5 -6 -8 3 -8 6 0
12 -5 12 -11 0 -5 -4 -8 -8 -5 -4 2 -8 -4 -8 -14 0 -10 3 -17 6 -15 8 5 5
-127 -4 -152 -4 -15 -2 -30 6 -42 12 -17 25 -20 101 -18 48 1 87 -1 87 -5 0
-5 5 -8 11 -8 5 0 8 4 5 8 -3 5 1 9 8 9 7 0 13 -6 13 -13 0 -7 -4 -11 -9 -8
-13 8 -10 -10 4 -25 11 -11 10 -12 -2 -6 -13 8 -13 6 -2 -8 8 -9 12 -20 9 -24
-2 -4 -1 -17 3 -28 8 -19 8 -19 19 5 10 23 11 23 5 -8 -4 -24 -1 -39 13 -54
10 -12 12 -18 5 -14 -10 6 -12 -1 -9 -26 2 -19 7 -40 12 -47 5 -10 4 -12 -3
-7 -8 5 -10 2 -6 -9 10 -24 -14 -47 -36 -35 -10 6 -30 10 -45 10 -35 0 -170
-71 -220 -115 -78 -70 -305 -299 -305 -308 0 -4 -4 -6 -9 -3 -16 10 -14 -248
3 -288 8 -20 12 -36 8 -36 -3 0 4 -7 16 -16 13 -9 21 -21 19 -28 -3 -6 6 -12
19 -12 49 -3 55 -10 39 -41 -19 -36 -19 -69 0 -77 8 -3 15 -13 15 -21 0 -9 -4
-14 -8 -11 -4 2 -8 -3 -9 -12 -3 -42 -8 -62 -14 -62 -4 0 -9 -12 -11 -27 -3
-16 -22 -91 -43 -168 -31 -113 -38 -159 -39 -235 -1 -69 -5 -103 -17 -120 -8
-14 -19 -33 -22 -43 -4 -10 -11 -16 -15 -13 -5 3 -8 -5 -8 -17 1 -18 -4 -21
-24 -19 -42 5 -70 -7 -70 -28 0 -11 -4 -20 -10 -20 -5 0 -10 -8 -10 -18 0 -10
-5 -23 -12 -30 -7 -7 -9 -12 -5 -12 4 0 -2 -19 -14 -42 -12 -24 -21 -44 -20
-46 1 -1 -3 -27 -9 -58 -17 -79 -18 -257 -4 -384 11 -95 19 -136 42 -215 6
-21 6 -385 0 -536 -2 -63 1 -90 11 -103 11 -13 14 -61 15 -211 1 -107 5 -197
9 -201 4 -4 7 -14 7 -21 0 -8 10 -29 23 -46 13 -18 29 -50 36 -72 19 -56 70
-133 94 -141 11 -4 32 -17 46 -30 14 -13 33 -24 41 -24 9 0 26 -7 38 -16 25
-17 43 -22 123 -30 49 -6 61 -3 87 16 17 13 34 30 37 38 12 31 -48 217 -66
206 -4 -2 -10 0 -14 6 -3 5 -17 10 -31 10 -36 0 -61 28 -70 80 -8 45 -8 56 1
98 5 22 34 32 36 12 3 -19 5 -25 22 -58 10 -18 15 -37 12 -42 -3 -6 -1 -10 4
-10 6 0 11 -6 11 -14 0 -21 50 -73 82 -85 38 -14 86 -3 94 21 7 22 -13 115
-27 124 -5 3 -9 15 -9 27 0 12 -11 52 -24 90 -14 37 -23 67 -21 67 2 0 -9 25
-26 56 -16 31 -29 63 -29 71 0 8 -22 36 -50 63 -55 53 -55 53 -51 224 3 122
76 428 113 473 6 7 8 13 4 13 -4 0 3 18 14 40 22 44 46 129 55 200 12 89 13
98 20 131 4 19 10 38 13 44 10 16 2 128 -12 175 -11 36 -11 51 -1 75 7 17 17
44 22 60 5 17 15 29 22 27 7 -1 10 2 7 7 -9 14 5 42 18 34 6 -3 8 -3 4 1 -3 4
5 29 18 56 13 26 24 52 24 56 0 16 67 94 74 86 4 -3 4 1 1 11 -4 9 6 43 23 79
16 35 39 89 52 121 12 31 24 57 25 57 2 0 9 -26 15 -57 18 -87 72 -257 97
-308 22 -43 72 -115 106 -152 19 -20 27 -38 23 -48 -3 -9 -2 -13 4 -10 5 3 13
-13 16 -35 4 -23 18 -58 32 -78 23 -35 25 -44 23 -148 -2 -103 -7 -139 -26
-186 -5 -13 -2 -18 9 -18 27 0 37 47 42 187 5 127 4 135 -20 175 -13 24 -27
59 -31 78 -12 57 -36 110 -50 110 -26 0 -114 162 -150 275 -53 170 -67 240
-59 301 5 44 4 54 -9 54 -8 0 -17 -13 -20 -29 -10 -51 -97 -263 -139 -341 -22
-41 -60 -112 -84 -158 -25 -45 -53 -91 -64 -102 -12 -12 -20 -33 -20 -55 0
-22 -8 -43 -20 -55 l-20 -20 22 -22 c20 -20 21 -23 5 -26 -21 -4 -23 -22 -2
-22 30 0 29 -57 -5 -250 -6 -30 -14 -82 -19 -115 -5 -33 -32 -119 -59 -190
-64 -163 -76 -206 -106 -383 -18 -103 -23 -150 -16 -168 15 -40 12 -102 -5
-112 -13 -7 -12 -10 10 -20 27 -13 32 -27 13 -35 -7 -3 -1 -6 14 -6 43 -1 96
-83 67 -102 -11 -7 -9 -10 8 -15 27 -7 56 -73 41 -91 -8 -9 -6 -13 4 -13 10 0
23 -24 37 -67 12 -38 26 -84 33 -103 32 -98 25 -130 -24 -115 -42 13 -76 56
-113 146 -28 65 -43 89 -56 89 -25 0 -49 -27 -49 -56 0 -14 -5 -34 -10 -45 -8
-13 -7 -25 0 -39 6 -12 14 -40 18 -63 l8 -42 54 -8 c67 -9 89 -31 62 -60 -16
-19 -16 -20 6 -14 28 7 40 -16 22 -39 -11 -12 -10 -17 8 -30 29 -20 28 -40 -5
-69 -26 -23 -34 -25 -93 -19 -36 4 -79 15 -96 25 -17 11 -39 19 -47 19 -9 0
-26 11 -39 24 -13 13 -32 26 -43 28 -11 2 -21 12 -24 23 -2 11 -11 25 -21 32
-9 7 -28 41 -40 75 -13 35 -31 72 -42 84 -10 11 -18 27 -18 35 0 9 -3 19 -7
23 -6 6 -7 361 -1 384 2 6 -5 17 -16 25 -21 15 -20 -2 -11 374 6 213 5 238
-14 305 -37 136 -51 361 -31 514 8 63 69 244 91 268 4 4 22 0 40 -10 27 -16
33 -17 37 -4 3 8 23 49 44 90 21 41 36 80 34 86 -3 7 2 18 10 24 18 16 18 30
-1 30 -16 0 -18 7 -15 60 2 45 81 344 115 433 25 68 25 93 -1 83 -25 -10 -25
13 1 51 34 51 32 63 -9 63 -28 0 -41 8 -69 40 -31 37 -35 48 -40 123 -12 152
-11 163 29 207 38 42 54 50 54 25 0 -8 5 -15 10 -15 14 0 13 13 -2 29 -11 10
14 38 123 144 114 111 150 139 220 175 94 47 104 49 117 26 7 -13 13 -14 30
-5 28 15 26 15 67 -20 26 -23 35 -39 35 -63 0 -17 3 -41 6 -53 l6 -21 35 24
c20 13 44 24 54 24 15 0 19 8 19 35 0 34 1 36 111 91 69 34 119 54 132 50 13
-3 35 8 67 36 47 41 49 43 55 112 4 39 14 85 21 101 14 29 110 112 119 103 12
-12 55 -101 55 -114 0 -7 5 -14 10 -14 6 0 10 5 10 11 0 10 -60 133 -96 199
-7 14 -14 34 -14 45 0 11 -7 42 -15 69 -8 27 -15 70 -15 95 0 86 22 122 34 56
4 -19 12 -37 18 -41 8 -5 9 -2 5 9 -17 45 -29 159 -24 233 4 67 10 93 32 131
55 95 129 154 225 179 153 39 319 -45 394 -198 l28 -58 -6 -207 c-4 -114 -3
-204 0 -200 4 4 8 37 10 74 1 38 3 79 3 92 1 20 4 22 13 13 21 -21 8 -161 -22
-237 -4 -11 -13 -39 -20 -62 -7 -24 -17 -43 -22 -43 -11 0 -10 10 8 64 9 26
14 49 11 52 -3 3 -14 -22 -25 -55 -11 -34 -16 -61 -11 -61 15 0 -19 -71 -47
-97 -14 -13 -24 -31 -22 -40 6 -34 24 -21 53 37 17 33 34 60 38 60 15 0 93
-49 116 -74 20 -21 24 -37 25 -100 1 -71 3 -77 36 -111 19 -19 49 -41 67 -47
21 -8 33 -19 33 -31 0 -10 5 -15 10 -12 6 4 8 11 5 16 -13 20 26 7 124 -41 95
-46 103 -52 97 -74 -5 -21 -1 -26 27 -35 19 -7 55 -25 82 -42 27 -17 57 -28
69 -26 21 3 21 4 -2 13 l-24 10 24 30 c13 16 36 48 52 72 16 23 34 42 41 42
19 0 118 -36 160 -58 72 -38 340 -297 375 -362 7 -14 12 -63 12 -123 -1 -97
-2 -101 -36 -153 -33 -49 -39 -53 -78 -56 -37 -3 -43 -6 -40 -23 2 -11 16 -33
30 -48 22 -23 24 -30 13 -37 -12 -7 -11 -18 9 -67 36 -93 80 -223 97 -291 13
-54 14 -67 2 -88 -10 -20 -11 -29 -1 -42 48 -66 67 -154 35 -166 -14 -6 -14
-9 4 -25 11 -11 37 -49 57 -85 20 -36 39 -66 42 -66 3 0 12 7 21 15 24 24 45
14 60 -30 7 -21 22 -49 33 -60 21 -22 28 -75 10 -75 -5 0 -10 -20 -10 -45 0
-25 5 -45 10 -45 6 0 10 20 10 45 0 25 4 45 9 45 18 0 24 -97 17 -300 -5 -167
-10 -219 -28 -280 -19 -64 -22 -101 -22 -260 -1 -102 3 -236 8 -298 9 -109 8
-113 -13 -136 -14 -14 -18 -26 -12 -30 6 -4 8 -29 5 -59 -2 -28 -6 -108 -8
-177 -1 -69 -8 -138 -15 -154 -7 -17 -25 -60 -41 -97 -17 -37 -30 -70 -30 -74
0 -11 -62 -68 -91 -85 -129 -74 -195 -100 -251 -100 -62 0 -82 16 -58 45 10
12 9 16 -6 22 -25 9 -33 21 -26 45 8 30 47 51 90 46 35 -3 38 -2 28 14 -17 28
4 52 48 56 28 2 36 8 36 22 0 11 7 40 15 65 14 40 14 50 1 96 -18 60 -32 79
-56 79 -13 0 -23 -14 -34 -45 -9 -25 -24 -65 -33 -90 -26 -74 -113 -134 -129
-90 -3 8 13 76 35 152 23 76 41 149 41 161 0 13 6 36 14 50 8 15 17 39 20 53
6 29 81 109 102 109 10 0 11 6 4 26 -11 27 -4 74 11 74 13 0 11 74 -6 191 -25
162 -51 255 -105 369 -53 111 -72 176 -90 305 -6 44 -18 109 -26 145 -9 36
-14 86 -12 110 2 38 7 46 25 48 22 3 22 4 7 34 -11 21 -15 46 -11 74 4 39 2
43 -16 41 -27 -3 -91 102 -91 149 0 25 -4 33 -15 31 -32 -5 -176 296 -188 395
-7 53 -19 78 -38 78 -12 0 -15 -15 -15 -69 0 -158 -142 -523 -213 -550 -25
-10 -67 -102 -67 -146 0 -13 -6 -28 -13 -32 -26 -17 -36 -77 -32 -200 3 -80
10 -135 20 -159 16 -40 10 -54 -26 -54 -9 0 -22 -6 -28 -14 -10 -12 -5 -13 31
-5 23 6 48 15 55 20 13 12 7 65 -10 87 -7 8 -11 70 -12 149 0 117 2 136 17
144 10 5 20 26 24 47 4 20 11 43 17 50 5 6 7 12 3 12 -13 0 33 76 54 88 12 8
19 9 15 3 -3 -6 -4 -11 -1 -11 3 0 32 55 65 123 56 113 121 310 121 365 0 33
17 27 24 -10 9 -48 127 -294 156 -326 8 -10 32 -52 53 -95 21 -42 46 -82 56
-89 10 -7 21 -30 25 -51 7 -38 0 -81 -12 -73 -8 5 3 -154 17 -244 25 -163 61
-293 105 -384 19 -39 42 -96 52 -126 9 -30 19 -62 22 -70 3 -8 6 -22 8 -30 45
-236 52 -308 31 -316 -11 -4 -15 -18 -14 -45 1 -36 -4 -45 -51 -91 -39 -38
-52 -58 -52 -79 0 -16 -4 -29 -9 -29 -11 0 -20 -32 -27 -100 -3 -30 -10 -57
-15 -58 -5 -2 -9 -15 -9 -28 0 -13 -4 -24 -10 -24 -5 0 -10 -11 -10 -24 0 -13
-7 -43 -15 -66 -19 -54 -19 -94 0 -110 25 -21 86 -5 116 30 26 29 31 39 65
133 19 54 32 66 40 40 3 -10 10 -26 15 -35 12 -23 11 -46 -2 -108 -10 -45 -13
-50 -37 -50 -32 0 -42 -7 -65 -43 -11 -17 -26 -27 -41 -27 -33 0 -74 -60 -68
-100 2 -16 8 -30 12 -30 5 0 11 -13 15 -29 7 -33 26 -41 95 -41 38 0 154 27
125 29 -9 1 12 13 127 73 52 28 96 86 134 181 19 45 38 89 43 98 5 9 10 70 10
135 1 160 10 251 27 299 10 26 12 55 8 85 -4 25 -9 146 -11 269 -4 203 -2 231
16 300 34 125 49 523 22 588 -6 15 -13 39 -16 52 -2 13 -11 33 -18 45 -8 11
-15 26 -16 31 -1 6 -8 17 -16 25 -7 8 -16 25 -20 38 -6 20 -12 23 -47 20 -39
-2 -41 -1 -71 52 -22 39 -30 69 -32 109 -1 33 -11 76 -24 104 -20 44 -29 105
-31 210 -1 15 -5 27 -11 27 -6 0 -9 6 -6 13 2 6 -2 19 -10 28 -7 9 -16 39 -20
67 -3 28 -9 49 -13 47 -13 -8 -32 51 -35 105 -2 36 -9 58 -24 74 -26 27 -26
35 -3 34 35 -3 69 12 82 37 10 19 16 22 23 13 6 -9 7 -8 3 5 -3 10 0 30 8 45
8 17 14 66 15 129 2 121 -12 158 -90 233 -27 26 -46 50 -42 53 3 4 -1 7 -10 7
-10 0 -17 3 -17 8 0 4 -13 22 -30 40 -16 18 -30 30 -30 26 0 -3 -29 22 -65 57
-56 54 -162 119 -196 119 -5 0 -9 3 -9 8 0 4 -23 8 -50 10 -44 3 -53 0 -75
-24 -29 -31 -30 -25 -10 41 8 27 12 52 9 57 -3 4 -1 8 4 8 9 0 27 73 23 97 -1
6 2 14 6 16 5 3 8 26 7 52 -1 31 3 48 12 52 8 3 11 9 9 14 -3 5 11 15 32 24
34 14 39 14 49 0 13 -18 25 -20 22 -4 -2 6 3 14 11 16 9 4 11 0 6 -16 -5 -16
-2 -21 12 -22 10 0 26 -2 36 -4 10 -2 21 3 24 11 3 8 8 12 12 10 3 -2 5 120 4
272 -2 212 0 278 10 284 9 6 9 8 0 8 -7 0 -13 6 -13 13 0 20 -52 46 -91 45
-18 -1 -28 -3 -21 -5 6 -3 12 -9 12 -14 0 -4 -12 -4 -27 2 -21 8 -28 7 -35 -4
-5 -9 -17 -12 -34 -9 -19 3 -25 1 -20 -7 4 -6 1 -11 -7 -11 -22 0 -29 28 -9
34 9 2 4 4 -13 3 -16 -1 -33 -6 -37 -11 -4 -6 -20 -6 -42 1 -20 6 -38 7 -41 2
-3 -4 -22 -8 -42 -7 -20 1 -38 -3 -40 -9 -3 -7 -16 -6 -41 2 -28 10 -39 10
-44 2 -5 -8 -8 -6 -8 6 0 13 6 16 27 13 18 -4 23 -2 16 5 -6 6 -28 11 -50 12
-21 0 -30 2 -20 4 18 5 23 18 8 27 -5 4 -11 1 -13 -6 -3 -7 -7 -3 -10 9 -4 15
-2 20 7 16 10 -3 12 2 8 16 -3 12 -9 21 -14 21 -5 0 -9 10 -9 23 0 18 2 19 10
7 8 -13 10 -12 10 3 0 9 -4 17 -10 17 -6 0 -9 28 -8 68 1 61 2 63 6 17 6 -72
18 -30 13 47 -2 44 -6 57 -12 43 -4 -11 -8 105 -8 258 -1 232 1 277 13 277 10
0 12 7 8 22 -5 21 -6 21 -13 2 -4 -10 -7 35 -8 101 0 214 -12 1189 -14 1234
-2 25 -8 46 -14 48 -8 3 -11 -30 -11 -111 0 -79 4 -116 12 -116 7 0 8 -3 0 -8
-5 -4 -10 -34 -9 -67 1 -33 -2 -67 -6 -76 -5 -9 -6 -19 -2 -22 9 -10 9 -407 0
-407 -5 0 -5 -6 0 -12 12 -19 11 -138 0 -131 -6 4 -7 1 -2 -8 14 -22 15 -540
1 -532 -8 5 -8 3 0 -8 6 -8 10 -35 10 -61 -1 -27 3 -48 9 -48 6 0 7 -3 0 -8
-5 -4 -10 -18 -9 -32 0 -14 -4 -31 -10 -39 -8 -11 -8 -13 0 -8 13 8 16 -296 3
-331 -5 -13 -5 -21 0 -18 4 3 8 -25 7 -62 0 -37 4 -76 8 -87 5 -11 10 -24 11
-30 3 -25 18 -45 33 -45 8 0 13 -3 9 -6 -12 -12 24 -36 48 -32 13 3 22 1 19
-3 -3 -5 -2 -9 3 -10 4 0 17 -2 28 -5 11 -2 107 -4 213 -4 184 -1 192 -1 192
-20 0 -11 6 -20 13 -20 8 0 8 -3 1 -8 -7 -5 -10 -82 -9 -233 l2 -226 -31 2
c-17 2 -35 0 -40 -3 -6 -3 -21 -7 -35 -9 -48 -5 -51 -6 -51 -18 0 -7 -11 -21
-25 -31 -14 -10 -25 -29 -25 -41 0 -13 -4 -23 -10 -23 -5 0 -10 -13 -10 -30 0
-16 -5 -30 -11 -30 -6 0 -9 -10 -8 -22 2 -22 -1 -32 -20 -83 -5 -11 -7 -28 -5
-37 1 -10 -1 -18 -5 -18 -4 0 -7 -27 -6 -60 0 -41 -4 -63 -14 -69 -7 -5 -10
-14 -7 -20 10 -16 -26 -9 -57 12 -15 9 -31 17 -37 17 -5 0 -10 8 -10 18 0 11
-8 26 -19 36 -26 24 -167 90 -226 106 -27 8 -54 18 -60 22 -69 57 -67 54 -71
114 -6 103 -13 122 -49 150 -19 14 -33 30 -30 34 3 4 -1 8 -8 7 -39 -1 -46 4
-42 31 1 15 8 26 14 24 7 -1 11 16 11 45 0 30 3 43 9 35 5 -9 11 14 15 60 12
119 10 165 -6 190 -14 21 -19 72 -28 281 -1 10 -8 21 -16 24 -7 3 -11 9 -8 14
3 5 10 7 15 4 5 -4 9 38 9 102 0 158 8 776 10 788 1 6 1 12 0 15 -1 3 -4 96
-5 208 -2 149 0 202 8 202 9 0 9 2 0 8 -9 6 -20 129 -13 152 4 13 6 76 2 83
-2 4 -4 100 -5 212 -1 129 -6 205 -12 205 -5 0 -3 5 5 10 12 8 13 11 1 19 -11
7 -11 9 0 13 12 4 12 7 0 21 -9 12 -10 17 -2 17 8 0 9 5 2 19 -6 10 -7 21 -4
25 12 12 12 36 0 36 -7 0 -6 5 3 10 13 9 13 11 0 20 -12 8 -12 10 -1 10 11 0
11 3 1 15 -10 12 -10 15 1 15 12 0 12 2 0 9 -11 7 -11 10 0 15 11 5 11 7 1 12
-8 4 -10 10 -3 18 6 7 4 18 -5 30 -13 18 -14 12 -15 -60z m-632 -676 c-3 -7
-5 -2 -5 12 0 14 2 19 5 13 2 -7 2 -19 0 -25z m3 -263 c0 -8 -4 -15 -10 -15
-5 0 -7 7 -4 15 4 8 8 15 10 15 2 0 4 -7 4 -15z m0 -77 c0 -47 -8 -47 -14 0
-3 28 1 42 11 42 2 0 3 -19 3 -42z m-3 -130 c-3 -8 -6 -5 -6 6 -1 11 2 17 5
13 3 -3 4 -12 1 -19z m0 -375 c-2 -16 -4 -5 -4 22 0 28 2 40 4 28 2 -13 2 -35
0 -50z m0 -80 c-3 -10 -5 -2 -5 17 0 19 2 27 5 18 2 -10 2 -26 0 -35z m0 -365
c-3 -8 -6 -5 -6 6 -1 11 2 17 5 13 3 -3 4 -12 1 -19z m1363 -460 c0 -5 -30 -8
-67 -7 -38 0 -60 3 -51 7 23 9 118 9 118 0z m240 -63 c0 -8 -4 -15 -10 -15 -5
0 -7 7 -4 15 4 8 8 15 10 15 2 0 4 -7 4 -15z m0 -49 c0 -3 -4 -8 -10 -11 -5
-3 -10 -1 -10 4 0 6 5 11 10 11 6 0 10 -2 10 -4z"/>
<path d="M2222 7605 c1 -38 5 -55 14 -55 9 0 12 16 12 55 -1 36 -6 55 -14 55
-8 0 -12 -18 -12 -55z"/>
<path d="M3255 7624 c-3 -19 -3 -39 0 -44 3 -6 1 -10 -6 -10 -7 0 -8 -4 -2
-12 5 -7 8 -25 7 -40 -2 -14 3 -29 10 -31 10 -4 12 13 11 71 -1 43 2 80 7 83
6 3 3 9 -5 12 -11 4 -17 -4 -22 -29z"/>
<path d="M1886 7581 c-4 -5 -2 -12 4 -16 5 -3 10 -13 10 -21 0 -8 -4 -13 -9
-9 -5 3 -13 0 -17 -6 -5 -8 -3 -9 5 -4 9 5 12 1 10 -11 -2 -11 0 -25 4 -31 6
-9 2 -13 -10 -13 -10 0 -14 -3 -8 -8 13 -9 14 -1832 1 -1832 -5 0 -4 -6 1 -12
15 -20 16 -88 1 -88 -8 0 -9 -3 -3 -8 15 -11 18 -44 5 -52 -9 -6 -9 -13 0 -31
10 -17 10 -24 1 -27 -6 -2 -11 -8 -11 -13 0 -6 5 -7 10 -4 6 3 10 0 10 -9 0
-8 -5 -16 -11 -18 -8 -3 -9 -10 -2 -23 5 -11 9 -33 7 -50 -1 -16 -3 -36 -3
-42 -1 -7 -9 -13 -18 -13 -17 -1 -16 -2 1 -11 28 -17 47 10 53 77 9 97 9 1438
1 1450 -5 6 -4 23 2 38 5 14 6 26 2 26 -7 0 -8 57 -1 64 2 2 2 51 -1 108 -3
56 -4 107 -1 112 2 6 4 44 2 85 -1 42 -3 110 -4 151 -1 41 -6 78 -12 82 -6 5
-6 8 2 8 10 0 9 43 -2 78 -2 6 0 12 5 12 12 0 6 63 -7 67 -6 2 -14 0 -17 -6z"/>
<path d="M2271 7104 c0 -11 3 -14 6 -6 3 7 2 16 -1 19 -3 4 -6 -2 -5 -13z"/>
<path d="M3312 6550 c0 -14 2 -19 5 -12 2 6 2 18 0 25 -3 6 -5 1 -5 -13z"/>
<path d="M3313 6475 c0 -27 2 -38 4 -22 2 15 2 37 0 50 -2 12 -4 0 -4 -28z"/>
<path d="M3311 6384 c0 -11 3 -14 6 -6 3 7 2 16 -1 19 -3 4 -6 -2 -5 -13z"/>
<path d="M3306 6315 c4 -8 8 -15 10 -15 2 0 4 7 4 15 0 8 -4 15 -10 15 -5 0
-7 -7 -4 -15z"/>
<path d="M3950 6180 l-85 -6 88 -2 c52 -1 87 2 87 8 0 6 -1 9 -2 8 -2 -1 -41
-5 -88 -8z"/>
<path d="M840 6165 c-6 -8 -10 -22 -8 -32 3 -15 12 -18 53 -16 28 1 237 2 467
3 358 0 418 3 429 16 9 12 10 17 0 27 -16 16 -293 18 -303 3 -5 -8 -8 -7 -8 0
0 7 -27 12 -76 13 -49 1 -73 -2 -69 -9 3 -6 -4 -10 -17 -10 -17 0 -19 3 -9 9
8 5 -4 9 -35 9 -28 1 -51 -4 -56 -11 -6 -9 -8 -9 -8 1 0 6 -11 12 -25 12 -14
0 -25 -6 -25 -12 0 -9 -3 -9 -8 -3 -4 6 -27 10 -52 9 -137 -5 -221 -5 -229 0
-5 3 -14 -1 -21 -9z m347 -1 c-3 -3 -12 -4 -19 -1 -8 3 -5 6 6 6 11 1 17 -2
13 -5z m86 -1 c3 -5 -6 -8 -19 -8 -13 0 -24 3 -24 8 0 4 9 7 19 7 11 0 22 -3
24 -7z m98 -6 c-7 -7 -14 -8 -21 -1 -6 6 -2 10 12 11 16 2 18 -1 9 -10z"/>
<path d="M3483 6164 c-3 -9 -2 -23 3 -31 8 -13 89 -15 609 -13 330 2 646 3
703 3 56 -1 102 3 102 8 0 5 -9 9 -21 9 -11 0 -30 5 -41 11 -16 9 -19 8 -12
-3 6 -10 5 -11 -7 -2 -9 7 -54 10 -121 8 -90 -3 -108 -1 -108 11 0 8 -4 15
-10 15 -5 0 -7 -6 -4 -13 4 -11 -15 -13 -88 -11 -161 4 -353 6 -358 4 -3 -1
-66 -3 -141 -4 -109 -2 -136 1 -132 11 4 10 -21 13 -121 13 -115 0 -127 -2
-138 -20 -7 -11 -19 -20 -26 -20 -10 0 -10 4 2 16 9 8 16 17 16 20 0 2 -23 4
-50 4 -38 0 -52 -4 -57 -16z m295 -9 c3 -3 -13 -5 -36 -5 -23 0 -42 4 -42 8 0
9 69 6 78 -3z m62 6 c0 -5 -11 -8 -24 -7 -13 0 -22 4 -19 9 6 10 43 9 43 -2z
m-187 -8 c-7 -2 -21 -2 -30 0 -10 3 -4 5 12 5 17 0 24 -2 18 -5z"/>
<path d="M4058 6173 c7 -3 16 -2 19 1 4 3 -2 6 -13 5 -11 0 -14 -3 -6 -6z"/>
<path d="M4420 6176 c0 -2 18 -6 39 -8 22 -2 37 0 35 4 -5 8 -74 11 -74 4z"/>
<path d="M4628 6173 c6 -2 18 -2 25 0 6 3 1 5 -13 5 -14 0 -19 -2 -12 -5z"/>
<path d="M4928 6143 c7 -3 16 -2 19 1 4 3 -2 6 -13 5 -11 0 -14 -3 -6 -6z"/>
<path d="M4990 6130 c0 -5 5 -10 11 -10 5 0 7 5 4 10 -3 6 -8 10 -11 10 -2 0
-4 -4 -4 -10z"/>
<path d="M4918 6123 c6 -2 18 -2 25 0 6 3 1 5 -13 5 -14 0 -19 -2 -12 -5z"/>
<path d="M5028 6123 c7 -3 16 -2 19 1 4 3 -2 6 -13 5 -11 0 -14 -3 -6 -6z"/>
<path d="M5070 6126 c0 -2 11 -6 25 -8 14 -3 25 -1 25 3 0 5 -11 9 -25 9 -14
0 -25 -2 -25 -4z"/>
<path d="M2851 6104 c0 -11 3 -14 6 -6 3 7 2 16 -1 19 -3 4 -6 -2 -5 -13z"/>
<path d="M3301 5932 c-1 -42 0 -74 4 -71 8 9 13 139 5 144 -4 2 -8 -30 -9 -73z"/>
<path d="M3300 5826 c0 -31 6 -34 13 -6 3 11 1 23 -4 26 -5 3 -9 -6 -9 -20z"/>
<path d="M3301 5750 c1 -42 1 -43 9 -16 6 17 5 36 0 45 -7 11 -9 3 -9 -29z"/>
<path d="M3306 5691 c-4 -7 -5 -15 -2 -18 9 -9 19 4 14 18 -4 11 -6 11 -12 0z"/>
<path d="M3301 5611 c1 -30 5 -47 9 -40 9 14 6 76 -3 86 -4 3 -6 -18 -6 -46z"/>
<path d="M2814 5286 c-3 -8 -4 -23 -1 -33 3 -12 5 -9 6 9 0 14 7 29 14 31 9 4
9 6 -1 6 -7 1 -15 -5 -18 -13z"/>
<path d="M2280 5284 c0 -18 29 -146 34 -152 8 -7 7 3 -5 78 -5 36 -14 69 -20
75 -6 5 -9 5 -9 -1z"/>
<path d="M2562 5247 c-29 -13 -39 -51 -19 -71 20 -21 87 -9 87 15 0 6 -4 7
-10 4 -5 -3 -10 -1 -10 4 0 6 5 11 10 11 6 0 10 5 10 10 0 6 -7 10 -16 10 -8
0 -13 4 -10 9 9 14 -17 19 -42 8z"/>
<path d="M2847 5200 c-4 -14 -6 -38 -6 -55 l1 -30 9 34 c6 18 9 43 7 55 -3 20
-4 19 -11 -4z"/>
<path d="M3675 5210 c-3 -5 3 -10 15 -10 12 0 18 5 15 10 -3 6 -10 10 -15 10
-5 0 -12 -4 -15 -10z"/>
<path d="M3410 5199 c0 -5 5 -7 10 -4 6 3 10 8 10 11 0 2 -4 4 -10 4 -5 0 -10
-5 -10 -11z"/>
<path d="M2257 5120 c3 -41 7 -77 9 -79 8 -9 2 115 -6 134 -6 13 -7 -7 -3 -55z"/>
<path d="M2221 4954 c0 -11 3 -14 6 -6 3 7 2 16 -1 19 -3 4 -6 -2 -5 -13z"/>
<path d="M2705 4960 c-11 -5 -31 -18 -44 -28 l-23 -19 27 -28 c25 -24 33 -27
72 -21 45 6 103 41 103 62 0 35 -85 56 -135 34z"/>
<path d="M2345 4950 c-3 -5 -13 -6 -21 -3 -12 4 -15 0 -12 -17 8 -58 116 -88
176 -50 29 18 32 23 21 36 -22 27 -67 44 -113 44 -25 0 -47 -4 -51 -10z m59
-19 c3 -5 16 -7 29 -4 17 4 19 3 11 -6 -12 -13 -64 -5 -64 10 0 12 17 12 24 0z
m39 -48 c-7 -2 -21 -2 -30 0 -10 3 -4 5 12 5 17 0 24 -2 18 -5z"/>
<path d="M2226 4903 c6 -30 25 -75 35 -83 3 -3 33 -61 67 -130 34 -69 62 -118
62 -109 0 10 -20 57 -45 107 -25 49 -45 93 -45 97 0 4 -11 20 -25 37 -13 16
-29 47 -35 68 -12 45 -24 55 -14 13z"/>
<path d="M2551 4779 c-6 -18 -11 -61 -11 -95 l0 -64 35 0 c23 0 33 4 30 13 -2
6 -6 44 -8 83 -6 99 -25 124 -46 63z m22 -75 l-7 -79 -8 60 c-5 39 -3 68 4 82
17 35 20 22 11 -63z"/>
<path d="M2818 4780 c-44 -100 -58 -141 -73 -209 -9 -41 -22 -86 -30 -100
l-14 -26 -1 25 c-1 23 -2 23 -10 5 -12 -27 -12 -47 -1 -41 5 4 1 -12 -10 -33
-27 -56 -37 -58 -31 -4 4 34 2 44 -7 39 -7 -5 -12 -20 -11 -34 3 -48 1 -52
-32 -51 l-33 1 30 8 c24 6 18 8 -31 9 l-61 1 -11 53 -11 52 3 -53 c2 -29 8
-58 13 -63 6 -6 44 -13 85 -16 74 -6 75 -5 95 23 37 55 75 146 90 217 8 39 28
100 44 136 16 36 28 72 26 81 -2 9 -9 2 -19 -20z"/>
<path d="M2320 4787 c0 -11 39 -87 45 -87 6 0 -25 73 -36 85 -5 5 -9 6 -9 2z"/>
<path d="M2261 4763 c-1 -12 4 -25 9 -28 12 -7 12 2 0 30 -8 19 -9 19 -9 -2z"/>
<path d="M2300 4694 c0 -19 90 -216 127 -277 39 -64 56 -71 25 -10 -21 40 -22
42 -23 71 0 13 -2 14 -6 2 -4 -8 -29 33 -64 105 -32 66 -59 115 -59 109z"/>
<path d="M2800 4635 c0 -8 2 -15 4 -15 2 0 6 7 10 15 3 8 1 15 -4 15 -6 0 -10
-7 -10 -15z"/>
<path d="M2215 4610 c-16 -17 -16 -20 -3 -15 9 4 19 13 22 21 7 19 2 18 -19
-6z"/>
<path d="M2880 4621 c0 -13 28 -33 41 -29 6 2 0 12 -15 21 -14 10 -26 13 -26
8z"/>
<path d="M2516 4571 c-3 -5 1 -11 9 -15 15 -6 29 7 18 18 -9 9 -21 8 -27 -3z"/>
<path d="M2560 4566 c0 -6 9 -12 20 -13 11 -1 20 2 20 6 0 5 -9 11 -20 14 -12
3 -20 0 -20 -7z"/>
<path d="M2625 4559 c-4 -6 -5 -12 -2 -15 2 -3 7 2 10 11 7 17 1 20 -8 4z"/>
<path d="M2165 4520 c-7 -41 16 -143 35 -155 13 -8 13 7 -1 42 -16 42 -28 113
-18 107 5 -3 9 -11 9 -17 1 -38 102 -187 127 -187 7 0 13 -5 13 -12 0 -6 3 -9
6 -6 3 4 -15 27 -40 53 -47 49 -106 158 -106 194 0 36 -18 23 -25 -19z"/>
<path d="M2395 4538 c4 -13 11 -27 16 -33 5 -5 4 5 -2 23 -12 36 -24 44 -14
10z"/>
<path d="M2970 4537 c0 -48 -51 -191 -76 -215 -14 -13 -21 -28 -18 -34 15 -23
62 64 94 175 18 59 20 81 12 89 -9 9 -12 5 -12 -15z"/>
<path d="M2919 4488 c-12 -23 -37 -67 -57 -96 -19 -29 -32 -56 -28 -59 7 -8 4
-12 53 62 43 65 69 122 60 131 -3 3 -16 -14 -28 -38z"/>
<path d="M2559 4513 c-1 -5 0 -16 1 -27 1 -15 -3 -17 -24 -12 -15 4 -26 2 -26
-4 0 -5 15 -10 33 -10 32 0 33 2 29 30 -4 28 -11 39 -13 23z"/>
<path d="M2596 4505 c4 -8 8 -15 10 -15 2 0 4 7 4 15 0 8 -4 15 -10 15 -5 0
-7 -7 -4 -15z"/>
<path d="M2620 4500 c0 -5 5 -10 11 -10 5 0 7 5 4 10 -3 6 -8 10 -11 10 -2 0
-4 -4 -4 -10z"/>
<path d="M2760 4476 c0 -8 -3 -23 -6 -33 -3 -10 2 -7 10 7 18 30 20 40 6 40
-5 0 -10 -6 -10 -14z"/>
<path d="M2590 4462 c0 -5 14 -9 30 -10 17 0 30 4 30 9 0 5 -13 9 -30 9 -16 0
-30 -4 -30 -8z"/>
<path d="M2320 4414 c0 -5 7 -19 15 -30 8 -10 15 -14 15 -8 0 5 -7 19 -15 30
-8 10 -15 14 -15 8z"/>
<path d="M2790 4401 c-7 -15 -7 -21 0 -21 12 0 25 28 17 36 -3 3 -10 -4 -17
-15z"/>
<path d="M2959 4363 c-10 -21 -14 -42 -11 -48 4 -5 8 -1 10 10 3 11 9 23 14
26 5 4 8 16 6 28 -2 19 -6 17 -19 -16z"/>
<path d="M2753 4332 c-29 -41 -35 -52 -26 -52 13 0 64 68 55 74 -5 3 -18 -7
-29 -22z"/>
<path d="M2217 4332 c5 -22 51 -58 61 -48 3 3 3 7 1 9 -2 1 -18 15 -36 31 -28
25 -31 26 -26 8z"/>
<path d="M2782 4292 c-18 -19 -31 -37 -28 -40 9 -8 56 28 56 43 0 8 7 15 16
15 8 0 12 5 9 10 -9 15 -17 11 -53 -28z"/>
<path d="M2091 4288 c1 -27 15 -52 23 -40 4 6 2 21 -4 32 -12 23 -20 26 -19 8z"/>
<path d="M2380 4260 c19 -16 40 -29 45 -29 6 0 -6 13 -25 29 -19 17 -39 30
-44 30 -6 0 5 -13 24 -30z"/>
<path d="M3128 4245 c-3 -14 0 -29 7 -35 22 -18 93 -39 117 -33 16 3 19 2 10
-5 -18 -13 7 -23 40 -15 16 3 19 2 10 -5 -9 -6 -4 -9 18 -10 47 -1 28 13 -72
53 -100 39 -121 52 -112 66 3 5 1 9 -4 9 -5 0 -12 -11 -14 -25z m70 -40 c13
-4 21 -9 19 -11 -9 -9 -77 25 -77 37 0 8 6 7 18 -3 9 -9 27 -19 40 -23z"/>
<path d="M2010 4251 c0 -4 -48 -27 -107 -51 -64 -25 -119 -54 -136 -72 -34
-33 -30 -51 4 -19 22 20 242 131 260 131 6 0 7 5 4 10 -8 12 -25 13 -25 1z"/>
<path d="M1480 4229 c0 -38 43 -219 52 -219 5 0 6 10 3 23 -3 12 -14 65 -25
117 -22 98 -30 120 -30 79z"/>
<path d="M2684 4241 c12 -19 -53 -32 -137 -29 -48 2 -82 -1 -78 -5 5 -5 47 -8
94 -8 63 0 93 5 112 17 26 17 33 34 14 34 -5 0 -8 -4 -5 -9z"/>
<path d="M3531 4224 c0 -11 3 -14 6 -6 3 7 2 16 -1 19 -3 4 -6 -2 -5 -13z"/>
<path d="M3645 4210 c-3 -5 -1 -10 6 -10 7 0 28 -10 46 -22 56 -38 47 -68 -69
-245 -80 -122 -80 -124 -62 -144 23 -25 54 -43 54 -31 0 5 -11 15 -25 22 -14
7 -25 17 -25 22 0 5 29 53 64 106 35 53 74 117 86 141 24 48 42 139 29 147 -5
3 -9 -2 -9 -11 0 -13 -7 -11 -37 10 -42 28 -49 30 -58 15z"/>
<path d="M1943 4187 c-24 -11 -45 -29 -49 -39 -8 -26 5 -58 23 -58 9 0 13 -6
10 -15 -4 -8 -2 -17 3 -20 13 -8 130 48 130 62 0 7 -7 31 -16 53 -19 47 -37
50 -101 17z m85 -22 c17 -36 15 -52 -5 -58 -10 -4 -32 -13 -49 -20 -30 -14
-31 -14 -53 19 -27 40 -19 58 33 73 50 15 62 12 74 -14z"/>
<path d="M1950 4140 c-9 -6 -10 -10 -3 -10 6 0 15 5 18 10 8 12 4 12 -15 0z"/>
<path d="M1956 4115 c-11 -8 -15 -15 -10 -15 6 0 19 7 30 15 10 8 15 14 9 14
-5 0 -19 -6 -29 -14z"/>
<path d="M2721 4168 c-14 -40 -14 -43 3 -29 17 14 27 49 16 56 -4 3 -13 -9
-19 -27z"/>
<path d="M3090 4187 c0 -10 -8 -30 -17 -44 -13 -19 -14 -28 -5 -31 6 -2 32
-14 56 -26 30 -15 61 -22 95 -22 28 1 51 -2 51 -6 0 -9 -15 -11 -42 -9 -26 3
-22 -16 4 -22 21 -6 36 1 81 36 25 20 21 26 -10 18 -46 -13 -223 34 -223 58 0
6 5 10 12 9 16 -4 23 31 9 45 -8 8 -11 6 -11 -6z"/>
<path d="M2978 4140 c-15 -22 -24 -40 -18 -40 14 0 70 63 64 72 -9 14 -19 8
-46 -32z"/>
<path d="M2410 4167 c0 -14 55 -108 58 -99 4 12 -33 88 -48 97 -5 3 -10 4 -10
2z"/>
<path d="M2120 4138 c0 -18 5 -28 15 -28 8 0 15 -4 15 -10 0 -5 5 -10 10 -10
16 0 11 12 -15 45 l-25 30 0 -27z"/>
<path d="M3358 4123 c7 -3 16 -2 19 1 4 3 -2 6 -13 5 -11 0 -14 -3 -6 -6z"/>
<path d="M2325 4110 c-3 -5 -1 -10 4 -10 6 0 11 5 11 10 0 6 -2 10 -4 10 -3 0
-8 -4 -11 -10z"/>
<path d="M2679 4094 c-9 -25 -5 -44 6 -32 8 8 16 58 10 58 -3 0 -10 -12 -16
-26z"/>
<path d="M1855 4092 c5 -17 3 -23 -7 -21 -7 2 -29 0 -48 -4 -19 -4 -45 -9 -57
-11 -24 -5 -32 8 -10 18 6 3 1 4 -12 3 -34 -3 -36 -21 -4 -33 21 -7 44 -6 93
7 64 17 75 29 48 54 -7 7 -8 3 -3 -13z"/>
<path d="M3380 4103 c1 -21 55 -47 93 -44 23 1 12 21 -11 21 -9 0 -30 7 -46
15 -32 17 -36 18 -36 8z"/>
<path d="M2043 4070 c-24 -11 -43 -22 -43 -25 0 -3 15 -23 34 -43 48 -52 76
-89 76 -100 0 -25 36 -40 81 -33 57 9 182 68 173 82 -4 7 -10 7 -17 0 -6 -6
-19 -11 -29 -11 -9 0 -22 -8 -27 -17 -6 -10 -11 -13 -11 -8 0 6 -4 5 -8 -2
-10 -15 -106 -32 -125 -21 -9 4 -26 25 -38 46 -13 20 -35 50 -51 66 -15 17
-28 33 -28 37 0 3 14 12 30 19 29 12 50 31 33 29 -4 0 -27 -9 -50 -19z"/>
<path d="M3370 4070 c20 -13 33 -13 25 0 -3 6 -14 10 -23 10 -15 0 -15 -2 -2
-10z"/>
<path d="M1490 4065 c-9 -41 17 -167 52 -247 17 -39 18 -51 8 -63 -19 -23 -6
-28 14 -6 17 18 16 21 -2 58 -26 50 -50 133 -61 208 -5 33 -10 56 -11 50z"/>
<path d="M1623 4051 c-24 -20 -31 -51 -12 -51 5 0 7 -6 3 -12 -6 -10 -4 -10 8
0 13 10 17 10 23 -5 5 -10 7 -21 7 -25 -1 -5 3 -7 9 -5 6 1 34 -31 62 -71 27
-40 52 -70 55 -67 6 6 -34 68 -95 147 -34 45 -42 63 -37 83 7 30 6 30 -23 6z
m7 -41 c0 -5 -2 -10 -4 -10 -3 0 -8 5 -11 10 -3 6 -1 10 4 10 6 0 11 -4 11
-10z"/>
<path d="M2232 4063 c-19 -8 -4 -22 18 -16 11 3 17 9 14 14 -6 10 -12 10 -32
2z"/>
<path d="M2505 4059 c-13 -5 6 -8 53 -8 39 -1 72 3 72 8 0 11 -98 11 -125 0z"/>
<path d="M2836 4062 c-3 -5 1 -9 9 -9 8 0 12 4 9 9 -3 4 -7 8 -9 8 -2 0 -6 -4
-9 -8z"/>
<path d="M1880 4045 c0 -8 7 -15 16 -15 14 0 14 3 4 15 -7 8 -14 15 -16 15 -2
0 -4 -7 -4 -15z"/>
<path d="M2123 4053 c9 -2 23 -2 30 0 6 3 -1 5 -18 5 -16 0 -22 -2 -12 -5z"/>
<path d="M2870 4050 c0 -5 6 -10 14 -10 8 0 18 5 21 10 3 6 -3 10 -14 10 -12
0 -21 -4 -21 -10z"/>
<path d="M2968 4053 c7 -3 16 -2 19 1 4 3 -2 6 -13 5 -11 0 -14 -3 -6 -6z"/>
<path d="M3337 4046 c-4 -10 -1 -13 8 -9 8 3 12 9 9 14 -7 12 -11 11 -17 -5z"/>
<path d="M3600 4035 c0 -18 -6 -29 -20 -32 -26 -7 -26 -23 1 -23 13 0 18 -4
13 -12 -5 -10 -4 -10 6 -1 23 21 31 84 13 90 -8 3 -13 -5 -13 -22z"/>
<path d="M3515 4019 c-10 -19 -21 -36 -24 -39 -24 -20 -111 -172 -111 -195 0
-27 25 5 40 50 15 48 28 64 38 49 14 -21 63 -26 83 -8 19 17 26 44 12 44 -19
-1 -33 -18 -27 -33 7 -20 6 -20 -35 -6 -29 10 -43 29 -21 29 5 0 12 11 16 25
3 14 12 25 19 25 7 0 12 8 11 17 0 9 9 22 21 28 20 10 21 14 9 30 -13 18 -15
17 -31 -16z"/>
<path d="M1250 4025 c-9 -11 -16 -13 -24 -5 -15 15 -26 12 -26 -5 0 -25 30
-29 66 -10 19 10 34 22 34 27 0 14 -37 9 -50 -7z"/>
<path d="M2286 4031 c-4 -5 1 -17 10 -25 20 -21 23 -20 17 4 -6 24 -19 34 -27
21z"/>
<path d="M3366 4031 c-4 -5 -20 -7 -36 -5 -32 5 -41 -9 -14 -20 20 -8 54 2 54
14 0 5 8 11 18 13 15 4 15 5 0 6 -9 0 -19 -3 -22 -8z"/>
<path d="M3916 4025 c-3 -9 0 -15 9 -15 8 0 15 7 15 15 0 8 -4 15 -9 15 -5 0
-11 -7 -15 -15z"/>
<path d="M3160 4010 c-13 -8 -12 -10 3 -10 9 0 17 5 17 10 0 12 -1 12 -20 0z"/>
<path d="M3408 4012 c-10 -2 -18 -8 -18 -13 0 -13 27 -11 35 2 9 13 4 16 -17
11z"/>
<path d="M3440 3995 c-13 -14 -20 -25 -15 -25 5 0 -3 -12 -17 -27 -36 -39 -59
-78 -51 -86 3 -4 1 -7 -5 -7 -7 0 -12 -10 -11 -22 0 -17 2 -19 7 -8 4 8 34 54
66 103 59 87 71 119 26 72z"/>
<path d="M1732 3992 c7 -9 15 -19 18 -22 17 -15 90 -134 90 -146 0 -8 5 -14
10 -14 6 0 10 4 10 9 0 6 -4 13 -10 16 -5 3 -10 14 -10 24 0 15 -52 96 -71
111 -3 3 -8 11 -11 19 -2 8 -12 15 -22 17 -15 2 -15 0 -4 -14z"/>
<path d="M1800 3999 c0 -14 36 -15 65 -2 30 13 30 13 -17 11 -27 -1 -48 -5
-48 -9z"/>
<path d="M2485 4000 c-4 -6 27 -10 84 -10 54 0 91 4 91 10 0 6 -35 10 -84 10
-47 0 -88 -4 -91 -10z"/>
<path d="M3113 3977 c-36 -39 -38 -53 -3 -20 18 18 31 35 28 38 -2 3 -14 -5
-25 -18z"/>
<path d="M2800 3981 c0 -9 30 -24 36 -18 2 1 -6 8 -16 15 -11 7 -20 8 -20 3z"/>
<path d="M1212 3948 c-13 -36 -12 -41 12 -32 11 4 15 16 14 35 -3 38 -11 37
-26 -3z"/>
<path d="M3058 3957 c4 -14 7 -16 13 -5 12 19 11 25 -5 25 -8 0 -11 -8 -8 -20z"/>
<path d="M3310 3959 c-94 -78 -110 -93 -110 -101 0 -19 23 -5 77 47 32 30 61
55 65 55 5 0 8 5 8 10 0 15 -12 12 -40 -11z"/>
<path d="M3140 3953 c0 -15 53 -34 64 -23 7 7 3 10 -12 10 -12 0 -22 5 -22 10
0 6 -7 10 -15 10 -8 0 -15 -3 -15 -7z"/>
<path d="M2780 3936 c0 -8 5 -18 12 -22 7 -4 8 -3 4 4 -4 7 -2 12 4 12 6 0 8
5 5 10 -9 15 -25 12 -25 -4z"/>
<path d="M2850 3942 c0 -4 6 -14 13 -21 10 -11 9 -13 -6 -8 -10 4 -24 1 -31
-6 -19 -19 -38 -58 -32 -65 3 -3 6 -1 6 5 0 6 9 22 21 36 l20 27 53 -30 c29
-17 61 -30 72 -30 10 1 -3 10 -30 20 -27 11 -54 25 -60 31 -11 12 -5 11 39 -7
8 -3 15 -1 15 5 0 6 -3 10 -7 10 -18 -3 -31 2 -51 21 -12 12 -22 17 -22 12z"/>
<path d="M2395 3930 c3 -5 11 -10 16 -10 6 0 7 5 4 10 -3 6 -11 10 -16 10 -6
0 -7 -4 -4 -10z"/>
<path d="M3330 3918 c-12 -22 -12 -22 6 -6 10 10 15 20 12 24 -4 3 -12 -5 -18
-18z"/>
<path d="M3575 3930 c-3 -5 -1 -10 4 -10 6 0 11 5 11 10 0 6 -2 10 -4 10 -3 0
-8 -4 -11 -10z"/>
<path d="M1168 3924 c-9 -8 3 -44 13 -38 11 7 12 44 1 44 -5 0 -11 -3 -14 -6z"/>
<path d="M1900 3920 c0 -5 5 -10 10 -10 6 0 10 5 10 10 0 6 -4 10 -10 10 -5 0
-10 -4 -10 -10z"/>
<path d="M2660 3920 c-20 -6 -21 -8 -5 -8 11 0 29 3 40 8 25 11 -1 11 -35 0z"/>
<path d="M3023 3915 c4 -8 2 -17 -3 -20 -6 -4 -10 -2 -10 3 0 5 -15 4 -35 -2
-27 -8 -31 -12 -17 -18 41 -16 71 -9 87 22 15 29 15 30 -6 30 -14 0 -19 -5
-16 -15z"/>
<path d="M3850 3915 c0 -8 7 -15 15 -15 8 0 19 -9 25 -20 6 -11 15 -18 21 -14
6 4 7 10 0 17 -5 7 -10 17 -10 22 -1 6 -5 10 -10 10 -5 0 -13 3 -17 8 -12 12
-24 8 -24 -8z"/>
<path d="M4056 3923 c-9 -9 -7 -41 3 -47 12 -8 41 4 41 16 0 5 -10 6 -22 2
-20 -6 -21 -5 -10 9 12 15 2 33 -12 20z"/>
<path d="M2010 3910 c-14 -4 -42 -8 -62 -9 -21 -1 -38 -5 -38 -11 0 -13 31
-13 102 2 31 7 60 10 63 7 2 -3 8 -20 11 -37 7 -37 -7 -45 -93 -55 l-52 -6 -4
37 c-3 33 -4 32 -5 -11 l-2 -48 63 7 c71 8 117 27 117 50 0 9 -7 31 -16 50
-17 35 -33 40 -84 24z"/>
<path d="M2453 3913 c9 -2 23 -2 30 0 6 3 -1 5 -18 5 -16 0 -22 -2 -12 -5z"/>
<path d="M2528 3913 c7 -3 16 -2 19 1 4 3 -2 6 -13 5 -11 0 -14 -3 -6 -6z"/>
<path d="M2598 3913 c7 -3 16 -2 19 1 4 3 -2 6 -13 5 -11 0 -14 -3 -6 -6z"/>
<path d="M3060 3894 c-13 -32 -13 -34 3 -34 7 0 12 13 12 30 0 37 -3 37 -15 4z"/>
<path d="M1862 3885 c-10 -21 -9 -27 3 -32 9 -3 19 -3 22 1 4 3 -2 6 -13 7
-15 0 -14 2 6 11 15 6 20 12 12 15 -6 3 -10 9 -6 14 3 5 1 9 -4 9 -5 0 -14
-11 -20 -25z"/>
<path d="M2365 3900 c3 -5 8 -10 11 -10 2 0 4 5 4 10 0 6 -5 10 -11 10 -5 0
-7 -4 -4 -10z"/>
<path d="M2757 3883 c-18 -34 -58 -58 -86 -50 -12 3 -19 1 -15 -4 3 -5 -40 -8
-103 -7 l-108 2 80 6 c44 3 73 8 65 9 -23 4 -112 1 -144 -5 -18 -4 -26 -2 -22
4 3 5 -1 12 -9 16 -21 8 -19 -7 3 -27 15 -14 42 -17 153 -17 90 1 139 5 149
13 23 18 63 77 57 84 -3 2 -12 -8 -20 -24z"/>
<path d="M1630 3880 c-13 -8 -12 -10 3 -10 9 0 17 5 17 10 0 12 -1 12 -20 0z"/>
<path d="M2320 3870 c11 -21 30 -27 30 -9 0 5 -4 7 -10 4 -5 -3 -10 1 -10 9 0
9 -5 16 -10 16 -7 0 -7 -6 0 -20z"/>
<path d="M3291 3876 c-19 -10 -20 -14 -8 -19 9 -3 21 1 28 9 17 20 8 25 -20
10z"/>
<path d="M3936 3875 c4 -8 10 -12 15 -9 11 6 2 24 -11 24 -5 0 -7 -7 -4 -15z"/>
<path d="M1071 3854 c0 -11 3 -14 6 -6 3 7 2 16 -1 19 -3 4 -6 -2 -5 -13z"/>
<path d="M1950 3853 c0 -4 5 -15 10 -23 8 -13 10 -13 10 2 0 9 -4 20 -10 23
-5 3 -10 3 -10 -2z"/>
<path d="M3090 3850 c0 -5 5 -10 11 -10 5 0 7 5 4 10 -3 6 -8 10 -11 10 -2 0
-4 -4 -4 -10z"/>
<path d="M3437 3846 c-4 -10 -3 -15 3 -11 6 3 10 1 10 -6 0 -7 3 -10 6 -6 3 3
2 13 -4 22 -8 16 -9 16 -15 1z"/>
<path d="M3757 3849 c-21 -12 -22 -23 -1 -43 22 -22 31 -20 36 9 6 31 -11 47
-35 34z m23 -19 c0 -5 -5 -10 -11 -10 -5 0 -7 5 -4 10 3 6 8 10 11 10 2 0 4
-4 4 -10z"/>
<path d="M2771 3834 c0 -11 3 -14 6 -6 3 7 2 16 -1 19 -3 4 -6 -2 -5 -13z"/>
<path d="M2360 3836 c0 -2 8 -10 18 -17 15 -13 16 -12 3 4 -13 16 -21 21 -21
13z"/>
<path d="M1270 3814 c-10 -11 -11 -20 -3 -32 17 -27 38 -20 38 12 0 34 -16 44
-35 20z"/>
<path d="M3995 3820 c3 -5 21 -10 38 -9 31 1 31 1 7 9 -36 11 -52 11 -45 0z"/>
<path d="M3030 3812 c-34 -5 -179 -129 -180 -153 0 -10 54 -31 57 -22 15 44
44 81 76 96 35 18 49 37 27 37 -5 0 -10 6 -10 14 0 8 6 14 13 13 84 -3 207 5
207 14 0 9 -129 11 -190 1z"/>
<path d="M4076 3808 c3 -4 21 -8 41 -8 20 0 33 3 30 7 -10 9 -77 11 -71 1z"/>
<path d="M471 3784 c0 -11 3 -14 6 -6 3 7 2 16 -1 19 -3 4 -6 -2 -5 -13z"/>
<path d="M1813 3783 c-25 -9 -13 -19 18 -15 22 3 27 7 18 13 -15 10 -18 10
-36 2z"/>
<path d="M3261 3764 c-17 -14 -31 -31 -31 -38 0 -13 -17 -35 -66 -88 -14 -15
-40 -30 -59 -34 -41 -7 -163 0 -190 11 -19 8 -19 8 -3 -8 13 -13 35 -17 107
-17 49 0 101 4 114 9 14 6 51 43 83 83 70 88 72 90 107 84 29 -6 38 8 11 18
-27 11 -42 7 -73 -20z"/>
<path d="M1660 3761 c0 -21 17 -37 28 -26 3 3 0 10 -8 15 -12 8 -10 10 8 10
12 0 22 5 22 10 0 6 -11 10 -25 10 -18 0 -25 -5 -25 -19z"/>
<path d="M1721 3764 c0 -11 3 -14 6 -6 3 7 2 16 -1 19 -3 4 -6 -2 -5 -13z"/>
<path d="M1870 3766 c0 -19 13 -27 28 -17 8 4 5 11 -8 19 -16 10 -20 10 -20
-2z"/>
<path d="M3210 3765 c0 -8 5 -15 10 -15 6 0 10 7 10 15 0 8 -4 15 -10 15 -5 0
-10 -7 -10 -15z"/>
<path d="M3350 3729 c0 -5 5 -7 10 -4 6 3 10 8 10 11 0 2 -4 4 -10 4 -5 0 -10
-5 -10 -11z"/>
<path d="M1490 3709 l-25 -20 33 16 c17 8 32 18 32 20 0 10 -16 4 -40 -16z"/>
<path d="M1781 3714 c0 -11 3 -14 6 -6 3 7 2 16 -1 19 -3 4 -6 -2 -5 -13z"/>
<path d="M1845 3720 c3 -5 8 -10 11 -10 2 0 4 5 4 10 0 6 -5 10 -11 10 -5 0
-7 -4 -4 -10z"/>
<path d="M3370 3700 c0 -17 17 -47 23 -40 2 3 -2 16 -10 30 -7 14 -13 18 -13
10z"/>
<path d="M3670 3706 c0 -3 14 -12 30 -21 17 -9 30 -11 30 -6 0 5 -8 11 -17 15
-10 3 -24 9 -30 12 -7 3 -13 3 -13 0z"/>
<path d="M2183 3654 c-40 -42 -46 -58 -12 -31 63 49 72 58 63 66 -5 5 -26 -9
-51 -35z"/>
<path d="M1890 3670 c0 -5 5 -10 11 -10 5 0 7 5 4 10 -3 6 -8 10 -11 10 -2 0
-4 -4 -4 -10z"/>
<path d="M1615 3660 c3 -5 10 -10 16 -10 5 0 9 5 9 10 0 6 -7 10 -16 10 -8 0
-12 -4 -9 -10z"/>
<path d="M1920 3654 c0 -8 5 -12 10 -9 6 3 10 1 10 -5 0 -16 30 -44 38 -36 3
4 2 10 -4 14 -6 4 -16 17 -23 30 -13 25 -31 29 -31 6z"/>
<path d="M3745 3660 c3 -5 8 -10 11 -10 2 0 4 5 4 10 0 6 -5 10 -11 10 -5 0
-7 -4 -4 -10z"/>
<path d="M1390 3639 c0 -5 5 -7 10 -4 6 3 10 8 10 11 0 2 -4 4 -10 4 -5 0 -10
-5 -10 -11z"/>
<path d="M1564 3637 c10 -7 32 -23 47 -35 21 -17 29 -20 29 -10 0 8 -17 24
-39 36 -40 23 -70 30 -37 9z"/>
<path d="M3780 3646 c0 -3 14 -12 30 -21 17 -9 30 -13 30 -11 0 3 -13 12 -30
21 -16 9 -30 13 -30 11z"/>
<path d="M2826 3625 c-3 -8 -1 -15 4 -15 6 0 10 7 10 15 0 8 -2 15 -4 15 -2 0
-6 -7 -10 -15z"/>
<path d="M2023 3618 c1 -7 -6 -12 -15 -12 -10 1 -18 -2 -18 -7 0 -13 112 -11
130 2 12 9 11 10 -6 6 -11 -2 -29 2 -39 9 -24 17 -56 18 -52 2z m42 -8 c3 -5
-1 -10 -9 -10 -9 0 -16 5 -16 10 0 6 4 10 9 10 6 0 13 -4 16 -10z"/>
<path d="M3406 3615 c4 -8 10 -15 15 -15 4 0 6 7 3 15 -4 8 -10 15 -15 15 -4
0 -6 -7 -3 -15z"/>
<path d="M1358 3603 c-22 -27 -59 -95 -54 -100 11 -11 46 20 46 40 0 12 7 33
16 45 19 28 13 39 -8 15z"/>
<path d="M3593 3580 c-32 -19 -73 -80 -54 -80 5 0 12 9 16 20 7 21 63 60 88
60 9 0 19 5 22 10 11 17 -39 11 -72 -10z"/>
<path d="M1500 3580 c0 -5 6 -10 14 -10 7 0 29 -2 47 -5 l34 -5 -35 14 c-42
18 -60 19 -60 6z"/>
<path d="M3762 3573 c2 -10 11 -19 21 -21 16 -3 17 -1 7 17 -13 25 -33 28 -28
4z"/>
<path d="M2505 3550 c-16 -4 -23 -8 -15 -9 13 -1 13 -2 0 -11 -20 -13 -33 -13
-25 0 3 6 -3 10 -13 10 -38 0 -122 -126 -122 -181 0 -17 -8 -19 -70 -19 -40 0
-70 -4 -70 -10 0 -6 30 -10 69 -10 l68 0 7 -38 c3 -22 17 -55 30 -75 13 -19
21 -38 18 -42 -4 -4 -2 -5 4 -3 11 3 53 -42 73 -79 11 -22 18 -23 111 -23
l100 0 64 66 c43 44 66 61 70 52 3 -7 3 -2 0 11 -5 17 -3 21 6 16 9 -5 11 -4
6 3 -8 14 14 94 29 104 5 4 28 8 50 9 22 0 49 5 60 10 14 6 1 8 -43 6 l-64 -2
-23 55 c-12 30 -42 77 -66 104 -38 43 -46 48 -76 43 -34 -6 -56 8 -26 16 10 3
-13 5 -52 5 -38 0 -83 -4 -100 -8z m187 -45 c40 -19 82 -75 97 -130 22 -82
-17 -186 -96 -254 -47 -40 -49 -41 -125 -41 -73 0 -78 1 -97 29 -21 29 -21 29
-1 24 11 -3 20 -13 21 -22 0 -10 2 -11 6 -3 2 6 19 12 36 12 138 1 229 110
196 234 -21 78 -66 115 -140 116 -74 0 -105 -15 -128 -66 -36 -75 -23 -166 30
-223 26 -28 41 -11 15 18 -20 22 -22 114 -2 130 15 12 143 31 163 24 28 -11
31 -105 3 -150 -25 -41 -42 -50 -120 -57 -81 -9 -117 10 -150 79 -36 75 -26
157 30 235 37 52 193 79 262 45z m-34 -80 c29 -24 60 -81 50 -91 -3 -3 -13 13
-21 35 -9 22 -25 45 -36 50 -27 15 -34 14 -19 -3 7 -8 16 -12 20 -10 10 6 20
-14 13 -25 -3 -6 -20 -4 -40 5 -32 13 -39 12 -36 -9 1 -4 -20 -6 -45 -5 -48 3
-55 -2 -69 -46 -12 -39 -17 -5 -5 38 8 28 17 43 25 40 7 -3 15 4 18 15 2 11
15 21 28 23 70 10 88 8 117 -17z m-297 -82 c-4 -28 -6 -32 -9 -15 -3 22 3 52
11 52 1 0 1 -17 -2 -37z"/>
<path d="M2623 3113 c9 -2 23 -2 30 0 6 3 -1 5 -18 5 -16 0 -22 -2 -12 -5z"/>
<path d="M2525 3420 c3 -5 8 -10 11 -10 2 0 4 5 4 10 0 6 -5 10 -11 10 -5 0
-7 -4 -4 -10z"/>
<path d="M1453 3542 c-33 -5 -28 -17 7 -17 17 0 30 3 30 7 0 11 -13 14 -37 10z"/>
<path d="M3645 3540 c-18 -8 -17 -9 8 -9 16 -1 26 3 22 9 -3 6 -7 10 -8 9 -1
0 -11 -4 -22 -9z"/>
<path d="M1406 3514 c-18 -48 8 -94 55 -94 21 0 20 2 -11 18 -31 15 -35 21
-34 55 1 41 -1 45 -10 21z"/>
<path d="M2808 3513 c6 -2 10 -9 7 -14 -4 -5 1 -6 10 -2 13 5 14 7 3 14 -7 5
-17 8 -23 8 -5 0 -4 -3 3 -6z"/>
<path d="M3709 3515 c0 -5 -2 -21 -2 -35 -2 -17 -10 -27 -28 -34 -36 -13 -59
-2 -59 29 0 14 -4 25 -10 25 -15 0 -12 -33 6 -58 16 -24 44 -28 75 -11 26 14
42 55 29 77 -5 9 -10 13 -11 7z"/>
<path d="M3940 3516 c0 -2 7 -7 16 -10 8 -3 12 -2 9 4 -6 10 -25 14 -25 6z"/>
<path d="M3845 3500 c3 -5 13 -10 21 -10 8 0 12 5 9 10 -3 6 -13 10 -21 10 -8
0 -12 -4 -9 -10z"/>
<path d="M1445 3490 c3 -5 10 -10 16 -10 5 0 9 5 9 10 0 6 -7 10 -16 10 -8 0
-12 -4 -9 -10z"/>
<path d="M2330 3489 c0 -5 -5 -7 -12 -3 -7 4 -8 3 -4 -5 6 -9 11 -9 22 0 17
14 18 19 4 19 -5 0 -10 -5 -10 -11z"/>
<path d="M1552 3450 c0 -23 3 -38 7 -35 8 9 8 75 -1 75 -4 0 -6 -18 -6 -40z"/>
<path d="M3895 3480 c3 -5 8 -10 11 -10 2 0 4 5 4 10 0 6 -5 10 -11 10 -5 0
-7 -4 -4 -10z"/>
<path d="M1475 3450 c-3 -5 -1 -10 4 -10 6 0 11 5 11 10 0 6 -2 10 -4 10 -3 0
-8 -4 -11 -10z"/>
<path d="M2292 3419 c-5 -19 -6 -38 -3 -44 3 -5 9 8 12 30 9 50 3 58 -9 14z"/>
<path d="M1341 3394 c0 -11 3 -14 6 -6 3 7 2 16 -1 19 -3 4 -6 -2 -5 -13z"/>
<path d="M3916 3391 c-8 -13 2 -52 19 -71 8 -9 13 -19 10 -22 -3 -3 1 -11 10
-18 21 -18 31 -5 11 15 -26 26 -40 58 -37 83 2 22 -4 29 -13 13z"/>
<path d="M1280 3369 c0 -5 5 -7 10 -4 6 3 10 8 10 11 0 2 -4 4 -10 4 -5 0 -10
-5 -10 -11z"/>
<path d="M1430 3359 c0 -5 5 -7 10 -4 6 3 10 8 10 11 0 2 -4 4 -10 4 -5 0 -10
-5 -10 -11z"/>
<path d="M2010 3350 c0 -5 5 -10 11 -10 5 0 7 5 4 10 -3 6 -8 10 -11 10 -2 0
-4 -4 -4 -10z"/>
<path d="M1434 3313 c2 -16 7 -26 12 -24 5 1 7 8 5 15 -2 6 -4 17 -4 24 0 6
-4 12 -8 12 -4 0 -6 -12 -5 -27z"/>
<path d="M2140 3330 c0 -5 5 -10 11 -10 5 0 7 5 4 10 -3 6 -8 10 -11 10 -2 0
-4 -4 -4 -10z"/>
<path d="M1308 3318 c-3 -7 1 -19 8 -26 11 -10 14 -10 14 0 0 7 -4 19 -9 26
-7 11 -9 11 -13 0z"/>
<path d="M3666 3321 c-3 -4 4 -7 14 -8 11 -1 22 2 24 6 3 4 -4 7 -14 8 -11 1
-22 -2 -24 -6z"/>
<path d="M2270 3292 c0 -16 61 -132 70 -132 6 0 -52 125 -64 137 -3 4 -6 1 -6
-5z"/>
<path d="M1863 3243 c26 -26 50 -43 54 -39 4 4 0 12 -10 17 -9 6 -17 16 -17
23 0 8 -11 21 -25 30 -47 31 -48 16 -2 -31z"/>
<path d="M2196 3256 c8 -54 35 -106 55 -106 9 0 22 -7 29 -15 15 -19 23 -14
14 9 -3 9 -15 16 -25 16 -19 0 -38 29 -65 99 l-14 36 6 -39z"/>
<path d="M3214 3255 c-63 -38 -114 -86 -114 -106 0 -7 17 3 38 22 37 36 134
99 152 99 5 0 12 5 15 10 13 22 -34 8 -91 -25z"/>
<path d="M3850 3244 c-47 -65 -57 -74 -111 -98 -30 -14 -46 -25 -36 -25 31 -1
111 46 129 76 9 15 26 38 37 50 11 12 17 24 13 26 -4 3 -18 -10 -32 -29z"/>
<path d="M3990 3276 c0 -2 9 -6 20 -9 11 -3 20 -1 20 4 0 5 -9 9 -20 9 -11 0
-20 -2 -20 -4z"/>
<path d="M1333 3250 c3 -11 1 -20 -4 -20 -5 0 -8 -3 -8 -7 4 -22 -2 -44 -10
-39 -5 3 -8 -6 -8 -20 0 -32 9 -21 30 34 20 50 21 72 6 72 -6 0 -9 -9 -6 -20z"/>
<path d="M1390 3260 c0 -9 39 -25 46 -18 2 3 -7 10 -21 16 -14 6 -25 7 -25 2z"/>
<path d="M3655 3260 c-10 -16 41 -23 67 -9 13 7 18 14 11 16 -7 3 -21 -1 -32
-7 -14 -7 -21 -7 -21 0 0 13 -17 13 -25 0z"/>
<path d="M2930 3212 c-18 -42 -27 -52 -42 -49 -10 3 -21 0 -25 -5 -3 -6 -1 -8
5 -4 6 3 13 2 17 -4 11 -18 45 -11 45 8 0 11 7 33 16 51 8 17 14 37 11 44 -2
6 -14 -12 -27 -41z"/>
<path d="M4235 3250 c-3 -5 1 -10 10 -10 9 0 13 5 10 10 -3 6 -8 10 -10 10 -2
0 -7 -4 -10 -10z"/>
<path d="M1925 3229 c11 -13 25 -27 32 -32 7 -4 19 -15 28 -23 9 -9 19 -14 22
-10 9 8 -29 47 -69 70 l-33 19 20 -24z"/>
<path d="M4458 3243 c7 -3 16 -2 19 1 4 3 -2 6 -13 5 -11 0 -14 -3 -6 -6z"/>
<path d="M1450 3229 c0 -8 59 -24 65 -17 2 2 -12 8 -31 14 -19 6 -34 8 -34 3z"/>
<path d="M3877 3222 c-10 -10 -17 -26 -17 -36 0 -13 6 -11 25 12 14 17 25 33
25 36 0 12 -17 6 -33 -12z"/>
<path d="M3960 3231 c0 -6 5 -11 11 -11 5 0 8 -3 6 -7 -3 -5 1 -21 8 -38 12
-27 13 -27 10 -5 -2 14 -4 27 -5 30 -1 3 -3 11 -4 19 -1 17 -26 28 -26 12z"/>
<path d="M1375 3220 c-3 -5 -1 -10 4 -10 6 0 11 5 11 10 0 6 -2 10 -4 10 -3 0
-8 -4 -11 -10z"/>
<path d="M4086 3221 c-4 -7 -5 -15 -2 -18 9 -9 19 4 14 18 -4 11 -6 11 -12 0z"/>
<path d="M1105 3210 c3 -5 10 -10 16 -10 5 0 9 5 9 10 0 6 -7 10 -16 10 -8 0
-12 -4 -9 -10z"/>
<path d="M1405 3200 c3 -5 11 -10 16 -10 6 0 7 5 4 10 -3 6 -11 10 -16 10 -6
0 -7 -4 -4 -10z"/>
<path d="M2197 3156 c-4 -9 -11 -14 -17 -11 -5 3 -10 2 -10 -3 0 -13 24 -22
37 -14 6 4 7 16 3 26 -6 18 -7 18 -13 2z"/>
<path d="M2357 3125 c10 -13 22 -25 27 -25 5 0 -1 11 -14 25 -30 32 -36 32
-13 0z"/>
<path d="M2380 3146 c0 -2 8 -10 18 -17 15 -13 16 -12 3 4 -13 16 -21 21 -21
13z"/>
<path d="M2942 3139 c2 -7 12 -13 21 -15 23 -3 21 3 -4 17 -17 8 -20 8 -17 -2z"/>
<path d="M2090 3136 c0 -2 7 -6 15 -10 8 -3 15 -1 15 4 0 6 -7 10 -15 10 -8 0
-15 -2 -15 -4z"/>
<path d="M2800 3129 c0 -5 5 -7 10 -4 6 3 10 8 10 11 0 2 -4 4 -10 4 -5 0 -10
-5 -10 -11z"/>
<path d="M4370 3131 c0 -4 19 -8 42 -10 23 -1 45 -4 50 -7 4 -3 8 0 8 5 0 6
-10 11 -22 12 -13 0 -35 2 -50 4 -16 2 -28 0 -28 -4z"/>
<path d="M4728 3133 c7 -3 16 -2 19 1 4 3 -2 6 -13 5 -11 0 -14 -3 -6 -6z"/>
<path d="M4808 3133 c7 -3 16 -2 19 1 4 3 -2 6 -13 5 -11 0 -14 -3 -6 -6z"/>
<path d="M4956 3131 c-3 -5 6 -8 19 -8 14 0 25 3 25 8 0 5 -9 9 -19 9 -11 0
-22 -4 -25 -9z"/>
<path d="M5048 3133 c6 -2 18 -2 25 0 6 3 1 5 -13 5 -14 0 -19 -2 -12 -5z"/>
<path d="M1283 3115 c-3 -9 -3 -18 -1 -21 3 -3 8 4 11 16 6 23 -1 27 -10 5z"/>
<path d="M3665 3120 c-3 -5 -1 -10 4 -10 6 0 11 5 11 10 0 6 -2 10 -4 10 -3 0
-8 -4 -11 -10z"/>
<path d="M4486 3115 c4 -8 7 -15 9 -15 2 0 5 7 9 15 3 9 0 15 -9 15 -9 0 -12
-6 -9 -15z"/>
<path d="M4010 3110 c0 -8 9 -28 20 -45 25 -38 25 -30 0 21 -10 21 -19 32 -20
24z"/>
<path d="M4637 3101 c-3 -13 0 -18 7 -15 7 3 13 11 13 19 0 22 -14 18 -20 -4z"/>
<path d="M4250 3100 c-8 -5 -12 -12 -8 -15 10 -10 49 5 43 16 -8 11 -16 11
-35 -1z"/>
<path d="M4313 3095 c0 -11 4 -12 14 -4 7 6 13 13 13 15 0 2 -6 4 -13 4 -8 0
-14 -7 -14 -15z"/>
<path d="M4513 3097 c0 -7 10 -13 21 -14 12 -1 15 1 8 4 -6 3 -10 9 -6 14 3 5
-1 9 -9 9 -7 0 -14 -6 -14 -13z"/>
<path d="M4582 3101 c2 -7 7 -12 11 -12 12 1 9 15 -3 20 -7 2 -11 -2 -8 -8z"/>
<path d="M4673 3095 c0 -9 10 -15 24 -15 13 0 22 4 19 9 -4 5 0 12 6 14 7 3
-1 6 -18 6 -21 1 -31 -4 -31 -14z"/>
<path d="M4747 3104 c-13 -13 5 -24 39 -24 19 0 34 5 34 11 0 7 -10 9 -25 5
-14 -4 -25 -2 -25 4 0 11 -13 13 -23 4z"/>
<path d="M4830 3094 c0 -14 2 -15 17 -3 14 11 15 11 9 1 -6 -10 -3 -13 9 -10
10 1 20 10 22 18 4 13 3 13 -6 0 -7 -10 -11 -11 -11 -2 0 6 -9 12 -20 12 -12
0 -20 -7 -20 -16z"/>
<path d="M2261 3095 c0 -5 22 -34 49 -63 28 -29 50 -48 50 -43 0 5 -22 34 -50
63 -27 29 -49 49 -49 43z"/>
<path d="M2833 3063 c-49 -63 -48 -71 1 -20 48 51 52 57 37 57 -5 0 -22 -17
-38 -37z"/>
<path d="M4361 3090 c-9 -5 -4 -7 13 -7 29 0 32 2 13 10 -8 3 -20 2 -26 -3z"/>
<path d="M4910 3091 c0 -9 48 -12 54 -3 2 4 -9 7 -25 8 -16 1 -29 -2 -29 -5z"/>
<path d="M1261 3054 c0 -11 3 -14 6 -6 3 7 2 16 -1 19 -3 4 -6 -2 -5 -13z"/>
<path d="M3035 3060 c3 -5 8 -10 11 -10 2 0 4 5 4 10 0 6 -5 10 -11 10 -5 0
-7 -4 -4 -10z"/>
<path d="M3010 3041 c0 -6 5 -13 10 -16 6 -3 10 1 10 9 0 9 -4 16 -10 16 -5 0
-10 -4 -10 -9z"/>
<path d="M2453 3018 c-2 -5 14 -8 36 -8 23 0 41 4 41 8 0 10 -70 10 -77 0z"/>
<path d="M1237 2998 c-9 -31 -2 -33 11 -3 6 14 8 25 3 25 -5 0 -11 -10 -14
-22z"/>
<path d="M2085 3010 c3 -5 8 -10 11 -10 2 0 4 5 4 10 0 6 -5 10 -11 10 -5 0
-7 -4 -4 -10z"/>
<path d="M2545 3010 c-4 -6 25 -10 80 -10 48 0 84 4 81 9 -8 12 -153 13 -161
1z"/>
<path d="M4050 3009 c0 -21 25 -54 33 -43 3 5 -3 21 -14 34 -13 18 -19 20 -19
9z"/>
<path d="M1281 2984 c0 -11 3 -14 6 -6 3 7 2 16 -1 19 -3 4 -6 -2 -5 -13z"/>
<path d="M4100 2976 c0 -2 7 -7 16 -10 8 -3 12 -2 9 4 -6 10 -25 14 -25 6z"/>
<path d="M2130 2952 c0 -5 7 -15 15 -22 8 -7 15 -8 15 -2 0 5 -7 15 -15 22 -8
7 -15 8 -15 2z"/>
<path d="M2428 2953 c7 -3 16 -2 19 1 4 3 -2 6 -13 5 -11 0 -14 -3 -6 -6z"/>
<path d="M3930 2944 c0 -8 5 -12 10 -9 6 4 8 11 5 16 -9 14 -15 11 -15 -7z"/>
<path d="M1176 2935 c-3 -8 -1 -15 3 -15 5 0 11 7 15 15 3 8 1 15 -3 15 -5 0
-11 -7 -15 -15z"/>
<path d="M1260 2916 c0 -8 7 -16 15 -20 13 -4 14 -2 5 14 -13 23 -20 26 -20 6z"/>
<path d="M4005 2920 c-3 -5 1 -10 10 -10 9 0 13 5 10 10 -3 6 -8 10 -10 10 -2
0 -7 -4 -10 -10z"/>
<path d="M2418 2913 c6 -2 18 -2 25 0 6 3 1 5 -13 5 -14 0 -19 -2 -12 -5z"/>
<path d="M3945 2910 c3 -5 16 -10 28 -10 18 0 19 2 7 10 -20 13 -43 13 -35 0z"/>
<path d="M1110 2901 c0 -5 9 -7 20 -4 11 3 20 7 20 9 0 2 -9 4 -20 4 -11 0
-20 -4 -20 -9z"/>
<path d="M2180 2906 c0 -2 8 -10 18 -17 15 -13 16 -12 3 4 -13 16 -21 21 -21
13z"/>
<path d="M2588 2903 c7 -3 16 -2 19 1 4 3 -2 6 -13 5 -11 0 -14 -3 -6 -6z"/>
<path d="M2840 2901 c0 -6 5 -11 11 -11 6 0 16 -6 23 -12 35 -33 66 -57 66
-50 0 10 -37 43 -74 67 -16 11 -26 13 -26 6z"/>
<path d="M1226 2887 c3 -10 9 -15 12 -12 3 3 0 11 -7 18 -10 9 -11 8 -5 -6z"/>
<path d="M2664 2884 c-18 -15 -17 -15 11 -8 17 4 42 7 57 8 44 2 41 13 -5 14
-26 1 -51 -4 -63 -14z"/>
<path d="M2535 2880 l-90 -6 92 -2 c53 -1 94 2 98 8 3 6 3 9 -2 8 -4 -1 -48
-5 -98 -8z"/>
<path d="M4120 2872 c6 -13 14 -21 18 -18 3 4 -2 14 -12 24 -18 16 -18 16 -6
-6z"/>
<path d="M4160 2870 c0 -5 5 -10 11 -10 5 0 7 5 4 10 -3 6 -8 10 -11 10 -2 0
-4 -4 -4 -10z"/>
<path d="M2220 2866 c0 -2 8 -10 18 -17 15 -13 16 -12 3 4 -13 16 -21 21 -21
13z"/>
<path d="M3900 2845 c-11 -13 -10 -14 4 -9 9 3 16 10 16 15 0 13 -6 11 -20 -6z"/>
<path d="M2456 2822 c-4 -13 -5 -26 -2 -29 10 -11 18 4 14 29 l-4 23 -8 -23z"/>
<path d="M2668 2828 c5 -5 16 -8 23 -6 8 3 3 7 -10 11 -17 4 -21 3 -13 -5z"/>
<path d="M2785 2833 c11 -3 24 -11 28 -19 4 -8 15 -14 24 -14 14 0 13 4 -5 20
-12 11 -31 19 -44 19 -21 -1 -21 -2 -3 -6z"/>
<path d="M2507 2823 c18 -2 50 -2 70 0 21 2 7 4 -32 4 -38 0 -55 -2 -38 -4z"/>
<path d="M2625 2820 c3 -5 -9 -11 -27 -13 -22 -3 -17 -4 15 -4 48 1 62 11 27
20 -11 3 -18 1 -15 -3z"/>
<path d="M1979 2802 c-8 -9 -35 -42 -61 -73 -47 -55 -63 -89 -34 -72 13 8 104
114 119 140 12 19 -8 23 -24 5z"/>
<path d="M2747 2813 c-12 -12 -7 -22 8 -17 8 4 15 10 15 15 0 11 -14 12 -23 2z"/>
<path d="M2960 2811 c0 -6 4 -13 10 -16 6 -3 7 1 4 9 -7 18 -14 21 -14 7z"/>
<path d="M4000 2811 c10 -7 11 -11 3 -11 -7 0 -13 -4 -13 -9 0 -4 11 -6 25 -3
23 4 36 22 16 22 -5 0 -18 3 -28 6 -15 5 -15 4 -3 -5z"/>
<path d="M2498 2803 c12 -2 30 -2 40 0 9 3 -1 5 -23 4 -22 0 -30 -2 -17 -4z"/>
<path d="M3935 2799 c-9 -14 4 -27 13 -13 4 6 14 14 22 17 10 4 8 6 -7 6 -12
1 -25 -4 -28 -10z"/>
<path d="M3180 2793 c1 -17 128 -135 134 -125 3 6 -22 38 -56 71 -60 58 -78
71 -78 54z"/>
<path d="M2311 2787 c2 -1 15 -11 29 -22 l25 -20 -19 23 c-11 12 -24 22 -29
22 -6 0 -8 -1 -6 -3z"/>
<path d="M2707 2776 c-4 -10 -1 -13 8 -9 8 3 12 9 9 14 -7 12 -11 11 -17 -5z"/>
<path d="M2998 2783 c7 -3 16 -2 19 1 4 3 -2 6 -13 5 -11 0 -14 -3 -6 -6z"/>
<path d="M2447 2758 c-7 -4 15 -8 47 -8 33 0 56 3 53 6 -9 9 -87 10 -100 2z"/>
<path d="M2575 2760 c-14 -6 -4 -9 38 -9 32 -1 57 3 57 9 0 12 -67 12 -95 0z"/>
<path d="M2869 2718 c-19 -24 -38 -46 -45 -50 -20 -13 -104 -146 -103 -165 0
-14 3 -12 10 7 6 13 13 27 18 30 13 9 69 94 67 103 0 5 9 14 21 20 18 10 83
83 83 93 0 15 -24 -3 -51 -38z"/>
<path d="M1018 2744 c-5 -4 -8 -21 -7 -38 0 -30 0 -30 10 -7 11 27 8 57 -3 45z"/>
<path d="M2395 2720 c3 -5 8 -10 11 -10 2 0 4 5 4 10 0 6 -5 10 -11 10 -5 0
-7 -4 -4 -10z"/>
<path d="M2750 2720 c0 -6 7 -10 15 -10 8 0 15 2 15 4 0 2 -7 6 -15 10 -8 3
-15 1 -15 -4z"/>
<path d="M2483 2708 c-2 -5 40 -8 93 -8 54 0 95 3 92 6 -9 8 -179 10 -185 2z"/>
<path d="M1110 2680 c0 -5 7 -10 15 -10 8 0 15 5 15 10 0 6 -7 10 -15 10 -8 0
-15 -4 -15 -10z"/>
<path d="M1194 2670 c21 -11 44 -24 52 -31 19 -15 18 -1 -1 17 -8 9 -15 12
-15 8 0 -3 -7 0 -16 7 -9 7 -26 14 -37 16 -14 1 -7 -5 17 -17z"/>
<path d="M2715 2681 c-3 -5 0 -13 6 -17 7 -4 9 -3 5 4 -3 6 2 13 11 15 16 4
16 5 1 6 -9 0 -19 -3 -23 -8z"/>
<path d="M4190 2670 c0 -28 19 -62 30 -55 10 6 -7 62 -21 71 -5 3 -9 -4 -9
-16z"/>
<path d="M1080 2664 c0 -8 5 -12 10 -9 6 3 10 10 10 16 0 5 -4 9 -10 9 -5 0
-10 -7 -10 -16z"/>
<path d="M3247 2669 c7 -7 15 -10 18 -7 3 3 -2 9 -12 12 -14 6 -15 5 -6 -5z"/>
<path d="M4055 2656 c-33 -13 -69 -27 -80 -31 -17 -7 -18 -9 -3 -12 19 -5 115
33 138 54 19 17 16 17 -55 -11z"/>
<path d="M960 2624 c0 -8 5 -12 10 -9 6 3 10 10 10 16 0 5 -4 9 -10 9 -5 0
-10 -7 -10 -16z"/>
<path d="M2350 2633 c0 -14 15 -29 35 -37 17 -6 17 -4 -4 18 -26 28 -31 31
-31 19z"/>
<path d="M2250 2619 c0 -5 5 -7 10 -4 6 3 10 8 10 11 0 2 -4 4 -10 4 -5 0 -10
-5 -10 -11z"/>
<path d="M2941 2621 c-22 -14 -4 -33 20 -21 11 6 17 15 14 21 -8 11 -16 11
-34 0z"/>
<path d="M1102 2608 c-31 -31 -5 -83 44 -90 24 -3 30 0 31 15 2 15 -3 18 -19
14 -28 -8 -48 2 -48 23 0 21 36 33 60 20 10 -5 20 -7 23 -4 9 9 29 -35 21 -48
-4 -7 -3 -8 4 -4 7 4 12 18 12 31 0 42 -97 74 -128 43z"/>
<path d="M2110 2586 c0 -9 5 -16 10 -16 6 0 10 4 10 9 0 6 -4 13 -10 16 -5 3
-10 -1 -10 -9z"/>
<path d="M2996 2574 c-7 -19 2 -37 15 -29 12 8 12 45 0 45 -5 0 -12 -7 -15
-16z"/>
<path d="M4054 2561 c-44 -20 -53 -29 -59 -62 -3 -17 -2 -19 10 -9 8 7 13 16
10 20 -8 13 82 52 120 52 19 0 32 4 29 9 -9 15 -66 10 -110 -10z"/>
<path d="M4253 2543 c-13 -5 -19 -33 -7 -33 7 0 34 27 34 34 0 7 -10 7 -27 -1z"/>
<path d="M936 2528 c3 -5 10 -6 15 -3 13 9 11 12 -6 12 -8 0 -12 -4 -9 -9z"/>
<path d="M4275 2487 c-10 -29 -31 -79 -48 -112 l-29 -60 26 24 c14 14 26 28
26 32 0 4 9 28 20 53 11 26 19 47 19 49 0 1 4 14 10 29 6 15 7 29 2 32 -4 3
-16 -18 -26 -47z"/>
<path d="M2010 2511 c12 -23 29 -35 37 -27 7 7 -26 46 -39 46 -5 0 -4 -9 2
-19z"/>
<path d="M850 2511 c0 -5 19 -67 43 -138 31 -94 42 -142 41 -180 -1 -29 2 -53
7 -53 4 0 6 9 4 19 -2 11 3 22 11 25 8 3 14 14 14 25 0 19 -19 71 -30 81 -3 3
-6 12 -8 20 -2 8 -16 51 -33 96 -16 44 -29 85 -29 92 0 6 -4 14 -10 17 -5 3
-10 2 -10 -4z"/>
<path d="M3917 2500 c7 -25 23 -37 23 -17 0 8 -6 20 -14 26 -12 10 -13 8 -9
-9z"/>
<path d="M4390 2499 c0 -11 -25 -73 -55 -136 -45 -96 -55 -125 -55 -169 0 -30
4 -54 10 -54 5 0 7 -8 3 -17 -3 -10 -3 -15 2 -11 4 4 7 37 6 74 -2 60 2 74 45
162 42 88 67 172 50 172 -3 0 -6 -9 -6 -21z"/>
<path d="M956 2497 c3 -10 9 -15 12 -12 3 3 0 11 -7 18 -10 9 -11 8 -5 -6z"/>
<path d="M2965 2489 c-4 -6 -4 -13 -1 -16 8 -8 36 5 36 17 0 13 -27 13 -35 -1z"/>
<path d="M3090 2485 c0 -8 7 -15 15 -15 8 0 15 7 15 15 0 8 -7 15 -15 15 -8 0
-15 -7 -15 -15z"/>
<path d="M4062 2480 c-18 -11 -32 -22 -32 -24 0 -7 24 -1 48 13 12 6 30 11 40
10 28 -2 46 1 39 7 -15 15 -65 12 -95 -6z"/>
<path d="M1251 2464 c0 -11 3 -14 6 -6 3 7 2 16 -1 19 -3 4 -6 -2 -5 -13z"/>
<path d="M2065 2450 c-3 -5 1 -10 10 -10 9 0 13 5 10 10 -3 6 -8 10 -10 10 -2
0 -7 -4 -10 -10z"/>
<path d="M4155 2450 c-3 -5 -1 -10 4 -10 6 0 11 5 11 10 0 6 -2 10 -4 10 -3 0
-8 -4 -11 -10z"/>
<path d="M2384 2435 c8 -8 18 -15 22 -15 3 0 1 7 -6 15 -7 8 -17 15 -22 15 -5
0 -3 -7 6 -15z"/>
<path d="M2665 2430 c-3 -5 -1 -10 4 -10 6 0 11 5 11 10 0 6 -2 10 -4 10 -3 0
-8 -4 -11 -10z"/>
<path d="M2920 2425 c-9 -11 -10 -19 -2 -27 14 -14 32 -1 32 23 0 23 -13 25
-30 4z"/>
<path d="M990 2424 c0 -6 7 -19 16 -30 14 -18 14 -18 3 6 -14 31 -19 36 -19
24z"/>
<path d="M1206 2413 c-6 -14 -5 -15 5 -6 7 7 10 15 7 18 -3 3 -9 -2 -12 -12z"/>
<path d="M4135 2406 c-11 -7 -33 -17 -50 -21 -18 -5 -24 -10 -15 -12 20 -5 90
24 90 37 0 13 -2 13 -25 -4z"/>
<path d="M752 2370 c0 -22 3 -40 9 -40 10 0 10 2 13 44 0 16 -4 31 -10 33 -7
2 -12 -11 -12 -37z"/>
<path d="M2106 2401 c-3 -5 1 -11 9 -14 9 -4 12 -1 8 9 -6 16 -10 17 -17 5z"/>
<path d="M4030 2400 c0 -5 5 -10 11 -10 5 0 7 5 4 10 -3 6 -8 10 -11 10 -2 0
-4 -4 -4 -10z"/>
<path d="M1242 2351 c-23 -27 -38 -52 -34 -55 13 -8 90 90 80 100 -3 2 -24
-18 -46 -45z"/>
<path d="M2425 2390 c3 -5 8 -10 11 -10 2 0 4 5 4 10 0 6 -5 10 -11 10 -5 0
-7 -4 -4 -10z"/>
<path d="M3939 2385 c18 -33 50 -67 60 -63 5 1 -9 21 -31 43 -22 22 -35 31
-29 20z"/>
<path d="M2483 2383 c9 -2 25 -2 35 0 9 3 1 5 -18 5 -19 0 -27 -2 -17 -5z"/>
<path d="M2548 2383 c7 -3 16 -2 19 1 4 3 -2 6 -13 5 -11 0 -14 -3 -6 -6z"/>
<path d="M2603 2383 c15 -2 37 -2 50 0 12 2 0 4 -28 4 -27 0 -38 -2 -22 -4z"/>
<path d="M2875 2370 c-3 -5 1 -10 9 -10 9 0 16 5 16 10 0 6 -4 10 -9 10 -6 0
-13 -4 -16 -10z"/>
<path d="M2041 2349 c9 -13 25 -26 35 -28 16 -3 17 -1 5 13 -8 10 -24 22 -35
28 -20 11 -20 10 -5 -13z"/>
<path d="M3123 2353 c-24 -16 -30 -33 -13 -33 12 0 50 32 50 42 0 12 -12 9
-37 -9z"/>
<path d="M1108 2353 c7 -3 16 -2 19 1 4 3 -2 6 -13 5 -11 0 -14 -3 -6 -6z"/>
<path d="M1145 2350 c-3 -5 -1 -10 4 -10 6 0 11 5 11 10 0 6 -2 10 -4 10 -3 0
-8 -4 -11 -10z"/>
<path d="M2270 2355 c1 -15 38 -61 44 -54 4 3 -5 19 -19 35 -14 16 -25 25 -25
19z"/>
<path d="M3045 2340 c-8 -13 4 -32 16 -25 12 8 12 35 0 35 -6 0 -13 -4 -16
-10z"/>
<path d="M3920 2341 c0 -6 4 -13 10 -16 6 -3 7 1 4 9 -7 18 -14 21 -14 7z"/>
<path d="M4088 2301 c-109 -38 -125 -56 -23 -26 28 9 67 20 88 26 20 5 37 14
37 19 0 15 -17 11 -102 -19z"/>
<path d="M1168 2303 c7 -3 16 -2 19 1 4 3 -2 6 -13 5 -11 0 -14 -3 -6 -6z"/>
<path d="M1030 2291 c0 -10 42 -23 49 -15 7 6 -20 24 -36 24 -7 0 -13 -4 -13
-9z"/>
<path d="M9 2280 c-1 -6 -2 -16 -3 -22 -4 -24 14 -35 54 -35 51 0 57 10 27 43
l-24 26 -13 -31 c-13 -32 -30 -33 -30 -3 0 15 2 15 10 2 8 -13 10 -13 10 1 0
18 -29 35 -31 19z"/>
<path d="M4166 2281 c-4 -6 -4 -28 0 -48 l8 -38 8 39 c8 39 -2 69 -16 47z"/>
<path d="M1140 2269 c0 -9 68 -24 76 -17 3 3 -13 10 -36 16 -22 5 -40 6 -40 1z"/>
<path d="M4083 2257 c-52 -19 -62 -37 -14 -24 22 6 42 9 45 6 2 -2 6 -26 9
-54 3 -27 9 -67 12 -87 7 -33 5 -38 -10 -38 -24 0 -17 -6 17 -14 l26 -6 -15
63 c-8 34 -16 84 -18 112 -2 27 -7 50 -12 51 -4 2 -22 -3 -40 -9z"/>
<path d="M1005 2250 c-3 -5 -1 -10 4 -10 6 0 11 5 11 10 0 6 -2 10 -4 10 -3 0
-8 -4 -11 -10z"/>
<path d="M2347 2253 c-2 -4 9 -18 24 -31 35 -29 38 -22 5 13 -13 14 -26 22
-29 18z"/>
<path d="M2946 2244 c-9 -23 -2 -28 13 -10 7 8 8 17 3 20 -6 3 -13 -1 -16 -10z"/>
<path d="M4196 2251 c-4 -7 -5 -15 -2 -18 9 -9 19 4 14 18 -4 11 -6 11 -12 0z"/>
<path d="M1000 2196 c0 -25 5 -35 20 -39 24 -6 27 11 4 20 -11 4 -14 13 -10
29 4 14 2 24 -4 24 -5 0 -10 -15 -10 -34z"/>
<path d="M3085 2191 c-35 -21 -71 -59 -63 -66 3 -3 16 5 30 17 14 13 38 33 54
45 35 27 20 30 -21 4z"/>
<path d="M2450 2193 c0 -5 60 -9 133 -9 92 -1 120 1 92 7 -50 10 -225 12 -225
2z"/>
<path d="M2420 2164 c0 -23 40 -29 155 -24 l120 6 -125 2 c-82 1 -130 6 -138
14 -7 7 -12 8 -12 2z"/>
<path d="M2853 2163 c-18 -7 -16 -23 2 -23 8 0 15 7 15 15 0 8 -1 15 -2 14 -2
0 -9 -3 -15 -6z"/>
<path d="M3910 2160 c0 -13 11 -13 30 0 12 8 11 10 -7 10 -13 0 -23 -4 -23
-10z"/>
<path d="M1137 2153 c-4 -3 -7 -15 -7 -26 0 -25 13 -14 17 13 3 21 1 24 -10
13z"/>
<path d="M985 2130 c-3 -5 1 -10 10 -10 9 0 13 5 10 10 -3 6 -8 10 -10 10 -2
0 -7 -4 -10 -10z"/>
<path d="M1200 2136 c0 -2 9 -6 20 -9 11 -3 18 -1 14 4 -5 9 -34 13 -34 5z"/>
<path d="M1045 2110 c-3 -5 -2 -10 4 -10 5 0 13 5 16 10 3 6 2 10 -4 10 -5 0
-13 -4 -16 -10z"/>
<path d="M1170 2100 c0 -5 5 -10 10 -10 6 0 10 5 10 10 0 6 -4 10 -10 10 -5 0
-10 -4 -10 -10z"/>
<path d="M2293 2096 c9 -7 17 -16 17 -20 0 -4 7 -14 15 -22 22 -22 18 -7 -6
27 -11 16 -26 29 -32 29 -7 0 -4 -7 6 -14z"/>
<path d="M2955 2080 c-22 -43 -18 -49 10 -15 26 32 31 45 15 45 -5 0 -16 -13
-25 -30z"/>
<path d="M1080 2090 c0 -5 5 -10 11 -10 5 0 7 5 4 10 -3 6 -8 10 -11 10 -2 0
-4 -4 -4 -10z"/>
<path d="M1172 2050 c0 -14 2 -19 5 -12 2 6 2 18 0 25 -3 6 -5 1 -5 -13z"/>
<path d="M4265 2040 c3 -5 8 -10 11 -10 2 0 4 5 4 10 0 6 -5 10 -11 10 -5 0
-7 -4 -4 -10z"/>
<path d="M4330 2040 c0 -5 5 -10 11 -10 5 0 7 5 4 10 -3 6 -8 10 -11 10 -2 0
-4 -4 -4 -10z"/>
<path d="M1882 2027 c-8 -10 -17 -43 -37 -147 -2 -8 -4 -25 -4 -37 -1 -12 -8
-28 -16 -37 -8 -8 -15 -22 -15 -31 0 -9 -3 -14 -7 -12 -5 3 -9 -5 -9 -16 -5
-75 -30 -208 -45 -243 -11 -22 -19 -48 -19 -58 0 -9 -4 -14 -10 -11 -5 3 -7 0
-4 -8 6 -17 -17 -138 -48 -247 -30 -108 -45 -248 -42 -407 3 -187 18 -449 29
-513 3 -14 10 -63 15 -110 16 -129 21 -150 36 -150 8 0 14 1 14 3 0 1 -5 29
-10 62 -38 225 -66 633 -57 840 4 92 14 159 32 229 14 54 37 153 51 220 14 66
31 128 38 136 7 8 22 75 34 149 12 74 24 136 27 139 3 3 11 -2 18 -12 11 -15
12 -12 10 21 -2 21 7 84 20 141 22 97 22 128 -1 99z"/>
<path d="M2353 2026 c4 -10 7 -20 7 -22 0 -2 7 -4 15 -4 8 0 15 -5 15 -12 0
-6 3 -8 7 -4 4 4 -6 19 -22 34 -21 19 -27 21 -22 8z"/>
<path d="M3296 1913 c12 -71 19 -131 17 -135 -2 -5 2 -8 11 -8 17 0 20 -16 37
-162 7 -60 17 -108 21 -108 5 0 13 -12 19 -27 10 -25 83 -318 108 -433 19 -82
33 -353 27 -485 -7 -136 -32 -453 -41 -517 -4 -30 -2 -38 10 -38 11 0 15 12
16 43 0 23 2 51 5 62 4 22 7 58 25 274 10 127 8 555 -4 601 -2 8 -7 33 -11 55
-4 22 -21 96 -38 165 -16 69 -36 153 -44 188 -7 35 -20 78 -29 95 -18 35 -39
130 -50 222 -4 33 -13 71 -20 85 -6 14 -17 54 -24 90 -22 120 -33 160 -45 160
-9 0 -7 -33 10 -127z"/>
<path d="M1920 2020 c0 -5 24 -20 53 -34 28 -13 61 -34 72 -46 18 -20 130
-100 141 -100 2 0 4 4 4 9 0 6 -29 29 -65 52 -36 23 -65 47 -65 54 0 7 -27 27
-61 44 -65 33 -79 37 -79 21z"/>
<path d="M2575 2020 l-130 -6 133 -2 c83 -1 132 2 132 8 0 6 -1 9 -2 8 -2 -1
-61 -5 -133 -8z"/>
<path d="M1170 2005 c0 -8 4 -15 10 -15 5 0 7 7 4 15 -4 8 -8 15 -10 15 -2 0
-4 -7 -4 -15z"/>
<path d="M2468 1983 c7 -3 16 -2 19 1 4 3 -2 6 -13 5 -11 0 -14 -3 -6 -6z"/>
<path d="M2613 1983 c15 -2 39 -2 55 0 15 2 2 4 -28 4 -30 0 -43 -2 -27 -4z"/>
<path d="M3113 1967 c-25 -25 -41 -35 -101 -63 -34 -15 -62 -34 -62 -41 0 -8
12 -6 43 7 23 11 49 20 57 20 8 0 20 10 25 23 8 16 18 21 40 20 21 -2 26 0 16
7 -12 7 -12 11 -2 24 16 19 2 21 -16 3z"/>
<path d="M1007 1931 c-4 -17 -3 -21 5 -13 5 5 8 16 6 23 -3 8 -7 3 -11 -10z"/>
<path d="M4070 1930 c0 -5 5 -10 10 -10 6 0 10 5 10 10 0 6 -4 10 -10 10 -5 0
-10 -4 -10 -10z"/>
<path d="M4051 1920 c0 -8 4 -22 9 -30 12 -18 12 -2 0 25 -6 13 -9 15 -9 5z"/>
<path d="M4615 1890 c-3 -5 -1 -10 4 -10 6 0 11 5 11 10 0 6 -2 10 -4 10 -3 0
-8 -4 -11 -10z"/>
<path d="M4086 1877 c3 -10 9 -15 12 -12 3 3 0 11 -7 18 -10 9 -11 8 -5 -6z"/>
<path d="M1146 1855 c-3 -8 -1 -15 4 -15 13 0 22 18 11 24 -5 3 -11 -1 -15 -9z"/>
<path d="M17 1853 c-10 -9 -9 -23 1 -23 5 0 9 7 9 15 0 17 -1 18 -10 8z"/>
<path d="M2948 1833 c6 -2 18 -2 25 0 6 3 1 5 -13 5 -14 0 -19 -2 -12 -5z"/>
<path d="M2855 1810 c-3 -5 -1 -10 4 -10 6 0 11 5 11 10 0 6 -2 10 -4 10 -3 0
-8 -4 -11 -10z"/>
<path d="M1120 1799 c0 -5 5 -7 10 -4 6 3 10 8 10 11 0 2 -4 4 -10 4 -5 0 -10
-5 -10 -11z"/>
<path d="M2250 1805 c0 -16 26 -54 63 -92 l41 -43 181 0 c99 0 197 3 217 6 37
7 78 36 78 56 0 6 -12 1 -26 -13 -25 -24 -29 -24 -239 -27 l-213 -3 -51 61
c-28 34 -51 58 -51 55z"/>
<path d="M3147 1793 c-21 -35 -47 -85 -47 -90 0 -12 40 40 46 61 4 11 12 24
18 28 8 6 8 8 -1 8 -6 0 -14 -3 -16 -7z"/>
<path d="M1880 1740 c0 -5 5 -10 11 -10 5 0 7 5 4 10 -3 6 -8 10 -11 10 -2 0
-4 -4 -4 -10z"/>
<path d="M1092 1715 c-17 -37 -14 -45 4 -12 9 16 14 31 11 33 -2 2 -9 -7 -15
-21z"/>
<path d="M1910 1721 c0 -6 4 -13 10 -16 6 -3 7 1 4 9 -7 18 -14 21 -14 7z"/>
<path d="M3218 1723 c7 -3 16 -2 19 1 4 3 -2 6 -13 5 -11 0 -14 -3 -6 -6z"/>
<path d="M2030 1710 c0 -7 11 -23 25 -36 14 -13 25 -19 25 -14 0 5 -11 21 -25
36 -14 15 -25 21 -25 14z"/>
<path d="M3076 1673 c-3 -10 -9 -24 -12 -30 -3 -7 -1 -13 4 -13 5 0 12 8 16
18 3 9 9 23 12 30 3 6 1 12 -4 12 -5 0 -12 -8 -16 -17z"/>
<path d="M4291 1664 c0 -11 3 -14 6 -6 3 7 2 16 -1 19 -3 4 -6 -2 -5 -13z"/>
<path d="M1071 1634 c0 -11 3 -14 6 -6 3 7 2 16 -1 19 -3 4 -6 -2 -5 -13z"/>
<path d="M3046 1603 c-6 -14 -5 -15 5 -6 7 7 10 15 7 18 -3 3 -9 -2 -12 -12z"/>
<path d="M4293 1595 c0 -8 4 -12 9 -9 5 3 6 10 3 15 -9 13 -12 11 -12 -6z"/>
<path d="M2117 1583 c-4 -3 -7 -13 -7 -21 0 -18 13 -7 16 13 2 17 1 18 -9 8z"/>
<path d="M3004 1518 c1 -34 2 -34 17 -7 6 13 7 19 1 15 -6 -3 -12 0 -15 6 -2
7 -4 1 -3 -14z"/>
<path d="M4300 1509 c0 -5 5 -7 10 -4 6 3 10 8 10 11 0 2 -4 4 -10 4 -5 0 -10
-5 -10 -11z"/>
<path d="M2150 1500 c0 -5 5 -10 11 -10 5 0 7 5 4 10 -3 6 -8 10 -11 10 -2 0
-4 -4 -4 -10z"/>
<path d="M2970 1480 c0 -5 5 -10 10 -10 6 0 10 5 10 10 0 6 -4 10 -10 10 -5 0
-10 -4 -10 -10z"/>
<path d="M3236 1398 c-90 -89 -148 -175 -120 -175 7 0 12 3 11 6 -4 15 64 104
136 179 44 45 77 82 73 82 -4 0 -49 -42 -100 -92z"/>
<path d="M1830 1470 c0 -5 5 -10 11 -10 5 0 7 5 4 10 -3 6 -8 10 -11 10 -2 0
-4 -4 -4 -10z"/>
<path d="M4221 1464 c0 -11 3 -14 6 -6 3 7 2 16 -1 19 -3 4 -6 -2 -5 -13z"/>
<path d="M1898 1411 c23 -22 42 -42 42 -46 0 -4 14 -20 30 -37 17 -16 30 -34
30 -39 0 -5 5 -9 10 -9 6 0 10 4 10 8 0 13 -141 162 -153 162 -6 0 8 -18 31
-39z"/>
<path d="M2478 1383 c6 -2 18 -2 25 0 6 3 1 5 -13 5 -14 0 -19 -2 -12 -5z"/>
<path d="M2538 1383 c6 -2 18 -2 25 0 6 3 1 5 -13 5 -14 0 -19 -2 -12 -5z"/>
<path d="M5083 1352 c-18 -19 -33 -37 -33 -41 0 -5 -11 -17 -25 -27 -24 -18
-35 -64 -15 -64 6 0 10 7 10 15 0 8 5 15 10 15 6 0 10 8 10 17 0 9 3 14 6 10
9 -9 62 52 69 81 3 13 5 25 3 26 -2 1 -18 -14 -35 -32z"/>
<path d="M1002 1352 c-9 -6 -2 -11 24 -15 35 -6 53 -3 43 7 -10 10 -55 15 -67
8z"/>
<path d="M4163 1343 c-13 -8 -23 -19 -23 -23 0 -10 69 23 70 33 0 12 -23 7
-47 -10z"/>
<path d="M4316 1324 c-17 -16 -21 -34 -8 -34 4 0 13 9 19 19 7 11 23 21 35 24
21 4 20 4 -4 6 -15 0 -34 -6 -42 -15z"/>
<path d="M880 1321 c0 -6 5 -13 10 -16 6 -3 10 -15 10 -26 0 -11 4 -18 9 -15
10 7 -9 66 -21 66 -4 0 -8 -4 -8 -9z"/>
<path d="M3010 1301 c0 -6 4 -13 10 -16 6 -3 7 1 4 9 -7 18 -14 21 -14 7z"/>
<path d="M3286 1273 c-20 -20 -55 -69 -76 -107 -22 -39 -58 -89 -80 -111 -23
-22 -49 -53 -57 -70 -12 -22 0 -13 44 32 34 33 77 92 97 129 20 38 57 90 82
117 54 55 46 64 -10 10z"/>
<path d="M1830 1296 c0 -3 9 -20 19 -38 11 -18 33 -69 49 -113 40 -108 70
-163 93 -170 10 -4 19 -11 19 -16 0 -5 7 -9 15 -9 23 0 18 15 -11 31 -34 18
-68 72 -99 158 -31 85 -85 185 -85 157z"/>
<path d="M4178 1284 c-16 -8 -28 -17 -28 -20 0 -2 10 1 23 7 12 7 24 11 27 10
2 -1 6 2 8 8 5 14 3 13 -30 -5z"/>
<path d="M4306 1271 c-4 -7 -5 -15 -2 -18 9 -9 19 4 14 18 -4 11 -6 11 -12 0z"/>
<path d="M1010 1260 c-12 -7 -11 -9 5 -8 11 1 33 -2 48 -6 21 -5 28 -3 25 5
-5 16 -58 22 -78 9z"/>
<path d="M2018 1257 c10 -12 12 -35 8 -83 -6 -74 2 -79 15 -11 9 51 0 98 -22
105 -12 5 -12 3 -1 -11z"/>
<path d="M3022 1250 c7 -10 14 -18 15 -16 6 6 -9 36 -18 36 -5 0 -4 -9 3 -20z"/>
<path d="M4155 1240 c-3 -5 -2 -10 4 -10 5 0 13 5 16 10 3 6 2 10 -4 10 -5 0
-13 -4 -16 -10z"/>
<path d="M4265 1240 c-4 -6 -3 -16 3 -22 13 -13 23 4 13 21 -7 10 -10 10 -16
1z"/>
<path d="M4330 1236 c0 -2 7 -7 16 -10 8 -3 12 -2 9 4 -6 10 -25 14 -25 6z"/>
<path d="M4972 1223 c-5 -10 -7 -25 -5 -33 4 -13 3 -13 -5 -1 -9 12 -12 12
-26 -1 -18 -19 -18 -58 1 -51 7 3 13 11 13 17 0 7 11 19 25 26 25 13 35 40 14
40 -5 0 -7 5 -4 10 3 6 4 10 1 10 -3 0 -9 -8 -14 -17z"/>
<path d="M2125 1210 c3 -5 8 -10 11 -10 2 0 4 5 4 10 0 6 -5 10 -11 10 -5 0
-7 -4 -4 -10z"/>
<path d="M2981 1206 c-8 -10 -9 -16 -1 -21 6 -4 9 -1 8 7 -2 7 3 12 10 11 6
-2 12 2 12 7 0 14 -16 12 -29 -4z"/>
<path d="M3020 1201 c0 -5 5 -13 10 -16 6 -3 10 -2 10 4 0 5 -4 13 -10 16 -5
3 -10 2 -10 -4z"/>
<path d="M3100 1200 c-12 -8 -12 -10 3 -16 9 -3 14 -11 10 -17 -3 -6 -1 -7 6
-3 8 6 9 12 2 20 -6 7 -8 16 -4 19 9 10 0 8 -17 -3z"/>
<path d="M2195 1160 c-3 -5 -1 -10 4 -10 6 0 11 5 11 10 0 6 -2 10 -4 10 -3 0
-8 -4 -11 -10z"/>
<path d="M2150 1134 c0 -8 5 -12 10 -9 6 4 8 11 5 16 -9 14 -15 11 -15 -7z"/>
<path d="M4895 1134 c-4 -10 -7 -23 -6 -28 1 -5 -5 -6 -14 -3 -15 6 -22 -18
-7 -26 14 -7 48 40 42 58 -6 18 -7 18 -15 -1z"/>
<path d="M4075 1115 c-33 -27 -14 -36 21 -10 10 8 27 15 37 15 10 0 15 5 12
10 -10 17 -38 11 -70 -15z"/>
<path d="M1090 1120 c19 -13 30 -13 30 0 0 6 -10 10 -22 10 -19 0 -20 -2 -8
-10z"/>
<path d="M4219 1123 c-1 -5 0 -12 1 -18 18 -72 18 -72 19 -22 1 26 -3 47 -9
47 -5 0 -11 -3 -11 -7z"/>
<path d="M945 1048 c3 -24 8 -55 11 -70 5 -26 4 -27 -55 -34 -44 -5 -61 -11
-61 -21 0 -11 7 -14 23 -9 12 3 41 6 65 6 l42 0 0 48 c0 64 -11 122 -22 122
-6 0 -7 -18 -3 -42z"/>
<path d="M3091 1074 c0 -11 3 -14 6 -6 3 7 2 16 -1 19 -3 4 -6 -2 -5 -13z"/>
<path d="M2001 1064 c0 -11 3 -14 6 -6 3 7 2 16 -1 19 -3 4 -6 -2 -5 -13z"/>
<path d="M4840 1065 c0 -15 -2 -17 -9 -7 -7 11 -9 11 -14 -2 -7 -18 10 -21 33
-6 12 7 12 12 2 22 -9 9 -12 8 -12 -7z"/>
<path d="M4270 1005 c0 -72 5 -79 78 -88 35 -4 42 -2 42 12 0 14 -9 18 -46 19
-26 0 -50 5 -54 11 -3 6 -3 34 0 61 5 38 3 50 -7 50 -9 0 -13 -18 -13 -65z"/>
<path d="M4310 1042 c1 -26 20 -62 34 -62 11 0 6 18 -10 35 -13 12 -14 19 -5
28 8 8 14 8 23 -1 18 -18 30 -14 19 6 -5 10 -21 18 -35 20 -22 1 -26 -2 -26
-26z"/>
<path d="M852 1048 c2 -6 19 -12 38 -12 19 0 36 6 38 12 2 8 -10 12 -38 12
-28 0 -40 -4 -38 -12z"/>
<path d="M4137 1023 c-12 -19 -11 -67 1 -70 8 -3 12 8 12 36 0 40 -4 49 -13
34z"/>
<path d="M4219 1005 c-4 -63 -2 -115 4 -122 14 -13 17 5 9 49 -5 25 -5 52 -1
60 4 8 4 20 -1 28 -7 11 -10 7 -11 -15z"/>
<path d="M1067 1013 c-4 -3 -7 -20 -7 -36 0 -38 6 -32 13 11 5 33 5 36 -6 25z"/>
<path d="M2050 1004 c0 -8 5 -12 10 -9 6 3 10 10 10 16 0 5 -4 9 -10 9 -5 0
-10 -7 -10 -16z"/>
<path d="M4370 991 c0 -17 5 -31 10 -31 6 0 10 11 10 24 0 14 -4 28 -10 31 -6
4 -10 -7 -10 -24z"/>
<path d="M4810 1005 c0 -8 2 -15 4 -15 2 0 6 7 10 15 3 8 1 15 -4 15 -6 0 -10
-7 -10 -15z"/>
<path d="M900 999 c0 -5 5 -7 10 -4 6 3 10 8 10 11 0 2 -4 4 -10 4 -5 0 -10
-5 -10 -11z"/>
<path d="M4769 983 c-13 -16 -12 -17 4 -4 16 13 21 21 13 21 -2 0 -10 -8 -17
-17z"/>
<path d="M2474 913 c-3 -11 -1 -30 5 -41 20 -38 13 -133 -35 -497 -13 -99 -29
-216 -35 -260 -5 -44 -12 -88 -14 -98 -2 -11 3 -17 14 -17 13 0 18 9 19 33 1
17 3 41 6 52 2 11 9 66 17 122 7 56 15 100 18 98 4 -2 6 9 7 23 0 15 3 47 7
72 21 158 39 375 35 430 l-5 65 56 0 c63 0 72 -6 62 -44 -7 -26 -6 -124 3
-171 2 -14 7 -52 11 -85 4 -33 15 -103 25 -155 11 -52 22 -113 25 -135 4 -22
13 -80 21 -130 8 -50 17 -109 20 -132 5 -29 12 -43 22 -43 12 0 13 9 8 48 -4
26 -10 63 -12 82 -3 19 -18 107 -34 195 -15 88 -34 194 -41 235 -12 71 -16
249 -8 333 l4 38 -98 2 c-93 2 -98 1 -103 -20z"/>
<path d="M205 919 c-15 -6 -11 -8 18 -8 20 -1 37 1 37 3 0 9 -37 12 -55 5z"/>
<path d="M275 920 c-3 -5 -1 -10 4 -10 6 0 11 5 11 10 0 6 -2 10 -4 10 -3 0
-8 -4 -11 -10z"/>
<path d="M323 918 c-2 -5 27 -8 66 -8 38 0 72 3 74 8 3 4 -26 7 -65 7 -38 0
-72 -3 -75 -7z"/>
<path d="M480 919 c0 -5 5 -7 10 -4 6 3 10 8 10 11 0 2 -4 4 -10 4 -5 0 -10
-5 -10 -11z"/>
<path d="M1021 904 c0 -11 3 -14 6 -6 3 7 2 16 -1 19 -3 4 -6 -2 -5 -13z"/>
<path d="M970 885 c-6 -8 -9 -19 -5 -25 3 -5 1 -10 -4 -10 -6 0 -11 -4 -11
-10 0 -11 29 -14 31 -2 3 13 5 62 3 62 -1 0 -7 -7 -14 -15z"/>
<path d="M4280 871 c0 -20 17 -37 27 -28 7 8 -7 47 -18 47 -5 0 -9 -9 -9 -19z"/>
<path d="M253 853 c9 -2 23 -2 30 0 6 3 -1 5 -18 5 -16 0 -22 -2 -12 -5z"/>
<path d="M3965 850 c-3 -5 1 -10 10 -10 9 0 13 5 10 10 -3 6 -8 10 -10 10 -2
0 -7 -4 -10 -10z"/>
<path d="M148 783 c7 -3 16 -2 19 1 4 3 -2 6 -13 5 -11 0 -14 -3 -6 -6z"/>
<path d="M188 783 c7 -3 16 -2 19 1 4 3 -2 6 -13 5 -11 0 -14 -3 -6 -6z"/>
<path d="M253 783 c15 -2 37 -2 50 0 12 2 0 4 -28 4 -27 0 -38 -2 -22 -4z"/>
<path d="M1283 738 c1 -10 2 -18 4 -18 1 0 7 8 12 18 7 14 6 19 -4 19 -7 0
-13 -9 -12 -19z"/>
<path d="M4190 750 c0 -5 5 -10 10 -10 6 0 10 5 10 10 0 6 -4 10 -10 10 -5 0
-10 -4 -10 -10z"/>
<path d="M480 740 c-22 -6 -23 -8 -7 -15 11 -4 23 -3 30 4 15 15 7 19 -23 11z"/>
<path d="M882 739 c2 -7 10 -15 17 -17 8 -3 12 1 9 9 -2 7 -10 15 -17 17 -8 3
-12 -1 -9 -9z"/>
<path d="M3920 736 c0 -15 18 -31 26 -23 7 7 -7 37 -17 37 -5 0 -9 -6 -9 -14z"/>
<path d="M4300 735 c0 -8 9 -15 20 -15 24 0 27 15 4 24 -22 9 -24 8 -24 -9z"/>
<path d="M248 728 c6 -6 18 -8 28 -6 14 3 12 5 -9 10 -19 3 -25 2 -19 -4z"/>
<path d="M313 728 c-12 -5 -6 -6 15 -4 19 3 36 7 39 10 8 7 -32 3 -54 -6z"/>
<path d="M410 736 c0 -9 30 -14 35 -6 4 6 -3 10 -14 10 -12 0 -21 -2 -21 -4z"/>
<path d="M528 733 c7 -3 16 -2 19 1 4 3 -2 6 -13 5 -11 0 -14 -3 -6 -6z"/>
<path d="M138 723 c7 -3 16 -2 19 1 4 3 -2 6 -13 5 -11 0 -14 -3 -6 -6z"/>
<path d="M1010 710 c0 -5 5 -10 10 -10 6 0 10 5 10 10 0 6 -4 10 -10 10 -5 0
-10 -4 -10 -10z"/>
<path d="M1795 710 c-57 -5 -60 -6 -57 -30 5 -49 8 -51 74 -48 62 3 63 3 66
34 4 41 -12 50 -83 44z m25 -40 c0 -5 -4 -10 -9 -10 -6 0 -13 5 -16 10 -3 6 1
10 9 10 9 0 16 -4 16 -10z"/>
<path d="M5009 697 c5 -5 17 -5 28 2 16 9 15 10 -9 9 -16 -2 -24 -6 -19 -11z"/>
<path d="M5060 700 c0 -5 7 -10 16 -10 8 0 12 5 9 10 -3 6 -10 10 -16 10 -5 0
-9 -4 -9 -10z"/>
<path d="M3416 668 c-10 -37 -7 -58 8 -58 16 0 26 21 26 56 0 31 -26 32 -34 2z"/>
<path d="M4672 654 c-14 -16 -5 -18 17 -5 7 5 9 11 5 14 -5 3 -15 -1 -22 -9z"/>
<path d="M3227 654 c-4 -4 -7 -14 -7 -23 0 -11 3 -12 11 -4 6 6 10 16 7 23 -2
6 -7 8 -11 4z"/>
<path d="M136 592 c-9 -8 -14 -9 -67 -11 -24 0 -38 -5 -34 -11 3 -5 1 -10 -4
-10 -6 0 -11 8 -11 18 0 14 -2 15 -9 2 -13 -19 -5 -30 22 -30 12 0 73 -2 135
-6 107 -5 112 -5 112 14 0 11 -6 25 -14 31 -16 14 -96 12 -96 -2 0 -5 -6 -4
-13 2 -8 6 -17 7 -21 3z"/>
<path d="M4190 590 c0 -5 5 -10 10 -10 6 0 10 5 10 10 0 6 -4 10 -10 10 -5 0
-10 -4 -10 -10z"/>
<path d="M5000 541 c0 -8 -33 -46 -133 -155 -45 -49 -84 -93 -85 -98 -2 -5
-30 -36 -63 -70 -32 -33 -59 -62 -59 -64 0 -3 -32 -39 -85 -95 -8 -9 -15 -21
-15 -27 0 -7 -6 -12 -14 -12 -8 0 -18 -5 -21 -10 -12 -20 25 -9 47 13 50 51
98 109 98 118 0 5 7 9 15 9 8 0 15 4 15 8 0 9 69 87 195 221 44 48 90 99 101
115 19 27 27 29 74 28 29 0 49 2 46 6 -9 8 -116 20 -116 13z"/>
<path d="M1145 511 c-25 -4 -34 -8 -24 -13 19 -7 67 1 75 13 3 5 2 8 -3 8 -4
-1 -26 -5 -48 -8z"/>
<path d="M1811 504 c0 -11 3 -14 6 -6 3 7 2 16 -1 19 -3 4 -6 -2 -5 -13z"/>
<path d="M3350 454 c0 -8 5 -12 10 -9 6 3 10 10 10 16 0 5 -4 9 -10 9 -5 0
-10 -7 -10 -16z"/>
<path d="M3330 394 c0 -8 5 -12 10 -9 6 3 10 10 10 16 0 5 -4 9 -10 9 -5 0
-10 -7 -10 -16z"/>
<path d="M3377 385 c-4 -8 -2 -17 3 -20 6 -4 10 3 10 14 0 25 -6 27 -13 6z"/>
<path d="M3301 323 c-10 -26 -10 -27 4 -9 8 11 15 23 15 28 0 15 -7 8 -19 -19z"/>
<path d="M3270 214 c0 -8 5 -12 10 -9 6 4 8 11 5 16 -9 14 -15 11 -15 -7z"/>
<path d="M3315 200 c-3 -5 1 -10 9 -10 9 0 16 5 16 10 0 6 -4 10 -9 10 -6 0
-13 -4 -16 -10z"/>
<path d="M1905 179 c-4 -6 -5 -12 -2 -15 2 -3 7 2 10 11 7 17 1 20 -8 4z"/>
</g>
</svg>
