<?xml version="1.0" standalone="no"?>
<!DOCTYPE svg PUBLIC "-//W3C//DTD SVG 20010904//EN"
 "http://www.w3.org/TR/2001/REC-SVG-20010904/DTD/svg10.dtd">
<svg version="1.0" xmlns="http://www.w3.org/2000/svg"
 width="512.000000pt" height="768.000000pt" viewBox="0 0 512.000000 768.000000"
 preserveAspectRatio="xMidYMid meet">
<metadata>
Created by potrace 1.16, written by Peter Selinger 2001-2019
</metadata>
<g transform="translate(0.000000,768.000000) scale(0.100000,-0.100000)"
fill="#000000" stroke="none">
<path d="M0 3840 l0 -3840 530 0 529 0 12 22 12 23 10 -23 10 -22 421 0 421 0
-66 24 c-163 57 -370 195 -448 298 -43 58 -87 146 -97 195 -5 26 0 37 32 73
l38 42 13 -44 c11 -40 74 -111 206 -234 23 -20 132 -92 174 -113 43 -21 89
-28 79 -12 -4 5 0 12 6 15 10 5 10 8 -1 12 -31 14 -209 139 -260 182 -114 97
-151 148 -151 206 0 38 15 39 59 2 22 -19 75 -48 118 -66 107 -44 166 -75 232
-120 37 -25 72 -41 101 -44 25 -3 95 -20 155 -37 127 -37 220 -52 204 -33 -5
7 -22 15 -36 19 -59 15 -309 119 -328 136 -20 19 -19 19 6 43 33 30 71 108 64
128 -4 10 -15 13 -32 10 -19 -4 -24 -1 -21 9 3 8 13 13 22 13 21 -2 21 12 0
20 -71 27 -98 -61 -28 -93 28 -12 32 -36 8 -45 -21 -8 -63 19 -73 47 -8 20 -9
20 -15 -11 -9 -40 -26 -41 -132 -6 -118 40 -156 59 -188 93 -25 26 -27 31 -13
37 10 3 63 -2 120 -11 56 -10 126 -17 154 -17 39 0 55 -4 62 -16 7 -13 12 -10
30 19 12 19 18 41 15 49 -20 49 -53 46 508 47 732 1 732 1 838 12 52 5 97 7
98 6 9 -8 -11 -44 -43 -79 -63 -69 -41 -74 59 -16 77 45 96 49 103 20 5 -18 7
-19 37 -3 17 9 48 29 69 46 43 34 57 27 57 -28 0 -61 -56 -120 -180 -186 -67
-36 -107 -66 -99 -74 10 -9 209 97 237 127 30 32 44 21 35 -27 -4 -24 -3 -28
7 -18 7 6 13 29 14 51 0 35 3 39 18 31 24 -13 58 -64 58 -88 0 -11 10 -25 23
-32 32 -16 116 -99 133 -131 8 -15 14 -53 14 -85 0 -78 20 -150 70 -255 l42
-88 534 0 534 0 0 3840 0 3840 -2560 0 -2560 0 0 -3840z m2742 3363 c-9 11 -6
13 18 9 33 -5 43 -15 46 -50 2 -18 0 -21 -10 -13 -7 6 -16 8 -19 4 -4 -3 -18
4 -32 17 -14 13 -25 18 -25 12 0 -7 4 -12 8 -12 5 0 9 -7 9 -15 0 -8 -4 -12
-9 -9 -4 3 -8 1 -8 -3 0 -5 -44 -5 -97 -1 -118 9 -143 15 -83 18 42 2 43 3 15
10 -25 6 -20 8 28 9 36 1 56 5 52 11 -3 6 -15 10 -26 10 -11 0 -18 4 -14 9 3
6 17 6 35 1 16 -5 29 -5 29 -2 -3 19 5 20 47 1 30 -12 43 -15 36 -6z m189 -38
c0 14 3 12 9 -9 5 -16 6 -36 1 -43 -6 -11 -14 -5 -36 23 -16 21 -23 34 -15 29
10 -6 12 -4 7 11 -5 14 -2 12 13 -6 18 -23 20 -24 21 -5z m-83 -3 c3 -9 -2
-13 -14 -10 -9 1 -19 9 -22 16 -3 9 2 13 14 10 9 -1 19 -9 22 -16z m498 -4
c-3 -7 -7 -26 -10 -41 -4 -17 -11 -25 -18 -21 -7 5 -9 0 -6 -14 3 -12 0 -29
-7 -39 -13 -17 -14 -17 -20 0 -5 11 2 31 17 55 13 20 27 45 31 55 7 19 18 24
13 5z m20 -43 c-6 -27 -17 -60 -23 -71 -7 -12 -10 -24 -8 -28 3 -3 0 -2 -7 3
-8 7 -8 14 -1 23 6 7 13 27 17 43 8 35 27 87 31 83 2 -2 -2 -25 -9 -53z m-365
26 c6 10 9 8 9 -8 0 -12 -3 -28 -6 -37 -11 -29 -24 -17 -23 22 0 20 3 31 6 23
5 -11 7 -11 14 0z m36 -23 c-3 -7 -5 -2 -5 12 0 14 2 19 5 13 2 -7 2 -19 0
-25z m50 -15 c-3 -10 -5 -4 -5 12 0 17 2 24 5 18 2 -7 2 -21 0 -30z m156 23
c7 -18 -3 -56 -15 -56 -5 0 -4 8 2 19 13 25 13 34 0 26 -5 -3 -10 1 -10 9 0
20 16 21 23 2z m-656 -2 c-3 -3 -12 -4 -19 -1 -8 3 -5 6 6 6 11 1 17 -2 13 -5z
m543 -15 c0 -5 -4 -9 -10 -9 -5 0 -10 7 -10 16 0 8 5 12 10 9 6 -3 10 -10 10
-16z m77 -11 c-3 -7 -5 -2 -5 12 0 14 2 19 5 13 2 -7 2 -19 0 -25z m63 -28 c0
-5 -4 -10 -10 -10 -5 0 -10 5 -10 10 0 6 5 10 10 10 6 0 10 -4 10 -10z m140
-4 c0 -2 -8 -10 -17 -17 -16 -13 -17 -12 -4 4 13 16 21 21 21 13z m-977 -13
c-7 -2 -19 -2 -25 0 -7 3 -2 5 12 5 14 0 19 -2 13 -5z m983 -45 l-16 -32 25
24 c14 13 25 18 25 12 0 -6 -5 -14 -10 -17 -6 -4 -8 -10 -5 -15 3 -4 -2 -13
-10 -20 -8 -7 -12 -17 -8 -23 3 -6 1 -7 -5 -3 -7 4 -12 13 -12 21 0 8 -4 17
-10 20 -5 3 -7 0 -4 -8 3 -8 1 -17 -4 -21 -19 -11 -2 49 27 93 21 33 26 9 7
-31z m-1029 36 c-3 -3 -12 -4 -19 -1 -8 3 -5 6 6 6 11 1 17 -2 13 -5z m-545
-31 c-4 -25 -33 -63 -46 -63 -9 0 14 54 31 72 21 23 21 23 15 -9z m505 21 c-3
-3 -12 -4 -19 -1 -8 3 -5 6 6 6 11 1 17 -2 13 -5z m1182 -34 c-21 -36 -86
-108 -78 -85 8 21 84 125 92 125 5 0 -2 -18 -14 -40z m-1044 13 c-11 -2 -39
-13 -62 -24 -24 -10 -47 -19 -52 -19 -5 0 -34 -11 -64 -25 -30 -14 -69 -27
-86 -30 -17 -2 -36 -7 -42 -11 -8 -4 -9 -3 -5 4 4 7 16 17 28 23 15 8 19 8 14
0 -10 -15 0 -14 37 4 81 38 204 83 227 83 19 0 21 -1 5 -5z m1070 -22 c-8 -17
-21 -33 -27 -37 -8 -5 -7 1 3 16 8 14 19 31 23 38 15 25 16 11 1 -17z m-1789
-57 c-19 -19 -21 -2 -4 29 11 19 13 20 16 5 2 -10 -4 -25 -12 -34z m1853 -12
c-19 -20 -39 -40 -45 -44 -6 -4 -19 -20 -29 -35 -10 -16 10 -2 44 32 33 33 61
55 61 50 0 -6 -29 -39 -65 -74 -49 -49 -65 -60 -65 -45 -1 19 -1 19 -15 0 -8
-11 -15 -15 -15 -9 0 15 151 175 158 168 3 -3 -10 -22 -29 -43z m-379 28 c12
-8 11 -10 -7 -10 -12 0 -25 5 -28 10 -8 13 15 13 35 0z m-1514 -45 c-5 -18 -2
-25 8 -25 8 0 17 6 20 13 3 6 2 -1 -1 -18 -3 -16 -13 -41 -21 -53 l-15 -24
-15 27 c-14 28 -10 69 10 92 16 20 21 15 14 -12z m644 4 c-8 -5 -46 -28 -85
-50 -38 -23 -77 -48 -85 -57 -8 -8 1 -5 20 7 70 44 151 82 162 75 6 -4 8 -3 5
3 -4 6 5 15 19 22 37 16 40 14 12 -12 -39 -36 -186 -119 -198 -112 -6 4 -9 2
-8 -3 2 -5 -22 -29 -52 -53 -30 -24 -45 -32 -32 -18 12 14 19 29 15 34 -5 4
-3 5 4 1 12 -6 26 8 29 32 3 14 -12 7 -42 -20 -20 -18 -22 -18 -28 -1 -5 12 0
24 16 37 13 10 22 23 20 28 -1 5 2 7 7 4 5 -4 14 1 19 10 5 9 24 18 43 19 19
2 63 17 99 34 64 31 89 39 60 20z m-170 -20 c-25 -17 -76 -42 -68 -34 13 14
62 44 73 44 6 0 3 -4 -5 -10z m1270 0 c0 -4 -4 -11 -10 -14 -5 -3 -10 -1 -10
5 0 6 -5 8 -12 4 -6 -4 -8 -3 -5 3 7 11 37 13 37 2z m200 8 c0 -2 -13 -16 -30
-32 -16 -16 -30 -26 -30 -22 0 3 12 18 27 32 27 24 33 28 33 22z m-170 -11 c0
-2 -7 -9 -15 -16 -13 -11 -14 -10 -9 4 5 14 24 23 24 12z m-1260 -16 c-8 -5
-19 -10 -25 -10 -5 0 -3 5 5 10 8 5 20 10 25 10 6 0 3 -5 -5 -10z m868 -9 c-3
-14 15 -41 26 -41 8 0 11 -11 8 -30 -4 -29 -22 -43 -22 -17 0 7 -14 27 -30 44
-33 33 -32 64 0 56 11 -3 19 -8 18 -12z m147 -11 c4 -6 10 -8 15 -5 4 3 19 -4
31 -16 13 -11 18 -18 12 -14 -7 3 -23 8 -35 10 -24 5 -60 35 -41 35 7 0 15 -5
18 -10z m-1411 -28 c8 -13 -25 -71 -44 -77 -11 -4 -16 -12 -13 -23 2 -10 -7
-30 -22 -46 -25 -27 -25 -28 -5 -33 31 -8 28 -67 -5 -89 -14 -9 -25 -22 -25
-30 0 -18 -39 -44 -56 -37 -22 8 -17 20 26 50 44 31 50 43 20 43 -23 0 -25 12
-8 43 10 20 10 21 -5 8 -10 -7 -17 -27 -17 -44 l0 -31 -16 23 c-10 14 -13 26
-7 30 9 6 33 45 33 54 0 2 -7 4 -15 4 -9 0 -14 -6 -11 -12 2 -7 -12 -20 -32
-29 -28 -14 -33 -20 -21 -27 12 -7 12 -9 -1 -9 -9 0 -21 5 -27 11 -8 8 -17 8
-32 0 -18 -10 -21 -9 -21 8 0 11 5 23 11 27 6 3 8 16 5 28 -3 13 1 31 8 42 14
18 15 18 55 -4 39 -22 41 -22 47 -5 11 37 38 85 42 74 7 -21 38 -11 72 24 33
34 54 43 64 27z m1751 -2 c-3 -5 -12 -10 -18 -10 -7 0 -6 4 3 10 19 12 23 12
15 0z m-1705 -24 c0 -22 -37 -62 -48 -51 -2 2 1 20 8 39 13 41 40 49 40 12z
m-200 -1 c0 -8 -4 -15 -10 -15 -5 0 -7 7 -4 15 4 8 8 15 10 15 2 0 4 -7 4 -15z
m588 -19 c-10 -7 -15 -16 -12 -19 3 -3 -4 -11 -16 -17 -15 -8 -25 -9 -32 -2
-7 7 2 18 28 35 39 25 65 27 32 3z m1322 11 c0 -2 -10 -12 -22 -23 l-23 -19
19 23 c18 21 26 27 26 19z m143 -38 c-85 -73 -81 -80 7 -11 37 29 40 31 20 8
-13 -15 -40 -37 -60 -49 -19 -11 -55 -37 -80 -56 -25 -20 -39 -28 -32 -19 8 9
11 21 8 26 -7 11 13 29 100 92 84 60 102 64 37 9z m-1573 17 c0 -3 -4 -8 -10
-11 -5 -3 -10 -1 -10 4 0 6 5 11 10 11 6 0 10 -2 10 -4z m1143 -10 c4 -10 1
-13 -9 -9 -15 6 -19 23 -5 23 5 0 11 -7 14 -14z m-984 -22 c-12 -15 -11 -16
11 -9 l25 7 -27 -21 c-15 -12 -32 -20 -38 -16 -6 4 -7 -1 -3 -11 5 -14 3 -16
-12 -10 -11 4 -16 4 -12 0 8 -8 -41 -64 -57 -64 -5 0 1 11 14 25 13 14 21 25
19 25 -3 0 -23 -19 -44 -42 -22 -23 -30 -34 -17 -24 12 11 22 14 22 8 0 -13
-35 -34 -43 -26 -3 3 -15 1 -26 -6 -30 -16 -26 -3 9 27 17 13 28 28 25 33 -3
4 2 11 11 14 9 3 12 11 8 18 -4 7 -4 10 1 6 4 -4 24 6 43 23 24 22 42 29 59
26 13 -2 21 -2 18 1 -5 5 13 32 22 32 3 0 -1 -7 -8 -16z m1335 1 c-4 -8 -11
-12 -16 -9 -6 4 -5 10 3 15 19 12 19 11 13 -6z m-1450 -4 c3 -5 -1 -14 -9 -21
-8 -7 -15 -10 -15 -6 0 4 -12 -1 -27 -11 l-28 -17 29 32 c31 33 41 38 50 23z
m1419 -5 c3 -8 -3 -22 -13 -31 -18 -16 -18 -16 -13 6 5 17 3 20 -8 14 -12 -8
-12 -6 0 8 16 21 27 22 34 3z m-1275 -65 c-7 -8 -22 -24 -33 -34 -19 -18 -19
-18 8 -1 15 9 27 19 27 23 0 3 13 15 28 26 21 15 24 15 13 2 -13 -16 -9 -21
14 -18 6 1 1 -7 -11 -16 -17 -16 -114 -139 -167 -213 -14 -20 -13 -15 3 20 20
44 14 40 -25 -14 -15 -21 -30 -15 -38 15 -3 11 -3 18 0 15 8 -8 32 27 26 37
-3 5 -9 3 -14 -4 -7 -11 -9 -11 -9 2 0 9 8 23 17 30 14 12 16 12 8 0 -5 -10
-4 -12 3 -7 8 5 9 13 2 25 -7 14 -4 23 14 40 12 12 26 18 30 14 4 -5 6 -3 4 2
-3 11 37 53 68 71 28 16 48 7 32 -15z m1312 -21 c-19 -16 -39 -29 -45 -29 -5
0 6 13 25 29 19 17 39 30 45 30 5 0 -6 -14 -25 -30z m-368 -5 c3 3 11 -3 19
-12 13 -16 12 -17 -3 -4 -22 17 -23 8 -2 -24 16 -24 16 -25 -5 -22 -12 2 -29
14 -38 27 -9 13 -11 20 -5 16 15 -9 15 -1 1 27 -12 21 -11 21 8 4 11 -9 22
-15 25 -12z m-857 -15 c-3 -5 -1 -10 6 -10 6 0 -6 -20 -27 -43 -22 -24 -61
-76 -89 -116 -27 -40 -60 -84 -73 -99 l-22 -27 10 28 c6 16 7 33 4 39 -5 7 -2
8 6 3 10 -6 12 -4 7 9 -4 10 -1 19 8 23 9 3 15 10 14 17 -3 24 1 37 10 31 5
-3 13 0 17 6 4 8 3 9 -4 5 -25 -16 -9 12 39 67 39 44 54 55 64 47 10 -8 15 -8
21 1 5 8 3 9 -7 4 -12 -8 -12 -6 0 8 15 18 26 23 16 7z m1425 -3 c-21 -19
-200 -101 -206 -94 -6 6 185 104 206 106 13 1 13 -1 0 -12z m-1303 -35 c-15
-16 -27 -32 -27 -38 0 -5 3 -5 8 1 4 6 16 17 27 25 19 14 19 14 4 -5 -9 -11
-58 -72 -109 -135 -52 -63 -90 -106 -87 -95 7 20 7 20 -8 1 -11 -14 -15 -16
-15 -5 0 15 15 47 45 94 19 29 19 30 1 15 -18 -14 -19 -14 -7 8 7 13 17 20 24
16 7 -4 9 -3 4 1 -8 9 32 57 42 50 4 -2 31 20 61 50 56 54 86 68 37 17z m1149
-4 c4 -6 3 -8 -3 -5 -6 4 -16 0 -23 -8 -7 -8 -18 -15 -24 -15 -6 1 0 10 13 20
27 23 28 23 37 8z m-2070 -12 c16 -17 19 -30 4 -21 -6 4 -10 -6 -10 -23 0 -21
-7 -32 -24 -40 -19 -8 -26 -8 -29 1 -3 9 -8 8 -21 -2 -14 -12 -18 -12 -31 5
-29 38 -12 74 36 74 15 0 31 5 34 10 9 14 24 12 41 -4z m854 -21 c-13 -14 -26
-23 -28 -20 -3 3 5 16 18 30 13 14 26 23 28 20 3 -3 -5 -16 -18 -30z m784 4
c-3 -5 0 -8 7 -7 6 2 14 -3 17 -11 3 -8 0 -11 -7 -7 -14 9 -14 0 -1 -24 9 -16
8 -18 -5 -14 -11 5 -14 2 -9 -11 14 -35 -20 -9 -42 33 -20 38 -21 41 -4 32 11
-6 24 -18 29 -28 6 -9 11 -12 11 -5 0 6 -4 15 -10 18 -5 3 -10 18 -10 32 0 21
2 23 15 13 8 -7 12 -16 9 -21z m-830 9 c-14 -22 -137 -178 -141 -178 -14 0 58
108 112 166 22 24 41 31 29 12z m1391 -34 c-27 -22 -88 -54 -103 -54 -4 0 5 8
18 17 14 10 28 17 33 15 4 -1 7 3 7 8 0 6 6 10 13 10 8 0 22 9 32 20 10 11 21
17 24 14 3 -3 -7 -17 -24 -30z m-1221 -36 l-19 -22 28 18 28 17 -18 -28 c-9
-15 -37 -56 -61 -91 -24 -35 -42 -66 -39 -68 2 -3 14 12 26 32 12 20 24 34 27
31 8 -8 -46 -78 -56 -72 -4 2 -18 -8 -31 -23 -26 -31 -63 -58 -43 -31 6 8 14
23 18 33 7 19 6 19 -12 3 -18 -16 -20 -16 -26 -2 -4 11 -2 14 7 9 8 -5 7 -2
-2 9 -12 15 -10 22 14 54 46 62 97 112 109 107 7 -3 23 7 36 21 29 31 40 33
14 3z m649 -54 c-7 -18 -20 -9 -39 27 l-15 31 30 -22 c16 -13 27 -29 24 -36z
m457 42 c0 -2 -7 -7 -16 -10 -8 -3 -12 -2 -9 4 6 10 25 14 25 6z m-966 -22 c4
-10 2 -13 -6 -8 -8 5 -9 2 -5 -9 4 -10 2 -16 -6 -14 -7 1 -12 -6 -12 -15 0
-19 -105 -171 -113 -163 -3 3 -12 -1 -20 -8 -13 -10 -14 -9 -7 3 28 48 96 150
105 155 14 9 12 -8 -2 -25 -11 -12 -10 -12 5 -1 11 9 15 21 12 32 -4 11 -2 19
3 19 5 0 14 11 20 25 13 29 18 31 26 9z m466 -17 c0 -6 8 -19 18 -30 9 -11 12
-17 5 -14 -6 4 -13 4 -16 0 -2 -5 -2 -3 -1 4 2 6 -3 17 -11 23 -7 6 -15 20
-18 31 -4 16 -3 18 9 8 8 -6 14 -16 14 -22z m-1679 4 c-18 -14 -27 -16 -37 -7
-9 8 -7 12 10 18 41 12 52 8 27 -11z m115 6 c0 -1 8 -15 19 -32 18 -30 18 -30
-2 -12 -25 22 -33 22 -33 -3 0 -11 -4 -20 -10 -20 -5 0 -10 7 -10 15 0 8 -11
17 -25 21 -25 6 -25 7 -8 26 12 14 24 17 43 13 14 -4 25 -7 26 -8z m1017 -4
c-6 -16 -3 -15 17 2 27 23 22 14 -31 -65 -43 -65 -115 -146 -99 -112 7 15 7
22 0 22 -5 0 5 21 24 48 18 26 39 46 46 44 6 -1 9 2 5 8 -3 5 4 23 16 40 26
34 31 37 22 13z m1078 -25 c16 -3 29 -2 29 2 0 3 9 6 20 7 11 1 18 -2 16 -6
-3 -4 31 -5 75 -3 53 3 79 0 79 -7 0 -7 -38 -11 -116 -11 -99 0 -119 3 -140
19 -16 13 -20 21 -12 24 7 2 14 -2 16 -8 2 -7 16 -15 33 -17z m-2191 -18 c24
-58 -2 -74 -72 -43 -46 20 -48 31 -8 39 16 4 35 13 41 20 17 21 25 17 39 -16z
m1054 5 c-9 -14 -18 -25 -21 -25 -5 0 5 18 20 38 17 22 18 13 1 -13z m212 -4
c-10 -11 -18 -26 -20 -34 -4 -27 -76 -106 -91 -100 -8 3 -15 1 -15 -3 -1 -5
-12 -22 -26 -39 l-26 -30 16 32 c19 38 20 47 4 37 -7 -4 -8 -3 -4 5 4 6 12 9
17 5 6 -3 9 2 7 12 -2 11 3 19 11 19 8 0 16 6 19 14 3 9 0 11 -7 6 -9 -5 -9
-1 0 13 7 12 15 19 18 16 3 -2 18 8 34 23 l30 28 -18 -30 c-15 -26 -12 -24 21
11 38 39 64 53 30 15z m350 -43 c9 -20 13 -24 10 -10 -2 12 0 20 4 17 5 -3 10
-2 13 2 2 5 2 3 1 -4 -17 -72 -16 -82 8 -93 20 -9 32 -35 66 -143 23 -73 42
-138 42 -146 0 -7 14 -73 31 -145 30 -127 31 -136 27 -321 -4 -175 -6 -196
-31 -264 -15 -40 -45 -108 -68 -150 -23 -42 -62 -114 -87 -161 -74 -138 -129
-207 -194 -241 -51 -26 -73 -24 -98 11 -17 24 -29 30 -57 30 -20 0 -64 11 -99
25 -52 21 -67 23 -94 14 -24 -9 -41 -9 -72 2 -35 11 -45 11 -86 -6 -26 -10
-74 -20 -107 -23 -33 -2 -64 -8 -70 -13 -16 -16 -49 -10 -75 14 -42 37 -140
192 -140 221 0 5 -6 17 -13 25 -8 9 -26 48 -42 86 -31 79 -35 146 -11 192 15
30 16 30 111 35 53 3 101 10 108 17 6 6 19 11 29 11 10 0 18 5 18 11 0 5 3 8
8 5 11 -7 45 21 38 32 -3 5 -21 8 -41 6 -19 -1 -38 3 -42 9 -4 6 0 8 10 4 9
-3 19 -2 23 4 4 7 10 6 18 0 7 -6 16 -8 20 -4 4 4 27 6 51 4 36 -2 45 1 45 14
0 14 3 14 30 0 17 -9 39 -13 49 -10 22 7 41 46 41 85 0 47 -49 138 -87 165
-32 21 -33 24 -14 30 11 3 20 11 18 18 -3 13 90 66 118 67 25 0 138 74 223
147 35 29 67 53 73 53 5 0 9 7 9 15 0 8 5 15 12 15 6 0 8 3 5 6 -4 4 -26 -11
-49 -32 -68 -63 -148 -119 -226 -158 -39 -20 -75 -36 -79 -36 -4 0 33 25 83
56 145 91 216 151 331 277 42 46 69 85 66 93 -3 8 2 17 11 20 9 3 16 10 16 15
0 4 11 19 24 32 17 17 23 33 20 48 -2 13 -2 19 2 12 6 -13 44 19 44 37 0 19
11 10 26 -22z m-276 3 c0 -5 -7 -14 -15 -21 -16 -14 -20 -30 -7 -30 5 0 15 11
22 25 7 14 15 23 18 20 3 -2 -1 -11 -8 -20 -8 -10 -9 -15 -2 -15 6 0 9 -7 6
-15 -4 -8 -13 -15 -22 -15 -8 0 -12 -3 -9 -6 10 -10 -33 -65 -44 -58 -6 3 -8
13 -5 21 4 8 1 11 -5 8 -6 -4 -8 -13 -5 -21 7 -18 -3 -44 -16 -44 -6 0 -5 7 2
15 7 9 10 19 6 22 -4 4 -12 1 -17 -7 -8 -11 -9 -10 -4 8 4 13 2 22 -4 22 -6 0
-11 -5 -11 -12 0 -6 -2 -9 -6 -6 -3 3 14 31 37 62 44 58 67 79 29 25 -12 -16
-20 -32 -17 -35 3 -3 18 15 33 40 27 43 44 57 44 37z m-1210 -14 c8 -7 24 -23
35 -36 l20 -24 -20 10 c-11 5 -37 8 -57 6 -29 -3 -38 -1 -38 11 0 43 28 59 60
33z m-232 -31 c-7 -8 -15 -12 -17 -11 -5 6 10 25 20 25 5 0 4 -6 -3 -14z m152
-7 c9 -15 8 -24 -1 -35 -25 -31 -55 -10 -45 32 8 29 31 31 46 3z m2167 15 c-3
-3 -12 -4 -19 -1 -8 3 -5 6 6 6 11 1 17 -2 13 -5z m81 -31 c-27 -2 -69 -2 -95
0 -27 2 -5 3 47 3 52 0 74 -1 48 -3z m-2413 -12 c3 -5 1 -12 -5 -16 -5 -3 -10
1 -10 9 0 18 6 21 15 7z m1105 -5 c0 -2 -8 -10 -17 -17 -16 -13 -17 -12 -4 4
13 16 21 21 21 13z m439 -90 c-24 -31 -48 -56 -53 -56 -4 0 8 18 27 39 19 22
41 49 47 61 6 12 14 19 17 16 3 -2 -14 -30 -38 -60z m-113 26 c-17 -16 -18
-16 -5 5 7 12 15 20 18 17 3 -2 -3 -12 -13 -22z m982 21 c-16 -2 -40 -2 -55 0
-16 2 -3 4 27 4 30 0 43 -2 28 -4z m-2411 -58 c-1 -19 -6 -33 -12 -30 -5 3
-18 8 -28 11 -16 6 -16 8 5 29 32 32 37 30 35 -10z m1533 31 c0 -2 -8 -10 -17
-17 -16 -13 -17 -12 -4 4 13 16 21 21 21 13z m-1433 -32 c4 -12 8 -12 13 -3 6
8 11 5 20 -11 10 -18 9 -25 -4 -38 -12 -13 -18 -13 -30 -2 -9 7 -16 20 -16 29
0 9 -5 22 -12 29 -9 9 -8 12 5 12 10 0 20 -7 24 -16z m-127 -37 c9 -7 17 -28
18 -47 1 -28 0 -32 -9 -17 -5 9 -15 17 -20 17 -6 0 -7 -5 -4 -10 3 -6 0 -17
-9 -25 -25 -25 -27 -17 -5 21 11 20 18 39 14 42 -3 3 -5 0 -5 -5 0 -19 -35 -7
-37 13 -2 10 0 13 3 7 8 -18 24 -16 24 2 0 18 10 19 30 2z m2393 6 c-13 -2
-33 -2 -45 0 -13 2 -3 4 22 4 25 0 35 -2 23 -4z m-2446 -66 c-7 -23 -25 -16
-35 12 l-11 31 25 -17 c14 -8 23 -21 21 -26z m1553 28 c-7 -9 -15 -13 -19 -10
-3 3 1 10 9 15 21 14 24 12 10 -5z m883 -32 c-7 -2 -19 -2 -25 0 -7 3 -2 5 12
5 14 0 19 -2 13 -5z m-2433 -47 c0 -2 -11 -1 -25 2 -14 2 -22 8 -19 13 4 8 44
-6 44 -15z m2433 17 c-7 -2 -21 -2 -30 0 -10 3 -4 5 12 5 17 0 24 -2 18 -5z
m-973 -26 c0 -2 -12 -14 -27 -28 l-28 -24 24 28 c23 25 31 32 31 24z m-1415
-37 c3 -5 -1 -10 -9 -10 -9 0 -16 5 -16 10 0 6 4 10 9 10 6 0 13 -4 16 -10z
m1347 -22 c-6 -7 -25 -22 -44 -32 -39 -23 -32 -13 14 20 38 26 45 29 30 12z
m-1342 -2 c0 -2 -7 -9 -15 -16 -13 -11 -14 -10 -9 4 5 14 24 23 24 12z m-52
-51 c0 -13 -8 -30 -16 -37 -13 -11 -14 -11 -7 2 5 8 8 25 6 38 -1 12 2 22 7
22 5 0 10 -11 10 -25z m95 -12 c-7 -2 -21 -2 -30 0 -10 3 -4 5 12 5 17 0 24
-2 18 -5z m-63 -13 c0 -5 -5 -10 -11 -10 -5 0 -7 5 -4 10 3 6 8 10 11 10 2 0
4 -4 4 -10z m63 -82 c9 0 17 -3 17 -9 0 -5 -4 -9 -9 -9 -5 0 -16 -3 -24 -6
-10 -3 -20 3 -27 17 -11 20 -10 21 6 14 11 -4 27 -7 37 -7z m-3 -84 c0 -8 -5
-12 -10 -9 -6 4 -8 11 -5 16 9 14 15 11 15 -7z m2178 4 c7 -7 12 -31 12 -53 0
-49 -33 -182 -54 -222 l-15 -28 -1 38 c0 21 8 50 18 64 9 15 12 24 5 20 -9 -6
-12 1 -10 22 2 30 16 33 18 3 1 -23 27 47 28 75 1 22 -18 48 -41 55 -15 5 -3
38 15 38 7 0 18 -5 25 -12z m-1057 -1044 c2 2 39 6 82 10 77 7 78 7 65 -14
-19 -29 -98 -51 -98 -27 0 8 -3 7 -9 -2 -10 -16 -64 -7 -81 14 -17 20 -3 37
19 25 10 -5 20 -8 22 -6z m297 -7 c33 -26 -21 -68 -58 -45 -24 15 -25 31 -5
52 15 15 38 12 63 -7z m-38 -160 c0 -26 -20 -57 -63 -98 -35 -34 -87 -44 -193
-37 -58 4 -82 11 -113 31 -41 27 -77 80 -66 97 4 6 65 10 138 11 73 1 157 4
187 9 101 14 110 13 110 -13z m1274 -839 c-9 -14 -23 2 -17 18 4 12 8 13 14 3
4 -7 5 -17 3 -21z m-306 -15 c20 -9 40 -15 44 -15 4 1 12 -7 18 -17 8 -16 4
-25 -27 -50 -20 -16 -40 -28 -43 -26 -4 3 -7 -12 -7 -32 1 -34 -21 -62 -24
-31 -5 55 -4 86 5 103 8 18 7 18 -7 6 -14 -11 -18 -11 -23 4 -10 25 12 42 35
28 15 -10 20 -9 24 2 6 14 -19 29 -34 19 -5 -3 -9 2 -9 10 0 20 2 20 48 -1z
m352 -3 c0 -5 -2 -10 -4 -10 -3 0 -8 5 -11 10 -3 6 -1 10 4 10 6 0 11 -4 11
-10z m-131 -21 c17 -6 31 -17 31 -25 0 -13 12 -18 33 -15 4 0 8 -3 8 -9 1 -5
2 -15 3 -21 3 -29 69 -51 79 -26 3 6 6 3 6 -9 1 -11 -9 -31 -21 -44 -13 -14
-23 -27 -23 -30 0 -3 -6 -4 -13 -2 -7 2 -20 -2 -28 -9 -8 -6 -14 -7 -14 -2 0
6 -17 10 -37 9 -37 -1 -38 0 -41 39 -2 27 -10 46 -26 60 -24 20 -24 21 -8 58
9 20 17 37 18 37 0 0 15 -5 33 -11z m-2844 -7 c-3 -3 0 -11 6 -18 8 -9 5 -11
-10 -7 -24 6 -28 30 -6 30 8 0 13 -3 10 -5z m2770 -22 c-3 -5 -12 -10 -18 -10
-7 0 -6 4 3 10 19 12 23 12 15 0z m-2807 -18 c2 -7 -3 -12 -12 -12 -9 0 -16 7
-16 16 0 17 22 14 28 -4z m155 -5 c-2 -4 -3 -14 -3 -22 0 -13 -4 -13 -22 -3
-13 7 -25 14 -27 15 -1 1 0 6 4 12 6 11 52 9 48 -2z m-209 -27 c-6 -6 -10 -3
-10 10 0 13 4 16 10 10 7 -7 7 -13 0 -20z m206 -30 c0 -5 -4 -10 -10 -10 -5 0
-10 5 -10 10 0 6 5 10 10 10 6 0 10 -4 10 -10z m-192 -25 c-3 -3 -9 2 -12 12
-6 14 -5 15 5 6 7 -7 10 -15 7 -18z m1966 -437 c-5 -8 -1 -8 10 1 15 12 19 12
26 1 4 -7 20 -14 35 -16 36 -4 38 -7 23 -38 -10 -23 -9 -29 2 -36 8 -5 11 -12
7 -16 -11 -11 -47 -15 -47 -6 0 5 -10 8 -22 7 -13 -1 -33 2 -45 6 -15 6 -29 2
-47 -12 -20 -16 -24 -25 -19 -54 6 -36 -4 -44 -26 -22 -10 10 -12 8 -9 -8 2
-14 -2 -19 -14 -17 -9 1 -19 -6 -23 -16 -5 -18 -8 -17 -36 9 -17 16 -28 33
-24 39 3 6 10 8 14 6 4 -3 8 1 8 9 0 10 -4 12 -12 5 -11 -9 -37 1 -37 15 0 4
6 12 14 16 8 6 9 9 1 9 -6 0 -10 8 -8 18 1 9 10 16 19 16 9 -1 16 6 16 15 0
12 2 13 9 3 4 -8 10 -13 12 -12 2 1 11 -1 19 -3 46 -15 60 -15 61 1 0 11 2 12
6 5 7 -19 16 -16 52 16 25 22 31 35 26 50 -4 13 -2 21 5 21 6 0 8 -5 4 -12z
m-1003 -43 c0 -5 -5 -11 -13 -13 -10 -3 -10 -1 1 6 11 8 10 11 -5 15 -16 5
-16 6 -1 4 10 -1 18 -6 18 -12z m215 -6 c-4 6 -4 11 0 11 8 0 54 -52 54 -62 0
-5 7 -8 16 -8 9 0 18 -9 21 -20 5 -19 7 -20 23 -5 17 15 18 15 16 -1 0 -11 7
-20 18 -22 10 -2 16 0 13 5 -4 5 0 10 7 10 9 0 12 -9 9 -29 -2 -16 1 -36 7
-43 7 -8 9 -19 5 -25 -4 -6 3 -9 17 -6 15 2 22 9 20 21 -2 10 1 14 8 10 6 -4
8 -22 5 -47 -4 -27 -3 -38 4 -33 6 3 1 -10 -10 -30 -12 -20 -19 -39 -15 -42 3
-4 6 -1 6 7 0 10 3 10 15 0 18 -15 21 -37 3 -23 -15 11 -48 11 -66 -1 -13 -8
-62 35 -62 55 0 5 -4 9 -9 9 -5 0 -16 6 -23 13 -7 7 -22 18 -33 25 -11 6 -14
12 -7 12 6 0 12 5 12 11 0 6 -7 9 -15 5 -9 -3 -15 0 -15 10 0 8 -4 12 -10 9
-5 -3 -10 -1 -10 5 0 6 -4 8 -10 5 -5 -3 -10 -1 -10 6 0 6 -8 9 -20 6 -11 -3
-20 -2 -20 1 0 4 -17 6 -38 6 -23 -1 -39 3 -40 10 -4 50 -22 72 -56 71 -14 -1
-29 -5 -33 -8 -12 -12 -25 -7 -20 7 3 8 3 17 -1 20 -3 4 -6 15 -7 26 -2 20 -2
20 17 0 14 -15 23 -18 37 -11 12 7 22 6 31 -2 7 -7 10 -7 7 -1 -3 6 0 11 7 11
8 0 12 -7 9 -16 -4 -13 -1 -12 10 2 9 11 16 14 19 7 2 -7 14 -9 32 -4 19 5 24
9 15 15 -7 4 -18 5 -24 1 -5 -3 -4 2 4 12 8 9 20 15 27 12 7 -3 16 -1 19 4 4
6 14 6 27 -1 15 -8 19 -8 14 0z m347 -94 c-3 -9 -8 -14 -10 -11 -3 3 -2 9 2
15 9 16 15 13 8 -4z m78 2 c-7 -7 -14 -8 -21 -1 -6 6 -2 10 12 11 16 2 18 -1
9 -10z m34 -25 c-11 -9 -14 -10 -7 -2 18 21 15 34 -5 19 -16 -13 -17 -12 -4 4
10 12 17 15 25 7 7 -7 4 -15 -9 -28z m-134 -16 c-8 -10 -8 -16 2 -25 8 -6 18
-7 22 -3 5 4 5 1 1 -6 -6 -11 -12 -10 -27 4 -14 13 -16 20 -8 31 6 7 14 13 16
13 3 0 0 -6 -6 -14z m-111 -34 c0 -14 -15 -8 -15 6 0 4 -4 14 -10 22 -8 13 -7
13 8 1 9 -7 17 -20 17 -29z m920 22 c0 -8 -4 -12 -10 -9 -5 3 -10 10 -10 16 0
5 5 9 10 9 6 0 10 -7 10 -16z m44 -8 c-3 -7 3 -19 12 -27 12 -9 15 -10 10 -1
-5 8 0 12 16 12 22 -1 22 -1 -7 -25 -21 -18 -31 -21 -37 -12 -4 7 -3 14 3 16
6 2 0 15 -13 29 -13 14 -17 22 -10 18 6 -4 12 -2 12 4 0 6 4 9 10 5 5 -3 7
-12 4 -19z m-683 -13 c-12 -20 -14 -14 -5 12 4 9 9 14 11 11 3 -2 0 -13 -6
-23z m-200 -12 c-11 -7 -10 -14 4 -37 11 -19 12 -23 2 -11 -9 11 -16 14 -19 7
-2 -7 -10 -5 -23 5 -20 16 -20 16 3 10 22 -6 23 -5 12 15 -7 13 -8 20 -2 16 6
-3 14 -1 17 5 4 5 10 8 13 4 4 -3 0 -10 -7 -14z m-560 -15 c1 -6 1 -17 0 -25
-2 -7 3 -11 10 -9 16 5 52 -29 44 -43 -4 -5 -10 -7 -15 -4 -14 9 -82 -23 -112
-52 -27 -26 -68 -26 -68 1 0 7 -13 25 -30 41 -18 17 -28 36 -26 49 2 12 6 20
9 19 4 -2 12 -3 18 -3 5 0 7 -5 4 -11 -14 -22 55 0 91 29 35 29 73 33 75 8z
m832 1 c11 10 8 -10 -3 -27 -9 -13 -13 -11 -29 10 -23 29 -17 48 8 26 10 -9
21 -13 24 -9z m396 -25 c24 -17 47 -29 52 -27 4 3 10 1 14 -5 3 -5 15 -10 25
-10 34 0 33 -21 -1 -56 -23 -23 -40 -33 -53 -30 -10 3 -30 -2 -43 -11 -15 -10
-27 -13 -31 -7 -4 5 -11 9 -17 9 -15 -1 -75 -29 -75 -35 0 -3 -12 -7 -26 -8
-15 -1 -39 -17 -58 -39 l-33 -36 -45 41 c-25 23 -47 40 -49 38 -2 -2 -11 3
-19 12 -13 14 -12 15 5 9 19 -7 19 -7 1 7 -10 8 -16 21 -13 29 3 8 0 20 -6 26
-8 8 -8 11 2 11 7 0 9 5 5 11 -4 8 0 8 15 0 11 -7 21 -16 21 -22 0 -6 5 -7 10
-4 8 5 7 12 -2 22 -12 15 -11 15 9 2 12 -7 19 -16 15 -19 -11 -8 -14 -32 -3
-25 6 3 15 -4 21 -15 13 -24 40 -27 40 -4 0 14 2 15 17 3 15 -12 16 -12 11 3
-4 10 -1 19 9 22 12 5 13 9 3 21 -9 11 -9 15 -1 15 7 0 10 4 6 9 -3 5 -1 12 4
15 5 4 12 2 16 -3 9 -15 48 -8 68 12 10 10 20 31 24 47 7 37 23 35 82 -8z
m-436 5 c2 -7 -2 -23 -10 -37 -7 -15 -13 -19 -13 -9 0 8 6 21 13 28 10 11 7
12 -15 7 -30 -7 -31 -6 -22 17 6 17 40 12 47 -6z m-229 -33 c9 -3 14 -10 11
-15 -3 -4 -12 -6 -20 -2 -11 4 -13 1 -9 -11 3 -9 11 -13 17 -9 6 3 7 1 3 -5
-10 -17 4 -63 18 -55 6 4 5 -1 -3 -10 -7 -9 -10 -17 -7 -17 4 0 4 -5 1 -10 -4
-6 -11 -8 -16 -4 -6 4 -6 11 1 19 8 10 8 15 0 20 -12 7 -24 0 -26 -16 -3 -22
-5 -23 -13 -10 -10 16 17 53 33 45 6 -3 4 0 -5 8 -9 7 -15 24 -13 38 1 14 3
28 3 33 1 9 5 9 25 1z m192 -31 c-11 -11 -17 4 -9 23 7 18 8 18 11 1 2 -10 1
-21 -2 -24z m-628 9 c8 8 9 5 5 -10 -4 -16 -10 -19 -26 -13 -12 4 -23 14 -25
20 -3 10 0 10 15 2 14 -7 23 -7 31 1z m593 -15 c-10 -9 -11 -8 -5 6 3 10 9 15
12 12 3 -3 0 -11 -7 -18z m-547 -43 c8 -21 -7 -17 -21 6 -11 16 -10 18 1 14 8
-3 17 -12 20 -20z m-123 -11 c11 -15 11 -16 0 -6 -7 6 -21 9 -30 6 -14 -4 -14
-3 -1 6 8 6 16 11 16 11 1 0 8 -8 15 -17z m-62 0 c12 10 13 9 7 -1 -5 -8 1
-20 16 -32 23 -19 23 -19 -14 -3 -21 9 -40 24 -43 32 -5 13 -4 13 6 4 10 -10
16 -10 28 0z m227 -6 c9 3 14 -1 14 -11 0 -14 -4 -15 -20 -6 -11 6 -20 16 -19
23 0 9 2 9 5 0 3 -7 12 -9 20 -6z m-36 -17 c0 -5 -7 -7 -15 -4 -8 4 -15 8 -15
10 0 2 7 4 15 4 8 0 15 -4 15 -10z m-18 -32 c-18 -18 -15 -25 9 -24 12 1 24
-5 26 -11 3 -8 -4 -13 -19 -13 -17 0 -24 -6 -25 -20 -2 -18 12 -25 39 -21 4 0
5 -6 2 -14 -4 -8 -1 -15 5 -15 6 0 11 -8 11 -17 -1 -17 -2 -17 -13 -1 -31 40
-100 88 -128 88 -22 0 -29 5 -29 20 0 23 0 23 35 10 23 -9 26 -8 22 4 -6 15 4
20 53 24 19 2 21 -1 12 -10z m218 -12 c0 -3 -4 -8 -10 -11 -5 -3 -10 -1 -10 4
0 6 5 11 10 11 6 0 10 -2 10 -4z m1035 -106 c3 -6 -1 -7 -9 -4 -21 8 -20 -6 2
-22 16 -12 15 -13 -8 -14 -15 0 -32 6 -39 13 -11 10 -13 9 -8 -5 5 -13 1 -18
-14 -18 -19 0 -20 1 -3 17 17 18 53 40 66 42 4 1 10 -3 13 -9z m-1635 -4 c0
-11 -19 -15 -25 -6 -3 5 1 10 9 10 9 0 16 -2 16 -4z m1200 -16 c0 -5 -7 -10
-15 -10 -8 0 -15 5 -15 10 0 6 7 10 15 10 8 0 15 -4 15 -10z m-1195 -20 c-2
-11 -11 -27 -19 -36 -9 -8 -16 -22 -16 -30 0 -16 -16 -19 -25 -3 -4 5 1 19 10
29 15 17 15 19 -1 28 -11 6 -13 11 -5 16 6 4 11 2 11 -3 0 -17 27 -13 34 4 8
22 16 18 11 -5z m42 -6 c-3 -3 -12 -4 -19 -1 -8 3 -5 6 6 6 11 1 17 -2 13 -5z
m400 -1 c-4 -3 -2 -12 4 -19 7 -8 7 -14 -1 -19 -6 -3 -7 -11 -4 -17 4 -6 2 -8
-4 -4 -6 3 -9 19 -8 34 4 32 4 32 13 32 3 0 3 -3 0 -7z m1184 -21 c-7 -2 -18
1 -23 6 -8 8 -4 9 13 5 13 -4 18 -8 10 -11z m-491 4 c0 -3 -4 -8 -10 -11 -5
-3 -10 -1 -10 4 0 6 5 11 10 11 6 0 10 -2 10 -4z m415 -16 c-5 -16 -2 -20 19
-20 17 0 26 -5 26 -16 0 -10 -6 -14 -14 -11 -7 3 -19 0 -25 -6 -19 -19 -12
-27 14 -17 21 8 25 7 25 -10 0 -22 -15 -27 -24 -7 -5 10 -7 10 -12 0 -9 -20
-44 -16 -44 5 0 14 2 15 10 2 5 -8 10 -10 10 -5 0 18 -15 32 -32 32 -10 0 -18
-7 -18 -14 0 -8 5 -11 12 -7 7 4 8 3 4 -4 -10 -16 -38 -2 -31 16 3 8 0 22 -7
31 -11 14 -11 14 2 5 20 -15 90 -25 90 -13 0 5 -9 14 -20 21 -24 15 -27 30 -3
21 11 -4 14 -3 9 5 -4 7 -2 12 4 12 7 0 9 -8 5 -20z m-1498 -12 c7 -6 18 -6
24 -2 9 5 10 2 6 -9 -7 -19 4 -22 20 -6 7 7 9 3 5 -16 -2 -15 -11 -29 -19 -32
-8 -3 -11 -13 -8 -24 4 -11 2 -19 -6 -19 -8 0 -9 -3 0 -13 8 -10 7 -14 -4 -14
-8 0 -11 5 -8 10 4 6 0 8 -9 4 -25 -9 -30 5 -8 20 26 18 27 37 1 24 -20 -11
-31 -5 -31 15 0 7 13 11 35 10 38 -1 43 5 21 23 -9 8 -16 8 -20 2 -11 -17 -35
-1 -28 17 5 15 4 16 -14 2 -17 -14 -18 -13 -7 1 7 9 10 19 6 23 -10 10 29 -5
44 -16z m1583 -10 c0 -10 -36 7 -45 22 -4 6 5 5 19 -2 14 -6 26 -15 26 -20z
m-126 7 c3 -8 1 -15 -3 -15 -5 0 -11 7 -15 15 -3 8 -1 15 3 15 5 0 11 -7 15
-15z m-54 -45 c0 -13 -5 -18 -15 -14 -16 7 -19 17 -8 27 12 13 23 7 23 -13z
m165 10 c3 -5 1 -10 -4 -10 -6 0 -11 5 -11 10 0 6 2 10 4 10 3 0 8 -4 11 -10z
m-1655 -15 c0 -2 -6 -5 -13 -8 -8 -3 -14 1 -14 8 0 7 6 11 14 8 7 -3 13 -6 13
-8z m190 1 c0 -3 -4 -8 -10 -11 -5 -3 -10 -1 -10 4 0 6 5 11 10 11 6 0 10 -2
10 -4z m350 -16 c0 -5 -4 -10 -10 -10 -5 0 -10 5 -10 10 0 6 5 10 10 10 6 0
10 -4 10 -10z m60 -5 c0 -2 -9 -3 -19 -2 -11 0 -18 5 -15 9 4 6 34 0 34 -7z
m-566 -13 c3 -5 -1 -9 -9 -9 -8 0 -12 4 -9 9 3 4 7 8 9 8 2 0 6 -4 9 -8z m186
-3 c0 -6 -7 -8 -16 -5 -12 5 -15 2 -10 -10 5 -12 2 -15 -10 -10 -14 5 -15 4
-4 -9 11 -14 14 -13 26 2 12 17 13 16 14 -4 0 -29 -19 -29 -49 -2 -15 14 -19
24 -12 33 13 15 61 19 61 5z m1240 2 c0 -5 8 -7 19 -4 10 3 21 1 24 -4 5 -8
-39 -10 -53 -3 -3 1 -9 2 -13 1 -5 -1 -6 3 -2 9 8 12 25 13 25 1z m83 -28 c-5
-12 -3 -14 8 -8 12 8 12 6 0 -8 -19 -24 -29 -21 -23 8 2 14 8 25 13 25 5 0 5
-7 2 -17z m-1503 -8 c0 -2 -6 -5 -13 -8 -8 -3 -14 1 -14 8 0 7 6 11 14 8 7 -3
13 -6 13 -8z m1396 -2 c-3 9 -1 17 4 17 6 0 10 -7 10 -15 0 -18 12 -19 27 -4
14 14 25 -12 13 -32 -7 -11 -13 -10 -29 5 -12 11 -21 16 -21 11 0 -4 -7 -2
-15 5 -8 7 -15 17 -15 23 0 6 7 2 16 -9 13 -16 15 -16 10 -1z m222 -18 c-3
-14 -1 -25 4 -25 5 0 6 -5 2 -11 -5 -9 -13 -53 -16 -96 -2 -15 -13 -6 -13 9 0
6 -8 16 -18 22 -14 8 -20 8 -27 -4 -5 -8 -10 -10 -10 -4 0 5 6 16 13 23 10 11
8 13 -10 8 -15 -3 -20 -1 -16 9 5 13 -8 19 -30 15 -5 -1 -6 3 -2 9 3 6 11 7
17 4 7 -4 8 -2 4 5 -13 20 35 61 73 61 30 0 33 -2 29 -25z m-1550 -12 c52 -12
73 -23 66 -34 -3 -5 -10 -6 -16 -3 -7 5 -8 2 -3 -6 6 -10 4 -12 -9 -7 -10 4
-15 3 -11 -3 6 -10 -34 -36 -50 -31 -5 1 -7 0 -3 -4 12 -12 -15 -32 -38 -27
-12 2 -27 15 -33 28 -14 31 -14 47 -1 39 5 -3 7 0 4 9 -3 8 -1 24 6 35 11 22
16 22 88 4z m140 5 c-2 -7 3 -12 10 -10 7 1 12 -8 12 -20 0 -19 -2 -20 -10 -8
-5 8 -10 11 -11 5 0 -5 -4 -1 -8 10 -5 11 -7 23 -4 28 7 11 13 8 11 -5z m1148
3 c-3 -5 0 -14 8 -20 11 -9 15 -9 19 1 4 10 9 9 20 -4 8 -10 16 -15 19 -12 4
3 9 -1 14 -8 4 -7 4 -10 -1 -6 -4 4 -15 3 -24 -1 -12 -7 -25 -1 -48 19 -20 18
-27 31 -20 34 18 7 19 7 13 -3z m-1088 -56 c-9 -9 -30 14 -23 25 6 9 10 8 17
-4 6 -10 8 -19 6 -21z m1062 5 c0 -11 -2 -20 -4 -20 -2 0 -6 9 -9 20 -3 11 -1
20 4 20 5 0 9 -9 9 -20z m30 0 c0 -5 -2 -10 -4 -10 -3 0 -8 5 -11 10 -3 6 -1
10 4 10 6 0 11 -4 11 -10z m-1223 -25 c0 -8 -4 -12 -9 -9 -5 3 -6 10 -3 15 9
13 12 11 12 -6z m97 -17 c9 -12 16 -18 16 -12 0 5 -5 15 -12 22 -9 9 -9 12 0
12 7 0 15 -6 18 -14 3 -8 11 -13 19 -10 7 3 14 -4 17 -18 4 -21 1 -24 -24 -20
-26 4 -33 -4 -29 -30 0 -4 -7 -4 -16 -1 -10 4 -14 2 -10 -4 5 -7 0 -9 -13 -6
-11 3 -23 10 -26 15 -4 5 -13 3 -22 -5 -15 -12 -19 -11 -34 5 -14 14 -15 18
-4 18 8 0 18 5 22 12 5 7 3 8 -7 3 -12 -8 -12 -6 0 8 7 9 20 17 28 17 8 0 12
4 9 9 -4 5 0 12 6 14 27 11 47 6 62 -15z m1182 11 c4 -8 9 -7 16 2 7 11 11 11
15 2 2 -7 13 -13 24 -13 10 0 19 -4 19 -10 0 -5 6 -10 13 -10 7 0 20 -9 29
-19 22 -25 5 -40 -40 -36 -24 2 -37 -3 -48 -19 -12 -15 -15 -16 -11 -3 4 9 2
17 -4 17 -6 0 -8 4 -5 8 3 5 0 9 -7 10 -7 1 -29 4 -50 6 -36 4 -65 16 -38 16
8 0 10 7 6 20 -4 14 -1 22 10 26 23 9 31 -4 17 -26 -7 -12 -8 -20 -2 -20 5 0
10 5 10 11 0 5 5 7 11 3 9 -5 10 1 5 20 -5 19 -3 26 8 26 8 0 18 -5 22 -11z
m-11 -87 c-3 -3 -11 0 -18 7 -9 10 -8 11 6 5 10 -3 15 -9 12 -12z m-1231 -8
c3 -8 2 -12 -4 -9 -6 3 -10 10 -10 16 0 14 7 11 14 -7z m1571 -1001 c22 -14
44 -31 48 -37 13 -18 0 -74 -24 -107 -38 -54 -179 -103 -179 -63 0 22 18 54
48 86 23 25 23 28 8 43 -22 22 -20 47 5 79 26 33 44 33 94 -1z m-1811 -54 c5
-5 12 -36 14 -69 7 -90 -20 -90 -150 -4 -71 48 -88 79 -45 87 33 7 171 -4 181
-14z m2786 -581 c0 -22 -2 -22 -29 1 -13 11 -20 25 -16 30 9 15 45 -10 45 -31z
m-3540 -38 c99 -27 120 -37 130 -65 21 -55 -24 -165 -67 -165 -22 0 -82 60
-76 76 10 27 -86 144 -118 144 -23 0 -15 27 9 32 20 5 33 2 122 -22z m3222 -5
c11 -5 8 -19 -15 -68 -34 -71 -63 -107 -87 -107 -9 0 -21 -5 -27 -11 -8 -8
-17 -1 -32 29 -27 54 -26 83 3 111 35 33 124 59 158 46z m-2922 -49 c0 -2 -7
-9 -15 -16 -13 -11 -14 -10 -9 4 5 14 24 23 24 12z m-33 -58 c-3 -8 -6 -5 -6
6 -1 11 2 17 5 13 3 -3 4 -12 1 -19z m-423 -15 c9 -22 -12 -53 -30 -46 -10 4
-12 9 -5 16 6 6 6 18 1 32 -7 19 -6 22 10 18 10 -3 21 -12 24 -20z m3588 0 c5
-12 80 -68 100 -76 21 -7 21 -57 1 -64 -7 -3 -13 -11 -13 -19 0 -8 -4 -14 -10
-14 -5 0 -9 -5 -7 -12 4 -23 -28 -18 -58 8 -16 14 -49 37 -72 51 -24 14 -43
27 -43 30 0 8 84 102 92 103 3 0 8 -3 10 -7z m-3018 -48 c-8 -19 -44 -40 -44
-26 0 8 38 41 47 41 1 0 0 -7 -3 -15z m-89 -41 c17 -12 18 -16 5 -24 -18 -11
-26 -6 -33 20 -6 24 1 25 28 4z m-412 -41 c-1 -5 11 -9 28 -8 33 2 35 -2 14
-29 -8 -10 -12 -23 -9 -28 3 -4 -2 -11 -10 -14 -9 -3 -13 -10 -10 -15 3 -5 -2
-6 -10 -3 -15 6 -20 17 -17 36 0 5 -5 7 -11 5 -7 -1 -12 4 -10 11 1 6 -4 12
-12 12 -21 0 -30 20 -17 33 9 9 11 8 6 -5 -10 -25 12 -23 27 2 13 20 35 22 31
3z m531 -41 c2 -4 -7 -8 -22 -7 -20 0 -30 -9 -46 -38 -11 -20 -23 -37 -28 -37
-4 0 1 15 11 32 10 18 23 43 30 56 10 18 15 20 31 12 10 -6 21 -14 24 -18z
m-280 -12 c-5 -23 -3 -30 10 -30 18 0 22 -25 5 -36 -6 -3 -22 6 -35 22 -22 28
-28 49 -11 42 5 -2 13 5 18 15 15 25 19 21 13 -13z m-335 -14 c9 -11 9 -16 0
-22 -8 -4 -9 -3 -5 4 4 7 2 12 -3 12 -6 0 -11 5 -11 10 0 14 5 13 19 -4z
m3761 -5 c-10 -20 -30 -37 -30 -27 0 6 33 46 38 46 1 0 -2 -9 -8 -19z m-160
-5 c0 -3 -4 -8 -10 -11 -5 -3 -10 -1 -10 4 0 6 5 11 10 11 6 0 10 -2 10 -4z
m-3123 -24 c15 -25 1 -46 -25 -38 -17 6 -18 10 -8 31 13 30 18 31 33 7z m3103
-6 c0 -3 -4 -8 -10 -11 -5 -3 -10 -1 -10 4 0 6 5 11 10 11 6 0 10 -2 10 -4z"/>
<path d="M2678 7168 c5 -5 16 -8 23 -6 8 3 3 7 -10 11 -17 4 -21 3 -13 -5z"/>
<path d="M3629 6669 c-23 -19 -23 -20 -2 -10 12 6 25 16 28 21 10 16 -1 12
-26 -11z"/>
<path d="M2329 6663 c-13 -16 -12 -17 4 -4 9 7 17 15 17 17 0 8 -8 3 -21 -13z"/>
<path d="M2219 6573 c-13 -16 -12 -17 4 -4 9 7 17 15 17 17 0 8 -8 3 -21 -13z"/>
<path d="M2384 6578 l-19 -23 23 19 c21 18 27 26 19 26 -2 0 -12 -10 -23 -22z"/>
<path d="M2659 6313 c-13 -16 -12 -17 4 -4 9 7 17 15 17 17 0 8 -8 3 -21 -13z"/>
<path d="M2630 6275 c-7 -9 -11 -17 -9 -20 3 -2 10 5 17 15 14 24 10 26 -8 5z"/>
<path d="M2667 6423 c-4 -3 -7 -11 -7 -17 0 -6 5 -5 12 2 6 6 9 14 7 17 -3 3
-9 2 -12 -2z"/>
<path d="M2746 6311 c-23 -43 -20 -52 5 -12 11 18 18 35 15 38 -2 3 -12 -9
-20 -26z"/>
<path d="M2940 6053 l-25 -25 28 17 c15 10 27 21 27 26 0 12 -2 11 -30 -18z"/>
<path d="M3075 5734 c-11 -3 -47 -12 -80 -20 -33 -8 -93 -24 -133 -36 l-72
-23 -20 -53 c-27 -71 -27 -148 0 -162 14 -7 26 -8 39 0 27 14 32 13 29 -6 -3
-15 7 -17 75 -15 42 1 77 -1 77 -5 0 -4 -10 -18 -21 -30 l-22 -23 29 -6 c16
-4 44 -11 62 -17 57 -17 88 -2 181 90 83 82 112 127 104 163 -4 15 -33 23
-180 44 -24 4 -43 10 -43 15 0 15 92 42 150 43 33 0 60 3 60 4 0 22 -183 50
-235 37z m-39 -304 c9 0 15 -3 12 -6 -6 -5 -118 12 -125 20 -3 2 0 14 7 26 11
21 11 21 50 -10 21 -16 46 -30 56 -30z m94 36 c0 -16 -47 -49 -59 -41 -5 2 3
18 18 34 26 29 41 31 41 7z m-70 -76 c0 -10 -10 -24 -22 -31 -18 -10 -20 -9
-15 4 4 11 1 14 -7 11 -7 -3 -13 1 -13 9 0 9 7 12 19 9 10 -2 18 1 18 7 0 6 5
11 10 11 6 0 10 -9 10 -20z"/>
<path d="M2945 5390 c-3 -5 -1 -10 4 -10 6 0 11 5 11 10 0 6 -2 10 -4 10 -3 0
-8 -4 -11 -10z"/>
<path d="M2478 4994 c-22 -6 -22 -15 -4 -57 17 -42 61 -79 114 -96 40 -13 45
-13 99 13 69 35 103 67 103 101 0 29 2 28 -115 31 -49 1 -110 4 -135 7 -25 3
-53 3 -62 1z"/>
<path d="M2817 6273 c-4 -3 -7 -11 -7 -17 0 -6 5 -5 12 2 6 6 9 14 7 17 -3 3
-9 2 -12 -2z"/>
<path d="M3859 3593 c-13 -16 -12 -17 4 -4 16 13 21 21 13 21 -2 0 -10 -8 -17
-17z"/>
<path d="M2930 2915 c-7 -9 -11 -18 -8 -20 3 -3 11 1 18 10 7 9 11 18 8 20 -3
3 -11 -1 -18 -10z"/>
<path d="M2945 2890 c-3 -6 1 -7 9 -4 18 7 21 14 7 14 -6 0 -13 -4 -16 -10z"/>
<path d="M2510 2754 c0 -8 5 -12 10 -9 6 4 8 11 5 16 -9 14 -15 11 -15 -7z"/>
<path d="M2140 2584 c0 -8 5 -12 10 -9 6 4 8 11 5 16 -9 14 -15 11 -15 -7z"/>
<path d="M3276 2152 c-3 -5 1 -9 9 -9 8 0 12 4 9 9 -3 4 -7 8 -9 8 -2 0 -6 -4
-9 -8z"/>
<path d="M3310 2119 c0 -5 5 -7 10 -4 6 3 10 8 10 11 0 2 -4 4 -10 4 -5 0 -10
-5 -10 -11z"/>
<path d="M3270 2110 c0 -5 7 -7 15 -4 8 4 15 8 15 10 0 2 -7 4 -15 4 -8 0 -15
-4 -15 -10z"/>
<path d="M3180 712 c-15 -12 -24 -33 -27 -64 -5 -40 -3 -48 19 -62 46 -30 88
6 88 74 0 28 -29 70 -49 70 -5 0 -19 -8 -31 -18z m58 -70 c-2 -22 -8 -27 -32
-27 -17 0 -33 7 -40 18 -9 15 -7 22 12 37 32 26 65 11 60 -28z"/>
<path d="M3205 546 c-40 -13 -40 -13 -13 -21 34 -9 58 -1 58 20 0 8 -1 15 -2
14 -2 0 -21 -6 -43 -13z"/>
<path d="M3752 484 c-12 -25 -43 -69 -69 -97 l-47 -52 53 50 c29 28 62 69 73
93 26 59 18 64 -10 6z"/>
<path d="M3580 299 c-22 -18 -22 -19 -3 -10 12 6 25 16 28 21 9 15 3 12 -25
-11z"/>
<path d="M3485 244 c-77 -43 -165 -73 -268 -89 -78 -12 -79 -13 -30 -14 87 -2
182 24 271 74 45 25 84 50 87 55 8 13 8 13 -60 -26z"/>
<path d="M1992 201 c-13 -3 -23 -10 -24 -16 0 -11 27 -17 142 -34 41 -6 127
-20 190 -31 84 -15 161 -20 284 -20 93 0 167 2 165 4 -2 2 -65 7 -139 11 -74
3 -152 10 -172 16 -20 5 -40 8 -45 7 -14 -3 -289 47 -336 62 -20 6 -25 5 -20
-3 5 -9 3 -9 -8 -1 -8 6 -24 8 -37 5z"/>
<path d="M3078 43 c7 -3 16 -2 19 1 4 3 -2 6 -13 5 -11 0 -14 -3 -6 -6z"/>
<path d="M2965 19 c-44 -9 -69 -18 -55 -18 29 -1 138 24 147 33 8 7 6 7 -92
-15z"/>
</g>
</svg>
