<?xml version="1.0" standalone="no"?>
<!DOCTYPE svg PUBLIC "-//W3C//DTD SVG 20010904//EN"
 "http://www.w3.org/TR/2001/REC-SVG-20010904/DTD/svg10.dtd">
<svg version="1.0" xmlns="http://www.w3.org/2000/svg"
 width="512.000000pt" height="512.000000pt" viewBox="0 0 512.000000 512.000000"
 preserveAspectRatio="xMidYMid meet">
<metadata>
Created by potrace 1.16, written by Peter Selinger 2001-2019
</metadata>
<g transform="translate(0.000000,512.000000) scale(0.100000,-0.100000)"
fill="#000000" stroke="none">
<path d="M605 4890 c4 -6 11 -8 16 -5 14 9 11 15 -7 15 -8 0 -12 -5 -9 -10z"/>
<path d="M670 4889 c-19 -4 133 -7 338 -8 204 0 372 2 372 7 0 8 -660 10 -710
1z"/>
<path d="M1415 4889 c-15 -6 -11 -8 18 -8 20 -1 37 1 37 3 0 9 -37 12 -55 5z"/>
<path d="M3670 4892 c-67 -5 -68 -17 -2 -15 31 1 241 2 466 2 225 1 407 4 403
7 -6 6 -787 11 -867 6z"/>
<path d="M1859 4879 c-8 -5 43 -9 129 -9 78 0 142 3 142 8 0 10 -254 12 -271
1z"/>
<path d="M2140 4877 c0 -4 27 -7 60 -5 78 4 78 17 0 15 -33 -1 -60 -6 -60 -10z"/>
<path d="M2290 4880 c0 -5 5 -10 10 -10 6 0 10 5 10 10 0 6 -4 10 -10 10 -5 0
-10 -4 -10 -10z"/>
<path d="M2935 4880 c4 -6 56 -10 117 -10 61 0 109 3 105 6 -10 10 -228 14
-222 4z"/>
<path d="M4558 4883 c7 -3 16 -2 19 1 4 3 -2 6 -13 5 -11 0 -14 -3 -6 -6z"/>
<path d="M4598 4883 c7 -3 16 -2 19 1 4 3 -2 6 -13 5 -11 0 -14 -3 -6 -6z"/>
<path d="M4648 4883 c6 -2 18 -2 25 0 6 3 1 5 -13 5 -14 0 -19 -2 -12 -5z"/>
<path d="M3193 4873 c15 -2 39 -2 55 0 15 2 2 4 -28 4 -30 0 -43 -2 -27 -4z"/>
<path d="M3308 4873 c6 -2 18 -2 25 0 6 3 1 5 -13 5 -14 0 -19 -2 -12 -5z"/>
<path d="M3358 4873 c7 -3 16 -2 19 1 4 3 -2 6 -13 5 -11 0 -14 -3 -6 -6z"/>
<path d="M3548 4873 c12 -2 30 -2 40 0 9 3 -1 5 -23 4 -22 0 -30 -2 -17 -4z"/>
<path d="M2521 4144 c2 -399 7 -728 11 -730 18 -11 20 114 16 752 -4 572 -3
684 8 684 15 0 16 -67 16 -1010 0 -371 2 -430 19 -430 5 0 9 320 9 730 l0 730
-41 0 -41 0 3 -726z"/>
<path d="M2372 4853 c-6 -2 -9 -10 -5 -16 13 -21 14 -49 2 -63 -9 -11 -8 -14
5 -14 13 0 16 11 16 50 0 28 -1 50 -2 49 -2 0 -9 -3 -16 -6z"/>
<path d="M261 4823 l-31 -27 0 -529 c0 -363 3 -528 10 -525 11 3 15 772 5 788
-3 4 7 16 22 25 15 10 86 76 159 146 l133 129 441 2 c243 2 449 0 459 -4 10
-3 76 -70 147 -149 l129 -142 1 -121 c2 -372 7 -559 14 -541 4 11 6 144 5 295
-2 167 1 266 6 252 5 -13 7 -28 4 -33 -3 -4 -3 -32 1 -60 5 -37 9 -47 16 -36
6 12 5 496 -1 550 -1 4 -14 7 -31 7 -19 0 -28 -4 -25 -12 3 -7 6 -71 8 -141
l2 -129 -25 30 c-14 17 -70 80 -125 141 l-100 110 -596 1 -597 0 -31 -27z
m243 -6 c-11 -6 -25 -20 -33 -31 -21 -31 -213 -217 -219 -212 -2 3 -3 51 -3
108 2 138 5 141 144 148 114 6 139 3 111 -13z"/>
<path d="M270 4795 c-8 -9 -9 -15 -2 -15 6 0 13 4 16 9 3 5 16 7 29 5 20 -4
21 -4 2 5 -28 13 -31 13 -45 -4z"/>
<path d="M363 4770 c25 -20 52 -19 60 4 3 8 -10 12 -40 14 l-45 2 25 -20z"/>
<path d="M1560 4841 c8 -6 18 -7 24 -4 5 4 6 1 1 -7 -5 -8 14 -33 56 -72 35
-33 65 -56 67 -49 4 11 -75 91 -89 91 -4 0 -9 10 -12 21 -5 20 -3 21 34 16 21
-3 42 -1 45 4 3 5 -27 9 -68 9 -48 0 -68 -3 -58 -9z"/>
<path d="M1813 4835 c0 -8 7 -17 15 -20 10 -3 12 0 8 10 -3 9 0 15 9 15 8 0
15 -7 15 -15 0 -17 16 -20 25 -6 7 12 -26 31 -53 31 -10 0 -19 -7 -19 -15z"/>
<path d="M2030 4845 c0 -3 9 -15 20 -27 11 -12 20 -28 20 -35 0 -8 5 -11 10
-8 6 3 10 3 10 -2 1 -14 40 -56 46 -50 4 3 -12 28 -35 55 -23 26 -41 54 -41
60 0 7 -7 12 -15 12 -8 0 -15 -2 -15 -5z"/>
<path d="M2120 4840 c0 -5 29 -39 64 -75 63 -63 96 -81 96 -50 0 8 -8 15 -18
15 -20 0 -105 76 -115 103 -7 18 -27 24 -27 7z"/>
<path d="M2190 4837 c0 -19 10 -27 26 -20 21 8 17 33 -6 33 -11 0 -20 -6 -20
-13z"/>
<path d="M2267 4843 c-7 -13 5 -83 14 -83 5 0 8 10 7 23 -1 12 2 32 6 45 5 16
3 22 -8 22 -8 0 -17 -3 -19 -7z"/>
<path d="M2930 4840 c0 -5 5 -10 10 -10 6 0 10 5 10 10 0 6 -4 10 -10 10 -5 0
-10 -4 -10 -10z"/>
<path d="M3024 4829 c-13 -15 -14 -20 -4 -15 8 3 23 9 33 12 9 4 17 10 17 15
0 17 -27 9 -46 -12z"/>
<path d="M3110 4827 c-16 -27 -5 -32 18 -9 11 11 23 18 26 15 3 -4 6 -1 6 5 0
18 -37 10 -50 -11z"/>
<path d="M3245 4829 c-4 -12 -2 -26 4 -32 17 -17 26 0 10 19 -13 16 -12 17 8
12 16 -4 20 -2 16 8 -8 21 -31 17 -38 -7z"/>
<path d="M3295 4840 c3 -5 14 -10 23 -10 15 0 15 2 2 10 -20 13 -33 13 -25 0z"/>
<path d="M3380 4841 c-14 -4 -20 -10 -14 -13 5 -4 16 -3 24 3 30 18 31 8 6
-37 -14 -26 -26 -51 -26 -56 0 -5 -28 -35 -62 -66 -129 -119 -152 -142 -146
-147 3 -3 23 12 44 32 84 81 160 142 178 143 14 0 16 3 8 13 -17 20 34 97 70
104 15 3 31 9 34 14 2 4 11 6 19 2 8 -3 15 0 15 6 0 12 -108 14 -150 2z"/>
<path d="M3558 4843 c7 -3 16 -2 19 1 4 3 -2 6 -13 5 -11 0 -14 -3 -6 -6z"/>
<path d="M3610 4841 c0 -5 -89 -100 -198 -210 l-199 -200 3 -68 c5 -122 5
-122 13 -88 4 17 6 55 4 85 -3 42 1 61 15 79 11 13 24 21 29 18 6 -4 9 -42 9
-87 -1 -48 2 -76 7 -71 5 5 8 48 6 95 -4 75 -2 87 14 92 9 3 17 11 17 17 0 6
73 82 161 169 l161 158 523 0 c288 -1 536 2 552 5 26 5 26 5 8 -7 -30 -20
-105 -94 -105 -105 0 -12 129 -137 157 -152 25 -13 73 -15 73 -2 0 4 -14 12
-30 17 -44 13 -159 114 -159 140 -1 23 59 83 84 85 28 3 33 4 41 12 13 12 44
8 50 -8 4 -8 13 -15 21 -15 8 0 11 -5 8 -11 -13 -20 -16 -87 -5 -94 8 -5 6
-13 -6 -26 -9 -11 -14 -22 -11 -26 4 -3 7 -1 7 5 0 7 4 12 9 12 6 0 10 -181
10 -455 l1 -455 -133 -129 c-72 -71 -149 -143 -171 -160 l-39 -31 -379 0
c-323 0 -379 -2 -375 -14 3 -8 -3 -22 -14 -32 -10 -9 -19 -24 -19 -33 0 -9 9
-3 21 17 12 17 26 33 32 33 7 1 158 3 337 4 179 1 345 3 370 4 50 1 56 6 274
219 l110 107 -3 535 -2 535 -27 22 -27 23 -612 0 c-371 0 -613 -4 -613 -9z"/>
<path d="M1930 4830 c0 -5 7 -7 15 -4 22 9 19 -23 -5 -53 -19 -25 -19 -43 1
-43 5 0 9 7 9 15 0 8 9 24 21 36 26 26 17 59 -17 59 -13 0 -24 -4 -24 -10z"/>
<path d="M2980 4829 c0 -5 5 -7 10 -4 6 3 10 8 10 11 0 2 -4 4 -10 4 -5 0 -10
-5 -10 -11z"/>
<path d="M3072 4808 c-16 -16 -15 -25 1 -25 7 0 13 9 13 19 0 21 1 21 -14 6z"/>
<path d="M3168 4809 c-19 -10 -24 -29 -9 -29 5 0 19 9 32 20 26 21 9 28 -23 9z"/>
<path d="M4810 4811 c0 -5 7 -11 14 -14 10 -4 13 -1 9 9 -6 15 -23 19 -23 5z"/>
<path d="M648 4803 c7 -3 16 -2 19 1 4 3 -2 6 -13 5 -11 0 -14 -3 -6 -6z"/>
<path d="M2005 4800 c-3 -5 -1 -10 4 -10 6 0 11 5 11 10 0 6 -2 10 -4 10 -3 0
-8 -4 -11 -10z"/>
<path d="M3490 4774 c-23 -15 -90 -94 -90 -106 0 -6 35 28 94 91 33 35 32 38
-4 15z"/>
<path d="M3731 4774 c0 -11 3 -14 6 -6 3 7 2 16 -1 19 -3 4 -6 -2 -5 -13z"/>
<path d="M4760 4780 c0 -5 5 -10 11 -10 5 0 7 5 4 10 -3 6 -8 10 -11 10 -2 0
-4 -4 -4 -10z"/>
<path d="M3040 4771 c0 -6 4 -13 10 -16 6 -3 7 1 4 9 -7 18 -14 21 -14 7z"/>
<path d="M3106 4772 c-3 -6 -1 -14 5 -17 15 -10 25 3 12 16 -7 7 -13 7 -17 1z"/>
<path d="M3203 4760 c-1 -17 1 -19 11 -11 7 6 16 7 21 3 4 -4 6 0 3 8 -7 24
-33 23 -35 0z"/>
<path d="M1840 4761 c0 -5 7 -11 14 -14 10 -4 13 -1 9 9 -6 15 -23 19 -23 5z"/>
<path d="M3276 4735 c-15 -19 -23 -35 -18 -35 10 0 55 60 49 66 -2 3 -16 -11
-31 -31z"/>
<path d="M3685 4760 c-3 -5 -1 -10 4 -10 6 0 11 5 11 10 0 6 -2 10 -4 10 -3 0
-8 -4 -11 -10z"/>
<path d="M4734 4755 c11 -8 35 -15 54 -15 30 0 33 2 22 15 -9 11 -16 12 -25 5
-9 -7 -22 -7 -41 0 -27 9 -28 9 -10 -5z"/>
<path d="M1995 4730 c-10 -11 -24 -20 -32 -20 -7 0 -13 -4 -13 -10 0 -9 15
-14 34 -11 4 1 14 -3 21 -9 9 -8 15 -8 20 0 3 5 -1 10 -9 10 -24 0 -28 18 -6
30 14 8 26 8 40 0 16 -8 20 -8 20 4 0 30 -50 34 -75 6z"/>
<path d="M1230 4725 c-7 -9 -29 -15 -51 -15 -21 0 -41 -5 -45 -12 -5 -8 8 -10
50 -5 57 6 91 22 80 38 -8 13 -20 11 -34 -6z"/>
<path d="M2383 4695 c0 -27 2 -38 4 -22 2 15 2 37 0 50 -2 12 -4 0 -4 -28z"/>
<path d="M1078 4723 c-10 -2 -18 -9 -18 -14 0 -14 34 -11 56 6 19 14 19 14 -1
14 -11 -1 -28 -3 -37 -6z"/>
<path d="M2150 4715 c0 -10 28 -55 40 -65 4 -3 12 -15 19 -27 6 -13 16 -23 21
-23 16 0 11 13 -15 45 -13 17 -33 41 -44 55 -11 14 -20 20 -21 15z"/>
<path d="M3027 4713 c-4 -3 -7 -11 -7 -17 0 -6 5 -5 12 2 6 6 9 14 7 17 -3 3
-9 2 -12 -2z"/>
<path d="M3077 4706 c-4 -10 -1 -13 9 -9 15 6 19 23 5 23 -5 0 -11 -7 -14 -14z"/>
<path d="M3190 4709 c0 -5 5 -7 10 -4 6 3 10 8 10 11 0 2 -4 4 -10 4 -5 0 -10
-5 -10 -11z"/>
<path d="M563 4688 c-35 -40 -38 -54 -6 -28 32 25 49 50 34 50 -4 0 -17 -10
-28 -22z"/>
<path d="M1906 4695 c4 -8 10 -15 15 -15 4 0 6 7 3 15 -4 8 -10 15 -15 15 -4
0 -6 -7 -3 -15z"/>
<path d="M1344 4689 c-8 -14 26 -23 39 -10 6 6 9 11 7 12 -3 0 -13 2 -22 4
-10 2 -20 -1 -24 -6z"/>
<path d="M2066 4685 c4 -8 1 -15 -4 -15 -6 0 -13 -9 -17 -19 -9 -29 -36 -34
-64 -13 -44 32 -51 34 -45 18 3 -9 9 -16 14 -16 4 0 17 -9 30 -20 36 -31 51
-27 88 27 26 36 28 53 7 53 -9 0 -12 -6 -9 -15z"/>
<path d="M3160 4689 c0 -5 5 -7 10 -4 6 3 10 8 10 11 0 2 -4 4 -10 4 -5 0 -10
-5 -10 -11z"/>
<path d="M3629 4693 c-1 -5 -1 -11 -1 -15 1 -3 -6 -12 -16 -20 -15 -12 -16
-11 -3 5 16 20 4 22 -21 3 -26 -19 -23 -39 5 -31 28 9 68 45 61 56 -6 11 -24
12 -25 2z"/>
<path d="M1865 4680 c-3 -5 -1 -10 4 -10 6 0 11 5 11 10 0 6 -2 10 -4 10 -3 0
-8 -4 -11 -10z"/>
<path d="M3204 4655 c-21 -19 -34 -35 -28 -35 6 0 17 7 24 15 7 8 17 12 23 8
5 -3 7 -1 3 5 -3 6 4 18 16 26 12 9 18 16 12 16 -6 0 -28 -16 -50 -35z"/>
<path d="M4345 4670 c-8 -24 1 -40 21 -40 16 0 17 5 8 38 -8 27 -21 28 -29 2z"/>
<path d="M2991 4671 c-8 -6 -9 -11 -3 -15 6 -3 14 -1 17 5 9 14 2 20 -14 10z"/>
<path d="M835 4660 c-4 -12 -25 -15 -103 -14 -54 1 -102 -2 -109 -8 -9 -7 -13
-7 -13 0 0 11 -37 4 -46 -9 -2 -5 56 -7 131 -6 74 1 139 -1 144 -6 11 -11 21
27 10 44 -6 11 -9 11 -14 -1z"/>
<path d="M3036 4655 c-3 -8 -1 -15 4 -15 6 0 10 7 10 15 0 8 -2 15 -4 15 -2 0
-6 -7 -10 -15z"/>
<path d="M3126 4655 c4 -8 11 -15 16 -15 6 0 5 6 -2 15 -7 8 -14 15 -16 15 -2
0 -1 -7 2 -15z"/>
<path d="M2270 4650 c0 -5 7 -10 15 -10 8 0 15 5 15 10 0 6 -7 10 -15 10 -8 0
-15 -4 -15 -10z"/>
<path d="M1156 4639 c-21 -3 -47 -4 -56 -2 -11 3 -19 -3 -23 -16 -6 -24 -3
-25 22 -11 10 5 72 11 137 14 77 3 120 8 122 16 4 12 -127 12 -202 -1z"/>
<path d="M2138 4623 c-34 -17 -37 -37 -5 -27 27 8 47 23 47 35 0 12 -9 10 -42
-8z"/>
<path d="M1375 4620 c3 -5 8 -10 11 -10 2 0 4 5 4 10 0 6 -5 10 -11 10 -5 0
-7 -4 -4 -10z"/>
<path d="M570 4610 c-9 -6 -10 -10 -3 -10 6 0 15 5 18 10 8 12 4 12 -15 0z"/>
<path d="M470 4575 c-19 -19 -30 -35 -24 -35 9 0 74 57 74 66 0 12 -20 0 -50
-31z"/>
<path d="M3963 4598 c-2 -5 -18 -8 -35 -8 -37 0 -88 -36 -116 -82 -27 -44 -32
-112 -34 -448 -1 -318 2 -338 63 -359 21 -7 139 -11 336 -11 332 0 358 4 382
56 7 17 11 127 11 346 0 275 -2 319 -14 315 -10 -4 -13 -1 -9 9 3 7 9 14 14
14 5 0 9 27 9 59 0 48 -5 65 -23 87 l-24 27 -277 1 c-153 1 -280 -2 -283 -6z
m104 -18 c212 2 418 -6 436 -17 6 -4 3 -10 -9 -15 -14 -6 -12 -7 9 -3 22 4 27
2 27 -14 0 -11 -4 -22 -9 -25 -5 -3 -6 -158 -3 -354 l5 -348 -24 -28 -25 -28
-284 -5 c-194 -4 -294 -2 -313 6 -31 12 -70 81 -50 88 9 3 12 75 13 280 0 162
5 293 11 319 19 76 27 79 226 82 160 3 175 2 169 -13 -3 -9 -6 -21 -6 -26 0
-4 -55 -10 -122 -11 -68 -2 -122 -7 -120 -11 2 -4 -7 -16 -19 -26 -22 -18 -20
-18 112 -23 151 -5 191 -19 247 -83 46 -51 62 -98 62 -174 0 -75 -15 -130 -48
-183 -38 -61 -57 -68 -189 -68 -65 0 -155 -3 -200 -7 -79 -6 -83 -7 -83 -30
l0 -23 308 2 c265 3 307 5 307 18 0 12 -12 15 -55 14 -30 0 -70 -4 -87 -8 -25
-6 -33 -5 -33 4 0 8 3 11 6 7 11 -11 70 52 94 100 19 38 25 68 28 145 5 108
-9 164 -55 231 -26 38 -108 95 -120 83 -3 -3 -13 0 -22 7 -14 11 -14 10 -2 -5
7 -10 19 -18 26 -18 14 0 75 -53 75 -65 0 -4 -15 6 -34 23 -19 17 -48 33 -65
37 -17 4 -31 10 -31 13 0 4 -30 6 -67 5 -54 -2 -63 -1 -44 7 14 6 30 9 36 6 6
-2 34 0 61 6 27 6 62 10 77 9 20 -1 26 2 21 10 -5 9 -2 10 9 6 9 -3 19 -1 23
4 4 7 -7 10 -32 7 -31 -2 -39 1 -42 16 -3 15 1 18 22 14 14 -3 26 -2 26 3 0 4
-27 11 -60 15 -33 4 -60 11 -60 16 0 5 -4 7 -9 4 -18 -11 -130 -15 -137 -5 -3
6 -16 8 -28 5 -42 -10 -142 -16 -121 -6 11 5 32 9 47 9 15 1 33 7 40 15 7 8
16 12 20 9 4 -2 34 -4 65 -3z m-224 -90 c-3 -11 -10 -23 -16 -27 -5 -3 -8 -2
-5 3 3 5 8 17 11 27 9 24 16 22 10 -3z m237 -50 c0 -5 -17 -9 -37 -9 l-38 2
35 7 c19 4 36 8 38 9 1 0 2 -3 2 -9z m334 -170 c4 -14 -2 -8 -14 14 -11 22
-20 42 -20 45 0 12 28 -36 34 -59z m133 -127 c-2 -21 -4 -4 -4 37 0 41 2 58 4
38 2 -21 2 -55 0 -75z m-120 50 c-3 -10 -5 -2 -5 17 0 19 2 27 5 18 2 -10 2
-26 0 -35z m-610 -85 c-2 -13 -4 -3 -4 22 0 25 2 35 4 23 2 -13 2 -33 0 -45z
m596 -103 c-7 -21 -12 -19 -10 4 0 11 5 18 9 15 4 -3 5 -11 1 -19z m-600 -100
c-7 -21 -13 -19 -13 6 0 11 4 18 10 14 5 -3 7 -12 3 -20z m32 -165 c10 -11 16
-20 13 -20 -3 0 -13 9 -23 20 -10 11 -16 20 -13 20 3 0 13 -9 23 -20z m328
-27 c-18 -2 -48 -2 -65 0 -18 2 -4 4 32 4 36 0 50 -2 33 -4z"/>
<path d="M4326 4535 c-4 -13 7 -15 72 -16 42 0 87 -2 100 -5 12 -2 22 1 22 6
0 6 -9 10 -19 10 -11 0 -23 5 -26 10 -3 6 -11 10 -16 10 -6 0 -7 -4 -4 -10 4
-6 -5 -10 -19 -10 -14 0 -26 4 -26 8 0 5 -7 9 -15 9 -8 0 -12 -4 -9 -9 3 -4 0
-8 -5 -8 -6 0 -11 5 -11 10 0 6 -5 10 -11 10 -5 0 -7 -6 -3 -12 6 -10 4 -10
-8 0 -13 10 -17 10 -22 -3z"/>
<path d="M3926 4444 c-9 -25 -7 -36 7 -32 6 3 13 14 13 26 1 26 -11 29 -20 6z"/>
<path d="M4008 4289 c-63 -24 -65 -185 -2 -241 11 -9 39 -26 64 -38 25 -12 57
-28 72 -36 14 -8 47 -14 72 -14 l46 0 1 38 c4 102 0 127 -28 180 -44 87 -151
139 -225 111z m32 -23 c0 -2 -9 -6 -20 -9 -11 -3 -18 -1 -14 4 5 9 34 13 34 5z
m73 -37 c44 -23 78 -64 92 -113 18 -61 19 -106 3 -106 -7 0 -42 18 -78 40 -36
22 -70 40 -77 40 -39 0 -63 133 -25 143 32 9 63 7 85 -4z m-43 -180 c0 -5 -4
-9 -8 -9 -5 0 -9 7 -9 15 0 8 4 12 9 9 4 -3 8 -9 8 -15z m124 -67 c-7 -2 -24
6 -36 18 l-23 22 37 -19 c20 -10 30 -19 22 -21z m43 16 c-3 -8 -6 -5 -6 6 -1
11 2 17 5 13 3 -3 4 -12 1 -19z"/>
<path d="M856 4591 c-8 -12 -55 -20 -61 -11 -5 8 -202 5 -240 -3 -19 -4 -20
-12 -20 -123 l0 -119 45 3 c54 5 55 5 41 30 -13 25 -14 131 -1 152 8 13 43 15
232 13 123 -1 283 1 356 5 156 8 147 13 154 -96 5 -69 -5 -109 -15 -60 l-4 23
-2 -22 c0 -13 -5 -23 -9 -23 -5 0 -6 19 -3 43 7 52 3 117 -9 117 -4 0 -8 -15
-7 -32 0 -18 -3 -59 -7 -90 l-7 -58 31 4 31 3 -3 -81 c-3 -76 -4 -81 -24 -78
-22 3 -22 2 -19 -182 3 -161 1 -188 -14 -203 -18 -20 -66 -44 -74 -37 -3 3
-410 6 -613 4 -8 0 -12 -4 -9 -10 3 -5 1 -10 -5 -10 -6 0 -8 -5 -4 -11 5 -8
10 -6 16 5 10 18 76 15 88 -4 4 -6 14 -8 23 -4 10 3 17 1 17 -5 0 -6 5 -11 11
-11 5 0 7 4 4 10 -3 5 0 7 8 4 8 -3 17 -2 20 3 3 5 27 8 54 6 26 -1 63 -2 81
-2 17 -1 32 -5 32 -10 0 -5 -24 -7 -54 -6 -40 2 -56 -1 -60 -11 -4 -11 -29
-14 -107 -14 -86 0 -105 3 -130 21 -28 19 -29 23 -27 92 1 63 2 65 5 20 4 -58
19 -72 21 -20 11 212 13 507 3 507 -10 0 -15 -108 -13 -270 1 -32 0 -33 -8
-10 -4 14 -8 80 -9 147 -1 67 -5 124 -9 127 -5 3 -12 -125 -16 -284 -5 -225
-4 -294 6 -309 24 -39 59 -44 221 -36 215 11 269 12 292 4 11 -3 30 -3 43 2
13 5 21 5 18 1 -3 -5 20 -7 50 -6 30 1 54 -2 54 -7 0 -17 65 -9 98 11 63 38
64 49 57 469 -3 207 -8 385 -10 396 -5 26 -27 29 -192 29 -73 0 -133 3 -133 8
0 11 -187 10 -194 -1z m-219 -38 c0 -7 -5 -13 -11 -13 -22 0 -38 -43 -37 -101
0 -33 3 -64 7 -70 4 -7 -1 -10 -12 -7 -17 3 -19 14 -20 91 0 73 3 90 17 101
23 16 56 15 56 -1z m83 7 c0 -5 -15 -9 -32 -9 l-33 1 30 8 c17 4 31 8 33 9 1
0 2 -3 2 -9z m128 -7 c-15 -2 -42 -2 -60 0 -18 2 -6 4 27 4 33 0 48 -2 33 -4z
m519 -681 l-2 -113 -34 -27 c-34 -26 -61 -37 -61 -24 0 4 -38 6 -85 5 -47 -1
-85 2 -85 5 0 4 -31 7 -70 6 -38 0 -70 3 -70 8 0 4 26 8 58 9 175 3 232 6 238
12 4 4 14 7 21 7 21 0 37 20 54 65 12 30 15 75 14 185 -1 80 1 150 4 155 9 15
20 -166 18 -293z m-783 94 c-3 -14 -10 -26 -14 -26 -5 0 -5 13 0 29 4 16 7 32
6 34 -2 2 1 1 6 -3 5 -4 6 -19 2 -34z m-4 -66 c0 -5 -5 -10 -11 -10 -5 0 -7 5
-4 10 3 6 8 10 11 10 2 0 4 -4 4 -10z m300 -196 c0 -2 -7 -4 -15 -4 -8 0 -15
4 -15 10 0 5 7 7 15 4 8 -4 15 -8 15 -10z"/>
<path d="M589 4543 c-13 -16 -12 -17 4 -4 9 7 17 15 17 17 0 8 -8 3 -21 -13z"/>
<path d="M3578 4583 c7 -3 16 -2 19 1 4 3 -2 6 -13 5 -11 0 -14 -3 -6 -6z"/>
<path d="M1943 4563 c9 -9 20 -13 24 -9 4 4 1 11 -7 16 -25 16 -35 11 -17 -7z"/>
<path d="M2085 4571 c-3 -6 -17 -11 -31 -11 -13 0 -24 -4 -24 -10 0 -17 57
-11 64 6 8 20 1 30 -9 15z"/>
<path d="M2275 4570 c-3 -5 0 -10 7 -10 10 0 9 -3 -2 -10 -8 -5 -11 -12 -8
-15 10 -10 28 4 28 20 0 18 -17 28 -25 15z"/>
<path d="M2990 4576 c0 -2 7 -7 16 -10 8 -3 12 -2 9 4 -6 10 -25 14 -25 6z"/>
<path d="M2197 4563 c-13 -12 -7 -33 8 -33 8 0 15 9 15 20 0 20 -11 26 -23 13z"/>
<path d="M3540 4560 c-13 -8 -12 -10 3 -10 9 0 17 5 17 10 0 12 -1 12 -20 0z"/>
<path d="M3628 4563 c7 -3 16 -2 19 1 4 3 -2 6 -13 5 -11 0 -14 -3 -6 -6z"/>
<path d="M1422 4546 c7 -8 15 -12 17 -11 5 6 -10 25 -20 25 -5 0 -4 -6 3 -14z"/>
<path d="M2127 4553 c-15 -15 -6 -43 13 -43 11 0 20 3 20 8 -1 14 -27 42 -33
35z"/>
<path d="M2861 4538 c-16 -26 -11 -30 11 -7 10 10 14 20 10 23 -5 3 -14 -4
-21 -16z"/>
<path d="M1990 4530 c0 -19 3 -21 12 -12 9 9 9 15 0 24 -9 9 -12 7 -12 -12z"/>
<path d="M1432 4500 c0 -14 2 -19 5 -12 2 6 2 18 0 25 -3 6 -5 1 -5 -13z"/>
<path d="M2940 4511 c0 -5 7 -14 15 -21 16 -14 45 -7 45 11 0 9 -3 9 -14 0
-10 -9 -15 -8 -20 4 -6 16 -26 21 -26 6z"/>
<path d="M2050 4494 c0 -8 -4 -12 -10 -9 -5 3 -10 1 -10 -4 0 -16 16 -13 34 5
20 19 20 24 1 24 -8 0 -15 -7 -15 -16z"/>
<path d="M2220 4491 c0 -14 -6 -21 -19 -21 -14 0 -17 -6 -13 -25 2 -14 8 -25
12 -25 4 0 11 11 14 25 4 14 11 25 16 25 13 0 13 27 0 35 -5 3 -10 -3 -10 -14z"/>
<path d="M3372 4480 c0 -14 2 -19 5 -12 2 6 2 18 0 25 -3 6 -5 1 -5 -13z"/>
<path d="M1550 4479 c0 -5 5 -7 10 -4 6 3 10 8 10 11 0 2 -4 4 -10 4 -5 0 -10
-5 -10 -11z"/>
<path d="M2100 4468 c0 -12 3 -18 7 -14 11 10 12 36 2 36 -5 0 -9 -10 -9 -22z"/>
<path d="M460 4454 c0 -14 3 -14 15 -4 8 7 15 14 15 16 0 2 -7 4 -15 4 -8 0
-15 -7 -15 -16z"/>
<path d="M1585 4460 c-3 -5 -1 -10 4 -10 6 0 11 5 11 10 0 6 -2 10 -4 10 -3 0
-8 -4 -11 -10z"/>
<path d="M668 4453 c-2 -4 -5 -123 -7 -263 -2 -140 -5 -258 -8 -262 -5 -9 4
-10 35 -2 22 6 22 7 22 216 0 147 -3 207 -11 203 -7 -5 -10 11 -8 51 2 35 -1
59 -8 61 -6 2 -13 0 -15 -4z m19 -275 c-2 -13 -4 -3 -4 22 0 25 2 35 4 23 2
-13 2 -33 0 -45z"/>
<path d="M908 4453 c-54 -4 -58 -6 -58 -28 l0 -25 183 0 182 0 -3 -122 c-1
-68 -5 -142 -8 -166 -7 -59 -51 -107 -103 -116 -47 -7 -55 -17 -37 -41 10 -14
21 -16 49 -11 87 16 134 99 137 241 4 191 2 212 -21 218 -14 4 -18 10 -13 18
5 9 2 10 -10 6 -10 -4 -15 -3 -11 3 16 26 -93 35 -287 23z m272 -23 c0 -5 -2
-10 -4 -10 -3 0 -8 5 -11 10 -3 6 -1 10 4 10 6 0 11 -4 11 -10z"/>
<path d="M2146 4451 c-4 -7 -5 -15 -2 -18 9 -9 19 4 14 18 -4 11 -6 11 -12 0z"/>
<path d="M4616 4441 c-20 -4 -30 -13 -32 -28 -4 -21 0 -23 35 -23 30 0 40 4
44 20 7 26 -11 38 -47 31z"/>
<path d="M1490 4410 c0 -19 3 -21 12 -12 9 9 9 15 0 24 -9 9 -12 7 -12 -12z"/>
<path d="M2102 4418 c6 -18 28 -21 28 -4 0 9 -7 16 -16 16 -9 0 -14 -5 -12
-12z"/>
<path d="M2051 4404 c0 -11 3 -14 6 -6 3 7 2 16 -1 19 -3 4 -6 -2 -5 -13z"/>
<path d="M465 4397 c-4 -10 -5 -21 -1 -24 10 -10 18 4 13 24 -4 17 -4 17 -12
0z"/>
<path d="M3601 4402 c-6 -2 -11 -12 -11 -23 0 -17 8 -19 75 -19 41 0 75 4 75
9 0 5 3 17 6 26 6 14 -3 15 -64 13 -39 -2 -75 -4 -81 -6z"/>
<path d="M3360 4375 c0 -14 2 -25 4 -25 2 0 6 11 8 25 3 14 1 25 -3 25 -5 0
-9 -11 -9 -25z"/>
<path d="M3534 4388 c-4 -7 -3 -8 4 -4 7 4 12 2 12 -3 0 -6 5 -11 10 -11 6 0
10 7 10 15 0 18 -26 20 -36 3z"/>
<path d="M1875 4380 c-3 -5 -1 -10 4 -10 6 0 11 5 11 10 0 6 -2 10 -4 10 -3 0
-8 -4 -11 -10z"/>
<path d="M2210 4380 c0 -5 5 -10 11 -10 5 0 7 5 4 10 -3 6 -8 10 -11 10 -2 0
-4 -4 -4 -10z"/>
<path d="M731 4371 c-23 -6 -23 -7 -6 -24 19 -20 62 -19 58 1 -2 6 2 12 7 12
6 0 10 5 10 10 0 11 -32 12 -69 1z"/>
<path d="M1405 4360 c-3 -5 -1 -10 4 -10 6 0 11 5 11 10 0 6 -2 10 -4 10 -3 0
-8 -4 -11 -10z"/>
<path d="M1900 4360 c0 -5 5 -10 11 -10 5 0 7 5 4 10 -3 6 -8 10 -11 10 -2 0
-4 -4 -4 -10z"/>
<path d="M4628 4353 c6 -2 18 -2 25 0 6 3 1 5 -13 5 -14 0 -19 -2 -12 -5z"/>
<path d="M469 4345 c0 -5 -3 -22 -5 -37 -2 -14 0 -29 6 -33 5 -3 10 -3 11 2 0
4 2 18 3 30 1 12 -1 28 -6 35 -4 7 -8 9 -9 3z"/>
<path d="M3362 4320 c0 -14 2 -19 5 -12 2 6 2 18 0 25 -3 6 -5 1 -5 -13z"/>
<path d="M978 4323 c7 -3 16 -2 19 1 4 3 -2 6 -13 5 -11 0 -14 -3 -6 -6z"/>
<path d="M1065 4310 c4 -6 11 -8 16 -5 5 4 9 -1 9 -10 0 -9 4 -14 10 -10 15 9
0 35 -22 35 -10 0 -16 -5 -13 -10z"/>
<path d="M1330 4264 c0 -32 2 -55 5 -52 10 10 14 97 5 103 -6 4 -10 -16 -10
-51z"/>
<path d="M1960 4290 c-12 -8 -11 -10 8 -10 12 0 22 5 22 10 0 13 -11 13 -30 0z"/>
<path d="M900 4271 c-27 -22 -60 -28 -60 -11 0 6 -9 10 -20 10 -14 0 -20 -7
-20 -24 0 -20 4 -23 22 -18 18 4 20 2 13 -14 -4 -10 -10 -47 -13 -80 -4 -57
-2 -64 26 -95 29 -32 34 -34 95 -34 77 0 109 15 130 61 53 110 5 210 -104 220
-34 4 -50 0 -69 -15z m125 -56 c37 -36 35 -97 -4 -136 -37 -37 -104 -41 -139
-9 -34 32 -31 103 7 141 39 39 100 41 136 4z"/>
<path d="M1633 4255 c0 -22 2 -30 4 -17 2 12 2 30 0 40 -3 9 -5 -1 -4 -23z"/>
<path d="M3362 4240 c0 -14 2 -19 5 -12 2 6 2 18 0 25 -3 6 -5 1 -5 -13z"/>
<path d="M468 4230 c-4 -33 2 -80 12 -80 13 0 17 71 4 88 -11 15 -12 14 -16
-8z"/>
<path d="M1822 4233 c2 -10 10 -18 18 -18 22 0 18 29 -3 33 -14 3 -18 -1 -15
-15z"/>
<path d="M4630 4240 c0 -5 0 -13 1 -16 0 -4 -5 -10 -11 -14 -18 -11 -3 -30 20
-27 24 4 39 17 19 17 -12 0 -12 2 0 9 12 8 12 12 2 25 -15 18 -31 21 -31 6z"/>
<path d="M3616 4233 c-4 -4 -19 -7 -33 -8 -14 0 -28 -5 -30 -12 -5 -13 99 -27
156 -21 26 2 35 8 37 26 4 21 1 22 -59 22 -35 0 -67 -3 -71 -7z"/>
<path d="M1440 4174 c0 -25 4 -43 8 -40 12 7 14 86 2 86 -6 0 -10 -21 -10 -46z"/>
<path d="M1413 4190 c-1 -11 2 -20 5 -20 4 0 8 9 9 20 1 11 -2 20 -5 20 -4 0
-8 -9 -9 -20z"/>
<path d="M470 4130 c0 -5 5 -10 10 -10 6 0 10 5 10 10 0 6 -4 10 -10 10 -5 0
-10 -4 -10 -10z"/>
<path d="M3289 4093 c-2 -21 -1 -56 2 -78 5 -31 6 -22 8 38 1 81 -4 103 -10
40z"/>
<path d="M4624 4116 c-8 -21 -1 -49 13 -53 15 -5 36 34 29 53 -7 18 -35 18
-42 0z"/>
<path d="M454 4036 c0 -48 3 -63 13 -59 26 10 28 116 2 121 -12 2 -15 -10 -15
-62z"/>
<path d="M1568 4093 c7 -3 16 -2 19 1 4 3 -2 6 -13 5 -11 0 -14 -3 -6 -6z"/>
<path d="M3341 4040 c0 -36 3 -71 8 -79 5 -8 7 13 4 55 -6 93 -11 103 -12 24z"/>
<path d="M1435 4071 c-3 -5 -1 -12 5 -16 5 -3 10 1 10 9 0 18 -6 21 -15 7z"/>
<path d="M3609 4078 c-13 -47 -12 -48 61 -48 68 0 70 1 70 25 0 24 -2 25 -65
25 -36 0 -65 -1 -66 -2z"/>
<path d="M3550 4055 c0 -8 9 -15 20 -15 11 0 20 7 20 15 0 8 -9 15 -20 15 -11
0 -20 -7 -20 -15z"/>
<path d="M4622 4038 c5 -15 37 -18 41 -3 1 6 -9 12 -22 13 -16 3 -22 -1 -19
-10z"/>
<path d="M3221 4014 c0 -11 3 -14 6 -6 3 7 2 16 -1 19 -3 4 -6 -2 -5 -13z"/>
<path d="M1560 3957 c0 -18 -5 -38 -12 -45 -17 -17 -2 -28 17 -12 17 14 21 90
5 90 -5 0 -10 -15 -10 -33z"/>
<path d="M3286 3955 c-3 -8 -1 -15 4 -15 6 0 10 7 10 15 0 8 -2 15 -4 15 -2 0
-6 -7 -10 -15z"/>
<path d="M1702 3920 c0 -19 2 -27 5 -17 2 9 2 25 0 35 -3 9 -5 1 -5 -18z"/>
<path d="M620 3929 c0 -5 5 -7 10 -4 6 3 10 8 10 11 0 2 -4 4 -10 4 -5 0 -10
-5 -10 -11z"/>
<path d="M729 3927 c0 -1 -3 -14 -5 -28 -4 -25 -1 -27 35 -31 40 -3 50 7 51
48 0 9 -77 19 -81 11z m54 -34 c-7 -2 -21 -2 -30 0 -10 3 -4 5 12 5 17 0 24
-2 18 -5z"/>
<path d="M1095 3910 c-11 -4 -75 -11 -142 -15 -107 -6 -122 -9 -126 -26 -3
-10 -2 -21 1 -23 4 -2 59 -4 123 -5 l116 -2 27 36 c31 40 31 46 1 35z m-35
-34 c0 -3 -4 -8 -10 -11 -5 -3 -10 -1 -10 4 0 6 5 11 10 11 6 0 10 -2 10 -4z"/>
<path d="M1420 3910 c-11 -7 -12 -12 -3 -21 13 -13 33 -4 33 17 0 16 -9 18
-30 4z"/>
<path d="M3292 3900 c0 -14 2 -19 5 -12 2 6 2 18 0 25 -3 6 -5 1 -5 -13z"/>
<path d="M472 3898 c-32 -16 -26 -53 8 -53 21 0 25 5 26 33 2 35 0 36 -34 20z"/>
<path d="M1264 3898 c-4 -6 -3 -8 4 -4 5 3 13 0 15 -6 3 -8 6 -6 6 5 1 19 -14
23 -25 5z"/>
<path d="M3343 3875 c0 -22 2 -30 4 -17 2 12 2 30 0 40 -3 9 -5 -1 -4 -23z"/>
<path d="M3550 3891 c0 -17 9 -20 83 -23 63 -3 85 0 95 11 6 8 12 18 12 22 0
14 -132 2 -141 -12 -8 -12 -11 -11 -20 4 -13 23 -29 22 -29 -2z"/>
<path d="M4620 3885 c0 -30 20 -33 43 -7 20 22 13 32 -20 32 -18 0 -23 -5 -23
-25z"/>
<path d="M670 3880 c0 -5 5 -10 10 -10 6 0 10 5 10 10 0 6 -4 10 -10 10 -5 0
-10 -4 -10 -10z"/>
<path d="M1251 3864 c0 -11 3 -14 6 -6 3 7 2 16 -1 19 -3 4 -6 -2 -5 -13z"/>
<path d="M1710 3845 c-1 -5 -2 -13 -1 -17 1 -8 -15 -12 -31 -9 -5 0 -8 -3 -8
-9 0 -12 4 -8 -194 -209 l-160 -161 -200 0 c-111 0 -195 -4 -189 -8 7 -4 97
-9 200 -11 103 -1 191 -5 195 -7 5 -3 8 -2 6 3 -1 4 77 87 173 183 209 211
222 226 216 242 -3 7 -6 9 -7 3z"/>
<path d="M1228 3829 c-10 -5 -18 -17 -18 -25 0 -13 4 -13 29 2 17 10 28 21 25
26 -7 10 -15 10 -36 -3z"/>
<path d="M1550 3811 c0 -11 4 -22 9 -25 12 -8 34 21 26 34 -11 17 -35 11 -35
-9z"/>
<path d="M1740 3819 c0 -5 5 -7 10 -4 6 3 10 8 10 11 0 2 -4 4 -10 4 -5 0 -10
-5 -10 -11z"/>
<path d="M3260 3821 c0 -11 26 -22 34 -14 3 3 3 10 0 14 -7 12 -34 11 -34 0z"/>
<path d="M3225 3779 c-4 -6 -5 -12 -2 -15 2 -3 7 2 10 11 7 17 1 20 -8 4z"/>
<path d="M3362 3765 c0 -16 2 -22 5 -12 2 9 2 23 0 30 -3 6 -5 -1 -5 -18z"/>
<path d="M1422 3750 c-18 -24 -20 -30 -7 -30 8 0 14 3 13 8 -1 4 3 17 10 30
18 31 10 27 -16 -8z"/>
<path d="M645 3740 c-3 -5 3 -10 15 -10 12 0 18 5 15 10 -3 6 -10 10 -15 10
-5 0 -12 -4 -15 -10z"/>
<path d="M3222 3693 c1 -34 6 -59 10 -57 8 5 3 103 -6 112 -4 3 -5 -22 -4 -55z"/>
<path d="M3535 3740 c-3 -5 -1 -10 4 -10 6 0 11 5 11 10 0 6 -2 10 -4 10 -3 0
-8 -4 -11 -10z"/>
<path d="M270 3731 c0 -5 5 -13 10 -16 6 -3 10 -2 10 4 0 5 -4 13 -10 16 -5 3
-10 2 -10 -4z"/>
<path d="M228 3305 c-2 -235 0 -432 4 -438 9 -13 9 39 9 522 0 184 -3 336 -6
339 -2 3 -6 -187 -7 -423z"/>
<path d="M3343 3713 c0 -9 4 -10 14 -2 7 6 13 12 13 14 0 1 -6 2 -13 2 -8 0
-14 -6 -14 -14z"/>
<path d="M1385 3700 c-3 -5 -1 -10 4 -10 6 0 11 5 11 10 0 6 -2 10 -4 10 -3 0
-8 -4 -11 -10z"/>
<path d="M3450 3706 c0 -2 7 -6 15 -10 8 -3 15 -1 15 4 0 6 -7 10 -15 10 -8 0
-15 -2 -15 -4z"/>
<path d="M3339 3639 c0 -52 -2 -70 -14 -133 -3 -16 -3 -27 0 -25 2 3 71 -61
152 -141 l147 -146 58 61 c32 33 58 66 58 74 0 8 -21 -9 -47 -38 -27 -31 -52
-50 -60 -47 -8 3 -11 1 -8 -4 25 -40 -76 55 -171 161 -42 47 -91 89 -104 89
-9 0 -10 13 -5 49 8 61 9 141 1 149 -3 3 -6 -19 -7 -49z"/>
<path d="M3490 3682 c0 -4 10 -13 23 -21 22 -14 22 -14 3 8 -20 22 -26 25 -26
13z"/>
<path d="M4880 3545 c0 -82 3 -145 6 -142 8 8 8 276 0 284 -3 4 -6 -60 -6
-142z"/>
<path d="M1751 3664 c0 -11 3 -14 6 -6 3 7 2 16 -1 19 -3 4 -6 -2 -5 -13z"/>
<path d="M3595 3670 c3 -5 8 -10 11 -10 2 0 4 5 4 10 0 6 -5 10 -11 10 -5 0
-7 -4 -4 -10z"/>
<path d="M4096 3673 c-3 -3 -6 -22 -6 -40 0 -27 4 -34 17 -31 25 5 36 56 13
68 -9 5 -20 6 -24 3z"/>
<path d="M3620 3651 c0 -5 7 -12 16 -15 14 -5 15 -4 4 9 -14 17 -20 19 -20 6z"/>
<path d="M1050 3635 c0 -10 9 -14 24 -13 14 1 22 6 20 10 -3 5 -10 6 -15 3 -5
-4 -9 -1 -9 4 0 6 -4 11 -10 11 -5 0 -10 -7 -10 -15z"/>
<path d="M590 3636 c0 -2 7 -7 16 -10 8 -3 12 -2 9 4 -6 10 -25 14 -25 6z"/>
<path d="M3550 3632 c0 -15 18 -34 29 -31 7 3 3 11 -9 21 -11 10 -20 14 -20
10z"/>
<path d="M1118 3623 c7 -3 16 -2 19 1 4 3 -2 6 -13 5 -11 0 -14 -3 -6 -6z"/>
<path d="M1168 3623 c7 -3 16 -2 19 1 4 3 -2 6 -13 5 -11 0 -14 -3 -6 -6z"/>
<path d="M1820 3610 c0 -5 5 -10 11 -10 5 0 7 5 4 10 -3 6 -8 10 -11 10 -2 0
-4 -4 -4 -10z"/>
<path d="M3223 3585 c1 -19 6 -35 10 -35 4 0 7 16 5 35 -1 19 -6 35 -10 35 -4
0 -7 -16 -5 -35z"/>
<path d="M3680 3603 c0 -6 8 -17 18 -24 16 -13 16 -13 2 6 -8 11 -16 22 -17
24 -2 2 -3 0 -3 -6z"/>
<path d="M1820 3580 c0 -5 5 -10 10 -10 6 0 10 5 10 10 0 6 -4 10 -10 10 -5 0
-10 -4 -10 -10z"/>
<path d="M1850 3570 c0 -5 5 -10 10 -10 6 0 10 5 10 10 0 6 -4 10 -10 10 -5 0
-10 -4 -10 -10z"/>
<path d="M3598 3573 c7 -3 16 -2 19 1 4 3 -2 6 -13 5 -11 0 -14 -3 -6 -6z"/>
<path d="M1764 3533 c2 -23 1 -41 -3 -40 -5 2 -47 -41 -215 -220 l-50 -52 -38
41 c-45 49 -64 44 -20 -6 17 -19 35 -43 40 -53 9 -16 15 -13 59 27 98 91 253
261 253 278 -1 9 -7 28 -15 42 -14 24 -14 24 -11 -17z"/>
<path d="M1877 3563 c-11 -10 -8 -43 3 -43 6 0 10 11 10 25 0 26 -2 29 -13 18z"/>
<path d="M3645 3530 c3 -5 8 -10 11 -10 2 0 4 5 4 10 0 6 -5 10 -11 10 -5 0
-7 -4 -4 -10z"/>
<path d="M4740 3522 c0 -4 4 -12 9 -17 17 -19 21 -62 7 -74 -16 -14 -46 -4
-46 15 0 8 0 17 -1 21 0 4 4 9 10 11 6 2 11 -3 11 -12 0 -9 5 -16 10 -16 14 0
12 12 -6 35 -15 20 -15 20 -30 1 -19 -26 -18 -62 2 -70 39 -15 134 4 134 27 0
11 -14 8 -36 -8 -29 -22 -33 -19 -27 25 4 25 1 46 -7 55 -13 16 -30 20 -30 7z"/>
<path d="M3670 3512 c0 -5 7 -15 15 -22 8 -7 15 -9 15 -6 0 4 -7 14 -15 22 -8
9 -15 11 -15 6z"/>
<path d="M1810 3501 c0 -10 25 -21 48 -21 12 1 10 5 -8 15 -29 17 -40 18 -40
6z"/>
<path d="M3280 3480 c0 -5 7 -10 15 -10 8 0 15 5 15 10 0 6 -7 10 -15 10 -8 0
-15 -4 -15 -10z"/>
<path d="M3726 3456 c3 -8 13 -17 22 -21 13 -5 13 -2 -3 15 -21 24 -26 25 -19
6z"/>
<path d="M4850 3459 c0 -5 5 -7 10 -4 6 3 10 8 10 11 0 2 -4 4 -10 4 -5 0 -10
-5 -10 -11z"/>
<path d="M2658 3453 c6 -2 18 -2 25 0 6 3 1 5 -13 5 -14 0 -19 -2 -12 -5z"/>
<path d="M2948 3453 c23 -2 59 -2 80 0 20 2 1 4 -43 4 -44 0 -61 -2 -37 -4z"/>
<path d="M3093 3453 c15 -2 39 -2 55 0 15 2 2 4 -28 4 -30 0 -43 -2 -27 -4z"/>
<path d="M4881 3319 c0 -47 3 -67 8 -54 9 21 5 114 -4 123 -3 3 -5 -28 -4 -69z"/>
<path d="M1844 3361 c-44 -27 -101 -97 -108 -133 -3 -17 -6 -165 -6 -330 0
-270 2 -300 16 -294 9 3 122 6 251 6 l235 0 -4 110 c-2 61 -2 110 0 110 5 0
177 -173 241 -243 l62 -68 -37 -42 c-20 -23 -69 -76 -108 -117 -39 -41 -93
-100 -120 -130 l-48 -55 5 163 4 162 -249 0 -249 0 3 -323 3 -324 29 -42 c60
-86 15 -81 788 -81 644 0 685 1 723 19 47 22 99 74 114 114 7 18 11 142 11
333 l0 304 -223 0 c-123 0 -226 -2 -228 -4 -2 -2 -2 -70 1 -150 4 -127 1 -171
-12 -137 -1 6 -69 77 -150 159 -82 82 -148 156 -148 163 1 8 70 84 156 169
l155 155 -3 -123 -3 -122 228 0 227 0 0 308 0 308 -29 46 c-16 25 -46 58 -67
74 l-37 29 -696 3 c-666 2 -697 1 -727 -17z m1409 -38 c47 -30 71 -54 95 -98
14 -25 17 -74 20 -307 l3 -278 -195 0 c-179 0 -196 1 -198 18 -6 69 -3 149 6
161 8 11 8 13 -1 7 -9 -5 -13 1 -13 18 0 22 -5 26 -27 26 -38 0 -333 -298
-333 -337 0 -24 75 -114 157 -187 18 -15 30 -33 26 -40 -3 -6 -3 -8 2 -4 4 4
37 -22 73 -57 98 -98 115 -89 112 63 -2 48 -2 104 -1 125 l1 37 194 0 194 0
-2 -287 c-2 -286 -2 -288 -25 -320 -13 -18 -28 -30 -33 -27 -4 3 -8 -1 -8 -8
0 -7 -17 -24 -38 -38 l-37 -25 -638 -3 c-718 -3 -694 -5 -772 66 -9 8 -12 18
-9 24 4 7 2 8 -5 4 -7 -5 -17 5 -26 28 -12 28 -15 90 -15 311 l0 275 220 0
219 0 3 -147 3 -147 29 -7 c15 -4 25 -5 22 -2 -10 10 25 43 38 36 6 -3 8 -2 3
2 -10 11 23 46 36 38 6 -3 7 -1 3 5 -4 7 -2 12 3 12 6 0 11 4 11 10 0 16 106
120 115 113 4 -5 5 -3 2 3 -3 6 14 30 38 54 53 52 58 86 20 135 -13 18 -22 35
-20 39 3 3 2 4 -2 1 -7 -5 -85 71 -121 119 -12 16 -22 25 -22 20 0 -4 -8 1
-18 12 -52 54 -94 84 -116 84 -25 0 -25 0 -28 -105 l-3 -106 -200 0 c-110 0
-208 0 -218 0 -17 1 -18 17 -15 278 2 211 6 277 16 281 6 2 10 8 7 13 -9 14
14 49 33 49 15 0 15 2 2 10 -13 9 -13 10 0 10 8 0 21 9 28 21 8 12 19 18 28
15 8 -3 12 -2 9 3 -16 27 50 30 678 31 l647 0 43 -27z"/>
<path d="M4790 3360 c0 -5 5 -10 11 -10 5 0 7 5 4 10 -3 6 -8 10 -11 10 -2 0
-4 -4 -4 -10z"/>
<path d="M1380 3320 c0 -5 5 -10 10 -10 6 0 10 5 10 10 0 6 -4 10 -10 10 -5 0
-10 -4 -10 -10z"/>
<path d="M1650 3300 c0 -5 5 -10 11 -10 5 0 7 5 4 10 -3 6 -8 10 -11 10 -2 0
-4 -4 -4 -10z"/>
<path d="M3470 3308 c0 -3 18 -25 41 -49 23 -24 36 -35 31 -24 -11 21 -72 83
-72 73z"/>
<path d="M3765 3300 c-3 -5 1 -10 10 -10 9 0 13 5 10 10 -3 6 -8 10 -10 10 -2
0 -7 -4 -10 -10z"/>
<path d="M3825 3300 c4 -6 11 -8 16 -5 14 9 11 15 -7 15 -8 0 -12 -5 -9 -10z"/>
<path d="M3868 3303 c7 -3 16 -2 19 1 4 3 -2 6 -13 5 -11 0 -14 -3 -6 -6z"/>
<path d="M3918 3303 c12 -2 30 -2 40 0 9 3 -1 5 -23 4 -22 0 -30 -2 -17 -4z"/>
<path d="M4108 3303 c7 -3 16 -2 19 1 4 3 -2 6 -13 5 -11 0 -14 -3 -6 -6z"/>
<path d="M4158 3303 c12 -2 30 -2 40 0 9 3 -1 5 -23 4 -22 0 -30 -2 -17 -4z"/>
<path d="M4228 3303 c7 -3 16 -2 19 1 4 3 -2 6 -13 5 -11 0 -14 -3 -6 -6z"/>
<path d="M1198 3283 c6 -2 18 -2 25 0 6 3 1 5 -13 5 -14 0 -19 -2 -12 -5z"/>
<path d="M1323 3283 c9 -2 25 -2 35 0 9 3 1 5 -18 5 -19 0 -27 -2 -17 -5z"/>
<path d="M4880 2935 c0 -170 3 -305 6 -302 8 8 7 598 -1 605 -3 3 -5 -133 -5
-303z"/>
<path d="M3560 3211 c0 -13 48 -46 56 -38 3 2 -9 15 -25 27 -17 12 -31 17 -31
11z"/>
<path d="M1381 3196 c2 -2 24 -6 48 -9 29 -4 40 -2 30 4 -13 8 -88 14 -78 5z"/>
<path d="M4590 3190 c0 -5 7 -10 16 -10 8 0 12 5 9 10 -3 6 -10 10 -16 10 -5
0 -9 -4 -9 -10z"/>
<path d="M3640 3180 c-13 -8 -12 -10 3 -10 9 0 17 5 17 10 0 12 -1 12 -20 0z"/>
<path d="M4368 3183 c7 -3 16 -2 19 1 4 3 -2 6 -13 5 -11 0 -14 -3 -6 -6z"/>
<path d="M380 3170 c-9 -6 -10 -10 -3 -10 6 0 15 5 18 10 8 12 4 12 -15 0z"/>
<path d="M440 3169 c0 -5 5 -7 10 -4 6 3 10 8 10 11 0 2 -4 4 -10 4 -5 0 -10
-5 -10 -11z"/>
<path d="M1525 3171 c4 -7 10 -10 13 -7 3 3 11 1 19 -6 7 -6 16 -8 20 -4 9 9
2 13 -31 22 -22 5 -27 4 -21 -5z"/>
<path d="M3495 3160 c-3 -5 1 -10 10 -10 9 0 13 5 10 10 -3 6 -8 10 -10 10 -2
0 -7 -4 -10 -10z"/>
<path d="M1605 3140 c-4 -6 0 -10 9 -10 8 0 17 -6 19 -12 4 -8 6 -7 6 3 1 19
-25 33 -34 19z"/>
<path d="M4538 3118 c5 -5 16 -8 23 -6 8 3 3 7 -10 11 -17 4 -21 3 -13 -5z"/>
<path d="M376 3104 c-8 -20 0 -32 14 -18 5 5 5 15 1 22 -6 11 -10 10 -15 -4z"/>
<path d="M456 3107 c3 -10 9 -15 12 -12 3 3 0 11 -7 18 -10 9 -11 8 -5 -6z"/>
<path d="M320 3041 c0 -5 5 -13 10 -16 6 -3 10 -2 10 4 0 5 -4 13 -10 16 -5 3
-10 2 -10 -4z"/>
<path d="M376 3033 c-9 -9 -7 -33 3 -33 12 0 22 28 12 34 -5 3 -11 3 -15 -1z"/>
<path d="M450 3030 c0 -5 5 -10 10 -10 6 0 10 5 10 10 0 6 -4 10 -10 10 -5 0
-10 -4 -10 -10z"/>
<path d="M684 3032 c3 -5 0 -13 -6 -15 -9 -4 -10 -6 -1 -6 17 -1 25 16 12 25
-7 4 -9 3 -5 -4z"/>
<path d="M594 3021 c3 -5 15 -7 26 -4 28 7 25 13 -6 13 -14 0 -23 -4 -20 -9z"/>
<path d="M453 2958 c-28 -14 -29 -24 -2 -31 16 -4 18 -3 8 9 -9 11 -8 14 5 14
9 0 16 5 16 10 0 12 1 12 -27 -2z"/>
<path d="M680 2955 c0 -8 2 -15 4 -15 2 0 6 7 10 15 3 8 1 15 -4 15 -6 0 -10
-7 -10 -15z"/>
<path d="M375 2950 c-3 -5 -2 -10 4 -10 5 0 13 5 16 10 3 6 2 10 -4 10 -5 0
-13 -4 -16 -10z"/>
<path d="M600 2950 c0 -5 7 -10 15 -10 8 0 15 5 15 10 0 6 -7 10 -15 10 -8 0
-15 -4 -15 -10z"/>
<path d="M500 2889 c0 -5 5 -7 10 -4 6 3 10 8 10 11 0 2 -4 4 -10 4 -5 0 -10
-5 -10 -11z"/>
<path d="M228 2820 c2 -16 6 -30 8 -30 2 0 4 14 4 30 0 17 -4 30 -8 30 -5 0
-7 -13 -4 -30z"/>
<path d="M232 2750 c0 -19 2 -27 5 -17 2 9 2 25 0 35 -3 9 -5 1 -5 -18z"/>
<path d="M233 2670 c0 -25 2 -35 4 -22 2 12 2 32 0 45 -2 12 -4 2 -4 -23z"/>
<path d="M4038 2603 c-400 -2 -618 -7 -618 -13 0 -7 254 -10 730 -10 726 0
730 0 730 -20 0 -20 -5 -20 -187 -18 -411 5 -1284 -4 -1281 -14 3 -7 261 -9
743 -9 407 1 740 3 741 4 1 1 4 20 6 42 l3 40 -125 0 c-69 0 -403 -1 -742 -2z"/>
<path d="M220 2558 l0 -43 744 2 c499 1 751 5 763 12 14 8 0 10 -57 10 -41 -1
-380 -1 -752 0 -674 1 -678 1 -678 21 0 20 3 20 735 20 561 -1 734 -4 729 -13
-5 -9 -4 -9 6 0 7 6 9 16 6 22 -5 8 -226 11 -752 11 l-744 0 0 -42z"/>
<path d="M2230 2549 c0 -24 4 -38 10 -34 6 3 10 22 10 41 0 19 -4 34 -10 34
-5 0 -10 -18 -10 -41z"/>
<path d="M2929 2578 c0 -7 -2 -21 -4 -30 -2 -10 0 -20 5 -23 4 -3 10 9 12 26
3 16 1 32 -4 35 -4 3 -8 -1 -9 -8z"/>
<path d="M4250 2470 c0 -5 5 -10 10 -10 6 0 10 5 10 10 0 6 -4 10 -10 10 -5 0
-10 -4 -10 -10z"/>
<path d="M4320 2470 c0 -5 5 -10 11 -10 5 0 7 5 4 10 -3 6 -8 10 -11 10 -2 0
-4 -4 -4 -10z"/>
<path d="M231 2444 c0 -11 3 -14 6 -6 3 7 2 16 -1 19 -3 4 -6 -2 -5 -13z"/>
<path d="M4882 2435 c0 -16 2 -22 5 -12 2 9 2 23 0 30 -3 6 -5 -1 -5 -18z"/>
<path d="M671 2414 c0 -11 3 -14 6 -6 3 7 2 16 -1 19 -3 4 -6 -2 -5 -13z"/>
<path d="M4275 2420 c-3 -5 -1 -10 4 -10 6 0 11 5 11 10 0 6 -2 10 -4 10 -3 0
-8 -4 -11 -10z"/>
<path d="M229 2225 c-1 -110 -2 -257 -4 -327 -1 -71 1 -128 6 -128 4 0 8 138
9 306 0 169 2 310 5 313 2 4 0 13 -6 21 -5 10 -9 -59 -10 -185z"/>
<path d="M4387 2413 c-4 -3 -7 -11 -7 -17 0 -6 5 -5 12 2 6 6 9 14 7 17 -3 3
-9 2 -12 -2z"/>
<path d="M4730 2400 c0 -5 5 -10 11 -10 5 0 7 5 4 10 -3 6 -8 10 -11 10 -2 0
-4 -4 -4 -10z"/>
<path d="M4785 2400 c-3 -5 -1 -10 4 -10 6 0 11 5 11 10 0 6 -2 10 -4 10 -3 0
-8 -4 -11 -10z"/>
<path d="M4265 2390 c-3 -5 -2 -10 4 -10 5 0 13 5 16 10 3 6 2 10 -4 10 -5 0
-13 -4 -16 -10z"/>
<path d="M4881 2384 c0 -11 3 -14 6 -6 3 7 2 16 -1 19 -3 4 -6 -2 -5 -13z"/>
<path d="M4350 2369 c0 -5 5 -7 10 -4 6 3 10 8 10 11 0 2 -4 4 -10 4 -5 0 -10
-5 -10 -11z"/>
<path d="M4880 2334 c0 -8 5 -12 10 -9 6 4 8 11 5 16 -9 14 -15 11 -15 -7z"/>
<path d="M2262 2315 c0 -16 2 -22 5 -12 2 9 2 23 0 30 -3 6 -5 -1 -5 -18z"/>
<path d="M4310 2319 c0 -5 5 -7 10 -4 6 3 10 8 10 11 0 2 -4 4 -10 4 -5 0 -10
-5 -10 -11z"/>
<path d="M4880 2290 c0 -11 2 -20 4 -20 2 0 6 9 9 20 3 11 1 20 -4 20 -5 0 -9
-9 -9 -20z"/>
<path d="M4815 2280 c-3 -5 -2 -10 4 -10 5 0 13 5 16 10 3 6 2 10 -4 10 -5 0
-13 -4 -16 -10z"/>
<path d="M4421 2248 c1 -18 3 -25 6 -15 2 9 8 17 12 17 4 0 8 7 8 15 0 8 -6
15 -14 15 -8 0 -13 -12 -12 -32z"/>
<path d="M4487 2265 c-9 -23 11 -28 23 -5 8 16 8 20 -4 20 -7 0 -16 -7 -19
-15z"/>
<path d="M4607 2273 c-12 -12 -7 -33 8 -33 17 0 19 9 7 28 -5 7 -11 9 -15 5z"/>
<path d="M4674 2255 c1 -29 3 -30 20 -12 15 15 10 37 -9 37 -7 0 -12 -10 -11
-25z"/>
<path d="M4740 2258 c0 -12 1 -19 3 -17 1 2 9 12 16 22 12 14 11 17 -3 17 -10
0 -16 -8 -16 -22z"/>
<path d="M4544 2259 c-3 -6 -1 -16 5 -22 8 -8 11 -5 11 11 0 24 -5 28 -16 11z"/>
<path d="M4817 2239 c4 -13 8 -18 11 -10 2 7 -1 18 -6 23 -8 8 -9 4 -5 -13z"/>
<path d="M4879 2253 c-3 -33 1 -206 5 -211 4 -3 6 45 6 106 0 62 -2 112 -5
112 -3 0 -5 -3 -6 -7z"/>
<path d="M4750 2200 c-12 -23 2 -27 19 -6 8 9 8 16 2 20 -6 4 -15 -3 -21 -14z"/>
<path d="M4480 2200 c0 -5 5 -10 10 -10 6 0 10 5 10 10 0 6 -4 10 -10 10 -5 0
-10 -4 -10 -10z"/>
<path d="M4431 2166 c-1 -26 2 -37 9 -30 6 6 6 21 1 39 -9 30 -9 30 -10 -9z"/>
<path d="M4530 2180 c0 -19 3 -21 12 -12 9 9 9 15 0 24 -9 9 -12 7 -12 -12z"/>
<path d="M4615 2190 c3 -5 8 -10 11 -10 2 0 4 5 4 10 0 6 -5 10 -11 10 -5 0
-7 -4 -4 -10z"/>
<path d="M4686 2192 c-3 -5 1 -9 9 -9 8 0 15 4 15 9 0 4 -4 8 -9 8 -6 0 -12
-4 -15 -8z"/>
<path d="M4380 2163 c0 -4 5 -15 10 -23 8 -13 10 -13 10 2 0 9 -4 20 -10 23
-5 3 -10 3 -10 -2z"/>
<path d="M4470 2160 c0 -5 5 -10 11 -10 5 0 7 5 4 10 -3 6 -8 10 -11 10 -2 0
-4 -4 -4 -10z"/>
<path d="M4606 2159 c3 -5 0 -9 -6 -9 -6 0 -8 -5 -4 -11 5 -8 9 -8 14 1 4 7
13 9 19 6 6 -4 11 -3 11 2 0 5 -9 12 -20 15 -11 3 -18 1 -14 -4z"/>
<path d="M4679 2158 c-7 -13 -4 -48 3 -48 6 0 8 6 5 14 -3 7 0 19 6 25 8 8 8
11 -1 11 -7 0 -13 -1 -13 -2z"/>
<path d="M4810 2141 c0 -5 5 -13 10 -16 6 -3 10 -2 10 4 0 5 -4 13 -10 16 -5
3 -10 2 -10 -4z"/>
<path d="M4732 2126 c13 -10 15 -15 6 -24 -7 -7 -8 -12 -2 -12 12 0 35 36 27
44 -4 3 -16 6 -27 6 -19 -1 -20 -2 -4 -14z"/>
<path d="M4831 2106 c-6 -8 -10 -20 -9 -27 2 -8 -5 -13 -14 -13 -10 1 -14 -4
-11 -12 8 -21 41 5 45 38 5 32 5 33 -11 14z"/>
<path d="M4412 2075 c2 -23 18 -37 18 -16 0 5 3 16 6 25 4 11 1 16 -10 16 -11
0 -15 -8 -14 -25z"/>
<path d="M4475 2090 c-3 -5 1 -10 10 -10 9 0 13 5 10 10 -3 6 -8 10 -10 10 -2
0 -7 -4 -10 -10z"/>
<path d="M4600 2085 c-7 -8 -11 -15 -9 -16 49 -10 50 -9 39 11 -13 24 -14 24
-30 5z"/>
<path d="M4530 2064 c0 -28 15 -25 23 6 3 13 0 20 -9 20 -8 0 -14 -10 -14 -26z"/>
<path d="M4680 2074 c0 -8 5 -12 10 -9 6 4 8 11 5 16 -9 14 -15 11 -15 -7z"/>
<path d="M4732 2054 c10 -10 20 -16 22 -13 3 3 -5 11 -17 18 -21 13 -21 12 -5
-5z"/>
<path d="M4883 1995 c0 -22 2 -30 4 -17 2 12 2 30 0 40 -3 9 -5 -1 -4 -23z"/>
<path d="M4486 2005 c-9 -23 -8 -25 9 -25 17 0 19 9 6 28 -7 11 -10 10 -15 -3z"/>
<path d="M4540 2010 c0 -5 5 -10 10 -10 6 0 10 5 10 10 0 6 -4 10 -10 10 -5 0
-10 -4 -10 -10z"/>
<path d="M4796 2003 c-6 -14 -5 -15 5 -6 7 7 10 15 7 18 -3 3 -9 -2 -12 -12z"/>
<path d="M4421 1994 c0 -11 3 -14 6 -6 3 7 2 16 -1 19 -3 4 -6 -2 -5 -13z"/>
<path d="M4597 1995 c-7 -16 8 -29 23 -20 15 9 12 35 -4 35 -8 0 -16 -7 -19
-15z"/>
<path d="M4685 1999 c19 -12 19 -12 0 -21 -20 -8 -20 -8 0 -5 11 1 20 9 20 17
0 8 -9 16 -20 18 -20 3 -20 3 0 -9z"/>
<path d="M4823 1989 c-1 -10 2 -19 8 -19 11 0 12 27 1 34 -4 2 -9 -4 -9 -15z"/>
<path d="M4750 1981 c0 -6 5 -13 10 -16 6 -3 10 1 10 9 0 9 -4 16 -10 16 -5 0
-10 -4 -10 -9z"/>
<path d="M3503 1944 c0 -7 9 -11 20 -8 29 5 31 11 4 16 -15 3 -24 0 -24 -8z"/>
<path d="M4540 1946 c0 -8 4 -17 9 -20 10 -7 23 19 14 28 -11 11 -23 6 -23 -8z"/>
<path d="M4420 1935 c0 -9 5 -15 11 -13 6 2 11 8 11 13 0 5 -5 11 -11 13 -6 2
-11 -4 -11 -13z"/>
<path d="M4480 1934 c0 -8 5 -12 10 -9 6 3 10 10 10 16 0 5 -4 9 -10 9 -5 0
-10 -7 -10 -16z"/>
<path d="M4660 1935 c-10 -13 -9 -15 9 -15 11 0 21 4 21 9 0 18 -18 21 -30 6z"/>
<path d="M4750 1940 c-23 -7 -23 -8 -3 -9 12 -1 25 4 28 9 3 6 5 10 3 9 -2 -1
-14 -5 -28 -9z"/>
<path d="M4840 1940 c0 -5 7 -10 15 -10 8 0 15 5 15 10 0 6 -7 10 -15 10 -8 0
-15 -4 -15 -10z"/>
<path d="M4881 1910 c0 -32 2 -40 9 -29 5 9 6 28 0 45 -8 27 -8 26 -9 -16z"/>
<path d="M3567 1878 c-155 -160 -252 -270 -249 -283 2 -11 26 5 75 47 39 35
77 68 84 73 7 6 48 44 91 85 l77 75 310 5 c171 3 292 8 270 11 -22 3 -149 4
-283 2 -165 -2 -249 0 -263 8 -18 9 -32 -1 -127 -95 -59 -58 -108 -103 -110
-101 -3 2 26 39 64 82 87 98 95 106 123 125 15 11 19 18 11 23 -7 4 -37 -19
-73 -57z m-127 -182 c0 -2 -8 -10 -17 -17 -16 -13 -17 -12 -4 4 13 16 21 21
21 13z"/>
<path d="M4615 1930 c3 -5 8 -10 11 -10 2 0 4 5 4 10 0 6 -5 10 -11 10 -5 0
-7 -4 -4 -10z"/>
<path d="M1480 1914 c0 -8 4 -13 9 -10 4 3 23 -17 40 -44 30 -46 54 -68 74
-68 5 0 12 -4 15 -8 4 -4 1 -4 -5 0 -25 14 -12 -13 22 -47 23 -23 42 -34 53
-31 14 5 14 4 3 -4 -12 -9 -12 -13 2 -26 14 -15 47 -13 47 3 0 13 -152 166
-162 163 -16 -4 -37 18 -32 33 7 16 -30 55 -51 55 -8 0 -15 -7 -15 -16z m60
-34 c0 -5 -2 -10 -4 -10 -3 0 -8 5 -11 10 -3 6 -1 10 4 10 6 0 11 -4 11 -10z"/>
<path d="M4804 1908 c-4 -6 -3 -8 4 -4 6 3 15 -2 21 -11 9 -16 10 -16 11 -2 0
20 -27 33 -36 17z"/>
<path d="M560 1890 c0 -5 5 -10 10 -10 6 0 10 5 10 10 0 6 -4 10 -10 10 -5 0
-10 -4 -10 -10z"/>
<path d="M4465 1890 c-3 -5 -1 -10 4 -10 6 0 11 5 11 10 0 6 -2 10 -4 10 -3 0
-8 -4 -11 -10z"/>
<path d="M600 1879 c0 -5 5 -7 10 -4 6 3 10 8 10 11 0 2 -4 4 -10 4 -5 0 -10
-5 -10 -11z"/>
<path d="M668 1883 c7 -3 16 -2 19 1 4 3 -2 6 -13 5 -11 0 -14 -3 -6 -6z"/>
<path d="M705 1880 c4 -6 11 -8 16 -5 14 9 11 15 -7 15 -8 0 -12 -5 -9 -10z"/>
<path d="M743 1884 c13 -13 626 -25 670 -13 15 4 27 5 27 1 -1 -4 -29 -37 -63
-74 l-62 -67 -507 -3 c-380 -2 -510 -6 -519 -15 -10 -10 12 -11 101 -6 85 4
111 3 106 -6 -8 -12 20 -10 64 4 11 4 20 4 20 2 0 -5 -279 -281 -322 -318
l-27 -24 -2 -531 -2 -531 23 -31 c13 -18 29 -32 36 -32 7 0 19 -3 28 -6 9 -3
16 -1 16 5 0 6 -8 11 -17 11 -22 1 -53 23 -53 39 0 6 -4 11 -8 11 -4 0 -8 42
-8 94 1 91 2 95 24 99 17 3 35 -7 70 -40 26 -25 56 -49 67 -55 11 -6 -3 12
-31 38 -88 85 -91 87 -111 76 -17 -10 -18 5 -16 411 l3 421 169 168 168 169
369 -1 369 0 97 -103 c54 -56 104 -102 112 -102 20 0 76 -43 76 -57 0 -7 -16
3 -35 22 -19 19 -35 29 -35 24 0 -6 13 -23 29 -38 l30 -29 1 -280 c0 -155 3
-283 5 -286 5 -4 11 489 7 548 -1 14 3 30 9 37 7 8 -11 31 -61 80 -70 68 -119
102 -71 50 14 -14 19 -26 13 -26 -13 0 -37 40 -34 56 1 6 -5 17 -14 25 -13 11
-17 10 -25 -2 -8 -11 -9 -9 -4 7 8 30 -66 98 -105 96 -198 -9 -690 -12 -690
-5 0 7 123 11 336 12 185 1 346 6 359 11 13 5 26 6 31 2 4 -4 4 -2 0 5 -4 7 1
21 11 31 10 10 29 32 42 48 13 16 35 41 48 55 l24 26 -373 2 c-205 1 -369 -1
-365 -5z m648 -241 c13 -16 12 -17 -3 -4 -17 13 -22 21 -14 21 2 0 10 -8 17
-17z m144 -143 c3 -5 2 -10 -4 -10 -5 0 -13 5 -16 10 -3 6 -2 10 4 10 5 0 13
-4 16 -10z"/>
<path d="M1560 1860 c0 -5 5 -10 10 -10 6 0 10 5 10 10 0 6 -4 10 -10 10 -5 0
-10 -4 -10 -10z"/>
<path d="M3680 1864 c0 -7 27 -34 34 -34 13 0 5 16 -14 28 -11 7 -20 10 -20 6z"/>
<path d="M4706 1843 c-6 -14 -5 -15 5 -6 7 7 10 15 7 18 -3 3 -9 -2 -12 -12z"/>
<path d="M4880 1815 c0 -35 -3 -43 -15 -39 -8 4 -15 1 -15 -5 0 -6 9 -11 20
-11 17 0 20 7 20 50 0 28 -2 50 -5 50 -3 0 -5 -20 -5 -45z"/>
<path d="M4400 1840 c0 -5 5 -10 11 -10 5 0 7 5 4 10 -3 6 -8 10 -11 10 -2 0
-4 -4 -4 -10z"/>
<path d="M4763 1843 c-18 -7 -16 -23 2 -23 8 0 15 7 15 15 0 8 -1 15 -2 14 -2
0 -9 -3 -15 -6z"/>
<path d="M3726 1821 c-3 -5 1 -11 9 -15 8 -3 15 -1 15 4 0 13 -18 22 -24 11z"/>
<path d="M3790 1820 c0 -5 4 -10 9 -10 6 0 13 5 16 10 3 6 -1 10 -9 10 -9 0
-16 -4 -16 -10z"/>
<path d="M3835 1820 c3 -5 8 -10 11 -10 2 0 4 5 4 10 0 6 -5 10 -11 10 -5 0
-7 -4 -4 -10z"/>
<path d="M3936 1822 c-2 -4 7 -9 20 -10 15 -1 22 2 19 8 -7 12 -32 13 -39 2z"/>
<path d="M3990 1820 c0 -5 5 -10 10 -10 6 0 10 5 10 10 0 6 -4 10 -10 10 -5 0
-10 -4 -10 -10z"/>
<path d="M4026 1819 c7 -11 45 -11 62 0 9 5 -1 8 -27 8 -22 0 -38 -4 -35 -8z"/>
<path d="M4118 1823 c7 -3 16 -2 19 1 4 3 -2 6 -13 5 -11 0 -14 -3 -6 -6z"/>
<path d="M4150 1818 c0 -9 36 -5 46 5 4 4 -5 6 -19 5 -15 -1 -27 -6 -27 -10z"/>
<path d="M4456 1784 c21 -20 66 -60 98 -90 59 -53 76 -63 76 -44 0 6 -4 10 -9
10 -5 0 -32 21 -59 48 -81 77 -122 112 -134 112 -7 0 6 -16 28 -36z"/>
<path d="M4812 1804 c-7 -8 -8 -14 -3 -14 10 0 25 19 20 25 -2 1 -10 -3 -17
-11z"/>
<path d="M438 1803 c7 -3 16 -2 19 1 4 3 -2 6 -13 5 -11 0 -14 -3 -6 -6z"/>
<path d="M486 1803 c-11 -11 -7 -20 9 -20 8 0 15 4 15 8 0 11 -16 20 -24 12z"/>
<path d="M548 1803 c7 -3 16 -2 19 1 4 3 -2 6 -13 5 -11 0 -14 -3 -6 -6z"/>
<path d="M593 1803 c9 -2 25 -2 35 0 9 3 1 5 -18 5 -19 0 -27 -2 -17 -5z"/>
<path d="M658 1803 c7 -3 16 -2 19 1 4 3 -2 6 -13 5 -11 0 -14 -3 -6 -6z"/>
<path d="M1210 1799 c0 -7 111 -2 119 6 2 3 -23 4 -57 3 -34 -1 -62 -5 -62 -9z"/>
<path d="M988 1793 c12 -2 30 -2 40 0 9 3 -1 5 -23 4 -22 0 -30 -2 -17 -4z"/>
<path d="M4690 1789 c0 -5 5 -7 10 -4 6 3 10 8 10 11 0 2 -4 4 -10 4 -5 0 -10
-5 -10 -11z"/>
<path d="M4730 1781 c0 -25 6 -27 13 -6 4 8 2 17 -3 20 -6 4 -10 -3 -10 -14z"/>
<path d="M3833 1775 c0 -8 4 -12 9 -9 5 3 6 10 3 15 -9 13 -12 11 -12 -6z"/>
<path d="M4638 1783 c7 -3 16 -2 19 1 4 3 -2 6 -13 5 -11 0 -14 -3 -6 -6z"/>
<path d="M3940 1770 c-9 -6 -10 -10 -3 -10 6 0 15 5 18 10 8 12 4 12 -15 0z"/>
<path d="M3970 1776 c0 -2 7 -6 15 -10 8 -3 15 -1 15 4 0 6 -7 10 -15 10 -8 0
-15 -2 -15 -4z"/>
<path d="M4136 1768 c3 -4 9 -8 15 -8 5 0 9 4 9 8 0 5 -7 9 -15 9 -8 0 -12 -4
-9 -9z"/>
<path d="M4318 1773 c7 -3 16 -2 19 1 4 3 -2 6 -13 5 -11 0 -14 -3 -6 -6z"/>
<path d="M4780 1770 c0 -6 7 -10 15 -10 8 0 15 2 15 4 0 2 -7 6 -15 10 -8 3
-15 1 -15 -4z"/>
<path d="M228 1753 c-1 -4 0 -42 3 -83 6 -78 13 -53 10 35 -2 49 -6 64 -13 48z"/>
<path d="M4880 1733 c-1 -5 -1 -79 0 -167 1 -144 -1 -158 -16 -152 -15 6 -15
5 0 -18 14 -22 16 -74 16 -441 0 -366 -2 -415 -15 -415 -9 0 -18 -7 -21 -15
-4 -8 -12 -15 -19 -15 -14 0 -225 -215 -225 -230 0 -5 42 32 93 83 50 51 113
110 139 131 l47 38 4 -109 c1 -59 4 213 5 605 1 391 0 712 -3 712 -3 0 -5 -3
-5 -7z"/>
<path d="M3624 1548 c-162 -164 -224 -236 -224 -258 0 -7 30 19 68 57 37 39
78 78 91 86 14 9 22 20 18 24 -4 4 -19 -5 -33 -20 -14 -15 -28 -27 -32 -27 -4
0 57 64 136 141 79 78 145 139 148 136 5 -4 -68 -78 -185 -186 -19 -17 -31
-35 -27 -38 6 -6 31 16 178 158 l58 56 138 -2 c76 -1 147 2 158 6 10 4 -52 8
-138 8 -93 1 -159 5 -163 11 -3 6 -12 10 -18 10 -7 0 -85 -73 -173 -162z"/>
<path d="M2529 1613 c-1 -49 -3 -431 -5 -850 -2 -657 -1 -763 11 -763 13 0 15
117 17 821 2 451 0 823 -4 825 -4 2 -5 16 -2 29 2 14 0 25 -6 25 -6 0 -10 -36
-11 -87z"/>
<path d="M2567 1692 c10 -6 12 -186 10 -850 -1 -668 1 -842 11 -842 9 0 12
177 12 850 l0 850 -22 0 c-15 0 -19 -3 -11 -8z"/>
<path d="M4142 1685 c7 -8 169 -8 176 -1 3 3 -37 6 -88 6 -51 0 -91 -2 -88 -5z"/>
<path d="M4358 1683 c7 -3 16 -2 19 1 4 3 -2 6 -13 5 -11 0 -14 -3 -6 -6z"/>
<path d="M4403 1683 c9 -2 25 -2 35 0 9 3 1 5 -18 5 -19 0 -27 -2 -17 -5z"/>
<path d="M4460 1682 c0 -5 14 -9 30 -10 17 0 30 4 30 9 0 5 -13 9 -30 9 -16 0
-30 -4 -30 -8z"/>
<path d="M330 1644 c-14 -36 -13 -49 8 -66 12 -11 24 -13 39 -8 27 11 36 40
24 74 -14 36 -58 36 -71 0z m61 -7 c13 -19 -3 -47 -28 -47 -19 0 -24 4 -19 16
3 8 2 12 -4 9 -6 -3 -10 -1 -10 4 0 6 5 11 10 11 6 0 10 7 10 15 0 15 29 10
41 -8z"/>
<path d="M360 1620 c0 -5 5 -10 10 -10 6 0 10 5 10 10 0 6 -4 10 -10 10 -5 0
-10 -4 -10 -10z"/>
<path d="M450 1660 c0 -5 5 -10 11 -10 5 0 7 5 4 10 -3 6 -8 10 -11 10 -2 0
-4 -4 -4 -10z"/>
<path d="M1730 1660 c-8 -5 -12 -11 -10 -12 3 -2 17 -12 33 -21 15 -10 27 -25
27 -35 1 -16 1 -16 11 0 10 17 -4 54 -26 70 -13 10 -17 10 -35 -2z"/>
<path d="M4324 1656 c-8 -22 -2 -27 16 -16 12 7 12 12 3 21 -10 10 -14 9 -19
-5z"/>
<path d="M2088 1653 c7 -3 16 -2 19 1 4 3 -2 6 -13 5 -11 0 -14 -3 -6 -6z"/>
<path d="M3925 1654 c-14 -6 -10 -147 4 -152 13 -4 19 27 19 101 1 55 -2 60
-23 51z"/>
<path d="M4125 1649 c-4 -6 -4 -14 1 -18 12 -8 17 -41 7 -41 -4 0 -9 -43 -11
-95 -3 -81 -1 -95 12 -95 18 0 22 45 6 55 -5 3 -10 12 -10 18 0 7 4 6 10 -3 6
-10 9 13 9 71 0 47 1 91 3 98 4 17 -18 26 -27 10z"/>
<path d="M712 1629 c-13 -5 -20 -14 -17 -20 5 -7 13 -4 26 7 10 9 19 19 19 21
0 4 0 4 -28 -8z"/>
<path d="M1815 1630 c-3 -6 5 -10 19 -10 20 0 24 -4 19 -17 -5 -17 -5 -17 13
0 16 15 17 19 4 27 -20 13 -47 13 -55 0z"/>
<path d="M3220 1625 c0 -12 4 -13 18 -6 10 6 28 7 40 4 13 -3 22 -1 22 6 0 6
-17 11 -40 11 -29 0 -40 -4 -40 -15z"/>
<path d="M4645 1610 c11 -14 25 -28 30 -32 24 -15 70 -62 68 -69 -1 -4 4 -10
12 -13 8 -3 15 -2 15 2 0 13 -62 75 -105 107 -37 27 -39 28 -20 5z"/>
<path d="M232 1488 c1 -107 6 -95 10 30 2 39 0 72 -4 72 -5 0 -7 -46 -6 -102z"/>
<path d="M3222 1560 c0 -19 2 -27 5 -17 2 9 2 25 0 35 -3 9 -5 1 -5 -18z"/>
<path d="M3788 1565 c-24 -33 -23 -36 12 -24 19 7 30 18 30 30 0 26 -21 23
-42 -6z"/>
<path d="M4330 1583 c0 -6 -3 -18 -6 -27 -4 -11 -1 -16 10 -16 9 0 16 6 16 13
0 16 -20 46 -20 30z"/>
<path d="M1876 1562 c-2 -4 -1 -14 5 -22 7 -12 9 -10 9 8 0 23 -5 28 -14 14z"/>
<path d="M1830 1538 c0 -19 2 -20 10 -8 13 19 13 30 0 30 -5 0 -10 -10 -10
-22z"/>
<path d="M3260 1530 c0 -11 4 -20 9 -20 5 0 7 9 4 20 -3 11 -7 20 -9 20 -2 0
-4 -9 -4 -20z"/>
<path d="M3337 1525 c-4 -8 -2 -17 3 -20 6 -4 10 3 10 14 0 25 -6 27 -13 6z"/>
<path d="M3742 1528 c-7 -7 -12 -16 -12 -21 0 -5 7 -1 16 8 9 9 14 18 12 20
-2 3 -10 -1 -16 -7z"/>
<path d="M585 1520 c-3 -6 1 -7 9 -4 18 7 21 14 7 14 -6 0 -13 -4 -16 -10z"/>
<path d="M4327 1516 c-5 -13 6 -70 15 -80 2 -1 -3 -10 -11 -19 -11 -15 -11
-17 2 -17 12 0 14 12 13 60 -3 62 -9 82 -19 56z"/>
<path d="M1883 1440 c0 -47 2 -66 4 -42 2 23 2 61 0 85 -2 23 -4 4 -4 -43z"/>
<path d="M3220 1496 c0 -31 6 -34 13 -6 3 11 1 23 -4 26 -5 3 -9 -6 -9 -20z"/>
<path d="M4780 1492 c0 -5 14 -24 30 -42 17 -18 30 -30 30 -26 0 5 -13 24 -30
43 -16 18 -30 30 -30 25z"/>
<path d="M550 1479 c0 -5 5 -7 10 -4 6 3 10 8 10 11 0 2 -4 4 -10 4 -5 0 -10
-5 -10 -11z"/>
<path d="M3912 1441 c2 -33 7 -46 18 -46 10 0 15 11 15 35 1 47 -3 57 -21 57
-12 0 -14 -11 -12 -46z"/>
<path d="M3692 1464 c-30 -21 -28 -33 6 -31 20 2 28 8 30 25 4 26 -5 28 -36 6z"/>
<path d="M867 1449 c7 -7 15 -10 18 -7 3 3 -2 9 -12 12 -14 6 -15 5 -6 -5z"/>
<path d="M3339 1443 c-1 -10 -3 -33 -5 -50 -2 -18 0 -33 5 -33 4 0 9 23 10 50
1 28 -1 50 -4 50 -3 0 -6 -8 -6 -17z"/>
<path d="M575 1430 c-45 -30 -80 -80 -55 -80 5 0 12 11 16 25 3 14 12 25 20
25 8 0 14 5 14 12 0 6 3 9 6 6 3 -4 17 0 31 7 15 8 30 12 35 9 4 -3 8 0 8 5 0
18 -43 12 -75 -9z"/>
<path d="M675 1441 c-3 -6 10 -7 32 -4 50 8 55 13 10 13 -20 0 -38 -4 -42 -9z"/>
<path d="M938 1443 c7 -3 16 -2 19 1 4 3 -2 6 -13 5 -11 0 -14 -3 -6 -6z"/>
<path d="M1120 1440 c-11 -7 -6 -9 17 -7 18 1 33 5 33 10 0 10 -32 9 -50 -3z"/>
<path d="M1190 1440 c0 -5 5 -10 10 -10 6 0 10 5 10 10 0 6 -4 10 -10 10 -5 0
-10 -4 -10 -10z"/>
<path d="M1226 1441 c-3 -5 1 -11 9 -15 9 -3 15 0 15 9 0 16 -16 20 -24 6z"/>
<path d="M1827 1418 c8 -46 13 -48 13 -5 0 21 -4 37 -10 37 -5 0 -7 -14 -3
-32z"/>
<path d="M803 1432 c-18 -2 -33 -7 -33 -11 0 -12 73 -22 83 -12 13 13 -16 27
-50 23z"/>
<path d="M1768 1405 c2 -14 6 -25 8 -25 2 0 4 11 4 25 0 14 -4 25 -9 25 -4 0
-6 -11 -3 -25z"/>
<path d="M890 1403 c1 -26 20 -34 71 -31 42 2 55 7 57 21 3 15 -5 17 -62 17
-36 0 -66 -3 -66 -7z"/>
<path d="M1060 1350 c0 -46 3 -60 14 -60 11 0 16 14 18 48 l3 47 45 0 c54 0
95 -15 135 -49 17 -14 33 -26 37 -26 20 0 31 -82 34 -255 2 -104 3 -201 3
-215 0 -14 -1 -29 0 -35 0 -5 2 -50 5 -99 3 -80 0 -103 -22 -136 -2 -3 -130
-5 -285 -6 -155 0 -320 -3 -367 -7 -47 -4 -91 -2 -99 2 -11 7 -14 30 -13 93 0
46 1 86 1 90 1 4 8 5 17 1 9 -3 11 -9 6 -12 -5 -3 -8 -28 -6 -56 1 -27 3 -56
3 -64 1 -7 7 -11 16 -7 8 3 15 0 15 -7 0 -9 58 -12 243 -12 134 0 252 -4 265
-9 16 -7 29 -6 43 2 10 7 19 8 19 3 0 -5 11 -4 25 2 l24 12 -34 12 c-23 8
-125 12 -312 13 -152 0 -278 2 -279 3 -1 1 -5 118 -9 260 l-8 258 28 -7 c26
-6 27 -6 14 17 -7 13 -14 44 -14 68 l-1 44 74 -6 c41 -3 76 -8 79 -11 3 -3
-15 -30 -41 -60 -67 -79 -86 -128 -87 -225 -1 -71 3 -89 30 -144 16 -34 31
-71 33 -82 3 -16 12 -20 51 -23 26 -2 47 0 47 4 0 4 -18 26 -39 49 -67 72 -84
117 -79 201 6 91 33 139 124 223 37 34 70 61 74 61 21 0 46 -39 49 -75 6 -85
55 -163 141 -225 33 -24 60 -46 60 -50 0 -14 -25 -30 -47 -30 -13 0 -23 -6
-23 -13 0 -7 -9 -20 -20 -30 -24 -20 -25 -35 -4 -65 19 -27 38 -29 31 -2 -3
11 -1 18 4 14 5 -3 9 2 9 11 0 10 -5 13 -12 9 -7 -4 3 8 22 27 19 19 41 47 49
62 8 15 30 37 48 48 43 27 42 39 -4 39 -48 0 -116 33 -149 73 -24 29 -84 147
-84 167 0 10 292 13 306 3 31 -22 35 -56 34 -305 0 -139 0 -264 0 -277 0 -20
3 -22 13 -13 9 10 12 82 12 290 0 296 -4 322 -48 322 -18 0 -19 2 -7 10 12 7
12 10 1 10 -7 0 -11 6 -8 13 4 10 -3 12 -27 9 -17 -3 -36 -9 -43 -14 -7 -6
-13 -4 -15 4 -4 10 -10 10 -31 1 -17 -8 -28 -9 -32 -2 -4 5 -62 9 -141 8 -137
-1 -164 -9 -164 -44 0 -7 -6 -15 -14 -18 -10 -4 -12 0 -9 14 3 10 10 19 15 19
6 0 5 7 -2 15 -7 9 -18 14 -24 12 -6 -2 -30 2 -53 9 -35 11 -100 10 -111 -1
-2 -2 -4 -21 -5 -42 0 -21 -5 -41 -11 -45 -7 -5 -12 -79 -13 -209 -1 -111 -5
-204 -8 -207 -4 -5 -7 158 -7 486 0 69 13 109 33 96 5 -3 9 0 9 6 0 6 5 8 10
5 6 -3 10 -1 10 5 0 6 4 9 8 6 18 -11 212 -17 212 -6 0 5 -8 10 -17 10 -10 0
-61 5 -112 10 -117 13 -152 4 -168 -43 -7 -21 -10 -144 -7 -377 2 -190 1 -355
-2 -368 -6 -21 -8 -21 -24 -7 -15 14 -17 14 -17 -1 0 -9 9 -19 19 -22 10 -2
18 -8 18 -12 0 -21 62 -31 166 -26 112 5 398 9 536 7 64 -1 76 -4 72 -16 -4
-8 -1 -15 5 -15 6 0 11 5 11 10 0 6 6 10 14 10 32 0 36 57 29 408 -6 342 -6
347 -28 367 -103 92 -122 102 -209 104 l-76 1 0 -60z m-73 -116 c-3 -3 -12 -4
-19 -1 -8 3 -5 6 6 6 11 1 17 -2 13 -5z m173 -294 c0 -13 -11 -13 -30 0 -12 8
-11 10 8 10 12 0 22 -4 22 -10z m-419 -177 c13 -16 12 -17 -3 -4 -10 7 -18 15
-18 17 0 8 8 3 21 -13z"/>
<path d="M3642 1398 c-17 -17 -15 -28 6 -44 27 -21 44 -17 37 9 -11 35 -28 50
-43 35z"/>
<path d="M1315 1370 c3 -5 8 -10 11 -10 2 0 4 5 4 10 0 6 -5 10 -11 10 -5 0
-7 -4 -4 -10z"/>
<path d="M4820 1370 c0 -5 5 -10 11 -10 5 0 7 5 4 10 -3 6 -8 10 -11 10 -2 0
-4 -4 -4 -10z"/>
<path d="M1831 1354 c0 -11 3 -14 6 -6 3 7 2 16 -1 19 -3 4 -6 -2 -5 -13z"/>
<path d="M3820 1338 c-11 -18 -20 -37 -20 -41 0 -5 -7 -15 -15 -24 -14 -13
-15 -61 -13 -365 l3 -350 37 -34 38 -34 255 0 255 0 0 -39 c0 -34 3 -38 20
-34 11 3 17 10 13 16 -4 6 -8 21 -9 34 -3 22 0 23 70 22 82 -1 105 9 129 55
15 27 16 71 14 344 -3 294 -2 312 15 312 10 0 18 5 18 10 0 6 -8 10 -18 10 -9
0 -23 9 -29 19 -7 10 -35 27 -62 36 -42 14 -51 21 -51 40 0 57 10 55 -271 55
l-259 0 4 -32 c3 -18 5 -39 5 -47 1 -8 4 -11 9 -7 7 8 8 13 11 41 1 12 12 15
49 14 26 -1 124 -1 217 0 94 1 178 2 187 1 10 0 19 -12 23 -30 4 -16 11 -30
17 -30 6 0 8 -7 4 -15 -4 -11 2 -15 24 -15 16 0 32 -4 35 -10 4 -6 -10 -9 -34
-7 -21 1 -37 5 -35 8 6 11 -46 20 -68 13 -16 -5 -18 -8 -7 -15 12 -7 11 -9 -2
-9 -8 0 -21 6 -27 13 -10 9 -76 13 -243 16 -204 3 -232 1 -249 -14 -10 -9 -17
-27 -15 -41 1 -13 -2 -24 -7 -24 -5 0 -8 -6 -7 -12 2 -18 -12 -58 -21 -58 -3
0 -7 28 -7 63 -1 76 27 141 56 132 12 -4 20 0 24 12 2 10 8 26 12 36 6 14 2
17 -24 17 -25 0 -36 -7 -51 -32z m613 -105 c-1 -6 17 -14 40 -18 23 -4 48 -12
55 -17 19 -16 17 -261 -2 -278 -12 -9 -13 -17 -4 -38 15 -37 15 -251 -1 -280
-7 -13 -23 -27 -37 -32 -35 -14 -588 -14 -613 0 -11 6 -25 18 -30 28 -5 10 -7
123 -4 272 l4 255 28 40 27 40 254 5 c240 5 255 6 252 23 -2 14 2 18 15 15 10
-2 17 -9 16 -15z m-515 0 c-21 -2 -38 -8 -38 -14 0 -5 -5 -9 -11 -9 -8 0 -8 5
1 15 7 9 27 14 49 13 l36 -1 -37 -4z m636 -19 c3 -8 2 -12 -4 -9 -6 3 -10 10
-10 16 0 14 7 11 14 -7z m23 -36 c-3 -7 -5 -2 -5 12 0 14 2 19 5 13 2 -7 2
-19 0 -25z m-770 -100 c-3 -8 -6 -5 -6 6 -1 11 2 17 5 13 3 -3 4 -12 1 -19z
m767 -72 c2 -14 0 -26 -5 -26 -4 0 -7 14 -7 30 1 35 8 33 12 -4z m3 -236 c0
-91 -3 -175 -8 -186 -4 -12 -19 -33 -34 -48 -23 -23 -34 -26 -90 -26 -51 0
-63 3 -59 14 4 9 17 13 38 12 19 -2 50 5 71 15 21 10 42 16 47 13 6 -4 7 2 3
16 -5 15 -4 20 4 16 7 -5 10 42 10 151 -1 209 0 222 10 203 5 -8 8 -89 8 -180z
m-770 -62 c-3 -7 -5 -2 -5 12 0 14 2 19 5 13 2 -7 2 -19 0 -25z m0 -70 c-2
-13 -4 -5 -4 17 -1 22 1 32 4 23 2 -10 2 -28 0 -40z m62 -88 c7 0 10 -4 6 -9
-3 -5 -1 -12 4 -15 5 -4 13 -2 16 4 5 8 11 7 21 -1 10 -8 22 -8 43 -1 16 6 32
8 35 4 9 -9 78 -14 73 -5 -6 10 285 5 295 -5 8 -8 -458 -14 -490 -6 -11 3 -22
15 -25 25 -3 11 -11 18 -18 17 -7 -2 -13 2 -14 7 0 6 -4 17 -9 25 -5 8 4 3 21
-12 16 -16 35 -28 42 -28z"/>
<path d="M4415 1200 c-19 -6 -19 -15 -16 -172 3 -181 -5 -230 -46 -278 -47
-57 -95 -73 -225 -78 -87 -3 -118 -1 -118 7 0 7 -5 9 -10 6 -6 -4 -8 -11 -5
-16 8 -12 -7 -12 -40 1 -22 8 -26 15 -22 35 5 30 -6 40 -30 26 -10 -6 -12 -11
-5 -11 6 0 12 -5 12 -11 0 -5 -5 -7 -11 -3 -8 5 -8 1 0 -14 6 -11 28 -31 48
-43 35 -22 49 -24 183 -24 141 0 147 1 192 28 50 29 97 88 117 147 13 39 17
389 4 401 -4 3 -17 3 -28 -1z m12 -102 c-2 -18 -4 -4 -4 32 0 36 2 50 4 33 2
-18 2 -48 0 -65z m-27 -338 c0 -5 -5 -10 -11 -10 -5 0 -7 5 -4 10 3 6 8 10 11
10 2 0 4 -4 4 -10z m-113 -96 c-3 -3 -12 -4 -19 -1 -8 3 -5 6 6 6 11 1 17 -2
13 -5z"/>
<path d="M4211 1115 c-16 -27 -40 -45 -105 -76 -47 -22 -97 -54 -110 -70 -29
-34 -41 -97 -32 -171 3 -29 6 -54 6 -55 0 -2 5 -3 11 -3 6 0 9 9 6 20 -3 11 0
18 6 17 7 -1 14 26 18 73 7 68 10 77 39 101 18 15 53 35 78 45 61 23 99 51
117 88 33 65 3 93 -34 31z m-224 -317 c-3 -8 -6 -5 -6 6 -1 11 2 17 5 13 3 -3
4 -12 1 -19z"/>
<path d="M4271 1088 c-5 -13 -14 -48 -20 -79 -22 -106 -114 -208 -206 -227
-22 -4 -38 -12 -35 -17 7 -14 47 -7 94 17 32 17 38 17 27 4 -7 -9 -18 -16 -23
-16 -5 0 -21 -9 -35 -20 -15 -12 -41 -20 -62 -20 -51 0 -65 -11 -45 -36 8 -10
13 -14 10 -8 -3 7 1 17 9 24 10 9 15 9 15 1 0 -17 20 -13 85 18 143 70 215
180 215 331 0 46 -16 61 -29 28z"/>
<path d="M3871 764 c0 -11 3 -14 6 -6 3 7 2 16 -1 19 -3 4 -6 -2 -5 -13z"/>
<path d="M810 1336 c0 -9 -6 -16 -12 -16 -9 0 -8 -4 2 -10 23 -15 32 -12 25
10 -6 20 9 29 18 10 3 -6 4 -5 3 2 -4 19 -36 22 -36 4z"/>
<path d="M1350 1340 c0 -5 5 -10 11 -10 5 0 7 5 4 10 -3 6 -8 10 -11 10 -2 0
-4 -4 -4 -10z"/>
<path d="M1878 1325 c-3 -14 -1 -25 3 -25 5 0 9 11 9 25 0 14 -2 25 -4 25 -2
0 -6 -11 -8 -25z"/>
<path d="M3336 1313 c8 -52 14 -54 14 -5 0 23 -4 42 -10 42 -6 0 -7 -15 -4
-37z"/>
<path d="M476 1308 c-3 -18 -8 -64 -11 -102 -5 -60 -4 -68 10 -62 9 3 19 6 21
6 3 0 2 5 -1 10 -15 24 -13 85 3 103 14 15 14 18 2 15 -15 -3 -15 2 -3 45 3 9
1 17 -5 17 -6 0 -13 -15 -16 -32z"/>
<path d="M3520 1296 c0 -7 7 -19 15 -26 13 -11 15 -8 15 14 0 16 -5 26 -15 26
-8 0 -15 -6 -15 -14z"/>
<path d="M1285 1270 c3 -5 11 -10 16 -10 6 0 7 5 4 10 -3 6 -11 10 -16 10 -6
0 -7 -4 -4 -10z"/>
<path d="M3310 1269 c0 -6 -9 -22 -20 -36 -11 -15 -18 -28 -15 -31 6 -6 49 47
51 65 1 7 -2 13 -7 13 -5 0 -9 -5 -9 -11z"/>
<path d="M1831 1244 c0 -11 3 -14 6 -6 3 7 2 16 -1 19 -3 4 -6 -2 -5 -13z"/>
<path d="M1431 1208 c-1 -26 4 -50 9 -53 12 -8 12 52 0 80 -6 15 -9 8 -9 -27z"/>
<path d="M3545 1230 c-3 -5 -1 -10 4 -10 6 0 11 5 11 10 0 6 -2 10 -4 10 -3 0
-8 -4 -11 -10z"/>
<path d="M3640 1225 c0 -11 11 -15 40 -15 29 0 40 4 40 15 0 11 -11 15 -40 15
-29 0 -40 -4 -40 -15z"/>
<path d="M1860 1220 c0 -5 5 -10 10 -10 6 0 10 5 10 10 0 6 -4 10 -10 10 -5 0
-10 -4 -10 -10z"/>
<path d="M406 1201 c-3 -5 1 -14 9 -21 10 -9 15 -9 15 -1 0 6 7 11 15 11 8 0
15 5 15 10 0 12 -47 13 -54 1z"/>
<path d="M3361 1194 c0 -11 3 -14 6 -6 3 7 2 16 -1 19 -3 4 -6 -2 -5 -13z"/>
<path d="M3231 1186 c-13 -7 -19 -16 -14 -19 6 -4 18 2 28 13 21 23 19 24 -14
6z"/>
<path d="M3359 1143 c0 -16 -1 -66 -1 -112 -1 -47 -3 -94 -6 -105 -5 -20 -5
-20 -12 0 -4 10 -8 -17 -8 -61 0 -44 0 -199 -1 -343 -1 -145 1 -268 5 -273 3
-5 24 -9 47 -8 33 0 38 2 21 9 -12 4 -24 15 -27 24 -8 21 -11 256 -3 256 3 0
34 -32 68 -72 35 -40 95 -106 136 -145 l73 -73 469 0 c278 0 471 4 475 9 9 15
-15 24 -30 11 -10 -9 -128 -10 -461 -7 l-446 5 -72 74 c-39 40 -95 102 -125
138 -30 36 -63 73 -73 82 -17 15 -18 37 -18 317 0 166 -2 301 -5 301 -3 0 -5
-12 -6 -27z"/>
<path d="M1821 1124 c0 -11 3 -14 6 -6 3 7 2 16 -1 19 -3 4 -6 -2 -5 -13z"/>
<path d="M837 1072 c-32 -70 -35 -144 -11 -215 13 -37 21 -47 38 -47 35 0 36
9 9 48 -22 33 -24 45 -21 111 3 62 7 76 26 92 26 21 27 62 1 67 -11 2 -24 -15
-42 -56z"/>
<path d="M1432 1099 c1 -20 4 -26 9 -17 12 18 11 48 0 48 -5 0 -9 -14 -9 -31z"/>
<path d="M3632 1081 c-53 -10 -37 -26 26 -26 44 0 57 3 57 15 0 17 -32 21 -83
11z"/>
<path d="M455 980 c0 -67 0 -70 23 -70 18 0 23 4 18 16 -3 9 -6 40 -6 70 0 45
-3 54 -17 54 -15 0 -18 -10 -18 -70z"/>
<path d="M1876 1012 c-2 -4 -1 -14 5 -22 7 -12 9 -10 9 8 0 23 -5 28 -14 14z"/>
<path d="M3317 1000 c-9 -11 -16 -30 -16 -43 1 -20 2 -20 6 -2 3 11 12 25 20
32 8 6 13 17 11 23 -2 6 -11 2 -21 -10z"/>
<path d="M1876 934 c-7 -19 -8 -79 -1 -72 6 5 15 88 10 88 -2 0 -6 -7 -9 -16z"/>
<path d="M3221 934 c0 -11 3 -14 6 -6 3 7 2 16 -1 19 -3 4 -6 -2 -5 -13z"/>
<path d="M1428 928 c-6 -17 3 -68 12 -68 4 0 8 18 8 40 1 37 -12 54 -20 28z"/>
<path d="M3640 921 c-67 -9 -54 -26 23 -29 62 -3 68 -1 65 15 -4 20 -22 23
-88 14z"/>
<path d="M3218 870 c-3 -17 -1 -33 4 -36 4 -3 8 11 8 30 0 44 -6 47 -12 6z"/>
<path d="M4633 883 c-13 -2 -23 -10 -23 -18 0 -16 50 -29 63 -16 10 10 3 42
-10 40 -4 -1 -18 -4 -30 -6z"/>
<path d="M1869 833 c-3 -112 -9 -167 -18 -176 -8 -8 -11 10 -11 68 0 43 -3 75
-6 72 -8 -8 -11 -34 -13 -110 -1 -66 -1 -66 -243 -314 -73 -76 -122 -133 -112
-133 8 0 77 64 152 142 76 78 165 169 200 203 l62 62 7 95 c4 67 2 97 -6 102
-6 4 -11 0 -12 -11z"/>
<path d="M3215 795 c2 -37 15 -43 15 -7 0 18 -4 32 -8 32 -4 0 -7 -11 -7 -25z"/>
<path d="M1130 802 c0 -7 7 -20 15 -28 19 -20 20 -4 0 22 -9 12 -14 14 -15 6z"/>
<path d="M3280 785 c0 -8 4 -15 10 -15 5 0 7 7 4 15 -4 8 -8 15 -10 15 -2 0
-4 -7 -4 -15z"/>
<path d="M3570 760 c0 -6 33 -10 80 -10 47 0 80 4 80 10 0 6 -33 10 -80 10
-47 0 -80 -4 -80 -10z"/>
<path d="M462 713 c2 -37 7 -47 18 -44 8 2 21 4 28 4 19 1 14 17 -5 18 -11 0
-13 3 -5 6 6 2 12 9 12 14 0 6 -4 7 -10 4 -5 -3 -10 -2 -10 3 0 5 9 12 20 15
33 9 23 27 -16 27 l-35 0 3 -47z"/>
<path d="M1170 753 c0 -5 9 -18 20 -28 11 -10 20 -14 20 -8 0 5 -9 18 -20 28
-11 10 -20 14 -20 8z"/>
<path d="M1414 736 c15 -12 18 -24 13 -54 -7 -55 8 -74 20 -25 16 68 12 88
-22 91 -28 2 -29 2 -11 -12z"/>
<path d="M3246 735 c4 -8 10 -15 15 -15 4 0 6 7 3 15 -4 8 -10 15 -15 15 -4 0
-6 -7 -3 -15z"/>
<path d="M2937 725 c-4 -8 -2 -17 3 -20 6 -4 10 3 10 14 0 25 -6 27 -13 6z"/>
<path d="M3277 713 c-2 -4 4 -17 14 -27 16 -16 19 -17 19 -4 0 18 -26 43 -33
31z"/>
<path d="M3514 684 c0 -19 3 -34 8 -34 9 0 7 59 -2 65 -3 2 -5 -12 -6 -31z"/>
<path d="M1220 703 c0 -7 5 -15 10 -18 6 -4 8 -15 5 -25 -7 -22 21 -35 29 -14
3 9 -5 27 -19 42 -14 15 -25 21 -25 15z"/>
<path d="M4657 691 c27 -26 42 -27 39 -3 -2 11 -13 18 -32 20 l-29 4 22 -21z"/>
<path d="M3065 689 c-4 -6 -5 -12 -2 -15 2 -3 7 2 10 11 7 17 1 20 -8 4z"/>
<path d="M3010 680 c0 -5 5 -10 10 -10 6 0 10 5 10 10 0 6 -4 10 -10 10 -5 0
-10 -4 -10 -10z"/>
<path d="M3589 627 c-18 -5 -43 -7 -56 -4 -13 2 -23 0 -23 -4 0 -5 3 -9 8 -9
122 -4 202 -2 202 6 1 13 -92 21 -131 11z"/>
<path d="M1403 609 c-2 -23 3 -25 10 -4 4 8 3 16 -1 19 -4 3 -9 -4 -9 -15z"/>
<path d="M1562 614 c-24 -17 -30 -44 -8 -44 15 0 30 16 39 43 8 21 -2 22 -31
1z"/>
<path d="M2831 614 c0 -11 3 -14 6 -6 3 7 2 16 -1 19 -3 4 -6 -2 -5 -13z"/>
<path d="M3084 596 c0 -13 4 -22 9 -19 10 6 9 31 -2 37 -5 3 -8 -5 -7 -18z"/>
<path d="M2832 565 c0 -16 2 -22 5 -12 2 9 2 23 0 30 -3 6 -5 -1 -5 -18z"/>
<path d="M1218 573 c6 -2 18 -2 25 0 6 3 1 5 -13 5 -14 0 -19 -2 -12 -5z"/>
<path d="M1421 549 c-13 -17 -21 -33 -18 -35 7 -8 47 38 47 53 0 19 -4 17 -29
-18z"/>
<path d="M2927 563 c-12 -11 -8 -23 8 -23 8 0 15 7 15 15 0 16 -12 20 -23 8z"/>
<path d="M1497 537 c-8 -12 -38 -47 -66 -76 -28 -30 -48 -57 -45 -60 6 -6 94
85 94 98 0 6 11 13 25 17 14 3 25 12 25 19 0 24 -17 25 -33 2z"/>
<path d="M1858 501 c-69 -70 -78 -92 -11 -27 26 25 51 46 56 46 4 0 5 5 2 10
-3 6 1 10 9 10 8 0 18 5 21 10 3 6 0 10 -7 10 -7 -1 -39 -27 -70 -59z"/>
<path d="M506 535 c8 -20 52 -47 59 -36 3 5 -4 12 -15 16 -11 3 -20 10 -20 15
0 4 -7 10 -14 13 -10 4 -13 1 -10 -8z"/>
<path d="M3025 531 c-6 -11 9 -23 19 -14 9 9 7 23 -3 23 -6 0 -12 -4 -16 -9z"/>
<path d="M2192 510 c0 -14 2 -19 5 -12 2 6 2 18 0 25 -3 6 -5 1 -5 -13z"/>
<path d="M3112 518 c2 -6 -13 -27 -34 -46 -21 -19 -38 -41 -38 -49 0 -8 19 6
41 31 23 25 44 46 48 46 14 -1 100 -88 115 -117 19 -38 31 -44 20 -11 -7 24
-11 28 -87 106 -50 50 -73 65 -65 40z"/>
<path d="M1370 495 c-10 -12 -10 -15 4 -15 9 0 16 7 16 15 0 8 -2 15 -4 15 -2
0 -9 -7 -16 -15z"/>
<path d="M2830 459 c0 -29 3 -49 7 -45 12 11 14 84 3 91 -6 4 -10 -14 -10 -46z"/>
<path d="M2990 496 c0 -9 7 -16 16 -16 17 0 14 22 -4 28 -7 2 -12 -3 -12 -12z"/>
<path d="M742 473 c5 -26 68 -32 64 -6 -2 12 -13 19 -35 21 -27 3 -32 0 -29
-15z"/>
<path d="M1047 484 c-3 -4 1 -17 9 -29 19 -30 54 -23 54 11 0 20 -5 24 -28 24
-16 0 -31 -3 -35 -6z"/>
<path d="M873 473 c32 -2 81 -2 110 0 29 2 3 3 -58 3 -60 0 -84 -1 -52 -3z"/>
<path d="M1900 470 c0 -5 5 -10 11 -10 5 0 7 5 4 10 -3 6 -8 10 -11 10 -2 0
-4 -4 -4 -10z"/>
<path d="M1946 467 c3 -10 9 -15 12 -12 3 3 0 11 -7 18 -10 9 -11 8 -5 -6z"/>
<path d="M3946 465 c-7 -20 5 -56 18 -52 6 3 10 9 9 15 -2 6 3 9 11 6 28 -11
25 15 -3 29 -24 12 -31 12 -35 2z"/>
<path d="M1263 455 c0 -9 9 -14 23 -13 20 2 24 13 6 13 -4 0 -12 3 -18 7 -6 4
-11 1 -11 -7z"/>
<path d="M1329 454 c-12 -14 -11 -16 5 -13 11 2 21 10 24 17 5 17 -13 15 -29
-4z"/>
<path d="M1130 441 c0 -6 17 -7 38 -4 51 8 53 13 4 13 -23 0 -42 -4 -42 -9z"/>
<path d="M2040 442 c0 -5 7 -9 15 -9 8 0 15 4 15 9 0 4 -7 8 -15 8 -8 0 -15
-4 -15 -8z"/>
<path d="M2210 440 c0 -5 5 -10 10 -10 6 0 10 5 10 10 0 6 -4 10 -10 10 -5 0
-10 -4 -10 -10z"/>
<path d="M2900 442 c0 -4 14 -22 30 -40 17 -18 30 -39 30 -45 0 -8 4 -7 9 2 6
10 0 23 -20 45 -16 17 -29 34 -29 39 0 4 -4 7 -10 7 -5 0 -10 -3 -10 -8z"/>
<path d="M1975 420 c-3 -5 -1 -10 4 -10 6 0 11 5 11 10 0 6 -2 10 -4 10 -3 0
-8 -4 -11 -10z"/>
<path d="M3142 418 c-7 -7 -12 -18 -12 -26 0 -7 -4 -11 -9 -7 -11 6 -26 -13
-18 -22 3 -3 17 7 31 22 15 16 26 22 26 14 0 -9 3 -10 11 -2 11 11 5 33 -10
33 -4 0 -12 -5 -19 -12z"/>
<path d="M1765 410 c-3 -5 -1 -10 4 -10 6 0 11 5 11 10 0 6 -2 10 -4 10 -3 0
-8 -4 -11 -10z"/>
<path d="M2830 357 c0 -26 4 -47 8 -47 10 0 9 76 -1 86 -4 4 -7 -14 -7 -39z"/>
<path d="M1347 383 c-4 -3 -7 -11 -7 -17 0 -6 5 -5 12 2 6 6 9 14 7 17 -3 3
-9 2 -12 -2z"/>
<path d="M2100 376 c0 -8 4 -17 9 -20 5 -4 7 3 4 14 -6 23 -13 26 -13 6z"/>
<path d="M3052 378 c5 -15 28 -23 28 -10 0 5 -7 13 -16 16 -10 4 -14 1 -12 -6z"/>
<path d="M2870 370 c0 -5 5 -10 11 -10 5 0 7 5 4 10 -3 6 -8 10 -11 10 -2 0
-4 -4 -4 -10z"/>
<path d="M430 360 c0 -5 5 -10 10 -10 6 0 10 5 10 10 0 6 -4 10 -10 10 -5 0
-10 -4 -10 -10z"/>
<path d="M3196 355 c-3 -9 -2 -14 3 -10 5 3 11 0 13 -7 3 -8 6 -9 11 -1 4 6 1
16 -7 22 -10 9 -15 8 -20 -4z"/>
<path d="M1290 340 c-6 -11 -20 -20 -30 -20 -11 0 -20 -7 -20 -16 0 -8 -4 -13
-9 -10 -4 3 -17 -1 -27 -10 -18 -14 -18 -15 6 -9 14 4 30 13 36 21 6 8 18 14
26 14 8 0 20 11 26 25 14 30 7 34 -8 5z"/>
<path d="M1936 335 c4 -8 12 -15 20 -15 20 0 17 7 -6 20 -16 9 -18 8 -14 -5z"/>
<path d="M2980 342 c0 -11 91 -94 96 -89 5 5 -80 97 -89 97 -4 0 -7 -4 -7 -8z"/>
<path d="M470 326 c0 -8 5 -18 10 -21 6 -3 10 1 10 9 0 8 -4 18 -10 21 -5 3
-10 -1 -10 -9z"/>
<path d="M3400 332 c0 -8 37 -42 45 -42 3 0 -2 11 -11 25 -16 24 -34 33 -34
17z"/>
<path d="M4820 332 c-21 -7 -42 -30 -38 -41 2 -5 16 1 33 14 30 24 32 37 5 27z"/>
<path d="M395 320 c3 -5 8 -10 11 -10 2 0 4 5 4 10 0 6 -5 10 -11 10 -5 0 -7
-4 -4 -10z"/>
<path d="M1690 320 c-9 -6 -10 -10 -3 -10 6 0 15 5 18 10 8 12 4 12 -15 0z"/>
<path d="M2051 300 c0 -33 1 -34 10 -11 6 16 6 28 -1 35 -7 7 -10 -1 -9 -24z"/>
<path d="M2220 320 c0 -5 5 -10 10 -10 6 0 10 5 10 10 0 6 -4 10 -10 10 -5 0
-10 -4 -10 -10z"/>
<path d="M2918 294 c3 -25 7 -32 13 -23 13 21 11 59 -4 59 -9 0 -12 -11 -9
-36z"/>
<path d="M1815 310 c-3 -5 1 -10 9 -10 9 0 16 5 16 10 0 6 -4 10 -9 10 -6 0
-13 -4 -16 -10z"/>
<path d="M4877 303 c-4 -3 -7 -11 -7 -17 0 -6 5 -5 12 2 6 6 9 14 7 17 -3 3
-9 2 -12 -2z"/>
<path d="M502 291 c4 -13 18 -16 19 -4 0 4 -5 9 -11 12 -7 2 -11 -2 -8 -8z"/>
<path d="M1975 289 c-11 -17 1 -21 15 -4 8 9 8 15 2 15 -6 0 -14 -5 -17 -11z"/>
<path d="M2828 272 c-2 -18 -1 -32 3 -32 15 0 19 18 10 41 -8 22 -8 22 -13 -9z"/>
<path d="M1649 273 c-13 -16 -12 -17 4 -4 16 13 21 21 13 21 -2 0 -10 -8 -17
-17z"/>
<path d="M2160 271 c0 -23 -15 -28 -23 -8 -3 7 -6 5 -6 -5 -1 -25 35 -23 42 2
3 11 1 23 -4 26 -5 3 -9 -4 -9 -15z"/>
<path d="M2881 274 c0 -11 3 -14 6 -6 3 7 2 16 -1 19 -3 4 -6 -2 -5 -13z"/>
<path d="M3235 279 c-11 -17 1 -21 15 -4 8 9 8 15 2 15 -6 0 -14 -5 -17 -11z"/>
<path d="M2068 259 c-12 -13 -14 -19 -5 -19 7 0 18 9 25 20 15 25 3 25 -20 -1z"/>
<path d="M3465 271 c3 -6 -4 -15 -17 -20 -19 -8 -15 -10 25 -10 26 -1 47 1 47
4 0 2 -14 12 -31 21 -17 8 -28 11 -24 5z"/>
<path d="M2000 255 c-11 -13 -10 -15 6 -12 20 3 31 20 16 25 -5 1 -15 -4 -22
-13z"/>
<path d="M2225 260 c3 -5 8 -10 11 -10 2 0 4 5 4 10 0 6 -5 10 -11 10 -5 0 -7
-4 -4 -10z"/>
<path d="M530 248 c0 -5 206 -8 457 -8 251 0 454 3 451 6 -9 8 -908 10 -908 2z"/>
<path d="M1620 248 c0 -4 24 -7 53 -7 54 1 49 5 -15 11 -21 2 -38 0 -38 -4z"/>
<path d="M1800 250 c-13 -8 -12 -10 3 -10 9 0 17 5 17 10 0 12 -1 12 -20 0z"/>
<path d="M1837 249 c7 -7 15 -10 18 -7 3 3 -2 9 -12 12 -14 6 -15 5 -6 -5z"/>
<path d="M1925 250 c-3 -5 1 -10 9 -10 9 0 16 5 16 10 0 6 -4 10 -9 10 -6 0
-13 -4 -16 -10z"/>
<path d="M2960 250 c0 -5 5 -10 11 -10 5 0 7 5 4 10 -3 6 -8 10 -11 10 -2 0
-4 -4 -4 -10z"/>
<path d="M345 239 c-3 -4 2 -6 10 -5 21 3 28 13 10 13 -9 0 -18 -4 -20 -8z"/>
<path d="M418 243 c6 -2 18 -2 25 0 6 3 1 5 -13 5 -14 0 -19 -2 -12 -5z"/>
<path d="M473 243 c9 -2 25 -2 35 0 9 3 1 5 -18 5 -19 0 -27 -2 -17 -5z"/>
<path d="M1578 243 c7 -3 16 -2 19 1 4 3 -2 6 -13 5 -11 0 -14 -3 -6 -6z"/>
<path d="M3188 243 c7 -3 16 -2 19 1 4 3 -2 6 -13 5 -11 0 -14 -3 -6 -6z"/>
<path d="M3268 243 c7 -3 16 -2 19 1 4 3 -2 6 -13 5 -11 0 -14 -3 -6 -6z"/>
<path d="M4640 240 c0 -5 5 -10 10 -10 6 0 10 5 10 10 0 6 -4 10 -10 10 -5 0
-10 -4 -10 -10z"/>
<path d="M4687 238 c6 -11 61 -10 67 1 3 5 -12 8 -33 7 -21 0 -37 -4 -34 -8z"/>
<path d="M4815 240 c-3 -5 -2 -10 4 -10 5 0 13 5 16 10 3 6 2 10 -4 10 -5 0
-13 -4 -16 -10z"/>
<path d="M4778 233 c7 -3 16 -2 19 1 4 3 -2 6 -13 5 -11 0 -14 -3 -6 -6z"/>
</g>
</svg>
