<?xml version="1.0" standalone="no"?>
<!DOCTYPE svg PUBLIC "-//W3C//DTD SVG 20010904//EN"
 "http://www.w3.org/TR/2001/REC-SVG-20010904/DTD/svg10.dtd">
<svg version="1.0" xmlns="http://www.w3.org/2000/svg"
 width="512.000000pt" height="768.000000pt" viewBox="0 0 512.000000 768.000000"
 preserveAspectRatio="xMidYMid meet">
<metadata>
Created by potrace 1.16, written by Peter Selinger 2001-2019
</metadata>
<g transform="translate(0.000000,768.000000) scale(0.100000,-0.100000)"
fill="#000000" stroke="none">
<path d="M140 7673 c0 -5 0 -228 0 -498 1 -269 0 -508 0 -530 -5 -134 -4 -195
1 -195 8 0 3 -215 -6 -230 -5 -8 -4 -11 2 -7 7 5 10 -12 9 -48 0 -30 -5 -55
-11 -55 -7 0 -7 -3 0 -8 14 -10 14 -95 1 -104 -8 -5 -7 -8 1 -8 8 0 11 -39 11
-132 1 -160 1 -230 2 -323 0 -38 1 -77 1 -85 0 -8 0 -94 0 -190 0 -96 0 -195
1 -220 0 -25 -1 -93 -3 -153 -2 -73 1 -111 9 -119 9 -9 12 48 12 255 0 171 4
267 10 267 6 0 10 5 10 11 0 5 -4 8 -8 5 -5 -3 -9 13 -10 36 -1 24 3 45 10 50
10 6 10 8 1 8 -16 0 -17 36 -3 45 8 5 8 11 1 19 -7 9 -7 17 2 26 9 10 9 11 -1
6 -8 -5 -12 0 -12 14 0 14 4 19 13 14 9 -6 9 -4 1 7 -11 15 -11 41 0 77 5 14
3 22 -5 22 -9 0 -8 4 1 15 10 12 10 15 -1 15 -9 0 -10 3 -4 8 12 9 16 74 3 66
-4 -3 -3 6 3 20 10 20 9 29 -2 42 -11 13 -11 18 -2 21 16 6 17 39 2 49 -8 4
-7 9 2 14 10 7 10 12 1 22 -9 11 -9 17 1 27 9 9 9 14 -3 21 -10 7 -11 10 -2
10 6 0 12 7 12 16 0 8 -5 12 -10 9 -6 -3 -10 -1 -10 4 0 6 5 11 10 11 6 0 10
7 10 15 0 8 -7 15 -15 15 -8 0 -15 5 -15 11 0 6 6 9 13 6 17 -6 19 22 3 42 -8
11 -8 13 0 8 7 -4 11 5 12 24 0 20 -3 27 -11 22 -8 -5 -8 -2 1 9 9 11 13 95
16 316 4 275 3 301 -12 305 -15 4 -15 5 -1 6 15 1 17 41 18 454 1 323 -2 448
-10 437 -8 -11 -12 -12 -16 -2 -5 13 -33 17 -33 5z m45 -33 c3 -5 1 -10 -4
-10 -6 0 -11 5 -11 10 0 6 2 10 4 10 3 0 8 -4 11 -10z m-8 -62 c-3 -8 -6 -5
-6 6 -1 11 2 17 5 13 3 -3 4 -12 1 -19z m0 -1000 c-3 -8 -6 -5 -6 6 -1 11 2
17 5 13 3 -3 4 -12 1 -19z m3 -53 c0 -8 -4 -15 -10 -15 -5 0 -7 7 -4 15 4 8 8
15 10 15 2 0 4 -7 4 -15z"/>
<path d="M260 6745 c1 -599 4 -936 11 -940 5 -4 6 -12 2 -18 -13 -20 -14 -49
-2 -41 8 5 8 1 0 -14 -14 -25 -14 -43 -1 -22 8 12 10 10 10 -8 0 -13 -4 -21
-8 -18 -4 2 -9 -5 -9 -17 -2 -17 0 -19 7 -7 7 12 10 9 10 -12 0 -16 -4 -28
-10 -28 -5 0 -10 -8 -10 -17 0 -15 2 -16 10 -3 8 12 10 11 10 -7 0 -13 -4 -23
-10 -23 -5 0 -10 -5 -10 -11 0 -5 4 -7 10 -4 5 3 10 -3 10 -15 0 -12 -4 -18
-10 -15 -5 3 -10 -3 -10 -14 0 -12 4 -21 8 -21 12 0 13 -68 2 -75 -6 -3 -10
-11 -10 -16 0 -6 4 -7 10 -4 6 4 10 -7 10 -25 0 -18 -4 -29 -10 -25 -5 3 -10
2 -10 -4 0 -5 4 -12 9 -15 7 -5 8 -41 1 -41 -7 0 -5 -57 2 -61 13 -8 10 -102
-4 -107 -10 -4 -9 -6 1 -6 11 -1 11 -4 0 -18 -8 -9 -9 -14 -3 -10 13 7 13 -82
0 -102 -6 -10 -6 -12 2 -7 15 9 16 -19 1 -46 -6 -11 -7 -18 -2 -15 4 3 8 -42
9 -100 0 -58 -3 -97 -7 -87 -5 12 -6 7 -5 -17 2 -20 6 -41 9 -46 4 -6 4 -21 1
-34 -3 -13 -5 -58 -4 -99 1 -41 2 -96 2 -121 1 -25 -2 -51 -6 -57 -4 -7 -4
-12 1 -12 4 0 7 -271 6 -602 -1 -630 7 -695 32 -253 2 33 6 73 9 90 3 16 8
140 12 275 6 269 12 422 17 488 2 23 0 42 -5 42 -5 0 -5 8 0 18 13 24 13 92 1
92 -6 0 -7 6 -2 13 11 18 13 37 2 37 -5 0 -4 11 1 25 5 14 6 25 2 25 -7 0 -10
97 -12 525 -1 192 -4 273 -13 284 -9 12 -9 13 1 7 6 -4 12 -3 12 3 0 5 -4 13
-10 16 -13 8 -13 55 0 55 14 0 12 37 -2 43 -10 4 -9 8 2 16 12 9 13 14 3 31
-15 24 -17 54 -3 45 14 -9 12 39 -2 53 -9 9 -9 12 0 12 7 0 12 13 12 30 0 17
-4 30 -10 30 -5 0 -10 5 -10 11 0 5 4 8 9 4 6 -3 10 375 10 960 l1 965 -35 0
-35 0 0 -935z"/>
<path d="M2549 7668 c-1 -7 -3 -33 -4 -58 -2 -25 -4 -48 -4 -52 -1 -5 -8 -8
-16 -8 -25 0 -17 -17 11 -24 20 -5 23 -10 15 -20 -8 -10 -11 -135 -9 -434 l3
-419 -150 -7 c-82 -4 -199 -12 -260 -18 -60 -6 -123 -12 -140 -12 -16 -1 -34
-5 -38 -11 -5 -6 -7 -4 -5 4 2 8 12 15 22 17 10 1 20 4 22 6 2 2 33 67 69 143
61 129 65 140 49 152 -32 23 -45 14 -76 -54 -84 -186 -128 -274 -140 -277 -7
-3 -30 -7 -51 -11 -44 -7 -44 -7 -106 -110 -26 -44 -72 -118 -101 -165 -91
-146 -101 -166 -99 -207 0 -21 -2 -64 -6 -95 -4 -31 -4 -65 -1 -75 7 -17 8
-17 22 2 11 14 14 41 13 88 -1 41 2 72 9 79 7 7 12 23 12 36 0 13 14 43 30 67
17 24 30 46 30 49 0 4 21 38 47 76 34 52 49 67 56 58 6 -9 7 -8 3 5 -7 23 11
60 26 51 7 -5 8 -2 4 5 -5 7 0 21 9 31 9 10 14 24 10 29 -3 6 6 16 22 22 15 6
41 18 56 26 16 8 30 13 33 11 2 -3 -9 -23 -26 -46 -16 -23 -30 -46 -30 -52 0
-5 -4 -10 -10 -10 -5 0 -10 -5 -10 -11 0 -6 -11 -25 -25 -43 -14 -18 -25 -46
-26 -62 0 -22 -2 -25 -7 -11 -6 14 -13 7 -35 -35 -16 -29 -37 -68 -48 -87 -11
-18 -18 -38 -16 -45 4 -11 27 26 48 77 6 15 15 27 20 27 5 0 14 10 19 23 6 16
9 17 9 5 1 -9 -6 -23 -14 -32 -8 -8 -15 -21 -15 -28 0 -7 -6 -21 -14 -30 -20
-27 -8 -78 18 -79 124 -4 306 16 306 33 0 10 -255 2 -292 -8 -10 -3 -18 0 -18
5 0 18 183 367 202 386 2 3 74 14 159 25 85 11 164 22 176 26 21 6 22 5 10
-27 -7 -19 -15 -37 -20 -40 -4 -3 -6 -16 -6 -30 1 -13 -8 -46 -19 -72 -12 -26
-17 -45 -12 -42 6 4 -1 -20 -16 -52 -14 -32 -28 -71 -31 -88 -3 -16 -8 -32
-13 -35 -10 -7 -5 -38 9 -54 9 -10 90 -13 378 -13 278 0 368 -3 371 -12 3 -9
7 -9 19 1 12 10 17 9 24 -5 6 -9 15 -17 20 -17 6 0 8 4 5 9 -8 12 23 23 37 14
23 -14 68 -12 95 5 24 14 28 25 31 67 1 28 6 55 11 60 4 6 9 30 11 55 1 25 6
52 10 60 7 15 18 109 19 163 0 21 5 27 23 27 37 0 64 -25 65 -62 1 -35 31
-137 56 -191 16 -35 41 -103 57 -154 10 -34 25 -42 86 -47 28 -3 41 -10 50
-27 16 -29 17 -115 2 -124 -11 -7 -279 -7 -339 0 -40 5 -1276 5 -1330 0 -19
-2 -77 -4 -128 -6 -71 -2 -89 -5 -75 -13 23 -14 1757 -15 1886 -2 l87 9 0 59
c0 37 -4 57 -10 53 -5 -3 -10 1 -10 9 0 9 6 15 13 14 7 -2 13 9 15 25 4 29
-17 67 -128 237 -27 41 -67 107 -90 147 -35 62 -46 74 -78 83 -20 5 -46 10
-57 10 -11 0 -26 4 -34 9 -8 5 -55 87 -105 182 -50 95 -96 174 -101 176 -6 2
-18 -2 -28 -9 -15 -12 -13 -20 26 -98 35 -70 101 -209 116 -243 2 -5 -6 -4
-18 2 -25 14 -234 30 -429 33 l-142 3 -3 515 -2 515 -22 3 c-14 2 -23 -2 -24
-10z m681 -1059 c0 -5 -5 -9 -12 -9 -6 0 -8 3 -5 7 4 3 1 13 -6 22 -11 14 -10
14 6 2 9 -7 17 -17 17 -22z m-390 -46 c1 -16 29 -104 63 -198 58 -158 64 -170
87 -170 33 0 32 1 -45 215 -35 96 -63 176 -61 177 1 1 47 -2 101 -7 55 -6 123
-11 150 -13 l50 -2 -3 -45 c-2 -25 -14 -101 -28 -170 -13 -69 -24 -137 -24
-151 l0 -26 -465 1 c-256 0 -465 3 -465 7 0 3 4 9 8 15 10 10 128 325 138 367
l6 27 244 0 244 0 0 -27z m528 -34 c19 -7 35 -22 43 -42 15 -35 155 -262 196
-315 14 -18 22 -36 19 -39 -3 -3 -25 0 -50 6 -25 6 -63 11 -85 11 -32 0 -41 4
-41 18 0 9 -21 71 -46 137 -26 66 -50 138 -55 160 -6 22 -12 48 -15 58 -6 20
-6 20 34 6z"/>
<path d="M2465 6551 c-3 -5 -2 -12 3 -15 5 -3 9 1 9 9 0 17 -3 19 -12 6z"/>
<path d="M2558 6213 c7 -3 16 -2 19 1 4 3 -2 6 -13 5 -11 0 -14 -3 -6 -6z"/>
<path d="M359 7663 c-4 -45 7 -212 14 -220 3 -3 2 -16 -3 -29 -7 -16 -6 -24 1
-24 8 0 8 -4 0 -14 -13 -16 -11 -37 4 -48 7 -5 7 -8 0 -8 -10 0 -11 -468 -1
-532 3 -17 0 -28 -7 -28 -8 0 -9 -3 -1 -8 11 -7 12 -58 1 -69 -4 -3 -2 -12 4
-20 9 -10 8 -13 0 -13 -7 0 -9 -5 -5 -11 3 -6 0 -15 -7 -20 -11 -7 -10 -9 4
-9 19 0 24 -26 5 -32 -14 -5 -19 -116 -6 -125 6 -3 8 15 7 41 -2 25 0 49 4 53
4 4 7 -100 6 -230 -1 -130 -6 -237 -10 -237 -5 0 -8 27 -6 59 2 33 0 58 -4 55
-4 -2 -8 -36 -8 -75 0 -58 3 -70 14 -65 11 4 15 -2 15 -21 0 -25 -1 -26 -13
-8 -12 16 -14 12 -14 -38 -1 -43 3 -57 13 -57 8 0 14 -10 14 -25 0 -31 -8 -32
-20 -2 -8 20 -9 19 -9 -12 -1 -23 3 -32 12 -28 8 3 13 -3 14 -17 0 -11 -1 -15
-4 -8 -7 19 -23 14 -23 -8 0 -11 6 -19 12 -18 20 4 21 -42 2 -63 -16 -18 -16
-19 0 -19 16 0 16 -1 2 -16 -19 -18 -21 -40 -5 -50 7 -4 9 0 5 14 -4 11 -3 23
2 26 5 3 8 -9 7 -25 -1 -17 -8 -35 -16 -40 -12 -7 -7 -12 11 -11 3 0 6 -8 6
-18 0 -10 -4 -16 -8 -14 -4 3 -8 -2 -8 -10 0 -8 5 -18 10 -21 6 -3 10 -12 10
-18 0 -7 -4 -6 -10 3 -8 13 -10 13 -10 -2 0 -9 5 -20 10 -23 7 -4 7 -12 2 -18
-13 -19 -15 -77 -2 -93 10 -11 10 -14 -1 -14 -9 0 -10 -3 -4 -8 6 -4 10 -79
11 -187 2 -461 4 -678 8 -674 4 4 13 243 21 567 2 73 0 130 -3 128 -8 -5 -7
137 2 267 5 66 3 87 -6 87 -9 0 -9 3 -2 8 11 8 12 97 1 108 -10 11 -8 26 2 19
5 -3 9 8 9 24 -1 17 -4 28 -9 26 -4 -3 -6 3 -4 12 12 58 14 83 7 79 -4 -2 -7
20 -7 49 0 29 3 51 8 48 4 -2 7 10 7 27 0 17 -4 29 -9 25 -6 -3 -9 4 -8 15 1
11 5 20 9 20 4 0 8 5 8 11 0 5 -4 7 -10 4 -5 -3 -10 0 -10 9 0 8 6 17 13 19 9
4 9 6 0 6 -7 1 -13 6 -13 12 0 5 4 8 8 5 5 -3 5 17 2 45 -4 32 -3 49 4 49 7 0
7 3 -1 8 -15 9 -13 184 2 194 6 5 7 8 0 8 -10 0 -13 194 -14 898 -1 227 -4
301 -13 296 -8 -5 -9 2 -5 24 4 17 2 34 -3 37 -6 3 -10 3 -11 -2z m18 -105
c-3 -7 -5 -2 -5 12 0 14 2 19 5 13 2 -7 2 -19 0 -25z m3 -1568 c0 -5 -5 -10
-11 -10 -5 0 -7 5 -4 10 3 6 8 10 11 10 2 0 4 -4 4 -10z m-3 -42 c-3 -8 -6 -5
-6 6 -1 11 2 17 5 13 3 -3 4 -12 1 -19z m20 -890 c-3 -8 -6 -5 -6 6 -1 11 2
17 5 13 3 -3 4 -12 1 -19z"/>
<path d="M480 7659 c0 -5 -5 -7 -12 -3 -7 5 -8 3 -3 -6 5 -8 8 -42 8 -77 0
-35 3 -63 8 -63 9 0 13 17 9 35 -1 6 -2 36 -2 68 0 31 -1 57 -4 57 -2 0 -4 -5
-4 -11z"/>
<path d="M2633 7635 c0 -22 2 -30 4 -17 2 12 2 30 0 40 -3 9 -5 -1 -4 -23z"/>
<path d="M2671 7598 c-1 -16 4 -28 9 -28 12 0 12 8 0 35 -8 18 -9 17 -9 -7z"/>
<path d="M2710 7504 c0 -8 5 -12 10 -9 6 3 10 10 10 16 0 5 -4 9 -10 9 -5 0
-10 -7 -10 -16z"/>
<path d="M476 7485 c-3 -9 0 -15 9 -15 16 0 20 16 6 24 -5 3 -11 -1 -15 -9z"/>
<path d="M2745 7479 c5 -27 13 -35 23 -24 4 4 1 10 -6 12 -6 3 -10 9 -7 13 3
5 1 11 -4 15 -6 3 -8 -4 -6 -16z"/>
<path d="M479 7458 c-7 -29 -4 -66 5 -62 12 5 16 64 4 64 -5 0 -8 -1 -9 -2z"/>
<path d="M2633 7385 c0 -27 2 -38 4 -22 2 15 2 37 0 50 -2 12 -4 0 -4 -28z"/>
<path d="M2780 7393 c8 -4 22 -16 32 -27 17 -20 18 -20 11 -1 -8 24 -22 35
-43 34 -13 0 -13 -1 0 -6z"/>
<path d="M470 7360 c0 -5 5 -10 10 -10 6 0 10 5 10 10 0 6 -4 10 -10 10 -5 0
-10 -4 -10 -10z"/>
<path d="M2833 7325 c-12 -13 -7 -25 9 -25 5 0 7 4 4 9 -4 5 -1 11 6 13 7 3 8
7 3 10 -6 3 -15 0 -22 -7z"/>
<path d="M2858 7288 c-11 -16 -14 -29 -8 -33 6 -3 10 2 10 12 1 17 1 17 14 0
9 -12 16 -14 21 -8 3 6 2 11 -4 11 -5 0 -11 10 -13 22 -3 22 -3 22 -20 -4z"/>
<path d="M475 7280 c4 -6 11 -8 16 -5 14 9 11 15 -7 15 -8 0 -12 -5 -9 -10z"/>
<path d="M470 7246 c0 -9 7 -16 16 -16 9 0 14 5 12 12 -6 18 -28 21 -28 4z"/>
<path d="M2871 7224 c0 -11 3 -14 6 -6 3 7 2 16 -1 19 -3 4 -6 -2 -5 -13z"/>
<path d="M2900 7230 c0 -5 5 -10 11 -10 5 0 7 5 4 10 -3 6 -8 10 -11 10 -2 0
-4 -4 -4 -10z"/>
<path d="M476 6612 c0 -693 5 -1000 13 -927 4 28 5 235 4 462 -2 269 1 414 7
418 6 4 7 11 4 17 -4 6 -6 34 -5 62 1 63 1 290 -2 450 -1 69 -6 121 -12 123
-7 2 -10 -204 -9 -605z"/>
<path d="M2920 7198 c0 -10 5 -18 10 -18 6 0 10 -7 10 -15 0 -8 5 -15 10 -15
6 0 10 -7 10 -15 0 -8 5 -15 10 -15 14 0 12 17 -5 37 -8 10 -21 27 -29 38 -14
18 -15 18 -16 3z"/>
<path d="M2910 7158 c0 -9 7 -19 16 -22 15 -6 15 -4 3 11 -7 10 -15 20 -16 22
-2 2 -3 -3 -3 -11z"/>
<path d="M2661 7114 c0 -11 3 -14 6 -6 3 7 2 16 -1 19 -3 4 -6 -2 -5 -13z"/>
<path d="M2951 7094 c0 -11 3 -14 6 -6 3 7 2 16 -1 19 -3 4 -6 -2 -5 -13z"/>
<path d="M2980 7096 c0 -9 5 -16 10 -16 6 0 10 4 10 9 0 6 -4 13 -10 16 -5 3
-10 -1 -10 -9z"/>
<path d="M2965 7061 c-3 -5 -1 -12 5 -16 5 -3 10 1 10 9 0 18 -6 21 -15 7z"/>
<path d="M2494 7011 c4 -5 2 -21 -4 -36 -8 -20 -7 -26 2 -23 16 6 23 68 8 68
-6 0 -9 -4 -6 -9z"/>
<path d="M3005 7000 c3 -5 8 -10 11 -10 2 0 4 5 4 10 0 6 -5 10 -11 10 -5 0
-7 -4 -4 -10z"/>
<path d="M2465 6929 c-4 -6 -5 -13 -2 -16 7 -7 27 6 27 18 0 12 -17 12 -25 -2z"/>
<path d="M2445 6889 c-4 -6 -5 -13 -2 -16 7 -7 27 6 27 18 0 12 -17 12 -25 -2z"/>
<path d="M2487 6883 c-4 -3 -7 -11 -7 -17 0 -6 5 -5 12 2 6 6 9 14 7 17 -3 3
-9 2 -12 -2z"/>
<path d="M2426 6851 c-4 -7 -5 -15 -2 -18 9 -9 19 4 14 18 -4 11 -6 11 -12 0z"/>
<path d="M2400 6799 c-7 -11 -10 -23 -7 -25 2 -2 9 7 15 21 14 30 7 33 -8 4z"/>
<path d="M2371 6744 c0 -11 3 -14 6 -6 3 7 2 16 -1 19 -3 4 -6 -2 -5 -13z"/>
<path d="M2346 6715 c-3 -8 -1 -15 4 -15 6 0 10 7 10 15 0 8 -2 15 -4 15 -2 0
-6 -7 -10 -15z"/>
<path d="M357 6433 c-11 -10 -8 -45 2 -38 6 3 9 14 8 25 -1 23 -1 22 -10 13z"/>
<path d="M350 6350 c0 -5 5 -10 10 -10 6 0 10 5 10 10 0 6 -4 10 -10 10 -5 0
-10 -4 -10 -10z"/>
<path d="M352 6301 c1 -17 5 -31 9 -31 10 0 8 50 -2 56 -5 3 -8 -8 -7 -25z"/>
<path d="M1807 6230 c-8 -22 -13 -40 -11 -40 7 0 36 71 31 76 -2 2 -11 -14
-20 -36z"/>
<path d="M350 6236 c0 -15 4 -25 9 -22 10 7 9 31 -2 42 -4 4 -7 -5 -7 -20z"/>
<path d="M401 6244 c0 -11 3 -14 6 -6 3 7 2 16 -1 19 -3 4 -6 -2 -5 -13z"/>
<path d="M2040 6200 c0 -5 5 -10 10 -10 6 0 10 5 10 10 0 6 -4 10 -10 10 -5 0
-10 -4 -10 -10z"/>
<path d="M1650 6131 c0 -25 6 -27 13 -6 4 8 2 17 -3 20 -6 4 -10 -3 -10 -14z"/>
<path d="M1612 6118 c2 -6 10 -14 16 -16 7 -2 10 2 6 12 -7 18 -28 22 -22 4z"/>
<path d="M1617 6077 c-9 -7 -16 -29 -17 -52 -4 -79 -2 -82 31 -83 19 0 29 4
26 11 -3 7 -8 11 -13 10 -12 -2 -14 101 -2 108 7 4 7 9 1 12 -6 4 -17 1 -26
-6z"/>
<path d="M3579 5921 c-63 -20 -864 -32 -1351 -21 -265 6 -496 9 -513 7 -16 -2
-47 1 -69 5 -69 15 -138 -24 -88 -51 77 -40 928 -76 1472 -61 418 12 634 37
647 75 10 33 -50 60 -98 46z m-1829 -35 c19 -2 82 -7 140 -11 58 -3 121 -8
140 -11 62 -10 1172 -13 1189 -4 9 4 64 10 121 12 58 1 107 6 110 10 8 10 150
17 150 7 0 -14 -58 -22 -235 -34 -33 -3 -87 -7 -120 -10 -33 -2 -276 -7 -540
-11 -383 -4 -529 -2 -724 10 -221 15 -270 19 -336 31 -11 2 -24 4 -30 4 -5 1
-4 5 3 9 12 8 49 7 132 -2z"/>
<path d="M357 5793 c-4 -3 -7 -13 -7 -22 1 -13 3 -13 11 2 11 19 8 33 -4 20z"/>
<path d="M3295 5770 c3 -5 8 -10 11 -10 2 0 4 5 4 10 0 6 -5 10 -11 10 -5 0
-7 -4 -4 -10z"/>
<path d="M2562 5745 c-1 -14 3 -25 8 -25 5 0 9 9 7 20 -5 30 -12 32 -15 5z"/>
<path d="M2592 5735 c0 -16 2 -22 5 -12 2 9 2 23 0 30 -3 6 -5 -1 -5 -18z"/>
<path d="M2535 5730 c3 -5 1 -10 -4 -10 -6 0 -11 -12 -11 -26 0 -14 4 -23 10
-19 6 3 10 0 10 -7 0 -10 2 -10 9 1 6 9 10 10 16 2 4 -7 2 -18 -5 -26 -7 -9
-8 -15 0 -20 13 -8 19 11 17 52 -2 29 -17 49 -17 22 0 -5 -4 -8 -9 -5 -5 3 -7
15 -4 26 3 12 0 20 -6 20 -7 0 -9 -4 -6 -10z"/>
<path d="M2587 5651 c6 -44 -13 -59 -44 -35 -10 9 -12 13 -6 9 9 -4 11 -1 7 9
-10 27 -21 17 -21 -19 0 -30 3 -34 21 -31 19 3 21 0 17 -46 -2 -34 -6 -46 -12
-37 -4 8 -6 26 -4 42 4 19 1 27 -9 27 -13 0 -15 -94 -16 -702 -1 -387 -1 -732
0 -768 1 -36 2 -189 2 -340 0 -198 3 -277 11 -282 9 -6 9 -8 0 -8 -8 0 -13
-14 -13 -38 0 -21 6 -44 13 -51 8 -9 8 -12 0 -7 -9 5 -11 -55 -11 -243 l1
-249 51 1 c28 0 40 2 26 4 -34 6 -50 23 -22 23 14 0 22 6 22 18 -1 9 1 559 2
1222 3 1311 2 1540 -12 1540 -4 0 -6 -17 -3 -39z m0 -91 c1 -11 -2 -20 -8 -20
-10 0 -12 23 -2 33 9 9 9 10 10 -13z m-28 -232 c0 -84 -3 -145 -7 -136 -4 10
-7 70 -6 135 0 72 -4 121 -10 125 -7 5 -6 8 2 8 7 0 10 5 7 10 -3 6 -1 10 4
10 7 0 11 -51 10 -152z m31 118 c0 -3 -4 -8 -10 -11 -5 -3 -10 -1 -10 4 0 6 5
11 10 11 6 0 10 -2 10 -4z m-5 -106 c3 -5 1 -10 -4 -10 -6 0 -11 5 -11 10 0 6
2 10 4 10 3 0 8 -4 11 -10z m2 -122 c-3 -8 -6 -5 -6 6 -1 11 2 17 5 13 3 -3 4
-12 1 -19z m-29 -115 c-1 -50 1 -67 11 -65 7 1 10 -2 6 -8 -3 -6 -11 -8 -16
-5 -13 9 -11 -9 3 -23 9 -9 9 -15 1 -23 -14 -14 -5 -42 10 -32 6 3 7 1 3 -5
-4 -6 -13 -9 -21 -5 -17 6 -20 43 -4 43 8 0 8 4 2 13 -6 6 -9 48 -8 92 3 88 3
85 10 85 2 0 4 -30 3 -67z m3 -187 c5 3 9 0 9 -5 0 -6 -4 -11 -9 -11 -5 0 -12
-12 -14 -27 -2 -17 -4 -11 -5 17 0 25 2 39 5 32 2 -6 9 -10 14 -6z m2 -84 c-8
-2 -12 -10 -9 -18 3 -8 1 -14 -4 -14 -13 0 -13 11 3 43 10 22 13 23 18 9 4
-10 1 -18 -8 -20z m9 -51 c-26 -22 -29 -36 -6 -27 15 6 15 4 3 -10 -14 -17
-20 -64 -9 -64 3 0 10 3 16 8 5 4 1 -1 -10 -11 -17 -16 -18 -19 -3 -30 13 -9
14 -16 6 -27 -9 -13 -10 -12 -5 3 3 9 1 17 -4 17 -6 0 -10 -12 -10 -26 0 -19
4 -25 14 -21 10 4 13 1 9 -9 -3 -7 -9 -14 -14 -14 -14 0 -11 -38 4 -44 10 -5
10 -7 0 -12 -7 -3 -13 -10 -13 -15 0 -6 5 -7 10 -4 6 3 10 1 10 -4 0 -6 -5
-11 -10 -11 -16 0 -7 -34 10 -42 12 -5 12 -7 -2 -7 -22 -1 -24 -31 -3 -31 9 0
12 -6 8 -16 -5 -13 -7 -13 -14 -2 -6 9 -9 6 -9 -11 0 -13 -3 -22 -6 -19 -10
11 -7 433 4 433 6 0 14 3 18 8 4 4 12 7 17 7 6 0 0 -8 -11 -19z m8 -425 c0 -3
-4 -8 -10 -11 -5 -3 -10 -1 -10 4 0 6 5 11 10 11 6 0 10 -2 10 -4z m-16 -22
c9 -3 16 -14 16 -23 0 -14 -2 -14 -10 -1 -11 18 -12 14 -12 -65 -1 -33 -3 -48
-5 -32 -2 15 -9 27 -14 27 -6 0 -8 4 -5 9 4 5 7 28 8 50 1 23 2 41 4 41 1 0 9
-3 18 -6z m-1 -174 c3 -11 1 -18 -3 -15 -5 3 -11 -1 -13 -7 -3 -7 -5 -1 -4 15
2 32 12 36 20 7z m27 -40 c0 -5 -5 -10 -11 -10 -5 0 -7 5 -4 10 3 6 8 10 11
10 2 0 4 -4 4 -10z m0 -1032 c0 -6 -6 -5 -15 2 -8 7 -15 14 -15 16 0 2 7 1 15
-2 8 -4 15 -11 15 -16z m-10 -38 c-6 -11 -12 -20 -14 -20 -2 0 -2 9 1 20 3 11
9 20 15 20 5 0 4 -9 -2 -20z m10 -51 c0 -5 -8 -9 -17 -8 -11 0 -13 3 -5 6 6 2
9 10 6 15 -4 7 -2 8 4 4 7 -4 12 -11 12 -17z m-4 -55 c2 -34 -20 -26 -24 9 -2
19 1 25 10 22 7 -3 14 -17 14 -31z"/>
<path d="M481 5614 c0 -11 3 -14 6 -6 3 7 2 16 -1 19 -3 4 -6 -2 -5 -13z"/>
<path d="M491 5514 c0 -11 3 -14 6 -6 3 7 2 16 -1 19 -3 4 -6 -2 -5 -13z"/>
<path d="M510 5484 c0 -8 5 -12 10 -9 6 4 8 11 5 16 -9 14 -15 11 -15 -7z"/>
<path d="M321 5454 c0 -11 3 -14 6 -6 3 7 2 16 -1 19 -3 4 -6 -2 -5 -13z"/>
<path d="M501 5374 c0 -11 3 -14 6 -6 3 7 2 16 -1 19 -3 4 -6 -2 -5 -13z"/>
<path d="M512 5338 c-6 -22 -5 -36 2 -40 7 -5 7 -8 -2 -8 -7 0 -10 -5 -7 -11
11 -16 16 -5 20 45 4 54 -1 59 -13 14z"/>
<path d="M503 5245 c0 -8 6 -15 14 -15 7 0 13 7 13 15 0 8 -6 15 -13 15 -8 0
-14 -7 -14 -15z"/>
<path d="M506 5118 c1 -57 4 -291 6 -520 1 -230 6 -418 10 -418 5 0 8 12 8 26
0 14 7 32 15 40 8 9 15 20 15 27 0 6 -6 3 -13 -7 -11 -15 -13 -6 -14 68 0 48
3 89 8 92 5 3 9 11 9 17 0 7 -4 6 -10 -3 -10 -17 -6 74 5 103 4 10 3 17 -4 17
-6 0 -11 9 -11 21 0 12 4 17 11 13 8 -4 9 1 3 17 -4 13 -8 113 -8 222 0 108
-2 197 -5 197 -11 0 -11 69 0 75 7 5 6 11 -1 20 -6 8 -10 19 -9 27 4 29 -1 68
-9 68 -5 0 -7 -46 -6 -102z"/>
<path d="M261 5194 c0 -11 3 -14 6 -6 3 7 2 16 -1 19 -3 4 -6 -2 -5 -13z"/>
<path d="M4488 4993 c7 -3 16 -2 19 1 4 3 -2 6 -13 5 -11 0 -14 -3 -6 -6z"/>
<path d="M4460 4970 c0 -5 6 -11 13 -14 9 -3 7 -8 -5 -15 -18 -12 -15 -70 4
-82 6 -4 8 -12 4 -17 -10 -16 4 -62 18 -59 6 1 10 -9 8 -25 -3 -33 20 -38 53
-11 16 12 16 14 3 10 -10 -3 -20 -1 -24 5 -4 6 -3 8 3 5 6 -4 11 4 11 18 0 14
-5 22 -11 18 -6 -3 -7 -1 -3 6 10 15 29 3 22 -15 -3 -7 -1 -16 4 -19 14 -9 21
12 11 37 -5 13 -5 33 0 47 7 18 15 22 35 18 28 -5 58 18 47 36 -5 8 -9 6 -11
-5 -2 -10 -12 -18 -23 -18 -11 0 -17 5 -14 10 4 6 11 8 16 5 5 -4 9 1 9 9 0 9
5 16 10 16 6 0 10 5 10 12 0 9 -3 9 -11 1 -6 -6 -18 -9 -26 -6 -8 3 -19 0 -24
-8 -7 -11 -9 -10 -9 4 0 10 -6 17 -12 16 -35 -4 -50 1 -40 14 8 10 6 13 -8 14
-13 1 -18 -4 -15 -18 2 -10 -1 -19 -6 -19 -5 0 -9 7 -7 16 2 10 -5 18 -14 19
-10 2 -18 0 -18 -5z m120 -70 c0 -5 -4 -10 -10 -10 -5 0 -10 5 -10 10 0 6 5
10 10 10 6 0 10 -4 10 -10z m-60 -80 c0 -5 -2 -10 -4 -10 -3 0 -8 5 -11 10 -3
6 -1 10 4 10 6 0 11 -4 11 -10z"/>
<path d="M4826 4948 c3 -5 -5 -8 -18 -8 -18 0 -20 -2 -8 -10 12 -8 10 -10 -9
-10 -46 0 -11 -13 41 -15 59 -2 77 3 57 16 -10 6 -11 9 -1 9 6 0 12 4 12 9 0
5 -18 11 -39 13 -22 2 -37 0 -35 -4z"/>
<path d="M4916 4944 c-10 -26 -7 -34 12 -33 9 0 12 3 6 5 -7 3 -10 14 -7 24 6
24 -2 27 -11 4z"/>
<path d="M4940 4949 c0 -5 4 -8 9 -5 5 4 12 0 14 -6 3 -8 6 -6 6 5 1 9 -6 17
-14 17 -8 0 -15 -5 -15 -11z"/>
<path d="M4991 4941 c-9 -6 -4 -10 18 -13 20 -3 30 -1 28 6 -5 14 -29 18 -46
7z"/>
<path d="M5056 4942 c-2 -4 9 -8 25 -8 16 -1 29 2 29 7 0 11 -47 12 -54 1z"/>
<path d="M4675 4910 c-3 -6 1 -7 9 -4 18 7 21 14 7 14 -6 0 -13 -4 -16 -10z"/>
<path d="M4794 4888 c-6 -9 16 -22 23 -14 3 3 12 1 20 -5 9 -9 13 -8 13 0 0 6
10 11 22 11 12 0 18 3 15 6 -9 9 -88 11 -93 2z"/>
<path d="M4590 4849 c0 -5 5 -7 10 -4 6 3 10 8 10 11 0 2 -4 4 -10 4 -5 0 -10
-5 -10 -11z"/>
<path d="M4641 4844 c0 -11 3 -14 6 -6 3 7 2 16 -1 19 -3 4 -6 -2 -5 -13z"/>
<path d="M4830 4840 c-13 -8 -12 -10 3 -10 9 0 17 5 17 10 0 12 -1 12 -20 0z"/>
<path d="M4598 4823 c6 -2 18 -2 25 0 6 3 1 5 -13 5 -14 0 -19 -2 -12 -5z"/>
<path d="M4860 4779 c0 -5 5 -7 10 -4 6 3 10 8 10 11 0 2 -4 4 -10 4 -5 0 -10
-5 -10 -11z"/>
<path d="M4487 4773 c-4 -3 -7 -11 -7 -17 0 -6 5 -5 12 2 6 6 9 14 7 17 -3 3
-9 2 -12 -2z"/>
<path d="M155 4480 c2 -149 5 -274 8 -277 4 -3 7 119 7 271 0 152 -4 276 -8
276 -5 0 -8 -122 -7 -270z"/>
<path d="M4480 4725 c0 -8 4 -15 10 -15 5 0 7 7 4 15 -4 8 -8 15 -10 15 -2 0
-4 -7 -4 -15z"/>
<path d="M4513 4706 c3 -8 1 -17 -6 -20 -7 -2 -5 -5 4 -5 17 -1 32 22 22 33
-12 12 -25 6 -20 -8z"/>
<path d="M4945 4710 c-3 -5 -1 -10 4 -10 6 0 11 5 11 10 0 6 -2 10 -4 10 -3 0
-8 -4 -11 -10z"/>
<path d="M4970 4710 c0 -5 5 -10 10 -10 6 0 10 5 10 10 0 6 -4 10 -10 10 -5 0
-10 -4 -10 -10z"/>
<path d="M5000 4708 c0 -11 28 -10 35 1 3 6 -4 9 -15 8 -11 -1 -20 -5 -20 -9z"/>
<path d="M4950 4671 c0 -18 18 -21 30 -6 10 13 9 15 -9 15 -11 0 -21 -4 -21
-9z"/>
<path d="M5010 4672 c0 -5 7 -9 15 -9 8 0 12 4 9 9 -3 4 -9 8 -15 8 -5 0 -9
-4 -9 -8z"/>
<path d="M4510 4660 c0 -5 5 -10 10 -10 6 0 10 5 10 10 0 6 -4 10 -10 10 -5 0
-10 -4 -10 -10z"/>
<path d="M4517 4613 c-6 -10 -6 -65 0 -59 7 6 15 66 9 66 -3 0 -7 -3 -9 -7z"/>
<path d="M192 4570 c0 -14 2 -19 5 -12 2 6 2 18 0 25 -3 6 -5 1 -5 -13z"/>
<path d="M4508 4533 c7 -3 16 -2 19 1 4 3 -2 6 -13 5 -11 0 -14 -3 -6 -6z"/>
<path d="M5111 4524 c0 -11 3 -14 6 -6 3 7 2 16 -1 19 -3 4 -6 -2 -5 -13z"/>
<path d="M5109 4483 c-6 -43 -5 -134 2 -139 5 -3 9 29 9 70 0 42 -2 76 -5 76
-3 0 -5 -3 -6 -7z"/>
<path d="M4508 4443 c7 -3 16 -2 19 1 4 3 -2 6 -13 5 -11 0 -14 -3 -6 -6z"/>
<path d="M4508 4383 c-3 -27 -1 -56 4 -65 6 -13 5 -18 -6 -18 -8 0 -17 7 -19
15 -4 11 -4 10 -3 -2 1 -12 11 -19 31 -20 39 -2 67 6 60 18 -4 5 -1 9 5 9 6 0
8 5 5 11 -5 6 -12 4 -21 -8 -16 -21 -16 -20 -18 30 -1 20 3 37 8 37 5 0 0 9
-12 20 -12 11 -23 20 -26 20 -2 0 -6 -21 -8 -47z"/>
<path d="M543 4390 c1 -11 5 -20 9 -20 3 0 6 9 5 20 -1 11 -5 20 -9 20 -3 0
-6 -9 -5 -20z"/>
<path d="M540 4339 c0 -5 5 -7 10 -4 6 3 10 8 10 11 0 2 -4 4 -10 4 -5 0 -10
-5 -10 -11z"/>
<path d="M4882 4337 c-7 -8 -7 -18 -2 -27 7 -11 10 -12 10 -2 0 7 4 11 9 8 5
-4 8 1 7 9 -3 22 -12 27 -24 12z"/>
<path d="M4576 4272 c-3 -5 1 -9 9 -9 8 0 12 4 9 9 -3 4 -7 8 -9 8 -2 0 -6 -4
-9 -8z"/>
<path d="M4808 4273 c6 -2 18 -2 25 0 6 3 1 5 -13 5 -14 0 -19 -2 -12 -5z"/>
<path d="M540 4215 c0 -8 2 -15 4 -15 2 0 6 7 10 15 3 8 1 15 -4 15 -6 0 -10
-7 -10 -15z"/>
<path d="M153 4075 c-2 -101 0 -115 15 -115 11 0 13 3 6 10 -6 6 -9 52 -6 115
2 58 0 105 -4 105 -5 0 -10 -52 -11 -115z"/>
<path d="M545 4169 c-4 -6 -5 -12 -2 -15 2 -3 7 2 10 11 7 17 1 20 -8 4z"/>
<path d="M2954 4168 c-3 -4 13 -8 35 -8 23 0 41 2 41 4 0 8 -71 12 -76 4z"/>
<path d="M3345 4170 c-3 -5 1 -10 10 -10 9 0 13 5 10 10 -3 6 -8 10 -10 10 -2
0 -7 -4 -10 -10z"/>
<path d="M3865 4170 c-18 -8 -17 -9 8 -9 16 -1 26 3 22 9 -3 6 -7 10 -8 9 -1
0 -11 -4 -22 -9z"/>
<path d="M3910 4168 c0 -5 19 -8 42 -8 23 0 38 3 35 6 -9 10 -77 11 -77 2z"/>
<path d="M4070 4170 c0 -5 11 -9 25 -8 27 3 25 10 -5 15 -11 2 -20 -2 -20 -7z"/>
<path d="M3185 4160 c-3 -6 1 -7 9 -4 18 7 21 14 7 14 -6 0 -13 -4 -16 -10z"/>
<path d="M3290 4160 c0 -13 11 -13 30 0 12 8 11 10 -7 10 -13 0 -23 -4 -23
-10z"/>
<path d="M3398 4163 c6 -2 18 -2 25 0 6 3 1 5 -13 5 -14 0 -19 -2 -12 -5z"/>
<path d="M3458 4163 c7 -3 16 -2 19 1 4 3 -2 6 -13 5 -11 0 -14 -3 -6 -6z"/>
<path d="M3618 4163 c7 -3 16 -2 19 1 4 3 -2 6 -13 5 -11 0 -14 -3 -6 -6z"/>
<path d="M4018 4163 c6 -2 18 -2 25 0 6 3 1 5 -13 5 -14 0 -19 -2 -12 -5z"/>
<path d="M4278 4163 c7 -3 16 -2 19 1 4 3 -2 6 -13 5 -11 0 -14 -3 -6 -6z"/>
<path d="M4388 4163 c6 -2 18 -2 25 0 6 3 1 5 -13 5 -14 0 -19 -2 -12 -5z"/>
<path d="M4430 4150 c0 -5 5 -10 10 -10 6 0 10 5 10 10 0 6 -4 10 -10 10 -5 0
-10 -4 -10 -10z"/>
<path d="M381 4134 c0 -11 3 -14 6 -6 3 7 2 16 -1 19 -3 4 -6 -2 -5 -13z"/>
<path d="M502 4085 c0 -38 3 -65 9 -65 6 0 9 8 8 18 -1 9 0 19 1 22 7 14 5 60
-3 60 -4 0 -6 4 -2 9 3 5 1 12 -3 15 -5 3 -9 -24 -10 -59z"/>
<path d="M540 4120 c6 -11 12 -20 14 -20 2 0 2 9 -1 20 -3 11 -9 20 -15 20 -5
0 -4 -9 2 -20z"/>
<path d="M3148 4123 c7 -3 16 -2 19 1 4 3 -2 6 -13 5 -11 0 -14 -3 -6 -6z"/>
<path d="M1210 4110 c8 -5 20 -10 25 -10 6 0 3 5 -5 10 -8 5 -19 10 -25 10 -5
0 -3 -5 5 -10z"/>
<path d="M540 4081 c0 -5 5 -13 10 -16 6 -3 10 -2 10 4 0 5 -4 13 -10 16 -5 3
-10 2 -10 -4z"/>
<path d="M1470 4086 c0 -2 9 -6 20 -9 11 -3 18 -1 14 4 -5 9 -34 13 -34 5z"/>
<path d="M540 4035 c-7 -9 -8 -15 -2 -15 5 0 12 7 16 15 3 8 4 15 2 15 -2 0
-9 -7 -16 -15z"/>
<path d="M381 4024 c0 -11 3 -14 6 -6 3 7 2 16 -1 19 -3 4 -6 -2 -5 -13z"/>
<path d="M502 3986 c1 -14 6 -22 10 -20 12 7 10 44 -2 44 -5 0 -9 -11 -8 -24z"/>
<path d="M381 3954 c0 -11 3 -14 6 -6 3 7 2 16 -1 19 -3 4 -6 -2 -5 -13z"/>
<path d="M530 3949 c0 -5 5 -7 10 -4 6 3 10 8 10 11 0 2 -4 4 -10 4 -5 0 -10
-5 -10 -11z"/>
<path d="M156 3878 c8 -95 14 -100 14 -10 0 39 -4 74 -10 77 -6 4 -7 -21 -4
-67z"/>
<path d="M511 3924 c0 -11 3 -14 6 -6 3 7 2 16 -1 19 -3 4 -6 -2 -5 -13z"/>
<path d="M375 3820 c3 -5 8 -10 11 -10 2 0 4 5 4 10 0 6 -5 10 -11 10 -5 0 -7
-4 -4 -10z"/>
<path d="M540 3806 c0 -8 4 -17 9 -20 5 -4 7 3 4 14 -6 23 -13 26 -13 6z"/>
<path d="M150 3778 c0 -7 5 -20 10 -28 8 -12 10 -9 10 13 0 15 -4 27 -10 27
-5 0 -10 -6 -10 -12z"/>
<path d="M457 3745 c-4 -8 -2 -17 3 -20 6 -4 10 3 10 14 0 25 -6 27 -13 6z"/>
<path d="M156 3703 c10 -40 14 -41 14 -5 0 18 -5 32 -10 32 -6 0 -8 -11 -4
-27z"/>
<path d="M453 3670 c-1 -11 2 -20 8 -20 5 0 9 9 9 20 0 11 -4 20 -8 20 -4 0
-8 -9 -9 -20z"/>
<path d="M192 3660 c0 -14 2 -19 5 -12 2 6 2 18 0 25 -3 6 -5 1 -5 -13z"/>
<path d="M537 3650 c-3 -11 -1 -20 4 -20 5 0 9 9 9 20 0 11 -2 20 -4 20 -2 0
-6 -9 -9 -20z"/>
<path d="M161 3574 c0 -11 3 -14 6 -6 3 7 2 16 -1 19 -3 4 -6 -2 -5 -13z"/>
<path d="M535 3561 c-3 -5 -2 -12 3 -15 5 -3 9 1 9 9 0 17 -3 19 -12 6z"/>
<path d="M187 3543 c-4 -3 -7 -13 -7 -22 1 -13 3 -13 11 2 11 19 8 33 -4 20z"/>
<path d="M450 3514 c0 -8 5 -12 10 -9 6 4 8 11 5 16 -9 14 -15 11 -15 -7z"/>
<path d="M539 3528 c-5 -15 -4 -50 1 -53 3 -2 7 10 8 26 1 16 0 29 -3 29 -3 0
-5 -1 -6 -2z"/>
<path d="M186 3445 c8 -37 14 -45 14 -19 0 10 -5 26 -10 34 -8 11 -9 7 -4 -15z"/>
<path d="M445 3450 c3 -5 8 -10 11 -10 2 0 4 5 4 10 0 6 -5 10 -11 10 -5 0 -7
-4 -4 -10z"/>
<path d="M535 3451 c-3 -5 -2 -12 3 -15 5 -3 9 1 9 9 0 17 -3 19 -12 6z"/>
<path d="M377 3350 c-3 -11 -1 -20 4 -20 5 0 9 9 9 20 0 11 -2 20 -4 20 -2 0
-6 -9 -9 -20z"/>
<path d="M542 3340 c0 -19 2 -27 5 -17 2 9 2 25 0 35 -3 9 -5 1 -5 -18z"/>
<path d="M184 3340 c0 -13 4 -16 10 -10 7 7 7 13 0 20 -6 6 -10 3 -10 -10z"/>
<path d="M370 3311 c0 -5 8 -15 18 -22 15 -12 16 -12 5 2 -7 9 -10 19 -6 22 3
4 1 7 -5 7 -7 0 -12 -4 -12 -9z"/>
<path d="M542 3275 c0 -16 2 -22 5 -12 2 9 2 23 0 30 -3 6 -5 -1 -5 -18z"/>
<path d="M180 3273 c0 -13 5 -23 10 -23 13 0 13 11 0 30 -8 12 -10 11 -10 -7z"/>
<path d="M182 3220 c0 -14 2 -19 5 -12 2 6 2 18 0 25 -3 6 -5 1 -5 -13z"/>
<path d="M541 3213 c-1 -16 3 -21 14 -17 8 4 15 10 15 16 0 5 -4 7 -9 4 -5 -4
-12 0 -14 6 -3 7 -6 3 -6 -9z"/>
<path d="M382 3170 c0 -19 2 -27 5 -17 2 9 2 25 0 35 -3 9 -5 1 -5 -18z"/>
<path d="M552 3171 c-11 -7 -11 -9 2 -14 10 -4 16 -1 16 8 0 17 -1 17 -18 6z"/>
<path d="M562 3110 c0 -19 2 -27 5 -17 2 9 2 25 0 35 -3 9 -5 1 -5 -18z"/>
<path d="M271 3114 c0 -11 3 -14 6 -6 3 7 2 16 -1 19 -3 4 -6 -2 -5 -13z"/>
<path d="M380 3108 c0 -12 3 -18 7 -14 11 10 12 36 2 36 -5 0 -9 -10 -9 -22z"/>
<path d="M210 3100 c0 -5 5 -10 11 -10 5 0 7 5 4 10 -3 6 -8 10 -11 10 -2 0
-4 -4 -4 -10z"/>
<path d="M179 3085 c-1 -11 -1 -29 -1 -40 7 -134 5 -206 -3 -209 -5 -3 -2 -5
8 -5 16 -1 17 10 16 117 -1 64 -5 126 -9 137 l-9 20 -2 -20z"/>
<path d="M214 3065 c3 -21 16 -31 16 -12 0 9 -4 18 -9 21 -5 4 -8 -1 -7 -9z"/>
<path d="M556 3053 c-6 -14 -5 -15 5 -6 7 7 10 15 7 18 -3 3 -9 -2 -12 -12z"/>
<path d="M385 3049 c-11 -17 1 -21 15 -4 8 9 8 15 2 15 -6 0 -14 -5 -17 -11z"/>
<path d="M211 2868 c0 -88 -3 -163 -6 -166 -3 -3 -5 20 -5 51 0 31 -4 58 -8
61 -7 4 -13 -260 -12 -499 1 -18 3 -67 8 -143 1 -15 6 -21 15 -17 6 4 5 1 -3
-7 -12 -10 -14 -34 -12 -121 3 -74 0 -112 -8 -122 -10 -12 -9 -15 4 -15 9 0
16 -4 16 -10 0 -5 -4 -10 -9 -10 -5 0 -7 -10 -4 -22 4 -19 3 -20 -6 -8 -9 13
-11 13 -11 -2 0 -12 8 -18 21 -18 15 0 19 -4 15 -16 -3 -9 -6 -20 -6 -25 0 -5
-7 -9 -15 -9 -8 0 -15 -5 -15 -11 0 -5 -4 -7 -10 -4 -6 3 -10 1 -10 -5 0 -6
-12 -9 -26 -8 -16 2 -29 -3 -32 -11 -3 -9 0 -11 8 -6 9 6 11 4 5 -5 -6 -10
-11 -9 -21 4 -11 16 -13 16 -19 -3 -3 -12 -11 -21 -16 -21 -19 0 -8 -19 14
-23 12 -2 4 -5 -18 -5 -22 0 -34 2 -27 5 14 5 16 39 3 48 -5 3 -12 1 -15 -4
-4 -5 0 -11 6 -14 10 -4 11 -7 0 -18 -7 -8 -12 -39 -11 -79 0 -36 3 -59 6 -53
5 15 62 41 156 72 37 13 67 27 67 32 0 6 5 7 10 4 6 -3 10 -1 10 5 0 6 4 9 8
6 4 -2 8 4 8 15 0 10 -7 19 -16 20 -10 0 -11 2 -2 6 13 5 17 43 4 43 -5 0 -9
210 -10 468 -2 257 -5 520 -7 585 -3 64 -5 140 -5 167 0 28 -4 50 -9 50 -6 0
-10 -69 -10 -162z m-4 -230 c-2 -13 -4 -5 -4 17 -1 22 1 32 4 23 2 -10 2 -28
0 -40z m0 -270 c-3 -8 -6 -5 -6 6 -1 11 2 17 5 13 3 -3 4 -12 1 -19z m0 -160
c-3 -8 -6 -5 -6 6 -1 11 2 17 5 13 3 -3 4 -12 1 -19z m20 -413 c0 -8 -4 -15
-9 -15 -10 0 -11 14 -1 23 9 10 10 9 10 -8z m-80 -81 c-3 -3 -12 -4 -19 -1 -8
3 -5 6 6 6 11 1 17 -2 13 -5z"/>
<path d="M556 3021 c-4 -7 -5 -15 -2 -18 9 -9 19 4 14 18 -4 11 -6 11 -12 0z"/>
<path d="M400 2961 c0 -11 -4 -22 -9 -25 -4 -3 -6 -17 -3 -31 2 -14 7 -23 10
-21 7 8 15 96 8 96 -3 0 -6 -9 -6 -19z"/>
<path d="M363 2920 c0 -30 2 -43 4 -27 2 15 2 39 0 55 -2 15 -4 2 -4 -28z"/>
<path d="M562 2930 c0 -14 2 -19 5 -12 2 6 2 18 0 25 -3 6 -5 1 -5 -13z"/>
<path d="M386 2855 c-3 -8 -1 -15 4 -15 13 0 22 18 11 24 -5 3 -11 -1 -15 -9z"/>
<path d="M347 2839 c-4 -16 -3 -18 9 -8 16 13 19 29 5 29 -5 0 -11 -9 -14 -21z"/>
<path d="M581 2834 c0 -11 3 -14 6 -6 3 7 2 16 -1 19 -3 4 -6 -2 -5 -13z"/>
<path d="M1597 2840 c-191 -6 -187 -3 -187 -125 0 -119 -12 -114 255 -111 270
4 312 7 235 16 -42 5 -28 7 60 7 83 0 101 -2 65 -7 l-50 -7 47 -1 c26 -1 50 3
53 8 3 6 43 9 88 9 64 -1 74 -3 47 -9 -23 -5 7 -8 87 -8 69 0 120 4 117 9 -8
14 40 11 55 -3 11 -11 12 -10 6 1 -7 12 7 13 86 6 52 -5 102 -8 112 -7 9 1 23
1 30 1 6 0 38 -2 69 -3 31 -2 55 1 52 6 -3 4 -1 8 5 8 5 0 12 -6 14 -12 4 -10
6 -10 6 0 1 6 13 12 29 12 22 0 24 -2 12 -11 -11 -8 -5 -9 24 -4 21 4 480 8
1020 10 540 2 1027 4 1084 5 84 0 102 3 102 15 0 16 -15 17 -225 16 -55 0
-199 0 -320 0 -121 1 -264 0 -317 0 -54 0 -98 3 -98 7 0 4 -10 8 -21 9 -20 2
-21 1 -3 -12 17 -12 16 -13 -9 -8 -16 3 -24 10 -20 17 3 6 0 6 -8 -1 -16 -15
-73 -18 -64 -3 3 6 1 10 -4 10 -6 0 -11 -4 -11 -10 0 -6 -23 -9 -52 -9 -49 2
-51 2 -18 9 l35 7 -43 2 c-27 0 -41 -3 -37 -9 4 -7 -71 -10 -217 -10 -123 0
-301 -2 -396 -3 -96 -1 -176 1 -178 5 -3 5 -39 8 -81 8 -42 0 -74 2 -71 5 7 7
157 12 153 5 -2 -3 35 -6 81 -7 51 -1 82 2 79 8 -4 5 -2 9 4 9 5 0 12 -4 15
-9 3 -5 17 -8 32 -8 18 0 22 2 13 8 -11 7 -11 9 2 9 9 0 18 -3 22 -6 3 -3 39
-7 79 -9 40 -1 62 0 48 2 -14 3 -29 8 -35 13 -5 4 -47 8 -92 8 -45 0 -88 4
-94 8 -8 4 -9 3 -5 -4 5 -8 -1 -12 -18 -12 -14 0 -28 5 -31 10 -3 6 -12 10
-18 10 -7 0 -6 -4 3 -10 12 -7 8 -10 -15 -10 -23 0 -27 3 -15 10 13 8 13 10
-2 10 -9 0 -19 -4 -22 -9 -3 -4 -18 -7 -33 -4 -28 4 -439 5 -765 2 -97 -1
-181 1 -186 4 -5 4 -22 3 -38 -2 -25 -7 -20 -9 36 -15 36 -4 118 -6 183 -5 64
1 120 -1 124 -4 3 -4 -171 -6 -388 -5 -230 1 -348 4 -284 8 117 6 110 11 -18
12 -51 1 -83 6 -92 14 -11 11 -14 11 -18 0 -3 -7 -1 -18 4 -23 6 -6 -6 -10
-31 -11 -30 -2 -40 1 -40 13 0 9 -9 15 -21 15 -15 0 -19 -5 -15 -15 4 -10 -1
-15 -16 -15 -17 0 -18 2 -8 15 11 13 8 15 -14 15 -14 0 -27 3 -27 8 -8 44 -5
51 20 56 14 3 86 7 159 8 99 2 129 6 117 14 -11 9 -7 10 21 9 19 -1 40 -7 47
-14 14 -14 30 -15 22 -1 -3 6 0 10 7 10 7 0 144 1 305 2 192 2 289 0 286 -7
-3 -5 0 -4 8 3 14 13 63 17 55 4 -3 -5 1 -9 9 -9 8 0 12 4 9 9 -3 4 -1 8 4 8
6 0 12 -6 15 -14 6 -16 -7 -15 487 -21 201 -2 370 -5 375 -5 6 0 88 1 183 2
96 2 179 0 185 -4 14 -9 5 -10 -75 -9 -32 0 -58 -3 -58 -7 0 -5 56 -8 125 -8
69 1 125 2 125 4 0 9 -46 18 -51 10 -7 -11 -49 -1 -49 11 0 5 12 6 26 3 21 -4
25 -2 19 9 -8 12 -6 12 8 1 12 -10 49 -13 131 -13 63 1 117 -3 120 -8 3 -5
-32 -7 -82 -6 -49 2 -94 0 -102 -5 -7 -5 33 -8 93 -8 89 -1 106 2 112 16 5 13
8 14 14 3 7 -10 13 -10 29 -2 11 6 27 8 35 5 8 -3 89 -6 179 -7 122 -2 162 -5
161 -14 -2 -7 4 -10 12 -7 8 4 12 10 9 15 -3 5 4 9 15 9 12 0 21 -4 21 -8 0
-7 294 -9 458 -3 l32 1 0 54 0 54 -1682 -1 c-926 -1 -1754 -4 -1841 -7z m2150
-56 c-3 -3 -12 -4 -19 -1 -8 3 -5 6 6 6 11 1 17 -2 13 -5z m56 -1 c-7 -2 -19
-2 -25 0 -7 3 -2 5 12 5 14 0 19 -2 13 -5z m997 -33 c0 -5 -2 -10 -4 -10 -3 0
-8 5 -11 10 -3 6 -1 10 4 10 6 0 11 -4 11 -10z m-3290 -70 c0 -5 -5 -10 -11
-10 -5 0 -7 5 -4 10 3 6 8 10 11 10 2 0 4 -4 4 -10z m1437 -4 c4 -3 -10 -6
-31 -6 -27 0 -35 -3 -30 -12 6 -10 4 -10 -8 0 -12 10 -67 13 -210 14 -106 1
-177 4 -158 8 44 8 429 5 437 -4z m-4 -23 c-7 -2 -19 -2 -25 0 -7 3 -2 5 12 5
14 0 19 -2 13 -5z m-1120 -30 c-13 -2 -33 -2 -45 0 -13 2 -3 4 22 4 25 0 35
-2 23 -4z m570 0 c-7 -2 -21 -2 -30 0 -10 3 -4 5 12 5 17 0 24 -2 18 -5z"/>
<path d="M393 2785 c0 -27 2 -38 4 -22 2 15 2 37 0 50 -2 12 -4 0 -4 -28z"/>
<path d="M355 2810 c-3 -5 -1 -10 4 -10 6 0 11 5 11 10 0 6 -2 10 -4 10 -3 0
-8 -4 -11 -10z"/>
<path d="M350 2779 c0 -5 5 -7 10 -4 6 3 10 8 10 11 0 2 -4 4 -10 4 -5 0 -10
-5 -10 -11z"/>
<path d="M356 2753 c-9 -9 -7 -73 2 -73 5 0 9 6 10 13 0 6 3 22 6 34 5 23 -6
38 -18 26z"/>
<path d="M582 2730 c0 -19 2 -27 5 -17 2 9 2 25 0 35 -3 9 -5 1 -5 -18z"/>
<path d="M2760 2740 c18 -12 30 -13 30 -2 0 4 -10 9 -22 9 -18 2 -20 0 -8 -7z"/>
<path d="M3045 2740 c-19 -8 -19 -9 2 -9 12 -1 25 4 28 9 7 12 -2 12 -30 0z"/>
<path d="M3208 2743 c6 -2 18 -2 25 0 6 3 1 5 -13 5 -14 0 -19 -2 -12 -5z"/>
<path d="M3485 2740 c-19 -8 -19 -9 3 -9 12 -1 22 4 22 9 0 6 -1 10 -2 9 -2 0
-12 -4 -23 -9z"/>
<path d="M3537 2743 c-3 -5 13 -8 34 -8 21 -1 39 3 39 7 0 10 -67 11 -73 1z"/>
<path d="M3640 2740 c-13 -8 -13 -10 2 -10 9 0 20 5 23 10 8 13 -5 13 -25 0z"/>
<path d="M2523 2733 c9 -2 23 -2 30 0 6 3 -1 5 -18 5 -16 0 -22 -2 -12 -5z"/>
<path d="M2988 2733 c6 -2 18 -2 25 0 6 3 1 5 -13 5 -14 0 -19 -2 -12 -5z"/>
<path d="M1860 2708 c0 -4 8 -8 18 -8 10 0 23 -5 29 -11 8 -8 13 -8 17 0 4 6
19 11 34 10 l27 -1 -25 -8 c-18 -6 -2 -8 51 -9 59 -1 76 2 76 13 0 11 -6 12
-25 5 -14 -6 -33 -7 -41 -4 -41 17 -161 26 -161 13z"/>
<path d="M4278 2713 c7 -3 16 -2 19 1 4 3 -2 6 -13 5 -11 0 -14 -3 -6 -6z"/>
<path d="M4448 2713 c7 -3 16 -2 19 1 4 3 -2 6 -13 5 -11 0 -14 -3 -6 -6z"/>
<path d="M3470 2701 c0 -6 10 -11 23 -12 12 0 43 -2 69 -3 26 -1 45 1 42 5 -2
4 -12 8 -22 7 -9 0 -38 3 -64 7 -34 5 -48 4 -48 -4z"/>
<path d="M3614 2701 c6 -9 185 -5 194 4 3 3 -41 5 -97 5 -59 0 -100 -4 -97 -9z"/>
<path d="M3828 2703 c7 -3 16 -2 19 1 4 3 -2 6 -13 5 -11 0 -14 -3 -6 -6z"/>
<path d="M3860 2700 c0 -5 5 -10 10 -10 6 0 10 5 10 10 0 6 -4 10 -10 10 -5 0
-10 -4 -10 -10z"/>
<path d="M3895 2700 c-3 -5 1 -10 9 -10 9 0 16 5 16 10 0 6 -4 10 -9 10 -6 0
-13 -4 -16 -10z"/>
<path d="M380 2689 c0 -5 5 -7 10 -4 6 3 10 8 10 11 0 2 -4 4 -10 4 -5 0 -10
-5 -10 -11z"/>
<path d="M1610 2690 c0 -5 12 -10 26 -10 14 0 23 4 19 10 -3 6 -15 10 -26 10
-10 0 -19 -4 -19 -10z"/>
<path d="M573 2674 c-3 -8 -1 -20 4 -25 5 -5 9 1 9 16 0 29 -4 32 -13 9z"/>
<path d="M4175 2680 c-4 -6 6 -10 24 -8 32 2 33 10 1 15 -10 1 -22 -2 -25 -7z"/>
<path d="M354 2662 c4 -7 3 -12 -2 -12 -5 0 -9 -13 -8 -30 1 -29 10 -39 20
-22 2 4 1 14 -4 22 -5 9 -5 19 1 26 7 8 6 15 -2 20 -8 4 -9 3 -5 -4z"/>
<path d="M383 2655 c0 -8 4 -12 9 -9 5 3 6 10 3 15 -9 13 -12 11 -12 -6z"/>
<path d="M349 2538 c-1 -24 -3 -53 -4 -65 -1 -13 1 -23 5 -23 11 0 17 121 8
127 -5 2 -9 -15 -9 -39z"/>
<path d="M2517 2564 c-3 -3 -3 -12 0 -20 3 -8 0 -21 -7 -29 -7 -8 -8 -15 -3
-15 5 0 7 -14 5 -31 -3 -22 -1 -30 6 -25 7 4 21 2 32 -4 13 -7 20 -7 20 0 0 5
7 10 16 10 14 0 14 -3 4 -15 -8 -9 -8 -15 -2 -15 14 0 18 16 14 56 -3 22 -8
31 -16 27 -6 -4 -5 1 3 11 13 15 13 19 0 27 -10 6 -11 9 -1 9 7 0 11 4 8 8 -6
10 -70 14 -79 6z"/>
<path d="M2027 2438 c2 -5 17 -8 33 -8 16 0 31 3 33 8 3 4 -12 7 -33 7 -21 0
-36 -3 -33 -7z"/>
<path d="M2140 2439 c0 -5 12 -9 27 -9 30 0 27 9 -6 15 -11 2 -21 0 -21 -6z"/>
<path d="M349 2433 c-4 -40 -3 -116 2 -130 4 -10 8 17 10 60 2 42 1 77 -3 77
-5 0 -8 -3 -9 -7z"/>
<path d="M2526 2433 c-11 -11 -6 -23 9 -23 8 0 15 4 15 9 0 13 -16 22 -24 14z"/>
<path d="M1258 2423 c7 -3 16 -2 19 1 4 3 -2 6 -13 5 -11 0 -14 -3 -6 -6z"/>
<path d="M2394 2409 c-3 -5 9 -9 25 -9 17 0 31 2 31 4 0 8 -51 13 -56 5z"/>
<path d="M2560 2405 c0 -9 6 -12 15 -9 8 4 12 10 9 15 -8 14 -24 10 -24 -6z"/>
<path d="M1190 2396 c0 -2 7 -7 16 -10 8 -3 12 -2 9 4 -6 10 -25 14 -25 6z"/>
<path d="M1605 2390 c-3 -5 -1 -10 4 -10 6 0 11 5 11 10 0 6 -2 10 -4 10 -3 0
-8 -4 -11 -10z"/>
<path d="M1670 2389 c-21 -4 1 -7 58 -7 51 1 90 3 87 6 -7 8 -105 8 -145 1z"/>
<path d="M1904 2384 c3 -7 -1 -15 -10 -18 -8 -3 -12 -2 -9 3 3 6 -6 7 -22 2
-16 -4 -77 -7 -136 -6 -60 0 -111 -3 -113 -7 -5 -7 146 -13 251 -10 22 1 90 3
150 5 61 1 116 6 124 11 10 7 12 6 6 -4 -6 -10 -4 -11 6 -4 21 13 49 15 49 4
0 -6 7 -10 15 -10 9 0 12 6 9 15 -4 8 -1 15 5 15 6 0 11 -6 11 -12 0 -10 33
-13 132 -13 123 0 131 -1 135 -20 3 -17 14 -986 14 -1207 -1 -64 8 -83 25 -56
5 7 3 8 -7 3 -12 -7 -12 -6 -1 7 10 13 11 22 2 37 -6 12 -7 21 -2 21 10 0 9
61 -1 78 -5 6 -4 12 1 12 6 0 10 16 9 35 -1 19 -5 35 -9 35 -12 0 -5 24 12 37
13 10 13 12 -2 18 -14 6 -16 11 -7 27 6 11 7 18 1 15 -5 -4 -8 10 -7 33 1 27
9 45 25 58 18 15 20 19 7 19 -10 0 -17 -5 -17 -10 0 -6 -3 -7 -7 -3 -10 10 -4
79 8 91 5 5 9 19 9 31 0 12 6 25 13 27 7 3 5 6 -5 6 -14 1 -18 -7 -18 -31 0
-37 -10 -32 -14 7 -2 16 2 29 10 32 8 3 12 9 9 13 -3 5 2 15 10 23 19 20 19
28 0 21 -8 -4 -15 -12 -15 -19 0 -8 -4 -16 -8 -19 -10 -6 -9 241 1 250 12 13
14 0 8 -61 -7 -71 5 -185 13 -126 0 5 4 13 9 17 11 11 9 26 -3 19 -5 -3 -10 1
-10 9 0 8 5 18 10 21 6 3 10 12 10 18 0 8 -4 7 -9 -2 -6 -10 -9 7 -8 50 1 35
7 67 12 71 6 5 6 8 -2 8 -12 0 -12 17 1 38 4 7 3 18 -2 25 -6 7 -8 35 -5 62 6
59 4 133 -3 158 -3 9 0 17 6 17 6 0 8 5 5 11 -12 19 -13 74 -1 88 8 11 8 13 0
8 -7 -4 -15 1 -20 11 -6 14 -8 12 -14 -13 l-8 -30 -1 27 c-1 29 -21 50 -21 22
0 -12 -3 -14 -12 -6 -17 13 -254 18 -442 9 -54 -2 -92 -1 -85 3 7 5 2 7 -14 7
-14 -1 -25 -4 -25 -7 1 -20 -4 -21 -18 -4 -8 10 -13 14 -10 8z m640 -91 c-10
-40 -14 -41 -14 -5 0 18 5 32 10 32 6 0 8 -11 4 -27z m0 -75 c4 -17 2 -28 -4
-28 -5 0 -10 14 -10 32 0 36 4 35 14 -4z m1 -75 c-6 -36 -6 -37 10 -18 16 20
16 20 6 -2 -6 -12 -11 -58 -11 -102 0 -127 -15 -94 -18 39 -2 85 1 120 9 120
8 0 9 -12 4 -37z"/>
<path d="M2580 2380 c-13 -8 -12 -10 3 -10 9 0 17 5 17 10 0 12 -1 12 -20 0z"/>
<path d="M150 2370 c0 -5 5 -10 11 -10 5 0 7 5 4 10 -3 6 -8 10 -11 10 -2 0
-4 -4 -4 -10z"/>
<path d="M315 2371 c-3 -5 -2 -12 3 -15 5 -3 9 1 9 9 0 17 -3 19 -12 6z"/>
<path d="M1340 2370 c-13 -8 -12 -10 3 -10 9 0 17 5 17 10 0 12 -1 12 -20 0z"/>
<path d="M1420 2370 c-13 -8 -12 -10 3 -10 9 0 17 5 17 10 0 12 -1 12 -20 0z"/>
<path d="M1456 2371 c-4 -5 -2 -12 3 -15 5 -4 12 -2 15 3 4 5 2 12 -3 15 -5 4
-12 2 -15 -3z"/>
<path d="M1278 2363 c7 -3 16 -2 19 1 4 3 -2 6 -13 5 -11 0 -14 -3 -6 -6z"/>
<path d="M1378 2363 c7 -3 16 -2 19 1 4 3 -2 6 -13 5 -11 0 -14 -3 -6 -6z"/>
<path d="M1490 2358 c0 -5 7 -8 15 -8 8 0 15 -6 15 -12 0 -9 3 -9 9 1 6 9 19
12 40 8 24 -5 31 -3 31 9 0 12 -11 14 -55 12 -30 -2 -55 -6 -55 -10z"/>
<path d="M1200 2340 c-9 -6 -10 -10 -3 -10 6 0 15 5 18 10 8 12 4 12 -15 0z"/>
<path d="M1265 2340 c3 -5 8 -10 11 -10 2 0 4 5 4 10 0 6 -5 10 -11 10 -5 0
-7 -4 -4 -10z"/>
<path d="M300 2288 c0 -4 7 -8 15 -8 8 0 15 4 15 8 0 5 -7 9 -15 9 -8 0 -15
-4 -15 -9z"/>
<path d="M310 2244 c0 -8 5 -12 10 -9 6 4 8 11 5 16 -9 14 -15 11 -15 -7z"/>
<path d="M482 2210 c0 -14 2 -19 5 -12 2 6 2 18 0 25 -3 6 -5 1 -5 -13z"/>
<path d="M352 2200 c0 -14 2 -19 5 -12 2 6 2 18 0 25 -3 6 -5 1 -5 -13z"/>
<path d="M461 2190 c1 -24 15 -54 21 -44 4 5 0 20 -8 34 -7 14 -13 18 -13 10z"/>
<path d="M310 2130 c0 -5 5 -10 10 -10 6 0 10 5 10 10 0 6 -4 10 -10 10 -5 0
-10 -4 -10 -10z"/>
<path d="M467 2083 c-3 -27 -5 -78 -6 -115 0 -37 -2 -71 -3 -76 -2 -6 0 -10 5
-11 24 -3 27 0 16 20 -8 15 -8 19 0 15 6 -4 11 -3 11 3 0 5 -6 12 -12 14 -9 4
-10 8 -3 14 6 4 10 24 9 43 -1 19 3 43 7 52 6 11 5 19 -2 24 -6 3 -9 19 -5 35
3 16 2 29 -3 29 -5 0 -11 -21 -14 -47z"/>
<path d="M311 2094 c0 -11 3 -14 6 -6 3 7 2 16 -1 19 -3 4 -6 -2 -5 -13z"/>
<path d="M351 2094 c0 -11 3 -14 6 -6 3 7 2 16 -1 19 -3 4 -6 -2 -5 -13z"/>
<path d="M3128 2071 c-107 -23 -185 -148 -129 -208 12 -13 31 -20 52 -19 29 1
34 5 40 34 9 43 11 45 60 47 22 1 45 8 51 16 8 11 9 10 4 -3 -5 -17 3 -22 22
-15 4 1 6 5 5 10 -2 4 2 7 7 7 6 0 10 -4 10 -9 0 -5 7 -11 15 -15 8 -3 14 0
12 5 -1 7 23 12 65 13 36 1 64 -2 62 -6 -2 -3 1 -10 7 -14 7 -4 9 -3 6 3 -4 6
0 13 7 16 8 3 17 1 20 -6 3 -9 5 -9 5 1 1 6 6 12 12 12 5 0 7 -5 3 -12 -5 -7
-3 -8 7 -3 7 5 62 9 121 10 89 0 108 -3 109 -15 0 -10 2 -11 6 -3 3 9 17 11
43 7 23 -4 40 -2 44 5 4 6 15 11 24 11 15 0 15 -2 2 -11 -12 -9 -11 -10 5 -4
31 10 744 11 738 1 -4 -5 -2 -7 3 -4 5 3 42 9 82 12 55 5 72 3 72 -6 0 -9 3
-8 10 2 5 8 10 10 10 4 0 -8 13 -9 38 -4 21 4 48 3 60 -1 12 -5 22 -5 22 -1 0
5 22 8 49 8 33 -1 46 -4 41 -11 -6 -7 -2 -11 11 -12 11 -1 17 2 14 8 -4 5 8 8
27 7 18 -1 42 2 52 7 15 6 17 5 11 -5 -6 -10 -2 -12 16 -7 13 4 27 7 32 7 4 0
7 14 7 31 0 21 -4 28 -12 23 -10 -6 -10 -4 0 7 6 7 12 20 12 29 0 9 -3 11 -8
5 -4 -5 -19 -10 -34 -10 -20 -1 -28 4 -28 17 0 20 13 18 -220 25 -348 10 -563
11 -535 4 19 -6 -33 -8 -135 -8 l-165 1 125 6 c122 6 120 6 -70 8 -107 1 -350
4 -540 7 -190 2 -362 0 -382 -4z m805 -18 c-13 -2 -33 -2 -45 0 -13 2 -3 4 22
4 25 0 35 -2 23 -4z m54 1 c-3 -3 -12 -4 -19 -1 -8 3 -5 6 6 6 11 1 17 -2 13
-5z m886 -24 c9 0 17 -3 17 -7 0 -5 -56 -9 -125 -10 -69 -2 -125 1 -125 5 0 4
37 9 82 11 46 1 85 5 88 7 2 3 14 3 25 0 11 -3 28 -6 38 -6z m167 -1 c0 -4
-10 -9 -23 -11 -13 -3 -24 0 -24 6 0 6 11 11 24 11 13 0 23 -3 23 -6z m-876
-8 c-6 -6 -87 -1 -94 6 -2 2 19 3 48 2 28 -1 49 -5 46 -8z m466 0 c0 -5 -9 -7
-20 -4 -11 3 -20 7 -20 9 0 2 9 4 20 4 11 0 20 -4 20 -9z m338 2 c-10 -2 -28
-2 -40 0 -13 2 -5 4 17 4 22 1 32 -1 23 -4z m-640 -10 c-10 -2 -28 -2 -40 0
-13 2 -5 4 17 4 22 1 32 -1 23 -4z m-1001 -29 c-3 -3 -12 -4 -19 -1 -8 3 -5 6
6 6 11 1 17 -2 13 -5z m-200 -40 c-3 -3 -12 -4 -19 -1 -8 3 -5 6 6 6 11 1 17
-2 13 -5z"/>
<path d="M5060 2039 c0 -11 30 -12 48 0 9 5 3 8 -17 9 -17 0 -31 -4 -31 -9z"/>
<path d="M160 2010 c0 -5 5 -10 11 -10 5 0 7 5 4 10 -3 6 -8 10 -11 10 -2 0
-4 -4 -4 -10z"/>
<path d="M3970 1913 c0 -8 -14 -13 -35 -13 -21 0 -35 -5 -35 -12 0 -8 -3 -9
-8 -3 -11 16 -34 17 -43 3 -7 -11 -9 -11 -9 0 0 9 -16 12 -60 11 -32 -1 -57
-6 -54 -11 7 -11 -14 -10 -38 3 -15 8 -19 8 -14 0 5 -7 -7 -11 -34 -11 -29 0
-39 4 -34 12 5 8 3 8 -7 2 -16 -10 -149 -12 -143 -2 4 6 -45 4 -53 -1 -7 -5
-114 -3 -119 1 -3 3 -34 0 -69 -7 -36 -6 -65 -8 -65 -3 0 4 14 8 32 8 20 0 28
4 22 9 -14 14 -69 -1 -70 -20 -1 -15 80 -16 937 -15 516 0 937 1 936 2 -1 2
-62 5 -135 8 -73 3 -143 11 -155 16 -21 11 -21 10 -3 -4 18 -14 17 -15 -15
-10 -19 2 -92 5 -162 5 -78 0 -125 4 -122 9 4 6 1 10 -4 10 -6 0 -11 -4 -11
-10 0 -5 -7 -10 -15 -10 -8 0 -15 4 -15 9 0 6 -48 10 -109 10 -60 0 -113 1
-118 2 -34 6 -133 -3 -128 -11 12 -19 -7 -10 -26 13 -10 12 -18 16 -19 10z
m-182 -30 c-10 -2 -26 -2 -35 0 -10 3 -2 5 17 5 19 0 27 -2 18 -5z m559 1 c-3
-3 -12 -4 -19 -1 -8 3 -5 6 6 6 11 1 17 -2 13 -5z"/>
<path d="M5008 1883 c7 -3 16 -2 19 1 4 3 -2 6 -13 5 -11 0 -14 -3 -6 -6z"/>
<path d="M5053 1883 c9 -2 25 -2 35 0 9 3 1 5 -18 5 -19 0 -27 -2 -17 -5z"/>
<path d="M465 1843 c-4 -10 -9 -27 -10 -38 -2 -11 -5 -26 -7 -34 -1 -7 5 -15
15 -16 14 -3 16 1 12 16 -4 11 -1 27 7 36 9 12 9 15 1 9 -8 -4 -13 -1 -13 8 0
9 5 16 10 16 6 0 10 5 10 10 0 16 -17 11 -25 -7z"/>
<path d="M3005 1829 c-4 -6 -4 -29 -1 -52 3 -23 7 -194 8 -379 1 -215 5 -335
11 -331 6 4 7 1 3 -6 -13 -20 -14 -61 -2 -61 7 0 6 -3 -2 -8 -7 -5 -12 -23
-10 -40 1 -17 6 -28 12 -25 5 4 6 -3 2 -18 -4 -13 -7 -30 -7 -36 1 -7 2 -26 3
-43 1 -16 6 -30 11 -30 5 0 4 -7 -4 -16 -7 -9 -9 -18 -3 -22 15 -11 16 -42 2
-60 -10 -12 -10 -14 0 -8 16 9 13 -55 -3 -66 -6 -5 -6 -8 2 -8 9 0 10 -7 3
-26 -14 -35 -14 -34 23 -34 31 0 32 1 32 42 0 24 -4 46 -10 50 -7 5 -7 8 0 8
6 0 9 27 7 66 -1 42 2 72 10 82 8 10 8 13 2 9 -8 -5 -11 8 -11 43 0 27 4 47 9
44 4 -3 2 9 -4 26 -7 23 -7 38 1 56 6 15 7 24 1 24 -6 0 -10 9 -10 20 0 11 4
20 10 20 5 0 9 10 8 23 0 12 0 27 2 32 5 22 -1 35 -17 36 -12 0 -8 5 12 14 25
12 21 21 -7 16 -5 0 -8 9 -7 21 0 13 3 17 6 11 2 -7 9 -13 14 -13 6 0 7 5 3
11 -3 6 0 15 7 20 10 6 11 9 2 9 -7 0 -13 5 -13 11 0 5 5 7 10 4 6 -3 10 1 10
10 0 10 -5 13 -12 9 -7 -5 -8 -3 -3 6 13 21 16 122 4 114 -8 -4 -8 0 -2 12 5
11 8 80 7 154 -2 165 -2 160 -14 160 -7 0 -10 -80 -10 -231 1 -127 -1 -234 -4
-237 -7 -6 -7 5 -6 294 0 122 5 235 10 252 8 30 7 32 -16 32 -14 0 -34 5 -44
10 -13 7 -21 7 -25 -1z m80 -759 c3 -5 1 -10 -4 -10 -6 0 -11 5 -11 10 0 6 2
10 4 10 3 0 8 -4 11 -10z"/>
<path d="M3173 1803 c-7 -3 -13 -11 -13 -18 0 -11 58 -13 333 -10 182 2 430 5
550 5 121 1 217 4 214 6 -3 3 -155 5 -338 5 -246 0 -336 3 -341 12 -6 9 -12 9
-28 -1 -11 -7 -20 -8 -20 -3 0 12 -71 10 -87 -2 -7 -5 -13 -6 -13 -1 0 8 -133
9 -200 2 -14 -1 -30 0 -35 4 -6 3 -16 3 -22 1z"/>
<path d="M3858 1803 c6 -2 18 -2 25 0 6 3 1 5 -13 5 -14 0 -19 -2 -12 -5z"/>
<path d="M3958 1803 c7 -3 16 -2 19 1 4 3 -2 6 -13 5 -11 0 -14 -3 -6 -6z"/>
<path d="M446 1699 c-8 -51 -5 -55 20 -27 10 12 13 18 7 14 -16 -9 -18 20 -3
29 6 4 8 11 5 16 -12 19 -23 8 -29 -32z"/>
<path d="M440 1601 c0 -22 -5 -43 -10 -46 -7 -4 -7 -13 0 -26 6 -11 16 -17 22
-13 7 4 6 9 -3 15 -8 5 -9 9 -3 9 5 0 11 22 11 50 1 28 -3 50 -8 50 -5 0 -9
-18 -9 -39z"/>
<path d="M245 1590 c-2 -3 -3 -15 -1 -25 4 -24 63 -33 63 -10 0 10 -4 12 -12
5 -9 -8 -14 -6 -19 6 -8 22 -9 22 20 18 14 -1 23 0 20 4 -9 8 -66 10 -71 2z"/>
<path d="M2550 1561 c0 -25 6 -27 13 -6 4 8 2 17 -3 20 -6 4 -10 -3 -10 -14z"/>
<path d="M3436 1513 c4 -22 3 -25 -5 -13 -9 13 -11 13 -11 -2 0 -10 -5 -18
-11 -18 -8 0 -7 -5 1 -15 10 -12 10 -19 2 -27 -15 -15 -16 -32 -2 -23 6 3 10
1 10 -4 0 -6 -4 -11 -10 -11 -14 0 -12 -33 3 -49 10 -11 10 -14 0 -18 -8 -3
-13 -24 -13 -54 0 -28 -4 -48 -8 -45 -4 2 -9 -6 -10 -20 -1 -13 2 -23 6 -22
14 4 52 -14 52 -24 0 -7 -5 -6 -14 1 -12 11 -14 5 -13 -38 0 -28 4 -51 8 -51
4 0 7 14 7 30 -1 17 2 33 5 37 4 3 7 -9 8 -28 0 -19 1 -53 2 -76 0 -24 5 -43
9 -43 5 0 7 84 6 188 -3 155 -6 188 -18 194 -13 6 -13 7 0 7 12 1 15 9 11 39
-4 34 -5 35 -12 12 l-7 -25 -1 28 c-1 15 4 27 9 27 6 0 10 16 8 35 -1 19 -6
35 -10 35 -5 0 -6 -12 -2 -27z m-6 -269 c0 -3 -7 -12 -15 -20 -16 -17 -18 -14
-9 10 6 15 24 23 24 10z"/>
<path d="M266 1515 c-3 -8 2 -19 10 -25 11 -10 14 -9 14 4 0 9 5 16 12 16 15
0 1 13 -17 16 -7 1 -16 -4 -19 -11z"/>
<path d="M425 1500 c-3 -4 -2 -16 2 -26 4 -12 3 -15 -5 -10 -8 5 -10 2 -6 -8
3 -9 11 -16 18 -16 7 0 7 -3 1 -8 -12 -8 -16 -52 -5 -52 10 0 19 60 9 65 -4 3
-5 14 -2 25 3 11 9 17 14 14 5 -3 9 -1 9 4 0 13 -28 23 -35 12z"/>
<path d="M256 1472 c-3 -5 -3 -18 0 -30 6 -22 31 -20 31 2 0 8 -7 12 -15 8
-11 -4 -14 -1 -9 11 7 18 2 23 -7 9z"/>
<path d="M295 1360 c3 -5 8 -10 11 -10 2 0 4 5 4 10 0 6 -5 10 -11 10 -5 0 -7
-4 -4 -10z"/>
<path d="M417 1350 c-3 -11 -3 -20 -1 -20 2 0 8 9 14 20 6 11 7 20 2 20 -6 0
-12 -9 -15 -20z"/>
<path d="M2572 1280 c0 -14 2 -19 5 -12 2 6 2 18 0 25 -3 6 -5 1 -5 -13z"/>
<path d="M2571 1224 c0 -11 3 -14 6 -6 3 7 2 16 -1 19 -3 4 -6 -2 -5 -13z"/>
<path d="M3383 1154 c-3 -8 -2 -19 3 -24 5 -5 10 1 10 16 2 27 -4 31 -13 8z"/>
<path d="M3105 1140 c3 -5 8 -10 11 -10 2 0 4 5 4 10 0 6 -5 10 -11 10 -5 0
-7 -4 -4 -10z"/>
<path d="M410 1080 c0 -5 5 -10 11 -10 5 0 7 5 4 10 -3 6 -8 10 -11 10 -2 0
-4 -4 -4 -10z"/>
<path d="M3390 1069 c0 -5 5 -7 10 -4 6 3 10 8 10 11 0 2 -4 4 -10 4 -5 0 -10
-5 -10 -11z"/>
<path d="M2522 1008 c-1 -23 -5 -50 -8 -60 -3 -10 0 -18 6 -18 6 0 8 -4 5 -10
-3 -5 -2 -10 3 -10 15 0 22 26 10 38 -6 6 -7 20 -2 33 11 34 10 62 -2 66 -6 2
-11 -14 -12 -39z"/>
<path d="M3422 1020 c0 -14 2 -19 5 -12 2 6 2 18 0 25 -3 6 -5 1 -5 -13z"/>
<path d="M3408 983 c7 -3 16 -2 19 1 4 3 -2 6 -13 5 -11 0 -14 -3 -6 -6z"/>
<path d="M3445 961 c-1 -16 3 -27 7 -25 10 7 11 54 0 54 -4 0 -7 -13 -7 -29z"/>
<path d="M399 953 c-13 -16 -12 -17 4 -4 9 7 17 15 17 17 0 8 -8 3 -21 -13z"/>
<path d="M401 918 c-13 -20 -12 -22 1 -11 8 7 18 10 22 6 4 -4 4 0 0 10 -8 21
-6 21 -23 -5z"/>
<path d="M3445 910 c3 -5 8 -10 11 -10 2 0 4 5 4 10 0 6 -5 10 -11 10 -5 0 -7
-4 -4 -10z"/>
<path d="M2539 903 c-11 -3 -16 -18 -18 -54 -1 -35 2 -48 10 -44 6 4 8 17 5
29 -3 12 1 34 9 49 7 15 13 26 12 26 -1 -1 -9 -3 -18 -6z"/>
<path d="M3412 875 c3 -3 16 -8 28 -10 12 -2 20 -1 16 2 -4 4 -16 8 -28 10
-12 2 -19 1 -16 -2z"/>
<path d="M3440 840 c0 -5 5 -10 11 -10 5 0 7 5 4 10 -3 6 -8 10 -11 10 -2 0
-4 -4 -4 -10z"/>
<path d="M3440 776 c0 -14 4 -26 8 -26 11 0 12 39 1 45 -5 4 -9 -5 -9 -19z"/>
<path d="M2515 780 c-3 -5 3 -10 15 -10 12 0 18 5 15 10 -3 6 -10 10 -15 10
-5 0 -12 -4 -15 -10z"/>
<path d="M2524 703 c1 -20 7 -38 14 -39 7 -1 9 -1 4 2 -4 2 -6 20 -4 39 2 20
0 35 -6 35 -6 0 -9 -17 -8 -37z"/>
<path d="M3437 723 c-3 -5 -1 -17 4 -28 7 -17 8 -17 8 8 1 27 -4 34 -12 20z"/>
<path d="M2529 648 c-7 -25 -5 -36 6 -31 8 2 11 11 8 19 -5 12 -12 18 -14 12z"/>
<path d="M3436 635 c-3 -9 0 -15 9 -15 16 0 20 16 6 24 -5 3 -11 -1 -15 -9z"/>
<path d="M3401 614 c0 -11 3 -14 6 -6 3 7 2 16 -1 19 -3 4 -6 -2 -5 -13z"/>
<path d="M3441 603 c-1 -6 -4 -20 -7 -30 -5 -17 -5 -17 6 0 6 10 9 23 6 30 -3
9 -5 9 -5 0z"/>
<path d="M1688 573 c6 -2 18 -2 25 0 6 3 1 5 -13 5 -14 0 -19 -2 -12 -5z"/>
<path d="M1793 573 c9 -2 23 -2 30 0 6 3 -1 5 -18 5 -16 0 -22 -2 -12 -5z"/>
<path d="M1873 573 c20 -2 54 -2 75 0 20 2 3 4 -38 4 -41 0 -58 -2 -37 -4z"/>
<path d="M2063 573 c26 -2 67 -2 90 0 23 2 2 3 -48 3 -49 0 -68 -1 -42 -3z"/>
<path d="M2518 569 c-8 -6 1 -9 25 -9 20 0 37 2 37 4 0 9 -50 12 -62 5z"/>
<path d="M2700 570 c0 -5 5 -10 11 -10 5 0 7 5 4 10 -3 6 -8 10 -11 10 -2 0
-4 -4 -4 -10z"/>
<path d="M2730 570 c0 -5 5 -10 11 -10 5 0 7 5 4 10 -3 6 -8 10 -11 10 -2 0
-4 -4 -4 -10z"/>
<path d="M614 407 c-241 -180 -513 -380 -539 -396 -16 -9 22 -11 180 -6 110 4
221 6 247 5 25 0 49 4 52 8 10 17 -88 20 -174 6 -96 -16 -226 -18 -234 -5 -10
15 25 23 119 28 103 5 147 25 50 23 -97 -3 -99 -2 -85 15 7 8 19 15 26 15 8 0
14 5 14 10 0 6 4 10 10 10 10 0 37 20 72 53 10 9 18 14 18 10 0 -4 6 1 13 12
8 10 19 15 25 11 7 -4 12 0 12 10 0 10 3 14 7 11 3 -4 12 1 19 11 7 9 14 12
14 6 0 -13 103 0 134 17 10 6 28 12 39 15 11 2 24 9 29 16 6 10 8 10 8 1 0 -7
5 -13 11 -13 5 0 8 4 4 9 -3 5 0 13 6 17 8 4 9 3 5 -4 -4 -7 -2 -12 3 -12 6 0
11 -9 11 -19 0 -15 -7 -19 -36 -19 -19 0 -38 -3 -42 -7 -4 -4 17 -5 46 -4 28
2 52 1 52 -3 0 -5 6 -8 14 -8 7 0 19 -7 26 -15 7 -8 28 -17 47 -21 49 -9 29
-21 -57 -34 -41 -7 -80 -18 -85 -25 -6 -7 -22 -13 -35 -13 -14 0 -42 -3 -63
-7 -24 -4 -43 -2 -52 5 -11 9 -22 9 -47 0 -18 -7 -53 -16 -78 -19 l-45 -7 40
-18 c43 -18 132 -15 119 5 -3 6 -16 8 -28 5 -11 -3 -28 -1 -36 4 -11 7 -7 10
16 15 16 4 35 8 41 10 7 2 16 -2 21 -10 6 -12 18 -13 72 -4 36 6 72 13 80 16
8 3 26 5 39 4 14 -2 21 1 17 8 -8 13 102 14 144 2 20 -6 14 -9 -32 -14 -31 -4
-94 -16 -140 -27 -45 -10 -102 -20 -125 -22 -24 -1 -43 -6 -43 -11 0 -5 6 -7
14 -4 8 3 22 0 32 -7 17 -13 58 -10 49 3 -5 10 73 28 150 36 71 7 106 15 120
26 6 4 47 9 90 11 l80 3 -60 14 c-33 8 -81 14 -107 15 -27 0 -48 3 -48 8 0 4
3 7 8 5 7 -2 12 6 12 21 0 5 -24 21 -52 37 -92 49 -109 64 -106 93 7 62 161
107 422 124 141 9 281 9 631 -1 248 -7 461 -13 475 -15 31 -3 2 -8 -150 -29
-58 -8 -116 -18 -130 -22 -19 -5 -21 -4 -10 4 8 5 12 12 9 16 -8 8 -423 25
-579 23 -133 -1 -131 -1 107 -16 133 -8 240 -18 238 -22 -3 -5 42 -11 100 -15
58 -4 105 -9 105 -12 0 -2 -14 -16 -30 -30 -32 -27 -67 -83 -52 -83 5 0 20 15
32 33 43 63 112 92 280 117 92 13 265 18 276 7 4 -4 11 -26 15 -50 6 -36 8
-39 14 -19 5 14 11 19 19 14 9 -7 50 -9 89 -3 18 3 5 21 -15 21 -21 1 -21 2
-5 11 9 6 27 7 38 4 13 -5 19 -3 15 3 -3 6 27 8 84 4 53 -3 90 -1 90 5 0 5
-29 9 -65 9 -36 -1 -65 3 -65 8 0 4 -8 5 -17 1 -10 -3 -43 -11 -73 -16 -30 -6
-63 -12 -72 -15 -12 -3 -18 0 -18 10 0 8 13 17 33 21 89 18 243 59 247 65 3 4
14 10 25 13 16 4 15 5 -6 6 -14 0 -29 -3 -35 -9 -5 -5 -32 -13 -59 -16 -28 -4
-53 -12 -57 -18 -5 -8 -14 -7 -29 2 -16 10 -19 10 -13 1 5 -9 2 -10 -10 -6 -9
4 -15 3 -11 -2 8 -14 -50 -23 -103 -17 -26 3 -66 7 -88 8 -25 1 -40 6 -38 12
3 7 -22 11 -68 12 -40 0 -244 5 -453 12 -348 10 -782 4 -825 -12 -8 -3 -33 -7
-55 -9 -22 -2 -46 -6 -53 -11 -6 -4 -12 -5 -12 -1 0 3 -10 1 -21 -6 -17 -9
-20 -8 -14 2 5 8 4 10 -4 5 -6 -4 -19 -2 -27 5 -12 10 -15 10 -12 -2 2 -8 7
-17 12 -20 4 -4 -4 -6 -18 -6 -30 0 -47 17 -19 18 10 0 13 3 6 6 -7 2 -36 -8
-65 -23 -65 -35 -63 -33 -56 -40 3 -3 15 0 27 8 14 8 24 9 31 2 6 -6 4 -10 -8
-12 -9 -1 -32 -3 -51 -5 l-35 -4 55 49 c30 26 62 51 72 54 9 3 17 10 17 16 0
6 3 8 7 5 3 -4 12 1 19 11 12 16 89 17 1320 14 719 -2 1335 -7 1368 -12 l61
-7 -50 -3 c-39 -1 -45 -4 -25 -9 17 -5 -17 -12 -103 -20 -91 -9 -132 -10 -139
-3 -8 8 -17 8 -30 1 -10 -5 -22 -8 -26 -5 -5 3 -42 -1 -83 -8 l-74 -14 175 0
c188 -1 293 13 356 49 23 12 52 19 87 18 l52 -1 -55 -15 c-30 -8 -64 -19 -75
-23 -18 -8 -18 -9 5 -9 31 -1 140 31 140 41 0 4 12 8 28 8 23 0 20 -3 -23 -24
-66 -32 -51 -32 27 -1 36 14 79 24 102 24 33 -2 35 -3 11 -6 -16 -2 -44 -10
-61 -18 -17 -8 -42 -19 -55 -25 -23 -10 -22 -10 6 -6 17 2 68 16 114 29 l85
26 460 -1 c329 -1 440 -4 386 -10 -41 -5 -84 -14 -94 -20 -10 -5 -76 -14 -145
-18 -69 -4 -139 -13 -156 -18 -25 -8 -19 -9 35 -6 36 2 110 6 165 8 55 3 120
12 144 20 24 9 66 16 93 16 27 0 59 5 70 11 12 7 66 11 129 10 92 -2 109 1
109 14 0 13 -52 15 -452 15 -401 0 -948 4 -3264 25 l-601 5 -189 -143z m128
-9 c-9 -9 -15 -9 -24 0 -9 9 -7 12 12 12 19 0 21 -3 12 -12z m1075 -4 c-3 -3
-12 -4 -19 -1 -8 3 -5 6 6 6 11 1 17 -2 13 -5z m81 -11 c-10 -2 -28 -2 -40 0
-13 2 -5 4 17 4 22 1 32 -1 23 -4z m-1198 -43 c0 -12 -7 -20 -18 -20 -10 0
-28 -7 -41 -17 -13 -9 -40 -20 -60 -24 -20 -4 -53 -12 -73 -17 -38 -10 -53 0
-20 13 21 9 34 12 95 21 29 4 45 10 39 16 -5 5 -27 5 -53 -1 -24 -5 -45 -8
-48 -6 -8 8 64 33 113 38 27 4 51 9 54 12 9 9 12 6 12 -15z"/>
<path d="M908 503 c6 -2 18 -2 25 0 6 3 1 5 -13 5 -14 0 -19 -2 -12 -5z"/>
<path d="M1138 493 c7 -3 16 -2 19 1 4 3 -2 6 -13 5 -11 0 -14 -3 -6 -6z"/>
<path d="M2705 490 c-18 -8 -17 -9 8 -9 16 -1 26 3 22 9 -3 6 -7 10 -8 9 -1 0
-11 -4 -22 -9z"/>
<path d="M2830 475 c-30 -13 -52 -25 -47 -26 4 -1 10 -2 15 -3 54 -15 145 -15
196 -2 97 26 83 34 -26 17 -32 -6 -69 -6 -85 -1 -15 4 -23 9 -17 9 5 1 19 8
30 16 30 23 -2 18 -66 -10z"/>
<path d="M956 482 c-3 -5 1 -9 9 -9 8 0 15 4 15 9 0 4 -4 8 -9 8 -6 0 -12 -4
-15 -8z"/>
<path d="M990 482 c0 -5 7 -9 15 -9 8 0 12 4 9 9 -3 4 -9 8 -15 8 -5 0 -9 -4
-9 -8z"/>
<path d="M2188 483 c7 -3 16 -2 19 1 4 3 -2 6 -13 5 -11 0 -14 -3 -6 -6z"/>
<path d="M3138 483 c6 -2 18 -2 25 0 6 3 1 5 -13 5 -14 0 -19 -2 -12 -5z"/>
<path d="M3298 483 c23 -2 61 -2 85 0 23 2 4 4 -43 4 -47 0 -66 -2 -42 -4z"/>
<path d="M4053 478 c9 -6 8 -8 -3 -8 -8 -1 -34 -3 -58 -5 -23 -2 -40 1 -37 6
7 10 -34 3 -110 -17 l-50 -14 50 7 c28 3 88 7 135 7 56 1 97 7 120 18 l35 16
-47 -1 c-26 -1 -42 -5 -35 -9z"/>
<path d="M4322 482 c-53 -2 -62 -5 -52 -17 9 -11 7 -12 -9 -8 -12 3 -18 10
-15 15 14 22 -159 -17 -193 -44 -7 -6 -33 -5 -67 1 -34 6 -75 7 -108 2 -29 -5
-102 -6 -163 -2 -110 8 -293 7 -301 -2 -2 -2 66 -7 151 -11 136 -6 226 -16
260 -26 23 -8 257 13 244 21 -9 6 4 9 36 10 109 2 191 9 249 23 34 8 106 17
161 19 55 3 111 10 125 16 21 10 16 11 -30 6 -164 -16 -175 -16 -161 -7 14 10
4 10 -127 4z m-112 -32 c0 -5 -4 -10 -10 -10 -5 0 -10 5 -10 10 0 6 5 10 10
10 6 0 10 -4 10 -10z"/>
<path d="M4893 451 c-89 -3 -165 -9 -169 -13 -9 -9 357 -11 380 -2 28 11 17
24 -16 22 -18 -1 -106 -4 -195 -7z"/>
<path d="M2505 440 c4 -6 11 -8 16 -5 14 9 11 15 -7 15 -8 0 -12 -5 -9 -10z"/>
<path d="M2690 420 c-10 -6 3 -7 40 -3 30 3 57 7 59 9 10 9 -85 3 -99 -6z"/>
<path d="M1198 413 c7 -3 16 -2 19 1 4 3 -2 6 -13 5 -11 0 -14 -3 -6 -6z"/>
<path d="M5068 415 c-5 -6 -655 -17 -847 -15 -95 2 -131 -1 -127 -9 4 -6 30
-11 57 -11 34 0 48 -4 43 -11 -3 -6 -27 -10 -53 -9 -68 4 -101 1 -101 -7 0 -5
29 -6 65 -5 42 3 65 0 65 -7 0 -6 -10 -12 -22 -13 -13 0 -27 -2 -33 -3 -5 -2
-16 -3 -22 -4 -27 -2 -11 -21 17 -21 36 0 40 -17 5 -26 -25 -6 -35 -24 -14
-24 7 0 0 -12 -14 -26 -19 -19 -39 -26 -78 -30 -76 -7 -74 -14 4 -14 65 0 83
-10 51 -28 -9 -5 -15 -13 -15 -18 1 -5 -14 -10 -34 -12 -19 -2 -35 -7 -35 -12
0 -5 -8 -7 -17 -4 -14 5 -15 4 -4 -4 8 -6 19 -8 25 -6 7 3 13 -8 14 -25 2 -22
-4 -33 -19 -42 -17 -9 -19 -13 -8 -20 8 -5 19 -9 25 -9 11 0 69 93 134 215 18
33 45 76 61 96 16 20 29 44 29 52 0 17 18 32 27 24 3 -3 0 -52 -7 -109 -9 -82
-15 -106 -31 -118 -11 -9 -17 -19 -13 -23 13 -13 24 -7 34 18 9 23 17 27 68
29 9 1 20 5 23 9 3 5 30 11 60 14 30 3 56 9 57 14 2 5 10 9 18 9 8 0 14 6 14
13 0 8 -7 14 -15 14 -8 0 -15 -3 -15 -6 0 -3 -39 -6 -86 -6 l-86 0 5 49 c2 26
10 52 17 56 10 6 8 9 -6 13 -12 3 -6 5 14 6 17 0 32 -3 32 -7 0 -5 7 -9 15 -9
10 0 14 6 10 15 -4 10 0 12 11 8 9 -4 22 -2 28 3 18 14 166 25 166 12 0 -6
-15 -12 -32 -13 -109 -5 -120 -7 -113 -18 3 -5 12 -7 20 -4 8 3 20 2 27 -2 15
-10 59 -6 74 7 6 5 15 4 22 -3 9 -9 12 -9 12 0 0 7 7 12 16 12 8 0 13 -4 10
-9 -4 -5 1 -8 11 -7 16 3 55 -4 136 -25 23 -6 65 -12 93 -13 29 -2 57 -7 64
-11 8 -5 11 -4 6 3 -4 7 5 9 29 5 22 -3 35 -2 35 5 0 6 -15 13 -32 16 -47 7
-257 28 -295 30 -20 0 -28 5 -23 10 10 10 196 -6 310 -28 87 -16 184 -7 188
17 3 20 -1 21 -48 6 -42 -12 -270 -2 -270 13 0 6 46 9 118 8 121 -2 202 6 202
21 0 9 -43 13 -52 4z"/>
<path d="M964 395 c3 -9 0 -15 -9 -15 -9 0 -12 -6 -9 -15 6 -14 8 -14 18 0 10
14 16 15 39 4 14 -6 24 -16 21 -20 -3 -5 4 -9 14 -9 11 0 39 -7 63 -15 24 -9
53 -16 66 -17 13 -2 23 -7 23 -12 0 -5 3 -6 6 -3 13 13 -18 36 -69 53 -29 9
-73 27 -99 40 -55 28 -72 30 -64 9z"/>
<path d="M2813 403 c-18 -7 -16 -23 3 -23 8 0 12 5 8 11 -4 8 1 9 17 3 34 -12
293 -8 315 4 14 8 -28 11 -156 10 -96 0 -181 -3 -187 -5z"/>
<path d="M3210 390 c-62 -10 -59 -10 233 -14 142 -2 261 -6 264 -10 3 -3 -2
-6 -11 -6 -10 0 -34 -7 -54 -16 -21 -9 -52 -22 -70 -30 -18 -8 -39 -14 -47
-14 -8 0 -15 -4 -15 -8 0 -5 -19 -17 -42 -27 -24 -10 -66 -29 -95 -43 -58 -27
-126 -45 -117 -31 3 5 1 9 -5 9 -5 0 -13 -5 -16 -10 -4 -6 -11 -8 -16 -5 -5 4
-9 2 -9 -3 0 -6 6 -12 14 -15 34 -13 103 6 212 59 124 60 313 134 341 134 11
0 13 3 7 9 -25 25 -452 40 -574 21z"/>
<path d="M2330 381 c-23 -7 -21 -8 15 -14 57 -10 95 -9 95 3 0 6 -13 10 -29
10 -16 0 -35 2 -43 4 -7 2 -24 1 -38 -3z"/>
<path d="M3916 369 c-118 -12 -242 -57 -466 -167 -88 -44 -128 -68 -115 -71
11 -2 23 -8 26 -13 4 -6 14 1 24 16 10 14 26 26 36 26 11 0 19 5 19 10 0 6 6
10 14 10 7 0 19 6 25 14 7 8 26 18 42 21 16 4 29 11 29 16 0 5 9 9 20 9 12 0
35 7 53 16 21 12 32 13 35 5 2 -6 8 -11 14 -11 6 0 6 6 -2 15 -10 12 -7 17 16
26 35 13 62 15 89 5 15 -6 17 -6 5 3 -23 16 -19 18 85 39 23 5 53 7 68 5 15
-2 27 1 27 7 0 7 13 9 36 4 25 -5 35 -3 30 4 -4 7 6 12 26 15 66 8 -55 5 -136
-4z"/>
<path d="M2303 330 c-14 -6 -23 -18 -23 -30 0 -12 -4 -19 -9 -16 -5 3 -11 -1
-15 -9 -12 -31 14 -23 61 20 37 34 44 44 28 44 -11 0 -30 -4 -42 -9z"/>
<path d="M4740 310 c0 -5 5 -10 11 -10 5 0 7 5 4 10 -3 6 -8 10 -11 10 -2 0
-4 -4 -4 -10z"/>
<path d="M5060 311 c11 -8 3 -10 -32 -7 -26 1 -53 -1 -60 -7 -10 -6 -8 -7 4
-3 10 3 20 1 23 -4 5 -8 -10 -15 -56 -24 -8 -2 -21 -5 -29 -8 -125 -42 -325
-82 -349 -68 -13 6 -18 5 -18 -5 0 -8 5 -11 11 -8 6 4 7 2 3 -3 -5 -5 -16 -9
-25 -9 -10 0 -53 -9 -97 -20 l-80 -20 50 -3 c27 -2 88 6 135 17 47 12 123 28
169 37 47 8 139 33 205 54 67 21 140 41 164 45 43 7 61 35 23 35 -11 0 -28 3
-38 6 -15 5 -15 4 -3 -5z"/>
<path d="M740 302 c0 -17 96 -52 172 -62 189 -26 825 -40 903 -20 17 4 -74 8
-205 9 -269 1 -605 17 -698 32 -57 9 -102 22 -154 44 -10 4 -18 3 -18 -3z"/>
<path d="M4293 286 c-1 -12 1 -15 4 -8 3 6 8 10 13 7 4 -3 13 1 18 8 9 10 6
13 -11 13 -16 0 -23 -6 -24 -20z"/>
<path d="M2505 290 c-16 -4 -54 -19 -82 -34 -64 -33 -194 -50 -305 -40 -82 7
-128 1 -128 -17 0 -7 9 -9 22 -5 13 3 56 2 98 -1 l75 -7 -95 -13 c-155 -22
-162 -23 -184 -35 -11 -6 -55 -23 -96 -38 -57 -20 -83 -24 -110 -18 -19 4 -41
5 -47 3 -18 -6 -398 14 -465 25 -36 5 -70 5 -90 -1 -18 -5 -62 -12 -98 -15
-36 -3 -90 -11 -120 -19 -82 -21 -131 -28 -171 -26 -21 1 -40 -2 -43 -7 -6
-11 148 -7 165 4 6 4 62 10 123 15 61 4 129 11 151 15 61 10 31 -10 -55 -36
-90 -28 -103 -37 -50 -32 22 2 40 7 40 11 0 4 25 8 56 9 31 1 63 7 71 14 11 9
67 13 182 15 91 2 212 4 269 6 56 1 102 0 102 -4 0 -8 -79 -28 -107 -26 -12 1
-19 5 -16 11 8 12 -276 1 -347 -14 -88 -19 -82 -30 15 -25 48 3 92 8 96 11 4
2 10 0 14 -5 3 -6 82 -10 187 -10 142 1 184 4 195 15 12 12 58 20 87 15 5 -1
6 5 3 14 -5 11 1 15 23 15 17 0 30 4 30 9 0 6 8 10 18 10 37 1 52 5 52 12 0
16 128 47 220 54 123 9 193 19 178 24 -14 5 -13 8 7 17 13 7 23 9 22 5 -1 -3
3 -6 8 -6 6 0 9 3 8 8 -3 6 13 9 34 6 3 0 10 6 15 15 5 8 24 18 43 22 19 3 35
10 35 14 0 4 11 12 25 18 55 25 13 41 -60 22z"/>
<path d="M1058 273 c7 -3 16 -2 19 1 4 3 -2 6 -13 5 -11 0 -14 -3 -6 -6z"/>
<path d="M5052 244 c-87 -19 -110 -33 -55 -34 23 0 45 5 48 10 3 6 22 10 41
10 24 0 34 5 34 15 0 8 -1 14 -2 14 -2 -1 -32 -8 -66 -15z"/>
<path d="M4480 240 c0 -5 4 -10 9 -10 6 0 13 5 16 10 3 6 -1 10 -9 10 -9 0
-16 -4 -16 -10z"/>
<path d="M549 216 c-2 -2 -21 -6 -42 -9 -21 -3 -46 -12 -56 -21 -10 -9 -20
-13 -24 -10 -3 3 -26 -6 -51 -21 -46 -27 -62 -43 -28 -30 9 4 23 8 30 9 8 1
17 8 22 15 4 8 13 10 20 6 6 -4 32 -4 58 0 l47 7 -30 13 -30 13 36 1 c20 1 52
8 70 16 32 13 33 14 8 15 -14 0 -28 -2 -30 -4z"/>
<path d="M2495 210 c-3 -6 1 -7 9 -4 18 7 21 14 7 14 -6 0 -13 -4 -16 -10z"/>
<path d="M627 203 c-10 -10 -8 -23 4 -23 5 0 7 6 3 13 -6 10 -4 10 7 0 15 -15
139 -18 139 -4 0 15 -139 28 -153 14z m81 -10 c-10 -2 -26 -2 -35 0 -10 3 -2
5 17 5 19 0 27 -2 18 -5z"/>
<path d="M4905 200 c-35 -8 -24 -15 45 -30 38 -8 32 -9 -44 -6 -90 4 -148 -4
-396 -57 -100 -21 -115 -27 -112 -43 2 -18 2 -18 -13 0 -13 17 -15 17 -15 4 0
-9 -5 -20 -12 -24 -8 -5 -9 -2 -5 9 3 10 2 17 -3 17 -6 0 -10 -6 -10 -12 0 -9
-4 -8 -10 2 -8 12 -10 11 -10 -7 0 -13 6 -23 13 -23 7 0 5 -4 -4 -10 -9 -5
-35 -8 -57 -6 -22 2 -46 -1 -54 -6 -8 -5 23 -8 83 -6 85 3 99 6 130 29 49 37
104 61 131 57 20 -3 17 -7 -22 -25 -25 -12 -58 -31 -75 -43 -46 -31 -5 -26 69
9 33 16 93 37 131 46 39 9 88 21 110 27 22 7 43 11 47 10 4 -1 49 8 100 19 51
11 117 25 146 32 39 8 52 16 52 29 0 14 -8 18 -36 18 -21 0 -33 -4 -29 -10 4
-6 -13 -10 -44 -10 -27 0 -53 5 -56 10 -7 11 -6 11 -50 0z m-110 -70 c-3 -5
-16 -10 -28 -10 -18 0 -19 2 -7 10 20 13 43 13 35 0z"/>
<path d="M2435 190 c-3 -5 1 -10 10 -10 9 0 13 5 10 10 -3 6 -8 10 -10 10 -2
0 -7 -4 -10 -10z"/>
<path d="M3155 175 l-30 -13 34 3 c36 4 47 10 34 18 -4 3 -21 -1 -38 -8z"/>
<path d="M3778 183 c7 -3 16 -2 19 1 4 3 -2 6 -13 5 -11 0 -14 -3 -6 -6z"/>
<path d="M4470 180 c0 -5 5 -10 10 -10 6 0 10 5 10 10 0 6 -4 10 -10 10 -5 0
-10 -4 -10 -10z"/>
<path d="M545 170 c3 -5 8 -10 11 -10 2 0 4 5 4 10 0 6 -5 10 -11 10 -5 0 -7
-4 -4 -10z"/>
<path d="M2912 160 c-77 -11 -79 -24 -2 -15 36 4 80 8 98 9 17 0 32 4 32 8 0
10 -55 8 -128 -2z"/>
<path d="M3660 159 c0 -5 5 -7 10 -4 6 3 10 8 10 11 0 2 -4 4 -10 4 -5 0 -10
-5 -10 -11z"/>
<path d="M3838 157 c-32 -6 -58 -14 -58 -18 0 -9 79 1 103 13 9 5 23 6 29 2 7
-4 8 -3 4 4 -4 7 -10 11 -14 11 -4 -1 -33 -6 -64 -12z"/>
<path d="M4135 149 c-4 -6 -5 -12 -2 -15 2 -3 7 2 10 11 7 17 1 20 -8 4z"/>
<path d="M545 140 c-16 -7 -14 -9 15 -9 19 0 42 4 50 9 11 7 8 10 -15 9 -16 0
-39 -4 -50 -9z"/>
<path d="M2815 140 c-3 -6 1 -7 9 -4 18 7 21 14 7 14 -6 0 -13 -4 -16 -10z"/>
<path d="M3214 132 c3 -5 -11 -7 -30 -6 -22 2 -34 -1 -34 -9 0 -13 -104 -42
-119 -33 -5 3 -14 0 -20 -7 -6 -8 -26 -12 -52 -10 -23 2 -48 -2 -55 -8 -8 -6
-14 -8 -14 -4 0 4 -6 3 -12 -3 -7 -6 -44 -13 -83 -16 -90 -8 -111 -26 -29 -26
85 1 377 60 399 81 5 5 21 9 37 9 15 0 31 6 35 14 4 8 17 16 28 19 11 3 4 5
-18 6 -21 0 -36 -3 -33 -7z"/>
<path d="M5020 124 c-117 -29 -141 -34 -165 -34 -31 0 -44 -20 -13 -20 106 -3
191 -11 231 -24 48 -15 48 -15 45 7 -2 16 -11 23 -30 25 -16 2 -28 8 -28 13 0
9 5 11 33 13 13 1 27 16 27 29 0 10 -37 7 -100 -9z m30 -40 c0 -2 -9 -4 -21
-4 -11 0 -18 4 -14 10 5 8 35 3 35 -6z"/>
<path d="M3618 125 c-2 -3 -33 -7 -68 -10 -34 -2 -65 -7 -69 -11 -3 -4 2 -4
11 -1 9 3 18 1 20 -5 3 -9 20 -8 63 0 57 12 97 32 64 32 -9 0 -18 -2 -21 -5z"/>
<path d="M2630 113 c0 -19 13 -21 45 -7 17 7 23 13 15 13 -8 1 -22 -3 -30 -9
-9 -6 -17 -5 -22 3 -6 9 -8 9 -8 0z"/>
<path d="M2939 115 c-3 -2 -20 -6 -38 -7 -54 -4 -47 -19 8 -17 29 2 48 7 44
12 -4 6 3 8 15 5 12 -4 20 -2 16 3 -5 9 -37 12 -45 4z"/>
<path d="M4100 94 c-24 -48 -24 -50 -1 -21 13 15 21 32 19 38 -2 6 -10 -2 -18
-17z"/>
<path d="M3277 103 c-9 -2 -15 -9 -12 -14 4 -5 -4 -9 -17 -10 -13 0 -32 -4
-43 -9 -12 -5 47 -8 140 -7 88 1 187 -4 220 -11 118 -23 151 -27 230 -26 44 0
94 4 110 9 24 8 6 11 -85 16 -215 13 -310 22 -310 30 0 5 -16 9 -36 9 -21 0
-33 4 -29 10 3 6 1 10 -4 10 -6 0 -11 -5 -11 -11 0 -10 -67 -8 -115 4 -11 3
-28 3 -38 0z"/>
<path d="M4205 103 c-16 -3 -40 -16 -52 -30 -28 -32 -29 -36 -1 -28 17 6 20 4
15 -9 -4 -9 -4 -16 -1 -16 2 0 9 11 14 25 5 14 16 25 23 25 8 0 24 9 37 20 23
20 22 21 -35 13z"/>
<path d="M2551 86 c-8 -10 -9 -16 -1 -21 5 -3 10 -5 11 -3 4 18 7 38 4 38 -1
0 -8 -6 -14 -14z"/>
<path d="M2510 72 c0 -7 -3 -11 -7 -11 -18 3 -33 -2 -33 -10 0 -11 38 -2 46
11 3 5 3 12 0 15 -3 4 -6 1 -6 -5z"/>
<path d="M2718 73 c7 -3 16 -2 19 1 4 3 -2 6 -13 5 -11 0 -14 -3 -6 -6z"/>
<path d="M2670 59 c0 -5 5 -7 10 -4 6 3 10 8 10 11 0 2 -4 4 -10 4 -5 0 -10
-5 -10 -11z"/>
<path d="M3960 60 c0 -5 7 -10 15 -10 8 0 15 5 15 10 0 6 -7 10 -15 10 -8 0
-15 -4 -15 -10z"/>
<path d="M4655 46 c-27 -7 -66 -20 -85 -29 -34 -16 -32 -16 75 -10 61 3 118 9
127 14 22 12 68 11 68 0 0 -6 -12 -12 -27 -14 -16 -2 -8 -2 17 0 25 3 63 5 86
4 22 0 48 5 58 12 15 11 6 13 -55 16 -39 1 -82 7 -96 12 -33 12 -107 10 -168
-5z"/>
<path d="M2419 40 c-21 -14 -2 -24 23 -13 17 7 19 11 6 15 -8 4 -21 2 -29 -2z"/>
<path d="M2584 38 c-3 -4 6 -8 20 -8 14 0 26 4 26 9 0 11 -39 10 -46 -1z"/>
<path d="M926 33 c-4 -4 -37 -13 -74 -20 l-67 -13 74 5 c49 2 79 9 90 19 14
14 14 16 0 16 -9 0 -19 -3 -23 -7z"/>
<path d="M3110 29 c-25 -5 -72 -14 -105 -19 -48 -7 -38 -8 50 -3 61 3 117 5
125 4 85 -6 485 -6 420 0 -47 4 -113 12 -148 17 -44 7 -72 7 -93 0 -27 -9 -89
-7 -174 6 -16 2 -50 0 -75 -5z"/>
<path d="M2520 14 l-35 -14 35 5 c19 3 40 6 47 7 7 1 10 5 7 10 -6 10 -10 9
-54 -8z"/>
<path d="M3928 13 c7 -3 16 -2 19 1 4 3 -2 6 -13 5 -11 0 -14 -3 -6 -6z"/>
<path d="M5013 3 c20 -2 54 -2 75 0 20 2 3 4 -38 4 -41 0 -58 -2 -37 -4z"/>
</g>
</svg>
