<?xml version="1.0" standalone="no"?>
<!DOCTYPE svg PUBLIC "-//W3C//DTD SVG 20010904//EN"
 "http://www.w3.org/TR/2001/REC-SVG-20010904/DTD/svg10.dtd">
<svg version="1.0" xmlns="http://www.w3.org/2000/svg"
 width="512.000000pt" height="512.000000pt" viewBox="0 0 512.000000 512.000000"
 preserveAspectRatio="xMidYMid meet">
<metadata>
Created by potrace 1.16, written by Peter Selinger 2001-2019
</metadata>
<g transform="translate(0.000000,512.000000) scale(0.100000,-0.100000)"
fill="#000000" stroke="none">
<path d="M966 4786 c-3 -14 -19 -34 -35 -46 l-30 -20 -34 35 c-41 42 -53 45
-33 8 17 -34 51 -63 71 -63 23 0 72 52 79 83 8 33 -9 36 -18 3z"/>
<path d="M1006 4788 c4 -13 11 -26 16 -29 6 -4 7 -20 4 -36 -5 -21 -3 -32 6
-35 24 -9 122 30 141 56 10 14 25 26 33 26 13 0 13 -4 0 -28 -8 -16 -22 -34
-30 -41 -20 -17 -21 -31 -2 -31 25 0 42 29 49 85 3 32 -34 30 -77 -5 -22 -16
-45 -30 -52 -30 -7 0 -19 -3 -28 -6 -13 -5 -16 1 -16 25 0 19 -6 34 -15 37 -8
4 -15 12 -15 20 0 8 -5 14 -11 14 -6 0 -8 -9 -3 -22z"/>
<path d="M4275 4801 c3 -5 1 -12 -5 -16 -5 -3 -7 -19 -3 -35 5 -26 2 -30 -16
-30 -11 0 -21 -5 -21 -11 0 -6 12 -9 28 -7 25 3 27 6 26 46 0 23 2 42 6 42 18
0 50 -49 50 -78 0 -27 7 -35 48 -58 26 -15 57 -36 69 -47 26 -23 43 -15 43 20
0 21 -3 23 -14 14 -11 -9 -23 -7 -52 10 -58 33 -74 50 -74 76 0 28 -50 83 -75
83 -9 0 -14 -4 -10 -9z"/>
<path d="M790 4770 c0 -13 -12 -25 -35 -34 -23 -10 -36 -23 -41 -42 l-7 -27
-19 22 c-21 27 -25 8 -6 -34 15 -34 21 -32 44 13 22 43 43 62 61 55 22 -9 14
-25 -8 -18 -15 5 -20 3 -17 -6 6 -17 53 -18 52 -1 -1 7 -2 30 -2 52 -2 40 -22
58 -22 20z"/>
<path d="M3826 4722 c-21 -35 30 -197 84 -264 33 -41 39 -58 13 -37 -15 13
-16 11 -9 -21 8 -44 23 -60 36 -40 5 8 10 25 10 37 0 12 7 23 18 26 14 3 12 6
-11 17 -53 26 -110 138 -126 248 -4 31 -9 42 -15 34z"/>
<path d="M3861 4716 c-2 -47 107 -155 172 -171 32 -8 34 -2 7 32 -22 28 -26
82 -10 113 6 10 6 21 2 24 -17 11 -35 -42 -30 -89 l6 -45 -28 17 c-26 17 -80
77 -107 119 -11 18 -12 18 -12 0z"/>
<path d="M1207 4683 c-16 -18 -35 -33 -43 -33 -8 0 -14 -4 -14 -10 0 -13 3
-13 32 3 14 7 37 26 51 42 33 39 45 26 18 -18 -11 -19 -21 -45 -21 -57 0 -22
3 -22 56 -16 66 8 72 -11 8 -29 -37 -11 -38 -12 -17 -23 12 -7 31 -12 42 -12
12 0 21 -7 21 -15 0 -8 -5 -15 -11 -15 -5 0 -7 -5 -4 -10 4 -7 11 -7 18 -2 7
5 34 10 61 11 66 2 69 8 9 17 -47 7 -114 44 -79 44 10 0 16 8 16 24 0 27 -27
38 -71 29 -32 -6 -36 4 -14 33 8 10 15 31 15 46 0 23 -4 27 -22 26 -13 -1 -36
-17 -51 -35z"/>
<path d="M4058 4707 c-13 -31 -9 -63 10 -80 20 -19 62 -23 62 -7 0 15 43 12
66 -4 14 -11 22 -12 32 -3 8 6 30 10 50 9 l37 -2 -39 35 c-43 38 -71 48 -40
14 15 -16 16 -22 5 -29 -14 -8 -19 -8 -64 5 -17 4 -38 3 -54 -4 -34 -15 -51 0
-55 47 -2 28 -5 32 -10 19z"/>
<path d="M4608 4714 c-4 -5 -10 -33 -13 -60 -4 -28 -16 -61 -26 -75 l-19 -24
0 36 c0 37 -23 79 -36 66 -4 -4 -2 -13 4 -19 7 -7 12 -31 12 -54 0 -24 5 -46
11 -49 30 -19 83 84 77 151 -2 21 -6 34 -10 28z"/>
<path d="M4641 4704 c-1 -12 6 -41 14 -64 28 -80 14 -149 -40 -184 l-26 -17
21 -29 c11 -15 20 -33 20 -38 0 -25 23 -21 66 10 55 40 96 108 64 108 -5 0
-10 -6 -10 -14 0 -16 -51 -71 -81 -87 -16 -8 -21 -6 -29 17 -9 22 -6 31 15 56
32 38 39 67 32 129 -7 55 -45 148 -46 113z"/>
<path d="M630 4690 c0 -11 -3 -19 -7 -19 -21 3 -22 -3 -7 -26 10 -15 26 -25
41 -25 23 0 23 1 9 22 -9 12 -16 33 -16 45 0 13 -4 23 -10 23 -5 0 -10 -9 -10
-20z"/>
<path d="M2131 4667 c25 -23 80 -66 123 -95 l77 -54 24 24 c12 12 66 43 119
67 l96 43 65 -27 c36 -16 89 -43 117 -62 52 -34 53 -35 82 -17 79 47 218 149
205 152 -9 1 -63 -30 -122 -69 l-106 -72 -110 56 c-60 32 -118 57 -130 57 -21
0 -216 -92 -235 -110 -10 -10 -57 19 -160 97 -83 63 -109 69 -45 10z"/>
<path d="M2080 4680 c0 -19 72 -172 78 -165 3 2 11 -3 18 -13 12 -17 9 -61 -6
-92 -5 -10 1 -26 16 -45 l25 -30 -6 30 c-4 17 -8 35 -10 42 -2 7 0 15 5 18 18
11 10 63 -14 92 -13 15 -37 55 -54 88 -41 80 -52 95 -52 75z"/>
<path d="M3032 4646 c-15 -24 -40 -65 -57 -92 -52 -83 -55 -88 -55 -116 0 -28
13 -37 25 -18 10 16 25 12 25 -6 0 -9 -11 -25 -25 -36 -14 -11 -25 -24 -25
-30 0 -6 8 -4 18 5 25 23 32 21 32 -5 0 -19 -19 -64 -68 -160 -5 -10 199 3
218 13 9 5 -25 9 -84 9 l-98 0 15 23 c25 39 38 103 31 157 -5 41 -10 50 -26
50 -15 0 -18 4 -12 23 4 12 17 32 30 44 13 12 24 27 24 32 0 6 13 32 28 58 27
45 45 93 36 93 -3 0 -17 -20 -32 -44z"/>
<path d="M577 4663 c-4 -3 -4 -22 -1 -40 5 -26 3 -33 -10 -33 -23 0 -31 -27
-16 -56 15 -28 7 -42 -14 -25 -9 8 -16 8 -20 2 -8 -12 38 -45 55 -39 16 5 17
67 2 73 -7 2 -13 11 -13 19 0 12 5 14 25 6 13 -5 26 -6 28 -2 6 11 -29 103
-36 95z"/>
<path d="M491 4490 c-1 -15 9 -33 27 -46 l27 -23 -42 2 c-23 1 -45 6 -49 10
-10 9 -34 9 -34 0 0 -12 58 -42 65 -35 4 4 21 7 37 7 42 0 46 19 10 52 -16 16
-32 35 -35 43 -3 9 -6 5 -6 -10z"/>
<path d="M4790 4469 c0 -49 -31 -128 -65 -171 -41 -51 -70 -102 -79 -140 -7
-31 4 -37 24 -13 15 18 36 19 44 3 3 -7 4 -4 3 7 -2 13 -10 20 -23 19 -29 -1
-21 23 28 82 64 77 102 182 79 221 -9 16 -10 15 -11 -8z"/>
<path d="M1411 4470 c-25 -3 -46 -10 -48 -17 -5 -14 69 -93 87 -93 7 0 0 12
-14 27 -15 15 -32 35 -37 45 -8 15 -6 18 13 18 23 0 57 16 48 22 -3 2 -25 1
-49 -2z"/>
<path d="M3875 4402 c-4 -20 -13 -31 -20 -28 -6 2 -18 1 -25 -4 -8 -5 -2 -10
19 -15 18 -4 35 -5 37 -2 3 3 4 22 2 43 l-4 39 -9 -33z"/>
<path d="M407 4401 c7 -27 40 -51 71 -51 19 0 22 -3 13 -13 -6 -8 -8 -16 -5
-19 3 -3 -16 -23 -41 -43 -25 -21 -43 -40 -41 -43 11 -11 96 50 96 68 0 13 5
18 15 14 10 -4 15 0 15 15 0 21 -27 41 -56 41 -10 0 -30 12 -45 26 -26 25 -27
25 -22 5z"/>
<path d="M2551 4404 c0 -11 3 -14 6 -6 3 7 2 16 -1 19 -3 4 -6 -2 -5 -13z"/>
<path d="M1330 4397 c0 -19 37 -50 49 -42 10 6 16 -8 12 -29 -5 -25 9 -36 34
-26 29 11 32 4 8 -22 -15 -17 -13 -18 50 -18 41 0 67 4 67 11 0 6 -17 9 -42 7
-38 -2 -43 0 -48 22 -4 15 -13 24 -23 24 -9 -1 -15 2 -12 5 7 12 -26 53 -39
48 -7 -3 -18 4 -24 14 -14 22 -32 25 -32 6z"/>
<path d="M2150 4336 c3 -24 16 -60 28 -80 12 -21 22 -39 22 -42 0 -2 -44 -4
-97 -5 -64 0 -91 -3 -78 -9 11 -5 52 -9 91 -9 103 -1 133 -9 140 -37 3 -13 13
-29 21 -36 14 -11 15 -10 8 12 -4 14 -15 34 -25 45 -36 41 -79 113 -85 141
-12 53 -16 64 -24 64 -4 0 -5 -20 -1 -44z"/>
<path d="M2562 4350 c0 -14 2 -19 5 -12 2 6 2 18 0 25 -3 6 -5 1 -5 -13z"/>
<path d="M3823 4319 c1 -21 63 -66 74 -55 7 7 -56 76 -68 76 -4 0 -7 -9 -6
-21z"/>
<path d="M3831 4261 c41 -28 99 -50 99 -38 0 5 -127 67 -138 67 -3 0 14 -13
39 -29z"/>
<path d="M466 4228 l-30 -25 28 -5 c29 -6 40 7 34 38 -3 15 -7 14 -32 -8z"/>
<path d="M1490 4240 l-55 -6 34 -16 c29 -13 37 -13 62 -1 16 8 27 19 24 24 -4
5 -7 8 -8 7 -1 -1 -27 -4 -57 -8z"/>
<path d="M406 4206 c3 -9 11 -16 16 -16 13 0 5 23 -10 28 -7 2 -10 -2 -6 -12z"/>
<path d="M2740 4205 c-8 -9 -8 -15 -2 -15 12 0 26 19 19 26 -2 2 -10 -2 -17
-11z"/>
<path d="M3765 4210 c-3 -5 3 -10 15 -10 11 0 38 -9 60 -20 22 -11 53 -20 69
-20 16 0 33 -4 36 -10 3 -5 13 -10 21 -10 12 0 12 4 -3 25 -10 13 -24 25 -30
25 -7 0 -13 5 -13 10 0 6 -7 10 -15 10 -9 0 -12 -6 -9 -15 8 -19 5 -19 -47 5
-49 22 -75 25 -84 10z"/>
<path d="M1415 4183 c8 -33 23 -53 39 -53 6 0 16 -8 23 -19 11 -17 53 -36 53
-24 0 12 -55 57 -66 55 -7 -1 -14 7 -17 19 -4 16 -2 19 11 14 29 -12 55 -11
60 4 3 9 -2 11 -17 6 -14 -4 -31 -1 -46 9 -36 24 -48 20 -40 -11z"/>
<path d="M2010 4182 c0 -17 277 -295 309 -311 25 -12 38 -30 56 -74 13 -33 25
-60 27 -61 2 -1 37 -32 79 -69 43 -37 86 -67 97 -67 27 0 163 145 192 205 29
62 24 56 57 64 26 6 67 46 256 248 26 28 47 56 47 63 0 18 -34 -10 -91 -76
-73 -84 -210 -224 -220 -224 -4 0 -3 14 2 32 5 17 7 33 5 35 -3 4 -38 -56 -80
-140 -20 -38 -157 -187 -172 -187 -5 0 -46 35 -90 78 -77 73 -83 82 -109 160
-27 83 -45 108 -37 51 4 -29 3 -30 -16 -20 -11 6 -76 70 -144 141 -118 126
-168 170 -168 152z"/>
<path d="M440 4171 c14 -4 26 -15 28 -25 6 -27 -37 -66 -72 -67 -29 0 -28 -2
16 -17 26 -9 50 -21 55 -26 8 -8 -1 -7 -69 9 -17 4 -28 3 -28 -3 0 -11 33 -22
68 -22 13 0 22 -6 22 -15 0 -8 9 -15 21 -15 34 0 11 -19 -31 -26 -40 -7 -54
-21 -40 -43 7 -13 41 -19 104 -20 l28 -1 -17 -27 c-10 -16 -24 -32 -32 -36
-16 -10 -17 -53 -1 -63 8 -5 9 -2 5 9 -4 11 4 29 23 50 27 31 50 76 50 97 0 6
-11 5 -26 0 -32 -12 -121 -13 -128 -1 -3 5 14 12 39 16 37 5 50 13 70 43 35
51 32 70 -6 38 -49 -41 -62 -31 -21 17 14 16 12 17 -21 17 -43 0 -49 16 -11
30 21 8 25 15 21 35 -2 14 0 28 4 31 22 13 6 24 -33 23 -35 -1 -38 -2 -18 -8z"/>
<path d="M3770 4173 c29 -12 86 -95 76 -112 -4 -6 34 -31 48 -31 2 0 -12 29
-31 65 -35 65 -56 86 -90 84 -14 0 -14 -2 -3 -6z"/>
<path d="M1370 4165 c0 -3 16 -28 35 -56 19 -28 35 -57 35 -64 0 -7 7 -18 15
-25 13 -11 14 -8 9 17 -6 29 -5 30 28 26 l33 -4 -40 22 c-22 12 -44 28 -48 36
-5 7 -12 11 -18 8 -5 -4 -13 5 -19 19 -8 22 -30 37 -30 21z"/>
<path d="M2872 4145 c-6 -14 -7 -25 -2 -25 9 0 25 39 18 46 -3 2 -10 -7 -16
-21z"/>
<path d="M4670 4121 c-32 -25 -22 -34 19 -20 46 16 51 2 13 -32 -33 -29 -33
-31 -17 -55 15 -24 55 -47 65 -37 2 2 -9 15 -25 28 l-30 23 23 24 c22 24 31
78 13 78 -5 0 -15 2 -23 5 -7 2 -24 -4 -38 -14z"/>
<path d="M2560 4089 c0 -5 5 -7 10 -4 6 3 10 8 10 11 0 2 -4 4 -10 4 -5 0 -10
-5 -10 -11z"/>
<path d="M1390 4058 c0 -23 39 -78 55 -78 8 0 15 5 15 10 0 6 -3 10 -8 10 -4
0 -16 16 -26 35 -19 35 -36 46 -36 23z"/>
<path d="M3859 4004 l31 -26 -45 -29 c-27 -17 -45 -36 -45 -47 0 -16 5 -14 34
13 18 17 48 36 66 41 42 12 41 25 -6 51 -53 31 -72 29 -35 -3z"/>
<path d="M1345 3983 c12 -70 15 -75 41 -70 13 2 32 -2 41 -9 10 -7 25 -13 33
-13 10 -1 7 6 -10 18 -13 11 -27 19 -30 19 -25 -2 -40 4 -40 17 0 9 6 12 15 9
24 -10 17 10 -13 39 -37 36 -44 34 -37 -10z"/>
<path d="M1477 3982 c3 -13 -2 -18 -23 -20 -30 -2 -41 -9 -31 -18 13 -13 62
13 65 34 2 12 -1 22 -6 22 -6 0 -8 -8 -5 -18z"/>
<path d="M4683 3941 c-9 -11 -22 -17 -29 -14 -7 2 -17 -4 -22 -14 -9 -16 -9
-28 -3 -79 0 -7 7 -14 14 -17 11 -4 13 3 7 32 -8 46 -3 61 20 61 10 0 20 7 24
15 3 8 15 15 26 15 11 0 20 5 20 10 0 17 -39 11 -57 -9z"/>
<path d="M587 3903 c-4 -3 -7 -16 -7 -28 0 -12 -16 -36 -35 -54 -19 -17 -35
-36 -35 -41 0 -15 6 -12 41 19 47 44 67 46 65 8 -1 -37 30 -51 47 -21 8 15 12
11 26 -27 18 -48 46 -62 68 -33 15 20 16 19 121 -80 31 -30 52 -44 52 -35 0
16 -66 83 -142 144 l-48 37 0 -36 c0 -42 -17 -48 -26 -8 -17 79 -47 108 -60
57 -3 -14 -12 -25 -20 -25 -17 0 -17 0 1 44 10 24 12 42 6 53 -7 14 -10 13
-16 -6 -9 -30 -31 -21 -27 12 3 27 1 32 -11 20z"/>
<path d="M3864 3903 c-12 -2 -30 -14 -40 -25 -19 -21 -19 -21 3 -9 12 6 53 11
91 11 77 0 106 -17 95 -58 -4 -18 -2 -21 11 -16 20 8 21 -5 2 -20 -23 -17 -24
-60 -3 -64 26 -5 63 5 81 24 19 18 36 11 36 -16 0 -10 5 -22 10 -25 16 -10 12
40 -7 86 l-16 42 -16 -34 c-16 -33 -76 -77 -88 -65 -4 3 3 16 15 29 23 25 29
47 12 47 -5 0 -10 11 -10 25 0 55 -82 87 -176 68z"/>
<path d="M1340 3891 c0 -5 5 -13 10 -16 6 -3 10 -2 10 4 0 5 -4 13 -10 16 -5
3 -10 2 -10 -4z"/>
<path d="M1370 3884 c0 -8 5 -24 10 -35 17 -31 -12 -24 -45 11 -35 37 -48 38
-35 4 6 -14 7 -30 4 -36 -10 -15 6 -99 17 -92 6 3 7 19 4 35 -4 16 -3 38 1 51
5 18 8 19 18 7 6 -8 20 -14 31 -14 16 0 20 6 19 33 -2 37 -4 36 43 17 53 -22
54 -17 3 10 -53 28 -70 31 -70 9z"/>
<path d="M4570 3861 c0 -4 -11 -25 -26 -46 -17 -26 -24 -47 -21 -69 l3 -31 8
30 c4 17 16 42 26 55 18 23 19 24 38 7 10 -9 27 -17 37 -17 15 0 13 4 -8 20
-14 11 -29 29 -32 40 -6 20 -25 28 -25 11z"/>
<path d="M1217 3827 c-9 -14 -17 -31 -17 -36 0 -5 -5 -11 -11 -13 -7 -2 -8
-20 -4 -51 4 -27 11 -44 17 -41 5 4 8 18 5 32 -3 16 3 43 15 65 24 49 21 84
-5 44z"/>
<path d="M1246 3815 c-6 -16 23 -75 38 -75 4 0 5 10 1 23 -3 12 -9 32 -12 45
-6 25 -18 29 -27 7z"/>
<path d="M4413 3701 c-64 -61 -86 -91 -67 -91 3 0 33 27 67 60 34 33 68 58 75
55 7 -3 12 5 12 20 0 14 -3 25 -7 25 -5 0 -41 -31 -80 -69z"/>
<path d="M1024 3701 c-39 -33 -74 -66 -77 -74 -12 -32 7 -24 55 24 52 52 68
59 69 32 0 -11 7 -4 15 16 28 62 12 63 -62 2z"/>
<path d="M1117 3712 c-24 -49 -18 -60 11 -20 13 18 14 18 27 1 22 -29 25 -11
6 32 l-18 40 -26 -53z"/>
<path d="M4181 3724 c0 -32 2 -36 12 -22 10 14 18 10 74 -39 40 -35 63 -50 63
-40 0 13 -22 34 -132 126 -17 13 -18 11 -17 -25z"/>
<path d="M0 3390 c0 -7 860 -10 2560 -10 1700 0 2560 3 2560 10 0 7 -860 10
-2560 10 -1700 0 -2560 -3 -2560 -10z"/>
<path d="M2310 3008 c-7 -60 -18 -110 -27 -120 -13 -15 -17 -13 -47 20 -18 21
-49 61 -70 90 -33 45 -56 65 -56 47 0 -16 175 -245 187 -245 2 0 2 18 -2 40
-5 31 -4 40 8 40 11 0 17 26 26 106 8 67 9 110 3 116 -6 6 -14 -29 -22 -94z"/>
<path d="M2350 3097 c0 -7 21 -38 46 -68 74 -87 64 -83 125 -54 67 31 98 31
174 0 l60 -25 25 29 c83 96 102 122 95 129 -4 4 -35 -23 -69 -60 l-62 -68 -52
20 c-66 25 -108 25 -173 0 -45 -18 -53 -19 -63 -6 -49 65 -92 115 -98 116 -5
0 -8 -6 -8 -13z"/>
<path d="M2890 2986 c0 -125 1 -128 21 -123 22 6 22 -1 3 -60 -13 -40 143 165
159 210 15 40 -16 12 -63 -59 -41 -60 -56 -75 -73 -72 -21 3 -22 9 -25 108 -4
155 -22 152 -22 -4z"/>
<path d="M4333 3045 c-15 -18 -32 -25 -57 -25 -19 0 -38 5 -41 10 -11 17 -44
11 -55 -10 -6 -11 -21 -20 -34 -20 -13 0 -38 -3 -55 -6 -26 -5 -31 -11 -31
-35 0 -41 -69 -108 -104 -102 -22 5 -26 2 -26 -19 0 -13 4 -28 9 -33 15 -16
18 -228 3 -233 -6 -2 -12 -17 -12 -33 0 -22 5 -29 20 -29 10 0 24 -10 31 -21
15 -29 -9 -53 -53 -53 -26 -1 -34 -6 -36 -22 -4 -27 17 -44 43 -33 16 6 17 8
3 8 -10 1 -22 10 -28 21 -6 11 -9 20 -8 20 2 0 21 -7 43 -15 51 -18 75 -19 75
-1 0 9 -7 12 -20 9 -11 -3 -20 0 -20 6 0 6 9 11 20 11 18 0 18 2 5 46 -17 56
-20 60 -39 45 -28 -23 -28 9 1 33 25 21 26 26 15 47 -8 15 -11 54 -9 106 3 70
1 85 -15 100 -28 25 -21 35 12 18 30 -15 56 -12 45 5 -3 5 17 28 45 52 27 24
50 46 50 49 0 4 -9 9 -20 12 -38 10 -20 25 24 20 49 -6 90 11 82 33 -7 19 6
18 42 -3 28 -16 32 -16 76 1 25 10 46 24 46 32 0 8 7 14 15 14 8 0 15 -5 15
-10 0 -15 58 -70 74 -70 8 0 20 10 28 22 15 22 15 22 34 4 10 -11 17 -29 16
-41 -2 -17 5 -25 27 -35 17 -7 36 -18 42 -26 6 -8 20 -14 30 -14 21 0 24 -11
10 -25 -16 -16 22 -55 62 -65 45 -10 50 6 7 22 -33 11 -53 38 -44 61 3 10 -6
21 -25 31 -17 9 -44 23 -61 32 -17 9 -30 23 -30 35 0 23 -29 59 -49 59 -8 0
-22 -7 -32 -16 -20 -18 -49 -5 -65 30 -13 31 -54 32 -81 1z"/>
<path d="M580 3026 c-46 -17 -92 -106 -97 -186 -3 -62 12 -155 31 -185 7 -11
16 -32 20 -47 5 -23 3 -28 -13 -28 -11 0 -23 -4 -26 -10 -4 -6 8 -10 28 -10
40 0 63 20 45 38 -9 9 -8 12 5 12 9 0 17 5 17 10 0 6 -11 8 -25 4 -16 -4 -25
-2 -25 6 0 6 5 8 10 5 6 -3 10 1 10 9 0 9 -6 16 -14 16 -18 0 -30 31 -16 40 8
5 6 13 -6 24 -14 15 -15 19 -3 27 8 5 9 9 3 9 -18 0 -26 31 -13 47 9 10 9 17
1 25 -17 17 -15 45 6 66 9 9 16 24 14 32 -4 23 49 78 83 85 26 5 37 -1 78 -38
43 -40 65 -79 35 -61 -8 4 -10 3 -5 -2 5 -5 14 -9 20 -9 7 0 13 -10 15 -23 2
-15 9 -22 17 -18 7 2 15 -4 18 -16 4 -14 11 -19 22 -14 38 14 150 17 175 4 23
-13 26 -11 46 17 11 16 27 29 36 27 8 -1 20 9 26 24 7 14 8 23 2 19 -24 -15
-7 18 28 54 34 35 42 38 81 35 26 -1 50 -10 60 -21 31 -35 52 -83 46 -103 -4
-11 -2 -20 4 -20 6 0 11 -7 11 -15 0 -8 -6 -15 -12 -15 -9 0 -8 -4 2 -10 11
-8 12 -12 3 -18 -7 -5 -10 -22 -7 -45 3 -28 0 -39 -11 -44 -9 -3 -14 -12 -11
-19 3 -8 1 -14 -5 -14 -6 0 -8 -4 -5 -9 8 -12 -4 -42 -14 -36 -4 2 -16 -3 -26
-11 -18 -15 -18 -15 4 -11 26 6 29 -8 5 -22 -17 -10 -17 -12 1 -26 11 -8 36
-15 55 -15 27 0 32 3 21 10 -8 5 -23 10 -32 10 -20 0 -20 32 0 52 7 7 12 19
12 28 0 8 7 29 16 45 10 19 16 60 17 115 2 71 -2 93 -21 131 -31 63 -51 79
-110 86 -45 5 -55 3 -82 -20 -17 -15 -50 -54 -73 -88 l-42 -62 -100 -1 c-110
-1 -124 5 -161 77 -19 36 -27 44 -71 75 -35 25 -53 26 -103 8z m502 -128 c-7
-7 -12 -8 -12 -2 0 14 12 26 19 19 2 -3 -1 -11 -7 -17z"/>
<path d="M2080 3035 c0 -28 65 -298 85 -351 14 -38 27 -73 28 -78 1 -6 -14
-11 -33 -13 -106 -9 -150 -16 -150 -24 0 -17 105 -16 126 1 15 13 51 0 92 -35
34 -28 42 -20 18 18 -30 46 -77 181 -101 289 -35 158 -46 198 -56 198 -5 0 -9
-2 -9 -5z"/>
<path d="M3082 2977 c-6 -23 -18 -88 -27 -145 -19 -119 -43 -193 -86 -270 -32
-57 -34 -75 -4 -42 12 14 31 20 59 20 23 1 61 5 86 10 25 4 47 6 49 4 3 -2
-11 -21 -30 -42 -90 -96 -286 -346 -326 -414 -30 -50 -6 -50 27 0 24 37 148
194 274 347 61 74 80 119 56 127 -6 2 -43 1 -83 -3 -39 -3 -73 -4 -75 -3 -2 1
5 19 16 41 21 41 38 95 47 156 4 22 15 86 24 143 18 104 13 152 -7 71z"/>
<path d="M4310 2979 c0 -5 5 -7 10 -4 6 3 10 8 10 11 0 2 -4 4 -10 4 -5 0 -10
-5 -10 -11z"/>
<path d="M690 2963 c0 -6 8 -17 18 -24 16 -13 16 -13 2 6 -8 11 -16 22 -17 24
-2 2 -3 0 -3 -6z"/>
<path d="M2593 2830 c0 -25 2 -35 4 -22 2 12 2 32 0 45 -2 12 -4 2 -4 -23z"/>
<path d="M2577 2759 c-3 -13 -1 -19 6 -16 15 5 22 37 9 37 -5 0 -12 -9 -15
-21z"/>
<path d="M4696 2754 c-20 -20 -20 -33 0 -55 11 -13 13 -22 6 -36 -13 -23 -18
-95 -8 -111 4 -7 17 -12 28 -12 19 0 20 2 6 18 -23 27 -17 178 8 197 18 14 18
14 -3 15 -12 0 -29 -7 -37 -16z"/>
<path d="M2570 2720 c0 -5 5 -10 10 -10 6 0 10 5 10 10 0 6 -4 10 -10 10 -5 0
-10 -4 -10 -10z"/>
<path d="M2333 2673 c5 -4 52 -37 105 -73 89 -60 97 -68 95 -95 -1 -17 -12
-38 -24 -47 -59 -49 -160 12 -193 117 -22 70 -30 67 -15 -5 10 -45 22 -63 82
-126 83 -87 83 -86 91 -144 7 -46 45 -112 46 -78 0 9 -8 36 -18 60 -11 24 -18
62 -17 88 3 58 0 53 35 73 38 23 51 78 25 107 -10 11 -14 20 -10 20 5 0 -21
14 -56 31 -35 18 -71 38 -79 45 -17 14 -79 40 -67 27z"/>
<path d="M2760 2614 c-120 -63 -125 -67 -133 -111 -6 -29 -2 -34 40 -62 26
-17 52 -31 59 -31 7 0 14 -5 16 -12 3 -8 15 -2 34 15 16 15 32 27 36 27 12 0
88 122 88 142 0 28 -17 13 -25 -21 -8 -38 -67 -105 -106 -121 -28 -12 -36 -11
-75 10 -31 16 -44 29 -44 44 0 31 6 36 113 100 81 49 121 77 105 76 -2 -1 -50
-26 -108 -56z"/>
<path d="M490 2536 c0 -8 9 -18 20 -21 11 -3 20 -14 20 -22 0 -9 7 -24 16 -34
14 -16 14 -21 -5 -63 -19 -43 -22 -46 -58 -46 -28 0 -34 -3 -23 -10 24 -15 66
-12 82 8 8 9 24 37 36 60 l20 44 -29 16 c-35 20 -38 32 -6 25 22 -4 22 -4 2
12 -11 9 -32 23 -47 31 -25 13 -28 13 -28 0z"/>
<path d="M2000 2543 c0 -5 22 -34 48 -64 58 -64 65 -73 183 -214 50 -60 101
-125 113 -142 11 -18 29 -35 38 -38 9 -4 20 -15 23 -26 4 -10 13 -19 20 -19
11 0 12 6 6 23 -5 12 -17 71 -27 130 -9 59 -21 110 -25 113 -14 8 -11 -40 7
-117 9 -38 14 -74 12 -80 -2 -6 -38 34 -81 88 -103 132 -289 346 -304 351 -7
2 -13 0 -13 -5z"/>
<path d="M1284 2530 c-25 -10 -41 -30 -25 -30 19 0 12 -17 -13 -28 l-24 -11
28 -58 c33 -69 58 -85 110 -69 l35 10 -40 4 c-48 4 -63 16 -82 61 -12 29 -12
37 2 67 9 19 19 34 24 34 4 0 16 7 27 15 19 14 19 14 -1 14 -11 0 -30 -4 -41
-9z"/>
<path d="M4696 2515 c-19 -20 -22 -60 -3 -49 6 4 5 -1 -4 -12 -9 -10 -19 -28
-23 -38 -14 -39 26 7 46 53 20 48 12 74 -16 46z"/>
<path d="M4731 2479 c-12 -28 -20 -54 -17 -57 4 -3 -4 -16 -16 -29 -25 -27 -9
-31 28 -7 34 23 43 9 14 -21 -23 -24 -23 -25 -3 -25 22 0 33 18 33 51 0 12 -7
19 -20 19 -24 0 -25 17 -4 70 24 60 10 59 -15 -1z"/>
<path d="M2607 2443 c-7 -12 -5 -63 2 -63 4 0 8 16 9 35 3 33 -2 44 -11 28z"/>
<path d="M2510 2369 c0 -6 13 -24 29 -40 35 -34 75 -38 93 -9 7 11 21 20 32
20 16 0 17 -5 12 -32 -4 -18 -18 -50 -31 -70 -29 -44 -33 -67 -9 -47 22 18 74
111 68 121 -3 4 0 8 6 8 7 0 10 6 8 13 -3 6 -9 12 -14 12 -5 0 -14 3 -20 7
-12 8 -84 -1 -82 -11 2 -20 -5 -21 -29 -6 -16 10 -32 24 -36 32 -10 16 -27 17
-27 2z"/>
<path d="M3916 2363 c-3 -4 -1 -12 5 -19 7 -8 7 -14 -1 -19 -22 -13 -11 -56
20 -73 17 -9 33 -25 36 -34 3 -9 13 -20 23 -23 13 -4 16 -13 13 -35 -3 -21 0
-30 10 -30 8 0 19 -5 26 -12 24 -24 51 -16 63 19 15 45 6 52 -17 14 -19 -32
-41 -43 -30 -15 5 13 1 15 -19 10 -27 -7 -32 3 -13 22 6 6 12 23 14 37 2 22 0
24 -11 15 -21 -17 -40 -7 -40 21 -1 14 -6 23 -14 21 -7 -1 -24 7 -38 18 -24
19 -24 20 -5 20 11 0 24 4 27 10 13 21 -32 69 -49 53z"/>
<path d="M459 2312 c6 -11 23 -29 38 -40 l27 -20 -18 -58 c-21 -66 -60 -149
-76 -159 -5 -3 -10 -17 -10 -31 0 -19 5 -24 25 -24 39 0 158 35 214 63 l49 25
24 -54 c12 -29 27 -54 31 -54 13 0 -3 60 -30 114 -24 47 -25 48 -39 27 -20
-28 -72 -54 -163 -81 -40 -12 -80 -24 -87 -27 -8 -3 2 21 21 53 30 50 85 195
85 224 0 5 -10 12 -22 16 -13 3 -36 16 -52 27 l-28 20 11 -21z"/>
<path d="M1345 2305 c-22 -14 -44 -26 -49 -28 -24 -8 59 -244 97 -276 23 -18
22 0 -3 41 -20 35 -40 86 -64 169 l-15 48 40 23 c21 12 39 28 39 35 0 16 2 17
-45 -12z"/>
<path d="M4720 2320 c-12 -7 -8 -10 15 -10 l30 -1 -27 -22 c-15 -12 -36 -29
-47 -37 -25 -18 -19 -56 10 -63 20 -5 27 9 7 15 -16 6 -3 37 19 45 29 11 43
30 43 57 0 28 -21 34 -50 16z"/>
<path d="M2426 2287 c3 -10 9 -15 12 -12 3 3 0 11 -7 18 -10 9 -11 8 -5 -6z"/>
<path d="M2810 2293 c0 -8 -25 -134 -35 -180 -3 -13 -12 -23 -21 -23 -15 0
-112 -94 -141 -138 -35 -51 1 -30 63 37 36 39 71 71 78 71 20 0 43 51 60 134
19 91 20 106 6 106 -5 0 -10 -3 -10 -7z"/>
<path d="M2760 2279 c0 -5 -4 -8 -10 -4 -8 5 -34 -42 -53 -97 -12 -33 2 -18
24 25 12 23 31 52 42 65 11 12 15 22 9 22 -7 0 -12 -5 -12 -11z"/>
<path d="M2550 2221 c0 -15 16 -22 35 -15 13 5 14 8 3 15 -18 12 -38 11 -38 0z"/>
<path d="M4630 2220 c0 -5 5 -10 10 -10 6 0 10 5 10 10 0 6 -4 10 -10 10 -5 0
-10 -4 -10 -10z"/>
<path d="M4638 2168 c10 -13 10 -17 0 -21 -11 -4 -11 -9 0 -27 16 -27 15 -29
-26 -32 -23 -2 -32 -7 -32 -20 0 -10 5 -18 10 -18 6 0 10 -5 10 -11 0 -22 -44
-4 -50 21 -6 23 -8 22 -20 -17 -7 -24 -17 -43 -21 -43 -5 0 -6 7 -3 15 4 8 1
15 -5 15 -18 0 -51 -39 -72 -83 -10 -23 -19 -36 -19 -30 0 16 -62 85 -111 124
l-39 31 0 -32 c0 -23 4 -31 14 -27 18 7 95 -58 107 -89 14 -38 44 -30 71 19
16 29 31 43 48 45 14 2 29 8 35 13 5 5 24 9 41 9 28 0 33 4 36 28 2 19 9 28
26 30 15 2 22 11 23 25 1 12 2 29 3 37 0 8 11 16 24 18 26 4 30 22 5 22 -10 0
-29 3 -43 7 -22 6 -23 4 -12 -9z"/>
<path d="M1076 2047 c-34 -69 -45 -107 -28 -107 4 1 21 30 37 65 17 36 35 65
40 65 6 0 21 -7 33 -16 25 -17 209 -84 232 -83 31 0 -21 27 -113 59 -51 17
-108 44 -128 60 l-36 29 -37 -72z"/>
<path d="M4110 2113 c0 -3 8 -24 17 -45 17 -38 39 -54 29 -20 -3 9 -8 29 -12
45 -3 15 -12 27 -20 27 -8 0 -14 -3 -14 -7z"/>
<path d="M4177 2103 c-11 -10 -8 -73 3 -73 6 0 10 5 10 12 0 7 6 6 18 -4 9 -8
23 -18 29 -22 18 -10 4 26 -14 37 -7 4 -13 19 -13 32 0 24 -18 33 -33 18z"/>
<path d="M2447 2077 c-5 -14 130 -163 140 -154 10 10 -28 64 -80 115 -39 39
-56 50 -60 39z"/>
<path d="M855 1994 c-8 -54 0 -69 16 -28 l11 29 14 -27 c18 -34 24 -35 24 -5
0 22 -37 77 -52 77 -3 0 -9 -21 -13 -46z"/>
<path d="M970 2038 c0 -2 -9 -27 -20 -55 -12 -31 -16 -53 -9 -53 5 0 15 13 20
29 12 33 33 32 44 -2 7 -20 8 -20 15 8 4 17 8 41 8 55 1 24 1 24 -12 -5 l-13
-30 -8 28 c-4 15 -11 27 -16 27 -5 0 -9 -1 -9 -2z"/>
<path d="M790 2011 c0 -11 -3 -27 -7 -37 -5 -13 -3 -16 9 -11 10 3 19 0 22 -9
3 -9 10 -12 16 -9 6 4 2 21 -10 46 -23 43 -30 48 -30 20z"/>
<path d="M0 1700 c0 -7 860 -10 2560 -10 1700 0 2560 3 2560 10 0 7 -860 10
-2560 10 -1700 0 -2560 -3 -2560 -10z"/>
<path d="M4055 1423 c-29 -37 -64 -121 -65 -155 0 -10 7 -37 15 -62 15 -43 14
-46 -9 -91 -14 -25 -28 -73 -32 -106 -4 -37 -11 -58 -18 -56 -6 2 -25 24 -43
48 -29 41 -32 51 -35 141 -6 133 -18 136 -18 5 0 -101 1 -108 29 -149 16 -24
43 -51 60 -61 17 -10 31 -22 31 -28 0 -5 4 -9 9 -9 6 0 7 23 4 54 -6 59 15
138 47 179 19 24 19 25 -2 67 -19 38 -20 49 -10 96 6 30 24 73 40 96 40 60 44
68 35 68 -4 0 -21 -17 -38 -37z"/>
<path d="M4566 1442 c-4 -13 -5 -45 -1 -72 5 -34 2 -56 -9 -77 -25 -50 -39
-56 -80 -36 -32 15 -36 21 -36 54 0 41 -18 89 -33 89 -5 0 -6 -8 -1 -17 4 -10
8 -42 10 -72 l2 -54 52 -20 52 -19 29 33 c35 42 42 77 31 154 -6 48 -10 55
-16 37z"/>
<path d="M4600 1452 c0 -5 11 -36 25 -70 14 -34 25 -75 25 -92 0 -31 -31 -104
-50 -115 -6 -4 -2 -18 11 -36 28 -39 49 -111 49 -166 0 -39 2 -43 25 -43 74 0
126 70 124 167 -1 66 -15 163 -18 123 -2 -14 -2 -60 -1 -102 1 -83 -13 -125
-52 -152 -42 -30 -55 -21 -61 39 -3 30 -17 79 -30 109 l-25 54 21 34 c29 47
28 118 -3 196 -22 54 -40 79 -40 54z"/>
<path d="M4102 1415 c-23 -86 -24 -93 -7 -129 24 -49 40 -61 68 -49 12 6 34
15 50 22 24 9 27 15 26 53 l-2 43 -10 -37 c-8 -28 -18 -40 -40 -48 -45 -15
-55 -13 -72 21 -14 26 -14 38 -4 83 14 64 6 98 -9 41z"/>
<path d="M848 1420 c-4 -8 -12 -32 -18 -52 -11 -37 -24 -41 -57 -15 -9 6 -13
6 -13 -1 0 -13 20 -28 48 -37 19 -5 25 -1 38 30 8 21 13 49 11 64 -2 18 -5 21
-9 11z"/>
<path d="M880 1420 c0 -6 16 -27 34 -48 34 -36 36 -37 63 -22 31 18 62 65 49
77 -5 4 -11 2 -14 -6 -3 -8 -16 -26 -30 -40 l-25 -25 -34 37 c-35 39 -43 44
-43 27z"/>
<path d="M1055 1390 c8 -24 15 -50 15 -60 0 -20 38 -30 104 -29 71 1 89 17 21
18 -91 2 -100 6 -116 59 -8 25 -20 47 -27 50 -8 2 -8 -8 3 -38z"/>
<path d="M4371 1385 c-3 -62 -11 -75 -48 -75 -26 0 -36 5 -40 20 -7 25 -23 26
-23 1 0 -28 21 -40 69 -39 36 0 44 4 52 26 7 17 7 39 1 62 l-10 35 -1 -30z"/>
<path d="M731 1323 l-1 -33 -77 -1 c-94 -1 -72 -17 25 -18 70 -1 81 9 64 56
l-10 28 -1 -32z"/>
<path d="M2466 1299 l-90 -50 -48 48 c-26 26 -48 41 -48 33 0 -8 21 -36 47
-62 l46 -47 26 18 c14 10 61 36 103 59 l78 41 109 -58 108 -58 52 49 c28 26
51 53 51 60 0 7 -23 -10 -50 -37 -28 -28 -53 -49 -56 -48 -2 1 -47 25 -100 52
-52 28 -105 51 -117 51 -12 -1 -62 -23 -111 -51z"/>
<path d="M2247 1333 c-2 -4 -8 -47 -12 -95 -8 -97 -7 -97 -75 -73 -45 16 -65
14 -33 -3 11 -6 42 -19 70 -30 l51 -19 7 109 c6 101 4 132 -8 111z"/>
<path d="M2917 1318 c-3 -13 -9 -64 -13 -115 l-7 -92 64 20 c65 20 97 39 67
39 -8 0 -35 -7 -58 -15 -23 -8 -45 -15 -48 -15 -2 0 -1 45 3 100 6 96 3 125
-8 78z"/>
<path d="M2573 1275 c0 -22 2 -30 4 -17 2 12 2 30 0 40 -3 9 -5 -1 -4 -23z"/>
<path d="M1210 1277 c-35 -16 -36 -17 -20 -27 8 -6 35 -9 60 -9 33 0 40 3 25
8 -11 5 -24 6 -29 3 -4 -2 -5 5 -1 17 7 23 1 25 -35 8z"/>
<path d="M590 1251 c0 -5 9 -12 19 -16 31 -10 6 -60 -39 -78 -22 -8 -39 -23
-43 -36 -3 -11 -2 -21 3 -21 4 0 10 8 13 19 3 12 17 21 40 25 35 7 65 31 53
43 -3 3 1 17 9 29 8 13 11 25 7 27 -19 11 -62 16 -62 8z"/>
<path d="M3811 1213 c-26 -92 -34 -173 -22 -225 12 -55 70 -133 115 -158 15
-7 29 -24 32 -36 3 -12 18 -34 34 -49 28 -27 28 -28 12 -61 -8 -19 -24 -37
-35 -40 -12 -4 -15 -10 -10 -15 5 -5 16 -7 24 -4 15 6 59 68 59 84 0 5 -16 28
-35 51 -19 23 -35 48 -35 55 0 7 -15 23 -34 35 -52 32 -91 81 -106 135 -12 42
-11 62 4 152 18 106 16 146 -3 76z"/>
<path d="M4820 1224 c0 -9 9 -49 21 -88 39 -131 18 -199 -87 -277 -30 -22 -67
-58 -82 -81 -15 -23 -31 -47 -37 -54 -17 -24 51 -121 71 -101 4 4 1 13 -7 20
-9 6 -23 24 -31 38 -15 24 -15 28 17 75 18 27 61 71 95 97 103 80 121 153 75
304 -25 81 -35 100 -35 67z"/>
<path d="M1250 1200 c0 -24 65 -70 100 -70 22 0 19 4 -20 26 -47 27 -62 43
-54 56 3 4 -2 8 -10 8 -9 0 -16 -9 -16 -20z"/>
<path d="M2100 1153 c0 -6 9 -28 20 -50 11 -21 40 -85 65 -142 l47 -105 -36
-80 c-43 -100 -98 -257 -92 -264 7 -6 23 33 86 195 28 73 55 135 60 138 9 6
-102 258 -130 295 -11 14 -20 20 -20 13z"/>
<path d="M3023 1115 c-66 -129 -125 -276 -115 -288 9 -10 82 -236 95 -292 3
-11 5 -2 6 20 0 23 -18 94 -42 169 l-44 128 64 136 c35 75 62 143 60 152 -2 9
-11 -1 -24 -25z"/>
<path d="M550 1095 c-7 -8 -8 -15 -2 -15 13 0 24 -47 17 -70 -3 -10 -18 -23
-33 -28 -23 -8 -24 -11 -9 -17 10 -4 27 0 43 10 25 16 26 20 20 68 -8 60 -18
74 -36 52z"/>
<path d="M1315 1080 c-18 -34 -19 -61 -4 -113 10 -35 13 -38 37 -32 41 10 53
27 17 23 -27 -3 -31 0 -39 36 -9 32 -7 45 11 77 16 30 18 39 7 39 -7 0 -20
-13 -29 -30z"/>
<path d="M2770 1012 c-85 -57 -168 -120 -176 -134 -6 -10 -5 -10 7 -2 8 7 55
41 104 77 122 89 131 96 125 96 -3 0 -30 -17 -60 -37z"/>
<path d="M2350 1025 c0 -2 35 -28 78 -56 101 -68 135 -97 146 -123 6 -14 10
-17 13 -8 3 8 -7 27 -23 43 -33 34 -167 129 -183 129 -6 0 -11 5 -11 10 0 6
-4 10 -10 10 -5 0 -10 -2 -10 -5z"/>
<path d="M516 925 c3 -16 10 -42 16 -57 8 -22 5 -33 -16 -64 -28 -42 -27 -57
3 -30 31 28 47 75 33 97 -7 10 -12 25 -12 32 0 7 -7 22 -15 33 -14 18 -15 17
-9 -11z"/>
<path d="M545 940 c-3 -6 1 -13 10 -16 19 -8 30 0 20 15 -8 14 -22 14 -30 1z"/>
<path d="M600 931 c0 -6 5 -13 10 -16 6 -3 10 1 10 9 0 9 -4 16 -10 16 -5 0
-10 -4 -10 -9z"/>
<path d="M1280 925 c0 -8 5 -15 10 -15 6 0 10 7 10 15 0 8 -4 15 -10 15 -5 0
-10 -7 -10 -15z"/>
<path d="M1361 916 c-13 -16 -6 -42 15 -50 17 -6 18 -1 4 25 -7 13 -7 19 0 19
5 0 10 5 10 10 0 14 -16 12 -29 -4z"/>
<path d="M4648 862 c-33 -20 -37 -32 -8 -25 11 3 20 10 20 15 0 5 5 6 10 3 6
-3 10 1 10 9 0 9 -1 16 -2 15 -2 0 -15 -8 -30 -17z"/>
<path d="M1324 837 c-6 -16 30 -115 58 -164 32 -53 41 -38 12 19 -14 28 -32
69 -40 90 -12 34 -11 40 1 44 8 4 15 10 15 15 0 14 -40 10 -46 -4z"/>
<path d="M2536 802 l-19 -27 24 22 c12 12 21 24 18 27 -2 2 -13 -8 -23 -22z"/>
<path d="M533 758 c-25 -12 -32 -34 -8 -24 23 8 18 -7 -15 -49 -17 -21 -28
-41 -25 -44 10 -9 64 53 80 92 17 40 10 45 -32 25z"/>
<path d="M1290 700 c0 -25 -3 -62 -6 -82 -5 -25 -3 -38 5 -38 6 0 11 12 11 28
0 15 3 37 6 50 6 22 6 22 41 -8 55 -48 60 -34 8 23 -27 28 -52 56 -57 62 -4 5
-8 -11 -8 -35z"/>
<path d="M591 692 c-1 -7 -23 -27 -51 -44 -27 -17 -50 -32 -50 -34 0 -1 15 2
33 7 59 19 62 18 67 -36 l6 -50 8 57 c5 35 4 67 -2 85 -6 15 -11 22 -11 15z"/>
<path d="M1241 645 c-22 -53 -24 -81 -6 -109 22 -33 29 -28 15 9 -8 20 -8 30
0 35 7 4 10 26 8 51 l-4 44 -13 -30z"/>
<path d="M630 617 c0 -27 -5 -57 -10 -68 -6 -10 -7 -19 -2 -19 5 0 13 10 19
23 8 18 10 15 9 -23 -1 -40 1 -45 21 -43 19 2 22 -4 29 -60 6 -50 8 -57 14
-36 7 26 -4 126 -15 137 -6 6 -20 -11 -28 -33 -3 -5 -7 -7 -11 -4 -3 3 -1 20
5 38 13 36 6 88 -16 117 -13 17 -14 15 -15 -29z"/>
<path d="M4622 591 c-9 -39 -9 -40 19 -50 29 -10 42 2 14 13 -30 11 -17 36 20
36 19 0 35 4 35 9 0 5 -12 9 -27 9 -15 0 -29 5 -31 11 -7 22 -20 10 -30 -28z"/>
<path d="M3977 609 c-10 -6 -25 -8 -33 -5 -8 3 -14 1 -14 -4 0 -6 16 -10 35
-10 19 0 38 -1 42 -2 4 -2 9 5 11 15 4 19 -14 22 -41 6z"/>
<path d="M2200 576 c-25 -18 -54 -43 -65 -56 l-20 -23 30 17 c17 9 44 27 61
41 l32 26 33 -43 c19 -24 37 -47 41 -53 4 -5 21 -26 38 -45 l31 -35 -20 40
c-11 22 -42 68 -68 102 l-49 61 -44 -32z"/>
<path d="M2848 538 c-60 -65 -101 -124 -97 -137 2 -6 32 25 67 68 34 44 71 83
82 86 13 4 31 -2 50 -15 21 -15 30 -17 30 -8 0 12 -61 58 -77 58 -4 0 -29 -24
-55 -52z"/>
<path d="M4015 568 c-4 -9 -20 -22 -36 -28 -16 -7 -29 -19 -29 -28 0 -13 2
-13 18 1 10 10 25 17 33 17 28 0 42 16 31 36 -10 17 -11 17 -17 2z"/>
<path d="M1182 508 c-15 -49 -23 -128 -13 -128 5 0 12 24 15 53 9 72 19 86 48
68 23 -13 23 -13 -1 13 -31 34 -37 33 -49 -6z"/>
<path d="M4600 528 c0 -2 14 -15 31 -27 18 -13 29 -19 25 -12 -4 6 -2 11 5 11
21 0 -3 18 -33 25 -16 4 -28 5 -28 3z"/>
<path d="M4003 509 c-18 -5 -35 -14 -38 -19 -8 -13 7 -13 41 0 15 6 35 8 45 5
20 -7 49 -64 49 -96 0 -11 5 -19 11 -19 15 0 3 66 -20 105 -19 33 -39 38 -88
24z"/>
<path d="M4559 496 c-17 -22 -39 -81 -39 -100 1 -6 12 10 25 36 30 58 35 60
68 43 39 -20 33 -1 -6 22 -33 20 -33 20 -48 -1z"/>
<path d="M741 444 c-7 -37 -10 -69 -7 -72 6 -5 10 5 24 58 l10 35 20 -45 c11
-25 26 -72 33 -105 11 -50 14 -55 17 -30 6 48 -18 136 -50 183 -16 23 -31 42
-32 42 -2 0 -9 -30 -15 -66z"/>
<path d="M1095 474 c-28 -36 -54 -125 -55 -184 0 -44 16 -7 29 64 13 72 36
122 45 95 25 -77 24 -77 24 -29 0 25 -3 56 -7 69 -6 23 -7 23 -36 -15z"/>
<path d="M2380 475 c0 -17 5 -37 10 -45 7 -11 10 -12 10 -2 0 21 14 12 90 -62
39 -38 74 -66 77 -62 4 4 -37 50 -90 104 -93 93 -97 96 -97 67z"/>
<path d="M4114 485 c5 -11 13 -40 19 -65 l11 -45 6 34 5 34 71 -67 c40 -36 75
-66 78 -66 26 0 -39 68 -144 152 -38 30 -52 37 -46 23z"/>
<path d="M4439 429 c-92 -78 -121 -107 -114 -118 2 -5 28 14 57 41 29 27 65
59 81 69 l27 20 1 -28 c0 -22 4 -16 19 27 10 30 18 56 16 57 -1 2 -40 -29 -87
-68z"/>
<path d="M2665 395 c-49 -46 -86 -87 -82 -91 4 -4 34 18 66 50 39 39 61 54 66
46 5 -7 14 4 26 31 11 23 18 43 16 45 -2 2 -43 -34 -92 -81z"/>
<path d="M970 353 c-23 -27 -44 -43 -46 -38 -10 25 -44 75 -51 75 -5 0 -8 -29
-8 -65 -1 -36 3 -65 7 -65 4 0 8 13 8 29 0 17 5 33 10 36 6 3 10 2 10 -4 0 -6
10 -16 22 -22 19 -10 25 -8 49 22 24 29 29 31 29 14 2 -27 10 -68 14 -73 3 -2
6 28 8 67 1 39 0 71 -4 71 -3 0 -25 -21 -48 -47z"/>
</g>
</svg>
