<?xml version="1.0" standalone="no"?>
<!DOCTYPE svg PUBLIC "-//W3C//DTD SVG 20010904//EN"
 "http://www.w3.org/TR/2001/REC-SVG-20010904/DTD/svg10.dtd">
<svg version="1.0" xmlns="http://www.w3.org/2000/svg"
 width="512.000000pt" height="768.000000pt" viewBox="0 0 512.000000 768.000000"
 preserveAspectRatio="xMidYMid meet">
<metadata>
Created by potrace 1.16, written by Peter Selinger 2001-2019
</metadata>
<g transform="translate(0.000000,768.000000) scale(0.100000,-0.100000)"
fill="#000000" stroke="none">
<path d="M1057 7673 c-4 -3 -7 -11 -7 -17 0 -6 5 -5 12 2 6 6 9 14 7 17 -3 3
-9 2 -12 -2z"/>
<path d="M1131 7671 c-9 -6 -10 -11 -2 -15 6 -4 11 -2 11 5 0 9 3 9 14 0 11
-9 16 -9 22 1 4 7 4 10 -1 6 -4 -4 -13 -4 -19 2 -7 5 -18 5 -25 1z"/>
<path d="M1985 7673 c4 -9 -2 -13 -16 -13 -25 0 -21 -9 7 -14 11 -2 25 -6 33
-8 7 -1 15 3 17 10 1 7 0 8 -3 2 -2 -6 -14 0 -25 12 -11 13 -17 17 -13 11z"/>
<path d="M1211 7654 c0 -11 3 -14 6 -6 3 7 2 16 -1 19 -3 4 -6 -2 -5 -13z"/>
<path d="M1457 7664 c7 -3 9 -12 7 -19 -4 -9 1 -13 14 -12 16 1 18 4 8 19 -6
10 -18 18 -26 17 -9 0 -11 -2 -3 -5z"/>
<path d="M1546 7659 c3 -5 10 -7 15 -3 5 3 15 2 22 -3 7 -5 18 -8 25 -7 6 1
19 2 27 3 8 0 15 4 15 9 0 4 -25 8 -55 9 -31 1 -53 -3 -49 -8z"/>
<path d="M1847 7655 c-4 -8 -2 -17 3 -20 6 -4 10 1 10 10 0 9 5 13 10 10 6 -3
10 -1 10 4 0 16 -27 13 -33 -4z"/>
<path d="M670 7651 c0 -5 7 -12 16 -15 14 -5 15 -4 4 9 -14 17 -20 19 -20 6z"/>
<path d="M785 7650 c-3 -5 1 -10 10 -10 9 0 13 5 10 10 -3 6 -8 10 -10 10 -2
0 -7 -4 -10 -10z"/>
<path d="M920 7650 c-13 -8 -12 -10 3 -10 9 0 17 5 17 10 0 12 -1 12 -20 0z"/>
<path d="M1021 7651 c-8 -5 -9 -11 -3 -15 5 -3 12 1 16 9 6 17 6 18 -13 6z"/>
<path d="M1253 7650 c3 -14 13 -15 69 -7 31 5 28 13 -7 15 -18 1 -37 -3 -40
-9 -6 -8 -10 -7 -17 2 -8 11 -9 11 -5 -1z"/>
<path d="M1400 7650 c0 -5 5 -10 10 -10 6 0 10 5 10 10 0 6 -4 10 -10 10 -5 0
-10 -4 -10 -10z"/>
<path d="M1706 7648 c3 -5 10 -6 15 -3 13 9 11 12 -6 12 -8 0 -12 -4 -9 -9z"/>
<path d="M1750 7645 c7 -8 16 -12 21 -9 16 9 10 20 -12 21 -17 2 -18 -1 -9
-12z"/>
<path d="M538 7643 c7 -3 16 -2 19 1 4 3 -2 6 -13 5 -11 0 -14 -3 -6 -6z"/>
<path d="M835 7640 c4 -6 11 -8 16 -5 14 9 11 15 -7 15 -8 0 -12 -5 -9 -10z"/>
<path d="M603 7603 c-4 -9 -1 -19 5 -21 7 -2 12 -11 12 -21 0 -28 23 -51 45
-45 16 4 20 14 22 50 1 34 -2 44 -14 44 -12 0 -15 -8 -10 -40 3 -22 3 -40 0
-40 -2 0 -13 20 -24 45 -22 50 -27 53 -36 28z"/>
<path d="M835 7610 c-4 -6 -5 -23 -3 -38 3 -24 0 -27 -25 -25 -39 3 -29 -21
10 -25 32 -3 43 13 43 65 0 25 -15 39 -25 23z"/>
<path d="M480 7565 c0 -45 0 -45 35 -45 21 0 35 5 35 13 0 7 7 4 15 -7 8 -11
16 -18 17 -15 30 49 33 60 14 53 -11 -4 -13 0 -10 18 5 23 5 23 -10 3 -31 -40
-37 -45 -57 -45 -16 0 -20 6 -17 28 2 22 7 26 26 24 12 -2 22 2 22 7 0 6 -16
11 -35 11 -35 0 -35 0 -35 -45z"/>
<path d="M712 7563 c2 -26 7 -46 12 -43 6 3 9 22 7 44 -2 25 1 36 8 32 6 -4
11 -23 11 -42 0 -21 5 -34 13 -34 10 0 12 11 8 43 -5 37 -9 42 -34 45 -28 3
-28 3 -25 -45z"/>
<path d="M780 7601 c0 -20 13 -41 21 -35 15 9 10 44 -6 44 -8 0 -15 -4 -15 -9z"/>
<path d="M876 7579 c-9 -47 -7 -59 8 -59 9 0 12 8 9 24 -3 13 0 32 6 43 9 15
10 12 11 -19 0 -20 5 -40 11 -43 16 -11 18 -3 12 43 -5 35 -9 42 -28 42 -17 0
-24 -7 -29 -31z"/>
<path d="M960 7563 c0 -29 4 -43 13 -43 9 0 12 11 9 35 -3 27 -1 35 12 35 12
0 16 -9 16 -35 0 -24 5 -35 15 -35 10 0 15 10 15 33 0 44 -10 56 -48 55 -31
-1 -32 -2 -32 -45z"/>
<path d="M1060 7577 c0 -41 15 -57 53 -57 32 0 33 24 1 26 -35 2 -39 6 -14 13
15 4 26 15 28 29 3 19 -1 22 -32 22 -34 0 -36 -2 -36 -33z m50 8 c0 -8 -7 -15
-15 -15 -16 0 -20 12 -8 23 11 12 23 8 23 -8z"/>
<path d="M1160 7591 c5 -11 10 -31 10 -44 0 -18 6 -26 25 -29 36 -7 38 1 8 36
-26 31 -26 31 -5 34 36 5 25 22 -13 22 -32 0 -35 -2 -25 -19z"/>
<path d="M1271 7591 c-24 -44 -3 -86 40 -79 24 3 48 33 36 44 -4 4 -13 -1 -21
-11 -17 -23 -46 -13 -46 15 0 26 27 37 52 21 17 -11 19 -10 16 6 -5 27 -63 30
-77 4z"/>
<path d="M1364 7560 c0 -35 4 -50 13 -50 14 0 16 21 7 69 -10 47 -20 37 -20
-19z"/>
<path d="M1396 7593 c-4 -10 -1 -20 9 -25 8 -5 15 -20 15 -33 0 -16 6 -25 15
-25 8 0 15 9 15 19 0 11 5 23 10 26 6 4 10 -5 10 -19 0 -14 4 -26 9 -26 5 0 9
22 8 50 -1 33 -6 50 -15 50 -7 0 -15 -7 -17 -15 -16 -49 -17 -50 -27 -17 -9
35 -22 41 -32 15z"/>
<path d="M1503 7564 c5 -45 12 -62 22 -52 9 8 -7 98 -17 98 -5 0 -7 -21 -5
-46z"/>
<path d="M1547 7603 c-3 -5 -4 -26 -3 -48 1 -37 3 -40 30 -40 16 0 31 6 34 13
3 9 -3 11 -22 6 -16 -4 -26 -2 -26 5 0 6 9 11 20 11 27 0 25 16 -2 25 -22 8
-22 8 5 12 15 2 27 9 27 14 0 11 -57 12 -63 2z"/>
<path d="M1624 7594 c3 -9 6 -29 6 -45 0 -17 6 -32 15 -36 19 -7 34 5 19 15
-18 11 -24 62 -8 62 8 0 14 5 14 10 0 6 -12 10 -26 10 -20 0 -25 -4 -20 -16z"/>
<path d="M1694 7585 c-20 -31 -10 -63 23 -71 34 -9 57 6 61 40 7 55 -53 78
-84 31z m63 -6 c18 -18 3 -49 -23 -49 -20 0 -24 5 -24 30 0 22 5 30 18 30 10
0 23 -5 29 -11z"/>
<path d="M1796 7563 c2 -52 19 -70 25 -26 6 41 -1 73 -15 73 -8 0 -11 -16 -10
-47z"/>
<path d="M1850 7559 c0 -34 4 -49 13 -49 9 0 13 12 13 38 -1 20 4 37 9 37 6 0
10 -13 10 -29 0 -40 22 -45 23 -5 0 17 6 37 13 43 9 8 10 0 6 -36 -3 -37 -1
-48 9 -48 9 0 14 11 14 28 0 15 3 36 6 48 5 20 2 21 -55 22 l-61 0 0 -49z"/>
<path d="M1992 7598 c-7 -7 -12 -24 -12 -38 0 -31 17 -50 45 -50 28 0 45 19
45 50 0 31 -17 50 -45 50 -12 0 -26 -5 -33 -12z m53 -38 c0 -15 -6 -26 -16
-28 -19 -3 -31 21 -22 43 9 25 38 13 38 -15z"/>
<path d="M1105 7480 c3 -5 12 -7 20 -3 21 7 19 13 -6 13 -11 0 -18 -4 -14 -10z"/>
<path d="M1198 7483 c7 -3 16 -2 19 1 4 3 -2 6 -13 5 -11 0 -14 -3 -6 -6z"/>
<path d="M1633 7483 c9 -2 25 -2 35 0 9 3 1 5 -18 5 -19 0 -27 -2 -17 -5z"/>
<path d="M1960 7486 c0 -2 7 -7 16 -10 8 -3 12 -2 9 4 -6 10 -25 14 -25 6z"/>
<path d="M2028 7483 c7 -3 16 -2 19 1 4 3 -2 6 -13 5 -11 0 -14 -3 -6 -6z"/>
<path d="M674 7448 l-19 -23 23 19 c21 18 27 26 19 26 -2 0 -12 -10 -23 -22z"/>
<path d="M1208 7449 c-22 -12 -23 -26 -3 -26 8 0 13 3 10 5 -3 3 0 11 6 19 13
15 10 16 -13 2z"/>
<path d="M813 7415 c0 -8 4 -12 9 -9 5 3 6 10 3 15 -9 13 -12 11 -12 -6z"/>
<path d="M770 7406 c7 -7 13 -7 20 0 6 6 3 10 -10 10 -13 0 -16 -4 -10 -10z"/>
<path d="M480 7365 c-26 -32 13 -81 48 -59 34 22 22 74 -18 74 -10 0 -23 -7
-30 -15z m53 -11 c11 -11 -5 -34 -24 -34 -12 0 -19 7 -19 20 0 19 28 28 43 14z"/>
<path d="M565 7371 c-9 -9 -5 -22 5 -16 6 3 10 -3 10 -14 0 -10 -6 -21 -12
-24 -7 -2 -9 -8 -5 -13 11 -12 37 24 31 41 -7 17 12 29 21 14 4 -6 2 -16 -4
-22 -6 -6 -11 -18 -10 -26 0 -11 2 -12 6 -3 4 10 8 10 19 1 8 -7 18 -9 21 -5
12 11 13 76 2 76 -5 0 -9 -6 -8 -12 1 -7 0 -24 -1 -38 -2 -20 -4 -19 -9 10 -5
30 -10 35 -34 35 -15 1 -30 -1 -32 -4z"/>
<path d="M673 7346 c3 -37 17 -63 17 -31 0 18 1 18 15 -1 14 -18 14 -17 15 12
0 16 5 35 12 42 9 9 4 12 -24 12 -36 0 -37 -1 -35 -34z m37 14 c0 -5 -4 -10
-10 -10 -5 0 -10 5 -10 10 0 6 5 10 10 10 6 0 10 -4 10 -10z"/>
<path d="M762 7368 c-28 -28 6 -78 44 -64 25 10 16 27 -11 20 -21 -5 -25 -3
-25 14 0 12 3 23 8 25 10 7 46 -24 54 -45 8 -19 46 -17 60 4 6 10 11 9 19 -5
6 -9 14 -15 20 -12 14 9 11 25 -6 25 -9 0 -15 9 -15 25 0 15 -6 25 -14 25 -9
0 -13 -8 -10 -22 l5 -23 -17 23 c-20 26 -44 29 -44 5 -1 -17 -1 -17 -14 0 -15
20 -37 22 -54 5z m108 -34 c0 -8 -7 -14 -15 -14 -8 0 -15 9 -15 20 0 13 5 18
15 14 8 -4 15 -12 15 -20z"/>
<path d="M920 7365 c0 -8 5 -15 10 -15 6 0 10 7 10 15 0 8 -4 15 -10 15 -5 0
-10 -7 -10 -15z"/>
<path d="M947 7359 c-6 -22 1 -49 12 -49 8 0 8 56 0 65 -4 3 -9 -4 -12 -16z"/>
<path d="M978 7345 c6 -50 19 -52 24 -5 3 31 0 40 -12 40 -12 0 -15 -8 -12
-35z"/>
<path d="M1052 7368 c-17 -17 -15 -32 7 -52 21 -19 56 -15 64 7 2 7 1 22 -4
35 -9 24 -47 30 -67 10z m54 -37 c-10 -16 -36 -13 -43 5 -8 22 18 37 36 20 7
-8 10 -19 7 -25z"/>
<path d="M1139 7376 c0 -1 -1 -16 -2 -34 -2 -35 2 -39 21 -20 10 10 15 10 22
-2 14 -23 88 -21 105 2 13 20 13 20 24 -1 13 -24 61 -29 61 -7 0 9 -7 12 -20
9 -23 -6 -39 22 -22 39 8 8 15 8 27 -2 12 -10 15 -10 15 4 0 22 -46 21 -60 -1
-9 -17 -11 -17 -20 -2 -7 13 -25 17 -80 16 -38 0 -70 0 -71 -1z m131 -41 c-7
-8 -16 -15 -21 -15 -14 0 -11 38 4 43 20 7 31 -11 17 -28z m-90 15 c0 -5 -7
-10 -15 -10 -8 0 -15 5 -15 10 0 6 7 10 15 10 8 0 15 -4 15 -10z m46 -1 c10
-17 -13 -36 -27 -22 -12 12 -4 33 11 33 5 0 12 -5 16 -11z"/>
<path d="M1392 7340 c0 -40 1 -40 40 -40 35 0 39 2 36 23 -2 16 -11 23 -30 25
-16 2 -28 7 -28 12 0 5 14 7 30 5 17 -2 30 1 30 6 0 5 -18 9 -39 9 -40 0 -40
0 -39 -40z m65 -13 c-1 -5 -6 -8 -10 -8 -4 1 -14 1 -22 1 -8 0 -15 3 -15 8 0
4 11 7 25 7 14 0 24 -4 22 -8z"/>
<path d="M866 7268 c3 -5 10 -6 15 -3 13 9 11 12 -6 12 -8 0 -12 -4 -9 -9z"/>
<path d="M178 7223 c7 -3 16 -2 19 1 4 3 -2 6 -13 5 -11 0 -14 -3 -6 -6z"/>
<path d="M3713 7193 c15 -2 39 -2 55 0 15 2 2 4 -28 4 -30 0 -43 -2 -27 -4z"/>
<path d="M3898 7193 c7 -3 16 -2 19 1 4 3 -2 6 -13 5 -11 0 -14 -3 -6 -6z"/>
<path d="M1608 7183 c7 -3 16 -2 19 1 4 3 -2 6 -13 5 -11 0 -14 -3 -6 -6z"/>
<path d="M2878 7183 c7 -3 16 -2 19 1 4 3 -2 6 -13 5 -11 0 -14 -3 -6 -6z"/>
<path d="M3097 7183 c18 -2 50 -2 70 0 21 2 7 4 -32 4 -38 0 -55 -2 -38 -4z"/>
<path d="M4938 7183 c18 -2 45 -2 60 0 15 2 0 4 -33 4 -33 0 -45 -2 -27 -4z"/>
<path d="M0 7145 c0 -13 305 -14 2560 -13 2096 2 2560 4 2560 15 0 11 -463 13
-2560 13 -2254 0 -2560 -2 -2560 -15z"/>
<path d="M1093 7083 c-16 -11 -27 -12 -41 -4 -11 6 -21 8 -24 6 -5 -6 -16 -6
-288 -6 -308 -1 -290 3 -290 -51 0 -20 7 -29 28 -36 l27 -10 -32 -1 -33 -1 0
-248 c0 -137 3 -252 7 -256 4 -4 6 -25 4 -46 -2 -27 2 -40 10 -40 10 0 10 -3
1 -12 -15 -15 -16 -64 -2 -73 6 -4 8 -10 5 -15 -3 -5 -1 -11 4 -15 6 -3 8 3 6
14 -3 14 1 18 16 14 20 -6 27 -23 8 -23 -5 0 -7 -5 -3 -11 4 -7 -4 -10 -22 -7
l-29 3 0 -296 c0 -309 3 -335 43 -322 14 4 14 3 3 -5 -8 -6 -20 -8 -28 -5 -16
6 -19 -62 -3 -72 8 -5 7 -11 -1 -21 -16 -19 -3 -64 19 -65 13 0 11 -3 -5 -9
-35 -14 -32 -65 5 -79 l27 -10 -30 2 -30 2 -3 -129 c-2 -83 -7 -135 -15 -145
-9 -12 -9 -13 0 -7 7 4 13 2 13 -3 0 -8 187 -10 622 -9 l623 3 1 146 0 147
-153 -5 -153 -5 10 26 c15 41 2 62 -37 57 -24 -3 -13 15 16 26 24 9 29 16 26
39 -2 17 4 34 14 42 14 12 14 12 -4 4 -33 -16 -96 -8 -113 14 -12 16 -14 16
-9 1 6 -15 0 -17 -38 -15 -25 0 -45 6 -45 12 0 7 -3 7 -8 -1 -4 -7 -21 -10
-37 -8 -17 2 -33 4 -37 4 -5 1 -8 10 -8 21 0 18 6 19 72 15 43 -2 78 1 85 7 9
7 13 7 13 -1 0 -7 6 -11 13 -10 32 4 47 -2 47 -21 0 -16 4 -18 24 -10 13 5 27
6 32 2 4 -4 4 -1 0 6 -4 7 -2 19 4 27 20 24 -1 17 -21 -7 -11 -11 -22 -18 -26
-14 -4 3 1 12 11 19 16 12 17 14 1 27 -9 7 -15 9 -13 3 3 -10 -4 -15 -17 -12
-3 1 -11 2 -17 3 -7 1 -12 8 -10 14 2 10 -3 10 -20 1 -19 -9 -21 -9 -10 2 15
17 16 51 0 67 -8 8 -64 13 -172 14 -89 2 7 5 212 8 l373 5 -2 245 c-1 135 -2
252 -2 260 -1 11 -11 14 -37 13 -75 -5 -910 -8 -910 -3 0 3 48 6 106 7 73 2
109 7 119 16 19 20 334 24 346 5 7 -10 9 -10 9 0 0 6 9 12 19 12 25 0 34 14
36 56 1 27 -1 31 -12 23 -9 -9 -13 -8 -13 0 0 7 -4 10 -9 6 -5 -3 -13 -1 -16
5 -4 7 -11 7 -18 2 -7 -5 -21 -12 -32 -15 -19 -7 -19 -6 -2 7 21 17 30 63 13
74 -6 4 80 9 192 12 l203 5 2 256 2 256 -233 -5 c-193 -4 -232 -2 -228 9 15
48 15 79 0 79 -9 0 -12 5 -8 13 6 9 4 9 -8 -1 -11 -9 -18 -10 -23 -2 -4 7 -12
7 -23 1 -12 -7 -22 -5 -32 4 -12 11 -19 10 -37 -2z m-443 -49 c0 -19 -5 -21
-84 -20 -88 1 -106 7 -88 28 7 9 38 13 91 13 76 0 81 -1 81 -21z m93 13 c-2
-4 -3 -13 -3 -21 0 -9 -12 -14 -35 -14 -37 0 -50 10 -42 32 5 13 84 16 80 3z
m135 -15 c4 -26 -13 -29 -27 -4 -10 16 -10 16 -11 0 0 -20 -20 -25 -21 -5 0
10 -2 10 -6 0 -12 -30 -57 -7 -46 23 2 6 26 10 56 9 45 -1 52 -5 55 -23z m60
0 c3 -16 -2 -22 -16 -22 -24 0 -35 23 -19 39 16 16 31 8 35 -17z m109 14 c3
-2 16 -1 29 5 19 7 26 5 30 -6 8 -21 -4 -48 -17 -39 -8 4 -7 9 2 15 11 7 10 9
-3 9 -10 0 -18 -6 -18 -12 0 -9 -4 -8 -10 2 -6 10 -10 11 -10 3 0 -20 -40 -15
-41 5 -1 16 -2 16 -6 0 -5 -20 -38 -24 -48 -8 -15 24 3 37 45 34 23 -1 44 -5
47 -8z m90 -6 c-3 -11 -1 -20 4 -20 5 0 9 6 9 14 0 8 13 16 30 18 27 4 30 2
30 -24 0 -30 -12 -36 -32 -15 -10 12 -15 12 -26 0 -7 -7 -18 -13 -23 -13 -10
0 -12 43 -2 53 12 12 15 7 10 -13z m-372 -50 c3 -5 1 -10 -4 -10 -6 0 -11 5
-11 10 0 6 2 10 4 10 3 0 8 -4 11 -10z m-228 -6 c-3 -3 -12 -4 -19 -1 -8 3 -5
6 6 6 11 1 17 -2 13 -5z m476 -1 c-7 -2 -21 -2 -30 0 -10 3 -4 5 12 5 17 0 24
-2 18 -5z m647 -255 l0 -233 -597 3 -598 2 -3 230 -2 230 600 0 600 0 0 -232z
m-1149 -278 c5 0 10 -8 10 -17 1 -17 2 -17 6 0 4 14 16 17 69 17 56 0 64 -2
64 -19 0 -16 -8 -19 -50 -19 -40 -1 -50 3 -51 16 -1 15 -2 15 -6 0 -3 -13 -15
-18 -44 -18 -35 0 -39 2 -39 26 0 20 4 25 16 20 9 -3 20 -6 25 -6z m759 -19
l0 -26 -81 3 c-67 3 -80 6 -75 19 3 8 6 17 6 19 0 2 5 4 11 4 6 0 8 -8 5 -17
-5 -16 -5 -16 6 -2 17 20 29 24 83 25 42 0 45 -2 45 -25z m-546 7 c-6 -10 -4
-10 7 0 19 18 60 16 53 -3 -4 -8 -2 -15 4 -15 5 0 12 6 15 14 4 9 22 14 55 14
44 0 49 -3 45 -19 -3 -11 -15 -19 -27 -20 -44 -1 -113 -1 -158 0 -41 1 -48 4
-48 21 0 16 7 20 31 20 21 0 28 -4 23 -12z m317 0 c0 -10 2 -10 6 0 8 20 53
15 53 -7 0 -17 -8 -19 -71 -20 -40 0 -74 -3 -77 -6 -8 -8 -32 16 -32 31 0 19
120 20 121 2z m6 -54 c-3 -3 -12 -4 -19 -1 -8 3 -5 6 6 6 11 1 17 -2 13 -5z
m-118 -25 c392 -1 421 -2 421 -18 0 -15 -11 -17 -90 -17 -54 0 -90 5 -90 11 0
7 -3 7 -8 0 -4 -5 -14 -10 -22 -10 -8 0 -18 5 -22 10 -5 7 -8 7 -8 0 0 -15
-110 -17 -110 -2 0 7 -4 6 -10 -3 -8 -12 -11 -13 -19 -1 -7 11 -10 11 -15 0
-5 -11 -7 -11 -12 -1 -3 6 -10 12 -15 12 -6 0 -7 -4 -4 -10 4 -6 -12 -10 -39
-10 -30 0 -46 4 -46 13 0 8 -3 9 -8 1 -11 -16 -112 -18 -112 -2 0 9 -3 9 -8 2
-4 -7 -50 -11 -124 -10 -104 0 -118 2 -118 17 0 17 18 30 32 22 4 -2 196 -4
427 -4z m-344 -69 c-3 -5 -10 -10 -16 -10 -5 0 -9 5 -9 10 0 6 7 10 16 10 8 0
12 -4 9 -10z m280 2 c-9 -9 -265 -10 -259 -1 3 5 63 8 135 7 71 0 127 -3 124
-6z m70 -2 c-6 -10 -55 -9 -55 1 0 4 13 7 30 7 16 -1 27 -4 25 -8z m-392 -27
c-7 -2 -19 -2 -25 0 -7 3 -2 5 12 5 14 0 19 -2 13 -5z m95 0 c-16 -2 -40 -2
-55 0 -16 2 -3 4 27 4 30 0 43 -2 28 -4z m82 -3 c0 -5 -4 -10 -10 -10 -5 0
-10 5 -10 10 0 6 5 10 10 10 6 0 10 -4 10 -10z m940 -260 l0 -240 -600 0 -601
0 1 240 1 240 600 0 599 0 0 -240z m-1160 -264 c0 -2 -9 -6 -20 -9 -11 -3 -20
-1 -20 4 0 5 9 9 20 9 11 0 20 -2 20 -4z m332 -3 c-62 -2 -161 -2 -220 0 -59
1 -8 3 113 3 121 0 169 -2 107 -3z m-87 -43 c0 -13 -22 -15 -137 -15 -126 -1
-138 1 -138 17 0 17 11 18 138 16 114 -3 137 -6 137 -18z m165 -2 c0 -16 -9
-18 -75 -18 -65 0 -75 2 -75 18 0 16 10 18 75 18 66 1 75 -1 75 -18z m40 10
c0 -9 3 -10 8 -2 5 7 58 11 160 11 140 -1 152 -3 152 -19 0 -16 -9 -18 -85
-17 -72 1 -85 4 -85 18 -1 14 -2 14 -11 -1 -8 -15 -24 -18 -84 -18 -68 0 -75
2 -75 20 0 11 5 20 10 20 6 0 10 -6 10 -12z m167 -65 c-8 -7 -37 9 -31 19 3 5
12 4 20 -3 8 -6 13 -14 11 -16z m-550 11 c-3 -3 -12 -4 -19 -1 -8 3 -5 6 6 6
11 1 17 -2 13 -5z m87 -3 c-8 -9 -64 -8 -64 1 0 5 16 8 35 6 19 -1 32 -4 29
-7z m64 2 c-10 -2 -26 -2 -35 0 -10 3 -2 5 17 5 19 0 27 -2 18 -5z m47 -3 c3
-5 2 -10 -4 -10 -5 0 -13 5 -16 10 -3 6 -2 10 4 10 5 0 13 -4 16 -10z m105 0
c0 -5 -2 -10 -4 -10 -3 0 -8 5 -11 10 -3 6 -1 10 4 10 6 0 11 -4 11 -10z m57
4 c-3 -3 -12 -4 -19 -1 -8 3 -5 6 6 6 11 1 17 -2 13 -5z m66 -1 c-7 -2 -21 -2
-30 0 -10 3 -4 5 12 5 17 0 24 -2 18 -5z m162 -3 c3 -5 2 -10 -4 -10 -5 0 -13
5 -16 10 -3 6 -2 10 4 10 5 0 13 -4 16 -10z m101 2 c-8 -8 -78 -8 -82 0 -3 5
15 7 40 6 26 0 44 -3 42 -6z m-496 -44 c0 -16 -10 -18 -85 -18 -61 0 -85 4
-86 13 0 10 -2 10 -6 0 -3 -8 -25 -13 -59 -13 -45 0 -54 3 -54 18 0 17 12 18
145 18 132 0 145 -2 145 -18z m40 2 c0 -11 -6 -20 -13 -20 -7 0 -13 9 -14 20
-1 11 4 20 13 20 8 0 14 -9 14 -20z m290 -6 c0 -21 -4 -24 -31 -22 -17 1 -33
6 -35 10 -3 5 -13 4 -22 -1 -19 -9 -178 -8 -188 2 -4 3 -4 12 -1 20 4 11 35
14 141 14 l136 0 0 -23z m-563 -40 c-3 -3 -12 -4 -19 -1 -8 3 -5 6 6 6 11 1
17 -2 13 -5z m250 0 c-3 -3 -12 -4 -19 -1 -8 3 -5 6 6 6 11 1 17 -2 13 -5z
m33 -23 c-5 -10 -6 -21 -3 -25 4 -4 -30 -6 -75 -5 -53 1 -82 6 -82 13 0 8 -3
8 -8 -1 -7 -10 -61 -16 -140 -14 -26 1 -33 5 -30 18 3 15 19 17 131 17 71 1
134 -2 139 -5 16 -10 69 11 61 24 -3 6 -1 7 5 3 8 -5 9 -13 2 -25z m110 -1
c25 1 213 2 238 1 14 -1 22 -7 22 -18 0 -16 -15 -18 -170 -18 -125 0 -172 3
-182 13 -18 18 7 32 46 26 17 -3 38 -5 46 -4z m467 -3 c-2 -7 -14 -11 -26 -10
-11 2 -21 -1 -21 -5 0 -4 -34 -9 -75 -10 -58 -2 -75 0 -75 11 0 21 3 22 105
24 71 1 95 -1 92 -10z m-724 -54 c-7 -2 -21 -2 -30 0 -10 3 -4 5 12 5 17 0 24
-2 18 -5z m537 -3 c0 -5 -4 -10 -10 -10 -5 0 -10 5 -10 10 0 6 5 10 10 10 6 0
10 -4 10 -10z m128 -10 c7 -11 21 -20 32 -20 21 0 25 -7 12 -27 -9 -15 -93 -7
-104 10 -5 8 -8 8 -8 1 0 -7 -13 -14 -30 -16 -26 -4 -30 -1 -30 19 0 22 3 23
60 20 61 -3 69 0 48 21 -7 7 -8 12 -2 12 5 0 15 -9 22 -20z m-683 -10 c9 -1
146 -1 360 1 154 1 175 -2 175 -21 0 -15 -10 -17 -70 -18 -56 -1 -70 2 -70 14
0 8 -5 12 -10 9 -6 -4 -8 -10 -5 -15 3 -4 -74 -8 -170 -8 -157 -1 -175 1 -176
16 -1 16 -2 16 -6 1 -3 -14 -19 -17 -104 -16 -88 0 -99 2 -99 18 0 12 9 19 28
21 25 3 124 2 147 -2z m602 -66 c-3 -3 -12 -4 -19 -1 -8 3 -5 6 6 6 11 1 17
-2 13 -5z m413 -146 l0 -123 -600 -1 -601 -1 3 123 3 124 598 0 597 0 0 -122z"/>
<path d="M678 7033 c7 -3 16 -2 19 1 4 3 -2 6 -13 5 -11 0 -14 -3 -6 -6z"/>
<path d="M780 7035 c0 -8 5 -15 10 -15 6 0 10 7 10 15 0 8 -4 15 -10 15 -5 0
-10 -7 -10 -15z"/>
<path d="M910 7030 c0 -5 5 -10 10 -10 6 0 10 5 10 10 0 6 -4 10 -10 10 -5 0
-10 -4 -10 -10z"/>
<path d="M970 7030 c0 -5 5 -10 10 -10 6 0 10 5 10 10 0 6 -4 10 -10 10 -5 0
-10 -4 -10 -10z"/>
<path d="M1025 7030 c-3 -5 -1 -10 4 -10 6 0 11 5 11 10 0 6 -2 10 -4 10 -3 0
-8 -4 -11 -10z"/>
<path d="M1185 7030 c-3 -5 -1 -10 4 -10 6 0 11 5 11 10 0 6 -2 10 -4 10 -3 0
-8 -4 -11 -10z"/>
<path d="M1402 6931 c-8 -5 29 -6 85 -4 130 6 140 11 23 12 -52 0 -101 -3
-108 -8z"/>
<path d="M1628 6872 c5 -99 10 -107 11 -20 0 42 -3 79 -7 82 -4 2 -6 -25 -4
-62z"/>
<path d="M490 6723 c0 -113 2 -204 5 -202 2 3 5 93 6 202 1 171 4 197 18 200
10 3 8 5 -6 6 l-23 1 0 -207z"/>
<path d="M558 6923 c12 -2 30 -2 40 0 9 3 -1 5 -23 4 -22 0 -30 -2 -17 -4z"/>
<path d="M773 6923 c76 -2 198 -2 270 0 73 1 11 3 -138 3 -148 0 -208 -2 -132
-3z"/>
<path d="M1188 6923 c7 -3 16 -2 19 1 4 3 -2 6 -13 5 -11 0 -14 -3 -6 -6z"/>
<path d="M1247 6923 c18 -2 50 -2 70 0 21 2 7 4 -32 4 -38 0 -55 -2 -38 -4z"/>
<path d="M1630 6651 c0 -116 -1 -120 -22 -124 -20 -4 -19 -4 5 -6 l27 -1 0
125 c0 69 -2 125 -5 125 -3 0 -5 -54 -5 -119z"/>
<path d="M588 6523 c6 -2 18 -2 25 0 6 3 1 5 -13 5 -14 0 -19 -2 -12 -5z"/>
<path d="M1308 6523 c6 -2 18 -2 25 0 6 3 1 5 -13 5 -14 0 -19 -2 -12 -5z"/>
<path d="M1558 6523 c7 -3 16 -2 19 1 4 3 -2 6 -13 5 -11 0 -14 -3 -6 -6z"/>
<path d="M690 6430 c0 -5 5 -10 10 -10 6 0 10 5 10 10 0 6 -4 10 -10 10 -5 0
-10 -4 -10 -10z"/>
<path d="M490 5997 c0 -116 2 -208 5 -205 3 3 6 95 7 205 l1 199 224 -1 c123
-1 218 2 211 7 -7 4 -111 7 -230 7 l-218 -1 0 -211z"/>
<path d="M965 6199 c4 -5 65 -9 137 -9 72 0 129 2 127 5 -9 9 -269 13 -264 4z"/>
<path d="M1558 6203 c7 -3 16 -2 19 1 4 3 -2 6 -13 5 -11 0 -14 -3 -6 -6z"/>
<path d="M1628 6005 l3 -204 -158 -4 -158 -3 163 -2 162 -2 0 210 c0 116 -3
210 -7 210 -5 0 -7 -92 -5 -205z"/>
<path d="M901 5594 c0 -11 3 -14 6 -6 3 7 2 16 -1 19 -3 4 -6 -2 -5 -13z"/>
<path d="M1628 5253 c3 -74 1 -89 -14 -100 -17 -12 -16 -13 4 -13 21 0 22 4
22 100 0 55 -3 100 -7 100 -5 0 -7 -39 -5 -87z"/>
<path d="M490 5233 c0 -53 3 -93 6 -90 4 4 6 45 5 91 l-2 85 33 4 33 4 -37 1
-38 2 0 -97z"/>
<path d="M803 5163 c65 -2 168 -2 230 0 62 1 9 3 -118 3 -126 0 -177 -2 -112
-3z"/>
<path d="M548 5153 c12 -2 32 -2 45 0 12 2 2 4 -23 4 -25 0 -35 -2 -22 -4z"/>
<path d="M1463 5143 c20 -2 54 -2 75 0 20 2 3 4 -38 4 -41 0 -58 -2 -37 -4z"/>
<path d="M2175 7082 c-1 -2 -46 -4 -99 -4 -58 -1 -96 -5 -96 -11 0 -6 -3 -7
-7 -4 -8 8 -33 -12 -33 -26 0 -6 7 -2 15 9 15 18 15 17 11 -13 -3 -24 0 -33
10 -34 28 -3 32 -4 41 -12 4 -5 -9 -7 -30 -6 l-38 4 1 -249 c0 -137 3 -253 7
-259 3 -6 7 -24 8 -41 1 -17 5 -39 9 -48 5 -11 4 -18 -3 -18 -16 0 -13 -36 5
-54 8 -9 12 -20 9 -26 -3 -6 4 -15 17 -20 20 -9 18 -10 -15 -7 l-38 2 1 -259
c0 -143 2 -262 4 -264 2 -1 13 -4 24 -5 11 0 18 -5 16 -9 -3 -5 -9 -6 -14 -3
-16 10 -20 -28 -5 -57 12 -25 12 -29 1 -25 -11 5 -13 -3 -9 -36 2 -23 10 -45
16 -50 9 -6 9 -10 0 -14 -7 -2 -13 -18 -13 -34 0 -16 5 -29 13 -29 8 -1 7 -4
-3 -13 -8 -7 -16 -18 -18 -25 -4 -21 18 -54 33 -48 8 3 17 0 21 -6 5 -7 -5 -9
-30 -6 -20 2 -36 2 -36 -2 0 -3 -1 -70 -3 -150 l-2 -145 637 3 637 2 3 149 3
149 -147 -5 c-101 -3 -148 -1 -148 6 0 6 4 11 9 11 9 0 8 46 -2 56 -2 3 -19 7
-37 9 -42 6 -48 12 -26 28 21 15 12 45 -18 58 -15 6 -11 7 16 3 39 -6 95 2 84
13 -3 3 -1 12 5 19 12 14 -7 14 -30 0 -8 -5 -50 -10 -94 -10 -59 -1 -81 2 -85
12 -3 8 0 17 6 21 17 10 92 0 92 -13 0 -6 4 -5 9 3 5 8 29 15 58 16 64 3 65 4
59 14 -3 5 -19 7 -36 6 -17 -1 -32 1 -35 5 -2 4 -17 6 -32 4 -15 -1 -33 2 -40
8 -10 8 -12 7 -8 -4 5 -13 -2 -15 -35 -13 -22 1 -44 6 -48 10 -4 4 0 6 8 5 49
-7 60 -1 60 35 0 19 -1 36 -2 37 -2 1 -142 5 -313 8 -288 5 -274 6 212 8 382
1 524 5 529 14 4 7 3 8 -5 4 -9 -6 -11 53 -9 251 l3 258 -140 -2 c-385 -7
-715 -7 -715 0 0 4 23 7 50 7 28 0 50 4 50 10 0 5 -16 7 -35 5 -19 -3 -35 -1
-35 4 0 15 134 7 148 -9 11 -13 12 -13 10 0 -3 17 -4 17 228 20 l140 2 -4 30
c-3 16 -11 32 -18 35 -8 3 -12 8 -10 12 3 4 -18 6 -46 4 -34 -1 -47 2 -41 8 6
6 7 24 3 45 l-8 34 209 0 208 0 3 258 3 257 -355 -3 c-289 -2 -352 0 -340 10
9 7 14 21 12 31 -2 10 2 26 9 35 7 9 10 14 5 10 -5 -4 -18 -2 -29 4 -18 9
-343 19 -352 10z m-54 -47 c0 -18 1 -18 10 3 5 13 15 22 21 20 16 -6 23 -48 9
-48 -6 0 -11 8 -11 18 -1 16 -1 16 -11 0 -14 -24 -54 -25 -45 -1 6 16 6 16
-11 0 -11 -9 -24 -13 -31 -8 -7 4 -24 6 -38 3 -17 -3 -24 0 -24 12 0 9 7 16
16 16 9 0 12 -5 8 -12 -4 -7 1 -6 10 3 11 10 33 16 57 15 32 0 39 -4 40 -21z
m94 -1 c0 -10 -8 -20 -17 -22 -18 -3 -26 27 -11 42 12 11 28 0 28 -20z m38 4
c-4 -23 -4 -23 12 -3 10 13 29 21 56 22 36 1 40 -1 37 -20 -2 -17 -10 -22 -35
-24 -24 -1 -30 2 -26 13 3 8 1 14 -5 14 -5 0 -12 -7 -16 -15 -6 -17 -32 -20
-41 -5 -8 13 1 40 14 40 5 0 7 -10 4 -22z m188 -3 c1 -16 2 -15 8 5 5 18 9 21
15 12 15 -25 -2 -42 -43 -42 -30 0 -40 4 -44 19 -6 25 -3 28 33 27 23 -1 30
-6 31 -21z m79 10 c-1 -5 -8 -9 -16 -7 -8 2 -14 -2 -14 -8 0 -5 5 -10 11 -10
5 0 7 -4 4 -10 -3 -5 -10 -10 -16 -10 -10 0 -12 43 -2 54 10 10 34 3 33 -9z
m-180 -61 c0 -2 -21 -4 -47 -3 -37 1 -42 3 -23 8 24 7 70 3 70 -5z m-217 -1
c-18 -2 -48 -2 -65 0 -18 2 -4 4 32 4 36 0 50 -2 33 -4z m1077 -255 l0 -233
-615 0 -615 0 0 233 0 232 615 0 615 0 0 -232z m-412 -303 c3 -22 0 -27 -13
-21 -9 3 -46 6 -82 6 -55 0 -64 2 -61 17 2 9 9 18 17 21 10 3 12 0 8 -12 -4
-9 -2 -16 3 -16 6 0 10 6 10 14 0 15 29 22 85 20 25 0 31 -5 33 -29z m-518 11
c0 -6 -4 -16 -8 -22 -6 -10 -20 -11 -89 -5 -7 1 -13 8 -13 17 0 8 -4 13 -10 9
-5 -3 -7 -12 -4 -20 4 -10 0 -12 -15 -8 -12 3 -18 10 -14 17 5 8 3 8 -8 -1 -8
-6 -39 -13 -69 -14 -50 -3 -55 -1 -58 18 -3 21 0 21 142 21 102 0 146 -4 146
-12z m34 -3 c-5 -17 -5 -17 6 0 12 19 60 24 60 5 0 -9 3 -9 12 0 18 18 38 14
38 -7 0 -26 -15 -34 -38 -22 -11 6 -22 8 -25 4 -4 -3 -22 -7 -42 -9 -31 -3
-35 -1 -35 21 0 15 6 25 15 25 9 0 12 -6 9 -17z m316 -3 c0 -24 -9 -30 -35
-20 -13 5 -26 6 -29 3 -3 -3 -29 -6 -58 -6 -45 0 -53 3 -56 20 -3 19 3 20 87
20 79 0 91 -2 91 -17z m278 -90 c2 -13 -18 -15 -135 -16 -87 0 -141 3 -146 10
-6 8 -10 7 -14 -1 -2 -7 -16 -13 -29 -13 -13 0 -24 6 -24 13 0 8 -4 7 -11 -3
-9 -12 -12 -13 -16 -1 -5 11 -7 11 -14 0 -8 -12 -11 -11 -19 1 -6 10 -10 11
-10 3 0 -10 -55 -12 -247 -10 -226 2 -248 4 -251 19 -3 16 26 17 455 15 400
-2 458 -4 461 -17z m-868 -50 c0 -5 -9 -10 -21 -10 -11 0 -17 5 -14 10 3 6 13
10 21 10 8 0 14 -4 14 -10z m76 2 c-3 -5 -20 -9 -38 -10 -23 -1 -28 2 -18 8
19 12 63 13 56 2z m34 -2 c0 -5 -4 -10 -10 -10 -5 0 -10 5 -10 10 0 6 5 10 10
10 6 0 10 -4 10 -10z m228 4 c-10 -9 -208 -12 -208 -4 0 5 48 8 107 9 59 1
104 -1 101 -5z m-305 -31 c-7 -2 -19 -2 -25 0 -7 3 -2 5 12 5 14 0 19 -2 13
-5z m70 0 c-7 -2 -19 -2 -25 0 -7 3 -2 5 12 5 14 0 19 -2 13 -5z m147 3 c0 -3
-4 -8 -10 -11 -5 -3 -10 -1 -10 4 0 6 5 11 10 11 6 0 10 -2 10 -4z m80 -8 c0
-4 -16 -7 -35 -5 -46 3 -46 17 0 15 19 -1 35 -5 35 -10z m840 -259 l0 -239
-615 0 -615 0 0 239 0 239 615 0 615 -1 0 -238z m-1087 -266 c-13 -2 -33 -2
-45 0 -13 2 -3 4 22 4 25 0 35 -2 23 -4z m60 0 c-7 -2 -19 -2 -25 0 -7 3 -2 5
12 5 14 0 19 -2 13 -5z m-21 -43 c6 -13 7 -13 7 2 1 14 12 17 76 15 64 -1 75
-4 75 -18 0 -16 -15 -17 -160 -16 -147 0 -160 2 -160 18 0 16 9 18 78 17 58
-2 79 -6 84 -18z m278 -2 c0 -15 -9 -18 -55 -18 -48 0 -55 3 -55 20 0 17 7 19
55 18 46 -2 55 -5 55 -20z m360 0 c0 -16 -9 -18 -65 -18 -45 0 -65 4 -65 13 0
8 -2 9 -8 1 -4 -7 -45 -12 -104 -13 -89 -2 -98 0 -98 16 0 18 12 19 170 19
157 0 170 -1 170 -18z m-740 -43 c0 -7 -30 -13 -34 -7 -3 4 4 9 15 9 10 1 19
0 19 -2z m37 -1 c-3 -3 -12 -4 -19 -1 -8 3 -5 6 6 6 11 1 17 -2 13 -5z m33 -4
c0 -5 -2 -10 -4 -10 -3 0 -8 5 -11 10 -3 6 -1 10 4 10 6 0 11 -4 11 -10z m122
1 c-12 -7 -62 -4 -62 5 0 2 17 4 38 4 23 0 32 -3 24 -9z m38 -1 c0 -5 -2 -10
-4 -10 -3 0 -8 5 -11 10 -3 6 -1 10 4 10 6 0 11 -4 11 -10z m167 4 c-3 -3 -12
-4 -19 -1 -8 3 -5 6 6 6 11 1 17 -2 13 -5z m110 0 c-3 -3 -12 -4 -19 -1 -8 3
-5 6 6 6 11 1 17 -2 13 -5z m48 -4 c3 -6 -1 -7 -9 -4 -18 7 -21 14 -7 14 6 0
13 -4 16 -10z m65 6 c0 -3 -4 -8 -10 -11 -5 -3 -10 -1 -10 4 0 6 5 11 10 11 6
0 10 -2 10 -4z m37 -2 c-3 -3 -12 -4 -19 -1 -8 3 -5 6 6 6 11 1 17 -2 13 -5z
m-561 -27 c112 -1 121 -2 116 -19 -4 -17 -15 -23 -36 -19 -5 1 -60 2 -123 2
l-113 1 0 25 c0 20 3 24 18 18 9 -5 71 -8 138 -8z m282 -16 c-4 -23 -19 -31
-39 -21 -9 5 -19 6 -23 3 -3 -3 -23 -6 -43 -6 -30 0 -39 4 -41 20 -3 18 3 20
73 20 65 1 75 -1 73 -16z m159 -2 c-1 -15 -9 -19 -39 -20 -21 0 -53 -1 -70 -2
-26 -1 -34 4 -36 20 -3 20 2 21 72 21 67 0 74 -2 73 -19z m153 0 c0 -17 -8
-19 -70 -19 -63 0 -70 2 -70 20 0 18 6 20 70 19 62 -1 70 -3 70 -20z m-703
-45 c-3 -3 -12 -4 -19 -1 -8 3 -5 6 6 6 11 1 17 -2 13 -5z m240 0 c-3 -3 -12
-4 -19 -1 -8 3 -5 6 6 6 11 1 17 -2 13 -5z m-175 -37 c6 -9 8 -8 8 4 0 13 12
15 78 12 42 -2 82 -5 87 -5 6 -1 19 2 30 5 16 6 21 3 21 -13 0 -11 -4 -20 -8
-20 -4 -1 -66 -1 -138 -1 -71 0 -143 0 -160 1 -30 0 -43 24 -18 32 23 8 92 -2
100 -15z m638 3 c1 -13 2 -13 10 1 12 20 115 19 115 -2 0 -10 -18 -15 -67 -17
-51 -2 -68 0 -68 10 0 10 -2 10 -8 1 -12 -18 -192 -20 -203 -2 -6 10 -9 11 -9
2 0 -10 -24 -13 -85 -13 -64 0 -85 3 -85 13 0 8 2 16 4 18 3 2 93 4 200 4 168
0 196 -2 196 -15z m-550 -53 c-18 -9 -24 -19 -22 -34 2 -13 -1 -23 -7 -23 -6
0 -11 5 -11 10 0 6 -5 10 -11 10 -5 0 -8 -4 -5 -8 3 -5 -8 -9 -25 -10 -20 0
-27 3 -22 11 4 8 1 8 -9 -1 -16 -12 -82 -11 -95 2 -17 17 21 28 90 27 55 -1
78 3 87 14 7 8 22 15 34 14 20 -1 19 -1 -4 -12z m77 7 c-3 -3 -12 -4 -19 -1
-8 3 -5 6 6 6 11 1 17 -2 13 -5z m79 -7 c4 -4 0 -7 -9 -7 -9 0 -18 4 -21 9 -7
10 20 9 30 -2z m386 5 c-13 -4 -23 -10 -23 -14 4 -48 4 -48 -74 -48 -64 0 -75
2 -76 18 -1 16 -2 16 -6 0 -5 -21 -23 -24 -23 -5 0 8 -4 7 -10 -3 -9 -13 -11
-13 -20 0 -6 9 -10 10 -10 3 0 -16 -170 -14 -170 1 0 6 -4 4 -10 -4 -11 -18
-25 -7 -17 14 6 15 47 17 310 16 80 0 97 2 97 15 0 10 9 15 28 14 25 -1 26 -1
4 -7z m75 2 c-3 -3 -12 -4 -19 -1 -8 3 -5 6 6 6 11 1 17 -2 13 -5z m38 -4 c3
-5 2 -10 -4 -10 -5 0 -13 5 -16 10 -3 6 -2 10 4 10 5 0 13 -4 16 -10z m-565
-36 c0 -23 -3 -25 -42 -22 -31 2 -44 8 -46 20 -3 13 6 18 40 21 24 2 44 4 46
5 1 1 2 -10 2 -24z m470 4 c0 -10 2 -10 8 0 6 9 29 11 87 7 44 -3 81 -7 82 -9
2 -2 1 -10 -2 -18 -5 -11 -18 -15 -48 -12 -23 1 -68 3 -99 3 -51 1 -58 3 -58
21 0 11 7 20 15 20 8 0 15 -6 15 -12z m-593 -54 c-3 -3 -12 -4 -19 -1 -8 3 -5
6 6 6 11 1 17 -2 13 -5z m80 0 c-3 -3 -12 -4 -19 -1 -8 3 -5 6 6 6 11 1 17 -2
13 -5z m963 -146 l0 -123 -611 0 -611 0 -3 123 -3 122 614 0 614 0 0 -122z"/>
<path d="M2055 7041 c-3 -5 -1 -12 5 -16 5 -3 10 1 10 9 0 18 -6 21 -15 7z"/>
<path d="M2330 7029 c0 -5 5 -7 10 -4 6 3 10 8 10 11 0 2 -4 4 -10 4 -5 0 -10
-5 -10 -11z"/>
<path d="M2391 7034 c0 -11 3 -14 6 -6 3 7 2 16 -1 19 -3 4 -6 -2 -5 -13z"/>
<path d="M2902 6935 c2 -3 61 -5 131 -6 l126 0 4 -37 4 -37 1 43 2 42 -137 0
c-75 0 -134 -2 -131 -5z"/>
<path d="M2013 6923 c9 -2 23 -2 30 0 6 3 -1 5 -18 5 -16 0 -22 -2 -12 -5z"/>
<path d="M2262 6923 c70 -2 187 -2 260 0 73 1 16 3 -127 3 -143 0 -203 -2
-133 -3z"/>
<path d="M2011 6894 c0 -11 3 -14 6 -6 3 7 2 16 -1 19 -3 4 -6 -2 -5 -13z"/>
<path d="M3164 6745 c0 -60 1 -84 3 -52 2 32 2 81 0 110 -2 29 -3 3 -3 -58z"/>
<path d="M2024 6725 c0 -60 1 -84 3 -52 2 32 2 81 0 110 -2 29 -3 3 -3 -58z"/>
<path d="M3155 6569 c-4 -6 -5 -12 -2 -15 2 -3 7 2 10 11 7 17 1 20 -8 4z"/>
<path d="M2010 6535 c0 -8 4 -15 10 -15 5 0 7 7 4 15 -4 8 -8 15 -10 15 -2 0
-4 -7 -4 -15z"/>
<path d="M3150 6530 c0 -5 5 -10 10 -10 6 0 10 5 10 10 0 6 -4 10 -10 10 -5 0
-10 -4 -10 -10z"/>
<path d="M2093 6523 c15 -2 37 -2 50 0 12 2 0 4 -28 4 -27 0 -38 -2 -22 -4z"/>
<path d="M2203 6523 c9 -2 25 -2 35 0 9 3 1 5 -18 5 -19 0 -27 -2 -17 -5z"/>
<path d="M2803 6523 c48 -2 126 -2 175 0 48 1 8 3 -88 3 -96 0 -136 -2 -87 -3z"/>
<path d="M3078 6523 c7 -3 16 -2 19 1 4 3 -2 6 -13 5 -11 0 -14 -3 -6 -6z"/>
<path d="M3118 6523 c7 -3 16 -2 19 1 4 3 -2 6 -13 5 -11 0 -14 -3 -6 -6z"/>
<path d="M2007 6153 c6 -80 11 -89 12 -21 1 43 5 59 19 67 15 9 14 10 -9 11
-25 0 -25 -1 -22 -57z"/>
<path d="M2061 6205 c7 -7 649 -8 656 -1 4 3 -144 6 -327 6 -183 0 -331 -2
-329 -5z"/>
<path d="M2908 6203 c7 -3 16 -2 19 1 4 3 -2 6 -13 5 -11 0 -14 -3 -6 -6z"/>
<path d="M3128 6203 c7 -3 16 -2 19 1 4 3 -2 6 -13 5 -11 0 -14 -3 -6 -6z"/>
<path d="M3159 6193 c0 -10 -2 -26 -4 -35 -2 -10 1 -18 6 -18 5 0 9 16 9 35 0
35 -9 50 -11 18z"/>
<path d="M3164 6025 c0 -55 1 -76 3 -47 2 29 2 74 0 100 -2 26 -3 2 -3 -53z"/>
<path d="M2018 6033 c-2 -5 0 -46 3 -93 l5 -85 2 93 c2 83 -1 106 -10 85z"/>
<path d="M3161 5894 c0 -11 3 -14 6 -6 3 7 2 16 -1 19 -3 4 -6 -2 -5 -13z"/>
<path d="M3151 5844 c0 -11 3 -14 6 -6 3 7 2 16 -1 19 -3 4 -6 -2 -5 -13z"/>
<path d="M2003 5805 c0 -11 4 -12 14 -4 7 6 13 13 13 15 0 2 -6 4 -13 4 -8 0
-14 -7 -14 -15z"/>
<path d="M3150 5799 c0 -5 5 -7 10 -4 6 3 10 8 10 11 0 2 -4 4 -10 4 -5 0 -10
-5 -10 -11z"/>
<path d="M2873 5793 c32 -2 81 -2 110 0 29 2 3 3 -58 3 -60 0 -84 -1 -52 -3z"/>
<path d="M2000 5235 c0 -58 4 -95 10 -95 6 0 8 11 4 25 -3 14 -3 54 1 90 l7
64 71 4 72 3 -82 2 -83 2 0 -95z"/>
<path d="M2268 5323 c7 -3 16 -2 19 1 4 3 -2 6 -13 5 -11 0 -14 -3 -6 -6z"/>
<path d="M2308 5323 c6 -2 18 -2 25 0 6 3 1 5 -13 5 -14 0 -19 -2 -12 -5z"/>
<path d="M2943 5323 c20 -2 54 -2 75 0 20 2 3 4 -38 4 -41 0 -58 -2 -37 -4z"/>
<path d="M3083 5323 c15 -2 37 -2 50 0 12 2 0 4 -28 4 -27 0 -38 -2 -22 -4z"/>
<path d="M3163 5290 c0 -25 2 -35 4 -22 2 12 2 32 0 45 -2 12 -4 2 -4 -23z"/>
<path d="M2393 5163 c48 -2 126 -2 175 0 48 1 8 3 -88 3 -96 0 -136 -2 -87 -3z"/>
<path d="M2728 5163 c7 -3 16 -2 19 1 4 3 -2 6 -13 5 -11 0 -14 -3 -6 -6z"/>
<path d="M2098 5153 c29 -2 74 -2 100 0 26 2 2 3 -53 3 -55 0 -76 -1 -47 -3z"/>
<path d="M2883 5143 c53 -2 141 -2 195 0 53 1 9 3 -98 3 -107 0 -151 -2 -97
-3z"/>
<path d="M3532 7079 c-9 -4 -20 -5 -24 -2 -5 2 -8 -1 -8 -7 0 -6 -4 -9 -8 -6
-4 2 -6 -11 -4 -29 3 -26 11 -37 31 -44 l26 -10 -30 2 -30 2 -3 -249 c-2 -189
1 -252 10 -264 7 -9 8 -13 3 -10 -15 9 -6 -65 9 -74 8 -6 7 -8 -1 -8 -22 0
-15 -58 8 -70 11 -7 23 -9 26 -6 4 3 12 1 19 -5 7 -6 15 -6 18 -1 3 5 17 7 32
4 39 -7 10 -20 -38 -16 -33 3 -39 1 -34 -12 5 -12 0 -15 -22 -12 l-27 3 -3
-258 c-2 -200 -5 -257 -15 -252 -6 4 -3 -1 8 -9 11 -9 26 -14 34 -11 11 5 11
2 -2 -13 -20 -22 -22 -58 -4 -66 10 -5 10 -7 0 -12 -16 -7 -17 -66 -2 -81 8
-8 8 -13 0 -17 -6 -4 -11 -20 -11 -37 0 -23 4 -29 23 -30 l22 0 -22 -11 c-28
-14 -31 -62 -5 -78 13 -8 13 -10 2 -9 -8 1 -19 1 -25 0 -6 -1 -8 -52 -5 -143
l5 -143 637 -3 637 -2 3 148 3 148 -175 -3 c-102 -2 -170 0 -162 5 12 8 15 25
10 62 -1 10 -13 17 -30 18 -16 1 -39 9 -51 16 -12 8 -34 12 -49 11 -17 -2 -28
1 -28 8 0 8 -3 7 -9 -2 -6 -9 -10 -10 -16 -2 -12 21 14 38 57 36 35 -1 43 -5
48 -24 3 -12 10 -21 15 -19 6 2 9 5 9 8 -1 3 -5 15 -9 28 -5 17 -2 22 13 22
10 0 29 8 41 19 18 16 19 20 6 25 -9 3 -18 -1 -21 -9 -9 -21 -25 -19 -18 3 5
13 4 14 -4 3 -7 -9 -33 -14 -80 -15 -39 -1 -69 1 -67 4 6 10 -95 -3 -113 -14
-7 -4 -12 -3 -12 2 0 8 -150 15 -250 11 -49 -2 -60 1 -60 20 0 16 8 19 50 19
42 0 49 -3 39 -14 -7 -9 -8 -14 -1 -14 5 0 12 7 16 15 8 22 37 19 30 -2 -5
-14 -4 -15 4 -4 7 10 37 16 97 18 76 4 87 2 82 -11 -3 -8 -2 -18 2 -21 5 -2
11 4 14 15 5 18 12 20 76 16 39 -3 76 -8 81 -11 6 -3 10 -3 10 2 0 10 101 9
119 -1 7 -5 18 -3 24 4 7 6 8 10 2 9 -5 -1 -26 4 -45 12 -19 7 -39 12 -45 10
-29 -9 -45 -9 -45 0 0 6 -4 8 -9 5 -16 -10 -101 -15 -101 -6 0 4 20 8 43 8 24
-1 49 2 55 6 16 10 15 51 -1 65 -9 7 -111 12 -308 14 -175 1 -80 3 236 5 l530
2 0 264 c0 145 -3 262 -6 260 -7 -4 -964 -6 -1074 -2 -38 1 18 5 125 8 161 4
191 7 170 17 -17 8 -20 12 -8 12 9 1 23 -6 32 -14 18 -18 27 -19 21 -2 -6 13
3 14 273 16 l142 1 0 28 c-1 42 -19 57 -67 56 -41 -2 -42 -1 -36 27 3 17 0 35
-7 44 -11 13 14 15 214 15 l226 0 -1 258 0 257 -249 -3 -248 -3 13 45 14 45
-37 7 c-46 9 -707 11 -730 3z m159 -46 c8 -21 6 -22 -36 -21 -25 1 -45 6 -45
10 0 5 -10 3 -21 -4 -18 -11 -23 -11 -26 0 -4 10 -8 10 -19 1 -11 -9 -18 -9
-26 -1 -24 24 8 37 87 37 71 0 78 -2 86 -22z m48 18 c19 -12 6 -43 -16 -39
-21 4 -31 48 -11 48 7 0 19 -4 27 -9z m102 -15 c1 -21 1 -21 7 -1 4 11 17 21
30 22 17 2 22 -2 22 -22 0 -28 -19 -35 -21 -7 -1 16 -2 16 -6 0 -5 -20 -43
-24 -60 -7 -8 8 -13 8 -17 0 -11 -18 -36 -13 -36 7 0 25 4 28 45 28 28 0 35
-4 36 -20z m121 18 c12 -11 -5 -44 -23 -44 -22 0 -33 16 -25 35 5 15 37 21 48
9z m46 -10 c8 -15 10 -15 15 0 10 26 37 19 37 -9 0 -23 -4 -25 -37 -22 -41 2
-54 12 -46 34 7 18 20 17 31 -3z m88 -9 c0 -14 -4 -25 -7 -25 -10 0 -20 31
-13 41 10 17 22 9 20 -16z m58 19 c9 -3 12 -12 9 -22 -8 -22 -23 -31 -40 -25
-17 6 -17 40 0 46 6 3 13 6 14 6 1 1 8 -2 17 -5z m42 -10 c-3 -9 -6 -20 -6
-25 0 -5 -4 -9 -9 -9 -4 0 -6 11 -3 25 2 14 9 25 14 25 6 0 7 -7 4 -16z m70
-1 c-4 -8 -6 -21 -6 -29 0 -8 -5 -14 -11 -14 -6 0 -8 10 -5 23 3 12 3 16 0 9
-3 -6 -10 -10 -15 -7 -5 4 -6 -1 -3 -9 3 -9 1 -16 -5 -16 -6 0 -11 12 -11 28
0 23 4 27 31 28 22 1 29 -2 25 -13z m474 -315 l0 -233 -617 2 -618 3 -3 230
-2 230 620 0 620 0 0 -232z m-1040 -287 c0 -11 4 -9 15 5 14 18 14 18 16 -6 1
-15 3 -19 6 -9 2 9 15 19 29 22 22 4 25 1 22 -22 -3 -22 -8 -26 -38 -27 -50 0
-68 6 -73 25 -3 11 -5 9 -6 -6 -1 -17 -5 -21 -18 -16 -10 4 -21 11 -25 17 -5
7 -8 7 -8 -1 0 -20 -20 -15 -21 5 -1 15 -2 15 -6 1 -5 -21 -73 -31 -80 -12
-12 32 4 38 96 38 73 0 91 -3 91 -14z m126 -7 c-3 -8 -1 -14 4 -14 6 0 10 6
10 14 0 30 41 27 53 -4 4 -12 6 -11 6 3 1 10 9 17 21 17 11 0 23 0 28 0 4 0 7
-9 7 -21 0 -19 -6 -21 -74 -23 -51 -1 -75 3 -78 11 -7 19 5 45 18 38 6 -4 8
-13 5 -21z m279 16 c10 8 17 6 30 -6 14 -15 18 -15 26 -3 7 12 10 12 18 1 7
-11 9 -10 15 3 3 9 10 14 15 10 6 -3 8 -12 4 -20 -3 -8 0 -15 6 -15 6 0 11 7
11 15 0 15 4 16 58 18 22 1 27 -3 27 -23 0 -24 -2 -25 -67 -24 -38 1 -75 4
-83 8 -8 3 -15 2 -15 -2 0 -5 -92 -7 -162 -2 -5 0 -8 10 -8 21 0 18 4 21 30
16 16 -4 32 -2 35 3 4 7 14 6 26 -1 15 -7 24 -7 34 1z m-422 -89 c52 -1 66 -4
61 -13 -5 -9 -2 -8 10 1 11 9 38 14 74 13 31 0 175 -1 320 -2 225 -1 264 -3
269 -16 8 -21 -6 -32 -17 -14 -6 8 -10 10 -10 4 0 -15 -150 -16 -150 -1 0 7
-4 6 -10 -3 -9 -13 -11 -13 -20 0 -5 8 -10 10 -10 4 0 -15 -182 -15 -192 0 -5
7 -8 7 -8 -2 0 -16 -120 -14 -120 2 0 6 -5 4 -10 -4 -9 -13 -11 -13 -20 0 -7
11 -10 11 -10 2 0 -10 -34 -12 -160 -9 -88 1 -162 6 -166 10 -4 3 -4 12 -1 20
3 9 20 13 54 11 26 -1 79 -3 116 -3z m103 -68 c-8 -9 -147 -12 -141 -3 2 3 36
7 76 8 40 1 69 -1 65 -5z m119 -1 c-8 -8 -105 -8 -105 -1 0 4 25 7 55 7 30 -1
53 -4 50 -6z m42 2 c-3 -3 -12 -4 -19 -1 -8 3 -5 6 6 6 11 1 17 -2 13 -5z
m-370 -30 c-3 -3 -12 -4 -19 -1 -8 3 -5 6 6 6 11 1 17 -2 13 -5z m1163 -264
l0 -240 -620 0 -620 0 0 240 0 240 620 0 620 0 0 -240z m-1107 -267 c-7 -2
-19 -2 -25 0 -7 3 -2 5 12 5 14 0 19 -2 13 -5z m27 -35 c0 -7 4 -7 13 -1 14
12 127 17 127 6 -1 -27 -21 -32 -153 -31 -128 0 -137 1 -137 19 0 17 8 19 75
18 43 -1 75 -5 75 -11z m171 -5 c1 -14 2 -15 5 -3 4 12 20 16 69 16 36 0 65
-2 65 -5 -1 -24 -22 -31 -88 -30 -64 1 -72 3 -72 20 0 24 20 25 21 2z m289 -5
c0 -16 -8 -18 -64 -18 -46 0 -65 4 -69 14 -8 21 -4 22 68 22 57 1 65 -1 65
-18z m178 0 c3 -15 -7 -17 -78 -16 -44 0 -83 5 -86 9 -12 20 10 27 83 25 64
-1 78 -5 81 -18z m-313 -38 c3 -5 -1 -10 -10 -10 -9 0 -13 5 -10 10 3 6 8 10
10 10 2 0 7 -4 10 -10z m-415 -4 c0 -9 -30 -14 -35 -6 -4 6 3 10 14 10 12 0
21 -2 21 -4z m70 -6 c0 -5 -2 -10 -4 -10 -3 0 -8 5 -11 10 -3 6 -1 10 4 10 6
0 11 -4 11 -10z m122 1 c-12 -7 -62 -4 -62 5 0 2 17 4 38 4 23 0 32 -3 24 -9z
m43 -1 c3 -5 2 -10 -4 -10 -5 0 -13 5 -16 10 -3 6 -2 10 4 10 5 0 13 -4 16
-10z m115 6 c0 -11 -19 -15 -25 -6 -3 5 1 10 9 10 9 0 16 -2 16 -4z m117 -2
c-3 -3 -12 -4 -19 -1 -8 3 -5 6 6 6 11 1 17 -2 13 -5z m50 0 c-3 -3 -12 -4
-19 -1 -8 3 -5 6 6 6 11 1 17 -2 13 -5z m58 -3 c9 -16 -9 -20 -23 -5 -10 12
-10 14 2 14 8 0 17 -4 21 -9z m55 -1 c0 -5 -6 -10 -14 -10 -8 0 -18 5 -21 10
-3 6 3 10 14 10 12 0 21 -4 21 -10z m-527 -25 c108 2 117 1 117 -16 0 -16 -8
-19 -55 -19 -37 0 -55 4 -55 13 0 8 -2 9 -8 1 -4 -7 -40 -12 -84 -13 -70 -2
-78 0 -78 17 0 25 9 33 29 23 9 -4 69 -7 134 -6z m-106 -61 c-3 -3 -12 -4 -19
-1 -8 3 -5 6 6 6 11 1 17 -2 13 -5z m73 -23 c0 12 144 1 149 -12 2 -7 6 -7 10
-1 3 5 16 12 28 16 18 6 22 3 20 -14 -1 -11 -6 -20 -12 -20 -65 -3 -318 0
-322 4 -3 3 -3 11 0 19 4 10 20 12 66 7 34 -3 61 -3 61 1z m306 -2 c3 -5 10
-6 16 -3 6 4 34 8 64 10 46 2 52 0 46 -14 -5 -16 -4 -16 10 -1 12 11 30 15 65
12 26 -2 53 -4 58 -5 6 0 18 3 28 7 19 8 22 -2 8 -24 -8 -12 -44 -14 -192 -13
-100 1 -184 4 -187 6 -2 3 -2 12 1 20 6 16 73 20 83 5z m-269 -55 c-3 -3 -12
-4 -19 -1 -8 3 -5 6 6 6 11 1 17 -2 13 -5z m63 2 c0 -9 -40 -13 -46 -5 -3 5 6
9 20 9 14 0 26 -2 26 -4z m177 -26 c13 0 23 -4 23 -9 0 -5 3 -17 7 -27 5 -13
3 -15 -7 -9 -7 5 -60 7 -117 6 -98 -1 -103 -1 -103 19 0 16 6 20 28 18 15 -1
33 1 40 6 8 5 12 0 13 -16 1 -18 2 -19 6 -5 4 14 11 18 29 14 14 -2 27 0 30 4
3 5 0 9 -5 9 -6 0 -11 5 -11 11 0 5 10 3 22 -5 12 -9 33 -16 45 -16z m262 20
c-6 -5 -18 -6 -26 -3 -19 8 -16 11 13 11 17 0 22 -3 13 -8z m71 -4 c-10 -13
-40 -12 -40 1 0 3 7 3 15 0 8 -4 17 -2 20 3 4 6 9 10 12 10 3 0 0 -6 -7 -14z
m-555 -31 c0 -10 -6 -20 -12 -22 -7 -3 -13 0 -13 6 0 6 -5 11 -11 11 -5 0 -8
-3 -6 -7 3 -5 -8 -9 -24 -10 -21 -2 -28 1 -22 10 5 9 3 9 -8 1 -8 -6 -31 -12
-51 -12 -31 -1 -38 2 -38 18 0 16 9 19 58 22 106 6 127 3 127 -17z m483 16
c45 -1 52 -4 52 -21 0 -11 -4 -20 -10 -20 -5 0 -10 6 -10 13 0 9 -2 9 -8 0 -4
-6 -23 -12 -42 -13 -70 -4 -80 -1 -81 23 l-2 22 -4 -22 c-5 -24 -23 -32 -23
-10 0 8 -3 9 -8 1 -11 -17 -87 -12 -87 6 0 11 16 16 60 20 33 3 71 4 85 3 14
-1 49 -2 78 -2z m93 -18 c1 -15 2 -15 6 -2 3 12 18 16 73 16 64 0 70 -2 70
-21 0 -20 -5 -21 -90 -21 -87 0 -90 1 -90 23 0 26 29 31 31 5z m-578 -50 c-7
-2 -19 -2 -25 0 -7 3 -2 5 12 5 14 0 19 -2 13 -5z m1047 -148 l0 -126 -617 3
-618 3 -3 123 -3 122 621 0 620 0 0 -125z"/>
<path d="M3621 7034 c0 -11 3 -14 6 -6 3 7 2 16 -1 19 -3 4 -6 -2 -5 -13z"/>
<path d="M3570 7029 c0 -5 5 -7 10 -4 6 3 10 8 10 11 0 2 -4 4 -10 4 -5 0 -10
-5 -10 -11z"/>
<path d="M3655 7030 c-3 -5 -1 -10 4 -10 6 0 11 5 11 10 0 6 -2 10 -4 10 -3 0
-8 -4 -11 -10z"/>
<path d="M3770 7029 c0 -5 5 -7 10 -4 6 3 10 8 10 11 0 2 -4 4 -10 4 -5 0 -10
-5 -10 -11z"/>
<path d="M3936 7041 c-4 -7 -5 -15 -2 -18 9 -9 19 4 14 18 -4 11 -6 11 -12 0z"/>
<path d="M4030 7030 c0 -5 5 -10 10 -10 6 0 10 5 10 10 0 6 -4 10 -10 10 -5 0
-10 -4 -10 -10z"/>
<path d="M4131 7034 c0 -11 3 -14 6 -6 3 7 2 16 -1 19 -3 4 -6 -2 -5 -13z"/>
<path d="M3530 6802 c0 -74 2 -133 5 -130 3 3 6 60 6 126 0 106 2 121 17 124
13 3 12 5 -5 10 l-23 6 0 -136z"/>
<path d="M4537 6933 c18 -2 50 -2 70 0 21 2 7 4 -32 4 -38 0 -55 -2 -38 -4z"/>
<path d="M4652 6935 c2 -3 17 -6 31 -7 l27 -2 0 -198 0 -197 -42 -4 -43 -4 48
-1 47 -2 0 208 0 209 -36 1 c-20 1 -35 -1 -32 -3z"/>
<path d="M3773 6923 c9 -2 23 -2 30 0 6 3 -1 5 -18 5 -16 0 -22 -2 -12 -5z"/>
<path d="M3878 6923 c34 -2 88 -2 120 0 31 2 3 3 -63 3 -66 0 -92 -1 -57 -3z"/>
<path d="M4193 6923 c48 -2 126 -2 175 0 48 1 8 3 -88 3 -96 0 -136 -2 -87 -3z"/>
<path d="M3532 6550 c0 -19 2 -27 5 -17 2 9 2 25 0 35 -3 9 -5 1 -5 -18z"/>
<path d="M3648 6523 c7 -3 16 -2 19 1 4 3 -2 6 -13 5 -11 0 -14 -3 -6 -6z"/>
<path d="M4348 6523 c50 -2 134 -2 185 0 50 1 9 3 -93 3 -102 0 -143 -2 -92
-3z"/>
<path d="M4245 6430 c-3 -5 -1 -10 4 -10 6 0 11 5 11 10 0 6 -2 10 -4 10 -3 0
-8 -4 -11 -10z"/>
<path d="M3530 6202 c0 -8 650 -6 658 3 3 3 -144 5 -326 5 -183 -1 -332 -4
-332 -8z"/>
<path d="M4643 6203 c15 -2 39 -2 55 0 15 2 2 4 -28 4 -30 0 -43 -2 -27 -4z"/>
<path d="M3534 6055 c0 -66 1 -92 3 -57 2 34 2 88 0 120 -2 31 -3 3 -3 -63z"/>
<path d="M4710 5866 c0 -42 -4 -66 -12 -69 -8 -3 -6 -6 5 -6 15 -1 17 9 17 69
0 39 -2 70 -5 70 -3 0 -5 -29 -5 -64z"/>
<path d="M3531 5804 c0 -11 3 -14 6 -6 3 7 2 16 -1 19 -3 4 -6 -2 -5 -13z"/>
<path d="M4453 5793 c37 -2 97 -2 135 0 37 2 6 3 -68 3 -74 0 -105 -1 -67 -3z"/>
<path d="M4695 5330 c-3 -5 -1 -10 4 -10 6 0 11 5 11 10 0 6 -2 10 -4 10 -3 0
-8 -4 -11 -10z"/>
<path d="M3530 5233 c0 -53 3 -93 6 -90 4 4 6 45 5 91 -2 74 0 85 16 89 14 4
13 5 -4 6 -22 1 -23 -2 -23 -96z"/>
<path d="M3628 5323 c7 -3 16 -2 19 1 4 3 -2 6 -13 5 -11 0 -14 -3 -6 -6z"/>
<path d="M3668 5323 c7 -3 16 -2 19 1 4 3 -2 6 -13 5 -11 0 -14 -3 -6 -6z"/>
<path d="M4473 5323 c9 -2 25 -2 35 0 9 3 1 5 -18 5 -19 0 -27 -2 -17 -5z"/>
<path d="M4568 5323 c12 -2 30 -2 40 0 9 3 -1 5 -23 4 -22 0 -30 -2 -17 -4z"/>
<path d="M4643 5323 c9 -2 23 -2 30 0 6 3 -1 5 -18 5 -16 0 -22 -2 -12 -5z"/>
<path d="M4710 5175 l0 -25 -162 -3 -163 -3 168 -2 167 -2 0 30 c0 17 -2 30
-5 30 -3 0 -5 -11 -5 -25z"/>
<path d="M3933 5163 c81 -2 213 -2 295 0 81 1 14 3 -148 3 -162 0 -229 -2
-147 -3z"/>
<path d="M3598 5153 c17 -2 47 -2 65 0 17 2 3 4 -33 4 -36 0 -50 -2 -32 -4z"/>
<path d="M3718 5153 c6 -2 18 -2 25 0 6 3 1 5 -13 5 -14 0 -19 -2 -12 -5z"/>
<path d="M1915 6981 c-3 -5 -2 -12 3 -15 5 -3 9 1 9 9 0 17 -3 19 -12 6z"/>
<path d="M3505 6291 c-3 -5 -2 -12 3 -15 5 -3 9 1 9 9 0 17 -3 19 -12 6z"/>
<path d="M975 6280 c-3 -5 1 -10 10 -10 9 0 13 5 10 10 -3 6 -8 10 -10 10 -2
0 -7 -4 -10 -10z"/>
<path d="M2493 6273 c9 -2 23 -2 30 0 6 3 -1 5 -18 5 -16 0 -22 -2 -12 -5z"/>
<path d="M1245 5590 c-3 -5 -2 -10 4 -10 5 0 13 5 16 10 3 6 2 10 -4 10 -5 0
-13 -4 -16 -10z"/>
<path d="M2567 4874 c-3 -3 -137 -6 -298 -6 -295 1 -343 -4 -319 -33 7 -8 9
-18 6 -24 -4 -5 0 -16 9 -24 13 -13 12 -15 -5 -20 -19 -5 -20 -23 -19 -961 0
-740 2 -957 12 -963 7 -4 294 -8 639 -8 l628 0 0 952 c0 523 -3 958 -6 967 -5
14 -35 16 -230 16 l-224 0 0 23 c0 12 4 28 9 36 6 9 4 19 -6 29 -11 12 -33 14
-104 9 -55 -3 -87 -2 -84 4 7 10 2 12 -8 3z m-461 -62 c-9 -28 -58 -26 -50 3
4 17 3 18 -8 5 -7 -8 -18 -16 -23 -17 -6 -1 -18 -5 -27 -8 -14 -6 -18 -2 -18
18 0 23 3 25 49 25 43 1 50 -2 54 -21 3 -17 5 -15 6 8 1 21 4 26 12 18 6 -6 8
-20 5 -31z m48 29 c3 -4 18 -6 32 -3 21 4 25 2 18 -9 -6 -10 0 -8 19 4 35 23
38 22 34 -10 -3 -26 -37 -47 -37 -24 0 8 -7 7 -20 -1 -17 -11 -22 -10 -29 1
-6 9 -11 10 -15 2 -11 -17 -46 -14 -41 4 3 8 7 22 10 30 5 16 21 20 29 6z
m256 -27 c0 -13 -5 -24 -11 -24 -6 0 -8 9 -4 20 4 11 2 20 -4 20 -6 0 -11 -9
-11 -20 0 -11 -5 -20 -11 -20 -6 0 -9 9 -6 20 7 27 -11 25 -23 -2 -10 -23 -10
-23 -7 2 1 16 10 26 27 30 35 9 50 2 50 -26z m63 25 c14 2 18 -3 15 -21 -4
-32 -38 -37 -39 -6 l-2 23 -4 -22 c-6 -33 -22 -28 -19 5 5 35 4 34 19 25 6 -4
20 -6 30 -4z m125 -1 c17 -17 15 -45 -4 -52 -22 -8 -34 1 -34 28 0 35 16 46
38 24z m60 -20 c2 -19 -2 -27 -17 -31 -17 -4 -21 0 -21 22 0 48 32 56 38 9z
m42 16 c0 -8 -4 -12 -10 -9 -6 4 -11 -6 -11 -22 -2 -25 -2 -25 -6 -5 -5 28 2
52 17 52 5 0 10 -7 10 -16z m46 0 c-3 -9 -6 -24 -6 -35 0 -10 -5 -19 -11 -19
-6 0 -9 6 -6 14 3 8 1 16 -5 18 -17 6 -1 38 18 38 11 0 14 -5 10 -16z m-426
-4 c0 -5 -3 -9 -7 -9 -20 3 -24 -2 -13 -16 10 -12 10 -15 -4 -15 -16 0 -22 30
-9 43 10 11 33 8 33 -3z m222 -15 c-2 -14 -9 -28 -14 -31 -5 -3 -6 5 -2 20 4
16 2 26 -4 26 -6 0 -13 -12 -15 -27 -4 -26 -4 -26 -6 5 -1 27 2 32 23 32 19 0
22 -4 18 -25z m168 -20 c0 -8 -4 -15 -10 -15 -5 0 -10 7 -10 15 0 8 5 15 10
15 6 0 10 -7 10 -15z m483 -992 l4 -943 -614 0 -613 0 0 940 0 940 603 2 c331
2 605 3 609 3 3 0 8 -424 11 -942z"/>
<path d="M1995 4820 c-3 -5 -1 -10 4 -10 6 0 11 5 11 10 0 6 -2 10 -4 10 -3 0
-8 -4 -11 -10z"/>
<path d="M2137 4823 c-4 -3 -7 -11 -7 -17 0 -6 5 -5 12 2 6 6 9 14 7 17 -3 3
-9 2 -12 -2z"/>
<path d="M2181 4814 c0 -11 3 -14 6 -6 3 7 2 16 -1 19 -3 4 -6 -2 -5 -13z"/>
<path d="M2460 4814 c0 -8 5 -12 10 -9 6 4 8 11 5 16 -9 14 -15 11 -15 -7z"/>
<path d="M2570 4815 c0 -8 5 -15 10 -15 6 0 10 7 10 15 0 8 -4 15 -10 15 -5 0
-10 -7 -10 -15z"/>
<path d="M2630 4815 c0 -8 5 -15 10 -15 6 0 10 7 10 15 0 8 -4 15 -10 15 -5 0
-10 -7 -10 -15z"/>
<path d="M1996 4712 c-3 -5 1 -9 9 -9 8 0 12 4 9 9 -3 4 -7 8 -9 8 -2 0 -6 -4
-9 -8z"/>
<path d="M2132 4714 c4 -3 235 -5 515 -5 l508 1 -3 -753 c-1 -413 1 -817 6
-897 6 -102 9 122 10 758 l1 902 -521 0 c-287 0 -519 -3 -516 -6z"/>
<path d="M1995 3795 c0 -495 3 -808 6 -695 8 268 8 1196 0 1420 -3 96 -6 -230
-6 -725z"/>
<path d="M2013 3125 c0 -33 2 -45 4 -27 2 18 2 45 0 60 -2 15 -4 0 -4 -33z"/>
<path d="M2010 2900 c0 -5 5 -10 10 -10 6 0 10 5 10 10 0 6 -4 10 -10 10 -5 0
-10 -4 -10 -10z"/>
<path d="M2178 2893 c12 -2 32 -2 45 0 12 2 2 4 -23 4 -25 0 -35 -2 -22 -4z"/>
<path d="M2400 2893 c283 -7 747 -7 737 -1 -7 4 -201 7 -432 6 -231 -1 -368
-4 -305 -5z"/>
<path d="M4078 4875 c-3 -3 -135 -6 -294 -8 l-289 -2 -3 -33 c-2 -18 2 -39 8
-46 8 -10 7 -15 -5 -19 -13 -6 -15 -119 -17 -967 l-3 -960 25 -1 c14 0 273 0
575 0 303 1 577 -3 611 -7 34 -4 66 -6 73 -4 8 3 11 253 11 973 l0 969 -215 0
c-167 0 -213 3 -210 13 2 6 6 28 8 48 l5 37 -131 1 c-72 1 -134 4 -137 6 -4 3
-9 2 -12 0z m-544 -52 c-8 -33 -12 -39 -20 -30 -9 9 5 57 16 57 6 0 8 -11 4
-27z m61 17 c5 -8 11 -7 20 0 18 15 35 4 35 -21 0 -24 -29 -37 -41 -18 -6 10
-9 10 -9 2 0 -7 -9 -13 -20 -13 -11 0 -20 5 -20 11 0 5 -4 7 -10 4 -16 -10
-12 7 7 27 18 21 29 23 38 8z m100 0 c3 -5 1 -10 -6 -10 -8 0 -9 -3 0 -13 10
-13 6 -27 -10 -27 -11 0 -19 28 -13 45 7 17 20 20 29 5z m55 0 c0 -5 -4 -10
-10 -10 -5 0 -10 -7 -10 -15 0 -8 5 -15 10 -15 6 0 10 7 10 15 0 20 34 37 47
24 6 -6 9 -19 6 -29 -7 -26 -93 -27 -93 -2 0 19 18 42 32 42 4 0 8 -4 8 -10z
m100 4 c0 -3 -5 -14 -10 -25 -6 -11 -7 -18 -3 -17 4 2 8 -1 8 -7 1 -9 -24 -9
-34 1 -7 7 18 54 29 54 5 0 10 -3 10 -6z m70 -9 c17 -20 5 -45 -20 -45 -11 0
-23 7 -26 15 -6 15 11 45 26 45 4 0 13 -7 20 -15z m34 -10 c-4 -15 -2 -25 4
-25 6 0 12 10 14 23 4 32 32 28 36 -5 2 -16 -2 -28 -8 -28 -7 0 -9 8 -5 20 4
11 2 20 -4 20 -6 0 -11 -9 -11 -20 0 -13 -7 -20 -20 -20 -16 0 -20 7 -20 30 0
17 5 30 10 30 6 0 8 -11 4 -25z m104 13 c15 -15 16 -48 1 -48 -6 0 -9 7 -6 15
4 8 2 17 -3 20 -6 4 -10 -3 -10 -14 0 -11 -4 -23 -10 -26 -11 -7 -13 24 -4 49
7 19 16 20 32 4z m44 -5 c-5 -10 -7 -23 -5 -30 2 -6 -1 -14 -6 -18 -7 -4 -11
7 -11 29 0 26 4 36 15 36 12 0 13 -5 7 -17z m57 3 c14 -16 4 -46 -15 -46 -8 0
-17 0 -21 0 -11 0 -11 21 -1 43 10 21 22 22 37 3z m61 -20 c0 -29 -4 -34 -20
-33 -12 1 -20 8 -20 18 0 10 -2 23 -5 31 -4 9 3 14 20 16 22 2 25 -2 25 -32z
m60 24 c0 -7 6 -7 19 0 11 5 22 10 25 10 8 0 8 -55 0 -63 -10 -10 -34 4 -35
22 0 11 -3 9 -9 -6 -15 -38 -56 -4 -43 35 6 15 43 16 43 2z m469 -1035 l-4
-945 -622 0 -623 0 0 940 0 940 573 3 c314 1 596 3 626 5 l53 2 -3 -945z"/>
<path d="M3570 4820 c0 -5 5 -10 10 -10 6 0 10 5 10 10 0 6 -4 10 -10 10 -5 0
-10 -4 -10 -10z"/>
<path d="M3770 4815 c0 -8 5 -15 10 -15 6 0 10 7 10 15 0 8 -4 15 -10 15 -5 0
-10 -7 -10 -15z"/>
<path d="M3890 4815 c0 -8 5 -15 10 -15 6 0 10 7 10 15 0 8 -4 15 -10 15 -5 0
-10 -7 -10 -15z"/>
<path d="M4130 4815 c0 -8 5 -15 10 -15 6 0 10 7 10 15 0 8 -4 15 -10 15 -5 0
-10 -7 -10 -15z"/>
<path d="M4196 4815 c-3 -8 -1 -15 4 -15 6 0 10 7 10 15 0 8 -2 15 -4 15 -2 0
-6 -7 -10 -15z"/>
<path d="M4250 4820 c0 -11 5 -20 10 -20 6 0 10 9 10 20 0 11 -4 20 -10 20 -5
0 -10 -9 -10 -20z"/>
<path d="M4306 4821 c-4 -7 -5 -15 -2 -18 9 -9 19 4 14 18 -4 11 -6 11 -12 0z"/>
<path d="M3533 4680 c0 -25 2 -35 4 -22 2 12 2 32 0 45 -2 12 -4 2 -4 -23z"/>
<path d="M3643 4712 c-6 -4 223 -6 510 -4 286 1 523 5 526 7 7 8 -1023 5
-1036 -3z"/>
<path d="M4690 4716 c0 -2 7 -6 15 -10 8 -3 15 -1 15 4 0 6 -7 10 -15 10 -8 0
-15 -2 -15 -4z"/>
<path d="M4690 4640 c0 -5 5 -10 10 -10 6 0 10 5 10 10 0 6 -4 10 -10 10 -5 0
-10 -4 -10 -10z"/>
<path d="M3535 3830 c0 -443 1 -624 2 -403 2 222 2 584 0 805 -1 222 -2 41 -2
-402z"/>
<path d="M4712 4240 c0 -19 2 -27 5 -17 2 9 2 25 0 35 -3 9 -5 1 -5 -18z"/>
<path d="M4710 3548 c0 -46 -2 -134 -3 -195 -2 -62 0 -113 4 -113 4 0 8 88 9
195 0 107 -2 195 -5 195 -3 0 -5 -37 -5 -82z"/>
<path d="M4693 3185 c0 -22 2 -30 4 -17 2 12 2 30 0 40 -3 9 -5 -1 -4 -23z"/>
<path d="M4714 3050 c0 -96 2 -136 3 -87 2 48 2 126 0 175 -1 48 -3 8 -3 -88z"/>
<path d="M3533 2945 c0 -33 2 -45 4 -27 2 18 2 45 0 60 -2 15 -4 0 -4 -33z"/>
<path d="M3683 2893 c26 -2 67 -2 90 0 23 2 2 3 -48 3 -49 0 -68 -1 -42 -3z"/>
<path d="M4033 2893 c97 -2 257 -2 355 0 97 1 17 2 -178 2 -195 0 -275 -1
-177 -2z"/>
<path d="M4675 2890 c-3 -6 1 -7 9 -4 18 7 21 14 7 14 -6 0 -13 -4 -16 -10z"/>
<path d="M4638 2883 c7 -3 16 -2 19 1 4 3 -2 6 -13 5 -11 0 -14 -3 -6 -6z"/>
<path d="M454 4864 c-12 -5 -6 -63 8 -80 5 -8 3 -14 -7 -17 -13 -6 -15 -119
-17 -967 l-3 -960 25 -1 c14 -1 294 -2 622 -3 l598 -1 0 968 0 967 -204 0
-205 0 8 28 c4 15 5 37 3 49 l-3 22 -407 0 c-224 0 -412 -3 -418 -5z m116 -33
c0 -16 -29 -45 -36 -38 -5 4 -2 12 6 17 8 5 11 12 6 17 -4 4 -12 0 -17 -10
-12 -21 -31 -23 -23 -2 4 8 1 15 -5 15 -6 0 -11 -9 -11 -21 0 -11 -4 -17 -10
-14 -5 3 -10 15 -10 25 0 14 9 20 38 22 41 4 62 0 62 -11z m49 -13 c-1 -24 -3
-27 -6 -10 -2 12 -8 22 -13 22 -4 0 -6 -9 -3 -20 3 -11 0 -20 -6 -20 -12 0
-15 42 -4 53 17 18 33 5 32 -25z m161 20 c0 -5 -7 -8 -15 -8 -8 0 -15 -9 -15
-20 0 -13 -6 -20 -17 -19 -11 0 -13 3 -5 6 17 7 15 33 -3 33 -8 0 -15 -9 -15
-20 0 -29 -66 -29 -75 0 -3 11 -4 24 -1 28 6 10 146 10 146 0z m55 -18 c0 -18
-6 -26 -22 -28 -18 -3 -23 1 -23 21 0 28 9 39 30 35 9 -2 15 -14 15 -28z m53
-3 c3 -22 -1 -27 -17 -27 -15 0 -21 6 -21 23 0 46 33 49 38 4z m52 14 c0 -11
4 -22 9 -25 5 -4 7 2 4 13 -6 23 7 28 87 27 60 -1 65 -3 68 -25 2 -13 -2 -28
-8 -35 -9 -8 -10 -4 -4 18 5 21 4 27 -5 22 -6 -4 -11 -14 -11 -22 0 -8 -10
-14 -25 -14 -22 0 -25 4 -21 27 6 30 -9 19 -17 -12 -4 -18 -5 -18 -6 3 -1 27
-21 30 -21 2 0 -16 -7 -20 -30 -20 -26 0 -30 4 -31 28 l-2 27 -4 -27 c-6 -37
-18 -36 -19 2 -1 23 3 30 17 30 12 0 19 -7 19 -19z m198 -42 c-9 -6 -14 -1
-16 18 -2 14 2 30 10 34 9 6 14 1 16 -18 2 -14 -2 -30 -10 -34z m64 31 c3 -16
1 -30 -4 -30 -4 0 -9 12 -9 28 -2 26 -2 26 -6 2 -7 -39 -23 -48 -23 -14 0 52
35 64 42 14z m39 10 c6 0 7 5 4 10 -3 6 0 10 8 10 9 0 12 -9 9 -30 -5 -37 -22
-50 -23 -18 -1 19 -2 20 -6 4 -4 -14 -7 -15 -13 -6 -4 7 -5 22 -2 33 3 12 7
16 10 9 2 -6 8 -12 13 -12z m419 -1025 l0 -945 -600 0 -600 0 0 940 0 940 553
3 c303 1 573 3 600 5 l47 2 0 -945z"/>
<path d="M655 4827 c-4 -10 -5 -21 -1 -24 10 -10 18 4 13 24 -4 17 -4 17 -12
0z"/>
<path d="M687 4826 c-4 -10 -5 -21 -2 -24 9 -9 17 6 13 25 -3 17 -4 17 -11 -1z"/>
<path d="M810 4814 c0 -8 5 -12 10 -9 6 3 10 10 10 16 0 5 -4 9 -10 9 -5 0
-10 -7 -10 -16z"/>
<path d="M863 4815 c0 -8 4 -15 9 -15 4 0 8 7 8 15 0 8 -4 15 -8 15 -5 0 -9
-7 -9 -15z"/>
<path d="M972 4820 c0 -14 2 -19 5 -12 2 6 2 18 0 25 -3 6 -5 1 -5 -13z"/>
<path d="M1050 4815 c0 -8 5 -15 10 -15 6 0 10 7 10 15 0 8 -4 15 -10 15 -5 0
-10 -7 -10 -15z"/>
<path d="M1131 4814 c0 -11 3 -14 6 -6 3 7 2 16 -1 19 -3 4 -6 -2 -5 -13z"/>
<path d="M490 3798 c0 -507 2 -919 5 -916 3 2 5 415 5 917 0 593 4 910 10 906
6 -3 10 -1 10 4 0 6 -7 11 -15 11 -13 0 -15 -109 -15 -922z"/>
<path d="M543 4713 c9 -2 23 -2 30 0 6 3 -1 5 -18 5 -16 0 -22 -2 -12 -5z"/>
<path d="M592 4714 c8 -7 1028 -7 1036 0 3 3 -230 6 -518 6 -288 0 -521 -3
-518 -6z"/>
<path d="M1622 4320 c0 -19 2 -27 5 -17 2 9 2 25 0 35 -3 9 -5 1 -5 -18z"/>
<path d="M1624 4060 c0 -124 2 -174 3 -112 2 61 2 163 0 225 -1 61 -3 11 -3
-113z"/>
<path d="M538 2893 c6 -2 18 -2 25 0 6 3 1 5 -13 5 -14 0 -19 -2 -12 -5z"/>
<path d="M713 2893 c76 -2 198 -2 270 0 73 1 11 3 -138 3 -148 0 -208 -2 -132
-3z"/>
<path d="M1218 2893 c28 -2 76 -2 105 0 28 2 5 3 -53 3 -58 0 -81 -1 -52 -3z"/>
<path d="M1433 2893 c15 -2 39 -2 55 0 15 2 2 4 -28 4 -30 0 -43 -2 -27 -4z"/>
<path d="M1580 2888 c0 -5 11 -8 25 -8 14 0 25 3 25 8 0 4 -11 7 -25 7 -14 0
-25 -3 -25 -7z"/>
<path d="M704 2809 c-2 -4 -60 -4 -129 -1 l-125 5 0 -40 c0 -39 20 -70 37 -60
4 2 17 1 28 -4 18 -7 17 -8 -7 -10 -42 -2 -46 -3 -54 -11 -12 -13 -21 -647 -8
-652 5 -2 284 -3 620 -2 l609 1 3 268 2 267 -258 0 -258 0 -2 25 c-1 18 3 25
16 25 14 0 15 -2 2 -10 -9 -6 -10 -10 -3 -10 6 0 14 4 17 9 3 4 35 9 72 10 37
1 70 4 75 7 5 3 9 18 9 34 0 27 -20 44 -46 39 -22 -4 -57 2 -50 8 4 4 24 6 46
4 30 -2 41 2 49 18 15 27 14 56 -2 69 -16 14 -20 14 -262 13 -104 0 -232 0
-283 2 -52 1 -96 -1 -98 -4z m-147 -36 c2 -5 -3 -18 -12 -28 -14 -19 -14 -19
-15 5 0 20 -2 22 -10 10 -9 -13 -11 -13 -20 0 -8 12 -10 11 -10 -7 0 -13 -4
-23 -10 -23 -5 0 -10 13 -10 29 0 28 2 29 42 26 23 -2 44 -7 45 -12z m113 4
c47 3 60 0 60 -10 0 -18 -26 -41 -33 -30 -6 10 -84 9 -93 0 -11 -11 -34 5 -34
23 0 20 20 32 33 21 4 -4 34 -6 67 -4z m125 2 c6 0 29 2 53 5 29 2 41 0 37 -8
-3 -6 -8 -19 -11 -28 -4 -10 -11 -18 -16 -18 -6 0 -8 7 -4 15 3 8 1 15 -4 15
-6 0 -10 -7 -10 -15 0 -17 -16 -20 -24 -6 -4 5 0 11 6 14 7 2 10 8 5 12 -4 5
-16 -1 -27 -13 -24 -26 -46 -20 -53 15 -4 21 -2 24 17 18 11 -3 26 -6 31 -6z
m150 1 c5 -8 11 -7 20 0 10 8 20 8 33 1 13 -7 22 -7 30 1 14 14 32 2 32 -22 0
-27 -19 -35 -38 -17 -14 15 -17 15 -28 -1 -11 -16 -13 -16 -32 1 -18 16 -20
17 -26 1 -5 -13 -9 -14 -21 -4 -11 9 -12 17 -4 31 11 21 24 24 34 9z m158 -18
c-5 -16 -5 -16 8 1 15 19 99 32 99 15 0 -7 5 -6 14 1 11 9 17 8 29 -4 9 -8 17
-11 19 -6 2 4 18 11 36 14 29 6 32 4 32 -19 0 -23 -3 -25 -43 -23 -24 2 -48
-1 -54 -4 -7 -4 -14 -3 -18 3 -4 6 -11 8 -16 5 -5 -4 -9 0 -9 7 0 10 -2 10 -9
-1 -7 -11 -11 -10 -20 5 -10 18 -10 18 -11 -3 0 -13 -4 -23 -10 -23 -5 0 -10
7 -10 15 0 14 -3 14 -24 0 -21 -14 -25 -14 -36 0 -10 12 -10 18 0 30 15 19 31
10 23 -13z m-283 -49 c36 0 70 3 76 8 8 6 14 4 18 -6 3 -9 11 -13 16 -10 19
11 92 13 81 2 -5 -5 -71 -10 -151 -11 -134 -1 -171 4 -134 18 8 3 12 12 9 18
-4 7 -1 6 7 -2 9 -11 34 -16 78 -17z m-120 -5 c0 -9 -114 -14 -142 -7 -18 5
-15 7 17 11 55 6 125 4 125 -4z m504 3 c16 -1 27 -4 23 -7 -8 -8 -116 -9 -124
-1 -3 4 -14 2 -24 -4 -12 -6 -19 -6 -19 0 0 12 25 17 75 14 22 -1 53 -2 69 -2z
m-154 -5 c0 -3 -4 -8 -10 -11 -5 -3 -10 -1 -10 4 0 6 5 11 10 11 6 0 10 -2 10
-4z m282 -40 c4 -6 5 -13 3 -17 -3 -3 -91 -7 -197 -8 -106 -1 -197 -2 -203 -2
-33 -2 -81 7 -87 16 -5 7 -8 6 -8 -1 0 -7 -17 -12 -40 -12 -31 -1 -40 3 -41
16 -1 15 -2 15 -6 -1 -4 -15 -15 -17 -76 -16 -40 2 -78 7 -84 12 -8 6 -13 6
-13 0 0 -6 -25 -11 -55 -12 -47 -1 -55 1 -55 16 0 17 23 18 428 18 264 0 430
-3 434 -9z m-514 -76 c3 -7 10 -4 19 7 11 13 16 15 20 5 4 -10 8 -10 18 -2 10
8 20 8 33 1 13 -7 22 -7 31 2 9 9 14 9 19 0 4 -7 13 -9 19 -5 19 12 175 2 170
-11 -5 -17 -677 -18 -677 -2 0 9 29 12 95 12 53 0 97 2 100 4 9 10 150 -1 153
-11z m842 -287 l0 -243 -597 0 -598 0 -2 236 c-2 130 -1 239 1 243 2 3 272 6
600 6 l596 0 0 -242z"/>
<path d="M635 2760 c-3 -5 -1 -10 4 -10 6 0 11 5 11 10 0 6 -2 10 -4 10 -3 0
-8 -4 -11 -10z"/>
<path d="M775 2759 c-4 -6 -5 -12 -2 -15 2 -3 7 2 10 11 7 17 1 20 -8 4z"/>
<path d="M970 2755 c0 -8 2 -15 4 -15 2 0 6 7 10 15 3 8 1 15 -4 15 -6 0 -10
-7 -10 -15z"/>
<path d="M1035 2760 c-3 -5 -1 -10 4 -10 6 0 11 5 11 10 0 6 -2 10 -4 10 -3 0
-8 -4 -11 -10z"/>
<path d="M1285 2760 c-3 -5 -1 -10 4 -10 6 0 11 5 11 10 0 6 -2 10 -4 10 -3 0
-8 -4 -11 -10z"/>
<path d="M490 2303 c0 -119 2 -214 5 -212 2 3 5 97 6 209 l1 205 242 -1 c148
-1 222 2 191 7 -27 4 -139 8 -247 8 l-198 0 0 -216z"/>
<path d="M1036 2511 c-4 -6 525 -3 554 3 8 2 -112 4 -267 4 -156 0 -285 -3
-287 -7z"/>
<path d="M1622 2430 c0 -14 2 -19 5 -12 2 6 2 18 0 25 -3 6 -5 1 -5 -13z"/>
<path d="M1615 2100 c-3 -5 1 -10 10 -10 9 0 13 5 10 10 -3 6 -8 10 -10 10 -2
0 -7 -4 -10 -10z"/>
<path d="M558 2093 c18 -2 45 -2 60 0 15 2 0 4 -33 4 -33 0 -45 -2 -27 -4z"/>
<path d="M713 2093 c26 -2 67 -2 90 0 23 2 2 3 -48 3 -49 0 -68 -1 -42 -3z"/>
<path d="M943 2093 c37 -2 96 -2 130 0 34 2 4 3 -68 3 -71 0 -99 -1 -62 -3z"/>
<path d="M1238 2093 c56 -2 148 -2 205 0 56 1 10 3 -103 3 -113 0 -159 -2
-102 -3z"/>
<path d="M1563 2093 c9 -2 23 -2 30 0 6 3 -1 5 -18 5 -16 0 -22 -2 -12 -5z"/>
<path d="M2260 2810 c-14 -3 -87 -5 -162 -3 -82 1 -140 -2 -143 -8 -4 -5 -12
-6 -18 -2 -7 4 -5 -1 3 -11 21 -26 40 -86 27 -83 -15 3 -9 -76 6 -85 9 -6 9
-8 0 -8 -7 0 -13 -9 -13 -19 0 -11 -4 -23 -10 -26 -6 -3 -9 -105 -7 -263 2
-218 4 -258 17 -263 8 -3 296 -5 639 -3 458 3 628 7 635 15 8 9 8 10 -1 5 -10
-5 -13 50 -15 251 l-3 258 -320 5 c-176 3 -312 6 -302 8 10 1 15 7 12 13 -5 7
-14 5 -29 -4 -18 -12 -74 -14 -306 -13 -205 1 -284 4 -287 13 -5 14 115 23
121 8 3 -6 10 -3 16 5 9 11 13 12 17 3 3 -9 10 -10 24 -3 13 8 19 7 19 0 0 -6
5 -8 11 -5 16 10 119 12 125 3 3 -4 13 -4 22 1 9 5 26 5 37 1 11 -4 26 -3 33
2 6 6 12 6 12 1 0 -5 14 -9 30 -8 17 0 30 4 30 9 0 6 5 5 11 -1 6 -6 24 -7 52
-1 23 4 100 11 171 13 138 6 148 10 144 55 -3 21 -9 25 -38 27 -55 3 -224 5
-235 3 -25 -5 -125 1 -125 8 0 6 341 8 365 1 26 -7 66 15 72 39 14 57 12 57
-300 58 -158 1 -292 4 -299 6 -7 3 -24 2 -38 -2z m-201 -29 c2 -1 -2 -8 -9
-16 -7 -8 -8 -15 -4 -15 5 0 15 9 22 20 15 24 32 18 32 -11 0 -18 -12 -24 -35
-19 -5 1 -27 2 -47 2 -30 -1 -38 3 -38 17 0 10 2 20 4 22 3 3 59 3 75 0z m246
0 c3 -6 -3 -14 -12 -20 -12 -7 -14 -10 -4 -11 8 0 20 8 27 18 12 16 13 16 14
-4 0 -14 -8 -24 -22 -27 -24 -7 -38 7 -38 36 0 18 25 24 35 8z m101 -4 c4 -3
16 -2 26 4 27 14 38 0 26 -31 l-11 -25 -7 25 c-8 24 -8 24 -15 4 -4 -13 -13
-21 -23 -19 -10 2 -20 4 -24 4 -3 1 -9 9 -11 19 -4 13 -5 11 -6 -5 0 -13 -5
-23 -10 -23 -7 0 -8 52 -2 55 7 3 53 -3 57 -8z m333 -7 c1 12 16 15 71 15 66
0 70 -1 70 -22 0 -16 -6 -23 -20 -23 -11 0 -20 6 -21 13 0 10 -2 10 -6 0 -7
-20 -43 -16 -44 5 -1 16 -2 16 -6 0 -2 -10 -11 -18 -18 -18 -9 0 -12 6 -8 18
5 14 3 14 -11 -3 -13 -15 -19 -17 -23 -6 -5 11 -7 11 -14 0 -8 -12 -11 -11
-19 1 -6 10 -10 11 -10 3 0 -8 -14 -13 -35 -13 -25 0 -35 4 -35 16 0 8 -5 12
-10 9 -6 -4 -8 -11 -5 -16 4 -5 -1 -9 -9 -9 -9 0 -16 6 -16 13 0 9 -2 9 -9 -1
-11 -18 -69 -22 -82 -6 -21 25 1 31 117 32 64 1 119 4 123 7 3 3 9 -2 12 -12
6 -13 8 -14 8 -3z m-606 -7 c-6 -16 -5 -17 12 -3 10 8 38 16 62 17 35 1 43 -2
43 -16 0 -9 9 -27 21 -40 23 -25 19 -41 -6 -21 -8 7 -15 9 -15 4 0 -5 -35 -8
-77 -7 -43 1 -102 2 -132 3 -30 0 -51 3 -47 7 3 4 62 7 129 7 74 1 122 5 122
11 0 6 -5 9 -11 7 -7 -1 -15 2 -19 7 -3 6 -13 7 -21 4 -9 -3 -20 0 -25 8 -6
10 -9 10 -9 2 0 -7 -11 -13 -25 -13 -24 0 -34 18 -18 33 13 13 22 7 16 -10z
m312 -61 c-6 -7 -134 -6 -141 0 -3 3 20 6 51 6 31 0 58 2 61 5 3 3 12 3 20 0
8 -3 12 -8 9 -11z m-175 -42 c0 -16 -12 -18 -145 -18 -131 0 -145 2 -145 17 0
16 15 18 145 18 133 1 145 0 145 -17z m570 -1 c0 -16 -16 -17 -187 -18 -214
-2 -188 -2 -293 0 -44 0 -80 2 -80 4 0 29 15 30 285 31 255 1 275 0 275 -17z
m358 -359 l2 -240 -615 0 -615 0 0 243 0 242 612 -2 613 -3 3 -240z"/>
<path d="M2390 2760 c0 -5 5 -10 10 -10 6 0 10 5 10 10 0 6 -4 10 -10 10 -5 0
-10 -4 -10 -10z"/>
<path d="M2495 2760 c-3 -5 -1 -10 4 -10 6 0 11 5 11 10 0 6 -2 10 -4 10 -3 0
-8 -4 -11 -10z"/>
<path d="M2655 2760 c-3 -5 -1 -10 4 -10 6 0 11 5 11 10 0 6 -2 10 -4 10 -3 0
-8 -4 -11 -10z"/>
<path d="M2805 2760 c-3 -5 -1 -10 4 -10 6 0 11 5 11 10 0 6 -2 10 -4 10 -3 0
-8 -4 -11 -10z"/>
<path d="M1998 2512 c13 -9 1143 -5 1151 4 2 2 -259 4 -580 4 -321 0 -578 -4
-571 -8z"/>
<path d="M3159 2483 c-2 -21 -2 -112 1 -203 l6 -165 2 203 c2 191 -1 249 -9
165z"/>
<path d="M2003 2483 c-9 -3 -12 -25 -11 -66 l2 -62 3 60 c3 41 7 55 13 45 8
-12 10 -10 10 8 0 12 -1 22 -2 21 -2 0 -9 -3 -15 -6z"/>
<path d="M2014 2345 c0 -49 1 -71 3 -48 2 23 2 64 0 90 -2 26 -3 8 -3 -42z"/>
<path d="M2005 2100 c-3 -5 1 -10 10 -10 9 0 13 5 10 10 -3 6 -8 10 -10 10 -2
0 -7 -4 -10 -10z"/>
<path d="M3130 2100 l-35 -7 38 -2 c20 0 37 4 37 9 0 6 -1 9 -2 9 -2 -1 -19
-5 -38 -9z"/>
<path d="M2098 2093 c12 -2 30 -2 40 0 9 3 -1 5 -23 4 -22 0 -30 -2 -17 -4z"/>
<path d="M2358 2093 c34 -2 88 -2 120 0 31 2 3 3 -63 3 -66 0 -92 -1 -57 -3z"/>
<path d="M2703 2093 c26 -2 68 -2 95 0 26 2 4 3 -48 3 -52 0 -74 -1 -47 -3z"/>
<path d="M3008 2093 c12 -2 32 -2 45 0 12 2 2 4 -23 4 -25 0 -35 -2 -22 -4z"/>
<path d="M3501 2802 c-12 -23 -7 -70 9 -85 10 -9 11 -9 6 1 -10 17 -1 15 14
-4 8 -8 9 -14 4 -13 -32 6 -44 -3 -44 -30 0 -17 5 -33 11 -37 8 -4 7 -9 -2
-15 -11 -6 -15 -68 -19 -293 l-5 -284 35 -4 c19 -2 296 -3 615 -2 397 0 582
-3 587 -10 5 -8 8 -7 8 1 0 7 11 10 28 8 l27 -3 -5 266 -5 267 -338 3 c-202 1
-336 6 -332 11 3 5 1 12 -5 16 -5 3 -10 -1 -10 -10 0 -14 -30 -15 -282 -13
-214 2 -282 6 -286 16 -3 9 8 11 38 9 22 -2 43 0 46 5 3 5 12 4 19 -2 9 -8 15
-8 20 0 3 5 11 10 16 10 6 0 8 -4 5 -9 -3 -4 7 -6 22 -4 15 2 36 4 47 4 10 0
25 5 32 11 10 8 12 7 8 -4 -4 -10 2 -14 22 -13 16 0 32 5 36 10 6 6 10 6 14
-3 2 -6 9 -9 15 -6 6 4 14 0 20 -7 7 -11 8 -10 6 5 -2 10 3 21 10 23 7 3 12 1
11 -4 -4 -20 2 -24 17 -12 13 10 17 10 25 -2 7 -12 9 -12 9 1 0 11 2 12 8 3 5
-7 13 -9 21 -3 8 4 29 6 47 3 18 -3 41 -2 51 2 28 13 74 14 66 2 -4 -6 -1 -7
8 -1 8 5 68 10 133 11 76 2 122 7 127 15 4 6 2 24 -3 40 -9 24 -15 29 -34 25
-13 -2 -24 0 -24 4 0 5 3 9 8 10 4 0 23 2 42 5 19 3 40 5 46 6 17 2 11 55 -9
78 -10 12 -23 18 -29 14 -16 -10 -358 -12 -384 -3 -12 4 -25 5 -28 2 -7 -8
-462 -7 -475 1 -5 4 -14 -2 -20 -12z m92 -26 c-2 -3 -3 -13 -3 -21 0 -8 -4
-15 -10 -15 -5 0 -10 8 -10 17 0 15 -1 15 -14 -2 -17 -24 -46 -14 -39 14 4 16
12 19 42 17 20 -2 35 -6 34 -10z m187 2 c0 -7 -5 -20 -10 -28 -9 -13 -11 -13
-20 0 -5 8 -10 10 -10 4 0 -14 -125 -22 -137 -10 -13 13 9 36 33 36 21 0 25
-4 20 -17 -6 -17 -5 -17 7 -1 10 12 25 17 50 15 20 -2 42 0 49 5 17 10 18 10
18 -4z m83 -1 c3 3 26 6 51 7 41 2 45 0 48 -24 4 -28 -15 -37 -39 -17 -9 6
-17 6 -26 -1 -8 -7 -18 -7 -27 -2 -8 5 -21 5 -31 0 -20 -11 -44 12 -35 35 4
11 11 13 30 6 13 -6 26 -7 29 -4z m150 6 c4 -3 1 -13 -5 -22 -11 -14 -10 -14
7 0 16 13 43 17 132 17 61 0 116 3 122 6 6 4 11 4 11 -1 0 -10 114 -8 130 2
14 9 30 -13 24 -30 -7 -17 -103 -18 -123 -2 -12 9 -13 9 -7 0 5 -10 -6 -13
-44 -13 -38 0 -49 3 -44 13 6 9 4 9 -7 1 -18 -14 -219 -16 -219 -3 0 6 -5 7
-11 3 -8 -4 -8 0 0 15 12 21 23 26 34 14z m-211 -57 c6 4 8 -1 6 -12 -2 -11
-9 -18 -16 -17 -6 2 -57 3 -112 4 -113 1 -129 10 -23 13 37 1 74 6 82 10 10 6
12 5 7 -2 -4 -7 -1 -12 9 -12 8 0 19 8 22 17 4 11 8 13 11 5 2 -7 8 -9 14 -6z
m-232 -16 c0 -5 -4 -10 -10 -10 -5 0 -10 5 -10 10 0 6 5 10 10 10 6 0 10 -4
10 -10z m428 1 c4 -2 -1 -5 -10 -9 -9 -4 -50 -5 -90 -3 -56 4 -65 6 -38 10 32
5 119 6 138 2z m338 -4 c4 -4 -23 -6 -60 -4 -37 2 -69 0 -71 -4 -3 -3 -17 -4
-32 -2 -16 2 -37 4 -48 3 -39 -2 -70 -2 -95 0 -24 2 -23 3 4 9 41 8 293 7 302
-2z m-446 -36 c-1 -26 -23 -30 -198 -29 -172 1 -182 2 -182 20 0 18 9 19 190
17 105 -1 190 -4 190 -8z m500 -13 c0 -19 18 -18 -415 -17 -75 0 -80 1 -72 21
4 11 56 13 246 13 223 1 241 -1 241 -17z m353 -358 l2 -240 -622 0 -623 0 0
243 0 242 620 -3 620 -3 3 -239z"/>
<path d="M3530 2759 c0 -5 5 -7 10 -4 6 3 10 8 10 11 0 2 -4 4 -10 4 -5 0 -10
-5 -10 -11z"/>
<path d="M3625 2761 c-3 -5 -1 -12 5 -16 5 -3 10 1 10 9 0 18 -6 21 -15 7z"/>
<path d="M3870 2760 c0 -5 5 -10 10 -10 6 0 10 5 10 10 0 6 -4 10 -10 10 -5 0
-10 -4 -10 -10z"/>
<path d="M3532 2483 c1 -34 2 -35 5 -8 l4 31 584 2 583 2 -1 -54 c-1 -30 1
-52 5 -50 5 3 8 30 8 60 l0 54 -595 0 -595 0 2 -37z"/>
<path d="M3530 2267 c0 -97 3 -177 8 -177 8 0 5 340 -3 348 -3 3 -5 -74 -5
-171z"/>
<path d="M4714 2240 c0 -85 2 -120 3 -77 2 42 2 112 0 155 -1 42 -3 7 -3 -78z"/>
<path d="M3692 2093 c70 -2 187 -2 260 0 73 1 16 3 -127 3 -143 0 -203 -2
-133 -3z"/>
<path d="M4338 2093 c67 -2 177 -2 245 0 67 1 12 3 -123 3 -135 0 -190 -2
-122 -3z"/>
<path d="M2616 1942 c-3 -6 -91 -9 -205 -8 -109 0 -197 -2 -194 -6 2 -5 -2 -8
-9 -8 -56 0 -236 -11 -249 -15 -11 -4 -14 -14 -11 -38 2 -17 9 -37 14 -43 13
-17 210 -10 247 9 l29 15 -5 -34 c-4 -22 -2 -34 6 -34 6 0 11 -4 11 -8 0 -4
-60 -7 -132 -6 -73 1 -138 -3 -145 -8 -7 -6 -14 -5 -19 3 -5 8 -3 9 6 4 9 -6
11 -4 6 4 -12 19 -20 4 -21 -35 0 -31 3 -35 35 -41 19 -4 133 -7 252 -6 156 0
215 -3 211 -11 -5 -8 -2 -7 8 0 8 7 38 15 67 19 54 7 67 25 40 54 -7 7 -8 12
-3 11 6 -2 12 -1 15 0 17 7 58 6 78 -1 15 -6 21 -5 17 1 -3 6 1 7 9 4 9 -3 14
-11 13 -16 -1 -6 4 -12 11 -13 7 -2 8 -1 3 1 -6 3 -8 11 -5 17 3 9 37 11 119
9 122 -4 150 4 150 43 0 35 -31 43 -152 40 -84 -2 -111 0 -106 8 4 7 -1 6 -10
-2 -15 -12 -16 -10 -11 20 3 19 7 39 9 44 1 6 -9 12 -23 13 -14 1 -31 7 -38
12 -7 7 -15 7 -18 2z m-156 -53 c0 -19 -26 -33 -35 -19 -4 6 -14 7 -23 2 -26
-12 -123 -6 -132 8 -5 8 -9 7 -14 -6 -5 -13 -10 -14 -18 -6 -8 8 -15 9 -25 1
-7 -7 -13 -8 -13 -5 0 4 -7 0 -16 -8 -19 -19 -100 -22 -107 -3 -4 9 -8 9 -14
1 -4 -7 -27 -12 -49 -12 -37 -1 -41 2 -41 24 0 17 5 24 18 24 11 0 19 -6 20
-12 0 -10 2 -10 6 0 2 6 16 12 29 12 13 0 24 -6 25 -12 0 -10 2 -10 6 0 9 22
43 14 44 -10 l2 -23 4 22 c4 19 10 23 44 21 22 -1 44 3 49 8 6 6 62 10 125 10
102 0 115 -1 115 -17z m204 -3 c-9 -28 -16 -34 -22 -17 -4 11 -6 11 -13 0 -7
-11 -9 -9 -9 6 0 14 -3 16 -8 8 -12 -19 -68 -22 -97 -7 -14 7 -23 9 -20 4 4
-6 2 -10 -4 -10 -13 0 -24 18 -17 29 3 5 49 9 101 9 93 0 96 -1 89 -22z m-223
-59 c-6 -6 -11 -19 -11 -29 0 -14 -7 -17 -43 -14 -24 1 -50 6 -57 11 -7 5 -11
4 -7 -1 3 -5 -11 -9 -31 -8 -30 1 -38 5 -40 23 -3 22 -1 22 48 16 36 -5 56 -3
67 7 12 9 15 10 9 1 -5 -9 2 -13 23 -13 21 0 31 5 31 16 0 8 5 12 11 8 8 -4 8
-9 0 -17z m302 -7 c85 -2 98 -4 95 -19 -5 -23 -208 -25 -209 -1 0 10 -3 9 -9
-5 -6 -13 -9 -15 -9 -5 -1 9 -4 11 -9 5 -11 -15 -44 -15 -39 -1 3 7 -1 13 -8
13 -7 0 -11 -5 -9 -11 3 -7 -15 -12 -46 -13 -43 -1 -50 1 -50 17 0 25 12 28
110 24 47 -1 129 -3 183 -4z m197 -14 c0 -22 -4 -24 -45 -24 -38 0 -45 3 -45
19 0 10 5 19 10 19 6 0 10 -6 10 -12 0 -9 3 -9 9 1 5 8 16 11 25 8 9 -4 16 -2
16 3 0 6 5 10 10 10 6 0 10 -11 10 -24z m-941 -78 c1 17 21 15 21 -3 0 -9 -9
-15 -25 -15 -14 0 -25 6 -25 13 0 23 14 29 21 10 4 -10 8 -12 8 -5z m529 13
c43 -1 41 -16 -6 -28 -44 -11 -62 -7 -62 15 0 15 -2 15 -10 2 -7 -11 -30 -15
-95 -15 -50 0 -85 4 -85 10 0 6 -4 4 -8 -3 -10 -14 -62 -12 -62 3 0 5 -4 5 -8
-2 -4 -7 -23 -12 -42 -11 -19 1 -42 -2 -51 -6 -10 -4 -23 -1 -33 9 -9 9 -16
12 -16 6 0 -6 -4 -11 -10 -11 -5 0 -10 7 -10 16 0 12 7 15 24 12 14 -3 29 -2
34 1 8 5 327 7 440 2z"/>
<path d="M2338 1883 c7 -3 16 -2 19 1 4 3 -2 6 -13 5 -11 0 -14 -3 -6 -6z"/>
<path d="M1991 1864 c0 -11 3 -14 6 -6 3 7 2 16 -1 19 -3 4 -6 -2 -5 -13z"/>
<path d="M2036 1865 c-3 -8 -1 -15 4 -15 6 0 10 7 10 15 0 8 -2 15 -4 15 -2 0
-6 -7 -10 -15z"/>
<path d="M2090 1865 c0 -8 5 -15 10 -15 6 0 10 7 10 15 0 8 -4 15 -10 15 -5 0
-10 -7 -10 -15z"/>
<path d="M636 1932 c-4 -4 -42 -8 -84 -9 -42 -1 -83 -2 -91 -2 -7 -1 -11 -7
-7 -16 3 -8 2 -15 -3 -15 -4 0 -6 -13 -3 -29 4 -28 8 -30 58 -37 29 -3 92 -4
139 -2 74 5 85 3 85 -11 0 -10 5 -22 12 -29 14 -14 2 -15 -160 -13 -69 1 -119
-2 -126 -8 -21 -18 -7 -60 22 -68 35 -8 510 -8 545 1 28 7 34 25 18 54 -8 16
1 17 102 15 244 -5 312 -4 312 4 0 4 4 14 9 22 6 10 5 12 -2 7 -16 -10 -15 6
1 24 6 8 8 11 3 7 -5 -4 -15 -2 -23 5 -9 7 -61 12 -141 12 -107 1 -126 4 -124
16 11 44 11 59 3 65 -13 8 -464 10 -477 2 -12 -7 -34 -4 -50 6 -6 3 -14 3 -18
-1z m212 -47 c3 -19 -2 -21 -53 -20 -30 0 -55 3 -55 7 0 3 -3 13 -6 22 -5 13
3 15 53 13 50 -2 58 -5 61 -22z m98 -2 c1 -13 -1 -23 -3 -23 -2 0 -8 10 -13
23 l-9 22 0 -22 c-1 -13 -7 -23 -16 -23 -9 0 -12 6 -9 18 5 16 5 16 -6 0 -16
-25 -30 -22 -30 6 0 23 4 25 43 23 36 -2 42 -5 43 -24z m104 13 c0 -6 5 -5 12
2 17 17 28 15 29 -5 1 -16 2 -16 6 -1 2 9 13 16 24 15 14 -1 19 -7 16 -19 -3
-10 -1 -16 4 -12 5 3 9 12 9 20 0 8 5 14 11 14 6 0 8 -7 5 -16 -3 -9 -6 -20
-6 -25 0 -5 -18 -8 -40 -6 -28 1 -40 7 -40 17 0 13 -1 13 -10 0 -5 -8 -10 -11
-10 -7 0 4 -9 3 -19 -3 -13 -7 -22 -7 -26 0 -4 7 -12 7 -25 0 -21 -11 -35 2
-27 24 6 15 87 17 87 2z m-540 -13 c0 -15 1 -15 13 2 16 21 37 12 37 -16 0
-14 -7 -19 -30 -19 -17 0 -30 5 -30 13 0 8 -3 7 -10 -3 -12 -20 -21 -9 -13 18
6 26 33 30 33 5z m100 -13 c0 -23 -29 -35 -36 -15 -4 8 -4 22 0 30 7 20 36 8
36 -15z m98 1 c3 -19 -1 -21 -42 -21 -38 0 -46 3 -46 18 0 26 5 29 48 27 29
-2 38 -7 40 -24z m235 -32 c-8 -8 -8 -20 -3 -35 6 -15 6 -24 0 -24 -6 0 -10 8
-10 18 -1 16 -1 16 -14 0 -25 -34 -184 -15 -163 19 4 7 34 9 74 7 46 -2 76 1
93 10 32 18 37 19 23 5z m155 -19 c4 0 73 -1 155 -1 139 0 147 -1 147 -19 0
-25 -20 -27 -21 -2 -1 16 -2 16 -6 0 -5 -21 -23 -24 -24 -5 0 10 -2 10 -6 0
-7 -19 -23 -16 -24 5 -1 16 -2 16 -6 0 -2 -10 -13 -18 -23 -18 -11 0 -24 8
-29 18 -10 16 -10 16 -11 0 0 -15 -9 -17 -62 -15 -35 1 -69 6 -75 10 -8 5 -13
3 -14 -5 0 -7 -4 -4 -9 7 -6 13 -9 15 -9 5 -1 -22 -120 -25 -128 -4 -3 9 -1
19 5 23 8 5 110 6 140 1z m332 -20 c0 -11 -4 -20 -10 -20 -5 0 -10 9 -10 20 0
11 5 20 10 20 6 0 10 -9 10 -20z m-452 -54 c35 -1 48 -6 50 -18 3 -14 -6 -17
-47 -16 -32 0 -51 4 -51 11 0 8 -3 8 -9 -1 -4 -7 -16 -13 -27 -12 -10 1 -43 1
-71 1 -35 0 -53 4 -53 12 0 8 -4 6 -10 -3 -9 -13 -11 -13 -20 0 -6 9 -10 10
-10 3 0 -14 -42 -13 -52 2 -5 7 -8 7 -8 -1 0 -15 -163 -16 -172 -1 -6 9 -8 9
-8 0 0 -7 -5 -13 -11 -13 -6 0 -9 8 -7 17 3 15 25 17 215 18 116 0 215 4 219
7 4 4 11 5 16 2 5 -4 31 -7 56 -8z"/>
<path d="M750 1890 c0 -5 5 -10 11 -10 5 0 7 5 4 10 -3 6 -8 10 -11 10 -2 0
-4 -4 -4 -10z"/>
<path d="M535 1870 c-3 -5 -1 -10 4 -10 6 0 11 5 11 10 0 6 -2 10 -4 10 -3 0
-8 -4 -11 -10z"/>
<path d="M630 1870 c0 -5 5 -10 10 -10 6 0 10 5 10 10 0 6 -4 10 -10 10 -5 0
-10 -4 -10 -10z"/>
<path d="M3742 1928 c-8 -8 -55 -13 -125 -15 -61 -2 -117 -5 -122 -7 -17 -6
-5 -84 13 -91 10 -3 53 -6 97 -6 76 1 109 4 163 17 13 2 21 1 18 -4 -3 -5 1
-20 8 -34 13 -24 13 -25 -27 -26 -22 -1 -47 4 -55 11 -13 9 -14 9 -8 0 4 -8 2
-13 -6 -13 -8 0 -20 6 -27 13 -8 7 -11 7 -8 1 5 -8 -14 -12 -63 -11 -48 0 -67
3 -63 11 4 6 0 5 -9 -1 -8 -7 -17 -10 -20 -7 -3 3 -10 -9 -16 -25 -7 -19 -7
-33 -1 -36 5 -4 7 -9 5 -13 -2 -4 31 -7 74 -6 44 0 77 -3 74 -7 -2 -4 6 -5 18
-2 44 10 498 11 491 0 -4 -6 -1 -7 8 -1 8 5 55 9 104 10 123 1 155 9 149 37
-2 12 -8 23 -14 25 -28 10 -4 17 47 14 43 -2 63 1 78 13 16 13 16 16 3 11 -12
-3 -15 -1 -11 10 3 7 10 14 17 14 6 0 4 5 -4 10 -13 9 -13 11 0 20 11 8 9 9
-11 4 -15 -3 -30 -1 -34 5 -3 6 -11 9 -16 5 -15 -9 -239 -11 -239 -2 0 4 6 8
14 8 18 0 27 47 11 60 -13 11 -463 15 -473 5 -3 -3 -10 0 -17 5 -7 6 -16 5
-23 -2z m22 -14 c3 -8 2 -12 -4 -9 -6 3 -10 10 -10 16 0 14 7 11 14 -7z m65
-13 c17 -11 7 -41 -13 -41 -17 0 -39 34 -29 44 9 8 25 7 42 -3z m41 -3 c0 -7
-5 -20 -10 -28 -8 -12 -10 -9 -10 13 0 15 5 27 10 27 6 0 10 -6 10 -12z m155
-12 c-2 -12 -4 -23 -5 -26 0 -3 -7 3 -14 13 -13 17 -14 17 -21 0 -7 -16 -9
-15 -15 7 -7 22 -8 23 -9 4 -1 -18 -7 -21 -41 -21 -31 0 -40 4 -40 17 0 25 4
27 80 26 64 0 69 -1 65 -20z m215 16 c-1 -32 -65 -46 -96 -22 -11 9 -15 10
-10 3 4 -7 2 -13 -3 -13 -6 0 -11 6 -11 13 0 8 -3 8 -8 1 -9 -13 -45 -27 -37
-15 3 5 1 12 -5 16 -5 3 -10 1 -10 -6 0 -10 -3 -10 -11 -2 -6 6 -9 15 -6 20 6
10 197 15 197 5z m-686 -28 c9 -23 7 -34 -4 -34 -5 0 -11 10 -11 23 -1 17 -3
16 -9 -8 -6 -25 -8 -27 -14 -12 -10 22 -1 47 18 47 7 0 17 -7 20 -16z m50 -7
c8 -12 7 -20 -2 -29 -9 -9 -12 -7 -13 13 0 22 -1 22 -9 4 -8 -18 -9 -17 -9 8
-1 31 15 33 33 4z m32 -2 c-4 -38 -16 -43 -16 -7 0 18 4 32 9 32 5 0 8 -11 7
-25z m21 -12 c-3 -10 -5 -4 -5 12 0 17 2 24 5 18 2 -7 2 -21 0 -30z m42 12 c1
14 9 21 26 23 14 1 25 -3 25 -9 0 -5 -5 -7 -12 -3 -7 5 -8 3 -3 -6 6 -10 4
-12 -9 -7 -10 4 -15 3 -11 -4 4 -5 16 -7 27 -3 13 4 18 2 14 -4 -3 -6 -24 -10
-46 -10 -31 0 -40 4 -40 18 0 28 14 33 21 8 6 -20 7 -21 8 -3z m316 -53 c-3
-8 -5 -17 -5 -22 0 -4 -16 -8 -35 -8 -20 0 -35 5 -35 12 0 7 -3 7 -8 1 -4 -6
-20 -11 -35 -11 -22 -1 -27 2 -23 15 5 14 5 14 -6 1 -7 -8 -23 -16 -35 -18
-18 -3 -23 2 -23 21 0 24 0 24 105 23 83 -1 104 -4 100 -14z m485 -5 c0 -19
-5 -22 -36 -22 -19 1 -40 8 -46 16 -8 12 -9 12 -5 -1 4 -13 -9 -16 -82 -17
-47 -1 -80 1 -73 4 6 2 12 9 12 15 0 6 -8 4 -18 -5 -25 -23 -65 -23 -60 1 3
15 17 17 101 19 69 1 97 -2 97 -10 0 -9 2 -9 8 0 4 6 28 13 52 16 25 2 46 4
48 5 1 1 2 -8 2 -21z m-436 1 c-6 -10 -4 -10 7 -2 8 6 36 11 62 12 40 1 48 -2
45 -16 -3 -14 -16 -17 -76 -19 -51 -1 -72 2 -72 11 0 17 10 26 27 26 9 0 11
-5 7 -12z m-34 -48 c0 -5 -2 -10 -4 -10 -3 0 -8 5 -11 10 -3 6 -1 10 4 10 6 0
11 -4 11 -10z m-20 -29 c0 -15 -9 -20 -45 -23 -25 -2 -53 0 -63 3 -9 3 -29 3
-44 -2 -19 -5 -28 -4 -29 4 0 9 -2 8 -6 0 -7 -19 -23 -16 -24 5 0 15 -1 15 -8
-2 -5 -13 -10 -16 -15 -8 -4 7 -15 8 -29 4 -31 -11 -68 -7 -78 9 -7 11 -9 11
-9 1 0 -7 -4 -10 -10 -7 -5 3 -10 3 -10 -2 0 -4 -28 -7 -62 -7 -48 1 -64 5
-66 17 -3 14 25 16 239 17 133 0 245 2 247 5 9 9 12 5 12 -14z m201 9 c5 0 9
-6 9 -13 0 -16 -32 -18 -42 -3 -5 7 -8 6 -8 -4 0 -12 -13 -15 -67 -13 -38 1
-71 2 -75 2 -5 1 -8 7 -8 15 0 11 16 14 70 14 39 0 74 2 77 6 4 4 13 4 21 1 7
-3 18 -5 23 -5z m182 -15 c-2 -5 -39 -11 -83 -13 -67 -2 -80 0 -80 13 0 13 13
15 83 13 48 -2 81 -7 80 -13z"/>
<path d="M3805 1880 c3 -5 8 -10 11 -10 2 0 4 5 4 10 0 6 -5 10 -11 10 -5 0
-7 -4 -4 -10z"/>
<path d="M3890 1880 c0 -5 7 -7 15 -4 8 4 15 8 15 10 0 2 -7 4 -15 4 -8 0 -15
-4 -15 -10z"/>
<path d="M3825 1810 c-3 -5 -1 -10 4 -10 6 0 11 5 11 10 0 6 -2 10 -4 10 -3 0
-8 -4 -11 -10z"/>
<path d="M898 1582 l-458 -2 0 -548 c0 -357 -4 -542 -10 -532 -6 9 -10 10 -10
3 0 -6 4 -15 10 -18 5 -3 213 -6 461 -5 351 0 455 -2 467 -12 13 -11 14 -11 7
2 -8 13 -7 13 8 1 12 -9 17 -10 17 -2 0 7 3 10 8 8 4 -3 7 245 7 552 l0 556
-25 0 c-14 0 -231 -1 -482 -3z m482 -549 l0 -528 -457 2 -458 3 -3 525 -2 525
460 0 460 0 0 -527z"/>
<path d="M1040 1113 l0 -428 155 -2 c90 -1 155 2 155 8 0 5 -63 9 -145 9
l-145 0 0 414 c0 266 -4 417 -10 421 -7 4 -10 -139 -10 -422z"/>
<path d="M492 1028 l3 -503 2 497 3 498 183 3 182 2 -187 3 -188 2 2 -502z"/>
<path d="M908 1523 c23 -2 59 -2 80 0 20 2 1 4 -43 4 -44 0 -61 -2 -37 -4z"/>
<path d="M1003 1175 c0 -38 2 -53 4 -32 2 20 2 52 0 70 -2 17 -4 1 -4 -38z"/>
<path d="M1332 1140 c0 -19 2 -27 5 -17 2 9 2 25 0 35 -3 9 -5 1 -5 -18z"/>
<path d="M1002 1070 c0 -19 2 -27 5 -17 2 9 2 25 0 35 -3 9 -5 1 -5 -18z"/>
<path d="M1002 955 c0 -16 2 -22 5 -12 2 9 2 23 0 30 -3 6 -5 -1 -5 -18z"/>
<path d="M1070 660 c0 -5 5 -10 11 -10 5 0 7 5 4 10 -3 6 -8 10 -11 10 -2 0
-4 -4 -4 -10z"/>
<path d="M1113 653 c9 -2 23 -2 30 0 6 3 -1 5 -18 5 -16 0 -22 -2 -12 -5z"/>
<path d="M1173 653 c9 -2 25 -2 35 0 9 3 1 5 -18 5 -19 0 -27 -2 -17 -5z"/>
<path d="M1342 635 c0 -16 2 -22 5 -12 2 9 2 23 0 30 -3 6 -5 -1 -5 -18z"/>
<path d="M1340 570 l0 -29 -137 -4 -138 -3 143 -2 142 -2 0 35 c0 19 -2 35 -5
35 -3 0 -5 -13 -5 -30z"/>
<path d="M943 533 c9 -2 23 -2 30 0 6 3 -1 5 -18 5 -16 0 -22 -2 -12 -5z"/>
<path d="M998 533 c6 -2 18 -2 25 0 6 3 1 5 -13 5 -14 0 -19 -2 -12 -5z"/>
<path d="M1949 1579 c-7 -4 -13 -736 -9 -1081 0 -17 32 -18 531 -18 347 0 528
-3 524 -10 -3 -6 1 -7 10 -3 11 4 13 8 6 13 -8 4 -11 164 -9 556 l3 549 -523
0 c-288 0 -528 -3 -533 -6z m1031 -550 c0 -480 -2 -531 -16 -525 -9 3 -238 6
-510 6 l-494 0 0 525 0 525 510 0 510 0 0 -531z"/>
<path d="M2941 1524 c0 -11 3 -14 6 -6 3 7 2 16 -1 19 -3 4 -6 -2 -5 -13z"/>
<path d="M1981 1398 c-1 -73 1 -130 4 -126 4 4 7 53 7 110 -1 71 2 97 8 83 7
-15 8 -10 4 17 l-6 38 333 3 334 2 -341 3 -340 2 -3 -132z"/>
<path d="M2943 1460 c0 -25 2 -35 4 -22 2 12 2 32 0 45 -2 12 -4 2 -4 -23z"/>
<path d="M2945 1050 c0 -195 1 -275 2 -178 2 98 2 258 0 355 -1 98 -2 18 -2
-177z"/>
<path d="M1992 996 c-1 -171 1 -257 8 -250 6 6 7 97 1 259 l-8 250 -1 -259z"/>
<path d="M2940 551 c0 -5 -10 -12 -22 -14 -20 -4 -19 -4 5 -6 18 -1 27 4 27
14 0 8 -2 15 -5 15 -3 0 -5 -4 -5 -9z"/>
<path d="M2568 533 c12 -2 30 -2 40 0 9 3 -1 5 -23 4 -22 0 -30 -2 -17 -4z"/>
<path d="M2693 533 c9 -2 23 -2 30 0 6 3 -1 5 -18 5 -16 0 -22 -2 -12 -5z"/>
<path d="M4075 1582 l-600 -2 3 -543 c1 -298 4 -546 6 -552 2 -7 226 -9 650
-7 l646 2 2 553 3 552 -55 0 c-30 0 -325 -1 -655 -3z m678 -549 c-1 -291 -5
-527 -8 -525 -3 1 -284 2 -625 2 l-620 0 0 525 0 525 628 0 627 0 -2 -527z"/>
<path d="M4719 1528 c-1 -7 -3 -23 -4 -35 -1 -12 1 -21 5 -18 7 5 12 65 4 65
-2 0 -5 -6 -5 -12z"/>
<path d="M3520 1308 c0 -122 2 -220 4 -217 3 3 7 100 8 215 l3 209 545 5 545
5 -552 3 -552 2 -1 -222z"/>
<path d="M4638 1523 c6 -2 18 -2 25 0 6 3 1 5 -13 5 -14 0 -19 -2 -12 -5z"/>
<path d="M3908 1503 c7 -3 16 -2 19 1 4 3 -2 6 -13 5 -11 0 -14 -3 -6 -6z"/>
<path d="M3948 1503 c7 -3 16 -2 19 1 4 3 -2 6 -13 5 -11 0 -14 -3 -6 -6z"/>
<path d="M4188 1503 c7 -3 16 -2 19 1 4 3 -2 6 -13 5 -11 0 -14 -3 -6 -6z"/>
<path d="M4233 1503 c9 -2 23 -2 30 0 6 3 -1 5 -18 5 -16 0 -22 -2 -12 -5z"/>
<path d="M4704 1270 c0 -102 2 -143 3 -92 2 50 2 134 0 185 -1 50 -3 9 -3 -93z"/>
<path d="M4718 990 c-2 -253 0 -460 5 -460 4 0 7 207 7 460 0 253 -2 460 -5
460 -2 0 -6 -207 -7 -460z"/>
<path d="M4702 1060 c0 -14 2 -19 5 -12 2 6 2 18 0 25 -3 6 -5 1 -5 -13z"/>
<path d="M3532 1040 c0 -14 2 -19 5 -12 2 6 2 18 0 25 -3 6 -5 1 -5 -13z"/>
<path d="M3524 805 c0 -116 2 -161 3 -102 2 59 2 154 0 210 -1 56 -3 8 -3
-108z"/>
<path d="M4702 920 c0 -14 2 -19 5 -12 2 6 2 18 0 25 -3 6 -5 1 -5 -13z"/>
<path d="M4703 810 c0 -25 2 -35 4 -22 2 12 2 32 0 45 -2 12 -4 2 -4 -23z"/>
<path d="M4703 660 c0 -25 2 -35 4 -22 2 12 2 32 0 45 -2 12 -4 2 -4 -23z"/>
<path d="M3678 533 c6 -2 18 -2 25 0 6 3 1 5 -13 5 -14 0 -19 -2 -12 -5z"/>
<path d="M3787 533 c18 -2 50 -2 70 0 21 2 7 4 -32 4 -38 0 -55 -2 -38 -4z"/>
<path d="M4223 533 c81 -2 213 -2 295 0 81 1 14 3 -148 3 -162 0 -229 -2 -147
-3z"/>
<path d="M3015 520 c-3 -5 -1 -10 4 -10 6 0 11 5 11 10 0 6 -2 10 -4 10 -3 0
-8 -4 -11 -10z"/>
<path d="M475 459 c6 -9 3 -10 -11 -5 -10 4 -15 4 -11 0 4 -4 2 -13 -4 -20 -6
-8 -8 -25 -5 -39 6 -22 12 -25 49 -26 23 0 185 -1 360 -2 315 -2 317 -2 317
18 0 12 5 26 10 33 6 6 7 10 3 7 -3 -3 -14 2 -23 10 -13 12 -69 15 -336 16
-190 1 -327 5 -338 11 -14 8 -17 7 -11 -3z m275 -41 c0 -10 2 -10 8 -1 12 19
107 12 107 -7 0 -20 -126 -21 -133 -1 -4 11 -6 11 -13 0 -6 -11 -38 -14 -129
-15 -107 -1 -120 1 -120 16 0 16 15 18 140 19 107 1 140 -2 140 -11z m400 -8
c0 -14 -18 -16 -135 -17 -121 -1 -135 1 -135 17 0 15 14 17 135 16 117 0 135
-3 135 -16z"/>
<path d="M2001 461 c-8 -5 -23 -8 -33 -6 -10 2 -18 -1 -18 -7 0 -6 -8 -7 -17
-3 -15 5 -16 4 -5 -6 6 -7 12 -23 12 -35 0 -13 5 -26 11 -30 6 -4 108 -7 225
-7 118 0 214 -4 214 -8 0 -4 -33 -8 -72 -8 -40 0 -135 0 -211 0 -76 -1 -142 1
-148 4 -5 4 -10 0 -10 -7 -1 -7 -3 -23 -4 -36 -1 -12 4 -26 13 -31 10 -6 11
-10 3 -15 -15 -10 -14 -59 2 -75 10 -11 9 -13 -3 -9 -12 5 -16 -3 -16 -33 0
-21 3 -36 8 -33 4 3 11 -2 14 -10 4 -11 11 -13 22 -8 10 5 156 7 325 7 169 -1
310 2 313 7 3 4 11 5 17 1 18 -11 368 -13 362 -2 -4 5 -2 9 2 9 5 0 9 11 9 24
0 14 -2 24 -6 24 -3 -1 -22 2 -43 6 -26 6 -35 12 -29 20 11 12 8 44 -5 57 -5
5 -38 10 -75 12 -37 2 -71 6 -74 10 -4 4 -2 7 4 7 13 0 17 59 5 61 -23 3 -129
8 -205 11 -49 1 -88 5 -88 9 0 4 44 8 98 7 53 0 102 0 107 1 11 1 13 66 3 76
-3 3 -161 6 -351 7 -191 0 -344 5 -341 10 7 10 3 10 -15 -1z m112 -33 c74 0
97 -3 97 -13 0 -7 -6 -15 -12 -17 -20 -6 -228 -2 -234 5 -4 3 -4 13 0 22 4 12
12 14 28 9 13 -4 67 -7 121 -6z m295 -17 c-3 -13 -19 -16 -83 -17 -89 -1 -105
2 -105 21 0 10 23 13 95 13 82 -1 95 -4 93 -17z m32 2 c0 -15 2 -16 9 -4 8 12
37 15 129 16 111 2 119 1 115 -16 -5 -17 -18 -18 -143 -18 -131 1 -137 2 -133
20 7 24 23 25 23 2z m-10 -53 c0 -5 -7 -10 -15 -10 -8 0 -15 5 -15 10 0 6 7
10 15 10 8 0 15 -4 15 -10z m55 0 c3 -5 -3 -10 -14 -10 -11 0 -23 5 -26 10 -3
6 3 10 14 10 11 0 23 -4 26 -10z m-365 -43 c0 -5 6 -5 13 1 8 7 122 10 330 10
303 -1 317 -1 317 -19 0 -17 -8 -19 -68 -19 -41 0 -73 5 -81 12 -8 7 -11 8 -8
2 9 -16 -132 -17 -152 -1 -12 9 -13 9 -7 0 4 -8 1 -13 -8 -13 -9 0 -16 6 -17
13 0 10 -2 10 -6 0 -3 -9 -33 -13 -99 -13 -83 0 -94 2 -94 18 -1 16 -1 16 -11
0 -9 -16 -26 -18 -134 -17 -110 1 -124 3 -128 20 -4 16 2 18 74 17 43 -1 79
-6 79 -11z m130 -53 c0 -2 -9 -4 -21 -4 -11 0 -18 4 -14 10 5 8 35 3 35 -6z
m-140 2 c0 -3 -4 -8 -10 -11 -5 -3 -10 -1 -10 4 0 6 5 11 10 11 6 0 10 -2 10
-4z m293 -3 c-7 -2 -19 -2 -25 0 -7 3 -2 5 12 5 14 0 19 -2 13 -5z m250 0 c-7
-2 -19 -2 -25 0 -7 3 -2 5 12 5 14 0 19 -2 13 -5z m-448 -21 c66 0 128 5 139
10 14 8 17 7 11 -3 -6 -9 1 -11 28 -6 22 3 37 2 37 -4 0 -6 7 -6 18 -1 9 5 23
7 31 4 8 -2 11 -1 8 4 -3 5 6 9 19 9 15 0 24 -6 24 -15 0 -10 3 -11 8 -4 11
17 102 15 95 -2 -3 -8 0 -14 6 -14 6 0 11 6 11 13 0 8 17 12 50 12 39 1 50 -3
50 -15 1 -12 3 -12 11 3 6 9 14 15 19 12 4 -3 42 -5 83 -6 63 -1 75 -4 73 -17
-2 -14 -17 -16 -97 -15 -52 1 -96 2 -99 3 -3 1 -56 1 -119 0 -84 -1 -116 2
-122 12 -7 10 -9 9 -9 -4 0 -14 -4 -16 -24 -8 -13 5 -26 7 -29 4 -11 -12 -100
-6 -108 7 -7 12 -9 11 -9 -1 0 -14 -91 -17 -312 -11 -21 1 -28 6 -28 21 0 17
5 19 44 14 28 -3 47 -1 51 7 5 8 10 8 14 1 4 -7 52 -11 126 -10z m-70 -78 c22
6 25 3 23 -18 -2 -25 -17 -30 -30 -11 -5 6 -8 5 -8 -4 0 -10 -3 -11 -13 -2 -8
6 -17 8 -20 4 -4 -3 -31 -7 -62 -8 -52 -1 -55 0 -55 23 0 18 4 23 16 18 9 -3
31 -6 50 -6 25 0 33 -4 28 -12 -4 -8 -2 -8 7 1 11 10 11 15 2 18 -7 3 -13 9
-13 14 0 5 11 2 25 -7 15 -10 34 -14 50 -10z m50 16 c3 -5 2 -10 -4 -10 -5 0
-13 5 -16 10 -3 6 -2 10 4 10 5 0 13 -4 16 -10z m135 6 c0 -3 -4 -8 -10 -11
-5 -3 -10 -1 -10 4 0 6 5 11 10 11 6 0 10 -2 10 -4z m66 -8 c-9 -5 -23 -5 -32
0 -12 6 -7 9 16 9 23 0 28 -3 16 -9z m59 2 c3 -5 1 -10 -4 -10 -6 0 -11 5 -11
10 0 6 2 10 4 10 3 0 8 -4 11 -10z m75 0 c12 -8 12 -10 1 -10 -8 0 -11 -3 -7
-7 4 -4 31 -6 60 -5 49 1 53 -1 49 -18 -4 -15 -13 -18 -47 -16 -23 1 -47 6
-54 10 -7 4 -12 3 -12 -2 0 -8 -23 -9 -55 -2 -5 1 -12 1 -15 0 -16 -6 -150 -4
-150 3 0 4 -5 5 -12 1 -13 -8 -89 -6 -98 3 -7 7 31 33 40 28 4 -3 66 -5 138
-6 130 -1 176 7 136 22 -13 5 -14 8 -4 8 8 0 22 -4 30 -9z m130 0 c0 -5 -4
-10 -9 -10 -6 0 -13 5 -16 10 -3 6 1 10 9 10 9 0 16 -4 16 -10z m44 -5 c-17
-13 -12 -14 61 -16 44 0 101 0 128 1 61 2 109 -9 104 -23 -4 -12 -205 -18
-212 -7 -4 7 -96 2 -104 -5 -6 -6 -31 15 -31 26 0 5 5 9 11 9 6 0 17 7 25 15
9 8 20 15 27 15 6 0 2 -7 -9 -15z m71 5 c3 -6 -1 -7 -9 -4 -18 7 -21 14 -7 14
6 0 13 -4 16 -10z"/>
<path d="M3510 460 c0 -6 -4 -8 -10 -5 -6 4 -10 -10 -10 -34 0 -31 4 -41 20
-46 16 -5 475 -10 592 -6 24 1 26 4 21 34 -2 17 -8 35 -11 39 -4 4 -136 9
-294 12 -158 2 -292 7 -298 11 -5 3 -10 1 -10 -5z m141 -30 c80 0 99 -3 99
-14 0 -12 -24 -15 -120 -18 -104 -3 -120 -1 -120 13 0 21 11 31 28 24 7 -3 58
-5 113 -5z m264 -21 c2 -13 -9 -16 -76 -15 -70 0 -79 2 -79 18 0 17 8 19 77
16 61 -2 77 -6 78 -19z m185 -1 c0 -16 -10 -18 -85 -17 -77 1 -85 3 -85 20 0
17 7 19 85 16 73 -2 85 -4 85 -19z"/>
<path d="M1186 361 c-5 -7 -64 -13 -123 -12 -17 1 -140 1 -155 0 -7 0 -42 0
-78 1 -36 1 -136 1 -223 0 l-157 -1 0 -34 c0 -18 6 -36 13 -39 9 -5 9 -7 0
-12 -7 -3 -13 -18 -13 -34 0 -16 6 -31 13 -33 9 -4 9 -8 1 -14 -6 -4 -13 -25
-16 -45 -3 -26 -1 -34 7 -28 6 5 16 6 22 2 16 -10 335 -8 351 2 6 4 12 4 12
-1 0 -4 23 -8 50 -8 28 0 50 4 50 9 0 5 6 4 13 -1 17 -14 179 -15 171 -1 -5 7
-2 8 6 3 7 -4 101 -9 210 -10 163 -1 197 1 197 12 0 10 -8 13 -24 8 -15 -3
-23 -1 -23 7 0 8 -3 9 -8 3 -4 -5 -44 -10 -90 -10 -62 0 -85 4 -92 15 -5 8
-10 10 -10 4 0 -7 -9 -14 -20 -17 -11 -3 -20 -1 -20 5 0 5 -5 6 -12 2 -16 -10
-90 -6 -102 6 -17 17 2 23 75 21 46 -1 76 2 87 11 13 11 14 11 8 0 -8 -13 7
-14 167 -12 15 0 27 -4 27 -10 0 -5 12 -9 26 -8 l26 3 -24 20 c-19 17 -37 20
-106 20 -45 0 -82 3 -82 8 0 4 6 7 14 7 15 0 10 50 -6 61 -5 3 26 5 69 5 l79
-2 -1 29 c-1 16 -8 33 -16 37 -19 11 -161 18 -185 10 -10 -4 -23 -5 -29 -2
-11 7 -17 8 -53 10 -13 1 -20 7 -17 12 3 6 4 10 1 10 -3 0 -7 -4 -10 -9z
m-606 -51 c1 -13 2 -13 10 1 7 11 25 16 65 17 48 0 55 -2 55 -19 0 -18 -9 -19
-120 -19 -110 0 -120 2 -120 19 0 15 8 18 55 17 42 0 55 -4 55 -16z m164 9
c-4 -8 -1 -8 12 -1 11 6 47 10 82 10 56 -1 62 -3 62 -22 0 -17 -2 -18 -10 -6
-6 10 -10 11 -10 3 0 -7 -7 -13 -15 -13 -8 0 -15 6 -16 13 0 10 -2 10 -6 0 -6
-16 -109 -18 -118 -3 -7 12 2 30 16 30 6 0 7 -5 3 -11z m316 -9 c0 -15 -10
-18 -69 -19 -66 -1 -89 8 -77 28 3 4 37 8 76 8 60 1 70 -2 70 -17z m178 11
c15 -1 22 -7 22 -22 0 -16 -4 -19 -20 -14 -25 8 -136 8 -149 1 -13 -8 -24 11
-18 29 5 12 28 13 165 6z m232 -23 c0 -10 -4 -18 -10 -18 -5 0 -10 5 -10 11 0
5 -4 8 -9 5 -19 -12 -123 -9 -131 3 -5 9 -9 8 -14 -5 -5 -12 -10 -14 -17 -7
-24 24 3 33 97 31 84 -1 94 -3 94 -20z m-740 -32 c0 -11 -19 -15 -25 -6 -3 5
1 10 9 10 9 0 16 -2 16 -4z m150 -6 c0 -5 -2 -10 -4 -10 -3 0 -8 5 -11 10 -3
6 -1 10 4 10 6 0 11 -4 11 -10z m76 -4 c16 5 17 4 4 -6 -12 -9 -9 -10 15 -5
16 4 34 12 38 18 6 8 7 6 3 -5 -4 -15 2 -17 49 -15 30 1 57 -2 59 -8 1 -5 13
-1 25 9 11 11 21 14 21 9 0 -6 19 -11 43 -11 107 1 127 -2 127 -17 0 -8 -4
-15 -10 -15 -5 0 -10 6 -10 13 0 9 -2 9 -8 0 -11 -17 -422 -18 -422 0 0 9 -2
9 -8 0 -9 -15 -32 -16 -254 -14 -150 1 -158 2 -158 21 0 18 5 19 56 14 35 -3
61 0 70 7 11 9 14 9 14 0 0 -8 16 -11 50 -8 38 4 50 2 50 -9 0 -8 4 -14 10
-14 5 0 7 8 4 18 -5 16 -5 16 9 -1 12 -14 16 -15 20 -4 4 11 25 14 92 11 81
-3 86 -2 74 14 -12 15 -12 16 2 4 9 -7 25 -10 35 -6z m324 10 c0 -3 -4 -8 -10
-11 -5 -3 -10 -1 -10 4 0 6 5 11 10 11 6 0 10 -2 10 -4z m-690 -76 c0 -5 -2
-10 -4 -10 -3 0 -8 5 -11 10 -3 6 -1 10 4 10 6 0 11 -4 11 -10z m95 -10 c3 -5
1 -10 -4 -10 -6 0 -11 5 -11 10 0 6 2 10 4 10 3 0 8 -4 11 -10z m65 6 c0 -11
-19 -15 -25 -6 -3 5 1 10 9 10 9 0 16 -2 16 -4z m174 -17 c-3 -5 9 -9 26 -9
18 0 33 6 36 15 4 8 10 12 15 9 5 -3 7 -10 4 -15 -4 -5 20 -9 54 -9 60 0 74
-8 49 -27 -21 -15 -138 -9 -149 8 -7 11 -9 11 -9 0 0 -7 -6 -11 -15 -8 -8 4
-17 2 -20 -4 -4 -5 -11 -6 -18 -2 -15 9 -87 10 -113 1 -12 -4 -25 -4 -29 0 -3
3 -22 5 -41 3 -18 -1 -34 2 -34 7 0 21 27 30 80 27 30 -2 61 2 68 7 8 7 12 7
12 -1 0 -6 16 -11 36 -11 27 0 35 3 31 14 -4 10 -1 13 8 9 8 -3 12 -9 9 -14z
m216 11 c0 -5 -4 -10 -9 -10 -6 0 -13 5 -16 10 -3 6 1 10 9 10 9 0 16 -4 16
-10z m-472 -19 c2 -1 -4 -8 -12 -16 -11 -11 -39 -16 -98 -18 -76 -1 -83 0 -86
19 -3 19 2 20 95 18 54 -1 99 -3 101 -3z"/>
<path d="M3758 354 c-3 -2 -63 -5 -134 -7 l-129 -2 -3 -29 c-2 -16 2 -33 10
-38 10 -7 10 -11 1 -15 -7 -2 -13 -17 -13 -33 0 -16 6 -31 13 -34 10 -5 10 -7
0 -12 -15 -7 -18 -64 -3 -64 6 0 10 -7 10 -15 0 -9 6 -12 16 -8 9 3 63 6 120
6 70 1 101 4 97 11 -5 8 -3 8 8 0 9 -6 81 -10 191 -10 98 1 178 -2 178 -6 0
-4 12 -3 28 1 15 4 38 6 52 4 14 -2 39 -3 55 -3 17 0 72 0 124 0 65 0 97 4
103 12 5 10 8 8 8 -4 0 -14 5 -15 30 -8 17 5 30 6 30 2 0 -7 185 -4 206 3 20
6 13 55 -9 67 -12 6 -57 11 -102 12 -46 1 -90 7 -103 14 -23 13 -23 14 -6 33
10 11 12 19 6 19 -7 0 -12 -5 -12 -12 0 -7 -6 -4 -12 5 -7 9 -27 18 -45 19
-17 1 -29 6 -27 10 3 5 11 5 17 2 9 -5 9 -4 0 6 -6 7 -9 18 -7 25 11 28 -25
35 -192 39 -270 7 -456 8 -461 2 -3 -3 -13 -1 -23 4 -10 5 -20 7 -22 4z m22
-36 c0 -7 4 -7 13 0 6 5 35 10 63 11 44 0 53 -2 57 -20 5 -20 2 -20 -59 -17
-38 2 -64 -1 -64 -7 -1 -5 -7 -2 -14 8 -14 18 -32 24 -21 7 3 -5 -1 -10 -9
-10 -9 0 -16 6 -16 13 0 9 -2 9 -8 0 -4 -7 -36 -12 -77 -13 -126 -3 -135 -2
-135 18 0 16 13 18 135 19 84 0 135 -3 135 -9z m357 -5 c3 -8 4 -16 1 -18 -3
-4 -72 -6 -153 -4 -10 0 -25 5 -32 11 -11 8 -12 7 -7 -8 6 -18 6 -18 -11 -2
-32 29 -9 38 97 36 75 -1 101 -5 105 -15z m124 6 c82 -2 90 -4 83 -22 -5 -14
-173 -11 -189 4 -10 10 13 32 25 24 4 -2 40 -5 81 -6z m172 -11 c-2 -5 -3 -12
-3 -16 0 -5 -16 -8 -35 -8 -26 1 -35 5 -35 18 0 14 8 17 38 15 20 -1 36 -5 35
-9z m-770 -45 c-31 -12 -8 -19 60 -18 54 0 71 4 69 13 -1 8 2 11 8 7 6 -3 8
-11 5 -16 -8 -12 2 -12 25 1 16 9 17 7 11 -17 -8 -30 -31 -43 -31 -18 0 15 -2
15 -16 4 -13 -10 -17 -10 -25 2 -6 10 -9 10 -9 2 0 -10 -32 -13 -125 -13 -119
0 -125 1 -125 20 0 19 5 20 59 16 44 -4 62 -2 71 9 7 8 18 15 24 14 7 0 6 -2
-1 -6z m104 1 c-3 -3 -12 -4 -19 -1 -8 3 -5 6 6 6 11 1 17 -2 13 -5z m266 -22
c-5 -14 -4 -15 8 -6 9 8 45 11 97 9 46 -2 82 0 82 6 0 5 5 9 12 9 9 0 9 -3 0
-12 -7 -7 -12 -19 -12 -28 0 -14 -22 -16 -185 -15 -164 0 -185 2 -185 16 0 19
26 44 33 32 3 -4 29 -7 59 -7 84 2 90 3 82 16 -4 7 -3 8 4 4 6 -4 8 -14 5 -24z
m242 8 c-4 -6 6 -8 25 -6 19 2 33 -2 38 -11 7 -12 10 -12 19 -1 8 9 32 12 83
10 60 -3 71 -6 68 -20 -3 -14 -18 -17 -101 -17 -89 -1 -117 5 -84 18 9 4 9 6
-1 6 -7 1 -15 -6 -18 -14 -8 -19 -60 -20 -68 0 -3 8 4 21 17 30 25 17 31 19
22 5z m275 -65 c0 -2 -9 -3 -19 -2 -11 0 -18 5 -15 9 4 6 34 0 34 -7z m-907
-14 c-3 -12 6 -14 54 -11 27 1 32 -2 27 -15 -4 -10 -14 -15 -25 -12 -11 3 -19
2 -19 -2 0 -9 -42 -8 -57 2 -7 5 -13 5 -13 0 0 -4 -21 -8 -47 -7 -42 1 -48 4
-51 24 -3 19 0 21 15 15 48 -20 133 -5 101 17 -10 7 -10 8 2 5 8 -2 14 -10 13
-16z m97 4 c7 -8 22 -14 34 -14 11 0 50 0 86 -1 39 -1 66 3 68 9 2 6 8 11 13
11 6 0 7 -4 4 -10 -7 -11 11 -13 98 -11 43 1 57 -2 57 -13 0 -21 -13 -22 -184
-20 -164 3 -192 7 -181 25 4 5 -1 17 -11 24 -11 8 -14 15 -8 15 6 0 17 -7 24
-15z m260 5 c12 -8 9 -9 -12 -8 -15 1 -24 6 -22 10 7 10 16 10 34 -2z m110 6
c0 -2 -7 -7 -16 -10 -8 -3 -12 -2 -9 4 6 10 25 14 25 6z m130 -6 c8 -5 11 -10
5 -10 -5 0 -17 5 -25 10 -8 5 -10 10 -5 10 6 0 17 -5 25 -10z m80 6 c0 -3 -4
-8 -10 -11 -5 -3 -10 -1 -10 4 0 6 5 11 10 11 6 0 10 -2 10 -4z m37 -2 c-3 -3
-12 -4 -19 -1 -8 3 -5 6 6 6 11 1 17 -2 13 -5z m-490 -10 c-3 -3 -12 -4 -19
-1 -8 3 -5 6 6 6 11 1 17 -2 13 -5z m50 0 c-3 -3 -12 -4 -19 -1 -8 3 -5 6 6 6
11 1 17 -2 13 -5z m836 -40 c2 -14 0 -21 -6 -17 -5 3 -44 7 -86 8 -43 1 -83 5
-91 10 -8 5 -11 4 -7 -2 4 -6 -8 -10 -28 -11 -25 -1 -35 3 -35 13 0 18 -17 20
-22 3 -5 -15 -168 -18 -168 -3 0 6 -3 6 -8 0 -9 -14 -55 -13 -64 0 -5 7 -8 7
-8 0 0 -5 -26 -10 -57 -10 -46 0 -58 4 -61 17 -3 16 21 17 316 16 l320 -1 5
-23z"/>
</g>
</svg>
