<?xml version="1.0" standalone="no"?>
<!DOCTYPE svg PUBLIC "-//W3C//DTD SVG 20010904//EN"
 "http://www.w3.org/TR/2001/REC-SVG-20010904/DTD/svg10.dtd">
<svg version="1.0" xmlns="http://www.w3.org/2000/svg"
 width="512.000000pt" height="512.000000pt" viewBox="0 0 512.000000 512.000000"
 preserveAspectRatio="xMidYMid meet">
<metadata>
Created by potrace 1.16, written by Peter Selinger 2001-2019
</metadata>
<g transform="translate(0.000000,512.000000) scale(0.100000,-0.100000)"
fill="#000000" stroke="none">
<path d="M4690 5105 c-19 -22 -8 -25 13 -3 9 10 13 18 8 18 -5 0 -14 -7 -21
-15z"/>
<path d="M2182 5080 c0 -14 2 -19 5 -12 2 6 2 18 0 25 -3 6 -5 1 -5 -13z"/>
<path d="M2323 5055 c0 -27 2 -38 4 -22 2 15 2 37 0 50 -2 12 -4 0 -4 -28z"/>
<path d="M290 5076 c0 -2 8 -10 18 -17 15 -13 16 -12 3 4 -13 16 -21 21 -21
13z"/>
<path d="M2181 5034 c0 -11 3 -14 6 -6 3 7 2 16 -1 19 -3 4 -6 -2 -5 -13z"/>
<path d="M4639 5033 c-13 -16 -12 -17 4 -4 16 13 21 21 13 21 -2 0 -10 -8 -17
-17z"/>
<path d="M1560 5021 c0 -6 4 -13 10 -16 6 -3 7 1 4 9 -7 18 -14 21 -14 7z"/>
<path d="M340 5016 c0 -2 8 -10 18 -17 15 -13 16 -12 3 4 -13 16 -21 21 -21
13z"/>
<path d="M2192 4980 c0 -19 2 -27 5 -17 2 9 2 25 0 35 -3 9 -5 1 -5 -18z"/>
<path d="M2121 4974 c0 -11 3 -14 6 -6 3 7 2 16 -1 19 -3 4 -6 -2 -5 -13z"/>
<path d="M2333 4925 c0 -33 3 -94 7 -135 l7 -75 0 60 c0 33 -3 94 -7 135 l-7
75 0 -60z"/>
<path d="M4576 4954 c-5 -14 -4 -15 9 -4 17 14 19 20 6 20 -5 0 -12 -7 -15
-16z"/>
<path d="M2132 4915 c0 -16 2 -22 5 -12 2 9 2 23 0 30 -3 6 -5 -1 -5 -18z"/>
<path d="M2206 4875 c12 -189 26 -340 30 -345 8 -7 -7 213 -22 320 -11 81 -12
85 -8 25z"/>
<path d="M4535 4903 l-17 -28 23 22 c12 12 20 25 17 28 -3 3 -13 -7 -23 -22z"/>
<path d="M440 4896 c0 -2 7 -9 15 -16 13 -11 14 -10 9 4 -5 14 -24 23 -24 12z"/>
<path d="M2282 4875 c0 -16 3 -39 8 -50 l9 -20 -1 20 c0 11 -4 34 -8 50 l-8
30 0 -30z"/>
<path d="M4478 4832 c-14 -20 -33 -46 -42 -57 -8 -11 -50 -67 -93 -124 -43
-57 -130 -172 -193 -256 -63 -84 -151 -204 -195 -265 -195 -274 -327 -454
-421 -575 -216 -280 -254 -332 -254 -349 0 -6 19 17 43 50 23 33 103 138 178
234 126 162 231 304 484 656 125 175 287 394 339 460 23 28 52 66 66 84 14 19
46 61 71 94 55 74 62 86 52 86 -4 0 -20 -17 -35 -38z"/>
<path d="M500 4833 c0 -6 8 -17 18 -24 16 -13 16 -13 2 6 -8 11 -16 22 -17 24
-2 2 -3 0 -3 -6z"/>
<path d="M2961 4824 c0 -11 3 -14 6 -6 3 7 2 16 -1 19 -3 4 -6 -2 -5 -13z"/>
<path d="M1540 4791 c0 -6 4 -13 10 -16 6 -3 7 1 4 9 -7 18 -14 21 -14 7z"/>
<path d="M2292 4770 c0 -14 2 -19 5 -12 2 6 2 18 0 25 -3 6 -5 1 -5 -13z"/>
<path d="M550 4771 c0 -5 5 -13 10 -16 6 -3 10 -2 10 4 0 5 -4 13 -10 16 -5 3
-10 2 -10 -4z"/>
<path d="M591 4723 c8 -10 21 -26 29 -37 8 -10 35 -42 60 -71 25 -28 84 -98
131 -156 86 -104 181 -210 273 -304 74 -76 8 4 -106 129 -53 58 -163 185 -243
281 -81 96 -149 175 -152 175 -3 0 1 -8 8 -17z"/>
<path d="M2883 4670 c0 -41 2 -58 4 -37 2 20 2 54 0 75 -2 20 -4 3 -4 -38z"/>
<path d="M2171 4704 c0 -11 3 -14 6 -6 3 7 2 16 -1 19 -3 4 -6 -2 -5 -13z"/>
<path d="M2302 4695 c0 -16 2 -22 5 -12 2 9 2 23 0 30 -3 6 -5 -1 -5 -18z"/>
<path d="M2351 4660 c-1 -62 24 -422 39 -550 5 -47 13 -121 17 -165 4 -44 9
-70 11 -58 2 13 -4 100 -13 195 -9 95 -25 277 -35 403 -10 127 -18 205 -19
175z"/>
<path d="M4437 4634 c-16 -19 -25 -34 -20 -33 4 0 21 16 36 35 16 19 25 34 20
33 -4 0 -21 -16 -36 -35z"/>
<path d="M2311 4624 c0 -11 3 -14 6 -6 3 7 2 16 -1 19 -3 4 -6 -2 -5 -13z"/>
<path d="M2936 4594 c-4 -10 -1 -14 6 -12 15 5 23 28 10 28 -5 0 -13 -7 -16
-16z"/>
<path d="M4353 4537 c-70 -88 -86 -108 -158 -196 -84 -102 -297 -374 -409
-521 -75 -99 -121 -159 -260 -339 -32 -42 -84 -110 -115 -151 -31 -41 -60 -78
-66 -82 -5 -4 -6 -11 -1 -15 5 -4 11 -3 13 4 4 11 106 145 356 468 172 222
281 361 471 600 109 137 204 256 209 263 5 7 8 14 5 17 -2 2 -22 -19 -45 -48z"/>
<path d="M1640 4574 c0 -16 175 -496 222 -609 14 -33 44 -117 68 -187 24 -71
47 -128 51 -128 5 0 2 17 -6 38 -8 20 -24 73 -36 117 -12 44 -44 136 -71 205
-28 69 -58 150 -68 180 -19 57 -30 87 -85 230 -18 47 -39 102 -46 123 -11 31
-29 51 -29 31z"/>
<path d="M2975 4570 c3 -5 8 -10 11 -10 2 0 4 5 4 10 0 6 -5 10 -11 10 -5 0
-7 -4 -4 -10z"/>
<path d="M2548 4563 c7 -3 16 -2 19 1 4 3 -2 6 -13 5 -11 0 -14 -3 -6 -6z"/>
<path d="M1626 4530 c3 -19 24 -82 46 -140 22 -58 57 -152 78 -210 32 -91 122
-314 150 -375 26 -56 -7 51 -42 135 -43 105 -126 321 -194 505 -24 66 -42 104
-38 85z"/>
<path d="M3615 4529 c-4 -6 -5 -12 -2 -15 2 -3 7 2 10 11 7 17 1 20 -8 4z"/>
<path d="M3871 4514 c0 -11 3 -14 6 -6 3 7 2 16 -1 19 -3 4 -6 -2 -5 -13z"/>
<path d="M2241 4501 c-1 -33 21 -159 26 -145 2 6 -3 46 -11 90 -8 43 -15 68
-15 55z"/>
<path d="M2920 4505 c0 -10 10 -15 30 -15 20 0 30 5 30 15 0 10 -10 15 -30 15
-20 0 -30 -5 -30 -15z"/>
<path d="M3572 4500 c0 -14 2 -19 5 -12 2 6 2 18 0 25 -3 6 -5 1 -5 -13z"/>
<path d="M2847 4503 c-4 -3 -6 -27 -6 -52 l1 -46 9 50 c8 51 7 60 -4 48z"/>
<path d="M1711 4480 c0 -8 4 -22 9 -30 12 -18 12 -2 0 25 -6 13 -9 15 -9 5z"/>
<path d="M2638 4483 c23 -2 61 -2 85 0 23 2 4 4 -43 4 -47 0 -66 -2 -42 -4z"/>
<path d="M2882 4455 c0 -16 2 -22 5 -12 2 9 2 23 0 30 -3 6 -5 -1 -5 -18z"/>
<path d="M3871 4464 c0 -11 3 -14 6 -6 3 7 2 16 -1 19 -3 4 -6 -2 -5 -13z"/>
<path d="M3860 4415 c0 -8 2 -15 4 -15 2 0 6 7 10 15 3 8 1 15 -4 15 -6 0 -10
-7 -10 -15z"/>
<path d="M2984 4383 c-3 -16 -10 -43 -15 -62 -5 -19 -7 -37 -4 -39 3 -4 13 31
29 101 4 15 4 27 1 27 -2 0 -7 -12 -11 -27z"/>
<path d="M2910 4364 c0 -21 4 -33 10 -29 6 3 10 19 10 36 0 16 -4 29 -10 29
-5 0 -10 -16 -10 -36z"/>
<path d="M3861 4374 c0 -11 3 -14 6 -6 3 7 2 16 -1 19 -3 4 -6 -2 -5 -13z"/>
<path d="M3581 4364 c0 -11 3 -14 6 -6 3 7 2 16 -1 19 -3 4 -6 -2 -5 -13z"/>
<path d="M2843 4310 c0 -25 2 -35 4 -22 2 12 2 32 0 45 -2 12 -4 2 -4 -23z"/>
<path d="M2275 4300 c9 -74 47 -271 52 -267 2 3 -8 69 -22 148 -26 147 -39
200 -30 119z"/>
<path d="M3570 4321 c0 -25 6 -27 13 -6 4 8 2 17 -3 20 -6 4 -10 -3 -10 -14z"/>
<path d="M3674 4249 c-14 -28 -24 -53 -22 -55 2 -2 16 21 31 51 15 30 25 55
22 55 -3 0 -16 -23 -31 -51z"/>
<path d="M3587 4253 c-10 -19 -17 -83 -9 -83 6 0 12 19 14 43 5 43 4 54 -5 40z"/>
<path d="M2833 4195 c0 -33 2 -45 4 -27 2 18 2 45 0 60 -2 15 -4 0 -4 -33z"/>
<path d="M5065 4230 c-3 -5 -1 -10 4 -10 6 0 11 5 11 10 0 6 -2 10 -4 10 -3 0
-8 -4 -11 -10z"/>
<path d="M3860 4189 c0 -11 5 -17 10 -14 6 3 10 13 10 21 0 8 -4 14 -10 14 -5
0 -10 -9 -10 -21z"/>
<path d="M2868 4165 c-3 -14 -1 -28 3 -31 5 -3 9 9 9 25 0 38 -6 40 -12 6z"/>
<path d="M2907 4161 c-4 -18 -7 -43 -6 -55 1 -11 5 -1 10 24 5 25 7 49 6 55
-2 5 -7 -5 -10 -24z"/>
<path d="M3620 4140 c-27 -53 -44 -98 -32 -85 11 12 63 125 57 125 -3 0 -14
-18 -25 -40z"/>
<path d="M4930 4120 c-14 -11 -20 -20 -14 -20 6 0 19 9 29 20 23 25 17 25 -15
0z"/>
<path d="M1065 4080 c-3 -5 -1 -10 4 -10 6 0 11 5 11 10 0 6 -2 10 -4 10 -3 0
-8 -4 -11 -10z"/>
<path d="M4880 4079 c0 -5 5 -7 10 -4 6 3 10 8 10 11 0 2 -4 4 -10 4 -5 0 -10
-5 -10 -11z"/>
<path d="M1095 4070 c3 -5 13 -10 22 -10 9 0 13 -6 10 -14 -4 -10 0 -12 15 -8
21 5 21 5 -1 24 -25 19 -56 25 -46 8z"/>
<path d="M2892 4040 c0 -19 2 -27 5 -17 2 9 2 25 0 35 -3 9 -5 1 -5 -18z"/>
<path d="M4840 4050 c-9 -6 -10 -10 -3 -10 6 0 15 5 18 10 8 12 4 12 -15 0z"/>
<path d="M2815 3960 c-4 -50 -5 -93 -2 -96 2 -3 8 36 12 86 3 51 5 94 2 96 -3
3 -8 -36 -12 -86z"/>
<path d="M3566 4023 c-6 -14 -5 -15 5 -6 7 7 10 15 7 18 -3 3 -9 -2 -12 -12z"/>
<path d="M1145 4020 c-4 -6 -11 -8 -16 -5 -5 4 -9 1 -9 -4 0 -17 37 -13 44 4
6 17 -9 21 -19 5z"/>
<path d="M3686 4013 c-6 -14 -5 -15 5 -6 7 7 10 15 7 18 -3 3 -9 -2 -12 -12z"/>
<path d="M4790 4010 c-14 -11 -20 -20 -14 -20 6 0 19 9 29 20 23 25 17 25 -15
0z"/>
<path d="M1070 4010 c0 -5 9 -10 21 -10 11 0 17 5 14 10 -3 6 -13 10 -21 10
-8 0 -14 -4 -14 -10z"/>
<path d="M2332 4005 c0 -11 4 -31 8 -45 6 -20 8 -21 8 -5 0 11 -4 31 -8 45 -6
20 -8 21 -8 5z"/>
<path d="M1229 3950 c57 -69 80 -96 240 -283 55 -65 105 -125 110 -135 5 -9
12 -14 15 -11 3 3 -40 59 -95 125 -56 65 -143 169 -194 229 -50 61 -100 117
-111 125 -10 8 5 -14 35 -50z"/>
<path d="M1563 3935 c0 -38 2 -53 4 -32 2 20 2 52 0 70 -2 17 -4 1 -4 -38z"/>
<path d="M2871 3924 c-7 -41 -11 -78 -8 -80 2 -3 10 30 16 72 7 41 11 78 8 80
-2 3 -10 -30 -16 -72z"/>
<path d="M3234 3979 c-3 -6 0 -15 7 -20 11 -7 9 -9 -5 -9 -15 0 -17 -3 -9 -11
16 -16 33 -2 33 27 0 25 -14 32 -26 13z"/>
<path d="M3665 3979 c-4 -6 -5 -12 -2 -15 2 -3 7 2 10 11 7 17 1 20 -8 4z"/>
<path d="M3523 3943 c-10 -21 -60 -118 -111 -215 -51 -97 -92 -185 -92 -194 0
-13 174 320 218 418 18 41 7 34 -15 -9z"/>
<path d="M4649 3898 c-56 -46 -133 -109 -173 -142 -85 -70 -483 -387 -546
-436 -25 -19 -47 -37 -50 -40 -7 -8 -135 -109 -220 -174 -41 -32 -79 -65 -84
-75 -5 -9 3 -5 18 9 15 14 72 59 126 100 188 143 476 368 575 449 55 45 107
87 115 94 89 71 350 290 350 293 0 10 -16 -1 -111 -78z"/>
<path d="M1711 3944 c0 -11 3 -14 6 -6 3 7 2 16 -1 19 -3 4 -6 -2 -5 -13z"/>
<path d="M3190 3936 c0 -31 6 -34 13 -6 3 11 1 23 -4 26 -5 3 -9 -6 -9 -20z"/>
<path d="M3615 3890 c-14 -27 -23 -50 -20 -50 2 0 16 23 30 50 14 28 23 50 20
50 -2 0 -16 -22 -30 -50z"/>
<path d="M1712 3895 c0 -16 2 -22 5 -12 2 9 2 23 0 30 -3 6 -5 -1 -5 -18z"/>
<path d="M3192 3880 c0 -14 2 -19 5 -12 2 6 2 18 0 25 -3 6 -5 1 -5 -13z"/>
<path d="M2361 3874 c0 -11 3 -14 6 -6 3 7 2 16 -1 19 -3 4 -6 -2 -5 -13z"/>
<path d="M2422 3830 c0 -19 3 -57 8 -85 6 -40 7 -43 8 -15 0 19 -3 58 -8 85
-6 40 -7 43 -8 15z"/>
<path d="M2372 3825 c0 -16 2 -22 5 -12 2 9 2 23 0 30 -3 6 -5 -1 -5 -18z"/>
<path d="M2803 3815 c0 -22 2 -30 4 -17 2 12 2 30 0 40 -3 9 -5 -1 -4 -23z"/>
<path d="M1563 3790 c0 -30 2 -43 4 -27 2 15 2 39 0 55 -2 15 -4 2 -4 -28z"/>
<path d="M1711 3824 c0 -11 3 -14 6 -6 3 7 2 16 -1 19 -3 4 -6 -2 -5 -13z"/>
<path d="M2852 3805 c0 -16 2 -22 5 -12 2 9 2 23 0 30 -3 6 -5 -1 -5 -18z"/>
<path d="M3190 3811 c0 -12 5 -21 10 -21 6 0 10 6 10 14 0 8 -4 18 -10 21 -5
3 -10 -3 -10 -14z"/>
<path d="M3230 3809 c0 -18 2 -19 15 -9 8 7 15 16 15 21 0 5 -7 9 -15 9 -9 0
-15 -9 -15 -21z"/>
<path d="M2383 3755 c0 -22 2 -30 4 -17 2 12 2 30 0 40 -3 9 -5 -1 -4 -23z"/>
<path d="M3540 3760 c-6 -11 -8 -20 -6 -20 3 0 10 9 16 20 6 11 8 20 6 20 -3
0 -10 -9 -16 -20z"/>
<path d="M2793 3735 c0 -22 2 -30 4 -17 2 12 2 30 0 40 -3 9 -5 -1 -4 -23z"/>
<path d="M2831 3699 c-6 -40 -10 -74 -7 -76 2 -2 9 28 16 67 7 39 10 73 8 76
-3 2 -10 -28 -17 -67z"/>
<path d="M3200 3743 c0 -11 3 -14 8 -7 4 6 14 14 22 17 10 4 8 6 -7 6 -16 1
-23 -5 -23 -16z"/>
<path d="M1710 3731 c0 -12 5 -21 10 -21 6 0 10 6 10 14 0 8 -4 18 -10 21 -5
3 -10 -3 -10 -14z"/>
<path d="M3513 3718 c-15 -18 -35 -58 -29 -58 2 0 13 16 25 35 20 35 22 46 4
23z"/>
<path d="M3216 3688 c-3 -7 -7 -32 -9 -55 -5 -42 -5 -43 21 -37 15 4 27 7 28
8 0 1 -1 22 -4 49 -3 32 -9 47 -18 47 -8 0 -16 -6 -18 -12z m24 -38 c0 -16 -4
-30 -10 -30 -5 0 -10 14 -10 30 0 17 5 30 10 30 6 0 10 -13 10 -30z"/>
<path d="M2443 3655 c0 -22 2 -30 4 -17 2 12 2 30 0 40 -3 9 -5 -1 -4 -23z"/>
<path d="M2782 3650 c0 -14 2 -19 5 -12 2 6 2 18 0 25 -3 6 -5 1 -5 -13z"/>
<path d="M2402 3635 c0 -16 2 -22 5 -12 2 9 2 23 0 30 -3 6 -5 -1 -5 -18z"/>
<path d="M1710 3528 c0 -68 4 -128 8 -135 4 -7 7 48 7 122 0 74 -3 135 -7 135
-5 0 -8 -55 -8 -122z"/>
<path d="M3412 3545 c-34 -57 -62 -108 -62 -112 0 -8 30 38 55 82 7 11 26 46
44 78 18 31 31 57 29 57 -3 0 -33 -47 -66 -105z"/>
<path d="M2572 3605 c-6 -14 -10 -25 -8 -25 2 0 11 11 20 25 9 14 13 25 8 25
-5 0 -14 -11 -20 -25z"/>
<path d="M4116 3611 c-4 -7 -5 -15 -2 -18 9 -9 19 4 14 18 -4 11 -6 11 -12 0z"/>
<path d="M4950 3566 c-52 -29 -133 -75 -180 -101 -121 -67 -314 -181 -390
-230 -66 -42 -113 -69 -295 -165 -95 -51 -165 -90 -420 -237 -60 -34 -114 -63
-118 -63 -5 0 -21 -9 -36 -19 -15 -11 -36 -19 -46 -18 -11 1 -19 -3 -18 -9 1
-6 -29 -26 -67 -44 -39 -17 -70 -36 -70 -42 0 -5 3 -8 8 -6 45 20 375 203 547
303 55 32 177 98 270 148 94 49 190 103 215 120 24 17 74 47 110 67 36 20 108
61 160 92 52 30 115 66 140 80 25 14 76 44 113 67 37 23 95 55 127 72 55 28
71 40 53 38 -5 0 -51 -24 -103 -53z"/>
<path d="M1050 3606 c0 -2 9 -6 20 -9 11 -3 18 -1 14 4 -5 9 -34 13 -34 5z"/>
<path d="M1415 3539 c0 -32 3 -59 8 -59 10 0 9 107 -1 114 -4 2 -8 -22 -7 -55z"/>
<path d="M2808 3575 c-3 -14 -1 -25 3 -25 5 0 9 11 9 25 0 14 -2 25 -4 25 -2
0 -6 -11 -8 -25z"/>
<path d="M2545 3559 c-4 -6 -5 -12 -2 -15 2 -3 7 2 10 11 7 17 1 20 -8 4z"/>
<path d="M2750 3530 c0 -5 5 -10 10 -10 6 0 10 5 10 10 0 6 -4 10 -10 10 -5 0
-10 -4 -10 -10z"/>
<path d="M3213 3524 c-3 -8 -3 -18 1 -21 3 -4 6 -1 6 5 0 7 5 12 11 12 5 0 7
-5 3 -11 -4 -7 -1 -10 7 -7 8 3 14 11 14 18 0 18 -35 22 -42 4z"/>
<path d="M2936 3500 c-3 -18 -10 -29 -16 -25 -5 3 -10 1 -10 -4 0 -6 6 -11 14
-11 14 0 33 56 23 66 -2 3 -7 -9 -11 -26z"/>
<path d="M1227 3499 c7 -7 15 -10 18 -7 3 3 -2 9 -12 12 -14 6 -15 5 -6 -5z"/>
<path d="M1645 3451 c27 -34 54 -65 59 -69 6 -3 -12 22 -39 57 -27 34 -54 65
-59 69 -6 3 12 -22 39 -57z"/>
<path d="M2810 3500 c0 -5 7 -7 15 -4 8 4 15 8 15 10 0 2 -7 4 -15 4 -8 0 -15
-4 -15 -10z"/>
<path d="M2856 3494 c-9 -22 -8 -24 9 -24 8 0 15 9 15 20 0 24 -15 27 -24 4z"/>
<path d="M3306 3495 c-3 -9 -6 -22 -5 -28 0 -7 5 -1 10 12 5 13 8 26 5 28 -2
2 -6 -3 -10 -12z"/>
<path d="M2110 3486 c0 -9 5 -16 10 -16 6 0 10 4 10 9 0 6 -4 13 -10 16 -5 3
-10 -1 -10 -9z"/>
<path d="M2450 3490 c0 -6 11 -8 28 -4 39 10 40 14 4 14 -18 0 -32 -5 -32 -10z"/>
<path d="M3095 3480 c3 -5 16 -10 27 -10 26 0 16 13 -13 17 -12 2 -18 -1 -14
-7z"/>
<path d="M3200 3471 c0 -6 5 -13 10 -16 6 -3 10 1 10 9 0 9 -4 16 -10 16 -5 0
-10 -4 -10 -9z"/>
<path d="M2121 3434 c0 -11 3 -14 6 -6 3 7 2 16 -1 19 -3 4 -6 -2 -5 -13z"/>
<path d="M2812 3430 c0 -14 2 -19 5 -12 2 6 2 18 0 25 -3 6 -5 1 -5 -13z"/>
<path d="M3206 3425 c6 -16 54 -21 54 -6 0 5 -10 11 -22 15 -34 9 -38 7 -32
-9z"/>
<path d="M2461 3414 c0 -11 3 -14 6 -6 3 7 2 16 -1 19 -3 4 -6 -2 -5 -13z"/>
<path d="M3891 3413 c0 -10 4 -27 9 -38 7 -16 9 -13 9 18 1 20 -3 37 -9 37 -5
0 -10 -8 -9 -17z"/>
<path d="M1230 3406 c0 -2 7 -7 16 -10 8 -3 12 -2 9 4 -6 10 -25 14 -25 6z"/>
<path d="M2131 3394 c0 -11 3 -14 6 -6 3 7 2 16 -1 19 -3 4 -6 -2 -5 -13z"/>
<path d="M3103 3385 c-3 -9 -3 -18 -1 -21 3 -3 8 4 11 16 6 23 -1 27 -10 5z"/>
<path d="M3210 3364 c0 -14 4 -23 10 -19 6 3 10 15 10 26 0 10 -4 19 -10 19
-5 0 -10 -12 -10 -26z"/>
<path d="M1385 3370 c3 -5 11 -10 16 -10 6 0 7 5 4 10 -3 6 -11 10 -16 10 -6
0 -7 -4 -4 -10z"/>
<path d="M2472 3360 c0 -14 2 -19 5 -12 2 6 2 18 0 25 -3 6 -5 1 -5 -13z"/>
<path d="M2776 3373 c-9 -9 -7 -33 3 -33 12 0 22 28 12 34 -5 3 -11 3 -15 -1z"/>
<path d="M3240 3370 c0 -5 5 -10 10 -10 6 0 10 5 10 10 0 6 -4 10 -10 10 -5 0
-10 -4 -10 -10z"/>
<path d="M1715 3360 c3 -5 8 -10 11 -10 2 0 4 5 4 10 0 6 -5 10 -11 10 -5 0
-7 -4 -4 -10z"/>
<path d="M575 3350 c3 -5 10 -10 16 -10 5 0 9 5 9 10 0 6 -7 10 -16 10 -8 0
-12 -4 -9 -10z"/>
<path d="M1440 3340 c8 -5 22 -9 30 -9 10 0 8 3 -5 9 -27 12 -43 12 -25 0z"/>
<path d="M1710 3330 c-8 -5 -11 -12 -7 -16 4 -4 13 -2 19 4 15 15 7 24 -12 12z"/>
<path d="M3060 3330 c-8 -5 -12 -11 -9 -14 3 -3 14 1 25 9 21 16 8 20 -16 5z"/>
<path d="M1350 3326 c0 -2 14 -14 30 -26 17 -12 30 -19 30 -16 0 2 -13 14 -30
26 -16 12 -30 19 -30 16z"/>
<path d="M1518 3323 c18 -2 45 -2 60 0 15 2 0 4 -33 4 -33 0 -45 -2 -27 -4z"/>
<path d="M1628 3323 c12 -2 30 -2 40 0 9 3 -1 5 -23 4 -22 0 -30 -2 -17 -4z"/>
<path d="M1759 3315 c16 -30 40 -59 45 -54 2 2 -10 20 -26 39 -17 19 -25 26
-19 15z"/>
<path d="M1970 3310 c0 -5 7 -10 15 -10 8 0 15 5 15 10 0 6 -7 10 -15 10 -8 0
-15 -4 -15 -10z"/>
<path d="M2014 3311 c-15 -15 2 -23 41 -19 24 3 42 2 39 -3 -3 -5 45 -9 105
-9 61 0 111 4 111 8 0 9 -288 31 -296 23z"/>
<path d="M3120 3311 c0 -6 5 -13 10 -16 6 -3 10 1 10 9 0 9 -4 16 -10 16 -5 0
-10 -4 -10 -9z"/>
<path d="M3202 3309 c2 -6 8 -10 13 -10 5 0 11 4 13 10 2 6 -4 11 -13 11 -9 0
-15 -5 -13 -11z"/>
<path d="M3240 3285 c0 -28 -4 -35 -20 -35 -11 0 -20 -7 -20 -15 0 -8 6 -12
14 -9 7 3 16 -2 19 -10 6 -14 -4 -21 -25 -17 -5 0 -8 -24 -8 -55 0 -46 -5 -62
-25 -86 -14 -17 -23 -33 -20 -36 3 -3 6 -3 8 -1 1 2 17 23 35 46 20 26 32 52
31 70 l-1 28 -8 -25 c-8 -24 -8 -24 -9 6 -1 24 4 33 19 37 17 4 20 14 20 55 0
28 3 57 6 66 3 9 1 16 -5 16 -6 0 -11 -16 -11 -35z"/>
<path d="M3499 3275 c-5 -50 -4 -63 7 -53 3 3 4 28 2 54 l-3 49 -6 -50z"/>
<path d="M2771 3294 c0 -11 3 -14 6 -6 3 7 2 16 -1 19 -3 4 -6 -2 -5 -13z"/>
<path d="M780 3290 c0 -5 7 -10 16 -10 8 0 12 5 9 10 -3 6 -10 10 -16 10 -5 0
-9 -4 -9 -10z"/>
<path d="M1490 3290 c0 -5 5 -10 10 -10 6 0 10 5 10 10 0 6 -4 10 -10 10 -5 0
-10 -4 -10 -10z"/>
<path d="M4624 3264 c-18 -14 -18 -15 4 -4 12 6 22 13 22 15 0 8 -5 6 -26 -11z"/>
<path d="M2492 3240 c0 -19 2 -27 5 -17 2 9 2 25 0 35 -3 9 -5 1 -5 -18z"/>
<path d="M2760 3244 c0 -8 5 -12 10 -9 6 3 10 10 10 16 0 5 -4 9 -10 9 -5 0
-10 -7 -10 -16z"/>
<path d="M2998 3253 c7 -3 16 -2 19 1 4 3 -2 6 -13 5 -11 0 -14 -3 -6 -6z"/>
<path d="M1456 3242 c5 -5 32 -26 59 -48 28 -21 84 -68 126 -104 41 -36 100
-85 130 -110 30 -25 103 -96 163 -157 60 -62 113 -113 118 -113 15 0 -240 251
-352 346 -146 125 -233 194 -244 194 -6 0 -6 -3 0 -8z"/>
<path d="M3685 3239 c-4 -6 -5 -12 -2 -15 2 -3 7 2 10 11 7 17 1 20 -8 4z"/>
<path d="M4298 3229 c-20 -10 -40 -24 -44 -30 -4 -7 13 -1 37 12 55 30 53 28
48 33 -2 2 -21 -4 -41 -15z"/>
<path d="M3056 3231 c-3 -5 7 -11 22 -14 30 -6 45 0 37 14 -8 12 -52 12 -59 0z"/>
<path d="M1849 3203 c12 -18 24 -33 27 -33 9 0 -15 37 -33 51 -12 10 -11 5 6
-18z"/>
<path d="M3380 3226 c0 -9 30 -14 35 -6 4 6 -3 10 -14 10 -12 0 -21 -2 -21 -4z"/>
<path d="M3438 3223 c7 -3 16 -2 19 1 4 3 -2 6 -13 5 -11 0 -14 -3 -6 -6z"/>
<path d="M4500 3205 c-25 -13 -40 -24 -35 -24 6 0 30 11 55 24 25 13 41 24 35
24 -5 0 -30 -11 -55 -24z"/>
<path d="M1437 3206 c-3 -8 2 -16 14 -19 17 -5 18 -3 7 11 -7 9 -13 18 -14 20
-1 2 -4 -4 -7 -12z"/>
<path d="M2927 3213 c-12 -12 -7 -43 6 -43 20 0 25 9 20 31 -5 20 -15 24 -26
12z"/>
<path d="M1370 3190 c-24 -8 -24 -8 7 -9 17 -1 35 4 38 9 7 11 -9 11 -45 0z"/>
<path d="M2502 3175 c0 -16 3 -39 8 -50 8 -18 9 -18 8 5 0 14 -4 36 -8 50 -8
24 -8 24 -8 -5z"/>
<path d="M3390 3196 c0 -2 7 -17 15 -32 16 -30 19 -25 9 14 -5 18 -24 33 -24
18z"/>
<path d="M4370 3190 c0 -5 5 -10 11 -10 5 0 7 5 4 10 -3 6 -8 10 -11 10 -2 0
-4 -4 -4 -10z"/>
<path d="M4177 3158 c-63 -34 -72 -52 -10 -19 38 19 83 50 73 50 -3 0 -31 -14
-63 -31z"/>
<path d="M4415 3170 c-19 -8 -19 -9 2 -9 12 -1 25 4 28 9 7 12 -2 12 -30 0z"/>
<path d="M4685 3170 c-3 -6 1 -7 9 -4 18 7 21 14 7 14 -6 0 -13 -4 -16 -10z"/>
<path d="M1827 3163 c-11 -20 -17 -63 -8 -63 10 0 26 58 18 66 -3 3 -7 2 -10
-3z"/>
<path d="M2768 3163 c6 -2 18 -2 25 0 6 3 1 5 -13 5 -14 0 -19 -2 -12 -5z"/>
<path d="M2821 3158 c0 -10 -1 -20 -1 -23 0 -3 -4 -16 -10 -30 -6 -15 -6 -27
0 -30 12 -8 23 35 17 71 -2 16 -5 21 -6 12z"/>
<path d="M3300 3160 c0 -5 7 -10 15 -10 8 0 15 5 15 10 0 6 -7 10 -15 10 -8 0
-15 -4 -15 -10z"/>
<path d="M1896 3150 c4 -8 38 -56 75 -107 38 -50 82 -113 99 -140 18 -27 28
-37 24 -24 -3 13 -35 62 -70 109 -35 46 -64 87 -64 91 -1 3 -17 24 -36 46 -20
22 -32 33 -28 25z"/>
<path d="M259 3139 c13 -5 124 -45 246 -89 122 -43 245 -88 275 -100 29 -11
54 -19 57 -17 9 9 -566 219 -594 216 -4 0 3 -5 16 -10z"/>
<path d="M2280 3146 c0 -2 7 -6 15 -10 8 -3 15 -1 15 4 0 6 -7 10 -15 10 -8 0
-15 -2 -15 -4z"/>
<path d="M3267 3143 c-4 -3 -7 -11 -7 -17 0 -6 5 -5 12 2 6 6 9 14 7 17 -3 3
-9 2 -12 -2z"/>
<path d="M2050 3123 c0 -12 5 -25 10 -28 13 -8 13 15 0 35 -8 12 -10 11 -10
-7z"/>
<path d="M3448 3133 c12 -2 30 -2 40 0 9 3 -1 5 -23 4 -22 0 -30 -2 -17 -4z"/>
<path d="M4580 3130 c-9 -6 -10 -10 -3 -10 6 0 15 5 18 10 8 12 4 12 -15 0z"/>
<path d="M3523 3123 c9 -2 25 -2 35 0 9 3 1 5 -18 5 -19 0 -27 -2 -17 -5z"/>
<path d="M3611 3114 c0 -11 3 -14 6 -6 3 7 2 16 -1 19 -3 4 -6 -2 -5 -13z"/>
<path d="M1770 3110 c0 -5 5 -10 10 -10 6 0 10 5 10 10 0 6 -4 10 -10 10 -5 0
-10 -4 -10 -10z"/>
<path d="M2741 3104 c0 -11 3 -14 6 -6 3 7 2 16 -1 19 -3 4 -6 -2 -5 -13z"/>
<path d="M2995 3113 c-33 -2 -64 -9 -70 -15 -7 -7 2 -9 30 -4 22 3 68 6 103 6
34 0 62 4 62 10 0 6 -15 9 -32 8 -18 -1 -60 -3 -93 -5z"/>
<path d="M4053 3092 c-61 -40 -66 -49 -8 -17 55 31 74 45 60 44 -6 0 -29 -12
-52 -27z"/>
<path d="M4495 3104 c-22 -8 -46 -17 -54 -19 -8 -3 -12 -8 -9 -10 4 -4 108 32
117 41 8 7 -13 3 -54 -12z"/>
<path d="M2020 3101 c0 -5 5 -13 10 -16 6 -3 10 -2 10 4 0 5 -4 13 -10 16 -5
3 -10 2 -10 -4z"/>
<path d="M2240 3050 c0 -36 2 -40 26 -40 21 0 25 3 19 18 -4 9 -9 25 -12 34
-3 9 -11 19 -19 22 -11 4 -14 -4 -14 -34z"/>
<path d="M1197 3059 c7 -7 15 -10 18 -7 3 3 -2 9 -12 12 -14 6 -15 5 -6 -5z"/>
<path d="M2116 3057 c3 -10 9 -15 12 -12 3 3 0 11 -7 18 -10 9 -11 8 -5 -6z"/>
<path d="M4150 3050 c-19 -11 -31 -19 -27 -20 11 0 67 29 67 35 0 7 -1 7 -40
-15z"/>
<path d="M4608 3063 c7 -3 16 -2 19 1 4 3 -2 6 -13 5 -11 0 -14 -3 -6 -6z"/>
<path d="M1910 3053 c0 -6 8 -17 18 -24 16 -13 16 -13 2 6 -8 11 -16 22 -17
24 -2 2 -3 0 -3 -6z"/>
<path d="M2790 3040 c-9 -16 -8 -20 5 -20 8 0 15 9 15 20 0 11 -2 20 -5 20 -2
0 -9 -9 -15 -20z"/>
<path d="M2920 3040 c0 -11 5 -20 10 -20 6 0 10 9 10 20 0 11 -4 20 -10 20 -5
0 -10 -9 -10 -20z"/>
<path d="M3340 3050 c0 -5 5 -10 11 -10 5 0 7 5 4 10 -3 6 -8 10 -11 10 -2 0
-4 -4 -4 -10z"/>
<path d="M4335 3041 c-22 -11 -37 -20 -34 -20 10 -1 79 29 79 34 0 7 0 7 -45
-14z"/>
<path d="M3228 3043 c-16 -2 -28 -9 -28 -15 0 -12 49 -2 65 13 5 6 5 8 0 8 -6
-1 -22 -4 -37 -6z"/>
<path d="M3465 3039 c-5 -6 -28 -26 -50 -46 -33 -28 -30 -27 18 8 31 23 57 43
57 45 0 8 -15 3 -25 -7z"/>
<path d="M2130 3014 c0 -10 5 -26 10 -34 8 -11 9 -7 4 15 -8 37 -14 45 -14 19z"/>
<path d="M4014 2987 c-49 -24 -106 -52 -127 -62 -21 -10 -36 -19 -34 -22 5 -4
257 116 257 123 0 7 -4 5 -96 -39z"/>
<path d="M4490 3020 c-9 -6 -10 -10 -3 -10 6 0 15 5 18 10 8 12 4 12 -15 0z"/>
<path d="M2525 3010 c3 -5 8 -10 11 -10 2 0 4 5 4 10 0 6 -5 10 -11 10 -5 0
-7 -4 -4 -10z"/>
<path d="M3341 3013 c-1 -6 -4 -20 -7 -30 -5 -17 -5 -17 6 0 6 10 9 23 6 30
-3 9 -5 9 -5 0z"/>
<path d="M1955 2984 c14 -30 55 -74 55 -60 0 7 -3 12 -45 61 l-25 30 15 -31z"/>
<path d="M4365 2975 c-90 -36 -86 -34 -215 -87 -52 -22 -135 -55 -185 -74
-110 -43 -337 -146 -332 -151 2 -2 39 13 83 33 68 32 283 120 649 266 55 22
102 42 104 44 12 11 -33 -2 -104 -31z"/>
<path d="M2780 2975 c0 -8 2 -15 4 -15 2 0 6 7 10 15 3 8 1 15 -4 15 -6 0 -10
-7 -10 -15z"/>
<path d="M4115 2940 c-55 -27 -95 -49 -90 -49 6 0 55 22 110 49 55 26 96 48
90 48 -5 0 -55 -21 -110 -48z"/>
<path d="M2525 2970 c3 -5 8 -10 11 -10 2 0 4 5 4 10 0 6 -5 10 -11 10 -5 0
-7 -4 -4 -10z"/>
<path d="M3043 2973 c-18 -2 -33 -8 -33 -14 0 -14 42 -10 70 6 25 14 22 15
-37 8z"/>
<path d="M3210 2964 c0 -9 5 -14 12 -12 18 6 21 28 4 28 -9 0 -16 -7 -16 -16z"/>
<path d="M3091 2939 c-13 -17 -29 -28 -37 -25 -8 3 -11 0 -7 -10 3 -8 -2 -26
-12 -40 -9 -14 -14 -28 -11 -31 8 -8 33 20 29 33 -2 5 9 23 24 39 41 44 57 65
47 64 -5 0 -20 -14 -33 -30z"/>
<path d="M3565 2949 c-4 -6 -5 -12 -2 -15 7 -7 37 7 37 17 0 13 -27 11 -35 -2z"/>
<path d="M3340 2935 c-20 -24 -6 -28 15 -5 10 11 13 20 8 20 -6 0 -16 -7 -23
-15z"/>
<path d="M1920 2926 c0 -8 5 -18 10 -21 6 -3 10 1 10 9 0 8 -4 18 -10 21 -5 3
-10 -1 -10 -9z"/>
<path d="M2248 2933 c6 -2 18 -2 25 0 6 3 1 5 -13 5 -14 0 -19 -2 -12 -5z"/>
<path d="M3215 2930 c-3 -5 -1 -10 4 -10 6 0 11 5 11 10 0 6 -2 10 -4 10 -3 0
-8 -4 -11 -10z"/>
<path d="M2775 2919 c-10 -15 3 -25 16 -12 7 7 7 13 1 17 -6 3 -14 1 -17 -5z"/>
<path d="M3700 2920 c0 -5 -7 -10 -15 -10 -8 0 -20 -10 -26 -22 l-12 -22 34
22 c35 22 49 42 30 42 -6 0 -11 -4 -11 -10z"/>
<path d="M3584 2902 c-22 -17 -44 -79 -24 -67 5 3 10 15 10 27 0 11 8 22 20
25 11 3 20 12 20 19 0 17 0 17 -26 -4z"/>
<path d="M908 2903 c7 -3 16 -2 19 1 4 3 -2 6 -13 5 -11 0 -14 -3 -6 -6z"/>
<path d="M2020 2902 c0 -7 7 -20 15 -28 19 -20 20 -4 0 22 -9 12 -14 14 -15 6z"/>
<path d="M3210 2900 c0 -5 5 -10 10 -10 6 0 10 5 10 10 0 6 -4 10 -10 10 -5 0
-10 -4 -10 -10z"/>
<path d="M970 2892 c0 -4 19 -12 43 -18 23 -6 158 -57 300 -113 143 -56 284
-110 315 -121 97 -34 42 -4 -73 39 -60 23 -158 62 -217 87 -59 24 -110 44
-113 44 -3 0 -57 20 -119 45 -116 46 -136 51 -136 37z"/>
<path d="M3819 2883 c-13 -16 -12 -17 4 -4 16 13 21 21 13 21 -2 0 -10 -8 -17
-17z"/>
<path d="M2445 2880 c3 -5 11 -10 16 -10 6 0 7 5 4 10 -3 6 -11 10 -16 10 -6
0 -7 -4 -4 -10z"/>
<path d="M3860 2824 c-80 -36 -179 -80 -220 -98 -113 -50 -243 -117 -237 -122
3 -3 29 8 58 24 30 17 162 79 294 138 208 93 273 125 255 124 -3 0 -70 -30
-150 -66z"/>
<path d="M2190 2870 c0 -5 6 -10 14 -10 8 0 18 5 21 10 3 6 -3 10 -14 10 -12
0 -21 -4 -21 -10z"/>
<path d="M2760 2853 c0 -29 12 -24 17 7 2 11 -2 20 -7 20 -6 0 -10 -12 -10
-27z"/>
<path d="M3420 2870 c-8 -5 -12 -12 -9 -15 4 -3 12 1 19 10 14 17 11 19 -10 5z"/>
<path d="M3465 2870 c3 -5 8 -10 11 -10 2 0 4 5 4 10 0 6 -5 10 -11 10 -5 0
-7 -4 -4 -10z"/>
<path d="M1570 2860 c0 -5 5 -10 11 -10 5 0 7 5 4 10 -3 6 -8 10 -11 10 -2 0
-4 -4 -4 -10z"/>
<path d="M3217 2857 c-3 -8 -1 -20 4 -28 6 -10 9 -7 9 14 0 29 -5 35 -13 14z"/>
<path d="M2520 2834 c0 -14 4 -23 9 -19 11 6 10 45 -1 45 -4 0 -8 -12 -8 -26z"/>
<path d="M2975 2849 c-10 -15 1 -23 20 -15 9 3 13 10 10 16 -8 13 -22 13 -30
-1z"/>
<path d="M3348 2853 c-10 -2 -18 -8 -18 -12 0 -11 49 -1 56 10 5 9 -8 10 -38
2z"/>
<path d="M875 2840 c-3 -6 1 -7 9 -4 18 7 21 14 7 14 -6 0 -13 -4 -16 -10z"/>
<path d="M2116 2841 c-4 -7 -5 -15 -2 -18 9 -9 19 4 14 18 -4 11 -6 11 -12 0z"/>
<path d="M2270 2841 c0 -4 9 -20 20 -34 11 -14 20 -30 20 -36 0 -6 4 -11 9
-11 9 0 -7 53 -22 78 -9 14 -27 16 -27 3z"/>
<path d="M3113 2839 c-18 -5 -35 -15 -39 -21 -5 -8 -1 -9 12 -4 10 4 31 10 47
13 15 3 27 9 27 14 0 10 -4 10 -47 -2z"/>
<path d="M3455 2839 c-4 -5 -18 -15 -32 -20 -14 -5 -24 -12 -21 -14 9 -9 79
25 73 35 -8 13 -12 13 -20 -1z"/>
<path d="M2835 2830 c-3 -5 1 -10 9 -10 9 0 16 5 16 10 0 6 -4 10 -9 10 -6 0
-13 -4 -16 -10z"/>
<path d="M348 2813 c7 -3 16 -2 19 1 4 3 -2 6 -13 5 -11 0 -14 -3 -6 -6z"/>
<path d="M3045 2810 c-3 -5 -1 -10 4 -10 6 0 11 5 11 10 0 6 -2 10 -4 10 -3 0
-8 -4 -11 -10z"/>
<path d="M3367 2805 c-4 -8 -13 -15 -22 -15 -8 0 -15 -4 -15 -9 0 -14 41 0 47
16 3 8 3 16 0 19 -2 3 -7 -2 -10 -11z"/>
<path d="M2796 2793 c-2 -10 -8 -29 -11 -43 -5 -17 -4 -22 3 -15 11 11 27 75
18 75 -2 0 -7 -8 -10 -17z"/>
<path d="M3145 2799 c-12 -19 5 -23 22 -6 16 16 16 17 1 17 -9 0 -20 -5 -23
-11z"/>
<path d="M3550 2800 c-9 -6 -10 -10 -3 -10 6 0 15 5 18 10 8 12 4 12 -15 0z"/>
<path d="M2945 2790 c-8 -13 35 -13 55 0 11 7 7 10 -17 10 -17 0 -35 -4 -38
-10z"/>
<path d="M3097 2781 c-6 -23 9 -39 24 -24 5 5 4 16 -4 28 -13 17 -14 17 -20
-4z"/>
<path d="M3240 2781 c0 -25 6 -27 13 -6 4 8 2 17 -3 20 -6 4 -10 -3 -10 -14z"/>
<path d="M3470 2792 c0 -4 -12 -13 -27 -19 -16 -7 -49 -22 -75 -33 -29 -13
-48 -27 -48 -37 0 -15 2 -15 18 0 10 9 48 30 85 47 37 17 65 35 62 40 -7 12
-15 13 -15 2z"/>
<path d="M720 2774 c0 -8 5 -12 10 -9 6 3 10 10 10 16 0 5 -4 9 -10 9 -5 0
-10 -7 -10 -16z"/>
<path d="M2100 2781 c0 -6 5 -13 10 -16 6 -3 10 1 10 9 0 9 -4 16 -10 16 -5 0
-10 -4 -10 -9z"/>
<path d="M2476 2775 c-3 -9 0 -15 9 -15 9 0 12 6 9 15 -4 8 -7 15 -9 15 -2 0
-5 -7 -9 -15z"/>
<path d="M1175 2772 c11 -11 86 -34 93 -27 2 2 -11 8 -30 13 -18 5 -42 13 -53
17 -14 6 -17 5 -10 -3z"/>
<path d="M988 2753 c7 -3 16 -2 19 1 4 3 -2 6 -13 5 -11 0 -14 -3 -6 -6z"/>
<path d="M2254 2737 c3 -11 9 -31 12 -45 14 -71 27 -112 35 -112 12 0 12 6
-11 84 -11 38 -25 74 -31 80 -9 8 -10 6 -5 -7z"/>
<path d="M1290 2730 c20 -13 33 -13 25 0 -3 6 -14 10 -23 10 -15 0 -15 -2 -2
-10z"/>
<path d="M1677 2703 c6 -39 10 -50 17 -42 6 8 -6 79 -14 79 -5 0 -6 -17 -3
-37z"/>
<path d="M2328 2734 c-9 -9 53 -125 63 -118 6 4 4 13 -5 23 -18 20 -40 72 -37
89 2 12 -11 17 -21 6z"/>
<path d="M758 2723 c7 -3 16 -2 19 1 4 3 -2 6 -13 5 -11 0 -14 -3 -6 -6z"/>
<path d="M1110 2716 c54 -20 96 -29 85 -18 -10 9 -95 33 -112 31 -4 0 8 -6 27
-13z"/>
<path d="M1865 2720 c3 -5 13 -10 21 -10 8 0 12 5 9 10 -3 6 -13 10 -21 10 -8
0 -12 -4 -9 -10z"/>
<path d="M2530 2720 c-24 -8 -23 -8 8 -9 17 -1 32 4 32 9 0 11 -5 11 -40 0z"/>
<path d="M798 2713 c7 -3 16 -2 19 1 4 3 -2 6 -13 5 -11 0 -14 -3 -6 -6z"/>
<path d="M2940 2704 c0 -11 8 -14 27 -12 39 4 42 28 4 28 -21 0 -31 -5 -31
-16z"/>
<path d="M875 2694 c28 -7 57 -13 65 -13 8 0 -7 7 -35 15 -27 7 -57 13 -65 13
-8 0 8 -7 35 -15z"/>
<path d="M1930 2706 c0 -9 30 -14 35 -6 4 6 -3 10 -14 10 -12 0 -21 -2 -21 -4z"/>
<path d="M2110 2700 c0 -5 5 -10 10 -10 6 0 10 5 10 10 0 6 -4 10 -10 10 -5 0
-10 -4 -10 -10z"/>
<path d="M2770 2700 c-9 -6 -10 -10 -3 -10 6 0 15 5 18 10 8 12 4 12 -15 0z"/>
<path d="M4998 2686 c-65 -11 -118 -24 -118 -29 0 -5 10 -7 23 -4 12 3 63 11
112 18 79 10 118 22 104 32 -2 1 -57 -6 -121 -17z"/>
<path d="M4658 2693 c7 -3 16 -2 19 1 4 3 -2 6 -13 5 -11 0 -14 -3 -6 -6z"/>
<path d="M1210 2686 c0 -2 11 -6 25 -8 13 -3 22 -1 19 3 -5 9 -44 13 -44 5z"/>
<path d="M2498 2683 c7 -3 16 -2 19 1 4 3 -2 6 -13 5 -11 0 -14 -3 -6 -6z"/>
<path d="M2580 2680 c-9 -6 -10 -10 -3 -10 6 0 15 5 18 10 8 12 4 12 -15 0z"/>
<path d="M2837 2670 c-3 -13 0 -20 9 -20 8 0 14 9 14 20 0 11 -4 20 -9 20 -5
0 -11 -9 -14 -20z"/>
<path d="M3140 2670 c-9 -16 -8 -20 5 -20 8 0 15 9 15 20 0 11 -2 20 -5 20 -2
0 -9 -9 -15 -20z"/>
<path d="M4593 2683 c9 -2 23 -2 30 0 6 3 -1 5 -18 5 -16 0 -22 -2 -12 -5z"/>
<path d="M968 2673 c7 -3 16 -2 19 1 4 3 -2 6 -13 5 -11 0 -14 -3 -6 -6z"/>
<path d="M4538 2673 c6 -2 18 -2 25 0 6 3 1 5 -13 5 -14 0 -19 -2 -12 -5z"/>
<path d="M1001 2666 c7 -7 181 -47 186 -43 2 2 -35 14 -81 26 -81 20 -114 26
-105 17z"/>
<path d="M1330 2660 c0 -5 5 -10 10 -10 6 0 10 5 10 10 0 6 -4 10 -10 10 -5 0
-10 -4 -10 -10z"/>
<path d="M2040 2666 c0 -2 9 -6 20 -9 11 -3 20 -1 20 4 0 5 -9 9 -20 9 -11 0
-20 -2 -20 -4z"/>
<path d="M3055 2660 c-3 -5 1 -10 9 -10 9 0 16 5 16 10 0 6 -4 10 -9 10 -6 0
-13 -4 -16 -10z"/>
<path d="M4478 2663 c6 -2 18 -2 25 0 6 3 1 5 -13 5 -14 0 -19 -2 -12 -5z"/>
<path d="M2965 2650 c3 -5 12 -7 20 -3 21 7 19 13 -6 13 -11 0 -18 -4 -14 -10z"/>
<path d="M3575 2645 c-25 -12 -26 -14 -5 -9 28 7 60 23 45 23 -5 0 -23 -6 -40
-14z"/>
<path d="M4428 2653 c6 -2 18 -2 25 0 6 3 1 5 -13 5 -14 0 -19 -2 -12 -5z"/>
<path d="M440 2629 c25 -4 59 -7 75 -7 26 0 25 1 -10 9 -22 4 -56 8 -75 7 -33
0 -32 -1 10 -9z"/>
<path d="M2125 2630 c3 -5 13 -10 21 -10 8 0 14 5 14 10 0 6 -9 10 -21 10 -11
0 -17 -4 -14 -10z"/>
<path d="M2786 2614 c-9 -36 1 -43 14 -10 12 33 12 36 1 36 -5 0 -12 -12 -15
-26z"/>
<path d="M2583 2613 c-4 -10 -10 -21 -15 -24 -4 -3 -9 -23 -11 -45 -3 -46 -12
-63 -39 -73 -12 -4 -22 -18 -24 -32 -3 -29 -32 -206 -39 -236 -3 -12 -15 -25
-28 -29 l-22 -8 24 -5 c13 -4 25 -15 27 -25 7 -50 27 -118 38 -129 17 -16 46
-200 33 -208 -6 -4 -5 -8 1 -10 6 -2 12 -15 14 -29 l3 -25 -112 -3 c-62 -1
-113 -7 -113 -12 0 -5 -8 -11 -17 -13 -16 -4 -16 -5 -1 -6 9 0 20 4 23 9 4 6
53 10 115 10 97 0 110 -2 119 -19 6 -10 7 -21 4 -25 -3 -3 -55 -6 -114 -6 -59
0 -110 -3 -112 -7 -3 -5 49 -8 115 -8 134 0 124 6 130 -72 2 -18 6 -33 11 -33
13 0 7 68 -12 142 -11 40 -22 96 -26 123 -15 126 -28 191 -40 205 -8 8 -20 44
-29 80 -13 60 -13 74 5 185 27 167 26 163 60 181 24 12 30 20 25 38 -7 30 11
93 31 104 23 13 53 3 63 -22 4 -12 6 -43 3 -69 -5 -43 -4 -47 21 -57 32 -12
43 -36 27 -61 -7 -13 -8 -25 -2 -36 9 -17 32 -145 46 -253 7 -57 -14 -145 -35
-145 -11 0 -16 14 -20 50 l-5 50 -16 -85 c-9 -47 -14 -108 -12 -136 3 -31 -4
-94 -16 -154 -24 -120 -25 -133 -8 -127 7 2 11 15 9 31 -2 15 2 37 10 49 7 12
13 39 13 59 0 21 3 38 7 38 3 0 6 35 7 78 0 134 0 134 14 129 30 -11 55 12 66
61 6 27 8 59 6 71 -2 12 1 21 8 21 8 0 8 3 2 8 -6 4 -10 14 -10 22 1 8 -1 20
-4 25 -3 6 -6 28 -8 50 -1 22 -6 62 -11 90 -6 27 -8 54 -5 58 3 5 -1 14 -8 19
-9 6 -10 11 -3 14 26 11 -12 94 -43 94 -11 0 -13 14 -11 58 3 48 0 60 -19 75
-11 9 -35 17 -52 17 -21 0 -34 -6 -38 -17z"/>
<path d="M3220 2620 c-10 -7 -11 -12 -4 -17 6 -5 10 -25 9 -45 -1 -21 2 -38 7
-38 4 0 8 25 8 55 0 30 -1 55 -2 55 -2 0 -10 -5 -18 -10z"/>
<path d="M1215 2611 c11 -5 40 -11 65 -15 30 -4 36 -3 20 3 -37 12 -109 22
-85 12z"/>
<path d="M1885 2600 c4 -6 11 -8 16 -5 14 9 11 15 -7 15 -8 0 -12 -5 -9 -10z"/>
<path d="M2220 2597 c0 -23 37 -77 52 -77 6 0 4 8 -4 18 -9 9 -23 31 -31 47
-12 22 -16 25 -17 12z"/>
<path d="M2880 2571 c-10 -22 -32 -49 -46 -60 -15 -12 -24 -24 -21 -28 9 -8
87 76 87 94 0 7 5 13 10 13 6 0 10 5 10 10 0 23 -21 7 -40 -29z"/>
<path d="M4590 2592 c-52 -9 -88 -17 -80 -19 8 -2 74 5 145 16 80 12 111 19
80 19 -27 0 -93 -8 -145 -16z"/>
<path d="M815 2575 c28 -7 59 -13 70 -13 11 0 -2 6 -30 13 -27 7 -59 13 -70
13 -11 0 3 -6 30 -13z"/>
<path d="M1345 2580 c11 -5 29 -8 40 -8 16 0 15 2 -5 8 -34 11 -60 11 -35 0z"/>
<path d="M1555 2580 c43 -18 306 -91 316 -88 10 3 -63 27 -243 79 -69 19 -110
25 -73 9z"/>
<path d="M2488 2583 c6 -2 18 -2 25 0 6 3 1 5 -13 5 -14 0 -19 -2 -12 -5z"/>
<path d="M3310 2580 c0 -5 9 -10 20 -10 11 0 20 5 20 10 0 6 -9 10 -20 10 -11
0 -20 -4 -20 -10z"/>
<path d="M68 2573 c6 -2 18 -2 25 0 6 3 1 5 -13 5 -14 0 -19 -2 -12 -5z"/>
<path d="M2050 2570 c20 -13 43 -13 35 0 -3 6 -16 10 -28 10 -18 0 -19 -2 -7
-10z"/>
<path d="M2940 2570 c0 -5 11 -10 25 -10 14 0 25 5 25 10 0 6 -11 10 -25 10
-14 0 -25 -4 -25 -10z"/>
<path d="M3000 2570 c0 -13 11 -13 30 0 12 8 11 10 -7 10 -13 0 -23 -4 -23
-10z"/>
<path d="M3948 2573 c7 -3 16 -2 19 1 4 3 -2 6 -13 5 -11 0 -14 -3 -6 -6z"/>
<path d="M4120 2570 c0 -5 7 -10 15 -10 8 0 15 5 15 10 0 6 -7 10 -15 10 -8 0
-15 -4 -15 -10z"/>
<path d="M1450 2560 c0 -5 7 -10 15 -10 8 0 15 5 15 10 0 6 -7 10 -15 10 -8 0
-15 -4 -15 -10z"/>
<path d="M3900 2559 c0 -5 5 -7 10 -4 6 3 10 8 10 11 0 2 -4 4 -10 4 -5 0 -10
-5 -10 -11z"/>
<path d="M940 2550 c0 -5 17 -10 38 -9 33 1 34 2 12 9 -36 11 -50 11 -50 0z"/>
<path d="M2590 2550 c0 -5 7 -10 15 -10 8 0 15 5 15 10 0 6 -7 10 -15 10 -8 0
-15 -4 -15 -10z"/>
<path d="M2630 2554 c0 -3 7 -12 15 -20 16 -17 18 -14 9 10 -6 15 -24 23 -24
10z"/>
<path d="M3668 2553 c7 -3 16 -2 19 1 4 3 -2 6 -13 5 -11 0 -14 -3 -6 -6z"/>
<path d="M1503 2543 c6 -5 81 -22 177 -40 66 -11 25 5 -63 26 -91 22 -125 26
-114 14z"/>
<path d="M4305 2530 c-60 -9 -98 -20 -92 -27 7 -6 169 18 187 28 18 10 -22 10
-95 -1z"/>
<path d="M2080 2523 c0 -4 65 -33 75 -33 3 0 5 4 5 9 0 5 -18 13 -40 19 -22 5
-40 8 -40 5z"/>
<path d="M2935 2510 c-3 -5 3 -10 14 -10 12 0 21 5 21 10 0 6 -6 10 -14 10 -8
0 -18 -4 -21 -10z"/>
<path d="M1935 2502 c16 -16 186 -83 203 -80 9 2 -27 19 -79 39 -52 20 -103
40 -114 44 -14 5 -17 5 -10 -3z"/>
<path d="M1250 2497 c9 -10 110 -24 110 -16 0 5 -11 9 -24 9 -13 0 -39 3 -57
6 -19 4 -32 4 -29 1z"/>
<path d="M1755 2490 c77 -19 91 -21 75 -11 -8 5 -37 12 -65 15 -49 5 -49 5
-10 -4z"/>
<path d="M2610 2484 c0 -8 5 -12 10 -9 6 4 8 11 5 16 -9 14 -15 11 -15 -7z"/>
<path d="M3750 2489 c-18 -5 -10 -7 29 -8 30 -1 51 2 47 7 -10 9 -44 10 -76 1z"/>
<path d="M3940 2490 c-11 -7 -7 -10 18 -10 17 0 32 5 32 10 0 13 -30 13 -50 0z"/>
<path d="M3581 2474 c0 -11 3 -14 6 -6 3 7 2 16 -1 19 -3 4 -6 -2 -5 -13z"/>
<path d="M4120 2480 c0 -5 7 -10 15 -10 8 0 15 5 15 10 0 6 -7 10 -15 10 -8 0
-15 -4 -15 -10z"/>
<path d="M4898 2483 c-43 -3 -58 -8 -58 -19 0 -12 13 -14 78 -9 122 9 162 16
162 26 0 9 -60 9 -182 2z"/>
<path d="M905 2470 c126 -14 245 -19 245 -11 0 10 -130 21 -234 20 l-81 -2 70
-7z"/>
<path d="M2760 2470 c0 -5 6 -10 14 -10 8 0 18 5 21 10 3 6 -3 10 -14 10 -12
0 -21 -4 -21 -10z"/>
<path d="M1870 2460 c19 -13 30 -13 30 0 0 6 -10 10 -22 10 -19 0 -20 -2 -8
-10z"/>
<path d="M1944 2459 c-3 -5 6 -9 20 -9 31 0 34 6 6 13 -11 3 -23 1 -26 -4z"/>
<path d="M2638 2458 c8 -8 8 -15 2 -24 -7 -8 -6 -13 3 -17 9 -3 13 2 11 16 -1
12 -3 25 -3 30 -1 4 -6 7 -13 7 -9 0 -9 -3 0 -12z"/>
<path d="M3269 2468 c0 -2 -1 -22 -3 -44 l-2 -42 40 6 c23 2 42 6 43 7 2 1 5
18 7 38 l5 37 -44 0 c-25 0 -45 -1 -46 -2z m71 -32 c0 -17 -7 -25 -25 -28 -14
-3 -28 -1 -31 3 -3 5 2 9 10 9 9 0 16 4 16 10 0 5 -7 7 -15 4 -8 -4 -15 -2
-15 3 0 16 12 23 37 23 18 0 23 -6 23 -24z"/>
<path d="M4625 2455 c-5 -2 -45 -6 -87 -10 -43 -4 -78 -11 -78 -17 0 -7 30 -8
88 -4 112 9 152 16 152 27 0 9 -54 11 -75 4z"/>
<path d="M2547 2429 c4 -13 9 -17 15 -11 11 11 3 32 -12 32 -4 0 -6 -9 -3 -21z"/>
<path d="M840 2428 c0 -5 21 -8 48 -8 26 0 57 -3 70 -6 12 -4 22 -2 22 4 0 6
-31 12 -70 14 -39 2 -70 0 -70 -4z"/>
<path d="M2213 2423 c9 -9 20 -13 24 -9 4 4 1 11 -7 16 -25 16 -35 11 -17 -7z"/>
<path d="M3715 2430 c-3 -5 3 -10 15 -10 12 0 18 5 15 10 -3 6 -10 10 -15 10
-5 0 -12 -4 -15 -10z"/>
<path d="M1045 2420 c28 -12 115 -12 115 0 0 6 -29 10 -67 9 -47 0 -62 -3 -48
-9z"/>
<path d="M1595 2420 c28 -12 57 -12 50 0 -3 6 -21 10 -38 9 -27 0 -29 -2 -12
-9z"/>
<path d="M4235 2420 c-16 -7 -13 -9 18 -9 20 -1 37 4 37 9 0 12 -27 12 -55 0z"/>
<path d="M1273 2413 c15 -2 39 -2 55 0 15 2 2 4 -28 4 -30 0 -43 -2 -27 -4z"/>
<path d="M2168 2413 c7 -3 16 -2 19 1 4 3 -2 6 -13 5 -11 0 -14 -3 -6 -6z"/>
<path d="M4730 2410 c0 -5 11 -10 25 -10 14 0 25 5 25 10 0 6 -11 10 -25 10
-14 0 -25 -4 -25 -10z"/>
<path d="M3840 2400 c-12 -8 -9 -10 13 -10 16 0 26 4 22 10 -8 12 -16 12 -35
0z"/>
<path d="M3090 2390 c0 -5 18 -10 40 -10 22 0 40 5 40 10 0 6 -18 10 -40 10
-22 0 -40 -4 -40 -10z"/>
<path d="M2630 2380 c0 -8 5 -22 10 -30 9 -13 10 -13 10 0 0 8 -5 22 -10 30
-9 13 -10 13 -10 0z"/>
<path d="M1288 2373 c6 -2 18 -2 25 0 6 3 1 5 -13 5 -14 0 -19 -2 -12 -5z"/>
<path d="M1595 2370 c3 -5 8 -10 11 -10 2 0 4 5 4 10 0 6 -5 10 -11 10 -5 0
-7 -4 -4 -10z"/>
<path d="M2070 2370 c0 -5 10 -10 23 -10 18 0 19 2 7 10 -19 13 -30 13 -30 0z"/>
<path d="M2280 2370 c14 -4 32 -8 40 -9 13 -1 13 0 0 9 -8 5 -26 9 -40 9 l-25
-1 25 -8z"/>
<path d="M2529 2378 c0 -2 -2 -23 -4 -48 l-4 -45 14 30 c17 36 19 65 5 65 -5
0 -10 -1 -11 -2z"/>
<path d="M2938 2373 c-21 -2 -38 -9 -38 -15 0 -5 7 -7 16 -4 9 3 29 6 45 6 16
0 29 5 29 10 0 6 -3 9 -7 8 -5 -1 -25 -3 -45 -5z"/>
<path d="M2350 2359 c0 -5 5 -7 10 -4 6 3 10 8 10 11 0 2 -4 4 -10 4 -5 0 -10
-5 -10 -11z"/>
<path d="M3831 2344 c0 -11 3 -14 6 -6 3 7 2 16 -1 19 -3 4 -6 -2 -5 -13z"/>
<path d="M1585 2340 c3 -5 10 -10 16 -10 5 0 9 5 9 10 0 6 -7 10 -16 10 -8 0
-12 -4 -9 -10z"/>
<path d="M2590 2335 c0 -8 7 -15 15 -15 8 0 15 4 15 9 0 5 -7 11 -15 15 -9 3
-15 0 -15 -9z"/>
<path d="M3318 2282 c5 -99 10 -107 11 -20 0 42 -3 79 -7 82 -4 2 -6 -25 -4
-62z"/>
<path d="M1855 2330 c-4 -6 5 -10 20 -10 15 0 24 4 20 10 -3 6 -12 10 -20 10
-8 0 -17 -4 -20 -10z"/>
<path d="M2682 2310 c0 -14 2 -19 5 -12 2 6 2 18 0 25 -3 6 -5 1 -5 -13z"/>
<path d="M3832 2290 c0 -19 2 -27 5 -17 2 9 2 25 0 35 -3 9 -5 1 -5 -18z"/>
<path d="M2571 2294 c0 -11 3 -14 6 -6 3 7 2 16 -1 19 -3 4 -6 -2 -5 -13z"/>
<path d="M3431 2294 c0 -11 3 -14 6 -6 3 7 2 16 -1 19 -3 4 -6 -2 -5 -13z"/>
<path d="M2642 2280 c0 -14 2 -19 5 -12 2 6 2 18 0 25 -3 6 -5 1 -5 -13z"/>
<path d="M3221 2284 c0 -11 3 -14 6 -6 3 7 2 16 -1 19 -3 4 -6 -2 -5 -13z"/>
<path d="M2505 2244 c-4 -22 -9 -51 -11 -66 -3 -14 -1 -29 4 -32 5 -3 12 25
15 61 7 74 2 97 -8 37z"/>
<path d="M2688 2250 c2 -16 8 -30 13 -30 13 0 5 53 -8 57 -5 2 -8 -9 -5 -27z"/>
<path d="M3223 2210 c0 -30 2 -43 4 -27 2 15 2 39 0 55 -2 15 -4 2 -4 -28z"/>
<path d="M3518 2253 c6 -2 18 -2 25 0 6 3 1 5 -13 5 -14 0 -19 -2 -12 -5z"/>
<path d="M3713 2225 c0 -22 2 -30 4 -17 2 12 2 30 0 40 -3 9 -5 -1 -4 -23z"/>
<path d="M1125 2240 c-3 -5 3 -10 14 -10 12 0 21 5 21 10 0 6 -6 10 -14 10 -8
0 -18 -4 -21 -10z"/>
<path d="M940 2230 c-11 -7 -7 -10 18 -10 20 0 31 4 27 10 -8 13 -26 13 -45 0z"/>
<path d="M1265 2230 c-4 -6 7 -10 25 -10 18 0 29 4 25 10 -3 6 -15 10 -25 10
-10 0 -22 -4 -25 -10z"/>
<path d="M2105 2229 c-4 -6 -5 -12 -2 -15 2 -3 7 2 10 11 7 17 1 20 -8 4z"/>
<path d="M2240 2225 c0 -8 7 -15 16 -15 14 0 14 3 4 15 -7 8 -14 15 -16 15 -2
0 -4 -7 -4 -15z"/>
<path d="M3832 2153 l2 -88 3 78 c3 59 7 77 18 77 8 0 15 5 15 10 0 6 -9 10
-20 10 -19 0 -20 -6 -18 -87z"/>
<path d="M2540 2173 c-6 -32 -14 -68 -17 -80 -3 -13 -1 -23 5 -23 6 0 13 23
17 50 4 28 11 50 16 50 4 0 6 7 3 15 -4 8 -1 22 6 30 10 12 10 15 -3 15 -11 0
-19 -17 -27 -57z"/>
<path d="M2596 2207 c-5 -15 -6 -31 -2 -34 11 -11 18 5 14 34 l-4 28 -8 -28z"/>
<path d="M3431 2204 c0 -11 3 -14 6 -6 3 7 2 16 -1 19 -3 4 -6 -2 -5 -13z"/>
<path d="M4116 2205 c4 -8 10 -15 15 -15 5 0 9 7 9 15 0 8 -7 15 -15 15 -9 0
-12 -6 -9 -15z"/>
<path d="M2627 2203 c-7 -11 10 -40 18 -31 4 4 3 14 -3 24 -5 9 -12 12 -15 7z"/>
<path d="M2695 2200 c3 -5 8 -10 11 -10 2 0 4 5 4 10 0 6 -5 10 -11 10 -5 0
-7 -4 -4 -10z"/>
<path d="M3185 2191 c-3 -5 -1 -12 5 -16 5 -3 10 1 10 9 0 18 -6 21 -15 7z"/>
<path d="M778 2183 c17 -2 47 -2 65 0 17 2 3 4 -33 4 -36 0 -50 -2 -32 -4z"/>
<path d="M1020 2170 c-11 -7 2 -10 43 -10 31 0 57 4 57 10 0 13 -80 13 -100 0z"/>
<path d="M1850 2170 c0 -5 11 -10 25 -10 14 0 25 5 25 10 0 6 -11 10 -25 10
-14 0 -25 -4 -25 -10z"/>
<path d="M2711 2175 c0 -6 7 -37 15 -70 l14 -60 -5 60 c-3 32 -10 64 -15 69
-6 6 -10 6 -9 1z"/>
<path d="M3320 2139 c0 -23 4 -38 10 -34 11 7 10 75 -2 75 -4 0 -8 -18 -8 -41z"/>
<path d="M1288 2163 c12 -2 30 -2 40 0 9 3 -1 5 -23 4 -22 0 -30 -2 -17 -4z"/>
<path d="M3431 2154 c0 -11 3 -14 6 -6 3 7 2 16 -1 19 -3 4 -6 -2 -5 -13z"/>
<path d="M2310 2137 c-104 -40 -405 -196 -396 -205 3 -2 17 3 32 13 61 40 314
164 384 188 41 15 66 26 55 26 -11 0 -45 -10 -75 -22z"/>
<path d="M2850 2150 c0 -6 7 -10 15 -10 8 0 15 2 15 4 0 2 -7 6 -15 10 -8 3
-15 1 -15 -4z"/>
<path d="M3711 2144 c0 -11 3 -14 6 -6 3 7 2 16 -1 19 -3 4 -6 -2 -5 -13z"/>
<path d="M3540 2143 c0 -5 14 -8 30 -8 17 0 30 3 30 8 0 4 -13 7 -30 7 -16 0
-30 -3 -30 -7z"/>
<path d="M1273 2133 c15 -2 37 -2 50 0 12 2 0 4 -28 4 -27 0 -38 -2 -22 -4z"/>
<path d="M1580 2130 c0 -5 14 -7 33 -3 45 8 47 13 4 13 -20 0 -37 -4 -37 -10z"/>
<path d="M2900 2130 c8 -5 22 -9 30 -9 10 0 8 3 -5 9 -27 12 -43 12 -25 0z"/>
<path d="M3180 2129 c0 -5 5 -7 10 -4 6 3 10 8 10 11 0 2 -4 4 -10 4 -5 0 -10
-5 -10 -11z"/>
<path d="M2561 2110 c0 -8 4 -24 9 -35 l9 -20 0 20 c0 11 -4 27 -9 35 -9 13
-10 13 -9 0z"/>
<path d="M2985 2099 c22 -10 47 -18 55 -18 8 0 -7 9 -35 19 -63 25 -73 24 -20
-1z"/>
<path d="M4185 2100 c45 -11 77 -11 70 0 -3 6 -27 9 -53 9 -42 -1 -44 -2 -17
-9z"/>
<path d="M3745 2064 c28 -7 55 -12 60 -10 13 4 -64 26 -90 25 -11 0 3 -7 30
-15z"/>
<path d="M2598 1988 c-2 -46 0 -105 3 -133 l6 -50 2 50 c0 28 4 87 8 133 4 56
3 82 -5 82 -6 0 -12 -32 -14 -82z"/>
<path d="M3088 2063 c7 -3 16 -2 19 1 4 3 -2 6 -13 5 -11 0 -14 -3 -6 -6z"/>
<path d="M4515 2062 c15 -15 165 -27 165 -13 0 6 -17 11 -39 11 -21 0 -60 3
-87 6 -34 5 -46 3 -39 -4z"/>
<path d="M2541 2044 c0 -11 3 -14 6 -6 3 7 2 16 -1 19 -3 4 -6 -2 -5 -13z"/>
<path d="M3090 2034 c30 -14 61 -23 70 -22 8 2 -12 13 -46 26 -80 29 -93 27
-24 -4z"/>
<path d="M3820 2056 c0 -2 7 -6 15 -10 8 -3 15 -1 15 4 0 6 -7 10 -15 10 -8 0
-15 -2 -15 -4z"/>
<path d="M2240 2034 c0 -8 5 -12 10 -9 6 4 8 11 5 16 -9 14 -15 11 -15 -7z"/>
<path d="M2571 2034 c0 -11 3 -14 6 -6 3 7 2 16 -1 19 -3 4 -6 -2 -5 -13z"/>
<path d="M4854 2018 c-3 -4 -2 -8 3 -8 17 0 189 -20 221 -25 17 -3 32 -2 32 4
0 16 -247 44 -256 29z"/>
<path d="M3200 1995 c14 -9 39 -21 55 -29 17 -7 84 -44 150 -81 66 -37 138
-77 160 -88 22 -11 132 -68 245 -127 113 -59 318 -165 455 -235 138 -70 265
-136 283 -147 18 -11 36 -18 39 -14 4 3 4 8 2 10 -4 4 -174 91 -634 326 -329
168 -486 249 -500 260 -20 15 -262 140 -271 140 -5 -1 2 -7 16 -15z"/>
<path d="M2400 1960 c-9 -6 -10 -10 -3 -10 6 0 15 5 18 10 8 12 4 12 -15 0z"/>
<path d="M1775 1870 c-60 -32 -155 -75 -210 -96 -96 -36 -249 -99 -345 -142
-25 -11 -90 -39 -144 -62 -104 -43 -157 -69 -143 -70 10 0 134 51 372 155 105
45 224 94 265 108 68 23 302 137 325 158 20 20 -14 5 -120 -51z"/>
<path d="M2378 1923 c7 -3 16 -2 19 1 4 3 -2 6 -13 5 -11 0 -14 -3 -6 -6z"/>
<path d="M2828 1913 c6 -2 18 -2 25 0 6 3 1 5 -13 5 -14 0 -19 -2 -12 -5z"/>
<path d="M2878 1913 c7 -3 16 -2 19 1 4 3 -2 6 -13 5 -11 0 -14 -3 -6 -6z"/>
<path d="M2400 1878 c0 -4 4 -8 9 -8 6 0 12 4 15 8 3 5 -1 9 -9 9 -8 0 -15 -4
-15 -9z"/>
<path d="M2840 1880 c0 -5 5 -10 10 -10 6 0 10 5 10 10 0 6 -4 10 -10 10 -5 0
-10 -4 -10 -10z"/>
<path d="M2748 1873 c6 -2 18 -2 25 0 6 3 1 5 -13 5 -14 0 -19 -2 -12 -5z"/>
<path d="M2330 1850 c0 -5 5 -10 11 -10 5 0 7 5 4 10 -3 6 -8 10 -11 10 -2 0
-4 -4 -4 -10z"/>
<path d="M2315 1820 c-3 -5 -1 -10 4 -10 6 0 11 5 11 10 0 6 -2 10 -4 10 -3 0
-8 -4 -11 -10z"/>
<path d="M2370 1821 c0 -5 -7 -17 -16 -25 -11 -12 -12 -16 -2 -16 7 0 18 11
25 25 6 14 7 25 2 25 -5 0 -9 -4 -9 -9z"/>
<path d="M2878 1813 c7 -3 16 -2 19 1 4 3 -2 6 -13 5 -11 0 -14 -3 -6 -6z"/>
<path d="M3640 1800 c8 -5 20 -10 25 -10 6 0 3 5 -5 10 -8 5 -19 10 -25 10 -5
0 -3 -5 5 -10z"/>
<path d="M2221 1796 c2 -2 24 -6 49 -9 30 -4 38 -3 25 3 -19 8 -83 14 -74 6z"/>
<path d="M2900 1780 c0 -5 7 -10 16 -10 8 0 12 5 9 10 -3 6 -10 10 -16 10 -5
0 -9 -4 -9 -10z"/>
<path d="M3710 1766 c14 -8 27 -12 29 -10 6 6 -1 11 -29 18 l-25 7 25 -15z"/>
<path d="M1535 1730 c-44 -21 -73 -39 -65 -40 8 0 49 18 90 40 96 51 79 51
-25 0z"/>
<path d="M2340 1760 c-9 -6 -10 -10 -3 -10 6 0 15 5 18 10 8 12 4 12 -15 0z"/>
<path d="M2602 1740 c0 -19 2 -27 5 -17 2 9 2 25 0 35 -3 9 -5 1 -5 -18z"/>
<path d="M2738 1743 c12 -2 32 -2 45 0 12 2 2 4 -23 4 -25 0 -35 -2 -22 -4z"/>
<path d="M2940 1740 c0 -5 5 -10 11 -10 5 0 7 5 4 10 -3 6 -8 10 -11 10 -2 0
-4 -4 -4 -10z"/>
<path d="M3618 1738 c5 -5 16 -8 23 -6 8 3 3 7 -10 11 -17 4 -21 3 -13 -5z"/>
<path d="M3750 1746 c0 -8 481 -226 497 -226 10 1 -158 81 -242 117 -33 13
-102 44 -154 69 -94 45 -101 47 -101 40z"/>
<path d="M2255 1730 c-3 -5 1 -10 9 -10 9 0 16 5 16 10 0 6 -4 10 -9 10 -6 0
-13 -4 -16 -10z"/>
<path d="M2880 1716 c0 -2 9 -6 20 -9 11 -3 20 -1 20 4 0 5 -9 9 -20 9 -11 0
-20 -2 -20 -4z"/>
<path d="M2958 1713 c7 -3 16 -2 19 1 4 3 -2 6 -13 5 -11 0 -14 -3 -6 -6z"/>
<path d="M2234 1695 c-9 -21 -2 -26 13 -10 8 9 9 16 3 20 -6 3 -13 -1 -16 -10z"/>
<path d="M1498 1673 c7 -3 16 -2 19 1 4 3 -2 6 -13 5 -11 0 -14 -3 -6 -6z"/>
<path d="M2980 1660 c6 -11 15 -18 21 -15 13 9 11 13 -12 25 -19 11 -20 10 -9
-10z"/>
<path d="M3772 1665 c9 -10 21 -16 28 -13 7 2 -1 10 -16 17 -27 12 -28 11 -12
-4z"/>
<path d="M1300 1618 c-52 -27 -183 -91 -290 -143 -265 -128 -450 -225 -450
-234 0 -4 188 86 418 200 229 115 423 209 430 209 6 0 12 5 12 10 0 17 -21 9
-120 -42z"/>
<path d="M2297 1663 c-4 -3 -7 -11 -7 -17 0 -6 5 -5 12 2 6 6 9 14 7 17 -3 3
-9 2 -12 -2z"/>
<path d="M3428 1663 c7 -3 16 -2 19 1 4 3 -2 6 -13 5 -11 0 -14 -3 -6 -6z"/>
<path d="M2200 1650 c0 -5 5 -10 10 -10 6 0 10 5 10 10 0 6 -4 10 -10 10 -5 0
-10 -4 -10 -10z"/>
<path d="M2940 1645 c7 -9 15 -13 17 -11 7 7 -7 26 -19 26 -6 0 -6 -6 2 -15z"/>
<path d="M3020 1640 c0 -5 5 -10 11 -10 5 0 7 5 4 10 -3 6 -8 10 -11 10 -2 0
-4 -4 -4 -10z"/>
<path d="M3830 1636 c0 -3 9 -10 20 -16 11 -6 20 -8 20 -6 0 3 -9 10 -20 16
-11 6 -20 8 -20 6z"/>
<path d="M2176 1615 c-3 -8 -1 -15 3 -15 5 0 11 7 15 15 3 8 1 15 -3 15 -5 0
-11 -7 -15 -15z"/>
<path d="M2264 1611 c0 -15 3 -17 13 -9 7 6 13 14 13 19 0 5 -6 9 -13 9 -7 0
-13 -9 -13 -19z"/>
<path d="M2965 1610 c3 -5 8 -10 11 -10 2 0 4 5 4 10 0 6 -5 10 -11 10 -5 0
-7 -4 -4 -10z"/>
<path d="M3030 1610 c0 -5 5 -10 10 -10 6 0 10 5 10 10 0 6 -4 10 -10 10 -5 0
-10 -4 -10 -10z"/>
<path d="M2215 1590 c-3 -6 1 -7 9 -4 18 7 21 14 7 14 -6 0 -13 -4 -16 -10z"/>
<path d="M2155 1580 c-3 -5 -1 -10 4 -10 6 0 11 5 11 10 0 6 -2 10 -4 10 -3 0
-8 -4 -11 -10z"/>
<path d="M3060 1587 c0 -4 5 -13 10 -20 6 -7 17 -21 25 -32 7 -11 16 -17 20
-13 3 3 -7 21 -24 40 -17 18 -31 29 -31 25z"/>
<path d="M2235 1560 c-10 -11 -16 -22 -13 -25 3 -3 13 6 22 20 20 30 16 32 -9
5z"/>
<path d="M3956 1565 c10 -8 23 -15 28 -15 6 0 1 7 -10 15 -10 8 -23 15 -28 15
-6 0 -1 -7 10 -15z"/>
<path d="M2125 1550 c-3 -5 -2 -10 4 -10 5 0 13 5 16 10 3 6 2 10 -4 10 -5 0
-13 -4 -16 -10z"/>
<path d="M2185 1550 c-3 -5 -1 -10 4 -10 6 0 11 5 11 10 0 6 -2 10 -4 10 -3 0
-8 -4 -11 -10z"/>
<path d="M3000 1551 c0 -6 5 -13 10 -16 6 -3 10 1 10 9 0 9 -4 16 -10 16 -5 0
-10 -4 -10 -9z"/>
<path d="M3040 1551 c0 -5 5 -13 10 -16 6 -3 10 -2 10 4 0 5 -4 13 -10 16 -5
3 -10 2 -10 -4z"/>
<path d="M2620 1540 c0 -5 5 -10 11 -10 5 0 7 5 4 10 -3 6 -8 10 -11 10 -2 0
-4 -4 -4 -10z"/>
<path d="M1398 1533 c6 -2 18 -2 25 0 6 3 1 5 -13 5 -14 0 -19 -2 -12 -5z"/>
<path d="M4008 1533 c7 -3 16 -2 19 1 4 3 -2 6 -13 5 -11 0 -14 -3 -6 -6z"/>
<path d="M3563 1523 c9 -2 25 -2 35 0 9 3 1 5 -18 5 -19 0 -27 -2 -17 -5z"/>
<path d="M4052 1506 c16 -8 34 -18 40 -21 7 -4 2 3 -12 14 -14 11 -32 21 -40
21 -8 0 -3 -7 12 -14z"/>
<path d="M3698 1503 c7 -3 16 -2 19 1 4 3 -2 6 -13 5 -11 0 -14 -3 -6 -6z"/>
<path d="M3130 1490 c0 -5 5 -10 11 -10 5 0 7 5 4 10 -3 6 -8 10 -11 10 -2 0
-4 -4 -4 -10z"/>
<path d="M3208 1493 c7 -3 16 -2 19 1 4 3 -2 6 -13 5 -11 0 -14 -3 -6 -6z"/>
<path d="M2086 1474 c-15 -14 -22 -34 -12 -34 2 0 11 11 20 25 19 28 15 33 -8
9z"/>
<path d="M2466 1483 c-1 -2 -55 -3 -119 -4 -64 0 -119 -5 -122 -10 -4 -5 25
-7 67 -5 40 2 112 4 161 5 50 1 87 5 87 11 0 8 -66 11 -74 3z"/>
<path d="M2726 1480 c28 -10 312 -20 294 -11 -8 5 -82 11 -164 13 -81 2 -140
1 -130 -2z"/>
<path d="M3688 1478 c5 -5 16 -8 23 -6 8 3 3 7 -10 11 -17 4 -21 3 -13 -5z"/>
<path d="M2151 1440 c-33 -42 -33 -57 0 -17 21 24 42 57 36 57 -2 0 -18 -18
-36 -40z"/>
<path d="M3070 1470 c0 -5 7 -10 16 -10 8 0 12 5 9 10 -3 6 -10 10 -16 10 -5
0 -9 -4 -9 -10z"/>
<path d="M1275 1460 c-3 -5 1 -10 9 -10 9 0 16 5 16 10 0 6 -4 10 -9 10 -6 0
-13 -4 -16 -10z"/>
<path d="M1830 1455 c-11 -13 -10 -14 4 -9 9 3 16 10 16 15 0 13 -6 11 -20 -6z"/>
<path d="M3228 1463 c7 -3 16 -2 19 1 4 3 -2 6 -13 5 -11 0 -14 -3 -6 -6z"/>
<path d="M3948 1463 c6 -2 18 -2 25 0 6 3 1 5 -13 5 -14 0 -19 -2 -12 -5z"/>
<path d="M4120 1467 c0 -8 91 -59 96 -54 2 2 -18 16 -46 31 -27 15 -50 25 -50
23z"/>
<path d="M1060 1445 c-14 -8 -35 -20 -47 -26 -28 -15 -30 -29 -3 -22 11 3 20
9 20 13 0 5 10 12 22 16 23 7 56 34 41 34 -4 0 -19 -7 -33 -15z"/>
<path d="M1778 1443 c7 -3 16 -2 19 1 4 3 -2 6 -13 5 -11 0 -14 -3 -6 -6z"/>
<path d="M2013 1408 c-17 -24 -43 -56 -57 -72 -15 -15 -25 -30 -23 -33 3 -2
33 30 67 71 33 42 57 76 52 76 -5 0 -22 -19 -39 -42z"/>
<path d="M3103 1422 c11 -11 25 -18 33 -15 18 7 18 23 0 23 -8 0 -23 3 -33 7
-17 6 -17 6 0 -15z"/>
<path d="M3177 1424 c3 -7 9 -14 14 -14 14 0 10 17 -5 23 -10 4 -13 1 -9 -9z"/>
<path d="M4242 1394 c10 -10 20 -16 22 -13 3 3 -5 11 -17 18 -21 13 -21 12 -5
-5z"/>
<path d="M946 1375 c-11 -8 -16 -15 -10 -15 5 0 18 7 28 15 11 8 16 15 10 15
-5 0 -18 -7 -28 -15z"/>
<path d="M3130 1386 c0 -2 7 -6 15 -10 8 -3 15 -1 15 4 0 6 -7 10 -15 10 -8 0
-15 -2 -15 -4z"/>
<path d="M2087 1349 c-10 -11 -16 -24 -13 -27 6 -6 35 27 36 41 0 11 -4 9 -23
-14z"/>
<path d="M3235 1360 c3 -5 8 -10 11 -10 2 0 4 5 4 10 0 6 -5 10 -11 10 -5 0
-7 -4 -4 -10z"/>
<path d="M898 1353 c-10 -2 -18 -9 -18 -14 0 -14 16 -11 30 6 7 8 11 14 9 14
-2 -1 -12 -3 -21 -6z"/>
<path d="M2138 1353 c6 -2 18 -2 25 0 6 3 1 5 -13 5 -14 0 -19 -2 -12 -5z"/>
<path d="M2218 1353 c7 -3 16 -2 19 1 4 3 -2 6 -13 5 -11 0 -14 -3 -6 -6z"/>
<path d="M2298 1353 c7 -3 16 -2 19 1 4 3 -2 6 -13 5 -11 0 -14 -3 -6 -6z"/>
<path d="M2373 1353 c26 -2 67 -2 90 0 23 2 2 3 -48 3 -49 0 -68 -1 -42 -3z"/>
<path d="M3176 1325 c4 -8 10 -15 15 -15 4 0 6 7 3 15 -4 8 -10 15 -15 15 -4
0 -6 -7 -3 -15z"/>
<path d="M3250 1336 c0 -2 7 -9 15 -16 13 -11 14 -10 9 4 -5 14 -24 23 -24 12z"/>
<path d="M845 1320 c-3 -6 1 -7 9 -4 18 7 21 14 7 14 -6 0 -13 -4 -16 -10z"/>
<path d="M2046 1294 c-5 -14 -4 -15 9 -4 17 14 19 20 6 20 -5 0 -12 -7 -15
-16z"/>
<path d="M3200 1293 c0 -13 29 -38 35 -31 3 3 -4 13 -15 23 -11 10 -20 13 -20
8z"/>
<path d="M775 1280 c-3 -5 -2 -10 4 -10 5 0 13 5 16 10 3 6 2 10 -4 10 -5 0
-13 -4 -16 -10z"/>
<path d="M4620 1240 c8 -5 23 -10 32 -10 16 0 138 -66 262 -141 30 -18 52 -27
58 -21 6 6 -8 18 -34 32 -24 12 -96 51 -160 86 -66 36 -129 64 -145 64 -22 0
-25 -2 -13 -10z"/>
<path d="M354 1149 c-181 -91 -211 -109 -183 -109 8 0 64 27 124 59 59 33 141
74 181 92 65 28 93 49 65 49 -5 0 -89 -41 -187 -91z"/>
<path d="M1760 1205 c-14 -16 -10 -18 14 -9 9 3 16 10 16 15 0 14 -16 11 -30
-6z"/>
<path d="M1860 1210 c-8 -5 -11 -12 -7 -16 4 -4 13 -2 19 4 15 15 7 24 -12 12z"/>
<path d="M1980 1210 c-8 -5 -12 -11 -9 -14 3 -3 14 1 25 9 21 16 8 20 -16 5z"/>
<path d="M3330 1216 c0 -2 7 -6 15 -10 8 -3 15 -1 15 4 0 6 -7 10 -15 10 -8 0
-15 -2 -15 -4z"/>
<path d="M3255 1200 c3 -5 13 -10 21 -10 8 0 12 5 9 10 -3 6 -13 10 -21 10 -8
0 -12 -4 -9 -10z"/>
<path d="M1825 1160 c-3 -5 1 -10 9 -10 9 0 16 5 16 10 0 6 -4 10 -9 10 -6 0
-13 -4 -16 -10z"/>
<path d="M1945 1159 c-4 -6 -5 -13 -2 -16 7 -7 27 6 27 18 0 12 -17 12 -25 -2z"/>
<path d="M3285 1160 c3 -5 10 -10 16 -10 5 0 9 5 9 10 0 6 -7 10 -16 10 -8 0
-12 -4 -9 -10z"/>
<path d="M3330 1104 c0 -8 60 -94 66 -94 2 0 -3 14 -13 31 -10 17 -22 40 -28
50 -9 18 -25 26 -25 13z"/>
<path d="M3405 1100 c3 -5 10 -10 16 -10 5 0 9 5 9 10 0 6 -7 10 -16 10 -8 0
-12 -4 -9 -10z"/>
<path d="M3432 1060 c14 -22 24 -19 15 5 -4 8 -11 15 -17 15 -6 0 -6 -7 2 -20z"/>
<path d="M4815 1030 c3 -5 13 -10 21 -10 8 0 14 5 14 10 0 6 -9 10 -21 10 -11
0 -17 -4 -14 -10z"/>
<path d="M1758 1009 c-17 -18 -17 -19 2 -19 11 0 20 2 20 4 0 2 3 11 6 20 8
21 -7 19 -28 -5z"/>
<path d="M1607 1013 c-20 -2 -35 -8 -32 -14 10 -15 71 -10 85 6 10 12 10 15
-1 13 -8 -1 -31 -3 -52 -5z"/>
<path d="M1846 998 c-9 -12 -16 -28 -16 -35 0 -7 -4 -13 -8 -13 -8 0 -23 -25
-41 -65 -11 -25 33 23 50 54 10 20 26 46 35 59 9 12 12 22 6 22 -6 0 -18 -10
-26 -22z"/>
<path d="M1921 1011 c-8 -5 -9 -11 -3 -15 13 -8 42 3 42 15 0 11 -21 11 -39 0z"/>
<path d="M2010 1012 c0 -11 33 -22 68 -22 12 0 22 5 22 10 0 6 -13 10 -29 10
-16 0 -36 3 -45 6 -9 3 -16 2 -16 -4z"/>
<path d="M3470 1002 c6 -13 14 -21 18 -18 3 4 -2 14 -12 24 -18 16 -18 16 -6
-6z"/>
<path d="M3520 1011 c0 -5 7 -12 16 -15 24 -9 28 -7 14 9 -14 17 -30 20 -30 6z"/>
<path d="M445 1000 c-3 -6 5 -10 19 -10 14 0 28 5 31 10 3 6 -5 10 -19 10 -14
0 -28 -4 -31 -10z"/>
<path d="M688 1003 c7 -3 16 -2 19 1 4 3 -2 6 -13 5 -11 0 -14 -3 -6 -6z"/>
<path d="M915 1000 c3 -5 15 -10 25 -10 10 0 22 5 25 10 4 6 -7 10 -25 10 -18
0 -29 -4 -25 -10z"/>
<path d="M1053 1003 c15 -2 37 -2 50 0 12 2 0 4 -28 4 -27 0 -38 -2 -22 -4z"/>
<path d="M1195 999 c-4 -6 -4 -13 0 -17 4 -4 10 -2 12 5 2 7 10 10 18 7 7 -3
16 -1 20 5 4 7 -4 11 -19 11 -14 0 -28 -5 -31 -11z"/>
<path d="M1310 1000 c0 -13 40 -13 60 0 11 7 5 10 -22 10 -21 0 -38 -4 -38
-10z"/>
<path d="M1421 1000 c9 -5 26 -7 39 -5 40 8 35 15 -11 15 -32 -1 -40 -3 -28
-10z"/>
<path d="M2140 1001 c0 -16 18 -22 23 -9 4 10 8 10 14 2 6 -9 11 -8 21 2 11
12 7 14 -23 14 -19 0 -35 -4 -35 -9z"/>
<path d="M2230 994 c0 -11 5 -14 16 -10 9 3 22 6 30 6 8 0 14 5 14 10 0 6 -13
10 -30 10 -21 0 -30 -5 -30 -16z"/>
<path d="M2373 998 c5 -17 49 -17 55 0 2 8 -7 12 -28 12 -21 0 -30 -4 -27 -12z"/>
<path d="M2470 995 c0 -10 9 -15 28 -14 27 2 27 2 2 7 -20 5 -17 7 20 13 l45
6 -47 1 c-37 2 -48 -2 -48 -13z"/>
<path d="M2650 1000 c0 -5 14 -10 31 -10 17 0 28 4 24 10 -3 6 -17 10 -31 10
-13 0 -24 -4 -24 -10z"/>
<path d="M2735 1000 c-4 -6 8 -10 29 -10 20 0 36 5 36 10 0 6 -13 10 -29 10
-17 0 -33 -4 -36 -10z"/>
<path d="M2870 1000 c0 -5 14 -10 30 -10 17 0 30 5 30 10 0 6 -13 10 -30 10
-16 0 -30 -4 -30 -10z"/>
<path d="M2980 1000 c0 -5 16 -10 35 -10 19 0 35 5 35 10 0 6 -16 10 -35 10
-19 0 -35 -4 -35 -10z"/>
<path d="M3095 1000 c3 -5 24 -10 46 -10 21 0 39 5 39 10 0 6 -21 10 -46 10
-27 0 -43 -4 -39 -10z"/>
<path d="M3235 1000 c3 -5 17 -10 31 -10 14 0 22 4 19 10 -3 6 -17 10 -31 10
-14 0 -22 -4 -19 -10z"/>
<path d="M3616 996 c3 -9 11 -16 16 -16 13 0 5 23 -10 28 -7 2 -10 -2 -6 -12z"/>
<path d="M4876 1000 c6 -6 26 -18 45 -28 19 -10 67 -38 107 -61 40 -24 75 -41
78 -38 6 6 -212 137 -228 137 -8 0 -9 -3 -2 -10z"/>
<path d="M229 976 c-36 -24 -82 -52 -149 -87 -19 -11 -46 -28 -60 -39 -20 -16
-21 -19 -5 -14 11 4 25 10 30 14 6 4 37 22 70 40 146 80 165 92 165 102 0 13
-14 9 -51 -16z"/>
<path d="M818 993 c7 -3 16 -2 19 1 4 3 -2 6 -13 5 -11 0 -14 -3 -6 -6z"/>
<path d="M3400 990 c0 -5 7 -10 15 -10 8 0 15 5 15 10 0 6 -7 10 -15 10 -8 0
-15 -4 -15 -10z"/>
<path d="M3713 993 c26 -2 68 -2 95 0 26 2 4 3 -48 3 -52 0 -74 -1 -47 -3z"/>
<path d="M3918 993 c6 -2 18 -2 25 0 6 3 1 5 -13 5 -14 0 -19 -2 -12 -5z"/>
<path d="M4033 993 c37 -2 96 -2 130 0 34 2 4 3 -68 3 -71 0 -99 -1 -62 -3z"/>
<path d="M4278 993 c6 -2 18 -2 25 0 6 3 1 5 -13 5 -14 0 -19 -2 -12 -5z"/>
<path d="M4458 993 c7 -3 16 -2 19 1 4 3 -2 6 -13 5 -11 0 -14 -3 -6 -6z"/>
<path d="M4648 993 c7 -3 16 -2 19 1 4 3 -2 6 -13 5 -11 0 -14 -3 -6 -6z"/>
<path d="M2538 983 c7 -3 16 -2 19 1 4 3 -2 6 -13 5 -11 0 -14 -3 -6 -6z"/>
<path d="M3323 983 c9 -2 23 -2 30 0 6 3 -1 5 -18 5 -16 0 -22 -2 -12 -5z"/>
<path d="M1902 949 c-19 -31 -9 -33 18 -4 16 17 19 25 9 25 -8 0 -20 -9 -27
-21z"/>
<path d="M3028 953 c6 -2 18 -2 25 0 6 3 1 5 -13 5 -14 0 -19 -2 -12 -5z"/>
<path d="M1705 939 c-12 -19 3 -22 27 -5 l22 16 -21 0 c-12 0 -25 -5 -28 -11z"/>
<path d="M3510 925 c7 -8 17 -15 22 -15 6 0 5 7 -2 15 -7 8 -17 15 -22 15 -6
0 -5 -7 2 -15z"/>
<path d="M3445 920 c3 -5 13 -10 21 -10 8 0 12 5 9 10 -3 6 -13 10 -21 10 -8
0 -12 -4 -9 -10z"/>
<path d="M3612 898 c5 -15 28 -23 28 -10 0 5 -7 13 -16 16 -10 4 -14 1 -12 -6z"/>
<path d="M1657 839 c-10 -11 -16 -24 -13 -27 6 -6 35 27 36 41 0 11 -4 9 -23
-14z"/>
<path d="M1842 825 c-6 -14 -10 -25 -7 -25 7 0 35 32 35 41 0 18 -17 9 -28
-16z"/>
<path d="M3512 838 c5 -15 28 -23 28 -10 0 5 -7 13 -16 16 -10 4 -14 1 -12 -6z"/>
<path d="M3565 840 c3 -5 11 -10 16 -10 6 0 7 5 4 10 -3 6 -11 10 -16 10 -6 0
-7 -4 -4 -10z"/>
<path d="M1727 790 c-22 -36 -6 -41 17 -5 18 27 20 35 8 35 -4 0 -16 -13 -25
-30z"/>
<path d="M3715 780 c3 -5 11 -10 16 -10 6 0 7 5 4 10 -3 6 -11 10 -16 10 -6 0
-7 -4 -4 -10z"/>
<path d="M1625 770 c-3 -5 -1 -10 4 -10 6 0 11 5 11 10 0 6 -2 10 -4 10 -3 0
-8 -4 -11 -10z"/>
<path d="M3583 753 c9 -2 25 -2 35 0 9 3 1 5 -18 5 -19 0 -27 -2 -17 -5z"/>
<path d="M1555 609 c-10 -15 3 -25 16 -12 7 7 7 13 1 17 -6 3 -14 1 -17 -5z"/>
<path d="M1716 601 c-4 -7 -5 -15 -2 -18 9 -9 19 4 14 18 -4 11 -6 11 -12 0z"/>
<path d="M3790 572 c0 -12 19 -26 26 -19 2 2 -2 10 -11 17 -9 8 -15 8 -15 2z"/>
<path d="M1340 439 c0 -5 5 -7 10 -4 6 3 10 8 10 11 0 2 -4 4 -10 4 -5 0 -10
-5 -10 -11z"/>
<path d="M1620 430 c0 -5 5 -10 10 -10 6 0 10 5 10 10 0 6 -4 10 -10 10 -5 0
-10 -4 -10 -10z"/>
<path d="M1530 344 c0 -8 5 -12 10 -9 6 4 8 11 5 16 -9 14 -15 11 -15 -7z"/>
</g>
</svg>
