<?xml version="1.0" standalone="no"?>
<!DOCTYPE svg PUBLIC "-//W3C//DTD SVG 20010904//EN"
 "http://www.w3.org/TR/2001/REC-SVG-20010904/DTD/svg10.dtd">
<svg version="1.0" xmlns="http://www.w3.org/2000/svg"
 width="512.000000pt" height="512.000000pt" viewBox="0 0 512.000000 512.000000"
 preserveAspectRatio="xMidYMid meet">
<metadata>
Created by potrace 1.16, written by Peter Selinger 2001-2019
</metadata>
<g transform="translate(0.000000,512.000000) scale(0.100000,-0.100000)"
fill="#000000" stroke="none">
<path d="M787 5114 c-4 -4 -7 -14 -7 -23 0 -11 3 -12 11 -4 6 6 10 16 7 23 -2
6 -7 8 -11 4z"/>
<path d="M3770 5107 c0 -8 9 -22 20 -32 20 -18 20 -17 19 11 0 25 -2 26 -9 9
-8 -19 -9 -19 -9 3 -1 23 -21 32 -21 9z"/>
<path d="M3870 5072 c0 -28 5 -54 11 -58 8 -5 10 8 6 46 -8 69 -17 76 -17 12z"/>
<path d="M3616 5095 c-3 -8 -1 -15 4 -15 6 0 10 7 10 15 0 8 -2 15 -4 15 -2 0
-6 -7 -10 -15z"/>
<path d="M3695 5100 c4 -6 11 -8 16 -5 14 9 11 15 -7 15 -8 0 -12 -5 -9 -10z"/>
<path d="M426 5076 c-9 -15 -16 -32 -13 -39 2 -6 11 1 21 15 10 15 16 33 14
39 -2 6 -12 0 -22 -15z"/>
<path d="M3352 5080 c0 -14 2 -19 5 -12 2 6 2 18 0 25 -3 6 -5 1 -5 -13z"/>
<path d="M3585 5090 c3 -5 8 -10 11 -10 2 0 4 5 4 10 0 6 -5 10 -11 10 -5 0
-7 -4 -4 -10z"/>
<path d="M4280 5089 c0 -5 5 -7 10 -4 6 3 10 8 10 11 0 2 -4 4 -10 4 -5 0 -10
-5 -10 -11z"/>
<path d="M567 5058 c-36 -47 -34 -57 4 -20 17 17 29 36 27 43 -3 8 -15 -2 -31
-23z"/>
<path d="M3467 5053 c3 -21 11 -45 18 -53 7 -8 14 -22 17 -30 3 -11 8 -9 17 9
12 21 11 23 -3 18 -19 -7 -41 27 -32 50 3 8 -1 21 -8 29 -13 12 -14 9 -9 -23z"/>
<path d="M3726 5045 c4 -28 11 -57 15 -65 6 -9 7 7 3 40 -4 30 -10 59 -15 65
-6 5 -7 -11 -3 -40z"/>
<path d="M303 5064 c-7 -7 -13 -19 -13 -26 0 -7 7 -2 16 10 18 26 16 37 -3 16z"/>
<path d="M731 5064 c-19 -8 -32 -17 -29 -19 7 -8 68 16 68 26 0 11 2 11 -39
-7z"/>
<path d="M646 5055 c-4 -13 -2 -14 14 -5 23 13 26 20 6 20 -8 0 -16 -7 -20
-15z"/>
<path d="M3580 5040 c-6 -11 -9 -29 -7 -38 4 -13 5 -13 6 4 0 11 6 25 13 32 6
6 9 14 6 18 -4 3 -12 -4 -18 -16z"/>
<path d="M3370 5024 c0 -19 29 -80 30 -63 0 9 -7 30 -15 45 -8 16 -15 24 -15
18z"/>
<path d="M4288 5024 c-5 -4 -8 -21 -7 -38 0 -30 0 -30 10 -7 11 27 8 57 -3 45z"/>
<path d="M772 4999 c-10 -15 -10 -19 2 -19 15 0 29 27 18 34 -5 3 -13 -4 -20
-15z"/>
<path d="M3600 5005 c0 -8 5 -15 10 -15 6 0 10 7 10 15 0 8 -4 15 -10 15 -5 0
-10 -7 -10 -15z"/>
<path d="M3793 4998 c3 -13 11 -55 18 -95 6 -40 15 -70 19 -68 17 11 -15 185
-33 185 -5 0 -7 -10 -4 -22z"/>
<path d="M590 4971 c0 -5 -8 -12 -17 -14 -11 -3 -7 -5 10 -6 18 -1 27 4 27 14
0 8 -4 15 -10 15 -5 0 -10 -4 -10 -9z"/>
<path d="M435 4949 c-9 -27 -4 -30 18 -9 15 15 16 18 3 23 -9 4 -17 -2 -21
-14z"/>
<path d="M390 4958 c-1 -5 -3 -12 -4 -17 0 -5 -4 -13 -8 -17 -5 -4 -8 -14 -8
-23 0 -14 2 -14 16 1 9 9 14 26 11 39 -2 13 -5 21 -7 17z"/>
<path d="M687 4953 c-10 -9 -9 -23 2 -23 5 0 11 7 15 15 5 15 -5 20 -17 8z"/>
<path d="M3640 4946 c0 -9 5 -16 10 -16 6 0 10 4 10 9 0 6 -4 13 -10 16 -5 3
-10 -1 -10 -9z"/>
<path d="M3705 4950 c3 -5 8 -10 11 -10 2 0 4 5 4 10 0 6 -5 10 -11 10 -5 0
-7 -4 -4 -10z"/>
<path d="M3241 4910 c0 -25 6 -63 14 -85 18 -50 18 -20 1 65 -13 64 -14 65
-15 20z"/>
<path d="M492 4928 c-7 -7 -12 -19 -12 -27 0 -11 4 -10 20 4 21 19 26 35 12
35 -4 0 -13 -5 -20 -12z"/>
<path d="M550 4931 c0 -5 -3 -18 -6 -28 -5 -16 -4 -16 10 1 18 23 20 36 6 36
-5 0 -10 -4 -10 -9z"/>
<path d="M3530 4930 c0 -5 5 -10 11 -10 5 0 7 5 4 10 -3 6 -8 10 -11 10 -2 0
-4 -4 -4 -10z"/>
<path d="M290 4915 c0 -8 2 -15 4 -15 2 0 6 7 10 15 3 8 1 15 -4 15 -6 0 -10
-7 -10 -15z"/>
<path d="M720 4915 c0 -8 2 -15 4 -15 2 0 6 7 10 15 3 8 1 15 -4 15 -6 0 -10
-7 -10 -15z"/>
<path d="M762 4910 c0 -14 2 -19 5 -12 2 6 2 18 0 25 -3 6 -5 1 -5 -13z"/>
<path d="M3590 4906 c14 -15 24 -31 22 -34 -2 -4 1 -8 7 -10 27 -9 3 32 -34
58 -14 10 -13 7 5 -14z"/>
<path d="M615 4909 c-4 -6 -5 -13 -2 -16 7 -7 27 6 27 18 0 12 -17 12 -25 -2z"/>
<path d="M3407 4878 c3 -18 10 -41 14 -50 5 -9 9 -26 9 -37 0 -12 5 -21 10
-21 13 0 13 37 1 45 -6 3 -13 26 -17 50 -3 25 -10 45 -15 45 -5 0 -6 -15 -2
-32z"/>
<path d="M3560 4893 c0 -13 5 -23 10 -23 13 0 13 11 0 30 -8 12 -10 11 -10 -7z"/>
<path d="M3682 4888 c5 -15 28 -23 28 -10 0 5 -7 13 -16 16 -10 4 -14 1 -12
-6z"/>
<path d="M447 4883 c-12 -12 -7 -22 8 -17 8 4 15 10 15 15 0 11 -14 12 -23 2z"/>
<path d="M3738 4867 c-3 -13 2 -33 9 -43 13 -17 14 -15 10 19 -5 46 -13 56
-19 24z"/>
<path d="M640 4872 c0 -5 6 -15 14 -21 10 -9 16 -8 26 4 7 9 9 19 5 23 -4 4
-10 1 -12 -6 -4 -10 -8 -10 -19 -1 -8 7 -14 7 -14 1z"/>
<path d="M3880 4852 c0 -18 5 -32 10 -32 6 0 8 11 4 28 -10 39 -14 40 -14 4z"/>
<path d="M4271 4854 c0 -11 3 -14 6 -6 3 7 2 16 -1 19 -3 4 -6 -2 -5 -13z"/>
<path d="M590 4845 c-7 -8 -8 -15 -2 -15 5 0 15 7 22 15 7 8 8 15 2 15 -5 0
-15 -7 -22 -15z"/>
<path d="M735 4850 c-3 -5 1 -10 9 -10 9 0 16 5 16 10 0 6 -4 10 -9 10 -6 0
-13 -4 -16 -10z"/>
<path d="M3530 4858 c0 -3 8 -20 17 -39 13 -25 18 -29 21 -17 2 10 -6 27 -17
40 -12 12 -21 19 -21 16z"/>
<path d="M366 4834 c-11 -7 -18 -16 -15 -18 2 -2 13 2 23 10 11 7 18 16 15 18
-2 2 -13 -2 -23 -10z"/>
<path d="M3600 4830 c0 -7 6 -10 14 -7 8 3 17 2 20 -4 2 -5 3 -4 2 3 -3 17
-36 23 -36 8z"/>
<path d="M597 4789 c-20 -22 -34 -39 -30 -39 10 1 54 39 72 63 24 31 -3 15
-42 -24z"/>
<path d="M695 4820 c-3 -5 -1 -10 4 -10 6 0 11 5 11 10 0 6 -2 10 -4 10 -3 0
-8 -4 -11 -10z"/>
<path d="M470 4810 c0 -5 5 -10 10 -10 6 0 10 5 10 10 0 6 -4 10 -10 10 -5 0
-10 -4 -10 -10z"/>
<path d="M520 4802 c0 -10 -6 -24 -12 -31 -11 -11 -10 -13 1 -9 17 5 35 58 20
58 -5 0 -9 -8 -9 -18z"/>
<path d="M747 4808 c-7 -20 -7 -28 0 -30 3 -2 8 7 9 20 4 24 -1 30 -9 10z"/>
<path d="M3488 4787 c-3 -19 -2 -25 4 -19 6 6 8 18 6 28 -3 14 -5 12 -10 -9z"/>
<path d="M3675 4788 c3 -13 8 -35 9 -51 4 -36 16 -48 16 -15 0 42 -12 88 -22
88 -6 0 -7 -10 -3 -22z"/>
<path d="M3756 4774 c-4 -15 -3 -31 1 -35 5 -5 9 7 10 26 1 42 -2 45 -11 9z"/>
<path d="M3875 4768 c1 -13 3 -35 4 -49 0 -14 8 -34 17 -45 14 -18 15 -18 8 6
-7 24 -11 52 -13 93 -1 9 -5 17 -10 17 -4 0 -7 -10 -6 -22z"/>
<path d="M450 4759 c0 -11 5 -17 10 -14 6 3 10 13 10 21 0 8 -4 14 -10 14 -5
0 -10 -9 -10 -21z"/>
<path d="M3575 4770 c3 -5 8 -10 11 -10 2 0 4 5 4 10 0 6 -5 10 -11 10 -5 0
-7 -4 -4 -10z"/>
<path d="M1750 4766 c0 -2 8 -10 18 -17 15 -13 16 -12 3 4 -13 16 -21 21 -21
13z"/>
<path d="M3392 4745 c0 -16 2 -22 5 -12 2 9 2 23 0 30 -3 6 -5 -1 -5 -18z"/>
<path d="M586 4717 c-28 -37 -32 -47 -16 -47 6 0 13 8 17 18 3 9 13 25 21 35
8 9 13 20 10 23 -3 3 -18 -10 -32 -29z"/>
<path d="M3550 4695 c0 -33 5 -67 11 -75 8 -12 9 -10 4 7 -3 12 -2 38 3 57 8
26 7 39 -4 53 -12 16 -13 11 -14 -42z"/>
<path d="M729 4738 c-1 -2 -3 -23 -5 -48 -2 -27 0 -39 5 -30 14 25 21 80 11
80 -6 0 -10 -1 -11 -2z"/>
<path d="M3470 4731 c0 -6 4 -12 8 -15 5 -3 9 1 9 9 0 8 -4 15 -9 15 -4 0 -8
-4 -8 -9z"/>
<path d="M3644 4724 c3 -9 6 -25 6 -37 0 -13 4 -17 9 -11 12 11 2 64 -11 64
-6 0 -7 -7 -4 -16z"/>
<path d="M640 4720 c0 -5 5 -10 10 -10 6 0 10 5 10 10 0 6 -4 10 -10 10 -5 0
-10 -4 -10 -10z"/>
<path d="M3722 4718 c2 -6 10 -14 16 -16 7 -2 10 2 6 12 -7 18 -28 22 -22 4z"/>
<path d="M3512 4680 c0 -19 2 -27 5 -17 2 9 2 25 0 35 -3 9 -5 1 -5 -18z"/>
<path d="M417 4685 c-4 -8 -2 -17 3 -20 6 -4 10 3 10 14 0 25 -6 27 -13 6z"/>
<path d="M1985 4676 c28 -13 74 -37 103 -55 42 -25 75 -34 150 -45 54 -7 106
-17 117 -21 17 -8 17 -5 -5 22 -29 37 -56 53 -41 25 7 -14 6 -18 -9 -18 -10 0
-16 5 -14 11 3 6 -8 18 -23 27 -16 9 -38 26 -50 37 -18 17 -23 18 -33 6 -10
-12 -9 -15 2 -15 18 0 69 -45 61 -54 -3 -3 -18 3 -33 14 -36 25 -58 27 -39 3
12 -15 12 -16 -6 -9 -11 5 -34 14 -50 20 -17 6 -42 18 -55 27 -14 9 -28 17
-32 18 -4 1 -23 8 -42 16 -56 24 -56 16 -1 -9z"/>
<path d="M3035 4674 c-28 -14 -62 -40 -77 -56 -30 -33 -27 -33 -155 -12 -30 5
-52 2 -77 -10 -55 -26 -112 -21 -140 11 l-24 28 -93 -16 c-86 -14 -95 -14
-106 0 -6 9 -15 12 -19 8 -4 -4 1 -16 12 -27 19 -19 23 -19 98 -5 104 20 114
19 128 -10 9 -21 18 -25 52 -25 23 0 62 8 88 17 42 15 56 15 127 4 l80 -13 43
41 c24 23 65 52 92 66 28 14 43 25 35 25 -8 0 -37 -12 -64 -26z"/>
<path d="M660 4680 c-13 -8 -12 -10 3 -10 9 0 17 5 17 10 0 12 -1 12 -20 0z"/>
<path d="M1794 4667 c6 -26 5 -27 -13 -18 -24 14 -31 14 -31 1 0 -9 79 -35 85
-28 2 2 -8 19 -22 38 -25 34 -25 34 -19 7z"/>
<path d="M1820 4682 c0 -5 9 -17 20 -27 11 -10 20 -13 20 -7 0 7 -4 12 -10 12
-5 0 -10 7 -10 15 0 8 -4 15 -10 15 -5 0 -10 -4 -10 -8z"/>
<path d="M2240 4662 c30 -23 107 -45 86 -25 -4 5 -11 8 -14 9 -23 3 -72 27
-72 35 0 5 -8 9 -17 9 -13 0 -8 -8 17 -28z"/>
<path d="M3208 4683 c7 -3 16 -2 19 1 4 3 -2 6 -13 5 -11 0 -14 -3 -6 -6z"/>
<path d="M3712 4665 c0 -16 2 -22 5 -12 2 9 2 23 0 30 -3 6 -5 -1 -5 -18z"/>
<path d="M1690 4669 c0 -5 4 -9 9 -9 5 0 17 -3 27 -7 11 -4 15 -3 11 4 -9 14
-47 24 -47 12z"/>
<path d="M1120 4660 c8 -5 20 -10 25 -10 6 0 3 5 -5 10 -8 5 -19 10 -25 10 -5
0 -3 -5 5 -10z"/>
<path d="M3040 4636 c-25 -18 -55 -45 -68 -58 l-23 -25 43 -12 c83 -22 854
-51 1088 -42 l175 7 -237 2 c-249 2 -276 6 -298 48 -7 13 -17 21 -22 18 -4 -3
-8 4 -8 15 0 12 -4 21 -8 21 -5 0 -7 -13 -4 -30 3 -20 10 -30 22 -30 10 0 20
-7 24 -15 4 -13 -7 -14 -75 -12 -44 2 -83 8 -87 13 -10 15 -51 24 -58 13 -3
-5 4 -9 15 -9 11 0 23 -5 26 -10 4 -7 -11 -9 -42 -6 -26 3 -111 8 -187 11 -77
3 -144 8 -149 12 -5 3 -12 1 -16 -6 -5 -7 -17 -8 -41 -1 -19 6 -56 10 -82 10
-29 0 -48 4 -48 11 0 8 25 10 85 7 47 -3 85 -2 85 2 0 4 -30 8 -67 9 -37 1
-69 4 -72 7 -12 11 74 70 97 66 6 -2 12 2 12 8 0 20 -35 9 -80 -24z"/>
<path d="M3610 4655 c7 -9 15 -13 17 -11 7 7 -7 26 -19 26 -6 0 -6 -6 2 -15z"/>
<path d="M3670 4661 c0 -6 4 -13 10 -16 6 -3 7 1 4 9 -7 18 -14 21 -14 7z"/>
<path d="M3772 4648 c7 -13 13 -29 13 -37 0 -8 6 -16 13 -19 8 -2 10 3 6 15
-11 34 -27 63 -36 63 -5 0 -3 -10 4 -22z"/>
<path d="M4281 4654 c0 -11 3 -14 6 -6 3 7 2 16 -1 19 -3 4 -6 -2 -5 -13z"/>
<path d="M690 4649 c0 -5 5 -7 10 -4 6 3 10 8 10 11 0 2 -4 4 -10 4 -5 0 -10
-5 -10 -11z"/>
<path d="M1975 4650 c3 -5 13 -10 21 -10 8 0 14 -2 14 -4 0 -2 3 -11 6 -19 5
-13 -2 -15 -38 -12 -24 3 -59 9 -78 15 -44 13 -57 13 -44 1 14 -15 59 -23 159
-30 81 -6 106 -6 94 2 -27 16 -128 67 -133 67 -4 0 -4 -4 -1 -10z"/>
<path d="M3130 4651 c0 -5 25 -11 55 -13 60 -3 74 6 24 16 -45 9 -79 7 -79 -3z"/>
<path d="M1167 4639 c7 -7 15 -10 18 -7 3 3 -2 9 -12 12 -14 6 -15 5 -6 -5z"/>
<path d="M3260 4636 c0 -9 5 -16 10 -16 6 0 10 4 10 9 0 6 -4 13 -10 16 -5 3
-10 -1 -10 -9z"/>
<path d="M3475 4640 c3 -5 8 -10 11 -10 2 0 4 5 4 10 0 6 -5 10 -11 10 -5 0
-7 -4 -4 -10z"/>
<path d="M352 4620 c0 -14 2 -19 5 -12 2 6 2 18 0 25 -3 6 -5 1 -5 -13z"/>
<path d="M580 4625 c-17 -21 -5 -31 15 -12 8 9 15 18 15 21 0 11 -18 6 -30 -9z"/>
<path d="M1205 4630 c-3 -5 -1 -10 4 -10 6 0 11 5 11 10 0 6 -2 10 -4 10 -3 0
-8 -4 -11 -10z"/>
<path d="M1245 4627 c-4 -10 -5 -21 -1 -24 10 -10 18 4 13 24 -4 17 -4 17 -12
0z"/>
<path d="M1680 4631 c0 -5 7 -8 15 -5 8 3 22 -1 30 -10 9 -9 27 -16 41 -16 13
0 24 -4 24 -10 0 -5 -11 -10 -24 -10 -14 0 -28 -4 -31 -10 -5 -8 164 -4 173 5
2 2 -151 48 -205 62 -13 3 -23 1 -23 -6z"/>
<path d="M506 4615 c-11 -8 -17 -18 -13 -21 3 -3 16 3 28 15 26 24 14 28 -15
6z"/>
<path d="M1115 4620 c3 -5 10 -10 16 -10 5 0 9 5 9 10 0 6 -7 10 -16 10 -8 0
-12 -4 -9 -10z"/>
<path d="M3298 4623 c7 -3 16 -2 19 1 4 3 -2 6 -13 5 -11 0 -14 -3 -6 -6z"/>
<path d="M1067 4613 c-13 -12 -7 -23 11 -22 10 0 12 3 4 6 -6 2 -10 9 -6 14 6
10 0 12 -9 2z"/>
<path d="M1155 4610 c3 -5 11 -10 16 -10 6 0 7 5 4 10 -3 6 -11 10 -16 10 -6
0 -7 -4 -4 -10z"/>
<path d="M3231 4604 c0 -11 3 -14 6 -6 3 7 2 16 -1 19 -3 4 -6 -2 -5 -13z"/>
<path d="M3340 4610 c0 -5 7 -10 16 -10 8 0 12 5 9 10 -3 6 -10 10 -16 10 -5
0 -9 -4 -9 -10z"/>
<path d="M697 4589 c-3 -13 -1 -19 6 -16 15 5 22 37 9 37 -5 0 -12 -9 -15 -21z"/>
<path d="M1270 4601 c0 -6 12 -14 28 -17 15 -4 73 -22 130 -40 106 -35 148
-42 137 -24 -4 6 -14 10 -23 9 -29 -2 -42 1 -42 10 0 5 8 11 18 14 9 2 -2 2
-25 -1 -27 -3 -64 4 -105 18 -35 12 -71 23 -81 25 -9 2 -22 7 -27 10 -6 3 -10
2 -10 -4z"/>
<path d="M3265 4600 c3 -5 8 -10 11 -10 2 0 4 5 4 10 0 6 -5 10 -11 10 -5 0
-7 -4 -4 -10z"/>
<path d="M1184 4589 c-4 -7 -21 -9 -40 -6 -39 7 -47 -8 -8 -16 26 -5 74 12 74
26 0 11 -18 8 -26 -4z"/>
<path d="M1465 4583 l-60 -12 58 3 c53 4 78 11 66 19 -2 2 -31 -3 -64 -10z"/>
<path d="M3298 4593 c7 -3 16 -2 19 1 4 3 -2 6 -13 5 -11 0 -14 -3 -6 -6z"/>
<path d="M3380 4588 c0 -4 18 -8 40 -8 22 0 40 3 40 8 0 4 -18 7 -40 7 -22 1
-40 -3 -40 -7z"/>
<path d="M3475 4590 c-3 -5 3 -10 15 -10 12 0 18 5 15 10 -3 6 -10 10 -15 10
-5 0 -12 -4 -15 -10z"/>
<path d="M3870 4578 c0 -16 5 -28 10 -28 13 0 13 20 0 40 -8 12 -10 9 -10 -12z"/>
<path d="M610 4580 c0 -5 4 -10 9 -10 6 0 13 5 16 10 3 6 -1 10 -9 10 -9 0
-16 -4 -16 -10z"/>
<path d="M1618 4583 c7 -3 16 -2 19 1 4 3 -2 6 -13 5 -11 0 -14 -3 -6 -6z"/>
<path d="M2465 4579 c-22 -5 -44 -14 -48 -18 -14 -14 48 -23 108 -16 54 7 55
8 39 26 -19 21 -38 22 -99 8z m12 -25 c-3 -3 -12 -4 -19 -1 -8 3 -5 6 6 6 11
1 17 -2 13 -5z"/>
<path d="M447 4573 c-4 -3 -7 -11 -7 -17 0 -6 5 -5 12 2 6 6 9 14 7 17 -3 3
-9 2 -12 -2z"/>
<path d="M1675 4570 c27 -11 45 -12 45 -2 0 5 -15 9 -32 9 -27 1 -29 -1 -13
-7z"/>
<path d="M3580 4564 c0 -8 5 -12 10 -9 6 4 8 11 5 16 -9 14 -15 11 -15 -7z"/>
<path d="M3630 4571 c0 -5 5 -13 10 -16 6 -3 10 -2 10 4 0 5 -4 13 -10 16 -5
3 -10 2 -10 -4z"/>
<path d="M3800 4569 c0 -6 -9 -8 -20 -4 -28 9 -25 -4 3 -14 14 -5 25 -4 29 3
11 16 10 26 -2 26 -5 0 -10 -5 -10 -11z"/>
<path d="M1206 4560 c-34 -12 1 -23 51 -15 24 3 43 8 41 10 -8 9 -74 12 -92 5z"/>
<path d="M1557 4564 c-4 -4 10 -15 30 -26 24 -13 39 -16 46 -9 5 5 24 8 41 5
25 -4 28 -3 14 6 -10 6 -38 11 -63 12 -24 0 -42 4 -39 9 6 10 -19 12 -29 3z"/>
<path d="M2733 4564 c-30 -13 -7 -19 73 -20 47 -1 82 2 77 6 -10 10 -134 21
-150 14z"/>
<path d="M3278 4563 c18 -2 45 -2 60 0 15 2 0 4 -33 4 -33 0 -45 -2 -27 -4z"/>
<path d="M696 4551 c-4 -7 -5 -15 -2 -18 9 -9 19 4 14 18 -4 11 -6 11 -12 0z"/>
<path d="M1820 4549 c-59 -5 -54 -6 50 -10 63 -2 157 -3 208 -1 51 1 91 -2 88
-6 -2 -4 39 -7 93 -8 53 0 111 -5 129 -12 17 -6 32 -7 32 -2 0 10 -75 26 -160
35 -80 8 -364 11 -440 4z"/>
<path d="M1095 4534 c-19 -15 -19 -15 10 -12 17 2 29 7 28 13 -3 16 -17 15
-38 -1z"/>
<path d="M1299 4534 c-23 -13 -23 -13 12 -12 20 1 41 -2 47 -6 8 -4 10 -2 6 7
-8 22 -37 26 -65 11z"/>
<path d="M2645 4540 c-28 -7 -27 -8 13 -9 23 0 42 4 42 9 0 11 -11 11 -55 0z"/>
<path d="M3387 4543 c18 -2 50 -2 70 0 21 2 7 4 -32 4 -38 0 -55 -2 -38 -4z"/>
<path d="M1395 4520 c3 -5 14 -10 23 -10 15 0 15 2 2 10 -20 13 -33 13 -25 0z"/>
<path d="M431 4504 c0 -11 3 -14 6 -6 3 7 2 16 -1 19 -3 4 -6 -2 -5 -13z"/>
<path d="M1165 4510 c27 -12 35 -12 35 0 0 6 -12 10 -27 9 -25 0 -26 -1 -8 -9z"/>
<path d="M2128 4513 c7 -3 16 -2 19 1 4 3 -2 6 -13 5 -11 0 -14 -3 -6 -6z"/>
<path d="M2890 4513 c0 -6 42 -13 93 -17 50 -4 115 -10 142 -13 28 -3 47 -3
44 1 -3 3 -46 10 -95 15 -49 6 -110 13 -136 17 -30 4 -48 3 -48 -3z"/>
<path d="M658 4503 c7 -3 16 -2 19 1 4 3 -2 6 -13 5 -11 0 -14 -3 -6 -6z"/>
<path d="M1440 4500 c0 -5 5 -10 10 -10 6 0 10 5 10 10 0 6 -4 10 -10 10 -5 0
-10 -4 -10 -10z"/>
<path d="M2183 4503 c9 -2 23 -2 30 0 6 3 -1 5 -18 5 -16 0 -22 -2 -12 -5z"/>
<path d="M2258 4503 c7 -3 16 -2 19 1 4 3 -2 6 -13 5 -11 0 -14 -3 -6 -6z"/>
<path d="M2298 4503 c7 -3 16 -2 19 1 4 3 -2 6 -13 5 -11 0 -14 -3 -6 -6z"/>
<path d="M2478 4503 c6 -2 18 -2 25 0 6 3 1 5 -13 5 -14 0 -19 -2 -12 -5z"/>
<path d="M4264 4499 c-3 -5 70 -9 162 -9 92 0 165 2 163 4 -9 8 -320 13 -325
5z"/>
<path d="M1023 4493 c15 -2 37 -2 50 0 12 2 0 4 -28 4 -27 0 -38 -2 -22 -4z"/>
<path d="M1113 4493 c9 -2 17 -8 17 -12 0 -4 16 -7 35 -8 19 -1 35 3 35 8 0 5
-10 9 -22 10 -13 0 -36 2 -53 4 -16 2 -22 1 -12 -2z"/>
<path d="M1220 4485 c-8 -9 -8 -15 -2 -15 12 0 26 19 19 26 -2 2 -10 -2 -17
-11z"/>
<path d="M1265 4490 c26 -11 45 -12 45 -2 0 4 -15 8 -33 9 -26 1 -28 0 -12 -7z"/>
<path d="M2550 4488 c29 -11 290 -17 290 -5 0 4 -21 7 -47 7 -27 0 -97 2 -158
4 -80 3 -103 1 -85 -6z"/>
<path d="M1338 4483 c12 -2 30 -2 40 0 9 3 -1 5 -23 4 -22 0 -30 -2 -17 -4z"/>
<path d="M1415 4480 c3 -5 8 -10 11 -10 2 0 4 5 4 10 0 6 -5 10 -11 10 -5 0
-7 -4 -4 -10z"/>
<path d="M1533 4483 c9 -2 25 -2 35 0 9 3 1 5 -18 5 -19 0 -27 -2 -17 -5z"/>
<path d="M1753 4478 c-2 -5 46 -8 107 -8 73 0 109 4 105 10 -7 12 -204 9 -212
-2z"/>
<path d="M1988 4483 c6 -2 18 -2 25 0 6 3 1 5 -13 5 -14 0 -19 -2 -12 -5z"/>
<path d="M3228 4483 c6 -2 18 -2 25 0 6 3 1 5 -13 5 -14 0 -19 -2 -12 -5z"/>
<path d="M601 4450 c-8 -26 -15 -30 -45 -30 -20 0 -36 -4 -36 -10 0 -11 11
-12 61 -4 30 5 36 10 32 25 -3 11 0 26 7 34 7 9 8 15 2 15 -5 0 -15 -13 -21
-30z"/>
<path d="M675 4470 c52 -10 255 -17 255 -9 0 7 -160 19 -239 18 -55 -1 -56 -1
-16 -9z"/>
<path d="M1034 4471 c18 -7 66 -3 66 5 0 2 -19 4 -42 3 -31 0 -37 -3 -24 -8z"/>
<path d="M1680 4470 c-21 -7 -18 -8 18 -9 26 -1 41 3 37 9 -7 11 -19 11 -55 0z"/>
<path d="M2053 4473 c9 -2 23 -2 30 0 6 3 -1 5 -18 5 -16 0 -22 -2 -12 -5z"/>
<path d="M2858 4473 c7 -3 16 -2 19 1 4 3 -2 6 -13 5 -11 0 -14 -3 -6 -6z"/>
<path d="M4601 4480 c-2 -3 -4 -22 -5 -42 l-3 -38 89 0 c52 0 88 4 88 10 0 6
-33 10 -79 10 l-80 0 -4 33 c-2 17 -5 30 -6 27z"/>
<path d="M1575 4460 c-26 -7 -24 -8 20 -9 36 0 46 2 35 9 -8 5 -17 9 -20 9 -3
-1 -18 -5 -35 -9z"/>
<path d="M1130 4450 c0 -5 4 -10 9 -10 6 0 13 5 16 10 3 6 -1 10 -9 10 -9 0
-16 -4 -16 -10z"/>
<path d="M1258 4453 c12 -2 30 -2 40 0 9 3 -1 5 -23 4 -22 0 -30 -2 -17 -4z"/>
<path d="M1333 4453 c9 -2 23 -2 30 0 6 3 -1 5 -18 5 -16 0 -22 -2 -12 -5z"/>
<path d="M1815 4450 c-7 -11 67 -11 85 0 7 4 -9 8 -34 8 -25 1 -48 -3 -51 -8z"/>
<path d="M1945 4450 c-4 -6 6 -7 27 -3 44 8 48 13 10 13 -17 0 -34 -4 -37 -10z"/>
<path d="M2128 4453 c12 -2 32 -2 45 0 12 2 2 4 -23 4 -25 0 -35 -2 -22 -4z"/>
<path d="M2203 4454 c9 -9 88 -11 117 -3 16 5 -2 8 -49 8 -41 1 -72 -2 -68 -5z"/>
<path d="M2743 4453 c15 -2 37 -2 50 0 12 2 0 4 -28 4 -27 0 -38 -2 -22 -4z"/>
<path d="M2940 4448 c0 -10 101 -10 117 0 6 4 -18 7 -53 7 -35 0 -64 -3 -64
-7z"/>
<path d="M3098 4453 c7 -3 16 -2 19 1 4 3 -2 6 -13 5 -11 0 -14 -3 -6 -6z"/>
<path d="M3138 4453 c7 -3 16 -2 19 1 4 3 -2 6 -13 5 -11 0 -14 -3 -6 -6z"/>
<path d="M1208 4443 c7 -3 16 -2 19 1 4 3 -2 6 -13 5 -11 0 -14 -3 -6 -6z"/>
<path d="M1393 4443 c9 -2 23 -2 30 0 6 3 -1 5 -18 5 -16 0 -22 -2 -12 -5z"/>
<path d="M1748 4443 c12 -2 30 -2 40 0 9 3 -1 5 -23 4 -22 0 -30 -2 -17 -4z"/>
<path d="M2048 4443 c6 -2 18 -2 25 0 6 3 1 5 -13 5 -14 0 -19 -2 -12 -5z"/>
<path d="M2363 4443 c8 -7 77 -6 85 2 3 3 -16 5 -43 5 -27 0 -45 -3 -42 -7z"/>
<path d="M2495 4440 c-3 -5 -2 -10 4 -10 5 0 13 5 16 10 3 6 2 10 -4 10 -5 0
-13 -4 -16 -10z"/>
<path d="M2585 4440 c-48 -7 -48 -7 -10 -8 22 0 63 3 90 8 47 7 48 7 10 7 -22
0 -62 -3 -90 -7z"/>
<path d="M2798 4427 c-60 -11 -108 -24 -108 -29 0 -9 41 -4 100 12 19 6 54 10
78 10 31 0 42 4 42 15 0 8 -1 14 -2 14 -2 -1 -51 -11 -110 -22z"/>
<path d="M1663 4433 c9 -2 25 -2 35 0 9 3 1 5 -18 5 -19 0 -27 -2 -17 -5z"/>
<path d="M3518 4433 c18 -2 45 -2 60 0 15 2 0 4 -33 4 -33 0 -45 -2 -27 -4z"/>
<path d="M945 4420 c-18 -8 -17 -9 8 -9 15 -1 27 4 27 9 0 12 -8 12 -35 0z"/>
<path d="M1006 4421 c-5 -8 74 -3 83 5 2 2 -14 4 -37 4 -22 0 -43 -4 -46 -9z"/>
<path d="M1430 4426 c0 -2 11 -6 25 -8 13 -3 22 -1 19 3 -5 9 -44 13 -44 5z"/>
<path d="M1930 4420 l-25 -8 27 -1 c15 -1 30 4 33 9 7 11 0 11 -35 0z"/>
<path d="M1990 4420 c0 -5 4 -10 9 -10 5 0 17 -3 27 -7 11 -4 15 -3 11 5 -4 6
1 13 10 15 10 3 1 5 -19 6 -21 0 -38 -3 -38 -9z"/>
<path d="M2105 4420 c-4 -6 27 -10 87 -9 80 1 87 3 48 10 -64 11 -128 11 -135
-1z"/>
<path d="M2302 4419 c-9 -3 4 -9 32 -12 69 -10 126 -9 126 2 0 11 -133 19
-158 10z"/>
<path d="M3037 4424 c-3 -3 -22 -6 -41 -6 -20 0 -36 -4 -36 -9 0 -5 30 -8 68
-8 37 1 57 4 44 6 -12 2 -20 9 -17 14 7 10 -8 13 -18 3z"/>
<path d="M3092 4417 c18 -17 105 -21 105 -5 0 9 -19 14 -59 15 -46 1 -56 -1
-46 -10z"/>
<path d="M648 4413 c12 -2 30 -2 40 0 9 3 -1 5 -23 4 -22 0 -30 -2 -17 -4z"/>
<path d="M1198 4413 c6 -2 18 -2 25 0 6 3 1 5 -13 5 -14 0 -19 -2 -12 -5z"/>
<path d="M1288 4413 c6 -2 18 -2 25 0 6 3 1 5 -13 5 -14 0 -19 -2 -12 -5z"/>
<path d="M1490 4409 c0 -5 11 -9 25 -9 14 0 25 2 25 4 0 2 -11 6 -25 8 -14 3
-25 1 -25 -3z"/>
<path d="M1608 4413 c6 -2 18 -2 25 0 6 3 1 5 -13 5 -14 0 -19 -2 -12 -5z"/>
<path d="M1750 4416 c0 -2 11 -6 25 -8 14 -3 25 -1 25 3 0 5 -11 9 -25 9 -14
0 -25 -2 -25 -4z"/>
<path d="M3263 4413 c39 -3 55 -8 51 -15 -5 -7 -2 -8 5 -3 7 4 108 6 224 6
116 -1 209 0 207 2 -3 3 -126 7 -275 9 -148 3 -244 3 -212 1z"/>
<path d="M3818 4413 c6 -2 18 -2 25 0 6 3 1 5 -13 5 -14 0 -19 -2 -12 -5z"/>
<path d="M3938 4413 c7 -3 16 -2 19 1 4 3 -2 6 -13 5 -11 0 -14 -3 -6 -6z"/>
<path d="M4028 4413 c12 -2 32 -2 45 0 12 2 2 4 -23 4 -25 0 -35 -2 -22 -4z"/>
<path d="M4108 4413 c7 -3 16 -2 19 1 4 3 -2 6 -13 5 -11 0 -14 -3 -6 -6z"/>
<path d="M1340 4394 c-48 -13 -30 -18 33 -8 20 4 37 11 37 15 0 11 -13 10 -70
-7z"/>
<path d="M1845 4401 c31 -9 102 -14 94 -7 -2 2 -31 6 -64 9 -39 4 -50 3 -30
-2z"/>
<path d="M2500 4400 c36 -11 52 -11 45 0 -3 6 -21 10 -38 9 -31 -1 -31 -1 -7
-9z"/>
<path d="M2930 4399 c0 -5 5 -7 10 -4 6 3 10 8 10 11 0 2 -4 4 -10 4 -5 0 -10
-5 -10 -11z"/>
<path d="M505 4370 c19 -67 49 -140 57 -140 6 0 7 8 3 18 -4 9 -16 42 -27 72
-22 58 -46 95 -33 50z"/>
<path d="M1648 4383 c6 -2 18 -2 25 0 6 3 1 5 -13 5 -14 0 -19 -2 -12 -5z"/>
<path d="M2078 4383 c6 -2 18 -2 25 0 6 3 1 5 -13 5 -14 0 -19 -2 -12 -5z"/>
<path d="M2783 4383 c9 -2 25 -2 35 0 9 3 1 5 -18 5 -19 0 -27 -2 -17 -5z"/>
<path d="M4765 4338 c-10 -29 -26 -65 -36 -79 -10 -14 -16 -35 -13 -46 3 -11
-1 -27 -10 -36 -23 -23 -20 -33 4 -12 12 10 20 31 20 48 0 17 6 38 14 46 16
19 50 120 43 127 -3 3 -13 -19 -22 -48z"/>
<path d="M2560 4373 c14 -2 30 -10 35 -17 10 -13 85 -27 85 -16 0 8 -104 40
-126 39 -13 -1 -11 -3 6 -6z"/>
<path d="M2918 4373 c7 -3 16 -2 19 1 4 3 -2 6 -13 5 -11 0 -14 -3 -6 -6z"/>
<path d="M2105 4363 c-16 -3 -34 -9 -40 -15 -11 -11 42 -3 80 13 21 8 9 9 -40
2z"/>
<path d="M2253 4363 c9 -2 23 -2 30 0 6 3 -1 5 -18 5 -16 0 -22 -2 -12 -5z"/>
<path d="M3025 4361 c3 -5 -3 -12 -12 -14 -14 -4 -14 -5 -2 -6 8 0 24 6 35 14
18 14 18 14 -4 15 -13 0 -21 -4 -17 -9z"/>
<path d="M2550 4349 c0 -5 9 -9 20 -9 11 0 20 2 20 4 0 2 -9 6 -20 9 -11 3
-20 1 -20 -4z"/>
<path d="M2385 4341 c-5 -5 -23 -11 -40 -14 -16 -2 12 -3 64 -1 51 2 96 6 99
9 3 3 -8 5 -25 5 -17 0 -43 3 -59 6 -16 3 -33 1 -39 -5z"/>
<path d="M3113 4343 c9 -2 23 -2 30 0 6 3 -1 5 -18 5 -16 0 -22 -2 -12 -5z"/>
<path d="M3255 4339 c-20 -5 -9 -6 30 -2 33 3 62 7 64 9 8 7 -63 2 -94 -7z"/>
<path d="M1698 4333 c6 -2 18 -2 25 0 6 3 1 5 -13 5 -14 0 -19 -2 -12 -5z"/>
<path d="M3173 4333 c9 -2 25 -2 35 0 9 3 1 5 -18 5 -19 0 -27 -2 -17 -5z"/>
<path d="M486 4305 c-3 -8 -1 -15 4 -15 6 0 10 7 10 15 0 8 -2 15 -4 15 -2 0
-6 -7 -10 -15z"/>
<path d="M1969 4308 c23 -6 37 -6 44 1 8 8 -2 11 -33 10 l-45 -1 34 -10z"/>
<path d="M2813 4313 c15 -2 39 -2 55 0 15 2 2 4 -28 4 -30 0 -43 -2 -27 -4z"/>
<path d="M2998 4313 c7 -3 16 -2 19 1 4 3 -2 6 -13 5 -11 0 -14 -3 -6 -6z"/>
<path d="M1255 4270 c-19 -8 -19 -9 3 -9 12 -1 22 4 22 9 0 6 -1 10 -2 9 -2 0
-12 -4 -23 -9z"/>
<path d="M1128 4263 c6 -2 18 -2 25 0 6 3 1 5 -13 5 -14 0 -19 -2 -12 -5z"/>
<path d="M1826 4251 c-3 -4 6 -6 19 -3 14 2 25 6 25 8 0 8 -39 4 -44 -5z"/>
<path d="M1038 4243 c7 -3 16 -2 19 1 4 3 -2 6 -13 5 -11 0 -14 -3 -6 -6z"/>
<path d="M485 4229 c-11 -17 1 -21 15 -4 8 9 8 15 2 15 -6 0 -14 -5 -17 -11z"/>
<path d="M520 4229 c0 -5 5 -7 10 -4 6 3 10 8 10 11 0 2 -4 4 -10 4 -5 0 -10
-5 -10 -11z"/>
<path d="M476 4183 c-6 -14 -5 -15 5 -6 7 7 10 15 7 18 -3 3 -9 -2 -12 -12z"/>
<path d="M566 4193 c-8 -8 81 -93 97 -93 7 0 -1 12 -18 26 -16 15 -39 37 -51
50 -12 13 -24 21 -28 17z"/>
<path d="M4655 4130 c-3 -5 -1 -10 4 -10 6 0 11 5 11 10 0 6 -2 10 -4 10 -3 0
-8 -4 -11 -10z"/>
<path d="M588 4115 c22 -39 29 -47 35 -38 4 6 -5 21 -20 34 -22 20 -24 21 -15
4z"/>
<path d="M4598 4113 c-10 -2 -18 -8 -18 -13 0 -5 14 -4 30 1 45 16 36 25 -12
12z"/>
<path d="M4620 4079 c0 -5 5 -7 10 -4 6 3 10 8 10 11 0 2 -4 4 -10 4 -5 0 -10
-5 -10 -11z"/>
<path d="M450 4068 c0 -17 20 -47 20 -31 0 6 3 18 6 27 4 11 1 16 -10 16 -9 0
-16 -6 -16 -12z"/>
<path d="M644 4040 c0 -14 7 -20 22 -20 12 0 29 -10 37 -22 13 -19 16 -20 16
-6 1 21 -41 68 -61 68 -7 0 -14 -9 -14 -20z"/>
<path d="M4603 4036 c0 -14 3 -26 8 -26 11 0 11 21 0 39 -6 9 -8 5 -8 -13z"/>
<path d="M4558 4033 c-21 -24 -32 -63 -19 -63 6 0 11 8 11 17 0 9 7 25 17 35
9 10 14 20 11 23 -3 3 -12 -3 -20 -12z"/>
<path d="M437 3993 c-11 -13 -17 -26 -15 -29 7 -7 40 34 37 44 -2 6 -12 -1
-22 -15z"/>
<path d="M625 3990 c-3 -5 -1 -10 4 -10 6 0 11 5 11 10 0 6 -2 10 -4 10 -3 0
-8 -4 -11 -10z"/>
<path d="M675 3973 c8 -15 12 -30 10 -34 -3 -4 2 -12 10 -19 12 -10 15 -10 15
0 0 18 -31 80 -41 80 -4 0 -2 -12 6 -27z"/>
<path d="M4612 3980 c0 -14 2 -19 5 -12 2 6 2 18 0 25 -3 6 -5 1 -5 -13z"/>
<path d="M651 3944 c0 -11 3 -14 6 -6 3 7 2 16 -1 19 -3 4 -6 -2 -5 -13z"/>
<path d="M1940 3950 c-22 -7 -21 -8 13 -9 23 -1 36 3 32 9 -7 11 -10 11 -45 0z"/>
<path d="M4530 3950 c0 -5 -18 -28 -40 -50 -36 -37 -40 -46 -40 -90 0 -28 4
-50 8 -50 4 0 8 20 8 44 -1 37 5 49 31 74 17 17 34 28 37 25 3 -4 6 8 6 25 0
18 -2 32 -5 32 -3 0 -5 -4 -5 -10z"/>
<path d="M615 3940 c-3 -5 -1 -10 4 -10 6 0 11 5 11 10 0 6 -2 10 -4 10 -3 0
-8 -4 -11 -10z"/>
<path d="M1346 3942 c-2 -4 0 -14 5 -22 8 -12 12 -12 16 -2 2 6 11 12 19 12 8
0 14 5 14 10 0 12 -47 14 -54 2z"/>
<path d="M1451 3937 c-6 -6 -11 -18 -11 -26 0 -11 4 -10 15 5 13 16 14 16 9 2
-8 -22 12 -24 20 -2 8 21 8 21 -8 27 -7 3 -19 0 -25 -6z"/>
<path d="M1520 3940 c0 -5 5 -10 10 -10 6 0 10 5 10 10 0 6 -4 10 -10 10 -5 0
-10 -4 -10 -10z"/>
<path d="M1556 3934 c-4 -9 -4 -19 -1 -22 7 -7 55 19 55 30 0 15 -48 8 -54 -8z"/>
<path d="M1630 3942 c0 -11 105 -10 116 1 4 4 -20 7 -54 7 -34 0 -62 -4 -62
-8z"/>
<path d="M1775 3940 c-3 -5 -2 -10 4 -10 5 0 13 5 16 10 3 6 2 10 -4 10 -5 0
-13 -4 -16 -10z"/>
<path d="M1820 3942 c0 -4 18 -6 40 -4 22 2 40 6 40 8 0 2 -18 4 -40 4 -22 0
-40 -3 -40 -8z"/>
<path d="M2320 3940 c0 -5 5 -10 10 -10 6 0 10 5 10 10 0 6 -4 10 -10 10 -5 0
-10 -4 -10 -10z"/>
<path d="M2350 3941 c0 -4 38 -8 85 -7 47 0 85 4 85 8 0 5 -38 8 -85 8 -47 0
-85 -4 -85 -9z"/>
<path d="M2537 3936 c-4 -10 -1 -13 9 -9 7 3 14 9 14 14 0 14 -17 10 -23 -5z"/>
<path d="M2580 3940 c0 -5 9 -10 19 -10 11 0 23 5 26 10 4 6 -5 10 -19 10 -14
0 -26 -4 -26 -10z"/>
<path d="M2640 3942 c0 -5 14 -9 30 -10 17 0 30 4 30 9 0 5 -13 9 -30 9 -16 0
-30 -4 -30 -8z"/>
<path d="M2714 3935 c4 -11 -2 -15 -24 -15 -30 0 -41 -15 -17 -23 22 -7 44 4
56 29 9 20 8 24 -5 24 -10 0 -14 -6 -10 -15z"/>
<path d="M2755 3940 c3 -5 24 -10 46 -10 21 0 39 5 39 10 0 6 -21 10 -46 10
-27 0 -43 -4 -39 -10z"/>
<path d="M2940 3940 c0 -5 7 -10 16 -10 8 0 12 5 9 10 -3 6 -10 10 -16 10 -5
0 -9 -4 -9 -10z"/>
<path d="M2984 3938 c-3 -4 6 -8 20 -8 14 0 26 4 26 9 0 11 -39 10 -46 -1z"/>
<path d="M3096 3941 c-6 -9 64 -24 73 -16 7 8 -1 12 -36 18 -18 4 -35 3 -37
-2z"/>
<path d="M3240 3931 c31 -25 39 -26 36 -3 -2 11 -13 18 -32 20 l-29 3 25 -20z"/>
<path d="M2086 3925 c-34 -18 -50 -19 -40 -4 5 9 -7 10 -43 7 -34 -3 -70 -17
-112 -42 -34 -21 -60 -40 -57 -43 5 -5 60 23 87 44 8 7 37 16 62 19 63 9 58 0
-49 -110 -46 -48 -84 -89 -84 -93 0 -7 6 -1 125 112 58 55 103 89 125 95 19 6
42 14 50 20 25 16 -31 12 -64 -5z"/>
<path d="M2195 3931 c-53 -13 -75 -33 -75 -68 0 -39 14 -45 17 -7 0 14 6 31
12 37 14 14 105 27 109 16 2 -5 9 -9 16 -9 22 0 55 -47 49 -69 -4 -16 -1 -21
13 -21 11 0 30 -3 44 -6 22 -6 20 -1 -20 40 -79 82 -112 99 -165 87z"/>
<path d="M2306 3918 c16 -12 35 -31 42 -40 16 -22 32 -15 32 13 0 17 -4 20
-25 19 -3 0 -18 6 -35 15 -42 21 -47 19 -14 -7z"/>
<path d="M2867 3934 c-4 -4 -4 -10 -2 -14 6 -10 45 0 45 11 0 10 -33 12 -43 3z"/>
<path d="M3294 3931 c3 -4 33 -7 66 -7 34 1 64 -2 66 -6 9 -13 24 -9 24 7 0
12 -16 15 -81 15 -44 0 -78 -4 -75 -9z"/>
<path d="M3473 3928 c2 -7 0 -21 -5 -30 -7 -14 -1 -21 31 -38 44 -22 81 -27
41 -6 -14 8 -29 15 -35 16 -14 2 -27 28 -20 40 3 6 49 10 103 10 l97 -1 33
-54 c18 -30 30 -59 27 -65 -3 -5 -2 -10 4 -10 22 0 18 19 -15 74 -18 31 -34
61 -34 67 0 5 -49 9 -116 9 -88 0 -115 -3 -111 -12z"/>
<path d="M3728 3934 c-4 -3 8 -28 25 -57 27 -43 32 -47 35 -28 5 29 -4 52 -19
49 -6 -2 -14 3 -16 10 -4 9 2 11 21 6 20 -5 26 -2 26 10 0 11 -9 16 -33 16
-19 0 -36 -3 -39 -6z"/>
<path d="M3845 3930 c3 -5 8 -10 11 -10 2 0 4 5 4 10 0 6 -5 10 -11 10 -5 0
-7 -4 -4 -10z"/>
<path d="M3870 3930 c0 -5 6 -10 14 -10 8 0 18 5 21 10 3 6 -3 10 -14 10 -12
0 -21 -4 -21 -10z"/>
<path d="M4613 3890 c0 -30 2 -43 4 -27 2 15 2 39 0 55 -2 15 -4 2 -4 -28z"/>
<path d="M724 3904 c-2 -18 2 -24 12 -20 8 3 14 -1 14 -9 0 -8 5 -15 10 -15
18 0 11 26 -12 48 l-23 21 -1 -25z"/>
<path d="M1881 3921 c-7 -5 -22 -6 -32 -4 -10 3 -19 0 -19 -6 0 -11 55 -9 67
3 11 10 -2 15 -16 7z"/>
<path d="M3196 3916 c3 -9 16 -16 28 -15 14 0 16 2 6 6 -8 3 -21 10 -28 16 -9
7 -11 6 -6 -7z"/>
<path d="M415 3909 c-11 -17 1 -21 15 -4 8 9 8 15 2 15 -6 0 -14 -5 -17 -11z"/>
<path d="M1500 3900 c-12 -12 -19 -25 -15 -28 3 -4 9 -2 13 4 4 6 15 15 26 21
12 7 15 13 8 17 -6 4 -21 -3 -32 -14z"/>
<path d="M1675 3913 c-71 -9 -110 -43 -49 -43 15 0 24 6 24 15 0 8 4 15 10 15
5 0 7 -7 4 -15 -9 -23 8 -18 35 10 13 14 19 24 15 24 -5 -1 -22 -4 -39 -6z"/>
<path d="M1763 3899 c-18 -12 -33 -22 -33 -23 0 -5 82 3 88 8 3 4 -1 13 -9 21
-12 12 -18 12 -46 -6z m37 1 c0 -5 -5 -10 -11 -10 -5 0 -7 5 -4 10 3 6 8 10
11 10 2 0 4 -4 4 -10z"/>
<path d="M2417 3905 c12 -8 29 -12 39 -8 12 4 15 3 10 -5 -4 -7 0 -15 11 -19
10 -4 23 -13 29 -22 10 -13 15 -12 39 7 20 16 23 22 11 22 -9 0 -19 -7 -22
-15 -4 -8 -10 -12 -16 -9 -14 9 29 45 49 42 9 -2 18 3 20 10 3 7 -3 12 -14 12
-11 0 -25 -6 -32 -12 -11 -10 -14 -10 -18 0 -3 8 -26 12 -66 12 -57 0 -60 -1
-40 -15z"/>
<path d="M2777 3913 c-26 -7 -10 -23 23 -23 33 0 48 15 24 24 -17 6 -19 6 -47
-1z"/>
<path d="M2956 3911 c-11 -4 -15 -10 -9 -14 5 -3 19 0 29 8 20 15 11 18 -20 6z"/>
<path d="M3827 3913 c-14 -14 -6 -45 19 -71 l26 -27 -7 35 c-9 40 -29 73 -38
63z"/>
<path d="M610 3906 c0 -2 7 -9 15 -16 13 -11 14 -10 9 4 -5 14 -24 23 -24 12z"/>
<path d="M663 3890 c0 -14 9 -31 19 -38 10 -7 18 -23 18 -34 0 -12 3 -19 6
-15 10 9 -5 60 -26 87 l-19 25 2 -25z"/>
<path d="M2608 3896 c-17 -12 -17 -14 0 -30 18 -15 20 -15 34 1 14 15 14 20 2
31 -16 15 -15 15 -36 -2z"/>
<path d="M2880 3900 c0 -5 6 -10 14 -10 8 0 18 5 21 10 3 6 -3 10 -14 10 -12
0 -21 -4 -21 -10z"/>
<path d="M3030 3900 c-22 -14 -7 -21 26 -11 21 6 33 4 42 -5 11 -12 8 -14 -18
-14 -18 0 -29 -4 -25 -10 8 -12 35 -13 55 0 12 7 12 12 -4 29 -20 22 -51 27
-76 11z"/>
<path d="M3125 3900 c3 -5 10 -10 16 -10 5 0 9 5 9 10 0 6 -7 10 -16 10 -8 0
-12 -4 -9 -10z"/>
<path d="M3342 3898 c3 -7 18 -14 34 -15 l29 -2 -25 14 c-31 18 -43 19 -38 3z"/>
<path d="M3885 3901 c-7 -13 29 -76 44 -76 17 0 23 32 11 56 -10 18 -47 32
-55 20z m45 -36 c0 -14 -4 -25 -10 -25 -5 0 -10 11 -10 25 0 14 5 25 10 25 6
0 10 -11 10 -25z"/>
<path d="M4861 3894 c0 -11 3 -14 6 -6 3 7 2 16 -1 19 -3 4 -6 -2 -5 -13z"/>
<path d="M2721 3888 l-25 -9 33 -20 c39 -24 47 -20 29 14 -11 21 -17 23 -37
15z"/>
<path d="M1313 3883 c-7 -3 -13 -12 -13 -21 0 -15 2 -15 17 1 18 18 16 27 -4
20z"/>
<path d="M1340 3875 c-21 -25 -1 -31 23 -7 17 18 18 22 5 22 -8 0 -21 -7 -28
-15z"/>
<path d="M1403 3864 c-25 -27 -28 -34 -14 -34 11 0 61 44 61 54 0 14 -26 3
-47 -20z"/>
<path d="M2391 3868 c-6 -17 -2 -28 18 -48 14 -14 29 -22 32 -17 3 5 8 8 10 7
2 -1 17 2 32 5 33 9 29 15 -36 49 l-48 26 -8 -22z m72 -28 c5 -4 -7 -6 -25 -5
-41 3 -40 3 -33 15 7 11 43 4 58 -10z"/>
<path d="M2840 3875 c0 -8 5 -15 11 -15 5 0 7 -4 4 -10 -9 -15 -25 -12 -25 5
0 20 -16 19 -24 -1 -9 -23 -8 -24 23 -24 30 0 50 28 36 50 -9 15 -25 12 -25
-5z"/>
<path d="M3259 3882 c11 -8 10 -11 -5 -15 -18 -4 -18 -5 1 -6 11 0 27 4 35 9
9 6 10 10 3 10 -6 0 -20 3 -30 6 -14 5 -15 4 -4 -4z"/>
<path d="M1522 3867 c-6 -7 -7 -19 -3 -26 6 -9 10 -6 14 10 8 28 3 34 -11 16z"/>
<path d="M2002 3804 c-46 -42 -81 -79 -78 -82 6 -5 86 64 81 70 -1 2 17 18 41
36 24 18 41 25 38 17 -4 -8 -1 -15 5 -15 6 0 11 11 11 25 0 14 -3 25 -8 25 -4
0 -45 -34 -90 -76z"/>
<path d="M2890 3870 c-8 -5 -11 -12 -7 -16 4 -4 13 -2 19 4 15 15 7 24 -12 12z"/>
<path d="M2938 3852 c-26 -14 -45 -28 -43 -31 10 -9 39 -10 50 -2 5 5 29 12
53 16 23 4 39 11 36 16 -3 6 -14 7 -24 4 -11 -4 -20 0 -22 8 -2 12 -13 9 -50
-11z m42 -2 c0 -5 -4 -10 -9 -10 -5 0 -18 -3 -28 -6 -16 -6 -16 -5 2 9 23 19
35 21 35 7z"/>
<path d="M3163 3873 c11 -10 57 -13 57 -2 0 5 -14 9 -32 9 -17 0 -28 -3 -25
-7z"/>
<path d="M2250 3860 c0 -5 5 -10 11 -10 5 0 7 5 4 10 -3 6 -8 10 -11 10 -2 0
-4 -4 -4 -10z"/>
<path d="M2660 3855 c-10 -12 -9 -16 4 -21 10 -4 13 -11 8 -18 -16 -21 -23
-48 -10 -44 6 2 13 13 15 24 6 32 8 39 16 50 14 24 -14 32 -33 9z"/>
<path d="M2780 3860 c0 -5 5 -10 10 -10 6 0 10 5 10 10 0 6 -4 10 -10 10 -5 0
-10 -4 -10 -10z"/>
<path d="M3402 3861 c-10 -6 -7 -10 12 -13 30 -6 45 7 20 16 -19 7 -16 8 -32
-3z"/>
<path d="M775 3850 c-3 -5 -3 -15 1 -21 6 -11 23 6 24 24 0 10 -18 9 -25 -3z"/>
<path d="M1565 3837 c-14 -20 -13 -22 2 -28 12 -4 13 -8 5 -13 -7 -4 -16 -5
-20 -2 -4 2 -12 2 -17 -2 -15 -11 -46 -82 -36 -82 5 0 32 26 60 57 45 50 49
59 34 65 -13 6 -11 7 7 4 14 -3 32 -1 40 4 8 5 13 10 10 10 -53 9 -72 6 -85
-13z"/>
<path d="M1631 3794 c-39 -36 -71 -72 -71 -81 0 -8 -4 -12 -9 -8 -5 3 -15 -1
-23 -8 -7 -7 -26 -20 -41 -30 -15 -10 -25 -22 -21 -28 8 -13 -15 -39 -35 -39
-13 1 -13 3 3 15 11 8 17 17 14 20 -3 3 -17 -6 -32 -20 -15 -14 -32 -25 -38
-25 -6 0 -9 -3 -5 -6 3 -4 -3 -29 -13 -57 -11 -28 -18 -52 -16 -54 8 -8 37 11
47 30 10 17 9 19 -5 14 -18 -7 -22 8 -6 18 6 4 9 14 8 23 -2 11 9 19 33 26 45
13 82 45 74 63 -2 8 0 11 5 8 5 -3 37 23 71 57 34 35 67 64 73 64 6 1 17 2 24
3 31 3 73 81 43 81 -5 0 -41 -30 -80 -66z m58 10 c-17 -21 -31 -17 -19 6 6 11
15 18 21 14 6 -4 6 -11 -2 -20z"/>
<path d="M1740 3836 c0 -29 -40 -76 -65 -76 -8 0 -15 -4 -15 -9 0 -6 11 -6 29
0 31 11 61 47 61 75 0 12 6 15 25 12 14 -3 28 -1 31 3 3 5 -4 9 -15 9 -10 0
-26 3 -35 6 -12 5 -16 0 -16 -20z"/>
<path d="M2205 3850 c3 -5 11 -10 16 -10 6 0 7 5 4 10 -3 6 -11 10 -16 10 -6
0 -7 -4 -4 -10z"/>
<path d="M2541 3834 c-12 -15 -21 -33 -21 -42 0 -11 -3 -12 -14 -3 -16 13 -46
4 -46 -14 0 -19 27 -26 34 -9 3 8 9 13 13 12 22 -6 51 14 48 32 -2 11 0 22 6
25 5 4 9 1 9 -5 0 -7 8 -9 21 -5 16 5 20 3 17 -6 -6 -15 8 -49 20 -49 4 0 8 9
8 20 0 11 -5 20 -11 20 -5 0 -4 4 4 9 10 6 5 13 -19 25 -43 21 -45 21 -69 -10z"/>
<path d="M3330 3846 c0 -8 7 -17 16 -20 23 -9 54 -7 54 3 0 5 -9 7 -20 4 -14
-4 -20 0 -20 11 0 9 -7 16 -15 16 -8 0 -15 -6 -15 -14z"/>
<path d="M446 3835 c-9 -26 -7 -32 5 -12 6 10 9 21 6 23 -2 3 -7 -2 -11 -11z"/>
<path d="M1470 3835 c0 -9 -4 -13 -10 -10 -5 3 -10 -1 -10 -9 0 -9 -4 -16 -10
-16 -5 0 -10 5 -10 10 0 6 -4 10 -8 10 -5 0 -9 -13 -9 -29 l0 -30 44 31 c42
28 50 47 25 56 -7 2 -12 -4 -12 -13z"/>
<path d="M3193 3836 c2 -6 19 -12 37 -13 18 -1 36 -7 41 -14 6 -10 13 -10 31
-2 l23 12 -27 0 c-15 1 -29 5 -32 10 -8 13 -77 19 -73 7z"/>
<path d="M3463 3833 c0 -12 64 -40 72 -31 2 2 -13 13 -34 24 -27 15 -38 17
-38 7z"/>
<path d="M3812 3833 c4 -13 -2 -27 -13 -37 -33 -28 -23 -58 47 -133 28 -30 31
-29 30 7 -1 31 -11 40 -19 18 -3 -9 -10 -6 -21 9 -9 12 -23 29 -32 37 -19 20
-19 18 -5 44 12 22 51 31 51 12 0 -5 5 -10 10 -10 18 0 11 18 -10 25 -11 3
-20 13 -20 20 0 8 -5 17 -12 21 -7 5 -9 1 -6 -13z"/>
<path d="M4772 3825 c0 -16 2 -22 5 -12 2 9 2 23 0 30 -3 6 -5 -1 -5 -18z"/>
<path d="M730 3830 c0 -5 7 -10 16 -10 8 0 12 5 9 10 -3 6 -10 10 -16 10 -5 0
-9 -4 -9 -10z"/>
<path d="M1340 3830 c0 -5 5 -10 10 -10 6 0 10 5 10 10 0 6 -4 10 -10 10 -5 0
-10 -4 -10 -10z"/>
<path d="M2706 3832 c-3 -6 7 -12 22 -15 25 -5 41 -2 31 7 -12 10 -48 16 -53
8z"/>
<path d="M4516 3823 c-6 -14 -5 -15 5 -6 7 7 10 15 7 18 -3 3 -9 -2 -12 -12z"/>
<path d="M588 3813 c-28 -33 -31 -48 -3 -20 15 16 25 30 23 33 -3 2 -12 -4
-20 -13z"/>
<path d="M640 3819 c0 -5 5 -7 10 -4 6 3 10 8 10 11 0 2 -4 4 -10 4 -5 0 -10
-5 -10 -11z"/>
<path d="M2277 3815 c6 -11 8 -27 6 -35 -2 -9 1 -7 8 4 9 14 8 21 -6 35 -16
15 -17 15 -8 -4z"/>
<path d="M3100 3820 c20 -13 70 -13 70 0 0 6 -19 10 -42 10 -32 0 -39 -3 -28
-10z"/>
<path d="M3560 3821 c0 -15 103 -88 165 -117 33 -15 64 -30 70 -33 5 -2 -3 10
-18 28 -15 18 -27 44 -27 57 0 14 -4 22 -10 19 -11 -7 -9 -33 3 -52 6 -9 3
-11 -10 -6 -10 4 -20 9 -23 12 -3 4 -22 15 -42 26 -21 11 -38 23 -38 27 0 5
-6 8 -13 8 -7 0 -18 9 -25 20 -12 20 -32 27 -32 11z"/>
<path d="M2780 3806 c0 -8 -8 -17 -17 -20 -13 -5 -14 -9 -5 -14 8 -6 7 -12 -7
-24 -29 -25 -45 -6 -21 25 12 15 16 28 10 32 -5 3 -10 0 -10 -7 0 -22 -38 -48
-71 -48 -19 0 -28 -4 -23 -11 4 -7 21 -9 41 -6 24 4 33 2 30 -6 -2 -7 -19 -12
-38 -11 -25 1 -39 -5 -52 -23 -16 -20 -16 -23 -2 -23 32 0 254 125 242 136 -7
7 -37 -7 -37 -17 0 -5 -7 -9 -16 -9 -13 0 -14 3 -5 13 6 8 8 17 4 20 -11 12
-23 8 -23 -7z"/>
<path d="M2995 3813 c-36 -9 -36 -19 0 -19 19 0 37 6 39 13 5 13 -3 14 -39 6z"/>
<path d="M3052 3795 c-7 -15 -8 -25 -2 -25 13 0 32 38 21 44 -4 3 -13 -6 -19
-19z"/>
<path d="M3410 3811 c0 -5 9 -11 21 -14 16 -4 18 -3 8 9 -13 16 -29 19 -29 5z"/>
<path d="M764 3788 c9 -12 16 -41 16 -65 0 -23 5 -45 11 -49 8 -5 9 8 5 42 -3
27 -6 57 -6 67 -1 9 -5 15 -11 12 -5 -4 -9 -1 -9 4 0 6 -5 11 -11 11 -5 0 -3
-10 5 -22z"/>
<path d="M1360 3803 c-17 -6 -40 -32 -40 -45 0 -12 54 -10 67 3 6 6 8 19 6 30
-6 20 -8 21 -33 12z m10 -33 c0 -5 -2 -10 -4 -10 -3 0 -8 5 -11 10 -3 6 -1 10
4 10 6 0 11 -4 11 -10z"/>
<path d="M2081 3763 c1 -39 2 -43 9 -23 12 36 12 70 0 70 -5 0 -10 -21 -9 -47z"/>
<path d="M2126 3793 c-3 -10 -7 -36 -10 -58 l-6 -40 14 46 c7 26 16 52 20 58
4 6 3 11 -3 11 -5 0 -12 -8 -15 -17z"/>
<path d="M2700 3800 c-9 -6 -10 -10 -3 -10 6 0 15 5 18 10 8 12 4 12 -15 0z"/>
<path d="M3230 3800 c19 -13 30 -13 30 0 0 6 -10 10 -22 10 -19 0 -20 -2 -8
-10z"/>
<path d="M1277 3793 c-10 -9 -9 -23 1 -23 5 0 17 7 28 15 19 14 19 14 -2 15
-11 0 -24 -3 -27 -7z"/>
<path d="M2570 3792 c0 -7 5 -12 10 -12 6 0 10 -7 10 -15 0 -8 5 -15 10 -15
16 0 12 15 -10 35 -11 10 -20 13 -20 7z"/>
<path d="M2863 3787 c-4 -7 -29 -26 -55 -42 -27 -17 -48 -34 -48 -39 0 -6 5
-5 12 2 7 7 20 12 30 12 9 0 22 9 28 20 6 11 15 20 21 20 11 0 39 25 39 34 0
11 -19 6 -27 -7z"/>
<path d="M2920 3790 c-12 -8 -11 -10 8 -10 12 0 22 5 22 10 0 13 -11 13 -30 0z"/>
<path d="M3157 3791 c-27 -6 -27 -6 -7 -19 13 -8 20 -8 20 -1 0 5 5 7 10 4 6
-3 10 1 10 9 0 9 -1 15 -2 15 -2 -1 -16 -4 -31 -8z"/>
<path d="M3337 3785 c12 -8 28 -12 37 -9 10 4 16 1 16 -7 0 -10 3 -10 12 -1
16 16 7 22 -43 27 -40 4 -42 4 -22 -10z"/>
<path d="M2343 3778 c32 -9 37 -13 32 -32 -6 -19 -5 -19 14 4 11 14 18 27 15
29 -2 3 -26 6 -52 7 l-47 3 38 -11z"/>
<path d="M3090 3780 c0 -5 5 -10 10 -10 6 0 10 5 10 10 0 6 -4 10 -10 10 -5 0
-10 -4 -10 -10z"/>
<path d="M3490 3779 c0 -5 9 -9 20 -9 11 0 19 -5 18 -12 -3 -10 80 -31 90 -23
1 1 -10 10 -25 20 -18 12 -28 14 -31 7 -2 -7 -8 -12 -13 -12 -6 0 -8 4 -5 9 3
5 -8 14 -24 20 -18 6 -30 6 -30 0z"/>
<path d="M3930 3780 c0 -5 5 -10 10 -10 6 0 10 5 10 10 0 6 -4 10 -10 10 -5 0
-10 -4 -10 -10z"/>
<path d="M4782 3770 c0 -14 2 -19 5 -12 2 6 2 18 0 25 -3 6 -5 1 -5 -13z"/>
<path d="M1464 3762 c-12 -10 -38 -30 -58 -46 -39 -31 -42 -45 -6 -26 18 10
21 9 18 -2 -3 -7 -19 -14 -36 -16 -18 -2 -32 -7 -32 -12 0 -5 -3 -16 -7 -26
-9 -23 13 -15 72 28 44 33 59 56 29 44 -10 -4 -14 -1 -12 6 3 7 14 14 26 16
11 2 24 12 27 23 9 28 4 30 -21 11z"/>
<path d="M2413 3755 c-12 -26 -7 -31 17 -15 18 11 40 -5 40 -31 0 -11 7 -19
16 -19 15 0 15 2 -1 26 -21 33 -48 64 -55 64 -3 0 -10 -11 -17 -25z"/>
<path d="M3247 3773 c-9 -2 -15 -8 -13 -12 7 -10 66 -1 66 10 0 9 -22 10 -53
2z"/>
<path d="M3429 3771 c7 -5 10 -14 7 -20 -4 -6 -3 -11 3 -11 5 0 13 5 17 11 7
11 -12 29 -31 29 -5 0 -4 -4 4 -9z"/>
<path d="M3880 3762 c0 -4 5 -13 12 -20 9 -9 9 -12 -1 -12 -7 0 -9 -4 -6 -10
4 -6 13 -5 25 2 18 12 18 12 -2 30 -23 20 -28 22 -28 10z"/>
<path d="M2506 3747 c-16 -12 -14 -16 23 -50 l40 -37 27 35 c27 36 27 52 0 42
-9 -4 -12 -14 -9 -27 5 -19 2 -21 -23 -18 -16 2 -29 8 -29 13 0 6 -4 16 -8 23
-5 6 -5 17 -2 22 8 13 2 13 -19 -3z"/>
<path d="M3120 3750 c0 -5 5 -10 10 -10 6 0 10 5 10 10 0 6 -4 10 -10 10 -5 0
-10 -4 -10 -10z"/>
<path d="M3325 3750 c-3 -5 1 -10 10 -10 9 0 13 5 10 10 -3 6 -8 10 -10 10 -2
0 -7 -4 -10 -10z"/>
<path d="M576 3733 c-6 -14 -5 -15 5 -6 7 7 10 15 7 18 -3 3 -9 -2 -12 -12z"/>
<path d="M747 3730 c3 -11 9 -20 13 -20 5 0 6 9 3 20 -3 11 -9 20 -13 20 -5 0
-6 -9 -3 -20z"/>
<path d="M3010 3734 c0 -8 5 -12 10 -9 6 3 10 10 10 16 0 5 -4 9 -10 9 -5 0
-10 -7 -10 -16z"/>
<path d="M3046 3735 c-3 -8 -1 -15 4 -15 6 0 10 7 10 15 0 8 -2 15 -4 15 -2 0
-6 -7 -10 -15z"/>
<path d="M3080 3740 c0 -5 5 -10 11 -10 5 0 7 5 4 10 -3 6 -8 10 -11 10 -2 0
-4 -4 -4 -10z"/>
<path d="M3200 3740 c0 -5 5 -10 10 -10 6 0 10 5 10 10 0 6 -4 10 -10 10 -5 0
-10 -4 -10 -10z"/>
<path d="M3295 3740 c3 -5 8 -10 11 -10 2 0 4 5 4 10 0 6 -5 10 -11 10 -5 0
-7 -4 -4 -10z"/>
<path d="M1270 3713 l1 -28 13 25 14 24 4 -24 c4 -22 5 -23 13 -6 5 12 3 21
-6 27 -26 16 -39 10 -39 -18z"/>
<path d="M1330 3730 c0 -5 4 -10 9 -10 6 0 13 5 16 10 3 6 -1 10 -9 10 -9 0
-16 -4 -16 -10z"/>
<path d="M2287 3734 c-4 -4 -7 -14 -7 -23 0 -11 3 -12 11 -4 6 6 10 16 7 23
-2 6 -7 8 -11 4z"/>
<path d="M3370 3731 c0 -5 9 -7 20 -4 11 3 20 7 20 9 0 2 -9 4 -20 4 -11 0
-20 -4 -20 -9z"/>
<path d="M4453 3695 c4 -26 7 -88 7 -137 0 -49 4 -87 8 -84 14 8 6 260 -9 265
-9 3 -10 -8 -6 -44z"/>
<path d="M2326 3713 c-4 -9 -4 -18 -1 -21 3 -3 5 0 5 6 0 6 8 12 18 14 15 3
16 4 0 10 -10 4 -19 1 -22 -9z"/>
<path d="M3200 3711 c0 -6 5 -13 10 -16 6 -3 10 1 10 9 0 9 -4 16 -10 16 -5 0
-10 -4 -10 -9z"/>
<path d="M3280 3716 c0 -2 7 -9 15 -16 13 -11 14 -10 9 4 -5 14 -24 23 -24 12z"/>
<path d="M3334 3703 c4 -9 1 -20 -6 -25 -10 -6 -8 -8 5 -8 9 0 17 -4 17 -10 0
-5 5 -10 11 -10 8 0 8 4 0 14 -6 8 -11 18 -10 22 3 20 -2 34 -12 34 -6 0 -8
-7 -5 -17z"/>
<path d="M3520 3716 c0 -2 9 -6 20 -9 11 -3 20 -1 20 4 0 5 -9 9 -20 9 -11 0
-20 -2 -20 -4z"/>
<path d="M3570 3709 c0 -5 12 -9 26 -9 39 0 205 -69 226 -94 20 -24 24 -10 5
15 -27 35 -257 114 -257 88z"/>
<path d="M2711 3691 l-34 -18 31 1 c20 1 32 7 36 19 2 9 3 17 3 17 -1 -1 -17
-9 -36 -19z"/>
<path d="M2960 3699 c0 -5 5 -7 10 -4 6 3 10 8 10 11 0 2 -4 4 -10 4 -5 0 -10
-5 -10 -11z"/>
<path d="M3070 3699 c0 -5 5 -7 10 -4 6 3 10 8 10 11 0 2 -4 4 -10 4 -5 0 -10
-5 -10 -11z"/>
<path d="M3240 3706 c0 -2 7 -7 16 -10 8 -3 12 -2 9 4 -6 10 -25 14 -25 6z"/>
<path d="M3925 3700 c3 -5 10 -10 16 -10 5 0 9 5 9 10 0 6 -7 10 -16 10 -8 0
-12 -4 -9 -10z"/>
<path d="M2355 3690 c-3 -5 -1 -10 4 -10 6 0 11 5 11 10 0 6 -2 10 -4 10 -3 0
-8 -4 -11 -10z"/>
<path d="M3030 3689 c0 -5 5 -7 10 -4 6 3 10 8 10 11 0 2 -4 4 -10 4 -5 0 -10
-5 -10 -11z"/>
<path d="M3376 3685 c4 -8 8 -15 10 -15 2 0 4 7 4 15 0 8 -4 15 -10 15 -5 0
-7 -7 -4 -15z"/>
<path d="M3982 3680 c0 -14 2 -19 5 -12 2 6 2 18 0 25 -3 6 -5 1 -5 -13z"/>
<path d="M750 3671 c0 -11 4 -21 9 -23 14 -5 25 -58 12 -58 -6 0 -11 8 -12 18
0 9 -3 12 -5 5 -6 -15 13 -53 26 -53 15 0 12 68 -5 100 -18 35 -25 38 -25 11z"/>
<path d="M2070 3679 c0 -5 5 -7 10 -4 6 3 10 8 10 11 0 2 -4 4 -10 4 -5 0 -10
-5 -10 -11z"/>
<path d="M2265 3680 c-3 -5 -1 -10 4 -10 6 0 11 5 11 10 0 6 -2 10 -4 10 -3 0
-8 -4 -11 -10z"/>
<path d="M2514 3657 c1 -30 3 -33 19 -23 22 14 21 19 -2 40 -18 16 -18 15 -17
-17z"/>
<path d="M2995 3680 c-3 -5 -1 -10 4 -10 6 0 11 5 11 10 0 6 -2 10 -4 10 -3 0
-8 -4 -11 -10z"/>
<path d="M130 3669 c0 -5 5 -7 10 -4 6 3 10 8 10 11 0 2 -4 4 -10 4 -5 0 -10
-5 -10 -11z"/>
<path d="M2960 3670 c0 -5 5 -10 11 -10 5 0 7 5 4 10 -3 6 -8 10 -11 10 -2 0
-4 -4 -4 -10z"/>
<path d="M3416 3665 c4 -8 8 -15 10 -15 2 0 4 7 4 15 0 8 -4 15 -10 15 -5 0
-7 -7 -4 -15z"/>
<path d="M3896 3666 c3 -8 13 -12 25 -9 16 5 18 8 7 14 -20 13 -38 11 -32 -5z"/>
<path d="M1300 3658 c0 -17 20 -47 20 -31 0 6 3 18 6 27 4 11 1 16 -10 16 -9
0 -16 -6 -16 -12z"/>
<path d="M2630 3657 c-18 -9 -25 -21 -27 -42 l-1 -30 14 32 c9 21 19 30 28 27
7 -3 16 2 19 10 7 18 2 19 -33 3z"/>
<path d="M696 3638 c-3 -13 -6 -36 -6 -52 0 -23 3 -26 13 -17 8 6 17 8 20 4 4
-3 7 -1 7 5 0 7 -7 12 -16 12 -13 0 -15 7 -10 35 8 39 2 48 -8 13z"/>
<path d="M2280 3649 c0 -5 5 -7 10 -4 6 3 10 8 10 11 0 2 -4 4 -10 4 -5 0 -10
-5 -10 -11z"/>
<path d="M3310 3653 c0 -18 18 -35 33 -31 12 2 10 7 -9 21 -13 10 -24 14 -24
10z"/>
<path d="M3385 3650 c3 -5 8 -10 11 -10 2 0 4 5 4 10 0 6 -5 10 -11 10 -5 0
-7 -4 -4 -10z"/>
<path d="M2567 3644 c-8 -8 3 -34 14 -34 5 0 9 9 9 20 0 19 -11 26 -23 14z"/>
<path d="M1270 3625 c0 -8 7 -15 15 -15 8 0 15 4 15 9 0 5 -7 11 -15 15 -9 3
-15 0 -15 -9z"/>
<path d="M3895 3629 c-3 -3 7 -17 20 -29 l25 -23 0 29 c0 23 -4 30 -21 30 -11
0 -22 -3 -24 -7z"/>
<path d="M1515 3620 c-3 -5 -1 -10 4 -10 6 0 11 5 11 10 0 6 -2 10 -4 10 -3 0
-8 -4 -11 -10z"/>
<path d="M2540 3610 c-13 -8 -12 -10 3 -10 9 0 17 5 17 10 0 12 -1 12 -20 0z"/>
<path d="M3388 3613 c7 -3 16 -2 19 1 4 3 -2 6 -13 5 -11 0 -14 -3 -6 -6z"/>
<path d="M1462 3573 c-26 -33 -29 -51 -4 -25 31 32 45 52 35 52 -5 0 -19 -12
-31 -27z"/>
<path d="M2455 3589 c-4 -6 -5 -12 -2 -15 2 -3 7 2 10 11 7 17 1 20 -8 4z"/>
<path d="M3991 3584 c0 -11 3 -14 6 -6 3 7 2 16 -1 19 -3 4 -6 -2 -5 -13z"/>
<path d="M4560 3589 c0 -5 5 -7 10 -4 6 3 10 8 10 11 0 2 -4 4 -10 4 -5 0 -10
-5 -10 -11z"/>
<path d="M3850 3583 c1 -11 80 -65 80 -54 0 9 -64 61 -74 61 -3 0 -6 -3 -6 -7z"/>
<path d="M1324 3572 c-13 -9 -26 -92 -14 -92 13 0 20 15 22 44 1 14 6 26 10
26 4 0 8 7 8 15 0 16 -9 19 -26 7z"/>
<path d="M1276 3563 c-9 -10 -7 -73 3 -73 5 0 11 16 13 36 4 34 -3 50 -16 37z"/>
<path d="M1405 3559 c-11 -17 1 -21 15 -4 8 9 8 15 2 15 -6 0 -14 -5 -17 -11z"/>
<path d="M3225 3560 c4 -6 11 -8 16 -5 14 9 11 15 -7 15 -8 0 -12 -5 -9 -10z"/>
<path d="M4535 3549 c-11 -17 1 -21 15 -4 8 9 8 15 2 15 -6 0 -14 -5 -17 -11z"/>
<path d="M722 3538 c-7 -7 -12 -19 -11 -27 0 -12 2 -13 6 -2 5 11 7 11 14 0 6
-10 9 -6 9 14 0 31 -1 32 -18 15z"/>
<path d="M2890 3525 c7 -9 15 -13 17 -11 7 7 -7 26 -19 26 -6 0 -6 -6 2 -15z"/>
<path d="M4500 3528 c0 -9 5 -20 10 -23 13 -8 13 5 0 25 -8 13 -10 13 -10 -2z"/>
<path d="M760 3516 c0 -8 5 -18 10 -21 6 -3 10 3 10 14 0 12 -4 21 -10 21 -5
0 -10 -6 -10 -14z"/>
<path d="M3231 3514 c0 -11 3 -14 6 -6 3 7 2 16 -1 19 -3 4 -6 -2 -5 -13z"/>
<path d="M2850 3516 c0 -2 7 -9 15 -16 13 -11 14 -10 9 4 -5 14 -24 23 -24 12z"/>
<path d="M3890 3504 l35 -14 -42 3 c-54 3 -42 -9 15 -16 30 -4 42 -1 42 7 0
15 -43 36 -68 35 -9 0 -1 -7 18 -15z"/>
<path d="M1410 3495 c-8 -9 -8 -15 -2 -15 12 0 26 19 19 26 -2 2 -10 -2 -17
-11z"/>
<path d="M1515 3500 c-3 -5 -1 -10 4 -10 6 0 11 5 11 10 0 6 -2 10 -4 10 -3 0
-8 -4 -11 -10z"/>
<path d="M3800 3500 c-12 -8 -10 -10 8 -10 13 0 20 4 17 10 -7 12 -6 12 -25 0z"/>
<path d="M4547 3493 c-4 -3 -7 -11 -7 -17 0 -6 5 -5 12 2 6 6 9 14 7 17 -3 3
-9 2 -12 -2z"/>
<path d="M4591 3474 c0 -11 3 -14 6 -6 3 7 2 16 -1 19 -3 4 -6 -2 -5 -13z"/>
<path d="M4630 3480 c0 -5 5 -10 11 -10 5 0 7 5 4 10 -3 6 -8 10 -11 10 -2 0
-4 -4 -4 -10z"/>
<path d="M4483 3454 c-25 -27 -29 -44 -13 -44 6 0 10 5 10 11 0 15 26 39 34
31 4 -3 4 1 0 11 -8 21 -5 22 -31 -9z"/>
<path d="M710 3455 c0 -11 5 -27 10 -35 8 -12 10 -12 10 5 0 11 -5 27 -10 35
-8 12 -10 12 -10 -5z"/>
<path d="M751 3454 c0 -11 3 -14 6 -6 3 7 2 16 -1 19 -3 4 -6 -2 -5 -13z"/>
<path d="M1271 3383 c0 -88 15 -92 17 -6 1 23 2 46 3 50 4 21 -2 43 -11 43 -6
0 -10 -35 -9 -87z"/>
<path d="M2901 3458 c0 -7 7 -29 15 -48 l14 -35 -5 34 c-3 18 -5 40 -5 47 0 8
-4 14 -10 14 -5 0 -10 -6 -9 -12z"/>
<path d="M3789 3463 c17 -7 141 -135 141 -145 0 -5 4 -8 9 -8 15 0 7 73 -8 78
-9 3 -11 -2 -6 -17 3 -11 2 -21 -3 -21 -5 0 -12 9 -15 20 -3 11 -12 20 -21 20
-9 0 -16 4 -16 10 0 17 -59 70 -77 69 -13 0 -14 -2 -4 -6z"/>
<path d="M3850 3461 c0 -6 11 -11 25 -11 14 0 34 -9 45 -20 25 -25 29 -25 23
-1 -3 11 -17 22 -31 26 -15 3 -35 8 -44 11 -10 3 -18 1 -18 -5z"/>
<path d="M1360 3450 c-12 -8 -11 -10 8 -10 12 0 22 5 22 10 0 13 -11 13 -30 0z"/>
<path d="M1420 3446 c0 -8 -6 -16 -12 -19 -7 -2 -10 -7 -7 -11 3 -3 14 2 23
13 11 12 14 21 7 26 -6 3 -11 0 -11 -9z"/>
<path d="M1469 3443 c-13 -16 -12 -17 4 -4 9 7 17 15 17 17 0 8 -8 3 -21 -13z"/>
<path d="M1326 3428 c-14 -48 -28 -190 -19 -199 7 -7 13 -6 20 3 10 13 53 124
53 136 0 19 -39 -55 -45 -84 -3 -18 -11 -36 -17 -40 -8 -5 -8 2 -3 22 5 16 8
41 7 57 -1 18 4 27 13 27 8 0 15 5 15 10 0 6 -4 10 -8 10 -4 0 -9 11 -10 26
-1 14 2 23 8 19 6 -3 10 -2 10 4 0 16 -20 24 -24 9z"/>
<path d="M4572 3419 c-19 -30 -8 -34 12 -4 9 14 13 25 9 25 -5 0 -14 -9 -21
-21z"/>
<path d="M764 3408 c3 -13 6 -29 6 -36 0 -7 4 -11 8 -8 12 7 2 66 -10 66 -6 0
-8 -10 -4 -22z"/>
<path d="M4485 3405 c-23 -24 -24 -32 -7 -62 8 -15 9 -23 2 -23 -5 0 -10 -9
-10 -21 0 -27 16 -16 24 17 5 17 3 30 -5 34 -9 6 -7 16 5 41 19 39 18 42 -9
14z"/>
<path d="M4626 3421 c-4 -7 -5 -15 -2 -18 9 -9 19 4 14 18 -4 11 -6 11 -12 0z"/>
<path d="M687 3406 c-4 -10 -5 -21 -2 -24 9 -9 17 6 13 25 -3 17 -4 17 -11 -1z"/>
<path d="M1440 3404 c0 -8 5 -12 10 -9 6 3 10 10 10 16 0 5 -4 9 -10 9 -5 0
-10 -7 -10 -16z"/>
<path d="M1541 3398 c0 -10 -10 -23 -21 -30 -19 -12 -28 -38 -12 -38 14 1 43
51 39 68 -4 16 -5 16 -6 0z"/>
<path d="M3818 3394 c6 -11 19 -27 28 -35 16 -13 16 -12 6 7 -6 11 -19 27 -28
35 -16 13 -16 12 -6 -7z"/>
<path d="M721 3384 c0 -11 3 -14 6 -6 3 7 2 16 -1 19 -3 4 -6 -2 -5 -13z"/>
<path d="M1575 3389 c-9 -14 -2 -20 14 -10 8 6 9 11 3 15 -6 3 -14 1 -17 -5z"/>
<path d="M3241 3384 c0 -11 3 -14 6 -6 3 7 2 16 -1 19 -3 4 -6 -2 -5 -13z"/>
<path d="M4521 3374 c0 -11 3 -14 6 -6 3 7 2 16 -1 19 -3 4 -6 -2 -5 -13z"/>
<path d="M1401 3349 c-30 -49 -26 -61 5 -16 14 21 23 41 20 44 -3 3 -14 -10
-25 -28z"/>
<path d="M4566 3361 c-4 -7 -5 -15 -2 -18 9 -9 19 4 14 18 -4 11 -6 11 -12 0z"/>
<path d="M1550 3345 c-16 -19 -3 -19 30 0 24 13 24 14 4 15 -12 0 -27 -7 -34
-15z"/>
<path d="M1625 3346 c-11 -7 -51 -23 -90 -36 -74 -24 -93 -35 -81 -47 4 -4 10
-3 14 3 4 6 32 18 62 28 51 16 120 52 120 62 0 6 -4 5 -25 -10z"/>
<path d="M690 3340 c0 -5 5 -10 11 -10 5 0 7 5 4 10 -3 6 -8 10 -11 10 -2 0
-4 -4 -4 -10z"/>
<path d="M3870 3345 c0 -5 10 -19 22 -32 20 -22 21 -23 2 -24 -16 0 -15 -2 5
-10 41 -16 43 -6 6 35 -19 22 -35 36 -35 31z"/>
<path d="M756 3331 c-4 -5 -1 -13 5 -17 6 -3 9 -19 5 -35 -3 -15 -1 -31 4 -34
6 -4 10 12 10 39 0 43 -12 67 -24 47z"/>
<path d="M3326 3328 c-13 -41 -17 -72 -8 -63 12 12 26 75 17 75 -3 0 -7 -6 -9
-12z"/>
<path d="M4534 3328 c-5 -7 -7 -21 -5 -32 1 -10 -1 -16 -6 -13 -4 3 -16 -6
-26 -19 -10 -13 -13 -24 -8 -24 6 0 15 8 20 18 6 9 11 13 11 7 0 -5 9 5 21 24
13 21 17 37 11 43 -6 6 -13 5 -18 -4z"/>
<path d="M1457 3323 c-12 -12 -7 -22 8 -17 8 4 15 10 15 15 0 11 -14 12 -23 2z"/>
<path d="M697 3313 c-4 -3 -7 -11 -7 -17 0 -6 5 -5 12 2 6 6 9 14 7 17 -3 3
-9 2 -12 -2z"/>
<path d="M602 3280 c0 -19 2 -27 5 -17 2 9 2 25 0 35 -3 9 -5 1 -5 -18z"/>
<path d="M1400 3300 c0 -5 -6 -10 -14 -10 -8 0 -16 -6 -19 -14 -4 -10 0 -12
16 -8 29 7 48 22 41 33 -7 12 -24 11 -24 -1z"/>
<path d="M2921 3300 c0 -8 4 -24 9 -35 5 -13 9 -14 9 -5 0 8 -4 24 -9 35 -5
13 -9 14 -9 5z"/>
<path d="M736 3285 c4 -8 8 -15 10 -15 2 0 4 7 4 15 0 8 -4 15 -10 15 -5 0 -7
-7 -4 -15z"/>
<path d="M4581 3273 c-8 -14 -11 -15 -11 -3 -2 19 -19 -18 -19 -40 1 -13 1
-13 6 0 4 8 16 22 27 31 12 10 18 20 14 24 -3 4 -11 -2 -17 -12z"/>
<path d="M637 3274 c-4 -4 -7 -14 -7 -23 0 -11 3 -12 11 -4 6 6 10 16 7 23 -2
6 -7 8 -11 4z"/>
<path d="M684 3259 c-3 -6 -2 -14 3 -18 6 -3 13 -13 16 -21 3 -9 6 -4 6 12 1
29 -13 45 -25 27z"/>
<path d="M1404 3244 c-18 -14 -18 -15 4 -4 12 6 22 13 22 15 0 8 -5 6 -26 -11z"/>
<path d="M3828 3253 c7 -3 16 -2 19 1 4 3 -2 6 -13 5 -11 0 -14 -3 -6 -6z"/>
<path d="M3885 3245 c35 -16 55 -19 55 -6 0 5 -14 11 -31 15 -48 9 -57 6 -24
-9z"/>
<path d="M1443 3243 c-15 -5 -17 -23 -4 -23 5 0 11 7 15 15 3 8 4 15 3 14 -1
0 -8 -3 -14 -6z"/>
<path d="M655 3230 c-3 -5 -1 -10 4 -10 6 0 11 5 11 10 0 6 -2 10 -4 10 -3 0
-8 -4 -11 -10z"/>
<path d="M1272 3215 c0 -16 2 -22 5 -12 2 9 2 23 0 30 -3 6 -5 -1 -5 -18z"/>
<path d="M3795 3230 c3 -5 8 -10 11 -10 2 0 4 5 4 10 0 6 -5 10 -11 10 -5 0
-7 -4 -4 -10z"/>
<path d="M567 3217 c-3 -8 -1 -20 4 -28 6 -10 9 -7 9 14 0 29 -5 35 -13 14z"/>
<path d="M4480 3204 c0 -17 3 -33 6 -37 12 -12 44 18 44 42 0 22 -13 22 -16 0
-1 -5 -2 -13 -3 -19 0 -5 -6 -10 -12 -10 -6 0 -9 6 -6 13 3 8 1 20 -4 28 -6
10 -9 5 -9 -17z"/>
<path d="M600 3205 c0 -8 2 -15 4 -15 2 0 6 7 10 15 3 8 1 15 -4 15 -6 0 -10
-7 -10 -15z"/>
<path d="M756 3205 c4 -8 10 -15 15 -15 5 0 9 7 9 15 0 8 -7 15 -15 15 -9 0
-12 -6 -9 -15z"/>
<path d="M1363 3200 c-10 -11 -23 -20 -29 -20 -6 0 -18 -7 -25 -16 -12 -15
-11 -16 11 -9 14 4 32 14 41 21 20 18 40 18 33 1 -2 -8 -27 -24 -54 -38 -49
-24 -69 -46 -29 -34 57 18 126 92 105 112 -3 4 -6 -1 -6 -11 0 -9 -5 -14 -10
-11 -6 4 -8 11 -5 16 11 18 -15 9 -32 -11z"/>
<path d="M4571 3206 c-16 -19 -11 -29 8 -17 7 5 12 14 9 21 -3 9 -8 7 -17 -4z"/>
<path d="M3423 3175 c0 -22 2 -30 4 -17 2 12 2 30 0 40 -3 9 -5 -1 -4 -23z"/>
<path d="M3820 3203 c0 -10 40 -36 46 -30 3 2 -7 12 -21 21 -14 9 -25 13 -25
9z"/>
<path d="M3931 3199 c0 -8 4 -23 8 -33 6 -16 9 -17 13 -5 3 8 0 23 -8 34 -10
13 -14 14 -13 4z"/>
<path d="M4640 3189 c0 -5 5 -7 10 -4 6 3 10 8 10 11 0 2 -4 4 -10 4 -5 0 -10
-5 -10 -11z"/>
<path d="M690 3176 c0 -17 14 -29 23 -20 8 8 -3 34 -14 34 -5 0 -9 -6 -9 -14z"/>
<path d="M4610 3180 c0 -5 5 -10 10 -10 6 0 10 5 10 10 0 6 -4 10 -10 10 -5 0
-10 -4 -10 -10z"/>
<path d="M544 3172 c3 -5 0 -13 -6 -15 -9 -4 -10 -6 -1 -6 17 -1 25 16 12 25
-7 4 -9 3 -5 -4z"/>
<path d="M3900 3165 c10 -13 9 -15 -11 -15 -16 0 -20 -3 -12 -11 16 -16 56 11
41 28 -6 7 -15 13 -20 13 -6 0 -5 -7 2 -15z"/>
<path d="M647 3164 c-4 -4 -7 -14 -7 -23 0 -11 3 -12 11 -4 6 6 10 16 7 23 -2
6 -7 8 -11 4z"/>
<path d="M740 3155 c1 -11 8 -31 16 -45 l15 -25 -6 35 c-6 39 -25 66 -25 35z"/>
<path d="M4535 3160 c-4 -6 -3 -16 3 -22 6 -6 12 -6 17 2 4 6 3 16 -3 22 -6 6
-12 6 -17 -2z"/>
<path d="M4615 3149 c-4 -6 -5 -12 -2 -15 2 -3 7 2 10 11 7 17 1 20 -8 4z"/>
<path d="M677 3120 c-5 -21 -5 -21 15 -3 20 18 21 18 14 -4 -5 -15 -3 -23 4
-23 6 0 10 10 8 22 -4 30 -34 35 -41 8z"/>
<path d="M3850 3130 c0 -5 5 -10 11 -10 5 0 7 5 4 10 -3 6 -8 10 -11 10 -2 0
-4 -4 -4 -10z"/>
<path d="M4510 3128 c0 -18 18 -34 28 -24 3 4 -2 14 -11 23 -16 16 -17 16 -17
1z"/>
<path d="M3910 3120 c0 -5 5 -10 10 -10 6 0 10 5 10 10 0 6 -4 10 -10 10 -5 0
-10 -4 -10 -10z"/>
<path d="M3940 3115 c0 -8 0 -18 -1 -22 0 -4 3 -9 8 -10 5 -2 10 8 11 22 1 14
-3 25 -8 25 -6 0 -10 -7 -10 -15z"/>
<path d="M4480 3113 c0 -13 5 -23 10 -23 13 0 13 11 0 30 -8 12 -10 11 -10 -7z"/>
<path d="M591 3104 c0 -11 3 -14 6 -6 3 7 2 16 -1 19 -3 4 -6 -2 -5 -13z"/>
<path d="M4566 3112 c-2 -4 4 -9 15 -9 10 -1 19 2 19 8 0 11 -27 12 -34 1z"/>
<path d="M3880 3096 c0 -8 5 -18 10 -21 6 -3 10 1 10 9 0 8 -4 18 -10 21 -5 3
-10 -1 -10 -9z"/>
<path d="M541 3074 c0 -11 3 -14 6 -6 3 7 2 16 -1 19 -3 4 -6 -2 -5 -13z"/>
<path d="M572 3070 c0 -14 2 -19 5 -12 2 6 2 18 0 25 -3 6 -5 1 -5 -13z"/>
<path d="M640 3079 c0 -5 5 -7 10 -4 6 3 10 8 10 11 0 2 -4 4 -10 4 -5 0 -10
-5 -10 -11z"/>
<path d="M1290 3080 c0 -5 7 -10 15 -10 8 0 15 5 15 10 0 6 -7 10 -15 10 -8 0
-15 -4 -15 -10z"/>
<path d="M3312 3060 c0 -19 2 -27 5 -17 2 9 2 25 0 35 -3 9 -5 1 -5 -18z"/>
<path d="M4540 3065 c-13 -14 -21 -27 -18 -30 2 -3 17 9 33 25 16 17 24 30 19
30 -6 0 -21 -11 -34 -25z"/>
<path d="M701 3053 c-1 -18 4 -33 9 -33 12 0 12 17 0 45 -7 17 -9 15 -9 -12z"/>
<path d="M740 3071 c0 -5 6 -11 13 -14 9 -3 9 -7 -1 -19 -7 -9 -10 -23 -6 -32
12 -31 24 -16 24 29 0 33 -4 45 -15 45 -8 0 -15 -4 -15 -9z"/>
<path d="M3462 3050 c0 -14 2 -19 5 -12 2 6 2 18 0 25 -3 6 -5 1 -5 -13z"/>
<path d="M3900 3060 c-12 -8 -11 -10 6 -10 29 0 52 -26 29 -33 -12 -4 -11 -5
2 -3 22 2 31 36 9 36 -9 0 -16 5 -16 10 0 13 -11 13 -30 0z"/>
<path d="M4480 3051 c0 -11 5 -23 10 -26 6 -4 10 5 10 19 0 14 -4 26 -10 26
-5 0 -10 -9 -10 -19z"/>
<path d="M601 3044 c0 -11 3 -14 6 -6 3 7 2 16 -1 19 -3 4 -6 -2 -5 -13z"/>
<path d="M1280 3035 c0 -19 21 -19 46 0 18 14 17 14 -13 15 -23 0 -33 -5 -33
-15z"/>
<path d="M3878 3023 c7 -3 16 -2 19 1 4 3 -2 6 -13 5 -11 0 -14 -3 -6 -6z"/>
<path d="M670 3007 c0 -9 6 -20 14 -24 8 -4 16 -26 19 -48 l4 -40 1 43 c2 31
-4 49 -18 64 -16 18 -20 19 -20 5z"/>
<path d="M571 2994 c0 -11 3 -14 6 -6 3 7 2 16 -1 19 -3 4 -6 -2 -5 -13z"/>
<path d="M4554 3000 c-12 -5 -25 -14 -29 -21 -5 -7 -3 -9 6 -5 8 3 22 9 32 12
9 4 17 10 17 15 0 5 -1 9 -2 8 -2 0 -13 -4 -24 -9z"/>
<path d="M527 2987 c-3 -8 1 -14 8 -14 7 0 11 6 8 14 -3 7 -6 13 -8 13 -2 0
-5 -6 -8 -13z"/>
<path d="M1275 2990 c3 -5 8 -10 11 -10 2 0 4 5 4 10 0 6 -5 10 -11 10 -5 0
-7 -4 -4 -10z"/>
<path d="M1300 2990 c0 -5 5 -10 10 -10 6 0 10 5 10 10 0 6 -4 10 -10 10 -5 0
-10 -4 -10 -10z"/>
<path d="M3930 2985 c0 -8 7 -15 15 -15 8 0 15 4 15 9 0 5 -7 11 -15 15 -9 3
-15 0 -15 -9z"/>
<path d="M627 2964 c-4 -4 -7 -14 -7 -23 0 -11 3 -12 11 -4 6 6 10 16 7 23 -2
6 -7 8 -11 4z"/>
<path d="M741 2953 c1 -10 5 -31 9 -48 7 -28 8 -28 9 12 0 23 -3 45 -9 48 -5
3 -9 -2 -9 -12z"/>
<path d="M4542 2950 c-27 -25 -27 -30 -2 -30 13 0 18 5 14 15 -4 9 0 15 10 15
9 0 16 5 16 10 0 16 -14 12 -38 -10z"/>
<path d="M540 2956 c0 -2 7 -9 15 -16 13 -11 14 -10 9 4 -5 14 -24 23 -24 12z"/>
<path d="M667 2937 c-11 -29 -9 -43 4 -30 6 6 9 19 7 29 -3 18 -4 18 -11 1z"/>
<path d="M1300 2906 c0 -27 4 -45 9 -41 11 6 9 70 -2 81 -4 4 -7 -14 -7 -40z"/>
<path d="M3944 2905 c6 -30 5 -34 -10 -28 -12 4 -15 3 -10 -5 4 -7 15 -12 24
-12 14 0 17 7 14 40 -2 22 -9 40 -14 40 -6 0 -8 -14 -4 -35z"/>
<path d="M1273 2870 c0 -36 2 -50 4 -32 2 17 2 47 0 65 -2 17 -4 3 -4 -33z"/>
<path d="M615 2888 c8 -44 12 -45 17 -4 3 25 0 36 -9 36 -9 0 -12 -9 -8 -32z"/>
<path d="M550 2896 c0 -9 5 -16 10 -16 6 0 10 4 10 9 0 6 -4 13 -10 16 -5 3
-10 -1 -10 -9z"/>
<path d="M510 2880 c0 -5 5 -10 11 -10 5 0 7 5 4 10 -3 6 -8 10 -11 10 -2 0
-4 -4 -4 -10z"/>
<path d="M650 2876 c0 -8 5 -18 10 -21 6 -3 10 3 10 14 0 12 -4 21 -10 21 -5
0 -10 -6 -10 -14z"/>
<path d="M4500 2875 c-7 -8 -8 -15 -2 -15 5 0 15 7 22 15 7 8 8 15 2 15 -5 0
-15 -7 -22 -15z"/>
<path d="M4518 2845 c-11 -15 -18 -42 -18 -71 l0 -48 30 29 c16 16 28 31 25
33 -2 2 -11 -3 -20 -12 -22 -22 -23 -21 -22 19 1 19 4 35 9 35 4 0 12 9 18 20
15 28 -1 24 -22 -5z"/>
<path d="M580 2851 c0 -5 7 -12 16 -15 14 -5 15 -4 4 9 -14 17 -20 19 -20 6z"/>
<path d="M700 2815 c0 -25 -4 -45 -10 -45 -5 0 -10 5 -10 12 0 6 -3 9 -6 6 -7
-8 14 -48 25 -48 4 0 9 27 10 60 1 33 -1 60 -4 60 -3 0 -5 -20 -5 -45z"/>
<path d="M742 2830 c0 -14 2 -19 5 -12 2 6 2 18 0 25 -3 6 -5 1 -5 -13z"/>
<path d="M540 2830 c0 -5 5 -10 11 -10 5 0 7 5 4 10 -3 6 -8 10 -11 10 -2 0
-4 -4 -4 -10z"/>
<path d="M666 2832 c-2 -4 -1 -14 4 -22 7 -11 9 -9 7 8 -1 24 -3 26 -11 14z"/>
<path d="M1295 2821 c-3 -5 -1 -12 5 -16 5 -3 10 1 10 9 0 18 -6 21 -15 7z"/>
<path d="M3936 2822 c7 -4 14 -61 19 -147 4 -77 11 -144 17 -150 6 -7 7 19 2
75 -4 47 -7 118 -8 157 -1 66 -3 73 -21 73 -12 0 -16 -3 -9 -8z"/>
<path d="M575 2810 c3 -5 11 -10 16 -10 6 0 7 5 4 10 -3 6 -11 10 -16 10 -6 0
-7 -4 -4 -10z"/>
<path d="M610 2791 c0 -5 5 -13 10 -16 6 -3 10 -2 10 4 0 5 -4 13 -10 16 -5 3
-10 2 -10 -4z"/>
<path d="M1290 2769 c0 -11 5 -17 10 -14 6 3 10 13 10 21 0 8 -4 14 -10 14 -5
0 -10 -9 -10 -21z"/>
<path d="M740 2741 c0 -5 -3 -17 -7 -27 -4 -11 -3 -15 4 -11 14 9 24 47 12 47
-5 0 -9 -4 -9 -9z"/>
<path d="M630 2729 c0 -5 5 -7 10 -4 6 3 10 8 10 11 0 2 -4 4 -10 4 -5 0 -10
-5 -10 -11z"/>
<path d="M1289 2728 c-5 -23 -9 -191 -3 -185 4 4 9 42 11 85 2 42 5 83 8 90 2
6 0 12 -5 12 -6 0 -10 -1 -11 -2z"/>
<path d="M4500 2648 c0 -65 16 -72 21 -8 3 51 0 70 -11 70 -6 0 -10 -27 -10
-62z"/>
<path d="M4550 2700 c0 -5 5 -10 10 -10 6 0 10 5 10 10 0 6 -4 10 -10 10 -5 0
-10 -4 -10 -10z"/>
<path d="M636 2687 c3 -10 9 -15 12 -12 3 3 0 11 -7 18 -10 9 -11 8 -5 -6z"/>
<path d="M4547 2650 c-3 -11 -2 -20 3 -20 4 0 10 9 13 20 3 11 2 20 -3 20 -4
0 -10 -9 -13 -20z"/>
<path d="M680 2645 c7 -9 15 -13 17 -11 7 7 -7 26 -19 26 -6 0 -6 -6 2 -15z"/>
<path d="M694 2611 c4 -5 0 -12 -6 -14 -10 -4 -10 -8 1 -15 9 -7 11 -19 6 -41
-4 -18 -3 -31 3 -31 6 0 8 -16 5 -39 -3 -25 -1 -41 7 -46 10 -6 11 10 6 71 -3
44 -6 89 -6 102 0 12 -5 22 -11 22 -5 0 -8 -4 -5 -9z"/>
<path d="M4526 2580 c-18 -45 -20 -88 -6 -110 8 -12 10 -12 16 3 3 9 1 24 -6
31 -9 11 -8 25 5 62 20 58 13 69 -9 14z"/>
<path d="M661 2554 c0 -11 3 -14 6 -6 3 7 2 16 -1 19 -3 4 -6 -2 -5 -13z"/>
<path d="M1280 2496 c0 -14 4 -27 8 -30 5 -3 9 8 9 24 0 17 -4 30 -9 30 -4 0
-8 -11 -8 -24z"/>
<path d="M660 2479 c0 -19 5 -41 10 -49 7 -10 8 -1 4 30 -8 56 -14 64 -14 19z"/>
<path d="M3951 2494 c6 -8 8 -14 3 -14 -5 0 -2 -5 6 -11 13 -9 13 -11 -1 -21
-14 -10 -14 -13 3 -30 23 -23 31 -23 23 2 -3 11 -7 33 -7 49 -1 20 -7 31 -20
34 -16 5 -17 3 -7 -9z"/>
<path d="M4572 2494 c-20 -22 -16 -84 7 -92 9 -3 9 2 0 22 -10 20 -9 32 0 52
14 31 11 38 -7 18z"/>
<path d="M1277 2443 c-11 -10 -8 -53 3 -53 6 0 10 14 10 30 0 31 -2 35 -13 23z"/>
<path d="M4514 2388 c3 -29 6 -77 6 -107 0 -72 14 -56 16 17 0 31 5 66 9 76 6
14 5 17 -4 11 -10 -6 -12 0 -6 24 5 25 3 31 -11 31 -14 0 -16 -7 -10 -52z"/>
<path d="M3920 2427 c0 -3 12 -18 26 -32 21 -21 25 -33 20 -56 -3 -16 -2 -29
3 -29 5 0 11 13 13 30 4 23 -2 36 -29 62 -18 17 -33 29 -33 25z"/>
<path d="M665 2400 c-3 -5 1 -10 10 -10 9 0 13 5 10 10 -3 6 -8 10 -10 10 -2
0 -7 -4 -10 -10z"/>
<path d="M711 2385 c0 -16 4 -48 8 -70 l9 -40 1 55 c0 30 -4 62 -9 70 -7 11
-10 8 -9 -15z"/>
<path d="M667 2363 c-10 -10 -8 -25 2 -19 11 7 21 -17 21 -47 0 -18 -2 -19
-10 -7 -8 12 -10 10 -10 -8 0 -17 5 -22 18 -20 18 4 18 8 7 71 -6 36 -14 45
-28 30z"/>
<path d="M1270 2334 c0 -21 4 -33 10 -29 6 3 10 19 10 36 0 16 -4 29 -10 29
-5 0 -10 -16 -10 -36z"/>
<path d="M4562 2350 c-18 -29 -15 -36 8 -15 20 18 26 35 12 35 -4 0 -13 -9
-20 -20z"/>
<path d="M4601 2343 c-10 -26 -10 -27 4 -9 8 11 15 23 15 28 0 15 -7 8 -19
-19z"/>
<path d="M4644 2308 l-19 -23 25 20 c14 11 27 21 29 22 2 2 0 3 -6 3 -5 0 -18
-10 -29 -22z"/>
<path d="M1288 2289 c-18 -20 -26 -105 -9 -95 5 3 9 21 8 40 0 19 6 41 16 50
9 10 17 19 17 22 0 9 -16 1 -32 -17z"/>
<path d="M3966 2292 c-7 -12 4 -52 15 -52 5 0 6 12 3 28 -8 33 -10 36 -18 24z"/>
<path d="M4572 2288 c-12 -15 -43 -140 -36 -147 12 -12 28 23 25 54 -1 19 5
49 13 67 17 33 16 47 -2 26z"/>
<path d="M4626 2265 c-3 -9 -6 -22 -5 -28 0 -7 5 -1 10 12 5 13 8 26 5 28 -2
2 -6 -3 -10 -12z"/>
<path d="M638 2243 c7 -3 16 -2 19 1 4 3 -2 6 -13 5 -11 0 -14 -3 -6 -6z"/>
<path d="M681 2231 c-12 -8 -12 -13 3 -35 20 -32 32 -28 31 10 0 30 -12 39
-34 25z m19 -21 c0 -5 -2 -10 -4 -10 -3 0 -8 5 -11 10 -3 6 -1 10 4 10 6 0 11
-4 11 -10z"/>
<path d="M3964 2214 c3 -9 6 -31 6 -50 0 -21 4 -33 10 -29 20 12 9 95 -12 95
-6 0 -7 -7 -4 -16z"/>
<path d="M637 2200 c8 -29 25 -37 21 -9 -1 12 -8 24 -15 26 -7 3 -9 -3 -6 -17z"/>
<path d="M4611 2209 c-1 -9 -8 -22 -16 -29 -8 -7 -15 -20 -15 -29 0 -10 8 -4
21 16 11 18 18 38 16 45 -4 9 -6 7 -6 -3z"/>
<path d="M4637 2181 c-4 -17 -3 -21 5 -13 5 5 8 16 6 23 -3 8 -7 3 -11 -10z"/>
<path d="M1288 2173 c-10 -2 -18 -8 -18 -13 0 -4 9 -6 20 -3 11 3 20 9 20 14
0 5 -1 8 -2 8 -2 -1 -11 -3 -20 -6z"/>
<path d="M650 2148 c0 -9 5 -20 10 -23 13 -8 13 5 0 25 -8 13 -10 13 -10 -2z"/>
<path d="M696 2152 c-5 -9 9 -80 18 -89 3 -4 6 17 6 45 0 47 -10 66 -24 44z"/>
<path d="M4603 2135 c-7 -8 -10 -22 -6 -32 6 -14 8 -12 15 12 9 34 7 38 -9 20z"/>
<path d="M1274 2125 c-9 -22 1 -29 15 -11 8 10 9 16 1 21 -5 3 -13 -1 -16 -10z"/>
<path d="M4560 2114 c0 -8 5 -12 10 -9 6 4 8 11 5 16 -9 14 -15 11 -15 -7z"/>
<path d="M670 2080 c5 -16 11 -34 15 -40 4 -6 1 -17 -5 -25 -13 -16 -3 -20 17
-7 9 6 8 19 -5 55 -18 51 -36 65 -22 17z"/>
<path d="M3966 2094 c-8 -21 3 -84 15 -84 5 0 9 23 9 50 0 49 -12 66 -24 34z"/>
<path d="M3936 2010 c1 -47 7 -107 12 -135 6 -27 9 -94 8 -147 -1 -54 2 -98 6
-98 4 0 8 6 9 13 3 36 -3 215 -7 233 -4 13 0 23 9 27 11 4 13 0 10 -14 -3 -10
0 -19 6 -19 7 0 9 20 7 57 -5 67 -26 86 -26 24 0 -23 -4 -41 -10 -41 -5 0 -10
26 -9 58 0 31 -4 73 -9 92 -8 28 -9 17 -6 -50z"/>
<path d="M4540 2075 c0 -14 25 -27 34 -18 11 11 6 21 -14 26 -12 3 -20 0 -20
-8z"/>
<path d="M1271 2015 c2 -64 10 -82 24 -48 3 10 1 19 -5 21 -7 3 -5 11 7 24 13
15 14 19 3 16 -11 -2 -14 5 -12 25 2 15 -1 27 -7 27 -7 0 -11 -24 -10 -65z"/>
<path d="M4650 2065 c-7 -9 -22 -14 -34 -13 -13 2 -22 -3 -24 -14 -2 -10 1
-18 7 -18 11 0 80 59 70 60 -4 0 -12 -7 -19 -15z"/>
<path d="M4540 2014 c0 -21 4 -33 10 -29 6 3 10 19 10 36 0 16 -4 29 -10 29
-5 0 -10 -16 -10 -36z"/>
<path d="M4605 2001 c-40 -25 -69 -57 -56 -65 5 -3 19 7 31 24 12 16 26 30 31
30 15 0 10 -30 -6 -36 -11 -5 -14 -18 -11 -53 2 -26 -2 -57 -9 -71 -9 -18 -11
-37 -5 -60 4 -19 8 -32 9 -29 1 4 8 44 17 90 8 45 13 90 11 100 -3 10 -2 19 2
21 7 3 24 68 18 68 -1 0 -15 -8 -32 -19z"/>
<path d="M4655 1988 c-7 -28 -24 -133 -21 -134 0 -1 15 7 31 18 24 15 25 18 7
13 -24 -7 -24 -11 -6 93 7 36 -3 44 -11 10z"/>
<path d="M625 1990 c4 -6 11 -8 16 -5 14 9 11 15 -7 15 -8 0 -12 -5 -9 -10z"/>
<path d="M670 1964 c0 -14 -3 -14 -15 -4 -13 11 -14 10 -9 -6 13 -35 17 -37
31 -19 15 22 17 45 3 45 -5 0 -10 -7 -10 -16z"/>
<path d="M1307 1953 c-8 -33 -8 -167 0 -159 7 6 13 176 7 176 -2 0 -5 -8 -7
-17z"/>
<path d="M696 1938 c-3 -13 -1 -27 4 -32 7 -7 10 -4 10 6 0 9 3 23 6 32 3 9 2
16 -4 16 -5 0 -12 -10 -16 -22z"/>
<path d="M4022 1930 c0 -14 2 -19 5 -12 2 6 2 18 0 25 -3 6 -5 1 -5 -13z"/>
<path d="M1270 1825 c0 -69 4 -104 10 -100 6 4 8 10 6 14 -6 8 11 37 18 31 9
-10 -7 -60 -20 -60 -8 0 -14 -4 -14 -10 0 -5 7 -10 15 -10 12 0 13 -4 5 -19
-12 -24 -13 -51 -1 -51 5 0 14 28 20 62 7 43 24 84 56 135 24 40 41 73 36 73
-4 0 -13 -12 -20 -27 -9 -19 -15 -23 -20 -14 -8 12 -16 -4 -34 -61 -4 -11 -13
-15 -27 -11 -20 5 -21 11 -17 75 2 38 0 71 -5 74 -4 3 -8 -43 -8 -101z"/>
<path d="M4775 1920 c-3 -6 1 -7 9 -4 18 7 21 14 7 14 -6 0 -13 -4 -16 -10z"/>
<path d="M1405 1910 c-3 -5 -1 -10 4 -10 6 0 11 5 11 10 0 6 -2 10 -4 10 -3 0
-8 -4 -11 -10z"/>
<path d="M4550 1863 c0 -41 3 -54 10 -43 13 20 13 100 0 100 -6 0 -10 -26 -10
-57z"/>
<path d="M634 1902 c3 -5 6 -30 7 -56 3 -57 19 -73 19 -19 0 48 -9 83 -22 83
-5 0 -7 -4 -4 -8z"/>
<path d="M1436 1895 c-9 -26 -7 -32 5 -12 6 10 9 21 6 23 -2 3 -7 -2 -11 -11z"/>
<path d="M4705 1900 c-3 -5 -1 -10 4 -10 6 0 11 5 11 10 0 6 -2 10 -4 10 -3 0
-8 -4 -11 -10z"/>
<path d="M677 1863 c6 -59 13 -83 24 -83 11 0 7 89 -5 108 -14 23 -22 12 -19
-25z"/>
<path d="M4673 1856 c-24 -11 -32 -32 -9 -23 11 4 11 1 2 -19 -14 -30 -26 -31
-26 -2 0 28 -15 12 -24 -24 -7 -33 -8 -32 30 -13 19 9 35 28 43 50 15 42 14
45 -16 31z"/>
<path d="M4712 1829 c-11 -24 -23 -55 -27 -69 -7 -22 -6 -23 9 -11 9 7 16 21
16 31 0 9 7 31 16 49 9 18 13 35 10 38 -3 3 -14 -14 -24 -38z"/>
<path d="M1382 1809 c-18 -27 -27 -49 -22 -49 6 0 13 8 17 18 3 9 15 30 26 45
10 16 18 30 16 32 -2 2 -19 -19 -37 -46z"/>
<path d="M3980 1840 c0 -5 5 -10 10 -10 6 0 10 5 10 10 0 6 -4 10 -10 10 -5 0
-10 -4 -10 -10z"/>
<path d="M3987 1805 c-4 -8 -2 -17 3 -20 6 -4 10 3 10 14 0 25 -6 27 -13 6z"/>
<path d="M4550 1772 c0 -18 5 -32 10 -32 6 0 8 11 4 28 -10 39 -14 40 -14 4z"/>
<path d="M4730 1785 c-11 -13 -10 -14 4 -9 9 3 16 10 16 15 0 13 -6 11 -20 -6z"/>
<path d="M606 1773 c-7 -18 9 -41 21 -29 4 4 1 11 -7 16 -10 7 -11 10 -2 10 6
0 12 5 12 10 0 16 -17 11 -24 -7z"/>
<path d="M655 1770 c-4 -6 1 -13 9 -16 9 -3 16 -17 16 -30 0 -13 4 -24 9 -24
5 0 9 13 9 29 -1 29 -32 59 -43 41z"/>
<path d="M3988 1763 c-2 -5 -1 -30 3 -58 l6 -50 1 58 c2 52 -2 69 -10 50z"/>
<path d="M4640 1750 c0 -5 -6 -7 -14 -4 -17 7 -28 -35 -25 -93 2 -21 0 -44 -4
-50 -5 -7 0 -9 11 -6 17 4 29 33 52 131 6 24 5 32 -6 32 -8 0 -14 -4 -14 -10z
m1 -43 c-6 -6 -11 -20 -11 -31 -1 -19 -2 -19 -11 -4 -11 19 8 61 24 51 5 -3 4
-10 -2 -16z"/>
<path d="M1343 1733 c-3 -10 -8 -21 -10 -25 -8 -14 2 -8 19 12 10 11 13 22 8
25 -6 4 -13 -2 -17 -12z"/>
<path d="M2703 1742 c-16 -10 -43 -80 -37 -95 3 -8 -6 -19 -21 -25 -14 -6 -26
-16 -26 -22 -2 -15 -4 -22 -18 -55 -7 -16 -10 -42 -7 -56 3 -14 -1 -35 -8 -45
-32 -47 -55 -159 -39 -188 5 -9 8 3 9 33 0 52 15 95 51 153 27 44 27 46 9 50
-22 5 21 107 51 121 13 6 22 16 19 23 -7 19 15 82 32 89 19 7 42 -12 42 -36 0
-10 5 -21 11 -25 6 -3 9 -15 6 -25 -3 -12 2 -23 13 -29 10 -5 21 -22 24 -37 4
-16 22 -62 41 -103 19 -41 41 -97 48 -125 13 -42 15 -45 16 -20 1 38 -20 109
-48 158 -11 20 -20 41 -19 45 2 13 -30 78 -46 91 -9 7 -14 16 -11 20 2 4 -2
25 -10 47 -13 39 -59 70 -82 56z"/>
<path d="M625 1730 c-6 -10 1 -14 19 -11 5 1 6 -6 2 -14 -8 -21 4 -42 14 -25
11 17 0 60 -16 60 -7 0 -16 -4 -19 -10z"/>
<path d="M4552 1719 c2 -6 8 -10 13 -10 5 0 11 4 13 10 2 6 -4 11 -13 11 -9 0
-15 -5 -13 -11z"/>
<path d="M4667 1677 c-22 -70 -22 -71 13 -46 25 19 27 24 14 33 -15 12 -10 46
7 46 5 0 9 5 9 10 0 6 -6 10 -13 10 -7 0 -21 -24 -30 -53z"/>
<path d="M596 1712 c-3 -6 -1 -14 5 -17 15 -10 25 3 12 16 -7 7 -13 7 -17 1z"/>
<path d="M1370 1680 c-13 -25 -31 -27 -24 -2 5 14 3 14 -10 -2 -9 -11 -16 -29
-17 -40 -1 -12 -2 -36 -4 -54 -1 -18 2 -35 7 -38 12 -8 28 14 28 40 0 10 11
40 25 67 13 27 20 49 15 49 -5 0 -14 -9 -20 -20z m-16 -45 c-6 -16 -24 -21
-24 -7 0 11 11 22 21 22 5 0 6 -7 3 -15z"/>
<path d="M1403 1667 c-28 -41 -43 -100 -47 -183 l-4 -66 47 53 c51 58 101 129
101 143 0 6 -13 -11 -29 -36 -31 -49 -45 -61 -74 -63 -23 -2 -33 20 -18 38 6
7 11 29 13 48 1 19 10 47 21 62 11 16 17 30 15 32 -2 2 -13 -11 -25 -28z m-8
-177 c-10 -11 -20 -18 -23 -15 -7 6 18 35 31 35 5 0 2 -9 -8 -20z"/>
<path d="M685 1668 c3 -14 1 -28 -5 -30 -5 -2 -6 -23 -1 -53 l8 -50 8 58 c5
39 4 66 -4 80 -11 21 -11 21 -6 -5z"/>
<path d="M4560 1665 c0 -14 5 -25 10 -25 6 0 10 11 10 25 0 14 -4 25 -10 25
-5 0 -10 -11 -10 -25z"/>
<path d="M586 1672 c-3 -6 -1 -14 5 -17 15 -10 25 3 12 16 -7 7 -13 7 -17 1z"/>
<path d="M618 1646 c-3 -13 1 -32 9 -42 12 -16 13 -13 13 24 0 45 -15 57 -22
18z"/>
<path d="M570 1633 c0 -5 9 -18 20 -28 11 -10 20 -14 20 -8 0 5 -9 18 -20 28
-11 10 -20 14 -20 8z"/>
<path d="M4678 1609 c-31 -23 -39 -73 -13 -82 11 -5 12 -1 5 18 -8 20 -5 29
12 45 12 11 25 20 30 20 4 0 8 5 8 10 0 15 -12 12 -42 -11z"/>
<path d="M3950 1591 c0 -29 -25 -50 -33 -28 -2 7 -7 9 -10 6 -4 -3 9 -19 27
-37 l34 -32 -1 60 c-1 59 -17 88 -17 31z"/>
<path d="M4572 1600 c0 -14 2 -19 5 -12 2 6 2 18 0 25 -3 6 -5 1 -5 -13z"/>
<path d="M69 1591 c23 -18 28 -18 74 -4 48 14 110 11 132 -7 11 -9 83 -25 75
-17 -3 3 -32 15 -65 26 -66 23 -107 26 -152 11 -21 -8 -39 -8 -59 0 l-29 10
24 -19z"/>
<path d="M3837 1590 c3 -11 9 -17 15 -14 5 3 4 12 -3 20 -16 19 -18 18 -12 -6z"/>
<path d="M3876 1595 c4 -8 11 -15 16 -15 6 0 5 6 -2 15 -7 8 -14 15 -16 15 -2
0 -1 -7 2 -15z"/>
<path d="M1278 1593 c-2 -5 -1 -24 3 -43 l6 -35 2 43 c1 39 -3 52 -11 35z"/>
<path d="M1488 1557 c-18 -24 -52 -68 -75 -96 -43 -53 -51 -71 -33 -71 6 0 10
4 10 10 0 5 7 7 15 4 8 -4 15 -1 15 5 0 6 -5 11 -11 11 -15 0 14 45 30 46 6 1
19 2 29 3 16 2 16 2 -1 15 -12 9 -14 16 -8 21 6 3 11 1 11 -5 0 -6 5 -8 11 -5
6 4 8 13 5 21 -3 8 -1 14 5 14 6 0 8 4 5 9 -3 4 3 19 14 31 11 13 20 25 20 27
0 11 -14 -2 -42 -40z"/>
<path d="M2720 1590 c0 -5 5 -10 11 -10 5 0 7 5 4 10 -3 6 -8 10 -11 10 -2 0
-4 -4 -4 -10z"/>
<path d="M1420 1581 c0 -5 9 -7 20 -4 11 3 20 7 20 9 0 2 -9 4 -20 4 -11 0
-20 -4 -20 -9z"/>
<path d="M3982 1560 c0 -19 2 -27 5 -17 2 9 2 25 0 35 -3 9 -5 1 -5 -18z"/>
<path d="M616 1571 c-3 -5 -1 -23 5 -41 14 -40 34 -25 24 19 -6 31 -19 40 -29
22z"/>
<path d="M4601 1528 c0 -55 9 -48 23 20 6 25 4 32 -8 32 -13 0 -16 -11 -15
-52z"/>
<path d="M5015 1554 l-60 -13 60 6 c33 2 62 7 64 9 11 10 -9 10 -64 -2z"/>
<path d="M5095 1560 c4 -6 11 -8 16 -5 14 9 11 15 -7 15 -8 0 -12 -5 -9 -10z"/>
<path d="M1401 1546 c-10 -12 -8 -13 8 -9 12 3 21 9 21 14 0 14 -16 11 -29 -5z"/>
<path d="M4840 1550 c0 -5 7 -10 16 -10 8 0 12 5 9 10 -3 6 -10 10 -16 10 -5
0 -9 -4 -9 -10z"/>
<path d="M3883 1530 c-1 -11 3 -20 8 -20 6 0 7 6 3 13 -4 7 -3 9 2 4 5 -5 9
-14 9 -20 1 -7 6 -11 12 -10 13 3 36 -55 27 -68 -3 -5 0 -9 5 -9 24 0 10 60
-21 95 -38 40 -43 42 -45 15z"/>
<path d="M4895 1540 c27 -12 35 -12 35 0 0 6 -12 10 -27 9 -25 0 -26 -1 -8 -9z"/>
<path d="M580 1524 c0 -10 -6 -14 -15 -10 -8 3 -15 1 -15 -4 0 -6 5 -10 10
-10 6 0 10 -6 10 -14 0 -21 20 -30 33 -17 8 8 6 11 -6 11 -9 0 -17 7 -17 15 0
8 3 15 6 15 11 0 34 -29 34 -44 0 -9 7 -16 15 -16 22 0 19 11 -12 45 -16 16
-27 33 -25 37 1 5 -2 8 -8 8 -5 0 -10 -7 -10 -16z"/>
<path d="M2880 1530 c0 -5 7 -10 16 -10 8 0 12 5 9 10 -3 6 -10 10 -16 10 -5
0 -9 -4 -9 -10z"/>
<path d="M3676 1533 c-4 -5 -16 -9 -27 -9 -10 -1 -28 -2 -39 -3 -11 0 -20 -5
-20 -10 0 -9 45 -5 61 4 4 3 12 -2 19 -10 9 -11 8 -19 -4 -37 -18 -25 -21 -48
-7 -48 10 0 22 40 26 88 4 34 3 36 -9 25z"/>
<path d="M1315 1479 c3 -46 14 -82 16 -48 0 8 2 29 3 46 2 18 -2 37 -9 43 -10
8 -12 -1 -10 -41z"/>
<path d="M2338 1523 c-10 -2 -18 -8 -18 -13 0 -4 9 -6 20 -3 11 3 20 9 20 14
0 5 -1 8 -2 8 -2 -1 -11 -3 -20 -6z"/>
<path d="M2640 1515 c-11 -14 -10 -14 12 -6 14 5 29 7 34 3 4 -4 4 -1 0 6 -10
17 -31 15 -46 -3z"/>
<path d="M2928 1523 c7 -3 16 -2 19 1 4 3 -2 6 -13 5 -11 0 -14 -3 -6 -6z"/>
<path d="M2968 1523 c6 -2 18 -2 25 0 6 3 1 5 -13 5 -14 0 -19 -2 -12 -5z"/>
<path d="M3070 1520 c-12 -8 -10 -10 8 -10 13 0 20 4 17 10 -7 12 -6 12 -25 0z"/>
<path d="M3715 1520 c-3 -6 1 -7 9 -4 18 7 21 14 7 14 -6 0 -13 -4 -16 -10z"/>
<path d="M2765 1510 c3 -5 10 -10 16 -10 5 0 9 5 9 10 0 6 -7 10 -16 10 -8 0
-12 -4 -9 -10z"/>
<path d="M3157 1509 c4 -4 38 -13 75 -19 67 -10 118 -6 118 11 0 5 -12 4 -26
-2 -15 -5 -36 -7 -46 -3 -35 11 -129 21 -121 13z"/>
<path d="M3985 1510 c3 -5 8 -10 11 -10 2 0 4 5 4 10 0 6 -5 10 -11 10 -5 0
-7 -4 -4 -10z"/>
<path d="M4646 1503 c-14 -49 -16 -91 -6 -118 11 -29 12 -29 26 -11 8 11 13
29 13 40 -2 19 -2 19 -6 -1 -2 -13 -9 -23 -15 -23 -7 0 -8 22 -3 65 6 62 2 85
-9 48z"/>
<path d="M1292 1470 c0 -19 2 -27 5 -17 2 9 2 25 0 35 -3 9 -5 1 -5 -18z"/>
<path d="M2187 1489 c7 -7 15 -10 18 -7 3 3 -2 9 -12 12 -14 6 -15 5 -6 -5z"/>
<path d="M3640 1479 c0 -5 5 -7 10 -4 6 3 10 8 10 11 0 2 -4 4 -10 4 -5 0 -10
-5 -10 -11z"/>
<path d="M544 1467 c3 -10 6 -23 6 -28 0 -5 5 -9 10 -9 14 0 12 13 -6 36 -14
17 -15 17 -10 1z"/>
<path d="M3884 1465 c-3 -8 -14 -17 -25 -20 -10 -4 -19 -14 -19 -23 0 -11 10
-6 36 19 34 31 36 32 31 10 -7 -30 10 -78 24 -64 6 6 6 19 0 35 -5 14 -7 29
-3 33 6 6 -16 25 -31 25 -4 0 -10 -7 -13 -15z"/>
<path d="M2640 1433 c-7 -21 -19 -49 -28 -62 -11 -18 -12 -26 -4 -29 7 -2 12
-8 12 -14 0 -6 -7 -8 -14 -5 -15 6 -33 -29 -22 -40 3 -4 6 1 6 10 0 9 4 17 9
17 5 0 9 -25 9 -55 0 -30 5 -62 12 -70 7 -8 14 -39 15 -68 1 -28 6 -59 9 -68
9 -21 -4 -25 -74 -27 -111 -4 -220 -15 -220 -23 0 -4 12 -7 28 -5 15 2 82 7
150 11 93 5 122 4 122 -5 0 -7 -7 -10 -16 -6 -9 4 -14 1 -12 -6 2 -6 14 -13
27 -15 20 -3 22 0 17 21 -3 14 -9 58 -12 98 -3 40 -13 84 -21 97 -18 29 -12
138 13 221 18 60 12 81 -6 23z"/>
<path d="M2790 1456 c0 -2 7 -9 15 -16 13 -11 14 -10 9 4 -5 14 -24 23 -24 12z"/>
<path d="M3620 1444 c0 -8 5 -12 10 -9 6 3 10 10 10 16 0 5 -4 9 -10 9 -5 0
-10 -7 -10 -16z"/>
<path d="M4701 1413 c-1 -24 1 -43 3 -43 8 0 12 48 5 66 -5 13 -8 7 -8 -23z"/>
<path d="M591 1413 c1 -16 5 -41 10 -58 7 -24 8 -21 5 20 -2 28 -1 44 1 37 3
-6 9 -9 14 -6 6 3 5 11 -2 20 -18 22 -29 17 -28 -13z"/>
<path d="M1430 1430 c0 -5 4 -10 9 -10 5 0 7 -9 4 -20 -3 -11 0 -20 6 -20 6 0
9 10 7 23 -3 12 -5 25 -5 30 -1 11 -21 8 -21 -3z"/>
<path d="M2821 1420 c-1 -3 6 -27 14 -54 8 -27 15 -69 15 -93 0 -27 4 -42 10
-38 6 3 10 22 10 41 0 20 4 33 10 29 12 -7 -19 62 -42 96 -9 13 -17 22 -17 19z"/>
<path d="M3607 1406 c-4 -10 -5 -21 -2 -24 9 -9 17 6 13 25 -3 17 -4 17 -11
-1z"/>
<path d="M3873 1397 c-14 -28 -16 -77 -4 -77 10 0 27 87 19 95 -3 3 -9 -5 -15
-18z"/>
<path d="M550 1400 c0 -5 5 -10 10 -10 6 0 10 5 10 10 0 6 -4 10 -10 10 -5 0
-10 -4 -10 -10z"/>
<path d="M1330 1399 c0 -5 5 -7 10 -4 6 3 10 8 10 11 0 2 -4 4 -10 4 -5 0 -10
-5 -10 -11z"/>
<path d="M2675 1401 c-3 -5 -1 -12 5 -16 5 -3 10 1 10 9 0 18 -6 21 -15 7z"/>
<path d="M2740 1400 c0 -5 5 -10 10 -10 6 0 10 5 10 10 0 6 -4 10 -10 10 -5 0
-10 -4 -10 -10z"/>
<path d="M3642 1390 c0 -14 2 -19 5 -12 2 6 2 18 0 25 -3 6 -5 1 -5 -13z"/>
<path d="M3830 1389 c0 -5 5 -7 10 -4 6 3 10 8 10 11 0 2 -4 4 -10 4 -5 0 -10
-5 -10 -11z"/>
<path d="M1393 1383 c-7 -3 -13 -12 -13 -21 0 -15 2 -15 17 1 18 18 16 27 -4
20z"/>
<path d="M560 1365 c7 -9 15 -13 17 -11 7 7 -7 26 -19 26 -6 0 -6 -6 2 -15z"/>
<path d="M1348 1375 c-9 -15 10 -57 23 -49 7 4 8 9 1 13 -5 3 -11 15 -14 26
-2 11 -6 16 -10 10z"/>
<path d="M1415 1350 c-10 -11 -14 -20 -10 -20 5 0 4 -5 -3 -12 -14 -14 -16
-28 -3 -28 5 0 12 12 16 27 3 15 12 31 18 35 6 4 9 9 6 13 -3 3 -14 -4 -24
-15z"/>
<path d="M3603 1330 c0 -25 2 -35 4 -22 2 12 2 32 0 45 -2 12 -4 2 -4 -23z"/>
<path d="M3820 1349 c0 -16 -4 -20 -17 -15 -17 6 -17 5 0 -8 21 -16 22 -26 3
-26 -8 0 -18 -5 -22 -12 -5 -8 -2 -9 12 -3 10 4 27 7 37 7 15 -1 16 1 2 14
-11 11 -12 20 -5 34 13 24 13 30 0 30 -5 0 -10 -9 -10 -21z"/>
<path d="M500 1344 c0 -9 6 -14 12 -12 7 3 19 -1 26 -9 16 -16 42 -17 42 -2 0
5 -5 7 -11 4 -6 -4 -16 0 -22 8 -19 22 -47 29 -47 11z"/>
<path d="M3636 1353 c-3 -3 -6 -18 -6 -33 0 -19 5 -26 21 -27 20 -2 20 -1 3
11 -15 11 -16 17 -6 29 13 15 1 33 -12 20z"/>
<path d="M2662 1320 c0 -14 2 -19 5 -12 2 6 2 18 0 25 -3 6 -5 1 -5 -13z"/>
<path d="M4155 1330 c-3 -5 1 -10 10 -10 9 0 13 5 10 10 -3 6 -8 10 -10 10 -2
0 -7 -4 -10 -10z"/>
<path d="M4680 1331 c0 -12 26 -32 33 -25 3 4 0 13 -8 20 -16 16 -25 18 -25 5z"/>
<path d="M439 1313 c-13 -15 -12 -15 11 -3 34 17 36 20 18 20 -9 0 -22 -7 -29
-17z"/>
<path d="M3740 1320 c0 -5 7 -10 15 -10 8 0 15 5 15 10 0 6 -7 10 -15 10 -8 0
-15 -4 -15 -10z"/>
<path d="M1460 1293 c-14 -7 -18 -13 -10 -13 17 0 47 17 40 23 -3 2 -16 -2
-30 -10z"/>
<path d="M1530 1305 c0 -5 5 -17 10 -25 5 -8 10 -10 10 -5 0 6 -5 17 -10 25
-5 8 -10 11 -10 5z"/>
<path d="M4010 1264 c-41 -24 -84 -48 -95 -53 -98 -44 -136 -63 -133 -67 7 -6
136 49 194 83 28 17 67 38 87 48 20 9 37 21 37 26 0 14 -10 10 -90 -37z"/>
<path d="M3980 1290 c0 -5 4 -10 9 -10 6 0 13 5 16 10 3 6 -1 10 -9 10 -9 0
-16 -4 -16 -10z"/>
<path d="M498 1283 c7 -3 16 -2 19 1 4 3 -2 6 -13 5 -11 0 -14 -3 -6 -6z"/>
<path d="M3734 1275 c-10 -8 -14 -15 -8 -15 5 0 19 7 30 15 10 8 14 15 8 15
-5 0 -19 -7 -30 -15z"/>
<path d="M4705 1280 c3 -5 8 -10 11 -10 2 0 4 5 4 10 0 6 -5 10 -11 10 -5 0
-7 -4 -4 -10z"/>
<path d="M1500 1274 c0 -5 21 -31 46 -59 26 -27 42 -43 38 -34 -14 25 -84 104
-84 93z"/>
<path d="M4776 1265 c4 -8 10 -12 15 -9 11 6 2 24 -11 24 -5 0 -7 -7 -4 -15z"/>
<path d="M1560 1261 c0 -6 4 -13 10 -16 6 -3 7 1 4 9 -7 18 -14 21 -14 7z"/>
<path d="M2697 1263 c-13 -23 -18 -98 -12 -191 10 -147 26 -115 26 53 0 129
-3 158 -14 138z"/>
<path d="M2770 1255 c-1 -30 -19 -204 -26 -253 l-6 -43 33 6 c43 8 50 15 15
15 -18 0 -26 5 -24 13 3 8 40 14 114 19 189 12 205 16 42 11 -113 -4 -158 -2
-158 6 0 7 31 12 88 13 l87 2 -82 3 c-110 5 -107 23 4 23 107 0 104 11 -4 13
-88 2 -87 0 -70 98 4 26 3 57 -2 70 -9 21 -10 22 -11 4z"/>
<path d="M830 1250 c0 -5 5 -10 10 -10 6 0 10 5 10 10 0 6 -4 10 -10 10 -5 0
-10 -4 -10 -10z"/>
<path d="M1760 1256 c0 -2 7 -6 15 -10 8 -3 15 -1 15 4 0 6 -7 10 -15 10 -8 0
-15 -2 -15 -4z"/>
<path d="M3656 1253 c5 -5 12 -12 16 -18 4 -6 8 -2 8 8 0 9 -7 17 -17 17 -9 0
-12 -3 -7 -7z"/>
<path d="M3701 1255 c0 -5 3 -16 8 -23 7 -11 9 -10 14 3 4 9 3 14 -2 10 -5 -3
-12 1 -14 7 -3 7 -6 9 -6 3z"/>
<path d="M3785 1236 c-9 -14 -14 -30 -10 -36 3 -5 0 -10 -8 -10 -8 0 -17 -7
-21 -15 -7 -19 3 -19 28 0 10 7 15 18 11 24 -3 6 -1 11 4 11 6 0 11 6 11 14 0
8 5 16 12 18 9 3 9 6 0 11 -6 5 -18 -3 -27 -17z"/>
<path d="M4126 1243 c-11 -11 -6 -23 9 -23 8 0 15 4 15 9 0 13 -16 22 -24 14z"/>
<path d="M4470 1230 c-12 -8 -10 -10 8 -10 13 0 20 4 17 10 -7 12 -6 12 -25 0z"/>
<path d="M4820 1230 c0 -5 5 -10 11 -10 5 0 7 5 4 10 -3 6 -8 10 -11 10 -2 0
-4 -4 -4 -10z"/>
<path d="M1280 1225 c0 -6 76 -45 87 -45 4 0 -12 11 -36 25 -44 26 -51 28 -51
20z"/>
<path d="M1618 1222 c-10 -2 -18 -8 -18 -13 0 -11 11 -11 30 1 18 11 11 18
-12 12z"/>
<path d="M1831 1216 c-8 -10 -9 -16 -1 -21 5 -3 10 0 10 9 0 8 6 17 13 19 7 4
8 6 1 6 -6 1 -17 -5 -23 -13z"/>
<path d="M2831 1198 c-14 -23 -14 -23 8 -4 22 20 25 26 13 26 -4 0 -13 -10
-21 -22z"/>
<path d="M405 1200 c-3 -5 -2 -10 4 -10 5 0 13 5 16 10 3 6 2 10 -4 10 -5 0
-13 -4 -16 -10z"/>
<path d="M1770 1206 c0 -2 7 -7 16 -10 8 -3 12 -2 9 4 -6 10 -25 14 -25 6z"/>
<path d="M3511 1194 c0 -11 3 -14 6 -6 3 7 2 16 -1 19 -3 4 -6 -2 -5 -13z"/>
<path d="M3539 1184 c-14 -37 -6 -39 15 -4 10 17 13 30 6 30 -6 0 -15 -12 -21
-26z"/>
<path d="M3641 1194 c0 -11 3 -14 6 -6 3 7 2 16 -1 19 -3 4 -6 -2 -5 -13z"/>
<path d="M3676 1189 c-9 -11 -15 -26 -13 -32 2 -6 12 1 22 16 22 33 16 44 -9
16z"/>
<path d="M4155 1200 c-3 -5 1 -10 9 -10 8 0 18 5 21 10 3 6 -1 10 -9 10 -8 0
-18 -4 -21 -10z"/>
<path d="M1643 1193 c-19 -7 -15 -23 5 -23 10 0 19 7 19 15 0 16 -4 17 -24 8z"/>
<path d="M4364 1185 c-10 -8 -14 -15 -8 -15 5 0 19 7 30 15 10 8 14 15 8 15
-5 0 -19 -7 -30 -15z"/>
<path d="M1860 1180 c0 -5 5 -10 11 -10 5 0 7 5 4 10 -3 6 -8 10 -11 10 -2 0
-4 -4 -4 -10z"/>
<path d="M3602 1178 c-7 -7 -12 -16 -12 -21 0 -5 7 -1 16 8 9 9 14 18 12 20
-2 3 -10 -1 -16 -7z"/>
<path d="M770 1169 c0 -5 5 -7 10 -4 6 3 10 8 10 11 0 2 -4 4 -10 4 -5 0 -10
-5 -10 -11z"/>
<path d="M1390 1170 c8 -5 20 -10 25 -10 6 0 3 5 -5 10 -8 5 -19 10 -25 10 -5
0 -3 -5 5 -10z"/>
<path d="M1698 1173 c7 -3 16 -2 19 1 4 3 -2 6 -13 5 -11 0 -14 -3 -6 -6z"/>
<path d="M3381 1173 c0 -5 4 -17 9 -28 8 -18 9 -17 9 8 1 15 -3 27 -9 27 -5 0
-10 -3 -9 -7z"/>
<path d="M3480 1170 c0 -5 5 -10 11 -10 5 0 7 5 4 10 -3 6 -8 10 -11 10 -2 0
-4 -4 -4 -10z"/>
<path d="M1605 1160 c3 -5 8 -10 11 -10 2 0 4 5 4 10 0 6 -5 10 -11 10 -5 0
-7 -4 -4 -10z"/>
<path d="M3410 1160 c0 -5 5 -10 10 -10 6 0 10 5 10 10 0 6 -4 10 -10 10 -5 0
-10 -4 -10 -10z"/>
<path d="M3451 1155 c1 -11 5 -31 9 -45 8 -24 8 -24 9 5 0 17 -4 37 -9 45 -8
12 -10 11 -9 -5z"/>
<path d="M4010 1149 c-11 -19 -10 -20 9 -10 27 15 36 31 17 31 -8 0 -20 -9
-26 -21z"/>
<path d="M620 1150 c8 -5 20 -10 25 -10 6 0 3 5 -5 10 -8 5 -19 10 -25 10 -5
0 -3 -5 5 -10z"/>
<path d="M1444 1145 c11 -8 27 -15 35 -15 10 1 7 6 -9 15 -33 19 -50 18 -26 0z"/>
<path d="M3350 1151 c0 -5 5 -13 10 -16 6 -3 10 -2 10 4 0 5 -4 13 -10 16 -5
3 -10 2 -10 -4z"/>
<path d="M1664 1136 c32 -18 56 -21 56 -6 0 6 -8 10 -17 10 -10 0 -29 3 -43 6
-23 5 -23 5 4 -10z"/>
<path d="M1930 1146 c0 -2 9 -6 20 -9 11 -3 18 -1 14 4 -5 9 -34 13 -34 5z"/>
<path d="M3556 1141 c-4 -7 -5 -15 -2 -18 9 -9 19 4 14 18 -4 11 -6 11 -12 0z"/>
<path d="M3725 1134 c-16 -8 -37 -21 -45 -29 -8 -7 -37 -24 -65 -38 -27 -15
-44 -26 -36 -27 17 0 191 93 191 103 0 11 -12 9 -45 -9z"/>
<path d="M4408 1143 c7 -3 16 -2 19 1 4 3 -2 6 -13 5 -11 0 -14 -3 -6 -6z"/>
<path d="M770 1129 c0 -5 5 -7 10 -4 6 3 10 8 10 11 0 2 -4 4 -10 4 -5 0 -10
-5 -10 -11z"/>
<path d="M3351 1113 c7 -10 15 -20 16 -22 2 -2 3 3 3 11 0 9 -7 19 -16 22 -15
6 -15 4 -3 -11z"/>
<path d="M3411 1116 c-8 -9 -11 -19 -7 -23 9 -9 29 13 24 27 -2 8 -8 7 -17 -4z"/>
<path d="M4362 1114 c-7 -8 -8 -14 -3 -14 10 0 25 19 20 25 -2 1 -10 -3 -17
-11z"/>
<path d="M1740 1110 c0 -5 5 -10 11 -10 5 0 7 5 4 10 -3 6 -8 10 -11 10 -2 0
-4 -4 -4 -10z"/>
<path d="M3311 1110 c0 -8 4 -22 9 -30 12 -18 12 -2 0 25 -6 13 -9 15 -9 5z"/>
<path d="M4915 1110 c3 -5 8 -10 11 -10 2 0 4 5 4 10 0 6 -5 10 -11 10 -5 0
-7 -4 -4 -10z"/>
<path d="M700 1100 c0 -5 5 -10 10 -10 6 0 10 5 10 10 0 6 -4 10 -10 10 -5 0
-10 -4 -10 -10z"/>
<path d="M3048 1103 c12 -2 32 -2 45 0 12 2 2 4 -23 4 -25 0 -35 -2 -22 -4z"/>
<path d="M3138 1103 c6 -2 18 -2 25 0 6 3 1 5 -13 5 -14 0 -19 -2 -12 -5z"/>
<path d="M3530 1100 c0 -5 5 -10 10 -10 6 0 10 5 10 10 0 6 -4 10 -10 10 -5 0
-10 -4 -10 -10z"/>
<path d="M3840 1064 c-58 -24 -115 -44 -127 -44 -12 0 -25 -5 -28 -10 -4 -7 5
-8 27 -5 60 11 289 109 243 104 -6 -1 -57 -21 -115 -45z"/>
<path d="M4220 1100 c0 -5 5 -10 10 -10 6 0 10 5 10 10 0 6 -4 10 -10 10 -5 0
-10 -4 -10 -10z"/>
<path d="M855 1091 c-3 -5 -1 -12 5 -16 5 -3 10 1 10 9 0 18 -6 21 -15 7z"/>
<path d="M1580 1096 c0 -2 7 -6 15 -10 8 -3 15 -1 15 4 0 6 -7 10 -15 10 -8 0
-15 -2 -15 -4z"/>
<path d="M1775 1090 c3 -5 8 -10 11 -10 2 0 4 5 4 10 0 6 -5 10 -11 10 -5 0
-7 -4 -4 -10z"/>
<path d="M3220 1084 c0 -8 5 -12 10 -9 6 4 8 11 5 16 -9 14 -15 11 -15 -7z"/>
<path d="M3264 1091 c4 -5 1 -12 -4 -14 -6 -3 -5 -4 2 -3 15 3 23 26 8 26 -6
0 -9 -4 -6 -9z"/>
<path d="M3180 1080 c0 -5 5 -10 10 -10 6 0 10 5 10 10 0 6 -4 10 -10 10 -5 0
-10 -4 -10 -10z"/>
<path d="M1350 1070 c0 -5 7 -10 16 -10 8 0 12 5 9 10 -3 6 -10 10 -16 10 -5
0 -9 -4 -9 -10z"/>
<path d="M1630 1069 c0 -5 5 -7 10 -4 6 3 10 8 10 11 0 2 -4 4 -10 4 -5 0 -10
-5 -10 -11z"/>
<path d="M1886 1067 c3 -10 9 -15 12 -12 3 3 0 11 -7 18 -10 9 -11 8 -5 -6z"/>
<path d="M2480 1070 l-55 -7 68 -1 c39 -1 67 2 67 8 0 6 -6 9 -12 8 -7 -1 -38
-4 -68 -8z"/>
<path d="M2588 1073 c6 -2 18 -2 25 0 6 3 1 5 -13 5 -14 0 -19 -2 -12 -5z"/>
<path d="M2958 1073 c6 -2 18 -2 25 0 6 3 1 5 -13 5 -14 0 -19 -2 -12 -5z"/>
<path d="M3038 1073 c23 -2 61 -2 85 0 23 2 4 4 -43 4 -47 0 -66 -2 -42 -4z"/>
<path d="M4350 1064 c0 -8 5 -12 10 -9 6 4 8 11 5 16 -9 14 -15 11 -15 -7z"/>
<path d="M570 1059 c0 -5 5 -7 10 -4 6 3 10 8 10 11 0 2 -4 4 -10 4 -5 0 -10
-5 -10 -11z"/>
<path d="M2085 1060 c3 -5 8 -10 11 -10 2 0 4 5 4 10 0 6 -5 10 -11 10 -5 0
-7 -4 -4 -10z"/>
<path d="M2285 1060 c3 -5 8 -10 11 -10 2 0 4 5 4 10 0 6 -5 10 -11 10 -5 0
-7 -4 -4 -10z"/>
<path d="M1665 1050 c4 -6 11 -8 16 -5 14 9 11 15 -7 15 -8 0 -12 -5 -9 -10z"/>
<path d="M1926 1045 c4 -8 8 -15 10 -15 2 0 4 7 4 15 0 8 -4 15 -10 15 -5 0
-7 -7 -4 -15z"/>
<path d="M2968 1053 c7 -3 16 -2 19 1 4 3 -2 6 -13 5 -11 0 -14 -3 -6 -6z"/>
<path d="M885 1040 c3 -5 8 -10 11 -10 2 0 4 5 4 10 0 6 -5 10 -11 10 -5 0 -7
-4 -4 -10z"/>
<path d="M1620 1040 c-8 -5 -12 -11 -9 -14 2 -3 11 -1 19 4 8 5 12 11 9 14 -2
3 -11 1 -19 -4z"/>
<path d="M1714 1030 c0 -11 3 -20 7 -20 4 0 9 9 12 20 3 12 0 20 -7 20 -6 0
-12 -9 -12 -20z"/>
<path d="M2145 1041 c-3 -5 -1 -12 5 -16 5 -3 10 1 10 9 0 18 -6 21 -15 7z"/>
<path d="M2187 1030 c7 -26 19 -34 29 -19 4 8 3 9 -4 5 -8 -5 -12 0 -12 13 0
12 -4 21 -9 21 -5 0 -7 -9 -4 -20z"/>
<path d="M2230 1040 c0 -5 5 -10 10 -10 6 0 10 5 10 10 0 6 -4 10 -10 10 -5 0
-10 -4 -10 -10z"/>
<path d="M2588 1043 c6 -2 18 -2 25 0 6 3 1 5 -13 5 -14 0 -19 -2 -12 -5z"/>
<path d="M3062 1045 c8 -8 118 -11 118 -3 0 5 -28 8 -62 8 -34 0 -59 -2 -56
-5z"/>
<path d="M3535 1040 c-3 -5 1 -10 9 -10 9 0 16 5 16 10 0 6 -4 10 -9 10 -6 0
-13 -4 -16 -10z"/>
<path d="M460 1030 c0 -5 5 -10 10 -10 6 0 10 5 10 10 0 6 -4 10 -10 10 -5 0
-10 -4 -10 -10z"/>
<path d="M2085 1030 c3 -5 11 -10 16 -10 6 0 7 5 4 10 -3 6 -11 10 -16 10 -6
0 -7 -4 -4 -10z"/>
<path d="M2330 1030 c0 -5 -7 -10 -15 -10 -8 0 -15 -5 -15 -10 0 -7 6 -7 19 0
24 12 36 30 22 30 -6 0 -11 -4 -11 -10z"/>
<path d="M2392 1031 c-8 -5 8 -6 40 -4 73 6 83 11 23 12 -27 0 -56 -3 -63 -8z"/>
<path d="M4180 1030 c-12 -8 -11 -10 8 -10 12 0 22 5 22 10 0 13 -11 13 -30 0z"/>
<path d="M978 1023 c7 -3 16 -2 19 1 4 3 -2 6 -13 5 -11 0 -14 -3 -6 -6z"/>
<path d="M1033 1023 c9 -2 23 -2 30 0 6 3 -1 5 -18 5 -16 0 -22 -2 -12 -5z"/>
<path d="M2056 1022 c-2 -4 -1 -14 5 -22 7 -12 9 -10 9 8 0 23 -5 28 -14 14z"/>
<path d="M4280 1015 c0 -8 2 -15 4 -15 2 0 6 7 10 15 3 8 1 15 -4 15 -6 0 -10
-7 -10 -15z"/>
<path d="M4660 1020 c0 -5 4 -10 9 -10 6 0 13 5 16 10 3 6 -1 10 -9 10 -9 0
-16 -4 -16 -10z"/>
<path d="M675 1010 c-3 -5 -1 -10 4 -10 6 0 11 5 11 10 0 6 -2 10 -4 10 -3 0
-8 -4 -11 -10z"/>
<path d="M1775 1000 c-3 -5 -1 -10 4 -10 6 0 11 5 11 10 0 6 -2 10 -4 10 -3 0
-8 -4 -11 -10z"/>
<path d="M3050 999 c0 -6 9 -8 19 -4 11 3 22 1 26 -5 3 -6 11 -8 16 -5 19 12
8 22 -26 23 -19 1 -35 -3 -35 -9z"/>
<path d="M4045 1000 c3 -5 13 -10 21 -10 8 0 12 5 9 10 -3 6 -13 10 -21 10 -8
0 -12 -4 -9 -10z"/>
<path d="M4138 1003 c7 -3 16 -2 19 1 4 3 -2 6 -13 5 -11 0 -14 -3 -6 -6z"/>
<path d="M4775 1000 c-3 -5 -1 -10 4 -10 6 0 11 5 11 10 0 6 -2 10 -4 10 -3 0
-8 -4 -11 -10z"/>
<path d="M245 990 c3 -5 8 -10 11 -10 2 0 4 5 4 10 0 6 -5 10 -11 10 -5 0 -7
-4 -4 -10z"/>
<path d="M3000 993 c23 -5 24 -6 5 -14 -17 -6 -16 -8 8 -8 39 -1 30 23 -9 26
-25 1 -26 1 -4 -4z"/>
<path d="M4398 993 c7 -3 16 -2 19 1 4 3 -2 6 -13 5 -11 0 -14 -3 -6 -6z"/>
<path d="M1845 980 c3 -5 8 -10 11 -10 2 0 4 5 4 10 0 6 -5 10 -11 10 -5 0 -7
-4 -4 -10z"/>
<path d="M2468 983 c23 -2 59 -2 80 0 20 2 1 4 -43 4 -44 0 -61 -2 -37 -4z"/>
<path d="M2832 982 c-8 -6 0 -9 23 -9 19 0 35 4 35 9 0 10 -41 10 -58 0z"/>
<path d="M2913 983 c9 -2 25 -2 35 0 9 3 1 5 -18 5 -19 0 -27 -2 -17 -5z"/>
<path d="M4250 975 c-8 -9 -8 -15 -2 -15 12 0 26 19 19 26 -2 2 -10 -2 -17
-11z"/>
<path d="M1088 973 c6 -2 18 -2 25 0 6 3 1 5 -13 5 -14 0 -19 -2 -12 -5z"/>
<path d="M1200 970 c-13 -8 -13 -10 2 -10 9 0 20 5 23 10 8 13 -5 13 -25 0z"/>
<path d="M2328 963 c7 -3 16 -2 19 1 4 3 -2 6 -13 5 -11 0 -14 -3 -6 -6z"/>
<path d="M2406 957 c-12 -10 11 -13 109 -15 69 -1 125 2 125 7 0 5 -40 9 -88
10 -49 1 -98 3 -109 6 -12 2 -28 -2 -37 -8z"/>
<path d="M3960 960 c0 -5 4 -10 9 -10 6 0 13 5 16 10 3 6 -1 10 -9 10 -9 0
-16 -4 -16 -10z"/>
<path d="M2903 953 c9 -2 25 -2 35 0 9 3 1 5 -18 5 -19 0 -27 -2 -17 -5z"/>
<path d="M2968 953 c7 -3 16 -2 19 1 4 3 -2 6 -13 5 -11 0 -14 -3 -6 -6z"/>
<path d="M1140 940 c0 -5 5 -10 10 -10 6 0 10 5 10 10 0 6 -4 10 -10 10 -5 0
-10 -4 -10 -10z"/>
<path d="M2660 940 c0 -5 7 -10 15 -10 8 0 15 5 15 10 0 6 -7 10 -15 10 -8 0
-15 -4 -15 -10z"/>
<path d="M3235 940 c-3 -5 -1 -10 4 -10 6 0 11 5 11 10 0 6 -2 10 -4 10 -3 0
-8 -4 -11 -10z"/>
<path d="M2753 933 c9 -2 23 -2 30 0 6 3 -1 5 -18 5 -16 0 -22 -2 -12 -5z"/>
<path d="M2835 930 c27 -12 35 -12 35 0 0 6 -12 10 -27 9 -25 0 -26 -1 -8 -9z"/>
<path d="M2910 929 c-22 -6 -20 -7 13 -8 38 -1 47 3 25 11 -7 3 -24 1 -38 -3z"/>
<path d="M2483 923 c15 -2 39 -2 55 0 15 2 2 4 -28 4 -30 0 -43 -2 -27 -4z"/>
<path d="M2428 913 c7 -3 16 -2 19 1 4 3 -2 6 -13 5 -11 0 -14 -3 -6 -6z"/>
<path d="M2658 903 c7 -3 16 -2 19 1 4 3 -2 6 -13 5 -11 0 -14 -3 -6 -6z"/>
<path d="M3136 901 c-4 -7 -5 -15 -2 -18 9 -9 19 4 14 18 -4 11 -6 11 -12 0z"/>
<path d="M2475 890 c39 -4 106 -7 150 -7 74 0 77 0 30 7 -27 5 -95 8 -150 8
l-100 -1 70 -7z"/>
<path d="M3628 893 c-16 -2 -28 -8 -28 -12 0 -10 69 -1 76 10 5 9 1 9 -48 2z"/>
<path d="M4410 889 c0 -5 5 -7 10 -4 6 3 10 8 10 11 0 2 -4 4 -10 4 -5 0 -10
-5 -10 -11z"/>
<path d="M2810 872 c0 -13 61 -22 80 -11 13 7 13 8 -1 9 -9 0 -31 3 -48 6 -18
4 -31 2 -31 -4z"/>
<path d="M3546 865 c-3 -8 -1 -15 4 -15 6 0 10 7 10 15 0 8 -2 15 -4 15 -2 0
-6 -7 -10 -15z"/>
<path d="M2366 861 c19 -18 144 -30 319 -31 242 -2 237 -2 229 11 -4 8 8 10
40 8 27 -3 45 0 43 6 -6 16 -66 14 -105 -5 -23 -11 -41 -15 -48 -9 -6 5 -96
13 -200 19 -236 12 -291 13 -278 1z m151 -7 c-3 -3 -12 -4 -19 -1 -8 3 -5 6 6
6 11 1 17 -2 13 -5z"/>
<path d="M3920 860 c0 -5 5 -10 10 -10 6 0 10 5 10 10 0 6 -4 10 -10 10 -5 0
-10 -4 -10 -10z"/>
<path d="M2350 789 c0 -5 21 -9 48 -10 26 0 74 -2 107 -4 33 -2 50 0 37 3 -13
4 56 7 153 6 97 0 178 3 181 8 3 5 -112 8 -260 8 -154 -1 -266 -6 -266 -11z"/>
<path d="M3136 791 c-4 -7 -5 -15 -2 -18 9 -9 19 4 14 18 -4 11 -6 11 -12 0z"/>
<path d="M2895 780 c-4 -6 16 -10 51 -10 32 0 55 2 53 4 -11 9 -99 14 -104 6z"/>
<path d="M3290 770 c0 -5 5 -10 10 -10 6 0 10 5 10 10 0 6 -4 10 -10 10 -5 0
-10 -4 -10 -10z"/>
<path d="M2780 761 c0 -5 9 -7 20 -4 11 3 20 7 20 9 0 2 -9 4 -20 4 -11 0 -20
-4 -20 -9z"/>
<path d="M3080 750 c0 -13 20 -13 40 0 12 8 9 10 -12 10 -16 0 -28 -4 -28 -10z"/>
<path d="M2270 740 c0 -5 6 -10 14 -10 8 0 16 -5 18 -11 2 -7 11 -7 28 0 l25
10 -27 0 c-15 1 -30 6 -33 11 -3 6 -10 10 -16 10 -5 0 -9 -4 -9 -10z"/>
<path d="M2398 742 c18 -12 482 -16 482 -4 0 6 -98 10 -247 11 -137 1 -242 -3
-235 -7z"/>
<path d="M2955 740 c-17 -7 -15 -9 13 -9 17 -1 32 4 32 9 0 12 -17 12 -45 0z"/>
<path d="M3010 740 c0 -5 7 -10 16 -10 8 0 12 5 9 10 -3 6 -10 10 -16 10 -5 0
-9 -4 -9 -10z"/>
<path d="M2364 718 c-4 -6 -3 -8 4 -4 5 3 12 1 14 -5 2 -6 12 -10 23 -8 16 4
15 6 -8 16 -19 9 -28 9 -33 1z"/>
<path d="M2895 720 c-3 -5 1 -10 9 -10 9 0 16 5 16 10 0 6 -4 10 -9 10 -6 0
-13 -4 -16 -10z"/>
<path d="M3325 720 c-3 -5 -1 -10 4 -10 6 0 11 5 11 10 0 6 -2 10 -4 10 -3 0
-8 -4 -11 -10z"/>
<path d="M2255 710 c3 -5 11 -10 16 -10 6 0 7 5 4 10 -3 6 -11 10 -16 10 -6 0
-7 -4 -4 -10z"/>
<path d="M3285 710 c-3 -5 -2 -10 4 -10 5 0 13 5 16 10 3 6 2 10 -4 10 -5 0
-13 -4 -16 -10z"/>
<path d="M2145 700 c3 -5 8 -10 11 -10 2 0 4 5 4 10 0 6 -5 10 -11 10 -5 0 -7
-4 -4 -10z"/>
<path d="M2035 689 c-4 -6 -5 -12 -2 -15 2 -3 7 2 10 11 7 17 1 20 -8 4z"/>
<path d="M2548 692 c-44 -2 -80 -8 -86 -15 -8 -9 27 -12 154 -12 102 0 164 4
164 10 0 12 -125 21 -232 17z"/>
<path d="M2420 674 c0 -14 3 -14 15 -4 8 7 15 14 15 16 0 2 -7 4 -15 4 -8 0
-15 -7 -15 -16z"/>
<path d="M2360 669 c0 -5 9 -9 20 -9 11 0 20 4 20 8 0 4 -9 8 -20 9 -11 1 -20
-2 -20 -8z"/>
<path d="M2830 672 c0 -4 28 -9 63 -10 34 -2 69 -4 77 -4 32 -2 50 2 50 12 0
7 -7 7 -21 -1 -13 -7 -24 -7 -28 -2 -7 12 -141 16 -141 5z"/>
<path d="M3150 660 c0 -5 5 -10 10 -10 6 0 10 5 10 10 0 6 -4 10 -10 10 -5 0
-10 -4 -10 -10z"/>
<path d="M3221 644 c0 -11 3 -14 6 -6 3 7 2 16 -1 19 -3 4 -6 -2 -5 -13z"/>
<path d="M1845 640 c-3 -5 1 -10 10 -10 9 0 13 5 10 10 -3 6 -8 10 -10 10 -2
0 -7 -4 -10 -10z"/>
<path d="M3080 640 c-8 -5 -12 -12 -9 -15 4 -3 12 1 19 10 14 17 11 19 -10 5z"/>
<path d="M3461 634 c0 -11 3 -14 6 -6 3 7 2 16 -1 19 -3 4 -6 -2 -5 -13z"/>
<path d="M2308 633 c7 -3 16 -2 19 1 4 3 -2 6 -13 5 -11 0 -14 -3 -6 -6z"/>
<path d="M2413 633 c-18 -3 -33 -8 -33 -14 0 -12 387 -12 394 0 3 5 -1 12 -9
15 -16 6 -298 5 -352 -1z"/>
<path d="M3280 630 c0 -5 7 -10 15 -10 8 0 15 5 15 10 0 6 -7 10 -15 10 -8 0
-15 -4 -15 -10z"/>
<path d="M2345 620 c-3 -5 -1 -10 4 -10 6 0 11 5 11 10 0 6 -2 10 -4 10 -3 0
-8 -4 -11 -10z"/>
<path d="M2800 613 c0 -8 14 -13 40 -13 22 0 40 4 40 9 0 5 -18 11 -40 13 -28
2 -40 0 -40 -9z"/>
<path d="M2950 619 c0 -12 67 -12 74 0 3 5 -12 9 -34 9 -22 0 -40 -3 -40 -9z"/>
<path d="M3160 620 c0 -5 5 -10 10 -10 6 0 10 5 10 10 0 6 -4 10 -10 10 -5 0
-10 -4 -10 -10z"/>
<path d="M3340 618 c0 -5 7 -8 15 -8 8 0 18 0 22 -1 4 0 9 4 11 9 2 6 -8 9
-23 8 -14 0 -25 -4 -25 -8z"/>
<path d="M2900 610 c0 -5 9 -10 20 -10 11 0 20 5 20 10 0 6 -9 10 -20 10 -11
0 -20 -4 -20 -10z"/>
<path d="M2268 603 c-16 -2 -28 -9 -28 -14 0 -14 53 -5 58 9 2 7 2 11 0 11 -1
-1 -15 -4 -30 -6z"/>
<path d="M2316 602 c-3 -6 -1 -14 5 -17 14 -9 20 -2 10 14 -6 8 -11 9 -15 3z"/>
<path d="M3285 590 c3 -5 12 -7 20 -3 21 7 19 13 -6 13 -11 0 -18 -4 -14 -10z"/>
<path d="M2064 568 c2 -19 16 -29 16 -13 0 3 0 12 0 20 0 8 -4 15 -10 15 -5 0
-8 -10 -6 -22z"/>
<path d="M2350 581 c0 -5 28 -12 63 -16 34 -3 76 -8 92 -11 24 -4 27 -3 15 6
-12 9 -12 10 5 6 11 -3 101 -8 200 -11 99 -3 188 -8 197 -11 10 -3 26 -1 35 5
10 6 14 11 8 11 -124 6 -181 12 -189 20 -13 13 -426 14 -426 1z m378 -8 c-10
-2 -26 -2 -35 0 -10 3 -2 5 17 5 19 0 27 -2 18 -5z"/>
<path d="M3346 581 c-4 -5 -2 -12 3 -15 5 -4 12 -2 15 3 4 5 2 12 -3 15 -5 4
-12 2 -15 -3z"/>
<path d="M3601 574 c0 -11 3 -14 6 -6 3 7 2 16 -1 19 -3 4 -6 -2 -5 -13z"/>
<path d="M3219 560 c-19 -12 7 -21 43 -15 35 7 50 15 27 16 -8 0 -24 2 -36 3
-12 1 -27 -1 -34 -4z"/>
<path d="M3860 560 c0 -5 5 -10 10 -10 6 0 10 5 10 10 0 6 -4 10 -10 10 -5 0
-10 -4 -10 -10z"/>
<path d="M1955 550 c-4 -6 3 -10 14 -10 25 0 27 6 6 13 -8 4 -17 2 -20 -3z"/>
<path d="M2010 550 c0 -5 7 -10 16 -10 8 0 12 5 9 10 -3 6 -10 10 -16 10 -5 0
-9 -4 -9 -10z"/>
<path d="M2180 550 c0 -5 7 -10 15 -10 8 0 15 5 15 10 0 6 -7 10 -15 10 -8 0
-15 -4 -15 -10z"/>
<path d="M2220 552 c0 -15 30 -23 48 -12 16 9 16 9 0 10 -9 0 -23 3 -32 6 -9
3 -16 2 -16 -4z"/>
<path d="M3010 552 c0 -10 139 -26 148 -17 10 10 -3 13 -75 20 -43 4 -73 3
-73 -3z"/>
<path d="M3180 550 c0 -5 5 -10 11 -10 5 0 7 5 4 10 -3 6 -8 10 -11 10 -2 0
-4 -4 -4 -10z"/>
<path d="M3780 550 c0 -5 5 -10 10 -10 6 0 10 5 10 10 0 6 -4 10 -10 10 -5 0
-10 -4 -10 -10z"/>
<path d="M3900 550 c0 -5 7 -10 16 -10 8 0 12 5 9 10 -3 6 -10 10 -16 10 -5 0
-9 -4 -9 -10z"/>
<path d="M3425 540 c-16 -7 -17 -9 -3 -9 9 -1 20 4 23 9 7 11 7 11 -20 0z"/>
<path d="M3945 540 c-3 -5 -1 -10 4 -10 6 0 11 5 11 10 0 6 -2 10 -4 10 -3 0
-8 -4 -11 -10z"/>
<path d="M3998 533 c12 -2 30 -2 40 0 9 3 -1 5 -23 4 -22 0 -30 -2 -17 -4z"/>
<path d="M3290 520 c-13 -9 -13 -10 0 -10 8 0 22 5 30 10 13 9 13 10 0 10 -8
0 -22 -5 -30 -10z"/>
<path d="M2323 506 c-24 -5 -43 -13 -43 -17 0 -4 73 -6 163 -4 89 1 249 3 355
4 149 1 192 4 192 14 0 10 -38 13 -167 12 -93 0 -174 -4 -181 -8 -7 -5 -19 -4
-27 3 -16 13 -229 11 -292 -4z m174 -2 c-3 -3 -12 -4 -19 -1 -8 3 -5 6 6 6 11
1 17 -2 13 -5z"/>
<path d="M3006 508 c7 -12 54 -10 54 2 0 6 -13 9 -29 8 -16 -1 -27 -6 -25 -10z"/>
<path d="M1985 500 c3 -5 10 -10 16 -10 5 0 9 5 9 10 0 6 -7 10 -16 10 -8 0
-12 -4 -9 -10z"/>
<path d="M2035 500 c-4 -6 3 -10 14 -10 25 0 27 6 6 13 -8 4 -17 2 -20 -3z"/>
<path d="M3077 496 c-4 -10 -1 -13 8 -9 8 3 12 9 9 14 -7 12 -11 11 -17 -5z"/>
<path d="M3338 503 c7 -3 16 -2 19 1 4 3 -2 6 -13 5 -11 0 -14 -3 -6 -6z"/>
<path d="M3385 500 c-3 -5 1 -10 9 -10 8 0 18 5 21 10 3 6 -1 10 -9 10 -8 0
-18 -4 -21 -10z"/>
<path d="M3900 500 c0 -5 5 -10 11 -10 5 0 7 5 4 10 -3 6 -8 10 -11 10 -2 0
-4 -4 -4 -10z"/>
<path d="M2235 490 c3 -5 13 -10 21 -10 8 0 14 5 14 10 0 6 -9 10 -21 10 -11
0 -17 -4 -14 -10z"/>
<path d="M3185 490 c-3 -5 -2 -10 4 -10 5 0 13 5 16 10 3 6 2 10 -4 10 -5 0
-13 -4 -16 -10z"/>
<path d="M3865 490 c3 -5 8 -10 11 -10 2 0 4 5 4 10 0 6 -5 10 -11 10 -5 0 -7
-4 -4 -10z"/>
<path d="M1905 480 c4 -6 11 -8 16 -5 14 9 11 15 -7 15 -8 0 -12 -5 -9 -10z"/>
<path d="M3360 470 c0 -5 5 -10 10 -10 6 0 10 5 10 10 0 6 -4 10 -10 10 -5 0
-10 -4 -10 -10z"/>
<path d="M3720 470 c0 -5 5 -10 11 -10 5 0 7 5 4 10 -3 6 -8 10 -11 10 -2 0
-4 -4 -4 -10z"/>
<path d="M3318 458 c9 -9 15 -9 24 0 9 9 7 12 -12 12 -19 0 -21 -3 -12 -12z"/>
<path d="M1938 453 c7 -3 16 -2 19 1 4 3 -2 6 -13 5 -11 0 -14 -3 -6 -6z"/>
<path d="M2708 453 c7 -3 16 -2 19 1 4 3 -2 6 -13 5 -11 0 -14 -3 -6 -6z"/>
<path d="M3115 440 c-8 -13 15 -13 35 0 12 8 11 10 -7 10 -12 0 -25 -4 -28
-10z"/>
<path d="M2055 430 c3 -5 11 -10 16 -10 6 0 7 5 4 10 -3 6 -11 10 -16 10 -6 0
-7 -4 -4 -10z"/>
<path d="M2225 430 c-3 -5 1 -10 9 -10 9 0 16 5 16 10 0 6 -4 10 -9 10 -6 0
-13 -4 -16 -10z"/>
<path d="M2818 432 c-70 -4 -77 -21 -10 -24 165 -6 263 0 269 17 3 10 -134 14
-259 7z"/>
<path d="M2260 420 c0 -18 45 -21 265 -18 140 2 219 7 217 13 -3 13 -482 17
-482 5z"/>
<path d="M2015 400 c3 -5 8 -10 11 -10 2 0 4 5 4 10 0 6 -5 10 -11 10 -5 0 -7
-4 -4 -10z"/>
<path d="M2135 400 c-5 -9 18 -20 41 -20 8 0 14 4 14 9 0 11 -49 21 -55 11z"/>
<path d="M3355 380 c-3 -5 1 -10 9 -10 9 0 16 5 16 10 0 6 -4 10 -9 10 -6 0
-13 -4 -16 -10z"/>
<path d="M2855 360 c-3 -5 3 -10 14 -10 12 0 21 5 21 10 0 6 -6 10 -14 10 -8
0 -18 -4 -21 -10z"/>
<path d="M2545 353 c-72 -8 -95 -15 -95 -25 0 -7 13 -8 38 -3 20 4 90 7 155 6
70 -2 117 2 117 7 0 15 -137 25 -215 15z"/>
<path d="M3302 323 c-12 -2 -20 -8 -18 -12 7 -10 76 -1 76 10 0 9 -17 10 -58
2z"/>
<path d="M2500 303 c-97 -7 -139 -15 -143 -28 -4 -8 1 -12 11 -10 9 2 17 4 17
5 0 11 113 17 413 19 53 1 92 5 92 11 0 9 -279 10 -390 3z"/>
<path d="M2900 300 c0 -5 9 -10 20 -10 11 0 20 -6 20 -12 0 -10 2 -10 9 0 6 9
19 11 45 7 24 -5 36 -3 36 4 0 6 -8 11 -17 12 -10 1 -39 3 -65 5 -29 3 -48 0
-48 -6z"/>
<path d="M3040 290 c0 -6 6 -10 13 -11 6 0 2 -4 -11 -10 -21 -8 -57 -11 -117
-8 -11 0 -37 0 -57 0 -24 0 -38 4 -38 12 0 7 -4 5 -10 -4 -8 -14 -38 -16 -197
-19 -103 -2 -201 -4 -218 -5 -16 -1 -38 3 -49 8 -22 11 -86 0 -86 -14 0 -10
640 -4 765 6 22 2 58 4 79 4 22 1 37 3 35 5 -12 13 -109 44 -109 36z"/>
<path d="M3166 283 c-8 -20 0 -29 34 -37 24 -7 24 -6 -2 9 -16 9 -28 18 -28
21 0 2 12 1 28 -2 30 -7 28 -3 -5 14 -17 10 -22 9 -27 -5z"/>
<path d="M3128 283 c7 -3 16 -2 19 1 4 3 -2 6 -13 5 -11 0 -14 -3 -6 -6z"/>
<path d="M2134 268 c-3 -4 8 -8 25 -8 16 0 32 4 35 8 3 5 -8 9 -25 9 -16 0
-32 -4 -35 -9z"/>
<path d="M3430 270 c0 -5 11 -10 25 -10 14 0 25 5 25 10 0 6 -11 10 -25 10
-14 0 -25 -4 -25 -10z"/>
<path d="M3515 270 c-3 -5 1 -10 9 -10 9 0 16 5 16 10 0 6 -4 10 -9 10 -6 0
-13 -4 -16 -10z"/>
<path d="M1950 263 c0 -12 58 -14 65 -3 4 6 -9 10 -29 10 -20 0 -36 -3 -36 -7z"/>
<path d="M2050 260 c0 -5 6 -10 14 -10 8 0 18 5 21 10 3 6 -3 10 -14 10 -12 0
-21 -4 -21 -10z"/>
<path d="M2236 263 c-4 -4 -13 -8 -19 -9 -27 -2 -78 -17 -82 -25 -11 -16 108
4 127 23 17 17 17 18 0 18 -10 0 -22 -3 -26 -7z"/>
<path d="M3253 263 c-13 -2 -23 -9 -23 -15 0 -6 10 -8 23 -4 12 3 28 6 35 6 6
0 12 5 12 10 0 10 -8 11 -47 3z"/>
<path d="M1838 233 c6 -2 18 -2 25 0 6 3 1 5 -13 5 -14 0 -19 -2 -12 -5z"/>
<path d="M2088 213 c7 -3 16 -2 19 1 4 3 -2 6 -13 5 -11 0 -14 -3 -6 -6z"/>
<path d="M3283 203 c-13 -2 -23 -9 -23 -15 0 -6 10 -8 23 -4 12 3 25 6 30 6 4
0 7 5 7 10 0 6 -3 9 -7 9 -5 -1 -18 -4 -30 -6z"/>
<path d="M3370 201 c0 -5 9 -7 20 -4 11 3 20 7 20 9 0 2 -9 4 -20 4 -11 0 -20
-4 -20 -9z"/>
<path d="M1965 170 c-4 -6 5 -10 20 -10 15 0 24 4 20 10 -3 6 -12 10 -20 10
-8 0 -17 -4 -20 -10z"/>
<path d="M2423 147 c-29 -5 -53 -14 -53 -18 0 -13 34 -11 46 1 7 7 119 11 320
12 277 1 292 2 144 8 -234 10 -397 9 -457 -3z"/>
<path d="M3320 148 c0 -5 11 -8 25 -8 14 0 25 4 25 9 0 5 -11 8 -25 7 -14 0
-25 -4 -25 -8z"/>
<path d="M3040 134 c-26 -9 -97 -12 -287 -9 -185 2 -253 0 -253 -9 0 -16 497
-12 557 4 23 7 40 16 37 21 -6 11 -9 10 -54 -7z"/>
<path d="M1835 130 c-3 -5 1 -10 9 -10 9 0 16 5 16 10 0 6 -4 10 -9 10 -6 0
-13 -4 -16 -10z"/>
<path d="M2215 120 c3 -5 12 -7 20 -3 21 7 19 13 -6 13 -11 0 -18 -4 -14 -10z"/>
<path d="M2273 123 c9 -2 25 -2 35 0 9 3 1 5 -18 5 -19 0 -27 -2 -17 -5z"/>
<path d="M2440 120 c-12 -8 -10 -10 8 -10 13 0 20 4 17 10 -7 12 -6 12 -25 0z"/>
<path d="M3495 110 c-3 -5 1 -10 10 -10 9 0 13 5 10 10 -3 6 -8 10 -10 10 -2
0 -7 -4 -10 -10z"/>
<path d="M1735 90 c4 -6 11 -8 16 -5 14 9 11 15 -7 15 -8 0 -12 -5 -9 -10z"/>
<path d="M3415 90 c3 -5 12 -7 20 -3 21 7 19 13 -6 13 -11 0 -18 -4 -14 -10z"/>
<path d="M1958 63 c7 -3 16 -2 19 1 4 3 -2 6 -13 5 -11 0 -14 -3 -6 -6z"/>
<path d="M3120 60 c19 -12 110 -13 110 -1 0 5 -28 9 -62 10 -44 0 -58 -2 -48
-9z"/>
<path d="M3508 33 c6 -2 18 -2 25 0 6 3 1 5 -13 5 -14 0 -19 -2 -12 -5z"/>
</g>
</svg>
