<?xml version="1.0" standalone="no"?>
<!DOCTYPE svg PUBLIC "-//W3C//DTD SVG 20010904//EN"
 "http://www.w3.org/TR/2001/REC-SVG-20010904/DTD/svg10.dtd">
<svg version="1.0" xmlns="http://www.w3.org/2000/svg"
 width="512.000000pt" height="512.000000pt" viewBox="0 0 512.000000 512.000000"
 preserveAspectRatio="xMidYMid meet">
<metadata>
Created by potrace 1.16, written by Peter Selinger 2001-2019
</metadata>
<g transform="translate(0.000000,512.000000) scale(0.100000,-0.100000)"
fill="#000000" stroke="none">
<path d="M866 4388 c3 -4 11 -5 19 -1 21 7 19 12 -4 10 -11 0 -18 -5 -15 -9z"/>
<path d="M988 4393 c7 -3 16 -2 19 1 4 3 -2 6 -13 5 -11 0 -14 -3 -6 -6z"/>
<path d="M3513 4393 c53 -2 141 -2 195 0 53 1 9 3 -98 3 -107 0 -151 -2 -97
-3z"/>
<path d="M4268 4383 c6 -2 18 -2 25 0 6 3 1 5 -13 5 -14 0 -19 -2 -12 -5z"/>
<path d="M1360 4130 c-110 -117 -143 -165 -130 -191 12 -22 110 -100 119 -95
4 3 20 30 36 62 17 31 42 70 58 86 26 29 27 35 27 134 0 57 -3 104 -7 104 -5
0 -51 -45 -103 -100z m96 -14 c-3 -74 -6 -89 -29 -115 -14 -17 -38 -54 -53
-81 -15 -28 -30 -50 -34 -50 -4 0 -27 17 -50 38 -57 51 -52 67 57 182 49 51
90 96 91 101 2 5 7 9 12 9 5 0 7 -38 6 -84z"/>
<path d="M3640 4122 c0 -108 0 -108 29 -130 17 -12 44 -51 61 -87 l31 -66 47
35 c69 51 87 78 71 107 -21 40 -210 249 -225 249 -11 0 -14 -22 -14 -108z m53
56 c8 -13 43 -53 78 -90 35 -36 73 -81 83 -99 l19 -32 -47 -44 c-25 -24 -50
-42 -54 -39 -4 2 -17 24 -29 48 -12 24 -36 57 -53 73 -29 28 -30 32 -30 117 0
48 4 88 9 88 5 0 15 -10 24 -22z"/>
<path d="M1910 4118 c0 -13 41 -98 50 -103 12 -7 3 18 -23 65 -20 37 -27 47
-27 38z"/>
<path d="M1970 3990 c0 -5 5 -10 11 -10 5 0 7 5 4 10 -3 6 -8 10 -11 10 -2 0
-4 -4 -4 -10z"/>
<path d="M2026 3897 c3 -10 9 -15 12 -12 3 3 0 11 -7 18 -10 9 -11 8 -5 -6z"/>
<path d="M2040 3863 c0 -4 5 -15 10 -23 8 -13 10 -13 10 2 0 9 -4 20 -10 23
-5 3 -10 3 -10 -2z"/>
<path d="M1049 3778 c-35 -39 -76 -85 -91 -102 -44 -50 -38 -60 33 -52 34 3
100 6 145 6 70 0 84 3 84 16 0 8 11 35 25 59 l26 43 -38 30 c-41 32 -104 72
-114 72 -3 0 -35 -32 -70 -72z m142 11 c30 -22 54 -43 54 -47 0 -4 -10 -25
-22 -48 -22 -41 -23 -41 -90 -47 -83 -8 -173 -9 -173 -2 0 3 17 24 38 46 20
23 46 52 57 66 30 38 65 73 74 73 4 0 32 -18 62 -41z"/>
<path d="M3950 3830 c-19 -11 -52 -35 -74 -53 l-38 -34 26 -41 c14 -23 26 -48
26 -56 0 -12 27 -15 143 -18 78 -2 145 -1 149 2 4 3 -7 21 -25 41 -18 19 -61
67 -96 107 -35 40 -67 72 -70 72 -3 -1 -22 -10 -41 -20z m88 -51 c20 -23 54
-60 75 -82 20 -23 37 -45 37 -51 0 -5 -28 -6 -67 -3 -38 4 -91 7 -120 7 -48 0
-52 2 -72 36 -27 46 -27 56 7 86 68 60 91 61 140 7z"/>
<path d="M2080 3760 c0 -8 5 -22 10 -30 9 -13 10 -13 10 0 0 8 -5 22 -10 30
-9 13 -10 13 -10 0z"/>
<path d="M1719 3465 c0 0 -3 -398 -6 -884 l-6 -883 231 3 231 4 -7 -25 c-4
-14 -7 -48 -7 -77 0 -35 -3 -49 -11 -42 -6 5 -9 33 -6 69 6 76 -10 78 -26 4
l-11 -56 60 -88 c110 -161 129 -145 39 32 -26 50 -29 63 -24 120 l6 63 307 -2
c168 -2 449 -4 624 -5 l318 -3 -7 285 c-4 157 -10 289 -15 295 -5 5 -9 -24 -9
-69 l0 -78 -24 19 c-14 10 -52 40 -85 66 -34 27 -58 41 -55 33 3 -9 37 -38 74
-66 37 -28 71 -58 74 -67 4 -8 9 -98 13 -199 l6 -184 -129 -2 c-188 -3 -261
-3 -651 0 -338 2 -354 3 -373 22 -11 11 -23 20 -27 20 -4 0 -2 -5 5 -12 27
-27 11 -33 -80 -32 l-93 1 -6 59 c-5 55 -6 56 -9 17 -1 -24 -3 -49 -4 -55 -1
-10 -39 -13 -148 -14 l-148 -2 0 703 c0 554 3 704 12 708 10 4 10 6 1 6 -10 1
-13 37 -13 146 l0 144 220 3 c121 2 220 1 220 -2 0 -4 -6 -12 -12 -19 -11 -11
-9 -11 10 -1 26 13 562 21 704 10 43 -3 78 -2 78 3 0 4 98 6 218 5 l217 -3 3
-132 c2 -120 1 -133 -15 -133 -13 0 -14 -3 -5 -12 16 -16 17 -788 2 -788 -5 0
-10 -4 -10 -10 0 -5 6 -7 14 -4 9 3 19 -4 26 -17 7 -12 24 -33 39 -46 23 -21
23 -23 4 -13 -41 19 -25 -7 49 -85 91 -95 108 -121 108 -167 0 -21 2 -38 5
-38 11 0 75 46 79 57 7 17 -127 177 -208 249 l-66 59 0 555 0 555 -850 0
c-468 0 -850 0 -851 0z m1814 -1251 c26 -35 16 -30 -24 12 -18 20 -25 31 -14
24 11 -6 28 -23 38 -36z m109 -125 c25 -33 27 -49 7 -49 -4 0 -14 17 -23 38
-9 20 -28 53 -43 72 l-27 35 30 -30 c16 -16 42 -46 56 -66z"/>
<path d="M1407 3219 c-7 -28 -1 -39 22 -39 9 0 55 -18 102 -41 46 -23 101 -47
122 -55 36 -13 37 -12 37 10 0 19 -15 31 -82 66 -46 23 -91 49 -100 57 -9 8
-34 17 -56 20 -34 5 -40 3 -45 -18z m101 -27 c12 -8 21 -16 19 -18 -5 -6 -97
31 -97 39 0 10 50 -3 78 -21z"/>
<path d="M1859 3173 c-13 -16 -12 -17 4 -4 9 7 17 15 17 17 0 8 -8 3 -21 -13z"/>
<path d="M2096 2820 c-39 -12 -75 -47 -97 -95 -24 -52 -24 -89 2 -142 30 -61
80 -93 147 -93 64 0 102 18 139 67 24 31 28 46 28 102 0 54 -5 72 -24 100 -41
57 -122 83 -195 61z m125 -35 c88 -46 92 -195 7 -248 -42 -27 -84 -30 -132 -8
-99 43 -116 163 -34 237 12 12 30 24 38 27 30 11 92 7 121 -8z"/>
<path d="M2842 2809 c-121 -60 -133 -222 -22 -295 76 -51 188 -30 236 43 57
88 23 212 -70 254 -54 24 -91 24 -144 -2z m145 -29 c42 -25 66 -74 67 -130 0
-58 -24 -93 -80 -121 -125 -60 -249 66 -186 191 37 74 131 102 199 60z"/>
<path d="M508 2583 c6 -2 18 -2 25 0 6 3 1 5 -13 5 -14 0 -19 -2 -12 -5z"/>
<path d="M3291 2321 c-36 -14 -57 -27 -49 -29 20 -4 118 37 118 49 0 5 -1 8
-2 8 -2 -1 -32 -13 -67 -28z"/>
<path d="M2330 2332 c-19 -2 -38 -9 -42 -15 -10 -16 -10 -69 0 -85 11 -17 438
-18 458 -1 18 15 18 73 1 87 -12 11 -339 21 -417 14z m405 -59 l3 -33 -219 0
-219 0 0 35 0 35 216 -2 217 -3 2 -32z"/>
<path d="M2083 1983 c15 -2 37 -2 50 0 12 2 0 4 -28 4 -27 0 -38 -2 -22 -4z"/>
<path d="M2173 1983 c9 -2 25 -2 35 0 9 3 1 5 -18 5 -19 0 -27 -2 -17 -5z"/>
<path d="M2634 1983 c394 -3 400 -4 423 -25 19 -18 23 -32 23 -84 0 -36 5 -66
11 -70 8 -5 10 12 7 59 -3 57 -8 71 -33 97 l-29 30 -400 -2 -401 -3 399 -2z"/>
<path d="M3480 1955 c14 -8 34 -14 45 -15 30 0 5 17 -35 23 -35 6 -35 6 -10
-8z"/>
<path d="M3526 1889 c-58 -54 -76 -77 -76 -97 1 -27 1 -26 33 13 18 22 57 65
89 97 80 82 45 72 -46 -13z"/>
<path d="M2030 1905 c0 -14 2 -25 4 -25 2 0 6 11 8 25 3 14 1 25 -3 25 -5 0
-9 -11 -9 -25z"/>
<path d="M2190 1806 c0 -2 8 -10 18 -17 15 -13 16 -12 3 4 -13 16 -21 21 -21
13z"/>
<path d="M3111 1769 c10 -20 24 -25 33 -11 2 4 -6 12 -20 19 -21 10 -23 9 -13
-8z"/>
<path d="M2970 1681 c0 -16 61 -61 81 -61 17 0 20 6 17 32 -2 17 -9 33 -17 36
-9 3 -11 -1 -7 -16 6 -17 3 -19 -13 -15 -11 3 -26 11 -32 19 -13 16 -29 19
-29 5z"/>
<path d="M930 1460 c0 -11 178 -220 187 -220 3 0 22 15 43 33 20 17 53 44 73
60 l36 27 -24 36 c-13 19 -27 44 -30 55 -6 18 -17 19 -146 19 -89 0 -139 -4
-139 -10z m275 -30 c3 -11 13 -27 21 -35 9 -8 13 -23 9 -32 -6 -17 -82 -79
-110 -89 -7 -3 -41 28 -76 68 -106 120 -109 108 29 108 112 0 121 -1 127 -20z"/>
<path d="M3953 1463 c-37 -3 -63 -8 -63 -15 0 -6 -11 -26 -25 -44 -14 -18 -25
-37 -25 -42 0 -11 127 -122 140 -122 8 0 22 14 131 135 30 33 57 62 62 63 4 2
7 10 7 18 0 14 -61 16 -227 7z m186 -19 c4 -3 -135 -170 -149 -179 -9 -5 -76
42 -104 74 -19 21 -19 22 0 61 18 36 23 39 69 45 113 12 170 12 184 -1z"/>
<path d="M1289 1228 c-57 -44 -67 -62 -51 -89 7 -11 10 -28 7 -38 -4 -13 22
-43 101 -117 58 -54 110 -100 115 -102 5 -2 9 44 9 107 0 93 -3 112 -17 123
-21 15 -50 57 -78 111 -11 20 -25 37 -31 37 -7 0 -31 -15 -55 -32z m97 -50
c21 -35 44 -69 51 -76 9 -9 13 -43 13 -105 l0 -92 -33 35 c-18 19 -61 61 -95
93 -42 39 -62 67 -62 82 0 13 -3 31 -6 39 -7 18 57 86 80 86 7 0 30 -28 52
-62z"/>
<path d="M3721 1203 c-16 -32 -40 -68 -54 -79 -23 -21 -25 -28 -26 -133 -2
-86 1 -111 11 -111 7 0 60 47 116 103 89 89 104 109 109 144 5 38 3 42 -48 86
-30 26 -59 47 -66 47 -7 0 -26 -26 -42 -57z m99 -4 c62 -64 57 -80 -52 -194
-50 -52 -95 -95 -100 -95 -4 0 -8 42 -8 93 0 89 1 93 30 120 17 16 30 33 30
39 0 16 40 78 51 78 5 0 27 -19 49 -41z"/>
</g>
</svg>
