<?xml version="1.0" standalone="no"?>
<!DOCTYPE svg PUBLIC "-//W3C//DTD SVG 20010904//EN"
 "http://www.w3.org/TR/2001/REC-SVG-20010904/DTD/svg10.dtd">
<svg version="1.0" xmlns="http://www.w3.org/2000/svg"
 width="512.000000pt" height="512.000000pt" viewBox="0 0 512.000000 512.000000"
 preserveAspectRatio="xMidYMid meet">
<metadata>
Created by potrace 1.16, written by Peter Selinger 2001-2019
</metadata>
<g transform="translate(0.000000,512.000000) scale(0.100000,-0.100000)"
fill="#000000" stroke="none">
<path d="M1725 4615 c0 -280 1 -397 2 -258 2 138 2 368 0 510 -1 142 -2 29 -2
-252z"/>
<path d="M3384 4810 c0 -173 2 -244 3 -157 2 86 2 228 0 315 -1 86 -3 15 -3
-158z"/>
<path d="M3877 4930 c-3 -11 -1 -20 4 -20 5 0 9 9 9 20 0 11 -2 20 -4 20 -2 0
-6 -9 -9 -20z"/>
<path d="M3876 4887 c-5 -11 -7 -119 -4 -242 6 -251 8 -242 -71 -359 -67 -99
-65 -108 4 -15 89 121 86 104 83 386 -2 154 -6 241 -12 230z"/>
<path d="M560 4679 c0 -5 5 -7 10 -4 6 3 10 8 10 11 0 2 -4 4 -10 4 -5 0 -10
-5 -10 -11z"/>
<path d="M4255 4661 c-3 -5 -1 -12 4 -15 5 -3 11 1 15 9 6 16 -9 21 -19 6z"/>
<path d="M585 4590 c-3 -6 1 -7 9 -4 18 7 21 14 7 14 -6 0 -13 -4 -16 -10z"/>
<path d="M4268 4575 c-3 -14 -1 -25 3 -25 5 0 9 11 9 25 0 14 -2 25 -4 25 -2
0 -6 -11 -8 -25z"/>
<path d="M4542 4524 c1 -9 9 -19 16 -22 9 -3 13 2 10 14 -1 9 -9 19 -16 22 -9
3 -13 -2 -10 -14z"/>
<path d="M4180 4438 c-46 -51 -124 -136 -174 -188 -51 -52 -105 -111 -120
-130 -33 -41 -90 -103 -230 -254 -100 -107 -156 -179 -156 -199 0 -6 13 9 28
34 16 24 73 91 129 149 55 58 139 150 188 205 48 55 124 138 169 185 145 152
266 290 253 290 -3 0 -42 -42 -87 -92z"/>
<path d="M5036 4454 c-42 -30 -76 -58 -76 -60 0 -5 126 81 150 103 33 30 -2
10 -74 -43z"/>
<path d="M1105 4490 c28 -51 207 -300 354 -494 58 -76 111 -147 117 -158 16
-27 34 -44 34 -32 0 5 -52 77 -115 159 -63 83 -174 233 -247 335 -125 175
-162 225 -143 190z"/>
<path d="M1140 4479 c0 -5 5 -7 10 -4 6 3 10 8 10 11 0 2 -4 4 -10 4 -5 0 -10
-5 -10 -11z"/>
<path d="M4070 4454 c-14 -35 -9 -38 13 -9 10 15 13 26 7 30 -6 3 -15 -6 -20
-21z"/>
<path d="M4276 4472 c-3 -6 -1 -23 4 -38 10 -27 7 -32 -75 -113 -71 -72 -85
-82 -85 -63 0 13 4 21 8 18 5 -3 15 5 22 19 7 13 18 21 26 18 10 -4 12 0 8 11
-3 9 -1 16 5 16 6 0 11 7 11 16 0 8 5 12 10 9 6 -3 10 -1 10 6 0 7 11 27 26
46 14 18 21 33 17 33 -5 0 -23 -18 -40 -40 -29 -39 -65 -79 -207 -230 -34 -36
-115 -124 -181 -195 -66 -72 -161 -173 -212 -226 -93 -95 -93 -96 -73 -114 24
-22 8 -34 140 110 41 44 201 211 356 370 l281 290 -22 33 c-13 19 -26 29 -29
24z m-233 -316 c-77 -81 -86 -88 -70 -52 7 14 20 29 30 32 9 3 17 12 17 21 0
8 9 17 20 20 11 3 20 11 20 17 0 16 18 33 35 33 8 0 -15 -32 -52 -71z m-88
-96 c-3 -5 -11 -10 -16 -10 -6 0 -7 5 -4 10 3 6 11 10 16 10 6 0 7 -4 4 -10z"/>
<path d="M4135 4440 c-10 -11 -14 -20 -9 -20 5 0 15 9 22 20 7 11 11 20 9 20
-2 0 -12 -9 -22 -20z"/>
<path d="M738 4416 c-16 -11 -13 -16 25 -54 l42 -41 25 19 25 19 -37 15 c-21
9 -42 16 -48 16 -5 0 -10 4 -10 10 0 6 10 6 27 -1 27 -10 27 -10 8 10 -21 24
-33 26 -57 7z"/>
<path d="M1206 4397 c3 -10 9 -15 12 -12 3 3 0 11 -7 18 -10 9 -11 8 -5 -6z"/>
<path d="M3974 4362 c-52 -60 -115 -142 -110 -142 3 0 39 41 80 90 42 50 73
90 69 89 -5 0 -22 -17 -39 -37z"/>
<path d="M1361 4354 c0 -11 3 -14 6 -6 3 7 2 16 -1 19 -3 4 -6 -2 -5 -13z"/>
<path d="M3692 4350 c0 -14 2 -19 5 -12 2 6 2 18 0 25 -3 6 -5 1 -5 -13z"/>
<path d="M4065 4362 c-5 -4 -21 -21 -35 -37 -22 -27 -21 -26 13 4 33 32 42 41
35 41 -2 0 -7 -4 -13 -8z"/>
<path d="M4995 4340 c-3 -6 1 -7 9 -4 18 7 21 14 7 14 -6 0 -13 -4 -16 -10z"/>
<path d="M843 4318 c-37 -18 -26 -29 20 -22 50 8 56 12 37 24 -19 12 -29 12
-57 -2z"/>
<path d="M1362 4275 c0 -16 2 -22 5 -12 2 9 2 23 0 30 -3 6 -5 -1 -5 -18z"/>
<path d="M4920 4290 c0 -5 5 -10 10 -10 6 0 10 5 10 10 0 6 -4 10 -10 10 -5 0
-10 -4 -10 -10z"/>
<path d="M893 4268 c-21 -10 -11 -22 176 -212 109 -111 258 -267 332 -348 97
-107 140 -148 157 -148 19 0 6 19 -79 118 -56 64 -132 149 -169 187 -37 39
-93 98 -125 132 -32 35 -62 60 -68 56 -6 -3 -7 -1 -3 6 7 10 -178 222 -193
220 -3 0 -16 -5 -28 -11z m73 -54 c21 -26 32 -45 24 -42 -18 6 -85 88 -72 88
5 0 27 -21 48 -46z m65 -76 c11 -11 19 -23 19 -25 0 -7 -49 32 -50 40 0 13 12
7 31 -15z m44 -48 c3 -5 -1 -10 -10 -10 -9 0 -13 5 -10 10 3 6 8 10 10 10 2 0
7 -4 10 -10z"/>
<path d="M4885 4270 c-3 -5 1 -10 9 -10 9 0 16 5 16 10 0 6 -4 10 -9 10 -6 0
-13 -4 -16 -10z"/>
<path d="M1610 4266 c0 -10 59 -96 66 -96 3 0 -9 21 -27 48 -39 57 -39 57 -39
48z"/>
<path d="M1305 4250 c3 -5 11 -10 16 -10 6 0 7 5 4 10 -3 6 -11 10 -16 10 -6
0 -7 -4 -4 -10z"/>
<path d="M1330 4223 c0 -13 29 -38 35 -31 3 3 -4 13 -15 23 -11 10 -20 13 -20
8z"/>
<path d="M4549 4109 c-74 -61 -140 -119 -147 -128 -7 -9 -15 -14 -18 -12 -3 2
-31 -18 -61 -44 -38 -33 -51 -51 -44 -58 7 -7 25 3 58 34 50 45 122 108 276
243 135 117 86 90 -64 -35z m-159 -142 c0 -2 -12 -14 -27 -28 l-28 -24 24 28
c23 25 31 32 31 24z"/>
<path d="M3726 4173 c-6 -14 -5 -15 5 -6 7 7 10 15 7 18 -3 3 -9 -2 -12 -12z"/>
<path d="M1377 4174 c-5 -5 106 -168 140 -204 8 -8 37 -45 64 -82 28 -38 53
-68 56 -68 3 0 -2 10 -11 23 -9 12 -24 33 -33 47 -10 14 -23 29 -30 33 -7 4
-13 13 -13 19 0 6 -14 27 -30 47 -42 49 -41 48 -92 124 -24 37 -47 64 -51 61z"/>
<path d="M3766 4165 c4 -8 8 -15 10 -15 2 0 4 7 4 15 0 8 -4 15 -10 15 -5 0
-7 -7 -4 -15z"/>
<path d="M4675 4113 c-49 -36 -166 -127 -259 -202 -144 -116 -256 -203 -341
-264 -11 -8 -17 -18 -13 -22 4 -4 18 1 31 11 41 32 222 178 227 184 18 21 360
287 400 311 28 17 50 35 50 40 0 12 6 16 -95 -58z"/>
<path d="M3810 4159 c0 -5 5 -7 10 -4 6 3 10 8 10 11 0 2 -4 4 -10 4 -5 0 -10
-5 -10 -11z"/>
<path d="M3781 4123 c-7 -8 -11 -16 -8 -19 2 -2 10 2 17 11 17 20 9 27 -9 8z"/>
<path d="M3693 4098 c-20 -26 -26 -41 -15 -34 12 7 36 46 29 46 -3 0 -9 -6
-14 -12z"/>
<path d="M3735 4079 c-4 -6 -5 -12 -2 -15 2 -3 7 2 10 11 7 17 1 20 -8 4z"/>
<path d="M3706 4033 c-6 -14 -5 -15 5 -6 7 7 10 15 7 18 -3 3 -9 -2 -12 -12z"/>
<path d="M4280 3975 c-11 -13 -10 -14 4 -9 9 3 16 10 16 15 0 13 -6 11 -20 -6z"/>
<path d="M645 3950 c3 -5 8 -10 11 -10 2 0 4 5 4 10 0 6 -5 10 -11 10 -5 0 -7
-4 -4 -10z"/>
<path d="M570 3946 c0 -3 9 -10 20 -16 11 -6 20 -8 20 -6 0 3 -9 10 -20 16
-11 6 -20 8 -20 6z"/>
<path d="M4726 3887 c-218 -153 -260 -182 -404 -278 -84 -56 -151 -104 -148
-106 8 -9 397 254 591 399 l50 38 17 -23 17 -22 45 25 c25 13 43 26 41 28 -2
2 -22 -6 -45 -19 -34 -19 -43 -21 -50 -9 -5 8 -6 18 -4 22 15 23 -31 1 -110
-55z"/>
<path d="M670 3916 c0 -7 9 -16 21 -19 20 -5 20 -5 3 14 -20 23 -24 23 -24 5z"/>
<path d="M1626 3897 c3 -10 9 -15 12 -12 3 3 0 11 -7 18 -10 9 -11 8 -5 -6z"/>
<path d="M620 3873 c1 -5 23 -26 51 -48 27 -22 77 -66 110 -97 33 -32 65 -58
71 -58 12 0 -16 28 -133 133 -83 74 -100 86 -99 70z"/>
<path d="M4149 3853 l-24 -28 28 24 c25 23 32 31 24 31 -2 0 -14 -12 -28 -27z"/>
<path d="M4236 3855 c-10 -8 -15 -19 -10 -26 5 -9 2 -11 -8 -6 -18 6 -52 -25
-41 -38 5 -4 2 -5 -5 -1 -16 10 -54 -22 -45 -37 3 -5 2 -8 -3 -5 -12 8 -111
-78 -102 -88 7 -6 170 119 221 170 14 14 28 22 32 18 4 -4 6 -1 3 7 -6 21 -20
23 -42 6z"/>
<path d="M634 3801 c7 -11 46 -35 46 -28 0 3 -12 12 -26 22 -15 9 -23 12 -20
6z"/>
<path d="M880 3806 c0 -2 8 -10 18 -17 15 -13 16 -12 3 4 -13 16 -21 21 -21
13z"/>
<path d="M1655 3790 c10 -11 20 -20 23 -20 3 0 -3 9 -13 20 -10 11 -20 20 -23
20 -3 0 3 -9 13 -20z"/>
<path d="M4065 3774 c-18 -16 -22 -22 -9 -15 18 9 53 42 43 41 -2 -1 -17 -12
-34 -26z"/>
<path d="M5005 3770 c3 -5 8 -10 11 -10 2 0 4 5 4 10 0 6 -5 10 -11 10 -5 0
-7 -4 -4 -10z"/>
<path d="M900 3756 c0 -2 7 -7 16 -10 8 -3 12 -2 9 4 -6 10 -25 14 -25 6z"/>
<path d="M95 3740 c3 -5 8 -10 11 -10 2 0 4 5 4 10 0 6 -5 10 -11 10 -5 0 -7
-4 -4 -10z"/>
<path d="M870 3717 c0 -9 40 -35 44 -28 3 4 -6 13 -19 19 -14 7 -25 10 -25 9z"/>
<path d="M4258 3708 c5 -5 16 -8 23 -6 8 3 3 7 -10 11 -17 4 -21 3 -13 -5z"/>
<path d="M135 3690 c3 -5 11 -10 16 -10 6 0 7 5 4 10 -3 6 -11 10 -16 10 -6 0
-7 -4 -4 -10z"/>
<path d="M1002 3688 c5 -15 28 -18 29 -3 0 6 -7 12 -17 13 -10 3 -15 -1 -12
-10z"/>
<path d="M330 3685 c0 -2 10 -10 23 -16 20 -11 21 -11 8 4 -13 16 -31 23 -31
12z"/>
<path d="M860 3653 c0 -13 190 -190 230 -214 16 -10 30 -14 30 -9 0 6 -4 10
-8 10 -9 0 -118 95 -199 172 -29 28 -53 46 -53 41z"/>
<path d="M1043 3652 c-9 -6 3 -20 39 -48 29 -21 70 -56 91 -77 71 -71 49 -31
-29 52 -79 84 -81 86 -101 73z"/>
<path d="M237 3639 c7 -7 15 -10 18 -7 3 3 -2 9 -12 12 -14 6 -15 5 -6 -5z"/>
<path d="M410 3625 c19 -14 36 -25 39 -25 10 1 -53 50 -63 50 -6 0 5 -11 24
-25z"/>
<path d="M4120 3624 c0 -8 -7 -14 -15 -14 -8 0 -15 -4 -15 -10 0 -15 22 -12
53 9 l28 18 -25 5 c-18 4 -26 1 -26 -8z"/>
<path d="M4810 3621 c0 -6 4 -13 10 -16 6 -3 7 1 4 9 -7 18 -14 21 -14 7z"/>
<path d="M277 3609 c7 -7 15 -10 18 -7 3 3 -2 9 -12 12 -14 6 -15 5 -6 -5z"/>
<path d="M1723 3570 c0 -30 2 -43 4 -27 2 15 2 39 0 55 -2 15 -4 2 -4 -28z"/>
<path d="M357 3549 c12 -12 25 -20 28 -17 3 3 -7 13 -22 23 l-28 17 22 -23z"/>
<path d="M1194 3561 c4 -6 16 -16 28 -22 15 -8 18 -8 14 0 -4 6 -16 16 -28 22
-15 8 -18 8 -14 0z"/>
<path d="M915 3530 c3 -5 8 -10 11 -10 2 0 4 5 4 10 0 6 -5 10 -11 10 -5 0 -7
-4 -4 -10z"/>
<path d="M1722 3450 c0 -14 2 -19 5 -12 2 6 2 18 0 25 -3 6 -5 1 -5 -13z"/>
<path d="M3553 3423 c86 -2 228 -2 315 0 86 1 15 3 -158 3 -173 0 -244 -2
-157 -3z"/>
<path d="M2552 3402 l-832 -2 2 -843 3 -842 837 0 838 0 -1 843 c-1 463 -4
843 -8 845 -3 1 -381 1 -839 -1z m818 -842 l0 -820 -815 0 -815 0 1 820 0 820
814 0 815 0 0 -820z"/>
<path d="M2106 2718 c-10 -39 -7 -298 4 -319 9 -15 22 -19 68 -19 96 0 132 10
168 46 l33 33 3 -32 c3 -30 6 -32 47 -35 28 -2 47 1 52 10 5 7 9 47 9 88 1 64
3 71 12 50 6 -14 14 -52 17 -85 l6 -60 45 0 45 0 2 50 c2 28 10 88 19 135 19
104 16 153 -9 158 -33 6 -63 -7 -75 -33 -15 -33 -31 -32 -43 5 -11 29 -13 30
-70 30 -61 0 -64 -2 -61 -50 0 -9 -11 -1 -27 18 l-27 32 -106 0 c-101 0 -106
-1 -112 -22z m228 -32 c14 -19 26 -37 26 -41 0 -3 -38 -3 -85 1 l-85 7 0 -33
c0 -32 0 -32 43 -28 33 4 47 0 63 -16 12 -12 33 -31 47 -42 32 -26 27 -50 -16
-92 -30 -28 -38 -31 -117 -33 -47 -2 -84 0 -82 4 1 4 2 75 2 157 l0 150 89 0
89 0 26 -34z m153 17 c4 -10 17 -33 29 -50 l22 -33 25 48 c16 30 32 48 46 50
26 4 27 -11 5 -116 -9 -42 -14 -103 -12 -134 l4 -58 -33 0 -33 0 0 53 c0 58
-25 121 -60 152 l-22 20 4 -113 3 -112 -32 0 -33 0 0 106 c0 99 1 105 19 99
29 -9 34 21 7 42 -13 10 -27 28 -31 41 -6 21 -3 22 40 22 34 0 47 -4 52 -17z
m-115 -118 l-4 -36 -31 24 c-43 33 -44 45 -5 49 44 5 45 4 40 -37z"/>
<path d="M2188 2509 c-6 -36 7 -44 57 -35 28 6 35 11 35 30 0 24 -21 36 -66
36 -17 0 -23 -7 -26 -31z m65 -6 c-7 -2 -21 -2 -30 0 -10 3 -4 5 12 5 17 0 24
-2 18 -5z"/>
<path d="M2571 2494 c0 -11 3 -14 6 -6 3 7 2 16 -1 19 -3 4 -6 -2 -5 -13z"/>
<path d="M2660 2717 c0 -13 20 -52 44 -87 26 -37 42 -69 37 -75 -4 -5 -29 -36
-54 -68 -26 -32 -47 -67 -47 -77 0 -18 7 -20 60 -20 57 0 60 1 91 40 l32 40
35 -40 c34 -38 38 -40 93 -40 77 0 80 14 19 95 -28 37 -50 70 -50 76 0 5 20
37 45 71 25 34 45 72 45 85 0 21 -4 23 -59 23 -57 0 -60 -1 -81 -35 -12 -19
-27 -35 -33 -35 -7 0 -23 16 -36 35 -22 33 -26 35 -82 35 -55 0 -59 -2 -59
-23z m279 -76 l-61 -82 61 -74 c34 -41 61 -76 61 -77 0 -2 -21 -1 -47 1 -47 3
-50 6 -112 82 -16 20 -17 20 -59 -32 -38 -47 -46 -52 -86 -53 l-44 -1 29 36
c15 20 35 42 44 49 8 7 24 27 35 46 l21 33 -56 75 -56 76 50 0 c38 0 51 -4 56
-17 7 -21 63 -89 68 -82 2 2 18 25 37 51 29 41 38 47 74 50 22 2 42 2 44 2 2
-1 -25 -38 -59 -83z"/>
<path d="M868 2883 c6 -2 18 -2 25 0 6 3 1 5 -13 5 -14 0 -19 -2 -12 -5z"/>
<path d="M1090 2850 c157 -25 210 -30 169 -16 -25 9 -287 46 -316 45 -15 -1
51 -14 147 -29z"/>
<path d="M3965 2179 c77 -15 151 -28 165 -27 14 0 -36 13 -110 28 -74 16 -148
28 -165 28 -16 0 33 -13 110 -29z"/>
<path d="M4215 2131 c11 -4 90 -20 175 -35 184 -33 688 -124 713 -130 9 -2 17
-1 17 3 0 7 -890 172 -915 171 -5 -1 -1 -5 10 -9z"/>
<path d="M3422 1698 c-9 -4 142 -7 337 -7 195 -1 352 1 350 3 -7 8 -669 11
-687 4z"/>
<path d="M4132 1705 c-5 -18 -1 -369 3 -374 10 -9 10 7 5 194 -3 105 -7 186
-8 180z"/>
<path d="M1157 1693 c505 -3 542 -4 546 -21 4 -13 5 -11 6 6 l1 22 -547 -2
-548 -3 542 -2z"/>
<path d="M4208 1693 c28 -2 76 -2 105 0 28 2 5 3 -53 3 -58 0 -81 -1 -52 -3z"/>
<path d="M4898 1548 c-2 -84 -1 -297 2 -473 l6 -320 2 473 c1 259 0 472 -2
472 -3 0 -6 -69 -8 -152z"/>
<path d="M1704 1510 c0 -69 1 -97 3 -62 2 34 2 90 0 125 -2 34 -3 6 -3 -63z"/>
<path d="M1470 1547 c-38 -35 -41 -36 -83 -19 -47 20 -53 14 -17 -18 19 -16
40 -29 45 -29 11 0 105 84 105 93 0 14 -18 4 -50 -27z"/>
<path d="M1498 1514 c-32 -31 -58 -58 -58 -60 0 -2 18 -21 41 -41 37 -34 69
-80 69 -101 0 -5 -31 -45 -70 -88 -38 -43 -70 -83 -70 -89 1 -5 10 1 21 15 11
14 40 45 63 70 80 84 83 119 15 182 -21 20 -39 40 -39 45 1 4 21 30 45 57 38
42 54 67 43 66 -2 0 -29 -25 -60 -56z"/>
<path d="M3520 1556 c0 -3 23 -27 52 -53 29 -26 62 -59 75 -72 13 -13 26 -22
29 -18 3 3 -27 36 -66 74 -69 65 -90 81 -90 69z"/>
<path d="M1313 1529 c-6 -13 -44 -60 -83 -104 -40 -44 -86 -97 -103 -117 -17
-21 -36 -38 -44 -38 -7 0 -13 2 -13 3 0 2 46 52 103 112 150 158 141 161 -14
5 -74 -74 -132 -139 -131 -143 2 -5 10 0 18 10 13 17 15 17 28 1 12 -16 19
-12 74 55 34 39 89 102 123 139 37 40 59 73 57 84 -2 15 -5 14 -15 -7z"/>
<path d="M3797 1533 c-4 -3 -7 -13 -7 -21 0 -12 3 -12 15 -2 8 7 15 16 15 21
0 11 -14 12 -23 2z"/>
<path d="M1249 1522 c-23 -9 -140 -115 -134 -120 3 -3 24 13 47 34 24 21 59
51 78 66 36 28 38 32 9 20z"/>
<path d="M3837 1515 c3 -8 9 -12 14 -9 12 7 11 11 -5 17 -10 4 -13 1 -9 -8z"/>
<path d="M3860 1491 c0 -13 23 -28 43 -28 24 0 22 4 -13 22 -16 9 -30 11 -30
6z"/>
<path d="M3695 1480 c-7 -12 2 -30 16 -30 12 0 12 27 0 35 -5 3 -12 1 -16 -5z"/>
<path d="M3920 1429 c0 -18 2 -19 15 -9 13 10 19 9 36 -6 15 -14 19 -14 14 -2
-5 13 -45 38 -60 38 -3 0 -5 -10 -5 -21z"/>
<path d="M3635 1380 c-10 -11 -13 -20 -8 -20 13 0 38 29 31 35 -3 3 -13 -4
-23 -15z"/>
<path d="M4025 1387 c6 -14 45 -41 51 -34 2 2 -10 13 -26 25 -16 12 -27 16
-25 9z"/>
<path d="M1089 1363 c-13 -16 -12 -17 4 -4 9 7 17 15 17 17 0 8 -8 3 -21 -13z"/>
<path d="M3984 1365 c21 -16 32 -13 21 4 -3 6 -14 11 -23 11 -15 -1 -15 -2 2
-15z"/>
<path d="M989 1343 l-24 -28 28 24 c25 23 32 31 24 31 -2 0 -14 -12 -28 -27z"/>
<path d="M940 1350 c0 -5 5 -10 10 -10 6 0 10 5 10 10 0 6 -4 10 -10 10 -5 0
-10 -4 -10 -10z"/>
<path d="M1337 1340 c-3 -12 0 -17 8 -14 7 3 15 -3 17 -13 3 -14 5 -15 9 -3 3
8 -2 22 -12 32 -16 15 -17 15 -22 -2z"/>
<path d="M3830 1336 c0 -8 -6 -16 -12 -19 -7 -2 -10 -8 -5 -12 4 -5 13 0 21
10 10 14 15 15 21 5 4 -7 2 -16 -6 -21 -7 -4 -10 -11 -6 -16 5 -4 12 -1 17 7
5 8 12 11 16 7 4 -3 2 -13 -4 -20 -9 -11 -5 -20 18 -42 17 -16 30 -23 30 -17
0 7 4 12 9 12 5 0 7 -10 3 -22 -5 -21 -4 -22 12 -9 15 13 15 15 0 32 -13 14
-20 16 -31 8 -16 -14 -17 3 -1 19 7 7 8 12 2 12 -6 0 -15 -5 -22 -12 -9 -9
-12 -8 -12 5 0 9 5 17 11 17 12 0 -41 68 -53 69 -5 1 -8 -5 -8 -13z"/>
<path d="M4015 1330 c3 -5 8 -10 11 -10 2 0 4 5 4 10 0 6 -5 10 -11 10 -5 0
-7 -4 -4 -10z"/>
<path d="M4045 1330 c-6 -10 24 -59 38 -60 11 0 8 10 -9 27 -8 9 -13 22 -10
29 6 16 -10 19 -19 4z"/>
<path d="M914 1316 c-3 -9 -9 -14 -13 -11 -4 2 -39 -28 -77 -67 -38 -39 -63
-68 -56 -64 6 4 12 2 12 -3 0 -6 -4 -11 -9 -11 -4 0 -21 -12 -37 -27 -16 -15
-33 -28 -39 -28 -5 -1 -9 -6 -8 -13 2 -7 -2 -12 -7 -12 -6 0 -33 -22 -62 -50
-28 -27 -48 -50 -44 -50 16 0 155 122 252 221 56 57 105 105 108 107 10 4 8
16 -3 20 -6 2 -14 -3 -17 -12z m-14 -19 c0 -1 -28 -29 -62 -62 l-63 -60 60 63
c55 58 65 67 65 59z"/>
<path d="M1305 1309 c-10 -15 3 -25 16 -12 7 7 7 13 1 17 -6 3 -14 1 -17 -5z"/>
<path d="M1390 1301 c0 -5 -3 -18 -7 -28 -6 -16 -5 -16 10 -4 19 15 23 41 7
41 -5 0 -10 -4 -10 -9z"/>
<path d="M3658 1269 c39 -38 47 -51 43 -72 -1 -5 3 -6 9 -2 5 3 10 11 10 18 0
14 -80 97 -94 97 -6 0 8 -19 32 -41z"/>
<path d="M1335 1280 c-3 -5 -1 -10 4 -10 6 0 11 5 11 10 0 6 -2 10 -4 10 -3 0
-8 -4 -11 -10z"/>
<path d="M1260 1260 c0 -5 5 -10 10 -10 6 0 10 5 10 10 0 6 -4 10 -10 10 -5 0
-10 -4 -10 -10z"/>
<path d="M1352 1251 c2 -7 7 -12 11 -12 12 1 9 15 -3 20 -7 2 -11 -2 -8 -8z"/>
<path d="M4107 1253 c-4 -3 5 -17 19 -30 34 -31 45 -21 12 12 -14 13 -28 22
-31 18z"/>
<path d="M963 1202 c-33 -40 -28 -49 7 -12 17 18 30 34 30 36 0 12 -18 0 -37
-24z"/>
<path d="M1045 1220 c3 -5 -3 -15 -15 -22 -11 -7 -20 -18 -20 -25 0 -7 -6 -13
-13 -13 -8 0 -20 -11 -27 -25 -7 -14 -20 -25 -29 -25 -11 0 -7 -8 13 -25 29
-25 30 -49 1 -25 -25 21 -17 1 11 -27 21 -20 28 -23 34 -12 5 7 12 10 16 6 4
-3 1 -13 -6 -22 -7 -8 -9 -15 -5 -15 4 0 13 8 20 17 11 15 7 23 -28 55 l-42
38 45 47 c80 84 80 83 54 83 -8 0 -12 -4 -9 -10z m-45 -180 c0 -5 -4 -10 -10
-10 -5 0 -10 5 -10 10 0 6 5 10 10 10 6 0 10 -4 10 -10z"/>
<path d="M1280 1224 c0 -8 32 -33 43 -34 4 0 7 5 7 10 0 6 -7 10 -16 10 -8 0
-12 5 -9 10 3 6 -1 10 -9 10 -9 0 -16 -3 -16 -6z"/>
<path d="M3741 1186 c-17 -20 -7 -48 14 -40 11 5 14 2 9 -10 -4 -12 0 -16 15
-16 27 0 27 22 -2 56 -20 23 -24 24 -36 10z"/>
<path d="M3957 1193 c-4 -3 -7 -11 -7 -17 0 -6 5 -5 12 2 6 6 9 14 7 17 -3 3
-9 2 -12 -2z"/>
<path d="M3976 1174 c-8 -22 -8 -26 3 -20 5 4 11 1 13 -6 3 -7 7 -8 10 -2 4 5
0 17 -7 27 -11 16 -13 16 -19 1z"/>
<path d="M3686 1162 c-3 -5 3 -20 14 -32 24 -27 25 -23 6 15 -8 14 -17 22 -20
17z"/>
<path d="M915 1150 c-3 -5 -1 -10 4 -10 6 0 11 5 11 10 0 6 -2 10 -4 10 -3 0
-8 -4 -11 -10z"/>
<path d="M870 1125 c-10 -12 -10 -15 4 -15 9 0 16 7 16 15 0 8 -2 15 -4 15 -2
0 -9 -7 -16 -15z"/>
<path d="M4010 1124 c0 -8 5 -12 10 -9 6 3 10 10 10 16 0 5 -4 9 -10 9 -5 0
-10 -7 -10 -16z"/>
<path d="M4225 1130 c3 -5 10 -10 16 -10 5 0 9 5 9 10 0 6 -7 10 -16 10 -8 0
-12 -4 -9 -10z"/>
<path d="M1115 1109 c-11 -17 1 -21 15 -4 8 9 8 15 2 15 -6 0 -14 -5 -17 -11z"/>
<path d="M4037 1113 c-4 -3 -7 -11 -7 -17 0 -6 5 -5 12 2 6 6 9 14 7 17 -3 3
-9 2 -12 -2z"/>
<path d="M1073 1073 c-12 -13 -19 -23 -14 -23 10 0 46 39 40 43 -2 2 -14 -7
-26 -20z"/>
<path d="M3820 1090 c-12 -7 -11 -13 10 -37 14 -15 26 -29 27 -31 0 -2 10 2
21 9 20 12 19 13 -10 41 -17 15 -31 28 -32 28 0 0 -8 -5 -16 -10z m40 -37 c0
-13 -3 -13 -15 -3 -8 7 -12 16 -9 21 8 13 24 1 24 -18z"/>
<path d="M3740 1087 c0 -2 14 -16 32 -33 31 -29 31 -29 12 -2 -16 23 -44 45
-44 35z"/>
<path d="M4055 1081 c-3 -5 -1 -12 4 -15 5 -3 11 1 15 9 6 16 -9 21 -19 6z"/>
<path d="M4290 1071 c0 -5 5 -13 10 -16 6 -3 10 -2 10 4 0 5 -4 13 -10 16 -5
3 -10 2 -10 -4z"/>
<path d="M872 1049 c-19 -30 -8 -34 12 -4 9 14 13 25 9 25 -5 0 -14 -9 -21
-21z"/>
<path d="M1304 1045 c-9 -14 -15 -28 -12 -30 2 -2 12 9 22 25 21 36 13 40 -10
5z"/>
<path d="M4087 1056 c-3 -8 -2 -18 3 -21 13 -8 24 15 12 27 -6 6 -11 4 -15 -6z"/>
<path d="M632 989 c-59 -56 -49 -58 13 -3 28 24 46 44 40 44 -5 0 -29 -19 -53
-41z"/>
<path d="M4132 1011 c4 -13 18 -16 19 -4 0 4 -5 9 -11 12 -7 2 -11 -2 -8 -8z"/>
<path d="M1040 999 c0 -5 5 -7 10 -4 6 3 10 8 10 11 0 2 -4 4 -10 4 -5 0 -10
-5 -10 -11z"/>
<path d="M1195 953 c-26 -32 -77 -90 -114 -129 -104 -111 -136 -148 -145 -164
-12 -25 147 147 278 300 26 31 39 50 32 50 -3 0 -26 -26 -51 -57z"/>
<path d="M1059 983 c-13 -16 -12 -17 4 -4 9 7 17 15 17 17 0 8 -8 3 -21 -13z"/>
<path d="M3908 993 c-14 -4 -15 -8 -5 -24 6 -10 17 -19 24 -19 17 0 17 17 1
24 -7 3 -2 3 11 0 17 -4 22 -2 19 7 -5 15 -23 20 -50 12z"/>
<path d="M1020 970 c0 -5 5 -10 10 -10 6 0 10 5 10 10 0 6 -4 10 -10 10 -5 0
-10 -4 -10 -10z"/>
<path d="M4175 969 c-10 -15 3 -25 16 -12 7 7 7 13 1 17 -6 3 -14 1 -17 -5z"/>
<path d="M1047 953 c-4 -3 -7 -11 -7 -17 0 -6 5 -5 12 2 6 6 9 14 7 17 -3 3
-9 2 -12 -2z"/>
<path d="M1095 949 c-10 -15 3 -25 16 -12 7 7 7 13 1 17 -6 3 -14 1 -17 -5z"/>
<path d="M3975 949 c-4 -6 1 -17 11 -24 29 -22 36 -18 18 10 -18 28 -20 29
-29 14z"/>
<path d="M4221 926 c-7 -8 -8 -17 -3 -20 6 -3 12 3 15 14 6 24 4 25 -12 6z"/>
<path d="M1060 920 c0 -5 5 -10 10 -10 6 0 10 5 10 10 0 6 -4 10 -10 10 -5 0
-10 -4 -10 -10z"/>
<path d="M4495 900 c-3 -5 -2 -10 4 -10 5 0 13 5 16 10 3 6 2 10 -4 10 -5 0
-13 -4 -16 -10z"/>
<path d="M645 880 c3 -5 8 -10 11 -10 2 0 4 5 4 10 0 6 -5 10 -11 10 -5 0 -7
-4 -4 -10z"/>
<path d="M3658 883 c7 -3 16 -2 19 1 4 3 -2 6 -13 5 -11 0 -14 -3 -6 -6z"/>
<path d="M4432 869 c-19 -30 -11 -32 11 -3 10 13 14 24 10 24 -5 0 -14 -9 -21
-21z"/>
<path d="M4040 870 c0 -5 7 -10 16 -10 8 0 12 5 9 10 -3 6 -10 10 -16 10 -5 0
-9 -4 -9 -10z"/>
<path d="M4615 845 c-25 -12 -26 -14 -5 -9 14 4 29 10 35 15 12 12 5 11 -30
-6z"/>
<path d="M3700 843 c0 -6 8 -17 18 -24 16 -13 16 -13 2 6 -8 11 -16 22 -17 24
-2 2 -3 0 -3 -6z"/>
<path d="M491 797 l-34 -42 38 37 c22 21 37 39 34 42 -2 2 -19 -14 -38 -37z"/>
<path d="M912 831 c2 -7 7 -12 11 -12 12 1 9 15 -3 20 -7 2 -11 -2 -8 -8z"/>
<path d="M4067 827 c-3 -8 3 -13 15 -14 10 -1 18 3 16 9 -6 18 -25 21 -31 5z"/>
<path d="M4540 805 c-13 -14 -19 -25 -13 -25 5 0 20 11 33 25 13 14 19 25 13
25 -5 0 -20 -11 -33 -25z"/>
<path d="M735 770 c10 -11 20 -20 22 -20 2 0 -2 9 -9 20 -7 11 -17 20 -22 20
-5 0 -1 -9 9 -20z"/>
<path d="M463 679 c-49 -55 -90 -106 -92 -112 -4 -15 -7 -17 108 111 51 56 88
102 82 102 -6 0 -50 -45 -98 -101z"/>
<path d="M4320 759 c0 -5 5 -7 10 -4 6 3 10 8 10 11 0 2 -4 4 -10 4 -5 0 -10
-5 -10 -11z"/>
<path d="M4390 714 c0 -8 5 -12 10 -9 6 3 10 10 10 16 0 5 -4 9 -10 9 -5 0
-10 -7 -10 -16z"/>
<path d="M4350 618 c1 -18 7 -58 15 -88 l15 -55 -7 55 c-4 30 -7 70 -8 88 0
17 -3 32 -7 32 -5 0 -8 -15 -8 -32z"/>
<path d="M319 513 c-13 -16 -12 -17 4 -4 9 7 17 15 17 17 0 8 -8 3 -21 -13z"/>
<path d="M3384 265 c0 -149 2 -211 3 -138 2 72 2 194 0 270 -1 76 -3 17 -3
-132z"/>
<path d="M1724 255 c0 -143 2 -200 3 -127 2 73 2 190 0 260 -1 70 -3 10 -3
-133z"/>
<path d="M1350 445 c-20 -24 -6 -28 15 -5 10 11 13 20 8 20 -6 0 -16 -7 -23
-15z"/>
<path d="M4359 393 c-13 -15 -12 -15 9 -4 23 12 28 21 13 21 -5 0 -15 -7 -22
-17z"/>
<path d="M1291 372 c-8 -9 -28 -33 -45 -52 -17 -19 -7 -13 22 15 28 27 52 51
52 52 0 9 -17 0 -29 -15z"/>
<path d="M965 350 c-3 -5 -1 -10 4 -10 6 0 11 5 11 10 0 6 -2 10 -4 10 -3 0
-8 -4 -11 -10z"/>
<path d="M1078 331 c-9 -11 -14 -22 -11 -25 4 -3 13 3 21 15 18 26 11 34 -10
10z"/>
<path d="M896 301 c-4 -7 -5 -15 -2 -18 9 -9 19 4 14 18 -4 11 -6 11 -12 0z"/>
<path d="M1040 290 c0 -5 5 -10 10 -10 6 0 10 5 10 10 0 6 -4 10 -10 10 -5 0
-10 -4 -10 -10z"/>
<path d="M1100 265 c0 -2 10 -10 23 -16 20 -11 21 -11 8 4 -13 16 -31 23 -31
12z"/>
<path d="M995 250 c3 -5 8 -10 11 -10 2 0 4 5 4 10 0 6 -5 10 -11 10 -5 0 -7
-4 -4 -10z"/>
<path d="M1160 221 c0 -5 5 -13 10 -16 6 -3 10 -2 10 4 0 5 -4 13 -10 16 -5 3
-10 2 -10 -4z"/>
<path d="M1200 151 c0 -6 5 -13 10 -16 6 -3 10 1 10 9 0 9 -4 16 -10 16 -5 0
-10 -4 -10 -9z"/>
</g>
</svg>
