<?xml version="1.0" standalone="no"?>
<!DOCTYPE svg PUBLIC "-//W3C//DTD SVG 20010904//EN"
 "http://www.w3.org/TR/2001/REC-SVG-20010904/DTD/svg10.dtd">
<svg version="1.0" xmlns="http://www.w3.org/2000/svg"
 width="512.000000pt" height="512.000000pt" viewBox="0 0 512.000000 512.000000"
 preserveAspectRatio="xMidYMid meet">
<metadata>
Created by potrace 1.16, written by Peter Selinger 2001-2019
</metadata>
<g transform="translate(0.000000,512.000000) scale(0.100000,-0.100000)"
fill="#000000" stroke="none">
<path d="M2557 5114 c-7 -7 2 -1819 12 -2239 5 -222 8 73 9 963 1 705 -2 1282
-6 1282 -5 0 -11 -3 -15 -6z"/>
<path d="M2068 3577 c6 -7 50 -39 99 -72 48 -33 94 -65 101 -72 16 -16 22 -16
22 -3 0 6 -14 19 -31 29 -17 10 -31 23 -32 27 -2 9 -152 104 -164 104 -3 0 -1
-6 5 -13z"/>
<path d="M3225 3237 c-176 -178 -363 -370 -415 -426 -52 -57 -123 -132 -156
-167 -34 -35 -58 -64 -54 -64 4 0 117 114 251 253 134 138 349 359 478 490
130 130 231 237 226 237 -6 0 -154 -145 -330 -323z"/>
<path d="M2257 3490 c16 -18 267 -28 277 -11 5 8 -23 11 -101 11 -59 0 -126 3
-148 6 -32 5 -38 4 -28 -6z"/>
<path d="M2778 3493 c7 -3 16 -2 19 1 4 3 -2 6 -13 5 -11 0 -14 -3 -6 -6z"/>
<path d="M2613 3483 c9 -2 25 -2 35 0 9 3 1 5 -18 5 -19 0 -27 -2 -17 -5z"/>
<path d="M2683 3483 c9 -2 23 -2 30 0 6 3 -1 5 -18 5 -16 0 -22 -2 -12 -5z"/>
<path d="M2300 3416 c0 -2 7 -9 15 -16 9 -7 15 -8 15 -2 0 5 -7 12 -15 16 -8
3 -15 4 -15 2z"/>
<path d="M1631 3005 c20 -58 72 -150 117 -212 25 -35 46 -63 47 -63 1 0 2 7 2
15 0 8 -4 15 -9 15 -4 0 -8 4 -8 10 0 5 -15 31 -34 57 -19 27 -48 75 -64 108
-17 33 -38 69 -47 80 -14 19 -14 18 -4 -10z"/>
<path d="M0 2560 c0 -7 432 -10 1275 -10 843 0 1275 3 1275 10 0 7 -432 10
-1275 10 -843 0 -1275 -3 -1275 -10z"/>
<path d="M2650 2560 c-36 -4 505 -7 1203 -8 839 -1 1267 1 1267 8 0 11 -2359
11 -2470 0z"/>
<path d="M2194 2164 c-203 -208 -373 -382 -379 -389 -5 -6 -41 -45 -80 -86
-69 -73 -69 -73 -10 -19 32 30 66 62 75 71 8 9 184 188 390 398 341 348 391
401 377 401 -2 0 -170 -169 -373 -376z"/>
<path d="M2567 2368 c-11 -142 -8 -2368 3 -2368 7 0 10 415 10 1225 0 674 -2
1225 -4 1225 -1 0 -6 -37 -9 -82z"/>
<path d="M3400 2342 c0 -5 12 -26 28 -46 15 -20 45 -61 66 -91 64 -90 52 -55
-14 44 -60 89 -80 112 -80 93z"/>
<path d="M2478 1733 c7 -3 16 -2 19 1 4 3 -2 6 -13 5 -11 0 -14 -3 -6 -6z"/>
<path d="M2600 1733 c0 -5 36 -8 79 -8 44 0 83 3 87 8 4 4 -32 7 -79 7 -48 0
-87 -3 -87 -7z"/>
<path d="M2788 1723 c7 -3 16 -2 19 1 4 3 -2 6 -13 5 -11 0 -14 -3 -6 -6z"/>
<path d="M2979 1635 c157 -94 203 -108 70 -22 -102 66 -179 107 -199 107 -8 0
50 -38 129 -85z"/>
</g>
</svg>
