<?xml version="1.0" standalone="no"?>
<!DOCTYPE svg PUBLIC "-//W3C//DTD SVG 20010904//EN"
 "http://www.w3.org/TR/2001/REC-SVG-20010904/DTD/svg10.dtd">
<svg version="1.0" xmlns="http://www.w3.org/2000/svg"
 width="512.000000pt" height="512.000000pt" viewBox="0 0 512.000000 512.000000"
 preserveAspectRatio="xMidYMid meet">
<metadata>
Created by potrace 1.16, written by Peter Selinger 2001-2019
</metadata>
<g transform="translate(0.000000,512.000000) scale(0.100000,-0.100000)"
fill="#000000" stroke="none">
<path d="M1300 5115 c0 -6 10 -28 181 -393 66 -139 119 -255 119 -257 0 -3 82
-174 263 -550 51 -104 110 -221 131 -260 22 -38 50 -95 62 -125 23 -54 44 -76
44 -45 0 19 -41 118 -52 126 -4 3 -12 27 -17 55 -11 58 -58 174 -134 334 -30
63 -73 155 -96 204 -143 300 -411 892 -411 905 0 6 -4 11 -10 11 -18 0 -11
-27 29 -117 21 -48 48 -110 60 -138 13 -27 29 -63 36 -80 16 -32 57 -127 60
-135 1 -3 29 -63 63 -133 34 -70 62 -131 62 -135 0 -4 11 -29 25 -57 14 -27
27 -60 30 -73 2 -13 8 -29 13 -35 20 -26 64 -113 68 -136 3 -13 16 -44 29 -70
14 -25 25 -50 25 -56 -1 -20 -69 121 -70 144 0 13 -3 21 -6 18 -4 -4 -24 28
-45 71 -20 42 -52 106 -69 142 -18 36 -69 146 -115 245 -46 99 -109 234 -140
300 -31 66 -68 143 -81 171 -13 28 -24 56 -24 62 0 7 -7 12 -15 12 -8 0 -15
-2 -15 -5z m599 -1177 c-2 -12 20 -65 41 -98 5 -8 17 -33 26 -55 10 -22 19
-43 21 -47 2 -5 2 -8 -1 -8 -9 0 -105 203 -100 211 8 13 15 11 13 -3z"/>
<path d="M2550 5010 c0 -93 3 -110 18 -119 9 -6 11 -11 5 -11 -10 0 -13 -32
-13 -124 0 -113 2 -124 18 -122 16 3 17 23 20 244 l2 242 -25 0 -25 0 0 -110z"/>
<path d="M3725 5033 c-21 -49 -74 -162 -118 -253 -87 -182 -197 -426 -197
-439 0 -4 8 -15 19 -25 17 -16 19 -15 35 8 9 14 16 27 16 29 0 3 51 110 114
238 133 275 246 514 246 523 0 19 -23 1 -35 -28 -8 -19 -54 -115 -101 -213
-160 -329 -226 -468 -235 -492 -5 -13 -12 -21 -15 -18 -5 5 13 54 54 147 8 19
51 109 94 200 84 174 115 240 143 305 9 22 23 52 30 67 12 25 10 38 -5 38 -3
0 -23 -39 -45 -87z"/>
<path d="M2560 4530 c0 -63 2 -70 20 -70 15 0 20 7 20 25 0 14 -4 25 -9 25 -5
0 -6 20 -3 45 4 37 2 45 -12 45 -13 0 -16 -12 -16 -70z"/>
<path d="M2557 4433 c-2 -5 -4 -32 -5 -60 0 -39 4 -53 14 -53 10 0 14 15 14
54 0 49 -12 79 -23 59z"/>
<path d="M2539 4283 c-1 -10 1 -121 7 -378 2 -110 4 -253 4 -318 0 -101 2
-118 15 -115 14 3 16 52 15 401 0 218 0 402 0 407 0 11 -40 14 -41 3z"/>
<path d="M3362 4230 c-6 -22 -12 -50 -12 -62 0 -12 -3 -18 -7 -15 -7 8 -33
-38 -33 -59 0 -8 -4 -14 -10 -14 -5 0 -10 -9 -10 -20 0 -11 -4 -20 -10 -20 -5
0 -10 -11 -10 -24 0 -13 -3 -26 -8 -28 -13 -5 -111 -215 -148 -318 -18 -49
-21 -66 -11 -72 17 -11 27 -10 27 3 0 16 75 188 167 383 104 220 117 254 102
272 -18 21 -23 17 -37 -26z"/>
<path d="M1844 4246 c-3 -8 5 -34 18 -58 13 -24 46 -95 72 -158 60 -143 136
-303 142 -297 3 2 0 17 -7 33 -6 16 -15 38 -19 49 -19 46 -143 343 -161 382
-10 24 -19 47 -19 53 0 15 -20 12 -26 -4z"/>
<path d="M588 3865 c-17 -23 -17 -24 13 -49 17 -14 35 -26 41 -26 5 0 23 -9
39 -21 16 -11 29 -17 29 -12 0 5 -15 17 -32 28 -18 10 -45 28 -59 40 -22 18
-24 23 -11 35 12 11 20 10 48 -5 44 -23 54 -14 16 14 -39 27 -63 26 -84 -4z"/>
<path d="M740 3800 c0 -5 5 -10 10 -10 6 0 10 5 10 10 0 6 -4 10 -10 10 -5 0
-10 -4 -10 -10z"/>
<path d="M787 3769 c7 -7 15 -10 18 -7 3 3 -2 9 -12 12 -14 6 -15 5 -6 -5z"/>
<path d="M785 3710 c3 -5 8 -10 11 -10 2 0 4 5 4 10 0 6 -5 10 -11 10 -5 0 -7
-4 -4 -10z"/>
<path d="M2059 3685 c0 -6 -2 -22 -4 -38 -2 -15 0 -25 5 -22 5 3 13 -7 16 -22
12 -48 53 -133 65 -133 12 0 8 15 -34 125 -30 78 -46 109 -48 90z"/>
<path d="M1022 3638 c-7 -7 -12 -15 -12 -18 0 -9 269 -188 633 -420 l47 -30 0
28 c0 23 -8 33 -41 52 -23 12 -74 45 -113 72 -157 108 -188 128 -192 128 -6 0
-254 168 -275 186 -19 17 -31 18 -47 2z m163 -116 c-3 -3 -11 0 -18 7 -9 10
-8 11 6 5 10 -3 15 -9 12 -12z m390 -250 c-3 -3 -11 0 -18 7 -9 10 -8 11 6 5
10 -3 15 -9 12 -12z"/>
<path d="M2990 3627 c0 -13 -9 -42 -20 -65 -25 -50 -26 -85 -4 -80 13 2 74
134 74 161 0 4 -11 7 -25 7 -19 0 -25 -5 -25 -23z"/>
<path d="M4114 3631 c4 -5 1 -12 -4 -14 -6 -3 -5 -4 2 -3 15 3 23 26 8 26 -6
0 -9 -4 -6 -9z"/>
<path d="M4197 3533 c-10 -10 -8 -33 2 -33 6 0 9 9 8 20 -1 23 -1 22 -10 13z"/>
<path d="M992 3494 c-12 -13 -9 -17 17 -27 17 -6 31 -15 31 -19 0 -4 5 -8 11
-8 7 0 39 -17 73 -39 65 -41 106 -58 106 -44 0 5 -17 17 -37 28 -21 11 -42 24
-48 28 -5 4 -36 24 -67 43 -32 20 -58 40 -58 45 0 13 -13 10 -28 -7z"/>
<path d="M2555 3452 l-840 -2 3 -420 4 -420 -584 0 c-599 0 -688 -3 -688 -25
0 -7 -7 -16 -15 -19 -13 -4 -14 -10 -5 -26 10 -19 20 -20 343 -20 183 0 469
-3 637 -7 l305 -6 0 -401 c0 -221 3 -402 8 -403 4 -2 387 -3 850 -3 l844 0 0
403 0 402 184 6 c101 4 390 7 642 8 297 1 457 4 457 11 0 17 -996 18 -1220 1
l-85 -6 -3 -402 -2 -403 -825 0 -825 0 0 393 c0 215 -4 398 -9 406 -10 16 -30
17 -761 26 -277 3 -505 7 -506 8 -2 1 1 9 6 16 7 12 106 14 604 12 327 -1 611
1 631 5 l35 6 0 419 0 419 825 0 825 0 0 -415 0 -415 26 -10 c14 -6 62 -9 107
-8 45 1 330 1 632 0 303 -2 557 -2 565 -2 9 1 4 6 -10 13 -18 8 -213 12 -660
15 l-635 4 0 420 c0 274 -4 422 -10 422 -5 1 -388 0 -850 -2z"/>
<path d="M1240 3335 c0 -9 4 -14 9 -11 5 4 11 3 13 -1 1 -5 31 -23 66 -40 47
-25 59 -29 51 -15 -6 10 -36 31 -67 48 -73 38 -72 38 -72 19z"/>
<path d="M3765 3313 c-42 -22 -220 -129 -277 -166 -34 -22 -48 -37 -48 -53 0
-22 4 -20 81 26 44 28 85 50 90 50 5 0 9 4 9 8 0 5 17 18 38 29 98 54 162 97
162 110 0 17 -18 16 -55 -4z"/>
<path d="M1460 3241 c0 -18 115 -111 138 -111 12 0 25 -7 29 -15 3 -9 18 -22
34 -31 26 -13 29 -13 29 1 0 21 -17 38 -57 56 -18 7 -33 17 -33 21 0 5 -6 8
-12 8 -7 0 -35 18 -63 40 -51 41 -65 47 -65 31z"/>
<path d="M1407 3223 c-13 -12 -7 -19 29 -32 45 -16 53 -9 18 18 -28 22 -37 25
-47 14z"/>
<path d="M2235 3041 c-67 -17 -101 -51 -125 -126 -19 -58 -15 -488 5 -545 36
-102 98 -144 205 -138 58 3 72 8 109 38 56 43 72 84 79 191 l5 87 76 8 c74 9
76 10 81 39 4 26 10 30 43 33 35 3 43 10 98 84 32 45 59 79 59 77 0 -3 -18
-108 -40 -235 -40 -223 -48 -289 -39 -299 3 -2 29 126 58 286 29 160 56 299
58 310 12 45 -20 12 -89 -90 l-73 -110 -45 -3 c-44 -3 -45 -4 -45 -38 l0 -35
-78 -3 -78 -3 7 27 c6 22 4 26 -9 21 -8 -3 -18 -3 -21 1 -9 9 -96 9 -96 0 0
-4 17 -10 38 -13 80 -14 75 -5 70 -124 -3 -88 -7 -113 -26 -146 -35 -61 -66
-79 -143 -83 -77 -5 -115 10 -153 60 -41 55 -48 105 -44 358 3 263 8 280 79
328 29 20 44 23 104 20 133 -6 175 -64 183 -250 3 -65 9 -118 13 -118 5 0 8 5
7 12 -4 14 34 26 84 27 36 1 40 5 109 109 40 59 92 133 116 165 l44 57 100 0
101 0 -7 -42 c-3 -24 -19 -113 -35 -198 -47 -248 -91 -522 -86 -527 8 -9 32
96 65 282 18 99 43 239 57 310 13 72 23 144 22 160 l-3 30 -113 3 -113 3 -30
-33 c-25 -28 -80 -108 -184 -270 -19 -30 -27 -34 -90 -40 l-30 -3 -6 100 c-3
55 -12 114 -18 130 -15 36 -56 82 -91 100 -32 17 -126 26 -165 16z"/>
<path d="M960 2896 c0 -3 9 -10 20 -16 11 -6 20 -8 20 -6 0 3 -9 10 -20 16
-11 6 -20 8 -20 6z"/>
<path d="M2260 2880 c-7 -14 -10 -102 -8 -261 3 -200 5 -241 18 -249 23 -15
57 -12 76 7 15 15 16 38 10 244 -6 226 -10 257 -30 271 -21 14 -55 8 -66 -12z
m65 -43 c3 -18 7 -124 8 -236 2 -180 0 -205 -15 -214 -12 -8 -21 -7 -32 2 -14
12 -16 45 -16 233 0 129 4 227 10 238 14 27 38 14 45 -23z"/>
<path d="M1070 2866 c0 -2 7 -7 16 -10 8 -3 12 -2 9 4 -6 10 -25 14 -25 6z"/>
<path d="M1130 2850 c14 -4 32 -8 40 -9 13 -1 13 0 0 9 -8 5 -26 9 -40 9 l-25
-1 25 -8z"/>
<path d="M2370 2651 c0 -11 25 -21 55 -21 36 0 39 17 4 24 -43 8 -59 8 -59 -3z"/>
<path d="M0 2591 c0 -9 296 -21 314 -12 4 2 2 7 -5 12 -19 12 -309 11 -309 0z"/>
<path d="M4863 2593 c-24 -2 -43 -9 -43 -15 0 -7 -5 -7 -14 1 -10 9 -15 8 -19
-3 -3 -8 -3 -17 0 -20 10 -9 68 -7 79 3 8 8 133 19 227 21 15 0 27 5 27 10 0
10 -162 11 -257 3z"/>
<path d="M298 2549 c-9 -5 -80 -10 -157 -10 -117 -1 -141 -4 -141 -16 0 -13
23 -14 163 -8 89 4 164 9 165 10 2 2 0 10 -5 19 -6 10 -13 12 -25 5z"/>
<path d="M4853 2537 c-3 -5 -3 -10 -2 -11 10 -8 269 -15 269 -8 0 11 -260 29
-267 19z"/>
<path d="M3650 2270 c63 -16 126 -31 140 -34 69 -13 88 -16 118 -20 19 -3 31
-2 27 2 -4 4 -10 7 -13 8 -4 0 -29 4 -57 8 -27 4 -54 7 -60 8 -5 0 -18 4 -27
9 -10 5 -30 11 -45 14 -15 3 -48 9 -73 14 -110 23 -115 18 -10 -9z"/>
<path d="M2819 2249 c-9 -6 7 -9 45 -9 33 0 56 3 52 7 -10 10 -82 12 -97 2z"/>
<path d="M1681 2214 c0 -11 3 -14 6 -6 3 7 2 16 -1 19 -3 4 -6 -2 -5 -13z"/>
<path d="M3950 2210 c0 -4 17 -10 38 -13 20 -3 48 -9 62 -12 l25 -6 -25 12
c-34 15 -100 28 -100 19z"/>
<path d="M4080 2180 c0 -5 14 -10 32 -10 36 0 35 4 -4 14 -17 4 -28 2 -28 -4z"/>
<path d="M4178 2158 c6 -6 18 -8 28 -6 14 3 12 5 -9 10 -19 3 -25 2 -19 -4z"/>
<path d="M1640 2069 c-19 -12 -40 -28 -46 -37 -6 -8 -16 -12 -22 -8 -11 7 -17
-6 -13 -27 1 -5 -4 -5 -10 -2 -12 8 -89 -25 -89 -37 0 -5 -6 -8 -14 -8 -8 0
-16 -4 -18 -8 -3 -9 -41 -32 -181 -108 -44 -24 -84 -47 -90 -52 -7 -5 -57 -33
-112 -62 -125 -65 -129 -69 -114 -87 10 -11 14 -11 28 1 9 7 50 32 91 54 95
50 139 75 187 105 21 13 73 42 116 65 43 22 84 46 92 52 8 7 31 17 52 24 21 6
73 34 115 61 59 38 78 55 78 73 0 27 -6 27 -50 1z"/>
<path d="M2220 2061 c-6 -12 -3 -42 9 -95 21 -85 18 -81 47 -90 30 -9 53 14
63 64 l9 45 1 -37 c2 -65 6 -68 82 -68 40 0 69 4 69 10 0 6 10 4 23 -4 32 -21
67 -10 67 21 0 22 3 23 38 17 46 -8 52 -12 52 -30 0 -10 12 -14 40 -14 36 0
40 3 40 25 0 14 5 25 10 25 6 0 10 -4 10 -9 0 -20 33 -41 65 -41 53 0 71 35
57 103 -7 29 -13 61 -14 72 -2 15 -12 21 -38 23 -38 4 -60 -16 -60 -55 0 -16
-6 -23 -20 -23 -16 0 -20 7 -20 35 0 39 -15 51 -54 41 -14 -3 -28 -18 -36 -38
-19 -47 -28 -57 -49 -51 -14 3 -18 14 -17 41 1 35 -1 37 -32 40 -23 2 -38 -2
-46 -14 -12 -16 -13 -15 -18 4 -5 19 -13 20 -137 20 -116 1 -132 -1 -141 -17z
m51 -43 c0 -24 4 -52 9 -63 6 -15 10 -4 15 43 6 53 11 62 27 62 14 0 18 -5 14
-15 -3 -8 -11 -44 -17 -80 -6 -36 -15 -67 -19 -70 -21 -13 -38 10 -49 70 -6
35 -14 71 -17 80 -4 10 0 15 15 15 18 0 21 -6 22 -42z m153 -10 l26 -53 -4 53
c-3 44 -1 52 15 52 15 0 18 -11 21 -80 3 -77 2 -80 -19 -80 -15 0 -23 6 -23
18 -1 9 -10 33 -21 52 l-20 35 4 -52 c4 -46 2 -53 -14 -53 -17 0 -19 9 -19 80
0 98 16 106 54 28z m149 2 l-5 -46 63 2 c40 1 65 6 67 14 3 8 -2 10 -18 5 -16
-5 -21 -4 -18 6 3 8 13 13 22 13 9 -1 16 2 16 7 0 5 -4 9 -10 9 -16 0 -11 27
6 34 30 11 34 6 27 -40 l-6 -47 36 7 c30 6 37 4 37 -9 0 -11 -10 -15 -35 -15
-39 0 -42 -5 -18 -32 15 -17 14 -18 -16 -18 -28 0 -31 3 -26 23 6 22 4 22 -60
22 -64 0 -66 -1 -63 -25 2 -20 -2 -26 -20 -28 -23 -3 -23 -2 -21 75 1 43 3 80
5 83 1 3 12 6 23 6 17 0 19 -5 14 -46z m297 36 c0 -8 -6 -16 -12 -19 -10 -3
-9 -9 4 -23 16 -18 23 -49 20 -86 -2 -14 -11 -18 -37 -18 -28 0 -36 4 -41 24
-7 29 1 46 22 46 19 0 18 19 -1 26 -15 6 -21 45 -8 57 12 13 53 7 53 -7z
m-363 -48 c-3 -7 -5 -2 -5 12 0 14 2 19 5 13 2 -7 2 -19 0 -25z"/>
<path d="M2837 1953 c-13 -12 -7 -33 8 -33 8 0 15 9 15 20 0 20 -11 26 -23 13z"/>
<path d="M3440 1910 c0 -14 79 -62 93 -56 7 2 5 5 -5 5 -9 1 -18 4 -20 9 -6
14 -68 53 -68 42z"/>
<path d="M2018 1658 c-29 -44 -31 -65 -6 -71 12 -4 22 -5 23 -4 0 1 8 19 18
40 9 21 17 42 17 47 0 19 -38 10 -52 -12z"/>
<path d="M2153 1668 c-6 -7 -18 -38 -27 -68 -10 -30 -21 -64 -26 -75 -13 -27
-40 -108 -40 -118 0 -5 5 -7 11 -5 7 2 31 58 54 123 23 66 46 128 50 138 8 20
-8 23 -22 5z"/>
<path d="M2555 1348 c4 -183 8 -334 10 -336 1 -1 8 0 16 3 12 4 13 53 8 298
-4 160 -7 309 -8 330 -1 27 -5 37 -17 37 -15 0 -15 -31 -9 -332z"/>
<path d="M3000 1672 c0 -4 4 -12 9 -17 18 -19 103 -191 121 -245 32 -99 51
-130 79 -130 25 0 25 0 5 19 -11 10 -26 34 -33 52 -7 19 -20 50 -29 69 -9 19
-18 40 -20 45 -4 12 27 -24 45 -51 7 -11 3 4 -10 31 -12 28 -25 52 -29 53 -5
2 -8 8 -8 13 0 18 -50 117 -65 129 -8 7 -15 19 -15 26 0 8 -10 14 -25 14 -14
0 -25 -4 -25 -8z"/>
<path d="M3140 1674 c0 -12 21 -44 29 -44 14 0 1 38 -15 44 -8 3 -14 3 -14 0z"/>
<path d="M1690 1655 c0 -13 4 -14 20 -5 11 6 20 13 20 15 0 3 -9 5 -20 5 -11
0 -20 -7 -20 -15z"/>
<path d="M1666 1625 c-3 -8 -1 -15 4 -15 6 0 10 7 10 15 0 8 -2 15 -4 15 -2 0
-6 -7 -10 -15z"/>
<path d="M3193 1590 c6 -16 15 -30 19 -30 5 0 2 14 -7 30 -9 17 -17 30 -19 30
-3 0 1 -13 7 -30z"/>
<path d="M3231 1524 c0 -11 3 -14 6 -6 3 7 2 16 -1 19 -3 4 -6 -2 -5 -13z"/>
<path d="M3997 1529 c7 -7 15 -10 18 -7 3 3 -2 9 -12 12 -14 6 -15 5 -6 -5z"/>
<path d="M1967 1508 c-3 -12 -2 -29 3 -37 7 -13 11 -11 19 12 11 28 8 47 -8
47 -5 0 -11 -10 -14 -22z"/>
<path d="M4060 1491 c0 -6 9 -15 20 -21 13 -7 20 -7 20 -1 0 6 -9 15 -20 21
-13 7 -20 7 -20 1z"/>
<path d="M1938 1418 c-10 -7 -29 -35 -43 -62 -23 -44 -25 -51 -11 -64 9 -9 17
-14 19 -11 1 2 15 32 31 65 31 67 32 93 4 72z"/>
<path d="M612 1411 c-10 -6 -8 -10 10 -14 22 -6 22 -7 -12 -32 -44 -32 -72
-40 -99 -25 -24 12 -27 3 -8 -22 12 -16 17 -15 67 10 29 14 64 36 76 49 l23
23 -22 0 c-18 0 -19 2 -7 10 13 9 13 10 0 10 -8 0 -21 -4 -28 -9z"/>
<path d="M3295 1260 c-6 -10 15 -50 26 -50 11 0 19 29 13 45 -7 17 -30 20 -39
5z"/>
<path d="M3190 1234 c0 -4 24 -57 53 -118 30 -61 57 -123 61 -138 7 -31 21
-36 30 -13 3 8 2 15 -3 15 -7 0 -35 54 -36 70 0 3 -9 17 -19 32 -10 15 -15 32
-12 37 4 5 2 12 -4 16 -5 3 -18 25 -29 49 -17 39 -41 68 -41 50z"/>
<path d="M1821 1221 c-15 -4 -27 -17 -31 -31 -4 -14 -23 -56 -42 -95 -20 -38
-78 -162 -131 -275 -52 -113 -124 -266 -159 -340 -36 -74 -82 -175 -103 -225
-21 -50 -57 -127 -80 -173 -32 -64 -38 -82 -26 -82 15 0 61 91 142 275 27 62
104 226 171 365 29 58 66 139 85 180 18 41 33 70 33 63 0 -11 -108 -266 -160
-378 -15 -33 -60 -130 -98 -215 -39 -85 -82 -178 -96 -206 -30 -60 -35 -94
-11 -74 8 7 15 16 15 20 0 5 18 46 39 92 136 290 169 364 281 623 152 351 191
438 207 461 17 26 11 28 -36 15z"/>
<path d="M3373 1184 c3 -17 37 -96 76 -177 39 -81 71 -151 71 -156 0 -10 47
-121 238 -564 66 -153 123 -281 126 -284 3 -4 8 -4 11 -2 4 5 -48 143 -80 214
-8 17 -36 82 -63 145 -27 63 -82 186 -122 273 -74 165 -89 223 -24 96 21 -41
38 -76 39 -79 0 -3 22 -49 48 -104 26 -54 47 -100 47 -103 0 -2 23 -52 50
-110 28 -58 50 -107 50 -110 0 -3 16 -36 35 -74 19 -39 35 -77 35 -85 0 -21
30 -64 45 -64 9 0 4 20 -17 63 -17 34 -77 166 -133 292 -130 291 -197 433
-245 515 -20 36 -68 125 -105 198 -69 136 -93 169 -82 116z"/>
<path d="M3317 1180 c3 -11 7 -20 9 -20 2 0 4 9 4 20 0 11 -4 20 -9 20 -5 0
-7 -9 -4 -20z"/>
<path d="M2572 768 c3 -170 3 -173 25 -176 l23 -3 -3 173 c-2 172 -2 173 -25
176 l-22 3 2 -173z"/>
<path d="M2560 451 c0 -56 4 -101 9 -101 5 0 16 -3 25 -6 14 -5 16 7 16 95 0
56 -4 101 -9 101 -5 0 -16 3 -25 6 -14 5 -16 -7 -16 -95z"/>
<path d="M2555 302 c-10 -10 -5 -302 5 -302 6 0 10 51 10 132 0 152 7 169 11
24 3 -118 8 -156 20 -156 6 0 8 65 7 152 -3 149 -3 151 -26 153 -12 1 -24 -1
-27 -3z"/>
</g>
</svg>
