<?xml version="1.0" standalone="no"?>
<!DOCTYPE svg PUBLIC "-//W3C//DTD SVG 20010904//EN"
 "http://www.w3.org/TR/2001/REC-SVG-20010904/DTD/svg10.dtd">
<svg version="1.0" xmlns="http://www.w3.org/2000/svg"
 width="512.000000pt" height="768.000000pt" viewBox="0 0 512.000000 768.000000"
 preserveAspectRatio="xMidYMid meet">
<metadata>
Created by potrace 1.16, written by Peter Selinger 2001-2019
</metadata>
<g transform="translate(0.000000,768.000000) scale(0.100000,-0.100000)"
fill="#000000" stroke="none">
<path d="M0 3840 l0 -3840 308 0 307 1 -42 39 c-55 52 -39 52 19 0 l46 -40
1930 0 1931 0 47 50 c26 28 53 58 60 68 7 9 14 12 14 6 0 -5 -9 -20 -20 -32
-12 -12 -16 -22 -9 -22 22 0 79 51 93 83 14 30 14 31 15 7 0 -14 -6 -34 -14
-44 -8 -11 -15 -17 -15 -14 0 4 -11 -3 -25 -15 -22 -20 -23 -23 -8 -35 9 -6
12 -12 6 -12 -7 0 -15 4 -18 10 -11 18 -50 10 -78 -15 -15 -14 -27 -28 -27
-30 0 -3 135 -5 300 -5 l300 0 0 3840 0 3840 -2560 0 -2560 0 0 -3840z m729
3443 l1 -233 -40 0 c-21 0 -42 5 -46 12 -4 6 -3 8 3 5 6 -4 22 5 36 19 18 17
27 21 30 12 3 -7 6 3 6 23 1 19 -4 40 -11 47 -7 7 -8 12 -2 12 12 0 5 81 -8
98 -7 8 -7 12 1 12 15 0 14 83 -1 98 -10 10 -10 15 0 21 8 5 13 24 12 47 -3
70 -1 91 10 74 5 -8 9 -119 9 -247z m-44 237 c3 -5 2 -10 -4 -10 -5 0 -13 5
-16 10 -3 6 -2 10 4 10 5 0 13 -4 16 -10z m1769 -84 c-6 -15 -24 -23 -24 -11
0 8 24 34 28 30 1 -1 0 -10 -4 -19z m-34 -6 c0 -5 -2 -10 -4 -10 -3 0 -8 5
-11 10 -3 6 -1 10 4 10 6 0 11 -4 11 -10z m5 -40 c-2 -8 -10 -42 -20 -75 -9
-33 -19 -113 -22 -178 -3 -65 -10 -120 -15 -123 -5 -3 -2 -15 8 -25 23 -25 16
-29 -21 -13 -16 7 -24 13 -17 14 20 0 15 58 -5 63 -13 3 -11 5 7 7 23 1 23 2
5 10 -13 6 -15 9 -5 9 10 1 15 11 15 31 0 23 -5 30 -20 31 -18 1 -18 2 -2 6
14 4 16 8 6 19 -9 11 -8 14 5 14 25 0 21 47 -5 55 -25 8 -20 29 8 33 23 3 38
41 23 56 -17 17 -11 36 11 36 17 0 20 5 17 23 -3 17 0 23 13 23 10 0 16 -7 14
-16z m2082 -282 c-3 -7 -5 -2 -5 12 0 14 2 19 5 13 2 -7 2 -19 0 -25z m-3921
-74 c-36 -35 -3 -92 70 -120 39 -15 47 -15 55 -3 13 20 11 29 -5 29 -8 0 -18
4 -21 10 -4 6 2 7 17 1 21 -8 23 -14 22 -80 -2 -92 -6 -101 -46 -101 -27 0
-30 2 -16 13 19 15 29 55 19 81 -4 10 -25 29 -47 41 -52 29 -83 83 -66 119 6
14 16 26 22 26 7 0 4 -7 -4 -16z m4031 -16 c-3 -8 -6 -5 -6 6 -1 11 2 17 5 13
3 -3 4 -12 1 -19z m-17 -37 c-5 -11 -15 -23 -21 -27 -6 -3 -3 5 6 20 20 30 30
35 15 7z m-3940 -21 c0 -5 -9 -6 -20 -3 -20 5 -25 15 -13 26 7 8 33 -11 33
-23z m1720 -29 c0 -6 -4 -12 -8 -15 -5 -3 -9 1 -9 9 0 8 4 15 9 15 4 0 8 -4 8
-9z m2165 -11 c-10 -11 -22 -17 -28 -13 -5 3 1 12 14 19 33 18 35 17 14 -6z
m-41 -19 c3 -5 -3 -11 -14 -14 -20 -5 -20 -16 -14 -1201 4 -657 4 -1202 0
-1212 -5 -13 -9 -14 -22 -3 -11 9 -15 30 -14 78 3 134 3 134 -25 129 l-25 -5
0 116 c-1 604 1 1371 4 1431 2 41 4 122 5 179 1 95 2 103 16 85 18 -24 19 -38
3 -28 -9 5 -9 2 1 -9 7 -9 9 -17 4 -17 -5 0 -8 -35 -6 -77 2 -43 6 -422 9
-843 4 -421 8 -767 10 -769 2 -2 4 274 4 615 0 340 2 756 4 924 3 168 5 378 5
468 l1 162 24 0 c14 0 27 -4 30 -9z m-3784 -543 c0 -144 3 -264 5 -267 3 -2 5
109 5 249 0 231 1 251 16 239 11 -9 12 -15 5 -17 -8 -3 -9 -8 -1 -17 14 -17
15 -1928 0 -1955 -5 -10 -10 -32 -10 -47 0 -27 -3 -29 -36 -29 l-36 0 6 1041
c3 572 5 1043 6 1047 0 3 8 9 18 11 9 3 18 5 19 6 1 0 2 -117 3 -261z m100
-454 c-6 -14 -17 -36 -25 -47 -12 -17 -15 -18 -15 -5 0 9 7 24 16 32 8 9 12
16 8 16 -3 0 -1 7 6 15 18 22 21 19 10 -11z m1805 -535 c-4 -5 1 -9 9 -9 25 0
19 -48 -8 -75 -19 -18 -33 -24 -63 -22 -24 2 -37 7 -35 15 1 6 -3 11 -9 10
-21 -5 -18 34 4 64 19 26 27 29 60 25 24 -3 35 -2 30 5 -3 7 -1 8 6 4 6 -4 9
-12 6 -17z m1800 -709 c3 -5 1 -10 -6 -10 -9 0 -9 -3 0 -14 10 -11 8 -15 -5
-18 -16 -3 -17 -4 -1 -20 19 -18 23 -73 7 -83 -5 -3 -10 -1 -10 5 0 6 -7 18
-15 26 -11 12 -12 20 -5 35 8 13 7 19 0 19 -8 0 -8 6 0 20 6 10 10 23 9 27 -4
23 14 32 26 13z m-3659 -464 c8 -8 14 -18 14 -22 0 -4 -3 -4 -6 -1 -4 3 -15
-5 -26 -18 -11 -14 -28 -25 -39 -25 -16 0 -17 3 -7 19 7 11 16 17 20 15 4 -3
8 0 8 5 0 6 -6 11 -12 11 -8 0 -5 7 6 15 24 18 24 18 42 1z m3714 -39 c1 -125
-1 -1952 -3 -2343 -1 -377 -5 -510 -13 -507 -7 2 -15 18 -18 35 -3 17 -6 424
-6 906 0 481 -2 873 -4 871 -2 -2 -6 -404 -9 -894 -3 -490 -6 -891 -7 -893 0
-2 -4 -1 -9 2 -19 12 -22 246 -24 1519 -2 991 1 1309 10 1315 6 4 28 8 47 9
31 1 36 -2 36 -20z m-3769 -71 c-8 -9 -4 -12 12 -12 12 1 22 -3 22 -9 0 -5 -6
-9 -12 -9 -7 1 -13 -4 -13 -12 0 -8 8 -14 18 -14 13 0 18 -9 19 -40 2 -42 -11
-51 -36 -27 -11 10 -14 10 -18 0 -7 -18 -23 -16 -23 2 0 8 15 24 33 35 20 13
26 20 15 20 -9 0 -20 -4 -23 -10 -3 -5 -11 -10 -17 -10 -6 0 -5 7 3 17 12 14
12 16 0 8 -11 -6 -12 -1 -6 31 8 47 13 56 26 48 7 -4 6 -10 0 -18z m39 14 c0
-5 -2 -10 -4 -10 -3 0 -8 5 -11 10 -3 6 -1 10 4 10 6 0 11 -4 11 -10z m-50
-168 c0 -4 10 -8 21 -9 12 -1 24 -5 28 -8 8 -9 17 -1647 13 -2593 -2 -650 -4
-742 -17 -742 -14 0 -19 84 -18 283 0 15 -3 27 -7 27 -4 0 -6 -70 -3 -155 l5
-155 -29 -10 c-50 -17 -78 -35 -81 -52 -4 -23 33 -58 61 -58 l22 0 -25 20
c-20 15 -21 20 -8 20 9 0 19 -4 23 -10 3 -5 12 -7 19 -4 12 5 15 -25 18 -163
4 -163 3 -169 -19 -194 -13 -14 -23 -32 -24 -40 0 -10 -2 -10 -6 -1 -2 6 -9
10 -14 6 -5 -3 -9 -1 -9 5 0 5 5 13 10 16 6 3 10 11 10 17 0 7 -6 6 -15 -2
-13 -10 -15 -9 -15 10 0 16 4 21 16 16 37 -14 43 10 38 137 -3 67 -7 127 -9
133 -2 6 -16 14 -33 17 -20 4 -34 16 -45 39 -20 41 -8 64 47 92 l38 19 -6 76
c-3 42 -6 81 -6 86 0 17 -47 16 -60 0 -7 -8 -18 -15 -24 -15 -23 0 -57 -46
-49 -66 6 -16 5 -17 -9 -6 -20 16 -32 55 -14 49 7 -3 39 13 71 34 33 21 66 39
74 39 12 0 13 220 6 1519 -3 836 -3 1545 0 1575 4 31 11 56 16 56 5 0 9 -4 9
-8z m1578 -2677 c25 -5 42 -13 42 -21 0 -8 -2 -14 -4 -14 -2 0 -12 -3 -22 -7
-12 -4 -15 -3 -10 5 5 8 2 10 -8 6 -14 -5 -16 -33 -16 -185 0 -136 -3 -179
-12 -179 -9 0 -8 -4 2 -10 9 -6 10 -10 3 -10 -6 0 -18 -3 -27 -6 -13 -5 -13
-2 -3 19 6 14 15 23 19 21 5 -3 8 -1 8 5 0 9 -38 27 -50 24 -6 -2 -8 18 -16
208 l-6 156 28 -2 c16 -2 48 -6 72 -10z m932 -9 c0 -8 -7 -17 -16 -20 -25 -10
-30 2 -8 19 24 18 24 18 24 1z m-1549 -28 c24 -28 28 -40 28 -104 0 -39 1 -76
2 -80 1 -5 1 -32 0 -60 -1 -37 -6 -54 -17 -58 -10 -4 -13 -2 -9 7 4 6 -2 2
-13 -11 l-20 -22 -7 30 c-4 16 -1 46 5 66 8 22 9 49 4 72 -4 20 -9 45 -10 55
-3 31 -30 49 -74 51 -33 1 -45 6 -51 21 -10 27 -10 8 0 -38 7 -30 7 -36 -4
-27 -18 15 -17 59 3 98 16 31 19 32 76 32 55 0 63 -3 87 -32z m1488 13 c9 -6
10 -11 2 -15 -6 -4 -11 -3 -11 3 0 6 -7 8 -15 5 -8 -4 -12 -11 -9 -16 4 -6 -4
-4 -17 3 l-24 13 25 7 c34 10 33 10 49 0z m-111 -46 c-3 -3 -9 2 -12 12 -6 14
-5 15 5 6 7 -7 10 -15 7 -18z m-30 -19 c-3 -16 0 -23 10 -22 10 1 15 -9 16
-27 2 -31 -7 -42 -25 -31 -8 5 -8 9 1 14 7 4 9 13 6 19 -4 6 -12 8 -18 5 -8
-5 -9 1 -5 17 4 13 7 30 7 37 0 6 3 12 6 12 4 0 4 -11 2 -24z m1489 -44 l-27
-28 0 -164 0 -165 53 -51 c120 -116 128 -135 77 -174 -16 -12 -27 -28 -23 -34
4 -7 2 -7 -7 1 -10 9 -5 18 21 42 37 33 35 50 -11 80 -13 9 -21 12 -18 6 3 -5
0 -16 -8 -23 -12 -11 -14 -9 -9 19 3 18 9 37 12 42 3 6 2 7 -4 4 -5 -4 -23 7
-38 23 -35 36 -62 41 -44 9 9 -17 8 -20 -1 -14 -10 6 -12 1 -8 -19 3 -14 1
-29 -3 -32 -5 -3 -9 -15 -9 -26 0 -12 -3 -19 -6 -16 -3 3 -4 100 -3 215 1 114
1 220 1 236 -1 20 9 37 36 62 45 42 56 46 19 7z m-1950 -64 c-3 -8 -6 -5 -6 6
-1 11 2 17 5 13 3 -3 4 -12 1 -19z m1875 -228 c-3 -220 -2 -240 13 -240 10 0
39 -16 66 -36 40 -29 48 -40 43 -58 -8 -27 -31 -46 -66 -53 l-28 -5 1 -95 c0
-52 -2 -97 -5 -101 -3 -3 -6 23 -6 58 0 35 -4 60 -8 54 -5 -5 -6 -52 -3 -104
6 -91 7 -95 29 -93 19 2 22 -2 22 -36 l0 -39 -32 32 c-18 18 -40 36 -48 39
-11 5 -12 8 -2 13 19 9 16 133 -3 140 -8 4 -15 11 -15 16 0 6 7 7 15 4 13 -5
15 5 11 64 -5 73 10 108 40 96 8 -3 14 2 15 12 1 16 2 16 6 0 5 -21 36 -24 52
-5 20 25 -45 67 -102 67 l-35 0 -1 178 c-1 97 -4 191 -7 209 -6 31 28 123 44
123 4 0 6 -108 4 -240z m-2539 204 c-4 -12 -8 -13 -14 -3 -9 15 -2 32 11 24 5
-3 6 -13 3 -21z m-33 6 c0 -5 -4 -10 -10 -10 -5 0 -10 5 -10 10 0 6 5 10 10
10 6 0 10 -4 10 -10z m697 -40 c-5 -34 -17 -35 -17 -1 0 19 4 30 10 26 5 -3 8
-15 7 -25z m-730 -57 c-2 -16 -4 -3 -4 27 0 30 2 43 4 28 2 -16 2 -40 0 -55z
m50 51 c2 -13 1 -15 -4 -4 -3 8 -11 19 -17 23 -7 6 -6 7 4 4 8 -2 16 -12 17
-23z m946 -43 c0 -25 -1 -58 -2 -73 -1 -17 -7 -28 -15 -28 -8 0 -17 -7 -20
-16 -11 -28 -26 -3 -26 44 0 26 -3 57 -6 69 -5 19 -9 21 -26 12 -27 -14 -34
-4 -20 27 9 18 17 24 31 19 10 -3 29 -2 42 3 33 13 44 -3 42 -57z m-322 26
c-1 -4 -1 -16 -1 -27 0 -11 -4 -20 -9 -20 -5 0 -9 14 -9 30 1 17 5 29 10 28 5
-2 9 -7 9 -11z m-606 -27 c3 -5 -1 -10 -10 -10 -9 0 -13 5 -10 10 3 6 8 10 10
10 2 0 7 -4 10 -10z m663 -34 c-2 -10 -8 -13 -16 -7 -7 4 -10 15 -6 25 8 21
28 6 22 -18z m-731 -78 c-3 -8 -6 -5 -6 6 -1 11 2 17 5 13 3 -3 4 -12 1 -19z
m-1172 -218 c3 -5 2 -10 -4 -10 -5 0 -13 5 -16 10 -3 6 -2 10 4 10 5 0 13 -4
16 -10z m4090 -105 c-22 -8 -46 -22 -53 -32 -7 -10 -15 -17 -18 -15 -8 5 -50
-33 -64 -58 -9 -17 -10 -25 -1 -28 19 -6 12 -17 -13 -17 -21 0 -22 2 -13 30
12 34 28 51 77 86 55 38 73 47 100 48 19 0 16 -3 -15 -14z m75 -20 c0 -14 -9
-44 -21 -67 -12 -23 -17 -43 -11 -47 13 -9 32 -47 32 -66 0 -20 -36 -65 -82
-103 -20 -16 -12 -4 20 30 56 61 57 64 43 101 -12 32 -39 42 -61 22 -9 -8 -21
-15 -27 -15 -6 0 -32 -20 -57 -45 -48 -46 -63 -44 -53 7 4 22 4 22 6 -3 l1
-26 42 39 c23 21 59 46 80 55 53 24 101 122 66 136 -8 3 -6 6 5 6 12 1 17 -7
17 -24z m-4319 -32 c13 -16 12 -17 -3 -4 -17 13 -22 21 -14 21 2 0 10 -8 17
-17z m4224 -33 c3 -5 -1 -10 -10 -10 -9 0 -13 5 -10 10 3 6 8 10 10 10 2 0 7
-4 10 -10z m-4354 -17 c13 -16 12 -17 -3 -4 -17 13 -22 21 -14 21 2 0 10 -8
17 -17z m171 -54 l-10 -44 1 52 c1 28 6 48 10 44 5 -5 4 -28 -1 -52z m4355 29
c-3 -8 -6 -5 -6 6 -1 11 2 17 5 13 3 -3 4 -12 1 -19z m-4430 -40 c10 -11 12
-18 5 -18 -7 0 -12 4 -12 10 0 12 -38 33 -67 36 -13 1 -23 -2 -23 -7 0 -5 -6
-9 -12 -9 -7 1 -2 9 11 20 22 19 24 19 53 2 16 -9 36 -25 45 -34z m-124 -13
c-3 -9 -8 -14 -10 -11 -3 3 -2 9 2 15 9 16 15 13 8 -4z m177 -27 c0 -6 -6 -5
-15 2 -8 7 -15 14 -15 16 0 2 7 1 15 -2 8 -4 15 -11 15 -16z m158 3 c11 -7 10
-9 -3 -14 -9 -4 -14 -3 -10 2 3 5 -1 12 -7 14 -7 3 -8 6 -3 6 6 0 16 -3 23 -8z
m-155 -59 c-11 -14 -25 -28 -32 -30 -7 -2 -1 7 13 22 14 14 27 35 27 48 1 19
2 20 6 4 3 -10 -4 -30 -14 -44z m4320 38 c-3 -12 -8 -19 -11 -16 -5 6 5 36 12
36 2 0 2 -9 -1 -20z m-4478 -20 c10 -11 16 -20 13 -20 -3 0 -13 9 -23 20 -10
11 -16 20 -13 20 3 0 13 -9 23 -20z m-4 -47 c13 -16 12 -17 -3 -4 -17 13 -22
21 -14 21 2 0 10 -8 17 -17z m4449 7 c0 -5 -5 -10 -11 -10 -5 0 -7 5 -4 10 3
6 8 10 11 10 2 0 4 -4 4 -10z m-4490 -15 c0 -8 -2 -15 -4 -15 -2 0 -6 7 -10
15 -3 8 -1 15 4 15 6 0 10 -7 10 -15z m131 -3 c-7 -2 -18 1 -23 6 -8 8 -4 9
13 5 13 -4 18 -8 10 -11z m4245 -19 c-6 -6 -46 20 -46 30 0 4 11 0 25 -9 14
-9 24 -19 21 -21z m-4263 -66 c-8 -5 -24 -6 -36 -4 -18 4 -18 4 6 6 23 1 27 5
28 34 l1 32 7 -30 c5 -20 3 -33 -6 -38z m-73 -3 c0 -7 -58 25 -65 36 -3 5 10
1 29 -11 20 -12 36 -23 36 -25z m151 14 c11 -21 11 -22 -4 -9 -10 7 -17 17
-17 22 0 15 9 10 21 -13z m4312 5 c3 -5 -5 -8 -18 -8 -13 0 -21 3 -18 8 2 4
10 7 18 7 8 0 16 -3 18 -7z m-4033 -23 c0 -5 -7 -7 -15 -4 -8 4 -15 8 -15 10
0 2 7 4 15 4 8 0 15 -4 15 -10z m-300 -69 c0 -14 -10 -20 -47 -24 -60 -7 -70
0 -14 9 52 8 59 19 32 48 -12 12 -21 26 -21 31 0 4 11 -4 25 -19 14 -15 25
-35 25 -45z m3857 45 c-18 -17 -25 -31 -20 -42 4 -12 3 -15 -5 -10 -19 12 -14
33 14 55 36 29 43 26 11 -3z m66 0 c-10 -13 -19 -20 -21 -15 -4 10 19 38 31
39 4 0 0 -11 -10 -24z m-3623 -8 c0 -6 -6 -5 -15 2 -8 7 -15 14 -15 16 0 2 7
1 15 -2 8 -4 15 -11 15 -16z m3640 -42 c-12 -20 -25 -36 -30 -36 -15 0 -23 21
-11 33 8 8 11 6 11 -8 0 -18 0 -18 15 1 8 10 15 30 15 44 0 18 3 21 11 13 9
-9 6 -21 -11 -47z m-3670 34 c0 -5 -2 -10 -4 -10 -3 0 -8 5 -11 10 -3 6 -1 10
4 10 6 0 11 -4 11 -10z m76 -19 c-4 -6 -13 -11 -19 -11 -8 0 -7 3 2 9 8 5 10
14 6 22 -6 11 -5 11 5 2 7 -6 9 -16 6 -22z m-306 9 c0 -5 -8 -10 -17 -10 -15
0 -16 2 -3 10 19 12 20 12 20 0z m215 -10 c15 -17 16 -20 3 -20 -9 0 -18 9
-21 20 -3 11 -4 20 -3 20 2 0 11 -9 21 -20z m-29 -22 c14 -28 15 -31 2 -20
-14 11 -31 52 -22 52 2 0 11 -15 20 -32z m4009 -7 c17 -7 17 -8 -7 -13 -15 -3
-25 -2 -23 3 3 4 -3 10 -12 12 -15 4 -15 5 2 5 11 0 29 -3 40 -7z"/>
<path d="M701 6844 c0 -11 3 -14 6 -6 3 7 2 16 -1 19 -3 4 -6 -2 -5 -13z"/>
<path d="M702 6059 c2 -7 10 -15 17 -17 8 -3 12 1 9 9 -2 7 -10 15 -17 17 -8
3 -12 -1 -9 -9z"/>
<path d="M2535 5339 c-4 -6 -5 -12 -2 -15 2 -3 7 2 10 11 7 17 1 20 -8 4z"/>
<path d="M2567 5343 c-12 -11 -8 -23 8 -23 8 0 15 7 15 15 0 16 -12 20 -23 8z"/>
<path d="M4400 4583 c0 -4 5 -15 10 -23 8 -13 10 -13 10 2 0 9 -4 20 -10 23
-5 3 -10 3 -10 -2z"/>
<path d="M4431 3704 c0 -11 3 -14 6 -6 3 7 2 16 -1 19 -3 4 -6 -2 -5 -13z"/>
<path d="M4433 3535 c0 -44 2 -61 4 -37 2 23 2 59 0 80 -2 20 -4 1 -4 -43z"/>
<path d="M4434 3285 c0 -88 2 -123 3 -77 2 46 2 118 0 160 -1 42 -3 5 -3 -83z"/>
<path d="M1665 1112 c-16 -12 -19 -53 -3 -47 8 3 15 17 16 30 2 27 2 28 -13
17z"/>
<path d="M4426 463 c-3 -4 -6 -27 -5 -52 l1 -46 10 40 c6 22 15 43 20 46 5 3
3 9 -5 12 -8 3 -18 3 -21 0z"/>
</g>
</svg>
