<?xml version="1.0" standalone="no"?>
<!DOCTYPE svg PUBLIC "-//W3C//DTD SVG 20010904//EN"
 "http://www.w3.org/TR/2001/REC-SVG-20010904/DTD/svg10.dtd">
<svg version="1.0" xmlns="http://www.w3.org/2000/svg"
 width="512.000000pt" height="512.000000pt" viewBox="0 0 512.000000 512.000000"
 preserveAspectRatio="xMidYMid meet">
<metadata>
Created by potrace 1.16, written by Peter Selinger 2001-2019
</metadata>
<g transform="translate(0.000000,512.000000) scale(0.100000,-0.100000)"
fill="#000000" stroke="none">
<path d="M2355 4583 c-144 -19 -317 -63 -445 -114 -99 -40 -110 -51 -110 -111
0 -31 -4 -49 -12 -49 -7 -1 -20 -3 -28 -4 -8 -1 -32 -3 -52 -4 -70 -2 -39 -17
34 -17 66 1 73 -1 73 -19 -1 -11 4 -23 10 -27 5 -4 0 -8 -13 -8 -12 0 -41 -8
-65 -19 -23 -10 -57 -24 -76 -31 -18 -8 -49 -28 -68 -47 -20 -18 -44 -33 -54
-33 -11 0 -19 -4 -19 -10 0 -5 -9 -10 -19 -10 -11 0 -23 -9 -26 -20 -3 -11
-11 -20 -18 -20 -12 0 -123 -83 -146 -109 -12 -14 -13 -14 -6 4 4 11 10 28 12
38 3 9 9 17 14 17 5 0 9 8 9 18 0 10 12 30 28 44 32 29 147 108 159 108 4 0
21 11 37 23 39 32 19 42 -25 13 -19 -13 -63 -41 -99 -64 -96 -61 -129 -95
-145 -150 -21 -69 -119 -158 -197 -176 -16 -3 -28 -10 -28 -15 0 -5 -50 -85
-112 -177 -125 -190 -172 -282 -228 -452 -128 -392 -133 -795 -15 -1164 54
-167 214 -496 235 -483 5 3 12 0 16 -6 4 -8 3 -9 -4 -5 -17 10 -15 -6 4 -32 8
-12 19 -20 24 -17 5 3 12 0 16 -6 5 -8 3 -9 -6 -4 -8 5 -11 3 -8 -6 3 -8 10
-14 16 -14 5 0 14 -4 19 -9 5 -5 3 -6 -5 -2 -30 18 -6 -16 66 -89 101 -105
197 -186 207 -177 5 4 5 1 1 -6 -4 -7 -2 -19 4 -27 7 -9 11 -40 8 -82 -3 -61
-1 -68 17 -71 17 -4 92 -43 160 -85 72 -44 98 -58 102 -53 8 8 -8 27 -18 21
-5 -4 -9 -1 -9 4 0 6 -5 11 -11 11 -6 0 -24 9 -40 21 -16 11 -29 18 -29 15 0
-4 -24 10 -52 30 -29 20 -63 40 -76 45 -22 9 -23 14 -20 78 2 40 -1 67 -6 63
-5 -3 -7 2 -3 11 7 18 -69 99 -113 122 -23 12 -94 83 -130 131 -35 47 -60 84
-60 89 0 3 -8 15 -19 26 -10 11 -34 50 -52 86 -30 59 -31 66 -16 74 9 6 17 15
17 20 0 14 -42 1 -57 -18 -11 -14 -14 -13 -22 8 -5 13 -29 69 -53 124 -86 191
-125 325 -154 525 -20 142 -15 417 11 560 30 165 97 379 165 525 10 22 21 48
24 59 5 13 12 17 29 12 73 -21 67 -25 142 91 115 176 275 351 411 449 24 17
41 34 37 37 -3 4 26 21 66 38 39 18 69 34 66 37 -10 11 17 42 38 42 33 1 212
64 212 75 0 6 -10 11 -22 13 -21 3 -23 9 -23 62 0 32 -3 66 -6 74 -8 21 83 63
238 110 219 66 452 89 688 67 157 -15 268 -38 444 -94 105 -33 140 -48 142
-61 1 -10 5 -20 8 -23 17 -17 137 -22 533 -23 l442 0 36 -35 35 -36 0 -385 0
-384 46 -93 c60 -118 137 -353 165 -498 27 -144 37 -466 20 -620 -25 -215 -86
-425 -176 -604 l-55 -109 0 -368 0 -368 -29 -32 -29 -33 -414 0 -413 -1 -111
-61 c-118 -65 -263 -118 -439 -159 -149 -35 -461 -45 -631 -20 -187 27 -458
109 -470 141 -3 7 3 30 13 52 15 30 18 55 15 119 l-4 81 -71 22 c-39 13 -84
31 -101 40 -42 23 -68 33 -62 22 4 -5 35 -23 71 -40 36 -16 65 -35 65 -41 0
-6 6 -10 13 -9 6 2 26 -1 44 -5 31 -7 31 -9 35 -72 3 -71 1 -87 -13 -78 -5 3
-9 -3 -9 -12 0 -10 -6 -33 -12 -52 -12 -32 -11 -35 14 -57 31 -26 214 -87 350
-115 215 -45 511 -48 713 -9 161 32 347 91 415 131 19 12 65 38 102 60 l67 38
407 0 c355 0 410 2 440 16 63 30 64 34 64 433 l0 361 59 117 c106 211 162 432
183 715 14 189 3 356 -33 546 -26 137 -106 377 -164 492 l-45 90 0 376 c0 410
1 405 -58 449 -26 19 -47 20 -506 25 -338 4 -480 8 -483 16 -10 30 -38 45
-153 82 -240 79 -393 102 -650 100 -96 0 -188 -3 -205 -5z m-1135 -773 c-56
-64 -63 -70 -53 -42 3 9 3 14 -1 10 -4 -3 -9 -13 -10 -22 -1 -9 -27 -48 -57
-87 -30 -39 -64 -87 -76 -107 -32 -53 -66 -92 -80 -92 -24 0 -24 21 1 51 14
16 42 60 63 97 20 37 39 69 42 72 3 3 14 22 23 43 17 36 46 55 92 60 12 1 39
19 61 39 22 21 42 38 43 38 2 0 -19 -27 -48 -60z m-287 -2210 c10 -16 16 -30
13 -30 -2 0 -14 14 -26 30 -12 17 -18 30 -13 30 5 0 17 -13 26 -30z m27 -61
c0 -6 -4 -7 -10 -4 -5 3 -10 11 -10 16 0 6 5 7 10 4 6 -3 10 -11 10 -16z"/>
<path d="M2339 4445 c-105 -17 -224 -46 -349 -87 -52 -17 -95 -31 -96 -32 -8
-8 -12 -56 -5 -56 5 0 11 10 13 23 3 19 20 28 113 59 61 20 173 49 250 64 293
57 676 25 929 -77 80 -32 104 -31 30 2 -108 47 -277 88 -444 109 -114 14 -335
11 -441 -5z"/>
<path d="M3246 4409 c3 -6 10 -23 14 -37 l8 -27 1 31 c1 20 -5 34 -15 38 -9 3
-12 2 -8 -5z"/>
<path d="M822 4373 c-18 -9 -42 -27 -52 -41 -19 -24 -20 -43 -20 -412 l0 -388
-39 -74 c-111 -214 -177 -467 -201 -764 -26 -331 45 -713 189 -1004 l56 -115
1 -361 c0 -324 2 -364 17 -388 39 -58 30 -57 449 -54 307 2 388 6 401 17 9 7
24 11 32 7 8 -3 15 -2 15 3 0 14 -52 23 -60 11 -5 -9 -116 -13 -386 -17 l-379
-5 -33 35 -33 34 1 361 1 361 -50 100 c-94 186 -166 436 -192 661 -14 129 -6
419 15 545 37 215 80 350 168 534 l59 124 -2 381 -2 380 34 28 33 28 302 0
302 0 33 -37 c35 -40 108 -97 115 -90 3 2 -2 10 -11 17 -8 7 -15 19 -15 26 0
8 -4 14 -8 14 -5 0 -30 21 -56 48 l-47 47 -302 2 c-261 2 -306 0 -335 -14z"/>
<path d="M3302 4361 c-1 -17 2 -32 8 -36 10 -6 14 7 10 35 -4 29 -16 29 -18 1z"/>
<path d="M3425 4307 c81 -44 96 -54 187 -114 89 -59 94 -54 10 10 -85 66 -207
137 -234 137 -17 0 -7 -9 37 -33z"/>
<path d="M3312 4297 c-6 -7 -13 -24 -17 -38 -6 -24 -2 -27 52 -47 155 -58 367
-206 544 -382 135 -134 231 -258 270 -345 l20 -45 30 16 c17 8 37 14 45 12 38
-8 164 -346 211 -566 25 -117 27 -145 27 -357 0 -213 -2 -240 -27 -358 -15
-70 -43 -173 -61 -230 -37 -108 -123 -300 -137 -305 -5 -2 -9 -12 -9 -22 0
-10 -5 -22 -11 -26 -8 -4 -9 3 -4 25 4 17 3 31 -2 31 -4 0 -18 3 -29 6 -17 5
-28 -3 -53 -39 -16 -24 -28 -47 -25 -50 8 -8 -93 -136 -170 -215 -67 -69 -255
-219 -338 -270 -41 -25 -44 -32 -26 -50 15 -15 28 -16 28 -2 0 6 -7 10 -15 10
-8 0 -15 5 -15 10 0 6 7 10 15 10 18 0 135 80 135 92 0 4 6 8 13 8 7 0 26 13
43 29 16 15 56 51 89 78 53 44 80 71 145 142 9 9 29 35 45 56 48 64 49 65 68
86 21 24 22 30 0 22 -11 -4 -7 6 13 30 37 47 58 45 57 -5 -2 -58 -2 -60 -13
-53 -9 6 -14 -8 -11 -27 0 -5 -4 -8 -10 -8 -5 0 -8 -4 -4 -9 3 -6 -1 -13 -8
-18 -7 -4 -35 -40 -63 -79 -44 -63 -121 -159 -164 -204 -9 -8 -23 -31 -32 -51
-9 -19 -34 -51 -55 -70 -55 -51 -194 -159 -204 -159 -5 0 -9 -7 -9 -15 0 -8
-7 -15 -15 -15 -8 0 -15 5 -15 12 0 17 -11 3 -14 -19 -2 -10 -18 -28 -37 -41
-35 -24 -48 -42 -31 -42 14 0 109 65 189 130 93 75 179 162 236 240 26 36 86
112 132 170 100 125 172 243 247 405 122 262 177 507 178 787 0 423 -145 847
-404 1178 -106 136 -330 355 -350 343 -5 -3 -6 -2 -3 4 4 6 -6 21 -21 34 l-27
24 20 -25 20 -24 -30 19 c-95 60 -191 113 -275 152 -52 24 -102 48 -112 53
-11 6 -20 5 -26 -3z m198 -101 c98 -51 225 -134 320 -209 123 -97 397 -431
399 -488 1 -9 -8 -19 -19 -22 -16 -4 -26 6 -50 51 -17 32 -47 78 -68 104 -70
89 -150 183 -168 200 -11 9 -51 47 -90 83 -40 37 -89 79 -110 93 -21 15 -48
36 -60 48 -13 11 -40 29 -61 40 -21 10 -40 23 -42 27 -2 5 -52 33 -112 62 -60
29 -116 58 -125 66 -15 12 -14 14 3 20 20 7 44 -3 183 -75z"/>
<path d="M1014 4271 c-41 -10 -112 -51 -118 -68 -3 -8 14 0 38 16 42 29 97 47
166 54 28 3 26 4 -10 4 -25 1 -59 -2 -76 -6z"/>
<path d="M1141 4266 c2 -2 20 -6 39 -10 25 -4 31 -3 20 4 -14 9 -69 15 -59 6z"/>
<path d="M2430 4129 c-234 -211 -569 -532 -564 -541 7 -11 31 3 79 47 59 54
129 107 334 254 198 142 284 196 304 188 46 -18 564 -395 639 -465 26 -25 42
-33 55 -28 16 6 13 12 -22 44 -22 19 -132 122 -245 227 -260 244 -428 395
-438 395 -4 0 -68 -55 -142 -121z m314 -63 c49 -45 134 -125 190 -179 l101
-98 -120 83 c-240 166 -320 218 -338 218 -22 0 -79 -28 -89 -44 -4 -6 -8 -8
-8 -3 0 13 -250 -156 -258 -175 -2 -5 -9 -8 -17 -8 -7 0 -18 -7 -25 -16 -14
-16 -50 -38 -50 -30 0 4 261 244 390 358 l53 48 41 -37 c23 -20 81 -73 130
-117z"/>
<path d="M1270 4201 c0 -6 4 -13 10 -16 6 -3 7 1 4 9 -7 18 -14 21 -14 7z"/>
<path d="M1041 4157 c-48 -28 -64 -92 -36 -147 30 -59 98 -68 146 -21 38 38
41 106 7 146 -28 31 -83 41 -117 22z m82 -42 c46 -44 27 -125 -30 -125 -67 0
-98 89 -47 129 34 27 43 26 77 -4z"/>
<path d="M1302 4138 c22 -67 21 -64 25 -46 4 15 -22 78 -31 78 -3 0 1 -15 6
-32z"/>
<path d="M856 4115 c-3 -9 -5 -49 -4 -88 l1 -72 7 85 c6 92 6 100 -4 75z"/>
<path d="M1515 4050 c-3 -6 1 -7 9 -4 18 7 21 14 7 14 -6 0 -13 -4 -16 -10z"/>
<path d="M2479 4000 c-46 -34 -162 -115 -256 -181 -95 -66 -176 -125 -179
-131 -7 -12 4 -5 191 118 77 50 187 126 245 169 60 45 106 73 108 66 5 -16
216 -174 340 -254 110 -72 134 -82 50 -21 -29 21 -60 44 -68 51 -8 8 -60 46
-115 86 -56 40 -125 91 -154 115 -30 23 -59 42 -66 42 -7 0 -50 -27 -96 -60z"/>
<path d="M446 3521 c-5 -8 19 -11 78 -11 l86 0 0 -59 0 -59 -68 -7 c-103 -10
-113 -26 -13 -20 47 3 87 8 90 11 7 6 2 136 -5 144 -11 11 -162 12 -168 1z"/>
<path d="M419 3493 c0 -5 -3 -29 -5 -55 -4 -31 -1 -48 5 -48 7 0 11 23 11 55
0 30 -2 55 -5 55 -3 0 -5 -3 -6 -7z"/>
<path d="M485 3470 c-9 -15 5 -71 16 -64 12 7 12 74 0 74 -6 0 -13 -5 -16 -10z"/>
<path d="M2296 3465 c-40 -11 -82 -20 -124 -25 -2 0 -1 -4 2 -9 3 -4 -6 -6
-21 -3 -19 4 -24 2 -18 -8 5 -8 4 -11 -3 -6 -13 8 -64 -3 -58 -13 2 -3 -6 -7
-19 -7 -12 -1 -45 -13 -73 -27 -28 -14 -53 -23 -56 -20 -3 4 -6 1 -6 -5 0 -7
-5 -12 -10 -12 -6 0 -28 -11 -50 -25 -22 -14 -40 -22 -40 -19 0 4 -6 2 -12 -4
-7 -5 -39 -24 -71 -41 -32 -17 -68 -40 -80 -51 -12 -10 -44 -39 -71 -62 -27
-24 -61 -60 -76 -80 -15 -21 -30 -34 -34 -31 -3 3 -6 1 -6 -6 0 -6 -12 -23
-26 -37 -17 -18 -24 -35 -22 -53 3 -24 0 -26 -32 -27 -34 0 -35 -2 -34 -37 l1
-36 -42 6 c-41 5 -42 5 -42 -23 -1 -16 -4 -101 -8 -189 -6 -142 1 -260 18
-330 3 -11 6 -32 6 -47 1 -27 3 -28 57 -28 38 0 61 -5 72 -16 15 -15 14 -16
-5 -10 -18 6 -20 3 -16 -14 3 -11 10 -20 15 -20 5 0 7 -4 4 -9 -14 -23 63
-135 109 -158 47 -24 45 0 -4 52 -48 51 -68 85 -87 149 -9 30 -15 34 -75 61
-28 12 -36 22 -38 43 -1 15 -4 123 -7 241 -6 224 0 271 36 271 10 0 23 13 30
31 8 18 24 35 40 41 25 8 60 62 60 92 0 18 45 58 55 49 4 -5 5 -2 1 5 -4 7 -1
15 8 18 9 3 16 12 16 19 0 6 26 30 58 53 31 22 66 49 77 59 110 102 467 254
615 263 23 1 24 2 5 10 -25 12 -3 13 250 13 188 0 266 -5 315 -23 14 -4 54
-14 89 -20 36 -6 85 -20 110 -30 25 -10 49 -18 53 -19 11 -2 99 -40 128 -55
14 -7 50 -26 80 -41 89 -46 268 -177 269 -198 1 -4 11 -28 22 -53 15 -31 31
-49 54 -58 31 -13 51 -49 59 -101 3 -19 26 -45 41 -45 14 0 29 -37 41 -100 9
-43 8 -298 -2 -403 -5 -56 -10 -77 -19 -73 -7 2 -37 -1 -66 -9 -30 -7 -46 -13
-35 -14 15 -1 17 -6 12 -32 -4 -22 -2 -29 7 -26 6 2 12 14 11 26 -1 19 4 21
58 21 46 0 58 3 58 16 0 8 -4 12 -10 9 -17 -11 -11 47 8 68 15 17 17 43 17
226 0 113 -4 232 -8 265 l-9 58 -39 -5 c-38 -5 -60 5 -39 18 6 4 9 14 6 23 -3
10 -10 36 -16 60 -10 40 -13 42 -48 42 l-37 0 -19 65 c-14 50 -24 67 -40 71
-11 3 -38 22 -59 43 -20 21 -50 44 -65 52 -15 7 -41 24 -59 37 -18 13 -37 20
-44 16 -7 -4 -9 -3 -6 3 8 13 -152 97 -228 118 -33 10 -64 21 -70 25 -23 16
-128 40 -240 55 -151 19 -479 19 -549 0z m-836 -535 c0 -5 -8 -10 -17 -10 -15
0 -16 2 -3 10 19 12 20 12 20 0z"/>
<path d="M478 3203 c12 -2 30 -2 40 0 9 3 -1 5 -23 4 -22 0 -30 -2 -17 -4z"/>
<path d="M3641 2154 c0 -11 3 -14 6 -6 3 7 2 16 -1 19 -3 4 -6 -2 -5 -13z"/>
<path d="M3686 2110 c-16 -5 -33 -7 -38 -4 -5 4 -4 -3 4 -15 11 -19 9 -25 -27
-61 -40 -41 -167 -130 -185 -130 -6 0 -10 -3 -10 -7 0 -5 -28 -21 -63 -38 -34
-16 -64 -32 -67 -35 -7 -7 -108 -46 -155 -60 -22 -6 -49 -16 -60 -21 -100 -46
-493 -73 -725 -50 -118 12 -260 36 -295 52 -75 32 -211 77 -219 72 -5 -3 -7
-2 -3 3 7 13 -169 103 -216 111 -21 3 -41 11 -44 18 -2 7 -13 11 -24 8 -21 -6
-27 -52 -6 -54 6 -1 34 -3 61 -5 34 -2 66 -14 105 -37 137 -84 405 -176 557
-192 49 -6 63 -10 49 -16 -11 -4 80 -8 202 -8 183 -1 240 2 320 19 191 38 309
69 381 99 76 33 220 107 237 122 5 5 17 9 27 9 10 0 18 5 18 11 0 5 4 8 9 5 5
-3 14 1 21 9 7 8 19 15 28 15 19 0 174 159 169 173 -5 15 -17 17 -51 7z m-896
-441 c-25 -4 -119 -7 -210 -6 l-165 1 160 6 c88 3 183 6 210 7 l50 0 -45 -8z"/>
<path d="M930 1716 c0 -2 7 -7 16 -10 8 -3 12 -2 9 4 -6 10 -25 14 -25 6z"/>
<path d="M2968 1663 c7 -3 16 -2 19 1 4 3 -2 6 -13 5 -11 0 -14 -3 -6 -6z"/>
<path d="M960 1626 c0 -31 91 -152 210 -279 25 -27 44 -53 42 -58 -1 -5 2 -8
7 -7 4 2 34 -19 66 -47 62 -53 119 -95 131 -95 4 0 -6 10 -22 22 -145 112
-305 285 -401 433 -20 29 -33 42 -33 31z"/>
<path d="M1854 1545 c-4 -9 35 -53 112 -127 65 -62 186 -178 269 -259 189
-183 336 -319 345 -319 3 0 104 95 225 211 121 117 290 272 375 346 85 74 157
139 158 144 10 26 -42 3 -104 -46 -38 -31 -109 -85 -159 -121 -49 -36 -146
-106 -215 -155 -68 -50 -159 -111 -202 -136 -71 -41 -80 -44 -110 -34 -18 6
-109 67 -203 136 -442 325 -446 328 -458 358 -8 21 -26 22 -33 2z m338 -280
c4 -5 8 -6 8 -2 0 7 76 -49 100 -73 7 -7 65 -48 153 -107 101 -68 127 -69 222
-10 39 24 93 59 120 80 28 20 74 50 103 67 28 17 52 35 52 40 0 5 10 12 23 15
12 4 33 17 48 29 14 11 -4 -8 -40 -43 -290 -283 -396 -381 -406 -379 -19 4
-334 305 -445 424 l-35 38 45 -34 c25 -19 48 -39 52 -45z"/>
<path d="M1920 1527 c0 -2 21 -18 48 -35 26 -17 85 -58 132 -93 47 -34 107
-78 135 -97 27 -19 58 -43 68 -53 27 -24 232 -168 251 -175 43 -17 4 19 -105
96 -415 293 -529 369 -529 357z"/>
<path d="M3080 1422 c-30 -20 -93 -61 -140 -91 -86 -57 -301 -210 -333 -239
-9 -8 -15 -17 -13 -20 3 -2 47 26 98 62 51 36 169 120 263 186 158 112 196
141 185 139 -3 0 -30 -17 -60 -37z"/>
<path d="M844 1220 c1 -71 6 -102 20 -122 17 -27 113 -98 131 -98 5 0 -13 15
-40 34 -90 61 -98 74 -106 184 l-7 97 2 -95z"/>
<path d="M3679 1153 c-13 -16 -12 -17 4 -4 9 7 17 15 17 17 0 8 -8 3 -21 -13z"/>
<path d="M3630 1119 c-22 -18 -22 -19 -3 -10 12 6 25 16 28 21 9 15 3 12 -25
-11z"/>
<path d="M3490 1044 c-58 -29 -122 -56 -143 -59 -41 -7 -61 -32 -54 -68 3 -18
5 -16 6 7 1 21 5 27 17 22 8 -3 13 -2 10 3 -3 5 5 12 18 15 13 3 31 9 40 12
12 4 16 0 16 -16 0 -12 4 -18 10 -15 6 4 8 15 5 24 -4 14 8 24 62 46 38 16 81
41 97 57 17 15 28 27 25 26 -2 -1 -51 -25 -109 -54z"/>
<path d="M1537 1079 c7 -7 15 -10 18 -7 3 3 -2 9 -12 12 -14 6 -15 5 -6 -5z"/>
<path d="M1590 1055 c14 -8 30 -14 35 -14 6 0 -1 6 -15 14 -14 8 -29 14 -35
14 -5 0 1 -6 15 -14z"/>
<path d="M1566 1022 c-7 -12 11 -27 42 -36 13 -5 22 -3 22 3 0 6 -5 11 -12 11
-6 0 -19 7 -29 16 -10 9 -20 11 -23 6z"/>
<path d="M3505 990 c-7 -12 2 -12 30 0 19 8 19 9 -2 9 -12 1 -25 -3 -28 -9z"/>
<path d="M3461 981 c-8 -6 -9 -11 -3 -15 6 -3 14 -1 17 5 9 14 2 20 -14 10z"/>
<path d="M3601 954 c0 -11 3 -14 6 -6 3 7 2 16 -1 19 -3 4 -6 -2 -5 -13z"/>
<path d="M1151 956 c10 -10 125 -15 139 -6 11 7 -8 10 -64 10 -44 0 -77 -2
-75 -4z"/>
<path d="M1340 947 c0 -5 127 -85 168 -106 74 -39 -53 46 -160 106 -5 2 -8 2
-8 0z"/>
<path d="M3356 933 c-6 -14 -5 -15 5 -6 7 7 10 15 7 18 -3 3 -9 -2 -12 -12z"/>
<path d="M1810 914 c0 -8 5 -12 10 -9 6 4 8 11 5 16 -9 14 -15 11 -15 -7z"/>
<path d="M3320 920 c0 -5 5 -10 11 -10 5 0 7 5 4 10 -3 6 -8 10 -11 10 -2 0
-4 -4 -4 -10z"/>
<path d="M1710 896 c0 -8 4 -17 9 -20 5 -4 7 3 4 14 -6 23 -13 26 -13 6z"/>
<path d="M3340 890 c-9 -6 -10 -10 -3 -10 6 0 15 5 18 10 8 12 4 12 -15 0z"/>
<path d="M3280 865 c1 -26 2 -28 11 -12 8 14 8 22 0 30 -8 8 -11 3 -11 -18z"/>
<path d="M1812 855 c0 -16 2 -22 5 -12 2 9 2 23 0 30 -3 6 -5 -1 -5 -18z"/>
<path d="M3302 838 c-14 -14 -16 -28 -3 -28 9 0 24 30 18 36 -2 2 -9 -2 -15
-8z"/>
<path d="M3343 775 c0 -27 2 -38 4 -22 2 15 2 37 0 50 -2 12 -4 0 -4 -28z"/>
<path d="M3145 753 c-142 -49 -253 -71 -415 -83 -245 -18 -499 11 -725 80 -54
17 -100 28 -103 25 -7 -6 36 -22 157 -56 194 -54 265 -63 521 -63 206 -1 249
2 348 22 92 19 335 93 351 108 14 12 -47 -3 -134 -33z"/>
<path d="M3299 768 c-5 -17 -4 -50 3 -54 4 -3 8 9 8 25 0 17 -2 31 -5 31 -3 0
-5 -1 -6 -2z"/>
</g>
</svg>
