<?xml version="1.0" standalone="no"?>
<!DOCTYPE svg PUBLIC "-//W3C//DTD SVG 20010904//EN"
 "http://www.w3.org/TR/2001/REC-SVG-20010904/DTD/svg10.dtd">
<svg version="1.0" xmlns="http://www.w3.org/2000/svg"
 width="512.000000pt" height="768.000000pt" viewBox="0 0 512.000000 768.000000"
 preserveAspectRatio="xMidYMid meet">
<metadata>
Created by potrace 1.16, written by Peter Selinger 2001-2019
</metadata>
<g transform="translate(0.000000,768.000000) scale(0.100000,-0.100000)"
fill="#000000" stroke="none">
<path d="M4401 6518 c0 -640 4 -1154 9 -1143 4 11 9 264 9 563 1 299 2 546 2
550 1 4 1 274 0 600 -1 387 -4 592 -11 592 -7 0 -10 -394 -9 -1162z"/>
<path d="M2404 7605 c15 -8 33 -15 40 -15 6 0 -2 7 -18 15 -15 8 -33 15 -40
15 -6 0 2 -7 18 -15z"/>
<path d="M2088 7592 c-10 -4 23 -8 72 -8 49 -1 88 2 85 6 -6 9 -134 11 -157 2z"/>
<path d="M2286 7576 c17 -8 44 -18 60 -21 28 -6 28 -6 10 9 -11 9 -30 16 -42
16 -12 0 -31 2 -41 5 -10 3 -4 -1 13 -9z"/>
<path d="M2474 7565 c10 -8 23 -12 28 -9 13 8 5 14 -23 19 -23 4 -23 4 -5 -10z"/>
<path d="M2075 7559 c-27 -5 -63 -13 -80 -18 -24 -8 -17 -9 35 -6 65 3 216
-16 261 -34 22 -9 22 -10 4 -12 -11 -1 6 -5 37 -10 31 -4 76 -18 100 -30 24
-12 45 -22 48 -22 3 0 22 -11 42 -23 21 -13 41 -24 45 -24 16 0 -17 21 -97 63
-105 54 -230 93 -317 99 -18 1 -33 6 -33 10 0 10 -1 10 85 -2 77 -11 251 -65
275 -85 18 -15 76 -45 87 -45 13 0 -51 49 -65 50 -7 0 -15 7 -18 15 -4 8 -10
12 -15 9 -6 -3 -15 -2 -22 4 -21 15 -199 60 -262 65 -33 3 -82 1 -110 -4z"/>
<path d="M2517 7554 c-3 -4 13 -22 36 -40 23 -19 47 -38 52 -43 32 -26 101
-111 126 -155 35 -61 57 -91 63 -85 6 6 -73 139 -113 189 -20 24 -35 48 -33
53 1 5 -2 6 -7 3 -5 -4 -22 5 -36 20 -14 14 -29 24 -32 21 -3 -3 -15 5 -28 18
-12 14 -25 22 -28 19z"/>
<path d="M2460 7535 c0 -10 29 -24 34 -17 3 6 -3 12 -14 15 -11 3 -20 4 -20 2z"/>
<path d="M1985 7510 c-16 -6 -36 -8 -43 -5 -15 6 -109 -12 -138 -26 -11 -6
-24 -9 -30 -7 -5 1 -34 -10 -64 -24 -30 -15 -48 -27 -39 -28 9 0 19 3 23 8 4
4 11 7 14 8 4 0 41 11 82 23 83 26 291 46 301 29 5 -8 38 -8 149 3 8 0 -1 5
-20 9 -58 14 -203 20 -235 10z"/>
<path d="M2500 7500 c-10 -6 -11 -10 -3 -10 17 0 84 -60 78 -70 -3 -4 15 -23
39 -41 25 -19 49 -44 55 -56 6 -13 15 -23 21 -23 5 0 10 -7 10 -15 0 -8 5 -15
10 -15 16 0 -25 71 -67 115 -81 87 -128 124 -143 115z"/>
<path d="M2660 7470 c0 -5 4 -10 9 -10 5 0 31 -29 57 -65 26 -36 49 -65 51
-65 11 0 -3 25 -42 76 -46 59 -75 84 -75 64z"/>
<path d="M1893 7463 c9 -2 23 -2 30 0 6 3 -1 5 -18 5 -16 0 -22 -2 -12 -5z"/>
<path d="M1795 7442 c-75 -27 -110 -47 -107 -61 2 -9 -4 -12 -18 -8 -11 3 -18
2 -15 -2 2 -5 -8 -13 -23 -20 -25 -11 -26 -10 -8 4 11 8 15 15 9 15 -13 0 -39
-30 -27 -30 5 -1 -6 -7 -24 -15 -18 -8 -36 -14 -40 -12 -4 1 -18 -8 -32 -20
-13 -13 -29 -23 -36 -23 -7 0 -14 -5 -16 -10 -2 -6 -13 -12 -25 -13 -12 0 -20
-4 -17 -8 5 -9 -56 -40 -67 -34 -4 3 -11 0 -15 -6 -4 -7 -3 -9 4 -5 6 3 13 2
17 -4 3 -5 -4 -14 -17 -19 -25 -9 -188 -167 -188 -182 0 -16 7 -10 71 57 188
195 514 363 772 397 64 8 56 20 -8 13 -96 -11 -115 -15 -204 -46 -47 -17 -87
-28 -89 -25 -5 5 57 32 128 55 30 10 48 18 40 19 -8 0 -37 -8 -65 -17z"/>
<path d="M1615 7400 c-3 -6 1 -7 9 -4 18 7 21 14 7 14 -6 0 -13 -4 -16 -10z"/>
<path d="M2428 7393 c7 -3 16 -2 19 1 4 3 -2 6 -13 5 -11 0 -14 -3 -6 -6z"/>
<path d="M1566 7375 c-11 -8 -17 -17 -14 -20 2 -3 15 4 28 15 26 23 15 27 -14
5z"/>
<path d="M2465 7380 c3 -5 13 -10 21 -10 8 0 14 -4 14 -8 0 -11 60 -45 67 -38
4 3 2 6 -3 6 -6 0 -19 8 -30 19 -34 31 -83 53 -69 31z"/>
<path d="M2580 7373 c0 -5 14 -21 30 -37 29 -27 30 -27 20 -4 -11 24 -50 55
-50 41z"/>
<path d="M2787 7345 c3 -22 17 -58 31 -80 14 -22 49 -85 77 -140 29 -55 73
-134 100 -175 121 -189 170 -342 186 -590 14 -224 18 -229 14 -20 -3 199 -12
246 -64 372 -16 37 -27 68 -24 68 2 0 20 -33 39 -74 83 -180 90 -334 39 -861
-25 -248 -37 -334 -47 -305 -5 18 -6 14 -2 -13 3 -25 2 -37 -5 -33 -5 4 -9 -5
-9 -21 0 -16 -4 -46 -11 -68 -6 -22 -18 -79 -26 -125 -30 -160 -75 -315 -121
-423 l-47 -108 28 -52 c92 -169 223 -274 545 -436 198 -100 272 -126 395 -140
256 -28 395 -106 477 -270 l33 -66 3 -1027 2 -1028 -152 0 -153 0 -4 638 c-2
350 -7 641 -12 647 -7 7 -17 -1089 -11 -1242 l1 -43 -861 0 -860 0 -47 38
c-117 96 -448 328 -457 320 -3 -3 12 -23 34 -44 21 -22 82 -91 137 -154 54
-63 102 -119 106 -124 5 -5 12 -7 15 -3 4 4 -3 16 -16 27 -13 11 -20 20 -16
20 4 0 -2 10 -14 22 -11 12 -19 29 -18 37 2 10 -10 22 -29 30 -18 8 -33 19
-33 23 0 5 5 6 12 2 7 -4 8 -3 4 4 -4 7 -14 12 -22 12 -8 0 -12 5 -9 10 3 6 1
10 -4 10 -6 0 -11 5 -11 10 0 11 82 -48 88 -62 2 -5 8 -8 13 -8 10 0 111 -72
162 -115 6 -6 29 -19 50 -29 21 -10 37 -20 35 -22 -3 -2 -364 -4 -804 -4
l-799 0 0 982 c0 1099 -3 1056 71 1168 l35 53 -79 116 c-43 64 -93 141 -110
172 -44 79 -116 261 -137 349 -29 125 -31 123 -50 -45 -16 -137 -17 -178 -7
-285 19 -211 84 -412 190 -593 69 -115 72 -122 64 -124 -6 -3 -6 -1300 1
-1671 l2 -142 1815 0 c998 0 1834 0 1858 0 l42 0 0 1030 c0 1024 0 1030 -21
1091 -25 71 -33 82 -114 165 -79 79 -176 119 -344 141 -159 21 -233 44 -396
124 -239 117 -350 188 -473 306 l-83 78 -11 69 c-10 70 -6 141 9 157 4 4 7 -9
7 -29 -1 -20 2 -46 7 -57 6 -14 7 -9 4 18 -3 20 -1 37 4 37 6 0 10 8 9 18 -1
26 11 104 21 137 l9 30 2 -35 2 -35 8 35 c5 19 6 46 3 59 -4 16 -2 22 5 17 6
-3 14 -1 18 5 4 8 3 9 -4 5 -8 -5 -12 1 -12 16 0 16 3 19 8 10 5 -8 9 6 10 35
0 26 8 82 17 123 9 41 24 106 32 145 8 38 19 77 23 86 5 9 15 56 22 105 6 49
15 91 19 94 3 3 12 37 18 75 7 39 16 82 21 98 5 15 5 27 1 27 -4 0 -6 32 -4
70 2 43 -1 70 -7 70 -5 0 -10 19 -9 43 1 43 3 42 13 -6 4 -16 11 -25 17 -21 6
4 7 9 3 13 -12 8 -15 52 -14 218 2 170 -12 270 -51 378 -16 44 -22 72 -15 62
8 -10 16 -17 18 -15 2 2 19 -9 37 -24 18 -16 29 -28 24 -28 -4 -1 2 -6 14 -13
67 -37 362 -359 428 -466 6 -9 20 -30 31 -46 32 -46 104 -166 104 -175 0 -4 7
-13 15 -20 8 -7 12 -16 9 -21 -3 -5 -1 -9 4 -9 8 0 38 -60 122 -244 17 -38 42
-102 56 -143 31 -93 76 -191 67 -148 -12 63 -67 225 -114 334 -88 205 -224
432 -369 616 -84 106 -308 329 -442 439 -82 67 -108 95 -108 112 0 13 -4 24
-10 24 -5 0 -19 19 -31 43 -12 23 -25 44 -29 47 -8 6 -24 43 -22 53 1 4 -2 7
-7 7 -5 0 -21 26 -37 58 -15 31 -33 63 -40 69 -7 7 -15 26 -19 42 -3 16 -15
37 -26 47 -10 9 -19 21 -19 26 0 5 -7 16 -16 25 -8 9 -13 22 -10 29 3 8 1 14
-4 14 -5 0 -11 8 -14 18 -2 9 -2 -1 1 -23z m429 -1528 c-5 -37 -10 -66 -12
-64 -2 2 0 50 4 108 5 74 8 93 12 64 3 -22 1 -70 -4 -108z m-2716 -1330 c0 -9
4 -25 9 -35 5 -9 13 -28 19 -42 24 -57 117 -256 125 -265 5 -5 16 -22 25 -36
37 -57 77 -115 99 -142 21 -26 21 -28 5 -57 -9 -17 -23 -28 -30 -25 -7 3 -10
1 -7 -5 3 -5 -4 -37 -15 -70 -11 -34 -24 -97 -27 -141 -5 -65 -8 -76 -17 -60
-69 124 -93 170 -120 232 -35 81 -77 233 -91 329 -21 139 -9 388 16 348 5 -7
9 -21 9 -31z m1565 -2607 c3 -5 1 -10 -4 -10 -6 0 -11 5 -11 10 0 6 2 10 4 10
3 0 8 -4 11 -10z"/>
<path d="M2414 7355 c11 -8 28 -15 38 -15 10 0 18 -4 18 -10 0 -5 5 -10 12
-10 6 0 25 -15 42 -32 17 -18 51 -49 75 -68 53 -41 101 -87 101 -95 0 -7 8
-17 46 -60 14 -16 35 -47 45 -67 10 -20 24 -40 30 -44 25 -15 -116 206 -180
284 -33 40 -92 88 -77 63 4 -6 2 -11 -3 -11 -6 0 -14 0 -18 0 -5 0 -8 5 -8 11
0 14 -63 49 -87 49 -10 0 -18 5 -18 10 0 6 -8 10 -17 10 -16 -1 -16 -2 1 -15z
m222 -132 c51 -61 41 -56 -34 15 -27 25 -39 42 -30 42 9 0 37 -26 64 -57z"/>
<path d="M2258 7353 c7 -3 16 -2 19 1 4 3 -2 6 -13 5 -11 0 -14 -3 -6 -6z"/>
<path d="M2335 7333 c11 -2 27 -7 35 -10 8 -3 20 -7 25 -9 6 -1 27 -9 48 -18
20 -9 37 -13 37 -8 0 15 -68 41 -117 45 -26 3 -39 3 -28 0z"/>
<path d="M1490 7319 c0 -5 5 -7 10 -4 6 3 10 8 10 11 0 2 -4 4 -10 4 -5 0 -10
-5 -10 -11z"/>
<path d="M2580 7326 c0 -2 7 -9 15 -16 9 -7 15 -8 15 -2 0 5 -7 12 -15 16 -8
3 -15 4 -15 2z"/>
<path d="M1645 7255 c-59 -30 -115 -61 -124 -70 -10 -8 -22 -15 -28 -15 -6 0
-13 -4 -15 -8 -1 -5 -20 -20 -40 -33 -108 -73 -376 -337 -465 -459 -154 -211
-230 -333 -347 -555 -14 -27 -26 -43 -26 -35 0 8 21 53 45 99 25 46 43 86 41
88 -6 7 -128 -246 -176 -364 -48 -120 -93 -287 -115 -428 -20 -120 -30 -139
-21 -35 23 247 124 535 286 815 172 299 347 561 444 664 31 33 43 51 31 47
-11 -4 -78 -12 -150 -17 -71 -5 -170 -14 -220 -20 -116 -14 -442 -80 -618
-124 -76 -19 -140 -35 -142 -35 -3 0 -5 -12 -5 -26 0 -20 4 -25 18 -21 372
111 475 136 742 181 153 26 320 39 320 25 0 -7 -74 -15 -102 -10 -4 0 -40 -12
-80 -28 -40 -16 -116 -39 -168 -51 -189 -43 -563 -149 -677 -192 -55 -20 -75
-46 -26 -33 16 4 35 9 43 10 8 1 29 8 45 16 17 9 37 15 45 14 8 0 18 3 21 9 4
5 20 9 37 10 17 0 28 3 26 6 -3 2 39 16 93 31 54 15 132 37 173 49 84 24 155
40 215 47 22 2 45 9 51 14 6 5 13 7 16 4 3 -3 18 1 34 10 34 17 48 19 39 5 -3
-5 -15 -10 -26 -10 -10 0 -19 -4 -19 -10 0 -5 4 -10 9 -10 9 0 127 23 181 36
15 3 21 2 15 -4 -10 -8 -34 -16 -134 -42 -23 -6 -41 -13 -39 -15 2 -2 37 4 77
15 52 13 70 15 60 6 -18 -17 -129 -47 -142 -39 -6 4 -7 1 -2 -7 5 -9 2 -10
-13 -6 -24 8 -109 -31 -158 -73 -18 -14 -55 -42 -84 -61 -28 -19 -58 -41 -65
-47 -7 -7 -17 -13 -22 -13 -5 0 -39 -30 -76 -67 -60 -60 -68 -65 -84 -52 -17
13 -17 13 0 -7 17 -20 16 -21 -8 -32 -14 -6 -25 -18 -25 -25 0 -8 -9 -22 -20
-32 -11 -10 -20 -23 -20 -28 0 -5 20 13 45 40 91 101 251 226 376 296 78 44
259 120 267 113 3 -3 -19 -16 -49 -28 -206 -84 -420 -226 -543 -359 -79 -87
-88 -114 -12 -38 92 92 137 130 147 123 5 -3 8 -2 7 3 -2 4 1 9 5 10 5 1 16
10 25 20 31 33 92 74 102 68 6 -3 10 1 10 9 0 8 9 18 20 21 11 3 20 10 20 15
0 5 6 7 14 4 7 -3 27 7 44 21 18 15 36 24 42 20 5 -3 10 -1 10 5 0 6 12 15 28
21 15 6 27 9 27 8 0 -1 10 3 22 10 22 11 22 11 11 -14 -6 -14 -15 -25 -20 -25
-4 0 -7 -3 -6 -7 3 -16 -25 -62 -35 -56 -6 4 -7 1 -3 -6 5 -7 1 -20 -7 -29 -9
-9 -17 -21 -18 -27 -4 -15 -39 -71 -39 -62 0 4 7 22 16 39 9 16 11 27 4 23
-11 -7 -29 -44 -26 -57 0 -4 -8 -14 -19 -23 -11 -9 -14 -14 -7 -10 6 3 12 2
12 -4 0 -5 -3 -11 -7 -13 -12 -5 -64 -88 -56 -88 5 0 4 -4 -2 -8 -13 -9 -29
-35 -56 -89 -12 -24 -26 -43 -31 -43 -6 0 -8 -7 -4 -15 3 -8 1 -15 -5 -15 -6
0 -8 -8 -5 -17 4 -10 4 -14 0 -11 -8 8 -54 -84 -90 -180 -14 -37 -29 -71 -34
-77 -16 -20 -79 -303 -90 -405 -29 -282 -37 -460 -24 -545 11 -78 19 -49 16
60 -7 215 33 413 158 770 38 109 183 407 238 490 22 33 79 125 127 205 76 125
152 230 229 316 12 12 31 36 44 53 13 17 69 73 125 124 56 50 101 95 99 99 -1
5 4 7 10 6 7 -2 12 2 11 9 -2 7 4 10 12 7 8 -3 19 3 27 15 7 12 18 21 24 21 6
0 21 11 34 25 13 14 30 25 37 25 8 0 11 5 8 10 -3 6 3 10 14 10 12 0 21 4 21
9 0 5 8 11 18 15 44 16 183 94 174 99 -5 4 -57 -18 -117 -48z m-614 -358 c-6
-8 -8 -17 -4 -20 3 -4 -5 -7 -20 -7 -14 0 -38 -5 -53 -10 -24 -9 -25 -9 -14 5
7 8 23 15 37 15 13 0 31 7 39 15 19 19 30 20 15 2z"/>
<path d="M2656 7268 c16 -18 30 -35 32 -37 1 -2 5 -2 8 1 7 8 -46 68 -60 68
-5 0 3 -15 20 -32z"/>
<path d="M2245 7259 c43 -4 84 -10 91 -13 7 -3 19 1 28 7 13 10 -6 12 -91 14
l-108 1 80 -9z"/>
<path d="M2405 7260 c3 -4 21 -11 42 -15 20 -3 58 -17 85 -30 56 -27 66 -15
10 14 -39 20 -145 44 -137 31z"/>
<path d="M2375 7230 c11 -5 34 -8 50 -8 29 0 29 0 5 8 -14 4 -36 8 -50 8 -23
1 -23 0 -5 -8z"/>
<path d="M2717 7212 c4 -9 15 -25 24 -36 10 -10 30 -43 44 -73 14 -31 28 -53
31 -50 9 8 -66 152 -86 165 -17 10 -18 9 -13 -6z"/>
<path d="M1885 7210 c-3 -5 1 -10 9 -10 8 0 18 5 21 10 3 6 -1 10 -9 10 -8 0
-18 -4 -21 -10z"/>
<path d="M2476 7193 c-6 -14 -5 -15 5 -6 7 7 10 15 7 18 -3 3 -9 -2 -12 -12z"/>
<path d="M1850 7189 c0 -5 5 -7 10 -4 6 3 10 8 10 11 0 2 -4 4 -10 4 -5 0 -10
-5 -10 -11z"/>
<path d="M2360 7191 c0 -6 4 -13 10 -16 6 -3 7 1 4 9 -7 18 -14 21 -14 7z"/>
<path d="M2516 7185 c25 -19 40 -19 24 0 -7 8 -20 15 -28 15 -13 0 -12 -3 4
-15z"/>
<path d="M1730 7186 c0 -2 7 -7 16 -10 8 -3 12 -2 9 4 -6 10 -25 14 -25 6z"/>
<path d="M1820 7180 c-9 -6 -10 -10 -3 -10 6 0 15 5 18 10 8 12 4 12 -15 0z"/>
<path d="M2261 7182 c-11 -4 34 -26 74 -35 5 -1 18 -10 30 -20 25 -23 107 -69
112 -63 7 6 -28 36 -42 36 -8 0 -17 5 -21 12 -5 8 -2 9 10 5 10 -4 15 -3 11 3
-4 6 -12 10 -18 8 -7 -1 -31 8 -55 20 -59 31 -85 40 -101 34z"/>
<path d="M2390 7180 c0 -5 5 -10 11 -10 5 0 7 5 4 10 -3 6 -8 10 -11 10 -2 0
-4 -4 -4 -10z"/>
<path d="M2420 7172 c0 -8 94 -72 107 -72 2 0 13 -10 23 -22 10 -13 22 -20 26
-15 8 8 -8 22 -81 70 -72 48 -75 49 -75 39z"/>
<path d="M2540 7156 c0 -2 7 -6 15 -10 8 -3 15 -1 15 4 0 6 -7 10 -15 10 -8 0
-15 -2 -15 -4z"/>
<path d="M1760 7139 c0 -5 5 -7 10 -4 6 3 10 8 10 11 0 2 -4 4 -10 4 -5 0 -10
-5 -10 -11z"/>
<path d="M2580 7136 c0 -2 8 -10 18 -17 15 -13 16 -12 3 4 -13 16 -21 21 -21
13z"/>
<path d="M1068 7123 c7 -3 16 -2 19 1 4 3 -2 6 -13 5 -11 0 -14 -3 -6 -6z"/>
<path d="M1490 7084 c-30 -25 -73 -62 -95 -82 -22 -21 -74 -66 -115 -102 -142
-122 -323 -320 -308 -335 3 -3 19 15 37 40 49 68 188 205 356 350 82 72 159
140 172 153 38 38 11 24 -47 -24z"/>
<path d="M1720 7115 c-11 -13 -10 -14 4 -9 9 3 16 10 16 15 0 13 -6 11 -20 -6z"/>
<path d="M2040 7104 c-30 -14 -66 -31 -80 -37 -113 -50 -278 -195 -394 -346
-62 -81 -204 -308 -157 -251 12 14 25 30 31 37 5 7 10 14 10 17 0 2 32 52 72
112 88 131 274 324 363 375 33 19 101 52 150 73 101 43 106 46 79 46 -10 -1
-44 -12 -74 -26z"/>
<path d="M2654 7116 c1 -8 5 -18 8 -22 4 -3 5 1 4 10 -1 8 -5 18 -8 22 -4 3
-5 -1 -4 -10z"/>
<path d="M1680 7085 c-8 -9 -8 -15 -2 -15 12 0 26 19 19 26 -2 2 -10 -2 -17
-11z"/>
<path d="M2119 7075 c-172 -27 -297 -107 -468 -301 -39 -44 -71 -85 -71 -90 0
-5 -9 -15 -20 -22 -12 -7 -18 -17 -15 -22 3 -6 1 -10 -6 -10 -6 0 -9 -8 -6
-20 3 -11 1 -18 -4 -14 -5 3 -14 -6 -21 -20 -6 -14 -15 -26 -21 -26 -5 0 -7
-7 -3 -15 3 -8 0 -15 -7 -15 -7 0 -18 -9 -24 -19 -10 -16 -9 -19 5 -16 9 1 16
8 14 15 -1 6 1 9 6 6 9 -5 76 79 78 99 1 6 2 15 3 22 0 7 28 41 61 76 33 35
56 68 52 72 -4 5 -2 6 3 2 6 -3 35 17 65 45 30 27 43 42 28 33 -40 -24 -35 -5
5 22 18 13 42 31 53 41 29 27 104 75 154 99 85 40 122 47 255 48 118 0 133 -2
166 -22 20 -13 47 -23 60 -23 l23 0 -21 15 c-12 8 -30 12 -40 9 -13 -4 -15 -3
-4 4 18 13 7 18 -63 31 -74 14 -128 13 -237 -4z m-409 -270 c-13 -14 -26 -23
-28 -20 -4 4 38 44 47 45 3 0 -6 -11 -19 -25z"/>
<path d="M1639 7043 c-13 -17 -13 -17 6 -3 11 8 22 16 24 17 2 2 0 3 -6 3 -6
0 -17 -8 -24 -17z"/>
<path d="M2590 7050 c0 -5 5 -10 11 -10 5 0 7 5 4 10 -3 6 -8 10 -11 10 -2 0
-4 -4 -4 -10z"/>
<path d="M2133 7038 c-24 -5 -43 -13 -43 -18 0 -4 -9 -6 -19 -3 -20 5 -186
-76 -176 -86 3 -2 11 1 17 7 7 7 18 12 26 12 12 0 12 -3 1 -17 -13 -16 -12
-17 3 -4 10 7 16 17 13 21 -10 17 98 53 218 73 37 6 67 14 67 19 0 10 -53 9
-107 -4z"/>
<path d="M2251 7034 c0 -11 3 -14 6 -6 3 7 2 16 -1 19 -3 4 -6 -2 -5 -13z"/>
<path d="M2499 7033 c10 -19 9 -23 -4 -23 -8 0 -15 -4 -15 -10 0 -17 27 -11
34 7 4 10 0 23 -10 32 -15 15 -15 14 -5 -6z"/>
<path d="M2545 7030 c3 -5 8 -10 11 -10 2 0 4 5 4 10 0 6 -5 10 -11 10 -5 0
-7 -4 -4 -10z"/>
<path d="M2615 7031 c-6 -11 13 -26 22 -17 4 3 1 6 -6 6 -7 0 -9 5 -6 10 3 6
4 10 1 10 -3 0 -7 -4 -11 -9z"/>
<path d="M1600 7015 c-7 -9 -8 -15 -2 -15 5 0 12 7 16 15 3 8 4 15 2 15 -2 0
-9 -7 -16 -15z"/>
<path d="M2305 7019 c22 -4 51 -8 65 -7 16 0 11 3 -15 9 -22 4 -51 8 -65 7
-16 0 -11 -3 15 -9z"/>
<path d="M2200 7001 c-66 -13 -180 -63 -211 -92 -17 -16 -27 -29 -21 -29 5 0
15 7 22 15 26 31 205 95 267 95 20 0 32 4 28 10 -7 11 -32 11 -85 1z"/>
<path d="M2525 6990 c3 -5 8 -10 11 -10 2 0 4 5 4 10 0 6 -5 10 -11 10 -5 0
-7 -4 -4 -10z"/>
<path d="M2448 6973 c7 -3 16 -2 19 1 4 3 -2 6 -13 5 -11 0 -14 -3 -6 -6z"/>
<path d="M2522 6964 c8 -9 23 -14 33 -12 12 2 7 7 -16 15 -30 12 -32 11 -17
-3z"/>
<path d="M1966 6925 c-26 -19 -48 -35 -50 -35 -3 0 -42 -28 -88 -62 -91 -69
-156 -130 -209 -197 -18 -24 -39 -48 -44 -55 -27 -30 -115 -154 -115 -162 0
-5 7 0 16 11 116 156 293 337 439 449 91 69 111 86 103 86 -3 0 -27 -16 -52
-35z"/>
<path d="M2185 6941 c-93 -20 -168 -47 -207 -73 -16 -11 -32 -17 -37 -14 -5 3
-31 -11 -58 -32 -56 -45 -78 -70 -69 -79 3 -3 6 -2 6 4 0 6 27 29 60 52 33 23
60 40 60 37 0 -3 30 8 66 24 36 17 70 28 74 25 5 -3 11 -1 14 4 5 8 172 51
246 64 14 2 3 4 -25 4 -27 0 -86 -7 -130 -16z"/>
<path d="M2676 6945 c4 -8 11 -15 16 -15 6 0 5 6 -2 15 -7 8 -14 15 -16 15 -2
0 -1 -7 2 -15z"/>
<path d="M2580 6936 c0 -2 8 -10 18 -17 15 -13 16 -12 3 4 -13 16 -21 21 -21
13z"/>
<path d="M1846 6904 c-5 -14 -4 -15 9 -4 17 14 19 20 6 20 -5 0 -12 -7 -15
-16z"/>
<path d="M1879 6903 c-13 -16 -12 -17 4 -4 9 7 17 15 17 17 0 8 -8 3 -21 -13z"/>
<path d="M2290 6910 c-19 -5 -75 -16 -123 -26 -60 -11 -102 -26 -130 -45 -44
-30 -63 -37 -51 -18 7 12 -78 -34 -122 -66 -53 -39 -89 -73 -83 -80 4 -3 27
12 52 33 24 21 62 50 83 62 22 13 42 29 46 34 4 6 10 8 13 4 4 -3 -6 -18 -22
-33 l-28 -27 32 18 c18 10 30 21 28 25 -3 4 2 10 11 13 22 8 26 8 19 -4 -8
-13 -3 -13 32 1 15 6 29 10 31 9 1 0 10 6 18 15 9 8 22 15 30 15 8 0 14 5 14
11 0 5 -5 7 -12 3 -6 -4 -8 -3 -5 3 3 5 19 8 34 6 15 -3 41 2 57 10 16 9 34
13 41 11 7 -3 16 -1 20 5 3 6 25 11 48 11 31 0 38 3 27 10 -8 5 -17 9 -20 9
-3 -1 -21 -5 -40 -9z m-200 -74 c-14 -7 -36 -16 -50 -20 -19 -5 -16 -2 10 13
19 11 42 20 50 20 8 0 4 -6 -10 -13z"/>
<path d="M820 6894 c-25 -7 -36 -13 -25 -13 11 0 40 6 65 13 56 18 22 18 -40
0z"/>
<path d="M1119 6893 c-13 -16 -12 -17 4 -4 16 13 21 21 13 21 -2 0 -10 -8 -17
-17z"/>
<path d="M2713 6885 c11 -23 27 -34 27 -17 -1 9 -26 42 -33 42 -3 0 0 -11 6
-25z"/>
<path d="M2620 6892 c0 -5 7 -13 16 -16 10 -4 14 -1 12 6 -5 15 -28 23 -28 10z"/>
<path d="M2335 6865 c-22 -8 -56 -17 -75 -20 -19 -3 -38 -11 -42 -18 -6 -9 -8
-9 -8 0 0 13 -45 3 -77 -17 -17 -11 -17 -11 2 -5 11 4 29 9 40 12 16 3 15 1
-5 -11 -39 -24 -9 -19 54 9 31 14 64 25 74 25 30 1 130 39 102 39 -14 0 -43
-6 -65 -14z"/>
<path d="M2742 6845 c2 -5 18 -39 37 -75 67 -130 113 -284 147 -500 19 -122
14 -283 -11 -370 -8 -30 -18 -102 -20 -160 -5 -110 7 -96 20 23 4 37 10 55 17
51 6 -4 8 -3 5 3 -4 6 -3 30 2 54 5 31 10 -33 16 -213 8 -269 5 -311 -20 -302
-8 4 -15 13 -15 22 0 8 -3 13 -6 9 -9 -9 -179 109 -196 137 -4 6 -8 7 -8 3 0
-8 -15 3 -56 40 -13 12 -24 20 -24 17 0 -3 -13 4 -29 15 -47 34 -73 27 -117
-26 -43 -54 -245 -253 -255 -253 -3 0 -26 -18 -50 -39 -23 -22 -45 -38 -49
-36 -5 3 -9 -17 -10 -60 -1 -11 20 -60 45 -108 25 -48 43 -93 39 -99 -4 -7 -3
-8 4 -4 18 11 15 -108 -4 -179 -14 -57 -53 -136 -80 -162 -7 -7 -21 -23 -31
-35 -63 -79 -201 -167 -388 -248 -27 -12 -62 -28 -78 -35 -33 -16 -31 -19 -80
125 -56 167 -84 293 -108 470 -20 152 -20 179 -10 345 13 198 28 315 60 448
18 75 27 95 60 130 53 56 84 97 74 97 -4 0 -1 5 7 10 8 5 15 15 15 22 1 7 6
12 12 11 6 -1 10 5 8 15 -1 9 1 19 5 22 4 3 25 33 47 67 22 34 43 60 47 58 3
-3 4 -2 1 1 -10 14 133 190 267 330 48 50 85 95 80 99 -4 5 -1 5 5 1 8 -4 31
10 58 35 93 86 40 21 -93 -115 -144 -147 -308 -334 -299 -342 3 -3 30 19 61
49 31 29 58 51 61 48 4 -3 4 1 1 9 -4 10 28 49 90 110 52 52 105 111 117 130
16 26 23 31 25 18 2 -10 9 -15 18 -11 17 6 19 24 3 21 -19 -5 -21 20 -2 26 10
4 36 31 57 61 22 30 43 55 47 55 4 0 15 12 25 28 17 26 16 26 -20 -5 -40 -36
-51 -39 -62 -21 -4 6 -3 9 2 5 12 -7 38 13 47 35 7 20 -98 -60 -183 -139 -84
-77 -278 -333 -484 -636 -33 -48 -65 -87 -72 -87 -29 0 -85 -279 -105 -515
-25 -315 25 -662 137 -946 37 -95 40 -138 3 -53 -57 134 -118 360 -145 539
-49 321 7 847 106 1015 37 63 277 394 369 509 78 98 216 243 261 273 76 51
140 103 130 106 -6 2 -26 -8 -45 -22 -18 -14 -38 -26 -42 -26 -12 0 -110 -87
-213 -190 -47 -47 -161 -159 -253 -250 -93 -90 -164 -166 -158 -168 13 -4 42
16 38 26 -1 4 52 59 118 122 l119 115 -94 -103 c-191 -208 -227 -265 -295
-462 -34 -99 -72 -255 -101 -420 -33 -184 -22 -480 25 -670 15 -61 12 -14 -9
113 -10 67 -21 165 -24 217 l-5 95 9 -80 c16 -132 61 -426 76 -493 8 -35 35
-121 61 -191 l46 -128 41 12 c53 17 180 72 276 120 221 111 353 248 389 406 6
24 11 79 11 122 0 75 -2 83 -50 174 -28 52 -50 101 -50 108 0 7 37 44 83 81
94 79 237 219 289 283 l36 45 179 -129 c98 -70 195 -140 215 -154 21 -14 40
-34 43 -43 4 -11 -14 -59 -44 -120 -70 -145 -77 -177 -56 -280 16 -81 35 -125
35 -81 0 11 7 38 16 58 36 87 52 209 64 485 7 151 10 309 8 350 -3 54 -5 36
-7 -65 -7 -336 -16 -316 -23 50 -4 204 -12 422 -18 485 -21 221 -77 435 -150
580 -34 66 -77 133 -68 105z m-542 -198 c0 -2 -15 -16 -32 -33 l-33 -29 29 33
c28 30 36 37 36 29z m-532 -504 c-35 -52 -58 -79 -58 -67 0 4 -8 1 -18 -7 -10
-8 -9 -5 3 6 11 11 34 38 50 60 27 36 45 54 53 55 2 0 -12 -21 -30 -47z m-75
-110 c-10 -16 -27 -37 -37 -48 -20 -20 -20 -20 -2 8 9 15 14 33 10 39 -4 6 -3
8 3 5 6 -4 16 0 23 8 20 24 22 17 3 -12z m-166 -345 c-3 -8 -6 -5 -6 6 -1 11
2 17 5 13 3 -3 4 -12 1 -19z m-10 -50 c-3 -7 -5 -2 -5 12 0 14 2 19 5 13 2 -7
2 -19 0 -25z m-25 -155 c-30 -187 -35 -324 -17 -497 16 -164 14 -205 -5 -74
-17 123 -27 345 -18 408 16 111 52 300 56 296 2 -3 -5 -62 -16 -133z m1569
-435 c-6 -17 -11 -45 -11 -62 0 -52 -17 -64 -25 -18 -4 23 -3 47 2 54 13 21
33 81 35 108 1 14 3 9 5 -13 3 -22 0 -53 -6 -69z m-49 -87 c0 -22 3 -43 8 -46
4 -3 6 -15 2 -27 -5 -21 -6 -21 -13 -2 -9 23 -12 130 -3 121 4 -3 6 -24 6 -46z
m-1515 -183 c-3 -7 -5 -2 -5 12 0 14 2 19 5 13 2 -7 2 -19 0 -25z m53 -188
c17 -63 46 -155 65 -205 19 -49 35 -94 35 -98 0 -16 -20 5 -20 21 0 9 -12 44
-26 77 -24 56 -105 346 -103 370 1 13 13 -25 49 -165z"/>
<path d="M2296 6803 c-27 -23 -27 -25 -7 -21 12 1 21 7 21 13 -1 5 6 12 16 15
10 4 13 9 8 12 -5 4 -22 -5 -38 -19z"/>
<path d="M2499 6803 c-8 -10 -25 -38 -39 -63 -13 -25 -30 -51 -37 -58 -7 -7
-16 -25 -19 -39 -4 -15 -9 -20 -14 -14 -7 12 -63 -45 -103 -104 -11 -14 -21
-24 -25 -21 -3 3 3 15 13 26 10 11 14 20 9 20 -5 0 -20 -17 -33 -37 -21 -32
-21 -35 -5 -30 14 5 13 3 -3 -9 -26 -19 -30 -34 -8 -34 8 0 21 12 29 28 8 15
40 52 71 82 57 55 127 154 164 230 21 44 21 49 0 23z"/>
<path d="M780 6789 c0 -5 -4 -8 -10 -4 -10 6 -49 -13 -65 -33 -6 -7 -17 -12
-25 -10 -8 2 -14 -3 -12 -9 1 -7 -2 -13 -7 -13 -5 0 -11 -6 -14 -13 -3 -7 32
6 77 30 44 23 90 43 101 43 l20 1 -20 9 c-28 12 -45 12 -45 -1z"/>
<path d="M1538 6758 c-90 -119 -386 -670 -432 -804 -21 -62 -6 -45 24 26 12
30 52 111 89 180 36 69 66 127 66 130 2 16 20 58 33 78 18 28 28 22 12 -7 -19
-36 -3 -23 20 16 14 24 16 32 6 24 -9 -8 -16 -11 -16 -8 0 6 52 101 89 162 73
120 139 235 137 235 -2 0 -15 -15 -28 -32z"/>
<path d="M2027 6730 c-48 -33 -90 -60 -94 -60 -3 0 -52 -31 -108 -69 -56 -38
-117 -77 -136 -86 -19 -10 -29 -20 -23 -22 6 -2 49 19 95 46 46 27 108 62 137
77 36 19 48 30 40 36 -10 6 -9 8 2 8 17 0 94 47 160 98 73 55 20 35 -73 -28z
m-107 -84 c0 -2 -7 -7 -16 -10 -8 -3 -12 -2 -9 4 6 10 25 14 25 6z"/>
<path d="M2175 6778 c-34 -12 -177 -109 -171 -116 3 -2 37 17 76 43 39 26 87
53 106 61 54 22 45 32 -11 12z"/>
<path d="M1982 6755 c-7 -8 -9 -15 -4 -15 5 0 15 7 22 15 16 19 -1 19 -18 0z"/>
<path d="M1890 6735 c-7 -8 -8 -15 -2 -15 5 0 15 7 22 15 7 8 8 15 2 15 -5 0
-15 -7 -22 -15z"/>
<path d="M1433 6681 c-77 -84 -153 -191 -135 -191 5 0 18 17 29 38 12 20 31
47 43 60 11 12 18 22 14 22 -4 0 11 17 32 38 55 52 89 92 78 91 -5 -1 -32 -27
-61 -58z"/>
<path d="M2298 6677 c-30 -34 -57 -66 -59 -72 -2 -5 -19 -23 -36 -39 -46 -39
-30 -53 18 -15 46 37 51 27 8 -19 -16 -17 -27 -37 -24 -42 6 -10 22 9 123 155
39 55 47 73 37 82 -10 9 -25 -2 -67 -50z m62 36 c0 -5 -21 -30 -46 -58 -52
-56 -48 -42 5 23 36 43 41 47 41 35z"/>
<path d="M1930 6720 c-18 -12 -2 -12 25 0 13 6 15 9 5 9 -8 0 -22 -4 -30 -9z"/>
<path d="M1601 6663 c-23 -25 -39 -48 -36 -51 3 -3 6 -3 8 -1 2 2 20 25 41 52
49 60 40 61 -13 0z"/>
<path d="M2881 6694 c0 -11 3 -14 6 -6 3 7 2 16 -1 19 -3 4 -6 -2 -5 -13z"/>
<path d="M1848 6662 c-32 -20 -83 -52 -113 -71 -31 -18 -54 -35 -51 -38 8 -8
190 101 224 134 25 24 -3 13 -60 -25z"/>
<path d="M10 6675 c-11 -13 -10 -14 4 -9 9 3 16 10 16 15 0 13 -6 11 -20 -6z"/>
<path d="M1245 6680 c-3 -5 -1 -10 4 -10 6 0 11 5 11 10 0 6 -2 10 -4 10 -3 0
-8 -4 -11 -10z"/>
<path d="M2015 6625 c-33 -24 -66 -44 -72 -45 -7 0 -13 -4 -13 -10 0 -5 -6
-10 -12 -10 -7 0 -39 -25 -72 -55 -32 -30 -62 -55 -66 -55 -4 0 -10 -7 -14
-15 -9 -23 22 -4 85 53 30 27 81 65 114 85 55 33 115 81 115 92 0 8 -2 6 -65
-40z"/>
<path d="M2451 6555 c-23 -25 -45 -45 -49 -45 -5 0 -21 -13 -37 -30 -16 -16
-34 -30 -39 -30 -6 0 -31 -17 -56 -37 -25 -20 -37 -33 -26 -29 13 4 17 2 13
-8 -4 -10 0 -12 14 -9 19 5 19 6 2 20 -16 13 -16 14 11 10 24 -4 35 1 58 27
35 37 46 49 99 101 37 37 65 75 56 75 -3 0 -23 -20 -46 -45z"/>
<path d="M1165 6570 c-3 -5 -1 -10 4 -10 6 0 11 5 11 10 0 6 -2 10 -4 10 -3 0
-8 -4 -11 -10z"/>
<path d="M2330 6522 c-30 -31 -54 -60 -53 -64 4 -12 -45 -41 -57 -33 -5 3 -10
2 -10 -3 0 -25 31 -16 76 23 48 41 112 121 103 129 -2 2 -29 -22 -59 -52z"/>
<path d="M2495 6538 c-11 -18 -26 -41 -32 -53 -7 -11 -13 -16 -13 -10 0 5 -11
-7 -25 -27 -14 -20 -25 -42 -25 -47 0 -6 -5 -11 -11 -11 -5 0 -7 6 -4 13 4 6
-5 -1 -19 -18 -14 -16 -26 -34 -26 -40 0 -7 3 -7 8 0 4 6 14 11 22 13 9 2 2
-10 -14 -27 -17 -17 -26 -31 -22 -31 5 0 1 -12 -9 -26 -9 -14 -15 -28 -12 -30
4 -4 67 71 67 81 0 3 17 32 38 63 55 82 113 182 104 182 -4 0 -16 -15 -27 -32z"/>
<path d="M753 6545 c0 -8 4 -12 9 -9 5 3 6 10 3 15 -9 13 -12 11 -12 -6z"/>
<path d="M2558 6507 c-3 -19 -2 -25 4 -19 6 6 8 18 6 28 -3 14 -5 12 -10 -9z"/>
<path d="M2972 6508 c7 -15 15 -23 17 -17 2 6 -4 18 -13 27 -15 15 -15 15 -4
-10z"/>
<path d="M2704 6479 c-3 -6 -1 -16 5 -22 8 -8 11 -5 11 11 0 24 -5 28 -16 11z"/>
<path d="M1096 6461 c-4 -7 -5 -15 -2 -18 9 -9 19 4 14 18 -4 11 -6 11 -12 0z"/>
<path d="M1296 6455 c-9 -26 -7 -32 5 -12 6 10 9 21 6 23 -2 3 -7 -2 -11 -11z"/>
<path d="M1434 6461 c3 -5 -1 -11 -9 -15 -8 -3 -15 -10 -15 -16 0 -17 14 -11
33 15 16 22 16 25 2 25 -9 0 -14 -4 -11 -9z"/>
<path d="M2389 6443 c-13 -16 -12 -17 4 -4 16 13 21 21 13 21 -2 0 -10 -8 -17
-17z"/>
<path d="M2450 6397 c-32 -47 -36 -56 -16 -37 30 27 71 88 64 95 -2 3 -24 -23
-48 -58z"/>
<path d="M1763 6378 c-75 -70 -78 -72 -112 -111 -55 -61 -6 -21 88 73 55 55
98 100 96 100 -2 0 -35 -28 -72 -62z"/>
<path d="M2566 6380 c-42 -27 -76 -54 -76 -60 0 -6 4 -9 9 -6 5 4 6 -4 3 -16
-5 -19 -7 -20 -10 -5 -4 21 -22 23 -22 2 0 -8 -5 -15 -11 -15 -5 0 -7 6 -4 13
4 6 -3 1 -14 -13 -26 -32 -26 -36 3 -36 16 0 22 4 18 14 -3 10 0 13 14 8 15
-4 26 5 49 44 29 48 55 69 40 33 -4 -10 -10 -29 -13 -43 -5 -22 -3 -24 11 -11
15 12 17 9 17 -33 0 -34 4 -46 15 -46 18 0 20 -16 3 -26 -7 -5 -8 -3 -3 6 5 9
4 11 -3 6 -15 -9 -16 -96 -1 -96 7 0 10 -12 7 -27 -3 -26 -1 -28 32 -31 26 -1
42 3 55 18 22 24 8 26 -24 4 -31 -22 -47 -5 -56 59 -7 44 -6 47 15 47 14 0 20
-5 17 -13 -2 -7 -1 -30 3 -52 l7 -40 11 27 c15 37 6 78 -28 113 -42 44 -44 92
-5 131 56 56 125 -20 125 -137 0 -35 -7 -63 -21 -86 -12 -19 -19 -36 -16 -39
3 -3 18 15 33 41 25 43 26 53 22 123 -3 43 -2 66 2 52 14 -43 11 -130 -5 -160
-9 -17 -15 -32 -15 -35 1 -24 -35 -98 -66 -134 -29 -35 -45 -113 -25 -125 6
-4 11 -4 10 1 -5 29 7 58 56 132 63 97 80 159 73 266 -5 74 -35 158 -66 181
-36 27 -85 17 -166 -36z m157 26 c28 -21 20 -27 -12 -8 -25 14 -35 15 -63 5
-30 -11 -31 -11 -14 2 24 18 65 19 89 1z m2 -46 c16 -18 15 -18 -19 -2 -19 10
-35 20 -36 24 0 12 38 -4 55 -22z m-144 -43 c-10 -9 -11 -8 -5 6 3 10 9 15 12
12 3 -3 0 -11 -7 -18z m54 -127 c3 -5 1 -10 -4 -10 -6 0 -11 5 -11 10 0 6 2
10 4 10 3 0 8 -4 11 -10z"/>
<path d="M1262 6395 c-6 -14 -10 -25 -8 -25 2 0 11 11 20 25 9 14 13 25 8 25
-5 0 -14 -11 -20 -25z"/>
<path d="M2317 6374 c-14 -14 -30 -23 -35 -20 -11 7 -26 -24 -16 -33 4 -3 9 0
11 7 3 6 12 12 20 12 13 0 13 -3 3 -15 -7 -8 -10 -15 -6 -15 3 0 1 -12 -5 -26
-9 -24 -8 -26 6 -14 9 8 14 22 12 31 -3 10 2 20 10 23 12 5 13 9 3 21 -7 8 -8
15 -4 15 5 0 15 9 22 20 17 27 10 25 -21 -6z"/>
<path d="M1385 6380 c3 -5 8 -10 11 -10 2 0 4 5 4 10 0 6 -5 10 -11 10 -5 0
-7 -4 -4 -10z"/>
<path d="M2477 6345 c-10 -14 -23 -25 -29 -25 -7 0 -6 6 2 15 11 13 10 14 -3
9 -27 -10 -28 -32 -1 -29 23 2 53 29 54 48 0 11 -4 8 -23 -18z"/>
<path d="M1250 6345 c-7 -9 -8 -15 -2 -15 5 0 12 7 16 15 3 8 4 15 2 15 -2 0
-9 -7 -16 -15z"/>
<path d="M1343 6320 c-12 -22 -17 -42 -12 -46 5 -3 9 1 9 9 0 7 9 23 20 35 20
21 26 42 13 42 -5 0 -18 -18 -30 -40z"/>
<path d="M3144 6316 c0 -13 4 -22 8 -20 9 6 6 44 -3 44 -4 0 -6 -11 -5 -24z"/>
<path d="M1023 6315 c0 -8 4 -15 9 -15 4 0 8 4 8 9 0 6 -4 12 -8 15 -5 3 -9
-1 -9 -9z"/>
<path d="M1306 6313 c-6 -14 -5 -15 5 -6 7 7 10 15 7 18 -3 3 -9 -2 -12 -12z"/>
<path d="M2640 6320 c-8 -5 -10 -10 -5 -10 6 0 5 -3 -1 -8 -6 -4 -14 -17 -18
-28 -5 -16 0 -25 18 -37 22 -15 36 -13 36 4 0 4 -9 11 -21 14 -22 7 -22 42 0
37 7 -1 10 2 6 8 -3 5 0 10 7 10 32 0 74 -129 48 -145 -6 -4 -10 8 -10 28 0
35 -7 50 -20 42 -4 -3 -1 -24 7 -47 8 -23 12 -52 8 -65 -8 -32 1 -29 20 7 30
57 11 166 -33 189 -25 13 -23 13 -42 1z"/>
<path d="M2376 6286 c-30 -40 -35 -63 -5 -26 23 29 41 60 36 60 -3 0 -16 -15
-31 -34z"/>
<path d="M1223 6288 c-2 -16 1 -18 10 -9 7 7 8 14 1 21 -6 6 -10 2 -11 -12z"/>
<path d="M2394 6265 c-9 -14 -14 -28 -11 -31 3 -3 13 8 22 25 19 37 12 41 -11
6z"/>
<path d="M1355 6260 c-3 -5 -1 -10 4 -10 6 0 11 5 11 10 0 6 -2 10 -4 10 -3 0
-8 -4 -11 -10z"/>
<path d="M2290 6230 c0 -5 5 -10 11 -10 5 0 7 5 4 10 -3 6 -8 10 -11 10 -2 0
-4 -4 -4 -10z"/>
<path d="M2350 6214 c0 -16 -2 -17 -11 -4 -9 12 -10 12 -5 -3 3 -10 6 -26 7
-35 0 -9 5 -2 10 17 6 18 8 36 5 39 -3 3 -6 -3 -6 -14z"/>
<path d="M2384 6206 c-3 -8 -4 -23 -2 -33 3 -11 6 -6 9 15 6 34 2 42 -7 18z"/>
<path d="M717 6163 c-39 -62 -43 -71 -25 -53 19 19 61 90 54 90 -3 0 -16 -17
-29 -37z"/>
<path d="M1267 6193 c-4 -3 -7 -11 -7 -17 0 -6 5 -5 12 2 6 6 9 14 7 17 -3 3
-9 2 -12 -2z"/>
<path d="M2311 6164 c0 -11 3 -14 6 -6 3 7 2 16 -1 19 -3 4 -6 -2 -5 -13z"/>
<path d="M1236 6128 l-18 -33 21 25 c18 22 26 40 18 40 -1 0 -11 -15 -21 -32z"/>
<path d="M1895 6150 c-3 -5 -1 -10 4 -10 6 0 11 5 11 10 0 6 -2 10 -4 10 -3 0
-8 -4 -11 -10z"/>
<path d="M4285 6140 c3 -5 10 -10 16 -10 5 0 9 5 9 10 0 6 -7 10 -16 10 -8 0
-12 -4 -9 -10z"/>
<path d="M2917 6133 c-4 -3 -7 -24 -7 -46 0 -22 -15 -98 -34 -171 -29 -109
-52 -235 -49 -256 1 -3 4 -25 8 -50 10 -64 15 -62 15 5 0 59 34 276 49 317 11
29 35 198 29 204 -3 2 -8 1 -11 -3z"/>
<path d="M1850 6113 c0 -10 4 -14 8 -8 4 6 11 13 16 18 5 4 2 7 -7 7 -10 0
-17 -8 -17 -17z"/>
<path d="M4292 6080 c0 -16 4 -30 9 -30 6 0 8 4 4 9 -3 5 -1 12 4 16 6 3 8 12
4 20 -9 25 -20 17 -21 -15z"/>
<path d="M1526 6062 l-29 -37 36 34 c39 36 42 41 30 41 -5 0 -21 -17 -37 -38z"/>
<path d="M1825 6090 c-3 -5 -1 -10 4 -10 6 0 11 5 11 10 0 6 -2 10 -4 10 -3 0
-8 -4 -11 -10z"/>
<path d="M4345 6080 c4 -6 11 -8 16 -5 14 9 11 15 -7 15 -8 0 -12 -5 -9 -10z"/>
<path d="M1190 6055 c-6 -8 -10 -19 -8 -24 1 -6 8 1 15 14 13 28 11 31 -7 10z"/>
<path d="M825 5986 c-9 -41 -15 -81 -13 -88 2 -6 12 26 21 72 21 105 15 118
-8 16z"/>
<path d="M1790 6050 c-9 -6 -10 -10 -3 -10 6 0 15 5 18 10 8 12 4 12 -15 0z"/>
<path d="M2846 6040 c-3 -14 -10 -47 -16 -73 -11 -50 -36 -117 -43 -117 -3 0
3 26 13 58 10 31 21 73 25 92 11 53 -10 24 -25 -35 -7 -27 -19 -60 -26 -72
-17 -28 -19 -67 -2 -57 7 5 8 3 3 -6 -6 -10 -11 -9 -23 6 -13 18 -14 18 -7 -5
5 -16 4 -21 -4 -17 -6 4 -11 2 -11 -4 0 -7 8 -9 20 -5 19 6 19 5 4 -30 -8 -20
-10 -34 -5 -30 14 8 14 -1 1 -25 -6 -10 -6 -21 -2 -24 5 -3 14 18 21 47 8 29
26 81 41 117 31 72 55 170 48 191 -4 9 -8 5 -12 -11z"/>
<path d="M2744 5954 c-22 -44 -28 -66 -21 -73 18 -18 24 -13 41 43 28 87 16
104 -20 30z"/>
<path d="M4340 6010 c0 -5 5 -10 11 -10 6 0 9 -7 6 -15 -4 -8 -2 -17 3 -20 6
-4 10 7 10 24 0 21 -5 31 -15 31 -8 0 -15 -4 -15 -10z"/>
<path d="M1166 5993 c-6 -14 -5 -15 5 -6 7 7 10 15 7 18 -3 3 -9 -2 -12 -12z"/>
<path d="M1460 5985 c-7 -9 -10 -18 -7 -21 3 -3 10 4 17 15 13 25 8 27 -10 6z"/>
<path d="M1696 5957 c-15 -18 -52 -58 -82 -90 -49 -52 -64 -77 -48 -77 3 0 24
21 47 46 23 26 61 67 84 93 24 25 43 49 43 54 0 15 -16 5 -44 -26z"/>
<path d="M1452 5903 c-83 -165 -146 -399 -162 -600 -15 -184 12 -511 49 -604
14 -34 13 -14 -3 71 -27 142 -38 326 -27 465 18 231 75 482 150 654 21 50 37
91 35 91 -2 0 -21 -35 -42 -77z"/>
<path d="M1125 5905 c-16 -36 -26 -68 -23 -71 5 -4 23 36 26 59 1 4 9 21 18
38 8 17 13 33 11 35 -2 3 -17 -25 -32 -61z"/>
<path d="M4162 5950 c0 -14 2 -19 5 -12 2 6 2 18 0 25 -3 6 -5 1 -5 -13z"/>
<path d="M4287 5953 c-10 -40 -8 -168 2 -158 17 17 26 75 12 75 -7 0 -10 4 -7
8 9 15 14 92 6 92 -5 0 -11 -8 -13 -17z"/>
<path d="M4330 5950 c0 -5 5 -10 10 -10 6 0 10 5 10 10 0 6 -4 10 -10 10 -5 0
-10 -4 -10 -10z"/>
<path d="M1407 5882 c-64 -138 -132 -383 -141 -507 -2 -38 -3 -59 0 -45 3 14
14 72 24 130 21 108 95 352 131 429 11 24 18 45 16 47 -2 2 -15 -22 -30 -54z"/>
<path d="M679 5904 c-25 -61 -107 -319 -103 -323 2 -2 5 -2 7 0 8 12 115 345
111 348 -2 2 -9 -9 -15 -25z"/>
<path d="M1080 5885 c0 -8 2 -15 4 -15 2 0 6 7 10 15 3 8 1 15 -4 15 -6 0 -10
-7 -10 -15z"/>
<path d="M4358 5850 c-3 -16 -1 -30 4 -30 4 0 8 14 8 30 0 17 -2 30 -4 30 -2
0 -6 -13 -8 -30z"/>
<path d="M1071 5844 c0 -11 3 -14 6 -6 3 7 2 16 -1 19 -3 4 -6 -2 -5 -13z"/>
<path d="M794 5836 c-3 -8 -4 -25 -2 -38 3 -17 5 -13 9 15 5 38 2 47 -7 23z"/>
<path d="M585 5829 c-4 -6 -5 -12 -2 -15 2 -3 7 2 10 11 7 17 1 20 -8 4z"/>
<path d="M618 5818 c-25 -40 -76 -170 -98 -253 -34 -128 -50 -261 -48 -395 l1
-125 7 131 c12 203 68 460 134 609 26 58 28 69 4 33z"/>
<path d="M1055 5809 c-4 -6 -5 -12 -2 -15 2 -3 7 2 10 11 7 17 1 20 -8 4z"/>
<path d="M1526 5785 c4 -8 8 -15 10 -15 2 0 4 7 4 15 0 8 -4 15 -10 15 -5 0
-7 -7 -4 -15z"/>
<path d="M2811 5772 c-1 -13 -5 -21 -10 -18 -9 6 -26 -82 -17 -91 7 -8 38 105
33 120 -3 6 -6 2 -6 -11z"/>
<path d="M4301 5782 c-1 -7 -4 -11 -8 -9 -5 3 -8 -41 -8 -98 0 -57 3 -101 7
-99 3 2 8 1 11 -3 2 -5 2 -2 1 5 -2 6 0 12 4 12 7 0 5 174 -3 195 -2 6 -4 4
-4 -3z"/>
<path d="M1040 5741 c0 -11 -4 -23 -10 -26 -5 -3 -10 -16 -10 -28 0 -12 -6
-40 -14 -62 -7 -22 -16 -58 -19 -80 l-6 -40 15 45 c31 94 64 198 64 204 0 3
-4 6 -10 6 -5 0 -10 -9 -10 -19z"/>
<path d="M4221 5742 c-13 -25 -14 -62 -2 -62 8 0 24 71 17 78 -3 2 -9 -5 -15
-16z"/>
<path d="M777 5711 c-4 -18 -6 -59 -6 -90 l1 -56 9 60 c5 33 8 74 7 90 l-3 30
-8 -34z"/>
<path d="M4261 5684 c0 -11 3 -14 6 -6 3 7 2 16 -1 19 -3 4 -6 -2 -5 -13z"/>
<path d="M1092 5660 c0 -19 2 -27 5 -17 2 9 2 25 0 35 -3 9 -5 1 -5 -18z"/>
<path d="M4362 5650 c0 -14 2 -19 5 -12 2 6 2 18 0 25 -3 6 -5 1 -5 -13z"/>
<path d="M4250 5636 c0 -36 15 -40 17 -5 1 16 -2 29 -7 29 -6 0 -10 -11 -10
-24z"/>
<path d="M2775 5639 c-4 -6 -5 -12 -2 -15 2 -3 7 2 10 11 7 17 1 20 -8 4z"/>
<path d="M625 5618 c-10 -30 -55 -241 -70 -333 -23 -137 -24 -306 -2 -430 35
-201 72 -351 88 -360 12 -8 11 -3 -1 31 -27 69 -68 312 -71 414 -5 146 35 538
67 665 6 25 -3 36 -11 13z"/>
<path d="M3105 5620 c-3 -5 -1 -10 4 -10 6 0 11 5 11 10 0 6 -2 10 -4 10 -3 0
-8 -4 -11 -10z"/>
<path d="M1083 5535 c0 -44 2 -61 4 -37 2 23 2 59 0 80 -2 20 -4 1 -4 -43z"/>
<path d="M4140 5568 c0 -17 20 -47 20 -31 0 6 3 18 6 27 4 11 1 16 -10 16 -9
0 -16 -6 -16 -12z"/>
<path d="M4254 5559 c-3 -6 -1 -16 5 -22 8 -8 11 -5 11 11 0 24 -5 28 -16 11z"/>
<path d="M773 5525 c0 -22 2 -30 4 -17 2 12 2 30 0 40 -3 9 -5 -1 -4 -23z"/>
<path d="M3067 5493 c-31 -93 -47 -203 -46 -300 l2 -98 8 115 c5 63 19 162 33
220 26 114 27 139 3 63z"/>
<path d="M4230 5504 c0 -8 5 -12 10 -9 6 4 8 11 5 16 -9 14 -15 11 -15 -7z"/>
<path d="M422 5423 c-11 -48 -26 -115 -33 -148 -16 -72 -19 -389 -4 -404 7 -7
9 36 7 129 -2 77 0 140 5 140 13 0 53 -225 53 -295 0 -33 -5 -89 -10 -125 -43
-280 -48 -363 -30 -510 14 -110 54 -290 75 -334 9 -19 13 -40 9 -47 -4 -8 -3
-9 4 -5 7 4 12 1 12 -6 0 -14 90 -200 100 -208 4 -3 15 -20 24 -38 9 -18 24
-36 31 -39 8 -3 13 -9 10 -13 -3 -5 -2 -11 3 -14 14 -9 11 32 -4 45 -8 6 -14
16 -14 21 0 6 -9 22 -19 37 -76 106 -167 344 -198 514 -21 121 -21 340 1 472
40 233 41 266 11 435 -28 165 -34 321 -15 419 17 88 4 70 -18 -26z"/>
<path d="M972 5475 c0 -16 2 -22 5 -12 2 9 2 23 0 30 -3 6 -5 -1 -5 -18z"/>
<path d="M4151 5473 c-7 -8 -10 -17 -7 -20 9 -9 29 13 25 25 -2 6 -10 3 -18
-5z"/>
<path d="M4236 5471 c-4 -7 -5 -15 -2 -18 9 -9 19 4 14 18 -4 11 -6 11 -12 0z"/>
<path d="M775 5418 c2 -24 6 -83 9 -132 4 -49 9 -92 12 -95 3 -3 3 39 0 94 -4
55 -8 117 -8 138 -1 20 -5 37 -9 37 -4 0 -5 -19 -4 -42z"/>
<path d="M632 5430 c0 -14 2 -19 5 -12 2 6 2 18 0 25 -3 6 -5 1 -5 -13z"/>
<path d="M947 5328 c-14 -119 -17 -226 -9 -273 6 -39 9 -11 14 135 3 102 4
186 3 188 -1 2 -5 -21 -8 -50z"/>
<path d="M1252 5280 c0 -14 2 -19 5 -12 2 6 2 18 0 25 -3 6 -5 1 -5 -13z"/>
<path d="M2068 5227 c-16 -6 -28 -14 -28 -19 0 -14 17 -9 41 12 27 22 26 22
-13 7z"/>
<path d="M1998 5203 c6 -2 18 -2 25 0 6 3 1 5 -13 5 -14 0 -19 -2 -12 -5z"/>
<path d="M804 5095 c5 -47 11 -83 14 -81 7 7 -9 166 -17 166 -3 0 -2 -38 3
-85z"/>
<path d="M585 4975 c6 -115 30 -232 73 -357 28 -81 51 -132 52 -116 0 3 -18
62 -39 132 -22 69 -47 171 -56 228 -34 219 -35 222 -30 113z"/>
<path d="M2842 4990 c0 -19 2 -27 5 -17 2 9 2 25 0 35 -3 9 -5 1 -5 -18z"/>
<path d="M825 4917 c3 -37 13 -103 21 -145 21 -104 114 -345 114 -296 0 6 -16
51 -35 100 -39 97 -66 197 -85 314 -16 100 -21 109 -15 27z"/>
<path d="M952 4960 c0 -14 4 -36 8 -50 6 -20 8 -21 8 -5 0 11 -4 34 -8 50 -7
27 -8 27 -8 5z"/>
<path d="M881 4954 c0 -11 3 -14 6 -6 3 7 2 16 -1 19 -3 4 -6 -2 -5 -13z"/>
<path d="M501 4944 c0 -11 3 -14 6 -6 3 7 2 16 -1 19 -3 4 -6 -2 -5 -13z"/>
<path d="M766 4883 c9 -43 46 -144 51 -139 2 2 -5 31 -17 65 -11 33 -20 70
-20 81 0 11 -5 20 -10 20 -6 0 -8 -12 -4 -27z"/>
<path d="M972 4835 c0 -16 2 -22 5 -12 2 9 2 23 0 30 -3 6 -5 -1 -5 -18z"/>
<path d="M490 4796 c0 -193 107 -483 265 -720 41 -62 75 -118 75 -125 0 -18
15 -13 44 18 l27 29 -73 108 c-123 181 -262 478 -305 651 -19 78 -33 94 -33
39z m86 -281 c2 -5 13 -23 23 -40 11 -16 20 -38 20 -47 1 -10 6 -18 11 -18 6
0 10 -6 10 -14 0 -18 50 -105 152 -262 48 -74 84 -134 80 -134 -4 0 -16 16
-26 35 -14 26 -22 32 -28 23 -7 -10 -8 -10 -7 2 3 26 -1 44 -7 37 -4 -3 -18
16 -32 43 -14 27 -30 46 -35 43 -6 -3 -7 -2 -4 3 3 6 1 16 -4 24 -8 13 -10 13
-20 0 -9 -13 -10 -12 -5 3 4 12 -18 62 -60 139 -37 67 -77 153 -90 192 -29 85
-31 113 -2 36 11 -30 22 -59 24 -65z m169 -375 c9 -16 13 -30 11 -30 -3 0 -12
14 -21 30 -9 17 -13 30 -11 30 3 0 12 -13 21 -30z m82 -125 c0 -8 -4 -12 -9
-9 -4 3 -8 9 -8 15 0 5 4 9 8 9 5 0 9 -7 9 -15z"/>
<path d="M3002 4735 c0 -16 2 -22 5 -12 2 9 2 23 0 30 -3 6 -5 -1 -5 -18z"/>
<path d="M2869 4708 c-12 -24 -42 -71 -66 -106 -26 -37 -37 -58 -26 -51 23 14
123 166 123 186 0 23 -9 14 -31 -29z"/>
<path d="M990 4711 c0 -5 5 -13 10 -16 6 -3 10 -2 10 4 0 5 -4 13 -10 16 -5 3
-10 2 -10 -4z"/>
<path d="M680 4701 c0 -6 4 -13 10 -16 6 -3 7 1 4 9 -7 18 -14 21 -14 7z"/>
<path d="M1320 4694 c1 -65 85 -384 101 -384 8 0 6 7 -34 135 -14 44 -32 118
-41 164 -13 72 -26 115 -26 85z"/>
<path d="M692 4645 c0 -16 2 -22 5 -12 2 9 2 23 0 30 -3 6 -5 -1 -5 -18z"/>
<path d="M1000 4660 c0 -5 5 -10 10 -10 6 0 10 5 10 10 0 6 -4 10 -10 10 -5 0
-10 -4 -10 -10z"/>
<path d="M955 4619 c3 -13 9 -37 14 -54 9 -28 9 -26 7 13 -2 24 -8 48 -14 54
-8 8 -10 5 -7 -13z"/>
<path d="M1370 4601 c0 -11 4 -22 9 -25 4 -3 6 6 3 19 -5 30 -12 33 -12 6z"/>
<path d="M1020 4584 c0 -8 5 -12 10 -9 6 4 8 11 5 16 -9 14 -15 11 -15 -7z"/>
<path d="M715 4535 c10 -49 100 -229 160 -322 82 -124 145 -198 145 -165 0 4
-25 38 -55 75 -64 80 -118 169 -198 327 -32 63 -55 102 -52 85z"/>
<path d="M1041 4534 c0 -11 3 -14 6 -6 3 7 2 16 -1 19 -3 4 -6 -2 -5 -13z"/>
<path d="M2735 4519 c-11 -16 -1 -19 13 -3 7 8 8 14 3 14 -5 0 -13 -5 -16 -11z"/>
<path d="M980 4506 c0 -27 35 -137 56 -175 14 -25 22 -37 19 -26 -56 173 -75
224 -75 201z"/>
<path d="M1435 4382 c4 -8 11 -26 15 -40 7 -22 8 -23 9 -6 1 11 -6 29 -15 40
-8 10 -12 13 -9 6z"/>
<path d="M790 4306 c0 -16 69 -136 110 -189 69 -91 77 -100 83 -90 4 6 -11 29
-33 53 -35 38 -72 92 -138 200 -12 19 -22 31 -22 26z"/>
<path d="M1420 4290 c0 -5 5 -10 10 -10 6 0 10 5 10 10 0 6 -4 10 -10 10 -5 0
-10 -4 -10 -10z"/>
<path d="M1181 4114 c0 -11 3 -14 6 -6 3 7 2 16 -1 19 -3 4 -6 -2 -5 -13z"/>
<path d="M1565 4090 c3 -5 8 -10 11 -10 2 0 4 5 4 10 0 6 -5 10 -11 10 -5 0
-7 -4 -4 -10z"/>
<path d="M1611 4025 c19 -44 130 -210 191 -286 159 -198 383 -420 512 -508 75
-51 136 -83 136 -72 0 7 -8 15 -17 18 -26 10 -149 98 -218 156 -123 103 -283
277 -458 497 -7 8 -41 58 -76 110 -74 111 -87 126 -70 85z"/>
<path d="M920 3971 c0 -6 5 -11 11 -11 5 0 7 -4 4 -10 -3 -5 -1 -10 4 -10 16
0 13 16 -4 30 -10 9 -15 9 -15 1z"/>
<path d="M1550 3968 c0 -9 5 -20 10 -23 13 -8 13 5 0 25 -8 13 -10 13 -10 -2z"/>
<path d="M1450 3931 c0 -6 4 -11 9 -11 5 0 12 -11 15 -25 4 -14 10 -25 15 -25
5 0 3 13 -5 30 -16 32 -34 48 -34 31z"/>
<path d="M962 3910 c7 -10 14 -18 15 -16 6 6 -9 36 -18 36 -5 0 -4 -9 3 -20z"/>
<path d="M1360 3916 c0 -2 8 -10 18 -17 15 -13 16 -12 3 4 -13 16 -21 21 -21
13z"/>
<path d="M1605 3890 c-3 -5 -2 -10 2 -10 5 0 17 -17 28 -37 23 -43 85 -113 85
-97 0 6 -7 17 -15 24 -9 7 -32 39 -52 71 -39 64 -39 64 -48 49z"/>
<path d="M990 3884 c0 -6 7 -19 15 -30 8 -10 14 -14 14 -9 0 6 -6 19 -14 29
-8 11 -15 15 -15 10z"/>
<path d="M1506 3852 c-3 -5 1 -15 9 -22 8 -7 12 -17 8 -23 -3 -6 -1 -7 5 -3 8
4 16 -3 22 -18 5 -14 14 -26 20 -26 13 0 13 8 0 23 -6 7 -21 27 -34 45 -13 18
-27 29 -30 24z"/>
<path d="M1610 3803 c0 -13 5 -23 12 -23 6 0 8 -3 5 -6 -4 -4 2 -19 13 -34 11
-16 20 -33 20 -39 0 -6 3 -11 8 -11 4 0 21 -21 37 -45 32 -48 57 -64 28 -17
-10 15 -20 29 -23 32 -13 10 -75 106 -76 117 -1 6 -7 19 -13 30 -10 17 -10 16
-11 -4z"/>
<path d="M1070 3776 c0 -7 12 -27 28 -44 15 -16 42 -48 60 -71 67 -82 269
-277 278 -269 2 3 -49 58 -114 124 -65 65 -148 154 -185 197 -37 43 -67 71
-67 63z"/>
<path d="M1490 3750 c11 -21 22 -25 33 -13 7 6 -21 32 -36 33 -4 0 -3 -9 3
-20z"/>
<path d="M1580 3745 c0 -3 14 -19 30 -37 17 -17 30 -37 30 -43 0 -7 7 -16 16
-19 9 -4 14 -9 12 -12 -6 -5 97 -111 158 -164 63 -55 230 -158 205 -127 -7 9
-9 17 -4 17 16 0 32 -22 26 -39 -4 -13 -3 -13 5 -2 9 12 13 11 28 -4 16 -15
28 -45 19 -45 -1 0 -40 21 -86 47 -134 75 -274 190 -456 372 -19 18 -36 31
-39 28 -11 -11 221 -228 336 -314 86 -65 221 -147 343 -209 124 -63 131 -53 9
13 -42 23 -76 46 -75 52 2 6 -3 8 -10 5 -8 -3 -14 2 -14 11 0 22 9 19 57 -17
24 -18 52 -39 64 -47 12 -8 40 -27 63 -43 45 -30 133 -62 133 -47 0 4 -16 12
-35 18 -37 10 -252 157 -377 258 -61 49 -76 57 -75 41 1 -12 17 -29 39 -41 35
-20 49 -37 30 -37 -14 0 -116 71 -177 123 -59 49 -157 147 -148 147 2 0 -2 7
-11 15 -8 9 -30 36 -47 60 -28 39 -49 56 -49 40z"/>
<path d="M940 3736 c0 -2 8 -10 18 -17 15 -13 16 -12 3 4 -13 16 -21 21 -21
13z"/>
<path d="M1730 3730 c0 -45 293 -336 325 -324 15 6 38 -29 27 -41 -4 -5 -1 -5
6 -1 7 4 21 2 30 -5 9 -7 -30 35 -87 94 -58 58 -107 105 -109 103 -2 -2 21
-30 52 -62 30 -32 53 -60 50 -63 -7 -7 -181 170 -243 248 -28 35 -51 58 -51
51z"/>
<path d="M1222 3658 c24 -29 57 -67 73 -84 17 -17 46 -50 65 -74 38 -47 133
-140 156 -153 8 -4 14 -13 14 -19 0 -7 -13 1 -30 17 -16 16 -33 26 -36 22 -6
-6 55 -66 69 -67 4 0 7 5 7 10 0 13 49 -21 50 -34 0 -5 -9 -1 -20 9 -11 10
-23 15 -27 12 -3 -4 -4 -8 -2 -10 197 -157 561 -379 591 -361 6 4 8 3 5 -3
-10 -16 438 -233 480 -233 19 0 -22 22 -109 59 -97 41 -259 123 -332 169 -21
13 -47 25 -57 27 -22 4 -69 35 -53 35 5 0 16 -6 24 -12 12 -11 12 -10 0 5 -7
10 -19 16 -27 13 -33 -13 -354 209 -519 359 -80 72 -253 251 -332 343 -40 46
-31 20 10 -30z"/>
<path d="M970 3691 c0 -5 7 -16 15 -25 8 -8 15 -19 15 -25 0 -6 5 -11 10 -11
16 0 12 10 -15 42 -14 16 -25 25 -25 19z"/>
<path d="M1726 3672 c6 -4 17 -18 23 -30 7 -13 15 -21 18 -19 7 8 -28 57 -41
57 -8 0 -8 -2 0 -8z"/>
<path d="M1051 3573 c40 -60 38 -57 45 -51 6 7 -57 96 -69 97 -4 1 6 -20 24
-46z"/>
<path d="M1767 3603 c-13 -14 -12 -18 14 -46 16 -17 37 -31 47 -32 9 0 24 -5
32 -10 22 -13 -15 43 -50 77 -24 24 -29 25 -43 11z m48 -28 c25 -24 32 -45 17
-45 -10 0 -62 53 -62 63 0 15 22 6 45 -18z"/>
<path d="M1400 3545 c18 -19 36 -33 38 -30 5 5 -56 65 -66 65 -3 0 9 -16 28
-35z"/>
<path d="M1105 3500 c3 -5 11 -10 16 -10 6 0 7 5 4 10 -3 6 -11 10 -16 10 -6
0 -7 -4 -4 -10z"/>
<path d="M1451 3502 c12 -36 211 -179 330 -238 176 -87 507 -176 641 -173 29
1 10 6 -55 15 -180 24 -369 80 -540 158 -79 36 -259 148 -294 183 -29 29 -86
67 -82 55z"/>
<path d="M1855 3490 c11 -12 34 -31 50 -43 l30 -20 -28 30 c-20 21 -25 32 -16
35 10 3 10 6 1 12 -7 4 -12 2 -12 -4 0 -7 -7 -7 -22 1 l-23 12 20 -23z"/>
<path d="M1916 3477 c3 -10 9 -15 12 -12 3 3 0 11 -7 18 -10 9 -11 8 -5 -6z"/>
<path d="M1140 3462 c0 -4 10 -13 23 -21 22 -14 22 -14 3 8 -20 22 -26 25 -26
13z"/>
<path d="M1440 3380 c0 -5 5 -10 10 -10 6 0 10 5 10 10 0 6 -4 10 -10 10 -5 0
-10 -4 -10 -10z"/>
<path d="M2140 3336 c0 -2 7 -7 16 -10 8 -3 12 -2 9 4 -6 10 -25 14 -25 6z"/>
<path d="M2150 3256 c0 -3 9 -10 20 -16 11 -6 20 -8 20 -6 0 3 -9 10 -20 16
-11 6 -20 8 -20 6z"/>
<path d="M2506 3199 c-31 -24 -35 -67 -8 -97 17 -21 30 -25 69 -23 24 1 53 45
53 80 0 22 -44 61 -70 61 -10 0 -29 -9 -44 -21z m79 -19 c37 -41 -8 -102 -59
-78 -31 13 -35 52 -9 80 21 23 45 23 68 -2z"/>
<path d="M2535 3179 c-12 -33 -10 -64 5 -64 9 0 16 11 18 29 4 32 -14 59 -23
35z"/>
<path d="M2345 3176 c17 -14 35 -26 40 -26 11 1 -20 27 -50 41 -11 6 -6 -1 10
-15z"/>
<path d="M2010 3026 c0 -3 9 -10 20 -16 11 -6 20 -8 20 -6 0 3 -9 10 -20 16
-11 6 -20 8 -20 6z"/>
<path d="M3965 2850 c-3 -5 -1 -10 4 -10 6 0 11 5 11 10 0 6 -2 10 -4 10 -3 0
-8 -4 -11 -10z"/>
<path d="M3927 2833 c-11 -20 -18 -67 -8 -58 11 11 26 65 18 65 -3 0 -8 -3
-10 -7z"/>
<path d="M3960 2820 c0 -5 5 -10 11 -10 5 0 7 5 4 10 -3 6 -8 10 -11 10 -2 0
-4 -4 -4 -10z"/>
<path d="M1225 2705 c-11 -118 -12 -242 -4 -280 4 -18 8 11 9 75 4 127 4 127
12 135 3 4 9 -8 13 -26 4 -19 11 -40 15 -49 15 -30 44 -95 44 -100 3 -17 80
-130 105 -154 17 -17 31 -36 31 -43 0 -8 5 -11 10 -8 6 3 10 0 10 -8 0 -8 15
-22 34 -32 23 -13 32 -23 28 -34 -5 -14 -4 -14 11 -2 15 12 17 12 10 -4 -5
-15 -3 -17 11 -12 10 4 15 3 11 -3 -3 -6 1 -10 9 -10 8 0 18 -9 21 -20 4 -11
9 -19 13 -17 10 6 41 -30 34 -38 -4 -4 -2 -6 3 -5 19 4 48 0 42 -6 -3 -3 18
-25 46 -49 29 -23 51 -47 50 -53 -1 -5 4 -9 11 -8 7 0 58 -42 114 -95 57 -55
112 -99 127 -101 23 -5 21 -1 -17 31 -24 19 -86 76 -138 126 -52 50 -149 135
-215 190 -284 234 -351 328 -413 575 l-29 114 -8 -89z m276 -472 c13 -16 12
-17 -3 -4 -10 7 -18 15 -18 17 0 8 8 3 21 -13z"/>
<path d="M3900 2756 c0 -2 -7 -41 -16 -87 -21 -112 -56 -197 -120 -296 -82
-124 -199 -210 -560 -414 -18 -9 -54 -33 -80 -52 -27 -19 -76 -48 -109 -65
-84 -43 -154 -92 -132 -92 10 0 29 7 42 16 13 9 30 12 36 8 7 -4 9 -3 5 4 -7
12 112 88 133 84 7 -2 10 1 6 7 -3 6 0 11 8 11 8 0 22 11 31 25 13 20 23 24
39 20 18 -5 19 -4 7 5 -12 10 -11 11 8 7 14 -3 20 -1 15 6 -4 7 0 8 11 4 10
-4 15 -3 11 3 -3 6 -1 10 4 10 20 0 207 112 353 211 134 92 223 210 285 376
23 64 44 213 29 213 -3 0 -6 -2 -6 -4z"/>
<path d="M1009 2668 c-5 -14 -4 -60 2 -63 4 -3 7 11 7 30 0 29 -4 44 -9 33z"/>
<path d="M3930 2561 c0 -33 4 -62 10 -66 5 -3 7 -12 3 -20 -3 -8 0 -15 7 -15
9 0 11 11 6 38 -3 20 -6 56 -6 80 0 23 -4 42 -10 42 -6 0 -10 -26 -10 -59z"/>
<path d="M1007 2583 c-3 -5 -5 -60 -6 -123 -1 -63 -3 -167 -6 -230 -13 -307
-15 -480 -7 -480 9 0 16 152 28 598 6 219 5 258 -9 235z"/>
<path d="M1162 2540 c0 -14 2 -19 5 -12 2 6 2 18 0 25 -3 6 -5 1 -5 -13z"/>
<path d="M1182 2440 c0 -14 2 -19 5 -12 2 6 2 18 0 25 -3 6 -5 1 -5 -13z"/>
<path d="M3971 2414 c0 -11 3 -14 6 -6 3 7 2 16 -1 19 -3 4 -6 -2 -5 -13z"/>
<path d="M1142 2395 c0 -16 2 -22 5 -12 2 9 2 23 0 30 -3 6 -5 -1 -5 -18z"/>
<path d="M3995 2390 c-3 -5 -1 -10 4 -10 6 0 11 5 11 10 0 6 -2 10 -4 10 -3 0
-8 -4 -11 -10z"/>
<path d="M1130 2349 c0 -5 5 -7 10 -4 6 3 10 8 10 11 0 2 -4 4 -10 4 -5 0 -10
-5 -10 -11z"/>
<path d="M4121 2214 c0 -11 3 -14 6 -6 3 7 2 16 -1 19 -3 4 -6 -2 -5 -13z"/>
<path d="M3331 2091 c-25 -22 -184 -121 -361 -226 -116 -69 -170 -105 -154
-105 4 0 38 18 76 40 37 22 101 59 141 82 118 69 311 197 320 213 11 20 4 19
-22 -4z"/>
<path d="M1940 2061 c0 -9 30 -24 36 -18 2 1 -6 8 -16 15 -11 7 -20 8 -20 3z"/>
<path d="M2030 2006 c0 -2 8 -10 18 -17 15 -13 16 -12 3 4 -13 16 -21 21 -21
13z"/>
<path d="M2075 1970 c3 -5 11 -10 16 -10 6 0 7 5 4 10 -3 6 -11 10 -16 10 -6
0 -7 -4 -4 -10z"/>
<path d="M2140 1926 c0 -2 7 -9 15 -16 9 -7 15 -8 15 -2 0 5 -7 12 -15 16 -8
3 -15 4 -15 2z"/>
<path d="M2210 1870 c0 -5 5 -10 10 -10 6 0 10 5 10 10 0 6 -4 10 -10 10 -5 0
-10 -4 -10 -10z"/>
<path d="M2547 1212 l-27 -3 0 -469 1 -469 22 -3 c12 -2 34 -1 50 1 l27 3 0
473 0 473 -22 -2 c-13 0 -35 -2 -51 -4z m53 -472 l0 -450 -29 0 -29 0 0 450 0
450 29 0 29 0 0 -450z"/>
</g>
</svg>
