<?xml version="1.0" standalone="no"?>
<!DOCTYPE svg PUBLIC "-//W3C//DTD SVG 20010904//EN"
 "http://www.w3.org/TR/2001/REC-SVG-20010904/DTD/svg10.dtd">
<svg version="1.0" xmlns="http://www.w3.org/2000/svg"
 width="512.000000pt" height="768.000000pt" viewBox="0 0 512.000000 768.000000"
 preserveAspectRatio="xMidYMid meet">
<metadata>
Created by potrace 1.16, written by Peter Selinger 2001-2019
</metadata>
<g transform="translate(0.000000,768.000000) scale(0.100000,-0.100000)"
fill="#000000" stroke="none">
<path d="M601 7651 c-1 -27 2 -32 11 -23 8 8 8 17 0 34 -10 22 -11 21 -11 -11z"/>
<path d="M1103 7638 c-128 -204 -195 -280 -311 -358 -79 -53 -212 -102 -317
-116 l-60 -7 50 -9 c56 -9 175 9 261 40 126 44 274 159 392 305 75 93 130 187
108 187 -9 0 -29 -23 -45 -51 -22 -40 -30 -47 -34 -33 -4 18 -5 18 -6 1 0 -10
-5 -15 -11 -12 -5 3 -7 0 -4 -8 3 -8 -2 -17 -10 -20 -9 -4 -13 -13 -10 -21 4
-12 -7 -29 -64 -96 -3 -3 -7 1 -9 8 -3 6 -9 9 -15 6 -7 -4 -7 -2 -2 7 10 16
79 121 104 159 23 35 31 60 20 60 -5 0 -22 -19 -37 -42z m-73 -206 c0 -17
-138 -134 -217 -185 -56 -35 -56 -27 0 12 23 16 65 50 92 75 28 25 53 45 58
46 4 0 7 6 7 14 0 8 5 18 12 22 7 5 9 2 4 -7 -4 -8 1 -4 10 9 16 22 34 29 34
14z"/>
<path d="M1408 7653 c-72 -172 -159 -325 -230 -407 -37 -41 -50 -49 -84 -51
-41 -3 -136 -38 -164 -60 -27 -22 -175 -55 -241 -55 -58 0 -207 32 -269 58
-35 14 -97 76 -150 147 -25 33 -48 62 -52 65 -4 3 -11 18 -17 33 -6 15 -17 27
-25 27 -13 0 -13 -5 2 -32 19 -35 17 -32 67 -100 19 -26 35 -50 35 -54 0 -4
-34 26 -75 67 -41 41 -75 80 -75 87 0 6 -6 12 -14 12 -8 0 -22 10 -30 22 -11
16 -19 19 -27 11 -13 -13 97 -132 186 -201 33 -25 62 -49 65 -53 10 -12 245
-120 304 -139 56 -18 220 -9 271 15 22 10 78 44 125 75 111 74 110 73 110 61
0 -30 -228 -165 -308 -182 -32 -7 -30 -8 14 -4 98 7 249 88 339 180 39 40 145
186 145 200 0 4 8 15 18 24 22 19 96 171 111 229 6 22 17 43 24 45 6 3 0 6
-16 6 -21 1 -30 -6 -39 -26z m-718 -603 l65 -9 -71 3 c-39 2 -79 8 -90 15 -17
10 -17 11 6 6 14 -3 54 -10 90 -15z m103 3 c-7 -2 -19 -2 -25 0 -7 3 -2 5 12
5 14 0 19 -2 13 -5z"/>
<path d="M1627 7666 c-10 -8 -17 -18 -15 -22 2 -9 -31 -85 -41 -94 -4 -3 -13
-18 -21 -35 -47 -95 -134 -200 -234 -283 -158 -131 -274 -203 -404 -248 -90
-31 -182 -45 -182 -26 0 4 -24 13 -53 19 -68 14 -199 69 -227 95 -11 11 -28
17 -36 14 -10 -4 -13 -2 -8 6 5 7 2 9 -9 5 -9 -3 -17 -3 -19 1 -2 4 -37 24
-78 44 -87 43 -150 89 -237 174 -43 41 -63 55 -63 44 0 -17 45 -68 117 -130
21 -19 28 -30 18 -30 -8 0 -15 5 -15 10 0 6 -4 10 -10 10 -12 0 -42 24 -81 65
-35 36 -41 13 -6 -26 23 -27 91 -79 102 -79 4 0 19 -8 33 -18 15 -10 77 -38
137 -62 61 -24 142 -60 180 -81 39 -21 113 -52 165 -69 122 -41 196 -40 291 7
35 17 102 45 149 63 107 40 178 83 308 184 157 122 303 283 383 424 25 45 27
52 12 52 -11 -1 -36 -28 -63 -70 -25 -38 -48 -70 -52 -70 -5 0 -8 -6 -8 -14 0
-8 -11 -23 -23 -33 -13 -10 -29 -29 -36 -41 -7 -12 -16 -20 -21 -17 -6 3 -7 0
-5 -7 11 -28 -274 -280 -380 -338 -27 -14 -32 -16 -15 -3 147 109 316 263 303
276 -3 4 5 19 18 36 39 48 84 115 84 126 1 6 6 9 12 8 6 -1 9 6 5 19 -3 12 -1
19 4 15 6 -3 11 6 12 21 1 15 7 29 12 30 6 2 10 10 10 18 0 9 4 13 9 9 5 -3
13 -1 16 5 4 6 3 10 -2 9 -20 -3 -27 2 -13 11 8 5 11 10 5 10 -5 -1 -18 -7
-28 -14z m-1442 -486 c3 -6 -1 -7 -9 -4 -18 7 -21 14 -7 14 6 0 13 -4 16 -10z"/>
<path d="M1810 7654 c-6 -14 -10 -30 -10 -35 0 -21 -65 -177 -97 -230 -37 -65
-168 -196 -262 -265 -90 -65 -193 -110 -323 -139 -62 -13 -123 -27 -135 -30
-13 -3 -22 -10 -20 -16 3 -14 -131 -62 -155 -56 -10 3 -18 2 -18 -2 0 -4 -15
-6 -32 -4 -33 4 -56 12 -115 41 -18 9 -35 14 -37 11 -3 -3 32 -42 78 -87 64
-63 90 -82 111 -82 30 0 29 10 -1 14 -25 4 -30 26 -6 26 11 0 28 3 38 7 13 5
15 3 9 -7 -12 -20 111 66 132 92 17 22 24 23 109 20 255 -10 404 47 519 200
133 176 186 295 239 541 8 35 -11 36 -24 1z m-149 -391 c-35 -70 -110 -162
-167 -207 -118 -93 -236 -128 -419 -125 l-70 1 100 19 c278 52 396 116 515
279 27 39 53 70 55 70 3 0 -3 -17 -14 -37z m-737 -374 c-25 -41 -187 -77 -212
-46 -8 9 4 12 56 12 47 1 81 7 112 22 55 26 53 25 44 12z"/>
<path d="M3350 7664 c0 -26 39 -169 66 -246 29 -79 95 -217 126 -260 24 -35
137 -113 215 -150 83 -39 141 -43 313 -22 80 9 157 17 173 17 15 0 27 3 27 8
0 11 -62 32 -241 83 -198 57 -363 135 -437 206 -59 57 -73 64 -42 20 15 -21
17 -30 8 -30 -7 0 2 -8 20 -16 17 -9 32 -21 32 -26 0 -5 -4 -6 -10 -3 -21 13
-9 -17 17 -43 15 -15 27 -31 25 -35 -1 -5 2 -6 8 -2 13 8 92 -39 83 -50 -5 -4
-2 -5 5 -1 7 4 29 -3 50 -16 20 -12 43 -23 51 -25 7 -1 18 -6 24 -12 6 -6 24
-11 39 -11 15 0 28 -4 28 -10 0 -5 12 -10 28 -10 15 0 33 -4 40 -9 22 -13 -92
-22 -143 -11 -60 13 -125 40 -125 51 0 5 -7 9 -15 9 -37 0 -148 100 -159 143
-3 15 -11 25 -16 22 -6 -4 -7 6 -4 24 6 30 -24 98 -64 144 -8 9 -11 17 -7 17
4 0 -2 8 -13 19 -12 10 -19 21 -15 24 3 4 1 12 -4 19 -12 15 -47 117 -58 166
-7 33 -25 45 -25 16z m180 -380 c0 -16 -22 1 -36 29 l-17 32 27 -28 c14 -15
26 -30 26 -33z m155 -84 c3 0 44 -18 90 -40 82 -38 153 -62 340 -115 l90 -25
-70 4 c-39 2 -107 16 -155 32 -47 15 -88 27 -92 26 -5 -1 -8 2 -8 6 0 4 -17
14 -37 21 -47 17 -186 83 -193 91 -3 4 -13 9 -23 13 -10 4 -15 11 -12 17 4 6
17 3 35 -10 15 -11 31 -20 35 -20z"/>
<path d="M3408 7675 c-8 -8 28 -106 48 -129 10 -11 17 -27 16 -33 -2 -7 1 -13
6 -13 5 0 17 -18 27 -39 12 -28 22 -38 33 -34 11 5 13 3 7 -7 -6 -9 -4 -11 5
-5 10 6 8 13 -10 27 -17 14 -20 22 -12 30 8 8 6 18 -6 36 -9 14 -33 57 -52 96
-33 65 -49 84 -62 71z"/>
<path d="M3538 7668 c5 -7 13 -24 17 -38 9 -30 88 -193 113 -235 60 -101 107
-161 136 -177 11 -6 -1 16 -27 50 -25 33 -43 62 -40 66 4 3 1 6 -5 6 -7 0 -12
6 -12 14 0 8 -4 16 -8 18 -4 2 -23 34 -41 71 -26 52 -31 71 -22 77 9 5 10 10
2 14 -6 4 -11 2 -11 -5 0 -10 -3 -10 -12 -1 -8 8 -8 15 0 25 9 10 7 17 -9 30
-13 12 -18 24 -14 37 4 12 0 27 -11 37 -16 16 -16 16 -11 -7 5 -21 5 -21 -5 3
-7 16 -20 27 -31 27 -14 0 -17 -3 -9 -12z"/>
<path d="M3730 7583 c56 -109 82 -157 124 -223 33 -51 86 -115 86 -103 0 4 5
0 11 -10 5 -9 29 -27 52 -38 47 -24 280 -173 309 -198 23 -20 23 -33 1 -30
-23 3 -93 -27 -93 -39 0 -16 32 -23 47 -10 9 8 47 11 109 10 109 -3 152 11
239 77 28 22 76 51 106 66 30 15 62 31 72 36 11 6 17 6 17 -2 0 -6 6 -9 13 -6
6 2 11 10 10 16 -2 6 4 11 13 11 8 0 12 -4 9 -10 -8 -14 24 -1 58 22 15 11 27
16 27 13 0 -4 7 0 15 9 8 8 15 17 15 20 0 11 -18 6 -32 -7 -7 -7 -15 -14 -18
-15 -3 0 -18 -5 -33 -11 -34 -13 -37 -13 -37 -3 0 4 19 16 41 27 67 32 79 39
79 47 0 5 9 8 21 8 13 0 18 4 13 12 -5 8 -2 9 9 5 10 -4 16 -2 14 6 -1 7 4 11
10 10 7 -2 12 3 10 10 -1 6 3 11 10 10 7 -2 10 3 7 11 -3 7 2 18 10 25 12 10
14 9 12 -6 -2 -10 -1 -12 1 -5 3 6 8 12 13 12 5 0 7 6 4 14 -3 8 -1 17 5 21 6
3 11 21 10 38 l-1 32 -9 -30 c-19 -65 -167 -180 -299 -232 -81 -32 -210 -108
-210 -123 0 -21 -58 -58 -117 -76 -54 -17 -104 -12 -124 13 -13 15 -10 16 30
10 29 -4 40 -2 30 4 -7 5 -23 9 -34 9 -11 0 -43 15 -70 33 -143 94 -206 139
-202 143 3 3 49 -21 103 -54 55 -32 114 -64 132 -71 35 -15 225 -21 238 -8 14
13 -3 18 -63 19 -86 1 -182 29 -333 99 -245 112 -291 156 -425 402 -75 137
-105 145 -35 10z"/>
<path d="M3940 7638 c77 -159 139 -245 262 -368 74 -73 125 -115 169 -138 66
-34 64 -32 -25 27 -50 33 -176 157 -176 174 0 5 -9 16 -19 25 -33 29 -132 174
-169 250 -20 39 -42 72 -49 72 -10 0 -8 -12 7 -42z"/>
<path d="M4151 7663 c8 -10 16 -20 19 -23 3 -3 11 -18 19 -35 7 -16 32 -59 56
-95 23 -36 58 -90 78 -122 37 -59 153 -188 169 -188 5 0 6 5 2 12 -4 7 -3 8 5
4 6 -4 9 -11 6 -16 -6 -10 66 -67 103 -81 16 -6 31 -5 49 4 l25 14 -53 30
c-30 17 -94 70 -143 117 -49 47 -92 86 -95 86 -3 0 -21 20 -38 44 -18 23 -42
53 -53 66 -11 12 -17 27 -13 33 3 5 1 7 -4 4 -6 -4 -29 31 -54 78 -36 71 -47
85 -67 85 -22 0 -23 -2 -11 -17z m332 -433 c-5 -6 -89 86 -104 115 -6 11 16
-9 49 -45 33 -36 58 -67 55 -70z m61 -50 c-6 -5 -24 21 -24 34 0 6 6 1 14 -10
8 -10 12 -21 10 -24z m86 -46 c0 -2 -16 4 -35 13 -19 9 -35 20 -35 25 0 4 16
-2 35 -13 19 -12 35 -23 35 -25z"/>
<path d="M4526 7628 c-3 -29 -7 -77 -8 -105 -1 -29 -5 -53 -9 -53 -4 0 -6 -11
-4 -25 1 -14 -1 -27 -4 -29 -4 -3 -5 -22 -3 -43 2 -21 3 -46 3 -55 0 -10 4
-20 10 -23 5 -4 9 30 10 82 0 48 2 95 4 103 1 8 6 53 9 100 4 46 10 88 12 92
3 4 1 8 -4 8 -5 0 -12 -24 -16 -52z"/>
<path d="M950 7650 c0 -5 5 -10 11 -10 5 0 7 5 4 10 -3 6 -8 10 -11 10 -2 0
-4 -4 -4 -10z"/>
<path d="M3770 7646 c0 -8 7 -17 16 -20 8 -3 13 -9 11 -13 -3 -5 5 -23 18 -41
13 -18 26 -29 29 -24 3 5 -7 28 -24 50 -16 22 -27 42 -24 45 3 2 -2 7 -11 10
-9 4 -15 1 -15 -7z"/>
<path d="M40 7640 c0 -5 5 -10 11 -10 5 0 7 5 4 10 -3 6 -8 10 -11 10 -2 0 -4
-4 -4 -10z"/>
<path d="M4050 7640 c0 -5 5 -10 10 -10 6 0 10 5 10 10 0 6 -4 10 -10 10 -5 0
-10 -4 -10 -10z"/>
<path d="M450 7611 c0 -5 5 -13 10 -16 6 -3 10 -2 10 4 0 5 -4 13 -10 16 -5 3
-10 2 -10 -4z"/>
<path d="M931 7604 c0 -11 3 -14 6 -6 3 7 2 16 -1 19 -3 4 -6 -2 -5 -13z"/>
<path d="M599 7563 c0 -26 -3 -82 -5 -123 -6 -87 4 -90 12 -4 10 102 11 165 2
170 -4 3 -8 -16 -9 -43z"/>
<path d="M467 7573 c-3 -5 0 -19 8 -29 15 -20 18 -11 6 20 -4 11 -10 15 -14 9z"/>
<path d="M3680 7575 c0 -12 63 -126 67 -121 3 2 -2 17 -10 33 -9 15 -22 43
-31 61 -13 28 -26 42 -26 27z"/>
<path d="M4794 7573 c10 -11 37 -12 30 -2 -3 5 -12 9 -21 9 -9 0 -13 -3 -9 -7z"/>
<path d="M903 7559 c11 -7 23 -7 28 -2 5 5 -3 9 -19 11 -24 1 -25 0 -9 -9z"/>
<path d="M4790 7540 c0 -5 5 -10 11 -10 5 0 7 5 4 10 -3 6 -8 10 -11 10 -2 0
-4 -4 -4 -10z"/>
<path d="M865 7530 c3 -5 8 -10 11 -10 2 0 4 5 4 10 0 6 -5 10 -11 10 -5 0 -7
-4 -4 -10z"/>
<path d="M3855 7510 c10 -11 20 -18 23 -16 5 6 -23 36 -34 36 -4 0 1 -9 11
-20z"/>
<path d="M4755 7519 c-9 -14 -2 -20 14 -10 8 6 9 11 3 15 -6 3 -14 1 -17 -5z"/>
<path d="M484 7505 c4 -24 16 -30 16 -7 0 12 -4 22 -9 22 -5 0 -8 -7 -7 -15z"/>
<path d="M1495 7510 c3 -5 8 -10 11 -10 2 0 4 5 4 10 0 6 -5 10 -11 10 -5 0
-7 -4 -4 -10z"/>
<path d="M4110 7509 c0 -5 5 -7 10 -4 6 3 10 8 10 11 0 2 -4 4 -10 4 -5 0 -10
-5 -10 -11z"/>
<path d="M845 7501 c-3 -5 -1 -12 5 -16 5 -3 10 1 10 9 0 18 -6 21 -15 7z"/>
<path d="M4126 7491 c-3 -5 1 -14 8 -20 12 -10 13 -8 9 8 -6 23 -9 25 -17 12z"/>
<path d="M1465 7458 l-16 -33 20 25 c20 24 26 40 16 40 -2 0 -12 -15 -20 -32z"/>
<path d="M4718 7466 c-7 -13 -30 -48 -50 -78 -56 -82 -81 -143 -68 -168 15
-27 30 -25 30 4 0 14 5 28 11 32 6 3 9 15 6 25 -3 11 -2 17 3 14 4 -3 11 11
14 30 4 19 11 35 16 35 6 0 10 9 10 21 0 16 4 19 21 14 17 -6 20 -4 15 12 -4
11 0 33 9 49 12 23 15 25 15 9 0 -16 2 -17 9 -5 6 8 7 18 5 22 -10 16 -33 8
-46 -16z"/>
<path d="M18 7468 c8 -8 8 -15 1 -24 -7 -8 -7 -14 1 -19 5 -3 10 2 10 12 0 15
2 16 10 3 5 -8 12 -12 15 -8 7 7 -30 48 -42 48 -4 0 -2 -5 5 -12z"/>
<path d="M826 7457 c3 -10 9 -15 12 -12 3 3 0 11 -7 18 -10 9 -11 8 -5 -6z"/>
<path d="M5011 7454 c0 -11 3 -14 6 -6 3 7 2 16 -1 19 -3 4 -6 -2 -5 -13z"/>
<path d="M510 7444 c0 -8 5 -12 10 -9 6 4 8 11 5 16 -9 14 -15 11 -15 -7z"/>
<path d="M150 7434 c0 -8 5 -12 10 -9 6 4 8 11 5 16 -9 14 -15 11 -15 -7z"/>
<path d="M3890 7444 c0 -5 9 -15 21 -22 12 -8 18 -19 15 -28 -3 -8 -2 -13 3
-10 8 6 26 -22 23 -36 -1 -3 6 -9 14 -12 12 -4 10 4 -7 34 -24 41 -69 90 -69
74z"/>
<path d="M4155 7440 c-3 -5 -2 -10 4 -10 5 0 13 5 16 10 3 6 2 10 -4 10 -5 0
-13 -4 -16 -10z"/>
<path d="M740 7410 c-12 -17 -20 -36 -18 -42 2 -6 14 7 26 30 25 49 22 54 -8
12z"/>
<path d="M1246 7424 c-5 -14 -4 -15 9 -4 17 14 19 20 6 20 -5 0 -12 -7 -15
-16z"/>
<path d="M3755 7420 c3 -5 8 -10 11 -10 2 0 4 5 4 10 0 6 -5 10 -11 10 -5 0
-7 -4 -4 -10z"/>
<path d="M4770 7421 c0 -6 4 -13 10 -16 6 -3 7 1 4 9 -7 18 -14 21 -14 7z"/>
<path d="M3610 7411 c0 -6 4 -13 10 -16 6 -3 7 1 4 9 -7 18 -14 21 -14 7z"/>
<path d="M4185 7400 c10 -11 15 -23 12 -26 -4 -4 4 -15 17 -25 29 -23 37 -24
30 -4 -4 8 -13 15 -21 15 -8 0 -12 4 -8 10 8 13 -17 50 -34 50 -11 0 -10 -5 4
-20z"/>
<path d="M3561 7394 c0 -11 3 -14 6 -6 3 7 2 16 -1 19 -3 4 -6 -2 -5 -13z"/>
<path d="M760 7390 c0 -5 4 -10 9 -10 6 0 13 5 16 10 3 6 -1 10 -9 10 -9 0
-16 -4 -16 -10z"/>
<path d="M692 7349 c-7 -11 -11 -24 -8 -27 10 -9 28 15 24 32 -2 14 -5 13 -16
-5z"/>
<path d="M3774 7335 c32 -75 92 -147 148 -176 57 -29 69 -22 17 10 -52 33
-120 106 -143 156 -23 47 -41 56 -22 10z"/>
<path d="M4700 7359 c0 -5 5 -7 10 -4 6 3 10 8 10 11 0 2 -4 4 -10 4 -5 0 -10
-5 -10 -11z"/>
<path d="M3656 7335 c4 -8 11 -15 16 -15 6 0 5 6 -2 15 -7 8 -14 15 -16 15 -2
0 -1 -7 2 -15z"/>
<path d="M4725 7331 c-3 -5 -2 -12 3 -15 5 -3 9 1 9 9 0 17 -3 19 -12 6z"/>
<path d="M650 7320 c0 -5 5 -10 11 -10 5 0 7 5 4 10 -3 6 -8 10 -11 10 -2 0
-4 -4 -4 -10z"/>
<path d="M1103 7303 c-4 -10 -16 -26 -28 -35 -20 -17 -19 -17 7 -5 15 6 29 22
31 34 5 27 -1 30 -10 6z"/>
<path d="M4263 7305 c7 -7 14 -9 15 -4 2 5 8 7 13 3 5 -3 9 -1 9 4 0 5 -11 10
-24 10 -19 0 -22 -3 -13 -13z"/>
<path d="M3680 7302 c0 -5 7 -15 15 -22 8 -7 15 -9 15 -6 0 4 -7 14 -15 22 -8
9 -15 11 -15 6z"/>
<path d="M4688 7270 c-31 -54 -43 -90 -29 -90 5 0 15 17 21 38 7 20 19 45 27
54 8 9 13 23 11 30 -3 7 -16 -8 -30 -32z"/>
<path d="M4300 7279 c0 -5 5 -7 10 -4 6 3 10 8 10 11 0 2 -4 4 -10 4 -5 0 -10
-5 -10 -11z"/>
<path d="M4250 7270 c0 -9 32 -30 44 -30 3 0 6 5 6 11 0 5 -4 7 -10 4 -5 -3
-10 -2 -10 3 0 6 -7 12 -15 16 -8 3 -15 1 -15 -4z"/>
<path d="M3550 7266 c0 -2 7 -9 15 -16 12 -10 15 -10 15 4 0 9 -7 16 -15 16
-8 0 -15 -2 -15 -4z"/>
<path d="M4310 7251 c0 -5 7 -11 14 -14 10 -4 13 -1 9 9 -6 15 -23 19 -23 5z"/>
<path d="M1005 7230 c-3 -5 -2 -10 4 -10 5 0 13 5 16 10 3 6 2 10 -4 10 -5 0
-13 -4 -16 -10z"/>
<path d="M4300 7225 c0 -2 16 -13 36 -24 30 -18 35 -19 30 -6 -3 9 -6 20 -6
23 0 4 -14 7 -30 8 -17 1 -30 0 -30 -1z"/>
<path d="M4380 7200 c0 -5 6 -10 13 -10 8 0 8 -3 -2 -9 -11 -7 -7 -13 18 -25
17 -9 31 -13 31 -9 0 5 4 2 9 -5 7 -11 9 -10 14 3 4 9 3 14 -2 11 -5 -3 -11 1
-15 9 -3 9 -12 12 -22 8 -10 -4 -15 -2 -11 3 3 6 -3 15 -14 22 -11 7 -19 8
-19 2z"/>
<path d="M1430 7190 c-13 -8 -12 -10 3 -10 9 0 17 5 17 10 0 12 -1 12 -20 0z"/>
<path d="M3385 7180 c3 -5 8 -10 11 -10 2 0 4 5 4 10 0 6 -5 10 -11 10 -5 0
-7 -4 -4 -10z"/>
<path d="M1706 7163 c-6 -14 -5 -15 5 -6 7 7 10 15 7 18 -3 3 -9 -2 -12 -12z"/>
<path d="M1390 7155 c-11 -13 -10 -14 4 -9 9 3 16 10 16 15 0 13 -6 11 -20 -6z"/>
<path d="M30 7120 c37 -31 50 -36 50 -20 0 6 -7 10 -15 10 -8 0 -15 3 -15 8 0
4 -12 13 -28 19 -24 11 -23 10 8 -17z"/>
<path d="M86 7135 c7 -18 30 -20 40 -2 4 6 4 9 -1 5 -4 -4 -16 -3 -26 3 -15 7
-17 6 -13 -6z"/>
<path d="M4476 7141 c-5 -7 6 -17 28 -26 41 -17 46 -18 46 -6 0 5 -12 12 -27
16 -15 3 -31 11 -34 17 -4 7 -9 6 -13 -1z"/>
<path d="M1335 7119 c-19 -12 -24 -19 -14 -19 9 0 22 7 29 15 7 8 17 12 23 8
6 -3 7 -1 3 5 -4 7 -8 12 -9 11 -1 0 -15 -9 -32 -20z"/>
<path d="M4030 7130 c0 -5 6 -10 14 -10 8 0 23 -3 33 -6 10 -3 7 2 -7 10 -30
18 -40 20 -40 6z"/>
<path d="M5075 7121 c-3 -5 -2 -12 3 -15 5 -3 9 1 9 9 0 17 -3 19 -12 6z"/>
<path d="M628 7113 c7 -3 16 -2 19 1 4 3 -2 6 -13 5 -11 0 -14 -3 -6 -6z"/>
<path d="M170 7088 c0 -4 6 -8 14 -8 7 0 19 -7 26 -15 12 -14 139 -66 193 -79
55 -13 17 12 -60 40 -43 15 -89 35 -103 43 -13 9 -27 16 -30 16 -3 0 -4 2 -3
5 1 3 -7 6 -18 6 -10 0 -19 -4 -19 -8z"/>
<path d="M3590 7080 c0 -20 72 -89 114 -110 24 -11 83 -25 132 -31 49 -6 131
-22 182 -35 51 -13 120 -24 155 -25 52 -1 57 -2 29 -9 -55 -13 -49 -20 16 -20
34 0 62 4 62 9 0 19 -90 54 -124 48 -18 -3 -62 1 -97 9 -35 8 -109 21 -164 29
-156 22 -183 33 -264 108 -23 21 -41 33 -41 27z"/>
<path d="M4710 7057 c-30 -18 -88 -57 -127 -85 -86 -61 -129 -73 -236 -63 -43
4 -80 4 -83 0 -14 -23 167 -44 231 -26 l30 9 -27 -21 c-32 -26 -115 -28 -159
-5 -17 8 -33 13 -37 10 -7 -7 -7 -7 42 -40 40 -27 80 -34 91 -16 3 6 11 10 18
10 6 0 -1 -12 -15 -27 l-27 -27 -53 16 c-63 19 -177 28 -178 13 0 -5 21 -11
47 -13 27 -1 70 -7 96 -12 104 -21 116 -15 235 129 44 52 222 173 237 161 15
-13 289 -17 295 -5 3 6 -6 10 -20 11 -14 0 -88 4 -165 7 l-140 7 -55 -33z"/>
<path d="M90 7070 c0 -5 9 -10 20 -10 11 0 20 -4 20 -8 0 -17 175 -82 219 -82
15 1 -4 11 -48 25 -40 13 -102 37 -138 54 -71 35 -73 35 -73 21z"/>
<path d="M5086 7034 c-41 -23 -161 -29 -218 -11 -48 15 -68 9 -68 -20 0 -7
-11 -19 -25 -25 -39 -18 -30 -26 23 -20 55 6 64 11 34 19 -12 3 -19 10 -16 15
4 7 30 8 68 3 33 -4 81 -7 106 -6 49 2 130 34 130 50 0 13 1 14 -34 -5z"/>
<path d="M0 7030 c0 -8 113 -80 127 -80 3 0 19 -7 36 -15 59 -28 146 -53 220
-66 60 -10 89 -10 146 0 74 13 82 20 54 42 -9 8 -14 9 -10 3 4 -7 0 -14 -8
-18 -8 -3 -15 0 -15 7 0 9 -3 8 -9 -1 -8 -13 -124 -18 -176 -9 -76 14 -279 95
-324 129 -26 20 -41 23 -41 8z"/>
<path d="M440 6980 c0 -5 7 -10 15 -10 8 0 15 5 15 10 0 6 -7 10 -15 10 -8 0
-15 -4 -15 -10z"/>
<path d="M5095 6980 c-3 -5 -1 -10 4 -10 6 0 11 5 11 10 0 6 -2 10 -4 10 -3 0
-8 -4 -11 -10z"/>
<path d="M4698 6973 c-10 -2 -18 -8 -18 -12 0 -11 49 -1 56 10 5 9 -8 10 -38
2z"/>
<path d="M5048 6965 c-14 -14 -190 -56 -249 -60 -73 -4 -119 3 -98 15 6 4 -11
7 -39 6 -66 -3 -74 -12 -25 -26 62 -18 155 -23 214 -11 85 18 229 63 229 73 0
9 -24 11 -32 3z"/>
<path d="M4125 6953 c-11 -3 -24 -10 -30 -15 -12 -13 35 0 50 13 5 5 7 8 5 8
-3 -1 -14 -3 -25 -6z"/>
<path d="M995 6880 c-3 -5 5 -11 17 -13 18 -3 17 -5 -7 -6 -16 -1 -37 -6 -45
-12 -11 -8 -3 -9 30 -4 24 3 47 9 50 13 3 4 11 7 18 8 26 2 32 4 32 12 0 10
-88 13 -95 2z"/>
<path d="M1120 4803 l0 -2082 -24 -26 c-19 -21 -30 -25 -48 -19 -34 11 -447
13 -490 2 -32 -7 -41 -5 -58 12 -11 11 -30 20 -43 20 -18 0 -19 2 -7 10 9 6
53 8 105 5 279 -16 535 -14 535 5 0 11 -602 19 -623 8 -22 -11 -22 -4 0 21 9
11 18 28 20 38 6 29 13 3996 7 4016 -3 9 -13 17 -22 16 -11 0 -12 -3 -4 -6 14
-6 16 -33 2 -33 -5 0 -10 -5 -10 -11 0 -5 5 -7 10 -4 6 3 10 1 10 -4 0 -6 -4
-11 -9 -11 -10 0 -9 -247 4 -660 4 -146 5 -263 2 -260 -8 8 -16 170 -17 322 0
125 -2 137 -17 131 -11 -4 -12 -8 -5 -11 17 -5 15 -22 -4 -22 -8 0 -12 -5 -9
-10 4 -6 11 -8 16 -5 5 4 9 -1 9 -9 0 -9 -8 -16 -17 -16 -13 0 -14 -3 -5 -12
8 -8 8 -17 0 -31 -7 -15 -7 -22 3 -28 8 -5 9 -9 3 -9 -7 0 -11 -87 -11 -278 0
-154 -3 -284 -7 -290 -4 -7 -4 -12 1 -12 4 0 8 -640 8 -1422 0 -1255 -2 -1424
-15 -1430 -8 -4 -104 -7 -212 -7 l-198 -1 0 -25 0 -25 943 -2 c518 -1 1078 0
1245 1 l302 4 0 -25 0 -25 -688 5 c-633 4 -690 3 -720 -12 -28 -14 -76 -18
-307 -23 -271 -5 -273 -5 -280 16 -6 21 -11 21 -251 21 l-244 0 0 -34 0 -34
513 -6 c281 -3 744 -7 1027 -7 901 -2 950 -3 951 -8 1 -3 3 -19 5 -35 10 -85
14 -10 14 244 0 251 -2 286 -17 302 -12 14 -14 21 -5 30 13 13 5 64 -15 93 -7
11 -13 26 -13 33 0 8 -18 36 -41 63 l-41 49 30 0 c17 0 34 -5 37 -10 3 -5 16
-10 28 -10 17 0 19 2 7 10 -8 5 -11 13 -6 17 8 8 275 7 284 -1 2 -3 -12 -25
-32 -49 -27 -33 -42 -44 -56 -40 -11 3 -20 0 -20 -6 0 -6 7 -11 15 -11 18 0
19 5 -5 -59 -12 -29 -18 -62 -15 -73 4 -10 1 -26 -7 -35 -16 -20 -25 -588 -8
-578 5 3 10 15 10 25 0 49 -5 48 263 52 139 2 601 3 1027 3 426 0 868 1 983 3
l207 2 0 35 0 35 -195 0 c-163 0 -201 -3 -228 -17 -26 -13 -74 -17 -276 -21
-236 -4 -244 -4 -272 17 l-29 21 -735 -2 c-404 -1 -738 1 -741 5 -4 3 -4 13 0
22 5 14 121 16 1228 14 673 -1 1229 -1 1236 0 6 0 12 12 12 26 l0 25 -162 0
c-90 0 -168 4 -174 8 -9 6 -12 92 -4 112 1 3 2 9 1 13 -1 7 -1 1520 0 1567 1
8 -1 34 -4 58 -3 24 -1 42 5 42 5 0 6 10 2 22 -11 34 -12 201 -2 222 7 12 6
21 -1 25 -11 7 -13 121 -2 121 4 0 8 7 8 15 0 8 -4 12 -9 9 -4 -3 -8 4 -8 16
0 12 5 18 10 15 6 -3 10 1 10 10 0 9 -4 13 -10 10 -6 -3 -10 4 -10 17 0 18 2
20 10 8 8 -13 10 -12 10 3 0 9 -4 17 -9 17 -11 0 -11 89 1 96 4 3 8 10 8 15 0
6 -4 8 -9 5 -10 -7 -9 20 2 30 3 4 2 15 -4 25 -7 14 -6 19 3 19 10 0 10 2 -1
9 -9 6 -10 11 -2 15 6 4 11 15 11 24 0 15 -2 15 -10 2 -6 -9 -10 -10 -10 -3 0
6 5 15 10 18 6 3 10 11 10 16 0 6 -6 7 -12 3 -10 -6 -10 -5 -1 7 10 12 10 18
0 29 -9 10 -9 11 1 6 14 -8 16 3 2 24 -5 8 -5 19 0 25 11 13 11 27 -2 43 -8 9
-7 11 6 6 14 -6 15 -4 1 22 -18 34 -19 48 -4 38 8 -5 8 -1 0 14 -15 28 -15
116 0 106 8 -4 8 -1 1 12 -5 11 -10 64 -10 119 -1 63 -5 101 -12 103 -6 2 -4
10 7 18 17 13 17 13 -4 14 -13 0 -23 -1 -24 -2 0 -2 -2 -347 -5 -768 -3 -421
-5 -853 -6 -960 -1 -142 -4 -92 -10 185 -4 209 -6 628 -3 930 3 303 5 699 6
880 1 231 5 334 13 344 6 8 7 12 1 9 -7 -4 -10 57 -10 175 0 135 -3 181 -12
184 -17 6 -18 -189 -18 -2392 l0 -1710 -270 -2 c-148 -1 -277 -2 -285 -3 -9 0
-4 -5 10 -13 32 -16 492 -15 532 1 19 8 29 21 33 44 3 18 5 279 3 580 -2 301
1 543 5 539 5 -5 8 -251 8 -547 -1 -538 3 -639 21 -613 8 12 9 12 6 0 -7 -26
-86 -61 -126 -56 -51 7 -445 7 -463 0 -8 -3 -25 5 -36 17 l-22 23 -4 1755 c-2
965 -7 1768 -11 1785 -15 62 -16 52 -19 -112 -1 -35 -5 -63 -9 -63 -4 0 -8 -5
-8 -11 0 -5 3 -8 8 -5 9 5 7 -88 -3 -103 -3 -6 -1 -11 5 -11 6 0 9 -4 6 -9 -9
-13 -11 -1310 -3 -1351 5 -25 4 -29 -2 -15 -8 16 -10 12 -10 -22 -1 -24 3 -43
8 -43 5 0 5 -18 -1 -42 -5 -24 -7 -68 -4 -98 4 -37 3 -50 -4 -40 -5 8 -10 10
-10 4 0 -6 3 -14 7 -18 4 -4 8 -367 10 -807 2 -744 1 -799 -15 -800 -9 0 -77
0 -149 1 -83 1 -141 -3 -154 -11 -16 -8 -20 -8 -14 0 4 8 -1 10 -17 7 -12 -3
-54 -8 -91 -11 -55 -5 -67 -3 -61 7 6 10 4 10 -7 3 -10 -8 -164 -12 -164 -4 0
0 -51 3 -114 6 -83 3 -116 1 -121 -8 -5 -7 -37 -12 -82 -14 -41 -1 -80 -5 -88
-10 -7 -5 -11 -4 -8 1 6 10 -120 12 -137 3 -5 -3 -52 -7 -102 -7 l-93 -2 0
170 c0 102 4 171 10 175 6 3 10 26 10 49 0 50 28 119 65 158 14 15 25 31 25
36 0 15 43 39 63 36 9 -1 15 1 12 6 -2 4 8 10 24 13 16 3 35 12 43 20 10 10
40 14 108 13 52 0 113 3 134 8 31 7 37 6 31 -4 -6 -9 -4 -11 5 -5 10 6 12 1 8
-18 -3 -15 -2 -24 2 -22 4 3 10 -9 12 -25 3 -17 1 -30 -4 -30 -5 0 -6 -5 -3
-10 4 -6 11 -8 16 -5 5 4 9 1 9 -4 0 -8 6 -8 18 -2 9 5 25 12 35 15 15 5 16 8
5 26 -12 19 -13 19 -17 3 -3 -19 -19 -33 -36 -33 -5 1 -3 6 6 13 14 11 14 14
-1 39 -9 16 -19 27 -21 25 -2 -1 -3 0 -2 2 1 2 -2 12 -8 23 -7 14 -6 23 7 36
15 14 33 16 109 14 117 -5 167 10 222 65 37 36 43 48 43 82 0 23 -4 41 -10 41
-5 0 -10 7 -10 15 0 10 -10 15 -27 16 -25 0 -26 1 -8 9 11 5 16 9 10 9 -5 1
-5 5 2 9 20 12 53 111 53 157 0 61 -6 73 -35 67 -18 -3 -27 1 -31 14 -22 67
-27 71 -60 67 -28 -4 -33 -1 -42 24 -9 27 -13 29 -48 25 -25 -3 -41 0 -48 10
-6 8 -23 23 -38 32 -32 21 -35 34 -10 43 19 8 47 33 36 33 -4 0 -1 6 7 13 19
15 45 85 57 154 8 47 7 53 -10 59 -10 3 -37 3 -60 -1 -61 -11 -270 4 -265 19
3 6 11 9 18 8 8 -2 11 0 7 4 -4 4 1 19 11 33 23 35 78 150 86 184 4 15 12 27
19 27 7 0 7 3 -2 8 -7 5 -11 19 -10 33 3 22 -1 24 -34 23 -28 -1 -38 3 -41 17
-6 21 -42 25 -94 10 -25 -7 -35 -6 -48 9 -9 10 -29 21 -43 25 -26 6 -112 81
-112 97 0 12 59 40 71 33 5 -4 8 -3 7 2 -2 4 0 8 3 8 4 0 16 8 26 18 11 9 23
14 27 10 4 -5 6 -1 4 7 -1 8 3 14 10 12 6 -1 11 1 10 5 -2 5 0 9 4 11 11 4 51
47 65 68 6 11 16 18 23 16 6 -1 9 2 6 7 -3 5 1 14 9 21 8 7 15 19 15 27 0 8 5
11 10 8 6 -4 10 -3 9 2 -4 21 2 34 13 27 7 -5 8 -3 4 5 -5 7 -1 20 7 29 9 9
16 19 15 22 0 19 16 59 22 55 5 -3 6 5 2 17 -3 11 -1 19 4 16 5 -3 10 14 11
38 2 44 2 44 -32 44 -31 0 -35 3 -35 28 0 46 -13 55 -64 50 -35 -4 -46 -2 -46
8 0 9 -11 14 -30 14 -19 0 -30 5 -30 14 0 7 -7 19 -15 26 -20 16 -61 152 -69
228 -9 83 -34 157 -90 271 -26 52 -44 101 -41 108 2 8 1 12 -4 9 -11 -7 -51
125 -81 267 l-23 107 -32 0 -32 0 -7 -66 c-13 -125 -37 -209 -107 -372 -86
-202 -94 -225 -119 -351 -25 -125 -34 -149 -68 -183 -15 -15 -35 -36 -44 -48
-13 -15 -25 -18 -47 -14 -33 7 -61 -12 -53 -35 3 -8 1 -11 -4 -8 -5 3 -8 -12
-6 -34 5 -44 5 -44 -34 -24 -41 21 -68 20 -61 -4 2 -10 0 -26 -6 -36 -6 -11
-6 -15 0 -12 5 4 22 -21 38 -54 39 -85 119 -204 169 -253 58 -56 116 -105 116
-99 0 3 7 0 15 -7 17 -14 20 -30 4 -30 -5 0 -7 6 -3 13 11 20 -80 -76 -110
-116 -31 -40 -52 -45 -119 -26 -38 10 -74 -2 -62 -21 3 -5 -11 -8 -31 -7 -37
2 -37 2 -37 -38 1 -22 4 -49 7 -60 17 -51 80 -166 111 -202 l34 -40 -156 -15
c-143 -14 -157 -17 -173 -39 -38 -49 -7 -136 72 -203 37 -32 38 -35 20 -45
-10 -6 -36 -11 -57 -13 -23 -1 -43 -10 -53 -23 -13 -15 -26 -19 -53 -17 -30 3
-37 -1 -42 -18 -3 -12 -10 -19 -16 -15 -7 3 -8 0 -5 -9 4 -12 0 -16 -16 -16
-13 0 -24 -8 -27 -20 -3 -11 -9 -17 -14 -14 -5 3 -6 -2 -3 -10 5 -12 0 -16
-18 -16 -16 0 -28 -8 -35 -22 -12 -28 2 -118 27 -171 24 -49 24 -44 0 -50 -16
-4 -19 -10 -12 -29 4 -12 7 -46 7 -75 0 -30 4 -51 10 -50 5 1 9 -4 7 -11 -1
-8 2 -11 7 -8 5 4 16 -2 23 -12 7 -10 35 -27 61 -37 40 -15 66 -17 157 -12 63
3 110 2 110 -3 0 -5 -7 -7 -15 -4 -8 4 -15 1 -15 -6 0 -7 -7 -10 -15 -6 -8 3
-15 1 -15 -4 0 -15 37 -12 43 3 4 9 6 9 6 -1 1 -11 4 -10 16 1 12 13 20 12 62
-10 44 -23 56 -24 133 -19 78 5 87 4 98 -14 7 -11 19 -20 27 -20 8 0 15 -4 15
-10 0 -5 6 -7 13 -4 7 2 23 1 34 -3 27 -10 93 -97 96 -126 1 -12 8 -28 15 -35
6 -7 12 -32 12 -56 0 -23 7 -51 15 -62 11 -15 14 -54 15 -176 0 -94 -4 -159
-10 -163 -6 -3 -10 -3 -10 2 0 4 -11 8 -25 8 -14 0 -25 -4 -25 -9 0 -5 -6 -3
-14 3 -10 9 -16 9 -21 1 -5 -8 -11 -7 -23 2 -12 10 -14 10 -8 1 8 -14 -25 -19
-37 -6 -11 10 -58 13 -52 2 4 -5 2 -9 -4 -9 -5 0 -13 5 -16 10 -3 6 -11 10
-16 10 -6 0 -7 -4 -4 -10 3 -5 -1 -10 -9 -10 -9 0 -16 3 -16 8 0 4 -48 8 -107
10 -59 2 -110 8 -114 13 -3 6 -102 9 -255 8 -413 -2 -564 1 -564 14 0 7 -1
325 -2 707 -1 382 1 700 5 706 3 6 4 14 0 18 -10 10 -10 345 1 339 5 -4 6 -1
2 6 -4 6 -10 391 -12 854 -8 1390 -10 1507 -22 1519 -9 9 -12 -492 -12 -2069z
m1500 1522 c29 -142 60 -236 110 -335 63 -125 79 -174 100 -299 22 -129 32
-161 75 -249 33 -66 40 -73 50 -42 3 11 11 20 17 20 6 0 8 -9 4 -20 -3 -11 -9
-30 -12 -42 l-7 -23 24 22 c23 21 69 43 90 43 5 0 9 -26 9 -58 0 -49 -4 -62
-27 -89 -65 -74 -95 -115 -105 -145 -6 -18 -16 -40 -22 -48 -6 -8 -1 -6 12 4
12 11 22 25 22 33 0 7 5 13 10 13 6 0 10 5 10 11 0 26 148 199 171 199 22 0
-80 -212 -132 -275 -55 -66 -184 -162 -252 -188 -22 -8 -19 -13 48 -94 38 -46
56 -60 74 -59 18 1 29 -7 40 -29 9 -16 17 -32 18 -34 2 -2 9 2 17 8 8 7 36 19
61 26 l45 14 0 -31 c0 -25 -13 -45 -58 -92 -57 -59 -101 -126 -84 -126 5 0 18
17 30 39 23 40 165 181 182 181 30 0 -42 -186 -100 -260 -17 -21 -56 -51 -92
-69 -95 -47 -139 -73 -134 -78 2 -2 30 8 63 24 50 24 73 28 161 31 57 2 114 1
128 -2 24 -6 23 -8 -32 -59 -31 -29 -64 -55 -73 -59 -17 -7 -16 -8 12 -13 9
-2 15 1 11 6 -3 5 0 9 6 9 6 0 30 18 53 39 23 22 58 44 77 49 30 9 31 10 10
11 -20 1 -22 3 -10 11 8 6 34 7 58 4 29 -4 47 -2 59 7 15 13 16 9 10 -40 -10
-86 -73 -173 -157 -216 -41 -21 -29 -35 30 -35 40 0 52 -4 69 -26 11 -14 21
-30 24 -37 3 -9 8 -9 20 1 26 22 60 11 71 -23 6 -16 11 -31 12 -33 1 -1 13 3
28 9 31 14 34 12 51 -38 11 -32 17 -38 39 -35 70 9 22 -157 -69 -236 -37 -33
-45 -48 -20 -38 37 14 9 -7 -62 -46 -42 -23 -71 -44 -65 -46 13 -4 128 57 178
95 36 27 46 29 38 8 -4 -9 0 -15 10 -15 21 0 20 -5 -6 -52 -14 -24 -41 -51
-68 -66 -42 -25 -52 -27 -154 -25 -99 2 -113 0 -150 -22 -53 -31 -128 -40
-199 -25 -51 10 -57 10 -76 -9 -35 -35 -59 -38 -251 -32 -52 1 -143 -1 -201
-5 -74 -5 -116 -3 -143 6 -38 12 -44 34 -10 36 22 1 77 34 70 41 -2 3 -19 -3
-38 -13 -24 -12 -66 -18 -153 -21 -117 -5 -121 -4 -160 22 -39 27 -42 27 -141
21 -131 -9 -172 2 -230 59 -47 48 -56 75 -24 75 26 0 25 14 -2 33 -13 8 -20
18 -17 21 3 4 32 -9 64 -29 77 -46 91 -44 34 4 -46 40 -100 134 -114 198 -9
45 10 77 40 69 21 -5 25 -2 31 29 5 28 11 35 30 35 13 0 24 6 24 13 0 7 6 21
13 31 12 16 14 16 38 -3 l26 -20 11 24 c17 37 58 60 85 48 19 -9 27 -7 45 14
17 19 28 24 47 19 14 -4 25 -4 25 -2 0 3 -27 24 -61 47 -62 42 -119 115 -119
153 0 31 30 56 68 56 38 0 113 -34 181 -84 61 -44 71 -49 71 -37 0 5 -9 13
-20 16 -11 3 -20 12 -20 19 0 6 -19 22 -42 34 -24 12 -57 30 -75 40 l-31 19
91 10 c116 14 178 4 273 -42 41 -19 84 -35 96 -34 15 0 9 5 -19 13 -77 25
-208 104 -257 156 -66 70 -150 260 -116 260 12 0 109 -94 133 -130 l18 -25
-12 25 c-7 14 -24 39 -40 57 -26 30 -47 88 -35 100 2 3 26 -2 52 -11 32 -11
51 -13 59 -6 7 6 19 8 28 4 11 -4 21 5 33 28 21 42 79 97 127 122 20 11 37 22
37 25 0 3 -26 24 -58 46 -80 55 -147 120 -197 190 -54 76 -137 235 -121 235 6
-1 27 -14 46 -31 l35 -30 6 51 c14 107 24 118 72 80 32 -25 37 -25 37 0 0 30
25 75 53 93 18 12 28 33 41 94 45 207 60 256 125 408 71 165 105 269 116 360
17 135 23 133 55 -20z m-2130 -1392 c0 -366 -2 -664 -4 -662 -2 2 -6 281 -10
620 -5 542 -3 709 10 709 2 0 4 -300 4 -667z m-3 -730 c-3 -10 -5 -4 -5 12 0
17 2 24 5 18 2 -7 2 -21 0 -30z m0 -55 c-3 -7 -5 -2 -5 12 0 14 2 19 5 13 2
-7 2 -19 0 -25z m-20 -415 c-2 -16 -4 -3 -4 27 0 30 2 43 4 28 2 -16 2 -40 0
-55z m2410 -1059 c-3 -3 -12 -4 -19 -1 -8 3 -5 6 6 6 11 1 17 -2 13 -5z m-709
-91 c-10 -2 -28 -2 -40 0 -13 2 -5 4 17 4 22 1 32 -1 23 -4z m847 -5 c-27 -4
-106 -7 -175 -7 -69 1 -140 -2 -157 -6 -26 -6 -33 -4 -33 7 0 13 31 15 208 14
128 0 188 -3 157 -8z"/>
<path d="M2589 6235 c-2 -49 -1 -119 2 -155 5 -59 6 -61 7 -17 1 27 6 46 10
43 10 -6 6 127 -6 179 -8 36 -10 31 -13 -50z"/>
<path d="M2634 6039 c3 -17 6 -57 7 -88 0 -50 2 -53 11 -28 6 17 7 47 2 75 -5
26 -8 53 -7 60 0 6 -4 12 -9 12 -6 0 -8 -13 -4 -31z"/>
<path d="M2510 6031 c0 -6 4 -12 8 -15 5 -3 9 1 9 9 0 8 -4 15 -9 15 -4 0 -8
-4 -8 -9z"/>
<path d="M2609 6008 c-7 -15 -6 -58 2 -58 5 0 8 14 7 30 -2 26 -5 36 -9 28z"/>
<path d="M2510 5990 c10 -6 11 -10 3 -10 -7 0 -13 -7 -13 -15 0 -8 5 -15 10
-15 6 0 10 4 10 9 0 5 3 16 6 25 4 11 0 16 -12 16 -16 0 -17 -2 -4 -10z"/>
<path d="M2572 5965 c0 -16 2 -22 5 -12 2 9 2 23 0 30 -3 6 -5 -1 -5 -18z"/>
<path d="M2696 5950 c7 -28 12 -35 18 -29 2 2 -2 15 -10 29 l-15 25 7 -25z"/>
<path d="M2480 5935 c7 -8 9 -19 5 -25 -3 -5 -4 -10 -1 -10 3 0 10 9 15 19 9
15 7 20 -10 24 -16 4 -18 3 -9 -8z"/>
<path d="M2618 5913 c5 -21 7 -23 10 -9 2 10 0 22 -6 28 -6 6 -7 0 -4 -19z"/>
<path d="M2476 5881 c-4 -6 -2 -11 5 -11 7 0 4 -7 -7 -16 -13 -11 -15 -17 -6
-20 6 -3 10 -10 7 -14 -3 -5 0 -12 6 -16 9 -5 10 0 6 16 -3 13 -1 30 5 37 8
10 8 17 1 24 -8 8 -13 7 -17 0z"/>
<path d="M2591 5851 c-1 -24 2 -32 9 -25 7 7 7 19 1 35 -9 23 -10 22 -10 -10z"/>
<path d="M2630 5866 c0 -9 5 -16 10 -16 6 0 10 4 10 9 0 6 -4 13 -10 16 -5 3
-10 -1 -10 -9z"/>
<path d="M2677 5840 c3 -25 7 -47 9 -49 8 -9 2 55 -6 74 -6 13 -7 5 -3 -25z"/>
<path d="M2643 5795 c0 -27 2 -38 4 -22 2 15 2 37 0 50 -2 12 -4 0 -4 -28z"/>
<path d="M2591 5794 c0 -11 3 -14 6 -6 3 7 2 16 -1 19 -3 4 -6 -2 -5 -13z"/>
<path d="M2450 5786 c0 -9 5 -16 10 -16 6 0 10 4 10 9 0 6 -4 13 -10 16 -5 3
-10 -1 -10 -9z"/>
<path d="M2457 5708 c3 -66 5 -78 12 -74 8 5 1 126 -8 126 -3 0 -5 -24 -4 -52z"/>
<path d="M2641 5694 c0 -11 3 -14 6 -6 3 7 2 16 -1 19 -3 4 -6 -2 -5 -13z"/>
<path d="M2369 5610 c-3 -8 -1 -35 5 -60 6 -28 11 -37 13 -25 5 27 -12 104
-18 85z"/>
<path d="M2333 5485 c0 -8 5 -15 10 -15 5 0 4 -7 -3 -15 -7 -9 -16 -12 -19 -7
-3 6 -13 3 -21 -6 -13 -14 -12 -15 4 -9 12 5 16 3 13 -5 -2 -7 -11 -13 -19
-12 -7 1 -15 -8 -15 -18 -2 -24 -21 -48 -38 -48 -8 0 -11 -8 -8 -22 11 -51 15
-52 32 -8 10 25 27 57 39 70 12 14 27 33 34 43 12 17 16 16 59 -12 61 -38 186
-157 206 -195 l15 -30 13 30 c25 60 178 204 216 204 7 0 24 -12 37 -27 18 -23
21 -24 12 -6 -6 13 -22 34 -35 48 l-25 25 -22 -25 c-13 -15 -28 -23 -37 -20
-9 3 -13 4 -10 0 3 -3 -27 -39 -68 -81 -40 -41 -73 -80 -73 -86 0 -7 -24 13
-53 43 -29 30 -69 68 -90 85 -24 20 -35 37 -31 47 3 8 0 18 -7 23 -8 4 -10 3
-5 -4 4 -7 5 -16 1 -22 -8 -14 -37 0 -31 16 3 8 0 11 -10 7 -9 -3 -27 6 -43
21 -20 19 -28 22 -28 11z"/>
<path d="M2396 5485 c4 -8 8 -15 10 -15 2 0 4 7 4 15 0 8 -4 15 -10 15 -5 0
-7 -7 -4 -15z"/>
<path d="M2347 5402 c-18 -20 -22 -32 -9 -32 4 0 12 11 19 25 13 30 12 31 -10
7z"/>
<path d="M2921 5358 c0 -7 4 -22 9 -33 7 -17 9 -15 9 13 1 17 -3 32 -9 32 -5
0 -10 -6 -9 -12z"/>
<path d="M2305 5328 c-21 -42 -28 -78 -15 -78 5 0 10 9 10 20 0 23 21 72 35
82 6 5 6 8 -2 8 -6 0 -19 -15 -28 -32z"/>
<path d="M3035 5351 c3 -6 -3 -15 -12 -21 -17 -11 -17 -11 0 -6 10 3 21 6 23
6 2 0 4 7 4 15 0 8 -5 15 -11 15 -5 0 -8 -4 -4 -9z"/>
<path d="M2180 5330 c0 -5 5 -10 11 -10 5 0 7 5 4 10 -3 6 -8 10 -11 10 -2 0
-4 -4 -4 -10z"/>
<path d="M3036 5295 c4 -8 8 -15 10 -15 2 0 4 7 4 15 0 8 -4 15 -10 15 -5 0
-7 -7 -4 -15z"/>
<path d="M2991 5244 c0 -11 3 -14 6 -6 3 7 2 16 -1 19 -3 4 -6 -2 -5 -13z"/>
<path d="M2131 5233 c8 -10 16 -20 20 -23 3 -3 18 -22 33 -43 16 -21 31 -36
33 -33 7 7 -23 58 -52 89 -29 30 -56 38 -34 10z"/>
<path d="M2284 5224 c3 -9 6 -21 6 -27 0 -7 4 -7 9 2 10 16 4 41 -11 41 -6 0
-7 -7 -4 -16z"/>
<path d="M2130 5176 c0 -2 8 -10 18 -17 15 -13 16 -12 3 4 -13 16 -21 21 -21
13z"/>
<path d="M2301 5164 c0 -11 3 -14 6 -6 3 7 2 16 -1 19 -3 4 -6 -2 -5 -13z"/>
<path d="M2340 4951 c0 -6 4 -13 10 -16 6 -3 7 1 4 9 -7 18 -14 21 -14 7z"/>
<path d="M2825 4940 c-3 -6 1 -7 9 -4 18 7 21 14 7 14 -6 0 -13 -4 -16 -10z"/>
<path d="M2467 4745 c-65 -44 -82 -65 -53 -65 8 0 17 7 20 16 4 9 13 14 22 10
8 -3 12 -2 9 3 -3 5 4 12 15 16 11 3 20 10 20 14 0 4 11 13 24 19 33 15 84 -4
88 -33 2 -14 10 -19 26 -18 13 2 25 -4 28 -12 4 -8 12 -15 19 -15 7 0 23 -12
34 -27 13 -18 20 -22 20 -13 1 38 -143 150 -191 150 -7 0 -44 -20 -81 -45z"/>
<path d="M2306 4743 c-3 -3 -6 -21 -6 -39 0 -34 -19 -59 -21 -27 0 16 -1 16
-8 -2 -5 -11 -3 -24 3 -31 16 -17 48 13 40 38 -9 29 5 39 26 18 21 -21 27 -35
10 -25 -5 3 -10 1 -10 -4 0 -6 9 -11 20 -11 23 0 26 -10 8 -28 -9 -9 -14 -7
-24 6 -8 9 -14 12 -14 5 0 -6 4 -14 9 -17 4 -3 7 -24 5 -46 -1 -23 4 -55 11
-73 13 -30 14 -29 9 33 -5 57 -3 68 15 88 29 30 40 28 92 -15 67 -57 77 -71
124 -168 24 -49 44 -84 45 -77 0 7 -18 52 -41 100 -44 94 -125 184 -176 197
-15 3 -33 15 -40 25 -18 26 -69 61 -77 53z"/>
<path d="M2560 4743 c0 -15 19 -37 26 -31 3 4 -1 14 -10 23 -9 9 -16 13 -16 8z"/>
<path d="M2730 4714 c0 -5 8 -18 18 -29 9 -11 16 -18 15 -16 -2 2 5 10 15 17
14 10 20 10 34 -2 9 -9 19 -11 22 -6 3 5 0 15 -7 20 -17 14 -97 27 -97 16z"/>
<path d="M2540 4690 c0 -5 5 -10 10 -10 6 0 10 5 10 10 0 6 -4 10 -10 10 -5 0
-10 -4 -10 -10z"/>
<path d="M2801 4598 c-66 -75 -117 -155 -135 -215 -13 -43 9 -23 28 25 23 56
96 163 131 190 14 11 29 30 34 43 l9 24 12 -30 c28 -71 -22 -245 -86 -300 -20
-17 -23 -24 -13 -30 8 -5 11 -5 7 0 -4 4 7 19 23 32 17 14 41 47 54 73 39 78
67 210 44 210 -4 0 -10 14 -14 30 -4 17 -10 30 -13 30 -4 0 -40 -37 -81 -82z"/>
<path d="M2470 4666 c0 -2 7 -7 16 -10 8 -3 12 -2 9 4 -6 10 -25 14 -25 6z"/>
<path d="M2120 4615 c11 -19 29 -52 41 -72 12 -21 29 -47 38 -58 9 -11 33 -43
52 -72 35 -54 71 -84 48 -41 -6 12 -20 31 -30 42 -11 11 -19 23 -19 27 0 4
-11 20 -24 36 -29 34 -61 86 -84 135 -9 21 -23 38 -29 38 -9 0 -6 -11 7 -35z"/>
<path d="M2205 4640 c4 -6 11 -8 16 -5 5 4 9 2 9 -4 0 -5 6 -16 13 -23 8 -7
26 -36 41 -63 31 -56 51 -81 40 -50 -4 11 -10 25 -15 30 -4 6 -13 29 -19 52
-7 23 -17 40 -21 37 -5 -3 -16 4 -26 16 -18 20 -50 29 -38 10z"/>
<path d="M2370 4464 c0 -3 7 -12 15 -20 16 -17 18 -14 9 10 -6 15 -24 23 -24
10z"/>
<path d="M2310 4416 c0 -2 7 -7 16 -10 8 -3 12 -2 9 4 -6 10 -25 14 -25 6z"/>
<path d="M2426 4367 c3 -10 9 -15 12 -12 3 3 0 11 -7 18 -10 9 -11 8 -5 -6z"/>
<path d="M2350 4361 c0 -5 7 -12 16 -15 14 -5 15 -4 4 9 -14 17 -20 19 -20 6z"/>
<path d="M3285 4218 c-40 -70 -42 -76 -15 -53 27 25 52 71 48 91 -2 8 -16 -9
-33 -38z"/>
<path d="M1965 4235 c70 -63 85 -75 97 -75 17 1 -50 59 -94 83 l-33 19 30 -27z"/>
<path d="M2765 4240 c-3 -5 1 -10 9 -10 8 0 18 5 21 10 3 6 -1 10 -9 10 -8 0
-18 -4 -21 -10z"/>
<path d="M3219 4223 c-13 -15 -12 -15 9 -4 23 12 28 21 13 21 -5 0 -15 -7 -22
-17z"/>
<path d="M3175 4210 c-3 -6 1 -7 9 -4 18 7 21 14 7 14 -6 0 -13 -4 -16 -10z"/>
<path d="M2224 4066 c-48 -27 -124 -136 -95 -136 5 0 12 8 15 18 3 9 27 38 52
64 l46 47 41 -20 c66 -34 70 -38 44 -61 -12 -11 -17 -17 -10 -14 6 4 13 0 16
-6 2 -7 8 -9 13 -5 5 4 3 12 -5 16 -9 6 -7 10 9 14 24 6 75 -37 64 -55 -4 -6
-2 -8 4 -4 8 5 46 -34 51 -54 1 -3 4 -15 7 -27 4 -13 11 -23 16 -23 5 0 8 -6
7 -12 -3 -29 2 -49 11 -43 6 4 8 9 6 13 -2 4 -7 25 -10 47 -9 57 -50 120 -108
166 -85 67 -144 93 -174 75z"/>
<path d="M2830 4049 c-71 -39 -137 -103 -161 -156 -13 -31 -18 -65 -17 -125 1
-66 3 -76 9 -48 5 19 6 41 3 49 -7 20 25 123 36 116 6 -3 7 1 4 10 -8 20 64
98 84 90 7 -2 11 -1 7 4 -5 9 86 71 104 71 18 0 71 -35 71 -46 0 -7 7 -15 16
-18 9 -4 14 -13 10 -22 -3 -8 -2 -12 3 -9 5 3 13 -5 16 -16 7 -20 8 -21 17 -5
11 20 -23 71 -76 111 -42 32 -59 31 -126 -6z"/>
<path d="M2895 4040 c-3 -5 1 -10 9 -10 9 0 16 5 16 10 0 6 -4 10 -9 10 -6 0
-13 -4 -16 -10z"/>
<path d="M2247 4021 c-3 -12 0 -24 5 -28 6 -3 8 -1 4 5 -3 5 0 12 6 15 10 3
10 8 2 16 -9 9 -13 7 -17 -8z"/>
<path d="M2000 4016 c-6 -6 -22 -11 -37 -12 -15 0 -29 -6 -31 -13 -2 -7 7 -11
27 -9 17 1 31 5 31 9 0 4 11 7 25 7 15 0 25 -6 25 -15 0 -24 -20 -53 -35 -53
-8 0 -15 -4 -15 -10 0 -31 57 13 65 50 4 17 13 30 21 30 19 0 30 -28 15 -43
-13 -13 -15 -27 -3 -27 11 0 36 70 28 78 -12 12 -106 18 -116 8z"/>
<path d="M2870 4002 c-10 -11 -11 -17 -2 -20 7 -2 12 -10 12 -18 0 -9 5 -12
10 -9 6 4 7 11 4 17 -4 7 -2 8 4 4 6 -3 16 2 22 13 7 13 7 22 0 26 -5 3 -10
-1 -10 -9 0 -20 -17 -21 -22 -2 -2 12 -6 11 -18 -2z"/>
<path d="M3089 3995 c-39 -26 -50 -69 -21 -80 12 -4 13 -3 2 9 -10 13 -7 20
16 41 15 14 30 25 35 25 4 0 16 3 26 7 16 6 16 5 3 -8 -9 -9 -21 -18 -29 -20
-10 -4 -10 -8 3 -19 15 -11 17 -11 14 1 -2 9 4 13 14 11 13 -2 16 2 11 14 -5
14 -2 16 15 12 12 -4 22 -2 22 3 0 5 -9 9 -19 9 -11 0 -23 5 -26 10 -10 16
-28 12 -66 -15z"/>
<path d="M3210 3992 c0 -13 38 -23 46 -11 3 5 1 9 -5 9 -5 0 -16 3 -25 6 -9 3
-16 2 -16 -4z"/>
<path d="M2598 3985 c-3 -6 -10 -40 -14 -75 -8 -82 -23 -112 -24 -50 0 54 -9
92 -20 85 -4 -3 -4 -24 2 -47 5 -23 8 -51 7 -62 -3 -29 13 -108 19 -101 11 11
13 57 2 50 -5 -3 -10 1 -10 9 0 9 4 16 8 16 5 0 13 12 19 28 10 25 11 23 12
-24 1 -61 -17 -123 -30 -102 -6 8 -9 -3 -10 -32 -2 -58 -5 -81 -14 -102 -4
-10 -3 -18 3 -18 10 0 23 41 27 90 1 14 12 42 24 63 15 27 21 53 20 95 -2 90
-13 188 -21 177z"/>
<path d="M1870 3944 c-7 -17 -7 -31 0 -42 9 -14 10 -14 5 5 -4 15 1 28 16 42
19 18 20 21 6 21 -10 0 -22 -12 -27 -26z"/>
<path d="M1985 3960 c-3 -5 -1 -10 4 -10 6 0 11 5 11 10 0 6 -2 10 -4 10 -3 0
-8 -4 -11 -10z"/>
<path d="M2786 3955 c-3 -8 -1 -15 3 -15 5 0 11 7 15 15 3 8 1 15 -3 15 -5 0
-11 -7 -15 -15z"/>
<path d="M1920 3956 c0 -2 7 -9 15 -16 9 -7 15 -8 15 -2 0 5 -7 12 -15 16 -8
3 -15 4 -15 2z"/>
<path d="M3190 3940 c0 -13 3 -20 7 -17 3 4 12 2 20 -4 21 -18 15 6 -7 26 -19
18 -20 17 -20 -5z"/>
<path d="M3268 3922 c3 -17 7 -20 13 -10 13 19 11 35 -4 35 -9 0 -12 -9 -9
-25z"/>
<path d="M3105 3931 c-3 -5 -1 -12 5 -16 5 -3 10 1 10 9 0 18 -6 21 -15 7z"/>
<path d="M3330 3858 c-18 -45 -36 -87 -40 -93 -4 -5 -22 -35 -39 -65 l-31 -55
34 38 c40 45 96 152 97 187 l1 25 7 -25 c7 -23 8 -21 14 15 12 72 -10 59 -43
-27z"/>
<path d="M2041 3912 c-6 -12 -11 -27 -11 -34 1 -7 8 0 16 15 9 16 13 31 11 34
-3 2 -10 -4 -16 -15z"/>
<path d="M2147 3916 c-15 -7 -24 -15 -21 -19 4 -4 13 -2 19 3 9 8 26 3 59 -14
47 -25 56 -25 34 -1 -7 8 -19 21 -26 30 -15 18 -27 18 -65 1z"/>
<path d="M3302 3913 c-14 -28 -23 -73 -15 -73 5 0 15 20 24 45 16 43 9 63 -9
28z"/>
<path d="M1730 3903 c0 -12 6 -26 14 -30 20 -12 60 -94 42 -87 -8 3 -19 18
-24 32 -9 26 -52 82 -52 68 0 -15 40 -83 67 -112 15 -18 41 -48 56 -68 34 -44
127 -119 136 -110 3 4 1 9 -6 11 -6 2 -22 13 -35 24 -12 12 -28 24 -33 27 -18
12 -80 106 -100 152 -10 25 -29 61 -42 80 -20 30 -23 31 -23 13z"/>
<path d="M1780 3910 c0 -20 111 -228 132 -246 16 -15 13 -5 -13 46 -19 36 -45
94 -59 129 -14 34 -33 67 -42 72 -12 7 -18 6 -18 -1z"/>
<path d="M2070 3905 c-10 -12 -7 -23 17 -59 15 -25 31 -45 36 -46 14 0 7 23
-18 52 -29 34 -32 48 -10 48 8 0 15 5 15 10 0 15 -26 12 -40 -5z"/>
<path d="M2715 3910 c-3 -6 1 -7 9 -4 18 7 21 14 7 14 -6 0 -13 -4 -16 -10z"/>
<path d="M1955 3899 c-4 -6 -5 -12 -2 -15 2 -3 7 2 10 11 7 17 1 20 -8 4z"/>
<path d="M2936 3901 c-10 -15 22 -20 34 -5 10 11 9 14 -8 14 -12 0 -23 -4 -26
-9z"/>
<path d="M2885 3891 c-3 -5 -1 -12 4 -15 5 -3 11 1 15 9 6 16 -9 21 -19 6z"/>
<path d="M2990 3886 c0 -20 43 -22 59 -2 10 11 9 14 -3 12 -9 -1 -19 -5 -22
-9 -4 -4 -13 -2 -21 4 -10 9 -13 8 -13 -5z"/>
<path d="M3070 3890 c0 -5 5 -10 10 -10 6 0 10 5 10 10 0 6 -4 10 -10 10 -5 0
-10 -4 -10 -10z"/>
<path d="M3140 3890 c0 -5 5 -10 10 -10 6 0 10 5 10 10 0 6 -4 10 -10 10 -5 0
-10 -4 -10 -10z"/>
<path d="M2000 3880 c0 -5 5 -10 10 -10 6 0 10 5 10 10 0 6 -4 10 -10 10 -5 0
-10 -4 -10 -10z"/>
<path d="M3210 3882 c0 -4 4 -12 9 -17 15 -16 -5 -107 -34 -166 -28 -55 -112
-144 -165 -175 -33 -20 -42 -41 -9 -24 20 11 34 22 105 83 49 41 103 129 114
184 5 26 12 58 16 71 4 13 2 22 -5 22 -6 0 -11 7 -11 15 0 8 -4 15 -10 15 -5
0 -10 -4 -10 -8z"/>
<path d="M1870 3872 c0 -7 8 -32 19 -55 10 -23 28 -65 40 -92 20 -48 81 -119
81 -96 0 6 -9 16 -20 23 -11 7 -20 18 -20 24 0 17 -43 119 -52 122 -4 2 -8 12
-8 22 0 20 -39 72 -40 52z"/>
<path d="M2128 3873 c7 -3 16 -2 19 1 4 3 -2 6 -13 5 -11 0 -14 -3 -6 -6z"/>
<path d="M1670 3856 c0 -9 4 -16 8 -16 11 0 32 -61 25 -73 -3 -6 -1 -7 4 -4 6
4 13 -9 17 -33 7 -46 85 -145 141 -180 42 -26 59 -21 18 5 -63 41 -127 122
-138 175 -12 59 -75 164 -75 126z"/>
<path d="M2186 3857 c3 -10 9 -15 12 -12 3 3 0 11 -7 18 -10 9 -11 8 -5 -6z"/>
<path d="M3002 3813 c-32 -32 -94 -105 -139 -163 -44 -58 -93 -117 -108 -133
-16 -15 -26 -30 -23 -32 7 -7 126 120 175 186 22 30 71 87 108 127 80 86 71
97 -13 15z"/>
<path d="M3096 3848 c-3 -13 -4 -30 -4 -39 2 -30 -68 -153 -119 -209 -28 -31
-68 -65 -87 -75 -50 -27 -45 -40 5 -15 72 37 189 176 189 225 0 7 4 15 9 17
10 3 27 118 17 118 -3 0 -8 -10 -10 -22z"/>
<path d="M2000 3844 c0 -8 5 -12 10 -9 6 3 10 10 10 16 0 5 -4 9 -10 9 -5 0
-10 -7 -10 -16z"/>
<path d="M3380 3845 c-8 -9 -8 -15 -2 -15 12 0 26 19 19 26 -2 2 -10 -2 -17
-11z"/>
<path d="M2068 3834 c-7 -6 10 -64 23 -78 14 -15 11 17 -4 53 -7 17 -16 29
-19 25z"/>
<path d="M1624 3795 c10 -14 31 -49 47 -77 51 -86 101 -148 144 -178 11 -8 1
6 -22 31 -24 25 -43 49 -43 54 0 4 -6 16 -14 24 -8 9 -31 48 -51 86 -21 39
-42 73 -49 77 -23 15 -28 7 -12 -17z"/>
<path d="M1985 3810 c3 -5 8 -10 11 -10 2 0 4 5 4 10 0 6 -5 10 -11 10 -5 0
-7 -4 -4 -10z"/>
<path d="M3445 3758 c-25 -35 -63 -91 -85 -125 -38 -58 -107 -119 -166 -145
-13 -6 -24 -17 -24 -25 0 -7 -7 -13 -17 -13 -9 0 -14 -3 -10 -6 3 -4 14 -3 24
1 10 5 23 7 28 6 6 -2 7 1 3 5 -5 4 7 16 25 27 71 43 121 95 202 208 47 65 85
121 85 124 0 19 -25 -4 -65 -57z"/>
<path d="M2310 3800 c0 -5 5 -10 11 -10 5 0 7 5 4 10 -3 6 -8 10 -11 10 -2 0
-4 -4 -4 -10z"/>
<path d="M3327 3752 c-19 -31 -53 -73 -74 -93 -59 -56 -115 -119 -105 -119 9
0 86 76 152 150 35 39 83 120 71 120 -5 0 -24 -26 -44 -58z"/>
<path d="M2130 3781 c0 -5 7 -12 16 -15 14 -5 15 -4 4 9 -14 17 -20 19 -20 6z"/>
<path d="M3393 3774 c-3 -8 0 -21 7 -27 10 -10 12 -8 7 6 -4 9 -2 17 3 17 6 0
10 5 10 10 0 16 -20 12 -27 -6z"/>
<path d="M3515 3754 c-8 -21 -14 -42 -12 -48 2 -5 11 10 21 33 9 24 15 46 12
48 -3 3 -12 -12 -21 -33z"/>
<path d="M2125 3710 c3 -5 8 -10 11 -10 2 0 4 5 4 10 0 6 -5 10 -11 10 -5 0
-7 -4 -4 -10z"/>
<path d="M2137 3661 c9 -11 22 -17 30 -14 10 4 6 10 -13 19 -35 18 -37 18 -17
-5z"/>
<path d="M2180 3627 c0 -13 60 -71 66 -64 4 4 5 8 3 10 -2 1 -19 15 -37 31
-17 17 -32 27 -32 23z"/>
<path d="M1700 3610 c0 -5 5 -10 11 -10 5 0 7 5 4 10 -3 6 -8 10 -11 10 -2 0
-4 -4 -4 -10z"/>
<path d="M2026 3607 c3 -10 9 -15 12 -12 3 3 0 11 -7 18 -10 9 -11 8 -5 -6z"/>
<path d="M2672 3600 c0 -14 2 -19 5 -12 2 6 2 18 0 25 -3 6 -5 1 -5 -13z"/>
<path d="M2070 3580 c0 -5 5 -10 10 -10 6 0 10 5 10 10 0 6 -4 10 -10 10 -5 0
-10 -4 -10 -10z"/>
<path d="M1985 3570 c3 -5 10 -10 16 -10 5 0 9 5 9 10 0 6 -7 10 -16 10 -8 0
-12 -4 -9 -10z"/>
<path d="M2272 3568 c-19 -19 -15 -25 28 -49 22 -13 40 -26 40 -31 0 -9 50
-31 56 -25 6 6 -88 72 -98 69 -6 -2 -8 3 -5 11 8 22 -7 39 -21 25z"/>
<path d="M2020 3551 c0 -5 7 -11 15 -15 8 -3 15 -1 15 3 0 5 -7 11 -15 15 -8
3 -15 1 -15 -3z"/>
<path d="M1640 3544 c0 -7 95 -51 135 -64 22 -7 44 -16 50 -21 5 -5 15 -9 22
-9 24 0 13 15 -19 29 -57 23 -188 68 -188 65z"/>
<path d="M1920 3531 c0 -13 141 -71 170 -70 8 0 -8 8 -35 18 -28 10 -69 28
-93 40 -23 12 -42 17 -42 12z"/>
<path d="M1903 3495 c0 -7 6 -11 14 -8 7 3 13 6 13 8 0 2 -6 5 -13 8 -8 3 -14
-1 -14 -8z"/>
<path d="M2184 3501 c3 -5 16 -11 28 -14 22 -6 22 -5 4 8 -22 17 -40 20 -32 6z"/>
<path d="M3476 3495 c-8 -21 -51 -37 -116 -43 -71 -6 -77 -12 -11 -12 28 0 66
6 84 14 33 14 78 56 60 56 -6 0 -13 -7 -17 -15z"/>
<path d="M2810 3480 c0 -5 7 -7 15 -4 8 4 15 8 15 10 0 2 -7 4 -15 4 -8 0 -15
-4 -15 -10z"/>
<path d="M2930 3473 l-25 -15 30 7 c17 3 34 11 40 16 14 14 -17 9 -45 -8z"/>
<path d="M3066 3468 c-29 -15 -73 -22 -189 -29 -83 -5 -153 -12 -156 -15 -9
-10 279 5 319 16 19 6 46 19 60 30 31 24 17 24 -34 -2z"/>
<path d="M1680 3476 c0 -2 7 -7 16 -10 8 -3 12 -2 9 4 -6 10 -25 14 -25 6z"/>
<path d="M3262 3463 c-13 -5 -7 -23 9 -23 6 0 8 4 4 9 -3 5 3 12 12 14 12 3
13 5 3 5 -8 0 -21 -2 -28 -5z"/>
<path d="M2660 3439 c0 -5 5 -7 10 -4 6 3 10 8 10 11 0 2 -4 4 -10 4 -5 0 -10
-5 -10 -11z"/>
<path d="M2055 3430 c17 -4 41 -8 55 -8 22 0 22 1 -5 8 -16 4 -41 8 -55 8 -22
0 -22 -1 5 -8z"/>
<path d="M2165 3430 c19 -8 193 -14 184 -6 -2 2 -49 6 -104 9 -58 3 -92 2 -80
-3z"/>
<path d="M2390 3431 c-17 -5 -6 -8 35 -8 41 0 52 3 35 8 -14 4 -29 7 -35 7 -5
0 -21 -3 -35 -7z"/>
<path d="M2575 3430 c-3 -5 9 -8 30 -6 48 4 57 16 12 16 -20 0 -38 -4 -42 -10z"/>
<path d="M2988 3403 c7 -3 16 -2 19 1 4 3 -2 6 -13 5 -11 0 -14 -3 -6 -6z"/>
<path d="M2815 3393 c11 -3 25 -10 32 -15 7 -5 18 -6 24 -2 16 9 -15 23 -51
22 -20 0 -21 -1 -5 -5z"/>
<path d="M4554 6858 l-19 -21 55 6 c30 4 63 7 73 7 9 0 17 4 17 9 0 6 -8 10
-17 10 -10 0 -34 3 -54 5 -29 4 -41 0 -55 -16z"/>
<path d="M4088 6808 c-1 -29 0 -71 3 -93 4 -27 7 -11 8 53 1 100 -5 124 -11
40z"/>
<path d="M535 6840 c-14 -6 1 -9 48 -9 43 -1 66 3 62 9 -7 12 -82 12 -110 0z"/>
<path d="M4129 6735 c-2 -325 3 -1860 7 -1866 2 -4 5 -355 6 -780 1 -426 5
-871 9 -989 3 -118 5 673 4 1758 -1 1504 -4 1975 -13 1984 -9 9 -12 -15 -13
-107z"/>
<path d="M1050 6831 c-8 -5 -49 -16 -90 -25 -68 -15 -142 -45 -113 -46 16 0
179 39 209 50 13 5 24 14 24 20 0 12 -10 12 -30 1z"/>
<path d="M4538 6811 c-27 -4 -54 -13 -60 -20 -11 -11 -7 -12 22 -7 19 4 61 9
93 13 31 3 57 10 57 14 0 10 -41 10 -112 0z"/>
<path d="M540 4834 c1 -1089 -2 -1987 -5 -1997 -5 -11 -2 -17 6 -17 7 0 10 3
6 6 -3 3 4 15 15 26 19 19 31 20 229 16 136 -2 208 0 206 7 -2 6 -79 11 -198
12 -107 1 -198 3 -203 3 -5 0 -1 9 9 20 10 11 15 23 12 27 -4 4 -14 -2 -21
-13 -8 -10 -17 -16 -20 -13 -3 3 -7 877 -8 1943 l-3 1936 25 -4 c14 -3 48 -8
75 -11 46 -6 49 -5 31 9 -11 9 -34 16 -50 16 -17 0 -48 3 -69 6 l-38 7 1
-1979z"/>
<path d="M1051 6793 c1 -12 -13 -3826 -14 -3843 0 -8 3 -26 7 -40 6 -23 6 -23
-7 -7 -14 17 -37 23 -37 9 0 -7 56 -72 62 -72 2 0 5 891 7 1980 2 1445 0 1980
-8 1980 -6 0 -11 -3 -10 -7z"/>
<path d="M4627 6784 c-7 -8 -11 -1429 -7 -2809 1 -533 -1 -996 -5 -1027 l-7
-57 -187 -3 c-166 -3 -188 -1 -204 15 -10 9 -19 17 -21 17 -6 0 -46 -85 -46
-96 0 -5 8 1 18 14 18 23 21 23 226 24 196 0 209 -1 229 -20 l22 -21 2 1985
c0 1091 -2 1984 -6 1984 -4 0 -11 -3 -14 -6z"/>
<path d="M955 6759 c-11 -4 -32 -8 -47 -8 -15 -1 -29 -4 -31 -8 -4 -7 46 -8
137 -3 10 0 -2 15 -12 15 -4 0 -11 3 -17 6 -5 4 -19 3 -30 -2z"/>
<path d="M4188 4853 c2 -1055 7 -1918 11 -1918 9 0 13 1785 5 2863 -3 534 -10
972 -14 972 -3 0 -5 -863 -2 -1917z"/>
<path d="M4225 6762 c6 -6 26 -13 45 -16 75 -11 311 -10 293 2 -6 4 -42 5 -80
2 -66 -5 -174 2 -237 16 -21 4 -28 3 -21 -4z"/>
<path d="M4583 6755 c0 -8 4 -12 9 -9 4 3 8 9 8 15 0 5 -4 9 -8 9 -5 0 -9 -7
-9 -15z"/>
<path d="M4080 6375 c0 -27 3 -45 7 -41 7 7 5 77 -2 85 -3 2 -5 -17 -5 -44z"/>
<path d="M4080 6309 c0 -5 5 -7 10 -4 6 3 10 8 10 11 0 2 -4 4 -10 4 -5 0 -10
-5 -10 -11z"/>
<path d="M4761 6134 c0 -11 3 -14 6 -6 3 7 2 16 -1 19 -3 4 -6 -2 -5 -13z"/>
<path d="M4730 6100 c0 -5 5 -10 11 -10 5 0 7 5 4 10 -3 6 -8 10 -11 10 -2 0
-4 -4 -4 -10z"/>
<path d="M4740 6044 c0 -22 2 -25 15 -14 8 7 15 19 15 26 0 8 -7 14 -15 14
-10 0 -15 -10 -15 -26z"/>
<path d="M4740 5993 c0 -8 5 -11 10 -8 6 3 10 2 10 -3 0 -6 -7 -13 -15 -16
-22 -8 -14 -80 9 -84 9 -2 16 2 16 8 0 6 -4 8 -10 5 -6 -4 -10 9 -10 32 0 28
3 34 10 23 7 -11 10 -6 10 21 0 25 -4 36 -15 36 -8 0 -15 -7 -15 -14z"/>
<path d="M4790 5729 c0 -5 5 -7 10 -4 6 3 10 8 10 11 0 2 -4 4 -10 4 -5 0 -10
-5 -10 -11z"/>
<path d="M4780 5680 c0 -5 5 -10 11 -10 5 0 7 5 4 10 -3 6 -8 10 -11 10 -2 0
-4 -4 -4 -10z"/>
<path d="M4790 5650 c-9 -6 -10 -10 -3 -10 6 0 15 5 18 10 8 12 4 12 -15 0z"/>
<path d="M1025 5180 c0 -245 1 -345 2 -223 2 123 2 323 0 446 -1 122 -2 22 -2
-223z"/>
<path d="M4781 5084 c0 -11 3 -14 6 -6 3 7 2 16 -1 19 -3 4 -6 -2 -5 -13z"/>
<path d="M4780 5042 c0 -5 7 -9 15 -9 8 0 12 4 9 9 -3 4 -9 8 -15 8 -5 0 -9
-4 -9 -8z"/>
<path d="M612 4800 c0 -19 2 -27 5 -17 2 9 2 25 0 35 -3 9 -5 1 -5 -18z"/>
<path d="M1023 4550 c0 -25 2 -35 4 -22 2 12 2 32 0 45 -2 12 -4 2 -4 -23z"/>
<path d="M1022 4480 c0 -14 2 -19 5 -12 2 6 2 18 0 25 -3 6 -5 1 -5 -13z"/>
<path d="M1022 4425 c0 -16 2 -22 5 -12 2 9 2 23 0 30 -3 6 -5 -1 -5 -18z"/>
<path d="M1022 4270 c0 -14 2 -19 5 -12 2 6 2 18 0 25 -3 6 -5 1 -5 -13z"/>
<path d="M1021 4084 c0 -11 3 -14 6 -6 3 7 2 16 -1 19 -3 4 -6 -2 -5 -13z"/>
<path d="M1022 4005 c0 -16 2 -22 5 -12 2 9 2 23 0 30 -3 6 -5 -1 -5 -18z"/>
<path d="M1023 3910 c0 -36 2 -50 4 -32 2 17 2 47 0 65 -2 17 -4 3 -4 -33z"/>
<path d="M1023 3780 c0 -30 2 -43 4 -27 2 15 2 39 0 55 -2 15 -4 2 -4 -28z"/>
<path d="M1526 3793 c-6 -14 -5 -15 5 -6 7 7 10 15 7 18 -3 3 -9 -2 -12 -12z"/>
<path d="M4790 3390 c0 -5 5 -10 11 -10 5 0 7 5 4 10 -3 6 -8 10 -11 10 -2 0
-4 -4 -4 -10z"/>
<path d="M1858 3363 c7 -3 16 -2 19 1 4 3 -2 6 -13 5 -11 0 -14 -3 -6 -6z"/>
<path d="M3207 3364 c-10 -10 5 -34 22 -34 13 0 13 2 2 9 -7 5 -10 14 -7 20 7
11 -6 16 -17 5z"/>
<path d="M1873 3339 c-9 -9 -9 -16 -2 -25 11 -14 4 -34 -12 -34 -6 0 -8 4 -5
9 3 5 -1 14 -8 20 -12 10 -13 8 -9 -9 3 -13 0 -25 -7 -30 -7 -4 -9 -13 -6 -19
10 -16 26 -14 26 4 0 26 16 16 18 -12 3 -40 19 -49 24 -14 3 18 0 31 -6 31 -6
0 -5 4 3 9 10 7 11 18 5 45 -7 29 -12 35 -21 25z"/>
<path d="M1909 3308 c4 -28 6 -29 9 -9 2 13 0 27 -5 32 -6 6 -7 -3 -4 -23z"/>
<path d="M3240 3295 c0 -8 2 -15 4 -15 2 0 6 7 10 15 3 8 1 15 -4 15 -6 0 -10
-7 -10 -15z"/>
<path d="M2656 3291 c-3 -4 6 -6 19 -3 14 2 25 6 25 8 0 8 -39 4 -44 -5z"/>
<path d="M1790 3259 c0 -5 5 -7 10 -4 6 3 10 8 10 11 0 2 -4 4 -10 4 -5 0 -10
-5 -10 -11z"/>
<path d="M1911 3254 c0 -11 3 -14 6 -6 3 7 2 16 -1 19 -3 4 -6 -2 -5 -13z"/>
<path d="M1755 3250 c4 -6 11 -8 16 -5 14 9 11 15 -7 15 -8 0 -12 -5 -9 -10z"/>
<path d="M2468 3243 c6 -2 18 -2 25 0 6 3 1 5 -13 5 -14 0 -19 -2 -12 -5z"/>
<path d="M1730 3219 c0 -5 5 -7 10 -4 6 3 10 8 10 11 0 2 -4 4 -10 4 -5 0 -10
-5 -10 -11z"/>
<path d="M1840 3215 c0 -8 2 -15 4 -15 2 0 6 7 10 15 3 8 1 15 -4 15 -6 0 -10
-7 -10 -15z"/>
<path d="M2498 3213 c17 -2 47 -2 65 0 17 2 3 4 -33 4 -36 0 -50 -2 -32 -4z"/>
<path d="M2605 3210 c3 -5 12 -7 20 -3 21 7 19 13 -6 13 -11 0 -18 -4 -14 -10z"/>
<path d="M1700 3201 c0 -6 4 -13 10 -16 6 -3 7 1 4 9 -7 18 -14 21 -14 7z"/>
<path d="M2525 3160 c7 -12 84 -13 103 -1 8 5 -11 9 -48 10 -40 1 -59 -2 -55
-9z"/>
<path d="M1755 3140 c3 -5 8 -10 11 -10 2 0 4 5 4 10 0 6 -5 10 -11 10 -5 0
-7 -4 -4 -10z"/>
<path d="M3350 3140 c0 -5 5 -10 11 -10 5 0 7 5 4 10 -3 6 -8 10 -11 10 -2 0
-4 -4 -4 -10z"/>
<path d="M2548 3113 c6 -2 18 -2 25 0 6 3 1 5 -13 5 -14 0 -19 -2 -12 -5z"/>
<path d="M2529 3067 c13 -13 81 -21 81 -9 0 5 -20 12 -45 14 -24 1 -41 0 -36
-5z"/>
<path d="M2573 3018 c-2 -18 0 -20 7 -8 12 18 13 30 2 30 -4 0 -9 -10 -9 -22z"/>
<path d="M1721 2974 c0 -11 3 -14 6 -6 3 7 2 16 -1 19 -3 4 -6 -2 -5 -13z"/>
<path d="M828 2953 c7 -3 16 -2 19 1 4 3 -2 6 -13 5 -11 0 -14 -3 -6 -6z"/>
<path d="M2574 2855 c0 -55 1 -76 3 -47 2 29 2 74 0 100 -2 26 -3 2 -3 -53z"/>
<path d="M721 2835 c3 -2 77 -6 164 -9 90 -2 147 -1 130 4 -31 8 -302 13 -294
5z"/>
<path d="M4227 2828 c5 -10 118 -9 238 2 78 7 68 8 -76 6 -92 0 -165 -4 -162
-8z"/>
<path d="M520 2780 c0 -6 104 -10 291 -10 191 0 288 3 284 10 -4 6 -112 10
-291 10 -183 0 -284 -4 -284 -10z"/>
<path d="M4135 2780 c-4 -6 97 -10 272 -10 170 0 272 4 264 9 -20 13 -529 13
-536 1z"/>
<path d="M2570 2629 c0 -16 4 -28 9 -25 8 5 3 56 -5 56 -2 0 -4 -14 -4 -31z"/>
<path d="M693 2603 c65 -2 168 -2 230 0 62 1 9 3 -118 3 -126 0 -177 -2 -112
-3z"/>
<path d="M4313 2603 c65 -2 168 -2 230 0 62 1 9 3 -118 3 -126 0 -177 -2 -112
-3z"/>
<path d="M2576 2464 c4 -64 14 -68 14 -6 0 29 -4 52 -9 52 -5 0 -7 -21 -5 -46z"/>
<path d="M3943 2443 c42 -2 112 -2 155 0 42 1 7 3 -78 3 -85 0 -120 -2 -77 -3z"/>
<path d="M4238 2443 c18 -2 45 -2 60 0 15 2 0 4 -33 4 -33 0 -45 -2 -27 -4z"/>
<path d="M2625 2353 c5 -94 6 -97 14 -54 l6 34 460 4 c253 2 810 4 1238 3 750
0 777 1 777 19 0 18 -37 18 -1235 13 -795 -3 -1235 -1 -1235 5 0 6 343 10 948
11 521 1 1078 5 1237 10 220 7 10 9 -870 9 -1149 1 -1308 3 -1322 16 -18 18
-22 1 -18 -70z"/>
<path d="M2438 2415 c-2 -3 -553 -6 -1223 -7 -716 -2 -1198 -7 -1169 -12 27
-4 588 -8 1247 -9 741 0 1197 -4 1197 -10 0 -5 -472 -8 -1245 -5 -966 2 -1245
0 -1245 -9 0 -7 15 -15 32 -18 18 -3 580 -7 1248 -8 l1215 -2 0 -27 c0 -14 3
-30 8 -34 4 -4 7 27 7 69 l0 77 -33 0 c-19 0 -36 -2 -39 -5z"/>
<path d="M2575 2391 c-3 -5 -1 -12 5 -16 5 -3 10 1 10 9 0 18 -6 21 -15 7z"/>
<path d="M2583 2310 c0 -30 2 -43 4 -27 2 15 2 39 0 55 -2 15 -4 2 -4 -28z"/>
<path d="M498 2293 c7 -3 16 -2 19 1 4 3 -2 6 -13 5 -11 0 -14 -3 -6 -6z"/>
<path d="M548 2293 c7 -3 16 -2 19 1 4 3 -2 6 -13 5 -11 0 -14 -3 -6 -6z"/>
<path d="M708 2293 c7 -3 16 -2 19 1 4 3 -2 6 -13 5 -11 0 -14 -3 -6 -6z"/>
<path d="M0 2244 c0 -12 38 -14 228 -14 125 0 333 -2 462 -5 129 -2 587 -4
1018 -4 l782 -1 0 -804 c0 -526 3 -807 10 -811 7 -4 10 272 10 822 l0 828
-1255 2 c-1076 1 -1255 -1 -1255 -13z"/>
<path d="M2624 2245 c-10 -24 2 -1640 11 -1638 7 2 11 282 13 809 l2 806 33
-2 c17 -1 573 -2 1235 -1 1058 1 1202 3 1202 16 0 13 -149 15 -1246 17 -824 2
-1248 0 -1250 -7z"/>
<path d="M306 2103 c-4 -4 -48 -8 -99 -8 -195 -3 -207 -4 -207 -19 0 -12 125
-15 878 -16 482 0 902 -3 932 -6 30 -3 120 -7 200 -9 80 -2 160 -6 178 -10 31
-6 46 8 20 18 -7 3 15 6 50 6 35 1 61 -3 58 -8 -3 -5 -24 -7 -46 -4 -26 4 -40
2 -40 -6 0 -7 21 -11 53 -12 28 0 67 -1 85 -2 28 -2 32 1 28 17 -4 16 0 17 27
12 l31 -6 -22 20 c-11 11 -27 20 -34 20 -9 0 -9 -3 2 -11 12 -8 8 -9 -15 -7
-16 2 -33 7 -37 13 -5 6 -8 5 -8 -2 0 -7 -8 -13 -17 -13 -15 0 -16 2 -3 10 11
7 11 10 2 10 -7 0 -11 4 -8 8 2 4 -4 8 -15 8 -10 0 -19 -6 -19 -13 0 -7 -7
-13 -16 -13 -13 0 -14 3 -5 14 11 14 2 14 -64 3 -11 -2 -35 0 -54 4 -18 4 -43
4 -55 -1 -13 -5 -30 -4 -40 2 -15 8 -17 8 -10 -3 6 -12 5 -12 -9 0 -14 11 -23
12 -43 2 -16 -7 -23 -7 -19 -1 5 8 -225 9 -757 5 -419 -3 -781 -7 -803 -8 -22
-2 -46 2 -54 8 -11 7 -13 7 -7 -2 4 -7 2 -13 -3 -13 -6 0 -11 5 -11 10 0 12
-13 13 -24 3z m1884 -38 c0 -8 -4 -15 -10 -15 -5 0 -7 7 -4 15 4 8 8 15 10 15
2 0 4 -7 4 -15z m185 -15 c3 -5 -1 -10 -9 -10 -8 0 -18 5 -21 10 -3 6 1 10 9
10 8 0 18 -4 21 -10z"/>
<path d="M3048 2095 c-1 -2 -53 -6 -115 -10 -138 -8 -162 -11 -169 -18 -3 -3
39 -7 95 -9 56 -2 101 0 101 4 0 4 7 5 15 2 8 -3 13 -10 12 -14 -2 -7 7 -12
16 -9 1 0 477 2 1057 3 946 1 1055 3 1058 17 1 9 -3 16 -10 17 -89 7 -2053 23
-2060 17z"/>
<path d="M2469 2083 c-5 -26 -6 -74 -2 -69 6 6 13 76 7 76 -2 0 -5 -3 -5 -7z"/>
<path d="M2916 2038 c3 -5 10 -6 15 -3 13 9 11 12 -6 12 -8 0 -12 -4 -9 -9z"/>
<path d="M2418 2033 c6 -2 18 -2 25 0 6 3 1 5 -13 5 -14 0 -19 -2 -12 -5z"/>
<path d="M2784 2032 c9 -8 75 -9 70 -1 -3 5 -20 8 -39 7 -19 -1 -33 -3 -31 -6z"/>
<path d="M2660 2010 c0 -5 5 -10 11 -10 5 0 7 5 4 10 -3 6 -8 10 -11 10 -2 0
-4 -4 -4 -10z"/>
<path d="M1320 1750 c-124 -4 -412 -13 -640 -19 -617 -17 -680 -20 -680 -37 0
-10 8 -13 22 -10 13 3 124 7 248 10 124 4 488 13 809 22 651 18 631 20 668
-48 17 -31 18 -72 18 -550 1 -326 4 -518 10 -518 6 0 10 195 10 528 0 433 -3
532 -14 557 -8 17 -14 33 -13 38 1 4 -1 6 -5 5 -5 -1 -17 3 -28 9 -31 17 -158
21 -405 13z"/>
<path d="M3497 1730 c-58 -47 -57 -32 -57 -600 l0 -520 -27 0 c-33 0 -28 -5
15 -13 l32 -6 0 497 c0 273 5 515 10 536 5 22 23 53 40 70 l31 31 142 -1 c164
-2 1269 -32 1370 -38 49 -2 67 0 67 9 0 9 -49 14 -187 19 -320 11 -815 26
-1118 32 -289 7 -290 7 -318 -16z"/>
<path d="M1643 1655 c-4 -12 -9 -13 -19 -4 -7 6 -17 9 -21 6 -4 -3 -83 -8
-176 -11 -92 -4 -202 -8 -245 -11 -138 -7 -978 -33 -1139 -35 -36 0 -43 -3
-43 -20 0 -20 5 -20 338 -15 185 3 380 7 432 10 52 2 172 7 265 10 289 8 436
17 550 34 33 5 65 6 71 4 7 -2 15 1 19 7 5 8 11 8 21 -1 11 -9 14 -8 14 2 0
22 -13 34 -38 36 -13 2 -25 -4 -29 -12z"/>
<path d="M3530 1640 c0 -21 24 -28 36 -9 5 8 9 8 14 -1 4 -7 27 -14 51 -15 24
-1 89 -7 144 -13 55 -6 180 -14 278 -17 98 -4 190 -8 205 -10 15 -2 215 -7
445 -11 384 -7 417 -6 417 9 0 15 -14 17 -92 19 -51 0 -106 2 -123 3 -165 10
-363 18 -735 30 -186 6 -508 23 -587 31 -48 4 -53 3 -53 -16z"/>
<path d="M1711 1584 c0 -11 3 -14 6 -6 3 7 2 16 -1 19 -3 4 -6 -2 -5 -13z"/>
<path d="M3561 1554 c0 -11 3 -14 6 -6 3 7 2 16 -1 19 -3 4 -6 -2 -5 -13z"/>
<path d="M1711 1544 c0 -11 3 -14 6 -6 3 7 2 16 -1 19 -3 4 -6 -2 -5 -13z"/>
<path d="M1708 1483 c5 -21 7 -23 10 -9 2 10 0 22 -6 28 -6 6 -7 0 -4 -19z"/>
<path d="M1702 1285 c0 -16 2 -22 5 -12 2 9 2 23 0 30 -3 6 -5 -1 -5 -18z"/>
<path d="M1622 1120 c0 -14 2 -19 5 -12 2 6 2 18 0 25 -3 6 -5 1 -5 -13z"/>
<path d="M2973 613 c9 -2 23 -2 30 0 6 3 -1 5 -18 5 -16 0 -22 -2 -12 -5z"/>
<path d="M3043 613 c15 -2 37 -2 50 0 12 2 0 4 -28 4 -27 0 -38 -2 -22 -4z"/>
<path d="M3358 603 c7 -3 16 -2 19 1 4 3 -2 6 -13 5 -11 0 -14 -3 -6 -6z"/>
<path d="M1518 593 c7 -3 16 -2 19 1 4 3 -2 6 -13 5 -11 0 -14 -3 -6 -6z"/>
<path d="M3648 593 c12 -2 32 -2 45 0 12 2 2 4 -23 4 -25 0 -35 -2 -22 -4z"/>
<path d="M2250 587 c-3 -3 -109 -7 -235 -8 -410 -4 -1027 -40 -1615 -94 -415
-38 -400 -36 -400 -51 0 -8 2 -14 5 -14 3 0 94 9 203 19 108 11 229 22 267 25
39 4 151 13 250 21 334 27 307 27 284 4 -10 -10 -19 -29 -20 -41 0 -13 -3 -32
-5 -43 -12 -51 -4 -88 26 -116 16 -16 30 -26 30 -23 0 3 17 -8 38 -25 52 -44
55 -47 81 -61 13 -6 44 -27 68 -46 25 -19 49 -34 54 -34 5 0 38 -23 73 -50 54
-43 70 -50 107 -50 l44 0 -60 38 c-136 84 -392 262 -419 291 -36 37 -14 43 30
9 63 -50 507 -338 521 -338 14 0 -131 98 -434 295 -109 71 -124 83 -129 113
-5 27 -2 38 15 55 18 19 33 22 99 22 98 0 139 -20 253 -120 176 -155 456 -372
466 -361 13 12 -11 39 -73 84 -82 58 -275 213 -329 263 -103 97 -156 133 -228
154 -41 12 -39 13 78 19 66 4 156 9 200 11 427 27 1401 31 1981 10 362 -14
408 -16 814 -47 151 -12 285 -21 298 -22 12 -1 22 -4 22 -7 0 -3 17 -4 38 -2
32 2 110 -4 415 -34 46 -5 57 -3 57 9 0 26 -867 96 -1600 128 -269 12 -1263
25 -1270 17z"/>
<path d="M1070 454 c0 -1 8 -8 17 -15 9 -8 14 -9 10 -2 -4 7 0 13 10 16 10 3
6 4 -9 4 -16 -1 -28 -2 -28 -3z"/>
<path d="M1195 443 c11 -3 27 -10 35 -17 13 -10 13 -9 1 7 -7 9 -23 16 -35 16
-20 -1 -20 -2 -1 -6z"/>
<path d="M1260 411 c0 -6 4 -11 10 -11 5 0 18 -10 30 -22 11 -12 20 -17 20
-11 0 7 -13 21 -30 33 -16 12 -30 17 -30 11z"/>
<path d="M1705 403 c-35 -9 -45 -24 -45 -66 0 -38 6 -46 81 -119 45 -43 88
-78 95 -78 8 0 14 -3 14 -7 0 -5 14 -24 31 -43 17 -19 33 -47 36 -62 4 -21 11
-28 28 -28 l23 0 -29 60 c-16 33 -28 66 -26 72 1 7 -3 12 -9 13 -32 1 -224
172 -224 200 0 38 80 46 142 14 44 -23 158 -125 158 -142 0 -24 103 -217 116
-217 20 0 18 7 -28 101 -24 47 -52 104 -63 128 -21 48 -98 122 -157 152 -40
20 -110 31 -143 22z"/>
<path d="M1758 338 c9 -9 15 -9 24 0 9 9 7 12 -12 12 -19 0 -21 -3 -12 -12z"/>
<path d="M1800 329 c0 -5 8 -13 18 -16 9 -4 20 -11 23 -16 4 -5 12 -8 19 -5 8
2 -3 13 -23 26 -21 12 -37 17 -37 11z"/>
<path d="M575 276 c-25 -7 -41 -19 -43 -30 -6 -31 9 -127 19 -121 5 4 9 -3 9
-14 0 -11 5 -23 10 -26 6 -4 8 -11 5 -16 -4 -5 -1 -9 4 -9 6 0 11 -7 11 -16 0
-13 -3 -14 -14 -5 -12 10 -14 9 -11 -6 2 -10 4 -20 4 -23 1 -3 23 -5 50 -6 47
-1 48 -1 29 18 -22 22 -83 147 -94 191 -4 16 -2 27 5 27 16 0 32 -36 25 -57
-4 -12 -3 -14 3 -5 7 9 14 2 26 -23 20 -42 21 -49 6 -39 -14 8 14 -41 43 -77
l19 -24 -17 35 c-14 29 -15 33 -2 22 9 -7 21 -26 28 -42 7 -17 19 -30 26 -30
10 0 9 8 -6 33 -24 38 -26 59 -4 31 8 -10 12 -12 8 -4 -4 8 -13 22 -19 30 -11
13 -75 155 -75 166 0 2 4 4 9 4 4 0 31 -46 59 -102 59 -121 92 -164 115 -155
22 8 22 27 1 27 -14 0 -15 2 -3 17 12 15 12 16 -4 10 -13 -5 -21 0 -29 18 -6
14 -15 25 -20 25 -4 0 -8 9 -8 20 0 11 -5 20 -11 20 -6 0 -9 7 -5 15 3 8 1 15
-5 15 -5 0 -14 12 -20 27 -37 99 -45 103 -124 79z m35 -37 c0 -6 16 -44 35
-86 19 -41 28 -70 20 -63 -11 9 -15 9 -15 1 0 -7 -4 -9 -10 -6 -5 3 -10 11
-10 16 0 6 5 7 10 4 15 -9 13 -4 -20 70 -32 70 -37 90 -20 80 6 -3 10 -11 10
-16z"/>
<path d="M1401 271 c-10 -7 -7 -9 12 -8 15 1 27 5 27 10 0 10 -22 9 -39 -2z"/>
<path d="M1861 256 c-10 -11 -8 -17 11 -30 12 -9 32 -16 43 -15 13 0 9 4 -12
10 -18 5 -33 14 -33 20 0 6 9 8 21 4 15 -5 20 -3 17 6 -7 20 -33 22 -47 5z"/>
<path d="M1450 250 c0 -5 -19 -10 -42 -10 -32 0 -39 -3 -30 -12 9 -9 21 -8 53
1 34 10 43 10 50 -1 6 -9 9 -9 9 -1 0 7 -9 17 -20 23 -14 7 -20 7 -20 0z"/>
<path d="M1940 206 c0 -13 -5 -16 -20 -11 -11 4 -20 2 -20 -4 0 -13 30 -14 50
-1 12 7 12 12 2 22 -9 9 -12 8 -12 -6z"/>
<path d="M4050 189 c-51 -43 -191 -134 -202 -131 -5 1 -7 -1 -4 -6 3 -5 -6
-14 -21 -21 -20 -9 -23 -15 -14 -24 15 -15 45 1 195 109 82 58 122 82 129 75
8 -8 4 -18 -11 -34 -35 -37 -26 -42 13 -8 33 28 65 41 65 24 0 -3 -11 -21 -25
-39 -15 -19 -20 -34 -14 -36 6 -2 -10 -21 -35 -42 -25 -20 -46 -42 -46 -47 0
-8 22 8 77 58 14 12 22 26 19 31 -10 17 51 72 81 72 26 0 22 -6 -58 -85 -47
-47 -79 -85 -71 -85 8 0 50 36 92 80 49 51 85 80 99 80 11 0 21 -2 21 -4 0 -2
-31 -37 -69 -77 -38 -41 -67 -76 -65 -78 3 -3 38 28 78 68 44 44 79 71 85 66
12 -7 -41 -83 -83 -117 -21 -17 -20 -18 15 -18 21 0 42 7 49 15 7 9 20 13 29
10 12 -5 13 -3 4 6 -14 14 -6 39 12 39 16 0 14 75 -3 92 -7 7 -12 8 -12 2 0
-5 -4 -3 -9 4 -4 7 -23 15 -42 17 -38 5 -71 10 -144 24 -78 15 -98 12 -135
-20z"/>
<path d="M1424 198 c-3 -4 5 -5 17 -3 30 6 36 14 9 12 -12 -1 -24 -5 -26 -9z"/>
<path d="M1564 159 c14 -11 24 -25 21 -30 -4 -5 1 -6 9 -3 9 3 16 1 16 -5 0
-6 6 -11 13 -11 13 0 -62 69 -77 70 -5 0 3 -9 18 -21z"/>
<path d="M590 151 c0 -6 4 -13 10 -16 6 -3 7 1 4 9 -7 18 -14 21 -14 7z"/>
<path d="M4115 113 c-22 -20 -62 -53 -88 -74 -65 -52 -46 -50 30 3 56 39 110
94 102 103 -2 1 -22 -13 -44 -32z"/>
<path d="M1491 126 c16 -14 69 -35 69 -26 0 5 -7 10 -15 10 -8 0 -15 5 -15 10
0 6 -10 10 -22 10 -12 0 -19 -2 -17 -4z"/>
<path d="M4034 97 c-21 -19 -59 -48 -83 -65 -24 -18 -38 -32 -31 -32 14 0 140
91 160 115 22 27 -6 16 -46 -18z"/>
<path d="M1580 80 c0 -5 5 -10 11 -10 5 0 7 5 4 10 -3 6 -8 10 -11 10 -2 0 -4
-4 -4 -10z"/>
<path d="M1625 80 c-3 -6 5 -10 19 -10 14 0 28 5 31 10 3 6 -5 10 -19 10 -14
0 -28 -4 -31 -10z"/>
<path d="M1625 42 c19 -19 82 -31 100 -19 13 10 10 12 -17 13 -18 1 -46 5 -63
9 -21 5 -27 4 -20 -3z"/>
<path d="M1735 10 c-3 -5 -1 -10 4 -10 6 0 11 5 11 10 0 6 -2 10 -4 10 -3 0
-8 -4 -11 -10z"/>
</g>
</svg>
