<?xml version="1.0" standalone="no"?>
<!DOCTYPE svg PUBLIC "-//W3C//DTD SVG 20010904//EN"
 "http://www.w3.org/TR/2001/REC-SVG-20010904/DTD/svg10.dtd">
<svg version="1.0" xmlns="http://www.w3.org/2000/svg"
 width="512.000000pt" height="512.000000pt" viewBox="0 0 512.000000 512.000000"
 preserveAspectRatio="xMidYMid meet">
<metadata>
Created by potrace 1.16, written by Peter Selinger 2001-2019
</metadata>
<g transform="translate(0.000000,512.000000) scale(0.100000,-0.100000)"
fill="#000000" stroke="none">
<path d="M2433 4683 c9 -2 23 -2 30 0 6 3 -1 5 -18 5 -16 0 -22 -2 -12 -5z"/>
<path d="M2435 4644 c-190 -41 -321 -127 -425 -278 -19 -28 -39 -54 -45 -58
-5 -4 -6 -10 -2 -14 4 -4 8 -5 10 -3 2 2 25 32 51 66 26 35 73 84 104 109 99
82 261 143 375 144 46 0 64 14 30 24 -35 9 -78 14 -98 10z"/>
<path d="M2578 4642 c-10 -2 -18 -10 -18 -17 0 -18 25 -25 86 -24 118 3 284
-72 390 -176 39 -38 78 -81 86 -95 9 -14 19 -22 22 -19 4 4 -5 20 -19 37 -14
16 -25 34 -25 39 0 18 -106 114 -183 166 -127 85 -226 110 -296 74 -42 -21
-47 -21 -31 -2 15 18 12 23 -12 17z m160 -29 c-10 -2 -28 -2 -40 0 -13 2 -5 4
17 4 22 1 32 -1 23 -4z m57 -21 c-3 -3 -11 0 -18 7 -9 10 -8 11 6 5 10 -3 15
-9 12 -12z"/>
<path d="M2410 4551 c-71 -20 -160 -59 -160 -71 0 -4 30 3 68 16 37 12 95 30
130 40 34 10 62 21 62 26 0 12 -27 9 -100 -11z"/>
<path d="M2537 4559 c7 -7 15 -10 18 -7 3 3 -2 9 -12 12 -14 6 -15 5 -6 -5z"/>
<path d="M2630 4563 c0 -8 53 -22 92 -24 24 -1 48 -6 55 -12 7 -5 18 -7 25 -5
25 9 -29 27 -101 36 -39 5 -71 7 -71 5z"/>
<path d="M2968 4539 c11 -12 108 -14 564 -17 367 -2 555 1 562 8 7 7 -166 10
-546 10 -306 0 -565 3 -575 6 -15 6 -16 5 -5 -7z"/>
<path d="M705 4529 c351 -9 1407 -9 1430 1 11 5 -346 8 -825 7 -552 0 -762 -3
-605 -8z"/>
<path d="M4123 4533 c9 -2 23 -2 30 0 6 3 -1 5 -18 5 -16 0 -22 -2 -12 -5z"/>
<path d="M4170 4536 c0 -2 9 -6 20 -9 11 -3 20 -1 20 4 0 5 -9 9 -20 9 -11 0
-20 -2 -20 -4z"/>
<path d="M4228 4533 c7 -3 16 -2 19 1 4 3 -2 6 -13 5 -11 0 -14 -3 -6 -6z"/>
<path d="M2468 4513 c6 -2 18 -2 25 0 6 3 1 5 -13 5 -14 0 -19 -2 -12 -5z"/>
<path d="M2577 4513 c-4 -3 -2 -14 3 -24 6 -11 7 -27 1 -42 -6 -16 -6 -28 2
-36 8 -8 8 -11 -1 -11 -6 0 -9 -7 -5 -15 3 -9 -2 -22 -13 -30 -18 -13 -18 -14
4 -8 12 3 22 1 22 -6 0 -5 7 -8 15 -5 8 4 15 1 15 -5 0 -6 5 -11 10 -11 15 0
12 31 -5 44 -30 22 -27 112 4 118 12 3 7 9 -15 21 -17 9 -34 14 -37 10z"/>
<path d="M2670 4517 c0 -3 30 -15 68 -26 37 -12 83 -30 102 -41 l35 -21 -39
35 c-21 20 -42 33 -47 31 -4 -3 -9 -1 -11 5 -3 11 -108 27 -108 17z"/>
<path d="M2840 4500 c0 -6 7 -10 15 -10 8 0 15 2 15 4 0 2 -7 6 -15 10 -8 3
-15 1 -15 -4z"/>
<path d="M2357 4464 c-32 -20 -56 -38 -54 -41 4 -3 135 61 146 73 2 2 -4 4
-15 4 -10 0 -45 -17 -77 -36z"/>
<path d="M2710 4470 c0 -5 8 -10 18 -11 14 0 14 -2 -3 -9 l-20 -9 20 -1 c11
-2 24 -2 29 -1 4 1 19 -5 32 -14 13 -8 24 -12 24 -9 0 4 10 -1 23 -12 19 -16
18 -15 -3 9 -14 16 -44 37 -67 48 -48 22 -53 23 -53 9z"/>
<path d="M2207 4456 c-4 -10 0 -12 14 -9 22 6 26 23 5 23 -8 0 -16 -6 -19 -14z"/>
<path d="M2899 4451 c7 -12 23 -26 37 -31 13 -5 24 -13 24 -17 0 -15 120 -138
120 -124 0 15 -118 140 -164 173 l-28 21 11 -22z"/>
<path d="M2365 4433 c-22 -14 -58 -42 -81 -62 -68 -60 -89 -76 -96 -73 -8 2
-12 -14 -9 -32 1 -5 -7 -15 -19 -23 -20 -14 -44 -54 -73 -125 -22 -53 -14 -47
21 16 28 49 109 152 157 201 41 41 121 96 148 102 15 3 27 9 27 14 0 17 -36 9
-75 -18z"/>
<path d="M2458 4443 c7 -3 16 -2 19 1 4 3 -2 6 -13 5 -11 0 -14 -3 -6 -6z"/>
<path d="M2170 4436 c0 -2 7 -7 16 -10 8 -3 12 -2 9 4 -6 10 -25 14 -25 6z"/>
<path d="M1730 4419 c0 -6 8 -8 18 -5 10 3 56 -5 102 -19 47 -13 96 -24 110
-24 23 1 22 2 -10 16 -84 37 -220 57 -220 32z"/>
<path d="M2387 4414 c-16 -9 -27 -18 -24 -21 3 -2 22 5 44 16 21 11 31 20 23
20 -8 0 -28 -7 -43 -15z"/>
<path d="M3245 4414 c-22 -8 -59 -15 -82 -16 -52 -3 -56 -13 -8 -21 24 -4 57
3 112 23 57 21 70 29 48 29 -16 0 -48 -7 -70 -15z"/>
<path d="M3346 4414 c-5 -12 -2 -15 10 -10 8 3 18 6 20 6 2 0 4 5 4 10 0 16
-27 11 -34 -6z"/>
<path d="M2095 4356 c-30 -33 -53 -61 -51 -63 2 -2 34 25 71 60 43 40 62 64
51 64 -9 0 -41 -27 -71 -61z"/>
<path d="M2680 4417 c0 -2 22 -19 49 -37 26 -18 54 -42 60 -53 8 -11 8 -16 2
-12 -6 3 -11 1 -11 -5 0 -7 7 -9 17 -6 10 4 26 -2 41 -16 24 -23 25 -23 13 -1
-6 12 -30 37 -53 57 -23 20 -37 36 -31 36 15 0 77 -44 124 -87 23 -21 47 -42
55 -46 8 -5 12 -13 8 -18 -3 -5 0 -8 7 -7 7 2 14 -4 14 -12 1 -8 18 -50 38
-93 20 -43 37 -83 37 -89 0 -6 3 -8 6 -5 8 8 -33 113 -58 149 -11 16 -17 32
-14 36 6 10 -85 107 -137 145 -41 31 -167 78 -167 64z"/>
<path d="M2415 4390 c-3 -6 1 -7 9 -4 18 7 21 14 7 14 -6 0 -13 -4 -16 -10z"/>
<path d="M2174 4352 c-47 -42 -111 -129 -101 -138 3 -3 12 7 20 23 8 15 43 56
76 91 67 68 70 84 5 24z"/>
<path d="M2356 4350 c-49 -37 -49 -37 -31 -37 8 0 15 4 15 9 0 4 4 8 10 8 5 0
7 -7 3 -16 -4 -12 6 -8 38 11 23 15 55 31 69 36 l25 7 -29 1 c-16 1 -44 -8
-62 -20 -39 -23 -45 -17 -11 12 35 29 16 22 -27 -11z"/>
<path d="M3336 4310 c-26 -38 -63 -83 -83 -100 l-34 -31 21 -44 c12 -25 25
-45 28 -45 11 1 88 120 112 173 12 26 26 47 31 47 13 0 11 44 -3 58 -7 7 -15
12 -18 12 -4 0 -28 -31 -54 -70z m64 25 c0 -12 -34 -43 -42 -38 -5 3 -2 14 8
24 16 18 34 25 34 14z m-48 -84 c-5 -3 -17 -23 -25 -43 -9 -21 -23 -38 -31
-38 -9 0 -16 -7 -16 -15 0 -8 -6 -12 -14 -9 -19 7 -8 42 15 49 10 4 19 11 19
16 0 16 4 24 22 43 10 11 18 25 18 30 0 6 5 3 11 -8 8 -12 8 -21 1 -25z"/>
<path d="M1713 4363 c-7 -2 -13 -13 -13 -23 0 -21 49 -105 103 -174 20 -27 37
-57 37 -68 0 -28 16 -13 23 22 8 37 -1 63 -19 56 -8 -3 -14 -1 -14 4 0 6 5 10
11 10 20 0 -2 39 -49 87 -33 34 -46 55 -44 71 3 22 -8 27 -35 15z m99 -145
c11 -11 13 -20 7 -24 -6 -3 -11 -4 -12 -3 -1 2 -13 20 -26 39 -25 35 -13 31
31 -12z"/>
<path d="M2890 4367 c0 -1 28 -27 62 -57 34 -30 57 -47 52 -38 -16 28 -114
110 -114 95z"/>
<path d="M2987 4330 c9 -16 21 -30 25 -30 5 0 -1 14 -14 30 -12 17 -23 30 -25
30 -2 0 4 -13 14 -30z"/>
<path d="M2680 4326 c0 -3 9 -10 20 -16 11 -6 20 -8 20 -6 0 3 -9 10 -20 16
-11 6 -20 8 -20 6z"/>
<path d="M1820 4301 c0 -5 5 -13 10 -16 6 -3 10 -2 10 4 0 5 -4 13 -10 16 -5
3 -10 2 -10 -4z"/>
<path d="M2469 4293 c-13 -16 -12 -17 4 -4 9 7 17 15 17 17 0 8 -8 3 -21 -13z"/>
<path d="M2610 4280 c-7 -17 -10 -33 -6 -37 3 -3 6 1 6 10 0 10 4 17 9 17 5 0
11 9 14 20 8 31 -9 23 -23 -10z"/>
<path d="M2266 4239 c-31 -33 -64 -75 -72 -92 -9 -18 -21 -35 -27 -38 -5 -4
-7 -13 -5 -20 3 -9 10 -3 21 16 18 36 110 153 139 178 11 9 16 17 10 17 -5 0
-35 -27 -66 -61z"/>
<path d="M2577 4293 c-4 -3 -7 -11 -7 -17 0 -6 5 -5 12 2 6 6 9 14 7 17 -3 3
-9 2 -12 -2z"/>
<path d="M3220 4289 c0 -5 5 -7 10 -4 6 3 10 8 10 11 0 2 -4 4 -10 4 -5 0 -10
-5 -10 -11z"/>
<path d="M2055 4270 c-10 -11 -14 -20 -9 -20 5 0 15 9 22 20 7 11 11 20 9 20
-2 0 -12 -9 -22 -20z"/>
<path d="M2406 4273 c-8 -10 -30 -37 -49 -60 -55 -67 -81 -113 -70 -124 6 -6
15 -4 24 7 9 12 10 15 2 10 -7 -4 -13 -5 -13 -1 0 6 72 109 110 158 23 29 19
38 -4 10z"/>
<path d="M1850 4251 c0 -5 5 -13 10 -16 6 -3 10 -2 10 4 0 5 -4 13 -10 16 -5
3 -10 2 -10 -4z"/>
<path d="M2687 4253 c-10 -9 -8 -51 2 -57 5 -3 9 10 9 29 0 37 -1 39 -11 28z"/>
<path d="M3230 4241 c0 -6 5 -13 10 -16 6 -3 10 1 10 9 0 9 -4 16 -10 16 -5 0
-10 -4 -10 -9z"/>
<path d="M2219 4223 c-13 -16 -12 -17 4 -4 9 7 17 15 17 17 0 8 -8 3 -21 -13z"/>
<path d="M2757 4233 c-11 -18 -11 -181 -1 -170 4 3 7 42 6 87 0 53 4 78 11 73
6 -3 7 -1 3 5 -8 14 -13 15 -19 5z"/>
<path d="M2879 4214 c4 -15 13 -30 20 -32 11 -4 11 0 0 19 -7 13 -11 26 -10
29 1 2 -2 6 -8 8 -6 2 -7 -7 -2 -24z"/>
<path d="M2780 4198 c0 -30 13 -78 20 -78 4 0 4 19 -2 42 -10 45 -18 61 -18
36z"/>
<path d="M2830 4201 c0 -5 5 -13 10 -16 6 -3 10 -17 10 -31 0 -13 5 -24 11
-24 6 0 9 7 5 15 -8 21 11 19 23 -2 9 -16 10 -16 11 -2 0 9 -16 29 -35 43 -19
15 -35 23 -35 17z"/>
<path d="M2920 4201 c0 -6 4 -13 10 -16 6 -3 7 1 4 9 -7 18 -14 21 -14 7z"/>
<path d="M1872 4189 c2 -7 10 -15 17 -17 8 -3 12 1 9 9 -2 7 -10 15 -17 17 -8
3 -12 -1 -9 -9z"/>
<path d="M2252 4158 c-34 -49 -48 -88 -33 -88 18 0 64 70 66 101 1 16 0 29 -1
29 -2 0 -16 -19 -32 -42z m4 -37 c-31 -49 -45 -55 -19 -8 24 44 35 58 40 53 3
-2 -7 -23 -21 -45z"/>
<path d="M3160 4164 c0 -8 5 -12 10 -9 6 4 8 11 5 16 -9 14 -15 11 -15 -7z"/>
<path d="M2823 4136 c4 -10 7 -27 7 -39 0 -16 3 -18 9 -8 10 15 3 48 -12 58
-7 4 -8 0 -4 -11z"/>
<path d="M2360 4120 c-6 -11 -8 -20 -6 -20 3 0 10 9 16 20 6 11 8 20 6 20 -3
0 -10 -9 -16 -20z"/>
<path d="M2567 4100 c-20 -48 -22 -72 -4 -45 18 26 38 85 29 85 -4 0 -15 -18
-25 -40z"/>
<path d="M2956 4127 c3 -10 9 -15 12 -12 3 3 0 11 -7 18 -10 9 -11 8 -5 -6z"/>
<path d="M2870 4110 c0 -8 8 -24 16 -35 16 -19 16 -19 9 5 -9 31 -25 50 -25
30z"/>
<path d="M2421 4098 c-1 -18 -20 -21 -32 -5 -3 4 -18 -15 -33 -43 -16 -28 -26
-53 -23 -56 2 -3 10 9 17 26 10 23 15 28 22 18 7 -10 9 -10 7 2 -3 28 1 37 17
37 11 0 14 -7 10 -26 l-6 -26 16 28 c8 16 13 36 11 45 -4 15 -5 15 -6 0z"/>
<path d="M2470 4097 c0 -9 -4 -17 -8 -17 -8 0 -32 -43 -32 -57 0 -3 9 4 20 17
22 25 35 59 26 67 -3 4 -6 -1 -6 -10z"/>
<path d="M2326 4074 c-3 -11 -15 -30 -27 -43 -11 -12 -19 -27 -16 -34 2 -6 16
8 31 31 15 24 25 49 23 55 -2 7 -7 3 -11 -9z"/>
<path d="M2480 4052 c-8 -15 -16 -31 -19 -36 -2 -5 1 -6 8 -2 13 8 34 56 28
62 -2 2 -10 -8 -17 -24z"/>
<path d="M2505 4025 c-27 -59 -29 -83 -3 -43 18 29 40 90 33 96 -2 2 -16 -21
-30 -53z"/>
<path d="M2601 4064 c0 -11 3 -14 6 -6 3 7 2 16 -1 19 -3 4 -6 -2 -5 -13z"/>
<path d="M2651 4053 c0 -25 1 -26 9 -8 12 27 12 35 0 35 -5 0 -10 -12 -9 -27z"/>
<path d="M1830 4069 c0 -2 -7 -26 -15 -54 -9 -27 -11 -45 -6 -40 11 12 32 87
26 94 -3 2 -5 2 -5 0z"/>
<path d="M2145 4059 c-4 -6 -5 -12 -2 -15 2 -3 7 2 10 11 7 17 1 20 -8 4z"/>
<path d="M2850 4060 c0 -5 5 -10 10 -10 6 0 10 5 10 10 0 6 -4 10 -10 10 -5 0
-10 -4 -10 -10z"/>
<path d="M2560 4018 c-20 -33 -28 -66 -9 -38 19 29 39 70 34 70 -3 0 -14 -15
-25 -32z"/>
<path d="M2628 4030 c-11 -38 -10 -56 3 -43 6 6 9 23 7 39 l-3 29 -7 -25z"/>
<path d="M2723 4035 c-7 -8 -12 -29 -12 -47 1 -24 3 -27 6 -10 2 12 8 22 12
22 5 0 9 11 9 25 0 14 -1 25 -2 25 0 -1 -7 -7 -13 -15z"/>
<path d="M3283 4035 c8 -29 35 -144 42 -182 10 -49 23 -40 15 10 -10 61 -41
170 -53 182 -6 6 -7 3 -4 -10z"/>
<path d="M2763 3990 c0 -25 2 -35 4 -22 2 12 2 32 0 45 -2 12 -4 2 -4 -23z"/>
<path d="M2880 3983 c5 -18 5 -35 1 -38 -5 -2 -11 -35 -13 -72 -3 -38 -15 -95
-28 -128 -34 -92 -34 -106 0 -40 28 54 35 85 56 230 4 28 1 46 -10 60 -14 19
-15 18 -6 -12z"/>
<path d="M3241 3994 c0 -11 3 -14 6 -6 3 7 2 16 -1 19 -3 4 -6 -2 -5 -13z"/>
<path d="M2799 3995 c-1 -5 -1 -14 0 -19 8 -43 -45 -260 -71 -293 -5 -7 -8
-20 -5 -30 4 -16 6 -15 12 5 4 12 12 22 17 22 6 0 7 7 4 16 -3 9 1 25 9 37 8
12 15 27 15 34 0 6 5 24 12 40 13 33 17 48 20 86 1 15 6 27 9 27 10 0 1 -63
-17 -120 -7 -25 -16 -63 -20 -85 -3 -22 -8 -44 -11 -50 -2 -5 2 -2 10 8 23 28
57 180 56 249 0 35 -3 57 -6 49 -4 -10 -9 -8 -19 10 -7 13 -14 20 -15 14z"/>
<path d="M3251 3954 c0 -11 3 -14 6 -6 3 7 2 16 -1 19 -3 4 -6 -2 -5 -13z"/>
<path d="M3101 3904 c0 -11 3 -14 6 -6 3 7 2 16 -1 19 -3 4 -6 -2 -5 -13z"/>
<path d="M2681 3893 c-1 -6 -4 -20 -7 -30 -5 -17 -5 -17 6 0 6 10 9 23 6 30
-3 9 -5 9 -5 0z"/>
<path d="M2741 3871 c-1 -7 -18 -50 -40 -95 -43 -91 -114 -187 -168 -228 -31
-24 -33 -28 -16 -28 28 0 99 72 146 148 41 67 90 188 83 206 -3 7 -5 6 -5 -3z"/>
<path d="M3111 3843 c-1 -23 3 -44 7 -47 4 -2 6 12 4 32 -5 56 -10 62 -11 15z"/>
<path d="M2619 3844 c-5 -15 -8 -29 -5 -31 2 -2 8 10 14 26 13 38 5 41 -9 5z"/>
<path d="M2928 3863 c-2 -5 0 -44 3 -88 l6 -80 0 88 c0 82 -2 97 -9 80z"/>
<path d="M1770 3820 c0 -5 5 -10 10 -10 6 0 10 5 10 10 0 6 -4 10 -10 10 -5 0
-10 -4 -10 -10z"/>
<path d="M2962 3790 c0 -19 2 -27 5 -17 2 9 2 25 0 35 -3 9 -5 1 -5 -18z"/>
<path d="M3330 3800 c0 -5 4 -10 9 -10 4 0 6 -10 4 -22 -5 -28 71 -317 86
-328 4 -3 17 -30 28 -60 12 -30 25 -64 29 -75 4 -11 17 -49 30 -85 36 -105 27
-54 -11 64 -33 101 -54 158 -76 198 -5 10 -9 24 -9 31 0 7 -13 54 -30 105 -33
102 -36 117 -19 106 15 -9 1 56 -17 73 -15 16 -24 17 -24 3z m27 -52 c-3 -7
-5 -2 -5 12 0 14 2 19 5 13 2 -7 2 -19 0 -25z"/>
<path d="M1765 3754 c-3 -25 -15 -80 -26 -121 -22 -82 -21 -110 1 -41 8 24 16
48 19 53 7 13 9 27 17 98 8 68 -1 77 -11 11z"/>
<path d="M2573 3748 c-9 -15 -24 -41 -46 -81 -8 -15 -34 -48 -57 -73 -23 -25
-39 -48 -35 -52 13 -13 133 142 149 196 8 24 2 29 -11 10z"/>
<path d="M2966 3734 c-3 -9 -6 -33 -6 -55 0 -28 4 -39 15 -39 8 0 15 7 15 16
0 8 -5 12 -11 9 -7 -5 -8 7 -4 39 7 46 3 60 -9 30z"/>
<path d="M3181 3734 c0 -11 3 -14 6 -6 3 7 2 16 -1 19 -3 4 -6 -2 -5 -13z"/>
<path d="M108 3723 c-25 -6 -22 -18 10 -43 15 -12 63 -56 107 -98 44 -43 127
-120 185 -172 58 -52 134 -123 170 -156 166 -156 174 -161 187 -129 8 23 -26
58 -43 44 -9 -8 -18 -5 -33 10 -12 12 -25 21 -30 21 -5 0 -11 7 -15 15 -3 9 0
15 10 15 8 0 -19 34 -61 75 -75 73 -100 90 -89 60 10 -24 -4 -17 -40 20 -19
19 -30 35 -26 35 5 0 18 -9 29 -21 10 -11 21 -16 25 -11 5 8 -8 22 -59 62 -17
14 -18 13 -12 -2 3 -10 2 -18 -3 -18 -6 0 -10 10 -10 23 0 15 -16 37 -47 64
-27 22 -86 79 -133 127 -47 47 -89 85 -95 85 -5 -1 -18 -3 -27 -6z m77 -63 c3
-5 1 -10 -4 -10 -6 0 -11 5 -11 10 0 6 2 10 4 10 3 0 8 -4 11 -10z m365 -342
c0 -5 -7 -3 -15 6 -8 8 -15 18 -15 22 0 3 7 1 15 -6 8 -7 15 -17 15 -22z m34
-24 c10 -25 -1 -29 -14 -5 -6 12 -7 21 -1 21 5 0 12 -7 15 -16z m53 -50 c-7
-7 -37 7 -37 17 0 6 9 5 21 -1 11 -7 19 -14 16 -16z"/>
<path d="M5048 3711 c-8 -11 -54 -52 -104 -92 -49 -40 -105 -86 -124 -103 -46
-40 -93 -78 -280 -226 -199 -158 -183 -142 -167 -164 12 -16 19 -13 88 41 41
32 95 75 120 95 41 34 171 142 296 246 28 23 56 42 60 42 5 0 25 16 44 36 18
19 56 49 82 66 36 23 47 36 45 52 -4 28 -42 33 -60 7z"/>
<path d="M3381 3690 c0 -14 6 -38 14 -55 l14 -30 -6 30 c-3 17 -10 41 -14 55
l-7 25 -1 -25z"/>
<path d="M2306 3673 c-6 -14 -5 -15 5 -6 7 7 10 15 7 18 -3 3 -9 -2 -12 -12z"/>
<path d="M1981 3664 c0 -11 3 -14 6 -6 3 7 2 16 -1 19 -3 4 -6 -2 -5 -13z"/>
<path d="M2927 3656 c-4 -10 -13 -16 -21 -13 -8 3 -17 3 -20 -1 -7 -6 -26 -11
-60 -16 -11 -1 -22 -8 -24 -15 -3 -9 2 -11 14 -7 11 3 41 10 67 15 56 10 60
13 55 38 -3 17 -4 17 -11 -1z"/>
<path d="M3141 3654 c0 -11 3 -14 6 -6 3 7 2 16 -1 19 -3 4 -6 -2 -5 -13z"/>
<path d="M3430 3659 c0 -5 5 -7 10 -4 6 3 10 8 10 11 0 2 -4 4 -10 4 -5 0 -10
-5 -10 -11z"/>
<path d="M2276 3625 c-13 -19 -13 -23 -2 -19 8 3 16 14 19 25 7 25 3 24 -17
-6z"/>
<path d="M2699 3643 c-1 -5 -3 -17 -4 -28 -2 -11 -6 -29 -11 -39 -6 -17 -4
-18 19 -12 67 16 111 46 68 46 -11 0 -23 -5 -26 -10 -4 -6 -11 -8 -16 -5 -5 4
-9 1 -9 -5 0 -6 -4 -9 -9 -5 -5 3 -8 19 -6 35 2 17 2 30 0 30 -3 0 -6 -3 -6
-7z"/>
<path d="M3210 3630 c0 -5 7 -10 16 -10 8 0 12 5 9 10 -3 6 -10 10 -16 10 -5
0 -9 -4 -9 -10z"/>
<path d="M1983 3565 c0 -38 2 -53 4 -32 2 20 2 52 0 70 -2 17 -4 1 -4 -38z"/>
<path d="M1741 3550 c-6 -28 -11 -62 -11 -76 0 -30 -26 -131 -41 -157 -5 -10
-7 -23 -3 -29 5 -7 3 -8 -6 -3 -9 5 -10 2 -6 -11 3 -11 1 -26 -5 -34 -9 -12
-10 -11 -4 5 3 11 3 16 -2 12 -4 -5 -8 -22 -9 -39 -1 -21 1 -26 7 -17 14 23
10 -5 -6 -45 -9 -20 -13 -47 -9 -60 4 -15 1 -27 -8 -33 -9 -5 -27 -71 -46
-173 -32 -164 -40 -246 -23 -236 5 3 9 16 9 28 0 46 34 216 64 328 18 63 32
135 33 160 0 25 2 47 6 50 8 8 49 165 54 212 3 24 10 69 17 101 14 72 4 87
-11 17z"/>
<path d="M2351 3586 c-8 -10 -9 -16 -1 -21 5 -3 13 1 16 10 9 22 -1 29 -15 11z"/>
<path d="M3151 3584 c0 -11 3 -14 6 -6 3 7 2 16 -1 19 -3 4 -6 -2 -5 -13z"/>
<path d="M2643 3578 c-4 -7 -23 -26 -41 -41 -19 -15 -29 -27 -23 -27 15 0 86
68 79 75 -3 4 -10 0 -15 -7z"/>
<path d="M2660 3550 c0 -5 5 -10 11 -10 5 0 7 5 4 10 -3 6 -8 10 -11 10 -2 0
-4 -4 -4 -10z"/>
<path d="M3143 3493 l-1 -58 8 45 c4 25 4 51 0 58 -4 8 -7 -12 -7 -45z"/>
<path d="M3191 3529 c0 -13 4 -33 9 -44 7 -14 8 -8 3 20 -7 46 -13 59 -12 24z"/>
<path d="M1709 3514 c-5 -15 -12 -31 -16 -37 -3 -6 -1 -7 4 -4 11 7 36 67 27
67 -2 0 -9 -12 -15 -26z"/>
<path d="M2845 3530 c-16 -7 -17 -9 -3 -9 9 -1 20 4 23 9 7 11 7 11 -20 0z"/>
<path d="M2743 3519 c-18 -5 -33 -12 -33 -15 0 -9 53 5 65 17 10 10 11 10 -32
-2z"/>
<path d="M2283 3513 c9 -2 23 -2 30 0 6 3 -1 5 -18 5 -16 0 -22 -2 -12 -5z"/>
<path d="M2468 3513 c7 -3 16 -2 19 1 4 3 -2 6 -13 5 -11 0 -14 -3 -6 -6z"/>
<path d="M3450 3484 c0 -13 18 -39 24 -34 2 3 -2 14 -10 24 -8 11 -14 16 -14
10z"/>
<path d="M2280 3470 c0 -5 9 -10 21 -10 11 0 17 5 14 10 -3 6 -13 10 -21 10
-8 0 -14 -4 -14 -10z"/>
<path d="M2800 3476 c0 -2 9 -6 20 -9 11 -3 20 -1 20 4 0 5 -9 9 -20 9 -11 0
-20 -2 -20 -4z"/>
<path d="M2855 3458 c-12 -29 -54 -36 -71 -13 -12 16 -34 13 -34 -4 0 -15 65
-28 98 -19 25 7 32 14 32 33 0 31 -12 32 -25 3z"/>
<path d="M2230 3455 c-9 -11 -10 -16 -2 -11 7 4 12 2 12 -7 0 -19 71 -29 125
-18 22 5 32 9 23 10 -10 0 -18 9 -18 19 -1 16 -1 16 -14 0 -9 -13 -23 -17 -47
-14 -19 2 -39 4 -46 5 -6 0 -13 8 -15 18 -3 14 -5 14 -18 -2z"/>
<path d="M1706 3452 c-2 -4 -7 -25 -10 -47 -7 -45 -2 -38 13 18 9 35 8 46 -3
29z"/>
<path d="M2715 3420 c-3 -5 -2 -10 4 -10 5 0 13 5 16 10 3 6 2 10 -4 10 -5 0
-13 -4 -16 -10z"/>
<path d="M3081 3404 c0 -11 3 -14 6 -6 3 7 2 16 -1 19 -3 4 -6 -2 -5 -13z"/>
<path d="M3231 3404 c0 -11 3 -14 6 -6 3 7 2 16 -1 19 -3 4 -6 -2 -5 -13z"/>
<path d="M3424 3403 c3 -10 14 -49 25 -88 23 -84 39 -126 40 -104 1 20 -58
209 -65 209 -3 0 -3 -8 0 -17z"/>
<path d="M2557 3403 c-10 -9 -9 -121 1 -127 5 -3 9 0 9 7 1 7 4 38 8 70 7 53
1 70 -18 50z"/>
<path d="M3092 3334 c-12 -24 -17 -44 -12 -44 12 0 43 67 38 80 -2 4 -13 -12
-26 -36z"/>
<path d="M3512 3356 c7 -8 15 -12 17 -11 5 6 -10 25 -20 25 -5 0 -4 -6 3 -14z"/>
<path d="M1982 3335 c0 -16 2 -22 5 -12 2 9 2 23 0 30 -3 6 -5 -1 -5 -18z"/>
<path d="M2035 3335 c3 -16 13 -37 21 -45 13 -13 14 -13 8 5 -5 11 -14 31 -22
45 l-14 25 7 -30z"/>
<path d="M2918 3343 c-26 -31 -30 -43 -14 -43 9 0 22 14 31 30 17 33 7 40 -17
13z"/>
<path d="M2972 3335 c-14 -30 -16 -65 -4 -65 4 0 8 9 9 20 1 11 9 27 17 36 9
9 14 20 11 25 -10 16 -21 10 -33 -16z"/>
<path d="M1606 3312 l-30 -37 37 34 c38 36 42 42 30 40 -5 0 -21 -17 -37 -37z"/>
<path d="M1650 3304 c-21 -48 -27 -82 -9 -52 13 23 39 98 34 98 -2 0 -13 -21
-25 -46z"/>
<path d="M2235 3310 c4 -6 11 -8 16 -5 14 9 11 15 -7 15 -8 0 -12 -5 -9 -10z"/>
<path d="M3117 3303 c-3 -5 -8 -75 -12 -158 -3 -82 -12 -181 -20 -220 -7 -38
-12 -71 -10 -73 1 -2 10 19 20 45 11 32 18 91 21 178 2 72 6 154 8 183 4 50 3
61 -7 45z"/>
<path d="M1993 3220 c0 -36 2 -50 4 -32 2 17 2 47 0 65 -2 17 -4 3 -4 -33z"/>
<path d="M3261 3254 c0 -11 3 -14 6 -6 3 7 2 16 -1 19 -3 4 -6 -2 -5 -13z"/>
<path d="M3411 3245 c0 -5 6 -32 14 -60 9 -35 14 -42 14 -24 1 15 -6 42 -14
60 -8 19 -14 30 -14 24z"/>
<path d="M2545 3218 c-18 -56 -17 -58 14 -42 26 13 28 17 17 39 -14 31 -22 31
-31 3z"/>
<path d="M3271 3214 c0 -11 3 -14 6 -6 3 7 2 16 -1 19 -3 4 -6 -2 -5 -13z"/>
<path d="M682 3206 c7 -8 15 -12 17 -11 5 6 -10 25 -20 25 -5 0 -4 -6 3 -14z"/>
<path d="M1621 3184 c-6 -14 -9 -30 -5 -35 3 -6 2 -15 -3 -22 -6 -7 -16 -39
-23 -72 -7 -33 -15 -66 -18 -74 -3 -8 -1 -12 5 -8 8 5 36 102 38 132 0 6 4 16
9 23 7 12 17 82 12 82 -2 0 -8 -12 -15 -26z"/>
<path d="M3162 3180 c0 -19 2 -27 5 -17 2 9 2 25 0 35 -3 9 -5 1 -5 -18z"/>
<path d="M2468 3170 c-7 -24 -3 -38 8 -28 3 4 4 17 2 30 l-3 23 -7 -25z"/>
<path d="M3491 3170 c0 -14 6 -34 14 -44 19 -25 19 -8 0 35 -13 31 -14 32 -14
9z"/>
<path d="M2629 3164 c-12 -16 -12 -17 4 -11 10 4 17 2 17 -5 0 -6 3 -9 6 -5 3
3 2 13 -3 22 -9 15 -11 15 -24 -1z"/>
<path d="M3286 3150 c8 -43 14 -51 14 -19 0 13 -5 31 -10 39 -7 11 -8 5 -4
-20z"/>
<path d="M3455 3155 c4 -11 13 -51 21 -90 61 -287 78 -432 61 -530 l-7 -40 14
36 c18 46 29 189 16 189 -6 0 -10 12 -10 26 0 71 -62 362 -87 404 -9 16 -12
18 -8 5z"/>
<path d="M2510 3147 c14 -8 27 -12 30 -10 7 6 -23 23 -40 23 -8 0 -4 -6 10
-13z"/>
<path d="M2689 3133 c-6 -16 -20 -38 -31 -50 -12 -13 -16 -23 -9 -23 21 0 61
51 59 76 -3 31 -6 30 -19 -3z"/>
<path d="M1972 3100 c-1 -31 2 -91 7 -135 6 -44 13 -118 17 -165 4 -47 9 -79
12 -72 3 11 -2 82 -31 392 -3 22 -4 15 -5 -20z"/>
<path d="M2042 3130 c0 -14 2 -19 5 -12 2 6 2 18 0 25 -3 6 -5 1 -5 -13z"/>
<path d="M2427 3113 c9 -27 24 -43 34 -37 5 3 1 16 -8 29 -21 29 -35 32 -26 8z"/>
<path d="M1740 3100 c0 -11 -16 -66 -35 -122 -31 -89 -36 -119 -40 -220 -4
-84 -2 -117 6 -115 6 1 13 -15 14 -38 2 -22 8 -41 14 -43 6 -2 11 -12 11 -22
0 -10 14 -45 30 -77 18 -34 29 -67 26 -79 -5 -19 -1 -21 47 -22 48 -2 51 -1
33 13 -11 8 -29 13 -40 10 -12 -3 -15 -2 -9 1 9 4 4 17 -16 42 -33 42 -71 143
-71 188 0 17 -2 33 -5 36 -3 3 -7 55 -9 117 -1 62 1 106 5 99 5 -7 6 2 3 22
-2 19 0 49 5 65 l9 30 2 -35 c2 -35 3 -35 12 10 12 62 21 160 14 160 -3 0 -6
-9 -6 -20z m-58 -395 c-2 -19 -6 -35 -8 -35 -2 0 -4 16 -4 35 0 19 4 35 8 35
4 0 6 -16 4 -35z"/>
<path d="M3530 3112 c0 -7 7 -29 15 -49 8 -19 18 -74 21 -122 8 -99 23 -143
24 -66 0 66 -23 182 -43 220 -9 17 -16 24 -17 17z"/>
<path d="M3341 3094 c0 -11 3 -14 6 -6 3 7 2 16 -1 19 -3 4 -6 -2 -5 -13z"/>
<path d="M2002 3075 c0 -16 2 -22 5 -12 2 9 2 23 0 30 -3 6 -5 -1 -5 -18z"/>
<path d="M2041 3074 c0 -11 3 -14 6 -6 3 7 2 16 -1 19 -3 4 -6 -2 -5 -13z"/>
<path d="M3152 3054 c-1 -17 -4 -47 -7 -65 l-5 -34 11 34 c5 18 8 47 6 65 l-4
31 -1 -31z"/>
<path d="M2051 3025 c-2 -40 29 -245 40 -270 11 -24 4 60 -12 145 -5 30 -14
78 -18 105 -6 36 -9 41 -10 20z"/>
<path d="M2446 3018 c-21 -21 -24 -28 -12 -28 9 0 28 7 41 16 19 13 31 14 57
5 20 -6 45 -7 63 -2 20 5 47 3 79 -6 26 -8 55 -11 65 -7 29 12 -76 33 -166 32
-47 0 -88 3 -92 8 -3 5 -19 -3 -35 -18z"/>
<path d="M2007 2980 c8 -94 13 -133 18 -139 10 -10 2 107 -10 154 l-14 50 6
-65z"/>
<path d="M3431 3027 c-1 -4 8 -42 18 -85 11 -42 25 -111 32 -152 7 -41 15 -65
17 -53 4 27 -31 201 -52 258 -8 22 -15 37 -15 32z"/>
<path d="M3590 3013 c0 -11 57 -93 66 -93 3 0 -9 21 -27 48 -40 59 -39 57 -39
45z"/>
<path d="M2378 2993 c6 -2 18 -2 25 0 6 3 1 5 -13 5 -14 0 -19 -2 -12 -5z"/>
<path d="M3385 2965 c27 -123 38 -249 23 -278 -5 -10 -5 -24 0 -33 6 -11 12 5
22 53 11 63 11 78 -9 164 -12 52 -26 101 -32 109 -8 11 -9 8 -4 -15z"/>
<path d="M2388 2953 c7 -3 16 -2 19 1 4 3 -2 6 -13 5 -11 0 -14 -3 -6 -6z"/>
<path d="M2725 2950 c-16 -7 -17 -9 -3 -9 9 -1 20 4 23 9 7 11 7 11 -20 0z"/>
<path d="M2520 2939 c0 -5 5 -7 10 -4 6 3 10 1 10 -5 0 -6 5 -8 11 -4 8 4 7 9
-2 15 -19 12 -29 11 -29 -2z"/>
<path d="M2580 2940 c-12 -8 -12 -10 5 -9 11 0 29 4 40 9 18 8 18 9 -5 9 -14
0 -32 -4 -40 -9z"/>
<path d="M3130 2913 c0 -14 -2 -15 -9 -5 -6 9 -12 -1 -20 -33 -6 -25 -9 -51
-5 -56 3 -6 3 -27 -1 -46 -4 -20 -10 -32 -13 -26 -4 6 -8 -19 -9 -56 -2 -60
-16 -169 -29 -231 -3 -14 -3 -22 1 -18 7 7 31 128 41 208 3 25 14 81 24 125
24 106 32 155 25 155 -3 0 -5 -8 -5 -17z m-14 -69 c-4 -14 -9 -24 -12 -21 -3
2 -2 17 2 31 3 15 9 25 11 22 3 -3 2 -17 -1 -32z"/>
<path d="M1572 2900 c0 -14 2 -19 5 -12 2 6 2 18 0 25 -3 6 -5 1 -5 -13z"/>
<path d="M1951 2874 c0 -11 3 -14 6 -6 3 7 2 16 -1 19 -3 4 -6 -2 -5 -13z"/>
<path d="M2982 2859 c2 -7 10 -15 17 -17 8 -3 12 1 9 9 -2 7 -10 15 -17 17 -8
3 -12 -1 -9 -9z"/>
<path d="M3152 2833 c-15 -53 -35 -173 -29 -179 2 -3 8 17 11 43 4 26 14 74
23 106 17 63 13 90 -5 30z"/>
<path d="M1561 2844 c0 -11 3 -14 6 -6 3 7 2 16 -1 19 -3 4 -6 -2 -5 -13z"/>
<path d="M1953 2805 c0 -22 2 -30 4 -17 2 12 2 30 0 40 -3 9 -5 -1 -4 -23z"/>
<path d="M2515 2831 c-3 -6 20 -9 55 -8 33 1 60 5 60 9 0 11 -108 10 -115 -1z"/>
<path d="M2026 2755 c4 -44 9 -84 14 -88 10 -11 3 102 -9 138 -8 23 -9 11 -5
-50z"/>
<path d="M3372 2770 c0 -19 2 -27 5 -17 2 9 2 25 0 35 -3 9 -5 1 -5 -18z"/>
<path d="M3571 2784 c0 -11 3 -14 6 -6 3 7 2 16 -1 19 -3 4 -6 -2 -5 -13z"/>
<path d="M1741 2754 c0 -11 3 -14 6 -6 3 7 2 16 -1 19 -3 4 -6 -2 -5 -13z"/>
<path d="M1950 2743 c0 -13 5 -23 10 -23 13 0 13 11 0 30 -8 12 -10 11 -10 -7z"/>
<path d="M3451 2744 c0 -11 3 -14 6 -6 3 7 2 16 -1 19 -3 4 -6 -2 -5 -13z"/>
<path d="M1621 2685 c-1 -80 8 -147 19 -140 11 7 26 -14 39 -56 11 -36 51 -83
51 -61 0 6 -4 13 -9 16 -4 3 -25 40 -45 81 -27 56 -39 96 -45 153 l-8 77 -2
-70z"/>
<path d="M3343 2710 c0 -25 2 -35 4 -22 2 12 2 32 0 45 -2 12 -4 2 -4 -23z"/>
<path d="M2092 2690 c0 -19 2 -27 5 -17 2 9 2 25 0 35 -3 9 -5 1 -5 -18z"/>
<path d="M3440 2693 c-1 -16 -7 -55 -15 -88 -20 -82 -18 -100 4 -43 20 51 33
158 19 158 -4 0 -8 -12 -8 -27z"/>
<path d="M2012 2685 c0 -16 2 -22 5 -12 2 9 2 23 0 30 -3 6 -5 -1 -5 -18z"/>
<path d="M1742 2670 c0 -14 2 -19 5 -12 2 6 2 18 0 25 -3 6 -5 1 -5 -13z"/>
<path d="M1963 2645 c0 -27 2 -38 4 -22 2 15 2 37 0 50 -2 12 -4 0 -4 -28z"/>
<path d="M2121 2664 c0 -11 3 -14 6 -6 3 7 2 16 -1 19 -3 4 -6 -2 -5 -13z"/>
<path d="M3318 2610 c2 -46 0 -70 -7 -70 -6 0 -11 -6 -11 -14 0 -18 -49 -124
-61 -131 -5 -4 -6 -11 -3 -17 10 -16 65 79 86 147 21 70 23 114 6 138 -11 15
-12 5 -10 -53z"/>
<path d="M3491 2662 c0 -13 -5 -31 -10 -40 -5 -10 -12 -37 -14 -62 -3 -25 -10
-60 -16 -77 -12 -42 -52 -113 -63 -113 -4 0 -8 -4 -8 -10 0 -17 25 -11 35 9 6
10 20 37 33 60 12 23 25 58 27 79 2 20 9 61 15 89 6 29 9 61 7 70 -4 14 -5 12
-6 -5z"/>
<path d="M1775 2590 c2 -47 3 -90 4 -97 1 -15 79 -98 86 -91 3 2 -12 22 -32
44 -21 21 -32 35 -25 31 7 -5 12 -3 12 7 0 9 -5 15 -11 14 -6 -2 -14 3 -17 11
-3 9 0 11 8 6 9 -5 10 -2 6 13 -4 12 -13 49 -20 84 l-14 63 3 -85z"/>
<path d="M2059 2645 c-4 -21 2 -76 28 -233 8 -51 17 -91 19 -89 5 4 -6 97 -31
262 -6 44 -13 71 -16 60z"/>
<path d="M2030 2639 c0 -51 25 -243 37 -287 19 -70 28 -61 9 10 -8 30 -19 106
-26 169 -11 100 -20 151 -20 108z"/>
<path d="M3380 2598 c-6 -29 -14 -62 -17 -73 -4 -18 -3 -18 12 2 14 20 33 123
21 123 -2 0 -9 -24 -16 -52z"/>
<path d="M1574 2585 c4 -55 44 -173 45 -132 1 9 -4 25 -9 35 -6 9 -17 49 -25
87 l-14 70 3 -60z"/>
<path d="M1815 2601 c3 -24 10 -51 15 -60 11 -20 1 55 -12 84 -6 13 -7 5 -3
-24z"/>
<path d="M2755 2619 c-9 -14 -2 -20 14 -10 8 6 9 11 3 15 -6 3 -14 1 -17 -5z"/>
<path d="M1863 2585 c0 -22 2 -30 4 -17 2 12 2 30 0 40 -3 9 -5 -1 -4 -23z"/>
<path d="M2385 2610 c3 -5 13 -10 21 -10 8 0 14 5 14 10 0 6 -9 10 -21 10 -11
0 -17 -4 -14 -10z"/>
<path d="M2705 2611 c-7 -12 12 -24 25 -16 11 7 4 25 -10 25 -5 0 -11 -4 -15
-9z"/>
<path d="M3277 2614 c-4 -4 -7 -28 -6 -53 l1 -46 9 45 c9 48 8 66 -4 54z"/>
<path d="M3112 2590 c0 -14 2 -19 5 -12 2 6 2 18 0 25 -3 6 -5 1 -5 -13z"/>
<path d="M1891 2553 c0 -30 3 -53 9 -53 11 0 11 31 0 75 -7 26 -8 22 -9 -22z"/>
<path d="M3230 2585 c-6 -42 -6 -50 4 -67 12 -21 -12 -101 -29 -94 -7 2 -11
-5 -10 -17 2 -27 25 -35 25 -8 0 12 3 21 8 21 4 0 13 13 20 29 10 23 11 39 3
68 -6 21 -12 49 -15 63 -3 20 -4 21 -6 5z"/>
<path d="M2101 2574 c0 -11 3 -14 6 -6 3 7 2 16 -1 19 -3 4 -6 -2 -5 -13z"/>
<path d="M2981 2571 c-9 -6 -10 -11 -2 -15 6 -4 11 -2 11 4 0 6 5 8 12 4 7 -4
8 -3 4 4 -8 14 -7 14 -25 3z"/>
<path d="M1966 2532 c-4 -13 -5 -26 -2 -29 10 -11 18 4 14 29 l-4 23 -8 -23z"/>
<path d="M2111 2534 c0 -11 3 -14 6 -6 3 7 2 16 -1 19 -3 4 -6 -2 -5 -13z"/>
<path d="M3181 2534 c0 -11 3 -14 6 -6 3 7 2 16 -1 19 -3 4 -6 -2 -5 -13z"/>
<path d="M1847 2516 c-8 -21 35 -126 52 -126 6 0 11 5 11 11 0 12 -31 71 -41
79 -4 3 -9 16 -11 30 -3 22 -4 23 -11 6z"/>
<path d="M2122 2490 c0 -14 2 -19 5 -12 2 6 2 18 0 25 -3 6 -5 1 -5 -13z"/>
<path d="M2990 2502 c0 -5 7 -13 16 -16 10 -4 14 -1 12 6 -5 15 -28 23 -28 10z"/>
<path d="M3092 2485 c0 -16 2 -22 5 -12 2 9 2 23 0 30 -3 6 -5 -1 -5 -18z"/>
<path d="M3397 2479 c-9 -17 -17 -36 -17 -42 1 -7 10 5 21 26 24 46 21 59 -4
16z"/>
<path d="M2552 2452 c1 -30 6 -56 10 -58 12 -7 9 78 -2 96 -7 11 -9 -1 -8 -38z"/>
<path d="M3149 2457 l-26 -43 24 -11 c21 -10 23 -9 18 5 -2 10 -1 33 5 52 5
18 8 35 7 36 -2 2 -14 -16 -28 -39z"/>
<path d="M3335 2465 c-11 -22 -33 -52 -49 -68 -15 -15 -26 -31 -23 -34 4 -3
26 -8 50 -10 46 -6 73 11 46 28 -11 7 -10 9 4 9 9 0 17 5 17 10 0 7 -6 7 -20
0 -11 -6 -20 -15 -20 -20 0 -13 -27 -13 -35 0 -5 9 29 67 48 81 5 4 7 15 5 24
-2 14 -8 8 -23 -20z"/>
<path d="M1901 2474 c0 -11 3 -14 6 -6 3 7 2 16 -1 19 -3 4 -6 -2 -5 -13z"/>
<path d="M1950 2476 c0 -9 5 -16 10 -16 6 0 10 4 10 9 0 6 -4 13 -10 16 -5 3
-10 -1 -10 -9z"/>
<path d="M2480 2476 c0 -9 5 -16 10 -16 6 0 10 4 10 9 0 6 -4 13 -10 16 -5 3
-10 -1 -10 -9z"/>
<path d="M2597 2470 c-6 -24 8 -36 17 -14 8 22 7 34 -3 34 -5 0 -11 -9 -14
-20z"/>
<path d="M1650 2477 c0 -14 31 -69 36 -64 3 3 -4 20 -15 38 -12 19 -21 30 -21
26z"/>
<path d="M1972 2460 c-14 -23 -16 -50 -3 -50 8 0 25 60 18 66 -1 2 -8 -6 -15
-16z"/>
<path d="M2520 2466 c0 -8 5 -18 10 -21 6 -3 10 1 10 9 0 8 -4 18 -10 21 -5 3
-10 -1 -10 -9z"/>
<path d="M2740 2417 c-23 -7 -29 -12 -18 -14 9 -2 29 3 45 11 32 18 23 19 -27
3z"/>
<path d="M2350 2410 c20 -13 53 -13 45 0 -3 6 -18 10 -33 10 -21 0 -24 -2 -12
-10z"/>
<path d="M1415 2365 c-200 -51 -297 -208 -456 -737 -49 -164 -66 -208 -89
-231 -16 -15 -32 -42 -36 -60 -3 -18 -17 -52 -29 -77 -12 -25 -28 -63 -35 -85
-6 -22 -37 -103 -67 -180 -30 -77 -68 -176 -85 -220 -16 -44 -37 -91 -46 -105
-9 -14 -22 -38 -28 -54 l-10 -29 -264 -4 c-146 -2 -266 -6 -269 -9 -2 -2 122
-4 277 -4 l282 0 0 32 c0 18 9 41 19 52 11 12 44 86 74 166 30 80 74 192 97
250 23 58 43 112 44 120 1 8 14 41 29 72 15 31 27 66 27 77 0 23 25 51 46 51
8 0 14 7 14 16 0 15 111 379 148 484 36 102 102 241 143 301 72 107 184 159
340 159 90 0 109 -5 109 -30 0 -10 3 -26 6 -35 5 -13 9 -14 15 -4 4 7 3 21 -2
30 -6 12 -5 22 6 32 12 13 10 15 -18 21 -73 15 -183 15 -242 1z"/>
<path d="M1710 2370 c0 -6 7 -10 15 -10 8 0 15 2 15 4 0 2 -7 6 -15 10 -8 3
-15 1 -15 -4z"/>
<path d="M3605 2373 c-85 -11 -137 -25 -127 -35 6 -6 35 -6 85 2 151 25 263
-6 350 -93 46 -48 128 -196 174 -315 32 -85 121 -384 130 -436 4 -26 12 -40
25 -44 10 -2 21 -15 24 -28 3 -13 13 -24 20 -24 12 0 11 5 -3 28 -10 15 -23
32 -30 37 -7 6 -38 98 -68 205 -147 510 -268 682 -495 702 -30 3 -68 4 -85 1z"/>
<path d="M3195 2350 c3 -5 13 -10 21 -10 8 0 12 5 9 10 -3 6 -13 10 -21 10 -8
0 -12 -4 -9 -10z"/>
<path d="M2602 2320 c0 -14 2 -19 5 -12 2 6 2 18 0 25 -3 6 -5 1 -5 -13z"/>
<path d="M2887 2321 c-45 -29 -45 -35 1 -12 23 12 42 24 42 26 0 9 -14 4 -43
-14z"/>
<path d="M2396 2323 c-11 -11 -6 -23 8 -23 8 0 17 4 20 9 7 10 -19 23 -28 14z"/>
<path d="M2700 2316 c0 -9 7 -16 16 -16 17 0 14 22 -4 28 -7 2 -12 -3 -12 -12z"/>
<path d="M3480 2305 c-6 -8 -10 -20 -7 -27 3 -8 6 -6 6 5 1 10 6 15 11 12 6
-3 10 1 10 9 0 20 -4 20 -20 1z"/>
<path d="M3007 2267 l-17 -32 20 24 c17 20 26 41 18 41 -2 0 -11 -15 -21 -33z"/>
<path d="M2101 2285 c0 -5 8 -37 19 -70 11 -33 17 -44 13 -25 -6 38 -31 111
-32 95z"/>
<path d="M2798 2273 c7 -3 16 -2 19 1 4 3 -2 6 -13 5 -11 0 -14 -3 -6 -6z"/>
<path d="M2940 2259 c0 -5 5 -7 10 -4 6 3 10 8 10 11 0 2 -4 4 -10 4 -5 0 -10
-5 -10 -11z"/>
<path d="M1679 2222 c-6 -18 -14 -32 -18 -32 -4 0 -7 -9 -7 -19 0 -15 4 -17
13 -10 15 13 37 78 29 86 -3 4 -11 -8 -17 -25z"/>
<path d="M1727 2223 c-10 -9 -8 -66 3 -83 6 -10 9 2 8 38 -1 28 -2 52 -3 52
-1 0 -5 -3 -8 -7z"/>
<path d="M2245 2220 c3 -5 11 -10 16 -10 6 0 7 5 4 10 -3 6 -11 10 -16 10 -6
0 -7 -4 -4 -10z"/>
<path d="M3224 2215 c-4 -9 0 -24 10 -33 15 -15 16 -14 16 10 0 32 -17 46 -26
23z"/>
<path d="M2490 2206 c0 -9 7 -16 16 -16 17 0 14 22 -4 28 -7 2 -12 -3 -12 -12z"/>
<path d="M2595 2210 c-4 -6 -3 -16 3 -22 6 -6 12 -6 17 2 4 6 3 16 -3 22 -6 6
-12 6 -17 -2z"/>
<path d="M3180 2206 c0 -8 4 -17 9 -20 5 -4 7 3 4 14 -6 23 -13 26 -13 6z"/>
<path d="M2960 2196 c0 -9 5 -16 10 -16 6 0 10 4 10 9 0 6 -4 13 -10 16 -5 3
-10 -1 -10 -9z"/>
<path d="M3277 2204 c-3 -3 3 -25 13 -48 11 -23 22 -62 26 -86 5 -34 21 -63
64 -115 89 -111 132 -172 183 -264 54 -96 54 -80 1 30 -30 62 -151 235 -205
293 -10 10 -23 43 -29 72 -6 30 -16 56 -21 60 -5 3 -7 14 -4 23 5 18 -17 46
-28 35z"/>
<path d="M2895 2159 c-11 -17 1 -21 15 -4 8 9 8 15 2 15 -6 0 -14 -5 -17 -11z"/>
<path d="M1685 2151 c-3 -5 -1 -12 5 -16 5 -3 10 1 10 9 0 18 -6 21 -15 7z"/>
<path d="M2387 2136 c-9 -7 -17 -16 -17 -20 0 -11 27 -6 39 8 16 19 0 27 -22
12z"/>
<path d="M2710 2130 c12 -22 18 -24 40 -10 14 9 13 11 -9 14 -5 0 -13 4 -17 9
-15 15 -24 6 -14 -13z"/>
<path d="M1877 2095 c-10 -21 -16 -40 -13 -42 8 -8 38 46 34 63 -2 11 -9 5
-21 -21z"/>
<path d="M1938 2101 c-5 -32 5 -42 16 -15 3 9 2 23 -3 31 -6 12 -9 8 -13 -16z"/>
<path d="M2805 2105 c-39 -17 -21 -18 25 0 19 7 28 14 20 14 -8 0 -28 -6 -45
-14z"/>
<path d="M1809 2088 c-7 -12 -20 -29 -31 -36 -10 -7 -18 -18 -18 -23 0 -13
-67 -116 -97 -148 -12 -13 -34 -47 -49 -75 -15 -28 -31 -53 -34 -56 -11 -8
-50 -88 -50 -102 0 -7 13 10 28 37 30 52 77 122 180 265 63 88 98 148 89 157
-3 2 -11 -6 -18 -19z"/>
<path d="M2238 2103 c7 -3 16 -2 19 1 4 3 -2 6 -13 5 -11 0 -14 -3 -6 -6z"/>
<path d="M2948 2103 c12 -2 32 -2 45 0 12 2 2 4 -23 4 -25 0 -35 -2 -22 -4z"/>
<path d="M2015 2053 c16 -39 25 -52 25 -38 0 18 -24 75 -32 75 -5 0 -1 -17 7
-37z"/>
<path d="M2315 2075 c17 -8 37 -14 45 -14 8 0 2 7 -15 14 -16 8 -37 14 -45 14
-8 0 -1 -7 15 -14z"/>
<path d="M2517 2083 c-14 -13 -6 -53 12 -62 23 -13 81 5 81 24 0 33 -13 45
-49 45 -21 0 -41 -3 -44 -7z m68 -33 c0 -10 -12 -16 -32 -18 -24 -2 -33 1 -33
12 0 8 6 17 13 20 22 9 52 1 52 -14z"/>
<path d="M2740 2080 c0 -5 7 -7 15 -4 8 4 15 8 15 10 0 2 -7 4 -15 4 -8 0 -15
-4 -15 -10z"/>
<path d="M3070 2084 c0 -8 71 -36 77 -30 3 3 -12 12 -32 20 -41 18 -45 18 -45
10z"/>
<path d="M1635 2059 c-4 -6 -5 -12 -2 -15 2 -3 7 2 10 11 7 17 1 20 -8 4z"/>
<path d="M3229 2049 c13 -11 26 -17 29 -14 8 8 -20 35 -37 35 -12 -1 -11 -5 8
-21z"/>
<path d="M1926 2051 c-4 -7 -5 -15 -2 -18 9 -9 19 4 14 18 -4 11 -6 11 -12 0z"/>
<path d="M3280 2041 c0 -12 5 -21 10 -21 6 0 10 6 10 14 0 8 -4 18 -10 21 -5
3 -10 -3 -10 -14z"/>
<path d="M1830 2035 c-8 -9 -8 -15 -2 -15 12 0 26 19 19 26 -2 2 -10 -2 -17
-11z"/>
<path d="M2150 2031 c0 -11 4 -22 9 -25 4 -3 6 6 3 19 -5 30 -12 33 -12 6z"/>
<path d="M3170 2035 c0 -8 7 -15 15 -15 9 0 12 6 9 15 -4 8 -10 15 -15 15 -5
0 -9 -7 -9 -15z"/>
<path d="M2057 2010 c-6 -24 16 -80 32 -80 8 0 3 22 -19 85 -6 18 -7 17 -13
-5z"/>
<path d="M2105 1998 c3 -18 8 -48 11 -66 4 -18 22 -48 41 -67 39 -39 70 -49
35 -12 -12 13 -19 26 -16 29 3 4 1 15 -6 25 -10 16 -10 15 -4 -6 4 -17 2 -22
-7 -19 -15 5 -31 56 -25 81 2 9 0 15 -5 11 -5 -3 -9 9 -9 25 0 17 -5 31 -10
31 -6 0 -8 -14 -5 -32z"/>
<path d="M1966 2012 c-4 -7 -3 -19 2 -28 12 -21 22 -5 12 20 -4 13 -9 16 -14
8z"/>
<path d="M2974 2011 c4 -6 16 -9 27 -6 28 9 118 -15 159 -42 19 -13 39 -23 45
-23 6 0 21 -13 35 -30 14 -16 29 -30 34 -30 22 0 -69 79 -120 105 -59 30 -194
49 -180 26z"/>
<path d="M1840 1994 c0 -8 5 -12 10 -9 6 3 10 10 10 16 0 5 -4 9 -10 9 -5 0
-10 -7 -10 -16z"/>
<path d="M1897 1981 c-21 -36 -21 -48 -2 -48 10 0 15 8 13 21 -1 12 1 27 6 34
4 7 6 15 4 17 -2 3 -12 -9 -21 -24z"/>
<path d="M2000 2004 c0 -14 29 -84 34 -84 6 0 -10 55 -23 77 -6 10 -11 13 -11
7z"/>
<path d="M2315 1984 c22 -16 35 -18 35 -5 0 5 -12 11 -27 14 -26 5 -26 4 -8
-9z"/>
<path d="M2240 1980 c0 -5 5 -10 11 -10 5 0 7 5 4 10 -3 6 -8 10 -11 10 -2 0
-4 -4 -4 -10z"/>
<path d="M3245 1970 c20 -22 31 -20 22 5 -4 8 -14 15 -23 15 -16 0 -16 -2 1
-20z"/>
<path d="M1609 1963 c-13 -16 -12 -17 4 -4 9 7 17 15 17 17 0 8 -8 3 -21 -13z"/>
<path d="M1942 1955 c0 -16 2 -22 5 -12 2 9 2 23 0 30 -3 6 -5 -1 -5 -18z"/>
<path d="M2194 1955 c-1 -14 2 -22 7 -19 5 2 15 -10 23 -28 8 -18 15 -27 15
-20 1 11 -36 92 -42 92 -1 0 -3 -11 -3 -25z"/>
<path d="M2360 1971 c0 -9 30 -24 36 -18 2 1 -6 8 -16 15 -11 7 -20 8 -20 3z"/>
<path d="M2550 1961 c0 -12 5 -21 10 -21 6 0 10 6 10 14 0 8 -4 18 -10 21 -5
3 -10 -3 -10 -14z"/>
<path d="M1990 1941 c0 -5 5 -13 10 -16 6 -3 10 -2 10 4 0 5 -4 13 -10 16 -5
3 -10 2 -10 -4z"/>
<path d="M2419 1937 c4 -4 18 -9 31 -12 12 -2 24 -6 25 -7 2 -2 6 -61 9 -133
12 -261 19 -335 29 -342 7 -4 8 21 4 78 -4 46 -10 159 -14 251 l-6 166 -43 4
c-24 2 -40 0 -35 -5z"/>
<path d="M2608 1653 c-2 -159 0 -294 3 -302 11 -24 19 121 19 345 0 158 3 223
12 232 9 9 7 12 -9 12 -22 0 -22 -1 -25 -287z"/>
<path d="M1854 1905 c-9 -21 -2 -26 13 -10 8 9 9 16 3 20 -6 3 -13 -1 -16 -10z"/>
<path d="M2550 1905 c-5 -254 5 -573 17 -561 9 9 2 561 -7 570 -7 7 -10 3 -10
-9z"/>
<path d="M2067 1893 c4 -10 13 -22 20 -26 7 -5 10 -13 7 -19 -4 -6 -3 -8 3 -5
6 4 16 0 23 -8 7 -8 19 -15 27 -15 8 0 11 -5 7 -12 -4 -7 -4 -10 1 -6 4 4 17
3 29 -3 14 -7 11 -2 -9 16 -16 15 -46 42 -67 61 -41 38 -50 42 -41 17z"/>
<path d="M1815 1835 c-10 -19 -15 -39 -11 -42 3 -3 6 1 6 10 0 10 4 17 9 17
11 0 25 39 18 47 -3 2 -13 -12 -22 -32z"/>
<path d="M3280 1864 c0 -13 18 -39 24 -34 2 3 -2 14 -10 24 -8 11 -14 16 -14
10z"/>
<path d="M3306 1805 c4 -8 10 -15 15 -15 4 0 6 7 3 15 -4 8 -10 15 -15 15 -4
0 -6 -7 -3 -15z"/>
<path d="M1783 1763 c-4 -9 -7 -34 -7 -56 l-1 -39 177 -132 c97 -72 233 -177
302 -233 68 -57 127 -103 130 -103 8 0 -85 90 -121 117 -15 12 -41 33 -58 48
-32 29 -140 110 -193 147 -19 13 -44 32 -57 43 -59 51 -72 61 -100 79 -57 36
-68 54 -62 102 5 46 1 56 -10 27z"/>
<path d="M3331 1745 c6 -20 8 -44 4 -54 -4 -15 -60 -56 -156 -116 -55 -34
-220 -161 -314 -241 -22 -19 -51 -43 -64 -54 -13 -11 -20 -20 -15 -20 5 0 77
53 159 117 83 64 200 149 260 189 159 106 161 108 147 148 -7 18 -12 40 -12
49 0 9 -4 17 -9 17 -6 0 -5 -14 0 -35z"/>
<path d="M1602 1604 c-75 -81 -136 -189 -147 -259 -6 -40 -6 -40 13 10 38 102
87 180 166 263 27 29 47 55 44 58 -3 2 -37 -30 -76 -72z"/>
<path d="M3430 1676 c0 -3 29 -35 65 -72 47 -48 77 -91 109 -158 25 -50 48
-100 51 -110 11 -36 14 -10 4 30 -20 74 -74 168 -133 232 -53 57 -96 91 -96
78z"/>
<path d="M1812 1495 c-29 -30 -48 -55 -43 -55 6 0 12 4 16 9 3 6 18 6 37 0 29
-8 31 -7 16 7 -15 15 -14 19 10 45 17 20 29 26 37 19 7 -5 16 -6 20 -2 5 4 6
2 2 -3 -3 -6 -2 -17 4 -25 6 -11 9 -12 9 -2 0 9 15 4 45 -14 25 -14 45 -22 45
-17 0 9 -125 93 -138 93 -4 0 -32 -25 -60 -55z"/>
<path d="M3203 1524 c-24 -14 -43 -32 -43 -40 0 -20 10 -18 53 11 25 18 37 21
37 12 0 -21 43 -57 58 -48 10 6 3 19 -25 49 l-38 41 -42 -25z"/>
<path d="M4053 1420 c-35 -14 -27 -20 10 -8 17 6 34 13 36 14 8 7 -24 3 -46
-6z"/>
<path d="M4150 1421 c0 -6 5 -13 10 -16 6 -3 10 1 10 9 0 9 -4 16 -10 16 -5 0
-10 -4 -10 -9z"/>
<path d="M4162 1379 c2 -6 8 -10 13 -10 5 0 11 4 13 10 2 6 -4 11 -13 11 -9 0
-15 -5 -13 -11z"/>
<path d="M4284 1370 c0 -11 8 -27 16 -37 19 -23 42 -73 45 -98 2 -11 28 -87
59 -170 32 -82 71 -188 87 -235 17 -47 44 -113 61 -148 17 -35 31 -74 32 -88
l1 -24 269 0 c148 0 267 3 264 6 -3 3 -119 5 -258 6 -180 0 -252 3 -255 12
-12 43 -39 108 -49 119 -7 6 -13 15 -14 19 -3 11 -13 39 -22 68 -17 49 -121
336 -141 385 -10 28 -19 55 -19 60 1 14 -64 144 -71 145 -4 0 -6 -9 -5 -20z"/>
<path d="M4015 1353 c-44 -24 -16 -27 30 -4 27 14 33 20 20 20 -11 0 -33 -7
-50 -16z"/>
<path d="M950 1338 c0 -7 -3 -24 -6 -38 -5 -17 -4 -22 4 -15 16 15 26 65 13
65 -6 0 -11 -6 -11 -12z"/>
<path d="M4170 1340 c0 -5 4 -10 9 -10 6 0 13 5 16 10 3 6 -1 10 -9 10 -9 0
-16 -4 -16 -10z"/>
<path d="M3900 1330 c-13 -8 -13 -10 2 -10 9 0 20 5 23 10 8 13 -5 13 -25 0z"/>
<path d="M1000 1316 c0 -6 103 -36 108 -32 3 4 -86 36 -100 36 -4 0 -8 -2 -8
-4z"/>
<path d="M4190 1310 c0 -28 12 -60 22 -60 6 0 7 11 3 28 -7 31 -25 54 -25 32z"/>
<path d="M4085 1291 c-22 -11 -35 -20 -30 -20 13 -1 83 24 91 32 14 13 -22 6
-61 -12z"/>
<path d="M1140 1265 c14 -8 30 -14 35 -14 6 0 -1 6 -15 14 -14 8 -29 14 -35
14 -5 0 1 -6 15 -14z"/>
<path d="M3390 1256 c0 -14 5 -26 10 -26 6 0 10 9 10 19 0 11 -4 23 -10 26 -6
4 -10 -5 -10 -19z"/>
<path d="M932 1244 c-5 -11 -12 -32 -16 -49 -4 -16 -12 -36 -18 -43 -6 -7 -21
-41 -33 -75 -35 -97 -92 -243 -111 -282 -12 -27 -22 -35 -42 -35 -30 0 -27 -5
11 -14 15 -3 26 -3 25 1 -1 5 3 18 10 30 7 12 25 58 42 103 16 44 43 106 58
138 16 32 32 74 36 94 4 20 14 39 22 42 9 3 14 12 11 19 -2 6 4 23 14 38 11
15 14 30 9 38 -6 11 -10 10 -18 -5z"/>
<path d="M4138 1254 c-10 -9 4 -44 16 -44 19 0 24 9 19 31 -5 18 -23 25 -35
13z"/>
<path d="M1250 1226 c0 -2 7 -7 16 -10 8 -3 12 -2 9 4 -6 10 -25 14 -25 6z"/>
<path d="M1690 1215 c0 -8 5 -15 10 -15 6 0 10 7 10 15 0 8 -4 15 -10 15 -5 0
-10 -7 -10 -15z"/>
<path d="M4210 1221 c0 -6 5 -13 10 -16 6 -3 10 -24 10 -46 0 -21 5 -39 10
-39 13 0 13 39 -1 79 -10 29 -29 43 -29 22z"/>
<path d="M2420 1175 c0 -6 62 -45 72 -45 4 0 5 7 2 15 -4 8 -10 12 -15 9 -5
-3 -12 2 -15 10 -6 14 -44 24 -44 11z"/>
<path d="M2646 1145 c-22 -19 -34 -35 -28 -35 15 0 91 69 77 70 -5 0 -28 -16
-49 -35z"/>
<path d="M2533 1163 c-24 -9 -13 -23 17 -23 20 0 30 5 30 15 0 15 -22 19 -47
8z"/>
<path d="M944 1137 c-8 -21 2 -35 16 -21 5 5 6 15 0 24 -8 12 -10 12 -16 -3z"/>
<path d="M3676 1102 c-17 -129 -67 -224 -143 -272 -26 -16 -43 -30 -38 -30 6
0 20 7 32 15 12 8 24 12 26 7 8 -12 -10 -95 -38 -175 -14 -40 -25 -77 -25 -80
0 -4 113 -7 250 -7 241 0 250 1 250 19 0 11 -5 23 -11 27 -7 4 -61 107 -121
230 -60 122 -114 224 -120 226 -6 2 -16 22 -22 43 -16 56 -32 54 -40 -3z m80
-102 c53 -112 187 -376 195 -384 30 -31 9 -35 -211 -36 -121 0 -220 2 -220 6
0 13 24 89 31 99 8 11 17 59 23 113 1 18 13 44 26 59 35 41 80 138 87 189 l6
47 24 -29 c12 -16 30 -45 39 -64z"/>
<path d="M4260 1108 c0 -21 102 -269 108 -263 3 2 -16 54 -42 114 -25 61 -46
116 -46 123 0 7 -5 20 -10 28 -8 13 -10 13 -10 -2z"/>
<path d="M1403 1047 c-17 -34 -66 -136 -109 -227 -43 -91 -91 -186 -106 -212
l-27 -48 229 0 c127 0 230 3 230 7 0 4 -9 34 -19 67 -39 124 -44 145 -38 167
5 17 -3 33 -32 64 -38 42 -81 143 -81 194 0 55 -16 51 -47 -12z m42 -54 c19
-69 52 -133 77 -151 10 -8 18 -26 18 -43 0 -17 11 -70 25 -119 14 -49 25 -90
25 -92 0 -2 -87 -3 -194 -3 l-194 0 58 115 c58 116 80 163 120 257 13 30 27
50 33 46 6 -3 7 -1 3 6 -7 11 -2 41 8 41 3 0 12 -26 21 -57z"/>
<path d="M2499 1077 c-47 -32 -64 -70 -49 -108 16 -36 77 -89 105 -89 27 0 73
32 96 66 30 46 25 87 -16 123 -44 38 -88 41 -136 8z m131 -27 c25 -26 27 -35
20 -62 -16 -53 -51 -88 -90 -88 -28 1 -57 22 -83 62 -23 37 -22 50 11 80 52
48 102 51 142 8z"/>
<path d="M3381 1054 c0 -11 3 -14 6 -6 3 7 2 16 -1 19 -3 4 -6 -2 -5 -13z"/>
<path d="M2416 1038 c-18 -25 -21 -74 -6 -83 6 -4 10 9 10 32 0 22 5 44 12 51
6 6 9 14 6 17 -3 4 -13 -4 -22 -17z"/>
<path d="M3371 1014 c0 -11 3 -14 6 -6 3 7 2 16 -1 19 -3 4 -6 -2 -5 -13z"/>
<path d="M1710 980 c4 -22 10 -43 13 -47 9 -8 -4 71 -13 80 -4 5 -4 -10 0 -33z"/>
<path d="M2355 920 c-3 -6 1 -7 9 -4 18 7 21 14 7 14 -6 0 -13 -4 -16 -10z"/>
<path d="M1730 911 c0 -6 4 -13 10 -16 6 -3 7 1 4 9 -7 18 -14 21 -14 7z"/>
<path d="M2293 877 c-24 -17 -41 -32 -39 -35 3 -2 22 9 43 24 21 16 40 29 42
31 2 2 2 5 0 7 -2 2 -23 -10 -46 -27z"/>
<path d="M2830 863 c25 -32 40 -41 40 -25 0 9 -25 33 -50 48 -8 4 -4 -6 10
-23z"/>
<path d="M2541 831 c-10 -6 -10 -10 -1 -16 14 -9 60 2 60 15 0 12 -40 13 -59
1z"/>
<path d="M4370 820 c0 -5 6 -10 14 -10 8 0 18 5 21 10 3 6 -3 10 -14 10 -12 0
-21 -4 -21 -10z"/>
<path d="M4280 789 c-19 -11 -26 -17 -15 -13 11 4 32 9 48 12 15 2 27 8 27 13
0 14 -22 10 -60 -12z"/>
<path d="M4323 770 c-62 -28 -87 -49 -38 -30 37 14 105 50 105 55 0 6 5 8 -67
-25z"/>
<path d="M773 729 c30 -18 77 -29 77 -18 0 12 -44 29 -73 29 -20 -1 -21 -1 -4
-11z"/>
<path d="M4398 728 c9 -9 15 -9 24 0 9 9 7 12 -12 12 -19 0 -21 -3 -12 -12z"/>
<path d="M2308 683 c-82 -51 -108 -79 -35 -39 107 60 123 66 169 66 28 0 52
-6 62 -15 8 -8 27 -15 42 -15 41 0 18 14 -52 34 -87 23 -101 21 -186 -31z"/>
<path d="M2656 715 c-11 -8 -16 -18 -13 -22 4 -4 13 -1 19 5 7 7 20 12 30 12
40 0 169 -103 152 -120 -5 -5 -66 -10 -136 -12 -69 -1 -124 -6 -122 -10 3 -5
83 -8 177 -8 154 1 169 2 142 14 -16 8 -52 38 -80 66 -80 86 -128 106 -169 75z"/>
<path d="M4328 703 c7 -3 16 -2 19 1 4 3 -2 6 -13 5 -11 0 -14 -3 -6 -6z"/>
<path d="M4347 685 c-24 -12 -64 -45 -55 -45 2 0 25 11 52 25 27 13 53 22 59
18 6 -3 7 -1 3 5 -9 16 -25 15 -59 -3z"/>
<path d="M800 683 c8 -3 27 -12 43 -20 15 -7 27 -11 27 -9 0 8 -58 36 -72 35
-9 0 -8 -2 2 -6z"/>
<path d="M704 661 c4 -6 15 -11 24 -11 9 0 41 -14 71 -30 58 -32 89 -40 56
-14 -50 39 -167 81 -151 55z"/>
<path d="M2909 616 c14 -15 30 -26 38 -26 17 0 -16 33 -43 44 -15 6 -15 3 5
-18z"/>
<path d="M4378 633 c-37 -10 -16 -18 46 -18 39 0 62 4 60 10 -4 11 -77 16
-106 8z"/>
<path d="M650 613 c0 -5 27 -15 60 -21 33 -7 58 -17 55 -22 -4 -6 17 -10 52
-9 l58 1 -45 9 c-24 5 -59 16 -78 25 -41 19 -102 30 -102 17z"/>
<path d="M4336 591 c-6 -10 27 -21 64 -21 14 0 20 4 15 9 -15 13 -73 22 -79
12z"/>
<path d="M2154 580 c-12 -5 -132 -12 -268 -16 -136 -4 -244 -9 -242 -12 8 -7
926 10 922 17 -3 4 -85 8 -183 9 -98 2 -185 4 -193 7 -8 2 -25 0 -36 -5z"/>
<path d="M618 563 c7 -3 16 -2 19 1 4 3 -2 6 -13 5 -11 0 -14 -3 -6 -6z"/>
<path d="M1093 563 c9 -2 25 -2 35 0 9 3 1 5 -18 5 -19 0 -27 -2 -17 -5z"/>
<path d="M4035 559 c32 -10 115 -9 115 0 0 4 -33 7 -72 7 -57 1 -67 0 -43 -7z"/>
<path d="M4208 563 c29 -2 74 -2 100 0 26 2 2 3 -53 3 -55 0 -76 -1 -47 -3z"/>
<path d="M4538 563 c7 -3 16 -2 19 1 4 3 -2 6 -13 5 -11 0 -14 -3 -6 -6z"/>
<path d="M3133 553 c64 -2 170 -2 235 0 64 1 11 3 -118 3 -129 0 -182 -2 -117
-3z"/>
<path d="M2022 480 c-55 -13 -49 -20 18 -20 45 0 69 -5 82 -17 25 -22 37 -7
12 17 -23 24 -67 32 -112 20z"/>
<path d="M2377 484 c-13 -14 6 -24 44 -24 40 0 52 13 23 24 -21 8 -59 8 -67 0z"/>
<path d="M2687 484 c-18 -19 -5 -34 29 -34 28 0 35 3 32 18 -3 17 -48 29 -61
16z"/>
<path d="M3049 469 c-11 -11 -19 -23 -16 -25 6 -6 76 29 77 39 0 15 -41 6 -61
-14z"/>
<path d="M1700 470 l-185 -5 203 -5 c111 -3 207 -3 212 -2 21 8 8 22 -17 20
-16 -1 -111 -5 -213 -8z"/>
<path d="M758 463 c6 -2 18 -2 25 0 6 3 1 5 -13 5 -14 0 -19 -2 -12 -5z"/>
<path d="M1273 463 c9 -2 23 -2 30 0 6 3 -1 5 -18 5 -16 0 -22 -2 -12 -5z"/>
<path d="M1358 463 c23 -2 59 -2 80 0 20 2 1 4 -43 4 -44 0 -61 -2 -37 -4z"/>
<path d="M3120 461 c0 -7 31 -11 92 -11 50 0 88 3 85 7 -12 12 -177 16 -177 4z"/>
<path d="M3333 453 c15 -2 37 -2 50 0 12 2 0 4 -28 4 -27 0 -38 -2 -22 -4z"/>
<path d="M3478 453 c7 -3 16 -2 19 1 4 3 -2 6 -13 5 -11 0 -14 -3 -6 -6z"/>
<path d="M2396 374 c-9 -8 -16 -27 -17 -42 0 -15 -2 -42 -5 -59 -3 -28 -1 -33
17 -33 20 0 21 4 17 45 -9 73 -1 77 147 80 82 2 131 7 133 14 3 8 -40 11 -136
11 -114 0 -143 -3 -156 -16z"/>
<path d="M2716 339 c4 -26 2 -49 -6 -65 -15 -26 -9 -40 13 -31 19 7 31 90 17
117 -18 34 -31 23 -24 -21z"/>
<path d="M2450 298 l0 -33 87 3 c121 4 133 7 133 37 0 14 -4 25 -10 25 -5 0
-7 -6 -4 -14 4 -10 -8 -15 -48 -19 -124 -12 -159 -8 -137 19 9 11 8 14 -5 14
-11 0 -16 -9 -16 -32z"/>
<path d="M2513 323 c15 -2 39 -2 55 0 15 2 2 4 -28 4 -30 0 -43 -2 -27 -4z"/>
<path d="M2557 223 c-4 -3 -7 -19 -7 -35 0 -21 5 -28 20 -28 21 0 24 10 14 48
-6 22 -15 27 -27 15z"/>
</g>
</svg>
