<?xml version="1.0" standalone="no"?>
<!DOCTYPE svg PUBLIC "-//W3C//DTD SVG 20010904//EN"
 "http://www.w3.org/TR/2001/REC-SVG-20010904/DTD/svg10.dtd">
<svg version="1.0" xmlns="http://www.w3.org/2000/svg"
 width="512.000000pt" height="512.000000pt" viewBox="0 0 512.000000 512.000000"
 preserveAspectRatio="xMidYMid meet">
<metadata>
Created by potrace 1.16, written by Peter Selinger 2001-2019
</metadata>
<g transform="translate(0.000000,512.000000) scale(0.100000,-0.100000)"
fill="#000000" stroke="none">
<path d="M2295 4765 c-367 -59 -680 -194 -977 -422 -194 -148 -403 -377 -517
-566 -331 -543 -405 -1260 -192 -1855 70 -196 180 -395 324 -586 72 -97 311
-336 387 -389 178 -123 249 -166 375 -227 151 -74 307 -126 486 -162 101 -20
142 -23 369 -23 286 1 368 11 568 72 411 124 787 377 1061 712 57 70 182 256
226 336 95 172 172 399 216 635 26 143 37 486 20 637 -29 253 -91 465 -203
692 -144 292 -334 527 -576 714 -297 230 -580 359 -918 418 -159 27 -517 35
-649 14z m506 -16 c450 -46 863 -241 1202 -569 349 -336 566 -779 618 -1261
17 -154 6 -475 -20 -623 -67 -378 -223 -707 -475 -1005 -306 -362 -772 -634
-1226 -716 -126 -23 -444 -31 -581 -16 -445 51 -855 255 -1189 590 -269 270
-441 559 -545 917 -90 309 -99 710 -23 1064 129 610 552 1137 1143 1427 288
141 532 200 836 202 86 1 203 -4 260 -10z"/>
<path d="M1823 4239 c-44 -13 -41 -17 11 -15 30 1 42 5 39 14 -6 14 -6 14 -50
1z"/>
<path d="M1880 4198 c0 -9 5 -20 10 -23 13 -8 13 5 0 25 -8 13 -10 13 -10 -2z"/>
<path d="M1906 4147 c3 -10 9 -15 12 -12 3 3 0 11 -7 18 -10 9 -11 8 -5 -6z"/>
<path d="M1931 4093 c16 -47 68 -149 69 -135 0 12 -69 162 -76 162 -1 0 1 -12
7 -27z"/>
<path d="M2395 3961 c-22 -4 30 -5 115 -3 188 6 301 -8 435 -52 162 -54 255
-104 352 -191 36 -32 60 -49 54 -37 -7 13 -37 42 -67 66 -131 103 -310 180
-488 211 -90 15 -322 19 -401 6z"/>
<path d="M1981 3933 c7 -12 15 -20 18 -17 3 2 -3 12 -13 22 -17 16 -18 16 -5
-5z"/>
<path d="M2240 3926 c-41 -12 -88 -30 -105 -39 -38 -20 -24 -22 15 -2 17 9 69
26 117 40 49 13 79 24 68 24 -11 0 -54 -10 -95 -23z"/>
<path d="M2415 3940 c-168 -22 -347 -94 -473 -188 -18 -14 -35 -22 -38 -19 -7
7 172 127 189 127 6 0 8 3 4 6 -16 17 -205 -117 -287 -203 -30 -31 -43 -47
-27 -34 15 14 27 20 27 14 0 -6 -7 -16 -16 -24 -9 -7 -29 -32 -45 -56 -17 -24
-34 -41 -39 -38 -5 3 -12 0 -16 -6 -4 -8 -3 -9 4 -5 18 11 16 5 -33 -96 -44
-90 -87 -214 -100 -291 -5 -31 -13 -41 -46 -58 -98 -49 -179 -157 -221 -292
-19 -60 -22 -94 -22 -207 0 -144 15 -226 60 -329 13 -29 21 -58 17 -64 -3 -6
-1 -7 5 -3 7 4 13 2 13 -3 1 -6 2 -15 3 -20 0 -5 5 -13 10 -18 5 -5 6 -2 1 7
-6 11 -5 12 4 4 7 -6 13 -19 15 -28 1 -9 5 -15 8 -14 9 5 38 -24 33 -32 -5 -7
25 -38 32 -32 10 7 23 0 17 -10 -4 -6 -3 -8 3 -5 6 4 32 -3 59 -14 38 -17 61
-20 114 -17 97 7 146 37 187 113 33 60 45 62 19 2 -31 -75 -104 -118 -216
-127 l-75 -7 66 -1 c79 -2 143 18 187 59 49 46 63 72 61 115 -1 22 2 73 6 115
l8 76 -32 0 c-28 0 -31 -3 -31 -30 0 -65 -123 -138 -204 -122 -73 16 -147 81
-174 155 -17 44 -24 124 -13 150 8 21 10 16 10 -32 2 -177 141 -299 275 -243
44 19 48 28 5 13 -16 -6 -56 -8 -89 -6 -110 8 -168 82 -180 233 -4 44 -3 90 1
102 15 41 -8 33 -27 -10 -25 -54 -25 -156 -1 -216 37 -91 109 -153 193 -167
88 -14 207 49 221 117 10 52 20 31 12 -28 -7 -59 -31 -129 -57 -171 -42 -65
-193 -90 -277 -45 -129 69 -224 238 -245 435 -16 162 5 296 66 408 44 80 82
121 155 166 l56 35 26 104 c28 113 106 289 158 358 55 72 155 165 229 212 208
135 417 186 682 165 249 -19 461 -104 617 -246 30 -27 87 -65 127 -85 104 -51
173 -111 234 -203 116 -174 157 -319 181 -641 29 -398 -46 -694 -235 -931 -84
-105 -169 -174 -284 -232 -75 -37 -106 -47 -158 -50 -97 -6 -84 17 51 89 116
62 171 102 248 177 120 118 205 268 253 448 21 82 27 128 31 269 2 94 0 206
-5 250 -9 79 -8 80 21 120 27 38 29 44 24 115 -7 120 -66 236 -173 345 -80 81
-141 109 -234 110 -59 0 -84 -5 -119 -23 -56 -29 -71 -24 -71 28 0 51 -30 85
-67 75 -15 -3 -45 -19 -67 -34 -57 -40 -292 -267 -285 -275 4 -4 61 44 127
107 66 63 146 134 177 158 72 54 89 48 93 -34 3 -51 6 -58 27 -63 14 -3 33 -3
42 1 26 11 91 19 148 19 140 -1 311 -182 359 -381 8 -34 15 -47 15 -32 1 15
-6 46 -14 69 -19 54 -19 63 1 27 18 -34 29 -124 20 -162 -4 -15 -18 -37 -32
-50 l-26 -24 13 -118 c14 -141 6 -362 -16 -448 -27 -103 -46 -155 -55 -150 -4
3 -6 -3 -3 -14 5 -19 -42 -119 -72 -156 l-17 -20 6 20 c4 16 2 15 -12 -5 -77
-110 -176 -201 -290 -267 -31 -18 -52 -33 -47 -33 31 -1 179 107 249 181 42
44 76 76 76 71 0 -16 -121 -142 -175 -182 -28 -21 -92 -59 -141 -86 -111 -59
-154 -90 -154 -112 0 -15 -2 -15 -10 -2 -5 8 -10 10 -10 5 0 -6 7 -21 16 -33
13 -19 24 -22 82 -22 50 0 63 3 52 11 -11 8 -6 9 20 5 21 -4 30 -3 22 3 -10 6
-7 10 13 15 14 4 31 4 37 0 7 -5 8 -2 3 6 -6 10 -4 12 9 7 11 -5 15 -3 10 5
-5 8 -2 9 10 5 11 -5 15 -3 10 5 -5 8 -1 9 12 4 10 -4 15 -4 11 0 -4 4 26 28
66 54 39 26 106 82 147 126 41 43 78 78 82 77 8 -3 50 57 90 127 42 75 80 179
73 203 -4 15 -3 18 3 9 9 -14 19 15 42 118 12 55 11 99 -1 55 -7 -26 -7 -25
-3 10 2 22 7 112 10 200 11 300 -36 584 -127 762 -56 111 -59 137 -4 38 52
-92 74 -153 101 -280 18 -81 23 -94 18 -50 -3 33 -17 98 -31 145 -41 143 -158
339 -198 332 -13 -3 -16 1 -11 13 3 10 2 14 -5 9 -6 -3 -23 5 -37 19 -38 35
-118 84 -161 98 -20 7 -66 40 -103 74 -195 184 -565 286 -883 245z m-550 -250
c-21 -22 -44 -40 -49 -40 -6 0 8 18 29 40 21 22 44 40 49 40 6 0 -8 -18 -29
-40z m1815 -285 c0 -5 -14 6 -30 25 -16 19 -29 40 -29 45 0 6 13 -6 29 -25 17
-19 30 -39 30 -45z m-351 21 c-2 -2 -17 -6 -34 -10 -22 -5 -26 -4 -15 4 14 9
59 15 49 6z m187 -36 c24 -17 44 -34 44 -37 0 -3 -6 -1 -13 5 -6 6 -32 22 -57
36 -25 14 -39 26 -32 26 7 0 33 -14 58 -30z m119 -112 c26 -34 55 -79 66 -100
33 -65 20 -55 -22 17 -22 39 -57 87 -77 108 -20 20 -31 37 -25 37 6 0 32 -28
58 -62z m192 -1060 c-3 -8 -6 -5 -6 6 -1 11 2 17 5 13 3 -3 4 -12 1 -19z m-66
-195 c-12 -20 -14 -14 -5 12 4 9 9 14 11 11 3 -2 0 -13 -6 -23z m-219 -85 c-7
-7 -12 -8 -12 -2 0 14 12 26 19 19 2 -3 -1 -11 -7 -17z m172 -10 c-26 -50 -66
-109 -71 -104 -3 3 6 20 20 38 13 18 32 48 41 66 9 17 19 32 22 32 2 0 -3 -15
-12 -32z"/>
<path d="M2020 3904 c0 -8 -4 -13 -9 -10 -5 4 -7 -3 -4 -14 4 -16 9 -18 24 -9
15 8 17 14 9 29 -13 24 -20 25 -20 4z"/>
<path d="M3380 3655 c0 -2 27 -18 60 -35 33 -17 60 -28 60 -25 0 2 -27 18 -60
35 -33 17 -60 28 -60 25z"/>
<path d="M1665 3470 c-9 -16 -13 -30 -11 -30 3 0 12 14 21 30 9 17 13 30 11
30 -3 0 -12 -13 -21 -30z"/>
<path d="M3004 3360 c-118 -108 -198 -163 -226 -155 -14 5 -18 3 -14 -4 11
-16 52 -13 84 7 37 22 112 83 179 146 l53 49 21 -22 c25 -27 60 -41 99 -41 38
0 99 -63 141 -143 34 -66 59 -188 59 -289 l0 -66 -38 5 c-40 5 -188 -22 -209
-40 -18 -13 -16 -46 2 -53 8 -4 60 0 115 7 55 7 103 9 107 5 4 -3 -1 -22 -11
-42 -15 -33 -19 -35 -44 -28 -31 10 -121 10 -201 0 -62 -7 -82 -26 -78 -71 1
-23 8 -31 25 -33 12 -2 22 -9 22 -17 0 -7 14 -25 31 -40 26 -21 40 -25 78 -23
39 3 49 8 67 36 13 18 25 38 27 45 11 31 14 -6 7 -80 -23 -221 -104 -406 -238
-539 -78 -78 -205 -186 -240 -202 -50 -24 -106 -4 -236 85 -137 94 -228 166
-328 262 -43 40 -78 68 -78 61 0 -34 220 -221 417 -356 43 -29 71 -54 68 -62
-7 -19 55 -42 112 -42 32 0 60 8 85 23 48 29 191 158 183 165 -8 8 67 82 77
76 5 -3 7 0 6 7 -2 7 2 13 9 14 6 0 15 4 20 9 5 5 2 6 -6 1 -9 -5 -12 -3 -9 6
3 8 10 14 16 14 6 0 17 6 24 14 11 11 11 13 -1 6 -9 -5 -12 -3 -9 6 3 8 10 13
16 12 6 -2 16 7 22 20 11 21 10 21 -4 3 -9 -11 -16 -16 -16 -10 0 16 19 39 31
39 14 0 70 127 88 198 6 27 9 65 6 85 -4 28 -3 32 4 17 7 -14 9 -4 5 35 -3 30
-1 77 5 105 5 27 9 51 8 51 -1 1 -17 5 -34 9 -29 6 -33 4 -33 -15 0 -28 -26
-76 -45 -84 -49 -18 -130 37 -119 81 7 25 6 25 -19 9 -32 -22 -43 -6 -23 31
11 23 22 28 53 30 21 1 63 5 94 8 45 6 65 3 103 -13 40 -18 46 -25 41 -44 -19
-87 -24 -117 -24 -143 1 -16 7 2 14 40 7 39 20 90 29 114 9 24 13 48 9 54 -3
5 -1 7 4 4 14 -9 37 48 27 64 -4 7 -3 10 4 5 6 -3 14 4 18 16 8 26 8 248 -1
256 -3 3 -5 -45 -4 -107 1 -62 -1 -115 -5 -118 -3 -4 -6 37 -6 89 0 187 -39
309 -129 406 -42 44 -55 52 -85 52 -53 0 -86 17 -100 51 l-13 30 -89 -81z
m384 -536 c48 -13 12 -29 -90 -40 -58 -7 -116 -15 -128 -19 -18 -6 -21 -3 -18
11 5 31 174 64 236 48z m-102 -537 c-14 -45 -31 -89 -37 -97 -9 -12 -10 -11
-4 5 24 66 55 168 56 183 0 11 2 13 6 4 3 -7 -7 -50 -21 -95z m-55 -144 c-12
-20 -14 -14 -5 12 4 9 9 14 11 11 3 -2 0 -13 -6 -23z m-246 -289 c-99 -92
-153 -124 -205 -124 -25 0 -51 4 -58 9 -7 4 11 6 41 3 63 -5 73 0 192 100 44
37 82 67 85 67 3 0 -22 -25 -55 -55z"/>
<path d="M1632 3405 c-17 -37 -14 -45 4 -12 9 16 14 31 11 33 -2 2 -9 -7 -15
-21z"/>
<path d="M3250 3375 c0 -8 13 -24 30 -36 29 -22 89 -105 103 -143 4 -10 10
-16 13 -13 3 3 -6 28 -22 56 -30 56 -124 159 -124 136z"/>
<path d="M1827 3337 c-41 -15 -82 -37 -103 -58 -44 -42 -84 -118 -84 -159 l0
-30 78 6 c95 8 129 -4 214 -78 43 -38 70 -72 94 -121 37 -72 57 -87 119 -87
31 0 52 17 218 183 260 258 268 284 84 273 -174 -11 -271 -43 -432 -140 l-58
-34 -33 21 c-19 12 -34 28 -34 35 0 7 18 46 41 87 49 91 49 119 -1 122 -19 2
-66 -8 -103 -20z m133 -1 c0 -17 -44 -75 -53 -69 -6 3 -7 1 -3 -5 8 -13 -17
-67 -47 -99 -16 -19 -31 -23 -74 -23 -34 0 -52 -4 -48 -10 4 -6 -5 -10 -20
-10 -15 0 -35 -5 -46 -10 -10 -6 -19 -8 -19 -4 0 16 62 133 77 145 13 11 13 7
-3 -16 -38 -55 -37 -60 1 -17 41 47 77 69 145 88 33 9 39 13 20 14 -23 1 -23
2 -5 10 21 9 75 13 75 6z m-120 -26 c-8 -5 -19 -10 -25 -10 -5 0 -3 5 5 10 8
5 20 10 25 10 6 0 3 -5 -5 -10z m720 -63 c0 -16 -100 -130 -108 -122 -3 3 12
24 34 48 l39 42 -43 -40 c-25 -24 -40 -45 -37 -54 3 -8 -4 -25 -16 -38 -29
-30 -48 -30 -23 0 l19 22 -22 -19 c-13 -10 -20 -22 -18 -26 5 -7 -208 -222
-226 -229 -6 -1 -26 0 -45 3 -30 6 -38 15 -69 75 -39 79 -109 146 -198 191
-53 26 -55 29 -30 32 29 4 81 -18 122 -50 l24 -19 61 39 c33 21 66 36 74 33 8
-3 10 0 6 7 -5 8 -2 9 10 5 9 -4 15 -3 12 2 -7 10 117 67 164 75 31 5 29 4
-10 -10 -25 -9 -51 -18 -59 -20 -8 -2 -12 -7 -9 -9 3 -3 23 1 45 9 22 8 82 19
134 26 51 6 98 15 104 19 9 8 34 16 58 20 4 0 7 -5 7 -12z m-173 -13 c-3 -3
-12 -4 -19 -1 -8 3 -5 6 6 6 11 1 17 -2 13 -5z"/>
<path d="M1870 3210 c-11 -22 -18 -40 -15 -40 2 0 14 18 25 40 11 22 18 40 15
40 -2 0 -14 -18 -25 -40z"/>
<path d="M2055 3110 c-3 -6 1 -7 9 -4 18 7 21 14 7 14 -6 0 -13 -4 -16 -10z"/>
<path d="M2009 3079 c-23 -19 -23 -20 -2 -10 12 6 25 16 28 21 10 16 -1 12
-26 -11z"/>
<path d="M1980 3036 c0 -4 14 -24 31 -44 18 -20 42 -58 55 -86 13 -28 24 -43
24 -33 0 10 -9 34 -19 55 -21 40 -90 123 -91 108z"/>
<path d="M2329 3023 c-13 -16 -12 -17 4 -4 9 7 17 15 17 17 0 8 -8 3 -21 -13z"/>
<path d="M2289 2983 c-13 -16 -12 -17 4 -4 9 7 17 15 17 17 0 8 -8 3 -21 -13z"/>
<path d="M2186 2885 c-22 -19 -35 -35 -30 -35 6 0 25 16 44 35 43 44 36 44
-14 0z"/>
<path d="M1577 3258 c-35 -116 -39 -138 -27 -138 5 0 10 10 10 23 0 13 11 61
24 107 14 47 23 86 21 88 -2 2 -14 -34 -28 -80z"/>
<path d="M3405 3154 c3 -12 10 -42 15 -65 l9 -44 -4 48 c-3 27 -10 56 -15 65
-9 14 -10 14 -5 -4z"/>
<path d="M1466 3069 c-79 -52 -147 -150 -186 -268 -39 -117 -37 -365 5 -478
19 -52 18 -37 -2 39 -22 81 -24 318 -4 398 31 125 118 254 207 306 24 14 44
28 44 30 0 10 -20 2 -64 -27z"/>
<path d="M1564 3006 c-57 -25 -104 -123 -104 -216 0 -50 34 -167 56 -192 11
-12 14 -18 7 -15 -41 25 -2 -73 51 -126 72 -73 142 -97 289 -102 102 -3 109
-2 136 21 l29 24 12 -35 c24 -72 15 -151 -34 -293 -25 -73 -58 -159 -74 -191
-69 -138 -169 -254 -260 -304 -73 -40 -65 -19 10 23 121 69 228 232 307 465
42 127 59 233 43 275 -7 19 -10 5 -14 -65 -11 -189 -124 -461 -242 -583 -41
-43 -172 -132 -194 -132 -7 0 -12 -4 -12 -9 0 -5 23 -14 51 -20 65 -14 272
-119 326 -166 23 -19 45 -35 51 -35 5 0 17 -9 27 -20 10 -11 22 -20 27 -20 6
0 29 -18 51 -39 23 -21 96 -87 162 -146 66 -60 120 -113 120 -119 0 -11 355
-10 405 1 14 3 21 2 17 -3 -5 -5 -84 -12 -175 -15 l-167 -5 160 -2 c237 -3
259 13 238 176 -19 148 -25 158 -127 222 -49 30 -98 67 -109 83 -20 26 -21 31
-8 150 6 67 15 135 18 151 4 21 2 27 -8 24 -23 -8 -38 -114 -32 -223 7 -118
15 -131 126 -197 54 -33 65 -43 56 -54 -16 -19 -28 -18 -84 11 -27 13 -51 23
-52 21 -8 -7 73 -48 105 -53 18 -3 37 -14 42 -23 13 -25 43 -199 36 -215 -9
-24 -77 -35 -211 -35 -177 0 -193 4 -251 57 -27 25 -89 83 -139 128 -124 114
-298 236 -432 303 -62 30 -113 58 -113 62 0 3 15 14 33 25 71 42 183 179 236
289 41 85 99 253 116 334 13 60 8 148 -10 195 -9 23 -47 22 -87 -3 -41 -25
-65 -25 -161 0 -115 30 -177 61 -224 113 -50 54 -56 78 -13 47 46 -33 117 -31
169 3 62 41 85 94 86 198 0 76 -3 92 -30 144 -40 77 -89 117 -152 122 -28 2
-61 -3 -79 -11z m103 -14 c6 -4 -9 -7 -33 -7 -35 0 -49 -6 -71 -28 l-28 -29
39 26 c42 28 61 31 101 16 20 -8 24 -7 19 3 -4 6 10 -6 31 -28 56 -59 79 -116
80 -200 0 -56 -5 -79 -24 -112 -55 -95 -148 -117 -218 -51 -13 12 -23 26 -23
32 1 6 9 2 18 -10 26 -31 56 -44 101 -44 33 0 47 7 76 35 19 20 35 40 35 46 0
6 -11 -3 -25 -20 -50 -58 -126 -62 -183 -8 -13 12 -27 20 -30 18 -15 -7 -45
97 -45 159 0 120 59 208 143 209 14 0 30 -3 37 -7z m1167 -1762 c9 -30 19 -91
21 -135 l5 -80 -15 87 c-13 81 -28 145 -42 186 -4 12 -3 14 5 7 5 -5 18 -35
26 -65z"/>
<path d="M1506 2874 c-8 -21 -6 -154 2 -176 4 -10 7 30 7 87 0 58 -1 105 -1
105 -1 0 -5 -7 -8 -16z"/>
<path d="M1783 2745 c0 -38 2 -53 4 -32 2 20 2 52 0 70 -2 17 -4 1 -4 -38z"/>
<path d="M2412 2931 c-8 -5 26 -10 85 -14 97 -5 241 -40 305 -73 27 -14 29
-18 16 -30 -12 -13 -27 -10 -110 20 -93 34 -233 66 -286 66 -50 0 -7 -17 73
-30 44 -7 125 -27 180 -46 116 -40 151 -43 160 -14 9 29 -1 39 -63 67 -105 46
-322 79 -360 54z"/>
<path d="M3852 2910 c0 -19 2 -27 5 -17 2 9 2 25 0 35 -3 9 -5 1 -5 -18z"/>
<path d="M3697 2912 c-27 -16 -28 -19 -21 -72 3 -30 10 -89 15 -130 6 -60 7
-50 3 47 l-5 123 28 25 c32 28 22 31 -20 7z"/>
<path d="M3863 2815 c0 -22 2 -30 4 -17 2 12 2 30 0 40 -3 9 -5 -1 -4 -23z"/>
<path d="M2323 2763 c5 -4 75 -11 155 -14 159 -6 200 -18 251 -73 32 -34 21
-42 -30 -22 -23 9 -42 16 -44 14 -1 -2 -8 -18 -15 -36 -26 -67 -87 -78 -143
-26 -29 26 -37 60 -13 51 8 -3 17 0 19 7 3 8 -12 17 -46 25 -29 8 -71 22 -95
32 -29 12 -42 14 -40 6 3 -6 32 -23 66 -36 40 -16 62 -30 62 -41 0 -8 7 -25
15 -37 15 -21 14 -22 -22 -17 l-38 4 48 -21 c32 -15 47 -28 47 -40 0 -11 -7
-19 -16 -19 -23 0 -74 32 -74 47 0 6 -5 15 -11 19 -8 4 -9 -1 -4 -17 13 -41
35 -59 77 -59 37 0 43 6 38 39 -1 10 7 12 34 7 45 -9 89 13 105 53 12 27 16
29 59 28 41 -2 47 1 50 19 4 27 -53 78 -105 95 -44 14 -342 25 -330 12z"/>
<path d="M1930 2736 c0 -2 7 -7 16 -10 8 -3 12 -2 9 4 -6 10 -25 14 -25 6z"/>
<path d="M3874 2595 c0 -77 2 -107 3 -67 2 40 2 103 0 140 -2 37 -3 4 -3 -73z"/>
<path d="M2578 2713 c7 -3 16 -2 19 1 4 3 -2 6 -13 5 -11 0 -14 -3 -6 -6z"/>
<path d="M2570 2659 c0 -10 -3 -24 -6 -33 -10 -27 32 -19 50 9 21 32 21 32
-14 37 -24 4 -30 1 -30 -13z"/>
<path d="M1972 2610 c0 -14 2 -19 5 -12 2 6 2 18 0 25 -3 6 -5 1 -5 -13z"/>
<path d="M3190 2605 c-16 -20 -6 -45 19 -45 19 0 41 26 41 49 0 16 -46 13 -60
-4z"/>
<path d="M1961 2554 c0 -11 3 -14 6 -6 3 7 2 16 -1 19 -3 4 -6 -2 -5 -13z"/>
<path d="M3703 2515 c0 -22 2 -30 4 -17 2 12 2 30 0 40 -3 9 -5 -1 -4 -23z"/>
<path d="M1855 2520 c10 -11 20 -20 23 -20 3 0 -3 9 -13 20 -10 11 -20 20 -23
20 -3 0 3 -9 13 -20z"/>
<path d="M3693 2410 c0 -25 2 -35 4 -22 2 12 2 32 0 45 -2 12 -4 2 -4 -23z"/>
<path d="M3005 2410 c3 -19 8 -52 12 -72 6 -44 -16 -88 -46 -88 -10 0 -25 -7
-32 -16 -12 -14 -9 -14 26 0 22 9 46 24 53 33 16 22 14 99 -4 143 l-14 35 5
-35z"/>
<path d="M2950 2365 c0 -49 -3 -57 -25 -67 -14 -6 -25 -15 -25 -20 0 -13 9
-10 41 13 25 18 29 27 29 69 0 27 -4 52 -10 55 -6 4 -10 -15 -10 -50z"/>
<path d="M3862 2390 c0 -19 2 -27 5 -17 2 9 2 25 0 35 -3 9 -5 1 -5 -18z"/>
<path d="M3682 2335 c0 -16 2 -22 5 -12 2 9 2 23 0 30 -3 6 -5 -1 -5 -18z"/>
<path d="M3671 2284 c0 -11 3 -14 6 -6 3 7 2 16 -1 19 -3 4 -6 -2 -5 -13z"/>
<path d="M1799 2253 c-13 -16 -12 -17 4 -4 9 7 17 15 17 17 0 8 -8 3 -21 -13z"/>
<path d="M2880 2236 c0 -2 7 -7 16 -10 8 -3 12 -2 9 4 -6 10 -25 14 -25 6z"/>
<path d="M2150 2158 c-1 -69 180 -340 352 -525 64 -69 63 -49 17 -207 -18 -58
-19 -75 -9 -116 16 -67 64 -130 98 -130 27 0 27 0 -5 16 -35 17 -70 78 -79
136 -3 21 6 68 25 132 36 115 38 133 12 141 -51 16 -320 374 -381 508 -16 34
-29 54 -30 45z"/>
<path d="M2810 2120 c-8 -5 -43 -12 -77 -16 -35 -3 -66 -10 -69 -15 -7 -12 62
-11 111 2 22 6 50 13 63 16 14 3 30 -1 42 -12 11 -10 26 -15 34 -12 12 5 46
-20 46 -34 0 -2 -64 -3 -142 -2 -102 2 -144 6 -150 15 -6 10 -8 9 -8 -4 0 -9
4 -19 9 -23 18 -10 284 -6 295 5 16 16 -4 42 -55 67 -48 24 -76 28 -99 13z"/>
<path d="M3576 2033 c-6 -14 -5 -15 5 -6 7 7 10 15 7 18 -3 3 -9 -2 -12 -12z"/>
<path d="M2770 2009 c-16 -4 2 -7 53 -8 59 -1 79 -5 83 -16 16 -41 -70 -61
-128 -31 -16 8 -28 11 -28 7 0 -14 65 -41 97 -41 39 0 73 26 73 55 0 17 -7 26
-22 30 -41 10 -103 12 -128 4z"/>
<path d="M3134 1634 c-18 -14 -18 -15 4 -4 12 6 22 13 22 15 0 8 -5 6 -26 -11z"/>
<path d="M2585 1385 c8 -87 16 -126 32 -158 22 -44 26 -25 7 33 -13 39 -14 57
-6 70 8 13 7 21 -1 29 -8 8 -7 11 6 11 9 0 17 -4 17 -9 0 -5 26 -21 58 -37 77
-38 76 -38 69 -28 -3 5 -30 22 -60 38 -54 28 -83 51 -113 91 -14 18 -15 15 -9
-40z"/>
</g>
</svg>
