<?xml version="1.0" standalone="no"?>
<!DOCTYPE svg PUBLIC "-//W3C//DTD SVG 20010904//EN"
 "http://www.w3.org/TR/2001/REC-SVG-20010904/DTD/svg10.dtd">
<svg version="1.0" xmlns="http://www.w3.org/2000/svg"
 width="512.000000pt" height="512.000000pt" viewBox="0 0 512.000000 512.000000"
 preserveAspectRatio="xMidYMid meet">
<metadata>
Created by potrace 1.16, written by Peter Selinger 2001-2019
</metadata>
<g transform="translate(0.000000,512.000000) scale(0.100000,-0.100000)"
fill="#000000" stroke="none">
<path d="M1712 4280 c-3 -688 -1 -840 10 -840 11 0 13 152 10 840 -1 462 -6
840 -10 840 -4 0 -8 -378 -10 -840z"/>
<path d="M3379 4282 c-3 -592 -1 -842 7 -842 7 0 9 244 7 823 -2 452 -5 831
-7 842 -2 11 -5 -359 -7 -823z"/>
<path d="M2526 4822 c-6 -10 51 -9 60 1 4 4 -7 7 -24 7 -17 0 -33 -4 -36 -8z"/>
<path d="M2600 4787 c0 -23 4 -36 10 -32 13 8 13 35 0 55 -7 11 -10 5 -10 -23z"/>
<path d="M2495 4789 c-4 -12 -1 -27 8 -37 21 -25 10 -42 -28 -42 -19 0 -37 -5
-40 -10 -5 -8 -11 -8 -20 0 -9 7 -16 6 -24 -4 -17 -20 1 -28 34 -16 15 6 44
11 65 12 35 1 38 4 42 35 3 26 0 33 -13 33 -12 0 -15 6 -11 25 5 30 -4 33 -13
4z"/>
<path d="M2570 4733 c0 -37 1 -38 40 -39 91 -4 270 -82 270 -119 0 -26 -32
-25 -68 4 -39 31 -126 64 -201 76 -42 7 -43 6 -36 -16 4 -13 8 -24 9 -25 0 0
27 -5 59 -12 59 -11 177 -59 177 -72 0 -10 -68 -40 -90 -40 -11 0 -20 -4 -20
-10 0 -5 -5 -10 -11 -10 -5 0 -8 4 -4 9 7 13 -52 41 -85 41 -16 0 -30 -7 -34
-16 -9 -23 -8 -24 13 -24 11 0 22 -4 25 -9 5 -8 56 -21 101 -26 11 -1 53 23
96 56 42 33 82 59 91 59 8 0 24 14 36 30 25 34 15 41 -13 10 -19 -20 -19 -20
-49 9 -17 16 -40 33 -51 39 -42 21 -177 62 -205 62 -25 0 -30 4 -30 24 0 14
-4 28 -10 31 -6 4 -10 -9 -10 -32z m80 -237 c0 -11 -19 -15 -25 -6 -3 5 1 10
9 10 9 0 16 -2 16 -4z"/>
<path d="M2325 4670 c-16 -10 -37 -19 -46 -19 -8 -1 -29 -17 -45 -36 -34 -41
-37 -42 -71 -15 -39 30 -48 24 -16 -10 15 -16 34 -30 42 -30 8 0 33 18 57 40
24 22 62 47 84 56 22 9 40 20 40 25 0 13 -11 10 -45 -11z"/>
<path d="M1030 4670 c0 -5 7 -10 15 -10 8 0 15 5 15 10 0 6 -7 10 -15 10 -8 0
-15 -4 -15 -10z"/>
<path d="M2445 4646 c-65 -21 -96 -35 -184 -86 -30 -17 -32 -20 -15 -26 10 -4
43 -22 72 -41 61 -39 65 -40 57 -13 -8 24 36 53 107 71 29 8 48 18 48 27 0 11
-8 13 -30 8 -53 -10 -129 -48 -135 -66 -5 -16 -10 -16 -35 -7 -17 6 -30 14
-30 17 1 10 147 69 188 76 38 6 42 9 42 35 0 34 4 34 -85 5z m-90 -66 c-3 -5
-12 -10 -18 -10 -7 0 -6 4 3 10 19 12 23 12 15 0z"/>
<path d="M696 4644 c-7 -18 0 -34 15 -34 5 0 9 11 9 25 0 28 -15 34 -24 9z"/>
<path d="M4040 4640 c-10 -10 -19 -23 -22 -30 -3 -10 -12 -9 -37 6 -30 18 -33
18 -42 2 -5 -10 -16 -15 -24 -11 -28 10 -47 -18 -41 -59 6 -36 5 -38 -30 -53
-20 -8 -54 -15 -75 -15 -37 0 -39 -2 -39 -30 0 -16 5 -30 10 -30 6 0 10 9 10
20 0 16 7 20 31 20 27 0 30 -3 23 -22 -6 -19 -3 -18 20 7 15 16 35 29 45 30
21 1 60 35 40 35 -8 0 -9 3 0 14 9 10 8 16 -4 26 -15 12 -11 35 5 25 4 -3 10
2 14 10 7 20 56 20 56 -1 0 -8 3 -13 8 -10 19 12 69 -64 56 -86 -3 -5 -20 -18
-38 -29 -17 -10 -25 -19 -18 -19 6 0 12 -4 12 -10 0 -5 -5 -10 -11 -10 -6 0
-24 -9 -40 -21 -29 -20 -31 -20 -65 -4 -39 18 -87 10 -92 -17 -2 -12 7 -17 38
-20 23 -2 44 0 46 4 3 4 15 8 27 8 19 0 17 -4 -15 -37 -46 -48 -94 -159 -101
-239 -5 -44 -1 -80 12 -128 10 -37 15 -69 10 -72 -5 -3 -9 0 -9 6 0 6 -14 1
-30 -12 -22 -16 -33 -19 -41 -11 -6 6 -8 17 -4 23 6 9 9 9 15 0 5 -8 15 0 29
24 37 58 19 62 -38 7 -42 -40 -49 -51 -33 -51 11 0 25 -7 32 -15 18 -21 54
-19 75 6 19 20 19 20 38 -18 11 -21 28 -44 39 -51 21 -15 15 -34 -7 -26 -8 4
-18 -1 -21 -10 -3 -9 -13 -16 -20 -16 -8 0 -19 -12 -25 -27 -8 -22 -12 -24
-19 -13 -14 22 -12 40 3 40 8 0 20 11 27 25 7 13 16 23 19 20 4 -2 8 5 8 16 2
16 -1 17 -17 9 -24 -13 -70 -79 -70 -100 0 -36 46 -53 72 -27 39 38 87 67 102
61 9 -3 16 -10 16 -14 0 -5 9 -11 19 -15 27 -8 17 -28 -19 -42 -17 -6 -30 -19
-30 -28 0 -9 -6 -15 -12 -12 -18 6 -11 47 10 63 9 7 14 15 10 19 -3 4 -20 -4
-37 -16 -23 -17 -30 -28 -25 -43 10 -33 25 -46 50 -46 26 0 41 16 22 23 -7 3
-1 6 14 6 16 1 35 11 47 26 15 20 26 24 45 20 14 -3 37 -7 51 -10 14 -3 23
-10 20 -15 -8 -13 8 -13 21 -1 5 5 41 11 79 13 39 2 86 12 107 22 23 11 45 15
59 11 15 -5 20 -3 17 5 -4 13 47 70 63 70 14 0 32 -51 30 -80 -3 -27 -27 -60
-45 -60 -5 0 -25 14 -43 32 -22 21 -33 27 -33 17 0 -21 41 -58 69 -64 31 -6
71 35 71 74 0 26 3 29 33 27 26 -1 33 3 35 22 2 12 -1 22 -7 22 -6 0 -11 -7
-11 -15 0 -8 -4 -15 -10 -15 -5 0 -10 9 -10 20 0 12 -7 20 -17 20 -14 0 -15 2
-4 9 11 7 9 10 -8 16 -25 8 -27 21 -5 33 8 5 16 15 17 23 5 29 18 41 32 29 8
-6 12 -17 9 -24 -4 -10 2 -12 23 -8 19 4 22 7 11 10 -10 2 -19 10 -19 18 -3
27 -4 32 -11 40 -5 4 -8 2 -8 -4 0 -7 -4 -12 -9 -12 -5 0 -5 18 1 43 5 23 9
63 9 88 0 42 4 48 41 77 23 18 45 32 48 32 4 0 15 16 26 35 16 31 17 37 4 49
-19 19 -56 25 -53 9 2 -6 -5 -14 -15 -17 -9 -3 -23 -15 -30 -26 -10 -17 -10
-20 3 -20 8 0 15 4 15 9 0 5 14 14 31 20 39 13 39 13 39 0 0 -5 -13 -15 -29
-20 -20 -7 -28 -15 -24 -25 3 -9 -2 -14 -17 -14 -15 0 -20 -5 -17 -14 3 -8 -1
-17 -8 -20 -16 -6 -39 59 -28 77 3 6 1 7 -5 3 -8 -5 -12 0 -12 13 0 12 7 21
15 21 8 0 15 5 15 10 0 6 -4 10 -9 10 -6 0 -13 -4 -16 -10 -3 -5 -10 -10 -14
-10 -11 0 -53 88 -47 98 2 4 -3 8 -13 9 -10 1 -39 16 -64 34 l-45 32 18 43
c11 24 15 46 11 48 -13 8 -21 -5 -21 -33 0 -51 -11 -56 -84 -37 -36 9 -74 16
-85 16 -18 0 -19 3 -9 25 13 30 5 43 -17 25 -12 -10 -15 -10 -15 1 0 8 -6 3
-13 -11 -8 -17 -23 -26 -42 -28 -17 -2 -33 -8 -36 -14 -4 -5 -15 -8 -25 -6
-18 5 -18 5 1 13 40 17 46 51 17 93 -12 18 -17 36 -12 52 5 21 13 26 50 30 55
6 59 24 7 27 -26 1 -45 -5 -57 -17z m286 -249 c84 -39 138 -91 176 -169 31
-63 33 -73 32 -172 0 -85 -4 -114 -22 -152 -28 -63 -95 -128 -168 -164 -55
-27 -67 -29 -174 -29 -102 0 -121 3 -165 25 -58 28 -128 96 -156 153 -89 174
-29 404 128 490 118 64 237 70 349 18z m186 -633 c-9 -9 -14 -5 -22 16 -15 40
-13 43 12 18 17 -17 19 -25 10 -34z"/>
<path d="M4125 4305 c-17 -13 -25 -24 -18 -25 6 0 15 5 19 11 3 6 15 8 27 5
22 -5 57 9 57 24 0 17 -28 11 -35 -7 -7 -17 -8 -17 -14 -1 -6 16 -9 15 -36 -7z"/>
<path d="M4071 4294 c0 -11 3 -14 6 -6 3 7 2 16 -1 19 -3 4 -6 -2 -5 -13z"/>
<path d="M3991 4249 c-9 -27 -9 -30 4 -19 8 6 19 9 25 5 5 -3 10 -1 10 4 0 6
-5 11 -11 11 -8 0 -8 5 1 15 10 12 10 15 -3 15 -8 0 -20 -14 -26 -31z"/>
<path d="M4183 4257 c2 -6 11 -11 21 -13 24 -3 34 -14 13 -14 -9 0 -19 -5 -23
-12 -4 -6 -3 -8 3 -5 6 4 14 0 17 -9 9 -24 8 -27 -11 -19 -13 4 -15 3 -7 -5
13 -13 40 -4 48 16 3 9 1 12 -4 9 -6 -3 -10 1 -10 9 0 8 8 17 18 19 16 4 16 5
0 6 -10 0 -18 5 -18 10 0 5 -11 11 -25 14 -15 2 -24 0 -22 -6z"/>
<path d="M4277 4263 c-10 -9 -9 -23 2 -23 5 0 11 7 15 15 5 15 -5 20 -17 8z"/>
<path d="M4146 4243 c-3 -10 -9 -24 -12 -30 -3 -8 1 -13 11 -13 9 0 15 -6 12
-12 -2 -7 -16 -12 -31 -12 -22 1 -28 -4 -33 -28 -4 -21 -9 -26 -16 -19 -14 14
-27 14 -27 1 0 -5 7 -10 15 -10 8 0 15 -4 15 -10 0 -5 -7 -10 -15 -10 -19 0
-19 -7 -1 -26 16 -16 23 -10 30 27 6 36 17 59 27 60 5 1 19 2 30 3 17 1 23 9
25 35 4 29 2 32 -12 21 -13 -12 -14 -10 -9 13 8 30 1 37 -9 10z"/>
<path d="M4055 4230 c-4 -6 -2 -17 4 -23 15 -15 14 -27 -4 -27 -8 0 -15 -4
-15 -10 0 -5 11 -10 25 -10 28 0 32 20 11 59 -9 17 -15 20 -21 11z"/>
<path d="M4266 4214 c-9 -23 -7 -52 3 -58 5 -3 8 12 7 34 -1 45 -1 46 -10 24z"/>
<path d="M4297 4212 c1 -8 3 -21 4 -30 0 -14 2 -13 9 3 12 27 12 37 1 31 -5
-4 -11 -3 -14 1 -2 5 -2 2 0 -5z"/>
<path d="M4101 4204 c0 -11 3 -14 6 -6 3 7 2 16 -1 19 -3 4 -6 -2 -5 -13z"/>
<path d="M4335 4210 c-13 -21 -15 -80 -2 -80 8 0 12 13 10 40 -2 35 0 39 13
26 7 -8 14 -22 14 -30 0 -9 5 -16 11 -16 7 0 9 10 4 27 -9 37 -36 55 -50 33z"/>
<path d="M3953 4185 c-8 -22 6 -33 17 -15 13 20 12 30 0 30 -6 0 -13 -7 -17
-15z"/>
<path d="M4226 4162 c-4 -7 -4 -12 1 -12 4 0 1 -4 -7 -10 -18 -11 -6 -25 13
-13 9 5 12 15 7 27 -4 14 -9 16 -14 8z"/>
<path d="M4185 4150 c-3 -5 -2 -10 4 -10 5 0 13 5 16 10 3 6 2 10 -4 10 -5 0
-13 -4 -16 -10z"/>
<path d="M4277 4132 c-19 -20 -23 -52 -7 -52 6 0 10 8 10 18 0 10 5 23 12 30
6 6 9 14 6 17 -2 3 -12 -3 -21 -13z"/>
<path d="M4145 4130 c3 -5 8 -10 11 -10 2 0 4 5 4 10 0 6 -5 10 -11 10 -5 0
-7 -4 -4 -10z"/>
<path d="M4170 4125 c0 -3 9 -14 20 -25 11 -11 17 -27 14 -37 -5 -15 -4 -16 5
-3 16 22 13 33 -14 53 -14 10 -25 15 -25 12z"/>
<path d="M4315 4112 c-14 -10 -17 -32 -5 -32 11 0 26 28 18 35 -2 2 -8 1 -13
-3z"/>
<path d="M4148 4092 c-4 -12 1 -18 13 -18 14 0 15 4 8 18 -5 10 -11 18 -13 18
-2 0 -6 -8 -8 -18z"/>
<path d="M4236 4084 c-8 -20 -8 -24 2 -24 4 0 8 9 9 20 2 24 -3 26 -11 4z"/>
<path d="M4092 4049 c2 -5 18 -19 36 -30 30 -20 32 -20 32 -2 0 10 -5 25 -11
33 -9 13 -10 12 -5 -2 7 -22 -19 -25 -28 -3 -6 17 -30 21 -24 4z"/>
<path d="M4245 4040 c-3 -5 1 -10 9 -10 9 0 16 5 16 10 0 6 -4 10 -9 10 -6 0
-13 -4 -16 -10z"/>
<path d="M4290 4035 c0 -8 2 -15 4 -15 2 0 6 7 10 15 3 8 1 15 -4 15 -6 0 -10
-7 -10 -15z"/>
<path d="M4180 4030 c0 -5 4 -10 9 -10 6 0 13 5 16 10 3 6 -1 10 -9 10 -9 0
-16 -4 -16 -10z"/>
<path d="M4245 4010 c-4 -6 -18 -9 -32 -8 -14 2 -28 -3 -30 -10 -4 -9 4 -11
27 -7 33 6 70 22 70 30 0 9 -29 5 -35 -5z"/>
<path d="M3920 4000 c0 -5 7 -10 16 -10 8 0 12 5 9 10 -3 6 -10 10 -16 10 -5
0 -9 -4 -9 -10z"/>
<path d="M4398 4003 c7 -3 16 -2 19 1 4 3 -2 6 -13 5 -11 0 -14 -3 -6 -6z"/>
<path d="M3871 3978 c0 -7 4 -22 9 -33 7 -17 9 -15 9 13 1 17 -3 32 -9 32 -5
0 -10 -6 -9 -12z"/>
<path d="M4340 3939 c0 -11 4 -18 10 -14 5 3 7 12 3 20 -7 21 -13 19 -13 -6z"/>
<path d="M3890 3915 c1 -13 48 -70 54 -65 2 3 -9 21 -25 40 -16 19 -29 30 -29
25z"/>
<path d="M4107 3893 c-4 -3 -7 -16 -6 -27 0 -19 1 -19 10 3 10 24 8 36 -4 24z"/>
<path d="M4291 3888 c0 -7 4 -22 9 -33 7 -17 9 -15 9 13 1 17 -3 32 -9 32 -5
0 -10 -6 -9 -12z"/>
<path d="M3970 3861 c0 -5 5 -13 10 -16 6 -3 10 -2 10 4 0 5 -4 13 -10 16 -5
3 -10 2 -10 -4z"/>
<path d="M4405 3860 c-3 -5 -2 -10 4 -10 5 0 13 5 16 10 3 6 2 10 -4 10 -5 0
-13 -4 -16 -10z"/>
<path d="M4000 3831 c0 -9 30 -24 36 -18 2 1 -6 8 -16 15 -11 7 -20 8 -20 3z"/>
<path d="M835 4607 c6 -29 3 -36 -19 -51 -24 -15 -26 -20 -20 -70 l6 -53 -54
-30 c-50 -29 -128 -102 -128 -122 0 -5 -7 -25 -15 -44 l-15 -36 -51 15 c-47
14 -53 14 -77 -3 -15 -9 -33 -16 -39 -15 -22 5 -14 -20 7 -25 11 -3 20 -10 20
-15 0 -5 11 -20 25 -33 24 -25 65 -34 65 -15 0 6 -8 10 -17 10 -15 0 -15 2 -4
9 11 7 9 10 -10 13 -26 3 -39 36 -19 48 7 4 24 4 39 0 14 -4 33 -6 43 -5 14 3
15 -1 6 -27 -6 -18 -8 -60 -4 -102 6 -67 5 -74 -16 -93 -13 -11 -31 -23 -40
-26 -21 -7 -51 -64 -44 -82 3 -8 21 -17 41 -21 38 -7 57 3 61 32 2 14 1 14
-16 -1 -15 -13 -23 -14 -39 -5 -27 14 -27 30 -1 30 11 0 20 7 20 15 0 16 30
55 42 55 5 0 8 -9 8 -19 0 -11 6 -22 13 -24 9 -4 9 -6 0 -6 -20 -1 -15 -18 7
-24 30 -8 24 -25 -15 -48 -33 -20 -47 -54 -29 -72 12 -12 64 24 70 48 7 26 24
34 24 11 0 -7 7 -20 16 -27 15 -12 14 -15 -4 -29 -10 -9 -24 -25 -30 -37 -6
-11 -21 -23 -32 -26 -18 -5 -21 -1 -18 18 2 13 -1 25 -7 27 -16 5 -17 -48 -2
-61 33 -27 147 17 147 57 0 12 3 13 11 5 8 -8 7 -17 -5 -34 -9 -13 -16 -34
-16 -48 0 -32 64 -94 89 -86 29 9 54 42 60 80 3 20 10 35 16 33 5 -2 9 -5 8
-8 -14 -42 -12 -59 9 -90 30 -44 52 -48 74 -15 14 21 15 31 5 58 -6 18 -9 22
-7 9 4 -21 -16 -52 -34 -52 -14 0 -41 51 -38 72 3 22 43 33 55 15 3 -5 9 -4
13 3 12 19 27 4 34 -33 4 -19 21 -48 41 -67 29 -28 39 -32 53 -24 9 6 18 22
19 35 1 13 0 18 -3 12 -8 -19 -35 -16 -28 2 4 8 1 15 -5 15 -6 0 -11 -4 -11
-10 0 -18 -22 -10 -27 10 -3 11 -9 20 -14 20 -5 0 -9 11 -9 25 0 34 25 32 44
-2 10 -19 15 -23 16 -11 0 9 -4 20 -10 23 -19 12 -10 23 23 30 17 4 37 12 44
17 12 9 16 5 41 -41 15 -30 10 -35 -32 -35 -22 0 -32 -4 -29 -12 6 -16 32 -22
63 -14 33 8 37 42 10 80 -12 17 -20 36 -17 43 2 7 12 -2 23 -20 23 -39 68 -46
79 -13 9 29 -6 49 -17 21 -7 -19 -11 -21 -23 -11 -8 7 -15 9 -15 4 0 -4 -5 -3
-11 3 -8 8 -7 17 5 34 9 13 16 19 16 14 0 -6 6 1 13 15 7 13 22 30 35 36 12 6
19 14 16 17 -4 4 1 18 10 32 9 14 14 30 11 35 -9 15 1 12 37 -10 18 -11 41
-20 51 -20 24 0 77 28 77 41 0 19 -77 90 -106 98 -15 4 -30 13 -32 20 -3 10 2
11 19 6 22 -6 22 -6 7 6 -10 8 -20 33 -24 55 l-6 41 53 5 c63 6 79 2 79 -21 0
-18 -50 -61 -72 -61 -7 0 -4 -6 6 -12 15 -8 21 -8 24 0 4 13 22 6 22 -9 0 -5
-12 -9 -26 -9 -14 0 -23 -4 -19 -10 3 -5 20 -10 36 -10 18 0 28 -4 24 -10 -4
-6 -11 -8 -16 -5 -5 4 -9 1 -9 -4 0 -12 20 -14 44 -5 23 9 20 29 -6 47 l-23
15 23 30 c29 40 28 58 -4 78 -23 15 -32 16 -76 5 -55 -15 -69 -8 -83 36 -5 19
-1 25 19 33 14 5 26 12 26 15 0 4 -4 3 -10 0 -5 -3 -10 -2 -10 3 0 5 17 12 38
16 56 9 62 8 62 -13 0 -22 -25 -45 -40 -36 -5 3 -10 0 -10 -9 0 -10 -8 -13
-32 -9 -29 4 -30 4 -15 -12 15 -14 22 -15 55 -4 73 23 90 58 49 97 -31 29 -43
28 -97 -8 -25 -16 -48 -30 -52 -30 -15 0 -8 21 10 27 9 3 32 17 50 30 26 20
32 31 32 63 0 38 0 39 -46 46 -41 6 -48 4 -74 -21 -16 -15 -26 -34 -23 -41 5
-13 -12 -12 -39 3 -5 2 12 21 36 41 44 36 57 64 35 77 -6 4 -16 -1 -24 -11
-12 -18 -14 -17 -32 13 -19 34 -57 50 -77 33 -7 -5 -21 -28 -31 -50 -14 -30
-23 -39 -34 -34 -33 13 -87 24 -128 24 l-42 0 16 52 c8 29 22 58 32 65 15 12
14 14 -4 28 -25 20 -59 16 -63 -7 -3 -15 2 -17 30 -12 31 5 32 4 14 -10 -10
-8 -15 -19 -12 -25 4 -5 2 -12 -4 -16 -5 -3 -10 1 -10 9 0 10 -6 13 -15 10 -9
-4 -15 0 -15 9 0 19 -32 77 -43 77 -4 0 -5 -15 -2 -33z m65 -126 c0 -25 -4
-29 -37 -34 -20 -4 -38 -5 -39 -4 -1 1 -4 19 -8 39 -5 27 -3 40 9 50 9 7 21
18 28 24 16 15 47 -35 47 -75z m304 -6 c13 -14 28 -25 35 -25 20 0 12 -18 -18
-39 -29 -21 -31 -21 -65 -4 -41 19 -42 23 -21 63 19 37 39 38 69 5z m-169 -50
c106 -17 226 -118 265 -223 19 -48 21 -72 17 -152 -4 -87 -7 -100 -40 -156
-68 -115 -172 -174 -310 -175 -176 -2 -297 78 -349 229 -76 223 49 443 274
481 53 9 66 8 143 -4z m330 -35 c10 -16 -24 -70 -52 -83 -22 -10 -28 -8 -43
11 -22 27 -15 60 14 72 29 12 74 12 81 0z m37 -400 c16 0 29 -21 33 -52 3 -27
-33 -22 -38 5 -4 19 -4 18 -6 -5 -1 -25 -21 -42 -21 -18 0 6 -6 9 -12 8 -14
-3 -23 53 -13 79 5 14 7 14 23 -1 10 -9 26 -16 34 -16z m-787 -184 c-10 -14
-22 -23 -27 -20 -5 3 1 17 13 30 28 30 36 24 14 -10z m98 -56 c-6 -22 -33 -28
-33 -7 0 17 10 27 26 27 7 0 10 -8 7 -20z m64 -42 c-5 -21 -5 -21 7 -6 7 9 21
15 32 13 10 -2 22 -4 27 -4 12 -1 8 -59 -5 -67 -7 -4 -8 -3 -4 4 4 7 3 12 -2
12 -6 0 -13 -11 -16 -24 -7 -29 -28 -28 -56 4 -23 27 -24 31 -8 65 14 31 32
33 25 3z"/>
<path d="M940 4340 c0 -5 5 -10 11 -10 5 0 7 -5 3 -11 -4 -8 -9 -7 -15 2 -5 8
-9 10 -9 4 0 -5 -5 -3 -10 5 -7 12 -10 8 -10 -15 0 -23 3 -27 10 -15 7 11 12
12 18 3 5 -8 13 -8 32 2 14 8 19 14 13 15 -7 0 -13 7 -13 15 0 8 -7 15 -15 15
-8 0 -15 -4 -15 -10z"/>
<path d="M861 4321 c-10 -6 -10 -10 -1 -16 13 -8 24 -1 19 14 -3 6 -10 7 -18
2z"/>
<path d="M826 4295 c4 -8 8 -15 10 -15 2 0 4 7 4 15 0 8 -4 15 -10 15 -5 0 -7
-7 -4 -15z"/>
<path d="M776 4274 c-3 -9 -6 -21 -6 -27 0 -16 23 9 26 28 3 20 -12 19 -20 -1z"/>
<path d="M1023 4283 c9 -2 23 -2 30 0 6 3 -1 5 -18 5 -16 0 -22 -2 -12 -5z"/>
<path d="M970 4260 c-17 -4 -29 -17 -36 -40 -12 -37 -9 -54 8 -44 5 3 7 15 5
26 -4 14 -2 18 9 14 12 -4 14 -1 9 14 -9 30 4 24 16 -6 9 -26 10 -26 24 -8 8
10 15 14 15 7 0 -6 3 -19 6 -27 5 -12 2 -15 -10 -10 -12 5 -16 0 -16 -21 0
-14 -4 -24 -9 -20 -5 3 -12 1 -16 -5 -3 -5 1 -10 9 -10 13 0 13 -5 -1 -46 -10
-30 -20 -44 -29 -40 -7 3 -16 1 -19 -4 -4 -6 3 -10 15 -10 12 0 25 10 32 25 8
18 14 22 23 15 17 -14 28 16 15 40 -16 29 -13 63 5 56 9 -3 15 0 15 9 0 8 5
15 10 15 6 0 10 8 10 18 0 14 -2 15 -10 2 -8 -12 -10 -9 -10 14 0 21 -4 27
-16 22 -8 -3 -13 -2 -10 3 8 13 -15 19 -44 11z m27 -32 c-3 -7 -5 -2 -5 12 0
14 2 19 5 13 2 -7 2 -19 0 -25z m23 -141 c0 -5 -4 -5 -10 -2 -5 3 -10 14 -10
23 0 15 2 15 10 2 5 -8 10 -19 10 -23z"/>
<path d="M822 4235 c-13 -29 -10 -31 12 -9 9 8 16 11 16 5 0 -6 11 -11 25 -11
14 0 25 -3 25 -6 0 -10 -29 -35 -37 -32 -16 6 -14 -32 2 -48 13 -13 16 -14 15
-3 -4 28 0 50 9 45 4 -3 13 6 20 20 14 31 14 47 1 39 -6 -4 -18 -1 -27 7 -14
11 -16 11 -8 -2 6 -11 3 -10 -12 3 -25 22 -28 22 -41 -8z m45 -77 c-3 -8 -6
-5 -6 6 -1 11 2 17 5 13 3 -3 4 -12 1 -19z"/>
<path d="M1085 4238 c-9 -26 -12 -88 -4 -88 5 0 8 -10 6 -21 -1 -12 3 -24 10
-26 12 -4 12 28 -1 59 -4 9 -5 32 -2 52 6 35 0 49 -9 24z"/>
<path d="M1119 4235 c-3 -5 -6 -26 -7 -45 -1 -33 0 -33 9 -10 10 25 9 73 -2
55z"/>
<path d="M1153 4195 c7 -13 14 -20 15 -14 5 14 -6 39 -17 39 -5 0 -4 -11 2
-25z"/>
<path d="M730 4185 c0 -8 4 -15 9 -15 5 0 14 7 21 15 10 13 9 15 -9 15 -12 0
-21 -6 -21 -15z"/>
<path d="M970 4188 c0 -9 5 -20 10 -23 13 -8 13 5 0 25 -8 13 -10 13 -10 -2z"/>
<path d="M820 4170 c0 -5 5 -10 10 -10 6 0 10 5 10 10 0 6 -4 10 -10 10 -5 0
-10 -4 -10 -10z"/>
<path d="M900 4140 c0 -11 5 -20 10 -20 6 0 10 9 10 20 0 11 -4 20 -10 20 -5
0 -10 -9 -10 -20z"/>
<path d="M935 4150 c3 -5 8 -10 11 -10 2 0 4 5 4 10 0 6 -5 10 -11 10 -5 0 -7
-4 -4 -10z"/>
<path d="M1050 4152 c0 -6 -7 -9 -15 -6 -16 6 -21 -11 -6 -20 11 -7 36 22 27
31 -3 3 -6 1 -6 -5z"/>
<path d="M837 4123 c-15 -14 -6 -31 18 -35 14 -3 25 -1 25 3 0 5 -7 9 -16 9
-10 0 -14 6 -10 15 5 15 -5 20 -17 8z"/>
<path d="M931 4114 c0 -11 3 -14 6 -6 3 7 2 16 -1 19 -3 4 -6 -2 -5 -13z"/>
<path d="M908 4103 c0 -5 -2 -15 -2 -23 -1 -9 -10 -14 -24 -13 -33 4 -28 -8
20 -45 22 -18 78 -33 78 -21 0 5 -10 9 -22 9 -13 0 -34 9 -48 20 -18 15 -20
18 -6 13 13 -4 17 -3 12 5 -4 7 -2 12 5 12 10 0 10 3 2 11 -6 6 -9 18 -6 25 3
8 2 14 -1 14 -3 0 -7 -3 -8 -7z"/>
<path d="M1057 4103 c-11 -11 -8 -25 4 -17 6 3 15 0 20 -7 4 -7 11 -10 15 -7
3 4 -1 14 -9 23 -17 17 -21 18 -30 8z"/>
<path d="M953 4085 c-3 -9 -3 -18 -1 -21 3 -3 8 4 11 16 6 23 -1 27 -10 5z"/>
<path d="M1047 4030 c-9 -11 -23 -20 -31 -20 -8 0 -18 -4 -21 -10 -3 -5 0 -10
7 -10 16 0 88 59 73 60 -6 0 -18 -9 -28 -20z"/>
<path d="M998 4033 c7 -3 16 -2 19 1 4 3 -2 6 -13 5 -11 0 -14 -3 -6 -6z"/>
<path d="M1170 4030 c-12 -8 -11 -10 8 -10 12 0 22 5 22 10 0 13 -11 13 -30 0z"/>
<path d="M662 3966 c5 -42 44 -113 56 -102 3 4 -5 17 -17 30 -13 13 -25 42
-28 64 -4 33 -2 41 13 45 15 4 14 5 -5 6 -22 1 -23 -2 -19 -43z"/>
<path d="M1117 3983 c-11 -10 -8 -53 3 -53 6 0 10 14 10 30 0 31 -2 35 -13 23z"/>
<path d="M1070 3913 c0 -19 11 -43 21 -43 13 0 11 14 -6 36 -8 10 -15 14 -15
7z"/>
<path d="M740 3885 c0 -8 2 -15 4 -15 2 0 6 7 10 15 3 8 1 15 -4 15 -6 0 -10
-7 -10 -15z"/>
<path d="M876 3885 c-9 -26 -7 -32 5 -12 6 10 9 21 6 23 -2 3 -7 -2 -11 -11z"/>
<path d="M1180 3874 c0 -8 5 -12 10 -9 6 3 10 10 10 16 0 5 -4 9 -10 9 -5 0
-10 -7 -10 -16z"/>
<path d="M755 3850 c3 -5 11 -10 16 -10 6 0 7 5 4 10 -3 6 -11 10 -16 10 -6 0
-7 -4 -4 -10z"/>
<path d="M857 3843 c-4 -3 -7 -11 -7 -17 0 -6 5 -5 12 2 6 6 9 14 7 17 -3 3
-9 2 -12 -2z"/>
<path d="M760 3670 c-9 -6 -10 -10 -3 -10 6 0 15 5 18 10 8 12 4 12 -15 0z"/>
<path d="M4253 4633 c-7 -2 -13 -11 -13 -19 0 -7 6 -11 14 -8 20 8 66 -25 66
-47 0 -11 5 -19 10 -19 28 0 -2 73 -37 89 -13 6 -25 11 -26 10 -1 0 -8 -3 -14
-6z"/>
<path d="M4071 4593 c-13 -29 -7 -45 15 -36 11 4 12 9 4 18 -13 16 2 28 24 19
10 -4 16 -1 16 7 0 25 -47 19 -59 -8z"/>
<path d="M1070 4596 c-7 -9 -27 -16 -44 -16 -40 0 -60 -16 -75 -59 -14 -42
-14 -51 -1 -51 6 0 10 6 10 13 0 7 6 19 13 26 6 6 12 17 12 24 0 17 53 21 71
6 11 -9 14 -25 11 -51 -5 -43 4 -48 25 -16 13 20 13 26 -5 55 -15 27 -17 36
-7 48 7 8 19 15 27 15 12 0 13 -9 8 -42 -7 -42 -6 -42 10 -20 25 34 16 76 -16
80 -14 2 -31 -4 -39 -12z"/>
<path d="M2097 4603 c-4 -3 -7 -13 -7 -22 1 -13 3 -13 11 2 11 19 8 33 -4 20z"/>
<path d="M2972 4590 c-18 -30 -15 -40 26 -78 20 -19 36 -37 35 -39 -1 -1 6
-23 17 -49 11 -25 28 -85 38 -133 12 -59 21 -86 30 -83 16 5 16 -34 -1 -41 -7
-2 -14 -20 -15 -38 -6 -73 -48 -188 -84 -226 -19 -20 -19 -23 -4 -29 9 -3 16
-18 17 -33 0 -23 1 -24 8 -6 5 11 3 28 -3 38 -8 12 -8 20 0 25 22 15 69 134
80 202 3 24 13 54 20 66 16 23 10 49 -12 58 -8 3 -14 17 -14 32 0 74 -54 214
-105 268 -20 22 -25 34 -20 57 8 34 4 36 -13 9z"/>
<path d="M2575 4580 c-4 -6 -5 -12 -4 -14 3 -1 105 -32 182 -53 9 -3 17 0 17
6 0 13 -44 34 -105 50 -22 6 -50 13 -62 16 -12 3 -24 1 -28 -5z"/>
<path d="M4136 4575 c-18 -18 -21 -35 -6 -35 6 0 10 7 10 16 0 11 6 14 21 9
15 -5 20 -3 17 6 -7 20 -24 21 -42 4z"/>
<path d="M710 4561 c0 -11 -8 -22 -18 -25 -20 -7 -45 -43 -37 -55 3 -5 19 4
36 20 35 33 54 37 63 13 10 -27 7 -72 -6 -77 -7 -3 -3 -6 10 -6 20 -1 22 4 22
47 0 40 -5 53 -28 75 -33 32 -42 34 -42 8z"/>
<path d="M4196 4572 c-7 -11 41 -46 73 -52 22 -5 25 -10 23 -35 -3 -25 -2 -27
11 -17 12 11 16 11 20 0 2 -7 2 -2 0 12 -2 14 -13 32 -23 42 -11 9 -20 23 -20
31 0 23 -71 39 -84 19z"/>
<path d="M2100 4549 c6 -8 5 -19 -1 -31 -7 -12 -6 -18 1 -18 19 0 23 31 6 46
-9 8 -12 9 -6 3z"/>
<path d="M3920 4556 c0 -2 8 -10 18 -17 15 -13 16 -12 3 4 -13 16 -21 21 -21
13z"/>
<path d="M1230 4515 c0 -25 4 -35 13 -32 6 2 12 16 12 32 0 16 -6 30 -12 33
-9 2 -13 -8 -13 -33z"/>
<path d="M2175 4538 c-20 -9 -65 -69 -65 -87 0 -6 10 -17 22 -25 20 -14 23
-14 31 0 5 9 3 23 -6 37 -12 20 -12 24 5 41 20 22 23 21 36 -14 10 -26 -3 -70
-20 -70 -5 0 -6 -4 -3 -10 3 -5 17 -10 31 -10 24 0 24 2 18 53 -9 72 -23 97
-49 85z"/>
<path d="M2917 4543 c-3 -5 -7 -39 -11 -78 -4 -46 -3 -63 3 -50 5 11 10 32 10
48 1 30 12 35 31 12 10 -11 9 -18 -4 -30 -9 -9 -16 -21 -16 -28 0 -6 9 -1 20
11 12 12 27 22 35 22 11 0 6 14 -17 50 -32 49 -43 57 -51 43z"/>
<path d="M3975 4540 c3 -5 11 -10 16 -10 6 0 7 5 4 10 -3 6 -11 10 -16 10 -6
0 -7 -4 -4 -10z"/>
<path d="M4375 4540 c-18 -3 -31 -12 -33 -24 -4 -17 -3 -18 19 -2 25 17 59 22
59 7 0 -5 10 -12 23 -16 13 -4 17 -8 10 -12 -7 -2 -13 -9 -13 -15 0 -14 -36
-58 -43 -52 -3 3 -8 1 -12 -5 -3 -6 0 -11 8 -11 20 0 77 66 77 89 0 33 -41 51
-95 41z"/>
<path d="M4168 4533 c6 -2 18 -2 25 0 6 3 1 5 -13 5 -14 0 -19 -2 -12 -5z"/>
<path d="M4512 4515 c-6 -14 -8 -24 -4 -24 4 1 12 1 19 0 16 -1 1 -53 -26 -87
-26 -34 -26 -40 1 -47 16 -5 19 -9 11 -19 -15 -20 -24 -50 -13 -43 6 4 14 -3
18 -13 6 -16 9 -17 19 -7 9 10 7 14 -10 19 -14 4 -18 9 -11 13 12 8 23 48 28
98 2 17 7 54 11 83 7 48 6 52 -12 52 -11 0 -25 -11 -31 -25z"/>
<path d="M2457 4515 c-60 -21 -92 -72 -38 -62 15 3 51 9 80 13 28 4 51 10 51
15 0 5 -7 9 -15 9 -8 0 -15 9 -15 20 0 23 -11 24 -63 5z m33 -15 c0 -5 -8 -10
-17 -10 -15 0 -16 2 -3 10 19 12 20 12 20 0z"/>
<path d="M1360 4504 c0 -17 22 -14 28 4 2 7 -3 12 -12 12 -9 0 -16 -7 -16 -16z"/>
<path d="M587 4493 c-4 -3 -7 -15 -7 -25 0 -15 5 -18 20 -13 13 4 20 2 20 -7
0 -8 7 -23 16 -34 14 -18 15 -17 10 20 -6 44 -40 79 -59 59z"/>
<path d="M710 4491 c-8 -6 -17 -8 -21 -6 -3 3 -12 -13 -19 -35 -10 -30 -10
-46 -2 -62 9 -20 11 -17 11 25 1 27 4 46 9 44 4 -2 18 7 31 20 24 23 19 31 -9
14z"/>
<path d="M3960 4484 c0 -14 3 -14 15 -4 8 7 15 14 15 16 0 2 -7 4 -15 4 -8 0
-15 -7 -15 -16z"/>
<path d="M4250 4484 c0 -8 -4 -12 -10 -9 -5 3 -10 1 -10 -4 0 -6 6 -11 14 -11
17 0 38 24 29 33 -11 12 -23 7 -23 -9z"/>
<path d="M4393 4475 c-10 -22 -9 -25 7 -25 16 0 30 18 30 41 0 19 -25 8 -37
-16z"/>
<path d="M983 4483 c9 -2 23 -2 30 0 6 3 -1 5 -18 5 -16 0 -22 -2 -12 -5z"/>
<path d="M2057 4453 c-15 -32 -15 -35 -1 -18 24 30 36 55 26 55 -4 0 -16 -17
-25 -37z"/>
<path d="M3915 4472 c-6 -4 -16 -15 -24 -24 -12 -16 -11 -18 7 -18 12 0 23 9
27 21 8 23 4 31 -10 21z"/>
<path d="M4490 4465 c-20 -24 -6 -28 15 -5 10 11 13 20 8 20 -6 0 -16 -7 -23
-15z"/>
<path d="M2539 4444 c-12 -15 -11 -16 11 -9 35 10 49 25 23 25 -11 0 -27 -7
-34 -16z"/>
<path d="M2465 4440 c-3 -5 -1 -10 4 -10 6 0 11 5 11 10 0 6 -2 10 -4 10 -3 0
-8 -4 -11 -10z"/>
<path d="M470 4430 c0 -5 5 -10 10 -10 6 0 10 5 10 10 0 6 -4 10 -10 10 -5 0
-10 -4 -10 -10z"/>
<path d="M547 4433 c-19 -18 -4 -54 35 -86 40 -34 58 -38 58 -16 0 6 -4 8 -8
5 -12 -7 -54 23 -47 34 3 5 -2 13 -11 18 -19 10 -11 32 12 32 8 0 14 5 14 10
0 11 -43 14 -53 3z"/>
<path d="M2777 4433 c-4 -3 -7 -11 -7 -17 0 -6 5 -5 12 2 6 6 9 14 7 17 -3 3
-9 2 -12 -2z"/>
<path d="M2061 4357 c-12 -35 -25 -89 -28 -120 -5 -53 -4 -57 16 -57 35 0 36
1 33 16 -4 19 38 173 49 180 14 8 11 24 -4 24 -12 0 -31 -51 -65 -170 l-10
-35 -1 35 c0 19 12 67 28 105 16 39 27 73 24 78 -10 17 -21 3 -42 -56z"/>
<path d="M2383 4405 c6 -16 31 -17 52 -1 19 14 18 15 -17 13 -21 -1 -36 -6
-35 -12z"/>
<path d="M2445 4369 c-65 -70 -49 -74 20 -5 31 31 50 56 42 56 -8 0 -36 -23
-62 -51z"/>
<path d="M2666 4405 c-3 -9 3 -35 14 -58 16 -35 19 -37 13 -12 -3 17 -7 40 -8
52 -2 30 -11 38 -19 18z"/>
<path d="M2735 4410 c3 -5 10 -10 16 -10 5 0 9 5 9 10 0 6 -7 10 -16 10 -8 0
-12 -4 -9 -10z"/>
<path d="M2973 4404 c-31 -13 -31 -15 -18 -40 7 -15 21 -55 31 -90 17 -63 17
-64 52 -64 34 0 34 1 28 33 -11 56 -49 177 -55 176 -3 0 -20 -7 -38 -15z m43
-49 c20 -48 30 -125 16 -125 -10 0 -52 116 -52 145 0 27 21 16 36 -20z"/>
<path d="M4565 4410 c-3 -6 5 -10 19 -10 28 0 46 -23 39 -50 -3 -12 -11 -16
-24 -13 -10 3 -19 0 -19 -6 0 -6 4 -11 9 -11 5 0 7 -9 4 -20 -8 -31 15 -24 32
10 18 35 20 81 3 98 -15 15 -54 16 -63 2z"/>
<path d="M2011 4379 c-6 -18 -11 -37 -10 -43 0 -6 7 7 15 28 8 22 12 41 10 43
-2 2 -9 -10 -15 -28z"/>
<path d="M3632 4377 c-21 -23 -22 -25 -6 -58 9 -19 24 -42 32 -51 21 -25 8
-52 -22 -44 -26 6 -56 -1 -56 -14 0 -4 13 -13 29 -20 51 -21 46 -74 -13 -129
-33 -31 -33 -51 0 -51 20 0 25 4 20 16 -4 11 1 18 14 21 11 3 18 12 17 22 -1
9 3 17 8 18 6 0 9 -3 8 -7 -1 -4 9 -10 22 -13 14 -2 25 0 25 4 0 5 -8 9 -17 9
-16 1 -16 2 1 15 17 13 21 13 32 -3 19 -28 6 -69 -26 -81 -23 -7 -30 -6 -34 6
-4 11 -2 13 9 9 18 -6 45 2 45 15 0 16 -70 10 -76 -6 -10 -25 15 -46 45 -39
41 10 69 44 73 89 l3 40 -42 3 c-26 2 -43 -1 -43 -7 0 -6 -4 -11 -10 -11 -5 0
-6 9 -1 22 5 15 2 27 -11 40 -10 10 -18 22 -18 26 0 12 42 8 68 -7 31 -17 66
-7 86 23 14 23 14 26 0 40 -29 30 -84 17 -84 -20 0 -13 -4 -24 -10 -24 -5 0
-10 11 -10 24 0 14 -4 28 -10 31 -5 3 -10 15 -10 26 0 10 -6 18 -12 17 -8 -2
-14 10 -16 27 l-4 30 24 -22 c13 -13 30 -23 36 -23 7 0 12 -7 12 -15 0 -8 5
-15 10 -15 20 0 9 28 -17 46 -16 10 -31 18 -35 17 -3 -2 -9 4 -12 12 -4 12 4
15 39 15 24 0 47 5 50 10 4 6 -13 10 -43 10 -38 0 -53 -5 -70 -23z"/>
<path d="M3749 4384 c-11 -14 -10 -20 14 -40 16 -13 36 -24 45 -23 14 0 13 2
-3 9 -14 6 -15 9 -5 10 10 1 7 5 -8 13 -16 7 -22 17 -19 29 6 22 -6 23 -24 2z"/>
<path d="M2151 4327 c-10 -35 -21 -83 -22 -106 l-3 -43 59 0 c70 0 69 -4 24
109 -17 41 -28 81 -25 89 3 8 1 14 -4 14 -5 0 -18 -28 -29 -63z m48 -69 l21
-58 -35 0 c-30 0 -35 3 -35 23 0 24 20 101 24 95 2 -1 13 -29 25 -60z"/>
<path d="M2216 4375 c-3 -8 -1 -15 5 -15 6 0 6 -6 0 -19 -10 -18 -6 -31 10
-31 12 0 19 30 13 56 -7 27 -19 31 -28 9z"/>
<path d="M2890 4358 c-7 -18 -16 -48 -20 -67 -8 -32 -7 -34 32 -49 36 -14 38
-17 22 -29 -12 -9 -21 -10 -30 -2 -7 6 -18 8 -24 4 -19 -12 -2 -22 40 -23 35
-2 40 1 40 21 -1 28 -33 164 -42 172 -3 3 -11 -9 -18 -27z m29 -85 c1 -18 -18
-16 -25 2 -4 8 -3 23 1 33 7 16 8 15 15 -3 5 -11 9 -26 9 -32z"/>
<path d="M2571 4351 c-10 -19 -15 -21 -22 -10 -7 9 -7 5 -3 -13 4 -18 2 -28
-5 -29 -6 -1 -15 -3 -21 -4 -5 -1 -14 -3 -20 -4 -5 0 -9 -11 -9 -23 1 -17 2
-19 6 -5 8 31 32 19 40 -20 4 -21 8 -40 9 -43 1 -3 5 -15 9 -27 8 -25 45 -32
45 -8 0 8 -6 12 -13 9 -9 -3 -18 9 -25 34 -15 49 -15 72 -1 72 7 0 9 10 5 25
-4 14 -3 25 2 25 15 0 32 -50 37 -108 3 -30 7 -57 9 -59 2 -2 15 -1 28 2 35 9
95 70 101 103 6 32 0 44 -8 16 -13 -42 -32 -69 -48 -68 -9 1 -15 -2 -12 -6 4
-7 -36 -40 -48 -40 -2 0 -7 30 -11 67 -4 37 -11 72 -16 78 -4 5 -10 21 -12 35
l-3 25 -14 -24z"/>
<path d="M2640 4360 c0 -5 5 -10 10 -10 6 0 10 5 10 10 0 6 -4 10 -10 10 -5 0
-10 -4 -10 -10z"/>
<path d="M490 4331 c-20 -39 -12 -68 24 -85 34 -16 86 -22 72 -8 -4 4 -11 7
-14 7 -4 1 -18 7 -31 14 -19 11 -22 11 -16 -1 3 -7 -1 -4 -9 6 -20 25 -20 40
-2 56 22 17 59 8 72 -18 8 -16 14 -20 19 -12 11 17 -44 59 -77 60 -17 0 -31
-7 -38 -19z"/>
<path d="M2441 4304 c0 -11 3 -14 6 -6 3 7 2 16 -1 19 -3 4 -6 -2 -5 -13z"/>
<path d="M530 4302 c0 -5 7 -13 16 -16 10 -4 14 -1 12 6 -5 15 -28 23 -28 10z"/>
<path d="M2230 4297 c0 -2 8 -19 18 -38 l17 -34 3 29 c2 16 -2 32 -10 37 -13
9 -28 12 -28 6z"/>
<path d="M2375 4284 c-13 -11 -16 -18 -8 -21 8 -3 9 -12 3 -28 -13 -35 8 -59
41 -47 14 6 38 8 53 5 20 -4 27 -2 22 6 -4 6 -16 11 -26 11 -10 0 -22 5 -25
11 -5 7 -14 4 -27 -8 -20 -18 -20 -18 -17 35 2 28 4 52 4 52 0 0 -9 -8 -20
-16z"/>
<path d="M406 4282 c-3 -6 -1 -14 5 -17 15 -10 25 3 12 16 -7 7 -13 7 -17 1z"/>
<path d="M1983 4231 c-7 -22 -13 -48 -13 -56 0 -45 87 -270 121 -313 12 -16
16 -33 13 -51 -8 -41 16 -57 55 -36 17 8 31 22 31 30 0 22 -10 18 -35 -11 -29
-34 -47 -25 -34 18 7 26 5 36 -12 54 -26 28 -75 130 -95 202 -9 31 -19 62 -23
67 -9 15 -8 69 2 76 5 3 7 18 5 34 -3 25 -4 24 -15 -14z"/>
<path d="M2570 4250 c0 -5 5 -10 10 -10 6 0 10 5 10 10 0 6 -4 10 -10 10 -5 0
-10 -4 -10 -10z"/>
<path d="M2497 4209 c-5 -35 17 -74 35 -63 5 3 2 14 -7 24 -9 10 -14 23 -10
29 3 6 2 18 -3 27 -7 13 -10 10 -15 -17z"/>
<path d="M2751 4216 c-6 -16 -10 -34 -8 -40 3 -6 10 2 16 18 6 16 10 34 8 40
-3 6 -10 -2 -16 -18z"/>
<path d="M2857 4163 c-4 -3 -7 -29 -7 -56 0 -41 3 -50 21 -54 18 -5 20 -11 16
-39 -3 -19 -2 -34 2 -34 13 0 51 95 58 145 l6 45 -45 0 c-25 0 -48 -3 -51 -7z
m67 -21 c-1 -7 -2 -26 -2 -43 -2 -25 -6 -30 -24 -27 -18 2 -24 10 -26 40 -2
28 1 37 15 41 25 6 38 2 37 -11z"/>
<path d="M3030 4161 c-26 -4 -35 -11 -36 -26 0 -11 -3 -39 -7 -62 -7 -39 -6
-42 23 -52 35 -12 32 -16 55 75 17 71 18 75 8 73 -5 -1 -24 -5 -43 -8z m15
-63 c-4 -24 -11 -47 -15 -52 -15 -15 -30 5 -24 32 12 55 16 62 31 62 12 0 13
-8 8 -42z"/>
<path d="M1360 4134 c0 -17 22 -14 28 4 2 7 -3 12 -12 12 -9 0 -16 -7 -16 -16z"/>
<path d="M2245 4140 c-3 -5 -28 -10 -56 -10 -27 0 -49 -4 -49 -8 0 -9 41 -135
46 -141 1 -2 17 13 33 32 17 19 44 40 61 47 l29 12 -22 39 c-23 40 -31 46 -42
29z m-11 -85 l-39 -33 -16 41 -17 42 47 5 c66 7 75 -13 25 -55z"/>
<path d="M2686 4125 c-10 -15 -26 -35 -38 -47 -25 -25 -19 -31 15 -15 16 7 25
18 22 26 -3 8 2 22 11 33 10 10 15 20 12 23 -3 3 -13 -6 -22 -20z"/>
<path d="M2591 4114 c-24 -20 -35 -24 -45 -15 -15 13 -46 5 -46 -12 0 -5 -9
-2 -19 7 -11 10 -26 16 -33 14 -8 -3 -1 -11 17 -20 22 -12 35 -13 52 -5 29 13
40 3 19 -18 -20 -20 -21 -42 -2 -42 7 0 11 7 9 17 -3 10 6 24 24 35 26 17 63
53 63 62 0 7 -10 2 -39 -23z"/>
<path d="M4630 4120 c-13 -11 -27 -20 -32 -20 -4 0 -8 -4 -8 -9 0 -5 8 -7 18
-4 10 2 27 -6 41 -20 19 -21 21 -28 11 -47 -10 -19 -9 -21 6 -18 9 1 22 11 28
21 9 14 5 23 -21 48 -38 35 -39 37 -15 55 9 7 12 14 6 14 -6 0 -21 -9 -34 -20z"/>
<path d="M1542 4118 c3 -7 13 -15 22 -16 12 -3 17 1 14 10 -3 7 -13 15 -22 16
-12 3 -17 -1 -14 -10z"/>
<path d="M2050 4073 c33 -106 59 -156 76 -149 9 3 20 6 26 6 6 0 7 8 3 18 -27
67 -55 150 -55 164 0 14 -8 18 -34 18 l-34 0 18 -57z m30 21 c0 -8 -4 -12 -10
-9 -5 3 -10 10 -10 16 0 5 5 9 10 9 6 0 10 -7 10 -16z m24 -71 c9 -25 14 -48
12 -51 -6 -5 -36 66 -36 84 0 25 8 15 24 -33z"/>
<path d="M2711 4107 c-13 -21 -12 -21 5 -5 10 10 16 20 13 22 -3 3 -11 -5 -18
-17z"/>
<path d="M450 4080 c-12 -8 -11 -36 4 -71 5 -12 1 -18 -14 -22 -36 -9 -17 -32
28 -35 28 -2 47 2 58 12 14 14 12 15 -14 10 -20 -4 -29 -2 -30 8 -2 25 -8 47
-15 54 -13 14 -7 22 21 27 15 3 33 0 40 -6 10 -8 16 -7 23 4 5 8 9 16 9 19 0
9 -96 9 -110 0z"/>
<path d="M2576 4031 c-18 -7 -18 -8 -2 -14 19 -8 36 -1 36 14 0 10 -7 11 -34
0z"/>
<path d="M2850 4010 c0 -11 5 -20 10 -20 6 0 10 9 10 20 0 11 -4 20 -10 20 -5
0 -10 -9 -10 -20z"/>
<path d="M2942 3984 c-22 -33 -22 -54 -1 -54 5 0 9 8 9 19 0 25 23 43 44 35
15 -6 14 -10 -10 -35 -18 -19 -24 -33 -19 -46 6 -15 10 -12 25 18 10 19 26 41
34 48 23 19 20 31 -8 31 -14 0 -28 5 -31 10 -10 17 -19 11 -43 -26z"/>
<path d="M2227 3968 c-32 -38 -32 -40 -8 -62 18 -16 19 -15 31 34 7 28 10 53
8 56 -3 2 -17 -10 -31 -28z"/>
<path d="M4570 3981 c0 -25 6 -27 13 -6 4 8 2 17 -3 20 -6 4 -10 -3 -10 -14z"/>
<path d="M4612 3975 c-6 -14 -10 -25 -7 -25 7 0 35 32 35 41 0 18 -17 9 -28
-16z"/>
<path d="M3720 3980 c0 -5 5 -10 10 -10 6 0 10 5 10 10 0 6 -4 10 -10 10 -5 0
-10 -4 -10 -10z"/>
<path d="M2370 3961 c0 -26 15 -35 17 -11 1 11 -2 22 -8 25 -5 4 -9 -3 -9 -14z"/>
<path d="M2650 3960 c0 -5 7 -10 15 -10 7 0 19 -8 24 -17 6 -10 11 -13 11 -6
0 14 -27 43 -41 43 -5 0 -9 -4 -9 -10z"/>
<path d="M3651 3928 c-29 -56 -24 -73 22 -82 35 -6 35 -7 26 -41 -6 -20 -7
-40 -4 -45 9 -15 41 -12 55 5 11 13 10 14 -3 9 -37 -14 -39 31 -2 58 6 5 4 8
-6 8 -50 0 -93 47 -69 75 6 8 10 24 8 37 -3 20 -7 16 -27 -24z"/>
<path d="M1520 3944 c0 -17 22 -14 28 4 2 7 -3 12 -12 12 -9 0 -16 -7 -16 -16z"/>
<path d="M2440 3941 c0 -17 18 -21 24 -6 3 9 0 15 -9 15 -8 0 -15 -4 -15 -9z"/>
<path d="M2652 3920 c0 -14 2 -19 5 -12 2 6 2 18 0 25 -3 6 -5 1 -5 -13z"/>
<path d="M2890 3924 c0 -19 38 -84 48 -84 4 0 13 9 19 19 10 16 9 22 -3 32
-13 10 -17 10 -23 0 -6 -8 -10 -2 -14 18 -7 32 -27 43 -27 15z"/>
<path d="M4626 3926 c6 -15 4 -17 -14 -12 -17 6 -21 4 -16 -8 3 -9 13 -16 21
-16 8 0 11 -4 8 -10 -3 -5 1 -10 10 -10 26 0 30 30 6 53 -19 19 -21 20 -15 3z"/>
<path d="M385 3910 c-3 -5 1 -10 9 -10 9 0 16 5 16 10 0 6 -4 10 -9 10 -6 0
-13 -4 -16 -10z"/>
<path d="M2151 3902 c-14 -25 -14 -62 -1 -62 10 0 26 68 17 76 -3 3 -10 -3
-16 -14z"/>
<path d="M1336 3889 c6 -8 14 -31 18 -51 6 -31 3 -39 -16 -52 -20 -14 -25 -14
-45 -1 -21 14 -22 14 -14 -7 9 -26 49 -35 81 -18 15 8 20 21 20 50 0 45 8 49
35 20 19 -21 35 -18 35 6 0 8 -7 14 -17 14 -9 0 -37 12 -62 27 -25 14 -41 20
-35 12z"/>
<path d="M2195 3869 c-4 -6 -5 -12 -2 -15 2 -3 7 2 10 11 7 17 1 20 -8 4z"/>
<path d="M2872 3863 c24 -49 32 -63 40 -63 13 0 10 18 -8 45 -14 22 -41 37
-32 18z"/>
<path d="M1540 3835 c0 -9 5 -15 11 -13 6 2 11 8 11 13 0 5 -5 11 -11 13 -6 2
-11 -4 -11 -13z"/>
<path d="M2948 3805 c-23 -31 -39 -44 -51 -41 -10 2 -28 -6 -41 -19 -45 -45
-167 -95 -237 -97 -28 -1 -29 -3 -29 -53 0 -28 -6 -60 -14 -71 -14 -19 -15
-19 -40 5 -18 17 -28 39 -32 72 l-6 47 -47 7 c-50 7 -152 49 -190 77 -29 22
-48 24 -27 3 22 -22 154 -84 196 -91 47 -9 60 -21 60 -54 0 -37 46 -92 74 -88
26 4 46 42 46 89 0 34 3 37 34 43 73 14 133 37 184 71 30 19 60 35 67 35 16 0
116 96 108 104 -13 12 -23 5 -55 -39z"/>
<path d="M4549 3848 c-6 -21 -5 -38 3 -49 8 -11 9 -10 4 3 -3 10 -1 20 4 23
13 8 13 25 0 25 -5 0 -10 -1 -11 -2z"/>
<path d="M2215 3829 c-4 -5 5 -21 19 -34 l26 -24 0 24 c0 16 -6 25 -16 25 -8
0 -12 5 -9 10 3 6 2 10 -4 10 -5 0 -13 -5 -16 -11z"/>
<path d="M2266 3826 c3 -9 11 -16 16 -16 13 0 5 23 -10 28 -7 2 -10 -2 -6 -12z"/>
<path d="M2740 3821 c0 -5 -22 -12 -49 -16 -28 -4 -55 -13 -62 -21 -17 -21 -5
-28 23 -13 12 7 29 14 37 15 43 7 61 16 61 29 0 8 -2 15 -5 15 -3 0 -5 -4 -5
-9z"/>
<path d="M2311 3810 c-10 -6 -34 -51 -29 -54 23 -15 149 -66 164 -66 11 0 25
-5 32 -12 18 -18 23 -5 12 28 -8 22 -24 35 -66 53 -30 13 -57 21 -60 18 -3 -3
17 -15 45 -28 51 -21 66 -39 35 -39 -23 0 -134 51 -134 61 0 13 36 29 62 29
13 0 44 -11 70 -24 42 -20 47 -21 51 -6 3 13 -7 20 -47 31 -51 14 -121 18
-135 9z"/>
<path d="M2764 3788 c-19 -21 -19 -21 8 -14 16 3 30 2 34 -6 5 -7 3 -8 -6 -3
-9 5 -11 4 -6 -3 5 -8 -1 -12 -17 -12 -13 0 -27 -3 -31 -7 -11 -11 -79 -33
-101 -32 -19 0 33 29 79 44 10 3 16 8 13 11 -8 8 -110 -26 -119 -40 -4 -6 -8
-22 -8 -35 0 -17 3 -21 13 -14 6 5 32 15 57 22 55 15 160 63 160 73 0 4 -13
14 -29 22 -27 14 -30 14 -47 -6z"/>
<path d="M2870 3790 c0 -5 5 -10 10 -10 6 0 10 5 10 10 0 6 -4 10 -10 10 -5 0
-10 -4 -10 -10z"/>
<path d="M2510 3763 c0 -26 34 -103 45 -103 8 0 18 21 24 50 14 65 14 62 -8
48 -11 -7 -17 -16 -14 -20 2 -5 1 -17 -3 -26 -6 -13 -9 -9 -13 17 -5 30 -31
58 -31 34z"/>
<path d="M4445 3730 c3 -5 8 -10 11 -10 2 0 4 5 4 10 0 6 -5 10 -11 10 -5 0
-7 -4 -4 -10z"/>
<path d="M1100 3692 c0 -12 19 -26 26 -19 2 2 -2 10 -11 17 -9 8 -15 8 -15 2z"/>
<path d="M515 3681 c-3 -5 -1 -12 5 -16 5 -3 10 1 10 9 0 18 -6 21 -15 7z"/>
<path d="M4342 3655 c0 -40 -13 -60 -42 -68 -13 -3 -24 1 -30 14 -6 10 -17 19
-25 19 -8 0 -15 9 -15 21 0 11 -5 17 -10 14 -6 -4 -8 -11 -5 -16 3 -5 -2 -6
-11 -2 -12 4 -15 3 -10 -5 4 -7 13 -12 20 -12 7 0 23 -11 36 -25 26 -28 71
-33 90 -10 16 19 25 91 12 99 -6 3 -10 -8 -10 -29z"/>
<path d="M1262 3663 c2 -10 12 -18 23 -18 11 0 21 8 23 18 3 13 -3 17 -23 17
-20 0 -26 -4 -23 -17z"/>
<path d="M4070 3651 c-21 -41 -1 -71 49 -71 25 0 54 41 45 64 -9 25 -22 19
-17 -8 3 -13 0 -27 -7 -31 -8 -5 -11 0 -8 13 2 12 0 21 -4 22 -28 1 -30 0 -19
-14 9 -11 9 -16 0 -21 -12 -8 -29 11 -29 33 0 6 5 12 10 12 6 0 10 5 10 10 0
17 -19 11 -30 -9z"/>
<path d="M4256 3655 c-3 -8 -1 -15 4 -15 6 0 10 7 10 15 0 8 -2 15 -4 15 -2 0
-6 -7 -10 -15z"/>
<path d="M3981 3636 c-27 -28 -25 -53 6 -73 20 -14 23 -13 37 16 24 45 19 60
-9 26 -21 -25 -25 -27 -31 -12 -3 10 1 28 10 42 21 32 16 32 -13 1z"/>
<path d="M660 3601 c0 -6 5 -13 10 -16 6 -3 10 1 10 9 0 9 -4 16 -10 16 -5 0
-10 -4 -10 -9z"/>
<path d="M2535 3590 c-8 -13 14 -52 26 -45 15 10 11 55 -5 55 -8 0 -18 -4 -21
-10z"/>
<path d="M4190 3579 c0 -18 -2 -19 -15 -9 -13 10 -15 9 -15 -9 0 -25 35 -29
44 -5 9 24 7 44 -4 44 -5 0 -10 -10 -10 -21z"/>
<path d="M1878 3443 c7 -3 16 -2 19 1 4 3 -2 6 -13 5 -11 0 -14 -3 -6 -6z"/>
<path d="M1983 3443 c37 -2 97 -2 135 0 37 2 6 3 -68 3 -74 0 -105 -1 -67 -3z"/>
<path d="M2668 3443 c7 -3 16 -2 19 1 4 3 -2 6 -13 5 -11 0 -14 -3 -6 -6z"/>
<path d="M2748 3443 c23 -2 59 -2 80 0 20 2 1 4 -43 4 -44 0 -61 -2 -37 -4z"/>
<path d="M2933 3443 c9 -2 23 -2 30 0 6 3 -1 5 -18 5 -16 0 -22 -2 -12 -5z"/>
<path d="M3228 3443 c23 -2 59 -2 80 0 20 2 1 4 -43 4 -44 0 -61 -2 -37 -4z"/>
<path d="M1710 2560 l0 -860 845 0 845 0 0 860 0 860 -845 0 -845 0 0 -860z
m1658 0 l-3 -830 -812 -2 -813 -3 0 832 0 833 815 0 815 0 -2 -830z"/>
<path d="M2151 2581 c-8 -5 -11 -27 -9 -62 l3 -54 80 2 c44 1 197 3 340 5
l260 3 3 53 3 52 -50 0 c-48 0 -51 -2 -51 -26 0 -15 -4 -23 -11 -19 -6 4 -8
13 -5 20 7 20 -19 37 -51 33 -21 -2 -29 -9 -31 -28 -5 -37 -22 -50 -22 -17 0
35 -24 44 -110 42 -36 -1 -93 -3 -127 -4 l-63 -1 -1 -32 c0 -31 -1 -31 -10
-10 -5 13 -7 28 -3 33 6 11 6 11 -72 15 -33 1 -66 -1 -73 -5z m47 -33 c-1 -13
2 -32 5 -43 6 -17 2 -20 -23 -22 -17 -1 -30 2 -30 7 0 6 7 10 15 10 19 0 19
10 0 37 -12 16 -12 22 -2 26 26 11 37 6 35 -15z m82 12 c0 -5 -4 -10 -9 -10
-5 0 -8 -11 -8 -25 0 -15 5 -25 13 -25 8 0 14 -5 14 -11 0 -6 -10 -9 -22 -7
-19 2 -23 10 -24 38 0 19 1 38 3 43 6 11 33 9 33 -3z m70 -9 c0 -10 6 -21 14
-24 9 -4 12 0 9 13 -3 10 0 20 5 24 6 3 12 -12 14 -35 2 -22 0 -43 -4 -45 -4
-3 -8 -1 -8 5 0 6 -10 15 -22 22 -18 10 -20 9 -15 -5 3 -8 2 -18 -3 -21 -6 -4
-10 13 -10 39 0 25 5 46 10 46 6 0 10 -9 10 -19z m111 -21 c5 0 9 9 9 20 0 11
5 20 10 20 6 0 10 -21 10 -47 l0 -48 -20 25 -20 25 0 -23 c0 -13 -4 -20 -10
-17 -12 7 -14 68 -2 79 4 4 8 -2 10 -13 2 -12 8 -21 13 -21z m56 18 c-3 -8 -6
-5 -6 6 -1 11 2 17 5 13 3 -3 4 -12 1 -19z m73 1 c0 -4 -5 -11 -11 -14 -7 -5
-4 -14 7 -26 9 -11 15 -22 12 -25 -3 -3 -15 5 -27 17 -17 19 -21 20 -21 6 0
-9 -4 -17 -8 -17 -7 0 -8 65 -3 76 3 5 51 -10 51 -17z m101 14 c3 -31 7 -50
14 -65 4 -10 4 -18 0 -18 -4 0 -14 8 -22 18 -10 12 -16 14 -19 5 -12 -27 -25
-12 -19 20 9 41 13 47 31 47 8 0 14 -3 15 -7z m104 -12 c7 21 9 20 12 -15 5
-43 -4 -59 -18 -33 -13 23 -29 22 -29 -4 0 -11 -4 -18 -8 -15 -4 2 -6 24 -4
47 l4 42 18 -23 17 -23 8 24z"/>
<path d="M2550 2540 c0 -5 5 -10 10 -10 6 0 10 5 10 10 0 6 -4 10 -10 10 -5 0
-10 -4 -10 -10z"/>
<path d="M2666 2541 c-4 -7 -5 -15 -2 -18 9 -9 19 4 14 18 -4 11 -6 11 -12 0z"/>
<path d="M2858 2583 c-15 -4 -18 -15 -18 -59 l0 -54 36 0 c27 0 37 5 41 20 3
11 14 20 24 20 10 0 21 5 24 10 4 6 -5 10 -19 10 -14 0 -26 5 -26 11 0 7 10 9
25 5 14 -4 25 -2 25 4 0 5 -8 10 -18 10 -10 0 -23 5 -28 10 -13 13 -42 18 -66
13z m52 -22 c0 -5 -7 -11 -15 -15 -21 -8 -19 -44 3 -49 10 -3 5 -5 -12 -6 -25
-1 -28 2 -24 24 3 14 0 29 -6 32 -6 4 -1 10 14 14 36 10 40 10 40 0z"/>
<path d="M2398 1999 c-5 -3 -8 -19 -6 -35 l3 -29 161 -3 c149 -2 162 -1 166
16 3 10 1 28 -3 40 -8 21 -12 22 -160 19 -83 -1 -155 -5 -161 -8z m102 -34 c0
-17 -7 -20 -45 -20 -39 0 -45 2 -45 21 0 18 6 21 45 20 38 -1 45 -4 45 -21z
m210 -1 c0 -19 -4 -22 -37 -19 -21 2 -44 4 -50 4 -7 1 -14 9 -14 19 -1 16 -2
16 -6 0 -3 -11 -14 -18 -28 -18 -14 0 -25 7 -28 18 -4 13 -5 11 -6 -5 -1 -30
-21 -30 -21 0 0 22 3 23 95 23 92 0 95 0 95 -22z"/>
<path d="M850 3143 c0 -15 19 -37 26 -31 3 4 -1 14 -10 23 -9 9 -16 13 -16 8z"/>
<path d="M946 3141 c-4 -7 -5 -15 -2 -18 9 -9 19 4 14 18 -4 11 -6 11 -12 0z"/>
<path d="M4170 3115 c0 -8 4 -15 9 -15 5 0 14 7 21 15 10 13 9 15 -9 15 -12 0
-21 -6 -21 -15z"/>
<path d="M4274 3117 c3 -10 6 -26 6 -35 1 -15 2 -15 11 2 9 14 7 22 -6 35 -17
15 -17 15 -11 -2z"/>
<path d="M735 3099 c-4 -6 -5 -13 -2 -16 7 -7 27 6 27 18 0 12 -17 12 -25 -2z"/>
<path d="M4392 3090 c2 -17 11 -24 31 -27 35 -5 34 1 -4 28 l-31 22 4 -23z"/>
<path d="M1025 3090 c3 -5 15 -10 26 -10 11 0 17 5 14 10 -3 6 -15 10 -26 10
-11 0 -17 -4 -14 -10z"/>
<path d="M4050 3080 c-8 -5 -11 -12 -8 -16 10 -9 38 3 38 16 0 12 -10 13 -30
0z"/>
<path d="M748 3041 c-52 -17 -198 -99 -198 -111 0 -7 137 -80 149 -80 6 0 6
11 0 30 -6 17 -15 30 -21 30 -5 0 -6 -4 -3 -10 9 -14 -1 -13 -35 5 -27 14 -37
53 -11 48 6 -2 11 1 11 7 0 5 15 16 34 25 28 14 38 14 55 3 16 -10 23 -10 33
0 10 10 9 12 -7 10 -11 -2 -21 1 -23 7 -4 12 90 37 101 26 12 -12 -3 -41 -23
-41 -10 0 -20 -7 -24 -15 -3 -8 -1 -15 5 -15 19 0 67 33 72 49 3 9 8 24 12 34
6 14 1 17 -31 16 -22 0 -65 -8 -96 -18z"/>
<path d="M913 3039 c4 -13 7 -30 7 -38 0 -7 6 -11 14 -8 7 3 26 -3 42 -13 l28
-19 -36 -15 c-23 -10 -38 -24 -42 -40 -8 -33 -37 -43 -55 -17 -13 21 -13 21
-38 1 -14 -11 -39 -20 -54 -20 -19 0 -29 -5 -29 -15 0 -8 -8 -15 -17 -15 -17
-1 -17 -1 -1 -11 13 -7 24 -5 41 6 14 8 54 18 90 22 55 5 77 2 127 -17 40 -15
64 -19 68 -13 4 6 16 13 28 17 11 3 47 22 79 41 31 19 66 35 77 35 16 0 18 -5
13 -37 -4 -21 -9 -46 -12 -56 -4 -14 0 -18 14 -15 10 2 17 11 15 21 -5 27 18
20 29 -10 6 -16 10 -30 10 -33 0 -3 7 -12 15 -21 8 -9 12 -24 8 -33 -3 -9 -1
-16 4 -16 13 0 32 -62 32 -102 0 -26 -2 -26 -71 -30 -39 -2 -73 0 -75 4 -3 4
2 21 11 37 11 22 20 29 33 24 16 -6 16 -6 -1 11 -21 22 -47 14 -47 -14 0 -11
-4 -20 -10 -20 -12 0 -13 -40 -2 -55 4 -6 45 -9 99 -7 l92 3 -6 37 c-13 93
-54 198 -100 259 -14 18 -22 37 -18 43 4 6 -8 17 -27 25 -18 9 -54 31 -81 49
-50 37 -127 63 -210 73 -49 6 -50 6 -44 -18z m161 -31 c33 -11 71 -31 83 -44
12 -13 28 -24 35 -24 7 0 -8 -14 -35 -31 -39 -26 -50 -29 -62 -19 -9 7 -18 10
-22 6 -3 -3 -1 -6 5 -6 7 0 12 -4 12 -9 0 -5 -12 -8 -26 -8 -14 0 -30 -5 -36
-11 -13 -13 -78 7 -78 25 0 8 4 11 10 8 5 -3 7 0 5 7 -6 14 39 61 48 52 3 -3
8 0 13 7 5 8 3 10 -5 5 -8 -5 -14 0 -18 13 -3 12 -16 24 -29 27 -13 3 -29 13
-36 21 -11 14 -7 15 32 8 24 -4 71 -16 104 -27z m-14 -153 c-7 -9 -15 -13 -19
-10 -3 3 1 10 9 15 21 14 24 12 10 -5z"/>
<path d="M1000 2930 c-10 -6 -2 -9 28 -7 23 0 42 5 42 9 0 11 -52 10 -70 -2z"/>
<path d="M996 2892 c-2 -4 4 -9 15 -9 11 -1 17 2 14 8 -7 11 -22 12 -29 1z"/>
<path d="M1172 3038 c3 -7 13 -15 24 -17 16 -3 17 -1 5 13 -16 19 -34 21 -29
4z"/>
<path d="M3984 3033 c-3 -10 -19 -28 -37 -40 -17 -13 -27 -23 -20 -23 15 0 73
55 73 69 0 17 -11 13 -16 -6z"/>
<path d="M597 3033 c-12 -12 -7 -22 8 -17 8 4 15 10 15 15 0 11 -14 12 -23 2z"/>
<path d="M4123 3031 c-45 -6 -80 -19 -131 -49 -80 -47 -92 -50 -92 -22 0 11
-4 20 -10 20 -5 0 -10 -4 -10 -8 0 -5 -11 -14 -25 -20 -14 -6 -25 -19 -25 -29
0 -15 3 -14 16 5 20 29 30 28 39 -5 4 -16 10 -22 12 -15 7 18 13 16 101 -34
71 -40 85 -44 114 -37 18 5 71 9 118 8 82 -2 106 -5 160 -19 19 -5 36 0 65 20
22 15 63 39 90 54 28 15 49 31 47 36 -5 15 -31 5 -113 -42 -77 -45 -108 -52
-153 -34 -15 5 -65 12 -112 15 -68 4 -92 2 -110 -10 -22 -14 -27 -13 -76 18
-29 19 -62 37 -72 41 -27 10 -7 27 35 30 19 2 48 10 64 18 60 30 121 39 207
29 94 -11 105 -14 170 -52 26 -16 50 -24 53 -19 8 14 -115 68 -173 76 -29 4
-55 11 -58 16 -4 6 5 8 22 5 16 -3 49 -9 74 -13 51 -7 127 -38 153 -61 17 -16
34 -13 23 5 -3 5 -34 23 -68 40 -56 27 -77 32 -168 36 -58 2 -133 1 -167 -3z
m-77 -52 c-21 -11 -40 -18 -43 -16 -6 6 47 35 67 36 8 1 -3 -8 -24 -20z"/>
<path d="M515 3000 c-4 -6 3 -10 14 -10 25 0 27 6 6 13 -8 4 -17 2 -20 -3z"/>
<path d="M4552 2993 c2 -11 14 -18 33 -20 l30 -2 -24 20 c-29 24 -44 24 -39 2z"/>
<path d="M1260 2983 c0 -5 4 -15 10 -23 11 -18 25 -7 17 15 -6 15 -27 21 -27
8z"/>
<path d="M750 2960 c-8 -5 -12 -11 -9 -14 2 -3 11 -1 19 4 8 5 12 11 9 14 -2
3 -11 1 -19 -4z"/>
<path d="M697 2946 c-3 -8 -2 -18 3 -21 13 -8 20 9 11 24 -6 10 -10 9 -14 -3z"/>
<path d="M4615 2938 c-3 -13 -12 -63 -20 -113 -8 -49 -17 -102 -21 -117 -4
-18 -2 -28 5 -28 6 0 11 7 11 15 0 10 6 12 18 8 14 -6 15 -4 5 8 -7 8 -10 34
-7 63 6 58 10 67 29 59 8 -3 15 0 15 6 0 6 -7 11 -15 11 -11 0 -15 12 -15 45
0 25 5 45 10 45 6 0 10 -5 10 -12 0 -6 2 -9 5 -6 8 7 -5 38 -16 38 -5 0 -11
-10 -14 -22z"/>
<path d="M485 2939 c-4 -6 -5 -13 -2 -16 7 -7 27 6 27 18 0 12 -17 12 -25 -2z"/>
<path d="M741 2914 c-22 -28 -27 -54 -11 -54 6 0 10 9 10 20 0 11 5 20 11 20
5 0 8 4 5 9 -3 5 6 11 19 14 15 2 29 -1 33 -8 5 -9 14 -10 32 -3 20 7 22 11
10 18 -8 5 -32 10 -52 10 -28 0 -42 -6 -57 -26z"/>
<path d="M442 2889 c-12 -19 -11 -19 8 -9 11 6 20 15 20 20 0 17 -15 11 -28
-11z"/>
<path d="M484 2847 c-56 -85 -72 -117 -84 -173 -5 -27 -12 -59 -15 -71 -3 -13
-1 -23 4 -23 6 0 13 17 16 38 10 60 56 159 91 200 21 23 33 31 34 22 0 -9 -6
-22 -12 -29 -11 -10 -9 -11 6 -5 16 6 18 4 14 -14 -4 -12 -2 -25 3 -28 12 -7
11 -44 -1 -44 -6 0 -10 -6 -8 -12 1 -7 -2 -23 -6 -36 -5 -15 -2 -31 8 -46 l15
-23 -55 -2 c-51 -1 -54 0 -50 22 9 51 19 83 30 97 22 30 36 60 27 60 -5 0 -14
-7 -21 -15 -7 -8 -9 -15 -5 -15 5 0 1 -8 -8 -17 -12 -15 -47 -122 -47 -147 0
-3 36 -6 79 -6 l80 0 -24 42 c-25 43 -24 58 1 58 9 0 14 -10 14 -29 0 -17 5
-33 10 -36 16 -10 12 62 -4 78 -8 8 -12 24 -9 35 5 21 -27 182 -37 182 -3 0
-24 -28 -46 -63z"/>
<path d="M1320 2893 c0 -5 7 -17 15 -27 15 -20 20 -10 9 18 -6 16 -24 22 -24
9z"/>
<path d="M3863 2861 c-49 -62 -93 -167 -100 -235 -4 -50 -3 -66 7 -66 10 0 10
-3 1 -14 -41 -49 85 -337 140 -323 14 4 19 0 19 -14 0 -11 10 -23 24 -29 13
-5 27 -13 30 -19 9 -14 115 -61 138 -61 16 0 19 5 16 24 -3 16 0 27 9 30 8 3
11 11 8 16 -10 16 -35 -8 -35 -31 0 -25 -15 -23 -70 6 l-45 24 52 1 c28 0 55
5 59 12 5 7 2 9 -7 6 -14 -5 -119 7 -148 17 -10 4 -11 8 -1 19 15 20 -21 41
-38 24 -9 -9 -15 -9 -23 -1 -8 8 -5 22 9 49 41 81 38 104 -8 64 -21 -18 -21
-20 -4 -20 17 -1 17 -2 3 -13 -9 -7 -14 -18 -11 -25 2 -7 1 -20 -2 -29 -6 -15
-8 -14 -20 3 -17 24 -66 111 -66 117 0 3 11 5 25 5 13 0 40 9 60 21 34 20 62
29 40 13 -5 -4 -19 -18 -30 -31 -22 -27 -9 -22 42 15 17 13 37 24 43 24 7 0 9
7 5 18 -17 44 -34 124 -28 137 3 8 2 27 -3 43 -6 24 -8 21 -15 -27 -5 -40 -4
-60 6 -75 12 -17 12 -26 2 -46 -13 -26 -114 -93 -127 -85 -10 6 -30 103 -33
162 -1 17 -5 29 -9 27 -24 -15 8 102 46 170 14 25 23 46 21 46 -3 0 3 9 12 20
25 29 36 10 37 -64 1 -56 5 -68 24 -81 17 -13 22 -13 22 -3 0 8 -4 18 -9 24
-4 5 -14 48 -21 97 -7 48 -16 87 -19 86 -3 0 -16 -13 -28 -28z m94 -407 c-3
-3 -12 -4 -19 -1 -8 3 -5 6 6 6 11 1 17 -2 13 -5z"/>
<path d="M4688 2849 c-10 -5 -18 -18 -18 -27 1 -15 3 -14 16 3 12 16 16 17 23
6 6 -9 11 -10 15 -2 8 12 0 31 -12 31 -4 0 -15 -5 -24 -11z"/>
<path d="M1376 2843 c-9 -9 -7 -33 3 -33 12 0 22 28 12 34 -5 3 -11 3 -15 -1z"/>
<path d="M3790 2840 c0 -5 9 -10 21 -10 11 0 17 5 14 10 -3 6 -13 10 -21 10
-8 0 -14 -4 -14 -10z"/>
<path d="M822 2812 c-63 -65 -101 -122 -83 -122 6 0 15 10 22 23 6 12 34 46
62 75 28 28 45 52 38 52 -7 0 -25 -13 -39 -28z"/>
<path d="M4467 2822 c-19 -21 -22 -32 -7 -32 10 0 34 39 27 46 -2 2 -11 -4
-20 -14z"/>
<path d="M1091 2821 c-10 -6 -10 -10 -1 -16 13 -8 24 -1 19 14 -3 6 -10 7 -18
2z"/>
<path d="M4167 2798 c-18 -18 -46 -52 -62 -75 -15 -24 -32 -43 -36 -43 -5 0
-9 -4 -9 -10 0 -20 16 -9 49 35 18 25 51 63 72 85 47 48 35 54 -14 8z"/>
<path d="M4050 2811 c0 -5 7 -14 15 -21 13 -10 15 -9 15 9 0 12 -6 21 -15 21
-8 0 -15 -4 -15 -9z"/>
<path d="M4107 2813 c-4 -3 -7 -11 -7 -17 0 -6 5 -5 12 2 6 6 9 14 7 17 -3 3
-9 2 -12 -2z"/>
<path d="M700 2801 c0 -10 30 -24 37 -17 3 2 -5 9 -16 16 -12 6 -21 7 -21 1z"/>
<path d="M980 2800 c0 -6 7 -13 15 -16 8 -4 15 -14 15 -24 0 -19 17 -36 26
-27 3 3 1 13 -5 24 -5 10 -12 26 -15 36 -6 18 -36 24 -36 7z"/>
<path d="M4340 2801 c0 -5 7 -11 15 -15 23 -9 18 -23 -11 -30 -18 -5 -23 -11
-17 -17 23 -23 67 30 48 60 -8 13 -35 15 -35 2z"/>
<path d="M4655 2793 c4 -10 10 -27 13 -38 3 -11 11 -29 18 -40 8 -10 17 -41
20 -67 6 -44 24 -79 24 -46 0 34 -64 208 -76 208 -3 0 -3 -8 1 -17z"/>
<path d="M360 2790 c0 -5 4 -10 9 -10 6 0 13 5 16 10 3 6 -1 10 -9 10 -9 0
-16 -4 -16 -10z"/>
<path d="M1231 2756 c-6 -23 -14 -46 -17 -53 -4 -9 5 -10 30 -6 24 4 36 2 36
-6 0 -7 5 -9 11 -5 13 7 -5 29 -24 29 -7 0 -12 6 -11 13 1 6 2 19 3 27 0 8 8
15 16 15 24 0 17 17 -8 22 -20 4 -25 -1 -36 -36z"/>
<path d="M903 2763 c-15 -5 -18 -33 -4 -33 5 0 11 9 14 20 3 11 4 20 4 19 -1
0 -8 -3 -14 -6z"/>
<path d="M4250 2743 c1 -10 7 -29 15 -43 7 -14 10 -29 6 -35 -4 -5 -5 -36 -3
-67 5 -73 27 -79 27 -8 0 28 -4 50 -8 50 -4 0 -5 16 -1 35 5 26 2 36 -9 41 -9
3 -13 13 -10 25 3 10 0 19 -6 19 -6 0 -11 -8 -11 -17z"/>
<path d="M4730 2730 c0 -11 7 -20 15 -20 17 0 18 2 9 24 -9 23 -24 20 -24 -4z"/>
<path d="M3735 2731 c-3 -6 -8 -41 -10 -78 -3 -47 -2 -60 4 -43 5 14 9 41 10
61 1 19 6 40 12 46 7 7 7 13 1 17 -6 3 -13 2 -17 -3z"/>
<path d="M907 2693 c-4 -25 -5 -26 -11 -8 -8 23 -57 27 -64 5 -3 -7 0 -10 7
-6 14 9 14 6 -4 -37 -21 -51 -19 -90 5 -105 23 -14 28 2 6 23 -11 11 -11 22
-2 59 13 49 36 84 36 53 0 -11 8 -17 21 -17 15 0 19 -4 15 -16 -3 -9 -6 -26
-6 -39 0 -13 -7 -30 -15 -39 -24 -23 -19 -37 9 -25 16 8 22 17 19 30 -3 10 -2
27 2 36 5 10 7 23 5 28 -1 6 -2 24 -2 42 2 41 -15 53 -21 16z"/>
<path d="M1417 2700 c8 -31 23 -34 23 -6 0 16 -6 26 -14 26 -9 0 -12 -7 -9
-20z"/>
<path d="M4207 2703 c-4 -3 -7 -11 -7 -17 0 -6 5 -5 12 2 6 6 9 14 7 17 -3 3
-9 2 -12 -2z"/>
<path d="M330 2680 c0 -5 5 -10 10 -10 6 0 10 5 10 10 0 6 -4 10 -10 10 -5 0
-10 -4 -10 -10z"/>
<path d="M1060 2676 c0 -8 5 -18 10 -21 6 -3 10 3 10 14 0 12 -4 21 -10 21 -5
0 -10 -6 -10 -14z"/>
<path d="M3796 2659 c-8 -42 0 -50 9 -9 4 17 5 34 2 36 -2 3 -7 -10 -11 -27z"/>
<path d="M707 2673 c-8 -8 -9 -76 -1 -96 4 -12 10 -12 30 -3 29 13 32 30 4 23
-21 -5 -26 9 -21 61 2 23 -1 27 -12 15z"/>
<path d="M4215 2637 c-11 -69 -4 -101 23 -105 14 -2 22 2 22 12 0 9 -6 13 -15
10 -20 -8 -31 41 -16 81 13 38 14 45 2 45 -6 0 -13 -19 -16 -43z"/>
<path d="M4420 2666 c0 -9 5 -16 10 -16 6 0 10 4 10 9 0 6 -4 13 -10 16 -5 3
-10 -1 -10 -9z"/>
<path d="M4742 2655 c0 -16 2 -22 5 -12 2 9 2 23 0 30 -3 6 -5 -1 -5 -18z"/>
<path d="M801 2654 c0 -11 3 -14 6 -6 3 7 2 16 -1 19 -3 4 -6 -2 -5 -13z"/>
<path d="M4166 2662 c-5 -9 19 -44 26 -36 8 7 -3 44 -13 44 -4 0 -10 -3 -13
-8z"/>
<path d="M4573 2648 c-19 -9 -23 -19 -23 -58 l0 -47 52 9 c29 5 72 8 95 6 25
-2 43 1 43 7 0 6 -32 9 -85 6 l-85 -3 0 32 c0 20 7 38 18 46 20 16 15 17 -15
2z"/>
<path d="M1295 2640 c3 -5 8 -10 11 -10 2 0 4 5 4 10 0 6 -5 10 -11 10 -5 0
-7 -4 -4 -10z"/>
<path d="M4057 2637 c-8 -21 4 -65 21 -79 14 -11 15 -10 8 7 -5 11 -9 32 -11
48 -2 32 -10 43 -18 24z"/>
<path d="M997 2633 c-4 -3 -7 -11 -7 -17 0 -6 5 -5 12 2 6 6 9 14 7 17 -3 3
-9 2 -12 -2z"/>
<path d="M1442 2620 c0 -14 2 -19 5 -12 2 6 2 18 0 25 -3 6 -5 1 -5 -13z"/>
<path d="M1250 2620 c0 -5 4 -10 9 -10 6 0 13 5 16 10 3 6 -1 10 -9 10 -9 0
-16 -4 -16 -10z"/>
<path d="M4145 2620 c-3 -5 -1 -10 4 -10 6 0 11 5 11 10 0 6 -2 10 -4 10 -3 0
-8 -4 -11 -10z"/>
<path d="M4385 2620 c-4 -6 -13 -9 -21 -6 -7 3 -16 1 -19 -4 -4 -6 -1 -10 6
-10 7 0 6 -8 -5 -25 -12 -18 -13 -23 -3 -19 17 6 61 64 54 70 -3 3 -8 0 -12
-6z"/>
<path d="M950 2604 c0 -8 5 -12 10 -9 6 3 10 10 10 16 0 5 -4 9 -10 9 -5 0
-10 -7 -10 -16z"/>
<path d="M1056 2604 c-9 -22 -8 -24 9 -18 8 4 15 12 15 20 0 19 -16 18 -24 -2z"/>
<path d="M4426 2595 c-20 -30 -21 -41 -2 -26 12 10 29 51 21 51 -1 0 -10 -11
-19 -25z"/>
<path d="M770 2598 c0 -9 7 -19 16 -22 25 -10 27 -1 4 19 -17 15 -20 16 -20 3z"/>
<path d="M4090 2595 c0 -8 5 -15 10 -15 6 0 10 7 10 15 0 8 -4 15 -10 15 -5 0
-10 -7 -10 -15z"/>
<path d="M986 2585 c-3 -9 -13 -15 -22 -13 -9 2 -19 -3 -22 -11 -6 -18 37 -5
63 20 16 16 17 19 3 19 -9 0 -19 -7 -22 -15z"/>
<path d="M4241 2584 c0 -11 3 -14 6 -6 3 7 2 16 -1 19 -3 4 -6 -2 -5 -13z"/>
<path d="M4307 2580 c-3 -11 -1 -20 4 -20 5 0 9 2 9 4 0 2 3 11 6 20 3 9 2 16
-4 16 -5 0 -12 -9 -15 -20z"/>
<path d="M4781 2586 c-9 -10 -8 -15 4 -20 10 -4 15 1 15 14 0 24 -4 25 -19 6z"/>
<path d="M4120 2579 c0 -5 6 -9 14 -9 8 0 22 -3 32 -7 11 -4 15 -2 12 7 -5 15
-58 23 -58 9z"/>
<path d="M1020 2570 c-8 -5 -12 -12 -9 -15 4 -3 12 1 19 10 14 17 11 19 -10 5z"/>
<path d="M3680 2570 c0 -5 12 -10 28 -9 24 0 25 1 7 9 -27 12 -35 12 -35 0z"/>
<path d="M1445 2559 c-10 -15 3 -25 16 -12 7 7 7 13 1 17 -6 3 -14 1 -17 -5z"/>
<path d="M1505 2550 c4 -6 11 -8 16 -5 14 9 11 15 -7 15 -8 0 -12 -5 -9 -10z"/>
<path d="M3848 2553 c6 -2 18 -2 25 0 6 3 1 5 -13 5 -14 0 -19 -2 -12 -5z"/>
<path d="M4708 2518 c-4 -29 -43 -48 -113 -55 -61 -6 -70 -21 -31 -47 30 -19
104 -37 111 -26 2 4 -20 13 -50 20 -30 7 -55 17 -55 21 0 4 24 13 53 19 78 19
107 36 107 65 0 31 -17 33 -22 3z"/>
<path d="M498 2522 c-49 -1 -88 -5 -88 -9 0 -3 8 -22 18 -42 11 -20 27 -54 36
-76 10 -22 22 -48 27 -57 5 -10 6 -24 3 -33 -8 -19 13 -62 32 -69 8 -3 14 1
14 9 0 8 -7 15 -16 15 -8 0 -13 4 -9 9 3 5 2 12 -2 14 -5 3 -7 20 -7 39 1 18
-4 40 -12 48 -7 8 -13 18 -13 23 0 4 -9 28 -21 53 -11 26 -20 48 -20 49 0 1
30 3 67 4 37 1 70 4 74 7 4 2 10 -7 13 -21 5 -19 -3 -37 -29 -75 -19 -27 -32
-50 -29 -50 4 0 27 20 51 45 l45 45 -15 37 c-8 20 -18 37 -23 38 -5 0 -48 -1
-96 -3z"/>
<path d="M925 2514 c-9 -9 -37 -24 -62 -34 -44 -16 -45 -18 -25 -29 13 -7 22
-8 22 -2 0 5 8 12 18 16 24 8 90 64 75 65 -6 0 -19 -7 -28 -16z"/>
<path d="M3718 2500 c2 -16 6 -30 8 -30 2 0 4 14 4 30 0 17 -4 30 -8 30 -5 0
-7 -13 -4 -30z"/>
<path d="M4549 2523 c0 -4 -2 -16 -4 -25 -2 -10 0 -18 5 -18 12 0 20 39 9 46
-5 3 -9 2 -10 -3z"/>
<path d="M4750 2506 c0 -15 -11 -61 -25 -103 -27 -80 -28 -114 -1 -41 32 90
46 152 36 162 -7 7 -10 1 -10 -18z"/>
<path d="M380 2515 c0 -17 69 -178 81 -189 8 -8 9 -4 4 14 -4 14 -12 27 -16
28 -5 2 -7 7 -4 12 2 4 -11 38 -30 76 -19 38 -34 64 -35 59z"/>
<path d="M972 2475 c-23 -25 -52 -50 -65 -54 -18 -8 -19 -10 -6 -16 11 -4 32
10 68 46 44 45 60 69 48 69 -2 0 -22 -20 -45 -45z"/>
<path d="M1046 2496 c-23 -36 -20 -44 5 -12 12 15 19 29 16 32 -2 2 -12 -7
-21 -20z"/>
<path d="M1206 2512 c-3 -5 -9 -27 -14 -49 -9 -37 -7 -40 17 -51 14 -6 37 -19
50 -29 24 -17 24 -17 12 5 -7 13 -23 28 -37 34 -40 19 -28 52 21 59 l40 6 -39
2 c-63 2 -33 13 44 16 61 3 70 1 66 -14 -2 -9 -9 -37 -16 -63 -7 -27 -17 -48
-22 -48 -5 0 -6 -5 -3 -10 3 -6 -4 -24 -15 -41 -12 -16 -19 -33 -15 -37 4 -4
10 -1 12 6 3 7 10 18 17 25 13 13 38 74 60 150 l14 47 -93 0 c-52 0 -96 -4
-99 -8z"/>
<path d="M4326 2475 c-26 -25 -43 -45 -36 -45 14 0 97 77 89 84 -2 3 -26 -15
-53 -39z"/>
<path d="M4255 2492 c-16 -8 -43 -19 -60 -22 l-30 -7 26 -12 c24 -12 29 -10
65 23 43 40 43 41 -1 18z"/>
<path d="M1308 2483 c7 -3 16 -2 19 1 4 3 -2 6 -13 5 -11 0 -14 -3 -6 -6z"/>
<path d="M1430 2470 c0 -19 3 -21 12 -12 9 9 9 15 0 24 -9 9 -12 7 -12 -12z"/>
<path d="M310 2470 c0 -5 7 -10 15 -10 8 0 15 5 15 10 0 6 -7 10 -15 10 -8 0
-15 -4 -15 -10z"/>
<path d="M4711 2463 c-1 -6 -4 -20 -7 -30 -5 -17 -5 -17 6 0 6 10 9 23 6 30
-3 9 -5 9 -5 0z"/>
<path d="M4240 2412 c0 -10 51 -24 59 -16 7 6 -2 12 -32 19 -16 4 -27 3 -27
-3z"/>
<path d="M3737 2394 c-7 -8 4 -44 14 -44 12 0 12 37 0 44 -4 3 -11 3 -14 0z"/>
<path d="M4681 2372 c-7 -17 -19 -33 -27 -36 -8 -3 -14 -15 -14 -26 0 -11 -5
-20 -11 -20 -6 0 -9 9 -6 19 3 13 -3 23 -22 32 l-26 13 40 5 39 6 -42 11 c-23
6 -44 9 -46 5 -4 -6 6 -31 29 -71 13 -23 13 -25 -5 -28 -15 -3 -20 -11 -20
-38 0 -19 4 -34 9 -34 15 0 23 18 11 25 -12 7 -4 25 11 25 6 0 7 -6 3 -12 -5
-9 -2 -9 9 1 25 20 89 129 85 143 -2 6 -10 -3 -17 -20z"/>
<path d="M1225 2361 c-3 -6 3 -23 14 -38 11 -16 23 -41 27 -58 l7 -30 -22 19
c-16 15 -21 16 -21 5 0 -15 19 -39 30 -39 4 0 12 11 18 25 10 21 9 32 -5 58
-10 18 -18 38 -18 46 0 18 -21 26 -30 12z"/>
<path d="M4742 2359 c2 -6 8 -10 13 -10 5 0 11 4 13 10 2 6 -4 11 -13 11 -9 0
-15 -5 -13 -11z"/>
<path d="M560 2350 c0 -5 -6 -10 -13 -10 -20 0 -15 -74 6 -78 14 -3 16 2 11
26 -4 17 -1 32 5 36 14 9 15 36 1 36 -5 0 -10 -4 -10 -10z"/>
<path d="M710 2340 c0 -19 3 -21 12 -12 9 9 9 15 0 24 -9 9 -12 7 -12 -12z"/>
<path d="M987 2353 c-11 -11 -8 -43 4 -43 6 0 9 7 5 15 -3 8 -1 15 4 15 6 0
10 5 10 10 0 11 -13 13 -23 3z"/>
<path d="M4346 2345 c-8 -23 -8 -35 3 -35 13 0 23 32 13 42 -6 6 -12 3 -16 -7z"/>
<path d="M1387 2336 c-6 -15 1 -26 15 -26 11 0 10 27 -1 34 -5 3 -11 0 -14 -8z"/>
<path d="M4070 2333 c0 -12 5 -25 10 -28 13 -8 13 15 0 35 -8 12 -10 11 -10
-7z"/>
<path d="M796 2324 c-9 -24 -2 -26 12 -4 7 11 8 20 3 20 -5 0 -12 -7 -15 -16z"/>
<path d="M4160 2324 c0 -8 5 -12 10 -9 6 3 10 10 10 16 0 5 -4 9 -10 9 -5 0
-10 -7 -10 -16z"/>
<path d="M412 2309 c2 -7 10 -15 17 -17 8 -3 12 1 9 9 -2 7 -10 15 -17 17 -8
3 -12 -1 -9 -9z"/>
<path d="M4680 2244 c0 -9 5 -14 12 -12 18 6 21 28 4 28 -9 0 -16 -7 -16 -16z"/>
<path d="M560 2240 c0 -5 7 -10 15 -10 8 0 15 5 15 10 0 6 -7 10 -15 10 -8 0
-15 -4 -15 -10z"/>
<path d="M3812 2234 c1 -9 9 -19 16 -22 9 -3 13 2 10 14 -1 9 -9 19 -16 22 -9
3 -13 -2 -10 -14z"/>
<path d="M1297 2224 c-8 -8 1 -24 14 -24 5 0 9 7 9 15 0 15 -12 20 -23 9z"/>
<path d="M581 2211 c-12 -8 -12 -12 -2 -25 14 -17 36 -12 25 6 -4 6 1 8 12 5
11 -3 45 -8 77 -12 55 -6 57 -7 57 -36 0 -16 -2 -29 -5 -29 -3 0 -31 14 -62
30 -31 17 -58 28 -61 25 -7 -7 -7 -7 70 -47 l67 -35 3 40 c2 22 9 42 16 45 10
3 11 -7 6 -47 l-7 -51 42 0 c22 0 44 0 48 0 6 0 5 91 -1 97 -3 3 -163 30 -221
37 -27 4 -56 2 -64 -3z m269 -82 c0 -24 -4 -29 -25 -29 -20 0 -25 5 -25 25 0
23 27 48 42 39 5 -3 8 -18 8 -35z"/>
<path d="M1159 2216 c-2 -2 -47 -11 -99 -20 -52 -9 -97 -19 -101 -24 -5 -4
-12 -26 -17 -49 -9 -37 -8 -43 7 -43 11 0 17 10 18 36 1 20 7 42 14 48 9 8 10
1 6 -31 -4 -32 -2 -43 9 -43 36 0 204 78 204 95 0 5 -50 -15 -67 -28 -13 -9
-113 -47 -126 -47 -5 0 -7 12 -5 27 3 25 9 28 73 41 92 18 117 20 133 9 7 -6
16 -7 20 -3 15 16 -53 47 -69 32z"/>
<path d="M4520 2212 c0 -5 -31 -16 -70 -26 -66 -17 -70 -20 -70 -47 0 -16 4
-29 9 -29 22 0 95 32 129 57 20 15 39 29 42 31 5 4 -21 22 -32 22 -5 0 -8 -4
-8 -8z m-46 -51 c6 -10 -28 -21 -59 -20 -16 0 -13 4 10 14 36 17 42 18 49 6z"/>
<path d="M512 2179 c2 -7 10 -15 17 -17 8 -3 12 1 9 9 -2 7 -10 15 -17 17 -8
3 -12 -1 -9 -9z"/>
<path d="M4620 2155 c-8 -9 -8 -15 -2 -15 12 0 26 19 19 26 -2 2 -10 -2 -17
-11z"/>
<path d="M900 2141 c0 -6 5 -13 10 -16 6 -3 10 1 10 9 0 9 -4 16 -10 16 -5 0
-10 -4 -10 -9z"/>
<path d="M1214 2135 c-10 -8 -14 -14 -9 -15 15 0 40 18 34 24 -3 3 -14 -1 -25
-9z"/>
<path d="M3880 2140 c0 -5 5 -10 10 -10 6 0 10 5 10 10 0 6 -4 10 -10 10 -5 0
-10 -4 -10 -10z"/>
<path d="M4170 2118 c0 -24 4 -28 30 -28 17 0 30 5 30 10 0 6 -12 10 -26 10
-14 0 -23 4 -20 9 3 5 40 9 81 9 41 0 75 -4 75 -9 0 -5 -18 -9 -39 -9 -22 0
-43 -5 -46 -11 -5 -7 12 -9 48 -8 53 2 56 4 55 29 l-1 26 -93 0 -94 1 0 -29z"/>
<path d="M3960 2112 c0 -10 43 -52 53 -52 16 0 5 18 -23 38 -16 13 -30 19 -30
14z"/>
<path d="M4520 2095 c-7 -9 -11 -18 -8 -20 3 -3 11 1 18 10 7 9 11 18 8 20 -3
3 -11 -1 -18 -10z"/>
<path d="M620 2090 c0 -5 9 -10 21 -10 11 0 17 5 14 10 -3 6 -13 10 -21 10 -8
0 -14 -4 -14 -10z"/>
<path d="M902 2080 c0 -14 2 -19 5 -12 2 6 2 18 0 25 -3 6 -5 1 -5 -13z"/>
<path d="M1135 2091 c-3 -6 -15 -11 -26 -11 -10 0 -19 -4 -19 -10 0 -5 6 -10
13 -10 18 0 53 27 45 35 -3 3 -9 2 -13 -4z"/>
<path d="M1026 2055 c-3 -8 -1 -15 4 -15 13 0 22 18 11 24 -5 3 -11 -1 -15 -9z"/>
<path d="M714 2045 c21 -16 32 -13 21 4 -3 6 -14 11 -23 11 -15 -1 -15 -2 2
-15z"/>
<path d="M4420 2050 c-8 -5 -12 -12 -9 -15 8 -8 39 5 39 16 0 11 -11 11 -30
-1z"/>
<path d="M4086 2035 c4 -8 15 -15 26 -15 17 0 18 3 8 15 -7 8 -19 15 -26 15
-8 0 -11 -6 -8 -15z"/>
<path d="M810 2030 c0 -5 7 -10 16 -10 8 0 12 5 9 10 -3 6 -10 10 -16 10 -5 0
-9 -4 -9 -10z"/>
<path d="M4175 2030 c-3 -5 3 -10 15 -10 12 0 18 5 15 10 -3 6 -10 10 -15 10
-5 0 -12 -4 -15 -10z"/>
<path d="M865 2021 c-19 -8 -19 -8 3 -20 19 -10 22 -9 22 9 0 11 -1 20 -2 19
-2 0 -12 -4 -23 -8z"/>
<path d="M933 2019 c-25 -9 -30 -19 -10 -19 15 0 43 17 37 23 -3 3 -15 1 -27
-4z"/>
<path d="M4290 2020 c0 -13 20 -13 40 0 12 8 9 10 -12 10 -16 0 -28 -4 -28
-10z"/>
<path d="M4222 1999 c2 -6 8 -10 13 -10 5 0 11 4 13 10 2 6 -4 11 -13 11 -9 0
-15 -5 -13 -11z"/>
<path d="M1713 1163 c4 -285 7 -664 7 -842 0 -178 2 -322 5 -319 3 3 6 381 8
841 2 716 0 837 -12 837 -12 0 -13 -75 -8 -517z"/>
<path d="M1903 1673 c15 -2 37 -2 50 0 12 2 0 4 -28 4 -27 0 -38 -2 -22 -4z"/>
<path d="M2078 1673 c50 -2 134 -2 185 0 50 1 9 3 -93 3 -102 0 -143 -2 -92
-3z"/>
<path d="M2963 1673 c9 -2 23 -2 30 0 6 3 -1 5 -18 5 -16 0 -22 -2 -12 -5z"/>
<path d="M3381 838 c1 -464 3 -832 5 -818 7 58 9 1660 2 1660 -4 0 -7 -379 -7
-842z"/>
<path d="M3904 1565 c-30 -32 -35 -34 -58 -24 -37 17 -56 -2 -56 -58 0 -48 -2
-49 -53 -28 -17 7 -18 3 -16 -33 2 -23 0 -44 -3 -47 -3 -4 -20 1 -38 10 -18 9
-34 14 -37 11 -8 -8 4 -49 22 -71 16 -19 16 -19 10 8 -6 31 14 39 22 8 3 -11
11 -17 18 -14 8 2 11 11 9 18 -3 7 -1 16 5 20 6 3 11 22 11 42 0 29 2 33 14
24 10 -9 20 -9 39 0 22 10 24 16 20 50 -6 43 9 53 33 22 13 -17 13 -17 14 0 0
9 5 17 10 17 6 0 10 -8 11 -17 0 -14 3 -12 10 5 7 19 11 21 23 10 12 -11 12
-15 0 -29 -8 -8 -14 -29 -14 -45 0 -16 -9 -40 -20 -54 -11 -14 -20 -35 -20
-47 0 -14 -6 -23 -15 -23 -8 0 -15 -6 -15 -14 0 -19 17 -30 22 -14 3 9 12 9
38 0 46 -17 68 3 22 20 -37 14 -40 30 -12 60 11 12 20 28 20 35 0 7 7 13 15
13 8 0 15 5 15 10 0 6 -7 10 -15 10 -10 0 -15 9 -14 28 0 15 3 21 6 15 2 -7 9
-13 14 -13 12 0 12 77 -1 85 -5 3 -10 1 -10 -4 0 -6 -5 -11 -11 -11 -8 0 -8 4
0 14 10 12 16 12 42 -2 16 -9 29 -23 29 -29 0 -7 7 -13 15 -13 8 0 15 5 15 11
0 5 4 7 10 4 5 -3 7 -19 3 -36 -5 -28 -5 -29 21 -19 32 12 34 -2 5 -31 -16
-16 -23 -18 -35 -8 -11 9 -14 8 -14 -5 0 -10 4 -15 9 -11 5 3 12 1 16 -5 4 -6
12 -5 21 5 8 8 22 19 31 24 21 11 10 41 -17 48 -22 6 -26 18 -9 28 19 12 3 28
-31 30 -23 2 -41 12 -55 29 -11 14 -25 26 -29 26 -5 0 -24 -16 -42 -35z"/>
<path d="M4108 1557 c-14 -39 -14 -46 -1 -72 11 -20 13 -34 6 -44 -13 -21 3
-81 21 -81 21 0 29 32 11 42 -22 13 -19 45 5 53 11 3 20 10 20 15 0 5 -6 7
-14 4 -9 -4 -21 6 -31 25 -14 29 -14 32 0 37 9 4 14 13 11 20 -8 20 4 17 20
-3 12 -16 13 -17 14 -1 1 61 -40 65 -62 5z"/>
<path d="M2490 1565 c-11 -13 -10 -22 3 -51 10 -19 17 -36 17 -38 0 -2 -24 -7
-54 -10 -89 -12 -122 -27 -41 -19 39 4 80 6 93 6 17 -1 22 5 22 22 0 13 -7 30
-15 39 -8 8 -15 24 -15 36 0 19 4 21 25 16 14 -4 25 -2 25 4 0 16 -46 12 -60
-5z"/>
<path d="M2565 1569 c-4 -6 -4 -13 0 -17 4 -4 10 -1 12 6 3 6 12 12 20 12 12
0 14 -8 9 -39 -3 -22 -8 -46 -11 -54 -5 -11 6 -16 42 -21 49 -6 165 -46 217
-73 21 -11 27 -12 24 -3 -5 16 -181 87 -228 93 -28 3 -34 8 -32 23 3 23 5 54
3 72 -1 15 -47 16 -56 1z"/>
<path d="M907 1534 c-33 -31 -53 -75 -27 -59 9 5 15 -37 11 -72 -2 -15 39 -44
51 -37 5 3 1 12 -8 19 -10 7 -15 19 -11 29 4 9 2 16 -3 16 -11 0 -14 43 -3 54
8 7 33 79 30 83 -2 1 -19 -14 -40 -33z"/>
<path d="M4190 1560 c-12 -8 -13 -11 -1 -19 7 -5 22 -6 32 -4 17 5 18 1 13
-26 -6 -26 -4 -30 10 -25 9 4 16 1 16 -6 0 -7 8 -10 20 -7 22 6 27 -7 8 -19
-7 -5 -5 -11 7 -21 18 -12 17 -13 -6 -14 -13 -1 -27 -1 -30 -1 -3 1 -3 -13 -1
-29 l4 -29 26 25 c14 14 28 42 31 63 5 31 12 39 41 48 31 10 32 12 13 18 -13
4 -34 1 -52 -8 -45 -24 -61 -21 -61 12 0 45 -34 66 -70 42z"/>
<path d="M2530 1540 c0 -5 7 -10 15 -10 10 0 13 -9 10 -35 -3 -19 -1 -35 4
-35 14 0 22 62 10 76 -13 16 -39 19 -39 4z"/>
<path d="M949 1519 c-9 -18 -8 -20 8 -15 22 7 48 -8 39 -22 -3 -6 2 -15 11
-21 12 -7 14 -13 7 -18 -6 -5 -14 -17 -18 -28 l-8 -20 -8 20 c-7 18 -8 19 -15
3 -4 -10 -4 -26 -1 -35 6 -14 12 -10 33 20 14 20 32 37 40 37 16 0 16 5 2 33
-17 32 -51 67 -65 67 -7 0 -18 -9 -25 -21z"/>
<path d="M731 1483 c-22 -62 -25 -117 -7 -132 14 -12 15 -9 10 26 -4 30 -1 45
11 57 10 10 15 25 12 37 -4 16 -3 18 9 8 8 -6 14 -18 14 -25 0 -8 4 -14 8 -14
5 0 14 -12 20 -26 12 -24 11 -25 -15 -22 -16 2 -27 8 -26 14 1 6 -5 11 -12 11
-12 0 -12 -3 -2 -16 20 -26 30 -30 57 -24 36 8 36 9 6 48 l-28 36 28 -4 c27
-3 36 -24 35 -79 0 -10 4 -18 9 -18 11 0 1 92 -12 108 -6 7 -18 11 -27 10 -9
-2 -27 7 -41 19 -14 13 -27 23 -30 23 -3 0 -11 -17 -19 -37z"/>
<path d="M4150 1504 c0 -8 5 -12 10 -9 6 4 8 11 5 16 -9 14 -15 11 -15 -7z"/>
<path d="M4186 1494 c-5 -14 -4 -15 9 -4 17 14 19 20 6 20 -5 0 -12 -7 -15
-16z"/>
<path d="M4402 1493 c2 -10 -5 -26 -14 -35 -22 -22 -25 -46 -3 -28 8 6 18 9
23 6 6 -3 15 1 22 9 10 12 10 21 2 40 -13 28 -35 34 -30 8z"/>
<path d="M957 1476 c-4 -10 -1 -13 9 -9 15 6 19 23 5 23 -5 0 -11 -7 -14 -14z"/>
<path d="M1250 1455 c-10 -12 -15 -13 -20 -4 -5 7 -13 8 -26 1 -11 -5 -43 -10
-72 -10 -64 -1 -82 -10 -57 -29 11 -7 13 -13 7 -13 -7 0 -12 -13 -12 -29 0
-22 6 -31 28 -40 36 -14 59 -9 78 17 17 25 3 30 -16 7 -7 -8 -25 -15 -41 -15
-22 0 -29 5 -29 20 0 11 5 20 11 20 6 0 9 9 6 20 -4 15 0 20 16 20 40 0 68
-12 63 -26 -8 -20 11 -17 22 2 7 13 11 9 16 -22 7 -32 4 -40 -16 -57 l-23 -19
27 16 c37 22 39 21 32 -11 -12 -52 -28 -59 -67 -29 -48 37 -128 62 -222 69
-115 10 -170 -9 -273 -91 -76 -62 -138 -228 -129 -351 2 -31 -1 -34 -28 -38
-25 -3 -85 -50 -85 -67 0 -11 41 -27 51 -20 8 5 8 9 0 14 -20 11 -1 38 37 53
l36 14 18 -33 c10 -19 18 -39 18 -44 0 -6 9 -20 19 -32 19 -19 19 -48 0 -48
-5 0 -9 -13 -9 -30 0 -35 6 -37 34 -11 21 20 21 20 65 -10 44 -29 45 -30 43
-82 -1 -28 2 -71 6 -94 l7 -43 48 41 c30 26 47 49 47 63 0 25 -17 46 -37 46
-11 0 -11 -5 1 -23 13 -20 13 -24 -5 -46 -26 -32 -54 -21 -46 18 4 19 2 32 -6
35 -9 5 -9 7 1 12 6 3 12 12 12 20 0 17 -2 17 51 -1 24 -9 76 -16 116 -16 49
0 73 -4 73 -12 0 -9 2 -9 8 -1 13 21 73 45 93 39 12 -4 27 -22 35 -41 16 -37
34 -43 58 -18 22 21 20 34 -9 69 -21 26 -23 27 -18 7 3 -12 9 -25 14 -28 15
-9 10 -21 -11 -27 -14 -4 -23 3 -35 26 -18 37 -19 41 -2 34 7 -3 19 4 26 14 6
11 16 17 21 14 6 -3 10 0 10 8 0 8 7 17 15 21 8 3 15 10 15 16 0 6 9 20 20 32
19 21 20 21 20 2 0 -16 2 -17 10 -4 9 13 11 13 20 0 6 -8 8 -25 5 -37 -3 -12
-1 -23 5 -25 5 -2 12 -17 16 -34 5 -26 2 -33 -13 -38 -20 -6 -83 19 -83 33 0
4 -6 8 -14 8 -12 0 -12 -3 0 -22 25 -38 77 -53 131 -39 17 5 20 10 14 23 -5 9
-14 42 -21 74 -9 44 -18 61 -38 74 -15 9 -29 18 -31 19 -1 2 0 8 4 14 4 7 19
0 41 -20 41 -35 80 -39 117 -10 14 11 37 20 50 20 35 0 43 16 15 31 -16 9 -23
9 -26 0 -5 -16 -22 -14 -22 4 0 16 -73 39 -101 32 -10 -3 -20 -2 -22 2 -2 3
-2 -1 0 -9 3 -11 1 -12 -7 -4 -23 23 -7 48 35 56 28 6 55 23 91 59 36 35 61
51 87 56 20 3 37 10 37 15 0 5 -13 7 -29 3 -18 -4 -42 0 -66 12 -37 18 -37 18
-32 65 5 36 2 48 -9 52 -26 10 -34 7 -34 -14 0 -14 -7 -20 -21 -20 -11 0 -17
-4 -14 -10 3 -5 17 -10 31 -10 15 0 24 -6 24 -16 0 -13 -3 -14 -13 -5 -16 13
-27 5 -27 -20 0 -12 -5 -16 -15 -13 -8 4 -15 13 -15 21 0 8 -4 11 -10 8 -20
-13 -9 -35 23 -43 27 -7 33 -6 41 12 9 21 10 21 14 -2 3 -18 8 -23 24 -19 17
5 19 2 13 -21 -9 -37 -12 -38 -35 -12 -22 26 -41 20 -19 -6 30 -36 14 -58 -45
-65 -29 -4 -29 -3 -31 52 -2 30 -14 88 -28 127 -25 72 -22 89 10 53 16 -19 17
-19 54 0 22 11 46 33 55 52 9 17 26 40 38 50 21 17 20 17 -21 11 -23 -4 -58
-3 -78 0 -29 6 -35 11 -30 24 17 40 11 47 -36 50 l-47 3 -7 46 c-6 38 -3 49
16 69 12 13 18 24 12 24 -6 0 -16 -7 -23 -15z m-140 -167 c130 -61 199 -182
200 -352 0 -89 -38 -173 -110 -240 -80 -75 -125 -91 -255 -91 -104 0 -113 2
-170 32 -73 38 -124 90 -162 163 -25 50 -28 65 -28 155 0 93 2 105 33 167 39
79 112 148 187 178 75 30 229 24 305 -12z m198 3 c-7 -11 -16 -17 -20 -15 -4
3 -8 -5 -8 -18 0 -19 2 -20 11 -8 9 13 10 13 6 0 -3 -13 -12 -16 -47 -11 -17
2 -11 26 10 39 12 7 18 17 15 22 -3 6 5 10 19 10 23 0 25 -2 14 -19z m24 -55
c5 3 25 3 44 0 l34 -7 -17 -27 c-29 -47 -63 -67 -63 -37 0 8 9 15 20 15 11 0
20 5 20 10 0 12 -27 13 -34 1 -11 -18 -56 -19 -66 -1 -7 13 -4 20 15 28 14 7
25 17 26 24 0 10 2 10 6 0 2 -6 9 -9 15 -6z m108 -436 c0 -3 -5 -12 -10 -20
-8 -12 -13 -13 -30 -2 -11 7 -31 10 -43 7 -16 -4 -28 0 -38 11 -8 10 -9 15 -3
11 7 -4 17 -1 23 6 8 11 20 11 56 3 25 -6 45 -13 45 -16z m-50 -40 c0 -5 -5
-10 -11 -10 -5 0 -7 5 -4 10 3 6 8 10 11 10 2 0 4 -4 4 -10z m-730 -69 c0 -6
-4 -13 -10 -16 -5 -3 -10 -1 -10 5 0 6 -5 8 -12 4 -7 -4 -8 -3 -4 4 9 14 36
16 36 3z"/>
<path d="M912 1205 c-15 -32 -15 -35 -2 -35 6 0 10 6 10 14 0 7 7 19 15 26 12
10 15 10 15 -3 0 -8 -6 -17 -12 -20 -7 -2 -9 -8 -5 -13 10 -10 39 25 34 41 -8
22 -43 16 -55 -10z"/>
<path d="M850 1195 c0 -9 5 -15 11 -13 6 2 11 8 11 13 0 5 -5 11 -11 13 -6 2
-11 -4 -11 -13z"/>
<path d="M1058 1173 c0 -5 -2 -15 -2 -23 -1 -8 -7 -14 -14 -12 -7 1 -12 -5
-12 -13 0 -8 -5 -24 -12 -34 -9 -15 -9 -23 1 -35 14 -16 31 -13 31 6 0 5 -7 8
-15 4 -8 -3 -15 -4 -15 -2 0 11 33 66 39 66 5 0 9 11 9 25 0 23 -6 34 -10 18z"/>
<path d="M772 1158 c-6 -6 -12 -19 -12 -27 0 -13 2 -13 16 1 9 9 15 21 13 27
-3 9 -8 8 -17 -1z"/>
<path d="M945 1145 c4 -11 9 -36 12 -55 3 -27 2 -31 -6 -20 -6 8 -11 24 -11
35 0 15 -2 17 -9 6 -7 -11 -9 -11 -14 0 -3 8 -6 1 -6 -14 -1 -21 -5 -27 -18
-25 -10 2 -19 -4 -21 -14 -2 -10 1 -18 7 -18 6 0 8 7 5 15 -5 11 -2 13 10 9
10 -4 18 0 23 11 6 17 7 17 20 -1 15 -21 17 -38 3 -29 -5 3 -10 1 -10 -4 0
-17 20 -13 26 4 5 12 10 13 20 4 10 -8 14 -8 14 0 0 6 -4 11 -9 11 -5 0 -5 13
2 29 12 31 3 66 -14 55 -6 -3 -16 0 -21 7 -7 10 -8 9 -3 -6z m35 -43 c0 -15
-2 -15 -10 -2 -13 20 -13 33 0 25 6 -3 10 -14 10 -23z"/>
<path d="M816 1124 c-9 -8 -16 -21 -16 -27 0 -8 4 -7 12 1 18 18 27 15 23 -8
-2 -11 0 -20 5 -20 5 0 11 -12 13 -27 4 -28 4 -28 6 3 0 16 -5 36 -11 43 -11
11 -7 13 20 8 17 -4 32 -3 32 2 0 13 -28 21 -47 14 -10 -4 -14 -2 -9 5 11 18
-11 23 -28 6z"/>
<path d="M1003 1120 c-1 -11 2 -18 8 -15 11 7 12 35 1 35 -4 0 -8 -9 -9 -20z"/>
<path d="M1082 1108 c-1 -23 2 -28 8 -18 12 19 13 50 2 50 -5 0 -9 -14 -10
-32z"/>
<path d="M1106 1105 c-3 -8 -2 -23 1 -32 5 -12 2 -15 -9 -11 -10 4 -19 -2 -27
-18 -6 -15 -7 -24 -1 -24 6 0 10 7 10 16 0 10 6 14 15 10 8 -3 16 -2 16 2 10
62 8 89 -5 57z"/>
<path d="M1130 1110 c0 -5 5 -10 10 -10 6 0 10 5 10 10 0 6 -4 10 -10 10 -5 0
-10 -4 -10 -10z"/>
<path d="M1055 1100 c-3 -5 -1 -10 4 -10 6 0 11 5 11 10 0 6 -2 10 -4 10 -3 0
-8 -4 -11 -10z"/>
<path d="M723 1075 c-9 -25 4 -29 17 -6 7 15 7 21 0 21 -6 0 -13 -7 -17 -15z"/>
<path d="M1147 1076 c-4 -10 -5 -21 -2 -24 9 -9 17 6 13 25 -3 17 -4 17 -11
-1z"/>
<path d="M900 1013 c0 -22 2 -25 10 -13 13 20 13 40 0 40 -5 0 -10 -12 -10
-27z"/>
<path d="M875 1019 c-4 -6 -5 -12 -2 -15 2 -3 7 2 10 11 7 17 1 20 -8 4z"/>
<path d="M965 1021 c-3 -5 -1 -12 4 -15 5 -3 11 1 15 9 6 16 -9 21 -19 6z"/>
<path d="M1010 1010 c0 -11 -4 -20 -8 -20 -4 0 -13 -13 -19 -30 -6 -16 -18
-30 -27 -30 -9 0 -16 -4 -16 -10 0 -16 -27 -12 -34 5 -3 8 -12 15 -20 15 -9 0
-12 7 -9 21 4 14 9 17 16 10 13 -13 27 -14 27 -2 0 14 -37 20 -49 8 -7 -7 -13
-4 -18 11 -6 15 -12 19 -22 13 -16 -10 -6 -31 15 -31 8 0 14 -6 14 -14 0 -18
56 -66 76 -66 9 0 12 5 9 11 -4 6 2 13 14 16 11 3 23 14 26 24 7 21 20 25 30
9 8 -13 25 -13 25 1 0 5 -4 8 -9 5 -11 -7 -23 22 -15 36 4 5 13 3 24 -7 16
-15 18 -15 24 0 9 25 7 29 -10 15 -13 -11 -16 -10 -21 8 -7 28 -23 29 -23 2z"/>
<path d="M1080 1000 c0 -5 5 -10 10 -10 6 0 10 5 10 10 0 6 -4 10 -10 10 -5 0
-10 -4 -10 -10z"/>
<path d="M960 969 c0 -5 5 -7 10 -4 6 3 10 8 10 11 0 2 -4 4 -10 4 -5 0 -10
-5 -10 -11z"/>
<path d="M1075 970 c-3 -6 1 -7 9 -4 18 7 21 14 7 14 -6 0 -13 -4 -16 -10z"/>
<path d="M1043 921 c-10 -10 -27 -23 -38 -29 -14 -8 -16 -11 -5 -12 14 0 70
44 70 55 0 10 -10 5 -27 -14z"/>
<path d="M1170 920 c-12 -8 -11 -10 8 -10 12 0 22 5 22 10 0 13 -11 13 -30 0z"/>
<path d="M647 893 c-20 -32 31 -127 83 -153 15 -8 8 3 -19 27 -38 34 -45 46
-50 89 -4 29 -9 44 -14 37z"/>
<path d="M1107 840 c-3 -11 -1 -23 4 -26 5 -3 9 6 9 20 0 31 -6 34 -13 6z"/>
<path d="M1069 768 c4 -32 5 -32 11 -8 7 26 4 40 -9 40 -4 0 -5 -15 -2 -32z"/>
<path d="M861 774 c0 -11 3 -14 6 -6 3 7 2 16 -1 19 -3 4 -6 -2 -5 -13z"/>
<path d="M1174 744 c-18 -14 -18 -15 4 -4 12 6 22 13 22 15 0 8 -5 6 -26 -11z"/>
<path d="M770 740 c0 -5 5 -10 10 -10 6 0 10 5 10 10 0 6 -4 10 -10 10 -5 0
-10 -4 -10 -10z"/>
<path d="M842 730 c-7 -11 -8 -20 -3 -20 9 0 24 30 18 36 -1 2 -8 -6 -15 -16z"/>
<path d="M4225 1460 c3 -5 8 -10 11 -10 2 0 4 5 4 10 0 6 -5 10 -11 10 -5 0
-7 -4 -4 -10z"/>
<path d="M3967 1446 c-3 -8 -2 -18 3 -21 13 -8 24 15 12 27 -6 6 -11 4 -15 -6z"/>
<path d="M2321 1431 c-10 -6 -10 -10 -1 -16 13 -8 24 -1 19 14 -3 6 -10 7 -18
2z"/>
<path d="M2238 1402 c-16 -15 -28 -33 -28 -40 0 -17 -8 -15 -37 8 -48 38 -48
20 0 -25 44 -42 58 -65 38 -65 -5 0 -14 7 -21 15 -17 21 -27 19 -34 -8 -3 -13
-17 -36 -31 -51 -14 -15 -25 -29 -25 -32 0 -7 51 -57 54 -53 1 2 15 25 30 52
15 26 31 45 36 42 11 -7 3 -29 -26 -75 -25 -37 -50 -102 -63 -162 l-9 -38 68
0 69 0 -29 85 c-26 78 -28 88 -14 113 l14 27 1 -25 c1 -14 1 -28 0 -32 0 -4 6
-5 15 -1 8 3 13 11 10 19 -6 15 -24 115 -30 166 -4 33 0 42 31 73 19 19 29 35
22 34 -8 0 -26 -12 -41 -27z m-48 -146 c-1 -18 -26 -46 -35 -38 -5 4 -6 -1 -2
-10 5 -15 -15 -33 -25 -22 -10 9 37 91 50 86 6 -2 12 -9 12 -16z m16 -191 c24
-58 19 -75 -22 -75 -32 0 -35 2 -29 23 13 43 29 87 33 87 1 0 10 -16 18 -35z"/>
<path d="M2420 1396 c-52 -18 -113 -40 -134 -49 l-40 -15 35 -17 c19 -10 48
-28 66 -41 17 -13 34 -20 37 -16 8 13 -6 28 -44 47 l-35 18 24 16 c34 22 157
60 170 52 14 -9 -78 -50 -119 -53 -17 -1 -29 -7 -26 -13 5 -13 7 -13 98 16 76
23 78 25 78 57 0 17 -3 32 -7 32 -5 0 -51 -15 -103 -34z"/>
<path d="M2556 1414 c-9 -24 -7 -54 4 -54 6 0 10 16 10 35 0 38 -4 44 -14 19z"/>
<path d="M4150 1420 c0 -5 5 -10 11 -10 5 0 7 5 4 10 -3 6 -8 10 -11 10 -2 0
-4 -4 -4 -10z"/>
<path d="M2590 1386 c0 -28 4 -36 18 -36 9 0 48 -11 87 -24 99 -34 105 -19 7
18 -76 29 -109 55 -59 47 48 -7 140 -40 158 -57 18 -17 18 -18 -20 -45 l-38
-29 -54 16 c-30 9 -60 21 -67 27 -9 7 -16 6 -25 -5 -7 -9 -25 -15 -42 -14 -23
1 -31 6 -33 24 -3 18 -8 22 -20 17 -9 -4 -30 -12 -47 -17 -41 -14 -47 -22 -50
-56 l-2 -28 54 17 c94 31 117 33 192 10 80 -24 85 -23 180 44 83 59 94 59 85
0 -3 -25 -7 -58 -8 -73 -1 -15 -7 -37 -14 -49 -15 -28 -15 -33 2 -33 15 0 26
30 26 73 0 18 4 27 13 25 16 -6 21 -56 6 -74 -17 -20 -7 -17 27 9 35 26 34 54
-2 88 -27 25 -31 39 -10 39 7 0 19 7 26 15 15 18 7 19 -21 4 -17 -9 -21 -7
-26 10 -7 28 -52 40 -65 17 -12 -21 -27 -20 -52 3 -26 23 -117 57 -179 66
l-47 7 0 -36z m-93 -83 c-4 -3 -2 -12 4 -20 9 -10 4 -13 -25 -13 -20 0 -36 -4
-36 -10 0 -5 -4 -10 -10 -10 -19 0 2 27 33 42 39 19 42 20 34 11z"/>
<path d="M3800 1413 c0 -12 20 -39 20 -28 0 6 5 3 10 -5 8 -12 10 -11 10 6 0
12 -7 25 -16 28 -20 8 -24 8 -24 -1z"/>
<path d="M4465 1411 c-3 -5 5 -11 17 -13 26 -3 38 -38 14 -38 -9 0 -16 -5 -16
-11 0 -6 7 -8 16 -5 9 3 20 6 25 6 16 0 10 57 -7 64 -23 9 -42 7 -49 -3z"/>
<path d="M1146 1394 c-4 -9 -4 -19 -1 -22 2 -3 7 3 11 12 4 9 4 19 1 22 -2 3
-7 -3 -11 -12z"/>
<path d="M4435 1401 c-3 -5 -2 -12 3 -15 5 -3 9 1 9 9 0 17 -3 19 -12 6z"/>
<path d="M608 1384 c-16 -8 -28 -19 -28 -25 0 -7 -12 -8 -30 -4 -36 8 -37 4
-5 -51 l26 -43 -28 -7 c-16 -4 -48 -15 -73 -24 -25 -10 -53 -21 -63 -24 -15
-5 -12 -12 26 -51 45 -46 61 -53 72 -35 4 6 9 8 13 6 4 -2 16 2 27 10 19 14
19 15 -7 10 -15 -2 -32 -7 -37 -10 -5 -4 -13 -2 -16 4 -9 14 14 41 31 38 7 -2
12 2 11 7 -2 11 -17 11 -57 0 l-25 -7 25 21 c14 11 41 26 60 32 47 15 54 24
52 62 -2 26 4 37 33 60 22 18 32 22 28 11 -4 -12 0 -15 18 -12 22 3 24 0 23
-35 -1 -27 2 -35 10 -28 19 16 7 79 -17 96 -26 18 -35 18 -69 -1z"/>
<path d="M1030 1385 c0 -8 -6 -15 -12 -15 -9 0 -8 -3 2 -10 11 -7 17 -5 22 8
10 25 9 32 -2 32 -5 0 -10 -7 -10 -15z"/>
<path d="M3994 1392 c-14 -9 -43 -102 -33 -102 5 0 9 3 9 8 0 4 10 18 21 32
11 14 18 19 14 13 -4 -9 1 -13 14 -13 16 0 21 6 21 25 0 25 -29 49 -46 37z"/>
<path d="M4330 1380 c0 -5 5 -10 10 -10 6 0 10 5 10 10 0 6 -4 10 -10 10 -5 0
-10 -4 -10 -10z"/>
<path d="M2260 1369 c0 -5 5 -7 10 -4 6 3 10 8 10 11 0 2 -4 4 -10 4 -5 0 -10
-5 -10 -11z"/>
<path d="M4373 1373 c-7 -2 -13 -18 -13 -34 0 -25 -3 -28 -17 -21 -47 24 -273
33 -298 12 -7 -6 -32 -21 -57 -34 -61 -33 -84 -53 -117 -106 -40 -63 -59 -123
-69 -209 -12 -106 17 -195 87 -272 22 -24 41 -47 41 -51 0 -5 6 -8 14 -8 7 0
19 -7 26 -15 7 -8 42 -24 79 -36 53 -16 87 -20 176 -17 109 3 109 3 116 -22 4
-14 7 -41 7 -60 1 -28 -1 -31 -8 -15 -7 16 -9 13 -9 -17 -1 -46 9 -48 43 -7
25 29 36 67 17 55 -5 -3 -14 1 -21 9 -11 13 -8 15 14 15 31 0 34 18 6 48 -19
20 -12 40 10 27 6 -3 10 1 10 9 0 9 5 16 10 16 6 0 22 11 35 25 23 22 25 23
25 5 0 -11 4 -20 9 -20 11 0 22 -40 14 -53 -3 -6 -12 -2 -21 9 -14 18 -14 18
-9 -6 10 -41 -2 -70 -29 -70 -13 0 -24 -5 -24 -11 0 -6 14 -9 33 -7 26 2 33 8
35 28 2 14 12 33 23 43 23 21 24 37 4 63 -8 10 -15 29 -15 42 0 18 5 22 29 22
16 0 36 -7 45 -15 37 -38 35 4 -2 47 -28 30 -29 30 -28 8 1 -13 -4 -25 -10
-27 -22 -8 -9 42 14 52 12 5 22 18 22 30 0 17 -2 18 -11 5 -8 -11 -9 -9 -3 10
8 32 8 32 28 24 11 -4 15 -12 10 -23 -13 -31 -16 -71 -5 -71 6 0 11 -6 11 -14
0 -20 19 -31 32 -18 7 7 3 14 -11 21 -15 8 -21 21 -21 45 0 35 15 46 67 46 12
0 24 4 27 9 8 13 -24 72 -35 65 -5 -3 -7 -10 -4 -15 3 -5 0 -6 -8 -3 -8 3 -17
-2 -20 -10 -5 -12 0 -16 19 -16 14 0 23 -4 19 -9 -6 -11 -66 -8 -84 4 -7 4
-10 25 -7 53 2 26 5 56 5 68 1 17 6 20 30 16 16 -2 32 1 35 7 5 7 1 9 -8 5 -9
-3 -16 -1 -16 5 0 6 13 11 28 11 25 0 29 -3 27 -28 -1 -25 1 -28 22 -24 32 6
37 19 13 32 -11 6 -20 16 -19 23 3 26 -2 37 -16 37 -8 0 -15 -4 -15 -10 0 -5
-7 -10 -16 -10 -14 0 -14 3 -4 15 10 12 10 18 0 30 -14 17 -36 20 -44 6 -4 -5
2 -7 13 -4 27 7 35 -23 10 -40 -12 -9 -17 -20 -13 -31 7 -18 -4 -21 -26 -5
-11 8 -12 12 -2 16 15 6 16 24 0 20 -6 -1 -17 18 -25 42 -7 25 -17 49 -23 55
-23 23 -10 36 39 36 30 0 51 5 54 13 3 7 6 5 6 -6 1 -10 -11 -29 -25 -42 -15
-14 -21 -25 -15 -25 15 0 30 15 55 54 19 30 11 45 -24 46 -9 0 -21 5 -28 12
-17 17 -28 2 -12 -17 7 -8 9 -15 4 -16 -55 -5 -81 -2 -96 14 -23 22 -23 27 3
27 12 0 17 4 13 11 -3 6 -19 9 -35 5 -30 -6 -41 7 -14 17 9 4 13 17 12 37 -3
39 -16 39 -23 0 -7 -32 -15 -36 -44 -20 -14 8 -18 19 -16 50 2 22 3 40 2 39
-1 0 -7 -3 -13 -6z m-46 -76 c139 -48 240 -209 230 -362 -6 -87 -32 -154 -83
-215 -77 -93 -159 -125 -307 -118 -76 3 -103 9 -149 31 -68 33 -131 99 -166
175 -37 77 -37 207 -2 297 39 100 136 182 243 205 57 12 182 5 234 -13z m58
-727 c3 -5 -1 -10 -9 -10 -9 0 -16 5 -16 10 0 6 4 10 9 10 6 0 13 -4 16 -10z"/>
<path d="M4190 1214 c-10 -24 -12 -25 -23 -10 -13 18 -47 13 -47 -6 0 -6 8 -7
17 -4 9 4 19 2 23 -4 11 -18 56 -1 57 20 3 31 -16 34 -27 4z"/>
<path d="M4070 1190 c0 -5 4 -10 9 -10 6 0 13 5 16 10 3 6 -1 10 -9 10 -9 0
-16 -4 -16 -10z"/>
<path d="M4235 1180 c-3 -5 1 -10 9 -10 8 0 18 5 21 10 3 6 -1 10 -9 10 -8 0
-18 -4 -21 -10z"/>
<path d="M4003 1150 c-12 -31 -6 -39 15 -18 13 13 16 48 4 48 -4 0 -13 -13
-19 -30z"/>
<path d="M4273 1150 c-1 -11 2 -22 8 -25 5 -4 9 3 9 14 0 26 -15 35 -17 11z"/>
<path d="M4187 1136 c-15 -14 -27 -33 -27 -44 0 -18 29 -65 30 -48 0 5 6 3 14
-3 12 -10 13 -8 9 8 -6 24 -19 27 -26 9 -3 -7 -6 -1 -6 15 -1 15 -1 30 -2 34
0 4 4 9 10 11 6 2 8 -3 5 -11 -3 -8 -1 -18 4 -21 5 -3 8 8 6 26 -3 24 -1 29 7
21 6 -6 12 -23 12 -37 0 -14 3 -24 7 -21 12 7 19 55 8 55 -5 0 -6 5 -2 12 4 6
3 8 -4 4 -5 -3 -12 -1 -14 5 -2 6 -16 -1 -31 -15z"/>
<path d="M4056 1133 c-4 -9 -1 -23 7 -30 12 -12 14 -9 14 17 0 33 -11 40 -21
13z"/>
<path d="M4315 1141 c-6 -11 9 -23 19 -14 9 9 7 23 -3 23 -6 0 -12 -4 -16 -9z"/>
<path d="M4132 1123 c-8 -14 -9 -24 -2 -28 12 -7 24 18 18 37 -3 8 -9 5 -16
-9z"/>
<path d="M4090 1118 c0 -9 7 -22 17 -29 15 -13 15 -12 3 11 -17 34 -20 36 -20
18z"/>
<path d="M4270 1088 c1 -21 2 -21 11 -5 6 9 15 14 21 11 7 -4 8 -2 4 4 -12 21
-36 13 -36 -10z"/>
<path d="M4360 1092 c0 -11 -3 -27 -6 -36 -4 -10 -1 -16 9 -16 12 0 15 8 12
31 -5 37 -15 52 -15 21z"/>
<path d="M4322 1055 c0 -25 4 -48 9 -51 4 -2 7 18 6 46 -3 62 -17 67 -15 5z"/>
<path d="M4390 1081 c0 -12 5 -21 10 -21 6 0 10 6 10 14 0 8 -4 18 -10 21 -5
3 -10 -3 -10 -14z"/>
<path d="M3967 1083 c-10 -9 -9 -23 2 -23 5 0 11 7 15 15 5 15 -5 20 -17 8z"/>
<path d="M4085 1070 c3 -5 -1 -10 -9 -10 -9 0 -16 -4 -16 -10 0 -5 7 -10 15
-10 8 0 15 2 15 4 0 2 3 11 6 20 3 9 1 16 -6 16 -6 0 -8 -4 -5 -10z"/>
<path d="M4130 1072 c0 -5 7 -17 15 -28 15 -19 20 -8 9 20 -6 17 -24 22 -24 8z"/>
<path d="M4114 1052 c3 -5 2 -12 -3 -14 -5 -1 -12 -19 -16 -39 -5 -29 -3 -36
9 -36 18 0 21 13 6 22 -7 4 -7 11 -2 18 17 22 21 46 10 53 -6 4 -8 3 -4 -4z"/>
<path d="M4230 1041 c0 -11 5 -23 10 -26 6 -4 10 5 10 19 0 14 -4 26 -10 26
-5 0 -10 -9 -10 -19z"/>
<path d="M4268 1005 c-2 -19 0 -35 4 -35 4 0 8 9 8 19 0 11 3 26 6 35 3 9 2
16 -4 16 -5 0 -12 -16 -14 -35z"/>
<path d="M4169 1013 c0 -11 -3 -13 -6 -5 -2 6 -9 9 -14 6 -6 -3 -5 -12 2 -21
10 -11 10 -19 1 -34 -14 -22 -7 -25 12 -6 7 7 11 18 9 24 -3 7 1 21 7 32 7 14
7 21 0 21 -5 0 -10 -8 -11 -17z"/>
<path d="M4060 1006 c0 -8 5 -18 10 -21 6 -3 10 1 10 9 0 8 -4 18 -10 21 -5 3
-10 -1 -10 -9z"/>
<path d="M4207 1013 c-4 -3 -7 -19 -7 -34 0 -15 -7 -32 -16 -37 -13 -7 -14
-11 -4 -17 7 -4 16 -2 21 6 8 14 12 15 44 18 9 1 12 7 8 17 -6 15 -8 15 -20
-2 -12 -17 -13 -17 -15 2 0 10 -1 27 0 37 2 18 -1 21 -11 10z"/>
<path d="M4301 984 c0 -11 3 -14 6 -6 3 7 2 16 -1 19 -3 4 -6 -2 -5 -13z"/>
<path d="M4320 980 c0 -5 5 -10 10 -10 6 0 10 5 10 10 0 6 -4 10 -10 10 -5 0
-10 -4 -10 -10z"/>
<path d="M4117 943 c-11 -17 21 -39 35 -25 9 9 8 12 -4 12 -9 0 -18 5 -20 12
-3 8 -6 9 -11 1z"/>
<path d="M4287 933 c3 -7 9 -10 14 -7 14 8 11 21 -5 21 -8 0 -12 -6 -9 -14z"/>
<path d="M4259 933 c-1 -5 -1 -11 0 -15 1 -12 -37 -29 -43 -19 -3 5 -18 8 -33
8 l-28 0 33 -14 c34 -14 77 -9 89 10 4 6 1 13 -5 15 -7 2 -10 8 -6 13 3 5 3 9
0 9 -3 0 -7 -3 -7 -7z"/>
<path d="M3928 913 c7 -3 16 -2 19 1 4 3 -2 6 -13 5 -11 0 -14 -3 -6 -6z"/>
<path d="M4408 903 c6 -2 18 -2 25 0 6 3 1 5 -13 5 -14 0 -19 -2 -12 -5z"/>
<path d="M3884 845 c8 -31 43 -80 65 -89 7 -4 -1 10 -18 29 -17 20 -31 44 -31
55 0 10 -5 22 -11 26 -9 5 -10 -1 -5 -21z"/>
<path d="M4348 831 c-3 -17 -1 -31 3 -31 11 0 19 44 10 53 -5 5 -11 -5 -13
-22z"/>
<path d="M4300 786 c0 -14 5 -28 10 -31 6 -3 10 5 10 19 0 14 -4 28 -10 31 -6
3 -10 -5 -10 -19z"/>
<path d="M4461 794 c0 -11 3 -14 6 -6 3 7 2 16 -1 19 -3 4 -6 -2 -5 -13z"/>
<path d="M4111 773 c-10 -26 -10 -27 4 -9 8 11 15 23 15 28 0 15 -7 8 -19 -19z"/>
<path d="M3980 770 c0 -5 5 -10 10 -10 6 0 10 5 10 10 0 6 -4 10 -10 10 -5 0
-10 -4 -10 -10z"/>
<path d="M4409 739 c-23 -19 -23 -20 -2 -10 12 6 25 16 28 21 10 16 -1 12 -26
-11z"/>
<path d="M4005 730 c3 -5 11 -10 16 -10 6 0 7 5 4 10 -3 6 -11 10 -16 10 -6 0
-7 -4 -4 -10z"/>
<path d="M4086 731 c-4 -7 -5 -15 -2 -18 9 -9 19 4 14 18 -4 11 -6 11 -12 0z"/>
<path d="M2081 1353 c-1 -12 4 -25 9 -28 12 -7 12 2 0 30 -8 19 -9 19 -9 -2z"/>
<path d="M3780 1356 c0 -1 5 -18 11 -36 10 -26 14 -29 21 -17 5 11 4 24 -4 37
-11 17 -28 27 -28 16z"/>
<path d="M4400 1325 c0 -9 6 -12 15 -9 8 4 15 10 15 15 0 5 -7 9 -15 9 -8 0
-15 -7 -15 -15z"/>
<path d="M4529 1326 c8 -9 20 -16 27 -16 19 0 18 -26 -2 -34 -17 -7 -10 -26
10 -26 14 0 29 60 17 71 -3 4 -19 10 -35 13 -26 6 -28 5 -17 -8z"/>
<path d="M725 1320 c3 -5 8 -10 11 -10 2 0 4 5 4 10 0 6 -5 10 -11 10 -5 0 -7
-4 -4 -10z"/>
<path d="M2110 1310 c0 -11 -14 -34 -30 -52 -17 -17 -33 -43 -36 -57 -3 -14
-10 -35 -14 -46 -13 -28 -40 -125 -38 -133 1 -4 -4 -18 -11 -31 -7 -12 -11
-30 -8 -40 3 -9 16 -54 30 -101 25 -89 55 -154 94 -207 13 -18 23 -46 23 -64
0 -42 6 -35 14 17 5 35 3 42 -12 46 -27 7 -91 144 -105 221 -6 37 -15 67 -19
67 -4 0 -8 14 -8 31 0 23 4 30 14 26 11 -5 13 1 9 28 -5 32 19 127 40 153 5 6
7 12 3 12 -11 0 23 58 49 84 25 25 34 66 15 66 -5 0 -10 -9 -10 -20z"/>
<path d="M2550 1320 c0 -5 5 -10 10 -10 6 0 10 5 10 10 0 6 -4 10 -10 10 -5 0
-10 -4 -10 -10z"/>
<path d="M2997 1289 c-3 -13 5 -36 22 -62 34 -51 70 -157 74 -215 1 -32 6 -42
20 -42 10 0 17 -8 17 -20 0 -11 -6 -20 -14 -20 -9 0 -16 -17 -21 -46 -15 -104
-76 -231 -116 -241 -10 -3 -19 -9 -19 -13 0 -12 52 -51 59 -44 3 3 -2 11 -12
18 -22 17 -22 18 13 56 37 40 63 98 86 190 9 38 21 70 25 70 5 0 9 14 9 30 0
20 -5 30 -15 30 -10 0 -15 11 -15 35 0 42 -40 162 -72 213 -12 20 -21 46 -20
59 2 29 -14 30 -21 2z"/>
<path d="M3611 1278 l-44 -20 29 -24 c16 -13 36 -23 44 -23 11 0 8 5 -8 19
-13 11 -18 21 -12 25 5 3 10 3 10 -1 0 -4 9 1 20 11 20 18 27 36 13 34 -5 0
-28 -10 -52 -21z"/>
<path d="M4505 1290 c-3 -5 -2 -10 4 -10 5 0 13 5 16 10 3 6 2 10 -4 10 -5 0
-13 -4 -16 -10z"/>
<path d="M607 1272 c2 -11 15 -19 31 -20 l27 -2 -25 20 c-31 24 -39 25 -33 2z"/>
<path d="M3695 1280 c3 -5 8 -10 11 -10 2 0 4 5 4 10 0 6 -5 10 -11 10 -5 0
-7 -4 -4 -10z"/>
<path d="M2540 1239 c-56 -33 -120 -107 -120 -138 0 -11 3 -11 15 -1 8 7 15
18 15 24 0 19 89 105 116 112 13 3 24 10 24 15 0 14 -12 11 -50 -12z"/>
<path d="M3662 1248 c5 -15 28 -18 29 -3 0 6 -7 12 -17 13 -10 3 -15 -1 -12
-10z"/>
<path d="M3791 1246 c-10 -12 -8 -14 11 -10 22 4 22 4 -1 -6 -45 -20 -53 -31
-34 -46 25 -19 35 -17 28 5 -4 15 -1 18 19 14 24 -5 50 17 28 25 -7 2 -12 10
-12 18 0 18 -24 18 -39 0z"/>
<path d="M3708 1227 c-37 -15 -35 -25 4 -23 22 1 34 7 36 19 4 19 -1 20 -40 4z"/>
<path d="M4533 1233 c-15 -5 -17 -23 -4 -23 5 0 11 7 15 15 3 8 4 15 3 14 -1
0 -8 -3 -14 -6z"/>
<path d="M2758 1223 c7 -3 16 -2 19 1 4 3 -2 6 -13 5 -11 0 -14 -3 -6 -6z"/>
<path d="M561 1206 c-11 -14 -10 -17 10 -25 13 -5 27 -7 32 -4 12 7 8 23 -7
23 -8 0 -16 5 -18 11 -2 7 -9 5 -17 -5z"/>
<path d="M2396 1198 c3 -4 16 -8 30 -8 13 0 24 4 24 8 0 5 -13 9 -30 9 -16 0
-27 -4 -24 -9z"/>
<path d="M2680 1199 c0 -5 5 -7 10 -4 6 3 10 8 10 11 0 2 -4 4 -10 4 -5 0 -10
-5 -10 -11z"/>
<path d="M3583 1178 c-18 -6 -33 -14 -33 -18 0 -3 13 -19 30 -35 32 -30 55
-28 27 3 -22 24 -21 34 1 31 9 -1 28 -1 41 0 20 1 21 3 11 16 -14 17 -31 18
-77 3z"/>
<path d="M3680 1174 c0 -8 5 -12 10 -9 6 3 10 10 10 16 0 5 -4 9 -10 9 -5 0
-10 -7 -10 -16z"/>
<path d="M2058 1099 c-29 -96 -27 -125 10 -131 25 -4 27 -1 28 37 0 22 10 61
21 86 l20 46 -22 21 c-13 12 -25 22 -27 22 -3 0 -16 -36 -30 -81z m42 21 c0
-22 -34 -130 -40 -130 -11 0 -1 70 15 100 8 15 11 30 8 34 -4 3 -1 6 5 6 7 0
12 -5 12 -10z"/>
<path d="M2572 1159 c-13 -20 -9 -39 7 -39 11 0 21 49 12 55 -4 2 -13 -5 -19
-16z"/>
<path d="M2690 1167 c0 -8 7 -21 16 -28 14 -11 15 -10 12 11 -3 26 -28 41 -28
17z"/>
<path d="M3006 1151 c-4 -6 -16 -11 -28 -11 -16 0 -19 -4 -13 -22 3 -13 12
-54 18 -91 10 -61 14 -68 32 -63 11 3 27 6 36 6 14 0 14 9 -3 88 -19 88 -30
112 -42 93z m13 -58 c22 -87 23 -103 8 -103 -16 0 -43 112 -32 130 10 16 14
12 24 -27z"/>
<path d="M2540 1148 c-12 -77 -12 -77 9 -71 24 6 28 31 7 39 -8 3 -12 12 -9
20 3 8 2 14 -1 14 -3 0 -6 -1 -6 -2z"/>
<path d="M3763 1129 c-34 -12 -29 -33 4 -24 34 8 39 13 27 24 -5 5 -19 5 -31
0z"/>
<path d="M2883 1100 c-29 -36 -32 -94 -4 -85 11 3 24 -1 32 -11 12 -15 11 -18
-5 -28 -40 -23 -56 -46 -56 -81 0 -28 5 -37 28 -48 47 -23 57 -17 60 37 2 29
-2 53 -9 60 -9 8 -11 7 -7 -4 3 -9 3 -33 -1 -54 l-6 -38 -24 19 c-32 26 -23
66 19 83 20 8 30 19 29 34 0 28 -23 133 -29 139 -3 2 -15 -8 -27 -23z m27 -57
c0 -7 -7 -13 -15 -13 -15 0 -21 31 -8 43 8 8 23 -12 23 -30z"/>
<path d="M538 1103 c-10 -2 -18 -9 -18 -14 0 -14 26 -11 40 6 13 15 9 16 -22
8z"/>
<path d="M2240 1101 c0 -19 23 -71 31 -71 12 0 11 37 -1 61 -11 19 -30 26 -30
10z"/>
<path d="M2594 1094 c3 -9 6 -32 6 -52 1 -28 3 -33 10 -21 11 19 1 89 -12 89
-6 0 -7 -7 -4 -16z"/>
<path d="M3654 1095 c-8 -21 14 -45 40 -44 19 1 19 2 -3 8 -21 6 -22 8 -7 20
8 7 13 17 10 22 -8 14 -34 10 -40 -6z"/>
<path d="M2736 1067 c-7 -19 -31 -47 -51 -63 -21 -16 -32 -30 -25 -32 22 -8
119 111 100 123 -5 3 -16 -10 -24 -28z"/>
<path d="M432 1058 c-41 -33 -55 -55 -28 -45 8 3 20 -1 27 -9 10 -12 9 -17 -7
-29 -54 -39 -60 -44 -43 -45 9 0 37 -12 63 -26 32 -18 54 -24 71 -20 30 8 34
26 4 21 -18 -4 -50 12 -88 42 -3 2 4 9 14 17 13 9 16 20 11 39 -7 30 1 57 19
57 7 0 18 7 25 15 24 29 -26 16 -68 -17z"/>
<path d="M2382 1081 c-9 -5 -10 -20 -3 -55 5 -26 11 -49 13 -51 6 -6 48 33 48
45 0 16 -20 12 -26 -5 -4 -8 -10 -15 -14 -15 -10 0 -7 63 4 71 12 10 -8 19
-22 10z"/>
<path d="M2500 1080 c0 -5 5 -10 10 -10 6 0 10 5 10 10 0 6 -4 10 -10 10 -5 0
-10 -4 -10 -10z"/>
<path d="M3553 1069 c-18 -12 -33 -25 -33 -30 0 -14 73 -59 97 -59 12 0 26 -8
32 -17 5 -10 13 -14 18 -9 4 5 3 11 -3 13 -7 2 -10 12 -7 22 4 15 -3 19 -37
24 -24 3 -47 10 -53 16 -14 14 16 41 48 41 15 0 24 4 20 10 -10 16 -48 11 -82
-11z"/>
<path d="M515 1059 c-10 -15 3 -25 16 -12 7 7 7 13 1 17 -6 3 -14 1 -17 -5z"/>
<path d="M3745 1060 c3 -5 8 -10 11 -10 2 0 4 5 4 10 0 6 -5 10 -11 10 -5 0
-7 -4 -4 -10z"/>
<path d="M2580 1030 c0 -17 -5 -39 -12 -50 -7 -10 -9 -22 -6 -26 9 -9 58 4 58
15 0 5 -8 7 -19 4 -17 -4 -18 0 -14 41 3 25 3 46 -1 46 -3 0 -6 -14 -6 -30z"/>
<path d="M2490 1030 c0 -5 5 -10 11 -10 5 0 7 5 4 10 -3 6 -8 10 -11 10 -2 0
-4 -4 -4 -10z"/>
<path d="M2527 1010 c5 -29 -8 -42 -22 -20 -9 15 -25 12 -19 -4 3 -8 14 -16
25 -19 11 -3 19 -14 19 -26 0 -12 5 -21 10 -21 13 0 13 6 -1 31 -7 14 -7 24 0
33 11 13 4 56 -10 56 -5 0 -6 -13 -2 -30z"/>
<path d="M2755 1026 c-3 -9 -7 -23 -10 -31 -2 -8 0 -15 5 -15 11 0 25 48 16
57 -3 3 -8 -2 -11 -11z"/>
<path d="M471 1009 c13 -24 20 -27 49 -18 l25 7 -27 1 c-16 1 -28 7 -28 14 0
8 -7 14 -14 14 -11 0 -12 -5 -5 -18z"/>
<path d="M2627 1018 c-2 -7 -1 -22 4 -33 6 -16 8 -14 8 13 1 33 -4 41 -12 20z"/>
<path d="M3701 1021 c-36 -10 -37 -28 -1 -23 18 3 30 0 30 -7 0 -6 7 -11 16
-11 13 0 14 3 4 15 -6 8 -9 19 -5 25 7 11 -7 12 -44 1z"/>
<path d="M3762 1019 c2 -6 8 -10 13 -10 5 0 11 4 13 10 2 6 -4 11 -13 11 -9 0
-15 -5 -13 -11z"/>
<path d="M2445 1000 c-3 -5 1 -10 9 -10 9 0 16 5 16 10 0 6 -4 10 -9 10 -6 0
-13 -4 -16 -10z"/>
<path d="M2705 940 c-9 -18 -14 -34 -11 -37 2 -3 12 9 21 27 9 18 14 34 11 37
-2 3 -12 -9 -21 -27z"/>
<path d="M3750 951 c0 -5 5 -13 10 -16 6 -3 10 -2 10 4 0 5 -4 13 -10 16 -5 3
-10 2 -10 -4z"/>
<path d="M1373 943 c9 -2 23 -2 30 0 6 3 -1 5 -18 5 -16 0 -22 -2 -12 -5z"/>
<path d="M4650 935 c-10 -13 -9 -15 8 -15 15 0 20 5 16 15 -4 8 -7 15 -9 15
-1 0 -8 -7 -15 -15z"/>
<path d="M2255 930 c-3 -5 -31 -10 -61 -10 -30 0 -54 -3 -54 -7 0 -19 54 -163
62 -163 4 0 17 18 28 39 11 22 33 48 50 58 35 20 35 24 15 63 -16 31 -29 37
-40 20z m25 -41 c0 -10 -79 -89 -89 -89 -2 0 -1 3 2 6 3 4 3 14 -2 23 -5 9
-11 28 -15 43 -6 26 -5 27 41 30 54 3 63 1 63 -13z"/>
<path d="M2595 900 c-21 -22 -35 -40 -29 -40 5 0 28 18 49 40 21 22 35 40 29
40 -5 0 -28 -18 -49 -40z"/>
<path d="M3660 930 c0 -5 -8 -10 -18 -10 -10 0 -23 -5 -30 -12 -8 -8 -15 -8
-26 2 -9 7 -24 9 -33 5 -16 -6 -15 -8 7 -26 14 -10 34 -17 45 -15 11 3 37 1
59 -4 44 -10 69 -3 62 16 -3 7 2 17 11 22 9 5 13 15 8 21 -5 9 -12 9 -28 -2
-12 -7 -30 -17 -40 -20 -15 -6 -17 -3 -12 13 4 11 4 20 1 20 -3 0 -6 -4 -6
-10z"/>
<path d="M2041 913 c0 -10 8 -45 18 -78 13 -48 20 -59 35 -57 23 4 56 -26 49
-44 -3 -8 0 -14 6 -14 6 0 11 -5 11 -10 0 -6 -8 -5 -20 2 -11 7 -20 18 -20 24
0 7 -7 14 -15 18 -23 9 -18 -22 8 -47 13 -12 26 -30 30 -39 3 -10 11 -18 16
-18 25 0 18 44 -19 137 -22 55 -40 110 -40 122 0 17 -6 21 -30 21 -22 0 -30
-5 -29 -17z m48 -50 c8 -27 18 -54 24 -60 7 -9 5 -13 -7 -13 -9 0 -16 5 -16
10 0 17 0 19 -15 61 -17 48 -17 49 -7 49 4 0 14 -21 21 -47z"/>
<path d="M2987 888 c-4 -24 -9 -58 -13 -76 -5 -25 -4 -31 7 -27 8 3 15 21 16
39 4 50 20 86 39 86 12 0 14 -6 9 -32 -4 -18 -11 -37 -15 -43 -17 -22 -21 -55
-8 -55 13 0 22 25 42 123 6 26 5 27 -32 27 -39 0 -39 -1 -45 -42z"/>
<path d="M2440 906 c0 -8 71 -46 85 -46 8 0 19 9 25 19 15 28 12 35 -6 17 -16
-16 -58 -13 -78 5 -10 9 -26 12 -26 5z"/>
<path d="M2693 888 c-13 -6 -23 -15 -23 -20 0 -14 16 -9 41 12 26 21 17 25
-18 8z"/>
<path d="M3745 890 c-3 -5 -1 -10 4 -10 6 0 11 5 11 10 0 6 -2 10 -4 10 -3 0
-8 -4 -11 -10z"/>
<path d="M4586 881 c-3 -5 0 -11 8 -14 15 -6 26 1 26 15 0 11 -27 10 -34 -1z"/>
<path d="M1410 870 c0 -5 5 -10 11 -10 7 0 18 -8 25 -17 7 -10 15 -15 19 -11
7 6 -33 48 -47 48 -4 0 -8 -4 -8 -10z"/>
<path d="M3573 839 c-13 -5 -23 -13 -23 -18 0 -17 20 -23 35 -11 8 7 28 10 45
8 16 -3 30 -1 30 3 0 10 -30 20 -42 13 -6 -4 -13 -2 -17 3 -3 7 -15 7 -28 2z"/>
<path d="M2540 831 c0 -11 40 -22 52 -15 16 10 7 19 -22 21 -17 1 -30 -2 -30
-6z"/>
<path d="M539 813 c-13 -15 -12 -16 6 -10 17 6 17 4 -2 -9 -13 -9 -23 -25 -23
-36 0 -18 1 -18 28 4 28 22 36 58 15 65 -5 2 -16 -4 -24 -14z"/>
<path d="M2856 815 c4 -8 10 -13 14 -10 5 3 13 -3 19 -12 7 -14 13 -15 22 -6
14 14 3 34 -15 27 -8 -3 -17 -1 -21 5 -10 17 -25 13 -19 -4z"/>
<path d="M3714 819 c-4 -7 1 -16 10 -21 9 -5 16 -16 16 -24 0 -12 8 -13 38 -8
44 8 46 9 37 24 -4 6 -15 8 -25 5 -13 -4 -23 1 -32 14 -14 23 -33 27 -44 10z"/>
<path d="M2647 793 c-6 -9 1 -74 8 -81 3 -3 5 16 5 41 0 45 -4 56 -13 40z"/>
<path d="M2245 779 c-4 -6 -5 -13 -2 -16 7 -7 27 6 27 18 0 12 -17 12 -25 -2z"/>
<path d="M2932 765 c-24 -30 -27 -41 -13 -49 4 -3 11 -19 14 -36 7 -35 23 -39
32 -10 4 11 17 32 31 47 29 32 30 39 3 46 -16 4 -18 3 -9 -8 8 -9 6 -14 -5
-19 -9 -3 -14 -10 -11 -15 5 -7 -14 -21 -29 -21 -11 0 -8 47 4 56 7 6 12 17 9
24 -3 9 -11 4 -26 -15z"/>
<path d="M3585 777 c-4 -10 -4 -22 1 -27 15 -15 81 -23 88 -11 5 7 -4 11 -22
11 -19 0 -35 8 -45 23 -14 20 -16 21 -22 4z"/>
<path d="M2371 773 c0 -4 4 -17 9 -28 8 -19 9 -19 9 2 1 12 -3 25 -9 28 -5 3
-10 3 -9 -2z"/>
<path d="M3635 770 c3 -5 12 -7 20 -3 21 7 19 13 -6 13 -11 0 -18 -4 -14 -10z"/>
<path d="M2680 756 c0 -8 4 -17 9 -20 5 -4 7 3 4 14 -6 23 -13 26 -13 6z"/>
<path d="M489 753 c-1 -5 0 -20 1 -35 1 -15 -7 -39 -16 -54 -21 -31 -19 -31
58 14 70 41 88 60 67 72 -9 6 -15 5 -18 -3 -7 -21 -42 -46 -57 -40 -12 5 -19
23 -15 46 0 4 -3 7 -9 7 -5 0 -10 -3 -11 -7z"/>
<path d="M2467 753 c-4 -3 -7 -16 -6 -27 0 -19 1 -19 10 3 10 24 8 36 -4 24z"/>
<path d="M2241 724 c-16 -20 -18 -31 -10 -45 16 -31 27 -22 31 26 2 25 2 45 1
45 -1 0 -11 -12 -22 -26z"/>
<path d="M3750 719 c0 -5 5 -7 10 -4 6 3 10 8 10 11 0 2 -4 4 -10 4 -5 0 -10
-5 -10 -11z"/>
<path d="M3808 723 c-27 -7 -22 -20 12 -32 17 -5 28 -6 25 -1 -3 5 3 11 12 13
17 4 17 5 1 6 -10 0 -18 6 -18 11 0 10 -3 11 -32 3z"/>
<path d="M2880 695 c0 -34 25 -82 50 -95 18 -10 17 -6 -5 39 -14 27 -25 54
-25 59 0 6 -4 14 -10 17 -6 4 -10 -5 -10 -20z"/>
<path d="M3657 702 c-21 -23 -22 -48 -1 -56 24 -9 44 -7 44 4 0 6 -10 10 -22
10 l-21 0 23 25 c16 17 30 23 44 19 17 -4 18 -3 6 5 -23 16 -55 13 -73 -7z"/>
<path d="M1267 673 c-4 -3 -7 -11 -7 -17 0 -6 5 -5 12 2 6 6 9 14 7 17 -3 3
-9 2 -12 -2z"/>
<path d="M3758 673 c7 -3 16 -2 19 1 4 3 -2 6 -13 5 -11 0 -14 -3 -6 -6z"/>
<path d="M3883 662 c4 -18 2 -22 -9 -18 -8 3 -13 2 -10 -3 3 -5 -2 -11 -12
-13 -10 -3 -19 -13 -19 -22 0 -20 0 -20 39 7 36 24 41 39 19 59 -11 11 -13 9
-8 -10z"/>
<path d="M530 646 c-6 -8 -10 -25 -8 -38 3 -24 19 -27 77 -17 20 3 26 -1 32
-26 10 -37 34 -55 72 -55 35 0 32 21 -3 27 -14 2 -31 10 -39 18 -12 12 -12 16
0 31 9 12 10 15 2 10 -22 -12 -14 5 10 24 12 10 19 21 15 25 -4 4 -19 -2 -34
-14 -35 -27 -64 -28 -59 -1 5 26 -15 26 -22 0 -7 -27 -29 -19 -25 8 4 26 -1
28 -18 8z"/>
<path d="M3725 649 c-9 -14 -2 -20 29 -23 26 -3 55 18 42 31 -3 3 -6 1 -6 -5
0 -7 -9 -12 -20 -12 -11 0 -20 5 -20 10 0 13 -17 13 -25 -1z"/>
<path d="M2185 620 c-3 -5 -2 -10 4 -10 5 0 13 5 16 10 3 6 2 10 -4 10 -5 0
-13 -4 -16 -10z"/>
<path d="M4420 616 c0 -7 7 -20 17 -27 15 -13 15 -12 5 7 -6 12 -8 24 -5 28 3
3 1 6 -5 6 -7 0 -12 -6 -12 -14z"/>
<path d="M2200 586 c-20 -18 -42 -35 -50 -39 -13 -5 -13 -6 0 -6 21 -1 79 36
87 54 10 28 -2 25 -37 -9z"/>
<path d="M2312 610 c5 -16 125 -80 151 -80 9 0 17 5 17 10 0 6 -5 10 -10 10
-6 0 -9 12 -8 26 2 22 -3 29 -25 37 -20 6 -32 6 -40 -2 -8 -8 -4 -11 15 -11
18 0 29 -7 33 -21 4 -11 5 -22 3 -24 -8 -9 -68 26 -68 40 0 8 -9 15 -19 15
-11 0 -27 3 -37 7 -11 4 -15 2 -12 -7z"/>
<path d="M2720 605 c-10 -13 -9 -15 11 -16 22 -1 22 -2 4 -7 -30 -10 -60 -30
-55 -36 8 -8 110 24 110 34 0 5 -9 12 -20 15 -11 3 -20 11 -20 16 0 14 -16 11
-30 -6z"/>
<path d="M3780 603 c-16 -7 -39 -33 -40 -45 0 -16 77 -31 106 -20 23 8 25 11
9 12 -11 2 -30 4 -43 5 -33 3 -40 15 -14 22 13 3 21 10 19 16 -4 14 -18 17
-37 10z"/>
<path d="M3908 603 c-19 -5 -29 -25 -20 -40 4 -6 17 2 30 19 23 28 22 30 -10
21z"/>
<path d="M2484 586 c-9 -22 -5 -24 34 -19 31 5 46 23 18 23 -8 0 -21 3 -30 6
-10 4 -18 0 -22 -10z"/>
<path d="M2655 591 c-3 -5 -1 -13 5 -16 8 -5 7 -11 -1 -21 -18 -21 -27 -17
-21 11 2 15 0 25 -7 25 -6 0 -11 -17 -11 -39 0 -38 1 -39 24 -28 14 7 27 19
29 27 3 8 8 23 12 33 5 12 2 17 -8 17 -9 0 -18 -4 -22 -9z"/>
<path d="M1114 558 c13 -33 13 -38 0 -38 -7 0 -14 -8 -13 -17 0 -11 3 -13 6
-5 8 20 22 14 16 -8 -7 -25 -14 -25 -42 -1 -15 13 -19 24 -14 37 6 18 6 18
-10 2 -23 -23 -22 -27 19 -71 32 -34 36 -36 50 -22 10 9 17 35 17 65 2 40 -3
54 -21 72 l-24 23 16 -37z"/>
<path d="M2810 575 c0 -17 -73 -56 -142 -76 -45 -12 -48 -16 -48 -46 0 -18 3
-33 6 -33 8 0 142 66 192 94 26 15 38 27 31 32 -6 3 -15 0 -20 -7 -6 -10 -9
-8 -9 9 0 12 5 22 11 22 5 0 7 5 4 10 -9 15 -25 12 -25 -5z m-60 -80 c-56 -36
-96 -52 -106 -42 -12 12 7 25 44 32 20 3 48 15 62 25 14 11 32 20 40 20 8 0
-10 -16 -40 -35z"/>
<path d="M3995 580 c-3 -5 -1 -10 4 -10 6 0 11 5 11 10 0 6 -2 10 -4 10 -3 0
-8 -4 -11 -10z"/>
<path d="M685 570 c-3 -5 -1 -10 4 -10 6 0 11 5 11 10 0 6 -2 10 -4 10 -3 0
-8 -4 -11 -10z"/>
<path d="M2250 561 c12 -23 101 -79 184 -115 70 -31 65 -30 63 -7 -1 12 -7 17
-18 14 -17 -5 -173 69 -184 87 -11 17 10 11 96 -29 47 -22 92 -39 101 -37 27
4 34 16 9 16 -27 0 -172 66 -183 83 -6 9 -10 8 -18 -3 -8 -12 -13 -13 -30 -2
-27 17 -32 15 -20 -7z"/>
<path d="M2863 565 c3 -5 21 -9 41 -8 26 2 36 -2 36 -12 0 -8 7 -15 15 -15 14
0 14 3 -1 24 -12 20 -23 25 -55 23 -22 -1 -38 -6 -36 -12z"/>
<path d="M3917 542 c-31 -32 -42 -38 -68 -34 -23 3 -30 1 -27 -9 2 -7 23 -14
49 -15 55 -4 79 3 79 22 0 15 14 17 45 4 14 -5 26 -2 43 13 24 22 30 57 10 57
-19 -1 -48 -25 -48 -41 0 -12 -2 -12 -9 0 -6 9 -16 11 -32 6 -24 -8 -24 -8 -5
14 33 37 3 22 -37 -17z m15 -34 c-9 -9 -15 -9 -24 0 -9 9 -7 12 12 12 19 0 21
-3 12 -12z"/>
<path d="M978 564 c-3 -3 1 -18 9 -34 17 -34 12 -45 -27 -65 -29 -15 -29 -15
-46 20 -9 19 -14 42 -10 50 3 8 1 15 -5 15 -14 0 -22 -27 -15 -53 3 -12 22
-40 41 -62 l34 -40 10 27 c5 15 19 32 31 38 24 13 26 40 5 80 -16 32 -18 33
-27 24z"/>
<path d="M2980 548 c0 -17 2 -18 15 -8 8 7 15 14 15 15 0 2 -7 5 -15 9 -10 4
-15 -1 -15 -16z"/>
<path d="M4260 565 c0 -3 9 -15 20 -27 10 -12 17 -25 13 -31 -3 -5 -8 -4 -13
3 -5 8 -9 7 -14 -5 -9 -24 -8 -25 19 -25 32 0 34 36 5 68 -21 22 -30 27 -30
17z"/>
<path d="M4203 549 c16 -9 16 -12 2 -32 -21 -31 -19 -37 15 -37 17 0 30 5 30
10 0 6 -10 10 -22 10 -21 1 -21 2 -5 11 21 12 22 35 1 43 -25 10 -41 6 -21 -5z"/>
<path d="M2520 535 c0 -8 5 -15 10 -15 6 0 10 -7 10 -17 0 -9 2 -14 5 -11 9 8
-6 58 -16 58 -5 0 -9 -7 -9 -15z"/>
<path d="M2568 525 c-3 -14 -1 -25 3 -25 5 0 9 11 9 25 0 14 -2 25 -4 25 -2 0
-6 -11 -8 -25z"/>
<path d="M2220 534 c0 -31 134 -112 239 -145 46 -14 57 -21 63 -44 9 -34 24
-45 60 -45 22 0 29 6 34 28 3 15 7 33 9 39 3 7 23 16 45 19 22 4 43 11 46 15
3 5 14 9 25 9 10 0 19 5 19 10 0 6 8 10 18 10 19 0 98 68 89 77 -3 3 -18 -7
-32 -21 -37 -37 -117 -75 -173 -83 -52 -7 -62 -15 -62 -54 0 -30 -25 -45 -46
-28 -8 6 -17 29 -20 50 -5 32 -9 37 -21 28 -10 -9 -20 -9 -36 -1 -12 6 -58 25
-101 43 -44 18 -97 48 -118 67 -21 19 -38 30 -38 26z"/>
<path d="M4080 530 c0 -5 9 -10 21 -10 11 0 17 5 14 10 -3 6 -13 10 -21 10 -8
0 -14 -4 -14 -10z"/>
<path d="M920 526 c0 -2 7 -6 15 -10 8 -3 15 -1 15 4 0 6 -7 10 -15 10 -8 0
-15 -2 -15 -4z"/>
<path d="M2573 470 c3 -11 1 -20 -4 -20 -5 0 -9 -11 -9 -25 0 -16 6 -25 15
-25 11 0 15 12 15 45 0 26 -5 45 -11 45 -6 0 -9 -9 -6 -20z"/>
<path d="M3986 474 c-8 -22 1 -31 16 -16 9 9 9 15 1 23 -7 7 -12 5 -17 -7z"/>
<path d="M4155 463 c-10 -18 -23 -33 -27 -33 -4 0 -8 -4 -8 -10 0 -17 26 -11
44 9 10 11 16 30 14 43 -3 22 -4 22 -23 -9z"/>
<path d="M3965 442 c-3 -3 -5 -12 -5 -19 0 -11 10 -13 44 -8 36 6 46 4 53 -10
7 -12 17 -15 32 -10 29 9 26 22 -6 28 -16 3 -47 10 -70 15 -23 5 -45 7 -48 4z"/>
<path d="M2556 375 c4 -8 10 -15 15 -15 5 0 9 7 9 15 0 8 -7 15 -15 15 -9 0
-12 -6 -9 -15z"/>
<path d="M2526 228 c5 -44 11 -45 16 -4 2 23 0 36 -8 36 -7 0 -10 -12 -8 -32z"/>
<path d="M2560 250 c0 -5 11 -10 24 -10 14 0 28 5 31 10 4 6 -7 10 -24 10 -17
0 -31 -4 -31 -10z"/>
<path d="M2492 220 c0 -14 2 -19 5 -12 2 6 2 18 0 25 -3 6 -5 1 -5 -13z"/>
<path d="M2563 200 c-11 -16 -10 -18 2 -14 8 4 15 12 15 20 0 19 -3 18 -17 -6z"/>
</g>
</svg>
