<?xml version="1.0" standalone="no"?>
<!DOCTYPE svg PUBLIC "-//W3C//DTD SVG 20010904//EN"
 "http://www.w3.org/TR/2001/REC-SVG-20010904/DTD/svg10.dtd">
<svg version="1.0" xmlns="http://www.w3.org/2000/svg"
 width="512.000000pt" height="768.000000pt" viewBox="0 0 512.000000 768.000000"
 preserveAspectRatio="xMidYMid meet">
<metadata>
Created by potrace 1.16, written by Peter Selinger 2001-2019
</metadata>
<g transform="translate(0.000000,768.000000) scale(0.100000,-0.100000)"
fill="#000000" stroke="none">
<path d="M2375 7659 c-4 -12 -6 -74 -5 -138 2 -64 2 -173 2 -243 l-2 -128
-1185 0 c-787 0 -1185 -3 -1185 -10 0 -7 401 -9 1198 -8 l1197 3 3 273 c2 253
-3 314 -23 251z"/>
<path d="M2700 7405 l0 -275 1200 0 c660 0 1203 0 1207 -1 4 0 9 4 11 10 3 8
-348 12 -1193 13 l-1196 3 1 263 c0 229 -1 262 -15 262 -13 0 -15 -35 -15
-275z"/>
<path d="M2752 7433 l-2 -253 33 1 c29 2 30 2 5 6 l-28 4 -3 247 -2 247 -3
-252z"/>
<path d="M2344 7425 c0 -137 2 -195 3 -128 2 67 2 179 0 250 -1 70 -3 16 -3
-122z"/>
<path d="M203 7183 c15 -2 39 -2 55 0 15 2 2 4 -28 4 -30 0 -43 -2 -27 -4z"/>
<path d="M393 7183 c15 -2 39 -2 55 0 15 2 2 4 -28 4 -30 0 -43 -2 -27 -4z"/>
<path d="M1178 7183 c29 -2 74 -2 100 0 26 2 2 3 -53 3 -55 0 -76 -1 -47 -3z"/>
<path d="M1393 7183 c26 -2 67 -2 90 0 23 2 2 3 -48 3 -49 0 -68 -1 -42 -3z"/>
<path d="M1828 7183 c23 -2 59 -2 80 0 20 2 1 4 -43 4 -44 0 -61 -2 -37 -4z"/>
<path d="M2038 7183 c7 -3 16 -2 19 1 4 3 -2 6 -13 5 -11 0 -14 -3 -6 -6z"/>
<path d="M2078 7183 c7 -3 16 -2 19 1 4 3 -2 6 -13 5 -11 0 -14 -3 -6 -6z"/>
<path d="M2932 7183 c37 -2 100 -2 140 0 40 1 10 3 -67 3 -77 0 -110 -1 -73
-3z"/>
<path d="M3288 7183 c7 -3 16 -2 19 1 4 3 -2 6 -13 5 -11 0 -14 -3 -6 -6z"/>
<path d="M4483 7183 c9 -2 23 -2 30 0 6 3 -1 5 -18 5 -16 0 -22 -2 -12 -5z"/>
<path d="M4658 7183 c6 -2 18 -2 25 0 6 3 1 5 -13 5 -14 0 -19 -2 -12 -5z"/>
<path d="M4708 7183 c7 -3 16 -2 19 1 4 3 -2 6 -13 5 -11 0 -14 -3 -6 -6z"/>
<path d="M4958 7183 c7 -3 16 -2 19 1 4 3 -2 6 -13 5 -11 0 -14 -3 -6 -6z"/>
<path d="M2032 6803 c-6 -3 -9 -10 -6 -16 5 -8 2 -8 -7 1 -7 6 -23 12 -35 12
-20 0 -23 -7 -29 -53 -12 -94 0 -137 36 -137 12 0 21 10 25 28 10 45 12 48 13
16 1 -45 38 -54 54 -14 4 13 6 12 6 -1 1 -9 12 -19 26 -21 29 -6 35 -2 35 24
0 10 5 18 11 18 6 0 8 -8 4 -19 -4 -14 0 -20 21 -24 20 -3 28 0 31 14 3 10 9
16 14 13 5 -3 7 -10 4 -15 -6 -9 8 -13 35 -9 23 3 30 20 30 78 0 41 3 52 16
52 13 0 15 -11 12 -65 l-3 -65 33 0 c30 0 32 2 32 34 0 19 5 38 11 42 8 5 10
-3 7 -24 -4 -27 0 -33 28 -47 18 -8 45 -15 61 -15 51 0 57 11 58 102 l0 83
-32 3 -33 3 0 -65 c0 -37 -4 -66 -10 -66 -6 0 -10 28 -10 64 l0 63 -37 7 c-54
8 -106 7 -123 -4 -9 -5 -19 -5 -27 2 -7 5 -23 8 -36 4 -18 -4 -23 -12 -22 -33
2 -19 1 -20 -2 -5 -9 49 -72 52 -97 5 l-13 -26 -17 25 c-17 27 -41 38 -64 31z
m-32 -99 c0 -43 -4 -74 -10 -74 -6 0 -10 34 -10 81 0 51 4 78 10 74 6 -3 10
-40 10 -81z m85 41 c15 -25 25 -50 22 -57 -2 -7 -12 5 -23 27 l-18 40 -6 -65
c-7 -65 -7 -65 -9 -15 -1 28 -4 59 -7 70 -4 21 2 45 10 45 3 0 17 -20 31 -45z
m117 -42 c2 -34 0 -65 -5 -69 -4 -4 -7 15 -8 42 -1 27 -4 60 -8 74 -8 25 -8
25 -23 -11 -9 -20 -19 -50 -23 -68 -7 -31 -25 -44 -25 -17 0 18 37 105 52 124
20 23 37 -8 40 -75z m68 6 c0 -44 -4 -78 -9 -75 -12 8 -14 156 -1 156 6 0 10
-32 10 -81z m178 15 c3 -62 18 -86 51 -77 14 4 17 15 17 66 -1 34 2 63 7 65 4
1 7 0 7 -3 0 -3 0 -34 0 -70 0 -61 -2 -65 -25 -71 -16 -4 -34 0 -50 10 -22 14
-25 24 -25 71 0 54 0 55 -30 55 l-30 0 0 -65 c0 -37 -4 -65 -10 -65 -6 0 -10
29 -10 66 0 54 -3 65 -15 61 -8 -4 -17 -2 -20 3 -5 8 51 16 105 14 23 -1 25
-4 28 -60z m-422 -11 c-10 -10 -19 5 -10 18 6 11 8 11 12 0 2 -7 1 -15 -2 -18z
m384 12 c0 -8 -4 -15 -9 -15 -13 0 -22 16 -14 24 11 11 23 6 23 -9z m-170 -14
c0 -6 -4 -13 -10 -16 -5 -3 -10 1 -10 9 0 9 5 16 10 16 6 0 10 -4 10 -9z"/>
<path d="M2700 6795 c-7 -8 -9 -15 -4 -15 5 0 9 -37 9 -82 1 -92 2 -93 82 -83
33 5 44 11 52 33 l11 27 -4 -27 c-1 -15 0 -25 5 -23 4 3 10 2 13 -3 8 -13 93
-14 116 -2 11 6 20 17 20 25 0 8 5 15 11 15 6 0 9 -6 6 -14 -7 -17 11 -36 35
-36 18 0 21 7 21 42 0 23 16 13 27 -17 8 -20 21 -24 62 -16 4 0 8 43 10 94 l3
93 -32 2 c-31 2 -33 1 -33 -30 l0 -33 -17 33 c-14 28 -21 33 -47 30 -27 -3
-31 -7 -31 -35 0 -17 -3 -29 -7 -26 -5 2 -8 12 -8 22 0 25 -51 45 -93 37 -39
-7 -63 -30 -70 -66 -4 -16 -5 -11 -3 11 1 26 -3 40 -16 48 -26 16 -103 14
-118 -4z m99 -14 c9 -6 12 -20 9 -40 -3 -18 -1 -34 4 -37 4 -3 8 -16 8 -30 0
-25 -30 -44 -70 -44 -16 0 -19 10 -22 76 -2 42 -1 78 1 80 8 7 56 4 70 -5z
m171 -11 c43 -43 11 -140 -47 -140 -62 0 -88 99 -37 139 33 26 58 27 84 1z
m121 -40 c18 -33 36 -60 39 -60 3 0 3 27 2 60 -3 39 0 60 7 60 14 0 15 -146 2
-154 -5 -4 -26 23 -46 59 -20 36 -38 65 -40 65 -2 0 -2 -29 0 -65 3 -39 1 -65
-5 -65 -6 0 -10 35 -10 80 0 44 4 80 8 80 4 0 24 -27 43 -60z"/>
<path d="M2744 6755 c3 -9 6 -21 6 -27 0 -5 10 -8 23 -6 35 5 30 42 -7 46 -23
3 -28 0 -22 -13z"/>
<path d="M2750 6681 c0 -27 4 -31 26 -31 22 0 25 4 22 28 -2 19 -9 28 -25 30
-20 3 -23 -1 -23 -27z"/>
<path d="M2892 6758 c-16 -16 -16 -80 0 -96 7 -7 21 -12 33 -12 31 0 45 19 45
60 0 41 -14 60 -45 60 -12 0 -26 -5 -33 -12z m34 -24 c-5 -14 -4 -15 9 -4 13
11 15 9 15 -11 0 -33 -15 -53 -34 -46 -19 7 -21 48 -4 65 17 17 21 15 14 -4z"/>
<path d="M2575 6788 c-2 -7 -5 -48 -7 -90 -3 -77 -3 -78 24 -84 15 -3 37 -3
48 1 23 7 27 45 5 45 -12 0 -15 14 -15 70 0 68 -1 70 -25 70 -14 0 -28 -6 -30
-12z m35 -67 c0 -64 2 -70 23 -74 19 -3 20 -4 5 -11 -38 -17 -48 -1 -48 79 0
43 4 75 10 75 6 0 10 -30 10 -69z"/>
<path d="M2308 6440 c-2 -8 -22 -12 -55 -12 -38 1 -53 -2 -57 -14 -5 -12 -2
-15 11 -9 29 11 35 11 40 -2 3 -8 -5 -13 -21 -13 -14 0 -26 -3 -27 -7 0 -5 -2
-15 -4 -23 -2 -10 6 -17 21 -18 17 -1 24 3 23 16 0 10 -3 12 -6 5 -7 -18 -23
-16 -23 2 0 8 6 15 13 15 16 0 48 -36 39 -45 -4 -3 13 -5 38 -3 45 3 45 3 48
43 2 22 6 43 10 47 4 4 5 -15 4 -41 -3 -42 -1 -49 17 -54 43 -11 61 2 61 44 0
54 1 53 -32 66 -16 7 -27 9 -24 4 3 -4 -9 -8 -27 -9 -17 0 -34 4 -38 10 -4 7
-8 6 -11 -2z m20 -58 c2 -19 -1 -32 -8 -32 -8 0 -10 9 -6 24 3 14 2 28 -4 31
-6 4 -10 -6 -10 -24 0 -17 -4 -31 -10 -31 -11 0 -14 53 -3 64 16 16 38 -1 41
-32z m72 18 c0 -11 5 -20 10 -20 6 0 10 -10 10 -22 -1 -22 -1 -22 -12 -3 -11
19 -11 19 -19 0 -5 -14 -8 -8 -8 23 -1 23 4 42 9 42 6 0 10 -9 10 -20z m17 -2
c-3 -8 -6 -5 -6 6 -1 11 2 17 5 13 3 -3 4 -12 1 -19z"/>
<path d="M2545 6442 c-3 -3 -5 -16 -5 -29 0 -14 -4 -21 -10 -18 -6 4 -8 10 -5
15 8 13 -22 32 -46 28 -25 -3 -32 -26 -24 -74 8 -49 65 -55 65 -8 0 13 5 24
10 24 6 0 10 -11 10 -24 0 -17 7 -25 25 -28 14 -3 28 -1 31 4 3 4 10 6 15 3 5
-4 10 13 11 37 1 42 1 42 5 6 2 -20 10 -42 18 -48 19 -16 65 -2 65 20 0 11 5
22 12 26 8 5 9 -1 5 -22 -5 -29 -5 -29 34 -26 36 4 39 7 40 36 l1 31 7 -30 c5
-27 11 -30 46 -33 l41 -3 -2 46 c-2 56 -18 79 -45 64 -10 -5 -19 -6 -19 -2 0
4 -5 1 -10 -7 -8 -12 -12 -12 -18 -2 -9 13 -70 13 -78 0 -3 -5 -14 -3 -25 2
-20 11 -56 10 -76 -3 -7 -5 -13 -4 -13 1 0 10 -57 22 -65 14z m-35 -32 c0 -5
-5 -10 -11 -10 -7 0 -9 -10 -5 -24 3 -14 2 -28 -4 -31 -5 -3 -10 -2 -10 3 0 5
-3 24 -6 41 -6 27 -4 31 15 31 11 0 21 -4 21 -10z m90 -24 c0 -20 -6 -36 -14
-39 -20 -8 -26 2 -26 40 0 26 4 33 20 33 16 0 20 -7 20 -34z m93 26 c3 -4 3
-19 0 -35 -4 -18 -12 -27 -24 -27 -15 0 -19 7 -19 35 0 28 4 35 19 35 11 0 22
-3 24 -8z m97 2 c0 -3 -7 -12 -15 -21 -12 -12 -13 -18 -4 -29 9 -11 8 -14 -5
-14 -12 0 -16 9 -16 35 0 28 4 35 20 35 11 0 20 -3 20 -6z m88 -11 c-2 -10
-12 -21 -23 -24 -19 -6 -18 -7 5 -18 l25 -11 -25 3 c-41 4 -41 67 0 67 14 0
20 -6 18 -17z"/>
<path d="M2575 6400 c-3 -5 -1 -10 4 -10 6 0 11 5 11 10 0 6 -2 10 -4 10 -3 0
-8 -4 -11 -10z"/>
<path d="M2660 6400 c0 -5 5 -10 10 -10 6 0 10 5 10 10 0 6 -4 10 -10 10 -5 0
-10 -4 -10 -10z"/>
<path d="M2660 6370 c0 -5 5 -10 10 -10 6 0 10 5 10 10 0 6 -4 10 -10 10 -5 0
-10 -4 -10 -10z"/>
<path d="M2850 6399 c0 -5 5 -7 10 -4 6 3 10 8 10 11 0 2 -4 4 -10 4 -5 0 -10
-5 -10 -11z"/>
<path d="M432 6118 c-9 -9 -12 -647 -12 -2810 l0 -2798 675 0 675 0 0 2794 c0
1537 -3 2801 -6 2810 -6 14 -73 16 -663 16 -498 0 -660 -3 -669 -12z m1317
-242 l2 -234 -655 -1 -656 -1 0 235 0 235 654 0 653 0 2 -234z m-6 -2801 l2
-2545 -652 0 -652 0 -1 2543 c0 1399 1 2545 4 2548 2 2 295 3 650 2 l646 -3 3
-2545z"/>
<path d="M472 4273 l3 -1328 2 1322 3 1323 623 3 622 2 -627 3 -628 2 2 -1327z"/>
<path d="M1712 5560 c0 -14 2 -19 5 -12 2 6 2 18 0 25 -3 6 -5 1 -5 -13z"/>
<path d="M1713 5465 c0 -22 2 -30 4 -17 2 12 2 30 0 40 -3 9 -5 -1 -4 -23z"/>
<path d="M1708 4618 c-2 -442 -1 -893 2 -1003 3 -110 7 251 8 803 1 551 0
1002 -3 1002 -3 0 -6 -361 -7 -802z"/>
<path d="M1715 2835 c0 -319 1 -451 2 -293 2 158 2 419 0 580 -1 161 -2 32 -2
-287z"/>
<path d="M473 2865 c0 -44 2 -61 4 -37 2 23 2 59 0 80 -2 20 -4 1 -4 -43z"/>
<path d="M474 2605 c0 -99 2 -138 3 -87 2 51 2 132 0 180 -1 48 -3 6 -3 -93z"/>
<path d="M474 2310 c0 -63 1 -89 3 -57 2 31 2 83 0 115 -2 31 -3 5 -3 -58z"/>
<path d="M1708 1893 c-2 -197 -1 -484 2 -638 4 -202 6 -102 8 358 1 350 0 637
-3 637 -2 0 -6 -161 -7 -357z"/>
<path d="M472 2165 c0 -16 2 -22 5 -12 2 9 2 23 0 30 -3 6 -5 -1 -5 -18z"/>
<path d="M475 1330 c0 -426 1 -601 2 -387 2 213 2 561 0 775 -1 213 -2 38 -2
-388z"/>
<path d="M1712 940 c0 -19 2 -27 5 -17 2 9 2 25 0 35 -3 9 -5 1 -5 -18z"/>
<path d="M1713 850 c0 -25 2 -35 4 -22 2 12 2 32 0 45 -2 12 -4 2 -4 -23z"/>
<path d="M1712 770 c0 -19 2 -27 5 -17 2 9 2 25 0 35 -3 9 -5 1 -5 -18z"/>
<path d="M1713 590 c0 -25 2 -35 4 -22 2 12 2 32 0 45 -2 12 -4 2 -4 -23z"/>
<path d="M518 563 c7 -3 16 -2 19 1 4 3 -2 6 -13 5 -11 0 -14 -3 -6 -6z"/>
<path d="M902 563 c82 -2 214 -2 295 0 82 1 15 3 -147 3 -162 0 -229 -2 -148
-3z"/>
<path d="M3342 6113 c-12 -24 -15 -5590 -3 -5597 5 -3 403 -6 885 -6 686 0
876 -3 876 -13 0 -13 20 12 20 26 0 4 -396 7 -880 7 l-880 0 0 2548 0 2547
665 0 665 0 0 -2034 c0 -1850 1 -2033 16 -2027 9 3 105 6 215 6 126 0 199 4
199 10 0 6 -75 10 -205 10 l-205 0 0 2254 c0 1240 -3 2261 -6 2270 -6 14 -75
16 -680 16 -631 0 -674 -1 -682 -17z m1348 -237 l0 -234 -665 -1 -665 -1 0
219 c0 121 -3 226 -6 235 -6 15 57 16 665 16 l671 0 0 -234z"/>
<path d="M2443 6031 c-44 -42 -125 -118 -182 -170 -56 -52 -114 -112 -128
-134 -67 -106 -97 -267 -74 -390 14 -79 60 -173 109 -227 23 -25 42 -48 42
-52 0 -5 6 -8 14 -8 7 0 19 -7 27 -16 17 -21 168 -96 179 -89 5 3 11 1 15 -5
4 -6 9 -8 13 -6 4 2 29 0 55 -4 28 -4 80 -2 125 5 42 7 81 10 86 7 5 -3 6 -1
3 4 -3 5 28 27 69 48 41 21 74 43 74 48 0 6 7 7 16 4 8 -3 12 -2 9 4 -3 5 12
27 34 48 22 22 42 34 45 28 2 -6 5 -3 5 8 1 10 14 46 30 80 93 194 54 425 -96
581 -32 33 -92 90 -133 125 -41 36 -101 90 -132 121 -32 31 -60 54 -63 51 -3
-3 -5 -1 -5 5 0 5 -13 9 -29 9 -22 0 -47 -17 -108 -75z m109 -517 l-2 -566
-43 7 c-286 47 -478 304 -424 569 29 141 81 216 261 376 61 54 129 117 151
139 22 22 45 40 50 41 7 0 9 -193 7 -566z m231 366 c201 -170 271 -315 246
-512 -25 -202 -204 -379 -416 -412 l-43 -6 0 561 0 562 63 -59 c34 -33 102
-93 150 -134z"/>
<path d="M2513 6016 c-6 -8 -8 -19 -2 -27 4 -8 8 -42 8 -77 -1 -35 2 -66 5
-69 3 -4 6 37 6 90 0 54 -1 97 -2 97 -2 -1 -8 -7 -15 -14z"/>
<path d="M2449 5943 c-13 -15 -16 -22 -7 -14 9 7 21 10 25 8 5 -3 9 3 9 14 0
10 -1 19 -1 19 -1 0 -12 -12 -26 -27z"/>
<path d="M2503 5825 c0 -22 2 -30 4 -17 2 12 2 30 0 40 -3 9 -5 -1 -4 -23z"/>
<path d="M2520 5764 c0 -21 -4 -33 -10 -29 -6 4 -9 -15 -8 -52 l1 -58 7 50 6
50 5 -40 c4 -28 6 -18 7 38 1 42 0 77 -3 77 -3 0 -5 -16 -5 -36z"/>
<path d="M2513 5613 c-8 -17 -12 -65 -12 -127 l2 -101 7 70 c4 39 11 96 14
128 3 31 5 57 4 57 -2 0 -9 -12 -15 -27z"/>
<path d="M2145 5620 c3 -5 8 -10 11 -10 2 0 4 5 4 10 0 6 -5 10 -11 10 -5 0
-7 -4 -4 -10z"/>
<path d="M2114 5559 c-3 -6 -8 -41 -10 -78 l-3 -66 11 73 c6 46 14 70 20 65 7
-3 8 -1 4 5 -9 15 -13 15 -22 1z"/>
<path d="M2107 5375 c7 -49 13 -58 13 -19 0 16 -5 36 -10 44 -6 10 -7 2 -3
-25z"/>
<path d="M2507 5336 c-4 -10 -3 -15 3 -11 6 4 11 -54 12 -162 l2 -168 3 163
c3 154 -4 219 -20 178z"/>
<path d="M2160 5227 c0 -5 9 -20 20 -34 11 -14 20 -22 20 -17 -1 12 -39 61
-40 51z"/>
<path d="M2300 5076 c0 -2 8 -10 18 -17 15 -13 16 -12 3 4 -13 16 -21 21 -21
13z"/>
<path d="M2340 5046 c0 -2 7 -7 16 -10 8 -3 12 -2 9 4 -6 10 -25 14 -25 6z"/>
<path d="M2507 4989 c7 -7 15 -10 18 -7 3 3 -2 9 -12 12 -14 6 -15 5 -6 -5z"/>
<path d="M2600 5990 c6 -11 15 -20 20 -20 6 0 2 9 -7 20 -10 11 -19 20 -21 20
-1 0 2 -9 8 -20z"/>
<path d="M2698 5893 c7 -3 16 -2 19 1 4 3 -2 6 -13 5 -11 0 -14 -3 -6 -6z"/>
<path d="M2933 5658 c1 -15 6 -23 11 -18 4 4 4 16 -2 26 -9 16 -10 14 -9 -8z"/>
<path d="M2971 5600 c0 -3 6 -25 13 -50 8 -25 15 -36 15 -25 0 17 -26 88 -28
75z"/>
<path d="M3001 5484 c0 -11 3 -14 6 -6 3 7 2 16 -1 19 -3 4 -6 -2 -5 -13z"/>
<path d="M3003 5415 c0 -27 2 -38 4 -22 2 15 2 37 0 50 -2 12 -4 0 -4 -28z"/>
<path d="M2992 5340 c0 -14 2 -19 5 -12 2 6 2 18 0 25 -3 6 -5 1 -5 -13z"/>
<path d="M2895 5159 c-4 -6 -5 -12 -2 -15 2 -3 7 2 10 11 7 17 1 20 -8 4z"/>
<path d="M2724 5024 c-18 -14 -18 -15 4 -4 12 6 22 13 22 15 0 8 -5 6 -26 -11z"/>
<path d="M2628 4993 c6 -2 18 -2 25 0 6 3 1 5 -13 5 -14 0 -19 -2 -12 -5z"/>
<path d="M3380 3073 c0 -1389 3 -2524 6 -2521 3 4 5 1138 5 2522 l-2 2516 638
3 638 2 -642 3 -643 2 0 -2527z"/>
<path d="M2555 4891 c-3 -5 -1 -12 5 -16 5 -3 10 1 10 9 0 18 -6 21 -15 7z"/>
<path d="M2420 4834 c-30 -8 -63 -16 -73 -19 -65 -15 -202 -99 -283 -172 -39
-36 -95 -118 -130 -191 -119 -249 -89 -587 70 -776 38 -46 244 -253 335 -337
22 -20 37 -40 34 -43 -4 -3 0 -6 7 -6 8 0 45 -33 84 -72 38 -40 72 -72 75 -70
3 1 7 -81 9 -183 l2 -185 -27 0 c-77 0 -214 -50 -289 -106 -17 -13 -34 -21
-38 -19 -3 3 -4 2 -2 -1 3 -3 -8 -17 -24 -30 -44 -37 -99 -127 -125 -205 -109
-320 64 -649 387 -735 29 -7 68 -14 86 -14 l32 0 -2 -627 c-2 -470 -6 -628
-15 -628 -6 0 -15 -3 -19 -7 -10 -11 -22 -98 -12 -92 4 3 8 0 8 -5 0 -14 75
-14 100 -1 14 7 17 19 14 47 -5 55 -7 62 -13 61 -43 -4 -41 -40 -41 627 l0
625 34 0 c38 0 155 34 201 58 17 9 32 16 35 17 9 1 53 40 107 95 51 52 125
180 139 240 16 68 16 211 0 283 -32 142 -148 287 -281 352 -70 35 -169 65
-212 65 l-23 0 0 190 c0 164 2 190 15 190 9 0 18 7 21 15 4 8 10 12 15 9 5 -3
8 -1 7 4 -5 16 211 224 223 216 7 -4 9 -3 6 3 -8 13 27 46 37 36 4 -5 6 -1 4
7 -2 8 7 19 20 25 12 5 22 13 22 17 0 14 62 78 71 72 5 -3 9 2 9 11 0 9 5 13
10 10 6 -3 10 2 10 11 0 10 3 14 7 11 3 -4 11 3 17 16 7 12 18 22 26 22 8 1
14 6 12 13 -1 7 5 15 13 18 8 3 12 10 9 15 -3 5 -1 9 4 9 14 0 78 136 97 205
25 90 30 274 11 363 -16 76 -57 188 -84 232 -37 57 -123 157 -160 185 -22 16
-38 34 -34 40 3 5 2 7 -3 3 -4 -4 -20 2 -36 12 -44 32 -162 79 -239 95 -87 18
-186 18 -260 -1z m130 -833 l0 -829 -279 276 c-259 257 -282 282 -315 352 -20
41 -43 104 -52 140 -21 79 -23 252 -5 333 63 287 295 505 584 547 29 4 55 8
60 9 4 0 7 -372 7 -828z m155 802 c184 -45 357 -188 445 -368 57 -115 74 -189
74 -325 -1 -128 -17 -204 -66 -310 -27 -58 -60 -95 -309 -340 l-279 -275 0
822 0 822 38 -6 c20 -3 64 -12 97 -20z m-155 -2579 l0 -536 -45 7 c-205 30
-386 182 -445 373 -27 87 -27 227 0 313 46 147 154 268 296 330 36 16 135 42
187 48 4 1 7 -240 7 -535z m140 509 c91 -25 151 -62 231 -142 92 -92 134 -173
151 -290 41 -282 -170 -563 -455 -606 l-47 -7 0 536 0 536 33 -6 c17 -3 57
-13 87 -21z m-96 -2355 c15 -24 -4 -53 -34 -53 -35 0 -48 29 -25 55 21 24 43
23 59 -2z"/>
<path d="M2485 4789 c-4 -6 0 -9 11 -7 18 3 19 -5 17 -122 -2 -98 -3 -567 -2
-1082 0 -46 -1 -35 4 -197 2 -73 5 -135 7 -136 2 -2 3 347 3 776 0 725 -1 779
-17 779 -9 0 -20 -5 -23 -11z"/>
<path d="M2448 4783 c7 -3 16 -2 19 1 4 3 -2 6 -13 5 -11 0 -14 -3 -6 -6z"/>
<path d="M2390 4770 c-8 -5 -10 -10 -5 -10 6 0 17 5 25 10 8 5 11 10 5 10 -5
0 -17 -5 -25 -10z"/>
<path d="M2325 4740 c-3 -6 1 -7 9 -4 18 7 21 14 7 14 -6 0 -13 -4 -16 -10z"/>
<path d="M2280 4722 c-18 -14 -19 -19 -7 -19 9 0 14 4 11 9 -3 4 2 8 10 8 9 0
16 5 16 10 0 14 -4 13 -30 -8z"/>
<path d="M2225 4690 c-3 -6 1 -7 9 -4 18 7 21 14 7 14 -6 0 -13 -4 -16 -10z"/>
<path d="M2075 4559 c-11 -16 -1 -19 13 -3 7 8 8 14 3 14 -5 0 -13 -5 -16 -11z"/>
<path d="M1985 4420 c3 -5 8 -10 11 -10 2 0 4 5 4 10 0 6 -5 10 -11 10 -5 0
-7 -4 -4 -10z"/>
<path d="M1955 4359 c-4 -6 -5 -12 -2 -15 2 -3 7 2 10 11 7 17 1 20 -8 4z"/>
<path d="M1931 4295 c-1 -11 -4 -31 -6 -45 l-6 -25 11 25 c6 13 9 33 7 45 -4
19 -4 19 -6 0z"/>
<path d="M1912 4190 c0 -14 2 -19 5 -12 2 6 2 18 0 25 -3 6 -5 1 -5 -13z"/>
<path d="M1913 4105 c0 -22 2 -30 4 -17 2 12 2 30 0 40 -3 9 -5 -1 -4 -23z"/>
<path d="M1922 3990 c0 -14 2 -19 5 -12 2 6 2 18 0 25 -3 6 -5 1 -5 -13z"/>
<path d="M1931 3944 c0 -11 3 -14 6 -6 3 7 2 16 -1 19 -3 4 -6 -2 -5 -13z"/>
<path d="M2026 3747 c3 -10 9 -15 12 -12 3 3 0 11 -7 18 -10 9 -11 8 -5 -6z"/>
<path d="M2595 4790 c4 -6 11 -8 16 -5 14 9 11 15 -7 15 -8 0 -12 -5 -9 -10z"/>
<path d="M3096 4457 c3 -10 9 -15 12 -12 3 3 0 11 -7 18 -10 9 -11 8 -5 -6z"/>
<path d="M3156 4337 c3 -10 9 -15 12 -12 3 3 0 11 -7 18 -10 9 -11 8 -5 -6z"/>
<path d="M3171 4294 c0 -11 3 -14 6 -6 3 7 2 16 -1 19 -3 4 -6 -2 -5 -13z"/>
<path d="M3192 4175 c0 -16 2 -22 5 -12 2 9 2 23 0 30 -3 6 -5 -1 -5 -18z"/>
<path d="M3191 4059 c0 -15 -3 -42 -6 -60 l-5 -34 11 34 c5 18 8 45 6 60 l-4
26 -2 -26z"/>
<path d="M3166 3923 c-6 -14 -5 -15 5 -6 7 7 10 15 7 18 -3 3 -9 -2 -12 -12z"/>
<path d="M3039 3693 c-13 -16 -12 -17 4 -4 9 7 17 15 17 17 0 8 -8 3 -21 -13z"/>
<path d="M3000 3655 c-7 -8 -17 -12 -24 -8 -6 3 -8 2 -3 -2 4 -5 -1 -18 -10
-29 -10 -12 -1 -5 20 13 20 19 37 36 37 38 0 7 -8 2 -20 -12z"/>
<path d="M2919 3573 c-13 -16 -12 -17 4 -4 9 7 17 15 17 17 0 8 -8 3 -21 -13z"/>
<path d="M2495 2720 c-3 -5 -2 -17 3 -26 8 -14 10 -12 10 9 0 29 -3 33 -13 17z"/>
<path d="M2521 2714 c0 -11 3 -14 6 -6 3 7 2 16 -1 19 -3 4 -6 -2 -5 -13z"/>
<path d="M2455 2710 c3 -5 8 -10 11 -10 2 0 4 5 4 10 0 6 -5 10 -11 10 -5 0
-7 -4 -4 -10z"/>
<path d="M2524 2585 c0 -60 1 -84 3 -52 2 32 2 81 0 110 -2 29 -3 3 -3 -58z"/>
<path d="M2315 2640 c-4 -6 -10 -8 -15 -5 -5 3 -12 0 -16 -7 -4 -7 -4 -10 1
-6 4 4 15 2 24 -4 9 -7 13 -8 9 -4 -4 5 -3 15 3 23 6 7 9 13 6 13 -3 0 -9 -5
-12 -10z"/>
<path d="M2202 2568 c-15 -15 -15 -28 -1 -28 5 0 8 4 4 9 -3 6 3 14 12 20 10
6 13 11 8 11 -6 0 -16 -5 -23 -12z"/>
<path d="M2501 2524 c0 -11 3 -14 6 -6 3 7 2 16 -1 19 -3 4 -6 -2 -5 -13z"/>
<path d="M2105 2431 c-3 -5 -2 -12 3 -15 5 -3 9 1 9 9 0 17 -3 19 -12 6z"/>
<path d="M2500 2250 c0 -106 2 -191 5 -189 7 8 9 369 1 376 -3 3 -6 -81 -6
-187z"/>
<path d="M2086 2373 c-6 -14 -5 -15 5 -6 7 7 10 15 7 18 -3 3 -9 -2 -12 -12z"/>
<path d="M2066 2299 c-8 -44 -8 -129 2 -129 4 0 7 36 8 80 0 44 0 80 -2 80 -1
0 -4 -14 -8 -31z"/>
<path d="M2072 2140 c0 -14 2 -19 5 -12 2 6 2 18 0 25 -3 6 -5 1 -5 -13z"/>
<path d="M2518 1920 c-2 -110 0 -200 5 -200 4 0 7 90 7 200 0 110 -2 200 -5
200 -2 0 -6 -90 -7 -200z"/>
<path d="M2090 2061 c0 -6 4 -13 10 -16 6 -3 7 1 4 9 -7 18 -14 21 -14 7z"/>
<path d="M2205 1890 c10 -11 20 -20 23 -20 3 0 -3 9 -13 20 -10 11 -20 20 -23
20 -3 0 3 -9 13 -20z"/>
<path d="M2269 1827 c26 -28 31 -32 31 -19 0 4 -13 16 -28 26 l-27 19 24 -26z"/>
<path d="M2370 1766 c28 -17 50 -21 35 -7 -6 5 -21 12 -35 15 l-25 7 25 -15z"/>
<path d="M2420 1746 c0 -2 7 -7 16 -10 8 -3 12 -2 9 4 -6 10 -25 14 -25 6z"/>
<path d="M2590 2721 c0 -6 9 -9 19 -8 11 0 17 5 15 9 -7 11 -34 10 -34 -1z"/>
<path d="M2705 2690 c-3 -5 -1 -10 4 -10 6 0 11 5 11 10 0 6 -2 10 -4 10 -3 0
-8 -4 -11 -10z"/>
<path d="M2970 2466 c0 -2 8 -10 18 -17 15 -13 16 -12 3 4 -13 16 -21 21 -21
13z"/>
<path d="M3021 2375 c1 -19 18 -51 18 -35 0 8 -4 22 -9 30 -5 8 -9 11 -9 5z"/>
<path d="M3037 2299 c4 -13 8 -18 11 -10 2 7 -1 18 -6 23 -8 8 -9 4 -5 -13z"/>
<path d="M3043 2165 c0 -22 2 -30 4 -17 2 12 2 30 0 40 -3 9 -5 -1 -4 -23z"/>
<path d="M2966 1977 c3 -10 9 -15 12 -12 3 3 0 11 -7 18 -10 9 -11 8 -5 -6z"/>
<path d="M2930 1919 c0 -5 5 -7 10 -4 6 3 10 8 10 11 0 2 -4 4 -10 4 -5 0 -10
-5 -10 -11z"/>
<path d="M2647 1740 c-20 -4 -40 -10 -43 -13 -9 -9 68 4 86 14 17 10 10 10
-43 -1z"/>
<path d="M4662 3440 c0 -14 2 -19 5 -12 2 6 2 18 0 25 -3 6 -5 1 -5 -13z"/>
<path d="M4651 1624 c0 -11 3 -14 6 -6 3 7 2 16 -1 19 -3 4 -6 -2 -5 -13z"/>
<path d="M4667 1534 c-7 -8 4 -44 14 -44 12 0 12 37 0 44 -4 3 -11 3 -14 0z"/>
<path d="M4672 1020 c0 -272 3 -462 9 -465 5 -4 9 174 9 454 0 253 -4 462 -9
465 -4 3 -9 -198 -9 -454z"/>
<path d="M3893 563 c87 -2 227 -2 310 0 84 1 13 3 -158 3 -170 0 -239 -2 -152
-3z"/>
<path d="M4428 563 c23 -2 61 -2 85 0 23 2 4 4 -43 4 -47 0 -66 -2 -42 -4z"/>
<path d="M3563 553 c9 -2 23 -2 30 0 6 3 -1 5 -18 5 -16 0 -22 -2 -12 -5z"/>
<path d="M4903 553 c9 -2 23 -2 30 0 6 3 -1 5 -18 5 -16 0 -22 -2 -12 -5z"/>
</g>
</svg>
