<?xml version="1.0" standalone="no"?>
<!DOCTYPE svg PUBLIC "-//W3C//DTD SVG 20010904//EN"
 "http://www.w3.org/TR/2001/REC-SVG-20010904/DTD/svg10.dtd">
<svg version="1.0" xmlns="http://www.w3.org/2000/svg"
 width="512.000000pt" height="512.000000pt" viewBox="0 0 512.000000 512.000000"
 preserveAspectRatio="xMidYMid meet">
<metadata>
Created by potrace 1.16, written by Peter Selinger 2001-2019
</metadata>
<g transform="translate(0.000000,512.000000) scale(0.100000,-0.100000)"
fill="#000000" stroke="none">
<path d="M220 2650 c0 -1257 -3 -2296 -6 -2310 -2 -14 3 -7 12 15 20 46 65
115 88 134 9 8 16 21 16 30 -1 17 -8 9 -66 -64 l-24 -30 0 2248 0 2247 2325 0
2325 0 0 -2257 c-1 -1988 -2 -2256 -15 -2239 -8 11 -15 24 -15 29 0 4 -4 6 -9
3 -21 -14 -77 65 -150 212 -95 193 -116 241 -114 267 1 11 -1 14 -4 7 -4 -10
-9 -9 -19 5 -16 20 26 -82 111 -270 47 -105 70 -141 121 -197 99 -108 94 -95
101 -299 4 -110 10 -181 16 -181 7 0 8 60 4 173 -4 94 -7 1205 -7 2467 l0
2295 -2345 0 -2345 0 0 -2285z"/>
<path d="M2231 4785 c-77 -17 -124 -37 -246 -105 -33 -19 -66 -40 -73 -47 -7
-7 -17 -13 -22 -13 -5 0 -15 -6 -22 -13 -7 -7 -29 -24 -48 -37 -73 -51 -203
-171 -232 -215 -12 -16 7 0 41 37 73 79 263 217 410 298 128 71 210 93 341 92
107 0 168 -18 200 -60 18 -23 22 -24 33 -9 26 35 87 50 197 48 121 -2 203 -20
278 -62 28 -16 78 -43 110 -61 237 -131 453 -397 587 -723 61 -147 162 -488
225 -762 62 -265 106 -437 121 -463 16 -28 9 8 -26 147 -40 163 -86 353 -115
478 -39 174 -134 475 -192 615 -48 113 -80 173 -163 301 -72 111 -77 117 -170
217 -87 92 -158 147 -255 196 -41 21 -77 41 -80 45 -8 13 -80 47 -140 66 -41
14 -87 18 -185 18 -116 0 -134 -2 -169 -22 -34 -20 -40 -20 -55 -7 -54 49
-227 69 -350 41z"/>
<path d="M2285 4690 c-12 -5 4 -6 40 -3 33 3 87 0 119 -5 52 -8 57 -8 41 4
-21 16 -166 19 -200 4z"/>
<path d="M2228 4673 c7 -3 16 -2 19 1 4 3 -2 6 -13 5 -11 0 -14 -3 -6 -6z"/>
<path d="M2780 4662 c-19 -2 -39 -8 -45 -14 -7 -7 0 -9 24 -4 18 3 56 6 84 6
28 0 48 2 46 4 -8 6 -74 12 -109 8z"/>
<path d="M2140 4650 c-8 -5 -24 -10 -35 -10 -11 0 -47 -14 -80 -30 -33 -17
-53 -28 -45 -26 49 15 205 68 209 72 9 8 -35 3 -49 -6z"/>
<path d="M2963 4630 c16 -10 127 -23 127 -15 0 2 -14 8 -30 14 -23 7 -29 7
-24 -1 5 -8 0 -9 -17 -4 -13 4 -35 10 -49 12 -22 5 -23 4 -7 -6z"/>
<path d="M2145 4604 c-27 -8 -57 -18 -65 -21 -8 -3 -25 -7 -37 -9 -36 -4 -152
-70 -228 -127 -82 -62 -186 -180 -239 -268 -20 -34 -35 -63 -33 -65 2 -2 26
29 53 68 69 103 195 226 298 293 48 31 92 58 99 59 7 2 19 6 27 9 40 15 197
67 215 70 12 3 8 5 -10 5 -16 0 -52 -6 -80 -14z"/>
<path d="M2803 4599 c-50 -15 -40 -18 35 -12 75 5 105 -1 243 -49 107 -38 174
-78 236 -140 23 -23 45 -40 48 -37 3 4 -22 32 -55 63 -59 54 -205 136 -243
136 -9 0 -17 4 -17 8 0 12 -130 42 -176 41 -22 0 -54 -5 -71 -10z"/>
<path d="M3101 4606 c2 -2 20 -11 39 -20 l35 -17 -24 21 c-13 11 -30 20 -39
20 -8 0 -13 -2 -11 -4z"/>
<path d="M2582 4583 c-5 -10 -8 -38 -7 -63 1 -25 -3 -48 -9 -52 -8 -6 -8 -10
1 -16 18 -12 14 -82 -5 -82 -12 0 -12 -4 3 -20 17 -19 17 -20 0 -20 -18 0 -18
0 0 -14 18 -13 18 -13 -1 -24 -17 -10 -17 -11 -1 -12 21 0 22 -8 0 -32 -9 -11
-11 -18 -5 -18 7 0 12 -7 12 -15 0 -8 -8 -15 -17 -15 -17 -1 -17 -1 0 -11 32
-19 20 -39 -25 -41 -41 -1 -41 -1 -8 -5 43 -5 65 -23 28 -23 -15 0 -33 -7 -42
-15 -8 -8 -20 -15 -27 -15 -7 0 -10 -3 -6 -6 3 -4 25 1 48 10 25 10 53 14 70
11 29 -7 37 3 20 21 -10 9 -18 150 -10 159 6 6 1 306 -5 312 -2 3 -9 -4 -14
-14z"/>
<path d="M3077 4589 c7 -7 15 -10 18 -7 3 3 -2 9 -12 12 -14 6 -15 5 -6 -5z"/>
<path d="M2318 4573 c7 -3 16 -2 19 1 4 3 -2 6 -13 5 -11 0 -14 -3 -6 -6z"/>
<path d="M3120 4570 c8 -5 20 -10 25 -10 6 0 3 5 -5 10 -8 5 -19 10 -25 10 -5
0 -3 -5 5 -10z"/>
<path d="M2165 4551 c-67 -21 -140 -55 -150 -72 -4 -6 13 0 36 12 24 13 49 24
54 26 168 45 187 51 155 51 -19 0 -62 -8 -95 -17z"/>
<path d="M3180 4562 c0 -8 12 -18 61 -50 15 -9 39 -26 55 -36 16 -11 55 -44
87 -75 31 -30 57 -51 57 -45 0 16 -106 113 -181 167 -67 47 -79 53 -79 39z"/>
<path d="M2783 4519 c-18 -5 -33 -11 -33 -13 0 -2 39 -3 88 -2 102 1 160 -6
221 -28 51 -19 51 -19 51 -7 0 5 -37 20 -82 35 -87 27 -182 33 -245 15z"/>
<path d="M2045 4469 c-67 -33 -123 -75 -113 -84 3 -4 28 10 55 31 26 20 71 48
98 60 28 13 43 24 35 24 -8 -1 -42 -14 -75 -31z"/>
<path d="M3160 4481 c45 -39 80 -63 80 -54 -1 9 -27 29 -75 58 l-30 17 25 -21z"/>
<path d="M3027 4469 c7 -7 15 -10 18 -7 3 3 -2 9 -12 12 -14 6 -15 5 -6 -5z"/>
<path d="M1893 4400 c-51 -39 -93 -76 -93 -84 0 -7 -9 -21 -20 -31 -12 -10
-19 -24 -16 -31 3 -7 -2 -18 -10 -25 -8 -7 -20 -22 -26 -33 -10 -19 -10 -20 7
-6 17 14 17 13 10 -10 -5 -18 -4 -22 4 -15 6 6 12 20 14 33 2 12 18 38 37 57
19 19 29 35 23 35 -6 0 -17 -10 -26 -22 -8 -13 -18 -20 -21 -17 -12 11 44 68
60 62 13 -5 32 5 78 42 38 30 6 26 -38 -5 -25 -17 -46 -27 -46 -23 0 4 19 21
43 38 23 16 48 35 57 43 8 7 29 24 45 37 17 13 26 24 20 24 -5 1 -52 -31 -102
-69z"/>
<path d="M3115 4460 c-3 -5 17 -21 44 -34 27 -14 52 -30 56 -35 3 -6 20 -20
37 -33 17 -12 28 -17 24 -10 -9 15 -1 15 25 2 29 -16 23 -4 -11 20 -27 19 -29
19 -23 3 7 -19 5 -18 -66 45 -14 12 -31 22 -38 22 -7 0 -13 4 -13 9 0 13 -28
22 -35 11z"/>
<path d="M2625 4450 c-3 -6 1 -7 9 -4 18 7 21 14 7 14 -6 0 -13 -4 -16 -10z"/>
<path d="M3065 4450 c3 -6 12 -10 20 -10 7 0 15 -3 17 -8 2 -4 23 -23 48 -42
25 -18 64 -51 88 -73 24 -21 46 -36 49 -33 4 3 4 7 2 9 -2 2 -31 25 -64 53
-101 84 -179 134 -160 104z"/>
<path d="M1631 4366 l-24 -31 28 27 c16 15 27 29 24 31 -2 3 -15 -10 -28 -27z"/>
<path d="M3080 4386 c0 -12 55 -55 83 -65 32 -12 36 1 5 17 -13 6 -38 21 -55
32 -18 12 -33 19 -33 16z"/>
<path d="M1795 4369 c-4 -6 -5 -12 -2 -15 2 -3 7 2 10 11 7 17 1 20 -8 4z"/>
<path d="M2635 4370 c-16 -7 -17 -9 -3 -9 9 -1 20 4 23 9 7 11 7 11 -20 0z"/>
<path d="M1952 4316 c-35 -24 -75 -54 -89 -67 -36 -34 -83 -105 -83 -126 0
-15 -2 -16 -11 -3 -9 13 -10 13 -6 -2 6 -17 -23 -63 -55 -86 -10 -7 -18 -23
-17 -35 0 -15 2 -17 6 -7 3 8 9 17 12 20 29 24 92 113 88 125 -4 9 -1 12 9 8
7 -3 14 -1 14 4 0 8 52 62 147 151 13 12 28 20 33 17 5 -3 12 0 16 6 4 8 3 9
-4 5 -19 -11 -14 5 6 20 42 32 -9 9 -66 -30z"/>
<path d="M2155 4338 c-16 -12 -53 -41 -81 -64 -28 -24 -55 -40 -59 -36 -5 4
-5 2 -2 -4 7 -11 -28 -46 -96 -97 -20 -16 -35 -32 -32 -36 2 -5 -6 -20 -20
-35 -14 -15 -24 -30 -23 -34 1 -4 -3 -17 -10 -29 -20 -36 1 -27 22 10 11 17
19 35 18 38 0 3 17 25 40 50 32 35 37 38 24 14 -14 -24 -11 -23 16 10 60 72
132 140 196 184 34 24 62 45 62 47 0 11 -28 1 -55 -18z"/>
<path d="M2969 4325 c23 -14 45 -25 47 -25 2 0 31 -21 64 -47 63 -49 195 -194
244 -269 16 -24 31 -42 34 -39 3 2 -3 16 -12 30 -10 15 -15 33 -12 40 6 16
-17 38 -28 27 -5 -4 -6 0 -5 8 4 17 -20 55 -69 109 -27 29 -24 22 13 -31 63
-91 42 -87 -24 5 -58 80 -134 145 -222 188 -71 36 -90 38 -30 4z m356 -295 c3
-5 1 -10 -4 -10 -6 0 -11 5 -11 10 0 6 2 10 4 10 3 0 8 -4 11 -10z"/>
<path d="M3290 4334 c0 -5 14 -20 30 -34 17 -14 30 -30 30 -37 0 -6 4 -13 8
-15 5 -1 28 -31 52 -65 47 -67 56 -74 56 -44 0 11 -3 18 -6 16 -3 -2 -23 19
-45 47 -54 69 -125 143 -125 132z"/>
<path d="M3388 4325 c6 -11 21 -29 34 -40 22 -19 22 -19 -2 10 -40 48 -43 51
-32 30z"/>
<path d="M3070 4305 c19 -14 36 -25 39 -25 10 1 -53 50 -63 50 -6 0 5 -11 24
-25z"/>
<path d="M3330 4326 c0 -2 8 -10 18 -17 15 -13 16 -12 3 4 -13 16 -21 21 -21
13z"/>
<path d="M1488 4218 c-38 -56 -65 -104 -62 -107 4 -3 9 -1 11 5 2 6 32 54 68
107 35 54 61 97 57 97 -4 0 -37 -46 -74 -102z"/>
<path d="M3160 4306 c0 -2 7 -9 15 -16 9 -7 15 -8 15 -2 0 5 -7 12 -15 16 -8
3 -15 4 -15 2z"/>
<path d="M3223 4284 c12 -15 38 -44 58 -65 20 -21 32 -40 27 -41 -5 -2 10 -21
33 -43 23 -22 37 -31 31 -20 -6 11 -20 28 -31 37 -12 11 -18 24 -14 33 4 11
-1 18 -14 21 -11 3 -28 20 -38 37 -18 32 -53 66 -67 67 -5 0 2 -12 15 -26z"/>
<path d="M3386 4265 c24 -39 24 -40 24 -28 0 6 -9 21 -21 34 l-20 24 17 -30z"/>
<path d="M1695 4270 c-3 -5 -2 -10 4 -10 5 0 13 5 16 10 3 6 2 10 -4 10 -5 0
-13 -4 -16 -10z"/>
<path d="M1714 4233 c-16 -21 -35 -44 -42 -51 -17 -19 -35 -53 -29 -58 2 -3
28 28 56 67 29 39 50 73 48 76 -3 2 -18 -13 -33 -34z"/>
<path d="M1950 4240 c-19 -16 -30 -29 -24 -30 5 0 23 14 39 30 37 38 29 39
-15 0z"/>
<path d="M3219 4246 c14 -14 27 -26 29 -26 10 0 -26 44 -39 48 -8 3 -3 -7 10
-22z"/>
<path d="M3460 4232 c0 -12 19 -26 26 -19 2 2 -2 10 -11 17 -9 8 -15 8 -15 2z"/>
<path d="M3595 4206 c10 -14 19 -26 22 -26 7 0 -17 39 -28 46 -6 3 -3 -5 6
-20z"/>
<path d="M1874 4178 c-34 -38 -98 -128 -90 -128 3 0 25 25 48 56 24 31 51 67
61 80 27 34 16 29 -19 -8z"/>
<path d="M1939 4183 l-24 -28 28 24 c25 23 32 31 24 31 -2 0 -14 -12 -28 -27z"/>
<path d="M2100 4174 c-63 -49 -169 -165 -176 -191 -3 -13 -10 -20 -15 -18 -4
3 -18 -14 -31 -37 -41 -79 -159 -361 -155 -372 4 -11 48 79 73 148 22 61 85
197 99 215 8 9 35 43 62 77 69 87 93 113 151 167 60 55 56 62 -8 11z"/>
<path d="M2071 4094 c-119 -124 -139 -151 -116 -151 8 0 13 5 12 11 -1 6 3 10
10 9 6 -1 17 5 25 15 12 15 11 16 -4 3 -47 -36 -8 11 92 112 61 61 110 112
110 114 0 16 -34 -14 -129 -113z"/>
<path d="M3262 4188 c17 -30 58 -81 58 -73 0 12 -55 94 -63 95 -4 0 -2 -10 5
-22z"/>
<path d="M3017 4179 c7 -7 15 -10 18 -7 3 3 -2 9 -12 12 -14 6 -15 5 -6 -5z"/>
<path d="M1691 4141 c-12 -16 -21 -32 -21 -35 0 -4 -11 -23 -24 -44 -13 -20
-27 -48 -31 -62 -6 -25 -6 -25 19 4 13 16 22 36 18 44 -3 10 -1 13 6 8 13 -8
32 24 32 53 0 12 5 21 11 21 5 0 7 -6 3 -12 -5 -9 -2 -9 9 1 9 7 17 19 17 25
0 6 -5 4 -11 -4 -9 -12 -10 -11 -6 8 7 29 3 28 -22 -7z"/>
<path d="M3050 4163 c0 -5 14 -19 30 -31 17 -13 30 -19 29 -15 0 11 -59 56
-59 46z"/>
<path d="M3149 4155 c16 -30 40 -59 45 -54 2 2 -10 20 -26 39 -17 19 -25 26
-19 15z"/>
<path d="M1874 4138 l-19 -23 23 19 c21 18 27 26 19 26 -2 0 -12 -10 -23 -22z"/>
<path d="M2844 4147 c10 -7 52 -34 93 -61 70 -46 85 -61 123 -115 8 -11 18
-21 23 -21 16 0 -58 92 -98 120 -22 16 -45 34 -51 39 -19 16 -88 51 -99 50 -5
0 -1 -6 9 -12z"/>
<path d="M3000 4156 c0 -2 8 -10 18 -17 15 -13 16 -12 3 4 -13 16 -21 21 -21
13z"/>
<path d="M2211 4109 c-36 -22 -74 -50 -85 -62 -12 -12 -39 -37 -61 -55 -22
-17 -31 -29 -20 -25 20 6 20 6 0 -16 -11 -12 -21 -18 -23 -12 -2 6 -8 8 -14 5
-7 -4 -6 -9 1 -13 8 -5 -8 -38 -47 -97 -61 -94 -125 -204 -118 -204 2 0 40 55
84 123 81 124 142 206 142 191 0 -4 15 6 33 22 45 42 115 96 160 123 21 13 36
26 33 29 -8 7 -134 -76 -185 -123 -24 -22 -42 -33 -39 -25 7 23 129 122 182
148 25 13 46 25 46 28 0 12 -31 -1 -89 -37z"/>
<path d="M1589 4086 c-44 -68 -95 -176 -84 -176 3 0 18 26 33 58 16 31 41 79
56 105 35 60 31 70 -5 13z"/>
<path d="M3081 4094 c32 -34 89 -111 127 -169 39 -62 52 -79 52 -71 0 25 -146
228 -187 258 -23 18 -22 15 8 -18z"/>
<path d="M3120 4120 c0 -5 5 -10 11 -10 5 0 7 5 4 10 -3 6 -8 10 -11 10 -2 0
-4 -4 -4 -10z"/>
<path d="M2630 4100 c0 -5 5 -10 11 -10 5 0 7 5 4 10 -3 6 -8 10 -11 10 -2 0
-4 -4 -4 -10z"/>
<path d="M3330 4106 c0 -4 8 -19 19 -34 10 -15 37 -56 60 -92 53 -84 53 -69
-1 23 -40 69 -78 119 -78 103z"/>
<path d="M3483 4102 c-8 -5 -8 -12 2 -25 12 -17 13 -16 11 7 0 15 -1 26 -1 26
0 0 -5 -4 -12 -8z"/>
<path d="M1394 4058 c-83 -178 -128 -276 -134 -293 -4 -11 -16 -37 -25 -58 -9
-21 -15 -41 -12 -43 3 -3 19 30 37 73 17 43 43 96 55 119 35 59 106 225 103
236 -2 5 -13 -10 -24 -34z"/>
<path d="M3085 4041 c63 -80 89 -110 79 -91 -13 26 -91 125 -110 140 -10 8 4
-14 31 -49z"/>
<path d="M2255 4039 c-96 -55 -190 -125 -200 -149 -3 -8 6 -3 22 11 43 39 90
71 193 132 52 32 90 57 85 57 -6 0 -51 -23 -100 -51z"/>
<path d="M2545 4080 c-47 -11 -244 -90 -250 -100 -3 -5 16 0 42 12 43 19 238
88 249 88 14 0 0 -20 -18 -25 -13 -3 -32 -10 -43 -15 -11 -5 -54 -21 -95 -36
-41 -15 -106 -43 -145 -62 -80 -39 -225 -132 -225 -144 0 -4 28 12 63 37 78
55 195 113 312 155 50 18 107 41 127 51 21 11 48 19 60 19 18 1 20 3 8 9 -27
15 -54 19 -85 11z"/>
<path d="M2833 4070 c14 -11 27 -20 30 -20 2 0 29 -24 59 -52 30 -29 88 -84
130 -123 41 -38 96 -103 122 -142 45 -70 70 -98 45 -50 -29 54 -112 177 -120
177 -5 0 -9 6 -9 14 0 7 -8 20 -17 27 -16 13 -17 12 -4 -3 27 -35 -3 -17 -58
35 -124 115 -176 157 -195 157 -5 0 3 -9 17 -20z"/>
<path d="M3390 4080 c1 -16 38 -66 44 -59 2 2 -7 20 -20 39 -13 19 -24 28 -24
20z"/>
<path d="M1610 4060 c-6 -11 -8 -20 -6 -20 3 0 10 9 16 20 6 11 8 20 6 20 -3
0 -10 -9 -16 -20z"/>
<path d="M1928 4041 c-18 -21 -43 -59 -56 -82 -12 -24 -17 -35 -10 -25 7 11
34 48 60 83 53 71 56 82 6 24z"/>
<path d="M2710 4070 c8 -5 20 -10 25 -10 6 0 3 5 -5 10 -8 5 -19 10 -25 10 -5
0 -3 -5 5 -10z"/>
<path d="M3173 4056 c6 -13 20 -29 31 -36 17 -11 16 -9 -3 19 -28 39 -42 48
-28 17z"/>
<path d="M3230 4052 c6 -13 14 -21 18 -18 3 4 -2 14 -12 24 -18 16 -18 16 -6
-6z"/>
<path d="M3520 4040 c6 -11 13 -20 16 -20 2 0 0 9 -6 20 -6 11 -13 20 -16 20
-2 0 0 -9 6 -20z"/>
<path d="M1810 4035 c-7 -9 -8 -15 -2 -15 5 0 12 7 16 15 3 8 4 15 2 15 -2 0
-9 -7 -16 -15z"/>
<path d="M2585 4026 c-22 -12 -83 -37 -135 -55 -208 -72 -364 -177 -463 -310
-43 -58 -103 -183 -132 -271 -9 -30 -31 -79 -48 -109 -16 -29 -26 -52 -21 -50
5 2 32 16 59 30 55 29 142 49 131 30 -5 -8 0 -8 18 -1 21 8 24 7 19 -7 -5 -12
-2 -15 10 -10 9 3 19 2 21 -2 6 -9 120 -25 249 -35 50 -3 47 10 -5 23 -24 5
-61 14 -83 20 -22 5 -58 11 -81 14 -23 2 -45 7 -50 10 -20 12 -144 18 -179 8
l-37 -10 6 37 c8 46 131 297 160 326 11 11 21 24 21 28 0 9 80 86 106 103 9 5
36 23 60 40 24 16 47 28 52 27 4 -1 7 2 7 7 0 10 95 53 197 89 43 15 95 37
115 50 21 13 42 21 47 18 5 -3 11 1 15 9 7 20 -11 17 -59 -9z"/>
<path d="M1733 3998 c-27 -51 -43 -88 -36 -88 3 0 -6 -15 -19 -32 -14 -18 -27
-42 -31 -53 -3 -11 -15 -45 -26 -75 -25 -64 -24 -60 -9 -60 6 0 8 3 5 6 -4 4
7 31 23 61 17 30 30 64 30 75 0 12 3 18 6 15 4 -4 20 19 37 51 17 31 38 63 49
70 10 7 18 19 18 25 -1 7 -17 -6 -36 -28 -31 -35 -39 -23 -9 15 13 17 27 50
20 50 -2 0 -12 -15 -22 -32z"/>
<path d="M2650 4012 c0 -11 13 -23 35 -31 19 -7 33 -17 30 -22 -4 -5 -2 -9 4
-9 5 0 11 5 13 10 2 6 14 1 28 -12 13 -12 29 -23 35 -23 11 -1 67 -27 75 -35
3 -3 37 -32 75 -65 94 -80 95 -82 87 -90 -4 -4 -2 -5 5 -3 20 5 121 -122 167
-211 54 -105 84 -200 66 -211 -7 -4 -35 -1 -64 6 -47 13 -62 12 -184 -12 -162
-30 -288 -70 -297 -92 -5 -14 -4 -14 13 1 10 9 33 17 52 18 19 1 52 6 73 11
57 14 168 28 212 28 30 0 36 2 25 10 -12 8 -11 10 7 10 12 0 25 5 28 10 3 6
12 10 18 10 7 0 6 -4 -3 -10 -11 -8 -8 -10 15 -8 34 2 95 -17 143 -43 17 -10
32 -14 32 -9 0 25 -66 212 -95 271 -41 81 -84 137 -162 215 -180 176 -219 205
-335 250 -38 14 -72 33 -75 40 -7 20 -23 17 -23 -4z"/>
<path d="M3270 4012 c6 -13 14 -21 18 -18 3 4 -2 14 -12 24 -18 16 -18 16 -6
-6z"/>
<path d="M3080 3996 c8 -11 27 -32 42 -48 15 -15 25 -34 22 -42 -3 -8 -1 -17
5 -21 7 -4 8 1 4 12 -5 14 0 13 21 -7 16 -14 24 -30 21 -39 -3 -9 -3 -12 1 -8
10 9 92 -120 104 -164 10 -37 58 -149 59 -138 2 16 -70 202 -90 235 -54 88
-96 142 -148 189 -31 28 -49 41 -41 31z"/>
<path d="M3220 3996 c0 -5 10 -30 21 -54 14 -29 24 -40 29 -32 5 8 21 -15 43
-61 20 -41 36 -70 37 -65 0 6 -16 43 -36 84 -23 47 -39 70 -44 62 -5 -9 -9 -9
-14 -1 -4 6 -5 15 -2 19 2 4 -4 19 -15 32 -10 14 -19 21 -19 16z"/>
<path d="M3541 3995 c0 -5 8 -26 19 -45 11 -19 19 -30 19 -25 0 6 -8 26 -19
45 -11 19 -19 31 -19 25z"/>
<path d="M1628 3918 c-47 -85 -100 -217 -94 -231 3 -8 5 -8 5 1 1 7 26 64 56
127 30 62 55 118 55 123 0 5 7 12 15 16 16 6 21 26 6 26 -5 0 -25 -28 -43 -62z"/>
<path d="M3300 3971 c0 -6 4 -13 10 -16 6 -3 7 1 4 9 -7 18 -14 21 -14 7z"/>
<path d="M3460 3964 c0 -6 7 -19 16 -30 14 -18 14 -18 3 6 -14 31 -19 36 -19
24z"/>
<path d="M3100 3931 c0 -5 7 -15 17 -22 15 -13 15 -12 4 9 -12 23 -21 28 -21
13z"/>
<path d="M1876 3837 c-25 -52 -46 -100 -46 -107 0 -6 -7 -25 -16 -41 -8 -17
-13 -36 -11 -42 2 -6 16 22 32 63 15 41 43 106 62 144 19 37 32 70 29 73 -2 3
-25 -38 -50 -90z"/>
<path d="M1945 3919 c-4 -6 -5 -12 -2 -15 2 -3 7 2 10 11 7 17 1 20 -8 4z"/>
<path d="M1943 3853 c-21 -32 -46 -65 -55 -75 -10 -10 -18 -23 -18 -29 0 -6
11 2 24 18 29 35 98 143 91 143 -2 0 -22 -26 -42 -57z"/>
<path d="M3330 3905 c0 -5 5 -17 10 -25 5 -8 10 -10 10 -5 0 6 -5 17 -10 25
-5 8 -10 11 -10 5z"/>
<path d="M3546 3897 c3 -10 9 -15 12 -12 3 3 0 11 -7 18 -10 9 -11 8 -5 -6z"/>
<path d="M1765 3889 c-4 -6 -5 -12 -2 -15 2 -3 7 2 10 11 7 17 1 20 -8 4z"/>
<path d="M3487 3873 c11 -29 54 -109 47 -88 -24 75 -37 105 -45 105 -4 0 -5
-8 -2 -17z"/>
<path d="M1787 3843 c-10 -9 -9 -33 1 -33 4 0 8 9 9 20 2 21 0 24 -10 13z"/>
<path d="M3445 3810 c-3 -5 -1 -10 4 -10 6 0 11 5 11 10 0 6 -2 10 -4 10 -3 0
-8 -4 -11 -10z"/>
<path d="M3200 3771 c0 -6 4 -13 10 -16 6 -3 7 1 4 9 -7 18 -14 21 -14 7z"/>
<path d="M3541 3744 c0 -11 3 -14 6 -6 3 7 2 16 -1 19 -3 4 -6 -2 -5 -13z"/>
<path d="M3550 3715 c0 -5 5 -17 10 -25 5 -8 10 -10 10 -5 0 6 -5 17 -10 25
-5 8 -10 11 -10 5z"/>
<path d="M1245 3668 c-4 -13 -18 -45 -32 -73 -29 -61 -52 -150 -142 -560 -48
-215 -66 -290 -92 -369 -26 -82 -17 -82 15 1 30 81 73 249 116 463 38 187 93
401 126 489 13 35 22 66 20 68 -2 3 -7 -6 -11 -19z"/>
<path d="M3571 3665 c1 -19 18 -51 18 -35 0 8 -4 22 -9 30 -5 8 -9 11 -9 5z"/>
<path d="M3230 3641 c0 -6 4 -13 10 -16 6 -3 7 1 4 9 -7 18 -14 21 -14 7z"/>
<path d="M3346 3637 c3 -10 9 -15 12 -12 3 3 0 11 -7 18 -10 9 -11 8 -5 -6z"/>
<path d="M1765 3589 c-10 -24 -29 -68 -42 -97 -40 -90 -24 -72 23 27 24 52 43
99 41 104 -1 5 -11 -10 -22 -34z"/>
<path d="M3361 3605 c0 -5 6 -21 14 -35 8 -14 14 -20 14 -15 0 6 -6 21 -14 35
-8 14 -14 21 -14 15z"/>
<path d="M3390 3531 c0 -6 4 -13 10 -16 6 -3 7 1 4 9 -7 18 -14 21 -14 7z"/>
<path d="M3366 3507 c3 -10 9 -15 12 -12 3 3 0 11 -7 18 -10 9 -11 8 -5 -6z"/>
<path d="M1681 3394 c0 -11 3 -14 6 -6 3 7 2 16 -1 19 -3 4 -6 -2 -5 -13z"/>
<path d="M1432 3325 c0 -16 2 -22 5 -12 2 9 2 23 0 30 -3 6 -5 -1 -5 -18z"/>
<path d="M1661 3324 c0 -11 3 -14 6 -6 3 7 2 16 -1 19 -3 4 -6 -2 -5 -13z"/>
<path d="M1691 3314 c0 -11 3 -14 6 -6 3 7 2 16 -1 19 -3 4 -6 -2 -5 -13z"/>
<path d="M1641 3244 c0 -11 3 -14 6 -6 3 7 2 16 -1 19 -3 4 -6 -2 -5 -13z"/>
<path d="M3175 3240 c11 -5 27 -9 35 -9 13 -1 13 0 0 9 -8 5 -24 9 -35 9 l-20
0 20 -9z"/>
<path d="M1933 3233 c9 -2 25 -2 35 0 9 3 1 5 -18 5 -19 0 -27 -2 -17 -5z"/>
<path d="M2349 3222 c6 -12 16 -24 22 -28 8 -4 8 -1 0 14 -6 12 -16 24 -22 28
-8 4 -8 1 0 -14z"/>
<path d="M1412 3200 c0 -14 2 -19 5 -12 2 6 2 18 0 25 -3 6 -5 1 -5 -13z"/>
<path d="M1627 3148 c-22 -71 -49 -189 -44 -194 2 -2 18 51 35 118 33 125 38
170 9 76z"/>
<path d="M1803 3179 c-30 -11 -37 -28 -22 -55 16 -31 45 -28 41 5 -2 15 0 21
7 17 6 -4 11 -3 11 1 0 20 136 16 163 -4 7 -5 23 -9 37 -9 14 1 31 -5 38 -11
7 -7 34 -19 60 -27 26 -8 56 -18 66 -22 14 -5 17 -4 12 5 -11 17 -83 61 -101
61 -8 0 -15 5 -15 10 0 6 -13 10 -29 10 -17 0 -32 4 -35 9 -3 4 -27 9 -53 10
-27 1 -73 3 -103 5 -31 2 -65 0 -77 -5z"/>
<path d="M3155 3184 c-149 -34 -235 -67 -235 -91 0 -17 -1 -17 52 7 92 40 292
70 302 44 3 -8 12 -11 19 -8 8 3 17 -2 20 -10 9 -23 24 -20 30 6 11 40 -12 53
-93 55 -41 1 -84 0 -95 -3z"/>
<path d="M3480 3141 c0 -5 5 -13 10 -16 6 -3 10 -2 10 4 0 5 -4 13 -10 16 -5
3 -10 2 -10 -4z"/>
<path d="M1924 3077 c-7 -18 11 -47 30 -47 6 0 5 4 -3 9 -10 6 -10 10 -1 16 6
4 21 -1 32 -12 20 -16 21 -17 15 0 -4 11 -1 17 7 17 8 0 16 -6 19 -12 3 -10 7
-10 19 0 10 8 19 9 22 3 4 -5 14 -9 24 -9 35 3 120 -34 145 -62 32 -36 87
-111 87 -119 0 -3 -34 -7 -76 -8 -84 -3 -89 4 -19 22 l46 11 -28 37 c-34 44
-43 46 -43 9 0 -38 -38 -72 -88 -79 -33 -4 -44 -1 -73 25 -28 25 -34 37 -34
71 0 23 -1 41 -3 41 -2 0 -20 -10 -42 -22 -52 -30 -58 -63 -16 -85 17 -9 33
-19 36 -23 8 -11 106 -32 137 -29 15 2 34 -1 42 -6 9 -5 16 -5 18 1 2 5 30 7
62 6 111 -7 128 30 51 113 -61 65 -82 85 -92 85 -4 0 -8 8 -8 17 0 9 -3 13 -7
10 -3 -4 -11 -3 -17 3 -24 19 -180 31 -205 15 -8 -4 -17 -2 -22 6 -6 11 -9 10
-15 -4z m44 -164 c-6 -7 -17 -13 -24 -13 -8 0 -14 6 -14 13 0 6 11 12 24 12
18 0 22 -3 14 -12z"/>
<path d="M2968 3075 c-26 -8 -61 -23 -77 -34 -16 -12 -34 -21 -40 -21 -6 0
-11 -6 -11 -14 0 -8 -6 -16 -12 -19 -7 -2 -9 -8 -5 -13 5 -5 13 -2 18 8 9 17
81 58 102 58 7 0 -4 -9 -23 -21 -46 -27 -106 -85 -132 -127 -33 -53 -21 -57
154 -54 215 3 203 3 187 13 -9 6 -10 9 -2 9 20 0 83 64 75 76 -8 13 -66 44
-81 44 -5 0 -9 -13 -9 -29 1 -37 -34 -87 -68 -95 -61 -16 -124 26 -124 83 -1
26 -1 25 -35 -13 -34 -38 -38 -63 -8 -51 18 6 53 -3 53 -14 0 -5 -29 -8 -65
-7 -36 1 -65 5 -65 10 0 5 18 33 39 61 42 55 87 89 134 100 18 5 26 12 23 21
-6 15 1 16 74 16 51 -1 76 -5 86 -15 11 -11 34 -8 34 3 0 6 -6 10 -14 10 -7 0
-27 7 -42 15 -34 18 -101 18 -166 0z m12 -25 c0 -5 -5 -10 -11 -10 -5 0 -7 5
-4 10 3 6 8 10 11 10 2 0 4 -4 4 -10z m198 -124 c-10 -7 -18 -18 -18 -25 0 -6
-9 -11 -21 -11 -27 0 -20 21 12 37 32 17 49 16 27 -1z"/>
<path d="M3492 3055 c0 -11 4 -33 8 -50 l8 -30 0 30 c0 17 -3 39 -8 50 l-9 20
1 -20z"/>
<path d="M1870 3041 c0 -5 -16 -12 -35 -15 -19 -4 -35 -11 -35 -16 0 -14 15
-12 60 7 41 18 52 33 25 33 -8 0 -15 -4 -15 -9z"/>
<path d="M3010 3040 c0 -11 14 -11 50 0 22 7 21 8 -12 9 -21 1 -38 -3 -38 -9z"/>
<path d="M3230 3031 c13 -11 29 -17 35 -13 6 4 2 8 -7 10 -10 2 -18 8 -18 13
0 5 -8 9 -17 9 -15 0 -13 -4 7 -19z"/>
<path d="M1910 3020 c0 -5 5 -10 11 -10 5 0 7 5 4 10 -3 6 -8 10 -11 10 -2 0
-4 -4 -4 -10z"/>
<path d="M3165 3020 c27 -12 43 -12 25 0 -8 5 -22 9 -30 9 -10 0 -8 -3 5 -9z"/>
<path d="M4013 3000 c15 -82 51 -230 54 -226 5 5 -47 249 -55 256 -3 3 -2 -11
1 -30z"/>
<path d="M3370 2989 c0 -19 -3 -43 -6 -54 -3 -11 1 -28 9 -39 12 -16 13 -10
10 50 -4 72 -13 101 -13 43z"/>
<path d="M1865 3001 c-10 -16 -65 -24 -80 -11 -9 7 -15 8 -15 2 0 -5 7 -15 16
-23 13 -10 24 -8 67 14 29 14 44 26 35 26 -9 1 -19 -3 -23 -8z"/>
<path d="M2997 2993 c-13 -12 -7 -23 13 -23 11 0 20 7 20 15 0 15 -21 21 -33
8z"/>
<path d="M3245 2980 c19 -21 50 -26 60 -10 4 6 -7 10 -24 10 -17 0 -31 5 -31
10 0 6 -5 10 -12 10 -6 0 -3 -9 7 -20z"/>
<path d="M2075 2980 c3 -5 15 -10 26 -10 10 0 19 5 19 10 0 6 -12 10 -26 10
-14 0 -23 -4 -19 -10z"/>
<path d="M1738 2955 c5 -30 15 -37 36 -29 14 5 12 10 -9 30 -32 30 -33 30 -27
-1z"/>
<path d="M2160 2946 c0 -9 5 -16 10 -16 6 0 10 4 10 9 0 6 -4 13 -10 16 -5 3
-10 -1 -10 -9z"/>
<path d="M3658 2946 c-16 -8 -24 -22 -26 -46 -3 -33 -3 -34 15 -17 30 26 72
22 83 -9 22 -58 7 -194 -27 -239 -15 -20 -15 -20 -8 0 22 63 17 188 -8 198 -9
3 -12 -28 -12 -130 0 -100 -3 -137 -12 -140 -7 -3 -13 -19 -13 -37 l0 -31 29
45 c15 25 40 77 56 115 35 86 38 179 7 247 -21 49 -47 62 -84 44z"/>
<path d="M1402 2928 c-54 -58 -58 -162 -10 -273 18 -41 35 -75 38 -75 3 0 6
33 7 73 1 39 8 100 16 134 9 36 11 65 6 68 -5 3 -12 -12 -15 -35 -4 -22 -11
-43 -17 -47 -6 -4 -8 4 -5 20 3 16 1 24 -5 20 -5 -3 -7 -30 -4 -63 7 -77 -8
-98 -22 -31 -15 70 -14 115 4 157 10 25 19 34 30 30 8 -3 21 -9 29 -12 16 -6
32 29 21 46 -11 18 -51 11 -73 -12z"/>
<path d="M1571 2924 c0 -11 3 -14 6 -6 3 7 2 16 -1 19 -3 4 -6 -2 -5 -13z"/>
<path d="M3390 2926 c0 -8 4 -17 9 -20 5 -4 7 3 4 14 -6 23 -13 26 -13 6z"/>
<path d="M3050 2920 c0 -5 5 -10 11 -10 5 0 7 5 4 10 -3 6 -8 10 -11 10 -2 0
-4 -4 -4 -10z"/>
<path d="M1800 2911 c-19 -3 -35 -10 -35 -16 -1 -5 -6 -19 -11 -30 -26 -48
-55 -187 -50 -238 3 -29 8 -77 11 -107 3 -30 10 -57 14 -60 5 -3 9 -22 9 -43
0 -21 3 -41 7 -45 9 -9 0 86 -16 165 -11 53 -10 76 5 164 10 56 27 116 37 133
10 17 19 39 19 49 0 9 5 17 11 17 5 0 7 -5 3 -11 -9 -15 36 -1 56 17 12 12 12
14 -5 13 -11 -1 -36 -4 -55 -8z"/>
<path d="M2060 2900 c27 -21 50 -26 50 -10 0 6 -9 10 -21 10 -11 0 -17 5 -14
10 3 6 -4 10 -17 10 l-23 0 25 -20z"/>
<path d="M2131 2904 c-20 -23 -9 -25 19 -4 16 13 20 20 10 19 -8 0 -21 -7 -29
-15z"/>
<path d="M2960 2904 c0 -10 38 -21 49 -15 9 6 3 10 -18 13 -17 2 -31 3 -31 2z"/>
<path d="M3277 2883 c3 -7 13 -13 23 -13 30 0 77 -47 83 -82 15 -81 25 -122
27 -108 1 8 6 -1 10 -20 l7 -35 2 42 c0 23 -5 62 -13 85 -8 24 -18 61 -22 83
-7 36 -8 38 -14 15 -7 -25 -9 -24 -24 23 -4 13 -12 16 -31 11 -14 -3 -25 -2
-25 3 0 5 -6 10 -14 10 -8 0 -12 -6 -9 -14z"/>
<path d="M3531 2864 c0 -11 3 -14 6 -6 3 7 2 16 -1 19 -3 4 -6 -2 -5 -13z"/>
<path d="M1426 2861 c-4 -7 -5 -15 -2 -18 9 -9 19 4 14 18 -4 11 -6 11 -12 0z"/>
<path d="M1885 2859 c-4 -6 -5 -13 -2 -16 7 -7 27 6 27 18 0 12 -17 12 -25 -2z"/>
<path d="M3185 2850 c3 -5 8 -10 11 -10 2 0 4 5 4 10 0 6 -5 10 -11 10 -5 0
-7 -4 -4 -10z"/>
<path d="M1546 2824 c-4 -14 -5 -28 -3 -31 3 -2 8 8 11 23 4 14 5 28 3 31 -3
2 -8 -8 -11 -23z"/>
<path d="M1936 2834 c-9 -22 3 -32 14 -14 12 19 12 30 1 30 -5 0 -12 -7 -15
-16z"/>
<path d="M1970 2804 c0 -8 5 -12 10 -9 6 3 10 10 10 16 0 5 -4 9 -10 9 -5 0
-10 -7 -10 -16z"/>
<path d="M2013 2805 c-8 -22 6 -33 17 -15 13 20 12 30 0 30 -6 0 -13 -7 -17
-15z"/>
<path d="M3015 2810 c-21 -5 -24 -8 -10 -10 11 -1 30 -3 43 -6 15 -3 22 1 22
11 0 16 -8 17 -55 5z"/>
<path d="M3090 2811 c0 -5 11 -8 25 -8 14 0 25 3 25 8 0 5 -11 9 -25 9 -14 0
-25 -4 -25 -9z"/>
<path d="M3541 2804 c0 -11 3 -14 6 -6 3 7 2 16 -1 19 -3 4 -6 -2 -5 -13z"/>
<path d="M2060 2795 c0 -9 5 -15 11 -13 6 2 11 8 11 13 0 5 -5 11 -11 13 -6 2
-11 -4 -11 -13z"/>
<path d="M1515 2715 c-9 -36 -15 -68 -12 -71 6 -6 21 42 33 104 11 56 -2 34
-21 -33z"/>
<path d="M3115 2760 c-3 -5 -2 -10 4 -10 5 0 13 5 16 10 3 6 2 10 -4 10 -5 0
-13 -4 -16 -10z"/>
<path d="M4105 2658 c2 -13 14 -77 25 -143 21 -122 45 -213 82 -318 27 -75 35
-67 10 9 -31 93 -71 263 -81 345 -10 73 -25 129 -36 129 -3 0 -3 -10 0 -22z"/>
<path d="M1015 2660 c-14 -23 -54 -153 -49 -161 9 -15 -27 -200 -62 -316 -47
-155 -47 -152 -26 -108 27 58 78 236 98 340 9 50 24 127 34 173 16 81 17 92 5
72z"/>
<path d="M4147 2639 c4 -13 8 -18 11 -10 2 7 -1 18 -6 23 -8 8 -9 4 -5 -13z"/>
<path d="M3582 2630 c0 -14 2 -19 5 -12 2 6 2 18 0 25 -3 6 -5 1 -5 -13z"/>
<path d="M3631 2634 c0 -11 3 -14 6 -6 3 7 2 16 -1 19 -3 4 -6 -2 -5 -13z"/>
<path d="M1478 2577 c-12 -30 -10 -93 3 -80 5 5 9 30 7 54 -2 31 -5 39 -10 26z"/>
<path d="M1022 2485 c0 -16 2 -22 5 -12 2 9 2 23 0 30 -3 6 -5 -1 -5 -18z"/>
<path d="M4201 2494 c0 -11 3 -14 6 -6 3 7 2 16 -1 19 -3 4 -6 -2 -5 -13z"/>
<path d="M2724 2464 c2 -16 8 -40 14 -54 10 -24 11 -24 11 -3 1 12 -4 25 -9
28 -6 4 -8 11 -5 16 4 5 2 16 -3 26 -8 13 -9 10 -8 -13z"/>
<path d="M2577 2469 c7 -7 15 -10 18 -7 3 3 -2 9 -12 12 -14 6 -15 5 -6 -5z"/>
<path d="M2780 2440 c-1 -8 -3 -32 -4 -52 -3 -48 -15 -61 -87 -97 -58 -29 -60
-29 -72 -10 -15 25 -37 24 -37 -1 0 -28 4 -36 15 -31 6 2 26 5 45 7 46 3 127
40 139 63 16 30 21 74 12 106 -5 17 -10 23 -11 15z"/>
<path d="M3460 2401 c0 -37 -9 -62 -20 -56 -10 6 -25 -14 -17 -21 3 -3 14 -1
24 5 14 7 20 22 22 55 1 25 -1 46 -4 46 -3 0 -5 -13 -5 -29z"/>
<path d="M2381 2406 c-13 -15 23 -76 44 -76 8 0 15 5 15 10 0 6 -9 10 -21 10
-14 0 -19 5 -17 18 5 25 44 27 85 2 37 -22 55 -21 32 3 -30 29 -123 51 -138
33z"/>
<path d="M3702 2395 c0 -16 2 -22 5 -12 2 9 2 23 0 30 -3 6 -5 -1 -5 -18z"/>
<path d="M1313 2370 c0 -25 2 -35 4 -22 2 12 2 32 0 45 -2 12 -4 2 -4 -23z"/>
<path d="M2331 2387 c-1 -37 22 -80 53 -101 28 -18 66 -22 66 -6 0 6 -6 10
-14 10 -24 0 -68 42 -86 84 -17 39 -19 39 -19 13z"/>
<path d="M2615 2398 c-22 -12 -46 -41 -40 -47 2 -2 16 6 31 18 31 24 62 27 89
7 18 -13 18 -14 -3 -27 -30 -19 -28 -29 6 -20 32 9 37 38 8 64 -22 19 -62 22
-91 5z"/>
<path d="M1660 2340 c20 -13 40 -13 40 0 0 6 -12 10 -27 10 -22 0 -25 -2 -13
-10z"/>
<path d="M1754 2339 c-4 -7 -3 -9 4 -5 5 3 13 0 15 -6 4 -9 6 -10 6 -1 1 17
-16 25 -25 12z"/>
<path d="M2453 2325 c0 -8 4 -15 7 -15 4 0 13 7 20 15 10 12 9 15 -7 15 -11 0
-20 -7 -20 -15z"/>
<path d="M1291 2314 c0 -11 3 -14 6 -6 3 7 2 16 -1 19 -3 4 -6 -2 -5 -13z"/>
<path d="M3521 2233 c-7 -54 -19 -138 -27 -188 -8 -49 -17 -122 -19 -162 -4
-78 -23 -155 -36 -147 -5 3 -9 -20 -9 -50 0 -30 -4 -57 -9 -60 -8 -5 -11 -22
-26 -125 -3 -19 -8 -37 -10 -42 -11 -17 -86 -292 -82 -302 2 -6 16 34 31 89
15 54 32 115 38 134 6 19 13 41 15 49 2 8 6 11 9 9 3 -3 -2 -33 -10 -66 -22
-85 -46 -335 -46 -477 0 -66 -4 -167 -9 -225 -13 -130 -13 -403 -1 -375 5 11
9 63 9 115 1 52 6 147 11 210 6 63 12 196 14 295 4 188 16 287 66 570 56 312
69 399 85 535 19 176 29 310 23 310 -3 0 -11 -44 -17 -97z"/>
<path d="M1750 2307 c0 -62 79 -237 150 -330 73 -97 354 -337 455 -389 92 -48
205 -60 309 -33 50 13 141 57 156 75 3 3 26 21 52 40 27 18 46 35 43 38 -2 2
-21 -10 -42 -27 -21 -17 -43 -31 -50 -31 -7 0 -13 -4 -13 -10 0 -5 -5 -10 -11
-10 -6 0 -23 -8 -37 -19 -15 -10 -51 -26 -81 -36 -93 -30 -274 -7 -331 43 -43
39 -76 62 -86 62 -7 0 -14 7 -18 15 -3 8 -11 15 -19 15 -7 0 -30 16 -50 35
-20 19 -42 35 -48 35 -5 0 -7 5 -3 12 4 6 3 8 -3 5 -5 -3 -45 28 -89 68 -43
41 -76 75 -72 75 4 0 -10 17 -32 39 -44 43 -132 210 -151 284 -11 46 -29 73
-29 44z"/>
<path d="M2478 2302 c-25 -5 -23 -22 2 -22 11 0 20 -4 20 -10 0 -5 4 -10 8
-10 12 0 9 39 -3 43 -5 2 -18 2 -27 -1z"/>
<path d="M3840 2257 c0 -57 19 -294 26 -326 13 -58 12 -1 -2 174 -15 186 -24
243 -24 152z"/>
<path d="M1277 2255 c-14 -60 -67 -399 -66 -419 2 -34 17 37 49 234 17 101 29
191 27 200 -2 8 -6 2 -10 -15z"/>
<path d="M4131 2263 c-1 -29 21 -131 26 -118 2 6 -3 40 -11 75 -8 36 -14 55
-15 43z"/>
<path d="M3711 2254 c0 -11 3 -14 6 -6 3 7 2 16 -1 19 -3 4 -6 -2 -5 -13z"/>
<path d="M4171 2252 c-2 -25 41 -219 74 -338 39 -138 186 -599 220 -689 13
-33 26 -69 29 -79 4 -10 9 -16 12 -14 3 3 -38 133 -90 289 -127 379 -191 600
-182 625 3 8 2 14 -2 14 -4 0 -9 10 -10 23 -3 29 -50 186 -51 169z"/>
<path d="M1306 2218 c-2 -18 -10 -73 -16 -123 -19 -149 -39 -262 -76 -435 -46
-212 -62 -268 -124 -419 -27 -69 -48 -127 -45 -129 7 -7 72 137 100 223 32 93
96 354 145 585 4 19 11 43 15 53 4 10 3 17 -5 17 -7 0 -9 8 -5 21 14 43 32
239 22 239 -3 0 -8 -15 -11 -32z"/>
<path d="M3343 2233 c-3 -10 -8 -22 -11 -27 -3 -5 0 -6 5 -3 11 7 25 47 17 47
-3 0 -7 -8 -11 -17z"/>
<path d="M1430 2231 c0 -5 5 -13 10 -16 6 -3 10 -2 10 4 0 5 -4 13 -10 16 -5
3 -10 2 -10 -4z"/>
<path d="M882 2009 c-79 -240 -76 -228 -58 -199 14 23 15 23 16 5 l1 -20 9 20
c12 27 12 43 0 25 -9 -13 -10 -13 -9 0 1 21 17 58 18 41 1 -8 8 -5 19 10 17
23 80 294 71 304 -3 2 -33 -81 -67 -186z m-2 -84 c0 -14 -4 -25 -9 -25 -4 0
-6 11 -3 25 2 14 6 25 8 25 2 0 4 -11 4 -25z"/>
<path d="M3722 2180 c0 -14 2 -19 5 -12 2 6 2 18 0 25 -3 6 -5 1 -5 -13z"/>
<path d="M1421 2174 c0 -11 3 -14 6 -6 3 7 2 16 -1 19 -3 4 -6 -2 -5 -13z"/>
<path d="M2394 2149 c-32 -17 -61 -33 -64 -37 -3 -4 -22 -16 -43 -27 -35 -19
-36 -20 -16 -29 13 -6 26 -6 34 0 135 96 169 109 216 83 15 -8 31 -6 64 7 50
18 42 21 166 -59 31 -20 59 -34 62 -31 3 3 15 1 26 -6 16 -8 21 -8 21 2 0 7
-15 20 -32 27 -18 8 -55 29 -83 46 -84 53 -132 65 -172 44 -18 -9 -29 -10 -48
-1 -40 19 -68 14 -131 -19z"/>
<path d="M1494 2058 c7 -143 39 -428 67 -578 12 -63 46 -216 76 -340 30 -124
61 -259 68 -300 9 -51 13 -64 14 -39 1 20 -10 96 -24 170 -41 218 -103 595
-120 728 -16 135 -31 178 -22 66 4 -53 3 -60 -3 -30 -22 102 -40 252 -40 334
0 51 -4 93 -10 96 -7 4 -9 -30 -6 -107z m73 -435 c-2 -16 -4 -5 -4 22 0 28 2
40 4 28 2 -13 2 -35 0 -50z"/>
<path d="M3783 2103 c0 -34 4 -68 8 -75 11 -17 10 32 -1 92 -8 45 -8 45 -7
-17z"/>
<path d="M3731 2134 c0 -11 3 -14 6 -6 3 7 2 16 -1 19 -3 4 -6 -2 -5 -13z"/>
<path d="M4240 2127 c0 -12 29 -77 34 -77 7 0 -15 63 -25 75 -5 5 -9 6 -9 2z"/>
<path d="M1407 2105 c-4 -8 -3 -16 1 -19 4 -3 9 4 9 15 2 23 -3 25 -10 4z"/>
<path d="M1443 2040 c0 -25 2 -35 4 -22 2 12 2 32 0 45 -2 12 -4 2 -4 -23z"/>
<path d="M1411 2054 c0 -11 3 -14 6 -6 3 7 2 16 -1 19 -3 4 -6 -2 -5 -13z"/>
<path d="M2528 2063 c6 -2 18 -2 25 0 6 3 1 5 -13 5 -14 0 -19 -2 -12 -5z"/>
<path d="M2578 2063 c7 -3 16 -2 19 1 4 3 -2 6 -13 5 -11 0 -14 -3 -6 -6z"/>
<path d="M1525 1990 c11 -121 26 -196 24 -119 0 19 -7 66 -15 104 -13 67 -14
68 -9 15z"/>
<path d="M846 2015 c-3 -9 -6 -22 -5 -28 0 -7 5 -1 10 12 5 13 8 26 5 28 -2 2
-6 -3 -10 -12z"/>
<path d="M3239 2013 c-13 -16 -12 -17 4 -4 16 13 21 21 13 21 -2 0 -10 -8 -17
-17z"/>
<path d="M3608 1998 c-3 -18 -2 -55 2 -83 7 -46 7 -44 9 33 1 86 -3 104 -11
50z"/>
<path d="M2315 2013 c-65 -4 -86 -20 -52 -38 18 -10 24 -9 35 4 10 13 16 13
32 3 16 -10 21 -9 28 5 6 10 16 14 26 10 10 -4 16 -1 16 8 0 8 -6 14 -12 13
-7 -1 -40 -3 -73 -5z"/>
<path d="M2410 2002 c0 -15 11 -22 43 -29 48 -11 182 -10 212 1 11 4 32 12 47
18 33 12 91 1 85 -16 -3 -8 4 -11 22 -8 18 2 27 10 27 22 0 16 -8 19 -47 18
-26 0 -57 3 -69 7 -12 4 -27 1 -35 -5 -11 -9 -15 -9 -15 -1 0 8 -7 7 -22 -3
-27 -17 -194 -14 -227 4 -18 9 -21 8 -21 -8z"/>
<path d="M3801 1985 c0 -39 24 -189 39 -238 15 -52 26 -39 12 15 -6 24 -16 81
-23 128 -14 98 -28 144 -28 95z"/>
<path d="M4191 1994 c0 -11 3 -14 6 -6 3 7 2 16 -1 19 -3 4 -6 -2 -5 -13z"/>
<path d="M3781 1984 c0 -11 3 -14 6 -6 3 7 2 16 -1 19 -3 4 -6 -2 -5 -13z"/>
<path d="M1386 1958 c-3 -13 -7 -57 -10 -98 -5 -72 -5 -73 7 -35 8 22 14 66
16 98 2 58 -5 76 -13 35z"/>
<path d="M1416 1968 c-7 -16 -1 -137 8 -145 8 -9 11 27 6 92 -4 47 -8 64 -14
53z"/>
<path d="M4207 1930 c6 -35 17 -76 52 -200 10 -36 33 -120 51 -187 18 -67 37
-120 41 -117 5 3 6 -2 3 -10 -3 -9 -1 -16 6 -16 6 0 8 -5 5 -10 -10 -17 5 -70
21 -70 8 0 14 -5 14 -11 0 -5 -5 -7 -10 -4 -6 4 -5 -5 2 -19 6 -14 15 -26 19
-26 5 0 6 -6 4 -12 -3 -7 5 -24 16 -38 l20 -25 -13 25 c-7 14 -13 32 -14 40
-1 8 -29 101 -62 205 -33 105 -79 255 -102 335 -42 146 -65 207 -53 140z"/>
<path d="M3591 1924 c0 -11 3 -14 6 -6 3 7 2 16 -1 19 -3 4 -6 -2 -5 -13z"/>
<path d="M4281 1924 c0 -11 3 -14 6 -6 3 7 2 16 -1 19 -3 4 -6 -2 -5 -13z"/>
<path d="M2515 1900 c-19 -8 -19 -9 2 -9 12 -1 25 4 28 9 7 12 -2 12 -30 0z"/>
<path d="M3461 1884 c0 -11 3 -14 6 -6 3 7 2 16 -1 19 -3 4 -6 -2 -5 -13z"/>
<path d="M1302 1860 c0 -14 2 -19 5 -12 2 6 2 18 0 25 -3 6 -5 1 -5 -13z"/>
<path d="M4121 1870 c0 -8 4 -24 9 -35 5 -13 9 -14 9 -5 0 8 -4 24 -9 35 -5
13 -9 14 -9 5z"/>
<path d="M3452 1844 c-1 -12 -4 -37 -7 -55 -5 -31 -5 -32 5 -9 6 13 9 38 7 55
-2 18 -4 21 -5 9z"/>
<path d="M3577 1846 c-12 -31 -39 -478 -30 -487 6 -6 6 -30 2 -57 -4 -26 -9
-119 -10 -207 -3 -150 -3 -154 -8 -60 -5 81 -7 51 -14 -160 -4 -143 -10 -316
-14 -384 -4 -85 -3 -122 4 -118 6 4 14 49 18 99 4 51 13 129 21 173 21 120 29
271 15 279 -8 5 -11 -12 -11 -61 0 -87 -11 -203 -19 -203 -10 0 8 261 18 274
6 7 13 75 16 151 7 146 11 199 20 250 6 36 34 332 34 360 0 17 -1 18 -9 4 -5
-9 -14 -72 -20 -140 -13 -153 -32 -239 -24 -104 9 126 21 399 18 403 -1 2 -4
-4 -7 -12z"/>
<path d="M3603 1820 c0 -25 2 -35 4 -22 2 12 2 32 0 45 -2 12 -4 2 -4 -23z"/>
<path d="M3626 1797 c-4 -38 -5 -71 -3 -74 8 -7 19 79 15 113 -2 18 -6 4 -12
-39z"/>
<path d="M3791 1820 c-1 -38 36 -255 59 -345 32 -124 70 -245 76 -245 4 0 3 8
-1 18 -21 55 -95 373 -95 409 0 8 4 12 9 9 5 -4 7 3 4 14 -3 11 -9 17 -14 14
-5 -3 -9 5 -9 18 -1 35 -28 137 -29 108z"/>
<path d="M4320 1835 c0 -5 5 -17 10 -25 5 -8 10 -10 10 -5 0 6 -5 17 -10 25
-5 8 -10 11 -10 5z"/>
<path d="M2477 1823 c-37 -10 -10 -28 44 -29 30 0 77 -4 104 -8 l50 -7 -32 21
c-31 21 -127 34 -166 23z"/>
<path d="M1281 1805 c1 -11 0 -27 -4 -35 -3 -8 -24 -94 -48 -190 -23 -96 -43
-182 -46 -190 -2 -8 4 0 12 19 9 18 37 114 62 213 35 139 42 182 33 191 -9 9
-11 7 -9 -8z"/>
<path d="M1441 1812 c-1 -7 -5 -11 -9 -8 -8 4 -33 -196 -47 -374 -4 -41 -13
-108 -22 -148 -8 -40 -12 -79 -10 -86 3 -7 -12 -98 -34 -202 -22 -104 -42
-207 -45 -229 -6 -49 -25 -141 -59 -299 -14 -66 -24 -121 -21 -123 10 -10 83
307 100 437 3 19 14 64 25 99 12 35 19 67 16 71 -3 5 -1 11 5 15 5 3 10 11 10
16 0 6 -4 7 -10 4 -6 -4 -7 2 -1 17 5 13 14 57 21 98 6 41 16 84 22 96 5 12 8
32 5 45 -3 20 -5 18 -6 -8 0 -17 -5 -35 -11 -38 -14 -9 -13 9 9 100 11 44 22
136 26 205 3 69 10 141 16 160 5 19 9 56 9 82 0 26 5 48 12 50 6 2 8 11 5 19
-4 10 -6 10 -6 1z"/>
<path d="M1201 1794 c0 -11 3 -14 6 -6 3 7 2 16 -1 19 -3 4 -6 -2 -5 -13z"/>
<path d="M1386 1758 c-4 -29 -16 -136 -27 -238 -11 -102 -24 -203 -29 -225 -5
-22 -9 -47 -9 -55 0 -13 1 -13 8 0 19 32 81 553 68 566 -3 3 -8 -18 -11 -48z"/>
<path d="M4146 1780 c4 -19 11 -44 15 -55 6 -14 7 -9 3 15 -4 19 -11 44 -15
55 -6 14 -7 9 -3 -15z"/>
<path d="M861 1784 c0 -11 3 -14 6 -6 3 7 2 16 -1 19 -3 4 -6 -2 -5 -13z"/>
<path d="M826 1775 c-9 -26 -7 -32 5 -12 6 10 9 21 6 23 -2 3 -7 -2 -11 -11z"/>
<path d="M1475 1597 c-1 -106 -4 -212 -7 -237 -9 -64 -46 -358 -50 -402 -2
-20 0 -34 4 -32 4 3 8 0 8 -5 0 -6 -4 -11 -9 -11 -4 0 -8 -12 -8 -27 1 -16 -3
-220 -7 -455 -5 -277 -5 -428 2 -428 5 0 12 53 16 118 4 64 9 137 11 162 4 36
3 40 -5 20 -7 -18 -8 -3 -4 50 3 41 6 170 7 285 0 144 3 188 7 140 l7 -70 1
95 c0 144 1 157 11 142 4 -8 9 33 10 95 1 59 6 158 12 218 13 127 14 514 2
526 -4 4 -8 -78 -8 -184z m-28 -614 c-3 -10 -5 -2 -5 17 0 19 2 27 5 18 2 -10
2 -26 0 -35z"/>
<path d="M2033 1776 c4 -10 7 -27 7 -37 0 -11 4 -18 9 -15 11 7 2 54 -12 63
-7 4 -8 0 -4 -11z"/>
<path d="M3527 1783 c-4 -3 -7 -21 -7 -39 0 -18 -4 -43 -9 -56 -4 -13 -11 -59
-14 -103 -6 -89 0 -66 27 104 15 94 16 107 3 94z"/>
<path d="M965 1760 c-4 -12 -5 -24 -2 -27 3 -2 8 5 12 17 4 12 5 24 2 27 -3 2
-8 -5 -12 -17z"/>
<path d="M1362 1760 c0 -14 2 -19 5 -12 2 6 2 18 0 25 -3 6 -5 1 -5 -13z"/>
<path d="M1443 1745 c0 -22 2 -30 4 -17 2 12 2 30 0 40 -3 9 -5 -1 -4 -23z"/>
<path d="M836 1708 c-17 -48 -27 -73 -72 -175 -8 -17 -14 -36 -14 -42 0 -6 -6
-11 -14 -11 -10 0 -19 -20 -26 -57 -7 -32 -17 -67 -22 -78 -9 -16 -8 -18 2 -8
8 7 19 27 26 45 7 18 43 106 79 196 36 90 65 168 63 173 -2 6 -12 -13 -22 -43z"/>
<path d="M2950 1740 c-14 -11 -20 -20 -15 -20 6 0 21 9 35 20 14 11 21 20 15
20 -5 0 -21 -9 -35 -20z"/>
<path d="M3592 1740 c0 -14 2 -19 5 -12 2 6 2 18 0 25 -3 6 -5 1 -5 -13z"/>
<path d="M786 1735 c-9 -26 -7 -32 5 -12 6 10 9 21 6 23 -2 3 -7 -2 -11 -11z"/>
<path d="M811 1724 c0 -11 3 -14 6 -6 3 7 2 16 -1 19 -3 4 -6 -2 -5 -13z"/>
<path d="M803 1502 c-44 -130 -84 -246 -88 -257 -7 -18 -6 -18 7 -5 28 28 179
482 165 496 -2 2 -40 -103 -84 -234z"/>
<path d="M946 1705 c-3 -9 -6 -22 -5 -28 0 -7 5 -1 10 12 5 13 8 26 5 28 -2 2
-6 -3 -10 -12z"/>
<path d="M1351 1696 c-1 -16 -8 -70 -17 -121 -9 -51 -14 -104 -12 -117 2 -12
12 36 22 109 10 72 16 137 13 145 -3 7 -6 0 -6 -16z"/>
<path d="M1641 1715 c0 -5 22 -73 50 -150 28 -77 58 -159 66 -183 8 -24 17
-41 19 -39 4 4 -20 75 -79 237 -45 121 -56 147 -56 135z"/>
<path d="M2048 1528 c3 -175 5 -185 29 -227 69 -118 295 -290 465 -352 l52
-19 63 35 c160 88 349 243 397 326 14 23 -9 5 -67 -53 -86 -86 -269 -217 -358
-257 -51 -23 -70 -19 -187 45 -145 78 -271 183 -350 293 l-32 43 6 112 c5 112
-2 236 -14 236 -4 0 -6 -82 -4 -182z"/>
<path d="M796 1685 c-9 -26 -7 -32 5 -12 6 10 9 21 6 23 -2 3 -7 -2 -11 -11z"/>
<path d="M1435 1658 c-3 -24 -7 -83 -10 -131 -2 -49 -7 -131 -11 -183 -4 -52
-4 -94 -1 -94 10 0 27 166 32 308 5 143 1 179 -10 100z"/>
<path d="M3861 1684 c0 -11 3 -14 6 -6 3 7 2 16 -1 19 -3 4 -6 -2 -5 -13z"/>
<path d="M711 1674 c0 -11 3 -14 6 -6 3 7 2 16 -1 19 -3 4 -6 -2 -5 -13z"/>
<path d="M3633 1645 c0 -27 2 -38 4 -22 2 15 2 37 0 50 -2 12 -4 0 -4 -28z"/>
<path d="M926 1645 c-9 -26 -7 -32 5 -12 6 10 9 21 6 23 -2 3 -7 -2 -11 -11z"/>
<path d="M3893 1582 c11 -45 23 -79 25 -77 6 6 -28 137 -39 149 -4 5 2 -28 14
-72z"/>
<path d="M4256 1615 c10 -78 73 -285 73 -240 1 6 -17 73 -39 150 -24 83 -37
120 -34 90z"/>
<path d="M3723 1624 c-3 -8 -1 -20 6 -27 8 -8 11 -4 11 16 0 30 -7 35 -17 11z"/>
<path d="M3844 1632 c2 -4 16 -60 30 -123 36 -158 129 -430 142 -416 3 3 1 14
-4 24 -23 43 -82 230 -117 371 -21 83 -42 152 -47 152 -5 0 -7 -3 -4 -8z"/>
<path d="M711 1564 c0 -11 3 -14 6 -6 3 7 2 16 -1 19 -3 4 -6 -2 -5 -13z"/>
<path d="M3446 1410 c-25 -154 -34 -232 -61 -535 -4 -38 -4 -68 -2 -65 7 7 35
214 83 619 22 188 12 178 -20 -19z"/>
<path d="M3724 1524 c22 -85 49 -213 52 -244 3 -35 3 -35 -5 -5 -12 42 -13 9
-2 -56 5 -30 15 -92 21 -139 14 -98 61 -325 96 -455 13 -49 26 -101 30 -115 3
-14 17 -60 31 -103 14 -43 23 -84 20 -91 -3 -8 7 -54 23 -102 15 -49 29 -84
29 -77 1 17 -59 272 -90 383 -23 79 -42 167 -43 193 -1 15 -4 27 -7 27 -6 0
-34 110 -44 175 -1 6 -3 12 -4 15 -2 3 -5 28 -7 55 -13 152 -37 315 -59 409
-14 58 -25 115 -25 125 0 11 -5 23 -11 27 -9 5 -10 -1 -5 -22z"/>
<path d="M701 1524 c0 -11 3 -14 6 -6 3 7 2 16 -1 19 -3 4 -6 -2 -5 -13z"/>
<path d="M3623 1433 c-7 -43 -17 -143 -23 -223 -6 -80 -15 -170 -19 -200 -5
-30 -5 -61 -1 -69 4 -7 10 15 13 50 47 480 56 615 30 442z"/>
<path d="M3671 1494 c0 -11 3 -14 6 -6 3 7 2 16 -1 19 -3 4 -6 -2 -5 -13z"/>
<path d="M692 1480 c0 -14 2 -19 5 -12 2 6 2 18 0 25 -3 6 -5 1 -5 -13z"/>
<path d="M3772 1455 c0 -16 2 -22 5 -12 2 9 2 23 0 30 -3 6 -5 -1 -5 -18z"/>
<path d="M3666 1429 c-2 -19 -9 -108 -15 -199 -6 -91 -15 -196 -20 -235 -5
-38 -11 -178 -14 -310 l-6 -240 14 230 c8 127 19 273 25 325 11 92 30 451 24
459 -1 1 -5 -12 -8 -30z"/>
<path d="M3503 1385 c0 -38 2 -53 4 -32 2 20 2 52 0 70 -2 17 -4 1 -4 -38z"/>
<path d="M681 1425 c-1 -11 -4 -31 -6 -45 l-6 -25 11 25 c6 13 9 33 7 45 -4
19 -4 19 -6 0z"/>
<path d="M3721 1330 c1 -58 5 -133 10 -167 9 -68 89 -435 118 -548 27 -102 86
-265 96 -265 3 0 -2 17 -10 37 -31 74 -75 245 -134 518 -45 214 -61 308 -66
399 -3 66 -8 122 -11 125 -3 3 -4 -42 -3 -99z"/>
<path d="M4491 1374 c0 -11 3 -14 6 -6 3 7 2 16 -1 19 -3 4 -6 -2 -5 -13z"/>
<path d="M1313 1345 c0 -22 2 -30 4 -17 2 12 2 30 0 40 -3 9 -5 -1 -4 -23z"/>
<path d="M4330 1348 c0 -9 5 -20 10 -23 13 -8 13 5 0 25 -8 13 -10 13 -10 -2z"/>
<path d="M4501 1334 c0 -11 3 -14 6 -6 3 7 2 16 -1 19 -3 4 -6 -2 -5 -13z"/>
<path d="M663 1293 c-7 -16 -15 -40 -19 -56 -3 -15 -10 -30 -15 -33 -5 -3 -9
-14 -9 -25 0 -11 -4 -17 -10 -14 -5 3 -10 -1 -10 -10 0 -8 -4 -23 -10 -33 -5
-9 -18 -53 -29 -97 -18 -78 -93 -260 -169 -415 -49 -99 -49 -99 -18 -71 14 14
26 32 26 41 0 9 4 20 9 26 16 16 118 264 155 374 19 58 50 143 69 190 32 78
53 150 45 150 -2 0 -8 -12 -15 -27z"/>
<path d="M621 1294 c0 -11 3 -14 6 -6 3 7 2 16 -1 19 -3 4 -6 -2 -5 -13z"/>
<path d="M4511 1300 c0 -8 4 -22 9 -30 12 -18 12 -2 0 25 -6 13 -9 15 -9 5z"/>
<path d="M1296 1264 c-4 -20 -5 -38 -3 -40 3 -3 8 11 11 32 4 20 5 38 3 40 -3
3 -8 -11 -11 -32z"/>
<path d="M1391 1284 c0 -11 3 -14 6 -6 3 7 2 16 -1 19 -3 4 -6 -2 -5 -13z"/>
<path d="M3492 1270 c0 -19 2 -27 5 -17 2 9 2 25 0 35 -3 9 -5 1 -5 -18z"/>
<path d="M1582 1230 c0 -14 2 -19 5 -12 2 6 2 18 0 25 -3 6 -5 1 -5 -13z"/>
<path d="M4351 1240 c0 -8 4 -22 9 -30 12 -18 12 -2 0 25 -6 13 -9 15 -9 5z"/>
<path d="M4380 1235 c0 -5 5 -17 10 -25 5 -8 10 -10 10 -5 0 6 -5 17 -10 25
-5 8 -10 11 -10 5z"/>
<path d="M705 1160 c-16 -41 -32 -80 -37 -86 -4 -6 -23 -60 -41 -120 -19 -60
-48 -142 -65 -183 -18 -41 -30 -76 -28 -78 11 -12 94 172 101 223 2 18 13 54
23 81 53 129 83 216 79 226 -2 6 -16 -22 -32 -63z"/>
<path d="M1306 1203 c-6 -14 -5 -15 5 -6 7 7 10 15 7 18 -3 3 -9 -2 -12 -12z"/>
<path d="M1301 1051 c-18 -90 -31 -165 -28 -167 6 -6 69 304 65 318 -3 7 -19
-61 -37 -151z"/>
<path d="M1592 1124 c-1 -45 -4 -103 -7 -130 l-5 -49 10 40 c6 22 9 80 7 130
l-3 90 -2 -81z"/>
<path d="M4360 1187 c0 -27 128 -372 136 -364 2 2 -12 48 -32 103 -20 54 -47
134 -60 176 -13 42 -29 80 -34 83 -6 3 -10 4 -10 2z"/>
<path d="M4426 1167 c3 -10 9 -15 12 -12 3 3 0 11 -7 18 -10 9 -11 8 -5 -6z"/>
<path d="M657 1131 c-4 -17 -3 -21 5 -13 5 5 8 16 6 23 -3 8 -7 3 -11 -10z"/>
<path d="M4460 1145 c0 -5 5 -17 10 -25 5 -8 10 -10 10 -5 0 6 -5 17 -10 25
-5 8 -10 11 -10 5z"/>
<path d="M4515 1100 c2 -14 5 -29 5 -33 0 -5 5 -5 10 -2 6 3 10 -4 10 -17 1
-13 10 -39 21 -58 11 -19 18 -28 15 -19 -2 10 -10 37 -17 60 -7 24 -18 49 -24
54 -6 6 -15 17 -18 25 -4 8 -5 4 -2 -10z"/>
<path d="M1256 1063 c-6 -14 -5 -15 5 -6 7 7 10 15 7 18 -3 3 -9 -2 -12 -12z"/>
<path d="M4441 1054 c0 -11 3 -14 6 -6 3 7 2 16 -1 19 -3 4 -6 -2 -5 -13z"/>
<path d="M607 998 c-88 -210 -151 -355 -157 -363 -4 -5 -10 -19 -14 -30 -6
-17 -3 -16 17 5 30 30 86 156 138 308 36 108 44 148 16 80z"/>
<path d="M4450 1023 c0 -5 7 -18 15 -29 13 -18 14 -18 8 4 -5 22 -23 41 -23
25z"/>
<path d="M510 963 c-6 -16 -15 -37 -20 -48 -16 -32 -30 -75 -25 -75 5 0 44 86
55 123 5 15 7 27 4 27 -2 0 -9 -12 -14 -27z"/>
<path d="M4470 967 c0 -14 70 -177 106 -250 48 -95 70 -127 86 -127 10 0 -13
42 -60 112 -13 21 -24 49 -24 63 0 14 -4 28 -9 31 -5 3 -6 -3 -2 -13 3 -10 3
-15 -2 -11 -4 4 -9 18 -9 30 -2 27 -68 167 -78 168 -5 0 -8 -1 -8 -3z"/>
<path d="M1576 925 c-3 -9 -5 -33 -5 -53 2 -33 2 -32 9 13 8 53 6 66 -4 40z"/>
<path d="M2650 937 c0 -1 21 -26 48 -54 37 -40 229 -310 277 -390 6 -10 15
-23 22 -30 6 -7 21 -28 33 -48 12 -19 24 -35 26 -35 7 0 -42 81 -98 163 -27
40 -74 108 -103 152 -95 141 -116 169 -153 207 -32 32 -52 46 -52 35z"/>
<path d="M2476 908 c-10 -12 -56 -82 -101 -157 -45 -75 -116 -187 -158 -249
-41 -62 -78 -118 -80 -125 -4 -9 -8 -8 -16 3 -14 19 -14 9 0 -27 l10 -28 32
58 c18 31 66 110 108 175 42 64 100 158 129 207 29 50 66 107 82 128 31 39 27
50 -6 15z"/>
<path d="M1463 845 c0 -44 2 -61 4 -37 2 23 2 59 0 80 -2 20 -4 1 -4 -43z"/>
<path d="M1129 893 c-13 -15 -12 -15 9 -4 23 12 28 21 13 21 -5 0 -15 -7 -22
-17z"/>
<path d="M4627 879 c4 -13 8 -18 11 -10 2 7 -1 18 -6 23 -8 8 -9 4 -5 -13z"/>
<path d="M1025 849 c-22 -10 -29 -16 -15 -13 28 7 80 33 65 33 -5 0 -28 -9
-50 -20z"/>
<path d="M1262 850 c0 -14 2 -19 5 -12 2 6 2 18 0 25 -3 6 -5 1 -5 -13z"/>
<path d="M3593 815 c0 -33 2 -45 4 -27 2 18 2 45 0 60 -2 15 -4 0 -4 -33z"/>
<path d="M3305 831 c-3 -5 -1 -12 5 -16 5 -3 10 1 10 9 0 18 -6 21 -15 7z"/>
<path d="M423 762 c-17 -37 -41 -92 -54 -122 -12 -30 -26 -59 -31 -65 -4 -5
-8 -16 -7 -25 0 -18 30 40 87 174 48 112 52 141 5 38z"/>
<path d="M958 823 c7 -3 16 -2 19 1 4 3 -2 6 -13 5 -11 0 -14 -3 -6 -6z"/>
<path d="M1511 675 c0 -82 -3 -208 -6 -280 -3 -92 -1 -115 5 -80 13 78 20 352
11 435 -8 69 -8 63 -10 -75z"/>
<path d="M1533 780 c0 -25 2 -35 4 -22 2 12 2 32 0 45 -2 12 -4 2 -4 -23z"/>
<path d="M2564 809 c-3 -5 -4 -9 -2 -10 30 -7 48 -7 52 0 3 5 -6 11 -19 14
-14 2 -28 0 -31 -4z"/>
<path d="M4510 785 c0 -5 5 -17 10 -25 5 -8 10 -10 10 -5 0 6 -5 17 -10 25 -5
8 -10 11 -10 5z"/>
<path d="M1240 723 c-11 -38 -102 -256 -150 -358 -20 -41 -39 -105 -31 -105 4
0 31 60 61 133 29 72 65 159 81 192 30 65 64 174 56 181 -2 3 -10 -17 -17 -43z"/>
<path d="M3288 754 c-5 -4 -8 -19 -8 -33 0 -18 3 -22 11 -14 6 6 9 21 7 33 -1
12 -6 18 -10 14z"/>
<path d="M3581 693 c-1 -32 -4 -65 -6 -73 -8 -29 -37 -408 -33 -436 3 -30 43
339 52 484 3 45 2 82 -3 82 -4 0 -9 -26 -10 -57z"/>
<path d="M1461 724 c0 -11 3 -14 6 -6 3 7 2 16 -1 19 -3 4 -6 -2 -5 -13z"/>
<path d="M3711 724 c0 -11 3 -14 6 -6 3 7 2 16 -1 19 -3 4 -6 -2 -5 -13z"/>
<path d="M1442 680 c0 -14 2 -19 5 -12 2 6 2 18 0 25 -3 6 -5 1 -5 -13z"/>
<path d="M605 659 c-72 -28 -135 -61 -135 -70 0 -5 26 4 58 19 31 16 77 38
102 49 56 27 42 27 -25 2z"/>
<path d="M1464 561 c-1 -94 0 -105 6 -56 11 82 12 163 3 168 -5 3 -8 -47 -9
-112z"/>
<path d="M3250 633 c-17 -59 -17 -62 -6 -65 5 -2 15 20 22 47 16 60 16 65 6
65 -4 0 -14 -21 -22 -47z"/>
<path d="M4430 675 c0 -6 111 -55 124 -54 6 0 -9 10 -34 21 -63 28 -90 38 -90
33z"/>
<path d="M1362 533 c-7 -76 -14 -199 -17 -273 -3 -74 -8 -164 -10 -200 -8
-102 12 -41 24 75 10 92 24 535 17 535 -2 0 -8 -62 -14 -137z"/>
<path d="M3720 648 c0 -49 34 -274 43 -283 8 -9 3 66 -9 128 -1 10 -8 54 -15
98 -11 78 -19 101 -19 57z"/>
<path d="M1321 643 c-1 -6 -4 -20 -7 -30 -5 -17 -5 -17 6 0 6 10 9 23 6 30 -3
9 -5 9 -5 0z"/>
<path d="M1896 642 c-2 -4 -1 -14 5 -22 7 -12 9 -10 9 8 0 23 -5 28 -14 14z"/>
<path d="M1930 625 c0 -8 5 -15 10 -15 6 0 10 7 10 15 0 8 -4 15 -10 15 -5 0
-10 -7 -10 -15z"/>
<path d="M1946 593 c-11 -11 -6 -23 9 -23 8 0 15 4 15 9 0 13 -16 22 -24 14z"/>
<path d="M4607 589 c7 -7 15 -10 18 -7 3 3 -2 9 -12 12 -14 6 -15 5 -6 -5z"/>
<path d="M1272 507 c-44 -117 -79 -240 -93 -326 -6 -41 -17 -92 -25 -114 -14
-40 -19 -75 -8 -65 3 4 18 57 34 120 38 146 85 316 111 396 31 93 18 85 -19
-11z"/>
<path d="M3771 564 c0 -11 3 -14 6 -6 3 7 2 16 -1 19 -3 4 -6 -2 -5 -13z"/>
<path d="M1957 554 c-8 -8 1 -24 14 -24 5 0 9 7 9 15 0 15 -12 20 -23 9z"/>
<path d="M3223 545 c4 -8 2 -17 -4 -21 -6 -3 -8 -12 -5 -20 3 -7 1 -16 -4 -19
-13 -8 -13 -55 0 -55 6 0 10 11 10 23 0 13 7 38 16 55 15 32 12 52 -8 52 -5 0
-8 -7 -5 -15z"/>
<path d="M4670 556 c0 -3 9 -10 20 -16 11 -6 20 -8 20 -6 0 3 -9 10 -20 16
-11 6 -20 8 -20 6z"/>
<path d="M3156 535 c-9 -26 -7 -32 5 -12 6 10 9 21 6 23 -2 3 -7 -2 -11 -11z"/>
<path d="M2040 528 c0 -9 5 -20 10 -23 13 -8 13 5 0 25 -8 13 -10 13 -10 -2z"/>
<path d="M3782 505 c0 -16 2 -22 5 -12 2 9 2 23 0 30 -3 6 -5 -1 -5 -18z"/>
<path d="M1970 500 c0 -13 5 -20 13 -17 6 2 12 10 12 17 0 7 -6 15 -12 18 -8
2 -13 -5 -13 -18z"/>
<path d="M2410 504 c0 -8 5 -12 10 -9 6 3 10 10 10 16 0 5 -4 9 -10 9 -5 0
-10 -7 -10 -16z"/>
<path d="M3132 470 c0 -14 2 -19 5 -12 2 6 2 18 0 25 -3 6 -5 1 -5 -13z"/>
<path d="M3282 460 c0 -19 2 -27 5 -17 2 9 2 25 0 35 -3 9 -5 1 -5 -18z"/>
<path d="M1987 463 c-12 -11 -8 -23 8 -23 8 0 15 7 15 15 0 16 -12 20 -23 8z"/>
<path d="M1995 421 c-3 -5 -1 -12 5 -16 5 -3 10 -15 10 -26 0 -10 5 -19 10
-19 11 0 12 15 4 48 -7 23 -19 29 -29 13z"/>
<path d="M3726 368 c8 -35 19 -124 25 -198 14 -166 32 -220 23 -70 -6 106 -39
308 -53 323 -4 4 -2 -21 5 -55z"/>
<path d="M2758 220 c2 -113 5 -209 7 -215 7 -20 3 322 -4 370 -4 28 -6 -42 -3
-155z"/>
<path d="M3180 396 c0 -14 -4 -28 -10 -31 -16 -10 -12 -25 6 -25 10 0 14 6 11
14 -3 8 -2 16 2 18 5 2 12 13 15 26 6 16 3 22 -8 22 -10 0 -16 -9 -16 -24z"/>
<path d="M1443 375 c0 -22 2 -30 4 -17 2 12 2 30 0 40 -3 9 -5 -1 -4 -23z"/>
<path d="M3811 364 c0 -11 3 -14 6 -6 3 7 2 16 -1 19 -3 4 -6 -2 -5 -13z"/>
<path d="M3072 344 c13 -29 28 -31 28 -5 0 10 -9 21 -19 24 -17 4 -18 2 -9
-19z"/>
<path d="M4815 359 c-4 -6 -5 -12 -2 -15 2 -3 7 2 10 11 7 17 1 20 -8 4z"/>
<path d="M284 320 c4 -19 9 -40 10 -47 6 -33 13 -18 9 19 -3 24 -10 48 -15 53
-7 7 -8 -1 -4 -25z"/>
<path d="M2022 329 c1 -13 8 -23 13 -21 15 3 12 35 -3 40 -9 3 -13 -3 -10 -19z"/>
<path d="M3261 334 c0 -11 3 -14 6 -6 3 7 2 16 -1 19 -3 4 -6 -2 -5 -13z"/>
<path d="M3665 265 c2 -50 7 -103 11 -120 4 -23 3 -26 -5 -15 -8 11 -9 7 -6
-20 17 -135 33 -149 27 -23 -2 49 -10 128 -18 178 l-13 90 4 -90z"/>
<path d="M2790 330 c0 -5 5 -10 11 -10 5 0 7 5 4 10 -3 6 -8 10 -11 10 -2 0
-4 -4 -4 -10z"/>
<path d="M361 314 c0 -11 3 -14 6 -6 3 7 2 16 -1 19 -3 4 -6 -2 -5 -13z"/>
<path d="M3133 273 c-17 -44 -20 -59 -10 -65 8 -5 13 1 15 17 2 14 7 25 11 25
5 0 11 10 14 23 2 12 8 30 12 40 5 11 3 17 -6 17 -8 0 -24 -26 -36 -57z"/>
<path d="M3824 255 c4 -44 10 -89 13 -100 4 -11 7 -33 8 -50 1 -16 2 -47 3
-67 3 -54 22 -47 22 7 0 25 -3 45 -7 45 -5 0 -8 12 -9 28 -2 50 -23 205 -30
211 -3 3 -3 -30 0 -74z"/>
<path d="M4792 280 c-16 -51 -16 -68 -1 -53 13 13 30 93 20 93 -3 0 -12 -18
-19 -40z"/>
<path d="M2044 286 c-6 -17 2 -36 17 -36 12 0 12 37 -1 45 -6 3 -13 -1 -16 -9z"/>
<path d="M3782 270 c0 -19 2 -27 5 -17 2 9 2 25 0 35 -3 9 -5 1 -5 -18z"/>
<path d="M204 140 c0 -80 2 -112 3 -73 2 40 2 106 0 146 -1 39 -3 7 -3 -73z"/>
<path d="M2801 268 c0 -9 -4 -25 -7 -35 -5 -14 -4 -15 5 -7 7 7 11 22 8 35 -2
13 -5 16 -6 7z"/>
<path d="M1453 185 c0 -33 2 -45 4 -27 2 18 2 45 0 60 -2 15 -4 0 -4 -33z"/>
<path d="M2065 208 c4 -18 10 -35 14 -38 3 -3 6 -11 7 -17 2 -29 5 -33 19 -33
19 0 19 10 1 35 -7 11 -17 35 -21 53 -3 17 -11 32 -17 32 -6 0 -7 -13 -3 -32z"/>
<path d="M3291 210 c-11 -70 -11 -75 0 -57 5 10 8 30 6 45 -2 15 -5 20 -6 12z"/>
<path d="M3792 200 c0 -14 2 -19 5 -12 2 6 2 18 0 25 -3 6 -5 1 -5 -13z"/>
<path d="M390 201 c0 -6 4 -13 10 -16 6 -3 7 1 4 9 -7 18 -14 21 -14 7z"/>
<path d="M4772 193 c-5 -10 -12 -36 -15 -58 -5 -33 -4 -37 5 -20 11 19 29 95
22 95 -2 0 -7 -8 -12 -17z"/>
<path d="M1200 133 c-21 -115 -23 -139 -12 -128 10 10 37 184 29 191 -2 3 -10
-26 -17 -63z"/>
<path d="M3100 180 c0 -10 5 -22 10 -25 6 -3 10 -4 10 -1 0 2 3 11 6 19 3 8
-2 17 -10 20 -11 5 -16 0 -16 -13z"/>
<path d="M3792 110 c0 -36 4 -76 8 -90 11 -35 12 61 1 115 -8 37 -9 35 -9 -25z"/>
<path d="M1747 118 c8 -46 13 -48 13 -5 0 21 -4 37 -10 37 -5 0 -7 -14 -3 -32z"/>
<path d="M3067 97 c-26 -74 -31 -97 -19 -97 13 0 25 36 17 50 -3 5 1 10 10 10
12 0 15 5 11 16 -3 8 1 22 9 31 16 16 16 34 -1 40 -5 1 -17 -21 -27 -50z"/>
<path d="M3311 103 c-7 -29 -11 -58 -9 -65 3 -7 10 10 17 39 7 29 11 58 9 65
-3 7 -10 -10 -17 -39z"/>
<path d="M3532 120 c0 -19 2 -27 5 -17 2 9 2 25 0 35 -3 9 -5 1 -5 -18z"/>
<path d="M2803 100 c0 -25 2 -35 4 -22 2 12 2 32 0 45 -2 12 -4 2 -4 -23z"/>
<path d="M4654 124 c-4 -10 -9 -22 -11 -26 -2 -5 0 -8 6 -8 11 0 26 39 17 47
-3 3 -9 -3 -12 -13z"/>
<path d="M4726 123 c-6 -14 -5 -15 5 -6 7 7 10 15 7 18 -3 3 -9 -2 -12 -12z"/>
<path d="M2105 100 c-4 -6 -1 -18 6 -27 8 -9 14 -21 15 -27 0 -6 2 -19 2 -28
1 -10 9 -18 17 -18 19 0 19 2 -2 61 -18 49 -26 58 -38 39z"/>
<path d="M4292 90 c0 -14 2 -19 5 -12 2 6 2 18 0 25 -3 6 -5 1 -5 -13z"/>
<path d="M2443 50 c0 -30 2 -43 4 -28 2 16 2 40 0 55 -2 16 -4 3 -4 -27z"/>
<path d="M4696 54 c-21 -62 -13 -69 9 -9 10 25 15 48 13 51 -3 3 -13 -16 -22
-42z"/>
<path d="M4581 74 c0 -11 3 -14 6 -6 3 7 2 16 -1 19 -3 4 -6 -2 -5 -13z"/>
<path d="M4625 50 c-17 -34 -20 -59 -5 -44 11 11 32 74 25 74 -3 0 -11 -13
-20 -30z"/>
<path d="M1756 61 c-4 -7 -5 -15 -2 -18 9 -9 19 4 14 18 -4 11 -6 11 -12 0z"/>
<path d="M3901 44 c0 -11 3 -14 6 -6 3 7 2 16 -1 19 -3 4 -6 -2 -5 -13z"/>
<path d="M1292 20 c0 -14 2 -19 5 -12 2 6 2 18 0 25 -3 6 -5 1 -5 -13z"/>
<path d="M1442 20 c0 -14 2 -19 5 -12 2 6 2 18 0 25 -3 6 -5 1 -5 -13z"/>
<path d="M1770 10 c0 -5 5 -10 11 -10 5 0 7 5 4 10 -3 6 -8 10 -11 10 -2 0 -4
-4 -4 -10z"/>
</g>
</svg>
