<?xml version="1.0" standalone="no"?>
<!DOCTYPE svg PUBLIC "-//W3C//DTD SVG 20010904//EN"
 "http://www.w3.org/TR/2001/REC-SVG-20010904/DTD/svg10.dtd">
<svg version="1.0" xmlns="http://www.w3.org/2000/svg"
 width="512.000000pt" height="512.000000pt" viewBox="0 0 512.000000 512.000000"
 preserveAspectRatio="xMidYMid meet">
<metadata>
Created by potrace 1.16, written by Peter Selinger 2001-2019
</metadata>
<g transform="translate(0.000000,512.000000) scale(0.100000,-0.100000)"
fill="#000000" stroke="none">
<path d="M358 4483 c6 -2 18 -2 25 0 6 3 1 5 -13 5 -14 0 -19 -2 -12 -5z"/>
<path d="M611 4485 c7 -6 279 -8 286 -1 4 3 -60 6 -142 6 -82 0 -146 -2 -144
-5z"/>
<path d="M911 4485 c3 -2 186 -5 407 -5 221 -1 402 -5 402 -10 0 -11 -26 -20
-56 -20 -13 0 -24 -3 -24 -7 0 -8 96 -258 139 -362 17 -41 31 -85 31 -98 0
-25 9 -23 55 12 22 17 31 -21 -73 285 -27 80 -52 156 -55 170 l-6 25 1217 0
c669 0 1228 3 1242 7 14 3 -719 7 -1629 7 -910 1 -1652 -1 -1650 -4z m874
-252 c37 -109 70 -204 72 -210 3 -7 -2 -13 -10 -13 -10 0 -32 43 -67 133 -29
72 -65 165 -81 205 -16 41 -29 75 -29 78 0 2 11 4 24 4 21 0 29 -16 91 -197z"/>
<path d="M4268 4483 c23 -2 59 -2 80 0 20 2 1 4 -43 4 -44 0 -61 -2 -37 -4z"/>
<path d="M4398 4483 c7 -3 16 -2 19 1 4 3 -2 6 -13 5 -11 0 -14 -3 -6 -6z"/>
<path d="M4678 4483 c7 -3 16 -2 19 1 4 3 -2 6 -13 5 -11 0 -14 -3 -6 -6z"/>
<path d="M713 4463 c26 -2 67 -2 90 0 23 2 2 3 -48 3 -49 0 -68 -1 -42 -3z"/>
<path d="M1601 4444 c0 -11 3 -14 6 -6 3 7 2 16 -1 19 -3 4 -6 -2 -5 -13z"/>
<path d="M3366 4448 c-3 -7 -25 -76 -50 -153 -24 -77 -54 -170 -64 -207 l-20
-67 24 -22 c15 -14 28 -19 33 -13 10 9 163 455 159 459 -2 1 -20 5 -41 9 -27
5 -38 3 -41 -6z m49 -30 c-2 -7 -16 -51 -30 -98 -37 -121 -106 -300 -116 -300
-12 0 -12 4 15 95 58 203 100 315 118 315 9 0 16 -6 13 -12z"/>
<path d="M3471 4444 c0 -11 3 -14 6 -6 3 7 2 16 -1 19 -3 4 -6 -2 -5 -13z"/>
<path d="M1310 4399 c-11 -8 -12 -12 -2 -16 6 -2 10 -9 6 -14 -6 -10 17 -12
40 -3 12 5 13 10 5 25 -11 21 -27 24 -49 8z"/>
<path d="M773 4383 c26 -2 67 -2 90 0 23 2 2 3 -48 3 -49 0 -68 -1 -42 -3z"/>
<path d="M3441 4324 c0 -11 3 -14 6 -6 3 7 2 16 -1 19 -3 4 -6 -2 -5 -13z"/>
<path d="M830 4319 c-48 -5 -44 -6 34 -7 49 -1 86 1 83 5 -9 8 -50 9 -117 2z"/>
<path d="M3427 4283 c-4 -3 -7 -13 -7 -22 1 -13 3 -13 11 2 11 19 8 33 -4 20z"/>
<path d="M1676 4250 c3 -14 11 -32 16 -40 6 -10 7 -7 2 10 -3 14 -11 32 -16
40 -6 10 -7 7 -2 -10z"/>
<path d="M835 4230 c3 -5 47 -10 96 -10 58 0 88 4 84 10 -3 6 -47 10 -96 10
-58 0 -88 -4 -84 -10z"/>
<path d="M2225 4214 c-117 -48 -243 -116 -269 -145 -14 -16 -33 -29 -41 -29
-8 0 -15 -7 -15 -15 0 -8 2 -15 5 -15 7 0 45 32 69 58 23 26 117 73 236 120
93 37 140 47 149 34 4 -7 35 -7 91 -1 47 5 119 6 160 3 41 -3 111 -7 155 -8
67 -2 96 -9 180 -43 176 -72 193 -81 226 -117 36 -40 50 -45 42 -16 -3 10 -9
18 -13 17 -4 -1 -17 8 -27 20 -23 26 -160 91 -280 134 l-82 29 -263 -1 c-255
-1 -265 -1 -323 -25z"/>
<path d="M3411 4233 c-1 -6 -4 -20 -7 -30 -5 -17 -5 -17 6 0 6 10 9 23 6 30
-3 9 -5 9 -5 0z"/>
<path d="M1706 4170 c3 -14 10 -29 15 -34 14 -16 10 6 -7 34 l-15 25 7 -25z"/>
<path d="M2310 4175 c-7 -8 -10 -18 -8 -21 3 -3 45 0 94 7 90 12 364 8 397 -6
12 -5 17 -3 17 8 0 22 -201 33 -355 20 -75 -7 -122 -7 -126 -1 -3 5 -12 2 -19
-7z"/>
<path d="M3387 4163 c-4 -3 -7 -13 -7 -22 1 -13 3 -13 11 2 11 19 8 33 -4 20z"/>
<path d="M1085 4130 c-3 -5 1 -10 10 -10 9 0 13 5 10 10 -3 6 -8 10 -10 10 -2
0 -7 -4 -10 -10z"/>
<path d="M2057 4093 c-26 -19 -46 -38 -43 -40 9 -9 96 48 96 62 0 19 4 20 -53
-22z"/>
<path d="M2533 4123 c15 -2 39 -2 55 0 15 2 2 4 -28 4 -30 0 -43 -2 -27 -4z"/>
<path d="M2423 4113 c9 -2 25 -2 35 0 9 3 1 5 -18 5 -19 0 -27 -2 -17 -5z"/>
<path d="M2678 4113 c6 -2 18 -2 25 0 6 3 1 5 -13 5 -14 0 -19 -2 -12 -5z"/>
<path d="M3012 4098 c3 -7 15 -15 29 -16 13 -2 29 -8 35 -13 6 -5 14 -6 17 -3
6 6 -59 44 -76 44 -5 0 -7 -6 -5 -12z"/>
<path d="M3365 4099 c-4 -6 -5 -12 -2 -15 2 -3 7 2 10 11 7 17 1 20 -8 4z"/>
<path d="M2411 4090 c-46 -5 -85 -10 -86 -12 -2 -2 102 -3 231 -3 239 0 266 9
55 18 -64 3 -154 1 -200 -3z"/>
<path d="M1077 4063 c-13 -12 -7 -32 11 -36 13 -4 11 -5 -5 -6 -26 -1 -30 -16
-7 -25 24 -9 84 -7 84 3 0 5 -12 23 -26 40 -25 30 -44 38 -57 24z"/>
<path d="M2530 4040 c0 -5 7 -10 15 -10 8 0 15 5 15 10 0 6 -7 10 -15 10 -8 0
-15 -4 -15 -10z"/>
<path d="M3332 4011 c-6 -17 -9 -31 -6 -31 7 0 25 52 20 57 -2 2 -8 -10 -14
-26z"/>
<path d="M1965 4020 c-3 -5 -1 -10 4 -10 6 0 11 5 11 10 0 6 -2 10 -4 10 -3 0
-8 -4 -11 -10z"/>
<path d="M730 4016 c0 -4 9 -16 20 -28 11 -12 20 -17 20 -11 0 5 -9 18 -20 28
-11 10 -20 15 -20 11z"/>
<path d="M3150 4010 c0 -5 6 -10 14 -10 8 0 21 -6 28 -12 7 -7 31 -26 53 -42
22 -17 43 -35 47 -40 4 -6 10 -7 14 -3 4 4 5 9 3 10 -52 43 -141 107 -149 107
-5 0 -10 -4 -10 -10z"/>
<path d="M1976 3984 c3 -13 -11 -35 -41 -68 -25 -27 -45 -53 -45 -58 0 -4 -6
-8 -12 -8 -23 0 -39 -16 -32 -33 8 -22 23 -22 31 1 3 9 33 48 66 85 55 63 58
70 44 84 -15 15 -16 15 -11 -3z"/>
<path d="M2801 3973 c-1 -18 4 -33 9 -33 12 0 12 17 0 45 -7 17 -9 15 -9 -12z"/>
<path d="M2376 3981 c-17 -3 69 -6 190 -6 120 0 199 3 174 7 -56 8 -325 8
-364 -1z"/>
<path d="M1839 3950 c-28 -25 -32 -31 -19 -40 10 -6 11 -10 3 -10 -7 0 -13 -4
-13 -10 0 -5 7 -7 15 -4 10 4 13 13 10 24 -4 12 3 25 21 39 15 12 25 23 22 26
-2 2 -20 -9 -39 -25z"/>
<path d="M1884 3949 c-17 -18 -22 -28 -12 -24 14 6 55 55 45 55 -2 0 -16 -14
-33 -31z"/>
<path d="M3120 3971 c0 -5 7 -14 16 -19 8 -5 35 -28 60 -51 24 -24 44 -39 44
-33 0 11 -94 104 -111 110 -5 2 -9 -1 -9 -7z"/>
<path d="M2310 3960 c0 -5 7 -10 15 -10 8 0 15 5 15 10 0 6 -7 10 -15 10 -8 0
-15 -4 -15 -10z"/>
<path d="M1753 3927 c-36 -39 -113 -158 -113 -174 0 -9 22 18 50 58 27 41 59
86 72 101 27 34 19 47 -9 15z"/>
<path d="M790 3933 c0 -5 12 -21 28 -38 15 -16 46 -55 69 -85 23 -30 50 -64
61 -76 11 -11 38 -47 60 -80 51 -74 77 -100 87 -84 4 7 -6 26 -22 43 -16 18
-36 40 -44 50 -8 10 -19 23 -24 30 -6 7 -54 65 -108 130 -94 112 -107 126
-107 110z"/>
<path d="M2197 3911 c-71 -42 -70 -47 3 -11 74 37 79 40 59 39 -8 0 -35 -13
-62 -28z"/>
<path d="M2866 3931 c5 -5 20 -12 34 -16 24 -7 24 -7 5 9 -21 16 -56 23 -39 7z"/>
<path d="M3340 3931 c0 -5 5 -13 10 -16 6 -3 10 -2 10 4 0 5 -4 13 -10 16 -5
3 -10 2 -10 -4z"/>
<path d="M3110 3920 c0 -5 5 -10 10 -10 6 0 10 5 10 10 0 6 -4 10 -10 10 -5 0
-10 -4 -10 -10z"/>
<path d="M3370 3907 c0 -8 22 -49 30 -57 3 -3 14 -18 24 -33 9 -16 20 -27 23
-24 2 3 -12 29 -33 59 -44 63 -44 63 -44 55z"/>
<path d="M645 3880 c3 -5 8 -10 11 -10 2 0 4 5 4 10 0 6 -5 10 -11 10 -5 0 -7
-4 -4 -10z"/>
<path d="M1765 3869 c-4 -6 -5 -12 -2 -15 2 -3 7 2 10 11 7 17 1 20 -8 4z"/>
<path d="M3101 3854 c0 -11 3 -14 6 -6 3 7 2 16 -1 19 -3 4 -6 -2 -5 -13z"/>
<path d="M2010 3850 c0 -5 5 -10 11 -10 5 0 7 5 4 10 -3 6 -8 10 -11 10 -2 0
-4 -4 -4 -10z"/>
<path d="M2322 3800 c-3 -64 -3 -65 -42 -89 -56 -35 -140 -117 -140 -138 0
-11 8 -6 25 18 28 37 94 92 137 115 21 11 80 14 263 14 129 0 235 -3 235 -8 0
-4 16 -16 35 -26 19 -10 57 -41 84 -69 28 -28 54 -47 58 -44 9 10 -95 107
-141 132 l-38 20 5 70 c2 40 1 61 -4 50 -4 -11 -8 -34 -8 -52 -2 -61 9 -58
-236 -55 l-224 3 -4 62 -3 62 -2 -65z"/>
<path d="M3200 3832 c1 -4 16 -14 35 -23 34 -16 35 -16 35 5 0 17 -7 21 -35
23 -19 1 -35 -1 -35 -5z"/>
<path d="M3086 3805 c-3 -9 -6 -24 -5 -33 0 -9 5 -4 10 12 9 32 6 48 -5 21z"/>
<path d="M1912 3799 c2 -6 8 -10 13 -10 5 0 11 4 13 10 2 6 -4 11 -13 11 -9 0
-15 -5 -13 -11z"/>
<path d="M2030 3780 c0 -11 4 -20 9 -20 5 0 7 9 4 20 -3 11 -7 20 -9 20 -2 0
-4 -9 -4 -20z"/>
<path d="M1600 3759 c0 -11 4 -18 10 -14 5 3 7 12 3 20 -7 21 -13 19 -13 -6z"/>
<path d="M3466 3745 c4 -8 8 -15 10 -15 2 0 4 7 4 15 0 8 -4 15 -10 15 -5 0
-7 -7 -4 -15z"/>
<path d="M1958 3692 l-76 -56 19 -48 c25 -64 61 -118 78 -118 10 0 8 6 -7 20
-19 18 -72 119 -72 138 0 5 29 28 65 51 62 42 81 58 74 66 -2 1 -38 -22 -81
-53z"/>
<path d="M1720 3733 c0 -4 5 -15 10 -23 8 -13 10 -13 10 2 0 9 -4 20 -10 23
-5 3 -10 3 -10 -2z"/>
<path d="M3090 3732 c0 -5 29 -29 64 -52 36 -23 67 -47 69 -53 3 -9 7 -9 17 0
10 9 5 15 -21 29 -19 9 -50 29 -69 44 -47 36 -60 43 -60 32z"/>
<path d="M1623 3715 c-3 -9 -3 -18 -1 -21 3 -3 8 4 11 16 6 23 -1 27 -10 5z"/>
<path d="M1871 3704 c0 -11 3 -14 6 -6 3 7 2 16 -1 19 -3 4 -6 -2 -5 -13z"/>
<path d="M3393 3680 c0 -25 2 -35 4 -22 2 12 2 32 0 45 -2 12 -4 2 -4 -23z"/>
<path d="M3500 3704 c0 -5 7 -18 15 -28 8 -11 15 -16 15 -10 0 5 -7 18 -15 28
-8 11 -15 16 -15 10z"/>
<path d="M1702 3680 c0 -14 2 -19 5 -12 2 6 2 18 0 25 -3 6 -5 1 -5 -13z"/>
<path d="M840 3666 c0 -2 7 -9 15 -16 9 -7 15 -8 15 -2 0 5 -7 12 -15 16 -8 3
-15 4 -15 2z"/>
<path d="M1590 3640 c-7 -17 -10 -33 -8 -36 3 -3 11 9 17 27 14 42 7 49 -9 9z"/>
<path d="M2446 3662 c-2 -4 41 -6 97 -4 148 4 159 9 25 11 -64 0 -119 -3 -122
-7z"/>
<path d="M2728 3653 c7 -3 16 -2 19 1 4 3 -2 6 -13 5 -11 0 -14 -3 -6 -6z"/>
<path d="M1700 3595 c0 -22 -3 -64 -7 -94 -4 -40 -3 -52 5 -47 7 4 12 30 12
57 0 31 4 48 10 44 18 -11 11 -81 -11 -109 -14 -17 -18 -31 -12 -37 6 -6 18 9
32 40 23 49 23 49 6 108 -23 75 -35 87 -35 38z"/>
<path d="M3375 3554 c-6 -71 -5 -77 21 -115 15 -22 28 -38 29 -37 1 2 -1 48
-4 103 -6 92 -7 96 -13 51 -5 -27 -8 -63 -8 -80 0 -23 -3 -27 -10 -16 -5 8 -6
50 -3 92 3 43 4 78 1 78 -3 0 -9 -34 -13 -76z"/>
<path d="M4080 3610 c0 -5 5 -10 11 -10 5 0 7 5 4 10 -3 6 -8 10 -11 10 -2 0
-4 -4 -4 -10z"/>
<path d="M2511 3591 c-19 -12 -4 -31 25 -31 15 0 23 4 19 11 -4 6 -14 8 -22 5
-11 -4 -13 -2 -9 9 6 17 6 18 -13 6z"/>
<path d="M3213 3588 c-22 -30 -64 -110 -60 -114 7 -7 62 74 71 104 8 24 3 29
-11 10z"/>
<path d="M1565 3570 c-4 -12 -5 -24 -2 -27 3 -2 8 5 12 17 4 12 5 24 2 27 -3
2 -8 -5 -12 -17z"/>
<path d="M2588 3583 c-10 -2 -18 -9 -18 -14 0 -14 16 -11 30 6 7 8 11 14 9 14
-2 -1 -12 -3 -21 -6z"/>
<path d="M925 3570 c3 -5 11 -10 16 -10 6 0 7 5 4 10 -3 6 -11 10 -16 10 -6 0
-7 -4 -4 -10z"/>
<path d="M1523 3537 c-6 -13 -13 -59 -16 -103 -6 -72 -5 -74 4 -24 5 30 13 75
18 100 11 52 9 60 -6 27z"/>
<path d="M2605 3550 c-3 -5 1 -10 10 -10 9 0 13 5 10 10 -3 6 -8 10 -10 10 -2
0 -7 -4 -10 -10z"/>
<path d="M2894 3509 c-21 -28 -59 -77 -86 -108 -26 -31 -48 -60 -48 -66 1 -12
43 36 122 138 33 43 58 81 55 83 -2 3 -22 -18 -43 -47z"/>
<path d="M2955 3540 c-3 -10 -25 -45 -49 -77 -54 -74 -80 -113 -74 -113 11 0
148 190 148 205 0 14 -19 3 -25 -15z"/>
<path d="M890 3546 c0 -2 8 -10 18 -17 15 -13 16 -12 3 4 -13 16 -21 21 -21
13z"/>
<path d="M2130 3540 c0 -14 94 -159 104 -159 5 -1 1 9 -8 22 -8 12 -32 50 -52
85 -35 61 -44 72 -44 52z"/>
<path d="M2166 3538 c28 -46 148 -204 156 -207 14 -5 7 6 -77 122 -38 53 -74
96 -78 97 -5 0 -5 -6 -1 -12z"/>
<path d="M2660 3532 c0 -4 10 -9 22 -9 18 -2 20 0 8 7 -18 12 -30 13 -30 2z"/>
<path d="M3594 3520 c3 -14 6 -61 7 -105 2 -64 3 -72 9 -40 9 55 5 129 -10
151 -10 17 -11 16 -6 -6z"/>
<path d="M988 3510 c27 -25 28 -36 5 -49 -16 -9 -14 -10 9 -11 15 0 30 5 34
11 7 11 -43 69 -60 69 -5 0 0 -9 12 -20z"/>
<path d="M2710 3516 c0 -9 5 -16 10 -16 6 0 10 4 10 9 0 6 -4 13 -10 16 -5 3
-10 -1 -10 -9z"/>
<path d="M2355 3480 c-21 -22 -36 -42 -34 -45 3 -2 20 11 38 30 18 19 37 33
42 30 5 -4 6 1 3 9 -3 9 -7 16 -8 16 -1 0 -19 -18 -41 -40z"/>
<path d="M2419 3469 c-24 -27 -44 -62 -54 -97 l-16 -55 30 -61 c51 -99 77
-124 140 -130 72 -6 104 1 121 27 12 21 12 21 -7 5 -14 -13 -37 -18 -87 -18
-65 0 -68 1 -102 38 -41 45 -74 109 -74 145 0 26 49 129 74 155 9 9 42 13 106
13 88 0 95 -2 122 -27 15 -15 28 -31 28 -35 0 -13 42 -80 47 -75 8 8 -36 84
-70 120 l-34 36 -93 0 -93 0 -38 -41z"/>
<path d="M3094 3486 c23 -18 36 -20 36 -6 0 6 -4 10 -9 10 -5 0 -18 3 -28 6
-16 5 -16 4 1 -10z"/>
<path d="M1542 3460 c0 -14 2 -19 5 -12 2 6 2 18 0 25 -3 6 -5 1 -5 -13z"/>
<path d="M2462 3473 c-7 -3 -22 -23 -33 -46 -17 -32 -20 -52 -16 -95 3 -29 13
-64 21 -77 9 -14 16 -30 16 -38 0 -29 49 -61 98 -63 59 -2 77 7 91 48 9 24 14
29 20 20 6 -10 15 0 30 35 13 26 27 56 32 67 6 10 7 16 1 12 -5 -3 -12 13 -16
36 -5 27 -18 52 -40 74 -33 33 -36 34 -112 33 -44 0 -85 -3 -92 -6z m189 -26
c9 -6 25 -34 34 -62 20 -56 15 -108 -11 -141 -15 -18 -15 -18 -9 6 4 14 8 48
10 75 4 48 4 48 -4 10 -12 -59 -25 -87 -60 -124 -26 -27 -28 -32 -11 -28 11 3
18 1 14 -4 -9 -15 -92 -10 -124 6 -17 9 -30 23 -30 32 0 14 3 13 16 -5 9 -14
25 -22 42 -21 l27 0 -25 10 c-13 6 -33 18 -43 27 -25 22 -57 94 -57 127 0 44
29 95 59 101 14 3 31 7 36 10 17 6 117 -7 136 -19z"/>
<path d="M2433 3355 c-3 -9 -3 -18 -1 -21 3 -3 8 4 11 16 6 23 -1 27 -10 5z"/>
<path d="M1920 3455 c-14 -16 -10 -18 14 -9 9 3 16 10 16 15 0 14 -16 11 -30
-6z"/>
<path d="M3175 3450 c3 -5 11 -10 16 -10 6 0 7 5 4 10 -3 6 -11 10 -16 10 -6
0 -7 -4 -4 -10z"/>
<path d="M1533 3365 c0 -38 2 -53 4 -32 2 20 2 52 0 70 -2 17 -4 1 -4 -38z"/>
<path d="M2290 3419 c0 -5 5 -7 10 -4 6 3 10 8 10 11 0 2 -4 4 -10 4 -5 0 -10
-5 -10 -11z"/>
<path d="M3875 3420 c-3 -5 1 -10 9 -10 9 0 16 5 16 10 0 6 -4 10 -9 10 -6 0
-13 -4 -16 -10z"/>
<path d="M3067 3358 c-10 -17 -16 -33 -13 -35 7 -7 38 45 34 56 -1 6 -11 -3
-21 -21z"/>
<path d="M2325 3371 c-6 -11 9 -23 19 -14 9 9 7 23 -3 23 -6 0 -12 -4 -16 -9z"/>
<path d="M2387 3353 c-10 -16 8 -80 33 -118 24 -37 26 -30 3 16 -9 19 -20 52
-23 74 -3 25 -8 35 -13 28z"/>
<path d="M2270 3325 c6 -15 8 -31 5 -36 -4 -5 1 -6 9 -3 18 7 22 24 6 24 -5 0
-10 6 -10 14 0 8 -4 18 -10 21 -7 4 -7 -3 0 -20z"/>
<path d="M1459 3333 c-57 -6 -70 -29 -80 -135 -5 -51 -5 -96 0 -101 4 -4 9 25
10 65 3 138 14 158 85 158 20 0 36 5 36 10 0 6 -3 9 -7 8 -5 -1 -24 -3 -44 -5z"/>
<path d="M2785 3320 c-3 -5 -12 -7 -20 -4 -18 7 -45 -56 -38 -88 3 -15 2 -19
-4 -10 -7 9 -16 0 -33 -30 -13 -24 -28 -46 -33 -49 -12 -8 10 -22 23 -14 5 3
6 13 3 22 -4 11 -3 14 5 9 7 -4 12 -12 12 -17 0 -16 -61 -88 -79 -92 -13 -4
-12 -5 3 -6 10 0 30 11 43 27 28 32 67 102 60 109 -7 6 42 113 61 136 8 9 12
17 9 17 -3 0 -8 -4 -12 -10z m-72 -161 c-9 -9 -12 -7 -10 9 1 14 5 18 11 12 7
-7 6 -14 -1 -21z"/>
<path d="M3615 3263 c4 -38 13 -75 21 -83 12 -12 14 -7 14 44 0 42 3 56 13 53
8 -3 12 -26 11 -76 -2 -65 0 -71 18 -71 19 0 20 4 14 46 -3 26 -6 61 -6 79 0
29 -4 33 -35 39 -19 4 -35 11 -35 16 0 12 7 12 48 1 17 -5 32 -6 32 -1 0 10
-36 20 -74 20 l-28 0 7 -67z m22 -25 c-2 -13 -4 -5 -4 17 -1 22 1 32 4 23 2
-10 2 -28 0 -40z"/>
<path d="M2337 3285 c9 -19 18 -33 20 -32 5 6 -21 67 -29 67 -4 0 0 -16 9 -35z"/>
<path d="M1487 3303 c-11 -10 -8 -103 3 -103 6 0 10 25 10 55 0 56 -1 60 -13
48z"/>
<path d="M1572 3285 c0 -16 2 -22 5 -12 2 9 2 23 0 30 -3 6 -5 -1 -5 -18z"/>
<path d="M3580 3282 c0 -17 4 -33 9 -36 5 -4 7 8 4 26 -7 44 -13 49 -13 10z"/>
<path d="M1425 3290 c-3 -5 -9 -41 -12 -80 -6 -67 -5 -70 16 -70 19 0 21 5 21
64 0 35 3 71 6 80 7 18 -21 23 -31 6z"/>
<path d="M1935 3289 c-20 -8 -19 -9 1 -6 12 1 32 -9 45 -22 17 -16 60 -32 139
-52 63 -16 116 -27 118 -24 7 7 -47 25 -123 41 -38 7 -80 16 -93 19 -12 3 -28
17 -34 30 -12 27 -21 29 -53 14z"/>
<path d="M3023 3290 c-23 -5 -54 -16 -70 -25 -26 -15 -26 -15 -3 -8 14 4 54
15 90 24 67 18 57 23 -17 9z"/>
<path d="M3137 3293 c-14 -13 -7 -25 8 -13 8 6 23 9 36 5 14 -5 19 -4 15 4 -8
12 -49 15 -59 4z"/>
<path d="M3475 3290 c-7 -12 2 -30 16 -30 12 0 12 27 0 35 -5 3 -12 1 -16 -5z"/>
<path d="M1620 3270 c-6 -11 -15 -18 -21 -15 -19 12 -8 -25 16 -52 17 -19 24
-23 25 -12 0 8 -5 20 -11 26 -16 16 8 56 28 49 9 -4 13 -1 11 6 -8 22 -36 20
-48 -2z"/>
<path d="M2075 3276 c11 -7 31 -15 45 -18 14 -3 42 -13 63 -22 20 -9 37 -12
37 -7 0 5 -8 11 -17 14 -10 3 -45 15 -77 26 -69 25 -77 26 -51 7z"/>
<path d="M1848 3273 c12 -2 32 -2 45 0 12 2 2 4 -23 4 -25 0 -35 -2 -22 -4z"/>
<path d="M3238 3273 c6 -2 18 -2 25 0 6 3 1 5 -13 5 -14 0 -19 -2 -12 -5z"/>
<path d="M3520 3256 c-12 -33 -13 -56 -1 -56 10 0 25 69 17 77 -3 3 -10 -6
-16 -21z"/>
<path d="M2292 3245 c-7 -14 -12 -32 -12 -39 0 -7 -9 -25 -20 -39 -26 -33 -26
-45 0 -22 11 10 27 41 35 68 16 56 15 71 -3 32z"/>
<path d="M3109 3256 c-3 -3 -45 -14 -95 -25 -103 -23 -150 -39 -141 -48 3 -3
23 1 44 10 21 8 41 15 46 15 29 2 158 36 163 43 5 9 -9 13 -17 5z"/>
<path d="M2900 3240 c-9 -6 -10 -10 -3 -10 6 0 15 5 18 10 8 12 4 12 -15 0z"/>
<path d="M1650 3231 c0 -6 5 -13 10 -16 7 -4 6 -13 -1 -26 -12 -23 -6 -35 11
-24 7 4 10 18 7 31 -2 13 0 24 5 24 5 0 6 5 3 10 -8 13 -35 13 -35 1z"/>
<path d="M2335 3211 c-3 -5 -1 -12 5 -16 5 -3 10 1 10 9 0 18 -6 21 -15 7z"/>
<path d="M2813 3213 c-7 -3 -13 -11 -13 -19 0 -9 -5 -12 -12 -8 -6 4 -8 3 -4
-4 7 -12 -62 -127 -71 -118 -4 3 2 15 12 26 10 11 16 22 13 25 -3 3 -20 -17
-39 -45 l-34 -50 -60 -1 c-166 -3 -155 -5 -197 42 -22 24 -51 61 -66 83 -14
21 -28 33 -30 27 -4 -12 44 -76 102 -138 l30 -33 107 0 107 0 26 31 c14 17 26
27 26 23 0 -4 -7 -15 -16 -25 -9 -10 -14 -23 -12 -29 2 -6 28 24 58 67 29 43
58 81 62 84 5 3 8 10 7 15 -5 27 1 34 20 24 11 -5 22 -6 25 -2 6 11 -26 30
-41 25z"/>
<path d="M3450 3208 c0 -7 4 -19 9 -27 11 -17 25 3 17 24 -7 18 -26 20 -26 3z"/>
<path d="M3550 3187 c-8 -18 -24 -36 -35 -42 -12 -6 -19 -17 -17 -28 2 -10 -4
-34 -13 -53 -9 -19 -15 -45 -13 -57 2 -15 10 -2 27 43 13 35 35 81 48 102 14
20 23 43 21 51 -2 10 -9 3 -18 -16z"/>
<path d="M2391 3190 c6 -14 19 -33 28 -44 9 -10 14 -19 11 -20 -2 0 3 -12 12
-25 9 -13 21 -20 26 -17 6 3 13 -2 15 -11 4 -16 5 -16 6 -1 0 9 -13 25 -30 36
-17 10 -30 23 -28 27 2 7 -11 28 -39 63 -11 14 -11 13 -1 -8z"/>
<path d="M1560 3192 c0 -4 13 -29 29 -54 31 -49 80 -175 82 -211 1 -19 2 -19
6 -3 10 38 -49 209 -82 236 -8 7 -15 19 -15 26 0 8 -4 14 -10 14 -5 0 -10 -4
-10 -8z"/>
<path d="M3747 3125 c3 -27 6 -97 6 -155 -1 -69 1 -95 7 -75 13 50 10 177 -6
230 l-14 50 7 -50z"/>
<path d="M2746 3143 c-6 -14 -5 -15 5 -6 7 7 10 15 7 18 -3 3 -9 -2 -12 -12z"/>
<path d="M2845 3149 c-11 -17 0 -20 21 -4 17 13 17 14 2 15 -9 0 -20 -5 -23
-11z"/>
<path d="M1786 3099 c-26 -29 -44 -54 -41 -57 2 -3 15 8 27 24 51 65 64 73
105 67 108 -16 310 -52 326 -58 9 -4 17 -3 17 3 0 5 -26 14 -57 20 -53 11
-315 52 -326 52 -3 0 -26 -23 -51 -51z"/>
<path d="M3185 3138 c-152 -22 -295 -52 -287 -60 4 -4 22 -4 39 1 17 5 94 19
170 32 76 12 142 26 148 30 5 6 5 9 0 8 -6 -1 -37 -6 -70 -11z"/>
<path d="M3329 3084 c34 -37 61 -75 61 -85 0 -11 5 -19 11 -19 6 0 9 7 7 15
-5 24 -111 154 -126 154 -8 1 14 -29 47 -65z"/>
<path d="M3616 3128 c-10 -43 -26 -203 -26 -250 0 -27 5 -48 10 -48 6 0 11 21
12 48 0 26 2 58 3 72 2 14 6 57 9 95 4 39 9 78 12 88 3 9 1 17 -5 17 -6 0 -13
-10 -15 -22z"/>
<path d="M1477 3088 c5 -37 3 -49 -5 -44 -7 4 -12 2 -12 -3 0 -6 6 -11 14 -11
8 0 16 -10 19 -22 9 -34 25 -180 32 -290 4 -54 12 -101 17 -105 8 -4 9 12 4
53 -4 32 -11 111 -16 174 -9 124 -39 300 -51 300 -5 0 -5 -23 -2 -52z"/>
<path d="M1512 3120 c0 -14 2 -19 5 -12 2 6 2 18 0 25 -3 6 -5 1 -5 -13z"/>
<path d="M2795 3113 l-18 -28 27 24 c28 26 31 31 17 31 -5 0 -17 -12 -26 -27z"/>
<path d="M2266 3112 c-3 -5 8 -22 24 -37 17 -16 30 -25 30 -21 0 15 -49 66
-54 58z"/>
<path d="M3647 3081 c-4 -18 -6 -81 -6 -140 l2 -106 8 125 c10 132 8 178 -4
121z"/>
<path d="M2240 3081 c0 -13 117 -160 167 -209 24 -24 43 -49 43 -56 0 -18 32
-26 108 -26 40 0 62 -4 62 -11 0 -9 -23 -10 -82 -6 -55 4 -78 3 -68 -3 8 -5
45 -10 82 -10 l67 0 56 68 c69 84 149 179 181 214 27 30 30 38 11 38 -8 0 -30
-24 -50 -53 -20 -29 -60 -77 -89 -107 -28 -30 -62 -70 -74 -88 -12 -18 -25
-29 -27 -25 -8 13 4 63 15 63 5 0 6 4 3 10 -3 5 -1 18 4 28 7 13 7 22 -1 30
-15 15 -188 16 -188 2 0 -6 37 -10 90 -10 53 0 90 -4 90 -10 0 -6 -35 -10 -84
-10 -47 0 -87 -4 -90 -9 -3 -4 2 -17 10 -27 14 -17 15 -17 10 -1 -3 10 -2 15
4 12 13 -8 7 -65 -7 -65 -7 0 -13 4 -13 8 0 5 -33 42 -72 83 -40 41 -89 98
-108 127 -33 48 -50 63 -50 43z m330 -206 c0 -8 5 -15 10 -15 6 0 9 3 8 8 -2
4 2 8 7 10 15 4 18 -37 5 -54 -15 -17 -59 -18 -82 0 -15 11 -16 17 -5 39 13
30 57 38 57 12z"/>
<path d="M1355 3060 c-12 -39 6 -267 33 -411 8 -43 42 -109 42 -82 0 7 -4 14
-9 17 -4 3 -12 25 -16 48 -23 138 -27 172 -32 263 -4 55 -6 119 -6 143 0 47
-3 51 -12 22z"/>
<path d="M2795 3049 c-4 -6 -5 -12 -2 -15 2 -3 7 2 10 11 7 17 1 20 -8 4z"/>
<path d="M1715 3021 c-6 -11 9 -23 19 -14 9 9 7 23 -3 23 -6 0 -12 -4 -16 -9z"/>
<path d="M1531 3004 c0 -11 3 -14 6 -6 3 7 2 16 -1 19 -3 4 -6 -2 -5 -13z"/>
<path d="M2395 2996 c10 -14 19 -26 22 -26 7 0 -17 39 -28 46 -6 3 -3 -5 6
-20z"/>
<path d="M2711 2993 c-7 -8 -11 -16 -8 -19 2 -2 10 2 17 11 17 20 9 27 -9 8z"/>
<path d="M3431 2888 c-6 -57 -16 -141 -22 -187 -11 -90 -6 -116 10 -54 10 40
35 332 28 339 -2 2 -9 -42 -16 -98z"/>
<path d="M1461 2918 c-1 -39 3 -68 9 -68 12 0 12 87 0 115 -6 14 -9 -1 -9 -47z"/>
<path d="M1736 2888 c7 -51 13 -115 14 -143 1 -27 4 -44 7 -36 7 18 -17 271
-26 271 -4 0 -1 -42 5 -92z"/>
<path d="M2598 2973 c6 -2 18 -2 25 0 6 3 1 5 -13 5 -14 0 -19 -2 -12 -5z"/>
<path d="M3471 2964 c0 -11 3 -14 6 -6 3 7 2 16 -1 19 -3 4 -6 -2 -5 -13z"/>
<path d="M3381 2954 c0 -11 3 -14 6 -6 3 7 2 16 -1 19 -3 4 -6 -2 -5 -13z"/>
<path d="M1762 2920 c0 -19 2 -27 5 -17 2 9 2 25 0 35 -3 9 -5 1 -5 -18z"/>
<path d="M3373 2870 c0 -30 2 -43 4 -27 2 15 2 39 0 55 -2 15 -4 2 -4 -28z"/>
<path d="M1541 2894 c0 -11 3 -14 6 -6 3 7 2 16 -1 19 -3 4 -6 -2 -5 -13z"/>
<path d="M3662 2880 c0 -16 4 -30 9 -30 5 0 9 14 9 30 0 17 -4 30 -8 30 -5 0
-9 -13 -10 -30z"/>
<path d="M725 2890 c3 -5 8 -10 11 -10 2 0 4 5 4 10 0 6 -5 10 -11 10 -5 0 -7
-4 -4 -10z"/>
<path d="M1684 2868 c3 -18 9 -87 12 -153 5 -73 10 -110 14 -95 4 14 3 70 -1
125 -4 55 -8 112 -9 128 0 15 -5 27 -11 27 -7 0 -9 -12 -5 -32z"/>
<path d="M766 2879 c2 -4 17 -10 32 -13 37 -8 535 -36 541 -31 16 16 -43 22
-516 47 -34 2 -60 1 -57 -3z"/>
<path d="M3080 2870 c0 -5 7 -7 15 -4 8 4 15 8 15 10 0 2 -7 4 -15 4 -8 0 -15
-4 -15 -10z"/>
<path d="M1390 2855 c0 -9 5 -15 11 -13 6 2 11 8 11 13 0 5 -5 11 -11 13 -6 2
-11 -4 -11 -13z"/>
<path d="M1552 2845 c0 -16 2 -22 5 -12 2 9 2 23 0 30 -3 6 -5 -1 -5 -18z"/>
<path d="M3712 2844 c4 -21 22 -23 26 -1 2 10 -3 17 -13 17 -10 0 -15 -6 -13
-16z"/>
<path d="M2894 2826 c-10 -8 -16 -17 -13 -20 3 -3 14 3 24 14 21 23 17 26 -11
6z"/>
<path d="M1401 2800 c0 -14 4 -34 9 -45 8 -18 9 -18 9 5 0 14 -4 34 -9 45 -8
18 -9 18 -9 -5z"/>
<path d="M3715 2796 c-3 -9 -7 -23 -10 -31 -2 -8 -1 -15 4 -15 10 0 25 50 17
58 -3 2 -8 -3 -11 -12z"/>
<path d="M3587 2728 c-3 -40 -9 -83 -12 -95 -5 -14 -3 -23 3 -23 6 0 13 26 17
58 3 31 8 74 10 95 3 20 1 37 -4 37 -4 0 -11 -33 -14 -72z"/>
<path d="M3753 2745 c0 -33 2 -45 4 -27 2 18 2 45 0 60 -2 15 -4 0 -4 -33z"/>
<path d="M1991 2731 c6 -16 17 -35 25 -42 19 -16 18 1 -3 31 -10 14 -16 27
-15 30 2 2 -1 6 -7 8 -7 2 -7 -6 0 -27z"/>
<path d="M1781 2734 c0 -11 3 -14 6 -6 3 7 2 16 -1 19 -3 4 -6 -2 -5 -13z"/>
<path d="M3679 2733 c-1 -5 0 -38 1 -75 1 -55 -1 -68 -14 -68 -17 0 -48 -39
-40 -52 8 -12 51 32 64 66 13 35 13 136 0 136 -5 0 -10 -3 -11 -7z"/>
<path d="M1427 2688 c9 -70 22 -79 21 -15 -1 38 -6 57 -14 57 -8 0 -10 -13 -7
-42z"/>
<path d="M1896 2697 c3 -10 9 -15 12 -12 3 3 0 11 -7 18 -10 9 -11 8 -5 -6z"/>
<path d="M3088 2673 c7 -3 16 -2 19 1 4 3 -2 6 -13 5 -11 0 -14 -3 -6 -6z"/>
<path d="M3255 2608 c-33 -38 -61 -74 -63 -81 -3 -13 90 85 115 121 32 47 6
27 -52 -40z"/>
<path d="M3332 2655 c-7 -15 -40 -58 -75 -97 -48 -53 -80 -78 -139 -109 -43
-21 -78 -41 -78 -44 0 -3 39 15 88 39 67 34 99 58 138 103 62 72 87 109 82
124 -2 6 -9 -1 -16 -16z"/>
<path d="M3751 2664 c0 -11 3 -14 6 -6 3 7 2 16 -1 19 -3 4 -6 -2 -5 -13z"/>
<path d="M1752 2633 c12 -21 37 -60 55 -87 18 -26 33 -53 33 -60 0 -14 111
-89 172 -115 24 -10 63 -40 86 -66 30 -35 46 -45 60 -41 14 5 30 -6 62 -43
l43 -50 31 30 c47 46 116 86 169 100 74 18 206 6 254 -24 61 -38 63 -39 63
-28 0 6 -17 18 -37 28 -49 22 -56 33 -36 55 24 26 8 33 -17 8 -12 -12 -28 -19
-37 -16 -8 3 -44 6 -79 6 -41 0 -63 4 -59 10 3 5 8 19 10 31 4 17 2 19 -10 9
-8 -7 -15 -21 -15 -30 0 -13 -10 -21 -32 -25 -34 -8 -53 8 -65 53 -3 12 -9 22
-14 22 -14 0 -10 -20 9 -48 32 -47 34 -52 17 -52 -9 0 -24 13 -33 30 -16 28
-40 46 -49 36 -2 -2 2 -10 9 -18 31 -34 39 -58 24 -73 -8 -8 -17 -15 -21 -15
-3 0 -23 -16 -43 -35 l-37 -36 -45 51 c-25 27 -51 50 -57 50 -7 0 -13 6 -13
13 -1 14 -68 66 -118 91 -75 38 -173 109 -199 144 -16 20 -36 45 -45 56 -9 10
-22 31 -28 47 -7 16 -17 29 -22 29 -5 0 1 -17 14 -37z"/>
<path d="M1800 2665 c0 -15 131 -157 138 -150 3 3 -8 19 -25 35 -17 17 -46 50
-64 75 -30 39 -49 55 -49 40z"/>
<path d="M3355 2617 c-33 -75 -117 -147 -249 -213 -90 -45 -127 -69 -154 -102
-34 -42 -38 -68 -6 -41 10 8 25 13 35 11 11 -2 32 13 53 36 21 23 62 51 98 67
77 34 120 63 112 76 -3 5 0 8 7 7 20 -5 141 184 126 198 -2 2 -12 -15 -22 -39z
m-130 -177 c-4 -6 -25 -20 -48 -31 -49 -25 -44 -16 10 17 43 27 47 28 38 14z
m-217 -120 c-7 -11 -17 -20 -22 -20 -5 0 -1 9 9 20 10 11 20 20 22 20 2 0 -2
-9 -9 -20z"/>
<path d="M3159 2633 c-13 -16 -12 -17 4 -4 16 13 21 21 13 21 -2 0 -10 -8 -17
-17z"/>
<path d="M1985 2624 c43 -35 110 -57 180 -60 l70 -3 -75 9 c-49 6 -96 20 -135
40 -33 16 -51 23 -40 14z"/>
<path d="M2790 2617 c14 -12 41 -35 59 -50 l34 -28 -39 -41 -39 -41 37 29 c21
16 38 31 38 34 0 3 44 6 98 7 53 1 108 7 122 13 25 10 25 10 -4 5 -16 -3 -67
-6 -113 -6 l-85 0 -58 51 c-32 27 -62 50 -67 50 -4 0 3 -11 17 -23z"/>
<path d="M2286 2594 c-26 -19 -42 -34 -34 -34 8 0 32 16 54 35 49 43 43 43
-20 -1z"/>
<path d="M1837 2575 c25 -36 61 -70 68 -63 2 2 -16 24 -42 49 -36 34 -42 37
-26 14z"/>
<path d="M3085 2588 c-10 -6 -58 -14 -105 -18 l-85 -7 70 -1 c74 -2 145 12
145 28 0 12 0 12 -25 -2z"/>
<path d="M1677 2567 c-19 -29 -13 -42 60 -138 27 -36 58 -87 69 -112 10 -26
22 -47 26 -47 7 0 -13 52 -39 104 -9 17 -37 56 -64 88 -53 63 -55 69 -38 100
15 29 5 33 -14 5z"/>
<path d="M1450 2570 c0 -11 40 -34 47 -26 3 3 3 12 0 21 -7 16 -47 21 -47 5z"/>
<path d="M3436 2548 c5 -31 1 -41 -40 -86 -45 -52 -151 -256 -218 -422 -40
-98 -75 -167 -106 -208 -14 -18 -22 -35 -19 -38 11 -12 97 126 123 197 15 41
48 119 74 174 26 55 61 129 77 165 17 36 51 90 77 120 54 63 66 95 43 118 -15
14 -16 13 -11 -20z"/>
<path d="M2085 2541 c11 -5 53 -10 93 -10 l72 -1 36 -50 c20 -28 38 -49 41
-46 2 2 -12 27 -32 55 l-37 51 -71 0 c-40 0 -83 3 -97 5 -22 5 -22 4 -5 -4z"/>
<path d="M2505 2534 c-16 -8 -50 -32 -75 -53 -25 -21 -57 -46 -72 -55 -16 -10
-28 -23 -28 -28 0 -12 55 20 89 51 31 28 111 81 124 81 4 0 5 -4 2 -10 -3 -5
-1 -18 4 -27 10 -17 11 -16 12 2 1 11 1 24 0 28 -1 5 6 7 16 5 12 -2 17 -11
15 -26 -2 -12 2 -22 7 -22 6 0 10 6 9 13 -2 6 6 12 17 12 11 0 20 -5 20 -12 0
-6 4 -15 9 -20 5 -5 6 -3 2 5 -11 18 1 15 29 -10 13 -11 21 -26 18 -31 -4 -6
0 -8 10 -4 8 3 21 -1 27 -9 7 -8 20 -14 29 -14 11 0 7 8 -14 24 -16 13 -43 36
-60 50 -39 34 -105 66 -136 66 -13 0 -37 -7 -54 -16z"/>
<path d="M3645 2520 c-3 -6 1 -7 9 -4 18 7 21 14 7 14 -6 0 -13 -4 -16 -10z"/>
<path d="M1515 2503 c4 -10 14 -40 21 -67 17 -62 24 -69 24 -24 0 42 -25 108
-41 108 -7 0 -8 -7 -4 -17z"/>
<path d="M3570 2474 c-22 -50 -24 -64 -12 -64 4 0 14 16 21 36 7 20 22 45 32
55 19 19 19 19 -1 19 -13 0 -25 -14 -40 -46z"/>
<path d="M3143 2498 c-13 -6 -23 -15 -23 -20 0 -5 11 -1 25 8 37 24 35 30 -2
12z"/>
<path d="M1945 2479 c-4 -5 -2 -9 4 -9 5 0 44 -20 85 -45 80 -47 106 -58 65
-27 -52 39 -149 90 -154 81z"/>
<path d="M4920 2480 c0 -5 5 -10 10 -10 6 0 10 5 10 10 0 6 -4 10 -10 10 -5 0
-10 -4 -10 -10z"/>
<path d="M4858 2473 c6 -2 18 -2 25 0 6 3 1 5 -13 5 -14 0 -19 -2 -12 -5z"/>
<path d="M2530 2451 c0 -11 -3 -27 -7 -37 -4 -11 -2 -15 7 -12 16 5 26 68 11
68 -6 0 -11 -9 -11 -19z"/>
<path d="M2578 2463 c7 -3 16 -2 19 1 4 3 -2 6 -13 5 -11 0 -14 -3 -6 -6z"/>
<path d="M3064 2455 c-10 -8 -14 -15 -8 -15 6 0 17 7 24 15 16 19 9 19 -16 0z"/>
<path d="M2560 2440 c0 -5 5 -10 11 -10 5 0 7 5 4 10 -3 6 -8 10 -11 10 -2 0
-4 -4 -4 -10z"/>
<path d="M2649 2433 c-13 -16 -12 -17 4 -4 9 7 17 15 17 17 0 8 -8 3 -21 -13z"/>
<path d="M2475 2420 c-3 -5 -2 -10 4 -10 5 0 13 5 16 10 3 6 2 10 -4 10 -5 0
-13 -4 -16 -10z"/>
<path d="M2617 2409 c4 -13 8 -18 11 -10 2 7 -1 18 -6 23 -8 8 -9 4 -5 -13z"/>
<path d="M1587 2400 c-3 -11 6 -43 19 -71 14 -27 32 -75 41 -104 9 -30 30 -69
45 -87 15 -18 28 -36 28 -40 0 -8 71 -58 82 -58 19 0 6 20 -17 26 -14 3 -25 9
-25 13 0 3 -17 25 -37 47 -21 23 -49 70 -62 105 -12 35 -33 92 -46 127 -17 46
-24 57 -28 42z"/>
<path d="M2661 2411 c-1 -8 -9 -20 -18 -27 -10 -7 -13 -14 -7 -14 17 0 37 27
31 42 -4 10 -6 10 -6 -1z"/>
<path d="M2710 2409 c0 -5 4 -9 10 -9 5 0 7 -7 4 -15 -4 -8 -1 -15 5 -15 6 0
11 2 11 4 0 2 3 11 6 19 3 9 -3 16 -15 20 -12 3 -21 1 -21 -4z"/>
<path d="M2795 2380 c10 -11 22 -20 26 -20 5 0 1 9 -8 20 -10 11 -22 20 -27
20 -5 0 -1 -9 9 -20z"/>
<path d="M3502 2353 c-11 -26 -30 -80 -41 -119 -20 -67 -27 -77 -102 -148 -66
-62 -77 -77 -62 -82 67 -22 206 -78 247 -100 26 -14 50 -23 52 -21 5 4 -62 47
-73 47 -5 0 -35 12 -126 54 -32 14 -62 26 -67 26 -18 0 -10 15 21 40 17 14 35
30 41 35 63 69 74 87 86 141 8 33 24 81 37 109 14 27 21 53 16 58 -4 4 -17
-14 -29 -40z"/>
<path d="M2555 2380 c3 -5 8 -10 11 -10 2 0 4 5 4 10 0 6 -5 10 -11 10 -5 0
-7 -4 -4 -10z"/>
<path d="M1880 2361 c0 -6 3 -11 8 -11 4 0 12 -12 18 -27 69 -171 101 -240
115 -248 5 -4 3 8 -5 27 -78 177 -95 217 -98 238 -3 24 -38 43 -38 21z"/>
<path d="M2590 2366 c0 -2 7 -6 15 -10 8 -3 15 -1 15 4 0 6 -7 10 -15 10 -8 0
-15 -2 -15 -4z"/>
<path d="M3212 2358 c-14 -14 -16 -42 -2 -33 14 9 32 45 22 45 -4 0 -13 -5
-20 -12z"/>
<path d="M3174 2254 c-67 -153 -109 -231 -138 -257 l-31 -28 31 15 c23 11 41
37 81 118 65 129 95 200 88 206 -2 3 -16 -22 -31 -54z"/>
<path d="M1677 2242 c3 -12 9 -25 14 -28 14 -8 11 10 -6 32 -13 18 -14 18 -8
-4z"/>
<path d="M1840 2249 c0 -9 16 -46 35 -82 20 -37 53 -113 75 -169 38 -96 95
-198 113 -198 12 0 9 7 -23 52 -17 24 -50 90 -73 148 -53 128 -126 271 -127
249z"/>
<path d="M2960 2230 c0 -11 5 -20 10 -20 6 0 10 9 10 20 0 11 -4 20 -10 20 -5
0 -10 -9 -10 -20z"/>
<path d="M2885 2230 c-3 -5 -1 -10 4 -10 6 0 11 5 11 10 0 6 -2 10 -4 10 -3 0
-8 -4 -11 -10z"/>
<path d="M2117 2216 c-3 -8 -3 -17 0 -20 9 -9 34 15 27 25 -8 13 -21 11 -27
-5z"/>
<path d="M2422 2215 c-37 -16 -125 -85 -118 -92 4 -5 16 3 51 35 42 38 99 52
216 52 97 0 118 -3 123 -16 3 -8 10 -13 15 -10 4 3 21 -5 37 -19 15 -13 30
-22 33 -20 8 9 -46 55 -82 70 -48 20 -229 20 -275 0z"/>
<path d="M3420 2210 c-6 -11 -8 -20 -6 -20 3 0 10 9 16 20 6 11 8 20 6 20 -3
0 -10 -9 -16 -20z"/>
<path d="M2841 2201 c-8 -6 -9 -11 -3 -15 6 -3 14 -1 17 5 9 14 2 20 -14 10z"/>
<path d="M2475 2190 c-11 -18 5 -30 38 -29 29 0 30 1 10 9 -13 5 -23 14 -23
20 0 13 -17 13 -25 0z"/>
<path d="M2565 2189 c4 -5 15 -9 25 -9 28 0 34 -18 8 -23 -17 -3 -14 -5 10 -6
35 -1 41 9 16 29 -18 16 -67 23 -59 9z"/>
<path d="M1761 2153 c35 -39 79 -100 79 -110 0 -5 -24 -17 -52 -28 -29 -10
-78 -30 -108 -45 -30 -15 -77 -32 -105 -39 -56 -14 -151 -63 -240 -126 -93
-66 -267 -171 -363 -220 -260 -133 -385 -219 -527 -360 -115 -114 -125 -125
-192 -226 -70 -104 -103 -169 -148 -284 -21 -55 -45 -106 -54 -112 -13 -11
-11 -13 11 -13 21 0 25 4 21 20 -3 11 -1 26 4 33 6 6 20 37 31 68 80 217 283
476 497 635 97 72 270 176 385 232 47 22 108 55 135 73 49 31 66 42 210 140
87 59 204 119 245 125 17 3 69 23 115 45 108 51 150 59 158 30 5 -20 27 -30
27 -13 0 5 -19 39 -41 78 -44 73 -86 124 -103 124 -5 0 1 -12 15 -27z"/>
<path d="M3340 2165 c-10 -12 -10 -15 3 -15 19 0 31 16 18 24 -5 3 -14 -1 -21
-9z"/>
<path d="M2385 2150 c-3 -5 -1 -10 4 -10 6 0 11 5 11 10 0 6 -2 10 -4 10 -3 0
-8 -4 -11 -10z"/>
<path d="M2463 2128 c17 -11 55 -10 62 1 3 6 -11 9 -34 8 -24 -1 -35 -4 -28
-9z"/>
<path d="M2347 2124 c-3 -3 1 -13 9 -21 8 -9 18 -12 21 -9 4 4 0 13 -8 21 -8
9 -18 13 -22 9z"/>
<path d="M2536 2114 c-3 -9 -12 -14 -20 -11 -14 5 -69 -10 -95 -27 -8 -5 -17
-4 -23 5 -7 11 -8 11 -6 -2 2 -9 -17 -39 -42 -66 -49 -54 -80 -103 -80 -125 1
-7 8 1 17 17 19 37 71 104 98 128 40 35 89 49 172 51 77 1 84 -1 128 -32 26
-18 50 -30 53 -27 9 8 -35 43 -70 57 -16 5 -28 14 -28 19 0 5 -21 9 -46 9 -27
0 -43 4 -39 10 3 6 2 10 -3 10 -6 0 -13 -7 -16 -16z"/>
<path d="M2593 2123 c9 -2 25 -2 35 0 9 3 1 5 -18 5 -19 0 -27 -2 -17 -5z"/>
<path d="M2790 2115 c-7 -9 -9 -19 -5 -23 4 -4 10 -1 12 6 10 27 31 8 68 -63
22 -41 43 -75 47 -75 12 0 10 18 -2 25 -6 4 -26 38 -45 76 -36 70 -52 82 -75
54z"/>
<path d="M2243 2068 c-35 -58 -73 -143 -73 -161 0 -7 15 20 32 58 17 39 44 86
59 106 30 38 35 49 21 49 -4 0 -22 -24 -39 -52z"/>
<path d="M3276 2050 c-21 -39 -36 -76 -34 -82 2 -6 22 25 45 70 50 100 40 110
-11 12z"/>
<path d="M2300 2094 c1 -18 37 -77 42 -68 3 5 -6 24 -19 43 -12 19 -23 30 -23
25z"/>
<path d="M2695 2090 c3 -5 8 -10 11 -10 2 0 4 5 4 10 0 6 -5 10 -11 10 -5 0
-7 -4 -4 -10z"/>
<path d="M2765 2060 c-3 -5 -1 -10 4 -10 6 0 11 5 11 10 0 6 -2 10 -4 10 -3 0
-8 -4 -11 -10z"/>
<path d="M2521 2049 c-18 -6 -40 -16 -47 -24 -8 -7 -19 -15 -26 -18 -31 -11 3
-17 43 -8 103 24 170 4 230 -69 84 -101 102 -176 61 -256 -23 -44 -88 -108
-121 -119 -12 -3 -21 -11 -21 -17 0 -7 -28 -9 -87 -5 -56 3 -81 2 -70 -4 9 -5
48 -10 86 -10 57 -1 77 3 103 22 61 42 100 84 124 134 28 58 30 98 9 148 -34
81 -125 187 -161 187 -11 0 -13 6 -9 20 4 14 2 20 -8 20 -8 0 -27 2 -43 4 -16
3 -44 0 -63 -5z m72 -16 c-13 -2 -33 -2 -45 0 -13 2 -3 4 22 4 25 0 35 -2 23
-4z"/>
<path d="M2940 2046 c0 -17 14 -29 23 -20 8 8 -3 34 -14 34 -5 0 -9 -6 -9 -14z"/>
<path d="M4115 1985 c0 -45 4 -75 10 -75 6 0 10 25 9 63 -1 79 -2 87 -11 87
-5 0 -8 -34 -8 -75z"/>
<path d="M2040 2028 c0 -17 37 -54 46 -46 3 3 -6 18 -20 33 -17 19 -26 23 -26
13z"/>
<path d="M2155 2032 c-10 -10 -5 -22 9 -22 8 0 16 6 19 13 5 13 -17 19 -28 9z"/>
<path d="M2785 2020 c-3 -5 1 -10 9 -10 9 0 16 5 16 10 0 6 -4 10 -9 10 -6 0
-13 -4 -16 -10z"/>
<path d="M5010 2020 c0 -5 5 -10 10 -10 6 0 10 5 10 10 0 6 -4 10 -10 10 -5 0
-10 -4 -10 -10z"/>
<path d="M2375 1949 c-52 -58 -78 -121 -72 -175 3 -28 1 -41 -6 -37 -19 11 3
-51 32 -92 30 -43 105 -105 124 -104 7 0 3 6 -7 12 -37 23 -96 79 -115 110
-15 24 -19 47 -17 92 5 98 15 123 78 191 22 24 36 44 30 44 -5 0 -26 -19 -47
-41z"/>
<path d="M2270 1970 c0 -5 5 -10 11 -10 5 0 7 5 4 10 -3 6 -8 10 -11 10 -2 0
-4 -4 -4 -10z"/>
<path d="M2498 1973 c7 -3 16 -2 19 1 4 3 -2 6 -13 5 -11 0 -14 -3 -6 -6z"/>
<path d="M2770 1966 c0 -9 5 -16 10 -16 6 0 10 4 10 9 0 6 -4 13 -10 16 -5 3
-10 -1 -10 -9z"/>
<path d="M2945 1950 c3 -5 8 -10 11 -10 2 0 4 5 4 10 0 6 -5 10 -11 10 -5 0
-7 -4 -4 -10z"/>
<path d="M2474 1931 c-109 -50 -136 -178 -58 -270 63 -74 144 -90 220 -46 57
33 94 96 94 158 0 59 -12 89 -51 126 -54 52 -134 64 -205 32z m188 -43 c39
-29 60 -86 51 -133 -7 -34 -52 -110 -60 -101 -3 3 -15 0 -26 -6 -40 -21 -177
-2 -161 23 3 5 1 9 -3 9 -17 0 -43 59 -43 100 0 22 7 55 17 73 15 29 15 31 0
18 -24 -19 -36 -72 -27 -120 7 -39 25 -70 59 -98 16 -14 9 -29 -9 -18 -6 4
-25 25 -41 47 -34 47 -40 119 -14 168 39 75 181 96 257 38z m-12 -246 c0 -17
-51 -32 -105 -32 -30 0 -55 4 -55 8 0 5 24 7 53 5 33 -3 61 1 77 11 32 18 30
17 30 8z"/>
<path d="M2481 1883 c-12 -10 -28 -35 -35 -57 -11 -33 -11 -41 1 -55 44 -51
66 -84 53 -79 -8 2 -25 19 -37 38 -13 18 -23 27 -23 19 0 -19 58 -89 73 -88 7
0 6 3 -2 6 -11 4 -8 10 10 24 13 10 18 19 11 19 -20 0 -55 37 -47 49 3 7 1 10
-6 9 -7 -2 -13 2 -14 7 0 6 -4 15 -8 22 -12 19 19 69 51 82 17 7 44 10 65 6
38 -7 73 -37 63 -53 -3 -6 1 -12 9 -16 17 -6 19 7 5 35 -25 46 -128 65 -169
32z"/>
<path d="M2518 1858 c8 -8 8 -15 1 -24 -13 -16 -8 -56 9 -62 9 -3 10 3 2 23
-9 22 -7 30 7 41 16 12 16 15 3 24 -21 14 -37 13 -22 -2z"/>
<path d="M2563 1856 c3 -8 -1 -17 -9 -20 -34 -13 -7 -56 31 -48 32 6 23 21
-10 17 -14 -1 -25 2 -25 6 0 5 15 9 33 9 29 1 30 2 15 14 -10 7 -18 18 -18 25
0 6 -5 11 -11 11 -6 0 -9 -6 -6 -14z"/>
<path d="M2678 1795 c3 -41 0 -62 -13 -81 -9 -14 -15 -28 -12 -30 2 -3 13 8
23 23 19 30 24 117 7 134 -6 6 -8 -13 -5 -46z"/>
<path d="M2649 1795 c-3 -5 -5 -22 -4 -36 1 -19 -3 -25 -13 -22 -8 3 -15 -3
-19 -16 -3 -11 -9 -21 -14 -21 -5 0 -6 7 -3 15 7 17 -12 45 -29 45 -7 0 -7 -4
1 -12 17 -17 15 -38 -3 -38 -8 0 -15 -4 -15 -9 0 -15 23 -26 28 -13 2 6 9 9
15 7 7 -2 25 6 40 19 23 18 28 30 25 57 -2 19 -6 30 -9 24z"/>
<path d="M2500 1745 c0 -8 29 -12 39 -5 9 5 4 8 -13 8 -14 0 -26 -2 -26 -3z"/>
<path d="M2610 1680 c-13 -8 -12 -10 3 -10 9 0 17 5 17 10 0 12 -1 12 -20 0z"/>
<path d="M2538 1663 c7 -3 16 -2 19 1 4 3 -2 6 -13 5 -11 0 -14 -3 -6 -6z"/>
<path d="M2570 1659 c0 -5 5 -7 10 -4 6 3 10 8 10 11 0 2 -4 4 -10 4 -5 0 -10
-5 -10 -11z"/>
<path d="M2136 1924 c-3 -9 -6 -23 -6 -32 1 -12 5 -10 15 8 8 14 14 28 15 33
0 13 -18 7 -24 -9z"/>
<path d="M2883 1895 c-24 -24 -43 -50 -43 -59 0 -19 20 -22 20 -3 0 6 16 29
35 51 19 21 35 42 35 47 0 12 0 13 -47 -36z"/>
<path d="M1890 1917 c0 -8 -11 -36 -25 -63 -33 -66 -31 -68 9 -11 21 30 32 55
29 67 -6 23 -13 26 -13 7z"/>
<path d="M2960 1914 c0 -8 5 -12 10 -9 6 3 10 10 10 16 0 5 -4 9 -10 9 -5 0
-10 -7 -10 -16z"/>
<path d="M3216 1907 c-5 -15 -6 -31 -2 -34 11 -11 18 5 14 34 l-4 28 -8 -28z"/>
<path d="M4665 1919 c-11 -17 1 -21 15 -4 8 9 8 15 2 15 -6 0 -14 -5 -17 -11z"/>
<path d="M2240 1886 c0 -8 4 -17 9 -20 5 -4 7 3 4 14 -6 23 -13 26 -13 6z"/>
<path d="M1538 1873 c-18 -25 -71 -61 -121 -82 -23 -10 -51 -28 -62 -40 l-19
-22 27 10 c28 11 56 27 120 69 56 37 56 19 0 -22 -58 -43 -132 -80 -193 -97
-25 -7 -51 -18 -59 -25 -27 -24 101 16 169 53 94 52 128 79 150 123 20 40 12
64 -12 33z"/>
<path d="M2170 1875 c0 -11 35 -45 47 -45 6 0 16 -8 22 -17 11 -21 24 -13 15
10 -8 23 -84 69 -84 52z"/>
<path d="M3500 1873 c1 -4 13 -26 28 -48 22 -32 50 -51 142 -98 115 -57 190
-81 190 -58 0 6 -13 11 -30 11 -16 0 -73 21 -127 47 -72 34 -112 60 -150 100
-29 30 -53 50 -53 46z"/>
<path d="M3620 1865 c0 -2 10 -10 23 -16 20 -11 21 -11 8 4 -13 16 -31 23 -31
12z"/>
<path d="M2922 1848 c-7 -7 -12 -16 -12 -22 0 -5 -8 -19 -19 -30 -22 -24 -37
-66 -23 -66 5 0 15 11 22 25 10 18 16 22 21 13 9 -15 15 -2 23 55 5 41 5 42
-12 25z"/>
<path d="M1580 1821 c0 -11 15 -53 33 -93 19 -40 37 -86 41 -103 8 -27 9 -28
16 -10 13 31 11 45 -4 45 -8 0 -17 14 -21 30 -4 17 -10 30 -14 30 -8 0 -35 89
-32 108 1 6 -3 12 -9 12 -5 0 -10 -9 -10 -19z"/>
<path d="M3260 1821 c0 -5 5 -13 10 -16 6 -3 10 -2 10 4 0 5 -4 13 -10 16 -5
3 -10 2 -10 -4z"/>
<path d="M3610 1826 c0 -2 7 -7 16 -10 8 -3 12 -2 9 4 -6 10 -25 14 -25 6z"/>
<path d="M3478 1762 c-18 -60 -16 -84 3 -36 20 52 28 84 21 88 -4 2 -15 -21
-24 -52z"/>
<path d="M2180 1799 c0 -20 52 -99 61 -93 5 3 -3 28 -17 55 -26 46 -44 62 -44
38z"/>
<path d="M3281 1774 c0 -11 3 -14 6 -6 3 7 2 16 -1 19 -3 4 -6 -2 -5 -13z"/>
<path d="M2140 1770 c0 -5 5 -10 10 -10 6 0 10 5 10 10 0 6 -4 10 -10 10 -5 0
-10 -4 -10 -10z"/>
<path d="M2961 1754 c0 -11 3 -14 6 -6 3 7 2 16 -1 19 -3 4 -6 -2 -5 -13z"/>
<path d="M3776 1755 c10 -8 23 -15 28 -15 6 0 1 7 -10 15 -10 8 -23 15 -28 15
-6 0 -1 -7 10 -15z"/>
<path d="M1800 1745 c-11 -13 -10 -14 4 -9 9 3 16 10 16 15 0 13 -6 11 -20 -6z"/>
<path d="M3281 1734 c0 -11 3 -14 6 -6 3 7 2 16 -1 19 -3 4 -6 -2 -5 -13z"/>
<path d="M2180 1726 c0 -8 5 -18 10 -21 6 -3 10 1 10 9 0 8 -4 18 -10 21 -5 3
-10 -1 -10 -9z"/>
<path d="M2898 1733 c7 -3 16 -2 19 1 4 3 -2 6 -13 5 -11 0 -14 -3 -6 -6z"/>
<path d="M875 1720 c-4 -6 24 -10 77 -9 56 0 76 3 63 9 -28 12 -133 12 -140 0z"/>
<path d="M2860 1711 c0 -5 14 -16 30 -25 35 -17 39 -11 8 15 -23 21 -38 24
-38 10z"/>
<path d="M3320 1705 c0 -8 23 -29 50 -47 28 -18 50 -38 50 -45 0 -7 5 -13 10
-13 20 0 9 26 -17 42 -16 9 -43 30 -60 47 -21 19 -33 25 -33 16z"/>
<path d="M1806 1701 c-4 -7 -5 -15 -2 -18 9 -9 19 4 14 18 -4 11 -6 11 -12 0z"/>
<path d="M3271 1694 c0 -11 3 -14 6 -6 3 7 2 16 -1 19 -3 4 -6 -2 -5 -13z"/>
<path d="M4900 1701 c0 -5 5 -13 10 -16 6 -3 10 -2 10 4 0 5 -4 13 -10 16 -5
3 -10 2 -10 -4z"/>
<path d="M2200 1674 c0 -8 5 -12 10 -9 6 4 8 11 5 16 -9 14 -15 11 -15 -7z"/>
<path d="M3446 1675 c-3 -8 -1 -15 4 -15 6 0 10 7 10 15 0 8 -2 15 -4 15 -2 0
-6 -7 -10 -15z"/>
<path d="M4902 1239 l-2 -435 45 -92 c24 -51 47 -92 49 -92 3 0 -10 33 -29 73
-48 99 -55 147 -51 332 1 88 0 270 -4 405 -6 228 -6 214 -8 -191z"/>
<path d="M960 1650 c0 -5 7 -10 15 -10 8 0 15 5 15 10 0 6 -7 10 -15 10 -8 0
-15 -4 -15 -10z"/>
<path d="M1300 1645 c0 -8 5 -15 10 -15 6 0 10 7 10 15 0 8 -4 15 -10 15 -5 0
-10 -7 -10 -15z"/>
<path d="M1755 1640 c-12 -4 -27 -16 -35 -26 -14 -16 -13 -16 5 -6 24 13 62
41 55 41 -3 0 -14 -4 -25 -9z"/>
<path d="M1218 1590 c-4 -25 -3 -77 3 -114 11 -82 18 -74 -131 -142 -108 -49
-204 -103 -196 -111 2 -3 16 3 30 12 14 9 87 46 163 81 75 35 141 68 145 72 4
4 4 62 0 127 -6 99 -9 112 -14 75z"/>
<path d="M1972 1619 c2 -7 10 -15 17 -17 8 -3 12 1 9 9 -2 7 -10 15 -17 17 -8
3 -12 -1 -9 -9z"/>
<path d="M3116 1621 c-4 -7 -5 -15 -2 -18 9 -9 19 4 14 18 -4 11 -6 11 -12 0z"/>
<path d="M1254 1570 c4 -30 9 -76 12 -102 3 -27 10 -51 16 -54 10 -6 6 34 -13
145 -12 72 -23 80 -15 11z"/>
<path d="M3890 1608 c0 -9 5 -20 11 -24 11 -7 6 -137 -7 -191 -5 -19 4 -26 71
-58 42 -20 79 -34 82 -31 4 3 -26 21 -66 39 -69 31 -72 33 -67 62 3 17 8 62
11 100 4 60 2 74 -15 95 -15 20 -20 21 -20 8z"/>
<path d="M2330 1586 c14 -15 39 -37 55 -49 36 -24 26 -14 -35 39 -30 25 -37
29 -20 10z"/>
<path d="M3131 1582 c-13 -25 -14 -42 -2 -42 10 0 25 50 17 57 -2 3 -9 -4 -15
-15z"/>
<path d="M1960 1571 c0 -11 5 -23 10 -26 6 -3 10 3 10 14 0 11 -4 23 -10 26
-5 3 -10 -3 -10 -14z"/>
<path d="M3858 1515 c-4 -45 -10 -89 -14 -98 -3 -9 -1 -17 4 -17 16 0 24 54
20 130 l-3 65 -7 -80z"/>
<path d="M1465 1570 c-3 -5 -2 -10 4 -10 5 0 13 5 16 10 3 6 2 10 -4 10 -5 0
-13 -4 -16 -10z"/>
<path d="M1557 1549 c-16 -29 -16 -30 3 -24 11 4 20 2 20 -3 0 -12 -104 -72
-124 -72 -20 0 -39 59 -25 77 16 18 9 23 -19 12 -18 -7 -20 -12 -13 -26 6 -10
18 -35 27 -55 19 -45 31 -46 102 -13 30 14 60 25 68 25 18 0 18 21 0 45 -7 10
-11 26 -9 36 8 30 -12 28 -30 -2z"/>
<path d="M1015 1550 c-3 -5 -1 -10 4 -10 6 0 11 5 11 10 0 6 -2 10 -4 10 -3 0
-8 -4 -11 -10z"/>
<path d="M3530 1536 c0 -8 27 -29 60 -48 33 -18 60 -36 60 -39 0 -11 -94 25
-107 41 -11 13 -14 13 -22 0 -13 -20 -8 -24 72 -50 62 -20 71 -21 84 -7 14 13
13 16 -7 22 -12 4 -46 27 -76 51 -59 48 -64 51 -64 30z"/>
<path d="M3950 1540 c0 -5 13 -16 29 -24 36 -19 113 -37 105 -25 -3 5 -11 9
-17 9 -7 0 -36 11 -64 25 -29 13 -53 20 -53 15z"/>
<path d="M1176 1531 c-4 -7 -5 -15 -2 -18 9 -9 19 4 14 18 -4 11 -6 11 -12 0z"/>
<path d="M3705 1530 c3 -5 16 -10 28 -10 18 0 19 2 7 10 -20 13 -43 13 -35 0z"/>
<path d="M3270 1498 c0 -18 18 -34 28 -24 3 4 -2 14 -11 23 -16 16 -17 16 -17
1z"/>
<path d="M1095 1490 c-3 -5 -2 -10 4 -10 5 0 13 5 16 10 3 6 2 10 -4 10 -5 0
-13 -4 -16 -10z"/>
<path d="M1825 1480 c-10 -11 -14 -20 -8 -20 5 0 18 9 28 20 10 11 14 20 8 20
-5 0 -18 -9 -28 -20z"/>
<path d="M3700 1484 c0 -8 5 -12 10 -9 6 3 10 10 10 16 0 5 -4 9 -10 9 -5 0
-10 -7 -10 -16z"/>
<path d="M4110 1480 c20 -13 40 -13 40 0 0 6 -12 10 -27 10 -22 0 -25 -2 -13
-10z"/>
<path d="M1013 1461 c-43 -17 -64 -31 -46 -31 14 0 103 40 103 45 0 7 -11 5
-57 -14z"/>
<path d="M1122 1430 c-35 -17 -69 -30 -75 -30 -7 0 -21 -8 -32 -16 -20 -16
-20 -16 3 -9 34 10 188 84 177 84 -5 1 -39 -13 -73 -29z"/>
<path d="M3331 1446 c-1 -14 -6 -17 -27 -12 -19 5 -25 3 -22 -6 3 -7 17 -13
31 -13 14 -1 29 -4 33 -8 12 -12 36 -8 31 6 -2 6 -11 11 -20 9 -9 -1 -17 6
-20 20 -3 17 -5 18 -6 4z"/>
<path d="M4128 1388 c26 -40 59 -90 72 -110 14 -21 31 -38 38 -38 9 0 3 14
-16 38 -16 20 -50 70 -75 110 -26 39 -51 72 -57 72 -5 0 12 -33 38 -72z"/>
<path d="M1820 1435 c-10 -12 -10 -15 4 -15 9 0 16 7 16 15 0 8 -2 15 -4 15
-2 0 -9 -7 -16 -15z"/>
<path d="M897 1414 c-43 -23 -26 -27 19 -4 21 10 32 19 24 19 -8 0 -28 -7 -43
-15z"/>
<path d="M1756 1415 c-4 -12 -1 -16 11 -13 18 3 21 20 5 26 -5 1 -12 -4 -16
-13z"/>
<path d="M1505 1408 c-37 -13 -38 -14 -31 -27 4 -6 20 -2 41 10 51 30 47 37
-10 17z"/>
<path d="M3635 1390 c4 -6 11 -8 16 -5 14 9 11 15 -7 15 -8 0 -12 -5 -9 -10z"/>
<path d="M835 1380 c3 -5 8 -10 11 -10 2 0 4 5 4 10 0 6 -5 10 -11 10 -5 0 -7
-4 -4 -10z"/>
<path d="M920 1376 c0 -9 5 -16 10 -16 6 0 10 4 10 9 0 6 -4 13 -10 16 -5 3
-10 -1 -10 -9z"/>
<path d="M3329 1363 c-25 -67 -72 -152 -104 -190 -51 -59 -43 -67 10 -9 41 45
104 153 120 204 9 32 -13 28 -26 -5z"/>
<path d="M1670 1369 c0 -9 10 -24 21 -35 22 -19 22 -19 11 1 -6 11 -16 27 -22
35 -8 13 -10 13 -10 -1z"/>
<path d="M1817 1290 c26 -49 51 -90 56 -90 5 0 7 3 5 8 -2 4 -21 44 -43 89
-22 46 -46 83 -53 83 -7 0 6 -36 35 -90z"/>
<path d="M3406 1287 c-53 -89 -68 -126 -47 -113 9 6 111 -12 120 -20 3 -3 -11
-20 -29 -39 -19 -19 -29 -35 -23 -35 15 0 88 88 80 96 -3 3 -33 7 -67 9 -34 2
-64 5 -66 8 -2 2 19 43 46 92 28 48 49 89 47 92 -3 2 -30 -39 -61 -90z"/>
<path d="M1015 1340 c-33 -17 -105 -50 -159 -75 -54 -25 -96 -48 -92 -52 3 -3
79 30 169 75 89 44 158 81 152 81 -5 0 -37 -13 -70 -29z"/>
<path d="M3642 1350 c0 -14 2 -19 5 -12 2 6 2 18 0 25 -3 6 -5 1 -5 -13z"/>
<path d="M885 1350 c-3 -6 1 -7 9 -4 18 7 21 14 7 14 -6 0 -13 -4 -16 -10z"/>
<path d="M1881 1355 c-1 -13 113 -190 128 -199 6 -4 11 -1 11 8 0 9 -5 16 -10
16 -9 0 -40 44 -117 166 -6 11 -12 14 -12 9z"/>
<path d="M3826 1351 c-4 -7 -5 -15 -2 -18 9 -9 19 4 14 18 -4 11 -6 11 -12 0z"/>
<path d="M845 1339 c-11 -17 1 -21 15 -4 8 9 8 15 2 15 -6 0 -14 -5 -17 -11z"/>
<path d="M1250 1331 c0 -12 6 -21 15 -21 8 0 15 4 15 9 0 5 -7 14 -15 21 -13
10 -15 9 -15 -9z"/>
<path d="M1296 1335 c-3 -9 0 -15 9 -15 16 0 20 16 6 24 -5 3 -11 -1 -15 -9z"/>
<path d="M1470 1321 c0 -12 5 -21 10 -21 6 0 10 6 10 14 0 8 -4 18 -10 21 -5
3 -10 -3 -10 -14z"/>
<path d="M3207 1286 c-16 -30 -45 -73 -65 -96 -25 -30 -29 -39 -15 -32 11 7
42 43 67 82 52 78 62 100 50 100 -5 0 -22 -24 -37 -54z"/>
<path d="M3860 1330 c0 -11 8 -16 45 -24 34 -8 24 4 -17 22 -16 6 -28 7 -28 2z"/>
<path d="M749 1299 c-24 -17 -61 -48 -82 -68 -42 -39 -107 -164 -107 -203 1
-14 11 2 26 42 13 35 31 71 39 80 8 9 15 21 15 27 0 16 80 86 133 117 26 16
47 30 47 32 0 13 -33 0 -71 -27z"/>
<path d="M1593 1307 c-61 -17 -67 -31 -9 -22 61 8 77 15 70 26 -6 11 -6 11
-61 -4z"/>
<path d="M2308 1304 c13 -9 26 -13 30 -9 8 8 -17 25 -38 25 -9 0 -6 -6 8 -16z"/>
<path d="M2786 1295 c-20 -31 -10 -33 15 -3 21 24 23 28 10 28 -5 0 -16 -11
-25 -25z"/>
<path d="M1710 1307 c0 -4 9 -25 20 -47 11 -21 17 -41 12 -43 -4 -3 -28 -7
-54 -11 -25 -4 -51 -12 -56 -19 -14 -17 1 -49 38 -83 55 -50 80 -78 80 -91 0
-6 5 -15 10 -18 6 -3 10 1 10 10 0 9 -25 41 -55 72 -71 71 -81 89 -57 102 30
16 96 25 88 12 -4 -6 -23 -11 -42 -11 -19 0 -34 -5 -34 -11 0 -6 7 -8 16 -5 9
3 26 6 38 6 12 0 30 6 40 13 17 12 16 16 -9 63 -28 51 -45 73 -45 61z"/>
<path d="M3470 1303 c0 -12 89 -33 95 -22 7 11 -3 16 -52 24 -25 4 -43 3 -43
-2z"/>
<path d="M4025 1266 c50 -18 94 -30 99 -27 11 5 -150 61 -174 60 -8 0 26 -15
75 -33z"/>
<path d="M4100 1286 c0 -2 15 -9 33 -15 29 -10 30 -9 13 4 -18 14 -46 20 -46
11z"/>
<path d="M1273 1268 c2 -7 10 -30 18 -50 10 -30 18 -38 37 -38 22 0 24 3 18
32 -3 18 -11 37 -17 43 -7 7 -7 1 0 -18 13 -35 14 -47 2 -47 -5 0 -17 20 -27
45 -9 25 -21 45 -26 45 -6 0 -8 -6 -5 -12z"/>
<path d="M1475 1270 c-3 -5 -1 -18 4 -27 9 -16 10 -14 11 10 0 28 -5 34 -15
17z"/>
<path d="M2120 1275 c0 -5 5 -17 10 -25 5 -8 10 -10 10 -5 0 6 -5 17 -10 25
-5 8 -10 11 -10 5z"/>
<path d="M4501 1179 c34 -56 65 -114 71 -128 6 -15 12 -21 15 -13 4 11 -17 51
-100 190 -17 28 -34 52 -38 52 -5 0 19 -46 52 -101z"/>
<path d="M2976 1225 c-10 -25 -27 -52 -39 -61 l-22 -16 25 7 c14 4 25 8 26 9
9 16 35 99 32 102 -3 2 -13 -16 -22 -41z"/>
<path d="M3792 1225 c-14 -31 -15 -45 -4 -45 5 0 13 16 19 35 13 40 2 47 -15
10z"/>
<path d="M3850 1216 c-11 -33 -6 -46 19 -46 10 0 22 13 29 33 16 43 16 42 -13
42 -18 0 -27 -7 -35 -29z m33 -6 c-3 -11 -9 -20 -14 -20 -11 0 -11 3 -3 24 9
23 23 20 17 -4z"/>
<path d="M4152 1218 c15 -23 67 -41 54 -19 -4 6 -16 11 -26 11 -13 0 -17 5
-14 15 4 10 0 15 -11 15 -16 0 -16 -2 -3 -22z"/>
<path d="M2140 1227 c0 -16 41 -87 50 -87 12 0 13 17 1 22 -5 2 -18 19 -30 38
-11 19 -21 31 -21 27z"/>
<path d="M3400 1221 c0 -10 61 -34 68 -27 4 4 -51 36 -63 36 -3 0 -5 -4 -5 -9z"/>
<path d="M928 1209 c-10 -5 -18 -17 -18 -24 0 -20 6 -19 30 5 30 30 24 40 -12
19z"/>
<path d="M771 1178 c-41 -21 -48 -31 -92 -132 -27 -60 -47 -111 -45 -114 3 -2
30 46 61 107 52 105 58 113 100 131 25 11 45 22 45 25 0 11 -27 4 -69 -17z"/>
<path d="M4293 1183 c4 -6 23 -14 42 -17 34 -7 38 -13 90 -119 62 -129 75
-122 15 8 -22 48 -40 89 -40 91 0 2 7 4 15 4 33 0 12 18 -27 23 -24 4 -56 9
-72 13 -19 5 -27 3 -23 -3z"/>
<path d="M1580 1171 c0 -5 5 -13 10 -16 6 -3 10 -2 10 4 0 5 -4 13 -10 16 -5
3 -10 2 -10 -4z"/>
<path d="M845 1160 c-8 -14 17 -88 59 -170 l34 -65 12 27 c12 24 9 35 -25 108
-21 44 -43 80 -48 80 -5 0 -7 -3 -5 -7 2 -5 20 -43 41 -87 21 -43 36 -81 33
-83 -8 -8 -79 140 -81 170 -2 32 -10 43 -20 27z"/>
<path d="M4185 1075 c-27 -52 -46 -98 -41 -102 10 -10 26 13 75 107 36 69 41
90 21 90 -3 0 -28 -43 -55 -95z"/>
<path d="M664 1148 c-3 -4 6 -8 20 -8 14 0 26 4 26 9 0 11 -39 10 -46 -1z"/>
<path d="M966 1145 c-10 -8 -24 -16 -30 -18 -6 -2 -8 -8 -4 -12 10 -10 68 17
68 32 0 17 -10 16 -34 -2z"/>
<path d="M1916 1146 c6 -16 34 -30 34 -18 0 5 -5 13 -12 20 -16 16 -29 15 -22
-2z"/>
<path d="M1602 1128 c5 -15 28 -23 28 -10 0 5 -7 13 -16 16 -10 4 -14 1 -12
-6z"/>
<path d="M4255 1037 c-27 -50 -51 -98 -53 -104 -5 -20 12 -15 25 6 18 29 93
178 93 185 0 22 -21 -6 -65 -87z"/>
<path d="M970 1100 c-16 -13 -20 -20 -10 -19 16 0 50 22 50 33 0 11 -14 6 -40
-14z"/>
<path d="M3493 1100 c-18 -9 -30 -20 -27 -23 10 -10 64 15 64 29 0 8 -1 13 -2
13 -2 -1 -18 -9 -35 -19z"/>
<path d="M1448 1093 c6 -2 18 -2 25 0 6 3 1 5 -13 5 -14 0 -19 -2 -12 -5z"/>
<path d="M2269 1045 c-23 -31 -40 -58 -37 -60 2 -2 21 18 41 45 l37 49 247 3
c154 2 253 -1 262 -7 8 -5 32 -34 53 -63 22 -30 42 -51 45 -49 2 3 -19 35 -47
71 l-52 66 -254 0 -253 0 -42 -55z"/>
<path d="M3640 1090 c-22 -7 -21 -8 13 -9 23 -1 36 3 32 9 -7 11 -10 11 -45 0z"/>
<path d="M1528 1082 c-33 -2 -58 -8 -58 -14 0 -6 12 -8 31 -4 17 3 59 6 92 6
33 0 58 3 54 6 -8 8 -48 11 -119 6z"/>
<path d="M993 1068 c-25 -12 -32 -34 -8 -24 8 3 15 0 15 -6 0 -7 5 -6 15 2 15
13 21 41 8 39 -5 0 -18 -5 -30 -11z m27 -8 c0 -5 -5 -10 -11 -10 -5 0 -7 5 -4
10 3 6 8 10 11 10 2 0 4 -4 4 -10z"/>
<path d="M3368 1055 c-21 -27 -22 -35 -8 -35 6 0 10 6 10 14 0 7 10 21 23 29
15 11 17 16 7 16 -8 0 -23 -10 -32 -24z"/>
<path d="M1304 1044 c-18 -15 -18 -15 6 -10 14 3 33 6 43 6 9 0 17 5 17 10 0
16 -44 12 -66 -6z"/>
<path d="M2359 1043 c-3 -23 4 -70 13 -80 22 -27 68 13 68 59 0 26 -3 28 -40
28 -22 0 -40 -3 -41 -7z m54 -43 c-3 -11 -9 -20 -13 -20 -13 0 -19 39 -6 43
18 7 25 -1 19 -23z"/>
<path d="M2455 1014 l0 -31 85 -6 c77 -6 100 -4 89 7 -2 3 -36 5 -74 7 -72 2
-88 5 -81 17 2 4 37 5 77 2 63 -5 73 -3 77 12 7 28 22 10 22 -28 0 -32 2 -34
35 -34 38 0 59 24 53 63 -3 21 -6 22 -143 22 l-140 0 0 -31z m242 -9 c8 -22
-6 -33 -17 -15 -13 20 -12 30 0 30 6 0 13 -7 17 -15z"/>
<path d="M3430 1042 c0 -6 6 -12 13 -15 9 -3 8 -8 -3 -22 -14 -17 -13 -18 19
-12 18 4 53 7 77 7 32 0 44 4 44 14 0 20 -6 23 -82 31 -43 4 -68 3 -68 -3z"/>
<path d="M3800 1041 c0 -5 -16 -15 -35 -21 -19 -6 -35 -16 -35 -22 0 -13 50
-1 71 18 8 8 21 14 27 14 7 0 12 5 12 10 0 6 -9 10 -20 10 -11 0 -20 -4 -20
-9z"/>
<path d="M1024 1029 c-3 -6 -15 -9 -25 -6 -19 5 -26 -7 -10 -17 13 -8 61 11
61 24 0 13 -17 13 -26 -1z"/>
<path d="M1550 1030 c-26 -16 1 -28 73 -32 49 -2 67 0 67 10 0 6 5 12 10 12 6
0 10 5 10 10 0 13 -140 13 -160 0z"/>
<path d="M2055 1030 c-3 -5 1 -10 10 -10 9 0 13 5 10 10 -3 6 -8 10 -10 10 -2
0 -7 -4 -10 -10z"/>
<path d="M3406 1031 c-4 -7 -5 -15 -2 -18 9 -9 19 4 14 18 -4 11 -6 11 -12 0z"/>
<path d="M450 1006 c0 -22 15 -27 49 -15 43 15 39 29 -9 29 -28 0 -40 -4 -40
-14z"/>
<path d="M1390 1005 c0 -8 4 -15 10 -15 5 0 7 7 4 15 -4 8 -8 15 -10 15 -2 0
-4 -7 -4 -15z"/>
<path d="M2010 1013 c0 -5 25 -20 55 -34 66 -30 69 -14 4 18 -48 24 -59 27
-59 16z"/>
<path d="M3059 1005 c-25 -8 -54 -24 -64 -35 -23 -25 -12 -26 29 -1 17 11 48
22 69 26 20 4 37 11 37 16 0 12 -16 10 -71 -6z"/>
<path d="M1325 1000 c3 -5 17 -10 31 -10 13 0 24 5 24 10 0 6 -14 10 -31 10
-17 0 -28 -4 -24 -10z"/>
<path d="M4055 1000 c-3 -6 2 -13 12 -17 10 -3 26 -13 36 -21 9 -8 19 -13 22
-10 3 3 -10 17 -29 32 -21 15 -37 22 -41 16z"/>
<path d="M4592 998 c7 -19 38 -22 38 -4 0 10 -9 16 -21 16 -12 0 -19 -5 -17
-12z"/>
<path d="M3348 973 c12 -2 30 -2 40 0 9 3 -1 5 -23 4 -22 0 -30 -2 -17 -4z"/>
<path d="M2207 963 c-4 -3 -7 -11 -7 -17 0 -6 5 -5 12 2 6 6 9 14 7 17 -3 3
-9 2 -12 -2z"/>
<path d="M2435 960 c-7 -12 2 -12 30 0 19 8 19 9 -2 9 -12 1 -25 -3 -28 -9z"/>
<path d="M519 851 c-50 -144 -80 -224 -91 -238 -5 -6 -19 -14 -31 -16 -16 -3
-13 -5 9 -6 l32 -1 61 167 c34 91 61 174 59 184 -2 9 -19 -31 -39 -90z"/>
<path d="M1100 940 c0 -6 141 -10 403 -10 l402 0 63 -78 c78 -97 132 -155 138
-149 3 3 -7 18 -21 33 -70 75 -167 195 -162 200 17 17 115 -85 197 -207 l41
-59 398 0 398 0 91 112 c49 62 99 121 110 131 18 16 49 17 456 15 240 -2 436
0 436 3 0 16 -70 19 -462 19 l-417 0 -40 -42 c-61 -66 -171 -201 -171 -210 0
-4 -179 -8 -397 -8 l-398 1 -49 70 c-27 38 -74 96 -104 129 l-54 60 -429 0
c-279 0 -429 -3 -429 -10z"/>
<path d="M2508 943 c29 -2 74 -2 100 0 26 2 2 3 -53 3 -55 0 -76 -1 -47 -3z"/>
<path d="M2668 943 c6 -2 18 -2 25 0 6 3 1 5 -13 5 -14 0 -19 -2 -12 -5z"/>
<path d="M4550 943 c0 -5 7 -18 15 -29 13 -18 14 -18 8 4 -5 22 -23 41 -23 25z"/>
<path d="M1036 898 c-20 -23 -36 -46 -36 -52 0 -6 3 -6 9 0 60 67 82 94 73 94
-6 0 -27 -19 -46 -42z"/>
<path d="M2380 921 c0 -7 25 -11 73 -12 39 0 107 -3 150 -5 48 -3 77 -1 77 6
0 6 -38 10 -97 10 -54 0 -122 3 -150 6 -37 5 -53 3 -53 -5z"/>
<path d="M4080 922 c0 -4 22 -19 48 -34 26 -15 57 -35 70 -44 12 -9 22 -12 22
-8 0 5 -31 28 -70 51 -38 23 -70 39 -70 35z"/>
<path d="M4477 923 c-12 -11 -8 -33 6 -28 17 6 141 -258 134 -285 -4 -15 0
-20 13 -20 14 0 17 6 13 23 -6 28 -146 317 -154 317 -3 0 -9 -3 -12 -7z"/>
<path d="M613 906 c3 -8 2 -18 -4 -22 -6 -3 -21 -29 -34 -57 -96 -212 -101
-225 -62 -167 12 19 43 79 67 132 25 53 51 97 58 98 20 0 9 24 -13 29 -13 2
-16 -1 -12 -13z"/>
<path d="M2150 911 c0 -5 5 -13 10 -16 6 -3 10 -2 10 4 0 5 -4 13 -10 16 -5 3
-10 2 -10 -4z"/>
<path d="M2695 910 c4 -6 11 -8 16 -5 14 9 11 15 -7 15 -8 0 -12 -5 -9 -10z"/>
<path d="M2897 854 c-37 -31 -67 -57 -67 -60 0 -10 12 -2 58 39 27 23 57 47
68 53 10 7 16 14 13 18 -3 3 -35 -19 -72 -50z"/>
<path d="M3102 795 c-57 -63 -99 -115 -94 -115 5 0 46 41 93 92 100 109 123
138 112 138 -5 0 -55 -52 -111 -115z"/>
<path d="M3361 837 c-39 -53 -45 -64 -21 -42 36 34 95 115 83 114 -4 0 -32
-32 -62 -72z"/>
<path d="M3796 898 c4 -7 47 -73 96 -147 48 -74 88 -140 88 -147 0 -8 7 -14
15 -14 12 0 9 10 -11 43 -60 94 -185 277 -190 277 -3 0 -2 -6 2 -12z"/>
<path d="M2180 875 c0 -3 23 -34 51 -68 88 -106 88 -99 0 16 -41 54 -51 64
-51 52z"/>
<path d="M2936 855 c-16 -12 -17 -15 -4 -15 9 0 18 7 22 15 7 18 6 18 -18 0z"/>
<path d="M3226 843 c8 -35 10 -37 24 -28 8 5 7 12 -4 24 -9 10 -13 21 -9 24 3
4 1 7 -6 7 -7 0 -9 -9 -5 -27z"/>
<path d="M3906 853 c-4 -9 -2 -21 4 -27 7 -7 10 -7 10 1 0 6 3 18 6 27 3 9 2
16 -4 16 -5 0 -13 -8 -16 -17z"/>
<path d="M4591 865 c21 -57 54 -125 60 -125 7 0 -47 119 -58 130 -3 3 -4 0 -2
-5z"/>
<path d="M930 849 c0 -5 5 -7 10 -4 6 3 10 8 10 11 0 2 -4 4 -10 4 -5 0 -10
-5 -10 -11z"/>
<path d="M1338 843 c-9 -10 -48 -67 -88 -128 -40 -60 -77 -113 -82 -116 -6 -4
-6 -9 -1 -12 11 -7 27 4 31 21 1 7 35 61 75 120 86 127 89 132 84 132 -2 0
-11 -8 -19 -17z"/>
<path d="M1730 855 c1 -12 38 -61 133 -174 l68 -81 -363 0 c-200 0 -357 -4
-351 -8 7 -4 206 -9 441 -11 l429 -2 33 40 c38 49 29 54 -16 10 -32 -31 -57
-36 -141 -30 -6 1 -56 54 -109 119 -119 143 -124 149 -124 137z"/>
<path d="M2423 843 c9 -2 23 -2 30 0 6 3 -1 5 -18 5 -16 0 -22 -2 -12 -5z"/>
<path d="M2528 843 c29 -2 74 -2 100 0 26 2 2 3 -53 3 -55 0 -76 -1 -47 -3z"/>
<path d="M3270 815 c0 -8 -6 -15 -13 -15 -9 0 -14 -12 -15 -30 0 -17 4 -28 9
-25 5 4 9 15 9 26 0 10 7 19 15 19 8 0 15 9 15 20 0 11 -4 20 -10 20 -5 0 -10
-7 -10 -15z"/>
<path d="M1915 810 c-3 -5 -2 -10 4 -10 5 0 13 5 16 10 3 6 2 10 -4 10 -5 0
-13 -4 -16 -10z"/>
<path d="M4116 805 c4 -8 11 -15 16 -15 6 0 5 6 -2 15 -7 8 -14 15 -16 15 -2
0 -1 -7 2 -15z"/>
<path d="M721 754 c0 -11 3 -14 6 -6 3 7 2 16 -1 19 -3 4 -6 -2 -5 -13z"/>
<path d="M2478 763 c29 -2 74 -2 100 0 26 2 2 3 -53 3 -55 0 -76 -1 -47 -3z"/>
<path d="M2638 763 c6 -2 18 -2 25 0 6 3 1 5 -13 5 -14 0 -19 -2 -12 -5z"/>
<path d="M2748 763 c7 -3 16 -2 19 1 4 3 -2 6 -13 5 -11 0 -14 -3 -6 -6z"/>
<path d="M2856 753 c-6 -14 -5 -15 5 -6 7 7 10 15 7 18 -3 3 -9 -2 -12 -12z"/>
<path d="M4396 731 c-9 -24 -15 -46 -12 -48 7 -7 38 65 34 79 -2 6 -12 -8 -22
-31z"/>
<path d="M4073 737 c-44 -23 -57 -39 -25 -30 17 4 83 53 72 52 -3 0 -24 -10
-47 -22z"/>
<path d="M3315 740 c6 -17 -31 -62 -80 -97 -16 -12 -26 -25 -22 -29 4 -5 12
-2 17 6 6 8 10 11 10 7 0 -11 66 56 80 83 9 17 9 25 0 34 -8 8 -10 7 -5 -4z"/>
<path d="M3266 725 c-4 -13 -2 -14 14 -5 23 13 26 20 6 20 -8 0 -16 -7 -20
-15z"/>
<path d="M3215 720 c-3 -5 -1 -10 4 -10 6 0 11 5 11 10 0 6 -2 10 -4 10 -3 0
-8 -4 -11 -10z"/>
<path d="M4098 674 c-9 -26 -12 -42 -8 -38 14 14 41 84 33 84 -5 0 -16 -21
-25 -46z"/>
<path d="M3245 692 c-5 -4 -17 -16 -25 -26 -14 -18 -14 -19 6 -8 12 6 24 18
28 27 6 17 5 18 -9 7z"/>
<path d="M3183 678 c-6 -7 -22 -32 -37 -56 l-27 -43 398 2 c219 1 409 5 423
10 14 4 -159 8 -383 8 l-408 1 31 45 c17 25 27 45 22 45 -5 0 -14 -6 -19 -12z"/>
<path d="M4685 644 c4 -16 8 -35 8 -41 0 -10 25 -12 96 -11 l96 2 -88 3 -88 4
-6 30 c-3 16 -10 32 -16 36 -6 4 -7 -4 -2 -23z"/>
<path d="M2986 620 c22 -33 32 -40 58 -40 17 0 38 5 46 10 11 7 4 10 -27 10
-35 0 -45 5 -63 30 -32 45 -44 36 -14 -10z"/>
<path d="M4356 645 c-3 -9 -5 -29 -5 -43 1 -20 3 -17 9 13 8 43 7 57 -4 30z"/>
<path d="M513 613 c-20 -7 -15 -23 7 -23 11 0 20 4 20 9 0 13 -12 19 -27 14z"/>
<path d="M125 600 c-30 -8 -30 -8 8 -9 23 -1 36 3 32 9 -3 6 -7 9 -8 9 -1 -1
-15 -5 -32 -9z"/>
<path d="M4990 600 c0 -5 10 -10 23 -10 18 0 19 2 7 10 -19 13 -30 13 -30 0z"/>
<path d="M313 593 c9 -2 23 -2 30 0 6 3 -1 5 -18 5 -16 0 -22 -2 -12 -5z"/>
<path d="M868 593 c6 -2 18 -2 25 0 6 3 1 5 -13 5 -14 0 -19 -2 -12 -5z"/>
<path d="M968 593 c34 -2 90 -2 125 0 34 2 6 3 -63 3 -69 0 -97 -1 -62 -3z"/>
<path d="M2313 593 c97 -2 257 -2 355 0 97 1 17 2 -178 2 -195 0 -275 -1 -177
-2z"/>
<path d="M4058 593 c23 -2 59 -2 80 0 20 2 1 4 -43 4 -44 0 -61 -2 -37 -4z"/>
<path d="M4228 593 c6 -2 18 -2 25 0 6 3 1 5 -13 5 -14 0 -19 -2 -12 -5z"/>
</g>
</svg>
