<?xml version="1.0" standalone="no"?>
<!DOCTYPE svg PUBLIC "-//W3C//DTD SVG 20010904//EN"
 "http://www.w3.org/TR/2001/REC-SVG-20010904/DTD/svg10.dtd">
<svg version="1.0" xmlns="http://www.w3.org/2000/svg"
 width="512.000000pt" height="512.000000pt" viewBox="0 0 512.000000 512.000000"
 preserveAspectRatio="xMidYMid meet">
<metadata>
Created by potrace 1.16, written by Peter Selinger 2001-2019
</metadata>
<g transform="translate(0.000000,512.000000) scale(0.100000,-0.100000)"
fill="#000000" stroke="none">
<path d="M3664 4833 c-10 -16 -37 -71 -60 -123 l-42 -95 -183 -6 -184 -5 189
-1 190 -1 17 48 c9 26 35 84 57 129 22 44 38 81 37 81 -2 0 -11 -12 -21 -27z"/>
<path d="M3675 4769 c-4 -6 -5 -12 -2 -15 2 -3 7 2 10 11 7 17 1 20 -8 4z"/>
<path d="M3656 4723 c-6 -14 -5 -15 5 -6 7 7 10 15 7 18 -3 3 -9 -2 -12 -12z"/>
<path d="M3619 4648 c-7 -18 -18 -36 -23 -40 -7 -5 -5 -8 4 -8 9 0 20 16 27
37 15 48 10 54 -8 11z"/>
<path d="M513 4608 c-2 -5 46 -8 108 -8 62 0 110 3 107 6 -9 8 -209 10 -215 2z"/>
<path d="M1955 4610 l-40 -7 43 -2 c23 0 42 4 42 9 0 6 -1 9 -2 9 -2 -1 -21
-5 -43 -9z"/>
<path d="M2015 4610 c3 -5 10 -10 16 -10 5 0 9 5 9 10 0 6 -7 10 -16 10 -8 0
-12 -4 -9 -10z"/>
<path d="M2050 4612 c0 -8 140 -5 149 3 2 3 -30 5 -72 5 -42 0 -77 -4 -77 -8z"/>
<path d="M2318 4613 c45 -2 119 -2 165 0 45 1 8 3 -83 3 -91 0 -128 -2 -82 -3z"/>
<path d="M2628 4613 c29 -2 74 -2 100 0 26 2 2 3 -53 3 -55 0 -76 -1 -47 -3z"/>
<path d="M2880 4610 c0 -5 5 -10 11 -10 5 0 7 5 4 10 -3 6 -8 10 -11 10 -2 0
-4 -4 -4 -10z"/>
<path d="M2995 4610 c3 -5 8 -10 11 -10 2 0 4 5 4 10 0 6 -5 10 -11 10 -5 0
-7 -4 -4 -10z"/>
<path d="M3035 4610 c3 -5 8 -10 11 -10 2 0 4 5 4 10 0 6 -5 10 -11 10 -5 0
-7 -4 -4 -10z"/>
<path d="M4210 4568 c-18 -29 -57 -90 -87 -135 -30 -45 -52 -87 -48 -93 3 -5
0 -16 -7 -24 -8 -7 -38 -43 -67 -79 -30 -37 -57 -64 -61 -62 -4 3 -7 -1 -6 -8
0 -7 -13 -30 -31 -52 -33 -42 -144 -191 -156 -212 -17 -28 19 -1 40 30 53 76
90 126 120 163 17 21 86 105 152 186 113 139 228 287 245 316 4 6 3 12 -1 12
-5 0 -27 -26 -50 -57 -64 -91 -164 -215 -169 -210 -3 2 19 40 48 83 28 44 69
105 90 137 21 31 34 57 29 57 -5 0 -23 -24 -41 -52z"/>
<path d="M783 4603 c20 -2 54 -2 75 0 20 2 3 4 -38 4 -41 0 -58 -2 -37 -4z"/>
<path d="M912 4605 c7 -7 97 -9 105 -2 3 4 -20 7 -52 7 -32 0 -56 -2 -53 -5z"/>
<path d="M1048 4603 c7 -3 16 -2 19 1 4 3 -2 6 -13 5 -11 0 -14 -3 -6 -6z"/>
<path d="M1088 4598 c9 -9 15 -9 24 0 9 9 7 12 -12 12 -19 0 -21 -3 -12 -12z"/>
<path d="M1138 4603 c6 -2 18 -2 25 0 6 3 1 5 -13 5 -14 0 -19 -2 -12 -5z"/>
<path d="M1188 4603 c6 -2 18 -2 25 0 6 3 1 5 -13 5 -14 0 -19 -2 -12 -5z"/>
<path d="M1238 4603 c7 -3 16 -2 19 1 4 3 -2 6 -13 5 -11 0 -14 -3 -6 -6z"/>
<path d="M1298 4603 c12 -2 30 -2 40 0 9 3 -1 5 -23 4 -22 0 -30 -2 -17 -4z"/>
<path d="M1433 4603 c15 -2 37 -2 50 0 12 2 0 4 -28 4 -27 0 -38 -2 -22 -4z"/>
<path d="M1580 4603 c0 -5 51 -7 112 -5 205 4 225 8 56 10 -93 1 -168 -1 -168
-5z"/>
<path d="M2811 4468 c-6 -79 -14 -244 -17 -368 -3 -124 -9 -266 -14 -317 -6
-51 -10 -114 -9 -140 2 -71 27 108 30 215 2 46 6 85 10 88 4 2 5 14 1 27 -9
30 -6 190 9 430 6 109 9 200 7 203 -3 2 -10 -60 -17 -138z"/>
<path d="M3168 4603 c7 -3 16 -2 19 1 4 3 -2 6 -13 5 -11 0 -14 -3 -6 -6z"/>
<path d="M3658 4603 c12 -2 30 -2 40 0 9 3 -1 5 -23 4 -22 0 -30 -2 -17 -4z"/>
<path d="M3728 4603 c7 -3 16 -2 19 1 4 3 -2 6 -13 5 -11 0 -14 -3 -6 -6z"/>
<path d="M3768 4603 c7 -3 16 -2 19 1 4 3 -2 6 -13 5 -11 0 -14 -3 -6 -6z"/>
<path d="M3933 4533 c-65 -99 -124 -191 -140 -221 -7 -13 -26 -41 -43 -62 -16
-21 -30 -42 -30 -48 0 -5 -7 -16 -16 -23 -9 -8 -28 -31 -41 -52 -13 -21 -28
-35 -32 -32 -5 3 -7 -4 -4 -15 4 -14 1 -20 -8 -18 -7 2 -34 -27 -59 -64 -25
-36 -64 -95 -88 -130 l-43 -63 40 45 c23 25 53 64 68 88 15 23 31 42 35 42 13
0 9 -13 -12 -40 -11 -14 -20 -29 -20 -34 0 -8 45 49 65 84 8 13 7 13 -8 1 -23
-18 -22 2 1 22 10 10 22 14 27 10 4 -5 5 -3 2 4 -4 6 22 51 57 100 34 48 100
147 146 218 45 72 100 158 122 192 22 34 47 64 56 66 13 4 12 5 -3 6 -15 1
-34 -20 -72 -76z m-323 -492 c-5 -11 -15 -23 -22 -27 -7 -5 -8 -2 -3 7 21 37
44 55 25 20z"/>
<path d="M4078 4603 c7 -3 16 -2 19 1 4 3 -2 6 -13 5 -11 0 -14 -3 -6 -6z"/>
<path d="M4125 4597 c-117 -142 -279 -377 -262 -377 2 0 18 23 35 51 20 31 36
48 44 43 7 -4 8 -3 4 4 -8 13 62 118 76 114 5 -1 7 2 4 7 -3 5 23 46 59 90 35
45 61 81 57 81 -4 -1 -11 -6 -17 -13z"/>
<path d="M4901 4603 c-1 -7 -17 -27 -36 -44 -19 -18 -35 -37 -35 -43 0 -6 19
8 41 31 23 23 39 47 36 54 -4 10 -6 10 -6 2z"/>
<path d="M4978 4603 c29 -2 74 -2 100 0 26 2 2 3 -53 3 -55 0 -76 -1 -47 -3z"/>
<path d="M3885 4557 c-23 -48 -77 -141 -95 -163 -14 -16 -5 -33 9 -18 8 8 61
104 98 177 8 15 13 31 11 37 -2 5 -12 -10 -23 -33z"/>
<path d="M4164 4563 c-15 -21 -39 -53 -52 -72 -17 -22 -27 -29 -32 -21 -5 8
-10 9 -14 2 -3 -6 -2 -12 3 -14 12 -4 -105 -164 -118 -161 -5 1 -8 -5 -7 -15
0 -9 -5 -16 -12 -14 -8 1 -11 -2 -7 -7 3 -6 -7 -34 -22 -63 -15 -29 -28 -59
-29 -67 -2 -7 -7 -18 -13 -24 -6 -6 -11 -16 -11 -21 0 -14 31 31 34 48 1 7 9
25 19 39 9 15 17 29 17 32 0 11 133 199 155 220 23 23 129 175 121 175 -3 0
-17 -17 -32 -37z"/>
<path d="M2354 4470 c0 -63 1 -89 3 -57 2 31 2 83 0 115 -2 31 -3 5 -3 -58z"/>
<path d="M2940 4556 c0 -31 6 -34 13 -6 3 11 1 23 -4 26 -5 3 -9 -6 -9 -20z"/>
<path d="M3201 4544 c-32 -121 -40 -158 -36 -162 2 -2 7 9 11 24 3 16 15 60
26 97 11 37 18 71 15 74 -3 3 -10 -12 -16 -33z"/>
<path d="M4340 4555 c-13 -14 -22 -27 -19 -29 2 -2 14 10 27 25 29 36 24 38
-8 4z"/>
<path d="M4710 4545 c-18 -19 -32 -36 -29 -38 2 -2 19 14 38 35 42 48 36 50
-9 3z"/>
<path d="M2209 4565 c-3 -32 0 -138 5 -142 3 -4 6 28 6 70 0 43 -2 77 -5 77
-3 0 -5 -2 -6 -5z"/>
<path d="M3393 4538 c-15 -40 -16 -65 -2 -29 7 17 15 22 29 18 11 -3 23 -1 26
4 3 5 -4 9 -15 9 -11 0 -21 7 -23 16 -2 11 -8 4 -15 -18z"/>
<path d="M526 4541 c10 -10 21 -14 23 -8 4 10 -17 27 -33 27 -5 0 -1 -8 10
-19z"/>
<path d="M1501 4544 c0 -11 3 -14 6 -6 3 7 2 16 -1 19 -3 4 -6 -2 -5 -13z"/>
<path d="M2059 4553 c-1 -4 0 -16 1 -27 1 -10 -4 -23 -12 -27 -10 -7 -9 -9 3
-9 18 0 33 57 17 66 -4 3 -9 2 -9 -3z"/>
<path d="M3145 4530 c-4 -17 -5 -34 -2 -36 2 -3 7 10 11 27 8 42 0 50 -9 9z"/>
<path d="M595 4540 c-3 -5 -1 -10 4 -10 6 0 11 5 11 10 0 6 -2 10 -4 10 -3 0
-8 -4 -11 -10z"/>
<path d="M1095 4539 c-9 -14 -2 -20 14 -10 8 6 9 11 3 15 -6 3 -14 1 -17 -5z"/>
<path d="M1186 4542 c-3 -6 1 -13 10 -16 23 -9 28 -2 10 13 -8 7 -17 8 -20 3z"/>
<path d="M1236 4542 c-3 -6 -1 -14 5 -17 14 -9 20 -2 10 14 -6 8 -11 9 -15 3z"/>
<path d="M1390 4545 c0 -18 19 -40 26 -32 4 4 0 15 -9 24 -9 10 -17 13 -17 8z"/>
<path d="M1437 4542 c-3 -4 3 -13 14 -20 10 -7 19 -8 19 -3 0 13 -28 33 -33
23z"/>
<path d="M1530 4542 c0 -12 19 -26 26 -19 2 2 -2 10 -11 17 -9 8 -15 8 -15 2z"/>
<path d="M1710 4540 c0 -5 5 -10 10 -10 6 0 10 5 10 10 0 6 -4 10 -10 10 -5 0
-10 -4 -10 -10z"/>
<path d="M1750 4540 c0 -5 7 -10 15 -10 8 0 15 -4 15 -10 0 -5 5 -10 12 -10 6
0 3 9 -7 20 -20 22 -35 26 -35 10z"/>
<path d="M1884 4539 c-3 -5 9 -9 25 -9 17 0 31 2 31 4 0 8 -51 13 -56 5z"/>
<path d="M1964 4538 c-3 -4 4 -8 15 -8 12 0 21 4 21 8 0 5 -7 9 -15 9 -9 0
-18 -4 -21 -9z"/>
<path d="M2128 4543 c6 -2 18 -2 25 0 6 3 1 5 -13 5 -14 0 -19 -2 -12 -5z"/>
<path d="M3093 4528 c-1 -13 -5 -34 -8 -48 -4 -16 -3 -21 3 -15 12 13 23 85
13 85 -3 0 -8 -10 -8 -22z"/>
<path d="M3466 4541 c-4 -7 -5 -15 -2 -18 9 -9 19 4 14 18 -4 11 -6 11 -12 0z"/>
<path d="M3537 4544 c-4 -4 -4 -10 -1 -15 6 -10 34 0 34 12 0 10 -24 12 -33 3z"/>
<path d="M3597 4543 c-12 -12 -7 -22 8 -17 8 4 15 10 15 15 0 11 -14 12 -23 2z"/>
<path d="M3642 4541 c-11 -7 -11 -9 1 -14 9 -3 18 1 21 9 6 16 -2 18 -22 5z"/>
<path d="M3696 4540 c-17 -6 -18 -7 -3 -13 9 -3 19 -2 23 4 9 15 2 18 -20 9z"/>
<path d="M640 4530 c-12 -7 -10 -9 8 -7 12 0 22 5 22 9 0 11 -12 10 -30 -2z"/>
<path d="M705 4530 l-30 -8 33 -1 c17 0 32 4 32 9 0 6 -1 9 -2 9 -2 -1 -16 -5
-33 -9z"/>
<path d="M781 4524 c0 -11 3 -14 6 -6 3 7 2 16 -1 19 -3 4 -6 -2 -5 -13z"/>
<path d="M820 4531 c0 -10 49 -11 55 -1 2 4 -9 7 -25 8 -17 0 -30 -3 -30 -7z"/>
<path d="M895 4530 c3 -5 8 -10 11 -10 2 0 4 5 4 10 0 6 -5 10 -11 10 -5 0 -7
-4 -4 -10z"/>
<path d="M981 4537 c2 -1 12 -9 22 -16 15 -12 17 -12 11 3 -3 9 -13 16 -22 16
-8 0 -13 -1 -11 -3z"/>
<path d="M1045 4530 c3 -5 1 -10 -6 -10 -7 0 -10 -2 -7 -5 7 -8 38 5 38 16 0
5 -7 9 -16 9 -8 0 -12 -4 -9 -10z"/>
<path d="M1140 4525 c7 -8 17 -15 22 -15 5 0 3 7 -6 15 -8 8 -18 15 -22 15 -3
0 -1 -7 6 -15z"/>
<path d="M1295 4530 c3 -5 11 -10 16 -10 6 0 7 5 4 10 -3 6 -11 10 -16 10 -6
0 -7 -4 -4 -10z"/>
<path d="M1330 4530 c0 -4 9 -10 20 -13 11 -3 20 -2 20 3 0 4 -9 10 -20 13
-11 3 -20 2 -20 -3z"/>
<path d="M1636 4532 c-2 -4 4 -13 14 -19 15 -10 17 -9 13 8 -5 20 -18 25 -27
11z"/>
<path d="M3256 4513 c-19 -95 -48 -276 -51 -318 -1 -27 -8 -51 -14 -53 -6 -2
-11 -10 -11 -18 0 -7 -16 -55 -36 -106 -19 -51 -47 -122 -60 -158 -14 -36 -35
-94 -46 -129 -15 -46 -23 -60 -30 -50 -8 11 -9 10 -4 -3 5 -16 -32 -121 -74
-213 -37 -80 -60 -137 -60 -148 1 -14 66 118 105 213 15 36 33 79 40 95 7 17
29 73 48 125 20 52 61 160 92 239 48 122 59 160 68 250 11 96 12 101 17 56 5
-47 6 -44 14 40 9 104 21 173 30 182 4 4 22 6 41 5 18 -1 36 2 40 8 4 6 -14
10 -49 10 -51 0 -55 -2 -60 -27z"/>
<path d="M3815 4530 c4 -6 11 -8 16 -5 14 9 11 15 -7 15 -8 0 -12 -5 -9 -10z"/>
<path d="M920 4520 c0 -5 5 -10 10 -10 6 0 10 5 10 10 0 6 -4 10 -10 10 -5 0
-10 -4 -10 -10z"/>
<path d="M2152 4510 c0 -14 2 -19 5 -12 2 6 2 18 0 25 -3 6 -5 1 -5 -13z"/>
<path d="M2544 4265 c0 -148 2 -211 3 -138 2 72 2 194 0 270 -1 76 -3 17 -3
-132z"/>
<path d="M2782 4500 c0 -19 2 -27 5 -17 2 9 2 25 0 35 -3 9 -5 1 -5 -18z"/>
<path d="M4968 4523 c28 -2 76 -2 105 0 28 2 5 3 -53 3 -58 0 -81 -1 -52 -3z"/>
<path d="M2930 4508 c0 -9 -3 -23 -6 -32 -3 -9 -2 -16 4 -16 14 0 23 43 12 54
-7 7 -10 4 -10 -6z"/>
<path d="M4264 4468 c-21 -29 -42 -54 -46 -56 -5 -2 -8 -9 -8 -16 0 -6 -13
-26 -30 -44 -16 -18 -30 -38 -30 -43 0 -6 -4 -8 -9 -4 -5 3 -12 -4 -16 -15 -4
-11 -10 -18 -15 -15 -5 3 -16 -8 -25 -25 -9 -17 -20 -28 -24 -25 -5 2 -15 -3
-22 -12 -10 -12 -10 -14 -1 -9 24 14 12 -5 -30 -48 -24 -24 -53 -57 -66 -75
-13 -17 -28 -28 -34 -25 -7 5 -8 2 -3 -6 4 -7 4 -15 -1 -19 -20 -14 -106 -122
-101 -127 4 -4 25 18 83 91 13 16 15 17 10 3 -8 -27 2 -21 18 10 8 15 24 38
36 52 12 14 36 42 53 64 18 21 47 56 65 78 17 22 32 46 32 55 0 8 4 12 9 9 10
-7 68 55 107 113 14 23 31 38 37 34 6 -3 7 -1 3 6 -4 6 6 29 25 52 17 22 29
42 26 45 -2 3 -22 -19 -43 -48z"/>
<path d="M4902 4500 c0 -14 2 -19 5 -12 2 6 2 18 0 25 -3 6 -5 1 -5 -13z"/>
<path d="M4355 4499 c-11 -6 -29 -22 -39 -37 -19 -27 -19 -27 15 3 19 16 38
33 44 37 12 10 5 9 -20 -3z"/>
<path d="M4663 4393 c-127 -136 -168 -183 -158 -183 4 0 -75 -83 -176 -185
-101 -101 -185 -189 -187 -195 -2 -5 -7 -8 -11 -5 -5 2 -17 -2 -27 -10 -18
-15 -18 -15 1 -8 19 6 19 5 4 -13 -34 -41 -29 -47 8 -9 21 22 39 42 39 45 0 3
89 95 199 205 109 110 192 194 185 188 -8 -7 -18 -13 -24 -13 -5 0 17 28 50
63 32 34 77 83 98 107 22 25 57 64 80 88 22 23 38 42 34 42 -3 0 -55 -53 -115
-117z"/>
<path d="M1984 4470 c1 -39 16 -39 16 0 0 17 -4 30 -9 30 -4 0 -8 -13 -7 -30z"/>
<path d="M4790 4485 c-7 -9 -11 -17 -9 -20 3 -2 10 5 17 15 14 24 10 26 -8 5z"/>
<path d="M586 4477 c3 -10 9 -15 12 -12 3 3 0 11 -7 18 -10 9 -11 8 -5 -6z"/>
<path d="M1540 4483 c13 -3 30 -12 37 -21 7 -10 13 -12 13 -6 0 18 -23 34 -49
33 l-26 -2 25 -4z"/>
<path d="M1635 4480 c-8 -13 5 -13 25 0 13 8 13 10 -2 10 -9 0 -20 -4 -23 -10z"/>
<path d="M1908 4483 c6 -2 18 -2 25 0 6 3 1 5 -13 5 -14 0 -19 -2 -12 -5z"/>
<path d="M3310 4465 c-5 -13 -18 -72 -30 -131 -11 -58 -24 -111 -28 -118 -9
-15 -9 -595 1 -589 4 2 7 34 7 71 0 37 4 72 8 79 4 6 4 80 -1 165 -10 187 2
285 49 426 19 56 34 104 34 106 0 2 -7 7 -15 10 -10 4 -19 -3 -25 -19z m17
-17 c-3 -8 -6 -5 -6 6 -1 11 2 17 5 13 3 -3 4 -12 1 -19z m-10 -40 c-3 -8 -6
-5 -6 6 -1 11 2 17 5 13 3 -3 4 -12 1 -19z"/>
<path d="M3795 4480 c-3 -5 -2 -10 4 -10 5 0 13 5 16 10 3 6 2 10 -4 10 -5 0
-13 -4 -16 -10z"/>
<path d="M4870 4480 c-8 -5 -11 -12 -7 -16 4 -4 13 -2 19 4 15 15 7 24 -12 12z"/>
<path d="M772 4469 c2 -7 12 -13 21 -15 23 -3 21 3 -4 17 -17 8 -20 8 -17 -2z"/>
<path d="M974 4469 c-3 -5 -1 -9 5 -9 5 0 16 -3 25 -6 9 -3 16 -2 16 4 0 13
-38 23 -46 11z"/>
<path d="M1091 4466 c-6 -8 2 -11 25 -12 19 0 33 4 31 9 -4 14 -45 16 -56 3z"/>
<path d="M1180 4469 c0 -15 18 -19 23 -6 3 8 -1 14 -9 14 -8 0 -14 -4 -14 -8z"/>
<path d="M1242 4462 c8 -9 13 -10 18 -2 5 7 11 6 20 -5 7 -8 17 -15 23 -15 5
0 2 9 -8 20 -20 22 -72 25 -53 2z"/>
<path d="M1417 4473 c-2 -4 4 -16 15 -25 13 -14 18 -15 18 -4 0 16 -26 40 -33
29z"/>
<path d="M2057 4460 c-3 -11 -1 -23 4 -26 5 -3 9 6 9 20 0 31 -6 34 -13 6z"/>
<path d="M2152 4455 c0 -16 2 -22 5 -12 2 9 2 23 0 30 -3 6 -5 -1 -5 -18z"/>
<path d="M3126 4454 c-4 -14 -5 -28 -3 -31 3 -2 8 8 11 23 4 14 5 28 3 31 -3
2 -8 -8 -11 -23z"/>
<path d="M3503 4472 c-6 -4 -13 -18 -16 -32 -2 -14 -2 -19 0 -12 3 6 9 12 14
12 6 0 7 5 4 10 -3 6 1 10 9 10 9 0 16 5 16 10 0 12 -10 13 -27 2z"/>
<path d="M3580 4470 c-8 -5 -12 -11 -9 -14 2 -3 11 -1 19 4 8 5 12 11 9 14 -2
3 -11 1 -19 -4z"/>
<path d="M3629 4478 c0 -2 -2 -11 -4 -21 -3 -15 -1 -16 11 -6 16 13 19 29 4
29 -5 0 -10 -1 -11 -2z"/>
<path d="M3693 4473 c-7 -3 -13 -12 -13 -21 0 -15 2 -15 17 1 18 18 16 27 -4
20z"/>
<path d="M4634 4458 l-19 -23 23 19 c21 18 27 26 19 26 -2 0 -12 -10 -23 -22z"/>
<path d="M636 4461 c-6 -9 111 -7 120 2 4 4 -21 6 -55 6 -33 -1 -63 -4 -65 -8z"/>
<path d="M842 4459 c17 -11 79 -11 96 0 8 5 -12 8 -48 8 -37 0 -56 -3 -48 -8z"/>
<path d="M1040 4460 c0 -5 4 -10 9 -10 6 0 13 5 16 10 3 6 -1 10 -9 10 -9 0
-16 -4 -16 -10z"/>
<path d="M1360 4462 c0 -5 7 -15 15 -22 8 -7 15 -8 15 -2 0 5 -7 15 -15 22 -8
7 -15 8 -15 2z"/>
<path d="M1480 4461 c0 -5 7 -12 16 -15 24 -9 28 -7 14 9 -14 17 -30 20 -30 6z"/>
<path d="M1710 4461 c-58 -5 -63 -7 -43 -18 15 -9 22 -10 25 -2 2 7 19 -22 37
-62 18 -41 44 -96 56 -124 13 -27 49 -117 81 -200 31 -82 61 -154 66 -159 18
-21 6 19 -41 142 -27 70 -59 155 -71 190 -13 35 -26 58 -30 52 -4 -6 -10 4
-13 22 -4 27 -27 88 -53 139 -2 4 7 7 20 7 20 0 26 -8 36 -44 7 -24 17 -44 21
-44 11 0 11 0 -5 46 -7 22 -11 45 -9 52 3 6 1 11 -4 10 -4 -1 -37 -4 -73 -7z"/>
<path d="M3031 4454 c0 -11 3 -14 6 -6 3 7 2 16 -1 19 -3 4 -6 -2 -5 -13z"/>
<path d="M3395 4460 c-4 -6 5 -10 19 -10 14 0 26 5 26 10 0 6 -9 10 -19 10
-11 0 -23 -4 -26 -10z"/>
<path d="M3730 4455 c0 -8 2 -15 4 -15 2 0 6 7 10 15 3 8 1 15 -4 15 -6 0 -10
-7 -10 -15z"/>
<path d="M4405 4444 c-9 -14 -38 -48 -63 -74 -104 -108 -132 -140 -217 -245
-49 -60 -108 -132 -132 -160 -24 -27 -43 -54 -43 -60 0 -13 80 80 168 194 40
53 119 146 176 206 94 101 146 165 133 165 -2 0 -12 -12 -22 -26z"/>
<path d="M1910 4450 c0 -5 7 -7 15 -4 8 4 15 8 15 10 0 2 -7 4 -15 4 -8 0 -15
-4 -15 -10z"/>
<path d="M3786 4443 c-6 -14 -5 -15 5 -6 7 7 10 15 7 18 -3 3 -9 -2 -12 -12z"/>
<path d="M4751 4443 c-7 -8 -11 -16 -8 -19 2 -2 10 2 17 11 17 20 9 27 -9 8z"/>
<path d="M4899 4433 c-1 -16 -1 -53 0 -83 0 -46 -4 -59 -27 -83 l-27 -29 32
18 32 19 0 92 c0 51 -2 93 -4 93 -3 0 -5 -12 -6 -27z"/>
<path d="M4958 4453 c23 -2 61 -2 85 0 23 2 4 4 -43 4 -47 0 -66 -2 -42 -4z"/>
<path d="M605 4440 c-3 -5 -1 -10 4 -10 6 0 11 5 11 10 0 6 -2 10 -4 10 -3 0
-8 -4 -11 -10z"/>
<path d="M2907 4387 c-4 -34 -9 -80 -12 -102 -5 -37 -4 -38 5 -10 14 41 28
165 20 170 -4 3 -10 -24 -13 -58z"/>
<path d="M3076 4435 c-3 -8 -1 -15 4 -15 6 0 10 7 10 15 0 8 -2 15 -4 15 -2 0
-6 -7 -10 -15z"/>
<path d="M2773 4395 c0 -27 2 -38 4 -22 2 15 2 37 0 50 -2 12 -4 0 -4 -28z"/>
<path d="M1570 4420 c0 -5 7 -10 16 -10 8 0 12 5 9 10 -3 6 -10 10 -16 10 -5
0 -9 -4 -9 -10z"/>
<path d="M1910 4420 c0 -5 5 -10 10 -10 6 0 10 5 10 10 0 6 -4 10 -10 10 -5 0
-10 -4 -10 -10z"/>
<path d="M1989 4430 c0 -3 -2 -12 -4 -21 -5 -25 11 -45 17 -21 3 11 2 26 -3
33 -5 8 -9 12 -10 9z"/>
<path d="M2120 4414 c0 -8 5 -12 10 -9 6 4 8 11 5 16 -9 14 -15 11 -15 -7z"/>
<path d="M4271 4407 c-13 -21 -12 -21 5 -5 10 10 16 20 13 22 -3 3 -11 -5 -18
-17z"/>
<path d="M4550 4405 c-13 -14 -19 -25 -14 -25 8 1 50 50 41 50 -2 0 -14 -11
-27 -25z"/>
<path d="M4590 4415 c-7 -9 -8 -15 -2 -15 5 0 12 7 16 15 3 8 4 15 2 15 -2 0
-9 -7 -16 -15z"/>
<path d="M660 4410 c0 -5 5 -10 10 -10 6 0 10 5 10 10 0 6 -4 10 -10 10 -5 0
-10 -4 -10 -10z"/>
<path d="M2055 4410 c-3 -5 -2 -17 3 -26 8 -14 10 -12 10 9 0 29 -3 33 -13 17z"/>
<path d="M3758 4389 c-9 -16 -14 -29 -9 -29 8 0 34 50 29 56 -2 1 -11 -11 -20
-27z"/>
<path d="M899 4399 c-10 -6 -4 -9 19 -9 17 0 32 2 32 4 0 9 -39 13 -51 5z"/>
<path d="M970 4400 c-12 -8 -10 -10 8 -10 13 0 20 4 17 10 -7 12 -6 12 -25 0z"/>
<path d="M1050 4405 c0 -9 38 -43 43 -38 6 6 -24 43 -35 43 -5 0 -8 -2 -8 -5z"/>
<path d="M1100 4401 c0 -17 18 -21 24 -6 3 9 0 15 -9 15 -8 0 -15 -4 -15 -9z"/>
<path d="M1150 4405 c0 -2 10 -10 23 -16 20 -11 21 -11 8 4 -13 16 -31 23 -31
12z"/>
<path d="M1222 4394 c13 -13 20 -14 34 -4 17 10 17 11 2 6 -10 -3 -18 -1 -18
4 0 6 -8 10 -17 10 -16 0 -16 -1 -1 -16z"/>
<path d="M1280 4400 c0 -5 5 -10 11 -10 5 0 7 5 4 10 -3 6 -8 10 -11 10 -2 0
-4 -4 -4 -10z"/>
<path d="M1497 4403 c-11 -17 13 -28 26 -13 9 10 9 11 0 6 -6 -3 -13 -1 -15 6
-3 9 -6 9 -11 1z"/>
<path d="M1550 4400 c0 -5 5 -10 11 -10 5 0 7 5 4 10 -3 6 -8 10 -11 10 -2 0
-4 -4 -4 -10z"/>
<path d="M2863 4375 c0 -22 2 -30 4 -17 2 12 2 30 0 40 -3 9 -5 -1 -4 -23z"/>
<path d="M3107 4391 c-4 -17 -3 -21 5 -13 5 5 8 16 6 23 -3 8 -7 3 -11 -10z"/>
<path d="M720 4389 c0 -7 18 -9 51 -6 69 7 71 14 4 16 -33 0 -55 -3 -55 -10z"/>
<path d="M850 4391 c0 -5 7 -12 16 -15 24 -9 27 -7 10 9 -17 17 -26 19 -26 6z"/>
<path d="M1010 4394 c0 -9 53 -54 58 -50 4 4 -46 56 -53 56 -3 0 -5 -3 -5 -6z"/>
<path d="M1340 4396 c0 -2 7 -9 15 -16 13 -11 14 -10 9 4 -5 14 -24 23 -24 12z"/>
<path d="M1385 4385 c12 -10 21 -12 23 -5 2 5 9 7 15 3 7 -3 8 -2 4 2 -4 5
-20 10 -35 12 -26 3 -26 3 -7 -12z"/>
<path d="M1450 4391 c0 -5 7 -15 17 -22 15 -13 15 -12 4 9 -12 23 -21 28 -21
13z"/>
<path d="M1910 4389 c0 -11 27 -12 34 -1 2 4 -4 9 -15 9 -10 1 -19 -2 -19 -8z"/>
<path d="M3065 4390 c-3 -5 -1 -10 4 -10 6 0 11 5 11 10 0 6 -2 10 -4 10 -3 0
-8 -4 -11 -10z"/>
<path d="M3387 4388 c-15 -11 -12 -13 23 -16 25 -1 40 2 40 9 0 6 -6 9 -14 6
-7 -3 -18 -1 -23 4 -5 5 -16 4 -26 -3z"/>
<path d="M3470 4390 c-8 -5 -11 -12 -7 -16 4 -4 13 -2 19 4 15 15 7 24 -12 12z"/>
<path d="M3540 4386 c0 -8 -14 -46 -31 -86 -17 -40 -29 -74 -27 -76 2 -2 19
31 37 74 45 105 45 102 32 102 -6 0 -11 -6 -11 -14z"/>
<path d="M3585 4390 c-15 -6 -10 -8 18 -8 20 0 37 1 37 3 0 8 -38 11 -55 5z"/>
<path d="M3662 4391 c-11 -7 -10 -10 3 -15 22 -8 22 -8 22 9 0 17 -6 18 -25 6z"/>
<path d="M4692 4380 c-12 -12 -22 -24 -22 -27 0 -4 11 4 25 17 23 22 29 30 22
30 -2 0 -13 -9 -25 -20z"/>
<path d="M4816 4384 c-5 -14 -4 -15 9 -4 17 14 19 20 6 20 -5 0 -12 -7 -15
-16z"/>
<path d="M4933 4394 c7 -7 179 -5 186 2 2 2 -40 4 -94 4 -54 0 -95 -3 -92 -6z"/>
<path d="M734 4338 c28 -29 102 -106 164 -172 62 -65 115 -117 117 -115 6 7
-312 339 -325 339 -4 0 16 -24 44 -52z"/>
<path d="M4559 4373 c-13 -16 -12 -17 4 -4 16 13 21 21 13 21 -2 0 -10 -8 -17
-17z"/>
<path d="M1130 4374 c0 -6 5 -15 12 -22 8 -8 8 -15 0 -25 -9 -10 -6 -13 15
-12 15 0 27 6 29 13 1 7 0 8 -3 2 -7 -14 -23 -13 -23 3 -1 14 -30 55 -30 41z"/>
<path d="M1568 4368 c5 -7 47 -86 92 -175 45 -90 84 -163 87 -163 2 0 3 3 1 8
-68 143 -173 342 -180 342 -7 0 -7 -4 0 -12z"/>
<path d="M2202 4350 c0 -19 2 -27 5 -17 2 9 2 25 0 35 -3 9 -5 1 -5 -18z"/>
<path d="M795 4360 c3 -5 8 -10 11 -10 2 0 4 5 4 10 0 6 -5 10 -11 10 -5 0 -7
-4 -4 -10z"/>
<path d="M1510 4360 c0 -5 5 -10 11 -10 5 0 7 5 4 10 -3 6 -8 10 -11 10 -2 0
-4 -4 -4 -10z"/>
<path d="M1921 4345 c0 -16 3 -37 9 -45 15 -24 17 -7 4 35 -12 38 -12 38 -13
10z"/>
<path d="M3120 4310 c-7 -33 -11 -63 -8 -65 3 -3 11 22 18 55 7 33 11 63 8 65
-3 3 -11 -22 -18 -55z"/>
<path d="M1245 4350 c3 -5 8 -10 11 -10 2 0 4 5 4 10 0 6 -5 10 -11 10 -5 0
-7 -4 -4 -10z"/>
<path d="M1821 4344 c-1 -12 6 -39 15 -60 9 -22 40 -108 69 -193 29 -85 55
-148 58 -140 3 8 6 2 6 -13 1 -15 6 -30 11 -33 15 -9 12 37 -4 60 -7 11 -32
72 -56 135 -23 63 -52 142 -65 175 -12 33 -25 67 -28 75 -4 10 -6 8 -6 -6z"/>
<path d="M2050 4345 c0 -8 5 -15 10 -15 6 0 10 7 10 15 0 8 -4 15 -10 15 -5 0
-10 -7 -10 -15z"/>
<path d="M3171 4344 c0 -11 3 -14 6 -6 3 7 2 16 -1 19 -3 4 -6 -2 -5 -13z"/>
<path d="M4380 4350 c0 -4 9 -10 20 -13 11 -3 20 -2 20 3 0 4 -9 10 -20 13
-11 3 -20 2 -20 -3z"/>
<path d="M4433 4263 c-45 -54 -142 -159 -217 -233 -74 -74 -133 -137 -130
-139 7 -8 299 294 362 373 75 96 75 96 71 96 -3 0 -41 -44 -86 -97z"/>
<path d="M4668 4248 c-59 -61 -108 -113 -108 -115 0 -10 31 17 90 81 36 38 82
87 104 108 21 21 35 38 30 38 -4 0 -57 -50 -116 -112z"/>
<path d="M510 4340 c0 -5 4 -10 9 -10 6 0 13 5 16 10 3 6 -1 10 -9 10 -9 0
-16 -4 -16 -10z"/>
<path d="M896 4342 c-2 -4 4 -8 14 -8 10 0 16 4 14 8 -3 4 -9 8 -14 8 -5 0
-11 -4 -14 -8z"/>
<path d="M1410 4341 c0 -8 11 -29 25 -47 14 -18 25 -35 25 -38 0 -8 47 -78 64
-96 8 -8 33 -49 56 -90 23 -41 38 -65 35 -52 -10 34 4 26 21 -13 19 -47 18
-51 -8 -29 -23 19 -23 19 -5 -2 15 -19 48 -29 46 -15 0 3 -11 26 -24 51 -13
25 -29 56 -35 70 -32 69 -44 90 -48 85 -3 -2 3 -16 12 -29 9 -14 16 -33 15
-43 0 -15 -2 -15 -7 -3 -10 22 -44 72 -64 94 -10 11 -18 26 -18 33 0 7 -4 13
-10 13 -5 0 -10 4 -10 9 0 5 -16 33 -35 62 -19 30 -35 47 -35 40z m200 -296
c0 -5 -5 -3 -10 5 -5 8 -10 20 -10 25 0 6 5 3 10 -5 5 -8 10 -19 10 -25z"/>
<path d="M1687 4329 c4 -13 8 -18 11 -10 2 7 -1 18 -6 23 -8 8 -9 4 -5 -13z"/>
<path d="M2364 4230 c0 -69 1 -97 3 -62 2 34 2 90 0 125 -2 34 -3 6 -3 -63z"/>
<path d="M3452 4338 c-7 -7 -12 -21 -11 -32 0 -15 2 -16 6 -6 3 8 12 20 20 27
8 6 10 14 5 17 -5 3 -14 0 -20 -6z"/>
<path d="M3676 4324 c-4 -14 -5 -28 -3 -31 3 -2 8 8 11 23 4 14 5 28 3 31 -3
2 -8 -8 -11 -23z"/>
<path d="M4220 4339 c0 -5 5 -7 10 -4 6 3 10 8 10 11 0 2 -4 4 -10 4 -5 0 -10
-5 -10 -11z"/>
<path d="M860 4330 c-8 -5 -12 -12 -9 -15 4 -3 12 1 19 10 14 17 11 19 -10 5z"/>
<path d="M1290 4329 c0 -5 4 -9 9 -9 5 0 17 -3 27 -7 12 -4 15 -3 10 5 -4 7
-5 12 -1 12 10 0 68 -70 113 -139 64 -97 83 -110 23 -16 -71 111 -116 159
-152 161 -16 1 -29 -2 -29 -7z"/>
<path d="M1530 4335 c0 -10 40 -75 47 -75 2 0 -6 17 -18 38 -28 45 -29 47 -29
37z"/>
<path d="M1990 4324 c0 -8 5 -12 10 -9 6 4 8 11 5 16 -9 14 -15 11 -15 -7z"/>
<path d="M2253 4300 c0 -25 2 -35 4 -22 2 12 2 32 0 45 -2 12 -4 2 -4 -23z"/>
<path d="M3000 4329 c0 -5 5 -7 10 -4 6 3 10 8 10 11 0 2 -4 4 -10 4 -5 0 -10
-5 -10 -11z"/>
<path d="M3360 4320 c-9 -16 -8 -20 6 -20 10 0 14 3 11 7 -4 3 -2 12 4 20 8 9
8 13 1 13 -6 0 -16 -9 -22 -20z"/>
<path d="M3720 4307 c-43 -53 -159 -254 -139 -241 5 3 20 27 34 53 13 26 49
85 79 131 59 87 68 109 26 57z"/>
<path d="M4639 4323 c-13 -16 -12 -17 4 -4 16 13 21 21 13 21 -2 0 -10 -8 -17
-17z"/>
<path d="M4923 4334 c7 -7 189 -5 196 2 2 2 -42 4 -99 4 -57 0 -100 -3 -97 -6z"/>
<path d="M815 4320 c4 -6 11 -8 16 -5 14 9 11 15 -7 15 -8 0 -12 -5 -9 -10z"/>
<path d="M960 4311 c30 -24 42 -27 34 -6 -4 8 -10 15 -14 15 -5 0 -17 3 -27 6
-13 4 -11 0 7 -15z"/>
<path d="M1226 4318 c3 -5 9 -7 12 -4 3 3 11 1 19 -5 9 -9 13 -8 13 0 0 6 -3
11 -7 12 -5 0 -16 2 -26 4 -9 2 -14 -1 -11 -7z"/>
<path d="M1008 4313 c7 -3 16 -2 19 1 4 3 -2 6 -13 5 -11 0 -14 -3 -6 -6z"/>
<path d="M1055 4310 c3 -5 11 -10 16 -10 6 0 7 5 4 10 -3 6 -11 10 -16 10 -6
0 -7 -4 -4 -10z"/>
<path d="M1201 4304 c0 -11 3 -14 6 -6 3 7 2 16 -1 19 -3 4 -6 -2 -5 -13z"/>
<path d="M1490 4313 c0 -4 11 -21 25 -38 l25 -30 -16 32 c-15 32 -34 52 -34
36z"/>
<path d="M2763 4270 c0 -30 2 -43 4 -27 2 15 2 39 0 55 -2 15 -4 2 -4 -28z"/>
<path d="M4331 4297 c-13 -21 -12 -21 5 -5 10 10 16 20 13 22 -3 3 -11 -5 -18
-17z"/>
<path d="M3161 4294 c0 -11 3 -14 6 -6 3 7 2 16 -1 19 -3 4 -6 -2 -5 -13z"/>
<path d="M3600 4295 c0 -9 -7 -18 -16 -22 -10 -3 -12 -8 -5 -12 7 -5 6 -16 -4
-35 -18 -33 -18 -36 -5 -36 5 0 15 20 21 45 6 25 15 48 20 51 12 7 11 24 -1
24 -5 0 -10 -7 -10 -15z"/>
<path d="M3850 4290 c-6 -11 -8 -20 -6 -20 3 0 10 9 16 20 6 11 8 20 6 20 -3
0 -10 -9 -16 -20z"/>
<path d="M4779 4293 c-13 -16 -12 -17 4 -4 9 7 17 15 17 17 0 8 -8 3 -21 -13z"/>
<path d="M1280 4293 c0 -5 15 -22 33 -39 17 -17 47 -57 66 -88 19 -31 36 -55
38 -52 4 3 -35 76 -47 86 -3 3 -16 21 -29 41 -24 36 -61 67 -61 52z"/>
<path d="M1700 4294 c0 -4 11 -27 24 -53 13 -25 36 -72 50 -103 14 -32 27 -58
31 -58 7 0 -10 40 -60 143 -34 70 -45 88 -45 71z"/>
<path d="M2853 4260 c0 -25 2 -35 4 -22 2 12 2 32 0 45 -2 12 -4 2 -4 -23z"/>
<path d="M3540 4290 c0 -5 5 -10 10 -10 6 0 10 5 10 10 0 6 -4 10 -10 10 -5 0
-10 -4 -10 -10z"/>
<path d="M4593 4278 c-26 -30 -40 -53 -25 -44 12 7 56 66 49 66 -2 0 -13 -10
-24 -22z"/>
<path d="M1127 4259 c10 -21 20 -35 22 -33 2 2 10 -4 18 -14 13 -16 13 -15 4
3 -6 11 -22 34 -36 50 l-26 30 18 -36z"/>
<path d="M3000 4290 c-1 -3 -4 -16 -6 -30 -3 -18 -2 -22 7 -13 6 6 9 19 6 29
-3 11 -6 17 -7 14z"/>
<path d="M1220 4271 c0 -5 6 -14 13 -18 7 -4 24 -26 39 -48 52 -77 111 -160
118 -165 4 -3 25 -33 48 -67 38 -56 62 -83 62 -69 0 4 -22 35 -138 196 -18 25
-38 52 -45 60 -7 9 -27 36 -45 62 -34 49 -52 66 -52 49z"/>
<path d="M4290 4260 c-6 -11 -8 -20 -6 -20 3 0 10 9 16 20 6 11 8 20 6 20 -3
0 -10 -9 -16 -20z"/>
<path d="M4960 4270 c-19 -4 8 -5 60 -2 52 2 97 6 99 8 8 7 -123 2 -159 -6z"/>
<path d="M1010 4260 c0 -5 7 -10 16 -10 8 0 12 5 9 10 -3 6 -10 10 -16 10 -5
0 -9 -4 -9 -10z"/>
<path d="M2328 4135 c2 -77 7 -162 12 -190 4 -28 5 15 2 100 -2 83 -8 168 -12
190 -3 22 -5 -23 -2 -100z"/>
<path d="M915 4250 c3 -5 10 -10 16 -10 5 0 9 5 9 10 0 6 -7 10 -16 10 -8 0
-12 -4 -9 -10z"/>
<path d="M955 4250 c3 -5 8 -10 11 -10 2 0 4 5 4 10 0 6 -5 10 -11 10 -5 0 -7
-4 -4 -10z"/>
<path d="M3547 4253 c-4 -3 -7 -11 -7 -17 0 -6 5 -5 12 2 6 6 9 14 7 17 -3 3
-9 2 -12 -2z"/>
<path d="M4725 4250 c-3 -5 -1 -10 4 -10 6 0 11 5 11 10 0 6 -2 10 -4 10 -3 0
-8 -4 -11 -10z"/>
<path d="M4764 4238 l-19 -23 23 19 c12 11 22 21 22 23 0 8 -8 2 -26 -19z"/>
<path d="M4900 4242 c0 -11 -11 -24 -25 -30 -14 -6 -25 -17 -25 -23 0 -8 7 -6
18 4 10 10 24 17 30 17 7 0 12 11 12 25 0 14 -2 25 -5 25 -3 0 -5 -8 -5 -18z"/>
<path d="M3831 4137 c-41 -62 -92 -138 -114 -170 -21 -32 -37 -60 -35 -63 4
-3 63 81 103 147 6 8 36 55 68 103 32 48 57 89 55 91 -2 2 -37 -47 -77 -108z"/>
<path d="M4454 4228 l-19 -23 23 19 c12 11 22 21 22 23 0 8 -8 2 -26 -19z"/>
<path d="M945 4210 c10 -11 22 -20 27 -20 4 0 -1 9 -12 20 -11 11 -23 20 -27
20 -3 0 2 -9 12 -20z"/>
<path d="M1568 4188 c44 -66 88 -149 102 -193 16 -52 40 -98 47 -92 5 6 -8 37
-73 172 -52 109 -80 155 -94 155 -6 0 2 -19 18 -42z"/>
<path d="M2267 4115 c3 -66 10 -142 14 -170 5 -32 6 -6 2 70 -3 66 -9 143 -13
170 -5 31 -6 5 -3 -70z"/>
<path d="M4804 4208 l-19 -23 25 20 c14 11 27 21 29 22 2 2 0 3 -6 3 -5 0 -18
-10 -29 -22z"/>
<path d="M5008 4223 c6 -2 18 -2 25 0 6 3 1 5 -13 5 -14 0 -19 -2 -12 -5z"/>
<path d="M5080 4209 c-22 -18 -22 -19 -3 -10 12 6 25 16 28 21 9 15 3 12 -25
-11z"/>
<path d="M1076 4205 c4 -8 8 -15 10 -15 2 0 4 7 4 15 0 8 -4 15 -10 15 -5 0
-7 -7 -4 -15z"/>
<path d="M2871 4198 c-12 -32 -28 -123 -35 -203 l-5 -60 14 55 c8 30 14 69 15
87 0 17 5 35 10 38 6 4 10 14 8 23 -1 10 4 28 11 41 9 16 10 26 2 34 -7 7 -13
3 -20 -15z"/>
<path d="M3427 4148 c-17 -40 -53 -115 -79 -166 -26 -51 -48 -98 -48 -105 1
-6 9 4 19 23 9 19 36 71 58 115 45 86 95 205 87 205 -3 0 -19 -33 -37 -72z"/>
<path d="M4943 4213 c9 -2 25 -2 35 0 9 3 1 5 -18 5 -19 0 -27 -2 -17 -5z"/>
<path d="M1400 4201 c0 -6 4 -13 10 -16 6 -3 7 1 4 9 -7 18 -14 21 -14 7z"/>
<path d="M2211 4194 c0 -11 3 -14 6 -6 3 7 2 16 -1 19 -3 4 -6 -2 -5 -13z"/>
<path d="M3021 4194 c0 -11 3 -14 6 -6 3 7 2 16 -1 19 -3 4 -6 -2 -5 -13z"/>
<path d="M3510 4196 c0 -9 30 -14 35 -6 4 6 -3 10 -14 10 -12 0 -21 -2 -21 -4z"/>
<path d="M3766 4183 c-6 -14 -5 -15 5 -6 7 7 10 15 7 18 -3 3 -9 -2 -12 -12z"/>
<path d="M4220 4191 c0 -6 -30 -45 -67 -89 -104 -120 -123 -145 -118 -150 3
-3 6 -3 8 -1 2 2 45 55 95 117 83 102 103 132 87 132 -3 0 -5 -4 -5 -9z"/>
<path d="M4410 4175 c-13 -14 -22 -27 -19 -29 2 -2 14 10 27 25 29 36 24 38
-8 4z"/>
<path d="M1185 4180 c3 -5 8 -10 11 -10 2 0 4 5 4 10 0 6 -5 10 -11 10 -5 0
-7 -4 -4 -10z"/>
<path d="M4065 4162 c-32 -43 -65 -92 -65 -98 0 -9 23 18 59 69 35 51 40 74 6
29z"/>
<path d="M4659 4173 c-13 -16 -12 -17 4 -4 9 7 17 15 17 17 0 8 -8 3 -21 -13z"/>
<path d="M4699 4173 c-13 -16 -12 -17 4 -4 9 7 17 15 17 17 0 8 -8 3 -21 -13z"/>
<path d="M4900 4150 c0 -30 -6 -47 -23 -63 -13 -12 -16 -16 -7 -9 23 17 28 15
33 -10 2 -13 5 10 6 50 0 39 -1 72 -4 72 -3 0 -5 -18 -5 -40z"/>
<path d="M4973 4160 c-18 -11 -33 -22 -33 -25 0 -2 16 5 35 16 19 12 35 23 35
25 0 6 -3 5 -37 -16z"/>
<path d="M1010 4163 c0 -6 8 -17 18 -24 16 -13 16 -13 2 6 -8 11 -16 22 -17
24 -2 2 -3 0 -3 -6z"/>
<path d="M2925 4160 c-3 -5 -1 -10 4 -10 6 0 11 5 11 10 0 6 -2 10 -4 10 -3 0
-8 -4 -11 -10z"/>
<path d="M3011 4154 c0 -11 3 -14 6 -6 3 7 2 16 -1 19 -3 4 -6 -2 -5 -13z"/>
<path d="M3745 4089 c-27 -44 -67 -103 -87 -131 -21 -29 -38 -53 -38 -55 0
-15 30 24 98 125 97 145 95 142 85 142 -4 -1 -30 -37 -58 -81z"/>
<path d="M1240 4110 c24 -29 38 -54 34 -61 -4 -7 -3 -9 3 -6 13 8 51 -40 83
-103 13 -25 25 -39 28 -32 2 7 -2 21 -10 30 -8 9 -24 34 -36 54 -28 50 -123
168 -135 168 -5 0 10 -22 33 -50z"/>
<path d="M3698 4103 c-25 -32 -50 -69 -57 -83 l-12 -25 18 25 c10 14 37 49 61
78 24 30 42 56 39 58 -2 2 -24 -22 -49 -53z"/>
<path d="M4785 4140 c-16 -17 -16 -20 -3 -15 9 4 19 13 22 21 7 19 2 18 -19
-6z"/>
<path d="M4864 4146 c-10 -8 -16 -17 -13 -20 3 -3 14 3 24 14 21 23 17 26 -11
6z"/>
<path d="M1142 4130 c7 -11 17 -20 22 -20 5 0 1 9 -9 20 -10 11 -20 20 -22 20
-2 0 2 -9 9 -20z"/>
<path d="M1441 4123 c6 -15 16 -35 23 -43 7 -8 32 -47 55 -86 42 -72 100 -140
71 -84 -7 14 -42 66 -76 116 -35 51 -64 97 -64 102 0 6 -4 14 -10 17 -6 4 -6
-4 1 -22z"/>
<path d="M4714 4135 c-10 -8 -14 -15 -8 -15 6 0 17 7 24 15 16 19 9 19 -16 0z"/>
<path d="M2223 4090 c0 -30 2 -43 4 -27 2 15 2 39 0 55 -2 15 -4 2 -4 -28z"/>
<path d="M2921 4124 c0 -11 3 -14 6 -6 3 7 2 16 -1 19 -3 4 -6 -2 -5 -13z"/>
<path d="M3061 4109 c-6 -18 -11 -37 -10 -43 0 -6 7 7 15 28 8 22 12 41 10 43
-2 2 -9 -10 -15 -28z"/>
<path d="M4344 4108 l-29 -33 33 29 c17 17 32 31 32 33 0 8 -8 1 -36 -29z"/>
<path d="M4602 4110 c-13 -16 -21 -30 -19 -30 2 0 16 14 30 30 15 17 23 30 19
30 -5 0 -18 -13 -30 -30z"/>
<path d="M4980 4129 c0 -5 5 -7 10 -4 6 3 10 8 10 11 0 2 -4 4 -10 4 -5 0 -10
-5 -10 -11z"/>
<path d="M2162 4110 c0 -14 2 -19 5 -12 2 6 2 18 0 25 -3 6 -5 1 -5 -13z"/>
<path d="M4504 4088 c-35 -37 -36 -39 -8 -20 35 24 59 50 52 57 -2 3 -22 -14
-44 -37z"/>
<path d="M705 4110 c3 -5 8 -10 11 -10 2 0 4 5 4 10 0 6 -5 10 -11 10 -5 0 -7
-4 -4 -10z"/>
<path d="M1100 4111 c0 -5 5 -13 10 -16 6 -3 10 -2 10 4 0 5 -4 13 -10 16 -5
3 -10 2 -10 -4z"/>
<path d="M3002 4100 c0 -14 2 -19 5 -12 2 6 2 18 0 25 -3 6 -5 1 -5 -13z"/>
<path d="M4939 4100 c-13 -10 -20 -19 -16 -20 4 0 17 9 29 20 28 26 17 26 -13
0z"/>
<path d="M860 4102 c0 -4 10 -13 23 -21 22 -14 22 -14 3 8 -20 22 -26 25 -26
13z"/>
<path d="M1055 4100 c3 -5 8 -10 11 -10 2 0 4 5 4 10 0 6 -5 10 -11 10 -5 0
-7 -4 -4 -10z"/>
<path d="M1422 4094 c8 -28 64 -133 71 -133 4 -1 -6 25 -22 57 -31 58 -55 96
-49 76z"/>
<path d="M2891 4010 c-13 -50 -21 -96 -19 -102 2 -6 14 33 26 87 12 54 20 100
18 102 -2 2 -13 -37 -25 -87z"/>
<path d="M4709 4073 l-24 -28 28 24 c25 23 32 31 24 31 -2 0 -14 -12 -28 -27z"/>
<path d="M442 4064 c10 -10 20 -15 24 -12 3 4 -5 12 -18 18 -22 12 -22 12 -6
-6z"/>
<path d="M2742 4050 c0 -19 2 -27 5 -17 2 9 2 25 0 35 -3 9 -5 1 -5 -18z"/>
<path d="M3215 3979 c-4 -56 -13 -120 -21 -142 -8 -22 -14 -47 -13 -56 1 -9
10 11 20 44 18 54 39 255 27 255 -3 0 -9 -46 -13 -101z"/>
<path d="M3809 4063 c-13 -16 -12 -17 4 -4 16 13 21 21 13 21 -2 0 -10 -8 -17
-17z"/>
<path d="M4619 4063 c-13 -16 -12 -17 4 -4 9 7 17 15 17 17 0 8 -8 3 -21 -13z"/>
<path d="M810 4065 c0 -2 10 -10 23 -16 20 -11 21 -11 8 4 -13 16 -31 23 -31
12z"/>
<path d="M1811 4065 c0 -5 6 -21 14 -35 8 -14 14 -20 14 -15 0 6 -6 21 -14 35
-8 14 -14 21 -14 15z"/>
<path d="M2091 4054 c0 -11 3 -14 6 -6 3 7 2 16 -1 19 -3 4 -6 -2 -5 -13z"/>
<path d="M2373 3990 c0 -47 2 -66 4 -42 2 23 2 61 0 85 -2 23 -4 4 -4 -43z"/>
<path d="M2961 4054 c0 -11 3 -14 6 -6 3 7 2 16 -1 19 -3 4 -6 -2 -5 -13z"/>
<path d="M5038 4018 c-40 -29 -90 -64 -111 -78 -20 -14 -37 -28 -37 -32 0 -5
-20 -8 -45 -8 -25 0 -45 -4 -45 -9 0 -5 19 -7 42 -3 30 4 63 21 117 62 42 31
95 69 119 84 37 23 51 36 38 36 -2 0 -37 -24 -78 -52z"/>
<path d="M3959 4034 c-5 -15 -12 -31 -15 -35 -3 -5 -3 -9 -1 -9 3 0 14 16 26
35 11 19 16 35 10 35 -5 0 -14 -12 -20 -26z"/>
<path d="M4519 4033 l-24 -28 30 25 c17 14 32 26 34 28 2 1 0 2 -6 2 -5 0 -20
-12 -34 -27z"/>
<path d="M1036 4042 c-7 -11 71 -88 81 -79 7 8 -46 78 -64 84 -6 2 -14 0 -17
-5z"/>
<path d="M1236 4037 c3 -10 9 -15 12 -12 3 3 0 11 -7 18 -10 9 -11 8 -5 -6z"/>
<path d="M1780 4047 c0 -9 59 -150 59 -142 1 12 -49 145 -55 145 -2 0 -4 -1
-4 -3z"/>
<path d="M3031 4019 c-6 -18 -11 -37 -10 -43 0 -6 7 7 15 28 8 22 12 41 10 43
-2 2 -9 -10 -15 -28z"/>
<path d="M4405 4009 c-55 -45 -89 -79 -84 -84 2 -1 36 26 74 61 79 72 84 83
10 23z"/>
<path d="M4729 4023 l-24 -28 28 24 c25 23 32 31 24 31 -2 0 -14 -12 -28 -27z"/>
<path d="M4757 3999 c-37 -29 -67 -56 -67 -60 0 -5 32 16 70 47 63 51 77 64
67 64 -2 0 -33 -23 -70 -51z"/>
<path d="M2172 4015 c0 -16 2 -22 5 -12 2 9 2 23 0 30 -3 6 -5 -1 -5 -18z"/>
<path d="M4250 4025 c-7 -9 -11 -18 -8 -20 3 -3 11 1 18 10 7 9 11 18 8 20 -3
3 -11 -1 -18 -10z"/>
<path d="M4563 4014 l-28 -25 33 22 c17 13 32 24 32 26 0 8 -11 1 -37 -23z"/>
<path d="M4869 4014 c-13 -14 -44 -38 -69 -52 -25 -14 -72 -47 -105 -72 -33
-26 -77 -56 -97 -69 -20 -12 -38 -25 -40 -30 -7 -19 -178 -147 -261 -195 -31
-19 -45 -32 -39 -38 11 -11 57 18 257 166 203 150 264 199 259 208 -3 4 1 6 8
3 14 -5 126 89 117 99 -3 3 -16 -6 -30 -20z m-179 -148 c0 -2 -8 -10 -17 -17
-16 -13 -17 -12 -4 4 13 16 21 21 21 13z"/>
<path d="M785 4020 c3 -5 11 -10 16 -10 6 0 7 5 4 10 -3 6 -11 10 -16 10 -6 0
-7 -4 -4 -10z"/>
<path d="M2231 3973 c-1 -35 3 -63 8 -63 4 0 6 24 4 53 -7 77 -11 81 -12 10z"/>
<path d="M1140 4005 c7 -9 15 -13 17 -11 7 7 -7 26 -19 26 -6 0 -6 -6 2 -15z"/>
<path d="M3774 3998 l-19 -23 23 19 c21 18 27 26 19 26 -2 0 -12 -10 -23 -22z"/>
<path d="M4593 3987 c-18 -12 -33 -26 -33 -30 0 -4 16 4 35 19 19 14 35 28 35
30 0 6 -2 5 -37 -19z"/>
<path d="M2940 3989 c0 -5 5 -7 10 -4 6 3 10 8 10 11 0 2 -4 4 -10 4 -5 0 -10
-5 -10 -11z"/>
<path d="M3391 3966 l-24 -31 28 27 c16 15 27 29 24 31 -2 3 -15 -10 -28 -27z"/>
<path d="M3495 3989 c-4 -6 -5 -12 -2 -15 2 -3 7 2 10 11 7 17 1 20 -8 4z"/>
<path d="M777 3979 c7 -7 15 -10 18 -7 3 3 -2 9 -12 12 -14 6 -15 5 -6 -5z"/>
<path d="M902 3974 c10 -10 20 -16 22 -13 3 3 -5 11 -17 18 -21 13 -21 12 -5
-5z"/>
<path d="M1180 3971 c5 -11 15 -23 21 -27 6 -3 3 5 -6 20 -20 30 -30 35 -15 7z"/>
<path d="M4495 3970 c-16 -17 -16 -20 -3 -15 9 4 19 13 22 21 7 19 2 18 -19
-6z"/>
<path d="M1396 3945 c16 -22 29 -42 31 -44 2 -2 3 0 3 5 0 5 -14 25 -31 44
l-30 35 27 -40z"/>
<path d="M1710 3975 c0 -5 9 -23 20 -40 11 -16 20 -25 20 -20 0 6 -9 24 -20
40 -11 17 -20 26 -20 20z"/>
<path d="M2111 3964 c0 -11 3 -14 6 -6 3 7 2 16 -1 19 -3 4 -6 -2 -5 -13z"/>
<path d="M4148 3921 c-35 -33 -61 -62 -58 -65 3 -3 35 24 70 59 80 81 72 85
-12 6z"/>
<path d="M4651 3959 c-13 -11 -22 -21 -20 -23 2 -3 15 4 28 15 13 11 22 21 20
23 -2 3 -15 -4 -28 -15z"/>
<path d="M4901 3964 c0 -11 3 -14 6 -6 3 7 2 16 -1 19 -3 4 -6 -2 -5 -13z"/>
<path d="M5045 3970 c-30 -8 -30 -8 8 -9 20 0 37 4 37 9 0 11 -2 11 -45 0z"/>
<path d="M1580 3961 c0 -6 4 -13 10 -16 6 -3 7 1 4 9 -7 18 -14 21 -14 7z"/>
<path d="M3870 3950 c-35 -37 -41 -53 -10 -23 19 18 32 34 29 36 -2 2 -11 -4
-19 -13z"/>
<path d="M4391 3948 l-14 -23 24 20 c13 11 26 21 28 22 2 2 -2 3 -10 3 -8 0
-20 -10 -28 -22z"/>
<path d="M1240 3957 c0 -10 50 -61 55 -55 3 2 -9 17 -25 33 -17 16 -30 26 -30
22z"/>
<path d="M3010 3945 c0 -8 2 -15 4 -15 2 0 6 7 10 15 3 8 1 15 -4 15 -6 0 -10
-7 -10 -15z"/>
<path d="M4537 3953 c-4 -3 -7 -11 -7 -17 0 -6 5 -5 12 2 6 6 9 14 7 17 -3 3
-9 2 -12 -2z"/>
<path d="M807 3939 c7 -7 15 -10 18 -7 3 3 -2 9 -12 12 -14 6 -15 5 -6 -5z"/>
<path d="M4438 3933 c-15 -10 -30 -24 -33 -32 -4 -9 6 -5 22 9 15 14 32 28 38
32 16 14 1 8 -27 -9z"/>
<path d="M1147 3922 c12 -9 31 -28 42 -42 17 -20 20 -21 14 -5 -8 24 -50 65
-66 65 -7 0 -2 -8 10 -18z"/>
<path d="M1660 3931 c0 -5 5 -13 10 -16 6 -3 10 -2 10 4 0 5 -4 13 -10 16 -5
3 -10 2 -10 -4z"/>
<path d="M4014 3919 c-19 -22 -19 -22 4 -8 12 8 22 17 22 21 0 12 -6 9 -26
-13z"/>
<path d="M4595 3930 c-3 -5 -1 -10 4 -10 6 0 11 5 11 10 0 6 -2 10 -4 10 -3 0
-8 -4 -11 -10z"/>
<path d="M1220 3921 c0 -5 5 -13 10 -16 6 -3 10 -2 10 4 0 5 -4 13 -10 16 -5
3 -10 2 -10 -4z"/>
<path d="M2916 3904 c-4 -14 -5 -28 -3 -31 3 -2 8 8 11 23 4 14 5 28 3 31 -3
2 -8 -8 -11 -23z"/>
<path d="M4344 3916 c-10 -8 -16 -17 -13 -20 3 -3 14 3 24 14 21 23 17 26 -11
6z"/>
<path d="M840 3911 c0 -9 30 -24 36 -18 2 1 -6 8 -16 15 -11 7 -20 8 -20 3z"/>
<path d="M4560 3909 c0 -5 5 -7 10 -4 6 3 10 8 10 11 0 2 -4 4 -10 4 -5 0 -10
-5 -10 -11z"/>
<path d="M710 3902 c0 -4 10 -9 22 -9 18 -2 20 0 8 7 -18 12 -30 13 -30 2z"/>
<path d="M990 3906 c0 -11 30 -39 36 -34 2 3 -5 13 -16 23 -11 10 -20 15 -20
11z"/>
<path d="M4303 3895 c0 -8 4 -15 9 -15 4 0 8 4 8 9 0 6 -4 12 -8 15 -5 3 -9
-1 -9 -9z"/>
<path d="M4518 3903 c-28 -7 -21 -21 7 -15 14 2 25 8 25 13 0 9 -4 10 -32 2z"/>
<path d="M770 3890 c8 -5 20 -10 25 -10 6 0 3 5 -5 10 -8 5 -19 10 -25 10 -5
0 -3 -5 5 -10z"/>
<path d="M2971 3884 c0 -11 3 -14 6 -6 3 7 2 16 -1 19 -3 4 -6 -2 -5 -13z"/>
<path d="M4624 3885 c-10 -8 -14 -15 -7 -15 19 0 43 11 43 21 0 13 -14 11 -36
-6z"/>
<path d="M4910 3889 c0 -11 96 -10 165 1 41 6 31 8 -57 8 -60 0 -108 -4 -108
-9z"/>
<path d="M938 3883 c7 -3 16 -2 19 1 4 3 -2 6 -13 5 -11 0 -14 -3 -6 -6z"/>
<path d="M2860 3875 c0 -8 2 -15 4 -15 2 0 6 7 10 15 3 8 1 15 -4 15 -6 0 -10
-7 -10 -15z"/>
<path d="M4460 3880 c-8 -5 -10 -10 -5 -10 6 0 17 5 25 10 8 5 11 10 5 10 -5
0 -17 -5 -25 -10z"/>
<path d="M4565 3880 c3 -5 8 -10 11 -10 2 0 4 5 4 10 0 6 -5 10 -11 10 -5 0
-7 -4 -4 -10z"/>
<path d="M620 3870 c0 -5 4 -10 8 -10 5 0 18 -9 30 -20 35 -33 144 -100 161
-99 11 0 9 3 -6 9 -12 5 -47 29 -78 54 -63 52 -115 82 -115 66z"/>
<path d="M900 3861 c14 -11 30 -21 35 -21 11 0 -7 14 -40 31 -13 7 -12 3 5
-10z"/>
<path d="M1097 3869 c7 -7 15 -10 18 -7 3 3 -2 9 -12 12 -14 6 -15 5 -6 -5z"/>
<path d="M2210 3649 c0 -157 3 -229 11 -229 14 0 175 -137 223 -191 l39 -43
143 3 c126 2 143 1 152 -15 6 -10 14 -14 22 -9 9 6 9 9 -1 16 -11 6 -14 49
-15 190 l-1 182 -55 51 c-30 28 -108 101 -173 161 l-119 110 -113 2 -113 1 0
-229z m271 149 c30 -29 105 -100 167 -157 l112 -103 0 -164 0 -164 -133 0
-133 0 -59 60 c-33 34 -93 89 -132 123 l-73 62 0 197 0 198 98 0 98 0 55 -52z"/>
<path d="M3240 3578 c-677 -694 -1645 -1648 -1671 -1648 -2 0 -4 57 -4 128 l0
127 -160 -2 -160 -1 -2 -344 c-1 -189 -4 -352 -6 -363 -3 -20 1 -20 307 -14
171 3 322 9 336 13 21 7 16 -1 -25 -44 -27 -29 -41 -48 -30 -42 26 14 369 353
419 415 57 69 37 69 -31 -1 -272 -282 -290 -297 -354 -311 -29 -6 -168 -11
-324 -11 -268 0 -275 0 -275 20 0 19 7 20 218 20 l219 0 44 32 c63 45 714 694
1183 1178 405 418 733 747 760 762 14 8 15 -10 9 -149 l-6 -158 167 3 c92 2
174 1 183 -2 10 -4 -4 -16 -46 -38 -33 -17 -61 -35 -61 -40 0 -4 -4 -8 -10 -8
-5 0 -40 -21 -78 -47 -75 -53 -133 -97 -117 -90 19 8 220 131 278 169 l57 39
0 344 c0 190 0 347 0 349 0 3 -118 7 -262 10 l-263 6 -295 -302z m800 -48 l-1
-320 -162 0 -162 0 3 138 c5 224 -4 222 -295 -71 -197 -199 -372 -378 -694
-712 -275 -284 -910 -918 -973 -971 l-59 -49 -213 -3 -214 -3 0 310 0 311 135
0 135 0 1 -50 c1 -27 3 -59 4 -70 1 -11 3 -42 4 -70 1 -62 17 -65 82 -18 76
56 284 250 434 406 61 63 189 192 285 286 96 94 312 310 480 480 168 171 398
404 511 518 l206 208 247 0 246 0 0 -320z m-2117 -2035 c-3 -9 -8 -14 -10 -11
-3 3 -2 9 2 15 9 16 15 13 8 -4z"/>
<path d="M4258 3862 c-16 -9 -28 -20 -28 -24 0 -12 5 -10 36 17 34 29 31 32
-8 7z"/>
<path d="M4415 3870 c-16 -7 -17 -9 -3 -9 9 -1 20 4 23 9 7 11 7 11 -20 0z"/>
<path d="M1240 3521 c0 -192 -2 -356 -5 -364 -4 -10 21 -29 82 -64 151 -87
264 -144 276 -140 6 2 -2 10 -18 18 -26 13 -139 78 -275 157 -26 15 -40 31
-40 44 0 20 4 20 158 16 l157 -4 -3 166 c-5 199 -20 189 -21 -14 -1 -122 -3
-137 -17 -132 -9 3 -74 6 -145 6 l-130 0 5 273 c2 149 5 294 5 320 l1 48 378
-3 377 -3 -4 -235 c-1 -129 -5 -262 -7 -295 -2 -33 -4 -66 -4 -74 0 -11 -79
44 -100 70 -3 3 -12 10 -21 15 -9 5 -35 25 -59 44 -23 19 -60 49 -81 67 -47
38 -143 87 -161 81 -6 -2 13 -18 43 -34 82 -44 366 -271 412 -329 22 -27 46
-63 53 -80 32 -74 70 -108 43 -38 -7 18 -12 137 -13 338 l-2 310 -30 90 -30
90 -412 3 -412 2 0 -349z m842 218 c6 -20 7 -43 3 -49 -5 -8 -4 -11 2 -7 14 9
23 -76 24 -223 1 -233 -1 -350 -6 -350 -2 0 -11 14 -20 30 -9 17 -22 30 -29
30 -8 0 -16 10 -19 23 -4 12 -2 157 3 322 11 367 10 348 21 300 6 -22 15 -56
21 -76z"/>
<path d="M3036 3855 c-9 -26 -7 -32 5 -12 6 10 9 21 6 23 -2 3 -7 -2 -11 -11z"/>
<path d="M3151 3854 c0 -11 3 -14 6 -6 3 7 2 16 -1 19 -3 4 -6 -2 -5 -13z"/>
<path d="M1054 3846 c11 -9 24 -16 30 -16 12 0 7 5 -24 19 -24 11 -24 11 -6
-3z"/>
<path d="M2967 3813 c-9 -25 -15 -48 -13 -50 2 -2 12 16 21 42 10 25 16 47 13
50 -2 2 -12 -17 -21 -42z"/>
<path d="M3302 3840 c-18 -29 -15 -38 4 -12 9 13 14 25 12 27 -2 2 -9 -5 -16
-15z"/>
<path d="M4440 3840 c-17 -13 -20 -20 -10 -20 8 0 21 9 28 20 15 25 13 25 -18
0z"/>
<path d="M4896 3845 c-16 -12 -17 -15 -4 -15 9 0 18 7 22 15 7 18 6 18 -18 0z"/>
<path d="M1121 3847 c2 -1 13 -9 24 -17 19 -14 19 -14 6 3 -7 9 -18 17 -24 17
-6 0 -8 -1 -6 -3z"/>
<path d="M2726 3752 c-4 -57 -6 -106 -3 -109 7 -6 20 157 15 187 -2 14 -7 -21
-12 -78z"/>
<path d="M2853 3815 c0 -22 2 -30 4 -17 2 12 2 30 0 40 -3 9 -5 -1 -4 -23z"/>
<path d="M5017 3800 c-43 -28 -75 -55 -72 -60 3 -6 45 -9 93 -8 l87 2 -90 5
-90 6 72 43 c39 23 76 42 82 42 5 0 13 5 16 10 14 23 -25 7 -98 -40z"/>
<path d="M4788 3832 c-10 -2 -18 -8 -18 -13 0 -6 5 -7 12 -3 7 4 29 7 50 5 21
-1 38 2 38 7 0 8 -50 11 -82 4z"/>
<path d="M1020 3815 c7 -8 17 -15 22 -15 6 0 5 7 -2 15 -7 8 -17 15 -22 15 -6
0 -5 -7 2 -15z"/>
<path d="M4366 3822 c-3 -6 -1 -14 5 -17 15 -10 25 3 12 16 -7 7 -13 7 -17 1z"/>
<path d="M4695 3822 c-3 -3 -5 -8 -5 -12 0 -9 59 0 65 10 6 9 -51 10 -60 2z"/>
<path d="M4940 3820 c-8 -5 -10 -10 -5 -10 6 0 17 5 25 10 8 5 11 10 5 10 -5
0 -17 -5 -25 -10z"/>
<path d="M899 3799 c24 -11 46 -17 49 -15 5 6 -66 36 -82 35 -6 0 9 -9 33 -20z"/>
<path d="M2152 3800 c0 -14 2 -19 5 -12 2 6 2 18 0 25 -3 6 -5 1 -5 -13z"/>
<path d="M2882 3800 c0 -14 2 -19 5 -12 2 6 2 18 0 25 -3 6 -5 1 -5 -13z"/>
<path d="M4180 3805 c-24 -14 -24 -14 -3 -15 30 0 54 10 47 21 -7 12 -14 11
-44 -6z"/>
<path d="M4243 3808 c-5 -10 42 -8 82 2 24 7 20 8 -23 7 -30 -1 -56 -5 -59 -9z"/>
<path d="M1081 3807 c2 -1 15 -11 29 -22 l25 -20 -19 23 c-11 12 -24 22 -29
22 -6 0 -8 -1 -6 -3z"/>
<path d="M1180 3806 c0 -2 7 -7 16 -10 8 -3 12 -2 9 4 -6 10 -25 14 -25 6z"/>
<path d="M4466 3794 c-6 -15 -4 -15 11 -3 10 7 20 15 22 16 2 2 -3 3 -11 3 -9
0 -19 -7 -22 -16z"/>
<path d="M4897 3781 c-4 -17 -3 -21 5 -13 5 5 8 16 6 23 -3 8 -7 3 -11 -10z"/>
<path d="M4427 3776 c-4 -10 -1 -13 8 -9 8 3 12 9 9 14 -7 12 -11 11 -17 -5z"/>
<path d="M4461 3744 c-77 -53 -70 -59 8 -7 69 46 78 53 66 52 -6 0 -39 -20
-74 -45z"/>
<path d="M2161 3754 c0 -11 3 -14 6 -6 3 7 2 16 -1 19 -3 4 -6 -2 -5 -13z"/>
<path d="M2839 3758 c-1 -7 -1 -16 -1 -19 1 -3 -8 -42 -18 -85 -22 -89 -24
-102 -11 -88 13 14 47 204 36 204 -3 0 -6 -6 -6 -12z"/>
<path d="M3123 3683 c-18 -42 -31 -79 -28 -81 7 -7 66 129 63 144 -2 7 -18
-22 -35 -63z"/>
<path d="M3183 3725 c0 -22 2 -30 4 -17 2 12 2 30 0 40 -3 9 -5 -1 -4 -23z"/>
<path d="M4385 3751 c-6 -5 -23 -11 -40 -14 -24 -3 -21 -4 13 -6 31 -1 42 3
42 14 0 17 -3 18 -15 6z"/>
<path d="M844 3738 c-3 -5 3 -8 13 -9 10 0 33 -2 51 -3 17 -2 32 0 32 4 0 10
-90 18 -96 8z"/>
<path d="M2922 3678 c-11 -40 -32 -111 -46 -157 -14 -47 -26 -94 -26 -105 1
-28 23 35 55 157 14 53 32 115 40 137 8 22 10 40 6 40 -5 0 -18 -33 -29 -72z"/>
<path d="M4755 3739 c-16 -6 -14 -8 13 -8 33 -1 41 4 20 12 -7 2 -22 1 -33 -4z"/>
<path d="M4820 3742 c0 -5 14 -7 30 -4 17 2 30 6 30 8 0 2 -13 4 -30 4 -16 0
-30 -4 -30 -8z"/>
<path d="M673 3733 c15 -2 39 -2 55 0 15 2 2 4 -28 4 -30 0 -43 -2 -27 -4z"/>
<path d="M954 3728 c-4 -7 -3 -8 4 -4 7 4 12 3 12 -2 0 -13 28 -23 34 -13 3 4
-6 13 -19 19 -18 8 -26 8 -31 0z"/>
<path d="M1036 3729 c3 -5 12 -9 20 -9 8 0 13 -4 10 -8 -3 -5 24 -28 59 -52
36 -23 65 -46 65 -50 0 -4 8 -11 17 -14 27 -11 -14 31 -67 67 -25 17 -50 38
-57 48 -13 17 -58 34 -47 18z"/>
<path d="M1130 3730 c14 -4 41 -8 60 -8 l35 0 -30 8 c-16 4 -43 8 -60 8 -29 0
-29 0 -5 -8z"/>
<path d="M3212 3660 c0 -73 2 -80 10 -53 8 23 8 49 1 85 l-10 53 -1 -85z"/>
<path d="M4089 3723 c-13 -15 -12 -15 9 -4 23 12 28 21 13 21 -5 0 -15 -7 -22
-17z"/>
<path d="M4130 3731 c0 -5 11 -8 25 -8 14 0 25 3 25 8 0 5 -11 9 -25 9 -14 0
-25 -4 -25 -9z"/>
<path d="M4210 3728 c0 -4 7 -8 15 -8 8 0 15 4 15 8 0 5 -7 9 -15 9 -8 0 -15
-4 -15 -9z"/>
<path d="M4260 3730 c-11 -7 -7 -10 18 -10 17 0 32 5 32 10 0 13 -30 13 -50 0z"/>
<path d="M4593 3733 c-7 -3 -13 -8 -13 -13 0 -10 24 -7 28 4 5 11 -1 14 -15 9z"/>
<path d="M4635 3730 c-4 -6 3 -10 14 -10 25 0 27 6 6 13 -8 4 -17 2 -20 -3z"/>
<path d="M4680 3729 c0 -11 21 -11 39 0 9 6 5 9 -13 9 -14 0 -26 -4 -26 -9z"/>
<path d="M4896 3725 c-2 -7 -28 -26 -58 -43 -66 -39 -56 -42 14 -4 95 51 92
49 69 55 -11 2 -22 -1 -25 -8z"/>
<path d="M976 3681 c-7 -11 45 -57 76 -67 13 -4 28 -14 35 -23 7 -9 13 -12 13
-8 0 4 10 -2 22 -13 29 -27 88 -62 88 -52 0 5 -14 21 -32 38 -18 16 -26 21
-19 12 19 -25 -2 -22 -25 3 -26 29 -102 79 -120 79 -8 0 -13 4 -10 9 3 5 -1
14 -8 20 -9 7 -17 8 -20 2z"/>
<path d="M3170 3656 c0 -14 -4 -36 -10 -51 -5 -14 -6 -24 -1 -21 5 4 11 2 13
-4 1 -5 4 15 5 45 2 30 1 55 -2 55 -3 0 -5 -11 -5 -24z"/>
<path d="M4145 3660 c3 -5 12 -7 20 -3 21 7 19 13 -6 13 -11 0 -18 -4 -14 -10z"/>
<path d="M4210 3632 c-60 -34 -130 -91 -130 -105 0 -6 17 5 38 25 20 19 60 48
87 63 59 34 59 34 54 39 -2 2 -24 -7 -49 -22z"/>
<path d="M4885 3650 c-3 -5 1 -10 9 -10 9 0 16 5 16 10 0 6 -4 10 -9 10 -6 0
-13 -4 -16 -10z"/>
<path d="M4465 3640 c-3 -5 -1 -10 4 -10 6 0 11 5 11 10 0 6 -2 10 -4 10 -3 0
-8 -4 -11 -10z"/>
<path d="M4810 3628 c-79 -36 -109 -52 -105 -56 2 -2 34 10 71 27 36 17 72 31
80 31 8 0 14 5 14 10 0 14 -8 12 -60 -12z"/>
<path d="M4104 3625 c-10 -8 -14 -15 -8 -15 6 0 17 7 24 15 16 19 9 19 -16 0z"/>
<path d="M4570 3630 c-9 -6 -10 -10 -3 -10 6 0 15 5 18 10 8 12 4 12 -15 0z"/>
<path d="M4903 3585 c0 -27 2 -38 4 -22 2 15 2 37 0 50 -2 12 -4 0 -4 -28z"/>
<path d="M660 3610 c0 -5 5 -10 11 -10 5 0 7 5 4 10 -3 6 -8 10 -11 10 -2 0
-4 -4 -4 -10z"/>
<path d="M952 3604 c10 -10 20 -16 22 -13 3 3 -5 11 -17 18 -21 13 -21 12 -5
-5z"/>
<path d="M991 3616 c2 -2 15 -9 29 -15 24 -11 24 -11 6 3 -16 13 -49 24 -35
12z"/>
<path d="M4518 3613 c6 -2 18 -2 25 0 6 3 1 5 -13 5 -14 0 -19 -2 -12 -5z"/>
<path d="M4615 3610 c-3 -5 -2 -10 4 -10 5 0 13 5 16 10 3 6 2 10 -4 10 -5 0
-13 -4 -16 -10z"/>
<path d="M740 3606 c0 -2 7 -6 15 -10 8 -3 15 -1 15 4 0 6 -7 10 -15 10 -8 0
-15 -2 -15 -4z"/>
<path d="M470 3590 c0 -7 9 -14 19 -17 11 -3 22 -11 25 -19 3 -8 13 -14 21
-14 10 0 13 -5 9 -12 -4 -7 -4 -10 0 -6 5 4 23 -7 42 -24 49 -45 72 -59 78
-50 3 5 -25 31 -62 58 -112 83 -132 96 -132 84z"/>
<path d="M4480 3585 c7 -9 15 -13 17 -11 7 7 -7 26 -19 26 -6 0 -6 -6 2 -15z"/>
<path d="M4570 3586 c-30 -16 -70 -40 -282 -172 -90 -56 -174 -107 -186 -113
-13 -7 -22 -15 -19 -17 5 -5 97 46 192 108 178 115 296 188 304 188 6 0 13 5
16 10 8 13 5 13 -25 -4z"/>
<path d="M4868 3593 c7 -3 16 -2 19 1 4 3 -2 6 -13 5 -11 0 -14 -3 -6 -6z"/>
<path d="M714 3576 c11 -9 24 -16 30 -16 12 0 7 5 -24 19 -24 11 -24 11 -6 -3z"/>
<path d="M790 3582 c0 -4 15 -13 33 -20 17 -6 48 -25 67 -41 19 -17 36 -29 38
-27 2 2 17 -9 35 -25 17 -16 37 -29 44 -29 7 0 13 -4 13 -10 0 -5 5 -10 10
-10 6 0 33 -16 60 -35 28 -19 50 -32 50 -28 0 4 13 -6 30 -22 16 -16 33 -26
36 -22 8 8 -6 28 -16 22 -4 -3 -13 2 -20 10 -7 8 -40 32 -74 52 -33 21 -97 63
-141 94 -74 53 -149 99 -160 99 -3 0 -5 -4 -5 -8z"/>
<path d="M1050 3585 c0 -7 163 -116 167 -111 4 4 -42 40 -79 61 -9 6 -33 20
-52 32 -20 12 -36 21 -36 18z"/>
<path d="M3077 3583 c-4 -3 -7 -11 -7 -17 0 -6 5 -5 12 2 6 6 9 14 7 17 -3 3
-9 2 -12 -2z"/>
<path d="M4305 3530 c-75 -54 -92 -65 -173 -117 -30 -19 -51 -37 -48 -40 3 -3
12 2 21 11 9 9 37 28 63 43 52 30 212 143 212 149 0 7 -3 5 -75 -46z"/>
<path d="M4610 3540 c-36 -22 -60 -40 -55 -40 10 0 108 60 122 74 14 14 -6 4
-67 -34z"/>
<path d="M4760 3565 c-10 -12 -8 -13 10 -10 29 6 34 11 16 18 -8 3 -20 0 -26
-8z"/>
<path d="M3136 3555 c-9 -26 -7 -32 5 -12 6 10 9 21 6 23 -2 3 -7 -2 -11 -11z"/>
<path d="M4160 3504 c-41 -31 -77 -63 -78 -71 -3 -13 0 -13 25 2 62 36 147
101 146 110 -3 20 -20 12 -93 -41z"/>
<path d="M915 3540 c3 -5 12 -10 19 -10 7 0 32 -14 54 -30 23 -17 42 -25 42
-19 0 7 10 4 23 -7 l22 -19 -19 22 c-10 13 -22 20 -27 18 -4 -3 -29 8 -55 25
-49 31 -70 38 -59 20z"/>
<path d="M4412 3541 c-11 -6 -9 -9 5 -13 12 -3 20 0 20 8 0 16 -6 17 -25 5z"/>
<path d="M4649 3527 c-19 -13 -77 -47 -129 -76 -52 -30 -108 -63 -124 -74 -33
-23 -162 -87 -172 -86 -4 0 -10 -3 -13 -8 -8 -11 -61 -42 -93 -54 -16 -6 -28
-15 -28 -20 0 -13 13 -11 35 5 17 12 188 105 300 164 17 9 71 41 120 71 50 31
102 62 118 70 15 8 27 18 27 23 0 12 -4 10 -41 -15z"/>
<path d="M4705 3540 c-3 -6 1 -7 9 -4 18 7 21 14 7 14 -6 0 -13 -4 -16 -10z"/>
<path d="M815 3520 c6 -10 4 -12 -11 -6 -15 6 -17 5 -6 -5 9 -9 15 -10 23 -2
8 8 7 13 -2 18 -8 6 -10 4 -4 -5z"/>
<path d="M4873 3523 c9 -2 23 -2 30 0 6 3 -1 5 -18 5 -16 0 -22 -2 -12 -5z"/>
<path d="M4973 3523 c26 -2 67 -2 90 0 23 2 2 3 -48 3 -49 0 -68 -1 -42 -3z"/>
<path d="M4902 3475 c0 -16 2 -22 5 -12 2 9 2 23 0 30 -3 6 -5 -1 -5 -18z"/>
<path d="M4476 3460 c-22 -17 -36 -30 -33 -30 12 0 77 44 77 53 0 10 -1 10
-44 -23z"/>
<path d="M4730 3480 c0 -5 5 -10 10 -10 6 0 10 5 10 10 0 6 -4 10 -10 10 -5 0
-10 -4 -10 -10z"/>
<path d="M5043 3483 c15 -2 39 -2 55 0 15 2 2 4 -28 4 -30 0 -43 -2 -27 -4z"/>
<path d="M2813 3435 c0 -27 2 -38 4 -22 2 15 2 37 0 50 -2 12 -4 0 -4 -28z"/>
<path d="M3010 3469 c0 -5 5 -7 10 -4 6 3 10 8 10 11 0 2 -4 4 -10 4 -5 0 -10
-5 -10 -11z"/>
<path d="M4285 3456 c-16 -13 -33 -22 -37 -20 -4 2 -9 0 -12 -5 -12 -19 12
-20 29 -1 10 11 24 20 30 20 7 0 15 7 19 15 7 19 6 19 -29 -9z"/>
<path d="M4688 3473 c7 -3 16 -2 19 1 4 3 -2 6 -13 5 -11 0 -14 -3 -6 -6z"/>
<path d="M4938 3473 c7 -3 16 -2 19 1 4 3 -2 6 -13 5 -11 0 -14 -3 -6 -6z"/>
<path d="M860 3464 c0 -1 12 -9 26 -19 24 -16 26 -16 22 1 -2 10 -13 18 -25
19 -13 1 -23 1 -23 -1z"/>
<path d="M4638 3463 c6 -2 18 -2 25 0 6 3 1 5 -13 5 -14 0 -19 -2 -12 -5z"/>
<path d="M1104 3451 c10 -16 97 -74 103 -68 2 3 -8 13 -24 23 -15 9 -41 26
-57 37 -16 11 -26 15 -22 8z"/>
<path d="M680 3435 c0 -8 5 -15 10 -15 6 0 10 7 10 15 0 8 -4 15 -10 15 -5 0
-10 -7 -10 -15z"/>
<path d="M4596 3441 c-4 -5 3 -7 14 -4 23 6 26 13 6 13 -8 0 -17 -4 -20 -9z"/>
<path d="M4830 3440 c0 -5 5 -10 10 -10 6 0 10 5 10 10 0 6 -4 10 -10 10 -5 0
-10 -4 -10 -10z"/>
<path d="M920 3434 c0 -5 12 -17 25 -27 14 -10 25 -14 25 -10 0 11 -20 40 -20
29 0 -5 -7 -3 -15 4 -8 7 -15 9 -15 4z"/>
<path d="M4365 3401 c-33 -21 -82 -50 -110 -65 -27 -14 -45 -26 -38 -26 19 0
213 115 213 126 0 6 -3 5 -65 -35z"/>
<path d="M4902 3420 c0 -14 2 -19 5 -12 2 6 2 18 0 25 -3 6 -5 1 -5 -13z"/>
<path d="M4978 3433 c29 -2 74 -2 100 0 26 2 2 3 -53 3 -55 0 -76 -1 -47 -3z"/>
<path d="M4535 3420 c-3 -5 -1 -10 4 -10 6 0 11 5 11 10 0 6 -2 10 -4 10 -3 0
-8 -4 -11 -10z"/>
<path d="M4780 3420 c-8 -5 -10 -10 -5 -10 6 0 17 5 25 10 8 5 11 10 5 10 -5
0 -17 -5 -25 -10z"/>
<path d="M999 3399 c6 -9 8 -18 5 -22 -3 -3 14 -15 38 -27 23 -12 50 -28 58
-35 8 -7 36 -25 63 -40 35 -20 47 -23 47 -13 0 8 -12 20 -27 27 -14 7 -50 28
-80 48 -30 19 -56 33 -59 30 -4 -3 -17 6 -31 21 -14 15 -20 20 -14 11z"/>
<path d="M2210 3333 c0 -93 7 -121 29 -128 23 -7 240 -206 272 -250 30 -40 40
-37 28 8 -4 18 -11 53 -14 80 -4 26 -10 45 -14 43 -4 -3 -5 -27 -1 -55 6 -46
5 -49 -12 -40 -10 5 -18 14 -18 18 0 9 -132 141 -170 169 -70 53 -69 53 -76
140 -4 45 -11 85 -15 88 -5 3 -9 -30 -9 -73z"/>
<path d="M4705 3400 c-3 -5 1 -10 9 -10 9 0 16 5 16 10 0 6 -4 10 -9 10 -6 0
-13 -4 -16 -10z"/>
<path d="M4620 3390 c-9 -6 -10 -10 -3 -10 6 0 15 5 18 10 8 12 4 12 -15 0z"/>
<path d="M5098 3393 c7 -3 16 -2 19 1 4 3 -2 6 -13 5 -11 0 -14 -3 -6 -6z"/>
<path d="M4903 3350 c0 -25 2 -35 4 -22 2 12 2 32 0 45 -2 12 -4 2 -4 -23z"/>
<path d="M4958 3383 c18 -2 45 -2 60 0 15 2 0 4 -33 4 -33 0 -45 -2 -27 -4z"/>
<path d="M4580 3370 c-9 -6 -10 -10 -3 -10 6 0 15 5 18 10 8 12 4 12 -15 0z"/>
<path d="M4830 3365 c-31 -18 -16 -18 30 0 23 9 28 14 15 14 -11 0 -31 -6 -45
-14z"/>
<path d="M910 3355 c33 -19 49 -19 24 0 -10 8 -26 14 -34 14 -9 0 -4 -6 10
-14z"/>
<path d="M4645 3360 c-3 -5 -2 -10 4 -10 5 0 13 5 16 10 3 6 2 10 -4 10 -5 0
-13 -4 -16 -10z"/>
<path d="M2803 3285 c0 -44 2 -61 4 -37 2 23 2 59 0 80 -2 20 -4 1 -4 -43z"/>
<path d="M4119 3343 c-13 -17 -13 -17 6 -3 11 8 22 16 24 17 2 2 0 3 -6 3 -6
0 -17 -8 -24 -17z"/>
<path d="M4530 3350 c-8 -5 -10 -10 -5 -10 6 0 17 5 25 10 8 5 11 10 5 10 -5
0 -17 -5 -25 -10z"/>
<path d="M4553 3310 c-40 -23 -73 -43 -73 -45 0 -7 110 50 135 69 33 25 14 18
-62 -24z"/>
<path d="M4953 3343 c9 -2 23 -2 30 0 6 3 -1 5 -18 5 -16 0 -22 -2 -12 -5z"/>
<path d="M480 3330 c19 -13 30 -13 30 0 0 6 -10 10 -22 10 -19 0 -20 -2 -8
-10z"/>
<path d="M967 3329 c7 -7 15 -10 18 -7 3 3 -2 9 -12 12 -14 6 -15 5 -6 -5z"/>
<path d="M4420 3325 c-18 -10 -20 -14 -8 -15 9 0 19 4 23 10 3 5 12 7 19 4 8
-3 17 -1 21 5 9 16 -25 13 -55 -4z"/>
<path d="M548 3323 c7 -3 16 -2 19 1 4 3 -2 6 -13 5 -11 0 -14 -3 -6 -6z"/>
<path d="M585 3320 c3 -5 8 -10 11 -10 2 0 4 5 4 10 0 6 -5 10 -11 10 -5 0 -7
-4 -4 -10z"/>
<path d="M625 3320 c-2 -3 5 -7 16 -7 10 -1 19 2 19 6 0 9 -29 10 -35 1z"/>
<path d="M690 3321 c0 -5 5 -13 10 -16 6 -3 10 -2 10 4 0 5 -4 13 -10 16 -5 3
-10 2 -10 -4z"/>
<path d="M741 3314 c0 -11 3 -14 6 -6 3 7 2 16 -1 19 -3 4 -6 -2 -5 -13z"/>
<path d="M1740 3310 c15 -27 183 -203 220 -230 31 -22 120 -38 120 -21 0 6
-14 11 -31 11 -17 0 -40 5 -52 11 -24 13 -91 69 -82 69 5 0 -8 12 -94 92 -21
20 -38 38 -36 40 1 2 -11 14 -28 27 l-30 25 13 -24z"/>
<path d="M3596 3308 c-3 -13 -5 -39 -5 -58 1 -27 3 -22 9 20 9 58 7 77 -4 38z"/>
<path d="M4708 3323 c7 -3 16 -2 19 1 4 3 -2 6 -13 5 -11 0 -14 -3 -6 -6z"/>
<path d="M4856 3322 c-3 -5 1 -9 9 -9 8 0 15 4 15 9 0 4 -4 8 -9 8 -6 0 -12
-4 -15 -8z"/>
<path d="M824 3313 c10 -10 46 -11 46 -1 0 4 -12 8 -27 8 -14 0 -23 -3 -19 -7z"/>
<path d="M1007 3309 c7 -7 15 -10 18 -7 3 3 -2 9 -12 12 -14 6 -15 5 -6 -5z"/>
<path d="M4455 3298 c-41 -21 -93 -58 -82 -58 3 0 23 11 43 25 20 14 42 25 49
25 7 0 18 7 25 15 16 19 14 19 -35 -7z"/>
<path d="M4945 3310 c-16 -4 13 -5 65 -2 52 3 97 6 99 8 8 7 -134 2 -164 -6z"/>
<path d="M4355 3300 c-13 -6 -15 -9 -5 -9 8 0 22 4 30 9 18 12 2 12 -25 0z"/>
<path d="M4668 3303 c7 -3 16 -2 19 1 4 3 -2 6 -13 5 -11 0 -14 -3 -6 -6z"/>
<path d="M4775 3290 c-3 -5 -2 -10 4 -10 5 0 13 5 16 10 3 6 2 10 -4 10 -5 0
-13 -4 -16 -10z"/>
<path d="M4901 3293 c-1 -7 -10 -13 -21 -13 -11 0 -20 -5 -20 -11 0 -6 9 -8
23 -3 29 8 30 10 24 26 -4 10 -6 10 -6 1z"/>
<path d="M1050 3283 c8 -3 24 -10 35 -16 18 -9 19 -9 6 6 -7 10 -23 17 -35 16
-14 0 -16 -2 -6 -6z"/>
<path d="M4310 3280 c-13 -8 -12 -10 3 -10 9 0 17 5 17 10 0 12 -1 12 -20 0z"/>
<path d="M4595 3269 c-22 -10 -34 -19 -27 -19 15 0 72 28 72 35 0 6 3 7 -45
-16z"/>
<path d="M643 3262 c0 -12 5 -22 9 -22 11 0 10 12 -2 30 -7 12 -9 10 -7 -8z"/>
<path d="M4114 3264 c-18 -14 -18 -14 6 -3 31 14 36 19 24 19 -6 0 -19 -7 -30
-16z"/>
<path d="M4740 3269 c0 -5 5 -7 10 -4 6 3 10 8 10 11 0 2 -4 4 -10 4 -5 0 -10
-5 -10 -11z"/>
<path d="M677 3263 c-12 -12 -7 -22 8 -17 8 4 15 10 15 15 0 11 -14 12 -23 2z"/>
<path d="M747 3263 c-10 -9 -9 -23 1 -23 5 0 9 7 9 15 0 17 -1 18 -10 8z"/>
<path d="M4705 3260 c-3 -6 1 -7 9 -4 18 7 21 14 7 14 -6 0 -13 -4 -16 -10z"/>
<path d="M4815 3260 c-8 -13 5 -13 25 0 13 8 13 10 -2 10 -9 0 -20 -4 -23 -10z"/>
<path d="M4968 3263 c28 -2 76 -2 105 0 28 2 5 3 -53 3 -58 0 -81 -1 -52 -3z"/>
<path d="M464 3252 c6 -10 52 -9 62 1 4 4 -9 7 -30 7 -20 0 -35 -4 -32 -8z"/>
<path d="M540 3249 c0 -5 5 -7 10 -4 6 3 10 8 10 11 0 2 -4 4 -10 4 -5 0 -10
-5 -10 -11z"/>
<path d="M800 3248 c0 -4 7 -8 15 -8 8 0 15 4 15 8 0 5 -7 9 -15 9 -8 0 -15
-4 -15 -9z"/>
<path d="M851 3245 c8 -8 78 -8 87 0 2 2 -19 5 -47 6 -32 3 -47 1 -40 -6z"/>
<path d="M950 3256 c0 -2 11 -6 25 -8 14 -3 25 -1 25 3 0 5 -11 9 -25 9 -14 0
-25 -2 -25 -4z"/>
<path d="M4260 3245 c-14 -8 -20 -14 -14 -15 5 0 19 7 30 15 24 18 16 19 -16
0z"/>
<path d="M4450 3245 c-8 -9 -8 -15 -2 -15 12 0 26 19 19 26 -2 2 -10 -2 -17
-11z"/>
<path d="M4655 3250 c-8 -13 5 -13 25 0 13 8 13 10 -2 10 -9 0 -20 -4 -23 -10z"/>
<path d="M4900 3246 c0 -8 -8 -17 -17 -19 -14 -4 -12 -5 5 -6 16 -1 22 5 22
19 0 11 -2 20 -5 20 -3 0 -5 -6 -5 -14z"/>
<path d="M1030 3240 c8 -5 22 -10 30 -10 13 0 13 1 0 10 -8 5 -22 10 -30 10
-13 0 -13 -1 0 -10z"/>
<path d="M4616 3241 c-4 -5 -2 -12 3 -15 5 -4 12 -2 15 3 4 5 2 12 -3 15 -5 4
-12 2 -15 -3z"/>
<path d="M3473 3189 c-27 -29 -85 -90 -130 -137 -45 -47 -80 -88 -77 -91 7 -6
212 204 245 251 32 44 14 33 -38 -23z"/>
<path d="M4290 3225 c-25 -7 -36 -13 -25 -13 11 0 38 5 60 13 52 17 24 17 -35
0z"/>
<path d="M5020 3230 l-95 -6 92 -2 c53 -1 94 2 98 8 3 6 5 9 3 8 -2 -1 -46 -5
-98 -8z"/>
<path d="M4165 3204 c-27 -13 -41 -22 -30 -18 51 15 81 27 90 35 16 16 -8 9
-60 -17z"/>
<path d="M4380 3219 c0 -5 5 -7 10 -4 6 3 10 8 10 11 0 2 -4 4 -10 4 -5 0 -10
-5 -10 -11z"/>
<path d="M4578 3223 c7 -3 16 -2 19 1 4 3 -2 6 -13 5 -11 0 -14 -3 -6 -6z"/>
<path d="M4465 3205 c-40 -19 -16 -19 26 0 19 8 27 14 19 14 -8 0 -28 -7 -45
-14z"/>
<path d="M4330 3200 c-8 -5 -10 -10 -5 -10 6 0 17 5 25 10 8 5 11 10 5 10 -5
0 -17 -5 -25 -10z"/>
<path d="M4901 3194 c0 -11 3 -14 6 -6 3 7 2 16 -1 19 -3 4 -6 -2 -5 -13z"/>
<path d="M3583 3160 c0 -25 2 -35 4 -22 2 12 2 32 0 45 -2 12 -4 2 -4 -23z"/>
<path d="M4538 3193 c7 -3 16 -2 19 1 4 3 -2 6 -13 5 -11 0 -14 -3 -6 -6z"/>
<path d="M635 3181 c-3 -5 -14 -8 -25 -6 -11 2 -20 0 -20 -6 0 -5 16 -8 35 -6
34 2 44 10 26 22 -5 3 -12 1 -16 -4z"/>
<path d="M676 3181 c-4 -7 -5 -15 -2 -18 9 -9 19 4 14 18 -4 11 -6 11 -12 0z"/>
<path d="M820 3176 c0 -9 5 -16 10 -16 6 0 10 4 10 9 0 6 -4 13 -10 16 -5 3
-10 -1 -10 -9z"/>
<path d="M916 3182 c-3 -6 -1 -14 5 -17 14 -9 20 -2 10 14 -6 8 -11 9 -15 3z"/>
<path d="M4200 3166 c-41 -13 -91 -30 -110 -40 -41 -19 -14 -15 50 8 25 9 74
25 110 35 36 11 56 19 45 19 -11 1 -54 -10 -95 -22z"/>
<path d="M4345 3165 c-76 -26 -70 -34 8 -10 47 14 91 35 72 34 -5 0 -41 -11
-80 -24z"/>
<path d="M4495 3180 c-16 -7 -17 -9 -3 -9 9 -1 20 4 23 9 7 11 7 11 -20 0z"/>
<path d="M4725 3180 c-18 -8 -17 -9 8 -9 16 -1 26 3 22 9 -3 6 -7 10 -8 9 -1
0 -11 -4 -22 -9z"/>
<path d="M4780 3180 c-8 -5 -10 -10 -5 -10 6 0 17 5 25 10 8 5 11 10 5 10 -5
0 -17 -5 -25 -10z"/>
<path d="M4828 3183 c6 -2 18 -2 25 0 6 3 1 5 -13 5 -14 0 -19 -2 -12 -5z"/>
<path d="M4978 3183 c29 -2 74 -2 100 0 26 2 2 3 -53 3 -55 0 -76 -1 -47 -3z"/>
<path d="M445 3170 c4 -6 11 -8 16 -5 14 9 11 15 -7 15 -8 0 -12 -5 -9 -10z"/>
<path d="M500 3169 c0 -5 5 -7 10 -4 6 3 10 8 10 11 0 2 -4 4 -10 4 -5 0 -10
-5 -10 -11z"/>
<path d="M545 3170 c3 -5 8 -10 11 -10 2 0 4 5 4 10 0 6 -5 10 -11 10 -5 0 -7
-4 -4 -10z"/>
<path d="M700 3172 c0 -4 9 -8 20 -9 11 -1 18 2 15 8 -7 11 -35 12 -35 1z"/>
<path d="M750 3170 c0 -5 5 -10 10 -10 6 0 10 5 10 10 0 6 -4 10 -10 10 -5 0
-10 -4 -10 -10z"/>
<path d="M856 3171 c-3 -5 6 -8 19 -8 14 0 25 3 25 8 0 5 -9 9 -19 9 -11 0
-22 -4 -25 -9z"/>
<path d="M956 3171 c10 -10 56 -12 49 -2 -3 6 -17 10 -30 9 -13 -1 -22 -4 -19
-7z"/>
<path d="M1021 3173 c-1 -18 13 -23 29 -11 12 8 12 9 -2 5 -9 -3 -19 -1 -22 6
-3 9 -5 9 -5 0z"/>
<path d="M1080 3170 c8 -5 24 -10 34 -10 26 0 18 6 -19 14 -22 5 -26 4 -15 -4z"/>
<path d="M4575 3164 l-60 -13 54 4 c30 3 59 9 65 15 5 5 8 10 6 9 -3 -1 -32
-7 -65 -15z"/>
<path d="M4665 3170 c3 -5 12 -7 20 -3 21 7 19 13 -6 13 -11 0 -18 -4 -14 -10z"/>
<path d="M3669 3158 c-8 -8 -35 -29 -61 -47 -61 -43 -93 -117 -43 -97 9 3 13
11 9 17 -4 6 20 36 56 70 35 33 61 62 58 65 -3 3 -12 -1 -19 -8z"/>
<path d="M4400 3145 c-30 -13 -48 -24 -40 -24 8 0 38 11 65 24 65 30 46 30
-25 0z"/>
<path d="M4904 3150 c1 -11 15 -15 61 -16 l60 -1 -57 4 c-32 2 -59 9 -61 16
-2 7 -3 5 -3 -3z"/>
<path d="M1155 3150 c11 -5 27 -9 35 -9 13 -1 13 0 0 9 -8 5 -24 9 -35 9 l-20
0 20 -9z"/>
<path d="M1633 3115 c27 -25 46 -45 44 -45 -9 0 79 -92 96 -102 17 -9 17 -7 6
13 -17 33 -165 179 -181 179 -7 0 9 -21 35 -45z"/>
<path d="M4715 3140 l-30 -8 30 -1 c17 0 37 4 45 9 13 9 13 10 0 9 -8 -1 -28
-5 -45 -9z"/>
<path d="M5053 3143 c15 -2 37 -2 50 0 12 2 0 4 -28 4 -27 0 -38 -2 -22 -4z"/>
<path d="M4238 3133 c6 -2 18 -2 25 0 6 3 1 5 -13 5 -14 0 -19 -2 -12 -5z"/>
<path d="M4585 3130 c-19 -8 -19 -9 3 -9 12 -1 22 4 22 9 0 6 -1 10 -2 9 -2 0
-12 -4 -23 -9z"/>
<path d="M4620 3132 c0 -5 14 -7 30 -4 17 2 30 6 30 8 0 2 -13 4 -30 4 -16 0
-30 -4 -30 -8z"/>
<path d="M1144 3115 c8 -8 18 -15 22 -15 3 0 1 7 -6 15 -7 8 -17 15 -22 15 -5
0 -3 -7 6 -15z"/>
<path d="M4183 3123 c9 -2 23 -2 30 0 6 3 -1 5 -18 5 -16 0 -22 -2 -12 -5z"/>
<path d="M4450 3120 c-14 -4 -65 -18 -114 -31 -49 -12 -85 -24 -79 -26 5 -2
36 4 69 13 32 9 93 24 134 34 43 10 62 18 45 18 -16 0 -41 -3 -55 -8z"/>
<path d="M4830 3120 c0 -5 7 -7 15 -4 8 4 15 8 15 10 0 2 -7 4 -15 4 -8 0 -15
-4 -15 -10z"/>
<path d="M4135 3109 c-11 -5 -33 -13 -49 -19 -16 -6 -27 -13 -24 -16 3 -2 25
4 49 14 24 10 52 16 62 14 22 -5 22 4 -1 10 -9 3 -26 1 -37 -3z"/>
<path d="M480 3101 c0 -5 7 -11 15 -15 8 -3 15 -1 15 3 0 5 -7 11 -15 15 -8 3
-15 1 -15 -3z"/>
<path d="M525 3100 c-3 -5 -1 -10 4 -10 6 0 11 5 11 10 0 6 -2 10 -4 10 -3 0
-8 -4 -11 -10z"/>
<path d="M560 3101 c0 -5 5 -13 10 -16 6 -3 10 -2 10 4 0 5 -4 13 -10 16 -5 3
-10 2 -10 -4z"/>
<path d="M610 3099 c0 -3 34 -7 75 -8 41 -1 75 2 75 6 0 4 -34 8 -75 8 -41 1
-75 -2 -75 -6z"/>
<path d="M775 3101 c-6 -11 9 -23 19 -14 9 9 7 23 -3 23 -6 0 -12 -4 -16 -9z"/>
<path d="M820 3094 c0 -8 5 -12 10 -9 6 3 10 10 10 16 0 5 -4 9 -10 9 -5 0
-10 -7 -10 -16z"/>
<path d="M863 3103 c-7 -2 -13 -9 -13 -15 0 -6 7 -4 17 3 13 11 17 11 20 2 3
-7 14 -13 25 -13 17 0 18 3 8 15 -12 15 -34 18 -57 8z"/>
<path d="M950 3101 c0 -16 18 -22 23 -9 3 8 6 6 6 -4 1 -21 21 -25 21 -4 0 8
-7 17 -16 20 -22 9 -34 7 -34 -3z"/>
<path d="M1016 3097 c3 -10 9 -15 12 -12 3 3 0 11 -7 18 -10 9 -11 8 -5 -6z"/>
<path d="M1050 3095 c-14 -16 -3 -20 19 -6 8 5 9 11 3 15 -5 3 -15 -1 -22 -9z"/>
<path d="M2550 3104 c0 -11 23 -34 48 -48 6 -4 12 -2 12 3 0 6 -5 11 -11 11
-6 0 -19 10 -30 23 -10 12 -18 17 -19 11z"/>
<path d="M4675 3100 c3 -5 8 -10 11 -10 2 0 4 5 4 10 0 6 -5 10 -11 10 -5 0
-7 -4 -4 -10z"/>
<path d="M450 3090 c0 -5 5 -10 10 -10 6 0 10 5 10 10 0 6 -4 10 -10 10 -5 0
-10 -4 -10 -10z"/>
<path d="M1180 3090 c0 -5 8 -10 18 -10 10 0 23 -5 30 -12 7 -7 12 -8 12 -2 0
6 -11 16 -25 22 -32 15 -35 15 -35 2z"/>
<path d="M4485 3089 c-16 -5 -46 -12 -65 -15 -19 -3 -37 -8 -40 -11 -8 -8 69
5 125 21 28 8 41 14 30 14 -11 0 -33 -4 -50 -9z"/>
<path d="M4635 3090 c-3 -5 1 -10 10 -10 9 0 13 5 10 10 -3 6 -8 10 -10 10 -2
0 -7 -4 -10 -10z"/>
<path d="M4775 3093 c-31 -7 -40 -21 -11 -16 15 3 29 9 32 14 3 5 4 8 2 8 -2
-1 -12 -3 -23 -6z"/>
<path d="M5010 3090 l-95 -6 97 -2 c56 -1 99 2 103 8 3 6 3 9 -2 8 -4 -1 -51
-5 -103 -8z"/>
<path d="M1090 3080 c0 -6 17 -10 37 -10 42 0 38 11 -7 16 -16 2 -30 -1 -30
-6z"/>
<path d="M3958 3049 c-43 -21 -78 -41 -78 -44 0 -3 36 13 80 35 44 22 80 42
80 45 0 7 4 8 -82 -36z"/>
<path d="M4165 3080 c-13 -6 -15 -9 -5 -9 8 0 22 4 30 9 18 12 2 12 -25 0z"/>
<path d="M4600 3080 c0 -5 5 -10 11 -10 5 0 7 5 4 10 -3 6 -8 10 -11 10 -2 0
-4 -4 -4 -10z"/>
<path d="M4855 3079 c-15 -7 -13 -8 12 -3 27 4 32 2 36 -18 4 -20 4 -20 6 5 1
29 -15 34 -54 16z"/>
<path d="M2643 3063 c9 -2 25 -2 35 0 9 3 1 5 -18 5 -19 0 -27 -2 -17 -5z"/>
<path d="M4075 3055 c-39 -18 -31 -18 25 -1 25 8 36 15 25 15 -11 0 -33 -6
-50 -14z"/>
<path d="M4530 3060 c-20 -6 -21 -8 -5 -8 11 0 29 3 40 8 25 11 -1 11 -35 0z"/>
<path d="M4785 3060 c-13 -5 -14 -9 -5 -9 8 0 24 4 35 9 13 5 14 9 5 9 -8 0
-24 -4 -35 -9z"/>
<path d="M4095 3024 c-65 -19 -121 -37 -125 -41 -3 -3 6 -3 20 0 43 9 245 68
249 73 10 10 -31 1 -144 -32z"/>
<path d="M4276 3044 c-71 -22 -52 -25 29 -4 39 10 59 18 45 18 -14 1 -47 -6
-74 -14z"/>
<path d="M4455 3050 c-18 -8 -18 -9 -2 -9 10 -1 16 -5 13 -10 -3 -4 7 -6 22
-2 27 5 27 5 3 9 -19 3 -21 6 -10 13 18 11 1 10 -26 -1z"/>
<path d="M3997 3030 c-21 -10 -54 -24 -73 -30 -20 -7 -33 -14 -31 -16 6 -7
109 33 133 51 26 19 17 18 -29 -5z"/>
<path d="M4675 3035 c-39 -17 -21 -18 25 0 19 7 28 14 20 14 -8 0 -28 -6 -45
-14z"/>
<path d="M480 3018 c0 -5 21 -8 47 -8 25 0 43 3 39 8 -10 9 -86 9 -86 0z"/>
<path d="M615 3019 c-4 -6 32 -9 99 -7 58 1 106 5 106 8 0 11 -199 10 -205 -1z"/>
<path d="M830 3020 c0 -5 23 -10 50 -10 28 0 50 5 50 10 0 6 -22 10 -50 10
-27 0 -50 -4 -50 -10z"/>
<path d="M940 3018 c0 -4 32 -7 70 -7 39 1 70 4 70 8 0 4 -31 7 -70 7 -38 0
-70 -3 -70 -8z"/>
<path d="M1094 3018 c-3 -4 5 -8 18 -9 13 0 31 -2 40 -4 10 -2 20 0 23 5 3 4
-13 10 -36 12 -22 2 -43 0 -45 -4z"/>
<path d="M4348 3023 c7 -3 16 -2 19 1 4 3 -2 6 -13 5 -11 0 -14 -3 -6 -6z"/>
<path d="M4810 3019 l-45 -6 55 -1 c30 -1 61 2 69 7 16 10 -10 10 -79 0z"/>
<path d="M4924 3019 c-5 -8 21 -9 92 -4 55 4 101 9 103 11 2 2 -39 4 -92 4
-60 0 -98 -4 -103 -11z"/>
<path d="M212 3013 c49 -2 127 -2 175 0 49 1 9 3 -87 3 -96 0 -136 -2 -88 -3z"/>
<path d="M1200 3009 c0 -5 9 -9 20 -9 11 0 20 2 20 4 0 2 -9 6 -20 9 -11 3
-20 1 -20 -4z"/>
<path d="M4298 3013 c7 -3 16 -2 19 1 4 3 -2 6 -13 5 -11 0 -14 -3 -6 -6z"/>
<path d="M4428 3013 c7 -3 16 -2 19 1 4 3 -2 6 -13 5 -11 0 -14 -3 -6 -6z"/>
<path d="M4598 3013 c-10 -2 -18 -9 -18 -14 0 -6 10 -5 23 2 37 20 36 23 -5
12z"/>
<path d="M4713 3013 c-18 -2 -33 -8 -33 -13 0 -8 67 4 77 14 4 3 2 5 -3 4 -5
0 -24 -3 -41 -5z"/>
<path d="M1255 3000 c-4 -6 3 -10 14 -10 25 0 27 6 6 13 -8 4 -17 2 -20 -3z"/>
<path d="M4258 3003 c7 -3 16 -2 19 1 4 3 -2 6 -13 5 -11 0 -14 -3 -6 -6z"/>
<path d="M4520 2999 c0 -5 5 -7 10 -4 6 3 10 8 10 11 0 2 -4 4 -10 4 -5 0 -10
-5 -10 -11z"/>
<path d="M3509 2983 c-12 -15 -12 -16 4 -10 10 4 23 7 28 7 5 0 9 5 9 10 0 16
-26 12 -41 -7z"/>
<path d="M4185 2990 c-13 -6 -15 -9 -5 -9 8 0 22 4 30 9 18 12 2 12 -25 0z"/>
<path d="M4443 2989 c-18 -5 -33 -12 -33 -15 0 -8 63 6 75 17 11 11 1 10 -42
-2z"/>
<path d="M4523 2975 c-17 -8 -98 -30 -180 -50 -81 -19 -162 -40 -179 -45 -17
-6 -42 -10 -57 -10 -15 0 -27 -5 -27 -10 0 -6 10 -8 23 -5 234 53 444 110 462
126 13 13 -4 10 -42 -6z"/>
<path d="M1320 2970 c8 -5 20 -10 25 -10 6 0 3 5 -5 10 -8 5 -19 10 -25 10 -5
0 -3 -5 5 -10z"/>
<path d="M4105 2964 l-30 -14 35 6 c19 3 39 10 45 15 14 14 -16 9 -50 -7z"/>
<path d="M4265 2945 c-71 -19 -143 -37 -160 -41 -16 -3 -25 -8 -19 -11 21 -7
288 60 309 79 5 4 7 8 5 7 -3 0 -63 -16 -135 -34z"/>
<path d="M890 2949 c-58 -3 -100 -6 -95 -8 20 -6 446 -3 452 3 4 3 -14 6 -38
6 -24 1 -82 2 -129 3 -47 1 -132 0 -190 -4z"/>
<path d="M3570 2951 c0 -6 5 -13 10 -16 6 -3 10 1 10 9 0 9 -4 16 -10 16 -5 0
-10 -4 -10 -9z"/>
<path d="M4596 2948 c-43 -5 -86 -13 -95 -19 -13 -8 -13 -9 4 -5 11 3 54 8 96
11 42 4 82 11 90 16 17 10 19 10 -95 -3z"/>
<path d="M4715 2950 c-3 -4 88 -8 202 -9 113 -1 204 1 202 3 -8 8 -399 13
-404 6z"/>
<path d="M545 2939 l-100 -5 133 -2 c72 -1 132 2 132 7 0 9 -10 9 -165 0z"/>
<path d="M720 2940 c0 -5 5 -10 10 -10 6 0 10 5 10 10 0 6 -4 10 -10 10 -5 0
-10 -4 -10 -10z"/>
<path d="M750 2940 c0 -5 7 -10 15 -10 8 0 15 5 15 10 0 6 -7 10 -15 10 -8 0
-15 -4 -15 -10z"/>
<path d="M3458 2943 c7 -3 16 -2 19 1 4 3 -2 6 -13 5 -11 0 -14 -3 -6 -6z"/>
<path d="M3830 2942 l-165 -2 0 -510 c0 -281 -1 -510 -3 -510 -2 0 -56 36
-119 80 l-117 80 -232 0 c-162 0 -241 4 -261 12 -26 12 -23 13 47 18 l75 6
-95 2 -95 1 30 -22 c42 -31 70 -59 261 -261 93 -98 205 -210 248 -247 l79 -69
278 0 c241 0 279 -2 279 -15 0 -8 -10 -16 -22 -16 -75 -5 -103 -10 -112 -19
-8 -8 0 -10 29 -6 22 3 61 8 88 11 27 4 45 10 41 16 -3 5 -5 336 -5 735 l1
724 -33 -2 c-17 -2 -106 -4 -197 -6z m200 -711 l0 -691 -255 0 c-198 0 -263 3
-289 14 -31 13 -233 208 -411 397 -117 123 -131 111 121 107 l219 -3 109 -72
c108 -73 148 -87 160 -57 3 9 6 235 6 502 l0 487 170 3 170 3 0 -690z"/>
<path d="M1940 2918 c-30 -5 -200 -8 -378 -6 l-322 3 0 -267 c0 -236 2 -268
16 -268 8 0 39 -11 67 -24 29 -14 64 -29 79 -35 36 -14 548 -26 529 -13 -8 6
-57 11 -110 11 -308 4 -422 15 -456 42 -6 4 -32 13 -58 20 -26 6 -45 14 -42
18 4 3 163 8 353 11 l347 5 3 225 c1 124 4 235 7 248 7 27 25 20 26 -11 0 -19
1 -20 8 -4 6 16 10 15 41 -16 20 -18 42 -38 51 -43 20 -12 80 -89 78 -100 -1
-5 -1 -25 0 -44 1 -27 4 -31 11 -20 16 24 11 73 -9 106 -16 26 -176 177 -184
173 -1 -1 -27 -6 -57 -11z m12 -245 c-2 -124 -8 -222 -13 -228 -6 -6 -138 -11
-342 -13 l-332 -3 2 153 c2 84 3 188 3 231 l0 77 343 0 342 0 -3 -217z"/>
<path d="M3345 2923 l-120 -4 -274 -277 c-190 -193 -279 -290 -293 -320 -11
-24 -18 -46 -16 -48 3 -2 14 18 27 45 12 27 38 64 59 82 20 19 64 62 98 96 51
51 59 56 46 30 -9 -18 -30 -53 -49 -79 l-32 -47 296 6 c206 4 294 3 290 -4 -4
-6 -19 -14 -33 -17 -15 -4 -43 -18 -63 -32 -19 -13 -40 -24 -45 -24 -5 0 -29
-10 -53 -22 -38 -19 -47 -20 -65 -9 -18 11 -20 11 -15 -3 4 -10 1 -13 -8 -9
-8 3 -13 8 -10 12 2 4 -24 6 -58 5 -34 -2 -121 -5 -193 -7 -111 -3 -135 -7
-156 -23 -57 -46 -52 -48 108 -41 82 4 184 7 227 7 63 0 77 3 77 16 0 10 -6
14 -17 10 -16 -4 -325 -11 -360 -7 -7 0 -13 5 -13 10 0 15 326 20 420 7 48 -7
34 -13 265 107 28 14 58 28 68 31 16 5 17 26 17 261 0 140 -1 254 -2 253 -2
-1 -57 -4 -123 -5z m95 -253 l0 -230 -22 -4 c-13 -3 -150 -7 -306 -10 l-283
-5 22 37 c55 91 91 134 237 283 l155 159 98 0 99 0 0 -230z"/>
<path d="M4898 2920 c-2 -5 -95 -11 -218 -14 -160 -3 -244 -9 -330 -25 -136
-25 -273 -58 -245 -60 11 0 40 4 65 10 25 6 56 13 70 15 14 2 43 8 65 13 109
26 177 32 381 34 201 2 220 3 221 20 2 18 -3 23 -9 7z"/>
<path d="M3608 2902 l-28 -17 0 -439 c0 -242 2 -437 5 -434 6 6 13 275 14 599
l1 266 25 11 c14 6 25 16 25 22 0 14 -11 12 -42 -8z"/>
<path d="M5015 2910 l-100 -6 97 -2 c56 -1 99 2 103 8 3 6 5 9 3 8 -2 -1 -48
-5 -103 -8z"/>
<path d="M3540 2870 c-9 -6 -10 -10 -3 -10 6 0 15 5 18 10 8 12 4 12 -15 0z"/>
<path d="M4888 2869 c-2 -7 -88 -12 -248 -15 -281 -6 -560 -39 -560 -66 0 -5
8 -7 18 -4 126 37 312 56 557 56 221 0 255 4 255 26 0 16 -17 19 -22 3z"/>
<path d="M510 2859 c-32 -4 -18 -6 50 -7 52 0 115 3 140 8 36 7 27 8 -50 7
-52 -1 -115 -4 -140 -8z"/>
<path d="M758 2863 c6 -2 18 -2 25 0 6 3 1 5 -13 5 -14 0 -19 -2 -12 -5z"/>
<path d="M813 2864 c3 -3 78 -7 166 -9 88 -2 178 -6 200 -10 24 -4 41 -3 41 3
0 5 -17 12 -37 16 -49 8 -378 8 -370 0z"/>
<path d="M4953 2853 c9 -2 23 -2 30 0 6 3 -1 5 -18 5 -16 0 -22 -2 -12 -5z"/>
<path d="M2003 2785 c0 -27 2 -38 4 -22 2 15 2 37 0 50 -2 12 -4 0 -4 -28z"/>
<path d="M453 2803 c9 -2 23 -2 30 0 6 3 -1 5 -18 5 -16 0 -22 -2 -12 -5z"/>
<path d="M610 2789 c52 -4 176 -7 274 -8 99 0 207 -6 242 -12 34 -6 71 -9 81
-7 54 12 -157 28 -407 31 -165 2 -245 1 -190 -4z"/>
<path d="M4498 2783 c7 -3 16 -2 19 1 4 3 -2 6 -13 5 -11 0 -14 -3 -6 -6z"/>
<path d="M4413 2773 c15 -2 37 -2 50 0 12 2 0 4 -28 4 -27 0 -38 -2 -22 -4z"/>
<path d="M700 2760 c0 -15 95 -30 292 -45 109 -9 205 -18 213 -21 8 -4 15 -2
15 4 0 16 -112 31 -278 37 -84 3 -172 12 -197 20 -25 7 -45 9 -45 5z"/>
<path d="M4170 2760 l-85 -6 80 -1 c44 0 112 3 150 7 l70 7 -65 0 c-36 -1
-103 -4 -150 -7z"/>
<path d="M2001 2704 c0 -11 3 -14 6 -6 3 7 2 16 -1 19 -3 4 -6 -2 -5 -13z"/>
<path d="M4198 2682 c-69 -1 -118 -7 -118 -13 0 -5 11 -7 25 -3 14 3 249 9
523 14 l497 7 -405 -1 c-223 0 -458 -2 -522 -4z"/>
<path d="M730 2669 c201 -5 322 -12 380 -23 97 -18 118 -20 104 -8 -5 5 -65
16 -134 25 -94 13 -190 17 -385 15 l-260 -2 295 -7z"/>
<path d="M1994 2505 c0 -49 1 -71 3 -48 2 23 2 64 0 90 -2 26 -3 8 -3 -42z"/>
<path d="M525 2481 c-44 -3 69 -6 250 -7 182 0 356 -4 388 -8 33 -4 57 -4 57
2 0 19 -477 28 -695 13z"/>
<path d="M4320 2470 l-235 -6 275 0 c151 -1 385 2 520 6 l245 6 -285 0 c-157
0 -391 -3 -520 -6z"/>
<path d="M655 2430 c3 -5 8 -10 11 -10 2 0 4 5 4 10 0 6 -5 10 -11 10 -5 0 -7
-4 -4 -10z"/>
<path d="M4080 2428 c0 -4 234 -8 520 -8 286 0 520 3 520 8 0 4 -234 7 -520 8
-286 0 -520 -3 -520 -8z"/>
<path d="M2743 2367 c-35 -64 -30 -68 11 -8 16 22 26 46 24 52 -2 7 -18 -13
-35 -44z"/>
<path d="M470 2402 c0 -5 53 -9 118 -10 76 -1 110 2 97 8 -26 11 -215 13 -215
2z"/>
<path d="M803 2383 c9 -2 23 -2 30 0 6 3 -1 5 -18 5 -16 0 -22 -2 -12 -5z"/>
<path d="M900 2380 c-35 -4 13 -7 133 -8 123 -1 186 1 182 8 -7 11 -225 11
-315 0z"/>
<path d="M1995 2380 c3 -5 8 -10 11 -10 2 0 4 5 4 10 0 6 -5 10 -11 10 -5 0
-7 -4 -4 -10z"/>
<path d="M4080 2368 c0 -4 235 -7 523 -7 287 1 513 3 502 5 -47 7 -1025 9
-1025 2z"/>
<path d="M2639 2353 c-13 -16 -12 -17 4 -4 16 13 21 21 13 21 -2 0 -10 -8 -17
-17z"/>
<path d="M929 2327 c4 -4 97 -6 207 -5 l199 3 -207 5 c-114 3 -204 2 -199 -3z"/>
<path d="M3134 2308 c-7 -11 18 -10 36 2 11 7 10 9 -8 7 -13 -1 -26 -5 -28 -9z"/>
<path d="M2569 2293 c-13 -16 -12 -17 4 -4 16 13 21 21 13 21 -2 0 -10 -8 -17
-17z"/>
<path d="M1290 2273 c-19 -2 -100 -8 -180 -13 l-145 -9 175 6 c96 3 202 9 235
13 l60 7 -55 0 c-30 0 -71 -2 -90 -4z"/>
<path d="M760 2252 c0 -4 -69 -9 -152 -11 -84 -1 -155 -4 -157 -7 -2 -2 83 -4
190 -4 107 0 232 -3 279 -6 47 -4 82 -4 79 0 -7 8 -63 13 -164 15 -43 1 -56 4
-45 11 12 8 11 10 -7 10 -13 0 -23 -4 -23 -8z"/>
<path d="M1640 2227 c-52 -27 -53 -28 -18 -22 54 8 141 36 135 42 -15 14 -68
6 -117 -20z"/>
<path d="M1598 2243 c12 -2 30 -2 40 0 9 3 -1 5 -23 4 -22 0 -30 -2 -17 -4z"/>
<path d="M4843 2235 c-3 -9 -3 -19 1 -22 3 -4 6 1 6 10 0 10 5 17 11 17 6 0 8
-7 4 -17 -5 -14 -3 -15 6 -6 12 12 5 33 -12 33 -5 0 -12 -7 -16 -15z"/>
<path d="M4891 2233 c-1 -23 0 -23 117 -21 l117 2 -112 3 c-95 3 -112 6 -116
21 -3 12 -5 11 -6 -5z"/>
<path d="M3180 2214 c25 -14 53 -26 62 -27 10 -1 18 -5 18 -9 0 -4 9 -8 20 -8
11 0 20 -5 20 -11 0 -5 4 -8 9 -5 4 3 17 -1 27 -9 10 -8 23 -15 29 -15 19 0
-13 20 -101 64 -98 49 -161 64 -84 20z"/>
<path d="M1418 2223 c7 -3 16 -2 19 1 4 3 -2 6 -13 5 -11 0 -14 -3 -6 -6z"/>
<path d="M3440 2220 c0 -5 5 -10 10 -10 6 0 10 5 10 10 0 6 -4 10 -10 10 -5 0
-10 -4 -10 -10z"/>
<path d="M4255 2220 l-180 -6 193 -2 c127 -1 191 1 187 8 -3 6 -9 9 -13 8 -4
-1 -88 -5 -187 -8z"/>
<path d="M4545 2223 c-16 -3 -34 -8 -39 -13 -11 -11 76 0 89 11 9 9 4 9 -50 2z"/>
<path d="M4610 2220 c0 -5 11 -10 25 -10 14 0 25 5 25 10 0 6 -11 10 -25 10
-14 0 -25 -4 -25 -10z"/>
<path d="M4680 2219 c0 -5 5 -7 10 -4 6 3 10 8 10 11 0 2 -4 4 -10 4 -5 0 -10
-5 -10 -11z"/>
<path d="M4730 2220 c0 -13 30 -13 50 0 11 7 7 10 -17 10 -18 0 -33 -4 -33
-10z"/>
<path d="M4800 2220 c0 -5 4 -10 9 -10 6 0 13 5 16 10 3 6 -1 10 -9 10 -9 0
-16 -4 -16 -10z"/>
<path d="M1378 2213 c7 -3 16 -2 19 1 4 3 -2 6 -13 5 -11 0 -14 -3 -6 -6z"/>
<path d="M2570 2177 c-25 -23 -54 -52 -64 -65 l-19 -22 32 11 c17 6 36 19 41
29 5 9 25 25 45 34 19 10 33 22 29 27 -3 5 0 8 7 7 6 -2 13 2 15 7 2 6 -6 11
-18 12 -15 2 -39 -13 -68 -40z"/>
<path d="M466 2203 c5 -5 185 -6 399 -3 l390 6 -399 2 c-220 1 -396 -1 -390
-5z"/>
<path d="M1746 2195 c-9 -26 -7 -32 5 -12 6 10 9 21 6 23 -2 3 -7 -2 -11 -11z"/>
<path d="M3138 2185 c30 -14 59 -25 65 -24 15 0 -91 49 -107 49 -6 0 13 -11
42 -25z"/>
<path d="M3070 2176 c14 -9 32 -15 40 -15 13 0 13 1 0 8 -8 5 -26 12 -40 15
l-25 7 25 -15z"/>
<path d="M4891 2174 c0 -11 3 -14 6 -6 3 7 2 16 -1 19 -3 4 -6 -2 -5 -13z"/>
<path d="M2700 2176 c0 -3 20 -26 46 -52 l45 -48 -3 -218 -3 -218 -32 -30
c-18 -17 -35 -30 -39 -30 -3 0 -22 -13 -41 -30 -18 -16 -31 -30 -27 -30 4 0
-5 -9 -19 -20 -23 -18 -40 -20 -181 -20 -148 0 -156 1 -167 21 -8 15 -9 68 -6
168 3 80 2 135 -2 121 -13 -40 -13 -267 -1 -290 9 -16 8 -20 -5 -20 -8 0 -15
-4 -15 -10 0 -6 66 -10 178 -10 l177 0 98 82 97 81 0 232 0 233 -45 46 c-41
42 -55 53 -55 42z"/>
<path d="M295 2150 c-119 -4 -47 -6 217 -5 218 0 394 3 391 8 -5 8 -316 6
-608 -3z"/>
<path d="M930 2148 c0 -5 66 -7 148 -6 159 1 144 6 -36 10 -61 2 -112 0 -112
-4z"/>
<path d="M4080 2137 c0 -4 108 -7 241 -7 133 1 239 4 236 7 -9 8 -477 9 -477
0z"/>
<path d="M4570 2140 c0 -5 5 -10 10 -10 6 0 10 5 10 10 0 6 -4 10 -10 10 -5 0
-10 -4 -10 -10z"/>
<path d="M4600 2140 c0 -5 9 -10 21 -10 11 0 17 5 14 10 -3 6 -13 10 -21 10
-8 0 -14 -4 -14 -10z"/>
<path d="M4650 2138 c0 -4 7 -8 15 -8 8 0 15 4 15 8 0 5 -7 9 -15 9 -8 0 -15
-4 -15 -9z"/>
<path d="M4705 2140 c-3 -5 1 -10 10 -10 9 0 13 5 10 10 -3 6 -8 10 -10 10 -2
0 -7 -4 -10 -10z"/>
<path d="M4740 2138 c0 -11 38 -10 44 1 3 5 -5 8 -19 7 -14 0 -25 -4 -25 -8z"/>
<path d="M4800 2140 c0 -5 9 -10 20 -10 11 0 20 5 20 10 0 6 -9 10 -20 10 -11
0 -20 -4 -20 -10z"/>
<path d="M4855 2140 c-3 -5 1 -10 9 -10 9 0 16 5 16 10 0 6 -4 10 -9 10 -6 0
-13 -4 -16 -10z"/>
<path d="M4897 2143 c-4 -3 -7 -20 -7 -36 0 -39 11 -28 14 12 2 34 2 34 -7 24z"/>
<path d="M4920 2143 c0 -9 189 -7 198 1 3 3 -40 6 -96 6 -56 0 -102 -3 -102
-7z"/>
<path d="M2350 2086 c-271 -254 -535 -514 -529 -521 2 -2 94 85 204 193 110
109 238 232 284 274 47 43 83 80 80 82 -2 2 -20 -10 -39 -28z"/>
<path d="M465 2100 c-4 -6 5 -10 20 -10 15 0 24 4 20 10 -3 6 -12 10 -20 10
-8 0 -17 -4 -20 -10z"/>
<path d="M526 2102 c-2 -4 41 -6 97 -4 148 4 159 9 25 11 -64 0 -119 -3 -122
-7z"/>
<path d="M785 2100 c28 -12 67 -12 60 0 -3 6 -23 10 -43 9 -30 0 -33 -2 -17
-9z"/>
<path d="M2850 2108 c0 -3 11 -26 25 -49 24 -41 25 -52 24 -171 l-1 -128 93
-107 c52 -59 111 -126 133 -150 l39 -43 363 0 c236 0 364 4 364 10 0 8 -655
18 -709 10 -8 -1 -17 3 -20 8 -14 22 -174 203 -228 258 -21 21 -23 32 -23 138
0 82 4 116 13 119 10 4 10 6 0 6 -7 1 -13 7 -13 15 0 8 -6 21 -13 28 -7 7 -21
24 -30 38 -9 13 -17 22 -17 18z"/>
<path d="M3078 2103 c12 -2 32 -2 45 0 12 2 2 4 -23 4 -25 0 -35 -2 -22 -4z"/>
<path d="M4175 2100 c55 -5 145 -15 200 -23 92 -14 116 -14 104 -3 -3 3 -36 8
-74 11 -39 4 -79 9 -90 11 -11 3 -69 7 -130 9 l-110 4 100 -9z"/>
<path d="M318 2093 c7 -3 16 -2 19 1 4 3 -2 6 -13 5 -11 0 -14 -3 -6 -6z"/>
<path d="M358 2093 c7 -3 16 -2 19 1 4 3 -2 6 -13 5 -11 0 -14 -3 -6 -6z"/>
<path d="M403 2093 c9 -2 25 -2 35 0 9 3 1 5 -18 5 -19 0 -27 -2 -17 -5z"/>
<path d="M953 2083 c9 -2 25 -2 35 0 9 3 1 5 -18 5 -19 0 -27 -2 -17 -5z"/>
<path d="M1086 2081 c-3 -4 6 -7 19 -7 14 0 22 2 19 5 -8 8 -34 10 -38 2z"/>
<path d="M1178 2073 c7 -3 16 -2 19 1 4 3 -2 6 -13 5 -11 0 -14 -3 -6 -6z"/>
<path d="M2749 2076 c-3 -3 -65 -6 -139 -6 -131 -2 -164 -9 -154 -33 2 -7 -32
-48 -76 -92 l-80 -80 0 -172 0 -173 138 0 137 0 97 93 97 92 4 188 c4 143 2
187 -7 187 -7 0 -15 -2 -17 -4z m1 -195 l0 -169 -42 -35 c-24 -19 -67 -58 -96
-86 l-53 -51 -120 0 -119 0 0 153 0 153 97 102 97 102 118 0 118 0 0 -169z"/>
<path d="M4495 2070 c3 -5 8 -10 11 -10 2 0 4 5 4 10 0 6 -5 10 -11 10 -5 0
-7 -4 -4 -10z"/>
<path d="M4529 2071 c15 -10 158 -15 149 -6 -3 4 -41 8 -84 10 -43 2 -72 0
-65 -4z"/>
<path d="M4705 2070 c-3 -5 -1 -10 4 -10 6 0 11 5 11 10 0 6 -2 10 -4 10 -3 0
-8 -4 -11 -10z"/>
<path d="M4773 2063 c9 -2 23 -2 30 0 6 3 -1 5 -18 5 -16 0 -22 -2 -12 -5z"/>
<path d="M4850 2060 c0 -5 7 -10 15 -10 8 0 15 5 15 10 0 6 -7 10 -15 10 -8 0
-15 -4 -15 -10z"/>
<path d="M4933 2058 c6 -4 53 -7 102 -7 50 0 86 2 80 4 -21 8 -194 11 -182 3z"/>
<path d="M565 2049 c-64 -3 -4 -6 168 -7 147 -1 267 1 267 6 0 8 -289 10 -435
1z"/>
<path d="M1015 2050 c-3 -5 1 -10 10 -10 9 0 13 5 10 10 -3 6 -8 10 -10 10 -2
0 -7 -4 -10 -10z"/>
<path d="M1080 2050 c0 -6 7 -10 15 -10 8 0 15 2 15 4 0 2 -7 6 -15 10 -8 3
-15 1 -15 -4z"/>
<path d="M1120 2048 c0 -4 9 -8 20 -8 11 0 20 4 20 8 0 4 -9 8 -20 8 -11 0
-20 -4 -20 -8z"/>
<path d="M4088 2053 c6 -2 18 -2 25 0 6 3 1 5 -13 5 -14 0 -19 -2 -12 -5z"/>
<path d="M4165 2039 c22 -4 51 -8 65 -7 23 0 22 1 -5 8 -16 4 -46 8 -65 8
l-35 0 40 -9z"/>
<path d="M4270 2024 c52 -13 160 -30 160 -24 0 7 -130 31 -158 29 -13 -1 -13
-2 -2 -5z"/>
<path d="M736 2011 c-3 -5 5 -8 18 -7 13 0 22 4 19 9 -6 10 -31 9 -37 -2z"/>
<path d="M4085 2010 c3 -5 14 -10 23 -10 15 0 15 2 2 10 -20 13 -33 13 -25 0z"/>
<path d="M648 2003 c12 -2 32 -2 45 0 12 2 2 4 -23 4 -25 0 -35 -2 -22 -4z"/>
<path d="M1093 1999 c-15 -6 -13 -8 7 -8 14 0 34 4 45 9 17 8 17 9 -7 7 -15
-1 -35 -4 -45 -8z"/>
<path d="M4135 2002 c6 -6 60 -20 120 -32 61 -11 118 -23 128 -25 9 -2 17 1
17 6 0 5 -12 9 -27 9 -29 0 -193 33 -228 46 -14 5 -17 4 -10 -4z"/>
<path d="M4448 2003 c7 -3 16 -2 19 1 4 3 -2 6 -13 5 -11 0 -14 -3 -6 -6z"/>
<path d="M4505 2002 c11 -12 121 -19 132 -9 3 4 -19 7 -50 7 -30 0 -64 3 -74
6 -12 5 -15 4 -8 -4z"/>
<path d="M538 1993 c18 -2 45 -2 60 0 15 2 0 4 -33 4 -33 0 -45 -2 -27 -4z"/>
<path d="M997 1988 c-7 -4 5 -8 25 -8 20 0 39 4 43 10 7 11 -50 9 -68 -2z"/>
<path d="M4655 1991 c8 -7 165 -7 165 0 0 4 -38 6 -85 6 -47 0 -83 -3 -80 -6z"/>
<path d="M4850 1990 c19 -13 30 -13 30 0 0 6 -10 10 -22 10 -19 0 -20 -2 -8
-10z"/>
<path d="M4923 1988 c-2 -5 42 -7 99 -6 106 1 96 5 -25 10 -38 2 -71 0 -74 -4z"/>
<path d="M438 1983 c7 -3 16 -2 19 1 4 3 -2 6 -13 5 -11 0 -14 -3 -6 -6z"/>
<path d="M825 1973 c-213 -23 -365 -42 -295 -38 157 10 416 38 425 46 5 5 7 8
5 8 -3 -1 -63 -8 -135 -16z"/>
<path d="M4080 1971 c0 -11 95 -35 112 -28 7 3 3 6 -8 6 -12 1 -40 8 -63 16
-22 8 -41 10 -41 6z"/>
<path d="M4895 1970 c-3 -5 -1 -10 4 -10 6 0 11 5 11 10 0 6 -2 10 -4 10 -3 0
-8 -4 -11 -10z"/>
<path d="M1165 1951 c-22 -10 -64 -23 -93 -30 -28 -7 -55 -18 -58 -23 -7 -12
4 -9 124 30 45 14 82 30 82 34 0 12 -10 10 -55 -11z"/>
<path d="M4415 1950 c-3 -5 -1 -10 4 -10 6 0 11 5 11 10 0 6 -2 10 -4 10 -3 0
-8 -4 -11 -10z"/>
<path d="M4448 1943 c7 -3 16 -2 19 1 4 3 -2 6 -13 5 -11 0 -14 -3 -6 -6z"/>
<path d="M4488 1943 c7 -3 16 -2 19 1 4 3 -2 6 -13 5 -11 0 -14 -3 -6 -6z"/>
<path d="M4525 1940 c-3 -5 -1 -10 4 -10 6 0 11 5 11 10 0 6 -2 10 -4 10 -3 0
-8 -4 -11 -10z"/>
<path d="M4218 1933 c7 -3 16 -2 19 1 4 3 -2 6 -13 5 -11 0 -14 -3 -6 -6z"/>
<path d="M760 1914 l-35 -14 35 6 c36 6 46 11 39 18 -2 2 -20 -3 -39 -10z"/>
<path d="M4713 1923 c9 -2 25 -2 35 0 9 3 1 5 -18 5 -19 0 -27 -2 -17 -5z"/>
<path d="M4085 1910 c3 -5 13 -10 21 -10 8 0 12 5 9 10 -3 6 -13 10 -21 10 -8
0 -12 -4 -9 -10z"/>
<path d="M4318 1913 c6 -2 18 -2 25 0 6 3 1 5 -13 5 -14 0 -19 -2 -12 -5z"/>
<path d="M4138 1898 c5 -5 16 -8 23 -6 8 3 3 7 -10 11 -17 4 -21 3 -13 -5z"/>
<path d="M4420 1900 c0 -5 5 -10 11 -10 5 0 7 5 4 10 -3 6 -8 10 -11 10 -2 0
-4 -4 -4 -10z"/>
<path d="M698 1893 c7 -3 16 -2 19 1 4 3 -2 6 -13 5 -11 0 -14 -3 -6 -6z"/>
<path d="M1140 1891 c-8 -6 -18 -7 -22 -5 -4 3 -8 0 -8 -6 0 -12 38 -4 55 11
12 12 -6 12 -25 0z"/>
<path d="M4568 1893 c7 -3 16 -2 19 1 4 3 -2 6 -13 5 -11 0 -14 -3 -6 -6z"/>
<path d="M4895 1890 c3 -5 8 -10 11 -10 2 0 4 5 4 10 0 6 -5 10 -11 10 -5 0
-7 -4 -4 -10z"/>
<path d="M595 1880 l-40 -7 43 -2 c23 0 42 4 42 9 0 6 -1 9 -2 9 -2 -1 -21 -5
-43 -9z"/>
<path d="M658 1883 c7 -3 16 -2 19 1 4 3 -2 6 -13 5 -11 0 -14 -3 -6 -6z"/>
<path d="M870 1880 c-11 -8 -7 -9 15 -4 37 8 45 14 19 14 -10 0 -26 -5 -34
-10z"/>
<path d="M4195 1880 c11 -5 27 -9 35 -9 9 0 8 4 -5 9 -11 5 -27 9 -35 9 -9 0
-8 -4 5 -9z"/>
<path d="M4643 1883 c9 -2 23 -2 30 0 6 3 -1 5 -18 5 -16 0 -22 -2 -12 -5z"/>
<path d="M817 1838 c-65 -22 -117 -42 -114 -44 4 -4 248 74 256 82 11 10 -34
-1 -142 -38z"/>
<path d="M4318 1873 c7 -3 16 -2 19 1 4 3 -2 6 -13 5 -11 0 -14 -3 -6 -6z"/>
<path d="M4703 1873 c9 -2 23 -2 30 0 6 3 -1 5 -18 5 -16 0 -22 -2 -12 -5z"/>
<path d="M828 1863 c7 -3 16 -2 19 1 4 3 -2 6 -13 5 -11 0 -14 -3 -6 -6z"/>
<path d="M1003 1837 c-40 -17 -71 -32 -69 -34 3 -4 157 55 165 63 12 11 -32
-2 -96 -29z"/>
<path d="M1155 1851 c-53 -25 -43 -26 20 -1 28 10 43 19 35 19 -8 0 -33 -8
-55 -18z"/>
<path d="M4095 1860 c11 -5 27 -9 35 -9 13 -1 13 0 0 9 -8 5 -24 9 -35 9 l-20
0 20 -9z"/>
<path d="M4803 1863 c9 -2 25 -2 35 0 9 3 1 5 -18 5 -19 0 -27 -2 -17 -5z"/>
<path d="M750 1850 c-20 -6 -21 -8 -5 -8 11 0 31 4 45 8 20 6 21 8 5 8 -11 0
-31 -4 -45 -8z"/>
<path d="M4150 1850 c0 -5 5 -10 11 -10 5 0 7 5 4 10 -3 6 -8 10 -11 10 -2 0
-4 -4 -4 -10z"/>
<path d="M1180 1836 c-36 -20 -242 -99 -257 -99 -7 0 -10 -4 -8 -7 4 -7 -149
-70 -171 -70 -11 0 -62 -39 -52 -40 10 0 157 61 271 112 49 22 95 37 103 34 8
-3 13 -2 10 3 -3 5 28 21 69 37 41 16 75 32 75 36 0 11 -11 9 -40 -6z"/>
<path d="M4323 1843 c9 -2 25 -2 35 0 9 3 1 5 -18 5 -19 0 -27 -2 -17 -5z"/>
<path d="M688 1833 c7 -3 16 -2 19 1 4 3 -2 6 -13 5 -11 0 -14 -3 -6 -6z"/>
<path d="M4180 1836 c0 -2 11 -6 25 -8 14 -3 25 -1 25 3 0 5 -11 9 -25 9 -14
0 -25 -2 -25 -4z"/>
<path d="M4390 1836 c0 -2 9 -6 20 -9 11 -3 20 -1 20 4 0 5 -9 9 -20 9 -11 0
-20 -2 -20 -4z"/>
<path d="M638 1823 c6 -2 18 -2 25 0 6 3 1 5 -13 5 -14 0 -19 -2 -12 -5z"/>
<path d="M588 1813 c7 -3 16 -2 19 1 4 3 -2 6 -13 5 -11 0 -14 -3 -6 -6z"/>
<path d="M4288 1813 c7 -3 16 -2 19 1 4 3 -2 6 -13 5 -11 0 -14 -3 -6 -6z"/>
<path d="M870 1793 c-14 -7 -18 -13 -10 -13 17 0 47 17 40 23 -3 2 -16 -2 -30
-10z"/>
<path d="M4175 1800 c3 -5 16 -10 28 -9 21 0 21 1 2 9 -28 12 -37 12 -30 0z"/>
<path d="M4421 1794 c0 -11 3 -14 6 -6 3 7 2 16 -1 19 -3 4 -6 -2 -5 -13z"/>
<path d="M4558 1803 c7 -3 16 -2 19 1 4 3 -2 6 -13 5 -11 0 -14 -3 -6 -6z"/>
<path d="M4653 1803 c9 -2 25 -2 35 0 9 3 1 5 -18 5 -19 0 -27 -2 -17 -5z"/>
<path d="M582 1772 c-51 -14 -90 -27 -88 -29 5 -5 165 36 186 48 24 13 2 9
-98 -19z"/>
<path d="M4105 1785 c17 -8 37 -14 45 -14 8 0 -1 7 -20 14 -46 18 -64 17 -25
0z"/>
<path d="M4748 1793 c7 -3 16 -2 19 1 4 3 -2 6 -13 5 -11 0 -14 -3 -6 -6z"/>
<path d="M4803 1783 c9 -2 23 -2 30 0 6 3 -1 5 -18 5 -16 0 -22 -2 -12 -5z"/>
<path d="M4953 1783 c15 -2 39 -2 55 0 15 2 2 4 -28 4 -30 0 -43 -2 -27 -4z"/>
<path d="M820 1770 c-9 -6 -10 -10 -3 -10 6 0 15 5 18 10 8 12 4 12 -15 0z"/>
<path d="M4263 1773 c9 -2 23 -2 30 0 6 3 -1 5 -18 5 -16 0 -22 -2 -12 -5z"/>
<path d="M780 1760 c-9 -6 -10 -10 -3 -10 6 0 15 5 18 10 8 12 4 12 -15 0z"/>
<path d="M1165 1750 c-79 -38 -191 -87 -260 -115 -86 -34 -135 -58 -130 -63 2
-2 14 2 27 9 12 7 28 14 33 14 6 1 19 5 30 10 11 4 65 27 120 51 133 56 235
104 235 109 0 8 -14 5 -55 -15z"/>
<path d="M4418 1730 c2 -16 6 -30 8 -30 2 0 4 14 4 30 0 17 -4 30 -8 30 -5 0
-7 -13 -4 -30z"/>
<path d="M4448 1743 c7 -3 16 -2 19 1 4 3 -2 6 -13 5 -11 0 -14 -3 -6 -6z"/>
<path d="M4080 1732 c0 -4 33 -17 73 -30 39 -13 79 -25 87 -28 8 -3 7 0 -3 6
-26 17 -157 60 -157 52z"/>
<path d="M550 1720 c-9 -6 -10 -10 -3 -10 6 0 15 5 18 10 8 12 4 12 -15 0z"/>
<path d="M680 1715 c-14 -8 -20 -14 -15 -14 6 0 21 6 35 14 14 8 21 14 15 14
-5 0 -21 -6 -35 -14z"/>
<path d="M810 1710 c-8 -5 -10 -10 -5 -10 6 0 17 5 25 10 8 5 11 10 5 10 -5 0
-17 -5 -25 -10z"/>
<path d="M2193 1651 c-18 -36 -51 -97 -73 -136 -22 -38 -40 -76 -40 -84 0 -7
15 15 33 50 18 35 52 99 76 141 23 43 41 82 39 86 -1 5 -18 -21 -35 -57z"/>
<path d="M1155 1686 c-27 -13 -61 -29 -75 -35 -14 -6 -17 -9 -7 -7 27 8 20 -2
-13 -19 -17 -9 -30 -11 -30 -5 0 5 5 10 12 10 6 0 9 2 6 5 -6 6 -145 -72 -283
-159 -49 -31 -130 -76 -179 -101 -106 -53 -114 -60 -62 -52 22 4 77 30 125 60
47 30 131 80 186 112 55 31 104 63 108 71 4 8 13 14 20 14 7 0 6 -4 -3 -10
-34 -22 4 -7 91 35 51 25 100 45 108 45 9 0 25 7 35 15 25 19 18 19 -29 -1
-20 -8 -34 -11 -31 -6 3 5 23 14 45 22 23 7 41 17 41 22 0 12 -10 10 -65 -16z
m-145 -91 c-33 -19 -50 -18 -26 0 11 8 27 15 35 15 10 -1 7 -6 -9 -15z"/>
<path d="M4328 1703 c7 -3 16 -2 19 1 4 3 -2 6 -13 5 -11 0 -14 -3 -6 -6z"/>
<path d="M4375 1690 c3 -4 21 -11 41 -14 19 -4 43 -9 52 -12 15 -5 15 -4 1 5
-20 13 -100 31 -94 21z"/>
<path d="M4090 1680 c0 -6 7 -10 15 -10 8 0 15 2 15 4 0 2 -7 6 -15 10 -8 3
-15 1 -15 -4z"/>
<path d="M665 1665 c-16 -8 -23 -14 -15 -14 8 0 26 6 40 14 32 18 15 18 -25 0z"/>
<path d="M4270 1662 c8 -5 26 -13 40 -16 17 -5 20 -4 10 2 -8 5 -26 13 -40 16
-17 5 -20 4 -10 -2z"/>
<path d="M615 1650 c-3 -5 -1 -10 4 -10 6 0 11 5 11 10 0 6 -2 10 -4 10 -3 0
-8 -4 -11 -10z"/>
<path d="M2136 1624 c-4 -9 -4 -19 -1 -22 2 -3 7 3 11 12 4 9 4 19 1 22 -2 3
-7 -3 -11 -12z"/>
<path d="M4341 1637 c9 -8 89 -36 89 -32 0 6 -69 35 -83 35 -6 0 -8 -2 -6 -3z"/>
<path d="M2823 1613 c3 -10 21 -56 40 -103 20 -47 38 -94 41 -104 4 -10 9 -17
12 -14 6 6 -85 238 -93 238 -3 0 -3 -8 0 -17z"/>
<path d="M4080 1620 c0 -6 7 -10 15 -10 8 0 15 2 15 4 0 2 -7 6 -15 10 -8 3
-15 1 -15 -4z"/>
<path d="M1188 1593 c-10 -2 -18 -9 -18 -14 0 -6 -5 -7 -12 -3 -6 4 -8 3 -5
-4 8 -11 57 6 57 21 0 4 -1 6 -2 6 -2 -1 -11 -3 -20 -6z"/>
<path d="M4469 1584 c19 -8 36 -12 39 -9 5 5 -43 25 -61 25 -7 -1 3 -7 22 -16z"/>
<path d="M620 1580 c-9 -6 -10 -10 -3 -10 6 0 15 5 18 10 8 12 4 12 -15 0z"/>
<path d="M740 1570 c-9 -6 -10 -10 -3 -10 6 0 15 5 18 10 8 12 4 12 -15 0z"/>
<path d="M4520 1571 c0 -8 41 -23 47 -17 2 1 -8 8 -22 14 -14 6 -25 8 -25 3z"/>
<path d="M1110 1555 c-14 -8 -20 -14 -14 -15 5 0 19 7 30 15 24 18 16 19 -16
0z"/>
<path d="M1035 1550 c-3 -6 1 -7 9 -4 18 7 21 14 7 14 -6 0 -13 -4 -16 -10z"/>
<path d="M2771 1524 c6 -22 15 -43 19 -48 5 -5 3 10 -3 32 -16 53 -29 66 -16
16z"/>
<path d="M1130 1540 c-8 -5 -10 -10 -5 -10 6 0 17 5 25 10 8 5 11 10 5 10 -5
0 -17 -5 -25 -10z"/>
<path d="M1789 1533 c-13 -16 -12 -17 4 -4 9 7 17 15 17 17 0 8 -8 3 -21 -13z"/>
<path d="M4387 1539 c7 -7 15 -10 18 -7 3 3 -2 9 -12 12 -14 6 -15 5 -6 -5z"/>
<path d="M650 1525 c-14 -8 -20 -14 -14 -15 5 0 19 7 30 15 24 18 16 19 -16 0z"/>
<path d="M990 1530 c-8 -5 -10 -10 -5 -10 6 0 17 5 25 10 8 5 11 10 5 10 -5 0
-17 -5 -25 -10z"/>
<path d="M1065 1529 c-24 -22 -84 -57 -89 -52 -2 3 -15 -2 -28 -11 -12 -9 -17
-16 -10 -16 8 0 10 -5 6 -12 -4 -8 -3 -10 2 -5 5 5 9 14 9 20 0 5 5 12 12 14
8 3 11 -4 8 -18 -2 -12 -1 -18 3 -15 4 4 7 13 7 19 0 10 24 28 81 63 11 7 17
14 14 17 -3 2 -9 1 -15 -4z"/>
<path d="M2065 1485 c-14 -30 -36 -80 -50 -110 -14 -30 -22 -55 -19 -55 4 0
74 144 95 198 17 45 -2 20 -26 -33z"/>
<path d="M1148 1514 c-38 -20 -36 -28 2 -9 17 9 30 18 30 20 0 7 -1 6 -32 -11z"/>
<path d="M949 1503 c-13 -16 -12 -17 4 -4 9 7 17 15 17 17 0 8 -8 3 -21 -13z"/>
<path d="M1085 1500 c-3 -6 1 -7 9 -4 18 7 21 14 7 14 -6 0 -13 -4 -16 -10z"/>
<path d="M1105 1441 c-33 -27 -64 -46 -69 -43 -5 3 -6 0 -1 -7 5 -9 13 -8 29
7 11 11 46 36 76 56 30 20 48 36 40 35 -8 0 -42 -22 -75 -48z"/>
<path d="M2008 1468 c-8 -13 -23 -39 -32 -59 -13 -28 -25 -38 -49 -43 -17 -4
-168 -6 -336 -6 -183 1 -308 -3 -314 -9 -5 -5 -11 -161 -15 -375 l-5 -366 334
0 334 0 0 367 c0 320 2 368 15 368 17 0 38 30 68 98 23 51 23 60 0 25z m-108
-482 l0 -356 -305 0 -305 0 0 349 0 350 38 3 c20 2 157 5 305 6 l267 4 0 -356z"/>
<path d="M1515 1212 c-16 -2 -33 -7 -37 -10 -14 -13 -17 -87 -6 -124 l11 -38
56 0 c31 0 62 4 68 8 16 10 36 116 28 142 -4 12 -16 20 -28 21 -12 0 -31 2
-42 3 -11 1 -33 1 -50 -2z m91 -87 l-9 -65 -51 0 -51 0 0 65 0 65 61 0 60 0
-10 -65z"/>
<path d="M1607 942 c-22 -24 -54 -138 -49 -174 3 -22 10 -29 39 -34 42 -8 142
1 155 14 5 5 7 53 6 108 l-3 99 -66 3 c-54 2 -68 0 -82 -16z m133 -94 l0 -88
-80 0 c-57 0 -80 4 -80 13 1 22 19 92 34 127 14 34 16 35 70 35 l56 0 0 -87z"/>
<path d="M895 1460 c-3 -5 -2 -10 4 -10 5 0 13 5 16 10 3 6 2 10 -4 10 -5 0
-13 -4 -16 -10z"/>
<path d="M1020 1459 c0 -5 5 -7 10 -4 6 3 10 8 10 11 0 2 -4 4 -10 4 -5 0 -10
-5 -10 -11z"/>
<path d="M639 1443 c-13 -16 -12 -17 4 -4 9 7 17 15 17 17 0 8 -8 3 -21 -13z"/>
<path d="M2797 1439 c4 -13 8 -18 11 -10 2 7 -1 18 -6 23 -8 8 -9 4 -5 -13z"/>
<path d="M4420 1450 c0 -5 5 -10 11 -10 5 0 7 5 4 10 -3 6 -8 10 -11 10 -2 0
-4 -4 -4 -10z"/>
<path d="M1041 1433 c-7 -8 -11 -16 -8 -19 2 -2 10 2 17 11 17 20 9 27 -9 8z"/>
<path d="M1150 1409 c-57 -42 -88 -69 -60 -54 17 9 109 74 125 87 27 24 -17 1
-65 -33z"/>
<path d="M880 1430 c-9 -6 -10 -10 -3 -10 6 0 15 5 18 10 8 12 4 12 -15 0z"/>
<path d="M1385 1410 c-21 -16 -35 -30 -31 -30 9 0 86 49 86 55 0 12 -20 3 -55
-25z"/>
<path d="M3195 1420 c10 -11 22 -20 26 -20 5 0 1 9 -8 20 -10 11 -22 20 -27
20 -5 0 -1 -9 9 -20z"/>
<path d="M3610 1437 c0 -2 14 -16 31 -33 32 -29 32 -29 15 -2 -14 21 -46 46
-46 35z"/>
<path d="M3773 1422 c10 -11 28 -22 40 -26 22 -5 22 -5 2 10 -11 9 -29 20 -40
26 -19 11 -20 10 -2 -10z"/>
<path d="M586 1421 c-4 -5 3 -7 14 -4 23 6 26 13 6 13 -8 0 -17 -4 -20 -9z"/>
<path d="M2270 1415 c0 -8 4 -15 8 -15 5 0 9 7 9 15 0 8 -4 15 -9 15 -4 0 -8
-7 -8 -15z"/>
<path d="M3900 1421 c0 -10 39 -36 45 -29 2 2 -8 11 -21 21 -13 10 -24 13 -24
8z"/>
<path d="M4978 1423 c7 -3 16 -2 19 1 4 3 -2 6 -13 5 -11 0 -14 -3 -6 -6z"/>
<path d="M5078 1423 c7 -3 16 -2 19 1 4 3 -2 6 -13 5 -11 0 -14 -3 -6 -6z"/>
<path d="M790 1411 c0 -7 -4 -9 -10 -6 -5 3 -10 1 -10 -4 0 -6 4 -11 9 -11 13
0 25 20 17 27 -3 4 -6 1 -6 -6z"/>
<path d="M823 1413 c9 -2 23 -2 30 0 6 3 -1 5 -18 5 -16 0 -22 -2 -12 -5z"/>
<path d="M984 1397 c-20 -17 -23 -24 -11 -24 9 0 15 4 14 8 -1 4 7 15 18 23
11 8 17 16 13 16 -4 0 -19 -10 -34 -23z"/>
<path d="M3724 1405 c11 -8 25 -15 30 -15 6 0 2 7 -8 15 -11 8 -25 15 -30 15
-6 0 -2 -7 8 -15z"/>
<path d="M4040 1396 c0 -2 9 -6 20 -9 11 -3 18 -1 14 4 -5 9 -34 13 -34 5z"/>
<path d="M4380 1390 c0 -5 5 -10 11 -10 5 0 7 5 4 10 -3 6 -8 10 -11 10 -2 0
-4 -4 -4 -10z"/>
<path d="M935 1371 c-3 -6 -10 -9 -14 -7 -4 3 -13 1 -20 -3 -9 -6 -4 -8 13 -8
25 0 44 13 33 23 -3 3 -8 0 -12 -5z"/>
<path d="M3605 1362 l-400 -2 0 -375 0 -375 411 0 410 0 -4 63 c-2 34 -5 68
-7 75 -3 9 -54 12 -210 12 l-205 0 0 81 0 80 121 -3 c116 -3 120 -2 115 17 -3
11 -6 48 -6 83 l0 63 -115 -3 -115 -3 0 60 0 60 210 -3 210 -3 0 85 c0 47 -3
86 -7 88 -5 2 -188 2 -408 0z m385 -82 l0 -60 -192 0 c-106 0 -199 -4 -207 -9
-16 -10 -22 -133 -8 -148 5 -4 55 -10 112 -11 114 -4 115 -5 115 -79 l0 -32
-112 -3 -113 -3 -3 -97 -3 -96 32 -7 c17 -4 110 -5 208 -4 l176 4 3 -52 3 -53
-386 0 -385 0 0 349 c1 214 5 351 10 353 6 2 177 4 380 6 l370 3 0 -61z"/>
<path d="M989 1358 c-7 -25 -7 -48 0 -43 6 3 9 14 8 25 -1 17 -5 26 -8 18z"/>
<path d="M2100 1011 c0 -192 -3 -361 -6 -377 l-6 -29 474 2 473 3 3 107 3 107
-96 91 c-52 51 -95 95 -95 100 0 4 48 57 108 117 106 108 107 109 106 156 -1
36 0 39 4 12 3 -27 6 -31 11 -16 4 10 5 31 3 47 l-4 29 -489 0 -489 0 0 -349z
m938 285 c3 -35 -1 -44 -40 -80 -98 -94 -168 -177 -168 -201 0 -18 25 -49 90
-112 l90 -87 0 -93 0 -93 -445 0 -445 0 0 349 0 350 48 3 c26 2 232 3 457 3
l410 0 3 -39z"/>
<path d="M2295 1196 c-18 -13 -19 -29 -20 -237 l0 -224 240 -3 c132 -2 255 0
273 3 49 9 44 44 -15 97 -26 24 -55 51 -64 60 -51 49 -67 53 -200 50 l-127 -4
-4 96 c-2 58 -8 100 -15 108 -10 10 -13 -12 -13 -106 l0 -117 139 2 c158 2
129 13 260 -102 l62 -54 -43 -7 c-24 -3 -140 -7 -259 -7 l-216 -1 5 213 c2
116 8 216 13 221 5 6 26 -2 51 -21 68 -47 75 -49 48 -16 -20 26 -75 63 -92 63
-2 0 -13 -6 -23 -14z"/>
<path d="M2650 1200 c0 -6 34 -10 81 -10 44 0 79 -3 77 -7 -2 -5 -13 -27 -24
-50 -10 -24 -21 -43 -24 -43 -3 0 -27 20 -53 45 -27 25 -53 45 -58 45 -15 0
11 -41 44 -69 60 -51 85 -48 116 16 35 72 25 83 -75 83 -49 0 -84 -4 -84 -10z"/>
<path d="M1015 1340 c-3 -5 -2 -10 4 -10 5 0 13 5 16 10 3 6 2 10 -4 10 -5 0
-13 -4 -16 -10z"/>
<path d="M1114 1338 c-3 -5 -20 -19 -38 -30 -27 -17 -28 -19 -6 -13 14 4 32
15 41 25 11 13 19 16 26 9 7 -7 13 -7 17 0 4 6 6 11 4 12 -26 6 -39 5 -44 -3z"/>
<path d="M1180 1340 c-8 -5 -10 -10 -5 -10 6 0 17 5 25 10 8 5 11 10 5 10 -5
0 -17 -5 -25 -10z"/>
<path d="M4967 1339 c7 -7 15 -10 18 -7 3 3 -2 9 -12 12 -14 6 -15 5 -6 -5z"/>
<path d="M760 1331 c0 -5 9 -7 20 -4 11 3 20 7 20 9 0 2 -9 4 -20 4 -11 0 -20
-4 -20 -9z"/>
<path d="M1942 1305 c0 -16 2 -22 5 -12 2 9 2 23 0 30 -3 6 -5 -1 -5 -18z"/>
<path d="M950 1310 c-9 -6 -10 -10 -3 -10 6 0 15 5 18 10 8 12 4 12 -15 0z"/>
<path d="M490 1280 c-9 -6 -10 -10 -3 -10 6 0 15 5 18 10 8 12 4 12 -15 0z"/>
<path d="M760 1280 c-8 -5 -12 -11 -9 -14 2 -3 11 -1 19 4 8 5 12 11 9 14 -2
3 -11 1 -19 -4z"/>
<path d="M909 1273 c-13 -17 -13 -17 6 -3 11 8 22 16 24 17 2 2 0 3 -6 3 -6 0
-17 -8 -24 -17z"/>
<path d="M2033 1242 c-13 -25 -21 -47 -20 -49 6 -5 49 77 45 86 -2 5 -13 -12
-25 -37z"/>
<path d="M859 1263 c-13 -16 -12 -17 4 -4 16 13 21 21 13 21 -2 0 -10 -8 -17
-17z"/>
<path d="M1140 1245 c-11 -13 -10 -14 4 -9 9 3 16 10 16 15 0 13 -6 11 -20 -6z"/>
<path d="M1210 1250 c-8 -5 -12 -12 -9 -15 4 -3 12 1 19 10 14 17 11 19 -10 5z"/>
<path d="M4050 1242 c0 -6 9 -12 20 -15 11 -3 20 -3 20 -1 0 2 -9 8 -20 14
-11 6 -20 7 -20 2z"/>
<path d="M4901 1224 c0 -11 3 -14 6 -6 3 7 2 16 -1 19 -3 4 -6 -2 -5 -13z"/>
<path d="M1094 1208 l-19 -23 23 19 c21 18 27 26 19 26 -2 0 -12 -10 -23 -22z"/>
<path d="M3107 1210 c3 -11 9 -20 13 -20 5 0 6 9 3 20 -3 11 -9 20 -13 20 -5
0 -6 -9 -3 -20z"/>
<path d="M949 1193 c-13 -17 -13 -17 6 -3 11 8 22 16 24 17 2 2 0 3 -6 3 -6 0
-17 -8 -24 -17z"/>
<path d="M1129 1183 c-13 -16 -12 -17 4 -4 9 7 17 15 17 17 0 8 -8 3 -21 -13z"/>
<path d="M1035 1179 c-4 -6 -5 -12 -2 -15 2 -3 7 2 10 11 7 17 1 20 -8 4z"/>
<path d="M1189 1163 c-13 -16 -12 -17 4 -4 9 7 17 15 17 17 0 8 -8 3 -21 -13z"/>
<path d="M1986 1165 c-3 -8 -1 -15 4 -15 6 0 10 7 10 15 0 8 -2 15 -4 15 -2 0
-6 -7 -10 -15z"/>
<path d="M890 1155 c-11 -13 -10 -14 4 -9 9 3 16 10 16 15 0 13 -6 11 -20 -6z"/>
<path d="M1089 1153 c-13 -16 -12 -17 4 -4 9 7 17 15 17 17 0 8 -8 3 -21 -13z"/>
<path d="M986 1144 c-23 -23 -20 -30 4 -9 11 10 20 20 20 22 0 7 -9 2 -24 -13z"/>
<path d="M3115 939 c4 -123 11 -231 17 -239 8 -12 8 -11 4 4 -4 10 -6 114 -6
232 -1 144 -4 215 -12 220 -8 5 -9 -55 -3 -217z"/>
<path d="M3664 1137 c-8 -21 2 -35 16 -21 5 5 6 15 0 24 -8 12 -10 12 -16 -3z"/>
<path d="M3770 1131 c0 -5 5 -13 10 -16 6 -3 10 -2 10 4 0 5 -4 13 -10 16 -5
3 -10 2 -10 -4z"/>
<path d="M1119 1075 c-24 -19 -62 -40 -84 -47 -22 -6 -33 -13 -25 -15 24 -6
80 22 125 61 52 46 41 46 -16 1z"/>
<path d="M1060 1080 c-8 -5 -12 -12 -9 -15 4 -3 12 1 19 10 14 17 11 19 -10 5z"/>
<path d="M1025 1060 c-3 -5 -1 -10 4 -10 6 0 11 5 11 10 0 6 -2 10 -4 10 -3 0
-8 -4 -11 -10z"/>
<path d="M875 1050 c-3 -5 -1 -10 4 -10 6 0 11 5 11 10 0 6 -2 10 -4 10 -3 0
-8 -4 -11 -10z"/>
<path d="M980 1040 c0 -5 -7 -10 -15 -10 -22 0 -18 -15 4 -17 11 -1 21 6 24
18 3 10 1 19 -4 19 -5 0 -9 -4 -9 -10z"/>
<path d="M918 1023 c7 -3 16 -2 19 1 4 3 -2 6 -13 5 -11 0 -14 -3 -6 -6z"/>
<path d="M1155 1021 c-3 -5 -2 -12 3 -15 5 -3 9 1 9 9 0 17 -3 19 -12 6z"/>
<path d="M1176 950 c-32 -33 -55 -60 -52 -60 10 0 119 110 114 115 -2 3 -31
-22 -62 -55z"/>
<path d="M4901 984 c0 -11 3 -14 6 -6 3 7 2 16 -1 19 -3 4 -6 -2 -5 -13z"/>
<path d="M1101 949 c-13 -11 -22 -21 -20 -23 2 -3 17 7 32 20 15 13 24 24 20
24 -4 -1 -19 -10 -32 -21z"/>
<path d="M4903 870 c0 -36 2 -50 4 -32 2 17 2 47 0 65 -2 17 -4 3 -4 -33z"/>
<path d="M3880 865 c39 -45 84 -84 95 -85 12 0 -74 89 -100 102 -17 9 -16 6 5
-17z"/>
<path d="M3820 855 c0 -5 5 -17 10 -25 5 -8 10 -10 10 -5 0 6 -5 17 -10 25 -5
8 -10 11 -10 5z"/>
<path d="M3845 800 c3 -5 8 -10 11 -10 2 0 4 5 4 10 0 6 -5 10 -11 10 -5 0 -7
-4 -4 -10z"/>
<path d="M1250 578 c0 -5 155 -8 345 -8 190 0 345 3 345 8 0 4 -155 7 -345 7
-190 0 -345 -3 -345 -7z"/>
<path d="M3202 578 c-9 -4 173 -7 406 -7 232 -1 422 2 422 7 0 9 -804 10 -828
0z"/>
<path d="M2303 573 c131 -2 343 -2 470 0 128 1 21 2 -238 2 -258 0 -363 -1
-232 -2z"/>
</g>
</svg>
