<?xml version="1.0" standalone="no"?>
<!DOCTYPE svg PUBLIC "-//W3C//DTD SVG 20010904//EN"
 "http://www.w3.org/TR/2001/REC-SVG-20010904/DTD/svg10.dtd">
<svg version="1.0" xmlns="http://www.w3.org/2000/svg"
 width="512.000000pt" height="768.000000pt" viewBox="0 0 512.000000 768.000000"
 preserveAspectRatio="xMidYMid meet">
<metadata>
Created by potrace 1.16, written by Peter Selinger 2001-2019
</metadata>
<g transform="translate(0.000000,768.000000) scale(0.100000,-0.100000)"
fill="#000000" stroke="none">
<path d="M2539 7638 c-1 -24 0 -53 1 -66 1 -12 -5 -25 -13 -28 -8 -3 -17 -23
-21 -45 l-6 -39 -55 0 -56 0 1 -262 c1 -260 -3 -306 -40 -433 -4 -16 -16 -73
-25 -125 -24 -129 -20 -122 -57 -118 l-33 3 -3 -117 c-2 -101 0 -118 13 -118
13 0 15 -26 15 -185 0 -117 4 -185 10 -185 6 0 10 57 11 148 1 81 3 167 4 191
3 36 1 44 -16 48 -17 5 -19 15 -19 100 l0 96 30 -6 c16 -4 32 -2 36 4 3 5 14
54 25 107 11 53 31 144 46 202 25 100 26 118 27 365 l1 260 25 -3 c14 -2 26
-5 27 -6 6 -5 -15 -373 -22 -393 -5 -17 -3 -23 8 -23 24 0 27 22 35 229 8 174
10 192 29 208 11 10 20 28 19 40 -2 49 17 23 43 -57 16 -47 44 -125 64 -175
93 -233 110 -289 113 -363 1 -51 7 -79 18 -91 14 -15 16 -31 10 -84 -7 -72 0
-117 19 -117 19 0 10 200 -9 222 -11 12 -15 35 -13 85 2 40 -2 76 -9 88 -16
26 -191 489 -203 535 -5 19 -9 61 -9 93 0 65 -19 79 -21 15z"/>
<path d="M2621 7644 c0 -11 3 -14 6 -6 3 7 2 16 -1 19 -3 4 -6 -2 -5 -13z"/>
<path d="M3813 7620 c0 -25 2 -35 4 -22 2 12 2 32 0 45 -2 12 -4 2 -4 -23z"/>
<path d="M3190 7438 c0 -101 5 -190 10 -198 6 -10 10 49 10 177 0 117 -4 194
-10 198 -7 4 -10 -57 -10 -177z"/>
<path d="M2610 7560 c0 -5 7 -10 16 -10 8 0 12 5 9 10 -3 6 -10 10 -16 10 -5
0 -9 -4 -9 -10z"/>
<path d="M2437 7519 c4 -13 8 -18 11 -10 2 7 -1 18 -6 23 -8 8 -9 4 -5 -13z"/>
<path d="M2600 7529 c0 -5 5 -7 10 -4 6 3 10 8 10 11 0 2 -4 4 -10 4 -5 0 -10
-5 -10 -11z"/>
<path d="M2005 7520 c-3 -5 -1 -10 4 -10 6 0 11 5 11 10 0 6 -2 10 -4 10 -3 0
-8 -4 -11 -10z"/>
<path d="M2370 7520 c0 -5 5 -10 11 -10 5 0 7 5 4 10 -3 6 -8 10 -11 10 -2 0
-4 -4 -4 -10z"/>
<path d="M2758 7473 c7 -3 16 -2 19 1 4 3 -2 6 -13 5 -11 0 -14 -3 -6 -6z"/>
<path d="M2866 7428 c3 -4 9 -8 15 -8 5 0 9 4 9 8 0 5 -7 9 -15 9 -8 0 -12 -4
-9 -9z"/>
<path d="M3811 7414 c0 -11 3 -14 6 -6 3 7 2 16 -1 19 -3 4 -6 -2 -5 -13z"/>
<path d="M1766 7373 c-6 -14 -5 -15 5 -6 7 7 10 15 7 18 -3 3 -9 -2 -12 -12z"/>
<path d="M3810 7300 c0 -51 3 -91 6 -87 8 8 7 167 0 175 -3 3 -6 -37 -6 -88z"/>
<path d="M2170 7220 c0 -5 7 -7 15 -4 8 4 15 8 15 10 0 2 -7 4 -15 4 -8 0 -15
-4 -15 -10z"/>
<path d="M3217 6448 c3 -425 7 -775 9 -777 2 -2 24 2 50 8 25 7 48 10 50 8 2
-2 4 -168 5 -370 0 -202 4 -369 9 -372 13 -8 15 66 12 443 l-3 344 -42 -7
c-23 -4 -45 -8 -49 -9 -4 0 -10 243 -14 542 l-6 542 21 0 c21 0 21 3 21 199
l0 199 -31 11 c-18 6 -33 11 -35 11 -1 0 0 -348 3 -772z m41 649 c2 -73 0 -87
-13 -87 -12 0 -15 16 -15 91 0 68 3 90 13 87 8 -3 13 -33 15 -91z m2 -188 c0
-52 -3 -70 -12 -67 -8 3 -14 29 -16 71 -2 55 0 67 13 67 12 0 15 -14 15 -71z"/>
<path d="M3797 7183 c-12 -11 -8 -23 8 -23 8 0 15 7 15 15 0 16 -12 20 -23 8z"/>
<path d="M2622 7160 c0 -14 2 -19 5 -12 2 6 2 18 0 25 -3 6 -5 1 -5 -13z"/>
<path d="M3167 7143 c-3 -16 -1 -32 4 -37 5 -6 9 4 9 27 0 44 -6 48 -13 10z"/>
<path d="M3800 7125 c0 -18 21 -20 38 -3 17 17 36 -10 20 -29 -13 -15 -4 -28
11 -18 17 10 13 52 -5 59 -29 11 -64 7 -64 -9z"/>
<path d="M1900 7070 c0 -11 4 -20 9 -20 5 0 7 9 4 20 -3 11 -7 20 -9 20 -2 0
-4 -9 -4 -20z"/>
<path d="M1989 7061 c-1 -17 -2 -35 -3 -41 -1 -5 4 -11 9 -12 13 -4 17 69 5
77 -6 4 -11 -8 -11 -24z"/>
<path d="M3170 7035 c-3 -33 -3 -107 0 -165 4 -87 6 -96 10 -50 3 30 3 105 0
165 -5 94 -6 101 -10 50z"/>
<path d="M2795 7069 c-4 -6 -5 -12 -2 -15 2 -3 7 2 10 11 7 17 1 20 -8 4z"/>
<path d="M3822 7040 c-3 -45 12 -54 22 -13 5 16 2 31 -6 39 -11 11 -13 6 -16
-26z"/>
<path d="M1608 7013 c7 -3 16 -2 19 1 4 3 -2 6 -13 5 -11 0 -14 -3 -6 -6z"/>
<path d="M2666 6987 c3 -10 9 -15 12 -12 3 3 0 11 -7 18 -10 9 -11 8 -5 -6z"/>
<path d="M2167 6979 c7 -7 15 -10 18 -7 3 3 -2 9 -12 12 -14 6 -15 5 -6 -5z"/>
<path d="M1990 6969 c0 -5 5 -7 10 -4 6 3 10 8 10 11 0 2 -4 4 -10 4 -5 0 -10
-5 -10 -11z"/>
<path d="M2265 6960 c3 -5 8 -10 11 -10 2 0 4 5 4 10 0 6 -5 10 -11 10 -5 0
-7 -4 -4 -10z"/>
<path d="M2821 6954 c0 -11 3 -14 6 -6 3 7 2 16 -1 19 -3 4 -6 -2 -5 -13z"/>
<path d="M1990 6935 c0 -8 5 -15 10 -15 6 0 10 7 10 15 0 8 -4 15 -10 15 -5 0
-10 -7 -10 -15z"/>
<path d="M2811 6914 c0 -11 3 -14 6 -6 3 7 2 16 -1 19 -3 4 -6 -2 -5 -13z"/>
<path d="M3796 6882 c-2 -4 -1 -14 3 -21 6 -10 10 -9 14 3 6 16 -8 32 -17 18z"/>
<path d="M2595 6850 c-3 -6 1 -7 9 -4 18 7 21 14 7 14 -6 0 -13 -4 -16 -10z"/>
<path d="M1985 6733 c2 -60 7 -109 11 -110 5 -2 9 2 8 7 -1 6 -2 55 -2 110 -1
55 -6 100 -11 100 -4 0 -7 -48 -6 -107z"/>
<path d="M2580 6820 c0 -5 5 -10 11 -10 5 0 7 5 4 10 -3 6 -8 10 -11 10 -2 0
-4 -4 -4 -10z"/>
<path d="M3796 6813 c-9 -9 -7 -33 3 -33 12 0 22 28 12 34 -5 3 -11 3 -15 -1z"/>
<path d="M2606 6782 c-2 -4 -1 -14 4 -22 7 -11 9 -9 7 8 -1 24 -3 26 -11 14z"/>
<path d="M3862 6747 c2 -15 7 -28 13 -28 16 -1 16 16 0 36 -15 19 -15 19 -13
-8z"/>
<path d="M2685 6750 c-3 -5 -1 -10 4 -10 6 0 11 5 11 10 0 6 -2 10 -4 10 -3 0
-8 -4 -11 -10z"/>
<path d="M3806 6723 c4 -71 4 -70 14 -52 10 17 2 89 -10 89 -4 0 -6 -17 -4
-37z"/>
<path d="M2570 6739 c0 -5 5 -7 10 -4 6 3 10 8 10 11 0 2 -4 4 -10 4 -5 0 -10
-5 -10 -11z"/>
<path d="M2880 6720 c0 -5 5 -10 10 -10 6 0 10 5 10 10 0 6 -4 10 -10 10 -5 0
-10 -4 -10 -10z"/>
<path d="M2175 6710 c-3 -5 1 -10 9 -10 9 0 16 5 16 10 0 6 -4 10 -9 10 -6 0
-13 -4 -16 -10z"/>
<path d="M2940 6690 c0 -5 5 -10 11 -10 5 0 7 5 4 10 -3 6 -8 10 -11 10 -2 0
-4 -4 -4 -10z"/>
<path d="M3850 6675 c0 -8 2 -15 4 -15 2 0 6 7 10 15 3 8 1 15 -4 15 -6 0 -10
-7 -10 -15z"/>
<path d="M2505 6670 c-3 -5 -1 -10 4 -10 6 0 11 5 11 10 0 6 -2 10 -4 10 -3 0
-8 -4 -11 -10z"/>
<path d="M2557 6654 c6 -15 23 -19 23 -5 0 5 -7 11 -14 14 -10 4 -13 1 -9 -9z"/>
<path d="M3809 6648 c-7 -18 -6 -258 1 -258 6 0 10 53 10 130 0 107 -3 146
-11 128z"/>
<path d="M3860 6624 c0 -9 5 -14 12 -12 18 6 21 28 4 28 -9 0 -16 -7 -16 -16z"/>
<path d="M2547 6613 c-4 -3 -7 -17 -7 -29 0 -13 -5 -26 -10 -29 -6 -4 -8 -10
-5 -14 2 -5 0 -23 -5 -42 -6 -19 -13 -47 -16 -64 -3 -16 -7 -37 -9 -45 -1 -8
-8 -14 -14 -12 -6 1 -11 -2 -11 -8 0 -5 4 -10 9 -10 13 0 -5 -61 -21 -72 -10
-6 -10 -8 -1 -8 11 0 7 -22 -14 -80 -4 -8 -7 -22 -7 -30 -1 -8 -7 -14 -15 -12
-11 2 -12 0 -3 -10 8 -11 6 -34 -9 -93 -12 -44 -25 -99 -30 -123 -5 -24 -12
-49 -16 -55 -7 -12 -8 -17 -11 -70 -1 -18 -6 -26 -13 -21 -8 4 -9 0 -4 -15 3
-11 3 -21 -2 -21 -5 0 -8 -12 -7 -27 0 -16 -7 -57 -18 -93 -10 -36 -21 -81
-24 -100 -3 -19 -8 -38 -11 -43 -2 -4 -7 -20 -9 -35 -3 -15 -9 -40 -14 -57 -5
-16 -16 -56 -25 -87 -9 -32 -20 -58 -23 -58 -4 0 -7 -97 -6 -215 1 -134 -3
-212 -9 -208 -5 3 -6 -4 -1 -18 15 -47 5 -111 -22 -135 -16 -15 -24 -34 -24
-56 -1 -18 -1 -115 0 -216 0 -107 -4 -192 -10 -203 -6 -10 -21 -19 -33 -19
-13 0 -40 -17 -63 -39 -21 -21 -55 -48 -74 -60 -19 -11 -34 -24 -32 -28 1 -5
-4 -8 -10 -8 -25 0 -31 -30 -35 -154 -2 -69 -5 -131 -8 -138 -2 -7 0 -15 5
-18 5 -3 6 -40 3 -83 -3 -42 -5 -81 -4 -87 3 -41 7 -225 4 -207 -3 12 -9 20
-14 16 -5 -3 -7 -10 -3 -15 8 -14 -23 -59 -41 -59 -8 0 -15 -4 -15 -10 0 -5
-4 -10 -10 -10 -5 0 -20 -10 -33 -22 -13 -13 -31 -28 -41 -33 -17 -10 -19 -26
-18 -173 1 -109 -2 -162 -10 -162 -7 0 -7 -4 -1 -12 11 -15 10 -188 -1 -206
-4 -7 -4 -12 1 -12 4 0 6 -54 3 -120 -3 -66 -3 -120 0 -120 3 0 4 -342 4 -760
-1 -421 3 -760 7 -760 5 0 10 172 10 383 1 210 3 391 4 402 1 11 3 355 4 765
l2 745 90 66 90 65 -1 336 0 335 102 82 c107 85 145 102 128 56 -9 -23 0 -42
14 -28 3 3 6 121 6 261 l0 254 30 26 30 26 1 221 c0 121 4 249 8 285 5 36 38
180 74 320 112 445 237 962 251 1043 12 71 10 88 -7 70z"/>
<path d="M2575 6558 c7 -45 55 -238 124 -493 22 -82 80 -305 130 -494 l91
-344 0 -274 c0 -254 1 -274 19 -292 10 -10 26 -23 34 -27 14 -8 16 -46 19
-269 2 -164 7 -258 13 -255 5 3 8 16 6 29 -5 37 23 24 126 -60 l91 -74 1 -333
c0 -183 3 -337 6 -342 3 -6 13 -10 22 -10 9 0 23 -7 32 -15 29 -28 155 -115
167 -115 11 0 24 -538 24 -1037 0 -140 4 -284 10 -321 5 -37 11 -220 14 -407
2 -187 6 -351 9 -365 2 -14 5 -40 6 -57 0 -18 5 -33 10 -33 4 0 6 19 3 43 -3
23 -6 200 -8 394 -1 193 -6 366 -9 385 -4 18 -9 210 -11 426 -4 369 -3 393 13
398 10 3 52 19 93 36 74 29 136 50 195 63 27 7 28 8 10 15 -11 4 -25 4 -30 0
-6 -5 -24 -10 -40 -12 -17 -3 -48 -12 -70 -22 -46 -21 -108 -44 -147 -56 l-26
-8 -2 156 c-5 396 -8 432 -36 432 -8 0 -17 7 -20 15 -4 8 -10 12 -15 9 -5 -3
-31 13 -57 35 -27 23 -53 41 -60 41 -7 0 -9 7 -5 17 5 12 2 15 -9 11 -36 -14
-38 2 -42 308 -5 412 -5 396 -16 389 -10 -6 -50 29 -50 44 0 5 6 12 13 15 6 3
0 3 -15 0 -17 -4 -28 -2 -28 5 0 6 -6 10 -12 9 -7 -2 -12 3 -10 10 1 8 -2 11
-8 7 -5 -3 -10 -1 -10 5 0 6 -4 9 -9 6 -12 -8 -23 23 -14 37 4 7 -1 6 -10 -2
-15 -12 -17 -11 -17 5 0 14 -3 15 -8 6 -5 -7 -16 -10 -25 -6 -19 7 -23 24 -6
24 8 0 8 4 1 13 -6 7 -9 89 -8 204 0 106 -2 193 -6 193 -4 0 -5 6 -2 14 5 14
-28 40 -51 41 -13 0 -16 76 -3 92 5 6 5 14 0 17 -4 2 -7 17 -6 33 4 64 6 98 4
103 -8 23 -7 46 3 52 8 5 9 10 2 16 -6 4 -11 53 -12 115 -1 59 -4 114 -7 123
-3 8 -2 12 4 9 6 -3 10 -2 10 4 0 5 -5 11 -10 13 -6 2 -12 20 -15 41 -3 21 -9
46 -14 56 -6 10 -11 28 -13 42 -2 13 -7 30 -12 37 -4 7 -5 25 -2 38 5 17 3 23
-4 19 -6 -4 -10 4 -10 17 0 13 -4 28 -9 33 -5 6 -12 32 -16 60 -3 27 -10 54
-15 61 -6 6 -7 14 -3 17 3 4 1 12 -4 19 -6 7 -14 31 -18 53 -4 22 -10 45 -15
50 -7 10 -31 121 -33 158 -1 9 -4 17 -8 17 -6 0 -21 51 -23 80 -1 8 -7 25 -14
38 -11 19 -10 22 4 22 13 0 13 3 -5 18 -14 11 -22 32 -25 64 -3 26 -8 53 -13
60 -4 7 -6 21 -4 32 2 12 -1 16 -9 11 -9 -5 -10 -1 -6 13 4 11 2 23 -4 27 -6
4 -8 15 -5 26 4 11 2 19 -4 19 -6 0 -10 3 -9 8 1 4 -4 25 -10 47 -6 22 -13 51
-15 65 -2 14 -7 33 -12 43 -4 10 -5 20 -2 24 6 6 -17 33 -28 33 -4 0 -4 -19 0
-42z"/>
<path d="M2809 6579 c-3 -54 -1 -180 4 -185 9 -9 18 76 14 133 -3 49 -16 85
-18 52z"/>
<path d="M3085 6540 c-3 -5 -1 -10 4 -10 6 0 11 5 11 10 0 6 -2 10 -4 10 -3 0
-8 -4 -11 -10z"/>
<path d="M3855 6540 c-3 -5 -1 -10 4 -10 6 0 11 5 11 10 0 6 -2 10 -4 10 -3 0
-8 -4 -11 -10z"/>
<path d="M2015 6520 c4 -6 11 -8 16 -5 14 9 11 15 -7 15 -8 0 -12 -5 -9 -10z"/>
<path d="M2351 6484 c0 -11 3 -14 6 -6 3 7 2 16 -1 19 -3 4 -6 -2 -5 -13z"/>
<path d="M3858 6431 c-2 -21 0 -49 3 -62 5 -15 7 -1 8 39 1 69 -5 83 -11 23z"/>
<path d="M2371 6444 c0 -11 3 -14 6 -6 3 7 2 16 -1 19 -3 4 -6 -2 -5 -13z"/>
<path d="M2147 6436 c-3 -8 0 -17 7 -19 10 -4 12 1 9 14 -6 23 -9 24 -16 5z"/>
<path d="M3946 6442 c-8 -14 5 -53 18 -49 15 5 14 49 -1 54 -6 2 -14 0 -17 -5z"/>
<path d="M1973 6425 c0 -8 4 -12 9 -9 5 3 6 10 3 15 -9 13 -12 11 -12 -6z"/>
<path d="M2445 6420 c3 -5 8 -10 11 -10 2 0 4 5 4 10 0 6 -5 10 -11 10 -5 0
-7 -4 -4 -10z"/>
<path d="M2675 6390 c3 -5 8 -10 11 -10 2 0 4 5 4 10 0 6 -5 10 -11 10 -5 0
-7 -4 -4 -10z"/>
<path d="M1823 6355 c0 -14 2 -25 6 -25 10 0 11 39 2 45 -5 2 -8 -7 -8 -20z"/>
<path d="M2085 6370 c-3 -5 -1 -10 4 -10 6 0 11 5 11 10 0 6 -2 10 -4 10 -3 0
-8 -4 -11 -10z"/>
<path d="M2125 6370 c-3 -5 -1 -10 4 -10 6 0 11 5 11 10 0 6 -2 10 -4 10 -3 0
-8 -4 -11 -10z"/>
<path d="M2571 6364 c0 -11 3 -14 6 -6 3 7 2 16 -1 19 -3 4 -6 -2 -5 -13z"/>
<path d="M3803 6340 c1 -11 5 -20 9 -20 4 0 8 9 8 20 0 11 -4 20 -9 20 -6 0
-9 -9 -8 -20z"/>
<path d="M1760 6310 c0 -22 5 -40 10 -40 6 0 10 17 8 40 -1 22 -6 40 -10 40
-4 0 -8 -18 -8 -40z"/>
<path d="M3856 6325 c-5 -14 17 -28 28 -18 10 10 7 21 -8 26 -8 3 -17 0 -20
-8z"/>
<path d="M3530 6310 c0 -5 5 -10 10 -10 6 0 10 5 10 10 0 6 -4 10 -10 10 -5 0
-10 -4 -10 -10z"/>
<path d="M2781 6294 c0 -11 3 -14 6 -6 3 7 2 16 -1 19 -3 4 -6 -2 -5 -13z"/>
<path d="M3025 6290 c-3 -5 -2 -10 4 -10 5 0 13 5 16 10 3 6 2 10 -4 10 -5 0
-13 -4 -16 -10z"/>
<path d="M3797 6293 c-12 -11 -8 -23 8 -23 8 0 15 7 15 15 0 16 -12 20 -23 8z"/>
<path d="M1826 6254 c-4 -14 -5 -29 -2 -31 3 -3 8 7 12 21 3 15 4 29 1 32 -2
3 -8 -7 -11 -22z"/>
<path d="M2554 6200 c0 -44 4 -80 8 -80 10 0 8 149 -1 155 -4 2 -7 -32 -7 -75z"/>
<path d="M2426 6253 c-6 -14 -5 -15 5 -6 7 7 10 15 7 18 -3 3 -9 -2 -12 -12z"/>
<path d="M2705 6260 c3 -5 8 -10 11 -10 2 0 4 5 4 10 0 6 -5 10 -11 10 -5 0
-7 -4 -4 -10z"/>
<path d="M3866 6245 c-3 -8 -1 -15 3 -15 5 0 11 7 15 15 3 8 1 15 -3 15 -5 0
-11 -7 -15 -15z"/>
<path d="M3020 6230 c0 -5 5 -10 11 -10 5 0 7 5 4 10 -3 6 -8 10 -11 10 -2 0
-4 -4 -4 -10z"/>
<path d="M2790 6221 c0 -5 9 -7 20 -4 11 3 20 7 20 9 0 2 -9 4 -20 4 -11 0
-20 -4 -20 -9z"/>
<path d="M3810 6224 c-4 -73 0 -717 4 -721 7 -8 8 16 6 411 0 171 -3 312 -5
315 -3 2 -5 0 -5 -5z"/>
<path d="M1825 6200 c-3 -5 -1 -10 4 -10 6 0 11 5 11 10 0 6 -2 10 -4 10 -3 0
-8 -4 -11 -10z"/>
<path d="M2750 6200 c0 -5 7 -10 16 -10 8 0 12 5 9 10 -3 6 -10 10 -16 10 -5
0 -9 -4 -9 -10z"/>
<path d="M2975 6190 c3 -5 8 -10 11 -10 2 0 4 5 4 10 0 6 -5 10 -11 10 -5 0
-7 -4 -4 -10z"/>
<path d="M2918 6183 c7 -3 16 -2 19 1 4 3 -2 6 -13 5 -11 0 -14 -3 -6 -6z"/>
<path d="M1732 6145 c-1 -14 3 -25 8 -25 6 0 10 11 10 25 0 14 -4 25 -8 25 -4
0 -9 -11 -10 -25z"/>
<path d="M2740 6166 c0 -2 8 -10 18 -17 15 -13 16 -12 3 4 -13 16 -21 21 -21
13z"/>
<path d="M2325 6150 c-3 -5 -1 -10 4 -10 6 0 11 5 11 10 0 6 -2 10 -4 10 -3 0
-8 -4 -11 -10z"/>
<path d="M2951 6144 c0 -11 3 -14 6 -6 3 7 2 16 -1 19 -3 4 -6 -2 -5 -13z"/>
<path d="M1990 6140 c0 -5 5 -10 10 -10 6 0 10 5 10 10 0 6 -4 10 -10 10 -5 0
-10 -4 -10 -10z"/>
<path d="M2808 6143 c7 -3 16 -2 19 1 4 3 -2 6 -13 5 -11 0 -14 -3 -6 -6z"/>
<path d="M2965 6110 c-3 -5 1 -10 10 -10 9 0 13 5 10 10 -3 6 -8 10 -10 10 -2
0 -7 -4 -10 -10z"/>
<path d="M2556 6095 c4 -8 8 -15 10 -15 2 0 4 7 4 15 0 8 -4 15 -10 15 -5 0
-7 -7 -4 -15z"/>
<path d="M2878 6071 c-20 -42 -22 -51 -10 -51 13 0 44 72 35 81 -4 4 -16 -9
-25 -30z"/>
<path d="M2346 6092 c-2 -4 -1 -14 4 -22 7 -11 9 -9 7 8 -1 24 -3 26 -11 14z"/>
<path d="M2071 6074 c0 -11 3 -14 6 -6 3 7 2 16 -1 19 -3 4 -6 -2 -5 -13z"/>
<path d="M2046 6055 c-3 -8 -1 -15 4 -15 6 0 10 7 10 15 0 8 -2 15 -4 15 -2 0
-6 -7 -10 -15z"/>
<path d="M2562 6050 c0 -14 2 -19 5 -12 2 6 2 18 0 25 -3 6 -5 1 -5 -13z"/>
<path d="M3100 6040 c0 -5 5 -10 11 -10 5 0 7 5 4 10 -3 6 -8 10 -11 10 -2 0
-4 -4 -4 -10z"/>
<path d="M1548 6023 c7 -3 16 -2 19 1 4 3 -2 6 -13 5 -11 0 -14 -3 -6 -6z"/>
<path d="M1906 6013 c-6 -14 -5 -15 5 -6 7 7 10 15 7 18 -3 3 -9 -2 -12 -12z"/>
<path d="M2557 6000 c-3 -11 -1 -23 4 -26 5 -3 9 6 9 20 0 31 -6 34 -13 6z"/>
<path d="M2830 6010 c0 -5 5 -10 11 -10 5 0 7 5 4 10 -3 6 -8 10 -11 10 -2 0
-4 -4 -4 -10z"/>
<path d="M2365 6000 c3 -5 8 -10 11 -10 2 0 4 5 4 10 0 6 -5 10 -11 10 -5 0
-7 -4 -4 -10z"/>
<path d="M2887 5973 c-4 -3 -7 -13 -7 -22 1 -13 3 -13 11 2 11 19 8 33 -4 20z"/>
<path d="M2935 5969 c-4 -6 -5 -12 -2 -15 2 -3 7 2 10 11 7 17 1 20 -8 4z"/>
<path d="M2050 5940 c-8 -5 -10 -10 -5 -10 6 0 17 5 25 10 8 5 11 10 5 10 -5
0 -17 -5 -25 -10z"/>
<path d="M2560 5939 c0 -8 5 -21 10 -29 8 -12 9 -10 7 7 -4 26 -17 43 -17 22z"/>
<path d="M2790 5942 c0 -5 7 -9 15 -9 8 0 12 4 9 9 -3 4 -9 8 -15 8 -5 0 -9
-4 -9 -8z"/>
<path d="M1745 5920 c-8 -13 5 -13 25 0 13 8 13 10 -2 10 -9 0 -20 -4 -23 -10z"/>
<path d="M2958 5923 c7 -3 16 -2 19 1 4 3 -2 6 -13 5 -11 0 -14 -3 -6 -6z"/>
<path d="M2146 5907 c3 -10 9 -15 12 -12 3 3 0 11 -7 18 -10 9 -11 8 -5 -6z"/>
<path d="M2800 5910 c0 -5 5 -10 11 -10 5 0 7 5 4 10 -3 6 -8 10 -11 10 -2 0
-4 -4 -4 -10z"/>
<path d="M2257 5897 c-8 -22 -2 -60 11 -65 8 -2 12 8 12 32 0 35 -14 56 -23
33z"/>
<path d="M2025 5880 c3 -5 10 -10 16 -10 5 0 9 5 9 10 0 6 -7 10 -16 10 -8 0
-12 -4 -9 -10z"/>
<path d="M2567 5869 c4 -13 8 -18 11 -10 2 7 -1 18 -6 23 -8 8 -9 4 -5 -13z"/>
<path d="M2990 5870 c-9 -6 -10 -10 -3 -10 6 0 15 5 18 10 8 12 4 12 -15 0z"/>
<path d="M1686 5855 c-3 -8 -1 -15 4 -15 13 0 22 18 11 24 -5 3 -11 -1 -15 -9z"/>
<path d="M2081 5834 c0 -11 3 -14 6 -6 3 7 2 16 -1 19 -3 4 -6 -2 -5 -13z"/>
<path d="M2571 5785 c-2 -33 -3 -105 -3 -160 1 -66 -3 -102 -11 -107 -8 -5 -7
-8 5 -8 14 0 17 13 20 78 2 42 0 118 -3 167 -5 81 -6 84 -8 30z"/>
<path d="M1908 5823 c7 -3 16 -2 19 1 4 3 -2 6 -13 5 -11 0 -14 -3 -6 -6z"/>
<path d="M2145 5820 c-3 -5 1 -10 9 -10 9 0 16 5 16 10 0 6 -4 10 -9 10 -6 0
-13 -4 -16 -10z"/>
<path d="M3021 5794 c0 -11 3 -14 6 -6 3 7 2 16 -1 19 -3 4 -6 -2 -5 -13z"/>
<path d="M3630 5800 c0 -5 5 -10 11 -10 5 0 7 5 4 10 -3 6 -8 10 -11 10 -2 0
-4 -4 -4 -10z"/>
<path d="M1820 5770 c0 -5 5 -10 11 -10 5 0 7 5 4 10 -3 6 -8 10 -11 10 -2 0
-4 -4 -4 -10z"/>
<path d="M2200 5759 c0 -5 5 -7 10 -4 6 3 10 8 10 11 0 2 -4 4 -10 4 -5 0 -10
-5 -10 -11z"/>
<path d="M3960 5740 c0 -5 7 -10 16 -10 8 0 12 5 9 10 -3 6 -10 10 -16 10 -5
0 -9 -4 -9 -10z"/>
<path d="M2059 5727 c7 -7 14 -8 21 -1 6 6 2 10 -12 11 -16 2 -18 -1 -9 -10z"/>
<path d="M2200 5722 c0 -5 7 -9 15 -9 8 0 12 4 9 9 -3 4 -9 8 -15 8 -5 0 -9
-4 -9 -8z"/>
<path d="M1598 5703 c7 -3 16 -2 19 1 4 3 -2 6 -13 5 -11 0 -14 -3 -6 -6z"/>
<path d="M2056 5685 c4 -8 8 -15 10 -15 2 0 4 7 4 15 0 8 -4 15 -10 15 -5 0
-7 -7 -4 -15z"/>
<path d="M3966 5685 c-3 -9 0 -15 9 -15 16 0 20 16 6 24 -5 3 -11 -1 -15 -9z"/>
<path d="M2900 5680 c0 -5 5 -10 11 -10 5 0 7 5 4 10 -3 6 -8 10 -11 10 -2 0
-4 -4 -4 -10z"/>
<path d="M3085 5682 c-11 -2 -24 -8 -30 -14 -9 -9 43 -1 54 8 8 7 -4 10 -24 6z"/>
<path d="M1988 5673 c6 -2 18 -2 25 0 6 3 1 5 -13 5 -14 0 -19 -2 -12 -5z"/>
<path d="M2080 5669 c0 -5 5 -7 10 -4 6 3 10 8 10 11 0 2 -4 4 -10 4 -5 0 -10
-5 -10 -11z"/>
<path d="M4461 5664 c0 -11 3 -14 6 -6 3 7 2 16 -1 19 -3 4 -6 -2 -5 -13z"/>
<path d="M1740 5659 c0 -5 5 -7 10 -4 6 3 10 8 10 11 0 2 -4 4 -10 4 -5 0 -10
-5 -10 -11z"/>
<path d="M3121 5644 c0 -11 3 -14 6 -6 3 7 2 16 -1 19 -3 4 -6 -2 -5 -13z"/>
<path d="M1860 5645 c0 -13 35 -43 43 -38 6 4 8 -1 4 -10 -4 -11 -1 -17 8 -17
15 0 21 -35 8 -43 -5 -2 -2 -2 5 -1 32 8 47 -14 29 -43 -5 -8 -4 -13 2 -13 6
0 11 5 11 12 0 8 3 9 10 2 5 -5 6 -22 1 -39 -6 -26 -3 -34 22 -57 16 -16 31
-28 34 -28 3 0 14 -11 25 -25 26 -33 38 -32 38 6 0 21 -10 40 -30 61 -16 16
-30 33 -30 38 0 5 -9 15 -20 23 -11 8 -17 17 -14 20 4 4 -1 9 -10 13 -9 3 -16
12 -16 19 0 7 -3 15 -8 17 -4 2 -22 22 -41 46 -29 38 -71 71 -71 57z m150
-209 c-14 -14 -24 0 -16 21 6 15 8 15 16 3 6 -9 5 -19 0 -24z m41 -43 c13 -15
12 -15 -8 -4 -24 12 -29 21 -14 21 5 0 15 -7 22 -17z"/>
<path d="M1940 5640 c-9 -6 -10 -10 -3 -10 6 0 15 5 18 10 8 12 4 12 -15 0z"/>
<path d="M3000 5640 c-9 -6 -10 -10 -3 -10 6 0 15 5 18 10 8 12 4 12 -15 0z"/>
<path d="M2870 5630 c0 -5 5 -10 10 -10 6 0 10 5 10 10 0 6 -4 10 -10 10 -5 0
-10 -4 -10 -10z"/>
<path d="M2025 5620 c3 -5 8 -10 11 -10 2 0 4 5 4 10 0 6 -5 10 -11 10 -5 0
-7 -4 -4 -10z"/>
<path d="M2220 5601 c0 -6 4 -13 10 -16 6 -3 7 1 4 9 -7 18 -14 21 -14 7z"/>
<path d="M3095 5580 c-3 -5 -1 -10 4 -10 6 0 11 5 11 10 0 6 -2 10 -4 10 -3 0
-8 -4 -11 -10z"/>
<path d="M4511 5582 c-1 -8 -6 -10 -13 -6 -10 5 -10 4 -1 -6 15 -16 28 -8 20
12 -4 11 -6 11 -6 0z"/>
<path d="M3030 5570 c0 -5 5 -10 11 -10 5 0 7 5 4 10 -3 6 -8 10 -11 10 -2 0
-4 -4 -4 -10z"/>
<path d="M3132 5568 c-15 -15 -15 -28 -1 -28 5 0 8 4 4 9 -3 6 3 14 12 20 10
6 13 11 8 11 -6 0 -16 -5 -23 -12z"/>
<path d="M2360 5560 c0 -5 5 -10 11 -10 5 0 7 5 4 10 -3 6 -8 10 -11 10 -2 0
-4 -4 -4 -10z"/>
<path d="M3100 5530 c0 -5 5 -10 11 -10 5 0 7 5 4 10 -3 6 -8 10 -11 10 -2 0
-4 -4 -4 -10z"/>
<path d="M4485 5520 c3 -5 11 -10 16 -10 6 0 7 5 4 10 -3 6 -11 10 -16 10 -6
0 -7 -4 -4 -10z"/>
<path d="M2525 5501 c-3 -5 -1 -12 5 -16 5 -3 10 1 10 9 0 18 -6 21 -15 7z"/>
<path d="M2940 5490 c0 -5 5 -10 11 -10 5 0 7 5 4 10 -3 6 -8 10 -11 10 -2 0
-4 -4 -4 -10z"/>
<path d="M3256 5483 c-4 -16 -10 -194 -7 -233 1 -13 3 -12 11 1 10 17 16 236
7 245 -3 3 -8 -3 -11 -13z"/>
<path d="M3680 5489 c0 -5 5 -7 10 -4 6 3 10 8 10 11 0 2 -4 4 -10 4 -5 0 -10
-5 -10 -11z"/>
<path d="M1820 5480 c0 -5 5 -10 11 -10 5 0 7 5 4 10 -3 6 -8 10 -11 10 -2 0
-4 -4 -4 -10z"/>
<path d="M2465 5434 c-54 -59 -54 -61 -20 -37 29 20 75 68 75 78 0 13 -18 -1
-55 -41z"/>
<path d="M1765 5460 c-3 -5 -1 -10 4 -10 6 0 11 5 11 10 0 6 -2 10 -4 10 -3 0
-8 -4 -11 -10z"/>
<path d="M1930 5466 c0 -2 8 -10 18 -17 15 -13 16 -12 3 4 -13 16 -21 21 -21
13z"/>
<path d="M2130 5455 c0 -8 4 -15 10 -15 5 0 7 7 4 15 -4 8 -8 15 -10 15 -2 0
-4 -7 -4 -15z"/>
<path d="M2570 5433 c0 -20 3 -33 6 -30 11 10 13 67 3 67 -5 0 -9 -16 -9 -37z"/>
<path d="M3020 5425 c-7 -8 -18 -15 -26 -15 -17 0 -27 -17 -20 -36 4 -12 14
-7 41 20 19 20 35 38 35 41 0 10 -18 5 -30 -10z"/>
<path d="M3200 5410 c0 -11 2 -20 4 -20 2 0 6 9 9 20 3 11 1 20 -4 20 -5 0 -9
-9 -9 -20z"/>
<path d="M4498 5424 c-5 -4 -8 -23 -8 -43 0 -25 3 -32 11 -24 6 6 9 25 7 43
-2 17 -6 28 -10 24z"/>
<path d="M2342 5380 c0 -14 2 -19 5 -12 2 6 2 18 0 25 -3 6 -5 1 -5 -13z"/>
<path d="M1396 5382 c-3 -5 6 -18 19 -28 23 -18 37 -52 15 -39 -5 3 -10 1 -10
-5 0 -6 8 -10 18 -8 16 4 52 -26 52 -44 0 -4 6 -8 13 -8 6 0 23 -14 36 -30 13
-16 27 -27 32 -24 5 3 9 -4 9 -15 0 -10 6 -22 13 -24 7 -3 5 -6 -5 -6 -26 -1
-22 -13 14 -41 18 -14 66 -57 108 -96 149 -143 170 -157 170 -120 0 6 -51 62
-112 122 -62 61 -170 170 -240 243 -69 72 -129 127 -132 123z"/>
<path d="M1826 5189 c1 -110 4 -203 8 -206 3 -4 6 84 6 195 0 110 -4 203 -8
206 -4 3 -7 -85 -6 -195z"/>
<path d="M2570 5293 c-1 -54 -3 -124 -5 -155 -2 -33 0 -58 5 -58 6 0 10 63 10
155 0 85 -2 155 -5 155 -3 0 -5 -44 -5 -97z"/>
<path d="M2395 5360 c-3 -5 -2 -10 4 -10 5 0 13 5 16 10 3 6 2 10 -4 10 -5 0
-13 -4 -16 -10z"/>
<path d="M1960 5320 c0 -5 5 -10 10 -10 6 0 10 5 10 10 0 6 -4 10 -10 10 -5 0
-10 -4 -10 -10z"/>
<path d="M3010 5320 c0 -5 5 -10 11 -10 5 0 7 5 4 10 -3 6 -8 10 -11 10 -2 0
-4 -4 -4 -10z"/>
<path d="M4494 5312 c3 -10 2 -31 -3 -48 -5 -17 -5 -37 -1 -45 6 -9 10 -6 14
12 15 73 15 87 0 93 -11 4 -14 1 -10 -12z"/>
<path d="M2460 5309 c0 -5 5 -7 10 -4 6 3 10 8 10 11 0 2 -4 4 -10 4 -5 0 -10
-5 -10 -11z"/>
<path d="M3192 5280 c0 -19 -2 -51 -5 -70 -4 -21 -3 -30 2 -21 5 7 14 10 20 7
6 -4 11 0 11 9 0 10 -5 13 -11 9 -8 -5 -10 3 -6 27 3 19 2 43 -3 54 -6 16 -8
13 -8 -15z"/>
<path d="M1935 5290 c-3 -5 -1 -10 4 -10 6 0 11 5 11 10 0 6 -2 10 -4 10 -3 0
-8 -4 -11 -10z"/>
<path d="M2337 5289 c7 -7 15 -10 18 -7 3 3 -2 9 -12 12 -14 6 -15 5 -6 -5z"/>
<path d="M1760 5280 c0 -5 5 -10 11 -10 5 0 7 5 4 10 -3 6 -8 10 -11 10 -2 0
-4 -4 -4 -10z"/>
<path d="M2007 5233 c-10 -10 -8 -33 3 -33 5 0 7 6 4 14 -3 8 2 16 13 19 14 4
14 5 2 6 -9 0 -19 -2 -22 -6z"/>
<path d="M2287 5220 c3 -11 7 -20 9 -20 2 0 4 9 4 20 0 11 -4 20 -9 20 -5 0
-7 -9 -4 -20z"/>
<path d="M1486 5215 c4 -8 10 -13 14 -10 5 3 17 -8 26 -25 20 -32 34 -39 34
-16 0 8 -9 21 -20 29 -11 8 -17 17 -12 22 4 5 2 5 -5 1 -6 -3 -14 -2 -18 4
-10 16 -25 12 -19 -5z"/>
<path d="M4115 5169 c-148 -32 -279 -61 -290 -63 -36 -8 -78 -26 -72 -33 3 -3
14 -2 24 2 10 5 22 7 26 6 4 0 16 3 25 8 9 5 42 12 72 16 30 4 59 10 65 13 5
3 19 7 30 8 12 1 39 7 61 13 21 5 52 12 68 15 67 12 144 28 191 41 28 8 68 17
89 20 22 3 42 8 45 10 14 15 -94 -3 -334 -56z"/>
<path d="M4490 5169 c0 -17 4 -28 10 -24 6 3 10 17 10 31 0 13 -4 24 -10 24
-5 0 -10 -14 -10 -31z"/>
<path d="M4605 5190 c-3 -5 -1 -10 4 -10 6 0 11 5 11 10 0 6 -2 10 -4 10 -3 0
-8 -4 -11 -10z"/>
<path d="M2040 5170 c-8 -5 -12 -12 -9 -15 4 -3 12 1 19 10 14 17 11 19 -10 5z"/>
<path d="M2882 5155 c0 -16 2 -22 5 -12 2 9 2 23 0 30 -3 6 -5 -1 -5 -18z"/>
<path d="M3015 5170 c-3 -5 1 -10 10 -10 9 0 13 5 10 10 -3 6 -8 10 -10 10 -2
0 -7 -4 -10 -10z"/>
<path d="M2100 5155 c0 -5 5 -17 10 -25 5 -8 10 -10 10 -5 0 6 -5 17 -10 25
-5 8 -10 11 -10 5z"/>
<path d="M3205 5150 c-3 -5 -1 -10 4 -10 6 0 11 5 11 10 0 6 -2 10 -4 10 -3 0
-8 -4 -11 -10z"/>
<path d="M3442 5140 c0 -14 2 -19 5 -12 2 6 2 18 0 25 -3 6 -5 1 -5 -13z"/>
<path d="M2045 5140 c-3 -5 -1 -10 4 -10 6 0 11 5 11 10 0 6 -2 10 -4 10 -3 0
-8 -4 -11 -10z"/>
<path d="M2424 5128 l-19 -23 23 19 c21 18 27 26 19 26 -2 0 -12 -10 -23 -22z"/>
<path d="M2720 5126 c0 -2 7 -6 15 -10 8 -3 15 -1 15 4 0 6 -7 10 -15 10 -8 0
-15 -2 -15 -4z"/>
<path d="M4497 5123 c-9 -16 -5 -183 4 -183 5 0 9 19 9 43 1 23 2 66 3 95 2
47 -4 65 -16 45z"/>
<path d="M2269 5118 c-6 -18 -9 -71 -3 -65 7 7 14 67 7 67 -2 0 -3 -1 -4 -2z"/>
<path d="M3031 5104 c0 -11 3 -14 6 -6 3 7 2 16 -1 19 -3 4 -6 -2 -5 -13z"/>
<path d="M3605 5110 c-3 -5 -1 -10 4 -10 6 0 11 5 11 10 0 6 -2 10 -4 10 -3 0
-8 -4 -11 -10z"/>
<path d="M4611 5104 c0 -11 3 -14 6 -6 3 7 2 16 -1 19 -3 4 -6 -2 -5 -13z"/>
<path d="M3440 5089 c0 -5 5 -7 10 -4 6 3 10 8 10 11 0 2 -4 4 -10 4 -5 0 -10
-5 -10 -11z"/>
<path d="M3727 5084 c-4 -4 -7 -14 -7 -23 0 -11 3 -12 11 -4 6 6 10 16 7 23
-2 6 -7 8 -11 4z"/>
<path d="M2881 5064 c0 -11 3 -14 6 -6 3 7 2 16 -1 19 -3 4 -6 -2 -5 -13z"/>
<path d="M2150 5059 c0 -5 5 -7 10 -4 6 3 10 8 10 11 0 2 -4 4 -10 4 -5 0 -10
-5 -10 -11z"/>
<path d="M3633 5048 c-29 -11 -53 -25 -53 -29 0 -10 74 17 105 38 27 18 9 15
-52 -9z"/>
<path d="M3090 5050 c0 -5 5 -10 11 -10 5 0 7 5 4 10 -3 6 -8 10 -11 10 -2 0
-4 -4 -4 -10z"/>
<path d="M3205 5040 c3 -5 8 -10 11 -10 2 0 4 5 4 10 0 6 -5 10 -11 10 -5 0
-7 -4 -4 -10z"/>
<path d="M3413 5035 c0 -8 4 -12 9 -9 5 3 6 10 3 15 -9 13 -12 11 -12 -6z"/>
<path d="M2430 5029 c0 -5 5 -7 10 -4 6 3 10 8 10 11 0 2 -4 4 -10 4 -5 0 -10
-5 -10 -11z"/>
<path d="M3020 5025 c0 -8 2 -15 4 -15 2 0 6 7 10 15 3 8 1 15 -4 15 -6 0 -10
-7 -10 -15z"/>
<path d="M2485 5020 c-3 -5 -1 -10 5 -10 6 0 8 -5 4 -12 -4 -7 -3 -8 4 -4 6 4
9 13 5 21 -6 18 -10 19 -18 5z"/>
<path d="M2882 5010 c0 -14 2 -19 5 -12 2 6 2 18 0 25 -3 6 -5 1 -5 -13z"/>
<path d="M3545 5010 c-3 -5 1 -10 10 -10 9 0 13 5 10 10 -3 6 -8 10 -10 10 -2
0 -7 -4 -10 -10z"/>
<path d="M3722 5011 c-11 -7 -11 -9 1 -14 9 -3 18 1 21 9 6 16 -2 18 -22 5z"/>
<path d="M3800 5010 c0 -5 7 -7 15 -4 8 4 15 8 15 10 0 2 -7 4 -15 4 -8 0 -15
-4 -15 -10z"/>
<path d="M1956 4993 c-6 -14 -5 -15 5 -6 7 7 10 15 7 18 -3 3 -9 -2 -12 -12z"/>
<path d="M2166 5002 c-3 -5 1 -9 9 -9 8 0 12 4 9 9 -3 4 -7 8 -9 8 -2 0 -6 -4
-9 -8z"/>
<path d="M3150 5006 c0 -2 7 -7 16 -10 8 -3 12 -2 9 4 -6 10 -25 14 -25 6z"/>
<path d="M2567 4980 c3 -11 7 -20 9 -20 2 0 4 9 4 20 0 11 -4 20 -9 20 -5 0
-7 -9 -4 -20z"/>
<path d="M3820 4980 c0 -5 5 -10 10 -10 6 0 10 5 10 10 0 6 -4 10 -10 10 -5 0
-10 -4 -10 -10z"/>
<path d="M2460 4960 c-8 -5 -12 -12 -9 -15 4 -3 12 1 19 10 14 17 11 19 -10 5z"/>
<path d="M3436 4955 c-3 -8 -1 -15 4 -15 6 0 10 7 10 15 0 8 -2 15 -4 15 -2 0
-6 -7 -10 -15z"/>
<path d="M3177 4939 c-4 -16 -3 -18 9 -8 7 6 11 15 8 20 -8 13 -11 11 -17 -12z"/>
<path d="M2155 4940 c3 -5 8 -10 11 -10 2 0 4 5 4 10 0 6 -5 10 -11 10 -5 0
-7 -4 -4 -10z"/>
<path d="M2569 4938 c-6 -65 -3 -388 3 -388 8 0 12 23 10 50 -1 8 -2 90 -2
183 0 92 -2 167 -5 167 -3 0 -5 -6 -6 -12z"/>
<path d="M2881 4934 c0 -11 3 -14 6 -6 3 7 2 16 -1 19 -3 4 -6 -2 -5 -13z"/>
<path d="M3470 4939 c0 -5 5 -7 10 -4 6 3 10 8 10 11 0 2 -4 4 -10 4 -5 0 -10
-5 -10 -11z"/>
<path d="M4606 4933 c-6 -14 -5 -15 5 -6 7 7 10 15 7 18 -3 3 -9 -2 -12 -12z"/>
<path d="M1980 4930 c-9 -6 -10 -10 -3 -10 6 0 15 5 18 10 8 12 4 12 -15 0z"/>
<path d="M2423 4933 c8 -12 -27 -46 -36 -36 -4 3 -7 1 -7 -5 0 -19 16 -21 31
-4 26 31 30 40 18 48 -7 4 -9 3 -6 -3z"/>
<path d="M3186 4905 c-3 -8 -1 -15 4 -15 6 0 10 7 10 15 0 8 -2 15 -4 15 -2 0
-6 -7 -10 -15z"/>
<path d="M3405 4910 c-3 -5 1 -10 10 -10 9 0 13 5 10 10 -3 6 -8 10 -10 10 -2
0 -7 -4 -10 -10z"/>
<path d="M4496 4889 c-9 -45 -8 -89 3 -89 11 0 23 102 12 113 -4 4 -11 -6 -15
-24z"/>
<path d="M2882 4870 c0 -14 2 -19 5 -12 2 6 2 18 0 25 -3 6 -5 1 -5 -13z"/>
<path d="M3370 4880 c0 -5 5 -10 11 -10 5 0 7 5 4 10 -3 6 -8 10 -11 10 -2 0
-4 -4 -4 -10z"/>
<path d="M3500 4864 c-12 -31 -12 -34 -2 -34 8 0 32 43 32 55 0 16 -22 1 -30
-21z"/>
<path d="M4605 4880 c-3 -5 -1 -10 4 -10 6 0 11 5 11 10 0 6 -2 10 -4 10 -3 0
-8 -4 -11 -10z"/>
<path d="M4841 4874 c0 -11 3 -14 6 -6 3 7 2 16 -1 19 -3 4 -6 -2 -5 -13z"/>
<path d="M3700 4850 c0 -5 5 -10 11 -10 5 0 7 5 4 10 -3 6 -8 10 -11 10 -2 0
-4 -4 -4 -10z"/>
<path d="M3829 4830 c-7 -35 -4 -48 7 -38 3 4 4 21 2 40 l-3 33 -6 -35z"/>
<path d="M1691 4834 c0 -11 3 -14 6 -6 3 7 2 16 -1 19 -3 4 -6 -2 -5 -13z"/>
<path d="M2327 4819 c-15 -17 -27 -33 -27 -36 0 -2 -11 -19 -25 -37 -31 -41
-33 -58 -2 -24 52 58 67 79 67 93 0 8 7 15 15 15 8 0 15 5 15 10 0 18 -15 11
-43 -21z"/>
<path d="M2822 4793 c24 -32 51 -67 61 -78 38 -42 -2 36 -44 86 -57 68 -69 61
-17 -8z"/>
<path d="M1610 4825 c0 -8 4 -15 10 -15 5 0 7 7 4 15 -4 8 -8 15 -10 15 -2 0
-4 -7 -4 -15z"/>
<path d="M620 4819 c0 -5 5 -7 10 -4 6 3 10 8 10 11 0 2 -4 4 -10 4 -5 0 -10
-5 -10 -11z"/>
<path d="M3400 4810 c0 -5 5 -10 10 -10 6 0 10 5 10 10 0 6 -4 10 -10 10 -5 0
-10 -4 -10 -10z"/>
<path d="M2161 4794 c0 -11 3 -14 6 -6 3 7 2 16 -1 19 -3 4 -6 -2 -5 -13z"/>
<path d="M2520 4799 c0 -5 5 -7 10 -4 6 3 10 8 10 11 0 2 -4 4 -10 4 -5 0 -10
-5 -10 -11z"/>
<path d="M1381 4784 c0 -11 3 -14 6 -6 3 7 2 16 -1 19 -3 4 -6 -2 -5 -13z"/>
<path d="M1895 4790 c-3 -5 1 -10 9 -10 9 0 16 5 16 10 0 6 -4 10 -9 10 -6 0
-13 -4 -16 -10z"/>
<path d="M3700 4779 c0 -11 4 -18 10 -14 5 3 7 12 3 20 -7 21 -13 19 -13 -6z"/>
<path d="M4290 4781 c0 -5 5 -13 10 -16 6 -3 10 -2 10 4 0 5 -4 13 -10 16 -5
3 -10 2 -10 -4z"/>
<path d="M4499 4788 c-6 -24 -8 -127 -2 -131 5 -3 10 9 11 26 1 18 5 49 8 70
4 23 2 37 -5 37 -6 0 -11 -1 -12 -2z"/>
<path d="M4602 4761 c-1 -16 2 -32 6 -35 5 -3 9 10 9 29 0 42 -12 47 -15 6z"/>
<path d="M3257 4758 c-7 -23 -1 -38 14 -38 12 0 12 47 0 54 -5 3 -11 -4 -14
-16z"/>
<path d="M3517 4773 c-10 -10 -8 -43 2 -43 5 0 7 10 3 22 -3 14 -2 19 6 14 7
-4 12 -2 12 3 0 12 -13 14 -23 4z"/>
<path d="M1865 4760 c-3 -5 -2 -10 4 -10 5 0 13 5 16 10 3 6 2 10 -4 10 -5 0
-13 -4 -16 -10z"/>
<path d="M3450 4759 c0 -5 5 -7 10 -4 6 3 10 8 10 11 0 2 -4 4 -10 4 -5 0 -10
-5 -10 -11z"/>
<path d="M2440 4750 c-9 -6 -10 -10 -3 -10 6 0 15 5 18 10 8 12 4 12 -15 0z"/>
<path d="M3201 4744 c0 -11 3 -14 6 -6 3 7 2 16 -1 19 -3 4 -6 -2 -5 -13z"/>
<path d="M3305 4736 c-4 -10 -5 -107 -2 -215 4 -108 7 -251 7 -319 0 -80 4
-121 10 -117 6 4 10 103 9 268 -2 285 -9 414 -24 383z"/>
<path d="M3820 4739 c0 -5 5 -7 10 -4 6 3 10 8 10 11 0 2 -4 4 -10 4 -5 0 -10
-5 -10 -11z"/>
<path d="M2480 4723 c-13 -15 -12 -16 4 -10 10 4 20 7 22 7 2 0 4 5 4 10 0 15
-13 12 -30 -7z"/>
<path d="M1863 4713 c-15 -5 -17 -23 -4 -23 5 0 11 7 15 15 3 8 4 15 3 14 -1
0 -8 -3 -14 -6z"/>
<path d="M2395 4710 c3 -5 8 -10 11 -10 2 0 4 5 4 10 0 6 -5 10 -11 10 -5 0
-7 -4 -4 -10z"/>
<path d="M1909 4693 c-13 -16 -12 -17 4 -4 9 7 17 15 17 17 0 8 -8 3 -21 -13z"/>
<path d="M3161 4694 c0 -11 3 -14 6 -6 3 7 2 16 -1 19 -3 4 -6 -2 -5 -13z"/>
<path d="M1635 4690 c3 -5 11 -10 16 -10 6 0 7 5 4 10 -3 6 -11 10 -16 10 -6
0 -7 -4 -4 -10z"/>
<path d="M3020 4691 c0 -6 4 -13 10 -16 6 -3 7 1 4 9 -7 18 -14 21 -14 7z"/>
<path d="M3820 4671 c0 -12 5 -21 10 -21 6 0 10 6 10 14 0 8 -4 18 -10 21 -5
3 -10 -3 -10 -14z"/>
<path d="M4600 4673 c0 -12 5 -25 10 -28 13 -8 13 15 0 35 -8 12 -10 11 -10
-7z"/>
<path d="M1521 4654 c0 -11 3 -14 6 -6 3 7 2 16 -1 19 -3 4 -6 -2 -5 -13z"/>
<path d="M2390 4650 c0 -5 5 -10 11 -10 5 0 7 5 4 10 -3 6 -8 10 -11 10 -2 0
-4 -4 -4 -10z"/>
<path d="M4570 4630 c-6 -12 -9 -26 -6 -33 3 -8 5 -7 5 2 1 8 8 19 18 26 11 8
12 14 5 19 -6 3 -16 -3 -22 -14z"/>
<path d="M2915 4358 c3 -156 8 -373 10 -483 3 -110 5 -302 5 -426 0 -201 2
-228 16 -233 12 -5 14 -3 8 6 -5 7 -8 31 -7 53 4 94 2 295 -3 312 -5 17 -5 17
10 -1 8 -10 20 -15 26 -11 8 5 5 14 -12 30 -24 22 -25 29 -26 149 -1 98 1 125
11 120 9 -6 9 -5 0 7 -7 9 -12 70 -13 179 0 91 -3 188 -6 217 -4 46 -3 51 14
46 12 -3 19 1 19 11 0 11 -4 13 -13 5 -20 -16 -23 0 -23 117 0 179 -1 184 -12
184 -7 0 -9 -85 -4 -282z"/>
<path d="M3170 4630 c0 -5 5 -10 10 -10 6 0 10 5 10 10 0 6 -4 10 -10 10 -5 0
-10 -4 -10 -10z"/>
<path d="M3830 4598 c-3 -26 -1 -43 3 -39 5 5 7 26 5 47 l-3 39 -5 -47z"/>
<path d="M2209 4603 c-1 -16 -1 -70 0 -122 2 -69 -1 -96 -11 -102 -10 -7 -10
-9 0 -9 6 0 12 -9 12 -20 0 -11 5 -20 10 -20 6 0 10 57 10 150 0 93 -4 150
-10 150 -5 0 -11 -12 -11 -27z"/>
<path d="M2535 4621 c3 -6 -10 -22 -30 -38 -19 -15 -35 -32 -35 -36 0 -5 6 -2
13 5 8 7 26 22 40 33 27 20 36 45 16 45 -5 0 -8 -4 -4 -9z"/>
<path d="M4490 4590 c0 -22 5 -40 10 -40 6 0 10 18 10 40 0 22 -4 40 -10 40
-5 0 -10 -18 -10 -40z"/>
<path d="M4605 4600 c-3 -5 -1 -10 4 -10 6 0 11 5 11 10 0 6 -2 10 -4 10 -3 0
-8 -4 -11 -10z"/>
<path d="M3165 4590 c-3 -5 1 -10 9 -10 8 0 18 5 21 10 3 6 -1 10 -9 10 -8 0
-18 -4 -21 -10z"/>
<path d="M4600 4564 c0 -12 -7 -24 -15 -28 -8 -3 -15 -10 -15 -16 0 -7 6 -8
19 -1 24 13 32 34 20 52 -7 11 -9 9 -9 -7z"/>
<path d="M2630 4560 c0 -5 5 -10 11 -10 5 0 7 5 4 10 -3 6 -8 10 -11 10 -2 0
-4 -4 -4 -10z"/>
<path d="M3494 4562 c3 -5 0 -13 -6 -15 -8 -3 -6 -6 5 -6 19 -1 23 14 5 25 -6
4 -8 3 -4 -4z"/>
<path d="M3611 4534 c0 -11 3 -14 6 -6 3 7 2 16 -1 19 -3 4 -6 -2 -5 -13z"/>
<path d="M2392 4490 c-50 -50 -63 -70 -42 -70 6 0 10 4 10 9 0 5 21 29 47 54
26 26 45 49 42 52 -3 3 -29 -18 -57 -45z"/>
<path d="M2505 4514 c-16 -13 -25 -24 -19 -24 15 0 61 37 54 43 -3 3 -18 -6
-35 -19z"/>
<path d="M2569 4523 c0 -10 -2 -100 -4 -201 l-3 -183 -96 -97 c-52 -53 -109
-113 -125 -132 -17 -19 -39 -44 -50 -55 -10 -11 -26 -33 -36 -50 -9 -16 14 3
51 44 38 41 96 103 130 138 33 35 58 66 55 68 -2 3 1 5 8 5 7 0 27 16 45 35
l33 35 2 205 c1 113 0 205 -4 205 -3 0 -5 -8 -6 -17z"/>
<path d="M4489 4521 c-2 -17 -1 -59 1 -78 1 -16 3 -15 10 2 12 28 12 73 0 80
-5 3 -10 1 -11 -4z"/>
<path d="M1610 4510 c0 -5 5 -10 11 -10 5 0 7 5 4 10 -3 6 -8 10 -11 10 -2 0
-4 -4 -4 -10z"/>
<path d="M2722 4484 c10 -10 20 -16 22 -13 3 3 -5 11 -17 18 -21 13 -21 12 -5
-5z"/>
<path d="M3605 4480 c3 -5 8 -10 11 -10 2 0 4 5 4 10 0 6 -5 10 -11 10 -5 0
-7 -4 -4 -10z"/>
<path d="M2450 4465 c-7 -9 -11 -17 -8 -20 2 -2 12 4 21 15 9 11 13 20 8 20
-5 0 -14 -7 -21 -15z"/>
<path d="M3180 4470 c0 -5 5 -10 11 -10 5 0 7 5 4 10 -3 6 -8 10 -11 10 -2 0
-4 -4 -4 -10z"/>
<path d="M3405 4470 c-3 -5 -1 -10 4 -10 6 0 11 5 11 10 0 6 -2 10 -4 10 -3 0
-8 -4 -11 -10z"/>
<path d="M1756 4455 c4 -8 8 -15 10 -15 2 0 4 7 4 15 0 8 -4 15 -10 15 -5 0
-7 -7 -4 -15z"/>
<path d="M2110 4460 c-13 -8 -12 -10 3 -10 9 0 17 5 17 10 0 12 -1 12 -20 0z"/>
<path d="M3116 4443 c-6 -14 -5 -15 5 -6 7 7 10 15 7 18 -3 3 -9 -2 -12 -12z"/>
<path d="M1831 4434 c0 -11 3 -14 6 -6 3 7 2 16 -1 19 -3 4 -6 -2 -5 -13z"/>
<path d="M3635 4440 c3 -5 11 -10 16 -10 6 0 7 5 4 10 -3 6 -11 10 -16 10 -6
0 -7 -4 -4 -10z"/>
<path d="M4566 4424 c-10 -14 -15 -33 -13 -42 4 -14 5 -13 6 3 0 10 13 29 29
42 20 16 23 22 11 23 -9 0 -24 -12 -33 -26z"/>
<path d="M2415 4430 c-3 -5 -1 -10 4 -10 6 0 11 5 11 10 0 6 -2 10 -4 10 -3 0
-8 -4 -11 -10z"/>
<path d="M3160 4430 c-9 -6 -10 -10 -3 -10 6 0 15 5 18 10 8 12 4 12 -15 0z"/>
<path d="M3610 4410 c0 -5 5 -10 11 -10 5 0 7 5 4 10 -3 6 -8 10 -11 10 -2 0
-4 -4 -4 -10z"/>
<path d="M3741 4391 c-1 -27 2 -32 11 -23 8 8 8 17 0 34 -10 22 -11 21 -11
-11z"/>
<path d="M4522 4395 c0 -16 2 -22 5 -12 2 9 2 23 0 30 -3 6 -5 -1 -5 -18z"/>
<path d="M1765 4400 c3 -5 10 -10 16 -10 5 0 9 5 9 10 0 6 -7 10 -16 10 -8 0
-12 -4 -9 -10z"/>
<path d="M2285 4370 c-21 -22 -36 -42 -32 -46 3 -3 17 7 31 22 14 16 33 37 42
47 10 9 13 17 8 17 -6 0 -27 -18 -49 -40z"/>
<path d="M4484 4343 c-1 -35 3 -63 7 -63 5 0 10 10 10 23 1 12 3 40 4 63 2 26
-1 41 -8 41 -8 0 -12 -23 -13 -64z"/>
<path d="M1645 4380 c-3 -5 -2 -10 4 -10 5 0 13 5 16 10 3 6 2 10 -4 10 -5 0
-13 -4 -16 -10z"/>
<path d="M1915 4380 c3 -5 8 -10 11 -10 2 0 4 5 4 10 0 6 -5 10 -11 10 -5 0
-7 -4 -4 -10z"/>
<path d="M3555 4380 c3 -5 8 -10 11 -10 2 0 4 5 4 10 0 6 -5 10 -11 10 -5 0
-7 -4 -4 -10z"/>
<path d="M3790 4370 c8 -5 20 -10 25 -10 6 0 3 5 -5 10 -8 5 -19 10 -25 10 -5
0 -3 -5 5 -10z"/>
<path d="M4596 4371 c-3 -5 -3 -17 1 -27 4 -11 3 -15 -4 -11 -7 4 -10 0 -8
-10 2 -10 4 -22 4 -26 2 -22 19 7 23 39 4 34 -5 54 -16 35z"/>
<path d="M2850 4366 c0 -2 7 -9 15 -16 13 -11 14 -10 9 4 -5 14 -24 23 -24 12z"/>
<path d="M1202 4330 c0 -14 2 -19 5 -12 2 6 2 18 0 25 -3 6 -5 1 -5 -13z"/>
<path d="M193 4280 c0 -25 2 -35 4 -22 2 12 2 32 0 45 -2 12 -4 2 -4 -23z"/>
<path d="M2097 4309 c7 -7 15 -10 18 -7 3 3 -2 9 -12 12 -14 6 -15 5 -6 -5z"/>
<path d="M2209 4308 c-1 -7 -3 -47 -4 -88 -2 -41 -3 -83 -4 -92 -1 -19 -1 -43
0 -93 0 -16 1 -57 0 -90 0 -33 0 -145 -1 -249 0 -123 -4 -194 -11 -203 -8 -9
-8 -13 0 -13 7 0 10 -18 9 -50 -1 -29 -7 -50 -14 -50 -6 0 -19 -9 -29 -20 -20
-22 -7 -27 26 -9 19 10 20 8 19 -18 -4 -60 0 -108 9 -95 4 8 9 201 10 430 1
230 4 470 7 535 4 79 2 117 -5 117 -6 0 -12 -6 -12 -12z"/>
<path d="M2730 4310 c0 -5 5 -10 11 -10 5 0 7 5 4 10 -3 6 -8 10 -11 10 -2 0
-4 -4 -4 -10z"/>
<path d="M3160 4299 c0 -5 5 -7 10 -4 6 3 10 8 10 11 0 2 -4 4 -10 4 -5 0 -10
-5 -10 -11z"/>
<path d="M4551 4294 c0 -11 3 -14 6 -6 3 7 2 16 -1 19 -3 4 -6 -2 -5 -13z"/>
<path d="M3110 4290 c0 -17 17 -47 23 -40 2 3 -2 16 -10 30 -7 14 -13 18 -13
10z"/>
<path d="M3668 4293 c7 -3 16 -2 19 1 4 3 -2 6 -13 5 -11 0 -14 -3 -6 -6z"/>
<path d="M3750 4290 c0 -5 5 -10 10 -10 6 0 10 5 10 10 0 6 -4 10 -10 10 -5 0
-10 -4 -10 -10z"/>
<path d="M3520 4278 c0 -9 -3 -23 -6 -32 -3 -9 -2 -16 4 -16 14 0 23 43 12 54
-7 7 -10 4 -10 -6z"/>
<path d="M3181 4264 c0 -11 3 -14 6 -6 3 7 2 16 -1 19 -3 4 -6 -2 -5 -13z"/>
<path d="M4581 4257 c-13 -21 -12 -21 5 -5 10 10 16 20 13 22 -3 3 -11 -5 -18
-17z"/>
<path d="M2121 4254 c0 -11 3 -14 6 -6 3 7 2 16 -1 19 -3 4 -6 -2 -5 -13z"/>
<path d="M3716 4257 c3 -10 9 -15 12 -12 3 3 0 11 -7 18 -10 9 -11 8 -5 -6z"/>
<path d="M3841 4254 c0 -11 3 -14 6 -6 3 7 2 16 -1 19 -3 4 -6 -2 -5 -13z"/>
<path d="M4508 4239 c-20 -34 -24 -79 -8 -79 7 0 7 -7 0 -21 -13 -24 -4 -41
11 -19 5 8 6 27 3 42 -3 16 1 41 10 59 28 56 14 71 -16 18z"/>
<path d="M1883 4239 c-2 -23 3 -25 10 -4 4 8 3 16 -1 19 -4 3 -9 -4 -9 -15z"/>
<path d="M2084 4209 c-4 -7 -3 -9 4 -5 5 3 13 0 15 -6 4 -9 6 -10 6 -1 1 17
-16 25 -25 12z"/>
<path d="M1736 4202 c-3 -5 1 -9 9 -9 8 0 15 4 15 9 0 4 -4 8 -9 8 -6 0 -12
-4 -15 -8z"/>
<path d="M3140 4199 c0 -5 5 -7 10 -4 6 3 10 8 10 11 0 2 -4 4 -10 4 -5 0 -10
-5 -10 -11z"/>
<path d="M1625 4190 c-3 -5 -1 -10 4 -10 6 0 11 5 11 10 0 6 -2 10 -4 10 -3 0
-8 -4 -11 -10z"/>
<path d="M1830 4180 c0 -5 5 -10 10 -10 6 0 10 5 10 10 0 6 -4 10 -10 10 -5 0
-10 -4 -10 -10z"/>
<path d="M2450 4159 c0 -5 5 -7 10 -4 6 3 10 8 10 11 0 2 -4 4 -10 4 -5 0 -10
-5 -10 -11z"/>
<path d="M1247 4139 c7 -7 15 -10 18 -7 3 3 -2 9 -12 12 -14 6 -15 5 -6 -5z"/>
<path d="M1751 4134 c0 -11 3 -14 6 -6 3 7 2 16 -1 19 -3 4 -6 -2 -5 -13z"/>
<path d="M3508 4138 c9 -9 15 -9 24 0 9 9 7 12 -12 12 -19 0 -21 -3 -12 -12z"/>
<path d="M5011 4134 c0 -11 3 -14 6 -6 3 7 2 16 -1 19 -3 4 -6 -2 -5 -13z"/>
<path d="M865 4130 c3 -5 8 -10 11 -10 2 0 4 5 4 10 0 6 -5 10 -11 10 -5 0 -7
-4 -4 -10z"/>
<path d="M1500 4131 c0 -6 4 -13 10 -16 6 -3 7 1 4 9 -7 18 -14 21 -14 7z"/>
<path d="M2610 4131 c0 -6 5 -11 11 -11 5 0 7 -4 4 -10 -3 -5 -1 -10 4 -10 16
0 13 16 -4 30 -10 9 -15 9 -15 1z"/>
<path d="M1790 4120 c0 -5 5 -10 11 -10 5 0 7 5 4 10 -3 6 -8 10 -11 10 -2 0
-4 -4 -4 -10z"/>
<path d="M2470 4119 c0 -5 5 -7 10 -4 6 3 10 8 10 11 0 2 -4 4 -10 4 -5 0 -10
-5 -10 -11z"/>
<path d="M4591 4117 c-6 -8 -8 -17 -4 -20 7 -8 33 11 33 24 0 13 -16 11 -29
-4z"/>
<path d="M3512 4104 c4 -21 22 -23 26 -1 2 10 -3 17 -13 17 -10 0 -15 -6 -13
-16z"/>
<path d="M2340 4100 c0 -5 5 -10 11 -10 5 0 7 5 4 10 -3 6 -8 10 -11 10 -2 0
-4 -4 -4 -10z"/>
<path d="M921 4090 c-1 -14 44 -60 59 -60 4 0 7 7 7 14 0 8 -3 14 -6 13 -16
-3 -50 16 -54 31 -3 12 -5 13 -6 2z"/>
<path d="M3927 4089 c7 -7 15 -10 18 -7 3 3 -2 9 -12 12 -14 6 -15 5 -6 -5z"/>
<path d="M1534 4074 c-18 -14 -18 -15 4 -4 12 6 22 13 22 15 0 8 -5 6 -26 -11z"/>
<path d="M2310 4080 c0 -5 5 -10 11 -10 5 0 7 5 4 10 -3 6 -8 10 -11 10 -2 0
-4 -4 -4 -10z"/>
<path d="M4470 4080 c0 -5 4 -10 9 -10 6 0 13 5 16 10 3 6 -1 10 -9 10 -9 0
-16 -4 -16 -10z"/>
<path d="M1678 4073 c7 -3 16 -2 19 1 4 3 -2 6 -13 5 -11 0 -14 -3 -6 -6z"/>
<path d="M1767 4061 c-4 -17 -3 -21 5 -13 5 5 8 16 6 23 -3 8 -7 3 -11 -10z"/>
<path d="M2138 4059 c-1 -13 -2 -61 -2 -105 -1 -66 -5 -86 -20 -103 -11 -12
-14 -21 -8 -21 7 0 12 5 12 11 0 5 4 8 9 5 14 -9 24 50 24 142 0 77 -11 126
-15 71z"/>
<path d="M3748 4073 c7 -3 16 -2 19 1 4 3 -2 6 -13 5 -11 0 -14 -3 -6 -6z"/>
<path d="M1630 4060 c0 -6 7 -10 15 -10 8 0 15 2 15 4 0 2 -7 6 -15 10 -8 3
-15 1 -15 -4z"/>
<path d="M2569 3989 c-3 -154 0 -224 6 -217 8 8 9 287 1 295 -3 4 -7 -32 -7
-78z"/>
<path d="M2680 4061 c0 -6 5 -13 10 -16 6 -3 10 1 10 9 0 9 -4 16 -10 16 -5 0
-10 -4 -10 -9z"/>
<path d="M2981 4054 c0 -11 3 -14 6 -6 3 7 2 16 -1 19 -3 4 -6 -2 -5 -13z"/>
<path d="M3021 4054 c0 -11 3 -14 6 -6 3 7 2 16 -1 19 -3 4 -6 -2 -5 -13z"/>
<path d="M4165 4052 c-11 -2 -27 -11 -37 -19 -16 -14 -21 -34 -66 -223 -11
-47 -30 -119 -43 -160 -21 -70 -22 -97 -25 -430 -3 -393 -11 -671 -20 -712 -4
-16 -2 -28 3 -28 15 0 33 158 33 291 0 88 4 130 13 144 8 11 22 41 32 68 33
88 30 46 -9 -130 -15 -71 -12 -80 10 -27 21 50 27 37 10 -22 -17 -58 -26 -163
-15 -170 4 -2 11 5 14 17 4 11 9 18 11 16 3 -3 -2 -22 -10 -42 -20 -46 -22
-99 -3 -89 10 6 10 4 0 -7 -17 -17 -18 -173 -2 -163 8 4 9 -1 3 -17 -12 -32
-6 -531 6 -543 5 -5 12 -8 14 -5 3 3 8 466 11 1029 5 1082 8 1169 35 1178 5 2
10 10 10 18 0 11 29 14 165 14 91 0 165 4 165 9 0 8 -264 11 -305 3z m-87
-381 c-2 -36 -17 -106 -32 -156 -38 -124 -47 -142 -40 -75 4 30 8 65 10 77 6
58 17 109 24 118 5 6 14 39 21 75 15 75 23 57 17 -39z m0 -128 c-3 -16 -9 -37
-13 -47 -6 -14 -5 -17 3 -12 19 11 14 -19 -13 -86 -31 -77 -31 -86 0 -28 16
29 24 38 24 25 0 -11 -15 -49 -34 -85 l-34 -65 -1 46 c0 25 10 72 21 105 12
32 22 68 23 79 4 36 18 95 23 95 3 0 3 -12 1 -27z m-11 -268 c-9 -25 -12 -43
-6 -40 14 10 11 -3 -17 -59 -14 -28 -25 -52 -25 -53 4 -11 0 -25 -5 -20 -9 9
-14 68 -5 63 3 -2 6 9 7 25 1 29 54 143 62 134 2 -2 -3 -25 -11 -50z m-13
-182 c-14 -43 -31 -85 -37 -93 -10 -13 -9 -13 6 0 9 8 25 33 36 55 11 22 20
33 20 25 0 -8 -15 -46 -34 -85 -33 -70 -33 -70 -37 -35 -5 56 8 120 38 185 38
80 43 48 8 -52z"/>
<path d="M1587 4043 c-10 -9 -9 -23 1 -23 5 0 9 7 9 15 0 17 -1 18 -10 8z"/>
<path d="M3520 4041 c0 -5 -3 -16 -6 -25 -4 -10 -1 -16 9 -16 10 0 14 9 13 25
-1 23 -16 37 -16 16z"/>
<path d="M3705 4040 c-3 -5 -1 -10 4 -10 6 0 11 5 11 10 0 6 -2 10 -4 10 -3 0
-8 -4 -11 -10z"/>
<path d="M1810 4020 c0 -5 7 -7 15 -4 8 4 15 8 15 10 0 2 -7 4 -15 4 -8 0 -15
-4 -15 -10z"/>
<path d="M990 4013 c1 -12 51 -46 57 -39 3 3 -2 8 -11 12 -9 3 -16 12 -16 20
0 8 -7 14 -15 14 -8 0 -15 -3 -15 -7z"/>
<path d="M1213 4005 c0 -8 4 -12 9 -9 5 3 6 10 3 15 -9 13 -12 11 -12 -6z"/>
<path d="M1430 4013 c0 -5 9 -18 20 -28 11 -10 20 -16 20 -13 0 3 -9 15 -20
28 -11 13 -20 19 -20 13z"/>
<path d="M2730 4000 c0 -5 5 -10 11 -10 5 0 7 5 4 10 -3 6 -8 10 -11 10 -2 0
-4 -4 -4 -10z"/>
<path d="M2994 3994 c3 -9 6 -18 6 -20 0 -3 4 -3 10 1 11 7 2 35 -12 35 -6 0
-7 -7 -4 -16z"/>
<path d="M1690 3986 c0 -9 5 -16 10 -16 6 0 10 4 10 9 0 6 -4 13 -10 16 -5 3
-10 -1 -10 -9z"/>
<path d="M3305 3990 c-3 -5 -1 -10 4 -10 6 0 11 5 11 10 0 6 -2 10 -4 10 -3 0
-8 -4 -11 -10z"/>
<path d="M1790 3972 c0 -5 7 -9 15 -9 8 0 15 4 15 9 0 4 -7 8 -15 8 -8 0 -15
-4 -15 -8z"/>
<path d="M2760 3970 c0 -5 5 -10 11 -10 5 0 7 5 4 10 -3 6 -8 10 -11 10 -2 0
-4 -4 -4 -10z"/>
<path d="M3402 3960 c0 -14 2 -19 5 -12 2 6 2 18 0 25 -3 6 -5 1 -5 -13z"/>
<path d="M840 3960 c0 -5 5 -10 11 -10 5 0 7 5 4 10 -3 6 -8 10 -11 10 -2 0
-4 -4 -4 -10z"/>
<path d="M1660 3960 c0 -5 5 -10 11 -10 5 0 7 5 4 10 -3 6 -8 10 -11 10 -2 0
-4 -4 -4 -10z"/>
<path d="M1061 3717 c2 -176 6 -251 15 -258 9 -7 11 7 10 58 -1 38 -5 74 -9
81 -5 6 -5 12 0 12 12 0 5 332 -8 344 -7 8 -10 -59 -8 -237z"/>
<path d="M2080 3949 c0 -5 5 -7 10 -4 6 3 10 8 10 11 0 2 -4 4 -10 4 -5 0 -10
-5 -10 -11z"/>
<path d="M1751 3934 c0 -11 3 -14 6 -6 3 7 2 16 -1 19 -3 4 -6 -2 -5 -13z"/>
<path d="M1780 3935 c0 -8 4 -15 10 -15 5 0 7 7 4 15 -4 8 -8 15 -10 15 -2 0
-4 -7 -4 -15z"/>
<path d="M2510 3930 c0 -5 5 -10 10 -10 6 0 10 5 10 10 0 6 -4 10 -10 10 -5 0
-10 -4 -10 -10z"/>
<path d="M3345 3930 c-3 -5 -1 -10 4 -10 6 0 11 5 11 10 0 6 -2 10 -4 10 -3 0
-8 -4 -11 -10z"/>
<path d="M2990 3920 c0 -5 5 -10 10 -10 6 0 10 5 10 10 0 6 -4 10 -10 10 -5 0
-10 -4 -10 -10z"/>
<path d="M3835 3920 c-3 -5 1 -10 9 -10 9 0 16 5 16 10 0 6 -4 10 -9 10 -6 0
-13 -4 -16 -10z"/>
<path d="M3020 3900 c0 -5 5 -10 10 -10 6 0 10 5 10 10 0 6 -4 10 -10 10 -5 0
-10 -4 -10 -10z"/>
<path d="M3398 3893 c7 -3 16 -2 19 1 4 3 -2 6 -13 5 -11 0 -14 -3 -6 -6z"/>
<path d="M3496 3885 c-3 -8 -1 -15 4 -15 6 0 10 7 10 15 0 8 -2 15 -4 15 -2 0
-6 -7 -10 -15z"/>
<path d="M3630 3890 c0 -5 5 -10 11 -10 5 0 7 5 4 10 -3 6 -8 10 -11 10 -2 0
-4 -4 -4 -10z"/>
<path d="M1438 3883 c7 -3 16 -2 19 1 4 3 -2 6 -13 5 -11 0 -14 -3 -6 -6z"/>
<path d="M1655 3879 c-4 -6 -5 -12 -2 -15 2 -3 7 2 10 11 7 17 1 20 -8 4z"/>
<path d="M1290 3869 c0 -5 5 -7 10 -4 6 3 10 8 10 11 0 2 -4 4 -10 4 -5 0 -10
-5 -10 -11z"/>
<path d="M1510 3870 c0 -5 5 -10 11 -10 5 0 7 5 4 10 -3 6 -8 10 -11 10 -2 0
-4 -4 -4 -10z"/>
<path d="M3340 3870 c0 -5 5 -10 11 -10 5 0 7 5 4 10 -3 6 -8 10 -11 10 -2 0
-4 -4 -4 -10z"/>
<path d="M1590 3860 c8 -5 20 -10 25 -10 6 0 3 5 -5 10 -8 5 -19 10 -25 10 -5
0 -3 -5 5 -10z"/>
<path d="M2860 3860 c0 -5 5 -10 11 -10 5 0 7 5 4 10 -3 6 -8 10 -11 10 -2 0
-4 -4 -4 -10z"/>
<path d="M3065 3860 c3 -5 10 -10 16 -10 5 0 9 5 9 10 0 6 -7 10 -16 10 -8 0
-12 -4 -9 -10z"/>
<path d="M3408 3853 c7 -3 16 -2 19 1 4 3 -2 6 -13 5 -11 0 -14 -3 -6 -6z"/>
<path d="M1680 3840 c0 -5 5 -10 10 -10 6 0 10 5 10 10 0 6 -4 10 -10 10 -5 0
-10 -4 -10 -10z"/>
<path d="M3110 3836 c0 -8 7 -16 15 -20 13 -4 14 -2 5 14 -13 23 -20 26 -20 6z"/>
<path d="M2161 3814 c0 -11 3 -14 6 -6 3 7 2 16 -1 19 -3 4 -6 -2 -5 -13z"/>
<path d="M1801 3804 c0 -11 3 -14 6 -6 3 7 2 16 -1 19 -3 4 -6 -2 -5 -13z"/>
<path d="M3165 3794 c9 -9 19 -13 23 -10 3 4 0 11 -8 16 -24 15 -33 11 -15 -6z"/>
<path d="M2960 3777 c0 -17 38 -53 46 -44 8 8 -23 57 -36 57 -6 0 -10 -6 -10
-13z"/>
<path d="M2035 3770 c-3 -5 -1 -10 4 -10 6 0 11 5 11 10 0 6 -2 10 -4 10 -3 0
-8 -4 -11 -10z"/>
<path d="M2470 3765 c-7 -9 -8 -15 -2 -15 5 0 12 7 16 15 3 8 4 15 2 15 -2 0
-9 -7 -16 -15z"/>
<path d="M2572 3735 c0 -16 2 -22 5 -12 2 9 2 23 0 30 -3 6 -5 -1 -5 -18z"/>
<path d="M3700 3750 c0 -5 5 -10 11 -10 5 0 7 5 4 10 -3 6 -8 10 -11 10 -2 0
-4 -4 -4 -10z"/>
<path d="M3175 3740 c3 -5 8 -10 11 -10 2 0 4 5 4 10 0 6 -5 10 -11 10 -5 0
-7 -4 -4 -10z"/>
<path d="M3388 3733 c7 -3 16 -2 19 1 4 3 -2 6 -13 5 -11 0 -14 -3 -6 -6z"/>
<path d="M1485 3720 c3 -5 12 -7 20 -3 21 7 19 13 -6 13 -11 0 -18 -4 -14 -10z"/>
<path d="M1621 3721 c-8 -5 -9 -11 -3 -15 5 -3 12 1 16 9 6 17 6 18 -13 6z"/>
<path d="M2146 3703 c-11 -16 -62 -69 -113 -118 -51 -50 -93 -95 -93 -101 0
-7 17 5 38 25 20 20 51 48 67 61 44 37 127 138 123 150 -2 6 -12 -2 -22 -17z"/>
<path d="M1975 3710 c-3 -5 -1 -10 4 -10 6 0 11 5 11 10 0 6 -2 10 -4 10 -3 0
-8 -4 -11 -10z"/>
<path d="M3350 3710 c0 -5 5 -10 11 -10 5 0 7 5 4 10 -3 6 -8 10 -11 10 -2 0
-4 -4 -4 -10z"/>
<path d="M1450 3700 c0 -5 5 -10 11 -10 5 0 7 5 4 10 -3 6 -8 10 -11 10 -2 0
-4 -4 -4 -10z"/>
<path d="M2572 3675 c0 -16 2 -22 5 -12 2 9 2 23 0 30 -3 6 -5 -1 -5 -18z"/>
<path d="M1735 3680 c4 -6 11 -8 16 -5 14 9 11 15 -7 15 -8 0 -12 -5 -9 -10z"/>
<path d="M4825 3680 c-3 -5 -1 -10 4 -10 6 0 11 5 11 10 0 6 -2 10 -4 10 -3 0
-8 -4 -11 -10z"/>
<path d="M2080 3670 c-8 -5 -12 -12 -9 -15 4 -3 12 1 19 10 14 17 11 19 -10 5z"/>
<path d="M4346 3663 c-6 -14 -5 -15 5 -6 7 7 10 15 7 18 -3 3 -9 -2 -12 -12z"/>
<path d="M991 3654 c0 -11 3 -14 6 -6 3 7 2 16 -1 19 -3 4 -6 -2 -5 -13z"/>
<path d="M3401 3654 c0 -11 3 -14 6 -6 3 7 2 16 -1 19 -3 4 -6 -2 -5 -13z"/>
<path d="M2955 3650 c3 -5 11 -10 16 -10 6 0 7 5 4 10 -3 6 -11 10 -16 10 -6
0 -7 -4 -4 -10z"/>
<path d="M3170 3646 c0 -9 5 -16 10 -16 6 0 10 4 10 9 0 6 -4 13 -10 16 -5 3
-10 -1 -10 -9z"/>
<path d="M2005 3630 c-3 -5 -1 -10 4 -10 6 0 11 5 11 10 0 6 -2 10 -4 10 -3 0
-8 -4 -11 -10z"/>
<path d="M2570 3621 c0 -12 5 -21 10 -21 6 0 10 6 10 14 0 8 -4 18 -10 21 -5
3 -10 -3 -10 -14z"/>
<path d="M2990 3630 c0 -5 5 -10 11 -10 5 0 7 5 4 10 -3 6 -8 10 -11 10 -2 0
-4 -4 -4 -10z"/>
<path d="M3361 3624 c0 -11 3 -14 6 -6 3 7 2 16 -1 19 -3 4 -6 -2 -5 -13z"/>
<path d="M1979 3583 c-13 -17 -13 -17 6 -3 11 8 22 16 24 17 2 2 0 3 -6 3 -6
0 -17 -8 -24 -17z"/>
<path d="M2128 3582 c-7 -9 -52 -48 -100 -85 -49 -38 -88 -75 -88 -83 0 -15
15 -4 86 64 13 12 27 22 32 22 6 0 13 7 16 16 3 8 10 13 15 9 6 -3 15 4 21 15
6 11 16 20 23 20 7 0 13 9 14 20 2 25 -2 25 -19 2z"/>
<path d="M3058 3588 c11 -14 52 -31 52 -22 0 2 -15 11 -32 20 -28 14 -31 15
-20 2z"/>
<path d="M3358 3583 c7 -3 16 -2 19 1 4 3 -2 6 -13 5 -11 0 -14 -3 -6 -6z"/>
<path d="M2570 3565 c0 -8 2 -15 4 -15 2 0 6 7 10 15 3 8 1 15 -4 15 -6 0 -10
-7 -10 -15z"/>
<path d="M2980 3560 c0 -5 7 -10 15 -10 8 0 15 -7 15 -16 0 -8 5 -12 11 -9 7
5 4 14 -7 26 -19 21 -34 25 -34 9z"/>
<path d="M3137 3549 c7 -7 15 -10 18 -7 3 3 -2 9 -12 12 -14 6 -15 5 -6 -5z"/>
<path d="M3305 3550 c-3 -5 -1 -10 4 -10 6 0 11 5 11 10 0 6 -2 10 -4 10 -3 0
-8 -4 -11 -10z"/>
<path d="M2569 3473 c0 -37 -2 -83 -3 -100 -2 -18 0 -33 5 -33 5 0 9 15 10 33
4 127 3 159 -3 164 -5 2 -8 -26 -9 -64z"/>
<path d="M3047 3521 c3 -12 9 -21 14 -21 14 0 11 16 -5 29 -12 10 -13 8 -9 -8z"/>
<path d="M3175 3530 c3 -5 8 -10 11 -10 2 0 4 5 4 10 0 6 -5 10 -11 10 -5 0
-7 -4 -4 -10z"/>
<path d="M3280 3510 c-13 -8 -12 -10 3 -10 9 0 17 5 17 10 0 12 -1 12 -20 0z"/>
<path d="M2018 3439 c-43 -39 -78 -77 -78 -84 0 -8 35 20 77 61 42 41 80 74
85 74 4 0 8 5 8 10 0 19 -16 9 -92 -61z"/>
<path d="M3080 3502 c0 -6 9 -14 20 -17 11 -3 20 -11 20 -16 0 -5 5 -9 12 -9
6 0 22 -10 35 -22 16 -15 23 -17 23 -7 0 8 -22 27 -48 44 -60 38 -62 39 -62
27z"/>
<path d="M1485 3480 c3 -5 8 -10 11 -10 2 0 4 5 4 10 0 6 -5 10 -11 10 -5 0
-7 -4 -4 -10z"/>
<path d="M2460 3470 c-13 -8 -12 -10 3 -10 9 0 17 5 17 10 0 12 -1 12 -20 0z"/>
<path d="M475 3430 c-3 -5 -1 -10 4 -10 6 0 11 5 11 10 0 6 -2 10 -4 10 -3 0
-8 -4 -11 -10z"/>
<path d="M1068 3425 c-6 -31 3 -165 12 -165 4 0 6 39 4 86 -3 84 -9 113 -16
79z"/>
<path d="M1705 3430 c-3 -5 -1 -10 4 -10 6 0 11 5 11 10 0 6 -2 10 -4 10 -3 0
-8 -4 -11 -10z"/>
<path d="M1585 3420 c3 -5 8 -10 11 -10 2 0 4 5 4 10 0 6 -5 10 -11 10 -5 0
-7 -4 -4 -10z"/>
<path d="M3368 3423 c7 -3 16 -2 19 1 4 3 -2 6 -13 5 -11 0 -14 -3 -6 -6z"/>
<path d="M1831 3404 c0 -11 3 -14 6 -6 3 7 2 16 -1 19 -3 4 -6 -2 -5 -13z"/>
<path d="M1660 3400 c0 -5 5 -10 10 -10 6 0 10 5 10 10 0 6 -4 10 -10 10 -5 0
-10 -4 -10 -10z"/>
<path d="M1770 3400 c0 -5 5 -10 11 -10 5 0 7 5 4 10 -3 6 -8 10 -11 10 -2 0
-4 -4 -4 -10z"/>
<path d="M1705 3390 c-3 -5 -1 -10 4 -10 6 0 11 5 11 10 0 6 -2 10 -4 10 -3 0
-8 -4 -11 -10z"/>
<path d="M3865 3360 c-3 -5 1 -10 9 -10 9 0 16 5 16 10 0 6 -4 10 -9 10 -6 0
-13 -4 -16 -10z"/>
<path d="M1807 3353 c-4 -3 -7 -11 -7 -17 0 -6 5 -5 12 2 6 6 9 14 7 17 -3 3
-9 2 -12 -2z"/>
<path d="M2115 3319 c-4 -6 -5 -12 -2 -15 7 -7 37 7 37 17 0 13 -27 11 -35 -2z"/>
<path d="M2565 3320 c-3 -5 -1 -10 4 -10 6 0 11 5 11 10 0 6 -2 10 -4 10 -3 0
-8 -4 -11 -10z"/>
<path d="M3000 3326 c0 -1 9 -9 20 -19 15 -13 20 -14 20 -3 0 7 -9 16 -20 19
-11 3 -20 4 -20 3z"/>
<path d="M3661 3314 c0 -11 3 -14 6 -6 3 7 2 16 -1 19 -3 4 -6 -2 -5 -13z"/>
<path d="M3812 3279 c0 -34 3 -47 8 -34 8 24 6 72 -3 81 -4 4 -6 -17 -5 -47z"/>
<path d="M1610 3310 c0 -5 5 -10 11 -10 5 0 7 5 4 10 -3 6 -8 10 -11 10 -2 0
-4 -4 -4 -10z"/>
<path d="M3395 3300 c3 -5 8 -10 11 -10 2 0 4 5 4 10 0 6 -5 10 -11 10 -5 0
-7 -4 -4 -10z"/>
<path d="M3720 3295 c0 -8 4 -15 10 -15 5 0 7 7 4 15 -4 8 -8 15 -10 15 -2 0
-4 -7 -4 -15z"/>
<path d="M2062 3261 c-15 -16 -53 -56 -84 -90 -32 -33 -62 -61 -68 -61 -5 0
-10 -7 -10 -15 0 -8 -4 -15 -9 -15 -5 0 -30 -19 -55 -42 -25 -24 -53 -49 -61
-56 -8 -7 -15 -17 -15 -23 0 -6 19 8 43 30 23 22 53 49 67 61 45 38 91 80 87
80 -2 0 32 36 76 80 44 44 75 80 68 80 -6 0 -24 -13 -39 -29z"/>
<path d="M2560 3264 c-14 -35 -12 -64 3 -64 9 0 12 12 11 38 -2 20 0 27 2 14
6 -26 24 -20 24 8 0 30 -29 33 -40 4z"/>
<path d="M2375 3257 c-48 -13 -80 -27 -79 -34 1 -7 2 -26 3 -43 0 -16 6 -30
12 -30 6 0 9 15 7 37 -2 24 2 38 11 41 11 4 12 -3 7 -33 -6 -28 -4 -36 6 -33
7 3 12 12 10 22 -2 9 2 16 8 16 5 0 10 -4 10 -10 0 -12 47 -13 54 -1 9 14 -6
22 -21 10 -10 -9 -13 -5 -13 20 0 17 5 31 10 31 6 0 10 -7 10 -15 0 -8 7 -15
15 -15 8 0 15 -9 15 -20 0 -11 5 -20 10 -20 7 0 8 13 5 34 -4 20 -2 36 4 40
12 8 15 26 4 25 -5 0 -44 -10 -88 -22z m65 -11 c0 -3 -4 -8 -10 -11 -5 -3 -10
-1 -10 4 0 6 5 11 10 11 6 0 10 -2 10 -4z m-66 -21 c-4 -8 -10 -15 -15 -15 -5
0 -9 7 -9 15 0 8 7 15 15 15 9 0 12 -6 9 -15z"/>
<path d="M2496 3263 c4 -10 8 -28 8 -40 2 -50 35 -13 36 40 0 12 -8 17 -26 17
-21 0 -25 -3 -18 -17z"/>
<path d="M2610 3240 c0 -48 17 -54 22 -7 2 17 8 31 13 29 6 -2 8 -11 7 -20 -2
-9 -5 -21 -5 -27 -1 -5 7 -11 18 -13 18 -2 20 2 17 38 -4 38 -6 40 -38 40 -33
0 -34 -1 -34 -40z"/>
<path d="M2702 3238 c4 -49 28 -66 28 -20 0 37 -9 62 -22 62 -5 0 -8 -19 -6
-42z"/>
<path d="M2744 3244 c3 -9 6 -29 6 -45 0 -16 5 -29 10 -29 6 0 10 20 10 45 0
35 -4 45 -16 45 -11 0 -14 -5 -10 -16z"/>
<path d="M1075 3240 c3 -5 8 -10 11 -10 2 0 4 5 4 10 0 6 -5 10 -11 10 -5 0
-7 -4 -4 -10z"/>
<path d="M2790 3205 c0 -59 14 -59 17 0 1 25 -3 45 -8 45 -5 0 -9 -20 -9 -45z"/>
<path d="M630 3230 c0 -5 5 -10 11 -10 5 0 7 5 4 10 -3 6 -8 10 -11 10 -2 0
-4 -4 -4 -10z"/>
<path d="M2826 3223 c-11 -11 -7 -85 4 -78 6 3 10 17 10 30 0 13 5 27 12 31 8
5 9 -2 5 -25 -7 -35 15 -73 29 -50 3 6 1 15 -5 19 -7 4 -11 19 -9 35 2 20 -2
29 -19 35 -11 5 -24 6 -27 3z"/>
<path d="M3115 3210 c3 -5 8 -10 11 -10 2 0 4 5 4 10 0 6 -5 10 -11 10 -5 0
-7 -4 -4 -10z"/>
<path d="M3810 3209 c0 -5 5 -7 10 -4 6 3 10 8 10 11 0 2 -4 4 -10 4 -5 0 -10
-5 -10 -11z"/>
<path d="M2210 3183 c0 -7 -7 -10 -16 -6 -15 5 -14 -14 2 -65 8 -26 24 0 25
41 l1 42 13 -40 13 -40 2 35 c2 25 4 28 7 13 6 -33 23 -28 23 6 0 27 -3 29
-35 28 -21 -1 -35 -6 -35 -14z"/>
<path d="M2883 3184 c-8 -21 6 -32 17 -14 13 20 12 8 0 -24 -6 -17 -6 -26 0
-26 10 0 30 41 30 59 0 16 -41 20 -47 5z"/>
<path d="M3806 3168 c-3 -13 -2 -26 2 -30 4 -4 8 6 9 23 3 35 -2 38 -11 7z"/>
<path d="M3210 3170 c0 -6 7 -10 15 -10 8 0 15 2 15 4 0 2 -7 6 -15 10 -8 3
-15 1 -15 -4z"/>
<path d="M4351 3144 c0 -11 3 -14 6 -6 3 7 2 16 -1 19 -3 4 -6 -2 -5 -13z"/>
<path d="M1590 3130 c0 -5 5 -10 11 -10 5 0 7 5 4 10 -3 6 -8 10 -11 10 -2 0
-4 -4 -4 -10z"/>
<path d="M2580 3140 c-1 -3 -3 -18 -6 -35 -3 -28 -3 -29 7 -6 5 13 8 29 5 35
-2 6 -5 9 -6 6z"/>
<path d="M2948 3123 c7 -3 16 -2 19 1 4 3 -2 6 -13 5 -11 0 -14 -3 -6 -6z"/>
<path d="M3235 3110 c-3 -5 -1 -10 4 -10 6 0 11 5 11 10 0 6 -2 10 -4 10 -3 0
-8 -4 -11 -10z"/>
<path d="M1185 3100 c3 -5 8 -10 11 -10 2 0 4 5 4 10 0 6 -5 10 -11 10 -5 0
-7 -4 -4 -10z"/>
<path d="M2937 3103 c-2 -5 -3 -417 -3 -918 4 -1929 6 -2185 16 -2185 6 0 10
6 9 13 -1 6 -1 535 0 1175 1 1034 3 1162 16 1162 14 0 13 4 -2 33 -11 22 -17
57 -17 115 -1 45 0 82 2 82 2 0 14 -11 28 -24 14 -13 51 -38 81 -57 30 -19 85
-55 121 -81 69 -49 85 -57 76 -35 -5 12 -138 117 -148 117 -5 0 -115 82 -150
111 -8 7 -12 217 -3 225 2 2 24 -14 49 -36 44 -38 68 -50 68 -32 0 4 -14 16
-32 26 -50 30 -85 69 -87 96 0 14 -2 69 -3 122 -3 88 -8 113 -21 91z"/>
<path d="M4350 3101 c0 -5 5 -13 10 -16 6 -3 10 -2 10 4 0 5 -4 13 -10 16 -5
3 -10 2 -10 -4z"/>
<path d="M1610 3090 c0 -6 7 -10 15 -10 8 0 15 2 15 4 0 2 -7 6 -15 10 -8 3
-15 1 -15 -4z"/>
<path d="M2189 3033 c0 -27 -2 -469 -3 -983 l-2 -935 -42 -43 c-44 -45 -48
-60 -34 -134 5 -28 10 -35 21 -29 8 6 10 14 5 22 -5 8 -9 29 -10 47 0 21 2 28
7 20 6 -9 9 -6 9 10 0 12 -1 23 -2 25 -4 4 29 37 36 37 3 0 3 -13 0 -30 -4
-16 -2 -36 4 -42 6 -8 10 -121 10 -298 0 -301 10 -691 17 -699 3 -2 6 -2 8 0
7 13 -6 3079 -14 3079 -5 0 -9 -21 -10 -47z"/>
<path d="M3030 3071 c0 -14 61 -73 69 -66 2 3 -12 22 -32 42 -20 20 -37 31
-37 24z"/>
<path d="M575 3050 c3 -5 8 -10 11 -10 2 0 4 5 4 10 0 6 -5 10 -11 10 -5 0 -7
-4 -4 -10z"/>
<path d="M2570 3010 c0 -29 3 -51 6 -47 9 8 9 85 1 94 -4 3 -7 -18 -7 -47z"/>
<path d="M3360 3052 c0 -12 34 -42 48 -42 19 0 14 18 -10 34 -25 18 -38 20
-38 8z"/>
<path d="M731 3024 c0 -11 3 -14 6 -6 3 7 2 16 -1 19 -3 4 -6 -2 -5 -13z"/>
<path d="M2066 3024 c-5 -14 -4 -15 9 -4 17 14 19 20 6 20 -5 0 -12 -7 -15
-16z"/>
<path d="M4190 3026 c0 -9 5 -16 10 -16 6 0 10 4 10 9 0 6 -4 13 -10 16 -5 3
-10 -1 -10 -9z"/>
<path d="M1070 3004 c0 -8 5 -12 10 -9 6 4 8 11 5 16 -9 14 -15 11 -15 -7z"/>
<path d="M3631 3004 c0 -11 3 -14 6 -6 3 7 2 16 -1 19 -3 4 -6 -2 -5 -13z"/>
<path d="M957 2980 c3 -11 9 -20 15 -20 5 0 4 9 -2 20 -6 11 -12 20 -14 20 -2
0 -2 -9 1 -20z"/>
<path d="M1486 2992 c-3 -5 1 -9 9 -9 8 0 12 4 9 9 -3 4 -7 8 -9 8 -2 0 -6 -4
-9 -8z"/>
<path d="M3110 2991 c0 -5 9 -13 20 -16 11 -3 27 -13 35 -21 13 -14 15 -14 15
0 0 9 -5 16 -11 16 -6 0 -17 7 -25 15 -17 17 -34 20 -34 6z"/>
<path d="M3807 2981 c-3 -12 -1 -21 3 -21 15 0 23 21 12 32 -6 6 -11 2 -15
-11z"/>
<path d="M4196 2987 c3 -10 9 -15 12 -12 3 3 0 11 -7 18 -10 9 -11 8 -5 -6z"/>
<path d="M1077 2973 c-10 -9 -9 -23 1 -23 5 0 9 7 9 15 0 17 -1 18 -10 8z"/>
<path d="M3598 2963 c7 -3 16 -2 19 1 4 3 -2 6 -13 5 -11 0 -14 -3 -6 -6z"/>
<path d="M4195 2950 c3 -5 8 -10 11 -10 2 0 4 5 4 10 0 6 -5 10 -11 10 -5 0
-7 -4 -4 -10z"/>
<path d="M1001 2918 c73 -104 257 -318 274 -318 15 0 0 23 -41 67 -25 26 -73
82 -106 123 -33 41 -63 77 -67 80 -3 3 -19 22 -34 43 -34 45 -57 50 -26 5z"/>
<path d="M2575 2816 c0 -74 3 -132 7 -129 10 5 9 263 0 263 -4 0 -7 -60 -7
-134z"/>
<path d="M3196 2941 c-4 -5 -2 -12 3 -15 5 -4 12 -2 15 3 4 5 2 12 -3 15 -5 4
-12 2 -15 -3z"/>
<path d="M3230 2910 c0 -5 5 -10 11 -10 5 0 7 5 4 10 -3 6 -8 10 -11 10 -2 0
-4 -4 -4 -10z"/>
<path d="M4190 2910 c0 -5 5 -10 10 -10 6 0 10 5 10 10 0 6 -4 10 -10 10 -5 0
-10 -4 -10 -10z"/>
<path d="M3270 2879 c0 -5 5 -7 10 -4 6 3 10 8 10 11 0 2 -4 4 -10 4 -5 0 -10
-5 -10 -11z"/>
<path d="M4150 2869 c0 -5 5 -7 10 -4 6 3 10 8 10 11 0 2 -4 4 -10 4 -5 0 -10
-5 -10 -11z"/>
<path d="M1850 2809 c0 -5 5 -7 10 -4 6 3 10 8 10 11 0 2 -4 4 -10 4 -5 0 -10
-5 -10 -11z"/>
<path d="M3370 2810 c0 -5 5 -10 11 -10 5 0 7 5 4 10 -3 6 -8 10 -11 10 -2 0
-4 -4 -4 -10z"/>
<path d="M835 2790 c3 -5 8 -10 11 -10 2 0 4 5 4 10 0 6 -5 10 -11 10 -5 0 -7
-4 -4 -10z"/>
<path d="M987 2794 c-3 -4 0 -13 8 -21 8 -8 15 -24 15 -36 0 -21 81 -107 101
-107 5 0 9 -7 9 -15 0 -8 7 -15 15 -15 8 0 15 -7 15 -15 0 -9 7 -18 15 -21 8
-3 17 -14 20 -25 8 -23 25 -25 25 -3 0 22 -58 94 -76 94 -8 0 -14 4 -14 9 0 5
-16 25 -35 45 -19 20 -47 54 -61 76 -29 44 -28 43 -37 34z"/>
<path d="M2006 2784 c-22 -21 -20 -27 4 -12 11 7 20 16 20 20 0 12 -7 10 -24
-8z"/>
<path d="M3170 2779 c0 -15 125 -99 147 -99 21 0 16 5 -39 42 -110 72 -108 71
-108 57z"/>
<path d="M3100 2753 c1 -9 114 -87 143 -98 34 -14 16 14 -25 38 -24 13 -60 34
-80 46 -21 13 -38 19 -38 14z"/>
<path d="M915 2721 c-3 -5 -2 -12 3 -15 5 -3 9 1 9 9 0 17 -3 19 -12 6z"/>
<path d="M3852 2469 c1 -145 3 -306 6 -356 4 -83 6 -93 23 -93 22 0 26 25 4
33 -12 5 -14 57 -15 334 0 187 -4 331 -10 337 -5 5 -9 -92 -8 -255z"/>
<path d="M1655 2690 c-16 -7 -17 -9 -3 -9 9 -1 20 4 23 9 7 11 7 11 -20 0z"/>
<path d="M1875 2680 c-3 -5 -1 -10 4 -10 6 0 11 5 11 10 0 6 -2 10 -4 10 -3 0
-8 -4 -11 -10z"/>
<path d="M2477 2683 c-4 -3 -7 -11 -7 -17 0 -6 5 -5 12 2 6 6 9 14 7 17 -3 3
-9 2 -12 -2z"/>
<path d="M1846 2653 c-6 -14 -5 -15 5 -6 7 7 10 15 7 18 -3 3 -9 -2 -12 -12z"/>
<path d="M2577 2643 c-4 -3 -7 -11 -7 -17 0 -6 5 -5 12 2 6 6 9 14 7 17 -3 3
-9 2 -12 -2z"/>
<path d="M1810 2630 c0 -5 5 -10 10 -10 6 0 10 5 10 10 0 6 -4 10 -10 10 -5 0
-10 -4 -10 -10z"/>
<path d="M1782 2608 c-14 -14 -16 -28 -3 -28 9 0 24 30 18 36 -2 2 -9 -2 -15
-8z"/>
<path d="M2116 2584 c-74 -50 -90 -71 -29 -39 50 27 91 61 82 69 -2 2 -26 -11
-53 -30z"/>
<path d="M1008 2101 l3 -506 133 -132 c128 -126 133 -133 130 -170 -1 -21 0
-28 3 -15 2 12 8 20 13 17 9 -6 6 28 -4 44 -4 5 -3 11 1 14 5 2 3 3 -3 1 -7
-1 -20 13 -30 32 -10 19 -23 33 -29 30 -16 -6 -41 16 -49 42 -5 13 -10 21 -13
19 -2 -3 -33 24 -69 59 l-64 64 -1 478 c-1 544 -1 529 -14 529 -7 0 -9 -174
-7 -506z"/>
<path d="M1286 2602 c-8 -13 21 -45 56 -62 18 -9 17 -6 -8 18 -17 16 -33 35
-36 43 -3 9 -6 10 -12 1z"/>
<path d="M2390 2599 c0 -5 5 -7 10 -4 6 3 10 8 10 11 0 2 -4 4 -10 4 -5 0 -10
-5 -10 -11z"/>
<path d="M2571 2546 c1 -36 5 -66 11 -66 10 0 6 116 -5 126 -3 4 -6 -23 -6
-60z"/>
<path d="M2406 2554 c-5 -14 -4 -15 9 -4 17 14 19 20 6 20 -5 0 -12 -7 -15
-16z"/>
<path d="M640 2550 c0 -5 5 -10 11 -10 5 0 7 5 4 10 -3 6 -8 10 -11 10 -2 0
-4 -4 -4 -10z"/>
<path d="M670 2522 c0 -5 7 -15 15 -22 8 -7 15 -8 15 -2 0 5 -7 15 -15 22 -8
7 -15 8 -15 2z"/>
<path d="M1361 2353 c-1 -86 1 -154 5 -150 4 3 8 66 9 139 2 73 4 139 6 147 2
7 -1 15 -8 18 -8 3 -12 -39 -12 -154z"/>
<path d="M713 2475 c0 -8 4 -15 9 -15 4 0 8 4 8 9 0 6 -4 12 -8 15 -5 3 -9 -1
-9 -9z"/>
<path d="M3996 2473 c-3 -10 -8 -53 -10 -96 -4 -60 -3 -78 7 -74 8 2 13 33 14
95 3 90 0 109 -11 75z"/>
<path d="M2576 2457 c3 -10 9 -15 12 -12 3 3 0 11 -7 18 -10 9 -11 8 -5 -6z"/>
<path d="M3047 2444 c2 -7 11 -10 19 -7 19 7 18 10 -5 16 -13 3 -18 1 -14 -9z"/>
<path d="M740 2445 c0 -3 9 -14 20 -25 11 -11 20 -16 20 -11 0 5 -7 17 -16 25
-16 16 -24 20 -24 11z"/>
<path d="M2042 2424 c-18 -12 -29 -25 -25 -27 9 -6 70 40 63 46 -3 2 -20 -6
-38 -19z"/>
<path d="M790 2397 c0 -10 90 -100 95 -95 3 2 -18 26 -45 53 -28 27 -50 46
-50 42z"/>
<path d="M2570 2385 c0 -8 5 -15 10 -15 6 0 10 7 10 15 0 8 -4 15 -10 15 -5 0
-10 -7 -10 -15z"/>
<path d="M3000 2391 c0 -5 7 -16 15 -25 8 -8 15 -21 15 -28 0 -10 -3 -9 -10 2
-5 8 -12 11 -15 8 -4 -4 -4 -11 -1 -17 12 -18 168 -123 174 -116 4 4 -20 33
-53 65 -33 32 -71 72 -84 89 -23 30 -41 40 -41 22z"/>
<path d="M1960 2370 c-9 -6 -10 -10 -3 -10 6 0 15 5 18 10 8 12 4 12 -15 0z"/>
<path d="M2040 2350 c0 -5 5 -10 10 -10 6 0 10 5 10 10 0 6 -4 10 -10 10 -5 0
-10 -4 -10 -10z"/>
<path d="M2577 2346 c-4 -10 -5 -21 -2 -24 9 -9 17 6 13 25 -3 17 -4 17 -11
-1z"/>
<path d="M1851 2334 c0 -11 3 -14 6 -6 3 7 2 16 -1 19 -3 4 -6 -2 -5 -13z"/>
<path d="M910 2282 c0 -5 7 -15 15 -22 8 -7 15 -8 15 -2 0 5 -7 15 -15 22 -8
7 -15 8 -15 2z"/>
<path d="M3993 2263 c-7 -15 -13 -36 -13 -47 0 -10 -11 -33 -24 -50 -36 -48
-59 -97 -49 -107 6 -6 15 5 23 26 8 19 17 35 22 35 4 0 8 9 8 20 0 11 5 19 12
18 19 -4 42 50 28 67 -8 10 -8 14 1 17 6 2 9 14 7 26 -3 21 -4 21 -15 -5z"/>
<path d="M2970 2256 c0 -7 7 -13 15 -13 8 0 15 4 15 8 0 4 -7 9 -15 13 -9 3
-15 0 -15 -8z"/>
<path d="M3026 2241 c-4 -6 -1 -18 8 -26 10 -11 17 -12 22 -4 3 6 0 18 -9 26
-10 10 -17 12 -21 4z"/>
<path d="M2575 2211 c-3 -5 -1 -12 5 -16 5 -3 10 1 10 9 0 18 -6 21 -15 7z"/>
<path d="M3060 2202 c0 -5 6 -17 14 -27 13 -18 14 -18 9 8 -5 24 -23 39 -23
19z"/>
<path d="M2475 2190 c-3 -5 -1 -10 4 -10 6 0 11 5 11 10 0 6 -2 10 -4 10 -3 0
-8 -4 -11 -10z"/>
<path d="M1353 2184 c3 -4 2 -15 -3 -24 -8 -15 -6 -17 10 -13 14 4 35 -9 72
-42 28 -25 65 -53 80 -61 l29 -15 -4 -181 c-4 -170 -3 -183 16 -203 l19 -20
-11 22 c-7 14 -10 85 -10 195 1 95 1 179 0 185 0 7 -21 26 -46 41 -25 16 -42
31 -39 35 4 4 2 7 -4 7 -7 0 -24 14 -39 30 -14 17 -32 30 -40 30 -7 0 -13 5
-13 10 0 6 -5 10 -12 10 -6 0 -8 -3 -5 -6z"/>
<path d="M3011 2175 c1 -19 18 -51 18 -35 0 8 -4 22 -9 30 -5 8 -9 11 -9 5z"/>
<path d="M2310 2150 c0 -5 5 -10 11 -10 5 0 7 5 4 10 -3 6 -8 10 -11 10 -2 0
-4 -4 -4 -10z"/>
<path d="M2576 2144 c-4 -9 -4 -19 -1 -22 2 -3 7 3 11 12 4 9 4 19 1 22 -2 3
-7 -3 -11 -12z"/>
<path d="M1332 2100 c-6 -16 -7 -32 -3 -34 4 -3 13 10 19 29 12 43 -2 47 -16
5z"/>
<path d="M3036 2122 c-4 -7 -5 -15 -3 -19 4 -7 20 -349 20 -440 1 -18 4 -33 8
-33 10 0 -1 456 -11 484 -4 13 -9 16 -14 8z"/>
<path d="M2576 2073 c-4 -9 -2 -21 4 -27 7 -7 10 -2 10 17 0 31 -5 34 -14 10z"/>
<path d="M2505 2070 c-3 -5 -1 -10 4 -10 6 0 11 5 11 10 0 6 -2 10 -4 10 -3 0
-8 -4 -11 -10z"/>
<path d="M2470 2049 c0 -5 5 -7 10 -4 6 3 10 8 10 11 0 2 -4 4 -10 4 -5 0 -10
-5 -10 -11z"/>
<path d="M2263 2035 c0 -8 4 -12 9 -9 5 3 6 10 3 15 -9 13 -12 11 -12 -6z"/>
<path d="M4645 2018 c-11 -22 -11 -28 -3 -18 8 8 20 20 27 26 8 8 9 14 2 18
-5 4 -17 -8 -26 -26z"/>
<path d="M3945 2030 c-3 -5 -1 -10 4 -10 6 0 11 5 11 10 0 6 -2 10 -4 10 -3 0
-8 -4 -11 -10z"/>
<path d="M1290 1948 c-1 -46 -3 -109 -5 -140 -3 -31 -1 -60 4 -63 5 -3 10 53
10 125 1 72 4 137 7 145 4 8 1 15 -5 15 -7 0 -11 -29 -11 -82z"/>
<path d="M2320 2015 c-8 -9 -8 -15 -2 -15 12 0 26 19 19 26 -2 2 -10 -2 -17
-11z"/>
<path d="M2070 2000 c0 -5 5 -10 11 -10 5 0 7 5 4 10 -3 6 -8 10 -11 10 -2 0
-4 -4 -4 -10z"/>
<path d="M3860 1999 c0 -5 5 -7 10 -4 6 3 10 8 10 11 0 2 -4 4 -10 4 -5 0 -10
-5 -10 -11z"/>
<path d="M3900 1955 c0 -8 5 -15 10 -15 6 0 10 7 10 15 0 8 -4 15 -10 15 -5 0
-10 -7 -10 -15z"/>
<path d="M2570 1939 c0 -11 5 -17 10 -14 6 3 10 13 10 21 0 8 -4 14 -10 14 -5
0 -10 -9 -10 -21z"/>
<path d="M3862 1930 c-10 -17 -10 -20 3 -20 8 0 15 2 15 4 0 2 3 11 6 20 9 23
-9 20 -24 -4z"/>
<path d="M2316 1922 c-3 -5 1 -9 9 -9 8 0 12 4 9 9 -3 4 -7 8 -9 8 -2 0 -6 -4
-9 -8z"/>
<path d="M4549 1873 c-18 -27 -48 -67 -67 -91 -19 -23 -32 -46 -28 -50 4 -4
19 7 32 23 14 17 33 39 42 50 26 30 48 67 54 93 9 32 3 28 -33 -25z"/>
<path d="M4632 1890 c-6 -11 -12 -29 -12 -40 0 -11 -4 -20 -8 -20 -5 0 -13
-16 -19 -35 -19 -60 6 -40 37 31 17 36 30 70 30 75 0 16 -15 10 -28 -11z"/>
<path d="M3766 1886 c7 -17 44 -22 44 -6 0 6 -4 10 -9 10 -5 0 -17 3 -25 6
-12 5 -15 2 -10 -10z"/>
<path d="M3690 1878 c0 -11 -7 -14 -25 -10 -21 4 -25 1 -24 -19 1 -17 3 -19 6
-6 3 12 11 15 28 11 26 -6 43 12 26 29 -8 8 -11 7 -11 -5z"/>
<path d="M3866 1871 c-4 -7 -5 -15 -2 -18 9 -9 19 4 14 18 -4 11 -6 11 -12 0z"/>
<path d="M3600 1850 c0 -11 5 -20 10 -20 6 0 10 9 10 20 0 11 -4 20 -10 20 -5
0 -10 -9 -10 -20z"/>
<path d="M3718 1833 c7 -3 16 -2 19 1 4 3 -2 6 -13 5 -11 0 -14 -3 -6 -6z"/>
<path d="M3798 1833 c7 -3 16 -2 19 1 4 3 -2 6 -13 5 -11 0 -14 -3 -6 -6z"/>
<path d="M3535 1820 c3 -5 8 -10 11 -10 2 0 4 5 4 10 0 6 -5 10 -11 10 -5 0
-7 -4 -4 -10z"/>
<path d="M3660 1820 l-25 -8 28 -1 c15 -1 27 4 27 9 0 6 -1 10 -2 9 -2 -1 -14
-5 -28 -9z"/>
<path d="M2570 1810 c0 -5 5 -10 10 -10 6 0 10 5 10 10 0 6 -4 10 -10 10 -5 0
-10 -4 -10 -10z"/>
<path d="M3725 1800 c-3 -5 3 -10 14 -10 12 0 21 5 21 10 0 6 -6 10 -14 10 -8
0 -18 -4 -21 -10z"/>
<path d="M3778 1803 c7 -3 16 -2 19 1 4 3 -2 6 -13 5 -11 0 -14 -3 -6 -6z"/>
<path d="M3875 1800 c3 -5 8 -10 11 -10 2 0 4 5 4 10 0 6 -5 10 -11 10 -5 0
-7 -4 -4 -10z"/>
<path d="M3575 1793 c-37 -9 -41 -24 -5 -17 44 8 75 24 45 23 -11 -1 -29 -3
-40 -6z"/>
<path d="M3814 1788 c-11 -17 6 -22 22 -7 13 14 13 16 -1 16 -9 0 -18 -4 -21
-9z"/>
<path d="M4013 1739 c-41 -60 -65 -108 -60 -122 4 -12 52 55 81 111 27 53 13
60 -21 11z"/>
<path d="M4660 1765 c0 -8 -10 -31 -22 -52 -39 -70 -48 -88 -48 -102 0 -11 3
-11 15 -1 8 7 15 17 15 23 0 6 12 31 27 56 29 50 40 91 23 91 -5 0 -10 -7 -10
-15z"/>
<path d="M3880 1741 c0 -5 9 -11 20 -14 24 -6 27 8 4 17 -21 8 -24 8 -24 -3z"/>
<path d="M3799 1723 c-13 -17 -13 -17 6 -3 11 8 22 16 24 17 2 2 0 3 -6 3 -6
0 -17 -8 -24 -17z"/>
<path d="M1284 1710 c0 -13 4 -16 10 -10 7 7 7 13 0 20 -6 6 -10 3 -10 -10z"/>
<path d="M3895 1700 c-3 -5 -1 -10 4 -10 6 0 11 5 11 10 0 6 -2 10 -4 10 -3 0
-8 -4 -11 -10z"/>
<path d="M1279 1648 c0 -13 -2 -30 -4 -39 -1 -9 1 -23 6 -30 6 -9 9 5 9 39 0
50 -9 76 -11 30z"/>
<path d="M1555 1573 c1 -27 3 -88 5 -138 l4 -90 5 70 c7 87 2 205 -9 205 -4 0
-7 -21 -5 -47z"/>
<path d="M4671 1613 c0 -7 -1 -16 -2 -20 0 -5 -7 -12 -15 -16 -8 -4 -14 -13
-14 -19 0 -7 -9 -22 -21 -34 -11 -12 -19 -30 -17 -39 2 -13 11 -6 31 25 15 23
27 46 27 50 0 5 5 10 11 12 6 2 9 15 6 28 -2 14 -5 19 -6 13z"/>
<path d="M3190 1580 c0 -5 5 -10 10 -10 6 0 10 5 10 10 0 6 -4 10 -10 10 -5 0
-10 -4 -10 -10z"/>
<path d="M1279 1522 c5 -34 6 -35 9 -8 2 16 0 32 -5 37 -5 5 -7 -7 -4 -29z"/>
<path d="M3952 1495 c0 -16 2 -22 5 -12 2 9 2 23 0 30 -3 6 -5 -1 -5 -18z"/>
<path d="M1022 1445 c3 -54 6 -61 31 -73 16 -8 31 -20 34 -28 3 -8 9 -14 14
-14 14 0 10 30 -5 36 -10 4 -12 14 -6 40 4 18 4 32 0 29 -5 -3 -22 12 -40 32
l-31 38 3 -60z m46 -40 c3 -25 2 -27 -12 -16 -19 16 -22 55 -3 49 6 -3 14 -17
15 -33z"/>
<path d="M4166 1410 c-3 -22 -10 -40 -14 -40 -4 0 -13 -15 -21 -32 -8 -18 -17
-35 -21 -38 -11 -9 -62 -102 -57 -106 7 -7 33 28 63 86 15 30 35 64 45 75 18
21 33 95 20 95 -5 0 -11 -18 -15 -40z"/>
<path d="M3951 1424 c0 -11 3 -14 6 -6 3 7 2 16 -1 19 -3 4 -6 -2 -5 -13z"/>
<path d="M4635 1419 c-4 -6 -5 -13 -2 -16 7 -7 27 6 27 18 0 12 -17 12 -25 -2z"/>
<path d="M1100 1383 c0 -15 2 -16 10 -3 8 12 10 12 15 -2 4 -10 4 -21 1 -27
-8 -12 14 -61 26 -61 5 0 13 10 17 23 7 18 3 28 -22 55 -35 36 -47 40 -47 15z
m60 -48 c0 -8 -4 -15 -10 -15 -5 0 -10 7 -10 15 0 8 5 15 10 15 6 0 10 -7 10
-15z"/>
<path d="M4607 1370 c-3 -11 -1 -20 4 -20 4 0 13 9 19 20 8 16 8 20 -3 20 -8
0 -17 -9 -20 -20z"/>
<path d="M3610 1370 c0 -5 5 -10 11 -10 5 0 7 5 4 10 -3 6 -8 10 -11 10 -2 0
-4 -4 -4 -10z"/>
<path d="M1024 1292 c1 -61 18 -87 24 -37 2 14 -1 25 -6 25 -6 0 -8 9 -5 19 3
11 0 27 -5 37 -7 13 -10 1 -8 -44z"/>
<path d="M3945 1331 c-3 -5 -1 -12 5 -16 5 -3 10 1 10 9 0 18 -6 21 -15 7z"/>
<path d="M4158 1300 c-2 -22 0 -40 4 -40 5 0 8 18 8 40 0 22 -2 40 -4 40 -2 0
-6 -18 -8 -40z"/>
<path d="M4600 1329 c0 -5 5 -7 10 -4 6 3 10 8 10 11 0 2 -4 4 -10 4 -5 0 -10
-5 -10 -11z"/>
<path d="M1566 1321 c-4 -5 -2 -12 3 -15 5 -4 12 -2 15 3 4 5 2 12 -3 15 -5 4
-12 2 -15 -3z"/>
<path d="M1185 1294 c-12 -19 -14 -29 -5 -39 6 -8 18 -11 26 -8 9 3 14 -2 14
-15 0 -12 5 -24 10 -27 13 -8 13 2 -2 64 -6 28 -15 51 -19 51 -3 0 -14 -12
-24 -26z m22 -26 c-3 -8 -6 -5 -6 6 -1 11 2 17 5 13 3 -3 4 -12 1 -19z"/>
<path d="M3595 1310 c-3 -5 -1 -10 4 -10 6 0 11 5 11 10 0 6 -2 10 -4 10 -3 0
-8 -4 -11 -10z"/>
<path d="M4670 1304 c0 -8 5 -12 10 -9 6 4 8 11 5 16 -9 14 -15 11 -15 -7z"/>
<path d="M4263 1274 c-6 -16 16 -66 27 -59 5 3 6 13 3 22 -5 14 0 15 40 11 43
-5 47 -4 47 16 0 19 -6 21 -56 21 -31 0 -58 -5 -61 -11z"/>
<path d="M4623 1263 c-7 -15 -13 -36 -13 -47 1 -16 5 -13 20 14 11 19 19 41
20 48 0 21 -14 13 -27 -15z"/>
<path d="M3765 1270 c-3 -6 1 -7 9 -4 18 7 21 14 7 14 -6 0 -13 -4 -16 -10z"/>
<path d="M1115 1260 c3 -5 8 -10 11 -10 2 0 4 5 4 10 0 6 -5 10 -11 10 -5 0
-7 -4 -4 -10z"/>
<path d="M3733 1240 c-13 -5 -23 -15 -22 -22 0 -10 2 -10 6 0 2 6 11 12 18 12
8 0 17 5 20 10 7 12 7 12 -22 0z"/>
<path d="M3880 1220 c-6 -11 -8 -20 -6 -20 3 0 10 9 16 20 6 11 8 20 6 20 -3
0 -10 -9 -16 -20z"/>
<path d="M4146 1225 c-4 -11 -20 -48 -37 -83 -31 -66 -35 -82 -20 -82 17 0 73
129 69 158 -4 24 -5 25 -12 7z"/>
<path d="M1080 1207 c0 -19 10 -27 26 -20 11 4 12 9 3 19 -15 18 -29 18 -29 1z"/>
<path d="M1291 1204 c0 -11 3 -14 6 -6 3 7 2 16 -1 19 -3 4 -6 -2 -5 -13z"/>
<path d="M1126 1181 c-4 -6 -3 -18 2 -27 6 -11 11 -13 16 -5 4 6 3 18 -2 27
-6 11 -11 13 -16 5z"/>
<path d="M1290 1158 c0 -16 5 -28 10 -28 13 0 13 20 0 40 -8 12 -10 9 -10 -12z"/>
<path d="M3809 1153 c-13 -15 -12 -15 9 -4 23 12 28 21 13 21 -5 0 -15 -7 -22
-17z"/>
<path d="M1370 1141 c0 -19 52 -71 71 -71 16 0 10 9 -31 50 -32 32 -40 36 -40
21z"/>
<path d="M1020 1090 c0 -35 3 -60 7 -56 7 7 5 108 -3 115 -2 2 -4 -24 -4 -59z"/>
<path d="M1174 1111 c11 -11 24 -21 30 -21 6 0 5 4 -2 9 -8 4 -13 12 -12 17 0
5 -7 11 -17 13 -17 3 -17 2 1 -18z"/>
<path d="M3750 1110 c-14 -10 -22 -22 -18 -25 4 -4 19 5 33 19 30 30 21 34
-15 6z"/>
<path d="M4625 1111 c-3 -5 -1 -12 5 -16 5 -3 10 1 10 9 0 18 -6 21 -15 7z"/>
<path d="M4287 1064 c-4 -4 -7 -18 -7 -31 0 -16 6 -23 20 -23 13 0 20 7 20 20
0 11 0 23 1 28 0 10 -25 14 -34 6z"/>
<path d="M1476 1041 c10 -10 21 -17 23 -15 6 6 -20 34 -32 34 -6 0 -2 -8 9
-19z"/>
<path d="M3830 1050 c-13 -8 -12 -10 3 -10 9 0 17 5 17 10 0 12 -1 12 -20 0z"/>
<path d="M4360 1035 c0 -18 5 -25 20 -25 15 0 20 7 20 25 0 18 -5 25 -20 25
-15 0 -20 -7 -20 -25z"/>
<path d="M4133 1017 c-7 -15 -13 -32 -13 -38 0 -5 -23 -44 -50 -85 -28 -41
-48 -79 -44 -85 14 -23 128 175 122 213 -3 22 -3 21 -15 -5z"/>
<path d="M1410 1014 c0 -17 22 -14 28 4 2 7 -3 12 -12 12 -9 0 -16 -7 -16 -16z"/>
<path d="M1010 995 c0 -15 7 -28 18 -32 23 -9 132 -89 157 -116 18 -19 20 -19
23 -4 4 19 -25 47 -115 113 -35 25 -63 50 -63 55 0 5 -4 9 -10 9 -5 0 -10 -11
-10 -25z"/>
<path d="M3567 993 c-10 -10 -8 -33 2 -33 6 0 9 9 8 20 -1 23 -1 22 -10 13z"/>
<path d="M2157 950 c-3 -11 -1 -20 4 -20 5 0 9 9 9 20 0 11 -2 20 -4 20 -2 0
-6 -9 -9 -20z"/>
<path d="M3745 960 c-3 -5 1 -10 10 -10 9 0 13 5 10 10 -3 6 -8 10 -10 10 -2
0 -7 -4 -10 -10z"/>
<path d="M4280 939 c0 -26 3 -30 22 -27 17 2 23 10 25 31 1 23 -2 27 -23 27
-20 0 -24 -5 -24 -31z"/>
<path d="M4362 943 c2 -17 10 -29 21 -31 13 -3 17 3 17 27 0 25 -4 31 -21 31
-16 0 -20 -5 -17 -27z"/>
<path d="M1261 944 c0 -11 3 -14 6 -6 3 7 2 16 -1 19 -3 4 -6 -2 -5 -13z"/>
<path d="M3520 930 c0 -19 3 -21 12 -12 9 9 9 15 0 24 -9 9 -12 7 -12 -12z"/>
<path d="M1369 921 c12 -21 55 -51 73 -51 14 1 -60 70 -74 70 -5 0 -4 -8 1
-19z"/>
<path d="M1008 669 c-3 -300 0 -429 10 -429 9 0 9 676 0 686 -4 3 -9 -112 -10
-257z"/>
<path d="M1262 890 c0 -14 2 -19 5 -12 2 6 2 18 0 25 -3 6 -5 1 -5 -13z"/>
<path d="M3520 870 c0 -5 7 -10 16 -10 8 0 12 5 9 10 -3 6 -10 10 -16 10 -5 0
-9 -4 -9 -10z"/>
<path d="M4120 852 c0 -15 -5 -33 -12 -40 -9 -9 -9 -12 0 -12 13 0 16 6 26 53
4 15 2 27 -4 27 -5 0 -10 -13 -10 -28z"/>
<path d="M1475 860 c-3 -5 -1 -10 4 -10 6 0 11 5 11 10 0 6 -2 10 -4 10 -3 0
-8 -4 -11 -10z"/>
<path d="M1650 860 c0 -5 5 -10 11 -10 5 0 7 5 4 10 -3 6 -8 10 -11 10 -2 0
-4 -4 -4 -10z"/>
<path d="M4287 862 c-3 -4 -4 -18 -2 -32 1 -18 8 -26 25 -28 18 -3 21 0 16 13
-3 9 -6 23 -6 30 0 14 -27 28 -33 17z"/>
<path d="M4369 868 c-1 -2 -2 -18 -4 -35 -2 -27 1 -33 16 -33 15 0 19 7 19 35
0 24 -5 35 -15 35 -8 0 -15 -1 -16 -2z"/>
<path d="M1370 833 c1 -17 68 -69 77 -60 5 5 -61 77 -71 77 -3 0 -6 -8 -6 -17z"/>
<path d="M2151 834 c0 -11 3 -14 6 -6 3 7 2 16 -1 19 -3 4 -6 -2 -5 -13z"/>
<path d="M3520 790 c0 -35 3 -60 7 -57 8 9 7 106 -1 114 -3 4 -6 -22 -6 -57z"/>
<path d="M1654 829 c-3 -6 -1 -16 5 -22 8 -8 11 -5 11 11 0 24 -5 28 -16 11z"/>
<path d="M3617 793 c-12 -11 -8 -23 7 -23 8 0 16 7 20 15 5 15 -14 21 -27 8z"/>
<path d="M155 780 c3 -5 8 -10 11 -10 2 0 4 5 4 10 0 6 -5 10 -11 10 -5 0 -7
-4 -4 -10z"/>
<path d="M1656 753 c-3 -21 -4 -51 -2 -68 2 -16 4 -54 4 -83 1 -33 6 -51 12
-47 6 4 8 10 5 15 -3 5 -6 56 -6 114 0 58 -2 106 -4 106 -2 0 -6 -17 -9 -37z"/>
<path d="M1370 765 c0 -9 8 -18 18 -22 9 -3 27 -15 39 -26 13 -11 26 -18 29
-14 7 6 -40 53 -68 68 -14 7 -18 6 -18 -6z"/>
<path d="M3959 752 c-8 -10 -19 -23 -23 -30 -10 -17 26 -3 42 16 25 32 8 45
-19 14z"/>
<path d="M4282 719 c-1 -26 3 -30 21 -27 16 2 22 11 24 31 1 22 -2 27 -21 27
-19 0 -23 -6 -24 -31z"/>
<path d="M4363 720 c0 -22 5 -30 19 -30 13 0 18 8 18 30 0 22 -5 30 -18 30
-14 0 -19 -8 -19 -30z"/>
<path d="M1080 730 c0 -5 5 -10 11 -10 5 0 7 5 4 10 -3 6 -8 10 -11 10 -2 0
-4 -4 -4 -10z"/>
<path d="M1370 708 c0 -12 61 -58 77 -58 10 0 -39 50 -59 61 -13 7 -18 6 -18
-3z"/>
<path d="M3520 675 c0 -27 3 -45 7 -42 7 8 6 77 -2 85 -3 3 -5 -16 -5 -43z"/>
<path d="M3622 670 c-10 -16 -10 -20 2 -20 19 0 27 13 17 28 -4 8 -11 5 -19
-8z"/>
<path d="M4105 681 c-3 -5 -1 -12 5 -16 5 -3 10 1 10 9 0 18 -6 21 -15 7z"/>
<path d="M4681 685 c-1 -10 -25 -40 -74 -95 -12 -14 -38 -46 -57 -70 -19 -25
-39 -48 -45 -52 -7 -5 -6 -8 1 -8 12 0 58 48 129 134 50 61 58 74 51 89 -2 7
-5 8 -5 2z"/>
<path d="M1140 673 c1 -4 10 -24 20 -43 l20 -35 -2 40 c-2 29 -8 41 -20 43
-10 2 -18 0 -18 -5z"/>
<path d="M4540 660 c0 -5 5 -10 11 -10 5 0 7 5 4 10 -3 6 -8 10 -11 10 -2 0
-4 -4 -4 -10z"/>
<path d="M1370 648 c0 -16 69 -62 78 -53 7 6 -25 35 -60 56 -13 7 -18 6 -18
-3z"/>
<path d="M2126 645 c-3 -8 -1 -15 4 -15 6 0 10 7 10 15 0 8 -2 15 -4 15 -2 0
-6 -7 -10 -15z"/>
<path d="M4288 643 c-3 -4 -5 -20 -6 -35 -2 -24 2 -27 21 -24 17 2 22 10 22
32 0 27 -27 47 -37 27z"/>
<path d="M4366 613 c0 -16 4 -27 7 -25 4 1 12 2 17 2 6 0 10 11 10 25 0 17 -5
25 -18 25 -13 0 -17 -7 -16 -27z"/>
<path d="M4510 620 c0 -5 5 -10 10 -10 6 0 10 5 10 10 0 6 -4 10 -10 10 -5 0
-10 -4 -10 -10z"/>
<path d="M3520 609 c0 -5 5 -7 10 -4 6 3 10 8 10 11 0 2 -4 4 -10 4 -5 0 -10
-5 -10 -11z"/>
<path d="M1370 588 c0 -12 61 -68 74 -68 4 0 6 7 6 15 0 8 -4 15 -9 15 -5 0
-23 12 -40 26 -20 16 -31 21 -31 12z"/>
<path d="M3520 566 c0 -8 14 -15 36 -18 43 -5 55 8 19 22 -36 14 -55 12 -55
-4z"/>
<path d="M3610 545 c0 -8 7 -15 15 -15 8 0 15 4 15 9 0 5 -7 11 -15 15 -9 3
-15 0 -15 -9z"/>
<path d="M1740 540 c0 -5 5 -10 11 -10 5 0 7 5 4 10 -3 6 -8 10 -11 10 -2 0
-4 -4 -4 -10z"/>
<path d="M4649 509 c-18 -22 -36 -42 -38 -45 -2 -2 1 -4 6 -4 13 0 78 79 71
85 -2 2 -20 -14 -39 -36z"/>
<path d="M1665 530 c-3 -5 -1 -10 4 -10 6 0 11 5 11 10 0 6 -2 10 -4 10 -3 0
-8 -4 -11 -10z"/>
<path d="M4296 528 c-16 -51 -14 -58 11 -58 19 0 24 4 19 16 -3 9 -6 24 -6 35
0 21 -18 26 -24 7z"/>
<path d="M4377 513 c-6 -33 2 -51 14 -32 11 18 11 59 0 59 -5 0 -11 -12 -14
-27z"/>
<path d="M3521 428 c-1 -90 1 -106 13 -102 11 4 13 12 6 30 -5 13 -7 48 -5 78
3 29 1 64 -4 77 -7 18 -10 -5 -10 -83z"/>
<path d="M1116 475 c7 -17 20 -20 28 -6 3 5 -1 12 -10 15 -22 9 -24 8 -18 -9z"/>
<path d="M1400 450 c19 -17 41 -30 50 -30 9 0 2 12 -20 30 -19 16 -42 29 -50
29 -9 0 -1 -12 20 -29z"/>
<path d="M4116 441 c-18 -34 -21 -61 -6 -61 10 0 34 79 26 87 -2 3 -12 -9 -20
-26z"/>
<path d="M1140 442 c0 -12 19 -26 26 -19 2 2 -2 10 -11 17 -9 8 -15 8 -15 2z"/>
<path d="M4485 439 c-4 -6 -5 -12 -2 -15 2 -3 7 2 10 11 7 17 1 20 -8 4z"/>
<path d="M4586 435 c-3 -8 -2 -15 3 -15 5 0 14 7 21 15 10 12 10 15 -3 15 -8
0 -17 -7 -21 -15z"/>
<path d="M2510 400 c0 -20 5 -30 15 -30 10 0 15 10 15 30 0 20 -5 30 -15 30
-10 0 -15 -10 -15 -30z"/>
<path d="M3930 420 c0 -5 -10 -18 -22 -30 -18 -16 -19 -20 -5 -20 8 0 19 6 24
13 9 15 15 47 8 47 -3 0 -5 -4 -5 -10z"/>
<path d="M1177 413 c-3 -4 1 -16 8 -26 9 -13 15 -15 20 -7 4 7 1 19 -8 27 -8
8 -17 11 -20 6z"/>
<path d="M4290 385 c0 -14 0 -28 0 -32 0 -5 8 -8 17 -8 13 0 18 9 19 33 1 25
-2 32 -17 32 -14 0 -19 -7 -19 -25z"/>
<path d="M4413 398 c-23 -31 -25 -40 -8 -36 10 1 20 13 21 26 4 25 1 28 -13
10z"/>
<path d="M4550 395 c-7 -8 -8 -15 -2 -15 5 0 15 7 22 15 7 8 8 15 2 15 -5 0
-15 -7 -22 -15z"/>
<path d="M1875 380 c-3 -5 -1 -10 4 -10 6 0 11 5 11 10 0 6 -2 10 -4 10 -3 0
-8 -4 -11 -10z"/>
<path d="M3871 354 c0 -11 3 -14 6 -6 3 7 2 16 -1 19 -3 4 -6 -2 -5 -13z"/>
<path d="M1890 356 c0 -2 7 -7 16 -10 8 -3 12 -2 9 4 -6 10 -25 14 -25 6z"/>
<path d="M3565 350 c4 -6 11 -8 16 -5 14 9 11 15 -7 15 -8 0 -12 -5 -9 -10z"/>
<path d="M1935 307 c10 -15 20 -25 23 -22 3 3 -5 16 -17 28 l-23 22 17 -28z"/>
<path d="M3520 301 c0 -6 5 -13 10 -16 6 -3 10 1 10 9 0 9 -4 16 -10 16 -5 0
-10 -4 -10 -9z"/>
<path d="M4117 288 c-8 -30 9 -47 18 -18 4 12 3 26 -3 32 -6 6 -11 1 -15 -14z"/>
<path d="M3882 270 c0 -14 2 -19 5 -12 2 6 2 18 0 25 -3 6 -5 1 -5 -13z"/>
<path d="M4297 273 c-14 -13 -7 -63 8 -63 10 0 15 11 15 35 0 33 -8 43 -23 28z"/>
<path d="M4380 269 c0 -5 5 -7 10 -4 6 3 10 8 10 11 0 2 -4 4 -10 4 -5 0 -10
-5 -10 -11z"/>
<path d="M2517 263 c-13 -13 -7 -53 8 -53 10 0 15 10 15 30 0 29 -9 38 -23 23z"/>
<path d="M1370 230 c0 -12 59 -50 78 -50 23 0 12 15 -28 38 -44 25 -50 26 -50
12z"/>
<path d="M3526 231 c-5 -7 0 -21 10 -32 33 -37 47 -18 16 22 -14 16 -21 19
-26 10z"/>
<path d="M4068 203 c2 -12 8 -20 13 -18 12 8 7 42 -6 42 -7 0 -10 -10 -7 -24z"/>
<path d="M2030 210 c0 -5 5 -10 11 -10 5 0 7 5 4 10 -3 6 -8 10 -11 10 -2 0
-4 -4 -4 -10z"/>
<path d="M4117 203 c-10 -10 -8 -63 2 -63 9 0 21 33 21 58 0 13 -13 16 -23 5z"/>
<path d="M3878 175 c-27 -36 -22 -52 7 -25 24 22 34 50 18 50 -5 0 -16 -11
-25 -25z"/>
<path d="M2070 166 c0 -2 7 -7 16 -10 8 -3 12 -2 9 4 -6 10 -25 14 -25 6z"/>
<path d="M1087 153 c-3 -4 13 -28 34 -53 30 -35 39 -41 39 -25 -1 29 -62 96
-73 78z"/>
<path d="M1380 126 c0 -8 18 -23 40 -34 51 -25 56 -3 6 27 -39 25 -46 26 -46
7z"/>
<path d="M4298 134 c-5 -4 -8 -21 -8 -38 0 -21 3 -27 11 -19 6 6 9 23 7 38 -2
15 -6 23 -10 19z"/>
<path d="M2520 80 c0 -30 13 -40 25 -20 8 13 -4 50 -16 50 -5 0 -9 -13 -9 -30z"/>
<path d="M3870 88 l-25 -10 23 -9 c27 -10 42 -4 42 17 0 16 -6 17 -40 2z"/>
<path d="M3784 81 c3 -5 -5 -12 -19 -15 -27 -7 -35 -36 -10 -36 8 0 15 4 15 9
0 5 9 12 19 16 20 6 19 35 -1 35 -5 0 -7 -4 -4 -9z"/>
<path d="M3613 58 c-13 -6 -23 -14 -23 -19 0 -12 38 2 44 17 3 8 4 14 3 13 -1
0 -12 -5 -24 -11z"/>
<path d="M1390 36 c0 -9 7 -16 16 -16 9 0 14 5 12 12 -6 18 -28 21 -28 4z"/>
<path d="M3860 40 c0 -5 4 -10 9 -10 6 0 13 5 16 10 3 6 -1 10 -9 10 -9 0 -16
-4 -16 -10z"/>
<path d="M3533 24 c-8 -22 5 -30 23 -12 14 14 14 16 -1 21 -9 4 -18 1 -22 -9z"/>
<path d="M2418 13 c7 -3 16 -2 19 1 4 3 -2 6 -13 5 -11 0 -14 -3 -6 -6z"/>
</g>
</svg>
