<?xml version="1.0" standalone="no"?>
<!DOCTYPE svg PUBLIC "-//W3C//DTD SVG 20010904//EN"
 "http://www.w3.org/TR/2001/REC-SVG-20010904/DTD/svg10.dtd">
<svg version="1.0" xmlns="http://www.w3.org/2000/svg"
 width="512.000000pt" height="512.000000pt" viewBox="0 0 512.000000 512.000000"
 preserveAspectRatio="xMidYMid meet">
<metadata>
Created by potrace 1.16, written by Peter Selinger 2001-2019
</metadata>
<g transform="translate(0.000000,512.000000) scale(0.100000,-0.100000)"
fill="#000000" stroke="none">
<path d="M2470 3631 c0 -5 6 -14 14 -20 23 -19 25 -47 5 -78 -21 -32 -24 -43
-9 -43 6 0 20 16 31 35 12 19 25 35 30 35 4 0 19 -18 31 -40 13 -22 26 -40 31
-40 13 0 8 14 -19 54 l-26 38 28 29 c15 16 22 29 16 29 -7 0 -25 -14 -41 -32
l-28 -32 -16 31 c-15 29 -47 52 -47 34z"/>
<path d="M3293 2605 c-91 -44 -113 -58 -119 -79 -5 -23 -11 -26 -48 -26 -53 0
-66 -22 -66 -113 l0 -62 -597 -3 -596 -3 -46 -31 c-25 -17 -100 -72 -167 -121
l-121 -90 -6 -115 c-4 -64 -4 -118 -2 -120 3 -3 471 -6 1040 -7 l1035 -2 0
123 c0 68 -4 124 -9 124 -17 0 -136 93 -123 98 20 6 14 50 -10 72 -39 37 -110
74 -152 80 l-41 5 -3 78 -3 77 -34 0 c-24 0 -35 5 -35 15 0 19 24 33 142 86
54 24 98 50 98 57 0 19 -18 14 -137 -43z m-45 -203 l3 -72 -86 0 -85 0 0 59
c0 92 0 92 89 89 l76 -3 3 -73z m84 -102 c67 -25 148 -93 132 -110 -9 -9 -34
2 -104 44 -50 31 -96 54 -101 51 -18 -11 -9 -25 16 -25 14 0 25 -4 25 -10 0
-6 -40 -10 -99 -10 -92 0 -101 2 -115 22 -30 43 -22 47 87 51 56 1 103 4 104
5 1 1 26 -7 55 -18z m-274 -20 c-7 -47 17 -55 164 -55 69 0 129 -3 133 -7 11
-11 -94 -20 -193 -16 -50 2 -92 0 -92 -4 0 -5 70 -8 155 -8 171 0 192 -5 265
-69 l35 -30 -963 -1 -963 0 21 30 c12 17 26 31 31 31 5 1 13 2 18 3 5 0 13 5
18 10 5 5 3 6 -4 2 -7 -4 -13 -5 -13 -2 0 2 39 33 87 68 l88 63 230 5 c126 3
400 6 609 8 l378 2 -4 -30z m527 -220 c-4 -7 -349 -10 -998 -11 -546 -1 -976
-5 -957 -9 32 -7 30 -7 -19 -9 -75 -2 -61 -7 34 -14 44 -2 74 -3 67 0 -25 9 0
23 41 22 28 -1 35 -3 21 -7 -16 -6 -21 -17 -23 -59 -3 -67 5 -93 30 -93 17 0
19 7 17 53 l-2 52 -3 -47 c-6 -69 -23 -59 -23 12 0 47 3 60 15 60 20 0 38 -48
31 -82 -3 -16 -1 -28 4 -28 6 0 10 6 10 12 0 7 7 2 16 -10 8 -12 26 -22 38
-22 20 0 25 6 30 43 3 23 2 56 -3 74 -11 37 -5 46 20 33 10 -6 24 -9 31 -8 9
2 15 -18 19 -72 5 -70 6 -71 9 -25 2 28 4 62 3 78 l-1 27 794 0 795 0 -3 -86
-3 -87 -115 2 c-63 1 -115 3 -116 4 -1 1 -4 21 -7 44 -4 42 -21 73 -38 73 -5
0 -3 -13 6 -30 23 -45 17 -100 -10 -100 -10 0 -11 7 -5 31 8 25 6 30 -6 25 -8
-3 -25 -1 -38 4 -33 12 -52 -9 -36 -39 12 -24 8 -26 -21 -11 -26 15 -26 73 1
100 25 25 57 26 65 1 3 -11 13 -25 22 -33 15 -12 16 -10 9 17 -14 57 -65 72
-111 32 -22 -18 -27 -32 -27 -70 l-1 -47 -804 0 -803 0 0 90 c0 79 2 90 18 91
16 1 16 2 0 6 -76 19 77 23 1008 23 681 0 1023 -3 1019 -10z m-1736 -42 c0 -7
-4 -21 -7 -31 -6 -15 -9 -13 -19 13 -10 27 -9 30 8 30 10 0 19 -6 18 -12z m48
-64 c-3 -31 -8 -58 -11 -61 -14 -14 -26 14 -26 63 0 49 2 54 21 54 20 0 21 -4
16 -56z m1362 -85 c-14 -8 -29 -3 -29 11 0 4 9 6 21 3 15 -4 17 -8 8 -14z"/>
<path d="M1829 2263 l-24 -28 28 24 c25 23 32 31 24 31 -2 0 -14 -12 -28 -27z"/>
<path d="M2503 2253 c-7 -2 -13 -12 -13 -20 0 -12 3 -13 15 -3 10 8 44 11 105
9 87 -4 114 2 68 15 -27 7 -158 7 -175 -1z"/>
<path d="M3031 2224 c0 -11 3 -14 6 -6 3 7 2 16 -1 19 -3 4 -6 -2 -5 -13z"/>
<path d="M1737 2205 c-20 -14 -37 -28 -37 -31 0 -2 18 8 40 22 35 23 47 34 37
34 -1 0 -19 -11 -40 -25z"/>
<path d="M2490 2199 c0 -11 197 -13 204 -1 2 4 -43 8 -100 9 -60 1 -104 -2
-104 -8z"/>
<path d="M1563 1960 c0 -30 2 -43 4 -27 2 15 2 39 0 55 -2 15 -4 2 -4 -28z"/>
<path d="M1934 1983 c2 -16 4 -45 5 -65 0 -21 6 -38 11 -38 11 0 13 51 4 99
-8 38 -24 41 -20 4z"/>
<path d="M1590 1982 c0 -4 16 -8 35 -8 19 0 35 4 35 8 0 4 -16 8 -35 8 -19 0
-35 -4 -35 -8z"/>
<path d="M1680 1976 c0 -9 7 -16 16 -16 17 0 14 22 -4 28 -7 2 -12 -3 -12 -12z"/>
<path d="M1590 1941 c0 -12 9 -20 27 -24 33 -6 43 -1 43 20 0 13 -3 13 -15 3
-17 -14 -50 -6 -40 10 3 5 1 10 -4 10 -6 0 -11 -8 -11 -19z"/>
<path d="M1717 1943 c-4 -3 -7 -13 -7 -22 1 -13 3 -13 11 2 11 19 8 33 -4 20z"/>
<path d="M0 1910 c0 -7 257 -10 750 -10 493 0 750 3 750 10 0 7 -257 10 -750
10 -493 0 -750 -3 -750 -10z"/>
<path d="M3620 1910 c0 -7 257 -10 750 -10 493 0 750 3 750 10 0 7 -257 10
-750 10 -493 0 -750 -3 -750 -10z"/>
<path d="M3616 1832 c-3 -5 70 -74 161 -153 344 -297 391 -340 397 -356 4 -9
4 -18 2 -21 -3 -2 -664 -5 -1470 -6 l-1466 -1 0 113 c0 61 4 112 9 112 5 0 65
65 135 145 111 127 139 165 121 165 -6 0 -76 -76 -116 -126 -17 -21 -62 -72
-100 -112 l-69 -73 0 -114 c0 -73 4 -116 11 -121 14 -8 2231 -14 2652 -6 l307
5 0 32 c0 34 -23 57 -186 196 -29 24 -113 98 -189 164 -179 157 -192 168 -199
157z"/>
<path d="M3604 1690 c0 -58 1 -81 3 -52 2 28 2 76 0 105 -2 28 -3 5 -3 -53z"/>
<path d="M3601 1534 c0 -11 3 -14 6 -6 3 7 2 16 -1 19 -3 4 -6 -2 -5 -13z"/>
<path d="M3597 1490 c-4 -16 -15 -20 -83 -23 l-79 -3 88 -2 c87 -2 87 -2 87
23 0 30 -6 32 -13 5z"/>
<path d="M1890 1473 c257 -7 1408 -7 1403 0 -2 4 -343 6 -756 5 -414 -1 -705
-4 -647 -5z"/>
<path d="M1610 1390 c0 -5 5 -10 11 -10 5 0 7 5 4 10 -3 6 -8 10 -11 10 -2 0
-4 -4 -4 -10z"/>
<path d="M3290 1390 c0 -5 5 -10 11 -10 5 0 7 5 4 10 -3 6 -8 10 -11 10 -2 0
-4 -4 -4 -10z"/>
<path d="M1648 1383 c7 -3 16 -2 19 1 4 3 -2 6 -13 5 -11 0 -14 -3 -6 -6z"/>
<path d="M0 968 c0 -5 1152 -8 2560 -8 1408 0 2560 4 2560 8 0 5 -1152 8
-2560 8 -1408 -1 -2560 -4 -2560 -8z"/>
</g>
</svg>
