<?xml version="1.0" standalone="no"?>
<!DOCTYPE svg PUBLIC "-//W3C//DTD SVG 20010904//EN"
 "http://www.w3.org/TR/2001/REC-SVG-20010904/DTD/svg10.dtd">
<svg version="1.0" xmlns="http://www.w3.org/2000/svg"
 width="512.000000pt" height="512.000000pt" viewBox="0 0 512.000000 512.000000"
 preserveAspectRatio="xMidYMid meet">
<metadata>
Created by potrace 1.16, written by Peter Selinger 2001-2019
</metadata>
<g transform="translate(0.000000,512.000000) scale(0.100000,-0.100000)"
fill="#000000" stroke="none">
<path d="M3806 5105 c-3 -9 -6 -22 -5 -28 0 -7 5 -1 10 12 5 13 8 26 5 28 -2
2 -6 -3 -10 -12z"/>
<path d="M3871 4793 c-1 -223 2 -333 9 -333 12 0 11 535 -1 618 -3 26 -7 -103
-8 -285z"/>
<path d="M2529 4888 c1 -117 7 -221 12 -230 11 -20 16 -19 -83 -21 -49 -2 -68
2 -68 11 0 6 -7 12 -15 12 -9 0 -15 -9 -15 -22 l0 -23 197 2 c145 2 198 6 198
14 0 9 -25 11 -83 10 l-83 -2 1 228 2 228 -34 3 -33 3 4 -213z m40 64 c-2
-181 -16 -201 -18 -24 -1 100 2 151 9 147 6 -4 10 -55 9 -123z"/>
<path d="M3770 5019 c0 -11 5 -17 10 -14 6 3 10 13 10 21 0 8 -4 14 -10 14 -5
0 -10 -9 -10 -21z"/>
<path d="M3721 4884 c-13 -29 -6 -47 9 -24 9 14 14 50 7 50 -2 0 -9 -12 -16
-26z"/>
<path d="M4272 4850 c0 -19 2 -27 5 -17 2 9 2 25 0 35 -3 9 -5 1 -5 -18z"/>
<path d="M4272 4668 c-1 -93 2 -148 8 -148 11 0 11 71 1 205 -8 88 -8 86 -9
-57z"/>
<path d="M3642 4728 c-44 -78 -132 -263 -132 -279 0 -26 20 -2 44 54 15 34 54
111 87 170 32 59 59 112 59 117 0 25 -20 4 -58 -62z"/>
<path d="M1418 4766 c-10 -7 -18 -20 -18 -27 0 -32 152 -359 166 -359 12 0 -7
51 -60 162 -30 62 -58 126 -61 141 -4 15 -11 30 -16 33 -5 3 -7 10 -4 15 17
26 37 0 80 -103 26 -62 60 -138 75 -168 15 -30 31 -71 34 -90 6 -31 5 -33 -7
-17 -13 16 -37 24 -37 12 0 -7 56 -65 62 -65 3 0 9 12 12 26 5 20 -11 66 -64
187 -127 287 -124 283 -162 253z"/>
<path d="M2192 4614 c4 -21 22 -23 26 -1 2 10 -3 17 -13 17 -10 0 -15 -6 -13
-16z"/>
<path d="M2925 4620 c-4 -6 -3 -16 3 -22 6 -6 12 -6 17 2 4 6 3 16 -3 22 -6 6
-12 6 -17 -2z"/>
<path d="M2050 4605 c-30 -8 -71 -19 -90 -24 l-35 -11 35 5 c47 5 183 35 189
41 8 8 -44 2 -99 -11z"/>
<path d="M2540 4599 c-8 -6 -11 -12 -5 -15 6 -2 10 -100 9 -267 0 -144 2 -302
5 -350 4 -59 2 -92 -5 -98 -6 -5 -11 -42 -11 -84 0 -72 1 -75 24 -75 l23 0 -2
447 c-2 286 -7 447 -13 450 -5 1 -17 -2 -25 -8z"/>
<path d="M2980 4580 c0 -20 -3 -22 -32 -16 -60 12 -325 19 -331 9 -4 -6 55
-12 161 -16 95 -4 187 -13 212 -20 68 -21 148 -31 134 -17 -6 6 -37 14 -68 17
-47 5 -56 9 -51 23 3 9 -1 23 -10 30 -13 10 -15 9 -15 -10z"/>
<path d="M3087 4589 c7 -7 15 -10 18 -7 3 3 -2 9 -12 12 -14 6 -15 5 -6 -5z"/>
<path d="M2190 4565 c0 -28 14 -55 29 -55 13 0 13 2 2 9 -8 5 -12 15 -9 22 4
11 37 15 127 17 188 6 199 20 14 18 -101 -1 -163 -5 -163 -11z"/>
<path d="M3200 4561 c0 -11 5 -23 10 -26 6 -3 10 3 10 14 0 11 -4 23 -10 26
-5 3 -10 -3 -10 -14z"/>
<path d="M2130 4560 c-11 -7 -12 -12 -4 -20 8 -8 14 -7 23 4 14 17 1 28 -19
16z"/>
<path d="M2051 4551 c-10 -6 -11 -13 -3 -27 10 -18 11 -18 17 -2 10 25 3 39
-14 29z"/>
<path d="M1960 4520 c0 -15 7 -20 27 -20 25 0 26 0 8 20 -10 11 -22 20 -27 20
-4 0 -8 -9 -8 -20z"/>
<path d="M2360 4520 c0 -5 7 -10 15 -10 8 0 15 5 15 10 0 6 -7 10 -15 10 -8 0
-15 -4 -15 -10z"/>
<path d="M2792 4519 c2 -6 8 -10 13 -10 5 0 11 4 13 10 2 6 -4 11 -13 11 -9 0
-15 -5 -13 -11z"/>
<path d="M3280 4522 c0 -5 8 -12 18 -16 9 -3 23 -9 30 -12 7 -3 12 1 12 10 0
9 -6 16 -14 16 -8 0 -21 3 -30 6 -9 3 -16 2 -16 -4z"/>
<path d="M3142 4484 c-5 -18 -7 -35 -4 -38 10 -10 22 5 22 28 0 19 4 22 30 18
23 -3 29 -1 25 10 -3 8 -19 15 -34 15 -24 0 -30 -6 -39 -33z"/>
<path d="M1744 4494 c-18 -14 -18 -15 4 -4 12 6 22 13 22 15 0 8 -5 6 -26 -11z"/>
<path d="M1853 4495 c-3 -9 -3 -18 0 -22 10 -10 37 6 37 22 0 20 -29 20 -37 0z"/>
<path d="M2935 4500 c28 -12 45 -12 45 0 0 6 -15 10 -32 9 -28 0 -30 -2 -13
-9z"/>
<path d="M3230 4490 c0 -5 5 -10 11 -10 5 0 7 5 4 10 -3 6 -8 10 -11 10 -2 0
-4 -4 -4 -10z"/>
<path d="M3262 4478 c3 -7 13 -15 24 -17 16 -3 17 -1 5 13 -16 19 -34 21 -29
4z"/>
<path d="M3370 4475 c0 -9 -7 -18 -15 -21 -21 -8 -19 -21 4 -27 14 -3 21 2 25
17 8 31 7 46 -4 46 -5 0 -10 -7 -10 -15z"/>
<path d="M1758 4475 c-8 -8 2 -45 13 -45 4 0 11 5 15 11 7 12 -19 43 -28 34z"/>
<path d="M3227 4443 c-12 -12 -7 -33 8 -33 17 0 19 9 7 28 -5 7 -11 9 -15 5z"/>
<path d="M3873 4395 c0 -27 2 -38 4 -22 2 15 2 37 0 50 -2 12 -4 0 -4 -28z"/>
<path d="M3396 4421 c-6 -10 52 -37 60 -28 3 3 -8 13 -25 21 -16 9 -32 12 -35
7z"/>
<path d="M3482 4403 c-8 -17 -9 -30 -2 -37 9 -9 30 30 30 55 0 18 -15 8 -28
-18z"/>
<path d="M4335 4420 c3 -5 8 -10 11 -10 2 0 4 5 4 10 0 6 -5 10 -11 10 -5 0
-7 -4 -4 -10z"/>
<path d="M1665 4410 c-3 -5 1 -10 9 -10 8 0 18 5 21 10 3 6 -1 10 -9 10 -8 0
-18 -4 -21 -10z"/>
<path d="M3294 4396 c-8 -22 3 -33 18 -18 9 9 9 15 0 24 -9 9 -13 7 -18 -6z"/>
<path d="M4213 4369 c-21 -22 -69 -73 -108 -113 -38 -39 -88 -94 -109 -121
-21 -28 29 19 111 103 109 110 155 151 167 146 11 -4 16 -1 16 10 0 29 -38 17
-77 -25z"/>
<path d="M746 4387 c-12 -9 -16 -20 -12 -34 8 -26 147 -163 165 -163 7 0 -23
37 -68 82 -44 45 -81 87 -81 93 0 7 10 17 23 23 14 7 17 11 6 11 -8 1 -23 -5
-33 -12z"/>
<path d="M3554 4385 c21 -16 32 -13 21 4 -3 6 -14 11 -23 11 -15 -1 -15 -2 2
-15z"/>
<path d="M1786 4382 c-3 -6 -1 -14 5 -17 15 -10 25 3 12 16 -7 7 -13 7 -17 1z"/>
<path d="M3246 4375 c-9 -24 -8 -719 1 -722 4 -2 6 26 5 62 -2 36 1 71 7 78 5
7 7 18 3 24 -4 6 -5 137 -2 292 3 155 2 281 -1 281 -4 0 -9 -7 -13 -15z"/>
<path d="M4178 4286 c-49 -50 -88 -92 -88 -94 0 -16 -114 -142 -128 -142 -6 0
-13 -8 -16 -18 -4 -10 -23 -34 -43 -53 -20 -19 -32 -28 -28 -20 5 9 3 12 -6 9
-8 -3 -14 -12 -14 -21 0 -8 -4 -19 -9 -24 -5 -4 -6 -3 -2 5 4 6 2 12 -3 12 -6
0 -11 -7 -11 -17 0 -9 -3 -14 -6 -10 -12 12 -32 -18 -23 -34 10 -20 43 -35 37
-17 -2 6 3 19 11 29 9 9 51 56 95 103 43 48 88 99 99 114 12 15 50 59 86 97
79 84 145 164 140 169 -2 1 -43 -38 -91 -88z"/>
<path d="M1333 4358 c-24 -31 -23 -36 4 -29 16 4 28 13 28 21 0 18 -20 23 -32
8z"/>
<path d="M1521 4357 c-18 -18 -13 -27 14 -27 15 0 25 6 25 14 0 19 -25 27 -39
13z"/>
<path d="M3535 4361 c-6 -11 33 -26 43 -16 4 3 0 10 -8 15 -19 12 -27 12 -35
1z"/>
<path d="M4330 4339 c0 -5 5 -7 10 -4 6 3 10 8 10 11 0 2 -4 4 -10 4 -5 0 -10
-5 -10 -11z"/>
<path d="M3460 4331 c0 -6 5 -13 10 -16 6 -3 10 1 10 9 0 9 -4 16 -10 16 -5 0
-10 -4 -10 -9z"/>
<path d="M3600 4325 c0 -8 10 -19 22 -26 18 -10 20 -9 15 6 -4 9 -7 21 -7 26
0 5 -7 9 -15 9 -8 0 -15 -7 -15 -15z"/>
<path d="M890 4315 c7 -9 15 -13 17 -11 7 7 -7 26 -19 26 -6 0 -6 -6 2 -15z"/>
<path d="M1462 4318 c3 -7 13 -15 22 -16 12 -3 17 1 14 10 -3 7 -13 15 -22 16
-12 3 -17 -1 -14 -10z"/>
<path d="M3680 4315 c0 -9 5 -15 11 -13 6 2 11 8 11 13 0 5 -5 11 -11 13 -6 2
-11 -4 -11 -13z"/>
<path d="M1410 4310 c0 -5 5 -10 10 -10 6 0 10 5 10 10 0 6 -4 10 -10 10 -5 0
-10 -4 -10 -10z"/>
<path d="M1242 4284 c-25 -17 -29 -44 -7 -44 7 0 18 -7 23 -16 11 -19 52 -10
52 11 0 9 -6 12 -15 9 -8 -4 -22 -3 -31 0 -15 6 -15 8 0 25 22 24 6 35 -22 15z"/>
<path d="M1330 4290 c19 -13 30 -13 30 0 0 6 -10 10 -22 10 -19 0 -20 -2 -8
-10z"/>
<path d="M1649 4287 c-15 -11 -15 -20 -7 -66 9 -41 14 -51 27 -47 9 3 51 18
95 33 l78 28 17 -24 c9 -14 31 -59 49 -100 39 -89 50 -113 113 -246 29 -59 48
-91 49 -77 0 12 -17 57 -39 100 -21 42 -62 131 -91 197 -29 66 -61 132 -72
147 l-19 27 -82 -30 c-45 -16 -86 -30 -91 -32 -10 -2 -37 69 -29 77 4 3 15 6
25 6 11 0 16 5 13 10 -8 13 -16 12 -36 -3z"/>
<path d="M4290 4289 c0 -5 5 -7 10 -4 6 3 10 8 10 11 0 2 -4 4 -10 4 -5 0 -10
-5 -10 -11z"/>
<path d="M1422 4278 c3 -7 13 -15 22 -16 12 -3 17 1 14 10 -3 7 -13 15 -22 16
-12 3 -17 -1 -14 -10z"/>
<path d="M3672 4278 c6 -18 28 -21 28 -4 0 9 -7 16 -16 16 -9 0 -14 -5 -12
-12z"/>
<path d="M3766 4271 c-3 -5 1 -11 9 -15 15 -6 29 7 18 18 -9 9 -21 8 -27 -3z"/>
<path d="M1375 4260 c-10 -17 12 -37 25 -24 8 8 6 15 -4 23 -10 9 -16 9 -21 1z"/>
<path d="M3590 4250 c0 -11 5 -20 10 -20 6 0 10 9 10 20 0 11 -4 20 -10 20 -5
0 -10 -9 -10 -20z"/>
<path d="M4255 4260 c3 -5 8 -10 11 -10 2 0 4 5 4 10 0 6 -5 10 -11 10 -5 0
-7 -4 -4 -10z"/>
<path d="M3855 4250 c4 -6 11 -8 16 -5 14 9 11 15 -7 15 -8 0 -12 -5 -9 -10z"/>
<path d="M3755 4240 c-7 -12 2 -30 16 -30 5 0 9 9 9 20 0 21 -15 27 -25 10z"/>
<path d="M1427 4213 c-12 -11 -8 -23 7 -23 7 0 19 7 26 15 10 12 9 15 -7 15
-11 0 -23 -3 -26 -7z"/>
<path d="M3829 4217 c0 -1 -3 -14 -5 -29 -4 -25 -2 -28 22 -28 20 0 25 -4 20
-16 -4 -10 -1 -14 6 -12 23 8 21 38 -2 38 -16 0 -20 4 -15 19 3 12 0 21 -10
25 -8 3 -15 4 -16 3z"/>
<path d="M4210 4209 c0 -5 5 -7 10 -4 6 3 10 8 10 11 0 2 -4 4 -10 4 -5 0 -10
-5 -10 -11z"/>
<path d="M1285 4190 c-3 -5 -4 -14 0 -20 8 -13 35 -1 35 16 0 16 -26 19 -35 4z"/>
<path d="M1340 4191 c0 -10 50 -25 58 -16 8 7 1 11 -30 19 -16 3 -28 2 -28 -3z"/>
<path d="M3706 4193 c-3 -3 -3 -10 0 -14 7 -12 34 -11 34 0 0 11 -26 22 -34
14z"/>
<path d="M1590 4180 c0 -5 5 -10 11 -10 5 0 7 5 4 10 -3 6 -8 10 -11 10 -2 0
-4 -4 -4 -10z"/>
<path d="M4171 4168 c-14 -23 -14 -23 8 -4 22 20 25 26 13 26 -4 0 -13 -10
-21 -22z"/>
<path d="M1020 4135 c0 -16 -6 -25 -15 -25 -8 0 -15 -4 -15 -8 0 -16 145 -162
161 -162 29 0 52 25 45 48 -8 25 -149 172 -165 172 -6 0 -11 -11 -11 -25z m77
-60 c27 -27 42 -49 37 -56 -4 -8 -3 -9 5 -5 6 4 14 0 18 -9 8 -21 -16 -37 -31
-22 -69 71 -97 109 -92 122 8 22 14 19 63 -30z"/>
<path d="M1335 4141 c-3 -5 -1 -12 5 -16 12 -7 30 2 30 16 0 12 -27 12 -35 0z"/>
<path d="M3710 4140 c0 -5 7 -10 15 -10 8 0 15 5 15 10 0 6 -7 10 -15 10 -8 0
-15 -4 -15 -10z"/>
<path d="M1594 4129 c-3 -6 -15 -9 -25 -6 -20 6 -26 -8 -8 -19 12 -7 59 15 59
28 0 12 -18 10 -26 -3z"/>
<path d="M3670 4110 c0 -19 11 -26 23 -14 8 8 -3 34 -14 34 -5 0 -9 -9 -9 -20z"/>
<path d="M3935 4069 c-11 -17 1 -21 15 -4 8 9 8 15 2 15 -6 0 -14 -5 -17 -11z"/>
<path d="M3900 4015 c0 -8 2 -15 4 -15 2 0 6 7 10 15 3 8 1 15 -4 15 -6 0 -10
-7 -10 -15z"/>
<path d="M980 3969 c-44 -50 -46 -55 -20 -62 17 -4 20 -2 15 10 -3 9 -2 19 2
22 23 17 53 60 46 64 -4 3 -24 -13 -43 -34z"/>
<path d="M4142 3978 c5 -15 28 -18 29 -3 0 6 -7 12 -17 13 -10 3 -15 -1 -12
-10z"/>
<path d="M4085 3960 c3 -5 13 -10 21 -10 8 0 14 5 14 10 0 6 -9 10 -21 10 -11
0 -17 -4 -14 -10z"/>
<path d="M4062 3938 c2 -6 10 -14 16 -16 7 -2 10 2 6 12 -7 18 -28 22 -22 4z"/>
<path d="M4129 3948 c-1 -2 -3 -13 -4 -25 -2 -19 1 -21 17 -12 15 8 17 13 7
25 -11 13 -17 17 -20 12z"/>
<path d="M4310 3908 l-25 -10 22 -10 c25 -12 56 -3 51 14 -6 17 -19 18 -48 6z"/>
<path d="M175 3900 l-170 -6 208 -2 c127 -1 206 2 202 7 -3 5 -20 9 -38 8 -17
-1 -108 -4 -202 -7z"/>
<path d="M720 3898 c0 -5 38 -8 85 -8 47 0 85 3 85 8 0 4 -38 7 -85 7 -47 0
-85 -3 -85 -7z"/>
<path d="M4165 3902 c-13 -9 -37 -52 -29 -52 3 0 19 9 35 21 21 15 29 17 29 7
0 -8 -5 -19 -11 -25 -8 -8 -8 -13 0 -17 17 -11 33 4 28 24 -3 12 2 20 16 24
18 4 19 8 9 18 -10 10 -15 10 -22 -2 -7 -12 -12 -12 -22 -2 -14 14 -19 15 -33
4z"/>
<path d="M517 3893 c-60 -3 -79 -8 -84 -20 -4 -10 1 -21 13 -30 10 -7 35 -27
54 -43 19 -16 82 -64 140 -105 58 -41 110 -79 117 -85 19 -16 25 -12 14 9 -6
10 -24 24 -41 29 -24 9 -30 17 -30 39 0 20 -3 24 -9 14 -7 -11 -17 -8 -49 17
-22 18 -43 32 -46 32 -4 0 -24 15 -44 34 -20 19 -48 43 -62 54 -14 11 -23 22
-20 25 5 5 165 11 201 8 21 -1 43 -69 37 -116 l-4 -36 18 23 c21 27 17 75 -11
123 -19 33 -33 35 -194 28z"/>
<path d="M915 3890 c-3 -5 1 -10 9 -10 9 0 16 5 16 10 0 6 -4 10 -9 10 -6 0
-13 -4 -16 -10z"/>
<path d="M2455 3885 c-5 -2 -27 -6 -47 -10 -21 -3 -38 -10 -38 -14 0 -5 19 -4
43 1 23 6 50 10 60 10 9 0 17 3 17 9 0 9 -15 11 -35 4z"/>
<path d="M4383 3884 c7 -7 499 -6 506 1 2 3 -112 5 -254 5 -142 0 -256 -3
-252 -6z"/>
<path d="M2631 3876 c2 -2 29 -6 59 -10 38 -4 50 -3 40 4 -13 9 -109 15 -99 6z"/>
<path d="M900 3860 c0 -5 5 -10 10 -10 6 0 10 5 10 10 0 6 -4 10 -10 10 -5 0
-10 -4 -10 -10z"/>
<path d="M1273 3854 c-7 -18 20 -74 46 -99 10 -8 28 -16 42 -17 20 -3 24 2 27
28 4 38 -20 68 -71 89 -34 14 -38 14 -44 -1z m73 -49 c14 -14 24 -31 22 -37
-4 -12 -58 37 -58 52 0 16 9 12 36 -15z"/>
<path d="M2325 3860 c-13 -6 -15 -9 -5 -9 8 0 22 4 30 9 18 12 2 12 -25 0z"/>
<path d="M876 3843 c-11 -11 -6 -23 9 -23 8 0 15 4 15 9 0 13 -16 22 -24 14z"/>
<path d="M2225 3835 c-31 -11 -35 -14 -15 -14 14 0 36 6 50 14 30 17 18 17
-35 0z"/>
<path d="M2840 3845 c0 -7 87 -45 101 -45 6 0 7 5 4 10 -3 6 -14 10 -23 10 -9
0 -30 7 -46 15 -31 16 -36 18 -36 10z"/>
<path d="M2756 3824 c-3 -9 -6 -33 -6 -55 0 -35 3 -39 25 -39 28 0 30 4 39 68
6 41 6 42 -23 42 -17 0 -31 -6 -35 -16z m35 -17 c-1 -4 -1 -18 -1 -32 0 -14
-4 -25 -10 -25 -5 0 -10 16 -10 36 0 21 4 34 11 32 6 -2 10 -7 10 -11z"/>
<path d="M4156 3831 c-4 -7 -5 -15 -2 -18 9 -9 19 4 14 18 -4 11 -6 11 -12 0z"/>
<path d="M4220 3819 c0 -5 5 -7 10 -4 6 3 10 8 10 11 0 2 -4 4 -10 4 -5 0 -10
-5 -10 -11z"/>
<path d="M912 3800 c-7 -11 -9 -20 -4 -20 4 0 13 9 20 20 7 11 9 20 4 20 -4 0
-13 -9 -20 -20z"/>
<path d="M1548 3793 c-3 -16 -9 -36 -13 -45 -4 -10 -3 -18 3 -18 5 0 12 12 15
28 3 15 9 35 12 45 4 9 3 17 -3 17 -5 0 -12 -12 -14 -27z"/>
<path d="M4040 3805 c0 -8 5 -15 10 -15 6 0 10 7 10 15 0 8 -4 15 -10 15 -5 0
-10 -7 -10 -15z"/>
<path d="M4557 3797 c-60 -46 -132 -116 -126 -121 9 -9 169 116 169 131 0 18
-11 16 -43 -10z"/>
<path d="M850 3795 c0 -8 5 -15 10 -15 6 0 10 7 10 15 0 8 -4 15 -10 15 -5 0
-10 -7 -10 -15z"/>
<path d="M4180 3801 c0 -6 5 -13 10 -16 6 -3 10 1 10 9 0 9 -4 16 -10 16 -5 0
-10 -4 -10 -9z"/>
<path d="M4242 3794 c1 -9 9 -19 16 -22 9 -3 13 2 10 14 -1 9 -9 19 -16 22 -9
3 -13 -2 -10 -14z"/>
<path d="M1040 3790 c0 -5 7 -10 15 -10 8 0 15 5 15 10 0 6 -7 10 -15 10 -8 0
-15 -4 -15 -10z"/>
<path d="M2163 3792 c-10 -6 -8 -17 7 -47 19 -37 20 -38 20 -12 0 15 -4 27
-10 27 -5 0 -10 5 -10 10 0 6 7 10 15 10 8 0 15 5 15 10 0 12 -20 13 -37 2z"/>
<path d="M2970 3795 c0 -9 71 -37 78 -31 3 3 3 6 0 6 -3 0 -22 7 -42 15 -20 8
-36 13 -36 10z"/>
<path d="M4290 3786 c0 -8 5 -18 10 -21 6 -3 10 1 10 9 0 8 -4 18 -10 21 -5 3
-10 -1 -10 -9z"/>
<path d="M4087 3766 c-3 -8 -2 -18 3 -21 13 -8 24 15 12 27 -6 6 -11 4 -15 -6z"/>
<path d="M4210 3756 c0 -17 14 -29 23 -20 8 8 -3 34 -14 34 -5 0 -9 -6 -9 -14z"/>
<path d="M3066 3743 c-5 -11 -2 -14 10 -9 9 4 23 1 30 -5 7 -6 18 -9 23 -7 5
1 -6 11 -24 20 -30 15 -34 15 -39 1z"/>
<path d="M3610 3735 c-13 -14 -19 -25 -14 -25 8 1 50 50 41 50 -2 0 -14 -11
-27 -25z"/>
<path d="M790 3738 c0 -18 20 -38 38 -38 19 0 10 20 -16 38 -19 12 -22 12 -22
0z"/>
<path d="M2060 3736 c0 -8 -6 -17 -12 -19 -8 -4 -9 -6 -2 -6 18 -1 37 26 24
34 -5 3 -10 0 -10 -9z"/>
<path d="M4282 3726 c2 -16 9 -31 16 -34 17 -5 15 20 -3 44 -15 18 -15 18 -13
-10z"/>
<path d="M1010 3725 c0 -8 7 -15 16 -15 9 0 12 -5 8 -12 -4 -7 -3 -8 4 -4 17
10 15 19 -8 34 -17 10 -20 10 -20 -3z"/>
<path d="M1530 3595 c63 -63 116 -115 118 -115 3 0 -3 11 -12 25 -26 39 -194
205 -208 205 -7 0 39 -52 102 -115z"/>
<path d="M3160 3703 c0 -5 11 -13 25 -20 29 -13 33 -6 8 13 -20 15 -33 18 -33
7z"/>
<path d="M990 3690 c0 -5 5 -10 10 -10 6 0 10 5 10 10 0 6 -4 10 -10 10 -5 0
-10 -4 -10 -10z"/>
<path d="M2368 3693 c6 -2 18 -2 25 0 6 3 1 5 -13 5 -14 0 -19 -2 -12 -5z"/>
<path d="M2328 3683 c7 -3 16 -2 19 1 4 3 -2 6 -13 5 -11 0 -14 -3 -6 -6z"/>
<path d="M3577 3683 c-13 -12 -7 -22 16 -26 l22 -4 -22 -2 c-25 -1 -31 -16 -9
-24 14 -6 56 18 56 32 0 4 -11 13 -25 19 -30 14 -30 14 -38 5z"/>
<path d="M776 3663 c-6 -14 -5 -15 5 -6 7 7 10 15 7 18 -3 3 -9 -2 -12 -12z"/>
<path d="M1870 3646 c-20 -18 -45 -38 -58 -45 -12 -6 -22 -17 -21 -24 0 -9 2
-9 6 1 2 6 10 12 18 12 7 0 18 7 25 15 7 8 20 15 29 15 13 0 46 48 38 56 -1 2
-18 -12 -37 -30z"/>
<path d="M1945 3670 c-7 -12 2 -30 16 -30 12 0 12 27 0 35 -5 3 -12 1 -16 -5z"/>
<path d="M2251 3669 c-14 -5 -31 -7 -38 -5 -7 3 -13 -1 -13 -9 0 -12 6 -12 43
0 74 24 73 23 52 24 -11 0 -31 -5 -44 -10z"/>
<path d="M4325 3670 c-4 -6 -3 -16 3 -22 6 -6 12 -6 17 2 4 6 3 16 -3 22 -6 6
-12 6 -17 -2z"/>
<path d="M4140 3655 c0 -8 5 -15 10 -15 6 0 10 7 10 15 0 8 -4 15 -10 15 -5 0
-10 -7 -10 -15z"/>
<path d="M817 3653 c-4 -3 -7 -11 -7 -17 0 -6 5 -5 12 2 6 6 9 14 7 17 -3 3
-9 2 -12 -2z"/>
<path d="M1011 3629 c-13 -10 -19 -19 -14 -19 13 0 49 27 43 33 -3 3 -16 -3
-29 -14z"/>
<path d="M2168 3644 c-4 -3 -12 -7 -20 -8 -7 -1 -28 -10 -45 -19 -18 -10 -33
-14 -33 -10 0 5 -5 0 -10 -9 -6 -9 -24 -19 -40 -23 -17 -4 -28 -11 -24 -16 3
-5 -2 -9 -10 -9 -9 0 -16 -4 -16 -10 0 -15 5 -13 76 30 36 22 69 40 73 40 14
0 61 25 61 33 0 8 -5 9 -12 1z"/>
<path d="M4350 3620 c0 -11 6 -20 14 -20 24 0 26 15 5 28 -16 11 -19 9 -19 -8z"/>
<path d="M3242 3610 c0 -14 2 -19 5 -12 2 6 2 18 0 25 -3 6 -5 1 -5 -13z"/>
<path d="M2557 3613 c-4 -3 -7 -128 -7 -276 0 -149 2 -268 4 -266 2 2 6 93 9
203 3 153 8 200 18 207 12 7 12 9 0 9 -11 0 -12 11 -8 53 6 50 -2 85 -16 70z"/>
<path d="M3288 3613 c7 -3 16 -2 19 1 4 3 -2 6 -13 5 -11 0 -14 -3 -6 -6z"/>
<path d="M696 3588 c-8 -33 -8 -38 7 -38 8 0 14 12 14 30 0 35 -12 40 -21 8z"/>
<path d="M4140 3579 c0 -11 5 -17 10 -14 6 3 10 13 10 21 0 8 -4 14 -10 14 -5
0 -10 -9 -10 -21z"/>
<path d="M1435 3556 c-11 -20 -28 -39 -37 -42 -10 -3 -18 -12 -18 -19 0 -8 6
-12 14 -9 20 8 69 80 64 95 -2 6 -12 -5 -23 -25z"/>
<path d="M4275 3572 c-97 -56 -557 -363 -552 -368 7 -8 570 340 612 377 17 16
-29 8 -60 -9z"/>
<path d="M4380 3582 c0 -5 7 -16 16 -23 14 -12 16 -11 13 5 -4 20 -29 35 -29
18z"/>
<path d="M800 3570 c0 -5 5 -10 10 -10 6 0 36 -16 66 -35 30 -19 57 -35 59
-35 13 0 3 21 -12 27 -10 4 -20 9 -23 13 -8 10 -80 50 -91 50 -5 0 -9 -4 -9
-10z"/>
<path d="M3335 3570 c3 -5 10 -10 16 -10 5 0 9 5 9 10 0 6 -7 10 -16 10 -8 0
-12 -4 -9 -10z"/>
<path d="M3562 3548 c-19 -16 -32 -31 -30 -33 5 -5 72 54 67 59 -2 2 -19 -9
-37 -26z"/>
<path d="M2848 3543 c7 -3 16 -2 19 1 4 3 -2 6 -13 5 -11 0 -14 -3 -6 -6z"/>
<path d="M2705 3521 c199 -40 284 -79 417 -192 104 -88 144 -107 58 -28 -167
154 -308 221 -490 234 l-75 5 90 -19z"/>
<path d="M3223 3516 c-23 -24 -31 -56 -14 -56 13 0 32 26 29 41 -2 9 4 13 16
11 17 -3 18 -2 7 12 -16 19 -12 20 -38 -8z"/>
<path d="M2230 3515 c-14 -16 -3 -20 19 -6 8 5 9 11 3 15 -5 3 -15 -1 -22 -9z"/>
<path d="M4420 3506 c0 -14 5 -28 10 -31 6 -3 10 5 10 19 0 14 -4 28 -10 31
-6 3 -10 -5 -10 -19z"/>
<path d="M3295 3510 c-3 -5 -4 -11 -1 -11 58 -13 66 -19 60 -47 -6 -27 -6 -27
10 -5 15 20 15 23 -8 47 -24 27 -50 33 -61 16z"/>
<path d="M1312 3483 c-41 -60 -72 -113 -64 -113 4 0 16 15 26 33 11 17 32 49
48 70 17 20 25 37 20 37 -6 0 -19 -12 -30 -27z"/>
<path d="M2440 3489 c-98 -20 -177 -44 -225 -67 -69 -35 -128 -72 -122 -78 5
-5 46 14 57 26 3 3 37 20 75 37 74 33 157 57 240 69 61 8 95 24 50 23 -16 -1
-50 -5 -75 -10z"/>
<path d="M3425 3491 c-3 -5 -1 -12 5 -16 5 -3 10 1 10 9 0 18 -6 21 -15 7z"/>
<path d="M3415 3402 c-140 -135 -278 -260 -337 -304 -28 -21 -43 -38 -34 -38
9 0 16 5 16 12 0 6 3 8 6 5 9 -8 78 49 228 188 163 150 233 222 224 230 -2 2
-48 -40 -103 -93z"/>
<path d="M4380 3486 c0 -8 5 -18 10 -21 6 -3 10 3 10 14 0 12 -4 21 -10 21 -5
0 -10 -6 -10 -14z"/>
<path d="M950 3481 c0 -5 21 -19 46 -32 69 -33 194 -111 194 -121 0 -4 9 -8
19 -8 11 0 21 -4 23 -9 2 -5 40 -28 86 -51 45 -22 80 -45 77 -50 -3 -6 1 -7
10 -4 8 4 22 1 30 -6 8 -6 20 -10 27 -8 6 2 -24 24 -67 48 -44 24 -145 82
-225 129 -160 95 -220 125 -220 112z"/>
<path d="M1703 3470 c-13 -10 -23 -22 -23 -27 0 -11 88 -98 94 -92 10 9 -15
105 -32 121 -16 16 -18 16 -39 -2z m41 -29 c4 -5 3 -17 -1 -27 -6 -16 -7 -16
-20 2 -7 10 -13 21 -13 26 0 11 27 10 34 -1z"/>
<path d="M1880 3480 c0 -5 7 -7 15 -4 8 4 15 8 15 10 0 2 -7 4 -15 4 -8 0 -15
-4 -15 -10z"/>
<path d="M2700 3475 c58 -8 125 -19 149 -25 24 -6 45 -9 48 -6 9 9 -142 37
-221 41 l-81 4 105 -14z"/>
<path d="M647 3473 c-12 -12 -7 -33 7 -33 9 0 14 9 13 20 -1 20 -9 25 -20 13z"/>
<path d="M3262 3460 c-7 -11 -8 -20 -2 -20 5 0 14 9 20 20 6 11 7 20 3 20 -5
0 -14 -9 -21 -20z"/>
<path d="M1355 3437 c-14 -34 -21 -97 -10 -85 8 8 34 112 29 117 -2 2 -11 -12
-19 -32z"/>
<path d="M3825 3453 l-20 -16 20 8 c11 4 38 11 60 15 l40 7 -40 1 c-23 1 -49
-5 -60 -15z"/>
<path d="M1821 3444 c0 -11 3 -14 6 -6 3 7 2 16 -1 19 -3 4 -6 -2 -5 -13z"/>
<path d="M1873 3414 l-48 -46 53 43 c28 23 52 44 52 46 0 8 -12 0 -57 -43z"/>
<path d="M4310 3450 c0 -5 7 -10 15 -10 8 0 15 5 15 10 0 6 -7 10 -15 10 -8 0
-15 -4 -15 -10z"/>
<path d="M3325 3433 c5 -18 3 -22 -9 -17 -9 3 -16 10 -16 16 0 5 -5 6 -11 2
-7 -4 -7 -9 -2 -13 5 -3 13 -15 17 -25 6 -19 7 -19 22 2 11 17 12 26 4 39 -9
16 -10 15 -5 -4z"/>
<path d="M4460 3428 c0 -16 4 -28 9 -28 18 0 20 17 6 36 -14 18 -14 18 -15 -8z"/>
<path d="M4411 3433 c-2 -23 11 -43 28 -43 15 1 15 2 0 13 -9 7 -18 19 -22 27
-3 8 -6 10 -6 3z"/>
<path d="M3795 3419 c-4 -6 -5 -12 -2 -15 2 -3 7 2 10 11 7 17 1 20 -8 4z"/>
<path d="M3852 3418 c3 -7 17 -14 32 -16 20 -3 27 0 24 10 -3 7 -17 14 -32 16
-20 3 -27 0 -24 -10z"/>
<path d="M3230 3411 c0 -10 30 -24 37 -17 3 2 -5 9 -16 16 -12 6 -21 7 -21 1z"/>
<path d="M826 3403 c-12 -12 -5 -23 14 -23 11 0 20 4 20 9 0 11 -26 22 -34 14z"/>
<path d="M3285 3371 c-3 -5 -1 -12 5 -16 5 -3 10 1 10 9 0 18 -6 21 -15 7z"/>
<path d="M4440 3370 c0 -5 5 -10 11 -10 5 0 7 5 4 10 -3 6 -8 10 -11 10 -2 0
-4 -4 -4 -10z"/>
<path d="M3692 3323 c-40 -25 -71 -47 -69 -50 6 -6 121 63 137 82 17 20 16 20
-68 -32z"/>
<path d="M4320 3339 c-30 -16 -143 -71 -250 -122 -107 -51 -220 -105 -250
-120 -54 -27 -54 -27 -17 -22 35 6 597 278 597 290 0 10 -27 2 -80 -26z"/>
<path d="M576 3344 c-4 -11 -1 -14 11 -12 9 2 18 9 21 16 6 18 -25 15 -32 -4z"/>
<path d="M4487 3346 c-3 -8 1 -20 9 -26 11 -10 14 -9 14 8 0 25 -16 37 -23 18z"/>
<path d="M4520 3347 c0 -8 7 -17 15 -21 8 -3 15 -2 15 3 0 5 -7 14 -15 21 -12
10 -15 10 -15 -3z"/>
<path d="M625 3337 c-8 -19 -2 -31 13 -26 5 2 6 13 2 24 -7 19 -8 19 -15 2z"/>
<path d="M790 3326 c0 -9 7 -16 16 -16 9 0 14 5 12 12 -6 18 -28 21 -28 4z"/>
<path d="M2065 3330 c-3 -5 -1 -10 4 -10 6 0 11 5 11 10 0 6 -2 10 -4 10 -3 0
-8 -4 -11 -10z"/>
<path d="M1588 3285 c-32 -38 -34 -45 -12 -45 8 0 12 4 9 10 -3 5 3 20 14 32
12 12 21 25 21 30 0 12 -2 10 -32 -27z"/>
<path d="M1693 3305 c0 -11 4 -12 14 -4 7 6 13 13 13 15 0 2 -6 4 -13 4 -8 0
-14 -7 -14 -15z"/>
<path d="M1141 3245 c-49 -104 -141 -340 -141 -359 0 -15 -6 -16 -45 -10 -57
8 -111 -2 -119 -22 -5 -13 -2 -14 11 -8 39 17 111 15 222 -5 166 -30 241 -39
246 -30 6 9 -15 13 -170 35 -66 9 -123 20 -128 24 -7 6 81 238 142 373 16 37
26 67 21 67 -5 0 -23 -29 -39 -65z"/>
<path d="M2574 3225 c0 -49 1 -71 3 -48 2 23 2 64 0 90 -2 26 -3 8 -3 -42z"/>
<path d="M3481 3289 c-13 -11 -31 -24 -39 -28 -9 -5 -12 -14 -7 -21 5 -9 14
-5 30 14 12 14 27 26 34 26 6 0 11 7 11 15 0 19 0 19 -29 -6z"/>
<path d="M3745 3300 c-3 -6 1 -7 9 -4 18 7 21 14 7 14 -6 0 -13 -4 -16 -10z"/>
<path d="M4365 3301 c-3 -5 -1 -12 5 -16 5 -3 10 1 10 9 0 18 -6 21 -15 7z"/>
<path d="M589 3274 c-11 -30 -3 -46 11 -24 10 16 13 50 5 50 -3 0 -10 -12 -16
-26z"/>
<path d="M4515 3281 c-3 -5 -1 -12 5 -16 5 -3 10 1 10 9 0 18 -6 21 -15 7z"/>
<path d="M1917 3263 c-12 -11 -8 -23 8 -23 8 0 15 7 15 15 0 16 -12 20 -23 8z"/>
<path d="M764 3246 c-8 -22 3 -33 18 -18 9 9 9 15 0 24 -9 9 -13 7 -18 -6z"/>
<path d="M3527 3237 c3 -15 9 -27 14 -27 13 0 11 13 -5 35 -13 18 -14 18 -9
-8z"/>
<path d="M4520 3236 c0 -22 19 -30 35 -16 12 10 15 9 15 -4 0 -9 5 -16 10 -16
13 0 13 6 -1 31 -8 16 -13 18 -25 8 -10 -8 -14 -8 -14 0 0 6 -4 11 -10 11 -5
0 -10 -6 -10 -14z"/>
<path d="M1636 3220 c-15 -5 -16 -9 -7 -14 7 -5 18 -3 24 3 14 14 6 20 -17 11z"/>
<path d="M1886 3214 c-5 -14 -4 -15 9 -4 17 14 19 20 6 20 -5 0 -12 -7 -15
-16z"/>
<path d="M1982 3195 c18 -19 34 -30 36 -25 4 10 -47 59 -61 60 -4 0 7 -16 25
-35z"/>
<path d="M4390 3215 c0 -8 5 -15 10 -15 6 0 10 7 10 15 0 8 -4 15 -10 15 -5 0
-10 -7 -10 -15z"/>
<path d="M562 3213 c-6 -2 -10 -9 -7 -13 7 -11 35 -2 35 11 0 10 -8 10 -28 2z"/>
<path d="M3460 3209 c0 -5 5 -7 10 -4 6 3 10 8 10 11 0 2 -4 4 -10 4 -5 0 -10
-5 -10 -11z"/>
<path d="M1484 3186 c-8 -22 -2 -27 16 -16 12 7 12 12 3 21 -10 10 -14 9 -19
-5z"/>
<path d="M4140 3197 c-9 -10 1 -337 10 -337 6 0 10 53 9 128 0 125 -9 219 -19
209z"/>
<path d="M735 3180 c-4 -6 -3 -16 3 -22 6 -6 12 -6 17 2 4 6 3 16 -3 22 -6 6
-12 6 -17 -2z"/>
<path d="M1860 3175 c-7 -9 -8 -15 -2 -15 5 0 12 7 16 15 3 8 4 15 2 15 -2 0
-9 -7 -16 -15z"/>
<path d="M3263 3185 c2 -5 19 -41 37 -80 88 -193 110 -265 110 -368 0 -43 4
-66 10 -62 16 10 11 114 -9 195 -20 76 -105 269 -136 305 -9 11 -14 16 -12 10z"/>
<path d="M3685 3180 c-3 -5 1 -10 9 -10 9 0 16 5 16 10 0 6 -4 10 -9 10 -6 0
-13 -4 -16 -10z"/>
<path d="M1621 3164 c0 -11 3 -14 6 -6 3 7 2 16 -1 19 -3 4 -6 -2 -5 -13z"/>
<path d="M3470 3170 c0 -5 5 -10 11 -10 5 0 7 5 4 10 -3 6 -8 10 -11 10 -2 0
-4 -4 -4 -10z"/>
<path d="M4586 3172 c-3 -6 -1 -14 5 -17 15 -10 25 3 12 16 -7 7 -13 7 -17 1z"/>
<path d="M3236 3157 c3 -10 9 -15 12 -12 3 3 0 11 -7 18 -10 9 -11 8 -5 -6z"/>
<path d="M4402 3159 c2 -6 8 -10 13 -10 5 0 11 4 13 10 2 6 -4 11 -13 11 -9 0
-15 -5 -13 -11z"/>
<path d="M4540 3154 c0 -9 5 -14 12 -12 18 6 21 28 4 28 -9 0 -16 -7 -16 -16z"/>
<path d="M537 3154 c-4 -4 -7 -14 -7 -23 0 -14 2 -14 10 -1 13 21 23 5 11 -19
-7 -12 -7 -22 -2 -26 12 -7 18 3 22 40 4 29 -17 46 -34 29z"/>
<path d="M1463 3134 c-7 -7 -13 -20 -13 -28 0 -8 -4 -18 -10 -21 -17 -10 -11
-25 9 -25 15 0 18 5 14 21 -3 12 0 24 7 29 6 4 10 14 8 23 -2 13 -5 13 -15 1z"/>
<path d="M1828 3128 c-22 -34 -42 -74 -31 -63 14 15 55 85 50 85 -3 0 -11 -10
-19 -22z"/>
<path d="M3540 3137 c-19 -6 -37 -12 -39 -14 -6 -4 42 -103 50 -103 4 0 12 7
19 15 10 12 10 15 -2 15 -19 0 -42 44 -35 64 8 20 46 21 53 1 4 -8 7 -26 8
-40 1 -23 19 -34 29 -17 6 9 -33 92 -42 91 -3 -1 -22 -6 -41 -12z"/>
<path d="M1590 3115 c0 -8 5 -15 10 -15 6 0 10 7 10 15 0 8 -4 15 -10 15 -5 0
-10 -7 -10 -15z"/>
<path d="M2573 3095 c0 -22 2 -30 4 -17 2 12 2 30 0 40 -3 9 -5 -1 -4 -23z"/>
<path d="M715 3099 c-8 -23 -1 -34 14 -24 13 8 15 45 2 45 -5 0 -13 -9 -16
-21z"/>
<path d="M4560 3106 c0 -8 5 -18 10 -21 6 -3 10 1 10 9 0 8 -4 18 -10 21 -5 3
-10 -1 -10 -9z"/>
<path d="M494 3085 c-4 -14 -3 -29 0 -33 4 -3 9 4 13 16 3 12 9 22 14 22 5 0
9 5 9 10 0 21 -30 9 -36 -15z"/>
<path d="M4420 3091 c0 -14 5 -19 15 -14 17 6 15 25 -3 31 -7 2 -12 -5 -12
-17z"/>
<path d="M4600 3100 c0 -5 7 -10 16 -10 8 0 12 5 9 10 -3 6 -10 10 -16 10 -5
0 -9 -4 -9 -10z"/>
<path d="M1760 3060 c0 -5 5 -10 11 -10 5 0 7 5 4 10 -3 6 -8 10 -11 10 -2 0
-4 -4 -4 -10z"/>
<path d="M3856 3055 c4 -8 8 -15 10 -15 2 0 4 7 4 15 0 8 -4 15 -10 15 -5 0
-7 -7 -4 -15z"/>
<path d="M2160 3033 c-20 -19 -32 -41 -36 -71 -7 -42 -6 -43 52 -99 33 -31
112 -108 177 -172 65 -64 117 -110 115 -102 -3 14 -75 87 -248 251 -71 68 -75
73 -75 115 0 50 16 72 60 81 23 4 38 -1 67 -23 21 -15 37 -34 38 -40 0 -7 7
-13 16 -13 12 0 5 12 -22 43 -21 23 -42 45 -48 49 -23 16 -67 7 -96 -19z"/>
<path d="M2732 2916 c-78 -79 -142 -147 -142 -151 0 -12 32 17 169 154 l124
123 40 -6 c22 -4 46 -14 53 -24 32 -41 10 -85 -87 -172 -95 -86 -219 -212
-219 -224 0 -5 44 34 98 87 53 52 117 113 142 134 91 77 100 89 100 130 0 47
-14 67 -59 82 -65 21 -71 18 -219 -133z"/>
<path d="M1558 3036 c-10 -7 -15 -16 -11 -19 11 -12 21 -7 26 13 3 11 4 20 4
20 -1 0 -10 -7 -19 -14z"/>
<path d="M4597 3043 c-17 -4 -21 -25 -4 -24 4 1 14 1 22 1 8 0 15 7 15 15 0
15 -2 16 -33 8z"/>
<path d="M486 3024 c-8 -22 1 -31 16 -16 9 9 9 15 1 23 -7 7 -12 5 -17 -7z"/>
<path d="M2535 3030 c3 -5 8 -10 11 -10 2 0 4 5 4 10 0 6 -5 10 -11 10 -5 0
-7 -4 -4 -10z"/>
<path d="M2565 3031 c-3 -5 -1 -12 5 -16 5 -3 10 1 10 9 0 18 -6 21 -15 7z"/>
<path d="M4446 2998 c7 -44 11 -54 18 -47 8 8 -6 89 -15 89 -5 0 -6 -19 -3
-42z"/>
<path d="M690 3015 c0 -8 7 -15 15 -15 8 0 15 7 15 15 0 8 -7 15 -15 15 -8 0
-15 -7 -15 -15z"/>
<path d="M1747 3023 c-4 -3 -7 -18 -7 -31 0 -31 12 -21 16 13 3 26 1 29 -9 18z"/>
<path d="M526 3005 c-9 -23 -8 -25 9 -25 17 0 19 9 6 28 -7 11 -10 10 -15 -3z"/>
<path d="M3876 2985 c3 -22 9 -67 14 -100 9 -59 9 -58 4 18 -3 43 -9 88 -14
100 -7 17 -8 12 -4 -18z"/>
<path d="M3620 2991 c0 -5 7 -11 15 -15 8 -3 15 -16 15 -30 0 -14 5 -28 11
-32 7 -4 9 0 6 12 -3 11 -8 31 -11 47 -6 24 -36 40 -36 18z"/>
<path d="M3710 2990 c0 -5 5 -10 11 -10 5 0 7 5 4 10 -3 6 -8 10 -11 10 -2 0
-4 -4 -4 -10z"/>
<path d="M4550 2991 c0 -6 4 -13 10 -16 6 -3 7 1 4 9 -7 18 -14 21 -14 7z"/>
<path d="M3564 2968 c3 -13 16 -60 27 -106 17 -63 25 -82 36 -78 8 4 20 6 26
7 7 0 3 4 -9 9 -15 6 -24 21 -29 52 -4 23 -9 48 -11 53 -15 42 -15 68 -3 76
10 6 6 9 -15 9 -25 0 -28 -3 -22 -22z"/>
<path d="M517 2944 c-4 -4 -7 -14 -7 -23 0 -11 3 -12 11 -4 6 6 10 16 7 23 -2
6 -7 8 -11 4z"/>
<path d="M686 2943 c-12 -12 -6 -33 9 -33 8 0 15 6 15 14 0 17 -14 28 -24 19z"/>
<path d="M2350 2940 c8 -5 11 -10 5 -10 -5 0 2 -8 15 -17 14 -9 31 -25 37 -34
7 -10 32 -32 55 -50 31 -23 21 -10 -32 44 -41 42 -79 77 -85 77 -5 0 -3 -5 5
-10z"/>
<path d="M4592 2939 c2 -6 7 -10 11 -10 4 1 16 1 28 1 11 0 17 5 14 10 -8 14
-58 13 -53 -1z"/>
<path d="M477 2934 c-8 -8 1 -24 14 -24 5 0 9 7 9 15 0 15 -12 20 -23 9z"/>
<path d="M1566 2895 c-3 -9 -6 -22 -5 -28 0 -7 5 -1 10 12 5 13 8 26 5 28 -2
2 -6 -3 -10 -12z"/>
<path d="M1711 2894 c0 -11 3 -14 6 -6 3 7 2 16 -1 19 -3 4 -6 -2 -5 -13z"/>
<path d="M4572 2890 c0 -14 2 -19 5 -12 2 6 2 18 0 25 -3 6 -5 1 -5 -13z"/>
<path d="M3672 2870 c0 -19 2 -27 5 -17 2 9 2 25 0 35 -3 9 -5 1 -5 -18z"/>
<path d="M4470 2870 c0 -16 5 -30 10 -30 6 0 10 14 10 30 0 17 -4 30 -10 30
-5 0 -10 -13 -10 -30z"/>
<path d="M505 2880 c-3 -5 -1 -10 4 -10 6 0 11 5 11 10 0 6 -2 10 -4 10 -3 0
-8 -4 -11 -10z"/>
<path d="M1425 2880 c-3 -4 4 -10 15 -13 11 -3 22 -2 25 3 3 4 -4 10 -15 13
-11 3 -22 2 -25 -3z"/>
<path d="M1481 2873 c0 -5 4 -17 9 -28 8 -18 9 -17 9 8 1 15 -3 27 -9 27 -5 0
-10 -3 -9 -7z"/>
<path d="M664 2856 c-8 -22 3 -33 18 -18 9 9 9 15 0 24 -9 9 -13 7 -18 -6z"/>
<path d="M1410 2851 c0 -5 -3 -16 -6 -25 -3 -9 -2 -16 4 -16 13 0 23 38 11 46
-5 3 -9 1 -9 -5z"/>
<path d="M1690 2840 c0 -11 4 -20 8 -20 4 0 8 9 8 20 0 11 -4 20 -8 20 -4 0
-8 -9 -8 -20z"/>
<path d="M492 2820 c0 -21 4 -30 15 -30 12 0 13 3 4 14 -8 10 -9 16 -1 21 14
9 13 25 -3 25 -9 0 -14 -12 -15 -30z"/>
<path d="M1546 2824 c-4 -14 -5 -28 -3 -31 3 -2 8 8 11 23 4 14 5 28 3 31 -3
2 -8 -8 -11 -23z"/>
<path d="M4610 2840 c0 -5 15 -10 33 -10 24 0 28 3 17 10 -20 13 -50 13 -50 0z"/>
<path d="M992 2810 c0 -14 2 -19 5 -12 2 6 2 18 0 25 -3 6 -5 1 -5 -13z"/>
<path d="M3665 2813 c3 -8 5 -17 5 -19 0 -2 5 -4 10 -4 6 0 10 8 10 18 0 10
-7 19 -15 19 -10 0 -14 -6 -10 -14z"/>
<path d="M1470 2810 c-13 -8 -12 -10 3 -10 9 0 17 5 17 10 0 12 -1 12 -20 0z"/>
<path d="M1338 2803 c7 -3 16 -2 19 1 4 3 -2 6 -13 5 -11 0 -14 -3 -6 -6z"/>
<path d="M1687 2803 c-9 -15 -19 -128 -11 -120 7 7 24 127 17 127 -1 0 -4 -3
-6 -7z"/>
<path d="M4141 2794 c0 -11 3 -14 6 -6 3 7 2 16 -1 19 -3 4 -6 -2 -5 -13z"/>
<path d="M440 2790 c0 -5 9 -10 21 -10 11 0 17 5 14 10 -3 6 -13 10 -21 10 -8
0 -14 -4 -14 -10z"/>
<path d="M2524 2775 c8 -8 18 -15 22 -15 3 0 1 7 -6 15 -7 8 -17 15 -22 15 -5
0 -3 -7 6 -15z"/>
<path d="M650 2770 c0 -5 4 -10 9 -10 6 0 13 5 16 10 3 6 -1 10 -9 10 -9 0
-16 -4 -16 -10z"/>
<path d="M986 2742 c-4 -24 -6 -46 -2 -49 8 -8 18 42 14 68 -3 18 -6 13 -12
-19z"/>
<path d="M1532 2760 c0 -14 2 -19 5 -12 2 6 2 18 0 25 -3 6 -5 1 -5 -13z"/>
<path d="M4483 2764 c-3 -8 -1 -20 6 -27 8 -8 11 -4 11 16 0 30 -7 35 -17 11z"/>
<path d="M680 2750 c0 -5 7 -10 15 -10 8 0 15 5 15 10 0 6 -7 10 -15 10 -8 0
-15 -4 -15 -10z"/>
<path d="M1386 2729 c-9 -46 7 -67 53 -67 32 -1 40 3 45 21 12 46 7 67 -16 67
-17 0 -19 -3 -10 -9 8 -4 12 -19 10 -32 -2 -19 -10 -25 -35 -27 -29 -3 -33 0
-33 22 0 14 5 28 10 31 15 9 12 25 -4 25 -7 0 -16 -14 -20 -31z"/>
<path d="M485 2730 c-4 -6 -3 -16 3 -22 6 -6 12 -6 17 2 4 6 3 16 -3 22 -6 6
-12 6 -17 -2z"/>
<path d="M4610 2722 c0 -5 7 -13 16 -16 24 -9 54 -7 54 4 0 6 -6 10 -12 10 -7
0 -23 3 -35 6 -13 4 -23 2 -23 -4z"/>
<path d="M3675 2710 c-3 -5 1 -10 9 -10 9 0 16 5 16 10 0 6 -4 10 -9 10 -6 0
-13 -4 -16 -10z"/>
<path d="M3901 2704 c0 -11 3 -14 6 -6 3 7 2 16 -1 19 -3 4 -6 -2 -5 -13z"/>
<path d="M4141 2704 c0 -11 3 -14 6 -6 3 7 2 16 -1 19 -3 4 -6 -2 -5 -13z"/>
<path d="M450 2650 c0 -6 41 -10 103 -10 l102 0 0 -70 0 -70 -90 1 c-60 1 -82
4 -65 9 l25 8 -27 1 c-16 1 -28 5 -28 11 0 5 39 11 88 13 l87 3 -87 2 c-70 2
-88 5 -88 17 0 11 19 15 88 18 l87 3 -87 2 c-116 3 -117 22 -1 22 47 0 83 3
79 7 -4 4 -47 7 -96 8 l-88 0 1 -70 c2 -62 4 -70 22 -71 11 0 57 -1 103 -2 75
-2 82 -4 82 -22 0 -11 3 -20 8 -20 4 0 7 49 7 110 l0 110 -112 0 c-69 0 -113
-4 -113 -10z"/>
<path d="M4668 2655 c-3 -3 -48 -6 -101 -6 l-96 -1 2 -94 2 -93 62 -7 c34 -3
74 -3 89 0 15 4 32 2 40 -5 11 -9 14 -7 14 11 0 22 -2 22 -90 18 -59 -3 -90
-1 -91 6 -1 13 2 125 3 144 1 8 8 10 17 7 9 -4 43 -8 76 -10 48 -3 53 -2 25 4
l-35 8 36 2 c33 1 49 -11 49 -35 0 -2 -35 -4 -77 -4 -97 -1 -79 -17 22 -21
l70 -3 0 38 c0 36 -6 51 -17 41z"/>
<path d="M3397 2613 c-6 -6 -10 -153 -4 -153 1 0 17 4 35 9 20 6 32 6 32 0 0
-5 5 -9 10 -9 6 0 10 33 10 80 l0 80 -38 0 c-21 0 -42 -3 -45 -7z m63 -70 c0
-50 -1 -53 -25 -53 -27 0 -31 17 -19 78 4 22 12 30 25 29 16 -1 19 -9 19 -54z"/>
<path d="M2633 2595 c-8 -8 -9 -16 -3 -20 5 -3 14 4 20 15 12 23 1 26 -17 5z"/>
<path d="M3076 2602 c-2 -4 16 -7 40 -7 29 0 44 -4 44 -12 0 -7 5 -13 10 -13
6 0 10 5 10 10 0 6 8 10 18 11 14 0 14 2 -3 9 -25 11 -112 13 -119 2z"/>
<path d="M3225 2537 l0 -72 37 0 c43 0 48 10 48 93 l0 52 -42 0 -43 0 0 -73z
m63 1 c-3 -46 -6 -53 -25 -56 -21 -3 -23 1 -23 46 0 54 4 62 32 62 17 0 19 -7
16 -52z"/>
<path d="M3570 2536 l0 -74 25 11 c17 8 20 13 10 15 -11 3 -15 17 -15 52 0 40
3 49 22 53 12 3 29 2 38 -3 10 -5 20 -6 24 -3 16 16 2 23 -49 23 l-55 0 0 -74z"/>
<path d="M3734 2599 c-6 -11 -43 -10 309 -9 l297 1 0 -45 0 -44 -77 -5 c-43
-2 -178 -3 -301 -3 -178 1 -222 -2 -222 -12 0 -11 35 -13 183 -8 100 2 239 5
310 5 l127 1 0 66 0 65 -310 -2 c-171 -1 -313 -5 -316 -10z"/>
<path d="M14 2591 c-2 -2 -4 -19 -4 -38 l0 -33 178 2 177 3 0 35 0 35 -173 0
c-96 0 -175 -2 -178 -4z m315 -27 c14 -13 -26 -19 -155 -21 -119 -2 -144 0
-144 12 0 12 24 15 122 18 117 3 168 0 177 -9z"/>
<path d="M810 2540 l0 -60 283 0 c155 0 392 -3 527 -6 199 -5 248 -4 262 7 19
16 34 89 18 89 -6 0 -10 -19 -10 -42 0 -24 -4 -38 -8 -31 -5 8 -12 9 -22 2
-15 -9 -959 -3 -1007 7 -19 3 -23 11 -23 39 l0 35 538 0 c350 0 532 4 522 10
-9 6 -221 10 -547 10 l-533 0 0 -60z"/>
<path d="M2060 2590 c-12 -7 -12 -12 0 -34 19 -36 30 -32 30 9 0 36 -5 41 -30
25z"/>
<path d="M2971 2588 c-14 -5 -36 -8 -50 -7 -41 3 -61 0 -61 -10 0 -5 34 -11
75 -13 73 -3 85 2 67 28 -5 8 -15 8 -31 2z"/>
<path d="M3111 2554 c0 -11 3 -14 6 -6 3 7 2 16 -1 19 -3 4 -6 -2 -5 -13z"/>
<path d="M4762 2530 c2 -19 6 -34 11 -32 4 1 79 2 167 2 l160 0 0 30 0 29
-170 3 -171 3 3 -35z m297 12 c41 -15 11 -21 -127 -26 -98 -3 -134 -1 -141 8
-6 7 -9 15 -6 18 9 9 250 9 274 0z"/>
<path d="M4545 2550 c17 -4 52 -8 78 -9 34 -1 47 -5 45 -13 -3 -8 -33 -15 -84
-18 l-79 -6 88 -4 87 -5 0 33 0 32 -82 -1 c-60 -1 -75 -4 -53 -9z"/>
<path d="M2440 2478 c-27 -29 -47 -54 -44 -57 4 -4 104 96 104 105 0 12 -17
-1 -60 -48z"/>
<path d="M2620 2526 c0 -10 110 -119 115 -114 5 4 -46 60 -88 97 -15 14 -27
21 -27 17z"/>
<path d="M3661 2523 c0 -6 -8 -19 -17 -27 -14 -15 -14 -17 1 -22 22 -9 27 -1
22 33 -2 15 -5 23 -6 16z"/>
<path d="M553 2513 c15 -2 39 -2 55 0 15 2 2 4 -28 4 -30 0 -43 -2 -27 -4z"/>
<path d="M2926 2501 c-10 -15 31 -33 67 -29 20 2 32 8 32 18 0 18 -89 27 -99
11z"/>
<path d="M3071 2491 c-18 -12 6 -19 74 -23 38 -2 50 1 50 12 0 11 -15 16 -55
18 -30 1 -61 -2 -69 -7z"/>
<path d="M463 2453 c9 -2 25 -2 35 0 9 3 1 5 -18 5 -19 0 -27 -2 -17 -5z"/>
<path d="M4470 2430 c0 -5 10 -10 23 -10 18 0 19 2 7 10 -19 13 -30 13 -30 0z"/>
<path d="M3414 2396 c-3 -19 -3 -39 1 -45 3 -6 2 -11 -3 -11 -5 0 -9 -19 -9
-42 0 -24 -6 -56 -13 -73 -7 -16 -14 -36 -14 -43 -1 -7 -6 -16 -12 -20 -5 -4
-16 -23 -24 -42 -11 -30 -67 -120 -119 -191 -7 -10 -11 -19 -8 -19 6 0 68 81
116 150 56 82 96 212 100 323 2 55 -5 62 -15 13z"/>
<path d="M417 2404 c-12 -12 4 -24 34 -24 16 0 29 5 29 10 0 6 -6 10 -14 10
-8 0 -21 2 -28 5 -8 3 -17 3 -21 -1z"/>
<path d="M1635 2385 c37 -168 89 -302 132 -336 17 -13 17 -13 0 11 -37 53 -76
149 -98 240 -12 52 -26 100 -31 105 -6 6 -7 -2 -3 -20z"/>
<path d="M2267 2301 c-59 -60 -107 -112 -107 -116 0 -11 20 6 63 53 23 25 70
74 105 109 35 35 59 63 54 63 -4 0 -57 -49 -115 -109z"/>
<path d="M4130 2305 c-3 -60 -4 -112 -2 -114 9 -16 12 21 10 115 l-3 109 -5
-110z"/>
<path d="M1791 2384 c0 -11 3 -14 6 -6 3 7 2 16 -1 19 -3 4 -6 -2 -5 -13z"/>
<path d="M2750 2391 c0 -6 4 -13 10 -16 6 -3 7 1 4 9 -7 18 -14 21 -14 7z"/>
<path d="M4700 2390 c19 -13 30 -13 30 0 0 6 -10 10 -22 10 -19 0 -20 -2 -8
-10z"/>
<path d="M650 2380 c0 -5 9 -10 21 -10 11 0 17 5 14 10 -3 6 -13 10 -21 10 -8
0 -14 -4 -14 -10z"/>
<path d="M4600 2366 c0 -14 5 -28 10 -31 6 -3 10 5 10 19 0 14 -4 28 -10 31
-6 3 -10 -5 -10 -19z"/>
<path d="M1456 2364 c-3 -9 -2 -22 2 -28 5 -6 15 -44 22 -83 7 -40 17 -73 22
-73 5 0 7 8 4 18 -4 15 -16 73 -31 151 -6 31 -11 36 -19 15z"/>
<path d="M4650 2366 c0 -10 9 -16 21 -16 24 0 21 23 -4 28 -10 2 -17 -3 -17
-12z"/>
<path d="M1797 2339 c4 -13 8 -18 11 -10 2 7 -1 18 -6 23 -8 8 -9 4 -5 -13z"/>
<path d="M1366 2323 c35 -158 103 -339 134 -358 10 -6 11 -4 4 6 -5 8 -9 16
-9 19 -1 3 -11 27 -23 54 -13 28 -25 61 -29 75 -3 14 -9 31 -13 36 -12 16 -25
71 -36 148 -4 30 -12 47 -20 47 -10 0 -13 -8 -8 -27z"/>
<path d="M2383 2196 c-159 -164 -173 -174 -222 -140 -19 14 -22 23 -19 65 2
30 -1 48 -7 46 -14 -5 -18 -96 -5 -112 6 -7 33 -19 61 -25 l49 -12 108 113
c59 63 126 133 150 157 24 23 42 48 40 53 -2 6 -72 -59 -155 -145z"/>
<path d="M2577 2335 c6 -11 28 -36 50 -55 21 -20 82 -82 137 -140 l98 -105 62
3 c72 3 86 16 86 78 0 37 -6 47 -45 85 -25 24 -53 47 -63 52 -13 6 -12 4 2 -7
11 -9 17 -16 14 -16 -3 0 12 -17 33 -39 30 -30 39 -46 39 -74 0 -45 -18 -59
-76 -59 l-47 0 -131 134 c-72 74 -140 141 -150 149 -18 13 -18 12 -9 -6z"/>
<path d="M657 2305 c-8 -18 11 -31 25 -17 11 11 3 32 -12 32 -4 0 -10 -7 -13
-15z"/>
<path d="M2846 2295 c4 -8 11 -15 16 -15 6 0 5 6 -2 15 -7 8 -14 15 -16 15 -2
0 -1 -7 2 -15z"/>
<path d="M3697 2303 c-10 -10 -8 -43 2 -43 5 0 7 10 3 22 -3 14 -2 19 6 14 7
-4 12 -2 12 3 0 12 -13 14 -23 4z"/>
<path d="M4590 2290 c0 -19 3 -21 12 -12 9 9 9 15 0 24 -9 9 -12 7 -12 -12z"/>
<path d="M487 2294 c-4 -4 -7 -18 -7 -31 0 -16 6 -23 20 -23 11 0 20 5 20 10
0 6 -8 10 -17 10 -15 0 -16 2 -3 10 10 6 12 12 4 20 -6 6 -13 7 -17 4z"/>
<path d="M4475 2259 c-10 -15 3 -25 16 -12 7 7 7 13 1 17 -6 3 -14 1 -17 -5z"/>
<path d="M4610 2246 c0 -12 10 -16 35 -16 19 0 35 5 35 10 0 6 -9 10 -19 10
-11 0 -26 3 -35 6 -11 4 -16 1 -16 -10z"/>
<path d="M674 2216 c-4 -10 -2 -22 4 -28 8 -8 13 -7 18 6 4 10 2 22 -4 28 -8
8 -13 7 -18 -6z"/>
<path d="M3830 2223 c0 -5 44 -17 98 -27 53 -10 104 -20 112 -23 10 -4 12 -2
5 5 -5 6 -46 18 -90 27 -44 10 -90 20 -102 22 -13 3 -23 1 -23 -4z"/>
<path d="M4556 2130 c-18 -79 -66 -256 -81 -295 -6 -14 -5 -17 3 -10 25 24
118 370 102 380 -4 3 -15 -32 -24 -75z"/>
<path d="M4470 2190 c0 -5 5 -10 11 -10 5 0 7 5 4 10 -3 6 -8 10 -11 10 -2 0
-4 -4 -4 -10z"/>
<path d="M581 2174 c0 -11 3 -14 6 -6 3 7 2 16 -1 19 -3 4 -6 -2 -5 -13z"/>
<path d="M500 2148 c0 -30 1 -31 24 -22 21 8 20 21 -1 27 -17 4 -17 5 0 6 9 0
17 5 17 10 0 6 -9 9 -20 8 -15 -1 -20 -8 -20 -29z"/>
<path d="M4068 2173 c7 -3 16 -2 19 1 4 3 -2 6 -13 5 -11 0 -14 -3 -6 -6z"/>
<path d="M1511 2150 c0 -14 8 -45 19 -69 11 -24 20 -49 20 -57 0 -8 5 -14 10
-14 12 0 14 -9 -20 85 -17 47 -29 70 -29 55z"/>
<path d="M4110 2166 c0 -2 7 -9 15 -16 12 -10 15 -10 15 4 0 9 -7 16 -15 16
-8 0 -15 -2 -15 -4z"/>
<path d="M4610 2145 c0 -18 5 -25 20 -25 14 0 20 6 19 23 0 12 -3 16 -6 10 -2
-7 -9 -13 -15 -13 -6 0 -8 7 -4 15 3 8 1 15 -4 15 -6 0 -10 -11 -10 -25z"/>
<path d="M592 2130 c0 -14 2 -19 5 -12 2 6 2 18 0 25 -3 6 -5 1 -5 -13z"/>
<path d="M4107 2062 c-10 -37 -23 -78 -30 -92 -22 -42 -27 -60 -17 -60 13 0
50 84 66 150 16 66 16 70 6 70 -4 0 -15 -30 -25 -68z"/>
<path d="M692 2104 c1 -9 9 -19 16 -22 9 -3 13 2 10 14 -1 9 -9 19 -16 22 -9
3 -13 -2 -10 -14z"/>
<path d="M3556 2104 c-4 -9 -5 -19 -2 -21 8 -8 47 18 41 28 -10 15 -32 11 -39
-7z"/>
<path d="M2541 2094 c0 -11 3 -14 6 -6 3 7 2 16 -1 19 -3 4 -6 -2 -5 -13z"/>
<path d="M4450 2089 c0 -11 5 -17 10 -14 6 3 10 13 10 21 0 8 -4 14 -10 14 -5
0 -10 -9 -10 -21z"/>
<path d="M601 2090 c0 -8 4 -24 9 -35 5 -13 9 -14 9 -5 0 8 -4 24 -9 35 -5 13
-9 14 -9 5z"/>
<path d="M2570 2090 c0 -5 5 -10 10 -10 6 0 10 5 10 10 0 6 -4 10 -10 10 -5 0
-10 -4 -10 -10z"/>
<path d="M3630 2086 c14 -8 29 -12 34 -8 10 6 -20 20 -44 21 -8 0 -4 -6 10
-13z"/>
<path d="M3621 2054 c13 -16 29 -19 29 -5 0 5 -9 11 -21 14 -16 4 -18 3 -8 -9z"/>
<path d="M4580 2060 c0 -5 6 -10 13 -10 6 0 22 -3 35 -6 14 -4 22 -2 22 6 0 7
-7 10 -15 7 -8 -4 -17 -2 -20 3 -8 13 -35 13 -35 0z"/>
<path d="M516 2051 c-7 -11 3 -41 14 -41 24 0 37 13 33 31 -5 19 -37 26 -47
10z m26 -23 c-7 -7 -12 -8 -12 -2 0 14 12 26 19 19 2 -3 -1 -11 -7 -17z"/>
<path d="M3780 2032 c0 -11 60 -35 68 -27 3 2 -8 9 -23 15 -15 6 -32 13 -36
16 -5 3 -9 1 -9 -4z"/>
<path d="M710 2023 c0 -5 4 -15 10 -23 11 -18 25 -7 17 15 -6 15 -27 21 -27 8z"/>
<path d="M1796 2008 c10 -14 21 -24 23 -22 3 3 -6 15 -18 27 l-24 22 19 -27z"/>
<path d="M3050 2025 c0 -4 54 -60 121 -123 l120 -115 -42 -43 c-55 -56 -39
-58 17 -3 l42 41 13 -31 c7 -16 23 -32 34 -35 11 -3 28 -19 38 -36 10 -16 25
-30 33 -30 13 0 12 5 -4 28 -20 26 -135 140 -257 252 -100 92 -115 104 -115
95z"/>
<path d="M4572 1985 c-1 -18 2 -23 13 -19 18 7 20 44 2 44 -7 0 -14 -11 -15
-25z"/>
<path d="M4431 1984 c0 -11 3 -14 6 -6 3 7 2 16 -1 19 -3 4 -6 -2 -5 -13z"/>
<path d="M3157 1983 c-4 -3 -7 -11 -7 -17 0 -6 5 -5 12 2 6 6 9 14 7 17 -3 3
-9 2 -12 -2z"/>
<path d="M3490 1975 c0 -8 2 -15 4 -15 2 0 6 7 10 15 3 8 1 15 -4 15 -6 0 -10
-7 -10 -15z"/>
<path d="M3880 1985 c0 -2 17 -11 38 -20 20 -9 45 -21 55 -27 11 -5 21 -7 24
-5 2 3 -20 17 -51 31 -55 26 -66 30 -66 21z"/>
<path d="M555 1949 c-4 -11 -4 -23 -1 -26 8 -9 36 17 36 33 0 22 -28 16 -35
-7z"/>
<path d="M2544 1875 c0 -49 1 -71 3 -48 2 23 2 64 0 90 -2 26 -3 8 -3 -42z"/>
<path d="M3580 1950 c0 -5 5 -10 10 -10 6 0 10 5 10 10 0 6 -4 10 -10 10 -5 0
-10 -4 -10 -10z"/>
<path d="M746 1941 c-8 -12 3 -41 15 -41 12 0 12 37 0 45 -5 3 -12 1 -15 -4z"/>
<path d="M1339 1929 l-24 -20 28 17 c15 9 27 18 27 20 0 8 -8 4 -31 -17z"/>
<path d="M1425 1940 c-3 -6 1 -7 9 -4 18 7 21 14 7 14 -6 0 -13 -4 -16 -10z"/>
<path d="M1506 1938 c33 -61 150 -228 158 -228 7 0 7 3 1 8 -5 4 -21 28 -35
55 -13 26 -28 47 -31 47 -4 0 -9 8 -13 18 -5 17 -12 28 -49 84 -18 27 -45 40
-31 16z"/>
<path d="M4573 1942 c-17 -11 -21 -62 -4 -62 5 0 11 16 13 35 2 19 4 35 3 35
0 0 -5 -4 -12 -8z"/>
<path d="M2568 1774 c-1 -113 -3 -151 -8 -114 -6 46 -7 37 -8 -53 -2 -76 1
-106 9 -101 8 4 9 -124 5 -462 -4 -258 -9 -488 -12 -510 -4 -34 -2 -42 13 -46
17 -5 18 28 17 719 -1 398 -4 727 -8 730 -3 4 -7 -70 -8 -163z"/>
<path d="M3538 1924 c18 -9 35 -14 39 -10 10 10 -3 17 -39 22 l-33 5 33 -17z"/>
<path d="M3089 1872 c-100 -88 -190 -119 -379 -132 l-115 -9 135 4 c141 3 245
26 287 64 10 9 42 34 71 56 28 21 52 43 52 47 0 13 -5 10 -51 -30z"/>
<path d="M4590 1900 c0 -5 7 -10 15 -10 8 0 15 5 15 10 0 6 -7 10 -15 10 -8 0
-15 -4 -15 -10z"/>
<path d="M3618 1893 c7 -3 16 -2 19 1 4 3 -2 6 -13 5 -11 0 -14 -3 -6 -6z"/>
<path d="M537 1870 c3 -11 7 -20 9 -20 2 0 4 9 4 20 0 11 -4 20 -9 20 -5 0 -7
-9 -4 -20z"/>
<path d="M587 1883 c-12 -11 -8 -23 8 -23 8 0 15 7 15 15 0 16 -12 20 -23 8z"/>
<path d="M1975 1879 c-4 -6 -5 -12 -2 -15 2 -3 7 2 10 11 7 17 1 20 -8 4z"/>
<path d="M3500 1871 c-6 -12 -7 -21 -1 -21 10 0 24 30 17 37 -2 3 -9 -5 -16
-16z"/>
<path d="M3650 1880 c0 -5 5 -10 10 -10 6 0 10 5 10 10 0 6 -4 10 -10 10 -5 0
-10 -4 -10 -10z"/>
<path d="M4525 1863 c-9 -36 12 -55 31 -29 18 25 18 29 -5 43 -17 10 -20 9
-26 -14z"/>
<path d="M3536 1865 c-3 -8 -1 -15 4 -15 13 0 22 18 11 24 -5 3 -11 -1 -15 -9z"/>
<path d="M1250 1860 c12 -8 12 -10 1 -10 -8 0 -12 -2 -9 -5 3 -3 13 -2 22 1
14 5 15 9 4 15 -7 5 -17 9 -23 9 -5 0 -3 -5 5 -10z"/>
<path d="M3156 1855 c4 -9 11 -14 16 -13 15 5 11 23 -6 26 -11 2 -14 -2 -10
-13z"/>
<path d="M3686 1861 c5 -5 20 -12 34 -15 l25 -7 -25 15 c-28 17 -50 21 -34 7z"/>
<path d="M785 1833 c8 -32 13 -39 21 -30 10 9 -5 57 -17 57 -7 0 -9 -10 -4
-27z"/>
<path d="M1940 1840 c-9 -6 -10 -10 -3 -10 6 0 15 5 18 10 8 12 4 12 -15 0z"/>
<path d="M3406 1833 c-6 -14 -5 -15 5 -6 7 7 10 15 7 18 -3 3 -9 -2 -12 -12z"/>
<path d="M4570 1834 c0 -8 5 -12 10 -9 6 3 10 10 10 16 0 5 -4 9 -10 9 -5 0
-10 -7 -10 -16z"/>
<path d="M590 1830 c0 -5 7 -10 15 -10 8 0 15 5 15 10 0 6 -7 10 -15 10 -8 0
-15 -4 -15 -10z"/>
<path d="M1164 1806 c-34 -18 -76 -44 -93 -59 -18 -15 -36 -27 -40 -27 -4 0
-16 -8 -27 -18 -10 -9 -51 -36 -90 -59 -39 -23 -77 -49 -84 -58 -13 -16 28 6
175 94 69 41 197 129 218 150 14 14 13 14 -59 -23z"/>
<path d="M3465 1830 c-3 -5 -1 -10 4 -10 6 0 11 5 11 10 0 6 -2 10 -4 10 -3 0
-8 -4 -11 -10z"/>
<path d="M3760 1815 c6 -8 46 -31 88 -52 43 -21 79 -41 82 -44 10 -13 80 -38
80 -29 0 5 -11 12 -25 16 -14 3 -25 10 -25 14 0 5 -21 19 -47 31 -27 13 -68
36 -92 51 -50 31 -82 38 -61 13z"/>
<path d="M1904 1798 l-19 -23 23 19 c21 18 27 26 19 26 -2 0 -12 -10 -23 -22z"/>
<path d="M4461 1803 c-1 -6 -4 -20 -7 -30 -5 -17 -5 -17 6 0 6 10 9 23 6 30
-3 9 -5 9 -5 0z"/>
<path d="M4500 1801 c0 -6 5 -13 10 -16 6 -3 10 1 10 9 0 9 -4 16 -10 16 -5 0
-10 -4 -10 -9z"/>
<path d="M3960 1765 c0 -8 2 -15 4 -15 2 0 6 7 10 15 3 8 1 15 -4 15 -6 0 -10
-7 -10 -15z"/>
<path d="M614 1758 c-7 -10 10 -17 32 -13 10 2 23 4 27 4 5 1 5 5 2 11 -7 11
-54 10 -61 -2z"/>
<path d="M4486 1754 c-3 -9 -4 -20 0 -25 7 -12 44 -11 44 1 0 6 -7 10 -16 10
-8 0 -13 4 -9 9 3 5 1 12 -4 15 -5 3 -12 -1 -15 -10z"/>
<path d="M4530 1759 c0 -5 5 -7 10 -4 6 3 10 8 10 11 0 2 -4 4 -10 4 -5 0 -10
-5 -10 -11z"/>
<path d="M2403 1753 c9 -2 23 -2 30 0 6 3 -1 5 -18 5 -16 0 -22 -2 -12 -5z"/>
<path d="M835 1740 c-3 -5 1 -10 10 -10 9 0 13 5 10 10 -3 6 -8 10 -10 10 -2
0 -7 -4 -10 -10z"/>
<path d="M2463 1743 c9 -2 25 -2 35 0 9 3 1 5 -18 5 -19 0 -27 -2 -17 -5z"/>
<path d="M2545 1740 c-3 -5 -1 -10 4 -10 6 0 11 5 11 10 0 6 -2 10 -4 10 -3 0
-8 -4 -11 -10z"/>
<path d="M4435 1730 c-4 -12 -5 -24 -2 -27 3 -2 8 5 12 17 4 12 5 24 2 27 -3
2 -8 -5 -12 -17z"/>
<path d="M845 1709 c-10 -15 3 -25 16 -12 7 7 7 13 1 17 -6 3 -14 1 -17 -5z"/>
<path d="M3302 1708 c-7 -7 -12 -19 -12 -27 0 -11 5 -8 16 7 18 25 15 39 -4
20z"/>
<path d="M654 1695 c-8 -21 6 -41 17 -24 12 19 11 39 -1 39 -6 0 -13 -7 -16
-15z"/>
<path d="M3155 1654 c-22 -20 -31 -31 -20 -25 29 15 82 60 70 60 -5 0 -28 -16
-50 -35z"/>
<path d="M3936 1682 c-2 -4 -1 -14 5 -22 7 -12 9 -10 9 8 0 23 -5 28 -14 14z"/>
<path d="M3257 1660 c-13 -13 -15 -20 -7 -25 15 -9 33 8 28 27 -2 13 -6 12
-21 -2z"/>
<path d="M4032 1664 c10 -10 20 -15 24 -12 3 4 -5 12 -18 18 -22 12 -22 12 -6
-6z"/>
<path d="M1575 1563 c-55 -58 -108 -117 -118 -130 -18 -22 -18 -23 2 -23 21 0
236 220 236 241 0 31 -27 11 -120 -88z"/>
<path d="M4454 1659 c-3 -6 -1 -16 5 -22 8 -8 11 -8 11 1 0 7 7 12 15 12 8 0
15 5 15 10 0 13 -37 13 -46 -1z"/>
<path d="M746 1651 c-3 -5 1 -14 8 -20 12 -10 13 -8 9 8 -6 23 -9 25 -17 12z"/>
<path d="M690 1613 c1 -27 1 -27 15 -9 19 25 19 36 0 36 -10 0 -15 -10 -15
-27z"/>
<path d="M1720 1631 c0 -5 24 -30 53 -56 151 -137 396 -258 585 -289 30 -5 32
-4 31 22 -1 15 -3 20 -6 11 -5 -20 -64 -17 -126 7 -20 8 -46 14 -56 14 -28 0
-286 135 -319 167 -7 7 -17 13 -21 13 -4 0 -25 17 -47 38 -63 58 -94 83 -94
73z"/>
<path d="M3451 1620 c14 -29 225 -247 252 -262 38 -20 -2 28 -133 157 -73 72
-126 119 -119 105z"/>
<path d="M4127 1623 c-7 -6 116 -83 133 -83 5 0 10 -5 12 -12 3 -8 6 -7 10 4
5 11 -13 26 -63 57 -71 42 -81 46 -92 34z"/>
<path d="M898 1596 c-16 -12 -28 -25 -28 -28 0 -6 41 12 69 30 3 1 0 6 -5 11
-5 6 -20 1 -36 -13z"/>
<path d="M3049 1586 c-51 -31 -128 -61 -219 -85 -23 -6 -27 -10 -14 -10 55 -2
294 95 294 120 0 12 3 13 -61 -25z"/>
<path d="M3915 1610 c-3 -5 -2 -17 3 -26 8 -14 10 -12 14 10 5 26 -5 35 -17
16z"/>
<path d="M4440 1610 c0 -5 7 -10 15 -10 8 0 15 5 15 10 0 6 -7 10 -15 10 -8 0
-15 -4 -15 -10z"/>
<path d="M3297 1594 c3 -7 9 -14 14 -14 14 0 10 17 -5 23 -10 4 -13 1 -9 -9z"/>
<path d="M2070 1570 c23 -18 50 -26 50 -15 0 6 -56 35 -67 35 -4 0 3 -9 17
-20z"/>
<path d="M733 1565 c-11 -8 -24 -11 -29 -7 -5 4 -2 -1 6 -11 13 -17 14 -17 34
2 24 25 17 36 -11 16z"/>
<path d="M3149 1563 c-13 -15 -12 -15 9 -4 23 12 28 21 13 21 -5 0 -15 -7 -22
-17z"/>
<path d="M4142 1550 c0 -14 2 -19 5 -12 2 6 2 18 0 25 -3 6 -5 1 -5 -13z"/>
<path d="M4406 1555 c-3 -9 0 -15 9 -15 8 0 15 7 15 15 0 8 -4 15 -9 15 -5 0
-11 -7 -15 -15z"/>
<path d="M780 1540 c-8 -6 -44 -26 -80 -46 -96 -54 -250 -156 -250 -165 0 -5
13 -15 29 -24 16 -8 31 -20 33 -26 3 -10 38 13 192 129 27 20 60 47 75 60 l26
23 -25 -7 c-14 -3 -38 -18 -55 -33 -60 -55 -194 -141 -210 -135 -8 3 -15 10
-15 15 0 9 112 87 200 138 77 45 126 81 109 80 -8 0 -21 -4 -29 -9z"/>
<path d="M2135 1540 c4 -6 11 -8 16 -5 14 9 11 15 -7 15 -8 0 -12 -5 -9 -10z"/>
<path d="M3077 1520 c-26 -16 -52 -30 -57 -30 -6 0 -10 -4 -10 -10 0 -5 2 -10
5 -10 8 0 115 70 115 75 0 8 -4 6 -53 -25z"/>
<path d="M810 1520 c0 -5 7 -10 16 -10 8 0 12 5 9 10 -3 6 -10 10 -16 10 -5 0
-9 -4 -9 -10z"/>
<path d="M2175 1523 c21 -20 154 -48 285 -59 76 -6 97 2 24 10 -21 2 -66 7
-99 11 -53 6 -120 20 -195 41 -16 4 -21 3 -15 -3z"/>
<path d="M4410 1520 c0 -5 5 -10 11 -10 5 0 7 5 4 10 -3 6 -8 10 -11 10 -2 0
-4 -4 -4 -10z"/>
<path d="M3250 1512 c0 -15 18 -34 29 -31 7 3 3 11 -9 21 -11 10 -20 14 -20
10z"/>
<path d="M2047 1499 c7 -7 15 -10 18 -7 3 3 -2 9 -12 12 -14 6 -15 5 -6 -5z"/>
<path d="M4137 1485 c-4 -8 -2 -17 3 -20 6 -4 10 3 10 14 0 25 -6 27 -13 6z"/>
<path d="M4370 1490 c0 -13 28 -25 38 -16 3 4 0 11 -8 16 -20 13 -30 12 -30 0z"/>
<path d="M2660 1480 l-45 -7 42 -1 c23 -1 45 3 48 8 3 6 5 9 3 8 -2 0 -23 -4
-48 -8z"/>
<path d="M2738 1483 c12 -2 30 -2 40 0 9 3 -1 5 -23 4 -22 0 -30 -2 -17 -4z"/>
<path d="M945 1470 c-3 -5 -2 -10 4 -10 5 0 13 5 16 10 3 6 2 10 -4 10 -5 0
-13 -4 -16 -10z"/>
<path d="M2135 1456 c28 -14 55 -25 60 -25 15 0 -56 36 -85 43 -14 3 -2 -5 25
-18z"/>
<path d="M2545 1471 c-3 -5 -1 -12 5 -16 5 -3 10 1 10 9 0 18 -6 21 -15 7z"/>
<path d="M2975 1460 c-3 -5 -2 -10 4 -10 5 0 13 5 16 10 3 6 2 10 -4 10 -5 0
-13 -4 -16 -10z"/>
<path d="M4430 1456 c0 -3 9 -10 20 -16 11 -6 20 -8 20 -6 0 3 -9 10 -20 16
-11 6 -20 8 -20 6z"/>
<path d="M792 1433 c2 -9 9 -18 16 -21 18 -6 15 25 -4 32 -11 4 -14 1 -12 -11z"/>
<path d="M2900 1440 c0 -5 7 -10 15 -10 8 0 15 5 15 10 0 6 -7 10 -15 10 -8 0
-15 -4 -15 -10z"/>
<path d="M2547 1348 c7 -111 14 -113 12 -5 -1 48 -5 87 -9 87 -5 0 -6 -37 -3
-82z"/>
<path d="M4130 1420 c0 -5 7 -10 15 -10 8 0 15 5 15 10 0 6 -7 10 -15 10 -8 0
-15 -4 -15 -10z"/>
<path d="M4305 1420 c-3 -5 -2 -10 4 -10 5 0 13 5 16 10 3 6 2 10 -4 10 -5 0
-13 -4 -16 -10z"/>
<path d="M4480 1420 c0 -8 50 -24 56 -18 2 2 -10 9 -26 15 -17 6 -30 8 -30 3z"/>
<path d="M870 1410 c0 -5 5 -10 10 -10 6 0 10 5 10 10 0 6 -4 10 -10 10 -5 0
-10 -4 -10 -10z"/>
<path d="M1815 1363 c-14 -32 -35 -77 -45 -100 -11 -24 -16 -43 -12 -43 9 0
95 191 88 197 -2 3 -16 -21 -31 -54z"/>
<path d="M2240 1416 c0 -2 7 -6 15 -10 8 -3 15 -1 15 4 0 6 -7 10 -15 10 -8 0
-15 -2 -15 -4z"/>
<path d="M3327 1413 c-4 -3 -7 -11 -7 -17 0 -6 5 -5 12 2 6 6 9 14 7 17 -3 3
-9 2 -12 -2z"/>
<path d="M1916 1378 c-16 -38 -81 -179 -102 -223 -24 -51 -44 -163 -43 -243 1
-92 15 -62 18 38 2 104 19 163 83 298 56 119 73 162 63 162 -3 0 -11 -15 -19
-32z"/>
<path d="M2285 1400 c3 -5 11 -10 16 -10 6 0 7 5 4 10 -3 6 -11 10 -16 10 -6
0 -7 -4 -4 -10z"/>
<path d="M830 1393 c0 -5 4 -15 10 -23 11 -18 25 -7 17 15 -6 15 -27 21 -27 8z"/>
<path d="M2854 1386 c-3 -8 -4 -25 -2 -38 3 -17 5 -13 9 15 5 38 2 47 -7 23z"/>
<path d="M2338 1383 c7 -3 16 -2 19 1 4 3 -2 6 -13 5 -11 0 -14 -3 -6 -6z"/>
<path d="M2670 1374 l-55 -13 63 5 c71 6 131 23 77 22 -16 0 -55 -6 -85 -14z"/>
<path d="M2376 1372 c6 -4 13 -14 16 -22 3 -10 6 -8 10 8 5 18 2 22 -15 22
-13 0 -17 -3 -11 -8z"/>
<path d="M2432 1360 c0 -14 2 -19 5 -12 2 6 2 18 0 25 -3 6 -5 1 -5 -13z"/>
<path d="M4142 1350 c0 -19 2 -27 5 -17 2 9 2 25 0 35 -3 9 -5 1 -5 -18z"/>
<path d="M2458 1363 c6 -2 18 -2 25 0 6 3 1 5 -13 5 -14 0 -19 -2 -12 -5z"/>
<path d="M3323 1335 c0 -22 2 -30 4 -17 2 12 2 30 0 40 -3 9 -5 -1 -4 -23z"/>
<path d="M4264 1354 c3 -9 6 -20 6 -25 0 -5 7 -9 15 -9 9 0 15 9 15 23 0 18
-2 19 -10 7 -8 -13 -10 -12 -10 3 0 9 -5 17 -11 17 -6 0 -8 -7 -5 -16z"/>
<path d="M814 1346 c-8 -22 3 -33 18 -18 9 9 9 15 0 24 -9 9 -13 7 -18 -6z"/>
<path d="M940 1330 c0 -5 5 -10 11 -10 5 0 7 5 4 10 -3 6 -8 10 -11 10 -2 0
-4 -4 -4 -10z"/>
<path d="M1376 1324 c-5 -14 -4 -15 9 -4 17 14 19 20 6 20 -5 0 -12 -7 -15
-16z"/>
<path d="M887 1311 c3 -13 -1 -20 -13 -23 -16 -3 -16 -4 -1 -17 15 -12 17 -11
17 3 0 9 7 16 16 16 11 0 14 5 10 16 -3 9 -6 18 -6 20 0 2 -6 4 -14 4 -9 0
-12 -7 -9 -19z"/>
<path d="M2810 1316 c0 -9 5 -16 10 -16 6 0 10 4 10 9 0 6 -4 13 -10 16 -5 3
-10 -1 -10 -9z"/>
<path d="M3735 1320 c3 -5 11 -10 16 -10 6 0 7 5 4 10 -3 6 -11 10 -16 10 -6
0 -7 -4 -4 -10z"/>
<path d="M4230 1301 c13 -25 33 -28 28 -4 -2 10 -11 19 -21 21 -16 3 -17 1 -7
-17z"/>
<path d="M3786 1291 c-15 -16 -16 -23 -5 -43 l13 -23 6 25 c7 28 40 41 40 16
0 -9 4 -16 10 -16 10 0 23 -12 149 -130 35 -33 66 -59 68 -57 6 7 -238 247
-251 247 -7 0 -21 -9 -30 -19z"/>
<path d="M2445 1289 c7 -10 55 -18 55 -9 0 4 -13 10 -29 12 -17 2 -28 1 -26
-3z"/>
<path d="M2775 1290 c-3 -5 1 -10 10 -10 9 0 13 5 10 10 -3 6 -8 10 -10 10 -2
0 -7 -4 -10 -10z"/>
<path d="M4190 1287 c0 -8 9 -22 20 -32 24 -21 28 -1 6 28 -16 20 -26 22 -26
4z"/>
<path d="M1335 1279 c-4 -6 -5 -12 -2 -15 2 -3 7 2 10 11 7 17 1 20 -8 4z"/>
<path d="M4116 1274 c-4 -10 -1 -14 6 -12 15 5 23 28 10 28 -5 0 -13 -7 -16
-16z"/>
<path d="M940 1264 c0 -3 5 -15 11 -26 10 -19 9 -20 -15 -14 -15 4 -26 2 -26
-4 0 -5 6 -10 14 -10 8 0 16 -5 18 -11 2 -7 12 0 22 15 14 22 15 30 5 42 -11
14 -29 19 -29 8z"/>
<path d="M1307 1253 c-4 -3 -7 -11 -7 -17 0 -6 5 -5 12 2 6 6 9 14 7 17 -3 3
-9 2 -12 -2z"/>
<path d="M3278 1204 c-38 -52 -50 -78 -25 -52 35 36 77 97 70 101 -5 3 -25
-19 -45 -49z"/>
<path d="M4160 1256 c0 -4 5 -16 10 -27 7 -11 7 -19 1 -19 -5 0 -11 6 -14 13
-4 10 -7 10 -18 0 -21 -20 2 -36 34 -24 32 12 34 22 7 46 -11 10 -20 15 -20
11z"/>
<path d="M2543 1190 c0 -36 2 -50 4 -32 2 17 2 47 0 65 -2 17 -4 3 -4 -33z"/>
<path d="M4 1218 c-6 -9 745 -15 801 -7 22 3 -148 8 -378 10 -231 2 -421 1
-423 -3z"/>
<path d="M1235 1219 c-4 -6 -5 -12 -2 -15 2 -3 7 2 10 11 7 17 1 20 -8 4z"/>
<path d="M3810 1222 c0 -11 273 -277 467 -454 22 -20 43 -35 46 -32 3 3 -11
20 -31 37 -55 46 -202 191 -202 199 0 8 -48 58 -55 58 -3 0 -51 45 -106 100
-95 93 -119 112 -119 92z"/>
<path d="M1260 1199 c0 -5 5 -7 10 -4 6 3 10 8 10 11 0 2 -4 4 -10 4 -5 0 -10
-5 -10 -11z"/>
<path d="M1719 1191 c-13 -11 -19 -20 -13 -21 15 0 50 27 43 34 -3 4 -17 -2
-30 -13z"/>
<path d="M1190 1179 c0 -5 5 -7 10 -4 6 3 10 8 10 11 0 2 -4 4 -10 4 -5 0 -10
-5 -10 -11z"/>
<path d="M4185 1169 c-12 -19 5 -23 22 -6 16 16 16 17 1 17 -9 0 -20 -5 -23
-11z"/>
<path d="M1684 1149 c-9 -16 -34 -112 -29 -117 2 -2 9 16 15 39 6 24 15 54 20
67 10 23 6 30 -6 11z"/>
<path d="M3181 1100 c-19 -16 -32 -33 -28 -36 8 -8 44 22 58 48 13 24 10 23
-30 -12z"/>
<path d="M3241 1084 c0 -11 3 -14 6 -6 3 7 2 16 -1 19 -3 4 -6 -2 -5 -13z"/>
<path d="M998 1012 c-20 -26 -46 -58 -57 -71 -23 -26 -28 -51 -10 -51 5 0 8 4
5 8 -3 5 6 15 19 22 14 7 25 17 25 21 0 4 18 26 41 50 34 35 38 44 27 56 -12
11 -20 6 -50 -35z"/>
<path d="M4080 1055 c0 -5 26 -35 57 -65 31 -30 88 -91 126 -135 39 -44 74
-81 79 -82 5 -1 4 1 -2 4 -5 2 -10 11 -10 19 0 8 -56 71 -125 142 -69 70 -125
123 -125 117z"/>
<path d="M3140 1040 c0 -5 5 -10 10 -10 6 0 10 5 10 10 0 6 -4 10 -10 10 -5 0
-10 -4 -10 -10z"/>
<path d="M1224 1021 c3 -5 -1 -11 -9 -15 -20 -7 -19 -26 1 -26 8 0 13 -4 9 -9
-13 -22 14 -18 29 4 20 30 22 58 2 33 -14 -20 -28 -14 -19 8 3 8 0 14 -7 14
-6 0 -9 -4 -6 -9z"/>
<path d="M1634 995 c-9 -35 0 -41 14 -10 7 14 8 27 2 30 -5 3 -12 -6 -16 -20z"/>
<path d="M2640 1000 c9 -6 116 -10 280 -9 146 1 256 5 245 9 -32 12 -543 12
-525 0z"/>
<path d="M3775 999 c-4 -6 -4 -13 -1 -16 8 -8 36 5 36 17 0 13 -27 13 -35 -1z"/>
<path d="M3203 993 c9 -2 23 -2 30 0 6 3 -1 5 -18 5 -16 0 -22 -2 -12 -5z"/>
<path d="M3278 993 c7 -3 16 -2 19 1 4 3 -2 6 -13 5 -11 0 -14 -3 -6 -6z"/>
<path d="M3315 990 c3 -5 13 -10 21 -10 8 0 12 5 9 10 -3 6 -13 10 -21 10 -8
0 -12 -4 -9 -10z"/>
<path d="M3900 980 c-11 -7 -12 -12 -4 -20 8 -8 14 -7 23 4 14 17 1 28 -19 16z"/>
<path d="M1296 954 c-10 -25 -7 -44 7 -44 16 0 40 38 32 50 -9 15 -32 12 -39
-6z"/>
<path d="M3161 944 c0 -11 3 -14 6 -6 3 7 2 16 -1 19 -3 4 -6 -2 -5 -13z"/>
<path d="M3680 933 c0 -5 5 -15 10 -23 8 -13 13 -12 32 8 l22 22 -32 0 c-17 0
-32 -3 -32 -7z"/>
<path d="M3835 930 c3 -5 10 -10 16 -10 5 0 9 5 9 10 0 6 -7 10 -16 10 -8 0
-12 -4 -9 -10z"/>
<path d="M3463 922 c2 -4 59 -118 126 -254 109 -220 125 -248 146 -248 13 0
27 5 30 10 4 6 -26 72 -66 148 -40 75 -91 172 -113 214 -21 43 -43 75 -48 72
-4 -3 -8 2 -8 10 0 9 -8 16 -17 16 -15 0 -16 2 -3 10 8 5 12 11 9 14 -8 8 -60
15 -56 8z m118 -150 c6 -20 15 -42 20 -47 9 -13 98 -182 100 -193 1 -4 7 -16
14 -27 7 -11 16 -31 20 -45 l6 -25 -20 25 c-23 28 -138 257 -151 299 -4 14
-11 35 -16 45 -5 13 -4 17 4 13 6 -4 16 -24 23 -45z"/>
<path d="M1380 901 c-7 -13 -7 -22 0 -26 13 -8 30 3 30 20 0 23 -18 27 -30 6z"/>
<path d="M3797 902 c-21 -23 -21 -28 -2 -36 9 -3 19 3 26 15 15 29 -3 45 -24
21z"/>
<path d="M1591 842 c-8 -26 -19 -54 -26 -62 -13 -15 -150 -285 -165 -326 -7
-18 -4 -28 17 -48 21 -22 28 -24 41 -14 14 12 101 186 176 353 15 33 32 68 37
78 11 21 6 33 -10 23 -10 -7 -41 -64 -41 -77 0 -12 -161 -338 -169 -344 -5 -2
-14 1 -20 9 -8 10 3 40 45 127 85 173 109 222 124 249 28 52 29 58 17 69 -10
8 -16 -1 -26 -37z"/>
<path d="M3616 875 c-4 -10 1 -15 14 -15 11 0 20 7 20 15 0 8 -6 15 -14 15 -8
0 -16 -7 -20 -15z"/>
<path d="M1430 859 c0 -24 23 -21 28 4 2 10 -3 17 -12 17 -10 0 -16 -9 -16
-21z"/>
<path d="M3760 863 c0 -13 5 -23 10 -23 13 0 13 11 0 30 -8 12 -10 11 -10 -7z"/>
<path d="M1360 824 c0 -17 22 -14 28 4 2 7 -3 12 -12 12 -9 0 -16 -7 -16 -16z"/>
<path d="M1476 828 c7 -17 54 -51 61 -44 6 5 -47 55 -59 56 -4 0 -5 -6 -2 -12z"/>
<path d="M3708 828 c-3 -7 -3 -19 -1 -26 6 -16 33 4 33 24 0 17 -26 18 -32 2z"/>
<path d="M848 813 c7 -3 16 -2 19 1 4 3 -2 6 -13 5 -11 0 -14 -3 -6 -6z"/>
<path d="M1740 786 c0 -2 7 -9 15 -16 12 -10 15 -10 15 4 0 9 -7 16 -15 16 -8
0 -15 -2 -15 -4z"/>
<path d="M3745 780 c-3 -5 -1 -10 4 -10 6 0 11 5 11 10 0 6 -2 10 -4 10 -3 0
-8 -4 -11 -10z"/>
<path d="M3390 740 c0 -11 4 -20 9 -20 11 0 22 26 14 34 -12 12 -23 5 -23 -14z"/>
<path d="M3346 726 c3 -8 12 -12 20 -9 17 6 9 23 -11 23 -8 0 -12 -6 -9 -14z"/>
<path d="M3280 704 c0 -9 5 -14 12 -12 18 6 21 28 4 28 -9 0 -16 -7 -16 -16z"/>
<path d="M3481 696 c-7 -8 -8 -17 -3 -20 6 -3 15 1 21 8 7 8 8 17 3 20 -6 3
-15 -1 -21 -8z"/>
<path d="M1764 678 c-6 -9 12 -28 26 -28 12 0 31 18 24 22 -25 14 -44 16 -50
6z"/>
<path d="M3410 678 c0 -22 17 -41 29 -34 8 5 8 13 1 27 -12 21 -30 26 -30 7z"/>
<path d="M1675 665 c20 -16 37 -16 36 0 0 6 -13 11 -28 13 -27 2 -27 2 -8 -13z"/>
<path d="M3230 670 c0 -5 5 -10 10 -10 6 0 10 5 10 10 0 6 -4 10 -10 10 -5 0
-10 -4 -10 -10z"/>
<path d="M3160 654 c0 -17 22 -14 28 4 2 7 -3 12 -12 12 -9 0 -16 -7 -16 -16z"/>
<path d="M3347 663 c-4 -3 -4 -17 -1 -29 5 -18 2 -24 -10 -24 -9 0 -16 -5 -16
-11 0 -6 7 -8 16 -5 9 3 25 6 37 6 20 1 21 1 4 11 -11 7 -16 17 -12 29 6 18
-7 35 -18 23z"/>
<path d="M1841 646 c-11 -13 -9 -17 14 -28 22 -10 28 -9 36 3 5 8 7 19 6 24
-6 17 -43 17 -56 1z"/>
<path d="M3300 634 c0 -9 5 -14 12 -12 18 6 21 28 4 28 -9 0 -16 -7 -16 -16z"/>
<path d="M1950 614 c-13 -33 -13 -31 10 -37 13 -3 20 0 20 10 0 8 -4 11 -10 8
-5 -3 -10 1 -10 9 0 10 6 13 15 10 8 -4 15 -2 15 4 0 5 -7 13 -15 16 -11 4
-19 -3 -25 -20z"/>
<path d="M3193 617 c-3 -5 -3 -10 -1 -13 7 -6 68 8 68 16 0 10 -61 7 -67 -3z"/>
<path d="M2047 593 c-9 -19 -8 -26 4 -34 21 -13 49 -11 49 5 0 8 3 21 6 29 3
10 -3 16 -21 19 -21 4 -29 0 -38 -19z m35 -8 c0 -5 -5 -11 -11 -13 -6 -2 -11
4 -11 13 0 9 5 15 11 13 6 -2 11 -8 11 -13z"/>
<path d="M2358 613 c6 -2 18 -2 25 0 6 3 1 5 -13 5 -14 0 -19 -2 -12 -5z"/>
<path d="M3218 583 c-10 -2 -18 -9 -18 -15 0 -5 7 -7 16 -4 9 3 25 6 35 6 11
0 17 5 14 10 -6 10 -17 11 -47 3z"/>
<path d="M2176 564 c-4 -9 -4 -19 -1 -22 7 -8 35 19 29 29 -8 14 -21 11 -28
-7z"/>
<path d="M2221 564 c0 -11 3 -14 6 -6 3 7 2 16 -1 19 -3 4 -6 -2 -5 -13z"/>
<path d="M2935 570 c-7 -11 4 -60 14 -60 4 0 5 16 3 35 -4 37 -7 41 -17 25z"/>
<path d="M3104 569 c-3 -6 -2 -15 2 -19 12 -12 38 5 30 19 -9 14 -23 14 -32 0z"/>
<path d="M3005 561 c-7 -12 12 -24 25 -16 11 7 4 25 -10 25 -5 0 -11 -4 -15
-9z"/>
<path d="M1985 540 c3 -5 11 -10 16 -10 6 0 7 5 4 10 -3 6 -11 10 -16 10 -6 0
-7 -4 -4 -10z"/>
<path d="M2348 533 c7 -3 16 -2 19 1 4 3 -2 6 -13 5 -11 0 -14 -3 -6 -6z"/>
<path d="M2400 530 c8 -5 24 -9 35 -9 l20 0 -20 9 c-11 5 -27 9 -35 9 -13 1
-13 0 0 -9z"/>
<path d="M3010 520 c0 -5 5 -10 10 -10 6 0 10 5 10 10 0 6 -4 10 -10 10 -5 0
-10 -4 -10 -10z"/>
<path d="M2347 513 c-10 -9 -8 -33 2 -33 5 0 11 9 14 20 5 20 -3 26 -16 13z"/>
<path d="M2205 500 c19 -8 113 -14 104 -6 -2 2 -31 6 -64 9 -36 3 -52 2 -40
-3z"/>
<path d="M2713 503 c9 -2 25 -2 35 0 9 3 1 5 -18 5 -19 0 -27 -2 -17 -5z"/>
<path d="M2825 500 c-4 -6 -3 -16 3 -22 6 -6 12 -6 17 2 4 6 3 16 -3 22 -6 6
-12 6 -17 -2z"/>
<path d="M2443 493 c9 -2 23 -2 30 0 6 3 -1 5 -18 5 -16 0 -22 -2 -12 -5z"/>
<path d="M2582 440 c0 -14 2 -19 5 -12 2 6 2 18 0 25 -3 6 -5 1 -5 -13z"/>
<path d="M2576 385 c-3 -8 -1 -15 4 -15 6 0 10 7 10 15 0 8 -2 15 -4 15 -2 0
-6 -7 -10 -15z"/>
<path d="M2528 195 l3 -145 35 0 34 0 0 145 0 145 -37 0 -38 0 3 -145z m50 3
c-2 -86 -7 -123 -15 -126 -10 -3 -13 26 -13 122 0 106 2 126 15 126 13 0 15
-18 13 -122z"/>
</g>
</svg>
